<?xml version="1.0" encoding="UTF-8" standalone="no"?>
<!DOCTYPE svg PUBLIC "-//W3C//DTD SVG 1.1//EN" "http://www.w3.org/Graphics/SVG/1.1/DTD/svg11.dtd">
<!-- Generated by Microsoft Visio, SVG Export adds-forest.svg Page-1 -->
<svg xmlns="http://www.w3.org/2000/svg" xmlns:xlink="http://www.w3.org/1999/xlink" xmlns:ev="http://www.w3.org/2001/xml-events"
		width="7.48958in" height="3.65784in" viewBox="0 0 539.25 263.364" xml:space="preserve" color-interpolation-filters="sRGB"
		class="st23">
	<style type="text/css">
	<![CDATA[
		.st1 {fill:#ffffff;stroke:none;stroke-linecap:round;stroke-linejoin:round;stroke-width:1.5}
		.st2 {fill:none;stroke:#0078d7;stroke-dasharray:0.01,4.5;stroke-width:1.5}
		.st3 {fill:#ffffff;stroke:none;stroke-width:0.25}
		.st4 {fill:#0078d7;stroke:none;stroke-width:0.25}
		.st5 {fill:#4a80b1;stroke:none;stroke-linecap:butt;stroke-width:0.75}
		.st6 {fill:#f2f2f2;stroke:#d8d8d8;stroke-width:0.25}
		.st7 {fill:none;stroke:none;stroke-width:0.25}
		.st8 {fill:#ffffff;font-family:Segoe UI Semibold;font-size:0.499992em}
		.st9 {marker-end:url(#mrkr4-43);stroke:#5b9bd5;stroke-width:2.25}
		.st10 {fill:#5b9bd5;fill-opacity:1;stroke:#5b9bd5;stroke-opacity:1;stroke-width:0.55555555555556}
		.st11 {fill:#00188f;stroke:none;stroke-linecap:butt;stroke-width:0.597656}
		.st12 {fill:#ffffff;stroke:none;stroke-linecap:butt;stroke-width:0.75}
		.st13 {marker-end:url(#mrkr4-102);stroke:#5b9bd5;stroke-linecap:round;stroke-linejoin:round;stroke-width:1.5}
		.st14 {fill:#5b9bd5;fill-opacity:1;stroke:#5b9bd5;stroke-opacity:1;stroke-width:0.45454545454545}
		.st15 {fill:#00188f;stroke:none;stroke-linecap:butt;stroke-width:0.75}
		.st16 {marker-end:url(#mrkr4-43);marker-start:url(#mrkr4-133);stroke:#5b9bd5;stroke-width:2.25}
		.st17 {marker-end:url(#mrkr4-140);stroke:#ed7d31;stroke-linecap:round;stroke-linejoin:round;stroke-width:2.25}
		.st18 {fill:#ed7d31;fill-opacity:1;stroke:#ed7d31;stroke-opacity:1;stroke-width:0.55555555555556}
		.st19 {stroke:#ed7d31;stroke-linecap:round;stroke-linejoin:round;stroke-width:2.25}
		.st20 {marker-end:url(#mrkr4-174);stroke:#007f7f;stroke-dasharray:4.5,4.5;stroke-linecap:round;stroke-linejoin:round;stroke-width:1.5}
		.st21 {fill:#007f7f;fill-opacity:1;stroke:#007f7f;stroke-opacity:1;stroke-width:0.45454545454545}
		.st22 {stroke:#007f7f;stroke-dasharray:4.5,4.5;stroke-linecap:round;stroke-linejoin:round;stroke-width:1.5}
		.st23 {fill:none;fill-rule:evenodd;font-size:12px;overflow:visible;stroke-linecap:square;stroke-miterlimit:3}
	]]>
	</style>

	<defs id="Markers">
		<g id="lend4">
			<path d="M 2 1 L 0 0 L 2 -1 L 2 1 " style="stroke:none"/>
		</g>
		<marker id="mrkr4-43" class="st10" refX="-3.6" orient="auto" markerUnits="strokeWidth" overflow="visible">
			<use xlink:href="#lend4" transform="scale(-1.8,-1.8) "/>
		</marker>
		<marker id="mrkr4-102" class="st14" refX="-4.4" orient="auto" markerUnits="strokeWidth" overflow="visible">
			<use xlink:href="#lend4" transform="scale(-2.2,-2.2) "/>
		</marker>
		<marker id="mrkr4-133" class="st10" refX="3.44" orient="auto" markerUnits="strokeWidth" overflow="visible">
			<use xlink:href="#lend4" transform="scale(1.8) "/>
		</marker>
		<marker id="mrkr4-140" class="st18" refX="-3.6" orient="auto" markerUnits="strokeWidth" overflow="visible">
			<use xlink:href="#lend4" transform="scale(-1.8,-1.8) "/>
		</marker>
		<marker id="mrkr4-174" class="st21" refX="-4.4" orient="auto" markerUnits="strokeWidth" overflow="visible">
			<use xlink:href="#lend4" transform="scale(-2.2,-2.2) "/>
		</marker>
	</defs>
	<g>
		<title>Page-1</title>
		<g id="group1148-1" transform="translate(0.75,-19.4502)">
			<title>Sheet.1148</title>
			<g id="shape1139-2">
				<title>Sheet.1139</title>
				<rect x="0" y="20.9502" width="537.75" height="242.414" class="st1"/>
			</g>
			<g id="shape1044-4" transform="translate(218.245,-8.41428)">
				<title>Virtual Network Box.1044</title>
				<path d="M0 263.36 L227.81 263.36 L227.81 29.36 L0 29.36 L0 263.36 Z" class="st2"/>
			</g>
			<g id="group1045-6" transform="translate(423.895,-3.72118)">
				<title>Sheet.1045</title>
				<g id="shape1046-7">
					<title>Sheet.1046</title>
					<rect x="0" y="253.978" width="17.325" height="9.3862" class="st3"/>
				</g>
				<g id="group1047-9">
					<title>Virtual Network</title>
					<g id="shape1048-10" transform="translate(12.0617,0)">
						<title>Sheet.1048</title>
						<path d="M5.26 258.67 L4.21 257.62 L0.57 253.98 L0 254.59 L4.08 258.67 L0 262.75 L0.57 263.36 L4.21 259.72
									 L5.26 258.67 Z" class="st4"/>
					</g>
					<g id="shape1049-12">
						<title>Sheet.1049</title>
						<path d="M0 258.67 L1.05 257.62 L4.69 253.98 L5.26 254.59 L1.18 258.67 L5.26 262.75 L4.69 263.36 L1.05 259.72
									 L0 258.67 Z" class="st4"/>
					</g>
					<g id="shape1050-14" transform="translate(4.4738,-3.64044)">
						<title>Sheet.1050</title>
						<path d="M2.11 262.31 C2.11 262.88 1.62 263.36 1.05 263.36 C0.44 263.36 0 262.88 0 262.31 C0 261.74 0.48
									 261.26 1.05 261.26 C1.62 261.26 2.11 261.7 2.11 262.31 Z" class="st4"/>
					</g>
					<g id="shape1051-16" transform="translate(7.63177,-3.64044)">
						<title>Sheet.1051</title>
						<ellipse cx="1.05266" cy="262.312" rx="1.05266" ry="1.05266" class="st4"/>
					</g>
					<g id="shape1052-18" transform="translate(10.7897,-3.64044)">
						<title>Sheet.1052</title>
						<ellipse cx="1.05266" cy="262.312" rx="1.05266" ry="1.05266" class="st4"/>
					</g>
				</g>
			</g>
			<g id="shape1055-20" transform="translate(125.975,-31.7997)">
				<title>Internet</title>
				<path d="M19.35 224.66 A19.3542 19.3542 -180 0 0 0 244.01 A19.3534 19.3534 -180 0 0 19.35 263.36 A19.3527 19.3527
							 -180 0 0 38.71 244.01 A19.3534 19.3534 -180 0 0 19.35 224.66 ZM19.95 260.92 L19.95 260.28 L19.95 253.08
							 L26.5 253.08 L26.08 253.95 A21.8723 21.8723 0 0 1 21.86 259.92 L21.21 260.51 L20.81 260.87 L19.95 260.92
							 ZM20.59 227.14 L20.96 227.47 A21.9105 21.9105 0 0 1 25.94 234.06 L26.37 234.94 L19.95 234.94 L19.95
							 227.11 L20.59 227.14 ZM33.63 234.94 L27.7 234.94 L27.54 234.58 A23.2089 23.2089 -180 0 0 23.34 228.11
							 L22.7 227.41 A16.9691 16.9691 0 0 1 33.63 234.94 ZM19.95 243.42 L19.95 236.15 L26.86 236.15 L27 236.55
							 A22.7591 22.7591 0 0 1 28.26 242.77 L28.29 243.41 L19.95 243.41 L19.95 243.42 ZM28.31 244.63 L28.28
							 245.26 A22.6228 22.6228 0 0 1 27.09 251.46 L26.95 251.87 L19.95 251.87 L19.95 244.63 L28.31 244.63 ZM23.53
							 259.89 A23.081 23.081 -180 0 0 27.62 253.45 L27.78 253.08 L33.63 253.08 A16.9685 16.9685 0 0 1 22.93
							 260.56 L23.53 259.89 ZM28.24 251.87 L28.48 251.09 A23.8859 23.8859 -180 0 0 29.5 245.2 L29.52 244.63
							 L36.26 244.63 A16.823 16.823 0 0 1 34.34 251.87 L28.24 251.87 ZM29.52 243.42 L29.49 242.84 A24.0155
							 24.0155 -180 0 0 28.42 236.94 L28.18 236.15 L34.34 236.15 A16.7965 16.7965 0 0 1 36.26 243.42 L29.52
							 243.42 ZM18.74 227.98 L18.74 234.94 L12.34 234.94 L12.77 234.07 A21.9716 21.9716 0 0 1 16.91 228.29
							 L16.92 228.28 L16.91 228.29 L17.48 227.76 L18.18 227.14 L18.74 227.11 L18.74 227.98 ZM16.08 227.4 L15.44
							 228.08 A23.1437 23.1437 -180 0 0 11.23 234.58 L11.07 234.94 L5.08 234.94 A16.962 16.962 0 0 1 16.08
							 227.4 ZM10.59 236.15 L10.34 236.94 A23.8814 23.8814 -180 0 0 9.28 242.84 L9.25 243.42 L2.45 243.42 A16.8134
							 16.8134 0 0 1 4.37 236.15 L10.59 236.15 ZM2.45 244.63 L9.24 244.63 L9.27 245.2 A23.7416 23.7416 -180
							 0 0 10.28 251.09 L10.52 251.87 L4.37 251.87 A16.822 16.822 0 0 1 2.45 244.63 ZM10.99 253.08 L11.15 253.45
							 A23.1047 23.1047 -180 0 0 15.25 259.91 L15.86 260.58 A16.9721 16.9721 0 0 1 5.08 253.08 L10.99 253.08
							 L10.99 253.08 ZM11.7 251.47 A22.7342 22.7342 0 0 1 10.5 245.26 L10.47 244.63 L18.74 244.63 L18.74 251.87
							 L11.84 251.87 L11.7 251.47 ZM10.46 243.42 L10.49 242.78 A22.5781 22.5781 0 0 1 11.74 236.55 L11.88 236.15
							 L18.74 236.15 L18.74 243.42 L10.46 243.42 ZM17.96 260.87 L17.73 260.67 A22.0124 22.0124 0 0 1 12.74
							 253.95 L12.31 253.08 L18.74 253.08 L18.74 260.91 L17.96 260.87 Z" class="st5"/>
			</g>
			<g id="shape1058-22" transform="translate(225.138,-17.8679)">
				<title>Sheet.1058</title>
				<rect x="0" y="173.818" width="68.9468" height="89.5464" class="st6"/>
			</g>
			<g id="group1059-24" transform="translate(228.256,-83.0469)">
				<title>Sheet.1059</title>
				<g id="group1060-25" transform="translate(3.08463,-0.700182)">
					<title>Sheet.1060</title>
					<g id="shape1061-26">
						<title>Lock, protected.1135</title>
						<path d="M14.31 251.38 L13.31 251.38 L13.31 249.53 C13.31 245.61 10.81 243.59 7.9 243.59 L7.42 243.59 C4.45
									 243.59 2.01 245.55 2.01 249.53 L2.01 251.38 L1.01 251.38 C0.58 251.38 0 251.97 0 252.39 L0 262.36
									 C-0 262.78 0.58 263.36 1.01 263.36 L14.31 263.36 C14.74 263.36 15.32 262.78 15.32 262.36 L15.32
									 252.39 C15.32 251.97 14.74 251.38 14.31 251.38 ZM8.43 257.27 L8.43 261.4 L6.94 261.4 L6.94 257.27
									 C6.36 257 5.94 256.42 5.94 255.73 C5.94 254.78 6.73 253.98 7.69 253.98 C8.64 253.98 9.44 254.78
									 9.44 255.73 C9.38 256.37 9.01 256.95 8.43 257.27 ZM11.45 251.38 L3.87 251.38 L3.87 249.53 C3.87
									 247.04 5.2 245.34 7.42 245.34 L7.9 245.34 C10.18 245.34 11.45 247.04 11.45 249.53 L11.45 251.38
									 Z" class="st4"/>
					</g>
					<g id="shape1062-28" transform="translate(2.28102,-0.389869)">
						<title>Sheet.1062</title>
						<rect x="0" y="252.996" width="10.7581" height="10.3682" class="st4"/>
					</g>
				</g>
				<g id="shape1063-30">
					<title>Sheet.1063</title>
					<desc>NSG</desc>
					<rect x="0" y="250.724" width="21.4894" height="12.6408" class="st7"/>
					<text x="4.72" y="258.84" class="st8">NSG</text>				</g>
			</g>
			<g id="group1064-33" transform="translate(246.768,-40.6773)">
				<title>Virtual machine.1064</title>
				<g id="shape1065-34" transform="translate(8.68859,-9.53091)">
					<title>Sheet.1065</title>
					<path d="M0 263.36 L10.02 263.36 L10.02 256.65 L0 256.65 L0 263.36 ZM7.22 261.4 L5.33 262.49 L5.33 260.32 L7.22
								 259.24 L7.22 261.4 ZM5.16 257.84 L7.04 258.93 L5.17 260.01 L3.28 258.93 L5.16 257.84 ZM3.1 259.22
								 L4.98 260.31 L4.98 262.49 L3.1 261.4 L3.1 259.22 Z" class="st4"/>
				</g>
				<g id="shape1066-36">
					<title>Sheet.1066</title>
					<path d="M25.37 242.13 L1.17 242.13 C0.53 242.13 0 242.66 0 243.3 L0 262.19 C0 262.84 0.53 263.36 1.17 263.36
								 L25.37 263.36 C26.02 263.36 26.54 262.84 26.54 262.19 L26.54 243.3 C26.54 242.66 26.02 242.13 25.37
								 242.13 ZM13.18 259.71 L12.44 261.9 C12.44 261.93 12.43 261.94 12.42 261.96 C12.41 261.97 12.39 261.98
								 12.37 261.99 C12.35 261.99 12.32 262 12.28 262 C12.24 262 12.19 262 12.12 262 C12.07 262 12.03 262
								 11.99 262 C11.95 262 11.92 262 11.9 262 C11.87 262 11.85 261.99 11.84 261.99 C11.82 261.98 11.81
								 261.97 11.8 261.97 C11.78 261.96 11.78 261.95 11.77 261.94 C11.76 261.93 11.76 261.92 11.75 261.9
								 L11.02 259.71 C11 259.66 10.99 259.62 10.99 259.6 C10.99 259.57 10.99 259.55 11.01 259.54 C11.02
								 259.52 11.05 259.51 11.09 259.51 C11.13 259.51 11.18 259.51 11.25 259.51 C11.31 259.51 11.35 259.51
								 11.39 259.51 C11.42 259.51 11.45 259.52 11.46 259.52 C11.48 259.53 11.49 259.54 11.5 259.55 C11.51
								 259.57 11.52 259.58 11.52 259.6 L12.12 261.51 L12.13 261.51 L12.72 259.61 C12.72 259.59 12.73 259.57
								 12.73 259.56 C12.74 259.54 12.76 259.53 12.77 259.53 C12.79 259.52 12.82 259.51 12.85 259.51 C12.89
								 259.51 12.93 259.51 12.99 259.51 C13.05 259.51 13.1 259.51 13.13 259.51 C13.16 259.52 13.19 259.53
								 13.2 259.54 C13.21 259.55 13.21 259.58 13.21 259.6 C13.21 259.63 13.2 259.67 13.18 259.71 ZM16.41
								 261.92 C16.41 261.94 16.41 261.95 16.4 261.96 C16.39 261.97 16.38 261.98 16.36 261.98 C16.34 261.99
								 16.32 261.99 16.29 262 C16.26 262 16.22 262 16.17 262 C16.13 262 16.09 262 16.06 262 C16.03 261.99
								 16 261.99 15.98 261.98 C15.97 261.98 15.95 261.97 15.95 261.96 C15.94 261.95 15.94 261.94 15.94
								 261.92 L15.94 259.91 L15.93 259.91 L15.21 261.92 C15.21 261.94 15.2 261.95 15.19 261.96 C15.18 261.97
								 15.16 261.98 15.14 261.99 C15.12 262 15.1 262 15.07 262 C15.04 262 15 262 14.96 262 C14.91 262 14.88
								 262 14.84 262 C14.81 262 14.79 261.99 14.77 261.98 C14.75 261.98 14.73 261.97 14.72 261.96 C14.71
								 261.95 14.7 261.94 14.7 261.92 L14.01 259.91 L14 259.91 L14 261.92 C14 261.94 14 261.95 13.99 261.96
								 C13.99 261.97 13.97 261.98 13.95 261.98 C13.93 261.99 13.91 261.99 13.88 262 C13.85 262 13.81 262
								 13.76 262 C13.72 262 13.68 262 13.65 262 C13.62 261.99 13.59 261.99 13.58 261.98 C13.56 261.98 13.54
								 261.97 13.54 261.96 C13.53 261.95 13.53 261.94 13.53 261.92 L13.53 259.72 C13.53 259.65 13.54 259.6
								 13.58 259.57 C13.61 259.54 13.66 259.52 13.72 259.52 L14.04 259.52 C14.1 259.52 14.15 259.52 14.2
								 259.53 C14.24 259.54 14.27 259.56 14.3 259.58 C14.34 259.6 14.36 259.63 14.38 259.67 C14.4 259.71
								 14.42 259.75 14.43 259.8 L14.97 261.28 L14.98 261.28 L15.53 259.81 C15.55 259.75 15.57 259.71 15.59
								 259.67 C15.61 259.64 15.63 259.6 15.66 259.58 C15.68 259.56 15.71 259.54 15.75 259.53 C15.78 259.52
								 15.83 259.52 15.87 259.52 L16.21 259.52 C16.25 259.52 16.28 259.52 16.3 259.53 C16.33 259.54 16.35
								 259.55 16.36 259.57 C16.38 259.59 16.39 259.61 16.4 259.63 C16.41 259.66 16.41 259.69 16.41 259.72
								 L16.41 261.92 L16.41 261.92 ZM19.53 254.01 C19.53 254.37 19.25 254.65 18.89 254.65 L15.25 254.65
								 C14.9 256.07 15.06 256.25 17.53 256.25 L17.53 256.84 L14.66 256.84 L12.57 256.84 L9.88 256.84 L9.88
								 256.25 C12.09 256.25 12.45 256.08 12.1 254.65 L8.51 254.65 C8.16 254.65 7.87 254.37 7.87 254.01
								 L7.87 246.94 C7.87 246.58 8.16 246.29 8.51 246.29 L18.89 246.29 C19.25 246.29 19.53 246.58 19.53
								 246.94 L19.53 254.01 L19.53 254.01 Z" class="st4"/>
				</g>
			</g>
			<g id="shape1068-38" transform="translate(167.958,-51.2924)">
				<title>Sheet.1068</title>
				<path d="M0 263.36 L69.34 263.36" class="st9"/>
			</g>
			<g id="shape1070-44" transform="translate(313.901,-17.4143)">
				<title>Sheet.1070</title>
				<rect x="0" y="173.818" width="92.8125" height="89.5464" class="st6"/>
			</g>
			<g id="group1072-46" transform="translate(313.901,-83.9158)">
				<title>Sheet.1072</title>
				<g id="group1073-47" transform="translate(3.08463,-0.700182)">
					<title>Sheet.1073</title>
					<g id="shape1074-48">
						<title>Lock, protected.1135</title>
						<path d="M14.31 251.38 L13.31 251.38 L13.31 249.53 C13.31 245.61 10.81 243.59 7.9 243.59 L7.42 243.59 C4.45
									 243.59 2.01 245.55 2.01 249.53 L2.01 251.38 L1.01 251.38 C0.58 251.38 0 251.97 0 252.39 L0 262.36
									 C-0 262.78 0.58 263.36 1.01 263.36 L14.31 263.36 C14.74 263.36 15.32 262.78 15.32 262.36 L15.32
									 252.39 C15.32 251.97 14.74 251.38 14.31 251.38 ZM8.43 257.27 L8.43 261.4 L6.94 261.4 L6.94 257.27
									 C6.36 257 5.94 256.42 5.94 255.73 C5.94 254.78 6.73 253.98 7.69 253.98 C8.64 253.98 9.44 254.78
									 9.44 255.73 C9.38 256.37 9.01 256.95 8.43 257.27 ZM11.45 251.38 L3.87 251.38 L3.87 249.53 C3.87
									 247.04 5.2 245.34 7.42 245.34 L7.9 245.34 C10.18 245.34 11.45 247.04 11.45 249.53 L11.45 251.38
									 Z" class="st4"/>
					</g>
					<g id="shape1075-50" transform="translate(2.28102,-0.389869)">
						<title>Sheet.1075</title>
						<rect x="0" y="252.996" width="10.7581" height="10.3682" class="st4"/>
					</g>
				</g>
				<g id="shape1076-52">
					<title>Sheet.1076</title>
					<desc>NSG</desc>
					<rect x="0" y="250.724" width="21.4894" height="12.6408" class="st7"/>
					<text x="4.72" y="258.84" class="st8">NSG</text>				</g>
			</g>
			<g id="group1078-55" transform="translate(362.177,-65.4267)">
				<title>Domain Server VM.1078</title>
				<g id="shape1079-56">
					<title>Sheet.1079</title>
					<path d="M34.31 237.92 C34.31 238.53 34.39 236.6 33.87 236.08 C33.6 235.81 33.25 235.64 32.99 235.64 C32.9 235.64
								 32.81 235.64 32.73 235.64 L1.49 235.64 C0.7 235.64 0 236.43 0 237.39 L0 261.61 C0 262.57 0.61 263.36
								 1.49 263.36 L32.81 263.36 C33.6 263.36 34.31 262.57 34.31 261.61 L34.31 237.92 Z" class="st11"/>
				</g>
				<g id="group1080-58" transform="translate(8.87916,-3.53786)">
					<title>Sheet.1080</title>
					<g id="shape1081-59" transform="translate(3.76473,-0.0710137)">
						<title>Domain controller (opaque).5007</title>
						<path d="M0.69 263.36 C0.19 263.36 0 263.05 0.25 262.64 L5.99 253.1 C6.23 252.69 6.64 252.69 6.88 253.1 L12.62
									 262.64 C12.87 263.05 12.68 263.36 12.18 263.36 L0.69 263.36 Z" class="st12"/>
					</g>
					<g id="shape1082-61">
						<title>Domain controller (opaque).5008</title>
						<path d="M3 262.71 L3.82 261.35 L1.51 261.35 L1.51 260.34 L4.43 260.34 L5.04 259.34 L1.51 259.34 L1.51 258.33
									 L5.64 258.33 L9.22 252.4 C9.43 252.05 9.73 251.85 10.07 251.8 L10.07 243.7 C10.07 243.16 9.62
									 242.72 9.07 242.72 L1.01 242.72 C0.45 242.72 0 243.16 0 243.7 L0 263.36 L2.82 263.36 C2.81 263.15
									 2.87 262.92 3 262.71 ZM1.51 245.74 L8.56 245.74 L8.56 246.74 L1.51 246.74 L1.51 245.74 Z"
								class="st12"/>
					</g>
				</g>
			</g>
			<g id="group1083-63" transform="translate(362.177,-29.4267)">
				<title>Domain Server VM.1083</title>
				<g id="shape1084-64">
					<title>Sheet.1084</title>
					<path d="M34.31 237.92 C34.31 238.53 34.39 236.6 33.87 236.08 C33.6 235.81 33.25 235.64 32.99 235.64 C32.9 235.64
								 32.81 235.64 32.73 235.64 L1.49 235.64 C0.7 235.64 0 236.43 0 237.39 L0 261.61 C0 262.57 0.61 263.36
								 1.49 263.36 L32.81 263.36 C33.6 263.36 34.31 262.57 34.31 261.61 L34.31 237.92 Z" class="st11"/>
				</g>
				<g id="group1085-66" transform="translate(8.87916,-3.53786)">
					<title>Sheet.1085</title>
					<g id="shape1086-67" transform="translate(3.76473,-0.0710137)">
						<title>Domain controller (opaque).5007</title>
						<path d="M0.69 263.36 C0.19 263.36 0 263.05 0.25 262.64 L5.99 253.1 C6.23 252.69 6.64 252.69 6.88 253.1 L12.62
									 262.64 C12.87 263.05 12.68 263.36 12.18 263.36 L0.69 263.36 Z" class="st12"/>
					</g>
					<g id="shape1087-69">
						<title>Domain controller (opaque).5008</title>
						<path d="M3 262.71 L3.82 261.35 L1.51 261.35 L1.51 260.34 L4.43 260.34 L5.04 259.34 L1.51 259.34 L1.51 258.33
									 L5.64 258.33 L9.22 252.4 C9.43 252.05 9.73 251.85 10.07 251.8 L10.07 243.7 C10.07 243.16 9.62
									 242.72 9.07 242.72 L1.01 242.72 C0.45 242.72 0 243.16 0 243.7 L0 263.36 L2.82 263.36 C2.81 263.15
									 2.87 262.92 3 262.71 ZM1.51 245.74 L8.56 245.74 L8.56 246.74 L1.51 246.74 L1.51 245.74 Z"
								class="st12"/>
					</g>
				</g>
			</g>
			<g id="shape1089-71" transform="translate(315.183,-123.34)">
				<title>Sheet.1089</title>
				<rect x="0" y="151.625" width="92.8125" height="111.739" class="st6"/>
			</g>
			<g id="group1090-73" transform="translate(363.057,-198.785)">
				<title>Virtual machine.1090</title>
				<g id="shape1091-74" transform="translate(10.6837,-11.7195)">
					<title>Sheet.1091</title>
					<path d="M0 263.36 L12.32 263.36 L12.32 255.11 L0 255.11 L0 263.36 ZM8.87 260.95 L6.56 262.29 L6.56 259.63 L8.87
								 258.29 L8.87 260.95 ZM6.35 256.57 L8.66 257.91 L6.36 259.24 L4.04 257.91 L6.35 256.57 ZM3.81 258.27
								 L6.13 259.61 L6.13 262.29 L3.81 260.95 L3.81 258.27 Z" class="st4"/>
				</g>
				<g id="shape1092-76">
					<title>Sheet.1092</title>
					<path d="M31.19 237.26 L1.44 237.26 C0.65 237.26 0 237.91 0 238.7 L0 261.92 C0 262.72 0.65 263.36 1.44 263.36
								 L31.19 263.36 C31.99 263.36 32.63 262.72 32.63 261.92 L32.63 238.7 C32.63 237.91 31.99 237.26 31.19
								 237.26 ZM16.21 258.87 L15.3 261.57 C15.29 261.6 15.28 261.62 15.27 261.63 C15.26 261.65 15.24 261.66
								 15.21 261.67 C15.18 261.68 15.14 261.69 15.1 261.69 C15.05 261.69 14.98 261.69 14.9 261.69 C14.84
								 261.69 14.79 261.69 14.74 261.69 C14.7 261.69 14.66 261.69 14.63 261.68 C14.6 261.68 14.57 261.68
								 14.55 261.67 C14.53 261.66 14.52 261.66 14.5 261.65 C14.49 261.64 14.48 261.63 14.47 261.61 C14.47
								 261.6 14.46 261.58 14.45 261.56 L13.55 258.87 C13.53 258.81 13.52 258.76 13.51 258.73 C13.51 258.7
								 13.52 258.67 13.54 258.66 C13.56 258.64 13.59 258.63 13.64 258.63 C13.68 258.62 13.75 258.62 13.83
								 258.62 C13.91 258.62 13.96 258.62 14 258.63 C14.04 258.63 14.08 258.63 14.1 258.64 C14.12 258.65
								 14.13 258.66 14.14 258.68 C14.15 258.69 14.16 258.71 14.17 258.74 L14.91 261.08 L14.91 261.08 L15.64
								 258.75 C15.64 258.72 15.65 258.7 15.66 258.68 C15.67 258.67 15.68 258.65 15.71 258.64 C15.73 258.63
								 15.76 258.63 15.8 258.63 C15.85 258.62 15.9 258.62 15.98 258.62 C16.05 258.62 16.11 258.62 16.15
								 258.63 C16.19 258.63 16.21 258.64 16.23 258.66 C16.24 258.68 16.25 258.71 16.24 258.74 C16.24 258.77
								 16.23 258.82 16.21 258.87 ZM20.18 261.59 C20.18 261.61 20.18 261.62 20.17 261.63 C20.16 261.65 20.14
								 261.66 20.12 261.67 C20.1 261.67 20.07 261.68 20.03 261.68 C19.99 261.69 19.94 261.69 19.89 261.69
								 C19.83 261.69 19.78 261.69 19.74 261.68 C19.71 261.68 19.68 261.67 19.66 261.67 C19.63 261.66 19.62
								 261.65 19.61 261.63 C19.6 261.62 19.59 261.61 19.59 261.59 L19.59 259.12 L19.59 259.12 L18.71 261.59
								 C18.7 261.61 18.69 261.63 18.68 261.64 C18.66 261.66 18.64 261.67 18.62 261.67 C18.6 261.68 18.56
								 261.69 18.53 261.69 C18.49 261.69 18.44 261.69 18.39 261.69 C18.34 261.69 18.29 261.69 18.25 261.69
								 C18.22 261.68 18.18 261.68 18.16 261.67 C18.14 261.66 18.12 261.65 18.1 261.63 C18.09 261.62 18.08
								 261.61 18.07 261.59 L17.22 259.12 L17.22 259.12 L17.22 261.59 C17.22 261.61 17.21 261.62 17.21 261.63
								 C17.2 261.65 17.18 261.66 17.16 261.67 C17.13 261.67 17.1 261.68 17.07 261.68 C17.03 261.69 16.98
								 261.69 16.92 261.69 C16.87 261.69 16.82 261.69 16.78 261.68 C16.75 261.68 16.72 261.67 16.69 261.67
								 C16.67 261.66 16.65 261.65 16.65 261.63 C16.64 261.62 16.63 261.61 16.63 261.59 L16.63 258.88 C16.63
								 258.8 16.65 258.74 16.7 258.7 C16.74 258.66 16.79 258.64 16.87 258.64 L17.27 258.64 C17.34 258.64
								 17.4 258.64 17.46 258.65 C17.51 258.67 17.55 258.69 17.59 258.71 C17.63 258.74 17.66 258.78 17.68
								 258.82 C17.71 258.87 17.73 258.92 17.75 258.99 L18.41 260.8 L18.42 260.8 L19.1 258.99 C19.12 258.93
								 19.14 258.87 19.17 258.82 C19.19 258.78 19.22 258.74 19.25 258.71 C19.28 258.69 19.32 258.67 19.36
								 258.65 C19.41 258.64 19.46 258.64 19.52 258.64 L19.93 258.64 C19.98 258.64 20.01 258.64 20.04 258.65
								 C20.07 258.66 20.1 258.68 20.12 258.7 C20.14 258.72 20.15 258.75 20.16 258.78 C20.17 258.81 20.18
								 258.84 20.18 258.88 L20.18 261.59 L20.18 261.59 ZM24.01 251.87 C24.01 252.3 23.67 252.65 23.23 252.65
								 L18.75 252.65 C18.32 254.4 18.52 254.62 21.55 254.62 L21.55 255.34 L18.02 255.34 L15.45 255.34 L12.14
								 255.34 L12.14 254.62 C14.86 254.62 15.31 254.4 14.88 252.65 L10.46 252.65 C10.03 252.65 9.68 252.3
								 9.68 251.87 L9.68 243.16 C9.68 242.73 10.03 242.37 10.46 242.37 L23.23 242.37 C23.67 242.37 24.01
								 242.73 24.01 243.16 L24.01 251.87 L24.01 251.87 Z" class="st4"/>
				</g>
			</g>
			<g id="group1093-78" transform="translate(363.057,-166.536)">
				<title>Virtual machine.1093</title>
				<g id="shape1094-79" transform="translate(10.6837,-11.7195)">
					<title>Sheet.1094</title>
					<path d="M0 263.36 L12.32 263.36 L12.32 255.11 L0 255.11 L0 263.36 ZM8.87 260.95 L6.56 262.29 L6.56 259.63 L8.87
								 258.29 L8.87 260.95 ZM6.35 256.57 L8.66 257.91 L6.36 259.24 L4.04 257.91 L6.35 256.57 ZM3.81 258.27
								 L6.13 259.61 L6.13 262.29 L3.81 260.95 L3.81 258.27 Z" class="st4"/>
				</g>
				<g id="shape1095-81">
					<title>Sheet.1095</title>
					<path d="M31.19 237.26 L1.44 237.26 C0.65 237.26 0 237.91 0 238.7 L0 261.92 C0 262.72 0.65 263.36 1.44 263.36
								 L31.19 263.36 C31.99 263.36 32.63 262.72 32.63 261.92 L32.63 238.7 C32.63 237.91 31.99 237.26 31.19
								 237.26 ZM16.21 258.87 L15.3 261.57 C15.29 261.6 15.28 261.62 15.27 261.63 C15.26 261.65 15.24 261.66
								 15.21 261.67 C15.18 261.68 15.14 261.69 15.1 261.69 C15.05 261.69 14.98 261.69 14.9 261.69 C14.84
								 261.69 14.79 261.69 14.74 261.69 C14.7 261.69 14.66 261.69 14.63 261.68 C14.6 261.68 14.57 261.68
								 14.55 261.67 C14.53 261.66 14.52 261.66 14.5 261.65 C14.49 261.64 14.48 261.63 14.47 261.61 C14.47
								 261.6 14.46 261.58 14.45 261.56 L13.55 258.87 C13.53 258.81 13.52 258.76 13.51 258.73 C13.51 258.7
								 13.52 258.67 13.54 258.66 C13.56 258.64 13.59 258.63 13.64 258.63 C13.68 258.62 13.75 258.62 13.83
								 258.62 C13.91 258.62 13.96 258.62 14 258.63 C14.04 258.63 14.08 258.63 14.1 258.64 C14.12 258.65
								 14.13 258.66 14.14 258.68 C14.15 258.69 14.16 258.71 14.17 258.74 L14.91 261.08 L14.91 261.08 L15.64
								 258.75 C15.64 258.72 15.65 258.7 15.66 258.68 C15.67 258.67 15.68 258.65 15.71 258.64 C15.73 258.63
								 15.76 258.63 15.8 258.63 C15.85 258.62 15.9 258.62 15.98 258.62 C16.05 258.62 16.11 258.62 16.15
								 258.63 C16.19 258.63 16.21 258.64 16.23 258.66 C16.24 258.68 16.25 258.71 16.24 258.74 C16.24 258.77
								 16.23 258.82 16.21 258.87 ZM20.18 261.59 C20.18 261.61 20.18 261.62 20.17 261.63 C20.16 261.65 20.14
								 261.66 20.12 261.67 C20.1 261.67 20.07 261.68 20.03 261.68 C19.99 261.69 19.94 261.69 19.89 261.69
								 C19.83 261.69 19.78 261.69 19.74 261.68 C19.71 261.68 19.68 261.67 19.66 261.67 C19.63 261.66 19.62
								 261.65 19.61 261.63 C19.6 261.62 19.59 261.61 19.59 261.59 L19.59 259.12 L19.59 259.12 L18.71 261.59
								 C18.7 261.61 18.69 261.63 18.68 261.64 C18.66 261.66 18.64 261.67 18.62 261.67 C18.6 261.68 18.56
								 261.69 18.53 261.69 C18.49 261.69 18.44 261.69 18.39 261.69 C18.34 261.69 18.29 261.69 18.25 261.69
								 C18.22 261.68 18.18 261.68 18.16 261.67 C18.14 261.66 18.12 261.65 18.1 261.63 C18.09 261.62 18.08
								 261.61 18.07 261.59 L17.22 259.12 L17.22 259.12 L17.22 261.59 C17.22 261.61 17.21 261.62 17.21 261.63
								 C17.2 261.65 17.18 261.66 17.16 261.67 C17.13 261.67 17.1 261.68 17.07 261.68 C17.03 261.69 16.98
								 261.69 16.92 261.69 C16.87 261.69 16.82 261.69 16.78 261.68 C16.75 261.68 16.72 261.67 16.69 261.67
								 C16.67 261.66 16.65 261.65 16.65 261.63 C16.64 261.62 16.63 261.61 16.63 261.59 L16.63 258.88 C16.63
								 258.8 16.65 258.74 16.7 258.7 C16.74 258.66 16.79 258.64 16.87 258.64 L17.27 258.64 C17.34 258.64
								 17.4 258.64 17.46 258.65 C17.51 258.67 17.55 258.69 17.59 258.71 C17.63 258.74 17.66 258.78 17.68
								 258.82 C17.71 258.87 17.73 258.92 17.75 258.99 L18.41 260.8 L18.42 260.8 L19.1 258.99 C19.12 258.93
								 19.14 258.87 19.17 258.82 C19.19 258.78 19.22 258.74 19.25 258.71 C19.28 258.69 19.32 258.67 19.36
								 258.65 C19.41 258.64 19.46 258.64 19.52 258.64 L19.93 258.64 C19.98 258.64 20.01 258.64 20.04 258.65
								 C20.07 258.66 20.1 258.68 20.12 258.7 C20.14 258.72 20.15 258.75 20.16 258.78 C20.17 258.81 20.18
								 258.84 20.18 258.88 L20.18 261.59 L20.18 261.59 ZM24.01 251.87 C24.01 252.3 23.67 252.65 23.23 252.65
								 L18.75 252.65 C18.32 254.4 18.52 254.62 21.55 254.62 L21.55 255.34 L18.02 255.34 L15.45 255.34 L12.14
								 255.34 L12.14 254.62 C14.86 254.62 15.31 254.4 14.88 252.65 L10.46 252.65 C10.03 252.65 9.68 252.3
								 9.68 251.87 L9.68 243.16 C9.68 242.73 10.03 242.37 10.46 242.37 L23.23 242.37 C23.67 242.37 24.01
								 242.73 24.01 243.16 L24.01 251.87 L24.01 251.87 Z" class="st4"/>
				</g>
			</g>
			<g id="group1096-83" transform="translate(363.057,-134.286)">
				<title>Virtual machine.1096</title>
				<g id="shape1097-84" transform="translate(10.6837,-11.7195)">
					<title>Sheet.1097</title>
					<path d="M0 263.36 L12.32 263.36 L12.32 255.11 L0 255.11 L0 263.36 ZM8.87 260.95 L6.56 262.29 L6.56 259.63 L8.87
								 258.29 L8.87 260.95 ZM6.35 256.57 L8.66 257.91 L6.36 259.24 L4.04 257.91 L6.35 256.57 ZM3.81 258.27
								 L6.13 259.61 L6.13 262.29 L3.81 260.95 L3.81 258.27 Z" class="st4"/>
				</g>
				<g id="shape1098-86">
					<title>Sheet.1098</title>
					<path d="M31.19 237.26 L1.44 237.26 C0.65 237.26 0 237.91 0 238.7 L0 261.92 C0 262.72 0.65 263.36 1.44 263.36
								 L31.19 263.36 C31.99 263.36 32.63 262.72 32.63 261.92 L32.63 238.7 C32.63 237.91 31.99 237.26 31.19
								 237.26 ZM16.21 258.87 L15.3 261.57 C15.29 261.6 15.28 261.62 15.27 261.63 C15.26 261.65 15.24 261.66
								 15.21 261.67 C15.18 261.68 15.14 261.69 15.1 261.69 C15.05 261.69 14.98 261.69 14.9 261.69 C14.84
								 261.69 14.79 261.69 14.74 261.69 C14.7 261.69 14.66 261.69 14.63 261.68 C14.6 261.68 14.57 261.68
								 14.55 261.67 C14.53 261.66 14.52 261.66 14.5 261.65 C14.49 261.64 14.48 261.63 14.47 261.61 C14.47
								 261.6 14.46 261.58 14.45 261.56 L13.55 258.87 C13.53 258.81 13.52 258.76 13.51 258.73 C13.51 258.7
								 13.52 258.67 13.54 258.66 C13.56 258.64 13.59 258.63 13.64 258.63 C13.68 258.62 13.75 258.62 13.83
								 258.62 C13.91 258.62 13.96 258.62 14 258.63 C14.04 258.63 14.08 258.63 14.1 258.64 C14.12 258.65
								 14.13 258.66 14.14 258.68 C14.15 258.69 14.16 258.71 14.17 258.74 L14.91 261.08 L14.91 261.08 L15.64
								 258.75 C15.64 258.72 15.65 258.7 15.66 258.68 C15.67 258.67 15.68 258.65 15.71 258.64 C15.73 258.63
								 15.76 258.63 15.8 258.63 C15.85 258.62 15.9 258.62 15.98 258.62 C16.05 258.62 16.11 258.62 16.15
								 258.63 C16.19 258.63 16.21 258.64 16.23 258.66 C16.24 258.68 16.25 258.71 16.24 258.74 C16.24 258.77
								 16.23 258.82 16.21 258.87 ZM20.18 261.59 C20.18 261.61 20.18 261.62 20.17 261.63 C20.16 261.65 20.14
								 261.66 20.12 261.67 C20.1 261.67 20.07 261.68 20.03 261.68 C19.99 261.69 19.94 261.69 19.89 261.69
								 C19.83 261.69 19.78 261.69 19.74 261.68 C19.71 261.68 19.68 261.67 19.66 261.67 C19.63 261.66 19.62
								 261.65 19.61 261.63 C19.6 261.62 19.59 261.61 19.59 261.59 L19.59 259.12 L19.59 259.12 L18.71 261.59
								 C18.7 261.61 18.69 261.63 18.68 261.64 C18.66 261.66 18.64 261.67 18.62 261.67 C18.6 261.68 18.56
								 261.69 18.53 261.69 C18.49 261.69 18.44 261.69 18.39 261.69 C18.34 261.69 18.29 261.69 18.25 261.69
								 C18.22 261.68 18.18 261.68 18.16 261.67 C18.14 261.66 18.12 261.65 18.1 261.63 C18.09 261.62 18.08
								 261.61 18.07 261.59 L17.22 259.12 L17.22 259.12 L17.22 261.59 C17.22 261.61 17.21 261.62 17.21 261.63
								 C17.2 261.65 17.18 261.66 17.16 261.67 C17.13 261.67 17.1 261.68 17.07 261.68 C17.03 261.69 16.98
								 261.69 16.92 261.69 C16.87 261.69 16.82 261.69 16.78 261.68 C16.75 261.68 16.72 261.67 16.69 261.67
								 C16.67 261.66 16.65 261.65 16.65 261.63 C16.64 261.62 16.63 261.61 16.63 261.59 L16.63 258.88 C16.63
								 258.8 16.65 258.74 16.7 258.7 C16.74 258.66 16.79 258.64 16.87 258.64 L17.27 258.64 C17.34 258.64
								 17.4 258.64 17.46 258.65 C17.51 258.67 17.55 258.69 17.59 258.71 C17.63 258.74 17.66 258.78 17.68
								 258.82 C17.71 258.87 17.73 258.92 17.75 258.99 L18.41 260.8 L18.42 260.8 L19.1 258.99 C19.12 258.93
								 19.14 258.87 19.17 258.82 C19.19 258.78 19.22 258.74 19.25 258.71 C19.28 258.69 19.32 258.67 19.36
								 258.65 C19.41 258.64 19.46 258.64 19.52 258.64 L19.93 258.64 C19.98 258.64 20.01 258.64 20.04 258.65
								 C20.07 258.66 20.1 258.68 20.12 258.7 C20.14 258.72 20.15 258.75 20.16 258.78 C20.17 258.81 20.18
								 258.84 20.18 258.88 L20.18 261.59 L20.18 261.59 ZM24.01 251.87 C24.01 252.3 23.67 252.65 23.23 252.65
								 L18.75 252.65 C18.32 254.4 18.52 254.62 21.55 254.62 L21.55 255.34 L18.02 255.34 L15.45 255.34 L12.14
								 255.34 L12.14 254.62 C14.86 254.62 15.31 254.4 14.88 252.65 L10.46 252.65 C10.03 252.65 9.68 252.3
								 9.68 251.87 L9.68 243.16 C9.68 242.73 10.03 242.37 10.46 242.37 L23.23 242.37 C23.67 242.37 24.01
								 242.73 24.01 243.16 L24.01 251.87 L24.01 251.87 Z" class="st4"/>
				</g>
			</g>
			<g id="group1100-88" transform="translate(316.251,-212.104)">
				<title>Sheet.1100</title>
				<g id="group1101-89" transform="translate(3.08463,-0.700182)">
					<title>Sheet.1101</title>
					<g id="shape1102-90">
						<title>Lock, protected.1135</title>
						<path d="M14.31 251.38 L13.31 251.38 L13.31 249.53 C13.31 245.61 10.81 243.59 7.9 243.59 L7.42 243.59 C4.45
									 243.59 2.01 245.55 2.01 249.53 L2.01 251.38 L1.01 251.38 C0.58 251.38 0 251.97 0 252.39 L0 262.36
									 C-0 262.78 0.58 263.36 1.01 263.36 L14.31 263.36 C14.74 263.36 15.32 262.78 15.32 262.36 L15.32
									 252.39 C15.32 251.97 14.74 251.38 14.31 251.38 ZM8.43 257.27 L8.43 261.4 L6.94 261.4 L6.94 257.27
									 C6.36 257 5.94 256.42 5.94 255.73 C5.94 254.78 6.73 253.98 7.69 253.98 C8.64 253.98 9.44 254.78
									 9.44 255.73 C9.38 256.37 9.01 256.95 8.43 257.27 ZM11.45 251.38 L3.87 251.38 L3.87 249.53 C3.87
									 247.04 5.2 245.34 7.42 245.34 L7.9 245.34 C10.18 245.34 11.45 247.04 11.45 249.53 L11.45 251.38
									 Z" class="st4"/>
					</g>
					<g id="shape1103-92" transform="translate(2.28102,-0.389869)">
						<title>Sheet.1103</title>
						<rect x="0" y="252.996" width="10.7581" height="10.3682" class="st4"/>
					</g>
				</g>
				<g id="shape1104-94">
					<title>Sheet.1104</title>
					<desc>NSG</desc>
					<rect x="0" y="250.724" width="21.4894" height="12.6408" class="st7"/>
					<text x="4.72" y="258.84" class="st8">NSG</text>				</g>
			</g>
			<g id="shape1105-97" transform="translate(340.964,-180.809) rotate(-0.877175)">
				<title>Sheet.1105</title>
				<path d="M0 263.36 L9.78 263.36" class="st13"/>
			</g>
			<g id="shape1106-103" transform="translate(109.806,-35.9947) rotate(-63.2551)">
				<title>Sheet.1106</title>
				<path d="M0 263.36 L29.79 263.36" class="st13"/>
			</g>
			<g id="shape1107-108" transform="translate(579.436,-37.469) rotate(62.8954)">
				<title>Sheet.1107</title>
				<path d="M0 263.36 L29.35 263.36" class="st13"/>
			</g>
			<g id="group1108-113" transform="translate(312.618,-163.84)">
				<title>Azure load balancer.1108</title>
				<g id="group1109-114" transform="translate(2.6,-2.53462)">
					<title>Sheet.1109</title>
					<g id="shape1110-115">
						<title>Sheet.1110</title>
						<path d="M28 247.07 L16.29 235.37 C15.78 234.85 15.15 234.56 14.4 234.56 C13.71 234.56 13.02 234.85 12.51
									 235.37 L0.8 247.07 C0.29 247.59 0 248.22 0 248.96 C-0 249.65 0.29 250.34 0.8 250.86 L12.51 262.56
									 C13.02 263.08 13.65 263.36 14.4 263.36 C15.09 263.36 15.78 263.08 16.29 262.56 L28 250.86 C28.51
									 250.34 28.8 249.71 28.8 248.96 C28.74 248.22 28.46 247.53 28 247.07 ZM22.43 252.52 L22.43 249.88
									 L18.42 249.88 C18.01 251.26 16.92 252.35 15.55 252.75 L15.55 255.45 C16.12 255.85 16.98 256.77
									 16.98 257.74 C16.98 259.18 15.83 260.32 14.4 260.32 C12.97 260.32 11.82 259.18 11.82 257.74
									 C11.82 256.71 12.68 255.85 13.25 255.45 L13.25 252.81 C11.88 252.41 10.79 251.32 10.38 249.94
									 L6.37 249.94 L6.37 252.64 L2.58 248.85 L6.37 245.06 L6.37 247.7 L10.38 247.7 C10.79 246.33 11.88
									 245.24 13.25 244.83 L13.25 240.99 L10.61 240.99 L14.4 237.2 L18.19 240.99 L15.55 240.99 L15.55
									 244.83 C16.92 245.24 18.01 246.33 18.42 247.7 L22.43 247.7 L22.43 245.01 L26.22 248.79 L22.43
									 252.52 Z" class="st4"/>
					</g>
					<g id="shape1111-117" transform="translate(11.3594,-11.5888)">
						<title>Sheet.1111</title>
						<path d="M3.04 257.28 C1.38 257.28 0 258.66 0 260.32 C0 261.99 1.38 263.36 3.04 263.36 C4.7 263.36 6.08 261.99
									 6.08 260.32 C6.08 258.66 4.7 257.28 3.04 257.28 Z" class="st4"/>
					</g>
				</g>
			</g>
			<g id="shape1112-119" transform="translate(225.564,-120.887)">
				<title>Sheet.1112</title>
				<rect x="0" y="168.837" width="68.9468" height="94.5273" class="st6"/>
			</g>
			<g id="shape1114-121" transform="translate(246.768,-167.446)">
				<title>Gateway.1114</title>
				<path d="M13.27 236.83 C5.94 236.83 0 242.77 0 250.1 C0 257.42 5.94 263.36 13.27 263.36 C20.6 263.36 26.54 257.42
							 26.54 250.1 C26.54 242.77 20.6 236.83 13.27 236.83 ZM12.06 242.86 L12.06 238.64 L14.48 238.64 L14.48
							 242.86 L15.68 242.86 L13.27 247.73 L10.86 242.86 L12.06 242.86 ZM6.63 252.51 L1.76 250.1 L6.63 247.68
							 L6.63 248.89 L10.86 248.89 L10.86 251.3 L6.63 251.3 L6.63 252.51 ZM14.48 256.73 L14.48 260.95 L12.06
							 260.95 L12.06 256.73 L10.86 256.73 L13.27 251.86 L15.68 256.73 L14.48 256.73 ZM19.9 252.51 L19.9 251.3
							 L15.68 251.3 L15.68 248.89 L19.9 248.89 L19.9 247.68 L24.78 250.1 L19.9 252.51 Z" class="st15"/>
			</g>
			<g id="shape1115-123" transform="translate(91.6921,-89.4143)">
				<title>Sheet.1115</title>
				<rect x="0" y="137.364" width="109.107" height="126" class="st6"/>
			</g>
			<g id="shape1116-125" transform="translate(132.976,-167.446)">
				<title>Gateway.1116</title>
				<path d="M13.27 236.83 C5.94 236.83 0 242.77 0 250.1 C0 257.42 5.94 263.36 13.27 263.36 C20.6 263.36 26.54 257.42
							 26.54 250.1 C26.54 242.77 20.6 236.83 13.27 236.83 ZM12.06 242.86 L12.06 238.64 L14.48 238.64 L14.48
							 242.86 L15.68 242.86 L13.27 247.73 L10.86 242.86 L12.06 242.86 ZM6.63 252.51 L1.76 250.1 L6.63 247.68
							 L6.63 248.89 L10.86 248.89 L10.86 251.3 L6.63 251.3 L6.63 252.51 ZM14.48 256.73 L14.48 260.95 L12.06
							 260.95 L12.06 256.73 L10.86 256.73 L13.27 251.86 L15.68 256.73 L14.48 256.73 ZM19.9 252.51 L19.9 251.3
							 L15.68 251.3 L15.68 248.89 L19.9 248.89 L19.9 247.68 L24.78 250.1 L19.9 252.51 Z" class="st15"/>
			</g>
			<g id="shape1120-127" transform="translate(165.132,-180.715)">
				<title>Sheet.1120</title>
				<path d="M7.74 263.36 L8.1 263.36 L73.23 263.36" class="st16"/>
			</g>
			<g id="shape1122-135" transform="translate(429.618,467.19) rotate(180)">
				<title>Sheet.1122</title>
				<path d="M0 263.36 L17.64 263.36" class="st17"/>
			</g>
			<g id="shape1124-141" transform="translate(692.982,83.4567) rotate(90)">
				<title>Sheet.1124</title>
				<path d="M0 263.36 L120.37 263.36" class="st19"/>
			</g>
			<g id="shape1125-144" transform="translate(394.239,-179.576) rotate(-0.559537)">
				<title>Sheet.1125</title>
				<path d="M0 263.36 L32.72 263.36" class="st19"/>
			</g>
			<g id="group1126-147" transform="translate(105.745,-101.254)">
				<title>Sheet.1126</title>
				<g id="group1127-148">
					<title>Active Directory VM.1010</title>
					<g id="shape1128-149">
						<title>Sheet.1128</title>
						<path d="M37.52 235.54 C37.52 236.21 37.61 234.1 37.04 233.52 C36.75 233.24 36.37 233.04 36.08 233.04 C35.98
									 233.04 35.89 233.04 35.79 233.04 L1.63 233.04 C0.77 233.04 0 233.91 0 234.96 L0 261.45 C0 262.5
									 0.67 263.36 1.63 263.36 L35.89 263.36 C36.75 263.36 37.52 262.5 37.52 261.45 L37.52 235.54 Z"
								class="st11"/>
					</g>
					<g id="group1129-151" transform="translate(9.81572,-4.20328)">
						<title>AD FS.5004</title>
						<g id="shape1130-152" transform="translate(4.06992,-0.0773046)">
							<title>Sheet.1130</title>
							<path d="M13.64 262.58 L7.44 252.27 C7.17 251.82 6.74 251.82 6.47 252.27 L0.27 262.58 C0 263.02 0.21
										 263.36 0.74 263.36 L13.17 263.36 C13.7 263.36 13.91 263.02 13.64 262.58 ZM10.63 262.35 L7.91
										 262.35 L7.91 260.72 L9 260.72 L9 259.63 L7.36 259.63 L6.82 259.63 L5.18 259.63 L5.18 260.72
										 L6.27 260.72 L6.27 262.35 L3.55 262.35 L3.55 260.72 L4.64 260.72 L4.64 259.09 L5.18 259.09
										 L6.82 259.09 L6.82 258 L5.73 258 L5.73 256.36 L8.45 256.36 L8.45 258 L7.36 258 L7.36 259.09
										 L9 259.09 L9.54 259.09 L9.54 260.72 L10.63 260.72 L10.63 262.35 Z" class="st12"/>
						</g>
						<g id="shape1131-154">
							<title>Sheet.1131</title>
							<path d="M9.8 241.04 L1.09 241.04 C0.49 241.04 0 241.52 0 242.11 L0 263.36 L3.04 263.36 C3.04 263.13
										 3.1 262.89 3.25 262.65 L4.13 261.19 L1.63 261.19 L1.63 260.1 L4.79 260.1 L5.44 259.01 L1.63
										 259.01 L1.63 257.92 L6.1 257.92 L9.97 251.51 C10.19 251.14 10.52 250.92 10.89 250.87 L10.89
										 242.11 C10.89 241.52 10.4 241.04 9.8 241.04 ZM9.25 245.4 L1.63 245.4 L1.63 244.31 L9.25
										 244.31 L9.25 245.4 Z" class="st12"/>
						</g>
					</g>
				</g>
				<g id="group1132-156" transform="translate(45,1.13687E-13)">
					<title>Active Directory VM.1015</title>
					<g id="shape1133-157">
						<title>Sheet.1133</title>
						<path d="M37.52 235.54 C37.52 236.21 37.61 234.1 37.04 233.52 C36.75 233.24 36.37 233.04 36.08 233.04 C35.98
									 233.04 35.89 233.04 35.79 233.04 L1.63 233.04 C0.77 233.04 0 233.91 0 234.96 L0 261.45 C0 262.5
									 0.67 263.36 1.63 263.36 L35.89 263.36 C36.75 263.36 37.52 262.5 37.52 261.45 L37.52 235.54 Z"
								class="st11"/>
					</g>
					<g id="group1134-159" transform="translate(9.81572,-4.20328)">
						<title>AD FS.5004</title>
						<g id="shape1135-160" transform="translate(4.06992,-0.0773046)">
							<title>Sheet.1135</title>
							<path d="M13.64 262.58 L7.44 252.27 C7.17 251.82 6.74 251.82 6.47 252.27 L0.27 262.58 C0 263.02 0.21
										 263.36 0.74 263.36 L13.17 263.36 C13.7 263.36 13.91 263.02 13.64 262.58 ZM10.63 262.35 L7.91
										 262.35 L7.91 260.72 L9 260.72 L9 259.63 L7.36 259.63 L6.82 259.63 L5.18 259.63 L5.18 260.72
										 L6.27 260.72 L6.27 262.35 L3.55 262.35 L3.55 260.72 L4.64 260.72 L4.64 259.09 L5.18 259.09
										 L6.82 259.09 L6.82 258 L5.73 258 L5.73 256.36 L8.45 256.36 L8.45 258 L7.36 258 L7.36 259.09
										 L9 259.09 L9.54 259.09 L9.54 260.72 L10.63 260.72 L10.63 262.35 Z" class="st12"/>
						</g>
						<g id="shape1136-162">
							<title>Sheet.1136</title>
							<path d="M9.8 241.04 L1.09 241.04 C0.49 241.04 0 241.52 0 242.11 L0 263.36 L3.04 263.36 C3.04 263.13
										 3.1 262.89 3.25 262.65 L4.13 261.19 L1.63 261.19 L1.63 260.1 L4.79 260.1 L5.44 259.01 L1.63
										 259.01 L1.63 257.92 L6.1 257.92 L9.97 251.51 C10.19 251.14 10.52 250.92 10.89 250.87 L10.89
										 242.11 C10.89 241.52 10.4 241.04 9.8 241.04 ZM9.25 245.4 L1.63 245.4 L1.63 244.31 L9.25
										 244.31 L9.25 245.4 Z" class="st12"/>
						</g>
					</g>
				</g>
			</g>
			<g id="shape1137-164" transform="translate(272.762,-180.713) rotate(-0.184148)">
				<title>Sheet.1137</title>
				<path d="M0 263.36 L32.41 263.36" class="st13"/>
			</g>
			<g id="shape1146-169" transform="translate(379.373,412.565) rotate(180)">
				<title>Sheet.1146</title>
				<path d="M0 263.36 L184.51 263.36" class="st20"/>
			</g>
			<g id="shape1147-175" transform="translate(116.009,170.213) rotate(-90)">
				<title>Sheet.1147</title>
				<path d="M0 263.36 L21.94 263.36" class="st22"/>
			</g>
		</g>
	</g>
</svg>
