<?xml version="1.0" encoding="UTF-8" standalone="no"?>
<!DOCTYPE svg PUBLIC "-//W3C//DTD SVG 1.1//EN" "http://www.w3.org/Graphics/SVG/1.1/DTD/svg11.dtd">
<!-- Generated by Microsoft Visio, SVG Export adds-extend-domain.svg Page-1 -->
<svg xmlns="http://www.w3.org/2000/svg" xmlns:xlink="http://www.w3.org/1999/xlink" xmlns:ev="http://www.w3.org/2001/xml-events"
		xmlns:v="http://schemas.microsoft.com/visio/2003/SVGExtensions/" width="5.61257in" height="2.64452in"
		viewBox="0 0 404.105 190.406" xml:space="preserve" color-interpolation-filters="sRGB" class="st21">
	<v:documentProperties v:langID="1033" v:viewMarkup="false"/>

	<style type="text/css">
	<![CDATA[
		.st1 {fill:none;stroke:#0078d7;stroke-dasharray:0.01,3;stroke-width:1}
		.st2 {fill:#ffffff;stroke:none;stroke-width:0.25}
		.st3 {fill:#0078d7;stroke:none;stroke-width:0.25}
		.st4 {fill:#4a80b1;stroke:none;stroke-linecap:butt;stroke-width:0.75}
		.st5 {fill:none;stroke:none;stroke-width:0.25}
		.st6 {fill:#0070c0;font-family:Segoe UI;font-size:0.666664em}
		.st7 {fill:#f2f2f2;stroke:#d8d8d8;stroke-width:0.25}
		.st8 {fill:#ffffff;font-family:Segoe UI Semibold;font-size:0.499992em}
		.st9 {marker-end:url(#mrkr4-45);stroke:#5b9bd5;stroke-width:2.25}
		.st10 {fill:#5b9bd5;fill-opacity:1;stroke:#5b9bd5;stroke-opacity:1;stroke-width:0.55555555555556}
		.st11 {fill:none;stroke:#7f7f7f;stroke-dasharray:2.25,2.25;stroke-width:0.75}
		.st12 {marker-end:url(#mrkr4-75);stroke:#5b9bd5;stroke-linecap:round;stroke-linejoin:round;stroke-width:1}
		.st13 {fill:#5b9bd5;fill-opacity:1;stroke:#5b9bd5;stroke-opacity:1;stroke-width:0.35714285714286}
		.st14 {fill:#00188f;stroke:none;stroke-linecap:butt;stroke-width:0.75}
		.st15 {marker-end:url(#mrkr4-45);marker-start:url(#mrkr4-101);stroke:#5b9bd5;stroke-width:2.25}
		.st16 {marker-end:url(#mrkr4-108);stroke:#ed7d31;stroke-linecap:round;stroke-linejoin:round;stroke-width:2.25}
		.st17 {fill:#ed7d31;fill-opacity:1;stroke:#ed7d31;stroke-opacity:1;stroke-width:0.55555555555556}
		.st18 {stroke:#ed7d31;stroke-linecap:round;stroke-linejoin:round;stroke-width:2.25}
		.st19 {fill:#00188f;stroke:none;stroke-linecap:butt;stroke-width:0.597656}
		.st20 {fill:#ffffff;stroke:none;stroke-linecap:butt;stroke-width:0.75}
		.st21 {fill:none;fill-rule:evenodd;font-size:12px;overflow:visible;stroke-linecap:square;stroke-miterlimit:3}
	]]>
	</style>

	<defs id="Markers">
		<g id="lend4">
			<path d="M 2 1 L 0 0 L 2 -1 L 2 1 " style="stroke:none"/>
		</g>
		<marker id="mrkr4-45" class="st10" v:arrowType="4" v:arrowSize="1" v:setback="3.6" refX="-3.6" orient="auto"
				markerUnits="strokeWidth" overflow="visible">
			<use xlink:href="#lend4" transform="scale(-1.8,-1.8) "/>
		</marker>
		<marker id="mrkr4-75" class="st13" v:arrowType="4" v:arrowSize="1" v:setback="5.6" refX="-5.6" orient="auto"
				markerUnits="strokeWidth" overflow="visible">
			<use xlink:href="#lend4" transform="scale(-2.8,-2.8) "/>
		</marker>
		<marker id="mrkr4-101" class="st10" v:arrowType="4" v:arrowSize="1" v:setback="3.44" refX="3.44" orient="auto"
				markerUnits="strokeWidth" overflow="visible">
			<use xlink:href="#lend4" transform="scale(1.8) "/>
		</marker>
		<marker id="mrkr4-108" class="st17" v:arrowType="4" v:arrowSize="1" v:setback="3.6" refX="-3.6" orient="auto"
				markerUnits="strokeWidth" overflow="visible">
			<use xlink:href="#lend4" transform="scale(-1.8,-1.8) "/>
		</marker>
	</defs>
	<g v:mID="0" v:index="1" v:groupContext="foregroundPage">
		<title>Page-1</title>
		<v:pageProperties v:drawingScale="1" v:pageScale="1" v:drawingUnits="19" v:shadowOffsetX="9" v:shadowOffsetY="-9"/>
		<v:layer v:name="000-All" v:index="0"/>
		<v:layer v:name="On-premises infrastructure services" v:index="1"/>
		<g id="group1552-1" transform="translate(0.25,-20.6556)" v:mID="1552" v:groupContext="group">
			<title>Sheet.1552</title>
			<g id="shape1458-2" v:mID="1458" v:groupContext="shape" transform="translate(145.829,-4.18356)">
				<title>Virtual Network Box</title>
				<path d="M0 190.41 L248.17 190.41 L248.17 25.84 L0 25.84 L0 190.41 Z" class="st1"/>
			</g>
			<g id="group1459-4" transform="translate(374.054,0)" v:mID="1459" v:groupContext="group">
				<title>Sheet.1459</title>
				<g id="shape1460-5" v:mID="1460" v:groupContext="shape">
					<title>Sheet.1460</title>
					<rect x="0" y="182.039" width="15.444" height="8.36713" class="st2"/>
				</g>
				<g id="group1461-7" v:mID="1461" v:groupContext="group">
					<title>Virtual Network</title>
					<g id="shape1462-8" v:mID="1462" v:groupContext="shape" transform="translate(10.7522,0)">
						<title>Sheet.1462</title>
						<path d="M4.69 186.22 L3.75 185.28 L0.51 182.04 L0 182.59 L3.64 186.22 L0 189.86 L0.51 190.41 L3.75 187.16
									 L4.69 186.22 Z" class="st3"/>
					</g>
					<g id="shape1463-10" v:mID="1463" v:groupContext="shape">
						<title>Sheet.1463</title>
						<path d="M0 186.22 L0.94 185.28 L4.18 182.04 L4.69 182.59 L1.06 186.22 L4.69 189.86 L4.18 190.41 L0.94 187.16
									 L0 186.22 Z" class="st3"/>
					</g>
					<g id="shape1464-12" v:mID="1464" v:groupContext="shape" transform="translate(3.98807,-3.2452)">
						<title>Sheet.1464</title>
						<path d="M1.88 189.47 C1.88 189.98 1.45 190.41 0.94 190.41 C0.39 190.41 0 189.98 0 189.47 C0 188.96 0.43
									 188.53 0.94 188.53 C1.45 188.53 1.88 188.92 1.88 189.47 Z" class="st3"/>
					</g>
					<g id="shape1465-14" v:mID="1465" v:groupContext="shape" transform="translate(6.80318,-3.2452)">
						<title>Sheet.1465</title>
						<ellipse cx="0.93837" cy="189.467" rx="0.93837" ry="0.93837" class="st3"/>
					</g>
					<g id="shape1466-16" v:mID="1466" v:groupContext="shape" transform="translate(9.61829,-3.2452)">
						<title>Sheet.1466</title>
						<ellipse cx="0.93837" cy="189.467" rx="0.93837" ry="0.93837" class="st3"/>
					</g>
				</g>
			</g>
			<g id="group1468-18" transform="translate(0,-7.43981)" v:mID="1468" v:groupContext="group">
				<title>Sheet.1468</title>
				<g id="shape1469-19" v:mID="1469" v:groupContext="shape" transform="translate(6.12925,-12.0142)">
					<title>Internet</title>
					<v:userDefs>
						<v:ud v:nameU="msvShapeCategories" v:prompt="" v:val="VT4(Icon)"/>
						<v:ud v:nameU="visVersion" v:prompt="" v:val="VT0(15):26"/>
					</v:userDefs>
					<path d="M17.25 155.9 A17.2529 17.2529 -180 0 0 0 173.15 A17.2522 17.2522 -180 0 0 17.25 190.41 A17.2515 17.2515
								 -180 0 0 34.5 173.15 A17.2522 17.2522 -180 0 0 17.25 155.9 ZM17.79 188.22 L17.79 187.66 L17.79 181.24
								 L23.62 181.24 L23.25 182.01 A19.4976 19.4976 0 0 1 19.49 187.33 L18.91 187.86 L18.55 188.18 L17.79
								 188.22 ZM18.36 158.11 L18.69 158.41 A19.5316 19.5316 0 0 1 23.12 164.29 L23.51 165.07 L17.79 165.07
								 L17.79 158.08 L18.36 158.11 ZM29.98 165.07 L24.69 165.07 L24.55 164.74 A20.6891 20.6891 -180 0 0
								 20.81 158.98 L20.24 158.36 A15.1268 15.1268 0 0 1 29.98 165.07 ZM17.79 172.62 L17.79 166.14 L23.94
								 166.14 L24.07 166.5 A20.2881 20.2881 0 0 1 25.19 172.05 L25.22 172.62 L17.79 172.62 L17.79 172.62
								 ZM25.23 173.7 L25.21 174.27 A20.1666 20.1666 0 0 1 24.15 179.8 L24.02 180.16 L17.79 180.16 L17.79
								 173.7 L25.23 173.7 ZM20.98 187.31 A20.5751 20.5751 -180 0 0 24.62 181.57 L24.76 181.24 L29.98 181.24
								 A15.1262 15.1262 0 0 1 20.44 187.9 L20.98 187.31 ZM25.18 180.16 L25.39 179.47 A21.2926 21.2926 -180
								 0 0 26.29 174.22 L26.32 173.7 L32.32 173.7 A14.9965 14.9965 0 0 1 30.61 180.16 L25.18 180.16 ZM26.31
								 172.62 L26.29 172.11 A21.4081 21.4081 -180 0 0 25.34 166.85 L25.12 166.14 L30.61 166.14 A14.9729
								 14.9729 0 0 1 32.32 172.62 L26.31 172.62 ZM16.71 158.86 L16.71 165.07 L11 165.07 L11.38 164.29 A19.5861
								 19.5861 0 0 1 15.07 159.14 L15.08 159.13 L15.07 159.14 L15.58 158.66 L16.21 158.11 L16.71 158.08
								 L16.71 158.86 ZM14.33 158.35 L13.77 158.96 A20.631 20.631 -180 0 0 10.01 164.74 L9.87 165.07 L4.53
								 165.07 A15.1204 15.1204 0 0 1 14.33 158.35 ZM9.44 166.14 L9.22 166.85 A21.2886 21.2886 -180 0 0
								 8.27 172.11 L8.25 172.62 L2.18 172.62 A14.9879 14.9879 0 0 1 3.89 166.14 L9.44 166.14 ZM2.18 173.7
								 L8.24 173.7 L8.26 174.22 A21.1639 21.1639 -180 0 0 9.17 179.47 L9.38 180.16 L3.89 180.16 A14.9956
								 14.9956 0 0 1 2.18 173.7 ZM9.8 181.24 L9.94 181.57 A20.5962 20.5962 -180 0 0 13.6 187.33 L14.14
								 187.92 A15.1294 15.1294 0 0 1 4.53 181.24 L9.8 181.24 L9.8 181.24 ZM10.43 179.8 A20.2659 20.2659
								 0 0 1 9.36 174.27 L9.33 173.7 L16.71 173.7 L16.71 180.16 L10.55 180.16 L10.43 179.8 ZM9.32 172.62
								 L9.35 172.05 A20.1268 20.1268 0 0 1 10.46 166.5 L10.59 166.14 L16.71 166.14 L16.71 172.62 L9.32
								 172.62 ZM16.01 188.19 L15.81 188 A19.6225 19.6225 0 0 1 11.36 182.01 L10.98 181.24 L16.71 181.24
								 L16.71 188.22 L16.01 188.19 Z" class="st4"/>
				</g>
				<g id="shape1470-21" v:mID="1470" v:groupContext="shape">
					<title>Sheet.1470</title>
					<desc>Internet</desc>
					<v:textBlock v:margins="rect(4,4,4,4)"/>
					<v:textRect cx="23.3814" cy="184.74" width="46.77" height="11.332"/>
					<rect x="0" y="179.074" width="46.7628" height="11.332" class="st5"/>
					<text x="9.5" y="187.14" class="st6" v:langID="1033"><v:paragraph v:horizAlign="1"/><v:tabList/>Internet</text>				</g>
			</g>
			<g id="shape1472-24" v:mID="1472" v:groupContext="shape" transform="translate(151.973,-8.97285)">
				<title>Sheet.1472</title>
				<rect x="0" y="131.705" width="72.2057" height="58.701" class="st7"/>
			</g>
			<g id="group1473-26" transform="translate(154.753,-44.7552)" v:mID="1473" v:groupContext="group">
				<title>Sheet.1473</title>
				<g id="group1474-27" transform="translate(2.74973,-0.624162)" v:mID="1474" v:groupContext="group">
					<title>Sheet.1474</title>
					<g id="shape1475-28" v:mID="1475" v:groupContext="shape" v:layerMember="0">
						<title>Lock, protected.1135</title>
						<path d="M12.76 179.73 L11.86 179.73 L11.86 178.07 C11.86 174.58 9.64 172.78 7.04 172.78 L6.62 172.78 C3.97
									 172.78 1.8 174.53 1.8 178.07 L1.8 179.73 L0.9 179.73 C0.52 179.73 0 180.25 0 180.62 L0 189.51
									 C0 189.89 0.52 190.41 0.9 190.41 L12.76 190.41 C13.14 190.41 13.66 189.89 13.66 189.51 L13.66
									 180.62 C13.66 180.25 13.14 179.73 12.76 179.73 ZM7.51 184.97 L7.51 188.66 L6.19 188.66 L6.19
									 184.97 C5.67 184.74 5.29 184.22 5.29 183.6 C5.29 182.75 6 182.04 6.85 182.04 C7.7 182.04 8.41
									 182.75 8.41 183.6 C8.36 184.17 8.03 184.69 7.51 184.97 ZM10.21 179.73 L3.45 179.73 L3.45 178.07
									 C3.45 175.85 4.63 174.34 6.62 174.34 L7.04 174.34 C9.07 174.34 10.21 175.85 10.21 178.07 L10.21
									 179.73 Z" class="st3"/>
					</g>
					<g id="shape1476-30" v:mID="1476" v:groupContext="shape" v:layerMember="0"
							transform="translate(2.03337,-0.34754)">
						<title>Sheet.1476</title>
						<rect x="0" y="181.163" width="9.59004" height="9.2425" class="st3"/>
					</g>
				</g>
				<g id="shape1477-32" v:mID="1477" v:groupContext="shape">
					<title>Sheet.1477</title>
					<desc>NSG</desc>
					<v:textBlock v:margins="rect(0,0,0,0)"/>
					<v:textRect cx="9.57812" cy="184.771" width="19.16" height="11.2684"/>
					<rect x="0" y="179.137" width="19.1562" height="11.2684" class="st5"/>
					<text x="3.55" y="186.57" class="st8" v:langID="1033"><v:paragraph v:horizAlign="1"/><v:tabList/>NSG</text>				</g>
			</g>
			<g id="group1478-35" transform="translate(185.772,-27.3678)" v:mID="1478" v:groupContext="group">
				<title>Virtual machine</title>
				<g id="shape1479-36" v:mID="1479" v:groupContext="shape" transform="translate(7.74525,-8.49613)">
					<title>Sheet.1479</title>
					<path d="M0 190.41 L8.93 190.41 L8.93 184.42 L0 184.42 L0 190.41 ZM6.43 188.66 L4.75 189.63 L4.75 187.7 L6.43
								 186.73 L6.43 188.66 ZM4.6 185.48 L6.28 186.45 L4.61 187.42 L2.93 186.45 L4.6 185.48 ZM2.76 186.71
								 L4.44 187.68 L4.44 189.63 L2.76 188.66 L2.76 186.71 Z" class="st3"/>
				</g>
				<g id="shape1480-38" v:mID="1480" v:groupContext="shape">
					<title>Sheet.1480</title>
					<path d="M22.61 171.48 L1.04 171.48 C0.47 171.48 0 171.95 0 172.52 L0 189.36 C-0 189.94 0.47 190.41 1.04 190.41
								 L22.61 190.41 C23.19 190.41 23.66 189.94 23.66 189.36 L23.66 172.52 C23.66 171.95 23.19 171.48 22.61
								 171.48 ZM11.75 187.15 L11.09 189.1 C11.09 189.12 11.08 189.14 11.07 189.15 C11.06 189.16 11.05 189.17
								 11.03 189.18 C11.01 189.18 10.98 189.19 10.94 189.19 C10.91 189.19 10.86 189.19 10.81 189.19 C10.76
								 189.19 10.72 189.19 10.69 189.19 C10.66 189.19 10.63 189.19 10.61 189.19 C10.58 189.18 10.56 189.18
								 10.55 189.18 C10.54 189.17 10.52 189.17 10.51 189.16 C10.5 189.15 10.5 189.14 10.49 189.14 C10.49
								 189.13 10.48 189.11 10.48 189.1 L9.82 187.14 C9.81 187.1 9.8 187.07 9.8 187.05 C9.79 187.02 9.8
								 187.01 9.81 186.99 C9.83 186.98 9.85 186.97 9.89 186.97 C9.92 186.97 9.97 186.97 10.03 186.97 C10.08
								 186.97 10.12 186.97 10.15 186.97 C10.18 186.97 10.2 186.98 10.22 186.98 C10.24 186.99 10.25 187
								 10.25 187.01 C10.26 187.02 10.27 187.03 10.27 187.05 L10.81 188.75 L10.81 188.75 L11.34 187.06 C11.34
								 187.04 11.35 187.02 11.35 187.01 C11.36 187 11.37 186.99 11.39 186.98 C11.4 186.98 11.43 186.97
								 11.46 186.97 C11.49 186.97 11.53 186.97 11.58 186.97 C11.64 186.97 11.68 186.97 11.71 186.97 C11.73
								 186.98 11.75 186.98 11.77 187 C11.78 187.01 11.78 187.03 11.78 187.05 C11.77 187.08 11.76 187.11
								 11.75 187.15 ZM14.63 189.12 C14.63 189.13 14.63 189.14 14.62 189.15 C14.61 189.16 14.6 189.17 14.59
								 189.17 C14.57 189.18 14.55 189.18 14.52 189.19 C14.49 189.19 14.46 189.19 14.42 189.19 C14.38 189.19
								 14.34 189.19 14.31 189.19 C14.29 189.18 14.26 189.18 14.25 189.17 C14.23 189.17 14.22 189.16 14.21
								 189.15 C14.21 189.14 14.21 189.13 14.21 189.12 L14.21 187.33 L14.2 187.33 L13.56 189.12 C13.56 189.13
								 13.55 189.15 13.54 189.16 C13.53 189.17 13.52 189.17 13.5 189.18 C13.48 189.18 13.46 189.19 13.43
								 189.19 C13.4 189.19 13.37 189.19 13.33 189.19 C13.29 189.19 13.26 189.19 13.23 189.19 C13.21 189.19
								 13.18 189.18 13.17 189.18 C13.15 189.17 13.13 189.16 13.12 189.15 C13.11 189.14 13.11 189.13 13.1
								 189.12 L12.49 187.33 L12.48 187.33 L12.48 189.12 C12.48 189.13 12.48 189.14 12.47 189.15 C12.47
								 189.16 12.46 189.17 12.44 189.17 C12.42 189.18 12.4 189.18 12.37 189.19 C12.35 189.19 12.31 189.19
								 12.27 189.19 C12.23 189.19 12.19 189.19 12.17 189.19 C12.14 189.18 12.12 189.18 12.1 189.17 C12.09
								 189.17 12.07 189.16 12.07 189.15 C12.06 189.14 12.06 189.13 12.06 189.12 L12.06 187.16 C12.06 187.1
								 12.07 187.05 12.1 187.02 C12.13 186.99 12.18 186.98 12.23 186.98 L12.52 186.98 C12.57 186.98 12.62
								 186.98 12.65 186.99 C12.69 187 12.72 187.01 12.75 187.03 C12.78 187.05 12.8 187.08 12.82 187.11
								 C12.84 187.14 12.85 187.18 12.87 187.23 L13.34 188.55 L13.35 188.55 L13.85 187.24 C13.86 187.19
								 13.88 187.15 13.89 187.11 C13.91 187.08 13.93 187.05 13.96 187.03 C13.98 187.01 14.01 187 14.04
								 186.99 C14.07 186.98 14.11 186.98 14.15 186.98 L14.45 186.98 C14.48 186.98 14.51 186.98 14.53 186.99
								 C14.55 187 14.57 187.01 14.58 187.02 C14.6 187.04 14.61 187.06 14.62 187.08 C14.62 187.1 14.63 187.13
								 14.63 187.16 L14.63 189.12 L14.63 189.12 ZM17.41 182.07 C17.41 182.39 17.16 182.64 16.84 182.64
								 L13.6 182.64 C13.28 183.91 13.43 184.06 15.62 184.06 L15.62 184.59 L13.06 184.59 L11.2 184.59 L8.8
								 184.59 L8.8 184.06 C10.77 184.06 11.1 183.91 10.79 182.64 L7.59 182.64 C7.27 182.64 7.02 182.39
								 7.02 182.07 L7.02 175.76 C7.02 175.45 7.27 175.19 7.59 175.19 L16.84 175.19 C17.16 175.19 17.41
								 175.45 17.41 175.76 L17.41 182.07 L17.41 182.07 Z" class="st3"/>
				</g>
			</g>
			<g id="shape1482-40" v:mID="1482" v:groupContext="shape" transform="translate(40.4692,-36.7061) rotate(-0.0494537)">
				<title>Sheet.1482</title>
				<path d="M0 190.41 L135.82 190.41" class="st9"/>
			</g>
			<g id="shape1484-46" v:mID="1484" v:groupContext="shape" transform="translate(240.099,-9.3181)">
				<title>Sheet.1484</title>
				<rect x="0" y="131.705" width="111.29" height="58.701" class="st7"/>
			</g>
			<g id="group1486-48" transform="translate(242.065,-49.584)" v:mID="1486" v:groupContext="group">
				<title>Sheet.1486</title>
				<g id="group1487-49" transform="translate(2.59135,-0.588212)" v:mID="1487" v:groupContext="group">
					<title>Sheet.1487</title>
					<g id="shape1488-50" v:mID="1488" v:groupContext="shape" v:layerMember="0">
						<title>Lock, protected.1135</title>
						<path d="M12.02 180.34 L11.18 180.34 L11.18 178.78 C11.18 175.49 9.08 173.79 6.64 173.79 L6.23 173.79 C3.74
									 173.79 1.69 175.44 1.69 178.78 L1.69 180.34 L0.85 180.34 C0.49 180.34 0 180.83 0 181.19 L0 189.56
									 C0 189.92 0.49 190.41 0.85 190.41 L12.02 190.41 C12.38 190.41 12.87 189.92 12.87 189.56 L12.87
									 181.19 C12.87 180.83 12.38 180.34 12.02 180.34 ZM7.08 185.28 L7.08 188.76 L5.83 188.76 L5.83
									 185.28 C5.34 185.06 4.99 184.57 4.99 183.99 C4.99 183.19 5.66 182.52 6.46 182.52 C7.26 182.52
									 7.93 183.19 7.93 183.99 C7.88 184.53 7.57 185.02 7.08 185.28 ZM9.62 180.34 L3.25 180.34 L3.25
									 178.78 C3.25 176.69 4.36 175.26 6.23 175.26 L6.64 175.26 C8.55 175.26 9.62 176.69 9.62 178.78
									 L9.62 180.34 Z" class="st3"/>
					</g>
					<g id="shape1489-52" v:mID="1489" v:groupContext="shape" v:layerMember="0"
							transform="translate(1.91625,-0.327523)">
						<title>Sheet.1489</title>
						<rect x="0" y="181.695" width="9.03768" height="8.71016" class="st3"/>
					</g>
				</g>
				<g id="shape1490-54" v:mID="1490" v:groupContext="shape">
					<title>Sheet.1490</title>
					<desc>NSG</desc>
					<v:textBlock v:margins="rect(0,0,0,0)"/>
					<v:textRect cx="9.02644" cy="185.096" width="18.06" height="10.6193"/>
					<rect x="0" y="179.786" width="18.0529" height="10.6193" class="st5"/>
					<text x="3" y="186.9" class="st8" v:langID="1033"><v:paragraph v:horizAlign="1"/><v:tabList/>NSG</text>				</g>
			</g>
			<g id="shape1492-57" v:mID="1492" v:groupContext="shape" transform="translate(241.242,-89.6836)">
				<title>Sheet.1492</title>
				<rect x="0" y="119.653" width="82.7357" height="70.7522" class="st7"/>
			</g>
			<g id="shape1493-59" v:mID="1493" v:groupContext="shape" transform="translate(278.785,-95.0207)">
				<title>Sheet.1493</title>
				<path d="M0 190.41 L39.36 190.41 L39.36 128.16 L0 128.16 L0 190.41 Z" class="st11"/>
			</g>
			<g id="group1494-61" transform="translate(242.065,-141.135)" v:mID="1494" v:groupContext="group">
				<title>Sheet.1494</title>
				<g id="group1495-62" transform="translate(2.59135,-0.588212)" v:mID="1495" v:groupContext="group">
					<title>Sheet.1495</title>
					<g id="shape1496-63" v:mID="1496" v:groupContext="shape" v:layerMember="0">
						<title>Lock, protected.1135</title>
						<path d="M12.02 180.34 L11.18 180.34 L11.18 178.78 C11.18 175.49 9.08 173.79 6.64 173.79 L6.23 173.79 C3.74
									 173.79 1.69 175.44 1.69 178.78 L1.69 180.34 L0.85 180.34 C0.49 180.34 0 180.83 0 181.19 L0 189.56
									 C0 189.92 0.49 190.41 0.85 190.41 L12.02 190.41 C12.38 190.41 12.87 189.92 12.87 189.56 L12.87
									 181.19 C12.87 180.83 12.38 180.34 12.02 180.34 ZM7.08 185.28 L7.08 188.76 L5.83 188.76 L5.83
									 185.28 C5.34 185.06 4.99 184.57 4.99 183.99 C4.99 183.19 5.66 182.52 6.46 182.52 C7.26 182.52
									 7.93 183.19 7.93 183.99 C7.88 184.53 7.57 185.02 7.08 185.28 ZM9.62 180.34 L3.25 180.34 L3.25
									 178.78 C3.25 176.69 4.36 175.26 6.23 175.26 L6.64 175.26 C8.55 175.26 9.62 176.69 9.62 178.78
									 L9.62 180.34 Z" class="st3"/>
					</g>
					<g id="shape1497-65" v:mID="1497" v:groupContext="shape" v:layerMember="0"
							transform="translate(1.91625,-0.327523)">
						<title>Sheet.1497</title>
						<rect x="0" y="181.695" width="9.03768" height="8.71016" class="st3"/>
					</g>
				</g>
				<g id="shape1498-67" v:mID="1498" v:groupContext="shape">
					<title>Sheet.1498</title>
					<desc>NSG</desc>
					<v:textBlock v:margins="rect(0,0,0,0)"/>
					<v:textRect cx="9.02644" cy="185.096" width="18.06" height="10.6193"/>
					<rect x="0" y="179.786" width="18.0529" height="10.6193" class="st5"/>
					<text x="3" y="186.9" class="st8" v:langID="1033"><v:paragraph v:horizAlign="1"/><v:tabList/>NSG</text>				</g>
			</g>
			<g id="shape1499-70" v:mID="1499" v:groupContext="shape" transform="translate(134.535,-72.5055) rotate(-44.0607)">
				<title>Sheet.1499</title>
				<path d="M0 190.41 L15.93 190.41" class="st12"/>
			</g>
			<g id="shape1500-76" v:mID="1500" v:groupContext="shape" transform="translate(392.218,-79.0721) rotate(41.1412)">
				<title>Sheet.1500</title>
				<path d="M0 190.41 L14.94 190.41" class="st12"/>
			</g>
			<g id="group1501-81" transform="translate(238.956,-110.989)" v:mID="1501" v:groupContext="group">
				<title>Azure load balancer.194</title>
				<g id="group1502-82" transform="translate(2.31771,-2.25943)" v:mID="1502" v:groupContext="group">
					<title>Sheet.1502</title>
					<g id="shape1503-83" v:mID="1503" v:groupContext="shape">
						<title>Sheet.1503</title>
						<path d="M24.96 175.88 L14.52 165.45 C14.06 164.99 13.5 164.73 12.84 164.73 C12.22 164.73 11.61 164.99 11.15
									 165.45 L0.72 175.88 C0.26 176.34 0 176.9 0 177.57 C0 178.18 0.26 178.8 0.72 179.26 L11.15 189.69
									 C11.61 190.15 12.17 190.41 12.84 190.41 C13.45 190.41 14.06 190.15 14.52 189.69 L24.96 179.26
									 C25.42 178.8 25.67 178.23 25.67 177.57 C25.62 176.9 25.37 176.29 24.96 175.88 ZM20 180.74 L20
									 178.39 L16.42 178.39 C16.06 179.61 15.09 180.59 13.86 180.94 L13.86 183.35 C14.37 183.71 15.14
									 184.52 15.14 185.39 C15.14 186.67 14.12 187.7 12.84 187.7 C11.56 187.7 10.54 186.67 10.54 185.39
									 C10.54 184.47 11.3 183.71 11.81 183.35 L11.81 181 C10.59 180.64 9.61 179.67 9.26 178.44 L5.68
									 178.44 L5.68 180.84 L2.3 177.47 L5.68 174.09 L5.68 176.44 L9.26 176.44 C9.61 175.22 10.59 174.24
									 11.81 173.89 L11.81 170.46 L9.46 170.46 L12.84 167.09 L16.21 170.46 L13.86 170.46 L13.86 173.89
									 C15.09 174.24 16.06 175.22 16.42 176.44 L20 176.44 L20 174.04 L23.37 177.42 L20 180.74 Z"
								class="st3"/>
					</g>
					<g id="shape1504-85" v:mID="1504" v:groupContext="shape" transform="translate(10.1261,-10.3306)">
						<title>Sheet.1504</title>
						<path d="M2.71 184.98 C1.23 184.98 0 186.21 0 187.7 C-0 189.18 1.23 190.41 2.71 190.41 C4.19 190.41 5.42
									 189.18 5.42 187.7 C5.42 186.21 4.19 184.98 2.71 184.98 Z" class="st3"/>
					</g>
				</g>
			</g>
			<g id="shape1505-87" v:mID="1505" v:groupContext="shape" transform="translate(152.353,-89.6836)">
				<title>Sheet.1505</title>
				<rect x="0" y="119.653" width="58.1657" height="70.7522" class="st7"/>
			</g>
			<g id="shape1507-89" v:mID="1507" v:groupContext="shape" v:layerMember="0" transform="translate(169.607,-114.315)">
				<title>Gateway.1001</title>
				<path d="M11.83 166.75 C5.3 166.75 0 172.05 0 178.58 C0 185.11 5.3 190.41 11.83 190.41 C18.36 190.41 23.66 185.11
							 23.66 178.58 C23.66 172.05 18.36 166.75 11.83 166.75 ZM10.75 172.13 L10.75 168.36 L12.9 168.36 L12.9
							 172.13 L13.98 172.13 L11.83 176.47 L9.68 172.13 L10.75 172.13 ZM5.91 180.73 L1.57 178.58 L5.91 176.43
							 L5.91 177.5 L9.68 177.5 L9.68 179.65 L5.91 179.65 L5.91 180.73 ZM12.9 184.49 L12.9 188.25 L10.75 188.25
							 L10.75 184.49 L9.68 184.49 L11.83 180.15 L13.98 184.49 L12.9 184.49 ZM17.74 180.73 L17.74 179.65 L13.98
							 179.65 L13.98 177.5 L17.74 177.5 L17.74 176.43 L22.09 178.58 L17.74 180.73 Z" class="st14"/>
			</g>
			<g id="shape1508-91" v:mID="1508" v:groupContext="shape" transform="translate(3.5182,-60.4336)">
				<title>Sheet.1508</title>
				<rect x="0" y="90.4035" width="97.2607" height="100.002" class="st7"/>
			</g>
			<g id="shape1509-93" v:mID="1509" v:groupContext="shape" v:layerMember="0" transform="translate(40.32,-114.315)">
				<title>Gateway.234</title>
				<path d="M11.83 166.75 C5.3 166.75 0 172.05 0 178.58 C0 185.11 5.3 190.41 11.83 190.41 C18.36 190.41 23.66 185.11
							 23.66 178.58 C23.66 172.05 18.36 166.75 11.83 166.75 ZM10.75 172.13 L10.75 168.36 L12.9 168.36 L12.9
							 172.13 L13.98 172.13 L11.83 176.47 L9.68 172.13 L10.75 172.13 ZM5.91 180.73 L1.57 178.58 L5.91 176.43
							 L5.91 177.5 L9.68 177.5 L9.68 179.65 L5.91 179.65 L5.91 180.73 ZM12.9 184.49 L12.9 188.25 L10.75 188.25
							 L10.75 184.49 L9.68 184.49 L11.83 180.15 L13.98 184.49 L12.9 184.49 ZM17.74 180.73 L17.74 179.65 L13.98
							 179.65 L13.98 177.5 L17.74 177.5 L17.74 176.43 L22.09 178.58 L17.74 180.73 Z" class="st14"/>
			</g>
			<g id="shape1513-95" v:mID="1513" v:groupContext="shape" transform="translate(64.246,-126.143)">
				<title>Sheet.1513</title>
				<path d="M7.74 190.41 L8.1 190.41 L96.99 190.41" class="st15"/>
			</g>
			<g id="shape1515-103" v:mID="1515" v:groupContext="shape" transform="translate(371.355,336.128) rotate(180)">
				<title>Sheet.1515</title>
				<path d="M0 190.41 L10.34 190.41" class="st16"/>
			</g>
			<g id="shape1517-109" v:mID="1517" v:groupContext="shape" transform="translate(561.852,79.4124) rotate(90.0786)">
				<title>Sheet.1517</title>
				<path d="M0 190.41 L66.57 190.41" class="st18"/>
			</g>
			<g id="shape1518-112" v:mID="1518" v:groupContext="shape" transform="translate(313.064,-110.967) rotate(-0.284107)">
				<title>Sheet.1518</title>
				<path d="M0 190.41 L57.44 190.41" class="st18"/>
			</g>
			<g id="shape1519-115" v:mID="1519" v:groupContext="shape" transform="translate(193.533,-126.143)">
				<title>Sheet.1519</title>
				<path d="M0 190.41 L39.82 190.41" class="st12"/>
			</g>
			<g id="group1522-120" transform="translate(269.155,-25.8991)" v:mID="1522" v:groupContext="group">
				<title>Sheet.1522</title>
				<g id="group1523-121" transform="translate(4.34894,-7.58398)" v:mID="1523" v:groupContext="group">
					<title>Domain Server VM.1000</title>
					<g id="shape1524-122" v:mID="1524" v:groupContext="shape">
						<title>Sheet.1524</title>
						<path d="M30.58 167.72 C30.58 168.27 30.66 166.55 30.19 166.08 C29.96 165.85 29.64 165.69 29.41 165.69 C29.33
									 165.69 29.25 165.69 29.17 165.69 L1.33 165.69 C0.63 165.69 0 166.39 0 167.25 L0 188.84 C-0 189.7
									 0.55 190.41 1.33 190.41 L29.25 190.41 C29.96 190.41 30.58 189.7 30.58 188.84 L30.58 167.72 Z"
								class="st19"/>
					</g>
					<g id="group1525-124" transform="translate(7.91514,-3.15375)" v:mID="1525" v:groupContext="group">
						<title>Sheet.1525</title>
						<g id="shape1526-125" v:mID="1526" v:groupContext="shape" transform="translate(3.35599,-0.0633036)">
							<title>Domain controller (opaque).5007</title>
							<path d="M0.61 190.41 C0.17 190.41 0 190.12 0.22 189.76 L5.34 181.25 C5.56 180.89 5.92 180.89 6.14 181.25
										 L11.25 189.76 C11.47 190.12 11.3 190.41 10.86 190.41 L0.61 190.41 Z" class="st20"/>
						</g>
						<g id="shape1527-127" v:mID="1527" v:groupContext="shape">
							<title>Domain controller (opaque).5008</title>
							<path d="M2.68 189.82 L3.41 188.61 L1.35 188.61 L1.35 187.71 L3.95 187.71 L4.49 186.81 L1.35 186.81 L1.35
										 185.92 L5.03 185.92 L8.22 180.63 C8.4 180.32 8.68 180.14 8.98 180.1 L8.98 172.87 C8.98 172.39
										 8.58 172 8.08 172 L0.9 172 C0.4 172 0 172.39 0 172.87 L0 190.41 L2.51 190.41 C2.51 190.21
										 2.56 190.01 2.68 189.82 ZM1.35 174.69 L7.63 174.69 L7.63 175.59 L1.35 175.59 L1.35 174.69
										 Z" class="st20"/>
						</g>
					</g>
				</g>
				<g id="group1528-129" transform="translate(40.5129,-7.58398)" v:mID="1528" v:groupContext="group">
					<title>Domain Server VM.1021</title>
					<g id="shape1529-130" v:mID="1529" v:groupContext="shape">
						<title>Sheet.1529</title>
						<path d="M30.58 167.72 C30.58 168.27 30.66 166.55 30.19 166.08 C29.96 165.85 29.64 165.69 29.41 165.69 C29.33
									 165.69 29.25 165.69 29.17 165.69 L1.33 165.69 C0.63 165.69 0 166.39 0 167.25 L0 188.84 C-0 189.7
									 0.55 190.41 1.33 190.41 L29.25 190.41 C29.96 190.41 30.58 189.7 30.58 188.84 L30.58 167.72 Z"
								class="st19"/>
					</g>
					<g id="group1530-132" transform="translate(7.91514,-3.15375)" v:mID="1530" v:groupContext="group">
						<title>Sheet.1530</title>
						<g id="shape1531-133" v:mID="1531" v:groupContext="shape" transform="translate(3.35599,-0.0633036)">
							<title>Domain controller (opaque).5007</title>
							<path d="M0.61 190.41 C0.17 190.41 0 190.12 0.22 189.76 L5.34 181.25 C5.56 180.89 5.92 180.89 6.14 181.25
										 L11.25 189.76 C11.47 190.12 11.3 190.41 10.86 190.41 L0.61 190.41 Z" class="st20"/>
						</g>
						<g id="shape1532-135" v:mID="1532" v:groupContext="shape">
							<title>Domain controller (opaque).5008</title>
							<path d="M2.68 189.82 L3.41 188.61 L1.35 188.61 L1.35 187.71 L3.95 187.71 L4.49 186.81 L1.35 186.81 L1.35
										 185.92 L5.03 185.92 L8.22 180.63 C8.4 180.32 8.68 180.14 8.98 180.1 L8.98 172.87 C8.98 172.39
										 8.58 172 8.08 172 L0.9 172 C0.4 172 0 172.39 0 172.87 L0 190.41 L2.51 190.41 C2.51 190.21
										 2.56 190.01 2.68 189.82 ZM1.35 174.69 L7.63 174.69 L7.63 175.59 L1.35 175.59 L1.35 174.69
										 Z" class="st20"/>
						</g>
					</g>
				</g>
				<g id="shape1533-137" v:mID="1533" v:groupContext="shape">
					<title>Sheet.1533</title>
					<path d="M0 190.41 L73.64 190.41 L73.64 151.08 L0 151.08 L0 190.41 Z" class="st11"/>
				</g>
			</g>
			<g id="group1534-139" transform="translate(283.919,-100.934)" v:mID="1534" v:groupContext="group">
				<title>Sheet.1534</title>
				<g id="group1535-140" transform="translate(5.9952E-15,-27.1484)" v:mID="1535" v:groupContext="group">
					<title>Virtual machine.32</title>
					<g id="shape1536-141" v:mID="1536" v:groupContext="shape" transform="translate(9.5238,-10.4471)">
						<title>Sheet.1536</title>
						<path d="M0 190.41 L10.99 190.41 L10.99 183.04 L0 183.04 L0 190.41 ZM7.91 188.26 L5.84 189.45 L5.84 187.07
									 L7.91 185.88 L7.91 188.26 ZM5.66 184.35 L7.72 185.55 L5.67 186.73 L3.6 185.54 L5.66 184.35 ZM3.4
									 185.87 L5.46 187.06 L5.46 189.45 L3.4 188.26 L3.4 185.87 Z" class="st3"/>
					</g>
					<g id="shape1537-143" v:mID="1537" v:groupContext="shape">
						<title>Sheet.1537</title>
						<path d="M27.81 167.13 L1.28 167.13 C0.58 167.13 0 167.71 0 168.42 L0 189.12 C0 189.83 0.58 190.41 1.28 190.41
									 L27.81 190.41 C28.52 190.41 29.09 189.83 29.09 189.12 L29.09 168.42 C29.09 167.71 28.52 167.13
									 27.81 167.13 ZM14.45 186.4 L13.64 188.81 C13.63 188.83 13.62 188.85 13.61 188.86 C13.6 188.88
									 13.58 188.89 13.56 188.9 C13.53 188.9 13.5 188.91 13.46 188.91 C13.41 188.91 13.36 188.91 13.29
									 188.91 C13.23 188.91 13.18 188.91 13.14 188.91 C13.1 188.91 13.07 188.91 13.04 188.91 C13.01
									 188.9 12.99 188.9 12.97 188.89 C12.96 188.89 12.94 188.88 12.93 188.87 C12.92 188.87 12.91 188.86
									 12.9 188.84 C12.9 188.83 12.89 188.82 12.88 188.8 L12.08 186.4 C12.06 186.35 12.05 186.31 12.05
									 186.28 C12.04 186.25 12.05 186.22 12.07 186.21 C12.08 186.19 12.11 186.19 12.16 186.18 C12.2
									 186.18 12.26 186.18 12.33 186.18 C12.4 186.18 12.45 186.18 12.48 186.18 C12.52 186.18 12.55
									 186.19 12.57 186.2 C12.59 186.2 12.6 186.21 12.61 186.23 C12.61 186.24 12.62 186.26 12.63 186.28
									 L13.29 188.37 L13.29 188.37 L13.94 186.29 C13.94 186.27 13.95 186.25 13.96 186.23 C13.97 186.22
									 13.98 186.21 14 186.2 C14.02 186.19 14.05 186.18 14.09 186.18 C14.13 186.18 14.18 186.18 14.24
									 186.18 C14.31 186.18 14.36 186.18 14.39 186.18 C14.43 186.19 14.45 186.2 14.47 186.21 C14.48
									 186.23 14.48 186.25 14.48 186.28 C14.48 186.31 14.47 186.35 14.45 186.4 ZM17.99 188.83 C17.99
									 188.84 17.98 188.85 17.98 188.86 C17.97 188.88 17.96 188.88 17.94 188.89 C17.92 188.9 17.89
									 188.9 17.85 188.91 C17.82 188.91 17.78 188.91 17.73 188.91 C17.68 188.91 17.63 188.91 17.6 188.91
									 C17.57 188.9 17.54 188.9 17.52 188.89 C17.5 188.88 17.49 188.88 17.48 188.86 C17.47 188.85 17.47
									 188.84 17.47 188.83 L17.47 186.62 L17.46 186.62 L16.68 188.82 C16.67 188.84 16.66 188.86 16.65
									 188.87 C16.64 188.88 16.62 188.89 16.6 188.9 C16.58 188.9 16.55 188.91 16.52 188.91 C16.48 188.91
									 16.44 188.91 16.39 188.91 C16.35 188.91 16.31 188.91 16.27 188.91 C16.24 188.91 16.21 188.9
									 16.19 188.89 C16.17 188.88 16.15 188.88 16.14 188.86 C16.12 188.85 16.12 188.84 16.11 188.82
									 L15.35 186.62 L15.35 186.62 L15.35 188.83 C15.35 188.84 15.35 188.85 15.34 188.86 C15.33 188.88
									 15.32 188.88 15.29 188.89 C15.27 188.9 15.25 188.9 15.21 188.91 C15.18 188.91 15.14 188.91 15.09
									 188.91 C15.04 188.91 14.99 188.91 14.96 188.91 C14.93 188.9 14.9 188.9 14.88 188.89 C14.86 188.88
									 14.85 188.88 14.84 188.86 C14.83 188.85 14.83 188.84 14.83 188.83 L14.83 186.41 C14.83 186.34
									 14.85 186.28 14.88 186.25 C14.92 186.21 14.97 186.19 15.03 186.19 L15.39 186.19 C15.46 186.19
									 15.51 186.2 15.56 186.21 C15.61 186.22 15.65 186.23 15.68 186.26 C15.71 186.28 15.74 186.31
									 15.76 186.35 C15.79 186.39 15.81 186.44 15.82 186.5 L16.41 188.12 L16.42 188.12 L17.03 186.51
									 C17.04 186.45 17.06 186.4 17.08 186.36 C17.11 186.32 17.13 186.28 17.16 186.26 C17.19 186.23
									 17.22 186.22 17.26 186.21 C17.3 186.2 17.35 186.19 17.4 186.19 L17.77 186.19 C17.81 186.19 17.84
									 186.2 17.87 186.21 C17.89 186.21 17.92 186.23 17.93 186.25 C17.95 186.27 17.96 186.29 17.97
									 186.32 C17.98 186.34 17.99 186.38 17.99 186.41 L17.99 188.83 L17.99 188.83 ZM21.41 180.16 C21.41
									 180.54 21.1 180.85 20.71 180.85 L16.72 180.85 C16.33 182.41 16.51 182.61 19.21 182.61 L19.21
									 183.25 L16.07 183.25 L13.77 183.25 L10.83 183.25 L10.83 182.61 C13.25 182.61 13.65 182.42 13.27
									 180.85 L9.33 180.85 C8.94 180.85 8.63 180.54 8.63 180.16 L8.63 172.4 C8.63 172.01 8.94 171.69
									 9.33 171.69 L20.71 171.69 C21.1 171.69 21.41 172.01 21.41 172.4 L21.41 180.16 L21.41 180.16
									 Z" class="st3"/>
					</g>
				</g>
				<g id="group1538-145" v:mID="1538" v:groupContext="group">
					<title>Virtual machine.79</title>
					<g id="shape1539-146" v:mID="1539" v:groupContext="shape" transform="translate(9.5238,-10.4471)">
						<title>Sheet.1539</title>
						<path d="M0 190.41 L10.99 190.41 L10.99 183.04 L0 183.04 L0 190.41 ZM7.91 188.26 L5.84 189.45 L5.84 187.07
									 L7.91 185.88 L7.91 188.26 ZM5.66 184.35 L7.72 185.55 L5.67 186.73 L3.6 185.54 L5.66 184.35 ZM3.4
									 185.87 L5.46 187.06 L5.46 189.45 L3.4 188.26 L3.4 185.87 Z" class="st3"/>
					</g>
					<g id="shape1540-148" v:mID="1540" v:groupContext="shape">
						<title>Sheet.1540</title>
						<path d="M27.81 167.13 L1.28 167.13 C0.58 167.13 0 167.71 0 168.42 L0 189.12 C0 189.83 0.58 190.41 1.28 190.41
									 L27.81 190.41 C28.52 190.41 29.09 189.83 29.09 189.12 L29.09 168.42 C29.09 167.71 28.52 167.13
									 27.81 167.13 ZM14.45 186.4 L13.64 188.81 C13.63 188.83 13.62 188.85 13.61 188.86 C13.6 188.88
									 13.58 188.89 13.56 188.9 C13.53 188.9 13.5 188.91 13.46 188.91 C13.41 188.91 13.36 188.91 13.29
									 188.91 C13.23 188.91 13.18 188.91 13.14 188.91 C13.1 188.91 13.07 188.91 13.04 188.91 C13.01
									 188.9 12.99 188.9 12.97 188.89 C12.96 188.89 12.94 188.88 12.93 188.87 C12.92 188.87 12.91 188.86
									 12.9 188.84 C12.9 188.83 12.89 188.82 12.88 188.8 L12.08 186.4 C12.06 186.35 12.05 186.31 12.05
									 186.28 C12.04 186.25 12.05 186.22 12.07 186.21 C12.08 186.19 12.11 186.19 12.16 186.18 C12.2
									 186.18 12.26 186.18 12.33 186.18 C12.4 186.18 12.45 186.18 12.48 186.18 C12.52 186.18 12.55
									 186.19 12.57 186.2 C12.59 186.2 12.6 186.21 12.61 186.23 C12.61 186.24 12.62 186.26 12.63 186.28
									 L13.29 188.37 L13.29 188.37 L13.94 186.29 C13.94 186.27 13.95 186.25 13.96 186.23 C13.97 186.22
									 13.98 186.21 14 186.2 C14.02 186.19 14.05 186.18 14.09 186.18 C14.13 186.18 14.18 186.18 14.24
									 186.18 C14.31 186.18 14.36 186.18 14.39 186.18 C14.43 186.19 14.45 186.2 14.47 186.21 C14.48
									 186.23 14.48 186.25 14.48 186.28 C14.48 186.31 14.47 186.35 14.45 186.4 ZM17.99 188.83 C17.99
									 188.84 17.98 188.85 17.98 188.86 C17.97 188.88 17.96 188.88 17.94 188.89 C17.92 188.9 17.89
									 188.9 17.85 188.91 C17.82 188.91 17.78 188.91 17.73 188.91 C17.68 188.91 17.63 188.91 17.6 188.91
									 C17.57 188.9 17.54 188.9 17.52 188.89 C17.5 188.88 17.49 188.88 17.48 188.86 C17.47 188.85 17.47
									 188.84 17.47 188.83 L17.47 186.62 L17.46 186.62 L16.68 188.82 C16.67 188.84 16.66 188.86 16.65
									 188.87 C16.64 188.88 16.62 188.89 16.6 188.9 C16.58 188.9 16.55 188.91 16.52 188.91 C16.48 188.91
									 16.44 188.91 16.39 188.91 C16.35 188.91 16.31 188.91 16.27 188.91 C16.24 188.91 16.21 188.9
									 16.19 188.89 C16.17 188.88 16.15 188.88 16.14 188.86 C16.12 188.85 16.12 188.84 16.11 188.82
									 L15.35 186.62 L15.35 186.62 L15.35 188.83 C15.35 188.84 15.35 188.85 15.34 188.86 C15.33 188.88
									 15.32 188.88 15.29 188.89 C15.27 188.9 15.25 188.9 15.21 188.91 C15.18 188.91 15.14 188.91 15.09
									 188.91 C15.04 188.91 14.99 188.91 14.96 188.91 C14.93 188.9 14.9 188.9 14.88 188.89 C14.86 188.88
									 14.85 188.88 14.84 188.86 C14.83 188.85 14.83 188.84 14.83 188.83 L14.83 186.41 C14.83 186.34
									 14.85 186.28 14.88 186.25 C14.92 186.21 14.97 186.19 15.03 186.19 L15.39 186.19 C15.46 186.19
									 15.51 186.2 15.56 186.21 C15.61 186.22 15.65 186.23 15.68 186.26 C15.71 186.28 15.74 186.31
									 15.76 186.35 C15.79 186.39 15.81 186.44 15.82 186.5 L16.41 188.12 L16.42 188.12 L17.03 186.51
									 C17.04 186.45 17.06 186.4 17.08 186.36 C17.11 186.32 17.13 186.28 17.16 186.26 C17.19 186.23
									 17.22 186.22 17.26 186.21 C17.3 186.2 17.35 186.19 17.4 186.19 L17.77 186.19 C17.81 186.19 17.84
									 186.2 17.87 186.21 C17.89 186.21 17.92 186.23 17.93 186.25 C17.95 186.27 17.96 186.29 17.97
									 186.32 C17.98 186.34 17.99 186.38 17.99 186.41 L17.99 188.83 L17.99 188.83 ZM21.41 180.16 C21.41
									 180.54 21.1 180.85 20.71 180.85 L16.72 180.85 C16.33 182.41 16.51 182.61 19.21 182.61 L19.21
									 183.25 L16.07 183.25 L13.77 183.25 L10.83 183.25 L10.83 182.61 C13.25 182.61 13.65 182.42 13.27
									 180.85 L9.33 180.85 C8.94 180.85 8.63 180.54 8.63 180.16 L8.63 172.4 C8.63 172.01 8.94 171.69
									 9.33 171.69 L20.71 171.69 C21.1 171.69 21.41 172.01 21.41 172.4 L21.41 180.16 L21.41 180.16
									 Z" class="st3"/>
					</g>
				</g>
			</g>
			<g id="group1541-150" transform="translate(19.9199,-72.7764)" v:mID="1541" v:groupContext="group">
				<title>Sheet.1541</title>
				<g id="group1542-151" v:mID="1542" v:groupContext="group">
					<title>Active Directory VM.1010</title>
					<g id="shape1543-152" v:mID="1543" v:groupContext="shape">
						<title>Sheet.1543</title>
						<path d="M29.27 168.69 C29.27 169.22 29.35 167.57 28.9 167.12 C28.67 166.9 28.37 166.75 28.15 166.75 C28.07
									 166.75 28 166.75 27.92 166.75 L1.27 166.75 C0.6 166.75 0 167.42 0 168.25 L0 188.91 C-0 189.73
									 0.52 190.41 1.27 190.41 L28 190.41 C28.67 190.41 29.27 189.73 29.27 188.91 L29.27 168.69 Z"
								class="st19"/>
					</g>
					<g id="group1544-154" transform="translate(7.65855,-3.27954)" v:mID="1544" v:groupContext="group"
							v:layerMember="1">
						<title>AD FS.5004</title>
						<g id="shape1545-155" v:mID="1545" v:groupContext="shape" v:layerMember="1"
								transform="translate(3.17549,-0.0603156)">
							<title>Sheet.1545</title>
							<path d="M10.65 189.79 L5.81 181.75 C5.6 181.4 5.26 181.4 5.05 181.75 L0.21 189.79 C0 190.14 0.16 190.41
										 0.58 190.41 L10.27 190.41 C10.69 190.41 10.85 190.14 10.65 189.79 ZM8.29 189.62 L6.17 189.62
										 L6.17 188.34 L7.02 188.34 L7.02 187.49 L5.74 187.49 L5.32 187.49 L4.05 187.49 L4.05 188.34
										 L4.89 188.34 L4.89 189.62 L2.77 189.62 L2.77 188.34 L3.62 188.34 L3.62 187.07 L4.05 187.07
										 L5.32 187.07 L5.32 186.22 L4.47 186.22 L4.47 184.94 L6.59 184.94 L6.59 186.22 L5.74 186.22
										 L5.74 187.07 L7.02 187.07 L7.44 187.07 L7.44 188.34 L8.29 188.34 L8.29 189.62 Z"
									class="st20"/>
						</g>
						<g id="shape1546-157" v:mID="1546" v:groupContext="shape" v:layerMember="1">
							<title>Sheet.1546</title>
							<path d="M7.65 172.99 L0.85 172.99 C0.38 172.99 0 173.36 0 173.82 L0 190.41 L2.37 190.41 C2.37 190.22
										 2.42 190.03 2.53 189.85 L3.22 188.71 L1.27 188.71 L1.27 187.86 L3.73 187.86 L4.25 187.01
										 L1.27 187.01 L1.27 186.16 L4.76 186.16 L7.78 181.16 C7.95 180.87 8.21 180.69 8.5 180.65
										 L8.5 173.82 C8.5 173.36 8.11 172.99 7.65 172.99 ZM7.22 176.39 L1.27 176.39 L1.27 175.54
										 L7.22 175.54 L7.22 176.39 Z" class="st20"/>
						</g>
					</g>
				</g>
				<g id="group1547-159" transform="translate(35.1105,0)" v:mID="1547" v:groupContext="group">
					<title>Active Directory VM.1015</title>
					<g id="shape1548-160" v:mID="1548" v:groupContext="shape">
						<title>Sheet.1548</title>
						<path d="M29.27 168.69 C29.27 169.22 29.35 167.57 28.9 167.12 C28.67 166.9 28.37 166.75 28.15 166.75 C28.07
									 166.75 28 166.75 27.92 166.75 L1.27 166.75 C0.6 166.75 0 167.42 0 168.25 L0 188.91 C-0 189.73
									 0.52 190.41 1.27 190.41 L28 190.41 C28.67 190.41 29.27 189.73 29.27 188.91 L29.27 168.69 Z"
								class="st19"/>
					</g>
					<g id="group1549-162" transform="translate(7.65855,-3.27954)" v:mID="1549" v:groupContext="group"
							v:layerMember="1">
						<title>AD FS.5004</title>
						<g id="shape1550-163" v:mID="1550" v:groupContext="shape" v:layerMember="1"
								transform="translate(3.17549,-0.0603156)">
							<title>Sheet.1550</title>
							<path d="M10.65 189.79 L5.81 181.75 C5.6 181.4 5.26 181.4 5.05 181.75 L0.21 189.79 C0 190.14 0.16 190.41
										 0.58 190.41 L10.27 190.41 C10.69 190.41 10.85 190.14 10.65 189.79 ZM8.29 189.62 L6.17 189.62
										 L6.17 188.34 L7.02 188.34 L7.02 187.49 L5.74 187.49 L5.32 187.49 L4.05 187.49 L4.05 188.34
										 L4.89 188.34 L4.89 189.62 L2.77 189.62 L2.77 188.34 L3.62 188.34 L3.62 187.07 L4.05 187.07
										 L5.32 187.07 L5.32 186.22 L4.47 186.22 L4.47 184.94 L6.59 184.94 L6.59 186.22 L5.74 186.22
										 L5.74 187.07 L7.02 187.07 L7.44 187.07 L7.44 188.34 L8.29 188.34 L8.29 189.62 Z"
									class="st20"/>
						</g>
						<g id="shape1551-165" v:mID="1551" v:groupContext="shape" v:layerMember="1">
							<title>Sheet.1551</title>
							<path d="M7.65 172.99 L0.85 172.99 C0.38 172.99 0 173.36 0 173.82 L0 190.41 L2.37 190.41 C2.37 190.22
										 2.42 190.03 2.53 189.85 L3.22 188.71 L1.27 188.71 L1.27 187.86 L3.73 187.86 L4.25 187.01
										 L1.27 187.01 L1.27 186.16 L4.76 186.16 L7.78 181.16 C7.95 180.87 8.21 180.69 8.5 180.65
										 L8.5 173.82 C8.5 173.36 8.11 172.99 7.65 172.99 ZM7.22 176.39 L1.27 176.39 L1.27 175.54
										 L7.22 175.54 L7.22 176.39 Z" class="st20"/>
						</g>
					</g>
				</g>
			</g>
		</g>
	</g>
</svg>
