<?xml version="1.0" encoding="utf-8"?>
<!-- Generator: Adobe Illustrator 21.1.0, SVG Export Plug-In . SVG Version: 6.00 Build 0)  -->
<svg version="1.1"
	 id="svg8983" inkscape:version="0.91 r13725" sodipodi:docname="adfs.svg" xmlns:cc="http://creativecommons.org/ns#" xmlns:dc="http://purl.org/dc/elements/1.1/" xmlns:inkscape="http://www.inkscape.org/namespaces/inkscape" xmlns:rdf="http://www.w3.org/1999/02/22-rdf-syntax-ns#" xmlns:sodipodi="http://sodipodi.sourceforge.net/DTD/sodipodi-0.dtd" xmlns:svg="http://www.w3.org/2000/svg" xmlns:v="http://schemas.microsoft.com/visio/2003/SVGExtensions/"
	 xmlns="http://www.w3.org/2000/svg" xmlns:xlink="http://www.w3.org/1999/xlink" x="0px" y="0px" viewBox="0 0 320 144"
	 style="enable-background:new 0 0 320 144;" xml:space="preserve">
<style type="text/css">
	.st0{fill-opacity:7.692309e-02;stroke:#4C4C4C;stroke-width:0.524;}
	.st1{fill:#E4FAFF;stroke:#3A99C6;stroke-width:0.374;}
	.st2{fill:none;}
	.st3{fill:#3999C6;}
	.st4{fill:#7FBA00;}
	.st5{fill:#2A3282;}
	.st6{fill:#0078D7;}
	.st7{fill:none;stroke:#3A99C6;stroke-width:5;}
	.st8{fill:#3A99C6;}
	.st9{fill:#E4FAFF;}
	.st10{fill:none;stroke:#939393;stroke-width:5;}
	.st11{fill:none;stroke:#939393;stroke-width:5;stroke-dasharray:5.8817,5.8817;}
	.st12{fill:#939393;}
</style>
<sodipodi:namedview  bordercolor="#666666" borderopacity="1.0" id="base" inkscape:current-layer="layer2" inkscape:cx="130.0785" inkscape:cy="65.517967" inkscape:document-units="px" inkscape:pageopacity="0.0" inkscape:pageshadow="2" inkscape:window-height="897" inkscape:window-maximized="1" inkscape:window-width="1536" inkscape:window-x="-8" inkscape:window-y="-8" inkscape:zoom="1.979899" pagecolor="#ffffff" showgrid="false" units="px">
	</sodipodi:namedview>
<g id="layer1" transform="translate(0,-908.36218)" inkscape:groupmode="layer" inkscape:label="Layer 1">
	<g id="Layer_1-0" transform="matrix(0.66238217,0,0,0.66238217,24.342106,902.82989)">
	</g>
	<g id="File_x2C__general" transform="translate(163.84112,826.95309)">
		<title  id="title6">Sheet.1071</title>
	</g>
	<g id="Message" transform="translate(163.84112,826.95309)">
	</g>
	<g id="Monitor" transform="translate(163.84112,826.95309)">
	</g>
	<g id="Monitor_running_apps" transform="translate(163.84112,826.95309)">
	</g>
	<g id="Mouse" transform="translate(163.84112,826.95309)">
	</g>
	<g id="Network_card" transform="translate(163.84112,826.95309)">
	</g>
	<g id="Not_allowed" transform="translate(163.84112,826.95309)">
	</g>
	<g id="Performance" transform="translate(163.84112,826.95309)">
	</g>
	<g id="Phone" transform="translate(163.84112,826.95309)">
	</g>
	<g id="Plug_and_play" transform="translate(163.84112,826.95309)">
	</g>
	<g id="Powershell_script_file" transform="translate(163.84112,826.95309)">
	</g>
	<g id="Protocol_stack" transform="translate(163.84112,826.95309)">
	</g>
	<g id="Queue_x2C__general" transform="translate(163.84112,826.95309)">
	</g>
	<g id="RMS_connector" transform="translate(163.84112,826.95309)">
	</g>
	<g id="paths" transform="translate(163.84112,826.95309)">
		<g id="Access_control">
		</g>
		<g id="Azure_active_directory">
		</g>
		<g id="Generic_code">
		</g>
		<g id="Laptop">
		</g>
		<g id="Load_balancer">
		</g>
		<g id="Lock_x2C__protected">
		</g>
	</g>
	<g id="symbols" transform="translate(163.84112,826.95309)">
	</g>
	<g id="slices" transform="translate(163.84112,826.95309)">
	</g>
	<g id="Layer_1-0-8" transform="matrix(0.66238217,0,0,0.66238217,16.221906,901.92549)">
	</g>
	<g id="File_x2C__general-9" transform="translate(155.72093,826.0487)">
		<title  id="title6-5">Sheet.1071</title>
	</g>
	<g id="Message-5" transform="translate(155.72093,826.0487)">
	</g>
	<g id="Monitor-9" transform="translate(155.72093,826.0487)">
	</g>
	<g id="Monitor_running_apps-8" transform="translate(155.72093,826.0487)">
	</g>
	<g id="Mouse-2" transform="translate(155.72093,826.0487)">
	</g>
	<g id="Network_card-4" transform="translate(155.72093,826.0487)">
	</g>
	<g id="Not_allowed-1" transform="translate(155.72093,826.0487)">
	</g>
	<g id="Performance-1" transform="translate(155.72093,826.0487)">
	</g>
	<g id="Phone-2" transform="translate(155.72093,826.0487)">
	</g>
	<g id="Plug_and_play-4" transform="translate(155.72093,826.0487)">
	</g>
	<g id="Powershell_script_file-4" transform="translate(155.72093,826.0487)">
	</g>
	<g id="Protocol_stack-4" transform="translate(155.72093,826.0487)">
	</g>
	<g id="Queue_x2C__general-4" transform="translate(155.72093,826.0487)">
	</g>
	<g id="RMS_connector-7" transform="translate(155.72093,826.0487)">
	</g>
	<g id="paths-6" transform="translate(155.72093,826.0487)">
		<g id="Access_control-4">
		</g>
		<g id="Azure_active_directory-3">
		</g>
		<g id="Generic_code-8">
		</g>
		<g id="Laptop-7">
		</g>
		<g id="Load_balancer-8">
		</g>
		<g id="Lock_x2C__protected-4">
		</g>
	</g>
	<g id="symbols-8" transform="translate(155.72093,826.0487)">
	</g>
	<g id="slices-2" transform="translate(155.72093,826.0487)">
	</g>
	<g id="Layer_1_1_" transform="matrix(0.06125617,0,0,0.06125617,168.92057,919.18779)">
		<g id="File_x2C__general-6">
			<title  id="title5">Sheet.1071</title>
		</g>
	</g>
	<g id="Access_control-2" transform="matrix(0.06125617,0,0,0.06125617,168.92057,919.18779)">
	</g>
	<g id="Azure_active_directory-8" transform="matrix(0.06125617,0,0,0.06125617,168.92057,919.18779)">
	</g>
	<g id="symbols-6" transform="matrix(0.06125617,0,0,0.06125617,168.92057,919.18779)">
	</g>
	<g id="Layer_1_1_-0" transform="translate(143.36851,787.92535)">
	</g>
	<g id="Access_control-7" transform="translate(143.36851,787.92535)">
	</g>
	<g id="Azure_active_directory-9" transform="translate(143.36851,787.92535)">
	</g>
	<g id="symbols-7" transform="translate(143.36851,787.92535)">
	</g>
</g>
<g id="layer3" inkscape:groupmode="layer" inkscape:label="Forests">
</g>
<rect id="rect11496" x="16.8" y="14.5" class="st0" width="80" height="55"/>
<rect id="rect11512" x="219.3" y="10.1" class="st1" width="83.3" height="120"/>
<path class="st2" d=""/>
<g id="g4892" transform="matrix(0.34059459,0,0,0.34059459,226.5029,97.915803)">
	<path id="path4894" inkscape:connector-curvature="0" class="st3" d="M45.9,72.1c0.6-0.6,0.5-1.6,0-2.2L43,67L29.9,54.3
		c-0.6-0.6-1.5-0.6-2.1,0l0,0c-0.6,0.6-0.7,1.6,0,2.2L41.5,70c0.6,0.6,0.6,1.6,0,2.2L27.6,86.1c-0.6,0.6-0.6,1.6,0,2.2l0,0
		c0.6,0.6,1.6,0.5,2.1,0l13-12.8c0,0,0,0,0.1-0.1C42.7,75.3,45.9,72.1,45.9,72.1z"/>
	<path id="path4896" inkscape:connector-curvature="0" class="st3" d="M-13.9,72.1c-0.6-0.6-0.5-1.6,0-2.2L-11,67L2,54.3
		c0.6-0.6,1.5-0.6,2.1,0l0,0c0.6,0.6,0.7,1.6,0,2.2L-9.3,70c-0.6,0.6-0.6,1.6,0,2.2L4.3,86.1c0.6,0.6,0.6,1.6,0,2.2l0,0
		c-0.6,0.6-1.6,0.5-2.1,0l-13.2-12.7c0,0,0,0-0.1-0.1L-13.9,72.1z"/>
	<path id="path4898" inkscape:connector-curvature="0" class="st4" d="M7.7,71c0,2.3-1.9,4-4,4s-4.2-1.9-4.2-4s1.7-4,4.2-4
		C6.2,67,7.7,69,7.7,71z"/>
	<path id="path4900" inkscape:connector-curvature="0" class="st4" d="M20,71c0,2.3-1.9,4-4,4s-4.2-1.9-4.2-4s1.9-4,4.2-4
		S20,69,20,71z"/>
	<circle id="circle4902" class="st4" cx="28.3" cy="71" r="4"/>
</g>
<g id="Domain_controller">
	<g>
		<path class="st5" d="M54.3,58.3c-0.6,0-0.8-0.4-0.6-0.9L60.6,46c0.3-0.5,0.8-0.5,1.1,0l6.9,11.4c0.3,0.5,0.1,0.9-0.6,0.9H54.3
			L54.3,58.3L54.3,58.3z"/>
		<g>
			<path class="st5" d="M59.2,25.8H46.5c-0.9,0-1.6,0.7-1.6,1.6v30.9h7.2c-0.2-0.6,0-1.1,0.2-1.7l0.9-1.5h-5.9v-1.6h6.9l1-1.6h-7.9
				v-1.6H56l2.9-5c0.3-0.5,0.7-0.9,1.1-1.1c0.2-0.2,0.5-0.2,0.8-0.2V27.3C60.8,26.5,60.1,25.8,59.2,25.8z M58.4,32.1H47.3v-1.6h11.1
				L58.4,32.1L58.4,32.1z"/>
		</g>
	</g>
</g>
<g id="shape28-2">
	<title>Sheet.28</title>
	<path class="st6" d="M291.2,22.6c-0.3-0.3-0.7-0.5-1-0.5c-0.1,0-0.2,0-0.3,0h-35.7c-0.9,0-1.7,0.9-1.7,2v27.7c0,1.2,0.7,2,1.7,2
		h35.9c0.9,0,1.7-0.9,1.7-2V24.7C291.7,25.4,291.8,23.2,291.2,22.6z M266.1,48.6c-0.1,0.2-0.2,0.5-0.2,0.7h-3.1V27.2
		c0-0.6,0.5-1.2,1.2-1.2h9.1c0.6,0,1.2,0.5,1.2,1.2v9.2c-0.4,0-0.7,0.3-0.9,0.6l-4.1,6.7h-4.7v1.2h4l-0.6,1.2h-3.3v1.2h2.6
		L266.1,48.6z M280.8,49.3h-13c-0.5,0-0.7-0.4-0.5-0.8l6.5-10.8c0.3-0.5,0.7-0.5,1,0l6.5,10.8C281.6,48.9,281.4,49.3,280.8,49.3z"/>
</g>
<rect x="263" y="30.6" class="st6" width="7" height="1"/>
<g>
	<g>
		<line class="st7" x1="84.3" y1="36.5" x2="237.3" y2="36.5"/>
		<g>
			<polygon class="st8" points="86.2,43.3 74.6,36.5 86.2,29.8 			"/>
		</g>
		<g>
			<polygon class="st8" points="235.3,43.3 247,36.5 235.3,29.8 			"/>
		</g>
	</g>
</g>
<rect id="rect11496_1_" x="16.8" y="75.1" class="st0" width="80" height="55"/>
<title>Sheet.28</title>
<g>
	<path class="st6" d="M291.1,86.8c-0.3-0.3-0.7-0.5-1-0.5c-0.1,0-0.2,0-0.3,0h-35.4c-0.9,0-1.7,0.9-1.7,2v27.5c0,1.1,0.7,2,1.7,2
		H290c0.9,0,1.7-0.9,1.7-2V88.9C291.7,89.6,291.8,87.4,291.1,86.8z"/>
	<g>
		<g>
			<path class="st9" d="M283.1,114.7l-7.7-12.7c-0.3-0.5-0.9-0.5-1.2,0l-7.7,12.7c-0.3,0.5-0.1,0.9,0.6,0.9h15.3
				C283.1,115.7,283.4,115.3,283.1,114.7z M279.3,114.4H276v-2h1.3v-1.3h-2h-0.7h-2v1.3h1.3v2h-3.4v-2h1.3v-2h0.7h2v-1.3h-1.3v-2
				h3.4v2h-1.3v1.3h2h0.7v2h1.3L279.3,114.4L279.3,114.4z"/>
			<g>
				<path class="st9" d="M273.3,88.3h-10.7c-0.7,0-1.3,0.6-1.3,1.3v26.2h3.8c0-0.3,0.1-0.6,0.3-0.9l1.1-1.8h-3.1v-1.3h3.9l0.8-1.3
					h-4.7v-1.3h5.5l4.8-7.9c0.3-0.5,0.7-0.7,1.1-0.8V89.5C274.6,88.9,274,88.3,273.3,88.3z M272.6,93.6h-9.4v-1.3h9.4
					C272.6,92.3,272.6,93.6,272.6,93.6z"/>
			</g>
		</g>
		<g id="paths_1_">
			<g id="Access_control_1_">
			</g>
			<g id="Azure_active_directory_1_">
			</g>
		</g>
	</g>
</g>
<path id="path11518" inkscape:connector-curvature="0" d="M44,82.1H25.9c-0.6,0-1.1,0.5-1.1,1.1v12.6c0,0.6,0.5,1.1,1.1,1.1h6.2
	c0.7,2.4-0.2,2.7-4.2,2.7v1.3h5h3.7h4.7v-1.3c-3.9,0-4.3-0.3-3.7-2.7H44c0.6,0,1.3-0.5,1.3-1.1V83.3C45.3,82.6,44.6,82.1,44,82.1z
	 M43.7,83.6v11.8H26.3V83.6H43.7L43.7,83.6z"/>
<g>
	<g>
		<line class="st10" x1="84.3" y1="98.5" x2="87.3" y2="98.5"/>
		<line class="st11" x1="93.2" y1="98.5" x2="231.4" y2="98.5"/>
		<line class="st10" x1="234.3" y1="98.5" x2="237.3" y2="98.5"/>
		<g>
			<polygon class="st12" points="86.2,105.3 74.6,98.5 86.2,91.8 			"/>
		</g>
		<g>
			<polygon class="st12" points="235.3,105.3 247,98.5 235.3,91.8 			"/>
		</g>
	</g>
</g>
<path id="path11518_1_" inkscape:connector-curvature="0" d="M70.1,82.1H52c-0.6,0-1.1,0.5-1.1,1.1v12.6c0,0.6,0.5,1.1,1.1,1.1h6.2
	c0.7,2.4-0.2,2.7-4.2,2.7v1.3h5h3.7h4.7v-1.3c-3.9,0-4.3-0.3-3.7-2.7h6.4c0.6,0,1.3-0.5,1.3-1.1V83.3C71.3,82.6,70.7,82.1,70.1,82.1
	z M69.7,83.6v11.8H52.4V83.6H69.7L69.7,83.6z"/>
<path id="path11518_2_" inkscape:connector-curvature="0" d="M56.8,106.6H38.6c-0.6,0-1.1,0.5-1.1,1.1v12.6c0,0.6,0.5,1.1,1.1,1.1
	h6.2c0.7,2.4-0.2,2.7-4.2,2.7v1.3h5h3.7H54v-1.3c-3.9,0-4.3-0.3-3.7-2.7h6.4c0.6,0,1.3-0.5,1.3-1.1v-12.6
	C58,107.1,57.4,106.6,56.8,106.6z M56.4,108.1v11.8H39.1v-11.8H56.4L56.4,108.1z"/>
</svg>
