<?xml version="1.0" encoding="utf-8"?>
<!-- Generator: Adobe Illustrator 21.1.0, SVG Export Plug-In . SVG Version: 6.00 Build 0)  -->
<svg version="1.1"
	 id="svg8983" inkscape:version="0.91 r13725" sodipodi:docname="azure-ad.svg" xmlns:cc="http://creativecommons.org/ns#" xmlns:dc="http://purl.org/dc/elements/1.1/" xmlns:inkscape="http://www.inkscape.org/namespaces/inkscape" xmlns:rdf="http://www.w3.org/1999/02/22-rdf-syntax-ns#" xmlns:sodipodi="http://sodipodi.sourceforge.net/DTD/sodipodi-0.dtd" xmlns:svg="http://www.w3.org/2000/svg" xmlns:v="http://schemas.microsoft.com/visio/2003/SVGExtensions/"
	 xmlns="http://www.w3.org/2000/svg" xmlns:xlink="http://www.w3.org/1999/xlink" x="0px" y="0px" viewBox="0 0 320 144"
	 style="enable-background:new 0 0 320 144;" xml:space="preserve">
<style type="text/css">
	.st0{fill-opacity:7.692309e-02;stroke:#4C4C4C;stroke-width:0.524;}
	.st1{fill:none;}
	.st2{fill:#59B4D9;}
	.st3{fill:#FFFFFF;}
	.st4{opacity:0.5;fill:#FFFFFF;enable-background:new    ;}
	.st5{fill:#B8D432;}
	.st6{opacity:0.1;fill:#FFFFFF;enable-background:new    ;}
	.st7{fill:#2A3282;}
	.st8{fill:none;stroke:#3A99C6;stroke-width:6;}
	.st9{fill:#3A99C6;}
	.st10{fill:#E4FAFF;stroke:#3A99C6;stroke-width:0.374;}
	.st11{fill:#0078D7;}
	.st12{fill:#3999C6;}
	.st13{fill:#7FBA00;}
</style>
<sodipodi:namedview  bordercolor="#666666" borderopacity="1.0" id="base" inkscape:current-layer="g4687" inkscape:cx="160.79652" inkscape:cy="43.102033" inkscape:document-units="px" inkscape:pageopacity="0.0" inkscape:pageshadow="2" inkscape:window-height="897" inkscape:window-maximized="1" inkscape:window-width="1536" inkscape:window-x="-8" inkscape:window-y="-8" inkscape:zoom="2.8" pagecolor="#ffffff" showgrid="false" units="px">
	</sodipodi:namedview>
<g id="layer1" transform="translate(0,-908.36218)" inkscape:groupmode="layer" inkscape:label="Layer 1">
	<g id="Layer_1-0" transform="matrix(0.66238217,0,0,0.66238217,24.342106,902.82989)">
	</g>
	<g id="File_x2C__general" transform="translate(163.84112,826.95309)">
		<title  id="title6">Sheet.1071</title>
	</g>
	<g id="Message" transform="translate(163.84112,826.95309)">
	</g>
	<g id="Monitor" transform="translate(163.84112,826.95309)">
	</g>
	<g id="Monitor_running_apps" transform="translate(163.84112,826.95309)">
	</g>
	<g id="Mouse" transform="translate(163.84112,826.95309)">
	</g>
	<g id="Network_card" transform="translate(163.84112,826.95309)">
	</g>
	<g id="Not_allowed" transform="translate(163.84112,826.95309)">
	</g>
	<g id="Performance" transform="translate(163.84112,826.95309)">
	</g>
	<g id="Phone" transform="translate(163.84112,826.95309)">
	</g>
	<g id="Plug_and_play" transform="translate(163.84112,826.95309)">
	</g>
	<g id="Powershell_script_file" transform="translate(163.84112,826.95309)">
	</g>
	<g id="Protocol_stack" transform="translate(163.84112,826.95309)">
	</g>
	<g id="Queue_x2C__general" transform="translate(163.84112,826.95309)">
	</g>
	<g id="RMS_connector" transform="translate(163.84112,826.95309)">
	</g>
	<g id="paths" transform="translate(163.84112,826.95309)">
		<g id="Access_control">
		</g>
		<g id="Azure_active_directory">
		</g>
		<g id="Generic_code">
		</g>
		<g id="Laptop">
		</g>
		<g id="Load_balancer">
		</g>
		<g id="Lock_x2C__protected">
		</g>
	</g>
	<g id="symbols" transform="translate(163.84112,826.95309)">
	</g>
	<g id="slices" transform="translate(163.84112,826.95309)">
	</g>
	<g id="Layer_1-0-8" transform="matrix(0.66238217,0,0,0.66238217,16.221906,901.92549)">
	</g>
	<g id="File_x2C__general-9" transform="translate(155.72093,826.0487)">
		<title  id="title6-5">Sheet.1071</title>
	</g>
	<g id="Message-5" transform="translate(155.72093,826.0487)">
	</g>
	<g id="Monitor-9" transform="translate(155.72093,826.0487)">
	</g>
	<g id="Monitor_running_apps-8" transform="translate(155.72093,826.0487)">
	</g>
	<g id="Mouse-2" transform="translate(155.72093,826.0487)">
	</g>
	<g id="Network_card-4" transform="translate(155.72093,826.0487)">
	</g>
	<g id="Not_allowed-1" transform="translate(155.72093,826.0487)">
	</g>
	<g id="Performance-1" transform="translate(155.72093,826.0487)">
	</g>
	<g id="Phone-2" transform="translate(155.72093,826.0487)">
	</g>
	<g id="Plug_and_play-4" transform="translate(155.72093,826.0487)">
	</g>
	<g id="Powershell_script_file-4" transform="translate(155.72093,826.0487)">
	</g>
	<g id="Protocol_stack-4" transform="translate(155.72093,826.0487)">
	</g>
	<g id="Queue_x2C__general-4" transform="translate(155.72093,826.0487)">
	</g>
	<g id="RMS_connector-7" transform="translate(155.72093,826.0487)">
	</g>
	<g id="paths-6" transform="translate(155.72093,826.0487)">
		<g id="Access_control-4">
		</g>
		<g id="Azure_active_directory-3">
		</g>
		<g id="Generic_code-8">
		</g>
		<g id="Laptop-7">
		</g>
		<g id="Load_balancer-8">
		</g>
		<g id="Lock_x2C__protected-4">
		</g>
	</g>
	<g id="symbols-8" transform="translate(155.72093,826.0487)">
	</g>
	<g id="slices-2" transform="translate(155.72093,826.0487)">
	</g>
	<g id="Layer_1_1_" transform="matrix(0.06125617,0,0,0.06125617,168.92057,919.18779)">
		<g id="File_x2C__general-6">
			<title  id="title5">Sheet.1071</title>
		</g>
	</g>
	<g id="Access_control-2" transform="matrix(0.06125617,0,0,0.06125617,168.92057,919.18779)">
	</g>
	<g id="Azure_active_directory-8" transform="matrix(0.06125617,0,0,0.06125617,168.92057,919.18779)">
	</g>
	<g id="symbols-6" transform="matrix(0.06125617,0,0,0.06125617,168.92057,919.18779)">
	</g>
	<g id="Layer_1_1_-0" transform="translate(143.36851,787.92535)">
	</g>
	<g id="Access_control-7" transform="translate(143.36851,787.92535)">
	</g>
	<g id="Azure_active_directory-9" transform="translate(143.36851,787.92535)">
	</g>
	<g id="symbols-7" transform="translate(143.36851,787.92535)">
	</g>
</g>
<g id="layer3" inkscape:groupmode="layer" inkscape:label="Forests">
</g>
<rect id="rect11496" x="9.8" y="12" class="st0" width="80" height="120"/>
<path class="st1" d=""/>
<path id="path11518" inkscape:connector-curvature="0" d="M66.5,85h-32c-1.1,0-1.9,1-1.9,2v22.3c0,1.1,0.9,2,1.9,2h10.9
	c1.2,4.2-0.4,4.7-7.3,4.7v2.2h8.8h6.5h8.3V116c-7,0-7.6-0.6-6.5-4.7h11.3c1.1,0,2.2-1,2.2-2V87C68.8,85.9,67.6,85,66.5,85z M66,87.7
	v20.9H35.4V87.7H66L66,87.7z"/>
<g id="g5593" transform="matrix(0.75756339,0,0,0.75756339,-81.036669,-849.18269)">
	<path id="path3" inkscape:connector-curvature="0" class="st2" d="M368,1197.9c-1.5,0-2.9-0.6-3.9-1.6l-24.7-24.7
		c-1-1-1.6-2.5-1.6-3.9c0-1.5,0.6-2.9,1.6-3.9l24.7-24.7c1.1-1.1,2.5-1.6,3.9-1.6c1.5,0,2.9,0.6,3.9,1.6l24.7,24.7
		c1.1,1.1,1.6,2.5,1.6,3.9s-0.6,2.9-1.6,4l-24.7,24.7C370.9,1197.3,369.5,1197.9,368,1197.9"/>
	<path id="path5" inkscape:connector-curvature="0" class="st3" d="M384.5,1162.9c-2.6,0-4.7,2.1-4.7,4.7c0,1,0.3,1.8,0.8,2.6
		l-9.4,9.4c-0.2-0.2-0.5-0.3-0.8-0.5v-23.9c1.4-0.8,2.4-2.3,2.4-4.1c0-2.6-2.1-4.7-4.7-4.7c-2.6,0-4.7,2.1-4.7,4.7
		c0,1.8,1,3.3,2.4,4.1v23.9c-0.3,0.1-0.5,0.3-0.8,0.4l-9.4-9.4c0.5-0.7,0.8-1.6,0.8-2.6c0-2.6-2.1-4.7-4.7-4.7
		c-2.6,0-4.7,2.1-4.7,4.7s2.1,4.7,4.7,4.7c0.5,0,1.1-0.1,1.5-0.3l9.9,9.9c-0.3,0.7-0.4,1.4-0.4,2.2c0,3,2.5,5.5,5.5,5.5
		c3,0,5.5-2.5,5.5-5.5c0-0.8-0.2-1.5-0.4-2.1l9.9-9.9c0.5,0.2,1,0.3,1.5,0.3c2.6,0,4.7-2.1,4.7-4.7S387.1,1162.9,384.5,1162.9
		L384.5,1162.9z"/>
	
		<rect id="rect7" x="375.3" y="1147.3" transform="matrix(0.707 -0.7072 0.7072 0.707 -709.8605 606.316)" class="st4" width="3.1" height="25"/>
	
		<rect id="rect9" x="346.7" y="1158.4" transform="matrix(0.7071 -0.7071 0.7071 0.7071 -714.9431 593.7349)" class="st4" width="25" height="3.1"/>
	<path id="path11" inkscape:connector-curvature="0" class="st5" d="M371.2,1184.1c0,1.8-1.5,3.3-3.3,3.3c-1.8,0-3.3-1.5-3.3-3.3
		s1.5-3.3,3.3-3.3C369.8,1180.9,371.2,1182.3,371.2,1184.1"/>
	<path id="path13" inkscape:connector-curvature="0" class="st5" d="M370.6,1151.2c0,1.5-1.2,2.6-2.6,2.6c-1.5,0-2.6-1.2-2.6-2.6
		c0-1.5,1.2-2.6,2.6-2.6C369.5,1148.5,370.6,1149.7,370.6,1151.2"/>
	<path id="path15" inkscape:connector-curvature="0" class="st5" d="M354.2,1167.7c0,1.5-1.2,2.6-2.6,2.6c-1.5,0-2.6-1.2-2.6-2.6
		c0-1.5,1.2-2.6,2.6-2.6C353,1165,354.2,1166.2,354.2,1167.7"/>
	<path id="path17" inkscape:connector-curvature="0" class="st5" d="M387.1,1167.7c0,1.5-1.2,2.6-2.6,2.6c-1.5,0-2.6-1.2-2.6-2.6
		c0-1.5,1.2-2.6,2.6-2.6S387.1,1166.2,387.1,1167.7"/>
	<path id="path19" inkscape:connector-curvature="0" class="st6" d="M372,1139c-1.1-1.1-2.5-1.6-3.9-1.6c-1.5,0-2.9,0.6-3.9,1.6
		l-24.7,24.7c-1,1-1.6,2.5-1.6,3.9c0,1.5,0.6,2.9,1.6,3.9l14,14l26.3-38.9L372,1139z"/>
</g>
<g id="Domain_controller">
	<g>
		<path class="st7" d="M47.4,65.6c-0.7,0-1-0.5-0.7-1.1l9-14.9c0.4-0.6,1-0.6,1.5,0l9,14.9c0.4,0.6,0.1,1.1-0.7,1.1H47.4L47.4,65.6
			L47.4,65.6z"/>
		<g>
			<path class="st7" d="M53.8,23.2H37.2c-1.1,0-2.1,0.9-2.1,2.1v40.3h9.4c-0.2-0.7,0-1.5,0.3-2.2l1.1-2h-7.8v-2.1h9l1.2-2.1H38.3
				v-2.1h11.4l3.7-6.5c0.4-0.6,0.9-1.1,1.5-1.5c0.3-0.2,0.6-0.3,1-0.3V25.2C55.8,24.1,54.9,23.2,53.8,23.2z M52.7,31.5H38.3v-2.1
				h14.5L52.7,31.5L52.7,31.5z"/>
		</g>
	</g>
</g>
<g id="symbols_1_">
</g>
<g>
	<g>
		<line class="st8" x1="66.1" y1="35.4" x2="160.4" y2="35.4"/>
		<g>
			<polygon class="st9" points="158,43.5 172,35.4 158,27.3 			"/>
		</g>
	</g>
</g>
<g id="slices_1_">
</g>
<rect id="rect11512" x="225.3" y="12" class="st10" width="83.3" height="120"/>
<g id="g7435" transform="matrix(0.79850972,0,0,0.79850972,168.11115,-7.9662242)">
	<g id="g7437">
		<path id="path7439" inkscape:connector-curvature="0" class="st11" d="M154,112.2h-40.1c-1.3,0-2.4,1.2-2.4,2.5v28
			c0,1.3,1.1,2.5,2.4,2.5h13.7c1.5,5.2-0.5,5.9-9.2,5.9v2.8h11h8.1h10.4v-2.8c-8.7,0-9.6-0.7-8.1-5.9H154c1.3,0,2.8-1.2,2.8-2.5v-28
			C156.8,113.4,155.3,112.2,154,112.2z M153.2,115.6v26.2h-38.4v-26.2H153.2L153.2,115.6z"/>
		<g id="g7441" transform="translate(1176.51,-2762.63)">
			<title  id="title7443">Sheet.975</title>
			<g id="g7445" transform="translate(0.8685,-17.652)">
				<title  id="title7447">Sheet.976</title>
				<path id="path7449" inkscape:connector-curvature="0" class="st11" d="M-1036.8,2904.1l-7-4l-7,4v0.1l7,4L-1036.8,2904.1
					L-1036.8,2904.1L-1036.8,2904.1z"/>
			</g>
			<g id="g7451" transform="translate(15.8925,0)">
				<title  id="title7453">Sheet.977</title>
				<path id="path7455" inkscape:connector-curvature="0" class="st11" d="M-1058,2891.7v8l7-4v-8L-1058,2891.7z"/>
			</g>
			<g id="g7457">
				<title  id="title7459">Sheet.978</title>
				<path id="path7461" inkscape:connector-curvature="0" class="st11" d="M-1043.6,2891.7l-7-4v8l7,4V2891.7z"/>
			</g>
		</g>
	</g>
</g>
<g id="g4892" transform="matrix(0.34059459,0,0,0.34059459,226.5029,97.915803)">
	<path id="path4894" inkscape:connector-curvature="0" class="st12" d="M63.5,77.9c0.6-0.6,0.5-1.6,0-2.2l-2.9-2.9L47.5,60.1
		c-0.6-0.6-1.5-0.6-2.1,0l0,0c-0.6,0.6-0.7,1.6,0,2.2l13.7,13.4c0.6,0.6,0.6,1.6,0,2.2L45.2,91.8c-0.6,0.6-0.6,1.6,0,2.2l0,0
		c0.6,0.6,1.6,0.5,2.1,0l13-12.8c0,0,0,0,0.1-0.1C60.3,81.1,63.5,77.9,63.5,77.9z"/>
	<path id="path4896" inkscape:connector-curvature="0" class="st12" d="M3.7,77.9c-0.6-0.6-0.5-1.6,0-2.2l2.9-2.9l13.1-12.7
		c0.6-0.6,1.5-0.6,2.1,0l0,0c0.6,0.6,0.7,1.6,0,2.2L8.3,75.7c-0.6,0.6-0.6,1.6,0,2.2L22,91.8c0.6,0.6,0.6,1.6,0,2.2l0,0
		c-0.6,0.6-1.6,0.5-2.1,0L6.7,81.3c0,0,0,0-0.1-0.1L3.7,77.9z"/>
	<path id="path4898" inkscape:connector-curvature="0" class="st13" d="M25.4,76.8c0,2.3-1.9,4-4,4s-4.2-1.9-4.2-4s1.7-4,4.2-4
		C23.8,72.8,25.4,74.8,25.4,76.8z"/>
	<path id="path4900" inkscape:connector-curvature="0" class="st13" d="M37.6,76.8c0,2.3-1.9,4-4,4c-2.1,0-4.2-1.9-4.2-4
		s1.9-4,4.2-4C35.9,72.8,37.6,74.8,37.6,76.8z"/>
	<circle id="circle4902" class="st13" cx="45.9" cy="76.8" r="4"/>
</g>
<g id="g7435_1_" transform="matrix(0.79850972,0,0,0.79850972,168.11115,-7.9662242)">
	<g id="g7437_1_">
		<path id="path7439_1_" inkscape:connector-curvature="0" class="st11" d="M154.2,41.2h-40.1c-1.3,0-2.4,1.2-2.4,2.5v28
			c0,1.3,1.1,2.5,2.4,2.5h13.7c1.5,5.2-0.5,5.9-9.2,5.9v2.8h11h8.1h10.4v-2.8c-8.7,0-9.6-0.7-8.1-5.9h14.2c1.3,0,2.8-1.2,2.8-2.5
			v-28C157,42.4,155.5,41.2,154.2,41.2z M153.5,44.5v26.2h-38.4V44.5H153.5L153.5,44.5z"/>
		<g id="g7441_1_" transform="translate(1176.51,-2762.63)">
			<title  id="title7443">Sheet.975</title>
			<g id="g7445_1_" transform="translate(0.8685,-17.652)">
				<title  id="title7447">Sheet.976</title>
				<path id="path7449_1_" inkscape:connector-curvature="0" class="st11" d="M-1036.5,2833.1l-7-4l-7,4v0.1l7,4L-1036.5,2833.1
					L-1036.5,2833.1L-1036.5,2833.1z"/>
			</g>
			<g id="g7451_1_" transform="translate(15.8925,0)">
				<title  id="title7453">Sheet.977</title>
				<path id="path7455_1_" inkscape:connector-curvature="0" class="st11" d="M-1057.8,2820.7v8l7-4v-8L-1057.8,2820.7z"/>
			</g>
			<g id="g7457_1_">
				<title  id="title7459">Sheet.978</title>
				<path id="path7461_1_" inkscape:connector-curvature="0" class="st11" d="M-1043.4,2820.7l-7-4v8l7,4V2820.7z"/>
			</g>
		</g>
	</g>
</g>
</svg>
