<?xml version="1.0" encoding="utf-8"?>
<!-- Generator: Adobe Illustrator 19.1.0, SVG Export Plug-In . SVG Version: 6.00 Build 0)  -->
<svg version="1.1" id="Layer_1" xmlns="http://www.w3.org/2000/svg" xmlns:xlink="http://www.w3.org/1999/xlink" x="0px" y="0px"
	 viewBox="-280 372 50 50" style="enable-background:new -280 372 50 50;" xml:space="preserve">
<style type="text/css">
	.st0{fill:#0078D7;}
	.st1{fill:#FFFFFF;}
</style>
<path class="st0" d="M-230.6,396.9c-0.9-2.1-2.8-4-5.2-5.1c-1.1-3.8-4.3-7.5-8.9-7.5c-0.1,0-0.3,0-0.5,0c-1.9-1.4-3.8-2.1-5.8-2.1
	c-1.2,0-2.4,0.3-3.5,0.8c-0.9-0.5-1.9-0.7-3-0.7c-2.4,0-4.7,1.1-6.1,2.4c-0.4-0.1-0.9-0.2-1.4-0.2c-3.6,0-7.1,2.9-8.1,6.5
	c-3.1,1.1-5.3,3.1-6.4,5.8c-1,2.6-0.8,5.4,0.6,7.8c1.4,2.4,3.9,3.9,6.6,3.9c1,0,2-0.2,3-0.6c1.6,1.5,3.8,2.4,5.8,2.4
	c0.7,0,1.4-0.1,2-0.3c1.6,1.3,4.1,1.8,6.1,1.8c2.4,0,4.5-0.6,5.8-1.7c0.9,0.4,1.9,0.6,2.9,0.6h0c2.6,0,5.2-1.4,6.7-3.3
	c0.8,0.3,1.7,0.5,2.5,0.5h0c2.8,0,5.4-1.8,6.6-4.7C-229.8,401.1-229.8,398.9-230.6,396.9z"/>
<path class="st1" d="M-263.9,410.3v-8.8c0-1.1-0.9-2-2-2h-3.3v1.4h3.3c0.3,0,0.6,0.3,0.6,0.6v8.6
	C-264.9,410.1-264.4,410.2-263.9,410.3z"/>
<path class="st1" d="M-257.8,395.2h-4.4c-0.3,0-0.6-0.3-0.6-0.6v-10.5c-0.3,0.2-0.5,0.4-0.7,0.6c-0.2-0.1-0.5-0.1-0.7-0.1v10.1
	c0,1.1,0.9,2,2,2h4.4c0.3,0,0.6,0.3,0.6,0.6v3.3h1.4v-3.3C-255.9,396.1-256.8,395.2-257.8,395.2z"/>
<path class="st1" d="M-239.2,400.8v-1.3h-1.4v1.3c0,0.3-0.3,0.6-0.6,0.6h-5.6v-10c0-1.1-0.9-2-2-2h-3.8v1.4h3.8
	c0.3,0,0.6,0.3,0.6,0.6v19.2c0.5,0.1,0.9,0.2,1.4,0.2v-7.9h5.6C-240.1,402.8-239.2,401.9-239.2,400.8z"/>
<path class="st1" d="M-256.6,406.3c-1.7,0-3.1-1.4-3.1-3.1c0-1.7,1.4-3.1,3.1-3.1c1.7,0,3.1,1.4,3.1,3.1
	C-253.4,404.9-254.8,406.3-256.6,406.3z M-256.6,401.3c-1,0-1.8,0.8-1.8,1.8c0,1,0.8,1.8,1.8,1.8c1,0,1.8-0.8,1.8-1.8
	C-254.7,402.1-255.6,401.3-256.6,401.3z"/>
<path class="st1" d="M-271.5,403.3c-1.7,0-3.1-1.4-3.1-3.1s1.4-3.1,3.1-3.1s3.1,1.4,3.1,3.1C-268.4,401.9-269.8,403.3-271.5,403.3z
	 M-271.5,398.3c-1,0-1.8,0.8-1.8,1.8c0,1,0.8,1.8,1.8,1.8c1,0,1.8-0.8,1.8-1.8C-269.6,399.2-270.5,398.3-271.5,398.3z"/>
<path class="st1" d="M-239.9,400.3c-1.7,0-3.1-1.4-3.1-3.1c0-1.7,1.4-3.1,3.1-3.1s3.1,1.4,3.1,3.1
	C-236.8,398.9-238.2,400.3-239.9,400.3z M-239.9,395.4c-1,0-1.8,0.8-1.8,1.8s0.8,1.8,1.8,1.8s1.8-0.8,1.8-1.8
	S-238.9,395.4-239.9,395.4z"/>
<path class="st1" d="M-254.9,393.2c-1.7,0-3.1-1.4-3.1-3.1c0-1.7,1.4-3.1,3.1-3.1s3.1,1.4,3.1,3.1
	C-251.7,391.8-253.1,393.2-254.9,393.2z M-254.9,388.2c-1,0-1.8,0.8-1.8,1.8c0,1,0.8,1.8,1.8,1.8c1,0,1.8-0.8,1.8-1.8
	C-253,389-253.8,388.2-254.9,388.2z"/>
</svg>
