<?xml version="1.0" encoding="UTF-8" standalone="no"?>
<!DOCTYPE svg PUBLIC "-//W3C//DTD SVG 1.1//EN" "http://www.w3.org/Graphics/SVG/1.1/DTD/svg11.dtd">
<!-- Generated by Microsoft Visio, SVG Export multi-region-application.svg Page-1 -->
<svg xmlns="http://www.w3.org/2000/svg" xmlns:xlink="http://www.w3.org/1999/xlink" xmlns:ev="http://www.w3.org/2001/xml-events"
		width="7.88048in" height="3.87986in" viewBox="0 0 567.394 279.35" xml:space="preserve" color-interpolation-filters="sRGB"
		class="st16">
	<style type="text/css">
	<![CDATA[
		.st1 {marker-end:url(#mrkr4-7);stroke:#0078d7;stroke-linecap:round;stroke-linejoin:round;stroke-width:1.5}
		.st2 {fill:#0078d7;fill-opacity:1;stroke:#0078d7;stroke-opacity:1;stroke-width:0.45454545454545}
		.st3 {fill:none;stroke:#0078d7;stroke-dasharray:0,6.75;stroke-linecap:round;stroke-linejoin:round;stroke-width:2.25}
		.st4 {fill:#f2f2f2;stroke:none;stroke-linecap:round;stroke-linejoin:round;stroke-width:1.5}
		.st5 {fill:#0078d7;stroke:none;stroke-linecap:butt;stroke-width:1.5}
		.st6 {fill:#fff2cc;stroke:none;stroke-linecap:round;stroke-linejoin:round;stroke-width:1.5}
		.st7 {fill:#ffffff;stroke:none;stroke-linecap:round;stroke-linejoin:round;stroke-width:1.5}
		.st8 {fill:#ffffff;stroke:none;stroke-linecap:butt;stroke-width:1.5}
		.st9 {stroke:#0078d7;stroke-linecap:round;stroke-linejoin:round;stroke-width:1.5}
		.st10 {marker-end:url(#mrkr4-310);marker-start:url(#mrkr4-308);stroke:#7f7f7f;stroke-linecap:round;stroke-linejoin:round;stroke-width:2.25}
		.st11 {fill:#7f7f7f;fill-opacity:1;stroke:#7f7f7f;stroke-opacity:1;stroke-width:0.47169811320755}
		.st12 {marker-end:url(#mrkr4-316);stroke:#bf9000;stroke-linecap:round;stroke-linejoin:round;stroke-width:2.25}
		.st13 {fill:#bf9000;fill-opacity:1;stroke:#bf9000;stroke-opacity:1;stroke-width:0.47169811320755}
		.st14 {fill:#ffffff;stroke:#3f3f3f;stroke-linecap:butt;stroke-width:1.5}
		.st15 {fill:#ffffff;stroke:#ffffff;stroke-linecap:butt;stroke-width:1.5}
		.st16 {fill:none;fill-rule:evenodd;font-size:12px;overflow:visible;stroke-linecap:square;stroke-miterlimit:3}
	]]>
	</style>

	<defs id="Markers">
		<g id="lend4">
			<path d="M 2 1 L 0 0 L 2 -1 L 2 1 " style="stroke:none"/>
		</g>
		<marker id="mrkr4-7" class="st2" refX="-4.4" orient="auto" markerUnits="strokeWidth" overflow="visible">
			<use xlink:href="#lend4" transform="scale(-2.2,-2.2) "/>
		</marker>
		<marker id="mrkr4-308" class="st11" refX="4.08" orient="auto" markerUnits="strokeWidth" overflow="visible">
			<use xlink:href="#lend4" transform="scale(2.12) "/>
		</marker>
		<marker id="mrkr4-310" class="st11" refX="-4.24" orient="auto" markerUnits="strokeWidth" overflow="visible">
			<use xlink:href="#lend4" transform="scale(-2.12,-2.12) "/>
		</marker>
		<marker id="mrkr4-316" class="st13" refX="-4.24" orient="auto" markerUnits="strokeWidth" overflow="visible">
			<use xlink:href="#lend4" transform="scale(-2.12,-2.12) "/>
		</marker>
	</defs>
	<g>
		<title>Page-1</title>
		<g id="group1652-1" transform="translate(11.1076,-23.1714)">
			<title>Sheet.1652</title>
			<g id="shape1457-2" transform="translate(119.155,-199.619) rotate(2.83178E-05)">
				<title>Sheet.1457</title>
				<path d="M0 279.35 L12.64 279.35" class="st1"/>
			</g>
			<g id="shape1458-8" transform="translate(179.478,-132.622)">
				<title>Virtual Network Box.1458</title>
				<path d="M0 279.35 L366.82 279.35 L366.82 156.92 L0 156.92 L0 279.35 Z" class="st3"/>
			</g>
			<g id="shape1459-10" transform="translate(186.3,-150.429)">
				<title>Sheet.1459</title>
				<rect x="0" y="180.438" width="63" height="98.9118" class="st4"/>
			</g>
			<g id="group1460-12" transform="translate(210.484,-218.816)">
				<title>Virtual machine.1460</title>
				<g id="shape1461-13" transform="translate(10.6837,-11.7195)">
					<title>Sheet.1461</title>
					<path d="M0 279.35 L12.32 279.35 L12.32 271.09 L0 271.09 L0 279.35 ZM8.87 276.94 L6.56 278.28 L6.56 275.61 L8.87
								 274.27 L8.87 276.94 ZM6.35 272.56 L8.66 273.9 L6.36 275.23 L4.04 273.89 L6.35 272.56 ZM3.81 274.26
								 L6.13 275.59 L6.13 278.28 L3.81 276.94 L3.81 274.26 Z" class="st5"/>
				</g>
				<g id="shape1462-15">
					<title>Sheet.1462</title>
					<path d="M31.19 253.24 L1.44 253.24 C0.65 253.24 0 253.89 0 254.68 L0 277.91 C0 278.71 0.65 279.35 1.44 279.35
								 L31.19 279.35 C31.99 279.35 32.63 278.71 32.63 277.91 L32.63 254.68 C32.63 253.89 31.99 253.24 31.19
								 253.24 ZM16.21 274.86 L15.3 277.55 C15.29 277.58 15.28 277.6 15.27 277.62 C15.26 277.64 15.24 277.65
								 15.21 277.66 C15.18 277.66 15.14 277.67 15.1 277.67 C15.05 277.68 14.98 277.68 14.9 277.68 C14.84
								 277.68 14.79 277.68 14.74 277.68 C14.7 277.67 14.66 277.67 14.63 277.67 C14.6 277.67 14.57 277.66
								 14.55 277.65 C14.53 277.65 14.52 277.64 14.5 277.63 C14.49 277.62 14.48 277.61 14.47 277.6 C14.47
								 277.58 14.46 277.57 14.45 277.55 L13.55 274.85 C13.53 274.8 13.52 274.75 13.51 274.72 C13.51 274.68
								 13.52 274.66 13.54 274.64 C13.56 274.63 13.59 274.62 13.64 274.61 C13.68 274.61 13.75 274.61 13.83
								 274.61 C13.91 274.61 13.96 274.61 14 274.61 C14.04 274.61 14.08 274.62 14.1 274.63 C14.12 274.63
								 14.13 274.65 14.14 274.66 C14.15 274.68 14.16 274.7 14.17 274.72 L14.91 277.07 L14.91 277.07 L15.64
								 274.73 C15.64 274.71 15.65 274.68 15.66 274.67 C15.67 274.65 15.68 274.64 15.71 274.63 C15.73 274.62
								 15.76 274.61 15.8 274.61 C15.85 274.61 15.9 274.61 15.98 274.61 C16.05 274.61 16.11 274.61 16.15
								 274.61 C16.19 274.62 16.21 274.63 16.23 274.65 C16.24 274.67 16.25 274.69 16.24 274.72 C16.24 274.76
								 16.23 274.8 16.21 274.86 ZM20.18 277.58 C20.18 277.59 20.18 277.61 20.17 277.62 C20.16 277.63 20.14
								 277.64 20.12 277.65 C20.1 277.66 20.07 277.67 20.03 277.67 C19.99 277.67 19.94 277.68 19.89 277.68
								 C19.83 277.68 19.78 277.67 19.74 277.67 C19.71 277.67 19.68 277.66 19.66 277.65 C19.63 277.64 19.62
								 277.63 19.61 277.62 C19.6 277.61 19.59 277.59 19.59 277.58 L19.59 275.1 L19.59 275.1 L18.71 277.58
								 C18.7 277.6 18.69 277.61 18.68 277.63 C18.66 277.64 18.64 277.65 18.62 277.66 C18.6 277.67 18.56
								 277.67 18.53 277.67 C18.49 277.68 18.44 277.68 18.39 277.68 C18.34 277.68 18.29 277.68 18.25 277.67
								 C18.22 277.67 18.18 277.66 18.16 277.65 C18.14 277.64 18.12 277.63 18.1 277.62 C18.09 277.61 18.08
								 277.59 18.07 277.58 L17.22 275.1 L17.22 275.1 L17.22 277.58 C17.22 277.59 17.21 277.61 17.21 277.62
								 C17.2 277.63 17.18 277.64 17.16 277.65 C17.13 277.66 17.1 277.67 17.07 277.67 C17.03 277.67 16.98
								 277.68 16.92 277.68 C16.87 277.68 16.82 277.67 16.78 277.67 C16.75 277.67 16.72 277.66 16.69 277.65
								 C16.67 277.64 16.65 277.63 16.65 277.62 C16.64 277.61 16.63 277.59 16.63 277.58 L16.63 274.87 C16.63
								 274.79 16.65 274.73 16.7 274.68 C16.74 274.64 16.79 274.62 16.87 274.62 L17.27 274.62 C17.34 274.62
								 17.4 274.63 17.46 274.64 C17.51 274.65 17.55 274.67 17.59 274.7 C17.63 274.73 17.66 274.76 17.68
								 274.81 C17.71 274.85 17.73 274.91 17.75 274.97 L18.41 276.78 L18.42 276.78 L19.1 274.98 C19.12 274.91
								 19.14 274.86 19.17 274.81 C19.19 274.76 19.22 274.73 19.25 274.7 C19.28 274.67 19.32 274.65 19.36
								 274.64 C19.41 274.63 19.46 274.62 19.52 274.62 L19.93 274.62 C19.98 274.62 20.01 274.63 20.04 274.64
								 C20.07 274.65 20.1 274.66 20.12 274.69 C20.14 274.71 20.15 274.73 20.16 274.76 C20.17 274.79 20.18
								 274.83 20.18 274.87 L20.18 277.58 L20.18 277.58 ZM24.01 267.85 C24.01 268.29 23.67 268.63 23.23
								 268.63 L18.75 268.63 C18.32 270.39 18.52 270.6 21.55 270.6 L21.55 271.32 L18.02 271.32 L15.45 271.32
								 L12.14 271.32 L12.14 270.6 C14.86 270.6 15.31 270.39 14.88 268.63 L10.46 268.63 C10.03 268.63 9.68
								 268.29 9.68 267.85 L9.68 259.15 C9.68 258.72 10.03 258.36 10.46 258.36 L23.23 258.36 C23.67 258.36
								 24.01 258.72 24.01 259.15 L24.01 267.85 L24.01 267.85 Z" class="st5"/>
				</g>
			</g>
			<g id="group1463-17" transform="translate(210.484,-186.567)">
				<title>Virtual machine.1463</title>
				<g id="shape1464-18" transform="translate(10.6837,-11.7195)">
					<title>Sheet.1464</title>
					<path d="M0 279.35 L12.32 279.35 L12.32 271.09 L0 271.09 L0 279.35 ZM8.87 276.94 L6.56 278.28 L6.56 275.61 L8.87
								 274.27 L8.87 276.94 ZM6.35 272.56 L8.66 273.9 L6.36 275.23 L4.04 273.89 L6.35 272.56 ZM3.81 274.26
								 L6.13 275.59 L6.13 278.28 L3.81 276.94 L3.81 274.26 Z" class="st5"/>
				</g>
				<g id="shape1465-20">
					<title>Sheet.1465</title>
					<path d="M31.19 253.24 L1.44 253.24 C0.65 253.24 0 253.89 0 254.68 L0 277.91 C0 278.71 0.65 279.35 1.44 279.35
								 L31.19 279.35 C31.99 279.35 32.63 278.71 32.63 277.91 L32.63 254.68 C32.63 253.89 31.99 253.24 31.19
								 253.24 ZM16.21 274.86 L15.3 277.55 C15.29 277.58 15.28 277.6 15.27 277.62 C15.26 277.64 15.24 277.65
								 15.21 277.66 C15.18 277.66 15.14 277.67 15.1 277.67 C15.05 277.68 14.98 277.68 14.9 277.68 C14.84
								 277.68 14.79 277.68 14.74 277.68 C14.7 277.67 14.66 277.67 14.63 277.67 C14.6 277.67 14.57 277.66
								 14.55 277.65 C14.53 277.65 14.52 277.64 14.5 277.63 C14.49 277.62 14.48 277.61 14.47 277.6 C14.47
								 277.58 14.46 277.57 14.45 277.55 L13.55 274.85 C13.53 274.8 13.52 274.75 13.51 274.72 C13.51 274.68
								 13.52 274.66 13.54 274.64 C13.56 274.63 13.59 274.62 13.64 274.61 C13.68 274.61 13.75 274.61 13.83
								 274.61 C13.91 274.61 13.96 274.61 14 274.61 C14.04 274.61 14.08 274.62 14.1 274.63 C14.12 274.63
								 14.13 274.65 14.14 274.66 C14.15 274.68 14.16 274.7 14.17 274.72 L14.91 277.07 L14.91 277.07 L15.64
								 274.73 C15.64 274.71 15.65 274.68 15.66 274.67 C15.67 274.65 15.68 274.64 15.71 274.63 C15.73 274.62
								 15.76 274.61 15.8 274.61 C15.85 274.61 15.9 274.61 15.98 274.61 C16.05 274.61 16.11 274.61 16.15
								 274.61 C16.19 274.62 16.21 274.63 16.23 274.65 C16.24 274.67 16.25 274.69 16.24 274.72 C16.24 274.76
								 16.23 274.8 16.21 274.86 ZM20.18 277.58 C20.18 277.59 20.18 277.61 20.17 277.62 C20.16 277.63 20.14
								 277.64 20.12 277.65 C20.1 277.66 20.07 277.67 20.03 277.67 C19.99 277.67 19.94 277.68 19.89 277.68
								 C19.83 277.68 19.78 277.67 19.74 277.67 C19.71 277.67 19.68 277.66 19.66 277.65 C19.63 277.64 19.62
								 277.63 19.61 277.62 C19.6 277.61 19.59 277.59 19.59 277.58 L19.59 275.1 L19.59 275.1 L18.71 277.58
								 C18.7 277.6 18.69 277.61 18.68 277.63 C18.66 277.64 18.64 277.65 18.62 277.66 C18.6 277.67 18.56
								 277.67 18.53 277.67 C18.49 277.68 18.44 277.68 18.39 277.68 C18.34 277.68 18.29 277.68 18.25 277.67
								 C18.22 277.67 18.18 277.66 18.16 277.65 C18.14 277.64 18.12 277.63 18.1 277.62 C18.09 277.61 18.08
								 277.59 18.07 277.58 L17.22 275.1 L17.22 275.1 L17.22 277.58 C17.22 277.59 17.21 277.61 17.21 277.62
								 C17.2 277.63 17.18 277.64 17.16 277.65 C17.13 277.66 17.1 277.67 17.07 277.67 C17.03 277.67 16.98
								 277.68 16.92 277.68 C16.87 277.68 16.82 277.67 16.78 277.67 C16.75 277.67 16.72 277.66 16.69 277.65
								 C16.67 277.64 16.65 277.63 16.65 277.62 C16.64 277.61 16.63 277.59 16.63 277.58 L16.63 274.87 C16.63
								 274.79 16.65 274.73 16.7 274.68 C16.74 274.64 16.79 274.62 16.87 274.62 L17.27 274.62 C17.34 274.62
								 17.4 274.63 17.46 274.64 C17.51 274.65 17.55 274.67 17.59 274.7 C17.63 274.73 17.66 274.76 17.68
								 274.81 C17.71 274.85 17.73 274.91 17.75 274.97 L18.41 276.78 L18.42 276.78 L19.1 274.98 C19.12 274.91
								 19.14 274.86 19.17 274.81 C19.19 274.76 19.22 274.73 19.25 274.7 C19.28 274.67 19.32 274.65 19.36
								 274.64 C19.41 274.63 19.46 274.62 19.52 274.62 L19.93 274.62 C19.98 274.62 20.01 274.63 20.04 274.64
								 C20.07 274.65 20.1 274.66 20.12 274.69 C20.14 274.71 20.15 274.73 20.16 274.76 C20.17 274.79 20.18
								 274.83 20.18 274.87 L20.18 277.58 L20.18 277.58 ZM24.01 267.85 C24.01 268.29 23.67 268.63 23.23
								 268.63 L18.75 268.63 C18.32 270.39 18.52 270.6 21.55 270.6 L21.55 271.32 L18.02 271.32 L15.45 271.32
								 L12.14 271.32 L12.14 270.6 C14.86 270.6 15.31 270.39 14.88 268.63 L10.46 268.63 C10.03 268.63 9.68
								 268.29 9.68 267.85 L9.68 259.15 C9.68 258.72 10.03 258.36 10.46 258.36 L23.23 258.36 C23.67 258.36
								 24.01 258.72 24.01 259.15 L24.01 267.85 L24.01 267.85 Z" class="st5"/>
				</g>
			</g>
			<g id="group1466-22" transform="translate(210.484,-154.317)">
				<title>Virtual machine.1466</title>
				<g id="shape1467-23" transform="translate(10.6837,-11.7195)">
					<title>Sheet.1467</title>
					<path d="M0 279.35 L12.32 279.35 L12.32 271.09 L0 271.09 L0 279.35 ZM8.87 276.94 L6.56 278.28 L6.56 275.61 L8.87
								 274.27 L8.87 276.94 ZM6.35 272.56 L8.66 273.9 L6.36 275.23 L4.04 273.89 L6.35 272.56 ZM3.81 274.26
								 L6.13 275.59 L6.13 278.28 L3.81 276.94 L3.81 274.26 Z" class="st5"/>
				</g>
				<g id="shape1468-25">
					<title>Sheet.1468</title>
					<path d="M31.19 253.24 L1.44 253.24 C0.65 253.24 0 253.89 0 254.68 L0 277.91 C0 278.71 0.65 279.35 1.44 279.35
								 L31.19 279.35 C31.99 279.35 32.63 278.71 32.63 277.91 L32.63 254.68 C32.63 253.89 31.99 253.24 31.19
								 253.24 ZM16.21 274.86 L15.3 277.55 C15.29 277.58 15.28 277.6 15.27 277.62 C15.26 277.64 15.24 277.65
								 15.21 277.66 C15.18 277.66 15.14 277.67 15.1 277.67 C15.05 277.68 14.98 277.68 14.9 277.68 C14.84
								 277.68 14.79 277.68 14.74 277.68 C14.7 277.67 14.66 277.67 14.63 277.67 C14.6 277.67 14.57 277.66
								 14.55 277.65 C14.53 277.65 14.52 277.64 14.5 277.63 C14.49 277.62 14.48 277.61 14.47 277.6 C14.47
								 277.58 14.46 277.57 14.45 277.55 L13.55 274.85 C13.53 274.8 13.52 274.75 13.51 274.72 C13.51 274.68
								 13.52 274.66 13.54 274.64 C13.56 274.63 13.59 274.62 13.64 274.61 C13.68 274.61 13.75 274.61 13.83
								 274.61 C13.91 274.61 13.96 274.61 14 274.61 C14.04 274.61 14.08 274.62 14.1 274.63 C14.12 274.63
								 14.13 274.65 14.14 274.66 C14.15 274.68 14.16 274.7 14.17 274.72 L14.91 277.07 L14.91 277.07 L15.64
								 274.73 C15.64 274.71 15.65 274.68 15.66 274.67 C15.67 274.65 15.68 274.64 15.71 274.63 C15.73 274.62
								 15.76 274.61 15.8 274.61 C15.85 274.61 15.9 274.61 15.98 274.61 C16.05 274.61 16.11 274.61 16.15
								 274.61 C16.19 274.62 16.21 274.63 16.23 274.65 C16.24 274.67 16.25 274.69 16.24 274.72 C16.24 274.76
								 16.23 274.8 16.21 274.86 ZM20.18 277.58 C20.18 277.59 20.18 277.61 20.17 277.62 C20.16 277.63 20.14
								 277.64 20.12 277.65 C20.1 277.66 20.07 277.67 20.03 277.67 C19.99 277.67 19.94 277.68 19.89 277.68
								 C19.83 277.68 19.78 277.67 19.74 277.67 C19.71 277.67 19.68 277.66 19.66 277.65 C19.63 277.64 19.62
								 277.63 19.61 277.62 C19.6 277.61 19.59 277.59 19.59 277.58 L19.59 275.1 L19.59 275.1 L18.71 277.58
								 C18.7 277.6 18.69 277.61 18.68 277.63 C18.66 277.64 18.64 277.65 18.62 277.66 C18.6 277.67 18.56
								 277.67 18.53 277.67 C18.49 277.68 18.44 277.68 18.39 277.68 C18.34 277.68 18.29 277.68 18.25 277.67
								 C18.22 277.67 18.18 277.66 18.16 277.65 C18.14 277.64 18.12 277.63 18.1 277.62 C18.09 277.61 18.08
								 277.59 18.07 277.58 L17.22 275.1 L17.22 275.1 L17.22 277.58 C17.22 277.59 17.21 277.61 17.21 277.62
								 C17.2 277.63 17.18 277.64 17.16 277.65 C17.13 277.66 17.1 277.67 17.07 277.67 C17.03 277.67 16.98
								 277.68 16.92 277.68 C16.87 277.68 16.82 277.67 16.78 277.67 C16.75 277.67 16.72 277.66 16.69 277.65
								 C16.67 277.64 16.65 277.63 16.65 277.62 C16.64 277.61 16.63 277.59 16.63 277.58 L16.63 274.87 C16.63
								 274.79 16.65 274.73 16.7 274.68 C16.74 274.64 16.79 274.62 16.87 274.62 L17.27 274.62 C17.34 274.62
								 17.4 274.63 17.46 274.64 C17.51 274.65 17.55 274.67 17.59 274.7 C17.63 274.73 17.66 274.76 17.68
								 274.81 C17.71 274.85 17.73 274.91 17.75 274.97 L18.41 276.78 L18.42 276.78 L19.1 274.98 C19.12 274.91
								 19.14 274.86 19.17 274.81 C19.19 274.76 19.22 274.73 19.25 274.7 C19.28 274.67 19.32 274.65 19.36
								 274.64 C19.41 274.63 19.46 274.62 19.52 274.62 L19.93 274.62 C19.98 274.62 20.01 274.63 20.04 274.64
								 C20.07 274.65 20.1 274.66 20.12 274.69 C20.14 274.71 20.15 274.73 20.16 274.76 C20.17 274.79 20.18
								 274.83 20.18 274.87 L20.18 277.58 L20.18 277.58 ZM24.01 267.85 C24.01 268.29 23.67 268.63 23.23
								 268.63 L18.75 268.63 C18.32 270.39 18.52 270.6 21.55 270.6 L21.55 271.32 L18.02 271.32 L15.45 271.32
								 L12.14 271.32 L12.14 270.6 C14.86 270.6 15.31 270.39 14.88 268.63 L10.46 268.63 C10.03 268.63 9.68
								 268.29 9.68 267.85 L9.68 259.15 C9.68 258.72 10.03 258.36 10.46 258.36 L23.23 258.36 C23.67 258.36
								 24.01 258.72 24.01 259.15 L24.01 267.85 L24.01 267.85 Z" class="st5"/>
				</g>
			</g>
			<g id="shape1470-27" transform="translate(172.8,-199.619)">
				<title>Sheet.1470</title>
				<path d="M0 279.35 L29.4 279.35" class="st1"/>
			</g>
			<g id="shape1471-32" transform="translate(-13.5934,-128.341) rotate(-41.8544)">
				<title>Sheet.1471</title>
				<path d="M0 279.35 L41.73 279.35" class="st1"/>
			</g>
			<g id="shape1472-37" transform="translate(359.193,-128.341) rotate(41.8544)">
				<title>Sheet.1472</title>
				<path d="M0 279.35 L41.73 279.35" class="st1"/>
			</g>
			<g id="shape1473-42" transform="translate(258.399,-150.429)">
				<title>Sheet.1473</title>
				<rect x="0" y="180.438" width="91.8777" height="98.9118" class="st4"/>
			</g>
			<g id="group1474-44" transform="translate(309.79,-218.816)">
				<title>Virtual machine.1474</title>
				<g id="shape1475-45" transform="translate(10.6837,-11.7195)">
					<title>Sheet.1475</title>
					<path d="M0 279.35 L12.32 279.35 L12.32 271.09 L0 271.09 L0 279.35 ZM8.87 276.94 L6.56 278.28 L6.56 275.61 L8.87
								 274.27 L8.87 276.94 ZM6.35 272.56 L8.66 273.9 L6.36 275.23 L4.04 273.89 L6.35 272.56 ZM3.81 274.26
								 L6.13 275.59 L6.13 278.28 L3.81 276.94 L3.81 274.26 Z" class="st5"/>
				</g>
				<g id="shape1476-47">
					<title>Sheet.1476</title>
					<path d="M31.19 253.24 L1.44 253.24 C0.65 253.24 0 253.89 0 254.68 L0 277.91 C0 278.71 0.65 279.35 1.44 279.35
								 L31.19 279.35 C31.99 279.35 32.63 278.71 32.63 277.91 L32.63 254.68 C32.63 253.89 31.99 253.24 31.19
								 253.24 ZM16.21 274.86 L15.3 277.55 C15.29 277.58 15.28 277.6 15.27 277.62 C15.26 277.64 15.24 277.65
								 15.21 277.66 C15.18 277.66 15.14 277.67 15.1 277.67 C15.05 277.68 14.98 277.68 14.9 277.68 C14.84
								 277.68 14.79 277.68 14.74 277.68 C14.7 277.67 14.66 277.67 14.63 277.67 C14.6 277.67 14.57 277.66
								 14.55 277.65 C14.53 277.65 14.52 277.64 14.5 277.63 C14.49 277.62 14.48 277.61 14.47 277.6 C14.47
								 277.58 14.46 277.57 14.45 277.55 L13.55 274.85 C13.53 274.8 13.52 274.75 13.51 274.72 C13.51 274.68
								 13.52 274.66 13.54 274.64 C13.56 274.63 13.59 274.62 13.64 274.61 C13.68 274.61 13.75 274.61 13.83
								 274.61 C13.91 274.61 13.96 274.61 14 274.61 C14.04 274.61 14.08 274.62 14.1 274.63 C14.12 274.63
								 14.13 274.65 14.14 274.66 C14.15 274.68 14.16 274.7 14.17 274.72 L14.91 277.07 L14.91 277.07 L15.64
								 274.73 C15.64 274.71 15.65 274.68 15.66 274.67 C15.67 274.65 15.68 274.64 15.71 274.63 C15.73 274.62
								 15.76 274.61 15.8 274.61 C15.85 274.61 15.9 274.61 15.98 274.61 C16.05 274.61 16.11 274.61 16.15
								 274.61 C16.19 274.62 16.21 274.63 16.23 274.65 C16.24 274.67 16.25 274.69 16.24 274.72 C16.24 274.76
								 16.23 274.8 16.21 274.86 ZM20.18 277.58 C20.18 277.59 20.18 277.61 20.17 277.62 C20.16 277.63 20.14
								 277.64 20.12 277.65 C20.1 277.66 20.07 277.67 20.03 277.67 C19.99 277.67 19.94 277.68 19.89 277.68
								 C19.83 277.68 19.78 277.67 19.74 277.67 C19.71 277.67 19.68 277.66 19.66 277.65 C19.63 277.64 19.62
								 277.63 19.61 277.62 C19.6 277.61 19.59 277.59 19.59 277.58 L19.59 275.1 L19.59 275.1 L18.71 277.58
								 C18.7 277.6 18.69 277.61 18.68 277.63 C18.66 277.64 18.64 277.65 18.62 277.66 C18.6 277.67 18.56
								 277.67 18.53 277.67 C18.49 277.68 18.44 277.68 18.39 277.68 C18.34 277.68 18.29 277.68 18.25 277.67
								 C18.22 277.67 18.18 277.66 18.16 277.65 C18.14 277.64 18.12 277.63 18.1 277.62 C18.09 277.61 18.08
								 277.59 18.07 277.58 L17.22 275.1 L17.22 275.1 L17.22 277.58 C17.22 277.59 17.21 277.61 17.21 277.62
								 C17.2 277.63 17.18 277.64 17.16 277.65 C17.13 277.66 17.1 277.67 17.07 277.67 C17.03 277.67 16.98
								 277.68 16.92 277.68 C16.87 277.68 16.82 277.67 16.78 277.67 C16.75 277.67 16.72 277.66 16.69 277.65
								 C16.67 277.64 16.65 277.63 16.65 277.62 C16.64 277.61 16.63 277.59 16.63 277.58 L16.63 274.87 C16.63
								 274.79 16.65 274.73 16.7 274.68 C16.74 274.64 16.79 274.62 16.87 274.62 L17.27 274.62 C17.34 274.62
								 17.4 274.63 17.46 274.64 C17.51 274.65 17.55 274.67 17.59 274.7 C17.63 274.73 17.66 274.76 17.68
								 274.81 C17.71 274.85 17.73 274.91 17.75 274.97 L18.41 276.78 L18.42 276.78 L19.1 274.98 C19.12 274.91
								 19.14 274.86 19.17 274.81 C19.19 274.76 19.22 274.73 19.25 274.7 C19.28 274.67 19.32 274.65 19.36
								 274.64 C19.41 274.63 19.46 274.62 19.52 274.62 L19.93 274.62 C19.98 274.62 20.01 274.63 20.04 274.64
								 C20.07 274.65 20.1 274.66 20.12 274.69 C20.14 274.71 20.15 274.73 20.16 274.76 C20.17 274.79 20.18
								 274.83 20.18 274.87 L20.18 277.58 L20.18 277.58 ZM24.01 267.85 C24.01 268.29 23.67 268.63 23.23
								 268.63 L18.75 268.63 C18.32 270.39 18.52 270.6 21.55 270.6 L21.55 271.32 L18.02 271.32 L15.45 271.32
								 L12.14 271.32 L12.14 270.6 C14.86 270.6 15.31 270.39 14.88 268.63 L10.46 268.63 C10.03 268.63 9.68
								 268.29 9.68 267.85 L9.68 259.15 C9.68 258.72 10.03 258.36 10.46 258.36 L23.23 258.36 C23.67 258.36
								 24.01 258.72 24.01 259.15 L24.01 267.85 L24.01 267.85 Z" class="st5"/>
				</g>
			</g>
			<g id="group1477-49" transform="translate(309.79,-186.567)">
				<title>Virtual machine.1477</title>
				<g id="shape1478-50" transform="translate(10.6837,-11.7195)">
					<title>Sheet.1478</title>
					<path d="M0 279.35 L12.32 279.35 L12.32 271.09 L0 271.09 L0 279.35 ZM8.87 276.94 L6.56 278.28 L6.56 275.61 L8.87
								 274.27 L8.87 276.94 ZM6.35 272.56 L8.66 273.9 L6.36 275.23 L4.04 273.89 L6.35 272.56 ZM3.81 274.26
								 L6.13 275.59 L6.13 278.28 L3.81 276.94 L3.81 274.26 Z" class="st5"/>
				</g>
				<g id="shape1479-52">
					<title>Sheet.1479</title>
					<path d="M31.19 253.24 L1.44 253.24 C0.65 253.24 0 253.89 0 254.68 L0 277.91 C0 278.71 0.65 279.35 1.44 279.35
								 L31.19 279.35 C31.99 279.35 32.63 278.71 32.63 277.91 L32.63 254.68 C32.63 253.89 31.99 253.24 31.19
								 253.24 ZM16.21 274.86 L15.3 277.55 C15.29 277.58 15.28 277.6 15.27 277.62 C15.26 277.64 15.24 277.65
								 15.21 277.66 C15.18 277.66 15.14 277.67 15.1 277.67 C15.05 277.68 14.98 277.68 14.9 277.68 C14.84
								 277.68 14.79 277.68 14.74 277.68 C14.7 277.67 14.66 277.67 14.63 277.67 C14.6 277.67 14.57 277.66
								 14.55 277.65 C14.53 277.65 14.52 277.64 14.5 277.63 C14.49 277.62 14.48 277.61 14.47 277.6 C14.47
								 277.58 14.46 277.57 14.45 277.55 L13.55 274.85 C13.53 274.8 13.52 274.75 13.51 274.72 C13.51 274.68
								 13.52 274.66 13.54 274.64 C13.56 274.63 13.59 274.62 13.64 274.61 C13.68 274.61 13.75 274.61 13.83
								 274.61 C13.91 274.61 13.96 274.61 14 274.61 C14.04 274.61 14.08 274.62 14.1 274.63 C14.12 274.63
								 14.13 274.65 14.14 274.66 C14.15 274.68 14.16 274.7 14.17 274.72 L14.91 277.07 L14.91 277.07 L15.64
								 274.73 C15.64 274.71 15.65 274.68 15.66 274.67 C15.67 274.65 15.68 274.64 15.71 274.63 C15.73 274.62
								 15.76 274.61 15.8 274.61 C15.85 274.61 15.9 274.61 15.98 274.61 C16.05 274.61 16.11 274.61 16.15
								 274.61 C16.19 274.62 16.21 274.63 16.23 274.65 C16.24 274.67 16.25 274.69 16.24 274.72 C16.24 274.76
								 16.23 274.8 16.21 274.86 ZM20.18 277.58 C20.18 277.59 20.18 277.61 20.17 277.62 C20.16 277.63 20.14
								 277.64 20.12 277.65 C20.1 277.66 20.07 277.67 20.03 277.67 C19.99 277.67 19.94 277.68 19.89 277.68
								 C19.83 277.68 19.78 277.67 19.74 277.67 C19.71 277.67 19.68 277.66 19.66 277.65 C19.63 277.64 19.62
								 277.63 19.61 277.62 C19.6 277.61 19.59 277.59 19.59 277.58 L19.59 275.1 L19.59 275.1 L18.71 277.58
								 C18.7 277.6 18.69 277.61 18.68 277.63 C18.66 277.64 18.64 277.65 18.62 277.66 C18.6 277.67 18.56
								 277.67 18.53 277.67 C18.49 277.68 18.44 277.68 18.39 277.68 C18.34 277.68 18.29 277.68 18.25 277.67
								 C18.22 277.67 18.18 277.66 18.16 277.65 C18.14 277.64 18.12 277.63 18.1 277.62 C18.09 277.61 18.08
								 277.59 18.07 277.58 L17.22 275.1 L17.22 275.1 L17.22 277.58 C17.22 277.59 17.21 277.61 17.21 277.62
								 C17.2 277.63 17.18 277.64 17.16 277.65 C17.13 277.66 17.1 277.67 17.07 277.67 C17.03 277.67 16.98
								 277.68 16.92 277.68 C16.87 277.68 16.82 277.67 16.78 277.67 C16.75 277.67 16.72 277.66 16.69 277.65
								 C16.67 277.64 16.65 277.63 16.65 277.62 C16.64 277.61 16.63 277.59 16.63 277.58 L16.63 274.87 C16.63
								 274.79 16.65 274.73 16.7 274.68 C16.74 274.64 16.79 274.62 16.87 274.62 L17.27 274.62 C17.34 274.62
								 17.4 274.63 17.46 274.64 C17.51 274.65 17.55 274.67 17.59 274.7 C17.63 274.73 17.66 274.76 17.68
								 274.81 C17.71 274.85 17.73 274.91 17.75 274.97 L18.41 276.78 L18.42 276.78 L19.1 274.98 C19.12 274.91
								 19.14 274.86 19.17 274.81 C19.19 274.76 19.22 274.73 19.25 274.7 C19.28 274.67 19.32 274.65 19.36
								 274.64 C19.41 274.63 19.46 274.62 19.52 274.62 L19.93 274.62 C19.98 274.62 20.01 274.63 20.04 274.64
								 C20.07 274.65 20.1 274.66 20.12 274.69 C20.14 274.71 20.15 274.73 20.16 274.76 C20.17 274.79 20.18
								 274.83 20.18 274.87 L20.18 277.58 L20.18 277.58 ZM24.01 267.85 C24.01 268.29 23.67 268.63 23.23
								 268.63 L18.75 268.63 C18.32 270.39 18.52 270.6 21.55 270.6 L21.55 271.32 L18.02 271.32 L15.45 271.32
								 L12.14 271.32 L12.14 270.6 C14.86 270.6 15.31 270.39 14.88 268.63 L10.46 268.63 C10.03 268.63 9.68
								 268.29 9.68 267.85 L9.68 259.15 C9.68 258.72 10.03 258.36 10.46 258.36 L23.23 258.36 C23.67 258.36
								 24.01 258.72 24.01 259.15 L24.01 267.85 L24.01 267.85 Z" class="st5"/>
				</g>
			</g>
			<g id="group1480-54" transform="translate(309.79,-154.317)">
				<title>Virtual machine.1480</title>
				<g id="shape1481-55" transform="translate(10.6837,-11.7195)">
					<title>Sheet.1481</title>
					<path d="M0 279.35 L12.32 279.35 L12.32 271.09 L0 271.09 L0 279.35 ZM8.87 276.94 L6.56 278.28 L6.56 275.61 L8.87
								 274.27 L8.87 276.94 ZM6.35 272.56 L8.66 273.9 L6.36 275.23 L4.04 273.89 L6.35 272.56 ZM3.81 274.26
								 L6.13 275.59 L6.13 278.28 L3.81 276.94 L3.81 274.26 Z" class="st5"/>
				</g>
				<g id="shape1482-57">
					<title>Sheet.1482</title>
					<path d="M31.19 253.24 L1.44 253.24 C0.65 253.24 0 253.89 0 254.68 L0 277.91 C0 278.71 0.65 279.35 1.44 279.35
								 L31.19 279.35 C31.99 279.35 32.63 278.71 32.63 277.91 L32.63 254.68 C32.63 253.89 31.99 253.24 31.19
								 253.24 ZM16.21 274.86 L15.3 277.55 C15.29 277.58 15.28 277.6 15.27 277.62 C15.26 277.64 15.24 277.65
								 15.21 277.66 C15.18 277.66 15.14 277.67 15.1 277.67 C15.05 277.68 14.98 277.68 14.9 277.68 C14.84
								 277.68 14.79 277.68 14.74 277.68 C14.7 277.67 14.66 277.67 14.63 277.67 C14.6 277.67 14.57 277.66
								 14.55 277.65 C14.53 277.65 14.52 277.64 14.5 277.63 C14.49 277.62 14.48 277.61 14.47 277.6 C14.47
								 277.58 14.46 277.57 14.45 277.55 L13.55 274.85 C13.53 274.8 13.52 274.75 13.51 274.72 C13.51 274.68
								 13.52 274.66 13.54 274.64 C13.56 274.63 13.59 274.62 13.64 274.61 C13.68 274.61 13.75 274.61 13.83
								 274.61 C13.91 274.61 13.96 274.61 14 274.61 C14.04 274.61 14.08 274.62 14.1 274.63 C14.12 274.63
								 14.13 274.65 14.14 274.66 C14.15 274.68 14.16 274.7 14.17 274.72 L14.91 277.07 L14.91 277.07 L15.64
								 274.73 C15.64 274.71 15.65 274.68 15.66 274.67 C15.67 274.65 15.68 274.64 15.71 274.63 C15.73 274.62
								 15.76 274.61 15.8 274.61 C15.85 274.61 15.9 274.61 15.98 274.61 C16.05 274.61 16.11 274.61 16.15
								 274.61 C16.19 274.62 16.21 274.63 16.23 274.65 C16.24 274.67 16.25 274.69 16.24 274.72 C16.24 274.76
								 16.23 274.8 16.21 274.86 ZM20.18 277.58 C20.18 277.59 20.18 277.61 20.17 277.62 C20.16 277.63 20.14
								 277.64 20.12 277.65 C20.1 277.66 20.07 277.67 20.03 277.67 C19.99 277.67 19.94 277.68 19.89 277.68
								 C19.83 277.68 19.78 277.67 19.74 277.67 C19.71 277.67 19.68 277.66 19.66 277.65 C19.63 277.64 19.62
								 277.63 19.61 277.62 C19.6 277.61 19.59 277.59 19.59 277.58 L19.59 275.1 L19.59 275.1 L18.71 277.58
								 C18.7 277.6 18.69 277.61 18.68 277.63 C18.66 277.64 18.64 277.65 18.62 277.66 C18.6 277.67 18.56
								 277.67 18.53 277.67 C18.49 277.68 18.44 277.68 18.39 277.68 C18.34 277.68 18.29 277.68 18.25 277.67
								 C18.22 277.67 18.18 277.66 18.16 277.65 C18.14 277.64 18.12 277.63 18.1 277.62 C18.09 277.61 18.08
								 277.59 18.07 277.58 L17.22 275.1 L17.22 275.1 L17.22 277.58 C17.22 277.59 17.21 277.61 17.21 277.62
								 C17.2 277.63 17.18 277.64 17.16 277.65 C17.13 277.66 17.1 277.67 17.07 277.67 C17.03 277.67 16.98
								 277.68 16.92 277.68 C16.87 277.68 16.82 277.67 16.78 277.67 C16.75 277.67 16.72 277.66 16.69 277.65
								 C16.67 277.64 16.65 277.63 16.65 277.62 C16.64 277.61 16.63 277.59 16.63 277.58 L16.63 274.87 C16.63
								 274.79 16.65 274.73 16.7 274.68 C16.74 274.64 16.79 274.62 16.87 274.62 L17.27 274.62 C17.34 274.62
								 17.4 274.63 17.46 274.64 C17.51 274.65 17.55 274.67 17.59 274.7 C17.63 274.73 17.66 274.76 17.68
								 274.81 C17.71 274.85 17.73 274.91 17.75 274.97 L18.41 276.78 L18.42 276.78 L19.1 274.98 C19.12 274.91
								 19.14 274.86 19.17 274.81 C19.19 274.76 19.22 274.73 19.25 274.7 C19.28 274.67 19.32 274.65 19.36
								 274.64 C19.41 274.63 19.46 274.62 19.52 274.62 L19.93 274.62 C19.98 274.62 20.01 274.63 20.04 274.64
								 C20.07 274.65 20.1 274.66 20.12 274.69 C20.14 274.71 20.15 274.73 20.16 274.76 C20.17 274.79 20.18
								 274.83 20.18 274.87 L20.18 277.58 L20.18 277.58 ZM24.01 267.85 C24.01 268.29 23.67 268.63 23.23
								 268.63 L18.75 268.63 C18.32 270.39 18.52 270.6 21.55 270.6 L21.55 271.32 L18.02 271.32 L15.45 271.32
								 L12.14 271.32 L12.14 270.6 C14.86 270.6 15.31 270.39 14.88 268.63 L10.46 268.63 C10.03 268.63 9.68
								 268.29 9.68 267.85 L9.68 259.15 C9.68 258.72 10.03 258.36 10.46 258.36 L23.23 258.36 C23.67 258.36
								 24.01 258.72 24.01 259.15 L24.01 267.85 L24.01 267.85 Z" class="st5"/>
				</g>
			</g>
			<g id="shape1484-59" transform="translate(244.212,-199.619) rotate(-0.00519493)">
				<title>Sheet.1484</title>
				<path d="M0 279.35 L7.56 279.35" class="st1"/>
			</g>
			<g id="shape1485-64" transform="translate(359.55,-150.429)">
				<title>Sheet.1485</title>
				<rect x="0" y="180.438" width="91.8777" height="98.9118" class="st6"/>
			</g>
			<g id="group1487-66" transform="translate(412.418,-154.317)">
				<title>Virtual machine.1487</title>
				<g id="shape1488-67" transform="translate(10.6837,-11.7195)">
					<title>Sheet.1488</title>
					<path d="M0 279.35 L12.32 279.35 L12.32 271.09 L0 271.09 L0 279.35 ZM8.87 276.94 L6.56 278.28 L6.56 275.61 L8.87
								 274.27 L8.87 276.94 ZM6.35 272.56 L8.66 273.9 L6.36 275.23 L4.04 273.89 L6.35 272.56 ZM3.81 274.26
								 L6.13 275.59 L6.13 278.28 L3.81 276.94 L3.81 274.26 Z" class="st5"/>
				</g>
				<g id="shape1489-69">
					<title>Sheet.1489</title>
					<path d="M31.19 253.24 L1.44 253.24 C0.65 253.24 0 253.89 0 254.68 L0 277.91 C0 278.71 0.65 279.35 1.44 279.35
								 L31.19 279.35 C31.99 279.35 32.63 278.71 32.63 277.91 L32.63 254.68 C32.63 253.89 31.99 253.24 31.19
								 253.24 ZM16.21 274.86 L15.3 277.55 C15.29 277.58 15.28 277.6 15.27 277.62 C15.26 277.64 15.24 277.65
								 15.21 277.66 C15.18 277.66 15.14 277.67 15.1 277.67 C15.05 277.68 14.98 277.68 14.9 277.68 C14.84
								 277.68 14.79 277.68 14.74 277.68 C14.7 277.67 14.66 277.67 14.63 277.67 C14.6 277.67 14.57 277.66
								 14.55 277.65 C14.53 277.65 14.52 277.64 14.5 277.63 C14.49 277.62 14.48 277.61 14.47 277.6 C14.47
								 277.58 14.46 277.57 14.45 277.55 L13.55 274.85 C13.53 274.8 13.52 274.75 13.51 274.72 C13.51 274.68
								 13.52 274.66 13.54 274.64 C13.56 274.63 13.59 274.62 13.64 274.61 C13.68 274.61 13.75 274.61 13.83
								 274.61 C13.91 274.61 13.96 274.61 14 274.61 C14.04 274.61 14.08 274.62 14.1 274.63 C14.12 274.63
								 14.13 274.65 14.14 274.66 C14.15 274.68 14.16 274.7 14.17 274.72 L14.91 277.07 L14.91 277.07 L15.64
								 274.73 C15.64 274.71 15.65 274.68 15.66 274.67 C15.67 274.65 15.68 274.64 15.71 274.63 C15.73 274.62
								 15.76 274.61 15.8 274.61 C15.85 274.61 15.9 274.61 15.98 274.61 C16.05 274.61 16.11 274.61 16.15
								 274.61 C16.19 274.62 16.21 274.63 16.23 274.65 C16.24 274.67 16.25 274.69 16.24 274.72 C16.24 274.76
								 16.23 274.8 16.21 274.86 ZM20.18 277.58 C20.18 277.59 20.18 277.61 20.17 277.62 C20.16 277.63 20.14
								 277.64 20.12 277.65 C20.1 277.66 20.07 277.67 20.03 277.67 C19.99 277.67 19.94 277.68 19.89 277.68
								 C19.83 277.68 19.78 277.67 19.74 277.67 C19.71 277.67 19.68 277.66 19.66 277.65 C19.63 277.64 19.62
								 277.63 19.61 277.62 C19.6 277.61 19.59 277.59 19.59 277.58 L19.59 275.1 L19.59 275.1 L18.71 277.58
								 C18.7 277.6 18.69 277.61 18.68 277.63 C18.66 277.64 18.64 277.65 18.62 277.66 C18.6 277.67 18.56
								 277.67 18.53 277.67 C18.49 277.68 18.44 277.68 18.39 277.68 C18.34 277.68 18.29 277.68 18.25 277.67
								 C18.22 277.67 18.18 277.66 18.16 277.65 C18.14 277.64 18.12 277.63 18.1 277.62 C18.09 277.61 18.08
								 277.59 18.07 277.58 L17.22 275.1 L17.22 275.1 L17.22 277.58 C17.22 277.59 17.21 277.61 17.21 277.62
								 C17.2 277.63 17.18 277.64 17.16 277.65 C17.13 277.66 17.1 277.67 17.07 277.67 C17.03 277.67 16.98
								 277.68 16.92 277.68 C16.87 277.68 16.82 277.67 16.78 277.67 C16.75 277.67 16.72 277.66 16.69 277.65
								 C16.67 277.64 16.65 277.63 16.65 277.62 C16.64 277.61 16.63 277.59 16.63 277.58 L16.63 274.87 C16.63
								 274.79 16.65 274.73 16.7 274.68 C16.74 274.64 16.79 274.62 16.87 274.62 L17.27 274.62 C17.34 274.62
								 17.4 274.63 17.46 274.64 C17.51 274.65 17.55 274.67 17.59 274.7 C17.63 274.73 17.66 274.76 17.68
								 274.81 C17.71 274.85 17.73 274.91 17.75 274.97 L18.41 276.78 L18.42 276.78 L19.1 274.98 C19.12 274.91
								 19.14 274.86 19.17 274.81 C19.19 274.76 19.22 274.73 19.25 274.7 C19.28 274.67 19.32 274.65 19.36
								 274.64 C19.41 274.63 19.46 274.62 19.52 274.62 L19.93 274.62 C19.98 274.62 20.01 274.63 20.04 274.64
								 C20.07 274.65 20.1 274.66 20.12 274.69 C20.14 274.71 20.15 274.73 20.16 274.76 C20.17 274.79 20.18
								 274.83 20.18 274.87 L20.18 277.58 L20.18 277.58 ZM24.01 267.85 C24.01 268.29 23.67 268.63 23.23
								 268.63 L18.75 268.63 C18.32 270.39 18.52 270.6 21.55 270.6 L21.55 271.32 L18.02 271.32 L15.45 271.32
								 L12.14 271.32 L12.14 270.6 C14.86 270.6 15.31 270.39 14.88 268.63 L10.46 268.63 C10.03 268.63 9.68
								 268.29 9.68 267.85 L9.68 259.15 C9.68 258.72 10.03 258.36 10.46 258.36 L23.23 258.36 C23.67 258.36
								 24.01 258.72 24.01 259.15 L24.01 267.85 L24.01 267.85 Z" class="st5"/>
				</g>
			</g>
			<g id="group1490-71" transform="translate(522.856,-127.929)">
				<title>Sheet.1490</title>
				<g id="shape1491-72">
					<title>Sheet.1491</title>
					<rect x="0" y="269.964" width="17.325" height="9.3862" class="st7"/>
				</g>
				<g id="group1492-74">
					<title>Virtual Network</title>
					<g id="shape1493-75" transform="translate(12.0617,0)">
						<title>Sheet.1493</title>
						<path d="M5.26 274.66 L4.21 273.6 L0.57 269.96 L0 270.58 L4.08 274.66 L0 278.74 L0.57 279.35 L4.21 275.71
									 L5.26 274.66 Z" class="st5"/>
					</g>
					<g id="shape1494-77">
						<title>Sheet.1494</title>
						<path d="M0 274.66 L1.05 273.6 L4.69 269.96 L5.26 270.58 L1.18 274.66 L5.26 278.74 L4.69 279.35 L1.05 275.71
									 L0 274.66 Z" class="st5"/>
					</g>
					<g id="shape1495-79" transform="translate(4.4738,-3.64044)">
						<title>Sheet.1495</title>
						<path d="M2.11 278.3 C2.11 278.87 1.62 279.35 1.05 279.35 C0.44 279.35 0 278.87 0 278.3 C0 277.73 0.48 277.24
									 1.05 277.24 C1.62 277.24 2.11 277.68 2.11 278.3 Z" class="st5"/>
					</g>
					<g id="shape1496-81" transform="translate(7.63177,-3.64044)">
						<title>Sheet.1496</title>
						<ellipse cx="1.05266" cy="278.297" rx="1.05266" ry="1.05266" class="st5"/>
					</g>
					<g id="shape1497-83" transform="translate(10.7897,-3.64044)">
						<title>Sheet.1497</title>
						<ellipse cx="1.05266" cy="278.297" rx="1.05266" ry="1.05266" class="st5"/>
					</g>
				</g>
			</g>
			<g id="group1498-85" transform="translate(258.399,-183.208)">
				<title>Sheet.1498</title>
				<g id="shape1499-86">
					<title>Sheet.1499</title>
					<path d="M31.91 260.78 L18.57 247.44 C17.98 246.85 17.26 246.53 16.41 246.53 C15.63 246.53 14.84 246.85 14.25
								 247.44 L0.92 260.78 C0.33 261.37 0 262.09 0 262.94 C0 263.72 0.33 264.51 0.92 265.1 L14.25 278.43
								 C14.84 279.02 15.56 279.35 16.41 279.35 C17.2 279.35 17.98 279.02 18.57 278.43 L31.91 265.1 C32.5
								 264.51 32.82 263.79 32.82 262.94 C32.76 262.09 32.43 261.3 31.91 260.78 ZM25.57 266.99 L25.57 263.98
								 L20.99 263.98 C20.53 265.55 19.29 266.8 17.72 267.25 L17.72 270.33 C18.37 270.78 19.35 271.83 19.35
								 272.94 C19.35 274.58 18.05 275.88 16.41 275.88 C14.78 275.88 13.47 274.58 13.47 272.94 C13.47 271.77
								 14.45 270.78 15.1 270.33 L15.1 267.32 C13.53 266.86 12.29 265.62 11.83 264.05 L7.26 264.05 L7.26
								 267.12 L2.94 262.81 L7.26 258.49 L7.26 261.5 L11.83 261.5 C12.29 259.93 13.53 258.69 15.1 258.23
								 L15.1 253.85 L12.1 253.85 L16.41 249.53 L20.73 253.85 L17.72 253.85 L17.72 258.23 C19.29 258.69
								 20.53 259.93 20.99 261.5 L25.57 261.5 L25.57 258.43 L29.88 262.74 L25.57 266.99 Z" class="st5"/>
				</g>
				<g id="shape1500-88" transform="translate(12.9462,-13.2077)">
					<title>Sheet.1500</title>
					<path d="M3.47 272.42 C1.57 272.42 0 273.99 0 275.88 C0 277.78 1.57 279.35 3.47 279.35 C5.36 279.35 6.93 277.78
								 6.93 275.88 C6.93 273.99 5.36 272.42 3.47 272.42 Z" class="st5"/>
				</g>
			</g>
			<g id="group1501-90" transform="translate(138.388,-183.208)">
				<title>Sheet.1501</title>
				<g id="shape1502-91">
					<title>Sheet.1502</title>
					<path d="M31.91 260.78 L18.57 247.44 C17.98 246.85 17.26 246.53 16.41 246.53 C15.63 246.53 14.84 246.85 14.25
								 247.44 L0.92 260.78 C0.33 261.37 0 262.09 0 262.94 C0 263.72 0.33 264.51 0.92 265.1 L14.25 278.43
								 C14.84 279.02 15.56 279.35 16.41 279.35 C17.2 279.35 17.98 279.02 18.57 278.43 L31.91 265.1 C32.5
								 264.51 32.82 263.79 32.82 262.94 C32.76 262.09 32.43 261.3 31.91 260.78 ZM25.57 266.99 L25.57 263.98
								 L20.99 263.98 C20.53 265.55 19.29 266.8 17.72 267.25 L17.72 270.33 C18.37 270.78 19.35 271.83 19.35
								 272.94 C19.35 274.58 18.05 275.88 16.41 275.88 C14.78 275.88 13.47 274.58 13.47 272.94 C13.47 271.77
								 14.45 270.78 15.1 270.33 L15.1 267.32 C13.53 266.86 12.29 265.62 11.83 264.05 L7.26 264.05 L7.26
								 267.12 L2.94 262.81 L7.26 258.49 L7.26 261.5 L11.83 261.5 C12.29 259.93 13.53 258.69 15.1 258.23
								 L15.1 253.85 L12.1 253.85 L16.41 249.53 L20.73 253.85 L17.72 253.85 L17.72 258.23 C19.29 258.69
								 20.53 259.93 20.99 261.5 L25.57 261.5 L25.57 258.43 L29.88 262.74 L25.57 266.99 Z" class="st5"/>
				</g>
				<g id="shape1503-93" transform="translate(12.9462,-13.2077)">
					<title>Sheet.1503</title>
					<path d="M3.47 272.42 C1.57 272.42 0 273.99 0 275.88 C0 277.78 1.57 279.35 3.47 279.35 C5.36 279.35 6.93 277.78
								 6.93 275.88 C6.93 273.99 5.36 272.42 3.47 272.42 Z" class="st5"/>
				</g>
			</g>
			<g id="group1504-95" transform="translate(359.952,-183.208)">
				<title>Sheet.1504</title>
				<g id="shape1505-96">
					<title>Sheet.1505</title>
					<path d="M31.91 260.78 L18.57 247.44 C17.98 246.85 17.26 246.53 16.41 246.53 C15.63 246.53 14.84 246.85 14.25
								 247.44 L0.92 260.78 C0.33 261.37 0 262.09 0 262.94 C0 263.72 0.33 264.51 0.92 265.1 L14.25 278.43
								 C14.84 279.02 15.56 279.35 16.41 279.35 C17.2 279.35 17.98 279.02 18.57 278.43 L31.91 265.1 C32.5
								 264.51 32.82 263.79 32.82 262.94 C32.76 262.09 32.43 261.3 31.91 260.78 ZM25.57 266.99 L25.57 263.98
								 L20.99 263.98 C20.53 265.55 19.29 266.8 17.72 267.25 L17.72 270.33 C18.37 270.78 19.35 271.83 19.35
								 272.94 C19.35 274.58 18.05 275.88 16.41 275.88 C14.78 275.88 13.47 274.58 13.47 272.94 C13.47 271.77
								 14.45 270.78 15.1 270.33 L15.1 267.32 C13.53 266.86 12.29 265.62 11.83 264.05 L7.26 264.05 L7.26
								 267.12 L2.94 262.81 L7.26 258.49 L7.26 261.5 L11.83 261.5 C12.29 259.93 13.53 258.69 15.1 258.23
								 L15.1 253.85 L12.1 253.85 L16.41 249.53 L20.73 253.85 L17.72 253.85 L17.72 258.23 C19.29 258.69
								 20.53 259.93 20.99 261.5 L25.57 261.5 L25.57 258.43 L29.88 262.74 L25.57 266.99 Z" class="st5"/>
				</g>
				<g id="shape1506-98" transform="translate(12.9462,-13.2077)">
					<title>Sheet.1506</title>
					<path d="M3.47 272.42 C1.57 272.42 0 273.99 0 275.88 C0 277.78 1.57 279.35 3.47 279.35 C5.36 279.35 6.93 277.78
								 6.93 275.88 C6.93 273.99 5.36 272.42 3.47 272.42 Z" class="st5"/>
				</g>
			</g>
			<g id="group1507-100" transform="translate(412.419,-186.732)">
				<title>Sheet.1507</title>
				<g id="shape1508-101">
					<title>Sheet.1508</title>
					<path d="M32.55 255.39 C32.55 255.97 32.63 254.15 32.13 253.66 C31.88 253.41 31.55 253.24 31.3 253.24 C31.22
								 253.24 31.13 253.24 31.05 253.24 L1.42 253.24 C0.67 253.24 0 253.99 0 254.9 L0 277.7 C-0 278.61
								 0.58 279.35 1.42 279.35 L31.13 279.35 C31.88 279.35 32.55 278.61 32.55 277.7 L32.55 255.39 Z"
							class="st5"/>
				</g>
				<g id="group1509-103" transform="translate(8.75016,-3.14601)">
					<title>Database server.847</title>
					<g id="shape1510-104" transform="translate(7.32101,0)">
						<title>Sheet.1510</title>
						<path d="M3.9 270.71 C2.4 270.71 0.81 270.41 0 269.77 L0 277.59 C0 278.56 1.75 279.35 3.9 279.35 C6.06 279.35
									 7.81 278.56 7.81 277.59 L7.81 269.77 C6.99 270.41 5.41 270.71 3.9 270.71 Z" class="st8"/>
					</g>
					<g id="shape1511-106" transform="translate(7.32101,-9.19563)">
						<title>Sheet.1511</title>
						<path d="M7.81 277.96 C7.81 277.19 6.06 276.56 3.9 276.56 C1.75 276.56 0 277.19 0 277.96 C0 278.73 1.75 279.35
									 3.9 279.35 C6.06 279.35 7.81 278.73 7.81 277.96 Z" class="st8"/>
					</g>
					<g id="shape1512-108" transform="translate(0,-0.000484414)">
						<title>Sheet.1512</title>
						<path d="M6.34 274.51 L6.34 269.77 L6.34 268.9 L6.34 268.76 C6.34 267.46 7.9 266.74 9.76 266.49 L9.76 260.43
									 C9.76 259.91 9.32 259.49 8.79 259.49 L0.98 259.49 C0.44 259.49 0 259.91 0 260.43 L0 279.35 L7.41
									 279.35 C6.73 278.89 6.34 278.28 6.34 277.59 L6.34 277.41 L1.46 277.41 L1.46 276.44 L6.34 276.44
									 L6.34 275.47 L1.46 275.47 L1.46 274.51 L6.34 274.51 L6.34 274.51 ZM1.46 262.4 L8.3 262.4 L8.3
									 263.36 L1.46 263.36 L1.46 262.4 Z" class="st8"/>
					</g>
				</g>
			</g>
			<g id="group1513-110" transform="translate(412.419,-218.981)">
				<title>Sheet.1513</title>
				<g id="shape1514-111">
					<title>Sheet.1514</title>
					<path d="M32.55 255.39 C32.55 255.97 32.63 254.15 32.13 253.66 C31.88 253.41 31.55 253.24 31.3 253.24 C31.22
								 253.24 31.13 253.24 31.05 253.24 L1.42 253.24 C0.67 253.24 0 253.99 0 254.9 L0 277.7 C-0 278.61
								 0.58 279.35 1.42 279.35 L31.13 279.35 C31.88 279.35 32.55 278.61 32.55 277.7 L32.55 255.39 Z"
							class="st5"/>
				</g>
				<g id="group1515-113" transform="translate(8.75016,-3.14601)">
					<title>Database server.847</title>
					<g id="shape1516-114" transform="translate(7.32101,0)">
						<title>Sheet.1516</title>
						<path d="M3.9 270.71 C2.4 270.71 0.81 270.41 0 269.77 L0 277.59 C0 278.56 1.75 279.35 3.9 279.35 C6.06 279.35
									 7.81 278.56 7.81 277.59 L7.81 269.77 C6.99 270.41 5.41 270.71 3.9 270.71 Z" class="st8"/>
					</g>
					<g id="shape1517-116" transform="translate(7.32101,-9.19563)">
						<title>Sheet.1517</title>
						<path d="M7.81 277.96 C7.81 277.19 6.06 276.56 3.9 276.56 C1.75 276.56 0 277.19 0 277.96 C0 278.73 1.75 279.35
									 3.9 279.35 C6.06 279.35 7.81 278.73 7.81 277.96 Z" class="st8"/>
					</g>
					<g id="shape1518-118" transform="translate(0,-0.000484414)">
						<title>Sheet.1518</title>
						<path d="M6.34 274.51 L6.34 269.77 L6.34 268.9 L6.34 268.76 C6.34 267.46 7.9 266.74 9.76 266.49 L9.76 260.43
									 C9.76 259.91 9.32 259.49 8.79 259.49 L0.98 259.49 C0.44 259.49 0 259.91 0 260.43 L0 279.35 L7.41
									 279.35 C6.73 278.89 6.34 278.28 6.34 277.59 L6.34 277.41 L1.46 277.41 L1.46 276.44 L6.34 276.44
									 L6.34 275.47 L1.46 275.47 L1.46 274.51 L6.34 274.51 L6.34 274.51 ZM1.46 262.4 L8.3 262.4 L8.3
									 263.36 L1.46 263.36 L1.46 262.4 Z" class="st8"/>
					</g>
				</g>
			</g>
			<g id="shape1519-120" transform="translate(342.936,-200.085)">
				<title>Sheet.1519</title>
				<path d="M0 279.35 L8.89 279.35" class="st1"/>
			</g>
			<g id="group1520-125" transform="translate(291.178,-167.37)">
				<title>Sheet.1520</title>
				<g id="shape1521-126" transform="translate(3.81482E-13,-32.2492)">
					<title>Sheet.1521</title>
					<path d="M0 279.35 L10.33 279.35" class="st1"/>
				</g>
				<g id="shape1522-131" transform="translate(-247.344,117.264) rotate(-62.3039)">
					<title>Sheet.1522</title>
					<path d="M0 279.35 L29.82 279.35" class="st1"/>
				</g>
				<g id="shape1523-136" transform="translate(247.344,117.264) rotate(62.3039)">
					<title>Sheet.1523</title>
					<path d="M0 279.35 L29.82 279.35" class="st1"/>
				</g>
			</g>
			<g id="shape1524-141" transform="translate(394.686,-199.619)">
				<title>Sheet.1524</title>
				<path d="M0 279.35 L10.33 279.35" class="st1"/>
			</g>
			<g id="shape1525-146" transform="translate(147.343,-50.1059) rotate(-62.3039)">
				<title>Sheet.1525</title>
				<path d="M0 279.35 L29.82 279.35" class="st1"/>
			</g>
			<g id="group1529-151" transform="translate(136.8,-41.5823)">
				<title>Sheet.1529</title>
				<g id="shape1530-152">
					<title>Sheet.1530</title>
					<path d="M31.91 260.78 L18.57 247.44 C17.98 246.85 17.26 246.53 16.41 246.53 C15.63 246.53 14.84 246.85 14.25
								 247.44 L0.92 260.78 C0.33 261.37 0 262.09 0 262.94 C0 263.72 0.33 264.51 0.92 265.1 L14.25 278.43
								 C14.84 279.02 15.56 279.35 16.41 279.35 C17.2 279.35 17.98 279.02 18.57 278.43 L31.91 265.1 C32.5
								 264.51 32.82 263.79 32.82 262.94 C32.76 262.09 32.43 261.3 31.91 260.78 ZM25.57 266.99 L25.57 263.98
								 L20.99 263.98 C20.53 265.55 19.29 266.8 17.72 267.25 L17.72 270.33 C18.37 270.78 19.35 271.83 19.35
								 272.94 C19.35 274.58 18.05 275.88 16.41 275.88 C14.78 275.88 13.47 274.58 13.47 272.94 C13.47 271.77
								 14.45 270.78 15.1 270.33 L15.1 267.32 C13.53 266.86 12.29 265.62 11.83 264.05 L7.26 264.05 L7.26
								 267.12 L2.94 262.81 L7.26 258.49 L7.26 261.5 L11.83 261.5 C12.29 259.93 13.53 258.69 15.1 258.23
								 L15.1 253.85 L12.1 253.85 L16.41 249.53 L20.73 253.85 L17.72 253.85 L17.72 258.23 C19.29 258.69
								 20.53 259.93 20.99 261.5 L25.57 261.5 L25.57 258.43 L29.88 262.74 L25.57 266.99 Z" class="st5"/>
				</g>
				<g id="shape1531-154" transform="translate(12.9462,-13.2077)">
					<title>Sheet.1531</title>
					<path d="M3.47 272.42 C1.57 272.42 0 273.99 0 275.88 C0 277.78 1.57 279.35 3.47 279.35 C5.36 279.35 6.93 277.78
								 6.93 275.88 C6.93 273.99 5.36 272.42 3.47 272.42 Z" class="st5"/>
				</g>
			</g>
			<g id="shape1532-156" transform="translate(118.8,-57.9939)">
				<title>Sheet.1532</title>
				<path d="M0 279.35 L13 279.35" class="st1"/>
			</g>
			<g id="shape1533-161" transform="translate(-160.55,220.328) rotate(-90)">
				<title>Sheet.1533</title>
				<path d="M0 279.35 L140.62 279.35" class="st9"/>
			</g>
			<g id="shape1534-164" transform="translate(178.966,-4.74106)">
				<title>Virtual Network Box.1534</title>
				<path d="M0 279.35 L366.82 279.35 L366.82 162.77 L0 162.77 L0 279.35 Z" class="st3"/>
			</g>
			<g id="shape1535-166" transform="translate(185.387,-8.49388)">
				<title>Sheet.1535</title>
				<rect x="0" y="180.912" width="63" height="98.4375" class="st4"/>
			</g>
			<g id="group1536-168" transform="translate(209.57,-77.3998)">
				<title>Virtual machine.1536</title>
				<g id="shape1537-169" transform="translate(10.6837,-11.7195)">
					<title>Sheet.1537</title>
					<path d="M0 279.35 L12.32 279.35 L12.32 271.09 L0 271.09 L0 279.35 ZM8.87 276.94 L6.56 278.28 L6.56 275.61 L8.87
								 274.27 L8.87 276.94 ZM6.35 272.56 L8.66 273.9 L6.36 275.23 L4.04 273.89 L6.35 272.56 ZM3.81 274.26
								 L6.13 275.59 L6.13 278.28 L3.81 276.94 L3.81 274.26 Z" class="st5"/>
				</g>
				<g id="shape1538-171">
					<title>Sheet.1538</title>
					<path d="M31.19 253.24 L1.44 253.24 C0.65 253.24 0 253.89 0 254.68 L0 277.91 C0 278.71 0.65 279.35 1.44 279.35
								 L31.19 279.35 C31.99 279.35 32.63 278.71 32.63 277.91 L32.63 254.68 C32.63 253.89 31.99 253.24 31.19
								 253.24 ZM16.21 274.86 L15.3 277.55 C15.29 277.58 15.28 277.6 15.27 277.62 C15.26 277.64 15.24 277.65
								 15.21 277.66 C15.18 277.66 15.14 277.67 15.1 277.67 C15.05 277.68 14.98 277.68 14.9 277.68 C14.84
								 277.68 14.79 277.68 14.74 277.68 C14.7 277.67 14.66 277.67 14.63 277.67 C14.6 277.67 14.57 277.66
								 14.55 277.65 C14.53 277.65 14.52 277.64 14.5 277.63 C14.49 277.62 14.48 277.61 14.47 277.6 C14.47
								 277.58 14.46 277.57 14.45 277.55 L13.55 274.85 C13.53 274.8 13.52 274.75 13.51 274.72 C13.51 274.68
								 13.52 274.66 13.54 274.64 C13.56 274.63 13.59 274.62 13.64 274.61 C13.68 274.61 13.75 274.61 13.83
								 274.61 C13.91 274.61 13.96 274.61 14 274.61 C14.04 274.61 14.08 274.62 14.1 274.63 C14.12 274.63
								 14.13 274.65 14.14 274.66 C14.15 274.68 14.16 274.7 14.17 274.72 L14.91 277.07 L14.91 277.07 L15.64
								 274.73 C15.64 274.71 15.65 274.68 15.66 274.67 C15.67 274.65 15.68 274.64 15.71 274.63 C15.73 274.62
								 15.76 274.61 15.8 274.61 C15.85 274.61 15.9 274.61 15.98 274.61 C16.05 274.61 16.11 274.61 16.15
								 274.61 C16.19 274.62 16.21 274.63 16.23 274.65 C16.24 274.67 16.25 274.69 16.24 274.72 C16.24 274.76
								 16.23 274.8 16.21 274.86 ZM20.18 277.58 C20.18 277.59 20.18 277.61 20.17 277.62 C20.16 277.63 20.14
								 277.64 20.12 277.65 C20.1 277.66 20.07 277.67 20.03 277.67 C19.99 277.67 19.94 277.68 19.89 277.68
								 C19.83 277.68 19.78 277.67 19.74 277.67 C19.71 277.67 19.68 277.66 19.66 277.65 C19.63 277.64 19.62
								 277.63 19.61 277.62 C19.6 277.61 19.59 277.59 19.59 277.58 L19.59 275.1 L19.59 275.1 L18.71 277.58
								 C18.7 277.6 18.69 277.61 18.68 277.63 C18.66 277.64 18.64 277.65 18.62 277.66 C18.6 277.67 18.56
								 277.67 18.53 277.67 C18.49 277.68 18.44 277.68 18.39 277.68 C18.34 277.68 18.29 277.68 18.25 277.67
								 C18.22 277.67 18.18 277.66 18.16 277.65 C18.14 277.64 18.12 277.63 18.1 277.62 C18.09 277.61 18.08
								 277.59 18.07 277.58 L17.22 275.1 L17.22 275.1 L17.22 277.58 C17.22 277.59 17.21 277.61 17.21 277.62
								 C17.2 277.63 17.18 277.64 17.16 277.65 C17.13 277.66 17.1 277.67 17.07 277.67 C17.03 277.67 16.98
								 277.68 16.92 277.68 C16.87 277.68 16.82 277.67 16.78 277.67 C16.75 277.67 16.72 277.66 16.69 277.65
								 C16.67 277.64 16.65 277.63 16.65 277.62 C16.64 277.61 16.63 277.59 16.63 277.58 L16.63 274.87 C16.63
								 274.79 16.65 274.73 16.7 274.68 C16.74 274.64 16.79 274.62 16.87 274.62 L17.27 274.62 C17.34 274.62
								 17.4 274.63 17.46 274.64 C17.51 274.65 17.55 274.67 17.59 274.7 C17.63 274.73 17.66 274.76 17.68
								 274.81 C17.71 274.85 17.73 274.91 17.75 274.97 L18.41 276.78 L18.42 276.78 L19.1 274.98 C19.12 274.91
								 19.14 274.86 19.17 274.81 C19.19 274.76 19.22 274.73 19.25 274.7 C19.28 274.67 19.32 274.65 19.36
								 274.64 C19.41 274.63 19.46 274.62 19.52 274.62 L19.93 274.62 C19.98 274.62 20.01 274.63 20.04 274.64
								 C20.07 274.65 20.1 274.66 20.12 274.69 C20.14 274.71 20.15 274.73 20.16 274.76 C20.17 274.79 20.18
								 274.83 20.18 274.87 L20.18 277.58 L20.18 277.58 ZM24.01 267.85 C24.01 268.29 23.67 268.63 23.23
								 268.63 L18.75 268.63 C18.32 270.39 18.52 270.6 21.55 270.6 L21.55 271.32 L18.02 271.32 L15.45 271.32
								 L12.14 271.32 L12.14 270.6 C14.86 270.6 15.31 270.39 14.88 268.63 L10.46 268.63 C10.03 268.63 9.68
								 268.29 9.68 267.85 L9.68 259.15 C9.68 258.72 10.03 258.36 10.46 258.36 L23.23 258.36 C23.67 258.36
								 24.01 258.72 24.01 259.15 L24.01 267.85 L24.01 267.85 Z" class="st5"/>
				</g>
			</g>
			<g id="group1539-173" transform="translate(209.57,-45.1506)">
				<title>Virtual machine.1539</title>
				<g id="shape1540-174" transform="translate(10.6837,-11.7195)">
					<title>Sheet.1540</title>
					<path d="M0 279.35 L12.32 279.35 L12.32 271.09 L0 271.09 L0 279.35 ZM8.87 276.94 L6.56 278.28 L6.56 275.61 L8.87
								 274.27 L8.87 276.94 ZM6.35 272.56 L8.66 273.9 L6.36 275.23 L4.04 273.89 L6.35 272.56 ZM3.81 274.26
								 L6.13 275.59 L6.13 278.28 L3.81 276.94 L3.81 274.26 Z" class="st5"/>
				</g>
				<g id="shape1541-176">
					<title>Sheet.1541</title>
					<path d="M31.19 253.24 L1.44 253.24 C0.65 253.24 0 253.89 0 254.68 L0 277.91 C0 278.71 0.65 279.35 1.44 279.35
								 L31.19 279.35 C31.99 279.35 32.63 278.71 32.63 277.91 L32.63 254.68 C32.63 253.89 31.99 253.24 31.19
								 253.24 ZM16.21 274.86 L15.3 277.55 C15.29 277.58 15.28 277.6 15.27 277.62 C15.26 277.64 15.24 277.65
								 15.21 277.66 C15.18 277.66 15.14 277.67 15.1 277.67 C15.05 277.68 14.98 277.68 14.9 277.68 C14.84
								 277.68 14.79 277.68 14.74 277.68 C14.7 277.67 14.66 277.67 14.63 277.67 C14.6 277.67 14.57 277.66
								 14.55 277.65 C14.53 277.65 14.52 277.64 14.5 277.63 C14.49 277.62 14.48 277.61 14.47 277.6 C14.47
								 277.58 14.46 277.57 14.45 277.55 L13.55 274.85 C13.53 274.8 13.52 274.75 13.51 274.72 C13.51 274.68
								 13.52 274.66 13.54 274.64 C13.56 274.63 13.59 274.62 13.64 274.61 C13.68 274.61 13.75 274.61 13.83
								 274.61 C13.91 274.61 13.96 274.61 14 274.61 C14.04 274.61 14.08 274.62 14.1 274.63 C14.12 274.63
								 14.13 274.65 14.14 274.66 C14.15 274.68 14.16 274.7 14.17 274.72 L14.91 277.07 L14.91 277.07 L15.64
								 274.73 C15.64 274.71 15.65 274.68 15.66 274.67 C15.67 274.65 15.68 274.64 15.71 274.63 C15.73 274.62
								 15.76 274.61 15.8 274.61 C15.85 274.61 15.9 274.61 15.98 274.61 C16.05 274.61 16.11 274.61 16.15
								 274.61 C16.19 274.62 16.21 274.63 16.23 274.65 C16.24 274.67 16.25 274.69 16.24 274.72 C16.24 274.76
								 16.23 274.8 16.21 274.86 ZM20.18 277.58 C20.18 277.59 20.18 277.61 20.17 277.62 C20.16 277.63 20.14
								 277.64 20.12 277.65 C20.1 277.66 20.07 277.67 20.03 277.67 C19.99 277.67 19.94 277.68 19.89 277.68
								 C19.83 277.68 19.78 277.67 19.74 277.67 C19.71 277.67 19.68 277.66 19.66 277.65 C19.63 277.64 19.62
								 277.63 19.61 277.62 C19.6 277.61 19.59 277.59 19.59 277.58 L19.59 275.1 L19.59 275.1 L18.71 277.58
								 C18.7 277.6 18.69 277.61 18.68 277.63 C18.66 277.64 18.64 277.65 18.62 277.66 C18.6 277.67 18.56
								 277.67 18.53 277.67 C18.49 277.68 18.44 277.68 18.39 277.68 C18.34 277.68 18.29 277.68 18.25 277.67
								 C18.22 277.67 18.18 277.66 18.16 277.65 C18.14 277.64 18.12 277.63 18.1 277.62 C18.09 277.61 18.08
								 277.59 18.07 277.58 L17.22 275.1 L17.22 275.1 L17.22 277.58 C17.22 277.59 17.21 277.61 17.21 277.62
								 C17.2 277.63 17.18 277.64 17.16 277.65 C17.13 277.66 17.1 277.67 17.07 277.67 C17.03 277.67 16.98
								 277.68 16.92 277.68 C16.87 277.68 16.82 277.67 16.78 277.67 C16.75 277.67 16.72 277.66 16.69 277.65
								 C16.67 277.64 16.65 277.63 16.65 277.62 C16.64 277.61 16.63 277.59 16.63 277.58 L16.63 274.87 C16.63
								 274.79 16.65 274.73 16.7 274.68 C16.74 274.64 16.79 274.62 16.87 274.62 L17.27 274.62 C17.34 274.62
								 17.4 274.63 17.46 274.64 C17.51 274.65 17.55 274.67 17.59 274.7 C17.63 274.73 17.66 274.76 17.68
								 274.81 C17.71 274.85 17.73 274.91 17.75 274.97 L18.41 276.78 L18.42 276.78 L19.1 274.98 C19.12 274.91
								 19.14 274.86 19.17 274.81 C19.19 274.76 19.22 274.73 19.25 274.7 C19.28 274.67 19.32 274.65 19.36
								 274.64 C19.41 274.63 19.46 274.62 19.52 274.62 L19.93 274.62 C19.98 274.62 20.01 274.63 20.04 274.64
								 C20.07 274.65 20.1 274.66 20.12 274.69 C20.14 274.71 20.15 274.73 20.16 274.76 C20.17 274.79 20.18
								 274.83 20.18 274.87 L20.18 277.58 L20.18 277.58 ZM24.01 267.85 C24.01 268.29 23.67 268.63 23.23
								 268.63 L18.75 268.63 C18.32 270.39 18.52 270.6 21.55 270.6 L21.55 271.32 L18.02 271.32 L15.45 271.32
								 L12.14 271.32 L12.14 270.6 C14.86 270.6 15.31 270.39 14.88 268.63 L10.46 268.63 C10.03 268.63 9.68
								 268.29 9.68 267.85 L9.68 259.15 C9.68 258.72 10.03 258.36 10.46 258.36 L23.23 258.36 C23.67 258.36
								 24.01 258.72 24.01 259.15 L24.01 267.85 L24.01 267.85 Z" class="st5"/>
				</g>
			</g>
			<g id="group1542-178" transform="translate(209.57,-12.9013)">
				<title>Virtual machine.1542</title>
				<g id="shape1543-179" transform="translate(10.6837,-11.7195)">
					<title>Sheet.1543</title>
					<path d="M0 279.35 L12.32 279.35 L12.32 271.09 L0 271.09 L0 279.35 ZM8.87 276.94 L6.56 278.28 L6.56 275.61 L8.87
								 274.27 L8.87 276.94 ZM6.35 272.56 L8.66 273.9 L6.36 275.23 L4.04 273.89 L6.35 272.56 ZM3.81 274.26
								 L6.13 275.59 L6.13 278.28 L3.81 276.94 L3.81 274.26 Z" class="st5"/>
				</g>
				<g id="shape1544-181">
					<title>Sheet.1544</title>
					<path d="M31.19 253.24 L1.44 253.24 C0.65 253.24 0 253.89 0 254.68 L0 277.91 C0 278.71 0.65 279.35 1.44 279.35
								 L31.19 279.35 C31.99 279.35 32.63 278.71 32.63 277.91 L32.63 254.68 C32.63 253.89 31.99 253.24 31.19
								 253.24 ZM16.21 274.86 L15.3 277.55 C15.29 277.58 15.28 277.6 15.27 277.62 C15.26 277.64 15.24 277.65
								 15.21 277.66 C15.18 277.66 15.14 277.67 15.1 277.67 C15.05 277.68 14.98 277.68 14.9 277.68 C14.84
								 277.68 14.79 277.68 14.74 277.68 C14.7 277.67 14.66 277.67 14.63 277.67 C14.6 277.67 14.57 277.66
								 14.55 277.65 C14.53 277.65 14.52 277.64 14.5 277.63 C14.49 277.62 14.48 277.61 14.47 277.6 C14.47
								 277.58 14.46 277.57 14.45 277.55 L13.55 274.85 C13.53 274.8 13.52 274.75 13.51 274.72 C13.51 274.68
								 13.52 274.66 13.54 274.64 C13.56 274.63 13.59 274.62 13.64 274.61 C13.68 274.61 13.75 274.61 13.83
								 274.61 C13.91 274.61 13.96 274.61 14 274.61 C14.04 274.61 14.08 274.62 14.1 274.63 C14.12 274.63
								 14.13 274.65 14.14 274.66 C14.15 274.68 14.16 274.7 14.17 274.72 L14.91 277.07 L14.91 277.07 L15.64
								 274.73 C15.64 274.71 15.65 274.68 15.66 274.67 C15.67 274.65 15.68 274.64 15.71 274.63 C15.73 274.62
								 15.76 274.61 15.8 274.61 C15.85 274.61 15.9 274.61 15.98 274.61 C16.05 274.61 16.11 274.61 16.15
								 274.61 C16.19 274.62 16.21 274.63 16.23 274.65 C16.24 274.67 16.25 274.69 16.24 274.72 C16.24 274.76
								 16.23 274.8 16.21 274.86 ZM20.18 277.58 C20.18 277.59 20.18 277.61 20.17 277.62 C20.16 277.63 20.14
								 277.64 20.12 277.65 C20.1 277.66 20.07 277.67 20.03 277.67 C19.99 277.67 19.94 277.68 19.89 277.68
								 C19.83 277.68 19.78 277.67 19.74 277.67 C19.71 277.67 19.68 277.66 19.66 277.65 C19.63 277.64 19.62
								 277.63 19.61 277.62 C19.6 277.61 19.59 277.59 19.59 277.58 L19.59 275.1 L19.59 275.1 L18.71 277.58
								 C18.7 277.6 18.69 277.61 18.68 277.63 C18.66 277.64 18.64 277.65 18.62 277.66 C18.6 277.67 18.56
								 277.67 18.53 277.67 C18.49 277.68 18.44 277.68 18.39 277.68 C18.34 277.68 18.29 277.68 18.25 277.67
								 C18.22 277.67 18.18 277.66 18.16 277.65 C18.14 277.64 18.12 277.63 18.1 277.62 C18.09 277.61 18.08
								 277.59 18.07 277.58 L17.22 275.1 L17.22 275.1 L17.22 277.58 C17.22 277.59 17.21 277.61 17.21 277.62
								 C17.2 277.63 17.18 277.64 17.16 277.65 C17.13 277.66 17.1 277.67 17.07 277.67 C17.03 277.67 16.98
								 277.68 16.92 277.68 C16.87 277.68 16.82 277.67 16.78 277.67 C16.75 277.67 16.72 277.66 16.69 277.65
								 C16.67 277.64 16.65 277.63 16.65 277.62 C16.64 277.61 16.63 277.59 16.63 277.58 L16.63 274.87 C16.63
								 274.79 16.65 274.73 16.7 274.68 C16.74 274.64 16.79 274.62 16.87 274.62 L17.27 274.62 C17.34 274.62
								 17.4 274.63 17.46 274.64 C17.51 274.65 17.55 274.67 17.59 274.7 C17.63 274.73 17.66 274.76 17.68
								 274.81 C17.71 274.85 17.73 274.91 17.75 274.97 L18.41 276.78 L18.42 276.78 L19.1 274.98 C19.12 274.91
								 19.14 274.86 19.17 274.81 C19.19 274.76 19.22 274.73 19.25 274.7 C19.28 274.67 19.32 274.65 19.36
								 274.64 C19.41 274.63 19.46 274.62 19.52 274.62 L19.93 274.62 C19.98 274.62 20.01 274.63 20.04 274.64
								 C20.07 274.65 20.1 274.66 20.12 274.69 C20.14 274.71 20.15 274.73 20.16 274.76 C20.17 274.79 20.18
								 274.83 20.18 274.87 L20.18 277.58 L20.18 277.58 ZM24.01 267.85 C24.01 268.29 23.67 268.63 23.23
								 268.63 L18.75 268.63 C18.32 270.39 18.52 270.6 21.55 270.6 L21.55 271.32 L18.02 271.32 L15.45 271.32
								 L12.14 271.32 L12.14 270.6 C14.86 270.6 15.31 270.39 14.88 268.63 L10.46 268.63 C10.03 268.63 9.68
								 268.29 9.68 267.85 L9.68 259.15 C9.68 258.72 10.03 258.36 10.46 258.36 L23.23 258.36 C23.67 258.36
								 24.01 258.72 24.01 259.15 L24.01 267.85 L24.01 267.85 Z" class="st5"/>
				</g>
			</g>
			<g id="shape1545-183" transform="translate(171.887,-58.2032)">
				<title>Sheet.1545</title>
				<path d="M0 279.35 L29.4 279.35" class="st1"/>
			</g>
			<g id="shape1546-188" transform="translate(-14.5069,13.075) rotate(-41.8544)">
				<title>Sheet.1546</title>
				<path d="M0 279.35 L41.73 279.35" class="st1"/>
			</g>
			<g id="shape1547-193" transform="translate(358.28,13.075) rotate(41.8544)">
				<title>Sheet.1547</title>
				<path d="M0 279.35 L41.73 279.35" class="st1"/>
			</g>
			<g id="shape1548-198" transform="translate(257.485,-8.49388)">
				<title>Sheet.1548</title>
				<rect x="0" y="180.912" width="91.8777" height="98.4375" class="st4"/>
			</g>
			<g id="group1549-200" transform="translate(308.876,-77.3998)">
				<title>Virtual machine.1549</title>
				<g id="shape1550-201" transform="translate(10.6837,-11.7195)">
					<title>Sheet.1550</title>
					<path d="M0 279.35 L12.32 279.35 L12.32 271.09 L0 271.09 L0 279.35 ZM8.87 276.94 L6.56 278.28 L6.56 275.61 L8.87
								 274.27 L8.87 276.94 ZM6.35 272.56 L8.66 273.9 L6.36 275.23 L4.04 273.89 L6.35 272.56 ZM3.81 274.26
								 L6.13 275.59 L6.13 278.28 L3.81 276.94 L3.81 274.26 Z" class="st5"/>
				</g>
				<g id="shape1551-203">
					<title>Sheet.1551</title>
					<path d="M31.19 253.24 L1.44 253.24 C0.65 253.24 0 253.89 0 254.68 L0 277.91 C0 278.71 0.65 279.35 1.44 279.35
								 L31.19 279.35 C31.99 279.35 32.63 278.71 32.63 277.91 L32.63 254.68 C32.63 253.89 31.99 253.24 31.19
								 253.24 ZM16.21 274.86 L15.3 277.55 C15.29 277.58 15.28 277.6 15.27 277.62 C15.26 277.64 15.24 277.65
								 15.21 277.66 C15.18 277.66 15.14 277.67 15.1 277.67 C15.05 277.68 14.98 277.68 14.9 277.68 C14.84
								 277.68 14.79 277.68 14.74 277.68 C14.7 277.67 14.66 277.67 14.63 277.67 C14.6 277.67 14.57 277.66
								 14.55 277.65 C14.53 277.65 14.52 277.64 14.5 277.63 C14.49 277.62 14.48 277.61 14.47 277.6 C14.47
								 277.58 14.46 277.57 14.45 277.55 L13.55 274.85 C13.53 274.8 13.52 274.75 13.51 274.72 C13.51 274.68
								 13.52 274.66 13.54 274.64 C13.56 274.63 13.59 274.62 13.64 274.61 C13.68 274.61 13.75 274.61 13.83
								 274.61 C13.91 274.61 13.96 274.61 14 274.61 C14.04 274.61 14.08 274.62 14.1 274.63 C14.12 274.63
								 14.13 274.65 14.14 274.66 C14.15 274.68 14.16 274.7 14.17 274.72 L14.91 277.07 L14.91 277.07 L15.64
								 274.73 C15.64 274.71 15.65 274.68 15.66 274.67 C15.67 274.65 15.68 274.64 15.71 274.63 C15.73 274.62
								 15.76 274.61 15.8 274.61 C15.85 274.61 15.9 274.61 15.98 274.61 C16.05 274.61 16.11 274.61 16.15
								 274.61 C16.19 274.62 16.21 274.63 16.23 274.65 C16.24 274.67 16.25 274.69 16.24 274.72 C16.24 274.76
								 16.23 274.8 16.21 274.86 ZM20.18 277.58 C20.18 277.59 20.18 277.61 20.17 277.62 C20.16 277.63 20.14
								 277.64 20.12 277.65 C20.1 277.66 20.07 277.67 20.03 277.67 C19.99 277.67 19.94 277.68 19.89 277.68
								 C19.83 277.68 19.78 277.67 19.74 277.67 C19.71 277.67 19.68 277.66 19.66 277.65 C19.63 277.64 19.62
								 277.63 19.61 277.62 C19.6 277.61 19.59 277.59 19.59 277.58 L19.59 275.1 L19.59 275.1 L18.71 277.58
								 C18.7 277.6 18.69 277.61 18.68 277.63 C18.66 277.64 18.64 277.65 18.62 277.66 C18.6 277.67 18.56
								 277.67 18.53 277.67 C18.49 277.68 18.44 277.68 18.39 277.68 C18.34 277.68 18.29 277.68 18.25 277.67
								 C18.22 277.67 18.18 277.66 18.16 277.65 C18.14 277.64 18.12 277.63 18.1 277.62 C18.09 277.61 18.08
								 277.59 18.07 277.58 L17.22 275.1 L17.22 275.1 L17.22 277.58 C17.22 277.59 17.21 277.61 17.21 277.62
								 C17.2 277.63 17.18 277.64 17.16 277.65 C17.13 277.66 17.1 277.67 17.07 277.67 C17.03 277.67 16.98
								 277.68 16.92 277.68 C16.87 277.68 16.82 277.67 16.78 277.67 C16.75 277.67 16.72 277.66 16.69 277.65
								 C16.67 277.64 16.65 277.63 16.65 277.62 C16.64 277.61 16.63 277.59 16.63 277.58 L16.63 274.87 C16.63
								 274.79 16.65 274.73 16.7 274.68 C16.74 274.64 16.79 274.62 16.87 274.62 L17.27 274.62 C17.34 274.62
								 17.4 274.63 17.46 274.64 C17.51 274.65 17.55 274.67 17.59 274.7 C17.63 274.73 17.66 274.76 17.68
								 274.81 C17.71 274.85 17.73 274.91 17.75 274.97 L18.41 276.78 L18.42 276.78 L19.1 274.98 C19.12 274.91
								 19.14 274.86 19.17 274.81 C19.19 274.76 19.22 274.73 19.25 274.7 C19.28 274.67 19.32 274.65 19.36
								 274.64 C19.41 274.63 19.46 274.62 19.52 274.62 L19.93 274.62 C19.98 274.62 20.01 274.63 20.04 274.64
								 C20.07 274.65 20.1 274.66 20.12 274.69 C20.14 274.71 20.15 274.73 20.16 274.76 C20.17 274.79 20.18
								 274.83 20.18 274.87 L20.18 277.58 L20.18 277.58 ZM24.01 267.85 C24.01 268.29 23.67 268.63 23.23
								 268.63 L18.75 268.63 C18.32 270.39 18.52 270.6 21.55 270.6 L21.55 271.32 L18.02 271.32 L15.45 271.32
								 L12.14 271.32 L12.14 270.6 C14.86 270.6 15.31 270.39 14.88 268.63 L10.46 268.63 C10.03 268.63 9.68
								 268.29 9.68 267.85 L9.68 259.15 C9.68 258.72 10.03 258.36 10.46 258.36 L23.23 258.36 C23.67 258.36
								 24.01 258.72 24.01 259.15 L24.01 267.85 L24.01 267.85 Z" class="st5"/>
				</g>
			</g>
			<g id="group1552-205" transform="translate(308.876,-45.1506)">
				<title>Virtual machine.1552</title>
				<g id="shape1553-206" transform="translate(10.6837,-11.7195)">
					<title>Sheet.1553</title>
					<path d="M0 279.35 L12.32 279.35 L12.32 271.09 L0 271.09 L0 279.35 ZM8.87 276.94 L6.56 278.28 L6.56 275.61 L8.87
								 274.27 L8.87 276.94 ZM6.35 272.56 L8.66 273.9 L6.36 275.23 L4.04 273.89 L6.35 272.56 ZM3.81 274.26
								 L6.13 275.59 L6.13 278.28 L3.81 276.94 L3.81 274.26 Z" class="st5"/>
				</g>
				<g id="shape1554-208">
					<title>Sheet.1554</title>
					<path d="M31.19 253.24 L1.44 253.24 C0.65 253.24 0 253.89 0 254.68 L0 277.91 C0 278.71 0.65 279.35 1.44 279.35
								 L31.19 279.35 C31.99 279.35 32.63 278.71 32.63 277.91 L32.63 254.68 C32.63 253.89 31.99 253.24 31.19
								 253.24 ZM16.21 274.86 L15.3 277.55 C15.29 277.58 15.28 277.6 15.27 277.62 C15.26 277.64 15.24 277.65
								 15.21 277.66 C15.18 277.66 15.14 277.67 15.1 277.67 C15.05 277.68 14.98 277.68 14.9 277.68 C14.84
								 277.68 14.79 277.68 14.74 277.68 C14.7 277.67 14.66 277.67 14.63 277.67 C14.6 277.67 14.57 277.66
								 14.55 277.65 C14.53 277.65 14.52 277.64 14.5 277.63 C14.49 277.62 14.48 277.61 14.47 277.6 C14.47
								 277.58 14.46 277.57 14.45 277.55 L13.55 274.85 C13.53 274.8 13.52 274.75 13.51 274.72 C13.51 274.68
								 13.52 274.66 13.54 274.64 C13.56 274.63 13.59 274.62 13.64 274.61 C13.68 274.61 13.75 274.61 13.83
								 274.61 C13.91 274.61 13.96 274.61 14 274.61 C14.04 274.61 14.08 274.62 14.1 274.63 C14.12 274.63
								 14.13 274.65 14.14 274.66 C14.15 274.68 14.16 274.7 14.17 274.72 L14.91 277.07 L14.91 277.07 L15.64
								 274.73 C15.64 274.71 15.65 274.68 15.66 274.67 C15.67 274.65 15.68 274.64 15.71 274.63 C15.73 274.62
								 15.76 274.61 15.8 274.61 C15.85 274.61 15.9 274.61 15.98 274.61 C16.05 274.61 16.11 274.61 16.15
								 274.61 C16.19 274.62 16.21 274.63 16.23 274.65 C16.24 274.67 16.25 274.69 16.24 274.72 C16.24 274.76
								 16.23 274.8 16.21 274.86 ZM20.18 277.58 C20.18 277.59 20.18 277.61 20.17 277.62 C20.16 277.63 20.14
								 277.64 20.12 277.65 C20.1 277.66 20.07 277.67 20.03 277.67 C19.99 277.67 19.94 277.68 19.89 277.68
								 C19.83 277.68 19.78 277.67 19.74 277.67 C19.71 277.67 19.68 277.66 19.66 277.65 C19.63 277.64 19.62
								 277.63 19.61 277.62 C19.6 277.61 19.59 277.59 19.59 277.58 L19.59 275.1 L19.59 275.1 L18.71 277.58
								 C18.7 277.6 18.69 277.61 18.68 277.63 C18.66 277.64 18.64 277.65 18.62 277.66 C18.6 277.67 18.56
								 277.67 18.53 277.67 C18.49 277.68 18.44 277.68 18.39 277.68 C18.34 277.68 18.29 277.68 18.25 277.67
								 C18.22 277.67 18.18 277.66 18.16 277.65 C18.14 277.64 18.12 277.63 18.1 277.62 C18.09 277.61 18.08
								 277.59 18.07 277.58 L17.22 275.1 L17.22 275.1 L17.22 277.58 C17.22 277.59 17.21 277.61 17.21 277.62
								 C17.2 277.63 17.18 277.64 17.16 277.65 C17.13 277.66 17.1 277.67 17.07 277.67 C17.03 277.67 16.98
								 277.68 16.92 277.68 C16.87 277.68 16.82 277.67 16.78 277.67 C16.75 277.67 16.72 277.66 16.69 277.65
								 C16.67 277.64 16.65 277.63 16.65 277.62 C16.64 277.61 16.63 277.59 16.63 277.58 L16.63 274.87 C16.63
								 274.79 16.65 274.73 16.7 274.68 C16.74 274.64 16.79 274.62 16.87 274.62 L17.27 274.62 C17.34 274.62
								 17.4 274.63 17.46 274.64 C17.51 274.65 17.55 274.67 17.59 274.7 C17.63 274.73 17.66 274.76 17.68
								 274.81 C17.71 274.85 17.73 274.91 17.75 274.97 L18.41 276.78 L18.42 276.78 L19.1 274.98 C19.12 274.91
								 19.14 274.86 19.17 274.81 C19.19 274.76 19.22 274.73 19.25 274.7 C19.28 274.67 19.32 274.65 19.36
								 274.64 C19.41 274.63 19.46 274.62 19.52 274.62 L19.93 274.62 C19.98 274.62 20.01 274.63 20.04 274.64
								 C20.07 274.65 20.1 274.66 20.12 274.69 C20.14 274.71 20.15 274.73 20.16 274.76 C20.17 274.79 20.18
								 274.83 20.18 274.87 L20.18 277.58 L20.18 277.58 ZM24.01 267.85 C24.01 268.29 23.67 268.63 23.23
								 268.63 L18.75 268.63 C18.32 270.39 18.52 270.6 21.55 270.6 L21.55 271.32 L18.02 271.32 L15.45 271.32
								 L12.14 271.32 L12.14 270.6 C14.86 270.6 15.31 270.39 14.88 268.63 L10.46 268.63 C10.03 268.63 9.68
								 268.29 9.68 267.85 L9.68 259.15 C9.68 258.72 10.03 258.36 10.46 258.36 L23.23 258.36 C23.67 258.36
								 24.01 258.72 24.01 259.15 L24.01 267.85 L24.01 267.85 Z" class="st5"/>
				</g>
			</g>
			<g id="group1555-210" transform="translate(308.876,-12.9013)">
				<title>Virtual machine.1555</title>
				<g id="shape1556-211" transform="translate(10.6837,-11.7195)">
					<title>Sheet.1556</title>
					<path d="M0 279.35 L12.32 279.35 L12.32 271.09 L0 271.09 L0 279.35 ZM8.87 276.94 L6.56 278.28 L6.56 275.61 L8.87
								 274.27 L8.87 276.94 ZM6.35 272.56 L8.66 273.9 L6.36 275.23 L4.04 273.89 L6.35 272.56 ZM3.81 274.26
								 L6.13 275.59 L6.13 278.28 L3.81 276.94 L3.81 274.26 Z" class="st5"/>
				</g>
				<g id="shape1557-213">
					<title>Sheet.1557</title>
					<path d="M31.19 253.24 L1.44 253.24 C0.65 253.24 0 253.89 0 254.68 L0 277.91 C0 278.71 0.65 279.35 1.44 279.35
								 L31.19 279.35 C31.99 279.35 32.63 278.71 32.63 277.91 L32.63 254.68 C32.63 253.89 31.99 253.24 31.19
								 253.24 ZM16.21 274.86 L15.3 277.55 C15.29 277.58 15.28 277.6 15.27 277.62 C15.26 277.64 15.24 277.65
								 15.21 277.66 C15.18 277.66 15.14 277.67 15.1 277.67 C15.05 277.68 14.98 277.68 14.9 277.68 C14.84
								 277.68 14.79 277.68 14.74 277.68 C14.7 277.67 14.66 277.67 14.63 277.67 C14.6 277.67 14.57 277.66
								 14.55 277.65 C14.53 277.65 14.52 277.64 14.5 277.63 C14.49 277.62 14.48 277.61 14.47 277.6 C14.47
								 277.58 14.46 277.57 14.45 277.55 L13.55 274.85 C13.53 274.8 13.52 274.75 13.51 274.72 C13.51 274.68
								 13.52 274.66 13.54 274.64 C13.56 274.63 13.59 274.62 13.64 274.61 C13.68 274.61 13.75 274.61 13.83
								 274.61 C13.91 274.61 13.96 274.61 14 274.61 C14.04 274.61 14.08 274.62 14.1 274.63 C14.12 274.63
								 14.13 274.65 14.14 274.66 C14.15 274.68 14.16 274.7 14.17 274.72 L14.91 277.07 L14.91 277.07 L15.64
								 274.73 C15.64 274.71 15.65 274.68 15.66 274.67 C15.67 274.65 15.68 274.64 15.71 274.63 C15.73 274.62
								 15.76 274.61 15.8 274.61 C15.85 274.61 15.9 274.61 15.98 274.61 C16.05 274.61 16.11 274.61 16.15
								 274.61 C16.19 274.62 16.21 274.63 16.23 274.65 C16.24 274.67 16.25 274.69 16.24 274.72 C16.24 274.76
								 16.23 274.8 16.21 274.86 ZM20.18 277.58 C20.18 277.59 20.18 277.61 20.17 277.62 C20.16 277.63 20.14
								 277.64 20.12 277.65 C20.1 277.66 20.07 277.67 20.03 277.67 C19.99 277.67 19.94 277.68 19.89 277.68
								 C19.83 277.68 19.78 277.67 19.74 277.67 C19.71 277.67 19.68 277.66 19.66 277.65 C19.63 277.64 19.62
								 277.63 19.61 277.62 C19.6 277.61 19.59 277.59 19.59 277.58 L19.59 275.1 L19.59 275.1 L18.71 277.58
								 C18.7 277.6 18.69 277.61 18.68 277.63 C18.66 277.64 18.64 277.65 18.62 277.66 C18.6 277.67 18.56
								 277.67 18.53 277.67 C18.49 277.68 18.44 277.68 18.39 277.68 C18.34 277.68 18.29 277.68 18.25 277.67
								 C18.22 277.67 18.18 277.66 18.16 277.65 C18.14 277.64 18.12 277.63 18.1 277.62 C18.09 277.61 18.08
								 277.59 18.07 277.58 L17.22 275.1 L17.22 275.1 L17.22 277.58 C17.22 277.59 17.21 277.61 17.21 277.62
								 C17.2 277.63 17.18 277.64 17.16 277.65 C17.13 277.66 17.1 277.67 17.07 277.67 C17.03 277.67 16.98
								 277.68 16.92 277.68 C16.87 277.68 16.82 277.67 16.78 277.67 C16.75 277.67 16.72 277.66 16.69 277.65
								 C16.67 277.64 16.65 277.63 16.65 277.62 C16.64 277.61 16.63 277.59 16.63 277.58 L16.63 274.87 C16.63
								 274.79 16.65 274.73 16.7 274.68 C16.74 274.64 16.79 274.62 16.87 274.62 L17.27 274.62 C17.34 274.62
								 17.4 274.63 17.46 274.64 C17.51 274.65 17.55 274.67 17.59 274.7 C17.63 274.73 17.66 274.76 17.68
								 274.81 C17.71 274.85 17.73 274.91 17.75 274.97 L18.41 276.78 L18.42 276.78 L19.1 274.98 C19.12 274.91
								 19.14 274.86 19.17 274.81 C19.19 274.76 19.22 274.73 19.25 274.7 C19.28 274.67 19.32 274.65 19.36
								 274.64 C19.41 274.63 19.46 274.62 19.52 274.62 L19.93 274.62 C19.98 274.62 20.01 274.63 20.04 274.64
								 C20.07 274.65 20.1 274.66 20.12 274.69 C20.14 274.71 20.15 274.73 20.16 274.76 C20.17 274.79 20.18
								 274.83 20.18 274.87 L20.18 277.58 L20.18 277.58 ZM24.01 267.85 C24.01 268.29 23.67 268.63 23.23
								 268.63 L18.75 268.63 C18.32 270.39 18.52 270.6 21.55 270.6 L21.55 271.32 L18.02 271.32 L15.45 271.32
								 L12.14 271.32 L12.14 270.6 C14.86 270.6 15.31 270.39 14.88 268.63 L10.46 268.63 C10.03 268.63 9.68
								 268.29 9.68 267.85 L9.68 259.15 C9.68 258.72 10.03 258.36 10.46 258.36 L23.23 258.36 C23.67 258.36
								 24.01 258.72 24.01 259.15 L24.01 267.85 L24.01 267.85 Z" class="st5"/>
				</g>
			</g>
			<g id="shape1558-215" transform="translate(243.299,-58.2032) rotate(-0.00519493)">
				<title>Sheet.1558</title>
				<path d="M0 279.35 L7.56 279.35" class="st1"/>
			</g>
			<g id="shape1559-220" transform="translate(358.637,-8.49386)">
				<title>Sheet.1559</title>
				<rect x="0" y="180.912" width="91.8777" height="98.4375" class="st6"/>
			</g>
			<g id="group1560-222" transform="translate(411.504,-12.9013)">
				<title>Virtual machine.1560</title>
				<g id="shape1561-223" transform="translate(10.6837,-11.7195)">
					<title>Sheet.1561</title>
					<path d="M0 279.35 L12.32 279.35 L12.32 271.09 L0 271.09 L0 279.35 ZM8.87 276.94 L6.56 278.28 L6.56 275.61 L8.87
								 274.27 L8.87 276.94 ZM6.35 272.56 L8.66 273.9 L6.36 275.23 L4.04 273.89 L6.35 272.56 ZM3.81 274.26
								 L6.13 275.59 L6.13 278.28 L3.81 276.94 L3.81 274.26 Z" class="st5"/>
				</g>
				<g id="shape1562-225">
					<title>Sheet.1562</title>
					<path d="M31.19 253.24 L1.44 253.24 C0.65 253.24 0 253.89 0 254.68 L0 277.91 C0 278.71 0.65 279.35 1.44 279.35
								 L31.19 279.35 C31.99 279.35 32.63 278.71 32.63 277.91 L32.63 254.68 C32.63 253.89 31.99 253.24 31.19
								 253.24 ZM16.21 274.86 L15.3 277.55 C15.29 277.58 15.28 277.6 15.27 277.62 C15.26 277.64 15.24 277.65
								 15.21 277.66 C15.18 277.66 15.14 277.67 15.1 277.67 C15.05 277.68 14.98 277.68 14.9 277.68 C14.84
								 277.68 14.79 277.68 14.74 277.68 C14.7 277.67 14.66 277.67 14.63 277.67 C14.6 277.67 14.57 277.66
								 14.55 277.65 C14.53 277.65 14.52 277.64 14.5 277.63 C14.49 277.62 14.48 277.61 14.47 277.6 C14.47
								 277.58 14.46 277.57 14.45 277.55 L13.55 274.85 C13.53 274.8 13.52 274.75 13.51 274.72 C13.51 274.68
								 13.52 274.66 13.54 274.64 C13.56 274.63 13.59 274.62 13.64 274.61 C13.68 274.61 13.75 274.61 13.83
								 274.61 C13.91 274.61 13.96 274.61 14 274.61 C14.04 274.61 14.08 274.62 14.1 274.63 C14.12 274.63
								 14.13 274.65 14.14 274.66 C14.15 274.68 14.16 274.7 14.17 274.72 L14.91 277.07 L14.91 277.07 L15.64
								 274.73 C15.64 274.71 15.65 274.68 15.66 274.67 C15.67 274.65 15.68 274.64 15.71 274.63 C15.73 274.62
								 15.76 274.61 15.8 274.61 C15.85 274.61 15.9 274.61 15.98 274.61 C16.05 274.61 16.11 274.61 16.15
								 274.61 C16.19 274.62 16.21 274.63 16.23 274.65 C16.24 274.67 16.25 274.69 16.24 274.72 C16.24 274.76
								 16.23 274.8 16.21 274.86 ZM20.18 277.58 C20.18 277.59 20.18 277.61 20.17 277.62 C20.16 277.63 20.14
								 277.64 20.12 277.65 C20.1 277.66 20.07 277.67 20.03 277.67 C19.99 277.67 19.94 277.68 19.89 277.68
								 C19.83 277.68 19.78 277.67 19.74 277.67 C19.71 277.67 19.68 277.66 19.66 277.65 C19.63 277.64 19.62
								 277.63 19.61 277.62 C19.6 277.61 19.59 277.59 19.59 277.58 L19.59 275.1 L19.59 275.1 L18.71 277.58
								 C18.7 277.6 18.69 277.61 18.68 277.63 C18.66 277.64 18.64 277.65 18.62 277.66 C18.6 277.67 18.56
								 277.67 18.53 277.67 C18.49 277.68 18.44 277.68 18.39 277.68 C18.34 277.68 18.29 277.68 18.25 277.67
								 C18.22 277.67 18.18 277.66 18.16 277.65 C18.14 277.64 18.12 277.63 18.1 277.62 C18.09 277.61 18.08
								 277.59 18.07 277.58 L17.22 275.1 L17.22 275.1 L17.22 277.58 C17.22 277.59 17.21 277.61 17.21 277.62
								 C17.2 277.63 17.18 277.64 17.16 277.65 C17.13 277.66 17.1 277.67 17.07 277.67 C17.03 277.67 16.98
								 277.68 16.92 277.68 C16.87 277.68 16.82 277.67 16.78 277.67 C16.75 277.67 16.72 277.66 16.69 277.65
								 C16.67 277.64 16.65 277.63 16.65 277.62 C16.64 277.61 16.63 277.59 16.63 277.58 L16.63 274.87 C16.63
								 274.79 16.65 274.73 16.7 274.68 C16.74 274.64 16.79 274.62 16.87 274.62 L17.27 274.62 C17.34 274.62
								 17.4 274.63 17.46 274.64 C17.51 274.65 17.55 274.67 17.59 274.7 C17.63 274.73 17.66 274.76 17.68
								 274.81 C17.71 274.85 17.73 274.91 17.75 274.97 L18.41 276.78 L18.42 276.78 L19.1 274.98 C19.12 274.91
								 19.14 274.86 19.17 274.81 C19.19 274.76 19.22 274.73 19.25 274.7 C19.28 274.67 19.32 274.65 19.36
								 274.64 C19.41 274.63 19.46 274.62 19.52 274.62 L19.93 274.62 C19.98 274.62 20.01 274.63 20.04 274.64
								 C20.07 274.65 20.1 274.66 20.12 274.69 C20.14 274.71 20.15 274.73 20.16 274.76 C20.17 274.79 20.18
								 274.83 20.18 274.87 L20.18 277.58 L20.18 277.58 ZM24.01 267.85 C24.01 268.29 23.67 268.63 23.23
								 268.63 L18.75 268.63 C18.32 270.39 18.52 270.6 21.55 270.6 L21.55 271.32 L18.02 271.32 L15.45 271.32
								 L12.14 271.32 L12.14 270.6 C14.86 270.6 15.31 270.39 14.88 268.63 L10.46 268.63 C10.03 268.63 9.68
								 268.29 9.68 267.85 L9.68 259.15 C9.68 258.72 10.03 258.36 10.46 258.36 L23.23 258.36 C23.67 258.36
								 24.01 258.72 24.01 259.15 L24.01 267.85 L24.01 267.85 Z" class="st5"/>
				</g>
			</g>
			<g id="group1563-227" transform="translate(521.325,0)">
				<title>Sheet.1563</title>
				<g id="shape1564-228">
					<title>Sheet.1564</title>
					<rect x="0" y="269.964" width="17.325" height="9.3862" class="st7"/>
				</g>
				<g id="group1565-230">
					<title>Virtual Network</title>
					<g id="shape1566-231" transform="translate(12.0617,0)">
						<title>Sheet.1566</title>
						<path d="M5.26 274.66 L4.21 273.6 L0.57 269.96 L0 270.58 L4.08 274.66 L0 278.74 L0.57 279.35 L4.21 275.71
									 L5.26 274.66 Z" class="st5"/>
					</g>
					<g id="shape1567-233">
						<title>Sheet.1567</title>
						<path d="M0 274.66 L1.05 273.6 L4.69 269.96 L5.26 270.58 L1.18 274.66 L5.26 278.74 L4.69 279.35 L1.05 275.71
									 L0 274.66 Z" class="st5"/>
					</g>
					<g id="shape1568-235" transform="translate(4.4738,-3.64044)">
						<title>Sheet.1568</title>
						<path d="M2.11 278.3 C2.11 278.87 1.62 279.35 1.05 279.35 C0.44 279.35 0 278.87 0 278.3 C-0 277.73 0.48 277.24
									 1.05 277.24 C1.62 277.24 2.11 277.68 2.11 278.3 Z" class="st5"/>
					</g>
					<g id="shape1569-237" transform="translate(7.63177,-3.64044)">
						<title>Sheet.1569</title>
						<ellipse cx="1.05266" cy="278.297" rx="1.05266" ry="1.05266" class="st5"/>
					</g>
					<g id="shape1570-239" transform="translate(10.7897,-3.64044)">
						<title>Sheet.1570</title>
						<ellipse cx="1.05266" cy="278.297" rx="1.05266" ry="1.05266" class="st5"/>
					</g>
				</g>
			</g>
			<g id="group1571-241" transform="translate(257.485,-41.7916)">
				<title>Sheet.1571</title>
				<g id="shape1572-242">
					<title>Sheet.1572</title>
					<path d="M31.91 260.78 L18.57 247.44 C17.98 246.85 17.26 246.53 16.41 246.53 C15.63 246.53 14.84 246.85 14.25
								 247.44 L0.92 260.78 C0.33 261.37 0 262.09 0 262.94 C0 263.72 0.33 264.51 0.92 265.1 L14.25 278.43
								 C14.84 279.02 15.56 279.35 16.41 279.35 C17.2 279.35 17.98 279.02 18.57 278.43 L31.91 265.1 C32.5
								 264.51 32.82 263.79 32.82 262.94 C32.76 262.09 32.43 261.3 31.91 260.78 ZM25.57 266.99 L25.57 263.98
								 L20.99 263.98 C20.53 265.55 19.29 266.8 17.72 267.25 L17.72 270.33 C18.37 270.78 19.35 271.83 19.35
								 272.94 C19.35 274.58 18.05 275.88 16.41 275.88 C14.78 275.88 13.47 274.58 13.47 272.94 C13.47 271.77
								 14.45 270.78 15.1 270.33 L15.1 267.32 C13.53 266.86 12.29 265.62 11.83 264.05 L7.26 264.05 L7.26
								 267.12 L2.94 262.81 L7.26 258.49 L7.26 261.5 L11.83 261.5 C12.29 259.93 13.53 258.69 15.1 258.23
								 L15.1 253.85 L12.1 253.85 L16.41 249.53 L20.73 253.85 L17.72 253.85 L17.72 258.23 C19.29 258.69
								 20.53 259.93 20.99 261.5 L25.57 261.5 L25.57 258.43 L29.88 262.74 L25.57 266.99 Z" class="st5"/>
				</g>
				<g id="shape1573-244" transform="translate(12.9462,-13.2077)">
					<title>Sheet.1573</title>
					<path d="M3.47 272.42 C1.57 272.42 0 273.99 0 275.88 C0 277.78 1.57 279.35 3.47 279.35 C5.36 279.35 6.93 277.78
								 6.93 275.88 C6.93 273.99 5.36 272.42 3.47 272.42 Z" class="st5"/>
				</g>
			</g>
			<g id="group1574-246" transform="translate(359.038,-41.7916)">
				<title>Sheet.1574</title>
				<g id="shape1575-247">
					<title>Sheet.1575</title>
					<path d="M31.91 260.78 L18.57 247.44 C17.98 246.85 17.26 246.53 16.41 246.53 C15.63 246.53 14.84 246.85 14.25
								 247.44 L0.92 260.78 C0.33 261.37 0 262.09 0 262.94 C0 263.72 0.33 264.51 0.92 265.1 L14.25 278.43
								 C14.84 279.02 15.56 279.35 16.41 279.35 C17.2 279.35 17.98 279.02 18.57 278.43 L31.91 265.1 C32.5
								 264.51 32.82 263.79 32.82 262.94 C32.76 262.09 32.43 261.3 31.91 260.78 ZM25.57 266.99 L25.57 263.98
								 L20.99 263.98 C20.53 265.55 19.29 266.8 17.72 267.25 L17.72 270.33 C18.37 270.78 19.35 271.83 19.35
								 272.94 C19.35 274.58 18.05 275.88 16.41 275.88 C14.78 275.88 13.47 274.58 13.47 272.94 C13.47 271.77
								 14.45 270.78 15.1 270.33 L15.1 267.32 C13.53 266.86 12.29 265.62 11.83 264.05 L7.26 264.05 L7.26
								 267.12 L2.94 262.81 L7.26 258.49 L7.26 261.5 L11.83 261.5 C12.29 259.93 13.53 258.69 15.1 258.23
								 L15.1 253.85 L12.1 253.85 L16.41 249.53 L20.73 253.85 L17.72 253.85 L17.72 258.23 C19.29 258.69
								 20.53 259.93 20.99 261.5 L25.57 261.5 L25.57 258.43 L29.88 262.74 L25.57 266.99 Z" class="st5"/>
				</g>
				<g id="shape1576-249" transform="translate(12.9462,-13.2077)">
					<title>Sheet.1576</title>
					<path d="M3.47 272.42 C1.57 272.42 0 273.99 0 275.88 C0 277.78 1.57 279.35 3.47 279.35 C5.36 279.35 6.93 277.78
								 6.93 275.88 C6.93 273.99 5.36 272.42 3.47 272.42 Z" class="st5"/>
				</g>
			</g>
			<g id="group1577-251" transform="translate(411.505,-45.316)">
				<title>Sheet.1577</title>
				<g id="shape1578-252">
					<title>Sheet.1578</title>
					<path d="M32.55 255.39 C32.55 255.97 32.63 254.15 32.13 253.66 C31.88 253.41 31.55 253.24 31.3 253.24 C31.22
								 253.24 31.13 253.24 31.05 253.24 L1.42 253.24 C0.67 253.24 0 253.99 0 254.9 L0 277.7 C0 278.61 0.58
								 279.35 1.42 279.35 L31.13 279.35 C31.88 279.35 32.55 278.61 32.55 277.7 L32.55 255.39 Z"
							class="st5"/>
				</g>
				<g id="group1579-254" transform="translate(8.75016,-3.14601)">
					<title>Database server.847</title>
					<g id="shape1580-255" transform="translate(7.32101,0)">
						<title>Sheet.1580</title>
						<path d="M3.9 270.71 C2.4 270.71 0.81 270.41 0 269.77 L0 277.59 C0 278.56 1.75 279.35 3.9 279.35 C6.06 279.35
									 7.81 278.56 7.81 277.59 L7.81 269.77 C6.99 270.41 5.41 270.71 3.9 270.71 Z" class="st8"/>
					</g>
					<g id="shape1581-257" transform="translate(7.32101,-9.19563)">
						<title>Sheet.1581</title>
						<path d="M7.81 277.96 C7.81 277.19 6.06 276.56 3.9 276.56 C1.75 276.56 0 277.19 0 277.96 C0 278.73 1.75 279.35
									 3.9 279.35 C6.06 279.35 7.81 278.73 7.81 277.96 Z" class="st8"/>
					</g>
					<g id="shape1582-259" transform="translate(0,-0.000484414)">
						<title>Sheet.1582</title>
						<path d="M6.34 274.51 L6.34 269.77 L6.34 268.9 L6.34 268.76 C6.34 267.46 7.9 266.74 9.76 266.49 L9.76 260.43
									 C9.76 259.91 9.32 259.49 8.79 259.49 L0.98 259.49 C0.44 259.49 0 259.91 0 260.43 L0 279.35 L7.41
									 279.35 C6.73 278.89 6.34 278.28 6.34 277.59 L6.34 277.41 L1.46 277.41 L1.46 276.44 L6.34 276.44
									 L6.34 275.47 L1.46 275.47 L1.46 274.51 L6.34 274.51 L6.34 274.51 ZM1.46 262.4 L8.3 262.4 L8.3
									 263.36 L1.46 263.36 L1.46 262.4 Z" class="st8"/>
					</g>
				</g>
			</g>
			<g id="group1583-261" transform="translate(411.505,-77.5653)">
				<title>Sheet.1583</title>
				<g id="shape1584-262">
					<title>Sheet.1584</title>
					<path d="M32.55 255.39 C32.55 255.97 32.63 254.15 32.13 253.66 C31.88 253.41 31.55 253.24 31.3 253.24 C31.22
								 253.24 31.13 253.24 31.05 253.24 L1.42 253.24 C0.67 253.24 0 253.99 0 254.9 L0 277.7 C0 278.61 0.58
								 279.35 1.42 279.35 L31.13 279.35 C31.88 279.35 32.55 278.61 32.55 277.7 L32.55 255.39 Z"
							class="st5"/>
				</g>
				<g id="group1585-264" transform="translate(8.75016,-3.14601)">
					<title>Database server.847</title>
					<g id="shape1586-265" transform="translate(7.32101,0)">
						<title>Sheet.1586</title>
						<path d="M3.9 270.71 C2.4 270.71 0.81 270.41 0 269.77 L0 277.59 C0 278.56 1.75 279.35 3.9 279.35 C6.06 279.35
									 7.81 278.56 7.81 277.59 L7.81 269.77 C6.99 270.41 5.41 270.71 3.9 270.71 Z" class="st8"/>
					</g>
					<g id="shape1587-267" transform="translate(7.32101,-9.19563)">
						<title>Sheet.1587</title>
						<path d="M7.81 277.96 C7.81 277.19 6.06 276.56 3.9 276.56 C1.75 276.56 0 277.19 0 277.96 C0 278.73 1.75 279.35
									 3.9 279.35 C6.06 279.35 7.81 278.73 7.81 277.96 Z" class="st8"/>
					</g>
					<g id="shape1588-269" transform="translate(0,-0.000484414)">
						<title>Sheet.1588</title>
						<path d="M6.34 274.51 L6.34 269.77 L6.34 268.9 L6.34 268.76 C6.34 267.46 7.9 266.74 9.76 266.49 L9.76 260.43
									 C9.76 259.91 9.32 259.49 8.79 259.49 L0.98 259.49 C0.44 259.49 0 259.91 0 260.43 L0 279.35 L7.41
									 279.35 C6.73 278.89 6.34 278.28 6.34 277.59 L6.34 277.41 L1.46 277.41 L1.46 276.44 L6.34 276.44
									 L6.34 275.47 L1.46 275.47 L1.46 274.51 L6.34 274.51 L6.34 274.51 ZM1.46 262.4 L8.3 262.4 L8.3
									 263.36 L1.46 263.36 L1.46 262.4 Z" class="st8"/>
					</g>
				</g>
			</g>
			<g id="shape1589-271" transform="translate(342.023,-58.6689)">
				<title>Sheet.1589</title>
				<path d="M0 279.35 L8.89 279.35" class="st1"/>
			</g>
			<g id="group1590-276" transform="translate(290.264,-25.9539)">
				<title>Sheet.1590</title>
				<g id="shape1591-277" transform="translate(-6.11968E-13,-32.2492)">
					<title>Sheet.1591</title>
					<path d="M0 279.35 L10.33 279.35" class="st1"/>
				</g>
				<g id="shape1592-282" transform="translate(-247.344,117.264) rotate(-62.3039)">
					<title>Sheet.1592</title>
					<path d="M0 279.35 L29.82 279.35" class="st1"/>
				</g>
				<g id="shape1593-287" transform="translate(247.344,117.264) rotate(62.3039)">
					<title>Sheet.1593</title>
					<path d="M0 279.35 L29.82 279.35" class="st1"/>
				</g>
			</g>
			<g id="shape1594-292" transform="translate(393.773,-58.2032)">
				<title>Sheet.1594</title>
				<path d="M0 279.35 L10.33 279.35" class="st1"/>
			</g>
			<g id="shape1595-297" transform="translate(146.429,91.3101) rotate(-62.3039)">
				<title>Sheet.1595</title>
				<path d="M0 279.35 L29.82 279.35" class="st1"/>
			</g>
			<g id="shape1596-302" transform="translate(209.8,130.416) rotate(-90) scale(-1,1)">
				<title>Sheet.1596</title>
				<path d="M9.18 279.35 L9.54 279.35 L82.53 279.35" class="st10"/>
			</g>
			<g id="shape1597-311" transform="translate(125.567,129.922) rotate(-89.8105) scale(-1,1)">
				<title>Sheet.1597</title>
				<path d="M0 279.35 L32.98 279.35" class="st12"/>
			</g>
			<g id="shape1598-317" transform="translate(0,-114.935)">
				<title>Internet white (opaque).1598</title>
				<path d="M40.92 279.35 L7.12 279.35 C3.19 279.35 0 275.75 0 271.32 C0 266.88 3.19 263.28 7.12 263.28 C7.4 263.28
							 7.67 263.3 7.96 263.34 C9.13 261.24 11.16 259.96 13.36 259.96 C13.96 259.96 14.56 260.06 15.15 260.27
							 C15.15 260.17 15.15 260.08 15.15 259.98 C15.15 254.78 18.89 250.55 23.49 250.55 C26.73 250.55 29.65
							 252.71 31 256.01 C32.2 255.24 33.55 254.84 34.93 254.84 C39.36 254.84 42.97 258.91 42.97 263.91 C42.97
							 264.4 42.93 264.89 42.86 265.4 C45.24 266.54 46.8 269.14 46.8 272.07 C46.8 275.46 44.75 278.34 41.89
							 279.15 L40.92 279.35 Z" class="st14"/>
			</g>
			<g id="shape1599-319" transform="translate(100.071,-129.335)">
				<title>Sheet.1599</title>
				<path d="M0 279.35 L18.98 279.35" class="st9"/>
			</g>
			<g id="group1600-322" transform="translate(70.1643,-114.672)">
				<title>Traffic Manager (opaque).1600</title>
				<g id="shape1601-323">
					<title>Sheet.1601</title>
					<path d="M28.31 270.84 L28.31 258.58 L20.02 250.02 L8.3 250.02 L0 258.84 L0 270.79 L8.29 279.35 L18.56 279.35
								 L20.91 278.57 L28.31 270.84 Z" class="st15"/>
				</g>
				<g id="shape1602-325">
					<title>Sheet.1602</title>
					<path d="M20.43 267.09 L18.32 269.27 L18.32 262.96 L24.76 262.96 L22.44 265.13 L28.31 270.84 L28.31 258.58 L20.02
								 250.02 L8.3 250.02 L6.18 252.22 L12.85 259.25 L15.82 256.19 L15.82 265.54 L6.72 265.54 L9.58 262.48
								 L2.99 255.75 L0 258.84 L0 270.79 L8.29 279.35 L18.56 279.35 L10.67 271.36 L9.16 273.06 L9.16 268.13
								 L13.79 268.13 L12.44 269.69 L20.91 278.57 L26.11 273.2 L20.43 267.09 Z" class="st5"/>
				</g>
			</g>
			<g id="shape1603-327" transform="translate(43.4572,-129.335)">
				<title>Sheet.1603</title>
				<path d="M0 279.35 L18.51 279.35" class="st1"/>
			</g>
			<g id="shape1639-332" transform="translate(456.114,-150.843)">
				<title>Sheet.1639</title>
				<rect x="0" y="232.807" width="63" height="46.5428" class="st4"/>
			</g>
			<g id="shape1640-334" transform="translate(473.342,-155.965)">
				<title>Gateway.1001</title>
				<path d="M14.27 250.81 C6.39 250.81 0 257.2 0 265.08 C0 272.96 6.39 279.35 14.27 279.35 C22.15 279.35 28.54 272.96
							 28.54 265.08 C28.54 257.2 22.15 250.81 14.27 250.81 ZM12.97 257.29 L12.97 252.75 L15.57 252.75 L15.57
							 257.29 L16.87 257.29 L14.27 262.54 L11.68 257.29 L12.97 257.29 ZM7.14 267.67 L1.89 265.08 L7.14 262.48
							 L7.14 263.78 L11.68 263.78 L11.68 266.38 L7.14 266.38 L7.14 267.67 ZM15.57 272.21 L15.57 276.76 L12.97
							 276.76 L12.97 272.21 L11.68 272.21 L14.27 266.97 L16.87 272.21 L15.57 272.21 ZM21.41 267.67 L21.41 266.38
							 L16.87 266.38 L16.87 263.78 L21.41 263.78 L21.41 262.48 L26.65 265.08 L21.41 267.67 Z" class="st5"/>
			</g>
			<g id="group1649-336" transform="translate(457.65,-8.49386)">
				<title>Sheet.1649</title>
				<g id="shape1647-337">
					<title>Sheet.1647</title>
					<rect x="0" y="230.975" width="63" height="48.375" class="st4"/>
				</g>
				<g id="shape1648-339" transform="translate(17.2286,-9)">
					<title>Gateway.1001</title>
					<path d="M14.27 250.81 C6.39 250.81 0 257.2 0 265.08 C0 272.96 6.39 279.35 14.27 279.35 C22.15 279.35 28.54 272.96
								 28.54 265.08 C28.54 257.2 22.15 250.81 14.27 250.81 ZM12.97 257.29 L12.97 252.75 L15.57 252.75 L15.57
								 257.29 L16.87 257.29 L14.27 262.54 L11.68 257.29 L12.97 257.29 ZM7.14 267.67 L1.89 265.08 L7.14
								 262.48 L7.14 263.78 L11.68 263.78 L11.68 266.38 L7.14 266.38 L7.14 267.67 ZM15.57 272.21 L15.57
								 276.76 L12.97 276.76 L12.97 272.21 L11.68 272.21 L14.27 266.97 L16.87 272.21 L15.57 272.21 ZM21.41
								 267.67 L21.41 266.38 L16.87 266.38 L16.87 263.78 L21.41 263.78 L21.41 262.48 L26.65 265.08 L21.41
								 267.67 Z" class="st5"/>
				</g>
			</g>
		</g>
	</g>
</svg>
