<?xml version="1.0" encoding="UTF-8" standalone="no"?>
<!DOCTYPE svg PUBLIC "-//W3C//DTD SVG 1.1//EN" "http://www.w3.org/Graphics/SVG/1.1/DTD/svg11.dtd">
<!-- Generated by Microsoft Visio, SVG Export n-tier-sql-server.svg Page-1 -->
<svg xmlns="http://www.w3.org/2000/svg" xmlns:xlink="http://www.w3.org/1999/xlink" xmlns:ev="http://www.w3.org/2001/xml-events"
		width="6.13485in" height="3.08621in" viewBox="0 0 441.709 222.207" xml:space="preserve" color-interpolation-filters="sRGB"
		class="st18">
	<style type="text/css">
	<![CDATA[
		.st1 {fill:none;stroke:#0078d7;stroke-dasharray:0,6.75;stroke-linecap:round;stroke-linejoin:round;stroke-width:2.25}
		.st2 {fill:#f2f2f2;stroke:none;stroke-linecap:round;stroke-linejoin:round;stroke-width:0.75}
		.st3 {fill:#0078d7;stroke:none;stroke-linecap:butt;stroke-width:0.75}
		.st4 {fill:none;stroke:#7f7f7f;stroke-dasharray:4.5,4.5;stroke-linecap:round;stroke-linejoin:round;stroke-width:1.5}
		.st5 {fill:#0078d7;stroke:none;stroke-linecap:butt;stroke-width:0.6375}
		.st6 {fill:#0078d7;stroke:none;stroke-linecap:round;stroke-linejoin:round;stroke-width:0.75}
		.st7 {fill:none;stroke:none;stroke-linecap:round;stroke-linejoin:round;stroke-width:0.75}
		.st8 {fill:#ffffff;font-family:Segoe UI Semibold;font-size:0.499992em}
		.st9 {marker-end:url(#mrkr4-36);stroke:#0078d7;stroke-linecap:round;stroke-linejoin:round;stroke-width:1.5}
		.st10 {fill:#0078d7;fill-opacity:1;stroke:#0078d7;stroke-opacity:1;stroke-width:0.45454545454545}
		.st11 {fill:#0078d7;stroke:none;stroke-linecap:butt;stroke-width:0.653846}
		.st12 {fill:none;stroke:#7f7f7f;stroke-dasharray:3,3;stroke-linecap:round;stroke-linejoin:round;stroke-width:1}
		.st13 {fill:#0078d7;stroke:none;stroke-linecap:butt;stroke-width:0.597656}
		.st14 {fill:#ffffff;stroke:none;stroke-linecap:butt;stroke-width:0.75}
		.st15 {fill:#0078d7}
		.st16 {stroke:#0078d7;stroke-linecap:round;stroke-linejoin:round;stroke-width:2.25}
		.st17 {fill:#ffffff;stroke:none;stroke-linecap:round;stroke-linejoin:round;stroke-width:0.75}
		.st18 {fill:none;fill-rule:evenodd;font-size:12px;overflow:visible;stroke-linecap:square;stroke-miterlimit:3}
	]]>
	</style>

	<defs id="Markers">
		<g id="lend4">
			<path d="M 2 1 L 0 0 L 2 -1 L 2 1 " style="stroke:none"/>
		</g>
		<marker id="mrkr4-36" class="st10" refX="-4.4" orient="auto" markerUnits="strokeWidth" overflow="visible">
			<use xlink:href="#lend4" transform="scale(-2.2,-2.2) "/>
		</marker>
	</defs>
	<g>
		<title>Page-1</title>
		<g id="group273-1" transform="translate(4.71564,-17.4544)">
			<title>Sheet.273</title>
			<g id="shape138-2" transform="translate(64.2624,-5.15391)">
				<title>Virtual Network Box</title>
				<path d="M0 222.21 L364.5 222.21 L364.5 23.73 L0 23.73 L0 222.21 Z" class="st1"/>
			</g>
			<g id="shape139-4" transform="translate(71.3847,-76.6957)">
				<title>Sheet.139</title>
				<rect x="0" y="103.921" width="91.8777" height="118.286" class="st2"/>
			</g>
			<g id="group140-6" transform="translate(119.38,-158.877)">
				<title>Virtual machine.73</title>
				<g id="shape141-7" transform="translate(10.6837,-11.7195)">
					<title>Sheet.141</title>
					<path d="M0 222.21 L12.32 222.21 L12.32 213.95 L0 213.95 L0 222.21 ZM8.87 219.8 L6.56 221.13 L6.56 218.47 L8.87
								 217.13 L8.87 219.8 ZM6.35 215.41 L8.66 216.76 L6.36 218.09 L4.04 216.75 L6.35 215.41 ZM3.81 217.12
								 L6.13 218.45 L6.13 221.13 L3.81 219.8 L3.81 217.12 Z" class="st3"/>
				</g>
				<g id="shape142-9">
					<title>Sheet.142</title>
					<path d="M31.19 196.1 L1.44 196.1 C0.65 196.1 0 196.75 0 197.54 L0 220.77 C0 221.57 0.65 222.21 1.44 222.21 L31.19
								 222.21 C31.99 222.21 32.63 221.57 32.63 220.77 L32.63 197.54 C32.63 196.75 31.99 196.1 31.19 196.1
								 ZM16.21 217.71 L15.3 220.41 C15.29 220.44 15.28 220.46 15.27 220.48 C15.26 220.49 15.24 220.51 15.21
								 220.51 C15.18 220.52 15.14 220.53 15.1 220.53 C15.05 220.53 14.98 220.53 14.9 220.53 C14.84 220.53
								 14.79 220.53 14.74 220.53 C14.7 220.53 14.66 220.53 14.63 220.53 C14.6 220.52 14.57 220.52 14.55
								 220.51 C14.53 220.51 14.52 220.5 14.5 220.49 C14.49 220.48 14.48 220.47 14.47 220.45 C14.47 220.44
								 14.46 220.42 14.45 220.4 L13.55 217.71 C13.53 217.65 13.52 217.61 13.51 217.57 C13.51 217.54 13.52
								 217.52 13.54 217.5 C13.56 217.48 13.59 217.47 13.64 217.47 C13.68 217.47 13.75 217.46 13.83 217.46
								 C13.91 217.46 13.96 217.46 14 217.47 C14.04 217.47 14.08 217.48 14.1 217.48 C14.12 217.49 14.13
								 217.5 14.14 217.52 C14.15 217.54 14.16 217.55 14.17 217.58 L14.91 219.92 L14.91 219.92 L15.64 217.59
								 C15.64 217.56 15.65 217.54 15.66 217.53 C15.67 217.51 15.68 217.5 15.71 217.49 C15.73 217.48 15.76
								 217.47 15.8 217.47 C15.85 217.47 15.9 217.46 15.98 217.46 C16.05 217.46 16.11 217.47 16.15 217.47
								 C16.19 217.48 16.21 217.49 16.23 217.5 C16.24 217.52 16.25 217.55 16.24 217.58 C16.24 217.61 16.23
								 217.66 16.21 217.71 ZM20.18 220.44 C20.18 220.45 20.18 220.47 20.17 220.48 C20.16 220.49 20.14 220.5
								 20.12 220.51 C20.1 220.52 20.07 220.52 20.03 220.53 C19.99 220.53 19.94 220.53 19.89 220.53 C19.83
								 220.53 19.78 220.53 19.74 220.53 C19.71 220.52 19.68 220.52 19.66 220.51 C19.63 220.5 19.62 220.49
								 19.61 220.48 C19.6 220.46 19.59 220.45 19.59 220.44 L19.59 217.96 L19.59 217.96 L18.71 220.43 C18.7
								 220.45 18.69 220.47 18.68 220.48 C18.66 220.5 18.64 220.51 18.62 220.52 C18.6 220.52 18.56 220.53
								 18.53 220.53 C18.49 220.53 18.44 220.53 18.39 220.53 C18.34 220.53 18.29 220.53 18.25 220.53 C18.22
								 220.52 18.18 220.52 18.16 220.51 C18.14 220.5 18.12 220.49 18.1 220.48 C18.09 220.46 18.08 220.45
								 18.07 220.43 L17.22 217.96 L17.22 217.96 L17.22 220.44 C17.22 220.45 17.21 220.47 17.21 220.48 C17.2
								 220.49 17.18 220.5 17.16 220.51 C17.13 220.52 17.1 220.52 17.07 220.53 C17.03 220.53 16.98 220.53
								 16.92 220.53 C16.87 220.53 16.82 220.53 16.78 220.53 C16.75 220.52 16.72 220.52 16.69 220.51 C16.67
								 220.5 16.65 220.49 16.65 220.48 C16.64 220.46 16.63 220.45 16.63 220.44 L16.63 217.72 C16.63 217.64
								 16.65 217.58 16.7 217.54 C16.74 217.5 16.79 217.48 16.87 217.48 L17.27 217.48 C17.34 217.48 17.4
								 217.48 17.46 217.5 C17.51 217.51 17.55 217.53 17.59 217.55 C17.63 217.58 17.66 217.62 17.68 217.66
								 C17.71 217.71 17.73 217.76 17.75 217.83 L18.41 219.64 L18.42 219.64 L19.1 217.83 C19.12 217.77 19.14
								 217.71 19.17 217.67 C19.19 217.62 19.22 217.58 19.25 217.56 C19.28 217.53 19.32 217.51 19.36 217.5
								 C19.41 217.48 19.46 217.48 19.52 217.48 L19.93 217.48 C19.98 217.48 20.01 217.48 20.04 217.49 C20.07
								 217.51 20.1 217.52 20.12 217.54 C20.14 217.56 20.15 217.59 20.16 217.62 C20.17 217.65 20.18 217.69
								 20.18 217.72 L20.18 220.44 L20.18 220.44 ZM24.01 210.71 C24.01 211.14 23.67 211.49 23.23 211.49
								 L18.75 211.49 C18.32 213.24 18.52 213.46 21.55 213.46 L21.55 214.18 L18.02 214.18 L15.45 214.18
								 L12.14 214.18 L12.14 213.46 C14.86 213.46 15.31 213.24 14.88 211.49 L10.46 211.49 C10.03 211.49
								 9.68 211.14 9.68 210.71 L9.68 202.01 C9.68 201.57 10.03 201.22 10.46 201.22 L23.23 201.22 C23.67
								 201.22 24.01 201.57 24.01 202.01 L24.01 210.71 L24.01 210.71 Z" class="st3"/>
				</g>
			</g>
			<g id="group143-11" transform="translate(119.38,-126.627)">
				<title>Virtual machine.76</title>
				<g id="shape144-12" transform="translate(10.6837,-11.7195)">
					<title>Sheet.144</title>
					<path d="M0 222.21 L12.32 222.21 L12.32 213.95 L0 213.95 L0 222.21 ZM8.87 219.8 L6.56 221.13 L6.56 218.47 L8.87
								 217.13 L8.87 219.8 ZM6.35 215.41 L8.66 216.76 L6.36 218.09 L4.04 216.75 L6.35 215.41 ZM3.81 217.12
								 L6.13 218.45 L6.13 221.13 L3.81 219.8 L3.81 217.12 Z" class="st3"/>
				</g>
				<g id="shape145-14">
					<title>Sheet.145</title>
					<path d="M31.19 196.1 L1.44 196.1 C0.65 196.1 0 196.75 0 197.54 L0 220.77 C0 221.57 0.65 222.21 1.44 222.21 L31.19
								 222.21 C31.99 222.21 32.63 221.57 32.63 220.77 L32.63 197.54 C32.63 196.75 31.99 196.1 31.19 196.1
								 ZM16.21 217.71 L15.3 220.41 C15.29 220.44 15.28 220.46 15.27 220.48 C15.26 220.49 15.24 220.51 15.21
								 220.51 C15.18 220.52 15.14 220.53 15.1 220.53 C15.05 220.53 14.98 220.53 14.9 220.53 C14.84 220.53
								 14.79 220.53 14.74 220.53 C14.7 220.53 14.66 220.53 14.63 220.53 C14.6 220.52 14.57 220.52 14.55
								 220.51 C14.53 220.51 14.52 220.5 14.5 220.49 C14.49 220.48 14.48 220.47 14.47 220.45 C14.47 220.44
								 14.46 220.42 14.45 220.4 L13.55 217.71 C13.53 217.65 13.52 217.61 13.51 217.57 C13.51 217.54 13.52
								 217.52 13.54 217.5 C13.56 217.48 13.59 217.47 13.64 217.47 C13.68 217.47 13.75 217.46 13.83 217.46
								 C13.91 217.46 13.96 217.46 14 217.47 C14.04 217.47 14.08 217.48 14.1 217.48 C14.12 217.49 14.13
								 217.5 14.14 217.52 C14.15 217.54 14.16 217.55 14.17 217.58 L14.91 219.92 L14.91 219.92 L15.64 217.59
								 C15.64 217.56 15.65 217.54 15.66 217.53 C15.67 217.51 15.68 217.5 15.71 217.49 C15.73 217.48 15.76
								 217.47 15.8 217.47 C15.85 217.47 15.9 217.46 15.98 217.46 C16.05 217.46 16.11 217.47 16.15 217.47
								 C16.19 217.48 16.21 217.49 16.23 217.5 C16.24 217.52 16.25 217.55 16.24 217.58 C16.24 217.61 16.23
								 217.66 16.21 217.71 ZM20.18 220.44 C20.18 220.45 20.18 220.47 20.17 220.48 C20.16 220.49 20.14 220.5
								 20.12 220.51 C20.1 220.52 20.07 220.52 20.03 220.53 C19.99 220.53 19.94 220.53 19.89 220.53 C19.83
								 220.53 19.78 220.53 19.74 220.53 C19.71 220.52 19.68 220.52 19.66 220.51 C19.63 220.5 19.62 220.49
								 19.61 220.48 C19.6 220.46 19.59 220.45 19.59 220.44 L19.59 217.96 L19.59 217.96 L18.71 220.43 C18.7
								 220.45 18.69 220.47 18.68 220.48 C18.66 220.5 18.64 220.51 18.62 220.52 C18.6 220.52 18.56 220.53
								 18.53 220.53 C18.49 220.53 18.44 220.53 18.39 220.53 C18.34 220.53 18.29 220.53 18.25 220.53 C18.22
								 220.52 18.18 220.52 18.16 220.51 C18.14 220.5 18.12 220.49 18.1 220.48 C18.09 220.46 18.08 220.45
								 18.07 220.43 L17.22 217.96 L17.22 217.96 L17.22 220.44 C17.22 220.45 17.21 220.47 17.21 220.48 C17.2
								 220.49 17.18 220.5 17.16 220.51 C17.13 220.52 17.1 220.52 17.07 220.53 C17.03 220.53 16.98 220.53
								 16.92 220.53 C16.87 220.53 16.82 220.53 16.78 220.53 C16.75 220.52 16.72 220.52 16.69 220.51 C16.67
								 220.5 16.65 220.49 16.65 220.48 C16.64 220.46 16.63 220.45 16.63 220.44 L16.63 217.72 C16.63 217.64
								 16.65 217.58 16.7 217.54 C16.74 217.5 16.79 217.48 16.87 217.48 L17.27 217.48 C17.34 217.48 17.4
								 217.48 17.46 217.5 C17.51 217.51 17.55 217.53 17.59 217.55 C17.63 217.58 17.66 217.62 17.68 217.66
								 C17.71 217.71 17.73 217.76 17.75 217.83 L18.41 219.64 L18.42 219.64 L19.1 217.83 C19.12 217.77 19.14
								 217.71 19.17 217.67 C19.19 217.62 19.22 217.58 19.25 217.56 C19.28 217.53 19.32 217.51 19.36 217.5
								 C19.41 217.48 19.46 217.48 19.52 217.48 L19.93 217.48 C19.98 217.48 20.01 217.48 20.04 217.49 C20.07
								 217.51 20.1 217.52 20.12 217.54 C20.14 217.56 20.15 217.59 20.16 217.62 C20.17 217.65 20.18 217.69
								 20.18 217.72 L20.18 220.44 L20.18 220.44 ZM24.01 210.71 C24.01 211.14 23.67 211.49 23.23 211.49
								 L18.75 211.49 C18.32 213.24 18.52 213.46 21.55 213.46 L21.55 214.18 L18.02 214.18 L15.45 214.18
								 L12.14 214.18 L12.14 213.46 C14.86 213.46 15.31 213.24 14.88 211.49 L10.46 211.49 C10.03 211.49
								 9.68 211.14 9.68 210.71 L9.68 202.01 C9.68 201.57 10.03 201.22 10.46 201.22 L23.23 201.22 C23.67
								 201.22 24.01 201.57 24.01 202.01 L24.01 210.71 L24.01 210.71 Z" class="st3"/>
				</g>
			</g>
			<g id="group146-16" transform="translate(119.38,-94.3781)">
				<title>Virtual machine.79</title>
				<g id="shape147-17" transform="translate(10.6837,-11.7195)">
					<title>Sheet.147</title>
					<path d="M0 222.21 L12.32 222.21 L12.32 213.95 L0 213.95 L0 222.21 ZM8.87 219.8 L6.56 221.13 L6.56 218.47 L8.87
								 217.13 L8.87 219.8 ZM6.35 215.41 L8.66 216.76 L6.36 218.09 L4.04 216.75 L6.35 215.41 ZM3.81 217.12
								 L6.13 218.45 L6.13 221.13 L3.81 219.8 L3.81 217.12 Z" class="st3"/>
				</g>
				<g id="shape148-19">
					<title>Sheet.148</title>
					<path d="M31.19 196.1 L1.44 196.1 C0.65 196.1 0 196.75 0 197.54 L0 220.77 C0 221.57 0.65 222.21 1.44 222.21 L31.19
								 222.21 C31.99 222.21 32.63 221.57 32.63 220.77 L32.63 197.54 C32.63 196.75 31.99 196.1 31.19 196.1
								 ZM16.21 217.71 L15.3 220.41 C15.29 220.44 15.28 220.46 15.27 220.48 C15.26 220.49 15.24 220.51 15.21
								 220.51 C15.18 220.52 15.14 220.53 15.1 220.53 C15.05 220.53 14.98 220.53 14.9 220.53 C14.84 220.53
								 14.79 220.53 14.74 220.53 C14.7 220.53 14.66 220.53 14.63 220.53 C14.6 220.52 14.57 220.52 14.55
								 220.51 C14.53 220.51 14.52 220.5 14.5 220.49 C14.49 220.48 14.48 220.47 14.47 220.45 C14.47 220.44
								 14.46 220.42 14.45 220.4 L13.55 217.71 C13.53 217.65 13.52 217.61 13.51 217.57 C13.51 217.54 13.52
								 217.52 13.54 217.5 C13.56 217.48 13.59 217.47 13.64 217.47 C13.68 217.47 13.75 217.46 13.83 217.46
								 C13.91 217.46 13.96 217.46 14 217.47 C14.04 217.47 14.08 217.48 14.1 217.48 C14.12 217.49 14.13
								 217.5 14.14 217.52 C14.15 217.54 14.16 217.55 14.17 217.58 L14.91 219.92 L14.91 219.92 L15.64 217.59
								 C15.64 217.56 15.65 217.54 15.66 217.53 C15.67 217.51 15.68 217.5 15.71 217.49 C15.73 217.48 15.76
								 217.47 15.8 217.47 C15.85 217.47 15.9 217.46 15.98 217.46 C16.05 217.46 16.11 217.47 16.15 217.47
								 C16.19 217.48 16.21 217.49 16.23 217.5 C16.24 217.52 16.25 217.55 16.24 217.58 C16.24 217.61 16.23
								 217.66 16.21 217.71 ZM20.18 220.44 C20.18 220.45 20.18 220.47 20.17 220.48 C20.16 220.49 20.14 220.5
								 20.12 220.51 C20.1 220.52 20.07 220.52 20.03 220.53 C19.99 220.53 19.94 220.53 19.89 220.53 C19.83
								 220.53 19.78 220.53 19.74 220.53 C19.71 220.52 19.68 220.52 19.66 220.51 C19.63 220.5 19.62 220.49
								 19.61 220.48 C19.6 220.46 19.59 220.45 19.59 220.44 L19.59 217.96 L19.59 217.96 L18.71 220.43 C18.7
								 220.45 18.69 220.47 18.68 220.48 C18.66 220.5 18.64 220.51 18.62 220.52 C18.6 220.52 18.56 220.53
								 18.53 220.53 C18.49 220.53 18.44 220.53 18.39 220.53 C18.34 220.53 18.29 220.53 18.25 220.53 C18.22
								 220.52 18.18 220.52 18.16 220.51 C18.14 220.5 18.12 220.49 18.1 220.48 C18.09 220.46 18.08 220.45
								 18.07 220.43 L17.22 217.96 L17.22 217.96 L17.22 220.44 C17.22 220.45 17.21 220.47 17.21 220.48 C17.2
								 220.49 17.18 220.5 17.16 220.51 C17.13 220.52 17.1 220.52 17.07 220.53 C17.03 220.53 16.98 220.53
								 16.92 220.53 C16.87 220.53 16.82 220.53 16.78 220.53 C16.75 220.52 16.72 220.52 16.69 220.51 C16.67
								 220.5 16.65 220.49 16.65 220.48 C16.64 220.46 16.63 220.45 16.63 220.44 L16.63 217.72 C16.63 217.64
								 16.65 217.58 16.7 217.54 C16.74 217.5 16.79 217.48 16.87 217.48 L17.27 217.48 C17.34 217.48 17.4
								 217.48 17.46 217.5 C17.51 217.51 17.55 217.53 17.59 217.55 C17.63 217.58 17.66 217.62 17.68 217.66
								 C17.71 217.71 17.73 217.76 17.75 217.83 L18.41 219.64 L18.42 219.64 L19.1 217.83 C19.12 217.77 19.14
								 217.71 19.17 217.67 C19.19 217.62 19.22 217.58 19.25 217.56 C19.28 217.53 19.32 217.51 19.36 217.5
								 C19.41 217.48 19.46 217.48 19.52 217.48 L19.93 217.48 C19.98 217.48 20.01 217.48 20.04 217.49 C20.07
								 217.51 20.1 217.52 20.12 217.54 C20.14 217.56 20.15 217.59 20.16 217.62 C20.17 217.65 20.18 217.69
								 20.18 217.72 L20.18 220.44 L20.18 220.44 ZM24.01 210.71 C24.01 211.14 23.67 211.49 23.23 211.49
								 L18.75 211.49 C18.32 213.24 18.52 213.46 21.55 213.46 L21.55 214.18 L18.02 214.18 L15.45 214.18
								 L12.14 214.18 L12.14 213.46 C14.86 213.46 15.31 213.24 14.88 211.49 L10.46 211.49 C10.03 211.49
								 9.68 211.14 9.68 210.71 L9.68 202.01 C9.68 201.57 10.03 201.22 10.46 201.22 L23.23 201.22 C23.67
								 201.22 24.01 201.57 24.01 202.01 L24.01 210.71 L24.01 210.71 Z" class="st3"/>
				</g>
			</g>
			<g id="shape149-21" transform="translate(107.787,-85.6957)">
				<title>Sheet.149</title>
				<path d="M0 222.21 L49.98 222.21 L49.98 117.42 L0 117.42 L0 222.21 Z" class="st4"/>
			</g>
			<g id="group152-23" transform="translate(78.597,-172.959)">
				<title>Sheet.152</title>
				<g id="shape153-24">
					<title>Lock, protected.1135</title>
					<path d="M14.31 210.23 L13.31 210.23 L13.31 208.37 C13.31 204.45 10.81 202.43 7.9 202.43 L7.42 202.43 C4.45 202.43
								 2.01 204.4 2.01 208.37 L2.01 210.23 L1.01 210.23 C0.58 210.23 0 210.81 0 211.23 L0 221.2 C-0 221.62
								 0.58 222.21 1.01 222.21 L14.31 222.21 C14.74 222.21 15.32 221.62 15.32 221.2 L15.32 211.23 C15.32
								 210.81 14.74 210.23 14.31 210.23 ZM8.43 216.11 L8.43 220.25 L6.94 220.25 L6.94 216.11 C6.36 215.85
								 5.94 215.26 5.94 214.57 C5.94 213.62 6.73 212.82 7.69 212.82 C8.64 212.82 9.44 213.62 9.44 214.57
								 C9.38 215.21 9.01 215.79 8.43 216.11 ZM11.45 210.23 L3.87 210.23 L3.87 208.37 C3.87 205.88 5.2 204.18
								 7.42 204.18 L7.9 204.18 C10.18 204.18 11.45 205.88 11.45 208.37 L11.45 210.23 Z" class="st5"/>
				</g>
				<g id="shape154-26" transform="translate(2.28102,-0.389869)">
					<title>Sheet.154</title>
					<rect x="0" y="211.839" width="10.7581" height="10.3682" class="st6"/>
				</g>
			</g>
			<g id="shape155-28" transform="translate(75.5124,-172.259)">
				<title>Sheet.155</title>
				<desc>NSG</desc>
				<rect x="0" y="209.566" width="21.4894" height="12.6408" class="st7"/>
				<text x="4.72" y="217.69" class="st8">NSG</text>			</g>
			<g id="shape156-31" transform="translate(53.0124,-139.68)">
				<title>Sheet.156</title>
				<path d="M0 222.21 L58.08 222.21" class="st9"/>
			</g>
			<g id="shape157-37" transform="translate(-46.1337,-116.335) rotate(-26.4994)">
				<title>Sheet.157</title>
				<path d="M0 222.21 L65.68 222.21" class="st9"/>
			</g>
			<g id="shape158-42" transform="translate(152.158,-116.335) rotate(26.4994)">
				<title>Sheet.158</title>
				<path d="M0 222.21 L65.68 222.21" class="st9"/>
			</g>
			<g id="shape159-47" transform="translate(175.778,-76.6957)">
				<title>Sheet.159</title>
				<rect x="0" y="103.921" width="114.469" height="118.286" class="st2"/>
			</g>
			<g id="group160-49" transform="translate(246.364,-158.877)">
				<title>Virtual machine.194</title>
				<g id="shape161-50" transform="translate(10.6837,-11.7195)">
					<title>Sheet.161</title>
					<path d="M0 222.21 L12.32 222.21 L12.32 213.95 L0 213.95 L0 222.21 ZM8.87 219.8 L6.56 221.13 L6.56 218.47 L8.87
								 217.13 L8.87 219.8 ZM6.35 215.41 L8.66 216.76 L6.36 218.09 L4.04 216.75 L6.35 215.41 ZM3.81 217.12
								 L6.13 218.45 L6.13 221.13 L3.81 219.8 L3.81 217.12 Z" class="st3"/>
				</g>
				<g id="shape162-52">
					<title>Sheet.162</title>
					<path d="M31.19 196.1 L1.44 196.1 C0.65 196.1 0 196.75 0 197.54 L0 220.77 C0 221.57 0.65 222.21 1.44 222.21 L31.19
								 222.21 C31.99 222.21 32.63 221.57 32.63 220.77 L32.63 197.54 C32.63 196.75 31.99 196.1 31.19 196.1
								 ZM16.21 217.71 L15.3 220.41 C15.29 220.44 15.28 220.46 15.27 220.48 C15.26 220.49 15.24 220.51 15.21
								 220.51 C15.18 220.52 15.14 220.53 15.1 220.53 C15.05 220.53 14.98 220.53 14.9 220.53 C14.84 220.53
								 14.79 220.53 14.74 220.53 C14.7 220.53 14.66 220.53 14.63 220.53 C14.6 220.52 14.57 220.52 14.55
								 220.51 C14.53 220.51 14.52 220.5 14.5 220.49 C14.49 220.48 14.48 220.47 14.47 220.45 C14.47 220.44
								 14.46 220.42 14.45 220.4 L13.55 217.71 C13.53 217.65 13.52 217.61 13.51 217.57 C13.51 217.54 13.52
								 217.52 13.54 217.5 C13.56 217.48 13.59 217.47 13.64 217.47 C13.68 217.47 13.75 217.46 13.83 217.46
								 C13.91 217.46 13.96 217.46 14 217.47 C14.04 217.47 14.08 217.48 14.1 217.48 C14.12 217.49 14.13
								 217.5 14.14 217.52 C14.15 217.54 14.16 217.55 14.17 217.58 L14.91 219.92 L14.91 219.92 L15.64 217.59
								 C15.64 217.56 15.65 217.54 15.66 217.53 C15.67 217.51 15.68 217.5 15.71 217.49 C15.73 217.48 15.76
								 217.47 15.8 217.47 C15.85 217.47 15.9 217.46 15.98 217.46 C16.05 217.46 16.11 217.47 16.15 217.47
								 C16.19 217.48 16.21 217.49 16.23 217.5 C16.24 217.52 16.25 217.55 16.24 217.58 C16.24 217.61 16.23
								 217.66 16.21 217.71 ZM20.18 220.44 C20.18 220.45 20.18 220.47 20.17 220.48 C20.16 220.49 20.14 220.5
								 20.12 220.51 C20.1 220.52 20.07 220.52 20.03 220.53 C19.99 220.53 19.94 220.53 19.89 220.53 C19.83
								 220.53 19.78 220.53 19.74 220.53 C19.71 220.52 19.68 220.52 19.66 220.51 C19.63 220.5 19.62 220.49
								 19.61 220.48 C19.6 220.46 19.59 220.45 19.59 220.44 L19.59 217.96 L19.59 217.96 L18.71 220.43 C18.7
								 220.45 18.69 220.47 18.68 220.48 C18.66 220.5 18.64 220.51 18.62 220.52 C18.6 220.52 18.56 220.53
								 18.53 220.53 C18.49 220.53 18.44 220.53 18.39 220.53 C18.34 220.53 18.29 220.53 18.25 220.53 C18.22
								 220.52 18.18 220.52 18.16 220.51 C18.14 220.5 18.12 220.49 18.1 220.48 C18.09 220.46 18.08 220.45
								 18.07 220.43 L17.22 217.96 L17.22 217.96 L17.22 220.44 C17.22 220.45 17.21 220.47 17.21 220.48 C17.2
								 220.49 17.18 220.5 17.16 220.51 C17.13 220.52 17.1 220.52 17.07 220.53 C17.03 220.53 16.98 220.53
								 16.92 220.53 C16.87 220.53 16.82 220.53 16.78 220.53 C16.75 220.52 16.72 220.52 16.69 220.51 C16.67
								 220.5 16.65 220.49 16.65 220.48 C16.64 220.46 16.63 220.45 16.63 220.44 L16.63 217.72 C16.63 217.64
								 16.65 217.58 16.7 217.54 C16.74 217.5 16.79 217.48 16.87 217.48 L17.27 217.48 C17.34 217.48 17.4
								 217.48 17.46 217.5 C17.51 217.51 17.55 217.53 17.59 217.55 C17.63 217.58 17.66 217.62 17.68 217.66
								 C17.71 217.71 17.73 217.76 17.75 217.83 L18.41 219.64 L18.42 219.64 L19.1 217.83 C19.12 217.77 19.14
								 217.71 19.17 217.67 C19.19 217.62 19.22 217.58 19.25 217.56 C19.28 217.53 19.32 217.51 19.36 217.5
								 C19.41 217.48 19.46 217.48 19.52 217.48 L19.93 217.48 C19.98 217.48 20.01 217.48 20.04 217.49 C20.07
								 217.51 20.1 217.52 20.12 217.54 C20.14 217.56 20.15 217.59 20.16 217.62 C20.17 217.65 20.18 217.69
								 20.18 217.72 L20.18 220.44 L20.18 220.44 ZM24.01 210.71 C24.01 211.14 23.67 211.49 23.23 211.49
								 L18.75 211.49 C18.32 213.24 18.52 213.46 21.55 213.46 L21.55 214.18 L18.02 214.18 L15.45 214.18
								 L12.14 214.18 L12.14 213.46 C14.86 213.46 15.31 213.24 14.88 211.49 L10.46 211.49 C10.03 211.49
								 9.68 211.14 9.68 210.71 L9.68 202.01 C9.68 201.57 10.03 201.22 10.46 201.22 L23.23 201.22 C23.67
								 201.22 24.01 201.57 24.01 202.01 L24.01 210.71 L24.01 210.71 Z" class="st3"/>
				</g>
			</g>
			<g id="group163-54" transform="translate(246.364,-126.627)">
				<title>Virtual machine.197</title>
				<g id="shape164-55" transform="translate(10.6837,-11.7195)">
					<title>Sheet.164</title>
					<path d="M0 222.21 L12.32 222.21 L12.32 213.95 L0 213.95 L0 222.21 ZM8.87 219.8 L6.56 221.13 L6.56 218.47 L8.87
								 217.13 L8.87 219.8 ZM6.35 215.41 L8.66 216.76 L6.36 218.09 L4.04 216.75 L6.35 215.41 ZM3.81 217.12
								 L6.13 218.45 L6.13 221.13 L3.81 219.8 L3.81 217.12 Z" class="st3"/>
				</g>
				<g id="shape165-57">
					<title>Sheet.165</title>
					<path d="M31.19 196.1 L1.44 196.1 C0.65 196.1 0 196.75 0 197.54 L0 220.77 C0 221.57 0.65 222.21 1.44 222.21 L31.19
								 222.21 C31.99 222.21 32.63 221.57 32.63 220.77 L32.63 197.54 C32.63 196.75 31.99 196.1 31.19 196.1
								 ZM16.21 217.71 L15.3 220.41 C15.29 220.44 15.28 220.46 15.27 220.48 C15.26 220.49 15.24 220.51 15.21
								 220.51 C15.18 220.52 15.14 220.53 15.1 220.53 C15.05 220.53 14.98 220.53 14.9 220.53 C14.84 220.53
								 14.79 220.53 14.74 220.53 C14.7 220.53 14.66 220.53 14.63 220.53 C14.6 220.52 14.57 220.52 14.55
								 220.51 C14.53 220.51 14.52 220.5 14.5 220.49 C14.49 220.48 14.48 220.47 14.47 220.45 C14.47 220.44
								 14.46 220.42 14.45 220.4 L13.55 217.71 C13.53 217.65 13.52 217.61 13.51 217.57 C13.51 217.54 13.52
								 217.52 13.54 217.5 C13.56 217.48 13.59 217.47 13.64 217.47 C13.68 217.47 13.75 217.46 13.83 217.46
								 C13.91 217.46 13.96 217.46 14 217.47 C14.04 217.47 14.08 217.48 14.1 217.48 C14.12 217.49 14.13
								 217.5 14.14 217.52 C14.15 217.54 14.16 217.55 14.17 217.58 L14.91 219.92 L14.91 219.92 L15.64 217.59
								 C15.64 217.56 15.65 217.54 15.66 217.53 C15.67 217.51 15.68 217.5 15.71 217.49 C15.73 217.48 15.76
								 217.47 15.8 217.47 C15.85 217.47 15.9 217.46 15.98 217.46 C16.05 217.46 16.11 217.47 16.15 217.47
								 C16.19 217.48 16.21 217.49 16.23 217.5 C16.24 217.52 16.25 217.55 16.24 217.58 C16.24 217.61 16.23
								 217.66 16.21 217.71 ZM20.18 220.44 C20.18 220.45 20.18 220.47 20.17 220.48 C20.16 220.49 20.14 220.5
								 20.12 220.51 C20.1 220.52 20.07 220.52 20.03 220.53 C19.99 220.53 19.94 220.53 19.89 220.53 C19.83
								 220.53 19.78 220.53 19.74 220.53 C19.71 220.52 19.68 220.52 19.66 220.51 C19.63 220.5 19.62 220.49
								 19.61 220.48 C19.6 220.46 19.59 220.45 19.59 220.44 L19.59 217.96 L19.59 217.96 L18.71 220.43 C18.7
								 220.45 18.69 220.47 18.68 220.48 C18.66 220.5 18.64 220.51 18.62 220.52 C18.6 220.52 18.56 220.53
								 18.53 220.53 C18.49 220.53 18.44 220.53 18.39 220.53 C18.34 220.53 18.29 220.53 18.25 220.53 C18.22
								 220.52 18.18 220.52 18.16 220.51 C18.14 220.5 18.12 220.49 18.1 220.48 C18.09 220.46 18.08 220.45
								 18.07 220.43 L17.22 217.96 L17.22 217.96 L17.22 220.44 C17.22 220.45 17.21 220.47 17.21 220.48 C17.2
								 220.49 17.18 220.5 17.16 220.51 C17.13 220.52 17.1 220.52 17.07 220.53 C17.03 220.53 16.98 220.53
								 16.92 220.53 C16.87 220.53 16.82 220.53 16.78 220.53 C16.75 220.52 16.72 220.52 16.69 220.51 C16.67
								 220.5 16.65 220.49 16.65 220.48 C16.64 220.46 16.63 220.45 16.63 220.44 L16.63 217.72 C16.63 217.64
								 16.65 217.58 16.7 217.54 C16.74 217.5 16.79 217.48 16.87 217.48 L17.27 217.48 C17.34 217.48 17.4
								 217.48 17.46 217.5 C17.51 217.51 17.55 217.53 17.59 217.55 C17.63 217.58 17.66 217.62 17.68 217.66
								 C17.71 217.71 17.73 217.76 17.75 217.83 L18.41 219.64 L18.42 219.64 L19.1 217.83 C19.12 217.77 19.14
								 217.71 19.17 217.67 C19.19 217.62 19.22 217.58 19.25 217.56 C19.28 217.53 19.32 217.51 19.36 217.5
								 C19.41 217.48 19.46 217.48 19.52 217.48 L19.93 217.48 C19.98 217.48 20.01 217.48 20.04 217.49 C20.07
								 217.51 20.1 217.52 20.12 217.54 C20.14 217.56 20.15 217.59 20.16 217.62 C20.17 217.65 20.18 217.69
								 20.18 217.72 L20.18 220.44 L20.18 220.44 ZM24.01 210.71 C24.01 211.14 23.67 211.49 23.23 211.49
								 L18.75 211.49 C18.32 213.24 18.52 213.46 21.55 213.46 L21.55 214.18 L18.02 214.18 L15.45 214.18
								 L12.14 214.18 L12.14 213.46 C14.86 213.46 15.31 213.24 14.88 211.49 L10.46 211.49 C10.03 211.49
								 9.68 211.14 9.68 210.71 L9.68 202.01 C9.68 201.57 10.03 201.22 10.46 201.22 L23.23 201.22 C23.67
								 201.22 24.01 201.57 24.01 202.01 L24.01 210.71 L24.01 210.71 Z" class="st3"/>
				</g>
			</g>
			<g id="group166-59" transform="translate(246.364,-94.3781)">
				<title>Virtual machine.200</title>
				<g id="shape167-60" transform="translate(10.6837,-11.7195)">
					<title>Sheet.167</title>
					<path d="M0 222.21 L12.32 222.21 L12.32 213.95 L0 213.95 L0 222.21 ZM8.87 219.8 L6.56 221.13 L6.56 218.47 L8.87
								 217.13 L8.87 219.8 ZM6.35 215.41 L8.66 216.76 L6.36 218.09 L4.04 216.75 L6.35 215.41 ZM3.81 217.12
								 L6.13 218.45 L6.13 221.13 L3.81 219.8 L3.81 217.12 Z" class="st3"/>
				</g>
				<g id="shape168-62">
					<title>Sheet.168</title>
					<path d="M31.19 196.1 L1.44 196.1 C0.65 196.1 0 196.75 0 197.54 L0 220.77 C0 221.57 0.65 222.21 1.44 222.21 L31.19
								 222.21 C31.99 222.21 32.63 221.57 32.63 220.77 L32.63 197.54 C32.63 196.75 31.99 196.1 31.19 196.1
								 ZM16.21 217.71 L15.3 220.41 C15.29 220.44 15.28 220.46 15.27 220.48 C15.26 220.49 15.24 220.51 15.21
								 220.51 C15.18 220.52 15.14 220.53 15.1 220.53 C15.05 220.53 14.98 220.53 14.9 220.53 C14.84 220.53
								 14.79 220.53 14.74 220.53 C14.7 220.53 14.66 220.53 14.63 220.53 C14.6 220.52 14.57 220.52 14.55
								 220.51 C14.53 220.51 14.52 220.5 14.5 220.49 C14.49 220.48 14.48 220.47 14.47 220.45 C14.47 220.44
								 14.46 220.42 14.45 220.4 L13.55 217.71 C13.53 217.65 13.52 217.61 13.51 217.57 C13.51 217.54 13.52
								 217.52 13.54 217.5 C13.56 217.48 13.59 217.47 13.64 217.47 C13.68 217.47 13.75 217.46 13.83 217.46
								 C13.91 217.46 13.96 217.46 14 217.47 C14.04 217.47 14.08 217.48 14.1 217.48 C14.12 217.49 14.13
								 217.5 14.14 217.52 C14.15 217.54 14.16 217.55 14.17 217.58 L14.91 219.92 L14.91 219.92 L15.64 217.59
								 C15.64 217.56 15.65 217.54 15.66 217.53 C15.67 217.51 15.68 217.5 15.71 217.49 C15.73 217.48 15.76
								 217.47 15.8 217.47 C15.85 217.47 15.9 217.46 15.98 217.46 C16.05 217.46 16.11 217.47 16.15 217.47
								 C16.19 217.48 16.21 217.49 16.23 217.5 C16.24 217.52 16.25 217.55 16.24 217.58 C16.24 217.61 16.23
								 217.66 16.21 217.71 ZM20.18 220.44 C20.18 220.45 20.18 220.47 20.17 220.48 C20.16 220.49 20.14 220.5
								 20.12 220.51 C20.1 220.52 20.07 220.52 20.03 220.53 C19.99 220.53 19.94 220.53 19.89 220.53 C19.83
								 220.53 19.78 220.53 19.74 220.53 C19.71 220.52 19.68 220.52 19.66 220.51 C19.63 220.5 19.62 220.49
								 19.61 220.48 C19.6 220.46 19.59 220.45 19.59 220.44 L19.59 217.96 L19.59 217.96 L18.71 220.43 C18.7
								 220.45 18.69 220.47 18.68 220.48 C18.66 220.5 18.64 220.51 18.62 220.52 C18.6 220.52 18.56 220.53
								 18.53 220.53 C18.49 220.53 18.44 220.53 18.39 220.53 C18.34 220.53 18.29 220.53 18.25 220.53 C18.22
								 220.52 18.18 220.52 18.16 220.51 C18.14 220.5 18.12 220.49 18.1 220.48 C18.09 220.46 18.08 220.45
								 18.07 220.43 L17.22 217.96 L17.22 217.96 L17.22 220.44 C17.22 220.45 17.21 220.47 17.21 220.48 C17.2
								 220.49 17.18 220.5 17.16 220.51 C17.13 220.52 17.1 220.52 17.07 220.53 C17.03 220.53 16.98 220.53
								 16.92 220.53 C16.87 220.53 16.82 220.53 16.78 220.53 C16.75 220.52 16.72 220.52 16.69 220.51 C16.67
								 220.5 16.65 220.49 16.65 220.48 C16.64 220.46 16.63 220.45 16.63 220.44 L16.63 217.72 C16.63 217.64
								 16.65 217.58 16.7 217.54 C16.74 217.5 16.79 217.48 16.87 217.48 L17.27 217.48 C17.34 217.48 17.4
								 217.48 17.46 217.5 C17.51 217.51 17.55 217.53 17.59 217.55 C17.63 217.58 17.66 217.62 17.68 217.66
								 C17.71 217.71 17.73 217.76 17.75 217.83 L18.41 219.64 L18.42 219.64 L19.1 217.83 C19.12 217.77 19.14
								 217.71 19.17 217.67 C19.19 217.62 19.22 217.58 19.25 217.56 C19.28 217.53 19.32 217.51 19.36 217.5
								 C19.41 217.48 19.46 217.48 19.52 217.48 L19.93 217.48 C19.98 217.48 20.01 217.48 20.04 217.49 C20.07
								 217.51 20.1 217.52 20.12 217.54 C20.14 217.56 20.15 217.59 20.16 217.62 C20.17 217.65 20.18 217.69
								 20.18 217.72 L20.18 220.44 L20.18 220.44 ZM24.01 210.71 C24.01 211.14 23.67 211.49 23.23 211.49
								 L18.75 211.49 C18.32 213.24 18.52 213.46 21.55 213.46 L21.55 214.18 L18.02 214.18 L15.45 214.18
								 L12.14 214.18 L12.14 213.46 C14.86 213.46 15.31 213.24 14.88 211.49 L10.46 211.49 C10.03 211.49
								 9.68 211.14 9.68 210.71 L9.68 202.01 C9.68 201.57 10.03 201.22 10.46 201.22 L23.23 201.22 C23.67
								 201.22 24.01 201.57 24.01 202.01 L24.01 210.71 L24.01 210.71 Z" class="st3"/>
				</g>
			</g>
			<g id="shape169-64" transform="translate(236.881,-85.6957)">
				<title>Sheet.169</title>
				<path d="M0 222.21 L47.87 222.21 L47.87 117.42 L0 117.42 L0 222.21 Z" class="st4"/>
			</g>
			<g id="group171-66" transform="translate(187.335,-123.203)">
				<title>Sheet.171</title>
				<g id="shape172-67">
					<title>Sheet.172</title>
					<path d="M31.91 203.64 L18.57 190.3 C17.98 189.71 17.26 189.38 16.41 189.38 C15.63 189.38 14.84 189.71 14.25
								 190.3 L0.92 203.64 C0.33 204.23 0 204.95 0 205.8 C0 206.58 0.33 207.36 0.92 207.95 L14.25 221.29
								 C14.84 221.88 15.56 222.21 16.41 222.21 C17.2 222.21 17.98 221.88 18.57 221.29 L31.91 207.95 C32.5
								 207.36 32.82 206.65 32.82 205.8 C32.76 204.95 32.43 204.16 31.91 203.64 ZM25.57 209.85 L25.57 206.84
								 L20.99 206.84 C20.53 208.41 19.29 209.65 17.72 210.11 L17.72 213.18 C18.37 213.64 19.35 214.69 19.35
								 215.8 C19.35 217.43 18.05 218.74 16.41 218.74 C14.78 218.74 13.47 217.43 13.47 215.8 C13.47 214.62
								 14.45 213.64 15.1 213.18 L15.1 210.18 C13.53 209.72 12.29 208.48 11.83 206.91 L7.26 206.91 L7.26
								 209.98 L2.94 205.66 L7.26 201.35 L7.26 204.36 L11.83 204.36 C12.29 202.79 13.53 201.55 15.1 201.09
								 L15.1 196.71 L12.1 196.71 L16.41 192.39 L20.73 196.71 L17.72 196.71 L17.72 201.09 C19.29 201.55
								 20.53 202.79 20.99 204.36 L25.57 204.36 L25.57 201.28 L29.88 205.6 L25.57 209.85 Z" class="st11"/>
				</g>
				<g id="shape173-69" transform="translate(12.9462,-13.2077)">
					<title>Sheet.173</title>
					<path d="M3.47 215.28 C1.57 215.28 0 216.85 0 218.74 C0 220.64 1.57 222.21 3.47 222.21 C5.36 222.21 6.93 220.64
								 6.93 218.74 C6.93 216.85 5.36 215.28 3.47 215.28 Z" class="st11"/>
				</g>
			</g>
			<g id="group176-71" transform="translate(179.592,-172.959)">
				<title>Sheet.176</title>
				<g id="shape177-72">
					<title>Lock, protected.1135</title>
					<path d="M14.31 210.23 L13.31 210.23 L13.31 208.37 C13.31 204.45 10.81 202.43 7.9 202.43 L7.42 202.43 C4.45 202.43
								 2.01 204.4 2.01 208.37 L2.01 210.23 L1.01 210.23 C0.58 210.23 0 210.81 0 211.23 L0 221.2 C-0 221.62
								 0.58 222.21 1.01 222.21 L14.31 222.21 C14.74 222.21 15.32 221.62 15.32 221.2 L15.32 211.23 C15.32
								 210.81 14.74 210.23 14.31 210.23 ZM8.43 216.11 L8.43 220.25 L6.94 220.25 L6.94 216.11 C6.36 215.85
								 5.94 215.26 5.94 214.57 C5.94 213.62 6.73 212.82 7.69 212.82 C8.64 212.82 9.44 213.62 9.44 214.57
								 C9.38 215.21 9.01 215.79 8.43 216.11 ZM11.45 210.23 L3.87 210.23 L3.87 208.37 C3.87 205.88 5.2 204.18
								 7.42 204.18 L7.9 204.18 C10.18 204.18 11.45 205.88 11.45 208.37 L11.45 210.23 Z" class="st5"/>
				</g>
				<g id="shape178-74" transform="translate(2.28102,-0.389869)">
					<title>Sheet.178</title>
					<rect x="0" y="211.839" width="10.7581" height="10.3682" class="st6"/>
				</g>
			</g>
			<g id="shape179-76" transform="translate(176.507,-172.259)">
				<title>Sheet.179</title>
				<desc>NSG</desc>
				<rect x="0" y="209.566" width="21.4894" height="12.6408" class="st7"/>
				<text x="4.72" y="217.69" class="st8">NSG</text>			</g>
			<g id="shape180-79" transform="translate(220.747,-139.68)">
				<title>Sheet.180</title>
				<path d="M0 222.21 L17.33 222.21" class="st9"/>
			</g>
			<g id="shape181-84" transform="translate(42.311,-49.899) rotate(-53.4191)">
				<title>Sheet.181</title>
				<path d="M0 222.21 L33.56 222.21" class="st9"/>
			</g>
			<g id="shape182-89" transform="translate(399.183,-49.899) rotate(53.4191)">
				<title>Sheet.182</title>
				<path d="M0 222.21 L33.56 222.21" class="st9"/>
			</g>
			<g id="shape183-94" transform="translate(163.262,-139.68)">
				<title>Sheet.183</title>
				<path d="M0 222.21 L17.03 222.21" class="st9"/>
			</g>
			<g id="shape184-99" transform="translate(302.762,-15.9457)">
				<title>Sheet.184</title>
				<rect x="0" y="43.1708" width="118.969" height="179.036" class="st2"/>
			</g>
			<g id="group185-101" transform="translate(314.32,-123.203)">
				<title>Sheet.185</title>
				<g id="shape186-102">
					<title>Sheet.186</title>
					<path d="M31.91 203.64 L18.57 190.3 C17.98 189.71 17.26 189.38 16.41 189.38 C15.63 189.38 14.84 189.71 14.25
								 190.3 L0.92 203.64 C0.33 204.23 0 204.95 0 205.8 C0 206.58 0.33 207.36 0.92 207.95 L14.25 221.29
								 C14.84 221.88 15.56 222.21 16.41 222.21 C17.2 222.21 17.98 221.88 18.57 221.29 L31.91 207.95 C32.5
								 207.36 32.82 206.65 32.82 205.8 C32.76 204.95 32.43 204.16 31.91 203.64 ZM25.57 209.85 L25.57 206.84
								 L20.99 206.84 C20.53 208.41 19.29 209.65 17.72 210.11 L17.72 213.18 C18.37 213.64 19.35 214.69 19.35
								 215.8 C19.35 217.43 18.05 218.74 16.41 218.74 C14.78 218.74 13.47 217.43 13.47 215.8 C13.47 214.62
								 14.45 213.64 15.1 213.18 L15.1 210.18 C13.53 209.72 12.29 208.48 11.83 206.91 L7.26 206.91 L7.26
								 209.98 L2.94 205.66 L7.26 201.35 L7.26 204.36 L11.83 204.36 C12.29 202.79 13.53 201.55 15.1 201.09
								 L15.1 196.71 L12.1 196.71 L16.41 192.39 L20.73 196.71 L17.72 196.71 L17.72 201.09 C19.29 201.55
								 20.53 202.79 20.99 204.36 L25.57 204.36 L25.57 201.28 L29.88 205.6 L25.57 209.85 Z" class="st11"/>
				</g>
				<g id="shape187-104" transform="translate(12.9462,-13.2077)">
					<title>Sheet.187</title>
					<path d="M3.47 215.28 C1.57 215.28 0 216.85 0 218.74 C0 220.64 1.57 222.21 3.47 222.21 C5.36 222.21 6.93 220.64
								 6.93 218.74 C6.93 216.85 5.36 215.28 3.47 215.28 Z" class="st11"/>
				</g>
			</g>
			<g id="group190-106" transform="translate(306.576,-172.959)">
				<title>Sheet.190</title>
				<g id="shape191-107">
					<title>Lock, protected.1135</title>
					<path d="M14.31 210.23 L13.31 210.23 L13.31 208.37 C13.31 204.45 10.81 202.43 7.9 202.43 L7.42 202.43 C4.45 202.43
								 2.01 204.4 2.01 208.37 L2.01 210.23 L1.01 210.23 C0.58 210.23 0 210.81 0 211.23 L0 221.2 C-0 221.62
								 0.58 222.21 1.01 222.21 L14.31 222.21 C14.74 222.21 15.32 221.62 15.32 221.2 L15.32 211.23 C15.32
								 210.81 14.74 210.23 14.31 210.23 ZM8.43 216.11 L8.43 220.25 L6.94 220.25 L6.94 216.11 C6.36 215.85
								 5.94 215.26 5.94 214.57 C5.94 213.62 6.73 212.82 7.69 212.82 C8.64 212.82 9.44 213.62 9.44 214.57
								 C9.38 215.21 9.01 215.79 8.43 216.11 ZM11.45 210.23 L3.87 210.23 L3.87 208.37 C3.87 205.88 5.2 204.18
								 7.42 204.18 L7.9 204.18 C10.18 204.18 11.45 205.88 11.45 208.37 L11.45 210.23 Z" class="st5"/>
				</g>
				<g id="shape192-109" transform="translate(2.28102,-0.389869)">
					<title>Sheet.192</title>
					<rect x="0" y="211.839" width="10.7581" height="10.3682" class="st6"/>
				</g>
			</g>
			<g id="shape193-111" transform="translate(303.492,-172.259)">
				<title>Sheet.193</title>
				<desc>NSG</desc>
				<rect x="0" y="209.566" width="21.4894" height="12.6408" class="st7"/>
				<text x="4.72" y="217.69" class="st8">NSG</text>			</g>
			<g id="shape194-114" transform="translate(290.247,-139.68)">
				<title>Sheet.194</title>
				<path d="M0 222.21 L17.03 222.21" class="st9"/>
			</g>
			<g id="shape195-119" transform="translate(384.032,-56.8461)">
				<title>Sheet.195</title>
				<path d="M0 222.21 L12.32 222.21 L12.32 213.95 L0 213.95 L0 222.21 ZM8.87 219.8 L6.56 221.13 L6.56 218.47 L8.87 217.13
							 L8.87 219.8 ZM6.35 215.41 L8.66 216.76 L6.36 218.09 L4.04 216.75 L6.35 215.41 ZM3.81 217.12 L6.13 218.45
							 L6.13 221.13 L3.81 219.8 L3.81 217.12 Z" class="st3"/>
			</g>
			<g id="shape196-121" transform="translate(373.349,-45.1266)">
				<title>Sheet.196</title>
				<path d="M31.19 196.1 L1.44 196.1 C0.65 196.1 0 196.75 0 197.54 L0 220.77 C0 221.57 0.65 222.21 1.44 222.21 L31.19
							 222.21 C31.99 222.21 32.63 221.57 32.63 220.77 L32.63 197.54 C32.63 196.75 31.99 196.1 31.19 196.1 ZM16.21
							 217.71 L15.3 220.41 C15.29 220.44 15.28 220.46 15.27 220.48 C15.26 220.49 15.24 220.51 15.21 220.51
							 C15.18 220.52 15.14 220.53 15.1 220.53 C15.05 220.53 14.98 220.53 14.9 220.53 C14.84 220.53 14.79 220.53
							 14.74 220.53 C14.7 220.53 14.66 220.53 14.63 220.53 C14.6 220.52 14.57 220.52 14.55 220.51 C14.53 220.51
							 14.52 220.5 14.5 220.49 C14.49 220.48 14.48 220.47 14.47 220.45 C14.47 220.44 14.46 220.42 14.45 220.4
							 L13.55 217.71 C13.53 217.65 13.52 217.61 13.51 217.57 C13.51 217.54 13.52 217.52 13.54 217.5 C13.56
							 217.48 13.59 217.47 13.64 217.47 C13.68 217.47 13.75 217.46 13.83 217.46 C13.91 217.46 13.96 217.46
							 14 217.47 C14.04 217.47 14.08 217.48 14.1 217.48 C14.12 217.49 14.13 217.5 14.14 217.52 C14.15 217.54
							 14.16 217.55 14.17 217.58 L14.91 219.92 L14.91 219.92 L15.64 217.59 C15.64 217.56 15.65 217.54 15.66
							 217.53 C15.67 217.51 15.68 217.5 15.71 217.49 C15.73 217.48 15.76 217.47 15.8 217.47 C15.85 217.47 15.9
							 217.46 15.98 217.46 C16.05 217.46 16.11 217.47 16.15 217.47 C16.19 217.48 16.21 217.49 16.23 217.5 C16.24
							 217.52 16.25 217.55 16.24 217.58 C16.24 217.61 16.23 217.66 16.21 217.71 ZM20.18 220.44 C20.18 220.45
							 20.18 220.47 20.17 220.48 C20.16 220.49 20.14 220.5 20.12 220.51 C20.1 220.52 20.07 220.52 20.03 220.53
							 C19.99 220.53 19.94 220.53 19.89 220.53 C19.83 220.53 19.78 220.53 19.74 220.53 C19.71 220.52 19.68
							 220.52 19.66 220.51 C19.63 220.5 19.62 220.49 19.61 220.48 C19.6 220.46 19.59 220.45 19.59 220.44 L19.59
							 217.96 L19.59 217.96 L18.71 220.43 C18.7 220.45 18.69 220.47 18.68 220.48 C18.66 220.5 18.64 220.51
							 18.62 220.52 C18.6 220.52 18.56 220.53 18.53 220.53 C18.49 220.53 18.44 220.53 18.39 220.53 C18.34 220.53
							 18.29 220.53 18.25 220.53 C18.22 220.52 18.18 220.52 18.16 220.51 C18.14 220.5 18.12 220.49 18.1 220.48
							 C18.09 220.46 18.08 220.45 18.07 220.43 L17.22 217.96 L17.22 217.96 L17.22 220.44 C17.22 220.45 17.21
							 220.47 17.21 220.48 C17.2 220.49 17.18 220.5 17.16 220.51 C17.13 220.52 17.1 220.52 17.07 220.53 C17.03
							 220.53 16.98 220.53 16.92 220.53 C16.87 220.53 16.82 220.53 16.78 220.53 C16.75 220.52 16.72 220.52
							 16.69 220.51 C16.67 220.5 16.65 220.49 16.65 220.48 C16.64 220.46 16.63 220.45 16.63 220.44 L16.63 217.72
							 C16.63 217.64 16.65 217.58 16.7 217.54 C16.74 217.5 16.79 217.48 16.87 217.48 L17.27 217.48 C17.34 217.48
							 17.4 217.48 17.46 217.5 C17.51 217.51 17.55 217.53 17.59 217.55 C17.63 217.58 17.66 217.62 17.68 217.66
							 C17.71 217.71 17.73 217.76 17.75 217.83 L18.41 219.64 L18.42 219.64 L19.1 217.83 C19.12 217.77 19.14
							 217.71 19.17 217.67 C19.19 217.62 19.22 217.58 19.25 217.56 C19.28 217.53 19.32 217.51 19.36 217.5 C19.41
							 217.48 19.46 217.48 19.52 217.48 L19.93 217.48 C19.98 217.48 20.01 217.48 20.04 217.49 C20.07 217.51
							 20.1 217.52 20.12 217.54 C20.14 217.56 20.15 217.59 20.16 217.62 C20.17 217.65 20.18 217.69 20.18 217.72
							 L20.18 220.44 L20.18 220.44 ZM24.01 210.71 C24.01 211.14 23.67 211.49 23.23 211.49 L18.75 211.49 C18.32
							 213.24 18.52 213.46 21.55 213.46 L21.55 214.18 L18.02 214.18 L15.45 214.18 L12.14 214.18 L12.14 213.46
							 C14.86 213.46 15.31 213.24 14.88 211.49 L10.46 211.49 C10.03 211.49 9.68 211.14 9.68 210.71 L9.68 202.01
							 C9.68 201.57 10.03 201.22 10.46 201.22 L23.23 201.22 C23.67 201.22 24.01 201.57 24.01 202.01 L24.01
							 210.71 L24.01 210.71 Z" class="st3"/>
			</g>
			<g id="shape197-123" transform="translate(363.088,-27.1957)">
				<title>Sheet.197</title>
				<path d="M0 222.21 L53.15 222.21 L53.15 58.92 L0 58.92 L0 222.21 Z" class="st4"/>
			</g>
			<g id="shape202-125" transform="translate(70.4499,-14.6276)">
				<title>Sheet.202</title>
				<rect x="0" y="165.957" width="91.8777" height="56.25" class="st2"/>
			</g>
			<g id="group204-127" transform="translate(78.597,-46.8278)">
				<title>Sheet.204</title>
				<g id="shape205-128">
					<title>Lock, protected.1135</title>
					<path d="M14.31 210.23 L13.31 210.23 L13.31 208.37 C13.31 204.45 10.81 202.43 7.9 202.43 L7.42 202.43 C4.45 202.43
								 2.01 204.4 2.01 208.37 L2.01 210.23 L1.01 210.23 C0.58 210.23 0 210.81 0 211.23 L0 221.2 C-0 221.62
								 0.58 222.21 1.01 222.21 L14.31 222.21 C14.74 222.21 15.32 221.62 15.32 221.2 L15.32 211.23 C15.32
								 210.81 14.74 210.23 14.31 210.23 ZM8.43 216.11 L8.43 220.25 L6.94 220.25 L6.94 216.11 C6.36 215.85
								 5.94 215.26 5.94 214.57 C5.94 213.62 6.73 212.82 7.69 212.82 C8.64 212.82 9.44 213.62 9.44 214.57
								 C9.38 215.21 9.01 215.79 8.43 216.11 ZM11.45 210.23 L3.87 210.23 L3.87 208.37 C3.87 205.88 5.2 204.18
								 7.42 204.18 L7.9 204.18 C10.18 204.18 11.45 205.88 11.45 208.37 L11.45 210.23 Z" class="st5"/>
				</g>
				<g id="shape206-130" transform="translate(2.28102,-0.389869)">
					<title>Sheet.206</title>
					<rect x="0" y="211.839" width="10.7581" height="10.3682" class="st6"/>
				</g>
			</g>
			<g id="shape207-132" transform="translate(75.5124,-46.1276)">
				<title>Sheet.207</title>
				<desc>NSG</desc>
				<rect x="0" y="209.566" width="21.4894" height="12.6408" class="st7"/>
				<text x="4.72" y="217.69" class="st8">NSG</text>			</g>
			<g id="shape208-135" transform="translate(172.262,-14.6276)">
				<title>Sheet.208</title>
				<rect x="0" y="165.957" width="118.969" height="56.25" class="st2"/>
			</g>
			<g id="shape210-137" transform="translate(201.794,-28.1276)">
				<title>Sheet.210</title>
				<path d="M0 222.21 L82.89 222.21 L82.89 183.96 L0 183.96 L0 222.21 Z" class="st12"/>
			</g>
			<g id="group212-139" transform="translate(178.889,-45.5912)">
				<title>Sheet.212</title>
				<g id="shape213-140">
					<title>Lock, protected.1135</title>
					<path d="M14.31 210.23 L13.31 210.23 L13.31 208.37 C13.31 204.45 10.81 202.43 7.9 202.43 L7.42 202.43 C4.45 202.43
								 2.01 204.4 2.01 208.37 L2.01 210.23 L1.01 210.23 C0.58 210.23 0 210.81 0 211.23 L0 221.2 C-0 221.62
								 0.58 222.21 1.01 222.21 L14.31 222.21 C14.74 222.21 15.32 221.62 15.32 221.2 L15.32 211.23 C15.32
								 210.81 14.74 210.23 14.31 210.23 ZM8.43 216.11 L8.43 220.25 L6.94 220.25 L6.94 216.11 C6.36 215.85
								 5.94 215.26 5.94 214.57 C5.94 213.62 6.73 212.82 7.69 212.82 C8.64 212.82 9.44 213.62 9.44 214.57
								 C9.38 215.21 9.01 215.79 8.43 216.11 ZM11.45 210.23 L3.87 210.23 L3.87 208.37 C3.87 205.88 5.2 204.18
								 7.42 204.18 L7.9 204.18 C10.18 204.18 11.45 205.88 11.45 208.37 L11.45 210.23 Z" class="st5"/>
				</g>
				<g id="shape214-142" transform="translate(2.28102,-0.389869)">
					<title>Sheet.214</title>
					<rect x="0" y="211.839" width="10.7581" height="10.3682" class="st6"/>
				</g>
			</g>
			<g id="shape215-144" transform="translate(175.804,-44.891)">
				<title>Sheet.215</title>
				<desc>NSG</desc>
				<rect x="0" y="209.566" width="21.4894" height="12.6408" class="st7"/>
				<text x="4.72" y="217.69" class="st8">NSG</text>			</g>
			<g id="group224-147" transform="translate(119.38,-26.4223)">
				<title>Virtual machine</title>
				<g id="shape225-148" transform="translate(10.6837,-11.7195)">
					<title>Sheet.225</title>
					<path d="M0 222.21 L12.32 222.21 L12.32 213.95 L0 213.95 L0 222.21 ZM8.87 219.8 L6.56 221.13 L6.56 218.47 L8.87
								 217.13 L8.87 219.8 ZM6.35 215.41 L8.66 216.76 L6.36 218.09 L4.04 216.75 L6.35 215.41 ZM3.81 217.12
								 L6.13 218.45 L6.13 221.13 L3.81 219.8 L3.81 217.12 Z" class="st3"/>
				</g>
				<g id="shape226-150">
					<title>Sheet.226</title>
					<path d="M31.19 196.1 L1.44 196.1 C0.65 196.1 0 196.75 0 197.54 L0 220.77 C0 221.57 0.65 222.21 1.44 222.21 L31.19
								 222.21 C31.99 222.21 32.63 221.57 32.63 220.77 L32.63 197.54 C32.63 196.75 31.99 196.1 31.19 196.1
								 ZM16.21 217.71 L15.3 220.41 C15.29 220.44 15.28 220.46 15.27 220.48 C15.26 220.49 15.24 220.51 15.21
								 220.51 C15.18 220.52 15.14 220.53 15.1 220.53 C15.05 220.53 14.98 220.53 14.9 220.53 C14.84 220.53
								 14.79 220.53 14.74 220.53 C14.7 220.53 14.66 220.53 14.63 220.53 C14.6 220.52 14.57 220.52 14.55
								 220.51 C14.53 220.51 14.52 220.5 14.5 220.49 C14.49 220.48 14.48 220.47 14.47 220.45 C14.47 220.44
								 14.46 220.42 14.45 220.4 L13.55 217.71 C13.53 217.65 13.52 217.61 13.51 217.57 C13.51 217.54 13.52
								 217.52 13.54 217.5 C13.56 217.48 13.59 217.47 13.64 217.47 C13.68 217.47 13.75 217.46 13.83 217.46
								 C13.91 217.46 13.96 217.46 14 217.47 C14.04 217.47 14.08 217.48 14.1 217.48 C14.12 217.49 14.13
								 217.5 14.14 217.52 C14.15 217.54 14.16 217.55 14.17 217.58 L14.91 219.92 L14.91 219.92 L15.64 217.59
								 C15.64 217.56 15.65 217.54 15.66 217.53 C15.67 217.51 15.68 217.5 15.71 217.49 C15.73 217.48 15.76
								 217.47 15.8 217.47 C15.85 217.47 15.9 217.46 15.98 217.46 C16.05 217.46 16.11 217.47 16.15 217.47
								 C16.19 217.48 16.21 217.49 16.23 217.5 C16.24 217.52 16.25 217.55 16.24 217.58 C16.24 217.61 16.23
								 217.66 16.21 217.71 ZM20.18 220.44 C20.18 220.45 20.18 220.47 20.17 220.48 C20.16 220.49 20.14 220.5
								 20.12 220.51 C20.1 220.52 20.07 220.52 20.03 220.53 C19.99 220.53 19.94 220.53 19.89 220.53 C19.83
								 220.53 19.78 220.53 19.74 220.53 C19.71 220.52 19.68 220.52 19.66 220.51 C19.63 220.5 19.62 220.49
								 19.61 220.48 C19.6 220.46 19.59 220.45 19.59 220.44 L19.59 217.96 L19.59 217.96 L18.71 220.43 C18.7
								 220.45 18.69 220.47 18.68 220.48 C18.66 220.5 18.64 220.51 18.62 220.52 C18.6 220.52 18.56 220.53
								 18.53 220.53 C18.49 220.53 18.44 220.53 18.39 220.53 C18.34 220.53 18.29 220.53 18.25 220.53 C18.22
								 220.52 18.18 220.52 18.16 220.51 C18.14 220.5 18.12 220.49 18.1 220.48 C18.09 220.46 18.08 220.45
								 18.07 220.43 L17.22 217.96 L17.22 217.96 L17.22 220.44 C17.22 220.45 17.21 220.47 17.21 220.48 C17.2
								 220.49 17.18 220.5 17.16 220.51 C17.13 220.52 17.1 220.52 17.07 220.53 C17.03 220.53 16.98 220.53
								 16.92 220.53 C16.87 220.53 16.82 220.53 16.78 220.53 C16.75 220.52 16.72 220.52 16.69 220.51 C16.67
								 220.5 16.65 220.49 16.65 220.48 C16.64 220.46 16.63 220.45 16.63 220.44 L16.63 217.72 C16.63 217.64
								 16.65 217.58 16.7 217.54 C16.74 217.5 16.79 217.48 16.87 217.48 L17.27 217.48 C17.34 217.48 17.4
								 217.48 17.46 217.5 C17.51 217.51 17.55 217.53 17.59 217.55 C17.63 217.58 17.66 217.62 17.68 217.66
								 C17.71 217.71 17.73 217.76 17.75 217.83 L18.41 219.64 L18.42 219.64 L19.1 217.83 C19.12 217.77 19.14
								 217.71 19.17 217.67 C19.19 217.62 19.22 217.58 19.25 217.56 C19.28 217.53 19.32 217.51 19.36 217.5
								 C19.41 217.48 19.46 217.48 19.52 217.48 L19.93 217.48 C19.98 217.48 20.01 217.48 20.04 217.49 C20.07
								 217.51 20.1 217.52 20.12 217.54 C20.14 217.56 20.15 217.59 20.16 217.62 C20.17 217.65 20.18 217.69
								 20.18 217.72 L20.18 220.44 L20.18 220.44 ZM24.01 210.71 C24.01 211.14 23.67 211.49 23.23 211.49
								 L18.75 211.49 C18.32 213.24 18.52 213.46 21.55 213.46 L21.55 214.18 L18.02 214.18 L15.45 214.18
								 L12.14 214.18 L12.14 213.46 C14.86 213.46 15.31 213.24 14.88 211.49 L10.46 211.49 C10.03 211.49
								 9.68 211.14 9.68 210.71 L9.68 202.01 C9.68 201.57 10.03 201.22 10.46 201.22 L23.23 201.22 C23.67
								 201.22 24.01 201.57 24.01 202.01 L24.01 210.71 L24.01 210.71 Z" class="st3"/>
				</g>
			</g>
			<g id="shape231-152" transform="translate(373.35,-158.876)">
				<title>Sheet.231</title>
				<path d="M32.55 198.25 C32.55 198.83 32.63 197.01 32.13 196.51 C31.88 196.26 31.55 196.1 31.3 196.1 C31.22 196.1
							 31.13 196.1 31.05 196.1 L1.42 196.1 C0.67 196.1 0 196.84 0 197.75 L0 220.55 C0 221.46 0.58 222.21 1.42
							 222.21 L31.13 222.21 C31.88 222.21 32.55 221.46 32.55 220.55 L32.55 198.25 Z" class="st13"/>
			</g>
			<g id="group232-154" transform="translate(382.1,-162.022)">
				<title>Database server.1010</title>
				<g id="shape233-155" transform="translate(7.32101,0)">
					<title>Sheet.233</title>
					<path d="M3.9 213.57 C2.4 213.57 0.81 213.27 0 212.63 L0 220.45 C0 221.42 1.75 222.21 3.9 222.21 C6.06 222.21
								 7.81 221.42 7.81 220.45 L7.81 212.63 C6.99 213.27 5.41 213.57 3.9 213.57 Z" class="st14"/>
				</g>
				<g id="shape234-157" transform="translate(7.32101,-9.19563)">
					<title>Sheet.234</title>
					<path d="M7.81 220.81 C7.81 220.05 6.06 219.42 3.9 219.42 C1.75 219.42 0 220.05 0 220.81 C0 221.58 1.75 222.21
								 3.9 222.21 C6.06 222.21 7.81 221.58 7.81 220.81 Z" class="st14"/>
				</g>
				<g id="shape235-159" transform="translate(0,-0.000484414)">
					<title>Sheet.235</title>
					<path d="M6.34 217.36 L6.34 212.63 L6.34 211.75 L6.34 211.62 C6.34 210.32 7.9 209.59 9.76 209.35 L9.76 203.29
								 C9.76 202.77 9.32 202.35 8.79 202.35 L0.98 202.35 C0.44 202.35 0 202.77 0 203.29 L0 222.21 L7.41
								 222.21 C6.73 221.74 6.34 221.14 6.34 220.45 L6.34 220.27 L1.46 220.27 L1.46 219.3 L6.34 219.3 L6.34
								 218.33 L1.46 218.33 L1.46 217.36 L6.34 217.36 L6.34 217.36 ZM1.46 205.25 L8.3 205.25 L8.3 206.22
								 L1.46 206.22 L1.46 205.25 Z" class="st14"/>
				</g>
			</g>
			<g id="shape236-161" transform="translate(373.35,-105.428)">
				<title>Sheet.236</title>
				<path d="M32.55 198.25 C32.55 198.83 32.63 197.01 32.13 196.51 C31.88 196.26 31.55 196.1 31.3 196.1 C31.22 196.1
							 31.13 196.1 31.05 196.1 L1.42 196.1 C0.67 196.1 0 196.84 0 197.75 L0 220.55 C0 221.46 0.58 222.21 1.42
							 222.21 L31.13 222.21 C31.88 222.21 32.55 221.46 32.55 220.55 L32.55 198.25 Z" class="st13"/>
			</g>
			<g id="group237-163" transform="translate(382.1,-108.574)">
				<title>Database server.847</title>
				<g id="shape238-164" transform="translate(7.32101,0)">
					<title>Sheet.238</title>
					<path d="M3.9 213.57 C2.4 213.57 0.81 213.27 0 212.63 L0 220.45 C0 221.42 1.75 222.21 3.9 222.21 C6.06 222.21
								 7.81 221.42 7.81 220.45 L7.81 212.63 C6.99 213.27 5.41 213.57 3.9 213.57 Z" class="st14"/>
				</g>
				<g id="shape239-166" transform="translate(7.32101,-9.19563)">
					<title>Sheet.239</title>
					<path d="M7.81 220.81 C7.81 220.05 6.06 219.42 3.9 219.42 C1.75 219.42 0 220.05 0 220.81 C0 221.58 1.75 222.21
								 3.9 222.21 C6.06 222.21 7.81 221.58 7.81 220.81 Z" class="st14"/>
				</g>
				<g id="shape240-168" transform="translate(0,-0.000484414)">
					<title>Sheet.240</title>
					<path d="M6.34 217.36 L6.34 212.63 L6.34 211.75 L6.34 211.62 C6.34 210.32 7.9 209.59 9.76 209.35 L9.76 203.29
								 C9.76 202.77 9.32 202.35 8.79 202.35 L0.98 202.35 C0.44 202.35 0 202.77 0 203.29 L0 222.21 L7.41
								 222.21 C6.73 221.74 6.34 221.14 6.34 220.45 L6.34 220.27 L1.46 220.27 L1.46 219.3 L6.34 219.3 L6.34
								 218.33 L1.46 218.33 L1.46 217.36 L6.34 217.36 L6.34 217.36 ZM1.46 205.25 L8.3 205.25 L8.3 206.22
								 L1.46 206.22 L1.46 205.25 Z" class="st14"/>
				</g>
			</g>
			<g id="shape241-170" transform="translate(173.742,-55.6889) rotate(-51.5367)">
				<title>Sheet.241</title>
				<path d="M0 222.21 L34.59 222.21" class="st9"/>
			</g>
			<g id="shape242-175" transform="translate(489.389,-88.6713) rotate(39.6061)">
				<title>Sheet.242</title>
				<path d="M0 222.21 L26.65 222.21" class="st9"/>
			</g>
			<g id="shape243-180" transform="translate(246.295,-35.0238)">
				<title>Sheet.243</title>
				<path d="M32.55 198.25 C32.55 198.83 32.63 197.01 32.13 196.51 C31.88 196.26 31.55 196.1 31.3 196.1 C31.22 196.1
							 31.13 196.1 31.05 196.1 L1.42 196.1 C0.67 196.1 0 196.84 0 197.75 L0 220.55 C0 221.46 0.58 222.21 1.42
							 222.21 L31.13 222.21 C31.88 222.21 32.55 221.46 32.55 220.55 L32.55 198.25 Z" class="st13"/>
			</g>
			<g id="group244-182" transform="translate(254.719,-38.3552)">
				<title>Sheet.244</title>
				<g id="shape245-183" transform="translate(3.57178,-0.0668697)">
					<title>Domain controller (opaque).5007</title>
					<path d="M0.65 222.21 C0.18 222.21 0 221.91 0.23 221.52 L5.68 212.54 C5.91 212.15 6.3 212.15 6.53 212.54 L11.98
								 221.52 C12.21 221.91 12.03 222.21 11.56 222.21 L0.65 222.21 Z" class="st14"/>
				</g>
				<g id="shape246-185">
					<title>Domain controller (opaque).5008</title>
					<path d="M2.85 221.59 L3.62 220.31 L1.43 220.31 L1.43 219.36 L4.2 219.36 L4.78 218.41 L1.43 218.41 L1.43 217.46
								 L5.35 217.46 L8.75 211.88 C8.94 211.56 9.23 211.36 9.56 211.32 L9.56 203.69 C9.56 203.18 9.13 202.76
								 8.6 202.76 L0.96 202.76 C0.43 202.76 0 203.18 0 203.69 L0 222.21 L2.67 222.21 C2.67 222 2.72 221.79
								 2.85 221.59 ZM1.43 205.61 L8.12 205.61 L8.12 206.56 L1.43 206.56 L1.43 205.61 Z" class="st14"/>
				</g>
			</g>
			<g id="shape247-187" transform="translate(207.555,-35.0238)">
				<title>Sheet.247</title>
				<path d="M32.55 198.25 C32.55 198.83 32.63 197.01 32.13 196.51 C31.88 196.26 31.55 196.1 31.3 196.1 C31.22 196.1
							 31.13 196.1 31.05 196.1 L1.42 196.1 C0.67 196.1 0 196.84 0 197.75 L0 220.55 C0 221.46 0.58 222.21 1.42
							 222.21 L31.13 222.21 C31.88 222.21 32.55 221.46 32.55 220.55 L32.55 198.25 Z" class="st13"/>
			</g>
			<g id="group248-189" transform="translate(215.979,-38.3552)">
				<title>Sheet.248</title>
				<g id="shape249-190" transform="translate(3.57178,-0.0668697)">
					<title>Domain controller (opaque).5007</title>
					<path d="M0.65 222.21 C0.18 222.21 0 221.91 0.23 221.52 L5.68 212.54 C5.91 212.15 6.3 212.15 6.53 212.54 L11.98
								 221.52 C12.21 221.91 12.03 222.21 11.56 222.21 L0.65 222.21 Z" class="st14"/>
				</g>
				<g id="shape250-192">
					<title>Domain controller (opaque).5008</title>
					<path d="M2.85 221.59 L3.62 220.31 L1.43 220.31 L1.43 219.36 L4.2 219.36 L4.78 218.41 L1.43 218.41 L1.43 217.46
								 L5.35 217.46 L8.75 211.88 C8.94 211.56 9.23 211.36 9.56 211.32 L9.56 203.69 C9.56 203.18 9.13 202.76
								 8.6 202.76 L0.96 202.76 C0.43 202.76 0 203.18 0 203.69 L0 222.21 L2.67 222.21 C2.67 222 2.72 221.79
								 2.85 221.59 ZM1.43 205.61 L8.12 205.61 L8.12 206.56 L1.43 206.56 L1.43 205.61 Z" class="st14"/>
				</g>
			</g>
			<g id="group260-194" transform="translate(19.6009,-123.203)">
				<title>Sheet.260</title>
				<g id="shape261-195">
					<title>Sheet.261</title>
					<path d="M31.91 203.64 L18.57 190.3 C17.98 189.71 17.26 189.38 16.41 189.38 C15.63 189.38 14.84 189.71 14.25
								 190.3 L0.92 203.64 C0.33 204.23 0 204.95 0 205.8 C0 206.58 0.33 207.36 0.92 207.95 L14.25 221.29
								 C14.84 221.88 15.56 222.21 16.41 222.21 C17.2 222.21 17.98 221.88 18.57 221.29 L31.91 207.95 C32.5
								 207.36 32.82 206.65 32.82 205.8 C32.76 204.95 32.43 204.16 31.91 203.64 ZM25.57 209.85 L25.57 206.84
								 L20.99 206.84 C20.53 208.41 19.29 209.65 17.72 210.11 L17.72 213.18 C18.37 213.64 19.35 214.69 19.35
								 215.8 C19.35 217.43 18.05 218.74 16.41 218.74 C14.78 218.74 13.47 217.43 13.47 215.8 C13.47 214.62
								 14.45 213.64 15.1 213.18 L15.1 210.18 C13.53 209.72 12.29 208.48 11.83 206.91 L7.26 206.91 L7.26
								 209.98 L2.94 205.66 L7.26 201.35 L7.26 204.36 L11.83 204.36 C12.29 202.79 13.53 201.55 15.1 201.09
								 L15.1 196.71 L12.1 196.71 L16.41 192.39 L20.73 196.71 L17.72 196.71 L17.72 201.09 C19.29 201.55
								 20.53 202.79 20.99 204.36 L25.57 204.36 L25.57 201.28 L29.88 205.6 L25.57 209.85 Z" class="st11"/>
				</g>
				<g id="shape262-197" transform="translate(12.9462,-13.2077)">
					<title>Sheet.262</title>
					<path d="M3.47 215.28 C1.57 215.28 0 216.85 0 218.74 C0 220.64 1.57 222.21 3.47 222.21 C5.36 222.21 6.93 220.64
								 6.93 218.74 C6.93 216.85 5.36 215.28 3.47 215.28 Z" class="st11"/>
				</g>
			</g>
			<g id="shape265-199" transform="translate(-2.19797,-139.481) rotate(-0.566796)">
				<title>Service Endpoint.1184</title>
				<path d="M0 222.21 A3.312 3.312 0 0 1 6.62 222.21 A3.312 3.312 0 1 1 0 222.21 Z" class="st15"/>
				<path d="M6.62 222.21 L19.01 222.21" class="st16"/>
				<path d="M0 222.21 A3.312 3.312 0 0 1 6.62 222.21 A3.312 3.312 0 1 1 0 222.21" class="st16"/>
			</g>
			<g id="shape266-203" transform="translate(32.7233,-39.6393) rotate(-0.156071)">
				<title>Service Endpoint.1219</title>
				<path d="M0 222.21 A3.312 3.312 0 0 1 6.62 222.21 A3.312 3.312 0 1 1 0 222.21 Z" class="st15"/>
				<path d="M6.62 222.21 L87.18 222.21" class="st16"/>
				<path d="M0 222.21 A3.312 3.312 0 0 1 6.62 222.21 A3.312 3.312 0 1 1 0 222.21" class="st16"/>
			</g>
			<g id="group272-207" transform="translate(403.112,5.68434E-14)">
				<title>Sheet.272</title>
				<g id="shape216-208">
					<title>Sheet.216</title>
					<rect x="0" y="213.411" width="17.325" height="8.79545" class="st17"/>
				</g>
				<g id="group217-210" transform="translate(0.45,-1.23514)">
					<title>Virtual Network</title>
					<g id="shape218-211" transform="translate(12.0617,0)">
						<title>Sheet.218</title>
						<path d="M5.26 218.42 L4.21 217.57 L0.57 214.64 L0 215.13 L4.08 218.42 L0 221.71 L0.57 222.21 L4.21 219.27
									 L5.26 218.42 Z" class="st5"/>
					</g>
					<g id="shape219-213">
						<title>Sheet.219</title>
						<path d="M0 218.42 L1.05 217.57 L4.69 214.64 L5.26 215.13 L1.18 218.42 L5.26 221.71 L4.69 222.21 L1.05 219.27
									 L0 218.42 Z" class="st5"/>
					</g>
					<g id="shape220-215" transform="translate(4.4738,-2.9363)">
						<title>Sheet.220</title>
						<path d="M2.11 221.36 C2.11 221.82 1.62 222.21 1.05 222.21 C0.44 222.21 0 221.82 0 221.36 C0 220.9 0.48 220.51
									 1.05 220.51 C1.62 220.51 2.11 220.86 2.11 221.36 Z" class="st5"/>
					</g>
					<g id="shape221-217" transform="translate(7.63177,-2.9363)">
						<title>Sheet.221</title>
						<ellipse cx="1.05266" cy="221.358" rx="1.05266" ry="0.84905" class="st5"/>
					</g>
					<g id="shape222-219" transform="translate(10.7897,-2.9363)">
						<title>Sheet.222</title>
						<ellipse cx="1.05266" cy="221.358" rx="1.05266" ry="0.84905" class="st5"/>
					</g>
				</g>
			</g>
		</g>
	</g>
</svg>
