<?xml version="1.0" encoding="UTF-8" standalone="no"?>
<!-- Created with Inkscape (http://www.inkscape.org/) -->

<svg
   width="567"
   height="318"
   viewBox="0 0 150.01875 84.137502"
   version="1.1"
   id="svg3858"
   inkscape:version="1.1 (c68e22c387, 2021-05-23)"
   sodipodi:docname="event_hubs_partition_consumers-v2.svg"
   xmlns:inkscape="http://www.inkscape.org/namespaces/inkscape"
   xmlns:sodipodi="http://sodipodi.sourceforge.net/DTD/sodipodi-0.dtd"
   xmlns="http://www.w3.org/2000/svg"
   xmlns:svg="http://www.w3.org/2000/svg">
  <sodipodi:namedview
     id="namedview3860"
     pagecolor="#ffffff"
     bordercolor="#666666"
     borderopacity="1.0"
     inkscape:pageshadow="2"
     inkscape:pageopacity="0.0"
     inkscape:pagecheckerboard="true"
     inkscape:document-units="mm"
     showgrid="false"
     units="px"
     inkscape:zoom="0.77771465"
     inkscape:cx="176.80006"
     inkscape:cy="252.66337"
     inkscape:window-width="1496"
     inkscape:window-height="1081"
     inkscape:window-x="5497"
     inkscape:window-y="81"
     inkscape:window-maximized="0"
     inkscape:current-layer="layer2" />
  <defs
     id="defs3855">
    <clipPath
       id="clip0">
      <rect
         x="389"
         y="107"
         width="358"
         height="203"
         id="rect3442" />
    </clipPath>
  </defs>
  <g
     inkscape:label="Layer 1"
     inkscape:groupmode="layer"
     id="layer1"
     sodipodi:insensitive="true">
    <rect
       style="fill:#ffffff;stroke-width:0.264583"
       id="rect4323"
       width="150.01875"
       height="84.137497"
       x="0"
       y="0" />
  </g>
  <g
     inkscape:groupmode="layer"
     id="layer2"
     inkscape:label="Layer 2"
     sodipodi:insensitive="true">
    <g
       clip-path="url(#clip0)"
       transform="matrix(0.4445,0,0,0.4445,-170.79382,-49.678168)"
       id="g3507">
      <path
         d="m 390,180 h 214 v 56 H 390 Z"
         fill="#ffffff"
         fill-rule="evenodd"
         id="path3447" />
      <path
         d="m 390,180 h 214 v 56 H 390 Z"
         fill="#0078d4"
         fill-rule="evenodd"
         fill-opacity="0.34902"
         id="path3449" />
      <path
         d="m 604.452,180.133 v 55.734 H 389.548 V 180.133 H 604.452 M 605,180 H 389 v 56 h 216 z"
         fill="#ffffff"
         fill-rule="evenodd"
         id="path3451" />
      <path
         d="m 397,187 h 199 v 39 H 397 Z"
         fill="#ffffff"
         fill-rule="evenodd"
         id="path3453" />
      <path
         d="m 397,187 h 199 v 39 H 397 Z"
         fill="#b3b2b3"
         fill-rule="evenodd"
         fill-opacity="0.4"
         id="path3455" />
      <path
         d="m 397.5,187.5 h 199 v 39 h -199 z"
         stroke="#ffffff"
         stroke-miterlimit="8"
         fill="none"
         fill-rule="evenodd"
         id="path3457" />
      <path
         d="m 410,193 h -7 v 26 h 7 z"
         fill="#005ca1"
         fill-rule="evenodd"
         id="path3459" />
      <path
         d="m 421,193 h -7 v 26 h 7 z"
         fill="#005ca1"
         fill-rule="evenodd"
         id="path3461" />
      <path
         d="m 431,193 h -7 v 26 h 7 z"
         fill="#005ca1"
         fill-rule="evenodd"
         id="path3463" />
      <path
         d="m 442,193 h -7 v 26 h 7 z"
         fill="#005ca1"
         fill-rule="evenodd"
         id="path3465" />
      <path
         d="m 452,193 h -7 v 26 h 7 z"
         fill="#005ca1"
         fill-rule="evenodd"
         id="path3467" />
      <path
         d="m 463,193 h -7 v 26 h 7 z"
         fill="#005ca1"
         fill-rule="evenodd"
         id="path3469" />
      <path
         d="m 474,193 h -7 v 26 h 7 z"
         fill="#005ca1"
         fill-rule="evenodd"
         id="path3471" />
      <path
         d="m 484,193 h -7 v 26 h 7 z"
         fill="#005ca1"
         fill-rule="evenodd"
         id="path3473" />
      <path
         d="m 495,193 h -7 v 26 h 7 z"
         fill="#005ca1"
         fill-rule="evenodd"
         id="path3475" />
      <path
         d="m 505,193 h -7 v 26 h 7 z"
         fill="#005ca1"
         fill-rule="evenodd"
         id="path3477" />
      <path
         d="m 516,193 h -7 v 26 h 7 z"
         fill="#005ca1"
         fill-rule="evenodd"
         id="path3479" />
      <path
         d="m 527,193 h -7 v 26 h 7 z"
         fill="#005ca1"
         fill-rule="evenodd"
         id="path3481" />
      <path
         d="m 537,193 h -7 v 26 h 7 z"
         fill="#005ca1"
         fill-rule="evenodd"
         id="path3483" />
      <path
         d="m 548,193 h -7 v 26 h 7 z"
         fill="#005ca1"
         fill-rule="evenodd"
         id="path3485" />
      <path
         d="m 558,193 h -7 v 26 h 7 z"
         fill="#005ca1"
         fill-rule="evenodd"
         id="path3487" />
      <path
         d="m 569,193 h -7 v 26 h 7 z"
         fill="#005ca1"
         fill-rule="evenodd"
         id="path3489" />
      <path
         d="m 580,193 h -7 v 26 h 7 z"
         fill="#005ca1"
         fill-rule="evenodd"
         id="path3491" />
      <path
         d="M 0.333333,-7.80218e-7 0.333423,38.187 H -0.333244 L -0.333333,7.80218e-7 Z M 4.00009,36.8536 1.04987e-4,44.8536 -3.99991,36.8537 Z"
         transform="matrix(1,0,0,-1,470.5,283.354)"
         id="path3493" />
      <text
         font-family="Calibri, Calibri_MSFontService, sans-serif"
         font-weight="400"
         font-size="13px"
         transform="translate(437.074,298)"
         id="text3495">Consumer 1</text>
      <path
         d="M 0.333324,-0.00254566 0.634327,39.4103 -0.0323206,39.4153 -0.333324,0.00254566 Z M 4.2907,38.049 0.351916,46.0793 -3.70906,38.11 Z"
         transform="matrix(-1,0,0,1,523.852,131.5)"
         id="path3497" />
      <text
         font-family="Calibri, Calibri_MSFontService, sans-serif"
         font-weight="400"
         font-size="13px"
         transform="translate(491.295,123)"
         id="text3499">Consumer 2</text>
      <path
         d="m 663.875,209.986 -48.717,-1.014 0.014,-0.666 48.717,1.014 z m -47.46,2.68 -7.915,-4.166 8.082,-3.833 z"
         id="path3501" />
      <text
         font-family="Calibri, Calibri_MSFontService, sans-serif"
         font-weight="400"
         font-size="13px"
         transform="translate(668.437,213)"
         id="text3503">Producer</text>
      <path
         d="m 590.5,193.5 h -6 v 26 h 6 z"
         stroke="#000000"
         stroke-miterlimit="8"
         stroke-dasharray="1, 1"
         fill="#ffffff"
         fill-rule="evenodd"
         id="path3505" />
    </g>
  </g>
</svg>
