<?xml version="1.0" encoding="UTF-8" standalone="no"?>
<!-- Created with Inkscape (http://www.inkscape.org/) -->

<svg
   width="508"
   height="238"
   viewBox="0 0 134.40833 62.970835"
   version="1.1"
   id="svg3858"
   inkscape:version="1.1 (c68e22c387, 2021-05-23)"
   sodipodi:docname="event_hubs_partition_writes-v2.svg"
   xmlns:inkscape="http://www.inkscape.org/namespaces/inkscape"
   xmlns:sodipodi="http://sodipodi.sourceforge.net/DTD/sodipodi-0.dtd"
   xmlns="http://www.w3.org/2000/svg"
   xmlns:svg="http://www.w3.org/2000/svg">
  <sodipodi:namedview
     id="namedview3860"
     pagecolor="#ffffff"
     bordercolor="#666666"
     borderopacity="1.0"
     inkscape:pageshadow="2"
     inkscape:pageopacity="0.0"
     inkscape:pagecheckerboard="true"
     inkscape:document-units="mm"
     showgrid="false"
     units="px"
     inkscape:zoom="0.77771465"
     inkscape:cx="261.6641"
     inkscape:cy="252.66337"
     inkscape:window-width="1496"
     inkscape:window-height="1081"
     inkscape:window-x="5497"
     inkscape:window-y="81"
     inkscape:window-maximized="0"
     inkscape:current-layer="layer3"
     width="508px" />
  <defs
     id="defs3855">
    <clipPath
       id="clip0">
      <rect
         x="389"
         y="107"
         width="358"
         height="203"
         id="rect3442" />
    </clipPath>
    <clipPath
       id="clip0-1">
      <rect
         x="77"
         y="235"
         width="492"
         height="204"
         id="rect3218" />
    </clipPath>
  </defs>
  <g
     inkscape:label="Layer 1"
     inkscape:groupmode="layer"
     id="layer1"
     sodipodi:insensitive="true">
    <rect
       style="fill:#ffffff;stroke-width:0.264583"
       id="rect4986"
       width="134.40834"
       height="62.970833"
       x="0"
       y="0" />
  </g>
  <g
     inkscape:groupmode="layer"
     id="layer3"
     inkscape:label="Layer 2">
    <g
       clip-path="url(#clip0-1)"
       transform="matrix(0.31049518,0,0,0.31809138,-26.553964,-73.69314)"
       id="g3321">
      <path
         d="M 155,235 H 319 V 398 H 155 Z"
         fill="#ffffff"
         fill-rule="evenodd"
         id="path3223" />
      <path
         d="M 155,235 H 319 V 398 H 155 Z"
         fill="#0078d4"
         fill-rule="evenodd"
         fill-opacity="0.34902"
         id="path3225" />
      <path
         d="M 319.582,235.386 V 397.614 H 155.418 V 235.386 H 319.582 M 320,235 H 155 v 163 h 165 z"
         fill="#ffffff"
         fill-rule="evenodd"
         id="path3227" />
      <path
         d="m 178,248 h 118 v 39 H 178 Z"
         fill="#ffffff"
         fill-rule="evenodd"
         id="path3229" />
      <path
         d="m 178,248 h 118 v 39 H 178 Z"
         fill="#b3b2b3"
         fill-rule="evenodd"
         fill-opacity="0.4"
         id="path3231" />
      <path
         d="m 178.5,248.5 h 118 v 39 h -118 z"
         stroke="#ffffff"
         stroke-miterlimit="8"
         fill="none"
         fill-rule="evenodd"
         id="path3233" />
      <path
         d="m 178,296 h 118 v 40 H 178 Z"
         fill="#ffffff"
         fill-rule="evenodd"
         id="path3235" />
      <path
         d="m 178,296 h 118 v 40 H 178 Z"
         fill="#b3b2b3"
         fill-rule="evenodd"
         fill-opacity="0.4"
         id="path3237" />
      <path
         d="m 178.5,296.5 h 118 v 40 h -118 z"
         stroke="#ffffff"
         stroke-miterlimit="8"
         fill="none"
         fill-rule="evenodd"
         id="path3239" />
      <path
         d="m 178,345 h 118 v 39 H 178 Z"
         fill="#ffffff"
         fill-rule="evenodd"
         id="path3241" />
      <path
         d="m 178,345 h 118 v 39 H 178 Z"
         fill="#b3b2b3"
         fill-rule="evenodd"
         fill-opacity="0.4"
         id="path3243" />
      <path
         d="m 178.5,345.5 h 118 v 39 h -118 z"
         stroke="#ffffff"
         stroke-miterlimit="8"
         fill="none"
         fill-rule="evenodd"
         id="path3245" />
      <path
         d="m 476.909,317.594 -145.744,-0.727 0.003,-0.667 145.744,0.728 z m -144.429,2.946 -7.98,-4.04 8.02,-3.96 z"
         id="path3247" />
      <text
         font-family="Calibri, Calibri_MSFontService, sans-serif"
         font-weight="400"
         font-size="13px"
         transform="translate(86.4581,271)"
         id="text3253">Partition 0<tspan
   font-size="13px"
   x="0.224564"
   y="49"
   id="tspan3249">Partition 1</tspan><tspan
   font-size="13px"
   x="1.2144901"
   y="97"
   id="tspan3251">Partition 2</tspan></text>
      <path
         d="m 155.5,421.167 h 158.884 v 0.666 H 155.5 Z m 157.55,-3.667 8,4 -8,4 z"
         id="path3255" />
      <text
         font-family="Calibri, Calibri_MSFontService, sans-serif"
         font-weight="400"
         font-size="13px"
         transform="translate(105.668,426)"
         id="text3259">Old<tspan
   font-size="13px"
   x="232.354"
   y="0"
   id="tspan3257">New</tspan></text>
      <path
         d="M 0.0976082,-0.318722 148.175,45.0296 147.979,45.6671 -0.0976082,0.318722 Z M 147.974,41.1333 l 6.478,6.1673 -8.821,1.482 z"
         transform="matrix(-1,0,0,1,476.952,317.5)"
         id="path3261" />
      <path
         d="m 475.637,317.721 -148.892,-47.863 0.204,-0.635 148.892,47.863 z M 326.892,273.756 320.5,267.5 l 8.84,-1.36 z"
         id="path3263" />
      <text
         font-family="Calibri, Calibri_MSFontService, sans-serif"
         font-weight="400"
         font-size="13px"
         transform="translate(481.38,321)"
         id="text3265">Writes</text>
      <path
         d="m 193,254 h -7 v 26 h 7 z"
         fill="#005ca1"
         fill-rule="evenodd"
         id="path3267" />
      <path
         d="m 204,255 h -7 v 26 h 7 z"
         fill="#005ca1"
         fill-rule="evenodd"
         id="path3269" />
      <path
         d="m 214,255 h -7 v 26 h 7 z"
         fill="#005ca1"
         fill-rule="evenodd"
         id="path3271" />
      <path
         d="m 225,254 h -7 v 26 h 7 z"
         fill="#005ca1"
         fill-rule="evenodd"
         id="path3273" />
      <path
         d="m 235,254 h -7 v 26 h 7 z"
         fill="#005ca1"
         fill-rule="evenodd"
         id="path3275" />
      <path
         d="m 246,254 h -7 v 26 h 7 z"
         fill="#005ca1"
         fill-rule="evenodd"
         id="path3277" />
      <path
         d="m 257,255 h -7 v 26 h 7 z"
         fill="#005ca1"
         fill-rule="evenodd"
         id="path3279" />
      <path
         d="m 267,255 h -7 v 26 h 7 z"
         fill="#005ca1"
         fill-rule="evenodd"
         id="path3281" />
      <path
         d="m 278,254 h -7 v 26 h 7 z"
         fill="#005ca1"
         fill-rule="evenodd"
         id="path3283" />
      <path
         d="m 195,303 h -7 v 26 h 7 z"
         fill="#005ca1"
         fill-rule="evenodd"
         id="path3285" />
      <path
         d="m 206,303 h -7 v 26 h 7 z"
         fill="#005ca1"
         fill-rule="evenodd"
         id="path3287" />
      <path
         d="m 216,303 h -7 v 26 h 7 z"
         fill="#005ca1"
         fill-rule="evenodd"
         id="path3289" />
      <path
         d="m 227,303 h -7 v 26 h 7 z"
         fill="#005ca1"
         fill-rule="evenodd"
         id="path3291" />
      <path
         d="m 237,303 h -7 v 26 h 7 z"
         fill="#005ca1"
         fill-rule="evenodd"
         id="path3293" />
      <path
         d="m 248,303 h -7 v 26 h 7 z"
         fill="#005ca1"
         fill-rule="evenodd"
         id="path3295" />
      <path
         d="m 259,303 h -7 v 26 h 7 z"
         fill="#005ca1"
         fill-rule="evenodd"
         id="path3297" />
      <path
         d="m 196,352 h -7 v 26 h 7 z"
         fill="#005ca1"
         fill-rule="evenodd"
         id="path3299" />
      <path
         d="m 207,352 h -7 v 26 h 7 z"
         fill="#005ca1"
         fill-rule="evenodd"
         id="path3301" />
      <path
         d="m 217,352 h -7 v 26 h 7 z"
         fill="#005ca1"
         fill-rule="evenodd"
         id="path3303" />
      <path
         d="m 228,351 h -7 v 26 h 7 z"
         fill="#005ca1"
         fill-rule="evenodd"
         id="path3305" />
      <path
         d="m 238,351 h -7 v 26 h 7 z"
         fill="#005ca1"
         fill-rule="evenodd"
         id="path3307" />
      <path
         d="m 248,352 h -6 v 26 h 6 z"
         fill="#005ca1"
         fill-rule="evenodd"
         id="path3309" />
      <path
         d="m 259,352 h -6 v 26 h 6 z"
         fill="#005ca1"
         fill-rule="evenodd"
         id="path3311" />
      <path
         d="m 270,352 h -7 v 26 h 7 z"
         fill="#005ca1"
         fill-rule="evenodd"
         id="path3313" />
      <path
         d="m 280.5,351.5 h -7 v 26 h 7 z"
         stroke="#000000"
         stroke-miterlimit="8"
         stroke-dasharray="1, 1"
         fill="#ffffff"
         fill-rule="evenodd"
         id="path3315" />
      <path
         d="m 269.5,303.5 h -7 v 26 h 7 z"
         stroke="#000000"
         stroke-miterlimit="8"
         stroke-dasharray="1, 1"
         fill="#ffffff"
         fill-rule="evenodd"
         id="path3317" />
      <path
         d="m 289.5,254.5 h -7 v 26 h 7 z"
         stroke="#000000"
         stroke-miterlimit="8"
         stroke-dasharray="1, 1"
         fill="#ffffff"
         fill-rule="evenodd"
         id="path3319" />
    </g>
  </g>
</svg>
