<?xml version="1.0" encoding="UTF-8" standalone="no"?>
<!DOCTYPE svg PUBLIC "-//W3C//DTD SVG 1.1//EN" "http://www.w3.org/Graphics/SVG/1.1/DTD/svg11.dtd">
<!-- Generated by Microsoft Visio, SVG Export dns-private-endpoints-basic-config-works.svg Works -->
<svg xmlns="http://www.w3.org/2000/svg" xmlns:xlink="http://www.w3.org/1999/xlink" xmlns:ev="http://www.w3.org/2001/xml-events"
		xmlns:v="http://schemas.microsoft.com/visio/2003/SVGExtensions/" width="8.28985in" height="3.67188in"
		viewBox="0 0 596.869 264.375" xml:space="preserve" color-interpolation-filters="sRGB" class="st39">
	<v:documentProperties v:langID="1033" v:viewMarkup="false">
		<v:userDefs>
			<v:ud v:nameU="msvNoAutoConnect" v:val="VT0(0):26"/>
			<v:ud v:nameU="msvWarnOnPersonalInfo" v:val="VT0(0):5"/>
		</v:userDefs>
	</v:documentProperties>

	<style type="text/css">
	<![CDATA[
		.st1 {fill:#ffffff;stroke:none;stroke-width:0.25}
		.st2 {fill:url(#grad0-7);stroke:none;stroke-linecap:butt;stroke-width:0.75}
		.st3 {fill:#37c2b1;stroke:none;stroke-linecap:butt;stroke-width:0.75}
		.st4 {fill:#ffffff;stroke:none;stroke-linecap:butt;stroke-width:0.75}
		.st5 {fill:#258277;stroke:none;stroke-linecap:butt;stroke-width:0.75}
		.st6 {fill:none;stroke:none;stroke-width:0.25}
		.st7 {fill:#5b9bd5;font-family:Calibri;font-size:0.833336em;font-weight:bold}
		.st8 {fill:#dae3f3;stroke:#c7c8c8;stroke-width:0.25}
		.st9 {fill:url(#grad0-25);stroke:none;stroke-linecap:butt;stroke-width:0.75}
		.st10 {fill:url(#grad0-29);stroke:none;stroke-linecap:butt;stroke-width:0.75}
		.st11 {fill:#50e6ff;stroke:none;stroke-linecap:butt;stroke-width:0.75}
		.st12 {fill:#1490df;stroke:none;stroke-linecap:butt;stroke-width:0.75}
		.st13 {fill:#ffffff;stroke:#759fcc;stroke-dasharray:1.75,1.25;stroke-width:0.25}
		.st14 {fill:#7a7a7a;stroke:none;stroke-linecap:butt;stroke-width:0.75}
		.st15 {fill:url(#grad0-57);stroke:none;stroke-linecap:butt;stroke-width:0.75}
		.st16 {fill:url(#grad0-61);stroke:none;stroke-linecap:butt;stroke-width:0.75}
		.st17 {font-size:1em}
		.st18 {fill:url(#grad0-79);stroke:none;stroke-linecap:butt;stroke-width:0.75}
		.st19 {fill:url(#grad1-93);stroke:none;stroke-linecap:butt;stroke-width:0.75}
		.st20 {fill:#5ea0ef;stroke:none;stroke-linecap:butt;stroke-width:0.75}
		.st21 {fill:url(#grad0-125);stroke:none;stroke-linecap:butt;stroke-width:0.75}
		.st22 {fill:#0078d4;stroke:none;stroke-linecap:butt;stroke-width:0.75}
		.st23 {fill:#83b9f9;stroke:none;stroke-linecap:butt;stroke-width:0.75}
		.st24 {fill:#83b9f9;fill-opacity:0.2;stroke:none;stroke-linecap:butt;stroke-width:0.75}
		.st25 {fill:#5ea0ef;fill-opacity:0.2;stroke:none;stroke-linecap:butt;stroke-width:0.75}
		.st26 {fill:url(#grad0-141);stroke:none;stroke-linecap:butt;stroke-width:0.75}
		.st27 {marker-end:url(#mrkr2-155);stroke:#4672c4;stroke-dasharray:0,5;stroke-linecap:round;stroke-linejoin:round;stroke-width:1}
		.st28 {fill:#4672c4;fill-opacity:1;stroke:#4672c4;stroke-opacity:1;stroke-width:0.28409090909091}
		.st29 {fill:#5b9bd5;font-family:Calibri;font-size:0.833336em}
		.st30 {fill:#5b9bd5;font-family:Consolas;font-size:0.833336em}
		.st31 {fill:#ffffff;font-size:1em}
		.st32 {stroke:#4672c4;stroke-linecap:round;stroke-linejoin:round;stroke-width:1}
		.st33 {marker-start:url(#mrkr2-195);stroke:#4672c4;stroke-dasharray:0,5;stroke-linecap:round;stroke-linejoin:round;stroke-width:1}
		.st34 {fill:#107c10;stroke:none;stroke-linecap:butt;stroke-width:6.375}
		.st35 {marker-start:url(#mrkr2-195);stroke:#4672c4;stroke-linecap:round;stroke-linejoin:round;stroke-width:1}
		.st36 {marker-end:url(#mrkr2-155);stroke:#4672c4;stroke-linecap:round;stroke-linejoin:round;stroke-width:1}
		.st37 {fill:url(#grad0-241);stroke:none;stroke-linecap:butt;stroke-width:0.75}
		.st38 {fill:url(#grad0-245);stroke:none;stroke-linecap:butt;stroke-width:0.75}
		.st39 {fill:none;fill-rule:evenodd;font-size:12px;overflow:visible;stroke-linecap:square;stroke-miterlimit:3}
	]]>
	</style>

	<defs id="Patterns_And_Gradients">
		<linearGradient id="grad0-7" x1="0" y1="0" x2="1" y2="0" gradientTransform="rotate(-90 0.5 0.5)">
			<stop offset="0" stop-color="#b3b3b3" stop-opacity="1"/>
			<stop offset="0.26" stop-color="#c1c1c1" stop-opacity="1"/>
			<stop offset="1" stop-color="#e6e6e6" stop-opacity="1"/>
		</linearGradient>
		<linearGradient id="grad0-25" x1="0" y1="0" x2="1" y2="0" gradientTransform="rotate(44.92 0.5 0.5)">
			<stop offset="0" stop-color="#86d633" stop-opacity="1"/>
			<stop offset="1" stop-color="#5e9624" stop-opacity="1"/>
		</linearGradient>
		<linearGradient id="grad0-29" x1="0" y1="0" x2="1" y2="0" gradientTransform="rotate(45.175215904905 0.5 0.5)">
			<stop offset="0" stop-color="#86d633" stop-opacity="1"/>
			<stop offset="1" stop-color="#5e9624" stop-opacity="1"/>
		</linearGradient>
		<linearGradient id="grad0-57" x1="0" y1="0" x2="1" y2="0" gradientTransform="rotate(90 0.5 0.5)">
			<stop offset="0.23" stop-color="#5ea0ef" stop-opacity="1"/>
			<stop offset="0.32" stop-color="#5b9fee" stop-opacity="1"/>
			<stop offset="0.48" stop-color="#509aeb" stop-opacity="1"/>
			<stop offset="0.57" stop-color="#3f92e6" stop-opacity="1"/>
			<stop offset="0.75" stop-color="#2688df" stop-opacity="1"/>
			<stop offset="0.93" stop-color="#127fd9" stop-opacity="1"/>
		</linearGradient>
		<linearGradient id="grad0-61" x1="0" y1="0" x2="1" y2="0" gradientTransform="rotate(90 0.5 0.5)">
			<stop offset="0.02" stop-color="#5ea0ef" stop-opacity="1"/>
			<stop offset="0.14" stop-color="#5b9fee" stop-opacity="1"/>
			<stop offset="0.23" stop-color="#5b9fee" stop-opacity="1"/>
			<stop offset="0.34" stop-color="#509aeb" stop-opacity="1"/>
			<stop offset="0.44" stop-color="#3f92e6" stop-opacity="1"/>
			<stop offset="0.63" stop-color="#2688df" stop-opacity="1"/>
			<stop offset="0.93" stop-color="#127fd9" stop-opacity="1"/>
		</linearGradient>
		<linearGradient id="grad0-79" x1="0" y1="0" x2="1" y2="0" gradientTransform="rotate(-90 0.5 0.5)">
			<stop offset="0" stop-color="#5e9624" stop-opacity="1"/>
			<stop offset="0.24" stop-color="#6fb02a" stop-opacity="1"/>
			<stop offset="0.5" stop-color="#7cc52f" stop-opacity="1"/>
			<stop offset="0.755" stop-color="#83d232" stop-opacity="1"/>
			<stop offset="1" stop-color="#86d633" stop-opacity="1"/>
		</linearGradient>
		<radialGradient id="grad1-93" cx="1" cy="1" r="1.4">
			<stop offset="0.18" stop-color="#5ea0ef" stop-opacity="1"/>
			<stop offset="1" stop-color="#0078d4" stop-opacity="1"/>
		</radialGradient>
		<linearGradient id="grad0-125" x1="0" y1="0" x2="1" y2="0" gradientTransform="rotate(-90 0.5 0.5)">
			<stop offset="0" stop-color="#0078d4" stop-opacity="1"/>
			<stop offset="0.82" stop-color="#5ea0ef" stop-opacity="1"/>
		</linearGradient>
		<linearGradient id="grad0-141" x1="0" y1="0" x2="1" y2="0" gradientTransform="rotate(-90 0.5 0.5)">
			<stop offset="0" stop-color="#1490df" stop-opacity="1"/>
			<stop offset="0.98" stop-color="#1f56a3" stop-opacity="1"/>
		</linearGradient>
		<linearGradient id="grad0-241" x1="0" y1="0" x2="1" y2="0" gradientTransform="rotate(90 0.5 0.5)">
			<stop offset="0.23" stop-color="#5ea0ef" stop-opacity="1"/>
			<stop offset="0.93" stop-color="#127fd9" stop-opacity="1"/>
		</linearGradient>
		<linearGradient id="grad0-245" x1="0" y1="0" x2="1" y2="0" gradientTransform="rotate(90 0.5 0.5)">
			<stop offset="0.02" stop-color="#5ea0ef" stop-opacity="1"/>
			<stop offset="0.93" stop-color="#127fd9" stop-opacity="1"/>
		</linearGradient>
	</defs>
	<defs id="Markers">
		<g id="lend2">
			<path d="M 1 1 L 0 0 L 1 -1 L 1 1 " style="stroke:none"/>
		</g>
		<marker id="mrkr2-155" class="st28" v:arrowType="2" v:arrowSize="2" v:setback="3.52" refX="-3.52" orient="auto"
				markerUnits="strokeWidth" overflow="visible">
			<use xlink:href="#lend2" transform="scale(-3.52,-3.52) "/>
		</marker>
		<marker id="mrkr2-195" class="st28" v:arrowType="2" v:arrowSize="2" v:setback="3.16" refX="3.16" orient="auto"
				markerUnits="strokeWidth" overflow="visible">
			<use xlink:href="#lend2" transform="scale(3.52) "/>
		</marker>
	</defs>
	<g v:mID="28" v:index="2" v:groupContext="backgroundPage">
		<v:userDefs>
			<v:ud v:nameU="msvThemeOrder" v:val="VT0(0):26"/>
			<v:ud v:nameU="msvVisioCreated" v:prompt="" v:val="VT0(0):26"/>
		</v:userDefs>
		<title>VBackground-2</title>
		<v:pageProperties width="8.28985" height="3.67188" v:drawingScale="1" v:pageScale="1" v:drawingUnits="19"
				v:shadowOffsetX="9" v:shadowOffsetY="-9"/>
		<g id="shape1000-1" v:mID="1000" v:groupContext="shape">
			<title>Solid.1000</title>
			<v:userDefs>
				<v:ud v:nameU="Background" v:val="VT0(0):26"/>
				<v:ud v:nameU="visVersion" v:val="VT0(15):26"/>
				<v:ud v:nameU="msvShapeCategories" v:prompt="" v:val="VT4(DoNotContain)"/>
				<v:ud v:nameU="msvVisioCreated" v:prompt="" v:val="VT0(0):26"/>
			</v:userDefs>
			<rect x="0" y="0" width="596.869" height="264.375" class="st1"/>
		</g>
	</g>
	<g v:mID="5" v:index="10" v:groupContext="foregroundPage">
		<v:userDefs>
			<v:ud v:nameU="msvThemeOrder" v:val="VT0(0):26"/>
		</v:userDefs>
		<title>DNS Works</title>
		<v:pageProperties v:drawingScale="1" v:pageScale="1" v:drawingUnits="19" v:shadowOffsetX="9" v:shadowOffsetY="-9"/>
		<v:layer v:name="Connector" v:index="0"/>
		<g id="group1-3" transform="translate(518.875,-109.163)" v:mID="1" v:groupContext="group">
			<title>Icon-storage-86</title>
			<g id="shape2-4" v:mID="2" v:groupContext="shape">
				<title>Sheet.2</title>
				<path d="M0.89 246.5 L31.12 246.5 L31.12 263.36 A1.01379 1.01379 0 0 1 30.11 264.37 L1.9 264.37 A1.01379 1.01379
							 0 0 1 0.89 263.36 L0.89 246.5 Z" class="st2"/>
			</g>
			<g id="shape3-8" v:mID="3" v:groupContext="shape" transform="translate(0,-17.8746)">
				<title>Sheet.3</title>
				<path d="M1.9 257.94 L30.11 257.94 A1.01379 1.01379 0 0 1 31.12 258.95 L31.12 264.37 L0.89 264.37 L0.89 258.93 A1.01379
							 1.01379 0 0 1 1.9 257.94 Z" class="st3"/>
			</g>
			<g id="shape4-10" v:mID="4" v:groupContext="shape" transform="translate(4.53536,-12.4678)">
				<title>Sheet.4</title>
				<path d="M0.46 260.92 L22.46 260.92 a0.480214 0.480214 0 0 1 0.462429 0.480214 L22.93 263.89 a0.480214 0.480214 0
							 0 1 -0.462429 0.480214 L0.46 264.37 a0.480214 0.480214 0 0 1 -0.462429 -0.480214 L0 261.4 a0.480214
							 0.480214 0 0 1 0.462429 -0.480214 Z" class="st4"/>
			</g>
			<g id="shape5-12" v:mID="5" v:groupContext="shape" transform="translate(4.55314,-7.48779)">
				<title>Sheet.5</title>
				<path d="M0.46 260.91 L22.46 260.91 a0.480214 0.480214 0 0 1 0.462429 0.480214 L22.93 263.89 a0.480214 0.480214 0
							 0 1 -0.462429 0.480214 L0.46 264.37 a0.480214 0.480214 0 0 1 -0.462429 -0.480214 L0 261.48 a0.480214
							 0.480214 0 0 1 0.462429 -0.569143 Z" class="st3"/>
			</g>
			<g id="shape6-14" v:mID="6" v:groupContext="shape" transform="translate(4.55314,-2.47221)">
				<title>Sheet.6</title>
				<path d="M0.46 260.91 L22.46 260.91 a0.480214 0.480214 0 0 1 0.462429 0.480214 L22.93 263.89 a0.480214 0.480214 0
							 0 1 -0.462429 0.480214 L0.46 264.37 a0.480214 0.480214 0 0 1 -0.462429 -0.480214 L0 261.39 a0.480214
							 0.480214 0 0 1 0.462429 -0.480214 Z" class="st5"/>
			</g>
		</g>
		<g id="shape7-16" v:mID="7" v:groupContext="shape" transform="translate(490.256,-91.2107)">
			<title>Sheet.7</title>
			<desc>stgworkload00</desc>
			<v:textBlock v:margins="rect(4,4,4,4)"/>
			<v:textRect cx="44.1818" cy="254.813" width="88.37" height="19.125"/>
			<rect x="0" y="245.25" width="88.3636" height="19.125" class="st6"/>
			<text x="13.36" y="257.81" class="st7" v:langID="1033"><v:paragraph v:horizAlign="1"/><v:tabList/>stgworkload00</text>		</g>
		<g id="shape8-19" v:mID="8" v:groupContext="shape" transform="translate(283.375,-18.25)">
			<title>Rectangle</title>
			<v:userDefs>
				<v:ud v:nameU="visVersion" v:val="VT0(15):26"/>
			</v:userDefs>
			<rect x="0" y="39.625" width="149.114" height="224.75" class="st8"/>
		</g>
		<g id="group17-21" transform="translate(298.581,-17.4555)" v:mID="17" v:groupContext="group">
			<title>Icon-networking-61</title>
			<g id="shape18-22" v:mID="18" v:groupContext="shape" transform="translate(11.8173,-8.36273)">
				<title>Sheet.18</title>
				<ellipse cx="1.02047" cy="263.355" rx="1.02047" ry="1.02047" class="st9"/>
			</g>
			<g id="shape19-26" v:mID="19" v:groupContext="shape" transform="translate(8.56237,-8.35393)">
				<title>Sheet.19</title>
				<ellipse cx="1.02047" cy="263.355" rx="1.02047" ry="1.02047" class="st10"/>
			</g>
			<g id="shape20-30" v:mID="20" v:groupContext="shape" transform="translate(5.30742,-8.35393)">
				<title>Sheet.20</title>
				<ellipse cx="1.02047" cy="263.355" rx="1.02047" ry="1.02047" class="st10"/>
			</g>
			<g id="shape21-33" v:mID="21" v:groupContext="shape" transform="translate(191.008,439.265) rotate(134.92)">
				<title>Sheet.21</title>
				<path d="M2.3 257.48 L3.12 257.48 a0.263915 0.263915 0 0 1 0.263915 0.263915 L3.39 263.85 a0.52783 0.52783 0 0 1
							 -0.52783 0.52783 L2.03 264.37 L2.03 257.74 a0.263915 0.263915 0 0 1 0.263915 -0.263915 Z" class="st11"/>
			</g>
			<g id="shape22-35" v:mID="22" v:groupContext="shape" transform="translate(186.68,66.3681) rotate(44.92)">
				<title>Sheet.22</title>
				<path d="M2.25 257.57 L3.08 257.57 a0.263915 0.263915 0 0 1 0.263915 0.263915 L3.34 264.37 L2.52 264.37 a0.52783
							 0.52783 0 0 1 -0.52783 -0.52783 L1.99 257.84 a0.263915 0.263915 0 0 1 0.263915 -0.263915 Z"
						class="st12"/>
			</g>
			<g id="shape23-37" v:mID="23" v:groupContext="shape" transform="translate(190.252,63.391) rotate(45.08)">
				<title>Sheet.23</title>
				<path d="M12.45 257.48 L13.27 257.48 a0.52783 0.52783 0 0 1 0.52783 0.52783 L13.8 264.11 a0.263915 0.263915 0 0 1
							 -0.263915 0.263915 L12.71 264.37 a0.263915 0.263915 0 0 1 -0.263915 -0.263915 L12.45 257.48 Z"
						class="st11"/>
			</g>
			<g id="shape24-39" v:mID="24" v:groupContext="shape" transform="translate(208.409,428.528) rotate(135.08)">
				<title>Sheet.24</title>
				<path d="M13.03 257.57 L13.86 257.57 L13.86 264.11 a0.263915 0.263915 0 0 1 -0.263915 0.263915 L12.76 264.37 a0.263915
							 0.263915 0 0 1 -0.263915 -0.263915 L12.49 258.1 a0.52783 0.52783 0 0 1 0.52783 -0.52783 L13.03 257.57
							 Z" class="st12"/>
			</g>
		</g>
		<g id="shape36-41" v:mID="36" v:groupContext="shape" transform="translate(316.669,-17.3483)">
			<title>Sheet.36</title>
			<desc>Workload virtual network</desc>
			<v:textBlock v:margins="rect(4,4,4,4)"/>
			<v:textRect cx="61.375" cy="254.813" width="122.75" height="19.125"/>
			<rect x="0" y="245.25" width="122.75" height="19.125" class="st6"/>
			<text x="4" y="257.81" class="st7" v:langID="1033"><v:paragraph/><v:tabList/>Workload virtual network</text>		</g>
		<g id="shape37-44" v:mID="37" v:groupContext="shape" transform="translate(291.946,-72.6786)">
			<title>Rectangle.37</title>
			<v:userDefs>
				<v:ud v:nameU="visVersion" v:val="VT0(15):26"/>
			</v:userDefs>
			<path d="M0 264.37 L133.77 264.37 L133.77 191.3 L0 191.3 L0 264.37 Z" class="st13"/>
		</g>
		<g id="shape38-46" v:mID="38" v:groupContext="shape" transform="translate(309.946,-69.25)">
			<title>Sheet.38</title>
			<desc>Private endpoint subnet</desc>
			<v:textBlock v:margins="rect(4,4,4,4)"/>
			<v:textRect cx="56.2232" cy="254.813" width="112.45" height="19.125"/>
			<rect x="0" y="245.25" width="112.446" height="19.125" class="st6"/>
			<text x="4" y="257.81" class="st7" v:langID="1033"><v:paragraph/><v:tabList/>Private endpoint subnet</text>		</g>
		<g id="group47-49" transform="translate(346.128,-113.178)" v:mID="47" v:groupContext="group">
			<title>Sheet.47</title>
			<g id="shape48-50" v:mID="48" v:groupContext="shape" transform="translate(10.8263,-10.1802)">
				<title>Sheet.48</title>
				<rect x="0" y="255.101" width="1.47121" height="9.27439" class="st14"/>
			</g>
			<g id="shape49-52" v:mID="49" v:groupContext="shape" transform="translate(10.0317,-18.2231)">
				<title>Sheet.49</title>
				<path d="M3.69 262.85 A2.15961 2.15961 0 1 1 1.53 260.69 A2.1583 2.1583 0 0 1 3.69 262.85 Z" class="st12"/>
			</g>
			<g id="shape50-54" v:mID="50" v:groupContext="shape" transform="translate(6.00091,-4.77786)">
				<title>Sheet.50</title>
				<path d="M5.27 258.48 L2.91 258.48 A2.94504 2.94504 -180 0 0 2.45 264.33 A3.16664 3.16664 0 0 1 2.48 263.24 A1.85934
							 1.85934 0 0 1 2.91 259.57 L5.27 259.57 A1.86458 1.86458 0 0 1 5.27 263.29 L4.62 263.29 A1.41352 1.41352
							 -180 0 0 4.49 263.88 A1.34009 1.34009 -180 0 0 4.58 264.37 L5.27 264.37 A2.94504 2.94504 -180 1 0 5.27
							 258.49 L5.27 258.48 Z" class="st15"/>
			</g>
			<g id="shape51-58" v:mID="51" v:groupContext="shape" transform="translate(8.97273,-2.3324)">
				<title>Sheet.51</title>
				<path d="M5.7 258.53 A3.46429 3.46429 0 0 1 5.73 258.98 A3.03814 3.03814 0 0 1 5.67 259.62 A1.85934 1.85934 0 0 1
							 5.24 263.3 L2.88 263.3 A1.86589 1.86589 0 0 1 2.88 259.57 L3.53 259.57 A1.36631 1.36631 -180 0 0 3.66
							 258.98 A1.33484 1.33484 -180 0 0 3.56 258.49 L2.88 258.49 A2.94504 2.94504 -180 0 0 2.88 264.37 L5.24
							 264.37 A2.94504 2.94504 -180 0 0 5.7 258.53 L5.7 258.53 Z" class="st16"/>
			</g>
			<g id="shape52-62" v:mID="52" v:groupContext="shape" transform="translate(-1.17906E-13,-0.437608)">
				<title>Sheet.52</title>
				<path d="M7.32 263.72 L6.78 264.26 a0.367147 0.367147 0 0 1 -0.524496 0 L0.22 258.23 a0.742161 0.742161 0 0 1 -6.66134E-15
							 -1.04899 L0.76 256.64 L7.32 263.19 a0.361902 0.361902 0 0 1 8.88178E-16 0.512694 L7.32 263.72 Z"
						class="st11"/>
			</g>
			<g id="shape53-64" v:mID="53" v:groupContext="shape" transform="translate(0.00393372,-5.96453)">
				<title>Sheet.53</title>
				<path d="M6.67 256.78 L7.27 257.39 a0.369769 0.369769 0 0 1 -1.77636E-15 0.524496 L0.82 264.37 L0.22 263.78 a0.742161
							 0.742161 0 0 1 -7.21645E-15 -1.04899 L6.15 256.78 a0.367147 0.367147 0 0 1 0.520562 0 Z" class="st12"/>
			</g>
			<g id="shape54-66" v:mID="54" v:groupContext="shape" transform="translate(16.1777,0)">
				<title>Sheet.54</title>
				<path d="M0.11 263.71 a0.364524 0.364524 0 0 1 -0.00786743 -0.514006 L0.11 263.2 L6.67 256.65 L7.21 257.2 a0.742161
							 0.742161 0 0 1 3.55271E-15 1.04899 L1.17 264.27 a0.363213 0.363213 0 0 1 -0.512694 0.00786743 L0.64
							 264.27 L0.11 263.71 Z" class="st11"/>
			</g>
			<g id="shape55-68" v:mID="55" v:groupContext="shape" transform="translate(16.2307,-5.53314)">
				<title>Sheet.55</title>
				<path d="M1.23 256.78 L7.16 262.73 a0.738227 0.738227 0 0 1 8.88178E-16 1.03981 L6.56 264.37 L0.11 257.91 a0.378948
							 0.378948 0 0 1 -7.77156E-16 -0.524496 L0.71 256.79 a0.369769 0.369769 0 0 1 0.520562 -0.00131124 Z"
						class="st12"/>
			</g>
		</g>
		<g id="shape56-70" v:mID="56" v:groupContext="shape" transform="translate(300.625,-89.5268)">
			<title>Sheet.56</title>
			<desc>Private Link endpoint 10.1.2.4</desc>
			<v:textBlock v:margins="rect(4,4,4,4)"/>
			<v:textRect cx="56.2232" cy="254.813" width="112.45" height="19.125"/>
			<rect x="0" y="245.25" width="112.446" height="19.125" class="st6"/>
			<text x="11.89" y="251.81" class="st7" v:langID="1033"><v:paragraph v:horizAlign="1"/><v:tabList/>Private Link endpoint<v:newlineChar/><tspan
						x="39.55" dy="1.2em" class="st17">10.1.2.4</tspan></text>		</g>
		<g id="group57-74" transform="translate(296.232,-75.25)" v:mID="57" v:groupContext="group">
			<title>Sheet.57</title>
			<g id="group58-75" transform="translate(0,3.42857)" v:mID="58" v:groupContext="group">
				<title>Sheet.58</title>
				<g id="shape59-76" v:mID="59" v:groupContext="shape" transform="translate(7.28265,-7.11102)">
					<title>Sheet.59</title>
					<path d="M0.69 262.7 a0.97875 0.97875 -180 1 0 0.98025 0.975 a0.97875 0.97875 -180 0 0 -0.98025 -0.975 Z"
							class="st18"/>
				</g>
				<g id="group60-80" v:mID="60" v:groupContext="group">
					<title>Sheet.60</title>
					<g id="shape61-81" v:mID="61" v:groupContext="shape" transform="translate(190.796,441.031) rotate(134.919)">
						<title>Sheet.61</title>
						<path d="M2.22 258.82 L2.89 258.82 a0.213 0.213 0 0 1 0.213 0.213 L3.1 263.95 a0.426 0.426 0 0 1 -0.426 0.426
									 L2.01 264.37 L2.01 259.04 a0.213 0.213 0 0 1 0.213 -0.21375 Z" class="st11"/>
					</g>
					<g id="shape62-83" v:mID="62" v:groupContext="shape" transform="translate(186.677,67.9415) rotate(44.919)">
						<title>Sheet.62</title>
						<path d="M2.18 258.9 L2.85 258.9 a0.213 0.213 0 0 1 0.213 0.213 L3.06 264.37 L2.4 264.37 a0.426 0.426 0 0
									 1 -0.426 -0.426 L1.97 259.11 a0.213 0.213 0 0 1 0.213 -0.213 L2.18 258.9 Z" class="st12"/>
					</g>
					<g id="shape63-85" v:mID="63" v:groupContext="shape" transform="translate(189.655,65.6558) rotate(45.081)">
						<title>Sheet.63</title>
						<path d="M10.4 258.82 L11.07 258.82 a0.426 0.426 0 0 1 0.426 0.426 L11.49 264.16 a0.213 0.213 0 0 1 -0.213
									 0.213 L10.61 264.37 a0.213 0.213 0 0 1 -0.213 -0.213 L10.4 258.82 Z" class="st11"/>
					</g>
					<g id="shape64-87" v:mID="64" v:groupContext="shape" transform="translate(204.701,432.499) rotate(135.081)">
						<title>Sheet.64</title>
						<path d="M10.86 258.9 L11.53 258.9 L11.53 264.16 a0.213 0.213 0 0 1 -0.213 0.213 L10.65 264.37 a0.213 0.213
									 0 0 1 -0.213 -0.213 L10.44 259.33 a0.426 0.426 0 0 1 0.426 -0.426 L10.86 258.9 Z" class="st12"/>
					</g>
				</g>
			</g>
		</g>
		<g id="group65-89" transform="translate(83.5536,-119.442)" v:mID="65" v:groupContext="group">
			<title>Icon-networking-64</title>
			<g id="shape66-90" v:mID="66" v:groupContext="shape" transform="translate(1.02035,-0.921225)">
				<title>f57e105d-6d2d-4ad7-b8c3-c10684c</title>
				<path d="M20.35 264.37 A14.506 14.506 0 0 1 2.58 241.45 L2.73 241.34 A14.5008 14.5008 0 0 1 20.35 264.37 Z"
						class="st19"/>
			</g>
			<g id="shape67-94" v:mID="67" v:groupContext="shape">
				<title>Sheet.67</title>
				<path d="M12.48 238.87 A13.1189 13.1189 -180 1 0 25.6 251.99 A13.136 13.136 -180 0 0 12.48 238.87 ZM21.27 243.29
							 A12.573 12.573 0 0 1 17.6 244.65 A15.0637 15.0637 -180 0 0 15.47 240.05 A12.283 12.283 0 0 1 21.27 243.29
							 ZM12.48 239.6 A11.2424 11.2424 0 0 1 14.34 239.76 A12.7607 12.7607 0 0 1 16.95 244.88 A25.7943 25.7943
							 0 0 1 7.66 244.88 A12.5901 12.5901 0 0 1 10.23 239.86 A12.5218 12.5218 0 0 1 12.48 239.6 ZM9.07 240.05
							 A14.8761 14.8761 -180 0 0 6.91 244.62 A9.51932 9.51932 0 0 1 3.66 243.31 A12.5389 12.5389 0 0 1 9.07
							 240.05 ZM3.48 260.52 A8.99047 8.99047 0 0 1 6.51 259.22 A12.0783 12.0783 -180 0 0 8.82 263.86 A12.3683
							 12.3683 0 0 1 3.48 260.52 ZM14.41 264.27 A12.0783 12.0783 0 0 1 12.48 264.37 A11.6518 11.6518 0 0 1
							 10.03 264.12 A10.2358 10.2358 0 0 1 7.18 259 A25.129 25.129 0 0 1 17.21 259 A10.2358 10.2358 0 0 1 14.33
							 264.12 L14.41 264.27 ZM15.66 264 A12.1636 12.1636 -180 0 0 18.01 259.22 A11.3959 11.3959 0 0 1 21.42
							 260.64 A12.1636 12.1636 0 0 1 15.66 263.93 L15.66 264 ZM18.18 258.51 C18.32 257.89 18.44 257.26 18.52
							 256.6 L17.74 256.78 C17.65 257.31 17.57 257.84 17.45 258.34 A25.9819 25.9819 -180 0 0 7.06 258.34 C6.94
							 257.88 6.85 257.38 6.77 256.87 a0.477672 0.477672 0 0 1 -7.99361E-15 -0.153537 L5.98 256.49 A4.02609
							 4.02609 -180 0 0 5.98 256.97 C5.98 257.52 6.17 258.03 6.27 258.52 A10.0652 10.0652 -180 0 0 2.86 259.97
							 A12.3512 12.3512 0 0 1 3.05 243.94 A10.7306 10.7306 -180 0 0 6.6 245.4 C6.48 245.81 6.38 246.26 6.29
							 246.7 C6.21 247.14 6.29 247.13 6.16 247.33 L6.96 247.14 L6.96 246.85 C7.06 246.41 7.16 245.98 7.28 245.58
							 A25.4019 25.4019 -180 0 0 12.48 245.98 A25.5896 25.5896 -180 0 0 17.23 245.54 C17.35 246 17.47 246.5
							 17.57 246.99 L18.35 247.18 C18.23 246.56 18.09 246 17.94 245.47 A13.1872 13.1872 -180 0 0 21.87 243.92
							 A12.3171 12.3171 0 0 1 21.97 260.11 A12.4195 12.4195 -180 0 0 18.18 258.46 L18.18 258.51 Z"
						class="st20"/>
			</g>
			<g id="shape68-96" v:mID="68" v:groupContext="shape" transform="translate(3.40871,-8.71751)">
				<title>Sheet.68</title>
				<path d="M0.02 257.3 A13.5113 13.5113 0 0 1 2 257.16 A4.16257 4.16257 0 0 1 4.91 258.05 A3.41194 3.41194 0 0 1 5.92
							 260.54 A3.7702 3.7702 0 0 1 4.88 263.33 A4.43553 4.43553 0 0 1 1.71 264.37 A15.6438 15.6438 0 0 1 0
							 264.29 L0.02 257.3 ZM0.96 263.66 A6.82389 6.82389 -180 0 0 1.89 263.66 A2.76367 2.76367 -180 0 0 4.95
							 260.57 A2.55896 2.55896 -180 0 0 2.03 257.81 A5.40793 5.40793 -180 0 0 0.96 257.81 L0.96 263.66 Z"
						class="st4"/>
			</g>
			<g id="shape69-98" v:mID="69" v:groupContext="shape" transform="translate(10.5397,-8.73457)">
				<title>Sheet.69</title>
				<path d="M0 264.32 L0 257.14 L1.01 257.14 L3.31 260.72 A20.7787 20.7787 0 0 1 4.61 263.06 C4.52 262.11 4.5 261.24
							 4.5 260.11 L4.5 257.14 L5.36 257.14 L5.36 264.32 L4.42 264.32 L2.17 260.72 C1.67 259.92 1.19 259.02
							 0.82 258.34 C0.82 259.24 0.82 260.04 0.82 261.3 L0.82 264.37 L0 264.32 Z" class="st4"/>
			</g>
			<g id="shape70-100" v:mID="70" v:groupContext="shape" transform="translate(17.21,-8.68339)">
				<title>Sheet.70</title>
				<path d="M0.2 263.15 A3.41194 3.41194 -180 0 0 1.91 263.61 C2.87 263.61 3.41 263.11 3.41 262.38 C3.41 261.65 3.04
							 261.32 2.06 260.96 C1.09 260.6 0.15 259.94 0.15 258.92 A2.08129 2.08129 0 0 1 2.49 256.97 A3.41194 3.41194
							 0 0 1 4.08 257.31 L3.8 258.08 A2.78073 2.78073 -180 0 0 2.44 257.74 C1.45 257.74 1.07 258.32 1.07 258.81
							 C1.07 259.31 1.52 259.82 2.51 260.2 C3.5 260.57 4.35 261.25 4.35 262.31 C4.35 263.37 3.53 264.37 1.83
							 264.37 A3.6849 3.6849 0 0 1 0 263.91 L0.2 263.15 Z" class="st4"/>
			</g>
		</g>
		<g id="shape71-102" v:mID="71" v:groupContext="shape" transform="translate(291.946,-154.911)">
			<title>Rectangle.71</title>
			<v:userDefs>
				<v:ud v:nameU="visVersion" v:val="VT0(15):26"/>
			</v:userDefs>
			<path d="M0 264.37 L133.77 264.37 L133.77 191.3 L0 191.3 L0 264.37 Z" class="st13"/>
		</g>
		<g id="shape72-104" v:mID="72" v:groupContext="shape" transform="translate(310.804,-209.902)">
			<title>Sheet.72</title>
			<desc>Workload subnet</desc>
			<v:textBlock v:margins="rect(4,4,4,4)"/>
			<v:textRect cx="56.2232" cy="254.813" width="112.45" height="19.125"/>
			<rect x="0" y="245.25" width="112.446" height="19.125" class="st6"/>
			<text x="4" y="257.81" class="st7" v:langID="1033"><v:paragraph/><v:tabList/>Workload subnet</text>		</g>
		<g id="group73-107" transform="translate(297.089,-215.902)" v:mID="73" v:groupContext="group">
			<title>Sheet.73</title>
			<g id="group74-108" transform="translate(0,3.42857)" v:mID="74" v:groupContext="group">
				<title>Sheet.74</title>
				<g id="shape75-109" v:mID="75" v:groupContext="shape" transform="translate(7.28265,-7.11102)">
					<title>Sheet.75</title>
					<path d="M0.69 262.7 a0.97875 0.97875 -180 1 0 0.98025 0.975 a0.97875 0.97875 -180 0 0 -0.98025 -0.975 Z"
							class="st18"/>
				</g>
				<g id="group76-112" v:mID="76" v:groupContext="group">
					<title>Sheet.76</title>
					<g id="shape77-113" v:mID="77" v:groupContext="shape" transform="translate(190.796,441.031) rotate(134.919)">
						<title>Sheet.77</title>
						<path d="M2.22 258.82 L2.89 258.82 a0.213 0.213 0 0 1 0.213 0.213 L3.1 263.95 a0.426 0.426 0 0 1 -0.426 0.426
									 L2.01 264.37 L2.01 259.04 a0.213 0.213 0 0 1 0.213 -0.21375 Z" class="st11"/>
					</g>
					<g id="shape78-115" v:mID="78" v:groupContext="shape" transform="translate(186.677,67.9415) rotate(44.919)">
						<title>Sheet.78</title>
						<path d="M2.18 258.9 L2.85 258.9 a0.213 0.213 0 0 1 0.213 0.213 L3.06 264.37 L2.4 264.37 a0.426 0.426 0 0
									 1 -0.426 -0.426 L1.97 259.11 a0.213 0.213 0 0 1 0.213 -0.213 L2.18 258.9 Z" class="st12"/>
					</g>
					<g id="shape79-117" v:mID="79" v:groupContext="shape" transform="translate(189.655,65.6558) rotate(45.081)">
						<title>Sheet.79</title>
						<path d="M10.4 258.82 L11.07 258.82 a0.426 0.426 0 0 1 0.426 0.426 L11.49 264.16 a0.213 0.213 0 0 1 -0.213
									 0.213 L10.61 264.37 a0.213 0.213 0 0 1 -0.213 -0.213 L10.4 258.82 Z" class="st11"/>
					</g>
					<g id="shape80-119" v:mID="80" v:groupContext="shape" transform="translate(204.701,432.499) rotate(135.081)">
						<title>Sheet.80</title>
						<path d="M10.86 258.9 L11.53 258.9 L11.53 264.16 a0.213 0.213 0 0 1 -0.213 0.213 L10.65 264.37 a0.213 0.213
									 0 0 1 -0.213 -0.213 L10.44 259.33 a0.426 0.426 0 0 1 0.426 -0.426 L10.86 258.9 Z" class="st12"/>
					</g>
				</g>
			</g>
		</g>
		<g id="group81-121" transform="translate(340.804,-181.83)" v:mID="81" v:groupContext="group">
			<title>Icon-compute-28</title>
			<g id="shape82-122" v:mID="82" v:groupContext="shape" transform="translate(0,-7.63399)">
				<title>Sheet.82</title>
				<path d="M0 263.39 a0.989309 0.989309 -180 0 0 0.989286 0.989286 L28.69 264.37 a0.989309 0.989309 -180 0 0 0.989286
							 -0.989286 L29.68 245.58 a0.989309 0.989309 -180 0 0 -0.989286 -0.989286 L0.99 244.59 a0.989309 0.989309
							 -180 0 0 -0.989286 0.989286 L0 263.39 Z" class="st21"/>
			</g>
			<g id="shape83-126" v:mID="83" v:groupContext="shape" transform="translate(1.64881,-9.2828)">
				<title>Sheet.83</title>
				<path d="M0 263.83 a0.54412 0.54412 -180 0 0 0.544107 0.544107 L25.84 264.37 a0.54412 0.54412 -180 0 0 0.544107 -0.544107
							 L26.38 248.43 a0.54412 0.54412 -180 0 0 -0.544107 -0.544107 L0.54 247.89 a0.54412 0.54412 -180 0 0 -0.544107
							 0.544107 L0 263.83 Z" class="st4"/>
			</g>
			<g id="shape84-128" v:mID="84" v:groupContext="shape" transform="translate(14.8393,-11.756)">
				<title>Sheet.84</title>
				<path d="M4.95 255.72 L4.95 261.47 L0 264.37 L0 258.6 L4.95 255.72 Z" class="st22"/>
			</g>
			<g id="shape85-130" v:mID="85" v:groupContext="shape" transform="translate(9.89286,-17.5104)">
				<title>Sheet.85</title>
				<path d="M9.89 261.47 L4.95 264.37 L0 261.47 L4.95 258.59 L9.89 261.47 Z" class="st23"/>
			</g>
			<g id="shape86-132" v:mID="86" v:groupContext="shape" transform="translate(9.89286,-11.756)">
				<title>Sheet.86</title>
				<path d="M4.95 258.62 L4.95 264.37 L0 261.47 L0 255.72 L4.95 258.62 Z" class="st20"/>
			</g>
			<g id="shape87-134" v:mID="87" v:groupContext="shape" transform="translate(9.89286,-11.756)">
				<title>Sheet.87</title>
				<path d="M0 261.47 L4.95 258.6 L4.95 264.37 L0 261.47 Z" class="st24"/>
			</g>
			<g id="shape88-136" v:mID="88" v:groupContext="shape" transform="translate(14.8393,-11.756)">
				<title>Sheet.88</title>
				<path d="M4.95 261.47 L0 258.6 L0 264.37 L4.95 261.47 Z" class="st25"/>
			</g>
			<g id="shape89-138" v:mID="89" v:groupContext="shape" transform="translate(7.41964,0)">
				<title>Sheet.89</title>
				<path d="M13.36 262.73 C10.44 262.26 10.32 260.14 10.32 256.74 L4.5 256.74 C4.5 260.14 4.39 262.26 1.47 262.73 A1.64881
							 1.64881 -180 0 0 0 264.37 L14.84 264.37 A1.64881 1.64881 -180 0 0 13.36 262.73 Z" class="st26"/>
			</g>
		</g>
		<g id="shape90-142" v:mID="90" v:groupContext="shape" transform="translate(315.089,-160.875)">
			<title>Sheet.90</title>
			<desc>Client 10.1.0.4</desc>
			<v:textBlock v:margins="rect(4,4,4,4)"/>
			<v:textRect cx="38.25" cy="254.813" width="76.5" height="19.125"/>
			<rect x="0" y="245.25" width="76.5" height="19.125" class="st6"/>
			<text x="26.21" y="251.81" class="st7" v:langID="1033"><v:paragraph v:horizAlign="1"/><v:tabList/>Client<v:newlineChar/><tspan
						x="21.57" dy="1.2em" class="st17">10.1.0.4</tspan></text>		</g>
		<g id="shape91-146" v:mID="91" v:groupContext="shape" transform="translate(18.4107,-87.7282)">
			<title>Sheet.91</title>
			<desc>Private DNS zone privatelink.blob.core.windows.net</desc>
			<v:textBlock v:margins="rect(4,4,4,4)"/>
			<v:textRect cx="75.8571" cy="249.777" width="151.72" height="29.1964"/>
			<rect x="0" y="235.179" width="151.714" height="29.1964" class="st6"/>
			<text x="40.16" y="246.78" class="st7" v:langID="1033"><v:paragraph v:horizAlign="1"/><v:tabList/>Private DNS zone<v:newlineChar/><tspan
						x="4.19" dy="1.2em" class="st17">privatelink.blob.core.windows.net</tspan></text>		</g>
		<g id="shape100-150" v:mID="100" v:groupContext="shape" v:layerMember="0" transform="translate(113.875,-137.465)">
			<title>Dynamic connector</title>
			<v:userDefs>
				<v:ud v:nameU="visVersion" v:val="VT0(15):26"/>
			</v:userDefs>
			<path d="M0 273.37 L165.23 273.38" class="st27"/>
		</g>
		<g id="shape102-156" v:mID="102" v:groupContext="shape" transform="translate(164.125,-107.063)">
			<title>Sheet.102</title>
			<desc>Linked</desc>
			<v:textBlock v:margins="rect(4,4,4,4)"/>
			<v:textRect cx="22.125" cy="249.777" width="44.26" height="29.1964"/>
			<rect x="0" y="235.179" width="44.25" height="29.1964" class="st6"/>
			<text x="8.86" y="252.78" class="st29" v:langID="1033"><v:paragraph v:horizAlign="1"/><v:tabList/>Linked</text>		</g>
		<g id="group103-159" transform="translate(13.975,-24.7282)" v:mID="103" v:groupContext="group">
			<title>Sheet.103</title>
			<g id="shape92-160" v:mID="92" v:groupContext="shape">
				<title>Sheet.92</title>
				<desc>Name--------------Type-----Value Stgworkload00-----A--------1...</desc>
				<v:textBlock v:margins="rect(4,4,4,4)" v:verticalAlign="0"/>
				<v:textRect cx="103.688" cy="234" width="207.38" height="60.75"/>
				<rect x="0" y="203.625" width="207.375" height="60.75" class="st6"/>
				<text x="4" y="216.63" class="st30" v:langID="1033"><v:paragraph/><v:tabList/>Name<tspan class="st31">--------------</tspan>Type<tspan
							class="st31">-----</tspan>Value<v:newlineChar/><tspan x="4" dy="1.2em" class="st17">Stgworkload00</tspan><tspan
							class="st31">-----</tspan>A<tspan class="st31">--------</tspan>10.1.2.4</text>			</g>
			<g id="group97-168" transform="translate(3,-21.75)" v:mID="97" v:groupContext="group">
				<title>Sheet.97</title>
				<g id="shape95-169" v:mID="95" v:groupContext="shape" v:layerMember="0" transform="translate(0,-32.375)">
					<title>Dynamic connector</title>
					<v:userDefs>
						<v:ud v:nameU="visVersion" v:val="VT0(15):26"/>
					</v:userDefs>
					<path d="M0 273.12 L192.25 273.63" class="st32"/>
				</g>
				<g id="shape96-172" v:mID="96" v:groupContext="shape" v:layerMember="0" transform="translate(1.5625,-18)">
					<title>Dynamic connector.96</title>
					<v:userDefs>
						<v:ud v:nameU="visVersion" v:val="VT0(15):26"/>
					</v:userDefs>
					<path d="M0 273.12 L192.25 273.63" class="st32"/>
				</g>
			</g>
		</g>
		<g id="group104-175" transform="translate(83.5,-189.161)" v:mID="104" v:groupContext="group">
			<title>Icon-networking-64.104</title>
			<g id="shape105-176" v:mID="105" v:groupContext="shape" transform="translate(1.02035,-0.921225)">
				<title>f57e105d-6d2d-4ad7-b8c3-c10684c</title>
				<path d="M20.35 264.37 A14.506 14.506 0 0 1 2.58 241.45 L2.73 241.34 A14.5008 14.5008 0 0 1 20.35 264.37 Z"
						class="st19"/>
			</g>
			<g id="shape106-179" v:mID="106" v:groupContext="shape">
				<title>Sheet.106</title>
				<path d="M12.48 238.87 A13.1189 13.1189 -180 1 0 25.6 251.99 A13.136 13.136 -180 0 0 12.48 238.87 ZM21.27 243.29
							 A12.573 12.573 0 0 1 17.6 244.65 A15.0637 15.0637 -180 0 0 15.47 240.05 A12.283 12.283 0 0 1 21.27 243.29
							 ZM12.48 239.6 A11.2424 11.2424 0 0 1 14.34 239.76 A12.7607 12.7607 0 0 1 16.95 244.88 A25.7943 25.7943
							 0 0 1 7.66 244.88 A12.5901 12.5901 0 0 1 10.23 239.86 A12.5218 12.5218 0 0 1 12.48 239.6 ZM9.07 240.05
							 A14.8761 14.8761 -180 0 0 6.91 244.62 A9.51932 9.51932 0 0 1 3.66 243.31 A12.5389 12.5389 0 0 1 9.07
							 240.05 ZM3.48 260.52 A8.99047 8.99047 0 0 1 6.51 259.22 A12.0783 12.0783 -180 0 0 8.82 263.86 A12.3683
							 12.3683 0 0 1 3.48 260.52 ZM14.41 264.27 A12.0783 12.0783 0 0 1 12.48 264.37 A11.6518 11.6518 0 0 1
							 10.03 264.12 A10.2358 10.2358 0 0 1 7.18 259 A25.129 25.129 0 0 1 17.21 259 A10.2358 10.2358 0 0 1 14.33
							 264.12 L14.41 264.27 ZM15.66 264 A12.1636 12.1636 -180 0 0 18.01 259.22 A11.3959 11.3959 0 0 1 21.42
							 260.64 A12.1636 12.1636 0 0 1 15.66 263.93 L15.66 264 ZM18.18 258.51 C18.32 257.89 18.44 257.26 18.52
							 256.6 L17.74 256.78 C17.65 257.31 17.57 257.84 17.45 258.34 A25.9819 25.9819 -180 0 0 7.06 258.34 C6.94
							 257.88 6.85 257.38 6.77 256.87 a0.477672 0.477672 0 0 1 -7.99361E-15 -0.153537 L5.98 256.49 A4.02609
							 4.02609 -180 0 0 5.98 256.97 C5.98 257.52 6.17 258.03 6.27 258.52 A10.0652 10.0652 -180 0 0 2.86 259.97
							 A12.3512 12.3512 0 0 1 3.05 243.94 A10.7306 10.7306 -180 0 0 6.6 245.4 C6.48 245.81 6.38 246.26 6.29
							 246.7 C6.21 247.14 6.29 247.13 6.16 247.33 L6.96 247.14 L6.96 246.85 C7.06 246.41 7.16 245.98 7.28 245.58
							 A25.4019 25.4019 -180 0 0 12.48 245.98 A25.5896 25.5896 -180 0 0 17.23 245.54 C17.35 246 17.47 246.5
							 17.57 246.99 L18.35 247.18 C18.23 246.56 18.09 246 17.94 245.47 A13.1872 13.1872 -180 0 0 21.87 243.92
							 A12.3171 12.3171 0 0 1 21.97 260.11 A12.4195 12.4195 -180 0 0 18.18 258.46 L18.18 258.51 Z"
						class="st20"/>
			</g>
			<g id="shape107-181" v:mID="107" v:groupContext="shape" transform="translate(3.40871,-8.71751)">
				<title>Sheet.107</title>
				<path d="M0.02 257.3 A13.5113 13.5113 0 0 1 2 257.16 A4.16257 4.16257 0 0 1 4.91 258.05 A3.41194 3.41194 0 0 1 5.92
							 260.54 A3.7702 3.7702 0 0 1 4.88 263.33 A4.43553 4.43553 0 0 1 1.71 264.37 A15.6438 15.6438 0 0 1 0
							 264.29 L0.02 257.3 ZM0.96 263.66 A6.82389 6.82389 -180 0 0 1.89 263.66 A2.76367 2.76367 -180 0 0 4.95
							 260.57 A2.55896 2.55896 -180 0 0 2.03 257.81 A5.40793 5.40793 -180 0 0 0.96 257.81 L0.96 263.66 Z"
						class="st4"/>
			</g>
			<g id="shape108-183" v:mID="108" v:groupContext="shape" transform="translate(10.5397,-8.73457)">
				<title>Sheet.108</title>
				<path d="M0 264.32 L0 257.14 L1.01 257.14 L3.31 260.72 A20.7787 20.7787 0 0 1 4.61 263.06 C4.52 262.11 4.5 261.24
							 4.5 260.11 L4.5 257.14 L5.36 257.14 L5.36 264.32 L4.42 264.32 L2.17 260.72 C1.67 259.92 1.19 259.02
							 0.82 258.34 C0.82 259.24 0.82 260.04 0.82 261.3 L0.82 264.37 L0 264.32 Z" class="st4"/>
			</g>
			<g id="shape109-185" v:mID="109" v:groupContext="shape" transform="translate(17.21,-8.68339)">
				<title>Sheet.109</title>
				<path d="M0.2 263.15 A3.41194 3.41194 -180 0 0 1.91 263.61 C2.87 263.61 3.41 263.11 3.41 262.38 C3.41 261.65 3.04
							 261.32 2.06 260.96 C1.09 260.6 0.15 259.94 0.15 258.92 A2.08129 2.08129 0 0 1 2.49 256.97 A3.41194 3.41194
							 0 0 1 4.08 257.31 L3.8 258.08 A2.78073 2.78073 -180 0 0 2.44 257.74 C1.45 257.74 1.07 258.32 1.07 258.81
							 C1.07 259.31 1.52 259.82 2.51 260.2 C3.5 260.57 4.35 261.25 4.35 262.31 C4.35 263.37 3.53 264.37 1.83
							 264.37 A3.6849 3.6849 0 0 1 0 263.91 L0.2 263.15 Z" class="st4"/>
			</g>
		</g>
		<g id="shape110-187" v:mID="110" v:groupContext="shape" transform="translate(18.25,-165.536)">
			<title>Sheet.110</title>
			<desc>Azure DNS</desc>
			<v:textBlock v:margins="rect(4,4,4,4)"/>
			<v:textRect cx="75.8571" cy="249.777" width="151.72" height="29.1964"/>
			<rect x="0" y="235.179" width="151.714" height="29.1964" class="st6"/>
			<text x="53.92" y="252.78" class="st7" v:langID="1033"><v:paragraph v:horizAlign="1"/><v:tabList/>Azure DNS</text>		</g>
		<g id="shape111-190" v:mID="111" v:groupContext="shape" v:layerMember="0" transform="translate(110.5,-223.875)">
			<title>Dynamic connector.111</title>
			<v:userDefs>
				<v:ud v:nameU="visVersion" v:val="VT0(15):26"/>
			</v:userDefs>
			<path d="M3.16 273.37 L3.52 273.37 L168.75 273.38" class="st33"/>
		</g>
		<g id="shape112-196" v:mID="112" v:groupContext="shape" transform="translate(126.25,-209.25)">
			<title>Sheet.112</title>
			<desc>Configured DNS server</desc>
			<v:textBlock v:margins="rect(4,4,4,4)"/>
			<v:textRect cx="75.8571" cy="249.777" width="151.72" height="29.1964"/>
			<rect x="0" y="235.179" width="151.714" height="29.1964" class="st6"/>
			<text x="29.88" y="252.78" class="st29" v:langID="1033"><v:paragraph v:horizAlign="1"/><v:tabList/>Configured DNS server</text>		</g>
		<g id="group113-199" transform="translate(442.256,-101.336)" v:mID="113" v:groupContext="group">
			<title>Sheet.113</title>
			<g id="shape114-200" v:mID="114" v:groupContext="shape">
				<title>Sheet.114</title>
				<path d="M8.44 247.5 C3.78 247.5 0 251.28 0 255.94 C0 260.6 3.78 264.37 8.44 264.37 C13.1 264.37 16.87 260.6 16.87
							 255.94 C16.87 255.94 16.87 255.94 16.87 255.94 C16.88 251.28 13.1 247.5 8.44 247.5 C8.44 247.5 8.44
							 247.5 8.44 247.5 ZM10.98 258.02 C10.86 258.32 10.69 258.6 10.46 258.83 C10.24 259.06 9.96 259.24 9.65
							 259.36 C9.31 259.49 8.94 259.55 8.58 259.55 C8.13 259.56 7.69 259.46 7.3 259.25 C6.96 259.06 6.67 258.8
							 6.46 258.48 C6.24 258.15 6.08 257.79 5.99 257.41 C5.9 257.01 5.85 256.61 5.85 256.21 C5.85 255.86 5.88
							 255.52 5.94 255.18 C6 254.84 6.09 254.51 6.22 254.18 C6.34 253.87 6.49 253.57 6.69 253.29 C6.87 253.01
							 7.1 252.77 7.35 252.56 C7.61 252.35 7.91 252.18 8.22 252.07 C8.57 251.94 8.94 251.88 9.31 251.89 C9.79
							 251.87 10.26 251.95 10.71 252.13 L10.71 253.14 C10.28 252.93 9.81 252.82 9.33 252.82 C8.95 252.81 8.58
							 252.9 8.26 253.08 C7.97 253.24 7.73 253.47 7.54 253.75 C7.36 254.04 7.22 254.36 7.15 254.69 C7.06 255.04
							 7.02 255.4 7.02 255.76 L7.04 255.76 C7.13 255.61 7.23 255.47 7.35 255.34 C7.47 255.21 7.61 255.1 7.75
							 255.01 C7.91 254.91 8.07 254.83 8.25 254.78 C8.43 254.73 8.62 254.7 8.81 254.7 C9.14 254.7 9.46 254.75
							 9.77 254.87 C10.05 254.98 10.3 255.14 10.51 255.35 C10.72 255.56 10.88 255.81 10.99 256.08 C11.1 256.37
							 11.16 256.68 11.16 256.99 C11.16 257.34 11.1 257.69 10.98 258.02 Z" class="st34"/>
			</g>
			<g id="shape115-202" v:mID="115" v:groupContext="shape" transform="translate(7.06069,-5.75406)">
				<title>Sheet.115</title>
				<path d="M2.51 261.74 C2.38 261.62 2.23 261.53 2.06 261.47 C1.89 261.42 1.71 261.39 1.54 261.39 C1.35 261.39 1.16
							 261.43 0.98 261.49 C0.8 261.56 0.64 261.66 0.49 261.79 C0.35 261.92 0.23 262.08 0.14 262.25 C0.05 262.44
							 0 262.65 0 262.87 C0 263.06 0.04 263.25 0.1 263.44 C0.17 263.62 0.27 263.78 0.4 263.92 C0.54 264.06
							 0.71 264.17 0.89 264.25 C1.1 264.33 1.33 264.37 1.55 264.37 C1.77 264.37 1.98 264.33 2.17 264.24 C2.34
							 264.15 2.49 264.04 2.6 263.89 C2.72 263.75 2.81 263.58 2.87 263.41 C2.93 263.23 2.96 263.04 2.96 262.86
							 C2.96 262.63 2.92 262.41 2.83 262.2 C2.76 262.02 2.65 261.87 2.51 261.74 Z" class="st34"/>
			</g>
		</g>
		<g id="group116-204" transform="translate(186.839,-172.916)" v:mID="116" v:groupContext="group">
			<title>Sheet.116</title>
			<g id="shape117-205" v:mID="117" v:groupContext="shape" transform="translate(6.51024,-7.55355)">
				<title>Sheet.117</title>
				<path d="M1.03 263.05 C0.86 263.3 0.69 263.53 0.52 263.74 C0.36 263.95 0.18 264.16 0 264.37 L2.21 264.37 L2.21 261.15
							 C1.98 261.55 1.77 261.91 1.58 262.22 C1.39 262.53 1.21 262.8 1.03 263.05 Z" class="st34"/>
			</g>
			<g id="shape118-207" v:mID="118" v:groupContext="shape">
				<title>Sheet.118</title>
				<path d="M8.44 247.5 C3.78 247.5 0 251.28 0 255.94 C0 260.6 3.78 264.37 8.44 264.37 C13.1 264.37 16.87 260.6 16.87
							 255.94 C16.87 255.94 16.87 255.94 16.87 255.94 C16.88 251.28 13.1 247.5 8.44 247.5 C8.44 247.5 8.44
							 247.5 8.44 247.5 ZM11.01 257.89 L10 257.89 L10 259.48 L8.72 259.48 L8.72 257.89 L5.25 257.89 L5.25 256.88
							 C5.59 256.51 5.93 256.11 6.26 255.7 C6.59 255.29 6.9 254.87 7.19 254.44 C7.48 254.02 7.75 253.6 8 253.18
							 C8.25 252.75 8.47 252.35 8.66 251.95 L10 251.95 L10 256.82 L11.01 256.82 L11.01 257.89 Z" class="st34"/>
			</g>
		</g>
		<g id="group119-209" transform="translate(214.312,-200.813)" v:mID="119" v:groupContext="group">
			<title>Sheet.119</title>
			<g id="shape120-210" v:mID="120" v:groupContext="shape">
				<title>Sheet.120</title>
				<path d="M8.44 247.5 C3.78 247.5 0 251.28 0 255.94 C0 260.6 3.78 264.37 8.44 264.37 C13.1 264.37 16.87 260.6 16.87
							 255.94 C16.87 255.94 16.87 255.94 16.87 255.94 C16.88 251.28 13.1 247.5 8.44 247.5 C8.44 247.5 8.44
							 247.5 8.44 247.5 ZM10.85 259.72 L6.02 259.72 L6.02 259.01 C6.02 258.72 6.08 258.42 6.19 258.15 C6.3
							 257.89 6.45 257.65 6.63 257.44 C6.83 257.21 7.05 257.01 7.29 256.83 C7.54 256.64 7.81 256.46 8.1 256.29
							 C8.35 256.14 8.58 255.97 8.79 255.79 C8.96 255.65 9.1 255.5 9.22 255.32 C9.32 255.18 9.4 255.02 9.44
							 254.85 C9.48 254.67 9.5 254.49 9.5 254.31 C9.5 254.16 9.47 254 9.43 253.86 C9.38 253.71 9.3 253.58 9.21
							 253.47 C9.11 253.35 8.98 253.26 8.84 253.2 C8.67 253.13 8.5 253.1 8.32 253.1 C7.97 253.1 7.63 253.18
							 7.32 253.34 C6.99 253.51 6.69 253.72 6.42 253.97 L6.42 252.82 C6.68 252.59 6.99 252.41 7.32 252.31 C7.68
							 252.2 8.05 252.15 8.43 252.15 C8.73 252.15 9.03 252.19 9.31 252.28 C9.58 252.37 9.82 252.5 10.04 252.67
							 C10.25 252.84 10.41 253.06 10.52 253.31 C10.65 253.58 10.71 253.87 10.7 254.17 C10.7 254.44 10.67 254.71
							 10.61 254.97 C10.55 255.21 10.44 255.45 10.31 255.66 C10.15 255.89 9.97 256.1 9.76 256.28 C9.5 256.51
							 9.22 256.71 8.93 256.9 C8.66 257.06 8.43 257.22 8.22 257.36 C8.04 257.49 7.86 257.63 7.69 257.79 C7.56
							 257.91 7.45 258.06 7.37 258.22 C7.29 258.38 7.25 258.55 7.26 258.72 L10.85 258.72 L10.85 259.72 Z"
						class="st34"/>
			</g>
		</g>
		<g id="group121-212" transform="translate(71.6875,-157.661)" v:mID="121" v:groupContext="group">
			<title>Sheet.121</title>
			<g id="shape122-213" v:mID="122" v:groupContext="shape">
				<title>Sheet.122</title>
				<path d="M8.44 247.5 C3.78 247.5 0 251.28 0 255.94 C0 260.6 3.78 264.37 8.44 264.37 C13.1 264.37 16.87 260.6 16.87
							 255.94 C16.87 255.94 16.87 255.94 16.87 255.94 C16.88 251.28 13.1 247.5 8.44 247.5 C8.44 247.5 8.44
							 247.5 8.44 247.5 ZM10.67 258.5 C10.51 258.78 10.3 259.02 10.04 259.2 C9.76 259.39 9.44 259.54 9.11 259.62
							 C8.75 259.72 8.38 259.77 8 259.77 C7.62 259.77 7.25 259.73 6.87 259.67 C6.56 259.62 6.26 259.51 5.98
							 259.37 L5.98 258.23 C6.28 258.44 6.61 258.59 6.96 258.68 C7.31 258.78 7.67 258.83 8.04 258.83 C8.21
							 258.83 8.39 258.81 8.56 258.78 C8.75 258.74 8.92 258.68 9.08 258.59 C9.24 258.5 9.38 258.37 9.48 258.22
							 C9.59 258.04 9.65 257.83 9.64 257.62 C9.65 257.4 9.59 257.19 9.49 257 C9.39 256.83 9.24 256.69 9.07
							 256.59 C8.87 256.48 8.66 256.4 8.43 256.36 C8.17 256.31 7.91 256.28 7.64 256.28 L6.96 256.28 L6.96 255.34
							 L7.6 255.34 C7.84 255.34 8.08 255.32 8.31 255.27 C8.51 255.24 8.69 255.16 8.86 255.06 C9.01 254.96 9.14
							 254.83 9.22 254.67 C9.31 254.49 9.36 254.29 9.35 254.09 C9.36 253.91 9.32 253.73 9.23 253.57 C9.15 253.44
							 9.05 253.33 8.92 253.26 C8.79 253.18 8.66 253.13 8.51 253.1 C8.37 253.07 8.23 253.05 8.08 253.05 C7.77
							 253.06 7.47 253.1 7.17 253.19 C6.86 253.27 6.56 253.4 6.3 253.58 L6.3 252.54 C6.57 252.39 6.87 252.28
							 7.17 252.22 C7.51 252.14 7.85 252.11 8.19 252.11 C8.49 252.11 8.8 252.15 9.09 252.22 C9.37 252.28 9.63
							 252.39 9.87 252.55 C10.09 252.69 10.28 252.88 10.41 253.11 C10.55 253.35 10.62 253.63 10.61 253.91 C10.63
							 254.35 10.48 254.78 10.19 255.12 C9.88 255.45 9.47 255.67 9.03 255.76 C9.27 255.79 9.51 255.85 9.73
							 255.94 C9.95 256.03 10.15 256.15 10.33 256.31 C10.5 256.46 10.64 256.65 10.75 256.86 C10.85 257.07 10.9
							 257.31 10.9 257.55 C10.91 257.88 10.83 258.21 10.67 258.5 Z" class="st34"/>
			</g>
		</g>
		<g id="group123-215" transform="translate(329.875,-142.399)" v:mID="123" v:groupContext="group">
			<title>Sheet.123</title>
			<g id="shape124-216" v:mID="124" v:groupContext="shape">
				<title>Sheet.124</title>
				<path d="M8.44 247.5 C3.78 247.5 0 251.28 0 255.94 C0 260.6 3.78 264.37 8.44 264.37 C13.1 264.37 16.87 260.6 16.87
							 255.94 C16.88 251.28 13.1 247.5 8.44 247.5 C8.44 247.5 8.44 247.5 8.44 247.5 ZM10.93 258.26 C10.76 258.56
							 10.52 258.81 10.24 259 C9.94 259.2 9.6 259.35 9.25 259.43 C8.86 259.52 8.47 259.57 8.08 259.57 C7.27
							 259.57 6.66 259.47 6.26 259.26 L6.26 258.15 C6.82 258.46 7.45 258.63 8.1 258.63 C8.34 258.63 8.59 258.6
							 8.83 258.54 C9.04 258.49 9.24 258.4 9.42 258.28 C9.76 258.04 9.96 257.65 9.95 257.23 C9.95 257.02 9.9
							 256.81 9.78 256.63 C9.67 256.46 9.51 256.32 9.34 256.22 C9.14 256.1 8.92 256.03 8.69 255.98 C8.44 255.93
							 8.18 255.91 7.92 255.91 C7.67 255.91 7.21 255.93 6.54 255.98 L6.91 252.04 L10.8 252.04 L10.8 253.03
							 L8.01 253.03 L7.82 254.97 C7.88 254.97 7.93 254.96 7.96 254.96 C7.99 254.96 8.02 254.96 8.04 254.96
							 C8.06 254.95 8.09 254.95 8.11 254.95 L8.24 254.95 C8.61 254.95 8.99 254.99 9.36 255.07 C9.69 255.14
							 10.01 255.28 10.3 255.46 C10.57 255.64 10.79 255.87 10.95 256.15 C11.12 256.47 11.21 256.82 11.2 257.18
							 C11.21 257.56 11.11 257.93 10.93 258.26 Z" class="st34"/>
			</g>
		</g>
		<g id="group125-218" transform="translate(377.125,-174.83)" v:mID="125" v:groupContext="group">
			<title>Sheet.125</title>
			<g id="shape126-219" v:mID="126" v:groupContext="shape">
				<title>Sheet.126</title>
				<path d="M8.44 247.5 C3.78 247.5 0 251.28 0 255.94 C0 260.6 3.78 264.37 8.44 264.37 C13.1 264.37 16.87 260.6 16.87
							 255.94 C16.87 255.94 16.87 255.94 16.87 255.94 C16.87 251.28 13.1 247.5 8.44 247.5 C8.44 247.5 8.44
							 247.5 8.44 247.5 ZM9.36 259.52 L8.08 259.52 L8.08 253.39 C7.97 253.46 7.86 253.54 7.74 253.6 C7.62 253.67
							 7.49 253.73 7.36 253.79 C7.23 253.84 7.08 253.89 6.93 253.94 C6.78 253.99 6.61 254.03 6.43 254.08 L6.43
							 253.05 C6.55 253.02 6.66 252.98 6.76 252.95 C6.86 252.91 6.96 252.88 7.06 252.84 C7.16 252.81 7.26 252.76
							 7.36 252.72 C7.45 252.68 7.55 252.64 7.65 252.6 C7.74 252.55 7.84 252.5 7.93 252.45 C8.03 252.4 8.13
							 252.35 8.22 252.3 C8.32 252.24 8.42 252.18 8.52 252.12 C8.63 252.06 8.73 252 8.83 251.94 L9.36 251.94
							 L9.36 259.52 Z" class="st34"/>
			</g>
		</g>
		<g id="shape129-221" v:mID="129" v:groupContext="shape" v:layerMember="0" transform="translate(111.873,-209.325)">
			<title>Dynamic connector.129</title>
			<v:userDefs>
				<v:ud v:nameU="visVersion" v:val="VT0(15):26"/>
			</v:userDefs>
			<path d="M3.16 273.37 L3.52 273.37 L168.75 273.38" class="st35"/>
		</g>
		<g id="shape132-226" v:mID="132" v:groupContext="shape" v:layerMember="0" transform="translate(86.0279,-150.042)">
			<title>Dynamic connector.132</title>
			<v:userDefs>
				<v:ud v:nameU="visVersion" v:val="VT0(15):26"/>
			</v:userDefs>
			<path d="M9 261.21 L9 260.85 L9 238.5" class="st35"/>
		</g>
		<g id="shape134-231" v:mID="134" v:groupContext="shape" v:layerMember="0" transform="translate(114.75,-182.446)">
			<title>Dynamic connector.134</title>
			<v:userDefs>
				<v:ud v:nameU="visVersion" v:val="VT0(15):26"/>
			</v:userDefs>
			<path d="M0 255.37 L219.23 255.37" class="st36"/>
		</g>
		<g id="group136-236" transform="translate(468.114,-121.586)" v:mID="136" v:groupContext="group">
			<title>Sheet.136</title>
			<g id="group137-237" v:mID="137" v:groupContext="group">
				<title>Sheet.137</title>
				<g id="shape138-238" v:mID="138" v:groupContext="shape" transform="translate(4.28747,-3.42002)">
					<title>Sheet.138</title>
					<path d="M3.76 260.16 L2.08 260.16 A2.10552 2.10552 -180 0 0 1.75 264.35 A2.25833 2.25833 0 0 1 1.78 263.56 A1.32931
								 1.32931 0 0 1 2.08 260.94 L3.77 260.94 A1.33306 1.33306 0 1 1 3.77 263.6 L3.3 263.6 A1.00308 1.00308
								 -180 0 0 3.21 264.02 a0.954329 0.954329 -180 0 0 0.0665593 0.350608 L3.77 264.37 A2.10552 2.10552
								 -180 1 0 3.77 260.16 L3.76 260.16 Z" class="st37"/>
				</g>
				<g id="shape139-242" v:mID="139" v:groupContext="shape" transform="translate(6.41214,-1.66885)">
					<title>Sheet.139</title>
					<path d="M4.07 260.2 A2.47863 2.47863 0 0 1 4.1 260.52 A2.16365 2.16365 0 0 1 4.05 260.98 A1.32931 1.32931 0
								 0 1 3.75 263.6 L2.06 263.6 A1.33306 1.33306 0 0 1 2.06 260.94 L2.52 260.94 a0.979641 0.979641 -180
								 0 0 0.0937455 -0.420917 a0.963704 0.963704 -180 0 0 -0.0665593 -0.351546 L2.06 260.16 A2.10552 2.10552
								 -180 0 0 2.06 264.37 L3.75 264.37 A2.10552 2.10552 -180 0 0 4.07 260.19 L4.07 260.2 Z"
							class="st38"/>
				</g>
				<g id="shape140-246" v:mID="140" v:groupContext="shape" transform="translate(0,-0.314045)">
					<title>Sheet.140</title>
					<path d="M5.23 263.91 L4.85 264.3 a0.264362 0.264362 0 0 1 -0.374982 0 L0.16 259.99 a0.5306 0.5306 0 0 1 -4.32987E-15
								 -0.749964 L0.55 258.86 L5.23 263.54 a0.258738 0.258738 0 0 1 -8.88178E-16 0.366545 L5.23 263.91
								 Z" class="st11"/>
				</g>
				<g id="shape141-248" v:mID="141" v:groupContext="shape" transform="translate(-8.44325E-14,-4.2656)">
					<title>Sheet.141</title>
					<path d="M4.77 258.95 L5.2 259.38 a0.264362 0.264362 0 0 1 6.21725E-15 0.374982 L0.59 264.37 L0.16 263.95 a0.5306
								 0.5306 0 0 1 -5.21805E-15 -0.749964 L4.39 258.95 a0.264362 0.264362 0 0 1 0.37217 0 Z"
							class="st12"/>
				</g>
				<g id="shape142-250" v:mID="142" v:groupContext="shape" transform="translate(11.5629,-5.68434E-14)">
					<title>Sheet.142</title>
					<path d="M0.08 263.9 a0.258738 0.258738 0 0 1 -0.00562473 -0.366545 L0.08 263.53 L4.77 258.86 L5.16 259.25 a0.5306
								 0.5306 0 0 1 -8.88178E-16 0.749964 L0.83 264.3 a0.258738 0.258738 0 0 1 -0.366545 0.00562473 L0.46
								 264.3 L0.08 263.9 Z" class="st11"/>
				</g>
				<g id="shape143-252" v:mID="143" v:groupContext="shape" transform="translate(11.6004,-3.95718)">
					<title>Sheet.143</title>
					<path d="M0.88 258.95 L5.12 263.2 a0.527787 0.527787 0 0 1 -8.88178E-16 0.743402 L4.69 264.37 L0.08 259.75 a0.26905
								 0.26905 0 0 1 -1.13798E-15 -0.374982 L0.51 258.95 a0.264362 0.264362 0 0 1 0.37217 0 Z"
							class="st12"/>
				</g>
			</g>
		</g>
		<g id="shape144-254" v:mID="144" v:groupContext="shape" v:layerMember="0" transform="translate(347.125,-162.086)">
			<title>Dynamic connector.144</title>
			<v:userDefs>
				<v:ud v:nameU="visVersion" v:val="VT0(15):26"/>
			</v:userDefs>
			<path d="M9 264.37 L9 283.35" class="st36"/>
		</g>
		<g id="shape145-259" v:mID="145" v:groupContext="shape" v:layerMember="0" transform="translate(373.682,-111.086)">
			<title>Dynamic connector.145</title>
			<v:userDefs>
				<v:ud v:nameU="visVersion" v:val="VT0(15):26"/>
			</v:userDefs>
			<path d="M0 255.37 L135.98 255.37" class="st36"/>
		</g>
	</g>
</svg>
