<?xml version="1.0" encoding="UTF-8" standalone="no"?>
<!DOCTYPE svg PUBLIC "-//W3C//DTD SVG 1.1//EN" "http://www.w3.org/Graphics/SVG/1.1/DTD/svg11.dtd">
<!-- Generated by Microsoft Visio, SVG Export dns-private-endpoints-vwan-scenario-single-region-challenge.svg Single Region Challenge -->
<svg xmlns="http://www.w3.org/2000/svg" xmlns:xlink="http://www.w3.org/1999/xlink" xmlns:ev="http://www.w3.org/2001/xml-events"
		xmlns:v="http://schemas.microsoft.com/visio/2003/SVGExtensions/" width="7.81944in" height="6.83508in"
		viewBox="0 0 563 492.126" xml:space="preserve" color-interpolation-filters="sRGB" class="st64">
	<v:documentProperties v:langID="1033" v:viewMarkup="false">
		<v:userDefs>
			<v:ud v:nameU="msvNoAutoConnect" v:val="VT0(0):26"/>
			<v:ud v:nameU="msvWarnOnPersonalInfo" v:val="VT0(0):5"/>
		</v:userDefs>
	</v:documentProperties>

	<style type="text/css">
	<![CDATA[
		.st1 {fill:#ffffff;stroke:none;stroke-width:0.25}
		.st2 {fill:#d8d8d8;stroke:#d8d8d8;stroke-width:0.25}
		.st3 {fill:url(#grad0-9);stroke:none;stroke-linecap:butt;stroke-width:0.75}
		.st4 {fill:#37c2b1;stroke:none;stroke-linecap:butt;stroke-width:0.75}
		.st5 {fill:#ffffff;stroke:none;stroke-linecap:butt;stroke-width:0.75}
		.st6 {fill:#258277;stroke:none;stroke-linecap:butt;stroke-width:0.75}
		.st7 {fill:none;stroke:none;stroke-width:0.25}
		.st8 {fill:#5b9bd5;font-family:Calibri;font-size:0.833336em;font-weight:bold}
		.st9 {fill:#ffffff;stroke:#c7c8c8;stroke-width:0.25}
		.st10 {fill:url(#grad0-27);stroke:none;stroke-linecap:butt;stroke-width:0.75}
		.st11 {fill:url(#grad0-31);stroke:none;stroke-linecap:butt;stroke-width:0.75}
		.st12 {fill:#50e6ff;stroke:none;stroke-linecap:butt;stroke-width:0.75}
		.st13 {fill:#1490df;stroke:none;stroke-linecap:butt;stroke-width:0.75}
		.st14 {fill:#ffffff;stroke:#759fcc;stroke-dasharray:1.75,1.25;stroke-width:0.25}
		.st15 {fill:#7a7a7a;stroke:none;stroke-linecap:butt;stroke-width:0.75}
		.st16 {fill:url(#grad0-59);stroke:none;stroke-linecap:butt;stroke-width:0.75}
		.st17 {fill:url(#grad0-63);stroke:none;stroke-linecap:butt;stroke-width:0.75}
		.st18 {font-size:1em}
		.st19 {fill:url(#grad0-81);stroke:none;stroke-linecap:butt;stroke-width:0.75}
		.st20 {fill:url(#grad1-95);stroke:none;stroke-linecap:butt;stroke-width:0.75}
		.st21 {fill:#5ea0ef;stroke:none;stroke-linecap:butt;stroke-width:0.75}
		.st22 {fill:url(#grad0-127);stroke:none;stroke-linecap:butt;stroke-width:0.75}
		.st23 {fill:#0078d4;stroke:none;stroke-linecap:butt;stroke-width:0.75}
		.st24 {fill:#83b9f9;stroke:none;stroke-linecap:butt;stroke-width:0.75}
		.st25 {fill:#83b9f9;fill-opacity:0.2;stroke:none;stroke-linecap:butt;stroke-width:0.75}
		.st26 {fill:#5ea0ef;fill-opacity:0.2;stroke:none;stroke-linecap:butt;stroke-width:0.75}
		.st27 {fill:url(#grad0-143);stroke:none;stroke-linecap:butt;stroke-width:0.75}
		.st28 {fill:#ff0000;font-family:Calibri;font-size:0.833336em}
		.st29 {fill:#5b9bd5;font-family:Calibri;font-size:0.833336em}
		.st30 {fill:#107c10;stroke:none;stroke-linecap:butt;stroke-width:6.375}
		.st31 {marker-end:url(#mrkr2-178);stroke:#ff0000;stroke-linecap:round;stroke-linejoin:round;stroke-width:1}
		.st32 {fill:#ff0000;fill-opacity:1;stroke:#ff0000;stroke-opacity:1;stroke-width:0.28409090909091}
		.st33 {fill:#ffffff;stroke:#90aadb;stroke-width:0.25}
		.st34 {fill:#821010;stroke:none;stroke-linecap:butt;stroke-width:0.75}
		.st35 {fill:#e62323;stroke:none;stroke-linecap:butt;stroke-width:0.75}
		.st36 {fill:#ff7381;stroke:none;stroke-linecap:butt;stroke-width:0.75}
		.st37 {fill:#9cebff;stroke:none;stroke-linecap:butt;stroke-width:0.75}
		.st38 {fill:#86d633;stroke:none;stroke-linecap:butt;stroke-width:0.75}
		.st39 {fill:url(#grad0-216);stroke:none;stroke-linecap:butt;stroke-width:0.75}
		.st40 {fill:url(#grad0-222);stroke:none;stroke-linecap:butt;stroke-width:0.75}
		.st41 {fill:#ffffff;fill-opacity:0.8;stroke:none;stroke-linecap:butt;stroke-width:0.75}
		.st42 {marker-end:url(#mrkr4-232);stroke:#4672c4;stroke-dasharray:0,5;stroke-linecap:round;stroke-linejoin:round;stroke-width:1}
		.st43 {fill:#4672c4;fill-opacity:1;stroke:#4672c4;stroke-opacity:1;stroke-width:0.28409090909091}
		.st44 {stroke:#4672c4;stroke-linecap:round;stroke-linejoin:round;stroke-width:1}
		.st45 {marker-end:url(#mrkr2-245);stroke:#4672c4;stroke-dasharray:7,5;stroke-linecap:round;stroke-linejoin:round;stroke-width:1}
		.st46 {fill:url(#grad0-251);stroke:none;stroke-linecap:butt;stroke-width:0.75}
		.st47 {fill:#f2f2f2;stroke:none;stroke-linecap:butt;stroke-width:0.75}
		.st48 {fill:#e6e6e6;stroke:none;stroke-linecap:butt;stroke-width:0.75}
		.st49 {fill:#ce74b6;stroke:none;stroke-linecap:butt;stroke-width:0.75}
		.st50 {fill:#6bb9f2;stroke:none;stroke-linecap:butt;stroke-width:0.75}
		.st51 {fill:url(#grad0-285);stroke:none;stroke-linecap:butt;stroke-width:0.75}
		.st52 {marker-end:url(#mrkr2-178);stroke:#ff0000;stroke-dasharray:0,5;stroke-linecap:round;stroke-linejoin:round;stroke-width:1}
		.st53 {fill:#5b9bd5;font-family:Consolas;font-size:0.666664em}
		.st54 {fill:#d8d8d8;font-size:1em}
		.st55 {stroke:#4672c4;stroke-linecap:round;stroke-linejoin:round;stroke-width:0.75}
		.st56 {fill:#c00000;font-family:Calibri;font-size:2.50001em}
		.st57 {fill:#c00000;font-family:Calibri;font-size:1.5em}
		.st58 {marker-end:url(#mrkr4-346);stroke:#c00000;stroke-linecap:round;stroke-linejoin:round;stroke-width:1}
		.st59 {fill:#c00000;fill-opacity:1;stroke:#c00000;stroke-opacity:1;stroke-width:0.28409090909091}
		.st60 {fill:#107c10;stroke:none;stroke-linecap:butt;stroke-width:0.75}
		.st61 {fill:#4672c4;stroke:#c7c8c8;stroke-width:0.25}
		.st62 {fill:#ffffff;font-family:Calibri;font-size:1.00001em}
		.st63 {fill:#ffffff;font-family:Calibri;font-size:1.00001em;font-style:italic}
		.st64 {fill:none;fill-rule:evenodd;font-size:12px;overflow:visible;stroke-linecap:square;stroke-miterlimit:3}
	]]>
	</style>

	<defs id="Patterns_And_Gradients">
		<linearGradient id="grad0-9" x1="0" y1="0" x2="1" y2="0" gradientTransform="rotate(-90 0.5 0.5)">
			<stop offset="0" stop-color="#b3b3b3" stop-opacity="1"/>
			<stop offset="0.26" stop-color="#c1c1c1" stop-opacity="1"/>
			<stop offset="1" stop-color="#e6e6e6" stop-opacity="1"/>
		</linearGradient>
		<linearGradient id="grad0-27" x1="0" y1="0" x2="1" y2="0" gradientTransform="rotate(44.92 0.5 0.5)">
			<stop offset="0" stop-color="#86d633" stop-opacity="1"/>
			<stop offset="1" stop-color="#5e9624" stop-opacity="1"/>
		</linearGradient>
		<linearGradient id="grad0-31" x1="0" y1="0" x2="1" y2="0" gradientTransform="rotate(45.175215904905 0.5 0.5)">
			<stop offset="0" stop-color="#86d633" stop-opacity="1"/>
			<stop offset="1" stop-color="#5e9624" stop-opacity="1"/>
		</linearGradient>
		<linearGradient id="grad0-59" x1="0" y1="0" x2="1" y2="0" gradientTransform="rotate(90 0.5 0.5)">
			<stop offset="0.23" stop-color="#5ea0ef" stop-opacity="1"/>
			<stop offset="0.32" stop-color="#5b9fee" stop-opacity="1"/>
			<stop offset="0.48" stop-color="#509aeb" stop-opacity="1"/>
			<stop offset="0.57" stop-color="#3f92e6" stop-opacity="1"/>
			<stop offset="0.75" stop-color="#2688df" stop-opacity="1"/>
			<stop offset="0.93" stop-color="#127fd9" stop-opacity="1"/>
		</linearGradient>
		<linearGradient id="grad0-63" x1="0" y1="0" x2="1" y2="0" gradientTransform="rotate(90 0.5 0.5)">
			<stop offset="0.02" stop-color="#5ea0ef" stop-opacity="1"/>
			<stop offset="0.14" stop-color="#5b9fee" stop-opacity="1"/>
			<stop offset="0.23" stop-color="#5b9fee" stop-opacity="1"/>
			<stop offset="0.34" stop-color="#509aeb" stop-opacity="1"/>
			<stop offset="0.44" stop-color="#3f92e6" stop-opacity="1"/>
			<stop offset="0.63" stop-color="#2688df" stop-opacity="1"/>
			<stop offset="0.93" stop-color="#127fd9" stop-opacity="1"/>
		</linearGradient>
		<linearGradient id="grad0-81" x1="0" y1="0" x2="1" y2="0" gradientTransform="rotate(-90 0.5 0.5)">
			<stop offset="0" stop-color="#5e9624" stop-opacity="1"/>
			<stop offset="0.24" stop-color="#6fb02a" stop-opacity="1"/>
			<stop offset="0.5" stop-color="#7cc52f" stop-opacity="1"/>
			<stop offset="0.755" stop-color="#83d232" stop-opacity="1"/>
			<stop offset="1" stop-color="#86d633" stop-opacity="1"/>
		</linearGradient>
		<radialGradient id="grad1-95" cx="1" cy="1" r="1.4">
			<stop offset="0.18" stop-color="#5ea0ef" stop-opacity="1"/>
			<stop offset="1" stop-color="#0078d4" stop-opacity="1"/>
		</radialGradient>
		<linearGradient id="grad0-127" x1="0" y1="0" x2="1" y2="0" gradientTransform="rotate(-90 0.5 0.5)">
			<stop offset="0" stop-color="#0078d4" stop-opacity="1"/>
			<stop offset="0.82" stop-color="#5ea0ef" stop-opacity="1"/>
		</linearGradient>
		<linearGradient id="grad0-143" x1="0" y1="0" x2="1" y2="0" gradientTransform="rotate(-90 0.5 0.5)">
			<stop offset="0" stop-color="#1490df" stop-opacity="1"/>
			<stop offset="0.98" stop-color="#1f56a3" stop-opacity="1"/>
		</linearGradient>
		<linearGradient id="grad0-216" x1="0" y1="0" x2="1" y2="0" gradientTransform="rotate(-90 0.5 0.5)">
			<stop offset="0" stop-color="#0078d4" stop-opacity="1"/>
			<stop offset="0.775" stop-color="#5ea0ef" stop-opacity="1"/>
		</linearGradient>
		<linearGradient id="grad0-222" x1="0" y1="0" x2="1" y2="0" gradientTransform="rotate(90 0.5 0.5)">
			<stop offset="0" stop-color="#ffffff" stop-opacity="1"/>
			<stop offset="1" stop-color="#ffffff" stop-opacity="1"/>
		</linearGradient>
		<linearGradient id="grad0-251" x1="0" y1="0" x2="1" y2="0" gradientTransform="rotate(-90 0.5 0.5)">
			<stop offset="0" stop-color="#198ab3" stop-opacity="1"/>
			<stop offset="0.11" stop-color="#22a5cb" stop-opacity="1"/>
			<stop offset="0.23" stop-color="#29bade" stop-opacity="1"/>
			<stop offset="0.37" stop-color="#2ec9eb" stop-opacity="1"/>
			<stop offset="0.53" stop-color="#31d1f3" stop-opacity="1"/>
			<stop offset="0.78" stop-color="#32d4f5" stop-opacity="1"/>
		</linearGradient>
		<linearGradient id="grad0-285" x1="0" y1="0" x2="1" y2="0" gradientTransform="rotate(90 0.5 0.5)">
			<stop offset="0" stop-color="#5ea0ef" stop-opacity="1"/>
			<stop offset="0.18" stop-color="#559cec" stop-opacity="1"/>
			<stop offset="0.47" stop-color="#3c91e5" stop-opacity="1"/>
			<stop offset="0.84" stop-color="#1380da" stop-opacity="1"/>
			<stop offset="1" stop-color="#0078d4" stop-opacity="1"/>
		</linearGradient>
	</defs>
	<defs id="Markers">
		<g id="lend2">
			<path d="M 1 1 L 0 0 L 1 -1 L 1 1 " style="stroke:none"/>
		</g>
		<marker id="mrkr2-178" class="st32" v:arrowType="2" v:arrowSize="2" v:setback="3.52" refX="-3.52" orient="auto"
				markerUnits="strokeWidth" overflow="visible">
			<use xlink:href="#lend2" transform="scale(-3.52,-3.52) "/>
		</marker>
		<g id="lend4">
			<path d="M 2 1 L 0 0 L 2 -1 L 2 1 " style="stroke:none"/>
		</g>
		<marker id="mrkr4-232" class="st43" v:arrowType="4" v:arrowSize="2" v:setback="7.04" refX="-7.04" orient="auto"
				markerUnits="strokeWidth" overflow="visible">
			<use xlink:href="#lend4" transform="scale(-3.52,-3.52) "/>
		</marker>
		<marker id="mrkr2-245" class="st43" v:arrowType="2" v:arrowSize="2" v:setback="3.52" refX="-3.52" orient="auto"
				markerUnits="strokeWidth" overflow="visible">
			<use xlink:href="#lend2" transform="scale(-3.52,-3.52) "/>
		</marker>
		<marker id="mrkr4-346" class="st59" v:arrowType="4" v:arrowSize="2" v:setback="7.04" refX="-7.04" orient="auto"
				markerUnits="strokeWidth" overflow="visible">
			<use xlink:href="#lend4" transform="scale(-3.52,-3.52) "/>
		</marker>
	</defs>
	<g v:mID="31" v:index="5" v:groupContext="backgroundPage">
		<v:userDefs>
			<v:ud v:nameU="msvThemeOrder" v:val="VT0(0):26"/>
			<v:ud v:nameU="msvVisioCreated" v:prompt="" v:val="VT0(0):26"/>
		</v:userDefs>
		<title>VBackground-5</title>
		<v:pageProperties width="7.81944" height="6.83508" v:drawingScale="1" v:pageScale="1" v:drawingUnits="19"
				v:shadowOffsetX="9" v:shadowOffsetY="-9"/>
		<g id="shape1001-1" v:mID="1001" v:groupContext="shape">
			<title>Solid.1001</title>
			<v:userDefs>
				<v:ud v:nameU="Background" v:val="VT0(0):26"/>
				<v:ud v:nameU="visVersion" v:val="VT0(15):26"/>
				<v:ud v:nameU="msvShapeCategories" v:prompt="" v:val="VT4(DoNotContain)"/>
				<v:ud v:nameU="msvVisioCreated" v:prompt="" v:val="VT0(0):26"/>
			</v:userDefs>
			<rect x="0" y="0" width="563" height="492.126" class="st1"/>
		</g>
	</g>
	<g v:mID="24" v:index="13" v:groupContext="foregroundPage">
		<v:userDefs>
			<v:ud v:nameU="msvThemeOrder" v:val="VT0(0):26"/>
		</v:userDefs>
		<title>Single Region Challenge</title>
		<v:pageProperties v:drawingScale="1" v:pageScale="1" v:drawingUnits="19" v:shadowOffsetX="9" v:shadowOffsetY="-9"/>
		<v:layer v:name="Connector" v:index="0"/>
		<g id="shape448-3" v:mID="448" v:groupContext="shape" transform="translate(18.25,-38.25)">
			<title>Rectangle.448</title>
			<v:userDefs>
				<v:ud v:nameU="visVersion" v:val="VT0(15):26"/>
			</v:userDefs>
			<rect x="0" y="135.505" width="526.5" height="356.621" class="st2"/>
		</g>
		<g id="group1-5" transform="translate(52.8176,-130.065)" v:mID="1" v:groupContext="group">
			<title>Icon-storage-86</title>
			<g id="shape2-6" v:mID="2" v:groupContext="shape">
				<title>Sheet.2</title>
				<path d="M0.89 474.25 L31.12 474.25 L31.12 491.11 A1.01379 1.01379 0 0 1 30.11 492.13 L1.9 492.13 A1.01379 1.01379
							 0 0 1 0.89 491.11 L0.89 474.25 Z" class="st3"/>
			</g>
			<g id="shape3-10" v:mID="3" v:groupContext="shape" transform="translate(0,-17.8746)">
				<title>Sheet.3</title>
				<path d="M1.9 485.69 L30.11 485.69 A1.01379 1.01379 0 0 1 31.12 486.7 L31.12 492.13 L0.89 492.13 L0.89 486.68 A1.01379
							 1.01379 0 0 1 1.9 485.69 Z" class="st4"/>
			</g>
			<g id="shape4-12" v:mID="4" v:groupContext="shape" transform="translate(4.53536,-12.4678)">
				<title>Sheet.4</title>
				<path d="M0.46 488.68 L22.46 488.68 a0.480214 0.480214 0 0 1 0.462429 0.480214 L22.93 491.65 a0.480214 0.480214 0
							 0 1 -0.462429 0.480214 L0.46 492.13 a0.480214 0.480214 0 0 1 -0.462429 -0.480214 L0 489.16 a0.480214
							 0.480214 0 0 1 0.462429 -0.480214 Z" class="st5"/>
			</g>
			<g id="shape5-14" v:mID="5" v:groupContext="shape" transform="translate(4.55314,-7.48779)">
				<title>Sheet.5</title>
				<path d="M0.46 488.66 L22.46 488.66 a0.480214 0.480214 0 0 1 0.462429 0.480214 L22.93 491.65 a0.480214 0.480214 0
							 0 1 -0.462429 0.480214 L0.46 492.13 a0.480214 0.480214 0 0 1 -0.462429 -0.480214 L0 489.23 a0.480214
							 0.480214 0 0 1 0.462429 -0.569143 Z" class="st4"/>
			</g>
			<g id="shape6-16" v:mID="6" v:groupContext="shape" transform="translate(4.55314,-2.47221)">
				<title>Sheet.6</title>
				<path d="M0.46 488.66 L22.46 488.66 a0.480214 0.480214 0 0 1 0.462429 0.480214 L22.93 491.65 a0.480214 0.480214 0
							 0 1 -0.462429 0.480214 L0.46 492.13 a0.480214 0.480214 0 0 1 -0.462429 -0.480214 L0 489.14 a0.480214
							 0.480214 0 0 1 0.462429 -0.480214 Z" class="st6"/>
			</g>
		</g>
		<g id="shape7-18" v:mID="7" v:groupContext="shape" transform="translate(24.4716,-114.743)">
			<title>Sheet.7</title>
			<desc>stgworkload00</desc>
			<v:textBlock v:margins="rect(4,4,4,4)"/>
			<v:textRect cx="44.1818" cy="482.564" width="88.37" height="19.125"/>
			<rect x="0" y="473.001" width="88.3636" height="19.125" class="st7"/>
			<text x="13.36" y="485.56" class="st8" v:langID="1033"><v:paragraph v:horizAlign="1"/><v:tabList/>stgworkload00</text>		</g>
		<g id="shape8-21" v:mID="8" v:groupContext="shape" transform="translate(133.556,-41.9901)">
			<title>Rectangle</title>
			<v:userDefs>
				<v:ud v:nameU="visVersion" v:val="VT0(15):26"/>
			</v:userDefs>
			<rect x="0" y="276.455" width="149.114" height="215.671" class="st9"/>
		</g>
		<g id="group17-23" transform="translate(136.247,-48.51)" v:mID="17" v:groupContext="group">
			<title>Icon-networking-61</title>
			<g id="shape18-24" v:mID="18" v:groupContext="shape" transform="translate(11.8173,-8.36273)">
				<title>Sheet.18</title>
				<ellipse cx="1.02047" cy="491.106" rx="1.02047" ry="1.02047" class="st10"/>
			</g>
			<g id="shape19-28" v:mID="19" v:groupContext="shape" transform="translate(8.56237,-8.35393)">
				<title>Sheet.19</title>
				<ellipse cx="1.02047" cy="491.106" rx="1.02047" ry="1.02047" class="st11"/>
			</g>
			<g id="shape20-32" v:mID="20" v:groupContext="shape" transform="translate(5.30742,-8.35393)">
				<title>Sheet.20</title>
				<ellipse cx="1.02047" cy="491.106" rx="1.02047" ry="1.02047" class="st11"/>
			</g>
			<g id="shape21-35" v:mID="21" v:groupContext="shape" transform="translate(352.278,827.835) rotate(134.92)">
				<title>Sheet.21</title>
				<path d="M2.3 485.23 L3.12 485.23 a0.263915 0.263915 0 0 1 0.263915 0.263915 L3.39 491.6 a0.52783 0.52783 0 0 1 -0.52783
							 0.52783 L2.03 492.13 L2.03 485.49 a0.263915 0.263915 0 0 1 0.263915 -0.263915 Z" class="st12"/>
			</g>
			<g id="shape22-37" v:mID="22" v:groupContext="shape" transform="translate(347.499,132.85) rotate(44.92)">
				<title>Sheet.22</title>
				<path d="M2.25 485.33 L3.08 485.33 a0.263915 0.263915 0 0 1 0.263915 0.263915 L3.34 492.13 L2.52 492.13 a0.52783
							 0.52783 0 0 1 -0.52783 -0.52783 L1.99 485.59 a0.263915 0.263915 0 0 1 0.263915 -0.263915 Z"
						class="st13"/>
			</g>
			<g id="shape23-39" v:mID="23" v:groupContext="shape" transform="translate(351.521,130.323) rotate(45.08)">
				<title>Sheet.23</title>
				<path d="M12.45 485.23 L13.27 485.23 a0.52783 0.52783 0 0 1 0.52783 0.52783 L13.8 491.86 a0.263915 0.263915 0 0 1
							 -0.263915 0.263915 L12.71 492.13 a0.263915 0.263915 0 0 1 -0.263915 -0.263915 L12.45 485.23 Z"
						class="st12"/>
			</g>
			<g id="shape24-41" v:mID="24" v:groupContext="shape" transform="translate(369.228,817.548) rotate(135.08)">
				<title>Sheet.24</title>
				<path d="M13.03 485.33 L13.86 485.33 L13.86 491.86 a0.263915 0.263915 0 0 1 -0.263915 0.263915 L12.76 492.13 a0.263915
							 0.263915 0 0 1 -0.263915 -0.263915 L12.49 485.85 a0.52783 0.52783 0 0 1 0.52783 -0.52783 L13.03 485.33
							 Z" class="st13"/>
			</g>
		</g>
		<g id="shape36-43" v:mID="36" v:groupContext="shape" transform="translate(152.317,-53.6081)">
			<title>Sheet.36</title>
			<desc>Workload spoke VNet</desc>
			<v:textBlock v:margins="rect(4,4,4,4)"/>
			<v:textRect cx="66.8839" cy="482.564" width="133.77" height="19.125"/>
			<rect x="0" y="473.001" width="133.768" height="19.125" class="st7"/>
			<text x="4" y="485.56" class="st8" v:langID="1033"><v:paragraph/><v:tabList/>Workload spoke VNet</text>		</g>
		<g id="shape37-46" v:mID="37" v:groupContext="shape" transform="translate(142.128,-96.4187)">
			<title>Rectangle.37</title>
			<v:userDefs>
				<v:ud v:nameU="visVersion" v:val="VT0(15):26"/>
			</v:userDefs>
			<path d="M0 492.13 L133.77 492.13 L133.77 419.05 L0 419.05 L0 492.13 Z" class="st14"/>
		</g>
		<g id="shape38-48" v:mID="38" v:groupContext="shape" transform="translate(160.128,-92.9901)">
			<title>Sheet.38</title>
			<desc>Private endpoint subnet</desc>
			<v:textBlock v:margins="rect(4,4,4,4)"/>
			<v:textRect cx="56.2232" cy="482.564" width="112.45" height="19.125"/>
			<rect x="0" y="473.001" width="112.446" height="19.125" class="st7"/>
			<text x="4" y="485.56" class="st8" v:langID="1033"><v:paragraph/><v:tabList/>Private endpoint subnet</text>		</g>
		<g id="group47-51" transform="translate(196.309,-136.918)" v:mID="47" v:groupContext="group">
			<title>Sheet.47</title>
			<g id="shape48-52" v:mID="48" v:groupContext="shape" transform="translate(10.8263,-10.1802)">
				<title>Sheet.48</title>
				<rect x="0" y="482.852" width="1.47121" height="9.27439" class="st15"/>
			</g>
			<g id="shape49-54" v:mID="49" v:groupContext="shape" transform="translate(10.0317,-18.2231)">
				<title>Sheet.49</title>
				<path d="M3.69 490.6 A2.15961 2.15961 0 1 1 1.53 488.44 A2.1583 2.1583 0 0 1 3.69 490.6 Z" class="st13"/>
			</g>
			<g id="shape50-56" v:mID="50" v:groupContext="shape" transform="translate(6.00091,-4.77786)">
				<title>Sheet.50</title>
				<path d="M5.27 486.23 L2.91 486.23 A2.94504 2.94504 -180 0 0 2.45 492.08 A3.16664 3.16664 0 0 1 2.48 490.99 A1.85934
							 1.85934 0 0 1 2.91 487.32 L5.27 487.32 A1.86458 1.86458 0 0 1 5.27 491.05 L4.62 491.05 A1.41352 1.41352
							 -180 0 0 4.49 491.64 A1.34009 1.34009 -180 0 0 4.58 492.13 L5.27 492.13 A2.94504 2.94504 -180 1 0 5.27
							 486.24 L5.27 486.23 Z" class="st16"/>
			</g>
			<g id="shape51-60" v:mID="51" v:groupContext="shape" transform="translate(8.97273,-2.3324)">
				<title>Sheet.51</title>
				<path d="M5.7 486.28 A3.46429 3.46429 0 0 1 5.73 486.73 A3.03814 3.03814 0 0 1 5.67 487.38 A1.85934 1.85934 0 0 1
							 5.24 491.05 L2.88 491.05 A1.86589 1.86589 0 0 1 2.88 487.32 L3.53 487.32 A1.36631 1.36631 -180 0 0 3.66
							 486.73 A1.33484 1.33484 -180 0 0 3.56 486.24 L2.88 486.24 A2.94504 2.94504 -180 0 0 2.88 492.13 L5.24
							 492.13 A2.94504 2.94504 -180 0 0 5.7 486.28 L5.7 486.28 Z" class="st17"/>
			</g>
			<g id="shape52-64" v:mID="52" v:groupContext="shape" transform="translate(-1.17906E-13,-0.437608)">
				<title>Sheet.52</title>
				<path d="M7.32 491.47 L6.78 492.02 a0.367147 0.367147 0 0 1 -0.524496 0 L0.22 485.98 a0.742161 0.742161 0 0 1 -6.66134E-15
							 -1.04899 L0.76 484.39 L7.32 490.94 a0.361902 0.361902 0 0 1 8.88178E-16 0.512694 L7.32 491.47 Z"
						class="st12"/>
			</g>
			<g id="shape53-66" v:mID="53" v:groupContext="shape" transform="translate(0.00393372,-5.96453)">
				<title>Sheet.53</title>
				<path d="M6.67 484.54 L7.27 485.14 a0.369769 0.369769 0 0 1 -1.77636E-15 0.524496 L0.82 492.13 L0.22 491.53 a0.742161
							 0.742161 0 0 1 -7.21645E-15 -1.04899 L6.15 484.54 a0.367147 0.367147 0 0 1 0.520562 0 Z" class="st13"/>
			</g>
			<g id="shape54-68" v:mID="54" v:groupContext="shape" transform="translate(16.1777,0)">
				<title>Sheet.54</title>
				<path d="M0.11 491.46 a0.364524 0.364524 0 0 1 -0.00786743 -0.514006 L0.11 490.95 L6.67 484.41 L7.21 484.95 a0.742161
							 0.742161 0 0 1 3.55271E-15 1.04899 L1.17 492.02 a0.363213 0.363213 0 0 1 -0.512694 0.00786743 L0.64
							 492.02 L0.11 491.46 Z" class="st12"/>
			</g>
			<g id="shape55-70" v:mID="55" v:groupContext="shape" transform="translate(16.2307,-5.53314)">
				<title>Sheet.55</title>
				<path d="M1.23 484.54 L7.16 490.48 a0.738227 0.738227 0 0 1 8.88178E-16 1.03981 L6.56 492.13 L0.11 485.66 a0.378948
							 0.378948 0 0 1 -7.77156E-16 -0.524496 L0.71 484.54 a0.369769 0.369769 0 0 1 0.520562 -0.00131124 Z"
						class="st13"/>
			</g>
		</g>
		<g id="shape56-72" v:mID="56" v:groupContext="shape" transform="translate(150.806,-113.267)">
			<title>Sheet.56</title>
			<desc>Private Link endpoint 10.1.2.4</desc>
			<v:textBlock v:margins="rect(4,4,4,4)"/>
			<v:textRect cx="56.2232" cy="482.564" width="112.45" height="19.125"/>
			<rect x="0" y="473.001" width="112.446" height="19.125" class="st7"/>
			<text x="11.89" y="479.56" class="st8" v:langID="1033"><v:paragraph v:horizAlign="1"/><v:tabList/>Private Link endpoint<v:newlineChar/><tspan
						x="39.55" dy="1.2em" class="st18">10.1.2.4</tspan></text>		</g>
		<g id="group57-76" transform="translate(146.413,-98.9901)" v:mID="57" v:groupContext="group">
			<title>Sheet.57</title>
			<g id="group58-77" transform="translate(0,3.42857)" v:mID="58" v:groupContext="group">
				<title>Sheet.58</title>
				<g id="shape59-78" v:mID="59" v:groupContext="shape" transform="translate(7.28265,-7.11102)">
					<title>Sheet.59</title>
					<path d="M0.69 490.45 a0.97875 0.97875 -180 1 0 0.98025 0.975 a0.97875 0.97875 -180 0 0 -0.98025 -0.975 Z"
							class="st19"/>
				</g>
				<g id="group60-82" v:mID="60" v:groupContext="group">
					<title>Sheet.60</title>
					<g id="shape61-83" v:mID="61" v:groupContext="shape" transform="translate(352.067,829.599) rotate(134.919)">
						<title>Sheet.61</title>
						<path d="M2.22 486.57 L2.89 486.57 a0.213 0.213 0 0 1 0.213 0.213 L3.1 491.7 a0.426 0.426 0 0 1 -0.426 0.426
									 L2.01 492.13 L2.01 486.79 a0.213 0.213 0 0 1 0.213 -0.21375 Z" class="st12"/>
					</g>
					<g id="shape62-85" v:mID="62" v:groupContext="shape" transform="translate(347.493,134.421) rotate(44.919)">
						<title>Sheet.62</title>
						<path d="M2.18 486.65 L2.85 486.65 a0.213 0.213 0 0 1 0.213 0.213 L3.06 492.13 L2.4 492.13 a0.426 0.426 0
									 0 1 -0.426 -0.426 L1.97 486.86 a0.213 0.213 0 0 1 0.213 -0.213 L2.18 486.65 Z" class="st13"/>
					</g>
					<g id="shape63-87" v:mID="63" v:groupContext="shape" transform="translate(350.927,132.59) rotate(45.081)">
						<title>Sheet.63</title>
						<path d="M10.4 486.57 L11.07 486.57 a0.426 0.426 0 0 1 0.426 0.426 L11.49 491.91 a0.213 0.213 0 0 1 -0.213
									 0.213 L10.61 492.13 a0.213 0.213 0 0 1 -0.213 -0.213 L10.4 486.57 Z" class="st12"/>
					</g>
					<g id="shape64-89" v:mID="64" v:groupContext="shape" transform="translate(365.517,821.522) rotate(135.081)">
						<title>Sheet.64</title>
						<path d="M10.86 486.65 L11.53 486.65 L11.53 491.91 a0.213 0.213 0 0 1 -0.213 0.213 L10.65 492.13 a0.213 0.213
									 0 0 1 -0.213 -0.213 L10.44 487.08 a0.426 0.426 0 0 1 0.426 -0.426 L10.86 486.65 Z"
								class="st13"/>
					</g>
				</g>
			</g>
		</g>
		<g id="group65-91" transform="translate(417.333,-347.742)" v:mID="65" v:groupContext="group">
			<title>Icon-networking-64</title>
			<g id="shape66-92" v:mID="66" v:groupContext="shape" transform="translate(1.02035,-0.921225)">
				<title>f57e105d-6d2d-4ad7-b8c3-c10684c</title>
				<path d="M20.35 492.13 A14.506 14.506 0 0 1 2.58 469.2 L2.73 469.1 A14.5008 14.5008 0 0 1 20.35 492.13 Z"
						class="st20"/>
			</g>
			<g id="shape67-96" v:mID="67" v:groupContext="shape">
				<title>Sheet.67</title>
				<path d="M12.48 466.62 A13.1189 13.1189 -180 1 0 25.6 479.74 A13.136 13.136 -180 0 0 12.48 466.62 ZM21.27 471.04
							 A12.573 12.573 0 0 1 17.6 472.41 A15.0637 15.0637 -180 0 0 15.47 467.8 A12.283 12.283 0 0 1 21.27 471.04
							 ZM12.48 467.36 A11.2424 11.2424 0 0 1 14.34 467.51 A12.7607 12.7607 0 0 1 16.95 472.63 A25.7943 25.7943
							 0 0 1 7.66 472.63 A12.5901 12.5901 0 0 1 10.23 467.61 A12.5218 12.5218 0 0 1 12.48 467.36 ZM9.07 467.8
							 A14.8761 14.8761 -180 0 0 6.91 472.37 A9.51932 9.51932 0 0 1 3.66 471.06 A12.5389 12.5389 0 0 1 9.07
							 467.8 ZM3.48 488.27 A8.99047 8.99047 0 0 1 6.51 486.97 A12.0783 12.0783 -180 0 0 8.82 491.61 A12.3683
							 12.3683 0 0 1 3.48 488.27 ZM14.41 492.02 A12.0783 12.0783 0 0 1 12.48 492.13 A11.6518 11.6518 0 0 1
							 10.03 491.87 A10.2358 10.2358 0 0 1 7.18 486.75 A25.129 25.129 0 0 1 17.21 486.75 A10.2358 10.2358 0
							 0 1 14.33 491.87 L14.41 492.02 ZM15.66 491.75 A12.1636 12.1636 -180 0 0 18.01 486.97 A11.3959 11.3959
							 0 0 1 21.42 488.39 A12.1636 12.1636 0 0 1 15.66 491.68 L15.66 491.75 ZM18.18 486.26 C18.32 485.64 18.44
							 485.01 18.52 484.35 L17.74 484.53 C17.65 485.06 17.57 485.59 17.45 486.09 A25.9819 25.9819 -180 0 0
							 7.06 486.09 C6.94 485.63 6.85 485.13 6.77 484.62 a0.477672 0.477672 0 0 1 -7.99361E-15 -0.153537 L5.98
							 484.24 A4.02609 4.02609 -180 0 0 5.98 484.72 C5.98 485.27 6.17 485.78 6.27 486.27 A10.0652 10.0652 -180
							 0 0 2.86 487.72 A12.3512 12.3512 0 0 1 3.05 471.69 A10.7306 10.7306 -180 0 0 6.6 473.16 C6.48 473.57
							 6.38 474.01 6.29 474.45 C6.21 474.9 6.29 474.88 6.16 475.08 L6.96 474.9 L6.96 474.61 C7.06 474.16 7.16
							 473.74 7.28 473.33 A25.4019 25.4019 -180 0 0 12.48 473.74 A25.5896 25.5896 -180 0 0 17.23 473.29 C17.35
							 473.75 17.47 474.25 17.57 474.74 L18.35 474.93 C18.23 474.32 18.09 473.75 17.94 473.22 A13.1872 13.1872
							 -180 0 0 21.87 471.67 A12.3171 12.3171 0 0 1 21.97 487.86 A12.4195 12.4195 -180 0 0 18.18 486.21 L18.18
							 486.26 Z" class="st21"/>
			</g>
			<g id="shape68-98" v:mID="68" v:groupContext="shape" transform="translate(3.40871,-8.71751)">
				<title>Sheet.68</title>
				<path d="M0.02 485.05 A13.5113 13.5113 0 0 1 2 484.91 A4.16257 4.16257 0 0 1 4.91 485.8 A3.41194 3.41194 0 0 1 5.92
							 488.29 A3.7702 3.7702 0 0 1 4.88 491.09 A4.43553 4.43553 0 0 1 1.71 492.13 A15.6438 15.6438 0 0 1 0
							 492.04 L0.02 485.05 ZM0.96 491.41 A6.82389 6.82389 -180 0 0 1.89 491.41 A2.76367 2.76367 -180 0 0 4.95
							 488.32 A2.55896 2.55896 -180 0 0 2.03 485.56 A5.40793 5.40793 -180 0 0 0.96 485.56 L0.96 491.41 Z"
						class="st5"/>
			</g>
			<g id="shape69-100" v:mID="69" v:groupContext="shape" transform="translate(10.5397,-8.73457)">
				<title>Sheet.69</title>
				<path d="M0 492.07 L0 484.89 L1.01 484.89 L3.31 488.48 A20.7787 20.7787 0 0 1 4.61 490.81 C4.52 489.86 4.5 488.99
							 4.5 487.86 L4.5 484.89 L5.36 484.89 L5.36 492.07 L4.42 492.07 L2.17 488.48 C1.67 487.67 1.19 486.77
							 0.82 486.09 C0.82 486.99 0.82 487.79 0.82 489.06 L0.82 492.13 L0 492.07 Z" class="st5"/>
			</g>
			<g id="shape70-102" v:mID="70" v:groupContext="shape" transform="translate(17.21,-8.68339)">
				<title>Sheet.70</title>
				<path d="M0.2 490.9 A3.41194 3.41194 -180 0 0 1.91 491.36 C2.87 491.36 3.41 490.86 3.41 490.13 C3.41 489.4 3.04 489.07
							 2.06 488.71 C1.09 488.36 0.15 487.69 0.15 486.67 A2.08129 2.08129 0 0 1 2.49 484.72 A3.41194 3.41194
							 0 0 1 4.08 485.06 L3.8 485.83 A2.78073 2.78073 -180 0 0 2.44 485.49 C1.45 485.49 1.07 486.07 1.07 486.56
							 C1.07 487.06 1.52 487.57 2.51 487.95 C3.5 488.32 4.35 489 4.35 490.06 C4.35 491.12 3.53 492.13 1.83
							 492.13 A3.6849 3.6849 0 0 1 0 491.67 L0.2 490.9 Z" class="st5"/>
			</g>
		</g>
		<g id="shape71-104" v:mID="71" v:groupContext="shape" transform="translate(142.128,-178.651)">
			<title>Rectangle.71</title>
			<v:userDefs>
				<v:ud v:nameU="visVersion" v:val="VT0(15):26"/>
			</v:userDefs>
			<path d="M0 492.13 L133.77 492.13 L133.77 419.05 L0 419.05 L0 492.13 Z" class="st14"/>
		</g>
		<g id="shape72-106" v:mID="72" v:groupContext="shape" transform="translate(160.985,-233.642)">
			<title>Sheet.72</title>
			<desc>Workload subnet</desc>
			<v:textBlock v:margins="rect(4,4,4,4)"/>
			<v:textRect cx="56.2232" cy="482.564" width="112.45" height="19.125"/>
			<rect x="0" y="473.001" width="112.446" height="19.125" class="st7"/>
			<text x="4" y="485.56" class="st8" v:langID="1033"><v:paragraph/><v:tabList/>Workload subnet</text>		</g>
		<g id="group73-109" transform="translate(147.27,-239.642)" v:mID="73" v:groupContext="group">
			<title>Sheet.73</title>
			<g id="group74-110" transform="translate(0,3.42857)" v:mID="74" v:groupContext="group">
				<title>Sheet.74</title>
				<g id="shape75-111" v:mID="75" v:groupContext="shape" transform="translate(7.28265,-7.11102)">
					<title>Sheet.75</title>
					<path d="M0.69 490.45 a0.97875 0.97875 -180 1 0 0.98025 0.975 a0.97875 0.97875 -180 0 0 -0.98025 -0.975 Z"
							class="st19"/>
				</g>
				<g id="group76-114" v:mID="76" v:groupContext="group">
					<title>Sheet.76</title>
					<g id="shape77-115" v:mID="77" v:groupContext="shape" transform="translate(352.067,829.599) rotate(134.919)">
						<title>Sheet.77</title>
						<path d="M2.22 486.57 L2.89 486.57 a0.213 0.213 0 0 1 0.213 0.213 L3.1 491.7 a0.426 0.426 0 0 1 -0.426 0.426
									 L2.01 492.13 L2.01 486.79 a0.213 0.213 0 0 1 0.213 -0.21375 Z" class="st12"/>
					</g>
					<g id="shape78-117" v:mID="78" v:groupContext="shape" transform="translate(347.493,134.421) rotate(44.919)">
						<title>Sheet.78</title>
						<path d="M2.18 486.65 L2.85 486.65 a0.213 0.213 0 0 1 0.213 0.213 L3.06 492.13 L2.4 492.13 a0.426 0.426 0
									 0 1 -0.426 -0.426 L1.97 486.86 a0.213 0.213 0 0 1 0.213 -0.213 L2.18 486.65 Z" class="st13"/>
					</g>
					<g id="shape79-119" v:mID="79" v:groupContext="shape" transform="translate(350.927,132.59) rotate(45.081)">
						<title>Sheet.79</title>
						<path d="M10.4 486.57 L11.07 486.57 a0.426 0.426 0 0 1 0.426 0.426 L11.49 491.91 a0.213 0.213 0 0 1 -0.213
									 0.213 L10.61 492.13 a0.213 0.213 0 0 1 -0.213 -0.213 L10.4 486.57 Z" class="st12"/>
					</g>
					<g id="shape80-121" v:mID="80" v:groupContext="shape" transform="translate(365.517,821.522) rotate(135.081)">
						<title>Sheet.80</title>
						<path d="M10.86 486.65 L11.53 486.65 L11.53 491.91 a0.213 0.213 0 0 1 -0.213 0.213 L10.65 492.13 a0.213 0.213
									 0 0 1 -0.213 -0.213 L10.44 487.08 a0.426 0.426 0 0 1 0.426 -0.426 L10.86 486.65 Z"
								class="st13"/>
					</g>
				</g>
			</g>
		</g>
		<g id="group81-123" transform="translate(190.985,-207.317)" v:mID="81" v:groupContext="group">
			<title>Icon-compute-28</title>
			<g id="shape82-124" v:mID="82" v:groupContext="shape" transform="translate(0,-7.63399)">
				<title>Sheet.82</title>
				<path d="M0 491.14 a0.989309 0.989309 -180 0 0 0.989286 0.989286 L28.69 492.13 a0.989309 0.989309 -180 0 0 0.989286
							 -0.989286 L29.68 473.33 a0.989309 0.989309 -180 0 0 -0.989286 -0.989286 L0.99 472.34 a0.989309 0.989309
							 -180 0 0 -0.989286 0.989286 L0 491.14 Z" class="st22"/>
			</g>
			<g id="shape83-128" v:mID="83" v:groupContext="shape" transform="translate(1.64881,-9.2828)">
				<title>Sheet.83</title>
				<path d="M0 491.58 a0.54412 0.54412 -180 0 0 0.544107 0.544107 L25.84 492.13 a0.54412 0.54412 -180 0 0 0.544107 -0.544107
							 L26.38 476.18 a0.54412 0.54412 -180 0 0 -0.544107 -0.544107 L0.54 475.64 a0.54412 0.54412 -180 0 0 -0.544107
							 0.544107 L0 491.58 Z" class="st5"/>
			</g>
			<g id="shape84-130" v:mID="84" v:groupContext="shape" transform="translate(14.8393,-11.756)">
				<title>Sheet.84</title>
				<path d="M4.95 483.47 L4.95 489.22 L0 492.13 L0 486.36 L4.95 483.47 Z" class="st23"/>
			</g>
			<g id="shape85-132" v:mID="85" v:groupContext="shape" transform="translate(9.89286,-17.5104)">
				<title>Sheet.85</title>
				<path d="M9.89 489.22 L4.95 492.13 L0 489.22 L4.95 486.34 L9.89 489.22 Z" class="st24"/>
			</g>
			<g id="shape86-134" v:mID="86" v:groupContext="shape" transform="translate(9.89286,-11.756)">
				<title>Sheet.86</title>
				<path d="M4.95 486.37 L4.95 492.13 L0 489.22 L0 483.47 L4.95 486.37 Z" class="st21"/>
			</g>
			<g id="shape87-136" v:mID="87" v:groupContext="shape" transform="translate(9.89286,-11.756)">
				<title>Sheet.87</title>
				<path d="M0 489.22 L4.95 486.36 L4.95 492.13 L0 489.22 Z" class="st25"/>
			</g>
			<g id="shape88-138" v:mID="88" v:groupContext="shape" transform="translate(14.8393,-11.756)">
				<title>Sheet.88</title>
				<path d="M4.95 489.22 L0 486.36 L0 492.13 L4.95 489.22 Z" class="st26"/>
			</g>
			<g id="shape89-140" v:mID="89" v:groupContext="shape" transform="translate(7.41964,0)">
				<title>Sheet.89</title>
				<path d="M13.36 490.48 C10.44 490.02 10.32 487.89 10.32 484.49 L4.5 484.49 C4.5 487.89 4.39 490.02 1.47 490.48 A1.64881
							 1.64881 -180 0 0 0 492.13 L14.84 492.13 A1.64881 1.64881 -180 0 0 13.36 490.48 Z" class="st27"/>
			</g>
		</g>
		<g id="shape90-144" v:mID="90" v:groupContext="shape" transform="translate(165.27,-186.362)">
			<title>Sheet.90</title>
			<desc>Client 10.1.0.4</desc>
			<v:textBlock v:margins="rect(4,4,4,4)"/>
			<v:textRect cx="38.25" cy="482.564" width="76.5" height="19.125"/>
			<rect x="0" y="473.001" width="76.5" height="19.125" class="st7"/>
			<text x="26.21" y="479.56" class="st8" v:langID="1033"><v:paragraph v:horizAlign="1"/><v:tabList/>Client<v:newlineChar/><tspan
						x="21.57" dy="1.2em" class="st18">10.1.0.4</tspan></text>		</g>
		<g id="shape102-148" v:mID="102" v:groupContext="shape" transform="translate(314.636,-356.371)">
			<title>Sheet.102</title>
			<desc>Cannot link to Virtual WAN hub</desc>
			<v:textBlock v:margins="rect(4,4,4,4)"/>
			<v:textRect cx="44.1818" cy="477.528" width="88.37" height="29.1964"/>
			<rect x="0" y="462.93" width="88.3636" height="29.1964" class="st7"/>
			<text x="15.79" y="474.53" class="st28" v:langID="1033"><v:paragraph v:horizAlign="1"/><v:tabList/>Cannot link to <tspan
						x="9.9" dy="1.2em" class="st18">Virtual WAN hub</tspan></text>		</g>
		<g id="group104-152" transform="translate(261.501,-420.867)" v:mID="104" v:groupContext="group">
			<title>Icon-networking-64.104</title>
			<g id="shape105-153" v:mID="105" v:groupContext="shape" transform="translate(1.02035,-0.921225)">
				<title>f57e105d-6d2d-4ad7-b8c3-c10684c</title>
				<path d="M20.35 492.13 A14.506 14.506 0 0 1 2.58 469.2 L2.73 469.1 A14.5008 14.5008 0 0 1 20.35 492.13 Z"
						class="st20"/>
			</g>
			<g id="shape106-156" v:mID="106" v:groupContext="shape">
				<title>Sheet.106</title>
				<path d="M12.48 466.62 A13.1189 13.1189 -180 1 0 25.6 479.74 A13.136 13.136 -180 0 0 12.48 466.62 ZM21.27 471.04
							 A12.573 12.573 0 0 1 17.6 472.41 A15.0637 15.0637 -180 0 0 15.47 467.8 A12.283 12.283 0 0 1 21.27 471.04
							 ZM12.48 467.36 A11.2424 11.2424 0 0 1 14.34 467.51 A12.7607 12.7607 0 0 1 16.95 472.63 A25.7943 25.7943
							 0 0 1 7.66 472.63 A12.5901 12.5901 0 0 1 10.23 467.61 A12.5218 12.5218 0 0 1 12.48 467.36 ZM9.07 467.8
							 A14.8761 14.8761 -180 0 0 6.91 472.37 A9.51932 9.51932 0 0 1 3.66 471.06 A12.5389 12.5389 0 0 1 9.07
							 467.8 ZM3.48 488.27 A8.99047 8.99047 0 0 1 6.51 486.97 A12.0783 12.0783 -180 0 0 8.82 491.61 A12.3683
							 12.3683 0 0 1 3.48 488.27 ZM14.41 492.02 A12.0783 12.0783 0 0 1 12.48 492.13 A11.6518 11.6518 0 0 1
							 10.03 491.87 A10.2358 10.2358 0 0 1 7.18 486.75 A25.129 25.129 0 0 1 17.21 486.75 A10.2358 10.2358 0
							 0 1 14.33 491.87 L14.41 492.02 ZM15.66 491.75 A12.1636 12.1636 -180 0 0 18.01 486.97 A11.3959 11.3959
							 0 0 1 21.42 488.39 A12.1636 12.1636 0 0 1 15.66 491.68 L15.66 491.75 ZM18.18 486.26 C18.32 485.64 18.44
							 485.01 18.52 484.35 L17.74 484.53 C17.65 485.06 17.57 485.59 17.45 486.09 A25.9819 25.9819 -180 0 0
							 7.06 486.09 C6.94 485.63 6.85 485.13 6.77 484.62 a0.477672 0.477672 0 0 1 -7.99361E-15 -0.153537 L5.98
							 484.24 A4.02609 4.02609 -180 0 0 5.98 484.72 C5.98 485.27 6.17 485.78 6.27 486.27 A10.0652 10.0652 -180
							 0 0 2.86 487.72 A12.3512 12.3512 0 0 1 3.05 471.69 A10.7306 10.7306 -180 0 0 6.6 473.16 C6.48 473.57
							 6.38 474.01 6.29 474.45 C6.21 474.9 6.29 474.88 6.16 475.08 L6.96 474.9 L6.96 474.61 C7.06 474.16 7.16
							 473.74 7.28 473.33 A25.4019 25.4019 -180 0 0 12.48 473.74 A25.5896 25.5896 -180 0 0 17.23 473.29 C17.35
							 473.75 17.47 474.25 17.57 474.74 L18.35 474.93 C18.23 474.32 18.09 473.75 17.94 473.22 A13.1872 13.1872
							 -180 0 0 21.87 471.67 A12.3171 12.3171 0 0 1 21.97 487.86 A12.4195 12.4195 -180 0 0 18.18 486.21 L18.18
							 486.26 Z" class="st21"/>
			</g>
			<g id="shape107-158" v:mID="107" v:groupContext="shape" transform="translate(3.40871,-8.71751)">
				<title>Sheet.107</title>
				<path d="M0.02 485.05 A13.5113 13.5113 0 0 1 2 484.91 A4.16257 4.16257 0 0 1 4.91 485.8 A3.41194 3.41194 0 0 1 5.92
							 488.29 A3.7702 3.7702 0 0 1 4.88 491.09 A4.43553 4.43553 0 0 1 1.71 492.13 A15.6438 15.6438 0 0 1 0
							 492.04 L0.02 485.05 ZM0.96 491.41 A6.82389 6.82389 -180 0 0 1.89 491.41 A2.76367 2.76367 -180 0 0 4.95
							 488.32 A2.55896 2.55896 -180 0 0 2.03 485.56 A5.40793 5.40793 -180 0 0 0.96 485.56 L0.96 491.41 Z"
						class="st5"/>
			</g>
			<g id="shape108-160" v:mID="108" v:groupContext="shape" transform="translate(10.5397,-8.73457)">
				<title>Sheet.108</title>
				<path d="M0 492.07 L0 484.89 L1.01 484.89 L3.31 488.48 A20.7787 20.7787 0 0 1 4.61 490.81 C4.52 489.86 4.5 488.99
							 4.5 487.86 L4.5 484.89 L5.36 484.89 L5.36 492.07 L4.42 492.07 L2.17 488.48 C1.67 487.67 1.19 486.77
							 0.82 486.09 C0.82 486.99 0.82 487.79 0.82 489.06 L0.82 492.13 L0 492.07 Z" class="st5"/>
			</g>
			<g id="shape109-162" v:mID="109" v:groupContext="shape" transform="translate(17.21,-8.68339)">
				<title>Sheet.109</title>
				<path d="M0.2 490.9 A3.41194 3.41194 -180 0 0 1.91 491.36 C2.87 491.36 3.41 490.86 3.41 490.13 C3.41 489.4 3.04 489.07
							 2.06 488.71 C1.09 488.36 0.15 487.69 0.15 486.67 A2.08129 2.08129 0 0 1 2.49 484.72 A3.41194 3.41194
							 0 0 1 4.08 485.06 L3.8 485.83 A2.78073 2.78073 -180 0 0 2.44 485.49 C1.45 485.49 1.07 486.07 1.07 486.56
							 C1.07 487.06 1.52 487.57 2.51 487.95 C3.5 488.32 4.35 489 4.35 490.06 C4.35 491.12 3.53 492.13 1.83
							 492.13 A3.6849 3.6849 0 0 1 0 491.67 L0.2 490.9 Z" class="st5"/>
			</g>
		</g>
		<g id="shape110-164" v:mID="110" v:groupContext="shape" transform="translate(247.75,-400.01)">
			<title>Sheet.110</title>
			<desc>Azure DNS</desc>
			<v:textBlock v:margins="rect(4,4,4,4)"/>
			<v:textRect cx="27.2512" cy="477.528" width="54.51" height="29.1964"/>
			<rect x="0" y="462.93" width="54.5023" height="29.1964" class="st7"/>
			<text x="5.32" y="480.53" class="st8" v:langID="1033"><v:paragraph v:horizAlign="1"/><v:tabList/>Azure DNS</text>		</g>
		<g id="shape112-167" v:mID="112" v:groupContext="shape" transform="translate(274.5,-256.554)">
			<title>Sheet.112</title>
			<desc>DNS server</desc>
			<v:textBlock v:margins="rect(4,4,4,4)"/>
			<v:textRect cx="27.2512" cy="477.528" width="54.51" height="29.1964"/>
			<rect x="0" y="462.93" width="54.5023" height="29.1964" class="st7"/>
			<text x="4.84" y="480.53" class="st29" v:langID="1033"><v:paragraph v:horizAlign="1"/><v:tabList/>DNS server</text>		</g>
		<g id="group125-170" transform="translate(226.375,-210.439)" v:mID="125" v:groupContext="group">
			<title>Sheet.125</title>
			<g id="shape126-171" v:mID="126" v:groupContext="shape">
				<title>Sheet.126</title>
				<path d="M8.44 475.25 C3.78 475.25 0 479.03 0 483.69 C0 488.35 3.78 492.13 8.44 492.13 C13.1 492.13 16.87 488.35
							 16.87 483.69 C16.87 483.69 16.87 483.69 16.87 483.69 C16.87 479.03 13.1 475.25 8.44 475.25 C8.44 475.25
							 8.44 475.25 8.44 475.25 ZM9.36 487.27 L8.08 487.27 L8.08 481.14 C7.97 481.22 7.86 481.29 7.74 481.36
							 C7.62 481.42 7.49 481.49 7.36 481.54 C7.23 481.59 7.08 481.64 6.93 481.69 C6.78 481.74 6.61 481.78 6.43
							 481.83 L6.43 480.8 C6.55 480.77 6.66 480.73 6.76 480.7 C6.86 480.66 6.96 480.63 7.06 480.6 C7.16 480.56
							 7.26 480.52 7.36 480.47 C7.45 480.43 7.55 480.39 7.65 480.35 C7.74 480.3 7.84 480.25 7.93 480.2 C8.03
							 480.16 8.13 480.1 8.22 480.05 C8.32 480 8.42 479.94 8.52 479.87 C8.63 479.81 8.73 479.75 8.83 479.69
							 L9.36 479.69 L9.36 487.27 Z" class="st30"/>
			</g>
		</g>
		<g id="shape144-173" v:mID="144" v:groupContext="shape" v:layerMember="0" transform="translate(197.306,-185.826)">
			<title>Dynamic connector.144</title>
			<v:userDefs>
				<v:ud v:nameU="visVersion" v:val="VT0(15):26"/>
			</v:userDefs>
			<path d="M9 492.13 L9 511.11" class="st31"/>
		</g>
		<g id="shape248-179" v:mID="248" v:groupContext="shape" transform="translate(132.806,-310.523)">
			<title>Rectangle.168</title>
			<v:userDefs>
				<v:ud v:nameU="visVersion" v:val="VT0(15):26"/>
			</v:userDefs>
			<rect x="0" y="431.376" width="149.114" height="60.75" class="st33"/>
		</g>
		<g id="group249-181" transform="translate(256.081,-299.417)" v:mID="249" v:groupContext="group">
			<title>Icon-networking-84</title>
			<g id="shape250-182" v:mID="250" v:groupContext="shape" transform="translate(0,-5.30998)">
				<title>Sheet.250</title>
				<path d="M38.92 483.47 A8.77844 8.77844 -180 0 0 31.33 475.06 A11.0271 11.0271 -180 0 0 19.98 464.53 A11.3082 11.3082
							 -180 0 0 9.17 471.9 A10.4217 10.4217 -180 0 0 -0 481.93 A10.5947 10.5947 -180 0 0 10.96 492.12 L11.91
							 492.12 L29.67 492.12 A3.15678 3.15678 -180 0 0 30.14 492.12 A8.86493 8.86493 -180 0 0 38.92 483.47 Z"
						class="st22"/>
			</g>
			<g id="shape251-185" v:mID="251" v:groupContext="shape" transform="translate(8.02168,0)">
				<title>Sheet.251</title>
				<path d="M22.88 480.43 a0.908115 0.908115 -180 0 0 -0.908115 -0.886493 L0.91 479.54 a0.908115 0.908115 -180 0 0 -0.908115
							 0.886493 L0 491.24 a0.908115 0.908115 -180 0 0 0.908115 0.886493 L21.97 492.13 a0.908115 0.908115 -180
							 0 0 0.908115 -0.886493 L22.88 480.43 Z" class="st34"/>
			</g>
			<g id="shape252-187" v:mID="252" v:groupContext="shape" transform="translate(9.29736,-8.58385)">
				<title>Sheet.252</title>
				<rect x="0" y="489.38" width="6.20545" height="2.74597" class="st35"/>
			</g>
			<g id="shape253-189" v:mID="253" v:groupContext="shape" transform="translate(16.4326,-8.58385)">
				<title>Sheet.253</title>
				<rect x="0" y="489.38" width="6.20545" height="2.74597" class="st36"/>
			</g>
			<g id="shape254-191" v:mID="254" v:groupContext="shape" transform="translate(23.5677,-8.58385)">
				<title>Sheet.254</title>
				<rect x="0" y="489.38" width="6.20545" height="2.74597" class="st35"/>
			</g>
			<g id="shape255-193" v:mID="255" v:groupContext="shape" transform="translate(9.29736,-4.90814)">
				<title>Sheet.255</title>
				<rect x="0" y="489.38" width="2.57299" height="2.74597" class="st35"/>
			</g>
			<g id="shape256-195" v:mID="256" v:groupContext="shape" transform="translate(27.2002,-4.90814)">
				<title>Sheet.256</title>
				<rect x="0" y="489.38" width="2.57299" height="2.74597" class="st36"/>
			</g>
			<g id="shape257-197" v:mID="257" v:groupContext="shape" transform="translate(12.8001,-4.90814)">
				<title>Sheet.257</title>
				<rect x="0" y="489.38" width="6.20545" height="2.74597" class="st36"/>
			</g>
			<g id="shape258-199" v:mID="258" v:groupContext="shape" transform="translate(19.9569,-4.90814)">
				<title>Sheet.258</title>
				<rect x="0" y="489.38" width="6.20545" height="2.74597" class="st35"/>
			</g>
			<g id="shape259-201" v:mID="259" v:groupContext="shape" transform="translate(9.29736,-1.23244)">
				<title>Sheet.259</title>
				<rect x="0" y="489.38" width="6.20545" height="2.74597" class="st35"/>
			</g>
			<g id="shape260-203" v:mID="260" v:groupContext="shape" transform="translate(16.4326,-1.23244)">
				<title>Sheet.260</title>
				<rect x="0" y="489.38" width="6.20545" height="2.74597" class="st36"/>
			</g>
			<g id="shape261-205" v:mID="261" v:groupContext="shape" transform="translate(23.5677,-1.23244)">
				<title>Sheet.261</title>
				<rect x="0" y="489.38" width="6.20545" height="2.74597" class="st35"/>
			</g>
		</g>
		<g id="group262-207" transform="translate(132.806,-339.773)" v:mID="262" v:groupContext="group">
			<title>Sheet.262</title>
			<g id="group263-208" v:mID="263" v:groupContext="group">
				<title>a101d3be-9418-4282-9372-6812b30</title>
				<g id="shape264-209" v:mID="264" v:groupContext="shape" transform="translate(3.88783,-2.76945)">
					<title>Sheet.264</title>
					<path d="M39.37 470.23 L39.37 470.25 L47.57 470.06 L47.51 467.51 L39.37 467.7 L39.37 467.65 L32.57 466.87 L32.57
								 459.47 L32.56 459.44 L37.36 447.14 L34.98 446.23 L30.14 458.61 L30.14 458.61 L24.94 464.61 L16.75
								 458.56 L16.64 458.47 L11.85 446.23 L9.47 447.14 L14.31 459.52 L14.37 459.5 L18.77 469.11 L8.21 467.65
								 L8.16 467.73 L8.16 467.7 L0.06 467.51 L0 470.06 L8.1 470.25 L8.12 469.38 L13.47 471.08 L14.53 474.69
								 L14.43 478.83 L9.59 491.21 L11.97 492.13 L16.82 479.74 L16.42 479.59 L20.24 475.88 L30.19 478.24
								 L31.43 479.29 L30.26 479.74 L35.1 492.13 L37.49 491.21 L32.64 478.83 L32.56 478.86 L33.27 473.71
								 L39.37 470.23 Z" class="st37"/>
				</g>
				<g id="shape265-211" v:mID="265" v:groupContext="shape" transform="translate(1.14759,-2.27374E-13)">
					<title>Sheet.265</title>
					<path d="M53.35 466.21 A3.91811 3.91811 0 1 1 49.44 462.29 A3.91811 3.91811 0 0 1 53.35 466.21 ZM2.77 462.29
								 A3.91811 3.91811 -180 1 0 6.69 466.21 A3.91811 3.91811 -180 0 0 2.77 462.29 ZM13.3 485.44 A3.91811
								 3.91811 -180 1 0 17.22 489.36 A3.91811 3.91811 -180 0 0 13.3 485.44 ZM39.59 485.44 A3.91811 3.91811
								 -180 1 0 43.5 489.36 A3.91811 3.91811 -180 0 0 39.59 485.44 ZM12.88 438.91 A3.91811 3.91811 -180
								 1 0 16.8 442.83 A3.91508 3.91508 -180 0 0 12.88 438.91 ZM39.87 438.91 A3.91811 3.91811 -180 1 0
								 43.79 442.83 A3.91508 3.91508 -180 0 0 39.87 438.91 Z" class="st38"/>
				</g>
				<g id="shape266-213" v:mID="266" v:groupContext="shape" transform="translate(0,-12.4557)">
					<title>Sheet.266</title>
					<path d="M10.7 472.55 L43.8 472.55 L43.8 491.02 A1.10519 1.10519 0 0 1 42.7 492.13 L11.81 492.13 A1.10519 1.10519
								 0 0 1 10.7 491.02 L10.7 472.55 L10.7 472.55 Z" class="st39"/>
				</g>
				<g id="shape267-217" v:mID="267" v:groupContext="shape" transform="translate(2.67786E-13,-32.0311)">
					<title>Sheet.267</title>
					<path d="M11.81 485.07 L42.69 485.07 A1.10519 1.10519 0 0 1 43.8 486.18 L43.8 492.13 L10.7 492.13 L10.7 486.18
								 A1.10519 1.10519 0 0 1 11.81 485.07 Z" class="st23"/>
				</g>
				<g id="shape268-219" v:mID="268" v:groupContext="shape" transform="translate(21.1287,-21.9441)">
					<title>Sheet.268</title>
					<path d="M10.88 489.6 A1.47459 1.47459 0 1 1 9.4 491.07 A1.47459 1.47459 0 0 1 10.88 489.6 ZM4.7 491.08 A1.47459
								 1.47459 -180 1 0 6.17 489.61 A1.47459 1.47459 -180 0 0 4.7 491.08 ZM0 491.08 A1.47459 1.47459 -180
								 1 0 1.47 489.61 A1.47459 1.47459 -180 0 0 0 491.08 Z" class="st40"/>
				</g>
				<g id="shape269-223" v:mID="269" v:groupContext="shape" transform="translate(15.8237,-16.1382)">
					<title>Sheet.269</title>
					<path d="M7.85 491.17 L7.01 492.01 a0.381516 0.381516 0 0 1 -0.538967 0 L0.22 485.79 a0.760005 0.760005 0 0 1
								 -8.54872E-15 -1.07793 L1.07 483.87 L7.85 490.63 a0.381516 0.381516 0 0 1 -1.77636E-15 0.538967 ZM21.79
								 483.85 L15.01 490.62 a0.378488 0.378488 -180 0 0 -1.24345E-14 0.538967 L15.85 492 a0.378488 0.378488
								 -180 0 0 0.538967 0 L22.63 485.78 a0.763033 0.763033 -180 0 0 1.77636E-14 -1.07793 L21.79 483.85
								 L21.79 483.85 Z" class="st5"/>
				</g>
				<g id="shape270-225" v:mID="270" v:groupContext="shape" transform="translate(15.8237,-21.6424)">
					<title>Sheet.270</title>
					<path d="M6.89 484.06 L7.73 484.9 a0.381516 0.381516 0 0 1 3.55271E-15 0.538967 L1.07 492.13 L0.22 491.28 a0.760005
								 0.760005 0 0 1 -7.32747E-15 -1.07793 L6.34 484.06 a0.381516 0.381516 0 0 1 0.545023 0 ZM22.63 491.26
								 a0.760005 0.760005 -180 0 0 0 -1.07793 L16.51 484.04 a0.381516 0.381516 -180 0 0 -0.538967 0 L15.12
								 484.9 a0.381516 0.381516 -180 0 0 -8.88178E-15 0.538967 L21.78 492.12 L22.63 491.27 L22.63 491.26
								 Z" class="st41"/>
				</g>
			</g>
		</g>
		<g id="shape423-227" v:mID="423" v:groupContext="shape" transform="translate(-217.626,229.983) rotate(-90)">
			<title>Sheet.423</title>
			<path d="M0 492.13 L18.82 492.13" class="st42"/>
		</g>
		<g id="shape425-233" v:mID="425" v:groupContext="shape" v:layerMember="0" transform="translate(216.96,-257.662)">
			<title>Dynamic connector.136</title>
			<v:userDefs>
				<v:ud v:nameU="visVersion" v:val="VT0(15):26"/>
			</v:userDefs>
			<path d="M-8.85 492.13 L-9.15 439.26" class="st44"/>
		</g>
		<g id="shape427-236" v:mID="427" v:groupContext="shape" transform="translate(144.056,-347.621)">
			<title>Sheet.427</title>
			<desc>Virtual hub (10.100.0.0/23)</desc>
			<v:textBlock v:margins="rect(4,4,4,4)"/>
			<v:textRect cx="74.5568" cy="482.564" width="149.12" height="19.125"/>
			<rect x="0" y="473.001" width="149.114" height="19.125" class="st7"/>
			<text x="50.17" y="479.56" class="st8" v:langID="1033"><v:paragraph v:horizAlign="1"/><v:tabList/>Virtual  hub<v:newlineChar/><tspan
						x="42.48" dy="1.2em" class="st18">(10.100.0.0/23)</tspan></text>		</g>
		<g id="shape433-240" v:mID="433" v:groupContext="shape" transform="translate(-218.14,158.255) rotate(-90)">
			<title>Sheet.433</title>
			<path d="M0 492.13 L70.38 492.13" class="st45"/>
		</g>
		<g id="group437-246" transform="translate(53.529,-429.902)" v:mID="437" v:groupContext="group">
			<title>Sheet.437</title>
			<g id="group438-247" v:mID="438" v:groupContext="group">
				<title>Sheet.438</title>
				<g id="shape439-248" v:mID="439" v:groupContext="shape" transform="translate(0,-11.9735)">
					<title>Sheet.439</title>
					<path d="M44.25 482.23 A10.0317 10.0317 -180 0 0 35.66 472.6 A12.6789 12.6789 -180 0 0 22.65 460.63 A13.0433
								 13.0433 -180 0 0 10.41 468.96 A12.2156 12.2156 -180 0 0 0 480.41 A12.0048 12.0048 -180 0 0 12.49
								 492.13 L34.36 492.13 A9.89118 9.89118 -180 0 0 44.25 482.23 Z" class="st46"/>
				</g>
				<g id="shape440-252" v:mID="440" v:groupContext="shape" transform="translate(10.6721,-1.7053E-13)">
					<title>Sheet.440</title>
					<ellipse cx="11.4529" cy="480.673" rx="11.4529" ry="11.4529" class="st47"/>
				</g>
				<g id="shape441-254" v:mID="441" v:groupContext="shape" transform="translate(11.9735,-1.30147)">
					<title>Sheet.441</title>
					<path d="M19.78 474.69 A11.9735 11.9735 -180 0 0 3.12 472.34 A11.872 11.872 -180 1 0 17.7 491.08 A11.8616 11.8616
								 -180 0 0 19.78 474.69 ZM0 481.19 A12.252 12.252 0 0 1 1.04 477.03 L3.9 477.03 A20.2301 20.2301 -180
								 0 0 3.38 481.19 L0 481.19 ZM5.47 477.03 L9.37 477.03 L9.37 481.19 L4.95 481.19 A20.2301 20.2301
								 0 0 1 5.47 477.03 ZM10.93 477.03 L14.84 477.03 A20.2301 20.2301 0 0 1 15.36 481.19 L10.93 481.19
								 L10.93 477.03 ZM9.63 482.5 L9.63 486.66 L5.47 486.66 L4.69 482.76 L9.63 482.5 ZM10.93 482.5 L15.62
								 482.5 A25.9539 25.9539 0 0 1 15.1 486.66 L10.93 486.66 L10.93 482.5 ZM17.18 482.5 L20.56 482.5 A12.252
								 12.252 0 0 1 19.52 486.66 L16.66 486.66 A20.2301 20.2301 -180 0 0 17.18 482.5 ZM17.18 481.19 A25.9539
								 25.9539 -180 0 0 16.66 477.03 L19.52 477.03 A10.9141 10.9141 0 0 1 20.56 481.19 L17.18 481.19 ZM18.48
								 475.47 L16.14 475.47 A11.7132 11.7132 -180 0 0 14.58 472.34 A11.5258 11.5258 0 0 1 18.48 475.47
								 ZM14.58 475.47 L10.93 475.47 L10.93 471.82 A5.65099 5.65099 0 0 1 14.58 475.47 ZM9.63 471.82 L9.63
								 475.73 L5.99 475.73 A5.51303 5.51303 0 0 1 9.63 471.82 ZM3.9 473.65 A14.5296 14.5296 0 0 1 5.99
								 472.34 A8.06912 8.06912 -180 0 0 4.43 475.73 L2.08 475.73 A7.02794 7.02794 0 0 1 3.9 473.65 ZM0
								 482.76 L3.38 482.76 A25.9539 25.9539 -180 0 0 3.9 486.92 L1.04 486.92 A13.9231 13.9231 0 0 1 0 482.76
								 ZM2.08 488.22 L4.42 488.22 L5.99 491.35 A9.08687 9.08687 0 0 1 2.08 488.22 ZM5.99 488.22 L9.37 488.22
								 L9.37 492.13 A6.33296 6.33296 0 0 1 5.99 488.22 ZM10.93 492.13 L10.93 488.22 L14.32 488.22 A5.12259
								 5.12259 0 0 1 10.93 492.13 ZM16.66 490.04 A6.82491 6.82491 0 0 1 14.32 491.35 A8.79534 8.79534 -180
								 0 0 15.88 488.22 L18.22 488.22 A3.49835 3.49835 0 0 1 16.66 490.04 Z" class="st23"/>
				</g>
				<g id="shape442-256" v:mID="442" v:groupContext="shape" transform="translate(6.24706,-15.3574)">
					<title>Sheet.442</title>
					<path d="M5.73 492.13 A10.4768 10.4768 0 0 1 0 484.58 A9.49032 9.49032 0 0 1 3.9 477.03 L5.47 475.73 L6.77 477.29
								 L5.21 478.59 A6.53078 6.53078 -180 0 0 2.08 484.32 A7.88951 7.88951 -180 0 0 6.77 490.3 L5.73 492.13
								 Z" class="st48"/>
				</g>
				<g id="shape443-258" v:mID="443" v:groupContext="shape" transform="translate(9.63088,-28.1118)">
					<title>Sheet.443</title>
					<ellipse cx="2.86324" cy="489.263" rx="2.86324" ry="2.86324" class="st47"/>
				</g>
				<g id="shape444-260" v:mID="444" v:groupContext="shape" transform="translate(30.7147,-15.3574)">
					<title>Sheet.444</title>
					<path d="M1.04 492.13 L0 490.3 A8.48299 8.48299 -180 0 0 4.69 484.32 A7.15288 7.15288 -180 0 0 1.56 478.59 L0
								 477.55 L1.3 475.99 L2.86 477.03 A7.99363 7.99363 0 0 1 6.77 484.58 A10.4768 10.4768 0 0 1 1.04 492.13
								 Z" class="st48"/>
				</g>
				<g id="shape445-262" v:mID="445" v:groupContext="shape" transform="translate(28.6324,-28.1118)">
					<title>Sheet.445</title>
					<ellipse cx="2.86324" cy="489.263" rx="2.86324" ry="2.86324" class="st47"/>
				</g>
				<g id="shape446-264" v:mID="446" v:groupContext="shape" transform="translate(9.63088,-13.275)">
					<title>Sheet.446</title>
					<ellipse cx="2.86324" cy="489.263" rx="2.86324" ry="2.86324" class="st49"/>
				</g>
				<g id="shape447-266" v:mID="447" v:groupContext="shape" transform="translate(28.6324,-13.275)">
					<title>Sheet.447</title>
					<ellipse cx="2.86324" cy="489.263" rx="2.86324" ry="2.86324" class="st49"/>
				</g>
			</g>
		</g>
		<g id="shape449-268" v:mID="449" v:groupContext="shape" transform="translate(258.429,-20.3141)">
			<title>Sheet.449</title>
			<desc>West US3 Region</desc>
			<v:textBlock v:margins="rect(4,4,4,4)"/>
			<v:textRect cx="74.5568" cy="482.564" width="149.12" height="19.125"/>
			<rect x="0" y="473.001" width="149.114" height="19.125" class="st7"/>
			<text x="39.06" y="485.56" class="st8" v:langID="1033"><v:paragraph v:horizAlign="1"/><v:tabList/>West US3 Region</text>		</g>
		<g id="shape466-271" v:mID="466" v:groupContext="shape" transform="translate(333.335,-319.871)">
			<title>Circle.466</title>
			<v:userDefs>
				<v:ud v:nameU="visVersion" v:val="VT0(15):26"/>
			</v:userDefs>
			<path d="M0 489.88 A2.25 2.25 0 0 1 4.5 489.88 A2.25 2.25 0 1 1 0 489.88 Z" class="st7"/>
		</g>
		<g id="shape467-273" v:mID="467" v:groupContext="shape" transform="translate(400.835,-247.108)">
			<title>Circle.467</title>
			<v:userDefs>
				<v:ud v:nameU="visVersion" v:val="VT0(15):26"/>
			</v:userDefs>
			<path d="M0 489.88 A2.25 2.25 0 0 1 4.5 489.88 A2.25 2.25 0 1 1 0 489.88 Z" class="st7"/>
		</g>
		<g id="shape468-275" v:mID="468" v:groupContext="shape" transform="translate(407.585,-251.608)">
			<title>Circle.468</title>
			<v:userDefs>
				<v:ud v:nameU="visVersion" v:val="VT0(15):26"/>
			</v:userDefs>
			<path d="M0 489.88 A2.25 2.25 0 0 1 4.5 489.88 A2.25 2.25 0 1 1 0 489.88 Z" class="st7"/>
		</g>
		<g id="group471-277" transform="translate(268.085,-172.859)" v:mID="471" v:groupContext="group">
			<title>Icon-networking-67</title>
			<g id="shape472-278" v:mID="472" v:groupContext="shape">
				<title>Sheet.472</title>
				<path d="M11.04 484.93 C11.04 488.56 6.65 491.48 5.7 492.08 a0.345 0.345 0 0 1 -0.36 0 C4.39 491.48 0 488.56 0 484.93
							 L0 480.56 a0.345 0.345 0 0 1 0.3375 -0.345 C3.75 480.13 2.96 478.63 5.52 478.63 C8.08 478.63 7.29 480.13
							 10.7 480.22 a0.345 0.345 0 0 1 0.3375 0.345 L11.04 484.93 Z" class="st23"/>
			</g>
			<g id="shape473-280" v:mID="473" v:groupContext="shape" transform="translate(0.4575,-0.560273)">
				<title>Sheet.473</title>
				<path d="M10.12 485.53 C10.12 488.86 6.11 491.53 5.23 492.08 a0.3225 0.3225 0 0 1 -0.33 0 C4.02 491.54 0 488.86 0
							 485.53 L0 481.52 a0.315 0.315 0 0 1 0.3075 -0.315 C3.44 481.12 2.72 479.75 5.06 479.75 C7.41 479.75
							 6.69 481.12 9.82 481.21 a0.315 0.315 0 0 1 0.3075 0.315 L10.12 485.53 Z" class="st50"/>
			</g>
			<g id="shape474-282" v:mID="474" v:groupContext="shape" transform="translate(0.48,-0.560679)">
				<title>Sheet.474</title>
				<path d="M5.04 485.94 L5.04 479.75 C7.39 479.75 6.67 481.12 9.8 481.21 a0.3225 0.3225 0 0 1 0.3075 0.3225 L10.1 485.53
							 A3.6675 3.6675 0 0 1 10.1 485.94 L5.04 485.94 ZM5.04 485.94 L0 485.94 C0.3 489.07 4.04 491.56 4.88 492.08
							 a0.2925 0.2925 -180 0 0 0.135 0.045 L5.04 492.13 L5.04 485.94 Z" class="st51"/>
			</g>
			<g id="shape475-286" v:mID="475" v:groupContext="shape" transform="translate(0.474405,-6.74818)">
				<title>Sheet.475</title>
				<path d="M0.29 487.39 C3.42 487.31 2.7 485.94 5.05 485.94 L5.05 492.13 L0.01 492.13 A3.6675 3.6675 0 0 1 0.01 491.72
							 L0.01 487.72 a0.3225 0.3225 0 0 1 0.285 -0.3225 Z" class="st12"/>
			</g>
			<g id="shape476-288" v:mID="476" v:groupContext="shape" transform="translate(5.52,-0.560679)">
				<title>Sheet.476</title>
				<path d="M5.04 485.94 L0 485.94 L0 492.13 a0.2925 0.2925 -180 0 0 0.135 -0.045 C1 491.56 4.74 489.07 5.04 485.94 Z"
						class="st12"/>
			</g>
		</g>
		<g id="group477-290" transform="translate(267.065,-91.8599)" v:mID="477" v:groupContext="group">
			<title>Icon-networking-67.477</title>
			<g id="shape478-291" v:mID="478" v:groupContext="shape">
				<title>Sheet.478</title>
				<path d="M11.04 484.93 C11.04 488.56 6.65 491.48 5.7 492.08 a0.345 0.345 0 0 1 -0.36 0 C4.39 491.48 0 488.56 0 484.93
							 L0 480.56 a0.345 0.345 0 0 1 0.3375 -0.345 C3.75 480.13 2.96 478.63 5.52 478.63 C8.08 478.63 7.29 480.13
							 10.7 480.22 a0.345 0.345 0 0 1 0.3375 0.345 L11.04 484.93 Z" class="st23"/>
			</g>
			<g id="shape479-293" v:mID="479" v:groupContext="shape" transform="translate(0.4575,-0.560273)">
				<title>Sheet.479</title>
				<path d="M10.12 485.53 C10.12 488.86 6.11 491.53 5.23 492.08 a0.3225 0.3225 0 0 1 -0.33 0 C4.02 491.54 0 488.86 0
							 485.53 L0 481.52 a0.315 0.315 0 0 1 0.3075 -0.315 C3.44 481.12 2.72 479.75 5.06 479.75 C7.41 479.75
							 6.69 481.12 9.82 481.21 a0.315 0.315 0 0 1 0.3075 0.315 L10.12 485.53 Z" class="st50"/>
			</g>
			<g id="shape480-295" v:mID="480" v:groupContext="shape" transform="translate(0.48,-0.560679)">
				<title>Sheet.480</title>
				<path d="M5.04 485.94 L5.04 479.75 C7.39 479.75 6.67 481.12 9.8 481.21 a0.3225 0.3225 0 0 1 0.3075 0.3225 L10.1 485.53
							 A3.6675 3.6675 0 0 1 10.1 485.94 L5.04 485.94 ZM5.04 485.94 L0 485.94 C0.3 489.07 4.04 491.56 4.88 492.08
							 a0.2925 0.2925 -180 0 0 0.135 0.045 L5.04 492.13 L5.04 485.94 Z" class="st51"/>
			</g>
			<g id="shape481-298" v:mID="481" v:groupContext="shape" transform="translate(0.474405,-6.74818)">
				<title>Sheet.481</title>
				<path d="M0.29 487.39 C3.42 487.31 2.7 485.94 5.05 485.94 L5.05 492.13 L0.01 492.13 A3.6675 3.6675 0 0 1 0.01 491.72
							 L0.01 487.72 a0.3225 0.3225 0 0 1 0.285 -0.3225 Z" class="st12"/>
			</g>
			<g id="shape482-300" v:mID="482" v:groupContext="shape" transform="translate(5.52,-0.560679)">
				<title>Sheet.482</title>
				<path d="M5.04 485.94 L0 485.94 L0 492.13 a0.2925 0.2925 -180 0 0 0.135 -0.045 C1 491.56 4.74 489.07 5.04 485.94 Z"
						class="st12"/>
			</g>
		</g>
		<g id="shape491-302" v:mID="491" v:groupContext="shape" transform="translate(152.879,-42.3581)">
			<title>Sheet.491</title>
			<desc>(10.1.0.0/22)</desc>
			<v:textBlock v:margins="rect(4,4,4,4)"/>
			<v:textRect cx="68.8529" cy="482.564" width="137.71" height="19.125"/>
			<rect x="0" y="473.001" width="137.706" height="19.125" class="st7"/>
			<text x="4" y="485.56" class="st8" v:langID="1033"><v:paragraph/><v:tabList/>(10.1.0.0/22)</text>		</g>
		<g id="shape493-305" v:mID="493" v:groupContext="shape" transform="translate(407.5,625.685) rotate(180)">
			<title>Sheet.493</title>
			<path d="M0 492.13 L104.6 492.13" class="st52"/>
		</g>
		<g id="shape494-310" v:mID="494" v:groupContext="shape" transform="translate(25.3626,-415.804)">
			<title>Sheet.494</title>
			<desc>Azure Virtual WAN</desc>
			<v:textBlock v:margins="rect(4,4,4,4)"/>
			<v:textRect cx="50.2914" cy="482.564" width="100.59" height="19.125"/>
			<rect x="0" y="473.001" width="100.583" height="19.125" class="st7"/>
			<text x="9.98" y="485.56" class="st8" v:langID="1033"><v:paragraph v:horizAlign="1"/><v:tabList/>Azure Virtual  WAN</text>		</g>
		<g id="shape495-313" v:mID="495" v:groupContext="shape" transform="translate(169,-276.773)">
			<title>Sheet.495</title>
			<desc>peered</desc>
			<v:textBlock v:margins="rect(4,4,4,4)"/>
			<v:textRect cx="22.125" cy="477.528" width="44.26" height="29.1964"/>
			<rect x="0" y="462.93" width="44.25" height="29.1964" class="st7"/>
			<text x="4" y="480.53" class="st29" v:langID="1033"><v:paragraph/><v:tabList/>peered</text>		</g>
		<g id="group500-316" transform="translate(352.19,-257.371)" v:mID="500" v:groupContext="group">
			<title>Sheet.500</title>
			<g id="shape91-317" v:mID="91" v:groupContext="shape" transform="translate(6.39488E-14,-58.6564)">
				<title>Sheet.91</title>
				<desc>Private DNS zone privatelink.blob.core.windows.net</desc>
				<v:textBlock v:margins="rect(4,4,4,4)"/>
				<v:textRect cx="75.8571" cy="477.528" width="151.72" height="29.1964"/>
				<rect x="0" y="462.93" width="151.714" height="29.1964" class="st7"/>
				<text x="40.16" y="474.53" class="st8" v:langID="1033"><v:paragraph v:horizAlign="1"/><v:tabList/>Private DNS zone<v:newlineChar/><tspan
							x="4.19" dy="1.2em" class="st18">privatelink.blob.core.windows.net</tspan></text>			</g>
			<g id="shape92-321" v:mID="92" v:groupContext="shape" transform="translate(14.4643,0)">
				<title>Sheet.92</title>
				<desc>Name--------------Type-----Value Stgworkload00-----A--------1...</desc>
				<v:textBlock v:margins="rect(4,4,4,4)" v:verticalAlign="0"/>
				<v:textRect cx="84.548" cy="461.751" width="169.1" height="60.75"/>
				<rect x="0" y="431.376" width="169.096" height="60.75" class="st7"/>
				<text x="4" y="442.58" class="st53" v:langID="1033"><v:paragraph/><v:tabList/>Name<tspan class="st54">--------------</tspan>Type<tspan
							class="st54">-----</tspan>Value<v:newlineChar/><tspan x="4" dy="1.2em" class="st18">Stgworkload00</tspan><tspan
							class="st54">-----</tspan>A<tspan class="st54">--------</tspan>10.1.2.4</text>			</g>
			<g id="shape95-329" v:mID="95" v:groupContext="shape" v:layerMember="0" transform="translate(16.7789,-56.5555)">
				<title>Dynamic connector.95</title>
				<v:userDefs>
					<v:ud v:nameU="visVersion" v:val="VT0(15):26"/>
				</v:userDefs>
				<path d="M0 500.88 L156.81 501.38" class="st55"/>
			</g>
			<g id="shape96-332" v:mID="96" v:groupContext="shape" v:layerMember="0" transform="translate(18.0534,-47.5555)">
				<title>Dynamic connector.96</title>
				<v:userDefs>
					<v:ud v:nameU="visVersion" v:val="VT0(15):26"/>
				</v:userDefs>
				<path d="M0 500.88 L156.81 501.38" class="st55"/>
			</g>
		</g>
		<g id="shape501-335" v:mID="501" v:groupContext="shape" transform="translate(279.25,-336.121)">
			<title>Sheet.501</title>
			<desc>X</desc>
			<v:textBlock v:margins="rect(4,4,4,4)"/>
			<v:textRect cx="27" cy="469.626" width="54" height="45"/>
			<rect x="0" y="447.126" width="54" height="45" class="st7"/>
			<text x="4" y="478.63" class="st56" v:langID="1033"><v:paragraph/><v:tabList/>X</text>		</g>
		<g id="shape506-338" v:mID="506" v:groupContext="shape" transform="translate(207.25,-152.358)">
			<title>Sheet.506</title>
			<desc>?</desc>
			<v:textBlock v:margins="rect(4,4,4,4)"/>
			<v:textRect cx="27" cy="469.626" width="54" height="45"/>
			<rect x="0" y="447.126" width="54" height="45" class="st7"/>
			<text x="4" y="475.03" class="st57" v:langID="1033"><v:paragraph/><v:tabList/>?</text>		</g>
		<g id="shape507-341" v:mID="507" v:groupContext="shape" v:layerMember="0" transform="translate(180.931,-220.487)">
			<title>Dynamic connector</title>
			<v:userDefs>
				<v:ud v:nameU="visVersion" v:val="VT0(15):26"/>
			</v:userDefs>
			<path d="M0 492.13 L-112.55 492.13 L-112.55 539.03" class="st58"/>
		</g>
		<g id="shape508-347" v:mID="508" v:groupContext="shape" transform="translate(178.681,-208.116)">
			<title>Circle.508</title>
			<v:userDefs>
				<v:ud v:nameU="visVersion" v:val="VT0(15):26"/>
			</v:userDefs>
			<path d="M0 489.88 A2.25 2.25 0 0 1 4.5 489.88 A2.25 2.25 0 1 1 0 489.88 Z" class="st7"/>
		</g>
		<g id="shape509-349" v:mID="509" v:groupContext="shape" transform="translate(66.1301,-162.04)">
			<title>Circle.509</title>
			<v:userDefs>
				<v:ud v:nameU="visVersion" v:val="VT0(15):26"/>
			</v:userDefs>
			<path d="M0 489.88 A2.25 2.25 0 0 1 4.5 489.88 A2.25 2.25 0 1 1 0 489.88 Z" class="st7"/>
		</g>
		<g id="shape510-351" v:mID="510" v:groupContext="shape" transform="translate(57.25,-138.858)">
			<title>Sheet.510</title>
			<desc>X</desc>
			<v:textBlock v:margins="rect(4,4,4,4)"/>
			<v:textRect cx="27" cy="469.626" width="54" height="45"/>
			<rect x="0" y="447.126" width="54" height="45" class="st7"/>
			<text x="4" y="478.63" class="st56" v:langID="1033"><v:paragraph/><v:tabList/>X</text>		</g>
		<g id="group511-354" transform="translate(93.0625,-223.487)" v:mID="511" v:groupContext="group">
			<title>Sheet.511</title>
			<g id="shape512-355" v:mID="512" v:groupContext="shape">
				<title>Sheet.512</title>
				<path d="M8.44 475.25 C3.78 475.25 0 479.03 0 483.69 C0 488.35 3.78 492.13 8.44 492.13 C13.1 492.13 16.87 488.35
							 16.87 483.69 C16.87 483.69 16.87 483.69 16.87 483.69 C16.88 479.03 13.1 475.25 8.44 475.25 C8.44 475.25
							 8.44 475.25 8.44 475.25 ZM10.85 487.47 L6.02 487.47 L6.02 486.76 C6.02 486.47 6.08 486.17 6.19 485.9
							 C6.3 485.64 6.45 485.4 6.63 485.19 C6.83 484.96 7.05 484.76 7.29 484.58 C7.54 484.4 7.81 484.21 8.1
							 484.04 C8.35 483.89 8.58 483.73 8.79 483.54 C8.96 483.4 9.1 483.25 9.22 483.07 C9.32 482.93 9.4 482.77
							 9.44 482.6 C9.48 482.42 9.5 482.24 9.5 482.07 C9.5 481.91 9.47 481.76 9.43 481.61 C9.38 481.47 9.3 481.33
							 9.21 481.22 C9.11 481.11 8.98 481.01 8.84 480.95 C8.67 480.88 8.5 480.85 8.32 480.85 C7.97 480.85 7.63
							 480.93 7.32 481.09 C6.99 481.26 6.69 481.47 6.42 481.72 L6.42 480.57 C6.68 480.34 6.99 480.16 7.32 480.06
							 C7.68 479.95 8.05 479.9 8.43 479.9 C8.73 479.9 9.03 479.95 9.31 480.04 C9.58 480.12 9.82 480.25 10.04
							 480.42 C10.25 480.59 10.41 480.81 10.52 481.06 C10.65 481.33 10.71 481.63 10.7 481.92 C10.7 482.19 10.67
							 482.46 10.61 482.72 C10.55 482.96 10.44 483.2 10.31 483.41 C10.15 483.64 9.97 483.85 9.76 484.04 C9.5
							 484.26 9.22 484.47 8.93 484.65 C8.66 484.81 8.43 484.97 8.22 485.11 C8.04 485.24 7.86 485.38 7.69 485.54
							 C7.56 485.66 7.45 485.81 7.37 485.97 C7.29 486.13 7.25 486.3 7.26 486.47 L10.85 486.47 L10.85 487.47
							 Z" class="st60"/>
			</g>
		</g>
		<g id="shape1000-357" v:mID="1000" v:groupContext="shape" transform="translate(253.125,-261.563)">
			<title>Rectangle.1000</title>
			<desc>1</desc>
			<v:userDefs>
				<v:ud v:nameU="visVersion" v:val="VT0(15):26"/>
			</v:userDefs>
			<v:textBlock v:margins="rect(4,4,4,4)"/>
			<v:textRect cx="8.4375" cy="483.689" width="16.88" height="16.8734"/>
			<rect x="0" y="475.253" width="16.875" height="16.8734" class="st61"/>
			<text x="5.4" y="487.29" class="st62" v:langID="1033"><v:paragraph v:horizAlign="1"/><v:tabList/>1</text>		</g>
		<g id="shape1001-360" v:mID="1001" v:groupContext="shape" transform="translate(254.812,-342.871)">
			<title>Rectangle.1001</title>
			<desc>2</desc>
			<v:userDefs>
				<v:ud v:nameU="visVersion" v:val="VT0(15):26"/>
			</v:userDefs>
			<v:textBlock v:margins="rect(4,4,4,4)"/>
			<v:textRect cx="8.4375" cy="483.689" width="16.88" height="16.8734"/>
			<rect x="0" y="475.253" width="16.875" height="16.8734" class="st61"/>
			<text x="5.4" y="487.29" class="st62" v:langID="1033"><v:paragraph v:horizAlign="1"/><v:tabList/>2</text>		</g>
		<g id="shape1002-363" v:mID="1002" v:groupContext="shape" transform="translate(27.154,-15.6867)">
			<title>Rectangle.1006</title>
			<desc>N</desc>
			<v:userDefs>
				<v:ud v:nameU="visVersion" v:val="VT0(15):26"/>
			</v:userDefs>
			<v:textBlock v:margins="rect(4,4,4,4)"/>
			<v:textRect cx="8.4375" cy="483.689" width="16.88" height="16.8734"/>
			<rect x="0" y="475.253" width="16.875" height="16.8734" class="st61"/>
			<text x="4.57" y="487.29" class="st63" v:langID="1033"><v:paragraph v:horizAlign="1"/><v:tabList/>N</text>		</g>
		<g id="shape1003-366" v:mID="1003" v:groupContext="shape" transform="translate(45.154,-14.5609)">
			<title>Sheet.1003</title>
			<desc>DNS flow</desc>
			<v:textBlock v:margins="rect(4,4,4,4)"/>
			<v:textRect cx="66.8839" cy="482.564" width="133.77" height="19.125"/>
			<rect x="0" y="473.001" width="133.768" height="19.125" class="st7"/>
			<text x="4" y="485.56" class="st8" v:langID="1033"><v:paragraph/><v:tabList/>DNS flow</text>		</g>
		<g id="shape1004-369" v:mID="1004" v:groupContext="shape" transform="translate(140.578,-15.4422)">
			<title>Sheet.1004</title>
			<desc>HTTP flow</desc>
			<v:textBlock v:margins="rect(4,4,4,4)"/>
			<v:textRect cx="66.8839" cy="482.564" width="133.77" height="19.125"/>
			<rect x="0" y="473.001" width="133.768" height="19.125" class="st7"/>
			<text x="4" y="485.56" class="st8" v:langID="1033"><v:paragraph/><v:tabList/>HTTP flow</text>		</g>
		<g id="shape1005-372" v:mID="1005" v:groupContext="shape" transform="translate(123.904,-16.568)">
			<title>Circle.1011</title>
			<desc>N</desc>
			<v:userDefs>
				<v:ud v:nameU="visVersion" v:val="VT0(15):26"/>
			</v:userDefs>
			<v:textBlock v:margins="rect(0,0,0,0)"/>
			<v:textRect cx="8.4375" cy="483.689" width="14.77" height="12.6563"/>
			<path d="M0 483.69 A8.4375 8.4375 0 0 1 16.88 483.69 A8.4375 8.4375 0 1 1 -0 483.69 Z" class="st30"/>
			<text x="4.57" y="487.29" class="st63" v:langID="1033"><v:paragraph v:horizAlign="1"/><v:tabList/>N</text>		</g>
		<g id="shape1006-375" v:mID="1006" v:groupContext="shape" transform="translate(243.359,-285.75)">
			<title>Sheet.1006</title>
			<desc>10.100.0.132</desc>
			<v:textBlock v:margins="rect(4,4,4,4)"/>
			<v:textRect cx="32.1812" cy="483.689" width="64.37" height="16.8734"/>
			<rect x="0" y="475.253" width="64.3623" height="16.8734" class="st7"/>
			<text x="5.59" y="486.69" class="st29" v:langID="1033"><v:paragraph v:horizAlign="1"/><v:tabList/>10.100.0.132</text>		</g>
	</g>
</svg>
