<?xml version="1.0" encoding="UTF-8" standalone="no"?>
<!DOCTYPE svg PUBLIC "-//W3C//DTD SVG 1.1//EN" "http://www.w3.org/Graphics/SVG/1.1/DTD/svg11.dtd">
<!-- Generated by Microsoft Visio, SVG Export dns-private-endpoints-dnsproxy-basic-config-doesnt-work.svg Doesn&#39;t Work -->
<svg xmlns="http://www.w3.org/2000/svg" xmlns:xlink="http://www.w3.org/1999/xlink" xmlns:ev="http://www.w3.org/2001/xml-events"
		xmlns:v="http://schemas.microsoft.com/visio/2003/SVGExtensions/" width="8.54804in" height="7.51508in"
		viewBox="0 0 615.459 541.085" xml:space="preserve" color-interpolation-filters="sRGB" class="st49">
	<v:documentProperties v:langID="1033" v:viewMarkup="false">
		<v:userDefs>
			<v:ud v:nameU="msvNoAutoConnect" v:val="VT0(0):26"/>
			<v:ud v:nameU="msvWarnOnPersonalInfo" v:val="VT0(0):5"/>
		</v:userDefs>
	</v:documentProperties>

	<style type="text/css">
	<![CDATA[
		.st1 {fill:url(#grad0-5);stroke:none;stroke-linecap:butt;stroke-width:0.75}
		.st2 {fill:#37c2b1;stroke:none;stroke-linecap:butt;stroke-width:0.75}
		.st3 {fill:#ffffff;stroke:none;stroke-linecap:butt;stroke-width:0.75}
		.st4 {fill:#258277;stroke:none;stroke-linecap:butt;stroke-width:0.75}
		.st5 {fill:none;stroke:none;stroke-width:0.25}
		.st6 {fill:#5b9bd5;font-family:Calibri;font-size:0.833336em;font-weight:bold}
		.st7 {fill:#dae3f3;stroke:#c7c8c8;stroke-width:0.25}
		.st8 {fill:url(#grad0-23);stroke:none;stroke-linecap:butt;stroke-width:0.75}
		.st9 {fill:url(#grad0-27);stroke:none;stroke-linecap:butt;stroke-width:0.75}
		.st10 {fill:#50e6ff;stroke:none;stroke-linecap:butt;stroke-width:0.75}
		.st11 {fill:#1490df;stroke:none;stroke-linecap:butt;stroke-width:0.75}
		.st12 {fill:#ffffff;stroke:#759fcc;stroke-dasharray:1.75,1.25;stroke-width:0.25}
		.st13 {fill:#7a7a7a;stroke:none;stroke-linecap:butt;stroke-width:0.75}
		.st14 {fill:url(#grad0-55);stroke:none;stroke-linecap:butt;stroke-width:0.75}
		.st15 {fill:url(#grad0-59);stroke:none;stroke-linecap:butt;stroke-width:0.75}
		.st16 {font-size:1em}
		.st17 {fill:url(#grad0-77);stroke:none;stroke-linecap:butt;stroke-width:0.75}
		.st18 {fill:url(#grad1-91);stroke:none;stroke-linecap:butt;stroke-width:0.75}
		.st19 {fill:#5ea0ef;stroke:none;stroke-linecap:butt;stroke-width:0.75}
		.st20 {fill:url(#grad0-123);stroke:none;stroke-linecap:butt;stroke-width:0.75}
		.st21 {fill:#0078d4;stroke:none;stroke-linecap:butt;stroke-width:0.75}
		.st22 {fill:#83b9f9;stroke:none;stroke-linecap:butt;stroke-width:0.75}
		.st23 {fill:#83b9f9;fill-opacity:0.2;stroke:none;stroke-linecap:butt;stroke-width:0.75}
		.st24 {fill:#5ea0ef;fill-opacity:0.2;stroke:none;stroke-linecap:butt;stroke-width:0.75}
		.st25 {fill:url(#grad0-139);stroke:none;stroke-linecap:butt;stroke-width:0.75}
		.st26 {fill:#c00000;font-family:Calibri;font-size:0.833336em}
		.st27 {fill:#5b9bd5;font-family:Consolas;font-size:0.833336em}
		.st28 {stroke:#4672c4;stroke-linecap:round;stroke-linejoin:round;stroke-width:1}
		.st29 {fill:#107c10;stroke:none;stroke-linecap:butt;stroke-width:6.375}
		.st30 {fill:url(#grad0-176);stroke:none;stroke-linecap:butt;stroke-width:0.75}
		.st31 {fill:url(#grad0-180);stroke:none;stroke-linecap:butt;stroke-width:0.75}
		.st32 {marker-end:url(#mrkr2-194);stroke:#4672c4;stroke-linecap:round;stroke-linejoin:round;stroke-width:1}
		.st33 {fill:#4672c4;fill-opacity:1;stroke:#4672c4;stroke-opacity:1;stroke-width:0.28409090909091}
		.st34 {fill:#f2f2f2;stroke:#c7c8c8;stroke-dasharray:1.75,1.25;stroke-width:0.25}
		.st35 {fill:#821010;stroke:none;stroke-linecap:butt;stroke-width:0.75}
		.st36 {fill:#e62323;stroke:none;stroke-linecap:butt;stroke-width:0.75}
		.st37 {fill:#ff7381;stroke:none;stroke-linecap:butt;stroke-width:0.75}
		.st38 {font-size:0.799995em}
		.st39 {fill:url(#grad0-277);stroke:none;stroke-linecap:butt;stroke-width:0.75}
		.st40 {fill:#f2f2f2;stroke:none;stroke-linecap:butt;stroke-width:0.75}
		.st41 {fill:#e6e6e6;stroke:none;stroke-linecap:butt;stroke-width:0.75}
		.st42 {fill:#ce74b6;stroke:none;stroke-linecap:butt;stroke-width:0.75}
		.st43 {marker-start:url(#mrkr2-308);stroke:#4672c4;stroke-dasharray:0,5;stroke-linecap:round;stroke-linejoin:round;stroke-width:1}
		.st44 {fill:#5b9bd5;font-family:Calibri;font-size:0.833336em}
		.st45 {marker-end:url(#mrkr2-317);stroke:#c00000;stroke-dasharray:0,11.25;stroke-linecap:round;stroke-linejoin:round;stroke-width:2.25}
		.st46 {fill:#c00000;fill-opacity:1;stroke:#c00000;stroke-opacity:1;stroke-width:0.47169811320755}
		.st47 {fill:#c00000;font-family:Calibri;font-size:2.50001em}
		.st48 {marker-start:url(#mrkr2-308);stroke:#4672c4;stroke-linecap:round;stroke-linejoin:round;stroke-width:1}
		.st49 {fill:none;fill-rule:evenodd;font-size:12px;overflow:visible;stroke-linecap:square;stroke-miterlimit:3}
	]]>
	</style>

	<defs id="Patterns_And_Gradients">
		<linearGradient id="grad0-5" x1="0" y1="0" x2="1" y2="0" gradientTransform="rotate(-90 0.5 0.5)">
			<stop offset="0" stop-color="#b3b3b3" stop-opacity="1"/>
			<stop offset="0.26" stop-color="#c1c1c1" stop-opacity="1"/>
			<stop offset="1" stop-color="#e6e6e6" stop-opacity="1"/>
		</linearGradient>
		<linearGradient id="grad0-23" x1="0" y1="0" x2="1" y2="0" gradientTransform="rotate(44.92 0.5 0.5)">
			<stop offset="0" stop-color="#86d633" stop-opacity="1"/>
			<stop offset="1" stop-color="#5e9624" stop-opacity="1"/>
		</linearGradient>
		<linearGradient id="grad0-27" x1="0" y1="0" x2="1" y2="0" gradientTransform="rotate(45.175215904905 0.5 0.5)">
			<stop offset="0" stop-color="#86d633" stop-opacity="1"/>
			<stop offset="1" stop-color="#5e9624" stop-opacity="1"/>
		</linearGradient>
		<linearGradient id="grad0-55" x1="0" y1="0" x2="1" y2="0" gradientTransform="rotate(90 0.5 0.5)">
			<stop offset="0.23" stop-color="#5ea0ef" stop-opacity="1"/>
			<stop offset="0.32" stop-color="#5b9fee" stop-opacity="1"/>
			<stop offset="0.48" stop-color="#509aeb" stop-opacity="1"/>
			<stop offset="0.57" stop-color="#3f92e6" stop-opacity="1"/>
			<stop offset="0.75" stop-color="#2688df" stop-opacity="1"/>
			<stop offset="0.93" stop-color="#127fd9" stop-opacity="1"/>
		</linearGradient>
		<linearGradient id="grad0-59" x1="0" y1="0" x2="1" y2="0" gradientTransform="rotate(90 0.5 0.5)">
			<stop offset="0.02" stop-color="#5ea0ef" stop-opacity="1"/>
			<stop offset="0.14" stop-color="#5b9fee" stop-opacity="1"/>
			<stop offset="0.23" stop-color="#5b9fee" stop-opacity="1"/>
			<stop offset="0.34" stop-color="#509aeb" stop-opacity="1"/>
			<stop offset="0.44" stop-color="#3f92e6" stop-opacity="1"/>
			<stop offset="0.63" stop-color="#2688df" stop-opacity="1"/>
			<stop offset="0.93" stop-color="#127fd9" stop-opacity="1"/>
		</linearGradient>
		<linearGradient id="grad0-77" x1="0" y1="0" x2="1" y2="0" gradientTransform="rotate(-90 0.5 0.5)">
			<stop offset="0" stop-color="#5e9624" stop-opacity="1"/>
			<stop offset="0.24" stop-color="#6fb02a" stop-opacity="1"/>
			<stop offset="0.5" stop-color="#7cc52f" stop-opacity="1"/>
			<stop offset="0.755" stop-color="#83d232" stop-opacity="1"/>
			<stop offset="1" stop-color="#86d633" stop-opacity="1"/>
		</linearGradient>
		<radialGradient id="grad1-91" cx="1" cy="1" r="1.4">
			<stop offset="0.18" stop-color="#5ea0ef" stop-opacity="1"/>
			<stop offset="1" stop-color="#0078d4" stop-opacity="1"/>
		</radialGradient>
		<linearGradient id="grad0-123" x1="0" y1="0" x2="1" y2="0" gradientTransform="rotate(-90 0.5 0.5)">
			<stop offset="0" stop-color="#0078d4" stop-opacity="1"/>
			<stop offset="0.82" stop-color="#5ea0ef" stop-opacity="1"/>
		</linearGradient>
		<linearGradient id="grad0-139" x1="0" y1="0" x2="1" y2="0" gradientTransform="rotate(-90 0.5 0.5)">
			<stop offset="0" stop-color="#1490df" stop-opacity="1"/>
			<stop offset="0.98" stop-color="#1f56a3" stop-opacity="1"/>
		</linearGradient>
		<linearGradient id="grad0-176" x1="0" y1="0" x2="1" y2="0" gradientTransform="rotate(90 0.5 0.5)">
			<stop offset="0.23" stop-color="#5ea0ef" stop-opacity="1"/>
			<stop offset="0.93" stop-color="#127fd9" stop-opacity="1"/>
		</linearGradient>
		<linearGradient id="grad0-180" x1="0" y1="0" x2="1" y2="0" gradientTransform="rotate(90 0.5 0.5)">
			<stop offset="0.02" stop-color="#5ea0ef" stop-opacity="1"/>
			<stop offset="0.93" stop-color="#127fd9" stop-opacity="1"/>
		</linearGradient>
		<linearGradient id="grad0-277" x1="0" y1="0" x2="1" y2="0" gradientTransform="rotate(-90 0.5 0.5)">
			<stop offset="0" stop-color="#198ab3" stop-opacity="1"/>
			<stop offset="0.11" stop-color="#22a5cb" stop-opacity="1"/>
			<stop offset="0.23" stop-color="#29bade" stop-opacity="1"/>
			<stop offset="0.37" stop-color="#2ec9eb" stop-opacity="1"/>
			<stop offset="0.53" stop-color="#31d1f3" stop-opacity="1"/>
			<stop offset="0.78" stop-color="#32d4f5" stop-opacity="1"/>
		</linearGradient>
	</defs>
	<defs id="Markers">
		<g id="lend2">
			<path d="M 1 1 L 0 0 L 1 -1 L 1 1 " style="stroke:none"/>
		</g>
		<marker id="mrkr2-194" class="st33" v:arrowType="2" v:arrowSize="2" v:setback="3.52" refX="-3.52" orient="auto"
				markerUnits="strokeWidth" overflow="visible">
			<use xlink:href="#lend2" transform="scale(-3.52,-3.52) "/>
		</marker>
		<marker id="mrkr2-308" class="st33" v:arrowType="2" v:arrowSize="2" v:setback="3.16" refX="3.16" orient="auto"
				markerUnits="strokeWidth" overflow="visible">
			<use xlink:href="#lend2" transform="scale(3.52) "/>
		</marker>
		<marker id="mrkr2-317" class="st46" v:arrowType="2" v:arrowSize="2" v:setback="2.12" refX="-2.12" orient="auto"
				markerUnits="strokeWidth" overflow="visible">
			<use xlink:href="#lend2" transform="scale(-2.12,-2.12) "/>
		</marker>
	</defs>
	<g v:mID="6" v:index="3" v:groupContext="foregroundPage">
		<v:userDefs>
			<v:ud v:nameU="msvThemeOrder" v:val="VT0(0):26"/>
		</v:userDefs>
		<title>DNS Doesn&#39;t Work</title>
		<v:pageProperties v:drawingScale="1" v:pageScale="1" v:drawingUnits="19" v:shadowOffsetX="9" v:shadowOffsetY="-9"/>
		<v:layer v:name="Connector" v:index="0"/>
		<g id="group1-1" transform="translate(537.464,-109.163)" v:mID="1" v:groupContext="group">
			<title>Icon-storage-86</title>
			<g id="shape2-2" v:mID="2" v:groupContext="shape">
				<title>Sheet.2</title>
				<path d="M0.89 523.21 L31.12 523.21 L31.12 540.07 A1.01379 1.01379 0 0 1 30.11 541.09 L1.9 541.09 A1.01379 1.01379
							 0 0 1 0.89 540.07 L0.89 523.21 Z" class="st1"/>
			</g>
			<g id="shape3-6" v:mID="3" v:groupContext="shape" transform="translate(0,-17.8746)">
				<title>Sheet.3</title>
				<path d="M1.9 534.65 L30.11 534.65 A1.01379 1.01379 0 0 1 31.12 535.66 L31.12 541.09 L0.89 541.09 L0.89 535.64 A1.01379
							 1.01379 0 0 1 1.9 534.65 Z" class="st2"/>
			</g>
			<g id="shape4-8" v:mID="4" v:groupContext="shape" transform="translate(4.53536,-12.4678)">
				<title>Sheet.4</title>
				<path d="M0.46 537.63 L22.46 537.63 a0.480214 0.480214 0 0 1 0.462429 0.480214 L22.93 540.61 a0.480214 0.480214 0
							 0 1 -0.462429 0.480214 L0.46 541.09 a0.480214 0.480214 0 0 1 -0.462429 -0.480214 L0 538.12 a0.480214
							 0.480214 0 0 1 0.462429 -0.480214 Z" class="st3"/>
			</g>
			<g id="shape5-10" v:mID="5" v:groupContext="shape" transform="translate(4.55314,-7.48779)">
				<title>Sheet.5</title>
				<path d="M0.46 537.62 L22.46 537.62 a0.480214 0.480214 0 0 1 0.462429 0.480214 L22.93 540.61 a0.480214 0.480214 0
							 0 1 -0.462429 0.480214 L0.46 541.09 a0.480214 0.480214 0 0 1 -0.462429 -0.480214 L0 538.19 a0.480214
							 0.480214 0 0 1 0.462429 -0.569143 Z" class="st2"/>
			</g>
			<g id="shape6-12" v:mID="6" v:groupContext="shape" transform="translate(4.55314,-2.47221)">
				<title>Sheet.6</title>
				<path d="M0.46 537.62 L22.46 537.62 a0.480214 0.480214 0 0 1 0.462429 0.480214 L22.93 540.61 a0.480214 0.480214 0
							 0 1 -0.462429 0.480214 L0.46 541.09 a0.480214 0.480214 0 0 1 -0.462429 -0.480214 L0 538.1 a0.480214
							 0.480214 0 0 1 0.462429 -0.480214 Z" class="st4"/>
			</g>
		</g>
		<g id="shape7-14" v:mID="7" v:groupContext="shape" transform="translate(508.845,-91.2107)">
			<title>Sheet.7</title>
			<desc>stgworkload00</desc>
			<v:textBlock v:margins="rect(4,4,4,4)"/>
			<v:textRect cx="44.1818" cy="531.523" width="88.37" height="19.125"/>
			<rect x="0" y="521.96" width="88.3636" height="19.125" class="st5"/>
			<text x="13.36" y="534.52" class="st6" v:langID="1033"><v:paragraph v:horizAlign="1"/><v:tabList/>stgworkload00</text>		</g>
		<g id="shape8-17" v:mID="8" v:groupContext="shape" transform="translate(301.964,-18.25)">
			<title>Rectangle</title>
			<v:userDefs>
				<v:ud v:nameU="visVersion" v:val="VT0(15):26"/>
			</v:userDefs>
			<rect x="0" y="325.414" width="149.114" height="215.671" class="st7"/>
		</g>
		<g id="group17-19" transform="translate(383.179,-21.6786)" v:mID="17" v:groupContext="group">
			<title>Icon-networking-61</title>
			<g id="shape18-20" v:mID="18" v:groupContext="shape" transform="translate(11.8173,-8.36273)">
				<title>Sheet.18</title>
				<ellipse cx="1.02047" cy="540.065" rx="1.02047" ry="1.02047" class="st8"/>
			</g>
			<g id="shape19-24" v:mID="19" v:groupContext="shape" transform="translate(8.56237,-8.35393)">
				<title>Sheet.19</title>
				<ellipse cx="1.02047" cy="540.065" rx="1.02047" ry="1.02047" class="st9"/>
			</g>
			<g id="shape20-28" v:mID="20" v:groupContext="shape" transform="translate(5.30742,-8.35393)">
				<title>Sheet.20</title>
				<ellipse cx="1.02047" cy="540.065" rx="1.02047" ry="1.02047" class="st9"/>
			</g>
			<g id="shape21-31" v:mID="21" v:groupContext="shape" transform="translate(386.945,911.365) rotate(134.92)">
				<title>Sheet.21</title>
				<path d="M2.3 534.19 L3.12 534.19 a0.263915 0.263915 0 0 1 0.263915 0.263915 L3.39 540.56 a0.52783 0.52783 0 0 1
							 -0.52783 0.52783 L2.03 541.09 L2.03 534.45 a0.263915 0.263915 0 0 1 0.263915 -0.263915 Z" class="st10"/>
			</g>
			<g id="shape22-33" v:mID="22" v:groupContext="shape" transform="translate(382.071,147.142) rotate(44.92)">
				<title>Sheet.22</title>
				<path d="M2.25 534.29 L3.08 534.29 a0.263915 0.263915 0 0 1 0.263915 0.263915 L3.34 541.09 L2.52 541.09 a0.52783
							 0.52783 0 0 1 -0.52783 -0.52783 L1.99 534.55 a0.263915 0.263915 0 0 1 0.263915 -0.263915 Z"
						class="st11"/>
			</g>
			<g id="shape23-35" v:mID="23" v:groupContext="shape" transform="translate(386.189,144.711) rotate(45.08)">
				<title>Sheet.23</title>
				<path d="M12.45 534.19 L13.27 534.19 a0.52783 0.52783 0 0 1 0.52783 0.52783 L13.8 540.82 a0.263915 0.263915 0 0 1
							 -0.263915 0.263915 L12.71 541.09 a0.263915 0.263915 0 0 1 -0.263915 -0.263915 L12.45 534.19 Z"
						class="st10"/>
			</g>
			<g id="shape24-37" v:mID="24" v:groupContext="shape" transform="translate(403.8,901.176) rotate(135.08)">
				<title>Sheet.24</title>
				<path d="M13.03 534.29 L13.86 534.29 L13.86 540.82 a0.263915 0.263915 0 0 1 -0.263915 0.263915 L12.76 541.09 a0.263915
							 0.263915 0 0 1 -0.263915 -0.263915 L12.49 534.81 a0.52783 0.52783 0 0 1 0.52783 -0.52783 L13.03 534.29
							 Z" class="st11"/>
			</g>
		</g>
		<g id="shape36-39" v:mID="36" v:groupContext="shape" transform="translate(400.214,-20.8214)">
			<title>Sheet.36</title>
			<desc>spokevnet</desc>
			<v:textBlock v:margins="rect(4,4,4,4)"/>
			<v:textRect cx="26.8125" cy="531.523" width="53.63" height="19.125"/>
			<rect x="0" y="521.96" width="53.625" height="19.125" class="st5"/>
			<text x="4" y="534.52" class="st6" v:langID="1033"><v:paragraph/><v:tabList/>spokevnet</text>		</g>
		<g id="shape37-42" v:mID="37" v:groupContext="shape" transform="translate(310.536,-72.6786)">
			<title>Rectangle.37</title>
			<v:userDefs>
				<v:ud v:nameU="visVersion" v:val="VT0(15):26"/>
			</v:userDefs>
			<path d="M0 541.09 L133.77 541.09 L133.77 468.01 L0 468.01 L0 541.09 Z" class="st12"/>
		</g>
		<g id="shape38-44" v:mID="38" v:groupContext="shape" transform="translate(328.536,-69.25)">
			<title>Sheet.38</title>
			<desc>Private Endpoint Subnet</desc>
			<v:textBlock v:margins="rect(4,4,4,4)"/>
			<v:textRect cx="56.2232" cy="531.523" width="112.45" height="19.125"/>
			<rect x="0" y="521.96" width="112.446" height="19.125" class="st5"/>
			<text x="4" y="534.52" class="st6" v:langID="1033"><v:paragraph/><v:tabList/>Private Endpoint Subnet</text>		</g>
		<g id="group47-47" transform="translate(364.717,-113.178)" v:mID="47" v:groupContext="group">
			<title>Sheet.47</title>
			<g id="shape48-48" v:mID="48" v:groupContext="shape" transform="translate(10.8263,-10.1802)">
				<title>Sheet.48</title>
				<rect x="0" y="531.811" width="1.47121" height="9.27439" class="st13"/>
			</g>
			<g id="shape49-50" v:mID="49" v:groupContext="shape" transform="translate(10.0317,-18.2231)">
				<title>Sheet.49</title>
				<path d="M3.69 539.56 A2.15961 2.15961 0 1 1 1.53 537.4 A2.1583 2.1583 0 0 1 3.69 539.56 Z" class="st11"/>
			</g>
			<g id="shape50-52" v:mID="50" v:groupContext="shape" transform="translate(6.00091,-4.77786)">
				<title>Sheet.50</title>
				<path d="M5.27 535.19 L2.91 535.19 A2.94504 2.94504 -180 0 0 2.45 541.04 A3.16664 3.16664 0 0 1 2.48 539.95 A1.85934
							 1.85934 0 0 1 2.91 536.28 L5.27 536.28 A1.86458 1.86458 0 0 1 5.27 540 L4.62 540 A1.41352 1.41352 -180
							 0 0 4.49 540.6 A1.34009 1.34009 -180 0 0 4.58 541.09 L5.27 541.09 A2.94504 2.94504 -180 1 0 5.27 535.2
							 L5.27 535.19 Z" class="st14"/>
			</g>
			<g id="shape51-56" v:mID="51" v:groupContext="shape" transform="translate(8.97273,-2.3324)">
				<title>Sheet.51</title>
				<path d="M5.7 535.24 A3.46429 3.46429 0 0 1 5.73 535.69 A3.03814 3.03814 0 0 1 5.67 536.33 A1.85934 1.85934 0 0 1
							 5.24 540.01 L2.88 540.01 A1.86589 1.86589 0 0 1 2.88 536.28 L3.53 536.28 A1.36631 1.36631 -180 0 0 3.66
							 535.69 A1.33484 1.33484 -180 0 0 3.56 535.2 L2.88 535.2 A2.94504 2.94504 -180 0 0 2.88 541.09 L5.24
							 541.09 A2.94504 2.94504 -180 0 0 5.7 535.24 L5.7 535.24 Z" class="st15"/>
			</g>
			<g id="shape52-60" v:mID="52" v:groupContext="shape" transform="translate(-1.17906E-13,-0.437608)">
				<title>Sheet.52</title>
				<path d="M7.32 540.43 L6.78 540.98 a0.367147 0.367147 0 0 1 -0.524496 0 L0.22 534.94 a0.742161 0.742161 0 0 1 -6.66134E-15
							 -1.04899 L0.76 533.35 L7.32 539.9 a0.361902 0.361902 0 0 1 8.88178E-16 0.512694 L7.32 540.43 Z"
						class="st10"/>
			</g>
			<g id="shape53-62" v:mID="53" v:groupContext="shape" transform="translate(0.00393372,-5.96453)">
				<title>Sheet.53</title>
				<path d="M6.67 533.49 L7.27 534.1 a0.369769 0.369769 0 0 1 -1.77636E-15 0.524496 L0.82 541.09 L0.22 540.49 a0.742161
							 0.742161 0 0 1 -7.21645E-15 -1.04899 L6.15 533.49 a0.367147 0.367147 0 0 1 0.520562 0 Z" class="st11"/>
			</g>
			<g id="shape54-64" v:mID="54" v:groupContext="shape" transform="translate(16.1777,0)">
				<title>Sheet.54</title>
				<path d="M0.11 540.42 a0.364524 0.364524 0 0 1 -0.00786743 -0.514006 L0.11 539.91 L6.67 533.37 L7.21 533.91 a0.742161
							 0.742161 0 0 1 3.55271E-15 1.04899 L1.17 540.98 a0.363213 0.363213 0 0 1 -0.512694 0.00786743 L0.64
							 540.98 L0.11 540.42 Z" class="st10"/>
			</g>
			<g id="shape55-66" v:mID="55" v:groupContext="shape" transform="translate(16.2307,-5.53314)">
				<title>Sheet.55</title>
				<path d="M1.23 533.49 L7.16 539.44 a0.738227 0.738227 0 0 1 8.88178E-16 1.03981 L6.56 541.09 L0.11 534.62 a0.378948
							 0.378948 0 0 1 -7.77156E-16 -0.524496 L0.71 533.5 a0.369769 0.369769 0 0 1 0.520562 -0.00131124 Z"
						class="st11"/>
			</g>
		</g>
		<g id="shape56-68" v:mID="56" v:groupContext="shape" transform="translate(319.214,-89.5268)">
			<title>Sheet.56</title>
			<desc>Private Link Endpoint 10.0.2.4</desc>
			<v:textBlock v:margins="rect(4,4,4,4)"/>
			<v:textRect cx="56.2232" cy="531.523" width="112.45" height="19.125"/>
			<rect x="0" y="521.96" width="112.446" height="19.125" class="st5"/>
			<text x="11.97" y="528.52" class="st6" v:langID="1033"><v:paragraph v:horizAlign="1"/><v:tabList/>Private Link Endpoint<v:newlineChar/><tspan
						x="39.55" dy="1.2em" class="st16">10.0.2.4</tspan></text>		</g>
		<g id="group57-72" transform="translate(314.821,-75.25)" v:mID="57" v:groupContext="group">
			<title>Sheet.57</title>
			<g id="group58-73" transform="translate(0,3.42857)" v:mID="58" v:groupContext="group">
				<title>Sheet.58</title>
				<g id="shape59-74" v:mID="59" v:groupContext="shape" transform="translate(7.28265,-7.11102)">
					<title>Sheet.59</title>
					<path d="M0.69 539.41 a0.97875 0.97875 -180 1 0 0.98025 0.975 a0.97875 0.97875 -180 0 0 -0.98025 -0.975 Z"
							class="st17"/>
				</g>
				<g id="group60-78" v:mID="60" v:groupContext="group">
					<title>Sheet.60</title>
					<g id="shape61-79" v:mID="61" v:groupContext="shape" transform="translate(386.736,913.129) rotate(134.919)">
						<title>Sheet.61</title>
						<path d="M2.22 535.53 L2.89 535.53 a0.213 0.213 0 0 1 0.213 0.213 L3.1 540.66 a0.426 0.426 0 0 1 -0.426 0.426
									 L2.01 541.09 L2.01 535.75 a0.213 0.213 0 0 1 0.213 -0.21375 Z" class="st10"/>
					</g>
					<g id="shape62-81" v:mID="62" v:groupContext="shape" transform="translate(382.064,148.712) rotate(44.919)">
						<title>Sheet.62</title>
						<path d="M2.18 535.61 L2.85 535.61 a0.213 0.213 0 0 1 0.213 0.213 L3.06 541.09 L2.4 541.09 a0.426 0.426 0
									 0 1 -0.426 -0.426 L1.97 535.82 a0.213 0.213 0 0 1 0.213 -0.213 L2.18 535.61 Z" class="st11"/>
					</g>
					<g id="shape63-83" v:mID="63" v:groupContext="shape" transform="translate(385.595,146.979) rotate(45.081)">
						<title>Sheet.63</title>
						<path d="M10.4 535.53 L11.07 535.53 a0.426 0.426 0 0 1 0.426 0.426 L11.49 540.87 a0.213 0.213 0 0 1 -0.213
									 0.213 L10.61 541.09 a0.213 0.213 0 0 1 -0.213 -0.213 L10.4 535.53 Z" class="st10"/>
					</g>
					<g id="shape64-85" v:mID="64" v:groupContext="shape" transform="translate(400.088,905.149) rotate(135.081)">
						<title>Sheet.64</title>
						<path d="M10.86 535.61 L11.53 535.61 L11.53 540.87 a0.213 0.213 0 0 1 -0.213 0.213 L10.65 541.09 a0.213 0.213
									 0 0 1 -0.213 -0.213 L10.44 536.04 a0.426 0.426 0 0 1 0.426 -0.426 L10.86 535.61 Z"
								class="st11"/>
					</g>
				</g>
			</g>
		</g>
		<g id="group65-87" transform="translate(83.3929,-401.55)" v:mID="65" v:groupContext="group">
			<title>Icon-networking-64</title>
			<g id="shape66-88" v:mID="66" v:groupContext="shape" transform="translate(1.02035,-0.921225)">
				<title>f57e105d-6d2d-4ad7-b8c3-c10684c</title>
				<path d="M20.35 541.09 A14.506 14.506 0 0 1 2.58 518.16 L2.73 518.05 A14.5008 14.5008 0 0 1 20.35 541.09 Z"
						class="st18"/>
			</g>
			<g id="shape67-92" v:mID="67" v:groupContext="shape">
				<title>Sheet.67</title>
				<path d="M12.48 515.58 A13.1189 13.1189 -180 1 0 25.6 528.7 A13.136 13.136 -180 0 0 12.48 515.58 ZM21.27 520 A12.573
							 12.573 0 0 1 17.6 521.36 A15.0637 15.0637 -180 0 0 15.47 516.76 A12.283 12.283 0 0 1 21.27 520 ZM12.48
							 516.31 A11.2424 11.2424 0 0 1 14.34 516.47 A12.7607 12.7607 0 0 1 16.95 521.59 A25.7943 25.7943 0 0
							 1 7.66 521.59 A12.5901 12.5901 0 0 1 10.23 516.57 A12.5218 12.5218 0 0 1 12.48 516.31 ZM9.07 516.76
							 A14.8761 14.8761 -180 0 0 6.91 521.33 A9.51932 9.51932 0 0 1 3.66 520.02 A12.5389 12.5389 0 0 1 9.07
							 516.76 ZM3.48 537.23 A8.99047 8.99047 0 0 1 6.51 535.93 A12.0783 12.0783 -180 0 0 8.82 540.57 A12.3683
							 12.3683 0 0 1 3.48 537.23 ZM14.41 540.98 A12.0783 12.0783 0 0 1 12.48 541.09 A11.6518 11.6518 0 0 1
							 10.03 540.83 A10.2358 10.2358 0 0 1 7.18 535.71 A25.129 25.129 0 0 1 17.21 535.71 A10.2358 10.2358 0
							 0 1 14.33 540.83 L14.41 540.98 ZM15.66 540.71 A12.1636 12.1636 -180 0 0 18.01 535.93 A11.3959 11.3959
							 0 0 1 21.42 537.35 A12.1636 12.1636 0 0 1 15.66 540.64 L15.66 540.71 ZM18.18 535.22 C18.32 534.6 18.44
							 533.97 18.52 533.31 L17.74 533.49 C17.65 534.02 17.57 534.55 17.45 535.05 A25.9819 25.9819 -180 0 0
							 7.06 535.05 C6.94 534.59 6.85 534.09 6.77 533.58 a0.477672 0.477672 0 0 1 -7.99361E-15 -0.153537 L5.98
							 533.2 A4.02609 4.02609 -180 0 0 5.98 533.68 C5.98 534.23 6.17 534.74 6.27 535.23 A10.0652 10.0652 -180
							 0 0 2.86 536.68 A12.3512 12.3512 0 0 1 3.05 520.65 A10.7306 10.7306 -180 0 0 6.6 522.12 C6.48 522.52
							 6.38 522.97 6.29 523.41 C6.21 523.86 6.29 523.84 6.16 524.04 L6.96 523.86 L6.96 523.57 C7.06 523.12
							 7.16 522.7 7.28 522.29 A25.4019 25.4019 -180 0 0 12.48 522.7 A25.5896 25.5896 -180 0 0 17.23 522.25
							 C17.35 522.71 17.47 523.21 17.57 523.7 L18.35 523.89 C18.23 523.28 18.09 522.71 17.94 522.18 A13.1872
							 13.1872 -180 0 0 21.87 520.63 A12.3171 12.3171 0 0 1 21.97 536.82 A12.4195 12.4195 -180 0 0 18.18 535.17
							 L18.18 535.22 Z" class="st19"/>
			</g>
			<g id="shape68-94" v:mID="68" v:groupContext="shape" transform="translate(3.40871,-8.71751)">
				<title>Sheet.68</title>
				<path d="M0.02 534.01 A13.5113 13.5113 0 0 1 2 533.87 A4.16257 4.16257 0 0 1 4.91 534.76 A3.41194 3.41194 0 0 1 5.92
							 537.25 A3.7702 3.7702 0 0 1 4.88 540.04 A4.43553 4.43553 0 0 1 1.71 541.09 A15.6438 15.6438 0 0 1 0
							 541 L0.02 534.01 ZM0.96 540.37 A6.82389 6.82389 -180 0 0 1.89 540.37 A2.76367 2.76367 -180 0 0 4.95
							 537.28 A2.55896 2.55896 -180 0 0 2.03 534.52 A5.40793 5.40793 -180 0 0 0.96 534.52 L0.96 540.37 Z"
						class="st3"/>
			</g>
			<g id="shape69-96" v:mID="69" v:groupContext="shape" transform="translate(10.5397,-8.73457)">
				<title>Sheet.69</title>
				<path d="M0 541.03 L0 533.85 L1.01 533.85 L3.31 537.43 A20.7787 20.7787 0 0 1 4.61 539.77 C4.52 538.82 4.5 537.95
							 4.5 536.82 L4.5 533.85 L5.36 533.85 L5.36 541.03 L4.42 541.03 L2.17 537.43 C1.67 536.63 1.19 535.73
							 0.82 535.05 C0.82 535.95 0.82 536.75 0.82 538.01 L0.82 541.09 L0 541.03 Z" class="st3"/>
			</g>
			<g id="shape70-98" v:mID="70" v:groupContext="shape" transform="translate(17.21,-8.68339)">
				<title>Sheet.70</title>
				<path d="M0.2 539.86 A3.41194 3.41194 -180 0 0 1.91 540.32 C2.87 540.32 3.41 539.82 3.41 539.09 C3.41 538.36 3.04
							 538.03 2.06 537.67 C1.09 537.32 0.15 536.65 0.15 535.63 A2.08129 2.08129 0 0 1 2.49 533.68 A3.41194
							 3.41194 0 0 1 4.08 534.02 L3.8 534.79 A2.78073 2.78073 -180 0 0 2.44 534.45 C1.45 534.45 1.07 535.03
							 1.07 535.52 C1.07 536.02 1.52 536.53 2.51 536.91 C3.5 537.28 4.35 537.96 4.35 539.02 C4.35 540.08 3.53
							 541.09 1.83 541.09 A3.6849 3.6849 0 0 1 0 540.62 L0.2 539.86 Z" class="st3"/>
			</g>
		</g>
		<g id="shape71-100" v:mID="71" v:groupContext="shape" transform="translate(310.536,-154.911)">
			<title>Rectangle.71</title>
			<v:userDefs>
				<v:ud v:nameU="visVersion" v:val="VT0(15):26"/>
			</v:userDefs>
			<path d="M0 541.09 L133.77 541.09 L133.77 468.01 L0 468.01 L0 541.09 Z" class="st12"/>
		</g>
		<g id="shape72-102" v:mID="72" v:groupContext="shape" transform="translate(329.393,-209.902)">
			<title>Sheet.72</title>
			<desc>Workload Subnet</desc>
			<v:textBlock v:margins="rect(4,4,4,4)"/>
			<v:textRect cx="56.2232" cy="531.523" width="112.45" height="19.125"/>
			<rect x="0" y="521.96" width="112.446" height="19.125" class="st5"/>
			<text x="4" y="534.52" class="st6" v:langID="1033"><v:paragraph/><v:tabList/>Workload Subnet</text>		</g>
		<g id="group73-105" transform="translate(315.679,-215.902)" v:mID="73" v:groupContext="group">
			<title>Sheet.73</title>
			<g id="group74-106" transform="translate(0,3.42857)" v:mID="74" v:groupContext="group">
				<title>Sheet.74</title>
				<g id="shape75-107" v:mID="75" v:groupContext="shape" transform="translate(7.28265,-7.11102)">
					<title>Sheet.75</title>
					<path d="M0.69 539.41 a0.97875 0.97875 -180 1 0 0.98025 0.975 a0.97875 0.97875 -180 0 0 -0.98025 -0.975 Z"
							class="st17"/>
				</g>
				<g id="group76-110" v:mID="76" v:groupContext="group">
					<title>Sheet.76</title>
					<g id="shape77-111" v:mID="77" v:groupContext="shape" transform="translate(386.736,913.129) rotate(134.919)">
						<title>Sheet.77</title>
						<path d="M2.22 535.53 L2.89 535.53 a0.213 0.213 0 0 1 0.213 0.213 L3.1 540.66 a0.426 0.426 0 0 1 -0.426 0.426
									 L2.01 541.09 L2.01 535.75 a0.213 0.213 0 0 1 0.213 -0.21375 Z" class="st10"/>
					</g>
					<g id="shape78-113" v:mID="78" v:groupContext="shape" transform="translate(382.064,148.712) rotate(44.919)">
						<title>Sheet.78</title>
						<path d="M2.18 535.61 L2.85 535.61 a0.213 0.213 0 0 1 0.213 0.213 L3.06 541.09 L2.4 541.09 a0.426 0.426 0
									 0 1 -0.426 -0.426 L1.97 535.82 a0.213 0.213 0 0 1 0.213 -0.213 L2.18 535.61 Z" class="st11"/>
					</g>
					<g id="shape79-115" v:mID="79" v:groupContext="shape" transform="translate(385.595,146.979) rotate(45.081)">
						<title>Sheet.79</title>
						<path d="M10.4 535.53 L11.07 535.53 a0.426 0.426 0 0 1 0.426 0.426 L11.49 540.87 a0.213 0.213 0 0 1 -0.213
									 0.213 L10.61 541.09 a0.213 0.213 0 0 1 -0.213 -0.213 L10.4 535.53 Z" class="st10"/>
					</g>
					<g id="shape80-117" v:mID="80" v:groupContext="shape" transform="translate(400.088,905.149) rotate(135.081)">
						<title>Sheet.80</title>
						<path d="M10.86 535.61 L11.53 535.61 L11.53 540.87 a0.213 0.213 0 0 1 -0.213 0.213 L10.65 541.09 a0.213 0.213
									 0 0 1 -0.213 -0.213 L10.44 536.04 a0.426 0.426 0 0 1 0.426 -0.426 L10.86 535.61 Z"
								class="st11"/>
					</g>
				</g>
			</g>
		</g>
		<g id="group81-119" transform="translate(359.393,-172.916)" v:mID="81" v:groupContext="group">
			<title>Icon-compute-28</title>
			<g id="shape82-120" v:mID="82" v:groupContext="shape" transform="translate(0,-7.63399)">
				<title>Sheet.82</title>
				<path d="M0 540.1 a0.989309 0.989309 -180 0 0 0.989286 0.989286 L28.69 541.09 a0.989309 0.989309 -180 0 0 0.989286
							 -0.989286 L29.68 522.29 a0.989309 0.989309 -180 0 0 -0.989286 -0.989286 L0.99 521.3 a0.989309 0.989309
							 -180 0 0 -0.989286 0.989286 L0 540.1 Z" class="st20"/>
			</g>
			<g id="shape83-124" v:mID="83" v:groupContext="shape" transform="translate(1.64881,-9.2828)">
				<title>Sheet.83</title>
				<path d="M0 540.54 a0.54412 0.54412 -180 0 0 0.544107 0.544107 L25.84 541.09 a0.54412 0.54412 -180 0 0 0.544107 -0.544107
							 L26.38 525.14 a0.54412 0.54412 -180 0 0 -0.544107 -0.544107 L0.54 524.6 a0.54412 0.54412 -180 0 0 -0.544107
							 0.544107 L0 540.54 Z" class="st3"/>
			</g>
			<g id="shape84-126" v:mID="84" v:groupContext="shape" transform="translate(14.8393,-11.756)">
				<title>Sheet.84</title>
				<path d="M4.95 532.43 L4.95 538.18 L0 541.09 L0 535.31 L4.95 532.43 Z" class="st21"/>
			</g>
			<g id="shape85-128" v:mID="85" v:groupContext="shape" transform="translate(9.89286,-17.5104)">
				<title>Sheet.85</title>
				<path d="M9.89 538.18 L4.95 541.09 L0 538.18 L4.95 535.3 L9.89 538.18 Z" class="st22"/>
			</g>
			<g id="shape86-130" v:mID="86" v:groupContext="shape" transform="translate(9.89286,-11.756)">
				<title>Sheet.86</title>
				<path d="M4.95 535.33 L4.95 541.09 L0 538.18 L0 532.43 L4.95 535.33 Z" class="st19"/>
			</g>
			<g id="shape87-132" v:mID="87" v:groupContext="shape" transform="translate(9.89286,-11.756)">
				<title>Sheet.87</title>
				<path d="M0 538.18 L4.95 535.31 L4.95 541.09 L0 538.18 Z" class="st23"/>
			</g>
			<g id="shape88-134" v:mID="88" v:groupContext="shape" transform="translate(14.8393,-11.756)">
				<title>Sheet.88</title>
				<path d="M4.95 538.18 L0 535.31 L0 541.09 L4.95 538.18 Z" class="st24"/>
			</g>
			<g id="shape89-136" v:mID="89" v:groupContext="shape" transform="translate(7.41964,0)">
				<title>Sheet.89</title>
				<path d="M13.36 539.44 C10.44 538.97 10.32 536.85 10.32 533.45 L4.5 533.45 C4.5 536.85 4.39 538.97 1.47 539.44 A1.64881
							 1.64881 -180 0 0 0 541.09 L14.84 541.09 A1.64881 1.64881 -180 0 0 13.36 539.44 Z" class="st25"/>
			</g>
		</g>
		<g id="shape90-140" v:mID="90" v:groupContext="shape" transform="translate(333.679,-157.487)">
			<title>Sheet.90</title>
			<desc>Client</desc>
			<v:textBlock v:margins="rect(4,4,4,4)"/>
			<v:textRect cx="38.25" cy="531.523" width="76.5" height="19.125"/>
			<rect x="0" y="521.96" width="76.5" height="19.125" class="st5"/>
			<text x="26.21" y="534.52" class="st6" v:langID="1033"><v:paragraph v:horizAlign="1"/><v:tabList/>Client</text>		</g>
		<g id="shape91-143" v:mID="91" v:groupContext="shape" transform="translate(18.25,-366.617)">
			<title>Sheet.91</title>
			<desc>Private DNS Zone privatelink.blob.core.windows.net</desc>
			<v:textBlock v:margins="rect(4,4,4,4)"/>
			<v:textRect cx="75.8571" cy="526.487" width="151.72" height="29.1964"/>
			<rect x="0" y="511.889" width="151.714" height="29.1964" class="st5"/>
			<text x="39.76" y="523.49" class="st6" v:langID="1033"><v:paragraph v:horizAlign="1"/><v:tabList/>Private DNS Zone<v:newlineChar/><tspan
						x="4.19" dy="1.2em" class="st16">privatelink.blob.core.windows.net</tspan></text>		</g>
		<g id="shape102-147" v:mID="102" v:groupContext="shape" transform="translate(135.996,-406.639)">
			<title>Sheet.102</title>
			<desc>Does not support linking</desc>
			<v:textBlock v:margins="rect(4,4,4,4)"/>
			<v:textRect cx="56.2232" cy="526.487" width="112.45" height="29.1964"/>
			<rect x="0" y="511.889" width="112.446" height="29.1964" class="st5"/>
			<text x="6.52" y="529.49" class="st26" v:langID="1033"><v:paragraph v:horizAlign="1"/><v:tabList/>Does not support linking</text>		</g>
		<g id="group103-150" transform="translate(40.2143,-306.835)" v:mID="103" v:groupContext="group">
			<title>Sheet.103</title>
			<g id="shape92-151" v:mID="92" v:groupContext="shape">
				<title>Sheet.92</title>
				<desc>Name Type Value stgworkload00 A 10.0.2.4</desc>
				<v:textBlock v:margins="rect(4,4,4,4)" v:verticalAlign="0"/>
				<v:textRect cx="103.688" cy="510.71" width="207.38" height="60.75"/>
				<rect x="0" y="480.335" width="207.375" height="60.75" class="st5"/>
				<text x="4" y="493.34" class="st27" v:langID="1033"><v:paragraph/><v:tabList/>Name              Type     Value<v:newlineChar/><tspan
							x="4" dy="1.2em" class="st16">stgworkload00     A        10.0.2.4</tspan></text>			</g>
			<g id="group97-155" transform="translate(3,-21.75)" v:mID="97" v:groupContext="group">
				<title>Sheet.97</title>
				<g id="shape95-156" v:mID="95" v:groupContext="shape" v:layerMember="0" transform="translate(0,-32.375)">
					<title>Dynamic connector</title>
					<v:userDefs>
						<v:ud v:nameU="visVersion" v:val="VT0(15):26"/>
					</v:userDefs>
					<path d="M0 549.84 L192.25 550.34" class="st28"/>
				</g>
				<g id="shape96-159" v:mID="96" v:groupContext="shape" v:layerMember="0" transform="translate(1.5625,-18)">
					<title>Dynamic connector.96</title>
					<v:userDefs>
						<v:ud v:nameU="visVersion" v:val="VT0(15):26"/>
					</v:userDefs>
					<path d="M0 549.84 L192.25 550.34" class="st28"/>
				</g>
			</g>
		</g>
		<g id="group119-162" transform="translate(551.714,-284.335)" v:mID="119" v:groupContext="group">
			<title>Sheet.119</title>
			<g id="shape120-163" v:mID="120" v:groupContext="shape">
				<title>Sheet.120</title>
				<path d="M8.44 524.21 C3.78 524.21 0 527.99 0 532.65 C0 537.31 3.78 541.09 8.44 541.09 C13.1 541.09 16.87 537.31
							 16.87 532.65 C16.87 532.65 16.87 532.65 16.87 532.65 C16.88 527.99 13.1 524.21 8.44 524.21 C8.44 524.21
							 8.44 524.21 8.44 524.21 ZM10.85 536.43 L6.02 536.43 L6.02 535.72 C6.02 535.43 6.08 535.13 6.19 534.86
							 C6.3 534.6 6.45 534.36 6.63 534.15 C6.83 533.92 7.05 533.72 7.29 533.54 C7.54 533.36 7.81 533.17 8.1
							 533 C8.35 532.85 8.58 532.69 8.79 532.5 C8.96 532.36 9.1 532.21 9.22 532.03 C9.32 531.89 9.4 531.73
							 9.44 531.56 C9.48 531.38 9.5 531.2 9.5 531.02 C9.5 530.87 9.47 530.71 9.43 530.57 C9.38 530.43 9.3 530.29
							 9.21 530.18 C9.11 530.06 8.98 529.97 8.84 529.91 C8.67 529.84 8.5 529.81 8.32 529.81 C7.97 529.81 7.63
							 529.89 7.32 530.05 C6.99 530.22 6.69 530.43 6.42 530.68 L6.42 529.53 C6.68 529.3 6.99 529.12 7.32 529.02
							 C7.68 528.91 8.05 528.86 8.43 528.86 C8.73 528.86 9.03 528.9 9.31 529 C9.58 529.08 9.82 529.21 10.04
							 529.38 C10.25 529.55 10.41 529.77 10.52 530.02 C10.65 530.29 10.71 530.58 10.7 530.88 C10.7 531.15 10.67
							 531.42 10.61 531.68 C10.55 531.92 10.44 532.16 10.31 532.37 C10.15 532.6 9.97 532.81 9.76 532.99 C9.5
							 533.22 9.22 533.43 8.93 533.61 C8.66 533.77 8.43 533.93 8.22 534.07 C8.04 534.2 7.86 534.34 7.69 534.5
							 C7.56 534.62 7.45 534.77 7.37 534.93 C7.29 535.09 7.25 535.26 7.26 535.43 L10.85 535.43 L10.85 536.43
							 Z" class="st29"/>
			</g>
		</g>
		<g id="group121-165" transform="translate(249.911,-287.149)" v:mID="121" v:groupContext="group">
			<title>Sheet.121</title>
			<g id="shape122-166" v:mID="122" v:groupContext="shape">
				<title>Sheet.122</title>
				<path d="M8.44 524.21 C3.78 524.21 0 527.99 0 532.65 C0 537.31 3.78 541.09 8.44 541.09 C13.1 541.09 16.87 537.31
							 16.87 532.65 C16.87 532.65 16.87 532.65 16.87 532.65 C16.88 527.99 13.1 524.21 8.44 524.21 C8.44 524.21
							 8.44 524.21 8.44 524.21 ZM10.67 535.21 C10.51 535.49 10.3 535.73 10.04 535.91 C9.76 536.1 9.44 536.25
							 9.11 536.33 C8.75 536.43 8.38 536.48 8 536.48 C7.62 536.48 7.25 536.44 6.87 536.38 C6.56 536.33 6.26
							 536.23 5.98 536.08 L5.98 534.94 C6.28 535.15 6.61 535.3 6.96 535.39 C7.31 535.49 7.67 535.54 8.04 535.54
							 C8.21 535.54 8.39 535.52 8.56 535.49 C8.75 535.45 8.92 535.39 9.08 535.3 C9.24 535.21 9.38 535.08 9.48
							 534.93 C9.59 534.75 9.65 534.54 9.64 534.33 C9.65 534.11 9.59 533.9 9.49 533.71 C9.39 533.54 9.24 533.4
							 9.07 533.3 C8.87 533.19 8.66 533.11 8.43 533.07 C8.17 533.02 7.91 532.99 7.64 532.99 L6.96 532.99 L6.96
							 532.05 L7.6 532.05 C7.84 532.05 8.08 532.03 8.31 531.98 C8.51 531.95 8.69 531.87 8.86 531.77 C9.01 531.67
							 9.14 531.54 9.22 531.38 C9.31 531.2 9.36 531 9.35 530.8 C9.36 530.62 9.32 530.44 9.23 530.28 C9.15 530.15
							 9.05 530.04 8.92 529.97 C8.79 529.89 8.66 529.84 8.51 529.81 C8.37 529.78 8.23 529.76 8.08 529.76 C7.77
							 529.77 7.47 529.81 7.17 529.9 C6.86 529.98 6.56 530.12 6.3 530.29 L6.3 529.25 C6.57 529.1 6.87 528.99
							 7.17 528.93 C7.51 528.85 7.85 528.82 8.19 528.82 C8.49 528.82 8.8 528.86 9.09 528.93 C9.37 528.99 9.63
							 529.1 9.87 529.26 C10.09 529.4 10.28 529.59 10.41 529.82 C10.55 530.06 10.62 530.34 10.61 530.62 C10.63
							 531.06 10.48 531.49 10.19 531.83 C9.88 532.16 9.47 532.38 9.03 532.47 C9.27 532.5 9.51 532.56 9.73 532.65
							 C9.95 532.74 10.15 532.86 10.33 533.02 C10.5 533.17 10.64 533.36 10.75 533.57 C10.85 533.78 10.9 534.02
							 10.9 534.26 C10.91 534.59 10.83 534.92 10.67 535.21 Z" class="st29"/>
			</g>
		</g>
		<g id="group125-168" transform="translate(395.714,-165.916)" v:mID="125" v:groupContext="group">
			<title>Sheet.125</title>
			<g id="shape126-169" v:mID="126" v:groupContext="shape">
				<title>Sheet.126</title>
				<path d="M8.44 524.21 C3.78 524.21 0 527.99 0 532.65 C0 537.31 3.78 541.09 8.44 541.09 C13.1 541.09 16.87 537.31
							 16.87 532.65 C16.87 532.65 16.87 532.65 16.87 532.65 C16.87 527.99 13.1 524.21 8.44 524.21 C8.44 524.21
							 8.44 524.21 8.44 524.21 ZM9.36 536.23 L8.08 536.23 L8.08 530.1 C7.97 530.17 7.86 530.25 7.74 530.31
							 C7.62 530.38 7.49 530.45 7.36 530.5 C7.23 530.55 7.08 530.6 6.93 530.65 C6.78 530.7 6.61 530.74 6.43
							 530.79 L6.43 529.76 C6.55 529.73 6.66 529.69 6.76 529.66 C6.86 529.62 6.96 529.59 7.06 529.55 C7.16
							 529.52 7.26 529.48 7.36 529.43 C7.45 529.39 7.55 529.35 7.65 529.31 C7.74 529.26 7.84 529.21 7.93 529.16
							 C8.03 529.11 8.13 529.06 8.22 529.01 C8.32 528.95 8.42 528.9 8.52 528.83 C8.63 528.77 8.73 528.71 8.83
							 528.65 L9.36 528.65 L9.36 536.23 Z" class="st29"/>
			</g>
		</g>
		<g id="group136-171" transform="translate(486.703,-121.586)" v:mID="136" v:groupContext="group">
			<title>Sheet.136</title>
			<g id="group137-172" v:mID="137" v:groupContext="group">
				<title>Sheet.137</title>
				<g id="shape138-173" v:mID="138" v:groupContext="shape" transform="translate(4.28747,-3.42002)">
					<title>Sheet.138</title>
					<path d="M3.76 536.88 L2.08 536.88 A2.10552 2.10552 -180 0 0 1.75 541.06 A2.25833 2.25833 0 0 1 1.78 540.27 A1.32931
								 1.32931 0 0 1 2.08 537.65 L3.77 537.65 A1.33306 1.33306 0 1 1 3.77 540.31 L3.3 540.31 A1.00308 1.00308
								 -180 0 0 3.21 540.73 a0.954329 0.954329 -180 0 0 0.0665593 0.350608 L3.77 541.09 A2.10552 2.10552
								 -180 1 0 3.77 536.88 L3.76 536.88 Z" class="st30"/>
				</g>
				<g id="shape139-177" v:mID="139" v:groupContext="shape" transform="translate(6.41214,-1.66885)">
					<title>Sheet.139</title>
					<path d="M4.07 536.91 A2.47863 2.47863 0 0 1 4.1 537.23 A2.16365 2.16365 0 0 1 4.05 537.69 A1.32931 1.32931 0
								 0 1 3.75 540.31 L2.06 540.31 A1.33306 1.33306 0 0 1 2.06 537.65 L2.52 537.65 a0.979641 0.979641
								 -180 0 0 0.0937455 -0.420917 a0.963704 0.963704 -180 0 0 -0.0665593 -0.351546 L2.06 536.88 A2.10552
								 2.10552 -180 0 0 2.06 541.09 L3.75 541.09 A2.10552 2.10552 -180 0 0 4.07 536.9 L4.07 536.91 Z"
							class="st31"/>
				</g>
				<g id="shape140-181" v:mID="140" v:groupContext="shape" transform="translate(0,-0.314045)">
					<title>Sheet.140</title>
					<path d="M5.23 540.62 L4.85 541.01 a0.264362 0.264362 0 0 1 -0.374982 0 L0.16 536.7 a0.5306 0.5306 0 0 1 -4.32987E-15
								 -0.749964 L0.55 535.57 L5.23 540.25 a0.258738 0.258738 0 0 1 -8.88178E-16 0.366545 L5.23 540.62
								 Z" class="st10"/>
				</g>
				<g id="shape141-183" v:mID="141" v:groupContext="shape" transform="translate(-8.44325E-14,-4.2656)">
					<title>Sheet.141</title>
					<path d="M4.77 535.66 L5.2 536.09 a0.264362 0.264362 0 0 1 6.21725E-15 0.374982 L0.59 541.09 L0.16 540.66 a0.5306
								 0.5306 0 0 1 -5.21805E-15 -0.749964 L4.39 535.66 a0.264362 0.264362 0 0 1 0.37217 0 Z"
							class="st11"/>
				</g>
				<g id="shape142-185" v:mID="142" v:groupContext="shape" transform="translate(11.5629,0)">
					<title>Sheet.142</title>
					<path d="M0.08 540.61 a0.258738 0.258738 0 0 1 -0.00562473 -0.366545 L0.08 540.24 L4.77 535.57 L5.16 535.96 a0.5306
								 0.5306 0 0 1 -8.88178E-16 0.749964 L0.83 541.01 a0.258738 0.258738 0 0 1 -0.366545 0.00562473 L0.46
								 541.01 L0.08 540.61 Z" class="st10"/>
				</g>
				<g id="shape143-187" v:mID="143" v:groupContext="shape" transform="translate(11.6004,-3.95718)">
					<title>Sheet.143</title>
					<path d="M0.88 535.66 L5.12 539.91 a0.527787 0.527787 0 0 1 -8.88178E-16 0.743402 L4.69 541.09 L0.08 536.46 a0.26905
								 0.26905 0 0 1 -1.13798E-15 -0.374982 L0.51 535.66 a0.264362 0.264362 0 0 1 0.37217 0 Z"
							class="st11"/>
				</g>
			</g>
		</g>
		<g id="shape144-189" v:mID="144" v:groupContext="shape" v:layerMember="0" transform="translate(365.714,-162.086)">
			<title>Dynamic connector.144</title>
			<v:userDefs>
				<v:ud v:nameU="visVersion" v:val="VT0(15):26"/>
			</v:userDefs>
			<path d="M9 541.09 L9 560.07" class="st32"/>
		</g>
		<g id="shape145-195" v:mID="145" v:groupContext="shape" v:layerMember="0" transform="translate(392.271,-111.086)">
			<title>Dynamic connector.145</title>
			<v:userDefs>
				<v:ud v:nameU="visVersion" v:val="VT0(15):26"/>
			</v:userDefs>
			<path d="M0 532.09 L135.98 532.09" class="st32"/>
		</g>
		<g id="shape147-200" v:mID="147" v:groupContext="shape" transform="translate(291.589,-307.303)">
			<title>Rectangle.147</title>
			<v:userDefs>
				<v:ud v:nameU="visVersion" v:val="VT0(15):26"/>
			</v:userDefs>
			<path d="M0 541.09 L169.06 541.09 L169.06 325.55 L0 325.55 L0 541.09 Z" class="st34"/>
		</g>
		<g id="group159-202" transform="translate(318.843,-312.765)" v:mID="159" v:groupContext="group">
			<title>Icon-networking-61.159</title>
			<g id="shape160-203" v:mID="160" v:groupContext="shape" transform="translate(11.8173,-8.36273)">
				<title>Sheet.160</title>
				<ellipse cx="1.02047" cy="540.065" rx="1.02047" ry="1.02047" class="st8"/>
			</g>
			<g id="shape161-206" v:mID="161" v:groupContext="shape" transform="translate(8.56237,-8.35393)">
				<title>Sheet.161</title>
				<ellipse cx="1.02047" cy="540.065" rx="1.02047" ry="1.02047" class="st9"/>
			</g>
			<g id="shape162-209" v:mID="162" v:groupContext="shape" transform="translate(5.30742,-8.35393)">
				<title>Sheet.162</title>
				<ellipse cx="1.02047" cy="540.065" rx="1.02047" ry="1.02047" class="st9"/>
			</g>
			<g id="shape163-212" v:mID="163" v:groupContext="shape" transform="translate(386.945,911.365) rotate(134.92)">
				<title>Sheet.163</title>
				<path d="M2.3 534.19 L3.12 534.19 a0.263915 0.263915 0 0 1 0.263915 0.263915 L3.39 540.56 a0.52783 0.52783 0 0 1
							 -0.52783 0.52783 L2.03 541.09 L2.03 534.45 a0.263915 0.263915 0 0 1 0.263915 -0.263915 Z" class="st10"/>
			</g>
			<g id="shape164-214" v:mID="164" v:groupContext="shape" transform="translate(382.071,147.142) rotate(44.92)">
				<title>Sheet.164</title>
				<path d="M2.25 534.29 L3.08 534.29 a0.263915 0.263915 0 0 1 0.263915 0.263915 L3.34 541.09 L2.52 541.09 a0.52783
							 0.52783 0 0 1 -0.52783 -0.52783 L1.99 534.55 a0.263915 0.263915 0 0 1 0.263915 -0.263915 Z"
						class="st11"/>
			</g>
			<g id="shape165-216" v:mID="165" v:groupContext="shape" transform="translate(386.189,144.711) rotate(45.08)">
				<title>Sheet.165</title>
				<path d="M12.45 534.19 L13.27 534.19 a0.52783 0.52783 0 0 1 0.52783 0.52783 L13.8 540.82 a0.263915 0.263915 0 0 1
							 -0.263915 0.263915 L12.71 541.09 a0.263915 0.263915 0 0 1 -0.263915 -0.263915 L12.45 534.19 Z"
						class="st10"/>
			</g>
			<g id="shape166-218" v:mID="166" v:groupContext="shape" transform="translate(403.8,901.176) rotate(135.08)">
				<title>Sheet.166</title>
				<path d="M13.03 534.29 L13.86 534.29 L13.86 540.82 a0.263915 0.263915 0 0 1 -0.263915 0.263915 L12.76 541.09 a0.263915
							 0.263915 0 0 1 -0.263915 -0.263915 L12.49 534.81 a0.52783 0.52783 0 0 1 0.52783 -0.52783 L13.03 534.29
							 Z" class="st11"/>
			</g>
		</g>
		<g id="shape167-220" v:mID="167" v:groupContext="shape" transform="translate(335.878,-311.908)">
			<title>Sheet.167</title>
			<desc>Virtual Hub Virtual Network (Microsoft managed)</desc>
			<v:textBlock v:margins="rect(4,4,4,4)"/>
			<v:textRect cx="66.8839" cy="531.523" width="133.77" height="19.125"/>
			<rect x="0" y="521.96" width="133.768" height="19.125" class="st5"/>
			<text x="4" y="528.52" class="st6" v:langID="1033"><v:paragraph/><v:tabList/>Virtual Hub Virtual Network <tspan x="4"
						dy="1.2em" class="st16">(Microsoft managed)</tspan></text>		</g>
		<g id="shape168-224" v:mID="168" v:groupContext="shape" transform="translate(309.234,-354.729)">
			<title>Rectangle.168</title>
			<v:userDefs>
				<v:ud v:nameU="visVersion" v:val="VT0(15):26"/>
			</v:userDefs>
			<path d="M0 541.09 L133.77 541.09 L133.77 452.71 L0 452.71 L0 541.09 Z" class="st12"/>
		</g>
		<g id="shape169-226" v:mID="169" v:groupContext="shape" transform="translate(335.521,-354.729)">
			<title>Sheet.169</title>
			<desc>Azure Firewall Subnet</desc>
			<v:textBlock v:margins="rect(4,4,4,4)"/>
			<v:textRect cx="56.2232" cy="531.523" width="112.45" height="19.125"/>
			<rect x="0" y="521.96" width="112.446" height="19.125" class="st5"/>
			<text x="10.84" y="534.52" class="st6" v:langID="1033"><v:paragraph v:horizAlign="1"/><v:tabList/>Azure Firewall Subnet</text>		</g>
		<g id="group170-229" transform="translate(326.843,-355.729)" v:mID="170" v:groupContext="group">
			<title>Sheet.170</title>
			<g id="shape171-230" v:mID="171" v:groupContext="shape" transform="translate(7.28265,-7.11102)">
				<title>Sheet.171</title>
				<path d="M0.69 539.41 a0.97875 0.97875 -180 1 0 0.98025 0.975 a0.97875 0.97875 -180 0 0 -0.98025 -0.975 Z"
						class="st17"/>
			</g>
			<g id="group172-233" v:mID="172" v:groupContext="group">
				<title>Sheet.172</title>
				<g id="shape173-234" v:mID="173" v:groupContext="shape" transform="translate(386.736,913.129) rotate(134.919)">
					<title>Sheet.173</title>
					<path d="M2.22 535.53 L2.89 535.53 a0.213 0.213 0 0 1 0.213 0.213 L3.1 540.66 a0.426 0.426 0 0 1 -0.426 0.426
								 L2.01 541.09 L2.01 535.75 a0.213 0.213 0 0 1 0.213 -0.21375 Z" class="st10"/>
				</g>
				<g id="shape174-236" v:mID="174" v:groupContext="shape" transform="translate(382.064,148.712) rotate(44.919)">
					<title>Sheet.174</title>
					<path d="M2.18 535.61 L2.85 535.61 a0.213 0.213 0 0 1 0.213 0.213 L3.06 541.09 L2.4 541.09 a0.426 0.426 0 0 1
								 -0.426 -0.426 L1.97 535.82 a0.213 0.213 0 0 1 0.213 -0.213 L2.18 535.61 Z" class="st11"/>
				</g>
				<g id="shape175-238" v:mID="175" v:groupContext="shape" transform="translate(385.595,146.979) rotate(45.081)">
					<title>Sheet.175</title>
					<path d="M10.4 535.53 L11.07 535.53 a0.426 0.426 0 0 1 0.426 0.426 L11.49 540.87 a0.213 0.213 0 0 1 -0.213 0.213
								 L10.61 541.09 a0.213 0.213 0 0 1 -0.213 -0.213 L10.4 535.53 Z" class="st10"/>
				</g>
				<g id="shape176-240" v:mID="176" v:groupContext="shape" transform="translate(400.088,905.149) rotate(135.081)">
					<title>Sheet.176</title>
					<path d="M10.86 535.61 L11.53 535.61 L11.53 540.87 a0.213 0.213 0 0 1 -0.213 0.213 L10.65 541.09 a0.213 0.213
								 0 0 1 -0.213 -0.213 L10.44 536.04 a0.426 0.426 0 0 1 0.426 -0.426 L10.86 535.61 Z" class="st11"/>
				</g>
			</g>
		</g>
		<g id="group177-242" transform="translate(361.948,-407.105)" v:mID="177" v:groupContext="group">
			<title>Icon-networking-84</title>
			<g id="shape178-243" v:mID="178" v:groupContext="shape" transform="translate(0,-3.86638)">
				<title>Sheet.178</title>
				<path d="M28.34 534.78 A6.39188 6.39188 -180 0 0 22.81 528.66 A8.02921 8.02921 -180 0 0 14.55 520.99 A8.23388 8.23388
							 -180 0 0 6.68 526.36 A7.58839 7.58839 -180 0 0 0 533.66 A7.71434 7.71434 -180 0 0 7.98 541.08 L8.67
							 541.08 L21.6 541.08 A2.29856 2.29856 -180 0 0 21.95 541.08 A6.45486 6.45486 -180 0 0 28.34 534.78 Z"
						class="st20"/>
			</g>
			<g id="shape179-246" v:mID="179" v:groupContext="shape" transform="translate(5.84086,0)">
				<title>Sheet.179</title>
				<path d="M16.66 532.57 a0.661229 0.661229 -180 0 0 -0.661229 -0.645486 L0.66 531.92 a0.661229 0.661229 -180 0 0 -0.661229
							 0.645486 L0 540.44 a0.661229 0.661229 -180 0 0 0.661229 0.645486 L16 541.09 a0.661229 0.661229 -180
							 0 0 0.661229 -0.645486 L16.66 532.57 Z" class="st35"/>
			</g>
			<g id="shape180-248" v:mID="180" v:groupContext="shape" transform="translate(6.76973,-6.25019)">
				<title>Sheet.180</title>
				<rect x="0" y="539.086" width="4.5184" height="1.99943" class="st36"/>
			</g>
			<g id="shape181-250" v:mID="181" v:groupContext="shape" transform="translate(11.9651,-6.25019)">
				<title>Sheet.181</title>
				<rect x="0" y="539.086" width="4.5184" height="1.99943" class="st37"/>
			</g>
			<g id="shape182-252" v:mID="182" v:groupContext="shape" transform="translate(17.1605,-6.25019)">
				<title>Sheet.182</title>
				<rect x="0" y="539.086" width="4.5184" height="1.99943" class="st36"/>
			</g>
			<g id="shape183-254" v:mID="183" v:groupContext="shape" transform="translate(6.76973,-3.57379)">
				<title>Sheet.183</title>
				<rect x="0" y="539.086" width="1.87348" height="1.99943" class="st36"/>
			</g>
			<g id="shape184-256" v:mID="184" v:groupContext="shape" transform="translate(19.8054,-3.57379)">
				<title>Sheet.184</title>
				<rect x="0" y="539.086" width="1.87348" height="1.99943" class="st37"/>
			</g>
			<g id="shape185-258" v:mID="185" v:groupContext="shape" transform="translate(9.32018,-3.57379)">
				<title>Sheet.185</title>
				<rect x="0" y="539.086" width="4.5184" height="1.99943" class="st37"/>
			</g>
			<g id="shape186-260" v:mID="186" v:groupContext="shape" transform="translate(14.5313,-3.57379)">
				<title>Sheet.186</title>
				<rect x="0" y="539.086" width="4.5184" height="1.99943" class="st36"/>
			</g>
			<g id="shape187-262" v:mID="187" v:groupContext="shape" transform="translate(6.76973,-0.897383)">
				<title>Sheet.187</title>
				<rect x="0" y="539.086" width="4.5184" height="1.99943" class="st36"/>
			</g>
			<g id="shape188-264" v:mID="188" v:groupContext="shape" transform="translate(11.9651,-0.897383)">
				<title>Sheet.188</title>
				<rect x="0" y="539.086" width="4.5184" height="1.99943" class="st37"/>
			</g>
			<g id="shape189-266" v:mID="189" v:groupContext="shape" transform="translate(17.1605,-0.897383)">
				<title>Sheet.189</title>
				<rect x="0" y="539.086" width="4.5184" height="1.99943" class="st36"/>
			</g>
		</g>
		<g id="shape190-268" v:mID="190" v:groupContext="shape" transform="translate(324.843,-384.98)">
			<title>Sheet.190</title>
			<desc>Azure Firewall DNS Proxy Enabled</desc>
			<v:textBlock v:margins="rect(4,4,4,4)"/>
			<v:textRect cx="56.2232" cy="531.523" width="112.45" height="19.125"/>
			<rect x="0" y="521.96" width="112.446" height="19.125" class="st5"/>
			<text x="26.63" y="528.52" class="st6" v:langID="1033"><v:paragraph v:horizAlign="1"/><v:tabList/>Azure Firewall<v:newlineChar/><tspan
						x="24.57" dy="1.5em" class="st38">DNS Proxy Enabled</tspan></text>		</g>
		<g id="group191-272" transform="translate(348.328,-470.313)" v:mID="191" v:groupContext="group">
			<title>Sheet.191</title>
			<g id="group192-273" v:mID="192" v:groupContext="group">
				<title>Sheet.192</title>
				<g id="shape193-274" v:mID="193" v:groupContext="shape" transform="translate(0,-11.9735)">
					<title>Sheet.193</title>
					<path d="M44.25 531.19 A10.0317 10.0317 -180 0 0 35.66 521.56 A12.6789 12.6789 -180 0 0 22.65 509.59 A13.0433
								 13.0433 -180 0 0 10.41 517.92 A12.2156 12.2156 -180 0 0 0 529.37 A12.0048 12.0048 -180 0 0 12.49
								 541.09 L34.36 541.09 A9.89118 9.89118 -180 0 0 44.25 531.19 Z" class="st39"/>
				</g>
				<g id="shape194-278" v:mID="194" v:groupContext="shape" transform="translate(10.6721,-2.27374E-13)">
					<title>Sheet.194</title>
					<ellipse cx="11.4529" cy="529.632" rx="11.4529" ry="11.4529" class="st40"/>
				</g>
				<g id="shape195-280" v:mID="195" v:groupContext="shape" transform="translate(11.9735,-1.30147)">
					<title>Sheet.195</title>
					<path d="M19.78 523.65 A11.9735 11.9735 -180 0 0 3.12 521.3 A11.872 11.872 -180 1 0 17.7 540.04 A11.8616 11.8616
								 -180 0 0 19.78 523.65 ZM0 530.15 A12.252 12.252 0 0 1 1.04 525.99 L3.9 525.99 A20.2301 20.2301 -180
								 0 0 3.38 530.15 L0 530.15 ZM5.47 525.99 L9.37 525.99 L9.37 530.15 L4.95 530.15 A20.2301 20.2301
								 0 0 1 5.47 525.99 ZM10.93 525.99 L14.84 525.99 A20.2301 20.2301 0 0 1 15.36 530.15 L10.93 530.15
								 L10.93 525.99 ZM9.63 531.45 L9.63 535.62 L5.47 535.62 L4.69 531.71 L9.63 531.45 ZM10.93 531.45 L15.62
								 531.45 A25.9539 25.9539 0 0 1 15.1 535.62 L10.93 535.62 L10.93 531.45 ZM17.18 531.45 L20.56 531.45
								 A12.252 12.252 0 0 1 19.52 535.62 L16.66 535.62 A20.2301 20.2301 -180 0 0 17.18 531.45 ZM17.18 530.15
								 A25.9539 25.9539 -180 0 0 16.66 525.99 L19.52 525.99 A10.9141 10.9141 0 0 1 20.56 530.15 L17.18
								 530.15 ZM18.48 524.43 L16.14 524.43 A11.7132 11.7132 -180 0 0 14.58 521.3 A11.5258 11.5258 0 0 1
								 18.48 524.43 ZM14.58 524.43 L10.93 524.43 L10.93 520.78 A5.65099 5.65099 0 0 1 14.58 524.43 ZM9.63
								 520.78 L9.63 524.69 L5.99 524.69 A5.51303 5.51303 0 0 1 9.63 520.78 ZM3.9 522.6 A14.5296 14.5296
								 0 0 1 5.99 521.3 A8.06912 8.06912 -180 0 0 4.43 524.69 L2.08 524.69 A7.02794 7.02794 0 0 1 3.9 522.6
								 ZM0 531.71 L3.38 531.71 A25.9539 25.9539 -180 0 0 3.9 535.88 L1.04 535.88 A13.9231 13.9231 0 0 1
								 0 531.71 ZM2.08 537.18 L4.42 537.18 L5.99 540.3 A9.08687 9.08687 0 0 1 2.08 537.18 ZM5.99 537.18
								 L9.37 537.18 L9.37 541.09 A6.33296 6.33296 0 0 1 5.99 537.18 ZM10.93 541.09 L10.93 537.18 L14.32
								 537.18 A5.12259 5.12259 0 0 1 10.93 541.09 ZM16.66 539 A6.82491 6.82491 0 0 1 14.32 540.3 A8.79534
								 8.79534 -180 0 0 15.88 537.18 L18.22 537.18 A3.49835 3.49835 0 0 1 16.66 539 Z" class="st21"/>
				</g>
				<g id="shape196-282" v:mID="196" v:groupContext="shape" transform="translate(6.24706,-15.3574)">
					<title>Sheet.196</title>
					<path d="M5.73 541.09 A10.4768 10.4768 0 0 1 0 533.54 A9.49032 9.49032 0 0 1 3.9 525.99 L5.47 524.69 L6.77 526.25
								 L5.21 527.55 A6.53078 6.53078 -180 0 0 2.08 533.28 A7.88951 7.88951 -180 0 0 6.77 539.26 L5.73 541.09
								 Z" class="st41"/>
				</g>
				<g id="shape197-284" v:mID="197" v:groupContext="shape" transform="translate(9.63088,-28.1118)">
					<title>Sheet.197</title>
					<ellipse cx="2.86324" cy="538.222" rx="2.86324" ry="2.86324" class="st40"/>
				</g>
				<g id="shape198-286" v:mID="198" v:groupContext="shape" transform="translate(30.7147,-15.3574)">
					<title>Sheet.198</title>
					<path d="M1.04 541.09 L0 539.26 A8.48299 8.48299 -180 0 0 4.69 533.28 A7.15288 7.15288 -180 0 0 1.56 527.55 L0
								 526.51 L1.3 524.95 L2.86 525.99 A7.99363 7.99363 0 0 1 6.77 533.54 A10.4768 10.4768 0 0 1 1.04 541.09
								 Z" class="st41"/>
				</g>
				<g id="shape199-288" v:mID="199" v:groupContext="shape" transform="translate(28.6324,-28.1118)">
					<title>Sheet.199</title>
					<ellipse cx="2.86324" cy="538.222" rx="2.86324" ry="2.86324" class="st40"/>
				</g>
				<g id="shape200-290" v:mID="200" v:groupContext="shape" transform="translate(9.63088,-13.275)">
					<title>Sheet.200</title>
					<ellipse cx="2.86324" cy="538.222" rx="2.86324" ry="2.86324" class="st42"/>
				</g>
				<g id="shape201-292" v:mID="201" v:groupContext="shape" transform="translate(28.6324,-13.275)">
					<title>Sheet.201</title>
					<ellipse cx="2.86324" cy="538.222" rx="2.86324" ry="2.86324" class="st42"/>
				</g>
			</g>
		</g>
		<g id="shape202-294" v:mID="202" v:groupContext="shape" transform="translate(326.271,-450.725)">
			<title>Sheet.202</title>
			<desc>Virtual Hub</desc>
			<v:textBlock v:margins="rect(4,4,4,4)"/>
			<v:textRect cx="44.1818" cy="531.523" width="88.37" height="19.125"/>
			<rect x="0" y="521.96" width="88.3636" height="19.125" class="st5"/>
			<text x="20.46" y="534.52" class="st6" v:langID="1033"><v:paragraph v:horizAlign="1"/><v:tabList/>Virtual Hub</text>		</g>
		<g id="shape203-297" v:mID="203" v:groupContext="shape" v:layerMember="0" transform="translate(385.319,-233.921)">
			<title>Dynamic connector.203</title>
			<v:userDefs>
				<v:ud v:nameU="visVersion" v:val="VT0(15):26"/>
			</v:userDefs>
			<path d="M-8.8 541.09 L-9.2 467.7" class="st28"/>
		</g>
		<g id="shape204-300" v:mID="204" v:groupContext="shape" transform="translate(915.675,226.886) rotate(90)">
			<title>Sheet.204</title>
			<desc>VNet Connection</desc>
			<v:textBlock v:margins="rect(4,4,4,4)"/>
			<v:textRect cx="44.1818" cy="531.523" width="88.37" height="19.125"/>
			<rect x="0" y="521.96" width="88.3636" height="19.125" class="st5"/>
			<text x="8.91" y="534.52" class="st6" v:langID="1033"><v:paragraph v:horizAlign="1"/><v:tabList/>VNet Connection</text>		</g>
		<g id="shape206-303" v:mID="206" v:groupContext="shape" v:layerMember="0" transform="translate(306.589,-351.835)">
			<title>Dynamic connector.111</title>
			<v:userDefs>
				<v:ud v:nameU="visVersion" v:val="VT0(15):26"/>
			</v:userDefs>
			<path d="M9 544.25 L9 544.61 L9 658.09" class="st43"/>
		</g>
		<g id="shape361-309" v:mID="361" v:groupContext="shape" transform="translate(-220.3,325.184) rotate(-90)">
			<title>Sheet.361</title>
			<desc>configured DNS server</desc>
			<v:textBlock v:margins="rect(4,4,4,4)"/>
			<v:textRect cx="75.8571" cy="526.487" width="151.72" height="29.1964"/>
			<rect x="0" y="511.889" width="151.714" height="29.1964" class="st5"/>
			<text x="30.43" y="529.49" class="st44" v:langID="1033"><v:paragraph v:horizAlign="1"/><v:tabList/>configured DNS server</text>		</g>
		<g id="shape362-312" v:mID="362" v:groupContext="shape" v:layerMember="0" transform="translate(122.839,-423.952)">
			<title>Dynamic connector</title>
			<v:userDefs>
				<v:ud v:nameU="visVersion" v:val="VT0(15):26"/>
			</v:userDefs>
			<path d="M0 549.97 L133.98 550.19" class="st45"/>
		</g>
		<g id="shape363-318" v:mID="363" v:groupContext="shape" transform="translate(261.344,-391.802)">
			<title>Sheet.363</title>
			<desc>X</desc>
			<v:textBlock v:margins="rect(4,4,4,4)"/>
			<v:textRect cx="27" cy="518.585" width="54" height="45"/>
			<rect x="0" y="496.085" width="54" height="45" class="st5"/>
			<text x="4" y="527.59" class="st47" v:langID="1033"><v:paragraph/><v:tabList/>X</text>		</g>
		<g id="shape364-321" v:mID="364" v:groupContext="shape" transform="translate(135.589,-393.378)">
			<title>Sheet.364</title>
			<desc>to VWan Virtual Hub</desc>
			<v:textBlock v:margins="rect(4,4,4,4)"/>
			<v:textRect cx="56.2232" cy="526.487" width="112.45" height="29.1964"/>
			<rect x="0" y="511.889" width="112.446" height="29.1964" class="st5"/>
			<text x="14.27" y="529.49" class="st26" v:langID="1033"><v:paragraph v:horizAlign="1"/><v:tabList/>to VWan Virtual Hub</text>		</g>
		<g id="shape365-324" v:mID="365" v:groupContext="shape" transform="translate(419.089,-386.335)">
			<title>Circle.277</title>
			<v:userDefs>
				<v:ud v:nameU="visVersion" v:val="VT0(15):26"/>
			</v:userDefs>
			<path d="M0 538.84 A2.25 2.25 0 0 1 4.5 538.84 A2.25 2.25 0 1 1 0 538.84 Z" class="st5"/>
		</g>
		<g id="shape366-326" v:mID="366" v:groupContext="shape" transform="translate(393.589,-186.086)">
			<title>Circle.366</title>
			<v:userDefs>
				<v:ud v:nameU="visVersion" v:val="VT0(15):26"/>
			</v:userDefs>
			<path d="M0 538.84 A2.25 2.25 0 0 1 4.5 538.84 A2.25 2.25 0 1 1 0 538.84 Z" class="st5"/>
		</g>
		<g id="shape367-328" v:mID="367" v:groupContext="shape" v:layerMember="0" transform="translate(421.339,-390.835)">
			<title>Dynamic connector.129</title>
			<v:userDefs>
				<v:ud v:nameU="visVersion" v:val="VT0(15):26"/>
			</v:userDefs>
			<path d="M3.16 541.09 L3.52 541.09 L123.75 541.09 L123.75 741.99 L-27.09 741.99" class="st48"/>
		</g>
		<g id="shape369-333" v:mID="369" v:groupContext="shape" transform="translate(340.339,-387.835)">
			<title>Circle.369</title>
			<v:userDefs>
				<v:ud v:nameU="visVersion" v:val="VT0(15):26"/>
			</v:userDefs>
			<path d="M0 538.84 A2.25 2.25 0 0 1 4.5 538.84 A2.25 2.25 0 1 1 0 538.84 Z" class="st5"/>
		</g>
		<g id="shape370-335" v:mID="370" v:groupContext="shape" transform="translate(348.125,-185.126)">
			<title>Circle.370</title>
			<v:userDefs>
				<v:ud v:nameU="visVersion" v:val="VT0(15):26"/>
			</v:userDefs>
			<path d="M0 538.84 A2.25 2.25 0 0 1 4.5 538.84 A2.25 2.25 0 1 1 0 538.84 Z" class="st5"/>
		</g>
		<g id="shape371-337" v:mID="371" v:groupContext="shape" v:layerMember="0" transform="translate(336.357,-392.335)">
			<title>Dynamic connector.134</title>
			<v:userDefs>
				<v:ud v:nameU="visVersion" v:val="VT0(15):26"/>
			</v:userDefs>
			<path d="M6.23 541.09 L-65.77 541.09 L-65.77 746.05 L8.25 746.05" class="st32"/>
		</g>
		<g id="shape372-342" v:mID="372" v:groupContext="shape" transform="translate(362.964,-128.335)">
			<title>Sheet.372</title>
			<desc>X</desc>
			<v:textBlock v:margins="rect(4,4,4,4)"/>
			<v:textRect cx="27" cy="518.585" width="54" height="45"/>
			<rect x="0" y="496.085" width="54" height="45" class="st5"/>
			<text x="4" y="527.59" class="st47" v:langID="1033"><v:paragraph/><v:tabList/>X</text>		</g>
		<g id="shape373-345" v:mID="373" v:groupContext="shape" transform="translate(452.839,-96.3303)">
			<title>Sheet.373</title>
			<desc>X</desc>
			<v:textBlock v:margins="rect(4,4,4,4)"/>
			<v:textRect cx="27" cy="518.585" width="54" height="45"/>
			<rect x="0" y="496.085" width="54" height="45" class="st5"/>
			<text x="4" y="527.59" class="st47" v:langID="1033"><v:paragraph/><v:tabList/>X</text>		</g>
		<g id="group374-348" transform="translate(348.714,-135.835)" v:mID="374" v:groupContext="group">
			<title>Sheet.374</title>
			<g id="shape375-349" v:mID="375" v:groupContext="shape" transform="translate(6.51024,-7.55355)">
				<title>Sheet.375</title>
				<path d="M1.03 539.76 C0.86 540.01 0.69 540.24 0.52 540.45 C0.36 540.66 0.18 540.87 0 541.09 L2.21 541.09 L2.21 537.86
							 C1.98 538.26 1.77 538.62 1.58 538.93 C1.39 539.24 1.21 539.51 1.03 539.76 Z" class="st29"/>
			</g>
			<g id="shape376-351" v:mID="376" v:groupContext="shape">
				<title>Sheet.376</title>
				<path d="M8.44 524.21 C3.78 524.21 0 527.99 0 532.65 C0 537.31 3.78 541.09 8.44 541.09 C13.1 541.09 16.87 537.31
							 16.87 532.65 C16.87 532.65 16.87 532.65 16.87 532.65 C16.88 527.99 13.1 524.21 8.44 524.21 C8.44 524.21
							 8.44 524.21 8.44 524.21 ZM11.01 534.6 L10 534.6 L10 536.19 L8.72 536.19 L8.72 534.6 L5.25 534.6 L5.25
							 533.59 C5.59 533.22 5.93 532.82 6.26 532.41 C6.59 532 6.9 531.58 7.19 531.15 C7.48 530.73 7.75 530.31
							 8 529.89 C8.25 529.47 8.47 529.06 8.66 528.67 L10 528.67 L10 533.53 L11.01 533.53 L11.01 534.6 Z"
						class="st29"/>
			</g>
		</g>
	</g>
</svg>
