<?xml version="1.0" encoding="UTF-8" standalone="no"?>
<!DOCTYPE svg PUBLIC "-//W3C//DTD SVG 1.1//EN" "http://www.w3.org/Graphics/SVG/1.1/DTD/svg11.dtd">
<!-- Generated by Microsoft Visio, SVG Export dns-private-endpoints-vwan-baseline-architecture.svg Baseline Architecture -->
<svg xmlns="http://www.w3.org/2000/svg" xmlns:xlink="http://www.w3.org/1999/xlink" xmlns:ev="http://www.w3.org/2001/xml-events"
		xmlns:v="http://schemas.microsoft.com/visio/2003/SVGExtensions/" width="6.53819in" height="4.12551in"
		viewBox="0 0 470.75 297.037" xml:space="preserve" color-interpolation-filters="sRGB" class="st33">
	<v:documentProperties v:langID="1033" v:viewMarkup="false">
		<v:userDefs>
			<v:ud v:nameU="msvNoAutoConnect" v:val="VT0(0):26"/>
			<v:ud v:nameU="msvWarnOnPersonalInfo" v:val="VT0(0):5"/>
		</v:userDefs>
	</v:documentProperties>

	<style type="text/css">
	<![CDATA[
		.st1 {fill:#ffffff;stroke:none;stroke-width:0.25}
		.st2 {fill:#d8d8d8;stroke:none;stroke-width:0.25}
		.st3 {fill:#ffffff;stroke:#90aadb;stroke-width:0.25}
		.st4 {fill:url(#grad0-12);stroke:none;stroke-linecap:butt;stroke-width:0.75}
		.st5 {fill:#f2f2f2;stroke:none;stroke-linecap:butt;stroke-width:0.75}
		.st6 {fill:#0078d4;stroke:none;stroke-linecap:butt;stroke-width:0.75}
		.st7 {fill:#e6e6e6;stroke:none;stroke-linecap:butt;stroke-width:0.75}
		.st8 {fill:#ce74b6;stroke:none;stroke-linecap:butt;stroke-width:0.75}
		.st9 {fill:none;stroke:none;stroke-width:0.25}
		.st10 {fill:#5b9bd5;font-family:Calibri;font-size:0.833336em;font-weight:bold}
		.st11 {fill:url(#grad0-39);stroke:none;stroke-linecap:butt;stroke-width:0.75}
		.st12 {fill:#821010;stroke:none;stroke-linecap:butt;stroke-width:0.75}
		.st13 {fill:#e62323;stroke:none;stroke-linecap:butt;stroke-width:0.75}
		.st14 {fill:#ff7381;stroke:none;stroke-linecap:butt;stroke-width:0.75}
		.st15 {fill:#9cebff;stroke:none;stroke-linecap:butt;stroke-width:0.75}
		.st16 {fill:#86d633;stroke:none;stroke-linecap:butt;stroke-width:0.75}
		.st17 {fill:url(#grad0-71);stroke:none;stroke-linecap:butt;stroke-width:0.75}
		.st18 {fill:url(#grad0-77);stroke:none;stroke-linecap:butt;stroke-width:0.75}
		.st19 {fill:#ffffff;stroke:none;stroke-linecap:butt;stroke-width:0.75}
		.st20 {fill:#ffffff;fill-opacity:0.8;stroke:none;stroke-linecap:butt;stroke-width:0.75}
		.st21 {fill:url(#grad0-87);stroke:none;stroke-linecap:butt;stroke-width:0.75}
		.st22 {fill:url(#grad0-91);stroke:none;stroke-linecap:butt;stroke-width:0.75}
		.st23 {fill:#50e6ff;stroke:none;stroke-linecap:butt;stroke-width:0.75}
		.st24 {fill:#1490df;stroke:none;stroke-linecap:butt;stroke-width:0.75}
		.st25 {stroke:#4672c4;stroke-linecap:round;stroke-linejoin:round;stroke-width:1}
		.st26 {stroke:#4672c4;stroke-dasharray:7,5;stroke-linecap:round;stroke-linejoin:round;stroke-width:1}
		.st27 {stroke:#4672c4;stroke-dasharray:0,5;stroke-linecap:round;stroke-linejoin:round;stroke-width:1}
		.st28 {fill:#ffffff;stroke:#90aadb;stroke-dasharray:1.75,1.25;stroke-width:0.25}
		.st29 {fill:#000000;font-family:Calibri;font-size:0.666664em}
		.st30 {font-size:1em}
		.st31 {fill:#5b9bd5;font-family:Calibri;font-size:0.499992em}
		.st32 {fill:#5b9bd5;font-family:Calibri;font-size:0.666664em;font-weight:bold}
		.st33 {fill:none;fill-rule:evenodd;font-size:12px;overflow:visible;stroke-linecap:square;stroke-miterlimit:3}
	]]>
	</style>

	<defs id="Patterns_And_Gradients">
		<linearGradient id="grad0-12" x1="0" y1="0" x2="1" y2="0" gradientTransform="rotate(-90 0.5 0.5)">
			<stop offset="0" stop-color="#198ab3" stop-opacity="1"/>
			<stop offset="0.11" stop-color="#22a5cb" stop-opacity="1"/>
			<stop offset="0.23" stop-color="#29bade" stop-opacity="1"/>
			<stop offset="0.37" stop-color="#2ec9eb" stop-opacity="1"/>
			<stop offset="0.53" stop-color="#31d1f3" stop-opacity="1"/>
			<stop offset="0.78" stop-color="#32d4f5" stop-opacity="1"/>
		</linearGradient>
		<linearGradient id="grad0-39" x1="0" y1="0" x2="1" y2="0" gradientTransform="rotate(-90 0.5 0.5)">
			<stop offset="0" stop-color="#0078d4" stop-opacity="1"/>
			<stop offset="0.82" stop-color="#5ea0ef" stop-opacity="1"/>
		</linearGradient>
		<linearGradient id="grad0-71" x1="0" y1="0" x2="1" y2="0" gradientTransform="rotate(-90 0.5 0.5)">
			<stop offset="0" stop-color="#0078d4" stop-opacity="1"/>
			<stop offset="0.775" stop-color="#5ea0ef" stop-opacity="1"/>
		</linearGradient>
		<linearGradient id="grad0-77" x1="0" y1="0" x2="1" y2="0" gradientTransform="rotate(90 0.5 0.5)">
			<stop offset="0" stop-color="#ffffff" stop-opacity="1"/>
			<stop offset="1" stop-color="#ffffff" stop-opacity="1"/>
		</linearGradient>
		<linearGradient id="grad0-87" x1="0" y1="0" x2="1" y2="0" gradientTransform="rotate(44.92 0.5 0.5)">
			<stop offset="0" stop-color="#86d633" stop-opacity="1"/>
			<stop offset="1" stop-color="#5e9624" stop-opacity="1"/>
		</linearGradient>
		<linearGradient id="grad0-91" x1="0" y1="0" x2="1" y2="0" gradientTransform="rotate(45.175215904905 0.5 0.5)">
			<stop offset="0" stop-color="#86d633" stop-opacity="1"/>
			<stop offset="1" stop-color="#5e9624" stop-opacity="1"/>
		</linearGradient>
	</defs>
	<g v:mID="27" v:index="1" v:groupContext="backgroundPage">
		<v:userDefs>
			<v:ud v:nameU="msvThemeOrder" v:val="VT0(0):26"/>
			<v:ud v:nameU="msvVisioCreated" v:prompt="" v:val="VT0(0):26"/>
		</v:userDefs>
		<title>VBackground-1</title>
		<v:pageProperties width="6.53819" height="4.12551" v:drawingScale="1" v:pageScale="1" v:drawingUnits="19"
				v:shadowOffsetX="9" v:shadowOffsetY="-9"/>
		<g id="shape1000-1" v:mID="1000" v:groupContext="shape">
			<title>Solid.1000</title>
			<v:userDefs>
				<v:ud v:nameU="Background" v:val="VT0(0):26"/>
				<v:ud v:nameU="visVersion" v:val="VT0(15):26"/>
				<v:ud v:nameU="msvShapeCategories" v:prompt="" v:val="VT4(DoNotContain)"/>
				<v:ud v:nameU="msvVisioCreated" v:prompt="" v:val="VT0(0):26"/>
			</v:userDefs>
			<rect x="0" y="-5.68434E-14" width="470.75" height="297.037" class="st1"/>
		</g>
	</g>
	<g v:mID="9" v:index="9" v:groupContext="foregroundPage">
		<v:userDefs>
			<v:ud v:nameU="msvThemeOrder" v:val="VT0(0):26"/>
		</v:userDefs>
		<title>Baseline Architecture</title>
		<v:pageProperties v:drawingScale="1" v:pageScale="1" v:drawingUnits="19" v:shadowOffsetX="9" v:shadowOffsetY="-9"/>
		<v:layer v:name="Connector" v:index="0"/>
		<g id="shape34-3" v:mID="34" v:groupContext="shape" transform="translate(18.25,-32.3125)">
			<title>Rectangle</title>
			<v:userDefs>
				<v:ud v:nameU="visVersion" v:val="VT0(15):26"/>
			</v:userDefs>
			<rect x="0" y="146.287" width="187" height="150.75" class="st2"/>
		</g>
		<g id="shape56-5" v:mID="56" v:groupContext="shape" transform="translate(54.25,-111.062)">
			<title>Rectangle.168</title>
			<v:userDefs>
				<v:ud v:nameU="visVersion" v:val="VT0(15):26"/>
			</v:userDefs>
			<rect x="0" y="249.787" width="90" height="47.25" class="st3"/>
		</g>
		<g id="group1-7" transform="translate(222.05,-234.812)" v:mID="1" v:groupContext="group">
			<title>Sheet.1</title>
			<g id="group2-8" v:mID="2" v:groupContext="group">
				<title>Sheet.2</title>
				<g id="shape3-9" v:mID="3" v:groupContext="shape" transform="translate(0,-11.9735)">
					<title>Sheet.3</title>
					<path d="M44.25 287.15 A10.0317 10.0317 -180 0 0 35.66 277.51 A12.6789 12.6789 -180 0 0 22.65 265.54 A13.0433
								 13.0433 -180 0 0 10.41 273.87 A12.2156 12.2156 -180 0 0 0 285.32 A12.0048 12.0048 -180 0 0 12.49
								 297.04 L34.36 297.04 A9.89118 9.89118 -180 0 0 44.25 287.15 Z" class="st4"/>
				</g>
				<g id="shape4-13" v:mID="4" v:groupContext="shape" transform="translate(10.6721,-1.7053E-13)">
					<title>Sheet.4</title>
					<ellipse cx="11.4529" cy="285.584" rx="11.4529" ry="11.4529" class="st5"/>
				</g>
				<g id="shape5-15" v:mID="5" v:groupContext="shape" transform="translate(11.9735,-1.30147)">
					<title>Sheet.5</title>
					<path d="M19.78 279.6 A11.9735 11.9735 -180 0 0 3.12 277.25 A11.872 11.872 -180 1 0 17.7 296 A11.8616 11.8616
								 -180 0 0 19.78 279.6 ZM0 286.1 A12.252 12.252 0 0 1 1.04 281.94 L3.9 281.94 A20.2301 20.2301 -180
								 0 0 3.38 286.1 L0 286.1 ZM5.47 281.94 L9.37 281.94 L9.37 286.1 L4.95 286.1 A20.2301 20.2301 0 0
								 1 5.47 281.94 ZM10.93 281.94 L14.84 281.94 A20.2301 20.2301 0 0 1 15.36 286.1 L10.93 286.1 L10.93
								 281.94 ZM9.63 287.41 L9.63 291.57 L5.47 291.57 L4.69 287.67 L9.63 287.41 ZM10.93 287.41 L15.62 287.41
								 A25.9539 25.9539 0 0 1 15.1 291.57 L10.93 291.57 L10.93 287.41 ZM17.18 287.41 L20.56 287.41 A12.252
								 12.252 0 0 1 19.52 291.57 L16.66 291.57 A20.2301 20.2301 -180 0 0 17.18 287.41 ZM17.18 286.1 A25.9539
								 25.9539 -180 0 0 16.66 281.94 L19.52 281.94 A10.9141 10.9141 0 0 1 20.56 286.1 L17.18 286.1 ZM18.48
								 280.38 L16.14 280.38 A11.7132 11.7132 -180 0 0 14.58 277.25 A11.5258 11.5258 0 0 1 18.48 280.38
								 ZM14.58 280.38 L10.93 280.38 L10.93 276.73 A5.65099 5.65099 0 0 1 14.58 280.38 ZM9.63 276.73 L9.63
								 280.64 L5.99 280.64 A5.51303 5.51303 0 0 1 9.63 276.73 ZM3.9 278.56 A14.5296 14.5296 0 0 1 5.99
								 277.25 A8.06912 8.06912 -180 0 0 4.43 280.64 L2.08 280.64 A7.02794 7.02794 0 0 1 3.9 278.56 ZM0
								 287.67 L3.38 287.67 A25.9539 25.9539 -180 0 0 3.9 291.83 L1.04 291.83 A13.9231 13.9231 0 0 1 0 287.67
								 ZM2.08 293.13 L4.42 293.13 L5.99 296.26 A9.08687 9.08687 0 0 1 2.08 293.13 ZM5.99 293.13 L9.37 293.13
								 L9.37 297.04 A6.33296 6.33296 0 0 1 5.99 293.13 ZM10.93 297.04 L10.93 293.13 L14.32 293.13 A5.12259
								 5.12259 0 0 1 10.93 297.04 ZM16.66 294.95 A6.82491 6.82491 0 0 1 14.32 296.26 A8.79534 8.79534 -180
								 0 0 15.88 293.13 L18.22 293.13 A3.49835 3.49835 0 0 1 16.66 294.95 Z" class="st6"/>
				</g>
				<g id="shape6-17" v:mID="6" v:groupContext="shape" transform="translate(6.24706,-15.3574)">
					<title>Sheet.6</title>
					<path d="M5.73 297.04 A10.4768 10.4768 0 0 1 0 289.49 A9.49032 9.49032 0 0 1 3.9 281.94 L5.47 280.64 L6.77 282.2
								 L5.21 283.5 A6.53078 6.53078 -180 0 0 2.08 289.23 A7.88951 7.88951 -180 0 0 6.77 295.21 L5.73 297.04
								 Z" class="st7"/>
				</g>
				<g id="shape7-19" v:mID="7" v:groupContext="shape" transform="translate(9.63088,-28.1118)">
					<title>Sheet.7</title>
					<ellipse cx="2.86324" cy="294.173" rx="2.86324" ry="2.86324" class="st5"/>
				</g>
				<g id="shape8-21" v:mID="8" v:groupContext="shape" transform="translate(30.7147,-15.3574)">
					<title>Sheet.8</title>
					<path d="M1.04 297.04 L0 295.21 A8.48299 8.48299 -180 0 0 4.69 289.23 A7.15288 7.15288 -180 0 0 1.56 283.5 L0
								 282.46 L1.3 280.9 L2.86 281.94 A7.99363 7.99363 0 0 1 6.77 289.49 A10.4768 10.4768 0 0 1 1.04 297.04
								 Z" class="st7"/>
				</g>
				<g id="shape9-23" v:mID="9" v:groupContext="shape" transform="translate(28.6324,-28.1118)">
					<title>Sheet.9</title>
					<ellipse cx="2.86324" cy="294.173" rx="2.86324" ry="2.86324" class="st5"/>
				</g>
				<g id="shape10-25" v:mID="10" v:groupContext="shape" transform="translate(9.63088,-13.275)">
					<title>Sheet.10</title>
					<ellipse cx="2.86324" cy="294.173" rx="2.86324" ry="2.86324" class="st8"/>
				</g>
				<g id="shape11-27" v:mID="11" v:groupContext="shape" transform="translate(28.6324,-13.275)">
					<title>Sheet.11</title>
					<ellipse cx="2.86324" cy="294.173" rx="2.86324" ry="2.86324" class="st8"/>
				</g>
			</g>
		</g>
		<g id="shape54-29" v:mID="54" v:groupContext="shape" transform="translate(25.8182,-18.25)">
			<title>Sheet.54</title>
			<desc>East US Region</desc>
			<v:textBlock v:margins="rect(4,4,4,4)"/>
			<v:textRect cx="74.5568" cy="287.474" width="149.12" height="19.125"/>
			<rect x="0" y="277.912" width="149.114" height="19.125" class="st9"/>
			<text x="43.73" y="290.47" class="st10" v:langID="1033"><v:paragraph v:horizAlign="1"/><v:tabList/>East US Region</text>		</g>
		<g id="shape57-32" v:mID="57" v:groupContext="shape" transform="translate(22.75,-113.313)">
			<title>Sheet.57</title>
			<desc>VWAN hub</desc>
			<v:textBlock v:margins="rect(4,4,4,4)"/>
			<v:textRect cx="74.5568" cy="287.474" width="149.12" height="19.125"/>
			<rect x="0" y="277.912" width="149.114" height="19.125" class="st9"/>
			<text x="50.44" y="290.47" class="st10" v:langID="1033"><v:paragraph v:horizAlign="1"/><v:tabList/>VWAN  hub</text>		</g>
		<g id="group12-35" transform="translate(128.5,-98.4625)" v:mID="12" v:groupContext="group">
			<title>Icon-networking-84</title>
			<g id="shape13-36" v:mID="13" v:groupContext="shape" transform="translate(0,-3.08595)">
				<title>Sheet.13</title>
				<path d="M22.62 292.01 A5.10168 5.10168 -180 0 0 18.21 287.12 A6.40851 6.40851 -180 0 0 11.61 281 A6.57186 6.57186
							 -180 0 0 5.33 285.28 A6.05667 6.05667 -180 0 0 -0 291.11 A6.15719 6.15719 -180 0 0 6.37 297.03 L6.92
							 297.03 L17.24 297.03 A1.83459 1.83459 -180 0 0 17.52 297.03 A5.15194 5.15194 -180 0 0 22.62 292.01 Z"
						class="st11"/>
			</g>
			<g id="shape14-40" v:mID="14" v:groupContext="shape" transform="translate(4.66188,0)">
				<title>Sheet.14</title>
				<path d="M13.29 290.24 a0.52776 0.52776 -180 0 0 -0.52776 -0.515194 L0.53 289.72 a0.52776 0.52776 -180 0 0 -0.52776
							 0.515194 L0 296.52 a0.52776 0.52776 -180 0 0 0.52776 0.515194 L12.77 297.04 a0.52776 0.52776 -180 0
							 0 0.52776 -0.515194 L13.29 290.24 Z" class="st12"/>
			</g>
			<g id="shape15-42" v:mID="15" v:groupContext="shape" transform="translate(5.40325,-4.98858)">
				<title>Sheet.15</title>
				<rect x="0" y="295.441" width="3.60636" height="1.59584" class="st13"/>
			</g>
			<g id="shape16-44" v:mID="16" v:groupContext="shape" transform="translate(9.54993,-4.98858)">
				<title>Sheet.16</title>
				<rect x="0" y="295.441" width="3.60636" height="1.59584" class="st14"/>
			</g>
			<g id="shape17-46" v:mID="17" v:groupContext="shape" transform="translate(13.6966,-4.98858)">
				<title>Sheet.17</title>
				<rect x="0" y="295.441" width="3.60636" height="1.59584" class="st13"/>
			</g>
			<g id="shape18-48" v:mID="18" v:groupContext="shape" transform="translate(5.40325,-2.85241)">
				<title>Sheet.18</title>
				<rect x="0" y="295.441" width="1.49532" height="1.59584" class="st13"/>
			</g>
			<g id="shape19-50" v:mID="19" v:groupContext="shape" transform="translate(15.8077,-2.85241)">
				<title>Sheet.19</title>
				<rect x="0" y="295.441" width="1.49532" height="1.59584" class="st14"/>
			</g>
			<g id="shape20-52" v:mID="20" v:groupContext="shape" transform="translate(7.4389,-2.85241)">
				<title>Sheet.20</title>
				<rect x="0" y="295.441" width="3.60636" height="1.59584" class="st14"/>
			</g>
			<g id="shape21-54" v:mID="21" v:groupContext="shape" transform="translate(11.5981,-2.85241)">
				<title>Sheet.21</title>
				<rect x="0" y="295.441" width="3.60636" height="1.59584" class="st13"/>
			</g>
			<g id="shape22-56" v:mID="22" v:groupContext="shape" transform="translate(5.40325,-0.716245)">
				<title>Sheet.22</title>
				<rect x="0" y="295.441" width="3.60636" height="1.59584" class="st13"/>
			</g>
			<g id="shape23-58" v:mID="23" v:groupContext="shape" transform="translate(9.54993,-0.716245)">
				<title>Sheet.23</title>
				<rect x="0" y="295.441" width="3.60636" height="1.59584" class="st14"/>
			</g>
			<g id="shape24-60" v:mID="24" v:groupContext="shape" transform="translate(13.6966,-0.716245)">
				<title>Sheet.24</title>
				<rect x="0" y="295.441" width="3.60636" height="1.59584" class="st13"/>
			</g>
		</g>
		<g id="group35-62" transform="translate(75.1818,-128.552)" v:mID="35" v:groupContext="group">
			<title>Sheet.35</title>
			<g id="group36-63" v:mID="36" v:groupContext="group">
				<title>a101d3be-9418-4282-9372-6812b30</title>
				<g id="shape37-64" v:mID="37" v:groupContext="shape" transform="translate(3.1565,-2.24849)">
					<title>Sheet.37</title>
					<path d="M31.97 279.26 L31.97 279.28 L38.62 279.13 L38.57 277.05 L31.96 277.2 L31.96 277.16 L26.45 276.53 L26.45
								 270.53 L26.43 270.5 L30.34 260.51 L28.4 259.77 L24.47 269.82 L24.47 269.83 L20.25 274.7 L13.6 269.78
								 L13.51 269.71 L9.62 259.77 L7.68 260.51 L11.62 270.57 L11.67 270.55 L15.24 278.35 L6.67 277.16 L6.63
								 277.23 L6.63 277.2 L0.05 277.05 L0 279.13 L6.58 279.28 L6.59 278.57 L10.94 279.95 L11.8 282.88 L11.72
								 286.24 L7.78 296.29 L9.72 297.04 L13.65 286.98 L13.33 286.86 L16.43 283.85 L24.51 285.76 L25.52
								 286.62 L24.57 286.98 L28.5 297.04 L30.43 296.29 L26.5 286.24 L26.43 286.27 L27.01 282.09 L31.97
								 279.26 Z" class="st15"/>
				</g>
				<g id="shape38-66" v:mID="38" v:groupContext="shape" transform="translate(0.931718,-1.7053E-13)">
					<title>Sheet.38</title>
					<path d="M43.32 275.99 A3.18108 3.18108 0 1 1 40.14 272.81 A3.18108 3.18108 0 0 1 43.32 275.99 ZM2.25 272.81
								 A3.18108 3.18108 -180 1 0 5.43 275.99 A3.18108 3.18108 -180 0 0 2.25 272.81 ZM10.8 291.61 A3.18108
								 3.18108 -180 1 0 13.98 294.79 A3.18108 3.18108 -180 0 0 10.8 291.61 ZM32.14 291.61 A3.18108 3.18108
								 -180 1 0 35.32 294.79 A3.18108 3.18108 -180 0 0 32.14 291.61 ZM10.46 253.83 A3.18108 3.18108 -180
								 1 0 13.64 257.01 A3.17863 3.17863 -180 0 0 10.46 253.83 ZM32.37 253.83 A3.18108 3.18108 -180 1 0
								 35.55 257.01 A3.17862 3.17863 -180 0 0 32.37 253.83 Z" class="st16"/>
				</g>
				<g id="shape39-68" v:mID="39" v:groupContext="shape" transform="translate(0,-10.1127)">
					<title>Sheet.39</title>
					<path d="M8.69 281.14 L35.56 281.14 L35.56 296.14 a0.897292 0.897292 0 0 1 -0.897292 0.897292 L9.59 297.04 a0.897292
								 0.897292 0 0 1 -0.897292 -0.897292 L8.69 281.14 L8.69 281.14 Z" class="st17"/>
				</g>
				<g id="shape40-72" v:mID="40" v:groupContext="shape" transform="translate(2.21823E-13,-26.0058)">
					<title>Sheet.40</title>
					<path d="M9.59 291.31 L34.66 291.31 a0.897292 0.897292 0 0 1 0.897292 0.897292 L35.56 297.04 L8.69 297.04 L8.69
								 292.21 a0.897292 0.897292 0 0 1 0.897292 -0.897292 Z" class="st6"/>
				</g>
				<g id="shape41-74" v:mID="41" v:groupContext="shape" transform="translate(17.1543,-17.8162)">
					<title>Sheet.41</title>
					<path d="M8.83 294.98 A1.19721 1.19721 0 1 1 7.63 296.18 A1.19721 1.19721 0 0 1 8.83 294.98 ZM3.82 296.19 A1.19721
								 1.19721 -180 1 0 5.01 294.99 A1.19721 1.19721 -180 0 0 3.82 296.19 ZM0 296.19 A1.19721 1.19721 -180
								 1 0 1.2 294.99 A1.19721 1.19721 -180 0 0 -0 296.19 Z" class="st18"/>
				</g>
				<g id="shape42-78" v:mID="42" v:groupContext="shape" transform="translate(12.8472,-13.1025)">
					<title>Sheet.42</title>
					<path d="M6.37 296.26 L5.69 296.95 a0.30975 0.30975 0 0 1 -0.437583 0 L0.18 291.89 a0.617042 0.617042 0 0 1 -7.49401E-15
								 -0.875167 L0.87 290.33 L6.37 295.82 a0.30975 0.30975 0 0 1 8.88178E-16 0.437583 ZM17.69 290.32 L12.19
								 295.81 a0.307292 0.307292 -180 0 0 3.55271E-15 0.437583 L12.87 296.94 a0.307292 0.307292 -180 0
								 0 0.437583 0 L18.37 291.88 a0.6195 0.6195 -180 0 0 -7.10543E-15 -0.875167 L17.69 290.32 L17.69 290.32
								 Z" class="st19"/>
				</g>
				<g id="shape43-80" v:mID="43" v:groupContext="shape" transform="translate(12.8472,-17.5713)">
					<title>Sheet.43</title>
					<path d="M5.59 290.49 L6.28 291.17 a0.30975 0.30975 0 0 1 -2.66454E-15 0.437583 L0.87 297.04 L0.18 296.35 a0.617042
								 0.617042 0 0 1 -6.27276E-15 -0.875167 L5.15 290.49 a0.30975 0.30975 0 0 1 0.4425 0 ZM18.37 296.34
								 a0.617042 0.617042 -180 0 0 7.10543E-15 -0.875167 L13.41 290.47 a0.30975 0.30975 -180 0 0 -0.437583
								 -5.68434E-14 L12.28 291.17 a0.30975 0.30975 -180 0 0 -1.42109E-14 0.437583 L17.69 297.03 L18.37
								 296.34 L18.37 296.34 Z" class="st20"/>
				</g>
			</g>
		</g>
		<g id="group117-82" transform="translate(57.375,-36.8125)" v:mID="117" v:groupContext="group">
			<title>Sheet.117</title>
			<g id="group65-83" transform="translate(0.884133,-10.0187)" v:mID="65" v:groupContext="group">
				<title>Icon-networking-61</title>
				<g id="shape66-84" v:mID="66" v:groupContext="shape" transform="translate(18.4526,-13.0583)">
					<title>Sheet.66</title>
					<ellipse cx="1.59345" cy="295.443" rx="1.59345" ry="1.59345" class="st21"/>
				</g>
				<g id="shape67-88" v:mID="67" v:groupContext="shape" transform="translate(13.37,-13.0445)">
					<title>Sheet.67</title>
					<ellipse cx="1.59345" cy="295.443" rx="1.59345" ry="1.59345" class="st22"/>
				</g>
				<g id="shape68-92" v:mID="68" v:groupContext="shape" transform="translate(8.28746,-13.0445)">
					<title>Sheet.68</title>
					<ellipse cx="1.59345" cy="295.443" rx="1.59345" ry="1.59345" class="st22"/>
				</g>
				<g id="shape69-95" v:mID="69" v:groupContext="shape" transform="translate(216.273,488.369) rotate(134.92)">
					<title>Sheet.69</title>
					<path d="M3.59 286.27 L4.88 286.27 a0.412099 0.412099 0 0 1 0.412099 0.412099 L5.29 296.21 a0.824199 0.824199
								 0 0 1 -0.824199 0.824199 L3.17 297.04 L3.17 286.68 a0.412099 0.412099 0 0 1 0.412099 -0.412099 Z"
							class="st23"/>
				</g>
				<g id="shape70-97" v:mID="70" v:groupContext="shape" transform="translate(209.743,69.8355) rotate(44.92)">
					<title>Sheet.70</title>
					<path d="M3.52 286.42 L4.81 286.42 a0.412099 0.412099 0 0 1 0.412099 0.412099 L5.22 297.04 L3.93 297.04 a0.824199
								 0.824199 0 0 1 -0.824199 -0.824199 L3.1 286.83 a0.412099 0.412099 0 0 1 0.412099 -0.412099 Z"
							class="st24"/>
				</g>
				<g id="shape71-99" v:mID="71" v:groupContext="shape" transform="translate(215.092,64.9582) rotate(45.08)">
					<title>Sheet.71</title>
					<path d="M19.44 286.27 L20.73 286.27 a0.824199 0.824199 0 0 1 0.824199 0.824199 L21.55 296.62 a0.412099 0.412099
								 0 0 1 -0.412099 0.412099 L19.85 297.04 a0.412099 0.412099 0 0 1 -0.412099 -0.412099 L19.44 286.27
								 Z" class="st23"/>
				</g>
				<g id="shape72-101" v:mID="72" v:groupContext="shape" transform="translate(243.673,471.376) rotate(135.08)">
					<title>Sheet.72</title>
					<path d="M20.34 286.42 L21.64 286.42 L21.64 296.62 a0.412099 0.412099 0 0 1 -0.412099 0.412099 L19.92 297.04
								 a0.412099 0.412099 0 0 1 -0.412099 -0.412099 L19.51 287.24 a0.824199 0.824199 0 0 1 0.824199 -0.824199
								 L20.34 286.42 Z" class="st24"/>
				</g>
			</g>
			<g id="shape107-103" v:mID="107" v:groupContext="shape">
				<title>Sheet.107</title>
				<desc>VNet</desc>
				<v:textBlock v:margins="rect(4,4,4,4)"/>
				<v:textRect cx="14.8393" cy="287.474" width="29.68" height="19.125"/>
				<rect x="0" y="277.912" width="29.6786" height="19.125" class="st9"/>
				<text x="4.34" y="290.47" class="st10" v:langID="1033"><v:paragraph v:horizAlign="1"/><v:tabList/>VNet</text>			</g>
		</g>
		<g id="group118-106" transform="translate(90.9909,-36.8125)" v:mID="118" v:groupContext="group">
			<title>Sheet.118</title>
			<g id="group119-107" transform="translate(0.884133,-10.0187)" v:mID="119" v:groupContext="group">
				<title>Icon-networking-61</title>
				<g id="shape120-108" v:mID="120" v:groupContext="shape" transform="translate(18.4526,-13.0583)">
					<title>Sheet.120</title>
					<ellipse cx="1.59345" cy="295.443" rx="1.59345" ry="1.59345" class="st21"/>
				</g>
				<g id="shape121-111" v:mID="121" v:groupContext="shape" transform="translate(13.37,-13.0445)">
					<title>Sheet.121</title>
					<ellipse cx="1.59345" cy="295.443" rx="1.59345" ry="1.59345" class="st22"/>
				</g>
				<g id="shape122-114" v:mID="122" v:groupContext="shape" transform="translate(8.28746,-13.0445)">
					<title>Sheet.122</title>
					<ellipse cx="1.59345" cy="295.443" rx="1.59345" ry="1.59345" class="st22"/>
				</g>
				<g id="shape123-117" v:mID="123" v:groupContext="shape" transform="translate(216.273,488.369) rotate(134.92)">
					<title>Sheet.123</title>
					<path d="M3.59 286.27 L4.88 286.27 a0.412099 0.412099 0 0 1 0.412099 0.412099 L5.29 296.21 a0.824199 0.824199
								 0 0 1 -0.824199 0.824199 L3.17 297.04 L3.17 286.68 a0.412099 0.412099 0 0 1 0.412099 -0.412099 Z"
							class="st23"/>
				</g>
				<g id="shape124-119" v:mID="124" v:groupContext="shape" transform="translate(209.743,69.8355) rotate(44.92)">
					<title>Sheet.124</title>
					<path d="M3.52 286.42 L4.81 286.42 a0.412099 0.412099 0 0 1 0.412099 0.412099 L5.22 297.04 L3.93 297.04 a0.824199
								 0.824199 0 0 1 -0.824199 -0.824199 L3.1 286.83 a0.412099 0.412099 0 0 1 0.412099 -0.412099 Z"
							class="st24"/>
				</g>
				<g id="shape125-121" v:mID="125" v:groupContext="shape" transform="translate(215.092,64.9582) rotate(45.08)">
					<title>Sheet.125</title>
					<path d="M19.44 286.27 L20.73 286.27 a0.824199 0.824199 0 0 1 0.824199 0.824199 L21.55 296.62 a0.412099 0.412099
								 0 0 1 -0.412099 0.412099 L19.85 297.04 a0.412099 0.412099 0 0 1 -0.412099 -0.412099 L19.44 286.27
								 Z" class="st23"/>
				</g>
				<g id="shape126-123" v:mID="126" v:groupContext="shape" transform="translate(243.673,471.376) rotate(135.08)">
					<title>Sheet.126</title>
					<path d="M20.34 286.42 L21.64 286.42 L21.64 296.62 a0.412099 0.412099 0 0 1 -0.412099 0.412099 L19.92 297.04
								 a0.412099 0.412099 0 0 1 -0.412099 -0.412099 L19.51 287.24 a0.824199 0.824199 0 0 1 0.824199 -0.824199
								 L20.34 286.42 Z" class="st24"/>
				</g>
			</g>
			<g id="shape127-125" v:mID="127" v:groupContext="shape">
				<title>Sheet.127</title>
				<desc>VNet</desc>
				<v:textBlock v:margins="rect(4,4,4,4)"/>
				<v:textRect cx="14.8393" cy="287.474" width="29.68" height="19.125"/>
				<rect x="0" y="277.912" width="29.6786" height="19.125" class="st9"/>
				<text x="4.34" y="290.47" class="st10" v:langID="1033"><v:paragraph v:horizAlign="1"/><v:tabList/>VNet</text>			</g>
		</g>
		<g id="shape135-128" v:mID="135" v:groupContext="shape" v:layerMember="0" transform="translate(97.125,-77.3125)">
			<title>Dynamic connector.203</title>
			<v:userDefs>
				<v:ud v:nameU="visVersion" v:val="VT0(15):26"/>
			</v:userDefs>
			<path d="M9 297.04 L9 264.23" class="st25"/>
		</g>
		<g id="shape136-131" v:mID="136" v:groupContext="shape" v:layerMember="0" transform="translate(64.125,-77.3125)">
			<title>Dynamic connector.136</title>
			<v:userDefs>
				<v:ud v:nameU="visVersion" v:val="VT0(15):26"/>
			</v:userDefs>
			<path d="M9 297.04 L9 264.23" class="st25"/>
		</g>
		<g id="shape137-134" v:mID="137" v:groupContext="shape" transform="translate(265.5,-32.3125)">
			<title>Rectangle.137</title>
			<v:userDefs>
				<v:ud v:nameU="visVersion" v:val="VT0(15):26"/>
			</v:userDefs>
			<rect x="0" y="146.287" width="187" height="150.75" class="st2"/>
		</g>
		<g id="shape138-136" v:mID="138" v:groupContext="shape" transform="translate(324.25,-111.062)">
			<title>Rectangle.138</title>
			<v:userDefs>
				<v:ud v:nameU="visVersion" v:val="VT0(15):26"/>
			</v:userDefs>
			<rect x="0" y="249.787" width="90" height="47.25" class="st3"/>
		</g>
		<g id="shape139-138" v:mID="139" v:groupContext="shape" transform="translate(295.818,-18.25)">
			<title>Sheet.139</title>
			<desc>West US3 Region</desc>
			<v:textBlock v:margins="rect(4,4,4,4)"/>
			<v:textRect cx="74.5568" cy="287.474" width="149.12" height="19.125"/>
			<rect x="0" y="277.912" width="149.114" height="19.125" class="st9"/>
			<text x="39.06" y="290.47" class="st10" v:langID="1033"><v:paragraph v:horizAlign="1"/><v:tabList/>West US3 Region</text>		</g>
		<g id="shape140-141" v:mID="140" v:groupContext="shape" transform="translate(292.75,-113.313)">
			<title>Sheet.140</title>
			<desc>VWAN hub</desc>
			<v:textBlock v:margins="rect(4,4,4,4)"/>
			<v:textRect cx="74.5568" cy="287.474" width="149.12" height="19.125"/>
			<rect x="0" y="277.912" width="149.114" height="19.125" class="st9"/>
			<text x="50.44" y="290.47" class="st10" v:langID="1033"><v:paragraph v:horizAlign="1"/><v:tabList/>VWAN  hub</text>		</g>
		<g id="group141-144" transform="translate(317.95,-98.4625)" v:mID="141" v:groupContext="group">
			<title>Icon-networking-84.141</title>
			<g id="shape142-145" v:mID="142" v:groupContext="shape" transform="translate(0,-3.08595)">
				<title>Sheet.142</title>
				<path d="M22.62 292.01 A5.10168 5.10168 -180 0 0 18.21 287.12 A6.40851 6.40851 -180 0 0 11.61 281 A6.57186 6.57186
							 -180 0 0 5.33 285.28 A6.05667 6.05667 -180 0 0 -0 291.11 A6.15719 6.15719 -180 0 0 6.37 297.03 L6.92
							 297.03 L17.24 297.03 A1.83459 1.83459 -180 0 0 17.52 297.03 A5.15194 5.15194 -180 0 0 22.62 292.01 Z"
						class="st11"/>
			</g>
			<g id="shape143-148" v:mID="143" v:groupContext="shape" transform="translate(4.66188,0)">
				<title>Sheet.143</title>
				<path d="M13.29 290.24 a0.52776 0.52776 -180 0 0 -0.52776 -0.515194 L0.53 289.72 a0.52776 0.52776 -180 0 0 -0.52776
							 0.515194 L0 296.52 a0.52776 0.52776 -180 0 0 0.52776 0.515194 L12.77 297.04 a0.52776 0.52776 -180 0
							 0 0.52776 -0.515194 L13.29 290.24 Z" class="st12"/>
			</g>
			<g id="shape144-150" v:mID="144" v:groupContext="shape" transform="translate(5.40325,-4.98858)">
				<title>Sheet.144</title>
				<rect x="0" y="295.441" width="3.60636" height="1.59584" class="st13"/>
			</g>
			<g id="shape145-152" v:mID="145" v:groupContext="shape" transform="translate(9.54993,-4.98858)">
				<title>Sheet.145</title>
				<rect x="0" y="295.441" width="3.60636" height="1.59584" class="st14"/>
			</g>
			<g id="shape146-154" v:mID="146" v:groupContext="shape" transform="translate(13.6966,-4.98858)">
				<title>Sheet.146</title>
				<rect x="0" y="295.441" width="3.60636" height="1.59584" class="st13"/>
			</g>
			<g id="shape147-156" v:mID="147" v:groupContext="shape" transform="translate(5.40325,-2.85241)">
				<title>Sheet.147</title>
				<rect x="0" y="295.441" width="1.49532" height="1.59584" class="st13"/>
			</g>
			<g id="shape148-158" v:mID="148" v:groupContext="shape" transform="translate(15.8077,-2.85241)">
				<title>Sheet.148</title>
				<rect x="0" y="295.441" width="1.49532" height="1.59584" class="st14"/>
			</g>
			<g id="shape149-160" v:mID="149" v:groupContext="shape" transform="translate(7.4389,-2.85241)">
				<title>Sheet.149</title>
				<rect x="0" y="295.441" width="3.60636" height="1.59584" class="st14"/>
			</g>
			<g id="shape150-162" v:mID="150" v:groupContext="shape" transform="translate(11.5981,-2.85241)">
				<title>Sheet.150</title>
				<rect x="0" y="295.441" width="3.60636" height="1.59584" class="st13"/>
			</g>
			<g id="shape151-164" v:mID="151" v:groupContext="shape" transform="translate(5.40325,-0.716245)">
				<title>Sheet.151</title>
				<rect x="0" y="295.441" width="3.60636" height="1.59584" class="st13"/>
			</g>
			<g id="shape152-166" v:mID="152" v:groupContext="shape" transform="translate(9.54993,-0.716245)">
				<title>Sheet.152</title>
				<rect x="0" y="295.441" width="3.60636" height="1.59584" class="st14"/>
			</g>
			<g id="shape153-168" v:mID="153" v:groupContext="shape" transform="translate(13.6966,-0.716245)">
				<title>Sheet.153</title>
				<rect x="0" y="295.441" width="3.60636" height="1.59584" class="st13"/>
			</g>
		</g>
		<g id="group154-170" transform="translate(345.182,-128.552)" v:mID="154" v:groupContext="group">
			<title>Sheet.154</title>
			<g id="group155-171" v:mID="155" v:groupContext="group">
				<title>a101d3be-9418-4282-9372-6812b30</title>
				<g id="shape156-172" v:mID="156" v:groupContext="shape" transform="translate(3.1565,-2.24849)">
					<title>Sheet.156</title>
					<path d="M31.97 279.26 L31.97 279.28 L38.62 279.13 L38.57 277.05 L31.96 277.2 L31.96 277.16 L26.45 276.53 L26.45
								 270.53 L26.43 270.5 L30.34 260.51 L28.4 259.77 L24.47 269.82 L24.47 269.83 L20.25 274.7 L13.6 269.78
								 L13.51 269.71 L9.62 259.77 L7.68 260.51 L11.62 270.57 L11.67 270.55 L15.24 278.35 L6.67 277.16 L6.63
								 277.23 L6.63 277.2 L0.05 277.05 L0 279.13 L6.58 279.28 L6.59 278.57 L10.94 279.95 L11.8 282.88 L11.72
								 286.24 L7.78 296.29 L9.72 297.04 L13.65 286.98 L13.33 286.86 L16.43 283.85 L24.51 285.76 L25.52
								 286.62 L24.57 286.98 L28.5 297.04 L30.43 296.29 L26.5 286.24 L26.43 286.27 L27.01 282.09 L31.97
								 279.26 Z" class="st15"/>
				</g>
				<g id="shape157-174" v:mID="157" v:groupContext="shape" transform="translate(0.931718,-1.7053E-13)">
					<title>Sheet.157</title>
					<path d="M43.32 275.99 A3.18108 3.18108 0 1 1 40.14 272.81 A3.18108 3.18108 0 0 1 43.32 275.99 ZM2.25 272.81
								 A3.18108 3.18108 -180 1 0 5.43 275.99 A3.18108 3.18108 -180 0 0 2.25 272.81 ZM10.8 291.61 A3.18108
								 3.18108 -180 1 0 13.98 294.79 A3.18108 3.18108 -180 0 0 10.8 291.61 ZM32.14 291.61 A3.18108 3.18108
								 -180 1 0 35.32 294.79 A3.18108 3.18108 -180 0 0 32.14 291.61 ZM10.46 253.83 A3.18108 3.18108 -180
								 1 0 13.64 257.01 A3.17863 3.17863 -180 0 0 10.46 253.83 ZM32.37 253.83 A3.18108 3.18108 -180 1 0
								 35.55 257.01 A3.17862 3.17863 -180 0 0 32.37 253.83 Z" class="st16"/>
				</g>
				<g id="shape158-176" v:mID="158" v:groupContext="shape" transform="translate(0,-10.1127)">
					<title>Sheet.158</title>
					<path d="M8.69 281.14 L35.56 281.14 L35.56 296.14 a0.897292 0.897292 0 0 1 -0.897292 0.897292 L9.59 297.04 a0.897292
								 0.897292 0 0 1 -0.897292 -0.897292 L8.69 281.14 L8.69 281.14 Z" class="st17"/>
				</g>
				<g id="shape159-179" v:mID="159" v:groupContext="shape" transform="translate(2.21823E-13,-26.0058)">
					<title>Sheet.159</title>
					<path d="M9.59 291.31 L34.66 291.31 a0.897292 0.897292 0 0 1 0.897292 0.897292 L35.56 297.04 L8.69 297.04 L8.69
								 292.21 a0.897292 0.897292 0 0 1 0.897292 -0.897292 Z" class="st6"/>
				</g>
				<g id="shape160-181" v:mID="160" v:groupContext="shape" transform="translate(17.1543,-17.8162)">
					<title>Sheet.160</title>
					<path d="M8.83 294.98 A1.19721 1.19721 0 1 1 7.63 296.18 A1.19721 1.19721 0 0 1 8.83 294.98 ZM3.82 296.19 A1.19721
								 1.19721 -180 1 0 5.01 294.99 A1.19721 1.19721 -180 0 0 3.82 296.19 ZM0 296.19 A1.19721 1.19721 -180
								 1 0 1.2 294.99 A1.19721 1.19721 -180 0 0 -0 296.19 Z" class="st18"/>
				</g>
				<g id="shape161-184" v:mID="161" v:groupContext="shape" transform="translate(12.8472,-13.1025)">
					<title>Sheet.161</title>
					<path d="M6.37 296.26 L5.69 296.95 a0.30975 0.30975 0 0 1 -0.437583 0 L0.18 291.89 a0.617042 0.617042 0 0 1 -7.49401E-15
								 -0.875167 L0.87 290.33 L6.37 295.82 a0.30975 0.30975 0 0 1 8.88178E-16 0.437583 ZM17.69 290.32 L12.19
								 295.81 a0.307292 0.307292 -180 0 0 3.55271E-15 0.437583 L12.87 296.94 a0.307292 0.307292 -180 0
								 0 0.437583 0 L18.37 291.88 a0.6195 0.6195 -180 0 0 -7.10543E-15 -0.875167 L17.69 290.32 L17.69 290.32
								 Z" class="st19"/>
				</g>
				<g id="shape162-186" v:mID="162" v:groupContext="shape" transform="translate(12.8472,-17.5713)">
					<title>Sheet.162</title>
					<path d="M5.59 290.49 L6.28 291.17 a0.30975 0.30975 0 0 1 -2.66454E-15 0.437583 L0.87 297.04 L0.18 296.35 a0.617042
								 0.617042 0 0 1 -6.27276E-15 -0.875167 L5.15 290.49 a0.30975 0.30975 0 0 1 0.4425 0 ZM18.37 296.34
								 a0.617042 0.617042 -180 0 0 7.10543E-15 -0.875167 L13.41 290.47 a0.30975 0.30975 -180 0 0 -0.437583
								 -5.68434E-14 L12.28 291.17 a0.30975 0.30975 -180 0 0 -1.42109E-14 0.437583 L17.69 297.03 L18.37
								 296.34 L18.37 296.34 Z" class="st20"/>
				</g>
			</g>
		</g>
		<g id="group163-188" transform="translate(346.5,-36.8125)" v:mID="163" v:groupContext="group">
			<title>Sheet.163</title>
			<g id="group164-189" transform="translate(0.884133,-10.0187)" v:mID="164" v:groupContext="group">
				<title>Icon-networking-61</title>
				<g id="shape165-190" v:mID="165" v:groupContext="shape" transform="translate(18.4526,-13.0583)">
					<title>Sheet.165</title>
					<ellipse cx="1.59345" cy="295.443" rx="1.59345" ry="1.59345" class="st21"/>
				</g>
				<g id="shape166-193" v:mID="166" v:groupContext="shape" transform="translate(13.37,-13.0445)">
					<title>Sheet.166</title>
					<ellipse cx="1.59345" cy="295.443" rx="1.59345" ry="1.59345" class="st22"/>
				</g>
				<g id="shape167-196" v:mID="167" v:groupContext="shape" transform="translate(8.28746,-13.0445)">
					<title>Sheet.167</title>
					<ellipse cx="1.59345" cy="295.443" rx="1.59345" ry="1.59345" class="st22"/>
				</g>
				<g id="shape168-199" v:mID="168" v:groupContext="shape" transform="translate(216.273,488.369) rotate(134.92)">
					<title>Sheet.168</title>
					<path d="M3.59 286.27 L4.88 286.27 a0.412099 0.412099 0 0 1 0.412099 0.412099 L5.29 296.21 a0.824199 0.824199
								 0 0 1 -0.824199 0.824199 L3.17 297.04 L3.17 286.68 a0.412099 0.412099 0 0 1 0.412099 -0.412099 Z"
							class="st23"/>
				</g>
				<g id="shape169-201" v:mID="169" v:groupContext="shape" transform="translate(209.743,69.8355) rotate(44.92)">
					<title>Sheet.169</title>
					<path d="M3.52 286.42 L4.81 286.42 a0.412099 0.412099 0 0 1 0.412099 0.412099 L5.22 297.04 L3.93 297.04 a0.824199
								 0.824199 0 0 1 -0.824199 -0.824199 L3.1 286.83 a0.412099 0.412099 0 0 1 0.412099 -0.412099 Z"
							class="st24"/>
				</g>
				<g id="shape170-203" v:mID="170" v:groupContext="shape" transform="translate(215.092,64.9582) rotate(45.08)">
					<title>Sheet.170</title>
					<path d="M19.44 286.27 L20.73 286.27 a0.824199 0.824199 0 0 1 0.824199 0.824199 L21.55 296.62 a0.412099 0.412099
								 0 0 1 -0.412099 0.412099 L19.85 297.04 a0.412099 0.412099 0 0 1 -0.412099 -0.412099 L19.44 286.27
								 Z" class="st23"/>
				</g>
				<g id="shape171-205" v:mID="171" v:groupContext="shape" transform="translate(243.673,471.376) rotate(135.08)">
					<title>Sheet.171</title>
					<path d="M20.34 286.42 L21.64 286.42 L21.64 296.62 a0.412099 0.412099 0 0 1 -0.412099 0.412099 L19.92 297.04
								 a0.412099 0.412099 0 0 1 -0.412099 -0.412099 L19.51 287.24 a0.824199 0.824199 0 0 1 0.824199 -0.824199
								 L20.34 286.42 Z" class="st24"/>
				</g>
			</g>
			<g id="shape172-207" v:mID="172" v:groupContext="shape">
				<title>Sheet.172</title>
				<desc>VNet</desc>
				<v:textBlock v:margins="rect(4,4,4,4)"/>
				<v:textRect cx="14.8393" cy="287.474" width="29.68" height="19.125"/>
				<rect x="0" y="277.912" width="29.6786" height="19.125" class="st9"/>
				<text x="4.34" y="290.47" class="st10" v:langID="1033"><v:paragraph v:horizAlign="1"/><v:tabList/>VNet</text>			</g>
		</g>
		<g id="group173-210" transform="translate(380.116,-36.8125)" v:mID="173" v:groupContext="group">
			<title>Sheet.173</title>
			<g id="group174-211" transform="translate(0.884133,-10.0187)" v:mID="174" v:groupContext="group">
				<title>Icon-networking-61</title>
				<g id="shape175-212" v:mID="175" v:groupContext="shape" transform="translate(18.4526,-13.0583)">
					<title>Sheet.175</title>
					<ellipse cx="1.59345" cy="295.443" rx="1.59345" ry="1.59345" class="st21"/>
				</g>
				<g id="shape176-215" v:mID="176" v:groupContext="shape" transform="translate(13.37,-13.0445)">
					<title>Sheet.176</title>
					<ellipse cx="1.59345" cy="295.443" rx="1.59345" ry="1.59345" class="st22"/>
				</g>
				<g id="shape177-218" v:mID="177" v:groupContext="shape" transform="translate(8.28746,-13.0445)">
					<title>Sheet.177</title>
					<ellipse cx="1.59345" cy="295.443" rx="1.59345" ry="1.59345" class="st22"/>
				</g>
				<g id="shape178-221" v:mID="178" v:groupContext="shape" transform="translate(216.273,488.369) rotate(134.92)">
					<title>Sheet.178</title>
					<path d="M3.59 286.27 L4.88 286.27 a0.412099 0.412099 0 0 1 0.412099 0.412099 L5.29 296.21 a0.824199 0.824199
								 0 0 1 -0.824199 0.824199 L3.17 297.04 L3.17 286.68 a0.412099 0.412099 0 0 1 0.412099 -0.412099 Z"
							class="st23"/>
				</g>
				<g id="shape179-223" v:mID="179" v:groupContext="shape" transform="translate(209.743,69.8355) rotate(44.92)">
					<title>Sheet.179</title>
					<path d="M3.52 286.42 L4.81 286.42 a0.412099 0.412099 0 0 1 0.412099 0.412099 L5.22 297.04 L3.93 297.04 a0.824199
								 0.824199 0 0 1 -0.824199 -0.824199 L3.1 286.83 a0.412099 0.412099 0 0 1 0.412099 -0.412099 Z"
							class="st24"/>
				</g>
				<g id="shape180-225" v:mID="180" v:groupContext="shape" transform="translate(215.092,64.9582) rotate(45.08)">
					<title>Sheet.180</title>
					<path d="M19.44 286.27 L20.73 286.27 a0.824199 0.824199 0 0 1 0.824199 0.824199 L21.55 296.62 a0.412099 0.412099
								 0 0 1 -0.412099 0.412099 L19.85 297.04 a0.412099 0.412099 0 0 1 -0.412099 -0.412099 L19.44 286.27
								 Z" class="st23"/>
				</g>
				<g id="shape181-227" v:mID="181" v:groupContext="shape" transform="translate(243.673,471.376) rotate(135.08)">
					<title>Sheet.181</title>
					<path d="M20.34 286.42 L21.64 286.42 L21.64 296.62 a0.412099 0.412099 0 0 1 -0.412099 0.412099 L19.92 297.04
								 a0.412099 0.412099 0 0 1 -0.412099 -0.412099 L19.51 287.24 a0.824199 0.824199 0 0 1 0.824199 -0.824199
								 L20.34 286.42 Z" class="st24"/>
				</g>
			</g>
			<g id="shape182-229" v:mID="182" v:groupContext="shape">
				<title>Sheet.182</title>
				<desc>VNet</desc>
				<v:textBlock v:margins="rect(4,4,4,4)"/>
				<v:textRect cx="14.8393" cy="287.474" width="29.68" height="19.125"/>
				<rect x="0" y="277.912" width="29.6786" height="19.125" class="st9"/>
				<text x="4.34" y="290.47" class="st10" v:langID="1033"><v:paragraph v:horizAlign="1"/><v:tabList/>VNet</text>			</g>
		</g>
		<g id="shape183-232" v:mID="183" v:groupContext="shape" v:layerMember="0" transform="translate(386.25,-77.3125)">
			<title>Dynamic connector.183</title>
			<v:userDefs>
				<v:ud v:nameU="visVersion" v:val="VT0(15):26"/>
			</v:userDefs>
			<path d="M9 297.04 L9 264.23" class="st25"/>
		</g>
		<g id="shape184-235" v:mID="184" v:groupContext="shape" v:layerMember="0" transform="translate(353.25,-77.3125)">
			<title>Dynamic connector.184</title>
			<v:userDefs>
				<v:ud v:nameU="visVersion" v:val="VT0(15):26"/>
			</v:userDefs>
			<path d="M9 297.04 L9 264.23" class="st25"/>
		</g>
		<g id="shape189-238" v:mID="189" v:groupContext="shape" transform="translate(277.511,-78.3476) rotate(25.183)">
			<title>Sheet.189</title>
			<path d="M0 297.04 L21.91 297.04" class="st26"/>
		</g>
		<g id="shape190-241" v:mID="190" v:groupContext="shape" transform="translate(482.351,436.957) rotate(146.395)">
			<title>Sheet.190</title>
			<path d="M0 297.04 L18.46 297.04" class="st26"/>
		</g>
		<g id="shape191-244" v:mID="191" v:groupContext="shape" transform="translate(144.25,-155.25)">
			<title>Sheet.191</title>
			<path d="M0 297.04 L180 297.04" class="st25"/>
		</g>
		<g id="shape193-247" v:mID="193" v:groupContext="shape" transform="translate(374.677,372.228) rotate(125.776)">
			<title>Sheet.193</title>
			<path d="M0 297.04 L36.62 297.04" class="st27"/>
		</g>
		<g id="shape194-250" v:mID="194" v:groupContext="shape" transform="translate(275.189,459.742) rotate(151.551)">
			<title>Sheet.194</title>
			<path d="M0 297.04 L64.29 297.04" class="st27"/>
		</g>
		<g id="shape196-253" v:mID="196" v:groupContext="shape" transform="translate(171.511,-118.24)">
			<title>Rectangle.128</title>
			<v:userDefs>
				<v:ud v:nameU="visVersion" v:val="VT0(15):26"/>
			</v:userDefs>
			<path d="M0 297.04 L131.62 297.04 L131.62 273.53 L0 273.53 L0 297.04 Z" class="st28"/>
		</g>
		<g id="shape197-255" v:mID="197" v:groupContext="shape" transform="translate(170.386,-118.24)">
			<title>Sheet.197</title>
			<desc>Internet traffic: via Azure Firewall Private traffic: via Azu...</desc>
			<v:textBlock v:margins="rect(4,4,4,4)" v:verticalAlign="0"/>
			<v:textRect cx="74.5568" cy="285.282" width="149.12" height="23.51"/>
			<rect x="0" y="273.527" width="149.114" height="23.51" class="st9"/>
			<text x="4" y="284.73" class="st29" v:langID="1033"><v:paragraph/><v:tabList/>Internet traffic:  via Azure Firewall<v:newlineChar/><tspan
						x="4" dy="1.2em" class="st30">Private traffic:    via Azure Firewall</tspan><v:tabChar/></text>		</g>
		<g id="shape198-259" v:mID="198" v:groupContext="shape" transform="translate(194.638,-130.383) rotate(9.76657)">
			<title>Sheet.198</title>
			<path d="M0 297.04 L27.66 297.04" class="st26"/>
		</g>
		<g id="shape199-262" v:mID="199" v:groupContext="shape" transform="translate(388.694,452.311) rotate(167.47)">
			<title>Sheet.199</title>
			<path d="M0 297.04 L21.63 297.04" class="st26"/>
		</g>
		<g id="shape128-265" v:mID="128" v:groupContext="shape" transform="translate(170.95,-85.5)">
			<title>Rectangle.128</title>
			<v:userDefs>
				<v:ud v:nameU="visVersion" v:val="VT0(15):26"/>
			</v:userDefs>
			<path d="M0 297.04 L131.62 297.04 L131.62 273.53 L0 273.53 L0 297.04 Z" class="st28"/>
		</g>
		<g id="shape130-267" v:mID="130" v:groupContext="shape" transform="translate(168.443,-74.25)">
			<title>Sheet.130</title>
			<desc>DNS Server: Azure DNS DNS Proxy: Enabled</desc>
			<v:textBlock v:margins="rect(4,4,4,4)" v:verticalAlign="0"/>
			<v:textRect cx="74.5568" cy="279.19" width="149.12" height="35.6925"/>
			<rect x="0" y="261.344" width="149.114" height="35.6925" class="st9"/>
			<text x="4" y="272.54" class="st29" v:langID="1033"><v:paragraph/><v:tabList/>DNS Server:  Azure DNS<v:newlineChar/><tspan
						x="4" dy="1.2em" class="st30">DNS Proxy:   Enabled</tspan><v:tabChar/><v:newlineChar/></text>		</g>
		<g id="shape221-271" v:mID="221" v:groupContext="shape" transform="translate(576.401,24.968) rotate(54.2351)">
			<title>Sheet.221</title>
			<path d="M0 297.04 L36.63 297.04" class="st27"/>
		</g>
		<g id="shape222-274" v:mID="222" v:groupContext="shape" transform="translate(476.555,-62.7687) rotate(28.3777)">
			<title>Sheet.222</title>
			<path d="M0 297.04 L62.54 297.04" class="st27"/>
		</g>
		<g id="shape1001-277" v:mID="1001" v:groupContext="shape" transform="translate(166.5,-218.25)">
			<title>Sheet.1001</title>
			<desc>Azure Virtual WAN</desc>
			<v:textBlock v:margins="rect(4,4,4,4)"/>
			<v:textRect cx="74.5568" cy="287.474" width="149.12" height="19.125"/>
			<rect x="0" y="277.912" width="149.114" height="19.125" class="st9"/>
			<text x="35.37" y="290.47" class="st10" v:langID="1033"><v:paragraph v:horizAlign="1"/><v:tabList/>Azure Virtual WAN</text>		</g>
		<g id="shape1002-280" v:mID="1002" v:groupContext="shape" transform="translate(114.75,-60.8036)">
			<title>Sheet.1002</title>
			<desc>Configured DNS server</desc>
			<v:textBlock v:margins="rect(4,4,4,4)"/>
			<v:textRect cx="22.5671" cy="282.438" width="45.14" height="29.1964"/>
			<rect x="0" y="267.84" width="45.1341" height="29.1964" class="st9"/>
			<text x="9.1" y="277.04" class="st31" v:langID="1033"><v:paragraph v:horizAlign="1"/><v:tabList/>Configured <tspan
						x="17.41" dy="1.2em" class="st30">DNS <v:newlineChar/></tspan><tspan x="14.96" dy="1.2em" class="st30">server</tspan></text>		</g>
		<g id="shape1003-285" v:mID="1003" v:groupContext="shape" transform="translate(308.116,-60.75)">
			<title>Sheet.1003</title>
			<desc>Configured DNS server</desc>
			<v:textBlock v:margins="rect(4,4,4,4)"/>
			<v:textRect cx="22.5671" cy="282.438" width="45.14" height="29.1964"/>
			<rect x="0" y="267.84" width="45.1341" height="29.1964" class="st9"/>
			<text x="9.1" y="277.04" class="st31" v:langID="1033"><v:paragraph v:horizAlign="1"/><v:tabList/>Configured <tspan
						x="17.41" dy="1.2em" class="st30">DNS <v:newlineChar/></tspan><tspan x="14.96" dy="1.2em" class="st30">server</tspan></text>		</g>
		<g id="shape1004-290" v:mID="1004" v:groupContext="shape" transform="translate(70.5403,-91.125)">
			<title>Sheet.1004</title>
			<desc>peered</desc>
			<v:textBlock v:margins="rect(4,4,4,4)"/>
			<v:textRect cx="19.4597" cy="287.474" width="38.92" height="19.125"/>
			<rect x="0" y="277.912" width="38.9194" height="19.125" class="st9"/>
			<text x="7.7" y="289.87" class="st32" v:langID="1033"><v:paragraph v:horizAlign="1"/><v:tabList/>peered</text>		</g>
		<g id="shape1005-293" v:mID="1005" v:groupContext="shape" transform="translate(360.79,-90.8175)">
			<title>Sheet.1005</title>
			<desc>peered</desc>
			<v:textBlock v:margins="rect(4,4,4,4)"/>
			<v:textRect cx="19.4597" cy="287.474" width="38.92" height="19.125"/>
			<rect x="0" y="277.912" width="38.9194" height="19.125" class="st9"/>
			<text x="7.7" y="289.87" class="st32" v:langID="1033"><v:paragraph v:horizAlign="1"/><v:tabList/>peered</text>		</g>
		<g id="shape1006-296" v:mID="1006" v:groupContext="shape" transform="translate(205.25,-152.688)">
			<title>Sheet.1006</title>
			<desc>connected</desc>
			<v:textBlock v:margins="rect(4,4,4,4)"/>
			<v:textRect cx="27.6074" cy="287.474" width="55.22" height="19.125"/>
			<rect x="0" y="277.912" width="55.2148" height="19.125" class="st9"/>
			<text x="10.26" y="289.87" class="st32" v:langID="1033"><v:paragraph v:horizAlign="1"/><v:tabList/>connected</text>		</g>
	</g>
</svg>
