<?xml version="1.0" encoding="utf-8"?>
<!-- Generator: Adobe Illustrator 22.1.0, SVG Export Plug-In . SVG Version: 6.00 Build 0)  -->
<svg version="1.1" xmlns="http://www.w3.org/2000/svg" xmlns:xlink="http://www.w3.org/1999/xlink" x="0px" y="0px"
	 viewBox="0 0 508.5 138.5" style="enable-background:new 0 0 508.5 138.5;" xml:space="preserve">
<style type="text/css">
	.st0{fill:#FFFFFF;}
	.st1{fill:none;stroke:#0000FF;stroke-width:0.75;stroke-linecap:round;stroke-linejoin:round;stroke-dasharray:5.25,3.75;}
	.st2{fill:#0078D7;}
	.st3{fill:#F2F2F2;stroke:#A5A5A5;stroke-width:0.5;stroke-linecap:round;stroke-linejoin:round;}
	.st4{fill:#4F4F4F;}
	.st5{fill:#2A3282;}
	.st6{fill:none;stroke:#FFFFFF;stroke-width:1.25;stroke-linecap:round;stroke-linejoin:round;stroke-dasharray:0,2.25;}
	.st7{fill:none;}
	.st8{fill:none;stroke:#0078D7;stroke-miterlimit:10;}
	.st9{fill:none;stroke:#FFFFFF;stroke-miterlimit:10;}
	.st10{fill:none;stroke:#0078D7;stroke-width:1.1;stroke-linecap:round;stroke-linejoin:round;stroke-dasharray:0,3.3;}
</style>
<g id="Background">
	<rect class="st0" width="508.5" height="138.5"/>
</g>
<g id="Layer_1">
	<title>Resiliency2</title>
	<g id="slices">
	</g>
	<g id="slices_1_">
	</g>
	<path class="st1" d="M12.4,104h138.3V34.7H12.4V104z"/>
	<g id="group149-16">
		<g id="group1-17">
			<g id="shape2-18">
				<path class="st2" d="M53.3,58H23.4c-1,0-1.8,0.9-1.8,1.9v20.8c0,1,0.7,1.9,1.8,1.9h10.3c1,3.9-0.4,4.5-6.8,4.5v2.1h22v-2.1
					c-6.5,0-7.1-0.6-5.9-4.5h10.4c1,0,1.9-0.9,2.1-1.9V60C55.2,58.8,54.4,58,53.3,58z M52.7,60.6v19.5H24.2V60.6H52.7L52.7,60.6z"/>
			</g>
			<g id="group3-20">
				<g id="group4-21">
					<g id="shape5-22">
						<path class="st2" d="M43.4,66.7l-5.2-3l-5.2,3v0.1l5.2,3L43.4,66.7L43.4,66.7z"/>
					</g>
				</g>
				<g id="group6-24">
					<g id="shape7-25">
						<path class="st2" d="M38.7,70.7v5.9l5.2-3v-5.9L38.7,70.7z"/>
					</g>
				</g>
				<g id="group8-27">
					<g id="shape9-28">
						<path class="st2" d="M37.6,70.7l-5.2-3v5.9l5.2,3V70.7z"/>
					</g>
				</g>
			</g>
		</g>
		<g id="group10-30">
			<g id="shape11-31">
				<path class="st2" d="M97,58H67.3c-1,0-1.8,0.9-1.8,1.9v20.8c0,1,0.7,1.9,1.8,1.9h10.2c1.2,3.9-0.4,4.5-6.8,4.5v2.1h22v-2.1
					c-6.5,0-7.1-0.6-5.9-4.5h10.4c1,0,1.9-0.9,2.1-1.9V60C99.1,58.8,98.2,58,97,58z M96.6,60.6v19.5H68V60.6H96.6L96.6,60.6z"/>
			</g>
			<g id="group12-33">
				<g id="group13-34">
					<g id="shape14-35">
						<path class="st2" d="M87.2,66.7l-5.2-3l-5.2,3v0.1l5.2,3L87.2,66.7L87.2,66.7z"/>
					</g>
				</g>
				<g id="group15-37">
					<g id="shape16-38">
						<path class="st2" d="M82.4,70.7v5.9l5.2-3v-5.9L82.4,70.7z"/>
					</g>
				</g>
				<g id="group17-40">
					<g id="shape18-41">
						<path class="st2" d="M81.4,70.7l-5.2-3v5.9l5.2,3V70.7z"/>
					</g>
				</g>
			</g>
		</g>
	</g>
	<g id="shape78-58">
		<rect x="198.7" y="34.4" class="st3" width="133.5" height="38.8"/>
	</g>
	<g id="group303-60">
		<g id="group304-61">
			<g id="shape305-62">
				<path class="st2" d="M240,40.6h-25.3c-0.9,0-1.5,0.7-1.5,1.6v17.5c0,0.9,0.6,1.5,1.5,1.6h8.6c0.9,3.3-0.3,3.7-5.8,3.7v1.8h18.7
					v-1.6c-5.5,0-5.9-0.4-5.1-3.7h8.9c0.9,0,1.6-0.7,1.8-1.6V42.1C241.7,41.2,240.9,40.5,240,40.6z M239.4,42.7v16.5h-24.1V42.7
					H239.4L239.4,42.7z"/>
			</g>
			<g id="group306-64">
				<g id="group307-65">
					<g id="shape308-66">
						<path class="st2" d="M231.6,47.9l-4.5-2.5l-4.5,2.5l0,0l4.5,2.5L231.6,47.9z"/>
					</g>
				</g>
				<g id="group309-68">
					<g id="shape310-69">
						<path class="st2" d="M227.5,51.2v5.1l4.5-2.5v-5.1L227.5,51.2z"/>
					</g>
				</g>
				<g id="group311-71">
					<g id="shape312-72">
						<path class="st2" d="M226.7,51.2l-4.5-2.5v5.1l4.5,2.5V51.2z"/>
					</g>
				</g>
			</g>
		</g>
		<g id="group313-74">
			<g id="shape314-75">
				<path class="st2" d="M276.9,40.6h-25.3c-0.9,0-1.5,0.7-1.5,1.6v17.5c0,0.9,0.6,1.5,1.5,1.6h8.6c0.9,3.3-0.3,3.7-5.8,3.7v1.8H273
					v-1.6c-5.5,0-5.9-0.4-5.1-3.7h8.9c0.9,0,1.6-0.7,1.8-1.6V42.1C278.7,41.2,277.9,40.6,276.9,40.6z M276.5,42.7v16.5h-24.1V42.7
					H276.5L276.5,42.7z"/>
			</g>
			<g id="group315-77">
				<g id="group316-78">
					<g id="shape317-79">
						<path class="st2" d="M268.6,47.9l-4.5-2.5l-4.5,2.5l0,0l4.5,2.5L268.6,47.9z"/>
					</g>
				</g>
				<g id="group318-81">
					<g id="shape319-82">
						<path class="st2" d="M264.6,51.2v5.1l4.5-2.5v-5.1L264.6,51.2z"/>
					</g>
				</g>
				<g id="group320-84">
					<g id="shape321-85">
						<path class="st2" d="M263.7,51.2l-4.5-2.5v5.1l4.5,2.5V51.2z"/>
					</g>
				</g>
			</g>
		</g>
	</g>
	<g id="shape369-88">
		<rect x="198.7" y="75.9" class="st3" width="133.5" height="38.8"/>
	</g>
	<g id="group370-90">
		<g id="group371-91">
			<g id="shape372-92">
				<path class="st2" d="M240,82.1h-25.3c-0.9,0-1.5,0.7-1.5,1.6v17.5c0,0.9,0.6,1.5,1.5,1.6h8.6c0.9,3.3-0.3,3.7-5.8,3.7v1.8h18.7
					v-1.8c-5.5,0-5.9-0.4-5.1-3.7h8.9c0.9,0,1.6-0.7,1.8-1.6V83.7C241.7,82.9,240.9,82.1,240,82.1z M239.4,84.3v16.5h-24.1V84.3
					H239.4L239.4,84.3z"/>
			</g>
			<g id="group373-94">
				<g id="group374-95">
					<g id="shape375-96">
						<path class="st2" d="M231.6,89.4l-4.5-2.5l-4.5,2.5l0,0l4.5,2.5L231.6,89.4z"/>
					</g>
				</g>
				<g id="group376-98">
					<g id="shape377-99">
						<path class="st2" d="M227.5,92.8v5.1l4.5-2.5v-5.1L227.5,92.8z"/>
					</g>
				</g>
				<g id="group378-101">
					<g id="shape379-102">
						<path class="st2" d="M226.7,92.8l-4.5-2.5v5.1l4.5,2.5V92.8z"/>
					</g>
				</g>
			</g>
		</g>
		<g id="group380-104">
			<g id="shape381-105">
				<path class="st2" d="M276.9,82.1h-25.3c-0.9,0-1.5,0.7-1.5,1.6v17.5c0,0.9,0.6,1.5,1.5,1.6h8.6c0.9,3.3-0.3,3.7-5.8,3.7v1.8H273
					v-1.8c-5.5,0-5.9-0.4-5.1-3.7h8.9c0.9,0,1.6-0.7,1.8-1.6V83.7C278.7,82.9,277.9,82.1,276.9,82.1z M276.5,84.3v16.5h-24.1V84.3
					H276.5L276.5,84.3z"/>
			</g>
			<g id="group382-107">
				<g id="group383-108">
					<g id="shape384-109">
						<path class="st2" d="M268.6,89.4l-4.5-2.5l-4.5,2.5l0,0l4.5,2.5L268.6,89.4z"/>
					</g>
				</g>
				<g id="group385-111">
					<g id="shape386-112">
						<path class="st2" d="M264.6,92.8v5.1l4.5-2.5v-5.1L264.6,92.8z"/>
					</g>
				</g>
				<g id="group387-114">
					<g id="shape388-115">
						<path class="st2" d="M263.7,92.8l-4.5-2.5v5.1l4.5,2.5V92.8z"/>
					</g>
				</g>
			</g>
		</g>
	</g>
	<g>
		<path class="st2" d="M50.6,12.3h-1.1L48.6,10h-3.5l-0.8,2.3h-1.1L46.4,4h1L50.6,12.3z M48.4,9.1l-1.3-3.6c0-0.1-0.1-0.3-0.1-0.6
			l0,0c0,0.2-0.1,0.4-0.1,0.6l-1.4,3.6H48.4z"/>
		<path class="st2" d="M56.2,6.4l-2.4,5.9h-0.9l-2.3-5.9h1l1.5,4.3c0.1,0.3,0.2,0.6,0.2,0.8l0,0c0-0.3,0.1-0.6,0.2-0.8l1.6-4.3
			C55.1,6.4,56.2,6.4,56.2,6.4z"/>
		<path class="st2" d="M61.5,12.3h-1v-0.9l0,0c-0.4,0.7-1,1.1-1.8,1.1c-0.6,0-1.1-0.2-1.4-0.5c-0.3-0.3-0.5-0.7-0.5-1.2
			c0-1.1,0.7-1.8,2-1.9l1.7-0.4c0-1-0.4-1.5-1.2-1.5c-0.7,0-1.4,0.2-1.9,0.7v-1c0.6-0.4,1.3-0.6,2-0.6c1.4,0,2.1,0.7,2.1,2.2
			C61.5,8.3,61.5,12.3,61.5,12.3z M60.5,9.3l-1.4,0.2c-0.4,0.1-0.8,0.2-1,0.3c-0.2,0.2-0.3,0.4-0.3,0.8c0,0.3,0.1,0.5,0.3,0.7
			s0.4,0.3,0.8,0.3c0.5,0,0.9-0.2,1.2-0.5s0.4-0.7,0.4-1.2V9.3z"/>
		<path class="st2" d="M63.7,4.8c-0.2,0-0.3-0.1-0.4-0.2c-0.1-0.1-0.2-0.3-0.2-0.4s0.1-0.3,0.2-0.4c0.1-0.1,0.3-0.2,0.4-0.2
			c0.2,0,0.3,0.1,0.4,0.2c0.1,0.1,0.2,0.3,0.2,0.4c0,0.2-0.1,0.3-0.2,0.4C64,4.7,63.9,4.8,63.7,4.8z M64.2,12.3h-1V6.4h1V12.3z"/>
		<path class="st2" d="M67.1,12.3h-1V3.5h1V12.3z"/>
		<path class="st2" d="M73.3,12.3h-1v-0.9l0,0c-0.4,0.7-1,1.1-1.8,1.1c-0.6,0-1.1-0.2-1.4-0.5s-0.5-0.7-0.5-1.2c0-1.1,0.7-1.8,2-1.9
			l1.7-0.4c0-1-0.4-1.5-1.2-1.5c-0.7,0-1.4,0.2-1.9,0.7v-1c0.6-0.4,1.3-0.6,2-0.6c1.4,0,2.1,0.7,2.1,2.2V12.3z M72.3,9.3l-1.4,0.2
			c-0.4,0.1-0.8,0.2-1,0.3c-0.2,0.2-0.4,0.5-0.4,0.9c0,0.3,0.1,0.5,0.3,0.7c0.2,0.2,0.5,0.3,0.8,0.3c0.5,0,0.9-0.2,1.2-0.5
			c0.3-0.3,0.5-0.8,0.5-1.3V9.3z"/>
		<path class="st2" d="M76,11.4L76,11.4v0.9h-1V3.5h1v3.9l0,0c0.5-0.8,1.2-1.2,2.1-1.2c0.8,0,1.4,0.3,1.8,0.8s0.6,1.3,0.6,2.2
			c0,1-0.2,1.8-0.7,2.4s-1.1,0.9-2,0.9C77,12.4,76.4,12.1,76,11.4z M76,9v0.8c0,0.5,0.2,0.9,0.5,1.3s0.7,0.5,1.2,0.5
			c0.6,0,1-0.2,1.4-0.7c0.3-0.4,0.5-1.1,0.5-1.8c0-0.7-0.2-1.2-0.5-1.6s-0.7-0.6-1.2-0.6c-0.6,0-1,0.2-1.3,0.6C76.2,8,76,8.5,76,9z"
			/>
		<path class="st2" d="M82.5,4.8c-0.2,0-0.3-0.1-0.4-0.2s-0.2-0.3-0.2-0.4s0.1-0.3,0.2-0.4c0.1-0.1,0.3-0.2,0.4-0.2
			c0.2,0,0.3,0.1,0.4,0.2c0.1,0.1,0.2,0.3,0.2,0.4c0,0.2-0.1,0.3-0.2,0.4C82.9,4.8,82.7,4.8,82.5,4.8z M83,12.3h-1V6.4h1V12.3z"/>
		<path class="st2" d="M85.9,12.3h-1V3.5h1V12.3z"/>
		<path class="st2" d="M88.3,4.8c-0.2,0-0.3-0.1-0.4-0.2s-0.2-0.3-0.2-0.4s0.1-0.3,0.2-0.4c0.1-0.1,0.3-0.2,0.4-0.2
			c0.2,0,0.3,0.1,0.4,0.2c0.1,0.1,0.2,0.3,0.2,0.4c0,0.2-0.1,0.3-0.2,0.4C88.6,4.8,88.5,4.8,88.3,4.8z M88.8,12.3h-1V6.4h1V12.3z"/>
		<path class="st2" d="M93.5,12.2c-0.2,0.1-0.5,0.2-0.9,0.2c-1,0-1.6-0.6-1.6-1.7V7.2h-1V6.4h1V4.9l1-0.3v1.8h1.5v0.8H92v3.3
			c0,0.4,0.1,0.7,0.2,0.9c0.1,0.1,0.3,0.2,0.6,0.2c0.2,0,0.4-0.1,0.6-0.2L93.5,12.2L93.5,12.2z"/>
		<path class="st2" d="M99.5,6.4l-2.7,6.9c-0.5,1.2-1.2,1.8-2.1,1.8c-0.2,0-0.5,0-0.6-0.1v-0.9c0.2,0.1,0.4,0.1,0.6,0.1
			c0.5,0,0.8-0.3,1.1-0.9l0.5-1.1L94,6.3h1.1l1.4,4.6c0,0.1,0.1,0.2,0.1,0.5l0,0c0-0.1,0.1-0.2,0.1-0.4l1.8-4.6H99.5z"/>
		<path class="st2" d="M103.5,12v-1.2c0.1,0.1,0.3,0.2,0.5,0.3s0.4,0.2,0.6,0.2c0.2,0.1,0.4,0.1,0.6,0.1s0.4,0.1,0.6,0.1
			c0.6,0,1-0.1,1.3-0.3s0.4-0.5,0.4-1c0-0.2,0-0.4-0.1-0.6c-0.1-0.2-0.2-0.3-0.4-0.5c-0.2-0.1-0.4-0.3-0.6-0.4s-0.5-0.3-0.8-0.4
			c-0.3-0.1-0.6-0.3-0.8-0.4s-0.5-0.3-0.7-0.5s-0.3-0.4-0.4-0.6c-0.2-0.2-0.2-0.4-0.2-0.7c0-0.4,0.1-0.7,0.2-1s0.4-0.5,0.7-0.7
			c0.3-0.2,0.6-0.3,0.9-0.4c0.3-0.1,0.7-0.1,1.1-0.1c0.8,0,1.4,0.1,1.8,0.3v1.1c-0.5-0.3-1.1-0.5-1.9-0.5c-0.2,0-0.4,0-0.6,0.1
			s-0.4,0.1-0.6,0.2s-0.3,0.2-0.4,0.4s-0.2,0.2-0.2,0.5c0,0.2,0,0.4,0.1,0.6s0.2,0.3,0.4,0.4s0.3,0.3,0.6,0.4
			c0.2,0.1,0.5,0.3,0.8,0.4s0.6,0.3,0.8,0.5c0.3,0.2,0.5,0.3,0.7,0.5s0.4,0.4,0.5,0.7c0.1,0.2,0.2,0.5,0.2,0.8c0,0.4-0.1,0.8-0.2,1
			c-0.2,0.3-0.4,0.5-0.7,0.7c-0.3,0.2-0.6,0.3-0.9,0.4s-0.7,0.1-1.1,0.1c-0.1,0-0.3,0-0.5,0s-0.4-0.1-0.6-0.1s-0.4-0.1-0.6-0.2
			S103.6,12,103.5,12z"/>
		<path class="st2" d="M114.8,9.6h-4.2c0,0.7,0.2,1.2,0.5,1.5c0.3,0.3,0.8,0.5,1.4,0.5c0.7,0,1.3-0.2,1.8-0.7v0.9
			c-0.5,0.4-1.2,0.6-2.1,0.6c-0.8,0-1.5-0.3-2-0.8s-0.7-1.3-0.7-2.3c0-0.9,0.3-1.7,0.8-2.3s1.2-0.9,2-0.9s1.4,0.3,1.8,0.8
			s0.6,1.2,0.6,2.1L114.8,9.6L114.8,9.6z M113.9,8.8c0-0.6-0.1-1-0.4-1.3S112.9,7,112.4,7c-0.4,0-0.8,0.2-1.1,0.5
			c-0.3,0.3-0.5,0.7-0.6,1.3H113.9z"/>
		<path class="st2" d="M119,12.2c-0.2,0.1-0.5,0.2-0.9,0.2c-1,0-1.6-0.6-1.6-1.7V7.2h-1V6.4h1V4.9l1-0.3v1.8h1.5v0.8h-1.5v3.3
			c0,0.4,0.1,0.7,0.2,0.9c0.1,0.2,0.4,0.3,0.7,0.3c0.2,0,0.4-0.1,0.6-0.2C119,11.5,119,12.2,119,12.2z"/>
	</g>
	<g>
		<path class="st2" d="M227.5,12.3h-1.1l-0.9-2.3H222l-0.8,2.3h-1.1l3.2-8.3h1L227.5,12.3z M225.2,9.1l-1.3-3.6
			c0-0.1-0.1-0.3-0.1-0.6l0,0c0,0.2-0.1,0.4-0.1,0.6L222.4,9h2.8V9.1z"/>
		<path class="st2" d="M233,6.4l-2.4,5.9h-0.9l-2.2-5.9h1l1.5,4.3c0.1,0.3,0.2,0.6,0.2,0.8l0,0c0-0.3,0.1-0.6,0.2-0.8l1.6-4.3
			C232,6.4,233,6.4,233,6.4z"/>
		<path class="st2" d="M238.3,12.3h-1v-0.9l0,0c-0.4,0.7-1,1.1-1.8,1.1c-0.6,0-1.1-0.2-1.4-0.5s-0.5-0.7-0.5-1.2
			c0-1.1,0.7-1.8,2-1.9l1.8-0.2c0-1-0.4-1.5-1.2-1.5c-0.7,0-1.4,0.2-1.9,0.7v-1c0.6-0.4,1.3-0.6,2-0.6c1.4,0,2.1,0.7,2.1,2.2v3.8
			H238.3z M237.3,9.3l-1.4,0.2c-0.4,0.1-0.8,0.2-1,0.3c-0.2,0.2-0.3,0.4-0.3,0.8c0,0.3,0.1,0.5,0.3,0.7s0.5,0.3,0.8,0.3
			c0.5,0,0.9-0.2,1.2-0.5s0.5-0.8,0.5-1.3L237.3,9.3L237.3,9.3z"/>
		<path class="st2" d="M240.6,4.8c-0.2,0-0.3-0.1-0.4-0.2c-0.1-0.1-0.2-0.3-0.2-0.4s0.1-0.3,0.2-0.4c0.1-0.1,0.3-0.2,0.4-0.2
			c0.2,0,0.3,0.1,0.4,0.2c0.1,0.1,0.2,0.3,0.2,0.4c0,0.2-0.1,0.3-0.2,0.4C240.9,4.8,240.7,4.8,240.6,4.8z M241,12.3h-1V6.4h1V12.3z"
			/>
		<path class="st2" d="M243.9,12.3h-1V3.5h1V12.3z"/>
		<path class="st2" d="M250.1,12.3h-1v-0.9l0,0c-0.4,0.7-1,1.1-1.8,1.1c-0.6,0-1.1-0.2-1.4-0.5s-0.5-0.7-0.5-1.2
			c0-1.1,0.7-1.8,2-1.9l1.8-0.2c0-1-0.4-1.5-1.2-1.5c-0.7,0-1.4,0.2-1.9,0.7v-1c0.6-0.4,1.3-0.6,2-0.6c1.4,0,2.1,0.7,2.1,2.2v3.8
			H250.1z M249.1,9.3l-1.4,0.2c-0.4,0.1-0.8,0.2-1,0.3s-0.3,0.4-0.3,0.8c0,0.3,0.1,0.5,0.3,0.7s0.5,0.3,0.8,0.3
			c0.5,0,0.9-0.2,1.2-0.5s0.5-0.8,0.5-1.3L249.1,9.3L249.1,9.3z"/>
		<path class="st2" d="M252.9,11.4L252.9,11.4v0.9h-1V3.5h1v3.9l0,0c0.5-0.8,1.2-1.2,2.1-1.2c0.8,0,1.4,0.3,1.8,0.8
			c0.4,0.5,0.6,1.2,0.6,2.1c0,1-0.2,1.8-0.7,2.4s-1.1,0.9-2,0.9C253.9,12.4,253.3,12.1,252.9,11.4z M252.8,9v0.8
			c0,0.5,0.2,0.9,0.5,1.3s0.7,0.5,1.2,0.5c0.6,0,1-0.2,1.4-0.7c0.3-0.4,0.5-1.1,0.5-1.8c0-0.7-0.2-1.2-0.5-1.6
			c-0.3-0.4-0.7-0.6-1.2-0.6c-0.6,0-1,0.2-1.3,0.6C253,8,252.8,8.5,252.8,9z"/>
		<path class="st2" d="M259.4,4.8c-0.2,0-0.3-0.1-0.4-0.2c-0.1-0.1-0.2-0.3-0.2-0.4s0.1-0.3,0.2-0.4c0.1-0.1,0.3-0.2,0.4-0.2
			c0.2,0,0.3,0.1,0.4,0.2c0.1,0.1,0.2,0.3,0.2,0.4c0,0.2-0.1,0.3-0.2,0.4C259.7,4.8,259.5,4.8,259.4,4.8z M259.8,12.3h-1V6.4h1V12.3
			z"/>
		<path class="st2" d="M262.7,12.3h-1V3.5h1V12.3z"/>
		<path class="st2" d="M265.1,4.8c-0.2,0-0.3-0.1-0.4-0.2s-0.2-0.3-0.2-0.4s0.1-0.3,0.2-0.4c0.1-0.1,0.3-0.2,0.4-0.2
			c0.2,0,0.3,0.1,0.4,0.2c0.1,0.1,0.2,0.3,0.2,0.4c0,0.2-0.1,0.3-0.2,0.4S265.3,4.8,265.1,4.8z M265.6,12.3h-1V6.4h1V12.3z"/>
		<path class="st2" d="M270.3,12.2c-0.2,0.1-0.5,0.2-0.9,0.2c-1,0-1.6-0.6-1.6-1.7V7.2h-1V6.4h1V4.9l1-0.3v1.8h1.5v0.8h-1.5v3.3
			c0,0.4,0.1,0.7,0.2,0.9c0.1,0.2,0.4,0.3,0.7,0.3c0.2,0,0.4-0.1,0.6-0.2L270.3,12.2L270.3,12.2z"/>
		<path class="st2" d="M276.3,6.4l-2.7,6.9c-0.5,1.2-1.2,1.8-2.1,1.8c-0.2,0-0.5,0-0.6-0.1v-0.9c0.2,0.1,0.4,0.1,0.6,0.1
			c0.5,0,0.8-0.3,1.1-0.9l0.5-1.1l-2.3-5.9h1.1l1.6,4.6c0,0.1,0.1,0.2,0.1,0.5l0,0c0-0.1,0.1-0.2,0.1-0.4l1.7-4.6
			C275.4,6.4,276.3,6.4,276.3,6.4z"/>
		<path class="st2" d="M286.1,4.2l-4.9,7.2h4.8v0.9h-6.2V12l4.8-7.2h-4.4V4h5.9L286.1,4.2L286.1,4.2z"/>
		<path class="st2" d="M289.8,12.4c-0.9,0-1.6-0.3-2.1-0.8c-0.5-0.6-0.8-1.3-0.8-2.2c0-1,0.3-1.8,0.8-2.3c0.5-0.6,1.3-0.8,2.2-0.8
			c0.9,0,1.6,0.3,2.1,0.8s0.7,1.3,0.7,2.3c0,0.9-0.3,1.7-0.8,2.3C291.5,12.2,290.7,12.4,289.8,12.4z M289.9,7
			c-0.6,0-1.1,0.2-1.5,0.6s-0.5,1-0.5,1.7s0.2,1.3,0.5,1.7s0.8,0.6,1.4,0.6s1.1-0.2,1.4-0.6c0.3-0.4,0.5-1,0.5-1.7s-0.2-1.3-0.5-1.7
			S290.5,7,289.9,7z"/>
		<path class="st2" d="M299.3,12.3h-1V8.9c0-1.3-0.5-1.9-1.4-1.9c-0.5,0-0.9,0.2-1.2,0.5c-0.3,0.4-0.5,0.8-0.5,1.4v3.4h-1V6.4h1v1
			l0,0c0.4-0.8,1.1-1.1,2-1.1c0.7,0,1.1,0.2,1.5,0.6c0.3,0.4,0.5,1,0.5,1.8v3.6H299.3z"/>
		<path class="st2" d="M305.8,9.6h-4.2c0,0.7,0.2,1.2,0.5,1.5c0.3,0.4,0.8,0.5,1.4,0.5c0.7,0,1.3-0.2,1.8-0.7v0.9
			c-0.5,0.4-1.2,0.6-2.1,0.6c-0.8,0-1.5-0.3-2-0.8s-0.7-1.3-0.7-2.3c0-0.9,0.3-1.7,0.8-2.3s1.2-0.9,2-0.9s1.4,0.3,1.8,0.8
			s0.6,1.2,0.6,2.1v0.6H305.8z M304.9,8.8c0-0.6-0.1-1-0.4-1.3S303.9,7,303.4,7s-0.8,0.2-1.1,0.5c-0.3,0.3-0.5,0.7-0.6,1.3H304.9z"
			/>
		<path class="st2" d="M306.9,12.1v-1c0.5,0.4,1.1,0.6,1.7,0.6c0.8,0,1.3-0.3,1.3-0.8c0-0.2,0-0.3-0.1-0.4c-0.1-0.1-0.2-0.2-0.3-0.3
			c-0.1-0.1-0.3-0.2-0.4-0.2c-0.2-0.1-0.3-0.1-0.5-0.2c-0.3-0.1-0.5-0.2-0.7-0.3c-0.2-0.1-0.4-0.2-0.5-0.4c-0.1-0.1-0.2-0.3-0.3-0.5
			C307,8.4,307,8.2,307,8c0-0.3,0.1-0.5,0.2-0.7c0.1-0.2,0.3-0.4,0.5-0.5c0.2-0.1,0.5-0.3,0.7-0.3c0.3-0.1,0.6-0.1,0.8-0.1
			c0.5,0,1,0.1,1.4,0.3v1c-0.4-0.3-0.9-0.4-1.5-0.4c-0.2,0-0.3,0-0.5,0.1c-0.1,0-0.3,0.1-0.4,0.2S308,7.8,308,7.9
			c-0.1,0.1-0.1,0.2-0.1,0.3c0,0.2,0,0.3,0.1,0.4c0.1,0.1,0.1,0.2,0.2,0.3c0.1,0.1,0.2,0.2,0.4,0.2c0.2,0.1,0.3,0.1,0.5,0.2
			c0.3,0.1,0.5,0.2,0.7,0.3s0.4,0.2,0.5,0.4c0.1,0.1,0.3,0.3,0.3,0.5c0.1,0.2,0.1,0.4,0.1,0.6c0,0.3-0.1,0.6-0.2,0.8
			s-0.3,0.4-0.5,0.5s-0.5,0.2-0.7,0.3c-0.3,0.1-0.6,0.1-0.9,0.1C307.9,12.4,307.4,12.3,306.9,12.1z"/>
	</g>
	<g>
		<path class="st2" d="M408.7,9.2v3.1h-1V4h2.3c0.9,0,1.6,0.2,2.1,0.7c0.5,0.4,0.7,1,0.7,1.8s-0.3,1.4-0.8,1.9s-1.3,0.8-2.2,0.8
			C409.8,9.2,408.7,9.2,408.7,9.2z M408.7,4.9v3.4h1c0.7,0,1.2-0.2,1.5-0.5s0.5-0.7,0.5-1.3c0-1.1-0.7-1.6-2-1.6
			C409.7,4.9,408.7,4.9,408.7,4.9z"/>
		<path class="st2" d="M418.1,12.3h-1v-0.9l0,0c-0.4,0.7-1,1.1-1.8,1.1c-0.6,0-1.1-0.2-1.4-0.5s-0.5-0.7-0.5-1.2
			c0-1.1,0.7-1.8,2-1.9l1.8-0.2c0-1-0.4-1.5-1.2-1.5c-0.7,0-1.4,0.2-1.9,0.7v-1c0.6-0.4,1.3-0.6,2-0.6c1.4,0,2.1,0.7,2.1,2.2v3.8
			H418.1z M417.2,9.3l-1.4,0.2c-0.4,0.1-0.8,0.2-1,0.3c-0.2,0.2-0.3,0.4-0.3,0.8c0,0.3,0.1,0.5,0.3,0.7c0.2,0.2,0.5,0.3,0.8,0.3
			c0.5,0,0.9-0.2,1.2-0.5s0.5-0.8,0.5-1.3L417.2,9.3L417.2,9.3z"/>
		<path class="st2" d="M420.4,4.8c-0.2,0-0.3-0.1-0.4-0.2s-0.2-0.3-0.2-0.4s0.1-0.3,0.2-0.4c0.1-0.1,0.3-0.2,0.4-0.2
			c0.2,0,0.3,0.1,0.4,0.2c0.1,0.1,0.2,0.3,0.2,0.4c0,0.2-0.1,0.3-0.2,0.4C420.7,4.8,420.6,4.8,420.4,4.8z M420.9,12.3h-1V6.4h1V12.3
			z"/>
		<path class="st2" d="M425.9,7.3c-0.2-0.1-0.4-0.2-0.7-0.2c-0.4,0-0.7,0.2-1,0.6s-0.4,0.9-0.4,1.6v3h-1V6.4h1v1.2l0,0
			c0.1-0.4,0.3-0.7,0.6-1c0.3-0.2,0.6-0.4,0.9-0.4c0.2,0,0.4,0,0.6,0.1V7.3z"/>
		<path class="st2" d="M431.7,9.6h-4.2c0,0.7,0.2,1.2,0.5,1.5c0.3,0.4,0.8,0.5,1.4,0.5c0.7,0,1.3-0.2,1.8-0.7v0.9
			c-0.5,0.4-1.2,0.6-2.1,0.6c-0.8,0-1.5-0.3-2-0.8s-0.7-1.3-0.7-2.3c0-0.9,0.3-1.7,0.8-2.3s1.2-0.9,2-0.9s1.4,0.3,1.8,0.8
			s0.6,1.2,0.6,2.1v0.6H431.7z M430.8,8.8c0-0.6-0.1-1-0.4-1.3S429.8,7,429.3,7s-0.8,0.2-1.1,0.5s-0.5,0.7-0.6,1.3H430.8z"/>
		<path class="st2" d="M438.2,12.3h-1v-1l0,0c-0.4,0.8-1.1,1.1-2,1.1c-0.7,0-1.3-0.3-1.8-0.8c-0.4-0.5-0.7-1.3-0.7-2.2
			c0-1,0.2-1.8,0.7-2.4s1.2-0.9,2-0.9s1.4,0.3,1.8,1l0,0V3.5h1V12.3z M437.3,9.6V8.7c0-0.5-0.2-0.9-0.5-1.2
			c-0.3-0.3-0.7-0.5-1.2-0.5c-0.6,0-1,0.2-1.4,0.6c-0.3,0.4-0.5,1-0.5,1.8c0,0.7,0.2,1.2,0.5,1.6c0.3,0.4,0.7,0.6,1.3,0.6
			c0.5,0,1-0.2,1.3-0.6C437.1,10.6,437.3,10.2,437.3,9.6z"/>
		<path class="st2" d="M449.5,12.3h-1.2l-1.4-2.3c-0.1-0.2-0.3-0.4-0.4-0.6c-0.1-0.2-0.2-0.3-0.4-0.4c-0.1-0.1-0.3-0.2-0.4-0.2
			s-0.3-0.1-0.5-0.1h-0.7v3.5h-1V4h2.5c0.4,0,0.7,0,1,0.1s0.6,0.2,0.8,0.4s0.4,0.4,0.5,0.7c0.1,0.3,0.2,0.6,0.2,1
			c0,0.3,0,0.6-0.1,0.8s-0.2,0.5-0.4,0.6c-0.2,0.2-0.4,0.4-0.6,0.5c-0.2,0.1-0.5,0.2-0.8,0.3l0,0c0.1,0.1,0.3,0.1,0.4,0.2
			c0.1,0.1,0.2,0.2,0.3,0.3c0.1,0.1,0.2,0.2,0.3,0.4c0.1,0.1,0.2,0.3,0.3,0.5L449.5,12.3z M444.5,4.9v3h1.3c0.2,0,0.5,0,0.7-0.1
			s0.4-0.2,0.5-0.3c0.2-0.1,0.3-0.3,0.4-0.5s0.1-0.4,0.1-0.7c0-0.4-0.1-0.8-0.4-1c-0.3-0.2-0.7-0.4-1.3-0.4H444.5z"/>
		<path class="st2" d="M455,9.6h-4.2c0,0.7,0.2,1.2,0.5,1.5c0.3,0.4,0.8,0.5,1.4,0.5c0.7,0,1.3-0.2,1.8-0.7v0.9
			c-0.5,0.4-1.2,0.6-2.1,0.6c-0.8,0-1.5-0.3-2-0.8s-0.7-1.3-0.7-2.3c0-0.9,0.3-1.7,0.8-2.3s1.2-0.9,2-0.9s1.4,0.3,1.8,0.8
			s0.6,1.2,0.6,2.1v0.6H455z M454,8.8c0-0.6-0.1-1-0.4-1.3S453,7,452.5,7s-0.8,0.2-1.1,0.5s-0.5,0.7-0.6,1.3H454z"/>
		<path class="st2" d="M461.5,11.8c0,2.2-1,3.3-3.1,3.3c-0.7,0-1.4-0.1-1.9-0.4v-1c0.7,0.4,1.3,0.6,1.9,0.6c1.5,0,2.2-0.8,2.2-2.3
			v-0.7l0,0c-0.5,0.8-1.1,1.1-2,1.1c-0.7,0-1.3-0.3-1.8-0.8s-0.7-1.2-0.7-2.1c0-1,0.2-1.8,0.7-2.4s1.1-0.9,2-0.9
			c0.8,0,1.4,0.3,1.8,1l0,0V6.4h1v5.4H461.5z M460.5,9.6V8.7c0-0.5-0.2-0.9-0.5-1.2c-0.3-0.3-0.7-0.5-1.2-0.5c-0.6,0-1,0.2-1.4,0.6
			c-0.3,0.4-0.5,1-0.5,1.8c0,0.7,0.2,1.2,0.5,1.6c0.3,0.4,0.7,0.6,1.3,0.6c0.5,0,1-0.2,1.3-0.6C460.4,10.7,460.5,10.2,460.5,9.6z"/>
		<path class="st2" d="M463.9,4.8c-0.2,0-0.3-0.1-0.4-0.2s-0.2-0.3-0.2-0.4s0.1-0.3,0.2-0.4c0.1-0.1,0.3-0.2,0.4-0.2
			c0.2,0,0.3,0.1,0.4,0.2c0.1,0.1,0.2,0.3,0.2,0.4c0,0.2-0.1,0.3-0.2,0.4S464.1,4.8,463.9,4.8z M464.4,12.3h-1V6.4h1V12.3z"/>
		<path class="st2" d="M468.8,12.4c-0.9,0-1.6-0.3-2.1-0.8c-0.5-0.6-0.8-1.3-0.8-2.2c0-1,0.3-1.8,0.8-2.3c0.5-0.6,1.3-0.8,2.2-0.8
			c0.9,0,1.6,0.3,2.1,0.8s0.7,1.3,0.7,2.3c0,0.9-0.3,1.7-0.8,2.3C470.4,12.2,469.7,12.4,468.8,12.4z M468.9,7
			c-0.6,0-1.1,0.2-1.5,0.6s-0.5,1-0.5,1.7s0.2,1.3,0.5,1.7c0.4,0.4,0.8,0.6,1.4,0.6s1.1-0.2,1.4-0.6c0.3-0.4,0.5-1,0.5-1.7
			s-0.2-1.3-0.5-1.7S469.5,7,468.9,7z"/>
		<path class="st2" d="M478.2,12.3h-1V8.9c0-1.3-0.5-1.9-1.4-1.9c-0.5,0-0.9,0.2-1.2,0.5c-0.3,0.4-0.5,0.8-0.5,1.4v3.4h-1V6.4h1v1
			l0,0c0.4-0.8,1.1-1.1,2-1.1c0.7,0,1.1,0.2,1.5,0.6c0.3,0.4,0.5,1,0.5,1.8v3.6H478.2z"/>
		<path class="st2" d="M479.6,12.1v-1c0.5,0.4,1.1,0.6,1.7,0.6c0.8,0,1.3-0.3,1.3-0.8c0-0.2,0-0.3-0.1-0.4c-0.1-0.1-0.2-0.2-0.3-0.3
			c-0.1-0.1-0.3-0.2-0.4-0.2c-0.2-0.1-0.3-0.1-0.5-0.2c-0.3-0.1-0.5-0.2-0.7-0.3c-0.2-0.1-0.4-0.2-0.5-0.4c-0.1-0.1-0.2-0.3-0.3-0.5
			c-0.1-0.2-0.1-0.4-0.1-0.6c0-0.3,0.1-0.5,0.2-0.7c0.1-0.2,0.3-0.4,0.5-0.5c0.2-0.1,0.5-0.3,0.7-0.3s0.6-0.1,0.8-0.1
			c0.5,0,1,0.1,1.4,0.3v1c-0.4-0.3-0.9-0.4-1.5-0.4c-0.2,0-0.3,0-0.5,0.1c-0.1,0-0.3,0.1-0.4,0.2s-0.2,0.2-0.2,0.3
			c-0.1,0.1-0.1,0.2-0.1,0.3c0,0.2,0,0.3,0.1,0.4c0.1,0.1,0.1,0.2,0.2,0.3c0.1,0.1,0.2,0.2,0.4,0.2c0.2,0.1,0.3,0.1,0.5,0.2
			c0.3,0.1,0.5,0.2,0.7,0.3s0.4,0.2,0.5,0.4c0.1,0.1,0.3,0.3,0.3,0.5c0.1,0.2,0.1,0.4,0.1,0.6c0,0.3-0.1,0.6-0.2,0.8
			s-0.3,0.4-0.5,0.5s-0.5,0.2-0.7,0.3c-0.3,0.1-0.6,0.1-0.9,0.1C480.6,12.4,480.1,12.3,479.6,12.1z"/>
	</g>
	<g>
		<path class="st4" d="M55.8,124.7l-2.3,6.2h-0.8l-2.3-6.2h0.8l1.7,5c0.1,0.2,0.1,0.3,0.1,0.6l0,0c0-0.2,0.1-0.4,0.1-0.6l1.8-4.9
			L55.8,124.7L55.8,124.7z"/>
		<path class="st4" d="M56.9,125.4c-0.1,0-0.2,0-0.3-0.1s-0.1-0.2-0.1-0.3s0-0.2,0.1-0.3s0.2-0.1,0.3-0.1s0.2,0,0.3,0.1
			s0.1,0.2,0.1,0.3c0,0.1,0,0.2-0.1,0.3C57.2,125.3,57.1,125.4,56.9,125.4z M57.3,130.9h-0.7v-4.4h0.7V130.9z"/>
		<path class="st4" d="M61.1,127.2c-0.1-0.1-0.3-0.1-0.5-0.1c-0.3,0-0.6,0.1-0.8,0.4s-0.3,0.7-0.3,1.2v2.3h-0.7v-4.5h0.7v0.9l0,0
			c0.1-0.3,0.3-0.6,0.5-0.7c0.2-0.2,0.4-0.3,0.7-0.3c0.2,0,0.3,0,0.4,0.1C61.1,126.5,61.1,127.2,61.1,127.2z"/>
		<path class="st4" d="M63.9,130.9c-0.2,0.1-0.4,0.1-0.7,0.1c-0.8,0-1.2-0.4-1.2-1.3v-2.6h-0.8v-0.6H62v-1.1l0.7-0.2v1.3h1.1v0.6
			h-1.1v2.5c0,0.3,0.1,0.5,0.2,0.6c0.1,0.1,0.3,0.2,0.5,0.2s0.3,0,0.5-0.1V130.9z"/>
		<path class="st4" d="M68.5,130.9h-0.7v-0.7l0,0c-0.3,0.5-0.8,0.8-1.4,0.8c-1.1,0-1.6-0.6-1.6-1.9v-2.6h0.7v2.6
			c0,0.9,0.4,1.4,1.1,1.4c0.3,0,0.6-0.1,0.9-0.4c0.3-0.3,0.3-0.6,0.3-1v-2.6h0.7V130.9z"/>
		<path class="st4" d="M73.1,130.9h-0.7v-0.7l0,0c-0.3,0.5-0.8,0.8-1.4,0.8c-0.4,0-0.8-0.1-1-0.4c-0.3-0.2-0.4-0.5-0.4-0.9
			c0-0.8,0.5-1.3,1.5-1.5l1.3-0.2c0-0.8-0.3-1.1-0.9-1.1c-0.5,0-1,0.2-1.5,0.5v-0.7c0.4-0.3,0.9-0.4,1.5-0.4c1,0,1.6,0.6,1.6,1.7
			V130.9z M72.4,128.7l-1.1,0.1c-0.3,0-0.6,0.1-0.7,0.2c-0.2,0.1-0.3,0.3-0.3,0.6c0,0.2,0.1,0.4,0.2,0.5s0.4,0.2,0.6,0.2
			c0.4,0,0.6-0.1,0.9-0.4c0.2-0.2,0.3-0.6,0.3-0.9L72.4,128.7L72.4,128.7z"/>
		<path class="st4" d="M75.2,130.9h-0.7v-6.6h0.7V130.9z"/>
		<path class="st4" d="M84.2,130.9h-0.9l-3.2-5c-0.1-0.1-0.1-0.3-0.2-0.4l0,0c0,0.1,0,0.4,0,0.9v4.5h-0.7v-6.2h0.9l3.1,4.9
			c0.1,0.2,0.2,0.3,0.3,0.4l0,0c0-0.2,0-0.5,0-0.9v-4.4h0.7C84.2,124.7,84.2,130.9,84.2,130.9z"/>
		<path class="st4" d="M89.3,128.9h-3.1c0,0.5,0.1,0.9,0.4,1.2c0.3,0.3,0.6,0.4,1.1,0.4s1-0.2,1.4-0.5v0.7c-0.4,0.3-0.9,0.4-1.6,0.4
			c-0.6,0-1.1-0.2-1.5-0.6s-0.5-1-0.5-1.7s0.2-1.3,0.6-1.7c0.4-0.4,0.9-0.7,1.5-0.7s1,0.2,1.4,0.6c0.3,0.4,0.5,0.9,0.5,1.6v0.3H89.3
			z M88.6,128.3c0-0.4-0.1-0.7-0.3-1c-0.2-0.2-0.5-0.3-0.8-0.3s-0.6,0.1-0.9,0.4c-0.2,0.2-0.4,0.6-0.4,0.9H88.6z"/>
		<path class="st4" d="M92.4,130.9c-0.2,0.1-0.4,0.1-0.7,0.1c-0.8,0-1.2-0.4-1.2-1.3v-2.6h-0.8v-0.6h0.8v-1.1l0.7-0.2v1.3h1.1v0.6
			h-1.1v2.5c0,0.3,0.1,0.5,0.2,0.6c0.1,0.1,0.3,0.2,0.5,0.2s0.3,0,0.5-0.1V130.9z"/>
		<path class="st4" d="M99,126.5l-1.3,4.5H97l-0.9-3.2c0-0.1-0.1-0.3-0.1-0.4l0,0c0,0.1,0,0.2-0.1,0.4l-1,3.2h-0.7l-1.4-4.5h0.7
			l0.9,3.4c0,0.1,0,0.2,0.1,0.4l0,0c0-0.1,0-0.3,0.1-0.4l1-3.3h0.7l0.9,3.4c0,0.1,0.1,0.2,0.1,0.4l0,0c0-0.1,0-0.2,0.1-0.4l0.9-3.4
			L99,126.5L99,126.5z"/>
		<path class="st4" d="M101.7,131.1c-0.7,0-1.2-0.2-1.6-0.6s-0.6-1-0.6-1.7s0.2-1.3,0.6-1.8c0.4-0.4,1-0.6,1.7-0.6s1.2,0.2,1.6,0.6
			s0.6,1,0.6,1.7s-0.2,1.3-0.6,1.7C102.9,130.8,102.4,131.1,101.7,131.1z M101.8,127c-0.5,0-0.8,0.2-1.1,0.5
			c-0.3,0.3-0.4,0.7-0.4,1.3c0,0.5,0.1,0.9,0.4,1.3c0.3,0.3,0.6,0.5,1.1,0.5s0.8-0.2,1.1-0.4c0.3-0.2,0.4-0.7,0.4-1.3
			c0-0.6-0.1-1-0.4-1.3C102.6,127.1,102.2,127,101.8,127z"/>
		<path class="st4" d="M107.4,127.2c-0.1-0.1-0.3-0.1-0.5-0.1c-0.3,0-0.6,0.1-0.8,0.4s-0.3,0.7-0.3,1.2v2.3h-0.7v-4.5h0.7v0.9l0,0
			c0.1-0.3,0.3-0.6,0.5-0.7c0.2-0.2,0.4-0.3,0.7-0.3c0.2,0,0.3,0,0.4,0.1C107.4,126.5,107.4,127.2,107.4,127.2z"/>
		<path class="st4" d="M111.9,130.9h-1l-2-2.1l0,0v2.1h-0.7v-6.6h0.7v4.2l0,0l1.9-2h0.9l-2.1,2.2L111.9,130.9z"/>
	</g>
	<g>
		<path class="st4" d="M245,125.3l-2.3,6.2h-0.8l-2.3-6.2h0.8l1.7,5c0.1,0.2,0.1,0.3,0.1,0.6l0,0c0-0.2,0.1-0.4,0.1-0.6l1.8-4.9
			L245,125.3L245,125.3z"/>
		<path class="st4" d="M246.1,125.9c-0.1,0-0.2,0-0.3-0.1s-0.1-0.2-0.1-0.3s0-0.2,0.1-0.3s0.2-0.1,0.3-0.1s0.2,0,0.3,0.1
			s0.1,0.2,0.1,0.3c0,0.1,0,0.2-0.1,0.3C246.4,125.9,246.3,125.9,246.1,125.9z M246.5,131.5h-0.7V127h0.7V131.5z"/>
		<path class="st4" d="M250.3,127.8c-0.1-0.1-0.3-0.1-0.5-0.1c-0.3,0-0.6,0.1-0.8,0.4s-0.3,0.7-0.3,1.2v2.3H248v-4.5h0.7v0.9l0,0
			c0.1-0.3,0.3-0.6,0.5-0.7c0.2-0.2,0.4-0.3,0.7-0.3c0.2,0,0.3,0,0.4,0.1L250.3,127.8L250.3,127.8z"/>
		<path class="st4" d="M253.1,131.5c-0.2,0.1-0.4,0.1-0.7,0.1c-0.8,0-1.2-0.4-1.2-1.3v-2.6h-0.7v-0.6h0.8V126l0.7-0.2v1.3h1.1v0.6
			H252v2.5c0,0.3,0.1,0.5,0.2,0.6c0.1,0.1,0.3,0.2,0.5,0.2s0.3,0,0.5-0.1L253.1,131.5L253.1,131.5z"/>
		<path class="st4" d="M257.7,131.5H257v-0.7l0,0c-0.3,0.5-0.8,0.8-1.4,0.8c-1.1,0-1.6-0.6-1.6-1.9V127h0.7v2.6
			c0,0.9,0.4,1.4,1.1,1.4c0.3,0,0.6-0.1,0.9-0.4s0.3-0.6,0.3-1V127h0.7V131.5z"/>
		<path class="st4" d="M262.3,131.5h-0.7v-0.7l0,0c-0.3,0.5-0.8,0.8-1.4,0.8c-0.4,0-0.8-0.1-1-0.4c-0.3-0.2-0.4-0.5-0.4-0.9
			c0-0.8,0.5-1.3,1.5-1.5l1.3-0.2c0-0.8-0.3-1.1-0.9-1.1c-0.5,0-1,0.2-1.5,0.5v-0.7c0.4-0.3,0.9-0.4,1.5-0.4c1,0,1.6,0.6,1.6,1.7
			V131.5z M261.6,129.3l-1.1,0.1c-0.3,0-0.6,0.1-0.7,0.2c-0.2,0.1-0.3,0.3-0.3,0.6c0,0.2,0.1,0.4,0.2,0.5s0.4,0.2,0.6,0.2
			c0.4,0,0.6-0.1,0.9-0.4c0.2-0.2,0.3-0.6,0.3-0.9v-0.3H261.6z"/>
		<path class="st4" d="M264.4,131.5h-0.7v-6.6h0.7V131.5z"/>
		<path class="st4" d="M273.4,131.5h-0.9l-3.2-5c-0.1-0.1-0.1-0.3-0.2-0.4l0,0c0,0.1,0,0.4,0,0.9v4.5h-0.7v-6.2h0.9l3.1,4.9
			c0.1,0.2,0.2,0.3,0.3,0.4l0,0c0-0.2,0-0.5,0-0.9v-4.4h0.7L273.4,131.5L273.4,131.5z"/>
		<path class="st4" d="M278.5,129.5h-3.1c0,0.5,0.1,0.9,0.4,1.2s0.6,0.4,1.1,0.4s1-0.2,1.4-0.5v0.7c-0.4,0.3-0.9,0.4-1.6,0.4
			c-0.6,0-1.1-0.2-1.5-0.6c-0.4-0.4-0.5-1-0.5-1.7c0-0.7,0.2-1.3,0.6-1.7s0.9-0.7,1.5-0.7s1,0.2,1.4,0.6c0.3,0.4,0.5,0.9,0.5,1.6
			v0.3H278.5z M277.8,128.9c0-0.4-0.1-0.7-0.3-1c-0.2-0.3-0.5-0.3-0.8-0.3s-0.6,0.1-0.9,0.4c-0.2,0.2-0.4,0.6-0.4,0.9H277.8z"/>
		<path class="st4" d="M281.7,131.5c-0.2,0.1-0.4,0.1-0.7,0.1c-0.8,0-1.2-0.4-1.2-1.3v-2.6H279v-0.6h0.8V126l0.7-0.2v1.3h1.1v0.6
			h-1.1v2.5c0,0.3,0.1,0.5,0.2,0.6c0.1,0.1,0.3,0.2,0.5,0.2s0.3,0,0.5-0.1V131.5z"/>
		<path class="st4" d="M288.2,127.1l-1.3,4.5h-0.7l-0.9-3.2c0-0.1-0.1-0.3-0.1-0.4l0,0c0,0.1,0,0.2-0.1,0.4l-1,3.2h-0.7l-1.3-4.5
			h0.7l0.9,3.4c0,0.1,0,0.2,0.1,0.4l0,0c0-0.1,0-0.3,0.1-0.4l1-3.3h0.7l0.9,3.4c0,0.1,0.1,0.2,0.1,0.4l0,0c0-0.1,0-0.2,0.1-0.4
			l0.9-3.4h0.6V127.1z"/>
		<path class="st4" d="M290.9,131.6c-0.7,0-1.2-0.2-1.6-0.6c-0.4-0.4-0.6-1-0.6-1.7c0-0.7,0.2-1.3,0.6-1.8c0.4-0.4,1-0.6,1.7-0.6
			s1.2,0.2,1.6,0.6s0.6,1,0.6,1.7c0,0.7-0.2,1.3-0.6,1.7C292.1,131.4,291.6,131.6,290.9,131.6z M291,127.6c-0.5,0-0.8,0.2-1.1,0.5
			c-0.3,0.3-0.4,0.7-0.4,1.3c0,0.5,0.1,0.9,0.4,1.3c0.3,0.3,0.6,0.5,1.1,0.5s0.8-0.2,1.1-0.4s0.4-0.7,0.4-1.3s-0.1-1-0.4-1.3
			C291.8,127.7,291.4,127.6,291,127.6z"/>
		<path class="st4" d="M296.6,127.8c-0.1-0.1-0.3-0.1-0.5-0.1c-0.3,0-0.6,0.1-0.8,0.4c-0.2,0.3-0.3,0.7-0.3,1.2v2.3h-0.7v-4.5h0.7
			v0.9l0,0c0.1-0.3,0.3-0.6,0.5-0.7c0.2-0.2,0.4-0.3,0.7-0.3c0.2,0,0.3,0,0.4,0.1L296.6,127.8L296.6,127.8z"/>
		<path class="st4" d="M301.1,131.5h-1l-2-2.1l0,0v2.1h-0.7v-6.6h0.7v4.2l0,0l1.9-2h0.9l-2.1,2.2L301.1,131.5z"/>
	</g>
	<g id="Layer_1_1_">
		<g id="File_x2C__general">
			<title>Sheet.1071</title>
		</g>
		<g id="Message">
		</g>
		<g id="Monitor">
		</g>
		<g id="Monitor_running_apps">
		</g>
		<g id="Mouse">
		</g>
		<g id="Network_card">
		</g>
		<g id="Not_allowed">
		</g>
		<g id="Performance">
		</g>
		<g id="Phone">
		</g>
		<g id="Plug_and_play">
		</g>
		<g id="Powershell_script_file">
		</g>
		<g id="Protocol_stack">
		</g>
		<g id="Queue_x2C__general">
		</g>
		<g id="RMS_connector">
		</g>
		<g id="Router">
		</g>
		<g id="Script_file">
		</g>
		<g id="Secure_virtual_machine">
		</g>
		<g id="Server_farm">
		</g>
		<g id="Server_rack">
			<g>
				<g>
					<path class="st5" d="M145.6,81.3H113c-0.8,0-1.4,0.6-1.4,1.4v8.2c0,0.8,0.6,1.4,1.4,1.4h32.6c0.8,0,1.4-0.6,1.4-1.4v-8.2
						C146.9,81.9,146.3,81.3,145.6,81.3z M114.6,90.9c-0.7,0-1.3-0.6-1.3-1.3s0.6-1.3,1.3-1.3s1.3,0.6,1.3,1.3
						S115.2,90.9,114.6,90.9z M144.3,90.4h-7.1c-0.3,0-0.4-0.2-0.4-0.4s0.2-0.4,0.4-0.4h7.1c0.3,0,0.4,0.2,0.4,0.4
						S144.6,90.4,144.3,90.4z M144.3,89h-7.1c-0.3,0-0.4-0.2-0.4-0.4s0.2-0.4,0.4-0.4h7.1c0.3,0,0.4,0.2,0.4,0.4S144.6,89,144.3,89z
						 M144.3,87.6h-7.1c-0.3,0-0.4-0.2-0.4-0.4s0.2-0.4,0.4-0.4h7.1c0.3,0,0.4,0.2,0.4,0.4C144.7,87.5,144.6,87.6,144.3,87.6z"/>
				</g>
				<g>
					<path class="st5" d="M145.6,68.7H113c-0.8,0-1.4,0.6-1.4,1.4v8.2c0,0.8,0.6,1.4,1.4,1.4h32.6c0.8,0,1.4-0.6,1.4-1.4v-8.2
						C146.9,69.3,146.3,68.7,145.6,68.7z M114.6,78.3c-0.7,0-1.3-0.6-1.3-1.3s0.6-1.3,1.3-1.3s1.3,0.6,1.3,1.3
						S115.2,78.3,114.6,78.3z M144.3,77.8h-7.1c-0.3,0-0.4-0.2-0.4-0.4s0.2-0.4,0.4-0.4h7.1c0.3,0,0.4,0.2,0.4,0.4
						S144.6,77.8,144.3,77.8z M144.3,76.4h-7.1c-0.3,0-0.4-0.2-0.4-0.4s0.2-0.4,0.4-0.4h7.1c0.3,0,0.4,0.2,0.4,0.4
						S144.6,76.4,144.3,76.4z M144.3,75.1h-7.1c-0.3,0-0.4-0.2-0.4-0.4c0-0.3,0.2-0.4,0.4-0.4h7.1c0.3,0,0.4,0.2,0.4,0.4
						S144.6,75.1,144.3,75.1z"/>
				</g>
				<g>
					<path class="st5" d="M145.6,56.1H113c-0.8,0-1.4,0.6-1.4,1.4v8.2c0,0.8,0.6,1.4,1.4,1.4h32.6c0.8,0,1.4-0.6,1.4-1.4v-8.2
						C146.9,56.7,146.3,56.1,145.6,56.1z M114.6,65.7c-0.7,0-1.3-0.6-1.3-1.3c0-0.7,0.6-1.3,1.3-1.3s1.3,0.6,1.3,1.3
						C115.8,65.1,115.2,65.7,114.6,65.7z M144.3,65.2h-7.1c-0.3,0-0.4-0.2-0.4-0.4c0-0.2,0.2-0.4,0.4-0.4h7.1c0.3,0,0.4,0.2,0.4,0.4
						C144.7,65,144.6,65.2,144.3,65.2z M144.3,63.9h-7.1c-0.3,0-0.4-0.2-0.4-0.4c0-0.3,0.2-0.4,0.4-0.4h7.1c0.3,0,0.4,0.2,0.4,0.4
						S144.6,63.9,144.3,63.9z M144.3,62.5h-7.1c-0.3,0-0.4-0.2-0.4-0.4c0-0.3,0.2-0.4,0.4-0.4h7.1c0.3,0,0.4,0.2,0.4,0.4
						S144.6,62.5,144.3,62.5z"/>
				</g>
			</g>
		</g>
	</g>
	<g id="Layer_1_2_">
		<g id="File_x2C__general_1_">
			<title>Sheet.1071</title>
		</g>
		<g id="Message_1_">
		</g>
		<g id="Monitor_1_">
		</g>
		<g id="Monitor_running_apps_1_">
		</g>
		<g id="Mouse_1_">
		</g>
		<g id="Network_card_1_">
		</g>
		<g id="Not_allowed_1_">
		</g>
		<g id="Performance_1_">
		</g>
		<g id="Phone_1_">
		</g>
		<g id="Plug_and_play_1_">
		</g>
		<g id="Powershell_script_file_1_">
		</g>
		<g id="Protocol_stack_1_">
		</g>
		<g id="Queue_x2C__general_1_">
		</g>
		<g id="RMS_connector_1_">
		</g>
		<g id="Router_1_">
		</g>
		<g id="Script_file_1_">
		</g>
		<g id="Secure_virtual_machine_1_">
		</g>
		<g id="Server_farm_1_">
			<g>
				<g>
					<path class="st5" d="M296.8,43.4H289c-0.5,0-1,0.4-1,1v19h9.7v-19C297.8,43.8,297.4,43.4,296.8,43.4z M296.1,61.7h-6.3v-1.2
						h6.3V61.7z M296.1,59.4h-6.3v-1.1h6.3V59.4z M296.1,47.4h-6.3v-1.1h6.3V47.4z"/>
				</g>
				<g>
					<path class="st5" d="M307.7,43.3h-7.8c-0.5,0-1,0.4-1,1v19h9.7v-19C308.7,43.8,308.2,43.3,307.7,43.3z M307,61.6h-6.3v-1.1h6.3
						V61.6z M307,59.3h-6.3v-1.1h6.3V59.3z M307,47.3h-6.3v-1.1h6.3V47.3z"/>
				</g>
				<g>
					<path class="st5" d="M318.6,43.4h-7.8c-0.5,0-1,0.4-1,1v19h9.7v-19C319.6,43.8,319.1,43.4,318.6,43.4z M317.8,61.7h-6.3v-1.2
						h6.3V61.7z M317.8,59.4h-6.3v-1.1h6.3V59.4z M317.8,47.4h-6.3v-1.1h6.3V47.4z"/>
				</g>
			</g>
		</g>
	</g>
	<g id="Layer_1_3_">
		<g id="File_x2C__general_2_">
			<title>Sheet.1071</title>
		</g>
		<g id="Message_2_">
		</g>
		<g id="Monitor_2_">
		</g>
		<g id="Monitor_running_apps_2_">
		</g>
		<g id="Mouse_2_">
		</g>
		<g id="Network_card_2_">
		</g>
		<g id="Not_allowed_2_">
		</g>
		<g id="Performance_2_">
		</g>
		<g id="Phone_2_">
		</g>
		<g id="Plug_and_play_2_">
		</g>
		<g id="Powershell_script_file_2_">
		</g>
		<g id="Protocol_stack_2_">
		</g>
		<g id="Queue_x2C__general_2_">
		</g>
		<g id="RMS_connector_2_">
		</g>
		<g id="Router_2_">
		</g>
		<g id="Script_file_2_">
		</g>
		<g id="Secure_virtual_machine_2_">
		</g>
		<g id="Server_farm_2_">
			<g>
				<g>
					<path class="st5" d="M297.3,84.8h-7.8c-0.5,0-1,0.4-1,1v19h9.7v-19C298.2,85.3,297.8,84.8,297.3,84.8z M296.5,103.1h-6.3V102
						h6.3V103.1z M296.5,100.9h-6.3v-1.1h6.3V100.9z M296.5,88.8h-6.3v-1.1h6.3V88.8z"/>
				</g>
				<g>
					<path class="st5" d="M308.1,84.8h-7.8c-0.5,0-1,0.4-1,1v19h9.7v-19C309.1,85.2,308.7,84.8,308.1,84.8z M307.4,103.1h-6.3V102
						h6.3V103.1z M307.4,100.8h-6.3v-1.1h6.3V100.8z M307.4,88.8h-6.3v-1.1h6.3V88.8z"/>
				</g>
				<g>
					<path class="st5" d="M319,84.8h-7.8c-0.5,0-1,0.4-1,1v19h9.7v-19C320,85.3,319.5,84.8,319,84.8z M318.3,103.1H312V102h6.3
						V103.1z M318.3,100.9H312v-1.1h6.3V100.9z M318.3,88.8H312v-1.1h6.3V88.8z"/>
				</g>
			</g>
		</g>
	</g>
	<g>
		<rect x="387.5" y="20.8" class="st2" width="117.5" height="44.9"/>
		<g id="shape389-126">
			<path class="st6" d="M398.7,61.4h66.4V25.5h-66.4V61.4z"/>
		</g>
		<g id="group392-129">
			<g id="shape393-130">
				<path class="st0" d="M439.3,35.8h-14.6c-0.5,0-0.9,0.5-0.9,1v10.1c0,0.5,0.3,0.9,0.9,0.9h5c0.5,1.9-0.2,2.2-3.4,2.2v1h11v-1
					c-3.1,0-3.4-0.3-2.9-2.2h5.2c0.5,0,0.9-0.3,1-0.9V36.8C440.3,36.2,439.8,35.8,439.3,35.8L439.3,35.8z M439,37.2v9.5h-13.9v-9.5
					H439L439,37.2z"/>
			</g>
			<g id="group394-132">
				<g id="group395-133">
					<g id="shape396-134">
						<path class="st0" d="M434.3,40.1l-2.6-1.5l-2.6,1.5l0,0l2.6,1.5L434.3,40.1z"/>
					</g>
				</g>
				<g id="group397-136">
					<g id="shape398-137">
						<path class="st0" d="M432.1,42v2.9l2.6-1.5v-2.9L432.1,42z"/>
					</g>
				</g>
				<g id="group399-139">
					<g id="shape400-140">
						<path class="st0" d="M431.6,42l-2.6-1.5v2.9l2.6,1.5V42z"/>
					</g>
				</g>
			</g>
		</g>
		<g id="group401-142">
			<g id="shape402-143">
				<path class="st0" d="M419.2,35.8h-14.6c-0.5,0-0.9,0.5-0.9,1v10.1c0,0.5,0.3,0.9,0.9,0.9h5c0.5,1.9-0.2,2.2-3.4,2.2v1H417v-1
					c-3.1,0-3.4-0.3-2.9-2.2h5.2c0.5,0,0.9-0.3,1-0.9V36.8C420.2,36.3,419.7,35.8,419.2,35.8z M418.9,37.2v9.5H405v-9.5H418.9z"/>
			</g>
			<g id="group403-145">
				<g id="group404-146">
					<g id="shape405-147">
						<path class="st0" d="M414.4,40.1l-2.6-1.5l-2.6,1.5l0,0l2.6,1.5L414.4,40.1z"/>
					</g>
				</g>
				<g id="group406-149">
					<g id="shape407-150">
						<path class="st0" d="M412,42v2.9l2.6-1.5v-2.9L412,42z"/>
					</g>
				</g>
				<g id="group408-152">
					<g id="shape409-153">
						<path class="st0" d="M411.5,42l-2.6-1.5v2.9l2.6,1.5V42z"/>
					</g>
				</g>
			</g>
		</g>
		<g id="group410-155">
			<g id="shape411-156">
				<path class="st0" d="M419.2,35.8h-14.6c-0.5,0-0.9,0.5-0.9,1v10.1c0,0.5,0.3,0.9,0.9,0.9h5c0.5,1.9-0.2,2.2-3.4,2.2v1H417v-1
					c-3.1,0-3.4-0.3-2.9-2.2h5.2c0.5,0,0.9-0.3,1-0.9V36.8C420.2,36.3,419.7,35.8,419.2,35.8z M418.9,37.2v9.5H405v-9.5H418.9z"/>
			</g>
			<g id="group412-158">
				<g id="group413-159">
					<g id="shape414-160">
						<path class="st0" d="M414.4,40.1l-2.6-1.5l-2.6,1.5l0,0l2.6,1.5L414.4,40.1z"/>
					</g>
				</g>
				<g id="group415-162">
					<g id="shape416-163">
						<path class="st0" d="M412,42v2.9l2.6-1.5v-2.9L412,42z"/>
					</g>
				</g>
				<g id="group417-165">
					<g id="shape418-166">
						<path class="st0" d="M411.5,42l-2.6-1.5v2.9l2.6,1.5V42z"/>
					</g>
				</g>
			</g>
		</g>
		<g id="group392-129_1_">
			<g id="shape393-130_1_">
				<path class="st0" d="M460.4,35.8h-14.6c-0.5,0-0.9,0.5-0.9,1v10.1c0,0.5,0.3,0.9,0.9,0.9h5c0.5,1.9-0.2,2.2-3.4,2.2v1h11v-1
					c-3.1,0-3.4-0.3-2.9-2.2h5.2c0.5,0,0.9-0.3,1-0.9V36.8C461.4,36.2,460.9,35.8,460.4,35.8L460.4,35.8z M460,37.2v9.5h-13.9v-9.5
					H460L460,37.2z"/>
			</g>
			<g id="group394-132_1_">
				<g id="group395-133_1_">
					<g id="shape396-134_1_">
						<path class="st0" d="M455.4,40.1l-2.6-1.5l-2.6,1.5l0,0l2.6,1.5L455.4,40.1z"/>
					</g>
				</g>
				<g id="group397-136_1_">
					<g id="shape398-137_1_">
						<path class="st0" d="M453.2,42v2.9l2.6-1.5v-2.9L453.2,42z"/>
					</g>
				</g>
				<g id="group399-139_1_">
					<g id="shape400-140_1_">
						<path class="st0" d="M452.6,42l-2.6-1.5v2.9l2.6,1.5V42z"/>
					</g>
				</g>
			</g>
		</g>
		<g>
			<line class="st7" x1="431.8" y1="67.9" x2="431.8" y2="86.1"/>
			<g>
				<line class="st8" x1="431.8" y1="70.7" x2="431.8" y2="83.2"/>
				<g>
					<polygon class="st2" points="429.8,71.3 431.8,67.9 433.8,71.3 					"/>
				</g>
				<g>
					<polygon class="st2" points="429.8,82.7 431.8,86.1 433.8,82.7 					"/>
				</g>
			</g>
		</g>
		<rect x="386.3" y="88.3" class="st2" width="117.5" height="44.9"/>
		<g id="shape389-126_1_">
			<path class="st6" d="M397.8,128.8h66.4V92.9h-66.4V128.8z"/>
		</g>
		<g id="group392-129_3_">
			<g id="shape393-130_3_">
				<path class="st0" d="M438.4,103.2h-14.6c-0.5,0-0.9,0.5-0.9,1v10.1c0,0.5,0.3,0.9,0.9,0.9h5c0.5,1.9-0.2,2.2-3.4,2.2v1h11v-1
					c-3.1,0-3.4-0.3-2.9-2.2h5.2c0.5,0,0.9-0.3,1-0.9v-10.1C439.4,103.6,438.9,103.2,438.4,103.2L438.4,103.2z M438,104.6v9.5h-13.9
					v-9.5H438L438,104.6z"/>
			</g>
			<g id="group394-132_3_">
				<g id="group395-133_3_">
					<g id="shape396-134_3_">
						<path class="st0" d="M433.4,107.5l-2.6-1.5l-2.6,1.5l0,0l2.6,1.5L433.4,107.5z"/>
					</g>
				</g>
				<g id="group397-136_3_">
					<g id="shape398-137_3_">
						<path class="st0" d="M431.2,109.4v2.9l2.6-1.5v-2.9L431.2,109.4z"/>
					</g>
				</g>
				<g id="group399-139_3_">
					<g id="shape400-140_3_">
						<path class="st0" d="M430.7,109.4l-2.6-1.5v2.9l2.6,1.5V109.4z"/>
					</g>
				</g>
			</g>
		</g>
		<g id="group401-142_1_">
			<g id="shape402-143_1_">
				<path class="st0" d="M418.3,103.2h-14.6c-0.5,0-0.9,0.5-0.9,1v10.1c0,0.5,0.3,0.9,0.9,0.9h5c0.5,1.9-0.2,2.2-3.4,2.2v1h10.8v-1
					c-3.1,0-3.4-0.3-2.9-2.2h5.2c0.5,0,0.9-0.3,1-0.9v-10.1C419.3,103.7,418.8,103.2,418.3,103.2z M417.9,104.6v9.5H404v-9.5H417.9z
					"/>
			</g>
			<g id="group403-145_1_">
				<g id="group404-146_1_">
					<g id="shape405-147_1_">
						<path class="st0" d="M413.5,107.5l-2.6-1.5l-2.6,1.5l0,0l2.6,1.5L413.5,107.5z"/>
					</g>
				</g>
				<g id="group406-149_1_">
					<g id="shape407-150_1_">
						<path class="st0" d="M411,109.4v2.9l2.6-1.5v-2.9L411,109.4z"/>
					</g>
				</g>
				<g id="group408-152_1_">
					<g id="shape409-153_1_">
						<path class="st0" d="M410.5,109.4l-2.6-1.5v2.9l2.6,1.5V109.4z"/>
					</g>
				</g>
			</g>
		</g>
		<g id="group410-155_1_">
			<g id="shape411-156_1_">
				<path class="st0" d="M418.3,103.2h-14.6c-0.5,0-0.9,0.5-0.9,1v10.1c0,0.5,0.3,0.9,0.9,0.9h5c0.5,1.9-0.2,2.2-3.4,2.2v1h10.8v-1
					c-3.1,0-3.4-0.3-2.9-2.2h5.2c0.5,0,0.9-0.3,1-0.9v-10.1C419.3,103.7,418.8,103.2,418.3,103.2z M417.9,104.6v9.5H404v-9.5H417.9z
					"/>
			</g>
			<g id="group412-158_1_">
				<g id="group413-159_1_">
					<g id="shape414-160_1_">
						<path class="st0" d="M413.5,107.5l-2.6-1.5l-2.6,1.5l0,0l2.6,1.5L413.5,107.5z"/>
					</g>
				</g>
				<g id="group415-162_1_">
					<g id="shape416-163_1_">
						<path class="st0" d="M411,109.4v2.9l2.6-1.5v-2.9L411,109.4z"/>
					</g>
				</g>
				<g id="group417-165_1_">
					<g id="shape418-166_1_">
						<path class="st0" d="M410.5,109.4l-2.6-1.5v2.9l2.6,1.5V109.4z"/>
					</g>
				</g>
			</g>
		</g>
		<g id="group392-129_2_">
			<g id="shape393-130_2_">
				<path class="st0" d="M459.5,103.2h-14.6c-0.5,0-0.9,0.5-0.9,1v10.1c0,0.5,0.3,0.9,0.9,0.9h5c0.5,1.9-0.2,2.2-3.4,2.2v1h11v-1
					c-3.1,0-3.4-0.3-2.9-2.2h5.2c0.5,0,0.9-0.3,1-0.9v-10.1C460.5,103.6,460,103.2,459.5,103.2L459.5,103.2z M459.1,104.6v9.5h-13.9
					v-9.5H459.1L459.1,104.6z"/>
			</g>
			<g id="group394-132_2_">
				<g id="group395-133_2_">
					<g id="shape396-134_2_">
						<path class="st0" d="M454.5,107.5l-2.6-1.5l-2.6,1.5l0,0l2.6,1.5L454.5,107.5z"/>
					</g>
				</g>
				<g id="group397-136_2_">
					<g id="shape398-137_2_">
						<path class="st0" d="M452.2,109.4v2.9l2.6-1.5v-2.9L452.2,109.4z"/>
					</g>
				</g>
				<g id="group399-139_2_">
					<g id="shape400-140_2_">
						<path class="st0" d="M451.7,109.4l-2.6-1.5v2.9l2.6,1.5V109.4z"/>
					</g>
				</g>
			</g>
		</g>
		<g>
			<polygon class="st9" points="484.6,58.1 473.9,58.1 473.9,33 480.4,33 480.4,49.8 479,49.8 480.4,49.8 480.4,28.7 491,28.7 
				491,49.8 492.3,49.8 491,49.8 491,33 497.4,33 497.4,58.1 486.7,58.1 486.7,49.6 484.6,49.6 484.6,58.1 			"/>
		</g>
		<g>
			<polygon class="st9" points="484.6,124.2 473.9,124.2 473.9,99 480.4,99 480.4,115.8 479,115.8 480.4,115.8 480.4,94.7 491,94.7 
				491,115.8 492.3,115.8 491,115.8 491,99 497.4,99 497.4,124.2 486.7,124.2 486.7,115.7 484.6,115.7 484.6,124.2 			"/>
		</g>
	</g>
	<g id="shape301-52_1_">
		<path class="st10" d="M4.1,133.8h154.2v-113H4.1V133.8z"/>
	</g>
	<g id="shape301-52_2_">
		<path class="st10" d="M188.4,133.8h154.1v-113H188.4V133.8z"/>
	</g>
</g>
</svg>
