<?xml version="1.0" encoding="UTF-8" standalone="no"?>
<!DOCTYPE svg PUBLIC "-//W3C//DTD SVG 1.1//EN" "http://www.w3.org/Graphics/SVG/1.1/DTD/svg11.dtd">
<!-- Generated by Microsoft Visio, SVG Export sf.svg Page-1 -->
<svg xmlns="http://www.w3.org/2000/svg" xmlns:xlink="http://www.w3.org/1999/xlink" xmlns:ev="http://www.w3.org/2001/xml-events"
		xmlns:v="http://schemas.microsoft.com/visio/2003/SVGExtensions/" width="0.523438in" height="0.610938in"
		viewBox="0 0 37.6875 43.9875" xml:space="preserve" color-interpolation-filters="sRGB" class="st2">
	<v:documentProperties v:langID="1033" v:viewMarkup="false"/>

	<style type="text/css">
	<![CDATA[
		.st1 {fill:#dd5925;stroke:none;stroke-width:0.25}
		.st2 {fill:none;fill-rule:evenodd;font-size:12px;overflow:visible;stroke-linecap:square;stroke-miterlimit:3}
	]]>
	</style>

	<g v:mID="0" v:index="1" v:groupContext="foregroundPage">
		<title>Page-1</title>
		<v:pageProperties v:drawingScale="1" v:pageScale="1" v:drawingUnits="0" v:shadowOffsetX="9" v:shadowOffsetY="-9"/>
		<g id="shape1-1" v:mID="1" v:groupContext="shape" transform="translate(4.164,-10.8)">
			<title>Service Fabric</title>
			<path d="M29.93 26.69 C29.93 24.1 27.83 22.01 25.25 22.01 C24.3 22.01 23.41 22.3 22.67 22.79 L19.43 20.11 C19.57 19.67
						 19.64 19.21 19.64 18.74 C19.64 16.15 17.55 14.06 14.96 14.06 C12.38 14.06 10.29 16.15 10.29 18.74 C10.29
						 19.21 10.36 19.67 10.49 20.1 L7.01 22.99 C6.33 22.66 5.53 22.48 4.68 22.48 C2.09 22.48 0 24.1 0 26.69 C0
						 28.99 1.66 30.9 3.85 31.28 L5.11 35.79 C4.13 36.65 3.5 37.9 3.5 39.31 C3.5 41.89 5.6 43.99 8.18 43.99 C10.19
						 43.99 11.89 42.72 12.56 40.94 L17.37 40.94 C18.03 42.72 19.74 43.99 21.74 43.99 C24.33 43.99 26.42 41.89
						 26.42 39.31 C26.42 37.85 25.75 36.54 24.7 35.69 L25.99 31.3 C28.22 30.94 29.93 29.02 29.93 26.69 ZM21.74
						 34.64 C19.48 34.64 17.6 36.24 17.16 38.37 L12.76 38.37 C12.32 36.24 10.44 34.64 8.18 34.64 C7.94 34.64 7.7
						 34.66 7.47 34.69 L6.45 31.01 C8.15 30.31 9.35 28.64 9.35 26.69 C9.35 25.97 9.19 25.33 8.9 24.77 L11.91 22.27
						 C12.73 22.98 13.79 23.41 14.96 23.41 C16.13 23.41 17.2 22.98 18.02 22.27 L21 24.75 C20.73 25.34 20.58 25.99
						 20.58 26.68 C20.58 28.61 21.74 30.26 23.4 30.98 L22.31 34.67 C22.13 34.65 21.94 34.64 21.74 34.64 Z"
					class="st1"/>
		</g>
	</g>
</svg>
