<?xml version="1.0" encoding="UTF-8" standalone="no"?>
<!DOCTYPE svg PUBLIC "-//W3C//DTD SVG 1.1//EN" "http://www.w3.org/Graphics/SVG/1.1/DTD/svg11.dtd">
<!-- Generated by Microsoft Visio, SVG Export general-mainframe.svg Original Unisys Mainframe Architecture -->
<svg xmlns="http://www.w3.org/2000/svg" xmlns:xlink="http://www.w3.org/1999/xlink" xmlns:ev="http://www.w3.org/2001/xml-events"
		xmlns:v="http://schemas.microsoft.com/visio/2003/SVGExtensions/" width="13.6168in" height="6.73862in"
		viewBox="0 0 980.409 485.18" xml:space="preserve" color-interpolation-filters="sRGB" class="st48">
	<v:documentProperties v:langID="1033" v:viewMarkup="false">
		<v:userDefs>
			<v:ud v:nameU="msvNoAutoConnect" v:prompt="" v:val="VT0(1):26"/>
		</v:userDefs>
	</v:documentProperties>

	<style type="text/css">
	<![CDATA[
		.st1 {fill:#ffffff;stroke:none;stroke-linecap:round;stroke-linejoin:round;stroke-width:2.25}
		.st2 {fill:none;stroke:#43699c;stroke-dasharray:0.75,1.5;stroke-linecap:round;stroke-linejoin:round;stroke-width:0.75}
		.st3 {fill:none;stroke:none;stroke-linecap:round;stroke-linejoin:round;stroke-width:2.25}
		.st4 {fill:#113c52;font-family:Segoe UI;font-size:1.00001em;font-weight:bold}
		.st5 {fill:#000000;font-size:0.916665em;font-weight:normal}
		.st6 {font-size:1em}
		.st7 {fill:url(#grad0-21);stroke:none;stroke-linecap:butt;stroke-width:34}
		.st8 {fill:#ffffff;fill-opacity:0.8;stroke:none;stroke-linecap:butt;stroke-width:34}
		.st9 {fill:#dfa500;stroke:none;stroke-linecap:butt;stroke-width:34}
		.st10 {fill:url(#grad0-32);stroke:none;stroke-linecap:butt;stroke-width:34}
		.st11 {fill:#ffd400;stroke:none;stroke-linecap:butt;stroke-width:34}
		.st12 {fill:#0078d4;stroke:none;stroke-linecap:butt;stroke-width:34}
		.st13 {fill:url(#grad0-48);stroke:none;stroke-linecap:butt;stroke-width:34}
		.st14 {fill:url(#grad0-54);stroke:none;stroke-linecap:butt;stroke-width:34}
		.st15 {fill:#ffffff;stroke:none;stroke-linecap:butt;stroke-width:0.75}
		.st16 {fill:#e5e5e5;stroke:none;stroke-linecap:butt;stroke-width:0.75}
		.st17 {fill:none}
		.st18 {stroke:#556a8a;stroke-linecap:butt;stroke-width:1.5}
		.st19 {fill:#bad80a;stroke:#556a8a;stroke-linecap:butt;stroke-width:1.5}
		.st20 {fill:#bad80a}
		.st21 {fill:#ffffff;stroke:#556a8a;stroke-linecap:butt;stroke-width:1.5}
		.st22 {fill:#113c52;font-family:Segoe UI;font-size:0.916672em;font-weight:bold}
		.st23 {fill:#000000;font-family:Segoe UI;font-size:1.00001em;font-weight:bold}
		.st24 {fill:#aad2f2}
		.st25 {stroke:none;stroke-linecap:butt;stroke-width:0.75}
		.st26 {fill:#aab5c5}
		.st27 {fill:#80bceb;stroke:none;stroke-linecap:butt;stroke-width:0.75}
		.st28 {fill:#ffffff;stroke:#257ca7;stroke-dasharray:0.75,1.5;stroke-linecap:round;stroke-linejoin:round;stroke-width:0.75}
		.st29 {font-size:1em;font-weight:normal}
		.st30 {fill:#113c52;font-family:Segoe UI;font-size:0.666664em}
		.st31 {fill:#000000;font-size:1em;font-weight:normal}
		.st32 {fill:#ffffff;stroke:#556a8a;stroke-width:1.5}
		.st33 {fill:#2bc7f4}
		.st34 {fill:#556a8a;stroke:none;stroke-linecap:butt;stroke-width:0.75}
		.st35 {fill:#113c52;font-family:Segoe UI;font-size:1.16666em;font-weight:bold}
		.st36 {fill:#d83b01;stroke:none;stroke-linecap:round;stroke-linejoin:round;stroke-width:0.75}
		.st37 {fill:#a32b01;stroke:none;stroke-linecap:round;stroke-linejoin:round;stroke-width:0.75}
		.st38 {fill:#fe4a0a;stroke:none;stroke-linecap:round;stroke-linejoin:round;stroke-width:0.75}
		.st39 {fill:#20324c;font-family:Segoe UI;font-size:1.00001em;font-weight:bold}
		.st40 {fill:#ace8f9;stroke:none;stroke-linecap:butt;stroke-width:0.75}
		.st41 {fill:none;stroke:none;stroke-linecap:butt;stroke-width:0.75}
		.st42 {fill:#d7f4fd;stroke:none;stroke-linecap:butt;stroke-width:0.75}
		.st43 {fill:#9acfe8;stroke:none;stroke-linecap:round;stroke-linejoin:round;stroke-width:2.25}
		.st44 {fill:#113d52;font-family:Segoe UI;font-size:1.16666em;font-weight:bold}
		.st45 {fill:#68b7dd;stroke:none;stroke-linecap:round;stroke-linejoin:round;stroke-width:2.25}
		.st46 {fill:#113d52;font-family:Segoe UI;font-size:1.16666em}
		.st47 {fill:#113c52;font-family:Segoe UI;font-size:0.916672em}
		.st48 {fill:none;fill-rule:evenodd;font-size:12px;overflow:visible;stroke-linecap:square;stroke-miterlimit:3}
	]]>
	</style>

	<defs id="Patterns_And_Gradients">
		<linearGradient id="grad0-21" x1="0" y1="0" x2="1" y2="0" gradientTransform="rotate(90 0.5 0.5)">
			<stop offset="0.1" stop-color="#54aef0" stop-opacity="1"/>
			<stop offset="1" stop-color="#1988d9" stop-opacity="1"/>
		</linearGradient>
		<linearGradient id="grad0-32" x1="0" y1="0" x2="1" y2="0" gradientTransform="rotate(90 0.5 0.5)">
			<stop offset="0" stop-color="#ffd70f" stop-opacity="1"/>
			<stop offset="0.12" stop-color="#ffcc11" stop-opacity="1"/>
			<stop offset="0.44" stop-color="#feb517" stop-opacity="1"/>
			<stop offset="0.75" stop-color="#fea61a" stop-opacity="1"/>
			<stop offset="1" stop-color="#fea11b" stop-opacity="1"/>
		</linearGradient>
		<linearGradient id="grad0-48" x1="0" y1="0" x2="1" y2="0" gradientTransform="rotate(90 0.5 0.5)">
			<stop offset="0.22" stop-color="#32d4f5" stop-opacity="1"/>
			<stop offset="1" stop-color="#198ab3" stop-opacity="1"/>
		</linearGradient>
		<linearGradient id="grad0-54" x1="0" y1="0" x2="1" y2="0" gradientTransform="rotate(85.401203911388 0.5 0.5)">
			<stop offset="0.22" stop-color="#32d4f5" stop-opacity="1"/>
			<stop offset="1" stop-color="#198ab3" stop-opacity="1"/>
		</linearGradient>
	</defs>
	<g v:mID="15" v:index="1" v:groupContext="foregroundPage">
		<v:userDefs>
			<v:ud v:nameU="msvThemeOrder" v:val="VT0(0):26"/>
			<v:ud v:nameU="visNavType" v:val="VT0(1):26"/>
		</v:userDefs>
		<title>Original (general) mainframe</title>
		<v:pageProperties v:drawingScale="1" v:pageScale="1" v:drawingUnits="0" v:shadowOffsetX="9" v:shadowOffsetY="-9"/>
		<v:layer v:name="Connector" v:index="0"/>
		<v:layer v:name="Callout" v:index="1"/>
		<g id="shape1416-1" v:mID="1416" v:groupContext="shape" transform="translate(36,-9)">
			<title>Rectangle</title>
			<v:userDefs>
				<v:ud v:nameU="visVersion" v:val="VT0(15):26"/>
				<v:ud v:nameU="visMasterStencil" v:prompt="" v:val="VT4(Basic_U.vssx)"/>
				<v:ud v:nameU="visNavOrder" v:val="VT0(124000):26"/>
			</v:userDefs>
			<rect x="0" y="27" width="927" height="458.18" class="st1"/>
		</g>
		<g id="shape3-3" v:mID="3" v:groupContext="shape" transform="translate(225.499,-18.375)">
			<title>Sheet.3</title>
			<v:userDefs>
				<v:ud v:nameU="visNavOrder" v:val="VT0(3000):26"/>
			</v:userDefs>
			<path d="M0 485.18 L726.52 485.18 L726.52 69.68 L0 69.68 L0 485.18 Z" class="st2"/>
		</g>
		<g id="shape51-5" v:mID="51" v:groupContext="shape" transform="translate(114.228,-375.153)">
			<title>Sheet.51</title>
			<desc>Admin user TN3270 terminal emulator</desc>
			<v:userDefs>
				<v:ud v:nameU="visNavOrder" v:val="VT0(5000):26"/>
			</v:userDefs>
			<v:textBlock v:margins="rect(4,4,4,4)"/>
			<v:textRect cx="81.3945" cy="475.055" width="162.79" height="20.25"/>
			<rect x="0" y="464.93" width="162.789" height="20.25" class="st3"/>
			<text x="4" y="465.46" class="st4" v:langID="1033"><v:paragraph/><v:tabList/>Admin user<v:newlineChar/><tspan x="4"
						dy="1.227em" class="st5">TN3270 terminal<v:newlineChar/></tspan><tspan x="4" dy="1.2em" class="st5">emulator</tspan></text>		</g>
		<g id="shape99-10" v:mID="99" v:groupContext="shape" transform="translate(115.017,-314.25)">
			<title>Sheet.99</title>
			<desc>Web interface users Web browser over TLS 1.3, port 443</desc>
			<v:userDefs>
				<v:ud v:nameU="visNavOrder" v:val="VT0(7000):26"/>
			</v:userDefs>
			<v:textBlock v:margins="rect(4,4,4,4)"/>
			<v:textRect cx="112.5" cy="475.055" width="225" height="20.25"/>
			<rect x="0" y="464.93" width="225" height="20.25" class="st3"/>
			<text x="4" y="458.26" class="st4" v:langID="1033"><v:paragraph/><v:tabList/>Web interface <v:newlineChar/><tspan x="4"
						dy="1.2em" class="st6">users<v:newlineChar/></tspan><tspan x="4" dy="1.227em" class="st5">Web browser over <v:newlineChar/></tspan><tspan
						x="4" dy="1.2em" class="st5">TLS 1.3, port 443</tspan></text>		</g>
		<g id="group830-16" transform="translate(52.017,-365.263)" v:mID="830" v:groupContext="group">
			<v:userDefs>
				<v:ud v:nameU="visNavOrder" v:val="VT0(19000):26"/>
			</v:userDefs>
			<title>Azure AD Identity Protection</title>
			<g id="group831-17" v:mID="831" v:groupContext="group">
				<title>Artboard 1</title>
				<g id="shape832-18" v:mID="832" v:groupContext="shape" transform="translate(0,-4.34669)">
					<title>Sheet.832</title>
					<path d="M39.21 485.18 A3.79395 3.79395 -180 0 0 43.03 481.42 A2.28062 2.28062 -180 0 0 43.03 480.96 C41.55 468.83
								 34.69 459.19 21.81 459.19 C8.92 459.19 1.46 467.47 0 481 A3.85158 3.85158 -180 0 0 3.43 485.18 L39.21
								 485.18 Z" class="st7"/>
				</g>
				<g id="shape833-22" v:mID="833" v:groupContext="shape" transform="translate(15.1637,-12.5654)">
					<title>Sheet.833</title>
					<path d="M6.46 470.26 A11.952 11.952 0 0 1 0 468.32 L6.37 485.18 L12.8 468.44 A12.131 12.131 0 0 1 6.46 470.26
								 Z" class="st8"/>
				</g>
				<g id="shape834-24" v:mID="834" v:groupContext="shape" transform="translate(9.58345,-27.4865)">
					<title>Sheet.834</title>
					<ellipse cx="12.04" cy="473.14" rx="12.04" ry="12.04" class="st7"/>
				</g>
				<g id="shape835-27" v:mID="835" v:groupContext="shape" transform="translate(27.2673,0)">
					<title>Sheet.835</title>
					<path d="M21.23 471.39 C21.23 478.39 13.18 484.52 10.99 485.13 A1.35563 1.35563 0 0 1 10.24 485.13 C8.05 484.52
								 0 478.36 0 471.39 L0 462.99 a0.630809 0.630809 0 0 1 0.548926 -0.69753 a0.606548 0.606548 0 0 1
								 0.148604 5.68434E-14 C7.23 462.06 5.83 459.26 10.49 459.26 C15.16 459.26 13.76 462.06 20.29 462.29
								 a0.630809 0.630809 0 0 1 0.700562 0.545893 a0.606548 0.606548 0 0 1 -7.4607E-14 0.148604 L21.23
								 471.39 Z" class="st9"/>
				</g>
				<g id="shape836-29" v:mID="836" v:groupContext="shape" transform="translate(28.2045,-0.962154)">
					<title>Sheet.836</title>
					<path d="M9.56 473.29 L9.56 461.51 C13.99 461.51 12.59 463.95 18.66 464.19 a0.746053 0.746053 0 0 1 0.69753 0.700562
								 L19.35 473.05 L9.56 473.29 ZM9.56 473.29 L0 473.29 C0.47 479.35 7.7 484.01 9.33 484.95 L9.8 485.18
								 L9.56 473.29 Z" class="st10"/>
				</g>
				<g id="shape837-33" v:mID="837" v:groupContext="shape" transform="translate(28.2045,-12.8566)">
					<title>Sheet.837</title>
					<path d="M0.46 476.17 C6.53 475.94 5.13 473.4 9.56 473.4 L9.56 485.18 L0 485.18 L0 476.75 C0 476.29 0.23 476.17
								 0.46 476.17 Z" class="st11"/>
				</g>
				<g id="shape838-35" v:mID="838" v:groupContext="shape" transform="translate(37.7636,-0.962154)">
					<title>Sheet.838</title>
					<path d="M9.8 473.05 L0 473.29 L0.23 485.18 C1.87 484.01 9.1 479.11 9.8 473.05 Z" class="st11"/>
				</g>
			</g>
		</g>
		<g id="group839-37" transform="translate(52.017,-302.32)" v:mID="839" v:groupContext="group">
			<v:userDefs>
				<v:ud v:nameU="visNavOrder" v:val="VT0(20000):26"/>
			</v:userDefs>
			<title>Groups</title>
			<g id="group840-38" v:mID="840" v:groupContext="group">
				<title>Icon-identity-223</title>
				<g id="shape841-39" v:mID="841" v:groupContext="shape" transform="translate(27.1796,-7.31183)">
					<title>Sheet.841</title>
					<path d="M24.42 485.18 A2.36736 2.36736 -180 0 0 26.82 482.81 a0.839063 0.839063 -180 0 0 -0.0599331 -0.389565
								 C25.83 474.93 21.55 468.82 13.4 468.82 C5.24 468.82 0.84 474.09 0 482.42 A2.42729 2.42729 -180 0
								 0 2.16 485.06 L24.42 485.06 L24.42 485.18 Z" class="st12"/>
				</g>
				<g id="shape842-41" v:mID="842" v:groupContext="shape" transform="translate(36.5292,-12.4361)">
					<title>Sheet.842</title>
					<path d="M4.08 475.83 A7.31183 7.31183 0 0 1 0 474.63 L4.05 485.18 L8.03 474.72 A7.6115 7.6115 0 0 1 4.08 475.83
								 Z" class="st8"/>
				</g>
				<g id="shape843-43" v:mID="843" v:groupContext="shape" transform="translate(33.083,-21.7857)">
					<title>Sheet.843</title>
					<ellipse cx="7.5216" cy="477.659" rx="7.5216" ry="7.5216" class="st12"/>
				</g>
				<g id="shape844-45" v:mID="844" v:groupContext="shape">
					<title>Sheet.844</title>
					<path d="M36.53 485.18 A3.56602 3.56602 -180 0 0 40.1 481.61 A1.97779 1.97779 -180 0 0 40.1 481.19 C38.69 469.99
								 32.3 460.88 20.14 460.88 C7.97 460.88 1.32 468.61 0 481.1 A3.59598 3.59598 -180 0 0 3.21 485.03
								 L36.47 485.03 L36.53 485.18 Z" class="st13"/>
				</g>
				<g id="shape845-49" v:mID="845" v:groupContext="shape" transform="translate(14.294,-7.7014)">
					<title>Sheet.845</title>
					<path d="M5.99 471.25 A11.1475 11.1475 0 0 1 -0 469.45 L5.99 485.18 L11.99 469.57 A11.4172 11.4172 0 0 1 5.99
								 471.25 Z" class="st8"/>
				</g>
				<g id="shape846-51" v:mID="846" v:groupContext="shape" transform="translate(8.95999,-21.6358)">
					<title>Sheet.846</title>
					<ellipse cx="11.2374" cy="473.943" rx="11.2374" ry="11.2374" class="st14"/>
				</g>
			</g>
		</g>
		<g id="group860-55" transform="translate(764.168,-331.948)" v:mID="860" v:groupContext="group">
			<v:userDefs>
				<v:ud v:nameU="visNavOrder" v:val="VT0(24000):26"/>
			</v:userDefs>
			<title>Generic Database (Green)</title>
			<g id="shape861-56" v:mID="861" v:groupContext="shape">
				<title>path3116</title>
				<path d="M24.01 454.85 L16.19 454.91 L0 455.05 L0 480.24 C0 482.82 5.66 485.04 13.03 485.18 L13.31 485.18 C14.31
							 485.18 15.27 485.12 16.19 485.03 A22.598 22.598 -180 0 0 24.01 483.12 C25.66 482.3 26.62 481.3 26.62
							 480.23 L26.62 454.82 L24.01 454.85 Z" class="st15"/>
			</g>
			<g id="shape862-58" v:mID="862" v:groupContext="shape" transform="translate(15.9716,-0.141592)">
				<title>path3118</title>
				<path d="M7.82 454.99 L7.82 483.27 A22.598 22.598 0 0 1 -0 485.18 L0 455.06 L7.82 454.99 Z" class="st16"/>
			</g>
			<g id="shape863-60" v:mID="863" v:groupContext="shape">
				<title>path3120</title>
				<path d="M0 455.05 L0 480.24 C0 482.82 5.64 485.04 13.03 485.18 L13.31 485.18 C20.84 485.1 26.62 482.85 26.62 480.23
							 L26.62 454.82 L0 455.05 Z" class="st17"/>
				<path d="M0 455.05 L0 480.24 C0 482.82 5.64 485.04 13.03 485.18 L13.31 485.18 C20.84 485.1 26.62 482.85 26.62 480.23
							 L26.62 454.82" class="st18"/>
			</g>
			<g id="shape864-63" v:mID="864" v:groupContext="shape" transform="translate(0.033982,-25.2543)">
				<title>path3122</title>
				<path d="M26.62 480.37 C26.62 483.03 20.66 485.18 13.31 485.18 C5.96 485.18 0 483.03 0 480.37 C0 477.72 6.14 475.56
							 13.49 475.56 C20.83 475.56 26.62 477.72 26.62 480.37 Z" class="st19"/>
			</g>
		</g>
		<g id="group865-65" transform="translate(763.962,-193.689)" v:mID="865" v:groupContext="group">
			<v:userDefs>
				<v:ud v:nameU="visNavOrder" v:val="VT0(25000):26"/>
			</v:userDefs>
			<title>Database and Table</title>
			<g id="shape866-66" v:mID="866" v:groupContext="shape">
				<title>path4273</title>
				<path d="M24 454.84 L16.19 454.91 L0 455.04 L0 480.24 C0 482.82 5.66 485.04 13.02 485.18 L13.31 485.18 C14.3 485.18
							 15.26 485.12 16.19 485.03 A22.5907 22.5907 -180 0 0 24 483.13 C25.65 482.29 26.61 481.29 26.61 480.24
							 L26.61 454.82 L24 454.84 Z" class="st15"/>
			</g>
			<g id="shape867-68" v:mID="867" v:groupContext="shape" transform="translate(15.9664,-0.158531)">
				<title>path4275</title>
				<path d="M7.81 455 L7.81 483.27 A22.5907 22.5907 0 0 1 0 485.18 L0 455.07 L7.81 455 Z" class="st16"/>
			</g>
			<g id="shape868-70" v:mID="868" v:groupContext="shape">
				<title>path4277</title>
				<path d="M0 455.04 L0 480.24 C0 482.82 5.63 485.04 13.02 485.18 L13.31 485.18 C20.83 485.08 26.61 482.84 26.61 480.24
							 L26.61 454.82 L0 455.04 Z" class="st17"/>
				<path d="M0 455.04 L0 480.24 C0 482.82 5.63 485.04 13.02 485.18 L13.31 485.18 C20.83 485.08 26.61 482.84 26.61 480.24
							 L26.61 454.82" class="st18"/>
			</g>
			<g id="shape869-73" v:mID="869" v:groupContext="shape" transform="translate(0.033971,-25.2631)">
				<title>path4279</title>
				<path d="M26.61 480.37 C26.61 483.03 20.65 485.18 13.31 485.18 C5.96 485.18 0 483.03 0 480.37 C0 477.72 6.13 475.57
							 13.48 475.57 C20.83 475.57 26.61 477.72 26.61 480.38 L26.61 480.37 Z" class="st20"/>
				<path d="M26.61 480.37 C26.61 483.03 20.65 485.18 13.31 485.18 C5.96 485.18 0 483.03 0 480.37 C0 477.72 6.13 475.57
							 13.48 475.57 C20.83 475.57 26.61 477.72 26.61 480.38" class="st18"/>
			</g>
			<g id="shape870-76" v:mID="870" v:groupContext="shape" transform="translate(10.7575,-7.20751)">
				<title>rect4283</title>
				<rect x="0" y="471.592" width="20.3826" height="13.5884" class="st21"/>
			</g>
			<g id="shape871-78" v:mID="871" v:groupContext="shape" transform="translate(10.7575,-16.2664)">
				<title>line4285</title>
				<path d="M0 485.18 L20.95 485.18" class="st18"/>
			</g>
			<g id="shape872-81" v:mID="872" v:groupContext="shape" transform="translate(10.7575,-11.737)">
				<title>line4287</title>
				<path d="M0 485.18 L20.95 485.18" class="st18"/>
			</g>
			<g id="shape873-84" v:mID="873" v:groupContext="shape" transform="translate(502.732,464.384) rotate(90)">
				<title>line4289</title>
				<path d="M0 485.18 L13.59 485.18" class="st18"/>
			</g>
			<g id="shape874-87" v:mID="874" v:groupContext="shape" transform="translate(509.526,464.384) rotate(90)">
				<title>line4291</title>
				<path d="M0 485.18 L13.59 485.18" class="st18"/>
			</g>
		</g>
		<g id="shape887-90" v:mID="887" v:groupContext="shape" transform="translate(803.723,-321.375)">
			<title>Sheet.887</title>
			<desc>Hierarchical / network database system</desc>
			<v:userDefs>
				<v:ud v:nameU="visNavOrder" v:val="VT0(26000):26"/>
			</v:userDefs>
			<v:textBlock v:margins="rect(4,4,4,4)"/>
			<v:textRect cx="65.25" cy="458.18" width="130.5" height="54"/>
			<rect x="0" y="431.18" width="130.5" height="54" class="st3"/>
			<text x="4" y="454.88" class="st22" v:langID="1033"><v:paragraph/><v:tabList/>Hierarchical / network <tspan x="4"
						dy="1.2em" class="st6">database system </tspan> </text>		</g>
		<g id="shape888-94" v:mID="888" v:groupContext="shape" transform="translate(806.918,-184.125)">
			<title>Sheet.888</title>
			<desc>Relational database</desc>
			<v:userDefs>
				<v:ud v:nameU="visNavOrder" v:val="VT0(27000):26"/>
			</v:userDefs>
			<v:textBlock v:margins="rect(4,4,4,4)"/>
			<v:textRect cx="65.25" cy="458.18" width="130.5" height="54"/>
			<rect x="0" y="431.18" width="130.5" height="54" class="st3"/>
			<text x="4" y="461.48" class="st22" v:langID="1033"><v:paragraph/><v:tabList/>Relational database</text>		</g>
		<g id="shape889-97" v:mID="889" v:groupContext="shape" transform="translate(714.064,-171.375)">
			<title>Sheet.889</title>
			<v:userDefs>
				<v:ud v:nameU="visNavOrder" v:val="VT0(28000):26"/>
			</v:userDefs>
			<path d="M0 485.18 L225 485.18 L225 265.62 L0 265.62 L0 485.18 Z" class="st2"/>
		</g>
		<g id="shape890-99" v:mID="890" v:groupContext="shape" transform="translate(711.184,-371.32)">
			<title>Sheet.890</title>
			<desc>Data and databases</desc>
			<v:userDefs>
				<v:ud v:nameU="visNavOrder" v:val="VT0(29000):26"/>
			</v:userDefs>
			<v:textBlock v:margins="rect(4,4,4,4)"/>
			<v:textRect cx="125.05" cy="458.18" width="250.1" height="54"/>
			<rect x="0" y="431.18" width="250.1" height="54" class="st3"/>
			<text x="4" y="461.78" class="st23" v:langID="1033"><v:paragraph/><v:tabList/><v:newlineChar/>Data and databases  <v:newlineChar/></text>		</g>
		<g id="shape1119-102" v:mID="1119" v:groupContext="shape" transform="translate(547.284,-280.875)">
			<title>Sheet.1119</title>
			<desc>Transaction monitoring facility</desc>
			<v:userDefs>
				<v:ud v:nameU="visNavOrder" v:val="VT0(45000):26"/>
			</v:userDefs>
			<v:textBlock v:margins="rect(4,4,4,4)"/>
			<v:textRect cx="96.75" cy="458.18" width="193.5" height="54"/>
			<rect x="0" y="431.18" width="193.5" height="54" class="st3"/>
			<text x="4" y="448.28" class="st22" v:langID="1033"><v:paragraph/><v:tabList/>Transaction monitoring <v:newlineChar/><tspan
						x="4" dy="1.2em" class="st6">facility</tspan><v:newlineChar/></text>		</g>
		<g id="shape1121-106" v:mID="1121" v:groupContext="shape" transform="translate(455.015,-153.375)">
			<title>Sheet.1121</title>
			<v:userDefs>
				<v:ud v:nameU="visNavOrder" v:val="VT0(47000):26"/>
			</v:userDefs>
			<path d="M0 485.18 L247.5 485.18 L247.5 247.62 L0 247.62 L0 485.18 Z" class="st2"/>
		</g>
		<g id="shape1122-108" v:mID="1122" v:groupContext="shape" transform="translate(452.135,-378.375)">
			<title>Sheet.1122</title>
			<desc>Transaction processing monitor and applications</desc>
			<v:userDefs>
				<v:ud v:nameU="visNavOrder" v:val="VT0(48000):26"/>
			</v:userDefs>
			<v:textBlock v:margins="rect(4,4,4,4)"/>
			<v:textRect cx="96.75" cy="458.18" width="193.5" height="54"/>
			<rect x="0" y="431.18" width="193.5" height="54" class="st3"/>
			<text x="4" y="454.58" class="st4" v:langID="1033"><v:paragraph/><v:tabList/>Transaction processing monitor <tspan
						x="4" dy="1.2em" class="st6">and applications</tspan></text>		</g>
		<g id="group1127-112" transform="translate(465.021,-288.663)" v:mID="1127" v:groupContext="group">
			<v:userDefs>
				<v:ud v:nameU="visNavOrder" v:val="VT0(51000):26"/>
			</v:userDefs>
			<title>DevOps</title>
			<g id="shape1128-113" v:mID="1128" v:groupContext="shape" transform="translate(33.6665,-22.4218)">
				<title>path8981</title>
				<path d="M10.3 471.99 a0.518554 0.518554 0 0 1 -0.608737 0.124002 C9.62 472.19 9.48 471.88 9.41 471.65 L9.16 470.74
							 C9.02 470.44 8.73 470.42 8.64 470.64 L7.93 471.3 C7.77 471.6 8.08 471.3 7.93 471.3 L6.95 471.33 L6.31
							 470.63 C6.09 470.39 5.86 470.46 5.78 470.68 L5.35 471.64 A2.19822 2.19822 0 0 1 5.03 472.2 A4.38516
							 4.38516 0 0 1 4.51 471.95 L3.62 471.61 C3.33 471.44 3.17 471.61 3.16 471.89 L3.19 472.87 a0.721466 0.721466
							 0 0 1 -0.17473 0.591828 A1.84312 1.84312 0 0 1 2.49 473.51 L1.58 473.47 C1.29 473.47 1.13 473.6 1.26
							 473.91 L1.67 474.83 C1.74 475.06 1.8 475.44 1.8 475.44 A1.78676 1.78676 0 0 1 1.23 475.64 L0.32 476.05
							 C0.08 476.12 0 476.34 0.21 476.58 L0.94 477.22 A3.76515 3.76515 0 0 1 1.29 477.78 A3.74824 3.74824 0
							 0 1 0.88 478.29 L0.18 478.93 C0.02 479.07 0.09 479.3 0.31 479.39 L1.19 479.73 C1.41 479.81 1.71 479.98
							 1.7 480.13 A1.98967 1.98967 0 0 1 1.6 480.65 L1.11 481.53 C1.03 481.75 1.17 481.91 1.39 482 L2.37 481.97
							 A1.47675 1.47675 0 0 1 3.04 482.07 a0.563645 0.563645 0 0 1 0.0507281 0.529827 L3.05 483.66 C3.05 483.96
							 3.26 484.04 3.48 483.98 L4.33 483.49 a0.760921 0.760921 0 0 1 0.682011 -0.0450916 C5.1 483.37 5.16 483.6
							 5.3 483.91 L5.56 484.82 C5.69 485.12 5.92 485.06 6.08 484.92 L6.8 484.27 a0.806013 0.806013 0 0 1 0.62001
							 -0.422734 L7.78 484.24 L8.43 484.94 C8.64 485.18 8.87 485.11 8.96 484.89 L9.31 483.86 A1.57821 1.57821
							 0 0 1 9.71 483.35 A4.43589 4.43589 0 0 1 10.22 483.6 L11.1 483.94 C11.4 484.1 11.55 483.94 11.57 483.66
							 L11.46 482.75 A1.60075 1.60075 0 0 1 11.64 482.01 L12.25 482.01 L13.15 482.05 C13.45 482.05 13.53 481.84
							 13.47 481.61 L13.06 480.69 C12.99 480.46 12.94 480.09 12.94 480.09 A1.12729 1.12729 0 0 1 13.4 479.8
							 L14.39 479.47 C14.62 479.4 14.71 479.18 14.49 478.95 L13.76 478.31 A2.31658 2.31658 0 0 1 13.41 477.75
							 C13.34 477.67 13.58 477.45 13.74 477.31 L14.55 476.62 C14.71 476.48 14.64 476.25 14.42 476.17 L13.53
							 475.83 C13.31 475.74 12.97 475.5 13.03 475.43 C12.95 475.35 13.03 475.13 13.13 474.91 L13.62 474.03
							 C13.7 473.81 13.56 473.65 13.26 473.63 L12.36 473.59 A4.15407 4.15407 0 0 1 11.68 473.48 a0.96947 0.96947
							 0 0 1 -0.124002 -0.608737 L11.68 471.9 C11.68 471.6 11.47 471.52 11.24 471.58 L10.3 471.99 ZM8.42 477.02
							 A1.29638 1.29638 0 0 1 6.25 478.43 A1.18366 1.18366 0 0 1 6.7 476.74 A1.27947 1.27947 0 0 1 8.39 477.05
							 L8.42 477.02 Z" class="st24"/>
				<path d="M10.3 471.99 a0.518554 0.518554 0 0 1 -0.608737 0.124002 C9.62 472.19 9.48 471.88 9.41 471.65 L9.16 470.74
							 C9.02 470.44 8.73 470.42 8.64 470.64 L7.93 471.3 C7.77 471.6 8.08 471.3 7.93 471.3 L6.95 471.33 L6.31
							 470.63 C6.09 470.39 5.86 470.46 5.78 470.68 L5.35 471.64 A2.19822 2.19822 0 0 1 5.03 472.2 A4.38516
							 4.38516 0 0 1 4.51 471.95 L3.62 471.61 C3.33 471.44 3.17 471.61 3.16 471.89 L3.19 472.87 a0.721466 0.721466
							 0 0 1 -0.17473 0.591828 A1.84312 1.84312 0 0 1 2.49 473.51 L1.58 473.47 C1.29 473.47 1.13 473.6 1.26
							 473.91 L1.67 474.83 C1.74 475.06 1.8 475.44 1.8 475.44 A1.78676 1.78676 0 0 1 1.23 475.64 L0.32 476.05
							 C0.08 476.12 0 476.34 0.21 476.58 L0.94 477.22 A3.76515 3.76515 0 0 1 1.29 477.78 A3.74824 3.74824 0
							 0 1 0.88 478.29 L0.18 478.93 C0.02 479.07 0.09 479.3 0.31 479.39 L1.19 479.73 C1.41 479.81 1.71 479.98
							 1.7 480.13 A1.98967 1.98967 0 0 1 1.6 480.65 L1.11 481.53 C1.03 481.75 1.17 481.91 1.39 482 L2.37 481.97
							 A1.47675 1.47675 0 0 1 3.04 482.07 a0.563645 0.563645 0 0 1 0.0507281 0.529827 L3.05 483.66 C3.05 483.96
							 3.26 484.04 3.48 483.98 L4.33 483.49 a0.760921 0.760921 0 0 1 0.682011 -0.0450916 C5.1 483.37 5.16 483.6
							 5.3 483.91 L5.56 484.82 C5.69 485.12 5.92 485.06 6.08 484.92 L6.8 484.27 a0.806013 0.806013 0 0 1 0.62001
							 -0.422734 L7.78 484.24 L8.43 484.94 C8.64 485.18 8.87 485.11 8.96 484.89 L9.31 483.86 A1.57821 1.57821
							 0 0 1 9.71 483.35 A4.43589 4.43589 0 0 1 10.22 483.6 L11.1 483.94 C11.4 484.1 11.55 483.94 11.57 483.66
							 L11.46 482.75 A1.60075 1.60075 0 0 1 11.64 482.01 L12.25 482.01 L13.15 482.05 C13.45 482.05 13.53 481.84
							 13.47 481.61 L13.06 480.69 C12.99 480.46 12.94 480.09 12.94 480.09 A1.12729 1.12729 0 0 1 13.4 479.8
							 L14.39 479.47 C14.62 479.4 14.71 479.18 14.49 478.95 L13.76 478.31 A2.31658 2.31658 0 0 1 13.41 477.75
							 C13.34 477.67 13.58 477.45 13.74 477.31 L14.55 476.62 C14.71 476.48 14.64 476.25 14.42 476.17 L13.53
							 475.83 C13.31 475.74 12.97 475.5 13.03 475.43 C12.95 475.35 13.03 475.13 13.13 474.91 L13.62 474.03
							 C13.7 473.81 13.56 473.65 13.26 473.63 L12.36 473.59 A4.15407 4.15407 0 0 1 11.68 473.48 a0.96947 0.96947
							 0 0 1 -0.124002 -0.608737 L11.68 471.9 C11.68 471.6 11.47 471.52 11.24 471.58 L10.3 471.99M8.42 477.02
							 A1.29638 1.29638 0 0 1 6.25 478.43 A1.18366 1.18366 0 0 1 6.7 476.74 A1.27947 1.27947 0 0 1 8.39 477.05"
						class="st25"/>
			</g>
			<g id="shape1129-116" v:mID="1129" v:groupContext="shape">
				<title>path8983</title>
				<path d="M30.66 457.75 a0.69892 0.69892 -180 0 0 0.0394552 -0.918742 L29.47 455.48 a0.822922 0.822922 -180 0 0 -0.918742
							 -0.0394552 L26.45 456.82 C26.01 456.52 25.47 456.13 25.02 455.84 L25.67 453.27 a0.625646 0.625646 -180
							 0 0 -0.338187 -0.755285 L23.8 451.8 a0.563645 0.563645 -180 0 0 -0.839831 0.236731 L21.47 454.29 A5.37154
							 5.37154 -180 0 0 19.83 453.85 L19.58 451.25 a0.631283 0.631283 -180 0 0 -0.614373 -0.676374 L17.21 450.57
							 C16.94 450.47 16.65 450.73 16.55 451.01 L15.98 453.66 A5.41663 5.41663 -180 0 0 14.29 453.95 L13.02
							 451.59 a0.930015 0.930015 -180 0 0 -0.817286 -0.315641 L10.51 451.93 a0.625646 0.625646 -180 0 0 -0.400188
							 0.721466 L10.64 455.17 C10.17 455.42 9.69 455.86 9.22 456.12 L7.17 454.46 a0.597464 0.597464 -180 0
							 0 -0.834195 0.0563645 L5.08 455.64 a0.597464 0.597464 -180 0 0 -0.129638 0.822922 L6.42 458.65 A7.51903
							 7.51903 -180 0 0 5.33 460.17 L2.79 459.32 a0.806013 0.806013 -180 0 0 -0.851104 0.422734 L1.23 461.28
							 a0.79474 0.79474 -180 0 0 0.326914 0.935651 L3.69 463.63 C3.48 464.2 3.45 464.73 3.24 465.27 L0.64 465.53
							 a0.806013 0.806013 -180 0 0 -0.563645 0.710193 L0 467.89 a0.800376 0.800376 -180 0 0 0.518554 0.760921
							 L3.18 469.05 A10.8896 10.8896 -180 0 0 3.46 470.91 L1.09 472.19 a0.563645 0.563645 -180 0 0 -0.315641
							 0.817286 L1.34 474.6 a0.862377 0.862377 -180 0 0 0.806013 0.496008 L4.65 474.5 L5.52 475.9 L3.83 477.94
							 a0.862377 0.862377 -180 0 0 0.0563645 0.834195 L5.12 480.12 a0.69892 0.69892 -180 0 0 0.822922 0.129638
							 L8.2 478.79 C8.64 479.09 9.18 479.48 9.63 479.78 L8.96 482.33 a0.625646 0.625646 -180 0 0 0.332551 0.755285
							 L10.91 483.9 a0.789103 0.789103 -180 0 0 0.839831 -0.242367 L13.14 481.5 C13.71 481.5 14.24 481.73 14.8
							 481.76 L14.96 484.45 a0.800376 0.800376 -180 0 0 0.710193 0.563645 L17.42 485.18 A1.12729 1.12729 -180
							 0 0 18.09 484.57 L18.58 482.01 C19.23 481.95 19.79 481.78 20.44 481.72 L21.63 483.97 a0.631283 0.631283
							 -180 0 0 0.817286 0.315641 L24.04 483.73 a0.749648 0.749648 -180 0 0 0.501644 -0.806013 L23.98 480.45
							 A6.62847 6.62847 -180 0 0 25.4 479.49 L27.45 481.16 a0.614373 0.614373 -180 0 0 0.918742 0.0394552 L29.62
							 480.07 a0.614373 0.614373 -180 0 0 0.0450916 -0.918742 L28.19 476.96 A4.60498 4.60498 -180 0 0 29.28
							 475.43 L31.83 476.29 a0.625646 0.625646 -180 0 0 0.755285 -0.332551 L33.4 474.33 a0.930015 0.930015
							 -180 0 0 -0.236731 -0.839831 L30.9 472 A4.70644 4.70644 -180 0 0 31.25 470.45 L33.95 470.11 C34.23 470.03
							 34.51 469.76 34.51 469.58 L34.6 467.74 a0.631283 0.631283 -180 0 0 -0.614373 -0.676374 L31.42 466.57
							 A10.0442 10.0442 -180 0 0 31.22 464.81 L33.4 463.53 a0.670738 0.670738 -180 0 0 0.411461 -0.901832 L33.25
							 461.03 a0.563645 0.563645 -180 0 0 -0.817286 -0.315641 L29.89 461.14 L29.06 459.73 L30.63 457.77 L30.66
							 457.75 ZM19.27 465.77 A2.67732 2.67732 0 1 1 15.32 469.38 A2.67732 2.67732 0 1 1 19.27 465.77 Z"
						class="st26"/>
				<path d="M30.66 457.75 a0.69892 0.69892 -180 0 0 0.0394552 -0.918742 L29.47 455.48 a0.822922 0.822922 -180 0 0 -0.918742
							 -0.0394552 L26.45 456.82 C26.01 456.52 25.47 456.13 25.02 455.84 L25.67 453.27 a0.625646 0.625646 -180
							 0 0 -0.338187 -0.755285 L23.8 451.8 a0.563645 0.563645 -180 0 0 -0.839831 0.236731 L21.47 454.29 A5.37154
							 5.37154 -180 0 0 19.83 453.85 L19.58 451.25 a0.631283 0.631283 -180 0 0 -0.614373 -0.676374 L17.21 450.57
							 C16.94 450.47 16.65 450.73 16.55 451.01 L15.98 453.66 A5.41663 5.41663 -180 0 0 14.29 453.95 L13.02
							 451.59 a0.930015 0.930015 -180 0 0 -0.817286 -0.315641 L10.51 451.93 a0.625646 0.625646 -180 0 0 -0.400188
							 0.721466 L10.64 455.17 C10.17 455.42 9.69 455.86 9.22 456.12 L7.17 454.46 a0.597464 0.597464 -180 0
							 0 -0.834195 0.0563645 L5.08 455.64 a0.597464 0.597464 -180 0 0 -0.129638 0.822922 L6.42 458.65 A7.51903
							 7.51903 -180 0 0 5.33 460.17 L2.79 459.32 a0.806013 0.806013 -180 0 0 -0.851104 0.422734 L1.23 461.28
							 a0.79474 0.79474 -180 0 0 0.326914 0.935651 L3.69 463.63 C3.48 464.2 3.45 464.73 3.24 465.27 L0.64 465.53
							 a0.806013 0.806013 -180 0 0 -0.563645 0.710193 L0 467.89 a0.800376 0.800376 -180 0 0 0.518554 0.760921
							 L3.18 469.05 A10.8896 10.8896 -180 0 0 3.46 470.91 L1.09 472.19 a0.563645 0.563645 -180 0 0 -0.315641
							 0.817286 L1.34 474.6 a0.862377 0.862377 -180 0 0 0.806013 0.496008 L4.65 474.5 L5.52 475.9 L3.83 477.94
							 a0.862377 0.862377 -180 0 0 0.0563645 0.834195 L5.12 480.12 a0.69892 0.69892 -180 0 0 0.822922 0.129638
							 L8.2 478.79 C8.64 479.09 9.18 479.48 9.63 479.78 L8.96 482.33 a0.625646 0.625646 -180 0 0 0.332551 0.755285
							 L10.91 483.9 a0.789103 0.789103 -180 0 0 0.839831 -0.242367 L13.14 481.5 C13.71 481.5 14.24 481.73 14.8
							 481.76 L14.96 484.45 a0.800376 0.800376 -180 0 0 0.710193 0.563645 L17.42 485.18 A1.12729 1.12729 -180
							 0 0 18.09 484.57 L18.58 482.01 C19.23 481.95 19.79 481.78 20.44 481.72 L21.63 483.97 a0.631283 0.631283
							 -180 0 0 0.817286 0.315641 L24.04 483.73 a0.749648 0.749648 -180 0 0 0.501644 -0.806013 L23.98 480.45
							 A6.62847 6.62847 -180 0 0 25.4 479.49 L27.45 481.16 a0.614373 0.614373 -180 0 0 0.918742 0.0394552 L29.62
							 480.07 a0.614373 0.614373 -180 0 0 0.0450916 -0.918742 L28.19 476.96 A4.60498 4.60498 -180 0 0 29.28
							 475.43 L31.83 476.29 a0.625646 0.625646 -180 0 0 0.755285 -0.332551 L33.4 474.33 a0.930015 0.930015
							 -180 0 0 -0.236731 -0.839831 L30.9 472 A4.70644 4.70644 -180 0 0 31.25 470.45 L33.95 470.11 C34.23 470.03
							 34.51 469.76 34.51 469.58 L34.6 467.74 a0.631283 0.631283 -180 0 0 -0.614373 -0.676374 L31.42 466.57
							 A10.0442 10.0442 -180 0 0 31.22 464.81 L33.4 463.53 a0.670738 0.670738 -180 0 0 0.411461 -0.901832 L33.25
							 461.03 a0.563645 0.563645 -180 0 0 -0.817286 -0.315641 L29.89 461.14 L29.06 459.73 L30.63 457.77M19.27
							 465.77 A2.67732 2.67732 0 1 1 15.32 469.38 A2.67732 2.67732 0 1 1 19.27 465.77" class="st25"/>
			</g>
			<g id="shape1130-119" v:mID="1130" v:groupContext="shape" transform="translate(34.7149,-1.91639)">
				<title>path8985</title>
				<path d="M19.29 474.1 L17.03 473.85 a0.422734 0.422734 0 0 1 -0.360733 -0.326914 A6.99484 6.99484 -180 0 0 16.05
							 471.87 a0.512917 0.512917 0 0 1 0.0450916 -0.52419 L17.57 469.51 a0.450916 0.450916 -180 0 0 -0.0338187
							 -0.597464 L16.32 467.67 a0.450916 0.450916 -180 0 0 -0.597464 -0.0338187 L13.94 469.07 a0.456553 0.456553
							 0 0 1 -0.518554 0.0338187 A7.01738 7.01738 -180 0 0 11.89 468.43 a0.462189 0.462189 0 0 1 -0.332551
							 -0.388915 L11.31 465.86 a0.456553 0.456553 -180 0 0 -0.456553 -0.405825 L9.1 465.46 a0.473462 0.473462
							 -180 0 0 -0.456553 0.411461 L8.41 468.02 a0.422734 0.422734 0 0 1 -0.315641 0.360733 A6.99484 6.99484
							 -180 0 0 6.33 469.09 a0.450916 0.450916 0 0 1 -0.512917 -0.0338187 L4.2 467.76 C3.88 467.5 3.64 467.52
							 3.47 467.68 L2.23 468.91 a0.450916 0.450916 -180 0 0 -0.0338187 0.597464 L3.63 471.3 a0.44528 0.44528
							 0 0 1 0.0394552 0.496008 A7.01175 7.01175 -180 0 0 3 473.48 a0.467826 0.467826 0 0 1 -0.400188 0.360733
							 L0.41 474.09 a0.456553 0.456553 -180 0 0 -0.405825 0.456553 L0 476.3 a0.456553 0.456553 -180 0 0 0.405825
							 0.456553 L2.78 477.02 a0.439643 0.439643 0 0 1 0.366369 0.304368 A7.00047 7.00047 -180 0 0 3.71 478.61
							 a0.496008 0.496008 0 0 1 -0.0394552 0.518554 L2.21 480.94 a0.450916 0.450916 -180 0 0 0.0338187 0.597464
							 L3.48 482.78 a0.450916 0.450916 -180 0 0 0.597464 0.0338187 L5.87 481.36 a0.456553 0.456553 0 0 1 0.512917
							 -0.0338187 A7.01738 7.01738 -180 0 0 7.86 481.97 a0.456553 0.456553 0 0 1 0.332551 0.383279 L8.46 484.78
							 a0.450916 0.450916 -180 0 0 0.44528 0.400188 L10.65 485.18 a0.450916 0.450916 -180 0 0 0.44528 -0.400188
							 L11.36 482.36 a0.439643 0.439643 0 0 1 0.326914 -0.377642 A7.01175 7.01175 -180 0 0 13.38 481.29 a0.456553
							 0.456553 0 0 1 0.512917 0.0338187 L15.72 482.8 a0.450916 0.450916 -180 0 0 0.597464 -0.0338187 L17.56
							 481.52 a0.450916 0.450916 -180 0 0 0.0338187 -0.597464 L16.09 479.06 a0.456553 0.456553 0 0 1 -0.0394552
							 -0.507281 A7.01175 7.01175 -180 0 0 16.58 477.33 a0.456553 0.456553 0 0 1 0.377642 -0.321278 L19.32
							 476.75 a0.473462 0.473462 -180 0 0 0.405825 -0.456553 L19.73 474.56 a0.473462 0.473462 -180 0 0 -0.439643
							 -0.456553 ZM10.12 478.64 A3.57351 3.57351 0 1 1 13.69 475.07 A3.57351 3.57351 0 0 1 10.12 478.64 Z"
						class="st27"/>
			</g>
		</g>
		<g id="shape1195-121" v:mID="1195" v:groupContext="shape" transform="translate(466.017,-210.946)">
			<title>Sheet.1195</title>
			<desc>Applications COBOL, PL/I, Assembler, 4GL</desc>
			<v:userDefs>
				<v:ud v:nameU="visNavOrder" v:val="VT0(54000):26"/>
			</v:userDefs>
			<v:textBlock v:margins="rect(4,4,4,4)" v:verticalAlign="0"/>
			<v:textRect cx="112.5" cy="466.574" width="225" height="37.2119"/>
			<path d="M0 485.18 L225 485.18 L225 447.97 L0 447.97 L0 485.18 Z" class="st28"/>
			<text x="80.27" y="461.87" class="st22" v:langID="1033"><v:paragraph v:horizAlign="1"/><v:tabList/>Applications<v:newlineChar/><tspan
						x="43.18" dy="1.2em" class="st29">COBOL, PL/I, Assembler, 4GL</tspan></text>		</g>
		<g id="shape1199-125" v:mID="1199" v:groupContext="shape" transform="translate(463.723,-259.125)">
			<title>Sheet.1199</title>
			<desc>TX</desc>
			<v:userDefs>
				<v:ud v:nameU="visNavOrder" v:val="VT0(57000):26"/>
			</v:userDefs>
			<v:textBlock v:margins="rect(4,4,4,4)"/>
			<v:textRect cx="13.1616" cy="475.055" width="26.33" height="20.25"/>
			<path d="M0 485.18 L26.32 485.18 L26.32 464.93 L0 464.93 L0 485.18 Z" class="st28"/>
			<text x="8.71" y="477.46" class="st30" v:langID="1033"><v:paragraph v:horizAlign="1"/><v:tabList/>TX</text>		</g>
		<g id="shape1200-128" v:mID="1200" v:groupContext="shape" transform="translate(499.723,-259.125)">
			<title>Sheet.1200</title>
			<desc>TX</desc>
			<v:userDefs>
				<v:ud v:nameU="visNavOrder" v:val="VT0(58000):26"/>
			</v:userDefs>
			<v:textBlock v:margins="rect(4,4,4,4)"/>
			<v:textRect cx="13.1616" cy="475.055" width="26.33" height="20.25"/>
			<path d="M0 485.18 L26.32 485.18 L26.32 464.93 L0 464.93 L0 485.18 Z" class="st28"/>
			<text x="8.71" y="477.46" class="st30" v:langID="1033"><v:paragraph v:horizAlign="1"/><v:tabList/>TX</text>		</g>
		<g id="shape1202-131" v:mID="1202" v:groupContext="shape" transform="translate(535.723,-259.125)">
			<title>Sheet.1202</title>
			<desc>TX</desc>
			<v:userDefs>
				<v:ud v:nameU="visNavOrder" v:val="VT0(59000):26"/>
			</v:userDefs>
			<v:textBlock v:margins="rect(4,4,4,4)"/>
			<v:textRect cx="13.1616" cy="475.055" width="26.33" height="20.25"/>
			<path d="M0 485.18 L26.32 485.18 L26.32 464.93 L0 464.93 L0 485.18 Z" class="st28"/>
			<text x="8.71" y="477.46" class="st30" v:langID="1033"><v:paragraph v:horizAlign="1"/><v:tabList/>TX</text>		</g>
		<g id="shape1203-134" v:mID="1203" v:groupContext="shape" transform="translate(570.122,-259.125)">
			<title>Sheet.1203</title>
			<desc>TX</desc>
			<v:userDefs>
				<v:ud v:nameU="visNavOrder" v:val="VT0(60000):26"/>
			</v:userDefs>
			<v:textBlock v:margins="rect(4,4,4,4)"/>
			<v:textRect cx="13.1616" cy="475.055" width="26.33" height="20.25"/>
			<path d="M0 485.18 L26.32 485.18 L26.32 464.93 L0 464.93 L0 485.18 Z" class="st28"/>
			<text x="8.71" y="477.46" class="st30" v:langID="1033"><v:paragraph v:horizAlign="1"/><v:tabList/>TX</text>		</g>
		<g id="shape1209-137" v:mID="1209" v:groupContext="shape" transform="translate(236.254,-99.315)">
			<title>Sheet.1209</title>
			<v:userDefs>
				<v:ud v:nameU="visNavOrder" v:val="VT0(62000):26"/>
			</v:userDefs>
			<path d="M0 485.18 L206.37 485.18 L206.37 301.31 L0 301.31 L0 485.18 Z" class="st2"/>
		</g>
		<g id="shape1210-139" v:mID="1210" v:groupContext="shape" transform="translate(233.374,-265.5)">
			<title>Sheet.1210</title>
			<desc>Integration middleware</desc>
			<v:userDefs>
				<v:ud v:nameU="visNavOrder" v:val="VT0(63000):26"/>
			</v:userDefs>
			<v:textBlock v:margins="rect(4,4,4,4)"/>
			<v:textRect cx="96.75" cy="458.18" width="193.5" height="54"/>
			<rect x="0" y="431.18" width="193.5" height="54" class="st3"/>
			<text x="4" y="461.78" class="st4" v:langID="1033"><v:paragraph/><v:tabList/>Integration middleware</text>		</g>
		<g id="shape1223-142" v:mID="1223" v:groupContext="shape" transform="translate(244.624,-223.929)">
			<title>Sheet.1223</title>
			<desc>Middleware Web services, management, transaction management, ...</desc>
			<v:userDefs>
				<v:ud v:nameU="visNavOrder" v:val="VT0(66000):26"/>
			</v:userDefs>
			<v:textBlock v:margins="rect(4,4,4,4)"/>
			<v:textRect cx="94.5" cy="459.397" width="189" height="51.5664"/>
			<path d="M0 485.18 L189 485.18 L189 433.61 L0 433.61 L0 485.18 Z" class="st28"/>
			<text x="4" y="449.5" class="st22" v:langID="1033"><v:paragraph/><v:tabList/>Middleware<v:newlineChar/><tspan x="4"
						dy="1.2em" class="st31">Web services, management, </tspan><tspan x="4" dy="1.2em" class="st31">transaction management, queueing</tspan></text>		</g>
		<g id="shape1231-147" v:mID="1231" v:groupContext="shape" transform="translate(244.624,-165.245)">
			<title>Sheet.1231</title>
			<desc>Environment integrators Queueing, management, output</desc>
			<v:userDefs>
				<v:ud v:nameU="visNavOrder" v:val="VT0(67000):26"/>
			</v:userDefs>
			<v:textBlock v:margins="rect(4,4,4,4)"/>
			<v:textRect cx="94.5" cy="459.397" width="189" height="51.5664"/>
			<path d="M0 485.18 L189 485.18 L189 433.61 L0 433.61 L0 485.18 Z" class="st28"/>
			<text x="4" y="456.1" class="st22" v:langID="1033"><v:paragraph/><v:tabList/>Environment integrators<v:newlineChar/><tspan
						x="4" dy="1.2em" class="st31">Queueing, management, output</tspan></text>		</g>
		<g id="shape1232-151" v:mID="1232" v:groupContext="shape" transform="translate(244.624,-107.962)">
			<title>Sheet.1232</title>
			<desc>Other services Tape storage, monitoring</desc>
			<v:userDefs>
				<v:ud v:nameU="visNavOrder" v:val="VT0(68000):26"/>
			</v:userDefs>
			<v:textBlock v:margins="rect(4,4,4,4)"/>
			<v:textRect cx="94.5" cy="459.397" width="189" height="51.5664"/>
			<path d="M0 485.18 L189 485.18 L189 433.61 L0 433.61 L0 485.18 Z" class="st28"/>
			<text x="4" y="456.1" class="st22" v:langID="1033"><v:paragraph/><v:tabList/>Other services<v:newlineChar/><tspan x="4"
						dy="1.2em" class="st31">Tape storage, monitoring</tspan></text>		</g>
		<g id="shape1238-155" v:mID="1238" v:groupContext="shape" transform="translate(237.099,-323.625)">
			<title>Sheet.1238</title>
			<v:userDefs>
				<v:ud v:nameU="visNavOrder" v:val="VT0(69000):26"/>
			</v:userDefs>
			<path d="M0 485.18 L206.37 485.18 L206.37 416.74 L0 416.74 L0 485.18 Z" class="st2"/>
		</g>
		<g id="shape1239-157" v:mID="1239" v:groupContext="shape" transform="translate(234.534,-373.125)">
			<title>Sheet.1239</title>
			<desc>Communications</desc>
			<v:userDefs>
				<v:ud v:nameU="visNavOrder" v:val="VT0(70000):26"/>
			</v:userDefs>
			<v:textBlock v:margins="rect(4,4,4,4)"/>
			<v:textRect cx="96.75" cy="458.18" width="193.5" height="54"/>
			<rect x="0" y="431.18" width="193.5" height="54" class="st3"/>
			<text x="4" y="461.78" class="st4" v:langID="1033"><v:paragraph/><v:tabList/>Communications</text>		</g>
		<g id="shape1240-160" v:mID="1240" v:groupContext="shape" transform="translate(245.469,-332.809)">
			<title>Sheet.1240</title>
			<desc>Communications standards LU 6.2, TN3270, FTP, Sockets, UTS</desc>
			<v:userDefs>
				<v:ud v:nameU="visNavOrder" v:val="VT0(71000):26"/>
			</v:userDefs>
			<v:textBlock v:margins="rect(4,4,4,4)"/>
			<v:textRect cx="94.5" cy="459.397" width="189" height="51.5664"/>
			<path d="M0 485.18 L189 485.18 L189 433.61 L0 433.61 L0 485.18 Z" class="st28"/>
			<text x="4" y="456.1" class="st22" v:langID="1033"><v:paragraph/><v:tabList/>Communications standards<v:newlineChar/><tspan
						x="4" dy="1.2em" class="st31">LU 6.2, TN3270, FTP, Sockets, UTS</tspan></text>		</g>
		<g id="group1271-164" transform="translate(470.65,-216.375)" v:mID="1271" v:groupContext="group">
			<v:userDefs>
				<v:ud v:nameU="visNavOrder" v:val="VT0(75000):26"/>
			</v:userDefs>
			<title>Code Automate</title>
			<g id="shape1272-165" v:mID="1272" v:groupContext="shape" transform="translate(7.36496,-10.4125)">
				<title>path8249</title>
				<path d="M12.07 480.69 L11.08 480.07 C10.84 479.96 10.82 479.03 10.79 478.85 a0.610405 0.610405 0 0 1 0.445551 -0.752981
							 L12.2 477.66 a0.552483 0.552483 -180 0 0 0.227231 -0.552483 L12.07 476.18 a0.343074 0.343074 -180 0
							 0 -0.445551 -0.182676 L11.6 476 L10.52 476.26 C9.83 476.48 8.88 475.37 9.12 474.8 L9.53 473.78 a0.503473
							 0.503473 -180 0 0 -0.213865 -0.592583 L8.45 472.89 a0.445551 0.445551 -180 0 0 -0.543572 0.12921 L7.38
							 474.07 a0.712882 0.712882 0 0 1 -0.699515 0.378718 C6.49 474.42 6.01 474.39 6.01 474.39 a0.735159 0.735159
							 0 0 1 -0.668327 -0.414362 L4.87 472.87 a0.445551 0.445551 -180 0 0 -0.472284 -0.173765 L3.48 473.06
							 a0.343074 0.343074 -180 0 0 -0.160398 0.445551 L3.53 474.67 C3.63 475.08 3.04 475.65 2.94 475.81 a0.730704
							 0.730704 0 0 1 -0.815358 0.191587 L1.01 475.55 a0.543572 0.543572 -180 0 0 -0.512384 0.262875 L0.05
							 476.71 a0.61486 0.61486 -180 0 0 0.262875 0.512384 L1.32 477.84 C1.66 478.04 1.62 478.84 1.69 479.11
							 C1.69 479.33 1.65 479.56 1.19 479.73 L0.17 480.26 a0.445551 0.445551 -180 0 0 -0.173765 0.472284 L0.36
							 481.65 a0.445551 0.445551 -180 0 0 0.418818 0.25842 L1.92 481.57 C2.32 481.47 2.49 481.57 2.61 481.77
							 C2.72 481.96 3.41 482.75 3.32 483.01 L2.88 484.12 a0.539117 0.539117 -180 0 0 0.262875 0.507928 L3.95
							 485.01 a0.445551 0.445551 -180 0 0 0.548028 -0.111388 L5.03 483.84 a0.708426 0.708426 0 0 1 0.69506
							 -0.369807 L6.39 483.53 C6.67 483.6 6.83 483.57 7.06 483.95 L7.58 484.97 C7.58 484.97 7.88 485.18 8.06
							 485.14 L8.92 484.9 a0.445551 0.445551 -180 0 0 0.227231 -0.556939 L8.9 483.26 a0.646049 0.646049 0 0
							 1 0.222776 -0.770803 C9.22 482.32 9.81 481.71 10.07 481.8 L11.45 482.3 a0.52575 0.52575 -180 0 0 0.445551
							 -0.182676 L12.34 481.23 a0.445551 0.445551 -180 0 0 -0.267331 -0.534661 ZM7.05 481.17 A2.27677 2.27677
							 0 0 1 4.07 479.96 C4.04 479.89 4.01 479.82 3.99 479.75 A2.33914 2.33914 0 0 1 5.36 476.78 A2.37033 2.37033
							 0 0 1 8.48 478.06 a0.329708 0.329708 0 0 1 8.88178E-15 0.0579216 A2.45053 2.45053 0 0 1 7.05 481.17
							 Z" class="st32"/>
			</g>
			<g id="shape1273-167" v:mID="1273" v:groupContext="shape" transform="translate(8.96449,-0.429513)">
				<title>path8251</title>
				<path d="M4.69 485.16 A3.30599 3.30599 -180 0 0 5.34 485.16 a0.329708 0.329708 -180 0 0 0.262875 -0.338619 L5.64
							 484.03 a0.445551 0.445551 0 0 1 0.320797 -0.485651 C6.06 483.45 6.64 483.23 6.85 483.39 L7.59 483.83
							 a0.378718 0.378718 -180 0 0 0.351985 -0.0356441 L8.41 483.28 a0.343074 0.343074 -180 0 0 -0.0846547
							 -0.400996 L7.76 482.26 a0.405451 0.405451 0 0 1 -0.0801992 -0.499017 C7.68 481.76 7.91 480.97 8.24 480.92
							 L8.99 480.8 a0.392085 0.392085 -180 0 0 0.262875 -0.338619 L9.18 479.76 a0.245053 0.245053 -180 0 0
							 -0.276242 -0.213865 L8.11 479.51 a0.47674 0.47674 0 0 1 -0.485651 -0.320797 C7.53 479.09 7.49 478.94
							 7.39 478.84 a0.797536 0.797536 0 0 1 0.0267331 -0.597038 L7.9 477.61 a0.360896 0.360896 -180 0 0 -0.0311886
							 -0.445551 L7.33 476.8 a0.302975 0.302975 -180 0 0 -0.39654 5.68434E-14 L6.36 477.42 a0.507928 0.507928
							 0 0 1 -0.552483 0.124754 A1.54161 1.54161 -180 0 0 5.41 477.43 C5.41 477.43 5.02 477.16 4.97 476.98
							 L4.85 476.11 a0.30743 0.30743 -180 0 0 -0.289608 -0.209409 L3.86 475.97 a0.245053 0.245053 -180 0 0
							 -0.213865 0.276242 L3.56 477.09 C3.56 477.59 3.04 477.67 2.93 477.77 a0.521295 0.521295 0 0 1 -0.597038
							 -0.0267331 L1.66 477.23 a0.387629 0.387629 -180 0 0 -0.400996 0.0846547 L0.79 477.85 a0.445551 0.445551
							 -180 0 0 0.0846547 0.400996 L1.46 478.86 C2.04 479.23 1.36 480.1 1.02 480.13 L0.21 480.3 a0.311886 0.311886
							 -180 0 0 -0.213865 0.289608 L0.07 481.29 a0.316341 0.316341 -180 0 0 0.236142 0.25842 L1.15 481.55 C1.45
							 481.55 1.55 481.66 1.6 481.81 A4.45551 4.45551 0 0 1 1.83 482.26 a0.445551 0.445551 0 0 1 0.0267331
							 0.548028 L1.33 483.48 a0.387629 0.387629 -180 0 0 0.0846547 0.400996 L1.9 484.3 a0.302975 0.302975 -180
							 0 0 0.39654 0 L2.87 483.68 a0.507928 0.507928 0 0 1 0.552483 -0.124754 L3.87 483.73 C4.07 483.73 4.16
							 483.84 4.25 484.14 L4.42 484.94 C4.42 484.94 4.4 485.14 4.69 485.16 ZM6.36 480.39 A1.75102 1.75102 0
							 0 1 4.79 482.21 A1.62626 1.62626 0 0 1 2.98 480.8 C2.98 480.75 2.98 480.7 2.98 480.65 A1.67082 1.67082
							 0 0 1 4.5 478.86 A1.69309 1.69309 0 0 1 6.37 480.35 L6.37 480.38 L6.36 480.39 Z" class="st33"/>
				<path d="M4.69 485.16 A3.30599 3.30599 -180 0 0 5.34 485.16 a0.329708 0.329708 -180 0 0 0.262875 -0.338619 L5.64
							 484.03 a0.445551 0.445551 0 0 1 0.320797 -0.485651 C6.06 483.45 6.64 483.23 6.85 483.39 L7.59 483.83
							 a0.378718 0.378718 -180 0 0 0.351985 -0.0356441 L8.41 483.28 a0.343074 0.343074 -180 0 0 -0.0846547
							 -0.400996 L7.76 482.26 a0.405451 0.405451 0 0 1 -0.0801992 -0.499017 C7.68 481.76 7.91 480.97 8.24 480.92
							 L8.99 480.8 a0.392085 0.392085 -180 0 0 0.262875 -0.338619 L9.18 479.76 a0.245053 0.245053 -180 0 0
							 -0.276242 -0.213865 L8.11 479.51 a0.47674 0.47674 0 0 1 -0.485651 -0.320797 C7.53 479.09 7.49 478.94
							 7.39 478.84 a0.797536 0.797536 0 0 1 0.0267331 -0.597038 L7.9 477.61 a0.360896 0.360896 -180 0 0 -0.0311886
							 -0.445551 L7.33 476.8 a0.302975 0.302975 -180 0 0 -0.39654 5.68434E-14 L6.36 477.42 a0.507928 0.507928
							 0 0 1 -0.552483 0.124754 A1.54161 1.54161 -180 0 0 5.41 477.43 C5.41 477.43 5.02 477.16 4.97 476.98
							 L4.85 476.11 a0.30743 0.30743 -180 0 0 -0.289608 -0.209409 L3.86 475.97 a0.245053 0.245053 -180 0 0
							 -0.213865 0.276242 L3.56 477.09 C3.56 477.59 3.04 477.67 2.93 477.77 a0.521295 0.521295 0 0 1 -0.597038
							 -0.0267331 L1.66 477.23 a0.387629 0.387629 -180 0 0 -0.400996 0.0846547 L0.79 477.85 a0.445551 0.445551
							 -180 0 0 0.0846547 0.400996 L1.46 478.86 C2.04 479.23 1.36 480.1 1.02 480.13 L0.21 480.3 a0.311886 0.311886
							 -180 0 0 -0.213865 0.289608 L0.07 481.29 a0.316341 0.316341 -180 0 0 0.236142 0.25842 L1.15 481.55 C1.45
							 481.55 1.55 481.66 1.6 481.81 A4.45551 4.45551 0 0 1 1.83 482.26 a0.445551 0.445551 0 0 1 0.0267331
							 0.548028 L1.33 483.48 a0.387629 0.387629 -180 0 0 0.0846547 0.400996 L1.9 484.3 a0.302975 0.302975 -180
							 0 0 0.39654 0 L2.87 483.68 a0.507928 0.507928 0 0 1 0.552483 -0.124754 L3.87 483.73 C4.07 483.73 4.16
							 483.84 4.25 484.14 L4.42 484.94 C4.42 484.94 4.4 485.14 4.69 485.16M6.36 480.39 A1.75102 1.75102 0 0
							 1 4.79 482.21 A1.62626 1.62626 0 0 1 2.98 480.8 C2.98 480.75 2.98 480.7 2.98 480.65 A1.67082 1.67082
							 0 0 1 4.5 478.86 A1.69309 1.69309 0 0 1 6.37 480.35 L6.37 480.38" class="st25"/>
			</g>
			<g id="shape1274-170" v:mID="1274" v:groupContext="shape" transform="translate(20.4642,0)">
				<title>path8253</title>
				<path d="M0.03 484.29 L0.26 484.29 A2.67331 2.67331 -180 0 0 2.09 483.49 C2.53 483.05 2.7 482.27 2.7 480.89 L2.7
							 476.61 A5.20404 5.20404 0 0 1 3.64 473.69 A2.62875 2.62875 0 0 1 5.06 472.57 C3.49 472.04 2.7 470.71
							 2.7 468.64 L2.7 464.27 C2.7 462.88 2.51 462.09 2.08 461.64 A2.78024 2.78024 -180 0 0 0.22 460.84 L0
							 460.84 L0.07 459.94 L0.29 459.94 A3.68025 3.68025 0 0 1 2.7 461.02 C3.31 461.65 3.6 462.62 3.6 464.27
							 L3.6 468.62 C3.6 470.5 4.35 471.55 5.91 471.85 L6.27 471.91 L6.27 473.2 L5.92 473.26 A2.0629 2.0629
							 -180 0 0 4.42 474.15 A4.37531 4.37531 -180 0 0 3.6 476.59 L3.6 480.87 C3.6 482.51 3.34 483.47 2.7 484.1
							 A3.50203 3.50203 0 0 1 0.37 485.18 L0.16 485.18 L0.03 484.29 Z" class="st34"/>
			</g>
			<g id="shape1275-172" v:mID="1275" v:groupContext="shape">
				<title>path8255</title>
				<path d="M6.24 484.29 L6.01 484.29 A2.67331 2.67331 0 0 1 4.18 483.49 C3.74 483.05 3.57 482.27 3.57 480.89 L3.57
							 476.61 A5.20404 5.20404 -180 0 0 2.63 473.69 A2.62875 2.62875 -180 0 0 1.21 472.57 C2.78 472.04 3.57
							 470.71 3.57 468.64 L3.57 464.27 C3.57 462.88 3.76 462.09 4.19 461.64 A2.78024 2.78024 0 0 1 6.05 460.84
							 L6.27 460.84 L6.2 459.94 L5.97 459.94 A3.68025 3.68025 -180 0 0 3.56 461.02 C2.95 461.65 2.67 462.62
							 2.67 464.27 L2.67 468.62 C2.67 470.48 1.92 471.56 0.36 471.85 L0 471.92 L0 473.2 L0.35 473.26 A2.0629
							 2.0629 0 0 1 1.85 474.15 A4.37531 4.37531 0 0 1 2.67 476.59 L2.67 480.87 C2.67 482.51 2.93 483.47 3.56
							 484.1 A3.50203 3.50203 -180 0 0 5.9 485.18 L6.11 485.18 L6.24 484.29 Z" class="st34"/>
			</g>
		</g>
		<g id="shape1291-174" v:mID="1291" v:groupContext="shape" transform="translate(223.99,-420.82)">
			<title>Sheet.1291</title>
			<desc>General mainframe</desc>
			<v:userDefs>
				<v:ud v:nameU="visNavOrder" v:val="VT0(79000):26"/>
			</v:userDefs>
			<v:textBlock v:margins="rect(4,4,4,4)" v:verticalAlign="0"/>
			<v:textRect cx="233.647" cy="463.125" width="467.3" height="44.1107"/>
			<rect x="0" y="441.07" width="467.293" height="44.1107" class="st3"/>
			<text x="4" y="466.67" class="st35" v:langID="1033"><v:paragraph/><v:tabList/>General mainframe  </text>		</g>
		<g id="shape1293-177" v:mID="1293" v:groupContext="shape" transform="translate(547.284,-337.125)">
			<title>Sheet.1293</title>
			<desc>Batch runs on app clones long queries and events</desc>
			<v:userDefs>
				<v:ud v:nameU="visNavOrder" v:val="VT0(81000):26"/>
			</v:userDefs>
			<v:textBlock v:margins="rect(4,4,4,4)"/>
			<v:textRect cx="96.75" cy="458.18" width="193.5" height="54"/>
			<rect x="0" y="431.18" width="193.5" height="54" class="st3"/>
			<text x="4" y="454.88" class="st22" v:langID="1033"><v:paragraph/><v:tabList/>Batch runs on app clones <v:newlineChar/><tspan
						x="4" dy="1.2em" class="st6">long queries and events</tspan></text>		</g>
		<g id="group1294-181" transform="translate(464.034,-342.634)" v:mID="1294" v:groupContext="group">
			<v:userDefs>
				<v:ud v:nameU="visNavOrder" v:val="VT0(82000):26"/>
			</v:userDefs>
			<title>DevOps.1294</title>
			<g id="shape1295-182" v:mID="1295" v:groupContext="shape" transform="translate(33.3929,-22.2396)">
				<title>path8981</title>
				<path d="M10.22 472.1 a0.514339 0.514339 0 0 1 -0.603789 0.122994 C9.54 472.29 9.4 471.99 9.34 471.76 L9.08 470.86
							 C8.95 470.56 8.65 470.54 8.56 470.76 L7.87 471.42 C7.7 471.71 8.02 471.42 7.87 471.42 L6.89 471.44 L6.26
							 470.75 C6.04 470.51 5.81 470.58 5.73 470.8 L5.31 471.75 A2.18035 2.18035 0 0 1 4.99 472.31 A4.34952
							 4.34952 0 0 1 4.48 472.06 L3.59 471.72 C3.3 471.56 3.15 471.72 3.14 472 L3.16 472.97 a0.715602 0.715602
							 0 0 1 -0.17331 0.587017 A1.82814 1.82814 0 0 1 2.47 473.61 L1.57 473.57 C1.27 473.57 1.12 473.7 1.25
							 474 L1.66 474.92 C1.73 475.15 1.78 475.52 1.78 475.52 A1.77223 1.77223 0 0 1 1.22 475.72 L0.31 476.13
							 C0.08 476.2 0 476.41 0.21 476.65 L0.93 477.28 A3.73455 3.73455 0 0 1 1.27 477.84 A3.71778 3.71778 0
							 0 1 0.88 478.34 L0.18 478.98 C0.02 479.12 0.09 479.35 0.31 479.43 L1.19 479.77 C1.4 479.86 1.69 480.02
							 1.69 480.17 A1.9735 1.9735 0 0 1 1.59 480.69 L1.1 481.56 C1.02 481.78 1.16 481.94 1.38 482.02 L2.35
							 481.99 A1.46475 1.46475 0 0 1 3.02 482.1 a0.559064 0.559064 0 0 1 0.0503158 0.52552 L3.02 483.67 C3.02
							 483.97 3.23 484.05 3.46 483.99 L4.3 483.5 a0.754737 0.754737 0 0 1 0.676468 -0.0447251 C5.05 483.39
							 5.12 483.62 5.26 483.92 L5.51 484.82 C5.65 485.12 5.88 485.06 6.03 484.92 L6.75 484.27 a0.799462 0.799462
							 0 0 1 0.61497 -0.419298 L7.72 484.25 L8.36 484.95 C8.57 485.18 8.8 485.11 8.88 484.9 L9.23 483.87 A1.56538
							 1.56538 0 0 1 9.63 483.36 A4.39983 4.39983 0 0 1 10.14 483.61 L11.01 483.95 C11.3 484.11 11.46 483.95
							 11.47 483.67 L11.37 482.77 A1.58774 1.58774 0 0 1 11.55 482.03 L12.15 482.03 L13.04 482.07 C13.34 482.07
							 13.42 481.87 13.36 481.64 L12.95 480.73 C12.89 480.5 12.83 480.13 12.83 480.13 A1.11813 1.11813 0 0
							 1 13.29 479.85 L14.27 479.52 C14.5 479.45 14.59 479.23 14.37 479 L13.65 478.37 A2.29775 2.29775 0 0
							 1 13.31 477.81 C13.23 477.73 13.47 477.52 13.62 477.37 L14.43 476.69 C14.59 476.55 14.52 476.32 14.3
							 476.24 L13.42 475.91 C13.21 475.82 12.86 475.58 12.92 475.51 C12.85 475.43 12.92 475.21 13.02 474.99
							 L13.51 474.12 C13.59 473.9 13.45 473.74 13.15 473.73 L12.25 473.69 A4.1203 4.1203 0 0 1 11.59 473.58
							 a0.96159 0.96159 0 0 1 -0.122994 -0.603789 L11.58 472.01 C11.58 471.71 11.38 471.63 11.15 471.69 L10.22
							 472.1 ZM8.35 477.09 A1.28585 1.28585 0 0 1 6.19 478.49 A1.17403 1.17403 0 0 1 6.65 476.81 A1.26908 1.26908
							 0 0 1 8.32 477.11 L8.35 477.09 Z" class="st24"/>
				<path d="M10.22 472.1 a0.514339 0.514339 0 0 1 -0.603789 0.122994 C9.54 472.29 9.4 471.99 9.34 471.76 L9.08 470.86
							 C8.95 470.56 8.65 470.54 8.56 470.76 L7.87 471.42 C7.7 471.71 8.02 471.42 7.87 471.42 L6.89 471.44 L6.26
							 470.75 C6.04 470.51 5.81 470.58 5.73 470.8 L5.31 471.75 A2.18035 2.18035 0 0 1 4.99 472.31 A4.34952
							 4.34952 0 0 1 4.48 472.06 L3.59 471.72 C3.3 471.56 3.15 471.72 3.14 472 L3.16 472.97 a0.715602 0.715602
							 0 0 1 -0.17331 0.587017 A1.82814 1.82814 0 0 1 2.47 473.61 L1.57 473.57 C1.27 473.57 1.12 473.7 1.25
							 474 L1.66 474.92 C1.73 475.15 1.78 475.52 1.78 475.52 A1.77223 1.77223 0 0 1 1.22 475.72 L0.31 476.13
							 C0.08 476.2 0 476.41 0.21 476.65 L0.93 477.28 A3.73455 3.73455 0 0 1 1.27 477.84 A3.71778 3.71778 0
							 0 1 0.88 478.34 L0.18 478.98 C0.02 479.12 0.09 479.35 0.31 479.43 L1.19 479.77 C1.4 479.86 1.69 480.02
							 1.69 480.17 A1.9735 1.9735 0 0 1 1.59 480.69 L1.1 481.56 C1.02 481.78 1.16 481.94 1.38 482.02 L2.35
							 481.99 A1.46475 1.46475 0 0 1 3.02 482.1 a0.559064 0.559064 0 0 1 0.0503158 0.52552 L3.02 483.67 C3.02
							 483.97 3.23 484.05 3.46 483.99 L4.3 483.5 a0.754737 0.754737 0 0 1 0.676468 -0.0447251 C5.05 483.39
							 5.12 483.62 5.26 483.92 L5.51 484.82 C5.65 485.12 5.88 485.06 6.03 484.92 L6.75 484.27 a0.799462 0.799462
							 0 0 1 0.61497 -0.419298 L7.72 484.25 L8.36 484.95 C8.57 485.18 8.8 485.11 8.88 484.9 L9.23 483.87 A1.56538
							 1.56538 0 0 1 9.63 483.36 A4.39983 4.39983 0 0 1 10.14 483.61 L11.01 483.95 C11.3 484.11 11.46 483.95
							 11.47 483.67 L11.37 482.77 A1.58774 1.58774 0 0 1 11.55 482.03 L12.15 482.03 L13.04 482.07 C13.34 482.07
							 13.42 481.87 13.36 481.64 L12.95 480.73 C12.89 480.5 12.83 480.13 12.83 480.13 A1.11813 1.11813 0 0
							 1 13.29 479.85 L14.27 479.52 C14.5 479.45 14.59 479.23 14.37 479 L13.65 478.37 A2.29775 2.29775 0 0
							 1 13.31 477.81 C13.23 477.73 13.47 477.52 13.62 477.37 L14.43 476.69 C14.59 476.55 14.52 476.32 14.3
							 476.24 L13.42 475.91 C13.21 475.82 12.86 475.58 12.92 475.51 C12.85 475.43 12.92 475.21 13.02 474.99
							 L13.51 474.12 C13.59 473.9 13.45 473.74 13.15 473.73 L12.25 473.69 A4.1203 4.1203 0 0 1 11.59 473.58
							 a0.96159 0.96159 0 0 1 -0.122994 -0.603789 L11.58 472.01 C11.58 471.71 11.38 471.63 11.15 471.69 L10.22
							 472.1M8.35 477.09 A1.28585 1.28585 0 0 1 6.19 478.49 A1.17403 1.17403 0 0 1 6.65 476.81 A1.26908 1.26908
							 0 0 1 8.32 477.11" class="st25"/>
			</g>
			<g id="shape1296-185" v:mID="1296" v:groupContext="shape">
				<title>path8983</title>
				<path d="M30.41 457.97 a0.693239 0.693239 -180 0 0 0.0391345 -0.911274 L29.23 455.72 a0.816234 0.816234 -180 0 0
							 -0.911274 -0.0391345 L26.24 457.05 C25.8 456.76 25.26 456.37 24.82 456.08 L25.46 453.53 a0.620561 0.620561
							 -180 0 0 -0.335438 -0.749146 L23.6 452.07 a0.559064 0.559064 -180 0 0 -0.833005 0.234807 L21.29 454.54
							 A5.32788 5.32788 -180 0 0 19.67 454.1 L19.42 451.52 a0.626152 0.626152 -180 0 0 -0.60938 -0.670877 L17.07
							 450.85 C16.81 450.75 16.51 451.01 16.41 451.28 L15.86 453.91 A5.37261 5.37261 -180 0 0 14.18 454.2 L12.91
							 451.86 a0.922456 0.922456 -180 0 0 -0.810643 -0.313076 L10.43 452.2 a0.620561 0.620561 -180 0 0 -0.396936
							 0.715602 L10.56 455.41 C10.09 455.66 9.61 456.1 9.14 456.36 L7.11 454.71 a0.592608 0.592608 -180 0 0
							 -0.827415 0.0559064 L5.04 455.88 a0.592608 0.592608 -180 0 0 -0.128585 0.816234 L6.37 458.87 A7.45791
							 7.45791 -180 0 0 5.29 460.37 L2.77 459.53 a0.799462 0.799462 -180 0 0 -0.844187 0.419298 L1.22 461.48
							 a0.78828 0.78828 -180 0 0 0.324257 0.928046 L3.66 463.81 C3.45 464.37 3.42 464.9 3.21 465.43 L0.64 465.69
							 a0.799462 0.799462 -180 0 0 -0.559064 0.704421 L0 468.03 a0.793871 0.793871 -180 0 0 0.514339 0.754737
							 L3.15 469.18 A10.8011 10.8011 -180 0 0 3.43 471.02 L1.08 472.29 a0.559064 0.559064 -180 0 0 -0.313076
							 0.810643 L1.33 474.69 a0.855368 0.855368 -180 0 0 0.799462 0.491976 L4.61 474.59 L5.48 475.97 L3.8 478
							 a0.855368 0.855368 -180 0 0 0.0559064 0.827415 L5.08 480.17 a0.693239 0.693239 -180 0 0 0.816234 0.128585
							 L8.13 478.84 C8.57 479.14 9.1 479.53 9.55 479.82 L8.88 482.35 a0.620561 0.620561 -180 0 0 0.329848 0.749146
							 L10.82 483.91 a0.78269 0.78269 -180 0 0 0.833005 -0.240398 L13.04 481.53 C13.6 481.53 14.13 481.76 14.68
							 481.79 L14.84 484.45 a0.793871 0.793871 -180 0 0 0.704421 0.559064 L17.28 485.18 A1.11813 1.11813 -180
							 0 0 17.95 484.57 L18.43 482.03 C19.07 481.97 19.63 481.81 20.27 481.75 L21.45 483.98 a0.626152 0.626152
							 -180 0 0 0.810643 0.313076 L23.84 483.74 a0.743555 0.743555 -180 0 0 0.497567 -0.799462 L23.78 480.48
							 A6.57459 6.57459 -180 0 0 25.2 479.54 L27.23 481.19 a0.60938 0.60938 -180 0 0 0.911274 0.0391345 L29.38
							 480.11 a0.60938 0.60938 -180 0 0 0.0447251 -0.911274 L27.96 477.02 A4.56755 4.56755 -180 0 0 29.04 475.51
							 L31.57 476.36 a0.620561 0.620561 -180 0 0 0.749146 -0.329848 L33.12 474.42 a0.922456 0.922456 -180 0
							 0 -0.234807 -0.833005 L30.65 472.11 A4.66819 4.66819 -180 0 0 31 470.57 L33.67 470.23 C33.95 470.15
							 34.23 469.89 34.23 469.71 L34.32 467.88 a0.626152 0.626152 -180 0 0 -0.60938 -0.670877 L31.16 466.73
							 A9.96252 9.96252 -180 0 0 30.97 464.98 L33.13 463.7 a0.665286 0.665286 -180 0 0 0.408117 -0.894503 L32.98
							 461.22 a0.559064 0.559064 -180 0 0 -0.810643 -0.313076 L29.65 461.34 L28.83 459.94 L30.38 457.99 L30.41
							 457.97 ZM19.11 465.93 A2.65555 2.65555 0 1 1 15.2 469.51 A2.65555 2.65555 0 1 1 19.11 465.93 Z"
						class="st26"/>
				<path d="M30.41 457.97 a0.693239 0.693239 -180 0 0 0.0391345 -0.911274 L29.23 455.72 a0.816234 0.816234 -180 0 0
							 -0.911274 -0.0391345 L26.24 457.05 C25.8 456.76 25.26 456.37 24.82 456.08 L25.46 453.53 a0.620561 0.620561
							 -180 0 0 -0.335438 -0.749146 L23.6 452.07 a0.559064 0.559064 -180 0 0 -0.833005 0.234807 L21.29 454.54
							 A5.32788 5.32788 -180 0 0 19.67 454.1 L19.42 451.52 a0.626152 0.626152 -180 0 0 -0.60938 -0.670877 L17.07
							 450.85 C16.81 450.75 16.51 451.01 16.41 451.28 L15.86 453.91 A5.37261 5.37261 -180 0 0 14.18 454.2 L12.91
							 451.86 a0.922456 0.922456 -180 0 0 -0.810643 -0.313076 L10.43 452.2 a0.620561 0.620561 -180 0 0 -0.396936
							 0.715602 L10.56 455.41 C10.09 455.66 9.61 456.1 9.14 456.36 L7.11 454.71 a0.592608 0.592608 -180 0 0
							 -0.827415 0.0559064 L5.04 455.88 a0.592608 0.592608 -180 0 0 -0.128585 0.816234 L6.37 458.87 A7.45791
							 7.45791 -180 0 0 5.29 460.37 L2.77 459.53 a0.799462 0.799462 -180 0 0 -0.844187 0.419298 L1.22 461.48
							 a0.78828 0.78828 -180 0 0 0.324257 0.928046 L3.66 463.81 C3.45 464.37 3.42 464.9 3.21 465.43 L0.64 465.69
							 a0.799462 0.799462 -180 0 0 -0.559064 0.704421 L0 468.03 a0.793871 0.793871 -180 0 0 0.514339 0.754737
							 L3.15 469.18 A10.8011 10.8011 -180 0 0 3.43 471.02 L1.08 472.29 a0.559064 0.559064 -180 0 0 -0.313076
							 0.810643 L1.33 474.69 a0.855368 0.855368 -180 0 0 0.799462 0.491976 L4.61 474.59 L5.48 475.97 L3.8 478
							 a0.855368 0.855368 -180 0 0 0.0559064 0.827415 L5.08 480.17 a0.693239 0.693239 -180 0 0 0.816234 0.128585
							 L8.13 478.84 C8.57 479.14 9.1 479.53 9.55 479.82 L8.88 482.35 a0.620561 0.620561 -180 0 0 0.329848 0.749146
							 L10.82 483.91 a0.78269 0.78269 -180 0 0 0.833005 -0.240398 L13.04 481.53 C13.6 481.53 14.13 481.76 14.68
							 481.79 L14.84 484.45 a0.793871 0.793871 -180 0 0 0.704421 0.559064 L17.28 485.18 A1.11813 1.11813 -180
							 0 0 17.95 484.57 L18.43 482.03 C19.07 481.97 19.63 481.81 20.27 481.75 L21.45 483.98 a0.626152 0.626152
							 -180 0 0 0.810643 0.313076 L23.84 483.74 a0.743555 0.743555 -180 0 0 0.497567 -0.799462 L23.78 480.48
							 A6.57459 6.57459 -180 0 0 25.2 479.54 L27.23 481.19 a0.60938 0.60938 -180 0 0 0.911274 0.0391345 L29.38
							 480.11 a0.60938 0.60938 -180 0 0 0.0447251 -0.911274 L27.96 477.02 A4.56755 4.56755 -180 0 0 29.04 475.51
							 L31.57 476.36 a0.620561 0.620561 -180 0 0 0.749146 -0.329848 L33.12 474.42 a0.922456 0.922456 -180 0
							 0 -0.234807 -0.833005 L30.65 472.11 A4.66819 4.66819 -180 0 0 31 470.57 L33.67 470.23 C33.95 470.15
							 34.23 469.89 34.23 469.71 L34.32 467.88 a0.626152 0.626152 -180 0 0 -0.60938 -0.670877 L31.16 466.73
							 A9.96252 9.96252 -180 0 0 30.97 464.98 L33.13 463.7 a0.665286 0.665286 -180 0 0 0.408117 -0.894503 L32.98
							 461.22 a0.559064 0.559064 -180 0 0 -0.810643 -0.313076 L29.65 461.34 L28.83 459.94 L30.38 457.99M19.11
							 465.93 A2.65555 2.65555 0 1 1 15.2 469.51 A2.65555 2.65555 0 1 1 19.11 465.93" class="st25"/>
			</g>
			<g id="shape1297-188" v:mID="1297" v:groupContext="shape" transform="translate(34.4328,-1.90082)">
				<title>path8985</title>
				<path d="M19.13 474.19 L16.89 473.94 a0.419298 0.419298 0 0 1 -0.357801 -0.324257 A6.93799 6.93799 -180 0 0 15.92
							 471.98 a0.508748 0.508748 0 0 1 0.0447251 -0.51993 L17.43 469.64 a0.447251 0.447251 -180 0 0 -0.0335438
							 -0.592608 L16.18 467.82 a0.447251 0.447251 -180 0 0 -0.592608 -0.0335438 L13.83 469.2 a0.452842 0.452842
							 0 0 1 -0.514339 0.0335438 A6.96035 6.96035 -180 0 0 11.8 468.57 a0.458433 0.458433 0 0 1 -0.329848 -0.385754
							 L11.22 466.02 a0.452842 0.452842 -180 0 0 -0.452842 -0.402526 L9.03 465.62 a0.469614 0.469614 -180 0
							 0 -0.452842 0.408117 L8.34 468.16 a0.419298 0.419298 0 0 1 -0.313076 0.357801 A6.93799 6.93799 -180
							 0 0 6.28 469.22 a0.447251 0.447251 0 0 1 -0.508748 -0.0335438 L4.17 467.9 C3.85 467.64 3.61 467.66 3.44
							 467.82 L2.21 469.05 a0.447251 0.447251 -180 0 0 -0.0335438 0.592608 L3.6 471.41 a0.441661 0.441661 0
							 0 1 0.0391345 0.491976 A6.95476 6.95476 -180 0 0 2.98 473.58 a0.464023 0.464023 0 0 1 -0.396936 0.357801
							 L0.4 474.18 a0.452842 0.452842 -180 0 0 -0.402526 0.452842 L0 476.38 a0.452842 0.452842 -180 0 0 0.402526
							 0.452842 L2.76 477.09 a0.43607 0.43607 0 0 1 0.363392 0.301895 A6.94358 6.94358 -180 0 0 3.68 478.66
							 a0.491976 0.491976 0 0 1 -0.0391345 0.514339 L2.19 480.98 a0.447251 0.447251 -180 0 0 0.0335438 0.592608
							 L3.45 482.8 a0.447251 0.447251 -180 0 0 0.592608 0.0335438 L5.83 481.4 a0.452842 0.452842 0 0 1 0.508748
							 -0.0335438 A6.96035 6.96035 -180 0 0 7.8 481.99 a0.452842 0.452842 0 0 1 0.329848 0.380164 L8.39 484.78
							 a0.447251 0.447251 -180 0 0 0.441661 0.396936 L10.57 485.18 a0.447251 0.447251 -180 0 0 0.441661 -0.396936
							 L11.27 482.39 a0.43607 0.43607 0 0 1 0.324257 -0.374573 A6.95476 6.95476 -180 0 0 13.27 481.32 a0.452842
							 0.452842 0 0 1 0.508748 0.0335438 L15.59 482.82 a0.447251 0.447251 -180 0 0 0.592608 -0.0335438 L17.41
							 481.55 a0.447251 0.447251 -180 0 0 0.0335438 -0.592608 L15.96 479.11 a0.452842 0.452842 0 0 1 -0.0391345
							 -0.503158 A6.95476 6.95476 -180 0 0 16.44 477.4 a0.452842 0.452842 0 0 1 0.374573 -0.318667 L19.16 476.82
							 a0.469614 0.469614 -180 0 0 0.402526 -0.452842 L19.57 474.64 a0.469614 0.469614 -180 0 0 -0.43607 -0.452842
							 ZM10.04 478.7 A3.54447 3.54447 0 1 1 13.58 475.15 A3.54447 3.54447 0 0 1 10.04 478.7 Z" class="st27"/>
			</g>
		</g>
		<g id="group1298-190" transform="translate(508.711,-304.27)" v:mID="1298" v:groupContext="group">
			<v:userDefs>
				<v:ud v:nameU="visNavOrder" v:val="VT0(84000):26"/>
			</v:userDefs>
			<title>App</title>
			<g id="shape1299-191" v:mID="1299" v:groupContext="shape" transform="translate(10.3723,0)">
				<title>Sheet.1299</title>
				<path d="M0 461.33 L0 485.18 L15.67 485.18 L15.67 461.33 L0 461.33 L0 461.33 Z" class="st36"/>
			</g>
			<g id="shape1300-193" v:mID="1300" v:groupContext="shape" transform="translate(3.31032,0)">
				<title>Sheet.1300</title>
				<path d="M0 461.33 L0 485.18 L7.5 485.18 L7.5 461.33 L0 461.33 L0 461.33 Z" class="st37"/>
			</g>
			<g id="shape1301-195" v:mID="1301" v:groupContext="shape" transform="translate(1.9984E-15,-17.0077)">
				<title>Sheet.1301</title>
				<path d="M8.26 485.18 L0 485.01 L2.55 478.33 L10.81 478.33 L8.26 485.18 L8.26 485.18 Z" class="st36"/>
			</g>
			<g id="shape1302-197" v:mID="1302" v:groupContext="shape" transform="translate(11.0344,-17.2286)">
				<title>Sheet.1302</title>
				<path d="M18.54 485.13 L2.55 485.18 L0 478.55 L15.06 478.55 L18.54 485.13 L18.54 485.13 Z" class="st38"/>
			</g>
		</g>
		<g id="group1307-199" transform="translate(764.684,-263.781)" v:mID="1307" v:groupContext="group">
			<v:userDefs>
				<v:ud v:nameU="visNavOrder" v:val="VT0(89000):26"/>
			</v:userDefs>
			<title>Generic Database (Green).1307</title>
			<g id="shape1308-200" v:mID="1308" v:groupContext="shape">
				<title>path3116</title>
				<path d="M24.01 454.85 L16.19 454.91 L0 455.05 L0 480.24 C0 482.82 5.66 485.04 13.03 485.18 L13.31 485.18 C14.31
							 485.18 15.27 485.12 16.19 485.03 A22.598 22.598 -180 0 0 24.01 483.12 C25.66 482.3 26.62 481.3 26.62
							 480.23 L26.62 454.82 L24.01 454.85 Z" class="st15"/>
			</g>
			<g id="shape1309-202" v:mID="1309" v:groupContext="shape" transform="translate(15.9716,-0.141592)">
				<title>path3118</title>
				<path d="M7.82 454.99 L7.82 483.27 A22.598 22.598 0 0 1 -0 485.18 L0 455.06 L7.82 454.99 Z" class="st16"/>
			</g>
			<g id="shape1310-204" v:mID="1310" v:groupContext="shape">
				<title>path3120</title>
				<path d="M0 455.05 L0 480.24 C0 482.82 5.64 485.04 13.03 485.18 L13.31 485.18 C20.84 485.1 26.62 482.85 26.62 480.23
							 L26.62 454.82 L0 455.05 Z" class="st17"/>
				<path d="M0 455.05 L0 480.24 C0 482.82 5.64 485.04 13.03 485.18 L13.31 485.18 C20.84 485.1 26.62 482.85 26.62 480.23
							 L26.62 454.82" class="st18"/>
			</g>
			<g id="shape1311-207" v:mID="1311" v:groupContext="shape" transform="translate(0.033982,-25.2543)">
				<title>path3122</title>
				<path d="M26.62 480.37 C26.62 483.03 20.66 485.18 13.31 485.18 C5.96 485.18 0 483.03 0 480.37 C0 477.72 6.14 475.56
							 13.49 475.56 C20.83 475.56 26.62 477.72 26.62 480.37 Z" class="st19"/>
			</g>
		</g>
		<g id="shape1312-209" v:mID="1312" v:groupContext="shape" transform="translate(805.217,-244.875)">
			<title>Sheet.1312</title>
			<desc>Data files (index, flat)</desc>
			<v:userDefs>
				<v:ud v:nameU="visNavOrder" v:val="VT0(90000):26"/>
			</v:userDefs>
			<v:textBlock v:margins="rect(4,4,4,4)"/>
			<v:textRect cx="73.3997" cy="458.18" width="146.8" height="54"/>
			<rect x="0" y="431.18" width="146.799" height="54" class="st3"/>
			<text x="4" y="454.88" class="st22" v:langID="1033"><v:paragraph/><v:tabList/>Data files (index, flat)<v:newlineChar/></text>		</g>
		<g id="shape1318-212" v:mID="1318" v:groupContext="shape" transform="translate(236.784,-30.5539)">
			<title>Sheet.1318</title>
			<desc>Operating system on partition</desc>
			<v:userDefs>
				<v:ud v:nameU="visNavOrder" v:val="VT0(92000):26"/>
			</v:userDefs>
			<v:textBlock v:margins="rect(4,4,4,4)"/>
			<v:textRect cx="166.07" cy="463.125" width="332.15" height="44.1107"/>
			<path d="M0 485.18 L332.14 485.18 L332.14 441.07 L0 441.07 L0 485.18 Z" class="st2"/>
			<text x="80.99" y="466.73" class="st39" v:langID="1033"><v:paragraph v:horizAlign="1"/><v:tabList/>Operating system on partition</text>		</g>
		<g id="group1352-215" transform="translate(504.327,-350.522)" v:mID="1352" v:groupContext="group">
			<v:userDefs>
				<v:ud v:nameU="visNavOrder" v:val="VT0(99000):26"/>
			</v:userDefs>
			<title>Scheduler.1352</title>
			<g id="shape1353-216" v:mID="1353" v:groupContext="shape" transform="translate(2.61202,-2.47705)">
				<title>path4837</title>
				<path d="M26.62 471.8 A13.3761 13.3761 0 0 1 13.24 485.18 C13.07 485.18 12.91 485.18 12.75 485.18 A13.3761 13.3761
							 0 0 1 12.75 458.46 C12.91 458.46 13.07 458.46 13.24 458.46 A13.3761 13.3761 0 0 1 26.62 471.8 Z"
						class="st40"/>
			</g>
			<g id="group1354-218" v:mID="1354" v:groupContext="group">
				<title>g4849</title>
				<g id="shape1355-219" v:mID="1355" v:groupContext="shape">
					<title>rect4839</title>
					<rect x="0" y="453.474" width="31.7063" height="31.7063" class="st41"/>
				</g>
				<g id="shape1356-221" v:mID="1356" v:groupContext="shape" transform="translate(15.3577,-2.47705)">
					<title>path4841</title>
					<path d="M13.87 471.8 A13.3761 13.3761 0 0 1 0.5 485.18 C0.33 485.18 0.16 485.18 0 485.18 L0 458.44 C0.16 458.44
								 0.33 458.44 0.5 458.44 A13.3761 13.3761 0 0 1 13.87 471.8 Z" class="st42"/>
				</g>
				<g id="shape1357-223" v:mID="1357" v:groupContext="shape" transform="translate(14.8623,-8.88766)">
					<title>polygon4843</title>
					<path d="M0 469.55 L0 479.16 L6.01 485.18 L6.72 484.48 L0.99 478.75 L0.99 469.55 L0 469.55 Z" class="st34"/>
				</g>
				<g id="shape1358-225" v:mID="1358" v:groupContext="shape" transform="translate(1.98164,-7.56389)">
					<title>path4845</title>
					<path d="M13.87 463.02 A13.8715 13.8715 -180 0 0 0.99 471.76 L0.99 465.25 L0 465.25 L0 472.68 L7.93 472.68 L7.93
								 471.69 L1.98 471.69 A12.6875 12.6875 0 0 1 13.87 464.01 A12.8807 12.8807 0 1 1 1.62 480.85 L0.58
								 480.85 A13.8715 13.8715 -180 1 0 13.87 463.02 Z" class="st34"/>
				</g>
				<g id="shape1359-227" v:mID="1359" v:groupContext="shape">
					<title>rect4847</title>
					<rect x="0" y="453.474" width="31.7063" height="31.7063" class="st41"/>
				</g>
			</g>
		</g>
		<g id="group1361-229" transform="translate(754.396,-320.476)" v:mID="1361" v:groupContext="group">
			<v:userDefs>
				<v:ud v:nameU="visNavOrder" v:val="VT0(102000):26"/>
			</v:userDefs>
			<title>Generic Database (Green).1361</title>
			<g id="shape1362-230" v:mID="1362" v:groupContext="shape">
				<title>path3116</title>
				<path d="M24.01 454.85 L16.19 454.91 L0 455.05 L0 480.24 C0 482.82 5.66 485.04 13.03 485.18 L13.31 485.18 C14.31
							 485.18 15.27 485.12 16.19 485.03 A22.598 22.598 -180 0 0 24.01 483.12 C25.66 482.3 26.62 481.3 26.62
							 480.23 L26.62 454.82 L24.01 454.85 Z" class="st15"/>
			</g>
			<g id="shape1363-232" v:mID="1363" v:groupContext="shape" transform="translate(15.9716,-0.141592)">
				<title>path3118</title>
				<path d="M7.82 454.99 L7.82 483.27 A22.598 22.598 0 0 1 -0 485.18 L0 455.06 L7.82 454.99 Z" class="st16"/>
			</g>
			<g id="shape1364-234" v:mID="1364" v:groupContext="shape">
				<title>path3120</title>
				<path d="M0 455.05 L0 480.24 C0 482.82 5.64 485.04 13.03 485.18 L13.31 485.18 C20.84 485.1 26.62 482.85 26.62 480.23
							 L26.62 454.82 L0 455.05 Z" class="st17"/>
				<path d="M0 455.05 L0 480.24 C0 482.82 5.64 485.04 13.03 485.18 L13.31 485.18 C20.84 485.1 26.62 482.85 26.62 480.23
							 L26.62 454.82" class="st18"/>
			</g>
			<g id="shape1365-237" v:mID="1365" v:groupContext="shape" transform="translate(0.033982,-25.2543)">
				<title>path3122</title>
				<path d="M26.62 480.37 C26.62 483.03 20.66 485.18 13.31 485.18 C5.96 485.18 0 483.03 0 480.37 C0 477.72 6.14 475.56
							 13.49 475.56 C20.83 475.56 26.62 477.72 26.62 480.37 Z" class="st19"/>
			</g>
		</g>
		<g id="group1366-239" transform="translate(754.396,-256.347)" v:mID="1366" v:groupContext="group">
			<v:userDefs>
				<v:ud v:nameU="visNavOrder" v:val="VT0(103000):26"/>
			</v:userDefs>
			<title>Generic Database (Green).1366</title>
			<g id="shape1367-240" v:mID="1367" v:groupContext="shape">
				<title>path3116</title>
				<path d="M24.01 454.85 L16.19 454.91 L0 455.05 L0 480.24 C0 482.82 5.66 485.04 13.03 485.18 L13.31 485.18 C14.31
							 485.18 15.27 485.12 16.19 485.03 A22.598 22.598 -180 0 0 24.01 483.12 C25.66 482.3 26.62 481.3 26.62
							 480.23 L26.62 454.82 L24.01 454.85 Z" class="st15"/>
			</g>
			<g id="shape1368-242" v:mID="1368" v:groupContext="shape" transform="translate(15.9716,-0.141592)">
				<title>path3118</title>
				<path d="M7.82 454.99 L7.82 483.27 A22.598 22.598 0 0 1 -0 485.18 L0 455.06 L7.82 454.99 Z" class="st16"/>
			</g>
			<g id="shape1369-244" v:mID="1369" v:groupContext="shape">
				<title>path3120</title>
				<path d="M0 455.05 L0 480.24 C0 482.82 5.64 485.04 13.03 485.18 L13.31 485.18 C20.84 485.1 26.62 482.85 26.62 480.23
							 L26.62 454.82 L0 455.05 Z" class="st17"/>
				<path d="M0 455.05 L0 480.24 C0 482.82 5.64 485.04 13.03 485.18 L13.31 485.18 C20.84 485.1 26.62 482.85 26.62 480.23
							 L26.62 454.82" class="st18"/>
			</g>
			<g id="shape1370-247" v:mID="1370" v:groupContext="shape" transform="translate(0.033982,-25.2543)">
				<title>path3122</title>
				<path d="M26.62 480.37 C26.62 483.03 20.66 485.18 13.31 485.18 C5.96 485.18 0 483.03 0 480.37 C0 477.72 6.14 475.56
							 13.49 475.56 C20.83 475.56 26.62 477.72 26.62 480.37 Z" class="st19"/>
			</g>
		</g>
		<g id="group1371-249" transform="translate(754.017,-184.125)" v:mID="1371" v:groupContext="group">
			<v:userDefs>
				<v:ud v:nameU="visNavOrder" v:val="VT0(104000):26"/>
			</v:userDefs>
			<title>Database and Table.1371</title>
			<g id="shape1372-250" v:mID="1372" v:groupContext="shape">
				<title>path4273</title>
				<path d="M24 454.84 L16.19 454.91 L0 455.04 L0 480.24 C0 482.82 5.66 485.04 13.02 485.18 L13.31 485.18 C14.3 485.18
							 15.26 485.12 16.19 485.03 A22.5907 22.5907 -180 0 0 24 483.13 C25.65 482.29 26.61 481.29 26.61 480.24
							 L26.61 454.82 L24 454.84 Z" class="st15"/>
			</g>
			<g id="shape1373-252" v:mID="1373" v:groupContext="shape" transform="translate(15.9664,-0.158531)">
				<title>path4275</title>
				<path d="M7.81 455 L7.81 483.27 A22.5907 22.5907 0 0 1 0 485.18 L0 455.07 L7.81 455 Z" class="st16"/>
			</g>
			<g id="shape1374-254" v:mID="1374" v:groupContext="shape">
				<title>path4277</title>
				<path d="M0 455.04 L0 480.24 C0 482.82 5.63 485.04 13.02 485.18 L13.31 485.18 C20.83 485.08 26.61 482.84 26.61 480.24
							 L26.61 454.82 L0 455.04 Z" class="st17"/>
				<path d="M0 455.04 L0 480.24 C0 482.82 5.63 485.04 13.02 485.18 L13.31 485.18 C20.83 485.08 26.61 482.84 26.61 480.24
							 L26.61 454.82" class="st18"/>
			</g>
			<g id="shape1375-257" v:mID="1375" v:groupContext="shape" transform="translate(0.033971,-25.2631)">
				<title>path4279</title>
				<path d="M26.61 480.37 C26.61 483.03 20.65 485.18 13.31 485.18 C5.96 485.18 0 483.03 0 480.37 C0 477.72 6.13 475.57
							 13.48 475.57 C20.83 475.57 26.61 477.72 26.61 480.38 L26.61 480.37 Z" class="st20"/>
				<path d="M26.61 480.37 C26.61 483.03 20.65 485.18 13.31 485.18 C5.96 485.18 0 483.03 0 480.37 C0 477.72 6.13 475.57
							 13.48 475.57 C20.83 475.57 26.61 477.72 26.61 480.38" class="st18"/>
			</g>
			<g id="shape1376-260" v:mID="1376" v:groupContext="shape" transform="translate(10.7575,-7.20751)">
				<title>rect4283</title>
				<rect x="0" y="471.592" width="20.3826" height="13.5884" class="st21"/>
			</g>
			<g id="shape1377-262" v:mID="1377" v:groupContext="shape" transform="translate(10.7575,-16.2664)">
				<title>line4285</title>
				<path d="M0 485.18 L20.95 485.18" class="st18"/>
			</g>
			<g id="shape1378-265" v:mID="1378" v:groupContext="shape" transform="translate(10.7575,-11.737)">
				<title>line4287</title>
				<path d="M0 485.18 L20.95 485.18" class="st18"/>
			</g>
			<g id="shape1379-268" v:mID="1379" v:groupContext="shape" transform="translate(502.732,464.384) rotate(90)">
				<title>line4289</title>
				<path d="M0 485.18 L13.59 485.18" class="st18"/>
			</g>
			<g id="shape1380-271" v:mID="1380" v:groupContext="shape" transform="translate(509.526,464.384) rotate(90)">
				<title>line4291</title>
				<path d="M0 485.18 L13.59 485.18" class="st18"/>
			</g>
		</g>
		<g id="shape1397-274" v:mID="1397" v:groupContext="shape" transform="translate(201.942,-387.375)">
			<title>Sheet.1397</title>
			<desc>A</desc>
			<v:userDefs>
				<v:ud v:nameU="visNavOrder" v:val="VT0(108000):26"/>
			</v:userDefs>
			<v:textBlock v:margins="rect(4,4,4,4)"/>
			<v:textRect cx="15.0375" cy="470.143" width="30.08" height="30.075"/>
			<ellipse cx="15.0375" cy="470.143" rx="15.0375" ry="15.0375" class="st43"/>
			<text x="10.12" y="474.34" class="st44" v:langID="1033"><v:paragraph v:horizAlign="1"/><v:tabList/>A</text>		</g>
		<g id="shape1399-277" v:mID="1399" v:groupContext="shape" transform="translate(651.942,-384.3)">
			<title>Sheet.1399</title>
			<desc>B</desc>
			<v:userDefs>
				<v:ud v:nameU="visNavOrder" v:val="VT0(110000):26"/>
			</v:userDefs>
			<v:textBlock v:margins="rect(4,4,4,4)"/>
			<v:textRect cx="15.0375" cy="470.143" width="30.08" height="30.075"/>
			<ellipse cx="15.0375" cy="470.143" rx="15.0375" ry="15.0375" class="st43"/>
			<text x="10.55" y="474.34" class="st44" v:langID="1033"><v:paragraph v:horizAlign="1"/><v:tabList/>B</text>		</g>
		<g id="shape1400-280" v:mID="1400" v:groupContext="shape" transform="translate(655.284,-172.875)">
			<title>Sheet.1400</title>
			<desc>D</desc>
			<v:userDefs>
				<v:ud v:nameU="visNavOrder" v:val="VT0(111000):26"/>
			</v:userDefs>
			<v:textBlock v:margins="rect(4,4,4,4)"/>
			<v:textRect cx="15.0375" cy="470.143" width="30.08" height="30.075"/>
			<ellipse cx="15.0375" cy="470.143" rx="15.0375" ry="15.0375" class="st45"/>
			<text x="10.13" y="474.34" class="st46" v:langID="1033"><v:paragraph v:horizAlign="1"/><v:tabList/>D</text>		</g>
		<g id="shape1402-283" v:mID="1402" v:groupContext="shape" transform="translate(718.462,-233.025)">
			<title>Sheet.1402</title>
			<desc>D</desc>
			<v:userDefs>
				<v:ud v:nameU="visNavOrder" v:val="VT0(113000):26"/>
			</v:userDefs>
			<v:textBlock v:margins="rect(4,4,4,4)"/>
			<v:textRect cx="15.0375" cy="470.143" width="30.08" height="30.075"/>
			<ellipse cx="15.0375" cy="470.143" rx="15.0375" ry="15.0375" class="st43"/>
			<text x="9.88" y="474.34" class="st44" v:langID="1033"><v:paragraph v:horizAlign="1"/><v:tabList/>D</text>		</g>
		<g id="shape1403-286" v:mID="1403" v:groupContext="shape" transform="translate(588.942,-37.5718)">
			<title>Sheet.1403</title>
			<desc>H</desc>
			<v:userDefs>
				<v:ud v:nameU="visNavOrder" v:val="VT0(114000):26"/>
			</v:userDefs>
			<v:textBlock v:margins="rect(4,4,4,4)"/>
			<v:textRect cx="15.0375" cy="470.143" width="30.08" height="30.075"/>
			<ellipse cx="15.0375" cy="470.143" rx="15.0375" ry="15.0375" class="st43"/>
			<text x="9.67" y="474.34" class="st44" v:langID="1033"><v:paragraph v:horizAlign="1"/><v:tabList/>H</text>		</g>
		<g id="shape1404-289" v:mID="1404" v:groupContext="shape" transform="translate(248.925,-37.5718)">
			<title>Sheet.1404</title>
			<desc>G</desc>
			<v:userDefs>
				<v:ud v:nameU="visNavOrder" v:val="VT0(115000):26"/>
			</v:userDefs>
			<v:textBlock v:margins="rect(4,4,4,4)"/>
			<v:textRect cx="15.0375" cy="470.143" width="30.08" height="30.075"/>
			<ellipse cx="15.0375" cy="470.143" rx="15.0375" ry="15.0375" class="st43"/>
			<text x="10.06" y="474.34" class="st44" v:langID="1033"><v:paragraph v:horizAlign="1"/><v:tabList/>G</text>		</g>
		<g id="shape1406-292" v:mID="1406" v:groupContext="shape" transform="translate(234.712,-86.925)">
			<title>Sheet.1406</title>
			<desc>F</desc>
			<v:userDefs>
				<v:ud v:nameU="visNavOrder" v:val="VT0(117000):26"/>
			</v:userDefs>
			<v:textBlock v:margins="rect(4,4,4,4)"/>
			<v:textRect cx="15.0375" cy="470.143" width="30.08" height="30.075"/>
			<ellipse cx="15.0375" cy="470.143" rx="15.0375" ry="15.0375" class="st43"/>
			<text x="11.4" y="474.34" class="st44" v:langID="1033"><v:paragraph v:horizAlign="1"/><v:tabList/>F</text>		</g>
		<g id="shape1407-295" v:mID="1407" v:groupContext="shape" transform="translate(43.0167,-421.945)">
			<title>Sheet.1407</title>
			<desc>On-premises</desc>
			<v:userDefs>
				<v:ud v:nameU="visNavOrder" v:val="VT0(118000):26"/>
			</v:userDefs>
			<v:textBlock v:margins="rect(4,4,4,4)" v:verticalAlign="0"/>
			<v:textRect cx="58.5" cy="463.125" width="117.01" height="44.1107"/>
			<rect x="0" y="441.07" width="117" height="44.1107" class="st3"/>
			<text x="4" y="466.67" class="st35" v:langID="1033"><v:paragraph/><v:tabList/>On-premises  </text>		</g>
		<g id="shape1408-298" v:mID="1408" v:groupContext="shape" transform="translate(466.017,-165.738)">
			<title>Sheet.1408</title>
			<desc>Applications COBOL, PL/I, Assembler, 4GL</desc>
			<v:userDefs>
				<v:ud v:nameU="visNavOrder" v:val="VT0(119000):26"/>
			</v:userDefs>
			<v:textBlock v:margins="rect(4,4,4,4)" v:verticalAlign="0"/>
			<v:textRect cx="112.5" cy="466.574" width="225" height="37.2119"/>
			<path d="M0 485.18 L225 485.18 L225 447.97 L0 447.97 L0 485.18 Z" class="st28"/>
			<text x="80.27" y="461.87" class="st22" v:langID="1033"><v:paragraph v:horizAlign="1"/><v:tabList/>Applications             <v:newlineChar/><tspan
						x="43.18" dy="1.2em" class="st29">COBOL, PL/I, Assembler, 4GL</tspan></text>		</g>
		<g id="group1281-302" transform="translate(470.934,-172.875)" v:mID="1281" v:groupContext="group">
			<v:userDefs>
				<v:ud v:nameU="visNavOrder" v:val="VT0(77000):26"/>
			</v:userDefs>
			<title>Code Automate.1281</title>
			<g id="shape1282-303" v:mID="1282" v:groupContext="shape" transform="translate(7.20836,-10.7957)">
				<title>path8249</title>
				<path d="M11.81 480.53 L10.85 479.89 C10.61 479.77 10.59 478.81 10.56 478.62 a0.597426 0.632867 0 0 1 0.436077 -0.780689
							 L11.94 477.38 a0.540736 0.572813 -180 0 0 0.222399 -0.572813 L11.81 475.85 a0.33578 0.355699 -180 0
							 0 -0.436077 -0.189398 L11.36 475.66 L10.29 475.93 C9.62 476.16 8.69 475.01 8.93 474.42 L9.32 473.36
							 a0.492767 0.521999 -180 0 0 -0.209317 -0.614389 L8.27 472.44 a0.436077 0.461946 -180 0 0 -0.532014 0.133964
							 L7.22 473.66 a0.697724 0.739114 0 0 1 -0.684641 0.392654 C6.35 474.02 5.88 473.99 5.88 473.99 a0.719528
							 0.762212 0 0 1 -0.654116 -0.42961 L4.77 472.42 a0.436077 0.461946 -180 0 0 -0.462242 -0.180159 L3.41
							 472.61 a0.33578 0.355699 -180 0 0 -0.156988 0.461946 L3.45 474.28 C3.55 474.7 2.98 475.29 2.87 475.46
							 a0.715167 0.757592 0 0 1 -0.798022 0.198637 L0.99 475.2 a0.532014 0.563575 -180 0 0 -0.501489 0.272548
							 L0.05 476.39 a0.601787 0.637486 -180 0 0 0.257286 0.531238 L1.3 477.57 C1.62 477.78 1.58 478.61 1.66
							 478.89 C1.66 479.12 1.62 479.35 1.17 479.53 L0.17 480.08 a0.436077 0.461946 -180 0 0 -0.17007 0.489663
							 L0.35 481.52 a0.436077 0.461946 -180 0 0 0.409913 0.267929 L1.88 481.44 C2.27 481.34 2.44 481.44 2.55
							 481.64 C2.66 481.85 3.34 482.66 3.25 482.93 L2.82 484.08 a0.527654 0.558955 -180 0 0 0.257286 0.526619
							 L3.86 485 a0.436077 0.461946 -180 0 0 0.536375 -0.115487 L4.93 483.79 a0.693363 0.734495 0 0 1 0.680281
							 -0.383415 L6.25 483.47 C6.53 483.55 6.69 483.51 6.91 483.9 L7.42 484.96 C7.42 484.96 7.71 485.18 7.89
							 485.13 L8.73 484.89 a0.436077 0.461946 -180 0 0 0.222399 -0.577433 L8.71 483.19 a0.632312 0.669822 0
							 0 1 0.218039 -0.799167 C9.03 482.21 9.6 481.58 9.86 481.68 L11.2 482.2 a0.514571 0.545097 -180 0 0 0.436077
							 -0.189398 L12.07 481.08 a0.436077 0.461946 -180 0 0 -0.261646 -0.554336 ZM6.9 481.03 A2.22836 2.36055
							 0 0 1 3.98 479.77 C3.95 479.7 3.93 479.62 3.91 479.55 A2.28941 2.42522 0 0 1 5.25 476.47 A2.31993 2.45755
							 0 0 1 8.3 477.8 a0.322697 0.34184 0 0 1 3.55271E-15 0.060053 A2.39843 2.54071 0 0 1 6.9 481.03 Z"
						class="st21"/>
			</g>
			<g id="shape1283-305" v:mID="1283" v:groupContext="shape" transform="translate(8.77388,-0.445318)">
				<title>path8251</title>
				<path d="M4.59 485.16 A3.23569 3.42764 -180 0 0 5.23 485.16 a0.322697 0.34184 -180 0 0 0.257286 -0.351079 L5.52 483.99
							 a0.436077 0.461946 0 0 1 0.313976 -0.503522 C5.93 483.39 6.5 483.15 6.7 483.32 L7.43 483.78 a0.370666
							 0.392654 -180 0 0 0.344501 -0.0369557 L8.23 483.21 a0.33578 0.355699 -180 0 0 -0.0828547 -0.415752 L7.59
							 482.15 a0.39683 0.420371 0 0 1 -0.0784939 -0.51738 C7.51 481.63 7.74 480.82 8.06 480.76 L8.8 480.64
							 a0.383748 0.406513 -180 0 0 0.257286 -0.351079 L8.99 479.56 a0.239843 0.254071 -180 0 0 -0.270368 -0.221734
							 L7.94 479.31 a0.466603 0.494283 0 0 1 -0.475324 -0.332601 C7.37 478.87 7.33 478.71 7.23 478.6 a0.780578
							 0.826884 0 0 1 0.0261646 -0.619008 L7.73 477.33 a0.353223 0.374177 -180 0 0 -0.0305254 -0.461946 L7.17
							 476.49 a0.296533 0.314124 -180 0 0 -0.388109 0 L6.22 477.14 a0.497128 0.526619 0 0 1 -0.540736 0.129345
							 A1.50883 1.59833 -180 0 0 5.3 477.14 C5.3 477.14 4.91 476.87 4.86 476.68 L4.74 475.78 a0.300893 0.318743
							 -180 0 0 -0.28345 -0.217115 L3.78 475.63 a0.239843 0.254071 -180 0 0 -0.209317 0.286407 L3.48 476.79
							 C3.48 477.31 2.97 477.4 2.87 477.5 a0.510211 0.540477 0 0 1 -0.584344 -0.0277168 L1.63 476.94 a0.379387
							 0.401893 -180 0 0 -0.39247 0.0877698 L0.77 477.58 a0.436077 0.461946 -180 0 0 0.0828547 0.415752 L1.43
							 478.62 C1.99 479.02 1.33 479.91 0.99 479.95 L0.21 480.12 a0.305254 0.323362 -180 0 0 -0.209317 0.300265
							 L0.07 481.14 a0.309615 0.327982 -180 0 0 0.231121 0.267929 L1.13 481.41 C1.42 481.41 1.51 481.53 1.57
							 481.69 A4.36077 4.61946 0 0 1 1.79 482.15 a0.436077 0.461946 0 0 1 0.0261646 0.568194 L1.3 483.42 a0.379387
							 0.401893 -180 0 0 0.0828547 0.415752 L1.86 484.27 a0.296533 0.314124 -180 0 0 0.388109 0 L2.81 483.63
							 a0.497128 0.526619 0 0 1 0.540736 -0.129345 L3.79 483.67 C3.98 483.67 4.07 483.79 4.16 484.1 L4.32 484.93
							 C4.32 484.93 4.31 485.14 4.59 485.16 ZM6.23 480.21 A1.71378 1.81545 0 0 1 4.69 482.11 A1.59168 1.6861
							 0 0 1 2.91 480.64 C2.91 480.59 2.91 480.54 2.91 480.48 A1.63529 1.7323 0 0 1 4.4 478.63 A1.65709 1.7554
							 0 0 1 6.24 480.17 L6.24 480.21 L6.23 480.21 Z" class="st33"/>
				<path d="M4.59 485.16 A3.23569 3.42764 -180 0 0 5.23 485.16 a0.322697 0.34184 -180 0 0 0.257286 -0.351079 L5.52 483.99
							 a0.436077 0.461946 0 0 1 0.313976 -0.503522 C5.93 483.39 6.5 483.15 6.7 483.32 L7.43 483.78 a0.370666
							 0.392654 -180 0 0 0.344501 -0.0369557 L8.23 483.21 a0.33578 0.355699 -180 0 0 -0.0828547 -0.415752 L7.59
							 482.15 a0.39683 0.420371 0 0 1 -0.0784939 -0.51738 C7.51 481.63 7.74 480.82 8.06 480.76 L8.8 480.64
							 a0.383748 0.406513 -180 0 0 0.257286 -0.351079 L8.99 479.56 a0.239843 0.254071 -180 0 0 -0.270368 -0.221734
							 L7.94 479.31 a0.466603 0.494283 0 0 1 -0.475324 -0.332601 C7.37 478.87 7.33 478.71 7.23 478.6 a0.780578
							 0.826884 0 0 1 0.0261646 -0.619008 L7.73 477.33 a0.353223 0.374177 -180 0 0 -0.0305254 -0.461946 L7.17
							 476.49 a0.296533 0.314124 -180 0 0 -0.388109 0 L6.22 477.14 a0.497128 0.526619 0 0 1 -0.540736 0.129345
							 A1.50883 1.59833 -180 0 0 5.3 477.14 C5.3 477.14 4.91 476.87 4.86 476.68 L4.74 475.78 a0.300893 0.318743
							 -180 0 0 -0.28345 -0.217115 L3.78 475.63 a0.239843 0.254071 -180 0 0 -0.209317 0.286407 L3.48 476.79
							 C3.48 477.31 2.97 477.4 2.87 477.5 a0.510211 0.540477 0 0 1 -0.584344 -0.0277168 L1.63 476.94 a0.379387
							 0.401893 -180 0 0 -0.39247 0.0877698 L0.77 477.58 a0.436077 0.461946 -180 0 0 0.0828547 0.415752 L1.43
							 478.62 C1.99 479.02 1.33 479.91 0.99 479.95 L0.21 480.12 a0.305254 0.323362 -180 0 0 -0.209317 0.300265
							 L0.07 481.14 a0.309615 0.327982 -180 0 0 0.231121 0.267929 L1.13 481.41 C1.42 481.41 1.51 481.53 1.57
							 481.69 A4.36077 4.61946 0 0 1 1.79 482.15 a0.436077 0.461946 0 0 1 0.0261646 0.568194 L1.3 483.42 a0.379387
							 0.401893 -180 0 0 0.0828547 0.415752 L1.86 484.27 a0.296533 0.314124 -180 0 0 0.388109 0 L2.81 483.63
							 a0.497128 0.526619 0 0 1 0.540736 -0.129345 L3.79 483.67 C3.98 483.67 4.07 483.79 4.16 484.1 L4.32 484.93
							 C4.32 484.93 4.31 485.14 4.59 485.16M6.23 480.21 A1.71378 1.81545 0 0 1 4.69 482.11 A1.59168 1.6861
							 0 0 1 2.91 480.64 C2.91 480.59 2.91 480.54 2.91 480.48 A1.63529 1.7323 0 0 1 4.4 478.63 A1.65709 1.7554
							 0 0 1 6.24 480.17 L6.24 480.21" class="st25"/>
			</g>
			<g id="shape1284-308" v:mID="1284" v:groupContext="shape" transform="translate(20.029,0)">
				<title>path8253</title>
				<path d="M0.03 484.26 L0.26 484.26 A2.61646 2.77168 -180 0 0 2.04 483.43 C2.48 482.97 2.64 482.16 2.64 480.73 L2.64
							 476.29 A5.09338 5.39553 0 0 1 3.56 473.26 A2.57286 2.72548 0 0 1 4.95 472.1 C3.42 471.55 2.64 470.18
							 2.64 468.03 L2.64 463.5 C2.64 462.06 2.46 461.24 2.03 460.77 A2.72112 2.88255 -180 0 0 0.21 459.94 L0
							 459.94 L0.07 459.02 L0.29 459.02 A3.602 3.81568 0 0 1 2.65 460.13 C3.24 460.78 3.52 461.79 3.52 463.5
							 L3.52 468.01 C3.52 469.95 4.26 471.05 5.78 471.35 L6.14 471.42 L6.14 472.75 L5.8 472.82 A2.01904 2.13881
							 -180 0 0 4.32 473.75 A4.28228 4.53631 -180 0 0 3.52 476.27 L3.52 480.71 C3.52 482.41 3.27 483.41 2.65
							 484.06 A3.42757 3.6309 0 0 1 0.36 485.18 L0.15 485.18 L0.03 484.26 Z" class="st34"/>
			</g>
			<g id="shape1285-310" v:mID="1285" v:groupContext="shape">
				<title>path8255</title>
				<path d="M6.11 484.26 L5.88 484.26 A2.61646 2.77168 0 0 1 4.09 483.43 C3.66 482.97 3.49 482.16 3.49 480.73 L3.49
							 476.29 A5.09338 5.39553 -180 0 0 2.58 473.26 A2.57286 2.72548 -180 0 0 1.18 472.1 C2.72 471.55 3.49
							 470.18 3.49 468.03 L3.49 463.5 C3.49 462.06 3.68 461.24 4.1 460.77 A2.72112 2.88255 0 0 1 5.92 459.94
							 L6.14 459.94 L6.07 459.02 L5.85 459.02 A3.602 3.81568 -180 0 0 3.49 460.13 C2.89 460.78 2.62 461.79
							 2.62 463.5 L2.62 468.01 C2.62 469.94 1.88 471.05 0.35 471.35 L0 471.43 L0 472.75 L0.34 472.82 A2.01904
							 2.13881 0 0 1 1.81 473.75 A4.28228 4.53631 0 0 1 2.62 476.27 L2.62 480.71 C2.62 482.41 2.87 483.41 3.49
							 484.06 A3.42757 3.6309 -180 0 0 5.77 485.18 L5.98 485.18 L6.11 484.26 Z" class="st34"/>
			</g>
		</g>
		<g id="shape1398-312" v:mID="1398" v:groupContext="shape" transform="translate(655.284,-233.025)">
			<title>Sheet.1398</title>
			<desc>C</desc>
			<v:userDefs>
				<v:ud v:nameU="visNavOrder" v:val="VT0(109000):26"/>
			</v:userDefs>
			<v:textBlock v:margins="rect(4,4,4,4)"/>
			<v:textRect cx="15.0375" cy="470.143" width="30.08" height="30.075"/>
			<ellipse cx="15.0375" cy="470.143" rx="15.0375" ry="15.0375" class="st43"/>
			<text x="10.67" y="474.34" class="st44" v:langID="1033"><v:paragraph v:horizAlign="1"/><v:tabList/>C</text>		</g>
		<g id="group1410-315" transform="translate(454.767,-86.7643)" v:mID="1410" v:groupContext="group">
			<v:userDefs>
				<v:ud v:nameU="visNavOrder" v:val="VT0(121000):26"/>
			</v:userDefs>
			<title>Sheet.1410</title>
			<g id="shape1391-316" v:mID="1391" v:groupContext="shape" transform="translate(10.5375,-6.20224)">
				<title>Sheet.1391</title>
				<desc>Execution, I/O, error detection, protection</desc>
				<v:userDefs>
					<v:ud v:nameU="visNavOrder" v:val="VT0(106000):26"/>
				</v:userDefs>
				<v:textBlock v:margins="rect(4,4,4,4)"/>
				<v:textRect cx="112.5" cy="469.327" width="225" height="31.7063"/>
				<path d="M0 485.18 L225 485.18 L225 453.47 L0 453.47 L0 485.18 Z" class="st28"/>
				<text x="4" y="472.63" class="st47" v:langID="1033"><v:paragraph/><v:tabList/>Execution, I/O, error detection, protection</text>			</g>
			<g id="shape1409-319" v:mID="1409" v:groupContext="shape">
				<title>Sheet.1409</title>
				<v:userDefs>
					<v:ud v:nameU="visNavOrder" v:val="VT0(120000):26"/>
				</v:userDefs>
				<path d="M0 485.18 L247.5 485.18 L247.5 441.07 L0 441.07 L0 485.18 Z" class="st2"/>
			</g>
		</g>
		<g id="shape1413-321" v:mID="1413" v:groupContext="shape" transform="translate(452.517,-114)">
			<title>Sheet.1413</title>
			<desc>Common services</desc>
			<v:userDefs>
				<v:ud v:nameU="visNavOrder" v:val="VT0(122000):26"/>
			</v:userDefs>
			<v:textBlock v:margins="rect(4,4,4,4)"/>
			<v:textRect cx="96.75" cy="458.18" width="193.5" height="54"/>
			<rect x="0" y="431.18" width="193.5" height="54" class="st3"/>
			<text x="4" y="461.78" class="st4" v:langID="1033"><v:paragraph/><v:tabList/>Common services</text>		</g>
		<g id="shape1401-324" v:mID="1401" v:groupContext="shape" transform="translate(563.479,-119.963)">
			<title>Sheet.1401</title>
			<desc>E</desc>
			<v:userDefs>
				<v:ud v:nameU="visNavOrder" v:val="VT0(112000):26"/>
			</v:userDefs>
			<v:textBlock v:margins="rect(4,4,4,4)"/>
			<v:textRect cx="15.0375" cy="470.143" width="30.08" height="30.075"/>
			<ellipse cx="15.0375" cy="470.143" rx="15.0375" ry="15.0375" class="st43"/>
			<text x="11.31" y="474.34" class="st44" v:langID="1033"><v:paragraph v:horizAlign="1"/><v:tabList/>E</text>		</g>
		<g id="shape1414-327" v:mID="1414" v:groupContext="shape" transform="translate(578.517,-30.5539)">
			<title>Sheet.1414</title>
			<desc>Partition</desc>
			<v:userDefs>
				<v:ud v:nameU="visNavOrder" v:val="VT0(123000):26"/>
			</v:userDefs>
			<v:textBlock v:margins="rect(4,4,4,4)"/>
			<v:textRect cx="182.25" cy="463.125" width="364.5" height="44.1107"/>
			<path d="M0 485.18 L364.5 485.18 L364.5 441.07 L0 441.07 L0 485.18 Z" class="st2"/>
			<text x="157.57" y="466.73" class="st39" v:langID="1033"><v:paragraph v:horizAlign="1"/><v:tabList/>Partition</text>		</g>
	</g>
</svg>
