<svg xmlns="http://www.w3.org/2000/svg" width="1738.08" height="1134.672" viewBox="0 0 1303.56 851.005" color-interpolation-filters="sRGB" fill="none" fill-rule="evenodd" font-size="12" overflow="visible" stroke-linecap="square" stroke-miterlimit="3"><style>.st1{fill:#f0f;fill-opacity:0}.st3{fill:url(#grad12-8);stroke:#fff;stroke-linecap:round;stroke-linejoin:round}.st3,.st4,.st5{stroke-width:.72}.st4{stroke-linecap:round;stroke-linejoin:round;fill:url(#grad11-14);stroke:#000}.st5{fill:url(#grad0-23);stroke:#fff}.st5,.st7,.st8{stroke-linecap:round;stroke-linejoin:round}.st7{fill:#fff;stroke:#000;stroke-width:.72}.st8{stroke:#257ca7;stroke-width:1.5}.st13{fill:#2bc7f4}.st14,.st15,.st17{stroke:none;stroke-linecap:butt;stroke-width:.75}.st15,.st17{fill:#556a8a}.st17{fill:#68b7dd;stroke-linecap:round;stroke-linejoin:round;stroke-width:2.25}.st18{fill:#113c52;font-family:Segoe UI;font-size:1.16666em}.st19,.st20{fill:none;stroke-linecap:round;stroke-linejoin:round}.st19{stroke-dasharray:.75,1.5;stroke:#43699c;stroke-width:.75}.st20{stroke:none;stroke-width:2.25}.st21{fill:#000;font-family:Segoe UI;font-size:1.00001em;font-weight:700}.st23{font-size:1em;font-weight:400}.st24{fill:#aad2f2}.st25{fill:#aab5c5}.st26{fill:#80bceb;stroke:none;stroke-linecap:butt;stroke-width:.75}.st28,.st31,.st32,.st33,.st36,.st37,.st38,.st39,.st40,.st41,.st45{fill:#0072c6;stroke:none;stroke-linecap:round;stroke-linejoin:round;stroke-width:.75}.st31,.st32,.st33,.st36,.st37,.st38,.st39,.st40,.st41,.st45{fill:#0066b2}.st32,.st33,.st36,.st37,.st38,.st39,.st40,.st41,.st45{fill:#e5e5e5}.st33,.st36,.st37,.st38,.st39,.st40,.st41,.st45{fill:#d9d9d9}.st36,.st37,.st38,.st39,.st40,.st41,.st45{fill:#ff8c00}.st37,.st38,.st39,.st40,.st41,.st45{fill:#fff}.st38,.st39,.st40,.st41,.st45{fill:#6dc2e9}.st39,.st40,.st41,.st45{fill:#5da5c6}.st40,.st41,.st45{fill:#002050}.st41,.st45{fill:#dc3c00}.st45{fill:#d97700}.st46,.st52{fill:#000;font-family:Segoe UI;font-size:1.99999em}.st52{font-size:1.00001em}.st53{font-size:1em}.st56,.st57,.st58,.st59,.st60,.st61{fill:#00bbf1;stroke:none;stroke-linecap:round;stroke-linejoin:round;stroke-width:.75}.st57,.st58,.st59,.st60,.st61{fill:#919191}.st58,.st59,.st60,.st61{fill:#c5c5c5}.st59,.st60,.st61{fill:#e6f8fe}.st60,.st61{fill:#ccf1fc}.st61{fill:#80ddf8}.st62{fill:#113c52;font-family:Segoe UI;font-size:1.00001em}.st63,.st64,.st65,.st69{fill:#949494;stroke:none;stroke-linecap:butt;stroke-width:34}.st64,.st65,.st69{fill:#003067}.st65,.st69{fill:#50e6ff}.st69{fill:#1490df}.st70{fill:#000;font-family:Segoe UI;font-size:.833336em;font-weight:700}.st77{fill:#fff;stroke:#257ca7;stroke-dasharray:.75,1.5;stroke-linecap:round;stroke-linejoin:round;stroke-width:.75}.st78,.st79,.st80{fill:#000;font-family:Segoe UI;font-size:.833336em}.st79,.st80{fill:#113c52;font-size:.666664em}.st80{font-size:1.00001em;font-weight:700}.st82{fill:none;stroke:none;stroke-linecap:butt;stroke-width:.75}.st84,.st88{stroke-linecap:round;stroke-linejoin:round}.st84{fill:#d83b01;stroke:none;stroke-width:.75}.st88{stroke:#7f7f7f;stroke-width:1}.st90,.st93,.st94,.st95,.st96,.st97{fill:#1490df;stroke:none;stroke-linecap:butt;stroke-width:12.24}.st93,.st94,.st95,.st96,.st97{fill:#50e6ff}.st94,.st95,.st96,.st97{fill:url(#grad0-701);stroke-width:34}.st95,.st96,.st97{fill:#198ab3}.st96,.st97{fill:#fff}.st97{fill:#9cebff}</style><defs id="Patterns_And_Gradients"><linearGradient id="grad0-9" x1="0" y1="0" x2="1" y2="0" gradientTransform="rotate(90 .5 .5)"><stop offset="0" stop-color="#eaeaea"/><stop offset="1"/></linearGradient><linearGradient id="grad0-10" x1="0" y1="0" x2="1" y2="0" gradientTransform="rotate(360 .5 .5)"><stop offset="0" stop-color="#eaeaea"/><stop offset="1"/></linearGradient><linearGradient id="grad0-15" x1="0" y1="0" x2="1" y2="0" gradientTransform="rotate(180 .5 .5)"><stop offset="0" stop-color="#fff"/><stop offset="1" stop-color="silver"/></linearGradient><linearGradient id="grad0-16" x1="0" y1="0" x2="1" y2="0" gradientTransform="rotate(90 .5 .5)"><stop offset="0" stop-color="#fff"/><stop offset="1" stop-color="silver"/></linearGradient><linearGradient id="grad0-23" x1="0" y1="0" x2="1" y2="0" gradientTransform="rotate(270 .5 .5)"><stop offset="0" stop-color="#fff"/><stop offset="1" stop-color="#151515"/></linearGradient><linearGradient id="grad0-275" x1="0" y1="0" x2="1" y2="0" gradientTransform="rotate(44.92 .5 .5)"><stop offset="0" stop-color="#86d633"/><stop offset=".24" stop-color="#83d232"/><stop offset=".5" stop-color="#7cc52f"/><stop offset=".76" stop-color="#6fb02a"/><stop offset="1" stop-color="#5e9624"/></linearGradient><linearGradient id="grad0-279" x1="0" y1="0" x2="1" y2="0" gradientTransform="rotate(45.084 .5 .5)"><stop offset="0" stop-color="#86d633"/><stop offset=".24" stop-color="#83d232"/><stop offset=".5" stop-color="#7cc52f"/><stop offset=".76" stop-color="#6fb02a"/><stop offset="1" stop-color="#5e9624"/></linearGradient><linearGradient id="grad0-283" x1="0" y1="0" x2="1" y2="0" gradientTransform="rotate(45 .5 .5)"><stop offset="0" stop-color="#86d633"/><stop offset=".24" stop-color="#83d232"/><stop offset=".5" stop-color="#7cc52f"/><stop offset=".76" stop-color="#6fb02a"/><stop offset="1" stop-color="#5e9624"/></linearGradient><linearGradient id="grad0-340" x1="0" y1="0" x2="1" y2="0" gradientTransform="rotate(-90 .5 .5)"><stop offset="0" stop-color="#0078d4"/><stop offset=".16" stop-color="#1380da"/><stop offset=".53" stop-color="#3c91e5"/><stop offset=".82" stop-color="#559cec"/><stop offset="1" stop-color="#5ea0ef"/></linearGradient><linearGradient id="grad0-350" x1="0" y1="0" x2="1" y2="0" gradientTransform="rotate(89.56 .5 .5)"><stop offset="0" stop-color="#32d4f5"/><stop offset=".32" stop-color="#31d1f3"/><stop offset=".53" stop-color="#2ec9eb"/><stop offset=".7" stop-color="#29bade"/><stop offset=".86" stop-color="#22a5cb"/><stop offset="1" stop-color="#198ab3"/><stop offset="1" stop-color="#198ab3"/></linearGradient><linearGradient id="grad0-361" x1="0" y1="0" x2="1" y2="0" gradientTransform="rotate(-90 .5 .5)"><stop offset="0" stop-color="#5e9624"/><stop offset=".24" stop-color="#6fb02a"/><stop offset=".5" stop-color="#7cc52f"/><stop offset=".755" stop-color="#83d232"/><stop offset="1" stop-color="#86d633"/></linearGradient><linearGradient id="grad0-644" x1="0" y1="0" x2="1" y2="0" gradientTransform="rotate(90 .5 .5)"><stop offset=".23" stop-color="#5ea0ef"/><stop offset=".32" stop-color="#5b9fee"/><stop offset=".48" stop-color="#509aeb"/><stop offset=".57" stop-color="#3f92e6"/><stop offset=".75" stop-color="#2688df"/><stop offset=".93" stop-color="#127fd9"/></linearGradient><linearGradient id="grad0-648" x1="0" y1="0" x2="1" y2="0" gradientTransform="rotate(90 .5 .5)"><stop offset=".02" stop-color="#5ea0ef"/><stop offset=".14" stop-color="#5b9fee"/><stop offset=".23" stop-color="#5b9fee"/><stop offset=".34" stop-color="#509aeb"/><stop offset=".44" stop-color="#3f92e6"/><stop offset=".63" stop-color="#2688df"/><stop offset=".93" stop-color="#127fd9"/></linearGradient><linearGradient id="grad0-701" x1="0" y1="0" x2="1" y2="0" gradientTransform="rotate(-90 .5 .5)"><stop offset="0" stop-color="#32bedd"/><stop offset=".18" stop-color="#32caea"/><stop offset=".41" stop-color="#32d2f2"/><stop offset=".78" stop-color="#32d4f5"/></linearGradient><linearGradient id="grad0-737" x1="0" y1="0" x2="1" y2="0" gradientTransform="rotate(88.546 .5 .5)"><stop offset=".22" stop-color="#32d4f5"/><stop offset=".47" stop-color="#31d1f3"/><stop offset=".63" stop-color="#2ec9eb"/><stop offset=".77" stop-color="#29bade"/><stop offset=".89" stop-color="#22a5cb"/><stop offset="1" stop-color="#198ab3"/><stop offset="1" stop-color="#198ab3"/></linearGradient><radialGradient id="grad6-30" cx="1" cy="0" r="1.4"><stop offset="0" stop-color="#fafafa"/><stop offset="1" stop-color="#396"/></radialGradient><radialGradient id="grad3-88" cx=".5" cy=".5" r=".73"><stop offset="0" stop-color="#fff"/><stop offset="1" stop-color="gray"/></radialGradient><pattern id="grad12-8" x="0" y="0" width="1" height="1" patternContentUnits="objectBoundingBox"><path d="M0 0v1h1z" fill="url(#grad0-9)"/><path d="M0 0h1v1z" fill="url(#grad0-10)"/></pattern><pattern id="grad11-14" x="0" y="0" width="1" height="1" patternContentUnits="objectBoundingBox"><path d="M0 1V0h1z" fill="url(#grad0-15)"/><path d="M0 1h1V0z" fill="url(#grad0-16)"/></pattern></defs><g id="group1328-1" transform="translate(111.821 -169.005)"><g id="shape1329-2"><path d="M19.32 839.67l.05.05-.05-.05zm39.9-5.36l-22.99 13.23 22.96-13.27.03.04zm-39.85 5.41l-3.62 1.21a51.314 48.101-92.32 0020.48 10.08l22.99-13.23v-3.47l1.26-.79v-23.46l-5.37-3.12a49.198 37.872 159.79 017.63-9.8 232.276 177.082 26.57 01-14.56-9.12 61.133 47.614-3.13 00-7.5 10.56l-1.94-1.12-24.57 14.17a40.44 31.408-173.14 0022.06 12.6 38.655 30.021 6.76 01-22.06-12.6l.07 10.59-7.94 4.53v3.31a49.569 49.569-180 007.95-4.57l.01.28A57.737 54.121 87.92 010 832.74l14.81 8.5.94-.33a1252.53 1077.93 130.56 013.57-1.24l.05.05z" class="st1"/><path d="M19.32 839.67l.05.05m39.85-5.41l-22.99 13.23 22.96-13.27m-39.82 5.45l-3.62 1.21a51.314 48.101-92.32 0020.48 10.08l22.99-13.23v-3.47l1.26-.79v-23.46l-5.37-3.12a49.198 37.872 159.79 017.63-9.8 232.276 177.082 26.57 01-14.56-9.12 61.133 47.614-3.13 00-7.5 10.56l-1.94-1.12-24.57 14.17a40.44 31.408-173.14 0022.06 12.6 38.655 30.021 6.76 01-22.06-12.6l.07 10.59-7.94 4.53v3.31a49.569 49.569-180 007.95-4.57l.01.28A57.737 54.121 87.92 010 832.74l14.81 8.5.94-.33a1252.53 1077.93 130.56 013.57-1.24" stroke="#000" stroke-linecap="round" stroke-linejoin="round" stroke-opacity="0" stroke-width=".72"/></g><g id="shape1330-5" transform="translate(36.225)"><path d="M0 847.54v3.47l22.99-13.23v-3.47L0 847.54z" class="st3"/></g><g id="shape1331-11" transform="translate(15.75)"><path d="M20.48 847.54a68.498 64.21 88.92 01-16.7-7.87L0 840.93a51.314 48.101-92.32 0020.47 10.08v-3.47z" class="st4"/></g><g id="shape1332-17" transform="translate(36.225 -3.465)"><path d="M0 827.7v23.31l24.25-14.02v-23.47L0 827.7z" class="st3"/></g><g id="shape1333-20" transform="translate(14.175 -26.775)"><path d="M22.05 851.01l24.25-14.18-21.73-12.6L0 838.41a40.44 31.408-173.14 0022.05 12.6z" class="st5"/></g><g id="shape1334-24" transform="translate(14.175 -3.465)"><path d="M22.05 827.7A38.655 30.021 6.76 010 815.1l.13 23.55a39.303 30.513-171.71 0021.92 12.36V827.7z" class="st4"/></g><g id="shape1335-27" transform="rotate(-163.5 16.048 832.66)"><path d="M5.57 849.31a2.79 1.528-3.47 11-5.57.32 2.79 1.528-3.47 115.57-.32z" fill="url(#grad6-30)" stroke="#000" stroke-linecap="round" stroke-linejoin="round" stroke-width=".24"/></g><g id="shape1336-31" transform="translate(27.72 -34.335)"><path d="M26.15 843.76l2.2 1.26-10.39 5.99L0 840.61l13.23-7.56-2.52 5.04-3.15 1.89 14.18 8.19 3.15-1.89 1.26-2.52z" class="st7"/></g><g id="shape1337-33" transform="translate(38.43 -39.06)"><path d="M14.18 851.01a49.198 37.872 159.79 0110.13-14.81 232.276 177.082 26.57 01-14.56-9.12A61.133 47.614-3.13 000 842.82a197.477 141.47-125.56 0014.18 8.19z" class="st7"/></g><g id="shape1338-35" transform="translate(15.736 -27.72)"><path d="M6.31 851.01a27.954 22.518-61.46 000-3.15 15.738 6.888 34.87 01-6.3-4.73 49.31 7.681-100.26 000 3.15 25.95 10.134-163.31 006.3 4.73z" class="st4"/></g><g id="shape1339-38" transform="translate(6.3 -11.025)"><path d="M27.09 841.56l-9.45 5.35v4.1h9.45v-9.45zM0 841.08v-3.3l8.82-5.04v3.15A49.569 49.569 0 010 841.08zm17.64 9.93v-1.89l-2.05.78 2.05 1.11z" class="st4"/></g><g id="shape1340-41" transform="translate(0 -9.765)"><path d="M0 842.5l14.8 8.51a1252.53 1077.93 130.56 019.14-3.15v-2.21l7.56-4.25-14.42-7.96A57.737 54.121 87.92 010 842.5z" class="st7"/></g><g id="shape1341-43"><path d="M60.48 810.06l-4.93-3a26.495 24.992 89.98 017.42-9.8l-14.94-9.25a36.884 34.788-92.05 00-7.71 10.39l-1.58-.94-24.57 14.17v10.71l-7.87 4.41v3.31a80.848 80.848 0 01-6.3 2.68l14.8 8.5.95-.31a41.255 31.89-175.39 0020.47 10.08l23-13.23v-3.47l1.26-.79v-23.46" class="st8"/></g></g><g id="group1345-46" transform="translate(111.821 -77.036)"><g id="shape1346-47"><path d="M2.92 826.45l6.79-4.07.74-.44a3.719 3.371 89.45 01-.73.46l21.38 12.91a3.205 2.912-97.18 001.22-2.78v-13.67a8.532 7.735 89.28 01.17-1.68l1.53.92v7.34l9.72 5.82 1.94-1.16v13.56l.1.06-4.96 2.98v2.53l2.92 1.78 12.64-7.6v-2.53l-4.14 2.53 4.14-2.53-2.92-1.77-1.22.73V826.2l-3.64 2.28-.1-.05 3.74-2.23 8.51-5.06v-19.75l-9.72-6.02-7.78 4.75-20.41-12.28v-9.23l-5.83-3.54L0 785.19v19.75l5.83 3.54v10.13L0 822.15v2.53l2.92 1.77zm5.95-19.69v-.09l3.03-1.8-3.05 1.9.02-.01z" class="st1"/><path d="M2.92 826.45l6.79-4.07.74-.44a3.719 3.371 89.45 01-.73.46l21.38 12.91a3.205 2.912-97.18 001.22-2.78v-13.67a8.532 7.735 89.28 01.17-1.68l1.53.92v7.34l9.72 5.82 1.94-1.16v13.56l.1.06-4.96 2.98v2.53l2.92 1.78 12.64-7.6v-2.53l-4.14 2.53 4.14-2.53-2.92-1.77-1.22.73V826.2l-3.64 2.28-.1-.05 3.74-2.23 8.51-5.06v-19.75l-9.72-6.02-7.78 4.75-20.41-12.28v-9.23l-5.83-3.54L0 785.19v19.75l5.83 3.54v10.13L0 822.15v2.53l2.92 1.77m5.95-19.69v-.09l3.03-1.8-3.05 1.9" stroke="#373773" stroke-linecap="round" stroke-linejoin="round" stroke-opacity="0" stroke-width=".72"/></g><g id="shape1347-50" transform="translate(0 -62.269)"><path d="M5.83 851.01l17.01-10.13-5.83-3.54L0 847.46l5.83 3.55z" class="st5"/></g><g id="shape1348-53" transform="translate(0 -27.084)"><path d="M0 849.23l2.92 1.78 5.83-3.55-2.92-1.77L0 849.23z" class="st5"/></g><g id="shape1349-56" transform="translate(2.916 -24.553)"><path d="M5.83 844.93L0 848.47v2.54l9.72-5.83v-16.2l-3.78 2.34-.11 13.61z" class="st3"/></g><g id="shape1350-59" transform="translate(5.832 -30.628)"><path d="M0 849.23l2.92 1.78.12-13.8-3.04 1.9v10.12z" class="st4"/></g><g id="shape1351-62" transform="translate(5.832 -42.525)"><path d="M0 851.01l17.01-10.13v-19.74L0 831.26v19.75z" class="st3"/></g><g id="shape1352-65" transform="translate(13.365 -46.575)"><path d="M0 835.56l25.52 15.45 4.37-4.31-24.18-14.55L0 835.56z" class="st5"/></g><g id="shape1353-68" transform="translate(12.393 -44.044)"><path d="M0 835.31l26 15.7.49-2.54L.97 833.03 0 835.31z" class="st4"/></g><g id="shape1354-71" transform="translate(39.424 -42.728)"><path d="M0 845.18l9.72 5.83 11.61-6.89-9.72-6.02L0 845.18z" class="st5"/></g><g id="shape1355-74" transform="translate(40.824 -2.531)"><path d="M0 849.23l2.92 1.78 12.63-7.6-2.91-1.77L0 849.23z" class="st5"/></g><g id="shape1356-77" transform="translate(0 -42.525)"><path d="M0 847.46l5.83 3.55v-19.75L0 827.72v19.74z" class="st4"/></g><g id="shape1357-80" transform="translate(9.477 -32.906)"><path d="M0 836.32l24.54 14.69.97-4.81L0 830.76v5.56z" class="st4"/></g><g id="shape1358-83" transform="translate(9.72 -15.694)"><path d="M2.07 834.55A3.719 3.371 89.45 010 838.1l21.38 12.91a3.205 2.912-97.18 001.22-2.79v-13.67a8.532 7.735 89.28 012.19-5.82l-20.9-12.66a7.212 6.538-91.07 00-1.7 5.07l-.12 13.41z" class="st7"/></g><g id="shape1359-85" transform="translate(9.477 -37.716)"><path d="M0 835.56l25.51 15.45 3.41-6.33-26-15.7L0 835.56z" fill="url(#grad3-88)" stroke="#000" stroke-linecap="round" stroke-linejoin="round" stroke-width=".72"/></g><g id="shape1360-89" transform="translate(43.74)"><path d="M4.86 845.44L0 848.47v2.54l12.64-7.6v-2.53l-4.14 2.53V826.2l-3.64 2.28v16.96z" class="st3"/></g><g id="shape1361-92" transform="translate(40.824)"><path d="M0 849.23l2.92 1.78v-2.54L0 846.7v2.53z" class="st4"/></g><g id="shape1362-95" transform="translate(45.684 -5.569)"><path d="M0 849.23l2.92 1.78v-16.96L0 832.53v16.7z" class="st4"/></g><g id="shape1363-98" transform="translate(43.74 -19.744)"><path d="M0 851.01l17.01-10.13v-19.74L5.4 828.02 0 840.37v10.64z" class="st3"/></g><g id="shape1364-101" transform="translate(34.02 -30.375)"><path d="M0 845.18l9.72 5.83 5.4-12.36-9.72-5.82L0 845.18z" class="st4"/></g><g id="shape1365-104" transform="translate(36.936 -34.172)"><path d="M0 847.21l6.32 3.8 2.91-6.84-6.16-3.81L0 847.21z" fill="#fff" fill-opacity=".45" stroke="#000" stroke-linecap="round" stroke-linejoin="round" stroke-width=".72"/></g><g id="shape1366-106" transform="translate(34.02 -19.744)"><path d="M0 845.18l9.72 5.83v-10.64L0 834.55v10.63z" class="st4"/></g><g id="shape1367-109" transform="translate(0 -24.553)"><path d="M0 849.23l2.92 1.78v-2.54L0 846.7v2.53z" class="st4"/></g><g id="shape1368-112"><path d="M0 785.19v19.75l5.83 3.54v10.13L0 822.15v2.53l2.92 1.77 6.8-4.05 21.38 12.91a3.458 3.145-98.6 001.22-2.78v-13.67l.24-1.9 1.46 1.14v7.34l9.72 5.82 1.94-1.01v13.41l-4.86 3.04v2.53l2.92 1.78 12.64-7.6v-2.53l-2.92-1.77-1.22.76V826.2l8.51-5.06v-19.75l-9.72-6.02-7.78 4.76-20.41-12.29v-9.23l-5.83-3.54L0 785.19" class="st8"/></g></g><g id="group1271-116" transform="translate(790.28 -427.797)"><g id="shape1272-117" transform="translate(8.035 -13.851)"><path d="M13.17 845.04l-1.08-.83c-.26-.15-.28-1.38-.32-1.62a.666.812 0 01.486-1.002l1.054-.598a.603.735-180 00.248-.735l-.388-1.215a.374.456-180 00-.486-.243l-.024.003-1.19.34c-.74.29-1.79-1.19-1.52-1.94l.44-1.36a.55.67-180 00-.233-.788l-.937-.402a.486.593-180 00-.593.172l-.577 1.398a.778.948 0 01-.763.504c-.207-.034-.737-.074-.737-.074a.802.978 0 01-.73-.551l-.5-1.469a.486.593-180 00-.515-.231l-1.005.481a.374.456-180 00-.175.593l.225 1.547c.11.54-.53 1.3-.65 1.52a.797.972 0 01-.89.255L1.1 838.2a.593.723-180 00-.559.35l-.481 1.18a.67.818-180 00.287.682l1.093.828c.37.27.32 1.33.41 1.69 0 .29-.05.6-.55.83l-1.11.7a.486.593-180 00-.19.628l.39 1.222a.486.593-180 00.457.344l1.243-.454c.44-.13.63 0 .75.27.13.26.88 1.3.79 1.65l-.49 1.47a.588.717-180 00.287.676l.883.514a.486.593-180 00.598-.148l.582-1.402a.773.942 0 01.758-.492l.722.072c.31.1.49.06.73.55l.57 1.36s.33.29.52.23l.95-.32a.486.593-180 00.248-.74l-.278-1.44a.705.86 0 01.243-1.025c.107-.225.747-1.045 1.037-.915l1.5.67a.574.7-180 00.486-.243l.484-1.187a.486.593-180 00-.292-.711zm-5.48.64a2.484 3.029 0 01-3.25-1.62c-.03-.09-.06-.18-.08-.28a2.552 3.112 0 011.49-3.95 2.586 3.153 0 013.4 1.7.36.439 0 010 .077 2.673 3.26 0 01-1.56 4.073z" fill="#fff" stroke="#556a8a" stroke-width="1.5"/></g><g id="shape1273-119" transform="translate(9.78 -.571)"><path d="M5.12 850.98a3.607 4.398-180 00.71 0 .36.439-180 00.287-.45l.033-1.05a.486.593 0 01.35-.646c.11-.124.74-.424.97-.214l.81.59a.413.504-180 00.384-.047l.516-.683a.374.456-180 00-.092-.533l-.628-.827a.442.54 0 01-.087-.664c-.003.004.257-1.046.617-1.116l.82-.16a.428.522-180 00.287-.45l-.077-.94a.267.326-180 00-.301-.284l-.869-.036a.52.634 0 01-.53-.427c-.11-.133-.15-.343-.26-.473a.87 1.06 0 01.03-.794l.52-.836a.394.48-180 00-.034-.593L8 839.85a.33.403-180 00-.433 0l-.627.83a.554.676 0 01-.603.166 1.682 2.05-180 00-.427-.156s-.44-.35-.49-.59l-.13-1.16a.335.409-180 00-.316-.279l-.764.099a.267.326-180 00-.233.367l-.097 1.113c0 .67-.57.78-.68.91a.569.693 0 01-.651-.036l-.739-.684a.423.516-180 00-.437.113l-.513.707a.486.593-180 00.092.533l.638.807c.63.51-.1 1.66-.48 1.7l-.88.22a.34.415-180 00-.233.385l.083.935a.345.42-180 00.258.344l.922-.004c.32 0 .43.16.48.36a4.86 5.927 0 01.26.59.486.593 0 01.03.729l-.58.901a.423.516-180 00.092.533l.528.557a.33.403-180 00.433 0l.627-.83a.554.676 0 01.603-.166l.487.226c.22 0 .32.15.42.55l.18 1.07s-.02.26.3.29zm1.82-6.35a1.91 2.33 0 01-1.71 2.43 1.774 2.163 0 01-1.98-1.88v-.21a1.823 2.223 0 011.65-2.37 1.847 2.252 0 012.05 1.98v.04l-.01.01z" class="st13"/><path d="M5.12 850.98a3.607 4.398-180 00.71 0 .36.439-180 00.287-.45l.033-1.05a.486.593 0 01.35-.646c.11-.124.74-.424.97-.214l.81.59a.413.504-180 00.384-.047l.516-.683a.374.456-180 00-.092-.533l-.628-.827a.442.54 0 01-.087-.664c-.003.004.257-1.046.617-1.116l.82-.16a.428.522-180 00.287-.45l-.077-.94a.267.326-180 00-.301-.284l-.869-.036a.52.634 0 01-.53-.427c-.11-.133-.15-.343-.26-.473a.87 1.06 0 01.03-.794l.52-.836a.394.48-180 00-.034-.593L8 839.85a.33.403-180 00-.433 0l-.627.83a.554.676 0 01-.603.166 1.682 2.05-180 00-.427-.156s-.44-.35-.49-.59l-.13-1.16a.335.409-180 00-.316-.279l-.764.099a.267.326-180 00-.233.367l-.097 1.113c0 .67-.57.78-.68.91a.569.693 0 01-.651-.036l-.739-.684a.423.516-180 00-.437.113l-.513.707a.486.593-180 00.092.533l.638.807c.63.51-.1 1.66-.48 1.7l-.88.22a.34.415-180 00-.233.385l.083.935a.345.42-180 00.258.344l.922-.004c.32 0 .43.16.48.36a4.86 5.927 0 01.26.59.486.593 0 01.03.729l-.58.901a.423.516-180 00.092.533l.528.557a.33.403-180 00.433 0l.627-.83a.554.676 0 01.603-.166l.487.226c.22 0 .32.15.42.55l.18 1.07s-.02.26.3.29m1.82-6.35a1.91 2.33 0 01-1.71 2.43 1.774 2.163 0 01-1.98-1.88v-.21a1.823 2.223 0 011.65-2.37 1.847 2.252 0 012.05 1.98v.04" class="st14"/></g><g id="shape1274-122" transform="translate(22.325)"><path d="M.03 849.82h.26a2.916 3.556-180 001.98-1.06c.49-.59.68-1.62.68-3.47v-5.69a5.677 6.923 0 011.02-3.89 2.868 3.497 0 011.55-1.48c-1.71-.71-2.57-2.47-2.57-5.23v-5.81c0-1.86-.21-2.9-.68-3.5a3.033 3.698-180 00-2.03-1.07H0l.07-1.19h.25a4.015 4.896 0 012.63 1.43c.67.84.97 2.13.97 4.33v5.78c0 2.5.83 3.9 2.53 4.3l.39.08v1.71l-.38.09a2.25 2.744-180 00-1.64 1.19 4.773 5.82-180 00-.9 3.24v5.69c0 2.19-.28 3.47-.97 4.3a3.82 4.659 0 01-2.55 1.44H.17l-.14-1.19z" class="st15"/></g><g id="shape1275-124"><path d="M6.8 849.82h-.25a2.916 3.556 0 01-1.99-1.06c-.48-.59-.67-1.62-.67-3.47v-5.69a5.677 6.923-180 00-1.02-3.89 2.868 3.497-180 00-1.55-1.48c1.71-.71 2.57-2.47 2.57-5.23v-5.81c0-1.86.21-2.9.68-3.5a3.033 3.698 0 012.03-1.07h.24l-.07-1.19h-.25a4.015 4.896-180 00-2.63 1.43c-.67.84-.97 2.13-.97 4.33v5.78c0 2.48-.83 3.91-2.53 4.3l-.39.09v1.7l.38.09a2.25 2.744 0 011.64 1.19 4.773 5.82 0 01.9 3.24v5.69c0 2.19.28 3.47.97 4.3a3.82 4.659-180 002.55 1.44h.23l.13-1.19z" class="st15"/></g></g><g id="group1281-126" transform="translate(790.28 -361.204)"><g id="shape1282-127" transform="translate(8.035 -13.851)"><path d="M13.17 845.04l-1.08-.83c-.26-.15-.28-1.38-.32-1.62a.666.812 0 01.486-1.002l1.054-.598a.603.735-180 00.248-.735l-.388-1.215a.374.456-180 00-.486-.243l-.024.003-1.19.34c-.74.29-1.79-1.19-1.52-1.94l.44-1.36a.55.67-180 00-.233-.788l-.937-.402a.486.593-180 00-.593.172l-.577 1.398a.778.948 0 01-.763.504c-.207-.034-.737-.074-.737-.074a.802.978 0 01-.73-.551l-.5-1.469a.486.593-180 00-.515-.231l-1.005.481a.374.456-180 00-.175.593l.225 1.547c.11.54-.53 1.3-.65 1.52a.797.972 0 01-.89.255L1.1 838.2a.593.723-180 00-.559.35l-.481 1.18a.67.818-180 00.287.682l1.093.828c.37.27.32 1.33.41 1.69 0 .29-.05.6-.55.83l-1.11.7a.486.593-180 00-.19.628l.39 1.222a.486.593-180 00.457.344l1.243-.454c.44-.13.63 0 .75.27.13.26.88 1.3.79 1.65l-.49 1.47a.588.717-180 00.287.676l.883.514a.486.593-180 00.598-.148l.582-1.402a.773.942 0 01.758-.492l.722.072c.31.1.49.06.73.55l.57 1.36s.33.29.52.23l.95-.32a.486.593-180 00.248-.74l-.278-1.44a.705.86 0 01.243-1.025c.107-.225.747-1.045 1.037-.915l1.5.67a.574.7-180 00.486-.243l.484-1.187a.486.593-180 00-.292-.711zm-5.48.64a2.484 3.029 0 01-3.25-1.62c-.03-.09-.06-.18-.08-.28a2.552 3.112 0 011.49-3.95 2.586 3.153 0 013.4 1.7.36.439 0 010 .077 2.673 3.26 0 01-1.56 4.073z" fill="#fff" stroke="#556a8a" stroke-linecap="butt" stroke-width="1.5"/></g><g id="shape1283-129" transform="translate(9.78 -.571)"><path d="M5.12 850.98a3.607 4.398-180 00.71 0 .36.439-180 00.287-.45l.033-1.05a.486.593 0 01.35-.646c.11-.124.74-.424.97-.214l.81.59a.413.504-180 00.384-.047l.516-.683a.374.456-180 00-.092-.533l-.628-.827a.442.54 0 01-.087-.664c-.003.004.257-1.046.617-1.116l.82-.16a.428.522-180 00.287-.45l-.077-.94a.267.326-180 00-.301-.284l-.869-.036a.52.634 0 01-.53-.427c-.11-.133-.15-.343-.26-.473a.87 1.06 0 01.03-.794l.52-.836a.394.48-180 00-.034-.593L8 839.85a.33.403-180 00-.433 0l-.627.83a.554.676 0 01-.603.166 1.682 2.05-180 00-.427-.156s-.44-.35-.49-.59l-.13-1.16a.335.409-180 00-.316-.279l-.764.099a.267.326-180 00-.233.367l-.097 1.113c0 .67-.57.78-.68.91a.569.693 0 01-.651-.036l-.739-.684a.423.516-180 00-.437.113l-.513.707a.486.593-180 00.092.533l.638.807c.63.51-.1 1.66-.48 1.7l-.88.22a.34.415-180 00-.233.385l.083.935a.345.42-180 00.258.344l.922-.004c.32 0 .43.16.48.36a4.86 5.927 0 01.26.59.486.593 0 01.03.729l-.58.901a.423.516-180 00.092.533l.528.557a.33.403-180 00.433 0l.627-.83a.554.676 0 01.603-.166l.487.226c.22 0 .32.15.42.55l.18 1.07s-.02.26.3.29zm1.82-6.35a1.91 2.33 0 01-1.71 2.43 1.774 2.163 0 01-1.98-1.88v-.21a1.823 2.223 0 011.65-2.37 1.847 2.252 0 012.05 1.98v.04l-.01.01z" class="st13"/><path d="M5.12 850.98a3.607 4.398-180 00.71 0 .36.439-180 00.287-.45l.033-1.05a.486.593 0 01.35-.646c.11-.124.74-.424.97-.214l.81.59a.413.504-180 00.384-.047l.516-.683a.374.456-180 00-.092-.533l-.628-.827a.442.54 0 01-.087-.664c-.003.004.257-1.046.617-1.116l.82-.16a.428.522-180 00.287-.45l-.077-.94a.267.326-180 00-.301-.284l-.869-.036a.52.634 0 01-.53-.427c-.11-.133-.15-.343-.26-.473a.87 1.06 0 01.03-.794l.52-.836a.394.48-180 00-.034-.593L8 839.85a.33.403-180 00-.433 0l-.627.83a.554.676 0 01-.603.166 1.682 2.05-180 00-.427-.156s-.44-.35-.49-.59l-.13-1.16a.335.409-180 00-.316-.279l-.764.099a.267.326-180 00-.233.367l-.097 1.113c0 .67-.57.78-.68.91a.569.693 0 01-.651-.036l-.739-.684a.423.516-180 00-.437.113l-.513.707a.486.593-180 00.092.533l.638.807c.63.51-.1 1.66-.48 1.7l-.88.22a.34.415-180 00-.233.385l.083.935a.345.42-180 00.258.344l.922-.004c.32 0 .43.16.48.36a4.86 5.927 0 01.26.59.486.593 0 01.03.729l-.58.901a.423.516-180 00.092.533l.528.557a.33.403-180 00.433 0l.627-.83a.554.676 0 01.603-.166l.487.226c.22 0 .32.15.42.55l.18 1.07s-.02.26.3.29m1.82-6.35a1.91 2.33 0 01-1.71 2.43 1.774 2.163 0 01-1.98-1.88v-.21a1.823 2.223 0 011.65-2.37 1.847 2.252 0 012.05 1.98v.04" class="st14"/></g><g id="shape1284-132" transform="translate(22.325)"><path d="M.03 849.82h.26a2.916 3.556-180 001.98-1.06c.49-.59.68-1.62.68-3.47v-5.69a5.677 6.923 0 011.02-3.89 2.868 3.497 0 011.55-1.48c-1.71-.71-2.57-2.47-2.57-5.23v-5.81c0-1.86-.21-2.9-.68-3.5a3.033 3.698-180 00-2.03-1.07H0l.07-1.19h.25a4.015 4.896 0 012.63 1.43c.67.84.97 2.13.97 4.33v5.78c0 2.5.83 3.9 2.53 4.3l.39.08v1.71l-.38.09a2.25 2.744-180 00-1.64 1.19 4.773 5.82-180 00-.9 3.24v5.69c0 2.19-.28 3.47-.97 4.3a3.82 4.659 0 01-2.55 1.44H.17l-.14-1.19z" class="st15"/></g><g id="shape1285-134"><path d="M6.8 849.82h-.25a2.916 3.556 0 01-1.99-1.06c-.48-.59-.67-1.62-.67-3.47v-5.69a5.677 6.923-180 00-1.02-3.89 2.868 3.497-180 00-1.55-1.48c1.71-.71 2.57-2.47 2.57-5.23v-5.81c0-1.86.21-2.9.68-3.5a3.033 3.698 0 012.03-1.07h.24l-.07-1.19h-.25a4.015 4.896-180 00-2.63 1.43c-.67.84-.97 2.13-.97 4.33v5.78c0 2.48-.83 3.91-2.53 4.3l-.39.09v1.7l.38.09a2.25 2.744 0 011.64 1.19 4.773 5.82 0 01.9 3.24v5.69c0 2.19.28 3.47.97 4.3a3.82 4.659-180 002.55 1.44h.23l.13-1.19z" class="st15"/></g></g><g id="shape1320-136" transform="translate(953.839 -427.443)"><ellipse cx="15.624" cy="831.954" rx="15.624" ry="19.051" class="st17"/><text x="11.61" y="836.15" class="st18">B</text></g><g id="shape1325-139" transform="translate(719.027 -253.945)"><ellipse cx="15.624" cy="831.954" rx="15.624" ry="19.051" class="st17"/><text x="10.72" y="836.15" class="st18">D</text></g><g id="shape1373-142" transform="translate(719.027 -149.297)"><ellipse cx="15.624" cy="831.954" rx="15.624" ry="19.051" class="st17"/><text x="10.82" y="836.15" class="st18">G</text></g><g id="shape889-146" transform="translate(1015.55 -338.538)"><path d="M0 851.01h229.15V533.7H0v317.31z" class="st19"/></g><g id="shape1293-148" transform="translate(842.359 -587.222)"><path class="st20" d="M0 790.042h179.15v60.964H0z"/><text x="4" y="824.12" class="st21">Batch</text></g><g id="shape1291-151" transform="translate(606.821 -704.206)"><path class="st20" d="M0 801.206h449.305v49.799H0z"/><text x="4" y="817.81" fill="#000" font-family="Segoe UI" font-size="1.167em" font-weight="700">Windows Server Virtual Machine<tspan x="4" dy="1.843em" class="st23">Unisys ClearPath Forward MCP</tspan></text></g><g id="group1294-155" transform="translate(785.518 -610.005)"><g id="shape1295-156" transform="translate(30.916 -19.87)"><path d="M9.46 839.32a.476.46 0 01-.559.11c-.071.06-.191-.21-.261-.41l-.23-.81c-.12-.27-.4-.29-.48-.09l-.65.59c-.15.26.14 0 0 0l-.9.02-.59-.62c-.19-.21-.41-.15-.48.04l-.39.85a2.019 1.948 0 01-.3.5 4.027 3.886 0 01-.47-.22l-.82-.3c-.27-.15-.42 0-.43.25l.03.87a.663.64 0 01-.16.524 1.693 1.633 0 01-.49.046l-.83-.04c-.27 0-.41.12-.29.39l.38.81c.06.21.11.54.11.54a1.64 1.583 0 01-.52.18l-.84.37c-.21.06-.29.25-.09.46l.66.57a3.458 3.337 0 01.32.5 3.442 3.322 0 01-.37.45l-.64.57c-.15.12-.09.33.11.4l.82.31c.2.07.47.22.46.35a1.827 1.763 0 01-.09.46l-.45.78c-.08.2.05.34.26.41l.9-.02a1.356 1.309 0 01.62.09.518.5 0 01.047.47l-.047.94c0 .26.19.34.4.28l.78-.43a.699.674 0 01.626-.04c.074-.07.134.14.264.41l.23.81c.13.27.34.21.48.09l.67-.58a.74.714 0 01.57-.375l.33.345.59.63c.19.21.41.15.48-.05l.33-.92a1.45 1.399 0 01.36-.45 4.074 3.931 0 01.47.22l.82.31c.27.14.41 0 .42-.25l-.1-.81a1.47 1.419 0 01.17-.66h.56l.83.04c.27 0 .35-.19.29-.39l-.38-.81c-.06-.21-.11-.54-.11-.54a1.035.999 0 01.424-.25l.906-.29c.22-.06.29-.26.09-.47l-.66-.56a2.127 2.053 0 01-.32-.5c-.07-.07.15-.26.29-.39l.75-.61c.14-.12.08-.33-.12-.4l-.81-.3c-.2-.08-.52-.29-.47-.36-.07-.07 0-.26.1-.46l.45-.78c.07-.19-.06-.33-.34-.35l-.82-.03a3.815 3.681 0 01-.62-.1.89.86 0 01-.114-.54l.104-.86c0-.27-.19-.34-.39-.29l-.87.37zm-1.73 4.46a1.19 1.149 0 01-1.99 1.25 1.087 1.049 0 01.41-1.5 1.175 1.134 0 011.56.27l.02-.02z" class="st24"/><path d="M9.46 839.32a.476.46 0 01-.559.11c-.071.06-.191-.21-.261-.41l-.23-.81c-.12-.27-.4-.29-.48-.09l-.65.59c-.15.26.14 0 0 0l-.9.02-.59-.62c-.19-.21-.41-.15-.48.04l-.39.85a2.019 1.948 0 01-.3.5 4.027 3.886 0 01-.47-.22l-.82-.3c-.27-.15-.42 0-.43.25l.03.87a.663.64 0 01-.16.524 1.693 1.633 0 01-.49.046l-.83-.04c-.27 0-.41.12-.29.39l.38.81c.06.21.11.54.11.54a1.64 1.583 0 01-.52.18l-.84.37c-.21.06-.29.25-.09.46l.66.57a3.458 3.337 0 01.32.5 3.442 3.322 0 01-.37.45l-.64.57c-.15.12-.09.33.11.4l.82.31c.2.07.47.22.46.35a1.827 1.763 0 01-.09.46l-.45.78c-.08.2.05.34.26.41l.9-.02a1.356 1.309 0 01.62.09.518.5 0 01.047.47l-.047.94c0 .26.19.34.4.28l.78-.43a.699.674 0 01.626-.04c.074-.07.134.14.264.41l.23.81c.13.27.34.21.48.09l.67-.58a.74.714 0 01.57-.375l.33.345.59.63c.19.21.41.15.48-.05l.33-.92a1.45 1.399 0 01.36-.45 4.074 3.931 0 01.47.22l.82.31c.27.14.41 0 .42-.25l-.1-.81a1.47 1.419 0 01.17-.66h.56l.83.04c.27 0 .35-.19.29-.39l-.38-.81c-.06-.21-.11-.54-.11-.54a1.035.999 0 01.424-.25l.906-.29c.22-.06.29-.26.09-.47l-.66-.56a2.127 2.053 0 01-.32-.5c-.07-.07.15-.26.29-.39l.75-.61c.14-.12.08-.33-.12-.4l-.81-.3c-.2-.08-.52-.29-.47-.36-.07-.07 0-.26.1-.46l.45-.78c.07-.19-.06-.33-.34-.35l-.82-.03a3.815 3.681 0 01-.62-.1.89.86 0 01-.114-.54l.104-.86c0-.27-.19-.34-.39-.29l-.87.37m-1.73 4.46a1.19 1.149 0 01-1.99 1.25 1.087 1.049 0 01.41-1.5 1.175 1.134 0 011.56.27" class="st14"/></g><g id="shape1296-159"><path d="M28.15 826.69a.642.62-180 00.036-.814l-1.126-1.186a.756.73-180 00-.844-.035l-1.926 1.225c-.41-.27-.9-.62-1.31-.88l.59-2.27a.575.554-180 00-.31-.67l-1.41-.63a.518.5-180 00-.771.21l-1.359 1.99a4.933 4.76-180 00-1.51-.39l-.23-2.3a.58.56-180 00-.564-.6H15.81c-.25-.09-.52.14-.61.38l-.52 2.35a4.974 4.8-180 00-1.55.26l-1.17-2.09a.854.824-180 00-.75-.28l-1.56.58a.575.554-180 00-.367.64l.487 2.23c-.43.22-.87.61-1.31.84l-1.88-1.47a.549.53-180 00-.766.05l-1.144 1a.549.53-180 00-.119.73l1.349 1.93a6.905 6.663-180 00-1 1.35l-2.34-.75a.74.714-180 00-.782.375l-.648 1.365a.73.704-180 00.3.83l1.96 1.25c-.2.5-.22.97-.41 1.45l-2.39.23a.74.714-180 00-.518.63L0 835.69a.735.71-180 00.476.674l2.444.346a10 9.65-180 00.26 1.65L1 839.49a.518.5-180 00-.29.724l.52 1.416a.792.764-180 00.74.44l2.3-.53.8 1.24-1.55 1.81a.792.764-180 00.052.74l1.128 1.19a.642.62-180 00.756.115l2.074-1.295c.4.27.9.62 1.31.88l-.62 2.26a.575.554-180 00.305.67l1.495.72a.725.7-180 00.771-.215l1.279-1.915c.52 0 1.01.21 1.52.23l.15 2.39a.735.71-180 00.652.5l1.598.15a1.035.999-180 00.621-.544l.449-2.276c.6-.05 1.11-.2 1.71-.25l1.09 2a.58.56-180 00.75.28l1.47-.5a.688.664-180 00.46-.714l-.52-2.196a6.087 5.874-180 001.31-.84l1.88 1.47a.564.544-180 00.844.035l1.146-1.005a.564.544-180 00.041-.814l-1.351-1.936a4.229 4.08-180 001-1.35l2.34.75a.575.554-180 00.694-.295l.746-1.435a.854.824-180 00-.217-.744l-2.073-1.316a4.322 4.17-180 00.32-1.38l2.48-.3c.25-.07.51-.31.51-.47l.08-1.63a.58.56-180 00-.564-.6l-2.356-.43a9.224 8.901-180 00-.18-1.57l2-1.14a.616.594-180 00.378-.8l-.518-1.41a.518.5-180 00-.75-.28l-2.33.38-.76-1.25 1.44-1.74.02-.02zm-10.46 7.12a2.459 2.373 0 11-3.62 3.19 2.459 2.373 0 113.62-3.19z" class="st25"/><path d="M28.15 826.69a.642.62-180 00.036-.814l-1.126-1.186a.756.73-180 00-.844-.035l-1.926 1.225c-.41-.27-.9-.62-1.31-.88l.59-2.27a.575.554-180 00-.31-.67l-1.41-.63a.518.5-180 00-.771.21l-1.359 1.99a4.933 4.76-180 00-1.51-.39l-.23-2.3a.58.56-180 00-.564-.6H15.81c-.25-.09-.52.14-.61.38l-.52 2.35a4.974 4.8-180 00-1.55.26l-1.17-2.09a.854.824-180 00-.75-.28l-1.56.58a.575.554-180 00-.367.64l.487 2.23c-.43.22-.87.61-1.31.84l-1.88-1.47a.549.53-180 00-.766.05l-1.144 1a.549.53-180 00-.119.73l1.349 1.93a6.905 6.663-180 00-1 1.35l-2.34-.75a.74.714-180 00-.782.375l-.648 1.365a.73.704-180 00.3.83l1.96 1.25c-.2.5-.22.97-.41 1.45l-2.39.23a.74.714-180 00-.518.63L0 835.69a.735.71-180 00.476.674l2.444.346a10 9.65-180 00.26 1.65L1 839.49a.518.5-180 00-.29.724l.52 1.416a.792.764-180 00.74.44l2.3-.53.8 1.24-1.55 1.81a.792.764-180 00.052.74l1.128 1.19a.642.62-180 00.756.115l2.074-1.295c.4.27.9.62 1.31.88l-.62 2.26a.575.554-180 00.305.67l1.495.72a.725.7-180 00.771-.215l1.279-1.915c.52 0 1.01.21 1.52.23l.15 2.39a.735.71-180 00.652.5l1.598.15a1.035.999-180 00.621-.544l.449-2.276c.6-.05 1.11-.2 1.71-.25l1.09 2a.58.56-180 00.75.28l1.47-.5a.688.664-180 00.46-.714l-.52-2.196a6.087 5.874-180 001.31-.84l1.88 1.47a.564.544-180 00.844.035l1.146-1.005a.564.544-180 00.041-.814l-1.351-1.936a4.229 4.08-180 001-1.35l2.34.75a.575.554-180 00.694-.295l.746-1.435a.854.824-180 00-.217-.744l-2.073-1.316a4.322 4.17-180 00.32-1.38l2.48-.3c.25-.07.51-.31.51-.47l.08-1.63a.58.56-180 00-.564-.6l-2.356-.43a9.224 8.901-180 00-.18-1.57l2-1.14a.616.594-180 00.378-.8l-.518-1.41a.518.5-180 00-.75-.28l-2.33.38-.76-1.25 1.44-1.74m-10.44 7.1a2.459 2.373 0 11-3.62 3.19 2.459 2.373 0 113.62-3.19" class="st14"/></g><g id="shape1297-162" transform="translate(31.88 -1.698)"><path d="M17.71 841.19l-2.07-.22a.388.375 0 01-.331-.29 6.423 6.199-180 00-.569-1.47.471.455 0 01.041-.465l1.359-1.625a.414.4-180 00-.031-.53l-1.129-1.1a.414.4-180 00-.549-.03l-1.621 1.27a.42.405 0 01-.476.03 6.444 6.219-180 00-1.414-.59.424.41 0 01-.305-.345l-.225-1.935a.42.405-180 00-.42-.36H8.36a.435.42-180 00-.42.365l-.22 1.905a.388.375 0 01-.29.32 6.423 6.199-180 00-1.62.63.414.4 0 01-.471-.03l-1.479-1.15c-.29-.23-.52-.22-.68-.07l-1.14 1.09a.414.4-180 00-.031.53l1.321 1.58a.409.395 0 01.036.44 6.439 6.214-180 00-.606 1.5.43.415 0 01-.367.32l-2.023.22a.42.405-180 00-.373.405L0 843.14a.42.405-180 00.373.405l2.177.225a.404.39 0 01.336.27 6.429 6.204-180 00.524 1.14.455.44 0 01-.036.46l-1.344 1.61a.414.4-180 00.031.53l1.129 1.1a.414.4-180 00.549.03l1.651-1.29a.42.405 0 01.471-.03 6.444 6.219-180 001.359.57.42.405 0 01.305.34l.245 2.15a.414.4-180 00.409.355l1.601.005a.414.4-180 00.409-.355l.241-2.145a.404.39 0 01.3-.335 6.439 6.214-180 001.55-.615.42.405 0 01.471.03l1.689 1.3a.414.4-180 00.549-.03l1.131-1.1a.414.4-180 00.031-.53l-1.371-1.65a.42.405 0 01-.036-.45 6.439 6.214-180 00.476-1.08.42.405 0 01.347-.285l2.173-.235a.435.42-180 00.373-.405l.007-1.535a.435.42-180 00-.404-.405zm-8.42 4.02a3.282 3.167 0 113.28-3.17 3.282 3.167 0 01-3.28 3.17z" class="st26"/></g></g><g id="shape1379-164" transform="rotate(90.3 529.796 542.748)"><path d="M0 851.01h754.84" stroke="#7f7f7f" stroke-dasharray="3.5,2.5" stroke-linecap="round" stroke-linejoin="round" stroke-width=".5"/></g><g id="group1380-167" transform="rotate(.3 107997.985 19079.885)"><g id="shape1381-168" transform="translate(0 -1.202)"><path d="M.71 850.04h3.38v.97h4.13v-.97h5.38c.7 0 .7-.73.7-.73v-10.14c0-.73-.7-.73-.7-.73H.71c-.71 0-.71.73-.71.73v10.14c0 .73.71.73.71.73z" class="st28"/></g><g id="shape1382-170" transform="translate(2.151)"><path d="M12.67 842.55h1.53v-9.26c0-4.07-2.03-4.72-2.77-4.83h-7.8S0 827.95 0 833.11v17.9h12.67v-8.46z" fill="#68217a" stroke-linecap="round" stroke-linejoin="round" stroke-width=".75"/></g><g id="shape1383-172" transform="translate(12.476 -10.379)"><path d="M0 844.82c1.53 2.98 4.71 6.19 10.12 6.19h.1v-2.88c-4.39-.03-6.44-2.26-7.74-4.66-.99.37-2.48 1.35-2.48 1.35z" fill="#672b83" stroke-linecap="round" stroke-linejoin="round" stroke-width=".75"/></g><g id="shape1384-174" transform="translate(17.639)"><path d="M0 842.05v8.96h2.47v-8.96H0z" class="st28"/></g><g id="shape1385-176" transform="translate(39.364)"><path d="M0 842.05v8.96h2.47v-8.96H0z" class="st28"/></g><g id="shape1386-178" transform="translate(18.93)"><path d="M0 842.81v8.2h1.18v-8.2H0z" class="st31"/></g><g id="shape1387-180" transform="translate(40.547)"><path d="M0 842.81v8.2h1.29v-8.2H0z" class="st31"/></g><g id="shape1388-182" transform="translate(27.103)"><path d="M0 842.05v8.96h2.47v-8.96H0z" class="st28"/></g><g id="shape1389-184" transform="translate(28.286)"><path d="M1.29 842.81v8.2H0h1.29v-8.2z" class="st32"/></g><g id="shape1390-186" transform="translate(28.286)"><path d="M0 842.81v8.2h1.29v-8.2H0z" class="st31"/></g><g id="shape1391-188" transform="translate(2.151)"><path d="M0 848.82v2.19h.11v-2.19H0z" class="st33"/></g><g id="shape1392-190" transform="translate(2.151 -2.185)"><path d="M0 842.92v8.09h.11v-8.09H0z" fill="#0061a8" stroke-linecap="round" stroke-linejoin="round" stroke-width=".75"/></g><g id="shape1393-192" transform="translate(2.151)"><path d="M5.61 844.14v6.87h6.97v-2.69l-6.97-4.18zM0 840.74v10.27h3.19v-8.36L0 840.74z" fill="#591c68" stroke-linecap="round" stroke-linejoin="round" stroke-width=".75"/></g><g id="shape1394-194" transform="translate(13.229 -12.127)"><path d="M3.7 847.43c-.6-.69-1.67-.79-2.35-.18-.03.04-.03.04-.07.08L0 848.44l2.17 2.57 1.29-1.16c.03 0 .03-.03.06-.03.68-.62.78-1.66.18-2.39z" class="st36"/></g><g id="shape1395-196" transform="translate(5.378 -8.194)"><path d="M0 848.16v2.85h36.46v-2.85H0z" class="st28"/></g><g id="shape1396-198" transform="translate(18.93 -8.194)"><path d="M22.91 848.16H0v2.85h22.91v-2.85z" class="st31"/></g><g id="shape1397-200" transform="translate(13.874 -11.034)"><path d="M0 849.37v1.64h13.77v-1.64H0z" class="st37"/></g><g id="shape1398-202" transform="translate(13.874 -11.034)"><path d="M3.41 849.37H0v1.64h5.92v-1.27H4.23s-.53 0-.82-.37z" class="st33"/></g><g id="shape1399-204" transform="translate(17.1 -12.236)"><path d="M19.47 835.64v14.35s0 1.02-.99 1.02H.99s-.99 0-.99-1.02v-14.35s0-1.02.99-1.02h17.49s.99 0 .99 1.02z" class="st28"/></g><g id="shape1400-206" transform="translate(17.854 -12.236)"><path d="M20.11 835.64v14.35s0 1.02-.99 1.02H1.04s-1.04 0-1.04-1.02v-14.35s0-1.02 1.04-1.02h18.08s.99 0 .99 1.02z" class="st38"/></g><g id="shape1401-208" transform="translate(17.854 -12.236)"><path d="M20.11 836.69L0 848.95v1.04c0 1.02 1.04 1.02 1.04 1.02h18.08c.99 0 .99-1.02.99-1.02v-13.3z" class="st39"/></g><g id="shape1402-210" transform="translate(8.174 -22.615)"><path d="M3.44 847.14l-1.07-.4-.39.93H0l.04 3.34H2.4l-.03-1.92c.03-.6.2-1.67 1.07-1.95z" class="st36"/></g><g id="shape1403-212" transform="translate(30.33 -13.547)"><path d="M5.59 851.01H0v-3.83h5.59v3.83zm-5.44-.15h5.3v-3.53H.15v3.53z" class="st40"/></g><g id="shape1404-214" transform="translate(5.378)"><path d="M0 842.05v8.96h2.37v-8.96H0z" class="st28"/></g><g id="shape1405-216" transform="translate(6.56)"><path d="M0 842.81v8.2h1.29v-8.2H0z" class="st31"/></g><g id="shape1406-218" transform="translate(8.174 -21.632)"><path d="M2.37 850.03l-1.08.98-.93-.11-.36-.87 1.18-.55 1.19.55z" class="st36"/></g><g id="shape1407-220" transform="translate(8.174 -12.892)"><path d="M0 842.27l1.24 8.74 1.13-8.74H0z" class="st37"/></g><g id="shape1408-222" transform="translate(8.174 -12.892)"><path d="M2.37 842.27H0l1.24 8.74 1.13-8.74z" class="st32"/></g><g id="shape1409-224" transform="translate(8.82 -19.993)"><path d="M0 850.41l.15.6h.78l.25-.89-.6-.75-.58 1.04z" class="st41"/></g><g id="shape1410-226" transform="translate(8.712 -12.892)"><path d="M1.04 843.9h-.8L0 845.67l.75 5.34.65-5.02-.36-2.09z" class="st41"/></g><g id="shape1411-228" transform="translate(8.174 -20.32)"><path d="M1.29 849.64l-.83 1.37-.46-1.37v-.93l1.29.93z" class="st37"/></g><g id="shape1412-230" transform="translate(9.357 -20.32)"><path d="M0 849.64l.89 1.37.4-1.37v-.93l-1.29.93z" class="st37"/></g><g id="shape1413-232" transform="translate(11.83 -17.48)"><path d="M0 851.01l.73-1.1.67 1.1H0z" class="st37"/></g><g id="shape1414-234" transform="translate(12.584 -17.48)"><path d="M0 851.01l.75-1.1.65 1.1H0z" class="st37"/></g><g id="shape1415-236" transform="translate(12.368 -27.204)"><path d="M.5 850.79c0 .15-.14.22-.28.22-.15-.04-.22-.18-.22-.33.04-.15.18-.22.32-.22.11.04.22.18.18.33z" fill="#000" stroke-linecap="round" stroke-linejoin="round" stroke-width=".75"/></g><g id="shape1416-238" transform="translate(13.229 -25.674)"><path d="M1.31 848.06l.3 2.95-1.61-.26 1.31-2.69z" fill="#dd5900" stroke-linecap="round" stroke-linejoin="round" stroke-width=".75"/></g><g id="shape1417-240" transform="translate(7.851 -22.834)"><path d="M.81 842.27l-.77 4.44c-.04.21-.04.46-.04.68l1.13-.18c.1.72.32 1.33.56 1.86.56.9 1.68 1.79 3.97 1.94l.32-1.68.52-3.16.49-2.79-6.18-1.11z" class="st36"/></g><g id="shape1418-242" transform="translate(12.368 -27.204)"><path d="M.5 850.79c0 .15-.14.22-.28.22-.15-.04-.22-.18-.22-.33.04-.15.18-.22.32-.22.11.04.22.18.18.33z" class="st40"/></g><g id="shape1419-244" transform="translate(6.91 -25.059)"><path d="M4.88 842.74c-.42.15-.75.19-1.24.11-.39-.07-.68-.07-1.07.08-.36.11-.71.69-.78 1.23-1.07.26-1.57 1.63-1.57 1.63-.46 2.68-.14 4.03.43 4.64v.04c.71.79 1.78.47 1.78.47-.14-.4-.29-1.67-.29-1.67.78-1.09 1.03-2.39 1.03-2.39v-.04c.04-.03.11-.03.14-.07.65-.44 1-.22 1.74-.14.9.1 2.42-.22 2.89-1.09l.03-.04v-.03c.28-1.68-1.63-3.27-3.09-2.73z" class="st40"/></g><g id="shape1420-246" transform="translate(8.927 -25.893)"><path d="M.07 850.24H0s.11.38.22.77c-.07-.23-.11-.5-.15-.77z" fill="#001b44" stroke-linecap="round" stroke-linejoin="round" stroke-width=".75"/></g><g id="shape1421-248" transform="translate(8.515 -26.548)"><path d="M1.7 848.42c-.78-.15-1.49.32-1.67 1.03-.16.74.33 1.42 1.11 1.56l.56-2.59z" class="st36"/></g><g id="shape1422-250" transform="translate(9.787 -27.204)"><path d="M.22 849.69L0 851.01l.22-1.32z" class="st45"/></g><g id="shape1423-252" transform="translate(9.201 -27.204)"><path d="M.66 849.69c-.32 0-.57.22-.65.54-.07.35.15.71.51.78l.28-1.27v-.05H.66z" class="st45"/></g><g id="shape1424-254" transform="translate(25.06 -11.034)"><path d="M0 849.8v1.21h4.95v-1.21H0z" class="st38"/></g><g id="shape1425-256" transform="translate(25.92 -11.034)"><path d="M0 849.8v1.21h4.09v-1.21H0z" class="st39"/></g><g id="shape1426-258" transform="translate(32.373)"><path d="M5.11 837.44c2.32 2.63 1.85 8.1.96 13.57h.32c.86-5.54 1.35-11.05-1.07-13.79-1.14-1.29-2.89-1.84-5.17-1.69-.11 0-.15.07-.15.15 0 .1.07.14.15.14 2.24-.14 3.85.35 4.96 1.62z" class="st40"/></g></g><g id="shape1427-260" transform="rotate(.3 155537.03 60933.564)"><path class="st20" d="M0 832.545h202.103v18.461H0z"/><text x="4" y="858.14" class="st46">Azure</text></g><g id="shape1428-263" transform="rotate(.3 156305.982 5286.781)"><path class="st20" d="M0 832.545h257.359v18.461H0z"/><text x="4" y="858.14" class="st46">On-Premises</text></g><g id="group1429-266" transform="rotate(.3 146496.88 6956.915)"><g id="group1430-267"><g id="shape1431-268" transform="translate(4.117 -6.059)"><path d="M7.82 834.98l2.83 1.69-7.83 14.07L0 849.05l7.82-14.07zm2.84 1.96l2.82-1.7 7.83 14.07-2.83 1.7-7.82-14.07z" fill="#a67af4" stroke-linecap="butt" stroke-width="34"/></g><g id="shape1432-270" transform="translate(6.818 -2.685)"><path fill="#773adc" stroke-linecap="butt" stroke-width="34" d="M0 847.62h15.644v3.386H0z"/></g><g id="shape1433-272" transform="translate(10.967 -20.042)"><ellipse cx="3.969" cy="846.884" rx="3.969" ry="4.121" fill="url(#grad0-275)" stroke-linecap="butt" stroke-width="34"/></g><g id="shape1434-276" transform="translate(21.704)"><ellipse cx="3.969" cy="846.884" rx="3.969" ry="4.121" fill="url(#grad0-279)" stroke-linecap="butt" stroke-width="34"/></g><g id="shape1435-280"><ellipse cx="3.969" cy="846.884" rx="3.969" ry="4.121" fill="url(#grad0-283)" stroke-linecap="butt" stroke-width="34"/></g></g></g><g id="shape1436-284" transform="rotate(.3 108761.675 27079.278)"><path class="st20" d="M0 832.545h76.799v18.461H0z"/><text x="4" y="838.18" class="st52">On-Premises <tspan x="4" dy="1.2em" class="st53">User</tspan></text></g><g id="shape1437-288" transform="rotate(.3 145668.19 13231.53)"><path class="st20" d="M0 832.545h89.949v18.461H0z"/><text x="4" y="838.18" class="st52">Azure <tspan x="4" dy="1.2em" class="st53">ExpressRoute</tspan></text></g><g id="shape1438-292" transform="rotate(.3 153617.452 51315.72)"><path d="M9.76 850.93c.05-.05 3.97-.77 8.73-1.62 4.75-.85 8.67-1.58 8.71-1.62.07-.07-.47-.73-6.35-7.84-1.56-1.89-2.87-3.51-2.91-3.6-.05-.11.55-1.91 2.31-6.82 1.31-3.66 2.41-6.71 2.43-6.77.02-.06.08-.11.14-.11.11 0 16.22 28.29 16.16 28.39-.02.04-6.62.07-14.67.07-8.63 0-14.59-.04-14.55-.08zm-9.73-3.37c-.03-.08.33-.82.9-1.82.52-.92 2.74-4.82 4.93-8.67l3.99-7 5.63-4.8c3.1-2.64 5.68-4.81 5.74-4.81.06 0 .08.06.04.15-.29.79-12.35 26.89-12.46 26.97-.11.08-1.14.11-4.43.11-3.77 0-4.3-.02-4.34-.13z" fill="#2075b8" stroke-linecap="butt"/></g><g id="shape1439-294" transform="rotate(.3 98450.236 26253.327)"><path class="st20" d="M0 833.431h80.841v17.574H0z"/><text x="4" y="812.52" fill="#000" font-family="Segoe UI" font-size=".75em">Web Browsing<tspan x="4" dy="1.2em" class="st53">(TLS over Port </tspan><tspan x="4" dy="1.2em" class="st53">443)</tspan><tspan x="4" dy="2.4em" class="st53">Bastion Host</tspan><tspan x="4" dy="1.2em" class="st53">(TLS over Port </tspan><tspan x="4" dy="1.2em" class="st53">443)</tspan></text></g><g id="group1478-302" transform="translate(561.821 -709.005)"><g id="shape1479-303" transform="translate(2.955 -10.31)"><path d="M37.33 824.68v26.33H0v-26.33l37.39-.08-.06.08z" class="st56"/></g><g id="shape1480-305" transform="translate(7.177)"><path d="M20.26 842.98H8.68c1.37 4.83-.5 5.54-8.68 5.54v2.49h27.86v-2.49c-8.15 0-8.97-.71-7.6-5.54z" class="st57"/></g><g id="shape1481-307" transform="translate(0 -8.028)"><path d="M39.63 819.74H2.37c-1.31 0-2.37 1.16-2.37 2.48v26.41a2.37 2.37 0 002.37 2.38h37.26c1.29 0 2.59-1.06 2.59-2.38v-26.41c0-1.32-1.3-2.48-2.59-2.48zm-.63 3.3v24.69H3.25v-24.69l35.83-.08-.08.08z" class="st58"/></g><g id="shape1482-309" transform="translate(13.51 -24.085)"><path d="M7.6 842.13h-.16l-7.33 4.25c-.11 0-.11.08-.11.16s0 .16.11.24l7.41 4.23h.26l7.34-4.23c.08 0 .08-.08.08-.16s0-.16-.08-.24l-7.42-4.25h-.1z" class="st59"/></g><g id="shape1483-311" transform="translate(12.243 -13.521)"><path d="M.26 837.48H.11c-.11 0-.11.11-.11.19v8.74c0 .08 0 .16.11.24l7.59 4.28c0 .08.08.08.08.08.08 0 .08 0 .16-.08 0 0 .08-.08.08-.16v-8.74c0-.08-.08-.16-.08-.16l-7.6-4.39H.26z" class="st60"/></g><g id="shape1484-313" transform="translate(21.953 -13.521)"><path d="M7.39 837.48s-.08 0-.08.11l-7.15 4.28c-.08.08-.16.16-.16.24v8.66c0 .08.08.16.16.16 0 .08 0 .08.08.08 0 0 .08 0 .08-.08l7.2-4.28c.08-.08.08-.16.08-.24v-8.66c0-.08 0-.16-.08-.16-.05-.11-.05-.11-.13-.11z" class="st61"/></g></g><g id="shape1638-315" transform="translate(355.946 -37.626)"><path class="st20" d="M0 816.13h75.375v34.875H0z"/><text x="4" y="829.97" class="st62">Azure <tspan x="4" dy="1.2em" class="st53">Storage</tspan></text></g><g id="group1645-319" transform="translate(1209.82 -34.005)"><g id="group1646-320"><g id="shape1647-321" transform="translate(0 -21.682)"><path d="M25.55 849.81a1.37 1.37 0 01-1.48 1.2H1.48a1.37 1.37 0 01-1.48-1.2V816.5a1.37 1.37 0 011.48-1.2h22.59a1.37 1.37 0 011.48 1.2v33.31z" class="st63"/></g><g id="shape1648-323" transform="translate(3.76 -39.323)"><path d="M0 848.19a2.776 2.776 0 012.78-2.77h12.79a2.776 2.776 0 012.77 2.77 2.776 2.776 0 01-2.77 2.82H2.78A2.776 2.776 0 010 848.23v-.04zm0-8.22a2.776 2.776 0 012.78-2.81h12.79a2.776 2.776 0 012.77 2.81 2.776 2.776 0 01-2.77 2.78H2.78A2.776 2.776 0 010 839.97z" class="st64"/></g><g id="shape1649-325" transform="translate(4.78 -48.495)"><circle cx="1.863" cy="849.143" class="st65" r="1.863"/></g><g id="shape1650-327" transform="translate(4.78 -40.272)"><circle cx="1.863" cy="849.143" class="st65" r="1.863"/></g><g id="shape1651-329" transform="translate(28.184 -21.823)"><path d="M25.55 849.78a1.37 1.37 0 01-1.48 1.23H1.48A1.37 1.37 0 010 849.78V816.5a1.37 1.37 0 011.48-1.23h22.59a1.37 1.37 0 011.48 1.23v33.28z" class="st63"/></g><g id="shape1652-331" transform="translate(31.944 -39.323)"><path d="M0 848.05a2.776 2.776 0 012.78-2.77H15.5a2.776 2.776 0 012.77 2.77 2.776 2.776 0 01-2.77 2.96H2.78A2.776 2.776 0 010 848.23v-.18zm0-8.25a2.776 2.776 0 012.78-2.85H15.5a2.811 2.811 0 012.77 2.78 2.776 2.776 0 01-2.77 2.84H2.78A2.776 2.776 0 010 839.8z" class="st64"/></g><g id="shape1653-333" transform="translate(32.963 -48.671)"><circle cx="1.863" cy="849.143" class="st65" r="1.863"/></g><g id="shape1654-335" transform="translate(32.963 -40.413)"><circle cx="1.863" cy="849.143" class="st65" r="1.863"/></g><g id="shape1655-337" transform="translate(4.287)"><path d="M25.58 849.78a1.37 1.37 0 01-1.47 1.23H1.48A1.37 1.37 0 010 849.78V816.5a1.37 1.37 0 011.48-1.3h22.59a1.37 1.37 0 011.51 1.3v33.28z" fill="url(#grad0-340)" stroke-linecap="butt" stroke-width="34"/></g><g id="shape1656-341" transform="translate(8.047 -17.676)"><path d="M0 848.23a2.776 2.776 0 012.78-2.78H15.5a2.776 2.776 0 012.77 2.78h.04a2.811 2.811 0 01-2.78 2.78H2.78A2.776 2.776 0 010 848.23zm0-8.33a2.776 2.776 0 012.78-2.78H15.5a2.776 2.776 0 012.81 2.78 2.811 2.811 0 01-2.78 2.78H2.78A2.776 2.776 0 010 839.9z" class="st64"/></g><g id="shape1657-343" transform="translate(9.067 -26.848)"><circle cx="1.863" cy="849.143" class="st65" r="1.863"/></g><g id="shape1658-345" transform="translate(9.067 -18.59)"><circle cx="1.863" cy="849.143" class="st65" r="1.863"/></g><g id="shape1659-347" transform="translate(16.376 -5.07)"><path d="M43.36 841.35A9.734 9.734-180 0034.9 832a12.264 12.264-180 00-12.62-11.73 12.58 12.58-180 00-12.05 8.18A11.632 11.632-180 000 839.63a11.843 11.843-180 0012.23 11.35h20.84a1.406 1.406-180 00.53 0 9.84 9.84-180 009.76-9.63z" fill="url(#grad0-350)" stroke-linecap="butt" stroke-width="34"/></g></g></g><g id="shape1660-351" transform="translate(1047.82 -56.84)"><path class="st20" d="M0 819.84h162v31.165H0z"/><text x="10.55" y="834.64" class="st21">Azure Site Recovery (ASR)<tspan class="st23"> </tspan><tspan x="14.22" dy="1.2em" class="st23">to Secondary Azure Region </tspan><tspan x="60.07" dy="1.2em" class="st23">for DR Capabilities</tspan></text></g><g id="group1661-357" transform="translate(1070.32 -774.255)"><g id="shape1662-358" transform="translate(8.456 -8.563)"><path d="M17.59 849.45a2.17 2.17 0 11-2.17-2.16 2.168 2.168 0 012.17 2.16zm-9.12-2.15a2.17 2.17-180 102.17 2.17 2.168 2.168-180 00-2.17-2.17zm-6.94 0a2.17 2.17-180 102.18 2.17 2.17 2.17-180 00-2.18-2.16v-.01z" fill="url(#grad0-361)" stroke-linecap="butt" stroke-width="34"/></g><g id="shape1663-362" transform="translate(.007)"><path d="M11.58 849.59l-1.25 1.25a.562.562 0 01-.795 0L.33 841.66a1.125 1.125 0 010-1.58l1.24-1.25 10 9.97a.562.562 0 010 .797l.01-.007z" class="st65"/></g><g id="shape1664-364" transform="translate(0 -8.12)"><path d="M10.15 839.1l1.26 1.25a.562.562 0 010 .797l-9.83 9.863-1.25-1.25a1.125 1.125 0 010-1.59l9.03-9.06a.562.562 0 01.797 0l-.007-.01z" class="st69"/></g><g id="shape1665-366" transform="translate(21.976 -.004)"><path d="M10.17 838.83l1.24 1.24a1.125 1.125 0 010 1.59l-9.21 9.18a.562.562 0 01-.795 0L.16 849.59a.562.562 0 010-.795l10.01-9.965z" class="st65"/></g><g id="shape1666-368" transform="translate(22.156 -8.126)"><path d="M11.24 849.76l-1.25 1.25-9.83-9.86a.562.562 0 010-.795l1.26-1.255a.562.562 0 01.795 0l9.035 9.06a1.125 1.125 0 01-.01 1.59v.01z" class="st69"/></g></g><g id="shape1667-370" transform="translate(1113.05 -774.255)"><path class="st20" d="M0 830.755h159.768v20.25H0z"/><text x="4" y="844.48" class="st52">Virtual Network (10.0.0.0/24)</text></g><g id="shape1670-373" transform="translate(78.07 -522.255)"><circle cx="16.875" cy="834.13" class="st17" r="16.875"/><text x="13.1" y="838.33" class="st18">1</text></g><g id="shape1671-376" transform="translate(157.416 -137.835)"><circle cx="16.875" cy="834.13" class="st17" r="16.875"/><text x="13.1" y="838.33" class="st18">2</text></g><g id="shape1673-379" transform="translate(278.321 -38.505)"><circle cx="16.875" cy="834.13" class="st17" r="16.875"/><text x="13.1" y="838.33" class="st18">5</text></g><g id="shape1674-382" transform="translate(1012.42 -44.13)"><circle cx="16.875" cy="834.13" class="st17" r="16.875"/><text x="13.1" y="838.33" class="st18">6</text></g><g id="group1714-385" transform="translate(563.217 -115.005)"><g id="shape3-386"><path d="M0 851.01h691.6V261.69H0v589.32z" class="st19"/></g><g id="shape1081-388" transform="translate(500.693 -416.585)"><path class="st20" d="M0 790.042h179.15v60.964H0z"/><text x="4" y="817.52" class="st70">Files<tspan x="4" dy="1.2em" class="st23">CIFS, Sequential, Keyed</tspan><tspan class="st23">-</tspan><tspan class="st23">IO</tspan></text></g><g id="shape1121-394" transform="translate(212.495 -223.533)"><path d="M0 851.01h229.15V533.7H0v317.31z" class="st19"/></g><g id="shape1370-396" transform="translate(8.948 -14.739)"><path d="M0 851.01h191.07v-77.27H0v77.27z" class="st19"/></g><g id="group860-398" transform="translate(469.614 -481.865)"><g id="shape861-399"><path d="M22.23 816.76l-7.24.08-14.99.15v28.43c0 2.92 5.24 5.43 12.06 5.59h.26c.93 0 1.82-.07 2.67-.17a20.922 25.512-180 007.24-2.16c1.53-.92 2.42-2.06 2.42-3.26v-28.69l-2.42.03z" fill="#fff" stroke-linecap="butt" stroke-width=".75"/></g><g id="shape862-401" transform="translate(14.787 -.16)"><path d="M7.24 816.92v31.93A20.922 25.512 0 010 851.01V817l7.24-.08z" fill="#e5e5e5" stroke-linecap="butt" stroke-width=".75"/></g><g id="shape863-403"><path d="M0 816.99v28.43c0 2.92 5.22 5.43 12.06 5.59h.26c6.97-.1 12.33-2.64 12.33-5.59v-28.69L0 816.99z"/><path d="M0 816.99v28.43c0 2.92 5.22 5.43 12.06 5.59h.26c6.97-.1 12.33-2.64 12.33-5.59v-28.69" stroke="#556a8a" stroke-linecap="butt" stroke-width="1.5"/></g><g id="shape864-406" transform="translate(.031 -28.511)"><path d="M24.65 845.58c0 3-5.52 5.43-12.33 5.43-6.8 0-12.32-2.43-12.32-5.43 0-3 5.68-5.43 12.49-5.43 6.8 0 12.16 2.43 12.16 5.43z" fill="#bad80a" stroke="#556a8a" stroke-linecap="butt" stroke-width="1.5"/></g></g><g id="shape887-408" transform="translate(498.778 -469.677)"><path class="st20" d="M0 790.042h179.15v60.964H0z"/><text x="4" y="811.52" class="st70">DMS II<tspan x="4" dy="1.2em" class="st23">(Hierarchical Database System)</tspan><tspan x="4" dy="1.2em" class="st23">(XA Compliant)</tspan></text></g><g id="shape890-413" transform="translate(449.667 -518.693)"><path class="st20" d="M0 790.042h208.606v60.964H0z"/><text x="4" y="824.12" class="st21">File and DBMS Facilities</text></g><g id="shape902-416" transform="translate(468.739 -419.351)"><path d="M2.63 813.24h19.12c.36 0 .71.09 1.02.25l-2.49-2.38a1.15 1.15 0 00-.69-.29H4.62c-.21 0-.53.13-.7.29l-2.98 2.86h.03c.45-.46 1.02-.73 1.66-.73zm19.12.9H2.63c-1.45 0-2.63 1.44-2.63 3.21v30.45c0 1.77 1.18 3.21 2.63 3.21h19.12c1.45 0 2.62-1.44 2.62-3.21v-30.45c0-1.77-1.17-3.21-2.62-3.21zm1.16 33.66c0 .77-.52 1.42-1.16 1.42H2.63c-.64 0-1.16-.65-1.16-1.42v-30.45c0-.78.52-1.42 1.16-1.42h19.12c.64 0 1.16.64 1.16 1.42v30.45zM12.2 819.5c-4.74 0-8.56 4.69-8.56 10.46 0 3.01 1.03 5.71 2.69 7.62l1.7-2.06c.5-.63 1.18-.98 1.81-.98.35 0 .67.11.92.33.74.61.94 2.07.47 3.36l-.74 1.99c.54.13 1.12.2 1.71.2 4.72 0 8.55-4.68 8.55-10.46 0-5.77-3.83-10.46-8.55-10.46zm0 13.56c-1.41 0-2.54-1.38-2.54-3.1 0-1.71 1.13-3.1 2.54-3.1 1.39 0 2.53 1.39 2.53 3.1 0 1.72-1.14 3.1-2.53 3.1zm-1.83 2.49c-.14-.13-.33-.18-.53-.18-.43 0-.93.25-1.33.73l-1.67 2.03-2.75 3.31c-1.52 1.84-1.61 4.33-.19 5.53.42.35.86.52 1.33.52 1.1 0 2.21-.98 2.83-2.7l1.75-4.77.79-2.15c.33-.9.23-1.93-.23-2.32zm-4.06 9.79c-.39.69-1.16.88-1.72.39-.56-.48-.69-1.4-.3-2.08.39-.68 1.15-.85 1.7-.39.56.48.7 1.42.32 2.08zm-2.44-27.58c0-.56-.35-.99-.79-.99-.45 0-.8.43-.8.99 0 .53.35.95.8.95.44 0 .79-.42.79-.95zm17.53-.99c-.44 0-.78.43-.78.99 0 .53.34.95.78.95.45 0 .8-.42.8-.95 0-.56-.35-.99-.8-.99zm0 29.55c-.44 0-.78.45-.78.98 0 .54.34.98.78.98.45 0 .8-.44.8-.98 0-.53-.35-.98-.8-.98z" fill="#3f5765" stroke-linecap="round" stroke-linejoin="round" stroke-width=".75"/></g><g id="shape1119-418" transform="translate(279.141 -414.045)"><path class="st20" d="M0 790.042h179.15v60.964H0z"/><text x="4" y="816.92" class="st21">COMS<tspan x="4" dy="1.2em" class="st23">(Transaction Management)</tspan></text></g><g id="shape1122-422" transform="translate(209.829 -518.693)"><path class="st20" d="M0 790.042h179.15v60.964H0z"/><text x="4" y="824.12" class="st21">Application Servers</text></g><g id="group1127-425" transform="translate(221.759 -432)"><g id="shape1128-426" transform="translate(31.17 -21.323)"><path d="M9.54 838.46a.48.493 0 01-.564.118c-.076.072-.196-.218-.266-.438l-.23-.87c-.13-.29-.4-.3-.49-.09l-.65.63c-.15.28.14 0 0 0l-.91.03-.59-.67c-.2-.23-.41-.17-.49.04l-.39.92a2.035 2.09 0 01-.31.53 4.06 4.17 0 01-.47-.23l-.82-.33c-.28-.16-.42 0-.43.27l.02.93a.668.686 0 01-.162.563 1.706 1.753 0 01-.488.047l-.83-.04c-.28 0-.43.13-.3.42l.38.87c.06.22.11.58.11.58a1.654 1.7 0 01-.52.2l-.85.39c-.21.06-.29.27-.09.5l.67.6a3.486 3.58 0 01.32.54 3.47 3.564 0 01-.37.48l-.65.61c-.15.14-.09.35.12.44l.82.32c.2.08.47.24.47.38a1.842 1.892 0 01-.1.5l-.45.84c-.08.21.05.36.26.44l.91-.03a1.367 1.404 0 01.62.1.522.536 0 01.047.504l-.047 1.006c0 .28.2.36.41.3l.78-.46a.704.724 0 01.631-.043c.079-.077.129.143.269.433l.24.87c.12.29.33.23.48.1l.67-.62a.746.767 0 01.574-.402l.336.372.59.67c.2.23.41.16.49-.05l.33-.98a1.461 1.5 0 01.37-.49 4.107 4.218 0 01.47.24l.82.33c.27.15.42 0 .43-.27l-.1-.86a1.482 1.522 0 01.17-.71h.56l.83.04c.28 0 .36-.2.3-.42l-.38-.87c-.06-.22-.11-.58-.11-.58a1.044 1.072 0 01.42-.27l.92-.31c.22-.07.29-.28.09-.5l-.67-.61a2.145 2.203 0 01-.32-.53c-.07-.08.15-.28.3-.42l.75-.65c.14-.14.08-.36-.12-.44l-.82-.32c-.2-.08-.52-.31-.47-.38-.07-.07 0-.28.09-.5l.46-.83c.08-.21-.05-.36-.34-.38l-.83-.03a3.846 3.95 0 01-.62-.11.898.922 0 01-.115-.579l.105-.921c0-.29-.19-.37-.4-.31l-.87.39zm-1.75 4.79a1.2 1.233 0 01-2.01 1.34 1.096 1.126 0 01.42-1.61 1.185 1.217 0 011.57.29l.02-.02z" class="st24"/><path d="M9.54 838.46a.48.493 0 01-.564.118c-.076.072-.196-.218-.266-.438l-.23-.87c-.13-.29-.4-.3-.49-.09l-.65.63c-.15.28.14 0 0 0l-.91.03-.59-.67c-.2-.23-.41-.17-.49.04l-.39.92a2.035 2.09 0 01-.31.53 4.06 4.17 0 01-.47-.23l-.82-.33c-.28-.16-.42 0-.43.27l.02.93a.668.686 0 01-.162.563 1.706 1.753 0 01-.488.047l-.83-.04c-.28 0-.43.13-.3.42l.38.87c.06.22.11.58.11.58a1.654 1.7 0 01-.52.2l-.85.39c-.21.06-.29.27-.09.5l.67.6a3.486 3.58 0 01.32.54 3.47 3.564 0 01-.37.48l-.65.61c-.15.14-.09.35.12.44l.82.32c.2.08.47.24.47.38a1.842 1.892 0 01-.1.5l-.45.84c-.08.21.05.36.26.44l.91-.03a1.367 1.404 0 01.62.1.522.536 0 01.047.504l-.047 1.006c0 .28.2.36.41.3l.78-.46a.704.724 0 01.631-.043c.079-.077.129.143.269.433l.24.87c.12.29.33.23.48.1l.67-.62a.746.767 0 01.574-.402l.336.372.59.67c.2.23.41.16.49-.05l.33-.98a1.461 1.5 0 01.37-.49 4.107 4.218 0 01.47.24l.82.33c.27.15.42 0 .43-.27l-.1-.86a1.482 1.522 0 01.17-.71h.56l.83.04c.28 0 .36-.2.3-.42l-.38-.87c-.06-.22-.11-.58-.11-.58a1.044 1.072 0 01.42-.27l.92-.31c.22-.07.29-.28.09-.5l-.67-.61a2.145 2.203 0 01-.32-.53c-.07-.08.15-.28.3-.42l.75-.65c.14-.14.08-.36-.12-.44l-.82-.32c-.2-.08-.52-.31-.47-.38-.07-.07 0-.28.09-.5l.46-.83c.08-.21-.05-.36-.34-.38l-.83-.03a3.846 3.95 0 01-.62-.11.898.922 0 01-.115-.579l.105-.921c0-.29-.19-.37-.4-.31l-.87.39m-1.75 4.79a1.2 1.233 0 01-2.01 1.34 1.096 1.126 0 01.42-1.61 1.185 1.217 0 011.57.29" class="st14"/></g><g id="shape1129-429"><path d="M28.38 824.92a.647.665-180 00.037-.874l-1.137-1.286a.762.783-180 00-.85-.038l-1.94 1.318c-.41-.29-.91-.66-1.33-.94l.6-2.44a.58.595-180 00-.313-.718l-1.417-.682a.522.536-180 00-.778.225l-1.372 2.145a4.973 5.108-180 00-1.52-.42l-.23-2.47a.584.6-180 00-.569-.643l-1.621-.007c-.25-.09-.52.15-.62.42l-.52 2.52a5.015 5.151-180 00-1.57.27l-1.18-2.24a.861.884-180 00-.757-.3l-1.563.63a.58.595-180 00-.37.686l.49 2.384c-.44.24-.88.66-1.32.91l-1.89-1.58a.553.568-180 00-.772.054L4.71 822.91a.553.568-180 00-.12.783l1.35 2.087a6.961 7.15-180 00-1 1.44l-2.36-.81a.746.767-180 00-.788.402l-.652 1.468a.736.756-180 00.303.89l1.967 1.34c-.19.54-.22 1.05-.41 1.56l-2.41.24a.746.767-180 00-.522.675L0 834.57a.741.761-180 00.48.724l2.46.366a10.082 10.356-180 00.26 1.77l-2.19 1.22a.522.536-180 00-.292.777l.522 1.513a.798.82-180 00.746.472l2.324-.562.8 1.33-1.56 1.94a.798.82-180 00.052.793L4.74 846.2a.647.665-180 00.762.123l2.088-1.393c.41.28.91.66 1.32.94l-.62 2.42a.58.595-180 00.308.718l1.502.772a.73.75-180 00.778-.23l1.292-2.04c.52 0 1.02.22 1.53.24l.15 2.56a.741.761-180 00.658.536l1.622.164a1.044 1.072-180 00.62-.59l.45-2.43c.6-.06 1.12-.22 1.72-.28l1.1 2.15a.584.6-180 00.757.3l1.483-.54a.694.713-180 00.464-.767L22.2 846.5a6.137 6.304-180 001.32-.9l1.89 1.58a.569.584-180 00.85.038l1.16-1.078a.569.584-180 00.042-.874L26.1 843.19a4.263 4.38-180 001.01-1.45l2.36.81a.58.595-180 00.7-.316l.75-1.544a.861.884-180 00-.22-.799l-2.09-1.421a4.357 4.476-180 00.33-1.48l2.49-.32c.26-.07.52-.32.52-.5l.08-1.75a.584.6-180 00-.569-.643l-2.371-.467a9.3 9.552-180 00-.18-1.68l2.01-1.22a.621.638-180 00.38-.858l-.52-1.512a.522.536-180 00-.757-.3l-2.353.4-.76-1.34 1.45-1.86.02-.02zm-10.54 7.63a2.479 2.546 0 11-3.66 3.43 2.479 2.546 0 113.66-3.43z" class="st25"/><path d="M28.38 824.92a.647.665-180 00.037-.874l-1.137-1.286a.762.783-180 00-.85-.038l-1.94 1.318c-.41-.29-.91-.66-1.33-.94l.6-2.44a.58.595-180 00-.313-.718l-1.417-.682a.522.536-180 00-.778.225l-1.372 2.145a4.973 5.108-180 00-1.52-.42l-.23-2.47a.584.6-180 00-.569-.643l-1.621-.007c-.25-.09-.52.15-.62.42l-.52 2.52a5.015 5.151-180 00-1.57.27l-1.18-2.24a.861.884-180 00-.757-.3l-1.563.63a.58.595-180 00-.37.686l.49 2.384c-.44.24-.88.66-1.32.91l-1.89-1.58a.553.568-180 00-.772.054L4.71 822.91a.553.568-180 00-.12.783l1.35 2.087a6.961 7.15-180 00-1 1.44l-2.36-.81a.746.767-180 00-.788.402l-.652 1.468a.736.756-180 00.303.89l1.967 1.34c-.19.54-.22 1.05-.41 1.56l-2.41.24a.746.767-180 00-.522.675L0 834.57a.741.761-180 00.48.724l2.46.366a10.082 10.356-180 00.26 1.77l-2.19 1.22a.522.536-180 00-.292.777l.522 1.513a.798.82-180 00.746.472l2.324-.562.8 1.33-1.56 1.94a.798.82-180 00.052.793L4.74 846.2a.647.665-180 00.762.123l2.088-1.393c.41.28.91.66 1.32.94l-.62 2.42a.58.595-180 00.308.718l1.502.772a.73.75-180 00.778-.23l1.292-2.04c.52 0 1.02.22 1.53.24l.15 2.56a.741.761-180 00.658.536l1.622.164a1.044 1.072-180 00.62-.59l.45-2.43c.6-.06 1.12-.22 1.72-.28l1.1 2.15a.584.6-180 00.757.3l1.483-.54a.694.713-180 00.464-.767L22.2 846.5a6.137 6.304-180 001.32-.9l1.89 1.58a.569.584-180 00.85.038l1.16-1.078a.569.584-180 00.042-.874L26.1 843.19a4.263 4.38-180 001.01-1.45l2.36.81a.58.595-180 00.7-.316l.75-1.544a.861.884-180 00-.22-.799l-2.09-1.421a4.357 4.476-180 00.33-1.48l2.49-.32c.26-.07.52-.32.52-.5l.08-1.75a.584.6-180 00-.569-.643l-2.371-.467a9.3 9.552-180 00-.18-1.68l2.01-1.22a.621.638-180 00.38-.858l-.52-1.512a.522.536-180 00-.757-.3l-2.353.4-.76-1.34 1.45-1.86m-10.52 7.61a2.479 2.546 0 11-3.66 3.43 2.479 2.546 0 113.66-3.43" class="st14"/></g><g id="shape1130-432" transform="translate(32.14 -1.822)"><path d="M17.86 840.47l-2.09-.24a.391.402 0 01-.334-.31 6.476 6.652-180 00-.576-1.58.475.488 0 01.042-.498l1.368-1.742a.417.429-180 00-.031-.568l-1.129-1.172a.417.429-180 00-.553-.032l-1.647 1.362a.423.434 0 01-.48.032 6.497 6.673-180 00-1.42-.642.428.44 0 01-.308-.37l-.232-2.07a.423.434-180 00-.423-.386l-1.617-.004a.438.45-180 00-.423.391l-.217 2.049a.391.402 0 01-.292.343 6.476 6.652-180 00-1.638.677.417.429 0 01-.475-.032L3.89 834.44c-.29-.25-.52-.23-.68-.08l-1.15 1.18a.417.429-180 00-.031.568L3.36 837.8a.412.423 0 01.037.472 6.492 6.668-180 00-.617 1.608.433.445 0 01-.37.343l-2.03.237a.423.434-180 00-.376.434L0 842.56a.423.434-180 00.376.434l2.194.246a.407.418 0 01.34.29 6.481 6.657-180 00.52 1.23.46.472 0 01-.037.493L2.05 846.97a.417.429-180 00.031.568l1.139 1.182a.417.429-180 00.553.032l1.667-1.372a.423.434 0 01.475-.032 6.497 6.673-180 001.365.602.423.434 0 01.308.364l.242 2.306a.417.429-180 00.412.38l1.618.01a.417.429-180 00.412-.38l.248-2.3a.407.418 0 01.303-.36 6.492 6.668-180 001.557-.66.423.434 0 01.475.032l1.695 1.398a.417.429-180 00.553-.032l1.157-1.178a.417.429-180 00.031-.568L14.9 845.18a.423.434 0 01-.037-.482 6.492 6.668-180 00.487-1.158.423.434 0 01.35-.306l2.19-.244a.438.45-180 00.376-.434l-.006-1.656a.438.45-180 00-.407-.434zm-8.49 4.32a3.308 3.398 0 113.31-3.4 3.308 3.398 0 01-3.31 3.4z" class="st26"/></g></g><g id="shape1195-434" transform="translate(220.245 -302.071)"><path d="M0 851.01h208.31v-58.22H0v58.22z" class="st77"/><text x="81.85" y="812.9" class="st78">Application<tspan x="57.61" dy="1.2em" class="st53"> </tspan>(COBOL, C, PASCAL,<tspan x="63.92" dy="1.2em" class="st53">ALGOL, RPG, WFL)</tspan></text></g><g id="shape1197-439" transform="translate(220.245 -233.694)"><path d="M0 851.01h208.31v-58.22H0v58.22z" class="st77"/><text x="81.85" y="812.9" class="st78">Application<tspan x="57.61" dy="1.2em" class="st53"> </tspan>(COBOL, C, PASCAL,<tspan x="63.92" dy="1.2em" class="st53">ALGOL, RPG, WFL)</tspan></text></g><g id="shape1199-444" transform="translate(220.558 -387.373)"><path d="M0 851.01h24.37v-22.87H0v22.87z" class="st77"/><text x="7.73" y="841.97" class="st79">TX</text></g><g id="shape1200-447" transform="translate(253.888 -387.373)"><path d="M0 851.01h24.37v-22.87H0v22.87z" class="st77"/><text x="7.73" y="841.97" class="st79">TX</text></g><g id="shape1202-450" transform="translate(287.218 -387.373)"><path d="M0 851.01h24.37v-22.87H0v22.87z" class="st77"/><text x="7.73" y="841.97" class="st79">TX</text></g><g id="shape1203-453" transform="translate(320.804 -387.373)"><path d="M0 851.01h24.37v-22.87H0v22.87z" class="st77"/><text x="7.73" y="841.97" class="st79">TX</text></g><g id="shape1209-456" transform="translate(9.957 -221.761)"><path d="M0 851.01h191.07V641.65H0v209.36z" class="st19"/></g><g id="shape1210-458" transform="translate(7.291 -408.964)"><path class="st20" d="M0 790.042h179.15v60.964H0z"/><text x="4" y="824.12" class="st21">Integration Middleware</text></g><g id="shape1223-461" transform="translate(17.707 -364.217)"><path d="M0 851.01h174.98v-58.22H0v58.22z" class="st77"/><text x="4" y="812.9" class="st70">Loosely-coupled middleware<tspan x="4" dy="1.2em" class="st23">(Web Services, MOM: WebSphere </tspan><tspan x="4" dy="1.2em" class="st23">MQ, MSMQ)</tspan></text></g><g id="shape1231-466" transform="translate(17.707 -297.966)"><path d="M0 851.01h174.98v-58.22H0v58.22z" class="st77"/><text x="4" y="812.9" class="st70">Environment Integrators<tspan x="4" dy="1.2em" class="st23">(Java, .NET, Tuxedo, Packages such as </tspan><tspan x="4" dy="1.2em" class="st23">SAP</tspan><tspan class="st23">)</tspan></text></g><g id="shape1232-472" transform="translate(17.707 -233.295)"><path d="M0 851.01h174.98v-58.22H0v58.22z" class="st77"/><text x="4" y="812.9" class="st70">Other middleware<tspan x="4" dy="1.2em" class="st23">(Direct Data Access: ODBC, JDBC, JCA </tspan><tspan x="4" dy="1.2em" class="st23">Connectors, XML provider)</tspan></text></g><g id="shape1238-477" transform="translate(9.957 -462.307)"><path d="M0 851.01h191.07v-77.27H0v77.27z" class="st19"/></g><g id="shape1239-479" transform="translate(7.291 -517.423)"><path class="st20" d="M0 790.042h179.15v60.964H0z"/><text x="4" y="824.12" class="st21">Communications</text></g><g id="shape1240-482" transform="translate(17.707 -472.675)"><path d="M0 851.01h174.98v-58.22H0v58.22z" class="st77"/><text x="4" y="812.9" class="st70">Communications Standards<tspan x="4" dy="1.2em" class="st23">(IP v4, IP v6, SSL/TLS, Telnet, FTP, </tspan><tspan x="4" dy="1.2em" class="st23">Sockets)</tspan></text></g><g id="shape1292-487" transform="translate(212.513 -15.24)"><path d="M0 851.01h466.59v-195.6H0v195.6z" class="st19"/><text x="167.99" y="756.81" class="st21">MCP Operating System</text></g><g id="shape1323-490" transform="translate(8.948 -119.387)"><path d="M0 851.01h191.07v-77.27H0v77.27z" class="st19"/></g><g id="shape1324-492" transform="translate(16.239 -129.415)"><path d="M0 851.01h174.98v-58.22H0v58.22z" class="st77"/><text x="4" y="824.9" class="st78">Monitoring &amp; Operations Server</text></g><g id="shape1326-495" transform="translate(4.198 -175.27)"><path class="st20" d="M0 790.042h179.15v60.964H0z"/><text x="4" y="824.12" class="st21">Operations and Monitoring</text></g><g id="shape1371-498" transform="translate(4.782 -69.854)"><path class="st20" d="M0 790.042h179.15v60.964H0z"/><text x="4" y="824.12" class="st21">Printer Subsystem</text></g><g id="shape1372-501" transform="translate(16.239 -24.767)"><path d="M0 851.01h174.98v-58.22H0v58.22z" class="st77"/><text x="4" y="824.9" class="st78">Printer Subsystem</text></g></g><g id="shape1672-504" transform="translate(445.946 -441.255)"><circle cx="16.875" cy="834.13" class="st17" r="16.875"/><text x="13.1" y="838.33" class="st18">3</text></g><g id="shape1596-507" transform="translate(338.025 -713.505)"><path class="st20" d="M0 814.259h196.795v36.747H0z"/><text x="4" y="821.83" class="st80">Windows or Linux Virtual <tspan x="4" dy="1.2em" class="st53">Machine</tspan><tspan x="4" dy="1.2em" class="st23">Web Server</tspan></text></g><g id="group1611-512" transform="translate(291.821 -709.005)"><g id="shape1612-513" transform="translate(3.15 -11.806)"><path d="M39.79 820.86v30.15H0v-30.15l39.85-.09-.06.09z" class="st56"/></g><g id="shape1613-515" transform="translate(7.65)"><path d="M21.6 841.81H9.25c1.47 5.54-.53 6.35-9.25 6.35v2.85h29.7v-2.85c-8.69 0-9.56-.81-8.1-6.35z" class="st57"/></g><g id="shape1614-517" transform="translate(0 -9.194)"><path d="M42.24 815.2H2.53c-1.4 0-2.53 1.33-2.53 2.84v30.24c0 1.52 1.13 2.73 2.53 2.73h39.71c1.38 0 2.76-1.21 2.76-2.73v-30.24c0-1.51-1.38-2.84-2.76-2.84zm-.67 3.78v28.28H3.46v-28.28l38.19-.09-.08.09z" class="st58"/></g><g id="shape1615-519" transform="translate(14.4 -27.58)"><path d="M8.1 840.84h-.17l-7.82 4.87c-.11 0-.11.09-.11.18 0 .1 0 .19.11.28l7.91 4.84h.28l7.82-4.84c.08 0 .08-.09.08-.18 0-.1 0-.19-.08-.28l-7.91-4.87H8.1z" class="st59"/></g><g id="shape1616-521" transform="translate(13.05 -15.484)"><path d="M.28 835.52H.11c-.11 0-.11.12-.11.21v10.01c0 .09 0 .18.11.28l8.1 4.89c0 .1.09.1.09.1.08 0 .08 0 .17-.1 0 0 .08-.09.08-.18v-10.01c0-.09-.08-.18-.08-.18l-8.1-5.02H.28z" class="st60"/></g><g id="shape1617-523" transform="translate(23.4 -15.484)"><path d="M7.88 835.52s-.09 0-.09.12l-7.62 4.9c-.09.09-.17.18-.17.27v9.92c0 .09.08.18.17.18 0 .1 0 .1.08.1 0 0 .09 0 .09-.1l7.68-4.89c.08-.1.08-.19.08-.28v-9.92c0-.09 0-.18-.08-.18-.06-.12-.06-.12-.14-.12z" class="st61"/></g></g><g id="shape1669-525" transform="translate(462.821 -35.13)"><circle cx="16.875" cy="834.13" class="st17" r="16.875"/><text x="13.1" y="838.33" class="st18">4</text></g><g id="group1154-528" transform="translate(808.837 -601.005)"><g id="shape1155-529" transform="translate(2.418 -2.515)"><path d="M24.64 837.43a12.384 13.58 0 01-12.38 13.58h-.46a12.384 13.58 0 010-27.14h.46a12.384 13.58 0 0112.38 13.56z" fill="#ace8f9" stroke-linecap="butt" stroke-width=".75"/></g><g id="group1156-531"><g id="shape1157-532"><path class="st82" d="M0 818.815h29.355v32.191H0z"/></g><g id="shape1158-534" transform="translate(14.219 -2.515)"><path d="M12.84 837.43A12.384 13.58 0 01.46 851.01H0v-27.15h.46a12.384 13.58 0 0112.38 13.57z" fill="#d7f4fd" stroke-linecap="butt" stroke-width=".75"/></g><g id="shape1159-536" transform="translate(13.76 -9.023)"><path d="M0 835.13v9.76l5.57 6.12.65-.72-5.3-5.81v-9.35H0z" class="st15"/></g><g id="shape1160-538" transform="translate(1.835 -7.68)"><path d="M12.84 828.51a12.843 14.083-180 00-11.92 8.87v-6.61H0v7.54h7.34v-1H1.83a11.747 12.881 0 0111.01-7.8 11.925 13.078 0 11-11.34 17.1H.54a12.843 14.083-180 1012.3-18.1z" class="st15"/></g><g id="shape1161-540"><path class="st82" d="M0 818.815h29.355v32.191H0z"/></g></g></g><g id="group1298-542" transform="translate(811.111 -547.005)"><g id="shape1299-543" transform="translate(9.603)"><path d="M0 830.09v20.92h14.51v-20.92H0z" class="st84"/></g><g id="shape1300-545" transform="translate(3.065)"><path d="M0 830.09v20.92h6.95v-20.92H0z" fill="#a32b01" stroke-linecap="round" stroke-linejoin="round" stroke-width=".75"/></g><g id="shape1301-547" transform="translate(0 -14.91)"><path d="M7.65 851.01L0 850.86 2.36 845h7.65l-2.36 6.01z" class="st84"/></g><g id="shape1302-549" transform="translate(10.216 -15.103)"><path d="M17.16 850.96l-14.8.05L0 845.2h13.94l3.22 5.76z" fill="#fe4a0a" stroke-linecap="round" stroke-linejoin="round" stroke-width=".75"/></g></g><g id="shape1756-551" transform="translate(338.025 -628.005)"><path class="st20" d="M0 814.259h196.795v36.747H0z"/><text x="4" y="821.83" class="st80">Windows or Linux Virtual <tspan x="4" dy="1.2em" class="st53">Machine</tspan><tspan x="4" dy="1.2em" class="st23">Virtual Tape Server</tspan></text></g><g id="group1757-556" transform="translate(291.821 -623.505)"><g id="shape1758-557" transform="translate(3.15 -11.806)"><path d="M39.79 820.86v30.15H0v-30.15l39.85-.09-.06.09z" class="st56"/></g><g id="shape1759-559" transform="translate(7.65)"><path d="M21.6 841.81H9.25c1.47 5.54-.53 6.35-9.25 6.35v2.85h29.7v-2.85c-8.69 0-9.56-.81-8.1-6.35z" class="st57"/></g><g id="shape1760-561" transform="translate(0 -9.194)"><path d="M42.24 815.2H2.53c-1.4 0-2.53 1.33-2.53 2.84v30.24c0 1.52 1.13 2.73 2.53 2.73h39.71c1.38 0 2.76-1.21 2.76-2.73v-30.24c0-1.51-1.38-2.84-2.76-2.84zm-.67 3.78v28.28H3.46v-28.28l38.19-.09-.08.09z" class="st58"/></g><g id="shape1761-563" transform="translate(14.4 -27.58)"><path d="M8.1 840.84h-.17l-7.82 4.87c-.11 0-.11.09-.11.18 0 .1 0 .19.11.28l7.91 4.84h.28l7.82-4.84c.08 0 .08-.09.08-.18 0-.1 0-.19-.08-.28l-7.91-4.87H8.1z" class="st59"/></g><g id="shape1762-565" transform="translate(13.05 -15.484)"><path d="M.28 835.52H.11c-.11 0-.11.12-.11.21v10.01c0 .09 0 .18.11.28l8.1 4.89c0 .1.09.1.09.1.08 0 .08 0 .17-.1 0 0 .08-.09.08-.18v-10.01c0-.09-.08-.18-.08-.18l-8.1-5.02H.28z" class="st60"/></g><g id="shape1763-567" transform="translate(23.4 -15.484)"><path d="M7.88 835.52s-.09 0-.09.12l-7.62 4.9c-.09.09-.17.18-.17.27v9.92c0 .09.08.18.17.18 0 .1 0 .1.08.1 0 0 .09 0 .09-.1l7.68-4.89c.08-.1.08-.19.08-.28v-9.92c0-.09 0-.18-.08-.18-.06-.12-.06-.12-.14-.12z" class="st61"/></g></g><g id="shape1764-569" transform="translate(338.025 -540.255)"><path class="st20" d="M0 814.259h196.795v36.747H0z"/><text x="4" y="829.03" class="st80">Windows Virtual Machine<tspan x="4" dy="1.2em" class="st23">Automation OpCon</tspan></text></g><g id="group1765-573" transform="translate(291.821 -529.005)"><g id="shape1766-574" transform="translate(3.15 -11.806)"><path d="M39.79 820.86v30.15H0v-30.15l39.85-.09-.06.09z" class="st56"/></g><g id="shape1767-576" transform="translate(7.65)"><path d="M21.6 841.81H9.25c1.47 5.54-.53 6.35-9.25 6.35v2.85h29.7v-2.85c-8.69 0-9.56-.81-8.1-6.35z" class="st57"/></g><g id="shape1768-578" transform="translate(0 -9.194)"><path d="M42.24 815.2H2.53c-1.4 0-2.53 1.33-2.53 2.84v30.24c0 1.52 1.13 2.73 2.53 2.73h39.71c1.38 0 2.76-1.21 2.76-2.73v-30.24c0-1.51-1.38-2.84-2.76-2.84zm-.67 3.78v28.28H3.46v-28.28l38.19-.09-.08.09z" class="st58"/></g><g id="shape1769-580" transform="translate(14.4 -27.58)"><path d="M8.1 840.84h-.17l-7.82 4.87c-.11 0-.11.09-.11.18 0 .1 0 .19.11.28l7.91 4.84h.28l7.82-4.84c.08 0 .08-.09.08-.18 0-.1 0-.19-.08-.28l-7.91-4.87H8.1z" class="st59"/></g><g id="shape1770-582" transform="translate(13.05 -15.484)"><path d="M.28 835.52H.11c-.11 0-.11.12-.11.21v10.01c0 .09 0 .18.11.28l8.1 4.89c0 .1.09.1.09.1.08 0 .08 0 .17-.1 0 0 .08-.09.08-.18v-10.01c0-.09-.08-.18-.08-.18l-8.1-5.02H.28z" class="st60"/></g><g id="shape1771-584" transform="translate(23.4 -15.484)"><path d="M7.88 835.52s-.09 0-.09.12l-7.62 4.9c-.09.09-.17.18-.17.27v9.92c0 .09.08.18.17.18 0 .1 0 .1.08.1 0 0 .09 0 .09-.1l7.68-4.89c.08-.1.08-.19.08-.28v-9.92c0-.09 0-.18-.08-.18-.06-.12-.06-.12-.14-.12z" class="st61"/></g></g><g id="shape1772-586" transform="translate(338.025 -463.755)"><path class="st20" d="M0 814.259h196.795v36.747H0z"/><text x="4" y="829.03" class="st80">Windows Virtual Machine<tspan x="4" dy="1.2em" class="st23">Operations Server</tspan></text></g><g id="group1773-590" transform="translate(291.821 -452.505)"><g id="shape1774-591" transform="translate(3.15 -11.806)"><path d="M39.79 820.86v30.15H0v-30.15l39.85-.09-.06.09z" class="st56"/></g><g id="shape1775-593" transform="translate(7.65)"><path d="M21.6 841.81H9.25c1.47 5.54-.53 6.35-9.25 6.35v2.85h29.7v-2.85c-8.69 0-9.56-.81-8.1-6.35z" class="st57"/></g><g id="shape1776-595" transform="translate(0 -9.194)"><path d="M42.24 815.2H2.53c-1.4 0-2.53 1.33-2.53 2.84v30.24c0 1.52 1.13 2.73 2.53 2.73h39.71c1.38 0 2.76-1.21 2.76-2.73v-30.24c0-1.51-1.38-2.84-2.76-2.84zm-.67 3.78v28.28H3.46v-28.28l38.19-.09-.08.09z" class="st58"/></g><g id="shape1777-597" transform="translate(14.4 -27.58)"><path d="M8.1 840.84h-.17l-7.82 4.87c-.11 0-.11.09-.11.18 0 .1 0 .19.11.28l7.91 4.84h.28l7.82-4.84c.08 0 .08-.09.08-.18 0-.1 0-.19-.08-.28l-7.91-4.87H8.1z" class="st59"/></g><g id="shape1778-599" transform="translate(13.05 -15.484)"><path d="M.28 835.52H.11c-.11 0-.11.12-.11.21v10.01c0 .09 0 .18.11.28l8.1 4.89c0 .1.09.1.09.1.08 0 .08 0 .17-.1 0 0 .08-.09.08-.18v-10.01c0-.09-.08-.18-.08-.18l-8.1-5.02H.28z" class="st60"/></g><g id="shape1779-601" transform="translate(23.4 -15.484)"><path d="M7.88 835.52s-.09 0-.09.12l-7.62 4.9c-.09.09-.17.18-.17.27v9.92c0 .09.08.18.17.18 0 .1 0 .1.08.1 0 0 .09 0 .09-.1l7.68-4.89c.08-.1.08-.19.08-.28v-9.92c0-.09 0-.18-.08-.18-.06-.12-.06-.12-.14-.12z" class="st61"/></g></g><g id="shape1780-603" transform="translate(338.025 -380.505)"><path class="st20" d="M0 814.259h196.795v36.747H0z"/><text x="4" y="821.83" class="st80">Windows or Linux Virtual <tspan x="4" dy="1.2em" class="st53">Machine</tspan><tspan x="4" dy="1.2em" class="st23">Print Server</tspan></text></g><g id="group1781-608" transform="translate(291.821 -376.005)"><g id="shape1782-609" transform="translate(3.15 -11.806)"><path d="M39.79 820.86v30.15H0v-30.15l39.85-.09-.06.09z" class="st56"/></g><g id="shape1783-611" transform="translate(7.65)"><path d="M21.6 841.81H9.25c1.47 5.54-.53 6.35-9.25 6.35v2.85h29.7v-2.85c-8.69 0-9.56-.81-8.1-6.35z" class="st57"/></g><g id="shape1784-613" transform="translate(0 -9.194)"><path d="M42.24 815.2H2.53c-1.4 0-2.53 1.33-2.53 2.84v30.24c0 1.52 1.13 2.73 2.53 2.73h39.71c1.38 0 2.76-1.21 2.76-2.73v-30.24c0-1.51-1.38-2.84-2.76-2.84zm-.67 3.78v28.28H3.46v-28.28l38.19-.09-.08.09z" class="st58"/></g><g id="shape1785-615" transform="translate(14.4 -27.58)"><path d="M8.1 840.84h-.17l-7.82 4.87c-.11 0-.11.09-.11.18 0 .1 0 .19.11.28l7.91 4.84h.28l7.82-4.84c.08 0 .08-.09.08-.18 0-.1 0-.19-.08-.28l-7.91-4.87H8.1z" class="st59"/></g><g id="shape1786-617" transform="translate(13.05 -15.484)"><path d="M.28 835.52H.11c-.11 0-.11.12-.11.21v10.01c0 .09 0 .18.11.28l8.1 4.89c0 .1.09.1.09.1.08 0 .08 0 .17-.1 0 0 .08-.09.08-.18v-10.01c0-.09-.08-.18-.08-.18l-8.1-5.02H.28z" class="st60"/></g><g id="shape1787-619" transform="translate(23.4 -15.484)"><path d="M7.88 835.52s-.09 0-.09.12l-7.62 4.9c-.09.09-.17.18-.17.27v9.92c0 .09.08.18.17.18 0 .1 0 .1.08.1 0 0 .09 0 .09-.1l7.68-4.89c.08-.1.08-.19.08-.28v-9.92c0-.09 0-.18-.08-.18-.06-.12-.06-.12-.14-.12z" class="st61"/></g></g><g id="shape1788-621" transform="translate(273.821 -97.005)"><path d="M0 851.01h990V181.13H0v669.88z" stroke="#7f7f7f" stroke-dasharray="0,5.25" stroke-linecap="round" stroke-linejoin="round" stroke-width="1.75"/></g><g id="shape1789-623" transform="rotate(90 401.413 498.413)"><path d="M0 851.01h639" class="st88"/></g><g id="shape1790-626" transform="rotate(180 46.91 757.58)"><path d="M0 851.01h42.71" class="st88"/></g><g id="shape1791-629" transform="rotate(180 45.765 793.505)"><path d="M0 851.01h42.71" class="st88"/></g><g id="shape1792-632" transform="rotate(180 45.765 559.505)"><path d="M0 851.01h42.71" class="st88"/></g><g id="group1793-635" transform="translate(381.821 -159.936)"><g id="group1794-636"><g id="shape1795-637" transform="translate(13.409 -12.602)"><path fill="#7a7a7a" stroke-linecap="butt" stroke-width="12.24" d="M0 839.512h1.824v11.493H0z"/></g><g id="shape1796-639" transform="translate(11.645 -21.785)"><path d="M5.35 848.33a2.676 2.676 0 11-5.35 0 2.676 2.676 0 015.35 0z" class="st90"/></g><g id="shape1797-641" transform="translate(7.427 -5.913)"><path d="M6.53 843.71H3.61a3.649 3.649-180 00-.57 7.25 3.898 3.898 0 01.04-1.36 2.305 2.305 0 01.53-4.55h2.92a2.31 2.31 0 010 4.62h-.8a1.74 1.74-180 00-.17.73 1.69 1.69-180 00.11.61h.86a3.649 3.649-180 000-7.3z" fill="url(#grad0-644)" stroke-linecap="butt" stroke-width="12.24"/></g><g id="shape1798-645" transform="translate(11.037 -2.873)"><path d="M7.13 843.76a4.257 4.257 0 01.05.56 3.807 3.807 0 01-.08.79 2.305 2.305 0 01-.53 4.56H3.65a2.31 2.31 0 110-4.62h.8a1.715 1.715-180 00.17-.73 1.69 1.69-180 00-.11-.61h-.86a3.649 3.649-180 000 7.3h2.92a3.649 3.649-180 00.56-7.25z" fill="url(#grad0-648)" stroke-linecap="butt" stroke-width="12.24"/></g><g id="shape1799-649" transform="translate(0 -.532)"><path d="M9.07 850.2l-.67.67a.456.456 0 01-.645 0L.27 843.4a.918.918 0 010-1.295l.67-.665 8.13 8.11a.45.45 0 010 .645z" class="st93"/></g><g id="shape1800-651" transform="translate(0 -7.379)"><path d="M8.26 841.6l.75.75a.456.456 0 010 .645l-7.99 8.015-.75-.75a.918.918 0 010-1.295l7.34-7.365a.456.456 0 01.645 0z" class="st90"/></g><g id="shape1801-653" transform="translate(20.041)"><path d="M.14 850.19a.45.45 0 010-.645l8.13-8.105.67.68a.918.918 0 010 1.295l-7.49 7.455a.45.45 0 01-.645 0l-.665-.68z" class="st93"/></g><g id="shape1802-655" transform="translate(20.107 -6.844)"><path d="M1.52 841.6l7.36 7.37a.912.912 0 010 1.29l-.75.75-8-8.02a.468.468 0 010-.65l.75-.74a.456.456 0 01.645 0z" class="st90"/></g></g></g><g id="shape1803-657" transform="translate(291.821 -154.839)"><path class="st20" d="M0 814.34h85.5v36.666H0z"/><text x="15.8" y="827.34" class="st78">Private Link for <tspan x="19.18" dy="1.2em" class="st53">Azure Storage </tspan><tspan x="41" dy="1.2em" class="st53">Accounts</tspan></text></g><g id="shape1804-662" transform="rotate(90 574.664 788.666)"><path d="M0 851.01h454.5" class="st88"/></g><g id="shape1805-665" transform="rotate(180 256.16 532.505)"><path d="M0 851.01h42.71" class="st88"/></g><g id="shape1806-668" transform="rotate(180 256.16 759.755)"><path d="M0 851.01h94.5" class="st88"/></g><g id="shape1807-671" transform="rotate(180 288.765 660.755)"><path d="M0 851.01h42.71" class="st88"/></g><g id="shape1808-674" transform="rotate(90 457.664 928.166)"><path d="M0 851.01h216" class="st88"/></g><g id="shape1809-677" transform="rotate(180 267.41 768.755)"><path d="M0 851.01h117" class="st88"/></g><g id="shape1810-680" transform="translate(540.446 -35.13)"><path class="st20" d="M0 816.13h75.375v34.875H0z"/><text x="4" y="829.97" class="st62">Azure <tspan x="4" dy="1.2em" class="st53">Storage</tspan></text></g><g id="shape1818-684" transform="rotate(90 270.908 970.312)"><path d="M0 851.01h45.6" class="st88"/></g><g id="shape1819-687" transform="rotate(90 277.458 976.862)"><path d="M0 851.01h45.6" class="st88"/></g><g id="shape1820-690" transform="rotate(180 195.11 798.005)"><path d="M0 851.01h48.9" class="st88"/></g><g id="shape1821-693" transform="rotate(180 258.41 798.005)"><path d="M0 851.01h113.51" class="st88"/></g><g id="group1822-696" transform="translate(320.032 -43.005)"><g id="group1823-697"><g id="shape1824-698"><path d="M0 831.16h33.58v18.72a1.126 1.126 0 01-1.13 1.13H1.13A1.126 1.126 0 010 849.88v-18.72z" class="st94"/></g><g id="shape1825-702" transform="translate(0 -19.85)"><path d="M1.13 843.86h31.32a1.126 1.126 0 011.13 1.12v6.03H0v-6.05a1.126 1.126 0 011.13-1.1z" class="st95"/></g><g id="shape1826-704" transform="translate(4.049 -13.846)"><path d="M.51 847.17h24.44a.533.533 0 01.514.533l-.004 2.767a.533.533 0 01-.514.533L.51 851.01a.533.533 0 01-.514-.533L0 847.71a.533.533 0 01.514-.533z" class="st96"/></g><g id="shape1827-706" transform="translate(4.069 -8.315)"><path d="M.51 847.15h24.44a.533.533 0 01.514.533l-.004 2.787a.533.533 0 01-.514.533L.51 851.01a.533.533 0 01-.514-.533L0 847.79a.533.533 0 01.514-.632z" class="st97"/></g><g id="shape1828-708" transform="translate(4.069 -2.745)"><path d="M.51 847.15h24.44a.533.533 0 01.514.533l-.004 2.787a.533.533 0 01-.514.533L.51 851.01a.533.533 0 01-.514-.533L0 847.69a.533.533 0 01.514-.533z" class="st65"/></g></g></g><g id="group1829-710" transform="translate(501.244 -39.63)"><g id="group1830-711"><g id="shape1831-712"><path d="M0 831.16h33.58v18.72a1.126 1.126 0 01-1.13 1.13H1.13A1.126 1.126 0 010 849.88v-18.72z" class="st94"/></g><g id="shape1832-715" transform="translate(0 -19.85)"><path d="M1.13 843.86h31.32a1.126 1.126 0 011.13 1.12v6.03H0v-6.05a1.126 1.126 0 011.13-1.1z" class="st95"/></g><g id="shape1833-717" transform="translate(4.049 -13.846)"><path d="M.51 847.17h24.44a.533.533 0 01.514.533l-.004 2.767a.533.533 0 01-.514.533L.51 851.01a.533.533 0 01-.514-.533L0 847.71a.533.533 0 01.514-.533z" class="st96"/></g><g id="shape1834-719" transform="translate(4.069 -8.315)"><path d="M.51 847.15h24.44a.533.533 0 01.514.533l-.004 2.787a.533.533 0 01-.514.533L.51 851.01a.533.533 0 01-.514-.533L0 847.79a.533.533 0 01.514-.632z" class="st97"/></g><g id="shape1835-721" transform="translate(4.069 -2.745)"><path d="M.51 847.15h24.44a.533.533 0 01.514.533l-.004 2.787a.533.533 0 01-.514.533L.51 851.01a.533.533 0 01-.514-.533L0 847.69a.533.533 0 01.514-.533z" class="st65"/></g></g></g><g id="shape1836-723" transform="rotate(90 223.664 968.665)"><path d="M0 851.01h27" class="st88"/></g><g id="shape1837-726" transform="rotate(90 311.414 1056.416)"><path d="M0 851.01h27" class="st88"/></g><g id="shape1838-729" transform="rotate(180 289.91 456.003)"><path d="M0 851.01h510.71" class="st88"/></g><g id="group1839-732" transform="translate(588.776 -781.005)"><g id="group1840-733"><g id="shape1841-734"><path d="M25.61 832.3h-2v-6.15a11.588 11.588-180 00-2.97-7.81 9.553 9.553-180 00-7.3-3.33 9.553 9.553-180 00-7.38 3.33 11.428 11.428-180 00-2.97 7.81v6.15H1.38A1.396 1.396-180 000 833.67v15.96a1.396 1.396-180 001.38 1.38h24.23a1.416 1.416-180 001.39-1.38v-15.96a1.416 1.416-180 00-1.39-1.37zm-6.72 0H7.8v-6.25a6.342 6.342 0 011.73-4.28 5.006 5.006 0 013.75-1.72 5.066 5.066 0 013.77 1.72 6.362 6.362 0 01.64.85 5.983 5.983 0 011.22 3.41l-.02 6.27z" fill="url(#grad0-737)" stroke-linecap="butt" stroke-width="34"/></g><g id="shape1842-738" transform="translate(.519 -.419)"><path d="M25.15 832.72H.88a1.316 1.316-180 00-.88.34l26.03 17.95a1.336 1.336-180 00.5-1.04v-15.96a1.416 1.416-180 00-1.38-1.29z" class="st65"/></g><g id="shape1843-740" transform="translate(.04 -.419)"><path d="M1.4 832.72h24.25a1.396 1.396 0 01.9.34L.5 851.01a1.396 1.396 0 01-.5-1.04v-15.96a1.436 1.436 0 011.4-1.29z" fill="#fff" fill-opacity=".2" stroke-linecap="butt" stroke-width="34"/></g><g id="shape1844-742" transform="translate(3.43 -1.515)"><path d="M7.7 837.66l2.39-2.39a.14.14 0 01.18 0l2.37 2.39a.12.12 0 010 .2h-1.39a.12.12-180 00-.12.12v3.07a.12.12 0 01-.12.12H9.43a.1.1 0 01-.12-.12v-3.07a.14.14-180 00-.14-.12H7.78a.12.12 0 01-.08-.2zm4.92 10.93l-2.37 2.37a.12.12 0 01-.18 0l-2.37-2.37a.12.12 0 010-.2h1.39a.14.14-180 00.14-.12v-3.09a.12.12 0 01.12-.12h1.48a.12.12 0 01.12.12v3.09a.12.12-180 00.12.12h1.4a.128.128 0 01.16.2zm-9.37-3.09v-1.4a.12.12-180 00-.12-.12H.12a.12.12 0 01-.12-.12v-1.41a.12.12 0 01.12-.18h3.01a.12.12-180 00.12-.12v-1.4a.14.14 0 01.22-.1l2.37 2.4a.12.12 0 010 .16l-2.37 2.39a.14.14 0 01-.22-.1zm13.82-4.75v1.4a.12.12-180 00.12.12h3.07s.14 0 .14.12v1.47a.14.14 0 01-.14.12h-3.07a.12.12-180 00-.12.12v1.4a.12.12 0 01-.2.1l-2.37-2.39v-.16l2.37-2.4s.2-.02.2.1z" class="st96"/></g></g></g><g id="shape1845-744" transform="translate(620.321 -776.505)"><path class="st20" d="M0 824.005h107.354v27H0z"/><text x="4" y="841.11" class="st52">Peer VNet</text></g><g id="shape1846-747" transform="rotate(90 690.165 762.945)"><path d="M0 851.01h19.72" class="st88"/></g></svg>