<?xml version="1.0" encoding="UTF-8" standalone="no"?>
<!-- Created with Inkscape (http://www.inkscape.org/) -->

<svg
   xmlns:v="http://schemas.microsoft.com/visio/2003/SVGExtensions/"
   xmlns:dc="http://purl.org/dc/elements/1.1/"
   xmlns:cc="http://creativecommons.org/ns#"
   xmlns:rdf="http://www.w3.org/1999/02/22-rdf-syntax-ns#"
   xmlns:svg="http://www.w3.org/2000/svg"
   xmlns="http://www.w3.org/2000/svg"
   xmlns:sodipodi="http://sodipodi.sourceforge.net/DTD/sodipodi-0.dtd"
   xmlns:inkscape="http://www.inkscape.org/namespaces/inkscape"
   width="320"
   height="144"
   viewBox="0 0 320 144"
   id="svg10865"
   version="1.1"
   inkscape:version="0.91 r13725"
   sodipodi:docname="vpn.svg">
  <defs
     id="defs10867">
    <marker
       inkscape:stockid="Arrow2Lstart"
       orient="auto"
       refY="0.0"
       refX="0.0"
       id="marker13710"
       style="overflow:visible"
       inkscape:isstock="true">
      <path
         id="path13712"
         style="fill-rule:evenodd;stroke-width:0.625;stroke-linejoin:round;stroke:#5a5a5a;stroke-opacity:1;fill:#5a5a5a;fill-opacity:1"
         d="M 8.7185878,4.0337352 L -2.2072895,0.016013256 L 8.7185884,-4.0017078 C 6.9730900,-1.6296469 6.9831476,1.6157441 8.7185878,4.0337352 z "
         transform="scale(1.1) translate(1,0)" />
    </marker>
    <marker
       inkscape:stockid="Arrow2Lstart"
       orient="auto"
       refY="0.0"
       refX="0.0"
       id="Arrow2Lstart"
       style="overflow:visible"
       inkscape:isstock="true">
      <path
         id="path5278"
         style="fill-rule:evenodd;stroke-width:0.625;stroke-linejoin:round;stroke:#5a5a5a;stroke-opacity:1;fill:#5a5a5a;fill-opacity:1"
         d="M 8.7185878,4.0337352 L -2.2072895,0.016013256 L 8.7185884,-4.0017078 C 6.9730900,-1.6296469 6.9831476,1.6157441 8.7185878,4.0337352 z "
         transform="scale(1.1) translate(1,0)" />
    </marker>
    <marker
       inkscape:stockid="Arrow2Lend"
       orient="auto"
       refY="0.0"
       refX="0.0"
       id="Arrow2Lend"
       style="overflow:visible;"
       inkscape:isstock="true">
      <path
         id="path5281"
         style="fill-rule:evenodd;stroke-width:0.625;stroke-linejoin:round;stroke:#5a5a5a;stroke-opacity:1;fill:#5a5a5a;fill-opacity:1"
         d="M 8.7185878,4.0337352 L -2.2072895,0.016013256 L 8.7185884,-4.0017078 C 6.9730900,-1.6296469 6.9831476,1.6157441 8.7185878,4.0337352 z "
         transform="scale(1.1) rotate(180) translate(1,0)" />
    </marker>
  </defs>
  <sodipodi:namedview
     id="base"
     pagecolor="#ffffff"
     bordercolor="#666666"
     borderopacity="1.0"
     inkscape:pageopacity="0.0"
     inkscape:pageshadow="2"
     inkscape:zoom="1.979899"
     inkscape:cx="122.84414"
     inkscape:cy="-4.9551184"
     inkscape:document-units="px"
     inkscape:current-layer="layer7"
     showgrid="false"
     units="px"
     inkscape:window-width="1536"
     inkscape:window-height="897"
     inkscape:window-x="-8"
     inkscape:window-y="-8"
     inkscape:window-maximized="1" />
  <metadata
     id="metadata10870">
    <rdf:RDF>
      <cc:Work
         rdf:about="">
        <dc:format>image/svg+xml</dc:format>
        <dc:type
           rdf:resource="http://purl.org/dc/dcmitype/StillImage" />
        <dc:title />
      </cc:Work>
    </rdf:RDF>
  </metadata>
  <g
     inkscape:label="Layer 1"
     inkscape:groupmode="layer"
     id="layer1"
     transform="translate(0,-908.36216)" />
  <g
     inkscape:groupmode="layer"
     id="layer6"
     inkscape:label="vnet" />
  <g
     inkscape:groupmode="layer"
     id="layer5"
     inkscape:label="Layer 2" />
  <g
     inkscape:groupmode="layer"
     id="layer4"
     inkscape:label="on prem network">
    <g
       transform="translate(-29.728804,-35.305391)"
       id="Layer_1" />
  </g>
  <g
     inkscape:groupmode="layer"
     id="layer7"
     inkscape:label="VMs">
    <g
       transform="matrix(0.66238217,0,0,0.66238217,6.1842798,-17.792793)"
       id="Layer_1-0" />
    <g
       id="File_x2C__general"
       transform="translate(145.68329,-93.669594)">
      <title
         id="title6">Sheet.1071</title>
    </g>
    <g
       id="Message"
       transform="translate(145.68329,-93.669594)" />
    <g
       id="Monitor"
       transform="translate(145.68329,-93.669594)" />
    <g
       id="Monitor_running_apps"
       transform="translate(145.68329,-93.669594)" />
    <g
       id="Mouse"
       transform="translate(145.68329,-93.669594)" />
    <g
       id="Network_card"
       transform="translate(145.68329,-93.669594)" />
    <g
       id="Not_allowed"
       transform="translate(145.68329,-93.669594)" />
    <g
       id="Performance"
       transform="translate(145.68329,-93.669594)" />
    <g
       id="Phone"
       transform="translate(145.68329,-93.669594)" />
    <g
       id="Plug_and_play"
       transform="translate(145.68329,-93.669594)" />
    <g
       id="Powershell_script_file"
       transform="translate(145.68329,-93.669594)" />
    <g
       id="Protocol_stack"
       transform="translate(145.68329,-93.669594)" />
    <g
       id="Queue_x2C__general"
       transform="translate(145.68329,-93.669594)" />
    <g
       id="RMS_connector"
       transform="translate(145.68329,-93.669594)" />
    <g
       transform="translate(145.68329,-93.669594)"
       id="paths">
      <g
         id="Access_control" />
      <g
         id="Azure_active_directory" />
      <g
         id="Generic_code" />
      <g
         id="Laptop" />
      <g
         id="Load_balancer" />
      <g
         id="Lock_x2C__protected" />
    </g>
    <g
       transform="translate(145.68329,-93.669594)"
       id="symbols" />
    <g
       transform="translate(145.68329,-93.669594)"
       id="slices" />
    <g
       transform="matrix(0.66238217,0,0,0.66238217,-1.9359219,-18.697174)"
       id="Layer_1-0-8" />
    <g
       id="File_x2C__general-9"
       transform="translate(137.5631,-94.573988)">
      <title
         id="title6-5">Sheet.1071</title>
    </g>
    <g
       id="Message-5"
       transform="translate(137.5631,-94.573988)" />
    <g
       id="Monitor-9"
       transform="translate(137.5631,-94.573988)" />
    <g
       id="Monitor_running_apps-8"
       transform="translate(137.5631,-94.573988)" />
    <g
       id="Mouse-2"
       transform="translate(137.5631,-94.573988)" />
    <g
       id="Network_card-4"
       transform="translate(137.5631,-94.573988)" />
    <g
       id="Not_allowed-1"
       transform="translate(137.5631,-94.573988)" />
    <g
       id="Performance-1"
       transform="translate(137.5631,-94.573988)" />
    <g
       id="Phone-2"
       transform="translate(137.5631,-94.573988)" />
    <g
       id="Plug_and_play-4"
       transform="translate(137.5631,-94.573988)" />
    <g
       id="Powershell_script_file-4"
       transform="translate(137.5631,-94.573988)" />
    <g
       id="Protocol_stack-4"
       transform="translate(137.5631,-94.573988)" />
    <g
       id="Queue_x2C__general-4"
       transform="translate(137.5631,-94.573988)" />
    <g
       id="RMS_connector-7"
       transform="translate(137.5631,-94.573988)" />
    <g
       id="shape22-42"
       v:mID="22"
       v:groupContext="shape"
       transform="matrix(1.2499987,0,0,1.2499987,209.35401,-3.4518478)">
      <title
         id="title11608">text10286</title>
      <desc
         id="desc11610">Azure Virtual Network</desc>
      <v:textBlock
         v:margins="rect(0,0,0,0)" />
      <v:textRect
         cx="38.4895"
         cy="103.5"
         width="76.98"
         height="9" />
      <rect
         x="0"
         y="99"
         width="76.978897"
         height="9"
         class="st12"
         id="rect11612"
         style="fill:none;stroke:none;stroke-width:0.75;stroke-linecap:butt" />
      <text
         x="-0"
         y="105.75"
         class="st13"
         v:langID="1033"
         id="text11614"
         style="font-size:7.50009584px;font-family:Arial;fill:#0090c6"><v:paragraph />
<v:tabList />
Azure Virtual Network</text>
    </g>
    <g
       id="shape2-2"
       v:mID="2"
       v:groupContext="shape"
       transform="matrix(1.788207,0,0,1.3249906,215.15118,-25.515544)">
      <title
         id="title11510">rect4743</title>
      <rect
         x="0"
         y="28.4501"
         width="47.3186"
         height="79.549896"
         class="st1"
         id="rect11512"
         style="fill:#e4faff;stroke:#3a99c6;stroke-width:0.27230299;stroke-linecap:butt" />
    </g>
    <g
       id="group4-6"
       transform="matrix(1.2499987,0,0,1.2499987,217.78222,-107.72356)"
       v:mID="4"
       v:groupContext="group">
      <title
         id="title11520">g5181</title>
      <g
         id="shape5-7"
         v:mID="5"
         v:groupContext="shape"
         transform="translate(10.0836,0)">
        <title
           id="title11523">path3</title>
        <path
           d="m 4.59,103.94 c 0.14,-0.14 0.11,-0.38 0,-0.53 l -0.71,-0.7 -3.17,-3.09 c -0.15,-0.15 -0.36,-0.15 -0.5,0 -0.15,0.15 -0.18,0.38 0,0.53 l 3.32,3.26 c 0.14,0.15 0.14,0.39 0,0.53 l -3.38,3.38 c -0.15,0.15 -0.15,0.39 0,0.53 0.14,0.15 0.38,0.12 0.5,0 l 3.14,-3.11 c 0,0 0,0 0.03,-0.03 l 0.77,-0.77 0,0 z"
           class="st3"
           id="path11525"
           inkscape:connector-curvature="0"
           style="fill:#3999c6;stroke:none;stroke-width:0.77554101;stroke-linecap:butt" />
      </g>
      <g
         id="shape6-9"
         v:mID="6"
         v:groupContext="shape">
        <title
           id="title11528">path5</title>
        <path
           d="m 0.15,103.94 c -0.15,-0.14 -0.12,-0.38 0,-0.53 l 0.7,-0.7 3.18,-3.09 c 0.14,-0.15 0.35,-0.15 0.5,0 0.14,0.15 0.17,0.38 0,0.53 l -3.27,3.26 c -0.14,0.15 -0.14,0.39 0,0.53 l 3.33,3.38 c 0.14,0.15 0.14,0.39 0,0.53 -0.15,0.15 -0.39,0.12 -0.5,0 l -3.21,-3.08 c 0,0 0,0 -0.03,-0.03 l -0.7,-0.8 0,0 z"
           class="st3"
           id="path11530"
           inkscape:connector-curvature="0"
           style="fill:#3999c6;stroke:none;stroke-width:0.77554101;stroke-linecap:butt" />
      </g>
      <g
         id="shape7-11"
         v:mID="7"
         v:groupContext="shape"
         transform="translate(3.41018,-3.35139)">
        <title
           id="title11533">path7</title>
        <path
           d="M 2,107.03 C 2,107.59 1.53,108 1.03,108 0.53,108 0,107.53 0,107.03 c 0,-0.5 0.41,-0.97 1.03,-0.97 0.59,0 0.97,0.47 0.97,0.97 z"
           class="st4"
           id="path11535"
           inkscape:connector-curvature="0"
           style="fill:#7fba00;stroke:none;stroke-width:0.77554101;stroke-linecap:butt" />
      </g>
      <g
         id="shape8-13"
         v:mID="8"
         v:groupContext="shape"
         transform="translate(6.3794,-3.35139)">
        <title
           id="title11538">path9</title>
        <path
           d="M 2,107.03 C 2,107.59 1.53,108 1.03,108 0.53,108 0,107.53 0,107.03 c 0,-0.5 0.47,-0.97 1.03,-0.97 0.56,0 0.97,0.47 0.97,0.97 z"
           class="st4"
           id="path11540"
           inkscape:connector-curvature="0"
           style="fill:#7fba00;stroke:none;stroke-width:0.77554101;stroke-linecap:butt" />
      </g>
      <g
         id="shape9-15"
         v:mID="9"
         v:groupContext="shape"
         transform="translate(9.4368,-3.35139)">
        <title
           id="title11543">circle11</title>
        <circle
           cx="0.97013801"
           cy="107.03"
           class="st4"
           id="ellipse11545"
           r="0.97013801"
           style="fill:#7fba00;stroke:none;stroke-width:0.77554101;stroke-linecap:butt" />
      </g>
    </g>
    <g
       transform="matrix(0.79850972,0,0,0.79850972,179.94969,20.404462)"
       id="Ibiza_Symbols">
      <g
         id="g6">
        <path
           style="fill:#0078d7"
           inkscape:connector-curvature="0"
           d="m 131,71.7 -33.1,0 c -1.1,0 -2,1 -2,2.1 l 0,23.1 c 0,1.1 0.9,2.1 2,2.1 l 11.3,0 c 1.2,4.3 -0.4,4.9 -7.6,4.9 l 0,2.3 9.1,0 6.7,0 8.6,0 0,-2.3 c -7.2,0 -7.9,-0.6 -6.7,-4.9 l 11.7,0 c 1.1,0 2.3,-1 2.3,-2.1 l 0,-23.1 c 0,-1.1 -1.2,-2.1 -2.3,-2.1 z m -0.6,2.8 0,21.6 -31.7,0 0,-21.6 31.7,0 0,0 z"
           id="path8-3" />
        <g
           id="group975-1984_1_"
           transform="translate(1176.51,-2762.63)">
          <title
             id="title11">Sheet.975</title>
          <g
             id="shape976-1985_2_"
             transform="translate(0.8685,-17.652)">
            <title
               id="title14">Sheet.976</title>
            <path
               style="fill:#0078d7"
               inkscape:connector-curvature="0"
               d="m -1057.4,2861.6 -5.8,-3.3 -5.8,3.3 0,0.1 5.8,3.3 5.8,-3.4 0,0 z"
               id="path16" />
          </g>
          <g
             id="shape977-1987_1_"
             transform="translate(15.8925,0)">
            <title
               id="title19">Sheet.977</title>
            <path
               style="fill:#0078d7"
               inkscape:connector-curvature="0"
               d="m -1077.6,2848.3 0,6.6 5.8,-3.3 0,-6.6 -5.8,3.3 z"
               id="path21" />
          </g>
          <g
             id="shape978-1989_1_">
            <title
               id="title24">Sheet.978</title>
            <path
               style="fill:#0078d7"
               inkscape:connector-curvature="0"
               d="m -1062.9,2848.3 -5.8,-3.3 0,6.6 5.8,3.3 0,-6.6 z"
               id="path26" />
          </g>
        </g>
      </g>
    </g>
    <g
       id="g12829"
       transform="matrix(0.79850972,0,0,0.79850972,179.94969,-31.003214)">
      <g
         id="g12831">
        <path
           id="path12833"
           d="m 131,71.7 -33.1,0 c -1.1,0 -2,1 -2,2.1 l 0,23.1 c 0,1.1 0.9,2.1 2,2.1 l 11.3,0 c 1.2,4.3 -0.4,4.9 -7.6,4.9 l 0,2.3 9.1,0 6.7,0 8.6,0 0,-2.3 c -7.2,0 -7.9,-0.6 -6.7,-4.9 l 11.7,0 c 1.1,0 2.3,-1 2.3,-2.1 l 0,-23.1 c 0,-1.1 -1.2,-2.1 -2.3,-2.1 z m -0.6,2.8 0,21.6 -31.7,0 0,-21.6 31.7,0 0,0 z"
           inkscape:connector-curvature="0"
           style="fill:#0078d7" />
        <g
           transform="translate(1176.51,-2762.63)"
           id="g12835">
          <title
             id="title12837">Sheet.975</title>
          <g
             transform="translate(0.8685,-17.652)"
             id="g12839">
            <title
               id="title12841">Sheet.976</title>
            <path
               id="path12843"
               d="m -1057.4,2861.6 -5.8,-3.3 -5.8,3.3 0,0.1 5.8,3.3 5.8,-3.4 0,0 z"
               inkscape:connector-curvature="0"
               style="fill:#0078d7" />
          </g>
          <g
             transform="translate(15.8925,0)"
             id="g12845">
            <title
               id="title12847">Sheet.977</title>
            <path
               id="path12849"
               d="m -1077.6,2848.3 0,6.6 5.8,-3.3 0,-6.6 -5.8,3.3 z"
               inkscape:connector-curvature="0"
               style="fill:#0078d7" />
          </g>
          <g
             id="g12851">
            <title
               id="title12853">Sheet.978</title>
            <path
               id="path12855"
               d="m -1062.9,2848.3 -5.8,-3.3 0,6.6 5.8,3.3 0,-6.6 z"
               inkscape:connector-curvature="0"
               style="fill:#0078d7" />
          </g>
        </g>
      </g>
    </g>
    <g
       id="g14031"
       transform="translate(-20.120202,-0.90438784)">
      <text
         style="font-size:9.37510967px;font-family:Arial;fill:#0090c6"
         id="text12792"
         v:langID="1033"
         class="st13"
         y="129.63991"
         x="30.18194">On-premises network<v:paragraph />
<v:tabList />
</text>
      <rect
         y="13.280135"
         x="29.007198"
         height="105.14171"
         width="92.514793"
         id="rect11496"
         style="fill:#000000;fill-opacity:0.07692309;stroke:#4c4c4c;stroke-width:0.61416751;stroke-miterlimit:4;stroke-dasharray:none;stroke-opacity:1" />
      <g
         transform="translate(-6,-6)"
         id="g12778">
        <path
           id="path11491"
           d="m 65.764656,61.395884 -21.030841,0 c -0.69891,0 -1.270746,0.635373 -1.270746,1.334283 l 0,14.677111 c 0,0.69891 0.571836,1.334283 1.270746,1.334283 l 7.179712,0 c 0.762447,2.732103 -0.254149,3.113327 -4.828833,3.113327 l 0,1.461357 5.781892,0 4.256998,0 5.464206,0 0,-1.461357 c -4.574684,0 -5.019445,-0.381224 -4.256998,-3.113327 l 7.433864,0 c 0.69891,0 1.461358,-0.635373 1.461358,-1.334283 l 0,-14.677111 c 0,-0.69891 -0.762448,-1.334283 -1.461358,-1.334283 z m -0.381223,1.779044 0,13.724052 -20.14132,0 0,-13.724052 20.14132,0 0,0 z"
           inkscape:connector-curvature="0"
           style="fill:#000000;fill-opacity:1" />
        <g
           id="g12774">
          <path
             id="path8"
             d="m 92.472783,36.394609 -21.030841,0 c -0.69891,0 -1.270746,0.635373 -1.270746,1.334283 l 0,14.677111 c 0,0.69891 0.571836,1.334283 1.270746,1.334283 l 7.179712,0 c 0.762447,2.732103 -0.254149,3.113327 -4.828833,3.113327 l 0,1.461357 5.781892,0 4.256998,0 5.464206,0 0,-1.461357 c -4.574684,0 -5.019445,-0.381224 -4.256998,-3.113327 l 7.433864,0 c 0.69891,0 1.461358,-0.635373 1.461358,-1.334283 l 0,-14.677111 c 0,-0.69891 -0.762448,-1.334283 -1.461358,-1.334283 z m -0.381223,1.779044 0,13.724052 -20.14132,0 0,-13.724052 20.14132,0 0,0 z"
             inkscape:connector-curvature="0"
             style="fill:#000000;fill-opacity:1" />
          <path
             id="path11493"
             d="m 92.472783,86.39716 -21.030841,0 c -0.69891,0 -1.270746,0.635373 -1.270746,1.334283 l 0,14.677107 c 0,0.69891 0.571836,1.33429 1.270746,1.33429 l 7.179712,0 c 0.762447,2.7321 -0.254149,3.11332 -4.828833,3.11332 l 0,1.46136 5.781892,0 4.256998,0 5.464206,0 0,-1.46136 c -4.574684,0 -5.019445,-0.38122 -4.256998,-3.11332 l 7.433864,0 c 0.69891,0 1.461358,-0.63538 1.461358,-1.33429 l 0,-14.677107 c 0,-0.69891 -0.762448,-1.334283 -1.461358,-1.334283 z m -0.381223,1.779044 0,13.724056 -20.14132,0 0,-13.724056 20.14132,0 0,0 z"
             inkscape:connector-curvature="0"
             style="fill:#000000;fill-opacity:1" />
        </g>
      </g>
      <g
         transform="matrix(0.76688787,0,0,0.76688787,-46.161344,107.938)"
         id="g13011">
        <path
           id="path24"
           d="m 204.98329,-53.469594 -35.2,0 c -1,0 -1.9,0.6 -1.9,1.4 l 0,7.1 c 0,0.8 0.8,1.4 1.9,1.4 l 35.2,0 c 1,0 1.9,-0.6 1.9,-1.4 l 0,-7.1 c 0,-0.7 -0.9,-1.4 -1.9,-1.4 z m -31.1,7 c -1.1,0 -2,-0.9 -2,-2 0,-1.1 0.9,-2 2,-2 1.1,0 2,0.9 2,2 0,1.1 -0.9,2 -2,2 z m 9,0 c -1.1,0 -2,-0.9 -2,-2 0,-1.1 0.9,-2 2,-2 1.1,0 2,0.9 2,2 0,1.1 -0.9,2 -2,2 z m 9,0 c -1.1,0 -2,-0.9 -2,-2 0,-1.1 0.9,-2 2,-2 1.1,0 2,0.9 2,2 0,1.1 -0.9,2 -2,2 z m 9,0 c -1.1,0 -2,-0.9 -2,-2 0,-1.1 0.9,-2 2,-2 1.1,0 2,0.9 2,2 0,1.1 -0.9,2 -2,2 z"
           inkscape:connector-curvature="0"
           style="clip-rule:evenodd;fill:#2a3282;fill-rule:evenodd" />
        <polygon
           id="polygon26"
           points="29.4,30.2 22.2,37.2 61.2,37.2 54,30.2 "
           style="clip-rule:evenodd;fill:#2a3282;fill-rule:evenodd"
           transform="translate(145.68329,-93.669594)" />
      </g>
    </g>
    <g
       transform="translate(137.5631,-94.573988)"
       id="paths-6">
      <g
         id="Access_control-4" />
      <g
         id="Azure_active_directory-3" />
      <g
         id="Generic_code-8" />
      <g
         id="Laptop-7" />
      <g
         id="Load_balancer-8" />
      <g
         id="Lock_x2C__protected-4" />
    </g>
    <g
       transform="translate(137.5631,-94.573988)"
       id="symbols-8" />
    <g
       transform="translate(137.5631,-94.573988)"
       id="slices-2" />
    <g
       transform="matrix(0.06125617,0,0,0.06125617,150.76274,-1.4349378)"
       id="Layer_1_1_">
      <g
         id="File_x2C__general-6">
        <title
           id="title5">Sheet.1071</title>
      </g>
    </g>
    <g
       transform="matrix(0.06125617,0,0,0.06125617,150.76274,-1.4349378)"
       id="Access_control-2" />
    <g
       transform="matrix(0.06125617,0,0,0.06125617,150.76274,-1.4349378)"
       id="Azure_active_directory-8" />
    <g
       transform="matrix(0.06125617,0,0,0.06125617,205.31098,46.143732)"
       id="Gateway-5">
      <path
         style="fill:#2a3282"
         inkscape:connector-curvature="0"
         d="m 396.1,117.1 c -104.7,0 -188.8,85 -188.8,188.8 0,103.8 84.1,188.8 188.8,188.8 C 500.8,494.7 585,409.8 585,305.9 585,202 500.9,117.1 396.1,117.1 Z m -17.1,85.8 0,-60.1 34.3,0 0,60.1 17.2,0 -34.3,69.5 -34.3,-69.5 17.1,0 z m -77.3,137.3 -69.5,-34.3 69.5,-34.3 0,17.2 60.1,0 0,34.3 -60.1,0 0,17.1 z m 111.6,60.1 0,60.1 -34.3,0 0,-60.1 -17.2,0 34.3,-69.5 34.3,69.5 -17.1,0 z m 77.3,-60.1 0,-17.2 -60.1,0 0,-34.3 60.1,0 0,-17.2 69.5,34.3 -69.5,34.4 z"
         id="path10-7" />
    </g>
    <g
       transform="matrix(0.06125617,0,0,0.06125617,150.76274,-1.4349378)"
       id="symbols-6" />
    <g
       transform="translate(-2.5443581,-941.38228)"
       id="g4300">
      <path
         style="fill:#77a7d3;fill-opacity:1;fill-rule:evenodd;stroke:none;stroke-width:0.42022079px;stroke-linecap:butt;stroke-linejoin:miter;stroke-opacity:1"
         d="m 122.46966,996.19493 0,19.61877 -15.10068,-9.939 z"
         id="path16771"
         inkscape:connector-curvature="0"
         sodipodi:nodetypes="cccc" />
      <path
         sodipodi:nodetypes="cccc"
         inkscape:connector-curvature="0"
         id="path16773"
         d="m 198.7968,996.19493 0,19.61877 15.10068,-9.939 z"
         style="fill:#77a7d3;fill-opacity:1;fill-rule:evenodd;stroke:none;stroke-width:0.42022079px;stroke-linecap:butt;stroke-linejoin:miter;stroke-opacity:1" />
      <g
         id="g4285">
        <text
           x="127.51947"
           y="1020.2192"
           class="st13"
           v:langID="1033"
           id="text11614-5"
           style="font-size:9.37510967px;font-family:Arial;fill:#0090c6">VPN Connection<v:paragraph />
<v:tabList />
</text>
        <path
           sodipodi:nodetypes="ccccc"
           inkscape:connector-curvature="0"
           id="path16775"
           d="m 201.77022,1010.3139 -79.74917,0 0,-8.6163 79.74917,0 z"
           style="fill:#77a7d3;fill-opacity:1;fill-rule:evenodd;stroke:none;stroke-width:1.12792897px;stroke-linecap:butt;stroke-linejoin:miter;stroke-opacity:1" />
      </g>
    </g>
  </g>
</svg>
