<?xml version="1.0" encoding="UTF-8" standalone="no"?>
<!-- Created with Inkscape (http://www.inkscape.org/) -->

<svg
   xmlns:v="http://schemas.microsoft.com/visio/2003/SVGExtensions/"
   xmlns:dc="http://purl.org/dc/elements/1.1/"
   xmlns:cc="http://creativecommons.org/ns#"
   xmlns:rdf="http://www.w3.org/1999/02/22-rdf-syntax-ns#"
   xmlns:svg="http://www.w3.org/2000/svg"
   xmlns="http://www.w3.org/2000/svg"
   xmlns:sodipodi="http://sodipodi.sourceforge.net/DTD/sodipodi-0.dtd"
   xmlns:inkscape="http://www.inkscape.org/namespaces/inkscape"
   width="320"
   height="144"
   viewBox="0 0 320.00001 144"
   id="svg8983"
   version="1.1"
   inkscape:version="0.91 r13725"
   sodipodi:docname="azure-ad.svg">
  <defs
     id="defs8985">
    <marker
       inkscape:isstock="true"
       style="overflow:visible"
       id="marker6513"
       refX="0"
       refY="0"
       orient="auto"
       inkscape:stockid="Arrow2Mend">
      <path
         transform="scale(-0.6,-0.6)"
         d="M 8.7185878,4.0337352 -2.2072895,0.01601326 8.7185884,-4.0017078 c -1.7454984,2.3720609 -1.7354408,5.6174519 -6e-7,8.035443 z"
         style="fill:#3c3c3c;fill-opacity:1;fill-rule:evenodd;stroke:#3c3c3c;stroke-width:0.625;stroke-linejoin:round;stroke-opacity:1"
         id="path6515"
         inkscape:connector-curvature="0" />
    </marker>
    <marker
       inkscape:stockid="Arrow2Mend"
       orient="auto"
       refY="0"
       refX="0"
       id="marker5209"
       style="overflow:visible"
       inkscape:isstock="true">
      <path
         inkscape:connector-curvature="0"
         id="path5211"
         style="fill:#3c3c3c;fill-opacity:1;fill-rule:evenodd;stroke:#3c3c3c;stroke-width:0.625;stroke-linejoin:round;stroke-opacity:1"
         d="M 8.7185878,4.0337352 -2.2072895,0.01601326 8.7185884,-4.0017078 c -1.7454984,2.3720609 -1.7354408,5.6174519 -6e-7,8.035443 z"
         transform="scale(-0.6,-0.6)" />
    </marker>
    <marker
       inkscape:isstock="true"
       style="overflow:visible"
       id="marker4541"
       refX="0"
       refY="0"
       orient="auto"
       inkscape:stockid="Arrow2Mstart">
      <path
         transform="scale(0.6,0.6)"
         d="M 8.7185878,4.0337352 -2.2072895,0.01601326 8.7185884,-4.0017078 c -1.7454984,2.3720609 -1.7354408,5.6174519 -6e-7,8.035443 z"
         style="fill:#3c3c3c;fill-opacity:1;fill-rule:evenodd;stroke:#3c3c3c;stroke-width:0.625;stroke-linejoin:round;stroke-opacity:1"
         id="path4543"
         inkscape:connector-curvature="0" />
    </marker>
    <marker
       inkscape:isstock="true"
       style="overflow:visible"
       id="marker8745"
       refX="0"
       refY="0"
       orient="auto"
       inkscape:stockid="Arrow2Mend">
      <path
         inkscape:connector-curvature="0"
         transform="scale(-0.6,-0.6)"
         d="M 8.7185878,4.0337352 -2.2072895,0.01601326 8.7185884,-4.0017078 c -1.7454984,2.3720609 -1.7354408,5.6174519 -6e-7,8.035443 z"
         style="fill:#3c3c3c;fill-opacity:1;fill-rule:evenodd;stroke:#3c3c3c;stroke-width:0.625;stroke-linejoin:round;stroke-opacity:1"
         id="path8747" />
    </marker>
    <filter
       inkscape:collect="always"
       style="color-interpolation-filters:sRGB"
       id="filter5179"
       x="-0.0094055219"
       width="1.018811"
       y="-0.016571067"
       height="1.0331421">
      <feGaussianBlur
         inkscape:collect="always"
         stdDeviation="0.25108957"
         id="feGaussianBlur5181" />
    </filter>
  </defs>
  <sodipodi:namedview
     id="base"
     pagecolor="#ffffff"
     bordercolor="#666666"
     borderopacity="1.0"
     inkscape:pageopacity="0.0"
     inkscape:pageshadow="2"
     inkscape:zoom="1.979899"
     inkscape:cx="108.45423"
     inkscape:cy="70.468132"
     inkscape:document-units="px"
     inkscape:current-layer="layer2"
     showgrid="false"
     units="px"
     inkscape:window-width="1536"
     inkscape:window-height="897"
     inkscape:window-x="-8"
     inkscape:window-y="-8"
     inkscape:window-maximized="1" />
  <metadata
     id="metadata8988">
    <rdf:RDF>
      <cc:Work
         rdf:about="">
        <dc:format>image/svg+xml</dc:format>
        <dc:type
           rdf:resource="http://purl.org/dc/dcmitype/StillImage" />
        <dc:title />
      </cc:Work>
    </rdf:RDF>
  </metadata>
  <g
     inkscape:label="Layer 1"
     inkscape:groupmode="layer"
     id="layer1"
     transform="translate(0,-908.36218)">
    <g
       transform="matrix(0.66238217,0,0,0.66238217,24.342106,902.82989)"
       id="Layer_1-0" />
    <g
       id="File_x2C__general"
       transform="translate(163.84112,826.95309)">
      <title
         id="title6">Sheet.1071</title>
    </g>
    <g
       id="Message"
       transform="translate(163.84112,826.95309)" />
    <g
       id="Monitor"
       transform="translate(163.84112,826.95309)" />
    <g
       id="Monitor_running_apps"
       transform="translate(163.84112,826.95309)" />
    <g
       id="Mouse"
       transform="translate(163.84112,826.95309)" />
    <g
       id="Network_card"
       transform="translate(163.84112,826.95309)" />
    <g
       id="Not_allowed"
       transform="translate(163.84112,826.95309)" />
    <g
       id="Performance"
       transform="translate(163.84112,826.95309)" />
    <g
       id="Phone"
       transform="translate(163.84112,826.95309)" />
    <g
       id="Plug_and_play"
       transform="translate(163.84112,826.95309)" />
    <g
       id="Powershell_script_file"
       transform="translate(163.84112,826.95309)" />
    <g
       id="Protocol_stack"
       transform="translate(163.84112,826.95309)" />
    <g
       id="Queue_x2C__general"
       transform="translate(163.84112,826.95309)" />
    <g
       id="RMS_connector"
       transform="translate(163.84112,826.95309)" />
    <g
       transform="translate(163.84112,826.95309)"
       id="paths">
      <g
         id="Access_control" />
      <g
         id="Azure_active_directory" />
      <g
         id="Generic_code" />
      <g
         id="Laptop" />
      <g
         id="Load_balancer" />
      <g
         id="Lock_x2C__protected" />
    </g>
    <g
       transform="translate(163.84112,826.95309)"
       id="symbols" />
    <g
       transform="translate(163.84112,826.95309)"
       id="slices" />
    <g
       transform="matrix(0.66238217,0,0,0.66238217,16.221906,901.92549)"
       id="Layer_1-0-8" />
    <g
       id="File_x2C__general-9"
       transform="translate(155.72093,826.0487)">
      <title
         id="title6-5">Sheet.1071</title>
    </g>
    <g
       id="Message-5"
       transform="translate(155.72093,826.0487)" />
    <g
       id="Monitor-9"
       transform="translate(155.72093,826.0487)" />
    <g
       id="Monitor_running_apps-8"
       transform="translate(155.72093,826.0487)" />
    <g
       id="Mouse-2"
       transform="translate(155.72093,826.0487)" />
    <g
       id="Network_card-4"
       transform="translate(155.72093,826.0487)" />
    <g
       id="Not_allowed-1"
       transform="translate(155.72093,826.0487)" />
    <g
       id="Performance-1"
       transform="translate(155.72093,826.0487)" />
    <g
       id="Phone-2"
       transform="translate(155.72093,826.0487)" />
    <g
       id="Plug_and_play-4"
       transform="translate(155.72093,826.0487)" />
    <g
       id="Powershell_script_file-4"
       transform="translate(155.72093,826.0487)" />
    <g
       id="Protocol_stack-4"
       transform="translate(155.72093,826.0487)" />
    <g
       id="Queue_x2C__general-4"
       transform="translate(155.72093,826.0487)" />
    <g
       id="RMS_connector-7"
       transform="translate(155.72093,826.0487)" />
    <g
       transform="translate(155.72093,826.0487)"
       id="paths-6">
      <g
         id="Access_control-4" />
      <g
         id="Azure_active_directory-3" />
      <g
         id="Generic_code-8" />
      <g
         id="Laptop-7" />
      <g
         id="Load_balancer-8" />
      <g
         id="Lock_x2C__protected-4" />
    </g>
    <g
       transform="translate(155.72093,826.0487)"
       id="symbols-8" />
    <g
       transform="translate(155.72093,826.0487)"
       id="slices-2" />
    <g
       transform="matrix(0.06125617,0,0,0.06125617,168.92057,919.18779)"
       id="Layer_1_1_">
      <g
         id="File_x2C__general-6">
        <title
           id="title5">Sheet.1071</title>
      </g>
    </g>
    <g
       transform="matrix(0.06125617,0,0,0.06125617,168.92057,919.18779)"
       id="Access_control-2" />
    <g
       transform="matrix(0.06125617,0,0,0.06125617,168.92057,919.18779)"
       id="Azure_active_directory-8" />
    <g
       transform="matrix(0.06125617,0,0,0.06125617,168.92057,919.18779)"
       id="symbols-6" />
    <g
       transform="translate(143.36851,787.92535)"
       id="Layer_1_1_-0" />
    <g
       transform="translate(143.36851,787.92535)"
       id="Access_control-7" />
    <g
       transform="translate(143.36851,787.92535)"
       id="Azure_active_directory-9" />
    <g
       transform="translate(143.36851,787.92535)"
       id="symbols-7" />
    <rect
       style="fill:#000000;fill-opacity:0.07692309;stroke:#4c4c4c;stroke-width:0.58798307;stroke-miterlimit:4;stroke-dasharray:none;stroke-opacity:1"
       id="rect11496"
       width="71.112411"
       height="125.37095"
       x="17.746008"
       y="912.78229" />
    <text
       sodipodi:linespacing="125%"
       style="font-style:normal;font-variant:normal;font-weight:normal;font-stretch:normal;font-size:10px;line-height:125%;font-family:Arial;-inkscape-font-specification:'Arial, Normal';text-align:center;writing-mode:lr-tb;text-anchor:middle;fill:#0090c6"
       id="text5728"
       v:langID="1033"
       class="st13"
       y="1048.6172"
       x="53.080048">On-premises network<v:paragraph />
<v:tabList />
</text>
    <text
       x="259.66187"
       y="1049.0032"
       class="st13"
       v:langID="1033"
       id="text5812"
       style="font-style:normal;font-variant:normal;font-weight:normal;font-stretch:normal;font-size:10px;line-height:125%;font-family:Arial;-inkscape-font-specification:'Arial, Normal';text-align:center;writing-mode:lr-tb;text-anchor:middle;fill:#0090c6"
       sodipodi:linespacing="125%">Azure VNet<v:paragraph />
<v:tabList />
</text>
    <rect
       style="fill:#e4faff;stroke:#3a99c6;stroke-width:0.41896605;stroke-linecap:butt"
       id="rect11512"
       class="st1"
       height="125.12882"
       width="71.214272"
       y="912.56586"
       x="224.01323" />
    <path
       style="fill:none;fill-rule:evenodd;stroke:#3c3c3c;stroke-width:1;stroke-linecap:butt;stroke-linejoin:miter;stroke-miterlimit:4;stroke-dasharray:3, 3;stroke-dashoffset:0;stroke-opacity:1;marker-end:url(#marker5209);filter:url(#filter5179)"
       d="M 70.495313,1000.8444 165.88038,943.26567"
       id="path5207"
       inkscape:connector-curvature="0"
       sodipodi:nodetypes="cc" />
    <path
       sodipodi:nodetypes="cc"
       inkscape:connector-curvature="0"
       id="path6511"
       d="m 70.495313,936.69972 95.385077,0"
       style="fill:none;fill-rule:evenodd;stroke:#3c3c3c;stroke-width:1;stroke-linecap:butt;stroke-linejoin:miter;stroke-miterlimit:4;stroke-dasharray:3, 3;stroke-dashoffset:0;stroke-opacity:1;marker-end:url(#marker6513)" />
  </g>
  <g
     inkscape:groupmode="layer"
     id="layer3"
     inkscape:label="Forests" />
  <g
     inkscape:groupmode="layer"
     id="layer2"
     inkscape:label="VMs">
    <text
       xml:space="preserve"
       style="font-style:normal;font-variant:normal;font-weight:normal;font-stretch:normal;font-size:10px;line-height:125%;font-family:sans-serif;-inkscape-font-specification:'sans-serif, Normal';text-align:center;letter-spacing:0px;word-spacing:0px;writing-mode:lr-tb;text-anchor:middle;fill:#000000;fill-opacity:1;stroke:none;stroke-width:1px;stroke-linecap:butt;stroke-linejoin:miter;stroke-opacity:1"
       x="53.006805"
       y="60.196083"
       id="text5730"
       sodipodi:linespacing="125%"><tspan
         sodipodi:role="line"
         id="tspan5732"
         x="53.006805"
         y="60.196083">Domain</tspan><tspan
         sodipodi:role="line"
         x="53.006805"
         y="72.696083"
         id="tspan5734">Controller</tspan></text>
    <path
       style="fill:#000000;fill-opacity:1"
       inkscape:connector-curvature="0"
       d="m 66.380044,80.954755 -26.39491,0 c -0.87717,0 -1.59485,0.79734 -1.59485,1.6745 l 0,18.420765 c 0,0.87716 0.71768,1.6745 1.59485,1.6745 l 9.01095,0 c 0.95692,3.42893 -0.31897,3.90749 -6.06046,3.90749 l 0,1.83401 7.25661,0 5.34278,0 6.85789,0 0,-1.83401 c -5.7415,0 -6.2997,-0.47856 -5.34278,-3.90749 l 9.32992,0 c 0.87718,0 1.8341,-0.79734 1.8341,-1.6745 l 0,-18.420765 c 0,-0.87716 -0.95692,-1.6745 -1.8341,-1.6745 z m -0.47845,2.23275 0,17.224445 -25.27851,0 0,-17.224445 25.27851,0 0,0 z"
       id="path11493" />
    <text
       xml:space="preserve"
       style="font-style:normal;font-variant:normal;font-weight:normal;font-stretch:normal;font-size:10px;line-height:125%;font-family:sans-serif;-inkscape-font-specification:'sans-serif, Normal';text-align:center;letter-spacing:0px;word-spacing:0px;writing-mode:lr-tb;text-anchor:middle;fill:#000000;fill-opacity:1;stroke:none;stroke-width:1px;stroke-linecap:butt;stroke-linejoin:miter;stroke-opacity:1"
       x="53.126434"
       y="124.93213"
       id="text5742"
       sodipodi:linespacing="125%"><tspan
         sodipodi:role="line"
         id="tspan5744"
         x="53.126434"
         y="124.93213">Client</tspan></text>
    <g
       id="g10133"
       transform="translate(42.647206,-1058.8663)">
      <path
         style="fill:#0078d7"
         inkscape:connector-curvature="0"
         d="m 230.06871,1147.8024 -26.43067,0 c -0.87836,0 -1.59702,0.7985 -1.59702,1.6769 l 0,18.4456 c 0,0.8783 0.71866,1.6768 1.59702,1.6768 l 9.02316,0 c 0.95821,3.4336 -0.3194,3.9127 -6.06867,3.9127 l 0,1.8366 7.26644,0 5.35001,0 6.86718,0 0,-1.8366 c -5.74927,0 -6.30822,-0.4791 -5.35001,-3.9127 l 9.34256,0 c 0.87836,0 1.83658,-0.7985 1.83658,-1.6768 l 0,-18.4456 c 0,-0.8784 -0.95822,-1.6769 -1.83658,-1.6769 z m -0.4791,2.2358 0,17.2479 -25.31276,0 0,-17.2479 25.31276,0 0,0 z"
         id="path10026" />
      <g
         id="g10028"
         transform="matrix(0.79850972,0,0,0.79850972,1064.9186,-1115.4376)">
        <title
           id="title10030">Sheet.975</title>
        <g
           id="g10032"
           transform="translate(0.8685,-17.652)">
          <title
             id="title10034">Sheet.976</title>
          <path
             style="fill:#0078d7"
             inkscape:connector-curvature="0"
             d="m -1057.4,2861.6 -5.8,-3.3 -5.8,3.3 0,0.1 5.8,3.3 5.8,-3.4 0,0 z"
             id="path10036" />
        </g>
        <g
           id="g10038"
           transform="translate(15.8925,0)">
          <title
             id="title10040">Sheet.977</title>
          <path
             style="fill:#0078d7"
             inkscape:connector-curvature="0"
             d="m -1077.6,2848.3 0,6.6 5.8,-3.3 0,-6.6 -5.8,3.3 z"
             id="path10042" />
        </g>
        <g
           id="g10044">
          <title
             id="title10046">Sheet.978</title>
          <path
             style="fill:#0078d7"
             inkscape:connector-curvature="0"
             d="m -1062.9,2848.3 -5.8,-3.3 0,6.6 5.8,3.3 0,-6.6 z"
             id="path10048" />
        </g>
      </g>
    </g>
    <g
       transform="matrix(0.79850972,0,0,0.79850972,168.11115,-45.834816)"
       id="g10050">
      <g
         id="g10052">
        <path
           style="fill:#0078d7"
           inkscape:connector-curvature="0"
           d="m 131,71.7 -33.1,0 c -1.1,0 -2,1 -2,2.1 l 0,23.1 c 0,1.1 0.9,2.1 2,2.1 l 11.3,0 c 1.2,4.3 -0.4,4.9 -7.6,4.9 l 0,2.3 9.1,0 6.7,0 8.6,0 0,-2.3 c -7.2,0 -7.9,-0.6 -6.7,-4.9 l 11.7,0 c 1.1,0 2.3,-1 2.3,-2.1 l 0,-23.1 c 0,-1.1 -1.2,-2.1 -2.3,-2.1 z m -0.6,2.8 0,21.6 -31.7,0 0,-21.6 31.7,0 0,0 z"
           id="path10054" />
        <g
           id="g10056"
           transform="translate(1176.51,-2762.63)">
          <title
             id="title10058">Sheet.975</title>
          <g
             id="g10060"
             transform="translate(0.8685,-17.652)">
            <title
               id="title10062">Sheet.976</title>
            <path
               style="fill:#0078d7"
               inkscape:connector-curvature="0"
               d="m -1057.4,2861.6 -5.8,-3.3 -5.8,3.3 0,0.1 5.8,3.3 5.8,-3.4 0,0 z"
               id="path10064" />
          </g>
          <g
             id="g10066"
             transform="translate(15.8925,0)">
            <title
               id="title10068">Sheet.977</title>
            <path
               style="fill:#0078d7"
               inkscape:connector-curvature="0"
               d="m -1077.6,2848.3 0,6.6 5.8,-3.3 0,-6.6 -5.8,3.3 z"
               id="path10070" />
          </g>
          <g
             id="g10072">
            <title
               id="title10074">Sheet.978</title>
            <path
               style="fill:#0078d7"
               inkscape:connector-curvature="0"
               d="m -1062.9,2848.3 -5.8,-3.3 0,6.6 5.8,3.3 0,-6.6 z"
               id="path10076" />
          </g>
        </g>
      </g>
    </g>
    <path
       id="path11518"
       d="m 66.380044,17.436981 -26.39491,0 c -0.87717,0 -1.59485,0.79734 -1.59485,1.6745 l 0,18.42077 c 0,0.87716 0.71768,1.6745 1.59485,1.6745 l 9.01095,0 c 0.95692,3.42893 -0.31897,3.90749 -6.06046,3.90749 l 0,1.83401 7.25661,0 5.34278,0 6.85789,0 0,-1.83401 c -5.7415,0 -6.2997,-0.47856 -5.34278,-3.90749 l 9.32992,0 c 0.87718,0 1.8341,-0.79734 1.8341,-1.6745 l 0,-18.42077 c 0,-0.87716 -0.95692,-1.6745 -1.8341,-1.6745 z m -0.47845,2.23275 0,17.22445 -25.27851,0 0,-17.22445 25.27851,0 0,0 z"
       inkscape:connector-curvature="0"
       style="fill:#000000;fill-opacity:1" />
    <g
       id="g5593"
       transform="matrix(0.75756339,0,0,0.75756339,-91.03666,-871.85683)">
      <path
         id="path3"
         d="m 368.57243,1213.7912 c -1.232,0 -2.392,-0.48 -3.261,-1.352 l -20.389,-20.388 c -0.859,-0.859 -1.351,-2.046 -1.351,-3.261 0,-1.214 0.492,-2.402 1.351,-3.26 l 20.389,-20.388 c 0.871,-0.872 2.029,-1.352 3.261,-1.352 1.231,0 2.39,0.48 3.261,1.352 l 20.386,20.388 c 0.873,0.868 1.352,2.027 1.352,3.26 0,1.233 -0.479,2.392 -1.353,3.263 l -20.385,20.386 c -0.87,0.872 -2.03,1.352 -3.261,1.352"
         style="fill:#59b4d9"
         inkscape:connector-curvature="0" />
      <path
         id="path5"
         d="m 382.18543,1184.8832 c -2.16,0 -3.91,1.75 -3.91,3.909 0,0.792 0.239,1.527 0.645,2.143 l -7.744,7.744 c -0.206,-0.144 -0.427,-0.264 -0.656,-0.373 l 0,-19.757 c 1.167,-0.676 1.961,-1.924 1.961,-3.37 0,-2.159 -1.75,-3.909 -3.91,-3.909 -2.158,0 -3.908,1.75 -3.908,3.909 0,1.446 0.794,2.694 1.96,3.37 l 0,19.756 c -0.219,0.104 -0.434,0.216 -0.632,0.353 l -7.753,-7.753 c 0.394,-0.61 0.628,-1.333 0.628,-2.113 0,-2.159 -1.75,-3.909 -3.908,-3.909 -2.16,0 -3.91,1.75 -3.91,3.909 0,2.159 1.75,3.909 3.91,3.909 0.448,0 0.872,-0.091 1.274,-0.23 l 8.15,8.15 c -0.234,0.548 -0.364,1.15 -0.364,1.783 0,2.513 2.038,4.551 4.551,4.551 2.514,0 4.551,-2.038 4.551,-4.551 0,-0.621 -0.126,-1.212 -0.351,-1.751 l 8.173,-8.172 c 0.392,0.132 0.804,0.22 1.241,0.22 2.158,0 3.908,-1.75 3.908,-3.909 0,-2.159 -1.749,-3.909 -3.906,-3.909 z"
         style="fill:#ffffff"
         inkscape:connector-curvature="0" />
      <rect
         id="rect7"
         height="20.675802"
         width="2.5229759"
         transform="matrix(-0.70700677,0.70720678,-0.70720678,-0.70700677,0,0)"
         y="-1112.0686"
         x="569.18805"
         style="opacity:0.5;fill:#ffffff" />
      <rect
         id="rect9"
         height="20.676802"
         width="2.5239756"
         transform="matrix(0.70710678,0.70710678,-0.70710678,0.70710678,0,0)"
         y="570.23236"
         x="1090.291"
         style="opacity:0.5;fill:#ffffff" />
      <path
         id="path11"
         d="m 371.23643,1202.4042 c 0,1.496 -1.214,2.709 -2.71,2.709 -1.497,0 -2.709,-1.213 -2.709,-2.709 0,-1.496 1.212,-2.709 2.709,-2.709 1.495,0 2.71,1.213 2.71,2.709"
         style="fill:#b8d432"
         inkscape:connector-curvature="0" />
      <path
         id="path13"
         d="m 370.74543,1175.1792 c 0,1.201 -0.973,2.174 -2.174,2.174 -1.201,0 -2.174,-0.973 -2.174,-2.174 0,-1.201 0.973,-2.174 2.174,-2.174 1.201,0 2.174,0.973 2.174,2.174"
         style="fill:#b8d432"
         inkscape:connector-curvature="0" />
      <path
         id="path15"
         d="m 357.13443,1188.7912 c 0,1.201 -0.975,2.174 -2.174,2.174 -1.201,0 -2.174,-0.973 -2.174,-2.174 0,-1.201 0.973,-2.174 2.174,-2.174 1.199,0 2.174,0.973 2.174,2.174"
         style="fill:#b8d432"
         inkscape:connector-curvature="0" />
      <path
         id="path17"
         d="m 384.35943,1188.7912 c 0,1.201 -0.975,2.174 -2.175,2.174 -1.2,0 -2.174,-0.973 -2.174,-2.174 0,-1.201 0.974,-2.174 2.174,-2.174 1.2,0 2.175,0.973 2.175,2.174"
         style="fill:#b8d432"
         inkscape:connector-curvature="0" />
      <path
         id="path19"
         d="m 371.83343,1165.1422 c -0.871,-0.872 -2.029,-1.352 -3.261,-1.352 -1.231,0 -2.389,0.48 -3.26,1.352 l -20.389,20.388 c -0.86,0.858 -1.352,2.046 -1.352,3.26 0,1.215 0.492,2.403 1.352,3.261 l 11.543,11.544 21.715,-32.106 -6.348,-6.347 z"
         style="opacity:0.1;fill:#ffffff"
         inkscape:connector-curvature="0" />
    </g>
    <text
       sodipodi:linespacing="125%"
       style="font-style:normal;font-variant:normal;font-weight:normal;font-stretch:normal;font-size:10px;line-height:125%;font-family:Arial;-inkscape-font-specification:'Arial, Normal';text-align:center;writing-mode:lr-tb;text-anchor:middle;fill:#0090c6"
       id="text6837"
       v:langID="1033"
       class="st13"
       y="57.022472"
       x="188.45544">Azure AD<v:paragraph />
<v:tabList />
</text>
    <text
       x="127.83555"
       y="19.058558"
       class="st13"
       v:langID="1033"
       id="text10277"
       style="font-style:normal;font-variant:normal;font-weight:normal;font-stretch:normal;font-size:10px;line-height:125%;font-family:Arial;-inkscape-font-specification:'Arial, Normal';text-align:center;writing-mode:lr-tb;text-anchor:middle;fill:#389114;fill-opacity:1"
       sodipodi:linespacing="125%">
      <v:paragraph />
      <v:tabList />
      <tspan
         sodipodi:role="line"
         id="tspan7265"
         x="127.83555"
         y="19.058558">Synchronization</tspan>
    </text>
    <text
       sodipodi:linespacing="125%"
       style="font-style:normal;font-variant:normal;font-weight:normal;font-stretch:normal;font-size:10px;line-height:125%;font-family:Arial;-inkscape-font-specification:'Arial, Normal';text-align:center;writing-mode:lr-tb;text-anchor:middle;fill:#389114;fill-opacity:1"
       id="text5561"
       v:langID="1033"
       class="st13"
       y="79.667717"
       x="140.46246">
      <v:paragraph />
      <v:tabList />
      <tspan
         sodipodi:role="line"
         id="tspan6465"
         x="140.46246"
         y="79.667717">Authentication</tspan>
    </text>
    <g
       id="g7435"
       transform="matrix(0.79850972,0,0,0.79850972,168.11115,-7.0759296)">
      <g
         id="g7437">
        <path
           id="path7439"
           d="m 131,71.7 -33.1,0 c -1.1,0 -2,1 -2,2.1 l 0,23.1 c 0,1.1 0.9,2.1 2,2.1 l 11.3,0 c 1.2,4.3 -0.4,4.9 -7.6,4.9 l 0,2.3 9.1,0 6.7,0 8.6,0 0,-2.3 c -7.2,0 -7.9,-0.6 -6.7,-4.9 l 11.7,0 c 1.1,0 2.3,-1 2.3,-2.1 l 0,-23.1 c 0,-1.1 -1.2,-2.1 -2.3,-2.1 z m -0.6,2.8 0,21.6 -31.7,0 0,-21.6 31.7,0 0,0 z"
           inkscape:connector-curvature="0"
           style="fill:#0078d7" />
        <g
           transform="translate(1176.51,-2762.63)"
           id="g7441">
          <title
             id="title7443">Sheet.975</title>
          <g
             transform="translate(0.8685,-17.652)"
             id="g7445">
            <title
               id="title7447">Sheet.976</title>
            <path
               id="path7449"
               d="m -1057.4,2861.6 -5.8,-3.3 -5.8,3.3 0,0.1 5.8,3.3 5.8,-3.4 0,0 z"
               inkscape:connector-curvature="0"
               style="fill:#0078d7" />
          </g>
          <g
             transform="translate(15.8925,0)"
             id="g7451">
            <title
               id="title7453">Sheet.977</title>
            <path
               id="path7455"
               d="m -1077.6,2848.3 0,6.6 5.8,-3.3 0,-6.6 -5.8,3.3 z"
               inkscape:connector-curvature="0"
               style="fill:#0078d7" />
          </g>
          <g
             id="g7457">
            <title
               id="title7459">Sheet.978</title>
            <path
               id="path7461"
               d="m -1062.9,2848.3 -5.8,-3.3 0,6.6 5.8,3.3 0,-6.6 z"
               inkscape:connector-curvature="0"
               style="fill:#0078d7" />
          </g>
        </g>
      </g>
    </g>
  </g>
</svg>
