<?xml version="1.0" encoding="utf-8"?>
<!-- Generator: Adobe Illustrator 22.0.1, SVG Export Plug-In . SVG Version: 6.00 Build 0)  -->
<svg version="1.1" id="Layer_1" xmlns="http://www.w3.org/2000/svg" xmlns:xlink="http://www.w3.org/1999/xlink" x="0px" y="0px"
	 viewBox="0 0 608.9 441.3" style="enable-background:new 0 0 608.9 441.3;" xml:space="preserve">
<style type="text/css">
	.st0{fill:none;stroke:#0070C0;stroke-width:2;stroke-miterlimit:10;}
	.st1{fill:#0070C0;}
	.st2{fill:#3CA0F0;}
	.st3{fill:#FFFFFF;}
	.st4{font-family:segoe-ui_normal,Segoe UI,Segoe,Segoe WP,Helvetica Neue,Helvetica,sans-serif;font-weight:600;}
	.st5{font-size:8.4988px;}
	.st6{fill:none;}
	.st7{fill:#3F3F3F;}
	.st8{font-family:segoe-ui_normal,Segoe UI,Segoe,Segoe WP,Helvetica Neue,Helvetica,sans-serif;font-weight:500;}
	.st9{font-size:7.7262px;}
	.st10{fill:#F2F2F2;stroke:#7F7F7F;stroke-width:0.75;stroke-linecap:round;stroke-linejoin:round;}
	.st11{fill:#FFFFFF;stroke:#000000;stroke-width:0.5;stroke-linecap:round;stroke-linejoin:round;}
	.st12{fill:#DBEEF3;stroke:#7F7F7F;stroke-width:0.75;stroke-linecap:round;stroke-linejoin:round;}
	.st13{fill:#0078D7;}
	.st14{fill:#FFFFFF;stroke:#FFFFFF;stroke-width:1.55;stroke-miterlimit:3;}
	.st15{fill:#006FD4;}
	.st16{fill:#FFFFFF;stroke:#FFFFFF;stroke-width:1.5;stroke-miterlimit:3;}
	.st17{fill:#0089CF;}
	.st18{fill:#FCFDFE;}
	.st19{fill:#FDFCFD;}
	.st20{fill:#F5F4F8;}
	.st21{fill:#058BD0;}
	.st22{fill:#EAF2F8;}
	.st23{fill:#F5F7FA;}
	.st24{fill:#F3F5F9;}
	.st25{fill:none;stroke:#0070C0;stroke-width:2;stroke-linecap:square;stroke-miterlimit:10;}
</style>
<title>Artboard 1</title>
<line class="st0" x1="404.9" y1="83.9" x2="404.9" y2="99.2"/>
<polygon class="st1" points="402.2,97.4 404.9,107.3 407.6,97.4 "/>
<line class="st0" x1="442.4" y1="65.1" x2="498.2" y2="65.1"/>
<polygon class="st1" points="496.4,67.8 506.2,65.1 496.4,62.5 "/>
<line class="st0" x1="442.4" y1="124.7" x2="498.2" y2="124.7"/>
<polygon class="st1" points="496.4,127.4 506.2,124.7 496.4,122.1 "/>
<line class="st0" x1="442.4" y1="186.2" x2="498.2" y2="186.2"/>
<polygon class="st1" points="496.4,188.8 506.2,186.2 496.4,183.5 "/>
<line class="st0" x1="442.2" y1="244.2" x2="498" y2="244.2"/>
<polygon class="st1" points="496.1,246.8 506,244.2 496.1,241.6 "/>
<line class="st0" x1="442.4" y1="305" x2="498.2" y2="305"/>
<polygon class="st1" points="496.4,307.7 506.2,305 496.4,302.4 "/>
<line class="st0" x1="439.6" y1="366.6" x2="498.2" y2="366.6"/>
<polygon class="st1" points="496.4,369.3 506.2,366.6 496.4,363.9 "/>
<line class="st0" x1="439.6" y1="366.6" x2="500" y2="417.3"/>
<polygon class="st1" points="496.9,418.1 506.2,422.4 500.3,414 "/>
<line class="st0" x1="71.8" y1="84" x2="71.8" y2="183.6"/>
<polygon class="st1" points="69.2,181.8 71.8,191.6 74.4,181.8 "/>
<line class="st0" x1="55" y1="226.4" x2="55" y2="330.4"/>
<polygon class="st1" points="52.4,328.7 55,338.5 57.6,328.7 "/>
<g id="shape11-2">
	<rect x="506.2" y="47" class="st2" width="68.7" height="36.2"/>
	<text transform="matrix(1 0 0 1 520.8968 67.6333)" class="st3 st4 st5">VM/VMSS</text>
</g>
<g id="shape16-7">
	<rect x="35" y="337.9" class="st2" width="68.7" height="36.2"/>
	<text transform="matrix(1 0 0 1 49.6555 358.5291)" class="st3 st4 st5">VM/VMSS</text>
</g>
<g id="shape17-11">
	<rect x="506.2" y="106.7" class="st2" width="68.7" height="36.2"/>
	<text transform="matrix(1 0 0 1 517.4896 127.2559)" class="st3 st4 st5">Azu</text>
	<text transform="matrix(1 0 0 1 532.0999 127.2559)" class="st3 st4 st5">r</text>
	<text transform="matrix(1 0 0 1 535.1751 127.2559)" class="st3 st4 st5">e Ba</text>
	<text transform="matrix(1 0 0 1 551.5931 127.2559)" class="st3 st4 st5">t</text>
	<text transform="matrix(1 0 0 1 554.5911 127.2559)" class="st3 st4 st5">ch</text>
</g>
<g id="shape18-15">
	<rect x="506.2" y="226.1" class="st2" width="68.7" height="36.2"/>
	<text transform="matrix(1 0 0 1 509.6938 246.687)" class="st3 st4 st5">Azu</text>
	<text transform="matrix(1 0 0 1 524.304 246.687)" class="st3 st4 st5">r</text>
	<text transform="matrix(1 0 0 1 527.3792 246.687)" class="st3 st4 st5">e Functions</text>
</g>
<g id="shape19-19">
	<rect x="506.2" y="285.1" class="st2" width="68.7" height="36.2"/>
	<g>
		<text transform="matrix(1 0 0 1 521.762 300.5147)" class="st3 st4 st5">Container</text>
		<text transform="matrix(1 0 0 1 522.721 310.7139)" class="st3 st4 st5">Instances</text>
	</g>
</g>
<g id="shape21-24">
	<rect x="506.2" y="166.2" class="st2" width="68.7" height="36.2"/>
	<g>
		<text transform="matrix(1 0 0 1 514.8558 181.6093)" class="st3 st4 st5">App Se</text>
		<text transform="matrix(1 0 0 1 542.2835 181.6093)" class="st3 st4 st5">r</text>
		<text transform="matrix(1 0 0 1 545.7679 181.6093)" class="st3 st4 st5">vice /</text>
		<text transform="matrix(1 0 0 1 533.22 191.8081)" class="st3 st4 st5">ASE</text>
	</g>
</g>
<g id="shape39-100">
	<rect x="303" y="65.8" class="st6" width="49.6" height="15.5"/>
	<text transform="matrix(1 0 0 1 310.2009 75.8484)" class="st7 st8 st9">Greenfield</text>
</g>
<g id="shape40-104">
	<rect x="133.3" y="65.9" class="st6" width="52.7" height="15.5"/>
	<text transform="matrix(1 0 0 1 141.4978 75.9984)" class="st7 st8 st9">Brownfield</text>
</g>
<g id="shape41-108">
	<rect x="19.2" y="101.4" class="st6" width="52.7" height="15.5"/>
	<text transform="matrix(1 0 0 1 19.373 111.4569)" class="st7 st8 st9">Lift-and-shift</text>
</g>
<g id="shape43-117">
	<rect x="439.3" y="48.9" class="st6" width="33.8" height="15.5"/>
	<text transform="matrix(1 0 0 1 450.4579 58.9106)" class="st7 st8 st9">Y</text>
	<text transform="matrix(1 0 0 1 454.0501 58.9106)" class="st7 st8 st9">es</text>
</g>
<g id="shape44-121">
	<rect x="440.3" y="107.9" class="st6" width="31.8" height="15.5"/>
	<text transform="matrix(1 0 0 1 450.4579 117.8994)" class="st7 st8 st9">Y</text>
	<text transform="matrix(1 0 0 1 454.0501 117.8994)" class="st7 st8 st9">es</text>
</g>
<g id="shape47-129">
	<rect x="402.6" y="204.6" class="st6" width="31.8" height="15.5"/>
	<text transform="matrix(1 0 0 1 412.7078 214.5615)" class="st7 st8 st9">Y</text>
	<text transform="matrix(1 0 0 1 416.3001 214.5615)" class="st7 st8 st9">es</text>
</g>
<g id="shape48-133">
	<rect x="400.1" y="323.5" class="st6" width="31.8" height="15.5"/>
	<text transform="matrix(1 0 0 1 410.1429 333.4668)" class="st7 st8 st9">Y</text>
	<text transform="matrix(1 0 0 1 413.7357 333.4668)" class="st7 st8 st9">es</text>
</g>
<g id="shape49-137">
	<rect x="443.1" y="351" class="st6" width="26.3" height="15.5"/>
	<text transform="matrix(1 0 0 1 450.4579 360.9951)" class="st7 st8 st9">Y</text>
	<text transform="matrix(1 0 0 1 454.0501 360.9951)" class="st7 st8 st9">es</text>
</g>
<g id="shape50-141">
	<rect x="401" y="145" class="st6" width="31.8" height="15.5"/>
	<text transform="matrix(1 0 0 1 411.742 154.9697)" class="st7 st8 st9">No</text>
</g>
<g id="shape51-145">
	<rect x="400.1" y="264" class="st6" width="31.8" height="15.5"/>
	<text transform="matrix(1 0 0 1 410.784 274.0147)" class="st7 st8 st9">No</text>
</g>
<g id="shape52-149">
	<rect x="440.3" y="289.5" class="st6" width="31.8" height="15.5"/>
	<text transform="matrix(1 0 0 1 451.099 299.5723)" class="st7 st8 st9">No</text>
</g>
<g id="shape53-153">
	<rect x="460.8" y="378.9" class="st6" width="31.8" height="15.5"/>
	<text transform="matrix(1 0 0 1 471.5736 388.9258)" class="st7 st8 st9">No</text>
</g>
<g id="shape1-167">
	<path class="st10" d="M201,47.7h85c7.6,0,13.9,6.3,13.9,13.9v8.3c0,7.6-6.3,13.9-13.9,13.9h-85c-7.6,0-13.9-6.3-13.9-13.9v-8.3
		C187,53.9,193.3,47.7,201,47.7z"/>
	<text transform="matrix(1 0 0 1 200.2137 68.0427)" class="st8 st9">Greenfield or brownfield?</text>
</g>
<g id="shape2-172">
	<path class="st10" d="M377.7,106.7h50.8c7.6,0,13.9,6.3,13.9,13.9v8.3c0,7.6-6.3,13.9-13.9,13.9h-50.8c-7.6,0-13.9-6.3-13.9-13.9
		v-8.3C363.7,112.9,370,106.7,377.7,106.7z"/>
	<text transform="matrix(1 0 0 1 377.2371 127.0244)" class="st8 st9">HPC workload?</text>
</g>
<g id="shape3-176">
	<path class="st10" d="M377.7,166.2h50.8c7.6,0,13.9,6.3,13.9,13.9v8.3c0,7.6-6.3,13.9-13.9,13.9h-50.8c-7.6,0-13.9-6.3-13.9-13.9
		v-8.3C363.7,172.3,370,166.2,377.7,166.2z"/>
	<g>
		<text transform="matrix(1 0 0 1 380.057 181.8413)" class="st8 st9">Microservices</text>
		<text transform="matrix(1 0 0 1 381.1698 191.1128)" class="st8 st9">architecture?</text>
	</g>
</g>
<g id="shape4-181">
	<path class="st10" d="M377.7,225.6h50.8c7.6,0,13.9,6.3,13.9,13.9v8.3c0,7.6-6.3,13.9-13.9,13.9h-50.8c-7.6,0-13.9-6.3-13.9-13.9
		v-8.3C363.7,231.8,370,225.6,377.7,225.6z"/>
	<g>
		<text transform="matrix(1 0 0 1 381.6102 236.6582)" class="st8 st9">Event-driven</text>
		<text transform="matrix(1 0 0 1 367.703 245.9297)" class="st8 st9">workload with short-</text>
		<text transform="matrix(1 0 0 1 375.661 255.2012)" class="st8 st9">lived processes?</text>
	</g>
</g>
<g id="shape5-187">
	<path class="st10" d="M59.5,47.9h50.8c7.6,0,13.9,6.3,13.9,13.9v8.3c0,7.6-6.3,13.9-13.9,13.9H59.5c-7.6,0-13.9-6.3-13.9-13.9v-8.3
		C45.6,54.2,51.8,47.9,59.5,47.9z"/>
	<g>
		<text transform="matrix(1 0 0 1 58.4558 63.7044)" class="st8 st9">Lift-and-shift or</text>
		<text transform="matrix(1 0 0 1 55.906 72.9754)" class="st8 st9">cloud optimized?</text>
	</g>
</g>
<g id="shape6-192">
	<path class="st10" d="M377.7,47h50.8c7.6,0,13.9,6.3,13.9,13.9v8.3c0,7.6-6.3,13.9-13.9,13.9h-50.8c-7.6,0-13.9-6.3-13.9-13.9v-8.3
		C363.7,53.3,370,47,377.7,47z"/>
	<g>
		<text transform="matrix(1 0 0 1 371.2337 58.1298)" class="st8 st9">Do you require full</text>
		<text transform="matrix(1 0 0 1 378.4036 67.4015)" class="st8 st9">control and/or</text>
		<text transform="matrix(1 0 0 1 383.9437 76.6729)" class="st8 st9">portability?</text>
	</g>
</g>
<g id="shape15-198">
	<path class="st10" d="M377.7,285.1h50.8c7.6,0,13.9,6.3,13.9,13.9v8.3c0,7.6-6.3,13.9-13.9,13.9h-50.8c-7.6,0-13.9-6.3-13.9-13.9
		V299C363.7,291.2,370,285.1,377.7,285.1z"/>
	<g>
		<text transform="matrix(1 0 0 1 371.3651 300.7471)" class="st8 st9">Needs full-fledged</text>
		<text transform="matrix(1 0 0 1 378.8055 310.0186)" class="st8 st9">orchestration?</text>
	</g>
</g>
<g id="shape55-203">
	<rect x="401" y="85.3" class="st6" width="31.8" height="15.5"/>
	<text transform="matrix(1 0 0 1 411.742 95.3701)" class="st7 st8 st9">No</text>
</g>
<g id="shape56-207">
	<rect x="440.3" y="170.7" class="st6" width="31.8" height="15.5"/>
	<text transform="matrix(1 0 0 1 451.099 180.7057)" class="st7 st8 st9">No</text>
</g>
<g id="shape1002-211">
	<path class="st11" d="M243.5,47.6l-9.3-9.3h4.6V12.8h9.3v25.5h4.6L243.5,47.6z"/>
</g>
<g id="shape1003-213">
	<path class="st12" d="M231.1,0.4H256c7.6,0,13.9,6.3,13.9,13.9v2.8c0,7.6-6.3,13.9-13.9,13.9h-24.9c-7.6,0-13.9-6.3-13.9-13.9v-2.8
		C217.2,6.6,223.4,0.4,231.1,0.4z"/>
	<text transform="matrix(1 0 0 1 232.5941 17.9773)" class="st8 st9">S</text>
	<text transform="matrix(1 0 0 1 236.6966 17.9773)" class="st8 st9">T</text>
	<text transform="matrix(1 0 0 1 240.22 17.9773)" class="st8 st9">A</text>
	<text transform="matrix(1 0 0 1 245.2034 17.9773)" class="st8 st9">R</text>
	<text transform="matrix(1 0 0 1 249.4759 17.9773)" class="st8 st9">T</text>
</g>
<g id="shape1013-217">
	<path class="st13" d="M18.2,356L18.2,356l3.9-2.2c0.1,0,0.1-0.1,0.1-0.1c0-0.1,0-0.1-0.1-0.1l-3.9-2.2c0,0-0.1,0-0.2,0l-3.9,2.2
		l-0.1,0.1c0,0.1,0,0.1,0.1,0.1L18.2,356L18.2,356z M17.6,361.4L17.6,361.4C17.7,361.4,17.7,361.4,17.6,361.4l0.1-4.6
		c0-0.1,0-0.1-0.1-0.1l-3.9-2.2h-0.1l-0.1,0.1v4.5c0,0.1,0,0.1,0.1,0.1L17.6,361.4L17.6,361.4z M18.7,361.4L18.7,361.4l3.9-2.2
		c0.1,0,0.1-0.1,0.1-0.1v-4.5c0-0.1,0-0.1-0.1-0.1h-0.1l-3.9,2.2c-0.1,0-0.1,0.1-0.1,0.1L18.7,361.4
		C18.6,361.4,18.6,361.4,18.7,361.4L18.7,361.4z M17.1,348.4l-2.4-1.4h-0.1l-2.4,1.4H8c-0.7,0-1.2,0.6-1.2,1.2v8.8H5.1v-12.7h18.7
		v2.7H17.1z M21,364.5h6.4c0.7,0,1.2-0.5,1.3-1.2v-13.6c-0.1-0.7-0.6-1.2-1.3-1.2h-2v-3.1c-0.1-0.7-0.6-1.2-1.3-1.2h-2.2v-3.1
		c-0.1-0.7-0.6-1.2-1.3-1.2H1.2c-0.7,0-1.2,0.6-1.2,1.2v13.6c0,0.7,0.5,1.2,1.2,1.2h2.2v3.1c0,0.7,0.5,1.2,1.2,1.2h2.1v3.1
		c0,0.7,0.5,1.2,1.2,1.2H15c0.7,2.5-0.2,2.9-4.5,2.9v1.4h14.4v-1.3C20.8,367.4,20.3,367,21,364.5z M27.3,362.8H8.6v-12.7h18.7
		C27.3,350.1,27.3,362.8,27.3,362.8z M13.6,344.1l-2.3-1.4h-0.1l-2.4,1.4H4.6c-0.7,0-1.2,0.5-1.2,1.2v8.8H1.6v-12.7h18.7v2.7H13.6z"
		/>
</g>
<g id="shape1014-219">
	<path class="st13" d="M598.3,67L598.3,67l3.9-2.2l0.1-0.1c0-0.1,0-0.1-0.1-0.1l-3.9-2.2h-0.1l-3.9,2.2l-0.1,0.1
		c0,0.1,0,0.1,0.1,0.1L598.3,67C598.2,67,598.2,67,598.3,67z M597.7,72.4L597.7,72.4C597.8,72.4,597.8,72.3,597.7,72.4l0.1-4.6
		c0-0.1,0-0.1-0.1-0.1l-3.9-2.2c0,0-0.1,0-0.2,0l-0.1,0.1v4.5c0,0.1,0,0.1,0.1,0.1L597.7,72.4L597.7,72.4z M598.9,72.4L598.9,72.4
		l3.9-2.2c0.1,0,0.1-0.1,0.1-0.1v-4.5c0-0.1,0-0.1-0.1-0.1c0,0-0.1,0-0.2,0l-3.9,2.2l-0.1,0.1v4.5C598.7,72.3,598.7,72.4,598.9,72.4
		L598.9,72.4z M597.2,59.3l-2.4-1.4h-0.1l-2.3,1.4h-4.2c-0.7,0-1.2,0.6-1.2,1.2v8.8h-1.6V56.6h18.5v2.7H597.2z M601.2,75.4h6.4
		c0.7,0,1.2-0.5,1.3-1.2V60.7c-0.1-0.7-0.6-1.2-1.3-1.2h-2v-3.2c-0.1-0.7-0.6-1.2-1.3-1.2h-2.2V52c-0.1-0.7-0.6-1.2-1.3-1.2h-19.5
		c-0.7,0-1.2,0.6-1.2,1.2v13.6c0,0.7,0.5,1.2,1.2,1.2h2.2v3.1c0,0.7,0.5,1.2,1.2,1.2h2.2v3.1c0,0.7,0.5,1.2,1.2,1.2h7.1
		c0.7,2.5-0.2,2.9-4.5,2.9v1.3h14.4v-1.3C600.9,78.3,600.4,77.9,601.2,75.4L601.2,75.4z M607.4,73.7h-18.7V61h18.7V73.7z M593.8,55
		l-2.3-1.4h-0.1l-2.3,1.4h-4.2c-0.7,0-1.2,0.5-1.2,1.2V65h-1.8V52.3h18.7v2.6L593.8,55L593.8,55z"/>
</g>
<g id="group1015-221">
	<g id="shape1016-222">
		<path class="st14" d="M597.1,125.7c-0.1-0.5-0.5-0.9-1-1h-11.8c-0.4,0-0.7,0.6-0.7,1v11.8c0,0.3,0.2,0.6,0.6,0.7h0.1h12
			c0.4,0,0.9-0.4,0.9-0.7L597.1,125.7L597.1,125.7z"/>
	</g>
	<g id="shape1017-224">
		<path class="st14" d="M605.5,128.2c0-0.2-0.2-0.3-0.4-0.4h-6c-0.2,0-0.3,0.2-0.4,0.4v6c0,0.2,0.2,0.3,0.4,0.4h6
			c0.2,0,0.3-0.2,0.4-0.4V128.2z"/>
	</g>
	<g id="shape1018-226">
		<path class="st14" d="M603.2,123.7c0,0,0.6-4.6-3.6-5.5h-0.9c-0.2,0-0.5,0.1-0.8,0.2v1.9c0,0,0.2-0.2,0.8-0.2c0.3,0,0.5,0,0.8,0.1
			c1,0.4,2,1,1.8,3.6h-1.8l2.9,3.6l2.8-3.6h-2V123.7z"/>
	</g>
	<g id="shape1019-228">
		<path class="st14" d="M606.9,129.6h-0.6v5.9h-5.9v0.5c0,0.2,0.2,0.3,0.4,0.4h6c0.2,0,0.3-0.2,0.4-0.4v-6
			C607.2,129.8,607.1,129.7,606.9,129.6L606.9,129.6z"/>
	</g>
	<g id="shape1020-230">
		<path class="st14" d="M590,131.3h-0.5v5.9h-5.9v0.5c0,0.2,0.2,0.3,0.4,0.4h6c0.2,0,0.3-0.2,0.4-0.4v-6
			C590.4,131.5,590.2,131.3,590,131.3z"/>
	</g>
	<g id="group1021-232">
		<g id="group1022-233">
			<g id="shape1023-234">
				<rect x="586" y="117.9" class="st15" width="8.5" height="1.7"/>
			</g>
			<g id="shape1024-236">
				<rect x="586" y="120.3" class="st15" width="8.5" height="1.7"/>
			</g>
			<g id="shape1025-238">
				<rect x="586" y="122.9" class="st15" width="8.5" height="1.7"/>
			</g>
		</g>
		<g id="group1026-240">
			<g id="shape1027-241">
				<path class="st15" d="M597.1,125.7c-0.1-0.5-0.5-0.9-1-1h-11.8c-0.4,0-0.7,0.6-0.7,1v11.8c0,0.3,0.2,0.6,0.6,0.7h0.1h12
					c0.4,0,0.9-0.4,0.9-0.7L597.1,125.7L597.1,125.7z M595.3,136.5h-10.1V128h10.1V136.5z"/>
			</g>
			<g id="shape1028-243">
				<path class="st15" d="M605.5,128.3c0-0.2-0.2-0.3-0.4-0.4h-6c-0.2,0-0.3,0.2-0.4,0.4v6c0,0.2,0.2,0.3,0.4,0.4h6
					c0.2,0,0.4-0.2,0.4-0.4V128.3z M604.6,133.9h-5.1v-4.2h5.1V133.9z"/>
			</g>
			<g id="shape1029-245">
				<rect x="600.4" y="130.5" class="st15" width="3.4" height="0.8"/>
			</g>
			<g id="shape1030-247">
				<path class="st15" d="M603.2,123.7c0,0,0.6-4.6-3.6-5.5h-0.9c-0.2,0-0.5,0.1-0.8,0.2v1.9c0,0,0.2-0.2,0.8-0.2
					c0.3,0,0.5,0,0.8,0.1c1,0.4,2,1,1.8,3.6h-1.8l2.9,3.6l2.8-3.6L603.2,123.7z"/>
			</g>
			<g id="shape1031-249">
				<path class="st15" d="M606.9,129.7h-0.6v5.9h-5.9v0.5c0,0.2,0.2,0.3,0.4,0.4h6c0.2,0,0.3-0.2,0.4-0.4v-6
					C607.2,129.9,607.1,129.8,606.9,129.7L606.9,129.7z"/>
			</g>
			<g id="shape1032-251">
				<path class="st15" d="M608.5,131.3H608v5.9h-5.9v0.5c0,0.2,0.2,0.3,0.4,0.4h6c0.2,0,0.3-0.2,0.4-0.4v-6
					C608.9,131.5,608.7,131.4,608.5,131.3C608.6,131.3,608.6,131.3,608.5,131.3z"/>
			</g>
		</g>
	</g>
</g>
<g id="group1033-254">
	<g id="group1034-255">
		<g id="shape1036-257">
			<path class="st16" d="M605,182.7v-9.9h-20.9v21h21L605,182.7L605,182.7z"/>
		</g>
	</g>
	<g id="group1037-259">
		<g id="shape1038-260">
			<path class="st13" d="M592.4,192.4h-7v-7h1.4c-0.2-0.5-0.2-0.9-0.2-1.4v-0.1h-2.7v9.8h9.9v-5.8h-1.5L592.4,192.4z"/>
		</g>
		<g id="shape1039-262">
			<path class="st13" d="M602.3,185.4h1.3v7h-7V188h-1.5v5.9h9.9v-9.8h-3.1C602.2,184.4,602.3,184.9,602.3,185.4L602.3,185.4z"/>
		</g>
		<g id="shape1040-264">
			<path class="st13" d="M585.4,181.3v-7h7v4c0.5-0.3,0.9-0.5,1.5-0.7v-4.8H584v9.9h2.9c0.2-0.5,0.5-1,0.9-1.5h-2.4V181.3z"/>
		</g>
		<g id="shape1041-266">
			<path class="st13" d="M596.5,177.6v-3.3h7v7h-3c0.2,0.5,0.2,0.9,0.2,1.4v0.1h4.3v-9.9h-10v4.6h0.4
				C595.8,177.4,596.2,177.5,596.5,177.6z"/>
		</g>
	</g>
	<g id="shape1042-268">
		<path class="st13" d="M601.1,185.3c0-0.8-0.7-1.5-1.5-1.5h-0.2c0.1-0.4,0.2-0.8,0.2-1.2c0-2.3-1.8-4.2-4.1-4.2
			c-1.9,0-3.5,1.2-4,2.9c-0.3-0.1-0.6-0.2-0.9-0.2c-1.5,0-2.8,1.2-2.8,2.8c0,0,0,0,0,0.1c0,1.5,1.2,2.9,2.8,2.9h9.2
			C600.6,186.8,601.2,186.1,601.1,185.3z"/>
	</g>
</g>
<path class="st13" d="M596.8,232.4h-7.5l-4,11.4h4.9l-3.9,11.2l10.6-15h-5.2L596.8,232.4z M578.8,243.8l1.2,1.3l0,0l5.3,5.1
	c0.2,0.2,0.6,0.2,0.8,0c0.2-0.2,0.2-0.6,0-0.8l-5.6-5.6c-0.2-0.2-0.2-0.6,0-0.8l5.4-5.4c0.2-0.2,0.3-0.5,0.1-0.8l-0.1-0.1
	c-0.2-0.2-0.6-0.2-0.8,0l-5.3,5.1l-1.2,1.2C578.5,243.2,578.5,243.6,578.8,243.8z M602.9,243.8c0.2-0.2,0.2-0.6,0-0.8l-1.2-1.2
	l-5.3-5.1c-0.2-0.2-0.6-0.2-0.8,0c-0.2,0.2-0.3,0.5-0.1,0.8l0.1,0.1l5.6,5.4c0.2,0.2,0.2,0.6,0,0.8l-5.6,5.6c-0.2,0.2-0.2,0.6,0,0.8
	c0.2,0.2,0.6,0.2,0.8,0l5.3-5.2l0,0L602.9,243.8z"/>
<g id="shape1048-276">
	<path class="st10" d="M41.4,190.6h50.8c7.6,0,13.9,6.3,13.9,13.9v8.3c0,7.6-6.3,13.9-13.9,13.9H41.4c-7.6,0-13.9-6.3-13.9-13.9
		v-8.3C27.5,196.9,33.8,190.6,41.4,190.6z"/>
	<g>
		<text transform="matrix(1 0 0 1 54.9558 206.4046)" class="st8 st9">Can be</text>
		<text transform="matrix(1 0 0 1 42.1458 215.6761)" class="st8 st9">containerized?</text>
	</g>
</g>
<g id="shape1051-291">
	<rect x="87.8" y="228.7" class="st6" width="31.8" height="15.5"/>
	<text transform="matrix(1 0 0 1 97.9527 238.6938)" class="st7 st8 st9">Y</text>
	<text transform="matrix(1 0 0 1 101.5455 238.6938)" class="st7 st8 st9">es</text>
</g>
<g id="shape1052-295">
	<rect x="26.2" y="228.9" class="st6" width="31.8" height="15.5"/>
	<text transform="matrix(1 0 0 1 37.0483 238.9404)" class="st7 st8 st9">No</text>
</g>
<g id="shape1053-299">
	<path class="st10" d="M376.3,345.3h50.8c7.6,0,13.9,6.3,13.9,13.9v28.5c0,7.6-6.3,13.9-13.9,13.9h-50.8c-7.6,0-13.9-6.3-13.9-13.9
		v-28.5C362.4,351.6,368.5,345.3,376.3,345.3z"/>
	<g>
		<text transform="matrix(1 0 0 1 382.0736 357.2481)" class="st8 st9">Needs .NET</text>
		<text transform="matrix(1 0 0 1 378.2879 366.5195)" class="st8 st9">integration or</text>
		<text transform="matrix(1 0 0 1 375.9085 375.791)" class="st8 st9">fully supported</text>
		<text transform="matrix(1 0 0 1 385.4652 385.0625)" class="st8 st9">Microsoft</text>
		<text transform="matrix(1 0 0 1 371.18 394.334)" class="st8 st9">technology stack?</text>
	</g>
</g>
<g id="group1056-307">
	<g id="shape22-308">
		<rect x="506.2" y="405.1" class="st2" width="68.7" height="36.2"/>
		<g>
			<text transform="matrix(1 0 0 1 509.4544 420.6416)" class="st3 st4 st5">Azu</text>
			<text transform="matrix(1 0 0 1 524.0648 420.6416)" class="st3 st4 st5">r</text>
			<text transform="matrix(1 0 0 1 527.14 420.6416)" class="st3 st4 st5">e Container</text>
			<text transform="matrix(1 0 0 1 515.1722 430.8398)" class="st3 st4 st5">Se</text>
			<text transform="matrix(1 0 0 1 524.3118 430.8398)" class="st3 st4 st5">r</text>
			<text transform="matrix(1 0 0 1 527.7962 430.8398)" class="st3 st4 st5">vice (AKS)</text>
		</g>
	</g>
	<g id="shape1044-313">
		<path class="st13" d="M603.3,420v6.3l3.9-1.5v-3.4L603.3,420z M601.8,425.4l-0.2-0.1V421l0.2-0.1l0.2-0.1l0.3-0.1v4.8l-0.3-0.1
			L601.8,425.4z M600.9,425.2l-0.2-0.1v-3.8l0.6-0.2v4.2l-0.2-0.1H600.9z M600.1,424.9l-0.2-0.1v-3.4l0.5-0.2v3.7H600.1z M599.8,421
			v4.1l2.9,1.2V420L599.8,421z M598.6,413.8v6.3l3.9-1.5v-3.4L598.6,413.8z M598.6,426.3v6.3l3.9-1.5v-3.4L598.6,426.3z
			 M597.1,419.2l-0.2-0.1v-4.3l0.2-0.1l0.2-0.1l0.3-0.1v4.9l-0.3-0.1L597.1,419.2z M596.2,418.9l-0.2-0.1v-3.9l0.6-0.2v4.2l-0.2-0.1
			L596.2,418.9z M595.4,418.6l-0.2-0.1v-3.4l0.5-0.2v3.7H595.4z M595.1,414.8v4.1l2.9,1.2v-6.2L595.1,414.8z M597.1,431.8l-0.2-0.1
			v-4.3l0.2-0.1l0.2-0.1l0.3-0.1v4.9l-0.3-0.1L597.1,431.8z M596.2,431.5l-0.2-0.1v-3.8l0.6-0.2v4.2l-0.2-0.1H596.2z M595.4,431.2
			l-0.2-0.1v-3.4l0.5-0.2v3.7H595.4z M595.1,427.5v4.1l2.9,1.2v-6.3L595.1,427.5z M594.4,420.1v6.3l3.9-1.5v-3.4L594.4,420.1z
			 M592.8,425.5l-0.2-0.1V421l0.2-0.1l0.2-0.1l0.3-0.1v4.8l-0.3-0.1L592.8,425.5z M591.9,425.2l-0.2-0.1v-3.8l0.6-0.2v4.2l-0.2-0.1
			H591.9z M591.1,425l-0.2-0.1v-3.4l0.5-0.2v3.7H591.1z M590.8,421.1v4.1l2.9,1.2v-6.3L590.8,421.1z M589.5,413.8v6.3l3.9-1.5v-3.4
			L589.5,413.8z M589.5,426.4v6.3l3.9-1.5v-3.4L589.5,426.4z M588,419.2l-0.2-0.1v-4.3l0.2-0.1l0.2-0.1l0.3-0.1v4.9l-0.3-0.1
			L588,419.2z M587,418.9l-0.2-0.1v-3.9l0.6-0.2v4.2l-0.2-0.1L587,418.9z M586.3,418.7l-0.2-0.1v-3.4l0.5-0.2v3.7H586.3z M586,414.9
			v4.1l2.9,1.2v-6.3L586,414.9z M588,431.8l-0.2-0.1v-4.3l0.2-0.1l0.2-0.1l0.3-0.1v4.9l-0.3-0.1L588,431.8z M587,431.5l-0.2-0.1
			v-3.8l0.6-0.2v4.2l-0.2-0.1H587z M586.3,431.2l-0.2-0.1v-3.4l0.5-0.2v3.7H586.3z M586,427.5v4.1l2.9,1.2v-6.3L586,427.5z
			 M585.3,420.1v6.3l3.9-1.5v-3.4L585.3,420.1z M583.7,425.5l-0.2-0.1V421l0.2-0.1l0.2-0.1l0.3-0.1v4.8l-0.3-0.1h-0.2V425.5z
			 M582.8,425.2l-0.2-0.1v-3.8l0.6-0.2v4.2l-0.2-0.1H582.8z M582,425l-0.2-0.1v-3.4l0.5-0.2v3.7H582z M581.7,421.1v4.1l2.9,1.2v-6.3
			L581.7,421.1z"/>
	</g>
</g>
<g id="group1057-315">
	<g id="shape20-316">
		<rect x="506.2" y="348.1" class="st2" width="68.7" height="36.2"/>
		<text transform="matrix(1 0 0 1 514.1605 368.7216)" class="st3 st4 st5">Se</text>
		<text transform="matrix(1 0 0 1 523.3001 368.7216)" class="st3 st4 st5">r</text>
		<text transform="matrix(1 0 0 1 526.7845 368.7216)" class="st3 st4 st5">vice </text>
		<text transform="matrix(1 0 0 1 544.1683 368.7216)" class="st3 st4 st5">F</text>
		<text transform="matrix(1 0 0 1 548.1468 368.7216)" class="st3 st4 st5">abric</text>
	</g>
	<g id="group1045-320">
		<g id="shape1046-321">
			<path class="st16" d="M588.1,362.7c-0.1-0.2-0.1-0.3-0.2-0.4l2.3-1.9c0.2,0.2,0.3,0.3,0.5,0.4L588.1,362.7z M594.5,374.9
				c0.8,1.9,2.9,2.7,4.7,2c1.9-0.8,2.7-2.9,2-4.7c-0.2-0.5-0.6-1.1-1.1-1.4l1-3.4c1.9-0.3,3.3-2.2,3-4.2c-0.3-1.9-2.2-3.3-4.2-3
				c-0.5,0.1-1,0.2-1.4,0.5l-2.5-2.1c0.1-0.3,0.2-0.7,0.2-1.1c0.1-2-1.5-3.7-3.5-3.8c-2-0.1-3.7,1.5-3.8,3.5c0,0.1,0,0.2,0,0.3
				c0,0.4,0.1,0.7,0.2,1.1l-2.7,2.2c-0.5-0.2-1.2-0.4-1.8-0.4c-2,0-3.6,1.2-3.6,3.2c0,1.8,1.2,3.2,3,3.6l1,3.5
				c-1.5,1.3-1.6,3.6-0.3,5.1c1.3,1.5,3.6,1.6,5.1,0.3c0.5-0.4,0.8-0.8,1-1.4L594.5,374.9L594.5,374.9L594.5,374.9z M594.8,360.6
				c0.1-0.1,0.2-0.2,0.2-0.2l2.3,1.9l-0.1,0.2L594.8,360.6z"/>
		</g>
		<g id="shape1047-323">
			<path class="st13" d="M604.2,363.8c0-2-1.6-3.6-3.6-3.6c-0.7,0-1.4,0.2-2,0.6l-2.5-2.1c0.1-0.3,0.2-0.7,0.2-1.1
				c0.1-2-1.5-3.7-3.5-3.8c-2-0.1-3.7,1.5-3.8,3.5c0,0.1,0,0.2,0,0.3c0,0.4,0.1,0.7,0.2,1.1l-2.7,2.2c-0.5-0.2-1.2-0.4-1.8-0.4
				c-2,0-3.6,1.2-3.6,3.2c0,1.8,1.2,3.2,3,3.6l1,3.5c-1.5,1.3-1.6,3.6-0.3,5.1c1.3,1.5,3.6,1.6,5.1,0.3c0.5-0.4,0.8-0.9,1-1.5h3.7
				c0.7,1.9,2.8,2.8,4.6,2.1c1.9-0.7,2.8-2.8,2.1-4.6c-0.2-0.6-0.6-1.2-1.1-1.5l1-3.4C602.9,367.1,604.2,365.6,604.2,363.8z
				 M597.9,370c-1.7,0-3.2,1.2-3.6,2.9h-3.4c-0.4-1.7-1.9-2.9-3.6-2.9c-0.2,0-0.4,0-0.5,0.1l-0.8-2.9c1.4-0.5,2.2-1.9,2.2-3.3
				c0-0.5-0.1-1-0.4-1.5l2.3-1.9c1.3,1.2,3.4,1.2,4.7,0l2.3,1.9c-0.8,1.9,0,3.9,1.8,4.8c0,0,0,0,0.1,0l-0.8,2.9
				C598.2,370,598,370,597.9,370z"/>
		</g>
	</g>
</g>
<line class="st0" x1="404.9" y1="142.7" x2="404.9" y2="158"/>
<polygon class="st1" points="402.2,156.2 404.9,166.1 407.6,156.2 "/>
<line class="st0" x1="404.9" y1="202.2" x2="404.9" y2="217.5"/>
<polygon class="st1" points="402.2,215.8 404.9,225.6 407.6,215.8 "/>
<line class="st0" x1="404.9" y1="262.1" x2="404.9" y2="277.4"/>
<polygon class="st1" points="402.2,275.6 404.9,285.5 407.6,275.6 "/>
<line class="st0" x1="404.9" y1="321.1" x2="404.9" y2="336.4"/>
<polygon class="st1" points="402.2,334.7 404.9,344.6 407.6,334.7 "/>
<g id="shape44-121-2">
	<rect x="440.3" y="228.7" class="st6" width="31.8" height="15.5"/>
	<text transform="matrix(1 0 0 1 450.4579 238.6982)" class="st7 st8 st9">Y</text>
	<text transform="matrix(1 0 0 1 454.0501 238.6982)" class="st7 st8 st9">es</text>
</g>
<g id="shape41-108_1_">
	<rect x="108.2" y="111.1" class="st6" width="52.7" height="15.5"/>
	<text transform="matrix(1 0 0 1 124.4488 109.156)" class="st7 st8 st9">Cloud</text>
	<text transform="matrix(1 0 0 1 117.4185 118.4275)" class="st7 st8 st9">optimized</text>
</g>
<g>
	<g>
		<path class="st17" d="M606.3,316.7c-9,0-17.9,0-27,0c0-9,0-17.9,0-27c9,0,17.9,0,27,0C606.3,298.7,606.3,307.7,606.3,316.7z
			 M588.1,312.4c0.1,0,0.2,0.1,0.3,0.1c2.9,0,5.8,0,8.7,0c0.5,0,0.6-0.3,0.6-0.7c0-1.9,0-3.8,0-5.6c0-1,0-2.1,0-3.1c0-0.9-0.1-1-1-1
			c-2.8,0-5.5,0-8.3,0c-0.5,0-0.6,0.2-0.6,0.6c0,3.1,0,6.1,0,9.2C587.9,312,588,312.2,588.1,312.4z M598.3,305.8c0.2,0,0.3,0,0.4,0
			c1.9-0.3,3.1-1.7,3.3-3.4c0.2-1.6-0.8-3.4-2.4-4c-0.5-0.2-0.5-0.4-0.6-0.8c-0.5-2.8-3.6-4.2-5.6-3.4c-0.9,0.4-1.7,0.8-2.3,1.6
			c-1.4-0.8-2.7-1-4.1-0.1c-1.3,0.8-1.8,2.2-1.5,3.7c-1.8,1.2-2.3,2.7-1.6,4.3c0.6,1.4,2.1,2.2,3.4,1.9c0-1,0-2.1,0-3.1
			c0-0.9,0.2-1.2,1.2-1.2c1.2,0,2.4,0,3.6,0c0-0.7,0-1.3,0-1.9c-0.3,0-0.6,0-1.1-0.1c0.7-0.9,1.2-1.7,1.9-2.6
			c0.6,0.9,1.2,1.7,1.9,2.6c-0.5,0-0.7,0.1-1.1,0.1c0,0.6,0,1.2,0,1.9c1.2,0,2.4,0,3.6,0c0.8,0,1.1,0.2,1.1,1.1
			C598.3,303.6,598.3,304.7,598.3,305.8z"/>
		<path class="st18" d="M598.3,305.8c0-1.1,0-2.2,0-3.2c0-0.8-0.2-1.1-1.1-1.1c-1.2,0-2.4,0-3.6,0c0-0.6,0-1.2,0-1.9
			c0.3,0,0.6-0.1,1.1-0.1c-0.6-0.8-1.2-1.7-1.9-2.6c-0.6,0.8-1.2,1.7-1.9,2.6c0.4,0,0.7,0.1,1.1,0.1c0,0.6,0,1.2,0,1.9
			c-1.2,0-2.4,0-3.6,0c-0.9,0-1.2,0.2-1.2,1.2s0,2.1,0,3.1c-1.3,0.3-2.9-0.5-3.4-1.9c-0.7-1.7-0.2-3.2,1.6-4.3
			c-0.2-1.5,0.2-2.9,1.5-3.7c1.3-0.8,2.7-0.8,4.1,0.1c0.6-0.8,1.4-1.2,2.3-1.6c2-0.8,5.1,0.6,5.6,3.4c0.1,0.5,0.2,0.6,0.6,0.8
			c1.6,0.6,2.7,2.4,2.4,4c-0.2,1.7-1.4,3.1-3.3,3.4C598.5,305.8,598.5,305.8,598.3,305.8z"/>
		<path class="st19" d="M588.1,312.4c-0.1-0.2-0.2-0.4-0.2-0.5c0-3.1,0-6.1,0-9.2c0-0.5,0.2-0.6,0.6-0.6c2.8,0,5.5,0,8.3,0
			c0.9,0,1,0.1,1,1c0,1,0,2.1,0,3.1c-0.2-0.3-0.4-0.6-0.5-0.9c-0.1-0.4-0.1-0.8-0.2-1.2c-0.1-0.4-0.2-0.6-0.7-0.5
			c-0.2-0.1-0.3-0.2-0.5-0.2c-2.2,0-4.6,0-6.8,0c0,0,0,0.1-0.1,0.1c0,0.1,0,0.2,0,0.2c0,0.5,0,0.9,0,1.4c0,2.1,0,4.2,0,6.2
			c-0.2,0.2-0.2,0.3-0.4,0.5C588.5,311.9,588.3,312.1,588.1,312.4z"/>
		<path class="st20" d="M596.5,303.4c0.4-0.1,0.6,0.2,0.7,0.5c0.1,0.4,0,0.8,0.2,1.2c0.1,0.3,0.3,0.6,0.5,0.9c0,1.9,0,3.8,0,5.6
			c0,0.4-0.1,0.7-0.6,0.7c-2.9,0-5.8,0-8.7,0c-0.1,0-0.2-0.1-0.3-0.1c0.2-0.2,0.5-0.5,0.6-0.8c0.2-0.2,0.2-0.3,0.4-0.5
			c0.2,0.1,0.3,0.1,0.5,0.1c2.2,0,4.2,0,6.4,0c0.2,0,0.2,0,0.4-0.1c0-0.3,0-0.5,0-0.8C596.5,308.2,596.5,305.8,596.5,303.4z"/>
		<path class="st21" d="M596.5,303.4c0,2.3,0,4.7,0,7c0,0.2,0,0.5,0,0.8c-0.2,0-0.3,0.1-0.4,0.1c-2.2,0-4.2,0-6.4,0
			c-0.2,0-0.3-0.1-0.5-0.1c0-2.1,0-4.2,0-6.2c0-0.5,0-0.9,0-1.4c0-0.1,0-0.2,0-0.2s0-0.1,0.1-0.1c2.2,0,4.6,0,6.8,0
			C596.2,303.2,596.3,303.4,596.5,303.4z M592.1,310.6c0.5,0,1,0,1.5,0c0-2.2,0-4.4,0-6.6c-0.5,0-0.9,0-1.5,0
			C592.1,306.2,592.1,308.4,592.1,310.6z M591.4,304c-0.5,0-1,0-1.5,0c0,2.2,0,4.4,0,6.6c0.3,0,0.6,0,0.8,0c0.5,0.1,0.6-0.2,0.6-0.7
			c0-1.5,0-3.2,0-4.7C591.4,304.8,591.4,304.4,591.4,304z M594.2,304c0,0.2,0,0.5,0,0.7c0,1.5,0,3.1,0,4.7c0,1.3,0,1.3,1.3,1.3
			c0,0,0.1,0,0.2-0.1c0-2.2,0-4.3,0-6.6C595.2,304,594.8,304,594.2,304z"/>
		<path class="st20" d="M589.1,303.6c0,0.5,0,0.9,0,1.4C589.1,304.5,589.1,304.1,589.1,303.6z"/>
		<path class="st20" d="M589.1,303.2C589.1,303.2,589.1,303.3,589.1,303.2C589.1,303.3,589.1,303.3,589.1,303.2z"/>
		<path class="st22" d="M592.1,310.6c0-2.2,0-4.4,0-6.6c0.5,0,0.9,0,1.5,0c0,2.2,0,4.4,0,6.6C593.1,310.6,592.6,310.6,592.1,310.6z"
			/>
		<path class="st23" d="M591.4,304c0,0.5,0,0.8,0,1.2c0,1.5,0,3.2,0,4.7c0,0.5-0.1,0.8-0.6,0.7c-0.2,0-0.5,0-0.8,0
			c0-2.2,0-4.4,0-6.6C590.4,304,590.8,304,591.4,304z"/>
		<path class="st24" d="M594.2,304c0.5,0,1,0,1.5,0c0,2.2,0,4.4,0,6.6c-0.1,0-0.1,0.1-0.2,0.1c-1.3,0.1-1.3,0.1-1.3-1.3
			c0-1.5,0-3.1,0-4.7C594.2,304.5,594.2,304.2,594.2,304z"/>
	</g>
</g>
<line class="st0" x1="299.9" y1="65.7" x2="355.7" y2="65.7"/>
<polygon class="st1" points="353.9,68.4 363.7,65.7 353.9,63.1 "/>
<line class="st0" x1="187.6" y1="66.2" x2="131.8" y2="66.2"/>
<polygon class="st1" points="133.6,63.1 123.8,65.8 133.6,68.4 "/>
<line class="st25" x1="106.1" y1="125.2" x2="355.7" y2="125.2"/>
<polygon class="st1" points="353.9,127.9 363.7,125.2 353.9,122.6 "/>
<line class="st0" x1="106.1" y1="83.9" x2="106.1" y2="124.7"/>
<line class="st25" x1="84.9" y1="305.5" x2="355.5" y2="305.5"/>
<polygon class="st1" points="353.7,308.1 363.5,305.4 353.7,302.8 "/>
<line class="st0" x1="84.9" y1="226.4" x2="84.9" y2="305.5"/>
</svg>
