<svg id="svg4157" xmlns="http://www.w3.org/2000/svg" viewBox="0 0 428.11 433.87"><defs><style>text{font-family:segoe-ui_normal,Segoe UI,Segoe,Segoe WP,Helvetica Neue,Helvetica,sans-serif;font-weight:500}.cls-1,.cls-17,.cls-19,.cls-2{fill:none;}.cls-1{stroke:#d2e4f2;stroke-width:3.6px;}.cls-1,.cls-13,.cls-2{stroke-linecap:round;}.cls-2{stroke:#7cabbf;stroke-width:10px;}.cls-3{fill:#7cabbf;}.cls-4{fill:#5da2d7;stroke:#5da2d7;}.cls-5{fill:#dedede;}.cls-6{fill:#eaeaea;}.cls-13,.cls-15,.cls-29,.cls-30,.cls-31,.cls-32,.cls-33,.cls-34,.cls-36,.cls-7{fill:#fff;}.cls-8{fill:#3899c5;}.cls-9{fill:#58b6da;}.cls-10{fill:#1881ce;}.cls-11{fill:#0271c5;}.cls-12{fill:#797979;}.cls-13{stroke:#3c3c3c;}.cls-13,.cls-15{stroke-width:1.5px;}.cls-14{fill:#f1f1f1;}.cls-15{stroke:#fff;stroke-miterlimit:3;}.cls-16{fill:#828293;}.cls-18{fill:#666;}.cls-19{stroke:#078431;stroke-miterlimit:10;stroke-width:2px;}.cls-20{font-size:10px;}.cls-20,.cls-21{letter-spacing:-0.03em;}.cls-22{font-size:11px;}.cls-23{letter-spacing:-0.03em;}.cls-24{letter-spacing:-0.1em;}.cls-25{letter-spacing:-0.03em;}.cls-26{fill:#3b3b3b;}.cls-27{fill:#ba1418;}.cls-28{fill:#0072c6;}.cls-29{opacity:0.17;}.cls-29,.cls-30,.cls-31,.cls-32,.cls-33,.cls-34,.cls-36{isolation:isolate;}.cls-30{opacity:0.72;}.cls-31{opacity:0.28;}.cls-32{opacity:0.86;}.cls-33{opacity:0.31;}.cls-34{opacity:0.63;}.cls-35{fill:#1b348e;}.cls-36{opacity:0.59;}.cls-37{fill:#5db4d7;}.cls-38{fill:#7a7a7a;}.cls-39{opacity:0.15;}</style></defs><title>guide-steps</title><circle id="circle5592" class="cls-1" cx="215.41" cy="246.12" r="173.31" transform="translate(-95.61 364.64) rotate(-72)"/><g id="circle5592-2" data-name="circle5592"><path class="cls-2" d="M310.76,215a103.45,103.45,0,0,1-3.1,71.9" transform="translate(-10.39 -10.3)"/><polygon class="cls-3" points="310.07 280.65 285.97 269.05 292.17 286.85 310.07 280.65"/></g><g id="circle5592-3" data-name="circle5592"><path class="cls-2" d="M274.06,328.45a100.87,100.87,0,0,1-28.7,14.6,103.34,103.34,0,0,1-40.6,4.7" transform="translate(-10.39 -10.3)"/><polygon class="cls-3" points="194.37 350.75 197.97 324.35 182.97 335.75 194.37 350.75"/></g><g id="circle5592-4" data-name="circle5592"><path class="cls-2" d="M155.26,330.85a102.32,102.32,0,0,1-22.7-22.8,101,101,0,0,1-17-37.2" transform="translate(-10.39 -10.3)"/><polygon class="cls-3" points="92.37 264.65 118.67 259.95 103.17 249.15 92.37 264.65"/></g><g id="circle5592-5" data-name="circle5592"><path class="cls-2" d="M212.06,145.35a101.13,101.13,0,0,1,31.8,5.1,102.25,102.25,0,0,1,35.6,20.1" transform="translate(-10.39 -10.3)"/><polygon class="cls-3" points="276.97 149.35 258.37 168.55 277.27 168.25 276.97 149.35"/></g><g id="circle5592-6" data-name="circle5592"><path class="cls-2" d="M116.86,216.15a103.21,103.21,0,0,1,14.6-28.6,104.58,104.58,0,0,1,19.5-20.3" transform="translate(-10.39 -10.3)"/><polygon class="cls-3" points="131.47 147.15 146.97 168.85 150.07 150.25 131.47 147.15"/></g><path id="path4809" class="cls-4" d="M196.76,259.05" transform="translate(-10.39 -10.3)"/><g id="g4320"><path id="path9" class="cls-5" d="M215.48,172.29a73.89,73.89,0,1,0,73.89,73.89A73.66,73.66,0,0,0,215.48,172.29Zm0,143.15a69.27,69.27,0,1,1,69.27-69.27A69.1,69.1,0,0,1,215.48,315.44Z" transform="translate(-10.39 -10.3)"/><circle id="circle11" class="cls-6" cx="205.09" cy="235.88" r="69.27"/><polygon id="polygon13" class="cls-5" points="205.09 171.23 192.68 213.94 192.68 213.94 201.05 218.56 205.09 220.58 205.09 217.41 205.09 171.23"/><polygon id="polygon15" class="cls-5" points="208.84 253.19 205.38 251.17 205.09 251.17 205.09 251.46 205.09 254.35 205.09 300.53 217.21 257.81 208.84 253.19"/><polygon id="polygon17" class="cls-7" points="205.09 171.23 217.21 213.94 217.21 213.94 208.84 218.56 205.09 220.58 205.09 217.41 205.09 171.23"/><polygon id="polygon19" class="cls-7" points="201.05 253.19 204.51 251.17 205.09 251.17 205.09 251.46 205.09 254.35 205.09 300.53 192.68 257.81 201.05 253.19"/><polygon id="polygon21" class="cls-5" points="140.44 235.88 182.87 248 182.87 248 187.49 239.63 189.79 235.88 186.62 235.88 140.44 235.88"/><polygon id="polygon23" class="cls-5" points="222.41 231.84 220.39 235.59 220.1 235.88 220.68 235.88 223.56 235.88 269.74 235.88 227.03 223.75 222.41 231.84"/><polygon id="polygon25" class="cls-7" points="140.44 235.88 182.87 223.75 182.87 223.75 187.49 231.84 189.79 235.88 186.62 235.88 140.44 235.88"/><polygon id="polygon27" class="cls-7" points="222.41 239.63 220.39 236.17 220.1 235.88 220.68 235.88 223.56 235.88 269.74 235.88 227.03 248 222.41 239.63"/><polygon id="polygon29" class="cls-5" points="189.79 235.88 189.79 235.88 205.09 235.88 170.75 201.53 170.75 201.53 189.79 235.88"/><polygon id="polygon31" class="cls-7" points="189.79 235.88 189.79 235.88 205.09 235.88 170.75 270.22 170.75 270.22 189.79 235.88"/><polygon id="polygon33" class="cls-5" points="205.09 251.17 205.09 250.88 205.09 235.88 170.75 270.22 170.75 270.22 205.09 251.17"/><polygon id="polygon35" class="cls-7" points="205.09 251.17 205.09 250.88 205.09 235.88 239.15 270.22 239.15 270.22 205.09 251.17"/><polygon id="polygon37" class="cls-5" points="220.1 235.88 220.1 235.88 205.09 235.88 239.15 270.22 239.15 270.22 220.1 235.88"/><polygon id="polygon39" class="cls-7" points="220.1 235.88 220.1 235.88 205.09 235.88 239.15 201.53 239.15 201.53 220.1 235.88"/><polygon id="polygon41" class="cls-5" points="205.09 220.58 205.09 220.87 205.09 235.88 239.15 201.53 239.15 201.53 205.09 220.58"/><polygon id="polygon43" class="cls-7" points="205.09 220.58 205.09 220.87 205.09 235.88 170.75 201.53 170.75 201.53 205.09 220.58"/><polygon id="polygon45" class="cls-8" points="159.49 281.77 214.33 245.11 250.98 190.28 195.86 226.64 195.86 226.64 159.49 281.77"/><polygon id="polygon47" class="cls-9" points="159.49 281.77 214.33 245.11 205.09 235.88 159.49 281.77"/><polygon id="polygon49" class="cls-10" points="250.98 190.28 195.86 226.64 205.09 235.88 250.98 190.28"/><polygon id="polygon51" class="cls-11" points="250.98 190.28 214.33 245.11 204.8 235.59 250.98 190.28"/><circle id="circle53" class="cls-12" cx="205.09" cy="235.88" r="4.62"/></g><circle id="circle5309" class="cls-13" cx="311.26" cy="214.96" r="35.1" transform="translate(-61.58 96.4) rotate(-18)"/><path id="path5173" class="cls-4" d="M58.46,190.65" transform="translate(-10.39 -10.3)"/><path id="path5185" class="cls-4" d="M208.06,167.35" transform="translate(-10.39 -10.3)"/><circle id="path4715" class="cls-13" cx="204.97" cy="135.05" r="45.4"/><circle id="circle4731" class="cls-13" cx="119.49" cy="215" r="35.1" transform="translate(-132.3 251.9) rotate(-72)"/><circle id="circle4743" class="cls-13" cx="158.45" cy="327.82" r="35.1" transform="translate(-210.29 253.02) rotate(-54)"/><circle id="circle4749" class="cls-13" cx="272.68" cy="326.16" r="35.1" transform="translate(-150.03 212.28) rotate(-36)"/><path class="cls-11" d="M216.2,50.32c-7.56-3.78-26.56-6.64-30.34-6.64v42.7c3.78,0,22.78,2.86,30.34,6.64,7.56-3.78,26.56-6.64,30.34-6.64V43.68C242.76,43.68,223.75,46.54,216.2,50.32Z" transform="translate(-10.39 -10.3)"/><path class="cls-5" d="M216.2,47.46c-7.56-3.78-23.7-6.64-27.48-6.64v42.7c3.78,0,19.92,2.86,27.48,6.64h0c7.56-3.78,23.7-6.64,27.48-6.64V40.82C239.9,40.82,223.75,43.68,216.2,47.46Z" transform="translate(-10.39 -10.3)"/><path class="cls-14" d="M216.2,44.59V87.3c7.56-3.78,20.84-6.64,24.73-6.64V38C237,38,223.75,40.82,216.2,44.59Z" transform="translate(-10.39 -10.3)"/><path class="cls-6" d="M191.47,38v42.7c3.78,0,17.06,2.86,24.73,6.64V44.59C208.64,40.82,195.36,38,191.47,38Z" transform="translate(-10.39 -10.3)"/><path class="cls-12" d="M212.42,51.23a80.18,80.18,0,0,0-17.06-4.69V44.59a80.18,80.18,0,0,1,17.06,4.69Z" transform="translate(-10.39 -10.3)"/><path class="cls-12" d="M212.42,57a80.18,80.18,0,0,0-17.06-4.69V50.32A80.18,80.18,0,0,1,212.42,55Z" transform="translate(-10.39 -10.3)"/><path class="cls-12" d="M212.42,62.57a80.18,80.18,0,0,0-17.06-4.69V55.93a80.18,80.18,0,0,1,17.06,4.69Z" transform="translate(-10.39 -10.3)"/><path class="cls-12" d="M212.42,68.29a80.18,80.18,0,0,0-17.06-4.69V61.65a80.18,80.18,0,0,1,17.06,4.69Z" transform="translate(-10.39 -10.3)"/><path class="cls-12" d="M212.42,74a80.18,80.18,0,0,0-17.06-4.69V67.38a80.18,80.18,0,0,1,17.06,4.69Z" transform="translate(-10.39 -10.3)"/><path class="cls-12" d="M212.42,79.74A80.18,80.18,0,0,0,195.36,75V73.1a80.18,80.18,0,0,1,17.06,4.69Z" transform="translate(-10.39 -10.3)"/><path class="cls-12" d="M220,51.23A80.18,80.18,0,0,1,237,46.54V44.59A80.18,80.18,0,0,0,220,49.29Z" transform="translate(-10.39 -10.3)"/><path class="cls-12" d="M220,57A80.18,80.18,0,0,1,237,52.26V50.32A80.18,80.18,0,0,0,220,55Z" transform="translate(-10.39 -10.3)"/><path class="cls-12" d="M220,62.57A80.18,80.18,0,0,1,237,57.87V55.93A80.18,80.18,0,0,0,220,60.62Z" transform="translate(-10.39 -10.3)"/><path class="cls-12" d="M220,68.29A80.18,80.18,0,0,1,237,63.6V61.65A80.18,80.18,0,0,0,220,66.35Z" transform="translate(-10.39 -10.3)"/><path class="cls-12" d="M220,74A80.18,80.18,0,0,1,237,69.32V67.38A80.18,80.18,0,0,0,220,72.07Z" transform="translate(-10.39 -10.3)"/><path class="cls-12" d="M220,79.74A80.18,80.18,0,0,1,237,75V73.1A80.18,80.18,0,0,0,220,77.8Z" transform="translate(-10.39 -10.3)"/><path class="cls-1" d="M215.36,350.55" transform="translate(-10.39 -10.3)"/><g id="shape62-3"><path id="path3361" class="cls-15" d="M116.16,363.45H91v45.9h36.7v-34.4l-11.5-11.5Z" transform="translate(-10.39 -10.3)"/></g><path id="path3366" class="cls-7" d="M116.16,363.45H91v45.9h36.7v-34.4l-11.5-11.5Z" transform="translate(-10.39 -10.3)"/><path id="path3371" class="cls-16" d="M116.16,363.45H91v45.9h36.7v-34.4l-11.5-11.5Zm9.2,43.5h-32v-41.2h21.8V376h10.3v30.9Z" transform="translate(-10.39 -10.3)"/><g id="shape69-17"><rect id="rect3396" class="cls-17" x="80.57" y="353.15" width="36.7" height="45.8"/></g><g id="rect3406"><rect class="cls-7" x="87.77" y="374.25" width="4.1" height="4.2"/><path class="cls-18" d="M98.16,384.55c1.3-.1,2.6-.2,4.1-.2a.22.22,0,0,1,.2.2h0v4.1a.27.27,0,0,1-.3.3h-4a.22.22,0,0,1-.2-.2,17,17,0,0,1,.1-2.2Zm0,0,.1,2.2c0,.7.1,1.4.1,2l-.2-.2h4l-.3.3v-4.1l.2.2C101,384.75,99.56,384.65,98.16,384.55Z" transform="translate(-10.39 -10.3)"/></g><path class="cls-18" d="M104.76,386.15l19,.9-19,.9a.9.9,0,1,1,0-1.8Z" transform="translate(-10.39 -10.3)"/><path class="cls-19" d="M96.26,384.85s2.2,1.2,3.6,2.2c2.6-8.6,5.7-9.1,5.7-9.1" transform="translate(-10.39 -10.3)"/><g id="rect3406-2" data-name="rect3406"><rect class="cls-7" x="87.57" y="380.75" width="4.1" height="4.2"/><path class="cls-18" d="M98,391c1.3-.1,2.6-.2,4.1-.2a.22.22,0,0,1,.2.2h0v4.1a.27.27,0,0,1-.3.3H98a.22.22,0,0,1-.2-.2,17,17,0,0,1,.1-2.2Zm0,0,.1,2.2c0,.7.1,1.4.1,2L98,395h4l-.3.3v-4.1l.2.2C100.66,391.25,99.36,391.15,98,391Z" transform="translate(-10.39 -10.3)"/></g><path class="cls-18" d="M104.46,392.75l19,.9-19,.9a1,1,0,0,1-1-.9.92.92,0,0,1,1-.9Z" transform="translate(-10.39 -10.3)"/><g id="rect3406-3" data-name="rect3406"><rect class="cls-7" x="87.57" y="387.65" width="4.1" height="4.2"/><path class="cls-18" d="M98,397.95c1.3-.1,2.6-.2,4.1-.2a.22.22,0,0,1,.2.2h0V402a.27.27,0,0,1-.3.3H98a.22.22,0,0,1-.2-.2,17,17,0,0,1,.1-2.2Zm0,0,.1,2.2c0,.7.1,1.4.1,2l-.2-.2h4l-.3.3v-4.1l.2.2A16.11,16.11,0,0,0,98,397.95Z" transform="translate(-10.39 -10.3)"/></g><path class="cls-18" d="M104.46,399.55l19,.9-19,.9a1,1,0,0,1-1-.9.92.92,0,0,1,1-.9Z" transform="translate(-10.39 -10.3)"/><text class="cls-20" transform="translate(184.49 8.5)"><tspan class="cls-21">R</tspan><tspan x="5.69" y="0">eference</tspan><tspan x="-7.18" y="12">Architectures</tspan></text><text class="cls-22" transform="translate(175.48 130.87)">Architecture<tspan class="cls-23" x="15.68" y="13.2">S</tspan><tspan x="21.17" y="13.2">tyles</tspan></text><text class="cls-20" transform="translate(275.72 200.85)"><tspan class="cls-24">T</tspan><tspan x="4.26" y="0">echnology</tspan><tspan x="8.04" y="12">Choices</tspan></text><text class="cls-20" transform="translate(93.87 200.89)">Design<tspan class="cls-25" x="-2.64" y="12">P</tspan><tspan x="2.62" y="12">atterns</tspan></text><text class="cls-20" transform="translate(132.38 313.72)">Quality<tspan x="2.84" y="12">Pillars</tspan></text><text class="cls-20" transform="translate(247.07 312.06)">Design<tspan x="-5.76" y="12">Principles</tspan></text><g id="g4442"><polygon id="svg_1" data-name="svg 1" class="cls-26" points="356.78 153.56 413.08 153.56 413.08 153.56 409.23 158.84 359.96 158.84 356.78 153.56"/><path id="svg_2" data-name="svg 2" class="cls-27" d="M367.17,169.14h56.3v17.59a1.74,1.74,0,0,1-1.76,1.76H368.92a1.74,1.74,0,0,1-1.76-1.76Z" transform="translate(-10.39 -10.3)"/><path id="svg_3" data-name="svg 3" class="cls-27" d="M368.92,155.06h52.78a1.74,1.74,0,0,1,1.76,1.76v7h-56.3v-7A1.74,1.74,0,0,1,368.92,155.06Z" transform="translate(-10.39 -10.3)"/><rect id="svg_4" data-name="svg 4" class="cls-5" x="381.41" y="158.84" width="7.04" height="3.52"/><rect id="svg_5" data-name="svg 5" class="cls-26" x="383.17" y="158.84" width="3.52" height="1.76"/><rect id="svg_6" data-name="svg 6" class="cls-5" x="381.41" y="150.04" width="7.04" height="3.52"/><rect id="svg_7" data-name="svg 7" class="cls-26" x="383.17" y="151.8" width="3.52" height="1.76"/><path id="svg_8" data-name="svg 8" class="cls-26" d="M384.76,152.42v2.64h3.52v-.88h14.08v.88h3.52v-2.64a1.74,1.74,0,0,0-1.76-1.76H386.52A1.74,1.74,0,0,0,384.76,152.42Z" transform="translate(-10.39 -10.3)"/></g><rect class="cls-7" x="347.11" y="192.67" width="81" height="29.46"/><text class="cls-20" transform="translate(354.83 202.25)">Compute and<tspan class="cls-23" x="-5.73" y="12">S</tspan><tspan x="-0.74" y="12">torage Options</tspan></text><rect class="cls-7" y="194.04" width="65.33" height="30.72"/><text class="cls-20" transform="translate(3.23 206.33)">Cloud Design<tspan class="cls-25" x="11.74" y="12">P</tspan><tspan x="17" y="12">atterns</tspan></text><text class="cls-20" transform="translate(67.18 417.76)">Design <tspan class="cls-21" x="33.19" y="0">R</tspan><tspan x="38.88" y="0">eview</tspan><tspan x="10.2" y="12">Checklists</tspan></text><text class="cls-20" transform="translate(275.36 425.23)">Best Practices</text><g id="_1180_Grids" data-name=" 1180 Grids"><polyline class="cls-28" points="21.23 129.18 59.37 142.23 59.37 160.88 51.92 182.73 9.97 174.32 21.23 129.18"/><path class="cls-29" d="M62.31,193c-.15-.39,0-28.18,0-28.18l7.44,6.33Z" transform="translate(-10.39 -10.3)"/><polygon class="cls-30" points="59.37 142.23 59.37 160.88 51.92 154.55 59.37 142.23"/><polygon class="cls-30" points="21.23 129.18 59.37 142.23 51.92 154.55 21.23 129.18"/><polygon class="cls-31" points="23.84 150.69 51.92 154.55 9.97 174.32 23.84 150.69"/><polygon class="cls-32" points="23.84 150.69 21.23 129.18 51.92 154.55 23.84 150.69"/><polygon class="cls-33" points="51.92 154.55 59.37 142.23 46.17 137.68 51.92 154.55"/><polygon class="cls-34" points="9.97 174.32 38.34 175.58 51.92 154.55 9.97 174.32"/><polygon class="cls-28" points="51.92 182.73 38.34 175.58 51.92 154.55 51.92 182.73"/><polygon class="cls-35" points="9.97 174.32 51.92 182.73 38.34 175.58 9.97 174.32"/><polygon class="cls-36" points="23.84 150.69 9.97 174.32 21.23 129.18 23.84 150.69"/></g><g id="_1180_Grids-2" data-name=" 1180 Grids"><path class="cls-37" d="M334.48,380.28h0v-.35c0-8.87-7.6-16.24-16.94-16.36-.23-.35-5.53.11-5.53.11h0c-8.41,1-15,8.07-15,16.24,0,.23-.92,6.68,5.64,12.1,3,2.65,6.1,9.79,6.57,11.87l.35.69h12.21l.35-.69c.46-2.07,3.69-9.22,6.57-11.75C335.29,386.61,334.48,380.51,334.48,380.28Z" transform="translate(-10.39 -10.3)"/><rect class="cls-38" x="299.44" y="398.43" width="12.21" height="3.92"/><polygon class="cls-38" points="303.24 410.65 307.74 410.65 311.54 406.61 299.44 406.61 303.24 410.65"/><g class="cls-39"><path class="cls-7" d="M317.55,363.57c-.23-.35-5.53.11-5.53.11-8.41,1-15,8.07-15,16.24,0,.23-.81,5.88,4.49,11.06l24.88-24.88A16.92,16.92,0,0,0,317.55,363.57Z" transform="translate(-10.39 -10.3)"/></g><path class="cls-7" d="M307.05,376l.44,0a4.27,4.27,0,1,1,8.06-2.4,4.27,4.27,0,0,1,7.43,2.64,4.27,4.27,0,1,1,1.48,8.27H307.05a4.27,4.27,0,0,1,0-8.53Z" transform="translate(-10.39 -10.3)"/></g></svg>