<svg id="svg4157" xmlns="http://www.w3.org/2000/svg" width="429.61" height="431.87" viewBox="0 0 429.61 431.87"><defs><style>.cls-1,.cls-2,.cls-22,.cls-24,.cls-4{fill:none;}.cls-1,.cls-4{stroke:#d2e4f2;stroke-width:3.6px;}.cls-1,.cls-14,.cls-15,.cls-2,.cls-4{stroke-linecap:round;}.cls-2{stroke:#7cabbf;stroke-width:10px;}.cls-3{fill:#7cabbf;}.cls-15,.cls-16,.cls-18,.cls-33,.cls-34,.cls-35,.cls-36,.cls-37,.cls-38,.cls-4{isolation:isolate;}.cls-16,.cls-5{fill:#5da2d7;stroke:#5da2d7;}.cls-6{fill:#dedede;}.cls-7{fill:#eaeaea;}.cls-14,.cls-15,.cls-18,.cls-20,.cls-8{fill:#fff;}.cls-9{fill:#3899c5;}.cls-10{fill:#58b6da;}.cls-11{fill:#1881ce;}.cls-12{fill:#0271c5;}.cls-13{fill:#797979;}.cls-14,.cls-15{stroke:#3c3c3c;}.cls-14,.cls-15,.cls-20{stroke-width:1.5px;}.cls-17{fill:#ffd214;}.cls-18{opacity:0.5;}.cls-19{fill:#f1f1f1;}.cls-20{stroke:#fff;stroke-miterlimit:3;}.cls-21{fill:#828293;}.cls-23{fill:#666;}.cls-24{stroke:#078431;stroke-miterlimit:10;stroke-width:2px;}.cls-25{font-size:10px;}.cls-25,.cls-27{font-family:SegoeUI, Segoe UI;}.cls-26{letter-spacing:-0.03em;}.cls-27{font-size:11px;}.cls-28{letter-spacing:-0.03em;}.cls-29{letter-spacing:-0.1em;}.cls-30{letter-spacing:-0.03em;}.cls-31{fill:#3b3b3b;}.cls-32{fill:#ba1418;}.cls-33,.cls-34,.cls-35,.cls-36,.cls-37,.cls-38{fill:red;}.cls-33{opacity:0.05;}.cls-34{opacity:0.07;}.cls-35{opacity:0.1;}.cls-36{opacity:0.2;}.cls-37{opacity:0.15;}.cls-38{opacity:0.12;}</style></defs><title>guide-steps</title><circle id="circle5592" class="cls-1" cx="215.41" cy="246.12" r="173.31" transform="translate(-94.11 362.64) rotate(-72)"/><g id="circle5592-2" data-name="circle5592"><path class="cls-2" d="M310.76,215a103.45,103.45,0,0,1-3.1,71.9" transform="translate(-8.89 -12.3)"/><polygon class="cls-3" points="311.57 278.65 287.47 267.05 293.67 284.85 311.57 278.65"/></g><g id="circle5592-3" data-name="circle5592"><path class="cls-2" d="M274.06,328.45a100.87,100.87,0,0,1-28.7,14.6,103.34,103.34,0,0,1-40.6,4.7" transform="translate(-8.89 -12.3)"/><polygon class="cls-3" points="195.87 348.75 199.47 322.35 184.47 333.75 195.87 348.75"/></g><g id="circle5592-4" data-name="circle5592"><path class="cls-2" d="M155.26,330.85a102.32,102.32,0,0,1-22.7-22.8,101,101,0,0,1-17-37.2" transform="translate(-8.89 -12.3)"/><polygon class="cls-3" points="93.87 262.65 120.17 257.95 104.67 247.15 93.87 262.65"/></g><g id="circle5592-5" data-name="circle5592"><path class="cls-2" d="M212.06,145.35a101.13,101.13,0,0,1,31.8,5.1,102.25,102.25,0,0,1,35.6,20.1" transform="translate(-8.89 -12.3)"/><polygon class="cls-3" points="278.47 147.35 259.87 166.55 278.77 166.25 278.47 147.35"/></g><g id="circle5592-6" data-name="circle5592"><path class="cls-2" d="M116.86,216.15a103.21,103.21,0,0,1,14.6-28.6,104.58,104.58,0,0,1,19.5-20.3" transform="translate(-8.89 -12.3)"/><polygon class="cls-3" points="132.97 145.15 148.47 166.85 151.57 148.25 132.97 145.15"/></g><path class="cls-4" d="M-10.44-1.85" transform="translate(-8.89 -12.3)"/><path class="cls-4" d="M-10.44-1.85" transform="translate(-8.89 -12.3)"/><path id="path4809" class="cls-5" d="M196.76,259.05" transform="translate(-8.89 -12.3)"/><g id="g4320"><path id="path9" class="cls-6" d="M215.48,172.29a73.89,73.89,0,1,0,73.89,73.89A73.66,73.66,0,0,0,215.48,172.29Zm0,143.15a69.27,69.27,0,1,1,69.27-69.27A69.1,69.1,0,0,1,215.48,315.44Z" transform="translate(-8.89 -12.3)"/><circle id="circle11" class="cls-7" cx="206.59" cy="233.88" r="69.27"/><polygon id="polygon13" class="cls-6" points="206.59 169.23 194.18 211.94 194.18 211.94 202.55 216.56 206.59 218.58 206.59 215.41 206.59 169.23"/><polygon id="polygon15" class="cls-6" points="210.34 251.19 206.88 249.17 206.59 249.17 206.59 249.46 206.59 252.35 206.59 298.53 218.71 255.81 210.34 251.19"/><polygon id="polygon17" class="cls-8" points="206.59 169.23 218.71 211.94 218.71 211.94 210.34 216.56 206.59 218.58 206.59 215.41 206.59 169.23"/><polygon id="polygon19" class="cls-8" points="202.55 251.19 206.01 249.17 206.59 249.17 206.59 249.46 206.59 252.35 206.59 298.53 194.18 255.81 202.55 251.19"/><polygon id="polygon21" class="cls-6" points="141.94 233.88 184.37 246 184.37 246 188.98 237.63 191.29 233.88 188.12 233.88 141.94 233.88"/><polygon id="polygon23" class="cls-6" points="223.91 229.84 221.89 233.59 221.6 233.88 222.18 233.88 225.06 233.88 271.24 233.88 228.53 221.75 223.91 229.84"/><polygon id="polygon25" class="cls-8" points="141.94 233.88 184.37 221.75 184.37 221.75 188.98 229.84 191.29 233.88 188.12 233.88 141.94 233.88"/><polygon id="polygon27" class="cls-8" points="223.91 237.63 221.89 234.17 221.6 233.88 222.18 233.88 225.06 233.88 271.24 233.88 228.53 246 223.91 237.63"/><polygon id="polygon29" class="cls-6" points="191.29 233.88 191.29 233.88 206.59 233.88 172.25 199.53 172.25 199.53 191.29 233.88"/><polygon id="polygon31" class="cls-8" points="191.29 233.88 191.29 233.88 206.59 233.88 172.25 268.22 172.25 268.22 191.29 233.88"/><polygon id="polygon33" class="cls-6" points="206.59 249.17 206.59 248.88 206.59 233.88 172.25 268.22 172.25 268.22 206.59 249.17"/><polygon id="polygon35" class="cls-8" points="206.59 249.17 206.59 248.88 206.59 233.88 240.65 268.22 240.65 268.22 206.59 249.17"/><polygon id="polygon37" class="cls-6" points="221.6 233.88 221.6 233.88 206.59 233.88 240.65 268.22 240.65 268.22 221.6 233.88"/><polygon id="polygon39" class="cls-8" points="221.6 233.88 221.6 233.88 206.59 233.88 240.65 199.53 240.65 199.53 221.6 233.88"/><polygon id="polygon41" class="cls-6" points="206.59 218.58 206.59 218.87 206.59 233.88 240.65 199.53 240.65 199.53 206.59 218.58"/><polygon id="polygon43" class="cls-8" points="206.59 218.58 206.59 218.87 206.59 233.88 172.25 199.53 172.25 199.53 206.59 218.58"/><polygon id="polygon45" class="cls-9" points="160.99 279.77 215.83 243.11 252.48 188.28 197.35 224.64 197.35 224.64 160.99 279.77"/><polygon id="polygon47" class="cls-10" points="160.99 279.77 215.83 243.11 206.59 233.88 160.99 279.77"/><polygon id="polygon49" class="cls-11" points="252.48 188.28 197.35 224.64 206.59 233.88 252.48 188.28"/><polygon id="polygon51" class="cls-12" points="252.48 188.28 215.83 243.11 206.3 233.59 252.48 188.28"/><circle id="circle53" class="cls-13" cx="206.59" cy="233.88" r="4.62"/></g><circle id="circle5309" class="cls-14" cx="311.26" cy="214.96" r="35.1" transform="translate(-60.08 94.4) rotate(-18)"/><path class="cls-15" d="M-10.44-1.85" transform="translate(-8.89 -12.3)"/><path id="path5173" class="cls-5" d="M58.46,190.65" transform="translate(-8.89 -12.3)"/><path class="cls-16" d="M-10.44-1.85" transform="translate(-8.89 -12.3)"/><path class="cls-16" d="M-10.44-1.85" transform="translate(-8.89 -12.3)"/><path id="path5185" class="cls-5" d="M208.06,167.35" transform="translate(-8.89 -12.3)"/><circle id="path4715" class="cls-14" cx="206.47" cy="133.05" r="45.4"/><circle id="circle4731" class="cls-14" cx="119.49" cy="215" r="35.1" transform="translate(-130.8 249.9) rotate(-72)"/><circle id="circle4743" class="cls-14" cx="158.45" cy="327.82" r="35.1" transform="translate(-208.79 251.02) rotate(-54)"/><circle id="circle4749" class="cls-14" cx="272.68" cy="326.16" r="35.1" transform="translate(-148.53 210.28) rotate(-36)"/><g id="g5172"><path id="svg_1-0" data-name="svg 1-0" class="cls-17" d="M315.76,370.14a16,16,0,0,0-16,16c0,12.8,9.6,12.8,9.6,22.4h12.8c0-9.6,9.6-9.6,9.6-22.4A16,16,0,0,0,315.76,370.14Z" transform="translate(-8.89 -12.3)"/><polygon id="svg_2-3" data-name="svg 2-3" class="cls-7" points="313.27 405.84 300.47 405.84 300.47 405.84 304.07 409.04 310.07 409.04 313.27 405.84"/><rect id="svg_3-7" data-name="svg 3-7" class="cls-7" x="300.47" y="402.64" width="12.8" height="3.2"/><polygon id="svg_4-1" data-name="svg 4-1" class="cls-6" points="313.27 399.44 300.47 402.64 300.47 402.64 300.47 405.84 313.27 402.64 313.27 399.44"/><rect id="svg_5-5" data-name="svg 5-5" class="cls-6" x="300.47" y="396.24" width="12.8" height="3.2"/><polygon id="svg_6-37" data-name="svg 6-37" class="cls-7" points="313.27 396.24 300.47 399.44 300.47 399.44 300.47 402.64 313.27 399.44 313.27 396.24"/><ellipse id="svg_7-15" data-name="svg 7-15" class="cls-18" cx="306.87" cy="362.64" rx="6.4" ry="3.2"/></g><path class="cls-12" d="M215.36,52.75c-6.6-3.3-23.2-5.8-26.5-5.8v37.3c3.3,0,19.9,2.5,26.5,5.8,6.6-3.3,23.2-5.8,26.5-5.8V47C238.56,47,222,49.45,215.36,52.75Z" transform="translate(-8.89 -12.3)"/><path class="cls-6" d="M215.36,50.25c-6.6-3.3-20.7-5.8-24-5.8v37.3c3.3,0,17.4,2.5,24,5.8h0c6.6-3.3,20.7-5.8,24-5.8V44.45C236.06,44.45,222,47,215.36,50.25Z" transform="translate(-8.89 -12.3)"/><path class="cls-19" d="M215.36,47.75v37.3c6.6-3.3,18.2-5.8,21.6-5.8V42C233.56,42,222,44.45,215.36,47.75Z" transform="translate(-8.89 -12.3)"/><path class="cls-7" d="M193.76,42v37.3c3.3,0,14.9,2.5,21.6,5.8V47.75C208.76,44.45,197.16,42,193.76,42Z" transform="translate(-8.89 -12.3)"/><path class="cls-13" d="M212.06,53.55a70,70,0,0,0-14.9-4.1v-1.7a70,70,0,0,1,14.9,4.1Z" transform="translate(-8.89 -12.3)"/><path class="cls-13" d="M212.06,58.55a70,70,0,0,0-14.9-4.1v-1.7a70,70,0,0,1,14.9,4.1Z" transform="translate(-8.89 -12.3)"/><path class="cls-13" d="M212.06,63.45a70,70,0,0,0-14.9-4.1v-1.7a70,70,0,0,1,14.9,4.1Z" transform="translate(-8.89 -12.3)"/><path class="cls-13" d="M212.06,68.45a70,70,0,0,0-14.9-4.1v-1.7a70,70,0,0,1,14.9,4.1Z" transform="translate(-8.89 -12.3)"/><path class="cls-13" d="M212.06,73.45a70,70,0,0,0-14.9-4.1v-1.7a70,70,0,0,1,14.9,4.1Z" transform="translate(-8.89 -12.3)"/><path class="cls-13" d="M212.06,78.45a70,70,0,0,0-14.9-4.1v-1.7a70,70,0,0,1,14.9,4.1Z" transform="translate(-8.89 -12.3)"/><path class="cls-13" d="M218.66,53.55a70,70,0,0,1,14.9-4.1v-1.7a70,70,0,0,0-14.9,4.1Z" transform="translate(-8.89 -12.3)"/><path class="cls-13" d="M218.66,58.55a70,70,0,0,1,14.9-4.1v-1.7a70,70,0,0,0-14.9,4.1Z" transform="translate(-8.89 -12.3)"/><path class="cls-13" d="M218.66,63.45a70,70,0,0,1,14.9-4.1v-1.7a70,70,0,0,0-14.9,4.1Z" transform="translate(-8.89 -12.3)"/><path class="cls-13" d="M218.66,68.45a70,70,0,0,1,14.9-4.1v-1.7a70,70,0,0,0-14.9,4.1Z" transform="translate(-8.89 -12.3)"/><path class="cls-13" d="M218.66,73.45a70,70,0,0,1,14.9-4.1v-1.7a70,70,0,0,0-14.9,4.1Z" transform="translate(-8.89 -12.3)"/><path class="cls-13" d="M218.66,78.45a70,70,0,0,1,14.9-4.1v-1.7a70,70,0,0,0-14.9,4.1Z" transform="translate(-8.89 -12.3)"/><path class="cls-1" d="M215.36,350.55" transform="translate(-8.89 -12.3)"/><g id="shape62-3"><path id="path3361" class="cls-20" d="M116.16,367.45H91v45.9h36.7v-34.4l-11.5-11.5Z" transform="translate(-8.89 -12.3)"/></g><path id="path3366" class="cls-8" d="M116.16,367.45H91v45.9h36.7v-34.4l-11.5-11.5Z" transform="translate(-8.89 -12.3)"/><path id="path3371" class="cls-21" d="M116.16,367.45H91v45.9h36.7v-34.4l-11.5-11.5Zm9.2,43.5h-32v-41.2h21.8V380h10.3v30.9Z" transform="translate(-8.89 -12.3)"/><g id="shape69-17"><rect id="rect3396" class="cls-22" x="82.07" y="355.15" width="36.7" height="45.8"/></g><g id="rect3406"><rect class="cls-8" x="89.27" y="376.25" width="4.1" height="4.2"/><path class="cls-23" d="M98.16,388.55c1.3-.1,2.6-.2,4.1-.2a.22.22,0,0,1,.2.2h0v4.1a.27.27,0,0,1-.3.3h-4a.22.22,0,0,1-.2-.2,17,17,0,0,1,.1-2.2Zm0,0,.1,2.2c0,.7.1,1.4.1,2l-.2-.2h4l-.3.3v-4.1l.2.2C101,388.75,99.56,388.65,98.16,388.55Z" transform="translate(-8.89 -12.3)"/></g><path class="cls-23" d="M104.76,390.15l19,.9-19,.9a.9.9,0,1,1,0-1.8Z" transform="translate(-8.89 -12.3)"/><path class="cls-24" d="M96.26,388.85s2.2,1.2,3.6,2.2c2.6-8.6,5.7-9.1,5.7-9.1" transform="translate(-8.89 -12.3)"/><g id="rect3406-2" data-name="rect3406"><rect class="cls-8" x="89.07" y="382.75" width="4.1" height="4.2"/><path class="cls-23" d="M98,395c1.3-.1,2.6-.2,4.1-.2a.22.22,0,0,1,.2.2h0v4.1a.27.27,0,0,1-.3.3H98a.22.22,0,0,1-.2-.2,17,17,0,0,1,.1-2.2Zm0,0,.1,2.2c0,.7.1,1.4.1,2L98,399h4l-.3.3v-4.1l.2.2C100.66,395.25,99.36,395.15,98,395Z" transform="translate(-8.89 -12.3)"/></g><path class="cls-23" d="M104.46,396.75l19,.9-19,.9a1,1,0,0,1-1-.9.92.92,0,0,1,1-.9Z" transform="translate(-8.89 -12.3)"/><g id="rect3406-3" data-name="rect3406"><rect class="cls-8" x="89.07" y="389.65" width="4.1" height="4.2"/><path class="cls-23" d="M98,401.95c1.3-.1,2.6-.2,4.1-.2a.22.22,0,0,1,.2.2h0V406a.27.27,0,0,1-.3.3H98a.22.22,0,0,1-.2-.2,17,17,0,0,1,.1-2.2Zm0,0,.1,2.2c0,.7.1,1.4.1,2l-.2-.2h4l-.3.3v-4.1l.2.2A16.11,16.11,0,0,0,98,401.95Z" transform="translate(-8.89 -12.3)"/></g><path class="cls-23" d="M104.46,403.55l19,.9-19,.9a1,1,0,0,1-1-.9.92.92,0,0,1,1-.9Z" transform="translate(-8.89 -12.3)"/><text class="cls-25" transform="translate(184.99 8.5)"><tspan class="cls-26">R</tspan><tspan x="5.69" y="0">eference</tspan><tspan x="-7.18" y="12">Architectures</tspan></text><text class="cls-27" transform="translate(176.98 128.87)">Architecture<tspan class="cls-28" x="15.68" y="13.2">S</tspan><tspan x="21.17" y="13.2">tyles</tspan></text><text class="cls-25" transform="translate(277.22 198.85)"><tspan class="cls-29">T</tspan><tspan x="4.26" y="0">echnology</tspan><tspan x="8.04" y="12">Choices</tspan></text><text class="cls-25" transform="translate(95.37 198.89)">Design<tspan class="cls-30" x="-2.64" y="12">P</tspan><tspan x="2.62" y="12">atterns</tspan></text><text class="cls-25" transform="translate(133.88 311.72)">Quality<tspan x="2.84" y="12">Pillars</tspan></text><text class="cls-25" transform="translate(248.57 310.06)">Design<tspan x="-5.76" y="12">Principles</tspan></text><g id="g4442"><polygon id="svg_1" data-name="svg 1" class="cls-31" points="358.27 157.56 414.58 157.56 414.58 157.56 410.73 162.84 361.46 162.84 358.27 157.56"/><path id="svg_2" data-name="svg 2" class="cls-32" d="M367.17,175.14h56.3v17.59a1.74,1.74,0,0,1-1.76,1.76H368.92a1.74,1.74,0,0,1-1.76-1.76Z" transform="translate(-8.89 -12.3)"/><path id="svg_3" data-name="svg 3" class="cls-32" d="M368.92,161.06h52.78a1.74,1.74,0,0,1,1.76,1.76v7h-56.3v-7A1.74,1.74,0,0,1,368.92,161.06Z" transform="translate(-8.89 -12.3)"/><rect id="svg_4" data-name="svg 4" class="cls-6" x="382.91" y="162.84" width="7.04" height="3.52"/><rect id="svg_5" data-name="svg 5" class="cls-31" x="384.67" y="162.84" width="3.52" height="1.76"/><rect id="svg_6" data-name="svg 6" class="cls-6" x="382.91" y="154.04" width="7.04" height="3.52"/><rect id="svg_7" data-name="svg 7" class="cls-31" x="384.67" y="155.8" width="3.52" height="1.76"/><path id="svg_8" data-name="svg 8" class="cls-31" d="M384.76,158.42v2.64h3.52v-.88h14.08v.88h3.52v-2.64a1.74,1.74,0,0,0-1.76-1.76H386.52A1.74,1.74,0,0,0,384.76,158.42Z" transform="translate(-8.89 -12.3)"/></g><rect class="cls-8" x="348.61" y="190.67" width="81" height="29.46"/><text class="cls-25" transform="translate(356.33 200.25)">Compute and<tspan class="cls-28" x="-5.73" y="12">S</tspan><tspan x="-0.74" y="12">torage Options</tspan></text><g id="svg_1-7" data-name="svg 1-7"><g id="Layer_1" data-name="Layer 1"><polygon id="svg_2-8" data-name="svg 2-8" class="cls-8" points="56.44 154.64 42.04 150.04 42.04 150.04 16.44 141.84 9.84 166.44 5.24 183.44 46.84 193.04 56.44 172.24 56.44 154.64"/><g id="svg_3-3" data-name="svg 3-3"><polygon id="svg_4-9" data-name="svg 4-9" class="cls-33" points="19.64 162.64 16.44 141.84 16.44 141.84 5.24 183.44 19.64 162.64"/><polygon id="svg_5-0" data-name="svg 5-0" class="cls-34" points="19.64 162.64 48.44 165.84 48.44 165.84 16.44 141.84 19.64 162.64"/><polygon id="svg_6-3" data-name="svg 6-3" class="cls-35" points="48.44 165.84 19.64 162.64 19.64 162.64 5.24 183.44 48.44 165.84"/><polygon id="svg_7-1" data-name="svg 7-1" class="cls-33" points="48.44 165.84 42.04 150.04 42.04 150.04 16.44 141.84 48.44 165.84"/><polygon id="svg_8-7" data-name="svg 8-7" class="cls-34" points="48.44 165.84 56.44 154.64 56.44 154.64 42.04 150.04 48.44 165.84"/><polygon id="svg_9" data-name="svg 9" class="cls-36" points="34.04 185.04 5.24 183.44 5.24 183.44 46.84 193.04 34.04 185.04"/><polygon id="svg_10" data-name="svg 10" class="cls-37" points="56.44 154.64 48.44 165.84 48.44 165.84 56.44 172.24 56.44 154.64"/><polygon id="svg_11" data-name="svg 11" class="cls-33" points="34.04 185.04 48.44 165.84 48.44 165.84 5.24 183.44 34.04 185.04"/><polygon id="svg_12" data-name="svg 12" class="cls-34" points="48.44 165.84 46.84 193.04 46.84 193.04 56.44 172.24 48.44 165.84"/><polygon id="svg_13" data-name="svg 13" class="cls-38" points="48.44 165.84 34.04 185.04 34.04 185.04 46.84 193.04 48.44 165.84"/></g><g id="svg_14" data-name="svg 14"><polygon id="svg_15" data-name="svg 15" class="cls-36" points="56.44 154.64 42.04 150.04 16.44 141.84 31.84 153.54 56.44 154.64"/><polygon id="svg_16" data-name="svg 16" class="cls-33" points="22.84 169.04 31.84 153.54 31.84 153.54 16.44 141.84 22.84 169.04"/><polygon id="svg_17" data-name="svg 17" class="cls-38" points="31.84 153.54 22.84 169.04 41.64 161.04 56.44 154.64 31.84 153.54"/><polygon id="svg_18" data-name="svg 18" class="cls-37" points="52.74 169.44 46.84 193.04 56.44 172.24 56.44 154.64 52.74 169.44"/><polygon id="svg_19" data-name="svg 19" class="cls-36" points="24.64 184.64 5.24 183.44 5.24 183.44 46.84 193.04 24.64 184.64"/><polygon id="svg_20" data-name="svg 20" class="cls-34" points="24.34 184.54 23.54 176.24 22.84 169.04 5.24 183.44 24.64 184.64 24.34 184.54"/><polygon id="svg_21" data-name="svg 21" class="cls-34" points="56.44 154.64 41.64 161.04 41.64 161.04 22.84 169.04 28.04 174.34 36.04 182.34 46.84 193.04 52.74 169.44 56.44 154.64"/><polygon id="svg_22" data-name="svg 22" class="cls-35" points="46.84 193.04 36.04 182.34 36.04 182.34 28.04 174.34 22.84 169.04 23.54 176.24 24.34 184.54 24.64 184.64 46.84 193.04"/><polygon id="svg_23" data-name="svg 23" class="cls-33" points="5.24 183.44 22.84 169.04 22.84 169.04 9.84 166.44 5.24 183.44"/><polygon id="svg_24" data-name="svg 24" class="cls-35" points="9.84 166.34 22.84 169.04 16.44 141.84 9.84 166.44 22.84 169.04 9.84 166.34"/></g></g></g><rect class="cls-8" y="198.04" width="65.33" height="30.72"/><text class="cls-25" transform="translate(3.23 210.33)">Cloud Design<tspan class="cls-30" x="11.74" y="12">P</tspan><tspan x="17" y="12">atterns</tspan></text><text class="cls-25" transform="translate(68.68 415.76)">Design <tspan class="cls-26" x="33.19" y="0">R</tspan><tspan x="38.88" y="0">eview</tspan><tspan x="10.2" y="12">Checklists</tspan></text><text class="cls-25" transform="translate(276.86 423.23)">Best Practices</text></svg>