<svg xmlns="http://www.w3.org/2000/svg" viewBox="0 0 509.182 272.972">
  <g id="Shapes">
    <rect width="509.182" height="272.972" fill="#fff"/>
    <g opacity="0.4">
      <circle cx="253.895" cy="166.973" r="66" fill="#c6eaf8" opacity="0.5"/>
      <circle cx="253.895" cy="166.973" r="66" fill="#33bedd" opacity="0.2"/>
    </g>
    <g opacity="0.6">
      <circle cx="253.895" cy="167.431" r="53.258" fill="#c6eaf8" opacity="0.5"/>
      <circle cx="253.895" cy="167.431" r="53.258" fill="#33bedd" opacity="0.4"/>
    </g>
    <g>
      <g>
        <circle cx="253.895" cy="49.233" r="20" fill="#fff" opacity="0.5"/>
        <circle cx="253.895" cy="49.233" r="20" fill="#fee452" opacity="0.7"/>
      </g>
      <path d="M259.4,47.4h1.837V60.233H246.558V47.4H248.4V43.733a5.357,5.357,0,0,1,.43-2.137A5.644,5.644,0,0,1,250,39.845a5.524,5.524,0,0,1,6.037-1.182,5.639,5.639,0,0,1,1.751,1.171,5.46,5.46,0,0,1,1.611,3.9Zm-9.163-3.663V47.4h7.326V43.733a3.5,3.5,0,0,0-.29-1.418,3.851,3.851,0,0,0-.784-1.171,3.5,3.5,0,0,0-1.16-.784,3.8,3.8,0,0,0-1.429-.29,3.543,3.543,0,0,0-1.428.29,3.693,3.693,0,0,0-1.945,1.944A3.551,3.551,0,0,0,250.232,43.733ZM259.4,58.4V49.233h-11V58.4Z"/>
    </g>
    <g>
      <g>
        <circle cx="194.638" cy="70.173" r="20" fill="#fff" opacity="0.5"/>
        <circle cx="194.638" cy="70.173" r="20" fill="#fee452" opacity="0.7"/>
      </g>
      <path d="M195.97,71.548a7,7,0,0,0-1.923-1.02,6.579,6.579,0,0,0-2.159-.355,6.764,6.764,0,0,0-1.827.247,7.1,7.1,0,0,0-1.643.688,6.446,6.446,0,0,0-1.386,1.074,7.3,7.3,0,0,0-1.074,1.4,6.819,6.819,0,0,0-.7,1.644,6.717,6.717,0,0,0-.247,1.826h-1.375a8.191,8.191,0,0,1,.376-2.481,7.957,7.957,0,0,1,1.085-2.2,8.794,8.794,0,0,1,1.675-1.794,7.648,7.648,0,0,1,2.192-1.236,5.3,5.3,0,0,1-1.074-.881,5.684,5.684,0,0,1-.817-1.117,5.028,5.028,0,0,1-.5-1.278,6.74,6.74,0,0,1-.182-1.386,5.357,5.357,0,0,1,.429-2.137A5.434,5.434,0,0,1,188,60.8a5.791,5.791,0,0,1,1.751-1.181,5.232,5.232,0,0,1,2.138-.441,5.34,5.34,0,0,1,2.137.43,5.424,5.424,0,0,1,1.741,1.182,5.779,5.779,0,0,1,1.181,1.751,5.231,5.231,0,0,1,.441,2.137,5.634,5.634,0,0,1-.172,1.386,5.112,5.112,0,0,1-.516,1.278,5.9,5.9,0,0,1-.816,1.107,5.529,5.529,0,0,1-1.085.891,8.329,8.329,0,0,1,1.214.58v1.633Zm-8.207-6.875a3.969,3.969,0,0,0,.322,1.6,4.291,4.291,0,0,0,.881,1.31,4.128,4.128,0,0,0,4.522.892A4.161,4.161,0,0,0,194.8,67.6a4.292,4.292,0,0,0,.891-1.31,3.822,3.822,0,0,0,.323-1.612,4.013,4.013,0,0,0-.323-1.6,4.121,4.121,0,0,0-.881-1.311,4.251,4.251,0,0,0-1.321-.892,3.832,3.832,0,0,0-1.6-.322,3.986,3.986,0,0,0-1.6.322,4.325,4.325,0,0,0-1.311.881,4.116,4.116,0,0,0-1.213,2.922Zm17.875,8.25v8.25h-11v-8.25h2.75v-2.75h5.5v2.75Zm-6.875,0h2.75V71.548h-2.75Zm5.5,4.125h-1.375v1.375h-1.375V77.048h-2.75v1.375h-1.375V77.048h-1.375V79.8h8.25Zm0-2.75h-8.25v1.375h8.25Z"/>
    </g>
    <g>
      <g>
        <circle cx="146.877" cy="109.826" r="20" fill="#fff" opacity="0.5"/>
        <circle cx="146.877" cy="109.826" r="20" fill="#fee452" opacity="0.7"/>
      </g>
      <path d="M139.315,101.577h5.5v1.375h-5.5Zm0,9.625h5.5v1.375h-5.5Zm0,2.75h5.5v1.374h-5.5Zm16.5-12.375a1.344,1.344,0,0,1,.537.107,1.384,1.384,0,0,1,.43.291,1.485,1.485,0,0,1,.3.44,1.177,1.177,0,0,1,.107.537v17.874h-11v-2.75h-9.624V100.2a1.344,1.344,0,0,1,.107-.537,1.4,1.4,0,0,1,.29-.43,1.5,1.5,0,0,1,.441-.3,1.165,1.165,0,0,1,.537-.108h8.249a1.329,1.329,0,0,1,.538.108,1.371,1.371,0,0,1,.429.29,1.485,1.485,0,0,1,.3.44,1.151,1.151,0,0,1,.107.537v1.375ZM146.189,116.7V100.2H137.94v16.5Zm9.625-13.749h-8.25v16.5h8.25Zm-1.375,2.75h-5.5v-1.375h5.5Zm0,9.624h-5.5v-1.374h5.5Zm0,2.75h-5.5V116.7h5.5Z"/>
    </g>
    <g>
      <g>
        <circle cx="360.735" cy="109.826" r="20" fill="#fff" opacity="0.5"/>
        <circle cx="360.735" cy="109.826" r="20" fill="#fee452" opacity="0.7"/>
      </g>
      <path d="M364.165,98.827a7.484,7.484,0,0,1,3.812,1.03,7.935,7.935,0,0,1,1.535,1.181,7.173,7.173,0,0,1,1.181,1.525,8.013,8.013,0,0,1,.762,1.815,6.973,6.973,0,0,1,.269,2.007,7.5,7.5,0,0,1-1.031,3.812,7.9,7.9,0,0,1-1.181,1.535,7.091,7.091,0,0,1-1.525,1.181,8.072,8.072,0,0,1-1.814.763,7.014,7.014,0,0,1-2.008.268,7.534,7.534,0,0,1-2.566-.44,7.451,7.451,0,0,1-2.265-1.31l-1.053,1.041a1.263,1.263,0,0,1,.269.322.912.912,0,0,1,.107.408.828.828,0,0,1-.247.612l-5.755,5.745a1.7,1.7,0,0,1-1.213.5,1.614,1.614,0,0,1-.644-.129,1.784,1.784,0,0,1-.537-.354,1.733,1.733,0,0,1-.376-.526,1.509,1.509,0,0,1-.139-.644,1.944,1.944,0,0,1,.129-.709,1.819,1.819,0,0,1,.4-.612l5.7-5.712a.835.835,0,0,1,.612-.247.785.785,0,0,1,.408.1,1.383,1.383,0,0,1,.322.279l1.042-1.052a7.434,7.434,0,0,1-1.3-2.255,7.774,7.774,0,0,1-.451-2.577,7.5,7.5,0,0,1,1.031-3.811,7.9,7.9,0,0,1,1.181-1.536,7.18,7.18,0,0,1,1.525-1.181,8.024,8.024,0,0,1,1.814-.762A7.018,7.018,0,0,1,364.165,98.827ZM351.442,119.8a.66.66,0,0,0,.483-.2l5.626-5.627-.966-.966L351,118.572a.745.745,0,0,0-.226.547.663.663,0,0,0,.183.473A.676.676,0,0,0,351.442,119.8Zm12.723-6.883a6.257,6.257,0,0,0,2.534-.515,6.783,6.783,0,0,0,2.072-1.4,6.531,6.531,0,0,0,1.407-2.072,6.354,6.354,0,0,0,.515-2.545,6.278,6.278,0,0,0-.515-2.534,6.783,6.783,0,0,0-1.4-2.072,6.512,6.512,0,0,0-2.072-1.406,6.338,6.338,0,0,0-2.545-.516,6.262,6.262,0,0,0-2.534.516,6.765,6.765,0,0,0-2.072,1.4,6.49,6.49,0,0,0-1.406,2.072,6.33,6.33,0,0,0-.516,2.544,6.258,6.258,0,0,0,.516,2.534,6.751,6.751,0,0,0,1.395,2.072,6.508,6.508,0,0,0,2.073,1.407A6.329,6.329,0,0,0,364.165,112.913Zm0-12.025a.516.516,0,1,1,0,1.031,4.244,4.244,0,0,0-1.728.354,4.705,4.705,0,0,0-1.418.956,4.444,4.444,0,0,0-.966,1.417,4.323,4.323,0,0,0-.354,1.739.516.516,0,1,1-1.031,0,5.352,5.352,0,0,1,.429-2.136,5.652,5.652,0,0,1,1.171-1.75,5.466,5.466,0,0,1,3.9-1.611Z"/>
    </g>
    <g opacity="0.7">
      <rect x="170.031" y="133.579" width="87.689" height="34.683" fill="#fff" opacity="0.5"/>
      <rect x="170.031" y="133.579" width="87.689" height="34.683" fill="#33bedd" opacity="0.7"/>
    </g>
    <g opacity="0.7">
      <rect x="264.748" y="133.579" width="69.282" height="34.683" fill="#fff" opacity="0.5"/>
      <rect x="264.748" y="133.579" width="69.282" height="34.683" fill="#33bedd" opacity="0.7"/>
    </g>
    <g opacity="0.7">
      <rect x="206.833" y="175.506" width="87.689" height="34.683" fill="#fff" opacity="0.5"/>
      <rect x="206.833" y="175.506" width="87.689" height="34.683" fill="#33bedd" opacity="0.7"/>
    </g>
    <g>
      <path d="M284.863,124.182a5.381,5.381,0,0,1-.815-1.432l.933-.358a4.427,4.427,0,0,0,.664,1.167Z" fill="#999"/>
      <path d="M327.643,120.024l-.026-1c.992-.024,1.986-.084,2.954-.178l.1.995C329.676,119.937,328.657,120,327.643,120.024Zm-3.028-.03c-1.026-.047-2.043-.131-3.021-.251l.121-.992c.954.116,1.945.2,2.945.244Zm-39.911-.305-.99-.135a7.593,7.593,0,0,1,1.083-2.992l.848.53A6.615,6.615,0,0,0,284.7,119.689Zm48.97-.254-.174-.985c1-.176,1.966-.391,2.876-.64l.264.965C335.7,119.032,334.7,119.253,333.674,119.435Zm-15.077-.189a26.194,26.194,0,0,1-2.945-.8l.323-.946a25.291,25.291,0,0,0,2.831.772Zm-5.76-1.9-.333-.134c-.812-.328-1.626-.657-2.443-.979l.367-.931c.819.324,1.636.654,2.45.982l.334.135Zm-5.564-2.173c-1.005-.364-1.925-.673-2.812-.944l.291-.956c.9.275,1.84.589,2.863.96Zm-19.706-.1-.591-.806a11.424,11.424,0,0,1,2.756-1.466l.35.937A10.424,10.424,0,0,0,287.567,115.073Zm14.039-1.61a29.3,29.3,0,0,0-2.9-.507l.121-.994c.959.117,1.968.294,3,.526Zm-8.728-.448-.152-.988.119-.019a20.843,20.843,0,0,1,2.935-.225l.006,1A19.635,19.635,0,0,0,293,113Z" fill="#999"/>
      <path d="M339.563,117.788l-.38-.925q.692-.285,1.326-.608l.453.892Q340.293,117.487,339.563,117.788Z" fill="#999"/>
    </g>
    <path d="M264.979,115.408l-.955-.3a19.839,19.839,0,0,1,1.143-2.855l.9.443A18.942,18.942,0,0,0,264.979,115.408Zm2.571-5.225-.821-.571a21.53,21.53,0,0,1,1.929-2.387l.731.683A20.458,20.458,0,0,0,267.55,110.183Zm3.981-4.269-.627-.778a21.579,21.579,0,0,1,2.52-1.752l.51.859A20.769,20.769,0,0,0,271.531,105.914Zm5.016-2.979-.375-.927.1-.042a24.825,24.825,0,0,1,2.792-.938l.264.965a23.953,23.953,0,0,0-2.675.9Zm5.667-1.585-.178-.984c.9-.161,1.877-.307,2.994-.447l.123.993C284.055,101.048,283.093,101.192,282.214,101.35Zm5.91-.771-.1-.994.367-.039c.87-.09,1.741-.181,2.608-.283l.117.993c-.872.1-1.747.194-2.622.285Zm5.984-.734-.162-.987.159-.026c.931-.155,1.85-.351,2.731-.582l.254.968c-.911.238-1.86.44-2.82.6ZM300,98.287l-.357-.934a21.3,21.3,0,0,0,2.66-1.228l.482.876A22.392,22.392,0,0,1,300,98.287Zm5.35-3-.633-.774a12.316,12.316,0,0,0,2.009-2.057l.795.605A13.234,13.234,0,0,1,305.349,95.283Z" fill="#999"/>
    <path d="M221.2,127.794a18.866,18.866,0,0,0-1.436-2.54l.83-.558a19.7,19.7,0,0,1,1.512,2.675Zm-3.243-4.839a22.633,22.633,0,0,0-2.112-2.033l.644-.763a23.408,23.408,0,0,1,2.208,2.123Zm-4.469-3.79a27.513,27.513,0,0,0-2.543-1.484l.457-.889a28.6,28.6,0,0,1,2.637,1.538Zm-5.23-2.7c-.909-.359-1.849-.681-2.794-.956l.279-.96c.975.284,1.944.616,2.882.987Zm-38.354-.344-.113-.994,2.982-.337.112.994Zm5.962-.673-.113-.994,2.982-.337.112.994Zm26.727-.636c-.947-.186-1.931-.341-2.927-.462l.121-.993c1.02.124,2.028.283,3,.473Zm-20.766-.035-.107-.994c1-.108,1.992-.212,2.991-.306l.094.995C183.815,114.564,182.822,114.668,181.831,114.774Zm5.956-.556-.072-1q1.506-.11,3.012-.169l.039,1C189.772,114.089,188.779,114.147,187.787,114.218Zm8.928-.132c-.956-.055-1.956-.084-2.972-.088l0-1c1.033,0,2.051.034,3.024.09Z" fill="#999"/>
    <path d="M239.459,117.617l-.93-.37a11.783,11.783,0,0,0,.726-2.778l.99.135A12.8,12.8,0,0,1,239.459,117.617Zm-.143-6.029a14.276,14.276,0,0,0-.55-2.84l.957-.288a15.247,15.247,0,0,1,.59,3.04Zm-1.657-5.518a14.307,14.307,0,0,0-1.612-2.4l.769-.639a15.329,15.329,0,0,1,1.726,2.572Zm-3.682-4.412a12.064,12.064,0,0,0-2.461-1.481l.408-.913a13.033,13.033,0,0,1,2.666,1.6ZM228.762,99.3a21.106,21.106,0,0,0-2.9-.405l.077-1a22.132,22.132,0,0,1,3.036.424Zm-8.853-.461-.015-1,.753-.013c.748-.014,1.5-.027,2.254-.027v1c-.747,0-1.493.013-2.234.027Zm-3.022-.006a28.9,28.9,0,0,1-3.042-.238l.134-.991a27.789,27.789,0,0,0,2.937.229Zm-6.052-.9c-.28-.089-.558-.185-.833-.291a12.132,12.132,0,0,1-2-.992l.524-.852a11.192,11.192,0,0,0,1.839.911c.257.1.515.188.776.271Zm-5.256-3.269a9.169,9.169,0,0,1-1.722-2.648l.924-.385a8.161,8.161,0,0,0,1.534,2.357Z" fill="#999"/>
    <path d="M254.335,113.973h-1v-3h1Zm0-6h-1v-3h1Zm0-6h-1v-3h1Zm0-6h-1v-3h1Zm0-6h-1v-3h1Zm0-6h-1v-3h1Zm0-6h-1v-3h1Zm0-6h-1v-3h1Z" fill="#999"/>
    <g>
      <g>
        <circle cx="312.327" cy="70.173" r="20" fill="#fff" opacity="0.5"/>
        <circle cx="312.327" cy="70.173" r="20" fill="#fee452" opacity="0.7"/>
      </g>
      <path d="M312.327,59.173a8.077,8.077,0,0,1,1.043.065,5.263,5.263,0,0,1,.958.215,8.142,8.142,0,0,1,.925.366,6.815,6.815,0,0,1,.914.516,9.453,9.453,0,0,0,1.549.807,9.7,9.7,0,0,0,1.571.484,12.1,12.1,0,0,0,1.635.237q.84.064,1.732.064v5.508a11.205,11.205,0,0,1-.387,2.98,11.986,11.986,0,0,1-1.087,2.668,15.151,15.151,0,0,1-1.646,2.388,18.845,18.845,0,0,1-2.054,2.1,29.492,29.492,0,0,1-2.335,1.84,26.666,26.666,0,0,1-2.485,1.571l-.333.193-.334-.193q-1.248-.722-2.474-1.571a26.178,26.178,0,0,1-2.345-1.829,18.338,18.338,0,0,1-2.055-2.109,15.891,15.891,0,0,1-1.635-2.377A11.7,11.7,0,0,1,302,67.435V61.927q.892,0,1.732-.064a12.077,12.077,0,0,0,1.635-.237,9.672,9.672,0,0,0,1.571-.484,9.413,9.413,0,0,0,1.549-.807,7.312,7.312,0,0,1,1.829-.871A7.071,7.071,0,0,1,312.327,59.173Zm8.95,4.11a13.409,13.409,0,0,1-3.066-.517,11.051,11.051,0,0,1-2.829-1.3,5.686,5.686,0,0,0-1.452-.689,5.858,5.858,0,0,0-1.6-.226,5.575,5.575,0,0,0-1.593.215,5.676,5.676,0,0,0-1.463.7,10.862,10.862,0,0,1-2.818,1.3,13.43,13.43,0,0,1-3.077.517v4.152a9.61,9.61,0,0,0,.355,2.625,11.148,11.148,0,0,0,.99,2.4,13.708,13.708,0,0,0,1.484,2.152,19.524,19.524,0,0,0,1.851,1.915,21.516,21.516,0,0,0,2.076,1.656q1.075.754,2.195,1.4,1.1-.635,2.183-1.4a22.91,22.91,0,0,0,2.088-1.656,18.657,18.657,0,0,0,1.85-1.9,13.482,13.482,0,0,0,1.484-2.163,10.949,10.949,0,0,0,.979-2.4,10.409,10.409,0,0,0,.366-2.625Z"/>
    </g>
  </g>
  <g id="Text">
    <g>
      <path d="M151.909,229.736v4.905H150.74v-12.6h3.252a5.743,5.743,0,0,1,1.758.246,3.588,3.588,0,0,1,1.292.712,3,3,0,0,1,.8,1.143,4.129,4.129,0,0,1,.272,1.547,4.194,4.194,0,0,1-.307,1.621,3.652,3.652,0,0,1-.883,1.283,4.058,4.058,0,0,1-1.4.844,5.405,5.405,0,0,1-1.872.3Zm0-6.627v5.555h1.67a3.591,3.591,0,0,0,2.47-.756,2.72,2.72,0,0,0,.844-2.135q0-2.664-3.112-2.664Z" fill="#2f2f2f"/>
      <path d="M164.58,226.792a1.682,1.682,0,0,0-1.019-.29,1.747,1.747,0,0,0-.791.171,2.006,2.006,0,0,0-.6.462,2.757,2.757,0,0,0-.439.672,4.585,4.585,0,0,0-.29.8,5.8,5.8,0,0,0-.159.835,7.071,7.071,0,0,0-.048.8v4.4h-1.116v-9h1.116v1.924h.036a3.992,3.992,0,0,1,.4-.883,2.745,2.745,0,0,1,.559-.659,2.331,2.331,0,0,1,.689-.409,2.234,2.234,0,0,1,.787-.14,2.968,2.968,0,0,1,.487.035,1.823,1.823,0,0,1,.392.105Z" fill="#2f2f2f"/>
      <path d="M169.727,234.852a4.618,4.618,0,0,1-1.8-.334,3.844,3.844,0,0,1-1.358-.945,4.154,4.154,0,0,1-.861-1.464,5.684,5.684,0,0,1-.3-1.889,5.972,5.972,0,0,1,.317-2.013,4.213,4.213,0,0,1,.9-1.507,3.855,3.855,0,0,1,1.411-.945,5,5,0,0,1,1.846-.325,4.6,4.6,0,0,1,1.758.321,3.578,3.578,0,0,1,1.327.927,4.141,4.141,0,0,1,.835,1.476,6.255,6.255,0,0,1,.29,1.978,5.78,5.78,0,0,1-.3,1.92,4.335,4.335,0,0,1-.865,1.49,3.839,3.839,0,0,1-1.371.967A4.654,4.654,0,0,1,169.727,234.852Zm.087-8.447a3.366,3.366,0,0,0-1.335.255,2.8,2.8,0,0,0-1.025.743,3.358,3.358,0,0,0-.654,1.2,5.194,5.194,0,0,0-.229,1.6,4.718,4.718,0,0,0,.229,1.521,3.428,3.428,0,0,0,.645,1.16,2.808,2.808,0,0,0,1.016.743,3.627,3.627,0,0,0,2.672.008,2.635,2.635,0,0,0,.984-.729,3.214,3.214,0,0,0,.611-1.173,5.582,5.582,0,0,0,.207-1.583,4.216,4.216,0,0,0-.809-2.781A2.85,2.85,0,0,0,169.814,226.405Z" fill="#2f2f2f"/>
      <path d="M179.982,234.535a2.777,2.777,0,0,1-1.265.29q-2.179,0-2.18-2.513v-5.687h-1.582v-.984h1.582v-2.268l1.125-.369v2.637h2.32v.984h-2.32v5.511a2.256,2.256,0,0,0,.3,1.318,1.174,1.174,0,0,0,1.011.4,1.816,1.816,0,0,0,1.01-.316Z" fill="#2f2f2f"/>
      <path d="M182.159,230.343a5.027,5.027,0,0,0,.22,1.485,3.152,3.152,0,0,0,.606,1.116,2.6,2.6,0,0,0,.962.7,3.239,3.239,0,0,0,1.28.242,4.579,4.579,0,0,0,2.874-1.064v1.108a5.246,5.246,0,0,1-3.129.923,4.13,4.13,0,0,1-1.644-.317,3.416,3.416,0,0,1-1.257-.918,4.223,4.223,0,0,1-.8-1.481,6.586,6.586,0,0,1-.281-2,5.528,5.528,0,0,1,.308-1.872,4.624,4.624,0,0,1,.852-1.49,3.933,3.933,0,0,1,1.292-.984,3.742,3.742,0,0,1,1.635-.356,3.687,3.687,0,0,1,1.538.3,3,3,0,0,1,1.12.866,3.914,3.914,0,0,1,.691,1.371,6.426,6.426,0,0,1,.237,1.81v.563Zm5.344-.985a3.427,3.427,0,0,0-.668-2.179,2.19,2.19,0,0,0-1.784-.774,2.757,2.757,0,0,0-1.06.2,2.521,2.521,0,0,0-.856.585,3.168,3.168,0,0,0-.612.932,4.656,4.656,0,0,0-.337,1.234Z" fill="#2f2f2f"/>
      <path d="M196.854,234.236a4.7,4.7,0,0,1-2.425.624,4.149,4.149,0,0,1-1.741-.334,3.81,3.81,0,0,1-1.318-.953,4.248,4.248,0,0,1-.835-1.442,5.446,5.446,0,0,1-.29-1.806,5.8,5.8,0,0,1,.308-1.9,4.556,4.556,0,0,1,.9-1.555,4.239,4.239,0,0,1,1.442-1.051,4.685,4.685,0,0,1,1.951-.386,4.763,4.763,0,0,1,2.039.43v1.2a3.781,3.781,0,0,0-2.127-.651,3.207,3.207,0,0,0-1.424.3,3.058,3.058,0,0,0-1.051.826,3.693,3.693,0,0,0-.65,1.221,4.806,4.806,0,0,0-.224,1.481,4.978,4.978,0,0,0,.189,1.38,3.416,3.416,0,0,0,.58,1.165,2.834,2.834,0,0,0,.989.8,3.112,3.112,0,0,0,1.406.3,3.74,3.74,0,0,0,2.285-.756Z" fill="#2f2f2f"/>
      <path d="M203.18,234.535a2.784,2.784,0,0,1-1.266.29q-2.179,0-2.18-2.513v-5.687h-1.582v-.984h1.582v-2.268l1.125-.369v2.637h2.321v.984h-2.321v5.511a2.256,2.256,0,0,0,.3,1.318,1.174,1.174,0,0,0,1.011.4,1.819,1.819,0,0,0,1.011-.316Z" fill="#2f2f2f"/>
      <path d="M205.445,223.364a.784.784,0,0,1-.562-.228.773.773,0,0,1-.237-.58.746.746,0,0,1,.237-.567.789.789,0,0,1,.562-.224.882.882,0,0,1,.317.057.778.778,0,0,1,.259.162.835.835,0,0,1,.176.251.784.784,0,0,1,.066.321.82.82,0,0,1-.062.316.736.736,0,0,1-.176.259.831.831,0,0,1-.259.172A.809.809,0,0,1,205.445,223.364Zm-.553,11.277v-9h1.125v9Z" fill="#2f2f2f"/>
      <path d="M214.771,234.641v-5.186q0-3.05-2.215-3.05a2.557,2.557,0,0,0-1.09.233,2.611,2.611,0,0,0-.865.646,3.012,3.012,0,0,0-.573.98,3.573,3.573,0,0,0-.206,1.226v5.151H208.7v-9h1.125v1.564h.035a3.252,3.252,0,0,1,3.015-1.775,2.722,2.722,0,0,1,2.25.958,4.312,4.312,0,0,1,.774,2.768v5.485Z" fill="#2f2f2f"/>
      <path d="M225.99,233.946a5.266,5.266,0,0,1-1.137,3.714,4.618,4.618,0,0,1-3.512,1.208,6.171,6.171,0,0,1-2.8-.659v-1.143a5.761,5.761,0,0,0,2.8.818q3.523,0,3.524-3.727v-1.081h-.035a3.421,3.421,0,0,1-3.164,1.776,3.7,3.7,0,0,1-1.524-.308,3.278,3.278,0,0,1-1.183-.888,4.158,4.158,0,0,1-.765-1.41,6.031,6.031,0,0,1-.272-1.877,6.631,6.631,0,0,1,.29-2.017,4.645,4.645,0,0,1,.826-1.56,3.674,3.674,0,0,1,1.3-1.006,3.968,3.968,0,0,1,1.709-.356,2.972,2.972,0,0,1,2.786,1.547h.035v-1.336h1.125Zm-1.125-4.772a2.813,2.813,0,0,0-.2-1.064,2.706,2.706,0,0,0-1.42-1.481,2.633,2.633,0,0,0-1.094-.224,2.884,2.884,0,0,0-1.269.273,2.723,2.723,0,0,0-.967.773,3.544,3.544,0,0,0-.615,1.218,5.541,5.541,0,0,0-.216,1.612,5.138,5.138,0,0,0,.2,1.494,3.376,3.376,0,0,0,.571,1.134,2.556,2.556,0,0,0,.892.721,2.624,2.624,0,0,0,1.165.255,2.962,2.962,0,0,0,1.213-.242,2.75,2.75,0,0,0,.932-.668,3.017,3.017,0,0,0,.6-1,3.577,3.577,0,0,0,.211-1.243Z" fill="#2f2f2f"/>
      <path d="M239.807,234.236a4.7,4.7,0,0,1-2.426.624,4.142,4.142,0,0,1-1.74-.334,3.814,3.814,0,0,1-1.319-.953,4.248,4.248,0,0,1-.835-1.442,5.446,5.446,0,0,1-.29-1.806,5.8,5.8,0,0,1,.308-1.9,4.556,4.556,0,0,1,.9-1.555,4.239,4.239,0,0,1,1.442-1.051,4.689,4.689,0,0,1,1.951-.386,4.763,4.763,0,0,1,2.039.43v1.2a3.781,3.781,0,0,0-2.127-.651,3.207,3.207,0,0,0-1.424.3,3.054,3.054,0,0,0-1.05.826,3.657,3.657,0,0,0-.65,1.221,4.806,4.806,0,0,0-.225,1.481,4.941,4.941,0,0,0,.19,1.38,3.38,3.38,0,0,0,.58,1.165,2.822,2.822,0,0,0,.988.8,3.112,3.112,0,0,0,1.406.3,3.745,3.745,0,0,0,2.286-.756Z" fill="#2f2f2f"/>
      <path d="M247.132,234.641v-1.6H247.1a3.3,3.3,0,0,1-1.2,1.336,3.176,3.176,0,0,1-1.717.475,3.5,3.5,0,0,1-1.173-.185,2.5,2.5,0,0,1-.889-.523,2.307,2.307,0,0,1-.562-.813,2.707,2.707,0,0,1-.2-1.046,2.574,2.574,0,0,1,.756-1.947,4.063,4.063,0,0,1,2.285-.944l2.734-.4q0-2.592-2.013-2.593a4.4,4.4,0,0,0-2.918,1.152v-1.231a3.876,3.876,0,0,1,.637-.365,5.929,5.929,0,0,1,.752-.281,6.214,6.214,0,0,1,.812-.184,5.22,5.22,0,0,1,.814-.066,2.922,2.922,0,0,1,2.272.843,3.626,3.626,0,0,1,.769,2.514v5.854Zm-2.32-4.368a6.98,6.98,0,0,0-1.038.219,2.133,2.133,0,0,0-.711.356,1.33,1.33,0,0,0-.414.554,2.219,2.219,0,0,0-.131.813,1.728,1.728,0,0,0,.127.668,1.5,1.5,0,0,0,.369.532,1.673,1.673,0,0,0,.59.347,2.337,2.337,0,0,0,.786.123,2.6,2.6,0,0,0,1.964-.862,2.953,2.953,0,0,0,.572-.966,3.538,3.538,0,0,0,.206-1.222v-.888Z" fill="#2f2f2f"/>
      <path d="M255.29,226.792a1.682,1.682,0,0,0-1.019-.29,1.755,1.755,0,0,0-.792.171,2.014,2.014,0,0,0-.6.462,2.757,2.757,0,0,0-.439.672,4.585,4.585,0,0,0-.29.8,5.536,5.536,0,0,0-.158.835,6.854,6.854,0,0,0-.049.8v4.4h-1.116v-9h1.116v1.924h.036a3.948,3.948,0,0,1,.4-.883,2.72,2.72,0,0,1,.558-.659,2.323,2.323,0,0,1,.69-.409,2.224,2.224,0,0,1,.786-.14,2.968,2.968,0,0,1,.487.035,1.823,1.823,0,0,1,.392.105Z" fill="#2f2f2f"/>
      <path d="M263.064,234.641v-1.582h-.035a3.2,3.2,0,0,1-1.278,1.322,3.761,3.761,0,0,1-1.886.471,3.683,3.683,0,0,1-1.534-.312,3.3,3.3,0,0,1-1.182-.9,4.16,4.16,0,0,1-.759-1.424,6.136,6.136,0,0,1-.269-1.89,6.385,6.385,0,0,1,.294-1.99,4.59,4.59,0,0,1,.836-1.547,3.72,3.72,0,0,1,1.3-1,3.925,3.925,0,0,1,1.691-.356,2.922,2.922,0,0,1,2.786,1.555h.035v-5.669h1.125v13.325Zm0-5.432a2.949,2.949,0,0,0-.2-1.1,2.726,2.726,0,0,0-.562-.887,2.641,2.641,0,0,0-.865-.6,2.774,2.774,0,0,0-1.113-.22,2.859,2.859,0,0,0-1.23.264,2.684,2.684,0,0,0-.962.76,3.638,3.638,0,0,0-.625,1.209,5.919,5.919,0,0,0-.022,3.146,3.322,3.322,0,0,0,.577,1.143,2.507,2.507,0,0,0,.891.712,2.656,2.656,0,0,0,1.152.246,2.985,2.985,0,0,0,1.234-.246,2.706,2.706,0,0,0,.932-.677,3.041,3.041,0,0,0,.589-1.011,3.682,3.682,0,0,0,.206-1.239Z" fill="#2f2f2f"/>
      <path d="M278.094,234.641V229.35a3.684,3.684,0,0,0-.545-2.228,1.994,1.994,0,0,0-1.7-.717,2.524,2.524,0,0,0-1.9.853,3.125,3.125,0,0,0-.589,1.006,3.857,3.857,0,0,0-.219,1.341v5.036h-1.125V221.316h1.125v5.88h.035a3.335,3.335,0,0,1,3.023-1.766,2.747,2.747,0,0,1,2.259.923,4.217,4.217,0,0,1,.756,2.724v5.564Z" fill="#2f2f2f"/>
      <path d="M285.529,234.852a4.612,4.612,0,0,1-1.8-.334,3.844,3.844,0,0,1-1.358-.945,4.154,4.154,0,0,1-.861-1.464,5.658,5.658,0,0,1-.3-1.889,5.973,5.973,0,0,1,.316-2.013,4.217,4.217,0,0,1,.9-1.507,3.835,3.835,0,0,1,1.41-.945,5,5,0,0,1,1.846-.325,4.588,4.588,0,0,1,1.757.321,3.562,3.562,0,0,1,1.327.927,4.111,4.111,0,0,1,.835,1.476,6.226,6.226,0,0,1,.29,1.978,5.754,5.754,0,0,1-.3,1.92,4.319,4.319,0,0,1-.865,1.49,3.843,3.843,0,0,1-1.372.967A4.651,4.651,0,0,1,285.529,234.852Zm.088-8.447a3.375,3.375,0,0,0-1.336.255,2.8,2.8,0,0,0-1.023.743,3.345,3.345,0,0,0-.655,1.2,5.194,5.194,0,0,0-.229,1.6,4.718,4.718,0,0,0,.229,1.521,3.428,3.428,0,0,0,.645,1.16,2.791,2.791,0,0,0,1.016.743,3.627,3.627,0,0,0,2.672.008,2.651,2.651,0,0,0,.984-.729,3.229,3.229,0,0,0,.611-1.173,5.584,5.584,0,0,0,.206-1.583,4.216,4.216,0,0,0-.808-2.781A2.85,2.85,0,0,0,285.617,226.405Z" fill="#2f2f2f"/>
      <path d="M292.063,234.641V221.316h1.125v13.325Z" fill="#2f2f2f"/>
      <path d="M302.3,234.641v-1.582h-.035a3.2,3.2,0,0,1-1.279,1.322,3.754,3.754,0,0,1-1.885.471,3.685,3.685,0,0,1-1.535-.312,3.292,3.292,0,0,1-1.181-.9,4.179,4.179,0,0,1-.76-1.424,6.136,6.136,0,0,1-.269-1.89,6.385,6.385,0,0,1,.294-1.99,4.607,4.607,0,0,1,.836-1.547,3.73,3.73,0,0,1,1.3-1,3.925,3.925,0,0,1,1.691-.356,2.924,2.924,0,0,1,2.787,1.555h.035v-5.669h1.125v13.325Zm0-5.432a2.969,2.969,0,0,0-.2-1.1,2.745,2.745,0,0,0-.563-.887,2.641,2.641,0,0,0-.865-.6,2.773,2.773,0,0,0-1.112-.22,2.86,2.86,0,0,0-1.231.264,2.684,2.684,0,0,0-.962.76,3.675,3.675,0,0,0-.625,1.209,5.421,5.421,0,0,0-.223,1.617,5.332,5.332,0,0,0,.2,1.529,3.3,3.3,0,0,0,.576,1.143,2.516,2.516,0,0,0,.891.712,2.656,2.656,0,0,0,1.152.246,2.985,2.985,0,0,0,1.234-.246,2.706,2.706,0,0,0,.932-.677,3.043,3.043,0,0,0,.59-1.011,3.707,3.707,0,0,0,.206-1.239Z" fill="#2f2f2f"/>
      <path d="M306.744,230.343a5.027,5.027,0,0,0,.22,1.485,3.136,3.136,0,0,0,.606,1.116,2.6,2.6,0,0,0,.963.7,3.23,3.23,0,0,0,1.279.242,4.579,4.579,0,0,0,2.874-1.064v1.108a5.246,5.246,0,0,1-3.129.923,4.13,4.13,0,0,1-1.644-.317,3.416,3.416,0,0,1-1.257-.918,4.223,4.223,0,0,1-.8-1.481,6.586,6.586,0,0,1-.281-2,5.528,5.528,0,0,1,.308-1.872,4.624,4.624,0,0,1,.852-1.49,3.933,3.933,0,0,1,1.292-.984,3.742,3.742,0,0,1,1.635-.356,3.687,3.687,0,0,1,1.538.3,3,3,0,0,1,1.12.866,3.914,3.914,0,0,1,.691,1.371,6.426,6.426,0,0,1,.237,1.81v.563Zm5.344-.985a3.427,3.427,0,0,0-.668-2.179,2.191,2.191,0,0,0-1.784-.774,2.76,2.76,0,0,0-1.06.2,2.531,2.531,0,0,0-.856.585,3.146,3.146,0,0,0-.611.932,4.619,4.619,0,0,0-.338,1.234Z" fill="#2f2f2f"/>
      <path d="M319.833,226.792a1.685,1.685,0,0,0-1.02-.29,1.753,1.753,0,0,0-.791.171,2.014,2.014,0,0,0-.6.462,2.789,2.789,0,0,0-.44.672,4.665,4.665,0,0,0-.289.8,5.536,5.536,0,0,0-.158.835,6.854,6.854,0,0,0-.049.8v4.4h-1.116v-9h1.116v1.924h.036a3.948,3.948,0,0,1,.4-.883,2.72,2.72,0,0,1,.558-.659,2.311,2.311,0,0,1,.69-.409,2.224,2.224,0,0,1,.786-.14,2.968,2.968,0,0,1,.487.035,1.823,1.823,0,0,1,.392.105Z" fill="#2f2f2f"/>
      <path d="M332.709,234.641v-1.582h-.035a3.205,3.205,0,0,1-1.278,1.322,3.761,3.761,0,0,1-1.886.471,3.68,3.68,0,0,1-1.534-.312,3.3,3.3,0,0,1-1.182-.9,4.179,4.179,0,0,1-.76-1.424,6.136,6.136,0,0,1-.268-1.89,6.356,6.356,0,0,1,.294-1.99,4.572,4.572,0,0,1,.836-1.547,3.717,3.717,0,0,1,1.3-1,3.929,3.929,0,0,1,1.692-.356,2.923,2.923,0,0,1,2.786,1.555h.035v-5.669h1.125v13.325Zm0-5.432a2.949,2.949,0,0,0-.2-1.1,2.728,2.728,0,0,0-.563-.887,2.641,2.641,0,0,0-.865-.6,2.773,2.773,0,0,0-1.112-.22,2.86,2.86,0,0,0-1.231.264,2.684,2.684,0,0,0-.962.76,3.675,3.675,0,0,0-.625,1.209,5.421,5.421,0,0,0-.223,1.617,5.332,5.332,0,0,0,.2,1.529,3.321,3.321,0,0,0,.576,1.143,2.51,2.51,0,0,0,.892.712,2.648,2.648,0,0,0,1.151.246,2.985,2.985,0,0,0,1.234-.246,2.7,2.7,0,0,0,.932-.677,3.043,3.043,0,0,0,.59-1.011,3.682,3.682,0,0,0,.206-1.239Z" fill="#2f2f2f"/>
      <path d="M341.658,234.641v-1.6h-.035a3.3,3.3,0,0,1-1.2,1.336,3.18,3.18,0,0,1-1.718.475,3.5,3.5,0,0,1-1.173-.185,2.508,2.508,0,0,1-.888-.523,2.3,2.3,0,0,1-.563-.813,2.707,2.707,0,0,1-.2-1.046,2.574,2.574,0,0,1,.756-1.947,4.06,4.06,0,0,1,2.285-.944l2.733-.4q0-2.592-2.012-2.593a4.4,4.4,0,0,0-2.918,1.152v-1.231a3.824,3.824,0,0,1,.636-.365,6.046,6.046,0,0,1,.752-.281,6.192,6.192,0,0,1,.813-.184,5.207,5.207,0,0,1,.813-.066,2.926,2.926,0,0,1,2.273.843,3.63,3.63,0,0,1,.768,2.514v5.854Zm-2.32-4.368a6.964,6.964,0,0,0-1.037.219,2.139,2.139,0,0,0-.712.356,1.327,1.327,0,0,0-.413.554,2.2,2.2,0,0,0-.132.813,1.728,1.728,0,0,0,.127.668,1.507,1.507,0,0,0,.369.532,1.673,1.673,0,0,0,.59.347,2.337,2.337,0,0,0,.786.123,2.593,2.593,0,0,0,1.964-.862,2.953,2.953,0,0,0,.572-.966,3.538,3.538,0,0,0,.206-1.222v-.888Z" fill="#2f2f2f"/>
      <path d="M349.187,234.535a2.784,2.784,0,0,1-1.266.29q-2.179,0-2.18-2.513v-5.687h-1.582v-.984h1.582v-2.268l1.125-.369v2.637h2.321v.984h-2.321v5.511a2.256,2.256,0,0,0,.3,1.318,1.174,1.174,0,0,0,1.011.4,1.821,1.821,0,0,0,1.011-.316Z" fill="#2f2f2f"/>
      <path d="M356.3,234.641v-1.6h-.035a3.3,3.3,0,0,1-1.2,1.336,3.176,3.176,0,0,1-1.717.475,3.5,3.5,0,0,1-1.173-.185,2.5,2.5,0,0,1-.889-.523,2.294,2.294,0,0,1-.562-.813,2.707,2.707,0,0,1-.2-1.046,2.574,2.574,0,0,1,.756-1.947,4.063,4.063,0,0,1,2.285-.944l2.734-.4q0-2.592-2.013-2.593a4.4,4.4,0,0,0-2.918,1.152v-1.231a3.834,3.834,0,0,1,.637-.365,5.929,5.929,0,0,1,.752-.281,6.177,6.177,0,0,1,.812-.184,5.22,5.22,0,0,1,.814-.066,2.924,2.924,0,0,1,2.272.843,3.626,3.626,0,0,1,.769,2.514v5.854Zm-2.321-4.368a6.964,6.964,0,0,0-1.037.219,2.149,2.149,0,0,0-.712.356,1.336,1.336,0,0,0-.413.554,2.2,2.2,0,0,0-.132.813,1.728,1.728,0,0,0,.127.668,1.5,1.5,0,0,0,.37.532,1.677,1.677,0,0,0,.589.347,2.347,2.347,0,0,0,.787.123,2.593,2.593,0,0,0,1.963-.862,2.938,2.938,0,0,0,.573-.966,3.562,3.562,0,0,0,.206-1.222v-.888Z" fill="#2f2f2f"/>
      <path d="M172.853,244.964a.785.785,0,0,1-.563-.228.771.771,0,0,1-.237-.58.746.746,0,0,1,.237-.567.794.794,0,0,1,.563-.224.881.881,0,0,1,.316.057.755.755,0,0,1,.259.163.8.8,0,0,1,.176.25.784.784,0,0,1,.066.321.82.82,0,0,1-.062.316.76.76,0,0,1-.175.26.863.863,0,0,1-.26.171A.811.811,0,0,1,172.853,244.964Zm-.554,11.277v-9h1.125v9Z" fill="#2f2f2f"/>
      <path d="M175.519,254.624a3.651,3.651,0,0,0,.553.36,4.823,4.823,0,0,0,.616.272,3.757,3.757,0,0,0,.637.172,3.493,3.493,0,0,0,.611.057q2,0,2-1.5a1.188,1.188,0,0,0-.14-.593,1.552,1.552,0,0,0-.4-.457,3.422,3.422,0,0,0-.633-.383q-.369-.176-.835-.369a8.521,8.521,0,0,1-1.073-.518,3.283,3.283,0,0,1-.738-.576,2.071,2.071,0,0,1-.43-.686,2.386,2.386,0,0,1-.141-.848,2.146,2.146,0,0,1,.26-1.063,2.466,2.466,0,0,1,.7-.791,3.241,3.241,0,0,1,1.016-.5,4.214,4.214,0,0,1,1.208-.171,4.468,4.468,0,0,1,2.039.439v1.187a3.953,3.953,0,0,0-2.18-.651,2.652,2.652,0,0,0-.769.106,1.788,1.788,0,0,0-.593.3,1.372,1.372,0,0,0-.382.461,1.291,1.291,0,0,0-.137.593,1.486,1.486,0,0,0,.106.585,1.269,1.269,0,0,0,.33.453,2.764,2.764,0,0,0,.58.386q.356.184.865.4a10.873,10.873,0,0,1,1.125.523,3.5,3.5,0,0,1,.782.562,1.969,1.969,0,0,1,.457.677,2.314,2.314,0,0,1,.15.866,2.283,2.283,0,0,1-.25,1.081,2.337,2.337,0,0,1-.695.8,3.23,3.23,0,0,1-1.042.492,4.829,4.829,0,0,1-1.3.167,4.309,4.309,0,0,1-2.294-.572Z" fill="#2f2f2f"/>
      <path d="M188.808,251.943a5.028,5.028,0,0,0,.219,1.485,3.138,3.138,0,0,0,.607,1.116,2.6,2.6,0,0,0,.963.7,3.229,3.229,0,0,0,1.278.242,4.575,4.575,0,0,0,2.874-1.064v1.108a5.242,5.242,0,0,1-3.129.923,4.129,4.129,0,0,1-1.643-.317,3.4,3.4,0,0,1-1.257-.918,4.191,4.191,0,0,1-.8-1.481,6.555,6.555,0,0,1-.281-2,5.528,5.528,0,0,1,.307-1.872,4.626,4.626,0,0,1,.853-1.49,3.923,3.923,0,0,1,1.292-.984,3.742,3.742,0,0,1,1.635-.356,3.69,3.69,0,0,1,1.538.3,3.024,3.024,0,0,1,1.121.866,3.911,3.911,0,0,1,.689,1.371,6.424,6.424,0,0,1,.238,1.81v.563Zm5.343-.984a3.422,3.422,0,0,0-.668-2.18,2.189,2.189,0,0,0-1.784-.774,2.728,2.728,0,0,0-1.058.2,2.5,2.5,0,0,0-.858.584,3.144,3.144,0,0,0-.61.932,4.664,4.664,0,0,0-.339,1.235Z" fill="#2f2f2f"/>
      <path d="M200.577,256.241h-1.072l-3.446-9H197.3l2.488,6.855a5.219,5.219,0,0,1,.289,1.1h.035a5.48,5.48,0,0,1,.274-1.064l2.574-6.89h1.205Z" fill="#2f2f2f"/>
      <path d="M205.993,251.943a5.027,5.027,0,0,0,.22,1.485,3.152,3.152,0,0,0,.606,1.116,2.6,2.6,0,0,0,.963.7,3.23,3.23,0,0,0,1.279.242,4.579,4.579,0,0,0,2.874-1.064v1.108a5.246,5.246,0,0,1-3.129.923,4.13,4.13,0,0,1-1.644-.317,3.416,3.416,0,0,1-1.257-.918,4.223,4.223,0,0,1-.8-1.481,6.586,6.586,0,0,1-.281-2,5.528,5.528,0,0,1,.308-1.872,4.624,4.624,0,0,1,.852-1.49,3.933,3.933,0,0,1,1.292-.984,3.742,3.742,0,0,1,1.635-.356,3.687,3.687,0,0,1,1.538.3,3,3,0,0,1,1.12.866,3.914,3.914,0,0,1,.691,1.371,6.426,6.426,0,0,1,.237,1.81v.563Zm5.344-.984a3.428,3.428,0,0,0-.668-2.18,2.191,2.191,0,0,0-1.784-.774,2.742,2.742,0,0,0-1.06.2,2.514,2.514,0,0,0-.856.584,3.146,3.146,0,0,0-.611.932,4.626,4.626,0,0,0-.338,1.235Z" fill="#2f2f2f"/>
      <path d="M219.081,248.392a1.682,1.682,0,0,0-1.019-.29,1.747,1.747,0,0,0-.791.171,2.022,2.022,0,0,0-.6.462,2.757,2.757,0,0,0-.439.672,4.585,4.585,0,0,0-.29.8,5.663,5.663,0,0,0-.158.835,6.867,6.867,0,0,0-.049.8v4.4h-1.116v-9h1.116v1.925h.036a3.936,3.936,0,0,1,.4-.884,2.739,2.739,0,0,1,.558-.659,2.323,2.323,0,0,1,.69-.409,2.224,2.224,0,0,1,.786-.14,3.082,3.082,0,0,1,.487.035,1.883,1.883,0,0,1,.392.1Z" fill="#2f2f2f"/>
      <path d="M223.947,257.876a5.366,5.366,0,0,1-1.213,1.955,2.349,2.349,0,0,1-1.661.637,2.551,2.551,0,0,1-.817-.114V259.3a2.428,2.428,0,0,0,.39.106,2.344,2.344,0,0,0,.4.035,1.446,1.446,0,0,0,.963-.347,2.8,2.8,0,0,0,.707-1.05l.782-1.846-3.463-8.956h1.248l2.575,7.128a3.326,3.326,0,0,1,.1.321c.031.12.062.238.092.355h.044c.029-.1.057-.2.083-.3a3.356,3.356,0,0,1,.11-.338l2.733-7.163h1.187Z" fill="#2f2f2f"/>
      <path d="M233.177,256.452a4.609,4.609,0,0,1-1.8-.334,3.848,3.848,0,0,1-1.359-.945,4.158,4.158,0,0,1-.861-1.463,5.694,5.694,0,0,1-.3-1.89,5.972,5.972,0,0,1,.317-2.013,4.215,4.215,0,0,1,.9-1.507,3.843,3.843,0,0,1,1.41-.945,5,5,0,0,1,1.846-.325,4.6,4.6,0,0,1,1.758.321,3.593,3.593,0,0,1,1.327.927,4.126,4.126,0,0,1,.835,1.476,6.259,6.259,0,0,1,.29,1.978,5.754,5.754,0,0,1-.3,1.92,4.309,4.309,0,0,1-.865,1.49,3.839,3.839,0,0,1-1.371.967A4.654,4.654,0,0,1,233.177,256.452Zm.088-8.447a3.368,3.368,0,0,0-1.336.255,2.792,2.792,0,0,0-1.024.743,3.345,3.345,0,0,0-.655,1.2,5.224,5.224,0,0,0-.229,1.6,4.746,4.746,0,0,0,.229,1.521,3.413,3.413,0,0,0,.646,1.16,2.8,2.8,0,0,0,1.015.743,3.627,3.627,0,0,0,2.672.008,2.635,2.635,0,0,0,.984-.729,3.231,3.231,0,0,0,.612-1.173,5.618,5.618,0,0,0,.206-1.582,4.217,4.217,0,0,0-.809-2.782A2.848,2.848,0,0,0,233.265,248.005Z" fill="#2f2f2f"/>
      <path d="M245.767,256.241v-5.186q0-3.05-2.215-3.05a2.557,2.557,0,0,0-1.09.233,2.611,2.611,0,0,0-.865.646,3.03,3.03,0,0,0-.573.98,3.573,3.573,0,0,0-.206,1.226v5.151h-1.125v-9h1.125v1.564h.036a3.25,3.25,0,0,1,3.014-1.775,2.72,2.72,0,0,1,2.25.958,4.314,4.314,0,0,1,.774,2.768v5.485Z" fill="#2f2f2f"/>
      <path d="M250.086,251.943a5.027,5.027,0,0,0,.22,1.485,3.121,3.121,0,0,0,.606,1.116,2.6,2.6,0,0,0,.963.7,3.229,3.229,0,0,0,1.278.242,4.575,4.575,0,0,0,2.874-1.064v1.108a5.242,5.242,0,0,1-3.129.923,4.129,4.129,0,0,1-1.643-.317,3.416,3.416,0,0,1-1.257-.918,4.207,4.207,0,0,1-.8-1.481,6.586,6.586,0,0,1-.281-2,5.528,5.528,0,0,1,.308-1.872,4.624,4.624,0,0,1,.852-1.49,3.923,3.923,0,0,1,1.292-.984A3.742,3.742,0,0,1,253,247.03a3.687,3.687,0,0,1,1.538.3,3.02,3.02,0,0,1,1.12.866,3.931,3.931,0,0,1,.691,1.371,6.426,6.426,0,0,1,.237,1.81v.563Zm5.344-.984a3.434,3.434,0,0,0-.668-2.18,2.191,2.191,0,0,0-1.784-.774,2.742,2.742,0,0,0-1.06.2,2.514,2.514,0,0,0-.856.584,3.108,3.108,0,0,0-.611.932,4.664,4.664,0,0,0-.339,1.235Z" fill="#2f2f2f"/>
      <path d="M259.351,247.575H258.34v-3.938h1.011Z" fill="#2f2f2f"/>
      <path d="M261.367,254.624a3.711,3.711,0,0,0,.554.36,4.81,4.81,0,0,0,.615.272,3.783,3.783,0,0,0,.637.172,3.5,3.5,0,0,0,.611.057q2,0,2-1.5a1.188,1.188,0,0,0-.141-.593,1.524,1.524,0,0,0-.4-.457,3.422,3.422,0,0,0-.633-.383q-.369-.176-.835-.369a8.5,8.5,0,0,1-1.072-.518,3.239,3.239,0,0,1-.738-.576,2.074,2.074,0,0,1-.431-.686,2.386,2.386,0,0,1-.14-.848,2.135,2.135,0,0,1,.259-1.063,2.458,2.458,0,0,1,.7-.791,3.23,3.23,0,0,1,1.014-.5,4.226,4.226,0,0,1,1.209-.171,4.468,4.468,0,0,1,2.039.439v1.187a3.95,3.95,0,0,0-2.179-.651,2.649,2.649,0,0,0-.77.106,1.788,1.788,0,0,0-.593.3,1.361,1.361,0,0,0-.382.461,1.29,1.29,0,0,0-.136.593,1.5,1.5,0,0,0,.105.585,1.269,1.269,0,0,0,.33.453,2.764,2.764,0,0,0,.58.386q.355.184.866.4a11.072,11.072,0,0,1,1.125.523,3.5,3.5,0,0,1,.782.562,1.983,1.983,0,0,1,.457.677,2.334,2.334,0,0,1,.149.866,2.3,2.3,0,0,1-.25,1.081,2.347,2.347,0,0,1-.695.8,3.234,3.234,0,0,1-1.041.492,4.836,4.836,0,0,1-1.3.167,4.311,4.311,0,0,1-2.294-.572Z" fill="#2f2f2f"/>
      <path d="M275.245,254.791v1.45H274.12V242.917h1.125v6.046h.035a3.574,3.574,0,0,1,1.341-1.437,3.909,3.909,0,0,1,3.436-.184,3.156,3.156,0,0,1,1.152.892,4.143,4.143,0,0,1,.721,1.4,6.233,6.233,0,0,1,.25,1.82,6.872,6.872,0,0,1-.285,2.034,4.771,4.771,0,0,1-.814,1.578,3.687,3.687,0,0,1-1.278,1.024,3.814,3.814,0,0,1-1.684.365,3.05,3.05,0,0,1-2.839-1.661Zm0-2.294a3.2,3.2,0,0,0,.206,1.155,3.007,3.007,0,0,0,.576.95,2.683,2.683,0,0,0,.893.646,2.762,2.762,0,0,0,1.155.237,2.585,2.585,0,0,0,1.222-.286,2.673,2.673,0,0,0,.928-.813,3.955,3.955,0,0,0,.588-1.274,6.294,6.294,0,0,0,.207-1.67,4.908,4.908,0,0,0-.194-1.428,3.245,3.245,0,0,0-.549-1.086,2.387,2.387,0,0,0-.861-.685,2.634,2.634,0,0,0-1.13-.238,2.983,2.983,0,0,0-1.265.26,2.846,2.846,0,0,0-.958.707,3.136,3.136,0,0,0-.607,1.051,3.825,3.825,0,0,0-.211,1.278Z" fill="#2f2f2f"/>
      <path d="M290.293,256.241v-1.53h-.035a3.007,3.007,0,0,1-2.839,1.741q-3.209,0-3.208-3.92v-5.291h1.125v5.08a4.009,4.009,0,0,0,.575,2.39,2.055,2.055,0,0,0,1.763.774,2.407,2.407,0,0,0,1.886-.857,2.982,2.982,0,0,0,.54-.98,3.929,3.929,0,0,0,.193-1.266v-5.141h1.125v9Z" fill="#2f2f2f"/>
      <path d="M293.571,254.624a3.711,3.711,0,0,0,.554.36,4.81,4.81,0,0,0,.615.272,3.783,3.783,0,0,0,.637.172,3.5,3.5,0,0,0,.611.057q2,0,2-1.5a1.2,1.2,0,0,0-.14-.593,1.542,1.542,0,0,0-.4-.457,3.389,3.389,0,0,0-.633-.383q-.369-.176-.835-.369a8.5,8.5,0,0,1-1.072-.518,3.239,3.239,0,0,1-.738-.576,2.09,2.09,0,0,1-.431-.686,2.409,2.409,0,0,1-.14-.848,2.146,2.146,0,0,1,.259-1.063,2.458,2.458,0,0,1,.7-.791,3.241,3.241,0,0,1,1.014-.5,4.226,4.226,0,0,1,1.209-.171,4.465,4.465,0,0,1,2.039.439v1.187a3.947,3.947,0,0,0-2.179-.651,2.654,2.654,0,0,0-.77.106,1.788,1.788,0,0,0-.593.3,1.346,1.346,0,0,0-.381.461,1.278,1.278,0,0,0-.137.593,1.5,1.5,0,0,0,.105.585,1.281,1.281,0,0,0,.33.453,2.764,2.764,0,0,0,.58.386q.355.184.866.4a11.072,11.072,0,0,1,1.125.523,3.5,3.5,0,0,1,.782.562,1.983,1.983,0,0,1,.457.677,2.517,2.517,0,0,1-.1,1.947,2.347,2.347,0,0,1-.695.8,3.234,3.234,0,0,1-1.041.492,4.831,4.831,0,0,1-1.3.167,4.311,4.311,0,0,1-2.294-.572Z" fill="#2f2f2f"/>
      <path d="M301.653,244.964a.784.784,0,0,1-.562-.228.771.771,0,0,1-.237-.58.746.746,0,0,1,.237-.567.793.793,0,0,1,.562-.224.882.882,0,0,1,.317.057.765.765,0,0,1,.259.163.818.818,0,0,1,.176.25.784.784,0,0,1,.066.321.82.82,0,0,1-.062.316.749.749,0,0,1-.176.26.846.846,0,0,1-.259.171A.809.809,0,0,1,301.653,244.964Zm-.553,11.277v-9h1.125v9Z" fill="#2f2f2f"/>
      <path d="M310.979,256.241v-5.186q0-3.05-2.214-3.05a2.557,2.557,0,0,0-1.09.233,2.611,2.611,0,0,0-.865.646,3.012,3.012,0,0,0-.573.98,3.573,3.573,0,0,0-.206,1.226v5.151h-1.125v-9h1.125v1.564h.035a3.252,3.252,0,0,1,3.015-1.775,2.722,2.722,0,0,1,2.25.958,4.314,4.314,0,0,1,.773,2.768v5.485Z" fill="#2f2f2f"/>
      <path d="M315.3,251.943a5.027,5.027,0,0,0,.22,1.485,3.121,3.121,0,0,0,.606,1.116,2.6,2.6,0,0,0,.963.7,3.229,3.229,0,0,0,1.278.242,4.575,4.575,0,0,0,2.874-1.064v1.108a5.242,5.242,0,0,1-3.129.923,4.129,4.129,0,0,1-1.643-.317,3.416,3.416,0,0,1-1.257-.918,4.207,4.207,0,0,1-.8-1.481,6.586,6.586,0,0,1-.281-2,5.5,5.5,0,0,1,.308-1.872,4.624,4.624,0,0,1,.852-1.49,3.923,3.923,0,0,1,1.292-.984,3.742,3.742,0,0,1,1.635-.356,3.687,3.687,0,0,1,1.538.3,3.02,3.02,0,0,1,1.12.866,3.912,3.912,0,0,1,.69,1.371,6.388,6.388,0,0,1,.238,1.81v.563Zm5.344-.984a3.434,3.434,0,0,0-.668-2.18,2.192,2.192,0,0,0-1.785-.774,2.741,2.741,0,0,0-1.059.2,2.528,2.528,0,0,0-.857.584,3.125,3.125,0,0,0-.61.932,4.664,4.664,0,0,0-.339,1.235Z" fill="#2f2f2f"/>
      <path d="M323.367,254.624a3.711,3.711,0,0,0,.554.36,4.81,4.81,0,0,0,.615.272,3.783,3.783,0,0,0,.637.172,3.5,3.5,0,0,0,.611.057q2,0,2-1.5a1.188,1.188,0,0,0-.141-.593,1.524,1.524,0,0,0-.4-.457,3.422,3.422,0,0,0-.633-.383q-.369-.176-.835-.369a8.5,8.5,0,0,1-1.072-.518,3.239,3.239,0,0,1-.738-.576,2.074,2.074,0,0,1-.431-.686,2.386,2.386,0,0,1-.14-.848,2.135,2.135,0,0,1,.259-1.063,2.458,2.458,0,0,1,.7-.791,3.23,3.23,0,0,1,1.014-.5,4.226,4.226,0,0,1,1.209-.171,4.468,4.468,0,0,1,2.039.439v1.187a3.95,3.95,0,0,0-2.179-.651,2.649,2.649,0,0,0-.77.106,1.788,1.788,0,0,0-.593.3,1.361,1.361,0,0,0-.382.461,1.29,1.29,0,0,0-.136.593,1.5,1.5,0,0,0,.105.585,1.269,1.269,0,0,0,.33.453,2.764,2.764,0,0,0,.58.386q.355.184.866.4a11.072,11.072,0,0,1,1.125.523,3.5,3.5,0,0,1,.782.562,1.983,1.983,0,0,1,.457.677,2.334,2.334,0,0,1,.149.866,2.3,2.3,0,0,1-.25,1.081,2.347,2.347,0,0,1-.695.8,3.234,3.234,0,0,1-1.041.492,4.836,4.836,0,0,1-1.3.167,4.311,4.311,0,0,1-2.294-.572Z" fill="#2f2f2f"/>
      <path d="M330.57,254.624a3.711,3.711,0,0,0,.554.36,4.81,4.81,0,0,0,.615.272,3.783,3.783,0,0,0,.637.172,3.5,3.5,0,0,0,.611.057q2,0,2-1.5a1.2,1.2,0,0,0-.14-.593,1.542,1.542,0,0,0-.4-.457,3.356,3.356,0,0,0-.633-.383q-.369-.176-.834-.369a8.521,8.521,0,0,1-1.073-.518,3.239,3.239,0,0,1-.738-.576,2.09,2.09,0,0,1-.431-.686,2.409,2.409,0,0,1-.14-.848,2.146,2.146,0,0,1,.259-1.063,2.458,2.458,0,0,1,.7-.791,3.241,3.241,0,0,1,1.014-.5,4.226,4.226,0,0,1,1.209-.171,4.465,4.465,0,0,1,2.039.439v1.187a3.947,3.947,0,0,0-2.179-.651,2.654,2.654,0,0,0-.77.106,1.788,1.788,0,0,0-.593.3,1.346,1.346,0,0,0-.381.461,1.278,1.278,0,0,0-.137.593,1.5,1.5,0,0,0,.105.585,1.281,1.281,0,0,0,.33.453,2.764,2.764,0,0,0,.58.386q.356.184.866.4a11.072,11.072,0,0,1,1.125.523,3.5,3.5,0,0,1,.782.562,1.983,1.983,0,0,1,.457.677,2.517,2.517,0,0,1-.1,1.947,2.347,2.347,0,0,1-.695.8,3.234,3.234,0,0,1-1.041.492,4.831,4.831,0,0,1-1.3.167,4.311,4.311,0,0,1-2.294-.572Z" fill="#2f2f2f"/>
    </g>
    <g>
      <path d="M204.311,154.823H201.9l-.7-2.181h-3.486l-.691,2.181h-2.392l3.568-9.8h2.618Zm-3.61-3.876-1.053-3.3a4.263,4.263,0,0,1-.164-.882h-.054a3.824,3.824,0,0,1-.171.855l-1.067,3.322Z" fill="#2f2f2f"/>
      <path d="M211.216,154.823h-6.282v-.9l3.513-4.511h-3.165v-1.593h5.906v1.066l-3.329,4.341h3.357Z" fill="#2f2f2f"/>
      <path d="M219.1,154.823h-2.154v-1.067h-.034a2.442,2.442,0,0,1-2.139,1.238q-2.434,0-2.434-2.947v-4.224h2.153v4.033q0,1.483,1.176,1.483a1.163,1.163,0,0,0,.93-.406,1.642,1.642,0,0,0,.348-1.1v-4.006H219.1Z" fill="#2f2f2f"/>
      <path d="M225.433,149.771a1.882,1.882,0,0,0-.91-.212,1.309,1.309,0,0,0-1.1.516,2.249,2.249,0,0,0-.4,1.405v3.343h-2.16v-7h2.16v1.3h.028A1.869,1.869,0,0,1,224.9,147.7a1.39,1.39,0,0,1,.534.082Z" fill="#2f2f2f"/>
      <path d="M232.805,151.938h-4.567q.111,1.524,1.921,1.524a3.751,3.751,0,0,0,2.03-.546v1.558a5.331,5.331,0,0,1-2.522.52,3.258,3.258,0,0,1-3.568-3.562,3.754,3.754,0,0,1,1.011-2.762,3.372,3.372,0,0,1,2.489-1.018,3.061,3.061,0,0,1,2.369.909,3.507,3.507,0,0,1,.837,2.468Zm-2-1.326q0-1.5-1.217-1.5a1.16,1.16,0,0,0-.9.431,1.95,1.95,0,0,0-.462,1.073Z" fill="#2f2f2f"/>
    </g>
    <g>
      <path d="M295.7,154.823h-2.406l-.7-2.181h-3.487l-.69,2.181h-2.393l3.569-9.8h2.618Zm-3.609-3.876-1.053-3.3a4.331,4.331,0,0,1-.164-.882h-.055a3.663,3.663,0,0,1-.171.855l-1.066,3.322Z" fill="#2f2f2f"/>
      <path d="M304.951,154.823h-2.789l-2.857-4.259a3.966,3.966,0,0,1-.26-.54h-.034v4.8H296.8v-9.8h2.208v4.635h.034c.055-.128.145-.31.273-.547l2.707-4.088h2.632l-3.418,4.676Z" fill="#2f2f2f"/>
      <path d="M305.641,154.447v-2.188a4.2,4.2,0,0,0,1.292.749,4.156,4.156,0,0,0,1.408.249,3.134,3.134,0,0,0,.728-.075,1.716,1.716,0,0,0,.52-.208.9.9,0,0,0,.31-.315.777.777,0,0,0,.1-.393.855.855,0,0,0-.164-.513,1.788,1.788,0,0,0-.447-.417,4.836,4.836,0,0,0-.674-.369q-.39-.177-.841-.362a4.28,4.28,0,0,1-1.712-1.169,2.551,2.551,0,0,1-.564-1.668,2.659,2.659,0,0,1,.307-1.316,2.624,2.624,0,0,1,.838-.906,3.78,3.78,0,0,1,1.227-.523,6.34,6.34,0,0,1,1.476-.167,8.968,8.968,0,0,1,1.358.092,5.431,5.431,0,0,1,1.09.284v2.044a3.354,3.354,0,0,0-.537-.3,4.346,4.346,0,0,0-.6-.215,4.658,4.658,0,0,0-.612-.127,4.387,4.387,0,0,0-.578-.041,3,3,0,0,0-.683.072,1.758,1.758,0,0,0-.52.2,1.012,1.012,0,0,0-.328.311.739.739,0,0,0-.116.407.777.777,0,0,0,.13.44,1.519,1.519,0,0,0,.369.37,3.9,3.9,0,0,0,.581.341q.342.168.772.346a8.465,8.465,0,0,1,1.057.523,3.744,3.744,0,0,1,.8.625,2.431,2.431,0,0,1,.512.8,3.184,3.184,0,0,1-.132,2.42,2.533,2.533,0,0,1-.845.9,3.664,3.664,0,0,1-1.24.495,7.194,7.194,0,0,1-1.494.151,8.324,8.324,0,0,1-1.535-.137A4.635,4.635,0,0,1,305.641,154.447Z" fill="#2f2f2f"/>
    </g>
    <g>
      <path d="M227.159,196.724a6.472,6.472,0,0,1-2.8.52,4.723,4.723,0,0,1-3.547-1.326,4.847,4.847,0,0,1-1.292-3.535,5.179,5.179,0,0,1,1.452-3.814,5.083,5.083,0,0,1,3.77-1.463,7.064,7.064,0,0,1,2.42.362v2.126a4.287,4.287,0,0,0-2.242-.588,2.974,2.974,0,0,0-2.229.869,3.219,3.219,0,0,0-.847,2.351,3.156,3.156,0,0,0,.8,2.266,2.824,2.824,0,0,0,2.153.844,4.6,4.6,0,0,0,2.365-.628Z" fill="#2f2f2f"/>
      <path d="M235.173,197.073H233.02v-1.067h-.035a2.442,2.442,0,0,1-2.139,1.238q-2.433,0-2.434-2.947v-4.224h2.153v4.033q0,1.483,1.176,1.483a1.163,1.163,0,0,0,.93-.406,1.642,1.642,0,0,0,.349-1.1v-4.006h2.153Z" fill="#2f2f2f"/>
      <path d="M236.639,196.888v-1.75a4.582,4.582,0,0,0,1.062.479,3.528,3.528,0,0,0,1,.157,2.138,2.138,0,0,0,.905-.157.507.507,0,0,0,.332-.479.446.446,0,0,0-.15-.342,1.421,1.421,0,0,0-.387-.239,4.346,4.346,0,0,0-.515-.184c-.188-.055-.367-.117-.54-.185a5.251,5.251,0,0,1-.736-.338,2.125,2.125,0,0,1-.533-.421,1.656,1.656,0,0,1-.328-.553,2.219,2.219,0,0,1-.112-.746,1.913,1.913,0,0,1,.256-1.011,2.088,2.088,0,0,1,.683-.694,3.144,3.144,0,0,1,.978-.4,5.119,5.119,0,0,1,1.145-.126,6.351,6.351,0,0,1,.944.072,7.154,7.154,0,0,1,.943.208v1.668a3.415,3.415,0,0,0-.879-.359,3.734,3.734,0,0,0-.919-.119,2.044,2.044,0,0,0-.4.037,1.3,1.3,0,0,0-.331.11.6.6,0,0,0-.226.184.424.424,0,0,0-.082.257.476.476,0,0,0,.123.328,1.052,1.052,0,0,0,.321.235,3.163,3.163,0,0,0,.441.178c.162.052.322.106.482.161a6.127,6.127,0,0,1,.779.328,2.473,2.473,0,0,1,.6.417,1.63,1.63,0,0,1,.383.561,2.233,2.233,0,0,1-.137,1.828,2.153,2.153,0,0,1-.718.718,3.242,3.242,0,0,1-1.032.4,5.672,5.672,0,0,1-1.213.127A6.251,6.251,0,0,1,236.639,196.888Z" fill="#2f2f2f"/>
      <path d="M247.445,196.991a3.2,3.2,0,0,1-1.442.253q-2.284,0-2.283-2.372v-3.206h-1.135v-1.593h1.135v-1.511l2.153-.615v2.126h1.572v1.593h-1.572v2.83q0,1.093.868,1.093a1.466,1.466,0,0,0,.7-.2Z" fill="#2f2f2f"/>
      <path d="M251.979,197.244a3.764,3.764,0,0,1-2.752-.981,4.057,4.057,0,0,1,.038-5.38,3.924,3.924,0,0,1,2.809-.981,3.721,3.721,0,0,1,2.735.981,3.489,3.489,0,0,1,.991,2.594,3.7,3.7,0,0,1-1.023,2.755A3.8,3.8,0,0,1,251.979,197.244Zm.054-5.688a1.439,1.439,0,0,0-1.189.527,2.317,2.317,0,0,0-.424,1.49q0,2.016,1.627,2.016,1.551,0,1.552-2.071Q253.6,191.556,252.033,191.556Z" fill="#2f2f2f"/>
      <path d="M268.3,197.073h-2.153v-3.992q0-1.524-1.122-1.525a1.032,1.032,0,0,0-.868.458,1.891,1.891,0,0,0-.335,1.142v3.917h-2.16V193.04q0-1.484-1.1-1.484a1.053,1.053,0,0,0-.885.438,1.917,1.917,0,0,0-.332,1.189v3.89h-2.16v-7h2.16v1.094h.027a2.655,2.655,0,0,1,2.263-1.265,2.014,2.014,0,0,1,2.03,1.306,2.59,2.59,0,0,1,2.352-1.306q2.283,0,2.283,2.816Z" fill="#2f2f2f"/>
      <path d="M276.316,194.188H271.75q.109,1.524,1.921,1.524a3.753,3.753,0,0,0,2.03-.546v1.558a5.331,5.331,0,0,1-2.522.52,3.259,3.259,0,0,1-3.569-3.562,3.751,3.751,0,0,1,1.012-2.762,3.371,3.371,0,0,1,2.488-1.018,3.058,3.058,0,0,1,2.369.909,3.5,3.5,0,0,1,.837,2.468Zm-2-1.326q0-1.5-1.216-1.5a1.163,1.163,0,0,0-.9.431,1.957,1.957,0,0,0-.462,1.073Z" fill="#2f2f2f"/>
      <path d="M282.248,192.021a1.875,1.875,0,0,0-.909-.212,1.312,1.312,0,0,0-1.1.516,2.261,2.261,0,0,0-.4,1.405v3.343h-2.16v-7h2.16v1.3h.027a1.869,1.869,0,0,1,1.846-1.422,1.381,1.381,0,0,1,.533.082Z" fill="#2f2f2f"/>
    </g>
    <g>
      <path d="M340.021,64.673v-9.8h2.707q5.181,0,5.181,4.778A4.811,4.811,0,0,1,346.47,63.3a5.334,5.334,0,0,1-3.852,1.378Zm1.148-8.764v7.725h1.463a4.153,4.153,0,0,0,3-1.032,3.868,3.868,0,0,0,1.073-2.926q0-3.767-4.006-3.767Z"/>
      <path d="M354.54,64.673h-1.121V63.579h-.027a2.347,2.347,0,0,1-2.154,1.258,2.3,2.3,0,0,1-1.636-.554,1.915,1.915,0,0,1-.592-1.469q0-1.963,2.31-2.284l2.1-.294q0-1.783-1.442-1.784a3.445,3.445,0,0,0-2.284.862V58.165a4.346,4.346,0,0,1,2.379-.656q2.469,0,2.468,2.611Zm-1.121-3.541-1.689.232a2.733,2.733,0,0,0-1.175.387,1.111,1.111,0,0,0-.4.981,1.07,1.07,0,0,0,.365.837,1.421,1.421,0,0,0,.975.325,1.8,1.8,0,0,0,1.377-.585,2.086,2.086,0,0,0,.544-1.48Z"/>
      <path d="M359.8,64.605a2.162,2.162,0,0,1-1.046.218q-1.839,0-1.839-2.05V58.63h-1.2v-.957h1.2V55.964l1.121-.362v2.071H359.8v.957h-1.764v3.944a1.639,1.639,0,0,0,.239,1.005.954.954,0,0,0,.793.3,1.185,1.185,0,0,0,.732-.232Z"/>
      <path d="M366.416,64.673H365.3V63.579h-.027a2.347,2.347,0,0,1-2.154,1.258,2.3,2.3,0,0,1-1.636-.554,1.915,1.915,0,0,1-.592-1.469q0-1.963,2.31-2.284l2.1-.294q0-1.783-1.442-1.784a3.445,3.445,0,0,0-2.284.862V58.165a4.346,4.346,0,0,1,2.379-.656q2.469,0,2.468,2.611ZM365.3,61.132l-1.689.232a2.733,2.733,0,0,0-1.175.387,1.111,1.111,0,0,0-.4.981,1.07,1.07,0,0,0,.365.837,1.421,1.421,0,0,0,.975.325,1.8,1.8,0,0,0,1.377-.585,2.086,2.086,0,0,0,.544-1.48Z"/>
      <path d="M373.512,63.661h-.028v4.232h-1.121V57.673h1.121V58.9h.028a2.651,2.651,0,0,1,2.42-1.394,2.562,2.562,0,0,1,2.112.94,3.891,3.891,0,0,1,.759,2.519,4.337,4.337,0,0,1-.855,2.813,2.843,2.843,0,0,1-2.338,1.056A2.341,2.341,0,0,1,373.512,63.661Zm-.028-2.823v.977a2.081,2.081,0,0,0,.565,1.474,2.01,2.01,0,0,0,3.027-.175,3.566,3.566,0,0,0,.578-2.167,2.817,2.817,0,0,0-.54-1.832,1.786,1.786,0,0,0-1.463-.663,1.989,1.989,0,0,0-1.572.68A2.5,2.5,0,0,0,373.484,60.838Z"/>
      <path d="M384.17,58.808a1.368,1.368,0,0,0-.848-.226,1.429,1.429,0,0,0-1.2.677,3.123,3.123,0,0,0-.482,1.846v3.568H380.52v-7h1.121v1.442h.027a2.444,2.444,0,0,1,.731-1.152,1.675,1.675,0,0,1,1.1-.413,1.824,1.824,0,0,1,.67.1Z"/>
      <path d="M388.313,64.837a3.249,3.249,0,0,1-2.479-.981,3.636,3.636,0,0,1-.926-2.6,3.784,3.784,0,0,1,.964-2.755,3.466,3.466,0,0,1,2.6-.991,3.135,3.135,0,0,1,2.443.964,3.818,3.818,0,0,1,.879,2.673,3.764,3.764,0,0,1-.947,2.683A3.318,3.318,0,0,1,388.313,64.837Zm.082-6.385a2.131,2.131,0,0,0-1.709.735,3.021,3.021,0,0,0-.629,2.027,2.858,2.858,0,0,0,.635,1.962,2.164,2.164,0,0,0,1.7.718,2.051,2.051,0,0,0,1.671-.7,3.062,3.062,0,0,0,.584-2,3.113,3.113,0,0,0-.584-2.024A2.041,2.041,0,0,0,388.4,58.452Z"/>
      <path d="M396.691,64.605a2.158,2.158,0,0,1-1.045.218q-1.839,0-1.839-2.05V58.63h-1.2v-.957h1.2V55.964l1.121-.362v2.071h1.763v.957h-1.763v3.944a1.639,1.639,0,0,0,.239,1.005.953.953,0,0,0,.793.3,1.184,1.184,0,0,0,.731-.232Z"/>
      <path d="M403.685,61.453h-4.943a2.624,2.624,0,0,0,.629,1.8,2.167,2.167,0,0,0,1.654.636,3.439,3.439,0,0,0,2.174-.78v1.053a4.058,4.058,0,0,1-2.44.67,2.958,2.958,0,0,1-2.331-.954,3.9,3.9,0,0,1-.848-2.683,3.829,3.829,0,0,1,.926-2.662,2.972,2.972,0,0,1,2.3-1.029,2.63,2.63,0,0,1,2.126.889,3.705,3.705,0,0,1,.752,2.467Zm-1.149-.95a2.288,2.288,0,0,0-.468-1.511,1.6,1.6,0,0,0-1.282-.54,1.812,1.812,0,0,0-1.347.568,2.575,2.575,0,0,0-.683,1.483Z"/>
      <path d="M410.182,64.352a3.649,3.649,0,0,1-1.914.485,3.168,3.168,0,0,1-2.416-.974,3.527,3.527,0,0,1-.92-2.526,3.881,3.881,0,0,1,.991-2.779,3.466,3.466,0,0,1,2.645-1.049,3.677,3.677,0,0,1,1.627.342V59a2.845,2.845,0,0,0-1.668-.547,2.253,2.253,0,0,0-1.759.769,2.914,2.914,0,0,0-.688,2.02,2.773,2.773,0,0,0,.647,1.942,2.222,2.222,0,0,0,1.732.711,2.811,2.811,0,0,0,1.723-.609Z"/>
      <path d="M415.346,64.605a2.165,2.165,0,0,1-1.046.218q-1.839,0-1.839-2.05V58.63h-1.2v-.957h1.2V55.964l1.121-.362v2.071h1.764v.957h-1.764v3.944a1.639,1.639,0,0,0,.239,1.005.953.953,0,0,0,.793.3,1.187,1.187,0,0,0,.732-.232Z"/>
      <path d="M417.3,55.9a.713.713,0,0,1-.513-.206.688.688,0,0,1-.212-.519.717.717,0,0,1,.725-.731.724.724,0,0,1,.523.208.731.731,0,0,1,0,1.036A.72.72,0,0,1,417.3,55.9Zm.547,8.777h-1.121v-7h1.121Z"/>
      <path d="M422.941,64.837a3.248,3.248,0,0,1-2.478-.981,3.636,3.636,0,0,1-.926-2.6A3.784,3.784,0,0,1,420.5,58.5a3.465,3.465,0,0,1,2.6-.991,3.137,3.137,0,0,1,2.444.964,3.818,3.818,0,0,1,.879,2.673,3.76,3.76,0,0,1-.948,2.683A3.315,3.315,0,0,1,422.941,64.837Zm.082-6.385a2.133,2.133,0,0,0-1.709.735,3.026,3.026,0,0,0-.628,2.027,2.853,2.853,0,0,0,.635,1.962,2.164,2.164,0,0,0,1.7.718,2.052,2.052,0,0,0,1.672-.7,3.062,3.062,0,0,0,.584-2,3.113,3.113,0,0,0-.584-2.024A2.042,2.042,0,0,0,423.023,58.452Z"/>
      <path d="M433.954,64.673h-1.121V60.681q0-2.229-1.627-2.229a1.765,1.765,0,0,0-1.391.633,2.341,2.341,0,0,0-.55,1.6v3.992h-1.121v-7h1.121v1.162h.027a2.526,2.526,0,0,1,2.3-1.326,2.142,2.142,0,0,1,1.757.742,3.307,3.307,0,0,1,.608,2.143Z"/>
    </g>
    <g>
      <path d="M211.024,19.9h-1.408l-5.045-7.813a3.243,3.243,0,0,1-.314-.615h-.041a10.137,10.137,0,0,1,.055,1.346V19.9h-1.149V10.1h1.49l4.909,7.69c.205.319.336.538.4.656h.027A10.307,10.307,0,0,1,209.876,17V10.1h1.148Z"/>
      <path d="M219,16.682h-4.942a2.614,2.614,0,0,0,.628,1.8,2.17,2.17,0,0,0,1.655.636,3.446,3.446,0,0,0,2.174-.779V19.4a4.07,4.07,0,0,1-2.441.669,2.958,2.958,0,0,1-2.331-.953,3.9,3.9,0,0,1-.848-2.683,3.83,3.83,0,0,1,.926-2.663,2.972,2.972,0,0,1,2.3-1.029,2.633,2.633,0,0,1,2.126.889A3.706,3.706,0,0,1,219,16.094Zm-1.149-.95a2.287,2.287,0,0,0-.467-1.511,1.6,1.6,0,0,0-1.283-.54,1.811,1.811,0,0,0-1.346.567,2.582,2.582,0,0,0-.684,1.484Z"/>
      <path d="M223.928,19.833a2.164,2.164,0,0,1-1.046.219q-1.839,0-1.839-2.051V13.858h-1.2V12.9h1.2V11.192l1.121-.362V12.9h1.764v.957h-1.764V17.8a1.641,1.641,0,0,0,.239,1,.957.957,0,0,0,.793.3,1.179,1.179,0,0,0,.732-.232Z"/>
      <path d="M234.618,12.9l-2.1,7h-1.163l-1.442-5.01a3.236,3.236,0,0,1-.109-.65h-.028a3.023,3.023,0,0,1-.143.636L228.069,19.9h-1.121l-2.119-7h1.176l1.449,5.264a3.2,3.2,0,0,1,.1.629h.054a2.928,2.928,0,0,1,.124-.643l1.613-5.25h1.025l1.449,5.278a3.627,3.627,0,0,1,.1.629h.055a2.854,2.854,0,0,1,.116-.629l1.422-5.278Z"/>
      <path d="M238.692,20.065a3.251,3.251,0,0,1-2.478-.98,3.636,3.636,0,0,1-.926-2.6,3.781,3.781,0,0,1,.964-2.754,3.466,3.466,0,0,1,2.6-.992,3.14,3.14,0,0,1,2.444.964,3.822,3.822,0,0,1,.879,2.673,3.756,3.756,0,0,1-.948,2.683A3.311,3.311,0,0,1,238.692,20.065Zm.082-6.384a2.133,2.133,0,0,0-1.709.735,3.016,3.016,0,0,0-.628,2.026,2.852,2.852,0,0,0,.635,1.962,2.159,2.159,0,0,0,1.7.718,2.052,2.052,0,0,0,1.672-.7,3.058,3.058,0,0,0,.584-2,3.11,3.11,0,0,0-.584-2.023A2.042,2.042,0,0,0,238.774,13.681Z"/>
      <path d="M247.545,14.036a1.375,1.375,0,0,0-.848-.225,1.428,1.428,0,0,0-1.2.676,3.127,3.127,0,0,0-.482,1.846V19.9H243.9v-7h1.121v1.443h.027a2.444,2.444,0,0,1,.731-1.152,1.671,1.671,0,0,1,1.1-.414,1.824,1.824,0,0,1,.67.1Z"/>
      <path d="M254.6,19.9h-1.573l-3.089-3.363h-.028V19.9h-1.121V9.538h1.121v6.569h.028l2.939-3.206h1.47L251.1,16.278Z"/>
      <path d="M259.158,19.648v-1.2a3.314,3.314,0,0,0,2.017.677q1.476,0,1.476-.984a.856.856,0,0,0-.126-.475,1.3,1.3,0,0,0-.341-.346,2.727,2.727,0,0,0-.506-.27c-.195-.079-.4-.163-.626-.249a8.041,8.041,0,0,1-.818-.373,2.515,2.515,0,0,1-.588-.423,1.6,1.6,0,0,1-.355-.537,1.915,1.915,0,0,1-.119-.7,1.678,1.678,0,0,1,.225-.872,2.006,2.006,0,0,1,.6-.636,2.833,2.833,0,0,1,.858-.386,3.831,3.831,0,0,1,.995-.13,4.012,4.012,0,0,1,1.627.315v1.135a3.167,3.167,0,0,0-1.778-.506,2.109,2.109,0,0,0-.567.071,1.41,1.41,0,0,0-.435.2.935.935,0,0,0-.279.311.821.821,0,0,0-.1.4.961.961,0,0,0,.1.458.983.983,0,0,0,.29.328,2.225,2.225,0,0,0,.465.26q.273.117.622.253a8.7,8.7,0,0,1,.834.366,2.854,2.854,0,0,1,.629.423,1.678,1.678,0,0,1,.4.544,1.759,1.759,0,0,1,.14.731,1.715,1.715,0,0,1-.23.9,1.949,1.949,0,0,1-.611.635,2.789,2.789,0,0,1-.882.376,4.356,4.356,0,0,1-1.046.123A3.975,3.975,0,0,1,259.158,19.648Z"/>
      <path d="M271.113,16.682h-4.942a2.61,2.61,0,0,0,.629,1.8,2.167,2.167,0,0,0,1.654.636,3.444,3.444,0,0,0,2.174-.779V19.4a4.067,4.067,0,0,1-2.44.669,2.959,2.959,0,0,1-2.332-.953,3.9,3.9,0,0,1-.847-2.683,3.825,3.825,0,0,1,.926-2.663,2.97,2.97,0,0,1,2.3-1.029,2.633,2.633,0,0,1,2.126.889,3.706,3.706,0,0,1,.752,2.468Zm-1.148-.95a2.288,2.288,0,0,0-.468-1.511,1.6,1.6,0,0,0-1.282-.54,1.813,1.813,0,0,0-1.347.567,2.575,2.575,0,0,0-.683,1.484Z"/>
      <path d="M277.611,19.58a3.637,3.637,0,0,1-1.914.485,3.166,3.166,0,0,1-2.416-.974,3.529,3.529,0,0,1-.92-2.526,3.875,3.875,0,0,1,.992-2.778A3.467,3.467,0,0,1,276,12.737a3.683,3.683,0,0,1,1.627.342v1.149a2.848,2.848,0,0,0-1.668-.547,2.25,2.25,0,0,0-1.76.769,2.912,2.912,0,0,0-.687,2.02,2.777,2.777,0,0,0,.646,1.941,2.225,2.225,0,0,0,1.733.711,2.813,2.813,0,0,0,1.722-.608Z"/>
      <path d="M284.837,19.9h-1.121V18.794h-.028a2.3,2.3,0,0,1-2.16,1.271q-2.5,0-2.5-2.98V12.9h1.115v4.006q0,2.216,1.695,2.215a1.719,1.719,0,0,0,1.351-.605,2.32,2.32,0,0,0,.529-1.582V12.9h1.121Z"/>
      <path d="M290.594,14.036a1.377,1.377,0,0,0-.848-.225,1.428,1.428,0,0,0-1.2.676,3.127,3.127,0,0,0-.483,1.846V19.9h-1.121v-7h1.121v1.443h.028a2.444,2.444,0,0,1,.731-1.152,1.669,1.669,0,0,1,1.1-.414,1.828,1.828,0,0,1,.67.1Z"/>
      <path d="M292.412,11.124a.712.712,0,0,1-.513-.205.693.693,0,0,1-.211-.52.717.717,0,0,1,.724-.731.725.725,0,0,1,.524.209.733.733,0,0,1,0,1.035A.724.724,0,0,1,292.412,11.124Zm.547,8.777h-1.121v-7h1.121Z"/>
      <path d="M298.406,19.833a2.159,2.159,0,0,1-1.046.219q-1.838,0-1.839-2.051V13.858h-1.2V12.9h1.2V11.192l1.122-.362V12.9h1.763v.957h-1.763V17.8a1.641,1.641,0,0,0,.239,1,.956.956,0,0,0,.793.3,1.178,1.178,0,0,0,.731-.232Z"/>
      <path d="M305.885,12.9l-3.22,8.122q-.861,2.174-2.42,2.173a2.533,2.533,0,0,1-.731-.089v-1a2.078,2.078,0,0,0,.663.123,1.374,1.374,0,0,0,1.271-1.012l.561-1.326L299.274,12.9h1.245l1.893,5.387c.023.069.07.246.144.533h.041c.022-.109.068-.282.136-.519l1.99-5.4Z"/>
    </g>
    <g>
      <path d="M85.189,64.673H83.918l-1.039-2.748H78.723l-.978,2.748H76.467l3.76-9.8h1.189ZM82.5,60.893l-1.538-4.177a4.009,4.009,0,0,1-.151-.656h-.027a3.753,3.753,0,0,1-.157.656l-1.525,4.177Z"/>
      <path d="M91.094,64.352a3.649,3.649,0,0,1-1.914.485,3.168,3.168,0,0,1-2.416-.974,3.527,3.527,0,0,1-.92-2.526,3.881,3.881,0,0,1,.991-2.779,3.466,3.466,0,0,1,2.645-1.049,3.677,3.677,0,0,1,1.627.342V59a2.845,2.845,0,0,0-1.668-.547,2.253,2.253,0,0,0-1.759.769,2.914,2.914,0,0,0-.688,2.02,2.773,2.773,0,0,0,.647,1.942,2.222,2.222,0,0,0,1.732.711,2.811,2.811,0,0,0,1.723-.609Z"/>
      <path d="M97.388,64.352a3.649,3.649,0,0,1-1.914.485,3.168,3.168,0,0,1-2.416-.974,3.527,3.527,0,0,1-.92-2.526,3.881,3.881,0,0,1,.991-2.779,3.466,3.466,0,0,1,2.645-1.049,3.677,3.677,0,0,1,1.627.342V59a2.845,2.845,0,0,0-1.668-.547,2.253,2.253,0,0,0-1.759.769,2.914,2.914,0,0,0-.688,2.02,2.773,2.773,0,0,0,.647,1.942,2.222,2.222,0,0,0,1.732.711,2.811,2.811,0,0,0,1.723-.609Z"/>
      <path d="M104.558,61.453H99.615a2.624,2.624,0,0,0,.629,1.8,2.168,2.168,0,0,0,1.654.636,3.437,3.437,0,0,0,2.174-.78v1.053a4.058,4.058,0,0,1-2.44.67,2.958,2.958,0,0,1-2.331-.954,3.9,3.9,0,0,1-.848-2.683,3.829,3.829,0,0,1,.926-2.662,2.972,2.972,0,0,1,2.3-1.029,2.63,2.63,0,0,1,2.126.889,3.705,3.705,0,0,1,.752,2.467Zm-1.149-.95a2.288,2.288,0,0,0-.468-1.511,1.6,1.6,0,0,0-1.282-.54,1.808,1.808,0,0,0-1.346.568,2.57,2.57,0,0,0-.684,1.483Z"/>
      <path d="M105.8,64.42v-1.2a3.317,3.317,0,0,0,2.016.677q1.477,0,1.477-.985a.856.856,0,0,0-.126-.475,1.273,1.273,0,0,0-.342-.345,2.609,2.609,0,0,0-.506-.27c-.194-.08-.4-.163-.626-.25a8.25,8.25,0,0,1-.817-.372,2.525,2.525,0,0,1-.588-.424,1.592,1.592,0,0,1-.355-.537,1.911,1.911,0,0,1-.12-.7,1.675,1.675,0,0,1,.226-.871,2,2,0,0,1,.6-.636,2.785,2.785,0,0,1,.858-.386,3.775,3.775,0,0,1,.994-.13,4.022,4.022,0,0,1,1.627.314v1.135a3.171,3.171,0,0,0-1.777-.506,2.076,2.076,0,0,0-.568.072,1.382,1.382,0,0,0-.434.2.916.916,0,0,0-.279.311.808.808,0,0,0-.1.4.949.949,0,0,0,.1.458.993.993,0,0,0,.29.328,2.215,2.215,0,0,0,.464.259q.274.117.622.253a8.846,8.846,0,0,1,.834.366,2.843,2.843,0,0,1,.629.424,1.667,1.667,0,0,1,.4.543,1.761,1.761,0,0,1,.139.732,1.721,1.721,0,0,1-.229.9,1.962,1.962,0,0,1-.611.636,2.812,2.812,0,0,1-.882.376,4.362,4.362,0,0,1-1.046.123A3.97,3.97,0,0,1,105.8,64.42Z"/>
      <path d="M111.727,64.42v-1.2a3.317,3.317,0,0,0,2.016.677q1.477,0,1.477-.985a.856.856,0,0,0-.126-.475,1.273,1.273,0,0,0-.342-.345,2.669,2.669,0,0,0-.506-.27c-.194-.08-.4-.163-.626-.25a8.25,8.25,0,0,1-.817-.372,2.5,2.5,0,0,1-.588-.424,1.6,1.6,0,0,1-.356-.537,1.911,1.911,0,0,1-.119-.7,1.665,1.665,0,0,1,.226-.871,1.992,1.992,0,0,1,.6-.636,2.791,2.791,0,0,1,.859-.386,3.775,3.775,0,0,1,.994-.13,4.029,4.029,0,0,1,1.627.314v1.135a3.174,3.174,0,0,0-1.777-.506,2.076,2.076,0,0,0-.568.072,1.382,1.382,0,0,0-.434.2.92.92,0,0,0-.28.311.818.818,0,0,0-.1.4.961.961,0,0,0,.1.458,1,1,0,0,0,.29.328,2.25,2.25,0,0,0,.465.259q.275.117.622.253a8.846,8.846,0,0,1,.834.366,2.891,2.891,0,0,1,.629.424,1.667,1.667,0,0,1,.4.543,1.777,1.777,0,0,1,.139.732,1.721,1.721,0,0,1-.229.9,1.965,1.965,0,0,1-.612.636,2.806,2.806,0,0,1-.881.376,4.362,4.362,0,0,1-1.046.123A3.97,3.97,0,0,1,111.727,64.42Z"/>
      <path d="M126.7,64.352a3.649,3.649,0,0,1-1.914.485,3.168,3.168,0,0,1-2.416-.974,3.531,3.531,0,0,1-.92-2.526,3.881,3.881,0,0,1,.991-2.779,3.468,3.468,0,0,1,2.646-1.049,3.683,3.683,0,0,1,1.627.342V59a2.848,2.848,0,0,0-1.668-.547,2.254,2.254,0,0,0-1.76.769,2.914,2.914,0,0,0-.687,2.02,2.778,2.778,0,0,0,.646,1.942,2.225,2.225,0,0,0,1.733.711,2.808,2.808,0,0,0,1.722-.609Z"/>
      <path d="M131.138,64.837a3.251,3.251,0,0,1-2.479-.981,3.636,3.636,0,0,1-.926-2.6A3.788,3.788,0,0,1,128.7,58.5a3.466,3.466,0,0,1,2.6-.991,3.135,3.135,0,0,1,2.443.964,3.818,3.818,0,0,1,.879,2.673,3.759,3.759,0,0,1-.947,2.683A3.318,3.318,0,0,1,131.138,64.837Zm.082-6.385a2.132,2.132,0,0,0-1.709.735,3.021,3.021,0,0,0-.629,2.027,2.854,2.854,0,0,0,.636,1.962,2.161,2.161,0,0,0,1.7.718,2.055,2.055,0,0,0,1.672-.7,3.068,3.068,0,0,0,.584-2,3.119,3.119,0,0,0-.584-2.024A2.044,2.044,0,0,0,131.22,58.452Z"/>
      <path d="M142.15,64.673h-1.121V60.681q0-2.229-1.627-2.229a1.761,1.761,0,0,0-1.39.633,2.341,2.341,0,0,0-.551,1.6v3.992H136.34v-7h1.121v1.162h.027a2.527,2.527,0,0,1,2.3-1.326,2.139,2.139,0,0,1,1.757.742,3.307,3.307,0,0,1,.608,2.143Z"/>
      <path d="M147.379,64.605a2.162,2.162,0,0,1-1.046.218q-1.839,0-1.839-2.05V58.63h-1.2v-.957h1.2V55.964l1.121-.362v2.071h1.764v.957h-1.764v3.944a1.639,1.639,0,0,0,.239,1.005.954.954,0,0,0,.793.3,1.185,1.185,0,0,0,.732-.232Z"/>
      <path d="M152.41,58.808a1.365,1.365,0,0,0-.847-.226,1.431,1.431,0,0,0-1.2.677,3.123,3.123,0,0,0-.482,1.846v3.568H148.76v-7h1.121v1.442h.027a2.445,2.445,0,0,1,.732-1.152,1.67,1.67,0,0,1,1.1-.413,1.824,1.824,0,0,1,.67.1Z"/>
      <path d="M156.553,64.837a3.251,3.251,0,0,1-2.479-.981,3.636,3.636,0,0,1-.926-2.6,3.788,3.788,0,0,1,.964-2.755,3.466,3.466,0,0,1,2.605-.991,3.135,3.135,0,0,1,2.443.964,3.818,3.818,0,0,1,.879,2.673,3.759,3.759,0,0,1-.947,2.683A3.318,3.318,0,0,1,156.553,64.837Zm.082-6.385a2.132,2.132,0,0,0-1.709.735,3.021,3.021,0,0,0-.629,2.027,2.854,2.854,0,0,0,.636,1.962,2.161,2.161,0,0,0,1.7.718,2.055,2.055,0,0,0,1.672-.7,3.068,3.068,0,0,0,.584-2,3.119,3.119,0,0,0-.584-2.024A2.044,2.044,0,0,0,156.635,58.452Z"/>
      <path d="M162.869,64.673h-1.121V54.31h1.121Z"/>
      <path d="M164.648,64.42v-1.2a3.322,3.322,0,0,0,2.017.677q1.476,0,1.477-.985a.856.856,0,0,0-.126-.475,1.287,1.287,0,0,0-.342-.345,2.669,2.669,0,0,0-.506-.27c-.194-.08-.4-.163-.626-.25a8.145,8.145,0,0,1-.817-.372,2.5,2.5,0,0,1-.588-.424,1.58,1.58,0,0,1-.356-.537,1.911,1.911,0,0,1-.119-.7,1.665,1.665,0,0,1,.226-.871,1.992,1.992,0,0,1,.6-.636,2.78,2.78,0,0,1,.859-.386,3.775,3.775,0,0,1,.994-.13,4.029,4.029,0,0,1,1.627.314v1.135a3.175,3.175,0,0,0-1.778-.506,2.069,2.069,0,0,0-.567.072,1.4,1.4,0,0,0-.435.2.927.927,0,0,0-.279.311.818.818,0,0,0-.1.4.961.961,0,0,0,.1.458,1,1,0,0,0,.29.328,2.224,2.224,0,0,0,.465.259q.275.117.622.253a8.846,8.846,0,0,1,.834.366,2.891,2.891,0,0,1,.629.424,1.65,1.65,0,0,1,.4.543,1.76,1.76,0,0,1,.14.732,1.721,1.721,0,0,1-.229.9,1.965,1.965,0,0,1-.612.636,2.812,2.812,0,0,1-.882.376,4.356,4.356,0,0,1-1.046.123A3.975,3.975,0,0,1,164.648,64.42Z"/>
    </g>
    <g>
      <path d="M17.764,112.4H16.615V107.93H11.543V112.4H10.4v-9.8h1.148v4.3h5.072v-4.3h1.149Z"/>
      <path d="M23.021,112.565a3.248,3.248,0,0,1-2.478-.981,3.636,3.636,0,0,1-.926-2.6,3.784,3.784,0,0,1,.964-2.755,3.466,3.466,0,0,1,2.605-.991,3.136,3.136,0,0,1,2.443.964,3.818,3.818,0,0,1,.879,2.673,3.764,3.764,0,0,1-.947,2.683A3.319,3.319,0,0,1,23.021,112.565Zm.083-6.385a2.131,2.131,0,0,0-1.709.735,3.021,3.021,0,0,0-.629,2.027A2.858,2.858,0,0,0,21.4,110.9a2.164,2.164,0,0,0,1.7.718,2.051,2.051,0,0,0,1.671-.7,3.062,3.062,0,0,0,.584-2,3.113,3.113,0,0,0-.584-2.024A2.041,2.041,0,0,0,23.1,106.18Z"/>
      <path d="M27.772,112.148v-1.2a3.322,3.322,0,0,0,2.017.677q1.476,0,1.477-.985a.856.856,0,0,0-.126-.475,1.287,1.287,0,0,0-.342-.345,2.727,2.727,0,0,0-.506-.27c-.194-.08-.4-.163-.626-.25a8.145,8.145,0,0,1-.817-.372,2.5,2.5,0,0,1-.588-.424,1.58,1.58,0,0,1-.356-.537,1.911,1.911,0,0,1-.119-.7,1.665,1.665,0,0,1,.226-.871,1.992,1.992,0,0,1,.6-.636,2.78,2.78,0,0,1,.859-.386,3.775,3.775,0,0,1,.994-.13,4.029,4.029,0,0,1,1.627.314v1.135a3.175,3.175,0,0,0-1.778-.506,2.069,2.069,0,0,0-.567.072,1.4,1.4,0,0,0-.435.2.927.927,0,0,0-.279.311.818.818,0,0,0-.1.4.961.961,0,0,0,.1.458,1,1,0,0,0,.29.328,2.271,2.271,0,0,0,.465.26q.274.115.622.252a8.846,8.846,0,0,1,.834.366,2.891,2.891,0,0,1,.629.424,1.65,1.65,0,0,1,.4.543,1.764,1.764,0,0,1,.14.732,1.721,1.721,0,0,1-.229.9,1.956,1.956,0,0,1-.612.636,2.812,2.812,0,0,1-.882.376,4.354,4.354,0,0,1-1.045.123A3.977,3.977,0,0,1,27.772,112.148Z"/>
      <path d="M37.426,112.333a2.162,2.162,0,0,1-1.046.218q-1.839,0-1.839-2.05v-4.143h-1.2V105.4h1.2v-1.709l1.121-.362V105.4h1.764v.957H35.662V110.3a1.637,1.637,0,0,0,.239,1,.954.954,0,0,0,.793.3,1.185,1.185,0,0,0,.732-.232Z"/>
      <path d="M43.332,103.624a.716.716,0,0,1-.513-.2.7.7,0,0,1-.212-.52.717.717,0,0,1,.725-.731.724.724,0,0,1,.523.208.731.731,0,0,1,0,1.036A.72.72,0,0,1,43.332,103.624Zm.547,8.777H42.758v-7h1.121Z"/>
      <path d="M51.808,112.4H50.687v-3.992q0-2.229-1.627-2.229a1.762,1.762,0,0,0-1.391.633,2.341,2.341,0,0,0-.551,1.6V112.4H46v-7h1.121v1.162h.028a2.524,2.524,0,0,1,2.3-1.326,2.139,2.139,0,0,1,1.757.742,3.307,3.307,0,0,1,.609,2.143Z"/>
      <path d="M57.214,103.022a1.494,1.494,0,0,0-.745-.185q-1.176,0-1.176,1.484v1.08h1.641v.957H55.293V112.4H54.179v-6.043h-1.2V105.4h1.2v-1.135a2.363,2.363,0,0,1,.635-1.74,2.148,2.148,0,0,1,1.586-.639,2.2,2.2,0,0,1,.814.123Z"/>
      <path d="M61.825,106.536a1.365,1.365,0,0,0-.847-.226,1.431,1.431,0,0,0-1.2.677,3.123,3.123,0,0,0-.482,1.846V112.4H58.175v-7H59.3v1.442h.027a2.445,2.445,0,0,1,.732-1.152,1.67,1.67,0,0,1,1.1-.413,1.824,1.824,0,0,1,.67.1Z"/>
      <path d="M68,112.4H66.88v-1.094h-.027a2.348,2.348,0,0,1-2.154,1.258,2.3,2.3,0,0,1-1.636-.554,1.915,1.915,0,0,1-.592-1.469q0-1.963,2.31-2.284l2.1-.294q0-1.783-1.442-1.784a3.445,3.445,0,0,0-2.284.862v-1.149a4.346,4.346,0,0,1,2.379-.656q2.469,0,2.468,2.611ZM66.88,108.86l-1.689.232a2.733,2.733,0,0,0-1.175.387,1.111,1.111,0,0,0-.4.981,1.07,1.07,0,0,0,.365.837,1.421,1.421,0,0,0,.975.325,1.8,1.8,0,0,0,1.377-.585,2.085,2.085,0,0,0,.544-1.48Z"/>
      <path d="M69.643,112.148v-1.2a3.317,3.317,0,0,0,2.016.677q1.478,0,1.477-.985a.856.856,0,0,0-.126-.475,1.273,1.273,0,0,0-.342-.345,2.727,2.727,0,0,0-.506-.27c-.194-.08-.4-.163-.626-.25a8.25,8.25,0,0,1-.817-.372,2.5,2.5,0,0,1-.588-.424,1.6,1.6,0,0,1-.356-.537,1.911,1.911,0,0,1-.119-.7,1.665,1.665,0,0,1,.226-.871,1.992,1.992,0,0,1,.6-.636,2.791,2.791,0,0,1,.859-.386,3.775,3.775,0,0,1,.994-.13,4.029,4.029,0,0,1,1.627.314v1.135a3.174,3.174,0,0,0-1.777-.506,2.076,2.076,0,0,0-.568.072,1.382,1.382,0,0,0-.434.2.92.92,0,0,0-.28.311.818.818,0,0,0-.1.4.961.961,0,0,0,.1.458,1,1,0,0,0,.29.328,2.3,2.3,0,0,0,.465.26q.274.115.622.252a8.846,8.846,0,0,1,.834.366,2.891,2.891,0,0,1,.629.424,1.667,1.667,0,0,1,.4.543,1.78,1.78,0,0,1,.139.732,1.721,1.721,0,0,1-.229.9,1.956,1.956,0,0,1-.612.636,2.806,2.806,0,0,1-.881.376,4.362,4.362,0,0,1-1.046.123A3.97,3.97,0,0,1,69.643,112.148Z"/>
      <path d="M79.3,112.333a2.162,2.162,0,0,1-1.046.218q-1.839,0-1.839-2.05v-4.143h-1.2V105.4h1.2v-1.709l1.121-.362V105.4H79.3v.957H77.532V110.3a1.637,1.637,0,0,0,.239,1,.954.954,0,0,0,.793.3,1.185,1.185,0,0,0,.732-.232Z"/>
      <path d="M86.414,112.4H85.293v-1.107h-.027a2.3,2.3,0,0,1-2.161,1.271q-2.5,0-2.5-2.98V105.4h1.114v4.006q0,2.214,1.695,2.215a1.719,1.719,0,0,0,1.351-.605,2.322,2.322,0,0,0,.529-1.583V105.4h1.121Z"/>
      <path d="M93.357,112.08a3.646,3.646,0,0,1-1.914.485,3.169,3.169,0,0,1-2.416-.974,3.531,3.531,0,0,1-.92-2.526,3.882,3.882,0,0,1,.992-2.779,3.466,3.466,0,0,1,2.645-1.049,3.683,3.683,0,0,1,1.627.342v1.148a2.845,2.845,0,0,0-1.668-.547,2.254,2.254,0,0,0-1.76.769,2.914,2.914,0,0,0-.687,2.02,2.778,2.778,0,0,0,.646,1.942,2.225,2.225,0,0,0,1.733.711,2.808,2.808,0,0,0,1.722-.609Z"/>
      <path d="M98.521,112.333a2.158,2.158,0,0,1-1.045.218q-1.839,0-1.839-2.05v-4.143h-1.2V105.4h1.2v-1.709l1.121-.362V105.4h1.763v.957H96.758V110.3a1.637,1.637,0,0,0,.239,1,.953.953,0,0,0,.793.3,1.184,1.184,0,0,0,.731-.232Z"/>
      <path d="M105.639,112.4h-1.121v-1.107h-.028a2.3,2.3,0,0,1-2.16,1.271q-2.5,0-2.5-2.98V105.4h1.114v4.006q0,2.214,1.7,2.215a1.715,1.715,0,0,0,1.35-.605,2.318,2.318,0,0,0,.53-1.583V105.4h1.121Z"/>
      <path d="M111.4,106.536a1.365,1.365,0,0,0-.847-.226,1.428,1.428,0,0,0-1.2.677,3.116,3.116,0,0,0-.483,1.846V112.4h-1.121v-7h1.121v1.442h.028a2.444,2.444,0,0,1,.731-1.152,1.671,1.671,0,0,1,1.1-.413,1.819,1.819,0,0,1,.669.1Z"/>
      <path d="M118.239,109.181H113.3a2.612,2.612,0,0,0,.629,1.805,2.167,2.167,0,0,0,1.654.636,3.439,3.439,0,0,0,2.174-.78V111.9a4.061,4.061,0,0,1-2.441.67,2.959,2.959,0,0,1-2.331-.954,3.9,3.9,0,0,1-.847-2.683,3.824,3.824,0,0,1,.926-2.662,2.97,2.97,0,0,1,2.3-1.029,2.63,2.63,0,0,1,2.126.889,3.705,3.705,0,0,1,.752,2.467Zm-1.148-.95a2.288,2.288,0,0,0-.468-1.511,1.6,1.6,0,0,0-1.282-.54,1.81,1.81,0,0,0-1.347.568,2.569,2.569,0,0,0-.683,1.483Z"/>
    </g>
    <g>
      <path d="M397.178,112.4h-1.142v-6.576q0-.78.1-1.907H396.1a6.2,6.2,0,0,1-.293.95l-3.35,7.533H391.9l-3.342-7.479a5.777,5.777,0,0,1-.294-1h-.028q.054.588.055,1.92V112.4h-1.107v-9.8H388.7l3.008,6.836a8.738,8.738,0,0,1,.451,1.176h.041q.294-.807.472-1.2l3.069-6.809h1.436Z"/>
      <path d="M404.492,112.4h-1.121v-1.094h-.027a2.347,2.347,0,0,1-2.154,1.258,2.3,2.3,0,0,1-1.636-.554,1.915,1.915,0,0,1-.592-1.469q0-1.963,2.31-2.284l2.1-.294q0-1.783-1.442-1.784a3.44,3.44,0,0,0-2.283.862v-1.149a4.34,4.34,0,0,1,2.378-.656q2.469,0,2.468,2.611Zm-1.121-3.541-1.688.232a2.733,2.733,0,0,0-1.176.387,1.111,1.111,0,0,0-.4.981,1.068,1.068,0,0,0,.366.837,1.417,1.417,0,0,0,.974.325,1.8,1.8,0,0,0,1.377-.585,2.085,2.085,0,0,0,.544-1.48Z"/>
      <path d="M407.633,112.4h-1.121V102.038h1.121Z"/>
      <path d="M418.715,105.4l-2.1,7h-1.162l-1.442-5.011a3.294,3.294,0,0,1-.11-.649h-.027a3.1,3.1,0,0,1-.144.636l-1.565,5.024h-1.121l-2.119-7H410.1l1.449,5.264a3.122,3.122,0,0,1,.1.629h.055a2.982,2.982,0,0,1,.123-.643l1.614-5.25h1.025l1.449,5.277a3.76,3.76,0,0,1,.1.629h.054a2.873,2.873,0,0,1,.117-.629l1.421-5.277Z"/>
      <path d="M424.889,112.4h-1.121v-1.094h-.028a2.345,2.345,0,0,1-2.153,1.258,2.3,2.3,0,0,1-1.637-.554,1.919,1.919,0,0,1-.592-1.469q0-1.963,2.311-2.284l2.1-.294q0-1.783-1.443-1.784a3.442,3.442,0,0,0-2.283.862v-1.149a4.342,4.342,0,0,1,2.379-.656q2.467,0,2.468,2.611Zm-1.121-3.541-1.689.232a2.743,2.743,0,0,0-1.176.387,1.113,1.113,0,0,0-.4.981,1.07,1.07,0,0,0,.365.837,1.418,1.418,0,0,0,.975.325,1.8,1.8,0,0,0,1.377-.585,2.085,2.085,0,0,0,.544-1.48Z"/>
      <path d="M430.561,106.536a1.37,1.37,0,0,0-.848-.226,1.428,1.428,0,0,0-1.2.677,3.116,3.116,0,0,0-.483,1.846V112.4H426.91v-7h1.121v1.442h.028a2.444,2.444,0,0,1,.731-1.152,1.671,1.671,0,0,1,1.1-.413,1.828,1.828,0,0,1,.67.1Z"/>
      <path d="M437.4,109.181h-4.942a2.612,2.612,0,0,0,.629,1.805,2.167,2.167,0,0,0,1.654.636,3.439,3.439,0,0,0,2.174-.78V111.9a4.06,4.06,0,0,1-2.44.67,2.96,2.96,0,0,1-2.332-.954,3.9,3.9,0,0,1-.847-2.683,3.824,3.824,0,0,1,.926-2.662,2.97,2.97,0,0,1,2.3-1.029,2.63,2.63,0,0,1,2.126.889,3.705,3.705,0,0,1,.752,2.467Zm-1.148-.95a2.288,2.288,0,0,0-.468-1.511,1.6,1.6,0,0,0-1.282-.54,1.81,1.81,0,0,0-1.347.568,2.575,2.575,0,0,0-.683,1.483Z"/>
      <path d="M448.908,112.4h-1.121v-1.19h-.027a2.588,2.588,0,0,1-2.406,1.354,2.616,2.616,0,0,1-2.11-.94,3.862,3.862,0,0,1-.789-2.56,4.2,4.2,0,0,1,.875-2.782,2.886,2.886,0,0,1,2.331-1.046,2.244,2.244,0,0,1,2.1,1.135h.027v-4.334h1.121Zm-1.121-3.165V108.2a2,2,0,0,0-.56-1.436,1.881,1.881,0,0,0-1.422-.588,1.938,1.938,0,0,0-1.614.752,3.3,3.3,0,0,0-.587,2.078,2.958,2.958,0,0,0,.564,1.911,1.842,1.842,0,0,0,1.514.7,1.916,1.916,0,0,0,1.521-.677A2.524,2.524,0,0,0,447.787,109.236Z"/>
      <path d="M456.729,109.181h-4.942a2.622,2.622,0,0,0,.629,1.805,2.167,2.167,0,0,0,1.654.636,3.439,3.439,0,0,0,2.174-.78V111.9a4.06,4.06,0,0,1-2.44.67,2.956,2.956,0,0,1-2.331-.954,3.9,3.9,0,0,1-.848-2.683,3.829,3.829,0,0,1,.926-2.662,2.972,2.972,0,0,1,2.3-1.029,2.63,2.63,0,0,1,2.126.889,3.7,3.7,0,0,1,.751,2.467Zm-1.148-.95a2.288,2.288,0,0,0-.468-1.511,1.6,1.6,0,0,0-1.282-.54,1.812,1.812,0,0,0-1.347.568,2.575,2.575,0,0,0-.683,1.483Z"/>
      <path d="M461.654,112.333a2.159,2.159,0,0,1-1.046.218q-1.838,0-1.838-2.05v-4.143h-1.2V105.4h1.2v-1.709l1.121-.362V105.4h1.763v.957h-1.763V110.3a1.637,1.637,0,0,0,.239,1,.953.953,0,0,0,.793.3,1.184,1.184,0,0,0,.731-.232Z"/>
      <path d="M468.646,109.181H463.7a2.622,2.622,0,0,0,.629,1.805,2.167,2.167,0,0,0,1.654.636,3.439,3.439,0,0,0,2.174-.78V111.9a4.06,4.06,0,0,1-2.44.67,2.956,2.956,0,0,1-2.331-.954,3.9,3.9,0,0,1-.848-2.683,3.829,3.829,0,0,1,.926-2.662,2.972,2.972,0,0,1,2.3-1.029,2.63,2.63,0,0,1,2.126.889,3.7,3.7,0,0,1,.751,2.467Zm-1.148-.95a2.288,2.288,0,0,0-.468-1.511,1.6,1.6,0,0,0-1.282-.54,1.812,1.812,0,0,0-1.347.568,2.575,2.575,0,0,0-.683,1.483Z"/>
      <path d="M475.145,112.08a3.653,3.653,0,0,1-1.915.485,3.169,3.169,0,0,1-2.416-.974,3.53,3.53,0,0,1-.919-2.526,3.881,3.881,0,0,1,.991-2.779,3.466,3.466,0,0,1,2.645-1.049,3.683,3.683,0,0,1,1.627.342v1.148a2.845,2.845,0,0,0-1.668-.547,2.255,2.255,0,0,0-1.76.769,2.914,2.914,0,0,0-.687,2.02,2.778,2.778,0,0,0,.646,1.942,2.225,2.225,0,0,0,1.733.711,2.813,2.813,0,0,0,1.723-.609Z"/>
      <path d="M480.308,112.333a2.165,2.165,0,0,1-1.046.218q-1.839,0-1.839-2.05v-4.143h-1.2V105.4h1.2v-1.709l1.121-.362V105.4h1.764v.957h-1.764V110.3a1.637,1.637,0,0,0,.239,1,.953.953,0,0,0,.793.3,1.187,1.187,0,0,0,.732-.232Z"/>
      <path d="M482.263,103.624a.716.716,0,0,1-.513-.2.692.692,0,0,1-.212-.52.717.717,0,0,1,.725-.731.724.724,0,0,1,.523.208.731.731,0,0,1,0,1.036A.72.72,0,0,1,482.263,103.624Zm.547,8.777h-1.122v-7h1.122Z"/>
      <path d="M487.9,112.565a3.248,3.248,0,0,1-2.478-.981,3.636,3.636,0,0,1-.926-2.6,3.784,3.784,0,0,1,.964-2.755,3.463,3.463,0,0,1,2.6-.991,3.137,3.137,0,0,1,2.444.964,3.818,3.818,0,0,1,.879,2.673,3.76,3.76,0,0,1-.948,2.683A3.315,3.315,0,0,1,487.9,112.565Zm.082-6.385a2.133,2.133,0,0,0-1.709.735,3.021,3.021,0,0,0-.629,2.027,2.854,2.854,0,0,0,.636,1.962,2.162,2.162,0,0,0,1.7.718,2.052,2.052,0,0,0,1.672-.7,3.062,3.062,0,0,0,.584-2,3.113,3.113,0,0,0-.584-2.024A2.042,2.042,0,0,0,487.986,106.18Z"/>
      <path d="M498.917,112.4H497.8v-3.992q0-2.229-1.627-2.229a1.763,1.763,0,0,0-1.391.633,2.341,2.341,0,0,0-.55,1.6V112.4h-1.122v-7h1.122v1.162h.027a2.526,2.526,0,0,1,2.3-1.326,2.142,2.142,0,0,1,1.757.742,3.307,3.307,0,0,1,.608,2.143Z"/>
    </g>
  </g>
</svg>
