<?xml version="1.0" encoding="UTF-8" standalone="no"?>
<!DOCTYPE svg PUBLIC "-//W3C//DTD SVG 1.1//EN" "http://www.w3.org/Graphics/SVG/1.1/DTD/svg11.dtd">
<!-- Generated by Microsoft Visio, SVG Export spoke-to-spoke-through-peerings.svg spoke-to-spoke-through-peerings -->
<svg xmlns="http://www.w3.org/2000/svg" xmlns:xlink="http://www.w3.org/1999/xlink" xmlns:ev="http://www.w3.org/2001/xml-events"
		width="2.5in" height="1.55859in" viewBox="0 0 180 112.219" xml:space="preserve" color-interpolation-filters="sRGB"
		class="st12">
	<style type="text/css">
	<![CDATA[
		.st1 {fill:#ffffff;stroke:none;stroke-linecap:round;stroke-linejoin:round;stroke-width:0.75}
		.st2 {fill:none;stroke:#0078d7;stroke-dasharray:0.01,2.25;stroke-width:0.75}
		.st3 {fill:#ffffff;stroke:none;stroke-linecap:butt;stroke-width:7.2}
		.st4 {fill:#000000;font-family:Segoe UI;font-size:0.75em}
		.st5 {fill:#ffffff;stroke:none;stroke-linecap:round;stroke-linejoin:round;stroke-width:0.24}
		.st6 {fill:url(#grad0-15);stroke:none;stroke-linecap:butt;stroke-width:0.75}
		.st7 {fill:url(#grad0-19);stroke:none;stroke-linecap:butt;stroke-width:0.75}
		.st8 {fill:#50e6ff;stroke:none;stroke-linecap:butt;stroke-width:0.75}
		.st9 {fill:#1490df;stroke:none;stroke-linecap:butt;stroke-width:0.75}
		.st10 {stroke:#000000;stroke-linecap:round;stroke-linejoin:round;stroke-width:0.75}
		.st11 {stroke:#00b050;stroke-linecap:round;stroke-linejoin:round;stroke-width:0.75}
		.st12 {fill:none;fill-rule:evenodd;font-size:12px;overflow:visible;stroke-linecap:square;stroke-miterlimit:3}
	]]>
	</style>

	<defs id="Patterns_And_Gradients">
		<linearGradient id="grad0-15" x1="0" y1="0" x2="1" y2="0" gradientTransform="rotate(44.92 0.5 0.5)">
			<stop offset="0" stop-color="#86d633" stop-opacity="1"/>
			<stop offset="1" stop-color="#5e9624" stop-opacity="1"/>
		</linearGradient>
		<linearGradient id="grad0-19" x1="0" y1="0" x2="1" y2="0" gradientTransform="rotate(45.175215904905 0.5 0.5)">
			<stop offset="0" stop-color="#86d633" stop-opacity="1"/>
			<stop offset="1" stop-color="#5e9624" stop-opacity="1"/>
		</linearGradient>
	</defs>
	<g>
		<title>VBackground-2</title>
		<g id="shape1000-1">
			<title>Solid.1000</title>
			<rect x="0" y="0" width="180" height="112.219" class="st1"/>
		</g>
	</g>
	<g>
		<title>2-pattern1-spoke-to-spoke-through-peerings</title>
		<g id="group1000-3" transform="translate(83.3365,-84.7458)">
			<title>Sheet.1000</title>
			<g id="shape1001-4">
				<title>Virtual Network Box.1251</title>
				<desc>Hub</desc>
				<path d="M0 112.22 L41 112.22 L41 90.54 L0 90.54 L0 112.22 Z" class="st2"/>
				<rect x="12.1146" y="95.979" width="16.7739" height="10.7998" class="st3"/>
				<text x="12.11" y="104.08" class="st4">Hub</text>			</g>
		</g>
		<g id="group1002-8" transform="translate(88.9166,-79.6908)">
			<title>Sheet.1002</title>
			<g id="shape1003-9">
				<title>white box to block out.1266</title>
				<rect x="0" y="101.356" width="15.5829" height="10.8626" class="st5"/>
			</g>
			<g id="group1004-11" transform="translate(2.0667,-1.95926)">
				<title>Virtual Networks.1252</title>
				<g id="shape1005-12" transform="translate(7.17992,-2.73086)">
					<title>Sheet.1005</title>
					<ellipse cx="0.718954" cy="111.472" rx="0.718954" ry="0.746992" class="st6"/>
				</g>
				<g id="shape1006-16" transform="translate(4.8867,-2.72442)">
					<title>Sheet.1006</title>
					<ellipse cx="0.718954" cy="111.472" rx="0.718954" ry="0.746992" class="st7"/>
				</g>
				<g id="shape1007-20" transform="translate(2.59349,-2.72442)">
					<title>Sheet.1007</title>
					<ellipse cx="0.718954" cy="111.472" rx="0.718954" ry="0.746992" class="st7"/>
				</g>
				<g id="shape1008-23" transform="translate(0.00526818,-1.42109E-14)">
					<title>Sheet.1008</title>
					<path d="M3.83 111.73 L3.42 112.16 a0.185936 0.193188 0 0 1 -0.26279 0 L0.11 109.01 a0.371873 0.386375 0 0 1
								 -0.000619788 -0.546077 L0.52 108.03 L3.83 111.46 a0.185936 0.193188 0 0 1 -4.44089E-16 0.273682
								 L3.83 111.73 Z" class="st8"/>
				</g>
				<g id="shape1009-25" transform="translate(0,-2.79075)">
					<title>Sheet.1009</title>
					<path d="M3.36 108.13 L3.77 108.56 a0.185936 0.193188 0 0 1 -1.02141E-14 0.273039 L0.52 112.22 L0.11 111.79 a0.371873
								 0.386375 0 0 1 -0.000619788 -0.546721 L3.1 108.13 a0.185936 0.193188 0 0 1 0.26279 0 L3.36 108.13
								 Z" class="st9"/>
				</g>
				<g id="shape1010-27" transform="translate(7.27243,-0.00579563)">
					<title>Sheet.1010</title>
					<path d="M3.36 108.03 L3.77 108.46 a0.371873 0.386375 0 0 1 2.66454E-15 0.546077 L0.73 112.16 a0.185936 0.193188
								 0 0 1 -0.26279 0 L0.05 111.73 a0.185936 0.193188 0 0 1 -1.80411E-15 -0.273039 L3.36 108.03 Z"
							class="st8"/>
				</g>
				<g id="shape1011-29" transform="translate(7.32728,-2.79461)">
					<title>Sheet.1011</title>
					<path d="M3.72 111.79 L3.31 112.22 L0.05 108.83 a0.185936 0.193188 0 0 1 -3.60822E-15 -0.273682 L0.47 108.13
								 a0.185936 0.193188 0 0 1 0.26279 0 L3.72 111.24 a0.371873 0.386375 0 0 1 -0.00123958 0.546721 L3.72
								 111.79 Z" class="st9"/>
				</g>
			</g>
		</g>
		<g id="group1012-31" transform="translate(11.25,-36.8441)">
			<title>Sheet.1012</title>
			<g id="shape1013-32" transform="translate(0,-5.05496)">
				<title>Virtual Network Box.1268</title>
				<desc>Spoke</desc>
				<path d="M0 112.22 L41 112.22 L41 90.54 L0 90.54 L0 112.22 Z" class="st2"/>
				<rect x="8.23865" y="95.979" width="24.5259" height="10.7998" class="st3"/>
				<text x="8.24" y="104.08" class="st4">Spoke</text>			</g>
			<g id="group1014-36" transform="translate(5.5801,1.42109E-14)">
				<title>Sheet.1014</title>
				<g id="shape1015-37">
					<title>white box to block out.1270</title>
					<rect x="0" y="101.356" width="15.5829" height="10.8626" class="st5"/>
				</g>
				<g id="group1016-39" transform="translate(2.0667,-1.95926)">
					<title>Virtual Networks.1271</title>
					<g id="shape1017-40" transform="translate(7.17992,-2.73086)">
						<title>Sheet.1017</title>
						<ellipse cx="0.718954" cy="111.472" rx="0.718954" ry="0.746992" class="st6"/>
					</g>
					<g id="shape1018-43" transform="translate(4.8867,-2.72442)">
						<title>Sheet.1018</title>
						<ellipse cx="0.718954" cy="111.472" rx="0.718954" ry="0.746992" class="st7"/>
					</g>
					<g id="shape1019-46" transform="translate(2.59349,-2.72442)">
						<title>Sheet.1019</title>
						<ellipse cx="0.718954" cy="111.472" rx="0.718954" ry="0.746992" class="st7"/>
					</g>
					<g id="shape1020-49" transform="translate(0.00526818,-1.42109E-14)">
						<title>Sheet.1020</title>
						<path d="M3.83 111.73 L3.42 112.16 a0.185936 0.193188 0 0 1 -0.26279 0 L0.11 109.01 a0.371873 0.386375 0
									 0 1 -0.000619788 -0.546077 L0.52 108.03 L3.83 111.46 a0.185936 0.193188 0 0 1 -4.44089E-16 0.273682
									 L3.83 111.73 Z" class="st8"/>
					</g>
					<g id="shape1021-51" transform="translate(0,-2.79075)">
						<title>Sheet.1021</title>
						<path d="M3.36 108.13 L3.77 108.56 a0.185936 0.193188 0 0 1 -4.44089E-16 0.273039 L0.52 112.22 L0.11 111.79
									 a0.371873 0.386375 0 0 1 -0.000619788 -0.546721 L3.1 108.13 a0.185936 0.193188 0 0 1 0.26279
									 0 L3.36 108.13 Z" class="st9"/>
					</g>
					<g id="shape1022-53" transform="translate(7.27243,-0.00579563)">
						<title>Sheet.1022</title>
						<path d="M3.36 108.03 L3.77 108.46 a0.371873 0.386375 0 0 1 -8.88178E-16 0.546077 L0.73 112.16 a0.185936
									 0.193188 0 0 1 -0.26279 0 L0.05 111.73 a0.185936 0.193188 0 0 1 -1.66533E-15 -0.273039 L3.36
									 108.03 Z" class="st8"/>
					</g>
					<g id="shape1023-55" transform="translate(7.32728,-2.79461)">
						<title>Sheet.1023</title>
						<path d="M3.72 111.79 L3.31 112.22 L0.05 108.83 a0.185936 0.193188 0 0 1 -1.30451E-15 -0.273682 L0.47 108.13
									 a0.185936 0.193188 0 0 1 0.26279 -1.42109E-14 L3.72 111.24 a0.371873 0.386375 0 0 1 -0.00123958
									 0.546721 L3.72 111.79 Z" class="st9"/>
					</g>
				</g>
			</g>
		</g>
		<g id="group1024-57" transform="translate(70.1715,-2.24998)">
			<title>Sheet.1024</title>
			<g id="shape1025-58" transform="translate(0,-5.05496)">
				<title>Virtual Network Box.1282</title>
				<desc>Spoke</desc>
				<path d="M0 112.22 L41 112.22 L41 90.54 L0 90.54 L0 112.22 Z" class="st2"/>
				<rect x="8.23865" y="95.979" width="24.5259" height="10.7998" class="st3"/>
				<text x="8.24" y="104.08" class="st4">Spoke</text>			</g>
			<g id="group1026-62" transform="translate(5.5801,1.42109E-14)">
				<title>Sheet.1026</title>
				<g id="shape1027-63">
					<title>white box to block out.1284</title>
					<rect x="0" y="101.356" width="15.5829" height="10.8626" class="st5"/>
				</g>
				<g id="group1028-65" transform="translate(2.0667,-1.95926)">
					<title>Virtual Networks.1285</title>
					<g id="shape1029-66" transform="translate(7.17992,-2.73086)">
						<title>Sheet.1029</title>
						<ellipse cx="0.718954" cy="111.472" rx="0.718954" ry="0.746992" class="st6"/>
					</g>
					<g id="shape1030-69" transform="translate(4.8867,-2.72442)">
						<title>Sheet.1030</title>
						<ellipse cx="0.718954" cy="111.472" rx="0.718954" ry="0.746992" class="st7"/>
					</g>
					<g id="shape1031-72" transform="translate(2.59349,-2.72442)">
						<title>Sheet.1031</title>
						<ellipse cx="0.718954" cy="111.472" rx="0.718954" ry="0.746992" class="st7"/>
					</g>
					<g id="shape1032-75" transform="translate(0.00526818,-1.42109E-14)">
						<title>Sheet.1032</title>
						<path d="M3.83 111.73 L3.42 112.16 a0.185936 0.193188 0 0 1 -0.26279 0 L0.11 109.01 a0.371873 0.386375 0
									 0 1 -0.000619788 -0.546077 L0.52 108.03 L3.83 111.46 a0.185936 0.193188 0 0 1 -4.44089E-16 0.273682
									 L3.83 111.73 Z" class="st8"/>
					</g>
					<g id="shape1033-77" transform="translate(0,-2.79075)">
						<title>Sheet.1033</title>
						<path d="M3.36 108.13 L3.77 108.56 a0.185936 0.193188 0 0 1 -4.44089E-16 0.273039 L0.52 112.22 L0.11 111.79
									 a0.371873 0.386375 0 0 1 -0.000619788 -0.546721 L3.1 108.13 a0.185936 0.193188 0 0 1 0.26279
									 0 L3.36 108.13 Z" class="st9"/>
					</g>
					<g id="shape1034-79" transform="translate(7.27243,-0.00579563)">
						<title>Sheet.1034</title>
						<path d="M3.36 108.03 L3.77 108.46 a0.371873 0.386375 0 0 1 -8.88178E-16 0.546077 L0.73 112.16 a0.185936
									 0.193188 0 0 1 -0.26279 0 L0.05 111.73 a0.185936 0.193188 0 0 1 -1.66533E-15 -0.273039 L3.36
									 108.03 Z" class="st8"/>
					</g>
					<g id="shape1035-81" transform="translate(7.32728,-2.79461)">
						<title>Sheet.1035</title>
						<path d="M3.72 111.79 L3.31 112.22 L0.05 108.83 a0.185936 0.193188 0 0 1 -1.30451E-15 -0.273682 L0.47 108.13
									 a0.185936 0.193188 0 0 1 0.26279 -1.42109E-14 L3.72 111.24 a0.371873 0.386375 0 0 1 -0.00123958
									 0.546721 L3.72 111.79 Z" class="st9"/>
					</g>
				</g>
			</g>
		</g>
		<g id="group1036-83" transform="translate(127.647,-36.8441)">
			<title>Sheet.1036</title>
			<g id="shape1037-84" transform="translate(0,-5.05496)">
				<title>Virtual Network Box.1294</title>
				<desc>Spoke</desc>
				<path d="M0 112.22 L41 112.22 L41 90.54 L0 90.54 L0 112.22 Z" class="st2"/>
				<rect x="8.23865" y="95.979" width="24.5259" height="10.7998" class="st3"/>
				<text x="8.24" y="104.08" class="st4">Spoke</text>			</g>
			<g id="group1038-88" transform="translate(5.5801,1.42109E-14)">
				<title>Sheet.1038</title>
				<g id="shape1039-89">
					<title>white box to block out.1296</title>
					<rect x="0" y="101.356" width="15.5829" height="10.8626" class="st5"/>
				</g>
				<g id="group1040-91" transform="translate(2.0667,-1.95926)">
					<title>Virtual Networks.1297</title>
					<g id="shape1041-92" transform="translate(7.17992,-2.73086)">
						<title>Sheet.1041</title>
						<ellipse cx="0.718954" cy="111.472" rx="0.718954" ry="0.746992" class="st6"/>
					</g>
					<g id="shape1042-95" transform="translate(4.8867,-2.72442)">
						<title>Sheet.1042</title>
						<ellipse cx="0.718954" cy="111.472" rx="0.718954" ry="0.746992" class="st7"/>
					</g>
					<g id="shape1043-98" transform="translate(2.59349,-2.72442)">
						<title>Sheet.1043</title>
						<ellipse cx="0.718954" cy="111.472" rx="0.718954" ry="0.746992" class="st7"/>
					</g>
					<g id="shape1044-101" transform="translate(0.00526818,-1.42109E-14)">
						<title>Sheet.1044</title>
						<path d="M3.83 111.73 L3.42 112.16 a0.185936 0.193188 0 0 1 -0.26279 0 L0.11 109.01 a0.371873 0.386375 0
									 0 1 -0.000619788 -0.546077 L0.52 108.03 L3.83 111.46 a0.185936 0.193188 0 0 1 -4.44089E-16 0.273682
									 L3.83 111.73 Z" class="st8"/>
					</g>
					<g id="shape1045-103" transform="translate(0,-2.79075)">
						<title>Sheet.1045</title>
						<path d="M3.36 108.13 L3.77 108.56 a0.185936 0.193188 0 0 1 -4.44089E-16 0.273039 L0.52 112.22 L0.11 111.79
									 a0.371873 0.386375 0 0 1 -0.000619788 -0.546721 L3.1 108.13 a0.185936 0.193188 0 0 1 0.26279
									 0 L3.36 108.13 Z" class="st9"/>
					</g>
					<g id="shape1046-105" transform="translate(7.27243,-0.00579563)">
						<title>Sheet.1046</title>
						<path d="M3.36 108.03 L3.77 108.46 a0.371873 0.386375 0 0 1 -8.88178E-16 0.546077 L0.73 112.16 a0.185936
									 0.193188 0 0 1 -0.26279 0 L0.05 111.73 a0.185936 0.193188 0 0 1 -1.66533E-15 -0.273039 L3.36
									 108.03 Z" class="st8"/>
					</g>
					<g id="shape1047-107" transform="translate(7.32728,-2.79461)">
						<title>Sheet.1047</title>
						<path d="M3.72 111.79 L3.31 112.22 L0.05 108.83 a0.185936 0.193188 0 0 1 -1.30451E-15 -0.273682 L0.47 108.13
									 a0.185936 0.193188 0 0 1 0.26279 -1.42109E-14 L3.72 111.24 a0.371873 0.386375 0 0 1 -0.00123958
									 0.546721 L3.72 111.79 Z" class="st9"/>
					</g>
				</g>
			</g>
		</g>
		<g id="shape1048-109" transform="translate(88.9166,-83.148)">
			<title>Dynamic connector.2744</title>
			<path d="M0 112.49 L-60.47 129.94" class="st10"/>
		</g>
		<g id="shape1049-112" transform="translate(103.222,-79.6908)">
			<title>Dynamic connector.2745</title>
			<path d="M-6.51 112.22 L-11.49 162.92" class="st10"/>
		</g>
		<g id="shape1050-115" transform="translate(104.5,-82.8705)">
			<title>Dynamic connector.2746</title>
			<path d="M0 112.77 L46.96 129.67" class="st10"/>
		</g>
		<g id="group1051-118" transform="translate(83.3365,-84.7458)">
			<title>Sheet.1051</title>
		</g>
		<g id="group1053-119" transform="translate(88.9166,-79.6908)">
			<title>Sheet.1053</title>
			<g id="shape1054-120">
				<title>white box to block out.1048</title>
				<rect x="0" y="101.356" width="15.5829" height="10.8626" class="st5"/>
			</g>
			<g id="group1055-122" transform="translate(2.0667,-1.95926)">
				<title>Virtual Networks.1028</title>
				<g id="shape1056-123" transform="translate(7.17992,-2.73086)">
					<title>Sheet.1056</title>
					<ellipse cx="0.718954" cy="111.472" rx="0.718954" ry="0.746992" class="st6"/>
				</g>
				<g id="shape1057-126" transform="translate(4.8867,-2.72442)">
					<title>Sheet.1057</title>
					<ellipse cx="0.718954" cy="111.472" rx="0.718954" ry="0.746992" class="st7"/>
				</g>
				<g id="shape1058-129" transform="translate(2.59349,-2.72442)">
					<title>Sheet.1058</title>
					<ellipse cx="0.718954" cy="111.472" rx="0.718954" ry="0.746992" class="st7"/>
				</g>
				<g id="shape1059-132" transform="translate(0.00526818,-1.42109E-14)">
					<title>Sheet.1059</title>
					<path d="M3.83 111.73 L3.42 112.16 a0.185936 0.193188 0 0 1 -0.26279 0 L0.11 109.01 a0.371873 0.386375 0 0 1
								 -0.000619788 -0.546077 L0.52 108.03 L3.83 111.46 a0.185936 0.193188 0 0 1 -4.44089E-16 0.273682
								 L3.83 111.73 Z" class="st8"/>
				</g>
				<g id="shape1060-134" transform="translate(0,-2.79075)">
					<title>Sheet.1060</title>
					<path d="M3.36 108.13 L3.77 108.56 a0.185936 0.193188 0 0 1 -1.02141E-14 0.273039 L0.52 112.22 L0.11 111.79 a0.371873
								 0.386375 0 0 1 -0.000619788 -0.546721 L3.1 108.13 a0.185936 0.193188 0 0 1 0.26279 0 L3.36 108.13
								 Z" class="st9"/>
				</g>
				<g id="shape1061-136" transform="translate(7.27243,-0.00579563)">
					<title>Sheet.1061</title>
					<path d="M3.36 108.03 L3.77 108.46 a0.371873 0.386375 0 0 1 2.66454E-15 0.546077 L0.73 112.16 a0.185936 0.193188
								 0 0 1 -0.26279 0 L0.05 111.73 a0.185936 0.193188 0 0 1 -1.80411E-15 -0.273039 L3.36 108.03 Z"
							class="st8"/>
				</g>
				<g id="shape1062-138" transform="translate(7.32728,-2.79461)">
					<title>Sheet.1062</title>
					<path d="M3.72 111.79 L3.31 112.22 L0.05 108.83 a0.185936 0.193188 0 0 1 -3.60822E-15 -0.273682 L0.47 108.13
								 a0.185936 0.193188 0 0 1 0.26279 0 L3.72 111.24 a0.371873 0.386375 0 0 1 -0.00123958 0.546721 L3.72
								 111.79 Z" class="st9"/>
				</g>
			</g>
		</g>
		<g id="group1075-140" transform="translate(70.1715,-2.24998)">
			<title>Sheet.1075</title>
			<g id="group1077-141" transform="translate(5.5801,1.42109E-14)">
				<title>Sheet.1077</title>
				<g id="shape1078-142">
					<title>white box to block out.1048</title>
					<rect x="0" y="101.356" width="15.5829" height="10.8626" class="st5"/>
				</g>
				<g id="group1079-144" transform="translate(2.0667,-1.95926)">
					<title>Virtual Networks.1028</title>
					<g id="shape1080-145" transform="translate(7.17992,-2.73086)">
						<title>Sheet.1080</title>
						<ellipse cx="0.718954" cy="111.472" rx="0.718954" ry="0.746992" class="st6"/>
					</g>
					<g id="shape1081-148" transform="translate(4.8867,-2.72442)">
						<title>Sheet.1081</title>
						<ellipse cx="0.718954" cy="111.472" rx="0.718954" ry="0.746992" class="st7"/>
					</g>
					<g id="shape1082-151" transform="translate(2.59349,-2.72442)">
						<title>Sheet.1082</title>
						<ellipse cx="0.718954" cy="111.472" rx="0.718954" ry="0.746992" class="st7"/>
					</g>
					<g id="shape1083-154" transform="translate(0.00526818,-1.42109E-14)">
						<title>Sheet.1083</title>
						<path d="M3.83 111.73 L3.42 112.16 a0.185936 0.193188 0 0 1 -0.26279 0 L0.11 109.01 a0.371873 0.386375 0
									 0 1 -0.000619788 -0.546077 L0.52 108.03 L3.83 111.46 a0.185936 0.193188 0 0 1 -4.44089E-16 0.273682
									 L3.83 111.73 Z" class="st8"/>
					</g>
					<g id="shape1084-156" transform="translate(0,-2.79075)">
						<title>Sheet.1084</title>
						<path d="M3.36 108.13 L3.77 108.56 a0.185936 0.193188 0 0 1 -4.44089E-16 0.273039 L0.52 112.22 L0.11 111.79
									 a0.371873 0.386375 0 0 1 -0.000619788 -0.546721 L3.1 108.13 a0.185936 0.193188 0 0 1 0.26279
									 0 L3.36 108.13 Z" class="st9"/>
					</g>
					<g id="shape1085-158" transform="translate(7.27243,-0.00579563)">
						<title>Sheet.1085</title>
						<path d="M3.36 108.03 L3.77 108.46 a0.371873 0.386375 0 0 1 -8.88178E-16 0.546077 L0.73 112.16 a0.185936
									 0.193188 0 0 1 -0.26279 0 L0.05 111.73 a0.185936 0.193188 0 0 1 -1.66533E-15 -0.273039 L3.36
									 108.03 Z" class="st8"/>
					</g>
					<g id="shape1086-160" transform="translate(7.32728,-2.79461)">
						<title>Sheet.1086</title>
						<path d="M3.72 111.79 L3.31 112.22 L0.05 108.83 a0.185936 0.193188 0 0 1 -1.30451E-15 -0.273682 L0.47 108.13
									 a0.185936 0.193188 0 0 1 0.26279 -1.42109E-14 L3.72 111.24 a0.371873 0.386375 0 0 1 -0.00123958
									 0.546721 L3.72 111.79 Z" class="st9"/>
					</g>
				</g>
			</g>
		</g>
		<g id="group1087-162" transform="translate(127.647,-36.8441)">
			<title>Sheet.1087</title>
			<g id="group1089-163" transform="translate(5.5801,1.42109E-14)">
				<title>Sheet.1089</title>
				<g id="shape1090-164">
					<title>white box to block out.1048</title>
					<rect x="0" y="101.356" width="15.5829" height="10.8626" class="st5"/>
				</g>
				<g id="group1091-166" transform="translate(2.0667,-1.95926)">
					<title>Virtual Networks.1028</title>
					<g id="shape1092-167" transform="translate(7.17992,-2.73086)">
						<title>Sheet.1092</title>
						<ellipse cx="0.718954" cy="111.472" rx="0.718954" ry="0.746992" class="st6"/>
					</g>
					<g id="shape1093-170" transform="translate(4.8867,-2.72442)">
						<title>Sheet.1093</title>
						<ellipse cx="0.718954" cy="111.472" rx="0.718954" ry="0.746992" class="st7"/>
					</g>
					<g id="shape1094-173" transform="translate(2.59349,-2.72442)">
						<title>Sheet.1094</title>
						<ellipse cx="0.718954" cy="111.472" rx="0.718954" ry="0.746992" class="st7"/>
					</g>
					<g id="shape1095-176" transform="translate(0.00526818,-1.42109E-14)">
						<title>Sheet.1095</title>
						<path d="M3.83 111.73 L3.42 112.16 a0.185936 0.193188 0 0 1 -0.26279 0 L0.11 109.01 a0.371873 0.386375 0
									 0 1 -0.000619788 -0.546077 L0.52 108.03 L3.83 111.46 a0.185936 0.193188 0 0 1 -4.44089E-16 0.273682
									 L3.83 111.73 Z" class="st8"/>
					</g>
					<g id="shape1096-178" transform="translate(0,-2.79075)">
						<title>Sheet.1096</title>
						<path d="M3.36 108.13 L3.77 108.56 a0.185936 0.193188 0 0 1 -4.44089E-16 0.273039 L0.52 112.22 L0.11 111.79
									 a0.371873 0.386375 0 0 1 -0.000619788 -0.546721 L3.1 108.13 a0.185936 0.193188 0 0 1 0.26279
									 0 L3.36 108.13 Z" class="st9"/>
					</g>
					<g id="shape1097-180" transform="translate(7.27243,-0.00579563)">
						<title>Sheet.1097</title>
						<path d="M3.36 108.03 L3.77 108.46 a0.371873 0.386375 0 0 1 -8.88178E-16 0.546077 L0.73 112.16 a0.185936
									 0.193188 0 0 1 -0.26279 0 L0.05 111.73 a0.185936 0.193188 0 0 1 -1.66533E-15 -0.273039 L3.36
									 108.03 Z" class="st8"/>
					</g>
					<g id="shape1098-182" transform="translate(7.32728,-2.79461)">
						<title>Sheet.1098</title>
						<path d="M3.72 111.79 L3.31 112.22 L0.05 108.83 a0.185936 0.193188 0 0 1 -1.30451E-15 -0.273682 L0.47 108.13
									 a0.185936 0.193188 0 0 1 0.26279 -1.42109E-14 L3.72 111.24 a0.371873 0.386375 0 0 1 -0.00123958
									 0.546721 L3.72 111.79 Z" class="st9"/>
					</g>
				</g>
			</g>
		</g>
		<g id="shape1099-184" transform="translate(127.647,-43.1388)">
			<title>Dynamic connector.2959</title>
			<path d="M0 103.61 L-30.64 103.29 A3 3 -180 0 0 -36.64 103.23 L-75.39 102.83" class="st11"/>
		</g>
		<g id="shape1100-187" transform="translate(91.8588,-30.2367)">
			<title>Dynamic connector.2960</title>
			<path d="M0 112.22 L-38.36 89.94" class="st11"/>
		</g>
		<g id="shape1101-190" transform="translate(127.647,-51.75)">
			<title>Dynamic connector.2961</title>
			<path d="M0 112.22 L-35.79 133.73" class="st11"/>
		</g>
	</g>
</svg>
