<?xml version="1.0" encoding="UTF-8" standalone="no"?>
<!DOCTYPE svg PUBLIC "-//W3C//DTD SVG 1.1//EN" "http://www.w3.org/Graphics/SVG/1.1/DTD/svg11.dtd">
<!-- Generated by Microsoft Visio, SVG Export spoke-to-spoke-through-peerings-2-hubs.svg 10_spoke-to-spoke-through-peerings-2-hubs -->
<svg xmlns="http://www.w3.org/2000/svg" xmlns:xlink="http://www.w3.org/1999/xlink" xmlns:ev="http://www.w3.org/2001/xml-events"
		width="6.17188in" height="2.30469in" viewBox="0 0 444.375 165.938" xml:space="preserve" color-interpolation-filters="sRGB"
		class="st17">
	<style type="text/css">
	<![CDATA[
		.st1 {fill:#ffffff;stroke:none;stroke-linecap:round;stroke-linejoin:round;stroke-width:0.75}
		.st2 {fill:#ffffff;stroke:none;stroke-linecap:round;stroke-linejoin:round;stroke-width:0.24}
		.st3 {fill:url(#grad0-10);stroke:none;stroke-linecap:butt;stroke-width:0.75}
		.st4 {fill:url(#grad0-14);stroke:none;stroke-linecap:butt;stroke-width:0.75}
		.st5 {fill:#50e6ff;stroke:none;stroke-linecap:butt;stroke-width:0.75}
		.st6 {fill:#1490df;stroke:none;stroke-linecap:butt;stroke-width:0.75}
		.st7 {fill:none;stroke:#0078d7;stroke-dasharray:0.01,2.25;stroke-width:0.75}
		.st8 {fill:#ffffff;stroke:none;stroke-linecap:butt}
		.st9 {fill:#000000;font-family:Segoe UI;font-size:0.75em}
		.st10 {fill:#ffffff;stroke:none;stroke-linecap:butt;stroke-width:7.2}
		.st11 {stroke:#000000;stroke-linecap:round;stroke-linejoin:round;stroke-width:0.75}
		.st12 {stroke:#00b050;stroke-linecap:round;stroke-linejoin:round;stroke-width:0.75}
		.st13 {fill:#59b4d9;stroke:none;stroke-linecap:butt;stroke-width:1}
		.st14 {fill:#a0a1a2;stroke:none;stroke-linecap:butt;stroke-width:1}
		.st15 {fill:#dd5900;stroke:none;stroke-linecap:butt;stroke-width:1}
		.st16 {fill:#ba141a;stroke:none;stroke-linecap:butt;stroke-width:1}
		.st17 {fill:none;fill-rule:evenodd;font-size:12px;overflow:visible;stroke-linecap:square;stroke-miterlimit:3}
	]]>
	</style>

	<defs id="Patterns_And_Gradients">
		<linearGradient id="grad0-10" x1="0" y1="0" x2="1" y2="0" gradientTransform="rotate(44.92 0.5 0.5)">
			<stop offset="0" stop-color="#86d633" stop-opacity="1"/>
			<stop offset="1" stop-color="#5e9624" stop-opacity="1"/>
		</linearGradient>
		<linearGradient id="grad0-14" x1="0" y1="0" x2="1" y2="0" gradientTransform="rotate(45.175215904905 0.5 0.5)">
			<stop offset="0" stop-color="#86d633" stop-opacity="1"/>
			<stop offset="1" stop-color="#5e9624" stop-opacity="1"/>
		</linearGradient>
	</defs>
	<g>
		<title>VBackground-10</title>
		<g id="shape1000-1">
			<title>Solid.1000</title>
			<rect x="0" y="0" width="444.375" height="165.938" class="st1"/>
		</g>
	</g>
	<g>
		<title>10-hybrid-spoke-to-spoke-through-peerings-2-hubs</title>
		<g id="group1000-3" transform="translate(107.438,-107.404)">
			<title>Sheet.1000</title>
			<g id="shape1001-4">
				<title>white box to block out.1266</title>
				<rect x="0" y="152.256" width="19.6269" height="13.6816" class="st2"/>
			</g>
			<g id="group1002-6" transform="translate(2.60304,-2.46772)">
				<title>Virtual Networks.1252</title>
				<g id="shape1003-7" transform="translate(9.04321,-3.43956)">
					<title>Sheet.1003</title>
					<ellipse cx="0.905533" cy="164.997" rx="0.905533" ry="0.940848" class="st3"/>
				</g>
				<g id="shape1004-11" transform="translate(6.15487,-3.43145)">
					<title>Sheet.1004</title>
					<ellipse cx="0.905533" cy="164.997" rx="0.905533" ry="0.940848" class="st4"/>
				</g>
				<g id="shape1005-15" transform="translate(3.26653,-3.43145)">
					<title>Sheet.1005</title>
					<ellipse cx="0.905533" cy="164.997" rx="0.905533" ry="0.940848" class="st4"/>
				</g>
				<g id="shape1006-18" transform="translate(0.00663535,-2.84217E-14)">
					<title>Sheet.1006</title>
					<path d="M4.82 165.33 L4.3 165.87 a0.23419 0.243323 0 0 1 -0.330988 0 L0.14 161.89 a0.468379 0.486645 0 0 1 -0.000780632
								 -0.687792 L0.65 160.66 L4.82 164.98 a0.23419 0.243323 0 0 1 3.55271E-15 0.344707 L4.82 165.33 Z"
							class="st5"/>
				</g>
				<g id="shape1007-20" transform="translate(0,-3.51499)">
					<title>Sheet.1007</title>
					<path d="M4.23 160.79 L4.75 161.33 a0.23419 0.243323 0 0 1 8.88178E-16 0.343896 L0.66 165.94 L0.14 165.4 a0.468379
								 0.486645 0 0 1 -0.000780632 -0.688603 L3.9 160.79 a0.23419 0.243323 0 0 1 0.330988 0 L4.23 160.79
								 Z" class="st6"/>
				</g>
				<g id="shape1008-22" transform="translate(9.15973,-0.00729968)">
					<title>Sheet.1008</title>
					<path d="M4.24 160.66 L4.75 161.2 a0.468379 0.486645 0 0 1 0 0.687792 L0.92 165.87 a0.23419 0.243323 0 0 1 -0.330988
								 0 L0.07 165.33 a0.23419 0.243323 0 0 1 -2.30371E-15 -0.343896 L4.24 160.66 Z" class="st5"/>
				</g>
				<g id="shape1009-24" transform="translate(9.22882,-3.51985)">
					<title>Sheet.1009</title>
					<path d="M4.68 165.4 L4.16 165.94 L0.07 161.67 a0.23419 0.243323 0 0 1 -6.38378E-16 -0.344707 L0.6 160.78 a0.23419
								 0.243323 0 0 1 0.330988 0 L4.69 164.7 a0.468379 0.486645 0 0 1 -0.00156126 0.688603 L4.68 165.4
								 Z" class="st6"/>
				</g>
			</g>
		</g>
		<g id="group1010-26" transform="translate(9.61537,-55.6105)">
			<title>Sheet.1010</title>
			<g id="shape1011-27" transform="translate(0,-6.3668)">
				<title>Virtual Network Box.1268</title>
				<desc>Spoke</desc>
				<path d="M0 165.94 L51.64 165.94 L51.64 138.63 L0 138.63 L0 165.94 Z" class="st7"/>
				<rect x="13.5593" y="146.885" width="24.5259" height="10.7998" class="st8"/>
				<text x="13.56" y="154.98" class="st9">Spoke</text>			</g>
			<g id="group1012-31" transform="translate(7.02822,0)">
				<title>Sheet.1012</title>
				<g id="shape1013-32">
					<title>white box to block out.1270</title>
					<rect x="0" y="152.256" width="19.6269" height="13.6816" class="st2"/>
				</g>
				<g id="group1014-34" transform="translate(2.60304,-2.46772)">
					<title>Virtual Networks.1271</title>
					<g id="shape1015-35" transform="translate(9.04321,-3.43956)">
						<title>Sheet.1015</title>
						<ellipse cx="0.905533" cy="164.997" rx="0.905533" ry="0.940848" class="st3"/>
					</g>
					<g id="shape1016-38" transform="translate(6.15487,-3.43145)">
						<title>Sheet.1016</title>
						<ellipse cx="0.905533" cy="164.997" rx="0.905533" ry="0.940848" class="st4"/>
					</g>
					<g id="shape1017-41" transform="translate(3.26653,-3.43145)">
						<title>Sheet.1017</title>
						<ellipse cx="0.905533" cy="164.997" rx="0.905533" ry="0.940848" class="st4"/>
					</g>
					<g id="shape1018-44" transform="translate(0.00663535,-2.84217E-14)">
						<title>Sheet.1018</title>
						<path d="M4.82 165.33 L4.3 165.87 a0.23419 0.243323 0 0 1 -0.330988 0 L0.14 161.89 a0.468379 0.486645 0 0
									 1 -0.000780632 -0.687792 L0.65 160.66 L4.82 164.98 a0.23419 0.243323 0 0 1 8.88178E-16 0.344707
									 L4.82 165.33 Z" class="st5"/>
					</g>
					<g id="shape1019-46" transform="translate(0,-3.51499)">
						<title>Sheet.1019</title>
						<path d="M4.23 160.79 L4.75 161.33 a0.23419 0.243323 0 0 1 5.32907E-15 0.343896 L0.66 165.94 L0.14 165.4
									 a0.468379 0.486645 0 0 1 -0.000780632 -0.688603 L3.9 160.79 a0.23419 0.243323 0 0 1 0.330988
									 2.84217E-14 L4.23 160.79 Z" class="st6"/>
					</g>
					<g id="shape1020-48" transform="translate(9.15973,-0.00729968)">
						<title>Sheet.1020</title>
						<path d="M4.24 160.66 L4.75 161.2 a0.468379 0.486645 0 0 1 -4.44089E-15 0.687792 L0.92 165.87 a0.23419 0.243323
									 0 0 1 -0.330988 0 L0.07 165.33 a0.23419 0.243323 0 0 1 -2.35922E-15 -0.343896 L4.24 160.66 Z"
								class="st5"/>
					</g>
					<g id="shape1021-50" transform="translate(9.22882,-3.51985)">
						<title>Sheet.1021</title>
						<path d="M4.68 165.4 L4.16 165.94 L0.07 161.67 a0.23419 0.243323 0 0 1 -3.58047E-15 -0.344707 L0.6 160.78
									 a0.23419 0.243323 0 0 1 0.330988 0 L4.69 164.7 a0.468379 0.486645 0 0 1 -0.00156126 0.688603
									 L4.68 165.4 Z" class="st6"/>
					</g>
				</g>
			</g>
		</g>
		<g id="group1022-52" transform="translate(82.9169,-18.4383)">
			<title>Sheet.1022</title>
			<g id="shape1023-53" transform="translate(0,-6.3668)">
				<title>Virtual Network Box.1282</title>
				<desc>Spoke</desc>
				<path d="M0 165.94 L51.64 165.94 L51.64 138.63 L0 138.63 L0 165.94 Z" class="st7"/>
				<rect x="13.5593" y="146.885" width="24.5259" height="10.7998" class="st10"/>
				<text x="13.56" y="154.98" class="st9">Spoke</text>			</g>
			<g id="group1024-57" transform="translate(7.02822,0)">
				<title>Sheet.1024</title>
				<g id="shape1025-58">
					<title>white box to block out.1284</title>
					<rect x="0" y="152.256" width="19.6269" height="13.6816" class="st2"/>
				</g>
				<g id="group1026-60" transform="translate(2.60304,-2.46772)">
					<title>Virtual Networks.1285</title>
					<g id="shape1027-61" transform="translate(9.04321,-3.43956)">
						<title>Sheet.1027</title>
						<ellipse cx="0.905533" cy="164.997" rx="0.905533" ry="0.940848" class="st3"/>
					</g>
					<g id="shape1028-64" transform="translate(6.15487,-3.43145)">
						<title>Sheet.1028</title>
						<ellipse cx="0.905533" cy="164.997" rx="0.905533" ry="0.940848" class="st4"/>
					</g>
					<g id="shape1029-67" transform="translate(3.26653,-3.43145)">
						<title>Sheet.1029</title>
						<ellipse cx="0.905533" cy="164.997" rx="0.905533" ry="0.940848" class="st4"/>
					</g>
					<g id="shape1030-70" transform="translate(0.00663535,-2.84217E-14)">
						<title>Sheet.1030</title>
						<path d="M4.82 165.33 L4.3 165.87 a0.23419 0.243323 0 0 1 -0.330988 0 L0.14 161.89 a0.468379 0.486645 0 0
									 1 -0.000780632 -0.687792 L0.65 160.66 L4.82 164.98 a0.23419 0.243323 0 0 1 8.88178E-16 0.344707
									 L4.82 165.33 Z" class="st5"/>
					</g>
					<g id="shape1031-72" transform="translate(0,-3.51499)">
						<title>Sheet.1031</title>
						<path d="M4.23 160.79 L4.75 161.33 a0.23419 0.243323 0 0 1 5.32907E-15 0.343896 L0.66 165.94 L0.14 165.4
									 a0.468379 0.486645 0 0 1 -0.000780632 -0.688603 L3.9 160.79 a0.23419 0.243323 0 0 1 0.330988
									 2.84217E-14 L4.23 160.79 Z" class="st6"/>
					</g>
					<g id="shape1032-74" transform="translate(9.15973,-0.00729968)">
						<title>Sheet.1032</title>
						<path d="M4.24 160.66 L4.75 161.2 a0.468379 0.486645 0 0 1 -4.44089E-15 0.687792 L0.92 165.87 a0.23419 0.243323
									 0 0 1 -0.330988 0 L0.07 165.33 a0.23419 0.243323 0 0 1 -2.35922E-15 -0.343896 L4.24 160.66 Z"
								class="st5"/>
					</g>
					<g id="shape1033-76" transform="translate(9.22882,-3.51985)">
						<title>Sheet.1033</title>
						<path d="M4.68 165.4 L4.16 165.94 L0.07 161.67 a0.23419 0.243323 0 0 1 -3.58047E-15 -0.344707 L0.6 160.78
									 a0.23419 0.243323 0 0 1 0.330988 0 L4.69 164.7 a0.468379 0.486645 0 0 1 -0.00156126 0.688603
									 L4.68 165.4 Z" class="st6"/>
					</g>
				</g>
			</g>
		</g>
		<g id="group1034-78" transform="translate(154.846,-55.6105)">
			<title>Sheet.1034</title>
			<g id="shape1035-79" transform="translate(0,-6.3668)">
				<title>Virtual Network Box.1294</title>
				<desc>Spoke</desc>
				<path d="M0 165.94 L51.64 165.94 L51.64 138.63 L0 138.63 L0 165.94 Z" class="st7"/>
				<rect x="13.5593" y="146.885" width="24.5259" height="10.7998" class="st10"/>
				<text x="13.56" y="154.98" class="st9">Spoke</text>			</g>
			<g id="group1036-83" transform="translate(7.02822,0)">
				<title>Sheet.1036</title>
				<g id="shape1037-84">
					<title>white box to block out.1296</title>
					<rect x="0" y="152.256" width="19.6269" height="13.6816" class="st2"/>
				</g>
				<g id="group1038-86" transform="translate(2.60304,-2.46772)">
					<title>Virtual Networks.1297</title>
					<g id="shape1039-87" transform="translate(9.04321,-3.43956)">
						<title>Sheet.1039</title>
						<ellipse cx="0.905533" cy="164.997" rx="0.905533" ry="0.940848" class="st3"/>
					</g>
					<g id="shape1040-90" transform="translate(6.15487,-3.43145)">
						<title>Sheet.1040</title>
						<ellipse cx="0.905533" cy="164.997" rx="0.905533" ry="0.940848" class="st4"/>
					</g>
					<g id="shape1041-93" transform="translate(3.26653,-3.43145)">
						<title>Sheet.1041</title>
						<ellipse cx="0.905533" cy="164.997" rx="0.905533" ry="0.940848" class="st4"/>
					</g>
					<g id="shape1042-96" transform="translate(0.00663535,-2.84217E-14)">
						<title>Sheet.1042</title>
						<path d="M4.82 165.33 L4.3 165.87 a0.23419 0.243323 0 0 1 -0.330988 0 L0.14 161.89 a0.468379 0.486645 0 0
									 1 -0.000780632 -0.687792 L0.65 160.66 L4.82 164.98 a0.23419 0.243323 0 0 1 8.88178E-16 0.344707
									 L4.82 165.33 Z" class="st5"/>
					</g>
					<g id="shape1043-98" transform="translate(0,-3.51499)">
						<title>Sheet.1043</title>
						<path d="M4.23 160.79 L4.75 161.33 a0.23419 0.243323 0 0 1 5.32907E-15 0.343896 L0.66 165.94 L0.14 165.4
									 a0.468379 0.486645 0 0 1 -0.000780632 -0.688603 L3.9 160.79 a0.23419 0.243323 0 0 1 0.330988
									 2.84217E-14 L4.23 160.79 Z" class="st6"/>
					</g>
					<g id="shape1044-100" transform="translate(9.15973,-0.00729968)">
						<title>Sheet.1044</title>
						<path d="M4.24 160.66 L4.75 161.2 a0.468379 0.486645 0 0 1 -4.44089E-15 0.687792 L0.92 165.87 a0.23419 0.243323
									 0 0 1 -0.330988 0 L0.07 165.33 a0.23419 0.243323 0 0 1 -2.35922E-15 -0.343896 L4.24 160.66 Z"
								class="st5"/>
					</g>
					<g id="shape1045-102" transform="translate(9.22882,-3.51985)">
						<title>Sheet.1045</title>
						<path d="M4.68 165.4 L4.16 165.94 L0.07 161.67 a0.23419 0.243323 0 0 1 -3.58047E-15 -0.344707 L0.6 160.78
									 a0.23419 0.243323 0 0 1 0.330988 0 L4.69 164.7 a0.468379 0.486645 0 0 1 -0.00156126 0.688603
									 L4.68 165.4 Z" class="st6"/>
					</g>
				</g>
			</g>
		</g>
		<g id="shape1046-104" transform="translate(107.438,-111.412)">
			<title>Dynamic connector.3020</title>
			<path d="M0 165.94 L-76.16 187.92" class="st11"/>
		</g>
		<g id="shape1047-107" transform="translate(122.838,-107.404)">
			<title>Dynamic connector.3021</title>
			<path d="M-5.59 165.94 L-12.41 221.23" class="st11"/>
		</g>
		<g id="shape1048-110" transform="translate(127.064,-110.713)">
			<title>Dynamic connector.3022</title>
			<path d="M0 165.94 L59.14 187.22" class="st11"/>
		</g>
		<g id="group1085-113" transform="translate(337.372,-107.404)">
			<title>Sheet.1085</title>
			<g id="shape1086-114">
				<title>white box to block out.1266</title>
				<rect x="0" y="152.256" width="19.6269" height="13.6816" class="st2"/>
			</g>
			<g id="group1087-116" transform="translate(2.60304,-2.46772)">
				<title>Virtual Networks.1252</title>
				<g id="shape1088-117" transform="translate(9.04321,-3.43956)">
					<title>Sheet.1088</title>
					<ellipse cx="0.905533" cy="164.997" rx="0.905533" ry="0.940848" class="st3"/>
				</g>
				<g id="shape1089-120" transform="translate(6.15487,-3.43145)">
					<title>Sheet.1089</title>
					<ellipse cx="0.905533" cy="164.997" rx="0.905533" ry="0.940848" class="st4"/>
				</g>
				<g id="shape1090-123" transform="translate(3.26653,-3.43145)">
					<title>Sheet.1090</title>
					<ellipse cx="0.905533" cy="164.997" rx="0.905533" ry="0.940848" class="st4"/>
				</g>
				<g id="shape1091-126" transform="translate(0.00663535,-2.84217E-14)">
					<title>Sheet.1091</title>
					<path d="M4.82 165.33 L4.3 165.87 a0.23419 0.243323 0 0 1 -0.330988 0 L0.14 161.89 a0.468379 0.486645 0 0 1 -0.000780632
								 -0.687792 L0.65 160.66 L4.82 164.98 a0.23419 0.243323 0 0 1 3.55271E-15 0.344707 L4.82 165.33 Z"
							class="st5"/>
				</g>
				<g id="shape1092-128" transform="translate(0,-3.51499)">
					<title>Sheet.1092</title>
					<path d="M4.23 160.79 L4.75 161.33 a0.23419 0.243323 0 0 1 8.88178E-16 0.343896 L0.66 165.94 L0.14 165.4 a0.468379
								 0.486645 0 0 1 -0.000780632 -0.688603 L3.9 160.79 a0.23419 0.243323 0 0 1 0.330988 0 L4.23 160.79
								 Z" class="st6"/>
				</g>
				<g id="shape1093-130" transform="translate(9.15973,-0.00729968)">
					<title>Sheet.1093</title>
					<path d="M4.24 160.66 L4.75 161.2 a0.468379 0.486645 0 0 1 0 0.687792 L0.92 165.87 a0.23419 0.243323 0 0 1 -0.330988
								 0 L0.07 165.33 a0.23419 0.243323 0 0 1 -2.30371E-15 -0.343896 L4.24 160.66 Z" class="st5"/>
				</g>
				<g id="shape1094-132" transform="translate(9.22882,-3.51985)">
					<title>Sheet.1094</title>
					<path d="M4.68 165.4 L4.16 165.94 L0.07 161.67 a0.23419 0.243323 0 0 1 -6.38378E-16 -0.344707 L0.6 160.78 a0.23419
								 0.243323 0 0 1 0.330988 0 L4.69 164.7 a0.468379 0.486645 0 0 1 -0.00156126 0.688603 L4.68 165.4
								 Z" class="st6"/>
				</g>
			</g>
		</g>
		<g id="group1095-134" transform="translate(239.55,-55.6105)">
			<title>Sheet.1095</title>
			<g id="shape1096-135" transform="translate(0,-6.3668)">
				<title>Virtual Network Box.1268</title>
				<desc>Spoke</desc>
				<path d="M0 165.94 L51.64 165.94 L51.64 138.63 L0 138.63 L0 165.94 Z" class="st7"/>
				<rect x="13.5593" y="146.885" width="24.5259" height="10.7998" class="st10"/>
				<text x="13.56" y="154.98" class="st9">Spoke</text>			</g>
			<g id="group1097-139" transform="translate(7.02822,0)">
				<title>Sheet.1097</title>
				<g id="shape1098-140">
					<title>white box to block out.1270</title>
					<rect x="0" y="152.256" width="19.6269" height="13.6816" class="st2"/>
				</g>
				<g id="group1099-142" transform="translate(2.60304,-2.46772)">
					<title>Virtual Networks.1271</title>
					<g id="shape1100-143" transform="translate(9.04321,-3.43956)">
						<title>Sheet.1100</title>
						<ellipse cx="0.905533" cy="164.997" rx="0.905533" ry="0.940848" class="st3"/>
					</g>
					<g id="shape1101-146" transform="translate(6.15487,-3.43145)">
						<title>Sheet.1101</title>
						<ellipse cx="0.905533" cy="164.997" rx="0.905533" ry="0.940848" class="st4"/>
					</g>
					<g id="shape1102-149" transform="translate(3.26653,-3.43145)">
						<title>Sheet.1102</title>
						<ellipse cx="0.905533" cy="164.997" rx="0.905533" ry="0.940848" class="st4"/>
					</g>
					<g id="shape1103-152" transform="translate(0.00663535,-2.84217E-14)">
						<title>Sheet.1103</title>
						<path d="M4.82 165.33 L4.3 165.87 a0.23419 0.243323 0 0 1 -0.330988 0 L0.14 161.89 a0.468379 0.486645 0 0
									 1 -0.000780632 -0.687792 L0.65 160.66 L4.82 164.98 a0.23419 0.243323 0 0 1 8.88178E-16 0.344707
									 L4.82 165.33 Z" class="st5"/>
					</g>
					<g id="shape1104-154" transform="translate(0,-3.51499)">
						<title>Sheet.1104</title>
						<path d="M4.23 160.79 L4.75 161.33 a0.23419 0.243323 0 0 1 5.32907E-15 0.343896 L0.66 165.94 L0.14 165.4
									 a0.468379 0.486645 0 0 1 -0.000780632 -0.688603 L3.9 160.79 a0.23419 0.243323 0 0 1 0.330988
									 2.84217E-14 L4.23 160.79 Z" class="st6"/>
					</g>
					<g id="shape1105-156" transform="translate(9.15973,-0.00729968)">
						<title>Sheet.1105</title>
						<path d="M4.24 160.66 L4.75 161.2 a0.468379 0.486645 0 0 1 -4.44089E-15 0.687792 L0.92 165.87 a0.23419 0.243323
									 0 0 1 -0.330988 0 L0.07 165.33 a0.23419 0.243323 0 0 1 -2.35922E-15 -0.343896 L4.24 160.66 Z"
								class="st5"/>
					</g>
					<g id="shape1106-158" transform="translate(9.22882,-3.51985)">
						<title>Sheet.1106</title>
						<path d="M4.68 165.4 L4.16 165.94 L0.07 161.67 a0.23419 0.243323 0 0 1 -3.58047E-15 -0.344707 L0.6 160.78
									 a0.23419 0.243323 0 0 1 0.330988 0 L4.69 164.7 a0.468379 0.486645 0 0 1 -0.00156126 0.688603
									 L4.68 165.4 Z" class="st6"/>
					</g>
				</g>
			</g>
		</g>
		<g id="group1107-160" transform="translate(312.852,-18.4383)">
			<title>Sheet.1107</title>
			<g id="shape1108-161" transform="translate(0,-6.3668)">
				<title>Virtual Network Box.1282</title>
				<desc>Spoke</desc>
				<path d="M0 165.94 L51.64 165.94 L51.64 138.63 L0 138.63 L0 165.94 Z" class="st7"/>
				<rect x="13.5593" y="146.885" width="24.5259" height="10.7998" class="st10"/>
				<text x="13.56" y="154.98" class="st9">Spoke</text>			</g>
			<g id="group1109-165" transform="translate(7.02822,0)">
				<title>Sheet.1109</title>
				<g id="shape1110-166">
					<title>white box to block out.1284</title>
					<rect x="0" y="152.256" width="19.6269" height="13.6816" class="st2"/>
				</g>
				<g id="group1111-168" transform="translate(2.60304,-2.46772)">
					<title>Virtual Networks.1285</title>
					<g id="shape1112-169" transform="translate(9.04321,-3.43956)">
						<title>Sheet.1112</title>
						<ellipse cx="0.905533" cy="164.997" rx="0.905533" ry="0.940848" class="st3"/>
					</g>
					<g id="shape1113-172" transform="translate(6.15487,-3.43145)">
						<title>Sheet.1113</title>
						<ellipse cx="0.905533" cy="164.997" rx="0.905533" ry="0.940848" class="st4"/>
					</g>
					<g id="shape1114-175" transform="translate(3.26653,-3.43145)">
						<title>Sheet.1114</title>
						<ellipse cx="0.905533" cy="164.997" rx="0.905533" ry="0.940848" class="st4"/>
					</g>
					<g id="shape1115-178" transform="translate(0.00663535,-2.84217E-14)">
						<title>Sheet.1115</title>
						<path d="M4.82 165.33 L4.3 165.87 a0.23419 0.243323 0 0 1 -0.330988 0 L0.14 161.89 a0.468379 0.486645 0 0
									 1 -0.000780632 -0.687792 L0.65 160.66 L4.82 164.98 a0.23419 0.243323 0 0 1 8.88178E-16 0.344707
									 L4.82 165.33 Z" class="st5"/>
					</g>
					<g id="shape1116-180" transform="translate(0,-3.51499)">
						<title>Sheet.1116</title>
						<path d="M4.23 160.79 L4.75 161.33 a0.23419 0.243323 0 0 1 5.32907E-15 0.343896 L0.66 165.94 L0.14 165.4
									 a0.468379 0.486645 0 0 1 -0.000780632 -0.688603 L3.9 160.79 a0.23419 0.243323 0 0 1 0.330988
									 2.84217E-14 L4.23 160.79 Z" class="st6"/>
					</g>
					<g id="shape1117-182" transform="translate(9.15973,-0.00729968)">
						<title>Sheet.1117</title>
						<path d="M4.24 160.66 L4.75 161.2 a0.468379 0.486645 0 0 1 -4.44089E-15 0.687792 L0.92 165.87 a0.23419 0.243323
									 0 0 1 -0.330988 0 L0.07 165.33 a0.23419 0.243323 0 0 1 -2.35922E-15 -0.343896 L4.24 160.66 Z"
								class="st5"/>
					</g>
					<g id="shape1118-184" transform="translate(9.22882,-3.51985)">
						<title>Sheet.1118</title>
						<path d="M4.68 165.4 L4.16 165.94 L0.07 161.67 a0.23419 0.243323 0 0 1 -3.58047E-15 -0.344707 L0.6 160.78
									 a0.23419 0.243323 0 0 1 0.330988 0 L4.69 164.7 a0.468379 0.486645 0 0 1 -0.00156126 0.688603
									 L4.68 165.4 Z" class="st6"/>
					</g>
				</g>
			</g>
		</g>
		<g id="group1119-186" transform="translate(383.731,-55.6105)">
			<title>Sheet.1119</title>
			<g id="shape1120-187" transform="translate(0,-6.3668)">
				<title>Virtual Network Box.1294</title>
				<desc>Spoke</desc>
				<path d="M0 165.94 L51.64 165.94 L51.64 138.63 L0 138.63 L0 165.94 Z" class="st7"/>
				<rect x="13.5593" y="146.885" width="24.5259" height="10.7998" class="st10"/>
				<text x="13.56" y="154.98" class="st9">Spoke</text>			</g>
			<g id="group1121-191" transform="translate(7.02822,0)">
				<title>Sheet.1121</title>
				<g id="shape1122-192">
					<title>white box to block out.1296</title>
					<rect x="0" y="152.256" width="19.6269" height="13.6816" class="st2"/>
				</g>
				<g id="group1123-194" transform="translate(2.60304,-2.46772)">
					<title>Virtual Networks.1297</title>
					<g id="shape1124-195" transform="translate(9.04321,-3.43956)">
						<title>Sheet.1124</title>
						<ellipse cx="0.905533" cy="164.997" rx="0.905533" ry="0.940848" class="st3"/>
					</g>
					<g id="shape1125-198" transform="translate(6.15487,-3.43145)">
						<title>Sheet.1125</title>
						<ellipse cx="0.905533" cy="164.997" rx="0.905533" ry="0.940848" class="st4"/>
					</g>
					<g id="shape1126-201" transform="translate(3.26653,-3.43145)">
						<title>Sheet.1126</title>
						<ellipse cx="0.905533" cy="164.997" rx="0.905533" ry="0.940848" class="st4"/>
					</g>
					<g id="shape1127-204" transform="translate(0.00663535,-2.84217E-14)">
						<title>Sheet.1127</title>
						<path d="M4.82 165.33 L4.3 165.87 a0.23419 0.243323 0 0 1 -0.330988 0 L0.14 161.89 a0.468379 0.486645 0 0
									 1 -0.000780632 -0.687792 L0.65 160.66 L4.82 164.98 a0.23419 0.243323 0 0 1 8.88178E-16 0.344707
									 L4.82 165.33 Z" class="st5"/>
					</g>
					<g id="shape1128-206" transform="translate(0,-3.51499)">
						<title>Sheet.1128</title>
						<path d="M4.23 160.79 L4.75 161.33 a0.23419 0.243323 0 0 1 5.32907E-15 0.343896 L0.66 165.94 L0.14 165.4
									 a0.468379 0.486645 0 0 1 -0.000780632 -0.688603 L3.9 160.79 a0.23419 0.243323 0 0 1 0.330988
									 2.84217E-14 L4.23 160.79 Z" class="st6"/>
					</g>
					<g id="shape1129-208" transform="translate(9.15973,-0.00729968)">
						<title>Sheet.1129</title>
						<path d="M4.24 160.66 L4.75 161.2 a0.468379 0.486645 0 0 1 -4.44089E-15 0.687792 L0.92 165.87 a0.23419 0.243323
									 0 0 1 -0.330988 0 L0.07 165.33 a0.23419 0.243323 0 0 1 -2.35922E-15 -0.343896 L4.24 160.66 Z"
								class="st5"/>
					</g>
					<g id="shape1130-210" transform="translate(9.22882,-3.51985)">
						<title>Sheet.1130</title>
						<path d="M4.68 165.4 L4.16 165.94 L0.07 161.67 a0.23419 0.243323 0 0 1 -3.58047E-15 -0.344707 L0.6 160.78
									 a0.23419 0.243323 0 0 1 0.330988 0 L4.69 164.7 a0.468379 0.486645 0 0 1 -0.00156126 0.688603
									 L4.68 165.4 Z" class="st6"/>
					</g>
				</g>
			</g>
		</g>
		<g id="shape1131-212" transform="translate(337.372,-111.412)">
			<title>Dynamic connector.3140</title>
			<path d="M0 165.94 L-76.16 187.92" class="st11"/>
		</g>
		<g id="shape1132-215" transform="translate(352.773,-107.404)">
			<title>Dynamic connector.3141</title>
			<path d="M-5.59 165.94 L-12.41 221.23" class="st11"/>
		</g>
		<g id="shape1133-218" transform="translate(356.999,-110.713)">
			<title>Dynamic connector.3142</title>
			<path d="M0 165.94 L59.14 187.22" class="st11"/>
		</g>
		<g id="shape1170-221" transform="translate(158.925,-117.906)">
			<title>Dynamic connector.3203</title>
			<path d="M0 156.94 L167.63 156.94" class="st11"/>
		</g>
		<g id="shape1171-224" transform="translate(153.615,-65.9983)">
			<title>Dynamic connector.3204</title>
			<path d="M0 157.32 L-37.37 157 A3 3 -180 0 0 -43.37 156.95 L-89.76 156.55" class="st12"/>
		</g>
		<g id="shape1172-227" transform="translate(111.096,-52.3204)">
			<title>Dynamic connector.3205</title>
			<path d="M0 165.94 L-47.24 142.87" class="st12"/>
		</g>
		<g id="shape1173-230" transform="translate(153.615,-74.6113)">
			<title>Dynamic connector.3206</title>
			<path d="M0 165.94 L-42.52 188.23" class="st12"/>
		</g>
		<g id="shape1174-233" transform="translate(382.315,-65.7892)">
			<title>Dynamic connector.3207</title>
			<path d="M0 157.32 L-36.16 157.01 A3 3 -180 0 0 -42.16 156.96 L-89.76 156.55" class="st12"/>
		</g>
		<g id="shape1175-236" transform="translate(339.796,-52.1113)">
			<title>Dynamic connector.3208</title>
			<path d="M0 165.94 L-47.24 142.87" class="st12"/>
		</g>
		<g id="shape1176-239" transform="translate(382.315,-74.4022)">
			<title>Dynamic connector.3209</title>
			<path d="M0 165.94 L-42.52 188.23" class="st12"/>
		</g>
		<g id="shape1179-242" transform="translate(100.409,-113.77)">
			<title>Virtual Network Box.1038</title>
			<desc>East US hub</desc>
			<path d="M0 165.94 L58.31 165.94 L58.31 138.63 L0 138.63 L0 165.94 Z" class="st7"/>
			<rect x="5.46762" y="146.885" width="47.373" height="10.7998" class="st10"/>
			<text x="5.47" y="154.98" class="st9">East US hub</text>		</g>
		<g id="group1189-246" transform="translate(107.438,-107.404)">
			<title>Sheet.1189</title>
			<g id="shape1190-247">
				<title>white box to block out.1048</title>
				<rect x="0" y="152.256" width="19.6269" height="13.6816" class="st2"/>
			</g>
			<g id="group1191-249" transform="translate(2.60304,-2.46772)">
				<title>Virtual Networks.1028</title>
				<g id="shape1192-250" transform="translate(9.04321,-3.43956)">
					<title>Sheet.1192</title>
					<ellipse cx="0.905533" cy="164.997" rx="0.905533" ry="0.940848" class="st3"/>
				</g>
				<g id="shape1193-253" transform="translate(6.15487,-3.43145)">
					<title>Sheet.1193</title>
					<ellipse cx="0.905533" cy="164.997" rx="0.905533" ry="0.940848" class="st4"/>
				</g>
				<g id="shape1194-256" transform="translate(3.26653,-3.43145)">
					<title>Sheet.1194</title>
					<ellipse cx="0.905533" cy="164.997" rx="0.905533" ry="0.940848" class="st4"/>
				</g>
				<g id="shape1195-259" transform="translate(0.00663535,-2.84217E-14)">
					<title>Sheet.1195</title>
					<path d="M4.82 165.33 L4.3 165.87 a0.23419 0.243323 0 0 1 -0.330988 0 L0.14 161.89 a0.468379 0.486645 0 0 1 -0.000780632
								 -0.687792 L0.65 160.66 L4.82 164.98 a0.23419 0.243323 0 0 1 3.55271E-15 0.344707 L4.82 165.33 Z"
							class="st5"/>
				</g>
				<g id="shape1196-261" transform="translate(0,-3.51499)">
					<title>Sheet.1196</title>
					<path d="M4.23 160.79 L4.75 161.33 a0.23419 0.243323 0 0 1 8.88178E-16 0.343896 L0.66 165.94 L0.14 165.4 a0.468379
								 0.486645 0 0 1 -0.000780632 -0.688603 L3.9 160.79 a0.23419 0.243323 0 0 1 0.330988 0 L4.23 160.79
								 Z" class="st6"/>
				</g>
				<g id="shape1197-263" transform="translate(9.15973,-0.00729968)">
					<title>Sheet.1197</title>
					<path d="M4.24 160.66 L4.75 161.2 a0.468379 0.486645 0 0 1 0 0.687792 L0.92 165.87 a0.23419 0.243323 0 0 1 -0.330988
								 0 L0.07 165.33 a0.23419 0.243323 0 0 1 -2.30371E-15 -0.343896 L4.24 160.66 Z" class="st5"/>
				</g>
				<g id="shape1198-265" transform="translate(9.22882,-3.51985)">
					<title>Sheet.1198</title>
					<path d="M4.68 165.4 L4.16 165.94 L0.07 161.67 a0.23419 0.243323 0 0 1 -6.38378E-16 -0.344707 L0.6 160.78 a0.23419
								 0.243323 0 0 1 0.330988 0 L4.69 164.7 a0.468379 0.486645 0 0 1 -0.00156126 0.688603 L4.68 165.4
								 Z" class="st6"/>
				</g>
			</g>
		</g>
		<g id="group1199-267" transform="translate(330.344,-107.404)">
			<title>Sheet.1199</title>
			<g id="shape1200-268" transform="translate(-3.19744E-14,-6.3668)">
				<title>Virtual Network Box.1038</title>
				<desc>West US hub</desc>
				<path d="M0 165.94 L64.64 165.94 L64.64 138.63 L0 138.63 L0 165.94 Z" class="st7"/>
				<rect x="6.64288" y="146.885" width="51.3545" height="10.7998" class="st10"/>
				<text x="6.64" y="154.98" class="st9">West US hub</text>			</g>
			<g id="group1201-272" transform="translate(55.9619,-27.0092)">
				<title>Sheet.1201</title>
				<g id="shape1202-273" transform="translate(3.00471,-5.70895)">
					<title>Sheet.1202</title>
					<path d="M2.85 159.66 C3.12 157.94 4.6 156.65 6.4 156.65 C8.38 156.65 9.98 158.28 9.98 160.26 C9.98 160.5 9.95
								 160.71 9.92 160.92 C11.09 161.04 11.99 162.12 11.99 163.41 C11.99 164.8 10.94 165.94 9.68 165.94
								 L3.06 165.94 C1.38 165.94 0 164.5 0 162.75 C0.03 161.13 1.29 159.81 2.85 159.66 Z" class="st13"/>
				</g>
				<g id="shape1203-275">
					<title>Sheet.1203</title>
					<path d="M12.32 157.52 C12.32 157.19 12.05 156.92 11.72 156.92 L8.41 156.92 C8.3 156.92 8.2 156.96 8.11 157.01
								 a0.59343 0.59343 -180 0 0 -0.300471 -0.0838314 L4.51 156.92 C4.4 156.92 4.3 156.96 4.21 157.01 a0.59343
								 0.59343 -180 0 0 -0.300471 -0.0838314 L0.6 156.92 C0.27 156.92 0 157.19 0 157.52 L0 159.03 C0 159.14
								 0.03 159.24 0.08 159.33 a0.59343 0.59343 -180 0 0 -0.0838314 0.300471 L0 161.13 C0 161.24 0.03 161.34
								 0.08 161.43 a0.59343 0.59343 -180 0 0 -0.0838314 0.300471 L0 163.23 C0 163.34 0.03 163.44 0.08 163.53
								 a0.59343 0.59343 -180 0 0 -0.0838314 0.300471 L0 165.34 C0 165.67 0.27 165.94 0.6 165.94 L3.91 165.94
								 C4.02 165.94 4.12 165.91 4.21 165.85 C4.3 165.91 4.4 165.94 4.51 165.94 L7.81 165.94 C7.92 165.94
								 8.02 165.91 8.11 165.85 C8.2 165.91 8.3 165.94 8.41 165.94 L11.72 165.94 C12.05 165.94 12.32 165.67
								 12.32 165.34 L12.32 163.83 C12.32 163.72 12.29 163.62 12.24 163.53 C12.29 163.44 12.32 163.34 12.32
								 163.23 L12.32 161.73 C12.32 161.62 12.29 161.52 12.24 161.43 C12.29 161.34 12.32 161.24 12.32 161.13
								 L12.32 159.63 C12.32 159.52 12.29 159.42 12.24 159.33 C12.29 159.24 12.32 159.14 12.32 159.03 L12.32
								 157.52 Z" class="st14"/>
				</g>
				<g id="shape1204-277" transform="translate(4.50706,-6.91083)">
					<title>Sheet.1204</title>
					<rect x="0" y="164.435" width="3.30518" height="1.50235" class="st15"/>
				</g>
				<g id="shape1205-279" transform="translate(0.600942,-4.80754)">
					<title>Sheet.1205</title>
					<path d="M7.81 162.33 L11.12 162.33 L11.12 163.83 L7.81 163.83 L7.81 162.33 ZM0 162.33 L3.31 162.33 L3.31 163.83
								 L0 163.83 L0 162.33 ZM3.91 164.44 L7.21 164.44 L7.21 165.94 L3.91 165.94 L3.91 164.44 Z"
							class="st16"/>
				</g>
				<g id="shape1206-281" transform="translate(0.600942,-2.70424)">
					<title>Sheet.1206</title>
					<rect x="0" y="164.435" width="3.30518" height="1.50235" class="st15"/>
				</g>
				<g id="shape1207-283" transform="translate(0.600942,-0.600942)">
					<title>Sheet.1207</title>
					<path d="M0 160.23 L3.31 160.23 L3.31 161.73 L0 161.73 L0 160.23 ZM3.91 164.44 L7.21 164.44 L7.21 165.94 L3.91
								 165.94 L3.91 164.44 ZM7.81 162.33 L11.12 162.33 L11.12 163.83 L7.81 163.83 L7.81 162.33 ZM7.81 160.23
								 L11.12 160.23 L11.12 161.73 L7.81 161.73 L7.81 160.23 ZM3.91 162.33 L7.21 162.33 L7.21 163.83 L3.91
								 163.83 L3.91 162.33 Z" class="st16"/>
				</g>
				<g id="shape1208-285" transform="translate(8.41319,-0.600942)">
					<title>Sheet.1208</title>
					<rect x="0" y="164.435" width="3.30518" height="1.50235" class="st15"/>
				</g>
				<g id="shape1209-287" transform="translate(0.600942,-0.600942)">
					<title>Sheet.1209</title>
					<rect x="0" y="164.435" width="3.30518" height="1.50235" class="st16"/>
				</g>
			</g>
			<g id="group1210-289" transform="translate(7.02822,-1.98952E-13)">
				<title>Sheet.1210</title>
				<g id="shape1211-290">
					<title>white box to block out.1048</title>
					<rect x="0" y="152.256" width="19.6269" height="13.6816" class="st2"/>
				</g>
				<g id="group1212-292" transform="translate(2.60304,-2.46772)">
					<title>Virtual Networks.1028</title>
					<g id="shape1213-293" transform="translate(9.04321,-3.43956)">
						<title>Sheet.1213</title>
						<ellipse cx="0.905533" cy="164.997" rx="0.905533" ry="0.940848" class="st3"/>
					</g>
					<g id="shape1214-296" transform="translate(6.15487,-3.43145)">
						<title>Sheet.1214</title>
						<ellipse cx="0.905533" cy="164.997" rx="0.905533" ry="0.940848" class="st4"/>
					</g>
					<g id="shape1215-299" transform="translate(3.26653,-3.43145)">
						<title>Sheet.1215</title>
						<ellipse cx="0.905533" cy="164.997" rx="0.905533" ry="0.940848" class="st4"/>
					</g>
					<g id="shape1216-302" transform="translate(0.00663535,-2.84217E-14)">
						<title>Sheet.1216</title>
						<path d="M4.82 165.33 L4.3 165.87 a0.23419 0.243323 0 0 1 -0.330988 0 L0.14 161.89 a0.468379 0.486645 0 0
									 1 -0.000780632 -0.687792 L0.65 160.66 L4.82 164.98 a0.23419 0.243323 0 0 1 3.55271E-15 0.344707
									 L4.82 165.33 Z" class="st5"/>
					</g>
					<g id="shape1217-304" transform="translate(0,-3.51499)">
						<title>Sheet.1217</title>
						<path d="M4.23 160.79 L4.75 161.33 a0.23419 0.243323 0 0 1 8.88178E-16 0.343896 L0.66 165.94 L0.14 165.4
									 a0.468379 0.486645 0 0 1 -0.000780632 -0.688603 L3.9 160.79 a0.23419 0.243323 0 0 1 0.330988
									 0 L4.23 160.79 Z" class="st6"/>
					</g>
					<g id="shape1218-306" transform="translate(9.15973,-0.00729968)">
						<title>Sheet.1218</title>
						<path d="M4.24 160.66 L4.75 161.2 a0.468379 0.486645 0 0 1 0 0.687792 L0.92 165.87 a0.23419 0.243323 0 0
									 1 -0.330988 0 L0.07 165.33 a0.23419 0.243323 0 0 1 -2.30371E-15 -0.343896 L4.24 160.66 Z"
								class="st5"/>
					</g>
					<g id="shape1219-308" transform="translate(9.22882,-3.51985)">
						<title>Sheet.1219</title>
						<path d="M4.68 165.4 L4.16 165.94 L0.07 161.67 a0.23419 0.243323 0 0 1 -6.38378E-16 -0.344707 L0.6 160.78
									 a0.23419 0.243323 0 0 1 0.330988 0 L4.69 164.7 a0.468379 0.486645 0 0 1 -0.00156126 0.688603
									 L4.68 165.4 Z" class="st6"/>
					</g>
				</g>
			</g>
		</g>
		<g id="group1180-310" transform="translate(150.056,-134.413)">
			<title>Sheet.1180</title>
			<g id="shape1181-311" transform="translate(3.00471,-5.70895)">
				<title>Sheet.1181</title>
				<path d="M2.85 159.66 C3.12 157.94 4.6 156.65 6.4 156.65 C8.38 156.65 9.98 158.28 9.98 160.26 C9.98 160.5 9.95 160.71
							 9.92 160.92 C11.09 161.04 11.99 162.12 11.99 163.41 C11.99 164.8 10.94 165.94 9.68 165.94 L3.06 165.94
							 C1.38 165.94 0 164.5 0 162.75 C0.03 161.13 1.29 159.81 2.85 159.66 Z" class="st13"/>
			</g>
			<g id="shape1182-313">
				<title>Sheet.1182</title>
				<path d="M12.32 157.52 C12.32 157.19 12.05 156.92 11.72 156.92 L8.41 156.92 C8.3 156.92 8.2 156.96 8.11 157.01 a0.59343
							 0.59343 -180 0 0 -0.300471 -0.0838314 L4.51 156.92 C4.4 156.92 4.3 156.96 4.21 157.01 a0.59343 0.59343
							 -180 0 0 -0.300471 -0.0838314 L0.6 156.92 C0.27 156.92 0 157.19 0 157.52 L0 159.03 C0 159.14 0.03 159.24
							 0.08 159.33 a0.59343 0.59343 -180 0 0 -0.0838314 0.300471 L0 161.13 C0 161.24 0.03 161.34 0.08 161.43
							 a0.59343 0.59343 -180 0 0 -0.0838314 0.300471 L0 163.23 C0 163.34 0.03 163.44 0.08 163.53 a0.59343 0.59343
							 -180 0 0 -0.0838314 0.300471 L0 165.34 C0 165.67 0.27 165.94 0.6 165.94 L3.91 165.94 C4.02 165.94 4.12
							 165.91 4.21 165.85 C4.3 165.91 4.4 165.94 4.51 165.94 L7.81 165.94 C7.92 165.94 8.02 165.91 8.11 165.85
							 C8.2 165.91 8.3 165.94 8.41 165.94 L11.72 165.94 C12.05 165.94 12.32 165.67 12.32 165.34 L12.32 163.83
							 C12.32 163.72 12.29 163.62 12.24 163.53 C12.29 163.44 12.32 163.34 12.32 163.23 L12.32 161.73 C12.32
							 161.62 12.29 161.52 12.24 161.43 C12.29 161.34 12.32 161.24 12.32 161.13 L12.32 159.63 C12.32 159.52
							 12.29 159.42 12.24 159.33 C12.29 159.24 12.32 159.14 12.32 159.03 L12.32 157.52 Z" class="st14"/>
			</g>
			<g id="shape1183-315" transform="translate(4.50706,-6.91083)">
				<title>Sheet.1183</title>
				<rect x="0" y="164.435" width="3.30518" height="1.50235" class="st15"/>
			</g>
			<g id="shape1184-317" transform="translate(0.600942,-4.80754)">
				<title>Sheet.1184</title>
				<path d="M7.81 162.33 L11.12 162.33 L11.12 163.83 L7.81 163.83 L7.81 162.33 ZM0 162.33 L3.31 162.33 L3.31 163.83
							 L0 163.83 L0 162.33 ZM3.91 164.44 L7.21 164.44 L7.21 165.94 L3.91 165.94 L3.91 164.44 Z" class="st16"/>
			</g>
			<g id="shape1185-319" transform="translate(0.600942,-2.70424)">
				<title>Sheet.1185</title>
				<rect x="0" y="164.435" width="3.30518" height="1.50235" class="st15"/>
			</g>
			<g id="shape1186-321" transform="translate(0.600942,-0.600942)">
				<title>Sheet.1186</title>
				<path d="M0 160.23 L3.31 160.23 L3.31 161.73 L0 161.73 L0 160.23 ZM3.91 164.44 L7.21 164.44 L7.21 165.94 L3.91 165.94
							 L3.91 164.44 ZM7.81 162.33 L11.12 162.33 L11.12 163.83 L7.81 163.83 L7.81 162.33 ZM7.81 160.23 L11.12
							 160.23 L11.12 161.73 L7.81 161.73 L7.81 160.23 ZM3.91 162.33 L7.21 162.33 L7.21 163.83 L3.91 163.83
							 L3.91 162.33 Z" class="st16"/>
			</g>
			<g id="shape1187-323" transform="translate(8.41319,-0.600942)">
				<title>Sheet.1187</title>
				<rect x="0" y="164.435" width="3.30518" height="1.50235" class="st15"/>
			</g>
			<g id="shape1188-325" transform="translate(0.600942,-0.600942)">
				<title>Sheet.1188</title>
				<rect x="0" y="164.435" width="3.30518" height="1.50235" class="st16"/>
			</g>
		</g>
	</g>
</svg>
