<?xml version="1.0" encoding="utf-8"?>
<!-- Generator: Adobe Illustrator 22.0.1, SVG Export Plug-In . SVG Version: 6.00 Build 0)  -->
<svg version="1.1" id="Layer_1" xmlns="http://www.w3.org/2000/svg" xmlns:xlink="http://www.w3.org/1999/xlink" x="0px" y="0px"
	 viewBox="0 0 372.6 295.8" style="enable-background:new 0 0 372.6 295.8;" xml:space="preserve">
<style type="text/css">
	.st0{fill:#64BCDE;}
	.st1{fill:#8AC200;}
	.st2{fill:#732485;}
	.st3{fill:#FFFFFF;}
	.st4{fill:#FF9700;}
	.st5{fill:#363644;}
	.st6{font-family:segoe-ui_normal,Segoe UI,Segoe,Segoe WP,Helvetica Neue,Helvetica,sans-serif;}
	.st7{font-size:12px;}
	.st8{opacity:0.1;fill:#FFFFFF;enable-background:new    ;}
	.st9{fill:none;stroke:#363644;stroke-miterlimit:10;}
</style>
<title>MS_AAC_PuzzleArtboard 1</title>
<path class="st0" d="M276,161c0,1.8,0.7,3.4,1.9,4.7l26.4-26.4L278,113l-30.2-30.2l-56.5,56.6l56.6,56.6l26.3-26.3
	c-1.2-1.2-2.9-1.9-4.7-1.9c-3.7,0-6.6-3-6.6-6.6s3-6.6,6.6-6.6C273.1,154.4,276.1,157.3,276,161L276,161z"/>
<path class="st0" d="M289.3,104.4c0.1-3.7-2.7-6.7-6.4-6.9c-3.7-0.1-6.7,2.7-6.9,6.4c0,0.2,0,0.3,0,0.5c0,1.8-0.7,3.4-1.9,4.7
	l3.9,3.9c1.2-1.2,2.9-1.9,4.7-1.9C286.3,111.1,289.3,108.1,289.3,104.4z"/>
<path class="st1" d="M232.7,117.7c0-3.7-3-6.6-6.6-6.6c0,0,0,0,0,0c-1.8,0-3.4-0.7-4.7-1.9l26.3-26.3l-26.3-26.3
	c-1.2,1.2-1.9,2.9-1.9,4.7c0,3.7-3,6.6-6.6,6.6c-3.7,0-6.6-3-6.6-6.6c0-3.7,3-6.6,6.6-6.6c1.8,0,3.4-0.7,4.7-1.9l-26.3-26.3
	l-26.3,26.3c-1.2-1.2-1.9-2.9-1.9-4.7c0-3.7-3-6.6-6.6-6.6c-3.7,0-6.6,3-6.6,6.6c0,3.7,3,6.6,6.6,6.6c1.8,0,3.4,0.7,4.7,1.9
	l-26.3,26.3l56.6,56.6l26.3-26.3c1.2,1.2,1.9,2.9,1.9,4.7c0.1,3.7,3.2,6.5,6.9,6.4C229.8,123.9,232.6,121.2,232.7,117.7L232.7,117.7
	z"/>
<path class="st2" d="M191.2,139.3l-25.5-25.5l0,0l-0.8-0.8c1.2-1.2,2.9-1.9,4.7-1.9c3.7,0,6.6-3,6.6-6.6c0-3.7-3-6.6-6.6-6.6
	c-3.7,0-6.6,3-6.6,6.6c0,1.8-0.7,3.4-1.9,4.7l0,0l-26.3-26.3l-26.4,26.3c1.2,1.2,2.9,1.9,4.7,1.9c3.7,0,6.6,3,6.6,6.6
	c0,3.7-3,6.6-6.6,6.6c-3.7,0-6.6-3-6.6-6.6c0-1.8-0.7-3.4-1.9-4.7L78,139.3l26.3,26.3c-1.2,1.2-2.9,1.9-4.7,1.9
	c-3.7,0-6.6,3-6.6,6.6c0,3.7,3,6.6,6.6,6.6s6.6-3,6.6-6.6c0-1.8,0.7-3.4,1.9-4.7l26.3,26.3L191.2,139.3z"/>
<path class="st3" d="M207.5,80.4h-17c-0.3-0.6-0.6-1.3-1-1.9c-0.4-0.6-0.8-1.1-1.3-1.6c-0.9-1-2.1-1.7-3.3-2.2
	c-1.2-0.5-2.5-0.7-3.8-0.7c-1.3,0-2.6,0.3-3.8,0.7c-1.3,0.5-2.4,1.2-3.3,2.2c-1,0.9-1.7,2.1-2.2,3.3c-0.5,1.2-0.7,2.5-0.7,3.8
	c0,1.3,0.3,2.6,0.7,3.8c0.5,1.3,1.2,2.4,2.2,3.3c0.9,1,2.1,1.7,3.3,2.2c1.2,0.5,2.5,0.7,3.8,0.7c1.3,0,2.6-0.3,3.8-0.7
	c1.3-0.5,2.4-1.2,3.3-2.2c0.8-0.8,1.5-1.7,1.9-2.7c0.5-1,0.8-2.1,0.9-3.3l1.1-1.1l3.1,3.1l3.1-3.1l3.1,3.1l3.1-3.1l3.1,3.1l3.1-3.1
	L207.5,80.4L207.5,80.4z M175.6,82c0.3-0.1,0.6-0.2,0.8-0.1c0.3,0,0.6,0,0.8,0.1c0.3,0.1,0.5,0.3,0.7,0.5c0.2,0.2,0.4,0.5,0.5,0.7
	c0.1,0.3,0.2,0.6,0.1,0.8c0,0.3,0,0.6-0.1,0.8c-0.1,0.3-0.3,0.5-0.5,0.7c-0.2,0.2-0.5,0.4-0.7,0.5c-0.3,0.1-0.6,0.2-0.8,0.1
	c-0.3,0-0.6,0-0.8-0.1c-0.3-0.1-0.5-0.3-0.7-0.5c-0.2-0.2-0.4-0.5-0.5-0.7c-0.1-0.3-0.2-0.6-0.1-0.8c0-0.3,0-0.6,0.1-0.8
	c0.1-0.3,0.3-0.5,0.5-0.7C175.1,82.3,175.3,82.1,175.6,82z"/>
<path class="st3" d="M254.4,125.9c0,3.7-2.9,6.7-6.6,6.7c-3.7,0-6.7-2.9-6.7-6.6s2.9-6.7,6.6-6.7c0,0,0,0,0.1,0
	C251.4,119.3,254.3,122.3,254.4,125.9C254.4,125.9,254.4,125.9,254.4,125.9"/>
<polygon class="st3" points="252.6,134.7 247.7,141.5 242.9,134.7 235.9,134.7 235.9,151.3 259.6,151.3 259.6,134.7 "/>
<path class="st4" d="M232.7,230.8c0-3.7-3-6.6-6.6-6.6c0,0,0,0,0,0c-1.8,0-3.4-0.7-4.7-1.9l26.3-26.3l-56.5-56.6l-26.3,26.3
	l-30.2,30.2l30.2,30.2l-3.9-3.9c1.2-1.2,1.9-2.9,1.9-4.7c0-3.7,3-6.6,6.6-6.6s6.6,3,6.6,6.6c0,3.7-3,6.6-6.6,6.6
	c-1.8,0-3.4,0.7-4.7,1.9l26.3,26.3l26.3-26.3c1.2,1.2,1.9,2.9,1.9,4.7c0.1,3.7,3.2,6.5,6.9,6.4C229.8,237.1,232.6,234.3,232.7,230.8
	L232.7,230.8z"/>
<path class="st4" d="M156.2,154.3c-3.7,0.1-6.5,3.2-6.4,6.9c0.1,3.5,2.9,6.2,6.4,6.4c1.8,0,3.4,0.7,4.7,1.9l3.9-3.9
	c-1.2-1.2-1.9-2.9-1.9-4.7C162.8,157.3,159.9,154.3,156.2,154.3z"/>
<path class="st0" d="M226.1,167.6c3.7,0,6.6-3,6.6-6.6s-3-6.6-6.6-6.6c-3.7,0-6.6,3-6.6,6.6c0,1.8-0.7,3.4-1.9,4.7l3.9,3.9
	C222.6,168.3,224.3,167.6,226.1,167.6z"/>
<path class="st1" d="M219.4,104.4c0-3.7-3-6.6-6.6-6.6c-3.7,0-6.6,3-6.6,6.6c0,3.7,3,6.6,6.6,6.6c1.8,0,3.4,0.7,4.7,1.9l3.9-3.9
	C220.1,107.9,219.4,106.2,219.4,104.4z"/>
<path class="st0" d="M212.8,167.6c-3.7,0-6.6,3-6.6,6.6c0,3.7,3,6.6,6.6,6.6c3.7,0,6.6-3,6.6-6.6c0-1.8,0.7-3.4,1.9-4.7l-3.9-3.9
	C216.3,166.9,214.6,167.6,212.8,167.6z"/>
<path class="st3" d="M150.2,140.4c-1.2,0-2.3,0.6-3,1.6l-7.8-3.4c0.2-0.7,0.2-1.4,0-2.1l9.3-4c0.8,0.8,2,0.8,2.8,0.1
	c0.8-0.8,0.8-2,0.1-2.8c-0.8-0.8-2-0.8-2.8-0.1c-0.4,0.4-0.6,0.9-0.6,1.4c0,0,0,0.1,0,0.1l-9.3,4c-0.9-1.5-2.6-2.3-4.3-2l-2.7-8.4
	c1.4-0.9,1.9-2.7,1-4.1c-0.9-1.4-2.7-1.9-4.1-1s-1.9,2.7-1,4.1c0.5,0.9,1.5,1.4,2.6,1.4h0.2l2.7,8.4c-1.8,0.9-2.7,2.9-2.2,4.8
	l-7.4,3.1c-0.8-0.8-2.1-0.9-2.9-0.1c-0.8,0.8-0.9,2.1-0.1,2.9s2.1,0.9,2.9,0.1c0.4-0.4,0.7-1,0.7-1.5c0,0,0-0.1,0-0.1l7.4-3.1
	c0.9,1.5,2.6,2.3,4.4,2l3.9,11.6c-1.5,0.9-1.9,2.8-1,4.3c0.9,1.5,2.8,1.9,4.3,1c1.5-0.9,1.9-2.8,1-4.3c-0.6-0.9-1.6-1.5-2.7-1.5
	c-0.1,0-0.2,0-0.3,0l-4-11.6c0.7-0.3,1.2-0.9,1.6-1.5l7.8,3.4c-0.4,2,0.8,3.9,2.8,4.3c2,0.4,3.9-0.8,4.3-2.8c0.4-2-0.8-3.9-2.8-4.3
	C150.7,140.5,150.4,140.4,150.2,140.4z"/>
<text transform="matrix(1 0 0 1 1.7302 143.3413)" class="st5 st6 st7">S</text>
<text transform="matrix(1 0 0 1 8.1102 143.3413)" class="st5 st6 st7">o</text>
<text transform="matrix(1 0 0 1 14.9202 143.3413)" class="st5 st6 st7">f</text>
<text transform="matrix(1 0 0 1 18.8902 143.3413)" class="st5 st6 st7">twa</text>
<text transform="matrix(1 0 0 1 37.7402 143.3413)" class="st5 st6 st7">r</text>
<text transform="matrix(1 0 0 1 41.7502 143.3413)" class="st5 st6 st7">e</text>
<text transform="matrix(1 0 0 1 7.8902 157.7413)" class="st5 st6 st7">defined</text>
<text transform="matrix(1 0 0 1 1.983643e-04 172.1413)" class="st5 st6 st7">net</text>
<text transform="matrix(1 0 0 1 17.1302 172.1413)" class="st5 st6 st7">w</text>
<text transform="matrix(1 0 0 1 25.7702 172.1413)" class="st5 st6 st7">orks</text>
<text transform="matrix(1 0 0 1 199.1602 10.2013)" class="st5 st6 st7">Enc</text>
<text transform="matrix(1 0 0 1 217.5602 10.2013)" class="st5 st6 st7">r</text>
<text transform="matrix(1 0 0 1 222.2202 10.2013)" class="st5 st6 st7">yption</text>
<text transform="matrix(1 0 0 1 332.3802 143.3413)" class="st5 st6 st7">Identity</text>
<text transform="matrix(1 0 0 1 199.3502 276.4813)" class="st5 st6 st7">Compliance,</text>
<text transform="matrix(1 0 0 1 199.3502 290.8813)" class="st5 st6 st7">logs and </text>
<text transform="matrix(1 0 0 1 247.9802 290.8813)" class="st5 st6 st7">r</text>
<text transform="matrix(1 0 0 1 252.0002 290.8813)" class="st5 st6 st7">epo</text>
<text transform="matrix(1 0 0 1 272.3602 290.8813)" class="st5 st6 st7">r</text>
<text transform="matrix(1 0 0 1 276.8802 290.8813)" class="st5 st6 st7">ting</text>
<path class="st3" d="M202.9,179.9h-23.6c-0.6,0-1,0.4-1,1v29.9c0,0.6,0.4,1,0.9,1.1c0,0,0.1,0,0.1,0h23.6c0.6,0,1-0.4,1-1v-30
	C203.9,180.4,203.5,179.9,202.9,179.9z"/>
<path class="st8" d="M179.4,179.9c-0.6,0-1,0.4-1,1v29.9c0,0.6,0.4,1,0.9,1.1c0,0,0.1,0,0.1,0h9.8l11.5-32L179.4,179.9z"/>
<rect x="191.4" y="196.1" class="st4" width="8.5" height="1.7"/>
<path class="st4" d="M182.1,187.3l-0.3-0.3c-0.1-0.1-0.1-0.2,0-0.3l0.8-0.8c0.1-0.1,0.1-0.1,0.1-0.1s0.1,0,0.1,0.1l2.2,2.4l3.8-5
	c0.1,0,0.1,0,0.2,0c0.1,0,0.1,0,0.1,0.1l0.9,0.7c0.1,0.1,0.1,0.1,0.1,0.1s0,0.1-0.1,0.1l-5,6.4L182.1,187.3z"/>
<path class="st4" d="M182.1,196l-0.3-0.3c-0.1-0.1-0.1-0.2,0-0.3l0.8-0.8c0.1-0.1,0.1-0.1,0.1-0.1s0.1,0,0.1,0.1l2.2,2.4l3.8-5
	c0,0,0.1-0.1,0.1-0.1c0.1,0,0.1,0,0.1,0.1l0.9,0.7c0.1,0.1,0.1,0.1,0.1,0.1s0,0.1-0.1,0.1l-5,6.4L182.1,196z"/>
<rect x="191.4" y="187.2" class="st4" width="8.5" height="1.7"/>
<path class="st4" d="M182.1,205.5l-0.3-0.3c-0.1-0.1-0.1-0.2,0-0.3l0.8-0.8c0.1-0.1,0.1-0.1,0.1-0.1s0.1,0,0.1,0.1l2.2,2.4l3.8-5
	c0,0,0.1-0.1,0.1-0.1c0.1,0,0.1,0,0.1,0.1l0.9,0.7c0.1,0.1,0.1,0.1,0.1,0.1s0,0.1-0.1,0.1l-5,6.4L182.1,205.5z"/>
<rect x="191.4" y="205.4" class="st4" width="8.5" height="1.7"/>
<circle class="st5" cx="191.2" cy="46.2" r="4"/>
<circle class="st5" cx="191.2" cy="6.2" r="4"/>
<line class="st9" x1="191.2" y1="6.2" x2="191.2" y2="46.2"/>
<circle class="st5" cx="191.2" cy="272.5" r="4"/>
<circle class="st5" cx="191.2" cy="232.5" r="4"/>
<line class="st9" x1="191.2" y1="232.5" x2="191.2" y2="272.5"/>
<circle class="st5" cx="324.4" cy="139.3" r="4"/>
<circle class="st5" cx="284.4" cy="139.3" r="4"/>
<circle class="st5" cx="97.9" cy="139.3" r="4"/>
<circle class="st5" cx="57.9" cy="139.3" r="4"/>
<line class="st9" x1="284.4" y1="139.3" x2="324.4" y2="139.3"/>
<line class="st9" x1="58" y1="139.3" x2="98" y2="139.3"/>
</svg>
