<svg xmlns="http://www.w3.org/2000/svg" xmlns:xlink="http://www.w3.org/1999/xlink" xmlns:v="http://schemas.microsoft.com/visio/2003/SVGExtensions/" width="1008.326" height="530.933" viewBox="0 0 756.246 398.199" color-interpolation-filters="sRGB" fill="none" fill-rule="evenodd" font-size="12" overflow="visible" stroke-linecap="square" stroke-miterlimit="3"><v:documentProperties v:langID="1033" v:viewMarkup="false"/><style>.st2{fill:#00188f;stroke:none;stroke-linecap:butt;stroke-width:.75}.st3{fill:#002060;font-family:Segoe UI;font-size:.75em}.st4{font-size:1em}.st5,.st6{stroke-linecap:round;stroke-linejoin:round}.st5{fill:none;stroke:none;stroke-width:.75}.st6{marker-end:url(#mrkr13-21);stroke:#00b0f0;stroke-width:1.5}.st8{fill:#7f7f7f;stroke:none;stroke-linecap:butt;stroke-width:.75}.st12,.st9{stroke-linecap:round;stroke-linejoin:round;stroke-width:1.5}.st9{fill:none;stroke:none}.st12{stroke:#c00000}.st13{fill:#002060;font-family:Calibri;font-size:.833336em}.st14{fill:#0070c0;stroke:none;stroke-linecap:round;stroke-linejoin:round;stroke-width:.75}.st15{fill:#fff;font-family:Calibri;font-size:1.00001em}.st16,.st17,.st18{fill:#fff;stroke:#fff;stroke-linecap:butt;stroke-width:1.5}.st17,.st18{stroke:none;stroke-width:.75}.st18{fill:none}</style><defs id="Markers"><path d="M3 1L0 0l3-1v2" id="lend13"/><marker id="mrkr13-21" v:arrowType="13" v:arrowSize="2" v:setback="8.04" refX="-8.04" orient="auto" overflow="visible" fill="#00b0f0" stroke="#00b0f0" stroke-width=".373"><use xlink:href="#lend13" transform="scale(-2.68)"/></marker><marker id="mrkr13-96" v:arrowType="13" v:arrowSize="2" v:setback="8.04" refX="-8.04" orient="auto" overflow="visible" fill="#c00000" stroke="#c00000" stroke-width=".373"><use xlink:href="#lend13" transform="scale(-2.68)"/></marker></defs><g v:mID="0" v:index="1" v:groupContext="foregroundPage"><v:pageProperties v:drawingScale="1" v:pageScale="1" v:drawingUnits="19" v:shadowOffsetX="9" v:shadowOffsetY="-9"/><g id="shape1135-1" v:mID="1135" v:groupContext="shape" transform="translate(2.12 -.75)"><path fill="#fff" stroke="#c3c3c3" stroke-linecap="round" stroke-linejoin="round" stroke-width="1.5" d="M0 1.5h747v396.699H0z"/></g><g id="group1000-3" transform="translate(45.108 -115.5)" v:mID="1000" v:groupContext="group"><g id="shape1001-4" v:mID="1001" v:groupContext="shape"><path d="M20.21 358.65c-7.95 0-14.39-1.85-14.39-4.15 0-2.28 6.44-4.14 14.39-4.14 7.92 0 14.34 1.84 14.34 4.14s-6.42 4.15-14.34 4.15zM0 382.64v7.53c0 3.52 7.35 7.41 16.97 8.03h6.46c9.6-.6 16.95-3.81 16.95-7.36v-35.52c0-3.92-9.09-7.67-20.22-7.67-11.12 0-20.16 3.55-20.16 7.5V382.64z" class="st2"/></g><g id="shape1000-6" v:mID="1000" v:groupContext="groupContent"><v:textBlock v:margins="rect(0,0,0,0)" v:verticalAlign="0"/><v:textRect cx="20.191" cy="435.596" width="130.6" height="54.996"/><text x="-20.73" y="416.2" class="st3" v:langID="1033"><v:paragraph v:horizAlign="1"/><v:tabList/>Operations Manager<v:newlineChar/><tspan x="1.73" dy="1.2em" class="st4">Database</tspan></text></g></g><g id="shape1021-9" v:mID="1021" v:groupContext="shape" transform="translate(69.62 -145.2)"><v:textBlock v:margins="rect(4,4,4,4)"/><v:textRect cx="59.625" cy="381.324" width="119.25" height="33.75"/><path class="st5" d="M0 364.449h119.25v33.75H0z"/><text x="22.8" y="384.02" class="st3" v:langID="1033"><v:paragraph v:horizAlign="1"/><v:tabList/>Management Pack</text></g><g id="shape1023-12" v:mID="1023" v:groupContext="shape" transform="translate(231.761 -135.37)"><v:textBlock v:margins="rect(0,0,0,0)" v:verticalAlign="0"/><v:textRect cx="15.609" cy="429.482" width="72" height="31.5"/><path d="M29.99 388.44H1.22c-.67 0-1.22.55-1.22 1.22v7.32c0 .67.55 1.22 1.22 1.22h28.77c.68 0 1.23-.55 1.23-1.22v-7.32c0-.67-.55-1.22-1.23-1.22zm-27.33 8.51c-.61 0-1.1-.5-1.1-1.11 0-.61.49-1.1 1.1-1.1.61 0 1.11.49 1.11 1.1 0 .61-.5 1.11-1.11 1.11zm26.24-.45h-6.28c-.19 0-.35-.15-.35-.34 0-.19.16-.35.35-.35h6.28c.19 0 .35.16.35.35 0 .19-.16.34-.35.34zm0-1.22h-6.28c-.19 0-.35-.15-.35-.34 0-.19.16-.35.35-.35h6.28c.19 0 .35.16.35.35 0 .19-.16.34-.35.34zm0-1.22h-6.28c-.19 0-.35-.15-.35-.34 0-.19.16-.34.35-.34h6.28c.19 0 .35.15.35.34 0 .19-.16.34-.35.34z" class="st2"/><text x="-10.86" y="421.83" class="st3" v:langID="1033"><v:paragraph v:horizAlign="1"/><v:tabList/>Management<v:newlineChar/><tspan x="3.71" dy="1.2em" class="st4">server</tspan></text></g><g id="shape1024-16" v:mID="1024" v:groupContext="shape" transform="rotate(180 107.935 328.075)"><path d="M0 398.2h107.19" class="st6"/></g><g id="group1025-22" transform="translate(378.984 -234.716)" v:mID="1025" v:groupContext="group"><g id="shape1026-23" v:mID="1026" v:groupContext="shape" transform="translate(28.277 -37.81)"><path d="M29.99 388.44H1.22c-.67 0-1.22.55-1.22 1.22v7.32c0 .67.55 1.22 1.22 1.22h28.77c.68 0 1.23-.55 1.23-1.22v-7.32c0-.67-.55-1.22-1.23-1.22zm-27.33 8.51c-.61 0-1.1-.5-1.1-1.11 0-.61.49-1.1 1.1-1.1.61 0 1.11.49 1.11 1.1 0 .61-.5 1.11-1.11 1.11zm26.24-.45h-6.28c-.19 0-.35-.15-.35-.34 0-.19.16-.35.35-.35h6.28c.19 0 .35.16.35.35 0 .19-.16.34-.35.34zm0-1.22h-6.28c-.19 0-.35-.15-.35-.34 0-.19.16-.35.35-.35h6.28c.19 0 .35.16.35.35 0 .19-.16.34-.35.34zm0-1.22h-6.28c-.19 0-.35-.15-.35-.34 0-.19.16-.34.35-.34h6.28c.19 0 .35.15.35.34 0 .19-.16.34-.35.34z" class="st2"/></g><g id="group1027-25" transform="translate(55.067 -38.813)" v:mID="1027" v:groupContext="group"><g id="group1028-26" transform="translate(0 -6.836)" v:mID="1028" v:groupContext="group"><g id="shape1029-27" v:mID="1029" v:groupContext="shape"><path d="M4.22 395.34c-.74 0-1.34-.61-1.34-1.35 0-.74.6-1.34 1.34-1.34.74 0 1.33.6 1.33 1.34.01.74-.59 1.35-1.33 1.35zm2.62-4.68l-1.09.56-.66-.28-.42-1.16h-.95l-.38 1.16-.66.28-1.12-.53-.68.68.56 1.09-.28.65-1.16.43v.95l1.16.38.28.66-.53 1.11.68.68 1.09-.55.65.27.43 1.16h.95l.38-1.16.65-.27 1.12.52.68-.67-.55-1.08.27-.67 1.16-.42v-.96l-1.16-.38-.27-.65.53-1.11-.68-.69z" class="st8"/></g></g><g id="group1030-29" transform="translate(6.251)" v:mID="1030" v:groupContext="group"><g id="shape1031-30" v:mID="1031" v:groupContext="shape"><path d="M5.96 394.16c-1.05 0-1.9-.86-1.9-1.9 0-1.05.86-1.9 1.9-1.9s1.88.85 1.88 1.9c.01 1.04-.84 1.9-1.88 1.9zm3.69-6.6l-1.53.78-.94-.38-.59-1.65H5.25l-.53 1.65-.94.38-1.58-.74-.95.96.78 1.53-.39.93-1.64.6v1.34l1.63.53.4.94-.75 1.57.97.96 1.53-.78.93.39.59 1.63h1.36l.53-1.63.92-.39 1.58.74.95-.96-.77-1.52.39-.95 1.63-.58v-1.36l-1.63-.53-.39-.93.75-1.56-.97-.97z" class="st8"/></g></g></g><g id="shape1032-32" v:mID="1032" v:groupContext="shape" transform="translate(0 -10.688)"><v:textBlock v:margins="rect(4,4,4,4)"/><v:textRect cx="43.887" cy="381.887" width="87.78" height="32.625"/><path class="st9" d="M0 365.574h87.773v32.625H0z"/><text x="7.27" y="384.59" class="st3" v:langID="1033"><v:paragraph v:horizAlign="1"/><v:tabList/>Domain Controller</text></g></g><g id="group1033-35" transform="translate(378.984 -135.828)" v:mID="1033" v:groupContext="group"><g id="shape1034-36" v:mID="1034" v:groupContext="shape" transform="translate(28.277 -37.81)"><path d="M29.99 388.44H1.22c-.67 0-1.22.55-1.22 1.22v7.32c0 .67.55 1.22 1.22 1.22h28.77c.68 0 1.23-.55 1.23-1.22v-7.32c0-.67-.55-1.22-1.23-1.22zm-27.33 8.51c-.61 0-1.1-.5-1.1-1.11 0-.61.49-1.1 1.1-1.1.61 0 1.11.49 1.11 1.1 0 .61-.5 1.11-1.11 1.11zm26.24-.45h-6.28c-.19 0-.35-.15-.35-.34 0-.19.16-.35.35-.35h6.28c.19 0 .35.16.35.35 0 .19-.16.34-.35.34zm0-1.22h-6.28c-.19 0-.35-.15-.35-.34 0-.19.16-.35.35-.35h6.28c.19 0 .35.16.35.35 0 .19-.16.34-.35.34zm0-1.22h-6.28c-.19 0-.35-.15-.35-.34 0-.19.16-.34.35-.34h6.28c.19 0 .35.15.35.34 0 .19-.16.34-.35.34z" class="st2"/></g><g id="group1035-38" transform="translate(55.067 -38.813)" v:mID="1035" v:groupContext="group"><g id="group1036-39" transform="translate(0 -6.836)" v:mID="1036" v:groupContext="group"><g id="shape1037-40" v:mID="1037" v:groupContext="shape"><path d="M4.22 395.34c-.74 0-1.34-.61-1.34-1.35 0-.74.6-1.34 1.34-1.34.74 0 1.33.6 1.33 1.34.01.74-.59 1.35-1.33 1.35zm2.62-4.68l-1.09.56-.66-.28-.42-1.16h-.95l-.38 1.16-.66.28-1.12-.53-.68.68.56 1.09-.28.65-1.16.43v.95l1.16.38.28.66-.53 1.11.68.68 1.09-.55.65.27.43 1.16h.95l.38-1.16.65-.27 1.12.52.68-.67-.55-1.08.27-.67 1.16-.42v-.96l-1.16-.38-.27-.65.53-1.11-.68-.69z" class="st8"/></g></g><g id="group1038-42" transform="translate(6.251)" v:mID="1038" v:groupContext="group"><g id="shape1039-43" v:mID="1039" v:groupContext="shape"><path d="M5.96 394.16c-1.05 0-1.9-.86-1.9-1.9 0-1.05.86-1.9 1.9-1.9s1.88.85 1.88 1.9c.01 1.04-.84 1.9-1.88 1.9zm3.69-6.6l-1.53.78-.94-.38-.59-1.65H5.25l-.53 1.65-.94.38-1.58-.74-.95.96.78 1.53-.39.93-1.64.6v1.34l1.63.53.4.94-.75 1.57.97.96 1.53-.78.93.39.59 1.63h1.36l.53-1.63.92-.39 1.58.74.95-.96-.77-1.52.39-.95 1.63-.58v-1.36l-1.63-.53-.39-.93.75-1.56-.97-.97z" class="st8"/></g></g></g><g id="shape1040-45" v:mID="1040" v:groupContext="shape" transform="translate(0 -10.688)"><v:textBlock v:margins="rect(4,4,4,4)"/><v:textRect cx="43.887" cy="381.887" width="87.78" height="32.625"/><path class="st9" d="M0 365.574h87.773v32.625H0z"/><text x="22.37" y="384.59" class="st3" v:langID="1033"><v:paragraph v:horizAlign="1"/><v:tabList/>SQL Server</text></g></g><g id="group1041-48" transform="translate(380.121 -27.75)" v:mID="1041" v:groupContext="group"><g id="shape1042-49" v:mID="1042" v:groupContext="shape" transform="translate(28.277 -37.81)"><path d="M29.99 388.44H1.22c-.67 0-1.22.55-1.22 1.22v7.32c0 .67.55 1.22 1.22 1.22h28.77c.68 0 1.23-.55 1.23-1.22v-7.32c0-.67-.55-1.22-1.23-1.22zm-27.33 8.51c-.61 0-1.1-.5-1.1-1.11 0-.61.49-1.1 1.1-1.1.61 0 1.11.49 1.11 1.1 0 .61-.5 1.11-1.11 1.11zm26.24-.45h-6.28c-.19 0-.35-.15-.35-.34 0-.19.16-.35.35-.35h6.28c.19 0 .35.16.35.35 0 .19-.16.34-.35.34zm0-1.22h-6.28c-.19 0-.35-.15-.35-.34 0-.19.16-.35.35-.35h6.28c.19 0 .35.16.35.35 0 .19-.16.34-.35.34zm0-1.22h-6.28c-.19 0-.35-.15-.35-.34 0-.19.16-.34.35-.34h6.28c.19 0 .35.15.35.34 0 .19-.16.34-.35.34z" class="st2"/></g><g id="group1043-51" transform="translate(55.067 -38.813)" v:mID="1043" v:groupContext="group"><g id="group1044-52" transform="translate(0 -6.836)" v:mID="1044" v:groupContext="group"><g id="shape1045-53" v:mID="1045" v:groupContext="shape"><path d="M4.22 395.34c-.74 0-1.34-.61-1.34-1.35 0-.74.6-1.34 1.34-1.34.74 0 1.33.6 1.33 1.34.01.74-.59 1.35-1.33 1.35zm2.62-4.68l-1.09.56-.66-.28-.42-1.16h-.95l-.38 1.16-.66.28-1.12-.53-.68.68.56 1.09-.28.65-1.16.43v.95l1.16.38.28.66-.53 1.11.68.68 1.09-.55.65.27.43 1.16h.95l.38-1.16.65-.27 1.12.52.68-.67-.55-1.08.27-.67 1.16-.42v-.96l-1.16-.38-.27-.65.53-1.11-.68-.69z" class="st8"/></g></g><g id="group1046-55" transform="translate(6.251)" v:mID="1046" v:groupContext="group"><g id="shape1047-56" v:mID="1047" v:groupContext="shape"><path d="M5.96 394.16c-1.05 0-1.9-.86-1.9-1.9 0-1.05.86-1.9 1.9-1.9s1.88.85 1.88 1.9c.01 1.04-.84 1.9-1.88 1.9zm3.69-6.6l-1.53.78-.94-.38-.59-1.65H5.25l-.53 1.65-.94.38-1.58-.74-.95.96.78 1.53-.39.93-1.64.6v1.34l1.63.53.4.94-.75 1.57.97.96 1.53-.78.93.39.59 1.63h1.36l.53-1.63.92-.39 1.58.74.95-.96-.77-1.52.39-.95 1.63-.58v-1.36l-1.63-.53-.39-.93.75-1.56-.97-.97z" class="st8"/></g></g></g><g id="shape1048-58" v:mID="1048" v:groupContext="shape" transform="translate(0 -10.688)"><v:textBlock v:margins="rect(4,4,4,4)"/><v:textRect cx="43.887" cy="381.887" width="87.78" height="32.625"/><path class="st9" d="M0 365.574h87.773v32.625H0z"/><text x="4.83" y="384.59" class="st3" v:langID="1033"><v:paragraph v:horizAlign="1"/><v:tabList/>Custom Application</text></g></g><g id="group1073-61" transform="translate(454.371 -153)" v:mID="1073" v:groupContext="group"><g id="shape1093-62" v:mID="1093" v:groupContext="shape" transform="translate(22.5 -3.526)"><v:textBlock v:margins="rect(4,4,4,4)"/><v:textRect cx="64.125" cy="390.324" width="128.25" height="15.75"/><path class="st5" d="M0 382.449h128.25v15.75H0z"/><text x="21.29" y="393.02" class="st3" v:langID="1033"><v:paragraph v:horizAlign="1"/><v:tabList/>Windows Server 2016</text></g><g id="shape1094-65" v:mID="1094" v:groupContext="shape" transform="translate(24.75 -26.625)"><v:textBlock v:margins="rect(4,4,4,4)"/><v:textRect cx="43.887" cy="390.324" width="87.78" height="15.75"/><path class="st5" d="M0 382.449h87.773v15.75H0z"/><text x="11.44" y="393.02" class="st3" v:langID="1033"><v:paragraph v:horizAlign="1"/><v:tabList/>SQL Server 2016</text></g></g><g id="group1095-68" transform="translate(463.371 -48.9)" v:mID="1095" v:groupContext="group"><g id="shape1109-69" v:mID="1109" v:groupContext="shape" transform="translate(22.5 -3.526)"><v:textBlock v:margins="rect(4,4,4,4)"/><v:textRect cx="59.625" cy="390.324" width="119.25" height="15.75"/><path class="st5" d="M0 382.449h119.25v15.75H0z"/><text x="26.26" y="393.02" class="st3" v:langID="1033"><v:paragraph v:horizAlign="1"/><v:tabList/>RedHat Linux 6.4</text></g><g id="shape1110-72" v:mID="1110" v:groupContext="shape" transform="translate(24.75 -26.625)"><v:textBlock v:margins="rect(4,4,4,4)"/><v:textRect cx="40.5" cy="390.324" width="81" height="15.75"/><path class="st5" d="M0 382.449h81v15.75H0z"/><text x="17.43" y="393.02" class="st3" v:langID="1033"><v:paragraph v:horizAlign="1"/><v:tabList/>Custom MP</text></g></g><g id="shape1111-75" v:mID="1111" v:groupContext="shape" transform="translate(278.871 -140.776)"><path d="M0 398.2h67.5V261.48h35.19" class="st6"/></g><g id="shape1112-80" v:mID="1112" v:groupContext="shape" transform="translate(346.371 -178.5)"><path d="M0 398.2h37.44" class="st6"/></g><g id="shape1113-85" v:mID="1113" v:groupContext="shape" transform="translate(346.371 -70.5)"><path d="M0 328.45v69.75l41.94-.44" class="st6"/></g><g id="group1117-90" transform="translate(276.621 -147)" v:mID="1117" v:groupContext="group"><g id="shape1114-91" v:mID="1114" v:groupContext="shape"><path d="M114.75 258.7H71.16a9 9-180 0 0-9 9v121.5a9 9 0 0 1-9 9h-41.1" marker-end="url(#mrkr13-96)" stroke="#c00000" stroke-linecap="round" stroke-linejoin="round" stroke-width="1.5"/></g><g id="shape1116-97" v:mID="1116" v:groupContext="shape" transform="translate(62.156 -40.5)"><path d="M0 398.2h54.84" class="st12"/></g></g><g id="shape1119-100" v:mID="1119" v:groupContext="shape" transform="matrix(1 0 0 -1 299.097 649.399)"><path d="M96.77 327.7H61.42a9 9-180 0 0-9 9v52.5a9 9 0 0 1-9 9H0" class="st12"/></g><g id="group1122-103" transform="translate(38.12 -243.75)" v:mID="1122" v:groupContext="group"><g id="shape1120-104" v:mID="1120" v:groupContext="shape" transform="translate(13.5 2.25)"><v:textBlock v:margins="rect(4,4,4,4)"/><v:textRect cx="74.25" cy="384.699" width="148.5" height="27"/><path class="st5" d="M0 371.199h148.5v27H0z"/><text x="4" y="381.7" class="st13" v:langID="1033"><v:paragraph/><v:tabList/>Management pack installed in <tspan x="4" dy="1.2em" class="st4">management group</tspan></text></g><g id="shape1121-108" v:mID="1121" v:groupContext="shape" transform="translate(0 -13.5)"><v:textBlock v:margins="rect(4,4,4,4)"/><v:textRect cx="6.75" cy="391.449" width="13.5" height="13.5"/><path class="st14" d="M0 384.699h13.5v13.5H0z"/><text x="4" y="395.05" class="st15" v:langID="1033"><v:paragraph v:horizAlign="1"/><v:tabList/>1</text></g></g><g id="group1123-111" transform="translate(168.621 -169.5)" v:mID="1123" v:groupContext="group"><g id="shape1124-112" v:mID="1124" v:groupContext="shape" transform="translate(15.75 15.75)"><v:textBlock v:margins="rect(4,4,4,4)"/><v:textRect cx="72" cy="377.949" width="144" height="40.5"/><path class="st5" d="M0 357.699h144v40.5H0z"/><text x="4" y="368.95" class="st13" v:langID="1033"><v:paragraph/><v:tabList/>Management server notifies <tspan x="4" dy="1.2em" class="st4">agents of config change and they </tspan><tspan x="4" dy="1.2em" class="st4">download management pack(s)</tspan></text></g><g id="shape1125-117" v:mID="1125" v:groupContext="shape" transform="translate(0 -13.5)"><v:textBlock v:margins="rect(4,4,4,4)"/><v:textRect cx="6.75" cy="391.449" width="13.5" height="13.5"/><path class="st14" d="M0 384.699h13.5v13.5H0z"/><text x="4" y="395.05" class="st15" v:langID="1033"><v:paragraph v:horizAlign="1"/><v:tabList/>2</text></g></g><g id="group1126-120" transform="translate(446.496 -333.75)" v:mID="1126" v:groupContext="group"><g id="shape1127-121" v:mID="1127" v:groupContext="shape" transform="translate(14.625 6.75)"><v:textBlock v:margins="rect(4,4,4,4)"/><v:textRect cx="79.875" cy="381.906" width="159.75" height="32.588"/><path class="st5" d="M0 365.612h159.75V398.2H0z"/><text x="4" y="378.91" class="st13" v:langID="1033"><v:paragraph/><v:tabList/>Agent discovers components and <tspan x="4" dy="1.2em" class="st4">loads workloads</tspan></text></g><g id="shape1128-125" v:mID="1128" v:groupContext="shape" transform="translate(0 -13.5)"><v:textBlock v:margins="rect(4,4,4,4)"/><v:textRect cx="6.75" cy="391.449" width="13.5" height="13.5"/><path class="st14" d="M0 384.699h13.5v13.5H0z"/><text x="4" y="395.05" class="st15" v:langID="1033"><v:paragraph v:horizAlign="1"/><v:tabList/>3</text></g></g><g id="group1129-128" transform="translate(580.371 -192)" v:mID="1129" v:groupContext="group"><g id="shape1130-129" v:mID="1130" v:groupContext="shape" transform="translate(15.75 -2.25)"><v:textBlock v:margins="rect(4,4,4,4)"/><v:textRect cx="79.875" cy="384.699" width="159.75" height="27"/><path class="st5" d="M0 371.199h159.75v27H0z"/><text x="4" y="387.7" class="st13" v:langID="1033"><v:paragraph/><v:tabList/>Workflows run on agent</text></g><g id="shape1131-132" v:mID="1131" v:groupContext="shape" transform="translate(0 -13.5)"><v:textBlock v:margins="rect(4,4,4,4)"/><v:textRect cx="6.75" cy="391.449" width="13.5" height="13.5"/><path class="st14" d="M0 384.699h13.5v13.5H0z"/><text x="4" y="395.05" class="st15" v:langID="1033"><v:paragraph v:horizAlign="1"/><v:tabList/>4</text></g></g><g id="group1132-135" transform="translate(166.371 -68.25)" v:mID="1132" v:groupContext="group"><g id="shape1133-136" v:mID="1133" v:groupContext="shape" transform="translate(15.75 38.25)"><v:textBlock v:margins="rect(4,4,4,4)"/><v:textRect cx="58.488" cy="366.699" width="116.98" height="63"/><path class="st5" d="M0 335.199h116.977v63H0z"/><text x="4" y="345.7" class="st13" v:langID="1033"><v:paragraph/><v:tabList/>Agent forwards collected <tspan x="4" dy="1.2em" class="st4">data to management </tspan><tspan x="4" dy="1.2em" class="st4">servers and is then written </tspan><tspan x="4" dy="1.2em" class="st4">to Operations Manager </tspan><tspan x="4" dy="1.2em" class="st4">database.</tspan></text></g><g id="shape1134-143" v:mID="1134" v:groupContext="shape" transform="translate(0 -13.5)"><v:textBlock v:margins="rect(4,4,4,4)"/><v:textRect cx="6.75" cy="391.449" width="13.5" height="13.5"/><path class="st14" d="M0 384.699h13.5v13.5H0z"/><text x="4" y="395.05" class="st15" v:langID="1033"><v:paragraph v:horizAlign="1"/><v:tabList/>5</text></g></g><g id="group1163-146" transform="translate(455.121 -261.75)" v:mID="1163" v:groupContext="group"><g id="shape1069-147" v:mID="1069" v:groupContext="shape" transform="translate(22.875 -4.5)"><v:textBlock v:margins="rect(4,4,4,4)"/><v:textRect cx="64.125" cy="390.324" width="128.25" height="15.75"/><path class="st5" d="M0 382.449h128.25v15.75H0z"/><text x="21.29" y="393.02" class="st3" v:langID="1033"><v:paragraph v:horizAlign="1"/><v:tabList/>Windows Server 2016</text></g><g id="shape1070-150" v:mID="1070" v:groupContext="shape" transform="translate(17.25 -21.974)"><v:textBlock v:margins="rect(4,4,4,4)"/><v:textRect cx="43.887" cy="390.324" width="87.78" height="15.75"/><path class="st5" d="M0 382.449h87.773v15.75H0z"/><text x="21.36" y="393.02" class="st3" v:langID="1033"><v:paragraph v:horizAlign="1"/><v:tabList/>DNS Server</text></g><g id="shape1071-153" v:mID="1071" v:groupContext="shape" transform="translate(12.188 -43.875)"><v:textBlock v:margins="rect(4,4,4,4)"/><v:textRect cx="47.813" cy="390.324" width="95.63" height="15.75"/><path class="st5" d="M0 382.449h95.625v15.75H0z"/><text x="16.33" y="393.02" class="st3" v:langID="1033"><v:paragraph v:horizAlign="1"/><v:tabList/>Active Directory</text></g><g id="group1136-156" transform="translate(0 -36)" v:mID="1136" v:groupContext="group"><g id="shape1137-157" v:mID="1137" v:groupContext="shape"><path d="M16.5 368.2H0v30h24v-22.5l-7.5-7.5z" class="st16"/></g><g id="shape1138-159" v:mID="1138" v:groupContext="shape"><path d="M16.5 368.2H0v30h24v-22.5l-7.5-7.5z" class="st17"/></g><g id="shape1139-161" v:mID="1139" v:groupContext="shape"><path d="M16.5 368.2H0v30h24v-22.5l-7.5-7.5zm6 28.5h-21v-27h14.25v6.75h6.75v20.25z" class="st8"/></g><g id="shape1140-163" v:mID="1140" v:groupContext="shape" transform="translate(5.25 -16.5)"><path class="st8" d="M0 396.699h13.5v1.5H0z"/></g><g id="shape1141-165" v:mID="1141" v:groupContext="shape" transform="translate(5.25 -12.75)"><path class="st8" d="M0 396.699h13.5v1.5H0z"/></g><g id="shape1142-167" v:mID="1142" v:groupContext="shape" transform="translate(5.25 -9)"><path class="st8" d="M0 396.699h13.5v1.5H0z"/></g><g id="shape1143-169" v:mID="1143" v:groupContext="shape" transform="translate(5.25 -5.25)"><path class="st8" d="M0 396.699h13.5v1.5H0z"/></g><g id="shape1144-171" v:mID="1144" v:groupContext="shape"><path class="st18" d="M0 368.199h24v30H0z"/></g></g><g id="group1145-173" transform="translate(6 -18)" v:mID="1145" v:groupContext="group"><g id="shape1146-174" v:mID="1146" v:groupContext="shape"><path d="M16.5 368.2H0v30h24v-22.5l-7.5-7.5z" class="st16"/></g><g id="shape1147-176" v:mID="1147" v:groupContext="shape"><path d="M16.5 368.2H0v30h24v-22.5l-7.5-7.5z" class="st17"/></g><g id="shape1148-178" v:mID="1148" v:groupContext="shape"><path d="M16.5 368.2H0v30h24v-22.5l-7.5-7.5zm6 28.5h-21v-27h14.25v6.75h6.75v20.25z" class="st8"/></g><g id="shape1149-180" v:mID="1149" v:groupContext="shape" transform="translate(5.25 -16.5)"><path class="st8" d="M0 396.699h13.5v1.5H0z"/></g><g id="shape1150-182" v:mID="1150" v:groupContext="shape" transform="translate(5.25 -12.75)"><path class="st8" d="M0 396.699h13.5v1.5H0z"/></g><g id="shape1151-184" v:mID="1151" v:groupContext="shape" transform="translate(5.25 -9)"><path class="st8" d="M0 396.699h13.5v1.5H0z"/></g><g id="shape1152-186" v:mID="1152" v:groupContext="shape" transform="translate(5.25 -5.25)"><path class="st8" d="M0 396.699h13.5v1.5H0z"/></g><g id="shape1153-188" v:mID="1153" v:groupContext="shape"><path class="st18" d="M0 368.199h24v30H0z"/></g></g><g id="group1154-190" transform="translate(15)" v:mID="1154" v:groupContext="group"><g id="shape1155-191" v:mID="1155" v:groupContext="shape"><path d="M16.5 368.2H0v30h24v-22.5l-7.5-7.5z" class="st16"/></g><g id="shape1156-193" v:mID="1156" v:groupContext="shape"><path d="M16.5 368.2H0v30h24v-22.5l-7.5-7.5z" class="st17"/></g><g id="shape1157-195" v:mID="1157" v:groupContext="shape"><path d="M16.5 368.2H0v30h24v-22.5l-7.5-7.5zm6 28.5h-21v-27h14.25v6.75h6.75v20.25z" class="st8"/></g><g id="shape1158-197" v:mID="1158" v:groupContext="shape" transform="translate(5.25 -16.5)"><path class="st8" d="M0 396.699h13.5v1.5H0z"/></g><g id="shape1159-199" v:mID="1159" v:groupContext="shape" transform="translate(5.25 -12.75)"><path class="st8" d="M0 396.699h13.5v1.5H0z"/></g><g id="shape1160-201" v:mID="1160" v:groupContext="shape" transform="translate(5.25 -9)"><path class="st8" d="M0 396.699h13.5v1.5H0z"/></g><g id="shape1161-203" v:mID="1161" v:groupContext="shape" transform="translate(5.25 -5.25)"><path class="st8" d="M0 396.699h13.5v1.5H0z"/></g><g id="shape1162-205" v:mID="1162" v:groupContext="shape"><path class="st18" d="M0 368.199h24v30H0z"/></g></g></g><g id="group1164-207" transform="translate(463.371 -172.5)" v:mID="1164" v:groupContext="group"><g id="shape1165-208" v:mID="1165" v:groupContext="shape"><path d="M16.5 368.2H0v30h24v-22.5l-7.5-7.5z" class="st16"/></g><g id="shape1166-210" v:mID="1166" v:groupContext="shape"><path d="M16.5 368.2H0v30h24v-22.5l-7.5-7.5z" class="st17"/></g><g id="shape1167-212" v:mID="1167" v:groupContext="shape"><path d="M16.5 368.2H0v30h24v-22.5l-7.5-7.5zm6 28.5h-21v-27h14.25v6.75h6.75v20.25z" class="st8"/></g><g id="shape1168-214" v:mID="1168" v:groupContext="shape" transform="translate(5.25 -16.5)"><path class="st8" d="M0 396.699h13.5v1.5H0z"/></g><g id="shape1169-216" v:mID="1169" v:groupContext="shape" transform="translate(5.25 -12.75)"><path class="st8" d="M0 396.699h13.5v1.5H0z"/></g><g id="shape1170-218" v:mID="1170" v:groupContext="shape" transform="translate(5.25 -9)"><path class="st8" d="M0 396.699h13.5v1.5H0z"/></g><g id="shape1171-220" v:mID="1171" v:groupContext="shape" transform="translate(5.25 -5.25)"><path class="st8" d="M0 396.699h13.5v1.5H0z"/></g><g id="shape1172-222" v:mID="1172" v:groupContext="shape"><path class="st18" d="M0 368.199h24v30H0z"/></g></g><g id="group1173-224" transform="translate(470.121 -153)" v:mID="1173" v:groupContext="group"><g id="shape1174-225" v:mID="1174" v:groupContext="shape"><path d="M16.5 368.2H0v30h24v-22.5l-7.5-7.5z" class="st16"/></g><g id="shape1175-227" v:mID="1175" v:groupContext="shape"><path d="M16.5 368.2H0v30h24v-22.5l-7.5-7.5z" class="st17"/></g><g id="shape1176-229" v:mID="1176" v:groupContext="shape"><path d="M16.5 368.2H0v30h24v-22.5l-7.5-7.5zm6 28.5h-21v-27h14.25v6.75h6.75v20.25z" class="st8"/></g><g id="shape1177-231" v:mID="1177" v:groupContext="shape" transform="translate(5.25 -16.5)"><path class="st8" d="M0 396.699h13.5v1.5H0z"/></g><g id="shape1178-233" v:mID="1178" v:groupContext="shape" transform="translate(5.25 -12.75)"><path class="st8" d="M0 396.699h13.5v1.5H0z"/></g><g id="shape1179-235" v:mID="1179" v:groupContext="shape" transform="translate(5.25 -9)"><path class="st8" d="M0 396.699h13.5v1.5H0z"/></g><g id="shape1180-237" v:mID="1180" v:groupContext="shape" transform="translate(5.25 -5.25)"><path class="st8" d="M0 396.699h13.5v1.5H0z"/></g><g id="shape1181-239" v:mID="1181" v:groupContext="shape"><path class="st18" d="M0 368.199h24v30H0z"/></g></g><g id="group1182-241" transform="translate(476.121 -68.4)" v:mID="1182" v:groupContext="group"><g id="shape1183-242" v:mID="1183" v:groupContext="shape"><path d="M16.5 368.2H0v30h24v-22.5l-7.5-7.5z" class="st16"/></g><g id="shape1184-244" v:mID="1184" v:groupContext="shape"><path d="M16.5 368.2H0v30h24v-22.5l-7.5-7.5z" class="st17"/></g><g id="shape1185-246" v:mID="1185" v:groupContext="shape"><path d="M16.5 368.2H0v30h24v-22.5l-7.5-7.5zm6 28.5h-21v-27h14.25v6.75h6.75v20.25z" class="st8"/></g><g id="shape1186-248" v:mID="1186" v:groupContext="shape" transform="translate(5.25 -16.5)"><path class="st8" d="M0 396.699h13.5v1.5H0z"/></g><g id="shape1187-250" v:mID="1187" v:groupContext="shape" transform="translate(5.25 -12.75)"><path class="st8" d="M0 396.699h13.5v1.5H0z"/></g><g id="shape1188-252" v:mID="1188" v:groupContext="shape" transform="translate(5.25 -9)"><path class="st8" d="M0 396.699h13.5v1.5H0z"/></g><g id="shape1189-254" v:mID="1189" v:groupContext="shape" transform="translate(5.25 -5.25)"><path class="st8" d="M0 396.699h13.5v1.5H0z"/></g><g id="shape1190-256" v:mID="1190" v:groupContext="shape"><path class="st18" d="M0 368.199h24v30H0z"/></g></g><g id="group1191-258" transform="translate(482.121 -48.9)" v:mID="1191" v:groupContext="group"><g id="shape1192-259" v:mID="1192" v:groupContext="shape"><path d="M16.5 368.2H0v30h24v-22.5l-7.5-7.5z" class="st16"/></g><g id="shape1193-261" v:mID="1193" v:groupContext="shape"><path d="M16.5 368.2H0v30h24v-22.5l-7.5-7.5z" class="st17"/></g><g id="shape1194-263" v:mID="1194" v:groupContext="shape"><path d="M16.5 368.2H0v30h24v-22.5l-7.5-7.5zm6 28.5h-21v-27h14.25v6.75h6.75v20.25z" class="st8"/></g><g id="shape1195-265" v:mID="1195" v:groupContext="shape" transform="translate(5.25 -16.5)"><path class="st8" d="M0 396.699h13.5v1.5H0z"/></g><g id="shape1196-267" v:mID="1196" v:groupContext="shape" transform="translate(5.25 -12.75)"><path class="st8" d="M0 396.699h13.5v1.5H0z"/></g><g id="shape1197-269" v:mID="1197" v:groupContext="shape" transform="translate(5.25 -9)"><path class="st8" d="M0 396.699h13.5v1.5H0z"/></g><g id="shape1198-271" v:mID="1198" v:groupContext="shape" transform="translate(5.25 -5.25)"><path class="st8" d="M0 396.699h13.5v1.5H0z"/></g><g id="shape1199-273" v:mID="1199" v:groupContext="shape"><path class="st18" d="M0 368.199h24v30H0z"/></g></g><g id="group1200-275" transform="translate(71.12 -201.75)" v:mID="1200" v:groupContext="group"><g id="shape1201-276" v:mID="1201" v:groupContext="shape"><path d="M16.5 368.2H0v30h24v-22.5l-7.5-7.5z" class="st16"/></g><g id="shape1202-278" v:mID="1202" v:groupContext="shape"><path d="M16.5 368.2H0v30h24v-22.5l-7.5-7.5z" class="st17"/></g><g id="shape1203-280" v:mID="1203" v:groupContext="shape"><path d="M16.5 368.2H0v30h24v-22.5l-7.5-7.5zm6 28.5h-21v-27h14.25v6.75h6.75v20.25z" class="st8"/></g><g id="shape1204-282" v:mID="1204" v:groupContext="shape" transform="translate(5.25 -16.5)"><path class="st8" d="M0 396.699h13.5v1.5H0z"/></g><g id="shape1205-284" v:mID="1205" v:groupContext="shape" transform="translate(5.25 -12.75)"><path class="st8" d="M0 396.699h13.5v1.5H0z"/></g><g id="shape1206-286" v:mID="1206" v:groupContext="shape" transform="translate(5.25 -9)"><path class="st8" d="M0 396.699h13.5v1.5H0z"/></g><g id="shape1207-288" v:mID="1207" v:groupContext="shape" transform="translate(5.25 -5.25)"><path class="st8" d="M0 396.699h13.5v1.5H0z"/></g><g id="shape1208-290" v:mID="1208" v:groupContext="shape"><path class="st18" d="M0 368.199h24v30H0z"/></g></g><g id="group1209-292" transform="translate(80.12 -186.75)" v:mID="1209" v:groupContext="group"><g id="shape1210-293" v:mID="1210" v:groupContext="shape"><path d="M16.5 368.2H0v30h24v-22.5l-7.5-7.5z" class="st16"/></g><g id="shape1211-295" v:mID="1211" v:groupContext="shape"><path d="M16.5 368.2H0v30h24v-22.5l-7.5-7.5z" class="st17"/></g><g id="shape1212-297" v:mID="1212" v:groupContext="shape"><path d="M16.5 368.2H0v30h24v-22.5l-7.5-7.5zm6 28.5h-21v-27h14.25v6.75h6.75v20.25z" class="st8"/></g><g id="shape1213-299" v:mID="1213" v:groupContext="shape" transform="translate(5.25 -16.5)"><path class="st8" d="M0 396.699h13.5v1.5H0z"/></g><g id="shape1214-301" v:mID="1214" v:groupContext="shape" transform="translate(5.25 -12.75)"><path class="st8" d="M0 396.699h13.5v1.5H0z"/></g><g id="shape1215-303" v:mID="1215" v:groupContext="shape" transform="translate(5.25 -9)"><path class="st8" d="M0 396.699h13.5v1.5H0z"/></g><g id="shape1216-305" v:mID="1216" v:groupContext="shape" transform="translate(5.25 -5.25)"><path class="st8" d="M0 396.699h13.5v1.5H0z"/></g><g id="shape1217-307" v:mID="1217" v:groupContext="shape"><path class="st18" d="M0 368.199h24v30H0z"/></g></g><g id="group1218-309" transform="translate(89.12 -171.75)" v:mID="1218" v:groupContext="group"><g id="shape1219-310" v:mID="1219" v:groupContext="shape"><path d="M16.5 368.2H0v30h24v-22.5l-7.5-7.5z" class="st16"/></g><g id="shape1220-312" v:mID="1220" v:groupContext="shape"><path d="M16.5 368.2H0v30h24v-22.5l-7.5-7.5z" class="st17"/></g><g id="shape1221-314" v:mID="1221" v:groupContext="shape"><path d="M16.5 368.2H0v30h24v-22.5l-7.5-7.5zm6 28.5h-21v-27h14.25v6.75h6.75v20.25z" class="st8"/></g><g id="shape1222-316" v:mID="1222" v:groupContext="shape" transform="translate(5.25 -16.5)"><path class="st8" d="M0 396.699h13.5v1.5H0z"/></g><g id="shape1223-318" v:mID="1223" v:groupContext="shape" transform="translate(5.25 -12.75)"><path class="st8" d="M0 396.699h13.5v1.5H0z"/></g><g id="shape1224-320" v:mID="1224" v:groupContext="shape" transform="translate(5.25 -9)"><path class="st8" d="M0 396.699h13.5v1.5H0z"/></g><g id="shape1225-322" v:mID="1225" v:groupContext="shape" transform="translate(5.25 -5.25)"><path class="st8" d="M0 396.699h13.5v1.5H0z"/></g><g id="shape1226-324" v:mID="1226" v:groupContext="shape"><path class="st18" d="M0 368.199h24v30H0z"/></g></g></g></svg>