<svg xmlns="http://www.w3.org/2000/svg" xmlns:v="http://schemas.microsoft.com/visio/2003/SVGExtensions/" width="1587.571" height="315.021" viewBox="0 0 1190.68 236.266" color-interpolation-filters="sRGB" fill="none" fill-rule="evenodd" font-size="12" overflow="visible" stroke-linecap="square" stroke-miterlimit="3"><v:documentProperties v:langID="1033" v:viewMarkup="false"/><style>.st2{fill:none;stroke:none;stroke-linecap:round;stroke-linejoin:round;stroke-width:.75}.st3{fill:#000;font-family:Calibri;font-size:1.16666em;font-weight:700}.st4{font-size:1em}.st5{fill:#fff;font-family:Calibri;font-size:1.99999em;font-weight:700}.st6{stroke:#ff0;stroke-linecap:round;stroke-linejoin:round;stroke-width:.75}</style><g v:mID="0" v:index="1" v:groupContext="foregroundPage"><v:pageProperties v:drawingScale="1" v:pageScale="1" v:drawingUnits="19" v:shadowOffsetX="9" v:shadowOffsetY="-9"/><g id="shape1001-1" v:mID="1001" v:groupContext="shape" transform="translate(.375 -151.896)"><path fill="#0070c0" stroke="#000" stroke-linecap="round" stroke-linejoin="round" stroke-width=".75" d="M0 153.918h1189.93v82.348H0z"/></g><g id="shape1004-3" v:mID="1004" v:groupContext="shape" transform="translate(.375 -76.959)"><v:textBlock v:margins="rect(4,4,4,4)" v:verticalAlign="0"/><v:textRect cx="60.938" cy="204.973" width="121.88" height="62.585"/><path class="st2" d="M0 173.681h121.875v62.585H0z"/><text x="32.72" y="190.28" class="st3" v:langID="1033"><v:paragraph v:horizAlign="1"/><v:tabList/>Microsoft<v:newlineChar/><tspan x="28.52" dy="1.2em" class="st4">Operations<v:newlineChar/></tspan><tspan x="34.82" dy="1.2em" class="st4">Manager</tspan></text></g><g id="shape1005-8" v:mID="1005" v:groupContext="shape" transform="translate(109.898 -76.959)"><v:textBlock v:margins="rect(4,4,4,4)" v:verticalAlign="0"/><v:textRect cx="60.938" cy="204.973" width="121.88" height="62.585"/><path class="st2" d="M0 173.681h121.875v62.585H0z"/><text x="32.72" y="190.28" class="st3" v:langID="1033"><v:paragraph v:horizAlign="1"/><v:tabList/>Microsoft<v:newlineChar/><tspan x="28.52" dy="1.2em" class="st4">Operations<v:newlineChar/></tspan><tspan x="19.05" dy="1.2em" class="st4">Manager 2005</tspan></text></g><g id="shape1006-13" v:mID="1006" v:groupContext="shape" transform="translate(228.479 -57.195)"><v:textBlock v:margins="rect(4,4,4,4)" v:verticalAlign="0"/><v:textRect cx="60.938" cy="195.092" width="121.88" height="82.348"/><path class="st2" d="M0 153.918h121.875v82.348H0z"/><text x="18.87" y="170.52" class="st3" v:langID="1033"><v:paragraph v:horizAlign="1"/><v:tabList/>System Center<v:newlineChar/><tspan x="28.52" dy="1.2em" class="st4">Operations </tspan><tspan x="34.82" dy="1.2em" class="st4">Manager <v:newlineChar/></tspan><tspan x="46.75" dy="1.2em" class="st4">2007</tspan></text></g><g id="shape1007-19" v:mID="1007" v:groupContext="shape" transform="translate(487.053 -76.959)"><v:textBlock v:margins="rect(4,4,4,4)" v:verticalAlign="0"/><v:textRect cx="60.938" cy="204.973" width="121.88" height="62.585"/><path class="st2" d="M0 173.681h121.875v62.585H0z"/><text x="18.87" y="190.28" class="st3" v:langID="1033"><v:paragraph v:horizAlign="1"/><v:tabList/>System Center<v:newlineChar/><tspan x="28.52" dy="1.2em" class="st4">Operations </tspan><tspan x="19.05" dy="1.2em" class="st4">Manager 2012</tspan></text></g><g id="shape1008-24" v:mID="1008" v:groupContext="shape" transform="translate(361.406 -101.663)"><v:textBlock v:margins="rect(4,4,4,4)" v:verticalAlign="0"/><v:textRect cx="60.938" cy="217.326" width="121.88" height="37.88"/><path class="st2" d="M0 198.386h121.875v37.88H0z"/><text x="9.48" y="214.99" class="st3" v:langID="1033"><v:paragraph v:horizAlign="1"/><v:tabList/>Azure Diagnostics<v:newlineChar/><tspan x="28.21" dy="1.2em" class="st4">(Extension)</tspan></text></g><g id="shape1009-28" v:mID="1009" v:groupContext="shape" transform="translate(613.406 -35.785)"><v:textBlock v:margins="rect(4,4,4,4)" v:verticalAlign="0"/><v:textRect cx="60.938" cy="184.386" width="121.88" height="103.759"/><path class="st2" d="M0 132.507h121.875v103.759H0z"/><text x="44.15" y="149.11" class="st3" v:langID="1033"><v:paragraph v:horizAlign="1"/><v:tabList/>Azure<v:newlineChar/><tspan x="26.14" dy="1.2em" class="st4">Operational </tspan><tspan x="38.51" dy="1.2em" class="st4">Insights<v:newlineChar/></tspan><tspan x="57.93" dy="1.2em" class="st4">/<v:newlineChar/></tspan><tspan x="46.78" dy="1.2em" class="st4">OMS</tspan></text></g><g id="shape1011-35" v:mID="1011" v:groupContext="shape" transform="translate(865.931 -76.959)"><v:textBlock v:margins="rect(4,4,4,4)" v:verticalAlign="0"/><v:textRect cx="40.351" cy="204.973" width="80.71" height="62.585"/><path class="st2" d="M0 173.681h80.701v62.585H0z"/><text x="25.14" y="190.28" class="st3" v:langID="1033"><v:paragraph v:horizAlign="1"/><v:tabList/>Azure<v:newlineChar/><tspan x="16.32" dy="1.2em" class="st4">Monitor </tspan><tspan x="27.29" dy="1.2em" class="st4">(GA)</tspan></text></g><g id="shape1012-40" v:mID="1012" v:groupContext="shape" transform="translate(136.249 -166.718)"><v:textBlock v:margins="rect(4,4,4,4)"/><v:textRect cx="36.233" cy="209.914" width="72.47" height="52.703"/><path class="st2" d="M0 183.563h72.466v52.703H0z"/><text x="11.91" y="217.11" class="st5" v:langID="1033"><v:paragraph v:horizAlign="1"/><v:tabList/>2005</text></g><g id="shape1013-43" v:mID="1013" v:groupContext="shape" transform="translate(254.831 -166.718)"><v:textBlock v:margins="rect(4,4,4,4)"/><v:textRect cx="36.233" cy="209.914" width="72.47" height="52.703"/><path class="st2" d="M0 183.563h72.466v52.703H0z"/><text x="11.91" y="217.11" class="st5" v:langID="1033"><v:paragraph v:horizAlign="1"/><v:tabList/>2007</text></g><g id="shape1014-46" v:mID="1014" v:groupContext="shape" transform="translate(511.757 -166.718)"><v:textBlock v:margins="rect(4,4,4,4)"/><v:textRect cx="36.233" cy="209.914" width="72.47" height="52.703"/><path class="st2" d="M0 183.563h72.466v52.703H0z"/><text x="11.91" y="217.11" class="st5" v:langID="1033"><v:paragraph v:horizAlign="1"/><v:tabList/>2012</text></g><g id="shape1015-49" v:mID="1015" v:groupContext="shape" transform="translate(386.11 -166.718)"><v:textBlock v:margins="rect(4,4,4,4)"/><v:textRect cx="36.233" cy="209.914" width="72.47" height="52.703"/><path class="st2" d="M0 183.563h72.466v52.703H0z"/><text x="11.91" y="217.11" class="st5" v:langID="1033"><v:paragraph v:horizAlign="1"/><v:tabList/>2010</text></g><g id="shape1016-52" v:mID="1016" v:groupContext="shape" transform="rotate(90 233.009 235.03)"><path d="M0 236.27h82.35" class="st6"/></g><g id="shape1017-55" v:mID="1017" v:groupContext="shape" transform="rotate(90 295.593 297.615)"><path d="M0 236.27h82.35" class="st6"/></g><g id="shape1018-58" v:mID="1018" v:groupContext="shape" transform="rotate(90 359.825 361.846)"><path d="M0 236.27h82.35" class="st6"/></g><g id="shape1019-61" v:mID="1019" v:groupContext="shape" transform="rotate(90 422.409 424.431)"><path d="M0 236.27h82.35" class="st6"/></g><g id="shape1020-64" v:mID="1020" v:groupContext="shape" transform="translate(638.11 -166.718)"><v:textBlock v:margins="rect(4,4,4,4)"/><v:textRect cx="36.233" cy="209.914" width="72.47" height="52.703"/><path class="st2" d="M0 183.563h72.466v52.703H0z"/><text x="11.91" y="217.11" class="st5" v:langID="1033"><v:paragraph v:horizAlign="1"/><v:tabList/>2015</text></g><g id="shape1021-67" v:mID="1021" v:groupContext="shape" transform="rotate(90 483.347 485.369)"><path d="M0 236.27h82.35" class="st6"/></g><g id="shape1022-70" v:mID="1022" v:groupContext="shape" transform="translate(20.962 -166.718)"><v:textBlock v:margins="rect(4,4,4,4)"/><v:textRect cx="36.233" cy="209.914" width="72.47" height="52.703"/><path class="st2" d="M0 183.563h72.466v52.703H0z"/><text x="11.91" y="217.11" class="st5" v:langID="1033"><v:paragraph v:horizAlign="1"/><v:tabList/>2000</text></g><g id="shape1023-73" v:mID="1023" v:groupContext="shape" transform="rotate(90 172.071 174.093)"><path d="M0 236.27h82.35" class="st6"/></g><g id="shape1024-76" v:mID="1024" v:groupContext="shape" transform="translate(870.048 -166.718)"><v:textBlock v:margins="rect(4,4,4,4)"/><v:textRect cx="36.233" cy="209.914" width="72.47" height="52.703"/><path class="st2" d="M0 183.563h72.466v52.703H0z"/><text x="11.91" y="217.11" class="st5" v:langID="1033"><v:paragraph v:horizAlign="1"/><v:tabList/>2017</text></g><g id="shape1026-79" v:mID="1026" v:groupContext="shape" transform="translate(1092.99 -166.718)"><v:textBlock v:margins="rect(4,4,4,4)"/><v:textRect cx="36.233" cy="209.914" width="72.47" height="52.703"/><path class="st2" d="M0 183.563h72.466v52.703H0z"/><text x="11.91" y="217.11" class="st5" v:langID="1033"><v:paragraph v:horizAlign="1"/><v:tabList/>2019</text></g><g id="shape1027-82" v:mID="1027" v:groupContext="shape" transform="translate(1068.28 -76.959)"><v:textBlock v:margins="rect(4,4,4,4)" v:verticalAlign="0"/><v:textRect cx="60.938" cy="204.973" width="121.88" height="62.585"/><path class="st2" d="M0 173.681h121.875v62.585H0z"/><text x="18.87" y="190.28" class="st3" v:langID="1033"><v:paragraph v:horizAlign="1"/><v:tabList/>System Center<v:newlineChar/><tspan x="28.52" dy="1.2em" class="st4">Operations </tspan><tspan x="19.05" dy="1.2em" class="st4">Manager 2019</tspan></text></g><g id="shape1029-87" v:mID="1029" v:groupContext="shape" transform="translate(755.11 -165.071)"><v:textBlock v:margins="rect(4,4,4,4)"/><v:textRect cx="36.233" cy="209.914" width="72.47" height="52.703"/><path class="st2" d="M0 183.563h72.466v52.703H0z"/><text x="11.91" y="217.11" class="st5" v:langID="1033"><v:paragraph v:horizAlign="1"/><v:tabList/>2016</text></g><g id="shape1030-90" v:mID="1030" v:groupContext="shape" transform="rotate(90 542.639 544.661)"><path d="M0 236.27h82.35" class="st6"/></g><g id="shape1031-93" v:mID="1031" v:groupContext="shape" transform="translate(730.406 -76.959)"><v:textBlock v:margins="rect(4,4,4,4)" v:verticalAlign="0"/><v:textRect cx="60.938" cy="204.973" width="121.88" height="62.585"/><path class="st2" d="M0 173.681h121.875v62.585H0z"/><text x="18.87" y="190.28" class="st3" v:langID="1033"><v:paragraph v:horizAlign="1"/><v:tabList/>System Center<v:newlineChar/><tspan x="28.52" dy="1.2em" class="st4">Operations </tspan><tspan x="19.05" dy="1.2em" class="st4">Manager 2016</tspan></text></g><g id="shape1032-98" v:mID="1032" v:groupContext="shape" transform="rotate(90 598.633 599.008)"><path d="M0 236.27h82.35" class="st6"/></g><g id="shape1033-101" v:mID="1033" v:groupContext="shape" transform="translate(982.788 -166.718)"><v:textBlock v:margins="rect(4,4,4,4)"/><v:textRect cx="36.233" cy="209.914" width="72.47" height="52.703"/><path class="st2" d="M0 183.563h72.466v52.703H0z"/><text x="11.91" y="217.11" class="st5" v:langID="1033"><v:paragraph v:horizAlign="1"/><v:tabList/>2018</text></g><g id="shape1034-104" v:mID="1034" v:groupContext="shape" transform="rotate(90 652.984 655.006)"><path d="M0 236.27h82.35" class="st6"/></g><g id="shape1035-107" v:mID="1035" v:groupContext="shape" transform="translate(958.084 -76.959)"><v:textBlock v:margins="rect(4,4,4,4)" v:verticalAlign="0"/><v:textRect cx="60.938" cy="204.973" width="121.88" height="62.585"/><path class="st2" d="M0 173.681h121.875v62.585H0z"/><text x="18.87" y="190.28" class="st3" v:langID="1033"><v:paragraph v:horizAlign="1"/><v:tabList/>System Center<v:newlineChar/><tspan x="28.52" dy="1.2em" class="st4">Operations </tspan><tspan x="19.05" dy="1.2em" class="st4">Manager 1801</tspan></text></g><g id="shape1036-112" v:mID="1036" v:groupContext="shape" transform="translate(978.671 -.375)"><v:textBlock v:margins="rect(4,4,4,4)" v:verticalAlign="0"/><v:textRect cx="40.351" cy="204.973" width="80.71" height="62.585"/><path class="st2" d="M0 173.681h80.701v62.585H0z"/><text x="25.14" y="190.28" class="st3" v:langID="1033"><v:paragraph v:horizAlign="1"/><v:tabList/>Azure<v:newlineChar/><tspan x="16.32" dy="1.2em" class="st4">Monitor </tspan><tspan x="17.13" dy="1.2em" class="st4">rebrand</tspan></text></g></g></svg>