<svg aria-labelledby="digital-media-live-stream" height="353.645" viewBox="0 0 814.247 353.645" width="814.247" xmlns="http://www.w3.org/2000/svg"><title id="digital-media-live-stream">Live streaming digital media</title><desc>A live streaming solution allows you to capture video in real-time and broadcast it to consumers in real time, such as streaming interviews, conferences, and sporting events online. In this solution, video is captured by a video camera and sent to a channel input endpoint. The channel receives the live input stream and makes it available for streaming through a streaming endpoint to a web browser or mobile app. The channel also provides a preview monitoring endpoint to preview and validate your stream before further processing and delivery. The channel can also record and store the ingested content in order to be streamed later (video-on-demand).</desc><rect fill="#ededee" height="124" opacity="0.5" width="156" x="129.255" y="103.645"></rect><line fill="none" stroke="#b5b6b6" stroke-miterlimit="10" stroke-width="1.5" x1="115.167" x2="68.163" y1="161.73" y2="161.73"></line><polygon fill="#b5b6b6" points="113.744 156.868 122.163 161.73 113.744 166.591 113.744 156.868"></polygon><line fill="none" stroke="#b5b6b6" stroke-miterlimit="10" stroke-width="1.5" x1="214.167" x2="194.163" y1="161.73" y2="161.73"></line><polygon fill="#b5b6b6" points="212.744 156.868 221.163 161.73 212.744 166.591 212.744 156.868"></polygon><polyline fill="none" points="327.259 291.028 314.163 291.223 314.163 161.73 292.163 161.73" stroke="#b5b6b6" stroke-miterlimit="10" stroke-width="1.5"></polyline><polygon fill="#b5b6b6" points="325.765 286.188 334.255 290.924 325.909 295.911 325.765 286.188"></polygon><line fill="none" stroke="#b5b6b6" stroke-miterlimit="10" stroke-width="1.5" x1="423.167" x2="403.163" y1="161.73" y2="161.73"></line><polygon fill="#b5b6b6" points="421.744 156.868 430.163 161.73 421.744 166.591 421.744 156.868"></polygon><line fill="none" stroke="#b5b6b6" stroke-miterlimit="10" stroke-width="1.5" x1="370.163" x2="370.163" y1="233.727" y2="260.73"></line><polygon fill="#b5b6b6" points="365.302 235.149 370.163 226.73 375.025 235.149 365.302 235.149"></polygon><line fill="none" stroke="#b5b6b6" stroke-miterlimit="10" stroke-width="1.5" x1="504.167" x2="485.163" y1="161.73" y2="161.73"></line><polygon fill="#b5b6b6" points="502.744 156.868 511.163 161.73 502.744 166.591 502.744 156.868"></polygon><line fill="none" stroke="#b5b6b6" stroke-miterlimit="10" stroke-width="1.5" x1="628.163" x2="606.163" y1="161.73" y2="161.73"></line><line fill="none" stroke="#b5b6b6" stroke-miterlimit="10" stroke-width="1.5" x1="627.557" x2="627.557" y1="96.227" y2="242.233"></line><polygon fill="#b5b6b6" points="622.696 97.649 627.557 89.23 632.419 97.649 622.696 97.649"></polygon><polygon fill="#b5b6b6" points="622.696 240.81 627.557 249.23 632.419 240.81 622.696 240.81"></polygon><polyline fill="none" points="666.255 15.73 767.473 15.73 767.473 114.649" stroke="#b5b6b6" stroke-miterlimit="10" stroke-width="1.5"></polyline><polygon fill="#b5b6b6" points="762.611 113.226 767.473 121.645 772.335 113.226 762.611 113.226"></polygon><polyline fill="none" points="673.252 30.73 752.473 30.73 752.473 121.645" stroke="#b5b6b6" stroke-miterlimit="10" stroke-width="1.5"></polyline><polygon fill="#b5b6b6" points="674.675 35.591 666.255 30.73 674.675 25.868 674.675 35.591"></polygon><polyline fill="none" points="666.255 296.353 767.473 296.353 767.473 233.434" stroke="#b5b6b6" stroke-miterlimit="10" stroke-width="1.5"></polyline><polygon fill="#b5b6b6" points="772.335 234.857 767.473 226.438 762.611 234.857 772.335 234.857"></polygon><polyline fill="none" points="124.318 296.353 204.142 296.353 204.142 233.434" stroke="#b5b6b6" stroke-miterlimit="10" stroke-width="1.5"></polyline><polygon fill="#b5b6b6" points="209.004 234.857 204.142 226.438 199.281 234.857 209.004 234.857"></polygon><polyline fill="none" points="34.721 216.818 34.721 296.642 74.354 296.642" stroke="#b5b6b6" stroke-miterlimit="10" stroke-width="1.5"></polyline><polyline fill="none" points="673.252 281.353 752.473 281.353 752.473 226.438" stroke="#b5b6b6" stroke-miterlimit="10" stroke-width="1.5"></polyline><polygon fill="#b5b6b6" points="674.675 286.215 666.255 281.353 674.675 276.492 674.675 286.215"></polygon><text fill="#5e5e5e" font-family="SegoeUI, Segoe UI" font-size="10" transform="translate(682.417 10.551)"><tspan letter-spacing="-0.098em">T</tspan><tspan x="4.263" y="0">oken</tspan></text><text fill="#5e5e5e" font-family="SegoeUI, Segoe UI" font-size="10" transform="translate(682.417 309.646)"><tspan letter-spacing="-0.098em">T</tspan><tspan x="4.263" y="0">oken</tspan></text><text fill="#5e5e5e" font-family="SegoeUI, Segoe UI" font-size="10" transform="translate(684.993 44.146)">License/<tspan letter-spacing="-0.013em" x="36.006" y="0">K</tspan><tspan x="41.675" y="0">ey</tspan></text><text fill="#5e5e5e" font-family="SegoeUI, Segoe UI" font-size="10" transform="translate(684.993 275.271)">License/<tspan letter-spacing="-0.013em" x="36.006" y="0">K</tspan><tspan x="41.675" y="0">ey</tspan></text><text fill="#5e5e5e" font-family="SegoeUI, Segoe UI" font-size="10" transform="translate(189.709 117.646)">Channel</text><polyline fill="none" points="187.061 19.897 155.057 19.897 155.057 101.836" stroke="#b5b6b6" stroke-miterlimit="10" stroke-width="1.5"></polyline><polygon fill="#b5b6b6" points="185.638 15.035 194.057 19.897 185.638 24.759 185.638 15.035"></polygon><path d="M242.405,178.893a2.6,2.6,0,0,0,1.528,2.306l1.944-4.667a2.6,2.6,0,0,0-.944-.167A2.485,2.485,0,0,0,242.405,178.893Z" fill="none" transform="translate(-2.03 -0.127)"></path><path d="M242.405,178.893a2.5,2.5,0,0,1,2.528-2.528,2.6,2.6,0,0,1,.944.167l1.306-3.139-.583-.25-.833-2.25h-1.778l-.111.25-.639,1.944-1.25.528-2.056-1-1.25,1.306.111.25.944,1.833-.528,1.25-2.194.778v1.833l.25.056,1.944.639.528,1.25-1,2.056,1.306,1.306.25-.111,1.833-.944.528.25,1.306-3.139A2.648,2.648,0,0,1,242.405,178.893Z" fill="#fff" opacity="0.25" style="isolation:isolate" transform="translate(-2.03 -0.127)"></path><rect fill="#9fa0a2" height="19.726" width="30.162" x="12.599" y="152.012"></rect><circle cx="18.581" cy="142.636" fill="#9fa0a2" r="8.753"></circle><circle cx="36.78" cy="142.636" fill="#9fa0a2" r="8.753"></circle><polygon fill="#9fa0a2" points="56.709 171.229 42.985 166.853 42.985 156.062 56.709 151.685 56.709 171.229"></polygon><polygon fill="#9fa0a2" points="19.62 193.277 16.994 193.277 22.1 172.677 26.914 172.677 19.62 193.277"></polygon><polygon fill="#9fa0a2" points="36.433 193.277 39.059 193.277 33.953 172.677 29.139 172.677 36.433 193.277"></polygon><text fill="#5e5e5e" font-family="SegoeUI, Segoe UI" font-size="12" transform="translate(0 212.609)">Live Source</text><text fill="#5e5e5e" font-family="SegoeUI, Segoe UI" font-size="12" transform="translate(706.787 200.2)">Cloud DRM License/<tspan letter-spacing="-0.013em" x="5.282" y="14.4">K</tspan><tspan x="12.085" y="14.4">ey Delivery Serve</tspan></text><path d="M784.9,160.873a22.453,22.453,0,0,0-8.8-17.8v.7a13.743,13.743,0,0,1-1.5,6.1,16.294,16.294,0,1,1-28.4,10.9,16.426,16.426,0,0,1,4.7-11.5,13.161,13.161,0,0,1-1.3-5.6,5.7,5.7,0,0,1,.1-1.3,22.44,22.44,0,1,0,35.2,18.5Z" fill="#7fbb42" transform="translate(-2.03 -0.127)"></path><path d="M762.8,133.273a10.31,10.31,0,0,0-2.9,20.2v10.2h-4.8v5.2h4.8v3.8h5.7v-19.3a10.23,10.23,0,0,0,7.4-9.9A10.115,10.115,0,0,0,762.8,133.273Zm0,5.4a4.9,4.9,0,1,1-4.9,4.9A4.908,4.908,0,0,1,762.8,138.673Z" fill="#fbd118" transform="translate(-2.03 -0.127)"></path><text fill="#5e5e5e" font-family="SegoeUI, Segoe UI" font-size="12" transform="translate(341.735 200.199)"><tspan letter-spacing="-0.032em">S</tspan><tspan x="5.988" y="0">treaming</tspan><tspan x="2.965" y="14.4">Endpoint</tspan></text><path d="M393.619,175.5a5.52,5.52,0,0,1-5.52,5.52h-34.96a5.52,5.52,0,0,1-5.52-5.52v-34.96a5.52,5.52,0,0,1,5.52-5.52H388.1a5.52,5.52,0,0,1,5.52,5.52Z" fill="#5bb4da" transform="translate(-2.03 -0.127)"></path><path d="M360.5,181.023h-7.36a5.52,5.52,0,0,1-5.52-5.52v-34.96a5.52,5.52,0,0,1,5.52-5.52h31.28Z" fill="#fff" opacity="0.15" style="isolation:isolate" transform="translate(-2.03 -0.127)"></path><path d="M362.339,170.29V145.757l19.6,12.279Z" fill="#fff" transform="translate(-2.03 -0.127)"></path><rect fill="#b9539f" height="88.048" opacity="0" width="55.184" x="340.882" y="131.108"></rect><text fill="#5e5e5e" font-family="SegoeUI, Segoe UI" font-size="12" transform="translate(418.216 200.199)">Multi-Protocol<tspan x="15.422" y="14.4">Dynamic</tspan><tspan letter-spacing="-0.034em" x="9.105" y="28.8">P</tspan><tspan x="15.416" y="28.8">ackaging/</tspan><tspan x="9.067" y="43.2">Multi-DRM</tspan></text><path d="M472.472,157.336h0v-1.671a12.434,12.434,0,0,0-3.342-8.658c-1.975-2.278-6.379-3.721-9.645-3.721s-7.67,1.443-9.645,3.721a12.785,12.785,0,0,0-3.342,8.658v1.671h0l6,.683V156.5a9.68,9.68,0,0,1,1.823-5.772c1.139-1.291,3.569-1.9,5.164-1.975a7.7,7.7,0,0,1,5.164,1.975,7.253,7.253,0,0,1,1.823,4.86v2.43Z" fill="#3f3f3f" transform="translate(-2.03 -0.127)"></path><path d="M446.5,157.336h0c-2.962,0-4.025,1.747-4.025,4.025v15.872c0,1.975,1.215,4.025,3.493,4.025H473c2.582,0,3.493-2.05,3.493-4.025V161.361c0-2.05-.835-4.025-4.025-4.025H446.5Z" fill="#5bb4da" transform="translate(-2.03 -0.127)"></path><polygon fill="#fff" points="454.699 162.905 463.053 168.461 454.699 174.016 454.699 162.905"></polygon><path d="M466.4,157.336H446.5c-2.962,0-4.025,1.747-4.025,4.025v15.872c0,1.975,1.215,4.025,3.493,4.025h5.088Z" fill="#fff" opacity="0.15" style="isolation:isolate" transform="translate(-2.03 -0.127)"></path><text fill="#5e5e5e" font-family="SegoeUI, Segoe UI" font-size="12" transform="translate(531.701 200.609)">Azure CDN</text><path d="M576.711,158.359h-39.9a3.009,3.009,0,0,1-3-3h0a3.009,3.009,0,0,1,3-3h39.9a3.009,3.009,0,0,1,3,3h0A3.009,3.009,0,0,1,576.711,158.359Z" fill="#7c7b7b" transform="translate(-2.03 -0.127)"></path><path d="M568.611,183.409h-36.9a3.009,3.009,0,0,1-3-3h0a3.009,3.009,0,0,1,3-3h36.9a3.009,3.009,0,0,1,3,3h0A3.009,3.009,0,0,1,568.611,183.409Z" fill="#7c7b7b" transform="translate(-2.03 -0.127)"></path><path d="M564.261,171.259h-36.9a3.009,3.009,0,0,1-3-3h0a3.009,3.009,0,0,1,3-3h36.9a3.009,3.009,0,0,1,3,3h0A3.009,3.009,0,0,1,564.261,171.259Z" fill="#7c7b7b" transform="translate(-2.03 -0.127)"></path><path d="M599.361,176.959a6.371,6.371,0,0,0-6.3-6.45h-.9a20.411,20.411,0,0,0,.6-4.5,16.869,16.869,0,0,0-16.8-16.8,17.071,17.071,0,0,0-15.9,11.4,15.081,15.081,0,0,0-3.75-.6,11.7,11.7,0,0,0,0,23.4h37.05a6.626,6.626,0,0,0,6-6.45" fill="#3999c7" transform="translate(-2.03 -0.127)"></path><path d="M562.311,183.259a10.682,10.682,0,0,1-3.15-5.7,11.275,11.275,0,0,1,12.45-13.95,16.334,16.334,0,0,1,9.45-13.5,19.139,19.139,0,0,0-5.1-.9,17.071,17.071,0,0,0-15.9,11.4,15.081,15.081,0,0,0-3.75-.6,11.7,11.7,0,0,0,0,23.4h0l6-.15Z" fill="#fff" opacity="0.2" style="isolation:isolate" transform="translate(-2.03 -0.127)"></path><rect fill="#b9539f" height="55" opacity="0" width="75.26" x="522.882" y="147.071"></rect><text fill="#5e5e5e" font-family="SegoeUI, Segoe UI" font-size="12" transform="translate(341.327 331.527)">Azure Blob<tspan letter-spacing="-0.032em" x="8.429" y="14.4">S</tspan><tspan x="14.417" y="14.4">torage</tspan></text><path d="M347.138,310.551a1.88,1.88,0,0,0,1.8,1.9h46.3a1.9,1.9,0,0,0,1.9-1.9v-33.1h-50Z" fill="#9fa0a2" transform="translate(-2.03 -0.127)"></path><path d="M395.238,269.751h-46.3a1.88,1.88,0,0,0-1.8,1.9v5.7h50v-5.7a1.9,1.9,0,0,0-1.9-1.9" fill="#7c7b7b" transform="translate(-2.03 -0.127)"></path><rect fill="#2272b9" height="13" width="20.4" x="348.808" y="280.724"></rect><rect fill="#2272b9" height="13" width="20.4" x="348.808" y="295.524"></rect><rect fill="#fff" height="13" width="20.3" x="371.008" y="280.724"></rect><rect fill="#2272b9" height="13" width="20.3" x="371.008" y="295.524"></rect><path d="M349.138,269.751a2.006,2.006,0,0,0-2,2v38.6a2.006,2.006,0,0,0,2,2h2.2l39.4-42.6Z" fill="#fff" opacity="0.2" style="isolation:isolate" transform="translate(-2.03 -0.127)"></path><rect fill="#b9539f" height="85.282" opacity="0" width="68.963" x="339.907" y="268.363"></rect><path d="M231.065,39.723h-13.6c1.6,5.8-.6,6.6-10.2,6.6v3h32.6v-3c-9.5,0-10.4-.8-8.8-6.6" fill="#7c7b7b" transform="translate(-2.03 -0.127)"></path><path d="M245.665,2.023h-44.3a2.866,2.866,0,0,0-2.7,2.9v32a2.775,2.775,0,0,0,2.7,2.8h44.3a3.045,3.045,0,0,0,3-2.8v-32a3.134,3.134,0,0,0-3-2.9m-.8,3.9v29.9h-42.4V5.923l42.4-.1Z" fill="#9fa0a2" transform="translate(-2.03 -0.127)"></path><polygon fill="#5bb4da" points="242.835 35.695 200.435 35.695 200.435 5.795 242.835 5.695 242.835 35.695"></polygon><path d="M202.465,35.823h0V5.923l38.7-.1,4.5-3.8h-44.3a2.866,2.866,0,0,0-2.7,2.9v32a2.775,2.775,0,0,0,2.7,2.8h1.1l4.6-3.8h-4.6Z" fill="#fff" opacity="0.2" style="isolation:isolate" transform="translate(-2.03 -0.127)"></path><polygon fill="#5bb4da" points="200.435 35.695 200.435 35.695 200.435 5.795 239.135 5.695 239.135 5.695 200.435 5.795 200.435 35.695"></polygon><rect fill="#9fa0a2" height="3" width="32.7" x="205.335" y="46.195"></rect><path d="M217.253,21.223l-.5-.5a.446.446,0,0,1,0-.5l1.4-1.2c0-.1.1-.1.2-.1s.2,0,.2.1l3.7,4,6.4-8.1a.367.367,0,0,1,.3-.1c.1,0,.1,0,.2.1l1.5,1c.1.1.1.1.1.2s0,.2-.1.2l-8.3,10.5Z" fill="#fff" transform="translate(-2.03 -0.127)"></path><text fill="#5e5e5e" font-family="SegoeUI, Segoe UI" font-size="12" transform="translate(201.3 64.421)">Preview<tspan x="-9.384" y="14.4">Monitoring</tspan></text><rect fill="#b9539f" height="82.912" opacity="0" width="59.634" x="191.346" y="0.734"></rect><path d="M604.286,44.526a2.007,2.007,0,0,0,2.007,2.007h45.986a2.007,2.007,0,0,0,2.007-2.007V13.2h-50Z" fill="#5bb4da" transform="translate(-2.03 -0.127)"></path><path d="M652.279,3.9H606.293a2.006,2.006,0,0,0-2.007,2.007V16.533h50V5.906A2.007,2.007,0,0,0,652.279,3.9" fill="#9fa0a2" transform="translate(-2.03 -0.127)"></path><path d="M606.3,3.9a2.007,2.007,0,0,0-2.007,2.007v38.62a2.008,2.008,0,0,0,2.007,2.007h2.188L647.906,3.9Z" fill="#fff" opacity="0.2" style="isolation:isolate" transform="translate(-2.03 -0.127)"></path><rect fill="#fff" height="3.942" width="33.671" x="615.112" y="8.551"></rect><path d="M615.6,10.582A4.878,4.878,0,1,1,610.718,5.7a4.879,4.879,0,0,1,4.878,4.879" fill="#5bb4da" transform="translate(-2.03 -0.127)"></path><polygon fill="#fff" points="608.171 11.004 610.384 13.34 609.183 13.34 606.224 10.522 609.172 7.704 610.37 7.704 608.171 10.026 613.564 10.026 613.564 11.004 608.171 11.004"></polygon><text fill="#5e5e5e" font-family="SegoeUI, Segoe UI" font-size="12" transform="translate(576.261 64.646)">Azure Media Player<tspan x="23.408" y="14.4">in Browser</tspan></text><circle cx="627.557" cy="30.73" fill="#5bb4da" r="11.52"></circle><path d="M621.442,39a11.52,11.52,0,1,1,16.292-16.292Z" fill="#fff" opacity="0.15" style="isolation:isolate" transform="translate(-2.03 -0.127)"></path><polygon fill="#fff" points="624.873 35.663 624.891 25.796 632.755 30.735 624.873 35.663"></polygon><path d="M629.588,21.08a9.778,9.778,0,1,1-9.778,9.778,9.778,9.778,0,0,1,9.778-9.778m0-2.222a12,12,0,1,0,12,12,12.014,12.014,0,0,0-12-12Z" fill="#3f3f3f" transform="translate(-2.03 -0.127)"></path><rect fill="#b9539f" height="84.23" opacity="0" width="101.871" x="575.384"></rect><text fill="#5e5e5e" font-family="SegoeUI, Segoe UI" font-size="12" transform="translate(575.986 331.846)">Azure Media Player<tspan x="13.512" y="14.4">in Mobile App</tspan></text><path d="M646.508,308.751a3,3,0,0,1-3,3H615.063a3,3,0,0,1-3-3v-44a3,3,0,0,1,3-3h28.445a3,3,0,0,1,3,3Z" fill="#3f3f3f" transform="translate(-2.03 -0.127)"></path><rect fill="#5bb4da" height="35.222" width="30" x="612.257" y="266.624"></rect><path d="M632.175,306.861a2.889,2.889,0,1,1-2.89-2.889,2.889,2.889,0,0,1,2.89,2.889" fill="#fff" transform="translate(-2.03 -0.127)"></path><path d="M631.18,306.861a1.894,1.894,0,1,1-1.9-1.894,1.9,1.9,0,0,1,1.9,1.894" fill="#b8d433" transform="translate(-2.03 -0.127)"></path><path d="M614.286,301.973V266.751h22.767l2.031-5H615.063a3,3,0,0,0-3,3v44a3,3,0,0,0,3,3h3.695l3.974-9.778Z" fill="#fff" opacity="0.15" style="isolation:isolate" transform="translate(-2.03 -0.127)"></path><path d="M634.4,264.568a.737.737,0,0,1-.738.738h-8.744a.739.739,0,1,1,0-1.477h8.744a.738.738,0,0,1,.738.739" fill="#1e1e1e" transform="translate(-2.03 -0.127)"></path><path d="M634.4,264.568a.737.737,0,0,1-.738.738h-8.744a.739.739,0,1,1,0-1.477h8.744a.738.738,0,0,1,.738.739" fill="#fff" transform="translate(-2.03 -0.127)"></path><circle cx="627.557" cy="284.353" fill="#5bb4da" r="11.52"></circle><path d="M621.442,292.627a11.52,11.52,0,0,1,16.292-16.292Z" fill="#fff" opacity="0.15" style="isolation:isolate" transform="translate(-2.03 -0.127)"></path><polygon fill="#fff" points="624.873 289.287 624.891 279.42 632.755 284.359 624.873 289.287"></polygon><path d="M629.588,274.7a9.778,9.778,0,1,1-9.778,9.778,9.778,9.778,0,0,1,9.778-9.778m0-2.222a12,12,0,1,0,12,12,12.014,12.014,0,0,0-12-12Z" fill="#3f3f3f" transform="translate(-2.03 -0.127)"></path><rect fill="#b9539f" height="87" opacity="0" width="101.871" x="576.384" y="261.23"></rect><text fill="#5e5e5e" font-family="SegoeUI, Segoe UI" font-size="12" transform="translate(136.871 200.242)">Azure Live<tspan x="5.66" y="14.4">Encoder</tspan></text><path d="M175.726,174.584h-18.9a3.521,3.521,0,0,1,0-7.042h18.9A4.544,4.544,0,0,0,180.265,163V144.658a4.544,4.544,0,0,0-4.539-4.539h-18.9a3.521,3.521,0,0,1,0-7.042h18.9a11.594,11.594,0,0,1,11.581,11.581V163A11.594,11.594,0,0,1,175.726,174.584Z" fill="#3f3f3f" transform="translate(-2.03 -0.127)"></path><rect fill="#3f3f3f" height="1.76" width="19.056" x="149.049" y="178.72"></rect><rect fill="#3f3f3f" height="2.47" width="7.042" x="155.057" y="180.48"></rect><rect fill="#3f3f3f" height="40.489" width="1.76" x="157.697" y="139.992"></rect><rect fill="#618dc9" height="7.922" width="28.166" x="142.734" y="153.314"></rect><rect fill="#5bb4da" height="7.922" width="19.364" x="148.015" y="145.393"></rect><rect fill="#676767" height="2.641" width="7.042" x="155.057" y="142.752"></rect><rect fill="#676767" height="2.47" width="7.042" x="155.057" y="161.236"></rect><text fill="#5e5e5e" font-family="SegoeUI, Segoe UI" font-size="12" transform="translate(76.792 308.222)">3rd <tspan letter-spacing="-0.034em" x="20.994" y="0">P</tspan><tspan x="27.305" y="0">arty </tspan><tspan x="-8.382" y="14.4">On-Premises</tspan><tspan x="-8.036" y="28.8">Live Encoder</tspan></text><path d="M113.884,282.564h-18.9a3.521,3.521,0,0,1,0-7.042h18.9a4.544,4.544,0,0,0,4.539-4.539V252.638a4.544,4.544,0,0,0-4.539-4.539h-18.9a3.521,3.521,0,0,1,0-7.042h18.9a11.594,11.594,0,0,1,11.581,11.581v18.346A11.594,11.594,0,0,1,113.884,282.564Z" fill="#3f3f3f" transform="translate(-2.03 -0.127)"></path><rect fill="#3f3f3f" height="1.76" width="19.056" x="87.207" y="286.7"></rect><rect fill="#3f3f3f" height="2.47" width="7.042" x="93.215" y="288.46"></rect><rect fill="#3f3f3f" height="40.489" width="1.76" x="95.855" y="247.972"></rect><rect fill="#618dc9" height="7.922" width="28.166" x="80.892" y="261.294"></rect><rect fill="#5bb4da" height="7.922" width="19.364" x="86.173" y="253.373"></rect><rect fill="#676767" height="2.641" width="7.042" x="93.215" y="250.732"></rect><rect fill="#676767" height="2.47" width="7.042" x="93.215" y="269.216"></rect><text fill="#5e5e5e" font-family="SegoeUI, Segoe UI" font-size="12" transform="translate(224.204 200.242)">Program</text><path d="M262.683,173.615a20.546,20.546,0,0,1-25-32.611,20.892,20.892,0,0,1,12.5-4.194,20.507,20.507,0,0,1,12.5,36.806" fill="#5bb4da" transform="translate(-2.03 -0.127)"></path><path d="M266.488,159.809a4.243,4.243,0,0,0-.611-4.194,4.377,4.377,0,0,0-5.694-1.111c-2.111-1.889-4.389-4-6.806-6.389,7.306-4,12.5-3.611,12.806-3.611a19.151,19.151,0,0,0-3-3,21.688,21.688,0,0,0-13.694,2.611h0c-1.889-1.889-3.806-4-5.694-6.306a27.582,27.582,0,0,0-2.694,1.111,41.75,41.75,0,0,0,5.5,7h0a34.415,34.415,0,0,0-5.722,4.889c-.194.306-.5.5-.694.806a6.687,6.687,0,0,0-3.389.194A14.964,14.964,0,0,1,235.405,143c-.694.889-1.389,1.806-2.111,2.694a12.841,12.841,0,0,0,.806,8.194,6.168,6.168,0,0,0,0,7.5,1.436,1.436,0,0,0,.5.5A32.219,32.219,0,0,0,233.405,169c.194.306.306.5.5.806a21.252,21.252,0,0,0,3.306,3.389,22.953,22.953,0,0,1,1.389-9.306,5.905,5.905,0,0,0,2.889-.5c.5.5,1.111.889,1.694,1.389a32.665,32.665,0,0,0,6,3.806,3.869,3.869,0,0,0,.806,2.889,4.1,4.1,0,0,0,5.694.806,3.007,3.007,0,0,0,.889-1,35.929,35.929,0,0,0,7.889.806,22.18,22.18,0,0,0,2.5-2.889h0c.111-.111.111-.194.194-.306a20.7,20.7,0,0,1-10.111-.694,4.651,4.651,0,0,0-.694-1.611,3.932,3.932,0,0,0-5.389-.889,39.708,39.708,0,0,1-5.5-3.694c-.389-.306-.806-.611-1.111-.889a6.237,6.237,0,0,0,.306-6.194l.694-.694a58.042,58.042,0,0,1,5.444-4.306c2.583,2.389,5.278,4.583,7.778,6.583a4.125,4.125,0,0,0,.5,4.5,4.453,4.453,0,0,0,6.194.806l.306-.306c1.806,1.306,3.306,2.306,4.111,2.806a14.583,14.583,0,0,0,.5-1.806A34.491,34.491,0,0,1,266.488,159.809Z" fill="#fff" transform="translate(-2.03 -0.127)"></path><path d="M274.572,162.7l-.389.194-3.111,1.611-2.111-.889-1.306-3.694h-2.972l-.194.389-1.111,3.306-2.111.889-3.5-1.694L255.655,165l.194.389,1.611,3.111-.889,2.111-3.694,1.306v3.111l.389.111,3.306,1.111.889,2.111-1.667,3.444L257.988,184l.389-.194,3.111-1.611,2.111.889,1.306,3.694h3.111l.111-.389,1.111-3.306,2.111-.889,3.611,1.694,2.194-2.194-2-3.5.889-2.111,3.694-1.306v-2.972l-.389-.194-3.306-1.111-.889-2.111,1.5-3.194Zm-8.278,15a4.306,4.306,0,1,1,4.306-4.306A4.274,4.274,0,0,1,266.294,177.7Z" fill="#7c7b7b" transform="translate(-2.03 -0.127)"></path><path d="M261.988,173.42a4.395,4.395,0,0,0,2.611,3.889l3.306-7.889a4.321,4.321,0,0,0-5.917,4Z" fill="none" transform="translate(-2.03 -0.127)"></path><path d="M261.988,173.42a4.321,4.321,0,0,1,5.917-4l2.194-5.306-1-.389-1.389-3.806h-3.028l-.194.389-1.111,3.306-2.111.889-3.5-1.694L255.655,165l.194.389,1.611,3.111-.889,2.111-3.694,1.306v3.111l.389.111,3.306,1.111.889,2.111-1.667,3.444L257.988,184l.389-.194,3.111-1.611.889.389,2.194-5.306A4.3,4.3,0,0,1,261.988,173.42Z" fill="#fff" opacity="0.25" style="isolation:isolate" transform="translate(-2.03 -0.127)"></path><path d="M249.849,172.559l-.25.111-1.833.944-1.25-.528-.778-2.194h-1.778l-.111.25-.639,1.944-1.25.528-2.056-1-1.25,1.306.111.25.944,1.833-.528,1.25-2.194.778v1.833l.25.056,1.944.639.528,1.25-1,2.056,1.306,1.306.25-.111,1.833-.944,1.25.528.778,2.194h1.833l.056-.25.639-1.944,1.25-.528,2.139,1,1.306-1.306-1.194-2.056.528-1.25,2.194-.778v-1.778l-.25-.111-1.944-.639-.528-1.25.889-1.889Zm-4.917,8.861a2.528,2.528,0,1,1,2.528-2.528A2.5,2.5,0,0,1,244.933,181.42Z" fill="#7c7b7b" transform="translate(-2.03 -0.127)"></path><rect fill="#b9539f" height="70.97" opacity="0" width="53.625" x="224.083" y="134.676"></rect></svg>