<svg aria-labelledby="messaging" height="346px" viewBox="0 0 607 346" width="607px" xmlns="http://www.w3.org/2000/svg"><title id="messaging">Messaging</title><desc>Azure Cache for Redis supports standard publish and subscribe functionalities. Its ideal for routing real-time messages and scaling up web communication frameworks such as SignalR.</desc><g fill="none" fill-rule="evenodd"><path d="M137.5332 170.9503v-7.064l7.065 3.646zM250.599 167.92h77.384v-1.5h-77.384z" fill="#959595"></path><path d="M326.958 170.9503v-7.064l7.064 3.646zM448.138 167.92h42.337v-1.5h-42.337z" fill="#959595"></path><path d="M489.4492 170.9503v-7.064l7.065 3.646zM448.138 45.002h42.337v-1.5h-42.337z" fill="#959595"></path><path d="M489.4492 48.0333v-7.065l7.065 3.646zM207.5674 104.2081h-1.5v-60.706h121.916v1.5h-120.416zM327.9834 300.0177h-121.916v-66.476h1.5v64.976h120.416z" fill="#959595"></path><path d="M326.958 303.049v-7.065l7.064 3.646zM448.138 300.018h42.337v-1.5h-42.337z" fill="#959595"></path><path d="M489.4492 303.049v-7.065l7.065 3.646zM187.0146 100.2521h7.065l-3.646 7.065zM187.0146 239.1681h7.065l-3.646-7.065zM87.02 167.92h51.539v-1.5H87.02z" fill="#959595"></path><path d="M191.5459 101.2784h-1.5v-56.344H87.0199v-1.5h104.526zM191.5459 299.9855H87.0199v-1.5h103.026v-60.344h1.5z" fill="#959595"></path><path d="M368.8096 182.839l-1.538-4.177c-.05-.136-.101-.355-.15-.656h-.028c-.046.278-.097.497-.157.656l-1.524 4.177h3.397zm2.687 3.78h-1.272l-1.039-2.748h-4.156l-.978 2.748h-1.278l3.76-9.802h1.189l3.774 9.802zM377.6689 179.9406l-4.143 5.722h4.102v.957h-5.749v-.349l4.143-5.694h-3.753v-.957h5.4zM384.7783 186.6193h-1.121v-1.107h-.027c-.465.847-1.185 1.271-2.161 1.271-1.668 0-2.502-.993-2.502-2.98v-4.184h1.115v4.006c0 1.476.565 2.215 1.695 2.215.547 0 .997-.201 1.351-.606.352-.402.529-.93.529-1.582v-4.033h1.121v7zM390.6914 180.754c-.196-.15-.479-.226-.848-.226-.478 0-.879.226-1.199.677-.322.451-.482 1.067-.482 1.846v3.568h-1.121v-7h1.121v1.443h.027c.159-.493.403-.876.731-1.152.329-.276.696-.414 1.101-.414.292 0 .515.032.67.096v1.162zM396.2012 182.4493c-.005-.647-.161-1.15-.468-1.511-.308-.36-.735-.54-1.282-.54-.528 0-.978.19-1.347.568-.369.378-.596.873-.683 1.483h3.78zm1.148.95h-4.942c.019.779.228 1.381.629 1.805.401.424.952.636 1.654.636.788 0 1.513-.26 2.174-.78v1.053c-.615.446-1.429.67-2.44.67-.99 0-1.766-.318-2.331-.953-.566-.637-.848-1.53-.848-2.684 0-1.089.309-1.976.926-2.662.618-.686 1.384-1.029 2.301-1.029.916 0 1.625.296 2.125.889.501.592.752 1.415.752 2.467v.588zM407.9316 182.839l-1.538-4.177c-.05-.136-.101-.355-.15-.656h-.028c-.046.278-.097.497-.157.656l-1.524 4.177h3.397zm2.687 3.78h-1.272l-1.039-2.748h-4.156l-.978 2.748h-1.278l3.76-9.802h1.189l3.774 9.802zM413.209 177.8556v4.02h1.203c.793 0 1.399-.182 1.815-.543.418-.364.626-.874.626-1.536 0-1.294-.766-1.941-2.297-1.941h-1.347zm0 5.059v3.705h-1.148v-9.803h2.693c1.048 0 1.86.255 2.437.766.577.51.865 1.23.865 2.16 0 .929-.321 1.69-.96 2.283-.641.593-1.506.889-2.595.889h-1.292zM419.902 186.619h1.148v-9.803h-1.148zM358.4229 199.6388l-1.538-4.177c-.05-.136-.101-.355-.15-.656h-.028c-.046.278-.097.497-.157.656l-1.524 4.177h3.397zm2.687 3.78h-1.272l-1.039-2.748h-4.156l-.978 2.748h-1.278l3.76-9.802h1.189l3.774 9.802zM363.5225 199.5841v.978c0 .579.187 1.07.564 1.472.375.404.853.606 1.432.606.679 0 1.211-.26 1.596-.78.386-.519.578-1.242.578-2.167 0-.779-.18-1.389-.54-1.832-.36-.442-.848-.663-1.463-.663-.651 0-1.176.227-1.572.68-.397.454-.595 1.022-.595 1.706m.027 2.823h-.027v4.232h-1.121v-10.22h1.121v1.23h.027c.552-.929 1.359-1.394 2.42-1.394.903 0 1.607.313 2.113.939.505.627.758 1.467.758 2.52 0 1.171-.285 2.109-.854 2.812-.569.705-1.349 1.057-2.338 1.057-.907 0-1.606-.392-2.099-1.176M371.7529 199.5841v.978c0 .579.187 1.07.564 1.472.375.404.853.606 1.432.606.679 0 1.211-.26 1.596-.78.386-.519.578-1.242.578-2.167 0-.779-.18-1.389-.54-1.832-.36-.442-.848-.663-1.463-.663-.651 0-1.176.227-1.572.68-.397.454-.595 1.022-.595 1.706m.027 2.823h-.027v4.232h-1.121v-10.22h1.121v1.23h.027c.552-.929 1.359-1.394 2.42-1.394.903 0 1.607.313 2.113.939.505.627.758 1.467.758 2.52 0 1.171-.285 2.109-.854 2.812-.569.705-1.349 1.057-2.338 1.057-.907 0-1.606-.392-2.099-1.176M382.848 203.419h1.148v-9.803h-1.148zM392.2334 203.4191h-1.121v-3.992c0-1.486-.542-2.229-1.627-2.229-.561 0-1.024.211-1.391.633-.367.421-.55.953-.55 1.596v3.992h-1.122v-7h1.122v1.162h.027c.528-.884 1.294-1.326 2.297-1.326.765 0 1.351.247 1.757.742.405.494.608 1.208.608 2.143v4.279zM393.9219 203.1661v-1.203c.61.451 1.283.677 2.017.677.984 0 1.476-.328 1.476-.985 0-.186-.042-.345-.126-.474-.085-.131-.199-.245-.342-.346-.144-.101-.312-.19-.505-.27-.195-.08-.403-.163-.626-.25-.31-.123-.582-.247-.818-.373-.234-.125-.43-.265-.588-.423-.156-.157-.275-.336-.355-.537-.079-.2-.119-.435-.119-.704 0-.328.075-.619.225-.871.151-.254.351-.465.602-.637.251-.169.536-.298.858-.385.321-.087.653-.13.994-.13.607 0 1.149.104 1.627.314v1.135c-.514-.337-1.107-.506-1.777-.506-.21 0-.398.024-.567.072-.169.047-.314.115-.435.202-.12.087-.214.19-.279.31-.067.121-.1.255-.1.401 0 .182.033.335.1.458.065.123.162.232.29.328.128.095.282.182.465.259.182.078.389.163.622.253.309.119.588.241.834.366.246.126.456.267.629.423.172.159.306.339.4.544.093.206.14.45.14.732 0 .347-.077.647-.23.902-.152.255-.356.467-.611.636-.255.169-.549.294-.882.376-.333.082-.682.123-1.046.123-.72 0-1.345-.139-1.873-.417M403.5332 203.3507c-.265.146-.613.219-1.046.219-1.225 0-1.839-.684-1.839-2.051v-4.143h-1.203v-.957h1.203v-1.709l1.121-.362v2.071h1.764v.957h-1.764v3.945c0 .469.08.804.24 1.005.159.2.423.3.793.3.282 0 .526-.077.731-.232v.957zM408.9199 199.8781l-1.688.232c-.52.074-.912.202-1.176.387-.265.184-.397.511-.397.981 0 .341.122.621.365.838.245.215.57.324.975.324.556 0 1.016-.196 1.377-.584.363-.391.544-.884.544-1.481v-.697zm1.121 3.541h-1.121v-1.094h-.027c-.488.839-1.205 1.258-2.154 1.258-.697 0-1.243-.184-1.636-.554-.395-.369-.592-.859-.592-1.469 0-1.308.77-2.07 2.31-2.284l2.099-.294c0-1.189-.48-1.784-1.442-1.784-.843 0-1.605.287-2.284.862v-1.149c.689-.437 1.482-.656 2.379-.656 1.646 0 2.468.87 2.468 2.611v4.553zM417.9639 203.4191h-1.121v-3.992c0-1.486-.542-2.229-1.627-2.229-.561 0-1.024.211-1.391.633-.367.421-.55.953-.55 1.596v3.992h-1.122v-7h1.122v1.162h.027c.528-.884 1.294-1.326 2.297-1.326.765 0 1.351.247 1.757.742.405.494.608 1.208.608 2.143v4.279zM424.8477 203.0978c-.538.323-1.176.485-1.914.485-.998 0-1.804-.324-2.416-.974-.613-.649-.92-1.491-.92-2.526 0-1.153.33-2.079.991-2.779.661-.699 1.543-1.049 2.646-1.049.615 0 1.157.114 1.627.342v1.148c-.52-.364-1.076-.546-1.668-.546-.716 0-1.303.255-1.76.769-.459.512-.688 1.186-.688 2.02 0 .82.215 1.467.647 1.941.43.474 1.008.711 1.732.711.611 0 1.185-.203 1.723-.608v1.066zM431.0205 199.2491c-.005-.647-.161-1.15-.468-1.511-.308-.36-.735-.54-1.282-.54-.528 0-.978.19-1.347.568-.369.378-.596.873-.683 1.483h3.78zm1.148.95h-4.942c.019.779.228 1.381.629 1.805.401.424.952.636 1.654.636.788 0 1.513-.26 2.174-.78v1.053c-.615.446-1.429.67-2.44.67-.99 0-1.766-.318-2.331-.953-.566-.637-.848-1.53-.848-2.684 0-1.089.309-1.976.926-2.662.618-.686 1.384-1.029 2.301-1.029.916 0 1.625.296 2.125.889.501.592.752 1.415.752 2.467v.588zM368.5801 321.9972l-1.538-4.177c-.05-.136-.101-.355-.15-.656h-.028c-.046.278-.097.497-.157.656l-1.524 4.177h3.397zm2.687 3.78h-1.272l-1.039-2.748h-4.156l-.978 2.748h-1.278l3.76-9.802h1.189l3.774 9.802zM377.4395 319.0988l-4.143 5.722h4.102v.957h-5.749v-.349l4.143-5.694h-3.753v-.957h5.4zM384.5488 325.7775h-1.121v-1.107h-.027c-.465.847-1.185 1.271-2.161 1.271-1.668 0-2.502-.993-2.502-2.98v-4.184h1.115v4.006c0 1.476.565 2.215 1.695 2.215.547 0 .997-.201 1.351-.606.352-.402.529-.93.529-1.582v-4.033h1.121v7zM390.4619 319.9122c-.196-.15-.479-.226-.848-.226-.478 0-.879.226-1.199.677-.322.451-.482 1.067-.482 1.846v3.568h-1.121v-7h1.121v1.443h.027c.159-.493.403-.876.731-1.152.329-.276.696-.414 1.101-.414.292 0 .515.032.67.096v1.162zM395.9717 321.6075c-.005-.647-.161-1.15-.468-1.511-.308-.36-.735-.54-1.282-.54-.528 0-.978.19-1.347.568-.369.378-.596.873-.683 1.483h3.78zm1.148.95h-4.942c.019.779.228 1.381.629 1.805.401.424.952.636 1.654.636.788 0 1.513-.26 2.174-.78v1.053c-.615.446-1.429.67-2.44.67-.99 0-1.766-.318-2.331-.953-.566-.637-.848-1.53-.848-2.684 0-1.089.309-1.976.926-2.662.618-.686 1.384-1.029 2.301-1.029.916 0 1.625.296 2.125.889.501.592.752 1.415.752 2.467v.588zM407.7021 321.9972l-1.538-4.177c-.05-.136-.101-.355-.15-.656h-.028c-.046.278-.097.497-.157.656l-1.524 4.177h3.397zm2.687 3.78h-1.272l-1.039-2.748h-4.156l-.978 2.748h-1.278l3.76-9.802h1.189l3.774 9.802zM412.9795 317.0138v4.02h1.203c.793 0 1.399-.182 1.815-.543.418-.364.626-.874.626-1.536 0-1.294-.766-1.941-2.297-1.941h-1.347zm0 5.059v3.705h-1.148v-9.803h2.693c1.048 0 1.86.255 2.437.766.577.51.865 1.23.865 2.16 0 .929-.321 1.69-.96 2.283-.641.593-1.506.889-2.595.889h-1.292zM419.672 325.777h1.148v-9.803h-1.148zM358.1924 338.797l-1.538-4.177c-.05-.136-.101-.355-.15-.656h-.028c-.046.278-.097.497-.157.656l-1.524 4.177h3.397zm2.687 3.78h-1.272l-1.039-2.748h-4.156l-.978 2.748h-1.278l3.76-9.802h1.189l3.774 9.802zM363.292 338.7423v.978c0 .579.187 1.07.564 1.472.375.404.853.606 1.432.606.679 0 1.211-.26 1.596-.78.386-.519.578-1.242.578-2.167 0-.779-.18-1.389-.54-1.832-.36-.442-.848-.663-1.463-.663-.651 0-1.176.227-1.572.68-.397.454-.595 1.022-.595 1.706m.027 2.823h-.027v4.232h-1.121v-10.22h1.121v1.23h.027c.552-.929 1.359-1.394 2.42-1.394.903 0 1.607.313 2.113.939.505.627.758 1.467.758 2.52 0 1.171-.285 2.109-.854 2.812-.569.705-1.349 1.057-2.338 1.057-.907 0-1.606-.392-2.099-1.176M371.5225 338.7423v.978c0 .579.187 1.07.564 1.472.375.404.853.606 1.432.606.679 0 1.211-.26 1.596-.78.386-.519.578-1.242.578-2.167 0-.779-.18-1.389-.54-1.832-.36-.442-.848-.663-1.463-.663-.651 0-1.176.227-1.572.68-.397.454-.595 1.022-.595 1.706m.027 2.823h-.027v4.232h-1.121v-10.22h1.121v1.23h.027c.552-.929 1.359-1.394 2.42-1.394.903 0 1.607.313 2.113.939.505.627.758 1.467.758 2.52 0 1.171-.285 2.109-.854 2.812-.569.705-1.349 1.057-2.338 1.057-.907 0-1.606-.392-2.099-1.176M382.618 342.577h1.148v-9.803h-1.148zM392.0029 342.5773h-1.121v-3.992c0-1.486-.542-2.229-1.627-2.229-.561 0-1.024.211-1.391.633-.367.421-.55.953-.55 1.596v3.992h-1.122v-7h1.122v1.162h.027c.528-.884 1.294-1.326 2.297-1.326.765 0 1.351.247 1.757.742.405.494.608 1.208.608 2.143v4.279zM393.6914 342.3243v-1.203c.61.451 1.283.677 2.017.677.984 0 1.476-.328 1.476-.985 0-.186-.042-.345-.126-.474-.085-.131-.199-.245-.342-.346-.144-.101-.312-.19-.505-.27-.195-.08-.403-.163-.626-.25-.31-.123-.582-.247-.818-.373-.234-.125-.43-.265-.588-.423-.156-.157-.275-.336-.355-.537-.079-.2-.119-.435-.119-.704 0-.328.075-.619.225-.871.151-.254.351-.465.602-.637.251-.169.536-.298.858-.385.321-.087.653-.13.994-.13.607 0 1.149.104 1.627.314v1.135c-.514-.337-1.107-.506-1.777-.506-.21 0-.398.024-.567.072-.169.047-.314.115-.435.202-.12.087-.214.19-.279.31-.067.121-.1.255-.1.401 0 .182.033.335.1.458.065.123.162.232.29.328.128.095.282.182.465.259.182.078.389.163.622.253.309.119.588.241.834.366.246.126.456.267.629.423.172.159.306.339.4.544.093.206.14.45.14.732 0 .347-.077.647-.23.902-.152.255-.356.467-.611.636-.255.169-.549.294-.882.376-.333.082-.682.123-1.046.123-.72 0-1.345-.139-1.873-.417M403.3027 342.5089c-.265.146-.613.219-1.046.219-1.225 0-1.839-.684-1.839-2.051v-4.143h-1.203v-.957h1.203v-1.709l1.121-.362v2.071h1.764v.957h-1.764v3.945c0 .469.08.804.24 1.005.159.2.423.3.793.3.282 0 .526-.077.731-.232v.957zM408.6895 339.0363l-1.688.232c-.52.074-.912.202-1.176.387-.265.184-.397.511-.397.981 0 .341.122.621.365.838.245.215.57.324.975.324.556 0 1.016-.196 1.377-.584.363-.391.544-.884.544-1.481v-.697zm1.121 3.541h-1.121v-1.094h-.027c-.488.839-1.205 1.258-2.154 1.258-.697 0-1.243-.184-1.636-.554-.395-.369-.592-.859-.592-1.469 0-1.308.77-2.07 2.31-2.284l2.099-.294c0-1.189-.48-1.784-1.442-1.784-.843 0-1.605.287-2.284.862v-1.149c.689-.437 1.482-.656 2.379-.656 1.646 0 2.468.87 2.468 2.611v4.553zM417.7334 342.5773h-1.121v-3.992c0-1.486-.542-2.229-1.627-2.229-.561 0-1.024.211-1.391.633-.367.421-.55.953-.55 1.596v3.992h-1.122v-7h1.122v1.162h.027c.528-.884 1.294-1.326 2.297-1.326.765 0 1.351.247 1.757.742.405.494.608 1.208.608 2.143v4.279zM424.6172 342.256c-.538.323-1.176.485-1.914.485-.998 0-1.804-.324-2.416-.974-.613-.649-.92-1.491-.92-2.526 0-1.153.33-2.079.991-2.779.661-.699 1.543-1.049 2.646-1.049.615 0 1.157.114 1.627.342v1.148c-.52-.364-1.076-.546-1.668-.546-.716 0-1.303.255-1.76.769-.459.512-.688 1.186-.688 2.02 0 .82.215 1.467.647 1.941.43.474 1.008.711 1.732.711.611 0 1.185-.203 1.723-.608v1.066zM430.79 338.4074c-.005-.647-.161-1.15-.468-1.511-.308-.36-.735-.54-1.282-.54-.528 0-.978.19-1.347.568-.369.378-.596.873-.683 1.483h3.78zm1.148.95h-4.942c.019.779.228 1.381.629 1.805.401.424.952.636 1.654.636.788 0 1.513-.26 2.174-.78v1.053c-.615.446-1.429.67-2.44.67-.99 0-1.766-.318-2.331-.953-.566-.637-.848-1.53-.848-2.684 0-1.089.309-1.976.926-2.662.618-.686 1.384-1.029 2.301-1.029.916 0 1.625.296 2.125.889.501.592.752 1.415.752 2.467v.588zM530.8945 185.1876l-2.769 9.803h-1.346l-2.017-7.164c-.087-.305-.139-.637-.157-.998h-.027c-.028.338-.087.666-.178.984l-2.03 7.178h-1.333l-2.872-9.803h1.265l2.085 7.52c.087.314.142.642.164.984h.034c.023-.24.094-.568.212-.984l2.167-7.52h1.101l2.078 7.574c.073.26.128.567.164.916h.027c.019-.236.08-.551.185-.943l2.003-7.547h1.244zM532.2 194.99h1.121v-7H532.2v7zm.574-8.777c-.2 0-.371-.068-.512-.205-.142-.137-.212-.309-.212-.52 0-.209.07-.382.212-.523.141-.139.312-.207.512-.207.205 0 .379.068.524.207.142.141.215.314.215.523 0 .202-.073.372-.215.514-.145.141-.319.211-.524.211zM541.4014 194.9904h-1.121v-3.992c0-1.485-.542-2.229-1.627-2.229-.561 0-1.024.211-1.391.633-.367.422-.55.953-.55 1.596v3.992h-1.122v-7h1.122v1.162h.027c.528-.883 1.294-1.326 2.297-1.326.765 0 1.351.248 1.757.742.405.494.608 1.209.608 2.143v4.279zM548.3672 191.8263v-1.033c0-.565-.187-1.043-.561-1.436-.374-.39-.847-.588-1.421-.588-.684 0-1.222.252-1.614.752-.391.502-.588 1.196-.588 2.078 0 .807.188 1.444.565 1.911.375.468.88.701 1.514.701.624 0 1.13-.225 1.521-.676.389-.451.584-1.022.584-1.709zm1.121 3.164h-1.121v-1.189h-.027c-.52.902-1.322 1.353-2.407 1.353-.879 0-1.582-.312-2.109-.939-.525-.627-.789-1.481-.789-2.561 0-1.156.292-2.084.875-2.781.583-.697 1.36-1.047 2.331-1.047.962 0 1.661.379 2.099 1.135h.027v-4.334h1.121v10.363zM554.7656 188.7697c-.72 0-1.29.246-1.709.734-.419.491-.629 1.166-.629 2.028 0 .83.212 1.484.636 1.963.424.478.991.716 1.702.716.725 0 1.281-.234 1.672-.703.389-.47.584-1.136.584-2.004 0-.875-.195-1.548-.584-2.023-.391-.473-.947-.711-1.672-.711m-.082 6.385c-1.034 0-1.86-.326-2.479-.981-.617-.654-.925-1.521-.925-2.601 0-1.176.321-2.094.964-2.754.642-.662 1.51-.992 2.604-.992 1.044 0 1.858.322 2.443.964.586.643.879 1.534.879 2.672 0 1.118-.315 2.012-.947 2.684-.631.672-1.478 1.008-2.539 1.008M568.7793 187.9904l-2.099 7h-1.162l-1.442-5.01c-.055-.191-.091-.408-.109-.65h-.028c-.014.164-.061.377-.143.637l-1.566 5.023h-1.121l-2.119-7h1.176l1.449 5.264c.046.16.077.369.096.629h.054c.014-.2.055-.414.123-.643l1.614-5.25h1.025l1.449 5.277c.046.17.08.379.103.629h.054c.009-.177.048-.386.117-.629l1.422-5.277h1.107zM569.6543 194.7384v-1.203c.61.451 1.283.676 2.017.676.984 0 1.476-.328 1.476-.985 0-.185-.042-.345-.126-.474-.085-.131-.199-.244-.342-.346-.144-.1-.312-.189-.505-.27-.195-.08-.403-.162-.626-.25-.31-.123-.582-.246-.818-.373-.234-.125-.43-.265-.588-.423-.156-.157-.275-.336-.355-.536-.079-.201-.119-.435-.119-.705 0-.328.075-.619.225-.871.151-.254.351-.465.602-.636.251-.17.536-.299.858-.385.321-.088.653-.131.994-.131.607 0 1.149.105 1.627.314v1.135c-.514-.336-1.107-.506-1.777-.506-.21 0-.398.024-.567.073-.169.046-.314.115-.435.201-.12.088-.214.191-.279.31-.067.121-.1.256-.1.401 0 .183.033.336.1.459.065.123.162.232.29.328.128.095.282.181.465.259.182.077.389.163.622.252.309.12.588.241.834.366.246.127.456.267.629.424.172.158.306.339.4.544.093.206.14.45.14.731 0 .348-.077.648-.23.902-.152.256-.356.467-.611.637-.255.168-.549.293-.882.375-.333.082-.682.123-1.046.123-.72 0-1.345-.139-1.873-.416M584.9053 191.2111l-1.538-4.178c-.05-.136-.101-.355-.15-.656h-.028c-.046.279-.097.498-.157.656l-1.524 4.178h3.397zm2.687 3.779h-1.272l-1.039-2.748h-4.156l-.978 2.748h-1.278l3.76-9.802h1.189l3.774 9.802zM590.0049 191.1564v.977c0 .58.187 1.07.564 1.472.375.405.853.606 1.432.606.679 0 1.211-.26 1.596-.78.386-.519.578-1.242.578-2.166 0-.779-.18-1.39-.54-1.832-.36-.443-.848-.664-1.463-.664-.651 0-1.176.227-1.572.68-.397.455-.595 1.023-.595 1.707m.027 2.822h-.027v4.233h-1.121v-10.221h1.121v1.23h.027c.552-.929 1.359-1.394 2.42-1.394.903 0 1.607.314 2.113.939.505.627.758 1.467.758 2.52 0 1.172-.285 2.109-.854 2.812-.569.705-1.349 1.057-2.338 1.057-.907 0-1.606-.391-2.099-1.176M598.2354 191.1564v.977c0 .58.187 1.07.564 1.472.375.405.853.606 1.432.606.679 0 1.211-.26 1.596-.78.386-.519.578-1.242.578-2.166 0-.779-.18-1.39-.54-1.832-.36-.443-.848-.664-1.463-.664-.651 0-1.176.227-1.572.68-.397.455-.595 1.023-.595 1.707m.027 2.822h-.027v4.233h-1.121v-10.221h1.121v1.23h.027c.552-.929 1.359-1.394 2.42-1.394.903 0 1.607.314 2.113.939.505.627.758 1.467.758 2.52 0 1.172-.285 2.109-.854 2.812-.569.705-1.349 1.057-2.338 1.057-.907 0-1.606-.391-2.099-1.176M530.3965 332.8517h-1.142v-6.576c0-.52.033-1.154.096-1.906h-.027c-.11.441-.207.757-.294.949l-3.35 7.533h-.56l-3.343-7.479c-.096-.218-.193-.552-.294-1.003h-.027c.036.39.054 1.031.054 1.92v6.562h-1.107v-9.803h1.517l3.008 6.836c.233.526.383.916.451 1.176h.041c.197-.537.354-.938.472-1.203l3.069-6.809h1.436v9.803zM535.8311 326.631c-.72 0-1.29.246-1.709.734-.419.491-.629 1.166-.629 2.028 0 .83.212 1.484.636 1.963.424.478.991.716 1.702.716.725 0 1.281-.234 1.672-.703.389-.47.584-1.136.584-2.004 0-.875-.195-1.548-.584-2.023-.391-.473-.947-.711-1.672-.711m-.082 6.385c-1.034 0-1.86-.326-2.479-.981-.617-.654-.925-1.521-.925-2.601 0-1.176.321-2.094.964-2.754.642-.662 1.51-.992 2.604-.992 1.044 0 1.858.322 2.443.964.586.643.879 1.534.879 2.672 0 1.118-.315 2.012-.947 2.684-.631.672-1.478 1.008-2.539 1.008M542.1475 329.0177v.977c0 .58.187 1.07.564 1.472.375.405.853.606 1.432.606.679 0 1.211-.26 1.596-.78.386-.519.578-1.242.578-2.166 0-.779-.18-1.39-.54-1.832-.36-.443-.848-.664-1.463-.664-.651 0-1.176.227-1.572.68-.397.455-.595 1.023-.595 1.707m.027 2.822h-.027v1.012h-1.121v-10.363h1.121v4.593h.027c.552-.929 1.359-1.394 2.42-1.394.898 0 1.601.314 2.11.939.507.627.761 1.467.761 2.52 0 1.172-.285 2.109-.854 2.812-.569.705-1.349 1.057-2.338 1.057-.925 0-1.625-.391-2.099-1.176M549.257 332.852h1.121v-7h-1.121v7zm.574-8.778c-.2 0-.371-.068-.513-.205-.141-.136-.212-.308-.212-.519 0-.209.071-.383.212-.524.142-.138.313-.207.513-.207.205 0 .379.069.523.207.143.141.215.315.215.524 0 .201-.072.371-.215.513-.144.141-.318.211-.523.211zM552.648 332.852h1.121v-10.363h-1.121zM560.5156 328.6818c-.005-.646-.161-1.15-.468-1.51-.308-.361-.735-.541-1.282-.541-.528 0-.978.19-1.347.569-.369.377-.596.873-.683 1.482h3.78zm1.148.951h-4.942c.019.779.228 1.381.629 1.805.401.424.952.635 1.654.635.788 0 1.513-.26 2.174-.78v1.053c-.615.447-1.429.67-2.44.67-.99 0-1.766-.318-2.331-.953-.566-.637-.848-1.529-.848-2.684 0-1.088.309-1.976.926-2.662.618-.685 1.384-1.029 2.301-1.029.916 0 1.625.297 2.125.889.501.593.752 1.416.752 2.468v.588zM568.4932 324.088v7.725h1.463c1.285 0 2.285-.344 3.001-1.032.716-.689 1.073-1.664 1.073-2.925 0-2.512-1.335-3.768-4.006-3.768h-1.531zm-1.148 8.764v-9.803h2.707c3.454 0 5.181 1.594 5.181 4.779 0 1.512-.479 2.729-1.439 3.647-.959.918-2.243 1.377-3.852 1.377h-2.597zM581.4883 328.6818c-.005-.646-.161-1.15-.468-1.51-.308-.361-.735-.541-1.282-.541-.528 0-.978.19-1.347.569-.369.377-.596.873-.683 1.482h3.78zm1.148.951h-4.942c.019.779.228 1.381.629 1.805.401.424.952.635 1.654.635.788 0 1.513-.26 2.174-.78v1.053c-.615.447-1.429.67-2.44.67-.99 0-1.766-.318-2.331-.953-.566-.637-.848-1.529-.848-2.684 0-1.088.309-1.976.926-2.662.618-.685 1.384-1.029 2.301-1.029.916 0 1.625.297 2.125.889.501.593.752 1.416.752 2.468v.588zM589.835 325.8517l-2.789 7h-1.101l-2.652-7h1.23l1.778 5.086c.132.375.214.699.246.978h.027c.046-.351.118-.668.219-.951l1.859-5.113h1.183zM591.038 332.852h1.121v-7h-1.121v7zm.574-8.778c-.2 0-.371-.068-.512-.205-.142-.136-.212-.308-.212-.519 0-.209.07-.383.212-.524.141-.138.312-.207.512-.207.205 0 .379.069.524.207.142.141.215.315.215.524 0 .201-.073.371-.215.513-.145.141-.319.211-.524.211zM599.2002 332.5314c-.538.322-1.176.484-1.914.484-.998 0-1.804-.324-2.416-.974-.613-.649-.92-1.49-.92-2.526 0-1.152.33-2.078.991-2.779.661-.699 1.543-1.049 2.646-1.049.615 0 1.157.115 1.627.342v1.148c-.52-.363-1.076-.546-1.668-.546-.716 0-1.303.255-1.76.769-.459.512-.688 1.186-.688 2.02 0 .82.215 1.468.647 1.941.43.475 1.008.711 1.732.711.611 0 1.185-.203 1.723-.607v1.066zM605.373 328.6818c-.005-.646-.161-1.15-.468-1.51-.308-.361-.735-.541-1.282-.541-.528 0-.978.19-1.347.569-.369.377-.596.873-.683 1.482h3.78zm1.148.951h-4.942c.019.779.228 1.381.629 1.805.401.424.952.635 1.654.635.788 0 1.513-.26 2.174-.78v1.053c-.615.447-1.429.67-2.44.67-.99 0-1.766-.318-2.331-.953-.566-.637-.848-1.529-.848-2.684 0-1.088.309-1.976.926-2.662.618-.685 1.384-1.029 2.301-1.029.916 0 1.625.297 2.125.889.501.593.752 1.416.752 2.468v.588z" fill="#525252"></path><path d="M387.6094 8.5118l.002.003c6.56-3.489 12.304-3.566 16.017-3.001-4.373-3.627-9.824-5.514-15.325-5.514-2.472 0-4.955.386-7.354 1.159 2.26 2.624 4.479 5.071 6.659 7.353h.001zM369.4971 28.799c-2.025-2.653-1.935-6.252.004-8.788-1.65-3.972-1.515-7.273-.968-9.587-5.531 8.049-5.729 18.94.107 27.296.128-2.471.522-5.332 1.393-8.302-.187-.194-.367-.399-.536-.619M372.7959 17.5812c1.28-.464 2.65-.544 3.953-.271.262-.298.53-.597.809-.894 2.18-2.306 4.545-4.291 6.667-5.775-.005-.006-.011-.011-.016-.017-2.528-2.684-4.77-5.436-6.445-8.163-1.393.684-2.743 1.499-4.022 2.482-.941.72-1.811 1.498-2.615 2.322-.334 1.964-.476 5.69 1.669 10.316M392.085 13.1095c2.833 2.814 5.519 5.328 7.963 7.521 2.219-1.279 5.058-.751 6.66 1.323 1.12 1.469 1.315 3.351.701 4.965 1.866 1.512 3.158 2.507 4.114 3.218 1.83-6.925.556-14.589-4.14-20.717-.092-.122-.192-.235-.286-.353-.413-.039-6.516-.525-15.012 4.043M394.6436 41.4386c-2.092 1.597-5.088 1.206-6.705-.883-.757-1.003-1.049-2.213-.93-3.378-2.29-1.142-4.639-2.593-6.995-4.458-.686-.555-1.33-1.102-1.944-1.643-1.072.452-2.218.63-3.345.544-1.631 4.381-1.818 8.274-1.645 10.915 4.362 3.594 9.792 5.465 15.269 5.465 5.09 0 10.214-1.621 14.564-4.947.741-.567 1.435-1.173 2.091-1.805-2.406-.005-5.621-.16-9.297-.978-.285.432-.628.834-1.063 1.168M405.7432 29.173c-2.262 1.721-5.497 1.31-7.241-.965-1.211-1.582-1.335-3.638-.539-5.325-3.01-2.348-6.187-4.974-9.184-7.744.001 0 .001-.001.002-.001-.079-.072-.152-.147-.229-.218.076.073.147.15.226.224-1.953 1.331-4.04 2.99-6.26 5.063-.292.273-.561.549-.836.823 1.21 2.327 1.064 5.092-.305 7.249.419.359.852.716 1.304 1.075 2.242 1.775 4.415 3.185 6.49 4.31 2.066-1.329 4.839-.899 6.354 1.088.443.58.719 1.232.863 1.901 5.961 1.713 10.325 1.117 11.803.808 1.122-1.653 2.02-3.424 2.689-5.267-.907-.617-2.511-1.692-4.821-3.318-.107.097-.198.206-.316.297" fill="#59B4D9"></path><path d="M346.1396 68.9435l-1.538-4.178c-.05-.136-.101-.355-.15-.656h-.028c-.046.279-.097.498-.157.656l-1.524 4.178h3.397zm2.687 3.779h-1.272l-1.039-2.748h-4.156l-.978 2.748h-1.278l3.76-9.802h1.189l3.774 9.802zM354.999 66.045l-4.143 5.721h4.102v.957h-5.749v-.348l4.143-5.695h-3.753v-.957h5.4zM362.1084 72.7228h-1.121v-1.107h-.027c-.465.847-1.185 1.271-2.161 1.271-1.668 0-2.502-.992-2.502-2.98v-4.184h1.115v4.006c0 1.476.565 2.215 1.695 2.215.547 0 .997-.201 1.351-.606.352-.402.529-.929.529-1.582v-4.033h1.121v7zM368.0215 66.8575c-.196-.15-.479-.225-.848-.225-.478 0-.879.225-1.199.676-.322.451-.482 1.067-.482 1.846v3.568h-1.121v-7h1.121v1.444h.027c.159-.493.403-.877.731-1.153.329-.275.696-.414 1.101-.414.292 0 .515.033.67.096v1.162zM373.5312 68.5529c-.005-.646-.161-1.15-.468-1.51-.308-.361-.735-.541-1.282-.541-.528 0-.978.19-1.347.569-.369.377-.596.873-.683 1.482h3.78zm1.148.951h-4.942c.019.779.228 1.381.629 1.805.401.424.952.635 1.654.635.788 0 1.513-.26 2.174-.78v1.053c-.615.447-1.429.67-2.44.67-.99 0-1.766-.318-2.331-.953-.566-.637-.848-1.529-.848-2.684 0-1.088.309-1.976.926-2.662.618-.685 1.384-1.029 2.301-1.029.916 0 1.625.297 2.125.889.501.593.752 1.416.752 2.468v.588zM391.9814 62.92l-2.769 9.803h-1.346l-2.017-7.164c-.087-.305-.139-.637-.157-.998h-.027c-.028.338-.087.666-.178.984l-2.03 7.178h-1.333l-2.872-9.803h1.265l2.085 7.52c.087.314.142.642.164.984h.034c.023-.24.094-.568.212-.984l2.167-7.52h1.101l2.078 7.574c.073.26.128.567.164.916h.027c.019-.236.08-.551.185-.943l2.003-7.547h1.244zM397.4297 68.5529c-.005-.646-.161-1.15-.468-1.51-.308-.361-.735-.541-1.282-.541-.528 0-.978.19-1.347.569-.369.377-.596.873-.683 1.482h3.78zm1.148.951h-4.942c.019.779.228 1.381.629 1.805.401.424.952.635 1.654.635.788 0 1.513-.26 2.174-.78v1.053c-.615.447-1.429.67-2.44.67-.99 0-1.766-.318-2.331-.953-.566-.637-.848-1.529-.848-2.684 0-1.088.309-1.976.926-2.662.618-.685 1.384-1.029 2.301-1.029.916 0 1.625.297 2.125.889.501.593.752 1.416.752 2.468v.588zM401.3945 68.8888v.977c0 .58.187 1.07.564 1.472.375.405.853.606 1.432.606.679 0 1.211-.26 1.596-.78.386-.519.578-1.242.578-2.166 0-.779-.18-1.39-.54-1.832-.36-.443-.848-.664-1.463-.664-.651 0-1.176.227-1.572.68-.397.455-.595 1.023-.595 1.707m.027 2.822h-.027v1.012h-1.121v-10.363h1.121v4.593h.027c.552-.929 1.359-1.394 2.42-1.394.898 0 1.601.314 2.11.939.507.627.761 1.467.761 2.52 0 1.172-.285 2.109-.854 2.812-.569.705-1.349 1.057-2.338 1.057-.925 0-1.625-.391-2.099-1.176M417.3906 68.9435l-1.538-4.178c-.05-.136-.101-.355-.15-.656h-.028c-.046.279-.097.498-.157.656l-1.524 4.178h3.397zm2.687 3.779h-1.272l-1.039-2.748h-4.156l-.978 2.748h-1.278l3.76-9.802h1.189l3.774 9.802zM422.4902 68.8888v.977c0 .58.187 1.07.564 1.472.375.405.853.606 1.432.606.679 0 1.211-.26 1.596-.78.386-.519.578-1.242.578-2.166 0-.779-.18-1.39-.54-1.832-.36-.443-.848-.664-1.463-.664-.651 0-1.176.227-1.572.68-.397.455-.595 1.023-.595 1.707m.027 2.822h-.027v4.233h-1.121v-10.221h1.121v1.23h.027c.552-.929 1.359-1.394 2.42-1.394.903 0 1.607.314 2.113.939.505.627.758 1.467.758 2.52 0 1.172-.285 2.109-.854 2.812-.569.705-1.349 1.057-2.338 1.057-.907 0-1.606-.391-2.099-1.176M430.7207 68.8888v.977c0 .58.187 1.07.564 1.472.375.405.853.606 1.432.606.679 0 1.211-.26 1.596-.78.386-.519.578-1.242.578-2.166 0-.779-.18-1.39-.54-1.832-.36-.443-.848-.664-1.463-.664-.651 0-1.176.227-1.572.68-.397.455-.595 1.023-.595 1.707m.027 2.822h-.027v4.233h-1.121v-10.221h1.121v1.23h.027c.552-.929 1.359-1.394 2.42-1.394.903 0 1.607.314 2.113.939.505.627.758 1.467.758 2.52 0 1.172-.285 2.109-.854 2.812-.569.705-1.349 1.057-2.338 1.057-.907 0-1.606-.391-2.099-1.176M364.027 89.524h1.148v-9.803h-1.148zM373.4121 89.5236h-1.121v-3.992c0-1.487-.542-2.229-1.627-2.229-.561 0-1.024.211-1.391.633-.367.42-.55.953-.55 1.596v3.992h-1.122v-7h1.122v1.162h.027c.528-.885 1.294-1.326 2.297-1.326.765 0 1.351.246 1.757.742.405.494.608 1.207.608 2.143v4.279zM375.1006 89.2697v-1.203c.61.451 1.283.678 2.017.678.984 0 1.476-.329 1.476-.985 0-.187-.042-.345-.126-.474-.085-.131-.199-.246-.342-.346-.144-.102-.312-.191-.505-.27-.195-.08-.403-.164-.626-.25-.31-.123-.582-.248-.818-.373-.234-.125-.43-.265-.588-.423-.156-.157-.275-.336-.355-.538-.079-.199-.119-.435-.119-.703 0-.328.075-.619.225-.871.151-.254.351-.465.602-.637.251-.169.536-.298.858-.386.321-.086.653-.129.994-.129.607 0 1.149.103 1.627.314v1.135c-.514-.338-1.107-.506-1.777-.506-.21 0-.398.024-.567.072-.169.047-.314.114-.435.202-.12.086-.214.189-.279.31-.067.121-.1.254-.1.401 0 .181.033.334.1.457.065.123.162.232.29.328.128.095.282.183.465.259.182.079.389.163.622.254.309.118.588.241.834.366s.456.267.629.423c.172.159.306.338.4.543.093.206.14.45.14.733 0 .346-.077.646-.23.902-.152.254-.356.467-.611.635-.255.17-.549.295-.882.377-.333.082-.682.123-1.046.123-.72 0-1.345-.139-1.873-.418M384.7119 89.4552c-.265.145-.613.219-1.046.219-1.225 0-1.839-.684-1.839-2.051v-4.143h-1.203v-.957h1.203v-1.709l1.121-.363v2.072h1.764v.957h-1.764v3.944c0 .47.08.804.24 1.006.159.199.423.3.793.3.282 0 .526-.078.731-.232v.957zM390.0986 85.9825l-1.688.232c-.52.073-.912.202-1.176.387-.265.184-.397.51-.397.981 0 .341.122.621.365.838.245.214.57.324.975.324.556 0 1.016-.196 1.377-.584.363-.391.544-.885.544-1.481v-.697zm1.121 3.541h-1.121v-1.094h-.027c-.488.838-1.205 1.258-2.154 1.258-.697 0-1.243-.185-1.636-.555-.395-.369-.592-.859-.592-1.468 0-1.309.77-2.071 2.31-2.284l2.099-.294c0-1.19-.48-1.784-1.442-1.784-.843 0-1.605.287-2.284.862v-1.149c.689-.437 1.482-.656 2.379-.656 1.646 0 2.468.869 2.468 2.611v4.553zM399.1426 89.5236h-1.121v-3.992c0-1.487-.542-2.229-1.627-2.229-.561 0-1.024.211-1.391.633-.367.42-.55.953-.55 1.596v3.992h-1.122v-7h1.122v1.162h.027c.528-.885 1.294-1.326 2.297-1.326.765 0 1.351.246 1.757.742.405.494.608 1.207.608 2.143v4.279zM406.0264 89.2013c-.538.324-1.176.486-1.914.486-.998 0-1.804-.324-2.416-.974-.613-.649-.92-1.492-.92-2.526 0-1.154.33-2.08.991-2.779.661-.699 1.543-1.049 2.646-1.049.615 0 1.157.113 1.627.342v1.148c-.52-.365-1.076-.546-1.668-.546-.716 0-1.303.255-1.76.769-.459.512-.688 1.186-.688 2.02 0 .82.215 1.466.647 1.941.43.473 1.008.711 1.732.711.611 0 1.185-.203 1.723-.609v1.066zM412.1992 85.3536c-.005-.648-.161-1.15-.468-1.512-.308-.359-.735-.539-1.282-.539-.528 0-.978.19-1.347.567-.369.379-.596.873-.683 1.484h3.78zm1.148.949h-4.942c.019.78.228 1.381.629 1.805.401.424.952.637 1.654.637.788 0 1.513-.26 2.174-.78v1.053c-.615.445-1.429.67-2.44.67-.99 0-1.766-.318-2.331-.953-.566-.637-.848-1.531-.848-2.684 0-1.09.309-1.976.926-2.662.618-.687 1.384-1.029 2.301-1.029.916 0 1.625.295 2.125.889.501.591.752 1.414.752 2.466v.588zM10.1787 71.5275c-.984.557-2.078.834-3.281.834-1.4 0-2.531-.451-3.395-1.354-.863-.902-1.295-2.095-1.295-3.582 0-1.517.48-2.761 1.44-3.736.959-.973 2.175-1.459 3.646-1.459 1.067 0 1.962.174 2.687.52v1.271c-.793-.5-1.732-.752-2.817-.752-1.098 0-1.998.379-2.7 1.135-.702.758-1.053 1.736-1.053 2.939 0 1.241.327 2.215.978 2.922.651.709 1.536 1.065 2.652 1.065.766 0 1.429-.153 1.99-.459v-2.748h-2.147v-1.039h3.295v4.443zM15.9551 66.3322c-.196-.15-.479-.225-.848-.225-.478 0-.879.225-1.199.676-.322.451-.482 1.067-.482 1.846v3.568h-1.121v-7h1.121v1.444h.027c.159-.493.403-.877.731-1.153.329-.275.696-.414 1.101-.414.292 0 .515.033.67.096v1.162zM19.9951 65.9767c-.72 0-1.29.246-1.709.734-.419.491-.629 1.166-.629 2.028 0 .83.212 1.484.636 1.963.424.478.991.716 1.702.716.725 0 1.281-.234 1.672-.703.389-.47.584-1.136.584-2.004 0-.875-.195-1.548-.584-2.023-.391-.473-.947-.711-1.672-.711m-.082 6.385c-1.034 0-1.86-.326-2.479-.981-.617-.654-.925-1.521-.925-2.601 0-1.176.321-2.094.964-2.754.642-.662 1.51-.992 2.604-.992 1.044 0 1.858.322 2.443.964.586.643.879 1.534.879 2.672 0 1.118-.315 2.012-.947 2.684-.631.672-1.478 1.008-2.539 1.008M30.8506 72.1974h-1.121v-1.107h-.027c-.465.847-1.185 1.271-2.161 1.271-1.668 0-2.502-.992-2.502-2.98v-4.184h1.115v4.006c0 1.476.565 2.215 1.695 2.215.547 0 .997-.201 1.351-.606.352-.402.529-.929.529-1.582v-4.033h1.121v7zM34.2344 68.3634v.977c0 .58.187 1.07.564 1.472.375.405.853.606 1.432.606.679 0 1.211-.26 1.596-.78.386-.519.578-1.242.578-2.166 0-.779-.18-1.39-.54-1.832-.36-.443-.848-.664-1.463-.664-.651 0-1.176.227-1.572.68-.397.455-.595 1.023-.595 1.707m.027 2.822h-.027v4.233h-1.121v-10.221h1.121v1.23h.027c.552-.929 1.359-1.394 2.42-1.394.903 0 1.607.314 2.113.939.505.627.758 1.467.758 2.52 0 1.172-.285 2.109-.854 2.812-.569.705-1.349 1.057-2.338 1.057-.907 0-1.606-.391-2.099-1.176M52.001 71.7872c-.725.383-1.627.574-2.707.574-1.395 0-2.511-.449-3.35-1.345-.839-.899-1.257-2.077-1.257-3.536 0-1.566.471-2.834 1.415-3.8.943-.965 2.139-1.45 3.588-1.45.93 0 1.701.135 2.311.405v1.222c-.702-.39-1.477-.588-2.324-.588-1.126 0-2.038.377-2.738 1.129-.7.752-1.049 1.756-1.049 3.014 0 1.195.327 2.146.98 2.854.654.709 1.513 1.064 2.574 1.064.985 0 1.837-.219 2.557-.656v1.113zM59.6572 72.1974h-1.121v-4.033c0-1.457-.542-2.188-1.627-2.188-.547 0-1.007.211-1.381.633-.374.422-.56.963-.56 1.623v3.965h-1.122v-10.363h1.122v4.525h.027c.538-.883 1.304-1.326 2.297-1.326 1.577 0 2.365.951 2.365 2.852v4.312zM65.6592 68.6564l-1.688.232c-.52.075-.912.202-1.176.387-.265.184-.397.512-.397.981 0 .341.122.621.365.838.245.216.57.324.975.324.556 0 1.016-.196 1.377-.584.363-.391.544-.883.544-1.481v-.697zm1.121 3.541h-1.121v-1.094h-.027c-.488.84-1.205 1.258-2.154 1.258-.697 0-1.243-.184-1.636-.553-.395-.369-.592-.859-.592-1.47 0-1.307.77-2.069 2.31-2.284l2.099-.293c0-1.189-.48-1.785-1.442-1.785-.843 0-1.605.287-2.284.862v-1.149c.689-.437 1.482-.656 2.379-.656 1.646 0 2.468.871 2.468 2.611v4.553zM72.1396 72.129c-.265.146-.613.219-1.046.219-1.225 0-1.839-.684-1.839-2.051v-4.143h-1.203v-.957h1.203v-1.709l1.121-.361v2.07h1.764v.957h-1.764V70.1c0 .468.08.804.24 1.004.159.201.423.3.793.3.282 0 .526-.076.731-.232v.957zM73.2129 71.9454v-1.203c.61.451 1.283.676 2.017.676.984 0 1.476-.328 1.476-.985 0-.185-.042-.345-.126-.474-.085-.131-.199-.244-.342-.346-.144-.1-.312-.189-.505-.27-.195-.08-.403-.162-.626-.25-.31-.123-.582-.246-.818-.373-.234-.125-.43-.265-.588-.423-.156-.157-.275-.336-.355-.536-.079-.201-.119-.435-.119-.705 0-.328.075-.619.225-.871.151-.254.351-.465.602-.636.251-.17.536-.299.858-.385.321-.088.653-.131.994-.131.607 0 1.149.105 1.627.314v1.135c-.514-.336-1.107-.506-1.777-.506-.21 0-.398.024-.567.073-.169.046-.314.115-.435.201-.12.088-.214.191-.279.31-.067.121-.1.256-.1.401 0 .183.033.336.1.459.065.123.162.232.29.328.128.095.282.181.465.259.182.077.389.163.622.252.309.12.588.241.834.366.246.127.456.267.629.424.172.158.306.339.4.544.093.206.14.45.14.731 0 .348-.077.648-.23.902-.152.256-.356.467-.611.637-.255.168-.549.293-.882.375-.333.082-.682.123-1.046.123-.72 0-1.345-.139-1.873-.416M0 184.34v-1.354c.155.137.341.26.558.37.215.109.443.201.683.277.238.074.48.133.721.174.241.041.465.06.67.06.706 0 1.234-.131 1.582-.392.349-.262.523-.639.523-1.131 0-.266-.058-.494-.174-.692-.117-.195-.277-.375-.482-.535-.205-.162-.447-.318-.728-.465-.28-.148-.582-.304-.906-.468-.342-.174-.661-.35-.957-.528-.296-.177-.553-.373-.772-.587-.219-.213-.391-.458-.516-.727-.126-.272-.188-.59-.188-.955 0-.445.097-.834.294-1.164.196-.332.453-.604.772-.819.319-.212.683-.373 1.091-.478.407-.104.823-.156 1.247-.156.966 0 1.67.115 2.112.347v1.293c-.579-.402-1.321-.601-2.228-.601-.251 0-.501.025-.752.078s-.474.139-.67.256c-.196.119-.356.271-.479.459-.123.185-.184.414-.184.683 0 .25.047.467.139.649.094.183.232.349.415.5.182.15.404.295.666.437.262.141.564.295.906.465.35.172.683.356.998.547.314.191.59.402.827.635.237.232.425.49.563.773.14.281.209.606.209.971 0 .482-.094.892-.283 1.226-.189.336-.445.608-.765.817-.323.211-.693.361-1.112.455-.419.094-.861.141-1.326.141-.155 0-.347-.014-.574-.038-.228-.025-.46-.062-.697-.109-.238-.049-.461-.107-.674-.178-.211-.072-.381-.15-.509-.236M10.541 184.6681c-.265.145-.613.219-1.046.219-1.225 0-1.839-.684-1.839-2.051v-4.143H6.453v-.957h1.203v-1.709l1.121-.363v2.072h1.764v.957H8.777v3.944c0 .47.08.804.24 1.006.159.199.423.3.793.3.282 0 .526-.078.731-.232v.957zM14.9365 178.5158c-.72 0-1.29.244-1.709.734-.419.491-.629 1.166-.629 2.028 0 .828.212 1.482.636 1.961.424.478.991.718 1.702.718.725 0 1.281-.234 1.672-.705.389-.468.584-1.136.584-2.002 0-.875-.195-1.55-.584-2.023-.391-.475-.947-.711-1.672-.711m-.082 6.385c-1.034 0-1.86-.328-2.479-.981-.617-.654-.925-1.521-.925-2.601 0-1.176.321-2.094.964-2.756.642-.66 1.51-.99 2.604-.99 1.044 0 1.858.32 2.443.963.586.642.879 1.533.879 2.673 0 1.116-.315 2.01-.947 2.684-.631.672-1.478 1.008-2.539 1.008M24.9033 184.4142c-.538.324-1.176.486-1.914.486-.998 0-1.804-.324-2.416-.974-.613-.649-.92-1.492-.92-2.526 0-1.154.33-2.08.991-2.779.661-.699 1.543-1.049 2.646-1.049.615 0 1.157.113 1.627.342v1.148c-.52-.365-1.076-.546-1.668-.546-.716 0-1.303.255-1.76.769-.459.512-.688 1.186-.688 2.02 0 .82.215 1.466.647 1.941.43.473 1.008.711 1.732.711.611 0 1.185-.203 1.723-.609v1.066zM32.4092 184.7365h-1.572l-3.09-3.363h-.027v3.363h-1.122v-10.363h1.122v6.568h.027l2.939-3.205h1.47l-3.247 3.377zM41.5762 175.8087c-1.03 0-1.866.371-2.509 1.113-.642.744-.964 1.719-.964 2.926 0 1.203.313 2.176.937 2.92.629.732 1.447 1.1 2.454 1.1 1.075 0 1.923-.35 2.543-1.053.62-.701.93-1.684.93-2.945 0-1.299-.301-2.299-.903-3.002-.601-.705-1.43-1.059-2.488-1.059m-.082 9.092c-1.386 0-2.5-.459-3.343-1.375-.834-.916-1.251-2.108-1.251-3.574 0-1.582.426-2.84 1.279-3.774.856-.939 2.016-1.408 3.479-1.408 1.349 0 2.439.455 3.268 1.367.829.91 1.244 2.104 1.244 3.574 0 1.6-.424 2.866-1.272 3.795-.2.223-.415.414-.642.574l2.755 1.975h-2.085l-1.846-1.381c-.483.151-1.012.227-1.586.227M53.6074 184.7365h-1.121v-1.107h-.027c-.465.847-1.185 1.271-2.161 1.271-1.668 0-2.502-.994-2.502-2.98v-4.184h1.115v4.006c0 1.476.565 2.215 1.695 2.215.547 0 .997-.201 1.351-.606.352-.402.529-.931.529-1.582v-4.033h1.121v7zM58.8779 178.5158c-.72 0-1.29.244-1.709.734-.419.491-.629 1.166-.629 2.028 0 .828.212 1.482.636 1.961.424.478.991.718 1.702.718.725 0 1.281-.234 1.672-.705.389-.468.584-1.136.584-2.002 0-.875-.195-1.55-.584-2.023-.391-.475-.947-.711-1.672-.711m-.082 6.385c-1.034 0-1.86-.328-2.479-.981-.617-.654-.925-1.521-.925-2.601 0-1.176.321-2.094.964-2.756.642-.66 1.51-.99 2.604-.99 1.044 0 1.858.32 2.443.963.586.642.879 1.533.879 2.673 0 1.116-.315 2.01-.947 2.684-.631.672-1.478 1.008-2.539 1.008M67.3203 184.6681c-.265.145-.613.219-1.046.219-1.225 0-1.839-.684-1.839-2.051v-4.143h-1.203v-.957h1.203v-1.709l1.121-.363v2.072h1.764v.957h-1.764v3.944c0 .47.08.804.24 1.006.159.199.423.3.793.3.282 0 .526-.078.731-.232v.957zM73.1855 180.5665c-.005-.648-.161-1.15-.468-1.512-.308-.359-.735-.539-1.282-.539-.528 0-.978.19-1.347.567-.369.379-.596.873-.683 1.484h3.78zm1.148.949h-4.942c.019.78.228 1.381.629 1.805.401.424.952.637 1.654.637.788 0 1.513-.26 2.174-.78v1.053c-.615.445-1.429.67-2.44.67-.99 0-1.766-.318-2.331-.953-.566-.637-.848-1.531-.848-2.684 0-1.09.309-1.976.926-2.662.618-.687 1.384-1.029 2.301-1.029.916 0 1.625.295 2.125.889.501.591.752 1.414.752 2.466v.588zM75.6055 184.4825v-1.203c.61.451 1.283.678 2.017.678.984 0 1.476-.329 1.476-.985 0-.187-.042-.345-.126-.474-.085-.131-.199-.246-.342-.346-.144-.102-.312-.191-.505-.27-.195-.08-.403-.164-.626-.25-.31-.123-.582-.248-.818-.373-.234-.125-.43-.265-.588-.423-.156-.157-.275-.336-.355-.538-.079-.199-.119-.435-.119-.703 0-.328.075-.619.225-.871.151-.254.351-.465.602-.637.251-.169.536-.298.858-.386.321-.086.653-.129.994-.129.607 0 1.149.103 1.627.314v1.135c-.514-.338-1.107-.506-1.777-.506-.21 0-.398.024-.567.072-.169.047-.314.114-.435.202-.12.086-.214.189-.279.31-.067.121-.1.254-.1.401 0 .181.033.334.1.457.065.123.162.232.29.328.128.095.282.183.465.259.182.079.389.163.622.254.309.118.588.241.834.366s.456.267.629.423c.172.159.306.338.4.543.093.206.14.45.14.733 0 .346-.077.646-.23.902-.152.254-.356.467-.611.635-.255.17-.549.295-.882.377-.333.082-.682.123-1.046.123-.72 0-1.345-.139-1.873-.418M12.9746 297.8673h-1.408l-5.045-7.812c-.128-.198-.233-.403-.315-.616h-.041c.037.209.055.658.055 1.346v7.082h-1.148v-9.803h1.49l4.908 7.692c.205.318.337.537.397.656h.027c-.046-.283-.068-.764-.068-1.443v-6.905h1.148v9.803zM18.4023 291.6466c-.72 0-1.29.246-1.709.734-.419.491-.629 1.166-.629 2.028 0 .83.212 1.484.636 1.963.424.478.991.716 1.702.716.725 0 1.281-.234 1.672-.703.389-.47.584-1.136.584-2.004 0-.875-.195-1.548-.584-2.023-.391-.473-.947-.711-1.672-.711m-.082 6.385c-1.034 0-1.86-.326-2.479-.981-.617-.654-.925-1.521-.925-2.601 0-1.176.321-2.094.964-2.754.642-.662 1.51-.992 2.604-.992 1.044 0 1.858.322 2.443.964.586.643.879 1.534.879 2.672 0 1.118-.315 2.012-.947 2.684-.631.672-1.478 1.008-2.539 1.008M26.8447 297.799c-.265.146-.613.219-1.046.219-1.225 0-1.839-.684-1.839-2.051v-4.143h-1.203v-.957h1.203v-1.709l1.121-.361v2.07h1.764v.957h-1.764v3.946c0 .468.08.804.24 1.004.159.201.423.3.793.3.282 0 .526-.076.731-.232v.957zM28.342 297.867h1.121v-7h-1.121v7zm.574-8.777c-.2 0-.371-.068-.513-.205-.141-.137-.212-.309-.212-.52 0-.209.071-.382.212-.523.142-.139.313-.207.513-.207.205 0 .379.068.523.207.143.141.215.314.215.523 0 .202-.072.371-.215.514-.144.141-.318.211-.523.211zM35.1914 288.4884c-.219-.123-.467-.184-.745-.184-.784 0-1.176.495-1.176 1.483v1.08h1.641v.957h-1.641v6.043h-1.114v-6.043h-1.196v-.957h1.196v-1.135c0-.732.212-1.312.636-1.74.423-.426.952-.639 1.586-.639.341 0 .613.041.813.123v1.012zM36.114 297.867h1.121v-7h-1.121v7zm.574-8.777c-.2 0-.371-.068-.512-.205-.142-.137-.212-.309-.212-.52 0-.209.07-.382.212-.523.141-.139.312-.207.512-.207.206 0 .379.068.524.207.142.141.215.314.215.523 0 .202-.073.371-.215.514-.145.141-.318.211-.524.211zM44.2764 297.547c-.538.322-1.176.484-1.914.484-.998 0-1.804-.324-2.416-.974-.613-.649-.92-1.49-.92-2.526 0-1.152.33-2.078.991-2.779.661-.699 1.543-1.049 2.646-1.049.615 0 1.157.115 1.627.342v1.148c-.52-.363-1.076-.546-1.668-.546-.716 0-1.303.255-1.76.769-.459.512-.688 1.186-.688 2.02 0 .82.215 1.468.647 1.941.43.475 1.008.711 1.732.711.611 0 1.185-.203 1.723-.607v1.066zM49.8613 294.3263l-1.688.232c-.52.075-.912.202-1.176.387-.265.184-.397.512-.397.981 0 .341.122.621.365.838.245.216.57.324.975.324.556 0 1.016-.196 1.377-.584.363-.391.544-.883.544-1.481v-.697zm1.121 3.541h-1.121v-1.094h-.027c-.488.84-1.205 1.258-2.154 1.258-.697 0-1.243-.184-1.636-.553-.395-.369-.592-.859-.592-1.47 0-1.307.77-2.069 2.31-2.284l2.099-.293c0-1.189-.48-1.785-1.442-1.785-.843 0-1.605.287-2.284.862v-1.149c.689-.437 1.482-.656 2.379-.656 1.646 0 2.468.871 2.468 2.611v4.553zM56.3418 297.799c-.265.146-.613.219-1.046.219-1.225 0-1.839-.684-1.839-2.051v-4.143h-1.203v-.957h1.203v-1.709l1.121-.361v2.07h1.764v.957h-1.764v3.946c0 .468.08.804.24 1.004.159.201.423.3.793.3.282 0 .526-.076.731-.232v.957zM57.839 297.867h1.121v-7h-1.121v7zm.574-8.777c-.2 0-.371-.068-.513-.205-.141-.137-.212-.309-.212-.52 0-.209.071-.382.212-.523.142-.139.313-.207.513-.207.205 0 .379.068.524.207.142.141.214.314.214.523 0 .202-.072.371-.214.514-.145.141-.319.211-.524.211zM64.2373 291.6466c-.72 0-1.29.246-1.709.734-.419.491-.629 1.166-.629 2.028 0 .83.212 1.484.636 1.963.424.478.991.716 1.702.716.725 0 1.281-.234 1.672-.703.389-.47.584-1.136.584-2.004 0-.875-.195-1.548-.584-2.023-.391-.473-.947-.711-1.672-.711m-.082 6.385c-1.034 0-1.86-.326-2.479-.981-.617-.654-.925-1.521-.925-2.601 0-1.176.321-2.094.964-2.754.642-.662 1.51-.992 2.604-.992 1.044 0 1.858.322 2.443.964.586.643.879 1.534.879 2.672 0 1.118-.315 2.012-.947 2.684-.631.672-1.478 1.008-2.539 1.008M75.2432 297.8673h-1.121v-3.992c0-1.485-.542-2.229-1.627-2.229-.561 0-1.024.211-1.391.633-.367.422-.55.953-.55 1.596v3.992h-1.122v-7h1.122v1.162h.027c.528-.883 1.294-1.326 2.297-1.326.765 0 1.351.248 1.757.742.405.494.608 1.209.608 2.143v4.279zM21.082 314.6681H19.94v-6.576c0-.52.033-1.156.096-1.908h-.027c-.11.443-.207.759-.294.951l-3.35 7.533h-.56l-3.343-7.479c-.096-.218-.193-.554-.294-1.005h-.027c.036.392.054 1.033.054 1.922v6.562h-1.107v-9.803h1.517l3.008 6.836c.233.524.383.916.451 1.176h.041c.197-.539.354-.939.472-1.203l3.069-6.809h1.436v9.803zM27.9863 310.4982c-.005-.648-.161-1.15-.468-1.512-.308-.359-.735-.539-1.282-.539-.528 0-.978.19-1.347.567-.369.379-.596.873-.683 1.484h3.78zm1.148.949h-4.942c.019.78.228 1.381.629 1.805.401.424.952.637 1.654.637.788 0 1.513-.26 2.174-.78v1.053c-.615.445-1.429.67-2.44.67-.99 0-1.766-.318-2.331-.953-.566-.637-.848-1.531-.848-2.684 0-1.09.309-1.976.926-2.662.618-.687 1.384-1.029 2.301-1.029.916 0 1.625.295 2.125.889.501.591.752 1.414.752 2.466v.588zM30.4063 314.4142v-1.203c.61.451 1.283.678 2.017.678.984 0 1.476-.329 1.476-.985 0-.187-.042-.345-.126-.474-.085-.131-.199-.246-.342-.346-.144-.102-.312-.191-.505-.27-.195-.08-.403-.164-.626-.25-.31-.123-.582-.248-.818-.373-.234-.125-.43-.265-.588-.423-.156-.157-.275-.336-.355-.538-.079-.199-.119-.435-.119-.703 0-.328.075-.619.225-.871.151-.254.351-.465.602-.637.251-.169.536-.298.858-.386.321-.086.653-.129.994-.129.607 0 1.149.103 1.627.314v1.135c-.514-.338-1.107-.506-1.777-.506-.21 0-.398.024-.567.072-.169.047-.314.114-.435.202-.12.086-.214.189-.279.31-.067.121-.1.254-.1.401 0 .181.033.334.1.457.065.123.162.232.29.328.128.095.282.183.465.259.182.079.389.163.622.254.309.118.588.241.834.366s.456.267.629.423c.172.159.306.338.4.543.093.206.14.45.14.733 0 .346-.077.646-.23.902-.152.254-.356.467-.611.635-.255.17-.549.295-.882.377-.333.082-.682.123-1.046.123-.72 0-1.345-.139-1.873-.418M36.3467 314.4142v-1.203c.61.451 1.283.678 2.017.678.984 0 1.476-.329 1.476-.985 0-.187-.042-.345-.126-.474-.085-.131-.199-.246-.342-.346-.144-.102-.312-.191-.505-.27-.195-.08-.403-.164-.626-.25-.31-.123-.582-.248-.818-.373-.234-.125-.43-.265-.588-.423-.156-.157-.275-.336-.355-.538-.079-.199-.119-.435-.119-.703 0-.328.075-.619.225-.871.151-.254.351-.465.602-.637.251-.169.536-.298.858-.386.321-.086.653-.129.994-.129.607 0 1.149.103 1.627.314v1.135c-.514-.338-1.107-.506-1.777-.506-.21 0-.398.024-.567.072-.169.047-.314.114-.435.202-.12.086-.214.189-.279.31-.067.121-.1.254-.1.401 0 .181.033.334.1.457.065.123.162.232.29.328.128.095.282.183.465.259.182.079.389.163.622.254.309.118.588.241.834.366s.456.267.629.423c.172.159.306.338.4.543.093.206.14.45.14.733 0 .346-.077.646-.23.902-.152.254-.356.467-.611.635-.255.17-.549.295-.882.377-.333.082-.682.123-1.046.123-.72 0-1.345-.139-1.873-.418M46.6006 311.1271l-1.688.232c-.52.073-.912.202-1.176.387-.265.184-.397.51-.397.981 0 .341.122.621.365.838.245.214.57.324.975.324.556 0 1.016-.196 1.377-.584.363-.391.544-.885.544-1.481v-.697zm1.121 3.541h-1.121v-1.094h-.027c-.488.838-1.205 1.258-2.154 1.258-.697 0-1.243-.185-1.636-.555-.395-.369-.592-.859-.592-1.468 0-1.309.77-2.071 2.31-2.284l2.099-.294c0-1.19-.48-1.784-1.442-1.784-.843 0-1.605.287-2.284.862v-1.149c.689-.437 1.482-.656 2.379-.656 1.646 0 2.468.869 2.468 2.611v4.553zM54.6875 311.5021v-1.031c0-.557-.187-1.033-.564-1.43-.375-.396-.844-.594-1.405-.594-.692 0-1.235.252-1.627.756-.391.502-.588 1.207-.588 2.115 0 .78.188 1.403.565 1.87.375.466.873.701 1.493.701.629 0 1.141-.225 1.534-.67.395-.447.592-1.02.592-1.717zm1.121 2.605c0 2.571-1.23 3.856-3.691 3.856-.867 0-1.622-.164-2.27-.492v-1.121c.788.437 1.54.656 2.256.656 1.723 0 2.584-.916 2.584-2.748v-.766h-.027c-.534.893-1.335 1.34-2.407 1.34-.87 0-1.571-.31-2.101-.934-.531-.621-.797-1.457-.797-2.505 0-1.19.286-2.135.857-2.836.573-.703 1.356-1.053 2.349-1.053.943 0 1.643.377 2.099 1.135h.027v-.971h1.121v6.439zM62.5557 310.4982c-.005-.648-.161-1.15-.468-1.512-.308-.359-.735-.539-1.282-.539-.528 0-.978.19-1.347.567-.369.379-.596.873-.683 1.484h3.78zm1.148.949h-4.942c.019.78.228 1.381.629 1.805.401.424.952.637 1.654.637.788 0 1.513-.26 2.174-.78v1.053c-.615.445-1.429.67-2.44.67-.99 0-1.766-.318-2.331-.953-.566-.637-.848-1.531-.848-2.684 0-1.09.309-1.976.926-2.662.618-.687 1.384-1.029 2.301-1.029.916 0 1.625.295 2.125.889.501.591.752 1.414.752 2.466v.588zM64.9756 314.4142v-1.203c.61.451 1.283.678 2.017.678.984 0 1.476-.329 1.476-.985 0-.187-.042-.345-.126-.474-.085-.131-.199-.246-.342-.346-.144-.102-.312-.191-.505-.27-.195-.08-.403-.164-.626-.25-.31-.123-.582-.248-.818-.373-.234-.125-.43-.265-.588-.423-.156-.157-.275-.336-.355-.538-.079-.199-.119-.435-.119-.703 0-.328.075-.619.225-.871.151-.254.351-.465.602-.637.251-.169.536-.298.858-.386.321-.086.653-.129.994-.129.607 0 1.149.103 1.627.314v1.135c-.514-.338-1.107-.506-1.777-.506-.21 0-.398.024-.567.072-.169.047-.314.114-.435.202-.12.086-.214.189-.279.31-.067.121-.1.254-.1.401 0 .181.033.334.1.457.065.123.162.232.29.328.128.095.282.183.465.259.182.079.389.163.622.254.309.118.588.241.834.366s.456.267.629.423c.172.159.306.338.4.543.093.206.14.45.14.733 0 .346-.077.646-.23.902-.152.254-.356.467-.611.635-.255.17-.549.295-.882.377-.333.082-.682.123-1.046.123-.72 0-1.345-.139-1.873-.418" fill="#525252"></path><path d="M326.958 48.0333v-7.065l7.064 3.646z" fill="#959595"></path><path d="M534.0107 67.5372v3.527h1.559c.674 0 1.197-.16 1.568-.478.372-.32.558-.758.558-1.313 0-1.158-.789-1.736-2.366-1.736h-1.319zm0-4.197v3.164h1.176c.629 0 1.123-.151 1.483-.453.361-.305.54-.731.54-1.284 0-.951-.627-1.427-1.88-1.427h-1.319zm-1.148 8.763v-9.802h2.789c.847 0 1.519.207 2.016.621.497.416.745.955.745 1.621 0 .555-.15 1.039-.451 1.449-.301.41-.716.701-1.244.875v.027c.661.077 1.189.327 1.586.748.396.422.595.969.595 1.645 0 .838-.301 1.518-.903 2.037-.601.52-1.36.779-2.276.779h-2.857zM544.3877 66.2384c-.196-.15-.479-.227-.848-.227-.478 0-.879.227-1.199.678-.322.451-.482 1.067-.482 1.846v3.568h-1.121v-7h1.121v1.442h.027c.159-.493.403-.875.731-1.151.329-.277.696-.414 1.101-.414.292 0 .515.031.67.096v1.162zM548.4277 65.8829c-.72 0-1.29.244-1.709.734-.419.491-.629 1.166-.629 2.028 0 .828.212 1.482.636 1.961.424.478.991.718 1.702.718.725 0 1.281-.234 1.672-.705.389-.468.584-1.136.584-2.002 0-.875-.195-1.55-.584-2.023-.391-.475-.947-.711-1.672-.711m-.082 6.385c-1.034 0-1.86-.328-2.479-.981-.617-.654-.925-1.521-.925-2.601 0-1.176.321-2.094.964-2.756.642-.66 1.51-.99 2.604-.99 1.044 0 1.858.32 2.443.963.586.642.879 1.533.879 2.673 0 1.116-.315 2.01-.947 2.684-.631.672-1.478 1.008-2.539 1.008M562.4414 65.1036l-2.099 7h-1.162l-1.442-5.012c-.055-.191-.091-.408-.109-.648h-.028c-.014.164-.061.375-.143.635l-1.566 5.025h-1.121l-2.119-7h1.176l1.449 5.264c.046.158.077.369.096.629h.054c.014-.202.055-.416.123-.643l1.614-5.25h1.025l1.449 5.277c.046.168.08.377.103.629h.054c.009-.177.048-.388.117-.629l1.422-5.277h1.107zM563.3164 71.8497v-1.203c.61.451 1.283.678 2.017.678.984 0 1.476-.329 1.476-.985 0-.187-.042-.345-.126-.474-.085-.131-.199-.246-.342-.346-.144-.102-.312-.191-.505-.27-.195-.08-.403-.164-.626-.25-.31-.123-.582-.248-.818-.373-.234-.125-.43-.265-.588-.423-.156-.157-.275-.336-.355-.538-.079-.199-.119-.435-.119-.703 0-.328.075-.619.225-.871.151-.254.351-.465.602-.637.251-.169.536-.298.858-.386.321-.086.653-.129.994-.129.607 0 1.149.103 1.627.314v1.135c-.514-.338-1.107-.506-1.777-.506-.21 0-.398.024-.567.072-.169.047-.314.114-.435.202-.12.086-.214.189-.279.31-.067.121-.1.254-.1.401 0 .181.033.334.1.457.065.123.162.232.29.328.128.095.282.183.465.259.182.079.389.163.622.254.309.118.588.241.834.366s.456.267.629.423c.172.159.306.338.4.543.093.206.14.45.14.733 0 .346-.077.646-.23.902-.152.254-.356.467-.611.635-.255.17-.549.295-.882.377-.333.082-.682.123-1.046.123-.72 0-1.345-.139-1.873-.418M574.1582 67.9337c-.005-.648-.161-1.15-.468-1.512-.308-.359-.735-.539-1.282-.539-.528 0-.978.19-1.347.567-.369.379-.596.873-.683 1.484h3.78zm1.148.949h-4.942c.019.78.228 1.381.629 1.805.401.424.952.637 1.654.637.788 0 1.513-.26 2.174-.78v1.053c-.615.445-1.429.67-2.44.67-.99 0-1.766-.318-2.331-.953-.566-.637-.848-1.531-.848-2.684 0-1.09.309-1.976.926-2.662.618-.687 1.384-1.029 2.301-1.029.916 0 1.625.295 2.125.889.501.591.752 1.414.752 2.466v.588zM580.6523 66.2384c-.196-.15-.479-.227-.848-.227-.478 0-.879.227-1.199.678-.322.451-.482 1.067-.482 1.846v3.568h-1.121v-7h1.121v1.442h.027c.159-.493.403-.875.731-1.151.329-.277.696-.414 1.101-.414.292 0 .515.031.67.096v1.162z" fill="#525252"></path><path d="M579.3193 52.3175h-46.326c-1.043 0-1.889-.846-1.889-1.889v-28.199h50.105v28.199c0 1.043-.846 1.889-1.89 1.889" fill="#54B3DB"></path><path d="M535.3125 52.3175h-2.319c-1.043 0-1.889-.846-1.889-1.889v-28.199h32.583l-28.375 30.088z" fill="#77C3E3"></path><path d="M581.209 22.3019h-50.104v-10.21c0-1.043.845-1.889 1.888-1.889h46.326c1.044 0 1.89.846 1.89 1.889v10.21z" fill="#A0A1A2"></path><path d="M563.75 22.3019h-32.646v-10.21c0-1.043.846-1.889 1.889-1.889h41.757l-11 12.099z" fill="#B3B4B5"></path><path d="M544.27 18.42h33.72v-4.062h-33.72z" fill="#FFF"></path><path d="M542.1865 16.5177c0 2.52-2.043 4.562-4.562 4.562-2.52 0-4.562-2.042-4.562-4.562 0-2.52 2.042-4.562 4.562-4.562 2.519 0 4.562 2.042 4.562 4.562" fill="#54B3DB"></path><path d="M538.1465 19.6681l-3.094-3.093 3.094-3.094.707.708-2.387 2.386 2.387 2.386z" fill="#FFF"></path><path d="M535.937 17.018h6.25v-1h-6.25z" fill="#FFF"></path><path d="M550.4307 257.0294h25.668c1.317 0 2.385 1.068 2.385 2.385v50.723c0 1.319-1.069 2.387-2.386 2.387h-25.665c-1.318 0-2.387-1.068-2.387-2.387v-50.724c0-1.317 1.068-2.384 2.384-2.384h.001z" fill="#333"></path><path d="M549.529 304.571h27.341v-39.699h-27.341z" fill="#F4F4F4"></path><path d="M571.6045 260.6193c0 .224-.182.404-.405.404h-15.999c-.223 0-.405-.18-.405-.404-.001-.223.179-.403.402-.404H571.1985c.222-.001.404.178.405.401v.003h.001z" fill="#000"></path><path d="M563.2656 306.7257c1.027 0 1.86.833 1.86 1.86 0 1.028-.833 1.861-1.86 1.861-1.027 0-1.86-.833-1.86-1.861 0-1.027.833-1.86 1.86-1.86" fill="#737373"></path><path d="M147.6738 197.0392l-1.538-4.177c-.05-.136-.101-.355-.15-.656h-.028c-.046.278-.097.497-.157.656l-1.524 4.177h3.397zm2.687 3.78h-1.272l-1.039-2.748h-4.156l-.978 2.748h-1.278l3.76-9.802h1.189l3.774 9.802zM156.5332 194.1408l-4.143 5.722h4.102v.957h-5.749v-.349l4.143-5.694h-3.753v-.957h5.4zM163.6426 200.8195h-1.121v-1.107h-.027c-.465.847-1.185 1.271-2.161 1.271-1.668 0-2.502-.993-2.502-2.98v-4.184h1.115v4.006c0 1.476.565 2.215 1.695 2.215.547 0 .997-.201 1.351-.606.352-.402.529-.93.529-1.582v-4.033h1.121v7zM169.5557 194.9542c-.196-.15-.479-.226-.848-.226-.478 0-.879.226-1.199.677-.322.451-.482 1.067-.482 1.846v3.568h-1.121v-7h1.121v1.443h.027c.159-.493.403-.876.731-1.152.329-.276.696-.414 1.101-.414.292 0 .515.032.67.096v1.162zM175.0654 196.6495c-.005-.647-.161-1.15-.468-1.511-.308-.36-.735-.54-1.282-.54-.528 0-.978.19-1.347.568-.369.378-.596.873-.683 1.483h3.78zm1.148.95h-4.942c.019.779.228 1.381.629 1.805.401.424.952.636 1.654.636.788 0 1.513-.26 2.174-.78v1.053c-.615.446-1.429.67-2.44.67-.99 0-1.766-.318-2.331-.953-.566-.637-.848-1.53-.848-2.684 0-1.089.309-1.976.926-2.662.618-.686 1.384-1.029 2.301-1.029.916 0 1.625.296 2.125.889.501.592.752 1.415.752 2.467v.588zM183.043 192.0558v3.555h1.559c.287 0 .552-.043.796-.13.244-.087.455-.211.632-.372.178-.162.317-.361.417-.596.101-.234.151-.497.151-.789 0-.524-.17-.934-.51-1.227-.339-.295-.83-.441-1.473-.441h-1.572zm5.879 8.764h-1.367l-1.641-2.748c-.15-.255-.296-.473-.437-.653-.142-.18-.287-.327-.434-.441-.148-.114-.309-.197-.479-.25-.171-.052-.364-.078-.578-.078h-.943v4.17h-1.148v-9.803h2.925c.429 0 .825.054 1.186.16.363.108.678.271.943.489.268.219.476.492.626.818.151.325.226.707.226 1.144 0 .342-.051.656-.154.94-.102.285-.249.539-.438.762-.188.224-.416.414-.684.572-.265.156-.565.278-.898.365v.027c.164.074.307.157.428.25.12.093.235.203.344.331.11.128.218.273.326.435.106.161.226.35.358.563l1.839 2.947zM194.2061 196.6495c-.005-.647-.161-1.15-.468-1.511-.308-.36-.735-.54-1.282-.54-.528 0-.978.19-1.347.568-.369.378-.596.873-.683 1.483h3.78zm1.148.95h-4.942c.019.779.228 1.381.629 1.805.401.424.952.636 1.654.636.788 0 1.513-.26 2.174-.78v1.053c-.615.446-1.429.67-2.44.67-.99 0-1.766-.318-2.331-.953-.566-.637-.848-1.53-.848-2.684 0-1.089.309-1.976.926-2.662.618-.686 1.384-1.029 2.301-1.029.916 0 1.625.296 2.125.889.501.592.752 1.415.752 2.467v.588zM201.9033 197.6544v-1.032c0-.566-.187-1.044-.561-1.436-.374-.391-.847-.588-1.421-.588-.684 0-1.222.251-1.614.752-.391.501-.588 1.195-.588 2.078 0 .807.188 1.444.565 1.911.375.467.88.701 1.514.701.624 0 1.13-.226 1.521-.677.389-.451.584-1.021.584-1.709zm1.121 3.165h-1.121v-1.189h-.027c-.52.902-1.322 1.353-2.407 1.353-.879 0-1.582-.313-2.109-.939-.525-.627-.789-1.481-.789-2.561 0-1.157.292-2.085.875-2.782.583-.697 1.36-1.046 2.331-1.046.962 0 1.661.378 2.099 1.135h.027v-4.334h1.121v10.363zM205.294 200.819h1.121v-7h-1.121v7zm.574-8.777c-.2 0-.371-.068-.513-.205-.141-.137-.211-.31-.211-.519 0-.21.07-.384.211-.524.142-.139.313-.208.513-.208.205 0 .379.069.524.208.142.14.214.314.214.524 0 .2-.072.371-.214.512-.145.142-.319.212-.524.212zM208.2607 200.5665v-1.203c.61.451 1.283.677 2.017.677.984 0 1.476-.328 1.476-.985 0-.186-.042-.345-.126-.474-.085-.131-.199-.245-.342-.346-.144-.101-.312-.19-.505-.27-.195-.08-.403-.163-.626-.25-.31-.123-.582-.247-.818-.373-.234-.125-.43-.265-.588-.423-.156-.157-.275-.336-.355-.537-.079-.2-.119-.435-.119-.704 0-.328.075-.619.225-.871.151-.254.351-.465.602-.637.251-.169.536-.298.858-.385.321-.087.653-.13.994-.13.607 0 1.149.104 1.627.314v1.135c-.514-.337-1.107-.506-1.777-.506-.21 0-.398.024-.567.072-.169.047-.314.115-.435.202-.12.087-.214.19-.279.31-.067.121-.1.255-.1.401 0 .182.033.335.1.458.065.123.162.232.29.328.128.095.282.182.465.259.182.078.389.163.622.253.309.119.588.241.834.366.246.126.456.267.629.423.172.159.306.339.4.544.093.206.14.45.14.732 0 .347-.077.647-.23.902-.152.255-.356.467-.611.636-.255.169-.549.294-.882.376-.333.082-.682.123-1.046.123-.72 0-1.345-.139-1.873-.417M225.2822 200.4093c-.725.383-1.627.574-2.707.574-1.395 0-2.511-.449-3.35-1.346-.839-.898-1.257-2.077-1.257-3.535 0-1.567.471-2.835 1.415-3.8.943-.966 2.139-1.45 3.588-1.45.93 0 1.701.135 2.311.404v1.223c-.702-.391-1.477-.588-2.324-.588-1.126 0-2.038.376-2.738 1.128-.7.752-1.049 1.757-1.049 3.015 0 1.194.327 2.146.98 2.854.654.709 1.513 1.063 2.574 1.063.985 0 1.837-.219 2.557-.656v1.114zM231.0176 197.2784l-1.688.232c-.52.074-.912.202-1.176.387-.265.184-.397.511-.397.981 0 .341.122.621.365.838.245.215.57.324.975.324.556 0 1.016-.196 1.377-.584.363-.391.544-.884.544-1.481v-.697zm1.121 3.541h-1.121v-1.094h-.027c-.488.839-1.205 1.258-2.154 1.258-.697 0-1.243-.184-1.636-.554-.395-.369-.592-.859-.592-1.469 0-1.308.77-2.07 2.31-2.284l2.099-.294c0-1.189-.48-1.784-1.442-1.784-.843 0-1.605.287-2.284.862v-1.149c.689-.437 1.482-.656 2.379-.656 1.646 0 2.468.87 2.468 2.611v4.553zM239.0225 200.4982c-.538.323-1.176.485-1.914.485-.998 0-1.804-.324-2.416-.974-.613-.649-.92-1.491-.92-2.526 0-1.153.33-2.079.991-2.779.661-.699 1.543-1.049 2.646-1.049.615 0 1.157.114 1.627.342v1.148c-.52-.364-1.076-.546-1.668-.546-.716 0-1.303.255-1.76.769-.459.512-.688 1.186-.688 2.02 0 .82.215 1.467.647 1.941.43.474 1.008.711 1.732.711.611 0 1.185-.203 1.723-.608v1.066zM246.5283 200.8195h-1.121v-4.033c0-1.458-.542-2.188-1.627-2.188-.547 0-1.007.211-1.381.633-.374.421-.56.962-.56 1.623v3.965h-1.122v-10.363h1.122v4.525h.027c.538-.884 1.304-1.326 2.297-1.326 1.577 0 2.365.95 2.365 2.851v4.313zM253.1182 196.6495c-.005-.647-.161-1.15-.468-1.511-.308-.36-.735-.54-1.282-.54-.528 0-.978.19-1.347.568-.369.378-.596.873-.683 1.483h3.78zm1.148.95h-4.942c.019.779.228 1.381.629 1.805.401.424.952.636 1.654.636.788 0 1.513-.26 2.174-.78v1.053c-.615.446-1.429.67-2.44.67-.99 0-1.766-.318-2.331-.953-.566-.637-.848-1.53-.848-2.684 0-1.089.309-1.976.926-2.662.618-.686 1.384-1.029 2.301-1.029.916 0 1.625.296 2.125.889.501.592.752 1.415.752 2.467v.588z" fill="#525252"></path><path d="M50.4873 267.1896v-16.474h-20.967v16.474h6.611l3.873 3.872 3.872-3.872h6.611zm-22.465-17.972h23.962v19.469h-7.488l-4.492 4.493-4.494-4.493h-7.488v-19.469z" fill="#000"></path><path d="M47.604 161.407h6.754v-29.839h-6.754zM39.287 161.407h6.755v-23.236h-6.755zM30.921 161.407h6.754v-14.818h-6.754zM22.554 161.407h6.754v-9.728h-6.754z" fill="#3999D5"></path><path d="M56.0186 157.8566c0 4.98-4.037 9.018-9.017 9.018-4.98 0-9.017-4.038-9.017-9.018 0-4.979 4.037-9.017 9.017-9.017 4.98 0 9.017 4.038 9.017 9.017" fill="#FFF"></path><path d="M47.002 153.0167c-2.649 0-4.806 2.156-4.806 4.806 0 2.649 2.157 4.805 4.806 4.805s4.806-2.156 4.806-4.805c0-2.65-2.157-4.806-4.806-4.806m0 12.611c-4.304 0-7.806-3.502-7.806-7.805 0-4.304 3.502-7.806 7.806-7.806s7.806 3.502 7.806 7.806c0 4.303-3.502 7.805-7.806 7.805" fill="#389BD5"></path><path d="M56.3994 169.4093l-6.066-5.997 2.109-2.133 6.066 5.997z" fill="#389BD5"></path><path d="M24 145.0656l-2.146-2.096c.448-.496 4.79-6.188 7.42-9.659.285-.374.727-.594 1.196-.594h.03l6.962.14 11.463-9.723 1.941 2.287-11.896 10.09c-.28.238-.61.354-1.001.357l-6.766-.136c-2.697 3.557-6.771 8.903-7.203 9.334" fill="#3B98D3"></path><path d="M51.6963 128.1456h-3v-2.989h-2.989v-3h4.489c.828 0 1.5.672 1.5 1.5v4.489z" fill="#3B98D3"></path><path d="M55.7832 44.8126l4.644 4.048v-5.682l.395-.213c4.513-2.423 7.207-6.348 7.207-10.503 0-7.103-7.649-12.882-17.052-12.882-9.403 0-17.052 5.779-17.052 12.882 0 7.104 7.649 12.883 17.052 12.883 1.455 0 2.951-.154 4.443-.459l.363-.074zm4.994 5.975c-.27 0-.535-.097-.75-.286l-4.673-4.074c-1.469.278-2.94.418-4.377.418-10.23 0-18.552-6.452-18.552-14.383 0-7.93 8.322-14.382 18.552-14.382s18.552 6.452 18.552 14.382c0 4.59-2.833 8.901-7.602 11.607v5.57c0 .455-.258.855-.672 1.043-.155.07-.318.105-.478.105z" fill="#959595"></path><path d="M32.0029 13.1447c-11.474 0-20.774 7.123-20.774 15.91 0 5.596 3.781 10.508 9.485 13.345v7.474c0 .391.459.599.753.343l6.389-5.571c1.34.208 2.727.319 4.147.319 11.475 0 20.775-7.123 20.775-15.91 0-8.787-9.3-15.91-20.775-15.91" fill="#FFF"></path><path d="M32.0029 13.8947c-11.041 0-20.024 6.801-20.024 15.16 0 5.111 3.39 9.849 9.069 12.673l.416.207v7.29l6.162-5.374.345.054c1.328.206 2.684.31 4.032.31 11.042 0 20.025-6.8 20.025-15.16 0-8.359-8.983-15.16-20.025-15.16m-10.831 37.187c-.169 0-.34-.038-.503-.111-.435-.198-.705-.618-.705-1.097v-7.015c-5.949-3.108-9.485-8.239-9.485-13.804 0-9.186 9.656-16.66 21.524-16.66 11.869 0 21.525 7.474 21.525 16.66 0 9.187-9.656 16.66-21.525 16.66-1.308 0-2.623-.092-3.915-.276l-6.128 5.344c-.227.196-.505.299-.788.299" fill="#959595"></path><path d="M25.7402 29.3341c0 1.101-.893 1.993-1.993 1.993-1.102 0-1.993-.892-1.993-1.993 0-1.102.891-1.994 1.993-1.994 1.1 0 1.993.892 1.993 1.994M34.4893 29.3341c0 1.101-.893 1.993-1.994 1.993s-1.993-.892-1.993-1.993c0-1.102.892-1.994 1.993-1.994s1.994.892 1.994 1.994M43.2666 29.3341c0 1.101-.893 1.993-1.993 1.993-1.102 0-1.994-.892-1.994-1.993 0-1.102.892-1.994 1.994-1.994 1.1 0 1.993.892 1.993 1.994" fill="#54B3DB"></path><path d="M410.1924 254.7443h-36.529c-1.266 0-2.292 1.026-2.292 2.292v29.36c0 1.266 1.026 2.292 2.292 2.292h9.087c.764 2.462 3.06 4.249 5.773 4.249 2.713 0 5.009-1.787 5.773-4.249.177-.567.272-1.171.272-1.796 0-.668-.112-1.308-.313-1.909-.799-2.402-3.061-4.136-5.732-4.136-2.671 0-4.933 1.734-5.732 4.136h-7.9v-22.13h33.733v22.13h-6.42c-.93-6.725-6.699-11.906-13.681-11.906-2.345 0-4.552.585-6.486 1.615l1.839 3.479c1.386-.74 2.965-1.168 4.647-1.168 4.809 0 8.814 3.432 9.703 7.98.121.618.187 1.256.187 1.909 0 .614-.06 1.213-.166 1.796-.846 4.604-4.876 8.093-9.724 8.093-1.755 0-3.4-.463-4.829-1.265l-1.731 3.534c1.951 1.056 4.185 1.657 6.56 1.657 7.021 0 12.815-5.238 13.695-12.019h7.974c1.266 0 2.291-1.026 2.291-2.292v-29.36c0-1.266-1.025-2.292-2.291-2.292M410.1924 123.3116h-36.529c-1.266 0-2.292 1.026-2.292 2.292v29.36c0 1.266 1.026 2.292 2.292 2.292h9.087c.764 2.461 3.06 4.249 5.773 4.249 2.713 0 5.009-1.788 5.773-4.249.177-.567.272-1.171.272-1.797 0-.667-.112-1.307-.313-1.908-.799-2.402-3.061-4.136-5.732-4.136-2.671 0-4.933 1.734-5.732 4.136h-7.9v-22.13h33.733v22.13h-6.42c-.93-6.726-6.699-11.906-13.681-11.906-2.345 0-4.552.585-6.486 1.615l1.839 3.479c1.386-.741 2.965-1.168 4.647-1.168 4.809 0 8.814 3.432 9.703 7.98.121.617.187 1.256.187 1.908 0 .615-.06 1.214-.166 1.797-.846 4.604-4.876 8.093-9.724 8.093-1.755 0-3.4-.463-4.829-1.265l-1.731 3.534c1.951 1.055 4.185 1.657 6.56 1.657 7.021 0 12.815-5.238 13.695-12.019h7.974c1.266 0 2.291-1.026 2.291-2.292v-29.36c0-1.266-1.025-2.292-2.291-2.292" fill="#0076C3"></path><path d="M538.2422 137.0021v12.571l16.333.105v-14.87zM538.208 151.1056v12.919l16.332 2.299v-15.044zM556.1768 151.3146l.035 15.113 21.869 2.96v-18.073zM556.2461 134.3898l-.069 15.253 21.973-.174-.069-18.073z" fill="#54B3DB"></path><path d="M39.4219 261.9122l-.24-8.203h1.64l-.238 8.203h-1.162zm-.428 2.443c0-.615.428-1.058 1.008-1.058.615 0 1.009.443 1.009 1.058 0 .598-.394 1.061-1.009 1.061-.598 0-1.008-.463-1.008-1.061z" fill="#000"></path><path d="M170.916 159.0558c-.014.099-.014.198 0 .297v-.259c-.001-.013 0-.025 0-.038" fill="#389CD6"></path><path d="M221.3359 141.9435c-.033.103-.108.23-.281.306l-21.576 9.377c-1.872.815-4.029.834-5.914.05l-21.868-9.088c-.274-.115-.383-.349-.4-.553.006-.256.143-.472.36-.573l21.66-8.748c.936-.377 1.919-.567 2.904-.567.973 0 1.948.186 2.875.556l21.968 8.772c.146.068.243.19.279.337.01.043.006.089-.007.131zm-.326 8.227c.203.092.223.276.223.35-.001.074-.024.258-.227.346l-21.579 9.283c-.941.41-1.938.618-2.964.618-.982 0-1.94-.191-2.849-.568l-21.867-9.089c-.294-.123-.322-.395-.323-.476-.002-.08.016-.353.305-.486l2.114-.974 18.378 7.64c1.344.558 2.781.837 4.218.837 1.498 0 2.995-.304 4.382-.908l18.112-7.519 2.077.946zm0 8.576c.203.092.223.275.223.35-.001.075-.024.257-.227.346l-21.579 9.283c-.941.41-1.938.617-2.964.617-.982 0-1.94-.19-2.849-.568l-21.867-9.089c-.294-.122-.322-.394-.323-.474-.002-.081.016-.354.305-.487l2.595-1.195 18.047 7.501c1.302.542 2.685.811 4.068.811 1.442 0 2.883-.294 4.233-.881l17.754-7.391 2.584 1.177zm1.122-16.946c-.048-.452-.324-.84-.763-1.04l-21.984-8.78c-2.052-.819-4.31-.815-6.359.013l-21.676 8.755c-.46.211-.762.628-.824 1.115-.005.026-.001 5.121-.001 5.121 0 .018.002.035.004.053.071.506.396.925.869 1.122l1.792.745-1.678.772c-.4.185-.599.556-.606.93 0-.005-.001-.01-.001-.016v.059l.01 4.91c.047.341.259.661.633.816l2.124.883-2.16.995c-.355.163-.551.473-.596.802 0 .013.01 5.006.01 5.006.047.342.259.661.633.817l20.962 8.728c1.301.541 2.684.812 4.067.812 1.442 0 2.884-.295 4.233-.883l20.404-8.492c.387-.169.567-.544.537-.905 0 0-.008-5.065-.01-5.049-.001-.328-.176-.656-.527-.816l-2.145-.976 2.148-.894c.387-.169.567-.545.537-.904 0 0-.018-5.063-.018-5.062-.026-.302-.198-.593-.522-.74l-1.637-.745 1.777-.738c.51-.221.811-.721.772-1.276 0 0-.003-5.12-.005-5.138z" fill="#389CD6"></path><path d="M191.7676 141.7413c0 1.519-2.732 2.75-6.103 2.75-3.37 0-6.102-1.231-6.102-2.75s2.732-2.75 6.102-2.75c3.371 0 6.103 1.231 6.103 2.75M188.1934 146.2531l.105.049 9.002 4.173 3.291-5.651zM207.2725 145.0568v-6.581l7.279 3.29z" fill="#389CD6"></path><path d="M207.2725 145.0568l-7.08-3.291 7.08-3.29z" fill="#197FB2"></path><path d="M193.9434 137.8771l.964 2.26 2.593-1.994 4.786.299-3.274-1.77 2.144-1.994-4.637.947-3.665-1.546.499 2.244s-4.362 1.121-4.288 1.121c.075 0 4.878.433 4.878.433" fill="#389CD6"></path></g></svg>