<svg aria-labelledby="onboarding-customers-with-a-cloud-native-serverless-architecture" height="410.445" viewBox="0 0 943.571 410.445" width="943.571" xmlns="http://www.w3.org/2000/svg"><title id="onboarding-customers-with-a-cloud-native-serverless-architecture">Customer onboarding process powered by a serverless architecture</title><desc>The solution demonstrates a business process for customer onboarding. This serverless architecture enables you to build and run applications without having to worry about the underlying infrastructure and the associated management and maintenance.</desc><line fill="none" stroke="#969696" stroke-miterlimit="10" stroke-width="1.5" x1="504.114" x2="439.098" y1="365.326" y2="365.326"></line><polygon fill="#969696" points="502.582 360.09 511.649 365.326 502.582 370.561 502.582 360.09"></polygon><line fill="none" stroke="#969696" stroke-miterlimit="10" stroke-width="1.5" x1="675.62" x2="610.604" y1="365.326" y2="365.326"></line><polygon fill="#969696" points="674.087 360.09 683.154 365.326 674.087 370.561 674.087 360.09"></polygon><line fill="none" stroke="#969696" stroke-miterlimit="10" stroke-width="1.5" x1="158.891" x2="93.875" y1="196.512" y2="196.512"></line><polygon fill="#969696" points="157.359 191.277 166.426 196.512 157.359 201.748 157.359 191.277"></polygon><line fill="none" stroke="#969696" stroke-miterlimit="10" stroke-width="1.5" x1="42.524" x2="42.524" y1="157.452" y2="92.436"></line><polygon fill="#969696" points="47.76 155.92 42.524 164.987 37.289 155.92 47.76 155.92"></polygon><text fill="#5b5b5b" font-family="SegoeUI, Segoe UI" font-size="14" transform="translate(0 244.357)">H<tspan letter-spacing="0.019em" x="9.939" y="0">T</tspan><tspan x="17.541" y="0">TP </tspan><tspan letter-spacing="-0.028em" x="36.552" y="0">R</tspan><tspan x="44.536" y="0">equest</tspan></text><text fill="#5b5b5b" font-family="SegoeUI, Segoe UI" font-size="14" transform="translate(164.113 244.357)">API Management</text><path d="M55.836,214.828a20.866,20.866,0,0,1-29.416-3.778A20.817,20.817,0,0,1,30.2,181.634a20.909,20.909,0,0,1,29.416,3.778A20.832,20.832,0,0,1,55.836,214.828Z" fill="#59b4d9"></path><path d="M51.833,202.009a4.888,4.888,0,0,0,6.521.846c0-.207,0-.207.208-.414,2.1,1.467,3.364,2.519,4.192,2.934.224-.621.431-1.26.639-1.674-.846-.639-2.1-1.691-3.572-2.95a5.516,5.516,0,0,0-.638-4.4A4.81,4.81,0,0,0,53.3,195.3c-2.088-1.9-4.607-4.209-6.918-6.521,7.556-4.192,13.025-3.571,13.025-3.571a13.945,13.945,0,0,0-2.95-3.14,23.382,23.382,0,0,0-14.078,2.519h0c-1.88-1.9-3.778-4-5.883-6.314a16.674,16.674,0,0,0-2.726,1.052,41.994,41.994,0,0,0,5.676,7.143h0a61.6,61.6,0,0,0-5.883,5.055,2.87,2.87,0,0,1-.638.828,6.823,6.823,0,0,0-3.572.224,16.146,16.146,0,0,1-1.466-9.041,13.674,13.674,0,0,0-2.1,2.726,12.355,12.355,0,0,0,.845,8.4,6.3,6.3,0,0,0,0,7.781c0,.208.207.414.414.621a24.033,24.033,0,0,0-1.259,7.367c.207.207.207.414.431.621a25.687,25.687,0,0,0,3.347,3.364,29.707,29.707,0,0,1,1.484-9.454,6.536,6.536,0,0,0,2.933-.638c.638.638,1.259,1.052,1.69,1.484a34.76,34.76,0,0,0,6.3,3.985,3.711,3.711,0,0,0,.621,2.95,4.337,4.337,0,0,0,5.883.828c.431-.414.846-.621,1.052-1.052a42.588,42.588,0,0,0,8.195.845c.431,0,1.9-2.1,2.743-3.364a22.962,22.962,0,0,1-10.3-.621,4.337,4.337,0,0,0-.845-1.69,4.062,4.062,0,0,0-5.469-1.052,26.466,26.466,0,0,1-5.866-3.778,5.718,5.718,0,0,0-1.052-.846,6.157,6.157,0,0,0,.208-6.3c.207-.414.621-.621.845-.846,1.881-1.674,3.778-3.14,5.452-4.4l-.207-.208.207.208a74.384,74.384,0,0,0,7.988,6.711A4.96,4.96,0,0,0,51.833,202.009Z" fill="#fff"></path><path d="M208.669,204.162h-8.9a8.045,8.045,0,0,1-8-8.1,7.92,7.92,0,0,1,8-8.1c.8,0,1.7.2,2.7.3l1.7.5.5-1.7c1.6-5.2,6.6-8.4,12.3-8.4a12,12,0,0,1,12.2,12.2,12.573,12.573,0,0,1-.5,3.3l-.7,2.5,2.7-.3h.5a3.619,3.619,0,0,1,.5,7.2h-8.9a11.03,11.03,0,0,0-3.3-6.4,11.825,11.825,0,0,0-8.3-3.5,11.415,11.415,0,0,0-6.1,1.7l1.9,3a8.47,8.47,0,0,1,4.4-1.1,7.433,7.433,0,0,1,5.8,2.5,8.11,8.11,0,0,1,2.5,5.8,7.433,7.433,0,0,1-2.5,5.8,7.824,7.824,0,0,1-10.2,1.1l-1.9,3a12.793,12.793,0,0,0,6.1,1.9,11.322,11.322,0,0,0,8.3-3.4,11.763,11.763,0,0,0,3.3-7h9.3a7.023,7.023,0,0,0,6.3-7.2c0-3-2.8-5.8-6.1-6.4a4.99,4.99,0,0,0,.2-1.9c0-8.8-6.2-15.8-16.1-15.8h0a15.043,15.043,0,0,0-14.2,9.4c-.8,0-1.4-.3-2.3-.3a11.3,11.3,0,1,0-.3,22.6h9.8Z" fill="#59b4d9"></path><circle cx="210.969" cy="205.462" fill="#68217a" r="5.6"></circle><text fill="#525252" font-family="SegoeUI, Segoe UI" font-size="14" transform="translate(511.314 77.337)">Cogniti<tspan letter-spacing="-0.006em" x="44.563" y="0">v</tspan><tspan x="51.188" y="0">e Se</tspan><tspan letter-spacing="0.04em" x="77.103" y="0">r</tspan><tspan x="82.53" y="0">vices</tspan><tspan letter-spacing="-0.037em" x="30.348" y="16.8">F</tspan><tspan x="36.665" y="16.8">ace API</tspan></text><text fill="#5b5b5b" font-family="SegoeUI, Segoe UI" font-size="14" transform="translate(362.246 404.637)"><tspan letter-spacing="-0.037em">P</tspan><tspan x="7.321" y="0">o</tspan><tspan letter-spacing="-0.005em" x="15.524" y="0">w</tspan><tspan x="25.573" y="0">erBI</tspan></text><path d="M405.9,374.276h-.985V372.31h.985a3.788,3.788,0,0,0,3.782-3.782V348.44a3.788,3.788,0,0,0-3.782-3.782H368.65a3.789,3.789,0,0,0-3.784,3.782v20.086a3.789,3.789,0,0,0,3.784,3.782h.983v1.966h-.983a5.752,5.752,0,0,1-5.751-5.747V348.44a5.757,5.757,0,0,1,5.751-5.749H405.9a5.755,5.755,0,0,1,5.749,5.749v20.086a5.754,5.754,0,0,1-5.749,5.751m-31.213,4.906a2.67,2.67,0,0,0,2.669-2.669l0-6.153a2.669,2.669,0,1,0-5.338,0l0,6.151a2.67,2.67,0,0,0,2.669,2.669m8.391,0a2.67,2.67,0,0,0,2.669-2.669l0-15.793a2.669,2.669,0,1,0-5.338,0l0,15.793a2.67,2.67,0,0,0,2.669,2.669m16.783-.077a2.67,2.67,0,0,0,2.669-2.669l0-22.367a2.669,2.669,0,1,0-5.338,0l0,22.369a2.671,2.671,0,0,0,2.669,2.667m-8.389.077a2.67,2.67,0,0,0,2.669-2.669l0-11.731a2.669,2.669,0,0,0-5.338,0l0,11.731a2.668,2.668,0,0,0,2.669,2.669" fill="#edbd11"></path><text fill="#5b5b5b" font-family="SegoeUI, Segoe UI" font-size="14" transform="translate(525.662 405.94)">MailChimp</text><path d="M576.269,361.352c-.039.127-3.723,14.286-18.2,14.282-12.511,0-18.441-10.878-18.441-10.878a6.483,6.483,0,0,1-2.6-.392,7.168,7.168,0,0,1-4.165-9.071l-2.017-1.542c-7.815-5.953,14.323-33.194,22.151-27.03l1.869,1.5a15.97,15.97,0,0,1,7.857-2.63,5.059,5.059,0,0,1,3.856,1.445c2.032,2.2,1.3,6.4-1.473,10.654a6.982,6.982,0,0,1,1.444,2.1,5,5,0,0,1,1.738,3.144c.316,1.589.382,3.852.58,4.825.748.338.429.181,1.227.58a10.89,10.89,0,0,1,2.964,2,2.541,2.541,0,0,1,1.585,4.058c-.031.039-.172.205-.317.371a7.485,7.485,0,0,1,.692,1.969,2.629,2.629,0,0,1,1.826,1.438C577.442,359.619,576.269,361.352,576.269,361.352Zm-5.737,10.693v.593h.227v-.593h.232v-.187H570.3v.187Zm.529-.187v.78h.207v-.563l.169.563h.176l.169-.564v.564h.207v-.78h-.324l-.14.449-.142-.449Z" fill="#684c46"></path><path d="M542.584,356.025h0a12.393,12.393,0,0,0,.474-1.459,9.222,9.222,0,0,1,.473,3.436h0a7.076,7.076,0,0,0,.62-1.148,5.257,5.257,0,0,1-4.984,6.275,5.337,5.337,0,0,1,0-10.66,4.831,4.831,0,0,1,2.038.449S542.282,353.46,542.584,356.025Zm27.551,11.552a12.9,12.9,0,0,0,4.676-6.926c.966-1.158.7-2.3-.573-2.3a2.383,2.383,0,0,0-.713.107,6.674,6.674,0,0,0-.777-3.007,15.732,15.732,0,0,1-4.471,3.063,20.634,20.634,0,0,1-8.21,1.947h0c-.953.041-1.543-.114-1.875,1a2.293,2.293,0,0,0,.02,1.144,2.247,2.247,0,0,0,1.894,1.541,8.04,8.04,0,0,0,1.444.178c6.9.194,12.448-5.191,12.514-5.236a1.056,1.056,0,0,0,.117-.115l-.068.159c-1,2.242-6.771,6.309-12.517,6.193l-.019.007a4.97,4.97,0,0,1-3.794-1.392c-1.332-1.652-.641-4.4,1.482-4.462l.708-.017a17.521,17.521,0,0,0,13.349-6.125c.464-.577-.054-1.369-1.061-1.393a.033.033,0,0,1-.023-.01,9.663,9.663,0,0,0-3.175-2.2c-1.956-1-1.772-.136-2.227-4.969-.123-1.3-.37-3.08-1.515-3.762a1.861,1.861,0,0,0-.969-.255,1.8,1.8,0,0,0-.567.083,2.983,2.983,0,0,0-1.43.906c-2.111,1.946-3.8,1.418-6.316,1.4a4.836,4.836,0,0,0-4.852,4.162h0a8.179,8.179,0,0,0,.139,3.279,5.265,5.265,0,0,1-.948-.805,6.63,6.63,0,0,0,2.482,3.827,3.44,3.44,0,0,1-.811.045,8.839,8.839,0,0,0,2.25,1.285,8.65,8.65,0,0,0-2.358,3.4,9.189,9.189,0,0,0-.394,3.851l.577-.86a7.543,7.543,0,0,0,.352,3.773c.242-.552.771-1.538.771-1.538a7.715,7.715,0,0,0,.907,3.744c.025-.389.174-1.379.174-1.379a7.976,7.976,0,0,0,1.882,2.986C558.669,371.076,565.18,371.47,570.136,367.577Z" fill="#f5dcba"></path><path d="M533.621,353.793a14.628,14.628,0,0,1-2.173-1.844c-1.586-2.677,1.173-8.175,3.137-11.3,4.853-7.724,12.931-13.819,16.6-12.949l3.768,1.945a30.474,30.474,0,0,0-3.725,2.62l-.8.672s-2.341,1.576-3.506,2.57c-4.668,3.983-9.264,10.149-10.968,16.1A6.465,6.465,0,0,0,533.621,353.793Z" fill="#0788bf"></path><path d="M551.185,327.7h0c-3.669-.871-11.747,5.225-16.6,12.949l0,.007.02,0,3.867,3.044a36.022,36.022,0,0,1,9.733-10.317l-.613-4.125,1.149-.55,2.305.746-.176-.77.32-.986Z" fill="#46b8e3"></path><path d="M554.953,329.645l-3.725,2.62-.261.2-3.3-2.7-.076-.51,1.149-.55,2.305.746.038-1.431.106-.325,1.009-.387Z" fill="#ffd14f"></path><path d="M562.3,327.075c-2.464,0-5.23,1.3-7.352,2.57-.3.175-.593.358-.882.545l-1.11-.931.4,1.4q-.229.157-.447.313l-2.294-.7,1.518,1.271c-.347.263-.656.509-.913.722l-3.64-3.006.193,1.347,2.646,2.331s-2.341,1.576-3.506,2.57c-4.668,3.983-9.264,10.149-10.968,16.1l.1-.054.04-.021.142-.074.091-.045c.049-.023.1-.045.146-.067l.086-.038c.053-.022.106-.042.159-.062l.073-.028c.077-.028.154-.053.23-.076a6.515,6.515,0,0,1,4.581.216,28.438,28.438,0,0,1,3.779-7,15.918,15.918,0,0,1,4.407-4.417c3.091-2.9,11.421-5.982,14.089-3.313a17.717,17.717,0,0,0,1.63-3.234C566.616,330.448,566.636,327.075,562.3,327.075Z" fill="#122030"></path><polygon fill="#122030" points="551.73 329.679 551.185 327.7 550.865 328.686 551.057 329.461 551.73 329.679"></polygon><path d="M573.527,358.456a6.674,6.674,0,0,0-.777-3.007,15.732,15.732,0,0,1-4.471,3.063,20.634,20.634,0,0,1-8.21,1.947h0c-.953.041-1.543-.114-1.875,1a1.819,1.819,0,0,0-.052.313v.011h0c0,.035-.005.071-.007.107,0,.1,0,.191,0,.269v.023c0,.049.007.1.012.14v.014a1.014,1.014,0,0,0,.062.268h0l0,.015a2.251,2.251,0,0,0,1.889,1.526,8.04,8.04,0,0,0,1.444.178c5.633.158,10.361-3.4,11.946-4.736A9.723,9.723,0,0,0,573.527,358.456Zm-16.182-30.09a13.544,13.544,0,0,1,4.171-1.252,17.278,17.278,0,0,0-5.031,2.235,62.371,62.371,0,0,0-7.531,5.978c-1.547,1.534-7.757,8.981-7.752,8.975a29.731,29.731,0,0,1,3.68-5.462c1.016-1.278,2.1-2.521,3.211-3.669q.56-.579,1.127-1.123h0A30.691,30.691,0,0,1,557.345,328.366Z" fill="#fff"></path><path d="M570.136,367.577a13.735,13.735,0,0,1-2.093,1.357,6.7,6.7,0,0,1-2.676-1.973,16.564,16.564,0,0,0,3.322-1.3,18.17,18.17,0,0,0,6.123-5.007A12.9,12.9,0,0,1,570.136,367.577Zm-4.514-17.9a1.668,1.668,0,0,0-2.424.828c.464.023.957.375.926.824a1.778,1.778,0,0,1,1.247-.488A.906.906,0,0,1,565.622,349.672Zm-8.417,11.522a2.173,2.173,0,0,1,2.06-1.719l.708-.017a17.521,17.521,0,0,0,13.349-6.125c.464-.577-.054-1.369-1.061-1.393h-.014c-.17.18-.2.509-.482,1-1.027,1.784-2.448,2.6-4.342,3.547-5.808,2.892-8.82,1.546-10.029,3.316a1.418,1.418,0,0,0-.189,1.391Zm10.509-12.127c-.556-.4-.575-1.094-.878-4.31a6.661,6.661,0,0,0-.9-3.193.854.854,0,0,0-.575-.244c-.4-.018-.845.393-1.1.674a6.145,6.145,0,0,1-2.629,2.292,7.92,7.92,0,0,1-3.623.722c-.891-.028-1.671-.175-2.436-.185a4.187,4.187,0,0,0-3.54,1.567,4.474,4.474,0,0,0-.939,2.57c0,.118.008.228.015.333.011.155.025.3.042.442a4.088,4.088,0,0,0,.152.751l0,.011c.007.024.015.048.023.07a5.265,5.265,0,0,1-.948-.805,6.492,6.492,0,0,0,2.324,3.7l.087.067.006.007.065.049a3.44,3.44,0,0,1-.811.045,8.839,8.839,0,0,0,2.25,1.285,7.812,7.812,0,0,1,4.246-1.76c.782-.485,1.622-.961,2.524-1.421a3.343,3.343,0,0,1,3.134-3.579,2.7,2.7,0,0,1,2.632,1.225c.272-.087.58-.182.923-.283A.29.29,0,0,1,567.714,349.067Zm.685,11.459a.28.28,0,0,0-.053.009c-.572.133-6.475,2.419-10.206,1.247a2.243,2.243,0,0,0,.072.82h0a10.893,10.893,0,0,0,2.108.186C565.231,362.788,568.769,360.556,568.4,360.526Zm-27.468-.458,0,0a1.425,1.425,0,0,0,.353-1.2c-.11-.618-.81-.743-1.273-1.223l-.022-.023-.023-.025v0a1.034,1.034,0,0,1-.264-.755.7.7,0,0,1,.89-.693,1.171,1.171,0,0,1,.615.456h0a1.488,1.488,0,0,0-.242-.62,2.149,2.149,0,0,0-2.255-.746h0a2.227,2.227,0,0,0-.3.077.774.774,0,0,0-.086.028c-.064.03-.124.051-.181.081h0a2.523,2.523,0,0,0-.4.245C536.491,357.289,538.625,360.238,540.932,360.067Z" fill="#eabe8d"></path><path d="M559.5,350.06c.106.155.135.273.092.322-.086.1-.392-.035-.843-.211a4.308,4.308,0,0,0-3.517.074,2.475,2.475,0,0,1-.781.238c-.212-.031-.007-.419.456-.794a3.439,3.439,0,0,1,3.3-.566A2.844,2.844,0,0,1,559.5,350.06Zm-.229,1.183a2.046,2.046,0,0,0-1.507-.3,3.257,3.257,0,0,0-.36.09.834.834,0,0,0-.122.042,2.083,2.083,0,0,0-.678.421c-.241.233-.31.45-.24.5s.236-.026.494-.131a4.142,4.142,0,0,1,2.061-.329c.281.019.47.036.513-.041C559.466,351.446,559.41,351.347,559.274,351.243Zm-18.638,4.439h0a1.7,1.7,0,0,1,.332.349c.266.377.182.6.291.7a.137.137,0,0,0,.152.028c.151-.062.225-.3.239-.47h0a1.679,1.679,0,0,0-.457-1.176h0a2.474,2.474,0,0,0-.67-.538,2.793,2.793,0,0,0-.93-.319,3.5,3.5,0,0,0-1.348.075h0c-.085.025-.189.047-.279.082a3.065,3.065,0,0,0-1.9,2h0a3.505,3.505,0,0,0-.068,1.749h0a2.358,2.358,0,0,0,.514,1.079h0c.329.355.689.287.535-.043a2.863,2.863,0,0,1-.262-1.143,3.342,3.342,0,0,1,.206-1.326,2.492,2.492,0,0,1,.374-.649,2.379,2.379,0,0,1,.785-.612h0c.057-.03.116-.051.181-.081a.761.761,0,0,1,.086-.028,2.23,2.23,0,0,1,.3-.077h0A2.252,2.252,0,0,1,540.636,355.682Zm-.166,1.5a.467.467,0,0,1-.187-.27.36.36,0,0,1,.153-.445c.134-.092.242-.136.243-.194.006-.109-.443-.222-.757.087a.975.975,0,0,0,.073,1.308c.463.5,1.183.617,1.3,1.246a1.2,1.2,0,0,1,.018.286,1.515,1.515,0,0,1-.038.284,1.39,1.39,0,0,1-1.665,1.038c-.175-.025-.288-.047-.322,0-.073.1.334.568,1.079.551a1.86,1.86,0,0,0,1.684-1.381,2.088,2.088,0,0,0,.077-.452,1.873,1.873,0,0,0-.027-.479C541.905,357.713,540.859,357.5,540.469,357.186Zm25.4-7.52c-.288-.045-.571.239-.633.634a.65.65,0,0,0,.41.8c.288.045.571-.239.633-.634A.65.65,0,0,0,565.872,349.667Zm-3.165,1.152a.859.859,0,1,0,1-.13A.734.734,0,0,0,562.707,350.819Zm-11.6-11.686c5.45-3.533,10.895-3.939,12.76-2.5h0c0-.01-.033-.092-.045-.115h0a4.129,4.129,0,0,0-2.563-1.99,3.842,3.842,0,0,1,.524.7,7.841,7.841,0,0,0-2.76-1.173s.123.088.144.108a2.659,2.659,0,0,1,.591.753,6.18,6.18,0,0,0-3.3-.412l-.133.031s.139.034.17.044a2.278,2.278,0,0,1,1.08.615,7.944,7.944,0,0,0-4.764.62,2.432,2.432,0,0,1,.248,0,3.77,3.77,0,0,1,1.49.27,8.875,8.875,0,0,0-3.6,1.474,7.379,7.379,0,0,1,1.381-.072,19.174,19.174,0,0,0-6.962,6.877h0A22.533,22.533,0,0,1,551.112,339.133Z" fill="#9c7356"></path><path d="M563.971,346.851c-.007-.376.052-1,.406-1.112h0c.6-.21,1.4,1.338,1.441,2.712a3.029,3.029,0,0,0-1.616-.291A4.653,4.653,0,0,1,563.971,346.851Z" fill="#684c46"></path><text fill="#5b5b5b" font-family="SegoeUI, Segoe UI" font-size="14" transform="translate(696.623 405.283)">CosmosDB</text><path d="M746.4,355.33a16.527,16.527,0,1,1-19.949-12.178l.029-.007a16.457,16.457,0,0,1,19.894,12.078Z" fill="#59b4d9"></path><path d="M728,365.826a4.391,4.391,0,0,0-4.4-4.381h-.665a4.365,4.365,0,0,0-4.28-5.386h-4.563a16.352,16.352,0,0,0,3.976,14.147h5.531a4.391,4.391,0,0,0,4.4-4.38Z" fill="#fff" opacity="0.5" style="isolation: isolate"></path><path d="M733.447,347.663a2.942,2.942,0,0,0,.1.761h-1.9a4.561,4.561,0,0,0,0,9.122h15.106a16.165,16.165,0,0,0-8.546-12.835h-1.8A2.959,2.959,0,0,0,733.447,347.663Z" fill="#fff" opacity="0.5" style="isolation: isolate"></path><path d="M746.753,360.936h-9.012a3.724,3.724,0,0,0-3.733,3.709,3.686,3.686,0,0,0,.449,1.767,3.711,3.711,0,0,0,1.125,7.253h2.512A16.47,16.47,0,0,0,746.753,360.936Z" fill="#fff" opacity="0.5" style="isolation: isolate"></path><path d="M711.827,348.212a.506.506,0,0,1-.508-.5h0a5.776,5.776,0,0,0-5.781-5.762.5.5,0,1,1,0-1.009,5.775,5.775,0,0,0,5.781-5.752.508.508,0,0,1,1.015,0,5.776,5.776,0,0,0,5.782,5.761.505.505,0,0,1,0,1.01,5.776,5.776,0,0,0-5.782,5.757A.507.507,0,0,1,711.827,348.212Z" fill="#b8d432"></path><path d="M747.481,380.686a.3.3,0,0,1-.3-.3,3.454,3.454,0,0,0-3.461-3.441.3.3,0,0,1,0-.6h0a3.454,3.454,0,0,0,3.457-3.442.3.3,0,0,1,.607,0,3.454,3.454,0,0,0,3.457,3.442.3.3,0,1,1,0,.6h0a3.454,3.454,0,0,0-3.457,3.443.3.3,0,0,1-.3.3Z" fill="#0072c6"></path><path d="M754.408,344.345c-1.577-2.584-5.541-3.181-11.455-1.732a47.134,47.134,0,0,0-5.431,1.732,16.666,16.666,0,0,1,3.2,2.045c1.007-.331,1.995-.629,2.937-.859a20.669,20.669,0,0,1,4.821-.683c1.938,0,3.007.479,3.364,1.062.585.957.047,3.484-3.393,7.458-.612.707-1.3,1.423-2.024,2.143a74.985,74.985,0,0,1-26.647,16.3c-5.987,1.95-10.075,1.911-10.991.414s.915-5.157,5.385-9.6a16.355,16.355,0,0,1-.367-3.847c-7.115,6.43-9.417,12-7.578,15.011.962,1.574,3.066,2.461,6.138,2.461a31.252,31.252,0,0,0,10.626-2.345,81.569,81.569,0,0,0,23.841-14.651,46.623,46.623,0,0,0,3.888-3.929C754.712,350.723,755.986,346.924,754.408,344.345Z"></path><text fill="#5b5b5b" font-family="SegoeUI, Segoe UI" font-size="14" transform="translate(857.602 244.386)">Dynamics 365</text><polygon fill="#002050" points="881.443 225.042 892.965 191.972 881.443 184.42 881.443 225.042"></polygon><polygon fill="#002050" points="917.883 204.589 917.883 185.814 881.443 225.042 917.883 204.589"></polygon><polygon fill="#002050" points="881.443 165.897 881.443 181.744 905.223 193.407 916.276 184.416 881.443 165.897"></polygon><polyline fill="none" points="512.6 32.782 300.141 32.782 300.141 187.781 300.141 204.782 300.141 364.782 344.606 364.782" stroke="#969696" stroke-miterlimit="10" stroke-width="1.5"></polyline><polygon fill="#969696" points="511.068 27.546 520.135 32.782 511.068 38.017 511.068 27.546"></polygon><circle cx="303.274" cy="364.923" fill="#a5ce00" r="14"></circle><text font-family="SegoeUI, Segoe UI" font-size="14" transform="translate(299.499 369.627)">4</text><circle cx="470.272" cy="31.923" fill="#a5ce00" r="14"></circle><text font-family="SegoeUI, Segoe UI" font-size="14" transform="translate(466.497 36.627)">2</text><circle cx="472.607" cy="365.13" fill="#a5ce00" r="14"></circle><text font-family="SegoeUI, Segoe UI" font-size="14" transform="translate(468.833 369.833)">5</text><circle cx="642.606" cy="364.923" fill="#a5ce00" r="14"></circle><text font-family="SegoeUI, Segoe UI" font-size="14" transform="translate(638.832 369.627)">6</text><polyline fill="none" points="733.657 317.2 733.657 32.214 603.117 32.214" stroke="#969696" stroke-miterlimit="10" stroke-width="1.5"></polyline><polygon fill="#969696" points="604.43 27.726 596.659 32.214 604.43 36.701 604.43 27.726"></polygon><line fill="none" stroke="#969696" stroke-miterlimit="10" stroke-width="1.5" x1="733.657" x2="837.272" y1="199.115" y2="199.115"></line><polygon fill="#969696" points="835.74 204.351 844.808 199.115 835.74 193.88 835.74 204.351"></polygon><circle cx="642.606" cy="31.923" fill="#a5ce00" r="14"></circle><text font-family="SegoeUI, Segoe UI" font-size="14" transform="translate(638.832 36.627)">3</text><text fill="#5b5b5b" font-family="SegoeUI, Segoe UI" font-size="14" transform="translate(12.716 83.57)">Cus<tspan letter-spacing="-0.008em" x="22.531" y="0">t</tspan><tspan x="27.166" y="0">omer</tspan></text><circle cx="126.383" cy="197.364" fill="#a5ce00" r="14"></circle><text font-family="SegoeUI, Segoe UI" font-size="14" transform="translate(122.608 202.067)">1</text><path d="M538.555,51.09V14.157h36.933V51.09Zm34.2-2.736V16.893H541.291V48.354Z" fill="#0063b1" id="Fill-3-Copy-3"></path><path d="M548.13,37.3a10.813,10.813,0,0,0,17.782,0l-1.757-1.133a8.726,8.726,0,0,1-14.269,0Z" fill="#0063b1" id="Page-1-Copy"></path><polygon fill="#0063b1" id="Rectangle-2" points="548.13 24.416 552.918 24.416 552.918 29.204 548.13 29.204 548.13 24.416"></polygon><polygon fill="#0063b1" id="Rectangle-2-Copy" points="561.125 24.416 565.912 24.416 565.912 29.204 561.125 29.204 561.125 24.416"></polygon><path d="M69.422,32.02A26.9,26.9,0,1,1,42.562,5.162,26.887,26.887,0,0,1,69.422,32.02Z" fill="#f2f2f2"></path><path d="M61.856,41.557c-.214-.646-.424-1.278-.574-1.792a4.227,4.227,0,0,0-3.456-3.729l.016-.079-14.6-2.95-.834,4.2-.834-4.2-14.6,2.95.015.073a4.3,4.3,0,0,0-3.241,2.74l-.032-.013a.482.482,0,0,1-.009.109l-.006.013a.23.23,0,0,1-.061.1c-.452,1.513-1.739,5.224-2.875,8.853.157.226.308.452.458.684a26.867,26.867,0,0,0,5.6,5.368c.3.226.527.377.829.609.226-.76.452-1.513.76-2.273l.075,1.362v1.438a27.558,27.558,0,0,0,13.845,3.937h.225A26.622,26.622,0,0,0,56.33,55.175V53.361c.158.527.309,1.061.459,1.513.225-.151.378-.226.6-.377a25.85,25.85,0,0,0,5.828-5.3,7.137,7.137,0,0,0,.684-.76C63.142,46.021,62.389,43.522,61.856,41.557Z" fill="#7fba00"></path><path d="M41.959,37.922c-2.8,0-5.073-1.739-5.073-4.54V29.754H47.027v3.628C47.027,36.183,44.758,37.922,41.959,37.922Z" fill="#d8b195"></path><path d="M41.959,11.064c-4.54,0-7.8,4.845-7.949,10.9a1.091,1.091,0,0,1,.151-.457c.534-1.59,3.108-.906,2.5.684a10.1,10.1,0,0,0-.829,2.952,7.984,7.984,0,0,0,.151,1.888,1.25,1.25,0,0,1,.979,1.289v2.648a7.664,7.664,0,0,0,2.5,1.664,3.9,3.9,0,0,0,4.992,0,7.374,7.374,0,0,0,2.574-1.74v-3.1a1.223,1.223,0,0,1,.985-1.212V24.23c0-.151-.151-.452,0-.151-.684-1.363,1.061-2.574,1.965-1.664C49.976,16.136,47.785,11.064,41.959,11.064Z" fill="#b8977c"></path><path d="M49.976,22.038c0,6.353-3.4,10.668-8.017,10.668s-7.949-4.315-7.949-10.668c0-6.284,3.334-11.352,7.949-11.352C47.785,10.686,49.976,15.753,49.976,22.038Z" fill="#d8b195"></path><path d="M34.77,20.6H33.709a.846.846,0,0,0-.753.906v3.177c0,.533.3.911.753.911h.76Z" fill="#d8b195"></path><path d="M49.147,20.6H50.2a.846.846,0,0,1,.758.906v3.177c0,.533-.3.911-.758.911h-.755Z" fill="#d8b195"></path><path d="M38.55,22.339a.606.606,0,1,0,0-1.212.61.61,0,1,0,0,1.212Z"></path><path d="M45.588,22.416a.6.6,0,0,0,.61-.6.73.73,0,0,0-.684-.607.649.649,0,0,0-.6.607A.578.578,0,0,0,45.588,22.416Z"></path><path d="M37.269,29.453h9.38c-1.135,2.266-2.8,3.628-4.69,3.628S38.4,31.718,37.269,29.453Z" fill="#d8b195"></path><path d="M43.623,25.516a.587.587,0,0,1-.61.528c-.074,0-.151.151-.375.306a.959.959,0,0,1-.679.3,1.138,1.138,0,0,1-.684-.3c-.152-.156-.3-.306-.378-.306a.584.584,0,0,1-.6-.528v-.074h3.328Z" fill="#b8977c"></path><path d="M41.959,20.826v4.616H40.3c0-.151.151-.3.226-.378a2.1,2.1,0,0,0,.6-1.363l.075-2.574C41.2,20.525,41.809,20.826,41.959,20.826Z" fill="#e6ccb9"></path><path d="M50.127,17.5V24.38h-.679l-.375-8.244-2.273.3a40.23,40.23,0,0,1-9.53,0l-2.2-.3L34.62,24.3h-.684V17.5c0-4.088,2.8-7.415,6.285-7.415h3.63C47.328,10.084,50.127,13.411,50.127,17.5Z"></path><path d="M47.861,23.324a1.311,1.311,0,0,1-1.212.755h-1.74a1.952,1.952,0,0,1-1.664-1.289,5.4,5.4,0,0,1-.306-1.664V20.9h0v-.077c.074-.151.156-.227.232-.378a1.817,1.817,0,0,1,1.13-.383h1.97a2.67,2.67,0,0,1,1.439.383,1.334,1.334,0,0,1,.375.6v.074a10.879,10.879,0,0,1-.074,1.59v.151A3.988,3.988,0,0,1,47.861,23.324Zm.3-2.2v-.074a1.034,1.034,0,0,0-.378-.679c-.225-.309-1.061-.383-1.513-.383H44.3a1.635,1.635,0,0,0-1.207.383,1.1,1.1,0,0,0-.306.6v.151a4.174,4.174,0,0,0,.383,1.74,2.046,2.046,0,0,0,1.738,1.286,6.593,6.593,0,0,0,1.74,0,1.458,1.458,0,0,0,1.212-.6,2.191,2.191,0,0,0,.3-.834V22.64A4.984,4.984,0,0,0,48.162,21.127Z"></path><path d="M40.747,22.791a1.958,1.958,0,0,1-1.664,1.289H37.42c-.684-.077-.986-.227-1.212-.6a1.3,1.3,0,0,1-.226-.758,10.661,10.661,0,0,1-.076-1.59v-.074a.562.562,0,0,1,.151-.3.406.406,0,0,1,.226-.3,2.649,2.649,0,0,1,1.438-.383h1.965a1.672,1.672,0,0,1,1.136.383c.075.151.151.227.226.378v.3A5.552,5.552,0,0,1,40.747,22.791Zm.452-1.814a.777.777,0,0,0-.3-.6,1.637,1.637,0,0,0-1.212-.383H37.721c-.452,0-1.287.074-1.513.383-.151.151-.226.225-.3.3a.683.683,0,0,0-.075.378v.074a11.189,11.189,0,0,0,0,1.59,1.769,1.769,0,0,0,.3.834h0a1.446,1.446,0,0,0,1.212.6,6.606,6.606,0,0,0,1.739,0,1.964,1.964,0,0,0,1.739-1.286,4.271,4.271,0,0,0,.376-1.74Z"></path><path d="M48.086,20.066a2.155,2.155,0,0,0-1.437-.3,21.785,21.785,0,0,0-2.273-.074c-.679.074-1.2.074-1.437.452a1.217,1.217,0,0,0-.3.533V20.6H41.35v.077a3.609,3.609,0,0,0-.226-.533c-.3-.378-.829-.378-1.513-.452a22.436,22.436,0,0,0-2.267.074,2.152,2.152,0,0,0-1.438.3,2.008,2.008,0,0,0-.458.987c0,.074.534.074.534,0a1.147,1.147,0,0,1,.3-.6,1.983,1.983,0,0,1,1.287-.306,9.775,9.775,0,0,1,2.116,0,1.543,1.543,0,0,1,1.136.306,1.135,1.135,0,0,1,.226.528h1.89a1.127,1.127,0,0,1,.232-.528,1.65,1.65,0,0,1,1.13-.306,9.817,9.817,0,0,1,2.12,0,2.009,2.009,0,0,1,1.289.306.932.932,0,0,1,.3.6c0,.074.528,0,.528,0A2,2,0,0,0,48.086,20.066Z"></path><path d="M42.033,29.6a11.734,11.734,0,0,1-2.648-.378c-.226,0-.3-.232-.3-.457.075-.151.3-.3.452-.227a10.809,10.809,0,0,0,4.917,0c.232-.074.457.077.457.227a.335.335,0,0,1-.3.457A11.173,11.173,0,0,1,42.033,29.6Z" fill="#a71e22"></path></svg>