<svg aria-labelledby="personalized-marketing" height="632.636" viewBox="0 0 1079.374 632.636" width="1079.374" xmlns="http://www.w3.org/2000/svg"><title id="personalized-marketing">Personalized marketing solutions</title><desc>Find essential technology to market your products with personalized offers. Individualize your marketing for greater customer response using big-data insights.</desc><path d="M0,314.01a3.55,3.55,0,0,0,3.609,3.49H86.44a3.55,3.55,0,0,0,3.61-3.489h0V259.52H0Z" fill="#59b4d9"></path><path d="M86.44,243.4H3.62A3.55,3.55,0,0,0,0,246.84H0v18.48H90.06V246.85a3.55,3.55,0,0,0-3.62-3.45" fill="#a0a1a2"></path><path d="M3.63,243.4A3.55,3.55,0,0,0,0,246.85v67.17a3.55,3.55,0,0,0,3.609,3.49H7.57l71-74.15Z" fill="#fff" opacity="0.2" style="isolation: isolate"></path><rect fill="#fff" height="6.86" width="60.65" x="23.16" y="251.66"></rect><path d="M20.37,254.98a8.64,8.64,0,0,1-8.79,8.48,8.5,8.5,0,1,1-.57-17h.57a8.64,8.64,0,0,1,8.79,8.48" fill="#59b4d9"></path><polygon fill="#fff" points="10.66 255.93 14.64 259.99 12.48 259.99 7.15 255.09 12.46 250.19 14.62 250.19 10.66 254.23 20.37 254.23 20.37 255.93 10.66 255.93"></polygon><path d="M654.32,401.85,629.17,359.8v-17h.45a5.263,5.263,0,1,0,.37-10.52h-27.8a5.265,5.265,0,1,0-.48,10.52h.93v17L577.5,401.85c-2.76,4.61-.5,8.39,5,8.39h66.79C654.82,410.24,657.08,406.46,654.32,401.85Z" fill="#59b4d9"></path><polygon fill="#b8d432" points="598.21 383.75 587.83 401.1 643.99 401.1 633.61 383.75 598.21 383.75"></polygon><path d="M614,388.91a5,5,0,0,0,5.07-4.9,4.73,4.73,0,0,0-.52-2.14h-9.12a4.72,4.72,0,0,0-.52,2.14A5,5,0,0,0,614,388.91Z" fill="#7fba00"></path><ellipse cx="623.54" cy="394.57" fill="#7fba00" rx="2.49" ry="2.4"></ellipse><path d="M577.5,401.85l25.15-42.05v-17h-.45a5.263,5.263,0,1,1-.37-10.52H614v27.41l-13.25,50.58H582.51C577,410.24,574.74,406.46,577.5,401.85Z" fill="#fff" opacity="0.25" style="isolation: isolate"></path><path d="M577.63,179.32V234c0,5.76,13.18,10.3,29.33,10.3v-65Z" fill="#3999c6"></path><path d="M606.65,244.3h.47c16.32,0,29.33-4.54,29.33-10.3V179.32h-29.8Z" fill="#59b4d9"></path><path d="M636.46,179.32c0,5.6-13.18,10.3-29.33,10.3s-29.49-4.7-29.49-10.3,13.18-10.3,29.33-10.3,29.49,4.7,29.49,10.3" fill="#fff"></path><path d="M630.5,178.72c0,3.79-10.51,6.82-23.37,6.82s-23.53-3-23.53-6.82,10.51-6.82,23.37-6.82,23.53,3,23.53,6.82" fill="#7fba00"></path><path d="M625.48,182.8c3.14-1.21,4.86-2.57,4.86-4.09,0-3.79-10.51-6.82-23.37-6.82s-23.37,3-23.37,6.82c0,1.51,1.88,3,4.86,4.09,4.23-1.67,11-2.57,18.51-2.57s14.28,1.06,18.51,2.57" fill="#b8d432"></path><path d="M615,200.98v36.51c0,3.79,8.78,6.82,19.61,6.82V200.98Z" fill="#0072c6"></path><path d="M634.26,244.3h.31c10.82,0,19.61-3,19.61-6.82v-36.5H634.26Z" fill="#0072c6"></path><path d="M634.26,244.3h.31c10.82,0,19.61-3,19.61-6.82v-36.5H634.26Z" fill="#fff" opacity="0.15" style="isolation: isolate"></path><path d="M654.19,200.98c0,3.79-8.78,6.82-19.61,6.82s-19.61-3-19.61-6.82,8.78-6.82,19.61-6.82,19.61,3,19.61,6.82" fill="#fff"></path><path d="M650.11,200.53c0,2.42-7.06,4.54-15.53,4.54s-15.53-2-15.53-4.54c0-2.42,7.06-4.54,15.53-4.54s15.53,2.12,15.53,4.54" fill="#7fba00"></path><path d="M646.82,203.25c2-.76,3.29-1.67,3.29-2.73,0-2.42-7.06-4.54-15.53-4.54-8.63,0-15.53,2-15.53,4.54,0,1.06,1.26,2,3.29,2.73a42.09,42.09,0,0,1,24.47,0" fill="#b8d432"></path><polygon fill="#fff" points="645.24 223.09 623.44 240.51 631.91 227.03 624.54 227.03 646.34 209.76 637.87 223.09 645.24 223.09"></polygon><text fill="#505050" font-family="SegoeUI, Segoe UI" font-size="14.81" style="isolation: isolate" transform="translate(295.88 608.13) scale(1.04 1)">Cosmos DB</text><text fill="#505050" font-family="SegoeUI, Segoe UI" font-size="14.81" style="isolation: isolate" transform="translate(281.81 627.87) scale(1.04 1)">(Azu</text><text fill="#505050" font-family="SegoeUI, Segoe UI" font-size="14.81" letter-spacing="-0.01em" style="isolation: isolate" transform="translate(311.95 627.87) scale(1.04 1)">r</text><text fill="#505050" font-family="SegoeUI, Segoe UI" font-size="14.81" style="isolation: isolate" transform="translate(317.08 627.87) scale(1.04 1)">e Se</text><text fill="#505050" font-family="SegoeUI, Segoe UI" font-size="14.81" letter-spacing="0.04em" style="isolation: isolate" transform="translate(345.47 627.87) scale(1.04 1)">r</text><text fill="#505050" font-family="SegoeUI, Segoe UI" font-size="14.81" style="isolation: isolate" transform="translate(351.42 627.87) scale(1.04 1)">vices)</text><g style="isolation: isolate"><text fill="#505050" font-family="SegoeUI, Segoe UI" font-size="14.81" style="isolation: isolate" transform="translate(944.75 608.13) scale(1.04 1)">Dashb</text><text fill="#505050" font-family="SegoeUI, Segoe UI" font-size="14.81" letter-spacing="-0.01em" style="isolation: isolate" transform="translate(987.682 608.13) scale(1.04 1)">o</text><text fill="#505050" font-family="SegoeUI, Segoe UI" font-size="14.81" style="isolation: isolate" transform="translate(996.5 608.13) scale(1.04 1)">a</text><text fill="#505050" font-family="SegoeUI, Segoe UI" font-size="14.81" letter-spacing="-0.01em" style="isolation: isolate" transform="translate(1004.332 608.13) scale(1.04 1)">r</text><text fill="#505050" font-family="SegoeUI, Segoe UI" font-size="14.81" style="isolation: isolate" transform="translate(1009.479 608.13) scale(1.04 1)">d</text></g><g style="isolation: isolate"><text fill="#505050" font-family="SegoeUI, Segoe UI" font-size="14.81" style="isolation: isolate" transform="translate(18.01 338.48) scale(1.04 1)">B</text><text fill="#505050" font-family="SegoeUI, Segoe UI" font-size="14.81" letter-spacing="-0.01em" style="isolation: isolate" transform="translate(26.84 338.48) scale(1.04 1)">r</text><text fill="#505050" font-family="SegoeUI, Segoe UI" font-size="14.81" style="isolation: isolate" transform="translate(31.988 338.48) scale(1.04 1)">owser</text></g><text fill="#505050" font-family="SegoeUI, Segoe UI" font-size="14.81" style="isolation: isolate" transform="translate(883.5 109.91) scale(1.04 1)">Azu</text><text fill="#505050" font-family="SegoeUI, Segoe UI" font-size="14.81" letter-spacing="-0.01em" style="isolation: isolate" transform="translate(909.01 109.91) scale(1.04 1)">r</text><text fill="#505050" font-family="SegoeUI, Segoe UI" font-size="14.81" style="isolation: isolate" transform="translate(914.14 109.91) scale(1.04 1)">e</text><text fill="#505050" font-family="SegoeUI, Segoe UI" font-size="14.81" letter-spacing="-0.029em" style="isolation: isolate" transform="translate(926.36 109.91) scale(1.04 1)">S</text><text fill="#505050" font-family="SegoeUI, Segoe UI" font-size="14.81" style="isolation: isolate" transform="translate(934.02 109.91) scale(1.04 1)">t</text><text fill="#505050" font-family="SegoeUI, Segoe UI" font-size="14.81" letter-spacing="-0.01em" style="isolation: isolate" transform="translate(939.21 109.91) scale(1.04 1)">r</text><text fill="#505050" font-family="SegoeUI, Segoe UI" font-size="14.81" style="isolation: isolate" transform="translate(944.34 109.91) scale(1.04 1)">eam Anal</text><text fill="#505050" font-family="SegoeUI, Segoe UI" font-size="14.81" style="isolation: isolate" transform="translate(1007.67 109.91) scale(1.04 1)">y</text><text fill="#505050" font-family="SegoeUI, Segoe UI" font-size="14.81" style="isolation: isolate" transform="translate(1015.14 109.91) scale(1.04 1)">tics (Near</text><text fill="#505050" font-family="SegoeUI, Segoe UI" font-size="14.81" letter-spacing="-0.029em" style="isolation: isolate" transform="translate(904.46 129.65) scale(1.04 1)">R</text><text fill="#505050" font-family="SegoeUI, Segoe UI" font-size="14.81" style="isolation: isolate" transform="translate(913.21 129.65) scale(1.04 1)">eal-Time Agg</text><text fill="#505050" font-family="SegoeUI, Segoe UI" font-size="14.81" letter-spacing="-0.01em" style="isolation: isolate" transform="translate(1004.03 129.65) scale(1.04 1)">r</text><text fill="#505050" font-family="SegoeUI, Segoe UI" font-size="14.81" style="isolation: isolate" transform="translate(1009.16 129.65) scale(1.04 1)">ega</text><text fill="#505050" font-family="SegoeUI, Segoe UI" font-size="14.81" letter-spacing="-0.01em" style="isolation: isolate" transform="translate(1034.01 129.65) scale(1.04 1)">t</text><text fill="#505050" font-family="SegoeUI, Segoe UI" font-size="14.81" style="isolation: isolate" transform="translate(1039.09 129.65) scale(1.04 1)">es)</text><path d="M626,37.77a1.34,1.34,0,0,1-1.277,1.4H613.31a1.34,1.34,0,0,1-1.45-1.4v-8.1a1.34,1.34,0,0,1,1.277-1.4H624.6a1.34,1.34,0,0,1,1.45,1.4Z" fill="#b8d432"></path><path d="M646.29,46.16a1.34,1.34,0,0,1-1.277,1.4H633.56a1.34,1.34,0,0,1-1.45-1.4v-8.1a1.34,1.34,0,0,1,1.277-1.4H644.84a1.34,1.34,0,0,1,1.45,1.4Z" fill="#b8d432"></path><path d="M626,54.54a1.34,1.34,0,0,1-1.277,1.4H613.31a1.34,1.34,0,0,1-1.45-1.4V46.4a1.34,1.34,0,0,1,1.277-1.4H624.6a1.34,1.34,0,0,1,1.4,1.277q0,.061,0,.123Z" fill="#b8d432"></path><path d="M605.78,29.4a1.34,1.34,0,0,1-1.277,1.4H592.75a1.34,1.34,0,0,1-1.45-1.4V21.01a1.34,1.34,0,0,1,1.277-1.4H604c1.16,0,1.74.56,1.74,1.4Z" fill="#b8d432"></path><path d="M656.42.05h-81A1.34,1.34,0,0,0,574,1.45V18.21a1.34,1.34,0,0,0,1.277,1.4h8.853a1.34,1.34,0,0,0,1.45-1.4v-7H646.3v7c0,.84.58,1.4,1.74,1.4h8.39a1.34,1.34,0,0,0,1.45-1.4V1.4A1.34,1.34,0,0,0,656.6,0h-.173Z" fill="#0072c6"></path><path d="M656.42,64.6H648a1.34,1.34,0,0,0-1.45,1.4v6.7H585.52v-7c0-.84-.58-1.4-1.74-1.4H575.4c-.87,0-1.45.56-1.45,1.68v16.5a1.34,1.34,0,0,0,1.277,1.4H656.42a1.34,1.34,0,0,0,1.45-1.4V66a1.34,1.34,0,0,0-1.277-1.4h-.173Z" fill="#0072c6"></path><path d="M605.78,46.16a1.34,1.34,0,0,1-1.277,1.4H592.75a1.34,1.34,0,0,1-1.45-1.4V37.77a1.34,1.34,0,0,1,1.277-1.4H604c1.16,0,1.74.56,1.74,1.4Z" fill="#b8d432"></path><path d="M605.78,62.92a1.34,1.34,0,0,1-1.277,1.4H592.75a1.34,1.34,0,0,1-1.45-1.4V54.54a1.34,1.34,0,0,1,1.277-1.4H604c1.16,0,1.74.56,1.74,1.4Z" fill="#b8d432"></path><text fill="#505050" font-family="SegoeUI, Segoe UI" font-size="14.81" style="isolation: isolate" transform="translate(574.24 109.91) scale(1.04 1)">Input E</text><text fill="#505050" font-family="SegoeUI, Segoe UI" font-size="14.81" letter-spacing="-0.01em" style="isolation: isolate" transform="translate(621.85 109.91) scale(1.04 1)">v</text><text fill="#505050" font-family="SegoeUI, Segoe UI" font-size="14.81" style="isolation: isolate" transform="translate(629.11 109.91) scale(1.04 1)">ents</text><text fill="#505050" font-family="SegoeUI, Segoe UI" font-size="14.81" style="isolation: isolate" transform="translate(581.03 129.65) scale(1.04 1)">E</text><text fill="#505050" font-family="SegoeUI, Segoe UI" font-size="14.81" letter-spacing="-0.01em" style="isolation: isolate" transform="translate(588.78 129.65) scale(1.04 1)">v</text><text fill="#505050" font-family="SegoeUI, Segoe UI" font-size="14.81" style="isolation: isolate" transform="translate(596.04 129.65) scale(1.04 1)">ent Hub</text><text fill="#505050" font-family="SegoeUI, Segoe UI" font-size="14.81" style="isolation: isolate" transform="translate(582.36 268.55) scale(1.04 1)">Cold</text><text fill="#505050" font-family="SegoeUI, Segoe UI" font-size="14.81" letter-spacing="-0.029em" style="isolation: isolate" transform="translate(617.79 268.55) scale(1.04 1)">S</text><text fill="#505050" font-family="SegoeUI, Segoe UI" font-size="14.81" style="isolation: isolate" transform="translate(625.45 268.55) scale(1.04 1)">ta</text><text fill="#505050" font-family="SegoeUI, Segoe UI" font-size="14.81" letter-spacing="0.029em" style="isolation: isolate" transform="translate(638.45 268.55) scale(1.04 1)">r</text><text fill="#505050" font-family="SegoeUI, Segoe UI" font-size="14.81" style="isolation: isolate" transform="translate(644.23 268.55) scale(1.04 1)">t</text><text fill="#505050" font-family="SegoeUI, Segoe UI" font-size="14.81" style="isolation: isolate" transform="translate(563.25 288.3) scale(1.04 1)">P</text><text fill="#505050" font-family="SegoeUI, Segoe UI" font-size="14.81" letter-spacing="-0.01em" style="isolation: isolate" transform="translate(571.84 288.3) scale(1.04 1)">r</text><text fill="#505050" font-family="SegoeUI, Segoe UI" font-size="14.81" style="isolation: isolate" transform="translate(576.97 288.3) scale(1.04 1)">oduct Affinity</text><text fill="#505050" font-family="SegoeUI, Segoe UI" font-size="14.81" style="isolation: isolate" transform="translate(555.2 432.39) scale(1.04 1)">Maching Lea</text><text fill="#505050" font-family="SegoeUI, Segoe UI" font-size="14.81" style="isolation: isolate" transform="translate(641.22 432.39) scale(1.04 1)">r</text><text fill="#505050" font-family="SegoeUI, Segoe UI" font-size="14.81" style="isolation: isolate" transform="translate(646.52 432.39) scale(1.04 1)">ning</text><text fill="#505050" font-family="SegoeUI, Segoe UI" font-size="14.81" style="isolation: isolate" transform="translate(558.64 452.13) scale(1.04 1)">(P</text><text fill="#505050" font-family="SegoeUI, Segoe UI" font-size="14.81" letter-spacing="-0.01em" style="isolation: isolate" transform="translate(571.85 452.13) scale(1.04 1)">r</text><text fill="#505050" font-family="SegoeUI, Segoe UI" font-size="14.81" style="isolation: isolate" transform="translate(576.98 452.13) scale(1.04 1)">oduct Affinity)</text><text fill="#505050" font-family="SegoeUI, Segoe UI" font-size="14.81" style="isolation: isolate" transform="translate(923.85 432.39) scale(1.04 1)">Raw</text><text fill="#505050" font-family="SegoeUI, Segoe UI" font-size="14.81" letter-spacing="-0.029em" style="isolation: isolate" transform="translate(956.11 432.39) scale(1.04 1)">S</text><text fill="#505050" font-family="SegoeUI, Segoe UI" font-size="14.81" style="isolation: isolate" transform="translate(963.771 432.39) scale(1.04 1)">t</text><text fill="#505050" font-family="SegoeUI, Segoe UI" font-size="14.81" letter-spacing="-0.01em" style="isolation: isolate" transform="translate(968.96 432.39) scale(1.04 1)">r</text><text fill="#505050" font-family="SegoeUI, Segoe UI" font-size="14.81" style="isolation: isolate" transform="translate(974.09 432.39) scale(1.04 1)">eam Data</text><text fill="#505050" font-family="SegoeUI, Segoe UI" font-size="14.81" letter-spacing="-0.04em" style="isolation: isolate" transform="translate(273.03 347.82) scale(1.04 1)">P</text><text fill="#505050" font-family="SegoeUI, Segoe UI" font-size="14.81" style="isolation: isolate" transform="translate(281.05 347.82) scale(1.04 1)">e</text><text fill="#505050" font-family="SegoeUI, Segoe UI" font-size="14.81" letter-spacing="0.01em" style="isolation: isolate" transform="translate(289.07 347.82) scale(1.04 1)">r</text><text fill="#505050" font-family="SegoeUI, Segoe UI" font-size="14.81" style="isolation: isolate" transform="translate(294.51 347.82) scale(1.04 1)">sonalized Offer</text><text fill="#505050" font-family="SegoeUI, Segoe UI" font-size="14.81" style="isolation: isolate" transform="translate(317.04 367.56) scale(1.04 1)">Logic</text><line fill="none" stroke="#afafaf" stroke-miterlimit="10" stroke-width="0.94" x1="132.8" x2="218.04" y1="285.26" y2="285.26"></line><polygon fill="#afafaf" points="134.26 290.27 125.59 285.26 134.26 280.25 134.26 290.27"></polygon><polygon fill="#afafaf" points="216.58 290.27 225.25 285.26 216.58 280.25 216.58 290.27"></polygon><line fill="none" stroke="#afafaf" stroke-miterlimit="10" stroke-width="0.94" x1="334.25" x2="334.25" y1="194.38" y2="47.55"></line><line fill="none" stroke="#afafaf" stroke-miterlimit="10" stroke-width="0.94" x1="525.61" x2="334.77" y1="47.72" y2="47.72"></line><polygon fill="#afafaf" points="524.14 42.71 532.82 47.72 524.14 52.73 524.14 42.71"></polygon><line fill="none" stroke="#afafaf" stroke-miterlimit="10" stroke-width="0.94" x1="890.38" x2="682.69" y1="47.6" y2="47.6"></line><polygon fill="#afafaf" points="888.92 42.59 897.59 47.6 888.92 52.61 888.92 42.59"></polygon><line fill="none" stroke="#afafaf" stroke-miterlimit="10" stroke-width="0.94" x1="904.58" x2="410.78" y1="573.35" y2="573.23"></line><polygon fill="#afafaf" points="903.11 568.34 911.79 573.35 903.11 578.35 903.11 568.34"></polygon><line fill="none" stroke="#afafaf" stroke-miterlimit="10" stroke-width="0.94" x1="612.03" x2="612.03" y1="485.56" y2="538.34"></line><line fill="none" stroke="#afafaf" stroke-miterlimit="10" stroke-width="0.94" x1="417.98" x2="612.03" y1="538.94" y2="538.94"></line><polygon fill="#afafaf" points="419.45 543.95 410.78 538.94 419.45 533.93 419.45 543.95"></polygon><line fill="none" stroke="#afafaf" stroke-miterlimit="10" stroke-width="0.94" x1="981.7" x2="981.7" y1="155.39" y2="307.07"></line><polygon fill="#afafaf" points="976.69 305.6 981.7 314.28 986.71 305.6 976.69 305.6"></polygon><path d="M382.06,281.16a2.69,2.69,0,0,0,0-3.43l-4.61-4.61-20.53-19.93a2.33,2.33,0,0,0-3.27,0h0a2.26,2.26,0,0,0,0,3.43l21.57,21.13a2.52,2.52,0,0,1,0,3.43l-22,21.87a2.52,2.52,0,0,0,0,3.43h0a2.49,2.49,0,0,0,3.27,0l20.38-20.23.15-.15Z" fill="#3999c6"></path><path d="M288,281.16a2.69,2.69,0,0,1,0-3.43l4.61-4.61,20.53-19.94a2.33,2.33,0,0,1,3.27,0h0a2.26,2.26,0,0,1,0,3.43l-21.13,21.13a2.52,2.52,0,0,0,0,3.43l21.57,21.87a2.52,2.52,0,0,1,0,3.43h0a2.49,2.49,0,0,1-3.27,0l-20.83-19.95-.15-.15Z" fill="#3999c6"></path><polygon fill="#fcd116" points="358.25 236.67 329.24 236.67 313.62 280.71 332.66 280.85 317.79 324.45 358.85 266.27 338.91 266.27 358.25 236.67"></polygon><polygon fill="#ff8c00" opacity="0.3" points="338.91 266.27 358.25 236.67 343.08 236.67 327.01 273.27 346.05 273.42 317.79 324.45 358.85 266.27 338.91 266.27" style="isolation: isolate"></polygon><rect fill="#333940" fill-opacity="0" height="85.64" width="85.64" x="938.88" y="328.73"></rect><path d="M989.46,344.79,987,340.51a5.52,5.52,0,0,0-4.55-2.68H944.23a5.37,5.37,0,0,0-5.35,5.35v2.94h51.39C990,345.6,989.72,345.33,989.46,344.79Z" fill="#3596c5"></path><path d="M1021.31,348.81H938.88v51.12a5.37,5.37,0,0,0,5.35,5.35h74.94a5.37,5.37,0,0,0,5.35-5.35v-46.3A5.29,5.29,0,0,0,1021.31,348.81Zm-28.64,25.42-15.26,21.68c0,.27-.27.27-.53.27h-.27c-.27-.27-.53-.54-.27-.8l4-12.85h-8.83a.93.93,0,0,1-.53-.27v-.8l14.72-21.41c0-.27.27-.27.53-.27h.27c.27.27.53.54.27.8L983,373.17h9.1a.86.86,0,0,1,.8.8.26.26,0,0,0-.27.25v.01h.04Z" fill="#5bafd5"></path><line fill="none" stroke="#afafaf" stroke-miterlimit="10" stroke-width="0.94" x1="488.39" x2="488.39" y1="252.72" y2="376.91"></line><line fill="none" stroke="#afafaf" stroke-miterlimit="10" stroke-width="0.94" x1="526.15" x2="488.39" y1="252.72" y2="252.72"></line><polygon fill="#afafaf" points="524.68 247.72 533.35 252.72 524.68 257.73 524.68 247.72"></polygon><line fill="none" stroke="#afafaf" stroke-miterlimit="10" stroke-width="0.94" x1="526.15" x2="488.39" y1="377.44" y2="377.44"></line><polygon fill="#afafaf" points="524.68 372.43 533.35 377.44 524.68 382.45 524.68 372.43"></polygon><line fill="none" stroke="#afafaf" stroke-miterlimit="10" stroke-width="0.94" x1="488.39" x2="420.41" y1="314.28" y2="314.28"></line><line fill="none" stroke="#afafaf" stroke-miterlimit="10" stroke-width="0.94" x1="335.04" x2="335.04" y1="495.2" y2="396.42"></line><polygon fill="#afafaf" points="340.05 397.89 335.04 389.22 330.04 397.89 340.05 397.89"></polygon><path d="M1018.07,582.25h-1.93V578.4h1.93a7.44,7.44,0,0,0,7.43-7.43V531.54a7.44,7.44,0,0,0-7.43-7.43H944.94a7.44,7.44,0,0,0-7.43,7.43v39.43a7.44,7.44,0,0,0,7.43,7.43h1.93v3.86h-1.93a11.3,11.3,0,0,1-11.29-11.29V531.54a11.3,11.3,0,0,1,11.29-11.29h73.12a11.3,11.3,0,0,1,11.29,11.29v39.43a11.3,11.3,0,0,1-11.29,11.29"></path><path d="M956.8,569.33h0a5.24,5.24,0,0,1,5.24,5.24v12.08a5.24,5.24,0,0,1-5.24,5.24h0a5.24,5.24,0,0,1-5.24-5.23h0V574.57A5.24,5.24,0,0,1,956.8,569.33Z"></path><path d="M973.27,591.88a5.24,5.24,0,0,1-5.24-5.24v-31a5.24,5.24,0,0,1,10.48,0v31a5.24,5.24,0,0,1-5.24,5.24"></path><path d="M1006.22,591.73a5.24,5.24,0,0,1-5.24-5.24v-43.9a5.24,5.24,0,0,1,10.48-.02v.02h0v43.9a5.24,5.24,0,0,1-5.24,5.24"></path><path d="M989.74,591.88a5.24,5.24,0,0,1-5.24-5.24v-23a5.24,5.24,0,1,1,10.48-.02v23.02a5.24,5.24,0,0,1-5.24,5.24"></path><path d="M362.76,546.08a28,28,0,1,1-33.82-20.68H329a27.9,27.9,0,0,1,33.729,20.474v.006Z" fill="#59b4d9"></path><path d="M331.56,563.87a7.44,7.44,0,0,0-7.41-7.47H323a7.4,7.4,0,0,0-7.26-9.13H308a27.72,27.72,0,0,0,6.74,24h9.38a7.44,7.44,0,0,0,7.46-7.42v-.01Z" fill="#fff" opacity="0.5" style="isolation: isolate"></path><path d="M340.8,533.08a5,5,0,0,0,.2,1.32h-3.22a7.73,7.73,0,1,0,0,15.46h25.61A27.41,27.41,0,0,0,348.9,528.1h-3.05a5,5,0,0,0-5.05,4.95Z" fill="#fff" opacity="0.5" style="isolation: isolate"></path><path d="M363.36,555.58H348.08a6.31,6.31,0,0,0-6.33,6.29h0a6.25,6.25,0,0,0,.76,3,6.29,6.29,0,0,0,1.91,12.3h4.26A27.92,27.92,0,0,0,363.36,555.58Z" fill="#fff" opacity="0.5" style="isolation: isolate"></path><path d="M304.15,534.01a.86.86,0,0,1-.86-.85h0a9.79,9.79,0,0,0-9.8-9.77.86.86,0,1,1,0-1.71,9.79,9.79,0,0,0,9.8-9.75.86.86,0,0,1,1.72,0,9.79,9.79,0,0,0,9.8,9.77.86.86,0,1,1,0,1.71,9.79,9.79,0,0,0-9.8,9.76A.86.86,0,0,1,304.15,534.01Z" fill="#b8d432"></path><path d="M364.6,589.06a.51.51,0,0,1-.51-.51h0a5.86,5.86,0,0,0-5.87-5.83.51.51,0,1,1,0-1h0a5.86,5.86,0,0,0,5.86-5.84.51.51,0,0,1,1,0,5.86,5.86,0,0,0,5.9,5.82H371a.51.51,0,1,1,0,1h0a5.86,5.86,0,0,0-5.86,5.84.51.51,0,0,1-.51.51h0Z" fill="#0072c6"></path><path d="M376.34,527.45c-2.67-4.38-9.39-5.39-19.42-2.94a79.909,79.909,0,0,0-9.21,2.94,28.249,28.249,0,0,1,5.43,3.47c1.71-.56,3.38-1.07,5-1.46a35,35,0,0,1,8.17-1.16c3.29,0,5.1.81,5.7,1.8,1,1.62.08,5.91-5.75,12.64-1,1.2-2.2,2.41-3.43,3.63a127.13,127.13,0,0,1-45.18,27.64c-10.15,3.31-17.08,3.24-18.63.7s1.55-8.74,9.13-16.28a27.731,27.731,0,0,1-.62-6.52c-12.06,10.9-16,20.34-12.85,25.45,1.63,2.67,5.2,4.17,10.41,4.17a53,53,0,0,0,18-4,138.29,138.29,0,0,0,40.42-24.84,79,79,0,0,0,6.59-6.66C376.86,538.27,379,531.82,376.34,527.45Z"></path><path d="M1014.29,63.67l2.79-7.22,12.8-4.42V41.79l-1.4-.47-11.41-3.26-2.79-7.22,5.82-11.87h0l-7.22-7.22-1.4.7L1001,17.81l-7.45-3L988.92,2.4H978.45L978,3.85l-3.49,10.94-7.22,2.79-12.34-5.35-7.46,7.17.7,1.4,3.26,6.05a36.64,36.64,0,0,1,18.39-4.66,37.55,37.55,0,0,1,24,9.78,53.878,53.878,0,0,1,4.42,3.72,17.768,17.768,0,0,1,1.86,2.56,18.15,18.15,0,0,1-4.66,23.28A17.83,17.83,0,0,1,977,64.13c-.7-.47-1.16-.47-1.4-.7h0a24.168,24.168,0,0,1-4-2.79c-.47,0-.7-.47-1.4-.47a5.74,5.74,0,0,0-4,1.86l-.47.47h0A35,35,0,0,1,951,71.82l-2.09,4.42,7,7,.47.47,1.4-.7,10.47-5.35,7.17,2.74,4,12.34h10.47l.47-1.4L994,80.4l7.22-2.79,12.34,5.35,7-7.68-.7-1.4Z" fill="#7a7a7a"></path><path d="M951.91,45.51h0c-7.91,8.38-20.72,8.38-28.17-.47a2,2,0,0,0-3.26,0,2.64,2.64,0,0,0-.7,1.86,4.44,4.44,0,0,0,.7,1.86c9.31,10.47,24.91,10.71,34.92.47h0c7.91-7.91,20.25-8.15,27.93.7,1.16,1.16,2.56,1.16,3.26,0a2.64,2.64,0,0,0,.7-1.86,4.44,4.44,0,0,0-.7-1.86,23.42,23.42,0,0,0-33.043-2.272Q952.691,44.684,951.91,45.51Z" fill="#48c8ef"></path><path d="M969.37,49.93a14.78,14.78,0,0,0-11.17,4.66l-.47.47-.47.47A26.24,26.24,0,0,1,937,63.9c-7.68,0-14.43-3.72-20-9.31-1.16-1.16-2.56-1.16-3.26,0-.23,0-.23.47-.23,1.16a3.13,3.13,0,0,0,1.16,2.09,30.77,30.77,0,0,0,23.28,10.94c8.61.47,17-3.26,23.51-10.24l.47-.47.47-.47a10.55,10.55,0,0,1,7.67-3.2c2.79,0,5.35,1.4,7.68,3.72,1.16,1.16,2.56,1.16,3.26,0a2.64,2.64,0,0,0,.7-1.86A4.441,4.441,0,0,0,981,54.4,18.93,18.93,0,0,0,969.37,49.93Z" fill="#00abec"></path><path d="M949.82,40.4a27.3,27.3,0,0,1,20.25-8.61c7.45,0,14.43,3.72,19.55,9.31,1.16,1.16,2.56,1.16,3.26,0a2.64,2.64,0,0,0,.7-1.86,4.44,4.44,0,0,0-.7-1.86A30.77,30.77,0,0,0,969.6,26.4a31.26,31.26,0,0,0-23.51,10.24l-.47.47-.47.47a10.55,10.55,0,0,1-7.68,3.26c-3,0-5.35-1.4-7.68-3.72-1.16-1.16-2.56-1.16-3.26,0a2.64,2.64,0,0,0-.7,1.86,4.44,4.44,0,0,0,.7,1.86A15,15,0,0,0,947.7,42.212q.49-.43.941-.9l.47-.47Z" fill="#84d6ef"></path><g opacity="0.2"><path d="M971.46,60.4c-.47,0-.7-.47-1.4-.47a5.74,5.74,0,0,0-4,1.86l-.47.47a35,35,0,0,1-14.9,9.31l-2.09,4.42,3.72,3.72Z" fill="#f1f1f1"></path><path d="M951.68,27.12a36.64,36.64,0,0,1,18.39-4.66,37.55,37.55,0,0,1,24,9.78c1.16.93,2.09,1.63,3.26,2.56l19.32-19.32-4-4-1.4.7-10.47,5.35-7.22-2.79L988.92,2.4H978.45L978,3.85l-3.49,10.94-7.22,2.79-12.34-5.35-7.46,7.17.7,1.4Z" fill="#f1f1f1"></path></g></svg>