<svg aria-labelledby="retail-and-ecommerce-using-azure-database-for-mysql" height="200.612" viewBox="0 0 429.11 200.612" width="429.11" xmlns="http://www.w3.org/2000/svg"><title id="retail-and-ecommerce-using-azure-database-for-mysql">Retail and e-commerce using Azure Database for MySQL</title><desc>Build secure and scalable e-commerce solutions that meet the demands of both customers and business. Engage customers through customized products and offers, process transactions quickly and securely, and focus on fulfillment and customer service.</desc><text fill="#5b5b5b" font-family="SegoeUI, Segoe UI" font-size="10.044" transform="translate(2.736 56.521)">B<tspan letter-spacing="-0.013em" x="5.757" y="0">r</tspan><tspan x="9.117" y="0">owser</tspan></text><path d="M0,39.207a1.693,1.693,0,0,0,1.691,1.684h38.9a1.693,1.693,0,0,0,1.691-1.684V12.852H0Z" fill="#59b4d9"></path><path d="M40.592,5.022H1.691A1.693,1.693,0,0,0,0,6.706v6.4H42.283v-6.4a1.693,1.693,0,0,0-1.691-1.684" fill="#a0a1a2"></path><path d="M1.691,5.022A1.693,1.693,0,0,0,0,6.706v32.5a1.693,1.693,0,0,0,1.691,1.684h1.86L36.871,5.022Z" fill="#fff" opacity="0.2" style="isolation: isolate"></path><rect fill="#fff" height="3.239" width="27.647" x="12.468" y="7.304"></rect><ellipse cx="5.692" cy="9.193" fill="#3999c6" rx="1.897" ry="1.889"></ellipse><text fill="#5b5b5b" font-family="SegoeUI, Segoe UI" font-size="10.044" transform="translate(231.845 57.596)">Azu<tspan letter-spacing="-0.013em" x="16.703" y="0">r</tspan><tspan letter-spacing="0em" x="20.062" y="0">e Data</tspan><tspan letter-spacing="-0.013em" x="48.731" y="0">b</tspan><tspan x="54.504" y="0">ase </tspan><tspan x="12.547" y="12.052">for MySQL</tspan><tspan x="-2.759" y="24.104">(P</tspan><tspan letter-spacing="-0.013em" x="5.897" y="24.104">r</tspan><tspan letter-spacing="0em" x="9.256" y="24.104">oduct Catalog)</tspan></text><path d="M253.325,6.258V35.666c0,3.1,6.871,5.541,15.3,5.541V6.258Z" fill="#005f87"></path><path d="M268.462,41.2h.244c8.51,0,15.271-2.511,15.271-5.606V6.167l-15.516.091Z" fill="#0f80b0"></path><path d="M284.007,6.258c0,3.016-6.871,5.541-15.3,5.541S253.325,9.27,253.325,6.258,260.2.717,268.626.717s15.381,2.543,15.381,5.541" fill="#fff"></path><path d="M280.9,5.931c0,2.038-5.474,3.666-12.192,3.666s-12.272-1.613-12.272-3.666,5.474-3.666,12.192-3.666S280.9,3.893,280.9,5.931" fill="#7fb900"></path><path d="M280.693,27.259a3.076,3.076,0,0,1-2.919,3.252h-6.568V27.967h5.839c.365-.029.668-1.054.668-1.054l-.668.327H273.4a2.284,2.284,0,0,1-2.554-2.18v-4l-1.095-.363v6.9h-2.919V22.328l-1.671,3.681c-.423.977-.861,1.6-1.978,1.6a2.613,2.613,0,0,1-2.459-1.6l-1.555-3.855V27.6h-2.919v-8.08c0-.937.182-1.511,1.044-1.78a4.29,4.29,0,0,1,1.241-.211,2.3,2.3,0,0,1,2.23,1.421l2.419,4.654,1.949-4.654a2.307,2.307,0,0,1,2.226-1.421,4.653,4.653,0,0,1,1.226.2,1.708,1.708,0,0,1,1.168,1.882v1.006c0,.047-.047.084,0,.084h4.379v3.633a1.1,1.1,0,0,0,.73.363h2.554v-4h3.284Z" fill="#fff"></path><text fill="#5b5b5b" font-family="SegoeUI, Segoe UI" font-size="10.044" transform="translate(231.845 172.379)">Azu<tspan letter-spacing="-0.013em" x="16.703" y="0">r</tspan><tspan letter-spacing="0em" x="20.062" y="0">e Data</tspan><tspan letter-spacing="-0.013em" x="48.731" y="0">b</tspan><tspan x="54.504" y="0">ase </tspan><tspan x="12.547" y="12.052">for MySQL</tspan><tspan x="3.925" y="24.104">(Session </tspan><tspan letter-spacing="-0.032em" x="42.82" y="24.104">S</tspan><tspan x="47.831" y="24.104">ta</tspan><tspan letter-spacing="-0.008em" x="56.345" y="24.104">t</tspan><tspan x="59.67" y="24.104">e)</tspan></text><path d="M253.325,121.041v29.408c0,3.1,6.871,5.541,15.3,5.541V121.041Z" fill="#005f87"></path><path d="M268.462,155.986h.244c8.51,0,15.271-2.511,15.271-5.606V120.95l-15.516.091Z" fill="#0f80b0"></path><path d="M284.007,121.041c0,3.016-6.871,5.541-15.3,5.541s-15.381-2.529-15.381-5.541,6.871-5.541,15.3-5.541,15.381,2.543,15.381,5.541" fill="#fff"></path><path d="M280.9,120.714c0,2.038-5.474,3.666-12.192,3.666s-12.272-1.613-12.272-3.666,5.474-3.666,12.192-3.666,12.272,1.628,12.272,3.666" fill="#7fb900"></path><path d="M280.693,142.042a3.076,3.076,0,0,1-2.919,3.252h-6.568V142.75h5.839c.365-.029.668-1.054.668-1.054l-.668.327H273.4a2.284,2.284,0,0,1-2.554-2.18v-4l-1.095-.363v6.9h-2.919v-5.276l-1.671,3.681c-.423.977-.861,1.6-1.978,1.6a2.613,2.613,0,0,1-2.459-1.6l-1.555-3.855v5.45h-2.919v-8.08c0-.937.182-1.511,1.044-1.78a4.29,4.29,0,0,1,1.241-.211,2.3,2.3,0,0,1,2.23,1.421l2.419,4.654,1.949-4.654a2.307,2.307,0,0,1,2.226-1.421,4.653,4.653,0,0,1,1.226.2,1.708,1.708,0,0,1,1.168,1.882V135.4c0,.047-.047.084,0,.084h4.379v3.633a1.1,1.1,0,0,0,.73.363h2.554v-4h3.284Z" fill="#fff"></path><text fill="#5b5b5b" font-family="SegoeUI, Segoe UI" font-size="10.044" transform="translate(102.418 55.802)">Azu<tspan letter-spacing="-0.013em" x="16.703" y="0">r</tspan><tspan letter-spacing="0em" x="20.062" y="0">e App Se</tspan><tspan letter-spacing="0.04em" x="59.692" y="0">r</tspan><tspan letter-spacing="0em" x="63.586" y="0">vices</tspan></text><text fill="#5b5b5b" font-family="SegoeUI, Segoe UI" font-size="10.044" transform="translate(364.1 55.802)">Azu<tspan letter-spacing="-0.013em" x="16.703" y="0">r</tspan><tspan x="20.062" y="0">e Sea</tspan><tspan letter-spacing="-0.013em" x="43.764" y="0">r</tspan><tspan letter-spacing="0em" x="47.123" y="0">ch</tspan><tspan x="-5.659" y="12.052">(Full-</tspan><tspan letter-spacing="-0.008em" x="16.841" y="12.052">t</tspan><tspan x="20.165" y="12.052">ext index)</tspan></text><text fill="#5b5b5b" font-family="SegoeUI, Segoe UI" font-size="10.044" transform="translate(113.931 174.171)">Azu<tspan letter-spacing="-0.013em" x="16.703" y="0">r</tspan><tspan letter-spacing="0em" x="20.062" y="0">e </tspan><tspan letter-spacing="-0.032em" x="28.066" y="0">S</tspan><tspan letter-spacing="-0.008em" x="33.078" y="0">t</tspan><tspan letter-spacing="0em" x="36.403" y="0">orage</tspan></text><g><line fill="none" stroke="#969696" stroke-miterlimit="10" stroke-width="1.5" x1="228.126" x2="174.561" y1="23.695" y2="23.695"></line><polygon fill="#969696" points="226.594 18.46 235.661 23.695 226.594 28.931 226.594 18.46"></polygon></g><g><line fill="none" stroke="#969696" stroke-miterlimit="10" stroke-width="1.5" x1="108.521" x2="52.075" y1="23.695" y2="23.695"></line><polygon fill="#969696" points="106.989 18.46 116.056 23.695 106.989 28.931 106.989 18.46"></polygon></g><path d="M141.257,38.9H128.339V26.113h2.646a6.8,6.8,0,0,1-.467-2.557V23.4h-4.9V41.609H143.98V30.762h-2.724Z" fill="#a0a1a2"></path><path d="M159.465,26.113H161.8V38.975H148.882V30.839h-2.724v10.77h18.364V23.4h-5.758a5.44,5.44,0,0,1,.7,2.557Z" fill="#a0a1a2"></path><path d="M128.339,18.365V5.581h12.917v7.438a7.235,7.235,0,0,1,2.724-1.24V2.87H125.616V21.077h5.291a7.349,7.349,0,0,1,1.712-2.634l-4.28-.077Z" fill="#a0a1a2"></path><path d="M148.882,11.47V5.581H161.8V18.443h-5.681a9.358,9.358,0,0,1,.389,2.634v.077h8.015V2.87H146.159v8.445c.233,0,.389-.077.623-.077A19.355,19.355,0,0,1,148.882,11.47Z" fill="#a0a1a2"></path><path d="M157.364,25.881a2.866,2.866,0,0,0-2.879-2.867H154.1A8.389,8.389,0,0,0,154.407,21a7.662,7.662,0,0,0-14.941-2.4,6.094,6.094,0,0,0-1.712-.31,5.269,5.269,0,0,0,0,10.537h16.964a2.951,2.951,0,0,0,2.646-2.944" fill="#59b4d9"></path><path d="M140.556,28.825a5.257,5.257,0,0,1,2.568-8.833,4.317,4.317,0,0,1,1.712-.077,7.685,7.685,0,0,1,4.28-6.2,7.364,7.364,0,0,0-2.334-.387,7.612,7.612,0,0,0-7.237,5.269,6.094,6.094,0,0,0-1.712-.31,5.269,5.269,0,0,0,0,10.537h2.724Z" fill="#fff" opacity="0.2" style="isolation: isolate"></path><g><path d="M122.013,158.906a1.532,1.532,0,0,0,1.588,1.581h38.614a1.532,1.532,0,0,0,1.588-1.581V131.36h-41.79Z" fill="#a0a1a2"></path><path d="M162.215,125.036H123.6a1.532,1.532,0,0,0-1.588,1.581v4.743H163.8v-4.743a1.532,1.532,0,0,0-1.588-1.581" fill="#7a7a7a"></path><rect fill="#fff" height="6.325" width="10.531" x="137.726" y="134.107"></rect><rect fill="#fcd116" height="6.325" width="10.531" x="137.726" y="142.678"></rect><rect fill="#fcd116" height="6.325" width="10.531" x="150.263" y="142.678"></rect><rect fill="#fff" height="6.325" width="10.531" x="150.263" y="134.107"></rect><rect fill="#fff" height="6.325" width="10.531" x="125.189" y="134.107"></rect><rect fill="#fff" height="6.325" width="10.531" x="125.189" y="142.678"></rect><rect fill="#fcd116" height="6.325" width="10.531" x="125.189" y="151.166"></rect><rect fill="#fcd116" height="6.325" width="10.531" x="137.726" y="151.166"></rect><rect fill="#fcd116" height="6.325" width="10.531" x="150.263" y="151.166"></rect><path d="M123.6,125.036a1.7,1.7,0,0,0-1.588,1.581v32.288a1.7,1.7,0,0,0,1.588,1.581h1.755l33.1-35.451Z" fill="#fff" opacity="0.2" style="isolation: isolate"></path></g><path d="M407.537,11.409c0-.321.081-.723.081-1.045A10.363,10.363,0,0,0,397.127.08a10.2,10.2,0,0,0-8.473,4.178,7.536,7.536,0,0,0-4.2-1.205,7.888,7.888,0,0,0-7.908,7.794v.643a7.787,7.787,0,0,0-4.519,7.071,8.722,8.722,0,0,0,9.038,8.6h22.272a8.722,8.722,0,0,0,9.038-8.6A7.622,7.622,0,0,0,407.537,11.409Z" fill="#59b4d9"></path><path d="M377.679,22.5a8.089,8.089,0,0,1,4.842-7.472v-.643a8.476,8.476,0,0,1,12.831-7.071,11.174,11.174,0,0,1,9.038-4.58h0A10.959,10.959,0,0,0,397.127,0a10.487,10.487,0,0,0-8.473,4.258,7.536,7.536,0,0,0-4.2-1.205,7.888,7.888,0,0,0-7.908,7.794v.643a7.787,7.787,0,0,0-4.519,7.071,8.529,8.529,0,0,0,6.779,8.356A9,9,0,0,1,377.679,22.5Z" fill="#fff" opacity="0.2" style="isolation: isolate"></path><path d="M399.709,24.908a6.978,6.978,0,0,1-6.779,5.3,6.168,6.168,0,0,1-1.695-.241,7.261,7.261,0,0,1-2.26-1.045,7.4,7.4,0,0,1-1.775-1.768,6.9,6.9,0,0,1,5.729-10.847,6.168,6.168,0,0,1,1.695.241,7.029,7.029,0,0,1,4.277,3.134,6.6,6.6,0,0,1,.807,5.223" fill="#fff"></path><path d="M399.709,24.908a6.978,6.978,0,0,1-6.779,5.3,6.168,6.168,0,0,1-1.695-.241,7.261,7.261,0,0,1-2.26-1.045,7.4,7.4,0,0,1-1.775-1.768,6.9,6.9,0,0,1,5.729-10.847,6.168,6.168,0,0,1,1.695.241,7.029,7.029,0,0,1,4.277,3.134,6.6,6.6,0,0,1,.807,5.223" fill="#59b4d9" opacity="0.1" style="isolation: isolate"></path><path d="M396.724,17.436a6.864,6.864,0,0,0-2.1-.884,6.168,6.168,0,0,0-1.695-.241,6.978,6.978,0,0,0-6.779,5.3,6.645,6.645,0,0,0,1.049,5.544,5.633,5.633,0,0,0,.646.8,17.991,17.991,0,0,1,8.877-10.526" fill="#59b4d9" opacity="0.3" style="isolation: isolate"></path><path d="M401.485,18.159a9.964,9.964,0,0,0-6.133-4.5,12.509,12.509,0,0,0-2.421-.321,10,10,0,0,0-9.684,7.553A9.686,9.686,0,0,0,384.3,28.2l-7.586,7.633a2.613,2.613,0,0,0,0,3.616,2.743,2.743,0,0,0,3.712,0l7.586-7.633a10.242,10.242,0,0,0,2.582,1.045,12.509,12.509,0,0,0,2.421.321,9.838,9.838,0,0,0,8.473-15.025Zm-1.775,6.749a6.978,6.978,0,0,1-6.779,5.3,6.168,6.168,0,0,1-1.695-.241,7.261,7.261,0,0,1-2.26-1.045,7.4,7.4,0,0,1-1.775-1.768,6.9,6.9,0,0,1,5.729-10.847,6.168,6.168,0,0,1,1.695.241,7.029,7.029,0,0,1,4.277,3.134A6.649,6.649,0,0,1,399.709,24.908Z" fill="#3e3e3e"></path><path d="M387.282,31.416a9.8,9.8,0,0,1-2.582-2.571c-.161-.241-.242-.4-.4-.643l-.646.723-.081.08a1.68,1.68,0,0,0,.323.482,12.046,12.046,0,0,0,2.824,2.893,1.932,1.932,0,0,0,.565.241l.726-.723C387.686,31.657,387.524,31.577,387.282,31.416Z" fill="#1e1e1e" opacity="0.5" style="isolation: isolate"></path><polygon fill="#fcd116" points="385.32 125.167 381.988 125.736 379.036 127.063 376.465 128.675 373.989 131.614 372.656 133.036 371.323 133.51 370.942 132.656 371.609 131.803 371.704 130.571 372.18 130.571 372.561 130.95 372.466 129.717 371.99 129.338 371.99 128.864 370.847 129.528 369.705 130.76 369.514 131.898 369.99 132.846 370.371 134.363 371.228 134.742 372.18 134.742 373.037 134.173 372.466 137.112 373.037 140.336 372.371 141.853 370.371 144.033 370.657 145.455 371.704 146.972 373.513 148.205 374.561 148.394 375.608 148.394 374.942 151.239 377.417 152.281 380.56 152.661 381.607 151.902 381.702 150.101 382.94 148.11 383.035 146.498 385.892 146.783 388.558 146.498 385.892 148.11 386.368 150.006 387.987 152.661 389.701 153.324 390.938 152.85 391.51 151.713 394.271 149.627 394.842 150.101 399.127 150.291 399.984 149.532 400.079 148.3 399.794 147.826 399.603 144.507 398.175 141.663 398.365 140.336 399.222 140.81 401.698 143.085 402.841 143.18 404.174 142.611 405.507 141.663 406.173 139.483 409.982 139.767 412.363 138.819 414.267 137.112 415.6 134.553 415.981 131.519 415.695 128.106 414.933 124.977 414.172 123.934 413.124 123.65 411.315 125.641 409.696 126.21 408.268 123.839 406.84 122.512 405.983 122.038 402.936 119.384 400.365 118.056 397.889 117.867 394.938 118.341 392.367 119.289 390.653 120.711 389.224 122.417 387.796 122.797 385.32 125.167"></polygon><polygon fill="#1e1e1e" points="372.466 136.635 372.847 137.109 372.942 136.541 372.656 136.541 372.466 136.635"></polygon><path d="M416.267,127.916a10.479,10.479,0,0,0-1.143-3.792c-.1-.095-.19-.284-.286-.379a3.934,3.934,0,0,0-1.047-.664,1.418,1.418,0,0,0-1.238,0c-.1.095-.19.095-.286.19a5.261,5.261,0,0,0-.571.758,6.689,6.689,0,0,1-.667.853,3.7,3.7,0,0,1-1.047.569,3.674,3.674,0,0,0-.571-1.043,8.9,8.9,0,0,0-.857-1.138l-.762-.758-.857-.569a21.182,21.182,0,0,1-2.285-1.8c-.286-.284-.667-.569-.952-.853a8.456,8.456,0,0,0-5.047-2.181,13.836,13.836,0,0,0-5.713,1.232,10.044,10.044,0,0,0-2.476,1.517,13.624,13.624,0,0,0-1.809,2.086,2.828,2.828,0,0,0-.952.19,3.38,3.38,0,0,0-1.143.758,6.152,6.152,0,0,1-.857.758h0l-.762.758a20.934,20.934,0,0,0-4.951,1.232,14.277,14.277,0,0,0-4.094,2.465,7.14,7.14,0,0,0-1.428,1.517,15.434,15.434,0,0,0-1.047,1.612l-.857.853a1.977,1.977,0,0,1-.952.569h0a.739.739,0,0,1-.286.095v-.095a2.424,2.424,0,0,0,.571-1.8c.1.095.1.19.19.284s.1.19.19.284l.19-.19.286.095a3.959,3.959,0,0,0,.1-1.517,1.3,1.3,0,0,0-.476-.758c0-.095.1-.095.1-.19a1.366,1.366,0,0,0,.19-.664l-.19-.095h0l.19.095.286-.19-.381.095a6.19,6.19,0,0,0-2.571,1.612,4.21,4.21,0,0,0-.762,1.043,2.108,2.108,0,0,0-.286,1.232,2.844,2.844,0,0,0,.571,1.043,6.022,6.022,0,0,0,.19.664,1.344,1.344,0,0,1,.19.569,1.976,1.976,0,0,0,1.047.948,2.331,2.331,0,0,0,1.143,0c-.1.474-.1.948-.19,1.422a19.76,19.76,0,0,0,.1,2.275,1.2,1.2,0,0,0,.1.569c0,.19.1.379.1.569a1.344,1.344,0,0,0-.19.569,3.952,3.952,0,0,1-.381.948l-.762.758-.667.664-.19.19a1.163,1.163,0,0,0-.476,1.327,13.459,13.459,0,0,0,.476,1.517,5.762,5.762,0,0,0,.952,1.327,10.174,10.174,0,0,0,2.38,1.517,2.836,2.836,0,0,0,1.523.19c0,.095,0,.19-.1.19a4.612,4.612,0,0,0-.286.664,1.556,1.556,0,0,0,.952,2.37,9.389,9.389,0,0,0,1.523.474c.1,0,.19.095.381.095a14.284,14.284,0,0,0,2.666.569c1.047.095,2-.19,2.285-1.138a4.157,4.157,0,0,0,.19-.948v-.853a5.072,5.072,0,0,1,.667-1.138c0-.095.1-.095.1-.19.19-.379.381-.569.381-.853v-1.138a11.573,11.573,0,0,0,1.809.095h.952c-.1,0-.19.095-.286.095a.093.093,0,0,0-.1.095c-.857.379-.857,1.232-.571,1.991a4.5,4.5,0,0,0,1.047,1.9,7.446,7.446,0,0,0,1.9,2.181,2.638,2.638,0,0,0,2.761-.095,1.973,1.973,0,0,0,.952-1.043c.1-.095.19-.284.286-.379a14.239,14.239,0,0,1,1.428-1.138,4.031,4.031,0,0,1,.667-.474,3.175,3.175,0,0,0,.571.284,3.585,3.585,0,0,0,1.047.095h2.476a2.765,2.765,0,0,0,1.619-.284,1.639,1.639,0,0,0,.762-1.422V148.3a1.257,1.257,0,0,0-.286-.664V145.55a4.74,4.74,0,0,0-.19-1.138,4.608,4.608,0,0,0-.381-1.043c-.1-.284-.19-.474-.286-.758l-.19.095h0l.19-.095h0a5.785,5.785,0,0,0-.476-1.138v-.284l.381.379.571.569a6.549,6.549,0,0,0,1.238,1.043,2.306,2.306,0,0,0,1.619.379,3.785,3.785,0,0,0,2.095-.758,4.636,4.636,0,0,0,1.333-1.707c.1-.19.1-.379.19-.569,0-.19.1-.284.1-.474a10.95,10.95,0,0,0,3.047.095,8.472,8.472,0,0,0,2.761-.758,6.986,6.986,0,0,0,2.761-2.749h0a10.683,10.683,0,0,0,1.333-4.266C416.647,131.234,416.552,129.528,416.267,127.916Zm-14.283,11.472c-.286.948-.762,2.56.571,2.844a1.7,1.7,0,0,0,1.428-.284,2.694,2.694,0,0,1-1.238,0,.834.834,0,0,1-.667-.569c.1.095.286.095.667.19a1.706,1.706,0,0,0,2.095-.948,9.767,9.767,0,0,1,.286-1.138,6.089,6.089,0,0,0,.667.19c-.1.379-.286.758-.381,1.232a2.692,2.692,0,0,1-2.666,1.8c-1.047,0-1.619-.664-2.38-1.232-.476-.379-.952-.853-1.428-1.232a10.552,10.552,0,0,1-3.428-1.707,6.513,6.513,0,0,0,2.571,1.991,24.726,24.726,0,0,1-1.238,4.551,13.072,13.072,0,0,1-2.571,3.982c-.381.19-2.571,2.086-3.047,2.37a4.259,4.259,0,0,1-1.047,1.232c-1.428.758-2.38-.664-3.142-1.9-.381-.569-1.333-2.181-.476-2.655.762-.379,1.238-.758,2.095-1.232a2.881,2.881,0,0,0,.476.664c0-.284-.1-.474-.1-.758a2.7,2.7,0,0,1,0-1.232c0-.379.1-.853.1-1.232-.1.474-.381.853-.476,1.327a.852.852,0,0,0-.1.474,15.45,15.45,0,0,1-5.523.095c-.1-.664-.286-1.422-.381-1.9v3.034a2.151,2.151,0,0,1-.381,1.517c-.286.569-.476.664-.952,1.612a8.121,8.121,0,0,1-.1,1.517c-.286.948-2.857.19-3.523,0-.857-.19-2.571-.569-2.19-1.707a13.7,13.7,0,0,0,.857-3.413,18.356,18.356,0,0,1-3.237-7.964,9.846,9.846,0,0,1,.381-4.646,12.605,12.605,0,0,1,3.333-5.214,12.912,12.912,0,0,1,7.427-3.129c-.762.853-1.523,1.8-2.38,2.749a14.681,14.681,0,0,0-1.9,3.034c-.762,1.517-.762,2.086.286,3.318a6.953,6.953,0,0,1,1.619,2.749,6.119,6.119,0,0,0-.476,1.991c1.047,1.138,1.809,1.9,2.761,2.086a3.7,3.7,0,0,0,2.666-.284c1.9-.948,3.714-2.275,5.9-2.37a10.483,10.483,0,0,0,.381-7.016,41.816,41.816,0,0,1-.571-4.835,12.307,12.307,0,0,0-.19,4.93c.381,2.086.667,4.361-.381,6.162-2,.19-3.714,1.327-5.523,2.275a3.157,3.157,0,0,1-2.285.19c-.571-.095-1.047-.569-1.9-1.517a4.389,4.389,0,0,1,.571-2.181,41.3,41.3,0,0,1,2.285-3.887c-.952,1.232-1.9,2.275-2.666,3.413a8.835,8.835,0,0,0-1.428-2.275,1.991,1.991,0,0,1-.286-2.465,10.18,10.18,0,0,1,1.9-3.034c1.523-1.707,2.952-3.508,4.666-5.214A3.636,3.636,0,0,1,389.8,122.7c1.143-.19,2.19-.379,3.333-.664a19.52,19.52,0,0,1-3.237.284h0a7.552,7.552,0,0,1,3.333-2.844c4.19-1.8,6.856-1.991,10.093.758a22.779,22.779,0,0,0,2.476,1.991,4.207,4.207,0,0,0-.952.19,3.645,3.645,0,0,1,1.428.095c.1.095.286.19.381.284a3.872,3.872,0,0,1,1.333,1.138,12.543,12.543,0,0,1,1.143,1.9c-.19-.095-.381-.095-.571-.19a.574.574,0,0,0-.381-.095,1.149,1.149,0,0,0-.762.19h0a3.113,3.113,0,0,1-1.238.379,1.056,1.056,0,0,0,.762,0h.1c-.1.095-.1.284-.19.474a1.607,1.607,0,0,0,.1.664h0c0,.095.1.095.1.19-.19.095-.286.095-.476.19a9.216,9.216,0,0,1,2.285,0c.1.284.1.474.19.758h-.286a1.307,1.307,0,0,0-1.333-.095c-1.619.379-1.238,1.327-2,2.749.762-.948.762-1.991,2-2.275.286-.095.476-.19.667-.095a1.864,1.864,0,0,0-.857.853c-.381,1.043-.1,1.8-.571,2.749.476-.853.476-1.612.952-2.56.19-.284.762-.853,1.047-.853h.286a9.19,9.19,0,0,1,.1,1.517c-.1.853-.286,2.086-.381,2.56a6.777,6.777,0,0,0,.857-2.56,7.147,7.147,0,0,0,0-2.844c-.286-1.327,1.047-1.043,1.809-1.707.571-.474.952-1.138,1.428-1.612s1.333.19,1.523.758a18.8,18.8,0,0,1,1.047,7.585c-.286,2.37-1.428,5.025-3.523,6.162-2.666,1.517-5.9.569-8.57-.284a6.812,6.812,0,0,1-1.428-.758A2.122,2.122,0,0,1,401.984,139.388Zm-2.38,9.575c-.1.948-.381,1.043-1.333,1.043a19.989,19.989,0,0,1-2.38-.095,5.193,5.193,0,0,1-1.047-.19,13.4,13.4,0,0,0,2.666-4.266c.286-.948.667-1.8.857-2.749a5.329,5.329,0,0,0,.381,1.138,5.592,5.592,0,0,1,.476,1.8,18.19,18.19,0,0,0,.1,2.275A1.463,1.463,0,0,1,399.6,148.963Zm-27.8-19.72a1.509,1.509,0,0,0-.286.758c-.286,1.043.1,1.991-.857,2.749.476.853.381,1.232,1.428.853a3.934,3.934,0,0,0,1.047-.664c-.1.379-.286.758-.381,1.138,0,.095,0,.095-.1.19-.762.284-1.714.474-2.095-.284a4.679,4.679,0,0,1-.381-1.232C368.943,131.519,370.752,129.812,371.8,129.243Zm.1,1.138a.568.568,0,0,1,.1-.379c0-.095,0-.095.1-.19.286.19.286.379.381.758C372.276,130.381,372.085,130.286,371.895,130.381Zm.952,11.092a22.363,22.363,0,0,0,2.571,5.5h0a6.514,6.514,0,0,1-.286.758c-.762,1.043-2.666-.474-3.237-1.043a3.83,3.83,0,0,1-1.143-2.086c-.1-.474,0-.474.381-.853l1.428-1.422Zm36.278-15.643c0,.095.1.19.1.284l-.1.095c-.1-.095-.19-.284-.286-.379ZM373.7,131.614Zm-1.523-2.275Zm-2.38,3.6Zm13.331,13.937Zm23.233-7.016Zm8.57-3.223Z" fill="#1e1e1e"></path><path d="M403.888,128.3a9.943,9.943,0,0,0-1.428.19c0-.19-.1-.284-.1-.474a1.35,1.35,0,0,0-.857-.758c.286-.19.667-.379.952-.569-.762.379-1.619.284-2.285.664-.571.379-1.333,1.612-1.9,2.086a7.946,7.946,0,0,0,1.143-.758,1.752,1.752,0,0,0,.19.664,1.5,1.5,0,0,0,.667.664,2.961,2.961,0,0,0-.476.948A8.323,8.323,0,0,1,403.888,128.3Z" fill="#1e1e1e"></path><path d="M397.032,126.873a3.745,3.745,0,0,1,2.38-2.939C397.128,124.5,396.747,125.451,397.032,126.873Z" fill="#1e1e1e"></path><path d="M400.746,137.681c-.1.284-.1.758-.19,1.043a4.094,4.094,0,0,1,.476-1.138c.19-.379.286-.379.667-.569a8.863,8.863,0,0,0,.952-.474c-.286,0-.762.19-1.047.19C400.936,136.828,400.841,137.018,400.746,137.681Z" fill="#1e1e1e"></path><path d="M388.558,124.882c-.857.853-1.619,3.6-1.9,4.74.381-.948,1.428-3.508,2.19-4.171a1.993,1.993,0,0,1,.571-.379c-.571.948-.476,1.138-.286,2.37a5,5,0,0,1,1.333-2.749c.762-.19,1.523-.474,2.38-.758-.952.095-1.809.19-2.761.284C389.224,124.408,389.034,124.408,388.558,124.882Z" fill="#1e1e1e"></path><path d="M399.889,129.717a.638.638,0,0,1,1.143-.569v.095a6.152,6.152,0,0,0-.857.758.3.3,0,0,1-.286-.284" fill="#fffacb"></path><text fill="#5b5b5b" font-family="SegoeUI, Segoe UI" font-size="10.044" transform="translate(353.743 172.646)">Azu<tspan letter-spacing="-0.013em" x="16.703" y="0">r</tspan><tspan x="20.062" y="0">e HD Insight</tspan><tspan x="0.498" y="12.052">(Game Anal</tspan><tspan letter-spacing="0.003em" x="51.887" y="12.052">y</tspan><tspan x="56.777" y="12.052">tics)</tspan></text><g><polyline fill="none" points="204.872 23.674 204.872 139.892 227.598 139.892" stroke="#969696" stroke-miterlimit="10" stroke-width="1.5"></polyline><polygon fill="#969696" points="226.066 145.128 235.133 139.892 226.066 134.656 226.066 145.128"></polygon></g><g><line fill="none" stroke="#969696" stroke-miterlimit="10" stroke-width="1.5" x1="351.333" x2="294.887" y1="23.695" y2="23.695"></line><polygon fill="#969696" points="349.801 18.46 358.868 23.695 349.801 28.931 349.801 18.46"></polygon></g><g><line fill="none" stroke="#969696" stroke-miterlimit="10" stroke-width="1.5" x1="391.723" x2="391.723" y1="105.404" y2="75.061"></line><polygon fill="#969696" points="396.959 103.872 391.723 112.939 386.488 103.872 396.959 103.872"></polygon></g><g><line fill="none" stroke="#969696" stroke-miterlimit="10" stroke-width="1.5" x1="143.868" x2="143.868" y1="106.122" y2="68.604"></line><polygon fill="#969696" points="149.103 104.589 143.868 113.656 138.632 104.589 149.103 104.589"></polygon></g></svg>