<svg aria-labelledby="scalable-web-apps" height="373px" viewBox="0 0 617 373" width="617px" xmlns="http://www.w3.org/2000/svg"><title id="scalable-web-apps">Scalable Web Apps</title><desc>Quickly save, retrieve, and update web session data such as user cookies and output pages. Azure Cache for Redis improves the performance of your application by increasing its responsiveness and enabling it to handle increasing loads with less web-compute resources.</desc><g fill="none" fill-rule="evenodd"><path d="M469.983 372.956H616.28V0H469.983z" fill="#F4F4F4"></path><path d="M126.881 62.256h63.044v-1.5h-63.044z" fill="#959595"></path><path d="M188.8985 65.2876v-7.065l7.065 3.647zM126.881 192.256h63.044v-1.5h-63.044z" fill="#959595"></path><path d="M188.8985 195.2876v-7.065l7.065 3.647zM356.38 192.256h63.043v-1.5H356.38z" fill="#959595"></path><path d="M418.3975 195.2876v-7.065l7.065 3.647zM356.38 62.256h63.043v-1.5H356.38z" fill="#959595"></path><path d="M418.3975 65.2876v-7.065l7.065 3.647zM356.38 316.256h63.043v-1.5H356.38z" fill="#959595"></path><path d="M418.3975 319.2876v-7.065l7.065 3.647zM126.881 317.256h63.044v-1.5h-63.044z" fill="#959595"></path><path d="M188.8985 320.2876v-7.065l7.065 3.647z" fill="#959595"></path><path d="M272.0244 285.5258l.002.003c6.56-3.489 12.304-3.566 16.017-3.001-4.373-3.627-9.824-5.514-15.325-5.514-2.472 0-4.955.386-7.354 1.159 2.26 2.624 4.479 5.071 6.659 7.353h.001zM253.9122 305.813c-2.025-2.653-1.935-6.252.004-8.788-1.65-3.972-1.515-7.273-.968-9.587-5.531 8.049-5.729 18.94.107 27.296.128-2.471.522-5.332 1.393-8.302-.187-.194-.368-.399-.536-.619M257.211 294.5952c1.28-.464 2.65-.544 3.953-.271.262-.298.53-.597.809-.894 2.18-2.306 4.544-4.291 6.667-5.775-.005-.006-.011-.011-.016-.017-2.528-2.684-4.77-5.436-6.445-8.163-1.393.684-2.743 1.499-4.022 2.482-.941.72-1.811 1.498-2.615 2.322-.334 1.964-.476 5.69 1.669 10.316M276.5 290.1235c2.833 2.814 5.519 5.328 7.963 7.521 2.218-1.279 5.058-.751 6.66 1.323 1.12 1.469 1.315 3.351.701 4.965 1.866 1.512 3.158 2.507 4.114 3.218 1.83-6.925.556-14.589-4.14-20.717-.092-.122-.192-.235-.286-.353-.413-.039-6.517-.525-15.012 4.043M279.0586 318.4526c-2.092 1.597-5.088 1.206-6.705-.883-.757-1.003-1.049-2.213-.93-3.378-2.29-1.142-4.639-2.593-6.995-4.458-.686-.555-1.33-1.102-1.944-1.643-1.072.452-2.218.63-3.345.544-1.631 4.381-1.818 8.274-1.645 10.915 4.362 3.594 9.792 5.465 15.269 5.465 5.089 0 10.214-1.621 14.564-4.947.741-.567 1.435-1.173 2.091-1.805-2.406-.005-5.621-.16-9.297-.978-.285.432-.628.834-1.063 1.168M290.1582 306.187c-2.262 1.721-5.497 1.31-7.241-.965-1.211-1.582-1.336-3.638-.539-5.325-3.01-2.348-6.187-4.974-9.184-7.744.001 0 .001-.001.002-.001-.079-.072-.152-.147-.229-.218.076.073.147.15.226.224-1.953 1.331-4.04 2.99-6.26 5.063-.292.273-.561.549-.836.823 1.21 2.327 1.064 5.092-.305 7.249.419.359.852.716 1.304 1.075 2.242 1.775 4.415 3.185 6.49 4.31 2.066-1.329 4.838-.899 6.354 1.088.443.58.719 1.232.863 1.901 5.961 1.713 10.325 1.117 11.803.808 1.122-1.653 2.02-3.424 2.689-5.267-.908-.617-2.511-1.692-4.821-3.318-.107.097-.198.206-.316.297" fill="#59B4D9"></path><path d="M2.9063 95.5591v3.527h1.559c.674 0 1.197-.158 1.568-.478.372-.319.558-.756.558-1.313 0-1.156-.789-1.736-2.366-1.736h-1.319zm0-4.197v3.166h1.176c.629 0 1.123-.153 1.483-.455.361-.303.54-.731.54-1.282 0-.953-.627-1.429-1.88-1.429h-1.319zm-1.148 8.763v-9.802h2.789c.847 0 1.519.207 2.016.623.497.414.745.955.745 1.619 0 .556-.15 1.039-.451 1.449-.301.41-.716.703-1.244.875v.027c.661.079 1.189.329 1.586.748.396.422.595.971.595 1.645 0 .84-.301 1.518-.903 2.037-.601.52-1.36.779-2.276.779h-2.857zM13.2832 94.2602c-.196-.15-.479-.225-.848-.225-.478 0-.879.225-1.199.676-.322.451-.482 1.067-.482 1.846v3.568h-1.121v-7h1.121v1.444h.027c.159-.493.403-.877.731-1.153.329-.275.696-.414 1.101-.414.292 0 .515.033.67.096v1.162zM17.3233 93.9048c-.72 0-1.29.246-1.709.734-.419.491-.629 1.166-.629 2.028 0 .83.212 1.484.636 1.963.424.478.991.716 1.702.716.725 0 1.281-.234 1.672-.703.389-.47.584-1.136.584-2.004 0-.875-.195-1.548-.584-2.023-.391-.473-.947-.711-1.672-.711m-.082 6.385c-1.034 0-1.86-.326-2.479-.981-.617-.654-.925-1.521-.925-2.601 0-1.176.321-2.094.964-2.754.642-.662 1.51-.992 2.604-.992 1.044 0 1.858.322 2.443.964.586.643.879 1.534.879 2.672 0 1.118-.315 2.012-.947 2.684-.631.672-1.478 1.008-2.539 1.008M31.337 93.1255l-2.099 7h-1.162l-1.442-5.01c-.055-.191-.091-.408-.109-.65h-.028c-.014.164-.061.377-.143.637l-1.566 5.023h-1.121l-2.119-7h1.176l1.449 5.264c.046.16.077.369.096.629h.054c.014-.2.055-.414.123-.643l1.614-5.25h1.025l1.449 5.277c.046.17.08.379.103.629h.054c.009-.177.048-.386.117-.629l1.422-5.277h1.107zM32.212 99.8735v-1.203c.61.451 1.283.676 2.017.676.984 0 1.476-.328 1.476-.985 0-.185-.042-.345-.126-.474-.085-.131-.199-.244-.342-.346-.144-.1-.312-.189-.505-.27-.195-.08-.403-.162-.626-.25-.31-.123-.582-.246-.818-.373-.234-.125-.43-.265-.588-.423-.156-.157-.275-.336-.355-.536-.079-.201-.119-.435-.119-.705 0-.328.075-.619.225-.871.151-.254.351-.465.602-.636.251-.17.536-.299.858-.385.321-.088.653-.131.994-.131.607 0 1.149.105 1.627.314v1.135c-.514-.336-1.107-.506-1.777-.506-.21 0-.398.024-.567.073-.169.046-.314.115-.435.201-.12.088-.214.191-.279.31-.067.121-.1.256-.1.401 0 .183.033.336.1.459.065.123.162.232.29.328.128.095.282.181.465.259.182.077.389.163.622.252.309.12.588.241.834.366.246.127.456.267.629.424.172.158.306.339.4.544.093.206.14.45.14.731 0 .348-.077.648-.23.902-.152.256-.356.467-.611.637-.255.168-.549.293-.882.375-.333.082-.682.123-1.046.123-.72 0-1.345-.139-1.873-.416M43.0538 95.9555c-.005-.646-.161-1.15-.468-1.51-.308-.361-.735-.541-1.282-.541-.528 0-.978.19-1.347.569-.369.377-.596.873-.683 1.482h3.78zm1.148.951h-4.942c.019.779.228 1.381.629 1.805.401.424.952.635 1.654.635.788 0 1.513-.26 2.174-.78v1.053c-.615.447-1.429.67-2.44.67-.99 0-1.766-.318-2.331-.953-.566-.637-.848-1.529-.848-2.684 0-1.088.309-1.976.926-2.662.618-.685 1.384-1.029 2.301-1.029.916 0 1.625.297 2.125.889.501.593.752 1.416.752 2.468v.588zM49.5479 94.2602c-.196-.15-.479-.225-.848-.225-.478 0-.879.225-1.199.676-.322.451-.482 1.067-.482 1.846v3.568h-1.121v-7h1.121v1.444h.027c.159-.493.403-.877.731-1.153.329-.275.696-.414 1.101-.414.292 0 .515.033.67.096v1.162zM230.5547 345.9575l-1.538-4.178c-.05-.136-.101-.355-.15-.656h-.028c-.046.279-.097.498-.157.656l-1.524 4.178h3.397zm2.687 3.779h-1.272l-1.039-2.748h-4.156l-.978 2.748h-1.278l3.76-9.802h1.189l3.774 9.802zM239.4141 343.0591l-4.143 5.721h4.102v.957h-5.749v-.348l4.143-5.695h-3.753v-.957h5.4zM246.5235 349.7368h-1.121v-1.107h-.027c-.465.847-1.185 1.271-2.161 1.271-1.668 0-2.502-.992-2.502-2.98v-4.184h1.115v4.006c0 1.476.565 2.215 1.695 2.215.547 0 .997-.201 1.351-.606.352-.402.529-.929.529-1.582v-4.033h1.121v7zM252.4366 343.8716c-.196-.15-.479-.225-.848-.225-.478 0-.879.225-1.199.676-.322.451-.482 1.067-.482 1.846v3.568h-1.121v-7h1.121v1.444h.027c.159-.493.403-.877.731-1.153.329-.275.696-.414 1.101-.414.292 0 .515.033.67.096v1.162zM257.9463 345.5669c-.005-.646-.161-1.15-.468-1.51-.308-.361-.735-.541-1.282-.541-.528 0-.978.19-1.347.569-.369.377-.596.873-.683 1.482h3.78zm1.148.951h-4.942c.019.779.228 1.381.629 1.805.401.424.952.635 1.654.635.788 0 1.513-.26 2.174-.78v1.053c-.615.447-1.429.67-2.44.67-.99 0-1.766-.318-2.331-.953-.566-.637-.848-1.529-.848-2.684 0-1.088.309-1.976.926-2.662.618-.685 1.385-1.029 2.301-1.029.916 0 1.625.297 2.125.889.501.593.752 1.416.752 2.468v.588zM276.3965 339.9341l-2.769 9.803h-1.346l-2.017-7.164c-.087-.305-.139-.637-.157-.998h-.027c-.028.338-.087.666-.178.984l-2.03 7.178h-1.333l-2.872-9.803h1.265l2.085 7.52c.087.314.142.642.164.984h.034c.023-.24.094-.568.212-.984l2.167-7.52h1.101l2.078 7.574c.073.26.128.567.164.916h.027c.019-.236.08-.551.185-.943l2.003-7.547h1.244zM281.8448 345.5669c-.005-.646-.161-1.15-.468-1.51-.308-.361-.735-.541-1.282-.541-.528 0-.978.19-1.347.569-.369.377-.596.873-.683 1.482h3.78zm1.148.951h-4.942c.019.779.228 1.381.629 1.805.401.424.952.635 1.654.635.788 0 1.513-.26 2.174-.78v1.053c-.615.447-1.429.67-2.44.67-.99 0-1.766-.318-2.331-.953-.566-.637-.848-1.529-.848-2.684 0-1.088.309-1.976.926-2.662.618-.685 1.384-1.029 2.301-1.029.916 0 1.625.297 2.125.889.501.593.752 1.416.752 2.468v.588zM285.8096 345.9028v.977c0 .58.187 1.07.564 1.472.375.405.853.606 1.432.606.679 0 1.211-.26 1.596-.78.386-.519.578-1.242.578-2.166 0-.779-.18-1.39-.54-1.832-.36-.443-.848-.664-1.463-.664-.651 0-1.176.227-1.572.68-.397.455-.595 1.023-.595 1.707m.027 2.822h-.027v1.012h-1.121v-10.363h1.121v4.593h.027c.552-.929 1.359-1.394 2.42-1.394.898 0 1.601.314 2.11.939.507.627.761 1.467.761 2.52 0 1.172-.285 2.109-.854 2.812-.569.705-1.349 1.057-2.338 1.057-.925 0-1.625-.391-2.099-1.176M301.8057 345.9575l-1.538-4.178c-.05-.136-.101-.355-.15-.656h-.028c-.046.279-.097.498-.157.656l-1.524 4.178h3.397zm2.687 3.779h-1.272l-1.039-2.748h-4.156l-.978 2.748h-1.278l3.76-9.802h1.189l3.774 9.802zM306.9053 345.9028v.977c0 .58.187 1.07.564 1.472.375.405.853.606 1.432.606.679 0 1.211-.26 1.596-.78.386-.519.578-1.242.578-2.166 0-.779-.18-1.39-.54-1.832-.36-.443-.848-.664-1.463-.664-.651 0-1.176.227-1.572.68-.397.455-.595 1.023-.595 1.707m.027 2.822h-.027v4.233h-1.121v-10.221h1.121v1.23h.027c.552-.929 1.359-1.394 2.42-1.394.903 0 1.607.314 2.113.939.505.627.758 1.467.758 2.52 0 1.172-.285 2.109-.854 2.812-.569.705-1.349 1.057-2.338 1.057-.907 0-1.606-.391-2.099-1.176M315.1358 345.9028v.977c0 .58.187 1.07.564 1.472.375.405.853.606 1.432.606.679 0 1.211-.26 1.596-.78.386-.519.578-1.242.578-2.166 0-.779-.18-1.39-.54-1.832-.36-.443-.848-.664-1.463-.664-.651 0-1.176.227-1.572.68-.397.455-.595 1.023-.595 1.707m.027 2.822h-.027v4.233h-1.121v-10.221h1.121v1.23h.027c.552-.929 1.359-1.394 2.42-1.394.903 0 1.607.314 2.113.939.505.627.758 1.467.758 2.52 0 1.172-.285 2.109-.854 2.812-.569.705-1.349 1.057-2.338 1.057-.907 0-1.606-.391-2.099-1.176M248.442 366.538h1.148v-9.803h-1.148zM257.8272 366.5376h-1.121v-3.992c0-1.487-.542-2.229-1.627-2.229-.561 0-1.024.211-1.391.633-.367.42-.55.953-.55 1.596v3.992h-1.122v-7h1.122v1.162h.027c.528-.885 1.294-1.326 2.297-1.326.765 0 1.351.246 1.757.742.405.494.608 1.207.608 2.143v4.279zM259.5157 366.2837v-1.203c.61.451 1.283.678 2.017.678.984 0 1.476-.329 1.476-.985 0-.187-.042-.345-.126-.474-.085-.131-.199-.246-.342-.346-.144-.102-.312-.191-.505-.27-.195-.08-.403-.164-.626-.25-.31-.123-.582-.248-.818-.373-.234-.125-.43-.265-.588-.423-.156-.157-.275-.336-.355-.538-.079-.199-.119-.435-.119-.703 0-.328.075-.619.225-.871.151-.254.351-.465.602-.637.251-.169.536-.298.858-.386.321-.086.653-.129.994-.129.607 0 1.149.103 1.627.314v1.135c-.514-.338-1.107-.506-1.777-.506-.21 0-.398.024-.567.072-.169.047-.314.114-.435.202-.12.086-.214.189-.279.31-.067.121-.1.254-.1.401 0 .181.033.334.1.457.065.123.162.232.29.328.128.095.282.183.465.259.182.079.389.163.622.254.309.118.588.241.834.366s.456.267.629.423c.172.159.306.338.4.543.093.206.14.45.14.733 0 .346-.077.646-.23.902-.152.254-.356.467-.611.635-.255.17-.549.295-.882.377-.333.082-.682.123-1.046.123-.72 0-1.345-.139-1.873-.418M269.127 366.4692c-.265.145-.613.219-1.046.219-1.225 0-1.839-.684-1.839-2.051v-4.143h-1.203v-.957h1.203v-1.709l1.121-.363v2.072h1.764v.957h-1.764v3.944c0 .47.08.804.24 1.006.159.199.423.3.793.3.282 0 .526-.078.731-.232v.957zM274.5137 362.9966l-1.688.232c-.52.073-.912.202-1.176.387-.265.184-.397.51-.397.981 0 .341.122.621.365.838.245.214.57.324.975.324.556 0 1.016-.196 1.377-.584.363-.391.544-.885.544-1.481v-.697zm1.121 3.541h-1.121v-1.094h-.027c-.488.838-1.205 1.258-2.154 1.258-.697 0-1.243-.185-1.636-.555-.395-.369-.592-.859-.592-1.468 0-1.309.77-2.071 2.31-2.284l2.099-.294c0-1.19-.48-1.784-1.442-1.784-.843 0-1.605.287-2.284.862v-1.149c.689-.437 1.482-.656 2.379-.656 1.646 0 2.468.869 2.468 2.611v4.553zM283.5576 366.5376h-1.121v-3.992c0-1.487-.542-2.229-1.627-2.229-.561 0-1.024.211-1.391.633-.367.42-.55.953-.55 1.596v3.992h-1.122v-7h1.122v1.162h.027c.528-.885 1.294-1.326 2.297-1.326.765 0 1.351.246 1.757.742.405.494.608 1.207.608 2.143v4.279zM290.4414 366.2153c-.538.324-1.176.486-1.914.486-.998 0-1.804-.324-2.416-.974-.613-.649-.92-1.492-.92-2.526 0-1.154.33-2.08.991-2.779.661-.699 1.543-1.049 2.646-1.049.615 0 1.157.113 1.627.342v1.148c-.52-.365-1.076-.546-1.668-.546-.716 0-1.303.255-1.76.769-.459.512-.688 1.186-.688 2.02 0 .82.215 1.466.647 1.941.43.473 1.008.711 1.732.711.611 0 1.185-.203 1.723-.609v1.066zM296.6143 362.3677c-.005-.648-.161-1.15-.468-1.512-.308-.359-.735-.539-1.282-.539-.528 0-.978.19-1.347.567-.369.379-.596.873-.683 1.484h3.78zm1.148.949h-4.942c.019.78.228 1.381.629 1.805.401.424.952.637 1.654.637.788 0 1.513-.26 2.174-.78v1.053c-.615.445-1.429.67-2.44.67-.99 0-1.766-.318-2.331-.953-.566-.637-.848-1.531-.848-2.684 0-1.09.309-1.976.926-2.662.618-.687 1.384-1.029 2.301-1.029.916 0 1.625.295 2.125.889.501.591.752 1.414.752 2.466v.588z" fill="#525252"></path><path d="M272.0244 25.5258l.002.003c6.56-3.489 12.304-3.566 16.017-3.001-4.373-3.627-9.824-5.514-15.325-5.514-2.472 0-4.955.386-7.354 1.159 2.26 2.624 4.479 5.071 6.659 7.353h.001zM253.9122 45.813c-2.025-2.653-1.935-6.252.004-8.788-1.65-3.972-1.515-7.273-.968-9.587-5.531 8.049-5.729 18.94.107 27.296.128-2.471.522-5.332 1.393-8.302-.187-.194-.368-.399-.536-.619M257.211 34.5952c1.28-.464 2.65-.544 3.953-.271.262-.298.53-.597.809-.894 2.18-2.306 4.544-4.291 6.667-5.775-.005-.006-.011-.011-.016-.017-2.528-2.684-4.77-5.436-6.445-8.163-1.393.684-2.743 1.499-4.022 2.482-.941.72-1.811 1.498-2.615 2.322-.334 1.964-.476 5.69 1.669 10.316M276.5 30.1235c2.833 2.814 5.519 5.328 7.963 7.521 2.218-1.279 5.058-.751 6.66 1.323 1.12 1.469 1.315 3.351.701 4.965 1.866 1.512 3.158 2.507 4.114 3.218 1.83-6.925.556-14.589-4.14-20.717-.092-.122-.192-.235-.286-.353-.413-.039-6.517-.525-15.012 4.043M279.0586 58.4526c-2.092 1.597-5.088 1.206-6.705-.883-.757-1.003-1.049-2.213-.93-3.378-2.29-1.142-4.639-2.593-6.995-4.458-.686-.555-1.33-1.102-1.944-1.643-1.072.452-2.218.63-3.345.544-1.631 4.381-1.818 8.274-1.645 10.915 4.362 3.594 9.792 5.465 15.269 5.465 5.089 0 10.214-1.621 14.564-4.947.741-.567 1.435-1.173 2.091-1.805-2.406-.005-5.621-.16-9.297-.978-.285.432-.628.834-1.063 1.168M290.1582 46.187c-2.262 1.721-5.497 1.31-7.241-.965-1.211-1.582-1.336-3.638-.539-5.325-3.01-2.348-6.187-4.974-9.184-7.744.001 0 .001-.001.002-.001-.079-.072-.152-.147-.229-.218.076.073.147.15.226.224-1.953 1.331-4.04 2.99-6.26 5.063-.292.273-.561.549-.836.823 1.21 2.327 1.064 5.092-.305 7.249.419.359.852.716 1.304 1.075 2.242 1.775 4.415 3.185 6.49 4.31 2.066-1.329 4.838-.899 6.354 1.088.443.58.719 1.232.863 1.901 5.961 1.713 10.325 1.117 11.803.808 1.122-1.653 2.02-3.424 2.689-5.267-.908-.617-2.511-1.692-4.821-3.318-.107.097-.198.206-.316.297" fill="#59B4D9"></path><path d="M230.5547 85.9575l-1.538-4.178c-.05-.136-.101-.355-.15-.656h-.028c-.046.279-.097.498-.157.656l-1.524 4.178h3.397zm2.687 3.779h-1.272l-1.039-2.748h-4.156l-.978 2.748h-1.278l3.76-9.802h1.189l3.774 9.802zM239.4141 83.0591l-4.143 5.721h4.102v.957h-5.749v-.348l4.143-5.695h-3.753v-.957h5.4zM246.5235 89.7368h-1.121v-1.107h-.027c-.465.847-1.185 1.271-2.161 1.271-1.668 0-2.502-.992-2.502-2.98v-4.184h1.115v4.006c0 1.476.565 2.215 1.695 2.215.547 0 .997-.201 1.351-.606.352-.402.529-.929.529-1.582v-4.033h1.121v7zM252.4366 83.8716c-.196-.15-.479-.225-.848-.225-.478 0-.879.225-1.199.676-.322.451-.482 1.067-.482 1.846v3.568h-1.121v-7h1.121v1.444h.027c.159-.493.403-.877.731-1.153.329-.275.696-.414 1.101-.414.292 0 .515.033.67.096v1.162zM257.9463 85.5669c-.005-.646-.161-1.15-.468-1.51-.308-.361-.735-.541-1.282-.541-.528 0-.978.19-1.347.569-.369.377-.596.873-.683 1.482h3.78zm1.148.951h-4.942c.019.779.228 1.381.629 1.805.401.424.952.635 1.654.635.788 0 1.513-.26 2.174-.78v1.053c-.615.447-1.429.67-2.44.67-.99 0-1.766-.318-2.331-.953-.566-.637-.848-1.529-.848-2.684 0-1.088.309-1.976.926-2.662.618-.685 1.385-1.029 2.301-1.029.916 0 1.625.297 2.125.889.501.593.752 1.416.752 2.468v.588zM276.3965 79.9341l-2.769 9.803h-1.346l-2.017-7.164c-.087-.305-.139-.637-.157-.998h-.027c-.028.338-.087.666-.178.984l-2.03 7.178h-1.333l-2.872-9.803h1.265l2.085 7.52c.087.314.142.642.164.984h.034c.023-.24.094-.568.212-.984l2.167-7.52h1.101l2.078 7.574c.073.26.128.567.164.916h.027c.019-.236.08-.551.185-.943l2.003-7.547h1.244zM281.8448 85.5669c-.005-.646-.161-1.15-.468-1.51-.308-.361-.735-.541-1.282-.541-.528 0-.978.19-1.347.569-.369.377-.596.873-.683 1.482h3.78zm1.148.951h-4.942c.019.779.228 1.381.629 1.805.401.424.952.635 1.654.635.788 0 1.513-.26 2.174-.78v1.053c-.615.447-1.429.67-2.44.67-.99 0-1.766-.318-2.331-.953-.566-.637-.848-1.529-.848-2.684 0-1.088.309-1.976.926-2.662.618-.685 1.384-1.029 2.301-1.029.916 0 1.625.297 2.125.889.501.593.752 1.416.752 2.468v.588zM285.8096 85.9028v.977c0 .58.187 1.07.564 1.472.375.405.853.606 1.432.606.679 0 1.211-.26 1.596-.78.386-.519.578-1.242.578-2.166 0-.779-.18-1.39-.54-1.832-.36-.443-.848-.664-1.463-.664-.651 0-1.176.227-1.572.68-.397.455-.595 1.023-.595 1.707m.027 2.822h-.027v1.012h-1.121v-10.363h1.121v4.593h.027c.552-.929 1.359-1.394 2.42-1.394.898 0 1.601.314 2.11.939.507.627.761 1.467.761 2.52 0 1.172-.285 2.109-.854 2.812-.569.705-1.349 1.057-2.338 1.057-.925 0-1.625-.391-2.099-1.176M301.8057 85.9575l-1.538-4.178c-.05-.136-.101-.355-.15-.656h-.028c-.046.279-.097.498-.157.656l-1.524 4.178h3.397zm2.687 3.779h-1.272l-1.039-2.748h-4.156l-.978 2.748h-1.278l3.76-9.802h1.189l3.774 9.802zM306.9053 85.9028v.977c0 .58.187 1.07.564 1.472.375.405.853.606 1.432.606.679 0 1.211-.26 1.596-.78.386-.519.578-1.242.578-2.166 0-.779-.18-1.39-.54-1.832-.36-.443-.848-.664-1.463-.664-.651 0-1.176.227-1.572.68-.397.455-.595 1.023-.595 1.707m.027 2.822h-.027v4.233h-1.121v-10.221h1.121v1.23h.027c.552-.929 1.359-1.394 2.42-1.394.903 0 1.607.314 2.113.939.505.627.758 1.467.758 2.52 0 1.172-.285 2.109-.854 2.812-.569.705-1.349 1.057-2.338 1.057-.907 0-1.606-.391-2.099-1.176M315.1358 85.9028v.977c0 .58.187 1.07.564 1.472.375.405.853.606 1.432.606.679 0 1.211-.26 1.596-.78.386-.519.578-1.242.578-2.166 0-.779-.18-1.39-.54-1.832-.36-.443-.848-.664-1.463-.664-.651 0-1.176.227-1.572.68-.397.455-.595 1.023-.595 1.707m.027 2.822h-.027v4.233h-1.121v-10.221h1.121v1.23h.027c.552-.929 1.359-1.394 2.42-1.394.903 0 1.607.314 2.113.939.505.627.758 1.467.758 2.52 0 1.172-.285 2.109-.854 2.812-.569.705-1.349 1.057-2.338 1.057-.907 0-1.606-.391-2.099-1.176M248.442 106.538h1.148v-9.803h-1.148zM257.8272 106.5376h-1.121v-3.992c0-1.487-.542-2.229-1.627-2.229-.561 0-1.024.211-1.391.633-.367.42-.55.953-.55 1.596v3.992h-1.122v-7h1.122v1.162h.027c.528-.885 1.294-1.326 2.297-1.326.765 0 1.351.246 1.757.742.405.494.608 1.207.608 2.143v4.279zM259.5157 106.2837v-1.203c.61.451 1.283.678 2.017.678.984 0 1.476-.329 1.476-.985 0-.187-.042-.345-.126-.474-.085-.131-.199-.246-.342-.346-.144-.102-.312-.191-.505-.27-.195-.08-.403-.164-.626-.25-.31-.123-.582-.248-.818-.373-.234-.125-.43-.265-.588-.423-.156-.157-.275-.336-.355-.538-.079-.199-.119-.435-.119-.703 0-.328.075-.619.225-.871.151-.254.351-.465.602-.637.251-.169.536-.298.858-.386.321-.086.653-.129.994-.129.607 0 1.149.103 1.627.314v1.135c-.514-.338-1.107-.506-1.777-.506-.21 0-.398.024-.567.072-.169.047-.314.114-.435.202-.12.086-.214.189-.279.31-.067.121-.1.254-.1.401 0 .181.033.334.1.457.065.123.162.232.29.328.128.095.282.183.465.259.182.079.389.163.622.254.309.118.588.241.834.366s.456.267.629.423c.172.159.306.338.4.543.093.206.14.45.14.733 0 .346-.077.646-.23.902-.152.254-.356.467-.611.635-.255.17-.549.295-.882.377-.333.082-.682.123-1.046.123-.72 0-1.345-.139-1.873-.418M269.127 106.4692c-.265.145-.613.219-1.046.219-1.225 0-1.839-.684-1.839-2.051v-4.143h-1.203v-.957h1.203v-1.709l1.121-.363v2.072h1.764v.957h-1.764v3.944c0 .47.08.804.24 1.006.159.199.423.3.793.3.282 0 .526-.078.731-.232v.957zM274.5137 102.9966l-1.688.232c-.52.073-.912.202-1.176.387-.265.184-.397.51-.397.981 0 .341.122.621.365.838.245.214.57.324.975.324.556 0 1.016-.196 1.377-.584.363-.391.544-.885.544-1.481v-.697zm1.121 3.541h-1.121v-1.094h-.027c-.488.838-1.205 1.258-2.154 1.258-.697 0-1.243-.185-1.636-.555-.395-.369-.592-.859-.592-1.468 0-1.309.77-2.071 2.31-2.284l2.099-.294c0-1.19-.48-1.784-1.442-1.784-.843 0-1.605.287-2.284.862v-1.149c.689-.437 1.482-.656 2.379-.656 1.646 0 2.468.869 2.468 2.611v4.553zM283.5576 106.5376h-1.121v-3.992c0-1.487-.542-2.229-1.627-2.229-.561 0-1.024.211-1.391.633-.367.42-.55.953-.55 1.596v3.992h-1.122v-7h1.122v1.162h.027c.528-.885 1.294-1.326 2.297-1.326.765 0 1.351.246 1.757.742.405.494.608 1.207.608 2.143v4.279zM290.4414 106.2153c-.538.324-1.176.486-1.914.486-.998 0-1.804-.324-2.416-.974-.613-.649-.92-1.492-.92-2.526 0-1.154.33-2.08.991-2.779.661-.699 1.543-1.049 2.646-1.049.615 0 1.157.113 1.627.342v1.148c-.52-.365-1.076-.546-1.668-.546-.716 0-1.303.255-1.76.769-.459.512-.688 1.186-.688 2.02 0 .82.215 1.466.647 1.941.43.473 1.008.711 1.732.711.611 0 1.185-.203 1.723-.609v1.066zM296.6143 102.3676c-.005-.648-.161-1.15-.468-1.512-.308-.359-.735-.539-1.282-.539-.528 0-.978.19-1.347.567-.369.379-.596.873-.683 1.484h3.78zm1.148.949h-4.942c.019.78.228 1.381.629 1.805.401.424.952.637 1.654.637.788 0 1.513-.26 2.174-.78v1.053c-.615.445-1.429.67-2.44.67-.99 0-1.766-.318-2.331-.953-.566-.637-.848-1.531-.848-2.684 0-1.09.309-1.976.926-2.662.618-.687 1.384-1.029 2.301-1.029.916 0 1.625.295 2.125.889.501.591.752 1.414.752 2.466v.588z" fill="#525252"></path><path d="M272.0244 145.5259l.002.003c6.56-3.489 12.304-3.566 16.017-3.001-4.373-3.627-9.824-5.514-15.325-5.514-2.472 0-4.955.386-7.354 1.159 2.26 2.624 4.479 5.071 6.659 7.353h.001zM253.9122 165.813c-2.025-2.653-1.935-6.252.004-8.788-1.65-3.972-1.515-7.273-.968-9.587-5.531 8.049-5.729 18.94.107 27.296.128-2.471.522-5.332 1.393-8.302-.187-.194-.368-.399-.536-.619M257.211 154.5952c1.28-.464 2.65-.544 3.953-.271.262-.298.53-.597.809-.894 2.18-2.306 4.544-4.291 6.667-5.775-.005-.006-.011-.011-.016-.017-2.528-2.684-4.77-5.436-6.445-8.163-1.393.684-2.743 1.499-4.022 2.482-.941.72-1.811 1.498-2.615 2.322-.334 1.964-.476 5.69 1.669 10.316M276.5 150.1235c2.833 2.814 5.519 5.328 7.963 7.521 2.218-1.279 5.058-.751 6.66 1.323 1.12 1.469 1.315 3.351.701 4.965 1.866 1.512 3.158 2.507 4.114 3.218 1.83-6.925.556-14.589-4.14-20.717-.092-.122-.192-.235-.286-.353-.413-.039-6.517-.525-15.012 4.043M279.0586 178.4526c-2.092 1.597-5.088 1.206-6.705-.883-.757-1.003-1.049-2.213-.93-3.378-2.29-1.142-4.639-2.593-6.995-4.458-.686-.555-1.33-1.102-1.944-1.643-1.072.452-2.218.63-3.345.544-1.631 4.381-1.818 8.274-1.645 10.915 4.362 3.594 9.792 5.465 15.269 5.465 5.089 0 10.214-1.621 14.564-4.947.741-.567 1.435-1.173 2.091-1.805-2.406-.005-5.621-.16-9.297-.978-.285.432-.628.834-1.063 1.168M290.1582 166.187c-2.262 1.721-5.497 1.31-7.241-.965-1.211-1.582-1.336-3.638-.539-5.325-3.01-2.348-6.187-4.974-9.184-7.744.001 0 .001-.001.002-.001-.079-.072-.152-.147-.229-.218.076.073.147.15.226.224-1.953 1.331-4.04 2.99-6.26 5.063-.292.273-.561.549-.836.823 1.21 2.327 1.064 5.092-.305 7.249.419.359.852.716 1.304 1.075 2.242 1.775 4.415 3.185 6.49 4.31 2.066-1.329 4.838-.899 6.354 1.088.443.58.719 1.232.863 1.901 5.961 1.713 10.325 1.117 11.803.808 1.122-1.653 2.02-3.424 2.689-5.267-.908-.617-2.511-1.692-4.821-3.318-.107.097-.198.206-.316.297" fill="#59B4D9"></path><path d="M230.5547 205.9575l-1.538-4.178c-.05-.136-.101-.355-.15-.656h-.028c-.046.279-.097.498-.157.656l-1.524 4.178h3.397zm2.687 3.779h-1.272l-1.039-2.748h-4.156l-.978 2.748h-1.278l3.76-9.802h1.189l3.774 9.802zM239.4141 203.0591l-4.143 5.721h4.102v.957h-5.749v-.348l4.143-5.695h-3.753v-.957h5.4zM246.5235 209.7368h-1.121v-1.107h-.027c-.465.847-1.185 1.271-2.161 1.271-1.668 0-2.502-.992-2.502-2.98v-4.184h1.115v4.006c0 1.476.565 2.215 1.695 2.215.547 0 .997-.201 1.351-.606.352-.402.529-.929.529-1.582v-4.033h1.121v7zM252.4366 203.8716c-.196-.15-.479-.225-.848-.225-.478 0-.879.225-1.199.676-.322.451-.482 1.067-.482 1.846v3.568h-1.121v-7h1.121v1.444h.027c.159-.493.403-.877.731-1.153.329-.275.696-.414 1.101-.414.292 0 .515.033.67.096v1.162zM257.9463 205.5669c-.005-.646-.161-1.15-.468-1.51-.308-.361-.735-.541-1.282-.541-.528 0-.978.19-1.347.569-.369.377-.596.873-.683 1.482h3.78zm1.148.951h-4.942c.019.779.228 1.381.629 1.805.401.424.952.635 1.654.635.788 0 1.513-.26 2.174-.78v1.053c-.615.447-1.429.67-2.44.67-.99 0-1.766-.318-2.331-.953-.566-.637-.848-1.529-.848-2.684 0-1.088.309-1.976.926-2.662.618-.685 1.385-1.029 2.301-1.029.916 0 1.625.297 2.125.889.501.593.752 1.416.752 2.468v.588zM276.3965 199.9341l-2.769 9.803h-1.346l-2.017-7.164c-.087-.305-.139-.637-.157-.998h-.027c-.028.338-.087.666-.178.984l-2.03 7.178h-1.333l-2.872-9.803h1.265l2.085 7.52c.087.314.142.642.164.984h.034c.023-.24.094-.568.212-.984l2.167-7.52h1.101l2.078 7.574c.073.26.128.567.164.916h.027c.019-.236.08-.551.185-.943l2.003-7.547h1.244zM281.8448 205.5669c-.005-.646-.161-1.15-.468-1.51-.308-.361-.735-.541-1.282-.541-.528 0-.978.19-1.347.569-.369.377-.596.873-.683 1.482h3.78zm1.148.951h-4.942c.019.779.228 1.381.629 1.805.401.424.952.635 1.654.635.788 0 1.513-.26 2.174-.78v1.053c-.615.447-1.429.67-2.44.67-.99 0-1.766-.318-2.331-.953-.566-.637-.848-1.529-.848-2.684 0-1.088.309-1.976.926-2.662.618-.685 1.384-1.029 2.301-1.029.916 0 1.625.297 2.125.889.501.593.752 1.416.752 2.468v.588zM285.8096 205.9028v.977c0 .58.187 1.07.564 1.472.375.405.853.606 1.432.606.679 0 1.211-.26 1.596-.78.386-.519.578-1.242.578-2.166 0-.779-.18-1.39-.54-1.832-.36-.443-.848-.664-1.463-.664-.651 0-1.176.227-1.572.68-.397.455-.595 1.023-.595 1.707m.027 2.822h-.027v1.012h-1.121v-10.363h1.121v4.593h.027c.552-.929 1.359-1.394 2.42-1.394.898 0 1.601.314 2.11.939.507.627.761 1.467.761 2.52 0 1.172-.285 2.109-.854 2.812-.569.705-1.349 1.057-2.338 1.057-.925 0-1.625-.391-2.099-1.176M301.8057 205.9575l-1.538-4.178c-.05-.136-.101-.355-.15-.656h-.028c-.046.279-.097.498-.157.656l-1.524 4.178h3.397zm2.687 3.779h-1.272l-1.039-2.748h-4.156l-.978 2.748h-1.278l3.76-9.802h1.189l3.774 9.802zM306.9053 205.9028v.977c0 .58.187 1.07.564 1.472.375.405.853.606 1.432.606.679 0 1.211-.26 1.596-.78.386-.519.578-1.242.578-2.166 0-.779-.18-1.39-.54-1.832-.36-.443-.848-.664-1.463-.664-.651 0-1.176.227-1.572.68-.397.455-.595 1.023-.595 1.707m.027 2.822h-.027v4.233h-1.121v-10.221h1.121v1.23h.027c.552-.929 1.359-1.394 2.42-1.394.903 0 1.607.314 2.113.939.505.627.758 1.467.758 2.52 0 1.172-.285 2.109-.854 2.812-.569.705-1.349 1.057-2.338 1.057-.907 0-1.606-.391-2.099-1.176M315.1358 205.9028v.977c0 .58.187 1.07.564 1.472.375.405.853.606 1.432.606.679 0 1.211-.26 1.596-.78.386-.519.578-1.242.578-2.166 0-.779-.18-1.39-.54-1.832-.36-.443-.848-.664-1.463-.664-.651 0-1.176.227-1.572.68-.397.455-.595 1.023-.595 1.707m.027 2.822h-.027v4.233h-1.121v-10.221h1.121v1.23h.027c.552-.929 1.359-1.394 2.42-1.394.903 0 1.607.314 2.113.939.505.627.758 1.467.758 2.52 0 1.172-.285 2.109-.854 2.812-.569.705-1.349 1.057-2.338 1.057-.907 0-1.606-.391-2.099-1.176M248.442 226.538h1.148v-9.803h-1.148zM257.8272 226.5376h-1.121v-3.992c0-1.487-.542-2.229-1.627-2.229-.561 0-1.024.211-1.391.633-.367.42-.55.953-.55 1.596v3.992h-1.122v-7h1.122v1.162h.027c.528-.885 1.294-1.326 2.297-1.326.765 0 1.351.246 1.757.742.405.494.608 1.207.608 2.143v4.279zM259.5157 226.2837v-1.203c.61.451 1.283.678 2.017.678.984 0 1.476-.329 1.476-.985 0-.187-.042-.345-.126-.474-.085-.131-.199-.246-.342-.346-.144-.102-.312-.191-.505-.27-.195-.08-.403-.164-.626-.25-.31-.123-.582-.248-.818-.373-.234-.125-.43-.265-.588-.423-.156-.157-.275-.336-.355-.538-.079-.199-.119-.435-.119-.703 0-.328.075-.619.225-.871.151-.254.351-.465.602-.637.251-.169.536-.298.858-.386.321-.086.653-.129.994-.129.607 0 1.149.103 1.627.314v1.135c-.514-.338-1.107-.506-1.777-.506-.21 0-.398.024-.567.072-.169.047-.314.114-.435.202-.12.086-.214.189-.279.31-.067.121-.1.254-.1.401 0 .181.033.334.1.457.065.123.162.232.29.328.128.095.282.183.465.259.182.079.389.163.622.254.309.118.588.241.834.366s.456.267.629.423c.172.159.306.338.4.543.093.206.14.45.14.733 0 .346-.077.646-.23.902-.152.254-.356.467-.611.635-.255.17-.549.295-.882.377-.333.082-.682.123-1.046.123-.72 0-1.345-.139-1.873-.418M269.127 226.4692c-.265.145-.613.219-1.046.219-1.225 0-1.839-.684-1.839-2.051v-4.143h-1.203v-.957h1.203v-1.709l1.121-.363v2.072h1.764v.957h-1.764v3.944c0 .47.08.804.24 1.006.159.199.423.3.793.3.282 0 .526-.078.731-.232v.957zM274.5137 222.9966l-1.688.232c-.52.073-.912.202-1.176.387-.265.184-.397.51-.397.981 0 .341.122.621.365.838.245.214.57.324.975.324.556 0 1.016-.196 1.377-.584.363-.391.544-.885.544-1.481v-.697zm1.121 3.541h-1.121v-1.094h-.027c-.488.838-1.205 1.258-2.154 1.258-.697 0-1.243-.185-1.636-.555-.395-.369-.592-.859-.592-1.468 0-1.309.77-2.071 2.31-2.284l2.099-.294c0-1.19-.48-1.784-1.442-1.784-.843 0-1.605.287-2.284.862v-1.149c.689-.437 1.482-.656 2.379-.656 1.646 0 2.468.869 2.468 2.611v4.553zM283.5576 226.5376h-1.121v-3.992c0-1.487-.542-2.229-1.627-2.229-.561 0-1.024.211-1.391.633-.367.42-.55.953-.55 1.596v3.992h-1.122v-7h1.122v1.162h.027c.528-.885 1.294-1.326 2.297-1.326.765 0 1.351.246 1.757.742.405.494.608 1.207.608 2.143v4.279zM290.4414 226.2153c-.538.324-1.176.486-1.914.486-.998 0-1.804-.324-2.416-.974-.613-.649-.92-1.492-.92-2.526 0-1.154.33-2.08.991-2.779.661-.699 1.543-1.049 2.646-1.049.615 0 1.157.113 1.627.342v1.148c-.52-.365-1.076-.546-1.668-.546-.716 0-1.303.255-1.76.769-.459.512-.688 1.186-.688 2.02 0 .82.215 1.466.647 1.941.43.473 1.008.711 1.732.711.611 0 1.185-.203 1.723-.609v1.066zM296.6143 222.3677c-.005-.648-.161-1.15-.468-1.512-.308-.359-.735-.539-1.282-.539-.528 0-.978.19-1.347.567-.369.379-.596.873-.683 1.484h3.78zm1.148.949h-4.942c.019.78.228 1.381.629 1.805.401.424.952.637 1.654.637.788 0 1.513-.26 2.174-.78v1.053c-.615.445-1.429.67-2.44.67-.99 0-1.766-.318-2.331-.953-.566-.637-.848-1.531-.848-2.684 0-1.09.309-1.976.926-2.662.618-.687 1.384-1.029 2.301-1.029.916 0 1.625.295 2.125.889.501.591.752 1.414.752 2.466v.588zM493.2871 201.6684l-1.538-4.176c-.05-.136-.101-.355-.15-.656h-.028c-.046.277-.097.496-.157.656l-1.524 4.176h3.397zm2.687 3.781h-1.272l-1.039-2.748h-4.156l-.978 2.748h-1.278l3.76-9.802h1.189l3.774 9.802zM502.1465 198.77l-4.143 5.723h4.102v.957h-5.749v-.35l4.143-5.693h-3.753v-.957h5.4zM509.2559 205.4497h-1.121v-1.107h-.027c-.465.847-1.185 1.271-2.161 1.271-1.668 0-2.502-.994-2.502-2.98v-4.184h1.115v4.006c0 1.476.565 2.215 1.695 2.215.547 0 .997-.201 1.351-.606.352-.402.529-.931.529-1.582v-4.033h1.121v7zM515.169 199.5845c-.196-.15-.479-.227-.848-.227-.478 0-.879.227-1.199.678-.322.451-.482 1.067-.482 1.846v3.568h-1.121v-7h1.121v1.442h.027c.159-.493.403-.875.731-1.151.329-.277.696-.414 1.101-.414.292 0 .515.031.67.096v1.162zM520.6788 201.2798c-.005-.648-.161-1.15-.468-1.512-.308-.359-.735-.539-1.282-.539-.528 0-.978.19-1.347.567-.369.379-.596.873-.683 1.484h3.78zm1.148.949h-4.942c.019.78.228 1.381.629 1.805.401.424.952.637 1.654.637.788 0 1.513-.26 2.174-.78v1.053c-.615.445-1.429.67-2.44.67-.99 0-1.766-.318-2.331-.953-.566-.637-.848-1.531-.848-2.684 0-1.09.309-1.976.926-2.662.618-.687 1.384-1.029 2.301-1.029.916 0 1.625.295 2.125.889.501.591.752 1.414.752 2.466v.588zM528.6563 196.686v3.555h1.559c.287 0 .552-.043.796-.131.244-.086.455-.211.632-.371.178-.162.317-.362.417-.596.101-.234.151-.498.151-.789 0-.525-.17-.934-.51-1.227-.339-.295-.83-.441-1.473-.441h-1.572zm5.879 8.764h-1.367l-1.641-2.748c-.15-.256-.296-.473-.437-.653-.142-.181-.287-.328-.434-.441-.148-.115-.309-.197-.479-.25-.171-.053-.364-.078-.578-.078h-.943v4.17h-1.148v-9.803h2.925c.429 0 .825.053 1.186.16.363.108.678.27.943.488.268.219.476.493.626.819.151.324.226.707.226 1.144 0 .342-.051.655-.154.94-.102.285-.249.539-.438.761-.188.225-.416.415-.684.573-.265.156-.565.277-.898.365v.027c.164.073.307.157.428.25.12.092.235.203.344.33.11.129.218.274.326.436.106.16.226.35.358.562l1.839 2.948zM539.8194 201.2798c-.005-.648-.161-1.15-.468-1.512-.308-.359-.735-.539-1.282-.539-.528 0-.978.19-1.347.567-.369.379-.596.873-.683 1.484h3.78zm1.148.949h-4.942c.019.78.228 1.381.629 1.805.401.424.952.637 1.654.637.788 0 1.513-.26 2.174-.78v1.053c-.615.445-1.429.67-2.44.67-.99 0-1.766-.318-2.331-.953-.566-.637-.848-1.531-.848-2.684 0-1.09.309-1.976.926-2.662.618-.687 1.384-1.029 2.301-1.029.916 0 1.625.295 2.125.889.501.591.752 1.414.752 2.466v.588zM547.5167 202.2837v-1.031c0-.567-.187-1.045-.561-1.436-.374-.392-.847-.588-1.421-.588-.684 0-1.222.25-1.614.752-.391.5-.588 1.194-.588 2.078 0 .807.188 1.444.565 1.911.375.466.88.701 1.514.701.624 0 1.13-.227 1.521-.678.389-.451.584-1.02.584-1.709zm1.121 3.166h-1.121v-1.189h-.027c-.52.902-1.322 1.353-2.407 1.353-.879 0-1.582-.314-2.109-.939-.525-.627-.789-1.481-.789-2.561 0-1.158.292-2.086.875-2.783.583-.697 1.36-1.045 2.331-1.045.962 0 1.661.377 2.099 1.135h.027v-4.334h1.121v10.363zM550.907 205.45h1.121v-7h-1.121v7zm.575-8.778c-.201 0-.372-.068-.513-.205-.142-.136-.212-.31-.212-.519 0-.211.07-.385.212-.524.141-.138.312-.209.513-.209.205 0 .378.071.523.209.143.139.215.313.215.524 0 .199-.072.371-.215.511-.145.143-.318.213-.523.213zM553.8741 205.1958v-1.203c.61.451 1.283.678 2.017.678.984 0 1.476-.329 1.476-.985 0-.187-.042-.345-.126-.474-.085-.131-.199-.246-.342-.346-.144-.102-.312-.191-.505-.27-.195-.08-.403-.164-.626-.25-.31-.123-.582-.248-.818-.373-.234-.125-.43-.265-.588-.423-.156-.157-.275-.336-.355-.538-.079-.199-.119-.435-.119-.703 0-.328.075-.619.225-.871.151-.254.351-.465.602-.637.251-.169.536-.298.858-.386.321-.086.653-.129.994-.129.607 0 1.149.103 1.627.314v1.135c-.514-.338-1.107-.506-1.777-.506-.21 0-.398.024-.567.072-.169.047-.314.114-.435.202-.12.086-.214.189-.279.31-.067.121-.1.254-.1.401 0 .181.033.334.1.457.065.123.162.232.29.328.128.095.282.183.465.259.182.079.389.163.622.254.309.118.588.241.834.366s.456.267.629.423c.172.159.306.338.4.543.093.206.14.45.14.733 0 .346-.077.646-.23.902-.152.254-.356.467-.611.635-.255.17-.549.295-.882.377-.333.082-.682.123-1.046.123-.72 0-1.345-.139-1.873-.418M570.8956 205.0395c-.725.383-1.627.574-2.707.574-1.395 0-2.511-.449-3.35-1.347-.839-.897-1.257-2.077-1.257-3.534 0-1.568.471-2.836 1.415-3.8.943-.967 2.139-1.45 3.588-1.45.93 0 1.701.135 2.311.403v1.224c-.702-.392-1.477-.588-2.324-.588-1.126 0-2.038.375-2.738 1.127-.7.752-1.049 1.758-1.049 3.016 0 1.193.327 2.145.98 2.854.654.709 1.513 1.062 2.574 1.062.985 0 1.837-.219 2.557-.656v1.115zM576.6309 201.9087l-1.688.232c-.52.073-.912.202-1.176.387-.265.184-.397.51-.397.981 0 .341.122.621.365.838.245.214.57.324.975.324.556 0 1.016-.196 1.377-.584.363-.391.544-.885.544-1.481v-.697zm1.121 3.541h-1.121v-1.094h-.027c-.488.838-1.205 1.258-2.154 1.258-.697 0-1.243-.185-1.636-.555-.395-.369-.592-.859-.592-1.468 0-1.309.77-2.071 2.31-2.284l2.099-.294c0-1.19-.48-1.784-1.442-1.784-.843 0-1.605.287-2.284.862v-1.149c.689-.437 1.482-.656 2.379-.656 1.646 0 2.468.869 2.468 2.611v4.553zM584.6358 205.1274c-.538.324-1.176.486-1.914.486-.998 0-1.804-.324-2.416-.974-.613-.649-.92-1.492-.92-2.526 0-1.154.33-2.08.991-2.779.661-.699 1.543-1.049 2.646-1.049.615 0 1.157.113 1.627.342v1.148c-.52-.365-1.076-.546-1.668-.546-.716 0-1.303.255-1.76.769-.459.512-.688 1.186-.688 2.02 0 .82.215 1.466.647 1.941.43.473 1.008.711 1.732.711.611 0 1.185-.203 1.723-.609v1.066zM592.1417 205.4497h-1.121v-4.033c0-1.459-.542-2.188-1.627-2.188-.547 0-1.007.211-1.381.633-.374.42-.56.961-.56 1.623v3.965h-1.122v-10.363h1.122v4.525h.027c.538-.885 1.304-1.326 2.297-1.326 1.577 0 2.365.949 2.365 2.85v4.314zM598.7315 201.2798c-.005-.648-.161-1.15-.468-1.512-.308-.359-.735-.539-1.282-.539-.528 0-.978.19-1.347.567-.369.379-.596.873-.683 1.484h3.78zm1.148.949h-4.942c.019.78.228 1.381.629 1.805.401.424.952.637 1.654.637.788 0 1.513-.26 2.174-.78v1.053c-.615.445-1.429.67-2.44.67-.99 0-1.766-.318-2.331-.953-.566-.637-.848-1.531-.848-2.684 0-1.09.309-1.976.926-2.662.618-.687 1.384-1.029 2.301-1.029.916 0 1.625.295 2.125.889.501.591.752 1.414.752 2.466v.588z" fill="#525252"></path><path d="M48.2159 78.3403H1.8889c-1.043 0-1.889-.846-1.889-1.889v-28.199h50.105v28.199c0 1.043-.846 1.889-1.889 1.889" fill="#54B3DB"></path><path d="M4.2081 78.3403h-2.319c-1.043 0-1.889-.846-1.889-1.889v-28.199h32.583l-28.375 30.088z" fill="#77C3E3"></path><path d="M50.1045 48.3247H.0005v-10.21c0-1.043.845-1.889 1.888-1.889h46.327c1.043 0 1.889.846 1.889 1.889v10.21z" fill="#A0A1A2"></path><path d="M32.6456 48.3247H-.0004v-10.21c0-1.043.846-1.889 1.889-1.889h41.757l-11 12.099z" fill="#B3B4B5"></path><path d="M13.167 44.443h33.719v-4.062H13.167z" fill="#FFF"></path><path d="M11.0821 42.5405c0 2.52-2.042 4.562-4.562 4.562-2.519 0-4.562-2.042-4.562-4.562 0-2.52 2.043-4.562 4.562-4.562 2.52 0 4.562 2.042 4.562 4.562" fill="#54B3DB"></path><path d="M7.042 45.6909l-3.094-3.094 3.094-3.093.707.708-2.387 2.385 2.387 2.387z" fill="#FFF"></path><path d="M4.833 43.04h6.25v-1h-6.25z" fill="#FFF"></path><path d="M2.9063 227.0591v3.527h1.559c.674 0 1.197-.158 1.568-.478.372-.319.558-.756.558-1.313 0-1.156-.789-1.736-2.366-1.736h-1.319zm0-4.197v3.166h1.176c.629 0 1.123-.153 1.483-.455.361-.303.54-.731.54-1.282 0-.953-.627-1.429-1.88-1.429h-1.319zm-1.148 8.763v-9.802h2.789c.847 0 1.519.207 2.016.623.497.414.745.955.745 1.619 0 .556-.15 1.039-.451 1.449-.301.41-.716.703-1.244.875v.027c.661.079 1.189.329 1.586.748.396.422.595.971.595 1.645 0 .84-.301 1.518-.903 2.037-.601.52-1.36.779-2.276.779h-2.857zM13.2832 225.7602c-.196-.15-.479-.225-.848-.225-.478 0-.879.225-1.199.676-.322.451-.482 1.067-.482 1.846v3.568h-1.121v-7h1.121v1.444h.027c.159-.493.403-.877.731-1.153.329-.275.696-.414 1.101-.414.292 0 .515.033.67.096v1.162zM17.3233 225.4048c-.72 0-1.29.246-1.709.734-.419.491-.629 1.166-.629 2.028 0 .83.212 1.484.636 1.963.424.478.991.716 1.702.716.725 0 1.281-.234 1.672-.703.389-.47.584-1.136.584-2.004 0-.875-.195-1.548-.584-2.023-.391-.473-.947-.711-1.672-.711m-.082 6.385c-1.034 0-1.86-.326-2.479-.981-.617-.654-.925-1.521-.925-2.601 0-1.176.321-2.094.964-2.754.642-.662 1.51-.992 2.604-.992 1.044 0 1.858.322 2.443.964.586.643.879 1.534.879 2.672 0 1.118-.315 2.012-.947 2.684-.631.672-1.478 1.008-2.539 1.008M31.337 224.6255l-2.099 7h-1.162l-1.442-5.01c-.055-.191-.091-.408-.109-.65h-.028c-.014.164-.061.377-.143.637l-1.566 5.023h-1.121l-2.119-7h1.176l1.449 5.264c.046.16.077.369.096.629h.054c.014-.2.055-.414.123-.643l1.614-5.25h1.025l1.449 5.277c.046.17.08.379.103.629h.054c.009-.177.048-.386.117-.629l1.422-5.277h1.107zM32.212 231.3735v-1.203c.61.451 1.283.676 2.017.676.984 0 1.476-.328 1.476-.985 0-.185-.042-.345-.126-.474-.085-.131-.199-.244-.342-.346-.144-.1-.312-.189-.505-.27-.195-.08-.403-.162-.626-.25-.31-.123-.582-.246-.818-.373-.234-.125-.43-.265-.588-.423-.156-.157-.275-.336-.355-.536-.079-.201-.119-.435-.119-.705 0-.328.075-.619.225-.871.151-.254.351-.465.602-.636.251-.17.536-.299.858-.385.321-.088.653-.131.994-.131.607 0 1.149.105 1.627.314v1.135c-.514-.336-1.107-.506-1.777-.506-.21 0-.398.024-.567.073-.169.046-.314.115-.435.201-.12.088-.214.191-.279.31-.067.121-.1.256-.1.401 0 .183.033.336.1.459.065.123.162.232.29.328.128.095.282.181.465.259.182.077.389.163.622.252.309.12.588.241.834.366.246.127.456.267.629.424.172.158.306.339.4.544.093.206.14.45.14.731 0 .348-.077.648-.23.902-.152.256-.356.467-.611.637-.255.168-.549.293-.882.375-.333.082-.682.123-1.046.123-.72 0-1.345-.139-1.873-.416M43.0538 227.4556c-.005-.646-.161-1.15-.468-1.51-.308-.361-.735-.541-1.282-.541-.528 0-.978.19-1.347.569-.369.377-.596.873-.683 1.482h3.78zm1.148.951h-4.942c.019.779.228 1.381.629 1.805.401.424.952.635 1.654.635.788 0 1.513-.26 2.174-.78v1.053c-.615.447-1.429.67-2.44.67-.99 0-1.766-.318-2.331-.953-.566-.637-.848-1.529-.848-2.684 0-1.088.309-1.976.926-2.662.618-.685 1.384-1.029 2.301-1.029.916 0 1.625.297 2.125.889.501.593.752 1.416.752 2.468v.588zM49.5479 225.7602c-.196-.15-.479-.225-.848-.225-.478 0-.879.225-1.199.676-.322.451-.482 1.067-.482 1.846v3.568h-1.121v-7h1.121v1.444h.027c.159-.493.403-.877.731-1.153.329-.275.696-.414 1.101-.414.292 0 .515.033.67.096v1.162z" fill="#525252"></path><path d="M48.2159 209.8403H1.8889c-1.043 0-1.889-.846-1.889-1.889v-28.199h50.105v28.199c0 1.043-.846 1.889-1.889 1.889" fill="#54B3DB"></path><path d="M4.2081 209.8403h-2.319c-1.043 0-1.889-.846-1.889-1.889v-28.199h32.583l-28.375 30.088z" fill="#77C3E3"></path><path d="M50.1045 179.8247H.0005v-10.21c0-1.043.845-1.889 1.888-1.889h46.327c1.043 0 1.889.846 1.889 1.889v10.21z" fill="#A0A1A2"></path><path d="M32.6456 179.8247H-.0004v-10.21c0-1.043.846-1.889 1.889-1.889h41.757l-11 12.099z" fill="#B3B4B5"></path><path d="M13.167 175.943h33.719v-4.062H13.167z" fill="#FFF"></path><path d="M11.0821 174.0405c0 2.52-2.042 4.562-4.562 4.562-2.519 0-4.562-2.042-4.562-4.562 0-2.52 2.043-4.562 4.562-4.562 2.52 0 4.562 2.042 4.562 4.562" fill="#54B3DB"></path><path d="M7.042 177.1909l-3.094-3.094 3.094-3.093.707.708-2.387 2.385 2.387 2.387z" fill="#FFF"></path><path d="M4.833 174.541h6.25v-1h-6.25z" fill="#FFF"></path><path d="M2.9063 352.0591v3.527h1.559c.674 0 1.197-.158 1.568-.478.372-.319.558-.756.558-1.313 0-1.156-.789-1.736-2.366-1.736h-1.319zm0-4.197v3.166h1.176c.629 0 1.123-.153 1.483-.455.361-.303.54-.731.54-1.282 0-.953-.627-1.429-1.88-1.429h-1.319zm-1.148 8.763v-9.802h2.789c.847 0 1.519.207 2.016.623.497.414.745.955.745 1.619 0 .556-.15 1.039-.451 1.449-.301.41-.716.703-1.244.875v.027c.661.079 1.189.329 1.586.748.396.422.595.971.595 1.645 0 .84-.301 1.518-.903 2.037-.601.52-1.36.779-2.276.779h-2.857zM13.2832 350.7602c-.196-.15-.479-.225-.848-.225-.478 0-.879.225-1.199.676-.322.451-.482 1.067-.482 1.846v3.568h-1.121v-7h1.121v1.444h.027c.159-.493.403-.877.731-1.153.329-.275.696-.414 1.101-.414.292 0 .515.033.67.096v1.162zM17.3233 350.4048c-.72 0-1.29.246-1.709.734-.419.491-.629 1.166-.629 2.028 0 .83.212 1.484.636 1.963.424.478.991.716 1.702.716.725 0 1.281-.234 1.672-.703.389-.47.584-1.136.584-2.004 0-.875-.195-1.548-.584-2.023-.391-.473-.947-.711-1.672-.711m-.082 6.385c-1.034 0-1.86-.326-2.479-.981-.617-.654-.925-1.521-.925-2.601 0-1.176.321-2.094.964-2.754.642-.662 1.51-.992 2.604-.992 1.044 0 1.858.322 2.443.964.586.643.879 1.534.879 2.672 0 1.118-.315 2.012-.947 2.684-.631.672-1.478 1.008-2.539 1.008M31.337 349.6255l-2.099 7h-1.162l-1.442-5.01c-.055-.191-.091-.408-.109-.65h-.028c-.014.164-.061.377-.143.637l-1.566 5.023h-1.121l-2.119-7h1.176l1.449 5.264c.046.16.077.369.096.629h.054c.014-.2.055-.414.123-.643l1.614-5.25h1.025l1.449 5.277c.046.17.08.379.103.629h.054c.009-.177.048-.386.117-.629l1.422-5.277h1.107zM32.212 356.3735v-1.203c.61.451 1.283.676 2.017.676.984 0 1.476-.328 1.476-.985 0-.185-.042-.345-.126-.474-.085-.131-.199-.244-.342-.346-.144-.1-.312-.189-.505-.27-.195-.08-.403-.162-.626-.25-.31-.123-.582-.246-.818-.373-.234-.125-.43-.265-.588-.423-.156-.157-.275-.336-.355-.536-.079-.201-.119-.435-.119-.705 0-.328.075-.619.225-.871.151-.254.351-.465.602-.636.251-.17.536-.299.858-.385.321-.088.653-.131.994-.131.607 0 1.149.105 1.627.314v1.135c-.514-.336-1.107-.506-1.777-.506-.21 0-.398.024-.567.073-.169.046-.314.115-.435.201-.12.088-.214.191-.279.31-.067.121-.1.256-.1.401 0 .183.033.336.1.459.065.123.162.232.29.328.128.095.282.181.465.259.182.077.389.163.622.252.309.12.588.241.834.366.246.127.456.267.629.424.172.158.306.339.4.544.093.206.14.45.14.731 0 .348-.077.648-.23.902-.152.256-.356.467-.611.637-.255.168-.549.293-.882.375-.333.082-.682.123-1.046.123-.72 0-1.345-.139-1.873-.416M43.0538 352.4555c-.005-.646-.161-1.15-.468-1.51-.308-.361-.735-.541-1.282-.541-.528 0-.978.19-1.347.569-.369.377-.596.873-.683 1.482h3.78zm1.148.951h-4.942c.019.779.228 1.381.629 1.805.401.424.952.635 1.654.635.788 0 1.513-.26 2.174-.78v1.053c-.615.447-1.429.67-2.44.67-.99 0-1.766-.318-2.331-.953-.566-.637-.848-1.529-.848-2.684 0-1.088.309-1.976.926-2.662.618-.685 1.384-1.029 2.301-1.029.916 0 1.625.297 2.125.889.501.593.752 1.416.752 2.468v.588zM49.5479 350.7602c-.196-.15-.479-.225-.848-.225-.478 0-.879.225-1.199.676-.322.451-.482 1.067-.482 1.846v3.568h-1.121v-7h1.121v1.444h.027c.159-.493.403-.877.731-1.153.329-.275.696-.414 1.101-.414.292 0 .515.033.67.096v1.162z" fill="#525252"></path><path d="M48.2159 334.8403H1.8889c-1.043 0-1.889-.846-1.889-1.889v-28.199h50.105v28.199c0 1.043-.846 1.889-1.889 1.889" fill="#54B3DB"></path><path d="M4.2081 334.8403h-2.319c-1.043 0-1.889-.846-1.889-1.889v-28.199h32.583l-28.375 30.088z" fill="#77C3E3"></path><path d="M50.1045 304.8247H.0005v-10.21c0-1.043.845-1.889 1.888-1.889h46.327c1.043 0 1.889.846 1.889 1.889v10.21z" fill="#A0A1A2"></path><path d="M32.6456 304.8247H-.0004v-10.21c0-1.043.846-1.889 1.889-1.889h41.757l-11 12.099z" fill="#B3B4B5"></path><path d="M13.167 300.943h33.719v-4.062H13.167z" fill="#FFF"></path><path d="M11.0821 299.0405c0 2.52-2.042 4.562-4.562 4.562-2.519 0-4.562-2.042-4.562-4.562 0-2.52 2.043-4.562 4.562-4.562 2.52 0 4.562 2.042 4.562 4.562" fill="#54B3DB"></path><path d="M7.042 302.1909l-3.094-3.094 3.094-3.093.707.708-2.387 2.385 2.387 2.387z" fill="#FFF"></path><path d="M4.833 299.54h6.25v-1h-6.25zM517.7217 148.4604s-.375-2.625-.167-3.458c.209-.833 1.625-1 2.459-1.417.833-.416 19.125-7.708 20.416-8.166 1.292-.459 2.834-.667 5.125.125 2.292.791 18.292 7.416 19.917 8 1.625.583 2.667 1 2.667 1.416 0 .417-.209 2.75-.209 2.75l-2.583 4.542 2.458 1.25v5.667l-2.75 1.416 2.709 1.542.166 1.25-.958 4.292-23.583 7.125-25.375-10.125-.375-1.959s-.084-.625.458-.875 3.292-1.5 3.292-1.5l-3.292-4.416s-.25-.917-.333-1.375c-.084-.459-.5-.875.5-1.292 1-.417 2.25-1.208 2.25-1.208l-2.792-3.584z" fill="#FFF"></path><path d="M517.3311 162.4028c-.014.099-.014.199 0 .298v-.26c-.001-.013 0-.025 0-.038" fill="#389CD6"></path><path d="M567.751 145.2905c-.033.103-.108.231-.281.307l-21.576 9.377c-1.872.815-4.029.834-5.914.049l-21.868-9.088c-.274-.115-.383-.349-.4-.553.006-.256.143-.472.36-.572l21.66-8.749c.936-.377 1.919-.566 2.904-.566.973 0 1.948.186 2.875.556l21.968 8.772c.146.067.243.189.279.337.01.043.006.088-.007.13zm-.326 8.227c.203.092.223.276.223.35-.001.075-.024.258-.227.347l-21.579 9.283c-.941.409-1.938.617-2.964.617-.982 0-1.94-.191-2.849-.568l-21.867-9.089c-.294-.122-.322-.395-.323-.475-.002-.081.016-.353.305-.487l2.114-.973 18.378 7.639c1.344.559 2.781.837 4.218.837 1.498 0 2.995-.303 4.382-.907l18.112-7.52 2.077.946zm0 8.576c.203.093.223.276.223.35-.001.075-.024.258-.227.346l-21.579 9.283c-.941.41-1.938.618-2.964.618-.982 0-1.94-.191-2.849-.568l-21.867-9.09c-.294-.122-.322-.393-.323-.474-.002-.081.016-.354.305-.487l2.595-1.195 18.047 7.502c1.302.541 2.685.811 4.068.811 1.442 0 2.883-.295 4.233-.882l17.754-7.391 2.584 1.177zm1.122-16.945c-.048-.453-.324-.841-.763-1.041l-21.984-8.779c-2.052-.819-4.31-.815-6.359.012l-21.676 8.755c-.46.212-.762.628-.824 1.115-.005.026-.001 5.121-.001 5.121 0 .018.002.035.004.053.071.506.396.926.869 1.122l1.792.745-1.678.773c-.4.184-.599.556-.606.93 0-.006-.001-.011-.001-.016v.059l.01 4.909c.047.341.259.661.633.817l2.124.882-2.16.995c-.355.163-.551.473-.596.802 0 .013.01 5.007.01 5.007.047.341.259.661.633.817l20.962 8.727c1.301.541 2.684.812 4.067.812 1.442 0 2.884-.294 4.233-.882l20.404-8.492c.387-.169.567-.545.537-.905 0 0-.008-5.066-.01-5.049-.001-.329-.176-.657-.527-.817l-2.145-.976 2.148-.894c.387-.169.567-.545.537-.904 0 0-.018-5.063-.018-5.061-.026-.303-.198-.593-.522-.74l-1.637-.745 1.777-.739c.51-.221.811-.72.772-1.275 0 0-.003-5.121-.005-5.138z" fill="#389CD6"></path><path d="M538.1827 145.0884c0 1.52-2.732 2.751-6.103 2.751-3.37 0-6.102-1.231-6.102-2.751 0-1.519 2.732-2.75 6.102-2.75 3.371 0 6.103 1.231 6.103 2.75M534.6085 149.6011l.105.049 9.002 4.172 3.291-5.651zM553.6876 148.4038v-6.581l7.279 3.291z" fill="#389CD6"></path><path d="M553.6876 148.4038l-7.08-3.29 7.08-3.291z" fill="#197FB2"></path><path d="M540.3585 141.2241l.964 2.261 2.593-1.994 4.786.298-3.274-1.77 2.144-1.994-4.637.947-3.665-1.545.499 2.243s-4.362 1.122-4.288 1.122c.075 0 4.878.432 4.878.432" fill="#389CD6"></path></g></svg>