<?xml version="1.0" encoding="utf-8"?>
<!-- Generator: Adobe Illustrator 26.2.1, SVG Export Plug-In . SVG Version: 6.00 Build 0)  -->
<svg version="1.1" xmlns="http://www.w3.org/2000/svg" xmlns:xlink="http://www.w3.org/1999/xlink" x="0px" y="0px"
	 viewBox="0 0 352 374" enable-background="new 0 0 352 374" xml:space="preserve">
<symbol  id="PIPELINE" viewBox="-32 -12.266 64 24.531">
	<linearGradient id="SVGID_1_" gradientUnits="userSpaceOnUse" x1="0" y1="-12.2655" x2="1.502093e-15" y2="12.2655">
		<stop  offset="0" style="stop-color:#1B89B2"/>
		<stop  offset="1" style="stop-color:#51C8E8"/>
	</linearGradient>
	<path fill="url(#SVGID_1_)" d="M26.096,12.266h-51.448v0h0C-29.08,12.265-32,6.878-32,0s2.92-12.265,6.648-12.265h0v0h51.448
		C29.356-12.266,32-6.363,32,0S29.356,12.266,26.096,12.266z"/>
	<g>
		
			<linearGradient id="SVGID_00000098931188518901213890000017761034011352524990_" gradientUnits="userSpaceOnUse" x1="-31.461" y1="-6.1136" x2="-19.2338" y2="6.1136">
			<stop  offset="0" style="stop-color:#B3B4B4"/>
			<stop  offset="1" style="stop-color:#4F4F4F"/>
		</linearGradient>
		<ellipse fill="url(#SVGID_00000098931188518901213890000017761034011352524990_)" cx="-25.347" cy="0" rx="5.575" ry="10.879"/>
	</g>
</symbol>
<g id="Shapes">
	<rect fill="#FFFFFF" width="352" height="374"/>
	<g id="Wrench_tool_x28_s_x29_">
	</g>
	<g id="user2">
	</g>
	<g id="user2_1_">
	</g>
	<g id="user2_4_">
	</g>
	<g id="user2_3_">
	</g>
	<g id="user2_2_">
	</g>
	<g id="Internet_2">
	</g>
	<g id="Enterprise">
	</g>
	<g id="Tunnel__x28_stackable_x29_">
	</g>
	<g id="New_Symbol">
	</g>
	<g id="New_Symbol_1">
	</g>
	<g id="Files">
	</g>
	<g id="BlobBlock">
	</g>
	<g id="E_x5F_Enterprise">
	</g>
	<g id="E_x5F_AD_FS">
	</g>
	<g id="C_x5F_Azure_Active_Directory">
	</g>
	<g>
		<rect x="5" y="5" fill="#FFFFFF" width="342" height="364"/>
		
			<linearGradient id="SVGID_00000005242241871653769490000017110761045429198723_" gradientUnits="userSpaceOnUse" x1="176" y1="5" x2="176" y2="369">
			<stop  offset="0" style="stop-color:#B3B2B3"/>
			<stop  offset="0.38" style="stop-color:#AFAEAF"/>
			<stop  offset="0.76" style="stop-color:#A2A2A2"/>
			<stop  offset="1" style="stop-color:#979797"/>
		</linearGradient>
		
			<rect x="5" y="5" opacity="0.25" fill="url(#SVGID_00000005242241871653769490000017110761045429198723_)" width="342" height="364"/>
		<rect x="5" y="5" fill="none" stroke="#A3A3A3" stroke-width="0.5" width="342" height="364"/>
	</g>
	<g>
		<rect x="197.002" y="31.522" fill="#FFFFFF" width="136.4" height="325.65"/>
		<rect x="197.002" y="31.522" opacity="0.1" fill="#326CE5" width="136.4" height="325.65"/>
		<rect x="197.002" y="31.522" fill="none" stroke="#326CE5" stroke-width="0.25" width="136.4" height="325.65"/>
	</g>
	<g>
		
			<linearGradient id="SVGID_00000023994627597423851190000003477797246292806035_" gradientUnits="userSpaceOnUse" x1="198.9486" y1="1869.6648" x2="206.8769" y2="1869.6648" gradientTransform="matrix(1 0 0 -1 0 1894)">
			<stop  offset="0" style="stop-color:#B77AF4"/>
			<stop  offset="1" style="stop-color:#773ADC"/>
		</linearGradient>
		<polygon fill="url(#SVGID_00000023994627597423851190000003477797246292806035_)" points="202.906,20.848 198.949,21.582 
			198.949,26.978 202.906,27.822 206.877,26.231 206.877,22.204 		"/>
		<path fill="none" d="M203.058,27.739l3.625-1.467c0.084-0.034,0.146-0.106,0.166-0.194v-3.653
			c-0.008-0.111-0.077-0.207-0.18-0.249l-3.667-1.245h-0.166l-3.597,0.664c-0.116,0.03-0.199,0.13-0.208,0.249v4.884
			c-0.003,0.126,0.084,0.236,0.208,0.263l3.639,0.761C202.938,27.761,203,27.756,203.058,27.739z"/>
		<path fill="#341A6E" d="M198.949,21.582v5.396l3.999,0.844v-6.918L198.949,21.582z M200.637,26.563l-1.121-0.221v-4.151
			l1.121-0.18V26.563z M202.38,26.881l-1.287-0.208v-4.746l1.287-0.221V26.881z"/>
		
			<linearGradient id="SVGID_00000134932613110395900230000010051111275502156985_" gradientUnits="userSpaceOnUse" x1="207.5133" y1="1869.5957" x2="215.4278" y2="1869.5957" gradientTransform="matrix(1 0 0 -1 0 1894)">
			<stop  offset="0" style="stop-color:#B77AF4"/>
			<stop  offset="1" style="stop-color:#773ADC"/>
		</linearGradient>
		<polygon fill="url(#SVGID_00000134932613110395900230000010051111275502156985_)" points="211.471,20.918 207.513,21.651 
			207.513,27.047 211.471,27.891 215.428,26.286 215.428,22.274 		"/>
		<path fill="#341A6E" d="M207.513,21.651v5.396l3.971,0.844v-6.918L207.513,21.651z M209.188,26.632l-1.121-0.221V22.26l1.121-0.18
			V26.632z M210.931,26.95l-1.287-0.208v-4.746l1.287-0.235V26.95z"/>
		
			<linearGradient id="SVGID_00000060026925681887315200000012422738645405300890_" gradientUnits="userSpaceOnUse" x1="194.8945" y1="1862.2208" x2="202.8089" y2="1862.2208" gradientTransform="matrix(1 0 0 -1 0 1894)">
			<stop  offset="0" style="stop-color:#B77AF4"/>
			<stop  offset="1" style="stop-color:#773ADC"/>
		</linearGradient>
		<polygon fill="url(#SVGID_00000060026925681887315200000012422738645405300890_)" points="198.852,28.292 194.894,29.026 
			194.894,34.422 198.852,35.266 202.823,33.675 202.823,29.648 		"/>
		<path fill="#341A6E" d="M194.881,29.026v5.355l3.999,0.844v-6.918L194.881,29.026z M196.555,34.021l-1.121-0.235v-4.151
			l1.121-0.194V34.021z M198.312,34.38l-1.287-0.208v-4.801l1.287-0.221V34.38z"/>
		
			<linearGradient id="SVGID_00000041277868789431795250000003499493740550059915_" gradientUnits="userSpaceOnUse" x1="203.4316" y1="1862.2693" x2="211.346" y2="1862.2693" gradientTransform="matrix(1 0 0 -1 0 1894)">
			<stop  offset="0" style="stop-color:#B77AF4"/>
			<stop  offset="1" style="stop-color:#773ADC"/>
		</linearGradient>
		<polygon fill="url(#SVGID_00000041277868789431795250000003499493740550059915_)" points="207.389,28.237 203.432,28.97 
			203.432,34.367 207.389,35.224 211.346,33.619 211.346,29.593 		"/>
		<path fill="#341A6E" d="M203.432,28.97v5.41l3.985,0.844v-6.918L203.432,28.97z M205.106,33.965l-1.121-0.235v-4.151l1.121-0.194
			V33.965z M206.849,34.27l-1.287-0.208v-4.746l1.287-0.221V34.27z"/>
		
			<linearGradient id="SVGID_00000127767037201734219010000007424456778972118193_" gradientUnits="userSpaceOnUse" x1="211.9687" y1="1862.207" x2="219.897" y2="1862.207" gradientTransform="matrix(1 0 0 -1 0 1894)">
			<stop  offset="0" style="stop-color:#B77AF4"/>
			<stop  offset="1" style="stop-color:#773ADC"/>
		</linearGradient>
		<polygon fill="url(#SVGID_00000127767037201734219010000007424456778972118193_)" points="215.926,28.306 211.969,29.04 
			211.969,34.436 215.926,35.28 219.897,33.689 219.897,29.662 		"/>
		<path fill="#341A6E" d="M211.969,29.04v5.341l3.999,0.844v-6.918L211.969,29.04z M213.657,34.035l-1.121-0.235v-4.151l1.121-0.194
			V34.035z M215.4,34.339l-1.287-0.208v-4.746l1.287-0.221V34.339z"/>
		
			<linearGradient id="SVGID_00000148658808120305388280000006293640431644730789_" gradientUnits="userSpaceOnUse" x1="198.8517" y1="1854.6937" x2="206.78" y2="1854.6937" gradientTransform="matrix(1 0 0 -1 0 1894)">
			<stop  offset="0" style="stop-color:#B77AF4"/>
			<stop  offset="1" style="stop-color:#773ADC"/>
		</linearGradient>
		<polygon fill="url(#SVGID_00000148658808120305388280000006293640431644730789_)" points="202.809,35.819 198.852,36.539 
			198.852,41.935 202.809,42.793 206.78,41.188 206.78,37.175 		"/>
		<path fill="none" d="M202.961,42.682l3.611-1.384c0.105-0.037,0.172-0.138,0.166-0.249v-3.597c0.021-0.132-0.054-0.259-0.18-0.304
			l-3.653-1.245c-0.054-0.02-0.113-0.02-0.166,0l-3.597,0.65c-0.129,0.021-0.223,0.132-0.221,0.263v4.898
			c-0.003,0.126,0.084,0.236,0.208,0.263l3.639,0.706C202.83,42.702,202.898,42.702,202.961,42.682z"/>
		<path fill="#341A6E" d="M198.852,36.539v5.396l3.999,0.858v-7.029L198.852,36.539z M200.54,41.534l-1.121-0.235v-4.151
			l1.121-0.194V41.534z M202.283,41.852l-1.287-0.208v-4.76l1.287-0.221V41.852z"/>
		
			<linearGradient id="SVGID_00000026867259008589081880000018100752449596876723_" gradientUnits="userSpaceOnUse" x1="207.4026" y1="1854.6384" x2="215.3309" y2="1854.6384" gradientTransform="matrix(1 0 0 -1 0 1894)">
			<stop  offset="0" style="stop-color:#B77AF4"/>
			<stop  offset="1" style="stop-color:#773ADC"/>
		</linearGradient>
		<polygon fill="url(#SVGID_00000026867259008589081880000018100752449596876723_)" points="211.36,35.875 207.403,36.608 
			207.403,42.004 211.36,42.848 215.331,41.257 215.331,37.231 		"/>
		<path fill="#341A6E" d="M207.403,36.608v5.396l3.999,0.844V35.93L207.403,36.608z M209.091,41.603l-1.121-0.235v-4.151
			l1.121-0.194V41.603z M210.834,41.907l-1.287-0.208v-4.746l1.287-0.221V41.907z"/>
	</g>
	<g id="layer1_00000034789977160049817700000010551691886321491384_" transform="translate(-0.99262638,-1.174181)">
		
			<g id="g70_00000006697039293284921780000010860678281648271532_" transform="matrix(1.0148887,0,0,1.0148887,16.902146,-2.698726)">
			<path id="path3055_00000173846026836481426780000003424027538054803328_" fill="#476BB3" d="M245.535,66.45
				c-0.255,0.013-0.505,0.076-0.735,0.186l-10.032,4.794c-0.526,0.251-0.908,0.726-1.038,1.291l-2.475,10.768
				c-0.115,0.501-0.022,1.027,0.26,1.459c0.034,0.052,0.07,0.103,0.109,0.151l6.944,8.634c0.364,0.453,0.916,0.716,1.5,0.716
				l11.136-0.003c0.584,0,1.136-0.263,1.5-0.715l6.942-8.635c0.364-0.453,0.501-1.046,0.371-1.61l-2.479-10.768
				c-0.13-0.564-0.512-1.04-1.038-1.291l-10.034-4.791C246.175,66.498,245.856,66.434,245.535,66.45z"/>
			<path id="path3054-2-9_00000181806368032968653740000008424767966165765023_" fill="#FFFFFF" d="M245.529,65.67
				c-0.269,0.014-0.532,0.081-0.775,0.198l-10.592,5.059c-0.555,0.265-0.959,0.767-1.096,1.363l-2.612,11.367
				c-0.122,0.529-0.023,1.085,0.275,1.541c0.036,0.055,0.074,0.108,0.115,0.159l7.33,9.115c0.384,0.478,0.967,0.756,1.583,0.756
				l11.756-0.003c0.616,0,1.199-0.277,1.583-0.754l7.328-9.116c0.384-0.478,0.528-1.103,0.391-1.699L258.2,72.287
				c-0.138-0.595-0.541-1.096-1.096-1.361l-10.592-5.059C246.206,65.72,245.868,65.653,245.529,65.67z M245.534,66.45
				c0.321-0.016,0.641,0.048,0.93,0.186l10.034,4.791c0.526,0.251,0.908,0.726,1.038,1.291l2.479,10.768
				c0.13,0.565-0.007,1.157-0.371,1.61l-6.942,8.635c-0.364,0.452-0.916,0.715-1.5,0.715l-11.136,0.003
				c-0.584,0-1.136-0.263-1.5-0.716l-6.944-8.634c-0.039-0.049-0.075-0.099-0.109-0.151c-0.282-0.431-0.376-0.958-0.26-1.459
				l2.475-10.768c0.13-0.564,0.512-1.04,1.038-1.291l10.032-4.794C245.029,66.526,245.279,66.463,245.534,66.45L245.534,66.45z"/>
		</g>
		<path id="path7709_00000167378371008172350110000017331699900226826669_" pointer-events="none" fill="#FFFFFF" d="
			M270.905,85.928h-3.893l-8.436-10.553h-2.44v-3.454h3.968l8.439,10.553h2.361v-2.732l5.348,4.457l-5.348,4.46V85.928z
			 M266.66,77.777l1.883-2.358h2.361v2.732l5.348-4.457l-5.348-4.46v2.732h-3.893l-2.498,3.127L266.66,77.777z M260.492,80.116
			l-1.916,2.401h-2.44v3.454h3.968l2.534-3.17L260.492,80.116z"/>
	</g>
	<g id="fb2be18e-454f-4104-869a-31c3b8ba961c_00000162341778570125546520000000101997968050892427_">
		<g>
			<g>
				<polygon fill="#76BC43" points="272.284,146.666 272.284,155.008 265.073,159.202 265.073,150.845 				"/>
				<polygon fill="#B6D43A" points="272.284,146.666 265.073,150.857 257.862,146.664 265.073,142.472 				"/>
				<polygon fill="#8BC63F" points="265.073,150.857 265.073,159.202 257.862,155.008 257.862,146.664 				"/>
			</g>
			<g>
				<polygon fill="#76BC43" points="264.822,159.938 264.822,168.281 257.611,172.472 257.611,164.117 				"/>
				<polygon fill="#B6D43A" points="264.822,159.938 257.611,164.128 250.4,159.936 257.611,155.743 				"/>
				<polygon fill="#8BC63F" points="257.611,164.128 257.611,172.472 250.4,168.281 250.4,159.936 				"/>
			</g>
			<g>
				<polygon fill="#76BC43" points="280.003,159.938 280.003,168.281 272.792,172.472 272.792,164.117 				"/>
				<polygon fill="#B6D43A" points="280.003,159.938 272.794,164.128 265.581,159.936 272.794,155.743 				"/>
				<polygon fill="#8BC63F" points="272.792,164.128 272.792,172.472 265.581,168.281 265.581,159.936 				"/>
			</g>
		</g>
	</g>
	<g id="fb2be18e-454f-4104-869a-31c3b8ba961c_00000004510207034217494630000007182844806728964519_">
		<g>
			<g>
				<polygon fill="#76BC43" points="272.284,230.966 272.284,239.308 265.073,243.502 265.073,235.145 				"/>
				<polygon fill="#B6D43A" points="272.284,230.966 265.073,235.157 257.862,230.964 265.073,226.772 				"/>
				<polygon fill="#8BC63F" points="265.073,235.157 265.073,243.502 257.862,239.308 257.862,230.964 				"/>
			</g>
			<g>
				<polygon fill="#76BC43" points="264.822,244.238 264.822,252.581 257.611,256.772 257.611,248.417 				"/>
				<polygon fill="#B6D43A" points="264.822,244.238 257.611,248.428 250.4,244.236 257.611,240.043 				"/>
				<polygon fill="#8BC63F" points="257.611,248.428 257.611,256.772 250.4,252.581 250.4,244.236 				"/>
			</g>
			<g>
				<polygon fill="#76BC43" points="280.003,244.238 280.003,252.581 272.792,256.772 272.792,248.417 				"/>
				<polygon fill="#B6D43A" points="280.003,244.238 272.794,248.428 265.581,244.236 272.794,240.043 				"/>
				<polygon fill="#8BC63F" points="272.792,248.428 272.792,256.772 265.581,252.581 265.581,244.236 				"/>
			</g>
		</g>
	</g>
	<g id="fb2be18e-454f-4104-869a-31c3b8ba961c_00000098193488471918883590000005182202969176801155_">
		<g>
			<g>
				<polygon fill="#76BC43" points="272.284,319.366 272.284,327.708 265.073,331.902 265.073,323.545 				"/>
				<polygon fill="#B6D43A" points="272.284,319.366 265.073,323.557 257.862,319.364 265.073,315.172 				"/>
				<polygon fill="#8BC63F" points="265.073,323.557 265.073,331.902 257.862,327.708 257.862,319.364 				"/>
			</g>
			<g>
				<polygon fill="#76BC43" points="264.822,332.638 264.822,340.981 257.611,345.172 257.611,336.817 				"/>
				<polygon fill="#B6D43A" points="264.822,332.638 257.611,336.828 250.4,332.636 257.611,328.443 				"/>
				<polygon fill="#8BC63F" points="257.611,336.828 257.611,345.172 250.4,340.981 250.4,332.636 				"/>
			</g>
			<g>
				<polygon fill="#76BC43" points="280.003,332.638 280.003,340.981 272.792,345.172 272.792,336.817 				"/>
				<polygon fill="#B6D43A" points="280.003,332.638 272.794,336.828 265.581,332.636 272.794,328.443 				"/>
				<polygon fill="#8BC63F" points="272.792,336.828 272.792,345.172 265.581,340.981 265.581,332.636 				"/>
			</g>
		</g>
	</g>
	<g>
		<rect x="18.375" y="194.448" fill="#FFFFFF" width="131.85" height="74.649"/>
		<path fill="#499BD5" d="M150.15,194.522v74.5H18.45v-74.5H150.15 M150.3,194.372h-132v74.8h132V194.372L150.3,194.372z"/>
	</g>
	<g>
		<rect x="18.375" y="110.848" fill="#FFFFFF" width="131.85" height="74.649"/>
		<path fill="#499BD5" d="M150.15,110.922v74.5H18.45v-74.5H150.15 M150.3,110.772h-132v74.8h132V110.772L150.3,110.772z"/>
	</g>
	<g>
		<rect x="18.375" y="31.597" fill="#FFFFFF" width="131.85" height="70.3"/>
		<path fill="#499BD5" d="M150.15,31.672v70.15H18.45v-70.15H150.15 M150.3,31.522h-132v70.451h132V31.522L150.3,31.522z"/>
	</g>
	<g>
		<rect x="18.375" y="278.047" fill="#FFFFFF" width="131.85" height="79.05"/>
		<path fill="#499BD5" d="M150.15,278.122v78.9H18.45v-78.9H150.15 M150.3,277.972h-132v79.2h132V277.972L150.3,277.972z"/>
	</g>
	<g>
		<g>
			
				<radialGradient id="aacf8311-a317-400f-b613-74bd00da5ce3_00000102527384299653541940000005049801100966494850_" cx="95.2982" cy="1736.5277" r="14" gradientTransform="matrix(1 0 0 -1 0 1894)" gradientUnits="userSpaceOnUse">
				<stop  offset="0.18" style="stop-color:#699CD3"/>
				<stop  offset="0.56" style="stop-color:#669CD3"/>
				<stop  offset="0.69" style="stop-color:#6198D1"/>
				<stop  offset="0.78" style="stop-color:#5793CE"/>
				<stop  offset="0.86" style="stop-color:#4A8CCA"/>
				<stop  offset="0.93" style="stop-color:#3B83C5"/>
				<stop  offset="0.99" style="stop-color:#3078BE"/>
				<stop  offset="1" style="stop-color:#2E76BC"/>
			</radialGradient>
			
				<path id="aacf8311-a317-400f-b613-74bd00da5ce3_00000049187010259347393320000001023625098626627256_" fill="url(#aacf8311-a317-400f-b613-74bd00da5ce3_00000102527384299653541940000005049801100966494850_)" d="
				M95.298,143.472c-7.732,0-14,6.268-14,14c0,7.732,6.268,14,14,14s14-6.268,14-14C109.289,149.744,103.026,143.481,95.298,143.472
				z M95.298,169.562c-6.677,0-12.089-5.413-12.089-12.089c0-6.677,5.413-12.089,12.089-12.089s12.089,5.413,12.089,12.089l0,0
				C107.388,164.149,101.975,169.562,95.298,169.562z"/>
			<circle fill="#FFFFFF" cx="95.298" cy="157.472" r="12.089"/>
			<g>
				
					<radialGradient id="bd983c41-db73-40ec-a4f4-da1213fc9924_00000013174912259769209670000014145055350369947779_" cx="144.778" cy="1589.9041" r="16.2729" gradientTransform="matrix(0.94 0 0 -0.94 -42.6 1650.1799)" gradientUnits="userSpaceOnUse">
					<stop  offset="0.27" style="stop-color:#FED70A"/>
					<stop  offset="0.49" style="stop-color:#FFCC12"/>
					<stop  offset="0.88" style="stop-color:#FBAC1D"/>
					<stop  offset="1" style="stop-color:#F9A120"/>
				</radialGradient>
				
					<path id="bd983c41-db73-40ec-a4f4-da1213fc9924_00000036940338389131426980000001519974695124138901_" fill="url(#bd983c41-db73-40ec-a4f4-da1213fc9924_00000013174912259769209670000014145055350369947779_)" d="
					M102.611,154.722c1.17-1.181,1.17-3.085,0-4.266l0,0l-5.188-5.205c-1.176-1.168-3.074-1.168-4.249,0l0,0l-5.188,5.205
					c-1.17,1.181-1.17,3.085,0,4.266l4.315,4.398c0.158,0.157,0.247,0.37,0.247,0.593v8.038c0,0.271,0.107,0.531,0.296,0.725
					l1.976,1.976c0.264,0.264,0.691,0.264,0.955,0c0,0,0,0,0,0l1.911-1.911l0,0l1.12-1.12c0.146-0.158,0.146-0.402,0-0.56
					l-0.807-0.807c-0.161-0.171-0.161-0.438,0-0.609l0.807-0.807c0.146-0.158,0.146-0.402,0-0.56l-0.807-0.807
					c-0.161-0.171-0.161-0.438,0-0.609l0.807-0.807c0.146-0.158,0.146-0.402,0-0.56l-1.12-1.136v-0.412L102.611,154.722z
					 M95.298,146.519c0.941,0,1.705,0.763,1.705,1.705s-0.763,1.705-1.705,1.705s-1.705-0.763-1.705-1.705
					S94.357,146.519,95.298,146.519z"/>
				
					<path id="ad2e7e44-9bfd-4775-8bf4-8ef26a544921_00000145044688784279023220000013008818098192724917_" opacity="0.75" fill="#F7921E" enable-background="new    " d="
					M93.948,167.849L93.948,167.849c0.159,0.136,0.398,0.119,0.534-0.04c0.058-0.067,0.09-0.152,0.092-0.24v-6.588
					c-0.001-0.133-0.069-0.257-0.181-0.329l0,0c-0.167-0.11-0.392-0.063-0.502,0.104c-0.044,0.067-0.064,0.146-0.058,0.225v6.588
					C93.838,167.672,93.879,167.771,93.948,167.849z"/>
				
					<path id="a996fbff-3936-4b24-b407-369336c143ba_00000129891134426446796600000003942565457452618391_" opacity="0.75" fill="#F7921E" enable-background="new    " d="
					M91.609,152.185h7.593c0.255,0,0.461,0.206,0.461,0.461v0.082c0,0.255-0.206,0.461-0.461,0.461h-7.593
					c-0.255,0-0.461-0.206-0.461-0.461v-0.082C91.148,152.392,91.354,152.185,91.609,152.185z"/>
				
					<path id="bb12d31c-3352-4a18-87dd-a169a4a8721d_00000088098913381766154690000004481525377044819095_" opacity="0.75" fill="#F7921E" enable-background="new    " d="
					M91.609,153.816h7.593c0.255,0,0.461,0.206,0.461,0.461v0.082c0,0.255-0.206,0.461-0.461,0.461h-7.593
					c-0.255,0-0.461-0.206-0.461-0.461v-0.082C91.148,154.022,91.354,153.816,91.609,153.816z"/>
			</g>
		</g>
		<g id="bdcd7268-31fc-4163-9544-651d61f1498e_00000047031050979984383770000012988981711556353410_">
			<g>
				<path fill="#B3B3B3" d="M62.476,160.896c0.711,0.721,1.872,0.729,2.593,0.018s0.729-1.872,0.018-2.593
					c-0.014-0.014-0.027-0.027-0.041-0.041c-0.188-0.183-0.413-0.323-0.661-0.41v-7.877h-1.173v7.855
					c-0.963,0.295-1.505,1.316-1.209,2.279c0.09,0.293,0.252,0.558,0.471,0.771L62.476,160.896z"/>
				
					<linearGradient id="SVGID_00000027593801199311138020000004907400943711181465_" gradientUnits="userSpaceOnUse" x1="-500.2218" y1="201.8816" x2="-500.2218" y2="205.5493" gradientTransform="matrix(1 0 0 1 564 -54.484)">
					<stop  offset="0" style="stop-color:#50E6FF"/>
					<stop  offset="1" style="stop-color:#32BEDD"/>
				</linearGradient>
				<circle fill="url(#SVGID_00000027593801199311138020000004907400943711181465_)" cx="63.778" cy="149.149" r="1.834"/>
				<g>
					<path fill="#50E6FF" d="M60.729,164.521l-0.698,0.7c-0.123,0.124-0.324,0.124-0.448,0.001l0,0l-5.162-5.148
						c-0.248-0.247-0.248-0.648-0.001-0.895l0,0l0.698-0.7l0,0l5.61,5.595C60.852,164.197,60.853,164.397,60.729,164.521z"/>
					<path fill="#1490DF" d="M59.928,154.084l0.7,0.698c0.124,0.123,0.124,0.324,0.001,0.448l0,0l-5.513,5.529l0,0l-0.701-0.699
						c-0.248-0.247-0.248-0.648-0.001-0.895l0,0l5.066-5.081C59.603,153.96,59.804,153.96,59.928,154.084
						C59.928,154.083,59.928,154.084,59.928,154.084z"/>
					<path fill="#50E6FF" d="M72.259,158.48l0.698,0.7c0.247,0.248,0.246,0.648-0.001,0.895h0l-5.162,5.148
						c-0.124,0.123-0.324,0.123-0.448-0.001l-0.698-0.7c-0.123-0.124-0.123-0.324,0.001-0.448L72.259,158.48L72.259,158.48z"/>
					<path fill="#1490DF" d="M72.963,160.057l-0.7,0.698l0,0l-5.513-5.529c-0.123-0.124-0.123-0.324,0.001-0.448l0,0l0.7-0.698
						c0.124-0.123,0.324-0.123,0.448,0.001l0,0l5.066,5.081C73.211,159.41,73.21,159.811,72.963,160.057L72.963,160.057z"/>
				</g>
				
					<linearGradient id="SVGID_00000180324433380017889940000014141837546188006568_" gradientUnits="userSpaceOnUse" x1="-500.2419" y1="1966.5742" x2="-500.2419" y2="1970.2419" gradientTransform="matrix(1 0 0 -1 564 2128)">
					<stop  offset="0" style="stop-color:#5E9624"/>
					<stop  offset="0.183" style="stop-color:#629C25"/>
					<stop  offset="0.435" style="stop-color:#6DAE2A"/>
					<stop  offset="0.726" style="stop-color:#7FCB30"/>
					<stop  offset="0.822" style="stop-color:#86D633"/>
				</linearGradient>
				<circle fill="url(#SVGID_00000180324433380017889940000014141837546188006568_)" cx="63.758" cy="159.592" r="1.834"/>
			</g>
		</g>
	</g>
	<g>
		<g id="bdcd7268-31fc-4163-9544-651d61f1498e_00000110447200130917626750000010875734710059060374_">
			<g>
				<path fill="#B3B3B3" d="M60.945,246.353c0.711,0.721,1.872,0.729,2.593,0.018c0.721-0.711,0.729-1.872,0.018-2.593
					c-0.014-0.014-0.027-0.027-0.041-0.041c-0.188-0.183-0.413-0.323-0.661-0.41v-7.877h-1.173v7.855
					c-0.963,0.295-1.505,1.316-1.209,2.279c0.09,0.292,0.252,0.558,0.471,0.771L60.945,246.353z"/>
				
					<linearGradient id="SVGID_00000031906906237170992650000017619699462150236594_" gradientUnits="userSpaceOnUse" x1="-501.7534" y1="287.3387" x2="-501.7534" y2="291.0064" gradientTransform="matrix(1 0 0 1 564 -54.484)">
					<stop  offset="0" style="stop-color:#50E6FF"/>
					<stop  offset="1" style="stop-color:#32BEDD"/>
				</linearGradient>
				<circle fill="url(#SVGID_00000031906906237170992650000017619699462150236594_)" cx="62.247" cy="234.606" r="1.834"/>
				<g>
					<path fill="#50E6FF" d="M59.198,249.978l-0.698,0.7c-0.123,0.124-0.324,0.124-0.448,0.001l0,0l-5.162-5.148
						c-0.248-0.247-0.248-0.648-0.001-0.895l0,0l0.698-0.7l0,0l5.61,5.595C59.321,249.654,59.321,249.855,59.198,249.978z"/>
					<path fill="#1490DF" d="M58.397,239.541l0.7,0.698c0.124,0.123,0.124,0.324,0.001,0.448l0,0l-5.513,5.529l0,0l-0.701-0.699
						c-0.248-0.247-0.248-0.648-0.001-0.895l0,0l5.066-5.081C58.072,239.417,58.272,239.417,58.397,239.541
						C58.396,239.541,58.396,239.541,58.397,239.541z"/>
					<path fill="#50E6FF" d="M70.728,243.937l0.698,0.7c0.247,0.248,0.246,0.648-0.001,0.895l0,0l-5.162,5.148
						c-0.124,0.123-0.324,0.123-0.448-0.001l-0.698-0.7c-0.123-0.124-0.123-0.324,0.001-0.448L70.728,243.937L70.728,243.937z"/>
					<path fill="#1490DF" d="M71.431,245.515l-0.7,0.698l0,0l-5.513-5.529c-0.123-0.124-0.123-0.324,0.001-0.448l0,0l0.7-0.698
						c0.124-0.123,0.324-0.123,0.448,0.001l0,0l5.066,5.081C71.679,244.867,71.679,245.268,71.431,245.515L71.431,245.515z"/>
				</g>
				
					<linearGradient id="SVGID_00000158026421360778378640000000528250689808759439_" gradientUnits="userSpaceOnUse" x1="-501.7734" y1="1881.1171" x2="-501.7734" y2="1884.7848" gradientTransform="matrix(1 0 0 -1 564 2128)">
					<stop  offset="0" style="stop-color:#5E9624"/>
					<stop  offset="0.183" style="stop-color:#629C25"/>
					<stop  offset="0.435" style="stop-color:#6DAE2A"/>
					<stop  offset="0.726" style="stop-color:#7FCB30"/>
					<stop  offset="0.822" style="stop-color:#86D633"/>
				</linearGradient>
				<circle fill="url(#SVGID_00000158026421360778378640000000528250689808759439_)" cx="62.227" cy="245.049" r="1.834"/>
			</g>
		</g>
		<g>
			<g id="a53a4de8-371c-49da-a662-c4631299fc03_00000100364842652502044650000007376942352501788565_">
				<path fill="#76BC43" d="M98.91,240.639c0.01,0.24-0.172,0.445-0.412,0.464h-3.589c-0.24,0.01-0.445-0.172-0.464-0.412v-2.679
					c-0.01-0.24,0.172-0.445,0.412-0.464h3.589c0.24-0.01,0.445,0.172,0.464,0.412V240.639z"/>
				<path fill="#76BC43" d="M105.281,243.352c0.01,0.24-0.172,0.445-0.412,0.464h-3.589c-0.24,0.01-0.445-0.172-0.464-0.412v-2.662
					c-0.01-0.24,0.172-0.445,0.412-0.464h3.589c0.24-0.01,0.445,0.172,0.464,0.412V243.352z"/>
				<path fill="#76BC43" d="M98.91,246.1c0.01,0.24-0.172,0.445-0.412,0.464h-3.589c-0.24,0.01-0.445-0.172-0.464-0.412v-2.679
					c-0.01-0.24,0.172-0.445,0.412-0.464h3.589c0.24-0.01,0.445,0.172,0.464,0.412V246.1z"/>
				<path fill="#8BC63F" d="M92.539,237.926c0.01,0.231-0.165,0.428-0.395,0.447h-3.692c-0.234,0.011-0.437-0.162-0.464-0.395
					v-2.782c0.008-0.227,0.186-0.412,0.412-0.429h3.589c0.378,0,0.55,0.189,0.55,0.464V237.926z"/>
				<path fill="#76BC43" d="M92.539,243.352c0.02,0.236-0.156,0.444-0.392,0.463c-0.001,0-0.002,0-0.003,0h-3.692
					c-0.246,0.01-0.454-0.182-0.464-0.429c0-0.012,0-0.023,0-0.035v-2.713c-0.001-0.234,0.179-0.429,0.412-0.447h3.589
					c0.378,0,0.55,0.189,0.55,0.447V243.352z"/>
				<path fill="#76BC43" d="M92.539,248.83c0.02,0.236-0.156,0.444-0.392,0.463c-0.001,0-0.002,0-0.003,0h-3.692
					c-0.24,0.01-0.445-0.172-0.464-0.412V246.1c-0.01-0.237,0.175-0.437,0.411-0.446c0,0,0,0,0.001,0h3.589
					c0.378,0,0.55,0.172,0.55,0.447V248.83z"/>
				<g>
					<path fill="#999999" d="M82.149,228.772h2.215l0,0v6.182c0,0.275-0.223,0.498-0.498,0.498h-2.198
						c-0.275,0-0.498-0.223-0.498-0.498v-5.152c-0.028-0.54,0.386-1.001,0.926-1.029C82.114,228.773,82.131,228.772,82.149,228.772z
						"/>
					<path opacity="0.5" fill="#999999" enable-background="new    " d="M82.149,228.772h2.215l0,0v6.182
						c0,0.275-0.223,0.498-0.498,0.498h-2.198c-0.275,0-0.498-0.223-0.498-0.498v-5.152c-0.028-0.54,0.386-1.001,0.926-1.029
						C82.114,228.773,82.131,228.772,82.149,228.772z"/>
				</g>
				<g>
					<path fill="#999999" d="M107.17,228.772h2.215c0.541,0,0.979,0.438,0.979,0.979v5.152c0,0.275-0.223,0.498-0.498,0.498l0,0
						h-2.215c-0.275,0-0.498-0.223-0.498-0.498v-6.131H107.17z"/>
					<path opacity="0.5" fill="#999999" enable-background="new    " d="M107.17,228.772h2.215c0.541,0,0.979,0.438,0.979,0.979
						v5.152c0,0.275-0.223,0.498-0.498,0.498l0,0h-2.215c-0.275,0-0.498-0.223-0.498-0.498v-6.131H107.17z"/>
				</g>
				<path fill="#949494" d="M110.364,229.751v2.147l0,0H81.17l0,0v-2.147c0-0.541,0.438-0.979,0.979-0.979h27.254
					C109.937,228.782,110.365,229.217,110.364,229.751z"/>
				<g>
					<path fill="#999999" d="M81.668,248.092h2.215c0.275,0,0.498,0.223,0.498,0.498v6.182l0,0h-2.232
						c-0.541,0-0.979-0.438-0.979-0.979v-5.289C81.212,248.263,81.424,248.088,81.668,248.092z"/>
					<path opacity="0.5" fill="#999999" enable-background="new    " d="M81.668,248.092h2.215c0.275,0,0.498,0.223,0.498,0.498
						v6.182l0,0h-2.232c-0.541,0-0.979-0.438-0.979-0.979v-5.289C81.212,248.263,81.424,248.088,81.668,248.092z"/>
				</g>
				<g>
					<path fill="#999999" d="M107.651,248.092h2.215c0.275,0,0.498,0.223,0.498,0.498l0,0v5.152c0,0.541-0.438,0.979-0.979,0.979
						h-2.215l0,0v-6.217C107.211,248.269,107.413,248.097,107.651,248.092z"/>
					<path opacity="0.5" fill="#999999" enable-background="new    " d="M107.651,248.092h2.215c0.275,0,0.498,0.223,0.498,0.498
						l0,0v5.152c0,0.541-0.438,0.979-0.979,0.979h-2.215l0,0v-6.217C107.211,248.269,107.413,248.097,107.651,248.092z"/>
				</g>
				<path fill="#949494" d="M81.17,253.793v-2.147l0,0h29.194l0,0v2.147c0,0.541-0.438,0.979-0.979,0.979H82.149
					C81.609,254.772,81.17,254.334,81.17,253.793z"/>
			</g>
		</g>
	</g>
	<g>
		
			<linearGradient id="SVGID_00000033331528965083151250000010930199646937398158_" gradientUnits="userSpaceOnUse" x1="84.9689" y1="1805.2277" x2="84.9689" y2="1824.3425" gradientTransform="matrix(1 0 0 -1 0 1894)">
			<stop  offset="0" style="stop-color:#B3B4B4"/>
			<stop  offset="0.26" style="stop-color:#C2C1C0"/>
			<stop  offset="1" style="stop-color:#E6E6E6"/>
		</linearGradient>
		<path fill="url(#SVGID_00000033331528965083151250000010930199646937398158_)" d="M68.802,69.657h32.334l0,0v18.031
			c0,0.599-0.485,1.084-1.084,1.084H69.886c-0.599,0-1.084-0.485-1.084-1.084V69.657z"/>
		<path fill="#40BEAF" d="M69.886,62.772h30.165c0.599,0,1.084,0.485,1.084,1.084v5.801l0,0H68.802l0,0v-5.82
			C68.812,63.246,69.295,62.772,69.886,62.772z"/>
		<path fill="#FFFFFF" d="M73.196,71.75h23.527c0.276,0.01,0.495,0.237,0.495,0.514v2.663c0,0.276-0.218,0.503-0.495,0.514H73.196
			c-0.276-0.01-0.495-0.237-0.495-0.514v-2.663C72.701,71.987,72.919,71.76,73.196,71.75z"/>
		<path fill="#40BEAF" d="M73.215,77.056h23.527c0.276,0.01,0.495,0.237,0.495,0.514v2.682c0,0.276-0.218,0.503-0.495,0.514H73.215
			c-0.276-0.01-0.495-0.237-0.495-0.514v-2.587c-0.053-0.279,0.131-0.547,0.409-0.6C73.158,77.06,73.186,77.057,73.215,77.056z"/>
		<path fill="#258378" d="M73.215,82.42h23.527c0.276,0.01,0.495,0.237,0.495,0.514v2.682c0,0.276-0.218,0.503-0.495,0.514H73.215
			c-0.276-0.01-0.495-0.237-0.495-0.514v-2.682C72.72,82.657,72.939,82.43,73.215,82.42z"/>
	</g>
	<g>
		<g id="bdcd7268-31fc-4163-9544-651d61f1498e_00000113331097813983785330000001968708637095264131_">
			<g>
				<path fill="#B3B3B3" d="M60.16,332.753c0.711,0.721,1.872,0.729,2.593,0.018s0.729-1.872,0.018-2.593
					c-0.014-0.014-0.027-0.027-0.041-0.041c-0.188-0.183-0.413-0.323-0.661-0.41v-7.877h-1.173v7.855
					c-0.963,0.295-1.505,1.316-1.209,2.279c0.09,0.292,0.252,0.558,0.471,0.771L60.16,332.753z"/>
				
					<linearGradient id="SVGID_00000082344792290467590830000005724446471143269542_" gradientUnits="userSpaceOnUse" x1="-502.5379" y1="373.7387" x2="-502.5379" y2="377.4064" gradientTransform="matrix(1 0 0 1 564 -54.484)">
					<stop  offset="0" style="stop-color:#50E6FF"/>
					<stop  offset="1" style="stop-color:#32BEDD"/>
				</linearGradient>
				<circle fill="url(#SVGID_00000082344792290467590830000005724446471143269542_)" cx="61.462" cy="321.006" r="1.834"/>
				<g>
					<path fill="#50E6FF" d="M58.413,336.378l-0.698,0.7c-0.123,0.124-0.324,0.124-0.448,0.001l0,0l-5.162-5.148
						c-0.248-0.247-0.248-0.648-0.001-0.895l0,0l0.698-0.7l0,0l5.61,5.595C58.536,336.054,58.537,336.255,58.413,336.378z"/>
					<path fill="#1490DF" d="M57.612,325.941l0.7,0.698c0.124,0.123,0.124,0.324,0.001,0.448l0,0l-5.513,5.529l0,0l-0.701-0.699
						c-0.248-0.247-0.248-0.648-0.001-0.895l0,0l5.066-5.081C57.287,325.817,57.488,325.817,57.612,325.941
						C57.612,325.941,57.612,325.941,57.612,325.941z"/>
					<path fill="#50E6FF" d="M69.943,330.337l0.698,0.7c0.247,0.248,0.246,0.648-0.001,0.895l0,0l-5.162,5.148
						c-0.124,0.123-0.324,0.123-0.448-0.001l-0.698-0.7c-0.123-0.124-0.123-0.324,0.001-0.448L69.943,330.337L69.943,330.337z"/>
					<path fill="#1490DF" d="M70.647,331.915l-0.7,0.698l0,0l-5.513-5.529c-0.123-0.124-0.123-0.324,0.001-0.448l0,0l0.7-0.698
						c0.124-0.123,0.324-0.123,0.448,0.001l0,0l5.066,5.081C70.895,331.267,70.894,331.668,70.647,331.915L70.647,331.915z"/>
				</g>
				
					<linearGradient id="SVGID_00000069358700621447535740000003639826399766701705_" gradientUnits="userSpaceOnUse" x1="-502.5579" y1="1794.717" x2="-502.5579" y2="1798.3848" gradientTransform="matrix(1 0 0 -1 564 2128)">
					<stop  offset="0" style="stop-color:#5E9624"/>
					<stop  offset="0.183" style="stop-color:#629C25"/>
					<stop  offset="0.435" style="stop-color:#6DAE2A"/>
					<stop  offset="0.726" style="stop-color:#7FCB30"/>
					<stop  offset="0.822" style="stop-color:#86D633"/>
				</linearGradient>
				<circle fill="url(#SVGID_00000069358700621447535740000003639826399766701705_)" cx="61.442" cy="331.449" r="1.834"/>
			</g>
		</g>
		<g>
			
				<linearGradient id="SVGID_00000183949973568538515090000013784451573658150030_" gradientUnits="userSpaceOnUse" x1="94.9822" y1="1552.8276" x2="94.9822" y2="1571.9425" gradientTransform="matrix(1 0 0 -1 0 1894)">
				<stop  offset="0" style="stop-color:#B3B4B4"/>
				<stop  offset="0.26" style="stop-color:#C2C1C0"/>
				<stop  offset="1" style="stop-color:#E6E6E6"/>
			</linearGradient>
			<path fill="url(#SVGID_00000183949973568538515090000013784451573658150030_)" d="M78.815,322.057h32.334l0,0v18.031
				c0,0.599-0.485,1.084-1.084,1.084H79.9c-0.599,0-1.084-0.485-1.084-1.084V322.057z"/>
			<path fill="#40BEAF" d="M79.9,315.172h30.165c0.599,0,1.084,0.485,1.084,1.084v5.801l0,0H78.815l0,0v-5.82
				C78.826,315.646,79.308,315.172,79.9,315.172z"/>
			<path fill="#FFFFFF" d="M83.209,324.15h23.527c0.276,0.01,0.495,0.237,0.495,0.514v2.663c0,0.276-0.218,0.503-0.495,0.514H83.209
				c-0.276-0.01-0.495-0.237-0.495-0.514v-2.663C82.714,324.387,82.933,324.16,83.209,324.15z"/>
			<path fill="#40BEAF" d="M83.228,329.456h23.527c0.276,0.01,0.495,0.237,0.495,0.514v2.682c0,0.276-0.218,0.503-0.495,0.514
				H83.228c-0.276-0.01-0.495-0.237-0.495-0.514v-2.587c-0.053-0.279,0.131-0.547,0.409-0.6
				C83.171,329.46,83.199,329.457,83.228,329.456z"/>
			<path fill="#258378" d="M83.228,334.82h23.527c0.276,0.01,0.495,0.237,0.495,0.514v2.682c0,0.276-0.218,0.503-0.495,0.514H83.228
				c-0.276-0.01-0.495-0.237-0.495-0.514v-2.682C82.733,335.057,82.952,334.83,83.228,334.82z"/>
		</g>
	</g>
	<g>
		<g>
			<line fill="none" stroke="#3C3C41" stroke-miterlimit="10" x1="265.202" y1="97.3" x2="265.202" y2="109.518"/>
			<g>
				<polygon fill="#3C3C41" points="261.462,108.424 265.202,114.9 268.941,108.424 				"/>
			</g>
		</g>
	</g>
	<g>
		<g>
			<path fill="none" stroke="#3C3C41" stroke-miterlimit="10" d="M240.28,156.261h-20.523c-2.75,0-6.14,1.94-7.533,4.311
				L178.833,217.4c-1.393,2.371-4.783,4.311-7.533,4.311h-15.58"/>
			<g>
				<polygon fill="#3C3C41" points="156.814,217.971 150.338,221.711 156.814,225.451 				"/>
			</g>
		</g>
	</g>
	<g>
		<g>
			<path fill="none" stroke="#3C3C41" stroke-miterlimit="10" d="M242.7,249.232h-22.943c-2.75,0-6.102,1.962-7.449,4.359
				l-33.559,59.732c-1.347,2.398-4.699,4.359-7.449,4.359h-15.58"/>
			<g>
				<polygon fill="#3C3C41" points="156.815,313.943 150.338,317.683 156.815,321.423 				"/>
			</g>
		</g>
	</g>
	<g>
		<g>
			<line fill="none" stroke="#3C3C41" stroke-miterlimit="10" x1="150.338" y1="233.7" x2="237.318" y2="233.7"/>
			<g>
				<polygon fill="#3C3C41" points="236.224,237.44 242.7,233.7 236.224,229.96 				"/>
			</g>
		</g>
	</g>
	<g>
		<g>
			<line fill="none" stroke="#3C3C41" stroke-miterlimit="10" x1="155.72" y1="330.5" x2="242.7" y2="330.5"/>
			<g>
				<polygon fill="#3C3C41" points="156.815,334.24 150.338,330.5 156.815,326.76 				"/>
			</g>
		</g>
	</g>
</g>
<g id="text">
	<g>
		<rect x="199.952" y="119.572" fill="none" width="130.5" height="12.259"/>
		<path fill="#1E1E1E" d="M233.525,122.262h-3.281v2.906h3.035v0.885h-3.035v3.721h-0.984v-8.402h4.266V122.262z"/>
		<path fill="#1E1E1E" d="M238.119,124.746c-0.168-0.129-0.41-0.193-0.727-0.193c-0.41,0-0.753,0.193-1.028,0.58
			s-0.413,0.914-0.413,1.582v3.059h-0.961v-6h0.961v1.236h0.023c0.137-0.422,0.346-0.751,0.627-0.987s0.596-0.354,0.943-0.354
			c0.25,0,0.441,0.027,0.574,0.082V124.746z"/>
		<path fill="#1E1E1E" d="M241.67,129.914c-0.887,0-1.595-0.28-2.124-0.841s-0.794-1.304-0.794-2.229
			c0-1.008,0.275-1.795,0.826-2.361s1.295-0.85,2.232-0.85c0.895,0,1.593,0.275,2.095,0.826s0.753,1.314,0.753,2.291
			c0,0.957-0.271,1.724-0.812,2.3S242.58,129.914,241.67,129.914z M241.74,124.441c-0.617,0-1.105,0.21-1.465,0.63
			s-0.539,0.999-0.539,1.737c0,0.711,0.182,1.271,0.545,1.682s0.85,0.615,1.459,0.615c0.621,0,1.099-0.201,1.433-0.604
			s0.501-0.975,0.501-1.717c0-0.75-0.167-1.328-0.501-1.734S242.361,124.441,241.74,124.441z"/>
		<path fill="#1E1E1E" d="M251.174,129.773h-0.961v-3.422c0-1.273-0.465-1.91-1.395-1.91c-0.48,0-0.878,0.181-1.192,0.542
			s-0.472,0.817-0.472,1.368v3.422h-0.961v-6h0.961v0.996h0.023c0.453-0.758,1.109-1.137,1.969-1.137
			c0.656,0,1.158,0.212,1.506,0.636s0.521,1.036,0.521,1.837V129.773z"/>
		<path fill="#1E1E1E" d="M255.768,129.715c-0.227,0.125-0.525,0.188-0.896,0.188c-1.051,0-1.576-0.586-1.576-1.758v-3.551h-1.031
			v-0.82h1.031v-1.465l0.961-0.311v1.775h1.512v0.82h-1.512v3.381c0,0.402,0.068,0.689,0.205,0.861s0.363,0.258,0.68,0.258
			c0.242,0,0.451-0.066,0.627-0.199V129.715z"/>
		<path fill="#1E1E1E" d="M261.873,127.014h-4.236c0.016,0.668,0.195,1.184,0.539,1.547s0.816,0.545,1.418,0.545
			c0.676,0,1.297-0.223,1.863-0.668v0.902c-0.527,0.383-1.225,0.574-2.092,0.574c-0.848,0-1.514-0.272-1.998-0.817
			s-0.727-1.312-0.727-2.3c0-0.934,0.265-1.694,0.794-2.282s1.187-0.882,1.972-0.882s1.393,0.254,1.822,0.762
			s0.645,1.213,0.645,2.115V127.014z M260.889,126.199c-0.004-0.555-0.138-0.986-0.401-1.295s-0.63-0.463-1.099-0.463
			c-0.453,0-0.838,0.162-1.154,0.486s-0.512,0.748-0.586,1.271H260.889z"/>
		<path fill="#1E1E1E" d="M268.307,129.773h-0.961v-3.422c0-1.273-0.465-1.91-1.395-1.91c-0.48,0-0.878,0.181-1.192,0.542
			s-0.472,0.817-0.472,1.368v3.422h-0.961v-6h0.961v0.996h0.023c0.453-0.758,1.109-1.137,1.969-1.137
			c0.656,0,1.158,0.212,1.506,0.636s0.521,1.036,0.521,1.837V129.773z"/>
		<path fill="#1E1E1E" d="M275.238,129.773h-0.961v-1.02h-0.023c-0.445,0.773-1.133,1.16-2.062,1.16
			c-0.754,0-1.356-0.269-1.808-0.806s-0.677-1.269-0.677-2.194c0-0.992,0.25-1.787,0.75-2.385s1.166-0.896,1.998-0.896
			c0.824,0,1.424,0.324,1.799,0.973h0.023v-3.715h0.961V129.773z M274.277,127.061v-0.885c0-0.484-0.16-0.895-0.48-1.23
			s-0.727-0.504-1.219-0.504c-0.586,0-1.047,0.215-1.383,0.645s-0.504,1.023-0.504,1.781c0,0.691,0.161,1.237,0.483,1.638
			s0.755,0.601,1.298,0.601c0.535,0,0.97-0.193,1.304-0.58S274.277,127.65,274.277,127.061z"/>
		<path fill="#1E1E1E" d="M287.104,129.773h-1.09l-0.891-2.355h-3.562l-0.838,2.355h-1.096l3.223-8.402h1.02L287.104,129.773z
			 M284.801,126.533l-1.318-3.58c-0.043-0.117-0.086-0.305-0.129-0.562h-0.023c-0.039,0.238-0.084,0.426-0.135,0.562l-1.307,3.58
			H284.801z"/>
		<path fill="#1E1E1E" d="M289.324,126.598v3.176h-0.984v-8.402h2.309c0.898,0,1.595,0.219,2.089,0.656s0.741,1.055,0.741,1.852
			s-0.274,1.449-0.823,1.957s-1.29,0.762-2.224,0.762H289.324z M289.324,122.262v3.445h1.031c0.68,0,1.198-0.155,1.556-0.466
			s0.536-0.749,0.536-1.315c0-1.109-0.656-1.664-1.969-1.664H289.324z"/>
		<path fill="#1E1E1E" d="M296.045,129.773h-0.984v-8.402h0.984V129.773z"/>
		<path fill="#1E1E1E" d="M297.762,129.557v-1.031c0.523,0.387,1.1,0.58,1.729,0.58c0.844,0,1.266-0.281,1.266-0.844
			c0-0.16-0.036-0.296-0.108-0.407s-0.17-0.21-0.293-0.296s-0.268-0.163-0.434-0.231s-0.345-0.14-0.536-0.214
			c-0.266-0.105-0.499-0.212-0.7-0.319s-0.369-0.229-0.504-0.363s-0.236-0.288-0.305-0.46s-0.103-0.373-0.103-0.604
			c0-0.281,0.064-0.53,0.193-0.747s0.301-0.398,0.516-0.545s0.46-0.257,0.735-0.331s0.56-0.111,0.853-0.111
			c0.52,0,0.984,0.09,1.395,0.27v0.973c-0.441-0.289-0.949-0.434-1.523-0.434c-0.18,0-0.342,0.021-0.486,0.062
			s-0.269,0.099-0.372,0.173s-0.184,0.163-0.24,0.267s-0.085,0.218-0.085,0.343c0,0.156,0.028,0.287,0.085,0.393
			s0.14,0.199,0.249,0.281s0.242,0.156,0.398,0.223s0.334,0.139,0.533,0.217c0.266,0.102,0.504,0.206,0.715,0.313
			s0.391,0.229,0.539,0.363s0.263,0.29,0.343,0.466s0.12,0.385,0.12,0.627c0,0.297-0.065,0.555-0.196,0.773s-0.306,0.4-0.524,0.545
			s-0.471,0.252-0.756,0.322s-0.584,0.105-0.896,0.105C298.75,129.914,298.215,129.795,297.762,129.557z"/>
	</g>
	<g>
		<g>
			<path fill="#1E1E1E" d="M233.562,23.721h-2.062l-0.598-1.869h-2.988l-0.592,1.869h-2.051l3.059-8.402h2.244L233.562,23.721z
				 M230.468,20.398l-0.902-2.824c-0.066-0.211-0.113-0.463-0.141-0.756h-0.047c-0.02,0.246-0.068,0.49-0.146,0.732l-0.914,2.848
				H230.468z"/>
			<path fill="#1E1E1E" d="M241.501,23.721h-2.391l-2.449-3.65c-0.047-0.07-0.121-0.225-0.223-0.463h-0.029v4.113h-1.893v-8.402
				h1.893v3.973h0.029c0.047-0.109,0.125-0.266,0.234-0.469l2.32-3.504h2.256l-2.93,4.008L241.501,23.721z"/>
			<path fill="#1E1E1E" d="M242.101,23.398v-1.875c0.34,0.285,0.709,0.499,1.107,0.642s0.801,0.214,1.207,0.214
				c0.238,0,0.446-0.021,0.624-0.064s0.326-0.103,0.445-0.179s0.208-0.166,0.267-0.27s0.088-0.216,0.088-0.337
				c0-0.164-0.047-0.311-0.141-0.439s-0.222-0.248-0.384-0.357s-0.354-0.215-0.577-0.316s-0.463-0.205-0.721-0.311
				c-0.656-0.273-1.146-0.607-1.468-1.002s-0.483-0.871-0.483-1.43c0-0.438,0.088-0.813,0.264-1.128s0.415-0.573,0.718-0.776
				s0.653-0.353,1.052-0.448s0.82-0.144,1.266-0.144c0.438,0,0.825,0.026,1.163,0.079s0.649,0.134,0.935,0.243v1.752
				c-0.141-0.098-0.294-0.184-0.46-0.258s-0.337-0.136-0.513-0.185s-0.351-0.085-0.524-0.108s-0.339-0.035-0.495-0.035
				c-0.215,0-0.41,0.021-0.586,0.062s-0.324,0.099-0.445,0.173s-0.215,0.163-0.281,0.267s-0.1,0.22-0.1,0.349
				c0,0.141,0.037,0.267,0.111,0.378s0.18,0.217,0.316,0.316s0.303,0.197,0.498,0.293s0.416,0.194,0.662,0.296
				c0.336,0.141,0.638,0.29,0.905,0.448s0.497,0.337,0.688,0.536s0.338,0.427,0.439,0.683s0.152,0.554,0.152,0.894
				c0,0.469-0.089,0.862-0.267,1.181s-0.419,0.576-0.724,0.773s-0.659,0.339-1.063,0.425s-0.831,0.129-1.28,0.129
				c-0.461,0-0.899-0.039-1.315-0.117S242.405,23.555,242.101,23.398z"/>
			<path fill="#1E1E1E" d="M258.548,23.422c-0.613,0.297-1.414,0.445-2.402,0.445c-1.289,0-2.303-0.379-3.041-1.137
				s-1.107-1.768-1.107-3.029c0-1.344,0.415-2.434,1.245-3.27s1.907-1.254,3.231-1.254c0.82,0,1.512,0.104,2.074,0.311v1.822
				c-0.562-0.336-1.203-0.504-1.922-0.504c-0.789,0-1.426,0.248-1.91,0.744s-0.727,1.168-0.727,2.016
				c0,0.812,0.229,1.46,0.686,1.942s1.072,0.724,1.846,0.724c0.738,0,1.414-0.18,2.027-0.539V23.422z"/>
			<path fill="#1E1E1E" d="M261.653,23.721h-1.852v-8.883h1.852V23.721z"/>
			<path fill="#1E1E1E" d="M268.913,23.721h-1.846v-0.914h-0.029c-0.457,0.707-1.068,1.061-1.834,1.061
				c-1.391,0-2.086-0.842-2.086-2.525v-3.621h1.846v3.457c0,0.848,0.336,1.271,1.008,1.271c0.332,0,0.598-0.116,0.797-0.349
				s0.299-0.548,0.299-0.946v-3.434h1.846V23.721z"/>
			<path fill="#1E1E1E" d="M270.179,23.562v-1.5c0.305,0.184,0.608,0.32,0.911,0.41s0.589,0.135,0.858,0.135
				c0.328,0,0.587-0.045,0.776-0.135s0.284-0.227,0.284-0.41c0-0.117-0.043-0.215-0.129-0.293s-0.196-0.146-0.331-0.205
				s-0.282-0.111-0.442-0.158s-0.314-0.1-0.463-0.158c-0.238-0.09-0.448-0.187-0.63-0.29s-0.334-0.224-0.457-0.36
				s-0.217-0.295-0.281-0.475s-0.097-0.393-0.097-0.639c0-0.336,0.073-0.625,0.22-0.867s0.342-0.44,0.586-0.595
				s0.523-0.268,0.838-0.34s0.642-0.108,0.981-0.108c0.266,0,0.535,0.021,0.809,0.062s0.543,0.101,0.809,0.179v1.43
				c-0.234-0.137-0.485-0.239-0.753-0.308s-0.53-0.103-0.788-0.103c-0.121,0-0.235,0.011-0.343,0.032s-0.202,0.053-0.284,0.094
				s-0.146,0.094-0.193,0.158s-0.07,0.138-0.07,0.22c0,0.109,0.035,0.203,0.105,0.281s0.162,0.146,0.275,0.202
				s0.239,0.107,0.378,0.152s0.276,0.091,0.413,0.138c0.246,0.086,0.469,0.18,0.668,0.281s0.37,0.221,0.513,0.357
				s0.252,0.297,0.328,0.48s0.114,0.402,0.114,0.656c0,0.355-0.077,0.659-0.231,0.911s-0.359,0.457-0.615,0.615
				s-0.551,0.273-0.885,0.346s-0.681,0.108-1.04,0.108C271.353,23.867,270.741,23.766,270.179,23.562z"/>
			<path fill="#1E1E1E" d="M279.451,23.65c-0.273,0.145-0.686,0.217-1.236,0.217c-1.305,0-1.957-0.678-1.957-2.033v-2.748h-0.973
				v-1.365h0.973v-1.295l1.846-0.527v1.822h1.348v1.365h-1.348v2.426c0,0.625,0.248,0.938,0.744,0.938
				c0.195,0,0.396-0.057,0.604-0.17V23.65z"/>
			<path fill="#1E1E1E" d="M285.876,21.248h-3.914c0.062,0.871,0.611,1.307,1.646,1.307c0.66,0,1.24-0.156,1.74-0.469v1.336
				c-0.555,0.297-1.275,0.445-2.162,0.445c-0.969,0-1.721-0.269-2.256-0.806s-0.803-1.286-0.803-2.247
				c0-0.996,0.289-1.785,0.867-2.367s1.289-0.873,2.133-0.873c0.875,0,1.552,0.26,2.03,0.779s0.718,1.225,0.718,2.115V21.248z
				 M284.159,20.111c0-0.859-0.348-1.289-1.043-1.289c-0.297,0-0.554,0.123-0.771,0.369s-0.349,0.553-0.396,0.92H284.159z"/>
			<path fill="#1E1E1E" d="M290.969,19.391c-0.223-0.121-0.482-0.182-0.779-0.182c-0.402,0-0.717,0.147-0.943,0.442
				s-0.34,0.696-0.34,1.204v2.865h-1.852v-6h1.852v1.113h0.023c0.293-0.812,0.82-1.219,1.582-1.219c0.195,0,0.348,0.023,0.457,0.07
				V19.391z"/>
		</g>
	</g>
	<g>
		<rect x="221.952" y="189.972" fill="none" width="86.5" height="28.939"/>
		<path fill="#1E1E1E" d="M234.598,200.173v-8.402h2.391c0.727,0,1.303,0.178,1.729,0.533s0.639,0.818,0.639,1.389
			c0,0.477-0.129,0.891-0.387,1.242s-0.613,0.602-1.066,0.75v0.023c0.566,0.066,1.02,0.28,1.359,0.642s0.51,0.831,0.51,1.409
			c0,0.719-0.258,1.301-0.773,1.746s-1.166,0.668-1.951,0.668H234.598z M235.582,192.662v2.713h1.008c0.539,0,0.963-0.13,1.271-0.39
			s0.463-0.626,0.463-1.099c0-0.816-0.537-1.225-1.611-1.225H235.582z M235.582,196.259v3.023h1.336c0.578,0,1.026-0.137,1.345-0.41
			s0.478-0.648,0.478-1.125c0-0.992-0.676-1.488-2.027-1.488H235.582z"/>
		<path fill="#1E1E1E" d="M245.643,200.173h-0.961v-0.938h-0.023c-0.418,0.719-1.033,1.078-1.846,1.078
			c-0.598,0-1.065-0.158-1.403-0.475s-0.507-0.736-0.507-1.26c0-1.121,0.66-1.773,1.98-1.957l1.799-0.252
			c0-1.02-0.412-1.529-1.236-1.529c-0.723,0-1.375,0.246-1.957,0.738v-0.984c0.59-0.375,1.27-0.562,2.039-0.562
			c1.41,0,2.115,0.746,2.115,2.238V200.173z M244.682,197.138l-1.447,0.199c-0.445,0.062-0.781,0.173-1.008,0.331
			s-0.34,0.438-0.34,0.841c0,0.293,0.104,0.532,0.313,0.718s0.487,0.278,0.835,0.278c0.477,0,0.87-0.167,1.181-0.501
			s0.466-0.757,0.466-1.269V197.138z"/>
		<path fill="#1E1E1E" d="M251.543,199.898c-0.461,0.277-1.008,0.416-1.641,0.416c-0.855,0-1.546-0.278-2.071-0.835
			s-0.788-1.278-0.788-2.165c0-0.988,0.283-1.782,0.85-2.382s1.322-0.899,2.268-0.899c0.527,0,0.992,0.098,1.395,0.293v0.984
			c-0.445-0.312-0.922-0.469-1.43-0.469c-0.613,0-1.116,0.22-1.509,0.659s-0.589,1.017-0.589,1.731c0,0.703,0.185,1.258,0.554,1.664
			s0.864,0.609,1.485,0.609c0.523,0,1.016-0.174,1.477-0.521V199.898z"/>
		<path fill="#1E1E1E" d="M257.977,200.173h-1.348l-2.648-2.883h-0.023v2.883h-0.961v-8.883h0.961v5.631h0.023l2.52-2.748h1.26
			l-2.783,2.895L257.977,200.173z"/>
		<path fill="#1E1E1E" d="M264.082,199.693c0,2.203-1.055,3.305-3.164,3.305c-0.742,0-1.391-0.141-1.945-0.422v-0.961
			c0.676,0.375,1.32,0.562,1.934,0.562c1.477,0,2.215-0.785,2.215-2.355v-0.656h-0.023c-0.457,0.766-1.145,1.148-2.062,1.148
			c-0.746,0-1.347-0.267-1.802-0.8s-0.683-1.249-0.683-2.147c0-1.02,0.245-1.83,0.735-2.432s1.161-0.902,2.013-0.902
			c0.809,0,1.408,0.324,1.799,0.973h0.023v-0.832h0.961V199.693z M263.121,197.46v-0.885c0-0.477-0.161-0.885-0.483-1.225
			s-0.724-0.51-1.204-0.51c-0.594,0-1.059,0.216-1.395,0.647s-0.504,1.036-0.504,1.813c0,0.668,0.161,1.202,0.483,1.603
			s0.749,0.601,1.28,0.601c0.539,0,0.978-0.191,1.315-0.574S263.121,198.058,263.121,197.46z"/>
		<path fill="#1E1E1E" d="M269.156,195.146c-0.168-0.129-0.41-0.193-0.727-0.193c-0.41,0-0.753,0.193-1.028,0.58
			s-0.413,0.914-0.413,1.582v3.059h-0.961v-6h0.961v1.236h0.023c0.137-0.422,0.346-0.751,0.627-0.987s0.596-0.354,0.943-0.354
			c0.25,0,0.441,0.027,0.574,0.082V195.146z"/>
		<path fill="#1E1E1E" d="M272.707,200.314c-0.887,0-1.595-0.28-2.124-0.841s-0.794-1.304-0.794-2.229
			c0-1.008,0.275-1.795,0.826-2.361s1.295-0.85,2.232-0.85c0.895,0,1.593,0.275,2.095,0.826s0.753,1.314,0.753,2.291
			c0,0.957-0.271,1.724-0.812,2.3S273.617,200.314,272.707,200.314z M272.777,194.841c-0.617,0-1.105,0.21-1.465,0.63
			s-0.539,0.999-0.539,1.737c0,0.711,0.182,1.271,0.545,1.682s0.85,0.615,1.459,0.615c0.621,0,1.099-0.201,1.433-0.604
			s0.501-0.975,0.501-1.717c0-0.75-0.167-1.328-0.501-1.734S273.398,194.841,272.777,194.841z"/>
		<path fill="#1E1E1E" d="M282.082,200.173h-0.961v-0.949h-0.023c-0.398,0.727-1.016,1.09-1.852,1.09
			c-1.43,0-2.145-0.852-2.145-2.555v-3.586h0.955v3.434c0,1.266,0.484,1.898,1.453,1.898c0.469,0,0.854-0.173,1.157-0.519
			s0.454-0.798,0.454-1.356v-3.457h0.961V200.173z"/>
		<path fill="#1E1E1E" d="M289.002,200.173h-0.961v-3.422c0-1.273-0.465-1.91-1.395-1.91c-0.48,0-0.878,0.181-1.192,0.542
			s-0.472,0.817-0.472,1.368v3.422h-0.961v-6h0.961v0.996h0.023c0.453-0.758,1.109-1.137,1.969-1.137
			c0.656,0,1.158,0.212,1.506,0.636s0.521,1.036,0.521,1.837V200.173z"/>
		<path fill="#1E1E1E" d="M295.934,200.173h-0.961v-1.02h-0.023c-0.445,0.773-1.133,1.16-2.062,1.16
			c-0.754,0-1.356-0.269-1.808-0.806s-0.677-1.269-0.677-2.194c0-0.992,0.25-1.787,0.75-2.385s1.166-0.896,1.998-0.896
			c0.824,0,1.424,0.324,1.799,0.973h0.023v-3.715h0.961V200.173z M294.973,197.46v-0.885c0-0.484-0.16-0.895-0.48-1.23
			s-0.727-0.504-1.219-0.504c-0.586,0-1.047,0.215-1.383,0.645s-0.504,1.023-0.504,1.781c0,0.691,0.161,1.237,0.483,1.638
			s0.755,0.601,1.298,0.601c0.535,0,0.97-0.193,1.304-0.58S294.973,198.05,294.973,197.46z"/>
		<path fill="#1E1E1E" d="M241.427,212.506h-0.023v3.627h-0.961v-8.76h0.961v1.055h0.023c0.473-0.797,1.164-1.195,2.074-1.195
			c0.773,0,1.377,0.269,1.811,0.806s0.65,1.257,0.65,2.159c0,1.004-0.244,1.808-0.732,2.411s-1.156,0.905-2.004,0.905
			C242.448,213.514,241.849,213.178,241.427,212.506z M241.403,210.086v0.838c0,0.496,0.161,0.917,0.483,1.263
			s0.731,0.519,1.228,0.519c0.582,0,1.038-0.223,1.368-0.668s0.495-1.064,0.495-1.857c0-0.668-0.154-1.191-0.463-1.57
			s-0.727-0.568-1.254-0.568c-0.559,0-1.008,0.194-1.348,0.583S241.403,209.5,241.403,210.086z"/>
		<path fill="#1E1E1E" d="M250.626,208.346c-0.168-0.129-0.41-0.193-0.727-0.193c-0.41,0-0.753,0.193-1.028,0.58
			s-0.413,0.914-0.413,1.582v3.059h-0.961v-6h0.961v1.236h0.023c0.137-0.422,0.346-0.751,0.627-0.987s0.596-0.354,0.943-0.354
			c0.25,0,0.441,0.027,0.574,0.082V208.346z"/>
		<path fill="#1E1E1E" d="M254.177,213.514c-0.887,0-1.595-0.28-2.124-0.841s-0.794-1.304-0.794-2.229
			c0-1.008,0.275-1.795,0.826-2.361s1.295-0.85,2.232-0.85c0.895,0,1.593,0.275,2.095,0.826s0.753,1.314,0.753,2.291
			c0,0.957-0.271,1.724-0.812,2.3S255.087,213.514,254.177,213.514z M254.247,208.042c-0.617,0-1.105,0.21-1.465,0.63
			s-0.539,0.999-0.539,1.737c0,0.711,0.182,1.271,0.545,1.682s0.85,0.615,1.459,0.615c0.621,0,1.099-0.201,1.433-0.604
			s0.501-0.975,0.501-1.717c0-0.75-0.167-1.328-0.501-1.734S254.868,208.042,254.247,208.042z"/>
		<path fill="#1E1E1E" d="M262.79,213.098c-0.461,0.277-1.008,0.416-1.641,0.416c-0.855,0-1.546-0.278-2.071-0.835
			s-0.788-1.278-0.788-2.165c0-0.988,0.283-1.782,0.85-2.382s1.322-0.899,2.268-0.899c0.527,0,0.992,0.098,1.395,0.293v0.984
			c-0.445-0.312-0.922-0.469-1.43-0.469c-0.613,0-1.116,0.22-1.509,0.659s-0.589,1.017-0.589,1.731c0,0.703,0.185,1.258,0.554,1.664
			s0.864,0.609,1.485,0.609c0.523,0,1.016-0.174,1.477-0.521V213.098z"/>
		<path fill="#1E1E1E" d="M269.065,210.614h-4.236c0.016,0.668,0.195,1.184,0.539,1.547s0.816,0.545,1.418,0.545
			c0.676,0,1.297-0.223,1.863-0.668v0.902c-0.527,0.383-1.225,0.574-2.092,0.574c-0.848,0-1.514-0.272-1.998-0.817
			s-0.727-1.312-0.727-2.3c0-0.934,0.265-1.694,0.794-2.282s1.187-0.882,1.972-0.882s1.393,0.254,1.822,0.762
			s0.645,1.213,0.645,2.115V210.614z M268.081,209.799c-0.004-0.555-0.138-0.986-0.401-1.295s-0.63-0.463-1.099-0.463
			c-0.453,0-0.838,0.162-1.154,0.486s-0.512,0.748-0.586,1.271H268.081z"/>
		<path fill="#1E1E1E" d="M270.155,213.157v-1.031c0.523,0.387,1.1,0.58,1.729,0.58c0.844,0,1.266-0.281,1.266-0.844
			c0-0.16-0.036-0.296-0.108-0.407s-0.17-0.21-0.293-0.296s-0.268-0.163-0.434-0.231s-0.345-0.14-0.536-0.214
			c-0.266-0.105-0.499-0.212-0.7-0.319s-0.369-0.229-0.504-0.363s-0.236-0.288-0.305-0.46s-0.103-0.373-0.103-0.604
			c0-0.281,0.064-0.53,0.193-0.747s0.301-0.398,0.516-0.545s0.46-0.257,0.735-0.331s0.56-0.111,0.853-0.111
			c0.52,0,0.984,0.09,1.395,0.27v0.973c-0.441-0.289-0.949-0.434-1.523-0.434c-0.18,0-0.342,0.021-0.486,0.062
			s-0.269,0.099-0.372,0.173s-0.184,0.163-0.24,0.267s-0.085,0.218-0.085,0.343c0,0.156,0.028,0.287,0.085,0.393
			s0.14,0.199,0.249,0.281s0.242,0.156,0.398,0.223s0.334,0.139,0.533,0.217c0.266,0.102,0.504,0.206,0.715,0.313
			s0.391,0.229,0.539,0.363s0.263,0.29,0.343,0.466s0.12,0.385,0.12,0.627c0,0.297-0.065,0.555-0.196,0.773s-0.306,0.4-0.524,0.545
			s-0.471,0.252-0.756,0.322s-0.584,0.105-0.896,0.105C271.144,213.514,270.608,213.395,270.155,213.157z"/>
		<path fill="#1E1E1E" d="M275.247,213.157v-1.031c0.523,0.387,1.1,0.58,1.729,0.58c0.844,0,1.266-0.281,1.266-0.844
			c0-0.16-0.036-0.296-0.108-0.407s-0.17-0.21-0.293-0.296s-0.268-0.163-0.434-0.231s-0.345-0.14-0.536-0.214
			c-0.266-0.105-0.499-0.212-0.7-0.319s-0.369-0.229-0.504-0.363s-0.236-0.288-0.305-0.46s-0.103-0.373-0.103-0.604
			c0-0.281,0.064-0.53,0.193-0.747s0.301-0.398,0.516-0.545s0.46-0.257,0.735-0.331s0.56-0.111,0.853-0.111
			c0.52,0,0.984,0.09,1.395,0.27v0.973c-0.441-0.289-0.949-0.434-1.523-0.434c-0.18,0-0.342,0.021-0.486,0.062
			s-0.269,0.099-0.372,0.173s-0.184,0.163-0.24,0.267s-0.085,0.218-0.085,0.343c0,0.156,0.028,0.287,0.085,0.393
			s0.14,0.199,0.249,0.281s0.242,0.156,0.398,0.223s0.334,0.139,0.533,0.217c0.266,0.102,0.504,0.206,0.715,0.313
			s0.391,0.229,0.539,0.363s0.263,0.29,0.343,0.466s0.12,0.385,0.12,0.627c0,0.297-0.065,0.555-0.196,0.773s-0.306,0.4-0.524,0.545
			s-0.471,0.252-0.756,0.322s-0.584,0.105-0.896,0.105C276.235,213.514,275.7,213.395,275.247,213.157z"/>
		<path fill="#1E1E1E" d="M283.21,213.514c-0.887,0-1.595-0.28-2.124-0.841s-0.794-1.304-0.794-2.229
			c0-1.008,0.275-1.795,0.826-2.361s1.295-0.85,2.232-0.85c0.895,0,1.593,0.275,2.095,0.826s0.753,1.314,0.753,2.291
			c0,0.957-0.271,1.724-0.812,2.3S284.12,213.514,283.21,213.514z M283.28,208.042c-0.617,0-1.105,0.21-1.465,0.63
			s-0.539,0.999-0.539,1.737c0,0.711,0.182,1.271,0.545,1.682s0.85,0.615,1.459,0.615c0.621,0,1.099-0.201,1.433-0.604
			s0.501-0.975,0.501-1.717c0-0.75-0.167-1.328-0.501-1.734S283.901,208.042,283.28,208.042z"/>
		<path fill="#1E1E1E" d="M290.862,208.346c-0.168-0.129-0.41-0.193-0.727-0.193c-0.41,0-0.753,0.193-1.028,0.58
			s-0.413,0.914-0.413,1.582v3.059h-0.961v-6h0.961v1.236h0.023c0.137-0.422,0.346-0.751,0.627-0.987s0.596-0.354,0.943-0.354
			c0.25,0,0.441,0.027,0.574,0.082V208.346z"/>
	</g>
	<g>
		<rect x="213.152" y="291.172" fill="none" width="104.1" height="12.011"/>
		<path fill="#1E1E1E" d="M235.638,301.374h-0.984v-3.832h-4.348v3.832h-0.984v-8.402h0.984v3.686h4.348v-3.686h0.984V301.374z"/>
		<path fill="#1E1E1E" d="M242.534,298.614h-4.236c0.016,0.668,0.195,1.184,0.539,1.547s0.816,0.545,1.418,0.545
			c0.676,0,1.297-0.223,1.863-0.668v0.902c-0.527,0.383-1.225,0.574-2.092,0.574c-0.848,0-1.514-0.272-1.998-0.817
			s-0.727-1.312-0.727-2.3c0-0.934,0.265-1.694,0.794-2.282s1.187-0.882,1.972-0.882s1.393,0.254,1.822,0.762
			s0.645,1.213,0.645,2.115V298.614z M241.55,297.799c-0.004-0.555-0.138-0.986-0.401-1.295s-0.63-0.463-1.099-0.463
			c-0.453,0-0.838,0.162-1.154,0.486s-0.512,0.748-0.586,1.271H241.55z"/>
		<path fill="#1E1E1E" d="M248.282,301.374h-0.961v-0.938h-0.023c-0.418,0.719-1.033,1.078-1.846,1.078
			c-0.598,0-1.065-0.158-1.403-0.475s-0.507-0.736-0.507-1.26c0-1.121,0.66-1.773,1.98-1.957l1.799-0.252
			c0-1.02-0.412-1.529-1.236-1.529c-0.723,0-1.375,0.246-1.957,0.738v-0.984c0.59-0.375,1.27-0.562,2.039-0.562
			c1.41,0,2.115,0.746,2.115,2.238V301.374z M247.321,298.338l-1.447,0.199c-0.445,0.062-0.781,0.173-1.008,0.331
			s-0.34,0.438-0.34,0.841c0,0.293,0.104,0.532,0.313,0.718s0.487,0.278,0.835,0.278c0.477,0,0.87-0.167,1.181-0.501
			s0.466-0.757,0.466-1.269V298.338z"/>
		<path fill="#1E1E1E" d="M251.054,301.374h-0.961v-8.883h0.961V301.374z"/>
		<path fill="#1E1E1E" d="M255.782,301.315c-0.227,0.125-0.525,0.188-0.896,0.188c-1.051,0-1.576-0.586-1.576-1.758v-3.551h-1.031
			v-0.82h1.031v-1.465l0.961-0.311v1.775h1.512v0.82h-1.512v3.381c0,0.402,0.068,0.689,0.205,0.861s0.363,0.258,0.68,0.258
			c0.242,0,0.451-0.066,0.627-0.199V301.315z"/>
		<path fill="#1E1E1E" d="M262.046,301.374h-0.961v-3.457c0-1.25-0.465-1.875-1.395-1.875c-0.469,0-0.863,0.181-1.184,0.542
			s-0.48,0.825-0.48,1.392v3.398h-0.961v-8.883h0.961v3.879h0.023c0.461-0.758,1.117-1.137,1.969-1.137
			c1.352,0,2.027,0.814,2.027,2.443V301.374z"/>
		<path fill="#1E1E1E" d="M266.78,301.157v-1.031c0.523,0.387,1.1,0.58,1.729,0.58c0.844,0,1.266-0.281,1.266-0.844
			c0-0.16-0.036-0.296-0.108-0.407s-0.17-0.21-0.293-0.296s-0.268-0.163-0.434-0.231s-0.345-0.14-0.536-0.214
			c-0.266-0.105-0.499-0.212-0.7-0.319s-0.369-0.229-0.504-0.363s-0.236-0.288-0.305-0.46s-0.103-0.373-0.103-0.604
			c0-0.281,0.064-0.53,0.193-0.747s0.301-0.398,0.516-0.545s0.46-0.257,0.735-0.331s0.56-0.111,0.853-0.111
			c0.52,0,0.984,0.09,1.395,0.27v0.973c-0.441-0.289-0.949-0.434-1.523-0.434c-0.18,0-0.342,0.021-0.486,0.062
			s-0.269,0.099-0.372,0.173s-0.184,0.163-0.24,0.267s-0.085,0.218-0.085,0.343c0,0.156,0.028,0.287,0.085,0.393
			s0.14,0.199,0.249,0.281s0.242,0.156,0.398,0.223s0.334,0.139,0.533,0.217c0.266,0.102,0.504,0.206,0.715,0.313
			s0.391,0.229,0.539,0.363s0.263,0.29,0.343,0.466s0.12,0.385,0.12,0.627c0,0.297-0.065,0.555-0.196,0.773s-0.306,0.4-0.524,0.545
			s-0.471,0.252-0.756,0.322s-0.584,0.105-0.896,0.105C267.769,301.514,267.233,301.395,266.78,301.157z"/>
		<path fill="#1E1E1E" d="M277.058,298.614h-4.236c0.016,0.668,0.195,1.184,0.539,1.547s0.816,0.545,1.418,0.545
			c0.676,0,1.297-0.223,1.863-0.668v0.902c-0.527,0.383-1.225,0.574-2.092,0.574c-0.848,0-1.514-0.272-1.998-0.817
			s-0.727-1.312-0.727-2.3c0-0.934,0.265-1.694,0.794-2.282s1.187-0.882,1.972-0.882s1.393,0.254,1.822,0.762
			s0.645,1.213,0.645,2.115V298.614z M276.073,297.799c-0.004-0.555-0.138-0.986-0.401-1.295s-0.63-0.463-1.099-0.463
			c-0.453,0-0.838,0.162-1.154,0.486s-0.512,0.748-0.586,1.271H276.073z"/>
		<path fill="#1E1E1E" d="M281.64,296.346c-0.168-0.129-0.41-0.193-0.727-0.193c-0.41,0-0.753,0.193-1.028,0.58
			s-0.413,0.914-0.413,1.582v3.059h-0.961v-6h0.961v1.236h0.023c0.137-0.422,0.346-0.751,0.627-0.987s0.596-0.354,0.943-0.354
			c0.25,0,0.441,0.027,0.574,0.082V296.346z"/>
		<path fill="#1E1E1E" d="M287.399,295.374l-2.391,6h-0.943l-2.273-6h1.055l1.523,4.359c0.113,0.32,0.184,0.6,0.211,0.838h0.023
			c0.039-0.301,0.102-0.572,0.188-0.814l1.594-4.383H287.399z"/>
		<path fill="#1E1E1E" d="M288.923,293.85c-0.172,0-0.318-0.059-0.439-0.176s-0.182-0.266-0.182-0.445s0.061-0.329,0.182-0.448
			s0.268-0.179,0.439-0.179c0.176,0,0.325,0.06,0.448,0.179s0.185,0.269,0.185,0.448c0,0.172-0.062,0.318-0.185,0.439
			S289.099,293.85,288.923,293.85z M289.392,301.374h-0.961v-6h0.961V301.374z"/>
		<path fill="#1E1E1E" d="M295.427,301.098c-0.461,0.277-1.008,0.416-1.641,0.416c-0.855,0-1.546-0.278-2.071-0.835
			s-0.788-1.278-0.788-2.165c0-0.988,0.283-1.782,0.85-2.382s1.322-0.899,2.268-0.899c0.527,0,0.992,0.098,1.395,0.293v0.984
			c-0.445-0.312-0.922-0.469-1.43-0.469c-0.613,0-1.116,0.22-1.509,0.659s-0.589,1.017-0.589,1.731c0,0.703,0.185,1.258,0.554,1.664
			s0.864,0.609,1.485,0.609c0.523,0,1.016-0.174,1.477-0.521V301.098z"/>
		<path fill="#1E1E1E" d="M301.702,298.614h-4.236c0.016,0.668,0.195,1.184,0.539,1.547s0.816,0.545,1.418,0.545
			c0.676,0,1.297-0.223,1.863-0.668v0.902c-0.527,0.383-1.225,0.574-2.092,0.574c-0.848,0-1.514-0.272-1.998-0.817
			s-0.727-1.312-0.727-2.3c0-0.934,0.265-1.694,0.794-2.282s1.187-0.882,1.972-0.882s1.393,0.254,1.822,0.762
			s0.645,1.213,0.645,2.115V298.614z M300.718,297.799c-0.004-0.555-0.138-0.986-0.401-1.295s-0.63-0.463-1.099-0.463
			c-0.453,0-0.838,0.162-1.154,0.486s-0.512,0.748-0.586,1.271H300.718z"/>
	</g>
	<g>
		<path fill="#1E1E1E" d="M248.148,53.042h-0.984v-8.402h0.984V53.042z"/>
		<path fill="#1E1E1E" d="M255.209,53.042h-0.961V49.62c0-1.273-0.465-1.91-1.395-1.91c-0.48,0-0.878,0.181-1.192,0.542
			s-0.472,0.817-0.472,1.368v3.422h-0.961v-6h0.961v0.996h0.023c0.453-0.758,1.109-1.137,1.969-1.137
			c0.656,0,1.158,0.212,1.506,0.636s0.521,1.036,0.521,1.837V53.042z"/>
		<path fill="#1E1E1E" d="M262.141,52.561c0,2.203-1.055,3.305-3.164,3.305c-0.742,0-1.391-0.141-1.945-0.422v-0.961
			c0.676,0.375,1.32,0.562,1.934,0.562c1.477,0,2.215-0.785,2.215-2.355v-0.656h-0.023c-0.457,0.766-1.145,1.148-2.062,1.148
			c-0.746,0-1.347-0.267-1.802-0.8s-0.683-1.249-0.683-2.147c0-1.02,0.245-1.83,0.735-2.432s1.161-0.902,2.013-0.902
			c0.809,0,1.408,0.324,1.799,0.973h0.023v-0.832h0.961V52.561z M261.18,50.329v-0.885c0-0.477-0.161-0.885-0.483-1.225
			s-0.724-0.51-1.204-0.51c-0.594,0-1.059,0.216-1.395,0.647s-0.504,1.036-0.504,1.813c0,0.668,0.161,1.202,0.483,1.603
			s0.749,0.601,1.28,0.601c0.539,0,0.978-0.191,1.315-0.574S261.18,50.926,261.18,50.329z"/>
		<path fill="#1E1E1E" d="M267.215,48.014c-0.168-0.129-0.41-0.193-0.727-0.193c-0.41,0-0.753,0.193-1.028,0.58
			s-0.413,0.914-0.413,1.582v3.059h-0.961v-6h0.961v1.236h0.023c0.137-0.422,0.346-0.751,0.627-0.987s0.596-0.354,0.943-0.354
			c0.25,0,0.441,0.027,0.574,0.082V48.014z"/>
		<path fill="#1E1E1E" d="M273.08,50.282h-4.236c0.016,0.668,0.195,1.184,0.539,1.547s0.816,0.545,1.418,0.545
			c0.676,0,1.297-0.223,1.863-0.668v0.902c-0.527,0.383-1.225,0.574-2.092,0.574c-0.848,0-1.514-0.272-1.998-0.817
			s-0.727-1.312-0.727-2.3c0-0.934,0.265-1.694,0.794-2.282s1.187-0.882,1.972-0.882s1.393,0.254,1.822,0.762
			s0.645,1.213,0.645,2.115V50.282z M272.096,49.467c-0.004-0.555-0.138-0.986-0.401-1.295s-0.63-0.463-1.099-0.463
			c-0.453,0-0.838,0.162-1.154,0.486s-0.512,0.748-0.586,1.271H272.096z"/>
		<path fill="#1E1E1E" d="M274.17,52.825v-1.031c0.523,0.387,1.1,0.58,1.729,0.58c0.844,0,1.266-0.281,1.266-0.844
			c0-0.16-0.036-0.296-0.108-0.407s-0.17-0.21-0.293-0.296s-0.268-0.163-0.434-0.231s-0.345-0.14-0.536-0.214
			c-0.266-0.105-0.499-0.212-0.7-0.319s-0.369-0.229-0.504-0.363s-0.236-0.288-0.305-0.46s-0.103-0.373-0.103-0.604
			c0-0.281,0.064-0.53,0.193-0.747s0.301-0.398,0.516-0.545s0.46-0.257,0.735-0.331s0.56-0.111,0.853-0.111
			c0.52,0,0.984,0.09,1.395,0.27v0.973c-0.441-0.289-0.949-0.434-1.523-0.434c-0.18,0-0.342,0.021-0.486,0.062
			s-0.269,0.099-0.372,0.173s-0.184,0.163-0.24,0.267s-0.085,0.218-0.085,0.343c0,0.156,0.028,0.287,0.085,0.393
			s0.14,0.199,0.249,0.281s0.242,0.156,0.398,0.223s0.334,0.139,0.533,0.217c0.266,0.102,0.504,0.206,0.715,0.313
			s0.391,0.229,0.539,0.363s0.263,0.29,0.343,0.466s0.12,0.385,0.12,0.627c0,0.297-0.065,0.555-0.196,0.773s-0.306,0.4-0.524,0.545
			s-0.471,0.252-0.756,0.322s-0.584,0.105-0.896,0.105C275.158,53.182,274.623,53.063,274.17,52.825z"/>
		<path fill="#1E1E1E" d="M279.262,52.825v-1.031c0.523,0.387,1.1,0.58,1.729,0.58c0.844,0,1.266-0.281,1.266-0.844
			c0-0.16-0.036-0.296-0.108-0.407s-0.17-0.21-0.293-0.296s-0.268-0.163-0.434-0.231s-0.345-0.14-0.536-0.214
			c-0.266-0.105-0.499-0.212-0.7-0.319s-0.369-0.229-0.504-0.363s-0.236-0.288-0.305-0.46s-0.103-0.373-0.103-0.604
			c0-0.281,0.064-0.53,0.193-0.747s0.301-0.398,0.516-0.545s0.46-0.257,0.735-0.331s0.56-0.111,0.853-0.111
			c0.52,0,0.984,0.09,1.395,0.27v0.973c-0.441-0.289-0.949-0.434-1.523-0.434c-0.18,0-0.342,0.021-0.486,0.062
			s-0.269,0.099-0.372,0.173s-0.184,0.163-0.24,0.267s-0.085,0.218-0.085,0.343c0,0.156,0.028,0.287,0.085,0.393
			s0.14,0.199,0.249,0.281s0.242,0.156,0.398,0.223s0.334,0.139,0.533,0.217c0.266,0.102,0.504,0.206,0.715,0.313
			s0.391,0.229,0.539,0.363s0.263,0.29,0.343,0.466s0.12,0.385,0.12,0.627c0,0.297-0.065,0.555-0.196,0.773s-0.306,0.4-0.524,0.545
			s-0.471,0.252-0.756,0.322s-0.584,0.105-0.896,0.105C280.25,53.182,279.715,53.063,279.262,52.825z"/>
	</g>
	<g>
		<rect x="42.446" y="119.572" fill="none" width="85.046" height="16.659"/>
		<path fill="#1E1E1E" d="M51.421,129.773h-1.09l-0.891-2.355h-3.562l-0.838,2.355h-1.096l3.223-8.402h1.02L51.421,129.773z
			 M49.118,126.533l-1.318-3.58c-0.043-0.117-0.086-0.305-0.129-0.562h-0.023c-0.039,0.238-0.084,0.426-0.135,0.562l-1.307,3.58
			H49.118z"/>
		<path fill="#1E1E1E" d="M56.712,124.049l-3.551,4.904h3.516v0.82h-4.928v-0.299l3.551-4.881h-3.217v-0.82h4.629V124.049z"/>
		<path fill="#1E1E1E" d="M62.806,129.773h-0.961v-0.949h-0.023c-0.398,0.727-1.016,1.09-1.852,1.09
			c-1.43,0-2.145-0.852-2.145-2.555v-3.586h0.955v3.434c0,1.266,0.484,1.898,1.453,1.898c0.469,0,0.854-0.173,1.157-0.519
			s0.454-0.798,0.454-1.356v-3.457h0.961V129.773z"/>
		<path fill="#1E1E1E" d="M67.874,124.746c-0.168-0.129-0.41-0.193-0.727-0.193c-0.41,0-0.753,0.193-1.028,0.58
			s-0.413,0.914-0.413,1.582v3.059h-0.961v-6h0.961v1.236h0.023c0.137-0.422,0.346-0.751,0.627-0.987s0.596-0.354,0.943-0.354
			c0.25,0,0.441,0.027,0.574,0.082V124.746z"/>
		<path fill="#1E1E1E" d="M73.739,127.014h-4.236c0.016,0.668,0.195,1.184,0.539,1.547s0.816,0.545,1.418,0.545
			c0.676,0,1.297-0.223,1.863-0.668v0.902c-0.527,0.383-1.225,0.574-2.092,0.574c-0.848,0-1.514-0.272-1.998-0.817
			s-0.727-1.312-0.727-2.3c0-0.934,0.265-1.694,0.794-2.282s1.187-0.882,1.972-0.882s1.393,0.254,1.822,0.762
			s0.645,1.213,0.645,2.115V127.014z M72.755,126.199c-0.004-0.555-0.138-0.986-0.401-1.295s-0.63-0.463-1.099-0.463
			c-0.453,0-0.838,0.162-1.154,0.486s-0.512,0.748-0.586,1.271H72.755z"/>
		<path fill="#1E1E1E" d="M84.456,129.773h-1.371l-3.246-3.844c-0.121-0.145-0.195-0.242-0.223-0.293h-0.023v4.137h-0.984v-8.402
			h0.984v3.949h0.023c0.055-0.086,0.129-0.182,0.223-0.287l3.141-3.662h1.225l-3.604,4.031L84.456,129.773z"/>
		<path fill="#1E1E1E" d="M90.104,127.014h-4.236c0.016,0.668,0.195,1.184,0.539,1.547s0.816,0.545,1.418,0.545
			c0.676,0,1.297-0.223,1.863-0.668v0.902c-0.527,0.383-1.225,0.574-2.092,0.574c-0.848,0-1.514-0.272-1.998-0.817
			s-0.727-1.312-0.727-2.3c0-0.934,0.265-1.694,0.794-2.282s1.187-0.882,1.972-0.882s1.393,0.254,1.822,0.762
			s0.645,1.213,0.645,2.115V127.014z M89.12,126.199c-0.004-0.555-0.138-0.986-0.401-1.295s-0.63-0.463-1.099-0.463
			c-0.453,0-0.838,0.162-1.154,0.486s-0.512,0.748-0.586,1.271H89.12z"/>
		<path fill="#1E1E1E" d="M96.333,123.773l-2.76,6.961c-0.492,1.242-1.184,1.863-2.074,1.863c-0.25,0-0.459-0.025-0.627-0.076
			v-0.861c0.207,0.07,0.396,0.105,0.568,0.105c0.484,0,0.848-0.289,1.09-0.867l0.48-1.137l-2.344-5.988h1.066l1.623,4.617
			c0.02,0.059,0.061,0.211,0.123,0.457h0.035c0.02-0.094,0.059-0.242,0.117-0.445l1.705-4.629H96.333z"/>
		<path fill="#1E1E1E" d="M107.026,121.371l-3.111,8.402h-1.084l-3.047-8.402h1.096l2.326,6.662c0.074,0.215,0.131,0.463,0.17,0.744
			h0.023c0.031-0.234,0.096-0.486,0.193-0.756l2.373-6.65H107.026z"/>
		<path fill="#1E1E1E" d="M111.521,129.773h-0.961v-0.938h-0.023c-0.418,0.719-1.033,1.078-1.846,1.078
			c-0.598,0-1.065-0.158-1.403-0.475s-0.507-0.736-0.507-1.26c0-1.121,0.66-1.773,1.98-1.957l1.799-0.252
			c0-1.02-0.412-1.529-1.236-1.529c-0.723,0-1.375,0.246-1.957,0.738v-0.984c0.59-0.375,1.27-0.562,2.039-0.562
			c1.41,0,2.115,0.746,2.115,2.238V129.773z M110.56,126.738l-1.447,0.199c-0.445,0.062-0.781,0.173-1.008,0.331
			s-0.34,0.438-0.34,0.841c0,0.293,0.104,0.532,0.313,0.718s0.487,0.278,0.835,0.278c0.477,0,0.87-0.167,1.181-0.501
			s0.466-0.757,0.466-1.269V126.738z"/>
		<path fill="#1E1E1E" d="M118.183,129.773h-0.961v-0.949h-0.023c-0.398,0.727-1.016,1.09-1.852,1.09
			c-1.43,0-2.145-0.852-2.145-2.555v-3.586h0.955v3.434c0,1.266,0.484,1.898,1.453,1.898c0.469,0,0.854-0.173,1.157-0.519
			s0.454-0.798,0.454-1.356v-3.457h0.961V129.773z"/>
		<path fill="#1E1E1E" d="M121.083,129.773h-0.961v-8.883h0.961V129.773z"/>
		<path fill="#1E1E1E" d="M125.812,129.715c-0.227,0.125-0.525,0.188-0.896,0.188c-1.051,0-1.576-0.586-1.576-1.758v-3.551h-1.031
			v-0.82h1.031v-1.465l0.961-0.311v1.775h1.512v0.82H124.3v3.381c0,0.402,0.068,0.689,0.205,0.861s0.363,0.258,0.68,0.258
			c0.242,0,0.451-0.066,0.627-0.199V129.715z"/>
	</g>
	<g>
		<rect x="33.646" y="205.033" fill="none" width="102.646" height="15.739"/>
		<path fill="#1E1E1E" d="M50.07,215.234h-1.09l-0.891-2.355h-3.562l-0.838,2.355h-1.096l3.223-8.402h1.02L50.07,215.234z
			 M47.768,211.994l-1.318-3.58c-0.043-0.117-0.086-0.305-0.129-0.562h-0.023c-0.039,0.238-0.084,0.426-0.135,0.562l-1.307,3.58
			H47.768z"/>
		<path fill="#1E1E1E" d="M55.361,209.51l-3.551,4.904h3.516v0.82h-4.928v-0.299l3.551-4.881h-3.217v-0.82h4.629V209.51z"/>
		<path fill="#1E1E1E" d="M61.455,215.234h-0.961v-0.949h-0.023c-0.398,0.727-1.016,1.09-1.852,1.09
			c-1.43,0-2.145-0.852-2.145-2.555v-3.586h0.955v3.434c0,1.266,0.484,1.898,1.453,1.898c0.469,0,0.854-0.173,1.157-0.519
			s0.454-0.798,0.454-1.356v-3.457h0.961V215.234z"/>
		<path fill="#1E1E1E" d="M66.523,210.207c-0.168-0.129-0.41-0.193-0.727-0.193c-0.41,0-0.753,0.193-1.028,0.58
			s-0.413,0.914-0.413,1.582v3.059h-0.961v-6h0.961v1.236h0.023c0.137-0.422,0.346-0.751,0.627-0.987s0.596-0.354,0.943-0.354
			c0.25,0,0.441,0.027,0.574,0.082V210.207z"/>
		<path fill="#1E1E1E" d="M72.389,212.475h-4.236c0.016,0.668,0.195,1.184,0.539,1.547s0.816,0.545,1.418,0.545
			c0.676,0,1.297-0.223,1.863-0.668v0.902c-0.527,0.383-1.225,0.574-2.092,0.574c-0.848,0-1.514-0.272-1.998-0.817
			s-0.727-1.312-0.727-2.3c0-0.934,0.265-1.694,0.794-2.282s1.187-0.882,1.972-0.882s1.393,0.254,1.822,0.762
			s0.645,1.213,0.645,2.115V212.475z M71.404,211.66c-0.004-0.555-0.138-0.986-0.401-1.295s-0.63-0.463-1.099-0.463
			c-0.453,0-0.838,0.162-1.154,0.486s-0.512,0.748-0.586,1.271H71.404z"/>
		<path fill="#1E1E1E" d="M81.711,215.234h-4.453v-8.402h4.266v0.891h-3.281v2.795h3.035v0.885h-3.035v2.941h3.469V215.234z"/>
		<path fill="#1E1E1E" d="M87.916,209.234l-2.391,6h-0.943l-2.273-6h1.055l1.523,4.359c0.113,0.32,0.184,0.6,0.211,0.838h0.023
			c0.039-0.301,0.102-0.572,0.188-0.814l1.594-4.383H87.916z"/>
		<path fill="#1E1E1E" d="M93.77,212.475h-4.236c0.016,0.668,0.195,1.184,0.539,1.547s0.816,0.545,1.418,0.545
			c0.676,0,1.297-0.223,1.863-0.668v0.902c-0.527,0.383-1.225,0.574-2.092,0.574c-0.848,0-1.514-0.272-1.998-0.817
			s-0.727-1.312-0.727-2.3c0-0.934,0.265-1.694,0.794-2.282s1.187-0.882,1.972-0.882s1.393,0.254,1.822,0.762
			s0.645,1.213,0.645,2.115V212.475z M92.785,211.66c-0.004-0.555-0.138-0.986-0.401-1.295s-0.63-0.463-1.099-0.463
			c-0.453,0-0.838,0.162-1.154,0.486s-0.512,0.748-0.586,1.271H92.785z"/>
		<path fill="#1E1E1E" d="M100.203,215.234h-0.961v-3.422c0-1.273-0.465-1.91-1.395-1.91c-0.48,0-0.878,0.181-1.192,0.542
			s-0.472,0.817-0.472,1.368v3.422h-0.961v-6h0.961v0.996h0.023c0.453-0.758,1.109-1.137,1.969-1.137
			c0.656,0,1.158,0.212,1.506,0.636s0.521,1.036,0.521,1.837V215.234z"/>
		<path fill="#1E1E1E" d="M104.797,215.176c-0.227,0.125-0.525,0.188-0.896,0.188c-1.051,0-1.576-0.586-1.576-1.758v-3.551h-1.031
			v-0.82h1.031v-1.465l0.961-0.311v1.775h1.512v0.82h-1.512v3.381c0,0.402,0.068,0.689,0.205,0.861s0.363,0.258,0.68,0.258
			c0.242,0,0.451-0.066,0.627-0.199V215.176z"/>
		<path fill="#1E1E1E" d="M115.812,215.234h-0.984v-3.832h-4.348v3.832h-0.984v-8.402h0.984v3.686h4.348v-3.686h0.984V215.234z"/>
		<path fill="#1E1E1E" d="M122.738,215.234h-0.961v-0.949h-0.023c-0.398,0.727-1.016,1.09-1.852,1.09
			c-1.43,0-2.145-0.852-2.145-2.555v-3.586h0.955v3.434c0,1.266,0.484,1.898,1.453,1.898c0.469,0,0.854-0.173,1.157-0.519
			s0.454-0.798,0.454-1.356v-3.457h0.961V215.234z"/>
		<path fill="#1E1E1E" d="M125.662,214.367h-0.023v0.867h-0.961v-8.883h0.961v3.938h0.023c0.473-0.797,1.164-1.195,2.074-1.195
			c0.77,0,1.372,0.269,1.808,0.806s0.653,1.257,0.653,2.159c0,1.004-0.244,1.808-0.732,2.411s-1.156,0.905-2.004,0.905
			C126.668,215.375,126.068,215.039,125.662,214.367z M125.639,211.947v0.838c0,0.496,0.161,0.917,0.483,1.263
			s0.731,0.519,1.228,0.519c0.582,0,1.038-0.223,1.368-0.668s0.495-1.064,0.495-1.857c0-0.668-0.154-1.191-0.463-1.57
			s-0.727-0.568-1.254-0.568c-0.559,0-1.008,0.194-1.348,0.583S125.639,211.361,125.639,211.947z"/>
	</g>
	<g>
		<rect x="24.846" y="291.172" fill="none" width="120.246" height="16.619"/>
		<path fill="#1E1E1E" d="M40.314,301.022c-0.621,0.328-1.395,0.492-2.32,0.492c-1.195,0-2.152-0.385-2.871-1.154
			s-1.078-1.779-1.078-3.029c0-1.344,0.404-2.43,1.213-3.258s1.834-1.242,3.076-1.242c0.797,0,1.457,0.115,1.98,0.346v1.049
			c-0.602-0.336-1.266-0.504-1.992-0.504c-0.965,0-1.747,0.322-2.347,0.967s-0.899,1.506-0.899,2.584
			c0,1.023,0.28,1.839,0.841,2.446s1.296,0.911,2.206,0.911c0.844,0,1.574-0.188,2.191-0.562V301.022z"/>
		<path fill="#1E1E1E" d="M46.877,301.374h-0.961v-3.457c0-1.25-0.465-1.875-1.395-1.875c-0.469,0-0.863,0.181-1.184,0.542
			s-0.48,0.825-0.48,1.392v3.398h-0.961v-8.883h0.961v3.879h0.023c0.461-0.758,1.117-1.137,1.969-1.137
			c1.352,0,2.027,0.814,2.027,2.443V301.374z"/>
		<path fill="#1E1E1E" d="M53.51,298.614h-4.236c0.016,0.668,0.195,1.184,0.539,1.547s0.816,0.545,1.418,0.545
			c0.676,0,1.297-0.223,1.863-0.668v0.902c-0.527,0.383-1.225,0.574-2.092,0.574c-0.848,0-1.514-0.272-1.998-0.817
			s-0.727-1.312-0.727-2.3c0-0.934,0.265-1.694,0.794-2.282s1.187-0.882,1.972-0.882s1.393,0.254,1.822,0.762
			s0.645,1.213,0.645,2.115V298.614z M52.525,297.799c-0.004-0.555-0.138-0.986-0.401-1.295s-0.63-0.463-1.099-0.463
			c-0.453,0-0.838,0.162-1.154,0.486s-0.512,0.748-0.586,1.271H52.525z"/>
		<path fill="#1E1E1E" d="M59.053,301.098c-0.461,0.277-1.008,0.416-1.641,0.416c-0.855,0-1.546-0.278-2.071-0.835
			s-0.788-1.278-0.788-2.165c0-0.988,0.283-1.782,0.85-2.382s1.322-0.899,2.268-0.899c0.527,0,0.992,0.098,1.395,0.293v0.984
			c-0.445-0.312-0.922-0.469-1.43-0.469c-0.613,0-1.116,0.22-1.509,0.659s-0.589,1.017-0.589,1.731c0,0.703,0.185,1.258,0.554,1.664
			s0.864,0.609,1.485,0.609c0.523,0,1.016-0.174,1.477-0.521V301.098z"/>
		<path fill="#1E1E1E" d="M65.486,301.374h-1.348l-2.648-2.883h-0.023v2.883h-0.961v-8.883h0.961v5.631h0.023l2.52-2.748h1.26
			l-2.783,2.895L65.486,301.374z"/>
		<path fill="#1E1E1E" d="M67.455,300.506h-0.023v3.627h-0.961v-8.76h0.961v1.055h0.023c0.473-0.797,1.164-1.195,2.074-1.195
			c0.773,0,1.377,0.269,1.811,0.806s0.65,1.257,0.65,2.159c0,1.004-0.244,1.808-0.732,2.411s-1.156,0.905-2.004,0.905
			C68.477,301.514,67.877,301.178,67.455,300.506z M67.432,298.086v0.838c0,0.496,0.161,0.917,0.483,1.263s0.731,0.519,1.228,0.519
			c0.582,0,1.038-0.223,1.368-0.668s0.495-1.064,0.495-1.857c0-0.668-0.154-1.191-0.463-1.57s-0.727-0.568-1.254-0.568
			c-0.559,0-1.008,0.194-1.348,0.583S67.432,297.5,67.432,298.086z"/>
		<path fill="#1E1E1E" d="M76.033,301.514c-0.887,0-1.595-0.28-2.124-0.841s-0.794-1.304-0.794-2.229
			c0-1.008,0.275-1.795,0.826-2.361s1.295-0.85,2.232-0.85c0.895,0,1.593,0.275,2.095,0.826s0.753,1.314,0.753,2.291
			c0,0.957-0.271,1.724-0.812,2.3S76.943,301.514,76.033,301.514z M76.104,296.042c-0.617,0-1.105,0.21-1.465,0.63
			s-0.539,0.999-0.539,1.737c0,0.711,0.182,1.271,0.545,1.682s0.85,0.615,1.459,0.615c0.621,0,1.099-0.201,1.433-0.604
			s0.501-0.975,0.501-1.717c0-0.75-0.167-1.328-0.501-1.734S76.725,296.042,76.104,296.042z"/>
		<path fill="#1E1E1E" d="M81.049,293.85c-0.172,0-0.318-0.059-0.439-0.176s-0.182-0.266-0.182-0.445s0.061-0.329,0.182-0.448
			s0.268-0.179,0.439-0.179c0.176,0,0.325,0.06,0.448,0.179s0.185,0.269,0.185,0.448c0,0.172-0.062,0.318-0.185,0.439
			S81.225,293.85,81.049,293.85z M81.518,301.374h-0.961v-6h0.961V301.374z"/>
		<path fill="#1E1E1E" d="M88.443,301.374h-0.961v-3.422c0-1.273-0.465-1.91-1.395-1.91c-0.48,0-0.878,0.181-1.192,0.542
			s-0.472,0.817-0.472,1.368v3.422h-0.961v-6h0.961v0.996h0.023c0.453-0.758,1.109-1.137,1.969-1.137
			c0.656,0,1.158,0.212,1.506,0.636s0.521,1.036,0.521,1.837V301.374z"/>
		<path fill="#1E1E1E" d="M93.037,301.315c-0.227,0.125-0.525,0.188-0.896,0.188c-1.051,0-1.576-0.586-1.576-1.758v-3.551h-1.031
			v-0.82h1.031v-1.465l0.961-0.311v1.775h1.512v0.82h-1.512v3.381c0,0.402,0.068,0.689,0.205,0.861s0.363,0.258,0.68,0.258
			c0.242,0,0.451-0.066,0.627-0.199V301.315z"/>
		<path fill="#1E1E1E" d="M97.244,301.157v-1.031c0.523,0.387,1.1,0.58,1.729,0.58c0.844,0,1.266-0.281,1.266-0.844
			c0-0.16-0.036-0.296-0.108-0.407s-0.17-0.21-0.293-0.296s-0.268-0.163-0.434-0.231s-0.345-0.14-0.536-0.214
			c-0.266-0.105-0.499-0.212-0.7-0.319s-0.369-0.229-0.504-0.363s-0.236-0.288-0.305-0.46s-0.103-0.373-0.103-0.604
			c0-0.281,0.064-0.53,0.193-0.747s0.301-0.398,0.516-0.545s0.46-0.257,0.735-0.331s0.56-0.111,0.853-0.111
			c0.52,0,0.984,0.09,1.395,0.27v0.973c-0.441-0.289-0.949-0.434-1.523-0.434c-0.18,0-0.342,0.021-0.486,0.062
			s-0.269,0.099-0.372,0.173s-0.184,0.163-0.24,0.267s-0.085,0.218-0.085,0.343c0,0.156,0.028,0.287,0.085,0.393
			s0.14,0.199,0.249,0.281s0.242,0.156,0.398,0.223s0.334,0.139,0.533,0.217c0.266,0.102,0.504,0.206,0.715,0.313
			s0.391,0.229,0.539,0.363s0.263,0.29,0.343,0.466s0.12,0.385,0.12,0.627c0,0.297-0.065,0.555-0.196,0.773s-0.306,0.4-0.524,0.545
			s-0.471,0.252-0.756,0.322s-0.584,0.105-0.896,0.105C98.232,301.514,97.697,301.395,97.244,301.157z"/>
		<path fill="#1E1E1E" d="M105.482,301.315c-0.227,0.125-0.525,0.188-0.896,0.188c-1.051,0-1.576-0.586-1.576-1.758v-3.551h-1.031
			v-0.82h1.031v-1.465l0.961-0.311v1.775h1.512v0.82h-1.512v3.381c0,0.402,0.068,0.689,0.205,0.861s0.363,0.258,0.68,0.258
			c0.242,0,0.451-0.066,0.627-0.199V301.315z"/>
		<path fill="#1E1E1E" d="M109.273,301.514c-0.887,0-1.595-0.28-2.124-0.841s-0.794-1.304-0.794-2.229
			c0-1.008,0.275-1.795,0.826-2.361s1.295-0.85,2.232-0.85c0.895,0,1.593,0.275,2.095,0.826s0.753,1.314,0.753,2.291
			c0,0.957-0.271,1.724-0.812,2.3S110.184,301.514,109.273,301.514z M109.344,296.042c-0.617,0-1.105,0.21-1.465,0.63
			s-0.539,0.999-0.539,1.737c0,0.711,0.182,1.271,0.545,1.682s0.85,0.615,1.459,0.615c0.621,0,1.099-0.201,1.433-0.604
			s0.501-0.975,0.501-1.717c0-0.75-0.167-1.328-0.501-1.734S109.965,296.042,109.344,296.042z"/>
		<path fill="#1E1E1E" d="M116.926,296.346c-0.168-0.129-0.41-0.193-0.727-0.193c-0.41,0-0.753,0.193-1.028,0.58
			s-0.413,0.914-0.413,1.582v3.059h-0.961v-6h0.961v1.236h0.023c0.137-0.422,0.346-0.751,0.627-0.987s0.596-0.354,0.943-0.354
			c0.25,0,0.441,0.027,0.574,0.082V296.346z"/>
		<path fill="#1E1E1E" d="M122.264,301.374h-0.961v-0.938h-0.023c-0.418,0.719-1.033,1.078-1.846,1.078
			c-0.598,0-1.065-0.158-1.403-0.475s-0.507-0.736-0.507-1.26c0-1.121,0.66-1.773,1.98-1.957l1.799-0.252
			c0-1.02-0.412-1.529-1.236-1.529c-0.723,0-1.375,0.246-1.957,0.738v-0.984c0.59-0.375,1.27-0.562,2.039-0.562
			c1.41,0,2.115,0.746,2.115,2.238V301.374z M121.303,298.338l-1.447,0.199c-0.445,0.062-0.781,0.173-1.008,0.331
			s-0.34,0.438-0.34,0.841c0,0.293,0.104,0.532,0.313,0.718s0.487,0.278,0.835,0.278c0.477,0,0.87-0.167,1.181-0.501
			s0.466-0.757,0.466-1.269V298.338z"/>
		<path fill="#1E1E1E" d="M129.195,300.893c0,2.203-1.055,3.305-3.164,3.305c-0.742,0-1.391-0.141-1.945-0.422v-0.961
			c0.676,0.375,1.32,0.562,1.934,0.562c1.477,0,2.215-0.785,2.215-2.355v-0.656h-0.023c-0.457,0.766-1.145,1.148-2.062,1.148
			c-0.746,0-1.347-0.267-1.802-0.8s-0.683-1.249-0.683-2.147c0-1.02,0.245-1.83,0.735-2.432s1.161-0.902,2.013-0.902
			c0.809,0,1.408,0.324,1.799,0.973h0.023v-0.832h0.961V300.893z M128.234,298.661v-0.885c0-0.477-0.161-0.885-0.483-1.225
			s-0.724-0.51-1.204-0.51c-0.594,0-1.059,0.216-1.395,0.647s-0.504,1.036-0.504,1.813c0,0.668,0.161,1.202,0.483,1.603
			s0.749,0.601,1.28,0.601c0.539,0,0.978-0.191,1.315-0.574S128.234,299.258,128.234,298.661z"/>
		<path fill="#1E1E1E" d="M135.963,298.614h-4.236c0.016,0.668,0.195,1.184,0.539,1.547s0.816,0.545,1.418,0.545
			c0.676,0,1.297-0.223,1.863-0.668v0.902c-0.527,0.383-1.225,0.574-2.092,0.574c-0.848,0-1.514-0.272-1.998-0.817
			s-0.727-1.312-0.727-2.3c0-0.934,0.265-1.694,0.794-2.282s1.187-0.882,1.972-0.882s1.393,0.254,1.822,0.762
			s0.645,1.213,0.645,2.115V298.614z M134.979,297.799c-0.004-0.555-0.138-0.986-0.401-1.295s-0.63-0.463-1.099-0.463
			c-0.453,0-0.838,0.162-1.154,0.486s-0.512,0.748-0.586,1.271H134.979z"/>
	</g>
	<g>
		<path fill="#1E1E1E" d="M74.99,45.119l-2.373,8.402h-1.154l-1.729-6.141c-0.074-0.262-0.119-0.547-0.135-0.855h-0.023
			c-0.023,0.289-0.074,0.57-0.152,0.844l-1.74,6.152h-1.143l-2.461-8.402h1.084l1.787,6.445c0.074,0.27,0.121,0.551,0.141,0.844
			h0.029c0.02-0.207,0.08-0.488,0.182-0.844l1.857-6.445h0.943l1.781,6.492c0.062,0.223,0.109,0.484,0.141,0.785h0.023
			c0.016-0.203,0.068-0.473,0.158-0.809l1.717-6.469H74.99z"/>
		<path fill="#1E1E1E" d="M80.463,50.762h-4.236c0.016,0.668,0.195,1.184,0.539,1.547s0.816,0.545,1.418,0.545
			c0.676,0,1.297-0.223,1.863-0.668v0.902c-0.527,0.383-1.225,0.574-2.092,0.574c-0.848,0-1.514-0.272-1.998-0.817
			s-0.727-1.312-0.727-2.3c0-0.934,0.265-1.694,0.794-2.282s1.187-0.882,1.972-0.882s1.393,0.254,1.822,0.762
			s0.645,1.213,0.645,2.115V50.762z M79.479,49.947c-0.004-0.555-0.138-0.986-0.401-1.295s-0.63-0.463-1.099-0.463
			c-0.453,0-0.838,0.162-1.154,0.486s-0.512,0.748-0.586,1.271H79.479z"/>
		<path fill="#1E1E1E" d="M82.9,52.654h-0.023v0.867h-0.961v-8.883h0.961v3.938H82.9c0.473-0.797,1.164-1.195,2.074-1.195
			c0.77,0,1.372,0.269,1.808,0.806s0.653,1.257,0.653,2.159c0,1.004-0.244,1.808-0.732,2.411s-1.156,0.905-2.004,0.905
			C83.906,53.662,83.307,53.326,82.9,52.654z M82.877,50.234v0.838c0,0.496,0.161,0.917,0.483,1.263s0.731,0.519,1.228,0.519
			c0.582,0,1.038-0.223,1.368-0.668s0.495-1.064,0.495-1.857c0-0.668-0.154-1.191-0.463-1.57s-0.727-0.568-1.254-0.568
			c-0.559,0-1.008,0.194-1.348,0.583S82.877,49.648,82.877,50.234z"/>
		<path fill="#1E1E1E" d="M88.607,53.305v-1.031c0.523,0.387,1.1,0.58,1.729,0.58c0.844,0,1.266-0.281,1.266-0.844
			c0-0.16-0.036-0.296-0.108-0.407s-0.17-0.21-0.293-0.296s-0.268-0.163-0.434-0.231s-0.345-0.14-0.536-0.214
			c-0.266-0.105-0.499-0.212-0.7-0.319s-0.369-0.229-0.504-0.363s-0.236-0.288-0.305-0.46s-0.103-0.373-0.103-0.604
			c0-0.281,0.064-0.53,0.193-0.747s0.301-0.398,0.516-0.545s0.46-0.257,0.735-0.331s0.56-0.111,0.853-0.111
			c0.52,0,0.984,0.09,1.395,0.27v0.973c-0.441-0.289-0.949-0.434-1.523-0.434c-0.18,0-0.342,0.021-0.486,0.062
			s-0.269,0.099-0.372,0.173s-0.184,0.163-0.24,0.267s-0.085,0.218-0.085,0.343c0,0.156,0.028,0.287,0.085,0.393
			s0.14,0.199,0.249,0.281s0.242,0.156,0.398,0.223s0.334,0.139,0.533,0.217c0.266,0.102,0.504,0.206,0.715,0.313
			s0.391,0.229,0.539,0.363s0.263,0.29,0.343,0.466s0.12,0.385,0.12,0.627c0,0.297-0.065,0.555-0.196,0.773s-0.306,0.4-0.524,0.545
			s-0.471,0.252-0.756,0.322s-0.584,0.105-0.896,0.105C89.596,53.662,89.061,53.543,88.607,53.305z"/>
		<path fill="#1E1E1E" d="M94.555,45.998c-0.172,0-0.318-0.059-0.439-0.176s-0.182-0.266-0.182-0.445s0.061-0.329,0.182-0.448
			s0.268-0.179,0.439-0.179c0.176,0,0.325,0.06,0.448,0.179s0.185,0.269,0.185,0.448c0,0.172-0.062,0.318-0.185,0.439
			S94.73,45.998,94.555,45.998z M95.023,53.521h-0.961v-6h0.961V53.521z"/>
		<path fill="#1E1E1E" d="M99.752,53.463c-0.227,0.125-0.525,0.188-0.896,0.188c-1.051,0-1.576-0.586-1.576-1.758v-3.551h-1.031
			v-0.82h1.031v-1.465l0.961-0.311v1.775h1.512v0.82H98.24v3.381c0,0.402,0.068,0.689,0.205,0.861s0.363,0.258,0.68,0.258
			c0.242,0,0.451-0.066,0.627-0.199V53.463z"/>
		<path fill="#1E1E1E" d="M105.857,50.762h-4.236c0.016,0.668,0.195,1.184,0.539,1.547s0.816,0.545,1.418,0.545
			c0.676,0,1.297-0.223,1.863-0.668v0.902c-0.527,0.383-1.225,0.574-2.092,0.574c-0.848,0-1.514-0.272-1.998-0.817
			s-0.727-1.312-0.727-2.3c0-0.934,0.265-1.694,0.794-2.282s1.187-0.882,1.972-0.882s1.393,0.254,1.822,0.762
			s0.645,1.213,0.645,2.115V50.762z M104.873,49.947c-0.004-0.555-0.138-0.986-0.401-1.295s-0.63-0.463-1.099-0.463
			c-0.453,0-0.838,0.162-1.154,0.486s-0.512,0.748-0.586,1.271H104.873z"/>
	</g>
	<g>
	</g>
	<g>
	</g>
	<g>
	</g>
	<g>
	</g>
	<g>
	</g>
	<g>
	</g>
	<g>
	</g>
	<g>
	</g>
	<g>
	</g>
	<g>
	</g>
	<g>
	</g>
	<g>
	</g>
	<g>
	</g>
	<g>
	</g>
	<g>
	</g>
	<g>
	</g>
	<g>
	</g>
	<g>
	</g>
	<g>
	</g>
	<g>
	</g>
	<g>
	</g>
	<g>
	</g>
	<g>
	</g>
	<g>
	</g>
	<g>
	</g>
	<g>
	</g>
	<g>
	</g>
	<g>
	</g>
	<g>
	</g>
	<g>
	</g>
	<g>
	</g>
	<g>
	</g>
	<g>
	</g>
	<g>
	</g>
	<g>
	</g>
	<g>
	</g>
	<g>
	</g>
</g>
</svg>
