<svg width="2513" height="1253" xmlns="http://www.w3.org/2000/svg" xmlns:xlink="http://www.w3.org/1999/xlink" xml:space="preserve" overflow="hidden"><defs><filter id="fx0" x="-10%" y="-10%" width="120%" height="120%" filterUnits="userSpaceOnUse" primitiveUnits="userSpaceOnUse"><feComponentTransfer color-interpolation-filters="sRGB"><feFuncR type="discrete" tableValues="0 0"/><feFuncG type="discrete" tableValues="0 0"/><feFuncB type="discrete" tableValues="0 0"/><feFuncA type="linear" slope="0.4" intercept="0"/></feComponentTransfer><feGaussianBlur stdDeviation="6.11111 6.11111"/></filter><filter id="fx1" x="-10%" y="-10%" width="120%" height="120%" filterUnits="userSpaceOnUse" primitiveUnits="userSpaceOnUse"><feComponentTransfer color-interpolation-filters="sRGB"><feFuncR type="discrete" tableValues="0 0"/><feFuncG type="discrete" tableValues="0 0"/><feFuncB type="discrete" tableValues="0 0"/><feFuncA type="linear" slope="0.4" intercept="0"/></feComponentTransfer><feGaussianBlur stdDeviation="6.11111 6.11111"/></filter><clipPath id="clip2"><rect x="1253" y="456" width="2513" height="1253"/></clipPath><clipPath id="clip3"><rect x="2975" y="606" width="49" height="50"/></clipPath><clipPath id="clip4"><rect x="2975" y="606" width="49" height="50"/></clipPath><clipPath id="clip5"><rect x="2975" y="606" width="49" height="50"/></clipPath><clipPath id="clip6"><rect x="2262" y="642" width="55" height="50"/></clipPath><clipPath id="clip7"><rect x="2262" y="642" width="55" height="50"/></clipPath><clipPath id="clip8"><rect x="2262" y="642" width="55" height="50"/></clipPath><clipPath id="clip9"><rect x="28" y="25" width="234" height="138"/></clipPath></defs><g clip-path="url(#clip2)" transform="translate(-1253 -456)"><rect x="1253" y="456" width="2513" height="1253" fill="#FFFFFF"/><path d="M1269 544.335C1269 503.281 1302.28 470 1343.33 470L1714.67 470C1755.72 470 1789 503.281 1789 544.335L1789 841.665C1789 882.719 1755.72 916 1714.67 916L1343.33 916C1302.28 916 1269 882.719 1269 841.665Z" fill="#F2F2F2" fill-rule="evenodd"/><text font-family="Calibri,Calibri_MSFontService,sans-serif" font-weight="400" font-size="46" transform="matrix(1 0 0 1 1337.29 552)">Application platform</text><path d="M3386.26 788.289 3312.48 787.219 3312.52 783.781 3386.31 784.852ZM3381.9 772.755 3409.2 786.903 3381.5 800.252Z" fill="#7F7F7F"/><path d="M3409 749.167C3409 739.134 3417.13 731 3427.17 731L3729.83 731C3739.87 731 3748 739.134 3748 749.167L3748 821.833C3748 831.866 3739.87 840 3729.83 840L3427.17 840C3417.13 840 3409 831.866 3409 821.833Z" fill="#F2F2F2" fill-rule="evenodd"/><text font-family="Calibri,Calibri_MSFontService,sans-serif" font-weight="400" font-size="46" transform="matrix(1 0 0 1 3491.61 801)">Database</text><g><g><g><path d="M24.9999 14.2776C15.1665 14.2776 7.19429 11.4998 7.19429 7.83314L7.19429 42.1666C7.19429 45.6944 15.0277 48.5555 24.7499 48.611L24.9999 48.611C34.8333 48.611 42.8056 45.8333 42.8056 42.1666L42.8056 7.83314C42.8056 11.4165 34.8333 14.2776 24.9999 14.2776Z" fill="#A6A6A6" transform="matrix(1.12 0 0 1 3408 746)"/><path d="M42.8056 7.83334C42.8056 11.4167 34.8333 14.2778 24.9999 14.2778 15.1665 14.2778 7.19429 11.5 7.19429 7.83334 7.19429 4.16666 15.1665 1.38887 24.9999 1.38887 34.8333 1.38887 42.8056 4.16666 42.8056 7.83334Z" fill="#A6A6A6" transform="matrix(1.12 0 0 1 3408 746)"/><path d="M38.6669 7.30577C38.6669 9.58355 32.528 11.4169 25.0002 11.4169 17.4725 11.4169 11.3335 9.58355 11.3335 7.30577 11.3335 5.02798 17.4725 3.22242 25.0002 3.22242 32.528 3.22242 38.6669 5.05576 38.6669 7.30577Z" fill="#A6A6A6" transform="matrix(1.12 0 0 1 3408 746)"/><path d="M25.0005 8.33323C21.3347 8.23961 17.6799 8.77514 14.195 9.91657 17.6832 11.0368 21.339 11.5443 25.0005 11.4166 28.6694 11.524 32.3281 10.9785 35.8061 9.80547 32.3113 8.71682 28.6592 8.21924 25.0005 8.33323Z" fill="#A6A6A6" transform="matrix(1.12 0 0 1 3408 746)"/></g></g></g><path d="M2961 748.167C2961 738.134 2969.13 730 2979.17 730L3293.83 730C3303.87 730 3312 738.134 3312 748.167L3312 820.833C3312 830.866 3303.87 839 3293.83 839L2979.17 839C2969.13 839 2961 830.866 2961 820.833Z" fill="#F2F2F2" fill-rule="evenodd"/><text font-family="Calibri,Calibri_MSFontService,sans-serif" font-weight="400" font-size="46" transform="matrix(1 0 0 1 3080.16 800)">Cache</text><g><g><g><path d="M49.5 16.94C41.3967 16.94 34.8333 14.85 34.8333 12.2467L34.8333 37.1433C34.8333 39.6733 41.2867 41.7633 49.3167 41.8L49.5 41.8C57.6033 41.8 64.1667 39.71 64.1667 37.1433L64.1667 12.2467C64.1667 14.85 57.6033 16.94 49.5 16.94Z" fill="#A6A6A6" transform="matrix(1.18182 0 0 1 2970 737)"/><path d="M64.1667 12.2467C64.1667 14.85 57.6033 16.94 49.5 16.94 41.3967 16.94 34.8333 14.85 34.8333 12.2467 34.8333 9.64333 41.3967 7.59 49.5 7.59 57.6033 7.59 64.1667 9.68 64.1667 12.2467" fill="#A6A6A6" transform="matrix(1.18182 0 0 1 2970 737)"/><path d="M60.7567 11.88C60.7567 13.53 55.6967 14.85 49.5 14.85 43.3033 14.85 38.2433 13.53 38.2433 11.88 38.2433 10.23 43.3033 8.91 49.5 8.91 55.6967 8.91 60.7567 10.23 60.7567 11.88" fill="#A6A6A6" transform="matrix(1.18182 0 0 1 2970 737)"/><path d="M49.5 12.5767C46.493 12.519 43.4929 12.8894 40.59 13.6767 43.4797 14.5349 46.4867 14.9309 49.5 14.85 52.5133 14.9309 55.5203 14.5349 58.41 13.6767 55.5071 12.8894 52.507 12.519 49.5 12.5767Z" fill="#A6A6A6" transform="matrix(1.18182 0 0 1 2970 737)"/><path d="M16.5 16.94C8.39667 16.94 1.83333 14.85 1.83333 12.2467L1.83333 37.1433C1.83333 39.6733 8.28667 41.7633 16.5 41.8L16.5 41.8C24.6033 41.8 31.1667 39.71 31.1667 37.1433L31.1667 12.2467C31.1667 14.85 24.6033 16.94 16.5 16.94Z" fill="#A6A6A6" transform="matrix(1.18182 0 0 1 2970 737)"/><path d="M31.1667 12.2467C31.1667 14.85 24.6033 16.94 16.5 16.94 8.39667 16.94 1.83333 14.85 1.83333 12.2467 1.83333 9.64333 8.39667 7.59 16.5 7.59 24.6033 7.59 31.1667 9.68 31.1667 12.2467" fill="#A6A6A6" transform="matrix(1.18182 0 0 1 2970 737)"/><path d="M27.7567 11.88C27.7567 13.53 22.6967 14.85 16.5 14.85 10.3033 14.85 5.24333 13.53 5.24333 11.88 5.24333 10.23 10.3033 8.91 16.5 8.91 22.6967 8.91 27.7567 10.23 27.7567 11.88" fill="#A6A6A6" transform="matrix(1.18182 0 0 1 2970 737)"/><path d="M16.5 12.5767C13.4929 12.519 10.4928 12.8894 7.59 13.6767 10.4796 14.5349 13.4867 14.9309 16.5 14.85 19.5133 14.9309 22.5204 14.5349 25.41 13.6767 22.5072 12.8894 19.5071 12.519 16.5 12.5767Z" fill="#A6A6A6" transform="matrix(1.18182 0 0 1 2970 737)"/><path d="M33 33.55C24.8967 33.55 18.3333 31.46 18.3333 28.8567L18.3333 53.7533C18.3333 56.32 24.7867 58.3733 32.8167 58.41L33 58.41C41.1033 58.41 47.6667 56.32 47.6667 53.7533L47.6667 28.8567C47.6667 31.46 41.1033 33.55 33 33.55Z" fill="#A6A6A6" transform="matrix(1.18182 0 0 1 2970 737)"/><path d="M47.6667 28.8567C47.6667 31.46 41.1033 33.55 33 33.55 24.8967 33.55 18.3333 31.46 18.3333 28.8567 18.3333 26.2533 24.8967 24.2 33 24.2 41.1033 24.2 47.6667 26.29 47.6667 28.8567" fill="#A6A6A6" transform="matrix(1.18182 0 0 1 2970 737)"/><path d="M44.2567 28.49C44.2567 30.14 39.1967 31.46 33 31.46 26.8033 31.46 21.7433 30.14 21.7433 28.49 21.7433 26.84 26.8033 25.6667 33 25.6667 39.1967 25.6667 44.2567 26.9867 44.2567 28.6367" fill="#A6A6A6" transform="matrix(1.18182 0 0 1 2970 737)"/><path d="M33 29.3333C29.9929 29.2757 26.9928 29.6461 24.09 30.4333 26.9875 31.242 29.9945 31.5885 33 31.46 36.0133 31.5409 39.0203 31.1449 41.91 30.2867 39.0001 29.5488 36.0001 29.2278 33 29.3333Z" fill="#A6A6A6" transform="matrix(1.18182 0 0 1 2970 737)"/></g></g></g><path d="M1315.5 592.334C1315.5 582.484 1323.48 574.5 1333.33 574.5L1726.67 574.5C1736.52 574.5 1744.5 582.484 1744.5 592.334L1744.5 663.666C1744.5 673.515 1736.52 681.5 1726.67 681.5L1333.33 681.5C1323.48 681.5 1315.5 673.515 1315.5 663.666Z" stroke="#F2F2F2" stroke-width="3.4375" stroke-miterlimit="8" fill="#FFFFFF" fill-rule="evenodd"/><text font-family="Calibri,Calibri_MSFontService,sans-serif" font-weight="400" font-size="46" transform="matrix(1 0 0 1 1395.32 639)">Web app code</text><g><g><g><path d="M7.04924 24.4999 15.5399 19.8492 15.5399 14.9596 0.179942 23.5697 0.179942 25.7799 15.5399 33.4598 15.5399 28.6897 7.04924 24.4999Z" stroke="#F2F2F2" stroke-width="1.02078" transform="matrix(1.02041 0 0 1 1324 575)"/><path d="M16.2403 38.3498 21.1298 38.3498 32.4194 10.6593 27.5298 10.6593 16.2403 38.3498Z" stroke="#F2F2F2" stroke-width="1.02078" transform="matrix(1.02041 0 0 1 1324 575)"/><path d="M48.8195 23.4503 33.4596 14.8488 33.4596 19.8493 41.9502 24.4999 33.4596 28.5703 33.4596 33.4599 48.8195 25.7799 48.8195 23.4503Z" stroke="#F2F2F2" stroke-width="1.02078" transform="matrix(1.02041 0 0 1 1324 575)"/></g></g></g><path d="M2958 564.667C2958 552.148 2968.15 542 2980.67 542L3289.33 542C3301.85 542 3312 552.148 3312 564.667L3312 655.333C3312 667.852 3301.85 678 3289.33 678L2980.67 678C2968.15 678 2958 667.852 2958 655.333Z" fill="#F2F2F2" fill-rule="evenodd"/><text font-family="Calibri,Calibri_MSFontService,sans-serif" font-weight="400" font-size="46" transform="matrix(1 0 0 1 3024.51 598)">Other cloud </text><text font-family="Calibri,Calibri_MSFontService,sans-serif" font-weight="400" font-size="46" transform="matrix(1 0 0 1 3061.17 653)">services</text><g clip-path="url(#clip3)"><g clip-path="url(#clip4)"><g clip-path="url(#clip5)"><path d="M48.9998 28.7193C48.9116 23.2393 44.8669 18.6299 39.4448 17.8305 39.2369 10.1342 32.8506 4.05185 25.1532 4.21943 19.0703 4.15717 13.612 7.94521 11.5422 13.6655 4.96912 14.5229 0.0395948 20.1035-6.23065e-07 26.7321 0.207643 34.1496 6.38399 39.9969 13.8016 39.7987L14.9994 39.7987 37.3487 39.7987C37.548 39.8137 37.7484 39.8137 37.9476 39.7987 44.0192 39.6964 48.9124 34.7912 48.9998 28.7193Z" fill="#A6A6A6" transform="matrix(1 0 0 1.02041 2975 606)"/><path d="M16.1972 26.2693C16.1972 27.3368 15.3318 28.2021 14.2644 28.2021 13.1969 28.2021 12.3316 27.3368 12.3316 26.2693 12.3316 25.2019 13.1969 24.3366 14.2644 24.3366 15.3318 24.3366 16.1972 25.2019 16.1972 26.2693Z" fill="#A6A6A6" transform="matrix(1 0 0 1.02041 2975 606)"/><path d="M21.0699 27.0043 21.0699 25.4527 20.8521 25.4527 19.1916 24.9082 18.756 23.8466 19.5999 22.0499 18.511 20.961 18.2933 20.961 16.7416 21.7777 15.6799 21.3421 14.9994 19.4638 13.4477 19.4638 13.4477 19.6816 12.9033 21.3421 11.76 21.7777 9.99052 20.9338 8.90163 22.0227 8.90163 22.2405 9.69107 23.7921 9.25552 24.8538 7.34997 25.5343 7.34997 27.2221 7.56775 27.2221 9.2283 27.7666 9.66385 28.8282 8.81996 30.6249 9.90885 31.7138 10.1266 31.7138 11.6783 30.9243 12.7399 31.3599 13.4205 33.2382 14.9722 33.2382 14.9722 33.0204 15.5166 31.3599 16.5783 30.9243 18.3749 31.7682 19.4638 30.6793 19.4638 30.4615 18.6744 28.9099 19.1099 27.8482ZM14.2644 29.2638C12.6106 29.2638 11.27 27.9231 11.27 26.2693 11.27 24.6156 12.6106 23.2749 14.2644 23.2749 15.9182 23.2749 17.2588 24.6156 17.2588 26.2693 17.2739 27.9081 15.9578 29.2488 14.3191 29.2638 14.3009 29.264 14.2826 29.264 14.2644 29.2638Z" fill="#A6A6A6" transform="matrix(1 0 0 1.02041 2975 606)"/><path d="M29.5088 17.9394C29.5088 19.2023 28.485 20.226 27.2221 20.226 25.9592 20.226 24.9355 19.2023 24.9355 17.9394 24.9355 16.6765 25.9592 15.6527 27.2221 15.6527 28.485 15.6527 29.5088 16.6765 29.5088 17.9394Z" fill="#A6A6A6" transform="matrix(1 0 0 1.02041 2975 606)"/><path d="M35.3887 18.8105 35.3887 16.9594 35.1437 16.9594 33.1293 16.3333 32.6665 14.9449 33.6738 12.7672 32.3671 11.4605 32.1221 11.4605 30.2438 12.4133 28.9916 11.8961 28.1749 9.63663 26.2421 9.63663 26.2421 9.90885 25.5888 11.8961 24.3093 12.4133 22.186 11.4061 20.8794 12.7127 21.0155 12.9577 21.7777 14.9722 21.3421 16.3333 19.0555 17.0683 19.0555 19.0555 19.3277 19.0555 21.3149 19.7088 21.7777 20.9338 20.7705 23.1116 22.1316 24.4999 22.4038 24.3638 24.2549 23.411 25.5343 23.9282 26.351 26.1877 28.2021 26.1877 28.2021 25.9155 28.8554 23.9282 30.1349 23.411 32.2854 24.4182 33.5921 23.1116 33.456 22.8666 32.6665 20.9066 33.1838 19.6271ZM27.2221 21.5327C25.2376 21.5327 23.6288 19.9239 23.6288 17.9394 23.6288 15.9548 25.2376 14.3461 27.2221 14.3461 29.2066 14.3461 30.8154 15.9548 30.8154 17.9394 30.8304 19.9088 29.2461 21.5176 27.2768 21.5327 27.2586 21.5328 27.2404 21.5328 27.2221 21.5327Z" fill="#A6A6A6" transform="matrix(1 0 0 1.02041 2975 606)"/></g></g></g><g><g><g><path d="M1283.16 522.462C1279.58 526.429 1277.3 531.591 1277 537.283L1282.13 537.283C1282.42 533.006 1284.12 529.115 1286.77 526.075L1283.16 522.462Z" fill="#7F7F7F"/><path d="M1284.97 556.458C1288.94 560.011 1294.1 562.268 1299.78 562.546L1299.78 557.51C1295.5 557.224 1291.61 555.515 1288.57 552.854L1284.97 556.458Z" fill="#7F7F7F"/><path d="M1277 539.818C1277.29 545.51 1279.57 550.673 1283.14 554.639L1286.75 551.026C1284.11 547.986 1282.42 544.096 1282.13 539.818L1277 539.818Z" fill="#7F7F7F"/><path d="M1318.84 522.556 1315.35 526.051C1318.02 529.091 1319.72 532.99 1320 537.285L1324.92 537.285C1324.62 531.634 1322.38 526.505 1318.84 522.556Z" fill="#7F7F7F"/><path d="M1302.31 514.587 1302.31 519.606C1306.6 519.884 1310.49 521.577 1313.54 524.229L1317.04 520.726C1313.09 517.173 1307.96 514.899 1302.31 514.587Z" fill="#7F7F7F"/><path d="M1299.78 514.579C1294.1 514.857 1288.95 517.106 1284.98 520.651L1288.58 524.255C1291.61 521.603 1295.5 519.902 1299.77 519.607L1299.77 514.579 1299.78 514.579Z" fill="#7F7F7F"/><path d="M1313.79 540.299C1313.8 540.24 1313.82 540.181 1313.83 540.131 1313.89 539.777 1313.93 539.415 1313.93 539.044 1313.93 535.853 1311.34 533.267 1308.15 533.267 1307.71 533.267 1307.28 533.318 1306.87 533.419 1305.54 531.339 1303.23 529.966 1300.59 529.966 1296.49 529.966 1293.17 533.293 1293.17 537.394 1293.17 537.495 1293.17 537.596 1293.17 537.697 1292.8 537.571 1292.4 537.503 1291.98 537.503 1289.96 537.503 1288.33 539.137 1288.33 541.158 1288.33 543.053 1289.77 544.611 1291.62 544.796L1308.15 544.829C1310.32 544.829 1312.21 543.634 1313.2 541.865 1313.23 541.815 1313.26 541.764 1313.29 541.714 1313.44 541.394 1313.66 540.914 1313.79 540.299Z" fill="#7F7F7F"/><path d="M1324.92 539.818 1320 539.818C1319.93 540.972 1319.75 542.092 1319.48 543.178 1320.41 544.105 1320.91 545.343 1320.9 546.648 1320.9 548.568 1319.79 550.277 1318.12 551.086L1318.12 551.279 1321.31 551.279C1323.41 547.928 1324.71 544.021 1324.92 539.818Z" fill="#7F7F7F"/><path d="M1306.07 558.371 1306.07 556.889C1304.85 557.217 1303.6 557.428 1302.3 557.512L1302.3 562.531C1305.36 562.362 1308.26 561.621 1310.91 560.409L1308.11 560.409C1306.98 560.409 1306.07 559.499 1306.07 558.371Z" fill="#7F7F7F"/><path d="M1324.19 552.541 1317.48 552.541 1317.48 558.343 1314.5 558.343 1314.5 556.929 1312.77 556.929 1312.77 554.006 1314.5 554.006 1314.5 552.533 1308.11 552.533C1307.67 552.533 1307.33 552.878 1307.33 553.316L1307.33 558.369C1307.33 558.798 1307.67 559.152 1308.11 559.152L1311.13 559.152 1324.19 559.152C1324.63 559.152 1324.98 558.806 1324.98 558.369L1324.98 553.316C1324.98 552.886 1324.63 552.541 1324.19 552.541ZM1319.33 554.924 1318.27 554.924 1318.27 553.863 1319.33 553.863 1319.33 554.924ZM1321.45 554.924 1320.39 554.924 1320.39 553.863 1321.45 553.863 1321.45 554.924ZM1323.57 554.924 1322.51 554.924 1322.51 553.863 1323.57 553.863 1323.57 554.924Z" fill="#7F7F7F"/><path d="M1315.98 542.982C1313.95 542.982 1312.31 544.625 1312.31 546.646 1312.31 548.363 1313.5 549.803 1315.1 550.199L1315.1 554.57 1313.34 554.57 1313.34 556.33 1315.1 556.33 1315.1 557.745 1316.85 557.745 1316.85 550.199C1318.45 549.803 1319.64 548.372 1319.64 546.646 1319.65 544.625 1318.01 542.982 1315.98 542.982ZM1315.98 548.566C1314.92 548.566 1314.05 547.707 1314.05 546.646 1314.05 545.584 1314.91 544.726 1315.98 544.726 1317.05 544.726 1317.91 545.584 1317.91 546.646 1317.91 547.707 1317.04 548.566 1315.98 548.566Z" fill="#7F7F7F"/></g></g></g><path d="M2249 646.334C2249 633.999 2259 624 2271.33 624L2534.67 624C2547 624 2557 633.999 2557 646.334L2557 735.666C2557 748.001 2547 758 2534.67 758L2271.33 758C2259 758 2249 748.001 2249 735.666Z" fill="#F2F2F2" fill-rule="evenodd"/><text font-family="Calibri,Calibri_MSFontService,sans-serif" font-weight="400" font-size="46" transform="matrix(1 0 0 1 2337.57 679)">Private </text><text font-family="Calibri,Calibri_MSFontService,sans-serif" font-weight="400" font-size="46" transform="matrix(1 0 0 1 2309.5 734)">endpoints</text><g clip-path="url(#clip6)"><g clip-path="url(#clip7)"><g clip-path="url(#clip8)"><path d="M21.8055 37.061C23.6774 38.9596 26.7341 38.9815 28.6327 37.1096 30.5316 35.2377 30.5532 32.181 28.6813 30.2821 28.6455 30.246 28.6091 30.2102 28.5721 30.1749 28.0777 29.693 27.4843 29.3243 26.8332 29.0943L26.8332 8.35831 23.7444 8.35831 23.7444 29.036C21.2085 29.8138 19.7832 32.5002 20.561 35.036 20.7972 35.806 21.2232 36.5043 21.7999 37.0665Z" fill="#A6A6A6" transform="matrix(1.08 0 0 1 2263 642)"/><path d="M30.061 6.13609C30.061 8.80239 27.8995 10.9639 25.2332 10.9639 22.5669 10.9639 20.4055 8.80239 20.4055 6.13609 20.4055 3.46979 22.567 1.30833 25.2332 1.30833 27.8995 1.30833 30.061 3.46979 30.061 6.13609Z" fill="#A6A6A6" transform="matrix(1.08 0 0 1 2263 642)"/><path d="M7.58751 30.1223 10.2887 30.1223C10.7663 30.1223 11.1535 30.5094 11.1535 30.9871L11.1535 50.9043C11.1535 51.8597 10.3791 52.634 9.42384 52.634L6.72267 52.634 6.72267 52.634 6.72267 30.9871C6.72267 30.5094 7.10986 30.1223 7.58751 30.1223Z" fill="#A6A6A6" transform="matrix(-0.734814 0.682309 -0.736896 -0.680382 2309.36 703.922)"/><path d="M7.43887 17.561 10.1395 17.561C10.617 17.561 11.0041 17.9481 11.0041 18.4257L11.0041 39.7537 11.0041 39.7537 8.30064 39.7537C7.34557 39.7537 6.57134 38.9795 6.57134 38.0244L6.57134 18.4257C6.57134 17.9481 6.95844 17.561 7.43599 17.561 7.43694 17.561 7.43792 17.561 7.43887 17.561Z" fill="#A6A6A6" transform="matrix(0.737056 0.68053 -0.734974 0.682457 2286.73 644.081)"/><path d="M40.7396 30.1223 43.4408 30.1223C44.3961 30.1223 45.1705 30.8966 45.1705 31.852L45.1705 51.7692C45.1705 52.2468 44.7833 52.634 44.3056 52.634L41.6044 52.634C41.1268 52.634 40.7396 52.2468 40.7396 51.7692L40.7396 30.1223 40.7396 30.1223Z" fill="#A6A6A6" transform="matrix(0.734814 0.682309 -0.736896 0.680382 2306.63 624.409)"/><path d="M42.6042 17.561 45.3048 17.561 45.3048 17.561 45.3048 38.8891C45.3048 39.3666 44.9177 39.7537 44.4401 39.7537L41.7395 39.7537C41.2619 39.7537 40.8749 39.3666 40.8749 38.8891L40.8749 19.2903C40.8749 18.3353 41.649 17.561 42.6042 17.561Z" fill="#A6A6A6" transform="matrix(-0.737056 0.68053 -0.734974 -0.682457 2360.67 659.845)"/><path d="M30.0082 33.6277C30.0082 36.294 27.8468 38.4554 25.1805 38.4554 22.5142 38.4554 20.3527 36.294 20.3527 33.6277 20.3527 30.9614 22.5142 28.7999 25.1805 28.7999 27.8468 28.7999 30.0082 30.9614 30.0082 33.6277Z" fill="#A6A6A6" transform="matrix(1.08 0 0 1 2263 642)"/></g></g></g><path d="M0-1.71875 319.121-1.71875 319.121 1029.16 257.818 1029.16 257.818 1025.73 317.402 1025.73 315.683 1027.45 315.683 0 317.402 1.71875 0 1.71875ZM262.402 1041.2 234.902 1027.45 262.402 1013.7Z" transform="matrix(-1.83697e-16 -1 -1 1.83697e-16 3429.95 1326.4)"/><path d="M1356 1345C1356 1332.85 1365.85 1323 1378 1323L1683 1323C1695.15 1323 1705 1332.85 1705 1345L1705 1433C1705 1445.15 1695.15 1455 1683 1455L1378 1455C1365.85 1455 1356 1445.15 1356 1433Z" fill="#F2F2F2" fill-rule="evenodd"/><text font-family="Calibri,Calibri_MSFontService,sans-serif" font-weight="400" font-size="46" transform="matrix(1 0 0 1 1448.57 1377)">Message </text><text font-family="Calibri,Calibri_MSFontService,sans-serif" font-weight="400" font-size="46" transform="matrix(1 0 0 1 1471.49 1432)">queue</text><g><g><g><path d="M2.8125 2.65909 42.1875 2.65909 42.1875 21.1067 22.5 11.8205 2.8125 21.1067 2.8125 2.65909ZM3.14209 23.9318 22.5 14.7704 41.858 23.9318 3.14209 23.9318ZM45 0 0 0 0 26.5909 45 26.5909 45 0Z" stroke="#7F7F7F" stroke-width="2.04546" fill="#7F7F7F" transform="matrix(1 -1.61193e-16 -1.22465e-16 -1.31624 1371 1374)"/></g></g></g><path d="M2083 1191.5C2083 1136 2128 1091 2183.5 1091L2619.5 1091C2675 1091 2720 1136 2720 1191.5L2720 1593.5C2720 1649 2675 1694 2619.5 1694L2183.5 1694C2128 1694 2083 1649 2083 1593.5Z" fill="#F2F2F2" fill-rule="evenodd"/><text font-family="Calibri,Calibri_MSFontService,sans-serif" font-weight="400" font-size="46" transform="matrix(1 0 0 1 2223.84 1164)">Container </text><text font-family="Calibri,Calibri_MSFontService,sans-serif" font-weight="400" font-size="46" transform="matrix(1 0 0 1 2417.49 1164)">platform</text><path d="M1.71874-0.00591288 2.78537 310.04-0.652106 310.052-1.71874 0.00591288ZM14.8008 305.416 1.14547 332.963-12.6991 305.51Z" transform="matrix(1 0 0 -1 2402.5 1091.46)"/><path d="M0.011456-1.71871 45.5331-1.41529 45.5102 2.02213-0.011456 1.71871ZM41.0301-13.4768 68.4378 0.456168 40.8468 14.0226Z" transform="matrix(1 0 0 -1 2720.5 1392.96)"/><path d="M1532.22 681.498 1533.02 1300.85 1529.58 1300.86 1528.78 681.502ZM1545.04 1296.25 1531.33 1323.77 1517.54 1296.29Z"/><g><g><g><path d="M46.0403 13.7093 46.0403 37.4857 25.3169 49.4503 25.3169 25.6741 46.0403 13.7093Z" fill="#7F7F7F" transform="matrix(1.00042 0 0 1 2132 1119)"/><path d="M24.4175 0.498248 3.82655 12.3864 3.85091 12.4004 24.5499 24.3511 28.1668 22.2624 45.1131 12.4804 45.1166 12.4769 45.141 12.463 24.4175 0.498248Z" fill="#7F7F7F" transform="matrix(1.00042 0 0 1 2132 1119)"/><path d="M23.7846 25.6741 23.7846 49.4503 3.06124 37.4856 3.06124 13.7128 23.7846 25.6741Z" fill="#7F7F7F" transform="matrix(1.00042 0 0 1 2132 1119)"/><path d="M46.0394 13.7093 46.0394 13.7128 25.316 25.674 46.0394 13.7093Z" fill="#7F7F7F" transform="matrix(1.00042 0 0 1 2132 1119)"/><path d="M45.1132 12.4771 28.1669 22.2626 45.1132 12.4771Z" fill="#7F7F7F" transform="matrix(1.00042 0 0 1 2132 1119)"/><path d="M24.4285 0.477309 24.4146 0.470347 3.80263 12.3689 3.827 12.3829 3.85137 12.3968 24.4146 0.526045 45.1135 12.4769 45.1379 12.4629 45.1623 12.449 24.4285 0.477309Z" fill="#7F7F7F" transform="matrix(1.00042 0 0 1 2132 1119)"/><path d="M39.7986 24.4271 39.7986 41.0392 25.3169 49.3974 25.3169 32.7889 39.7986 24.4271Z" fill="#7F7F7F" transform="matrix(1.00042 0 0 1 2132 1119)"/><path d="M38.9338 23.1567 24.5498 31.4628 10.0716 23.101 24.4558 14.7984 38.9338 23.1567Z" fill="#7F7F7F" transform="matrix(1.00042 0 0 1 2132 1119)"/><path d="M23.7845 32.7894 23.7845 49.398 9.30628 41.0397 9.30628 24.4311 23.7845 32.7894Z" fill="#7F7F7F" transform="matrix(1.00042 0 0 1 2132 1119)"/><path d="M39.7976 24.4276 39.7976 24.4311 25.316 32.7893 39.7976 24.4276Z" fill="#7F7F7F" transform="matrix(1.00042 0 0 1 2132 1119)"/><path d="M38.9338 23.1566 24.5497 31.4626 38.9338 23.1566Z" fill="#7F7F7F" transform="matrix(1.00042 0 0 1 2132 1119)"/><path d="M24.7112 5.3198 18.4452 8.93673 18.4521 8.9402 22.6608 8.95066 22.6608 11.5789 26.8383 11.5789 26.8383 8.9576 31.0087 8.96459 31.0122 8.96459 31.0191 8.96107 24.7112 5.3198Z" fill="#7F7F7F" transform="matrix(1.00042 0 0 1 2132 1119)"/></g></g></g><g filter="url(#fx0)" transform="translate(3244 1316)"><g><path d="M19.7227 41.723C19.7227 29.5725 29.5726 19.7225 41.7231 19.7225L348.722 19.7225C360.873 19.7225 370.723 29.5725 370.723 41.723L370.723 129.722C370.723 141.873 360.873 151.723 348.722 151.723L41.7231 151.723C29.5726 151.723 19.7227 141.873 19.7227 129.722Z" fill="#F2F2F2" fill-rule="evenodd"/></g></g><g clip-path="url(#clip9)" filter="url(#fx1)" transform="translate(3296 1313)"><g><path d="M23.2695-4.11035C23.2695-3.87077 23.262-3.66113 23.2471-3.48145 23.2321-3.30176 23.2059-3.14453 23.1685-3.00977 23.131-2.875 23.0824-2.75521 23.0225-2.65039 22.9626-2.54557 22.8577-2.41829 22.708-2.26855 22.5583-2.11881 22.2438-1.89046 21.7646-1.5835 21.2855-1.27653 20.6903-0.977051 19.979-0.685059 19.2677-0.393066 18.4517-0.145996 17.5308 0.0561523 16.6099 0.258301 15.6029 0.359375 14.5098 0.359375 12.623 0.359375 10.9198 0.0449219 9.3999-0.583984 7.88004-1.21289 6.5848-2.14128 5.51416-3.36914 4.44352-4.597 3.61995-6.11312 3.04346-7.91748 2.46696-9.72184 2.17871-11.7995 2.17871-14.1504 2.17871-16.5612 2.48942-18.71 3.11084-20.5967 3.73226-22.4834 4.60449-24.0819 5.72754-25.3921 6.85059-26.7023 8.1945-27.7018 9.75928-28.3906 11.3241-29.0794 13.0573-29.4238 14.959-29.4238 15.7975-29.4238 16.6136-29.3452 17.4072-29.188 18.2008-29.0308 18.9346-28.8324 19.6084-28.5928 20.2822-28.3532 20.8812-28.0762 21.4053-27.7617 21.9294-27.4473 22.2925-27.189 22.4946-26.9868 22.6968-26.7847 22.8278-26.6312 22.8877-26.5264 22.9476-26.4215 22.9963-26.298 23.0337-26.1558 23.0711-26.0135 23.1011-25.8451 23.1235-25.6504 23.146-25.4557 23.1572-25.2236 23.1572-24.9541 23.1572-24.6546 23.1422-24.4001 23.1121-24.1904 23.0821-23.9808 23.0369-23.8048 22.9767-23.6626 22.9164-23.5203 22.8449-23.4155 22.7621-23.3481 22.6792-23.2808 22.5776-23.2471 22.4571-23.2471 22.2465-23.2471 21.953-23.3931 21.5765-23.6851 21.2001-23.977 20.7145-24.299 20.1199-24.6509 19.5253-25.0028 18.8027-25.3247 17.9523-25.6167 17.1018-25.9087 16.0819-26.0547 14.8927-26.0547 13.5979-26.0547 12.4198-25.7964 11.3586-25.2798 10.2973-24.7632 9.39031-24.0033 8.63763-23 7.88496-21.9967 7.30162-20.7726 6.88761-19.3276 6.4736-17.8826 6.2666-16.2318 6.2666-14.375 6.2666-12.5332 6.46606-10.9048 6.86497-9.48975 7.26389-8.07471 7.83594-6.89176 8.58113-5.94092 9.32632-4.99007 10.2408-4.27132 11.3247-3.78467 12.4086-3.29801 13.6354-3.05469 15.0053-3.05469 16.1644-3.05469 17.1767-3.19694 18.0423-3.48145 18.9078-3.76595 19.6454-4.08415 20.255-4.43603 20.8646-4.78792 21.3651-5.10612 21.7566-5.39062 22.148-5.67513 22.4566-5.81738 22.6824-5.81738 22.7879-5.81738 22.8783-5.79492 22.9535-5.75 23.0287-5.70508 23.0889-5.61898 23.1341-5.4917 23.1792-5.36442 23.2131-5.18848 23.2357-4.96387 23.2582-4.73926 23.2695-4.45475 23.2695-4.11035ZM46.8717-10.8936C46.8717-9.24642 46.6546-7.7303 46.2204-6.34521 45.7861-4.96012 45.1385-3.76595 44.2775-2.7627 43.4165-1.75944 42.3384-0.977051 41.0431-0.415527 39.7479 0.145996 38.2467 0.426758 36.5397 0.426758 34.8776 0.426758 33.4289 0.179687 32.1935-0.314453 30.9582-0.808594 29.9287-1.52734 29.1051-2.4707 28.2816-3.41406 27.6676-4.55957 27.2633-5.90723 26.859-7.25488 26.6569-8.78223 26.6569-10.4893 26.6569-12.1364 26.8703-13.6525 27.297-15.0376 27.7238-16.4227 28.3677-17.6169 29.2287-18.6201 30.0897-19.6234 31.1641-20.402 32.4518-20.9561 33.7396-21.5101 35.2445-21.7871 36.9665-21.7871 38.6286-21.7871 40.0773-21.54 41.3127-21.0459 42.548-20.5518 43.5775-19.833 44.401-18.8896 45.2246-17.9463 45.8423-16.8008 46.2541-15.4531 46.6658-14.1055 46.8717-12.5856 46.8717-10.8936ZM43.0309-10.6465C43.0309-11.7396 42.9289-12.7728 42.7249-13.7461 42.5209-14.7194 42.1847-15.5729 41.7163-16.3066 41.2478-17.0404 40.6133-17.6206 39.8125-18.0474 39.0118-18.4741 38.0145-18.6875 36.8208-18.6875 35.7179-18.6875 34.7698-18.4928 33.9765-18.1035 33.1833-17.7142 32.5298-17.1639 32.0161-16.4526 31.5024-15.7414 31.121-14.8991 30.8717-13.9258 30.6224-12.9525 30.4977-11.8893 30.4977-10.7363 30.4977-9.62825 30.5997-8.58756 30.8038-7.61426 31.0078-6.64095 31.3477-5.79118 31.8236-5.06494 32.2995-4.3387 32.9378-3.76221 33.7386-3.33545 34.5393-2.90869 35.5366-2.69531 36.7303-2.69531 37.8182-2.69531 38.7626-2.88997 39.5633-3.2793 40.3641-3.66862 41.0213-4.21517 41.535-4.91894 42.0487-5.62272 42.4264-6.46126 42.6682-7.43457 42.91-8.40788 43.0309-9.47851 43.0309-10.6465ZM69.5417-0.561523C69.5417-0.441732 69.5117-0.340658 69.4518-0.258301 69.3919-0.175944 69.2946-0.104818 69.1598-0.0449219 69.0251 0.014974 68.8379 0.0598958 68.5983 0.0898437 68.3587 0.119792 68.0592 0.134766 67.6999 0.134766 67.3255 0.134766 67.0185 0.119792 66.779 0.0898437 66.5394 0.0598958 66.3522 0.014974 66.2174-0.0449219 66.0827-0.104818 65.9854-0.175944 65.9255-0.258301 65.8656-0.340658 65.8356-0.441732 65.8356-0.561523L65.8356-12.3984C65.8356-13.5514 65.7458-14.4798 65.5661-15.1836 65.3864-15.8874 65.1243-16.4938 64.7799-17.0029 64.4355-17.512 63.9901-17.9014 63.4435-18.1709 62.897-18.4404 62.2643-18.5752 61.5456-18.5752 60.6172-18.5752 59.6888-18.2458 58.7604-17.5869 57.832-16.9281 56.8587-15.9622 55.8405-14.6895L55.8405-0.561523C55.8405-0.441732 55.8105-0.340658 55.7506-0.258301 55.6908-0.175944 55.5934-0.104818 55.4587-0.0449219 55.3239 0.014974 55.1367 0.0598958 54.8971 0.0898437 54.6575 0.119792 54.3506 0.134766 53.9762 0.134766 53.6169 0.134766 53.3174 0.119792 53.0778 0.0898437 52.8382 0.0598958 52.6473 0.014974 52.505-0.0449219 52.3628-0.104818 52.2655-0.175944 52.2131-0.258301 52.1606-0.340658 52.1344-0.441732 52.1344-0.561523L52.1344-20.7764C52.1344-20.8962 52.1569-20.9972 52.2018-21.0796 52.2467-21.1619 52.3366-21.2368 52.4714-21.3042 52.6061-21.3716 52.7783-21.4165 52.988-21.439 53.1976-21.4614 53.4746-21.4727 53.819-21.4727 54.1484-21.4727 54.4217-21.4614 54.6388-21.439 54.856-21.4165 55.0244-21.3716 55.1442-21.3042 55.264-21.2368 55.3501-21.1619 55.4025-21.0796 55.4549-20.9972 55.4811-20.8962 55.4811-20.7764L55.4811-18.1035C56.6191-19.3763 57.7534-20.3084 58.8839-20.8999 60.0145-21.4914 61.1562-21.7871 62.3092-21.7871 63.6569-21.7871 64.7912-21.5588 65.7121-21.102 66.633-20.6453 67.3779-20.0352 67.9469-19.2715 68.5159-18.5078 68.924-17.6131 69.1711-16.5874 69.4181-15.5617 69.5417-14.3301 69.5417-12.8926ZM86.7087-2.04395C86.7086-1.6097 86.6787-1.2653 86.6188-1.01074 86.5589-0.756185 86.4691-0.56901 86.3493-0.449219 86.2295-0.329427 86.0498-0.217122 85.8102-0.112305 85.5706-0.00748698 85.2974 0.0786133 84.9904 0.145996 84.6834 0.213379 84.3577 0.269531 84.0133 0.314453 83.6689 0.359375 83.3245 0.381836 82.9801 0.381836 81.932 0.381836 81.0335 0.243327 80.2848-0.0336914 79.5361-0.31071 78.9222-0.72998 78.443-1.2915 77.9639-1.85303 77.6157-2.56429 77.3986-3.42529 77.1815-4.28629 77.0729-5.30078 77.0729-6.46875L77.0729-18.2832 74.2428-18.2832C74.0182-18.2832 73.8385-18.403 73.7038-18.6426 73.569-18.8822 73.5016-19.2715 73.5016-19.8105 73.5016-20.095 73.5203-20.3346 73.5578-20.5293 73.5952-20.724 73.6439-20.8849 73.7038-21.0122 73.7637-21.1395 73.8423-21.2293 73.9396-21.2817 74.0369-21.3341 74.1455-21.3603 74.2653-21.3603L77.0729-21.3603 77.0729-26.167C77.0729-26.2718 77.0991-26.3691 77.1515-26.459 77.2039-26.5488 77.3013-26.6274 77.4435-26.6948 77.5858-26.7622 77.7767-26.8109 78.0163-26.8408 78.2559-26.8708 78.5553-26.8857 78.9147-26.8857 79.2891-26.8857 79.596-26.8708 79.8356-26.8408 80.0752-26.8109 80.2624-26.7622 80.3971-26.6948 80.5319-26.6274 80.6292-26.5488 80.6891-26.459 80.749-26.3691 80.779-26.2718 80.779-26.167L80.779-21.3603 85.9674-21.3603C86.0872-21.3603 86.1921-21.3341 86.2819-21.2817 86.3717-21.2293 86.4504-21.1395 86.5177-21.0122 86.5851-20.8849 86.6338-20.724 86.6637-20.5293 86.6937-20.3346 86.7086-20.095 86.7087-19.8105 86.7086-19.2715 86.6413-18.8822 86.5065-18.6426 86.3717-18.403 86.192-18.2832 85.9674-18.2832L80.779-18.2832 80.779-7.00781C80.779-5.61523 80.9849-4.56331 81.3966-3.85205 81.8084-3.14079 82.5459-2.78516 83.609-2.78516 83.9534-2.78516 84.2604-2.81885 84.5299-2.88623 84.7995-2.95361 85.0391-3.02474 85.2487-3.09961 85.4583-3.17448 85.638-3.2456 85.7878-3.31299 85.9375-3.38037 86.0723-3.41406 86.1921-3.41406 86.2669-3.41406 86.338-3.39534 86.4054-3.35791 86.4728-3.32048 86.5252-3.24935 86.5627-3.14453 86.6001-3.03971 86.6338-2.89746 86.6637-2.71777 86.6937-2.53809 86.7086-2.31348 86.7087-2.04395ZM106.894-0.539062C106.894-0.359375 106.834-0.224609 106.715-0.134766 106.595-0.0449219 106.43 0.0224609 106.22 0.0673828 106.011 0.112305 105.704 0.134766 105.299 0.134766 104.91 0.134766 104.599 0.112305 104.367 0.0673828 104.135 0.0224609 103.967-0.0449219 103.862-0.134766 103.757-0.224609 103.705-0.359375 103.705-0.539062L103.705-2.56055C102.821-1.61719 101.837-0.883463 100.751-0.359375 99.6655 0.164714 98.5163 0.426758 97.3034 0.426758 96.2402 0.426758 95.2782 0.288249 94.4172 0.0112305 93.5562-0.265788 92.8224-0.666341 92.216-1.19043 91.6095-1.71452 91.1379-2.3584 90.8009-3.12207 90.464-3.88574 90.2956-4.75423 90.2956-5.72754 90.2956-6.86556 90.5277-7.85384 90.9919-8.69238 91.456-9.53092 92.1224-10.2272 92.9909-10.7812 93.8594-11.3353 94.9225-11.7508 96.1803-12.0278 97.4381-12.3048 98.8532-12.4434 100.425-12.4434L103.211-12.4434 103.211-14.0156C103.211-14.7943 103.128-15.4831 102.964-16.082 102.799-16.681 102.533-17.1789 102.166-17.5757 101.799-17.9725 101.324-18.272 100.74-18.4741 100.156-18.6763 99.4372-18.7773 98.5837-18.7773 97.6702-18.7773 96.8504-18.6688 96.1242-18.4517 95.3979-18.2345 94.7616-17.995 94.215-17.7329 93.6685-17.4709 93.2117-17.2313 92.8449-17.0142 92.478-16.797 92.2047-16.6885 92.0251-16.6885 91.9053-16.6885 91.8005-16.7184 91.7106-16.7783 91.6208-16.8382 91.5422-16.9281 91.4748-17.0478 91.4074-17.1676 91.3587-17.3211 91.3288-17.5083 91.2988-17.6955 91.2838-17.9014 91.2839-18.126 91.2838-18.5003 91.3101-18.7961 91.3625-19.0132 91.4149-19.2303 91.5422-19.4362 91.7443-19.6309 91.9464-19.8255 92.2946-20.0539 92.7887-20.3159 93.2829-20.578 93.8519-20.8175 94.4958-21.0347 95.1396-21.2518 95.8434-21.4315 96.6071-21.5737 97.3708-21.716 98.1419-21.7871 98.9206-21.7871 100.373-21.7871 101.608-21.6224 102.627-21.293 103.645-20.9635 104.468-20.4806 105.097-19.8442 105.726-19.2078 106.183-18.418 106.467-17.4746 106.752-16.5312 106.894-15.4307 106.894-14.1729ZM103.211-9.77051 100.044-9.77051C99.0254-9.77051 98.1419-9.68441 97.3932-9.51221 96.6445-9.34001 96.0231-9.08545 95.529-8.74853 95.0348-8.41162 94.6717-8.00732 94.4396-7.53564 94.2075-7.06396 94.0915-6.52116 94.0915-5.90723 94.0915-4.85905 94.4246-4.02425 95.091-3.40283 95.7573-2.78141 96.6895-2.4707 97.8874-2.4707 98.8607-2.4707 99.7628-2.71777 100.594-3.21191 101.425-3.70605 102.297-4.46224 103.211-5.48047ZM117.143-0.561523C117.143-0.441732 117.113-0.340658 117.053-0.258301 116.993-0.175944 116.896-0.104818 116.761-0.0449219 116.626 0.014974 116.439 0.0598958 116.199 0.0898437 115.96 0.119792 115.653 0.134766 115.278 0.134766 114.919 0.134766 114.619 0.119792 114.38 0.0898437 114.14 0.0598958 113.949 0.014974 113.807-0.0449219 113.665-0.104818 113.568-0.175944 113.515-0.258301 113.463-0.340658 113.437-0.441732 113.437-0.561523L113.437-20.7764C113.437-20.8812 113.463-20.9785 113.515-21.0684 113.568-21.1582 113.665-21.2331 113.807-21.293 113.949-21.3529 114.14-21.3978 114.38-21.4277 114.619-21.4577 114.919-21.4727 115.278-21.4727 115.653-21.4727 115.96-21.4577 116.199-21.4277 116.439-21.3978 116.626-21.3529 116.761-21.293 116.896-21.2331 116.993-21.1582 117.053-21.0684 117.113-20.9785 117.143-20.8812 117.143-20.7764ZM117.569-27.6045C117.569-26.736 117.405-26.1445 117.075-25.8301 116.746-25.5156 116.139-25.3584 115.256-25.3584 114.387-25.3584 113.792-25.5119 113.47-25.8188 113.148-26.1258 112.987-26.7061 112.987-27.5596 112.987-28.4281 113.152-29.0195 113.481-29.334 113.811-29.6484 114.417-29.8057 115.301-29.8057 116.169-29.8057 116.764-29.6522 117.086-29.3452 117.408-29.0382 117.569-28.458 117.569-27.6045ZM141.156-0.561523C141.156-0.441732 141.126-0.340658 141.066-0.258301 141.007-0.175944 140.909-0.104818 140.774-0.0449219 140.64 0.014974 140.452 0.0598958 140.213 0.0898437 139.973 0.119792 139.674 0.134766 139.314 0.134766 138.94 0.134766 138.633 0.119792 138.394 0.0898437 138.154 0.0598958 137.967 0.014974 137.832-0.0449219 137.697-0.104818 137.6-0.175944 137.54-0.258301 137.48-0.340658 137.45-0.441732 137.45-0.561523L137.45-12.3984C137.45-13.5514 137.36-14.4798 137.181-15.1836 137.001-15.8874 136.739-16.4938 136.395-17.0029 136.05-17.512 135.605-17.9014 135.058-18.1709 134.512-18.4404 133.879-18.5752 133.16-18.5752 132.232-18.5752 131.303-18.2458 130.375-17.5869 129.447-16.9281 128.473-15.9622 127.455-14.6895L127.455-0.561523C127.455-0.441732 127.425-0.340658 127.365-0.258301 127.305-0.175944 127.208-0.104818 127.073-0.0449219 126.938 0.014974 126.751 0.0598958 126.512 0.0898437 126.272 0.119792 125.965 0.134766 125.591 0.134766 125.231 0.134766 124.932 0.119792 124.692 0.0898437 124.453 0.0598958 124.262 0.014974 124.12-0.0449219 123.977-0.104818 123.88-0.175944 123.828-0.258301 123.775-0.340658 123.749-0.441732 123.749-0.561523L123.749-20.7764C123.749-20.8962 123.771-20.9972 123.816-21.0796 123.861-21.1619 123.951-21.2368 124.086-21.3042 124.221-21.3716 124.393-21.4165 124.603-21.439 124.812-21.4614 125.089-21.4727 125.434-21.4727 125.763-21.4727 126.036-21.4614 126.253-21.439 126.471-21.4165 126.639-21.3716 126.759-21.3042 126.879-21.2368 126.965-21.1619 127.017-21.0796 127.069-20.9972 127.096-20.8962 127.096-20.7764L127.096-18.1035C128.234-19.3763 129.368-20.3084 130.499-20.8999 131.629-21.4914 132.771-21.7871 133.924-21.7871 135.271-21.7871 136.406-21.5588 137.327-21.102 138.248-20.6453 138.993-20.0352 139.562-19.2715 140.131-18.5078 140.539-17.6131 140.786-16.5874 141.033-15.5617 141.156-14.3301 141.156-12.8926ZM165.062-11.5449C165.062-10.9609 164.915-10.5454 164.622-10.2983 164.328-10.0513 163.994-9.92773 163.617-9.92773L150.305-9.92773C150.305-8.80469 150.418-7.79394 150.643-6.89551 150.869-5.99707 151.245-5.22591 151.772-4.58203 152.298-3.93815 152.983-3.44401 153.826-3.09961 154.668-2.75521 155.699-2.58301 156.918-2.58301 157.881-2.58301 158.738-2.66162 159.491-2.81885 160.243-2.97607 160.894-3.15202 161.443-3.34668 161.992-3.54134 162.444-3.71728 162.797-3.87451 163.151-4.03174 163.418-4.11035 163.599-4.11035 163.704-4.11035 163.798-4.08415 163.881-4.03174 163.963-3.97933 164.027-3.90072 164.073-3.7959 164.118-3.69108 164.152-3.54508 164.174-3.35791 164.197-3.17074 164.208-2.94238 164.208-2.67285 164.208-2.47819 164.201-2.30973 164.186-2.16748 164.171-2.02523 164.152-1.89795 164.129-1.78564 164.107-1.67334 164.069-1.57227 164.017-1.48242 163.965-1.39258 163.897-1.30648 163.815-1.22412 163.733-1.14176 163.489-1.007 163.085-0.819824 162.681-0.63265 162.157-0.449219 161.513-0.269531 160.869-0.0898437 160.124 0.0711263 159.278 0.213379 158.432 0.355631 157.53 0.426758 156.571 0.426758 154.909 0.426758 153.453 0.194661 152.203-0.269531 150.952-0.733724 149.9-1.42253 149.047-2.33594 148.193-3.24935 147.549-4.39486 147.115-5.77246 146.681-7.15006 146.464-8.75228 146.464-10.5791 146.464-12.3161 146.688-13.8771 147.138-15.2622 147.587-16.6473 148.235-17.8228 149.081-18.7886 149.927-19.7544 150.949-20.4956 152.146-21.0122 153.344-21.5288 154.685-21.7871 156.167-21.7871 157.754-21.7871 159.106-21.5325 160.221-21.0234 161.337-20.5143 162.254-19.8293 162.973-18.9683 163.691-18.1073 164.219-17.0965 164.556-15.936 164.893-14.7756 165.062-13.5365 165.062-12.2187ZM161.333-12.6455C161.378-14.5921 160.945-16.1195 160.033-17.2275 159.122-18.3356 157.77-18.8896 155.977-18.8896 155.058-18.8896 154.252-18.7174 153.559-18.373 152.866-18.0286 152.286-17.5719 151.819-17.0029 151.352-16.4339 150.99-15.7713 150.734-15.0151 150.478-14.259 150.335-13.4691 150.305-12.6455ZM182.543-19.4512C182.543-19.1217 182.535-18.8447 182.52-18.6201 182.505-18.3955 182.475-18.2196 182.43-18.0923 182.385-17.965 182.329-17.8677 182.262-17.8003 182.195-17.7329 182.101-17.6992 181.981-17.6992 181.861-17.6992 181.715-17.7329 181.543-17.8003 181.371-17.8677 181.176-17.9351 180.959-18.0024 180.742-18.0698 180.499-18.1335 180.229-18.1934 179.96-18.2533 179.668-18.2832 179.353-18.2832 178.979-18.2832 178.612-18.2083 178.253-18.0586 177.893-17.9089 177.515-17.6618 177.118-17.3174 176.722-16.973 176.306-16.5163 175.872-15.9473 175.438-15.3783 174.958-14.682 174.434-13.8584L174.434-0.561523C174.434-0.441732 174.404-0.340658 174.344-0.258301 174.285-0.175944 174.187-0.104818 174.052-0.0449219 173.918 0.014974 173.73 0.0598958 173.491 0.0898437 173.251 0.119792 172.944 0.134766 172.57 0.134766 172.211 0.134766 171.911 0.119792 171.672 0.0898437 171.432 0.0598958 171.241 0.014974 171.099-0.0449219 170.957-0.104818 170.859-0.175944 170.807-0.258301 170.754-0.340658 170.728-0.441732 170.728-0.561523L170.728-20.7764C170.728-20.8962 170.751-20.9972 170.796-21.0796 170.84-21.1619 170.93-21.2368 171.065-21.3042 171.2-21.3716 171.372-21.4165 171.582-21.439 171.791-21.4614 172.068-21.4727 172.413-21.4727 172.742-21.4727 173.015-21.4614 173.233-21.439 173.45-21.4165 173.618-21.3716 173.738-21.3042 173.858-21.2368 173.944-21.1619 173.996-21.0796 174.049-20.9972 174.075-20.8962 174.075-20.7764L174.075-17.834C174.629-18.6426 175.149-19.3014 175.636-19.8105 176.123-20.3197 176.583-20.7202 177.017-21.0122 177.451-21.3042 177.882-21.5063 178.309-21.6187 178.736-21.731 179.166-21.7871 179.6-21.7871 179.795-21.7871 180.016-21.7759 180.263-21.7534 180.51-21.731 180.768-21.6898 181.038-21.6299 181.307-21.57 181.551-21.5026 181.768-21.4277 181.985-21.3529 182.138-21.278 182.228-21.2031 182.318-21.1283 182.378-21.0571 182.408-20.9897 182.438-20.9224 182.464-20.8363 182.486-20.7314 182.509-20.6266 182.524-20.4731 182.531-20.271 182.539-20.0688 182.543-19.7956 182.543-19.4512Z" transform="matrix(1 0 0 1 51.2363 77)"/><path d="M15.251-19.4512C15.251-19.1217 15.2435-18.8447 15.2285-18.6201 15.2135-18.3955 15.1836-18.2196 15.1387-18.0923 15.0937-17.965 15.0376-17.8677 14.9702-17.8003 14.9028-17.7329 14.8092-17.6992 14.6895-17.6992 14.5697-17.6992 14.4237-17.7329 14.2515-17.8003 14.0793-17.8677 13.8846-17.9351 13.6675-18.0024 13.4504-18.0698 13.207-18.1335 12.9375-18.1934 12.668-18.2533 12.376-18.2832 12.0615-18.2832 11.6872-18.2832 11.3203-18.2083 10.9609-18.0586 10.6016-17.9089 10.2235-17.6618 9.82666-17.3174 9.42985-16.973 9.01432-16.5163 8.58008-15.9473 8.14583-15.3783 7.66667-14.682 7.14258-13.8584L7.14258-0.561523C7.14258-0.441732 7.11263-0.340658 7.05273-0.258301 6.99284-0.175944 6.89551-0.104818 6.76074-0.0449219 6.62598 0.014974 6.4388 0.0598958 6.19922 0.0898437 5.95963 0.119792 5.65267 0.134766 5.27832 0.134766 4.91894 0.134766 4.61947 0.119792 4.37988 0.0898437 4.1403 0.0598958 3.94938 0.014974 3.80713-0.0449219 3.66488-0.104818 3.56755-0.175944 3.51514-0.258301 3.46273-0.340658 3.43652-0.441732 3.43652-0.561523L3.43652-20.7764C3.43652-20.8962 3.45898-20.9972 3.50391-21.0796 3.54883-21.1619 3.63867-21.2368 3.77344-21.3042 3.9082-21.3716 4.0804-21.4165 4.29004-21.439 4.49967-21.4614 4.77669-21.4727 5.12109-21.4727 5.45052-21.4727 5.72379-21.4614 5.94092-21.439 6.15804-21.4165 6.3265-21.3716 6.44629-21.3042 6.56608-21.2368 6.65218-21.1619 6.70459-21.0796 6.757-20.9972 6.7832-20.8962 6.7832-20.7764L6.7832-17.834C7.33724-18.6426 7.85758-19.3014 8.34424-19.8105 8.83089-20.3197 9.29134-20.7202 9.72558-21.0122 10.1598-21.3042 10.5903-21.5063 11.0171-21.6187 11.4438-21.731 11.8743-21.7871 12.3086-21.7871 12.5033-21.7871 12.7241-21.7759 12.9712-21.7534 13.2183-21.731 13.4766-21.6898 13.7461-21.6299 14.0156-21.57 14.259-21.5026 14.4761-21.4277 14.6932-21.3529 14.8467-21.278 14.9365-21.2031 15.0264-21.1283 15.0863-21.0571 15.1162-20.9897 15.1462-20.9224 15.1724-20.8363 15.1948-20.7314 15.2173-20.6266 15.2323-20.4731 15.2397-20.271 15.2472-20.0688 15.251-19.7956 15.251-19.4512ZM36.7282-11.5449C36.7282-10.9609 36.5815-10.5454 36.2883-10.2983 35.995-10.0513 35.6602-9.92773 35.284-9.92773L21.9714-9.92773C21.9714-8.80469 22.0842-7.79394 22.3098-6.89551 22.5355-5.99707 22.9117-5.22591 23.4383-4.58203 23.965-3.93815 24.6496-3.44401 25.4923-3.09961 26.3349-2.75521 27.3656-2.58301 28.5843-2.58301 29.5474-2.58301 30.405-2.66162 31.1573-2.81885 31.9097-2.97607 32.5605-3.15202 33.1097-3.34668 33.6589-3.54134 34.1104-3.71728 34.464-3.87451 34.8177-4.03174 35.0848-4.11035 35.2654-4.11035 35.3707-4.11035 35.4647-4.08415 35.5474-4.03174 35.6301-3.97933 35.694-3.90072 35.7392-3.7959 35.7844-3.69108 35.8182-3.54508 35.8408-3.35791 35.8634-3.17074 35.8747-2.94238 35.8747-2.67285 35.8747-2.47819 35.8672-2.30973 35.8522-2.16748 35.8372-2.02523 35.8185-1.89795 35.7961-1.78564 35.7736-1.67334 35.7362-1.57227 35.6838-1.48242 35.6313-1.39258 35.564-1.30648 35.4816-1.22412 35.3992-1.14176 35.1559-1.007 34.7516-0.819824 34.3473-0.63265 33.8232-0.449219 33.1794-0.269531 32.5355-0.0898437 31.7905 0.0711263 30.9445 0.213379 30.0985 0.355631 29.1963 0.426758 28.238 0.426758 26.5758 0.426758 25.1196 0.194661 23.8693-0.269531 22.619-0.733724 21.5671-1.42253 20.7135-2.33594 19.86-3.24935 19.2161-4.39486 18.7819-5.77246 18.3477-7.15006 18.1305-8.75228 18.1305-10.5791 18.1305-12.3161 18.3551-13.8771 18.8044-15.2622 19.2536-16.6473 19.9012-17.8228 20.7472-18.7886 21.5933-19.7544 22.6152-20.4956 23.8132-21.0122 25.0111-21.5288 26.3512-21.7871 27.8337-21.7871 29.4209-21.7871 30.7723-21.5325 31.8879-21.0234 33.0034-20.5143 33.9206-19.8293 34.6393-18.9683 35.3581-18.1073 35.8859-17.0965 36.2228-15.936 36.5597-14.7756 36.7282-13.5365 36.7282-12.2187ZM32.9997-12.6455C33.0446-14.5921 32.6114-16.1195 31.7001-17.2275 30.7888-18.3356 29.4367-18.8896 27.6438-18.8896 26.7248-18.8896 25.9187-18.7174 25.2257-18.373 24.5327-18.0286 23.9527-17.5719 23.4855-17.0029 23.0184-16.4339 22.6568-15.7713 22.4007-15.0151 22.1447-14.259 22.0015-13.4691 21.9714-12.6455ZM60.9925-10.9834C60.9925-9.21647 60.8016-7.62923 60.4198-6.22168 60.0379-4.81413 59.4764-3.61995 58.7352-2.63916 57.994-1.65837 57.0768-0.902181 55.9837-0.370605 54.8906 0.16097 53.6403 0.426758 52.2327 0.426758 51.6338 0.426758 51.0798 0.366862 50.5706 0.24707 50.0615 0.127279 49.5636-0.0598958 49.077-0.314453 48.5903-0.56901 48.1074-0.89095 47.6283-1.28027 47.1491-1.6696 46.64-2.1263 46.1009-2.65039L46.1009 7.45703C46.1009 7.57682 46.071 7.68164 46.0111 7.77148 45.9512 7.86133 45.8538 7.9362 45.7191 7.99609 45.5843 8.05599 45.3971 8.10091 45.1576 8.13086 44.918 8.16081 44.611 8.17578 44.2367 8.17578 43.8773 8.17578 43.5778 8.16081 43.3382 8.13086 43.0986 8.10091 42.9077 8.05599 42.7655 7.99609 42.6232 7.9362 42.5259 7.86133 42.4735 7.77148 42.4211 7.68164 42.3949 7.57682 42.3949 7.45703L42.3949-20.7764C42.3949-20.9111 42.4173-21.0197 42.4622-21.102 42.5072-21.1844 42.597-21.2555 42.7318-21.3154 42.8665-21.3753 43.0387-21.4165 43.2484-21.439 43.458-21.4614 43.7126-21.4727 44.012-21.4727 44.3265-21.4727 44.5848-21.4614 44.7869-21.439 44.9891-21.4165 45.1575-21.3753 45.2923-21.3154 45.4271-21.2555 45.5207-21.1844 45.5731-21.102 45.6255-21.0197 45.6517-20.9111 45.6517-20.7764L45.6517-18.0586C46.2656-18.6875 46.8571-19.234 47.4261-19.6982 47.9951-20.1624 48.5679-20.548 49.1444-20.855 49.7209-21.1619 50.3123-21.394 50.9188-21.5513 51.5252-21.7085 52.1654-21.7871 52.8392-21.7871 54.3066-21.7871 55.557-21.5026 56.5902-20.9336 57.6234-20.3646 58.4656-19.5859 59.117-18.5977 59.7684-17.6094 60.2438-16.4601 60.5433-15.1499 60.8428-13.8397 60.9925-12.4508 60.9925-10.9834ZM57.1517-10.5566C57.1517-11.5898 57.0726-12.5894 56.9144-13.5552 56.7563-14.521 56.4851-15.3783 56.1009-16.127 55.7168-16.8756 55.2007-17.4746 54.5529-17.9238 53.905-18.373 53.099-18.5977 52.1348-18.5977 51.6526-18.5977 51.178-18.5265 50.711-18.3843 50.244-18.242 49.7695-18.0174 49.2874-17.7104 48.8053-17.4035 48.3006-16.9992 47.7732-16.4976 47.2458-15.9959 46.6884-15.3783 46.1009-14.6445L46.1009-6.60352C47.1255-5.36068 48.0972-4.40983 49.0163-3.75098 49.9353-3.09212 50.8995-2.7627 51.9088-2.7627 52.8428-2.7627 53.645-2.9873 54.3155-3.43652 54.9859-3.88574 55.5283-4.4847 55.9427-5.2334 56.357-5.9821 56.6621-6.82064 56.8579-7.74902 57.0538-8.67741 57.1517-9.61328 57.1517-10.5566ZM85.2572-10.8936C85.2572-9.24642 85.04-7.7303 84.6058-6.34521 84.1715-4.96012 83.5239-3.76595 82.6629-2.7627 81.8019-1.75944 80.7238-0.977051 79.4285-0.415527 78.1333 0.145996 76.6322 0.426758 74.9251 0.426758 73.263 0.426758 71.8143 0.179687 70.5789-0.314453 69.3436-0.808594 68.3141-1.52734 67.4906-2.4707 66.667-3.41406 66.0531-4.55957 65.6488-5.90723 65.2445-7.25488 65.0423-8.78223 65.0423-10.4893 65.0423-12.1364 65.2557-13.6525 65.6824-15.0376 66.1092-16.4227 66.7531-17.6169 67.6141-18.6201 68.4751-19.6234 69.5495-20.402 70.8372-20.9561 72.125-21.5101 73.6299-21.7871 75.3519-21.7871 77.014-21.7871 78.4627-21.54 79.6981-21.0459 80.9334-20.5518 81.9629-19.833 82.7865-18.8896 83.61-17.9463 84.2277-16.8008 84.6395-15.4531 85.0513-14.1055 85.2572-12.5856 85.2572-10.8936ZM81.4163-10.6465C81.4163-11.7396 81.3143-12.7728 81.1103-13.7461 80.9063-14.7194 80.5701-15.5729 80.1017-16.3066 79.6333-17.0404 78.9987-17.6206 78.1979-18.0474 77.3972-18.4741 76.3999-18.6875 75.2062-18.6875 74.1033-18.6875 73.1552-18.4928 72.3619-18.1035 71.5687-17.7142 70.9152-17.1639 70.4015-16.4526 69.8878-15.7414 69.5064-14.8991 69.2571-13.9258 69.0078-12.9525 68.8831-11.8893 68.8831-10.7363 68.8831-9.62825 68.9851-8.58756 69.1892-7.61426 69.3932-6.64095 69.7331-5.79118 70.209-5.06494 70.6849-4.3387 71.3232-3.76221 72.124-3.33545 72.9248-2.90869 73.922-2.69531 75.1157-2.69531 76.2036-2.69531 77.148-2.88997 77.9488-3.2793 78.7495-3.66862 79.4067-4.21517 79.9204-4.91894 80.4341-5.62272 80.8118-6.46126 81.0536-7.43457 81.2954-8.40788 81.4163-9.47851 81.4163-10.6465ZM103.21-6.06445C103.21-5.03125 103.019-4.11035 102.638-3.30176 102.256-2.49316 101.713-1.81185 101.009-1.25781 100.305-0.703776 99.4668-0.284505 98.4935 0 97.5202 0.284505 96.4495 0.426758 95.2816 0.426758 94.5628 0.426758 93.8778 0.370605 93.2264 0.258301 92.575 0.145996 91.991 0.00374348 91.4744-0.168457 90.9578-0.340658 90.5199-0.520345 90.1605-0.707519 89.8011-0.894694 89.5391-1.06315 89.3743-1.21289 89.2096-1.36263 89.0898-1.57227 89.015-1.8418 88.9401-2.11133 88.9027-2.47819 88.9027-2.94238 88.9027-3.22689 88.9176-3.46647 88.9476-3.66113 88.9775-3.85579 89.015-4.01302 89.0599-4.13281 89.1048-4.2526 89.1684-4.3387 89.2508-4.39111 89.3332-4.44352 89.4268-4.46973 89.5316-4.46973 89.6963-4.46973 89.9396-4.36865 90.2616-4.1665 90.5835-3.96435 90.9803-3.74349 91.452-3.50391 91.9237-3.26432 92.4814-3.04346 93.1253-2.84131 93.7692-2.63916 94.5104-2.53809 95.349-2.53809 95.9779-2.53809 96.5469-2.60547 97.056-2.74023 97.5651-2.875 98.0068-3.0734 98.3812-3.33545 98.7555-3.59749 99.0438-3.93066 99.2459-4.33496 99.4481-4.73926 99.5491-5.21842 99.5491-5.77246 99.5491-6.34147 99.4032-6.82064 99.1112-7.20996 98.8192-7.59928 98.4336-7.94368 97.9544-8.24316 97.4753-8.54264 96.9362-8.80843 96.3372-9.04053 95.7383-9.27262 95.1206-9.51595 94.4842-9.77051 93.8478-10.0251 93.2264-10.3133 92.6199-10.6353 92.0135-10.9572 91.4707-11.3503 90.9915-11.8145 90.5124-12.2786 90.1268-12.8327 89.8348-13.4766 89.5428-14.1204 89.3968-14.8916 89.3968-15.79 89.3968-16.5837 89.5503-17.3436 89.8573-18.0698 90.1642-18.7961 90.6247-19.4325 91.2386-19.979 91.8525-20.5256 92.6199-20.9635 93.5408-21.293 94.4617-21.6224 95.5361-21.7871 96.764-21.7871 97.3031-21.7871 97.8421-21.7422 98.3812-21.6523 98.9202-21.5625 99.4069-21.4502 99.8411-21.3154 100.275-21.1807 100.646-21.0347 100.953-20.8774 101.26-20.7202 101.492-20.5817 101.649-20.4619 101.806-20.3421 101.911-20.2373 101.964-20.1475 102.016-20.0576 102.054-19.9565 102.076-19.8442 102.098-19.7319 102.121-19.5934 102.143-19.4287 102.166-19.264 102.177-19.0618 102.177-18.8223 102.177-18.5677 102.166-18.3468 102.143-18.1597 102.121-17.9725 102.083-17.819 102.031-17.6992 101.979-17.5794 101.915-17.4933 101.84-17.4409 101.765-17.3885 101.683-17.3623 101.593-17.3623 101.458-17.3623 101.264-17.4447 101.009-17.6094 100.755-17.7741 100.425-17.95 100.021-18.1372 99.6165-18.3244 99.1411-18.5003 98.5946-18.665 98.048-18.8298 97.4228-18.9121 96.7191-18.9121 96.0902-18.9121 95.5361-18.841 95.057-18.6987 94.5778-18.5565 94.1847-18.3543 93.8778-18.0923 93.5708-17.8302 93.3387-17.5195 93.1815-17.1602 93.0242-16.8008 92.9456-16.4115 92.9456-15.9922 92.9456-15.4082 93.0954-14.9178 93.3949-14.521 93.6943-14.1242 94.0836-13.776 94.5628-13.4766 95.042-13.1771 95.5885-12.9076 96.2025-12.668 96.8164-12.4284 97.4416-12.1813 98.078-11.9268 98.7143-11.6722 99.3432-11.3877 99.9647-11.0732 100.586-10.7588 101.136-10.377 101.616-9.92773 102.095-9.47851 102.48-8.93945 102.772-8.31055 103.064-7.68164 103.21-6.93294 103.21-6.06445ZM111.986-0.561523C111.986-0.441732 111.956-0.340658 111.896-0.258301 111.837-0.175944 111.739-0.104818 111.604-0.0449219 111.47 0.014974 111.283 0.0598958 111.043 0.0898437 110.803 0.119792 110.496 0.134766 110.122 0.134766 109.763 0.134766 109.463 0.119792 109.224 0.0898437 108.984 0.0598958 108.793 0.014974 108.651-0.0449219 108.509-0.104818 108.411-0.175944 108.359-0.258301 108.306-0.340658 108.28-0.441732 108.28-0.561523L108.28-20.7764C108.28-20.8812 108.306-20.9785 108.359-21.0684 108.411-21.1582 108.509-21.2331 108.651-21.293 108.793-21.3529 108.984-21.3978 109.224-21.4277 109.463-21.4577 109.763-21.4727 110.122-21.4727 110.496-21.4727 110.803-21.4577 111.043-21.4277 111.283-21.3978 111.47-21.3529 111.604-21.293 111.739-21.2331 111.837-21.1582 111.896-21.0684 111.956-20.9785 111.986-20.8812 111.986-20.7764ZM112.413-27.6045C112.413-26.736 112.248-26.1445 111.919-25.8301 111.59-25.5156 110.983-25.3584 110.1-25.3584 109.231-25.3584 108.636-25.5119 108.314-25.8188 107.992-26.1258 107.831-26.7061 107.831-27.5596 107.831-28.4281 107.996-29.0195 108.325-29.334 108.655-29.6484 109.261-29.8057 110.145-29.8057 111.013-29.8057 111.608-29.6522 111.93-29.3452 112.252-29.0382 112.413-28.458 112.413-27.6045ZM129.104-2.04395C129.104-1.6097 129.075-1.2653 129.015-1.01074 128.955-0.756185 128.865-0.56901 128.745-0.449219 128.625-0.329427 128.446-0.217122 128.206-0.112305 127.966-0.00748698 127.693 0.0786133 127.386 0.145996 127.079 0.213379 126.754 0.269531 126.409 0.314453 126.065 0.359375 125.72 0.381836 125.376 0.381836 124.328 0.381836 123.429 0.243327 122.681-0.0336914 121.932-0.31071 121.318-0.72998 120.839-1.2915 120.36-1.85303 120.012-2.56429 119.794-3.42529 119.577-4.28629 119.469-5.30078 119.469-6.46875L119.469-18.2832 116.639-18.2832C116.414-18.2832 116.234-18.403 116.1-18.6426 115.965-18.8822 115.897-19.2715 115.897-19.8105 115.897-20.095 115.916-20.3346 115.954-20.5293 115.991-20.724 116.04-20.8849 116.1-21.0122 116.159-21.1395 116.238-21.2293 116.335-21.2817 116.433-21.3341 116.541-21.3603 116.661-21.3603L119.469-21.3603 119.469-26.167C119.469-26.2718 119.495-26.3691 119.547-26.459 119.6-26.5488 119.697-26.6274 119.839-26.6948 119.982-26.7622 120.173-26.8109 120.412-26.8408 120.652-26.8708 120.951-26.8857 121.311-26.8857 121.685-26.8857 121.992-26.8708 122.231-26.8408 122.471-26.8109 122.658-26.7622 122.793-26.6948 122.928-26.6274 123.025-26.5488 123.085-26.459 123.145-26.3691 123.175-26.2718 123.175-26.167L123.175-21.3603 128.363-21.3603C128.483-21.3603 128.588-21.3341 128.678-21.2817 128.768-21.2293 128.846-21.1395 128.914-21.0122 128.981-20.8849 129.03-20.724 129.06-20.5293 129.09-20.3346 129.104-20.095 129.104-19.8105 129.104-19.2715 129.037-18.8822 128.902-18.6426 128.768-18.403 128.588-18.2832 128.363-18.2832L123.175-18.2832 123.175-7.00781C123.175-5.61523 123.381-4.56331 123.792-3.85205 124.204-3.14079 124.942-2.78516 126.005-2.78516 126.349-2.78516 126.656-2.81885 126.926-2.88623 127.195-2.95361 127.435-3.02474 127.645-3.09961 127.854-3.17448 128.034-3.2456 128.184-3.31299 128.333-3.38037 128.468-3.41406 128.588-3.41406 128.663-3.41406 128.734-3.39534 128.801-3.35791 128.869-3.32048 128.921-3.24935 128.958-3.14453 128.996-3.03971 129.03-2.89746 129.06-2.71777 129.09-2.53809 129.104-2.31348 129.104-2.04395ZM152.861-10.8936C152.861-9.24642 152.644-7.7303 152.21-6.34521 151.776-4.96012 151.128-3.76595 150.267-2.7627 149.406-1.75944 148.328-0.977051 147.033-0.415527 145.737 0.145996 144.236 0.426758 142.529 0.426758 140.867 0.426758 139.418 0.179687 138.183-0.314453 136.948-0.808594 135.918-1.52734 135.095-2.4707 134.271-3.41406 133.657-4.55957 133.253-5.90723 132.849-7.25488 132.646-8.78223 132.646-10.4893 132.646-12.1364 132.86-13.6525 133.287-15.0376 133.713-16.4227 134.357-17.6169 135.218-18.6201 136.079-19.6234 137.154-20.402 138.441-20.9561 139.729-21.5101 141.234-21.7871 142.956-21.7871 144.618-21.7871 146.067-21.54 147.302-21.0459 148.538-20.5518 149.567-19.833 150.391-18.8896 151.214-17.9463 151.832-16.8008 152.244-15.4531 152.655-14.1055 152.861-12.5856 152.861-10.8936ZM149.02-10.6465C149.02-11.7396 148.918-12.7728 148.714-13.7461 148.51-14.7194 148.174-15.5729 147.706-16.3066 147.237-17.0404 146.603-17.6206 145.802-18.0474 145.001-18.4741 144.004-18.6875 142.81-18.6875 141.707-18.6875 140.759-18.4928 139.966-18.1035 139.173-17.7142 138.519-17.1639 138.006-16.4526 137.492-15.7414 137.111-14.8991 136.861-13.9258 136.612-12.9525 136.487-11.8893 136.487-10.7363 136.487-9.62825 136.589-8.58756 136.793-7.61426 136.997-6.64095 137.337-5.79118 137.813-5.06494 138.289-4.3387 138.927-3.76221 139.728-3.33545 140.529-2.90869 141.526-2.69531 142.72-2.69531 143.808-2.69531 144.752-2.88997 145.553-3.2793 146.354-3.66862 147.011-4.21517 147.525-4.91894 148.038-5.62272 148.416-6.46126 148.658-7.43457 148.9-8.40788 149.02-9.47851 149.02-10.6465ZM169.938-19.4512C169.938-19.1217 169.931-18.8447 169.916-18.6201 169.901-18.3955 169.871-18.2196 169.826-18.0923 169.781-17.965 169.725-17.8677 169.658-17.8003 169.59-17.7329 169.497-17.6992 169.377-17.6992 169.257-17.6992 169.111-17.7329 168.939-17.8003 168.767-17.8677 168.572-17.9351 168.355-18.0024 168.138-18.0698 167.895-18.1335 167.625-18.1934 167.355-18.2533 167.063-18.2832 166.749-18.2832 166.375-18.2832 166.008-18.2083 165.648-18.0586 165.289-17.9089 164.911-17.6618 164.514-17.3174 164.117-16.973 163.702-16.5163 163.268-15.9473 162.833-15.3783 162.354-14.682 161.83-13.8584L161.83-0.561523C161.83-0.441732 161.8-0.340658 161.74-0.258301 161.68-0.175944 161.583-0.104818 161.448-0.0449219 161.313 0.014974 161.126 0.0598958 160.887 0.0898437 160.647 0.119792 160.34 0.134766 159.966 0.134766 159.606 0.134766 159.307 0.119792 159.067 0.0898437 158.828 0.0598958 158.637 0.014974 158.495-0.0449219 158.352-0.104818 158.255-0.175944 158.203-0.258301 158.15-0.340658 158.124-0.441732 158.124-0.561523L158.124-20.7764C158.124-20.8962 158.146-20.9972 158.191-21.0796 158.236-21.1619 158.326-21.2368 158.461-21.3042 158.596-21.3716 158.768-21.4165 158.978-21.439 159.187-21.4614 159.464-21.4727 159.809-21.4727 160.138-21.4727 160.411-21.4614 160.628-21.439 160.846-21.4165 161.014-21.3716 161.134-21.3042 161.254-21.2368 161.34-21.1619 161.392-21.0796 161.444-20.9972 161.471-20.8962 161.471-20.7764L161.471-17.834C162.025-18.6426 162.545-19.3014 163.032-19.8105 163.518-20.3197 163.979-20.7202 164.413-21.0122 164.847-21.3042 165.278-21.5063 165.705-21.6187 166.131-21.731 166.562-21.7871 166.996-21.7871 167.191-21.7871 167.412-21.7759 167.659-21.7534 167.906-21.731 168.164-21.6898 168.434-21.6299 168.703-21.57 168.946-21.5026 169.164-21.4277 169.381-21.3529 169.534-21.278 169.624-21.2031 169.714-21.1283 169.774-21.0571 169.804-20.9897 169.834-20.9224 169.86-20.8363 169.882-20.7314 169.905-20.6266 169.92-20.4731 169.927-20.271 169.935-20.0688 169.938-19.7956 169.938-19.4512ZM183.375 0 180.679 7.43457C180.59 7.67415 180.361 7.85758 179.994 7.98486 179.627 8.11214 179.07 8.17578 178.321 8.17578 177.932 8.17578 177.617 8.15706 177.378 8.11963 177.138 8.08219 176.955 8.01855 176.827 7.92871 176.7 7.83887 176.629 7.71907 176.614 7.56934 176.599 7.4196 176.636 7.23991 176.726 7.03027L179.511 0C179.377-0.0598958 179.249-0.157227 179.13-0.291992 179.01-0.426758 178.927-0.56901 178.882-0.71875L171.673-20.0352C171.553-20.3496 171.493-20.5967 171.493-20.7764 171.493-20.9561 171.553-21.0983 171.673-21.2031 171.792-21.3079 171.987-21.3791 172.257-21.4165 172.526-21.4539 172.885-21.4727 173.335-21.4727 173.784-21.4727 174.136-21.4614 174.39-21.439 174.645-21.4165 174.847-21.3753 174.997-21.3154 175.146-21.2555 175.255-21.1694 175.322-21.0571 175.39-20.9448 175.461-20.7913 175.536-20.5967L181.308-4.37988 181.376-4.37988 186.946-20.6865C187.036-20.971 187.144-21.1545 187.272-21.2368 187.399-21.3192 187.59-21.3791 187.844-21.4165 188.099-21.4539 188.466-21.4727 188.945-21.4727 189.364-21.4727 189.709-21.4539 189.978-21.4165 190.248-21.3791 190.446-21.3079 190.573-21.2031 190.701-21.0983 190.764-20.9561 190.764-20.7764 190.764-20.5967 190.719-20.3721 190.63-20.1025Z" transform="matrix(1 0 0 1 47.2258 132)"/></g></g><path d="M3254 1348C3254 1335.85 3263.85 1326 3276 1326L3583 1326C3595.15 1326 3605 1335.85 3605 1348L3605 1436C3605 1448.15 3595.15 1458 3583 1458L3276 1458C3263.85 1458 3254 1448.15 3254 1436Z" fill="#F2F2F2" fill-rule="evenodd"/><text font-family="Calibri,Calibri_MSFontService,sans-serif" font-weight="400" font-size="46" transform="matrix(1 0 0 1 3337.51 1380)">Container </text><text font-family="Calibri,Calibri_MSFontService,sans-serif" font-weight="400" font-size="46" transform="matrix(1 0 0 1 3333.5 1435)">repository</text><g><g><g><path d="M44.1543 20.2533C42.4948 18.6489 40.3875 17.5858 38.111 17.2044 37.8014 9.84158 31.5913 4.11832 24.2277 4.40998 18.3822 4.30341 13.1038 7.89142 11.0522 13.3661 4.85033 14.1217 0.143455 19.3155-4.04992e-06 25.5616 0.280401 32.6423 6.22956 38.1657 13.3116 37.9204L14.4822 37.9204 36.0421 37.9204 36.6137 37.9204C42.3467 37.8121 47.0134 33.2763 47.2848 27.5488 47.2636 24.8403 46.1437 22.2565 44.1815 20.3894" fill="#7F7F7F" transform="matrix(1.02042 0 0 1 3263 1334)"/><path d="M27.4127 16.9322 27.4399 28.5832 48.9726 33.1565 48.9726 25.0443 27.4127 16.9322Z" fill="#7F7F7F" transform="matrix(1.02042 0 0 1 3263 1334)"/><path d="M27.4127 16.9322 21.5871 20.471 21.5871 31.3054 27.4399 28.5832" fill="#7F7F7F" transform="matrix(1.02042 0 0 1 3263 1334)"/><path d="M37.2399 28.7466 39.1998 29.291 39.1998 22.9482 37.2399 22.2677 37.2399 28.7466Z" fill="#7F7F7F" transform="matrix(1.02042 0 0 1 3263 1334)"/><path d="M35.2799 21.6416 33.3199 20.9338 33.3199 27.7121 35.2799 28.2566 35.2799 21.6416Z" fill="#7F7F7F" transform="matrix(1.02042 0 0 1 3263 1334)"/><path d="M41.1598 29.8082 43.0654 30.3254 43.1198 24.2821 41.1598 23.6288 41.1598 29.8082Z" fill="#7F7F7F" transform="matrix(1.02042 0 0 1 3263 1334)"/><path d="M29.4271 26.7049 31.3871 27.1949 31.3871 20.3077 29.4271 19.6544 29.4271 26.7049Z" fill="#7F7F7F" transform="matrix(1.02042 0 0 1 3263 1334)"/><path d="M47.0126 25.616 45.0526 24.9355 45.0526 30.8427 47.0126 31.3871 47.0126 25.616Z" fill="#7F7F7F" transform="matrix(1.02042 0 0 1 3263 1334)"/><path d="M23.5744 28.3927 22.5944 28.9643 22.5944 21.2605 23.5744 20.7432ZM25.5071 19.6271 24.4999 20.2805 24.4999 27.7666 25.5071 27.2221Z" fill="#7F7F7F" transform="matrix(1.02042 0 0 1 3263 1334)"/><path d="M48.9726 33.1565 43.0926 35.171 21.5871 31.3054 27.4399 28.5832 48.9726 33.1565Z" fill="#7F7F7F" transform="matrix(1.02042 0 0 1 3263 1334)"/><path d="M48.9726 41.4593 27.331 45.5698 27.4399 30.3527 48.9726 34.3543 48.9726 41.4593Z" fill="#7F7F7F" transform="matrix(1.02042 0 0 1 3263 1334)"/><path d="M29.4271 43.0654 29.4271 33.4015 31.3871 33.6465 31.3871 42.7387 29.4271 43.0654Z" fill="#7F7F7F" transform="matrix(1.02042 0 0 1 3263 1334)"/><path d="M35.2799 42.0854 33.3199 42.4393 33.3199 33.8915 35.2799 34.191 35.2799 42.0854 35.2799 42.0854Z" fill="#7F7F7F" transform="matrix(1.02042 0 0 1 3263 1334)"/><path d="M37.2399 41.7859 37.2399 34.3815 39.1998 34.6265 39.1998 41.4321 37.2399 41.7859Z" fill="#7F7F7F" transform="matrix(1.02042 0 0 1 3263 1334)"/><path d="M43.0926 40.7515 41.1598 41.1054 41.1598 34.8715 43.0926 35.171 43.0926 40.7515Z" fill="#7F7F7F" transform="matrix(1.02042 0 0 1 3263 1334)"/><path d="M47.067 40.1254 45.0526 40.4793 45.0526 35.3615 46.9309 35.6065 47.067 40.1254Z" fill="#7F7F7F" transform="matrix(1.02042 0 0 1 3263 1334)"/><path d="M21.5871 42.0854 21.5871 33.211 27.4671 30.4888 27.4671 45.7332Z" fill="#7F7F7F" transform="matrix(1.02042 0 0 1 3263 1334)"/><path d="M23.4382 42.0582 22.5671 41.6226 22.5671 34.1093 23.4382 33.701ZM25.5343 32.6665 24.4999 33.1838 24.4999 42.6571 25.5071 43.1743 25.5071 32.6665Z" fill="#7F7F7F" transform="matrix(1.02042 0 0 1 3263 1334)"/></g></g></g><path d="M2789 1348C2789 1335.85 2798.85 1326 2811 1326L3097 1326C3109.15 1326 3119 1335.85 3119 1348L3119 1436C3119 1448.15 3109.15 1458 3097 1458L2811 1458C2798.85 1458 2789 1448.15 2789 1436Z" fill="#F2F2F2" fill-rule="evenodd"/><text font-family="Calibri,Calibri_MSFontService,sans-serif" font-weight="400" font-size="46" transform="matrix(1 0 0 1 2882.28 1408)">Storage</text><g><g><g><path d="M41.6058 26.3291 44 26.3291 44 14.8367 0 14.8367 0 26.3368 25.4717 26.3368C27.5492 24.2979 30.3991 23.0466 33.5349 23.0466 36.6705 23.0466 39.5281 24.2979 41.6058 26.3291Z" fill="#F2F2F2" transform="matrix(1 0 0 1.11318 2800 1341)"/><path d="M23.6103 28.7013 0 28.7013 0 40.2014 23.4713 40.2014C22.5368 38.5332 22.0039 36.6178 22.0039 34.5711 22.0039 32.4318 22.5909 30.4236 23.6103 28.7013Z" fill="#F2F2F2" transform="matrix(1 0 0 1.11318 2800 1341)"/><path d="M44 0.879069 0 0.879069 0 12.3791 44 12.3791 44 0.879069Z" fill="#F2F2F2" transform="matrix(1 0 0 1.11318 2800 1341)"/><path d="M7.17496 9.09073C8.49727 9.09073 9.56918 8.01879 9.56918 6.69649 9.56918 5.37419 8.49727 4.30225 7.17496 4.30225 5.85266 4.30225 4.78072 5.37419 4.78072 6.69649 4.78072 8.01879 5.85266 9.09073 7.17496 9.09073Z" fill="#F2F2F2" transform="matrix(1 0 0 1.11318 2800 1341)"/><path d="M7.17496 36.9094C8.49727 36.9094 9.56918 35.8375 9.56918 34.5152 9.56918 33.1929 8.49727 32.1209 7.17496 32.1209 5.85266 32.1209 4.78072 33.1929 4.78072 34.5152 4.78072 35.8375 5.85266 36.9094 7.17496 36.9094Z" fill="#F2F2F2" transform="matrix(1 0 0 1.11318 2800 1341)"/><path d="M7.17496 23.0448C8.49727 23.0448 9.56918 21.9729 9.56918 20.6506 9.56918 19.3283 8.49727 18.2563 7.17496 18.2563 5.85266 18.2563 4.78072 19.3283 4.78072 20.6506 4.78072 21.9729 5.85266 23.0448 7.17496 23.0448Z" fill="#F2F2F2" transform="matrix(1 0 0 1.11318 2800 1341)"/><path d="M27.3022 36.7248C26.6843 35.0951 26.7383 33.3187 27.4643 31.7278 28.1826 30.1367 29.4801 28.9241 31.1097 28.3063 32.0675 27.9433 33.056 27.812 34.0601 27.9201L33.7743 29.5189 37.327 27.588 34.6703 24.4832 34.3613 26.2287C33.056 26.0742 31.7354 26.2365 30.5073 26.6998 28.4452 27.4799 26.8078 29.0168 25.8965 31.025 24.9851 33.033 24.9156 35.2805 25.6957 37.3426 26.2518 38.8255 27.2172 40.1076 28.4839 41.0421L28.7928 41.2738 29.8122 39.8836 29.5033 39.6519C28.507 38.9105 27.7424 37.891 27.3022 36.7248Z" fill="#F2F2F2" transform="matrix(1 0 0 1.11318 2800 1341)"/><path d="M41.1426 31.4964C40.6483 30.1834 39.8296 29.0249 38.7638 28.1212L37.6439 29.4188C38.4858 30.1371 39.1345 31.0484 39.5284 32.0988 40.8028 35.4739 39.0959 39.2507 35.7208 40.525 35.1493 40.7412 34.5469 40.8725 33.929 40.9189L34.0294 39.1657 30.7083 41.4673 33.705 44.5643 33.8209 42.6566C34.6781 42.6102 35.52 42.4404 36.3232 42.1392 40.5865 40.5327 42.749 35.7596 41.1426 31.4964Z" fill="#F2F2F2" transform="matrix(1 0 0 1.11318 2800 1341)"/></g></g></g><g><g><g><path d="M45.3879 28.7226 47.9998 28.7226 47.9998 16.1854 0 16.1854 0 28.731 27.7872 28.731C30.0536 26.5067 33.1626 25.1417 36.5834 25.1417 40.004 25.1417 43.1214 26.5067 45.3879 28.7226Z" fill="#7F7F7F" transform="matrix(1.00001 0 0 1 2811 1355)"/><path d="M25.7566 31.3104 0 31.3104 0 43.8559 25.605 43.8559C24.5855 42.036 24.0041 39.9465 24.0041 37.7138 24.0041 35.38 24.6445 33.1893 25.7566 31.3104Z" fill="#7F7F7F" transform="matrix(1.00001 0 0 1 2811 1355)"/><path d="M47.9998 0.95898 0 0.95898 0 13.5044 47.9998 13.5044 47.9998 0.95898Z" fill="#7F7F7F" transform="matrix(1.00001 0 0 1 2811 1355)"/><path d="M7.8272 9.91712C9.26971 9.91712 10.4391 8.74774 10.4391 7.30523 10.4391 5.86273 9.26971 4.69334 7.8272 4.69334 6.38469 4.69334 5.21531 5.86273 5.21531 7.30523 5.21531 8.74774 6.38469 9.91712 7.8272 9.91712Z" fill="#7F7F7F" transform="matrix(1.00001 0 0 1 2811 1355)"/><path d="M7.8272 40.2646C9.26971 40.2646 10.4391 39.0952 10.4391 37.6528 10.4391 36.2103 9.26971 35.0409 7.8272 35.0409 6.38469 35.0409 5.21531 36.2103 5.21531 37.6528 5.21531 39.0952 6.38469 40.2646 7.8272 40.2646Z" fill="#7F7F7F" transform="matrix(1.00001 0 0 1 2811 1355)"/><path d="M7.8272 25.1397C9.26971 25.1397 10.4391 23.9703 10.4391 22.5278 10.4391 21.0853 9.26971 19.9159 7.8272 19.9159 6.38469 19.9159 5.21531 21.0853 5.21531 22.5278 5.21531 23.9703 6.38469 25.1397 7.8272 25.1397Z" fill="#7F7F7F" transform="matrix(1.00001 0 0 1 2811 1355)"/><path d="M29.7841 40.0632C29.11 38.2854 29.169 36.3476 29.961 34.612 30.7446 32.8763 32.16 31.5535 33.9378 30.8795 34.9826 30.4835 36.061 30.3403 37.1564 30.4582L36.8446 32.2023 40.7202 30.0959 37.8219 26.7089 37.4849 28.613C36.061 28.4445 34.6203 28.6215 33.2806 29.127 31.031 29.978 29.2448 31.6546 28.2506 33.8453 27.2564 36.0359 27.1806 38.4876 28.0316 40.7372 28.6382 42.3549 29.6914 43.7535 31.0732 44.773L31.4102 45.0258 32.5223 43.5092 32.1853 43.2564C31.0984 42.4476 30.2643 41.3354 29.7841 40.0632Z" fill="#7F7F7F" transform="matrix(1.00001 0 0 1 2811 1355)"/><path d="M44.8826 34.3596C44.3434 32.9272 43.4503 31.6634 42.2876 30.6776L41.0659 32.0931C41.9843 32.8767 42.692 33.8709 43.1217 35.0168 44.5119 38.6986 42.6499 42.8187 38.9679 44.2089 38.3445 44.4448 37.6874 44.588 37.0133 44.6386L37.1229 42.726 33.4999 45.2368 36.769 48.6154 36.8954 46.5343C37.8305 46.4837 38.7489 46.2984 39.6251 45.9698 44.276 44.2173 46.6351 39.0103 44.8826 34.3596Z" fill="#7F7F7F" transform="matrix(1.00001 0 0 1 2811 1355)"/></g></g></g><path d="M0-1.71875 202.248-1.71875 202.248 81.3354 200.529 79.6167 378.142 79.6167 378.142 83.0542 198.811 83.0542 198.811 0 200.529 1.71875 0 1.71875ZM373.559 67.5854 401.059 81.3354 373.559 95.0854Z" fill="#7F7F7F" transform="matrix(1 0 0 -1 2557.5 691.835)"/><rect x="1285" y="811" width="487" height="89" fill="#F2F2F2"/><text fill="#0070C0" font-family="Calibri,Calibri_MSFontService,sans-serif" font-style="italic" font-weight="700" font-size="46" transform="matrix(1 0 0 1 1330.66 871)">Strangler Fig pattern</text><text fill="#0070C0" font-family="Calibri,Calibri_MSFontService,sans-serif" font-style="italic" font-weight="700" font-size="46" transform="matrix(1 0 0 1 1787.05 1437)">Competing </text><text fill="#0070C0" font-family="Calibri,Calibri_MSFontService,sans-serif" font-style="italic" font-weight="700" font-size="46" transform="matrix(1 0 0 1 1712.3 1492)">consumers pattern</text><path d="M0 0 460.212 1.93691" stroke="#7F7F7F" stroke-width="3.4375" stroke-miterlimit="8" fill="none" fill-rule="evenodd" transform="matrix(1 0 0 -1 1789.5 693.437)"/><path d="M2557.5 689.781 2761.26 689.781 2761.26 784.794 2759.54 783.075 2938.67 783.075 2938.67 786.512 2757.82 786.512 2757.82 691.5 2759.54 693.219 2557.5 693.219ZM2934.09 771.044 2961.59 784.794 2934.09 798.544Z" fill="#7F7F7F"/><path d="M2262 1584.71C2262.02 1584.35 2261.77 1584.01 2261.39 1583.9L2229.09 1574 2228 1574 2228 1626 2228.88 1626 2260.91 1614.29C2261.39 1614.4 2261.86 1614.13 2261.98 1613.69 2261.99 1613.64 2262 1613.59 2262 1613.54Z" fill="#7F7F7F" fill-rule="evenodd"/><path d="M2227.83 1574.02 2196.82 1579.2C2196.37 1579.26 2196.03 1579.6 2196 1580.02L2196 1618.92C2196.01 1619.33 2196.32 1619.69 2196.76 1619.8L2227.83 1625.98C2228.31 1626.08 2228.79 1625.81 2228.9 1625.38 2228.92 1625.31 2228.93 1625.24 2228.93 1625.17L2228.93 1575.21C2229.13 1574.76 2228.9 1574.25 2228.4 1574.07 2228.22 1574 2228.02 1573.98 2227.83 1574.02Z" fill="#7F7F7F" fill-rule="evenodd"/><path d="M2214 1581.71 2214 1618.42 2224 1620 2224 1580 2214 1581.71Z" fill="#7F7F7F" fill-rule="evenodd"/><path d="M2201 1583.44 2201 1615.25 2210 1617 2210 1582 2201 1583.44Z" fill="#7F7F7F" fill-rule="evenodd"/><path d="M2431 1581.92C2431.02 1581.54 2430.77 1581.21 2430.39 1581.09L2398.09 1571 2397 1571 2397 1624 2397.88 1624 2429.91 1612.07C2430.39 1612.17 2430.86 1611.9 2430.98 1611.46 2430.99 1611.41 2431 1611.36 2431 1611.31Z" fill="#7F7F7F" fill-rule="evenodd"/><path d="M2396.86 1571.02 2366.8 1576.3C2366.36 1576.36 2366.03 1576.71 2366 1577.13L2366 1616.79C2366.01 1617.2 2366.31 1617.56 2366.73 1617.68L2396.86 1623.98C2397.33 1624.08 2397.8 1623.81 2397.91 1623.36 2397.92 1623.29 2397.93 1623.22 2397.93 1623.15L2397.93 1572.23C2398.13 1571.78 2397.9 1571.25 2397.42 1571.07 2397.25 1571 2397.05 1570.98 2396.86 1571.02Z" fill="#7F7F7F" fill-rule="evenodd"/><path d="M2383 1578.71 2383 1615.42 2394 1617 2394 1577 2383 1578.71Z" fill="#7F7F7F" fill-rule="evenodd"/><path d="M2370 1581.44 2370 1613.25 2379 1615 2379 1580 2370 1581.44Z" fill="#7F7F7F" fill-rule="evenodd"/><path d="M2603 1584.71C2603.02 1584.35 2602.77 1584.01 2602.4 1583.9L2571.06 1574 2570 1574 2570 1626 2570.86 1626 2601.94 1614.29C2602.4 1614.4 2602.87 1614.13 2602.98 1613.69 2602.99 1613.64 2603 1613.59 2603 1613.54Z" fill="#7F7F7F" fill-rule="evenodd"/><path d="M2569.83 1574.02 2538.82 1579.2C2538.37 1579.26 2538.03 1579.6 2538 1580.02L2538 1618.92C2538.01 1619.33 2538.32 1619.69 2538.76 1619.8L2569.83 1625.98C2570.31 1626.08 2570.79 1625.81 2570.9 1625.38 2570.92 1625.31 2570.93 1625.24 2570.93 1625.17L2570.93 1575.21C2571.13 1574.76 2570.9 1574.25 2570.4 1574.07 2570.22 1574 2570.02 1573.98 2569.83 1574.02Z" fill="#7F7F7F" fill-rule="evenodd"/><path d="M2555 1581.71 2555 1618.42 2566 1620 2566 1580 2555 1581.71Z" fill="#7F7F7F" fill-rule="evenodd"/><path d="M2542 1583.44 2542 1615.25 2551 1617 2551 1582 2542 1583.44Z" fill="#7F7F7F" fill-rule="evenodd"/><path d="M1.71859-0.0232132 3.9974 168.689 0.560218 168.735-1.71859 0.0232132ZM15.9657 163.943 2.58832 191.627-11.5318 164.315Z" transform="matrix(-1 0 0 1 2401.09 1380.5)"/><path d="M1.71858-0.0244728 4.48656 194.355 1.04941 194.404-1.71858 0.0244728ZM16.4513 189.6 3.09429 217.293-11.0459 189.992Z" transform="matrix(-1 0 0 1 2232.59 1356.5)"/><text font-family="Calibri,Calibri_MSFontService,sans-serif" font-style="italic" font-weight="400" font-size="46" transform="matrix(1 0 0 1 2247.91 1658)">Instance </text><text font-family="Calibri,Calibri_MSFontService,sans-serif" font-style="italic" font-weight="400" font-size="46" transform="matrix(1 0 0 1 2414.05 1658)">replicas</text><path d="M1.71855-0.0261707 4.67863 194.353 1.24153 194.405-1.71855 0.0261707ZM16.6387 189.587 3.30902 217.293-10.8581 190.006Z" transform="matrix(-1 0 0 1 2574.81 1356.5)"/><rect x="2156" y="1376" width="487" height="111" fill="#F2F2F2"/><text fill="#0070C0" font-family="Calibri,Calibri_MSFontService,sans-serif" font-style="italic" font-weight="700" font-size="46" transform="matrix(1 0 0 1 2245.95 1419)">Health endpoint </text><text fill="#0070C0" font-family="Calibri,Calibri_MSFontService,sans-serif" font-style="italic" font-weight="700" font-size="46" transform="matrix(1 0 0 1 2217.01 1474)">monitoring pattern</text><path d="M2188.5 1219.33C2188.5 1209.48 2196.48 1201.5 2206.33 1201.5L2598.67 1201.5C2608.52 1201.5 2616.5 1209.48 2616.5 1219.33L2616.5 1290.67C2616.5 1300.52 2608.52 1308.5 2598.67 1308.5L2206.33 1308.5C2196.48 1308.5 2188.5 1300.52 2188.5 1290.67Z" stroke="#F2F2F2" stroke-width="3.4375" stroke-miterlimit="8" fill="#FFFFFF" fill-rule="evenodd"/><text font-family="Calibri,Calibri_MSFontService,sans-serif" font-weight="400" font-size="46" transform="matrix(1 0 0 1 2267.63 1266)">Web app code</text><g><g><g><path d="M7.04924 24.4999 15.5399 19.8492 15.5399 14.9596 0.179942 23.5697 0.179942 25.7799 15.5399 33.4598 15.5399 28.6897 7.04924 24.4999Z" stroke="#F2F2F2" stroke-width="1.02078" transform="matrix(1.02042 0 0 1 2196 1202)"/><path d="M16.2403 38.3498 21.1298 38.3498 32.4194 10.6593 27.5298 10.6593 16.2403 38.3498Z" stroke="#F2F2F2" stroke-width="1.02078" transform="matrix(1.02042 0 0 1 2196 1202)"/><path d="M48.8195 23.4503 33.4596 14.8488 33.4596 19.8493 41.9502 24.4999 33.4596 28.5703 33.4596 33.4599 48.8195 25.7799 48.8195 23.4503Z" stroke="#F2F2F2" stroke-width="1.02078" transform="matrix(1.02042 0 0 1 2196 1202)"/></g></g></g><rect x="2087" y="1312" width="633" height="68.0001" fill="#F2F2F2"/><text font-family="Calibri,Calibri_MSFontService,sans-serif" font-weight="400" font-size="46" transform="matrix(1 0 0 1 2233.75 1361)">Decoupled service</text><rect x="1287" y="998" width="490" height="111" fill="#FFFFFF"/><text fill="#0070C0" font-family="Calibri,Calibri_MSFontService,sans-serif" font-style="italic" font-weight="700" font-size="46" transform="matrix(1 0 0 1 1359.7 1041)">Queue</text><text fill="#0070C0" font-family="Calibri,Calibri_MSFontService,sans-serif" font-style="italic" font-weight="700" font-size="46" transform="matrix(1 0 0 1 1483.45 1041)">-</text><text fill="#0070C0" font-family="Calibri,Calibri_MSFontService,sans-serif" font-style="italic" font-weight="700" font-size="46" transform="matrix(1 0 0 1 1497.2 1041)">based load </text><text fill="#0070C0" font-family="Calibri,Calibri_MSFontService,sans-serif" font-style="italic" font-weight="700" font-size="46" transform="matrix(1 0 0 1 1380.9 1096)">leveling pattern</text><path d="M1728.43 1387.99 2061.16 1391 2061.13 1394.44 1728.4 1391.43ZM1732.87 1403.5 1705.5 1389.5 1733.12 1376ZM2056.69 1378.93 2084.06 1392.93 2056.44 1406.43Z"/><text font-family="Calibri,Calibri_MSFontService,sans-serif" font-style="italic" font-weight="400" font-size="48" transform="matrix(1 0 0 1 1903.33 660)">Retry pattern</text><text font-family="Calibri,Calibri_MSFontService,sans-serif" font-style="italic" font-weight="400" font-size="48" transform="matrix(1 0 0 1 1870.09 763)">Circuit</text><text font-family="Calibri,Calibri_MSFontService,sans-serif" font-style="italic" font-weight="400" font-size="48" transform="matrix(1 0 0 1 1994.41 763)">-</text><text font-family="Calibri,Calibri_MSFontService,sans-serif" font-style="italic" font-weight="400" font-size="48" transform="matrix(1 0 0 1 2009.31 763)">breaker </text><text font-family="Calibri,Calibri_MSFontService,sans-serif" font-style="italic" font-weight="400" font-size="48" transform="matrix(1 0 0 1 1942 821)">pattern</text><text font-family="Calibri,Calibri_MSFontService,sans-serif" font-style="italic" font-weight="400" font-size="48" transform="matrix(1 0 0 1 2551.46 844)">Cache</text><text font-family="Calibri,Calibri_MSFontService,sans-serif" font-style="italic" font-weight="400" font-size="48" transform="matrix(1 0 0 1 2668.91 844)">-</text><text font-family="Calibri,Calibri_MSFontService,sans-serif" font-style="italic" font-weight="400" font-size="48" transform="matrix(1 0 0 1 2683.81 844)">Aside pattern</text><rect x="1283" y="746" width="490" height="68.0001" fill="#F2F2F2"/><text fill="#0070C0" font-family="Calibri,Calibri_MSFontService,sans-serif" font-style="italic" font-weight="700" font-size="46" transform="matrix(1 0 0 1 1400.11 806)">Retry pattern</text></g></svg>