<svg width="2619" height="2270" xmlns="http://www.w3.org/2000/svg" xmlns:xlink="http://www.w3.org/1999/xlink" xml:space="preserve" overflow="hidden"><g transform="translate(-422 -170)"><path d="M422 490.004C422 391.695 501.695 312 600.004 312L1312 312C1410.31 312 1490 391.695 1490 490.004L1490 2262C1490 2360.31 1410.31 2440 1312 2440L600.004 2440C501.695 2440 422 2360.31 422 2262Z" fill="#F2F2F2" fill-rule="evenodd"/><path d="M507 561.503C507 500.474 556.474 451 617.502 451L1303.5 451C1364.53 451 1414 500.474 1414 561.503L1414 1003.5C1414 1064.53 1364.53 1114 1303.5 1114L617.502 1114C556.474 1114 507 1064.53 507 1003.5Z" fill="#D9D9D9" fill-rule="evenodd"/><text font-family="Aptos,Aptos_MSFontService,sans-serif" font-weight="700" font-size="55" transform="matrix(1 0 0 1 726.165 551)">Network perimeter</text><path d="M506 1401.83C506 1369.89 531.893 1344 563.834 1344L1355.17 1344C1387.11 1344 1413 1369.89 1413 1401.83L1413 1633.16C1413 1665.1 1387.11 1691 1355.17 1691L563.834 1691C531.893 1691 506 1665.1 506 1633.16Z" fill="#D9D9D9" fill-rule="evenodd"/><text font-family="Aptos,Aptos_MSFontService,sans-serif" font-weight="700" font-size="55" transform="matrix(1 0 0 1 751.626 1429)">Web app hosting</text><text font-family="Aptos,Aptos_MSFontService,sans-serif" font-weight="400" font-size="55" transform="matrix(1 0 0 1 683.368 1640)">Web/Application server</text><path d="M506 1957C506 1918.34 537.34 1887 576.001 1887L1343 1887C1381.66 1887 1413 1918.34 1413 1957L1413 2237C1413 2275.66 1381.66 2307 1343 2307L576.001 2307C537.34 2307 506 2275.66 506 2237Z" fill="#D9D9D9" fill-rule="evenodd"/><text font-family="Aptos,Aptos_MSFontService,sans-serif" font-weight="700" font-size="55" transform="matrix(1 0 0 1 839.558 1975)">Database</text><text font-family="Aptos,Aptos_MSFontService,sans-serif" font-weight="400" font-size="55" transform="matrix(1 0 0 1 764.641 2264)">Database server</text><text font-family="Aptos,Aptos_MSFontService,sans-serif" font-weight="400" font-size="55" transform="matrix(1 0 0 1 843.49 1059)">Hardware</text><text font-family="Aptos,Aptos_MSFontService,sans-serif" font-weight="400" font-size="55" transform="matrix(1 0 0 1 840.254 785)">Hardware</text><path d="M3.43754 22.9166 3.43782 172.296-3.43718 172.296-3.43746 22.9166ZM-13.7499 27.5 0 0 13.7501 27.5ZM13.7503 167.713 0.000360892 195.213-13.7497 167.713Z" transform="matrix(1 0 0 -1 960.5 1886.71)"/><path d="M584.5 1488C584.5 1478.89 591.887 1471.5 601 1471.5L1320 1471.5C1329.11 1471.5 1336.5 1478.89 1336.5 1488L1336.5 1554C1336.5 1563.11 1329.11 1570.5 1320 1570.5L601 1570.5C591.887 1570.5 584.5 1563.11 584.5 1554Z" stroke="#000000" stroke-width="6.875" stroke-miterlimit="8" fill="#FFFFFF" fill-rule="evenodd"/><text font-family="Aptos,Aptos_MSFontService,sans-serif" font-weight="400" font-size="55" transform="matrix(1 0 0 1 789.552 1538)">Web app code</text><path d="M582.5 2046.5C582.5 2031.04 595.036 2018.5 610.5 2018.5L1307.5 2018.5C1322.96 2018.5 1335.5 2031.04 1335.5 2046.5L1335.5 2158.5C1335.5 2173.96 1322.96 2186.5 1307.5 2186.5L610.5 2186.5C595.036 2186.5 582.5 2173.96 582.5 2158.5Z" stroke="#000000" stroke-width="6.875" stroke-miterlimit="8" fill="#FFFFFF" fill-rule="evenodd"/><text font-family="Aptos,Aptos_MSFontService,sans-serif" font-weight="400" font-size="55" transform="matrix(1 0 0 1 680.206 2087)">Database management </text><text font-family="Aptos,Aptos_MSFontService,sans-serif" font-weight="400" font-size="55" transform="matrix(1 0 0 1 873.21 2153)">system</text><path d="M580.5 627.001C580.5 617.888 587.888 610.5 597.001 610.5L1316 610.5C1325.11 610.5 1332.5 617.888 1332.5 627.001L1332.5 692.999C1332.5 702.112 1325.11 709.5 1316 709.5L597.001 709.5C587.888 709.5 580.5 702.112 580.5 692.999Z" stroke="#000000" stroke-width="6.875" stroke-miterlimit="8" fill="#FFFFFF" fill-rule="evenodd"/><text font-family="Aptos,Aptos_MSFontService,sans-serif" font-weight="400" font-size="55" transform="matrix(1 0 0 1 670.258 678)">Web application firewall</text><path d="M583.5 903C583.5 893.888 590.887 886.5 600 886.5L1320 886.5C1329.11 886.5 1336.5 893.888 1336.5 903L1336.5 969C1336.5 978.113 1329.11 985.5 1320 985.5L600 985.5C590.887 985.5 583.5 978.113 583.5 969Z" stroke="#000000" stroke-width="6.875" stroke-miterlimit="8" fill="#FFFFFF" fill-rule="evenodd"/><text font-family="Aptos,Aptos_MSFontService,sans-serif" font-weight="400" font-size="55" transform="matrix(1 0 0 1 789.578 954)">Load balancer</text><path d="M3.54663 22.9 4.42685 207.666-2.44808 207.699-3.32829 22.9328ZM-13.6188 27.5652 0 0 13.8809 27.4342ZM14.7174 203.034 1.09856 230.599-12.7823 203.165Z" transform="matrix(-1 0 0 1 961.599 1114.5)"/><text font-family="Aptos,Aptos_MSFontService,sans-serif" font-weight="400" font-size="83" transform="matrix(1 0 0 1 726.911 271)">On</text><text font-family="Aptos,Aptos_MSFontService,sans-serif" font-weight="400" font-size="83" transform="matrix(1 0 0 1 832.328 271)">-</text><text font-family="Aptos,Aptos_MSFontService,sans-serif" font-weight="400" font-size="83" transform="matrix(1 0 0 1 860.4 271)">premises</text><path d="M1738 525.171C1738 405.231 1835.23 308 1955.17 308L2823.83 308C2943.77 308 3041 405.231 3041 525.171L3041 2222.83C3041 2342.77 2943.77 2440 2823.83 2440L1955.17 2440C1835.23 2440 1738 2342.77 1738 2222.83Z" fill="#F2F2F2" fill-rule="evenodd"/><path d="M1872.5 1195.34C1872.5 1099.88 1949.88 1022.5 2045.34 1022.5L2736.66 1022.5C2832.12 1022.5 2909.5 1099.88 2909.5 1195.34L2909.5 2196.66C2909.5 2292.12 2832.12 2369.5 2736.66 2369.5L2045.34 2369.5C1949.88 2369.5 1872.5 2292.12 1872.5 2196.66Z" stroke="#000000" stroke-width="6.875" stroke-miterlimit="8" stroke-dasharray="6.875 6.875" fill="#FFFFFF" fill-rule="evenodd"/><path d="M1939 1182.17C1939 1131.82 1979.82 1091 2030.17 1091L2755.83 1091C2806.18 1091 2847 1131.82 2847 1182.17L2847 1546.83C2847 1597.18 2806.18 1638 2755.83 1638L2030.17 1638C1979.82 1638 1939 1597.18 1939 1546.83Z" fill="#0070C0" fill-rule="evenodd"/><text fill="#FFFFFF" font-family="Aptos,Aptos_MSFontService,sans-serif" font-weight="400" font-size="55" transform="matrix(1 0 0 1 2194.29 1186)">W</text><text fill="#FFFFFF" font-family="Aptos,Aptos_MSFontService,sans-serif" font-weight="400" font-size="55" transform="matrix(1 0 0 1 2242.19 1186)">eb </text><text fill="#FFFFFF" font-family="Aptos,Aptos_MSFontService,sans-serif" font-weight="400" font-size="55" transform="matrix(1 0 0 1 2313.81 1186)">app hosting</text><path d="M2017.5 1283.67C2017.5 1250.99 2043.99 1224.5 2076.67 1224.5L2710.33 1224.5C2743.01 1224.5 2769.5 1250.99 2769.5 1283.67L2769.5 1520.33C2769.5 1553.01 2743.01 1579.5 2710.33 1579.5L2076.67 1579.5C2043.99 1579.5 2017.5 1553.01 2017.5 1520.33Z" stroke="#FFFFFF" stroke-width="6.875" stroke-miterlimit="8" fill="#FFFFFF" fill-rule="evenodd"/><text fill="#0070C0" font-family="Aptos,Aptos_MSFontService,sans-serif" font-weight="400" font-size="55" transform="matrix(1 0 0 1 2225.44 1308)">Code updates</text><path d="M2411 2139C2411 2129.06 2419.06 2121 2429 2121L2756 2121C2765.94 2121 2774 2129.06 2774 2139L2774 2211C2774 2220.94 2765.94 2229 2756 2229L2429 2229C2419.06 2229 2411 2220.94 2411 2211Z" fill="#0070C0" fill-rule="evenodd"/><text fill="#FFFFFF" font-family="Aptos,Aptos_MSFontService,sans-serif" font-weight="400" font-size="55" transform="matrix(1 0 0 1 2477.22 2193)">D</text><text fill="#FFFFFF" font-family="Aptos,Aptos_MSFontService,sans-serif" font-weight="400" font-size="55" transform="matrix(1 0 0 1 2514.99 2193)">atabase</text><path d="M1959 1909.83C1959 1894.46 1971.46 1882 1986.83 1882L2310.17 1882C2325.54 1882 2338 1894.46 2338 1909.83L2338 2021.17C2338 2036.54 2325.54 2049 2310.17 2049L1986.83 2049C1971.46 2049 1959 2036.54 1959 2021.17Z" fill="#0070C0" fill-rule="evenodd"/><text fill="#FFFFFF" font-family="Aptos,Aptos_MSFontService,sans-serif" font-weight="400" font-size="55" transform="matrix(1 0 0 1 2007.3 1950)">Other cloud </text><text fill="#FFFFFF" font-family="Aptos,Aptos_MSFontService,sans-serif" font-weight="400" font-size="55" transform="matrix(1 0 0 1 2049.58 2016)">services</text><text fill="#0070C0" font-family="Arial,Arial_MSFontService,sans-serif" font-weight="400" font-size="55" transform="matrix(1 0 0 1 2069.81 1391)">•</text><text fill="#0070C0" font-family="Aptos,Aptos_MSFontService,sans-serif" font-style="italic" font-weight="400" font-size="55" transform="matrix(1 0 0 1 2131.69 1391)">Retry </text><text fill="#0070C0" font-family="Aptos,Aptos_MSFontService,sans-serif" font-style="italic" font-weight="400" font-size="55" transform="matrix(1 0 0 1 2265.89 1391)">pattern</text><text fill="#0070C0" font-family="Arial,Arial_MSFontService,sans-serif" font-weight="400" font-size="55" transform="matrix(1 0 0 1 2069.81 1457)">•</text><text fill="#0070C0" font-family="Aptos,Aptos_MSFontService,sans-serif" font-style="italic" font-weight="400" font-size="55" transform="matrix(1 0 0 1 2131.69 1457)">Circuit</text><text fill="#0070C0" font-family="Aptos,Aptos_MSFontService,sans-serif" font-style="italic" font-weight="400" font-size="55" transform="matrix(1 0 0 1 2289.28 1457)">-</text><text fill="#0070C0" font-family="Aptos,Aptos_MSFontService,sans-serif" font-style="italic" font-weight="400" font-size="55" transform="matrix(1 0 0 1 2308.19 1457)">breaker pattern</text><text fill="#0070C0" font-family="Arial,Arial_MSFontService,sans-serif" font-weight="400" font-size="55" transform="matrix(1 0 0 1 2069.81 1523)">•</text><text fill="#0070C0" font-family="Aptos,Aptos_MSFontService,sans-serif" font-style="italic" font-weight="400" font-size="55" transform="matrix(1 0 0 1 2131.69 1523)">Cache</text><text fill="#0070C0" font-family="Aptos,Aptos_MSFontService,sans-serif" font-style="italic" font-weight="400" font-size="55" transform="matrix(1 0 0 1 2288.09 1523)">-</text><text fill="#0070C0" font-family="Aptos,Aptos_MSFontService,sans-serif" font-style="italic" font-weight="400" font-size="55" transform="matrix(1 0 0 1 2307 1523)">aside </text><text fill="#0070C0" font-family="Aptos,Aptos_MSFontService,sans-serif" font-style="italic" font-weight="400" font-size="55" transform="matrix(1 0 0 1 2447.36 1523)">pattern</text><path d="M1938 658.834C1938 626.341 1964.34 600 1996.83 600L2787.17 600C2819.66 600 2846 626.341 2846 658.834L2846 894.166C2846 926.659 2819.66 953 2787.17 953L1996.83 953C1964.34 953 1938 926.659 1938 894.166Z" fill="#FFFFFF" fill-rule="evenodd"/><text fill="#0070C0" font-family="Aptos,Aptos_MSFontService,sans-serif" font-weight="700" font-size="55" transform="matrix(1 0 0 1 2157.42 685)">Network perimeter</text><path d="M2410 1903C2410 1893.06 2418.06 1885 2428 1885L2755 1885C2764.94 1885 2773 1893.06 2773 1903L2773 1975C2773 1984.94 2764.94 1993 2755 1993L2428 1993C2418.06 1993 2410 1984.94 2410 1975Z" fill="#0070C0" fill-rule="evenodd"/><text fill="#FFFFFF" font-family="Aptos,Aptos_MSFontService,sans-serif" font-weight="400" font-size="55" transform="matrix(1 0 0 1 2514 1957)">C</text><text fill="#FFFFFF" font-family="Aptos,Aptos_MSFontService,sans-serif" font-weight="400" font-size="55" transform="matrix(1 0 0 1 2551.81 1957)">ache</text><path d="M2589.38 2098.78 2589.06 1993.51 2595.94 1993.49 2596.25 2098.76ZM2606.55 2094.14 2592.88 2121.68 2579.05 2094.23Z"/><path d="M2012.5 841C2012.5 831.888 2019.89 824.5 2029 824.5L2747 824.5C2756.11 824.5 2763.5 831.888 2763.5 841L2763.5 907C2763.5 916.113 2756.11 923.5 2747 923.5L2029 923.5C2019.89 923.5 2012.5 916.113 2012.5 907Z" stroke="#FFFFFF" stroke-width="6.875" stroke-miterlimit="8" fill="#0070C0" fill-rule="evenodd"/><text fill="#FFFFFF" font-family="Aptos,Aptos_MSFontService,sans-serif" font-weight="400" font-size="55" transform="matrix(1 0 0 1 2217.39 892)">Load balancer</text><path d="M2395.94 953.47 2396.94 1069.3 2390.06 1069.35 2389.06 953.53ZM2407.21 1064.62 2393.7 1092.24 2379.71 1064.86Z"/><path d="M2017.5 733.001C2017.5 723.888 2024.89 716.5 2034 716.5L2753 716.5C2762.11 716.5 2769.5 723.888 2769.5 733.001L2769.5 798.999C2769.5 808.112 2762.11 815.5 2753 815.5L2034 815.5C2024.89 815.5 2017.5 808.112 2017.5 798.999Z" stroke="#FFFFFF" stroke-width="6.875" stroke-miterlimit="8" fill="#0070C0" fill-rule="evenodd"/><text fill="#FFFFFF" font-family="Aptos,Aptos_MSFontService,sans-serif" font-weight="400" font-size="55" transform="matrix(1 0 0 1 2106.89 784)">Web application firewall</text><text font-family="Aptos,Aptos_MSFontService,sans-serif" font-weight="700" font-size="55" transform="matrix(1 0 0 1 2146.16 386)">Monolithic web app</text><path d="M2110.5 2346.5C2110.5 2340.42 2115.43 2335.5 2121.5 2335.5L2645.5 2335.5C2651.58 2335.5 2656.5 2340.42 2656.5 2346.5L2656.5 2390.5C2656.5 2396.58 2651.58 2401.5 2645.5 2401.5L2121.5 2401.5C2115.43 2401.5 2110.5 2396.58 2110.5 2390.5Z" stroke="#000000" stroke-width="6.875" stroke-miterlimit="8" stroke-dasharray="6.875 6.875" fill="#FFFFFF" fill-rule="evenodd"/><text fill="#0070C0" font-family="Aptos,Aptos_MSFontService,sans-serif" font-style="italic" font-weight="400" font-size="48" transform="matrix(1 0 0 1 2186.88 2383)">Managed identities</text><text font-family="Aptos,Aptos_MSFontService,sans-serif" font-weight="400" font-size="83" transform="matrix(1 0 0 1 1931.69 271)">Reliable Web App pattern</text><path d="M22.9166-3.4375 213.929-3.4375 213.929 198.697 210.491 195.259 306.057 195.259 306.057 202.134 207.054 202.134 207.054 0 210.491 3.4375 22.9166 3.4375ZM27.5 13.75 0 0 27.5-13.75Z" transform="matrix(-1.83697e-16 -1 -1 1.83697e-16 2592.2 1885.56)"/><path d="M2146.06 1859.93 2146.06 1670.27 2393.91 1670.27 2390.47 1673.71 2390.47 1579.5 2397.34 1579.5 2397.34 1677.15 2149.5 1677.15 2152.94 1673.71 2152.94 1859.93ZM2163.25 1855.34 2149.5 1882.84 2135.75 1855.34Z"/><path d="M1905.5 486.5C1905.5 480.425 1910.42 475.5 1916.5 475.5L2289.5 475.5C2295.57 475.5 2300.5 480.425 2300.5 486.5L2300.5 530.5C2300.5 536.575 2295.57 541.5 2289.5 541.5L1916.5 541.5C1910.42 541.5 1905.5 536.575 1905.5 530.5Z" stroke="#000000" stroke-width="6.875" stroke-miterlimit="8" stroke-dasharray="6.875 6.875" fill="#F2F2F2" fill-rule="evenodd"/><text fill="#0070C0" font-family="Aptos,Aptos_MSFontService,sans-serif" font-style="italic" font-weight="400" font-size="48" transform="matrix(1 0 0 1 2048.92 523)">PaaS</text><path d="M2332.5 486.5C2332.5 480.425 2337.42 475.5 2343.5 475.5L2891.5 475.5C2897.57 475.5 2902.5 480.425 2902.5 486.5L2902.5 530.499C2902.5 536.575 2897.57 541.5 2891.5 541.5L2343.5 541.5C2337.42 541.5 2332.5 536.575 2332.5 530.499Z" stroke="#000000" stroke-width="6.875" stroke-miterlimit="8" stroke-dasharray="6.875 6.875" fill="#F2F2F2" fill-rule="evenodd"/><text fill="#0070C0" font-family="Aptos,Aptos_MSFontService,sans-serif" font-style="italic" font-weight="400" font-size="48" transform="matrix(1 0 0 1 2387.92 523)">Infrastructure as code</text><path d="M2110.5 1738.5C2110.5 1731.32 2116.32 1725.5 2123.5 1725.5L2598.5 1725.5C2605.68 1725.5 2611.5 1731.32 2611.5 1738.5L2611.5 1790.5C2611.5 1797.68 2605.68 1803.5 2598.5 1803.5L2123.5 1803.5C2116.32 1803.5 2110.5 1797.68 2110.5 1790.5Z" stroke="#000000" stroke-width="6.875" stroke-miterlimit="8" stroke-dasharray="6.875 6.875" fill="#FFFFFF" fill-rule="evenodd"/><text fill="#0070C0" font-family="Aptos,Aptos_MSFontService,sans-serif" font-style="italic" font-weight="400" font-size="48" transform="matrix(1 0 0 1 2179.72 1779)">Private endpoints</text><path d="M1535 1333.25 1651.5 1333.25 1651.5 1302 1714 1364.5 1651.5 1427 1651.5 1395.75 1535 1395.75Z" fill="#D9D9D9" fill-rule="evenodd"/></g></svg>