<svg width="960" height="720" xmlns="http://www.w3.org/2000/svg" xmlns:xlink="http://www.w3.org/1999/xlink" overflow="hidden"><defs><clipPath id="clip0"><rect x="0" y="0" width="960" height="720"/></clipPath></defs><g clip-path="url(#clip0)"><rect x="0" y="0" width="960" height="720" fill="#FFFFFF"/><path d="M34 39 469 39 469 474 34 474Z" fill="#212121" fill-rule="evenodd"/><path d="M34 39 469 39 469 474 34 474Z" fill="#212121" fill-rule="evenodd" fill-opacity="0.34902"/><path d="M32 37 468 37 468 473 32 473Z" fill="#FFFFFF" fill-rule="evenodd"/><path d="M32 37 468 37 468 473 32 473Z" fill="#FF9300" fill-rule="evenodd" fill-opacity="0.34902"/><path d="M47 52 456 52 456 461 47 461Z" fill="#212121" fill-rule="evenodd"/><path d="M47.5001 52.5001 456.5 52.5001 456.5 461.5 47.5001 461.5Z" stroke="#212121" stroke-width="0.340262" stroke-miterlimit="8" fill="none" fill-rule="evenodd"/><path d="M46 51 454 51 454 459 46 459Z" fill="#FFFFFF" fill-rule="evenodd"/><path d="M46.5001 51.5001 454.5 51.5001 454.5 459.5 46.5001 459.5Z" stroke="#6BB9F2" stroke-width="0.340262" stroke-miterlimit="8" fill="none" fill-rule="evenodd"/><path d="M492 37 928 37 928 473 492 473Z" fill="#FFFFFF" fill-rule="evenodd"/><path d="M492 37 928 37 928 473 492 473Z" fill="#1B93EB" fill-rule="evenodd" fill-opacity="0.501961"/><path d="M507 52 915 52 915 461 507 461Z" fill="#212121" fill-rule="evenodd"/><path d="M507.5 52.5001 915.5 52.5001 915.5 461.5 507.5 461.5Z" stroke="#212121" stroke-width="0.340262" stroke-miterlimit="8" fill="none" fill-rule="evenodd"/><path d="M505 51 914 51 914 459 505 459Z" fill="#FFFFFF" fill-rule="evenodd"/><path d="M505.5 51.5001 914.5 51.5001 914.5 459.5 505.5 459.5Z" stroke="#6BB9F2" stroke-width="0.340262" stroke-miterlimit="8" fill="none" fill-rule="evenodd"/><path d="M264 488 929 488 929 679 264 679Z" fill="#212121" fill-rule="evenodd"/><path d="M264 488 929 488 929 679 264 679Z" fill="#212121" fill-rule="evenodd" fill-opacity="0.34902"/><path d="M263 487 928 487 928 677 263 677Z" fill="#FFFFFF" fill-rule="evenodd"/><path d="M263 487 928 487 928 677 263 677Z" fill="#B4EC36" fill-rule="evenodd" fill-opacity="0.34902"/><path d="M276 500 915 500 915 667 276 667Z" fill="#212121" fill-rule="evenodd"/><path d="M276.5 500.5 915.5 500.5 915.5 667.5 276.5 667.5Z" stroke="#212121" stroke-width="0.340262" stroke-miterlimit="8" fill="none" fill-rule="evenodd"/><path d="M275 499 914 499 914 666 275 666Z" fill="#FFFFFF" fill-rule="evenodd"/><path d="M275.5 499.5 914.5 499.5 914.5 666.5 275.5 666.5Z" stroke="#6BB9F2" stroke-width="0.340262" stroke-miterlimit="8" fill="none" fill-rule="evenodd"/><path d="M167.135 367.692C158.168 374.643 145.262 373.009 138.309 364.044 131.357 355.079 132.99 342.176 141.958 335.225L142.175 335.08C151.266 328.296 164.135 330.164 170.919 339.253 177.59 348.187 175.911 360.811 167.135 367.692" fill="#5EA0EF" fill-rule="evenodd"/><path d="M149.159 347C154.783 341.534 162.239 338.472 170 338.442 168.981 337.153 167.81 335.997 166.514 335 162.739 335.238 159.03 336.127 155.544 337.629 151.955 339.205 148.71 341.496 146 344.371 147.303 344.875 148.411 345.798 149.159 347Z" fill="#FFFFFF" fill-rule="evenodd" fill-opacity="0.6"/><path d="M138.844 355C138.081 357.234 137.464 359.533 137 361.878 137.41 362.72 137.871 363.529 138.378 364.293 138.778 364.898 139.156 365.449 139.6 366 140.137 362.875 140.941 359.823 142 356.891 140.814 356.64 139.717 355.983 138.844 355Z" fill="#FFFFFF" fill-rule="evenodd" fill-opacity="0.6"/><path d="M141 344.677C140.211 342.204 139.693 339.625 139.458 337 138.52 338.151 137.695 339.421 137 340.786 137.253 342.9 137.679 344.981 138.274 347 138.973 345.938 139.919 345.132 141 344.677Z" fill="#F2F2F2" fill-rule="evenodd" fill-opacity="0.54902"/><path d="M150 350.5C150 354.09 147.09 357 143.5 357 139.91 357 137 354.09 137 350.5 137 346.91 139.91 344 143.5 344 147.09 344 150 346.91 150 350.5Z" fill="#CCCCCC" fill-rule="evenodd"/><path d="M152.658 362.454C152.659 361.313 153.144 360.222 154 359.43 151.706 358.227 149.591 356.737 147.707 355 146.723 356.02 145.424 356.712 144 356.976 145.122 358.076 146.328 359.096 147.607 360.024 149.2 361.176 150.908 362.173 152.707 363 152.679 362.821 152.662 362.638 152.658 362.454Z" fill="#F2F2F2" fill-rule="evenodd" fill-opacity="0.54902"/><path d="M167.803 362.795C165.585 362.796 163.375 362.53 161.216 362 161.228 362.091 161.228 362.183 161.216 362.273 161.219 363.426 160.782 364.534 160 365.352 162.685 365.905 165.427 366.106 168.161 365.947 169.221 364.95 170.174 363.833 171 362.62 169.939 362.745 168.871 362.802 167.803 362.795Z" fill="#F2F2F2" fill-rule="evenodd" fill-opacity="0.54902"/><path d="M161 362.5C161 364.985 159.209 367 157 367 154.791 367 153 364.985 153 362.5 153 360.015 154.791 358 157 358 159.209 358 161 360.015 161 362.5Z" fill="#CCCCCC" fill-rule="evenodd"/><path d="M162.546 351C162.756 350.078 163.268 349.25 164 348.642 160.075 345.82 156.505 342.544 153.367 338.883 151.538 336.76 149.94 334.453 148.599 332 147.709 332.264 146.84 332.595 146 332.99 147.435 335.661 149.154 338.173 151.126 340.486 154.479 344.445 158.315 347.977 162.546 351Z" fill="#F2F2F2" fill-rule="evenodd" fill-opacity="0.701961"/><path d="M171 352.5C171 354.985 168.985 357 166.5 357 164.015 357 162 354.985 162 352.5 162 350.015 164.015 348 166.5 348 168.985 348 171 350.015 171 352.5Z" fill="#CCCCCC" fill-rule="evenodd"/><path d="M174 355.024 173.296 354.559 173.296 354.559 172.694 354.121 172.573 354.121 172.05 353.547 171.909 353.547 171.286 353C171.07 354.007 170.618 354.889 170 355.514 170.241 355.732 170.503 355.924 170.764 356.115L170.924 356.252 171.628 356.771 171.628 356.771 173.357 358 173.357 358C173.6 357.008 173.794 355.995 173.94 354.967L174 355.024Z" fill="#F2F2F2" fill-rule="evenodd" fill-opacity="0.54902"/><path d="M150 350.5C150 354.09 147.09 357 143.5 357 139.91 357 137 354.09 137 350.5 137 346.91 139.91 344 143.5 344 147.09 344 150 346.91 150 350.5Z" fill="#CCCCCC" fill-rule="evenodd"/><path d="M161 362.5C161 364.985 159.209 367 157 367 154.791 367 153 364.985 153 362.5 153 360.015 154.791 358 157 358 159.209 358 161 360.015 161 362.5Z" fill="#CCCCCC" fill-rule="evenodd"/><path d="M357.135 573.692C348.168 580.643 335.262 579.009 328.309 570.044 321.357 561.079 322.99 548.176 331.958 541.225L332.175 541.08C341.266 534.296 354.135 536.164 360.919 545.253 367.59 554.188 365.911 566.812 357.135 573.692" fill="#5EA0EF" fill-rule="evenodd"/><path d="M339.159 553C344.783 547.534 352.239 544.472 360 544.442 358.981 543.153 357.81 541.997 356.514 541 352.739 541.238 349.03 542.127 345.544 543.629 341.955 545.205 338.71 547.496 336 550.371 337.303 550.875 338.411 551.798 339.159 553Z" fill="#FFFFFF" fill-rule="evenodd" fill-opacity="0.6"/><path d="M328.844 562C328.081 564.031 327.464 566.121 327 568.253 327.41 569.019 327.871 569.753 328.378 570.449 328.778 570.998 329.156 571.499 329.6 572 330.137 569.159 330.942 566.384 332 563.719 330.815 563.491 329.717 562.893 328.844 562Z" fill="#FFFFFF" fill-rule="evenodd" fill-opacity="0.6"/><path d="M331 550.909C330.211 548.684 329.693 546.362 329.458 544 328.52 545.036 327.695 546.179 327 547.407 327.253 549.31 327.679 551.183 328.274 553 328.974 552.044 329.919 551.318 331 550.909Z" fill="#F2F2F2" fill-rule="evenodd" fill-opacity="0.54902"/><path d="M340 556.5C340 560.09 337.09 563 333.5 563 329.91 563 327 560.09 327 556.5 327 552.91 329.91 550 333.5 550 337.09 550 340 552.91 340 556.5Z" fill="#CCCCCC" fill-rule="evenodd"/><path d="M342.792 568.453C342.793 567.312 343.23 566.222 344 565.429 341.936 564.226 340.032 562.736 338.336 561 337.451 562.02 336.282 562.712 335 562.976 336.009 564.075 337.095 565.095 338.246 566.024 339.68 567.176 341.217 568.173 342.836 569 342.811 568.82 342.796 568.636 342.792 568.453Z" fill="#F2F2F2" fill-rule="evenodd" fill-opacity="0.54902"/><path d="M357.802 569.596C355.584 569.597 353.374 569.397 351.216 569 351.229 569.068 351.229 569.137 351.216 569.204 351.219 570.069 350.782 570.901 350 571.514 352.685 571.929 355.427 572.08 358.161 571.961 359.221 571.213 360.174 570.375 361 569.465 359.938 569.558 358.87 569.602 357.802 569.596Z" fill="#F2F2F2" fill-rule="evenodd" fill-opacity="0.54902"/><path d="M351 569C351 571.209 349.209 573 347 573 344.791 573 343 571.209 343 569 343 566.791 344.791 565 347 565 349.209 565 351 566.791 351 569Z" fill="#CCCCCC" fill-rule="evenodd"/><path d="M352.546 557C352.756 556.078 353.268 555.25 354 554.642 350.075 551.82 346.505 548.544 343.367 544.883 341.538 542.76 339.94 540.453 338.599 538 337.709 538.264 336.84 538.595 336 538.99 337.435 541.661 339.154 544.173 341.126 546.486 344.479 550.445 348.315 553.977 352.546 557Z" fill="#F2F2F2" fill-rule="evenodd" fill-opacity="0.701961"/><path d="M361 558.5C361 560.985 358.985 563 356.5 563 354.015 563 352 560.985 352 558.5 352 556.015 354.015 554 356.5 554 358.985 554 361 556.015 361 558.5Z" fill="#CCCCCC" fill-rule="evenodd"/><path d="M365 561.024 364.12 560.558 364.12 560.558 363.367 560.121 363.216 560.121 362.563 559.547 362.386 559.547 361.608 559C361.337 560.007 360.773 560.889 360 561.514 360.301 561.732 360.628 561.924 360.955 562.115L361.155 562.251 362.035 562.771 362.035 562.771 364.196 564 364.196 564C364.5 563.008 364.743 561.995 364.925 560.967L365 561.024Z" fill="#F2F2F2" fill-rule="evenodd" fill-opacity="0.54902"/><path d="M340 556.5C340 560.09 337.09 563 333.5 563 329.91 563 327 560.09 327 556.5 327 552.91 329.91 550 333.5 550 337.09 550 340 552.91 340 556.5Z" fill="#CCCCCC" fill-rule="evenodd"/><path d="M351 569C351 571.209 349.209 573 347 573 344.791 573 343 571.209 343 569 343 566.791 344.791 565 347 565 349.209 565 351 566.791 351 569Z" fill="#CCCCCC" fill-rule="evenodd"/><path d="M589.136 572.692C580.168 579.643 567.262 578.009 560.309 569.044 553.357 560.079 554.99 547.176 563.958 540.225L564.175 540.08C573.266 533.296 586.135 535.164 592.919 544.253 599.59 553.187 597.91 565.812 589.136 572.692" fill="#5EA0EF" fill-rule="evenodd"/><path d="M571.29 553C577.149 547.078 584.915 543.761 593 543.729 591.939 542.333 590.719 541.08 589.369 540 585.436 540.258 581.572 541.22 577.942 542.848 574.203 544.555 570.823 547.037 568 550.152 569.358 550.698 570.512 551.698 571.29 553Z" fill="#FFFFFF" fill-rule="evenodd" fill-opacity="0.6"/><path d="M560.844 561C560.081 563.031 559.464 565.121 559 567.253 559.41 568.019 559.871 568.753 560.378 569.449 560.778 569.998 561.156 570.499 561.6 571 562.137 568.159 562.942 565.384 564 562.719 562.815 562.491 561.717 561.893 560.844 561Z" fill="#FFFFFF" fill-rule="evenodd" fill-opacity="0.6"/><path d="M563 549.909C562.211 547.683 561.693 545.362 561.458 543 560.52 544.036 559.695 545.179 559 546.407 559.252 548.31 559.679 550.183 560.274 552 560.973 551.043 561.919 550.318 563 549.909Z" fill="#F2F2F2" fill-rule="evenodd" fill-opacity="0.54902"/><path d="M572 556C572 559.866 569.09 563 565.5 563 561.91 563 559 559.866 559 556 559 552.134 561.91 549 565.5 549 569.09 549 572 552.134 572 556Z" fill="#CCCCCC" fill-rule="evenodd"/><path d="M574.792 568.454C574.793 567.313 575.23 566.222 576 565.43 573.936 564.227 572.032 562.737 570.336 561 569.451 562.02 568.282 562.712 567 562.976 568.009 564.076 569.095 565.096 570.246 566.024 571.68 567.176 573.218 568.173 574.836 569 574.81 568.821 574.796 568.638 574.792 568.454Z" fill="#F2F2F2" fill-rule="evenodd" fill-opacity="0.54902"/><path d="M590.513 568.795C588.093 568.797 585.682 568.53 583.327 568 583.34 568.091 583.34 568.183 583.327 568.273 583.33 569.426 582.853 570.534 582 571.352 584.929 571.905 587.921 572.106 590.903 571.947 592.059 570.95 593.099 569.833 594 568.62 592.842 568.743 591.679 568.802 590.513 568.795Z" fill="#F2F2F2" fill-rule="evenodd" fill-opacity="0.54902"/><path d="M584 568C584 570.209 581.985 572 579.5 572 577.015 572 575 570.209 575 568 575 565.791 577.015 564 579.5 564 581.985 564 584 565.791 584 568Z" fill="#CCCCCC" fill-rule="evenodd"/><path d="M584.546 557C584.756 556.03 585.268 555.158 586 554.518 582.075 551.548 578.505 548.099 575.367 544.245 573.538 542.01 571.94 539.582 570.599 537 569.709 537.278 568.84 537.626 568 538.042 569.435 540.853 571.154 543.498 573.126 545.932 576.477 550.1 580.313 553.818 584.546 557Z" fill="#F2F2F2" fill-rule="evenodd" fill-opacity="0.701961"/><path d="M594 557.5C594 559.985 591.985 562 589.5 562 587.015 562 585 559.985 585 557.5 585 555.015 587.015 553 589.5 553 591.985 553 594 555.015 594 557.5Z" fill="#CCCCCC" fill-rule="evenodd"/><path d="M597 560.618 596.12 560.247 596.12 560.247 595.367 559.897 595.216 559.897 594.563 559.438 594.386 559.438 593.608 559C593.337 559.805 592.773 560.511 592 561.011 592.301 561.186 592.628 561.339 592.955 561.492L593.155 561.601 594.035 562.017 594.035 562.017 596.196 563 596.196 563C596.5 562.206 596.743 561.396 596.925 560.573L597 560.618Z" fill="#F2F2F2" fill-rule="evenodd" fill-opacity="0.54902"/><path d="M572 556C572 559.866 569.09 563 565.5 563 561.91 563 559 559.866 559 556 559 552.134 561.91 549 565.5 549 569.09 549 572 552.134 572 556Z" fill="#CCCCCC" fill-rule="evenodd"/><path d="M584 568C584 570.209 581.985 572 579.5 572 577.015 572 575 570.209 575 568 575 565.791 577.015 564 579.5 564 581.985 564 584 565.791 584 568Z" fill="#CCCCCC" fill-rule="evenodd"/><path d="M357.135 367.692C348.168 374.643 335.262 373.009 328.309 364.044 321.357 355.079 322.99 342.176 331.958 335.225L332.175 335.08C341.266 328.296 354.135 330.164 360.919 339.253 367.59 348.187 365.911 360.811 357.135 367.692" fill="#5EA0EF" fill-rule="evenodd"/><path d="M339.159 347C344.783 341.534 352.239 338.472 360 338.442 358.981 337.153 357.81 335.997 356.514 335 352.739 335.238 349.03 336.127 345.544 337.629 341.955 339.205 338.71 341.496 336 344.371 337.303 344.875 338.411 345.798 339.159 347Z" fill="#FFFFFF" fill-rule="evenodd" fill-opacity="0.6"/><path d="M328.844 355C328.081 357.234 327.464 359.533 327 361.878 327.41 362.72 327.871 363.529 328.378 364.293 328.778 364.898 329.156 365.449 329.6 366 330.137 362.875 330.942 359.823 332 356.891 330.815 356.64 329.717 355.983 328.844 355Z" fill="#FFFFFF" fill-rule="evenodd" fill-opacity="0.6"/><path d="M331 344.677C330.211 342.204 329.693 339.625 329.458 337 328.52 338.151 327.695 339.421 327 340.786 327.253 342.9 327.679 344.981 328.274 347 328.974 345.938 329.919 345.132 331 344.677Z" fill="#F2F2F2" fill-rule="evenodd" fill-opacity="0.54902"/><path d="M340 350.5C340 354.09 337.09 357 333.5 357 329.91 357 327 354.09 327 350.5 327 346.91 329.91 344 333.5 344 337.09 344 340 346.91 340 350.5Z" fill="#CCCCCC" fill-rule="evenodd"/><path d="M342.792 362.454C342.793 361.313 343.23 360.222 344 359.43 341.936 358.227 340.032 356.737 338.336 355 337.451 356.02 336.282 356.712 335 356.976 336.009 358.076 337.095 359.096 338.246 360.024 339.68 361.176 341.217 362.173 342.836 363 342.811 362.821 342.796 362.638 342.792 362.454Z" fill="#F2F2F2" fill-rule="evenodd" fill-opacity="0.54902"/><path d="M357.802 362.795C355.584 362.796 353.374 362.53 351.216 362 351.229 362.091 351.229 362.183 351.216 362.273 351.219 363.426 350.782 364.534 350 365.352 352.685 365.905 355.427 366.106 358.161 365.947 359.221 364.95 360.174 363.833 361 362.62 359.938 362.745 358.87 362.802 357.802 362.795Z" fill="#F2F2F2" fill-rule="evenodd" fill-opacity="0.54902"/><path d="M351 362.5C351 364.985 349.209 367 347 367 344.791 367 343 364.985 343 362.5 343 360.015 344.791 358 347 358 349.209 358 351 360.015 351 362.5Z" fill="#CCCCCC" fill-rule="evenodd"/><path d="M352.546 351C352.756 350.078 353.268 349.25 354 348.642 350.075 345.82 346.505 342.544 343.367 338.883 341.538 336.76 339.94 334.453 338.599 332 337.709 332.264 336.84 332.595 336 332.99 337.435 335.661 339.154 338.173 341.126 340.486 344.479 344.445 348.315 347.977 352.546 351Z" fill="#F2F2F2" fill-rule="evenodd" fill-opacity="0.701961"/><path d="M361 352.5C361 354.985 358.985 357 356.5 357 354.015 357 352 354.985 352 352.5 352 350.015 354.015 348 356.5 348 358.985 348 361 350.015 361 352.5Z" fill="#CCCCCC" fill-rule="evenodd"/><path d="M365 355.024 364.12 354.559 364.12 354.559 363.367 354.121 363.216 354.121 362.563 353.547 362.386 353.547 361.608 353C361.337 354.007 360.773 354.889 360 355.514 360.301 355.732 360.628 355.924 360.955 356.115L361.155 356.252 362.035 356.771 362.035 356.771 364.196 358 364.196 358C364.5 357.008 364.743 355.995 364.925 354.967L365 355.024Z" fill="#F2F2F2" fill-rule="evenodd" fill-opacity="0.54902"/><path d="M340 350.5C340 354.09 337.09 357 333.5 357 329.91 357 327 354.09 327 350.5 327 346.91 329.91 344 333.5 344 337.09 344 340 346.91 340 350.5Z" fill="#CCCCCC" fill-rule="evenodd"/><path d="M351 362.5C351 364.985 349.209 367 347 367 344.791 367 343 364.985 343 362.5 343 360.015 344.791 358 347 358 349.209 358 351 360.015 351 362.5Z" fill="#CCCCCC" fill-rule="evenodd"/><path d="M627.136 367.692C618.168 374.643 605.262 373.009 598.309 364.044 591.357 355.079 592.99 342.176 601.958 335.225L602.175 335.08C611.266 328.296 624.135 330.164 630.919 339.253 637.59 348.187 635.91 360.811 627.136 367.692" fill="#5EA0EF" fill-rule="evenodd"/><path d="M609.159 347C614.783 341.534 622.239 338.472 630 338.442 628.981 337.153 627.81 335.997 626.514 335 622.739 335.238 619.03 336.127 615.544 337.629 611.955 339.205 608.71 341.496 606 344.371 607.303 344.875 608.411 345.798 609.159 347Z" fill="#FFFFFF" fill-rule="evenodd" fill-opacity="0.6"/><path d="M598.844 355C598.081 357.234 597.464 359.533 597 361.878 597.41 362.72 597.871 363.529 598.378 364.293 598.778 364.898 599.156 365.449 599.6 366 600.137 362.875 600.941 359.823 602 356.891 600.815 356.64 599.717 355.983 598.844 355Z" fill="#FFFFFF" fill-rule="evenodd" fill-opacity="0.6"/><path d="M601 344.677C600.211 342.204 599.693 339.625 599.458 337 598.52 338.151 597.695 339.421 597 340.786 597.253 342.9 597.679 344.981 598.274 347 598.975 345.938 599.92 345.132 601 344.677Z" fill="#F2F2F2" fill-rule="evenodd" fill-opacity="0.54902"/><path d="M610 350.5C610 354.09 607.09 357 603.5 357 599.91 357 597 354.09 597 350.5 597 346.91 599.91 344 603.5 344 607.09 344 610 346.91 610 350.5Z" fill="#CCCCCC" fill-rule="evenodd"/><path d="M612.792 362.454C612.793 361.313 613.23 360.222 614 359.43 611.936 358.227 610.032 356.737 608.336 355 607.451 356.02 606.282 356.712 605 356.976 606.009 358.076 607.095 359.096 608.246 360.024 609.68 361.176 611.218 362.173 612.836 363 612.81 362.821 612.796 362.638 612.792 362.454Z" fill="#F2F2F2" fill-rule="evenodd" fill-opacity="0.54902"/><path d="M627.803 362.795C625.585 362.796 623.375 362.53 621.216 362 621.229 362.091 621.229 362.183 621.216 362.273 621.219 363.426 620.782 364.534 620 365.352 622.685 365.905 625.427 366.106 628.161 365.947 629.221 364.95 630.174 363.833 631 362.62 629.939 362.745 628.872 362.802 627.803 362.795Z" fill="#F2F2F2" fill-rule="evenodd" fill-opacity="0.54902"/><path d="M621 362.5C621 364.985 619.209 367 617 367 614.791 367 613 364.985 613 362.5 613 360.015 614.791 358 617 358 619.209 358 621 360.015 621 362.5Z" fill="#CCCCCC" fill-rule="evenodd"/><path d="M622.546 351C622.756 350.078 623.268 349.25 624 348.642 620.075 345.82 616.505 342.544 613.367 338.883 611.538 336.76 609.94 334.453 608.599 332 607.709 332.264 606.84 332.595 606 332.99 607.435 335.661 609.154 338.173 611.125 340.486 614.477 344.445 618.313 347.977 622.546 351Z" fill="#F2F2F2" fill-rule="evenodd" fill-opacity="0.701961"/><path d="M631 352.5C631 354.985 628.985 357 626.5 357 624.015 357 622 354.985 622 352.5 622 350.015 624.015 348 626.5 348 628.985 348 631 350.015 631 352.5Z" fill="#CCCCCC" fill-rule="evenodd"/><path d="M635 355.024 634.12 354.559 634.12 354.559 633.367 354.121 633.216 354.121 632.563 353.547 632.386 353.547 631.607 353C631.337 354.007 630.773 354.889 630 355.514 630.301 355.732 630.628 355.924 630.955 356.115L631.155 356.252 632.035 356.771 632.035 356.771 634.196 358 634.196 358C634.5 357.008 634.743 355.995 634.925 354.967L635 355.024Z" fill="#F2F2F2" fill-rule="evenodd" fill-opacity="0.54902"/><path d="M610 350.5C610 354.09 607.09 357 603.5 357 599.91 357 597 354.09 597 350.5 597 346.91 599.91 344 603.5 344 607.09 344 610 346.91 610 350.5Z" fill="#CCCCCC" fill-rule="evenodd"/><path d="M621 362.5C621 364.985 619.209 367 617 367 614.791 367 613 364.985 613 362.5 613 360.015 614.791 358 617 358 619.209 358 621 360.015 621 362.5Z" fill="#CCCCCC" fill-rule="evenodd"/><path d="M136 127.976C134.401 128.107 132.804 127.695 131.45 126.798 130.43 125.666 129.94 124.123 130.112 122.581L130.112 111.634C130.112 109.835 129.428 108.874 128 108.874L128 106.145C129.428 106.145 130.112 105.185 130.112 103.293L130.112 92.5311C129.949 90.9604 130.437 89.3941 131.45 88.2198 132.786 87.278 134.398 86.8598 136 87.0415L136 89.8014C134.483 89.8014 133.651 90.6393 133.651 92.4368L133.651 102.981C133.651 105.4 132.967 106.889 131.45 107.508 133.028 108.38 133.909 110.193 133.651 112.035L133.651 122.487C133.623 123.226 133.799 123.958 134.157 124.596 134.618 125.054 135.248 125.279 135.882 125.216L135.882 127.976 136 127.976Z" fill="#949494" fill-rule="evenodd"/><path d="M172 87.0238C173.799 86.8926 175.595 87.3055 177.119 88.2025 178.266 89.3346 178.817 90.8783 178.624 92.4206L178.624 103.371C178.624 105.171 179.394 106.132 181 106.132L181 108.861C179.394 108.861 178.624 109.822 178.624 111.715L178.624 122.355C178.812 123.936 178.265 125.515 177.119 126.698 175.631 127.675 173.815 128.127 172 127.969L172 125.209C173.706 125.209 174.643 124.371 174.643 122.573L174.643 112.025C174.643 109.605 175.412 108.116 177.119 107.497 175.343 106.624 174.352 104.811 174.643 102.968L174.643 92.5136C174.674 91.7738 174.476 91.0424 174.073 90.4038 173.554 89.9458 172.847 89.7202 172.133 89.7831L172 87.0238Z" fill="#949494" fill-rule="evenodd"/><path d="M155.838 105.015 155.838 101 153.038 101 153.038 105.015C153.038 105.329 152.787 105.583 152.478 105.583L152.478 105.583 142.12 105.583C141.502 105.583 141 106.093 141 106.722L141 111.937 143.8 111.937 143.8 109.06C143.8 108.757 144.031 108.508 144.329 108.491L164.672 108.491C164.982 108.491 165.232 108.746 165.232 109.06L165.232 109.06 165.232 112 168 112 168 106.72C168 106.104 167.517 105.6 166.911 105.582L156.398 105.582C156.088 105.585 155.838 105.329 155.838 105.015L155.838 105.015Z" fill="#005BA1" fill-rule="evenodd"/><path d="M159.772 89.0004 149.196 89.0004C148.548 89.0004 148.017 89.5202 148 90.1727L148 100.825C148 101.473 148.522 101.998 149.164 101.998 149.175 101.998 149.185 101.998 149.196 101.998L159.772 101.998C160.415 102.033 160.964 101.537 160.999 100.89 161 100.868 161 100.847 161 100.825L161 90.1727C160.982 89.5077 160.433 88.9836 159.772 89.0004 159.772 89.0004 159.772 89.0004 159.772 89.0004ZM158.765 99.0499C158.748 99.4747 158.4 99.8115 157.978 99.8101L150.959 99.8101C150.536 99.8101 150.189 99.4747 150.173 99.0499L150.173 91.9809C150.173 91.5435 150.525 91.1886 150.959 91.1886L157.853 91.1886C158.288 91.1886 158.64 91.5435 158.64 91.9809L158.765 99.0499Z" fill="#0078D4" fill-rule="evenodd"/><path d="M138.827 112 146.173 112C146.629 112 147 112.37 147 112.827L147 120.173C147 120.629 146.63 121 146.173 121L138.827 121C138.371 121 138 120.63 138 120.173L138 112.827C138 112.37 138.371 112 138.827 112Z" fill="#76BC2D" fill-rule="evenodd"/><path d="M162.827 112 170.173 112C170.629 112 171 112.37 171 112.827L171 120.173C171 120.629 170.63 121 170.173 121L162.827 121C162.371 121 162 120.63 162 120.173L162 112.827C162.001 112.37 162.371 112 162.827 112Z" fill="#76BC2D" fill-rule="evenodd"/><path d="M154.5 328.5 154.5 193.5" stroke="#3C3C41" stroke-width="1.36126" stroke-miterlimit="8" fill="none" fill-rule="evenodd"/><path d="M159 194 154 185 149 194Z" fill="#3C3C41" fill-rule="evenodd"/><path d="M344.5 328.5 344.5 193.5" stroke="#3C3C41" stroke-width="1.36126" stroke-miterlimit="8" fill="none" fill-rule="evenodd"/><path d="M350 194 344.5 185 339 194Z" fill="#3C3C41" fill-rule="evenodd"/><path d="M344.5 533.5 344.5 438.5" stroke="#3C3C41" stroke-width="1.36126" stroke-miterlimit="8" fill="none" fill-rule="evenodd"/><path d="M350 439 344.5 430 339 439Z" fill="#3C3C41" fill-rule="evenodd"/><path d="M614.5 319.5 614.5 277.5" stroke="#3C3C41" stroke-width="1.36126" stroke-miterlimit="8" fill="none" fill-rule="evenodd"/><path d="M620 318 614.501 327 609 318Z" fill="#3C3C41" fill-rule="evenodd"/><path d="M582.5 352.5 370.5 352.5" stroke="#3C3C41" stroke-width="1.36126" stroke-miterlimit="8" fill="none" fill-rule="evenodd"/><path d="M580 346 589 351.5 580 357Z" fill="#3C3C41" fill-rule="evenodd"/><path d="M541.5 559.5 370.5 559.5" stroke="#3C3C41" stroke-width="1.36126" stroke-miterlimit="8" fill="none" fill-rule="evenodd"/><path d="M540 554 549 559 540 564Z" fill="#3C3C41" fill-rule="evenodd"/><path d="M312.5 352.5 181.5 352.5" stroke="#3C3C41" stroke-width="1.36126" stroke-miterlimit="8" fill="none" fill-rule="evenodd"/><path d="M311 346 320 351.5 311 357Z" fill="#3C3C41" fill-rule="evenodd"/><path d="M781.5 352.5 642.5 352.5" stroke="#3C3C41" stroke-width="1.36126" stroke-miterlimit="8" fill="none" fill-rule="evenodd"/><path d="M780 346 789 351.5 780 357Z" fill="#3C3C41" fill-rule="evenodd"/><path d="M781.5 559.5 601.5 559.5" stroke="#3C3C41" stroke-width="1.36126" stroke-miterlimit="8" fill="none" fill-rule="evenodd"/><path d="M780 554 789 559 780 564Z" fill="#3C3C41" fill-rule="evenodd"/><path d="M808.5 545.531C799.94 545.531 793 543.147 793 540L793 569.469C793 572.497 799.82 574.953 808.282 575L808.5 575C817.06 575 824 572.615 824 569.469L824 540C823.999 543.075 817.06 545.531 808.5 545.531Z" fill="#005BA1" fill-rule="evenodd"/><path d="M824 539.5C824 542.558 817.06 545 808.5 545 799.94 545 793 542.629 793 539.5 793 536.371 799.94 534 808.5 534 817.06 534 824 536.37 824 539.5" fill="#E8E8E8" fill-rule="evenodd"/><path d="M821 539.488C821 541.434 815.61 543 809 543 802.391 543 797 541.434 797 539.488 797 537.542 802.391 536 809 536 815.61 536 821 537.566 821 539.488" fill="#50E6FF" fill-rule="evenodd"/><path d="M809 540.015C805.947 539.926 802.903 540.441 800 541.539 802.905 542.617 805.951 543.104 809 542.981 812.056 543.084 815.103 542.561 818 541.431 815.088 540.385 812.047 539.906 809 540.015Z" fill="#198AB3" fill-rule="evenodd"/><path d="M818.203 560.579 818.203 552.13 816.013 552.13 816.013 562.392 822 562.392 822 560.579 818.203 560.579ZM800.823 556.429C800.371 556.243 799.952 555.982 799.582 555.659 799.384 555.445 799.279 555.157 799.29 554.863 799.275 554.566 799.414 554.283 799.655 554.118 799.955 553.907 800.315 553.801 800.677 553.819 801.545 553.78 802.4 554.034 803.112 554.54L803.112 552.403C802.334 552.107 801.506 551.972 800.677 552.006 799.723 551.954 798.781 552.254 798.023 552.851 797.354 553.377 796.974 554.2 797.001 555.063 797.001 556.33 797.781 557.324 799.436 558.069 799.974 558.302 800.48 558.603 800.945 558.963 801.175 559.161 801.309 559.452 801.31 559.759 801.31 560.065 801.166 560.352 800.921 560.529 800.59 560.728 800.21 560.822 799.826 560.802 798.847 560.794 797.905 560.424 797.172 559.759L797.172 562.07C797.977 562.494 798.873 562.698 799.777 562.667 800.797 562.729 801.808 562.44 802.648 561.847 803.251 561.266 803.548 560.427 803.451 559.586 803.462 558.949 803.247 558.331 802.843 557.847 802.275 557.233 801.586 556.751 800.823 556.429ZM813.578 560.38C814.131 559.435 814.41 558.349 814.381 557.248 814.326 556.318 814.05 555.414 813.578 554.614 813.197 553.838 812.607 553.19 811.875 552.749 811.132 552.32 810.294 552.097 809.44 552.103 808.52 552.082 807.612 552.314 806.811 552.773 806.059 553.201 805.443 553.839 805.035 554.612 804.604 555.491 804.386 556.463 804.401 557.445 804.407 558.309 804.607 559.159 804.986 559.931 805.357 560.698 805.942 561.338 806.666 561.77 807.401 562.228 808.24 562.484 809.101 562.515L811.195 565 814.139 565 811.145 562.267C812.152 561.958 813.017 561.288 813.578 560.38ZM811.143 559.758C810.694 560.326 810.01 560.649 809.294 560.628 808.572 560.652 807.883 560.318 807.444 559.734 806.93 559.016 806.68 558.135 806.738 557.248 806.681 556.361 806.931 555.483 807.444 554.763 807.908 554.179 808.607 553.841 809.344 553.843 810.066 553.811 810.755 554.159 811.168 554.763 811.648 555.495 811.879 556.368 811.826 557.248 811.91 558.142 811.668 559.037 811.143 559.758Z" fill="#F2F2F2" fill-rule="evenodd"/><path d="M808.5 342.531C799.94 342.531 793 340.147 793 337L793 366.469C793 369.497 799.82 371.953 808.282 372L808.5 372C817.06 372 824 369.615 824 366.469L824 337C823.999 340.076 817.06 342.531 808.5 342.531Z" fill="#005BA1" fill-rule="evenodd"/><path d="M824 336.5C824 339.558 817.06 342 808.5 342 799.94 342 793 339.629 793 336.5 793 333.371 799.94 331 808.5 331 817.06 331 824 333.371 824 336.5" fill="#E8E8E8" fill-rule="evenodd"/><path d="M821 336.488C821 338.434 815.61 340 809 340 802.391 340 797 338.434 797 336.488 797 334.542 802.391 333 809 333 815.61 333 821 334.566 821 336.488" fill="#50E6FF" fill-rule="evenodd"/><path d="M809 337.015C805.947 336.926 802.903 337.441 800 338.538 802.905 339.617 805.951 340.104 809 339.982 812.056 340.084 815.103 339.561 818 338.431 815.088 337.385 812.047 336.906 809 337.015Z" fill="#198AB3" fill-rule="evenodd"/><path d="M818.203 357.579 818.203 349.13 816.013 349.13 816.013 359.392 822 359.392 822 357.579 818.203 357.579ZM800.823 353.429C800.371 353.243 799.952 352.982 799.582 352.658 799.384 352.445 799.279 352.157 799.29 351.863 799.275 351.566 799.414 351.283 799.655 351.118 799.955 350.907 800.315 350.801 800.677 350.819 801.545 350.78 802.4 351.034 803.112 351.54L803.112 349.403C802.334 349.107 801.506 348.972 800.677 349.006 799.723 348.954 798.781 349.254 798.023 349.851 797.354 350.377 796.974 351.2 797.001 352.063 797.001 353.33 797.781 354.324 799.436 355.069 799.974 355.302 800.48 355.603 800.945 355.963 801.175 356.161 801.309 356.452 801.31 356.759 801.31 357.065 801.166 357.352 800.921 357.529 800.59 357.728 800.21 357.822 799.826 357.802 798.847 357.794 797.905 357.424 797.172 356.759L797.172 359.07C797.977 359.492 798.873 359.698 799.777 359.667 800.797 359.729 801.808 359.44 802.648 358.847 803.251 358.266 803.548 357.427 803.451 356.586 803.462 355.949 803.247 355.331 802.843 354.847 802.275 354.234 801.586 353.751 800.823 353.429ZM813.578 357.38C814.131 356.435 814.41 355.35 814.381 354.248 814.326 353.318 814.05 352.414 813.578 351.614 813.197 350.838 812.607 350.19 811.875 349.749 811.132 349.32 810.294 349.097 809.44 349.103 808.52 349.082 807.612 349.314 806.811 349.773 806.059 350.201 805.443 350.839 805.035 351.612 804.604 352.491 804.386 353.463 804.401 354.445 804.407 355.309 804.607 356.159 804.986 356.931 805.357 357.698 805.942 358.338 806.666 358.77 807.401 359.228 808.24 359.484 809.101 359.515L811.195 362 814.139 362 811.145 359.267C812.152 358.96 813.017 358.29 813.578 357.38ZM811.143 356.759C810.694 357.328 810.01 357.65 809.294 357.629 808.572 357.653 807.883 357.32 807.444 356.735 806.93 356.017 806.68 355.137 806.738 354.25 806.681 353.363 806.931 352.484 807.444 351.764 807.908 351.18 808.607 350.842 809.344 350.845 810.066 350.813 810.755 351.16 811.168 351.764 811.648 352.497 811.879 353.37 811.826 354.25 811.91 355.144 811.668 356.038 811.143 356.759Z" fill="#F2F2F2" fill-rule="evenodd"/><path d="M344.5 97.6892C335.94 97.6892 329 95.2364 329 92L329 122.311C329 125.425 335.818 127.951 344.282 128L344.5 128C353.06 128 360 125.547 360 122.311L360 92C360 95.1642 353.06 97.6892 344.5 97.6892Z" fill="#005BA1" fill-rule="evenodd"/><path d="M360 92.5001C360 95.5577 353.06 98.0001 344.5 98.0001 335.94 98.0001 329 95.6289 329 92.5001 329 89.3712 335.94 87 344.5 87 353.06 87 360 89.3712 360 92.5001" fill="#E8E8E8" fill-rule="evenodd"/><path d="M356 91.4879C356 93.4336 350.834 95 344.5 95 338.166 95 333 93.4336 333 91.4879 333 89.5423 338.166 88 344.5 88 350.834 88 356 89.5651 356 91.4879" fill="#50E6FF" fill-rule="evenodd"/><path d="M344.5 93.0104C341.277 92.9508 338.064 93.294 335 94.0258 338.066 94.7445 341.281 95.0695 344.5 94.9877 347.726 95.0564 350.942 94.7071 354 93.9541 350.927 93.2557 347.716 92.9367 344.5 93.0104Z" fill="#198AB3" fill-rule="evenodd"/><path d="M354.203 112.919 354.203 105.12 352.013 105.12 352.013 114.593 358 114.593 358 112.919 354.203 112.919ZM336.823 109.088C336.371 108.916 335.952 108.676 335.582 108.377 335.384 108.18 335.279 107.914 335.29 107.643 335.275 107.368 335.414 107.107 335.655 106.955 335.954 106.76 336.315 106.663 336.677 106.68 337.545 106.643 338.4 106.877 339.112 107.345L339.112 105.372C338.334 105.099 337.506 104.974 336.677 105.005 335.723 104.957 334.781 105.234 334.023 105.785 333.354 106.271 332.974 107.03 333.001 107.827 333.001 108.997 333.781 109.915 335.436 110.602 335.974 110.817 336.48 111.095 336.945 111.428 337.175 111.61 337.309 111.879 337.31 112.162 337.31 112.444 337.166 112.709 336.921 112.873 336.59 113.056 336.21 113.144 335.826 113.125 334.847 113.118 333.905 112.776 333.172 112.162L333.172 114.295C333.977 114.686 334.873 114.875 335.777 114.846 336.797 114.903 337.808 114.637 338.648 114.09 339.251 113.553 339.548 112.778 339.451 112.002 339.462 111.415 339.247 110.844 338.843 110.397 338.276 109.832 337.588 109.386 336.823 109.088ZM349.578 112.735C350.131 111.863 350.41 110.861 350.381 109.845 350.326 108.985 350.05 108.151 349.578 107.413 349.199 106.696 348.607 106.098 347.875 105.692 347.132 105.295 346.294 105.09 345.44 105.095 344.521 105.076 343.612 105.29 342.811 105.714 342.059 106.109 341.443 106.698 341.035 107.411 340.604 108.222 340.386 109.119 340.401 110.027 340.407 110.823 340.607 111.608 340.986 112.321 341.357 113.029 341.942 113.619 342.666 114.018 343.401 114.441 344.24 114.677 345.101 114.706L347.195 117 350.139 117 347.145 114.477C348.153 114.194 349.017 113.575 349.578 112.735ZM347.145 112.162C346.695 112.687 346.011 112.985 345.295 112.966 344.574 112.988 343.884 112.679 343.446 112.14 342.931 111.477 342.681 110.665 342.739 109.846 342.683 109.027 342.932 108.216 343.446 107.552 343.909 107.012 344.607 106.7 345.344 106.703 346.066 106.673 346.755 106.994 347.17 107.552 347.65 108.228 347.88 109.033 347.826 109.846 347.91 110.67 347.668 111.495 347.145 112.162Z" fill="#F2F2F2" fill-rule="evenodd"/><path d="M594.525 110.05 614.326 123.23 634.475 110 637 113 614.326 128 592 113.025Z" fill="#50E6FF" fill-rule="evenodd"/><path d="M596 108.395 614.313 87 633 108.419 614.313 120Z" fill="#FFFFFF" fill-rule="evenodd"/><path d="M614 87 614 120 596 108.395Z" fill="#50E6FF" fill-rule="evenodd"/><path d="M614 87 614 120 633 108.419Z" fill="#1988D9" fill-rule="evenodd"/><path d="M614 104 633 108.381 614 120Z" fill="#53B1E0" fill-rule="evenodd"/><path d="M614 120 596 108.357 614 104Z" fill="#9CEBFF" fill-rule="evenodd"/><path d="M614 128 637 113 634.439 110 614 123.23Z" fill="#54AEF0" fill-rule="evenodd"/><path d="M625.999 107 615 122.494 625.999 127 637 122.494Z" fill="#773ADC" fill-rule="evenodd"/><path d="M626 107 615 122.494 626 127Z" fill="#F9F9F9" fill-rule="evenodd" fill-opacity="0.501961"/><path d="M614.5 224.5 614.5 191.5" stroke="#3C3C41" stroke-width="1.36126" stroke-miterlimit="8" fill="none" fill-rule="evenodd"/><text font-family="Segoe UI Semibold,Segoe UI Semibold_MSFontService,sans-serif" font-weight="600" font-size="20" transform="translate(31.7725 27)">Control plane<tspan font-size="20" x="457.828" y="0">Identity framework</tspan><tspan font-size="20" x="229.558" y="680">End</tspan>-user SaaS application<tspan font-family="Segoe UI Semilight,Segoe UI Semilight_MSFontService,sans-serif" font-weight="300" font-size="20" x="48.8141" y="126">Email notification</tspan><tspan font-family="Segoe UI Semilight,Segoe UI Semilight_MSFontService,sans-serif" font-weight="300" font-size="20" x="86.4475" y="150">provider</tspan><tspan font-family="Segoe UI Semilight,Segoe UI Semilight_MSFontService,sans-serif" font-weight="300" font-size="20" x="263.403" y="126">Tenant data</tspan><tspan font-family="Segoe UI Semilight,Segoe UI Semilight_MSFontService,sans-serif" font-weight="300" font-size="20" x="281.283" y="150">storage</tspan><tspan font-family="Segoe UI Semilight,Segoe UI Semilight_MSFontService,sans-serif" font-weight="300" font-size="20" x="263.403" y="370">Tenant data</tspan><tspan font-family="Segoe UI Semilight,Segoe UI Semilight_MSFontService,sans-serif" font-weight="300" font-size="20" x="299.21" y="394">API</tspan><tspan font-family="Segoe UI Semilight,Segoe UI Semilight_MSFontService,sans-serif" font-weight="300" font-size="20" x="52.2411" y="370">Onboarding and</tspan><tspan font-family="Segoe UI Semilight,Segoe UI Semilight_MSFontService,sans-serif" font-weight="300" font-size="20" x="77.0544" y="394">admin app</tspan><tspan font-family="Segoe UI Semilight,Segoe UI Semilight_MSFontService,sans-serif" font-weight="300" font-size="20" x="273.957" y="581">SaaS app</tspan><tspan font-family="Segoe UI Semilight,Segoe UI Semilight_MSFontService,sans-serif" font-weight="300" font-size="20" x="472.959" y="577">SaaS application</tspan><tspan font-family="Segoe UI Semilight,Segoe UI Semilight_MSFontService,sans-serif" font-weight="300" font-size="20" x="528.879" y="601">API</tspan><tspan font-family="Segoe UI Semilight,Segoe UI Semilight_MSFontService,sans-serif" font-weight="300" font-size="20" x="707.915" y="577">SaaS application</tspan><tspan font-family="Segoe UI Semilight,Segoe UI Semilight_MSFontService,sans-serif" font-weight="300" font-size="20" x="724.242" y="601">data storage</tspan><tspan font-family="Segoe UI Semilight,Segoe UI Semilight_MSFontService,sans-serif" font-weight="300" font-size="20" x="516.326" y="366">Permission data</tspan><tspan font-family="Segoe UI Semilight,Segoe UI Semilight_MSFontService,sans-serif" font-weight="300" font-size="20" x="569.686" y="390">API</tspan><tspan font-family="Segoe UI Semilight,Segoe UI Semilight_MSFontService,sans-serif" font-weight="300" font-size="20" x="710.472" y="366">Permission data</tspan><tspan font-family="Segoe UI Semilight,Segoe UI Semilight_MSFontService,sans-serif" font-weight="300" font-size="20" x="745.912" y="390">storage</tspan><tspan font-family="Segoe UI Semilight,Segoe UI Semilight_MSFontService,sans-serif" font-weight="300" font-size="20" x="536.936" y="218">Enrich user</tspan><tspan font-family="Segoe UI Semilight,Segoe UI Semilight_MSFontService,sans-serif" font-weight="300" font-size="20" x="557.516" y="242">claims</tspan><tspan font-family="Segoe UI Semilight,Segoe UI Semilight_MSFontService,sans-serif" font-weight="300" font-size="20" x="513.07" y="126">Identity provider</tspan><tspan font-family="Segoe UI Semilight,Segoe UI Semilight_MSFontService,sans-serif" font-weight="300" font-size="20" x="561.19" y="150">(B2C)</tspan></text></g></svg>