<?xml version="1.0" encoding="utf-8"?>
<!-- Generator: Adobe Illustrator 26.2.1, SVG Export Plug-In . SVG Version: 6.00 Build 0)  -->
<svg version="1.1" xmlns="http://www.w3.org/2000/svg" xmlns:xlink="http://www.w3.org/1999/xlink" x="0px" y="0px"
	 viewBox="0 0 226 252" enable-background="new 0 0 226 252" xml:space="preserve">
<symbol  id="PIPELINE" viewBox="-32 -12.266 64 24.531">
	<linearGradient id="SVGID_1_" gradientUnits="userSpaceOnUse" x1="0" y1="-12.2655" x2="1.502093e-15" y2="12.2655">
		<stop  offset="0" style="stop-color:#1B89B2"/>
		<stop  offset="1" style="stop-color:#51C8E8"/>
	</linearGradient>
	<path fill="url(#SVGID_1_)" d="M26.096,12.266h-51.448v0h0C-29.08,12.265-32,6.878-32,0s2.92-12.265,6.648-12.265h0v0h51.448
		C29.356-12.266,32-6.363,32,0S29.356,12.266,26.096,12.266z"/>
	<g>
		
			<linearGradient id="SVGID_00000023993971622825305410000016067821125002643079_" gradientUnits="userSpaceOnUse" x1="-31.461" y1="-6.1136" x2="-19.2338" y2="6.1136">
			<stop  offset="0" style="stop-color:#B3B4B4"/>
			<stop  offset="1" style="stop-color:#4F4F4F"/>
		</linearGradient>
		<ellipse fill="url(#SVGID_00000023993971622825305410000016067821125002643079_)" cx="-25.347" cy="0" rx="5.575" ry="10.879"/>
	</g>
</symbol>
<g id="Shapes">
	<rect x="-0.373" y="-0.294" fill="#FFFFFF" width="226.746" height="252.588"/>
	<g id="Wrench_tool_x28_s_x29_">
	</g>
	<g id="user2">
	</g>
	<g id="user2_1_">
	</g>
	<g id="user2_4_">
	</g>
	<g id="user2_3_">
	</g>
	<g id="user2_2_">
	</g>
	<g id="Internet_2">
	</g>
	<g id="Enterprise">
	</g>
	<g id="Tunnel__x28_stackable_x29_">
	</g>
	<g id="New_Symbol">
	</g>
	<g id="New_Symbol_1">
	</g>
	<g id="Files">
	</g>
	<g id="BlobBlock">
	</g>
	<g id="E_x5F_Enterprise">
	</g>
	<g id="E_x5F_AD_FS">
	</g>
	<g id="C_x5F_Azure_Active_Directory">
	</g>
	<g>
		<g opacity="0.24">
			<rect x="19.861" y="155.984" width="202.257" height="44"/>
			<rect x="19.861" y="155.984" opacity="0.5" width="202.257" height="44"/>
		</g>
		<g>
			<rect x="18.861" y="154.984" fill="#FFFFFF" width="202.257" height="44"/>
			<rect x="18.861" y="154.984" opacity="0.5" fill="#83B9F9" width="202.257" height="44"/>
		</g>
	</g>
	<g>
		
			<linearGradient id="SVGID_00000030471256803612412720000003113109781556507553_" gradientUnits="userSpaceOnUse" x1="36.0144" y1="1099.1058" x2="57.1297" y2="1099.1058" gradientTransform="matrix(1 0 0 -1 0 1278)">
			<stop  offset="0" style="stop-color:#005CA1"/>
			<stop  offset="0.07" style="stop-color:#0161AA"/>
			<stop  offset="0.36" style="stop-color:#2571B8"/>
			<stop  offset="0.52" style="stop-color:#2E76BC"/>
			<stop  offset="0.64" style="stop-color:#2973BA"/>
			<stop  offset="0.82" style="stop-color:#166BB5"/>
			<stop  offset="1" style="stop-color:#005CA1"/>
		</linearGradient>
		<path fill="url(#SVGID_00000030471256803612412720000003113109781556507553_)" d="M46.572,170.626
			c-5.831,0-10.558-1.647-10.558-3.821v20.358c0,2.092,4.645,3.788,10.409,3.821h0.148c5.831,0,10.558-1.647,10.558-3.821v-20.358
			C57.13,168.929,52.403,170.626,46.572,170.626z"/>
		<path fill="#E8E8E8" d="M57.13,166.805c0,2.125-4.727,3.821-10.558,3.821s-10.558-1.647-10.558-3.821s4.727-3.821,10.558-3.821
			S57.13,164.631,57.13,166.805"/>
		<path fill="#74CFEB" d="M54.676,166.492c0,1.351-3.64,2.438-8.104,2.438s-8.104-1.087-8.104-2.438s3.64-2.421,8.104-2.421
			S54.676,165.158,54.676,166.492"/>
		<path fill="#1B8AB3" d="M46.572,167.101c-2.174-0.056-4.341,0.262-6.407,0.939c2.068,0.664,4.236,0.965,6.407,0.889
			c2.175,0.064,4.345-0.26,6.407-0.955C50.907,167.329,48.741,167.034,46.572,167.101z"/>
		
			<radialGradient id="SVGID_00000103974085966479407300000015954424461682294933_" cx="47.165" cy="1098.4305" r="11.6447" gradientTransform="matrix(1 0 0 -1 0 1278)" gradientUnits="userSpaceOnUse">
			<stop  offset="0" style="stop-color:#F2F2F3"/>
			<stop  offset="0.58" style="stop-color:#EEEEEE"/>
			<stop  offset="1" style="stop-color:#E6E6E6"/>
		</radialGradient>
		<path fill="url(#SVGID_00000103974085966479407300000015954424461682294933_)" d="M52.996,180.937v-5.6h-1.482v6.802h4.052v-1.202
			H52.996z M41.236,178.186c-0.306-0.123-0.59-0.296-0.84-0.511c-0.134-0.142-0.205-0.332-0.198-0.527
			c-0.01-0.197,0.084-0.384,0.247-0.494c0.203-0.14,0.446-0.21,0.692-0.198c0.587-0.026,1.166,0.142,1.647,0.478v-1.416
			c-0.526-0.196-1.086-0.285-1.647-0.264c-0.646-0.034-1.283,0.164-1.795,0.56c-0.453,0.349-0.71,0.894-0.692,1.466
			c0,0.84,0.527,1.499,1.647,1.993c0.364,0.154,0.707,0.354,1.021,0.593c0.156,0.131,0.246,0.324,0.247,0.527
			c0,0.203-0.098,0.393-0.264,0.511c-0.224,0.131-0.482,0.194-0.741,0.181c-0.662-0.005-1.3-0.251-1.795-0.692v1.532
			c0.544,0.28,1.151,0.417,1.762,0.395c0.69,0.041,1.375-0.15,1.944-0.544c0.407-0.386,0.609-0.941,0.544-1.499
			c0.008-0.422-0.139-0.832-0.412-1.153C42.218,178.719,41.752,178.4,41.236,178.186z M49.866,180.805
			c0.374-0.626,0.562-1.346,0.544-2.075c-0.037-0.617-0.224-1.216-0.544-1.746c-0.257-0.514-0.658-0.943-1.153-1.235
			c-0.502-0.285-1.07-0.432-1.647-0.428c-0.622-0.014-1.236,0.14-1.779,0.445c-0.508,0.284-0.926,0.707-1.202,1.219
			c-0.292,0.582-0.438,1.226-0.428,1.878c0.003,0.572,0.139,1.136,0.395,1.647c0.251,0.509,0.647,0.933,1.136,1.219
			c0.497,0.303,1.065,0.474,1.647,0.494l1.416,1.647h1.993l-2.026-1.812C48.901,181.852,49.486,181.407,49.866,180.805z
			 M48.219,180.393c-0.304,0.378-0.767,0.591-1.252,0.576c-0.488,0.016-0.955-0.205-1.252-0.593
			c-0.348-0.476-0.517-1.059-0.478-1.647c-0.038-0.588,0.131-1.171,0.478-1.647c0.314-0.387,0.786-0.611,1.285-0.609
			c0.489-0.021,0.955,0.209,1.235,0.609c0.324,0.486,0.481,1.064,0.445,1.647C48.738,179.322,48.573,179.915,48.219,180.393z"/>
	</g>
	<g>
		<g>
			<g opacity="0.24">
				<rect x="32.226" y="204.384" width="189.893" height="44"/>
				<rect x="32.226" y="204.384" opacity="0.5" width="189.893" height="44"/>
			</g>
			<g>
				<rect x="31.226" y="203.384" fill="#FFFFFF" width="189.893" height="44"/>
				<rect x="31.226" y="203.384" opacity="0.5" fill="#76BC43" width="189.893" height="44"/>
			</g>
		</g>
		<g>
			
				<linearGradient id="SVGID_00000032641805351273013820000002840058243562073526_" gradientUnits="userSpaceOnUse" x1="18.8613" y1="1050.295" x2="44.4903" y2="1050.295" gradientTransform="matrix(1 0 0 -1 0 1278)">
				<stop  offset="0" style="stop-color:#669E26"/>
				<stop  offset="0.5318" style="stop-color:#8BC63F"/>
				<stop  offset="1" style="stop-color:#5E9624"/>
			</linearGradient>
			<path fill="url(#SVGID_00000032641805351273013820000002840058243562073526_)" d="M31.758,217.669
				c-7.034,0-12.897-2.087-12.897-4.643v24.668c0,2.556,5.651,4.69,12.639,4.69h0.258c7.034,0,12.826-2.063,12.826-4.69v-24.668
				C44.49,215.582,38.792,217.669,31.758,217.669z"/>
			<path fill="#E8E8E8" d="M44.49,213.026c0,2.556-5.745,4.69-12.826,4.69s-12.803-2.134-12.803-4.69s5.862-4.643,12.897-4.643
				s12.826,2.063,12.826,4.69"/>
			<path fill="#76BC43" d="M41.489,212.651c0,1.618-4.385,2.931-9.825,2.931s-9.825-1.313-9.825-2.931s4.408-2.954,9.919-2.954
				s9.825,1.313,9.825,2.954"/>
			<path fill="#385728" d="M31.758,213.331c-2.63-0.065-5.253,0.307-7.761,1.102c2.501,0.831,5.127,1.22,7.761,1.149
				c2.642,0.068,5.275-0.32,7.785-1.149C37.027,213.636,34.396,213.264,31.758,213.331z"/>
		</g>
	</g>
	<g>
		<g opacity="0.24">
			<path d="M222.19,60.229c0,5.5-4.5,10-10,10H29.79c-5.5,0-10-4.5-10-10V37.584c0-5.5,4.5-10,10-10h182.4c5.5,0,10,4.5,10,10
				V60.229z"/>
			<path opacity="0.5" d="M222.19,60.229c0,5.5-4.5,10-10,10H29.79c-5.5,0-10-4.5-10-10V37.584c0-5.5,4.5-10,10-10h182.4
				c5.5,0,10,4.5,10,10V60.229z"/>
		</g>
		<g>
			<path fill="#FFFFFF" d="M221.19,59.229c0,5.5-4.5,10-10,10H28.79c-5.5,0-10-4.5-10-10V36.584c0-5.5,4.5-10,10-10h182.4
				c5.5,0,10,4.5,10,10V59.229z"/>
			<path opacity="0.5" fill="#76BC43" d="M221.19,59.229c0,5.5-4.5,10-10,10H28.79c-5.5,0-10-4.5-10-10V36.584c0-5.5,4.5-10,10-10
				h182.4c5.5,0,10,4.5,10,10V59.229z"/>
		</g>
	</g>
	<g>
		<g opacity="0.24">
			<rect x="19.79" y="75.284" width="202.4" height="44"/>
			<rect x="19.79" y="75.284" opacity="0.5" width="202.4" height="44"/>
		</g>
		<g>
			<rect x="18.79" y="74.284" fill="#FFFFFF" width="202.4" height="44"/>
			<rect x="18.79" y="74.284" opacity="0.5" fill="#83B9F9" width="202.4" height="44"/>
		</g>
	</g>
	<g>
		<path d="M44.925,13.822c0.586,0.326,1.12,0.726,1.601,1.201s0.889,0.996,1.221,1.562c0.333,0.566,0.589,1.173,0.771,1.816
			c0.182,0.645,0.274,1.305,0.274,1.982h-2.5c0-0.677-0.134-1.321-0.4-1.934c-0.267-0.611-0.625-1.142-1.074-1.591
			c-0.449-0.449-0.98-0.807-1.591-1.074c-0.614-0.267-1.259-0.401-1.935-0.401c-0.691,0-1.338,0.134-1.944,0.4
			c-0.605,0.267-1.132,0.625-1.583,1.074c-0.45,0.449-0.807,0.98-1.074,1.591c-0.267,0.614-0.4,1.257-0.4,1.935
			c0,1.185-0.271,2.312-0.81,3.379c-0.541,1.067-1.286,1.954-2.236,2.656c0.846,0.43,1.611,0.961,2.295,1.591
			c0.684,0.633,1.266,1.335,1.748,2.11c0.481,0.775,0.853,1.609,1.114,2.5c0.26,0.893,0.39,1.814,0.39,2.764h-2.5
			c0-1.028-0.199-1.999-0.596-2.91c-0.398-0.911-0.935-1.705-1.611-2.383c-0.677-0.676-1.472-1.214-2.382-1.611
			c-0.911-0.398-1.882-0.596-2.91-0.596c-1.029,0-2,0.199-2.91,0.596c-0.911,0.398-1.706,0.935-2.382,1.611
			c-0.677,0.677-1.215,1.472-1.611,2.382c-0.399,0.911-0.596,1.882-0.596,2.91h-2.5c0-0.95,0.13-1.871,0.391-2.764
			c0.26-0.891,0.631-1.725,1.114-2.5c0.481-0.774,1.065-1.477,1.747-2.11c0.684-0.631,1.448-1.163,2.295-1.591
			c-0.951-0.704-1.696-1.589-2.236-2.656c-0.541-1.066-0.811-2.194-0.811-3.379c0-0.677-0.134-1.321-0.4-1.934
			c-0.267-0.611-0.625-1.142-1.074-1.591c-0.449-0.449-0.98-0.807-1.591-1.074c-0.614-0.267-1.259-0.401-1.935-0.401
			c-0.691,0-1.338,0.134-1.944,0.4c-0.605,0.267-1.133,0.625-1.583,1.074c-0.45,0.449-0.807,0.98-1.074,1.591
			c-0.268,0.614-0.4,1.257-0.4,1.935h-2.5c0-0.677,0.09-1.337,0.274-1.983c0.182-0.645,0.44-1.25,0.771-1.816
			s0.739-1.088,1.221-1.562c0.481-0.475,1.016-0.875,1.601-1.201c-0.43-0.455-0.766-0.982-1.006-1.582
			c-0.241-0.599-0.361-1.216-0.361-1.855c0-0.677,0.132-1.321,0.4-1.934c0.266-0.611,0.625-1.143,1.075-1.591
			c0.45-0.449,0.976-0.807,1.581-1.075c0.606-0.266,1.252-0.4,1.944-0.4c0.676,0,1.321,0.134,1.934,0.4
			c0.611,0.267,1.143,0.625,1.591,1.075c0.449,0.45,0.807,0.98,1.075,1.591c0.266,0.612,0.4,1.256,0.4,1.934
			c0,0.639-0.121,1.256-0.361,1.855c-0.241,0.6-0.576,1.127-1.006,1.583c1.067,0.586,1.94,1.394,2.618,2.422
			c0.704-1.041,1.604-1.861,2.705-2.461c1.1-0.599,2.281-0.899,3.545-0.899c1.262,0,2.444,0.3,3.545,0.899
			c1.1,0.599,2.003,1.42,2.705,2.461c0.676-1.029,1.549-1.836,2.618-2.422c-0.43-0.455-0.765-0.983-1.006-1.583
			c-0.241-0.599-0.361-1.216-0.361-1.855c0-0.677,0.132-1.321,0.4-1.934c0.266-0.611,0.625-1.143,1.074-1.591
			s0.976-0.807,1.583-1.074c0.606-0.267,1.253-0.401,1.944-0.401c0.676,0,1.321,0.134,1.934,0.4
			c0.611,0.268,1.142,0.625,1.591,1.074c0.449,0.449,0.807,0.98,1.074,1.591c0.267,0.614,0.401,1.257,0.401,1.935
			c0,0.639-0.121,1.256-0.361,1.855C45.69,12.839,45.355,13.367,44.925,13.822z M13.793,10.384c0,0.351,0.065,0.677,0.195,0.976
			c0.13,0.3,0.309,0.564,0.537,0.791c0.227,0.229,0.491,0.408,0.791,0.538c0.299,0.13,0.625,0.195,0.976,0.195
			c0.351,0,0.676-0.065,0.976-0.195c0.299-0.13,0.562-0.309,0.791-0.538c0.227-0.227,0.406-0.491,0.537-0.791
			c0.129-0.299,0.195-0.625,0.195-0.976c0-0.351-0.066-0.677-0.195-0.976c-0.13-0.299-0.31-0.562-0.537-0.791
			c-0.229-0.227-0.493-0.406-0.791-0.537c-0.3-0.13-0.625-0.195-0.976-0.195c-0.351,0-0.678,0.065-0.976,0.195
			c-0.3,0.13-0.564,0.31-0.791,0.537c-0.229,0.229-0.407,0.491-0.537,0.791C13.858,9.707,13.793,10.033,13.793,10.384z
			 M28.793,25.384c0.676,0,1.321-0.133,1.934-0.4c0.611-0.266,1.142-0.625,1.591-1.074c0.449-0.449,0.807-0.976,1.074-1.583
			c0.267-0.606,0.401-1.254,0.401-1.944c0-0.677-0.134-1.321-0.4-1.934c-0.267-0.611-0.625-1.142-1.074-1.591
			c-0.449-0.449-0.98-0.807-1.591-1.074c-0.614-0.267-1.259-0.401-1.935-0.401c-0.691,0-1.337,0.134-1.944,0.4
			c-0.605,0.267-1.133,0.625-1.583,1.074c-0.45,0.449-0.808,0.98-1.074,1.591c-0.267,0.614-0.4,1.257-0.4,1.935
			c0,0.69,0.132,1.337,0.4,1.944c0.266,0.605,0.625,1.132,1.074,1.583s0.976,0.808,1.583,1.074
			C27.455,25.252,28.102,25.384,28.793,25.384z M38.793,10.384c0,0.351,0.065,0.677,0.195,0.976c0.13,0.3,0.309,0.564,0.537,0.791
			c0.228,0.229,0.491,0.408,0.791,0.538c0.299,0.13,0.625,0.195,0.976,0.195s0.676-0.065,0.976-0.195
			c0.299-0.13,0.562-0.309,0.791-0.538c0.228-0.227,0.406-0.491,0.538-0.791c0.129-0.299,0.195-0.625,0.195-0.976
			c0-0.351-0.066-0.677-0.195-0.976c-0.13-0.299-0.31-0.562-0.538-0.791c-0.229-0.227-0.492-0.406-0.791-0.537
			c-0.3-0.13-0.625-0.195-0.976-0.195s-0.678,0.065-0.976,0.195c-0.3,0.13-0.564,0.31-0.791,0.537
			c-0.229,0.229-0.407,0.493-0.537,0.791S38.793,10.033,38.793,10.384z"/>
	</g>
	<g>
		
			<radialGradient id="ee75dd06-1aca-4f76-9d11-d05a284020ad_00000150813517385715142810000008697505663698074781_" cx="24028.0449" cy="-1445.5741" r="86.8682" gradientTransform="matrix(0.15 0 0 -0.15 -3548.5049 -120.58)" gradientUnits="userSpaceOnUse">
			<stop  offset="0.18" style="stop-color:#699CD3"/>
			<stop  offset="1" style="stop-color:#2E76BC"/>
		</radialGradient>
		
			<path id="ee75dd06-1aca-4f76-9d11-d05a284020ad_00000092449058193947024360000009616764480105996462_" fill="url(#ee75dd06-1aca-4f76-9d11-d05a284020ad_00000150813517385715142810000008697505663698074781_)" d="
			M63.713,106.552c-5.685,4.408-13.868,3.372-18.276-2.313c-4.408-5.685-3.372-13.868,2.313-18.276l0.138-0.092
			c5.763-4.302,13.922-3.117,18.224,2.646C70.341,94.183,69.276,102.189,63.713,106.552"/>
		<path opacity="0.6" fill="#FFFFFF" enable-background="new    " d="M52.193,93.546c3.683-3.503,8.566-5.465,13.649-5.484
			c-0.668-0.826-1.434-1.567-2.283-2.206c-2.473,0.153-4.902,0.722-7.185,1.685c-2.35,1.01-4.475,2.478-6.25,4.32
			C50.978,92.185,51.703,92.776,52.193,93.546z"/>
		<path opacity="0.6" fill="#FFFFFF" enable-background="new    " d="M45.744,98.785c-0.526,1.303-0.951,2.645-1.271,4.014
			c0.283,0.492,0.6,0.963,0.95,1.409c0.276,0.352,0.536,0.674,0.843,0.996c0.37-1.823,0.924-3.604,1.654-5.316
			C47.101,99.742,46.345,99.359,45.744,98.785z"/>
		<path opacity="0.55" fill="#F2F2F3" enable-background="new    " d="M47.245,91.83c-0.541-1.451-0.896-2.964-1.057-4.504
			c-0.643,0.675-1.208,1.42-1.685,2.221c0.173,1.241,0.465,2.462,0.873,3.646C45.856,92.57,46.504,92.097,47.245,91.83z"/>
		
			<linearGradient id="SVGID_00000099628746753893440270000003800759483666822067_" gradientUnits="userSpaceOnUse" x1="48.6867" y1="1177.9434" x2="48.6408" y2="1183.9943" gradientTransform="matrix(1 0 0 -1 0 1278)">
			<stop  offset="0" style="stop-color:#CCCCCB"/>
			<stop  offset="0.12" style="stop-color:#D7D7D7"/>
			<stop  offset="0.42" style="stop-color:#EBEBEB"/>
			<stop  offset="0.72" style="stop-color:#F8F8F8"/>
			<stop  offset="1" style="stop-color:#FDFEFE"/>
		</linearGradient>
		<circle fill="url(#SVGID_00000099628746753893440270000003800759483666822067_)" cx="48.654" cy="95.767" r="4.182"/>
		<path opacity="0.55" fill="#F2F2F3" enable-background="new    " d="M54.751,103.412c0.001-0.734,0.3-1.436,0.827-1.946
			c-1.412-0.774-2.716-1.732-3.876-2.849c-0.606,0.656-1.406,1.101-2.283,1.271c0.691,0.707,1.434,1.363,2.221,1.961
			c0.981,0.741,2.033,1.382,3.14,1.915C54.764,103.647,54.754,103.53,54.751,103.412z"/>
		<path opacity="0.55" fill="#F2F2F3" enable-background="new    " d="M64.402,103.733c-1.424,0.001-2.842-0.164-4.228-0.49
			c0.008,0.056,0.008,0.113,0,0.169c0.002,0.712-0.279,1.395-0.781,1.9c1.724,0.342,3.484,0.465,5.239,0.368
			c0.681-0.616,1.292-1.304,1.823-2.053C65.773,103.702,65.088,103.738,64.402,103.733z"/>
		
			<linearGradient id="SVGID_00000054955274036159391130000004689352389461417124_" gradientUnits="userSpaceOnUse" x1="57.4625" y1="1171.8617" x2="57.4625" y2="1177.2999" gradientTransform="matrix(1 0 0 -1 0 1278)">
			<stop  offset="0" style="stop-color:#CCCCCB"/>
			<stop  offset="0.12" style="stop-color:#D7D7D7"/>
			<stop  offset="0.42" style="stop-color:#EBEBEB"/>
			<stop  offset="0.72" style="stop-color:#F8F8F8"/>
			<stop  offset="1" style="stop-color:#FDFEFE"/>
		</linearGradient>
		<circle fill="url(#SVGID_00000054955274036159391130000004689352389461417124_)" cx="57.463" cy="103.412" r="2.727"/>
		<path opacity="0.7" fill="#F2F2F3" enable-background="new    " d="M60.817,96.15c0.135-0.599,0.464-1.137,0.934-1.532
			c-2.522-1.834-4.816-3.963-6.832-6.342c-1.175-1.38-2.202-2.879-3.064-4.473c-0.572,0.172-1.13,0.387-1.67,0.643
			c0.922,1.736,2.027,3.369,3.294,4.871C55.633,91.891,58.098,94.186,60.817,96.15z"/>
		
			<linearGradient id="SVGID_00000165195512424755040670000012041990755322780854_" gradientUnits="userSpaceOnUse" x1="63.6667" y1="1178.4489" x2="63.6667" y2="1184.2241" gradientTransform="matrix(1 0 0 -1 0 1278)">
			<stop  offset="0" style="stop-color:#CCCCCB"/>
			<stop  offset="0.12" style="stop-color:#D7D7D7"/>
			<stop  offset="0.42" style="stop-color:#EBEBEB"/>
			<stop  offset="0.72" style="stop-color:#F8F8F8"/>
			<stop  offset="1" style="stop-color:#FDFEFE"/>
		</linearGradient>
		<circle fill="url(#SVGID_00000165195512424755040670000012041990755322780854_)" cx="63.667" cy="96.671" r="2.895"/>
		<path opacity="0.55" fill="#F2F2F3" enable-background="new    " d="M68.523,98.617l-0.536-0.26l0,0l-0.46-0.245h-0.092
			l-0.398-0.322H66.93l-0.475-0.306c-0.165,0.564-0.509,1.059-0.98,1.409c0.184,0.123,0.383,0.23,0.582,0.337l0.123,0.077
			l0.536,0.291l0,0l1.317,0.689l0,0c0.186-0.556,0.334-1.124,0.444-1.7L68.523,98.617z"/>
		
			<linearGradient id="SVGID_00000066499438420916668430000005655826324293214616_" gradientUnits="userSpaceOnUse" x1="48.6867" y1="1177.9434" x2="48.6408" y2="1183.9943" gradientTransform="matrix(1 0 0 -1 0 1278)">
			<stop  offset="0" style="stop-color:#CCCCCB"/>
			<stop  offset="0.12" style="stop-color:#D7D7D7"/>
			<stop  offset="0.42" style="stop-color:#EBEBEB"/>
			<stop  offset="0.72" style="stop-color:#F8F8F8"/>
			<stop  offset="1" style="stop-color:#FDFEFE"/>
		</linearGradient>
		<circle fill="url(#SVGID_00000066499438420916668430000005655826324293214616_)" cx="48.654" cy="95.767" r="4.182"/>
		
			<linearGradient id="SVGID_00000015340226860350728430000008147478201523089548_" gradientUnits="userSpaceOnUse" x1="57.4625" y1="1171.8617" x2="57.4625" y2="1177.2999" gradientTransform="matrix(1 0 0 -1 0 1278)">
			<stop  offset="0" style="stop-color:#CCCCCB"/>
			<stop  offset="0.12" style="stop-color:#D7D7D7"/>
			<stop  offset="0.42" style="stop-color:#EBEBEB"/>
			<stop  offset="0.72" style="stop-color:#F8F8F8"/>
			<stop  offset="1" style="stop-color:#FDFEFE"/>
		</linearGradient>
		<circle fill="url(#SVGID_00000015340226860350728430000008147478201523089548_)" cx="57.463" cy="103.412" r="2.727"/>
	</g>
	<g>
		<g>
			<line fill="none" stroke="#3C3C41" stroke-miterlimit="10" x1="119.99" y1="118.829" x2="119.99" y2="149.201"/>
			<g>
				<polygon fill="#3C3C41" points="116.25,148.107 119.99,154.584 123.73,148.107 				"/>
			</g>
		</g>
	</g>
</g>
<g id="Text">
	<g>
		<g>
			<path fill="#2F2F2F" d="M75.271,181.982h-2.406l-0.697-2.181h-3.486l-0.69,2.181h-2.393l3.568-9.803h2.618L75.271,181.982z
				 M71.662,178.106l-1.053-3.295c-0.078-0.246-0.133-0.54-0.164-0.882h-0.055c-0.023,0.287-0.08,0.572-0.171,0.854l-1.066,3.322
				H71.662z"/>
			<path fill="#2F2F2F" d="M82.177,181.982h-6.282v-0.896l3.514-4.512h-3.165v-1.593h5.906v1.066l-3.329,4.341h3.356V181.982z"/>
			<path fill="#2F2F2F" d="M90.059,181.982h-2.153v-1.066h-0.034c-0.533,0.825-1.246,1.237-2.14,1.237
				c-1.622,0-2.434-0.982-2.434-2.946v-4.225h2.153v4.033c0,0.989,0.393,1.483,1.176,1.483c0.388,0,0.697-0.136,0.93-0.407
				s0.349-0.639,0.349-1.104v-4.006h2.153V181.982z"/>
			<path fill="#2F2F2F" d="M96.394,176.93c-0.26-0.141-0.563-0.212-0.909-0.212c-0.47,0-0.837,0.172-1.101,0.516
				c-0.265,0.344-0.396,0.812-0.396,1.405v3.343h-2.16v-7h2.16v1.299h0.027c0.342-0.948,0.957-1.422,1.846-1.422
				c0.228,0,0.405,0.027,0.533,0.082V176.93z"/>
			<path fill="#2F2F2F" d="M103.766,179.097h-4.566c0.073,1.016,0.714,1.524,1.921,1.524c0.771,0,1.447-0.182,2.03-0.547v1.559
				c-0.646,0.346-1.487,0.52-2.522,0.52c-1.13,0-2.007-0.313-2.632-0.94c-0.624-0.626-0.937-1.5-0.937-2.622
				c0-1.162,0.338-2.083,1.012-2.762c0.675-0.679,1.504-1.019,2.488-1.019c1.021,0,1.811,0.303,2.369,0.909
				c0.558,0.606,0.837,1.429,0.837,2.468V179.097z M101.763,177.771c0-1.002-0.405-1.504-1.217-1.504
				c-0.346,0-0.646,0.144-0.898,0.431s-0.407,0.645-0.462,1.073H101.763z"/>
			<path fill="#2F2F2F" d="M108.674,181.606v-2.188c0.396,0.333,0.827,0.582,1.292,0.749s0.935,0.25,1.408,0.25
				c0.278,0,0.521-0.025,0.729-0.075c0.207-0.05,0.38-0.12,0.52-0.208c0.139-0.089,0.242-0.194,0.311-0.314s0.103-0.252,0.103-0.393
				c0-0.191-0.055-0.362-0.164-0.513s-0.259-0.29-0.447-0.417c-0.189-0.127-0.414-0.25-0.674-0.369s-0.54-0.239-0.841-0.362
				c-0.766-0.319-1.336-0.708-1.712-1.169s-0.564-1.016-0.564-1.668c0-0.51,0.103-0.949,0.308-1.316s0.484-0.669,0.838-0.906
				c0.353-0.237,0.762-0.411,1.227-0.523s0.957-0.167,1.477-0.167c0.511,0,0.963,0.031,1.357,0.092
				c0.394,0.062,0.758,0.156,1.09,0.284v2.044c-0.164-0.114-0.343-0.214-0.536-0.301c-0.194-0.086-0.394-0.158-0.599-0.215
				s-0.409-0.099-0.611-0.126c-0.203-0.027-0.396-0.041-0.578-0.041c-0.25,0-0.479,0.024-0.684,0.072s-0.378,0.115-0.52,0.202
				c-0.141,0.086-0.25,0.19-0.328,0.311c-0.077,0.121-0.116,0.256-0.116,0.407c0,0.164,0.044,0.311,0.13,0.441
				c0.087,0.13,0.21,0.253,0.369,0.369c0.16,0.116,0.354,0.23,0.581,0.342c0.229,0.112,0.485,0.227,0.772,0.345
				c0.393,0.164,0.744,0.338,1.057,0.523c0.312,0.185,0.58,0.393,0.803,0.625c0.224,0.232,0.395,0.498,0.513,0.796
				c0.119,0.298,0.178,0.646,0.178,1.042c0,0.547-0.104,1.006-0.311,1.377c-0.208,0.372-0.489,0.672-0.845,0.902
				s-0.769,0.396-1.24,0.496s-0.97,0.15-1.494,0.15c-0.537,0-1.049-0.045-1.534-0.137S109.029,181.788,108.674,181.606z"/>
			<path fill="#2F2F2F" d="M121.034,182.153c-1.404,0-2.548-0.456-3.432-1.367c-0.885-0.92-1.326-2.112-1.326-3.575
				c0-1.545,0.448-2.798,1.347-3.76c0.893-0.957,2.082-1.436,3.568-1.436c1.398,0,2.529,0.458,3.391,1.374
				c0.865,0.912,1.299,2.119,1.299,3.623c0,1.536-0.449,2.778-1.347,3.726c-0.032,0.032-0.062,0.062-0.089,0.092
				s-0.058,0.058-0.089,0.085l2.481,2.386h-3.09l-1.299-1.319C122.021,182.096,121.549,182.153,121.034,182.153z M121.13,173.916
				c-0.771,0-1.386,0.292-1.846,0.875c-0.456,0.579-0.684,1.347-0.684,2.304c0,0.971,0.228,1.739,0.684,2.304
				c0.455,0.565,1.053,0.848,1.791,0.848c0.761,0,1.364-0.273,1.812-0.82c0.446-0.556,0.67-1.319,0.67-2.29
				c0-1.012-0.217-1.802-0.649-2.372C122.479,174.198,121.886,173.916,121.13,173.916z"/>
			<path fill="#2F2F2F" d="M133.298,181.982h-5.838v-9.803h2.208v8.012h3.63V181.982z"/>
			<path fill="#2F2F2F" d="M138.479,181.982v-9.803h3.473c3.481,0,5.223,1.593,5.223,4.778c0,1.527-0.475,2.746-1.426,3.657
				c-0.949,0.912-2.216,1.367-3.797,1.367H138.479z M140.688,173.977v6.214h1.094c0.957,0,1.708-0.287,2.253-0.861
				c0.544-0.574,0.816-1.356,0.816-2.345c0-0.934-0.27-1.669-0.811-2.205c-0.539-0.536-1.297-0.803-2.272-0.803H140.688z"/>
			<path fill="#2F2F2F" d="M154.39,181.982h-2.044v-1.005h-0.027c-0.47,0.784-1.164,1.176-2.085,1.176
				c-0.679,0-1.214-0.192-1.603-0.578c-0.391-0.385-0.585-0.899-0.585-1.542c0-1.358,0.805-2.142,2.413-2.352l1.9-0.253
				c0-0.766-0.415-1.148-1.244-1.148c-0.834,0-1.627,0.249-2.379,0.745v-1.627c0.301-0.155,0.712-0.292,1.234-0.41
				c0.521-0.119,0.996-0.178,1.425-0.178c1.996,0,2.994,0.996,2.994,2.987V181.982z M152.359,179.138v-0.472l-1.271,0.164
				c-0.702,0.091-1.053,0.408-1.053,0.95c0,0.246,0.086,0.448,0.256,0.605c0.172,0.157,0.402,0.236,0.694,0.236
				c0.405,0,0.736-0.14,0.991-0.42S152.359,179.566,152.359,179.138z"/>
			<path fill="#2F2F2F" d="M160.218,181.9c-0.319,0.168-0.8,0.253-1.442,0.253c-1.522,0-2.283-0.791-2.283-2.372v-3.206h-1.135
				v-1.593h1.135v-1.511l2.153-0.615v2.126h1.572v1.593h-1.572v2.83c0,0.729,0.289,1.094,0.868,1.094
				c0.228,0,0.463-0.066,0.704-0.198V181.9z"/>
			<path fill="#2F2F2F" d="M167.398,181.982h-2.044v-1.005h-0.027c-0.47,0.784-1.164,1.176-2.085,1.176
				c-0.679,0-1.214-0.192-1.603-0.578c-0.391-0.385-0.585-0.899-0.585-1.542c0-1.358,0.805-2.142,2.413-2.352l1.9-0.253
				c0-0.766-0.415-1.148-1.244-1.148c-0.834,0-1.627,0.249-2.379,0.745v-1.627c0.301-0.155,0.712-0.292,1.234-0.41
				c0.521-0.119,0.996-0.178,1.425-0.178c1.996,0,2.994,0.996,2.994,2.987V181.982z M165.368,179.138v-0.472l-1.271,0.164
				c-0.702,0.091-1.053,0.408-1.053,0.95c0,0.246,0.086,0.448,0.256,0.605c0.172,0.157,0.402,0.236,0.694,0.236
				c0.405,0,0.736-0.14,0.991-0.42S165.368,179.566,165.368,179.138z"/>
			<path fill="#2F2F2F" d="M171.282,181.168h-0.027v0.813h-2.16v-10.363h2.16v4.416h0.027c0.533-0.816,1.292-1.224,2.276-1.224
				c0.902,0,1.598,0.31,2.085,0.93s0.731,1.467,0.731,2.543c0,1.167-0.285,2.103-0.854,2.81s-1.331,1.06-2.283,1.06
				C172.376,182.153,171.725,181.825,171.282,181.168z M171.221,178.215v0.718c0,0.451,0.13,0.825,0.39,1.121
				s0.593,0.444,0.998,0.444c0.492,0,0.874-0.19,1.146-0.571c0.271-0.38,0.406-0.919,0.406-1.617c0-0.579-0.124-1.031-0.373-1.357
				c-0.248-0.326-0.603-0.489-1.062-0.489c-0.433,0-0.792,0.162-1.076,0.485C171.363,177.274,171.221,177.696,171.221,178.215z"/>
			<path fill="#2F2F2F" d="M183.608,181.982h-2.044v-1.005h-0.027c-0.47,0.784-1.164,1.176-2.085,1.176
				c-0.679,0-1.214-0.192-1.603-0.578c-0.391-0.385-0.585-0.899-0.585-1.542c0-1.358,0.805-2.142,2.413-2.352l1.9-0.253
				c0-0.766-0.415-1.148-1.244-1.148c-0.834,0-1.627,0.249-2.379,0.745v-1.627c0.301-0.155,0.712-0.292,1.234-0.41
				c0.521-0.119,0.996-0.178,1.425-0.178c1.996,0,2.994,0.996,2.994,2.987V181.982z M181.578,179.138v-0.472l-1.271,0.164
				c-0.702,0.091-1.053,0.408-1.053,0.95c0,0.246,0.086,0.448,0.256,0.605c0.172,0.157,0.402,0.236,0.694,0.236
				c0.405,0,0.736-0.14,0.991-0.42S181.578,179.566,181.578,179.138z"/>
			<path fill="#2F2F2F" d="M184.982,181.797v-1.75c0.355,0.214,0.71,0.374,1.062,0.479c0.354,0.105,0.688,0.157,1.002,0.157
				c0.383,0,0.685-0.052,0.906-0.157c0.221-0.105,0.331-0.264,0.331-0.479c0-0.137-0.05-0.25-0.15-0.342s-0.229-0.171-0.386-0.239
				c-0.158-0.068-0.33-0.13-0.517-0.185s-0.367-0.116-0.54-0.185c-0.278-0.105-0.523-0.218-0.734-0.338
				c-0.213-0.121-0.391-0.261-0.533-0.42c-0.145-0.16-0.254-0.344-0.328-0.554c-0.076-0.209-0.113-0.458-0.113-0.745
				c0-0.392,0.086-0.729,0.256-1.012c0.172-0.283,0.399-0.514,0.684-0.694c0.285-0.18,0.611-0.312,0.979-0.396
				c0.366-0.084,0.748-0.126,1.145-0.126c0.31,0,0.624,0.024,0.943,0.072s0.634,0.117,0.943,0.208v1.668
				c-0.273-0.16-0.566-0.279-0.879-0.359c-0.312-0.08-0.618-0.12-0.919-0.12c-0.142,0-0.274,0.013-0.399,0.038
				c-0.126,0.025-0.236,0.062-0.332,0.109s-0.171,0.109-0.226,0.185s-0.082,0.161-0.082,0.256c0,0.127,0.041,0.237,0.123,0.328
				s0.189,0.17,0.321,0.236s0.279,0.125,0.441,0.178c0.161,0.052,0.322,0.106,0.481,0.161c0.287,0.1,0.547,0.209,0.779,0.328
				s0.432,0.257,0.599,0.417c0.166,0.16,0.293,0.346,0.383,0.561c0.088,0.214,0.133,0.469,0.133,0.766
				c0,0.415-0.09,0.769-0.27,1.063c-0.181,0.294-0.42,0.533-0.719,0.718c-0.298,0.185-0.643,0.319-1.031,0.403
				c-0.391,0.084-0.795,0.126-1.214,0.126C186.352,182.153,185.639,182.034,184.982,181.797z"/>
			<path fill="#2F2F2F" d="M197.932,179.097h-4.566c0.073,1.016,0.713,1.524,1.921,1.524c0.771,0,1.447-0.182,2.03-0.547v1.559
				c-0.647,0.346-1.488,0.52-2.522,0.52c-1.13,0-2.008-0.313-2.632-0.94s-0.937-1.5-0.937-2.622c0-1.162,0.337-2.083,1.012-2.762
				s1.504-1.019,2.488-1.019c1.021,0,1.811,0.303,2.369,0.909c0.558,0.606,0.837,1.429,0.837,2.468V179.097z M195.929,177.771
				c0-1.002-0.405-1.504-1.217-1.504c-0.347,0-0.646,0.144-0.898,0.431c-0.254,0.287-0.407,0.645-0.462,1.073H195.929z"/>
		</g>
	</g>
	<g>
		<g>
			<path fill="#2F2F2F" d="M75.657,229.784h-2.406l-0.697-2.181h-3.486l-0.69,2.181h-2.393l3.568-9.803h2.618L75.657,229.784z
				 M72.048,225.908l-1.053-3.295c-0.077-0.246-0.132-0.54-0.164-0.882h-0.055c-0.022,0.287-0.079,0.572-0.171,0.854l-1.066,3.322
				H72.048z"/>
			<path fill="#2F2F2F" d="M78.841,228.97h-0.027v4.033h-2.16v-10.22h2.16v1.053h0.027c0.533-0.816,1.282-1.224,2.249-1.224
				c0.906,0,1.607,0.311,2.102,0.933c0.495,0.622,0.742,1.469,0.742,2.54c0,1.167-0.288,2.103-0.865,2.81
				c-0.576,0.707-1.343,1.06-2.3,1.06C79.926,229.955,79.283,229.626,78.841,228.97z M78.779,226.099v0.561
				c0,0.483,0.127,0.877,0.383,1.183s0.59,0.458,1.005,0.458c0.492,0,0.874-0.19,1.146-0.571c0.271-0.38,0.406-0.919,0.406-1.617
				c0-1.23-0.479-1.846-1.436-1.846c-0.441,0-0.803,0.167-1.084,0.502C78.92,225.104,78.779,225.548,78.779,226.099z"/>
			<path fill="#2F2F2F" d="M87.538,228.97h-0.027v4.033h-2.16v-10.22h2.16v1.053h0.027c0.533-0.816,1.282-1.224,2.249-1.224
				c0.906,0,1.607,0.311,2.102,0.933c0.495,0.622,0.742,1.469,0.742,2.54c0,1.167-0.288,2.103-0.865,2.81
				c-0.576,0.707-1.343,1.06-2.3,1.06C88.623,229.955,87.98,229.626,87.538,228.97z M87.477,226.099v0.561
				c0,0.483,0.127,0.877,0.383,1.183s0.59,0.458,1.005,0.458c0.492,0,0.874-0.19,1.146-0.571c0.271-0.38,0.406-0.919,0.406-1.617
				c0-1.23-0.479-1.846-1.436-1.846c-0.441,0-0.803,0.167-1.084,0.502C87.617,225.104,87.477,225.548,87.477,226.099z"/>
			<path fill="#2F2F2F" d="M96.221,229.784h-2.16V219.42h2.16V229.784z"/>
			<path fill="#2F2F2F" d="M99.089,221.676c-0.364,0-0.663-0.108-0.896-0.325s-0.349-0.482-0.349-0.796
				c0-0.324,0.116-0.588,0.349-0.793s0.531-0.308,0.896-0.308c0.369,0,0.669,0.103,0.899,0.308c0.229,0.205,0.345,0.469,0.345,0.793
				c0,0.328-0.115,0.597-0.345,0.807C99.758,221.571,99.458,221.676,99.089,221.676z M100.155,229.784h-2.16v-7h2.16V229.784z"/>
			<path fill="#2F2F2F" d="M107.235,229.531c-0.487,0.283-1.192,0.424-2.112,0.424c-1.076,0-1.945-0.326-2.611-0.978
				s-0.998-1.493-0.998-2.522c0-1.189,0.356-2.127,1.07-2.813c0.713-0.686,1.666-1.029,2.86-1.029c0.825,0,1.422,0.109,1.791,0.328
				v1.832c-0.451-0.337-0.954-0.506-1.511-0.506c-0.619,0-1.111,0.181-1.473,0.543c-0.363,0.362-0.544,0.862-0.544,1.5
				c0,0.62,0.173,1.106,0.52,1.459s0.823,0.53,1.429,0.53c0.537,0,1.064-0.168,1.579-0.506V229.531z"/>
			<path fill="#2F2F2F" d="M114.57,229.784h-2.043v-1.005H112.5c-0.47,0.784-1.165,1.176-2.086,1.176
				c-0.679,0-1.213-0.192-1.603-0.578s-0.585-0.899-0.585-1.542c0-1.358,0.805-2.142,2.414-2.352l1.9-0.253
				c0-0.766-0.415-1.148-1.244-1.148c-0.834,0-1.627,0.249-2.379,0.745v-1.627c0.301-0.155,0.711-0.292,1.233-0.41
				s0.997-0.178,1.425-0.178c1.996,0,2.994,0.996,2.994,2.987V229.784z M112.541,226.94v-0.472l-1.271,0.164
				c-0.702,0.091-1.053,0.408-1.053,0.95c0,0.246,0.085,0.448,0.256,0.605s0.402,0.236,0.693,0.236c0.406,0,0.736-0.14,0.992-0.42
				C112.413,227.723,112.541,227.368,112.541,226.94z"/>
			<path fill="#2F2F2F" d="M120.399,229.702c-0.319,0.168-0.8,0.253-1.442,0.253c-1.521,0-2.283-0.791-2.283-2.372v-3.206h-1.135
				v-1.593h1.135v-1.511l2.153-0.615v2.126h1.572v1.593h-1.572v2.83c0,0.729,0.29,1.094,0.868,1.094
				c0.229,0,0.463-0.066,0.704-0.198V229.702z"/>
			<path fill="#2F2F2F" d="M122.777,221.676c-0.365,0-0.663-0.108-0.896-0.325s-0.349-0.482-0.349-0.796
				c0-0.324,0.116-0.588,0.349-0.793s0.53-0.308,0.896-0.308c0.369,0,0.669,0.103,0.898,0.308c0.23,0.205,0.346,0.469,0.346,0.793
				c0,0.328-0.115,0.597-0.346,0.807C123.446,221.571,123.146,221.676,122.777,221.676z M123.844,229.784h-2.16v-7h2.16V229.784z"/>
			<path fill="#2F2F2F" d="M128.955,229.955c-1.167,0-2.084-0.327-2.752-0.981s-1.002-1.542-1.002-2.663
				c0-1.158,0.347-2.063,1.039-2.717c0.693-0.654,1.63-0.981,2.811-0.981c1.162,0,2.073,0.327,2.734,0.981
				c0.66,0.654,0.99,1.519,0.99,2.594c0,1.162-0.34,2.081-1.021,2.755S130.14,229.955,128.955,229.955z M129.01,224.267
				c-0.511,0-0.907,0.175-1.189,0.526c-0.283,0.351-0.424,0.848-0.424,1.49c0,1.344,0.542,2.017,1.627,2.017
				c1.034,0,1.551-0.69,1.551-2.071C130.574,224.921,130.053,224.267,129.01,224.267z"/>
			<path fill="#2F2F2F" d="M140.917,229.784h-2.153v-3.89c0-1.084-0.387-1.627-1.162-1.627c-0.373,0-0.682,0.144-0.923,0.431
				s-0.362,0.652-0.362,1.094v3.992h-2.16v-7h2.16v1.107h0.027c0.516-0.852,1.265-1.278,2.249-1.278c1.55,0,2.324,0.961,2.324,2.885
				V229.784z"/>
			<path fill="#2F2F2F" d="M153.338,229.784h-2.16v-0.964h-0.027c-0.492,0.756-1.215,1.135-2.167,1.135
				c-0.875,0-1.579-0.309-2.112-0.926s-0.8-1.48-0.8-2.587c0-1.158,0.294-2.085,0.882-2.782s1.357-1.046,2.311-1.046
				c0.902,0,1.531,0.324,1.887,0.971h0.027v-4.163h2.16V229.784z M151.219,226.379v-0.526c0-0.456-0.133-0.834-0.396-1.135
				s-0.608-0.451-1.032-0.451c-0.479,0-0.853,0.188-1.121,0.564s-0.403,0.892-0.403,1.548c0,0.615,0.13,1.089,0.39,1.422
				s0.62,0.499,1.08,0.499c0.438,0,0.794-0.175,1.069-0.526C151.081,227.423,151.219,226.958,151.219,226.379z"/>
			<path fill="#2F2F2F" d="M160.986,229.784h-2.045v-1.005h-0.027c-0.469,0.784-1.164,1.176-2.084,1.176
				c-0.68,0-1.214-0.192-1.604-0.578s-0.584-0.899-0.584-1.542c0-1.358,0.804-2.142,2.412-2.352l1.9-0.253
				c0-0.766-0.414-1.148-1.244-1.148c-0.834,0-1.627,0.249-2.379,0.745v-1.627c0.301-0.155,0.713-0.292,1.234-0.41
				s0.997-0.178,1.426-0.178c1.996,0,2.994,0.996,2.994,2.987V229.784z M158.955,226.94v-0.472l-1.271,0.164
				c-0.701,0.091-1.053,0.408-1.053,0.95c0,0.246,0.086,0.448,0.257,0.605s0.402,0.236,0.694,0.236c0.405,0,0.735-0.14,0.99-0.42
				C158.828,227.723,158.955,227.368,158.955,226.94z"/>
			<path fill="#2F2F2F" d="M166.814,229.702c-0.318,0.168-0.8,0.253-1.442,0.253c-1.522,0-2.283-0.791-2.283-2.372v-3.206h-1.135
				v-1.593h1.135v-1.511l2.153-0.615v2.126h1.572v1.593h-1.572v2.83c0,0.729,0.289,1.094,0.868,1.094
				c0.228,0,0.462-0.066,0.704-0.198V229.702z"/>
			<path fill="#2F2F2F" d="M173.996,229.784h-2.045v-1.005h-0.027c-0.469,0.784-1.164,1.176-2.084,1.176
				c-0.68,0-1.214-0.192-1.604-0.578s-0.584-0.899-0.584-1.542c0-1.358,0.804-2.142,2.412-2.352l1.9-0.253
				c0-0.766-0.414-1.148-1.244-1.148c-0.834,0-1.627,0.249-2.379,0.745v-1.627c0.301-0.155,0.713-0.292,1.234-0.41
				s0.997-0.178,1.426-0.178c1.996,0,2.994,0.996,2.994,2.987V229.784z M171.965,226.94v-0.472l-1.271,0.164
				c-0.701,0.091-1.053,0.408-1.053,0.95c0,0.246,0.086,0.448,0.257,0.605s0.402,0.236,0.694,0.236c0.405,0,0.735-0.14,0.99-0.42
				C171.838,227.723,171.965,227.368,171.965,226.94z"/>
		</g>
	</g>
	<g>
		<g>
			<path fill="#2F2F2F" d="M62.973,18.974c-0.725,0.383-1.627,0.574-2.707,0.574c-1.395,0-2.511-0.449-3.35-1.347
				c-0.838-0.898-1.258-2.076-1.258-3.534c0-1.568,0.472-2.834,1.415-3.801s2.14-1.449,3.589-1.449c0.93,0,1.7,0.134,2.311,0.403
				v1.224c-0.701-0.392-1.477-0.588-2.324-0.588c-1.125,0-2.038,0.376-2.737,1.128c-0.7,0.752-1.05,1.757-1.05,3.015
				c0,1.194,0.327,2.146,0.981,2.854c0.653,0.708,1.512,1.063,2.573,1.063c0.984,0,1.837-0.219,2.557-0.656V18.974z"/>
			<path fill="#2F2F2F" d="M70.207,19.384h-1.121v-1.107h-0.027c-0.465,0.848-1.185,1.271-2.16,1.271
				c-1.668,0-2.502-0.994-2.502-2.98v-4.184h1.114v4.006c0,1.477,0.565,2.215,1.695,2.215c0.547,0,0.997-0.202,1.351-0.605
				s0.529-0.931,0.529-1.583v-4.033h1.121V19.384z"/>
			<path fill="#2F2F2F" d="M71.97,19.131v-1.203c0.61,0.451,1.283,0.677,2.017,0.677c0.984,0,1.477-0.328,1.477-0.984
				c0-0.187-0.042-0.345-0.126-0.475c-0.085-0.13-0.199-0.245-0.342-0.345c-0.145-0.1-0.312-0.19-0.506-0.27
				c-0.194-0.08-0.402-0.163-0.626-0.25c-0.31-0.123-0.582-0.247-0.817-0.373c-0.234-0.125-0.43-0.267-0.588-0.424
				c-0.156-0.157-0.275-0.336-0.355-0.537c-0.079-0.201-0.119-0.435-0.119-0.704c0-0.328,0.075-0.619,0.226-0.872
				s0.351-0.465,0.602-0.636s0.536-0.3,0.858-0.386c0.32-0.086,0.652-0.13,0.994-0.13c0.606,0,1.148,0.105,1.627,0.314v1.135
				c-0.515-0.337-1.107-0.506-1.777-0.506c-0.21,0-0.398,0.024-0.567,0.072s-0.313,0.115-0.435,0.202
				c-0.12,0.086-0.214,0.19-0.279,0.311c-0.066,0.121-0.1,0.254-0.1,0.4c0,0.182,0.033,0.335,0.1,0.458
				c0.065,0.123,0.162,0.232,0.29,0.328s0.282,0.182,0.465,0.26s0.39,0.162,0.622,0.253c0.31,0.119,0.588,0.24,0.834,0.366
				s0.456,0.267,0.629,0.424s0.307,0.338,0.4,0.543c0.093,0.205,0.14,0.449,0.14,0.731c0,0.346-0.076,0.647-0.229,0.902
				c-0.152,0.255-0.356,0.467-0.611,0.636s-0.549,0.294-0.882,0.376s-0.682,0.123-1.046,0.123
				C73.123,19.548,72.498,19.409,71.97,19.131z"/>
			<path fill="#2F2F2F" d="M81.623,19.315c-0.265,0.146-0.613,0.219-1.046,0.219c-1.226,0-1.839-0.684-1.839-2.051v-4.143h-1.203
				v-0.957h1.203v-1.709l1.121-0.362v2.071h1.764v0.957h-1.764v3.944c0,0.469,0.08,0.804,0.239,1.005s0.424,0.301,0.793,0.301
				c0.282,0,0.526-0.078,0.731-0.232V19.315z"/>
			<path fill="#2F2F2F" d="M85.88,19.548c-1.034,0-1.86-0.327-2.479-0.981c-0.617-0.654-0.926-1.521-0.926-2.601
				c0-1.176,0.321-2.094,0.964-2.755s1.511-0.991,2.604-0.991c1.044,0,1.858,0.321,2.443,0.964c0.586,0.643,0.879,1.534,0.879,2.673
				c0,1.117-0.315,2.011-0.947,2.683C87.788,19.212,86.941,19.548,85.88,19.548z M85.962,13.163c-0.72,0-1.29,0.245-1.709,0.735
				s-0.629,1.166-0.629,2.027c0,0.83,0.212,1.483,0.636,1.962s0.991,0.718,1.702,0.718c0.725,0,1.281-0.235,1.672-0.704
				c0.389-0.469,0.584-1.137,0.584-2.003c0-0.875-0.195-1.549-0.584-2.023C87.243,13.4,86.687,13.163,85.962,13.163z"/>
			<path fill="#2F2F2F" d="M101.021,19.384H99.9v-4.02c0-0.775-0.119-1.335-0.359-1.682c-0.238-0.346-0.641-0.52-1.206-0.52
				c-0.479,0-0.886,0.219-1.22,0.656c-0.336,0.438-0.503,0.961-0.503,1.572v3.992h-1.121v-4.156c0-1.376-0.531-2.064-1.593-2.064
				c-0.492,0-0.897,0.206-1.217,0.619s-0.479,0.949-0.479,1.61v3.992h-1.121v-7h1.121v1.107h0.027
				c0.497-0.848,1.222-1.271,2.174-1.271c0.479,0,0.896,0.133,1.251,0.4s0.6,0.616,0.731,1.049c0.52-0.966,1.294-1.449,2.324-1.449
				c1.54,0,2.311,0.95,2.311,2.851V19.384z"/>
			<path fill="#2F2F2F" d="M108.729,16.164h-4.942c0.019,0.779,0.228,1.381,0.629,1.805s0.952,0.636,1.654,0.636
				c0.788,0,1.513-0.26,2.174-0.779v1.053c-0.615,0.447-1.429,0.67-2.44,0.67c-0.989,0-1.766-0.318-2.331-0.954
				s-0.848-1.53-0.848-2.683c0-1.089,0.309-1.977,0.926-2.663c0.618-0.686,1.385-1.029,2.301-1.029s1.625,0.296,2.126,0.889
				s0.752,1.415,0.752,2.468V16.164z M107.58,15.214c-0.005-0.647-0.161-1.151-0.468-1.511c-0.309-0.36-0.735-0.54-1.282-0.54
				c-0.528,0-0.978,0.189-1.347,0.567s-0.597,0.873-0.684,1.483H107.58z"/>
			<path fill="#2F2F2F" d="M114.062,13.519c-0.196-0.15-0.479-0.226-0.848-0.226c-0.479,0-0.879,0.226-1.199,0.677
				c-0.322,0.451-0.482,1.066-0.482,1.846v3.568h-1.121v-7h1.121v1.442h0.027c0.159-0.492,0.403-0.876,0.731-1.152
				s0.695-0.414,1.101-0.414c0.292,0,0.515,0.032,0.67,0.096V13.519z"/>
			<path fill="#2F2F2F" d="M115.063,19.131v-1.203c0.61,0.451,1.283,0.677,2.017,0.677c0.984,0,1.477-0.328,1.477-0.984
				c0-0.187-0.042-0.345-0.126-0.475c-0.085-0.13-0.199-0.245-0.342-0.345c-0.145-0.1-0.312-0.19-0.506-0.27
				c-0.194-0.08-0.402-0.163-0.626-0.25c-0.31-0.123-0.582-0.247-0.817-0.373c-0.234-0.125-0.43-0.267-0.588-0.424
				c-0.156-0.157-0.275-0.336-0.355-0.537c-0.079-0.201-0.119-0.435-0.119-0.704c0-0.328,0.075-0.619,0.226-0.872
				s0.351-0.465,0.602-0.636s0.536-0.3,0.858-0.386c0.32-0.086,0.652-0.13,0.994-0.13c0.606,0,1.148,0.105,1.627,0.314v1.135
				c-0.515-0.337-1.107-0.506-1.777-0.506c-0.21,0-0.398,0.024-0.567,0.072s-0.313,0.115-0.435,0.202
				c-0.12,0.086-0.214,0.19-0.279,0.311c-0.066,0.121-0.1,0.254-0.1,0.4c0,0.182,0.033,0.335,0.1,0.458
				c0.065,0.123,0.162,0.232,0.29,0.328s0.282,0.182,0.465,0.26s0.39,0.162,0.622,0.253c0.31,0.119,0.588,0.24,0.834,0.366
				s0.456,0.267,0.629,0.424s0.307,0.338,0.4,0.543c0.093,0.205,0.14,0.449,0.14,0.731c0,0.346-0.076,0.647-0.229,0.902
				c-0.152,0.255-0.356,0.467-0.611,0.636s-0.549,0.294-0.882,0.376s-0.682,0.123-1.046,0.123
				C116.217,19.548,115.592,19.409,115.063,19.131z"/>
		</g>
	</g>
	<g>
		<g>
			<path fill="#2F2F2F" d="M92.197,52.984h-2.406l-0.697-2.181h-3.486l-0.69,2.181h-2.393l3.568-9.803h2.618L92.197,52.984z
				 M88.588,49.108l-1.053-3.295c-0.078-0.246-0.133-0.54-0.164-0.882h-0.055c-0.023,0.287-0.08,0.572-0.171,0.854l-1.066,3.322
				H88.588z"/>
			<path fill="#2F2F2F" d="M95.381,52.171h-0.027v4.033h-2.16v-10.22h2.16v1.053h0.027c0.533-0.816,1.282-1.224,2.249-1.224
				c0.906,0,1.607,0.311,2.102,0.933c0.495,0.622,0.742,1.469,0.742,2.54c0,1.167-0.288,2.103-0.865,2.81
				c-0.576,0.707-1.343,1.06-2.3,1.06C96.465,53.155,95.822,52.827,95.381,52.171z M95.319,49.3v0.561
				c0,0.483,0.127,0.877,0.383,1.183c0.255,0.305,0.59,0.458,1.005,0.458c0.492,0,0.874-0.19,1.145-0.571
				c0.271-0.38,0.407-0.919,0.407-1.617c0-1.23-0.479-1.846-1.436-1.846c-0.442,0-0.804,0.167-1.084,0.502
				S95.319,48.749,95.319,49.3z"/>
			<path fill="#2F2F2F" d="M104.078,52.171h-0.027v4.033h-2.16v-10.22h2.16v1.053h0.027c0.533-0.816,1.283-1.224,2.249-1.224
				c0.907,0,1.607,0.311,2.102,0.933c0.495,0.622,0.742,1.469,0.742,2.54c0,1.167-0.288,2.103-0.865,2.81
				c-0.576,0.707-1.343,1.06-2.3,1.06C105.163,53.155,104.521,52.827,104.078,52.171z M104.017,49.3v0.561
				c0,0.483,0.128,0.877,0.383,1.183s0.59,0.458,1.005,0.458c0.492,0,0.874-0.19,1.146-0.571c0.271-0.38,0.406-0.919,0.406-1.617
				c0-1.23-0.479-1.846-1.436-1.846c-0.442,0-0.803,0.167-1.084,0.502C104.157,48.305,104.017,48.749,104.017,49.3z"/>
			<path fill="#2F2F2F" d="M112.761,52.984h-2.16V42.621h2.16V52.984z"/>
			<path fill="#2F2F2F" d="M115.629,44.877c-0.364,0-0.663-0.108-0.896-0.325s-0.349-0.482-0.349-0.796
				c0-0.324,0.116-0.588,0.349-0.793s0.531-0.308,0.896-0.308c0.369,0,0.669,0.103,0.899,0.308c0.229,0.205,0.345,0.469,0.345,0.793
				c0,0.328-0.115,0.597-0.345,0.807C116.298,44.772,115.998,44.877,115.629,44.877z M116.695,52.984h-2.16v-7h2.16V52.984z"/>
			<path fill="#2F2F2F" d="M123.775,52.731c-0.487,0.283-1.191,0.424-2.112,0.424c-1.075,0-1.946-0.326-2.611-0.978
				s-0.998-1.493-0.998-2.522c0-1.189,0.356-2.127,1.07-2.813c0.713-0.686,1.666-1.029,2.86-1.029c0.825,0,1.422,0.109,1.791,0.328
				v1.832c-0.451-0.337-0.955-0.506-1.511-0.506c-0.62,0-1.111,0.181-1.473,0.543c-0.363,0.362-0.544,0.862-0.544,1.5
				c0,0.62,0.173,1.106,0.52,1.459s0.822,0.53,1.429,0.53c0.538,0,1.064-0.168,1.579-0.506V52.731z"/>
			<path fill="#2F2F2F" d="M131.111,52.984h-2.044v-1.005h-0.027c-0.47,0.784-1.164,1.176-2.085,1.176
				c-0.679,0-1.214-0.192-1.603-0.578c-0.391-0.385-0.585-0.899-0.585-1.542c0-1.358,0.805-2.142,2.413-2.352l1.9-0.253
				c0-0.766-0.415-1.148-1.244-1.148c-0.834,0-1.627,0.249-2.379,0.745v-1.627c0.301-0.155,0.712-0.292,1.234-0.41
				c0.521-0.119,0.996-0.178,1.425-0.178c1.996,0,2.994,0.996,2.994,2.987V52.984z M129.081,50.141v-0.472l-1.271,0.164
				c-0.702,0.091-1.053,0.408-1.053,0.95c0,0.246,0.086,0.448,0.256,0.605c0.172,0.157,0.402,0.236,0.694,0.236
				c0.405,0,0.736-0.14,0.991-0.42S129.081,50.569,129.081,50.141z"/>
			<path fill="#2F2F2F" d="M136.939,52.902c-0.319,0.168-0.8,0.253-1.442,0.253c-1.522,0-2.283-0.791-2.283-2.372v-3.206h-1.135
				v-1.593h1.135v-1.511l2.153-0.615v2.126h1.572v1.593h-1.572v2.83c0,0.729,0.289,1.094,0.868,1.094
				c0.228,0,0.463-0.066,0.704-0.198V52.902z"/>
			<path fill="#2F2F2F" d="M139.317,44.877c-0.364,0-0.663-0.108-0.896-0.325s-0.349-0.482-0.349-0.796
				c0-0.324,0.116-0.588,0.349-0.793s0.531-0.308,0.896-0.308c0.369,0,0.669,0.103,0.899,0.308c0.229,0.205,0.345,0.469,0.345,0.793
				c0,0.328-0.115,0.597-0.345,0.807C139.986,44.772,139.687,44.877,139.317,44.877z M140.384,52.984h-2.16v-7h2.16V52.984z"/>
			<path fill="#2F2F2F" d="M145.494,53.155c-1.167,0-2.084-0.327-2.751-0.981c-0.668-0.654-1.002-1.542-1.002-2.663
				c0-1.158,0.347-2.063,1.039-2.717s1.629-0.981,2.81-0.981c1.162,0,2.073,0.327,2.734,0.981s0.991,1.519,0.991,2.594
				c0,1.162-0.341,2.081-1.021,2.755C147.612,52.818,146.679,53.155,145.494,53.155z M145.549,47.468
				c-0.511,0-0.907,0.175-1.189,0.526s-0.424,0.848-0.424,1.49c0,1.344,0.542,2.017,1.627,2.017c1.034,0,1.552-0.69,1.552-2.071
				C147.114,48.122,146.593,47.468,145.549,47.468z"/>
			<path fill="#2F2F2F" d="M157.457,52.984h-2.153v-3.89c0-1.084-0.388-1.627-1.162-1.627c-0.374,0-0.682,0.144-0.923,0.431
				s-0.362,0.652-0.362,1.094v3.992h-2.16v-7h2.16v1.107h0.027c0.515-0.852,1.265-1.278,2.249-1.278c1.55,0,2.324,0.961,2.324,2.885
				V52.984z"/>
		</g>
	</g>
	<g>
		<g>
			<path fill="#2F2F2F" d="M85.88,101.784h-2.406l-0.697-2.181H79.29l-0.69,2.181h-2.393l3.568-9.803h2.618L85.88,101.784z
				 M82.271,97.908l-1.053-3.295c-0.077-0.246-0.132-0.54-0.164-0.882h-0.055c-0.022,0.287-0.08,0.572-0.171,0.854l-1.066,3.322
				H82.271z"/>
			<path fill="#2F2F2F" d="M92.785,101.784h-6.282v-0.896l3.514-4.512h-3.165v-1.593h5.906v1.066l-3.329,4.341h3.356V101.784z"/>
			<path fill="#2F2F2F" d="M100.668,101.784h-2.153v-1.066H98.48c-0.533,0.825-1.246,1.237-2.14,1.237
				c-1.622,0-2.434-0.982-2.434-2.946v-4.225h2.153v4.033c0,0.989,0.392,1.483,1.176,1.483c0.388,0,0.697-0.136,0.93-0.407
				s0.349-0.639,0.349-1.104v-4.006h2.153V101.784z"/>
			<path fill="#2F2F2F" d="M107.002,96.732c-0.26-0.141-0.562-0.212-0.909-0.212c-0.47,0-0.836,0.172-1.101,0.516
				s-0.396,0.812-0.396,1.405v3.343h-2.16v-7h2.16v1.299h0.027c0.342-0.948,0.957-1.422,1.846-1.422
				c0.228,0,0.405,0.027,0.533,0.082V96.732z"/>
			<path fill="#2F2F2F" d="M114.374,98.899h-4.566c0.073,1.016,0.713,1.524,1.921,1.524c0.771,0,1.447-0.182,2.03-0.547v1.559
				c-0.647,0.346-1.488,0.52-2.522,0.52c-1.13,0-2.008-0.313-2.632-0.94s-0.937-1.5-0.937-2.622c0-1.162,0.337-2.083,1.012-2.762
				s1.504-1.019,2.488-1.019c1.021,0,1.811,0.303,2.369,0.909c0.558,0.606,0.837,1.429,0.837,2.468V98.899z M112.371,97.573
				c0-1.002-0.405-1.504-1.217-1.504c-0.347,0-0.646,0.144-0.898,0.431c-0.254,0.287-0.407,0.645-0.462,1.073H112.371z"/>
			<path fill="#2F2F2F" d="M128.354,101.784h-2.406l-0.697-2.181h-3.486l-0.69,2.181h-2.393l3.568-9.803h2.618L128.354,101.784z
				 M124.744,97.908l-1.053-3.295c-0.077-0.246-0.132-0.54-0.164-0.882h-0.055c-0.022,0.287-0.08,0.572-0.171,0.854l-1.066,3.322
				H124.744z"/>
			<path fill="#2F2F2F" d="M131.538,100.97h-0.027v4.033h-2.16v-10.22h2.16v1.053h0.027c0.533-0.816,1.283-1.224,2.249-1.224
				c0.907,0,1.607,0.311,2.102,0.933c0.495,0.622,0.742,1.469,0.742,2.54c0,1.167-0.288,2.103-0.865,2.81
				c-0.576,0.707-1.343,1.06-2.3,1.06C132.623,101.955,131.98,101.626,131.538,100.97z M131.477,98.099v0.561
				c0,0.483,0.128,0.877,0.383,1.183s0.59,0.458,1.005,0.458c0.492,0,0.874-0.19,1.146-0.571c0.271-0.38,0.406-0.919,0.406-1.617
				c0-1.23-0.479-1.846-1.436-1.846c-0.442,0-0.803,0.167-1.084,0.502C131.617,97.104,131.477,97.548,131.477,98.099z"/>
			<path fill="#2F2F2F" d="M140.234,100.97h-0.027v4.033h-2.16v-10.22h2.16v1.053h0.027c0.533-0.816,1.283-1.224,2.249-1.224
				c0.907,0,1.607,0.311,2.102,0.933c0.495,0.622,0.742,1.469,0.742,2.54c0,1.167-0.288,2.103-0.865,2.81
				c-0.576,0.707-1.343,1.06-2.3,1.06C141.319,101.955,140.677,101.626,140.234,100.97z M140.173,98.099v0.561
				c0,0.483,0.128,0.877,0.383,1.183s0.59,0.458,1.005,0.458c0.492,0,0.874-0.19,1.146-0.571c0.271-0.38,0.406-0.919,0.406-1.617
				c0-1.23-0.479-1.846-1.436-1.846c-0.442,0-0.803,0.167-1.084,0.502C140.313,97.104,140.173,97.548,140.173,98.099z"/>
			<path fill="#2F2F2F" d="M150.352,101.408V99.22c0.396,0.333,0.827,0.582,1.292,0.749s0.935,0.25,1.408,0.25
				c0.278,0,0.521-0.025,0.728-0.075c0.208-0.05,0.381-0.12,0.52-0.208c0.14-0.089,0.243-0.194,0.312-0.314s0.103-0.252,0.103-0.393
				c0-0.191-0.055-0.362-0.164-0.513s-0.259-0.29-0.447-0.417c-0.189-0.127-0.414-0.25-0.674-0.369s-0.54-0.239-0.841-0.362
				c-0.766-0.319-1.337-0.708-1.712-1.169c-0.377-0.46-0.564-1.016-0.564-1.668c0-0.51,0.103-0.949,0.308-1.316
				s0.484-0.669,0.837-0.906c0.354-0.237,0.763-0.411,1.228-0.523s0.957-0.167,1.477-0.167c0.511,0,0.963,0.031,1.356,0.092
				c0.395,0.062,0.758,0.156,1.091,0.284v2.044c-0.164-0.114-0.343-0.214-0.536-0.301c-0.194-0.086-0.394-0.158-0.599-0.215
				s-0.409-0.099-0.612-0.126c-0.202-0.027-0.395-0.041-0.577-0.041c-0.251,0-0.479,0.024-0.684,0.072s-0.378,0.115-0.52,0.202
				s-0.251,0.19-0.328,0.311s-0.116,0.256-0.116,0.407c0,0.164,0.043,0.311,0.13,0.441s0.21,0.253,0.369,0.369
				s0.354,0.23,0.581,0.342s0.485,0.227,0.772,0.345c0.392,0.164,0.744,0.338,1.056,0.523c0.312,0.185,0.58,0.393,0.804,0.625
				s0.395,0.498,0.513,0.796s0.178,0.646,0.178,1.042c0,0.547-0.104,1.006-0.311,1.377c-0.208,0.372-0.489,0.672-0.845,0.902
				s-0.769,0.396-1.241,0.496c-0.471,0.1-0.969,0.15-1.493,0.15c-0.538,0-1.05-0.045-1.534-0.137
				C151.127,101.727,150.707,101.59,150.352,101.408z"/>
			<path fill="#2F2F2F" d="M164.728,98.899h-4.566c0.073,1.016,0.713,1.524,1.921,1.524c0.771,0,1.447-0.182,2.03-0.547v1.559
				c-0.647,0.346-1.488,0.52-2.522,0.52c-1.13,0-2.008-0.313-2.632-0.94s-0.937-1.5-0.937-2.622c0-1.162,0.337-2.083,1.012-2.762
				s1.504-1.019,2.488-1.019c1.021,0,1.811,0.303,2.369,0.909c0.558,0.606,0.837,1.429,0.837,2.468V98.899z M162.725,97.573
				c0-1.002-0.405-1.504-1.217-1.504c-0.347,0-0.646,0.144-0.898,0.431c-0.254,0.287-0.407,0.645-0.462,1.073H162.725z"/>
			<path fill="#2F2F2F" d="M170.659,96.732c-0.26-0.141-0.562-0.212-0.909-0.212c-0.47,0-0.836,0.172-1.101,0.516
				s-0.396,0.812-0.396,1.405v3.343h-2.16v-7h2.16v1.299h0.027c0.342-0.948,0.957-1.422,1.846-1.422
				c0.228,0,0.405,0.027,0.533,0.082V96.732z"/>
			<path fill="#2F2F2F" d="M178.758,94.784l-2.604,7h-2.461l-2.481-7h2.311l1.217,4.313c0.137,0.488,0.217,0.902,0.239,1.244h0.027
				c0.032-0.324,0.116-0.725,0.253-1.203l1.244-4.354H178.758z"/>
			<path fill="#2F2F2F" d="M180.804,93.676c-0.364,0-0.663-0.108-0.896-0.325s-0.349-0.482-0.349-0.796
				c0-0.324,0.116-0.588,0.349-0.793s0.531-0.308,0.896-0.308c0.369,0,0.669,0.103,0.899,0.308c0.229,0.205,0.345,0.469,0.345,0.793
				c0,0.328-0.115,0.597-0.345,0.807C181.473,93.571,181.173,93.676,180.804,93.676z M181.87,101.784h-2.16v-7h2.16V101.784z"/>
			<path fill="#2F2F2F" d="M188.949,101.531c-0.487,0.283-1.191,0.424-2.112,0.424c-1.075,0-1.946-0.326-2.611-0.978
				s-0.998-1.493-0.998-2.522c0-1.189,0.356-2.127,1.07-2.813c0.713-0.686,1.666-1.029,2.86-1.029c0.825,0,1.422,0.109,1.791,0.328
				v1.832c-0.451-0.337-0.955-0.506-1.511-0.506c-0.62,0-1.111,0.181-1.473,0.543c-0.363,0.362-0.544,0.862-0.544,1.5
				c0,0.62,0.173,1.106,0.52,1.459s0.822,0.53,1.429,0.53c0.538,0,1.064-0.168,1.579-0.506V101.531z"/>
			<path fill="#2F2F2F" d="M196.665,98.899h-4.566c0.073,1.016,0.713,1.524,1.921,1.524c0.771,0,1.447-0.182,2.03-0.547v1.559
				c-0.647,0.346-1.488,0.52-2.522,0.52c-1.13,0-2.008-0.313-2.632-0.94s-0.937-1.5-0.937-2.622c0-1.162,0.337-2.083,1.012-2.762
				s1.504-1.019,2.488-1.019c1.021,0,1.811,0.303,2.369,0.909c0.558,0.606,0.837,1.429,0.837,2.468V98.899z M194.662,97.573
				c0-1.002-0.405-1.504-1.217-1.504c-0.347,0-0.646,0.144-0.898,0.431c-0.254,0.287-0.407,0.645-0.462,1.073H194.662z"/>
		</g>
	</g>
</g>
</svg>
