<?xml version="1.0" encoding="UTF-8" standalone="no"?>
<!DOCTYPE svg PUBLIC "-//W3C//DTD SVG 1.1//EN" "http://www.w3.org/Graphics/SVG/1.1/DTD/svg11.dtd">
<!-- Generated by Microsoft Visio, SVG Export End to end governance - repos diagram.svg Page-1 -->
<svg xmlns="http://www.w3.org/2000/svg" xmlns:xlink="http://www.w3.org/1999/xlink" xmlns:ev="http://www.w3.org/2001/xml-events"
		xmlns:v="http://schemas.microsoft.com/visio/2003/SVGExtensions/" width="6.37645in" height="3.76414in"
		viewBox="0 0 459.104 271.018" xml:space="preserve" color-interpolation-filters="sRGB" class="st17">
	<v:documentProperties v:langID="1033" v:viewMarkup="false"/>

	<style type="text/css">
	<![CDATA[
		.st1 {fill:#f2f2f2;stroke:#a5a5a5;stroke-width:2.5}
		.st2 {fill:none;stroke:none;stroke-width:0.25}
		.st3 {fill:#000000;font-family:Segoe UI;font-size:1.33333em;font-weight:bold}
		.st4 {fill:#4672c4;font-size:1em}
		.st5 {fill:#ed7d31;font-size:1em}
		.st6 {fill:#c00000;font-size:1em}
		.st7 {fill:#f05133;stroke:none;stroke-linecap:butt;stroke-width:0.75}
		.st8 {fill:#000000;font-family:Segoe UI;font-size:1.5em;font-weight:bold}
		.st9 {fill:#4672c4;stroke:#c7c8c8;stroke-width:0.25}
		.st10 {fill:#4672c4;font-family:Segoe UI;font-size:1.33333em;font-weight:bold}
		.st11 {fill:#000000;font-size:1em}
		.st12 {fill:#ed7d31;font-family:Segoe UI;font-size:1.33333em;font-weight:bold}
		.st13 {fill:#c00000;font-family:Segoe UI;font-size:1.33333em;font-weight:bold}
		.st14 {fill:#000000;stroke:#000000;stroke-width:0.5}
		.st15 {fill:#000000;fill-opacity:1;stroke:#000000;stroke-opacity:1;stroke-width:0.16556291390728}
		.st16 {fill:#000000;fill-opacity:1;stroke:#000000;stroke-opacity:1;stroke-width:0.13368983957219}
		.st17 {fill:none;fill-rule:evenodd;font-size:12px;overflow:visible;stroke-linecap:square;stroke-miterlimit:3}
	]]>
	</style>

	<defs id="Markers">
		<g id="lend4">
			<path d="M 2 1 L 0 0 L 2 -1 L 2 1 " style="stroke:none"/>
		</g>
		<marker id="mrkr4-42" class="st15" v:arrowType="4" v:arrowSize="2" v:setback="12.08" refX="12.08" orient="auto"
				markerUnits="strokeWidth" overflow="visible">
			<use xlink:href="#lend4" transform="scale(6.04) "/>
		</marker>
		<g id="lend13">
			<path d="M 3 1 L 0 0 L 3 -1 L 3 1 " style="stroke:none"/>
		</g>
		<marker id="mrkr13-44" class="st16" v:arrowType="13" v:arrowSize="3" v:setback="22.44" refX="-22.44" orient="auto"
				markerUnits="strokeWidth" overflow="visible">
			<use xlink:href="#lend13" transform="scale(-7.48,-7.48) "/>
		</marker>
	</defs>
	<g v:mID="0" v:index="1" v:groupContext="foregroundPage">
		<title>Page-1</title>
		<v:pageProperties v:drawingScale="1" v:pageScale="1" v:drawingUnits="0" v:shadowOffsetX="9" v:shadowOffsetY="-9"/>
		<g id="group3-1" transform="translate(2.5,-2.5)" v:mID="3" v:groupContext="group">
			<v:userDefs>
				<v:ud v:nameU="visVersion" v:prompt="" v:val="VT0(15):26"/>
				<v:ud v:nameU="visMasterStencil" v:prompt="" v:val="VT4(Basic_U.vssx)"/>
			</v:userDefs>
			<title>Can</title>
			<g id="shape4-2" v:mID="4" v:groupContext="shape">
				<title>Sheet.4</title>
				<v:userDefs>
					<v:ud v:nameU="ControlHalfHeight" v:prompt="" v:val="VT0(0.125):1"/>
					<v:ud v:nameU="FillForegnd" v:prompt="" v:val="VT5(1)"/>
					<v:ud v:nameU="ControlHalfHeight" v:prompt="" v:val="VT0(0.2750000103116):1"/>
					<v:ud v:nameU="FillForegnd" v:prompt="" v:val="VT5(#f2f2f2)"/>
				</v:userDefs>
				<path d="M0 251.22 A99 19.8 -180 0 0 198 251.22 L198 92.82 L0 92.82 L0 251.22 Z" class="st1"/>
			</g>
			<g id="shape3-4" v:mID="3" v:groupContext="groupContent">
				<ellipse cx="99" cy="92.818" rx="99" ry="19.8" class="st1"/>
			</g>
		</g>
		<g id="shape5-6" v:mID="5" v:groupContext="shape" transform="translate(11.5,-110.5)">
			<title>Sheet.5</title>
			<desc>refs/head/main</desc>
			<v:textBlock v:margins="rect(4,4,4,4)"/>
			<v:textRect cx="87.3544" cy="251.877" width="174.71" height="38.2815"/>
			<rect x="0" y="232.736" width="174.709" height="38.2815" class="st2"/>
			<text x="4" y="256.68" class="st3" v:langID="1033"><v:paragraph/><v:tabList/>refs/head/<tspan class="st4">main</tspan></text>		</g>
		<g id="shape9-10" v:mID="9" v:groupContext="shape" transform="translate(11.5,-64.3592)">
			<title>Sheet.9</title>
			<desc>refs/head/staging</desc>
			<v:textBlock v:margins="rect(4,4,4,4)"/>
			<v:textRect cx="87.3544" cy="251.877" width="174.71" height="38.2815"/>
			<rect x="0" y="232.736" width="174.709" height="38.2815" class="st2"/>
			<text x="4" y="256.68" class="st3" v:langID="1033"><v:paragraph/><v:tabList/>refs/head/<tspan class="st5">staging</tspan></text>		</g>
		<g id="shape11-14" v:mID="11" v:groupContext="shape" transform="translate(11.5,-19.3592)">
			<title>Sheet.11</title>
			<desc>refs/head/production</desc>
			<v:textBlock v:margins="rect(4,4,4,4)"/>
			<v:textRect cx="87.3544" cy="251.877" width="174.71" height="38.2815"/>
			<rect x="0" y="232.736" width="174.709" height="38.2815" class="st2"/>
			<text x="4" y="256.68" class="st3" v:langID="1033"><v:paragraph/><v:tabList/>refs/head/<tspan class="st6">production</tspan></text>		</g>
		<g id="group1-18" transform="translate(75.9815,-209.5)" v:mID="1" v:groupContext="group">
			<title>Sheet.1</title>
			<g id="shape2-19" v:mID="2" v:groupContext="shape">
				<title>Sheet.2</title>
				<path d="M49.77 243.25 L27.76 221.25 C26.5 219.98 24.44 219.98 23.17 221.25 L18.6 225.82 L24.4 231.62 C25.75 231.16
							 27.29 231.47 28.36 232.54 C29.44 233.62 29.75 235.18 29.28 236.53 L34.87 242.12 C36.22 241.65 37.78
							 241.95 38.86 243.03 C40.37 244.54 40.37 246.99 38.86 248.5 C37.35 250.01 34.9 250.01 33.39 248.5 C32.26
							 247.36 31.98 245.69 32.56 244.3 L27.34 239.09 L27.34 252.8 C27.71 252.98 28.06 253.22 28.36 253.53 C29.87
							 255.04 29.87 257.48 28.36 258.99 C26.86 260.5 24.41 260.5 22.9 258.99 C21.39 257.48 21.39 255.04 22.9
							 253.53 C23.28 253.16 23.71 252.87 24.17 252.68 L24.17 238.85 C23.71 238.66 23.28 238.38 22.9 238 C21.76
							 236.86 21.49 235.18 22.07 233.78 L16.36 228.06 L1.27 243.15 C0 244.42 0 246.48 1.27 247.74 L23.28 269.75
							 C24.54 271.02 26.6 271.02 27.87 269.75 L49.77 247.85 C51.04 246.58 51.04 244.52 49.77 243.25 Z"
						class="st7"/>
			</g>
		</g>
		<g id="shape1012-21" v:mID="1012" v:groupContext="shape" transform="translate(25.5,-171.5)">
			<title>Sheet.1012</title>
			<desc>Git repository</desc>
			<v:textBlock v:margins="rect(4,4,4,4)"/>
			<v:textRect cx="76" cy="261.018" width="152" height="20"/>
			<rect x="0" y="251.018" width="152" height="20" class="st2"/>
			<text x="17.58" y="266.42" class="st8" v:langID="1033"><v:paragraph v:horizAlign="1"/><v:tabList/>Git repository</text>		</g>
		<g id="group1013-24" transform="translate(299.5,-199.018)" v:mID="1013" v:groupContext="group">
			<v:custProps>
				<v:cp v:nameU="ShapeClass" v:lbl="ShapeClass" v:prompt="" v:type="0" v:format="" v:sortKey="" v:invis="true"
						v:ask="false" v:langID="1033" v:cal="0" v:val="VT4(Location)"/>
				<v:cp v:nameU="ShapeType" v:lbl="ShapeType" v:prompt="" v:type="0" v:format="" v:sortKey="" v:invis="true"
						v:ask="false" v:langID="1033" v:cal="0" v:val="VT4(Cloud)"/>
			</v:custProps>
			<v:userDefs>
				<v:ud v:nameU="visVersion" v:prompt="" v:val="VT0(15):26"/>
				<v:ud v:nameU="ShapeClass" v:prompt="" v:val="VT0(5):26"/>
				<v:ud v:nameU="SolSH" v:prompt="" v:val="VT15({BF0433D9-CD73-4EB5-8390-8653BE590246}):41"/>
				<v:ud v:nameU="visLegendShape" v:prompt="" v:val="VT0(2):26"/>
			</v:userDefs>
			<title>Cloud.1013</title>
			<g id="shape1014-25" v:mID="1014" v:groupContext="shape" transform="translate(0,-15.3606)">
				<title>Sheet.1014</title>
				<path d="M62.12 240.98 C61.73 237.58 58.64 234.92 54.84 234.92 C53.76 234.92 52.74 235.15 51.82 235.53 C50.03 232.19
							 46.33 229.74 39.39 229.94 C30.37 230.19 19.69 234.25 17.54 241.46 C14.97 241.95 13.31 243.34 12.32 245.2
							 C11.93 245.16 11.52 245.14 11.1 245.14 C5.16 245.14 0.6 249.47 0.34 254.81 C0 261.71 5.16 264.48 11.1
							 264.48 C11.95 264.48 12.77 264.38 13.56 264.22 C14.8 265.02 16.41 265.52 18.17 265.52 C19.8 265.52 21.31
							 265.09 22.5 264.39 C24.78 268.28 29.49 271.02 34.91 270.7 C40.61 270.37 44.04 269.15 46.06 267.27 C46.18
							 267.26 46.3 267.26 46.43 267.24 C52.81 266.43 55.61 264.77 56.52 262.05 C56.68 262.06 56.86 262.06 57.03
							 262.06 C65.3 262.06 72 259.64 72 251.18 C72 246.48 67.87 242.5 62.12 240.98 Z" class="st9"/>
			</g>
		</g>
		<g id="shape1027-27" v:mID="1027" v:groupContext="shape" transform="translate(285.146,-119.5)">
			<title>Sheet.1027</title>
			<desc>dev.contoso.com</desc>
			<v:textBlock v:margins="rect(4,4,4,4)"/>
			<v:textRect cx="76" cy="261.018" width="152" height="20"/>
			<rect x="0" y="251.018" width="152" height="20" class="st2"/>
			<text x="4" y="265.82" class="st10" v:langID="1033"><v:paragraph/><v:tabList/>dev.<tspan class="st11">contoso.com</tspan></text>		</g>
		<g id="shape1040-31" v:mID="1040" v:groupContext="shape" transform="translate(284.146,-73.5)">
			<title>Sheet.1040</title>
			<desc>staging.contoso.com</desc>
			<v:textBlock v:margins="rect(4,4,4,4)"/>
			<v:textRect cx="87.3544" cy="261.018" width="174.71" height="20"/>
			<rect x="0" y="251.018" width="174.709" height="20" class="st2"/>
			<text x="4" y="265.82" class="st12" v:langID="1033"><v:paragraph/><v:tabList/>staging.<tspan class="st11">contoso.com</tspan></text>		</g>
		<g id="shape1041-35" v:mID="1041" v:groupContext="shape" transform="translate(284.146,-27.5)">
			<title>Sheet.1041</title>
			<desc>www.contoso.com</desc>
			<v:textBlock v:margins="rect(4,4,4,4)"/>
			<v:textRect cx="87.3544" cy="261.018" width="174.71" height="20"/>
			<rect x="0" y="251.018" width="174.709" height="20" class="st2"/>
			<text x="4" y="265.82" class="st13" v:langID="1033"><v:paragraph/><v:tabList/>www.<tspan class="st11">contoso.com</tspan></text>		</g>
		<g id="shape1042-39" v:mID="1042" v:groupContext="shape" transform="translate(279.25,413.536) rotate(-180)">
			<title>Simple Arrow.1042</title>
			<v:userDefs>
				<v:ud v:nameU="visVersion" v:val="VT0(15):26"/>
				<v:ud v:nameU="ArrowType" v:prompt="" v:val="VT0(2):26"/>
			</v:userDefs>
			<path d="M0 271.02 L6.19 268.77 L6.19 269.89 L139.5 269.89 L139.5 271.02 L139.5 272.14 L6.19 272.14 L6.19 273.27 L0 271.02
						 Z" class="st14"/>
		</g>
		<g id="shape1043-45" v:mID="1043" v:groupContext="shape" transform="translate(278.687,459.661) rotate(180)">
			<title>Simple Arrow.1043</title>
			<v:userDefs>
				<v:ud v:nameU="visVersion" v:val="VT0(15):26"/>
				<v:ud v:nameU="ArrowType" v:prompt="" v:val="VT0(2):26"/>
			</v:userDefs>
			<path d="M0 271.02 L6.19 268.77 L6.19 269.89 L117.94 269.89 L117.94 271.02 L117.94 272.14 L6.19 272.14 L6.19 273.27 L0
						 271.02 Z" class="st14"/>
		</g>
		<g id="shape1044-49" v:mID="1044" v:groupContext="shape" transform="translate(277.698,503.671) rotate(180)">
			<title>Simple Arrow.1044</title>
			<v:userDefs>
				<v:ud v:nameU="visVersion" v:val="VT0(15):26"/>
				<v:ud v:nameU="ArrowType" v:prompt="" v:val="VT0(2):26"/>
			</v:userDefs>
			<path d="M0 271.02 L6.19 268.77 L6.19 269.89 L93.4 269.89 L93.4 271.02 L93.4 272.14 L6.19 272.14 L6.19 273.27 L0 271.02
						 Z" class="st14"/>
		</g>
		<g id="shape1045-53" v:mID="1045" v:groupContext="shape" transform="translate(273.5,-171.5)">
			<title>Sheet.1045</title>
			<desc>Web environments</desc>
			<v:textBlock v:margins="rect(4,4,4,4)"/>
			<v:textRect cx="87.3544" cy="261.018" width="174.71" height="20"/>
			<rect x="0" y="251.018" width="174.709" height="20" class="st2"/>
			<text x="7.08" y="266.42" class="st8" v:langID="1033"><v:paragraph v:horizAlign="1"/><v:tabList/>Web environments</text>		</g>
	</g>
</svg>
