<?xml version="1.0" encoding="utf-8"?>
<!-- Generator: Adobe Illustrator 21.1.0, SVG Export Plug-In . SVG Version: 6.00 Build 0)  -->
<svg version="1.1"
	 id="svg13070" inkscape:version="0.91 r13725" sodipodi:docname="expressroute.svg" xmlns:cc="http://creativecommons.org/ns#" xmlns:dc="http://purl.org/dc/elements/1.1/" xmlns:inkscape="http://www.inkscape.org/namespaces/inkscape" xmlns:rdf="http://www.w3.org/1999/02/22-rdf-syntax-ns#" xmlns:sodipodi="http://sodipodi.sourceforge.net/DTD/sodipodi-0.dtd" xmlns:svg="http://www.w3.org/2000/svg" xmlns:v="http://schemas.microsoft.com/visio/2003/SVGExtensions/"
	 xmlns="http://www.w3.org/2000/svg" xmlns:xlink="http://www.w3.org/1999/xlink" x="0px" y="0px" viewBox="0 0 320 144"
	 style="enable-background:new 0 0 320 144;" xml:space="preserve">
<style type="text/css">
	.st0{fill:#68217A;}
	.st1{fill:#7FBA00;}
	.st2{fill:#77A7D3;}
	.st3{fill:#E4FAFF;stroke:#3A99C6;stroke-width:0.4537;}
	.st4{fill:#3999C6;}
	.st5{fill:#0078D7;}
	.st6{fill:#2A3282;}
	.st7{fill-opacity:7.692309e-02;stroke:#4C4C4C;stroke-width:0.665;}
</style>
<sodipodi:namedview  bordercolor="#666666" borderopacity="1.0" id="base" inkscape:current-layer="layer1" inkscape:cx="110.71072" inkscape:cy="129.54096" inkscape:document-units="px" inkscape:pageopacity="0.0" inkscape:pageshadow="2" inkscape:window-height="897" inkscape:window-maximized="1" inkscape:window-width="1536" inkscape:window-x="-8" inkscape:window-y="-8" inkscape:zoom="1.979899" pagecolor="#ffffff" showgrid="false" units="px">
	</sodipodi:namedview>
<g id="Layer_1-0" transform="matrix(0.66238217,0,0,0.66238217,3.3469383,889.63445)">
</g>
<g id="File_x2C__general" transform="translate(142.84596,813.75764)">
	<title  id="title6">Sheet.1071</title>
</g>
<g id="Message" transform="translate(142.84596,813.75764)">
</g>
<g id="Monitor" transform="translate(142.84596,813.75764)">
</g>
<g id="Monitor_running_apps" transform="translate(142.84596,813.75764)">
</g>
<g id="Mouse" transform="translate(142.84596,813.75764)">
</g>
<g id="Network_card" transform="translate(142.84596,813.75764)">
</g>
<g id="Not_allowed" transform="translate(142.84596,813.75764)">
</g>
<g id="Performance" transform="translate(142.84596,813.75764)">
</g>
<g id="Phone" transform="translate(142.84596,813.75764)">
</g>
<g id="Plug_and_play" transform="translate(142.84596,813.75764)">
</g>
<g id="Powershell_script_file" transform="translate(142.84596,813.75764)">
</g>
<g id="Protocol_stack" transform="translate(142.84596,813.75764)">
</g>
<g id="Queue_x2C__general" transform="translate(142.84596,813.75764)">
</g>
<g id="RMS_connector" transform="translate(142.84596,813.75764)">
</g>
<g id="paths" transform="translate(142.84596,813.75764)">
	<g id="Access_control">
	</g>
	<g id="Azure_active_directory">
	</g>
	<g id="Generic_code">
	</g>
	<g id="Laptop">
	</g>
	<g id="Load_balancer">
	</g>
	<g id="Lock_x2C__protected">
	</g>
</g>
<g id="symbols" transform="translate(142.84596,813.75764)">
</g>
<g id="slices" transform="translate(142.84596,813.75764)">
</g>
<g id="Layer_1_1_" transform="matrix(0.06125617,0,0,0.06125617,156.0456,906.89669)">
	<g id="File_x2C__general-6">
		<title  id="title5">Sheet.1071</title>
	</g>
</g>
<g id="Access_control-2" transform="matrix(0.06125617,0,0,0.06125617,156.0456,906.89669)">
</g>
<g id="Azure_active_directory-8" transform="matrix(0.06125617,0,0,0.06125617,156.0456,906.89669)">
</g>
<g id="symbols-6" transform="matrix(0.06125617,0,0,0.06125617,156.0456,906.89669)">
</g>
<g>
	<g id="g14808" transform="matrix(0.57573593,0,0,0.57573593,79.229937,377.06709)">
		<rect id="rect3" x="131.3" y="-548.1" class="st0" width="31" height="3.8"/>
		
			<rect id="rect5" x="125.8" y="-557.5" transform="matrix(0.7071 -0.7071 0.7071 0.7071 432.8069 -66.2539)" class="st0" width="21.2" height="3.8"/>
		
			<rect id="rect7" x="154.7" y="-566.1" transform="matrix(0.7071 -0.7071 0.7071 0.7071 438.6982 -51.9831)" class="st0" width="3.8" height="21.2"/>
		<path id="path9" inkscape:connector-curvature="0" class="st1" d="M146.5-571.2c-3.1,0-5.6,2.5-5.6,5.6s2.5,5.6,5.6,5.6
			s5.6-2.5,5.6-5.6S149.6-571.2,146.5-571.2z M146.5-563.8c-1,0-1.8-0.8-1.8-1.8s0.8-1.8,1.8-1.8s1.8,0.8,1.8,1.8
			S147.5-563.8,146.5-563.8z"/>
		<path id="path11" inkscape:connector-curvature="0" class="st1" d="M127.1-551.8c-3.1,0-5.6,2.5-5.6,5.6s2.5,5.6,5.6,5.6
			s5.6-2.5,5.6-5.6S130.2-551.8,127.1-551.8z M127.1-544.4c-1,0-1.8-0.8-1.8-1.8s0.8-1.8,1.8-1.8c1,0,1.8,0.8,1.8,1.8
			S128.1-544.4,127.1-544.4z"/>
		<path id="path13" inkscape:connector-curvature="0" class="st1" d="M165.9-551.8c-3.1,0-5.6,2.5-5.6,5.6s2.5,5.6,5.6,5.6
			s5.6-2.5,5.6-5.6S169-551.8,165.9-551.8z M165.9-544.4c-1,0-1.8-0.8-1.8-1.8s0.8-1.8,1.8-1.8s1.8,0.8,1.8,1.8
			S166.9-544.4,165.9-544.4z"/>
	</g>
	<polygon class="st2" points="216.8,76.4 187.3,57.5 187.3,68.2 139.8,68.2 139.8,57.5 110.3,76.4 139.8,95.8 139.8,85 187.3,85 
		187.3,95.8 	"/>
</g>
<g id="g4493" transform="translate(16.162447,740.6975)">
	<rect id="rect11512" x="206.4" y="-730.5" class="st3" width="84.6" height="123.5"/>
	<g id="group4-6" transform="matrix(1.2499987,0,0,1.2499987,211.3056,151.17889)">
		<title  id="title11520">g5181</title>
		<g id="shape5-7" transform="translate(10.0836,0)">
			<title  id="title11523">path3</title>
			<path id="path11525" inkscape:connector-curvature="0" class="st4" d="M4.3-612.9c0.1-0.1,0.1-0.4,0-0.5l-0.7-0.7l-3.2-3.1
				c-0.1-0.2-0.4-0.2-0.5,0c-0.1,0.2-0.2,0.4,0,0.5l3.3,3.3c0.1,0.2,0.1,0.4,0,0.5l-3.4,3.4c-0.1,0.1-0.1,0.4,0,0.5
				c0.1,0.2,0.4,0.1,0.5,0l3.1-3.1c0,0,0,0,0,0L4.3-612.9C4.3-612.9,4.3-612.9,4.3-612.9z"/>
		</g>
		<g id="shape6-9">
			<title  id="title11528">path5</title>
			<path id="path11530" inkscape:connector-curvature="0" class="st4" d="M-0.1-612.9c-0.1-0.1-0.1-0.4,0-0.5l0.7-0.7l3.2-3.1
				c0.1-0.2,0.3-0.2,0.5,0c0.1,0.2,0.2,0.4,0,0.5L1-613.4c-0.1,0.2-0.1,0.4,0,0.5l3.3,3.4c0.1,0.1,0.1,0.4,0,0.5
				c-0.2,0.2-0.4,0.1-0.5,0l-3.2-3.1c0,0,0,0,0,0L-0.1-612.9C-0.1-612.9-0.1-612.9-0.1-612.9z"/>
		</g>
		<g id="shape7-11" transform="translate(3.41018,-3.35139)">
			<title  id="title11533">path7</title>
			<path id="path11535" inkscape:connector-curvature="0" class="st1" d="M1.7-609.8c0,0.6-0.5,1-1,1s-1-0.5-1-1s0.4-1,1-1
				C1.3-610.8,1.7-610.3,1.7-609.8z"/>
		</g>
		<g id="shape8-13" transform="translate(6.3794,-3.35139)">
			<title  id="title11538">path9</title>
			<path id="path11540" inkscape:connector-curvature="0" class="st1" d="M1.7-609.8c0,0.6-0.5,1-1,1s-1-0.5-1-1s0.5-1,1-1
				S1.7-610.3,1.7-609.8z"/>
		</g>
		<g id="shape9-15" transform="translate(9.4368,-3.35139)">
			<title  id="title11543">circle11</title>
			<circle id="ellipse11545" class="st1" cx="0.7" cy="-609.8" r="1"/>
		</g>
	</g>
	<g id="g4393" transform="translate(-14.16131,-756.4681)">
		<g id="Ibiza_Symbols" transform="matrix(0.79850972,0,0,0.79850972,185.14962,913.73095)">
			<g id="g6">
				<path id="path8-3" inkscape:connector-curvature="0" class="st5" d="M130.6-1050.4H97.5c-1.1,0-2,1-2,2.1v23.1
					c0,1.1,0.9,2.1,2,2.1h11.3c1.2,4.3-0.4,4.9-7.6,4.9v2.3h9.1h6.7h8.6v-2.3c-7.2,0-7.9-0.6-6.7-4.9h11.7c1.1,0,2.3-1,2.3-2.1
					v-23.1C132.9-1049.4,131.7-1050.4,130.6-1050.4z M130-1047.6v21.6H98.3v-21.6H130L130-1047.6z"/>
				<g id="group975-1984_1_" transform="translate(1176.51,-2762.63)">
					<title  id="title11">Sheet.975</title>
					<g id="shape976-1985_2_" transform="translate(0.8685,-17.652)">
						<title  id="title14">Sheet.976</title>
						<path id="path16" inkscape:connector-curvature="0" class="st5" d="M-1057.8,1739.5l-5.8-3.3l-5.8,3.3v0.1l5.8,3.3
							L-1057.8,1739.5L-1057.8,1739.5L-1057.8,1739.5z"/>
					</g>
					<g id="shape977-1987_1_" transform="translate(15.8925,0)">
						<title  id="title19">Sheet.977</title>
						<path id="path21" inkscape:connector-curvature="0" class="st5" d="M-1078,1726.2v6.6l5.8-3.3v-6.6L-1078,1726.2z"/>
					</g>
					<g id="shape978-1989_1_">
						<title  id="title24">Sheet.978</title>
						<path id="path26" inkscape:connector-curvature="0" class="st5" d="M-1063.3,1726.2l-5.8-3.3v6.6l5.8,3.3V1726.2z"/>
					</g>
				</g>
			</g>
		</g>
		<g id="g12829" transform="matrix(0.79850972,0,0,0.79850972,185.14962,878.48571)">
			<g id="g12831">
				<path id="path12833" inkscape:connector-curvature="0" class="st5" d="M130.6-1050.4H97.5c-1.1,0-2,1-2,2.1v23.1
					c0,1.1,0.9,2.1,2,2.1h11.3c1.2,4.3-0.4,4.9-7.6,4.9v2.3h9.1h6.7h8.6v-2.3c-7.2,0-7.9-0.6-6.7-4.9h11.7c1.1,0,2.3-1,2.3-2.1
					v-23.1C132.9-1049.4,131.7-1050.4,130.6-1050.4z M130-1047.6v21.6H98.3v-21.6H130L130-1047.6z"/>
				<g id="g12835" transform="translate(1176.51,-2762.63)">
					<title  id="title12837">Sheet.975</title>
					<g id="g12839" transform="translate(0.8685,-17.652)">
						<title  id="title12841">Sheet.976</title>
						<path id="path12843" inkscape:connector-curvature="0" class="st5" d="M-1057.8,1739.5l-5.8-3.3l-5.8,3.3v0.1l5.8,3.3
							L-1057.8,1739.5L-1057.8,1739.5L-1057.8,1739.5z"/>
					</g>
					<g id="g12845" transform="translate(15.8925,0)">
						<title  id="title12847">Sheet.977</title>
						<path id="path12849" inkscape:connector-curvature="0" class="st5" d="M-1078,1726.2v6.6l5.8-3.3v-6.6L-1078,1726.2z"/>
					</g>
					<g id="g12851">
						<title  id="title12853">Sheet.978</title>
						<path id="path12855" inkscape:connector-curvature="0" class="st5" d="M-1063.3,1726.2l-5.8-3.3v6.6l5.8,3.3V1726.2z"/>
					</g>
				</g>
			</g>
		</g>
		<g id="g4365" transform="matrix(0.79850972,0,0,0.79850972,185.14962,948.07614)">
			<g id="g4367">
				<path id="path4369" inkscape:connector-curvature="0" class="st5" d="M130.6-1050.4H97.5c-1.1,0-2,1-2,2.1v23.1
					c0,1.1,0.9,2.1,2,2.1h11.3c1.2,4.3-0.4,4.9-7.6,4.9v2.3h9.1h6.7h8.6v-2.3c-7.2,0-7.9-0.6-6.7-4.9h11.7c1.1,0,2.3-1,2.3-2.1
					v-23.1C132.9-1049.4,131.7-1050.4,130.6-1050.4z M130-1047.6v21.6H98.3v-21.6H130L130-1047.6z"/>
				<g id="g4371" transform="translate(1176.51,-2762.63)">
					<title  id="title4373">Sheet.975</title>
					<g id="g4375" transform="translate(0.8685,-17.652)">
						<title  id="title4377">Sheet.976</title>
						<path id="path4379" inkscape:connector-curvature="0" class="st5" d="M-1057.8,1739.5l-5.8-3.3l-5.8,3.3v0.1l5.8,3.3
							L-1057.8,1739.5L-1057.8,1739.5L-1057.8,1739.5z"/>
					</g>
					<g id="g4381" transform="translate(15.8925,0)">
						<title  id="title4383">Sheet.977</title>
						<path id="path4385" inkscape:connector-curvature="0" class="st5" d="M-1078,1726.2v6.6l5.8-3.3v-6.6L-1078,1726.2z"/>
					</g>
					<g id="g4387">
						<title  id="title4389">Sheet.978</title>
						<path id="path4391" inkscape:connector-curvature="0" class="st5" d="M-1063.3,1726.2l-5.8-3.3v6.6l5.8,3.3V1726.2z"/>
					</g>
				</g>
			</g>
		</g>
	</g>
	<g id="Gateway-5" transform="matrix(0.06125617,0,0,0.06125617,195.94662,208.59933)">
		<path id="path10-7" inkscape:connector-curvature="0" class="st6" d="M390.2-14510.6c-104.7,0-188.8,85-188.8,188.8
			c0,103.8,84.1,188.8,188.8,188.8s188.9-84.9,188.9-188.8S495.1-14510.6,390.2-14510.6z M373.1-14424.8v-60.1h34.3v60.1h17.2
			l-34.3,69.5l-34.3-69.5C356-14424.8,373.1-14424.8,373.1-14424.8z M295.8-14287.5l-69.5-34.3l69.5-34.3v17.2h60.1v34.3h-60.1
			C295.8-14304.6,295.8-14287.5,295.8-14287.5z M407.4-14227.4v60.1h-34.3v-60.1h-17.2l34.3-69.5l34.3,69.5
			C424.5-14227.4,407.4-14227.4,407.4-14227.4z M484.8-14287.5v-17.2h-60.1v-34.3h60.1v-17.2l69.5,34.3
			C554.3-14321.9,484.8-14287.5,484.8-14287.5z"/>
	</g>
</g>
<g id="g4533" transform="translate(-1.2503883,-14.419462)">
	<rect id="rect11496" x="14.3" y="24.8" class="st7" width="92.5" height="123.3"/>
	<g id="g4523" transform="translate(0.28559,7.5139434)">
		<g id="g12778" transform="translate(-20.415211,902.58454)">
			<path id="path11491" inkscape:connector-curvature="0" d="M65.4-834.6h-21c-0.7,0-1.3,0.6-1.3,1.3v14.7c0,0.7,0.6,1.3,1.3,1.3
				h7.2c0.8,2.7-0.3,3.1-4.8,3.1v1.5h5.8h4.3h5.5v-1.5c-4.6,0-5-0.4-4.3-3.1h7.4c0.7,0,1.5-0.6,1.5-1.3v-14.7
				C66.9-834,66.1-834.6,65.4-834.6z M65-832.9v13.7H44.9v-13.7H65C65-832.9,65-832.9,65-832.9z"/>
			<g id="g12774">
				<path id="path8" inkscape:connector-curvature="0" d="M92.1-859.6h-21c-0.7,0-1.3,0.6-1.3,1.3v14.7c0,0.7,0.6,1.3,1.3,1.3h7.2
					c0.8,2.7-0.3,3.1-4.8,3.1v1.5h5.8h4.3h5.5v-1.5c-4.6,0-5-0.4-4.3-3.1h7.4c0.7,0,1.5-0.6,1.5-1.3v-14.7
					C93.6-859,92.8-859.6,92.1-859.6L92.1-859.6z M91.7-857.9v13.7H71.6v-13.7H91.7L91.7-857.9z"/>
				<path id="path11493" inkscape:connector-curvature="0" d="M92.1-809.6h-21c-0.7,0-1.3,0.6-1.3,1.3v14.7c0,0.7,0.6,1.3,1.3,1.3
					h7.2c0.8,2.7-0.3,3.1-4.8,3.1v1.5h5.8h4.3h5.5v-1.5c-4.6,0-5-0.4-4.3-3.1h7.4c0.7,0,1.5-0.6,1.5-1.3v-14.7
					C93.6-809,92.8-809.6,92.1-809.6L92.1-809.6z M91.7-807.9v13.7H71.6v-13.7H91.7L91.7-807.9z"/>
			</g>
		</g>
		<g id="g13011" transform="matrix(0.76688787,0,0,0.76688787,-60.576555,1016.5226)">
			<path id="path24" inkscape:connector-curvature="0" class="st6" d="M204.5-1221.9h-35.2c-1,0-1.9,0.6-1.9,1.4v7.1
				c0,0.8,0.8,1.4,1.9,1.4h35.2c1,0,1.9-0.6,1.9-1.4v-7.1C206.4-1221.2,205.5-1221.9,204.5-1221.9z M173.4-1214.9c-1.1,0-2-0.9-2-2
				c0-1.1,0.9-2,2-2s2,0.9,2,2C175.4-1215.8,174.5-1214.9,173.4-1214.9z M182.4-1214.9c-1.1,0-2-0.9-2-2c0-1.1,0.9-2,2-2s2,0.9,2,2
				C184.4-1215.8,183.5-1214.9,182.4-1214.9z M191.4-1214.9c-1.1,0-2-0.9-2-2c0-1.1,0.9-2,2-2s2,0.9,2,2
				C193.4-1215.8,192.5-1214.9,191.4-1214.9z M200.4-1214.9c-1.1,0-2-0.9-2-2c0-1.1,0.9-2,2-2s2,0.9,2,2
				C202.4-1215.8,201.5-1214.9,200.4-1214.9z"/>
			<polygon id="polygon26" class="st6" points="174.6,-1231.9 167.4,-1224.9 206.4,-1224.9 199.2,-1231.9 			"/>
		</g>
	</g>
</g>
</svg>
