<?xml version="1.0" encoding="utf-8"?>
<!-- Generator: Adobe Illustrator 21.1.0, SVG Export Plug-In . SVG Version: 6.00 Build 0)  -->
<svg version="1.1"
	 id="svg10865" inkscape:version="0.91 r13725" sodipodi:docname="vpn.svg" xmlns:cc="http://creativecommons.org/ns#" xmlns:dc="http://purl.org/dc/elements/1.1/" xmlns:inkscape="http://www.inkscape.org/namespaces/inkscape" xmlns:rdf="http://www.w3.org/1999/02/22-rdf-syntax-ns#" xmlns:sodipodi="http://sodipodi.sourceforge.net/DTD/sodipodi-0.dtd" xmlns:svg="http://www.w3.org/2000/svg" xmlns:v="http://schemas.microsoft.com/visio/2003/SVGExtensions/"
	 xmlns="http://www.w3.org/2000/svg" xmlns:xlink="http://www.w3.org/1999/xlink" x="0px" y="0px" viewBox="0 0 320 144"
	width="320"
   height="144"
   style="enable-background:new 0 0 320 144;" xml:space="preserve">
<style type="text/css">
	.st0{fill:#77A7D3;}
	.st1{fill:#E4FAFF;stroke:#3A99C6;stroke-width:0.4537;}
	.st2{fill:#3999C6;}
	.st3{fill:#7FBA00;}
	.st4{fill:#0078D7;}
	.st5{fill:#2A3282;}
	.st6{fill-opacity:7.692309e-02;stroke:#4C4C4C;stroke-width:0.665;}
</style>
<sodipodi:namedview  bordercolor="#666666" borderopacity="1.0" id="base" inkscape:current-layer="layer7" inkscape:cx="84.761001" inkscape:cy="-4.9551184" inkscape:document-units="px" inkscape:pageopacity="0.0" inkscape:pageshadow="2" inkscape:window-height="897" inkscape:window-maximized="1" inkscape:window-width="1536" inkscape:window-x="-8" inkscape:window-y="-8" inkscape:zoom="1.979899" pagecolor="#ffffff" showgrid="false" units="px">
	</sodipodi:namedview>
<g id="layer1" transform="translate(0,-908.36216)" inkscape:groupmode="layer" inkscape:label="Layer 1">
</g>
<g id="layer6" inkscape:groupmode="layer" inkscape:label="vnet">
</g>
<g id="layer5" inkscape:groupmode="layer" inkscape:label="Layer 2">
</g>
<g id="layer4" inkscape:groupmode="layer" inkscape:label="on prem network">
	<g id="Layer_1" transform="translate(-29.728804,-35.305391)">
	</g>
</g>
<g id="Layer_1-0" transform="matrix(0.66238217,0,0,0.66238217,6.1842798,-17.792793)">
</g>
<g id="File_x2C__general" transform="translate(145.68329,-93.669594)">
	<title  id="title6">Sheet.1071</title>
</g>
<g id="Message" transform="translate(145.68329,-93.669594)">
</g>
<g id="Monitor" transform="translate(145.68329,-93.669594)">
</g>
<g id="Monitor_running_apps" transform="translate(145.68329,-93.669594)">
</g>
<g id="Mouse" transform="translate(145.68329,-93.669594)">
</g>
<g id="Network_card" transform="translate(145.68329,-93.669594)">
</g>
<g id="Not_allowed" transform="translate(145.68329,-93.669594)">
</g>
<g id="Performance" transform="translate(145.68329,-93.669594)">
</g>
<g id="Phone" transform="translate(145.68329,-93.669594)">
</g>
<g id="Plug_and_play" transform="translate(145.68329,-93.669594)">
</g>
<g id="Powershell_script_file" transform="translate(145.68329,-93.669594)">
</g>
<g id="Protocol_stack" transform="translate(145.68329,-93.669594)">
</g>
<g id="Queue_x2C__general" transform="translate(145.68329,-93.669594)">
</g>
<g id="RMS_connector" transform="translate(145.68329,-93.669594)">
</g>
<g id="paths" transform="translate(145.68329,-93.669594)">
	<g id="Access_control">
	</g>
	<g id="Azure_active_directory">
	</g>
	<g id="Generic_code">
	</g>
	<g id="Laptop">
	</g>
	<g id="Load_balancer">
	</g>
	<g id="Lock_x2C__protected">
	</g>
</g>
<g id="symbols" transform="translate(145.68329,-93.669594)">
</g>
<g id="slices" transform="translate(145.68329,-93.669594)">
</g>
<g id="Layer_1-0-8" transform="matrix(0.66238217,0,0,0.66238217,-1.9359219,-18.697174)">
</g>
<g id="File_x2C__general-9" transform="translate(137.5631,-94.573988)">
	<title  id="title6-5">Sheet.1071</title>
</g>
<g id="Message-5" transform="translate(137.5631,-94.573988)">
</g>
<g id="Monitor-9" transform="translate(137.5631,-94.573988)">
</g>
<g id="Monitor_running_apps-8" transform="translate(137.5631,-94.573988)">
</g>
<g id="Mouse-2" transform="translate(137.5631,-94.573988)">
</g>
<g id="Network_card-4" transform="translate(137.5631,-94.573988)">
</g>
<g id="Not_allowed-1" transform="translate(137.5631,-94.573988)">
</g>
<g id="Performance-1" transform="translate(137.5631,-94.573988)">
</g>
<g id="Phone-2" transform="translate(137.5631,-94.573988)">
</g>
<g id="Plug_and_play-4" transform="translate(137.5631,-94.573988)">
</g>
<g id="Powershell_script_file-4" transform="translate(137.5631,-94.573988)">
</g>
<g id="Protocol_stack-4" transform="translate(137.5631,-94.573988)">
</g>
<g id="Queue_x2C__general-4" transform="translate(137.5631,-94.573988)">
</g>
<g id="RMS_connector-7" transform="translate(137.5631,-94.573988)">
</g>
<g id="paths-6" transform="translate(137.5631,-94.573988)">
	<g id="Access_control-4">
	</g>
	<g id="Azure_active_directory-3">
	</g>
	<g id="Generic_code-8">
	</g>
	<g id="Laptop-7">
	</g>
	<g id="Load_balancer-8">
	</g>
	<g id="Lock_x2C__protected-4">
	</g>
</g>
<g id="symbols-8" transform="translate(137.5631,-94.573988)">
</g>
<g id="slices-2" transform="translate(137.5631,-94.573988)">
</g>
<g id="Layer_1_1_" transform="matrix(0.06125617,0,0,0.06125617,150.76274,-1.4349378)">
	<g id="File_x2C__general-6">
		<title  id="title5">Sheet.1071</title>
	</g>
</g>
<g id="Access_control-2" transform="matrix(0.06125617,0,0,0.06125617,150.76274,-1.4349378)">
</g>
<g id="Azure_active_directory-8" transform="matrix(0.06125617,0,0,0.06125617,150.76274,-1.4349378)">
</g>
<g id="symbols-6" transform="matrix(0.06125617,0,0,0.06125617,150.76274,-1.4349378)">
</g>
<path id="path16771" inkscape:connector-curvature="0" sodipodi:nodetypes="cccc" class="st0" d="M124.8,59.9v19.6l-15.1-9.9
	L124.8,59.9z"/>
<path id="path16773" inkscape:connector-curvature="0" sodipodi:nodetypes="cccc" class="st0" d="M201.1,59.9v19.6l15.1-9.9
	L201.1,59.9z"/>
<path id="path16775" inkscape:connector-curvature="0" sodipodi:nodetypes="ccccc" class="st0" d="M204.1,74h-79.7v-8.6h79.7V74z"/>
<g id="g4493" transform="translate(16.162441,-160.07626)">
	<rect id="rect11512" x="205.8" y="170.3" class="st1" width="84.6" height="123.5"/>
	<g id="group4-6" transform="matrix(1.2499987,0,0,1.2499987,211.3056,151.17889)">
		<title  id="title11520">g5181</title>
		<g id="shape5-7" transform="translate(10.0836,0)">
			<title  id="title11523">path3</title>
			<path id="path11525" inkscape:connector-curvature="0" class="st2" d="M3.9,107.7c0.1-0.1,0.1-0.4,0-0.5l-0.7-0.7L0,103.4
				c-0.1-0.2-0.4-0.2-0.5,0c-0.1,0.2-0.2,0.4,0,0.5l3.3,3.3c0.1,0.2,0.1,0.4,0,0.5l-3.4,3.4c-0.1,0.2-0.1,0.4,0,0.5
				c0.1,0.2,0.4,0.1,0.5,0l3.1-3.1c0,0,0,0,0,0L3.9,107.7C3.9,107.7,3.9,107.7,3.9,107.7z"/>
		</g>
		<g id="shape6-9">
			<title  id="title11528">path5</title>
			<path id="path11530" inkscape:connector-curvature="0" class="st2" d="M-0.5,107.7c-0.1-0.1-0.1-0.4,0-0.5l0.7-0.7l3.2-3.1
				c0.1-0.2,0.3-0.2,0.5,0c0.1,0.2,0.2,0.4,0,0.5l-3.3,3.3c-0.1,0.2-0.1,0.4,0,0.5l3.3,3.4c0.1,0.2,0.1,0.4,0,0.5
				c-0.2,0.2-0.4,0.1-0.5,0l-3.2-3.1c0,0,0,0,0,0L-0.5,107.7C-0.5,107.7-0.5,107.7-0.5,107.7z"/>
		</g>
		<g id="shape7-11" transform="translate(3.41018,-3.35139)">
			<title  id="title11533">path7</title>
			<path id="path11535" inkscape:connector-curvature="0" class="st3" d="M1.3,110.8c0,0.6-0.5,1-1,1s-1-0.5-1-1s0.4-1,1-1
				C0.9,109.9,1.3,110.3,1.3,110.8z"/>
		</g>
		<g id="shape8-13" transform="translate(6.3794,-3.35139)">
			<title  id="title11538">path9</title>
			<path id="path11540" inkscape:connector-curvature="0" class="st3" d="M1.3,110.8c0,0.6-0.5,1-1,1s-1-0.5-1-1s0.5-1,1-1
				S1.3,110.3,1.3,110.8z"/>
		</g>
		<g id="shape9-15" transform="translate(9.4368,-3.35139)">
			<title  id="title11543">circle11</title>
			<circle id="ellipse11545" class="st3" cx="0.3" cy="110.8" r="1"/>
		</g>
	</g>
	<g id="g4393" transform="translate(-14.16131,-756.4681)">
		<g id="Ibiza_Symbols" transform="matrix(0.79850972,0,0,0.79850972,185.14962,913.73095)">
			<g id="g6">
				<path id="path8-3" inkscape:connector-curvature="0" class="st4" d="M129.9,77.6H96.8c-1.1,0-2,1-2,2.1v23.1
					c0,1.1,0.9,2.1,2,2.1h11.3c1.2,4.3-0.4,4.9-7.6,4.9v2.3h9.1h6.7h8.6v-2.3c-7.2,0-7.9-0.6-6.7-4.9h11.7c1.1,0,2.3-1,2.3-2.1V79.7
					C132.2,78.6,131,77.6,129.9,77.6z M129.3,80.4V102H97.6V80.4H129.3L129.3,80.4z"/>
				<g id="group975-1984_1_" transform="translate(1176.51,-2762.63)">
					<title  id="title11">Sheet.975</title>
					<g id="shape976-1985_2_" transform="translate(0.8685,-17.652)">
						<title  id="title14">Sheet.976</title>
						<path id="path16" inkscape:connector-curvature="0" class="st4" d="M-1058.5,2867.5l-5.8-3.3l-5.8,3.3v0.1l5.8,3.3
							L-1058.5,2867.5L-1058.5,2867.5L-1058.5,2867.5z"/>
					</g>
					<g id="shape977-1987_1_" transform="translate(15.8925,0)">
						<title  id="title19">Sheet.977</title>
						<path id="path21" inkscape:connector-curvature="0" class="st4" d="M-1078.7,2854.2v6.6l5.8-3.3v-6.6L-1078.7,2854.2z"/>
					</g>
					<g id="shape978-1989_1_">
						<title  id="title24">Sheet.978</title>
						<path id="path26" inkscape:connector-curvature="0" class="st4" d="M-1064,2854.2l-5.8-3.3v6.6l5.8,3.3V2854.2z"/>
					</g>
				</g>
			</g>
		</g>
		<g id="g12829" transform="matrix(0.79850972,0,0,0.79850972,185.14962,878.48571)">
			<g id="g12831">
				<path id="path12833" inkscape:connector-curvature="0" class="st4" d="M129.9,77.6H96.8c-1.1,0-2,1-2,2.1v23.1
					c0,1.1,0.9,2.1,2,2.1h11.3c1.2,4.3-0.4,4.9-7.6,4.9v2.3h9.1h6.7h8.6v-2.3c-7.2,0-7.9-0.6-6.7-4.9h11.7c1.1,0,2.3-1,2.3-2.1V79.7
					C132.2,78.6,131,77.6,129.9,77.6z M129.3,80.4V102H97.6V80.4H129.3L129.3,80.4z"/>
				<g id="g12835" transform="translate(1176.51,-2762.63)">
					<title  id="title12837">Sheet.975</title>
					<g id="g12839" transform="translate(0.8685,-17.652)">
						<title  id="title12841">Sheet.976</title>
						<path id="path12843" inkscape:connector-curvature="0" class="st4" d="M-1058.5,2867.5l-5.8-3.3l-5.8,3.3v0.1l5.8,3.3
							L-1058.5,2867.5L-1058.5,2867.5L-1058.5,2867.5z"/>
					</g>
					<g id="g12845" transform="translate(15.8925,0)">
						<title  id="title12847">Sheet.977</title>
						<path id="path12849" inkscape:connector-curvature="0" class="st4" d="M-1078.7,2854.2v6.6l5.8-3.3v-6.6L-1078.7,2854.2z"/>
					</g>
					<g id="g12851">
						<title  id="title12853">Sheet.978</title>
						<path id="path12855" inkscape:connector-curvature="0" class="st4" d="M-1064,2854.2l-5.8-3.3v6.6l5.8,3.3V2854.2z"/>
					</g>
				</g>
			</g>
		</g>
		<g id="g4365" transform="matrix(0.79850972,0,0,0.79850972,185.14962,948.07614)">
			<g id="g4367">
				<path id="path4369" inkscape:connector-curvature="0" class="st4" d="M129.9,77.6H96.8c-1.1,0-2,1-2,2.1v23.1
					c0,1.1,0.9,2.1,2,2.1h11.3c1.2,4.3-0.4,4.9-7.6,4.9v2.3h9.1h6.7h8.6v-2.3c-7.2,0-7.9-0.6-6.7-4.9h11.7c1.1,0,2.3-1,2.3-2.1V79.7
					C132.2,78.6,131,77.6,129.9,77.6z M129.3,80.4V102H97.6V80.4H129.3L129.3,80.4z"/>
				<g id="g4371" transform="translate(1176.51,-2762.63)">
					<title  id="title4373">Sheet.975</title>
					<g id="g4375" transform="translate(0.8685,-17.652)">
						<title  id="title4377">Sheet.976</title>
						<path id="path4379" inkscape:connector-curvature="0" class="st4" d="M-1058.5,2867.5l-5.8-3.3l-5.8,3.3v0.1l5.8,3.3
							L-1058.5,2867.5L-1058.5,2867.5L-1058.5,2867.5z"/>
					</g>
					<g id="g4381" transform="translate(15.8925,0)">
						<title  id="title4383">Sheet.977</title>
						<path id="path4385" inkscape:connector-curvature="0" class="st4" d="M-1078.7,2854.2v6.6l5.8-3.3v-6.6L-1078.7,2854.2z"/>
					</g>
					<g id="g4387">
						<title  id="title4389">Sheet.978</title>
						<path id="path4391" inkscape:connector-curvature="0" class="st4" d="M-1064,2854.2l-5.8-3.3v6.6l5.8,3.3V2854.2z"/>
					</g>
				</g>
			</g>
		</g>
	</g>
	<g id="Gateway-5" transform="matrix(0.06125617,0,0,0.06125617,195.94662,208.59933)">
		<path id="path10-7" inkscape:connector-curvature="0" class="st5" d="M382,194.5c-104.7,0-188.8,85-188.8,188.8
			S277.3,572.1,382,572.1s188.9-84.9,188.9-188.8S486.8,194.5,382,194.5z M364.9,280.3v-60.1h34.3v60.1h17.2l-34.3,69.5l-34.3-69.5
			C347.8,280.3,364.9,280.3,364.9,280.3z M287.6,417.6l-69.5-34.3l69.5-34.3v17.2h60.1v34.3h-60.1
			C287.6,400.5,287.6,417.6,287.6,417.6z M399.2,477.7v60.1h-34.3v-60.1h-17.2l34.3-69.5l34.3,69.5
			C416.3,477.7,399.2,477.7,399.2,477.7z M476.5,417.6v-17.2h-60.1v-34.3h60.1v-17.2l69.5,34.3C546,383.2,476.5,417.6,476.5,417.6z"
			/>
	</g>
</g>
<g id="g4533" transform="translate(-0.2402297,-915.19322)">
	<rect id="rect11496" x="13.8" y="925.5" class="st6" width="92.5" height="123.3"/>
	<g id="g4523" transform="translate(0.28559,7.5139434)">
		<g id="g12778" transform="translate(-20.415211,902.58454)">
			<path id="path11491" inkscape:connector-curvature="0" d="M64.9,66.1h-21c-0.7,0-1.3,0.6-1.3,1.3v14.7c0,0.7,0.6,1.3,1.3,1.3h7.2
				c0.8,2.7-0.3,3.1-4.8,3.1v1.5H52h4.3h5.5v-1.5c-4.6,0-5-0.4-4.3-3.1h7.4c0.7,0,1.5-0.6,1.5-1.3V67.5
				C66.4,66.8,65.6,66.1,64.9,66.1z M64.5,67.9v13.7H44.4V67.9H64.5C64.5,67.9,64.5,67.9,64.5,67.9z"/>
			<g id="g12774">
				<path id="path8" inkscape:connector-curvature="0" d="M91.6,41.1h-21c-0.7,0-1.3,0.6-1.3,1.3v14.7c0,0.7,0.6,1.3,1.3,1.3h7.2
					c0.8,2.7-0.3,3.1-4.8,3.1v1.5h5.8H83h5.5v-1.5c-4.6,0-5-0.4-4.3-3.1h7.4c0.7,0,1.5-0.6,1.5-1.3V42.5
					C93.1,41.8,92.3,41.1,91.6,41.1L91.6,41.1z M91.2,42.9v13.7H71.1V42.9H91.2L91.2,42.9z"/>
				<path id="path11493" inkscape:connector-curvature="0" d="M91.6,91.1h-21c-0.7,0-1.3,0.6-1.3,1.3v14.7c0,0.7,0.6,1.3,1.3,1.3
					h7.2c0.8,2.7-0.3,3.1-4.8,3.1v1.5h5.8H83h5.5v-1.5c-4.6,0-5-0.4-4.3-3.1h7.4c0.7,0,1.5-0.6,1.5-1.3V92.5
					C93.1,91.8,92.3,91.1,91.6,91.1L91.6,91.1z M91.2,92.9v13.7H71.1V92.9H91.2L91.2,92.9z"/>
			</g>
		</g>
		<g id="g13011" transform="matrix(0.76688787,0,0,0.76688787,-60.576555,1016.5226)">
			<path id="path24" inkscape:connector-curvature="0" class="st5" d="M203.9-47.3h-35.2c-1,0-1.9,0.6-1.9,1.4v7.1
				c0,0.8,0.8,1.4,1.9,1.4h35.2c1,0,1.9-0.6,1.9-1.4v-7.1C205.8-46.6,204.9-47.3,203.9-47.3z M172.8-40.3c-1.1,0-2-0.9-2-2
				s0.9-2,2-2s2,0.9,2,2S173.9-40.3,172.8-40.3z M181.8-40.3c-1.1,0-2-0.9-2-2s0.9-2,2-2s2,0.9,2,2S182.9-40.3,181.8-40.3z
				 M190.8-40.3c-1.1,0-2-0.9-2-2s0.9-2,2-2s2,0.9,2,2S191.9-40.3,190.8-40.3z M199.8-40.3c-1.1,0-2-0.9-2-2s0.9-2,2-2s2,0.9,2,2
				S200.9-40.3,199.8-40.3z"/>
			<polygon id="polygon26" class="st5" points="198.6,-57.3 174,-57.3 166.8,-50.3 205.8,-50.3 			"/>
		</g>
	</g>
</g>
</svg>
