<svg width="592" height="333" xmlns="http://www.w3.org/2000/svg" xmlns:xlink="http://www.w3.org/1999/xlink" overflow="hidden"><defs><clipPath id="clip0"><rect x="96" y="159" width="592" height="333"/></clipPath><linearGradient x1="371.697" y1="393.703" x2="371.697" y2="403.323" gradientUnits="userSpaceOnUse" spreadMethod="reflect" id="fill1"><stop offset="0"/><stop offset="0.02917"/><stop offset="0.3"/><stop offset="1"/></linearGradient><linearGradient x1="343.138" y1="314.008" x2="343.138" y2="323.628" gradientUnits="userSpaceOnUse" spreadMethod="reflect" id="fill2"><stop offset="0"/><stop offset="0.02917"/><stop offset="0.3"/><stop offset="1"/></linearGradient><linearGradient x1="363.95" y1="337.682" x2="363.95" y2="347.302" gradientUnits="userSpaceOnUse" spreadMethod="reflect" id="fill3"><stop offset="0"/><stop offset="0.02917"/><stop offset="0.3"/><stop offset="1"/></linearGradient><linearGradient x1="380.215" y1="368.529" x2="380.215" y2="378.149" gradientUnits="userSpaceOnUse" spreadMethod="reflect" id="fill4"><stop offset="0"/><stop offset="0.02917"/><stop offset="0.3"/><stop offset="1"/></linearGradient><linearGradient x1="373.701" y1="415.098" x2="373.701" y2="424.718" gradientUnits="userSpaceOnUse" spreadMethod="reflect" id="fill5"><stop offset="0"/><stop offset="0.02917"/><stop offset="0.3"/><stop offset="1"/></linearGradient><linearGradient x1="438.336" y1="440.273" x2="438.336" y2="449.893" gradientUnits="userSpaceOnUse" spreadMethod="reflect" id="fill6"><stop offset="0"/><stop offset="0.02917"/><stop offset="0.3"/><stop offset="1"/></linearGradient></defs><g clip-path="url(#clip0)" transform="translate(-96 -159)"><path d="M96 159 688 159 688 492 96 492Z" fill="#F2F2F2"/><path d="M96 233 688 233 688 492 96 492Z" fill="#FFFFFF"/><path d="M96 159 688 159 688 233 96 233Z" fill="#333333"/><text fill="#FFFFFF" font-family="Calibri Light,Calibri Light_MSFontService,sans-serif" font-weight="300" font-size="25" transform="matrix(0.74 0 0 0.74 134.703 191)">Conditional Access <tspan fill="#269AED" font-family="Segoe UI,Segoe UI_MSFontService,sans-serif" font-weight="400" font-size="15" x="0" y="28.3784">Protection of various identities</tspan></text><path d="M138.18 309.96 203.3 309.96 203.3 342.52 138.18 342.52Z" fill="#FFB800"/><text fill="#243A5E" font-family="Segoe UI,Segoe UI_MSFontService,sans-serif" font-weight="700" font-size="13" transform="matrix(0.74 0 0 0.74 153.673 324)">Human <tspan font-size="13" x="-1.45833" y="16.2162">identity</tspan></text><path d="M138.18 405.42 203.3 405.42 203.3 434.28 138.18 434.28Z" fill="#269AED"/><text fill="#FFFFFF" font-family="Segoe UI,Segoe UI_MSFontService,sans-serif" font-weight="700" font-size="13" transform="matrix(0.74 0 0 0.74 150.821 417)">Machine <tspan font-size="13" x="2.39584" y="16.2162">identity</tspan></text><path d="M358.982 400.937 359.618 400.937 358.982 402.892 358.517 402.892ZM409.448 398.226C409.14 398.226 408.879 398.336 408.665 398.556 408.45 398.776 408.318 399.063 408.267 399.419L410.465 399.419C410.462 399.042 410.372 398.75 410.193 398.54 410.014 398.331 409.765 398.226 409.448 398.226ZM395.388 398.226C395.08 398.226 394.819 398.336 394.605 398.556 394.39 398.776 394.258 399.063 394.207 399.419L396.405 399.419C396.402 399.042 396.312 398.75 396.133 398.54 395.954 398.331 395.705 398.226 395.388 398.226ZM391.031 398.226C390.633 398.226 390.321 398.372 390.093 398.663 389.865 398.955 389.751 399.357 389.751 399.871 389.751 400.341 389.861 400.711 390.079 400.982 390.298 401.254 390.591 401.39 390.96 401.39 391.322 401.39 391.617 401.259 391.844 400.996 392.07 400.734 392.184 400.403 392.184 400.002L392.184 399.402C392.184 399.074 392.075 398.796 391.858 398.568 391.64 398.34 391.365 398.226 391.031 398.226ZM385.028 398.226C384.72 398.226 384.459 398.336 384.245 398.556 384.03 398.776 383.898 399.063 383.847 399.419L386.045 399.419C386.042 399.042 385.952 398.75 385.773 398.54 385.594 398.331 385.345 398.226 385.028 398.226ZM376.473 398.226C376.094 398.226 375.79 398.358 375.559 398.622 375.329 398.885 375.214 399.216 375.214 399.613L375.214 400.182C375.214 400.518 375.323 400.804 375.542 401.038 375.76 401.272 376.037 401.39 376.374 401.39 376.769 401.39 377.078 401.239 377.302 400.937 377.526 400.634 377.638 400.215 377.638 399.677 377.638 399.224 377.533 398.869 377.324 398.611 377.115 398.354 376.831 398.226 376.473 398.226ZM371.871 398.226C371.452 398.226 371.121 398.369 370.877 398.653 370.633 398.938 370.511 399.331 370.511 399.832 370.511 400.314 370.635 400.694 370.881 400.973 371.128 401.251 371.457 401.39 371.871 401.39 372.292 401.39 372.616 401.253 372.842 400.981 373.069 400.708 373.182 400.319 373.182 399.816 373.182 399.307 373.069 398.915 372.842 398.639 372.616 398.364 372.292 398.226 371.871 398.226ZM355.753 398.226C355.374 398.226 355.07 398.358 354.839 398.622 354.609 398.885 354.494 399.216 354.494 399.613L354.494 400.182C354.494 400.518 354.603 400.804 354.822 401.038 355.04 401.272 355.317 401.39 355.654 401.39 356.049 401.39 356.358 401.239 356.582 400.937 356.806 400.634 356.918 400.215 356.918 399.677 356.918 399.224 356.813 398.869 356.604 398.611 356.395 398.354 356.111 398.226 355.753 398.226ZM351.151 398.226C350.732 398.226 350.401 398.369 350.157 398.653 349.913 398.938 349.791 399.331 349.791 399.832 349.791 400.314 349.915 400.694 350.161 400.973 350.408 401.251 350.737 401.39 351.151 401.39 351.572 401.39 351.896 401.253 352.122 400.981 352.349 400.708 352.462 400.319 352.462 399.816 352.462 399.307 352.349 398.915 352.122 398.639 351.896 398.364 351.572 398.226 351.151 398.226ZM336.928 398.226C336.62 398.226 336.359 398.336 336.145 398.556 335.93 398.776 335.798 399.063 335.747 399.419L337.945 399.419C337.942 399.042 337.852 398.75 337.673 398.54 337.494 398.331 337.245 398.226 336.928 398.226ZM401.942 397.773 402.594 397.773 402.594 401.843 401.942 401.843ZM397.637 397.773 398.353 397.773 399.387 400.73C399.463 400.947 399.511 401.137 399.529 401.298L399.545 401.298C399.572 401.095 399.614 400.91 399.672 400.746L400.753 397.773 401.441 397.773 399.82 401.843 399.179 401.843ZM379.002 397.773 379.654 397.773 379.654 401.843 379.002 401.843ZM412.881 397.677C413.234 397.677 413.549 397.739 413.827 397.86L413.827 398.52C413.528 398.324 413.183 398.226 412.794 398.226 412.672 398.226 412.562 398.24 412.464 398.268 412.366 398.295 412.282 398.334 412.212 398.385 412.141 398.435 412.087 398.496 412.049 398.566 412.01 398.636 411.991 398.713 411.991 398.798 411.991 398.904 412.01 398.993 412.049 399.065 412.087 399.136 412.144 399.2 412.218 399.256 412.292 399.311 412.382 399.362 412.488 399.407 412.593 399.452 412.714 399.501 412.849 399.553 413.029 399.623 413.191 399.693 413.334 399.766 413.478 399.839 413.599 399.921 413.7 400.013 413.8 400.104 413.878 400.21 413.933 400.329 413.987 400.448 414.014 400.589 414.014 400.754 414.014 400.956 413.97 401.13 413.881 401.278 413.792 401.427 413.674 401.551 413.525 401.648 413.376 401.746 413.205 401.819 413.012 401.867 412.819 401.915 412.616 401.938 412.404 401.938 411.986 401.938 411.623 401.858 411.315 401.696L411.315 400.996C411.67 401.259 412.061 401.39 412.488 401.39 413.06 401.39 413.346 401.199 413.346 400.817 413.346 400.709 413.322 400.617 413.273 400.541 413.224 400.466 413.157 400.399 413.074 400.341 412.991 400.282 412.892 400.23 412.78 400.184 412.667 400.137 412.546 400.089 412.416 400.039 412.236 399.967 412.078 399.894 411.942 399.822 411.805 399.749 411.691 399.667 411.6 399.575 411.508 399.484 411.439 399.38 411.392 399.263 411.347 399.147 411.323 399.01 411.323 398.854 411.323 398.663 411.367 398.494 411.455 398.347 411.542 398.201 411.658 398.077 411.804 397.978 411.95 397.879 412.116 397.803 412.303 397.753 412.49 397.703 412.682 397.677 412.881 397.677ZM409.46 397.677C409.992 397.677 410.404 397.85 410.695 398.195 410.987 398.539 411.133 399.017 411.133 399.629L411.133 399.971 408.259 399.971C408.27 400.424 408.392 400.774 408.625 401.02 408.858 401.266 409.178 401.39 409.587 401.39 410.045 401.39 410.467 401.239 410.851 400.937L410.851 401.549C410.493 401.809 410.02 401.938 409.431 401.938 408.856 401.938 408.405 401.753 408.077 401.384 407.748 401.014 407.584 400.495 407.584 399.824 407.584 399.191 407.763 398.675 408.122 398.276 408.481 397.877 408.927 397.677 409.46 397.677ZM405.998 397.677C406.356 397.677 406.671 397.744 406.944 397.876L406.944 398.544C406.642 398.332 406.318 398.226 405.974 398.226 405.558 398.226 405.217 398.375 404.951 398.673 404.684 398.972 404.551 399.363 404.551 399.848 404.551 400.324 404.676 400.701 404.927 400.976 405.177 401.252 405.513 401.39 405.934 401.39 406.289 401.39 406.623 401.272 406.936 401.036L406.936 401.656C406.623 401.844 406.252 401.938 405.823 401.938 405.243 401.938 404.775 401.75 404.418 401.372 404.061 400.994 403.884 400.505 403.884 399.903 403.884 399.233 404.075 398.694 404.459 398.288 404.844 397.881 405.357 397.677 405.998 397.677ZM395.4 397.677C395.932 397.677 396.344 397.85 396.635 398.195 396.927 398.539 397.073 399.017 397.073 399.629L397.073 399.971 394.199 399.971C394.21 400.424 394.332 400.774 394.565 401.02 394.798 401.266 395.118 401.39 395.527 401.39 395.985 401.39 396.407 401.239 396.791 400.937L396.791 401.549C396.433 401.809 395.96 401.938 395.371 401.938 394.796 401.938 394.345 401.753 394.017 401.384 393.688 401.014 393.524 400.495 393.524 399.824 393.524 399.191 393.703 398.675 394.062 398.276 394.421 397.877 394.867 397.677 395.4 397.677ZM385.04 397.677C385.572 397.677 385.984 397.85 386.275 398.195 386.567 398.539 386.713 399.017 386.713 399.629L386.713 399.971 383.839 399.971C383.85 400.424 383.972 400.774 384.205 401.02 384.438 401.266 384.758 401.39 385.167 401.39 385.625 401.39 386.047 401.239 386.431 400.937L386.431 401.549C386.073 401.809 385.6 401.938 385.011 401.938 384.436 401.938 383.985 401.753 383.656 401.384 383.328 401.014 383.164 400.495 383.164 399.824 383.164 399.191 383.343 398.675 383.702 398.276 384.061 397.877 384.507 397.677 385.04 397.677ZM371.918 397.677C372.525 397.677 372.998 397.865 373.339 398.238 373.68 398.611 373.85 399.13 373.85 399.792 373.85 400.441 373.667 400.961 373.299 401.352 372.932 401.743 372.44 401.938 371.822 401.938 371.222 401.938 370.741 401.748 370.382 401.368 370.023 400.987 369.844 400.483 369.844 399.856 369.844 399.172 370.03 398.638 370.404 398.254 370.778 397.87 371.282 397.677 371.918 397.677ZM355.916 397.677C356.441 397.677 356.851 397.859 357.145 398.224 357.439 398.588 357.586 399.077 357.586 399.689 357.586 400.37 357.42 400.915 357.089 401.324 356.758 401.733 356.305 401.938 355.73 401.938 355.202 401.938 354.796 401.71 354.509 401.255L354.494 401.255 354.494 403.715 353.842 403.715 353.842 397.773 354.494 397.773 354.494 398.488 354.509 398.488C354.83 397.948 355.299 397.677 355.916 397.677ZM351.198 397.677C351.805 397.677 352.278 397.865 352.619 398.238 352.96 398.611 353.13 399.13 353.13 399.792 353.13 400.441 352.947 400.961 352.579 401.352 352.212 401.743 351.72 401.938 351.102 401.938 350.502 401.938 350.021 401.748 349.662 401.368 349.303 400.987 349.124 400.483 349.124 399.856 349.124 399.172 349.31 398.638 349.684 398.254 350.058 397.87 350.562 397.677 351.198 397.677ZM340.361 397.677C340.714 397.677 341.029 397.739 341.307 397.86L341.307 398.52C341.008 398.324 340.663 398.226 340.274 398.226 340.152 398.226 340.042 398.24 339.944 398.268 339.846 398.295 339.762 398.334 339.692 398.385 339.621 398.435 339.567 398.496 339.529 398.566 339.49 398.636 339.471 398.713 339.471 398.798 339.471 398.904 339.49 398.993 339.529 399.065 339.567 399.136 339.624 399.2 339.698 399.256 339.772 399.311 339.862 399.362 339.968 399.407 340.073 399.452 340.194 399.501 340.329 399.553 340.509 399.623 340.671 399.693 340.814 399.766 340.958 399.839 341.079 399.921 341.18 400.013 341.28 400.104 341.358 400.21 341.413 400.329 341.467 400.448 341.494 400.589 341.494 400.754 341.494 400.956 341.45 401.13 341.361 401.278 341.272 401.427 341.154 401.551 341.005 401.648 340.856 401.746 340.685 401.819 340.492 401.867 340.299 401.915 340.096 401.938 339.884 401.938 339.466 401.938 339.103 401.858 338.795 401.696L338.795 400.996C339.15 401.259 339.541 401.39 339.968 401.39 340.54 401.39 340.826 401.199 340.826 400.817 340.826 400.709 340.802 400.617 340.753 400.541 340.704 400.466 340.637 400.399 340.554 400.341 340.471 400.282 340.372 400.23 340.26 400.184 340.147 400.137 340.026 400.089 339.896 400.039 339.716 399.967 339.558 399.894 339.422 399.822 339.285 399.749 339.171 399.667 339.08 399.575 338.988 399.484 338.919 399.38 338.872 399.263 338.827 399.147 338.803 399.01 338.803 398.854 338.803 398.663 338.847 398.494 338.935 398.347 339.022 398.201 339.138 398.077 339.284 397.978 339.43 397.879 339.596 397.803 339.783 397.753 339.97 397.703 340.162 397.677 340.361 397.677ZM336.94 397.677C337.472 397.677 337.884 397.85 338.175 398.195 338.467 398.539 338.613 399.017 338.613 399.629L338.613 399.971 335.739 399.971C335.75 400.424 335.872 400.774 336.105 401.02 336.338 401.266 336.658 401.39 337.067 401.39 337.525 401.39 337.947 401.239 338.331 400.937L338.331 401.549C337.973 401.809 337.5 401.938 336.911 401.938 336.336 401.938 335.885 401.753 335.557 401.384 335.228 401.014 335.064 400.495 335.064 399.824 335.064 399.191 335.243 398.675 335.602 398.276 335.961 397.877 336.407 397.677 336.94 397.677ZM330.177 396.747 330.177 401.239 331.028 401.239C331.774 401.239 332.356 401.038 332.772 400.639 333.188 400.239 333.396 399.672 333.396 398.938 333.396 397.478 332.62 396.747 331.067 396.747ZM362.809 396.143 363.691 396.143 365.44 400.118C365.575 400.423 365.663 400.651 365.703 400.802L365.726 400.802C365.84 400.489 365.932 400.256 366.001 400.102L367.785 396.143 368.62 396.143 368.62 401.843 367.956 401.843 367.956 398.019C367.956 397.717 367.974 397.347 368.012 396.911L367.996 396.911C367.932 397.168 367.875 397.352 367.825 397.463L365.877 401.843 365.552 401.843 363.608 397.495C363.552 397.367 363.495 397.173 363.437 396.911L363.421 396.911C363.443 397.139 363.453 397.511 363.453 398.027L363.453 401.843 362.809 401.843ZM329.509 396.143 331.083 396.143C333.092 396.143 334.096 397.069 334.096 398.921 334.096 399.801 333.817 400.508 333.259 401.042 332.702 401.576 331.955 401.843 331.02 401.843L329.509 401.843ZM402.276 395.893C402.395 395.893 402.496 395.933 402.58 396.014 402.663 396.095 402.705 396.197 402.705 396.318 402.705 396.435 402.663 396.534 402.58 396.616 402.496 396.698 402.395 396.74 402.276 396.74 402.159 396.74 402.06 396.7 401.977 396.621 401.895 396.541 401.854 396.44 401.854 396.318 401.854 396.197 401.895 396.095 401.977 396.014 402.06 395.933 402.159 395.893 402.276 395.893ZM379.336 395.893C379.455 395.893 379.556 395.933 379.64 396.014 379.723 396.095 379.765 396.197 379.765 396.318 379.765 396.435 379.723 396.534 379.64 396.616 379.556 396.698 379.455 396.74 379.336 396.74 379.219 396.74 379.12 396.7 379.037 396.621 378.955 396.541 378.914 396.44 378.914 396.318 378.914 396.197 378.955 396.095 379.037 396.014 379.12 395.933 379.219 395.893 379.336 395.893ZM392.184 395.818 392.835 395.818 392.835 401.843 392.184 401.843 392.184 401.152 392.168 401.152C391.865 401.676 391.399 401.938 390.769 401.938 390.257 401.938 389.849 401.756 389.542 401.392 389.236 401.027 389.084 400.532 389.084 399.903 389.084 399.231 389.253 398.691 389.592 398.286 389.932 397.88 390.383 397.677 390.948 397.677 391.506 397.677 391.913 397.897 392.168 398.337L392.184 398.337ZM381.222 395.818 381.874 395.818 381.874 401.843 381.222 401.843ZM374.562 395.818 375.214 395.818 375.214 398.488 375.229 398.488C375.55 397.948 376.019 397.677 376.636 397.677 377.159 397.677 377.567 397.859 377.862 398.224 378.158 398.588 378.306 399.077 378.306 399.689 378.306 400.37 378.14 400.915 377.809 401.324 377.478 401.733 377.025 401.938 376.45 401.938 375.912 401.938 375.505 401.71 375.229 401.255L375.214 401.255 375.214 401.843 374.562 401.843ZM342.742 395.818 343.394 395.818 343.394 399.637 343.409 399.637 345.119 397.773 345.953 397.773 345.973 397.773 346.652 397.773 346.652 396.779 347.304 396.569 347.304 397.773 348.33 397.773 348.33 398.329 347.304 398.329 347.304 400.623C347.304 400.896 347.351 401.09 347.443 401.207 347.536 401.323 347.69 401.382 347.904 401.382 348.068 401.382 348.211 401.337 348.33 401.247L348.33 401.803C348.176 401.888 347.973 401.93 347.721 401.93 347.009 401.93 346.652 401.533 346.652 400.738L346.652 398.329 345.953 398.329 345.953 397.794 344.085 399.736 346.12 401.843 345.206 401.843 343.409 399.888 343.394 399.888 343.394 401.843 342.742 401.843Z" fill="url(#fill1)" fill-rule="evenodd"/><path d="M203.67 419.85 220.647 419.85 220.647 447.236 237.625 447.236" stroke="#269AED" stroke-width="0.4625" stroke-linejoin="round" stroke-miterlimit="10" fill="none" fill-rule="evenodd"/><path d="M339.002 321.242 339.638 321.242 339.002 323.197 338.537 323.197ZM350.325 316.448 351.06 316.448 352.273 320.82C352.323 321.003 352.355 321.194 352.368 321.393L352.388 321.393C352.401 321.252 352.443 321.061 352.511 320.82L353.771 316.448 354.411 316.448 355.619 320.852C355.662 321.003 355.693 321.181 355.715 321.385L355.73 321.385C355.741 321.247 355.777 321.064 355.838 320.837L357.002 316.448 357.726 316.448 356.116 322.148 355.333 322.148 354.161 317.982C354.111 317.805 354.08 317.612 354.069 317.402L354.054 317.402C354.037 317.598 354.003 317.789 353.95 317.975L352.77 322.148 351.995 322.148ZM347.269 316.448 347.937 316.448 347.937 321.544 350.226 321.544 350.226 322.148 347.269 322.148ZM342.829 316.448 345.723 316.448 345.723 317.052 343.497 317.052 343.497 319.024 345.555 319.024 345.555 319.624 343.497 319.624 343.497 322.148 342.829 322.148ZM331.085 316.448 331.82 316.448 333.033 320.82C333.083 321.003 333.115 321.194 333.128 321.393L333.148 321.393C333.161 321.252 333.203 321.061 333.271 320.82L334.531 316.448 335.171 316.448 336.379 320.852C336.422 321.003 336.453 321.181 336.475 321.385L336.49 321.385C336.501 321.247 336.537 321.064 336.598 320.837L337.762 316.448 338.486 316.448 336.876 322.148 336.093 322.148 334.921 317.982C334.871 317.805 334.84 317.612 334.829 317.402L334.814 317.402C334.797 317.598 334.763 317.789 334.71 317.975L333.53 322.148 332.755 322.148ZM329.509 316.448 330.177 316.448 330.177 322.148 329.509 322.148Z" fill="url(#fill2)" fill-rule="evenodd"/><path d="M236.6 308.48 320.22 308.48 320.22 327.72 236.6 327.72Z" fill="#FFB800"/><text fill="#243A5E" font-family="Segoe UI,Segoe UI_MSFontService,sans-serif" font-weight="400" font-size="13" transform="matrix(0.74 0 0 0.74 245.302 322)">Employees</text><path d="M203.67 419.85 220.788 419.85 220.788 422.533 237.906 422.533" stroke="#269AED" stroke-width="0.4625" stroke-linejoin="round" stroke-miterlimit="10" fill="none" fill-rule="evenodd"/><path d="M0 0 16.6576 0 16.6576 8.03351 33.3152 8.03351" stroke="#FFB800" stroke-width="0.4625" stroke-linejoin="round" stroke-miterlimit="10" fill="none" fill-rule="evenodd" transform="matrix(1 0 0 -1 203.67 326.503)"/><path d="M203.67 331.05 220.327 331.05 220.327 343.438 236.986 343.438" stroke="#FFB800" stroke-width="0.4625" stroke-linejoin="round" stroke-miterlimit="10" fill="none" fill-rule="evenodd"/><path d="M236.6 332.9 320.22 332.9 320.22 352.88 236.6 352.88Z" fill="#FFB800"/><text fill="#243A5E" font-family="Segoe UI,Segoe UI_MSFontService,sans-serif" font-weight="400" font-size="13" transform="matrix(0.74 0 0 0.74 245.302 346)">External users</text><path d="M237.34 366.2 320.22 366.2 320.22 383.22 237.34 383.22Z" fill="#62A300"/><text fill="#FFFFFF" font-family="Segoe UI,Segoe UI_MSFontService,sans-serif" font-weight="400" font-size="13" transform="matrix(0.74 0 0 0.74 245.943 379)">RPA</text><path d="M367.122 344.915 367.758 344.915 367.122 346.87 366.657 346.87ZM377.563 343.762 376.581 343.898C376.279 343.94 376.052 344.015 375.898 344.122 375.744 344.229 375.667 344.42 375.667 344.693 375.667 344.892 375.738 345.054 375.88 345.18 376.022 345.305 376.211 345.368 376.447 345.368 376.769 345.368 377.036 345.255 377.247 345.029 377.458 344.802 377.563 344.515 377.563 344.168ZM390.948 342.205C390.64 342.205 390.379 342.314 390.165 342.535 389.95 342.755 389.818 343.042 389.767 343.397L391.965 343.397C391.962 343.021 391.872 342.728 391.693 342.519 391.514 342.309 391.265 342.205 390.948 342.205ZM358.388 342.205C358.08 342.205 357.819 342.314 357.605 342.535 357.39 342.755 357.258 343.042 357.207 343.397L359.405 343.397C359.402 343.021 359.312 342.728 359.133 342.519 358.954 342.309 358.705 342.205 358.388 342.205ZM346.711 342.205C346.292 342.205 345.961 342.347 345.717 342.632 345.473 342.917 345.351 343.31 345.351 343.811 345.351 344.292 345.475 344.673 345.721 344.951 345.968 345.229 346.297 345.368 346.711 345.368 347.132 345.368 347.456 345.232 347.682 344.959 347.909 344.686 348.022 344.298 348.022 343.794 348.022 343.286 347.909 342.894 347.682 342.618 347.456 342.342 347.132 342.205 346.711 342.205ZM334.514 341.752 335.162 341.752 335.162 344.081C335.162 344.939 335.491 345.368 336.148 345.368 336.466 345.368 336.727 345.251 336.933 345.017 337.138 344.782 337.241 344.475 337.241 344.096L337.241 341.752 337.893 341.752 337.893 345.822 337.241 345.822 337.241 345.177 337.225 345.177C336.954 345.67 336.536 345.917 335.969 345.917 334.999 345.917 334.514 345.339 334.514 344.184ZM395.534 341.68C395.704 341.68 395.834 341.699 395.924 341.736L395.924 342.411C395.81 342.324 395.646 342.28 395.431 342.28 395.153 342.28 394.921 342.411 394.734 342.674 394.547 342.936 394.454 343.293 394.454 343.747L394.454 345.822 393.802 345.822 393.802 341.752 394.454 341.752 394.454 342.59 394.469 342.59C394.562 342.304 394.704 342.08 394.895 341.921 395.086 341.76 395.299 341.68 395.534 341.68ZM362.234 341.68C362.404 341.68 362.534 341.699 362.624 341.736L362.624 342.411C362.51 342.324 362.346 342.28 362.131 342.28 361.853 342.28 361.621 342.411 361.434 342.674 361.247 342.936 361.154 343.293 361.154 343.747L361.154 345.822 360.502 345.822 360.502 341.752 361.154 341.752 361.154 342.59 361.169 342.59C361.262 342.304 361.404 342.08 361.595 341.921 361.786 341.76 361.999 341.68 362.234 341.68ZM398.081 341.656C398.434 341.656 398.749 341.717 399.027 341.839L399.027 342.499C398.728 342.302 398.383 342.205 397.994 342.205 397.872 342.205 397.762 342.219 397.664 342.246 397.566 342.274 397.482 342.314 397.412 342.364 397.341 342.414 397.287 342.474 397.249 342.544 397.21 342.615 397.191 342.692 397.191 342.777 397.191 342.883 397.21 342.971 397.249 343.043 397.287 343.115 397.344 343.179 397.418 343.234 397.492 343.29 397.582 343.34 397.688 343.385 397.793 343.43 397.914 343.479 398.049 343.532 398.229 343.601 398.391 343.672 398.534 343.745 398.678 343.818 398.799 343.9 398.9 343.991 399 344.083 399.078 344.188 399.133 344.307 399.187 344.426 399.214 344.568 399.214 344.733 399.214 344.934 399.17 345.109 399.081 345.257 398.992 345.405 398.874 345.529 398.725 345.627 398.576 345.725 398.405 345.797 398.212 345.846 398.019 345.893 397.816 345.917 397.604 345.917 397.186 345.917 396.823 345.836 396.515 345.675L396.515 344.975C396.87 345.237 397.261 345.368 397.688 345.368 398.26 345.368 398.546 345.177 398.546 344.796 398.546 344.687 398.522 344.596 398.473 344.519 398.424 344.444 398.357 344.377 398.274 344.319 398.191 344.26 398.092 344.209 397.98 344.162 397.867 344.115 397.746 344.067 397.616 344.017 397.436 343.945 397.278 343.873 397.142 343.8 397.005 343.728 396.891 343.646 396.8 343.554 396.708 343.463 396.639 343.358 396.592 343.242 396.547 343.125 396.523 342.989 396.523 342.832 396.523 342.642 396.567 342.473 396.655 342.326 396.742 342.179 396.858 342.055 397.004 341.956 397.15 341.857 397.316 341.782 397.503 341.732 397.69 341.682 397.882 341.656 398.081 341.656ZM390.96 341.656C391.492 341.656 391.904 341.828 392.195 342.173 392.487 342.517 392.633 342.996 392.633 343.608L392.633 343.95 389.759 343.95C389.77 344.403 389.892 344.753 390.125 344.999 390.358 345.245 390.678 345.368 391.087 345.368 391.545 345.368 391.967 345.217 392.351 344.915L392.351 345.527C391.993 345.787 391.52 345.917 390.931 345.917 390.356 345.917 389.905 345.732 389.577 345.362 389.248 344.993 389.084 344.473 389.084 343.802 389.084 343.169 389.263 342.653 389.622 342.254 389.981 341.855 390.427 341.656 390.96 341.656ZM386.925 341.656C387.37 341.656 387.71 341.8 387.946 342.087 388.182 342.375 388.3 342.79 388.3 343.333L388.3 345.822 387.648 345.822 387.648 343.5C387.648 342.636 387.333 342.205 386.702 342.205 386.376 342.205 386.107 342.327 385.894 342.573 385.68 342.817 385.574 343.127 385.574 343.5L385.574 345.822 384.922 345.822 384.922 341.752 385.574 341.752 385.574 342.427 385.589 342.427C385.896 341.913 386.342 341.656 386.925 341.656ZM376.78 341.656C377.737 341.656 378.215 342.163 378.215 343.174L378.215 345.822 377.563 345.822 377.563 345.185 377.547 345.185C377.264 345.673 376.846 345.917 376.295 345.917 375.89 345.917 375.573 345.809 375.343 345.595 375.114 345.38 374.999 345.095 374.999 344.741 374.999 343.98 375.448 343.538 376.343 343.413L377.563 343.242C377.563 342.55 377.284 342.205 376.725 342.205 376.234 342.205 375.792 342.371 375.397 342.706L375.397 342.038C375.797 341.783 376.258 341.656 376.78 341.656ZM364.781 341.656C365.134 341.656 365.449 341.717 365.727 341.839L365.727 342.499C365.428 342.302 365.083 342.205 364.694 342.205 364.572 342.205 364.462 342.219 364.364 342.246 364.266 342.274 364.182 342.314 364.112 342.364 364.041 342.414 363.987 342.474 363.949 342.544 363.91 342.615 363.891 342.692 363.891 342.777 363.891 342.883 363.91 342.971 363.949 343.043 363.987 343.115 364.044 343.179 364.118 343.234 364.192 343.29 364.282 343.34 364.388 343.385 364.493 343.43 364.614 343.479 364.749 343.532 364.929 343.601 365.091 343.672 365.234 343.745 365.378 343.818 365.499 343.9 365.6 343.991 365.7 344.083 365.778 344.188 365.833 344.307 365.887 344.426 365.914 344.568 365.914 344.733 365.914 344.934 365.87 345.109 365.781 345.257 365.692 345.405 365.574 345.529 365.425 345.627 365.276 345.725 365.105 345.797 364.912 345.846 364.719 345.893 364.516 345.917 364.304 345.917 363.886 345.917 363.523 345.836 363.215 345.675L363.215 344.975C363.57 345.237 363.961 345.368 364.388 345.368 364.96 345.368 365.246 345.177 365.246 344.796 365.246 344.687 365.222 344.596 365.173 344.519 365.124 344.444 365.057 344.377 364.974 344.319 364.891 344.26 364.792 344.209 364.68 344.162 364.567 344.115 364.446 344.067 364.316 344.017 364.136 343.945 363.978 343.873 363.842 343.8 363.705 343.728 363.591 343.646 363.5 343.554 363.408 343.463 363.339 343.358 363.292 343.242 363.247 343.125 363.223 342.989 363.223 342.832 363.223 342.642 363.267 342.473 363.355 342.326 363.442 342.179 363.558 342.055 363.704 341.956 363.85 341.857 364.016 341.782 364.203 341.732 364.39 341.682 364.582 341.656 364.781 341.656ZM358.4 341.656C358.932 341.656 359.344 341.828 359.635 342.173 359.927 342.517 360.073 342.996 360.073 343.608L360.073 343.95 357.199 343.95C357.21 344.403 357.332 344.753 357.565 344.999 357.798 345.245 358.118 345.368 358.527 345.368 358.985 345.368 359.407 345.217 359.791 344.915L359.791 345.527C359.433 345.787 358.96 345.917 358.371 345.917 357.796 345.917 357.345 345.732 357.017 345.362 356.688 344.993 356.524 344.473 356.524 343.802 356.524 343.169 356.703 342.653 357.062 342.254 357.421 341.855 357.867 341.656 358.4 341.656ZM351.333 341.656C351.612 341.656 351.854 341.733 352.061 341.889 352.267 342.043 352.409 342.247 352.486 342.499 352.788 341.937 353.239 341.656 353.837 341.656 354.733 341.656 355.181 342.208 355.181 343.313L355.181 345.822 354.529 345.822 354.529 343.484C354.529 343.034 354.459 342.708 354.32 342.507 354.181 342.305 353.947 342.205 353.618 342.205 353.34 342.205 353.104 342.332 352.909 342.586 352.714 342.84 352.617 343.145 352.617 343.5L352.617 345.822 351.965 345.822 351.965 343.405C351.965 342.605 351.657 342.205 351.04 342.205 350.753 342.205 350.517 342.325 350.331 342.564 350.146 342.804 350.054 343.116 350.054 343.5L350.054 345.822 349.402 345.822 349.402 341.752 350.054 341.752 350.054 342.396 350.069 342.396C350.358 341.903 350.78 341.656 351.333 341.656ZM346.758 341.656C347.365 341.656 347.838 341.843 348.179 342.217 348.52 342.59 348.69 343.108 348.69 343.771 348.69 344.42 348.507 344.94 348.139 345.331 347.772 345.721 347.28 345.917 346.662 345.917 346.062 345.917 345.581 345.726 345.222 345.347 344.863 344.966 344.684 344.463 344.684 343.834 344.684 343.15 344.87 342.617 345.244 342.232 345.618 341.848 346.122 341.656 346.758 341.656ZM340.361 341.656C340.714 341.656 341.029 341.717 341.307 341.839L341.307 342.499C341.008 342.302 340.663 342.205 340.274 342.205 340.152 342.205 340.042 342.219 339.944 342.246 339.846 342.274 339.762 342.314 339.692 342.364 339.621 342.414 339.567 342.474 339.529 342.544 339.49 342.615 339.471 342.692 339.471 342.777 339.471 342.883 339.49 342.971 339.529 343.043 339.567 343.115 339.624 343.179 339.698 343.234 339.772 343.29 339.862 343.34 339.968 343.385 340.073 343.43 340.194 343.479 340.329 343.532 340.509 343.601 340.671 343.672 340.814 343.745 340.958 343.818 341.079 343.9 341.18 343.991 341.28 344.083 341.358 344.188 341.413 344.307 341.467 344.426 341.494 344.568 341.494 344.733 341.494 344.934 341.45 345.109 341.361 345.257 341.272 345.405 341.154 345.529 341.005 345.627 340.856 345.725 340.685 345.797 340.492 345.846 340.299 345.893 340.096 345.917 339.884 345.917 339.466 345.917 339.103 345.836 338.795 345.675L338.795 344.975C339.15 345.237 339.541 345.368 339.968 345.368 340.54 345.368 340.826 345.177 340.826 344.796 340.826 344.687 340.802 344.596 340.753 344.519 340.704 344.444 340.637 344.377 340.554 344.319 340.471 344.26 340.372 344.209 340.26 344.162 340.147 344.115 340.026 344.067 339.896 344.017 339.716 343.945 339.558 343.873 339.422 343.8 339.285 343.728 339.171 343.646 339.08 343.554 338.988 343.463 338.919 343.358 338.872 343.242 338.827 343.125 338.803 342.989 338.803 342.832 338.803 342.642 338.847 342.473 338.935 342.326 339.022 342.179 339.138 342.055 339.284 341.956 339.43 341.857 339.596 341.782 339.783 341.732 339.97 341.682 340.162 341.656 340.361 341.656ZM371.617 340.726 371.617 343.063 372.316 343.063C372.778 343.063 373.129 342.958 373.372 342.747 373.614 342.536 373.735 342.239 373.735 341.855 373.735 341.102 373.29 340.726 372.4 340.726ZM382.824 340.547 382.824 341.752 383.85 341.752 383.85 342.308 382.824 342.308 382.824 344.602C382.824 344.874 382.871 345.069 382.963 345.185 383.056 345.302 383.21 345.36 383.424 345.36 383.588 345.36 383.73 345.316 383.85 345.225L383.85 345.782C383.696 345.866 383.493 345.909 383.241 345.909 382.529 345.909 382.172 345.512 382.172 344.716L382.172 342.308 381.864 342.308 381.864 342.411 381.476 342.308 381.473 342.308 381.473 342.307 381.371 342.28C381.093 342.28 380.861 342.411 380.674 342.674 380.487 342.936 380.394 343.293 380.394 343.747L380.394 345.822 379.742 345.822 379.742 341.752 380.394 341.752 380.394 342.59 380.409 342.59C380.502 342.304 380.644 342.08 380.835 341.921 381.026 341.76 381.239 341.68 381.474 341.68 381.644 341.68 381.774 341.699 381.864 341.736L381.864 341.752 382.172 341.752 382.172 340.758ZM342.864 340.547 342.864 341.752 343.89 341.752 343.89 342.308 342.864 342.308 342.864 344.602C342.864 344.874 342.911 345.069 343.003 345.185 343.096 345.302 343.25 345.36 343.464 345.36 343.628 345.36 343.771 345.316 343.89 345.225L343.89 345.782C343.736 345.866 343.533 345.909 343.281 345.909 342.569 345.909 342.212 345.512 342.212 344.716L342.212 342.308 341.513 342.308 341.513 341.752 342.212 341.752 342.212 340.758ZM370.949 340.122 372.515 340.122C373.125 340.122 373.597 340.27 373.932 340.567 374.267 340.864 374.435 341.283 374.435 341.823 374.435 342.364 374.249 342.806 373.877 343.15 373.504 343.495 373.001 343.667 372.368 343.667L371.617 343.667 371.617 345.822 370.949 345.822ZM332.045 340.026C332.585 340.026 333.033 340.105 333.388 340.261L333.388 340.973C332.981 340.745 332.53 340.631 332.037 340.631 331.382 340.631 330.852 340.849 330.445 341.286 330.038 341.724 329.835 342.308 329.835 343.039 329.835 343.734 330.025 344.286 330.405 344.699 330.786 345.111 331.284 345.316 331.902 345.316 332.474 345.316 332.969 345.189 333.388 344.935L333.388 345.583C332.967 345.806 332.443 345.917 331.814 345.917 331.003 345.917 330.354 345.656 329.867 345.134 329.379 344.612 329.136 343.927 329.136 343.079 329.136 342.168 329.41 341.431 329.958 340.869 330.507 340.307 331.202 340.026 332.045 340.026Z" fill="url(#fill3)" fill-rule="evenodd"/><path d="M377.563 374.609 376.581 374.745C376.279 374.787 376.052 374.862 375.898 374.969 375.744 375.076 375.667 375.266 375.667 375.54 375.667 375.739 375.738 375.901 375.88 376.026 376.022 376.152 376.211 376.215 376.447 376.215 376.769 376.215 377.036 376.102 377.247 375.876 377.458 375.649 377.563 375.362 377.563 375.015ZM422.931 373.052C422.512 373.052 422.181 373.194 421.937 373.479 421.693 373.764 421.571 374.156 421.571 374.657 421.571 375.139 421.695 375.52 421.941 375.798 422.188 376.076 422.517 376.215 422.931 376.215 423.352 376.215 423.676 376.079 423.902 375.806 424.129 375.533 424.242 375.145 424.242 374.641 424.242 374.133 424.129 373.741 423.902 373.465 423.676 373.189 423.352 373.052 422.931 373.052ZM418.653 373.052C418.274 373.052 417.97 373.183 417.739 373.447 417.509 373.711 417.394 374.041 417.394 374.438L417.394 375.007C417.394 375.343 417.503 375.629 417.722 375.864 417.94 376.098 418.217 376.215 418.554 376.215 418.949 376.215 419.258 376.064 419.482 375.762 419.706 375.46 419.818 375.04 419.818 374.502 419.818 374.049 419.713 373.694 419.504 373.437 419.295 373.18 419.012 373.052 418.653 373.052ZM414.051 373.052C413.632 373.052 413.301 373.194 413.057 373.479 412.813 373.764 412.691 374.156 412.691 374.657 412.691 375.139 412.815 375.52 413.061 375.798 413.308 376.076 413.637 376.215 414.051 376.215 414.472 376.215 414.796 376.079 415.022 375.806 415.249 375.533 415.362 375.145 415.362 374.641 415.362 374.133 415.249 373.741 415.022 373.465 414.796 373.189 414.472 373.052 414.051 373.052ZM404.351 373.052C403.953 373.052 403.641 373.197 403.413 373.489 403.185 373.781 403.071 374.183 403.071 374.697 403.071 375.166 403.181 375.537 403.399 375.808 403.618 376.08 403.911 376.215 404.28 376.215 404.642 376.215 404.937 376.084 405.164 375.822 405.39 375.56 405.504 375.228 405.504 374.828L405.504 374.228C405.504 373.9 405.395 373.621 405.178 373.394 404.96 373.166 404.685 373.052 404.351 373.052ZM399.828 373.052C399.52 373.052 399.259 373.161 399.045 373.382 398.83 373.602 398.698 373.889 398.647 374.244L400.845 374.244C400.842 373.868 400.752 373.575 400.573 373.365 400.394 373.156 400.145 373.052 399.828 373.052ZM395.471 373.052C395.073 373.052 394.761 373.197 394.533 373.489 394.305 373.781 394.191 374.183 394.191 374.697 394.191 375.166 394.301 375.537 394.519 375.808 394.738 376.08 395.031 376.215 395.4 376.215 395.762 376.215 396.057 376.084 396.284 375.822 396.51 375.56 396.624 375.228 396.624 374.828L396.624 374.228C396.624 373.9 396.515 373.621 396.298 373.394 396.08 373.166 395.805 373.052 395.471 373.052ZM386.508 373.052C386.2 373.052 385.939 373.161 385.725 373.382 385.51 373.602 385.378 373.889 385.327 374.244L387.525 374.244C387.522 373.868 387.432 373.575 387.253 373.365 387.074 373.156 386.825 373.052 386.508 373.052ZM359.211 373.052C358.813 373.052 358.501 373.197 358.273 373.489 358.045 373.781 357.931 374.183 357.931 374.697 357.931 375.166 358.041 375.537 358.259 375.808 358.478 376.08 358.771 376.215 359.14 376.215 359.502 376.215 359.797 376.084 360.024 375.822 360.25 375.56 360.364 375.228 360.364 374.828L360.364 374.228C360.364 373.9 360.255 373.621 360.038 373.394 359.82 373.166 359.545 373.052 359.211 373.052ZM354.688 373.052C354.38 373.052 354.119 373.161 353.905 373.382 353.69 373.602 353.558 373.889 353.507 374.244L355.705 374.244C355.702 373.868 355.612 373.575 355.433 373.365 355.254 373.156 355.005 373.052 354.688 373.052ZM350.331 373.052C349.933 373.052 349.621 373.197 349.393 373.489 349.165 373.781 349.051 374.183 349.051 374.697 349.051 375.166 349.161 375.537 349.379 375.808 349.598 376.08 349.891 376.215 350.26 376.215 350.622 376.215 350.917 376.084 351.144 375.822 351.37 375.56 351.484 375.228 351.484 374.828L351.484 374.228C351.484 373.9 351.375 373.621 351.158 373.394 350.94 373.166 350.665 373.052 350.331 373.052ZM341.368 373.052C341.06 373.052 340.799 373.161 340.585 373.382 340.37 373.602 340.238 373.889 340.187 374.244L342.385 374.244C342.382 373.868 342.292 373.575 342.113 373.365 341.934 373.156 341.685 373.052 341.368 373.052ZM411.074 372.527C411.244 372.527 411.374 372.546 411.464 372.583L411.464 373.258C411.35 373.171 411.186 373.127 410.971 373.127 410.693 373.127 410.461 373.258 410.274 373.521 410.087 373.783 409.994 374.141 409.994 374.594L409.994 376.669 409.342 376.669 409.342 372.599 409.994 372.599 409.994 373.437 410.009 373.437C410.102 373.151 410.244 372.927 410.435 372.768 410.626 372.607 410.839 372.527 411.074 372.527ZM429.901 372.503C430.254 372.503 430.569 372.564 430.847 372.686L430.847 373.345C430.548 373.149 430.203 373.052 429.814 373.052 429.692 373.052 429.582 373.066 429.484 373.093 429.386 373.121 429.302 373.16 429.232 373.211 429.161 373.261 429.107 373.321 429.069 373.391 429.03 373.462 429.011 373.539 429.011 373.624 429.011 373.73 429.03 373.818 429.069 373.89 429.107 373.962 429.164 374.026 429.238 374.081 429.312 374.137 429.402 374.187 429.508 374.232 429.613 374.277 429.734 374.326 429.87 374.379 430.049 374.448 430.211 374.519 430.354 374.592 430.498 374.665 430.619 374.747 430.72 374.838 430.82 374.93 430.898 375.035 430.953 375.154 431.007 375.273 431.034 375.415 431.034 375.579 431.034 375.781 430.99 375.955 430.901 376.104 430.812 376.252 430.694 376.376 430.545 376.473 430.396 376.572 430.226 376.644 430.032 376.692 429.839 376.74 429.636 376.763 429.424 376.763 429.006 376.763 428.643 376.683 428.335 376.522L428.335 375.822C428.69 376.084 429.081 376.215 429.508 376.215 430.08 376.215 430.366 376.024 430.366 375.643 430.366 375.534 430.342 375.443 430.293 375.367 430.244 375.291 430.177 375.224 430.094 375.166 430.011 375.108 429.912 375.056 429.8 375.009 429.687 374.962 429.566 374.914 429.436 374.864 429.256 374.792 429.098 374.72 428.962 374.647 428.825 374.575 428.711 374.492 428.62 374.401 428.528 374.31 428.459 374.205 428.412 374.089 428.367 373.972 428.343 373.836 428.343 373.679 428.343 373.489 428.387 373.32 428.475 373.173 428.562 373.026 428.678 372.902 428.824 372.803 428.97 372.704 429.136 372.629 429.323 372.579 429.51 372.529 429.702 372.503 429.901 372.503ZM422.978 372.503C423.585 372.503 424.058 372.69 424.399 373.063 424.74 373.437 424.91 373.955 424.91 374.617 424.91 375.266 424.727 375.787 424.359 376.177 423.992 376.568 423.5 376.763 422.882 376.763 422.282 376.763 421.801 376.574 421.442 376.194 421.083 375.813 420.904 375.309 420.904 374.681 420.904 373.997 421.09 373.464 421.464 373.079 421.838 372.695 422.342 372.503 422.978 372.503ZM414.098 372.503C414.705 372.503 415.178 372.69 415.519 373.063 415.86 373.437 416.03 373.955 416.03 374.617 416.03 375.266 415.846 375.787 415.479 376.177 415.112 376.568 414.62 376.763 414.002 376.763 413.402 376.763 412.921 376.574 412.562 376.194 412.203 375.813 412.024 375.309 412.024 374.681 412.024 373.997 412.21 373.464 412.584 373.079 412.958 372.695 413.462 372.503 414.098 372.503ZM399.84 372.503C400.372 372.503 400.784 372.675 401.075 373.02 401.367 373.364 401.513 373.843 401.513 374.455L401.513 374.797 398.639 374.797C398.65 375.249 398.772 375.599 399.005 375.846 399.238 376.092 399.558 376.215 399.967 376.215 400.425 376.215 400.847 376.064 401.231 375.762L401.231 376.374C400.873 376.634 400.4 376.763 399.811 376.763 399.236 376.763 398.785 376.579 398.457 376.209 398.128 375.84 397.964 375.32 397.964 374.649 397.964 374.016 398.143 373.5 398.502 373.101 398.861 372.702 399.307 372.503 399.84 372.503ZM391.365 372.503C391.81 372.503 392.15 372.647 392.386 372.934 392.622 373.222 392.74 373.637 392.74 374.18L392.74 376.669 392.088 376.669 392.088 374.347C392.088 373.483 391.773 373.052 391.142 373.052 390.816 373.052 390.547 373.174 390.334 373.419 390.12 373.664 390.014 373.974 390.014 374.347L390.014 376.669 389.362 376.669 389.362 372.599 390.014 372.599 390.014 373.274 390.029 373.274C390.336 372.76 390.782 372.503 391.365 372.503ZM386.52 372.503C387.052 372.503 387.464 372.675 387.755 373.02 388.047 373.364 388.193 373.843 388.193 374.455L388.193 374.797 385.319 374.797C385.33 375.249 385.452 375.599 385.685 375.846 385.918 376.092 386.238 376.215 386.647 376.215 387.105 376.215 387.527 376.064 387.911 375.762L387.911 376.374C387.553 376.634 387.08 376.763 386.491 376.763 385.916 376.763 385.465 376.579 385.137 376.209 384.808 375.84 384.644 375.32 384.644 374.649 384.644 374.016 384.823 373.5 385.182 373.101 385.541 372.702 385.987 372.503 386.52 372.503ZM376.78 372.503C377.737 372.503 378.215 373.009 378.215 374.021L378.215 376.669 377.563 376.669 377.563 376.032 377.547 376.032C377.264 376.52 376.846 376.763 376.295 376.763 375.89 376.763 375.573 376.656 375.343 376.442 375.114 376.227 374.999 375.942 374.999 375.588 374.999 374.827 375.448 374.384 376.343 374.26L377.563 374.089C377.563 373.397 377.284 373.052 376.725 373.052 376.234 373.052 375.792 373.218 375.397 373.553L375.397 372.884C375.797 372.631 376.258 372.503 376.78 372.503ZM372.865 372.503C373.31 372.503 373.65 372.647 373.886 372.934 374.122 373.222 374.24 373.637 374.24 374.18L374.24 376.669 373.588 376.669 373.588 374.347C373.588 373.483 373.273 373.052 372.642 373.052 372.316 373.052 372.047 373.174 371.834 373.419 371.62 373.664 371.514 373.974 371.514 374.347L371.514 376.669 370.862 376.669 370.862 372.599 371.514 372.599 371.514 373.274 371.529 373.274C371.836 372.76 372.282 372.503 372.865 372.503ZM354.7 372.503C355.232 372.503 355.644 372.675 355.935 373.02 356.227 373.364 356.373 373.843 356.373 374.455L356.373 374.797 353.499 374.797C353.51 375.249 353.632 375.599 353.865 375.846 354.098 376.092 354.418 376.215 354.827 376.215 355.285 376.215 355.707 376.064 356.091 375.762L356.091 376.374C355.733 376.634 355.26 376.763 354.671 376.763 354.096 376.763 353.645 376.579 353.316 376.209 352.988 375.84 352.824 375.32 352.824 374.649 352.824 374.016 353.003 373.5 353.362 373.101 353.721 372.702 354.167 372.503 354.7 372.503ZM346.225 372.503C346.67 372.503 347.01 372.647 347.246 372.934 347.482 373.222 347.6 373.637 347.6 374.18L347.6 376.669 346.948 376.669 346.948 374.347C346.948 373.483 346.633 373.052 346.002 373.052 345.676 373.052 345.407 373.174 345.194 373.419 344.98 373.664 344.874 373.974 344.874 374.347L344.874 376.669 344.222 376.669 344.222 372.599 344.874 372.599 344.874 373.274 344.889 373.274C345.196 372.76 345.642 372.503 346.225 372.503ZM341.38 372.503C341.912 372.503 342.324 372.675 342.615 373.02 342.907 373.364 343.053 373.843 343.053 374.455L343.053 374.797 340.179 374.797C340.19 375.249 340.312 375.599 340.545 375.846 340.778 376.092 341.098 376.215 341.507 376.215 341.965 376.215 342.387 376.064 342.771 375.762L342.771 376.374C342.413 376.634 341.94 376.763 341.351 376.763 340.776 376.763 340.325 376.579 339.997 376.209 339.668 375.84 339.504 375.32 339.504 374.649 339.504 374.016 339.683 373.5 340.042 373.101 340.401 372.702 340.847 372.503 341.38 372.503ZM331.361 371.66C331.335 371.822 331.304 371.949 331.27 372.042L330.383 374.47 332.359 374.47 331.464 372.042C331.435 371.962 331.407 371.835 331.377 371.66ZM427.224 371.394 427.224 372.599 428.25 372.599 428.25 373.155 427.224 373.155 427.224 375.449C427.224 375.721 427.271 375.916 427.363 376.032 427.456 376.149 427.61 376.207 427.824 376.207 427.988 376.207 428.131 376.163 428.25 376.072L428.25 376.629C428.096 376.713 427.893 376.756 427.641 376.756 426.929 376.756 426.572 376.359 426.572 375.563L426.572 373.155 425.873 373.155 425.873 372.599 426.572 372.599 426.572 371.605ZM380.604 371.394 380.604 372.599 381.473 372.599 381.63 372.599 382.172 372.599 382.172 371.605 382.824 371.394 382.824 372.599 383.85 372.599 383.85 373.155 382.824 373.155 382.824 375.449C382.824 375.721 382.871 375.916 382.963 376.032 383.056 376.149 383.21 376.207 383.424 376.207 383.588 376.207 383.73 376.163 383.85 376.072L383.85 376.629C383.696 376.713 383.493 376.756 383.241 376.756 382.529 376.756 382.172 376.359 382.172 375.563L382.172 373.155 381.63 373.155 381.473 373.155 380.604 373.155 380.604 375.449C380.604 375.721 380.651 375.916 380.743 376.032 380.836 376.149 380.99 376.207 381.204 376.207 381.368 376.207 381.51 376.163 381.63 376.072L381.63 376.629C381.476 376.713 381.273 376.756 381.021 376.756 380.309 376.756 379.952 376.359 379.952 375.563L379.952 373.155 379.253 373.155 379.253 372.599 379.952 372.599 379.952 371.605ZM338.424 371.394 338.424 372.599 339.45 372.599 339.45 373.155 338.424 373.155 338.424 375.449C338.424 375.721 338.471 375.916 338.563 376.032 338.656 376.149 338.81 376.207 339.024 376.207 339.188 376.207 339.331 376.163 339.45 376.072L339.45 376.629C339.296 376.713 339.093 376.756 338.841 376.756 338.129 376.756 337.772 376.359 337.772 375.563L337.772 373.155 337.073 373.155 337.073 372.599 337.772 372.599 337.772 371.605ZM335.464 371.394 335.464 372.599 336.49 372.599 336.49 373.155 335.464 373.155 335.464 375.449C335.464 375.721 335.511 375.916 335.603 376.032 335.696 376.149 335.85 376.207 336.064 376.207 336.228 376.207 336.371 376.163 336.49 376.072L336.49 376.629C336.336 376.713 336.133 376.756 335.881 376.756 335.169 376.756 334.812 376.359 334.812 375.563L334.812 373.155 334.113 373.155 334.113 372.599 334.812 372.599 334.812 371.605ZM365.697 370.969 366.365 370.969 366.365 374.411C366.365 375.579 366.858 376.163 367.844 376.163 368.795 376.163 369.271 375.599 369.271 374.47L369.271 370.969 369.938 370.969 369.938 374.363C369.938 375.964 369.216 376.763 367.772 376.763 366.389 376.763 365.697 375.994 365.697 374.455ZM363.937 370.969 364.553 370.969 361.818 377.615 361.211 377.615ZM331.035 370.969 331.727 370.969 333.921 376.669 333.182 376.669 332.577 375.07 330.161 375.07 329.593 376.669 328.849 376.669ZM416.742 370.643 417.394 370.643 417.394 373.314 417.409 373.314C417.73 372.773 418.199 372.503 418.816 372.503 419.339 372.503 419.747 372.685 420.042 373.049 420.338 373.414 420.486 373.902 420.486 374.514 420.486 375.195 420.32 375.74 419.989 376.15 419.658 376.559 419.205 376.763 418.63 376.763 418.092 376.763 417.685 376.536 417.409 376.08L417.394 376.08 417.394 376.669 416.742 376.669ZM405.504 370.643 406.155 370.643 406.155 376.669 405.504 376.669 405.504 375.977 405.488 375.977C405.185 376.502 404.719 376.763 404.089 376.763 403.577 376.763 403.169 376.581 402.862 376.217 402.556 375.853 402.404 375.357 402.404 374.729 402.404 374.056 402.573 373.516 402.912 373.111 403.252 372.706 403.703 372.503 404.268 372.503 404.826 372.503 405.233 372.723 405.488 373.163L405.504 373.163ZM396.624 370.643 397.275 370.643 397.275 376.669 396.624 376.669 396.624 375.977 396.608 375.977C396.305 376.502 395.839 376.763 395.209 376.763 394.697 376.763 394.289 376.581 393.982 376.217 393.676 375.853 393.524 375.357 393.524 374.729 393.524 374.056 393.693 373.516 394.032 373.111 394.372 372.706 394.823 372.503 395.388 372.503 395.946 372.503 396.353 372.723 396.608 373.163L396.624 373.163ZM360.364 370.643 361.015 370.643 361.015 376.669 360.364 376.669 360.364 375.977 360.348 375.977C360.045 376.502 359.579 376.763 358.949 376.763 358.437 376.763 358.029 376.581 357.722 376.217 357.416 375.853 357.264 375.357 357.264 374.729 357.264 374.056 357.433 373.516 357.772 373.111 358.112 372.706 358.563 372.503 359.128 372.503 359.686 372.503 360.093 372.723 360.348 373.163L360.364 373.163ZM351.484 370.643 352.135 370.643 352.135 376.669 351.484 376.669 351.484 375.977 351.468 375.977C351.165 376.502 350.699 376.763 350.069 376.763 349.557 376.763 349.149 376.581 348.842 376.217 348.536 375.853 348.384 375.357 348.384 374.729 348.384 374.056 348.553 373.516 348.892 373.111 349.232 372.706 349.683 372.503 350.248 372.503 350.806 372.503 351.213 372.723 351.468 373.163L351.484 373.163Z" fill="url(#fill4)" fill-rule="evenodd"/><path d="M237.34 392.1 320.22 392.1 320.22 407.64 237.34 407.64Z" fill="#269AED"/><text fill="#FFFFFF" font-family="Segoe UI,Segoe UI_MSFontService,sans-serif" font-weight="400" font-size="13" transform="matrix(0.74 0 0 0.74 245.943 404)">Devices</text><path d="M237.34 414.3 320.22 414.3 320.22 430.58 237.34 430.58Z" fill="#269AED"/><text fill="#FFFFFF" font-family="Segoe UI,Segoe UI_MSFontService,sans-serif" font-weight="400" font-size="13" transform="matrix(0.74 0 0 0.74 246.224 426)">IoT</text><path d="M237.34 438.72 320.22 438.72 320.22 455.74 237.34 455.74Z" stroke="#2F5597" stroke-width="1.3875" stroke-linejoin="round" stroke-miterlimit="10" fill="#269AED"/><text fill="#FFFFFF" font-family="Segoe UI,Segoe UI_MSFontService,sans-serif" font-weight="400" font-size="13" transform="matrix(0.74 0 0 0.74 245.943 451)">W<tspan font-size="13" x="12.5" y="0">orkload</tspan></text><path d="M397.543 421.179 396.561 421.314C396.259 421.357 396.032 421.431 395.878 421.539 395.724 421.646 395.647 421.836 395.647 422.109 395.647 422.308 395.719 422.47 395.86 422.595 396.002 422.722 396.191 422.785 396.427 422.785 396.749 422.785 397.016 422.672 397.227 422.444 397.438 422.218 397.543 421.932 397.543 421.585ZM347.223 421.179 346.241 421.314C345.939 421.357 345.712 421.431 345.558 421.539 345.404 421.646 345.327 421.836 345.327 422.109 345.327 422.308 345.398 422.47 345.54 422.595 345.682 422.722 345.871 422.785 346.107 422.785 346.429 422.785 346.696 422.672 346.907 422.444 347.118 422.218 347.223 421.932 347.223 421.585ZM339.083 421.179 338.101 421.314C337.799 421.357 337.572 421.431 337.418 421.539 337.264 421.646 337.187 421.836 337.187 422.109 337.187 422.308 337.258 422.47 337.4 422.595 337.542 422.722 337.731 422.785 337.967 422.785 338.289 422.785 338.556 422.672 338.767 422.444 338.978 422.218 339.083 421.932 339.083 421.585ZM406.651 419.621C406.232 419.621 405.901 419.763 405.657 420.048 405.413 420.333 405.291 420.725 405.291 421.226 405.291 421.709 405.415 422.089 405.661 422.367 405.908 422.646 406.237 422.785 406.651 422.785 407.072 422.785 407.396 422.648 407.622 422.375 407.849 422.103 407.962 421.714 407.962 421.211 407.962 420.702 407.849 420.31 407.622 420.034 407.396 419.758 407.072 419.621 406.651 419.621ZM390.533 419.621C390.154 419.621 389.85 419.752 389.619 420.017 389.389 420.28 389.274 420.611 389.274 421.008L389.274 421.576C389.274 421.913 389.383 422.198 389.602 422.433 389.82 422.667 390.097 422.785 390.434 422.785 390.829 422.785 391.138 422.634 391.362 422.331 391.586 422.029 391.698 421.61 391.698 421.072 391.698 420.618 391.593 420.264 391.384 420.006 391.175 419.749 390.891 419.621 390.533 419.621ZM380.011 419.621C379.592 419.621 379.261 419.763 379.017 420.048 378.773 420.333 378.651 420.725 378.651 421.226 378.651 421.709 378.775 422.089 379.021 422.367 379.268 422.646 379.597 422.785 380.011 422.785 380.432 422.785 380.756 422.648 380.982 422.375 381.209 422.103 381.322 421.714 381.322 421.211 381.322 420.702 381.209 420.31 380.982 420.034 380.756 419.758 380.432 419.621 380.011 419.621ZM366.853 419.621C366.474 419.621 366.17 419.752 365.939 420.017 365.709 420.28 365.594 420.611 365.594 421.008L365.594 421.576C365.594 421.913 365.703 422.198 365.922 422.433 366.14 422.667 366.417 422.785 366.754 422.785 367.149 422.785 367.458 422.634 367.682 422.331 367.906 422.029 368.018 421.61 368.018 421.072 368.018 420.618 367.913 420.264 367.704 420.006 367.495 419.749 367.211 419.621 366.853 419.621ZM359.951 419.621C359.553 419.621 359.241 419.766 359.013 420.058 358.785 420.349 358.671 420.752 358.671 421.266 358.671 421.736 358.781 422.106 358.999 422.377 359.218 422.649 359.511 422.785 359.88 422.785 360.242 422.785 360.537 422.653 360.764 422.391 360.99 422.128 361.104 421.798 361.104 421.397L361.104 420.797C361.104 420.469 360.995 420.19 360.778 419.962 360.56 419.735 360.285 419.621 359.951 419.621ZM355.428 419.621C355.12 419.621 354.859 419.731 354.645 419.951 354.43 420.17 354.298 420.458 354.247 420.813L356.445 420.813C356.442 420.437 356.352 420.144 356.173 419.935 355.994 419.726 355.745 419.621 355.428 419.621ZM351.079 419.621C350.676 419.621 350.361 419.767 350.133 420.06 349.905 420.352 349.791 420.763 349.791 421.29 349.791 421.743 349.901 422.106 350.119 422.377 350.338 422.649 350.627 422.785 350.988 422.785 351.353 422.785 351.651 422.655 351.88 422.395 352.109 422.135 352.224 421.803 352.224 421.397L352.224 420.797C352.224 420.474 352.114 420.197 351.896 419.967 351.677 419.736 351.405 419.621 351.079 419.621ZM368.777 419.168 369.501 419.168 370.602 422.299C370.615 422.339 370.643 422.443 370.685 422.609L370.709 422.609C370.723 422.546 370.749 422.445 370.789 422.308L371.945 419.168 372.621 419.168 370.749 423.89C370.415 424.732 369.946 425.154 369.342 425.154 369.172 425.154 369.03 425.136 368.916 425.102L368.916 424.517C369.057 424.565 369.186 424.589 369.302 424.589 369.631 424.589 369.877 424.393 370.041 424.001L370.368 423.23ZM411.074 419.096C411.244 419.096 411.374 419.114 411.464 419.151L411.464 419.828C411.35 419.74 411.186 419.696 410.971 419.696 410.693 419.696 410.461 419.828 410.274 420.09 410.087 420.352 409.994 420.71 409.994 421.163L409.994 423.238 409.342 423.238 409.342 419.168 409.994 419.168 409.994 420.006 410.009 420.006C410.102 419.72 410.244 419.497 410.435 419.336 410.626 419.177 410.839 419.096 411.074 419.096ZM414.233 419.072C414.512 419.072 414.754 419.15 414.961 419.305 415.167 419.46 415.309 419.663 415.386 419.915 415.688 419.353 416.139 419.072 416.737 419.072 417.633 419.072 418.081 419.625 418.081 420.73L418.081 423.238 417.429 423.238 417.429 420.901C417.429 420.45 417.359 420.125 417.22 419.923 417.081 419.721 416.847 419.621 416.518 419.621 416.24 419.621 416.004 419.748 415.81 420.002 415.614 420.257 415.517 420.561 415.517 420.916L415.517 423.238 414.865 423.238 414.865 420.821C414.865 420.021 414.557 419.621 413.94 419.621 413.653 419.621 413.417 419.74 413.231 419.98 413.046 420.22 412.954 420.532 412.954 420.916L412.954 423.238 412.302 423.238 412.302 419.168 412.954 419.168 412.954 419.812 412.969 419.812C413.258 419.319 413.68 419.072 414.233 419.072ZM406.698 419.072C407.305 419.072 407.778 419.259 408.119 419.632 408.46 420.006 408.63 420.524 408.63 421.186 408.63 421.836 408.447 422.356 408.079 422.747 407.712 423.138 407.22 423.333 406.602 423.333 406.002 423.333 405.521 423.143 405.162 422.763 404.803 422.382 404.624 421.878 404.624 421.25 404.624 420.567 404.81 420.033 405.184 419.649 405.558 419.265 406.062 419.072 406.698 419.072ZM396.76 419.072C397.717 419.072 398.195 419.578 398.195 420.591L398.195 423.238 397.543 423.238 397.543 422.602 397.527 422.602C397.244 423.089 396.826 423.333 396.275 423.333 395.87 423.333 395.553 423.226 395.323 423.011 395.094 422.797 394.979 422.512 394.979 422.157 394.979 421.396 395.428 420.953 396.323 420.829L397.543 420.658C397.543 419.967 397.264 419.621 396.705 419.621 396.214 419.621 395.772 419.788 395.377 420.122L395.377 419.454C395.777 419.2 396.238 419.072 396.76 419.072ZM390.696 419.072C391.221 419.072 391.631 419.254 391.925 419.619 392.219 419.983 392.366 420.472 392.366 421.084 392.366 421.764 392.2 422.31 391.869 422.719 391.538 423.128 391.085 423.333 390.51 423.333 389.982 423.333 389.576 423.105 389.289 422.649L389.274 422.649 389.274 425.11 388.622 425.11 388.622 419.168 389.274 419.168 389.274 419.883 389.289 419.883C389.61 419.342 390.079 419.072 390.696 419.072ZM380.058 419.072C380.665 419.072 381.138 419.259 381.479 419.632 381.82 420.006 381.99 420.524 381.99 421.186 381.99 421.836 381.807 422.356 381.439 422.747 381.072 423.138 380.58 423.333 379.962 423.333 379.362 423.333 378.881 423.143 378.522 422.763 378.163 422.382 377.984 421.878 377.984 421.25 377.984 420.567 378.17 420.033 378.544 419.649 378.918 419.265 379.422 419.072 380.058 419.072ZM355.44 419.072C355.972 419.072 356.384 419.245 356.675 419.589 356.967 419.934 357.113 420.412 357.113 421.024L357.113 421.366 354.239 421.366C354.25 421.818 354.372 422.168 354.605 422.415 354.838 422.661 355.158 422.785 355.567 422.785 356.025 422.785 356.447 422.634 356.831 422.331L356.831 422.943C356.473 423.203 356 423.333 355.411 423.333 354.836 423.333 354.385 423.148 354.057 422.779 353.728 422.409 353.564 421.889 353.564 421.218 353.564 420.586 353.743 420.069 354.102 419.67 354.461 419.271 354.907 419.072 355.44 419.072ZM350.988 419.072C351.536 419.072 351.943 419.292 352.208 419.732L352.224 419.732 352.224 419.168 352.875 419.168 352.875 422.911C352.875 424.406 352.16 425.154 350.729 425.154 350.226 425.154 349.786 425.058 349.409 424.867L349.409 424.215C349.868 424.47 350.305 424.597 350.721 424.597 351.723 424.597 352.224 424.064 352.224 422.999L352.224 422.554 352.208 422.554C351.898 423.073 351.431 423.333 350.809 423.333 350.302 423.333 349.895 423.152 349.586 422.791 349.278 422.429 349.124 421.943 349.124 421.334 349.124 420.643 349.289 420.093 349.622 419.684 349.955 419.277 350.41 419.072 350.988 419.072ZM346.44 419.072C347.397 419.072 347.875 419.578 347.875 420.591L347.875 423.238 347.223 423.238 347.223 422.602 347.207 422.602C346.924 423.089 346.506 423.333 345.955 423.333 345.55 423.333 345.233 423.226 345.003 423.011 344.774 422.797 344.659 422.512 344.659 422.157 344.659 421.396 345.108 420.953 346.003 420.829L347.223 420.658C347.223 419.967 346.944 419.621 346.385 419.621 345.894 419.621 345.452 419.788 345.057 420.122L345.057 419.454C345.457 419.2 345.918 419.072 346.44 419.072ZM342.525 419.072C342.97 419.072 343.31 419.216 343.546 419.504 343.782 419.791 343.9 420.207 343.9 420.75L343.9 423.238 343.248 423.238 343.248 420.916C343.248 420.053 342.933 419.621 342.302 419.621 341.976 419.621 341.707 419.743 341.494 419.988 341.28 420.233 341.174 420.543 341.174 420.916L341.174 423.238 340.522 423.238 340.522 419.168 341.174 419.168 341.174 419.843 341.189 419.843C341.496 419.329 341.942 419.072 342.525 419.072ZM338.3 419.072C339.257 419.072 339.735 419.578 339.735 420.591L339.735 423.238 339.083 423.238 339.083 422.602 339.067 422.602C338.784 423.089 338.366 423.333 337.815 423.333 337.41 423.333 337.093 423.226 336.863 423.011 336.634 422.797 336.519 422.512 336.519 422.157 336.519 421.396 336.968 420.953 337.863 420.829L339.083 420.658C339.083 419.967 338.804 419.621 338.245 419.621 337.754 419.621 337.312 419.788 336.917 420.122L336.917 419.454C337.317 419.2 337.778 419.072 338.3 419.072ZM400.584 417.963 400.584 419.168 401.61 419.168 401.61 419.724 400.584 419.724 400.584 422.017C400.584 422.291 400.631 422.485 400.723 422.602 400.816 422.718 400.97 422.777 401.184 422.777 401.348 422.777 401.491 422.732 401.61 422.641L401.61 423.198C401.456 423.283 401.253 423.325 401.001 423.325 400.289 423.325 399.932 422.928 399.932 422.133L399.932 419.724 399.233 419.724 399.233 419.168 399.932 419.168 399.932 418.174ZM382.205 417.538 386.16 417.538 386.16 418.142 384.514 418.142 384.514 423.238 383.847 423.238 383.847 418.142 382.205 418.142ZM376.129 417.538 376.797 417.538 376.797 423.238 376.129 423.238ZM329.509 417.538 330.391 417.538 332.14 421.513C332.275 421.818 332.363 422.046 332.403 422.197L332.426 422.197C332.54 421.884 332.632 421.65 332.701 421.497L334.485 417.538 335.32 417.538 335.32 423.238 334.656 423.238 334.656 419.414C334.656 419.112 334.674 418.742 334.712 418.305L334.696 418.305C334.632 418.562 334.575 418.747 334.525 418.858L332.577 423.238 332.252 423.238 330.308 418.889C330.252 418.762 330.195 418.568 330.137 418.305L330.121 418.305C330.143 418.533 330.153 418.905 330.153 419.422L330.153 423.238 329.509 423.238ZM393.802 417.212 394.454 417.212 394.454 423.238 393.802 423.238ZM364.942 417.212 365.594 417.212 365.594 419.883 365.609 419.883C365.93 419.342 366.399 419.072 367.016 419.072 367.539 419.072 367.947 419.254 368.242 419.619 368.538 419.983 368.686 420.472 368.686 421.084 368.686 421.764 368.52 422.31 368.189 422.719 367.858 423.128 367.405 423.333 366.83 423.333 366.292 423.333 365.885 423.105 365.609 422.649L365.594 422.649 365.594 423.238 364.942 423.238ZM361.104 417.212 361.755 417.212 361.755 423.238 361.104 423.238 361.104 422.546 361.088 422.546C360.785 423.07 360.319 423.333 359.689 423.333 359.177 423.333 358.769 423.151 358.462 422.786 358.156 422.422 358.004 421.926 358.004 421.298 358.004 420.625 358.173 420.086 358.512 419.681 358.852 419.275 359.303 419.072 359.868 419.072 360.426 419.072 360.833 419.292 361.088 419.732L361.104 419.732ZM404.22 417.125C404.419 417.125 404.576 417.148 404.693 417.196L404.693 417.785C404.566 417.713 404.421 417.677 404.26 417.677 403.804 417.677 403.576 417.964 403.576 418.539L403.576 419.168 404.53 419.168 404.53 419.724 403.576 419.724 403.576 423.238 402.928 423.238 402.928 419.724 402.233 419.724 402.233 419.168 402.928 419.168 402.928 418.508C402.928 418.081 403.051 417.744 403.298 417.496 403.544 417.249 403.852 417.125 404.22 417.125Z" fill="url(#fill5)" fill-rule="evenodd"/><path d="M482.534 447.462 483.405 447.462 482.788 449.446 482.097 449.446ZM440.354 447.462 441.225 447.462 440.608 449.446 439.917 449.446ZM412.974 447.462 413.845 447.462 413.228 449.446 412.536 449.446ZM374.494 447.462 375.365 447.462 374.748 449.446 374.056 449.446ZM497.724 447.427C497.885 447.427 498.022 447.479 498.135 447.585 498.248 447.692 498.304 447.818 498.304 447.967 498.304 448.113 498.248 448.238 498.135 448.343 498.022 448.447 497.885 448.5 497.724 448.5 497.565 448.5 497.429 448.447 497.318 448.343 497.207 448.238 497.151 448.113 497.151 447.967 497.151 447.818 497.207 447.692 497.318 447.585 497.429 447.479 497.565 447.427 497.724 447.427ZM518.076 446.413 517.221 446.532C516.956 446.567 516.757 446.631 516.623 446.725 516.49 446.819 516.422 446.984 516.422 447.22 516.422 447.392 516.484 447.533 516.607 447.643 516.73 447.753 516.895 447.808 517.102 447.808 517.383 447.808 517.615 447.71 517.799 447.512 517.984 447.314 518.076 447.066 518.076 446.767ZM463.316 446.413 462.461 446.532C462.196 446.567 461.997 446.631 461.863 446.725 461.729 446.819 461.662 446.984 461.662 447.22 461.662 447.392 461.724 447.533 461.847 447.643 461.971 447.753 462.135 447.808 462.342 447.808 462.623 447.808 462.855 447.71 463.039 447.512 463.224 447.314 463.316 447.066 463.316 446.767ZM397.456 446.413 396.601 446.532C396.336 446.567 396.137 446.631 396.003 446.725 395.869 446.819 395.802 446.984 395.802 447.22 395.802 447.392 395.864 447.533 395.987 447.643 396.111 447.753 396.275 447.808 396.482 447.808 396.763 447.808 396.995 447.71 397.179 447.512 397.364 447.314 397.456 447.066 397.456 446.767ZM354.536 446.413 353.681 446.532C353.416 446.567 353.217 446.631 353.083 446.725 352.949 446.819 352.882 446.984 352.882 447.22 352.882 447.392 352.944 447.533 353.067 447.643 353.19 447.753 353.355 447.808 353.562 447.808 353.843 447.808 354.075 447.71 354.259 447.512 354.444 447.314 354.536 447.066 354.536 446.767ZM526.51 444.982C526.167 444.982 525.895 445.111 525.698 445.367 525.5 445.625 525.402 445.981 525.402 446.437 525.402 446.85 525.497 447.177 525.686 447.417 525.876 447.656 526.13 447.776 526.451 447.776 526.767 447.776 527.022 447.661 527.218 447.428 527.414 447.197 527.513 446.904 527.513 446.552L527.513 446.019C527.513 445.731 527.418 445.486 527.23 445.284 527.042 445.083 526.802 444.982 526.51 444.982ZM450.35 444.982C449.99 444.982 449.705 445.108 449.496 445.36 449.286 445.612 449.181 445.959 449.181 446.401 449.181 446.827 449.288 447.163 449.499 447.408 449.712 447.654 449.995 447.776 450.35 447.776 450.713 447.776 450.992 447.656 451.187 447.414 451.381 447.174 451.479 446.83 451.479 446.385 451.479 445.937 451.381 445.592 451.187 445.347 450.992 445.104 450.713 444.982 450.35 444.982ZM431.269 444.982C430.94 444.982 430.676 445.099 430.476 445.332 430.277 445.565 430.176 445.857 430.176 446.207L430.176 446.711C430.176 447.008 430.271 447.26 430.46 447.466 430.649 447.673 430.89 447.776 431.182 447.776 431.523 447.776 431.792 447.643 431.987 447.377 432.181 447.111 432.279 446.739 432.279 446.262 432.279 445.862 432.188 445.549 432.007 445.322 431.825 445.095 431.579 444.982 431.269 444.982ZM406.849 444.982C406.52 444.982 406.256 445.099 406.056 445.332 405.857 445.565 405.756 445.857 405.756 446.207L405.756 446.711C405.756 447.008 405.851 447.26 406.04 447.466 406.229 447.673 406.47 447.776 406.762 447.776 407.103 447.776 407.372 447.643 407.567 447.377 407.761 447.111 407.859 446.739 407.859 446.262 407.859 445.862 407.768 445.549 407.587 445.322 407.405 445.095 407.159 444.982 406.849 444.982ZM401.669 444.982C401.34 444.982 401.076 445.099 400.876 445.332 400.677 445.565 400.576 445.857 400.576 446.207L400.576 446.711C400.576 447.008 400.671 447.26 400.86 447.466 401.049 447.673 401.29 447.776 401.582 447.776 401.923 447.776 402.192 447.643 402.387 447.377 402.581 447.111 402.679 446.739 402.679 446.262 402.679 445.862 402.588 445.549 402.407 445.322 402.225 445.095 401.979 444.982 401.669 444.982ZM392.789 444.982C392.46 444.982 392.196 445.099 391.996 445.332 391.797 445.565 391.696 445.857 391.696 446.207L391.696 446.711C391.696 447.008 391.791 447.26 391.98 447.466 392.169 447.673 392.41 447.776 392.702 447.776 393.043 447.776 393.312 447.643 393.507 447.377 393.701 447.111 393.799 446.739 393.799 446.262 393.799 445.862 393.708 445.549 393.527 445.322 393.345 445.095 393.099 444.982 392.789 444.982ZM363.77 444.982C363.41 444.982 363.125 445.108 362.916 445.36 362.706 445.612 362.601 445.959 362.601 446.401 362.601 446.827 362.708 447.163 362.919 447.408 363.132 447.654 363.415 447.776 363.77 447.776 364.133 447.776 364.412 447.656 364.607 447.414 364.801 447.174 364.899 446.83 364.899 446.385 364.899 445.937 364.801 445.592 364.607 445.347 364.412 445.104 364.133 444.982 363.77 444.982ZM341.729 444.982C341.4 444.982 341.136 445.099 340.936 445.332 340.737 445.565 340.636 445.857 340.636 446.207L340.636 446.711C340.636 447.008 340.731 447.26 340.92 447.466 341.109 447.673 341.35 447.776 341.642 447.776 341.983 447.776 342.252 447.643 342.447 447.377 342.641 447.111 342.739 446.739 342.739 446.262 342.739 445.862 342.648 445.549 342.467 445.322 342.285 445.095 342.039 444.982 341.729 444.982ZM336.549 444.982C336.22 444.982 335.956 445.099 335.756 445.332 335.557 445.565 335.456 445.857 335.456 446.207L335.456 446.711C335.456 447.008 335.551 447.26 335.74 447.466 335.929 447.673 336.17 447.776 336.462 447.776 336.803 447.776 337.072 447.643 337.267 447.377 337.461 447.111 337.559 446.739 337.559 446.262 337.559 445.862 337.468 445.549 337.287 445.322 337.105 445.095 336.859 444.982 336.549 444.982ZM488.667 444.926C488.402 444.926 488.178 445.023 487.994 445.216 487.809 445.41 487.696 445.663 487.654 445.976L489.538 445.976C489.535 445.644 489.457 445.387 489.303 445.202 489.149 445.019 488.938 444.926 488.667 444.926ZM473.867 444.926C473.602 444.926 473.378 445.023 473.194 445.216 473.009 445.41 472.896 445.663 472.854 445.976L474.738 445.976C474.735 445.644 474.657 445.387 474.503 445.202 474.349 445.019 474.138 444.926 473.867 444.926ZM388.027 444.926C387.762 444.926 387.538 445.023 387.354 445.216 387.169 445.41 387.056 445.663 387.014 445.976L388.898 445.976C388.895 445.644 388.817 445.387 388.663 445.202 388.509 445.019 388.298 444.926 388.027 444.926ZM464.782 444.343 465.704 444.343 465.704 448.413 464.782 448.413ZM427.042 444.343 427.964 444.343 427.964 448.413 427.042 448.413ZM359.702 444.343 360.624 444.343 360.624 448.413 359.702 448.413ZM346.382 444.343 347.304 444.343 347.304 448.413 346.382 448.413ZM477.861 444.271C478.028 444.271 478.155 444.296 478.243 444.346L478.243 445.221C478.132 445.133 477.971 445.089 477.762 445.089 477.489 445.089 477.261 445.213 477.079 445.459 476.896 445.706 476.804 446.041 476.804 446.465L476.804 448.413 475.882 448.413 475.882 444.343 476.804 444.343 476.804 445.181 476.82 445.181C476.91 444.895 477.048 444.671 477.235 444.511 477.422 444.351 477.631 444.271 477.861 444.271ZM426.061 444.271C426.228 444.271 426.355 444.296 426.443 444.346L426.443 445.221C426.332 445.133 426.171 445.089 425.962 445.089 425.689 445.089 425.461 445.213 425.279 445.459 425.096 445.706 425.004 446.041 425.004 446.465L425.004 448.413 424.082 448.413 424.082 444.343 425.004 444.343 425.004 445.181 425.02 445.181C425.11 444.895 425.248 444.671 425.435 444.511 425.622 444.351 425.831 444.271 426.061 444.271ZM522.543 444.247C522.986 444.247 523.324 444.391 523.557 444.678 523.79 444.966 523.906 445.381 523.906 445.924L523.906 448.413 522.984 448.413 522.984 446.118C522.984 445.359 522.716 444.978 522.178 444.978 521.897 444.978 521.665 445.083 521.482 445.294 521.299 445.505 521.208 445.771 521.208 446.091L521.208 448.413 520.282 448.413 520.282 444.343 521.208 444.343 521.208 445.018 521.224 445.018C521.529 444.504 521.968 444.247 522.543 444.247ZM517.424 444.247C518.452 444.247 518.966 444.753 518.966 445.765L518.966 448.413 518.072 448.413 518.072 447.776 518.056 447.776C517.775 448.264 517.363 448.507 516.819 448.507 516.42 448.507 516.106 448.399 515.88 448.182 515.653 447.964 515.54 447.677 515.54 447.319 515.54 446.551 515.983 446.103 516.868 445.976L518.076 445.805C518.076 445.225 517.8 444.935 517.249 444.935 516.764 444.935 516.327 445.101 515.937 445.436L515.937 444.628C516.367 444.374 516.862 444.247 517.424 444.247ZM495.578 444.247C495.949 444.247 496.276 444.311 496.559 444.442L496.559 445.3C496.276 445.088 495.974 444.982 495.653 444.982 495.263 444.982 494.944 445.114 494.695 445.378 494.446 445.641 494.322 445.986 494.322 446.413 494.322 446.834 494.439 447.167 494.674 447.411 494.908 447.654 495.223 447.776 495.617 447.776 495.949 447.776 496.262 447.658 496.555 447.422L496.555 448.225C496.23 448.413 495.844 448.507 495.399 448.507 494.795 448.507 494.307 448.319 493.936 447.941 493.565 447.564 493.38 447.074 493.38 446.472 493.38 445.803 493.579 445.264 493.978 444.857 494.377 444.45 494.91 444.247 495.578 444.247ZM488.68 444.247C489.235 444.247 489.666 444.425 489.971 444.784 490.276 445.141 490.428 445.638 490.428 446.274L490.428 446.628 487.654 446.628C487.664 447.004 487.78 447.294 488.002 447.498 488.223 447.702 488.527 447.804 488.913 447.804 489.348 447.804 489.747 447.674 490.11 447.414L490.11 448.158C489.739 448.391 489.249 448.507 488.64 448.507 488.041 448.507 487.571 448.323 487.231 447.953 486.89 447.584 486.72 447.064 486.72 446.393 486.72 445.76 486.907 445.244 487.282 444.845 487.657 444.446 488.123 444.247 488.68 444.247ZM480.253 444.247C480.629 444.247 480.966 444.304 481.263 444.418L481.263 445.225C480.976 445.029 480.648 444.93 480.277 444.93 480.16 444.93 480.055 444.943 479.961 444.966 479.867 444.99 479.787 445.023 479.72 445.066 479.655 445.108 479.603 445.159 479.566 445.219 479.528 445.278 479.509 445.344 479.509 445.416 479.509 445.503 479.528 445.577 479.566 445.638 479.603 445.699 479.657 445.752 479.73 445.799 479.803 445.845 479.891 445.888 479.993 445.926 480.095 445.965 480.212 446.006 480.344 446.051 480.52 446.123 480.676 446.195 480.816 446.27 480.955 446.344 481.073 446.428 481.172 446.523 481.269 446.617 481.345 446.725 481.398 446.848 481.451 446.972 481.477 447.118 481.477 447.288 481.477 447.494 481.43 447.674 481.334 447.828 481.239 447.982 481.112 448.109 480.952 448.21 480.793 448.31 480.61 448.385 480.402 448.434 480.194 448.483 479.975 448.507 479.744 448.507 479.299 448.507 478.914 448.433 478.587 448.285L478.587 447.431C478.932 447.693 479.313 447.824 479.728 447.824 480.285 447.824 480.563 447.66 480.563 447.331 480.563 447.238 480.54 447.16 480.491 447.095 480.444 447.029 480.38 446.972 480.299 446.921 480.218 446.871 480.122 446.826 480.013 446.787 479.902 446.747 479.78 446.702 479.645 446.651 479.478 446.585 479.327 446.515 479.193 446.44 479.06 446.366 478.949 446.283 478.86 446.188 478.771 446.094 478.704 445.988 478.659 445.868 478.614 445.749 478.592 445.61 478.592 445.451 478.592 445.255 478.638 445.082 478.731 444.932 478.823 444.783 478.948 444.657 479.104 444.555 479.261 444.453 479.438 444.376 479.637 444.324 479.836 444.273 480.041 444.247 480.253 444.247ZM473.88 444.247C474.435 444.247 474.866 444.425 475.171 444.784 475.476 445.141 475.628 445.638 475.628 446.274L475.628 446.628 472.854 446.628C472.864 447.004 472.98 447.294 473.202 447.498 473.423 447.702 473.727 447.804 474.113 447.804 474.548 447.804 474.947 447.674 475.31 447.414L475.31 448.158C474.939 448.391 474.449 448.507 473.84 448.507 473.241 448.507 472.771 448.323 472.431 447.953 472.09 447.584 471.92 447.064 471.92 446.393 471.92 445.76 472.107 445.244 472.482 444.845 472.857 444.446 473.323 444.247 473.88 444.247ZM469.263 444.247C469.706 444.247 470.044 444.391 470.277 444.678 470.51 444.966 470.626 445.381 470.626 445.924L470.626 448.413 469.704 448.413 469.704 446.118C469.704 445.359 469.436 444.978 468.898 444.978 468.617 444.978 468.385 445.083 468.202 445.294 468.019 445.505 467.928 445.771 467.928 446.091L467.928 448.413 467.002 448.413 467.002 444.343 467.928 444.343 467.928 445.018 467.944 445.018C468.249 444.504 468.688 444.247 469.263 444.247ZM462.664 444.247C463.692 444.247 464.206 444.753 464.206 445.765L464.206 448.413 463.312 448.413 463.312 447.776 463.296 447.776C463.015 448.264 462.603 448.507 462.06 448.507 461.66 448.507 461.346 448.399 461.12 448.182 460.893 447.964 460.78 447.677 460.78 447.319 460.78 446.551 461.223 446.103 462.108 445.976L463.316 445.805C463.316 445.225 463.04 444.935 462.489 444.935 462.004 444.935 461.567 445.101 461.177 445.436L461.177 444.628C461.607 444.374 462.102 444.247 462.664 444.247ZM455.203 444.247C455.646 444.247 455.984 444.391 456.217 444.678 456.45 444.966 456.567 445.381 456.567 445.924L456.567 448.413 455.644 448.413 455.644 446.118C455.644 445.359 455.376 444.978 454.838 444.978 454.557 444.978 454.325 445.083 454.142 445.294 453.959 445.505 453.868 445.771 453.868 446.091L453.868 448.413 452.942 448.413 452.942 444.343 453.868 444.343 453.868 445.018 453.884 445.018C454.189 444.504 454.628 444.247 455.203 444.247ZM450.406 444.247C451.042 444.247 451.537 444.434 451.893 444.807 452.247 445.181 452.425 445.699 452.425 446.361 452.425 447.01 452.234 447.53 451.85 447.921 451.468 448.312 450.953 448.507 450.307 448.507 449.679 448.507 449.177 448.318 448.802 447.937 448.427 447.557 448.24 447.053 448.24 446.425 448.24 445.741 448.435 445.208 448.826 444.823 449.217 444.439 449.744 444.247 450.406 444.247ZM446.738 444.247C447.109 444.247 447.436 444.311 447.719 444.442L447.719 445.3C447.436 445.088 447.134 444.982 446.813 444.982 446.423 444.982 446.104 445.114 445.855 445.378 445.606 445.641 445.481 445.986 445.481 446.413 445.481 446.834 445.599 447.167 445.834 447.411 446.068 447.654 446.383 447.776 446.777 447.776 447.109 447.776 447.422 447.658 447.715 447.422L447.715 448.225C447.39 448.413 447.004 448.507 446.559 448.507 445.955 448.507 445.467 448.319 445.096 447.941 444.725 447.564 444.54 447.074 444.54 446.472 444.54 445.803 444.739 445.264 445.138 444.857 445.537 444.45 446.07 444.247 446.738 444.247ZM438.813 444.247C439.189 444.247 439.526 444.304 439.823 444.418L439.823 445.225C439.536 445.029 439.208 444.93 438.837 444.93 438.72 444.93 438.615 444.943 438.521 444.966 438.427 444.99 438.347 445.023 438.28 445.066 438.214 445.108 438.163 445.159 438.126 445.219 438.088 445.278 438.069 445.344 438.069 445.416 438.069 445.503 438.088 445.577 438.126 445.638 438.163 445.699 438.217 445.752 438.291 445.799 438.363 445.845 438.451 445.888 438.553 445.926 438.655 445.965 438.772 446.006 438.904 446.051 439.08 446.123 439.236 446.195 439.376 446.27 439.515 446.344 439.633 446.428 439.732 446.523 439.829 446.617 439.905 446.725 439.958 446.848 440.01 446.972 440.037 447.118 440.037 447.288 440.037 447.494 439.99 447.674 439.894 447.828 439.799 447.982 439.672 448.109 439.512 448.21 439.353 448.31 439.17 448.385 438.962 448.434 438.754 448.483 438.535 448.507 438.304 448.507 437.859 448.507 437.474 448.433 437.147 448.285L437.147 447.431C437.492 447.693 437.873 447.824 438.288 447.824 438.845 447.824 439.123 447.66 439.123 447.331 439.123 447.238 439.099 447.16 439.051 447.095 439.004 447.029 438.94 446.972 438.859 446.921 438.778 446.871 438.682 446.826 438.573 446.787 438.462 446.747 438.34 446.702 438.205 446.651 438.038 446.585 437.887 446.515 437.753 446.44 437.62 446.366 437.509 446.283 437.42 446.188 437.331 446.094 437.264 445.988 437.219 445.868 437.174 445.749 437.152 445.61 437.152 445.451 437.152 445.255 437.198 445.082 437.291 444.932 437.383 444.783 437.508 444.657 437.665 444.555 437.821 444.453 437.998 444.376 438.197 444.324 438.396 444.273 438.601 444.247 438.813 444.247ZM431.583 444.247C432.1 444.247 432.502 444.428 432.792 444.791 433.08 445.154 433.225 445.642 433.225 446.254 433.225 446.933 433.062 447.476 432.736 447.883 432.41 448.292 431.964 448.495 431.401 448.495 430.881 448.495 430.481 448.267 430.2 447.812L430.184 447.812 430.184 450.284 429.262 450.284 429.262 444.343 430.184 444.343 430.184 445.057 430.2 445.057C430.516 444.517 430.977 444.247 431.583 444.247ZM422.318 444.247C422.689 444.247 423.016 444.311 423.299 444.442L423.299 445.3C423.016 445.088 422.714 444.982 422.393 444.982 422.003 444.982 421.684 445.114 421.435 445.378 421.186 445.641 421.062 445.986 421.062 446.413 421.062 446.834 421.179 447.167 421.414 447.411 421.648 447.654 421.963 447.776 422.357 447.776 422.689 447.776 423.002 447.658 423.295 447.422L423.295 448.225C422.97 448.413 422.584 448.507 422.139 448.507 421.535 448.507 421.047 448.319 420.676 447.941 420.305 447.564 420.12 447.074 420.12 446.472 420.12 445.803 420.319 445.264 420.718 444.857 421.117 444.45 421.65 444.247 422.318 444.247ZM418.093 444.247C418.469 444.247 418.806 444.304 419.103 444.418L419.103 445.225C418.816 445.029 418.488 444.93 418.117 444.93 418 444.93 417.895 444.943 417.801 444.966 417.707 444.99 417.627 445.023 417.56 445.066 417.494 445.108 417.443 445.159 417.406 445.219 417.368 445.278 417.349 445.344 417.349 445.416 417.349 445.503 417.368 445.577 417.406 445.638 417.443 445.699 417.497 445.752 417.571 445.799 417.643 445.845 417.731 445.888 417.833 445.926 417.935 445.965 418.052 446.006 418.184 446.051 418.36 446.123 418.516 446.195 418.656 446.27 418.795 446.344 418.913 446.428 419.012 446.523 419.109 446.617 419.185 446.725 419.238 446.848 419.29 446.972 419.317 447.118 419.317 447.288 419.317 447.494 419.27 447.674 419.174 447.828 419.079 447.982 418.952 448.109 418.792 448.21 418.633 448.31 418.45 448.385 418.242 448.434 418.034 448.483 417.815 448.507 417.584 448.507 417.139 448.507 416.754 448.433 416.427 448.285L416.427 447.431C416.772 447.693 417.153 447.824 417.568 447.824 418.125 447.824 418.403 447.66 418.403 447.331 418.403 447.238 418.38 447.16 418.331 447.095 418.284 447.029 418.22 446.972 418.139 446.921 418.058 446.871 417.962 446.826 417.853 446.787 417.742 446.747 417.62 446.702 417.485 446.651 417.318 446.585 417.167 446.515 417.033 446.44 416.9 446.366 416.789 446.283 416.7 446.188 416.611 446.094 416.544 445.988 416.499 445.868 416.454 445.749 416.432 445.61 416.432 445.451 416.432 445.255 416.478 445.082 416.571 444.932 416.663 444.783 416.788 444.657 416.945 444.555 417.101 444.453 417.278 444.376 417.477 444.324 417.676 444.273 417.881 444.247 418.093 444.247ZM410.693 444.247C411.069 444.247 411.406 444.304 411.703 444.418L411.703 445.225C411.416 445.029 411.088 444.93 410.717 444.93 410.6 444.93 410.495 444.943 410.401 444.966 410.307 444.99 410.227 445.023 410.16 445.066 410.094 445.108 410.043 445.159 410.006 445.219 409.968 445.278 409.949 445.344 409.949 445.416 409.949 445.503 409.968 445.577 410.006 445.638 410.043 445.699 410.097 445.752 410.171 445.799 410.243 445.845 410.331 445.888 410.433 445.926 410.535 445.965 410.652 446.006 410.784 446.051 410.96 446.123 411.116 446.195 411.256 446.27 411.395 446.344 411.513 446.428 411.611 446.523 411.709 446.617 411.785 446.725 411.838 446.848 411.89 446.972 411.917 447.118 411.917 447.288 411.917 447.494 411.87 447.674 411.774 447.828 411.679 447.982 411.552 448.109 411.392 448.21 411.233 448.31 411.05 448.385 410.842 448.434 410.634 448.483 410.415 448.507 410.184 448.507 409.739 448.507 409.354 448.433 409.027 448.285L409.027 447.431C409.372 447.693 409.753 447.824 410.168 447.824 410.725 447.824 411.003 447.66 411.003 447.331 411.003 447.238 410.979 447.16 410.931 447.095 410.884 447.029 410.82 446.972 410.739 446.921 410.658 446.871 410.562 446.826 410.453 446.787 410.342 446.747 410.22 446.702 410.085 446.651 409.918 446.585 409.767 446.515 409.633 446.44 409.5 446.366 409.389 446.283 409.3 446.188 409.211 446.094 409.144 445.988 409.099 445.868 409.054 445.749 409.032 445.61 409.032 445.451 409.032 445.255 409.078 445.082 409.171 444.932 409.263 444.783 409.388 444.657 409.545 444.555 409.701 444.453 409.878 444.376 410.077 444.324 410.276 444.273 410.481 444.247 410.693 444.247ZM407.163 444.247C407.68 444.247 408.082 444.428 408.372 444.791 408.66 445.154 408.805 445.642 408.805 446.254 408.805 446.933 408.642 447.476 408.316 447.883 407.99 448.292 407.544 448.495 406.981 448.495 406.461 448.495 406.061 448.267 405.78 447.812L405.764 447.812 405.764 450.284 404.842 450.284 404.842 444.343 405.764 444.343 405.764 445.057 405.78 445.057C406.096 444.517 406.557 444.247 407.163 444.247ZM401.983 444.247C402.5 444.247 402.902 444.428 403.192 444.791 403.48 445.154 403.625 445.642 403.625 446.254 403.625 446.933 403.462 447.476 403.136 447.883 402.81 448.292 402.364 448.495 401.801 448.495 401.281 448.495 400.881 448.267 400.6 447.812L400.584 447.812 400.584 450.284 399.662 450.284 399.662 444.343 400.584 444.343 400.584 445.057 400.6 445.057C400.916 444.517 401.377 444.247 401.983 444.247ZM396.804 444.247C397.832 444.247 398.346 444.753 398.346 445.765L398.346 448.413 397.452 448.413 397.452 447.776 397.436 447.776C397.155 448.264 396.743 448.507 396.199 448.507 395.8 448.507 395.486 448.399 395.26 448.182 395.033 447.964 394.92 447.677 394.92 447.319 394.92 446.551 395.363 446.103 396.248 445.976L397.456 445.805C397.456 445.225 397.18 444.935 396.629 444.935 396.144 444.935 395.707 445.101 395.317 445.436L395.317 444.628C395.747 444.374 396.242 444.247 396.804 444.247ZM388.039 444.247C388.595 444.247 389.026 444.425 389.331 444.784 389.636 445.141 389.788 445.638 389.788 446.274L389.788 446.628 387.014 446.628C387.024 447.004 387.14 447.294 387.362 447.498 387.583 447.702 387.887 447.804 388.273 447.804 388.708 447.804 389.107 447.674 389.47 447.414L389.47 448.158C389.099 448.391 388.609 448.507 388 448.507 387.401 448.507 386.931 448.323 386.591 447.953 386.25 447.584 386.08 447.064 386.08 446.393 386.08 445.76 386.267 445.244 386.642 444.845 387.017 444.446 387.483 444.247 388.039 444.247ZM372.213 444.247C372.589 444.247 372.926 444.304 373.223 444.418L373.223 445.225C372.936 445.029 372.608 444.93 372.237 444.93 372.12 444.93 372.015 444.943 371.921 444.966 371.827 444.99 371.747 445.023 371.68 445.066 371.614 445.108 371.563 445.159 371.526 445.219 371.488 445.278 371.469 445.344 371.469 445.416 371.469 445.503 371.488 445.577 371.526 445.638 371.563 445.699 371.617 445.752 371.69 445.799 371.763 445.845 371.851 445.888 371.953 445.926 372.055 445.965 372.172 446.006 372.304 446.051 372.48 446.123 372.636 446.195 372.776 446.27 372.915 446.344 373.033 446.428 373.131 446.523 373.229 446.617 373.305 446.725 373.358 446.848 373.41 446.972 373.437 447.118 373.437 447.288 373.437 447.494 373.39 447.674 373.294 447.828 373.199 447.982 373.072 448.109 372.912 448.21 372.753 448.31 372.57 448.385 372.362 448.434 372.154 448.483 371.935 448.507 371.704 448.507 371.259 448.507 370.874 448.433 370.547 448.285L370.547 447.431C370.892 447.693 371.273 447.824 371.688 447.824 372.245 447.824 372.523 447.66 372.523 447.331 372.523 447.238 372.499 447.16 372.451 447.095 372.404 447.029 372.34 446.972 372.259 446.921 372.178 446.871 372.082 446.826 371.973 446.787 371.862 446.747 371.74 446.702 371.605 446.651 371.438 446.585 371.287 446.515 371.153 446.44 371.02 446.366 370.909 446.283 370.82 446.188 370.731 446.094 370.664 445.988 370.619 445.868 370.574 445.749 370.552 445.61 370.552 445.451 370.552 445.255 370.598 445.082 370.691 444.932 370.783 444.783 370.908 444.657 371.065 444.555 371.221 444.453 371.398 444.376 371.597 444.324 371.796 444.273 372.001 444.247 372.213 444.247ZM368.623 444.247C369.066 444.247 369.404 444.391 369.637 444.678 369.87 444.966 369.986 445.381 369.986 445.924L369.986 448.413 369.064 448.413 369.064 446.118C369.064 445.359 368.796 444.978 368.258 444.978 367.977 444.978 367.745 445.083 367.562 445.294 367.379 445.505 367.288 445.771 367.288 446.091L367.288 448.413 366.362 448.413 366.362 444.343 367.288 444.343 367.288 445.018 367.304 445.018C367.609 444.504 368.048 444.247 368.623 444.247ZM363.826 444.247C364.462 444.247 364.957 444.434 365.313 444.807 365.667 445.181 365.845 445.699 365.845 446.361 365.845 447.01 365.654 447.53 365.27 447.921 364.888 448.312 364.373 448.507 363.727 448.507 363.099 448.507 362.597 448.318 362.222 447.937 361.847 447.557 361.66 447.053 361.66 446.425 361.66 445.741 361.855 445.208 362.246 444.823 362.637 444.439 363.164 444.247 363.826 444.247ZM353.884 444.247C354.912 444.247 355.426 444.753 355.426 445.765L355.426 448.413 354.532 448.413 354.532 447.776 354.516 447.776C354.235 448.264 353.823 448.507 353.279 448.507 352.88 448.507 352.566 448.399 352.34 448.182 352.113 447.964 352 447.677 352 447.319 352 446.551 352.443 446.103 353.328 445.976L354.536 445.805C354.536 445.225 354.26 444.935 353.709 444.935 353.224 444.935 352.787 445.101 352.397 445.436L352.397 444.628C352.827 444.374 353.322 444.247 353.884 444.247ZM350.538 444.247C350.909 444.247 351.236 444.311 351.519 444.442L351.519 445.3C351.236 445.088 350.934 444.982 350.613 444.982 350.223 444.982 349.904 445.114 349.655 445.378 349.406 445.641 349.281 445.986 349.281 446.413 349.281 446.834 349.399 447.167 349.634 447.411 349.868 447.654 350.183 447.776 350.577 447.776 350.909 447.776 351.222 447.658 351.515 447.422L351.515 448.225C351.19 448.413 350.804 448.507 350.359 448.507 349.755 448.507 349.267 448.319 348.896 447.941 348.525 447.564 348.34 447.074 348.34 446.472 348.34 445.803 348.539 445.264 348.938 444.857 349.337 444.45 349.87 444.247 350.538 444.247ZM342.043 444.247C342.56 444.247 342.962 444.428 343.252 444.791 343.54 445.154 343.685 445.642 343.685 446.254 343.685 446.933 343.522 447.476 343.196 447.883 342.87 448.292 342.424 448.495 341.861 448.495 341.341 448.495 340.941 448.267 340.66 447.812L340.644 447.812 340.644 450.284 339.722 450.284 339.722 444.343 340.644 444.343 340.644 445.057 340.66 445.057C340.976 444.517 341.437 444.247 342.043 444.247ZM336.863 444.247C337.38 444.247 337.782 444.428 338.072 444.791 338.36 445.154 338.505 445.642 338.505 446.254 338.505 446.933 338.342 447.476 338.016 447.883 337.69 448.292 337.244 448.495 336.681 448.495 336.161 448.495 335.761 448.267 335.48 447.812L335.464 447.812 335.464 450.284 334.542 450.284 334.542 444.343 335.464 444.343 335.464 445.057 335.48 445.057C335.796 444.517 336.257 444.247 336.863 444.247ZM331.464 443.559C331.441 443.711 331.414 443.83 331.385 443.917L330.602 446.19 332.347 446.19 331.556 443.917C331.532 443.843 331.507 443.723 331.481 443.559ZM510.228 443.492 510.228 445.575 510.84 445.575C511.245 445.575 511.554 445.48 511.765 445.292 511.978 445.104 512.083 444.839 512.083 444.497 512.083 443.827 511.694 443.492 510.915 443.492ZM491.855 443.138 491.855 444.343 492.828 444.343 492.828 445.066 491.855 445.066 491.855 447.101C491.855 447.342 491.899 447.514 491.986 447.617 492.073 447.721 492.219 447.772 492.423 447.772 492.579 447.772 492.714 447.727 492.828 447.637L492.828 448.368C492.648 448.458 492.411 448.504 492.117 448.504 491.327 448.504 490.932 448.125 490.932 447.367L490.932 445.066 490.253 445.066 490.253 444.343 490.932 444.343 490.932 443.401ZM459.295 443.138 459.295 444.343 460.268 444.343 460.268 445.066 459.295 445.066 459.295 447.101C459.295 447.342 459.339 447.514 459.426 447.617 459.513 447.721 459.659 447.772 459.863 447.772 460.019 447.772 460.154 447.727 460.268 447.637L460.268 448.368C460.088 448.458 459.851 448.504 459.557 448.504 458.767 448.504 458.372 448.125 458.372 447.367L458.372 445.066 457.693 445.066 457.693 444.343 458.372 444.343 458.372 443.401ZM435.615 443.138 435.615 444.343 436.588 444.343 436.588 445.066 435.615 445.066 435.615 447.101C435.615 447.342 435.659 447.514 435.746 447.617 435.833 447.721 435.979 447.772 436.183 447.772 436.339 447.772 436.474 447.727 436.588 447.637L436.588 448.368C436.408 448.458 436.171 448.504 435.877 448.504 435.087 448.504 434.692 448.125 434.692 447.367L434.692 445.066 434.013 445.066 434.013 444.343 434.692 444.343 434.692 443.401ZM357.915 443.138 357.915 444.343 358.888 444.343 358.888 445.066 357.915 445.066 357.915 447.101C357.915 447.342 357.959 447.514 358.046 447.617 358.133 447.721 358.279 447.772 358.483 447.772 358.639 447.772 358.774 447.727 358.888 447.637L358.888 448.368C358.708 448.458 358.471 448.504 358.177 448.504 357.387 448.504 356.992 448.125 356.992 447.367L356.992 445.066 356.313 445.066 356.313 444.343 356.992 444.343 356.992 443.401ZM545.661 442.712 546.448 442.712C547.288 443.682 547.709 444.858 547.709 446.238 547.709 447.613 547.287 448.77 546.445 449.708L545.665 449.708C546.487 448.717 546.898 447.558 546.898 446.23 546.898 444.892 546.485 443.719 545.661 442.712ZM543.321 442.712 544.295 442.712 544.295 448.413 543.321 448.413ZM531.486 442.712 532.817 442.712 534.315 446.509C534.429 446.8 534.503 447.017 534.538 447.16L534.558 447.16C534.656 446.861 534.735 446.638 534.796 446.492L536.322 442.712 537.606 442.712 537.606 448.413 536.669 448.413 536.669 444.724C536.669 444.422 536.687 444.052 536.724 443.615L536.708 443.615C536.65 443.864 536.598 444.043 536.553 444.152L534.852 448.413 534.2 448.413 532.495 444.183C532.447 444.058 532.396 443.869 532.344 443.615L532.328 443.615C532.349 443.843 532.359 444.215 532.359 444.732L532.359 448.413 531.486 448.413ZM509.286 442.712 511.014 442.712C511.669 442.712 512.176 442.865 512.536 443.17 512.897 443.474 513.077 443.904 513.077 444.457 513.077 445.012 512.889 445.464 512.513 445.817 512.137 446.169 511.628 446.346 510.987 446.346L510.228 446.346 510.228 448.413 509.286 448.413ZM503.026 442.712 503.809 442.712C502.987 443.719 502.577 444.892 502.577 446.23 502.577 447.558 502.986 448.717 503.805 449.708L503.026 449.708C502.189 448.77 501.77 447.613 501.77 446.238 501.77 444.858 502.189 443.682 503.026 442.712ZM378.429 442.712 379.467 442.712 380.5 446.886C380.543 447.061 380.569 447.243 380.58 447.434L380.6 447.434C380.61 447.3 380.647 447.117 380.711 446.886L381.879 442.712 382.853 442.712 383.934 446.918C383.971 447.061 383.999 447.231 384.018 447.427L384.033 447.427C384.041 447.294 384.072 447.119 384.125 446.902L385.139 442.712 386.116 442.712 384.554 448.413 383.485 448.413 382.4 444.425C382.355 444.256 382.327 444.07 382.316 443.869L382.301 443.869C382.288 444.058 382.256 444.24 382.205 444.418L381.116 448.413 380.023 448.413ZM330.964 442.712 332.029 442.712 334.148 448.413 333.11 448.413 332.597 446.961 330.356 446.961 329.863 448.413 328.829 448.413ZM540.721 442.617C541.318 442.617 541.752 442.685 542.025 442.82L542.025 443.754C541.702 443.521 541.286 443.404 540.777 443.404 540.637 443.404 540.497 443.418 540.358 443.444 540.219 443.47 540.094 443.514 539.984 443.575 539.874 443.636 539.785 443.714 539.716 443.81 539.647 443.905 539.613 444.02 539.613 444.155 539.613 444.283 539.639 444.393 539.692 444.485 539.745 444.578 539.822 444.663 539.925 444.74 540.027 444.816 540.151 444.892 540.298 444.964 540.445 445.037 540.616 445.116 540.809 445.201 541.008 445.304 541.195 445.413 541.371 445.527 541.547 445.64 541.703 445.766 541.837 445.904 541.971 446.042 542.076 446.195 542.154 446.363 542.233 446.531 542.272 446.723 542.272 446.938 542.272 447.226 542.213 447.471 542.097 447.669 541.98 447.868 541.823 448.029 541.626 448.154 541.428 448.279 541.201 448.368 540.944 448.424 540.688 448.48 540.416 448.507 540.13 448.507 540.034 448.507 539.916 448.501 539.777 448.486 539.639 448.471 539.496 448.45 539.35 448.422 539.204 448.394 539.067 448.361 538.937 448.321 538.807 448.281 538.703 448.236 538.623 448.185L538.623 447.212C538.71 447.291 538.815 447.363 538.935 447.427 539.056 447.49 539.184 447.544 539.318 447.587 539.454 447.631 539.589 447.665 539.724 447.689 539.859 447.712 539.984 447.724 540.098 447.724 540.495 447.724 540.791 447.658 540.986 447.526 541.18 447.394 541.278 447.201 541.278 446.95 541.278 446.814 541.245 446.697 541.18 446.598 541.116 446.498 541.025 446.408 540.909 446.326 540.792 446.244 540.655 446.164 540.497 446.089 540.34 446.013 540.17 445.935 539.99 445.853 539.797 445.749 539.617 445.644 539.449 445.538 539.283 445.433 539.138 445.316 539.014 445.187 538.891 445.058 538.795 444.913 538.724 444.752 538.654 444.59 538.619 444.4 538.619 444.183 538.619 443.916 538.679 443.683 538.8 443.486 538.92 443.288 539.079 443.125 539.277 442.996 539.475 442.868 539.699 442.773 539.95 442.711 540.202 442.649 540.46 442.617 540.721 442.617ZM506.681 442.617C507.278 442.617 507.712 442.685 507.985 442.82L507.985 443.754C507.662 443.521 507.246 443.404 506.737 443.404 506.597 443.404 506.457 443.418 506.318 443.444 506.179 443.47 506.054 443.514 505.944 443.575 505.834 443.636 505.745 443.714 505.676 443.81 505.607 443.905 505.573 444.02 505.573 444.155 505.573 444.283 505.599 444.393 505.652 444.485 505.705 444.578 505.782 444.663 505.885 444.74 505.987 444.816 506.111 444.892 506.258 444.964 506.405 445.037 506.576 445.116 506.769 445.201 506.968 445.304 507.155 445.413 507.331 445.527 507.507 445.64 507.663 445.766 507.797 445.904 507.931 446.042 508.036 446.195 508.114 446.363 508.193 446.531 508.232 446.723 508.232 446.938 508.232 447.226 508.173 447.471 508.056 447.669 507.94 447.868 507.783 448.029 507.586 448.154 507.388 448.279 507.161 448.368 506.904 448.424 506.647 448.48 506.376 448.507 506.09 448.507 505.994 448.507 505.877 448.501 505.738 448.486 505.599 448.471 505.456 448.45 505.31 448.422 505.164 448.394 505.027 448.361 504.897 448.321 504.767 448.281 504.663 448.236 504.583 448.185L504.583 447.212C504.67 447.291 504.775 447.363 504.895 447.427 505.016 447.49 505.144 447.544 505.278 447.587 505.414 447.631 505.549 447.665 505.684 447.689 505.819 447.712 505.944 447.724 506.058 447.724 506.455 447.724 506.751 447.658 506.946 447.526 507.141 447.394 507.238 447.201 507.238 446.95 507.238 446.814 507.205 446.697 507.141 446.598 507.076 446.498 506.985 446.408 506.869 446.326 506.752 446.244 506.615 446.164 506.457 446.089 506.3 446.013 506.13 445.935 505.95 445.853 505.757 445.749 505.577 445.644 505.409 445.538 505.243 445.433 505.098 445.316 504.974 445.187 504.852 445.058 504.755 444.913 504.684 444.752 504.614 444.59 504.579 444.4 504.579 444.183 504.579 443.916 504.639 443.683 504.76 443.486 504.88 443.288 505.039 443.125 505.237 442.996 505.435 442.868 505.659 442.773 505.91 442.711 506.162 442.649 506.42 442.617 506.681 442.617ZM465.247 442.439C465.404 442.439 465.536 442.489 465.645 442.589 465.753 442.69 465.808 442.816 465.808 442.967 465.808 443.11 465.753 443.233 465.645 443.335 465.536 443.437 465.404 443.488 465.247 443.488 465.096 443.488 464.967 443.438 464.86 443.341 464.752 443.243 464.698 443.118 464.698 442.967 464.698 442.816 464.752 442.69 464.86 442.589 464.967 442.489 465.096 442.439 465.247 442.439ZM427.507 442.439C427.664 442.439 427.796 442.489 427.905 442.589 428.013 442.69 428.068 442.816 428.068 442.967 428.068 443.11 428.013 443.233 427.905 443.335 427.796 443.437 427.664 443.488 427.507 443.488 427.356 443.488 427.227 443.438 427.12 443.341 427.012 443.243 426.958 443.118 426.958 442.967 426.958 442.816 427.012 442.69 427.12 442.589 427.227 442.489 427.356 442.439 427.507 442.439ZM360.167 442.439C360.324 442.439 360.456 442.489 360.565 442.589 360.673 442.69 360.728 442.816 360.728 442.967 360.728 443.11 360.673 443.233 360.565 443.335 360.456 443.437 360.324 443.488 360.167 443.488 360.016 443.488 359.887 443.438 359.78 443.341 359.672 443.243 359.618 443.118 359.618 442.967 359.618 442.816 359.672 442.69 359.78 442.589 359.887 442.489 360.016 442.439 360.167 442.439ZM346.847 442.439C347.004 442.439 347.136 442.489 347.245 442.589 347.353 442.69 347.408 442.816 347.408 442.967 347.408 443.11 347.353 443.233 347.245 443.335 347.136 443.437 347.004 443.488 346.847 443.488 346.696 443.488 346.567 443.438 346.46 443.341 346.352 443.243 346.298 443.118 346.298 442.967 346.298 442.816 346.352 442.69 346.46 442.589 346.567 442.489 346.696 442.439 346.847 442.439ZM527.5 442.387 528.423 442.387 528.423 448.413 527.5 448.413 527.5 447.721 527.484 447.721C527.188 448.245 526.73 448.507 526.113 448.507 525.612 448.507 525.212 448.325 524.911 447.961 524.61 447.597 524.46 447.101 524.46 446.472 524.46 445.8 524.626 445.26 524.959 444.855 525.291 444.45 525.734 444.247 526.288 444.247 526.836 444.247 527.235 444.467 527.484 444.906L527.5 444.906ZM390.782 442.387 391.704 442.387 391.704 445.057 391.72 445.057C392.036 444.517 392.497 444.247 393.103 444.247 393.617 444.247 394.019 444.429 394.31 444.793 394.6 445.157 394.745 445.646 394.745 446.258 394.745 446.939 394.582 447.484 394.256 447.894 393.93 448.303 393.484 448.507 392.921 448.507 392.391 448.507 391.99 448.279 391.72 447.824L391.704 447.824 391.704 448.413 390.782 448.413ZM344.162 442.387 345.088 442.387 345.088 448.413 344.162 448.413Z" fill="url(#fill6)" fill-rule="evenodd"/><path d="M0 0 16.9774 0 16.9774 19.6869 33.9548 19.6869" stroke="#269AED" stroke-width="0.4625" stroke-linejoin="round" stroke-miterlimit="10" fill="none" fill-rule="evenodd" transform="matrix(1 0 0 -1 203.67 420.297)"/><text fill="#333333" font-family="Segoe UI Semibold,Segoe UI Semibold_MSFontService,sans-serif" font-weight="600" font-size="15" transform="matrix(0.74 0 0 0.74 134.703 260)">Various<tspan font-size="15" x="55.2083" y="0">identities in Azure AD</tspan></text><path d="M0 0 32.9648 0 32.9648 66.5847" stroke="#FFB800" stroke-width="0.4625" stroke-linejoin="round" stroke-miterlimit="10" fill="none" fill-rule="evenodd" transform="matrix(1.83697e-16 1 1 -1.83697e-16 171.11 342.89)"/><path d="M171.11 405.911 171.11 377.67 236.979 377.67" stroke="#269AED" stroke-width="0.4625" stroke-linejoin="round" stroke-miterlimit="10" fill="none" fill-rule="evenodd"/><text font-family="Calibri,Calibri_MSFontService,sans-serif" font-weight="400" font-size="15" transform="matrix(0.74 0 0 0.74 212.199 284)">CA Protection focuses on human identities</text><path d="M127.45 305.767C127.45 299.704 132.364 294.79 138.427 294.79L421.353 294.79C427.416 294.79 432.33 299.704 432.33 305.767L432.33 349.673C432.33 355.736 427.416 360.65 421.353 360.65L138.427 360.65C132.364 360.65 127.45 355.736 127.45 349.673Z" stroke="#4472C4" stroke-width="0.616666" stroke-miterlimit="8" fill="#B4C7E7" fill-rule="evenodd" fill-opacity="0.168627"/></g></svg>