<svg width="643" height="361" xmlns="http://www.w3.org/2000/svg" xmlns:xlink="http://www.w3.org/1999/xlink" overflow="hidden"><defs><clipPath id="clip0"><rect x="0" y="0" width="643" height="361"/></clipPath><linearGradient x1="83.332" y1="27.2708" x2="83.332" y2="46.151" gradientUnits="userSpaceOnUse" spreadMethod="reflect" id="fill1"><stop offset="0" stop-color="#505050"/><stop offset="0.02917" stop-color="#505050"/><stop offset="0.3" stop-color="#505050"/><stop offset="1" stop-color="#505050"/></linearGradient><linearGradient x1="84.8586" y1="221.426" x2="84.8586" y2="240.306" gradientUnits="userSpaceOnUse" spreadMethod="reflect" id="fill2"><stop offset="0" stop-color="#505050"/><stop offset="0.02917" stop-color="#505050"/><stop offset="0.3" stop-color="#505050"/><stop offset="1" stop-color="#505050"/></linearGradient><linearGradient x1="84.8586" y1="221.426" x2="84.8586" y2="240.306" gradientUnits="userSpaceOnUse" spreadMethod="reflect" id="fill3"><stop offset="0" stop-color="#505050"/><stop offset="0.02917" stop-color="#505050"/><stop offset="0.3" stop-color="#505050"/><stop offset="1" stop-color="#505050"/></linearGradient></defs><g clip-path="url(#clip0)"><path d="M0 0 641.778 0 641.778 361.051 0 361.051Z" fill="#F2F2F2" transform="scale(1.0019 1)"/><path d="M236.077 21.6316 355.444 21.6316 356.536 23.1764C371.17 46.3339 379.483 72.8717 379.483 101.078 379.483 129.285 371.17 155.824 356.536 178.981L355.444 180.526 236.077 180.526 236.077 170.159 138.816 170.159 138.816 164.039 173.234 164.039 174.304 162.747C188.653 143.359 196.802 121.142 196.802 97.5274 196.802 73.9133 188.653 51.6961 174.304 32.3089L173.234 31.0157 138.816 31.0157 138.816 30.4721 236.077 30.4721Z" stroke="#FFFFFF" stroke-width="0.983068" stroke-linecap="round" stroke-linejoin="round" stroke-miterlimit="10" stroke-dasharray="0 1.96613" fill="#005AA1" fill-rule="evenodd" transform="scale(1.0019 1)"/><path d="M126.232 25.5646 191.697 25.5646 192.297 26.857C200.322 46.2314 204.881 68.4339 204.881 92.033 204.881 115.632 200.322 137.834 192.297 157.208L191.697 158.501 126.232 158.501Z" stroke="#FFFFFF" stroke-width="0.983068" stroke-linejoin="round" stroke-miterlimit="10" stroke-dasharray="0.983068 0.983068" fill="#0078D7" fill-rule="evenodd" transform="scale(1.0019 1)"/><path d="M57.8072 20.845 93.4502 20.845 96.3894 22.9155C116.285 39.8995 128.591 63.3628 128.591 89.2795 128.591 115.197 116.285 138.659 96.3894 155.644L93.4502 157.714 57.8072 157.714Z" stroke="#7F7F7F" stroke-width="0.983068" stroke-linecap="round" stroke-linejoin="round" stroke-miterlimit="10" stroke-dasharray="0 1.96613" fill="#E1E1E1" fill-rule="evenodd" transform="scale(1.0019 1)"/><text font-family="Segoe UI,Segoe UI_MSFontService,sans-serif" font-weight="400" font-size="10" transform="matrix(0.78799 0 0 0.786602 80.3979 90)">Ring <tspan font-size="10" x="22.603" y="0">0</tspan></text><path d="M364.689 27.4702C381.573 41.7042 389.205 79.3311 381.738 111.513 378.293 126.363 372.002 138.145 364.152 144.452" stroke="#FFFFFF" stroke-width="1.31075" stroke-linecap="round" stroke-linejoin="round" stroke-miterlimit="10" stroke-dasharray="0 2.6215" fill="none" fill-rule="evenodd" transform="scale(1.0019 1)"/><path d="M325.572 24.3706C376.416 29.8167 411.136 62.2358 403.12 96.781 396.785 124.079 365.128 145.433 324.905 149.538" stroke="#FFFFFF" stroke-width="1.31075" stroke-linecap="round" stroke-linejoin="round" stroke-miterlimit="10" stroke-dasharray="0 2.6215" fill="none" fill-rule="evenodd" transform="scale(1.0019 1)"/><path d="M439.307 17.2394C460.588 22.7889 475.352 58.4845 472.283 96.9682 469.98 125.855 458.059 149.176 442.315 155.596" stroke="#FFFFFF" stroke-width="1.31075" stroke-linecap="round" stroke-linejoin="round" stroke-miterlimit="10" stroke-dasharray="0 2.6215" fill="none" fill-rule="evenodd" transform="scale(1.0019 1)"/><path d="M487.755 11.3219C507.236 18.4574 520.33 58.0881 517.001 99.8397 514.645 129.38 504.476 153.275 490.967 161.013" stroke="#FFFFFF" stroke-width="1.31075" stroke-linecap="round" stroke-linejoin="round" stroke-miterlimit="10" stroke-dasharray="0 2.6215" fill="none" fill-rule="evenodd" transform="scale(1.0019 1)"/><path d="M534.146 11.4782C552.305 19.1016 564.332 59.0579 561.01 100.723 558.723 129.406 549.543 152.632 537.325 160.654" stroke="#FFFFFF" stroke-width="1.31075" stroke-linecap="round" stroke-linejoin="round" stroke-miterlimit="10" stroke-dasharray="0 2.6215" fill="none" fill-rule="evenodd" transform="scale(1.0019 1)"/><path d="M431.784 74.7274 492.344 74.7274 492.344 96.7523 431.784 96.7523Z" fill="#005AA1" transform="scale(1.0019 1)"/><text fill="#FFFFFF" font-family="Segoe UI Semibold,Segoe UI Semibold_MSFontService,sans-serif" font-weight="600" font-size="12" transform="matrix(0.78799 0 0 0.786602 450.563 83)">Broad <tspan font-size="12" x="-16.72" y="13.9842">Deployment</tspan></text><path d="M27.7588 81.9651 609.753 171.654 605.601 198.598 35.3436 165.794Z" fill="#F2F2F2" fill-rule="evenodd" transform="scale(1.0019 1)"/><path d="M0 0 588.97 0 588.97 27.2627 20.2644 81.6997Z" fill="#F2F2F2" fill-rule="evenodd" transform="matrix(0.990038 -0.152282 -0.15255 -0.988296 27.8117 90.2594)"/><text fill="#505050" font-family="Segoe UI,Segoe UI_MSFontService,sans-serif" font-weight="700" font-size="10" transform="matrix(0.78799 0 0 0.786602 56.3304 123)">Time</text><path d="M286.937 134.245C286.461 137.252 286.075 139.69 286.075 139.69L169.85 121.279C169.85 121.279 169.464 123.716 168.988 126.723 169.464 123.716 169.85 121.279 169.85 121.279L53.625 102.868C53.625 102.868 54.0111 100.43 54.4872 97.4228" stroke="#969696" stroke-width="0.163867" stroke-linejoin="round" stroke-miterlimit="10" fill="none" fill-rule="evenodd" transform="scale(1.0019 1)"/><text font-family="Segoe UI,Segoe UI_MSFontService,sans-serif" font-weight="400" font-size="13" transform="matrix(0.78799 0 0 0.786602 147.747 140)">~<tspan font-size="13" x="9.00001" y="0">x weeks</tspan></text><path d="M581.977 163.857C581.404 167.473 580.94 170.403 580.94 170.403L436.257 147.484C436.257 147.484 435.793 150.415 435.22 154.03 435.793 150.415 436.257 147.484 436.257 147.484L291.573 124.565C291.573 124.565 292.037 121.634 292.61 118.019" stroke="#969696" stroke-width="0.163867" stroke-linejoin="round" stroke-miterlimit="10" fill="none" fill-rule="evenodd" transform="scale(1.0019 1)"/><text fill="#505050" font-family="Segoe UI Semibold,Segoe UI Semibold_MSFontService,sans-serif" font-weight="600" font-size="13" transform="matrix(0.78799 0 0 0.786602 408.114 164)">~ <tspan font-size="13" x="13" y="0">xxx weeks</tspan></text><path d="M0.166543-1.13492 521.487 75.3663 521.154 77.6361-0.166543 1.13492ZM520.687 72.9301 526.997 77.3341 519.688 79.7395Z" fill="#969696" transform="matrix(1.00176 0 0 -1 50.0374 85.5932)"/><path d="M50.115 85.7859 576.865 166.062 576.519 168.331 49.7695 88.0541ZM576.072 163.621 582.357 168.06 575.035 170.425Z" fill="#969696" transform="scale(1.0019 1)"/><text fill="#FFFFFF" font-family="Segoe UI,Segoe UI_MSFontService,sans-serif" font-weight="400" font-size="10" transform="matrix(0.78799 0 0 0.786602 155.884 89)">R<tspan font-size="10" x="5.93721" y="0">ing </tspan><tspan font-size="10" x="22.603" y="0">1</tspan><tspan font-size="10" x="147.069" y="-2.54258">Ring </tspan><tspan font-size="10" x="170.069" y="-2.54258">2</tspan><tspan fill="#000000" font-size="13" x="150.048" y="78.82">~</tspan><tspan fill="#000000" font-size="13" x="159.048" y="78.82">xx weeks</tspan></text><path d="M238.905 215.136 357.882 215.136 358.97 216.673C373.556 239.717 381.842 266.123 381.842 294.19 381.842 322.257 373.556 348.664 358.97 371.707L357.882 373.243 238.905 373.243 238.905 362.928 141.962 362.928 141.962 356.839 176.267 356.839 177.334 355.552C191.635 336.261 199.759 314.154 199.759 290.656 199.759 267.159 191.635 245.052 177.334 225.761L176.267 224.474 141.962 224.474 141.962 223.933 238.905 223.933Z" stroke="#FFFFFF" stroke-width="0.983068" stroke-linecap="round" stroke-linejoin="round" stroke-miterlimit="10" stroke-dasharray="0 1.96613" fill="#005AA1" fill-rule="evenodd" transform="scale(1.0019 1)"/><path d="M129.378 219.07 194.189 219.07 194.782 220.354C202.727 239.614 207.241 261.685 207.241 285.144 207.241 308.603 202.727 330.674 194.782 349.934L194.189 351.218 129.378 351.218Z" stroke="#FFFFFF" stroke-width="0.983068" stroke-linejoin="round" stroke-miterlimit="10" stroke-dasharray="0.983068 0.983068" fill="#0078D7" fill-rule="evenodd" transform="scale(1.0019 1)"/><path d="M60.1667 213.563 96.2053 213.563 99.1775 215.645C119.295 232.727 131.737 256.325 131.737 282.391 131.737 308.457 119.295 332.055 99.1775 349.137L96.2053 351.218 60.1667 351.218Z" stroke="#7F7F7F" stroke-width="0.983068" stroke-linecap="round" stroke-linejoin="round" stroke-miterlimit="10" stroke-dasharray="0 1.96613" fill="#E1E1E1" fill-rule="evenodd" transform="scale(1.0019 1)"/><text font-family="Segoe UI,Segoe UI_MSFontService,sans-serif" font-weight="400" font-size="10" transform="matrix(0.78799 0 0 0.786602 83.1889 283)">Ring <tspan font-size="10" x="22.603" y="0">0</tspan></text><path d="M367.416 221.089C384.068 235.464 391.525 273.154 384.073 305.273 380.673 319.921 374.534 331.555 366.881 337.851" stroke="#FFFFFF" stroke-width="1.31075" stroke-linecap="round" stroke-linejoin="round" stroke-miterlimit="10" stroke-dasharray="0 2.6215" fill="none" fill-rule="evenodd" transform="scale(1.0019 1)"/><path d="M328.019 217.103C378.856 222.616 413.53 255.259 405.466 290.014 399.103 317.433 367.502 338.88 327.348 343.03" stroke="#FFFFFF" stroke-width="1.31075" stroke-linecap="round" stroke-linejoin="round" stroke-miterlimit="10" stroke-dasharray="0 2.6215" fill="none" fill-rule="evenodd" transform="scale(1.0019 1)"/><path d="M442.484 209.969C463.762 215.581 478.511 251.497 475.425 290.19 473.113 319.184 461.219 342.593 445.507 349.072" stroke="#FFFFFF" stroke-width="1.31075" stroke-linecap="round" stroke-linejoin="round" stroke-miterlimit="10" stroke-dasharray="0 2.6215" fill="none" fill-rule="evenodd" transform="scale(1.0019 1)"/><path d="M490.085 204.81C509.568 211.873 522.678 251.277 519.365 292.821 517.016 322.272 506.823 346.092 493.282 353.769" stroke="#FFFFFF" stroke-width="1.31075" stroke-linecap="round" stroke-linejoin="round" stroke-miterlimit="10" stroke-dasharray="0 2.6215" fill="none" fill-rule="evenodd" transform="scale(1.0019 1)"/><path d="M536.866 204.993C554.807 212.627 566.673 252.411 563.368 293.852 561.1 322.303 552.061 345.342 540.026 353.351" stroke="#FFFFFF" stroke-width="1.31075" stroke-linecap="round" stroke-linejoin="round" stroke-miterlimit="10" stroke-dasharray="0 2.6215" fill="none" fill-rule="evenodd" transform="scale(1.0019 1)"/><path d="M434.144 267.445 495.49 267.445 495.49 289.47 434.144 289.47Z" fill="#005AA1" transform="scale(1.0019 1)"/><text fill="#FFFFFF" font-family="Segoe UI Semibold,Segoe UI Semibold_MSFontService,sans-serif" font-weight="600" font-size="12" transform="matrix(0.78799 0 0 0.786602 453.353 277)">Broad <tspan font-size="12" x="-16.72" y="12.7129">Deployment</tspan></text><path d="M30.5442 275.028 612.538 364.717 608.387 391.661 38.1291 358.857Z" fill="#F2F2F2" fill-rule="evenodd" transform="scale(1.0019 1)"/><path d="M0 0 588.97 0 588.97 27.2627 20.2644 81.6997Z" fill="#F2F2F2" fill-rule="evenodd" transform="matrix(0.990038 -0.152282 -0.15255 -0.988296 30.6025 283.322)"/><text fill="#505050" font-family="Segoe UI,Segoe UI_MSFontService,sans-serif" font-weight="700" font-size="10" transform="matrix(0.78799 0 0 0.786602 59.1213 316)">Time</text><path d="M289.723 327.307C289.247 330.314 288.861 332.752 288.861 332.752L172.636 314.341C172.636 314.341 172.25 316.779 171.773 319.785 172.25 316.779 172.636 314.341 172.636 314.341L56.4105 295.93C56.4105 295.93 56.7965 293.492 57.2728 290.485" stroke="#969696" stroke-width="0.163867" stroke-linejoin="round" stroke-miterlimit="10" fill="none" fill-rule="evenodd" transform="scale(1.0019 1)"/><text font-family="Segoe UI,Segoe UI_MSFontService,sans-serif" font-weight="400" font-size="13" transform="matrix(0.78799 0 0 0.786602 150.537 333)">~<tspan font-size="13" x="8.99999" y="0">x weeks</tspan></text><path d="M584.763 356.92C584.19 360.535 583.726 363.466 583.726 363.466L439.042 340.546C439.042 340.546 438.578 343.477 438.005 347.092 438.578 343.477 439.042 340.546 439.042 340.546L294.359 317.628C294.359 317.628 294.823 314.697 295.396 311.082" stroke="#969696" stroke-width="0.163867" stroke-linejoin="round" stroke-miterlimit="10" fill="none" fill-rule="evenodd" transform="scale(1.0019 1)"/><text fill="#505050" font-family="Segoe UI Semibold,Segoe UI Semibold_MSFontService,sans-serif" font-weight="600" font-size="13" transform="matrix(0.78799 0 0 0.786602 410.905 357)">~ <tspan font-size="13" x="13" y="0">xxx weeks</tspan></text><path d="M0.166543-1.13492 521.487 75.3663 521.154 77.6361-0.166543 1.13492ZM520.687 72.9301 526.997 77.3341 519.688 79.7395Z" fill="#969696" transform="matrix(1.00176 0 0 -1 53.1893 279.098)"/><path d="M53.261 278.504 580.011 358.781 579.665 361.049 52.9155 280.771ZM579.218 356.339 585.503 360.777 578.181 363.143Z" fill="#969696" transform="scale(1.0019 1)"/><text fill="#FFFFFF" font-family="Segoe UI,Segoe UI_MSFontService,sans-serif" font-weight="400" font-size="10" transform="matrix(0.78799 0 0 0.786602 158.675 282)">R<tspan font-size="10" x="5.93721" y="0">ing </tspan><tspan font-size="10" x="22.603" y="0">1</tspan><tspan font-size="10" x="147.069" y="-2.54258">Ring </tspan>2<tspan fill="#000000" font-size="13" x="150.048" y="78.82">~</tspan><tspan fill="#000000" font-size="13" x="159.048" y="78.82">xx weeks</tspan></text><path d="M102.283 38.5531 100.386 38.8143C99.8027 38.8963 99.3623 39.041 99.065 39.2484 98.7685 39.4558 98.6199 39.8233 98.6199 40.3507 98.6199 40.7348 98.7567 41.0485 99.0304 41.2917 99.3049 41.535 99.6698 41.6566 100.125 41.6566 100.75 41.6566 101.266 41.4377 101.673 40.9998 102.08 40.5619 102.283 40.0076 102.283 39.3367ZM82.4165 35.542C81.608 35.542 80.9678 35.8173 80.4967 36.3677 80.0256 36.9183 79.7904 37.6775 79.7904 38.6453 79.7904 39.5774 80.028 40.3123 80.5046 40.85 80.9804 41.3877 81.6182 41.6566 82.4165 41.6566 83.2313 41.6566 83.8566 41.3929 84.2947 40.8654 84.7327 40.3379 84.9514 39.5876 84.9514 38.6147 84.9514 37.6314 84.7327 36.8734 84.2947 36.3408 83.8566 35.8083 83.2313 35.542 82.4165 35.542ZM62.4396 35.542C61.8457 35.542 61.3413 35.7545 60.9266 36.1795 60.5119 36.6046 60.2558 37.1603 60.1585 37.8465L64.4059 37.8465C64.4007 37.1193 64.2254 36.5534 63.8798 36.1488 63.5341 35.7443 63.0541 35.542 62.4396 35.542ZM70.5888 34.528C70.9164 34.528 71.1673 34.5638 71.3415 34.6355L71.3415 35.9414C71.1212 35.7724 70.8038 35.688 70.389 35.688 69.8514 35.688 69.4021 35.9414 69.0411 36.4484 68.6801 36.9554 68.4996 37.6467 68.4996 38.5225L68.4996 42.5323 67.24 42.5323 67.24 34.6662 68.4996 34.6662 68.4996 36.2871 68.5304 36.2871C68.7095 35.734 68.9835 35.3026 69.3522 34.9927 69.7208 34.6829 70.133 34.528 70.5888 34.528ZM100.77 34.4819C102.619 34.4819 103.543 35.46 103.543 37.4163L103.543 42.5323 102.283 42.5323 102.283 41.3032 102.253 41.3032C101.704 42.2455 100.898 42.7167 99.8334 42.7167 99.0501 42.7167 98.4366 42.5093 97.9938 42.0944 97.551 41.6796 97.3292 41.1291 97.3292 40.4429 97.3292 38.9731 98.1951 38.1179 99.9254 37.8772L102.283 37.5469C102.283 36.2103 101.743 35.542 100.663 35.542 99.7154 35.542 98.8605 35.8646 98.0976 36.5098L98.0976 35.2194C98.8707 34.7277 99.7618 34.4819 100.77 34.4819ZM92.346 34.4819C93.2064 34.4819 93.8647 34.7597 94.3201 35.3154 94.7763 35.871 95.0036 36.6737 95.0036 37.7236L95.0036 42.5323 93.7444 42.5323 93.7444 38.0462C93.7444 36.3767 93.1348 35.542 91.9166 35.542 91.2866 35.542 90.7652 35.7788 90.353 36.2525 89.9409 36.7262 89.7348 37.3241 89.7348 38.0462L89.7348 42.5323 88.4757 42.5323 88.4757 34.6662 89.7348 34.6662 89.7348 35.9721 89.7655 35.9721C90.3593 34.9786 91.2197 34.4819 92.346 34.4819ZM82.5093 34.4819C83.6812 34.4819 84.5967 34.8429 85.255 35.565 85.9125 36.2871 86.242 37.2882 86.242 38.5686 86.242 39.8233 85.8873 40.8282 85.1779 41.5836 84.4685 42.3389 83.5176 42.7167 82.3245 42.7167 81.1621 42.7167 80.234 42.3492 79.5403 41.6143 78.8466 40.8794 78.4997 39.9051 78.4997 38.6915 78.4997 37.3702 78.8608 36.3383 79.5828 35.5957 80.3048 34.8532 81.2801 34.4819 82.5093 34.4819ZM75.2954 34.4819C75.9764 34.4819 76.5857 34.5997 77.1234 34.8352L77.1234 36.1104C76.5448 35.7314 75.8791 35.542 75.1265 35.542 74.8909 35.542 74.6784 35.5689 74.4889 35.6226 74.2995 35.6764 74.1369 35.7519 74.0012 35.8493 73.8656 35.9466 73.7606 36.063 73.6863 36.1988 73.6121 36.3345 73.5749 36.4843 73.5749 36.6481 73.5749 36.853 73.6121 37.0245 73.6863 37.1628 73.7606 37.3011 73.8694 37.424 74.0128 37.5315 74.1562 37.6391 74.3302 37.7364 74.535 37.8234 74.7398 37.9105 74.9729 38.0052 75.234 38.1077 75.5822 38.2408 75.8945 38.3778 76.171 38.5186 76.4475 38.6595 76.683 38.8182 76.8776 38.9948 77.0722 39.1716 77.222 39.3751 77.3269 39.6056 77.4319 39.836 77.4844 40.11 77.4844 40.4275 77.4844 40.8168 77.3986 41.1547 77.2271 41.4415 77.0556 41.7283 76.8264 41.9664 76.5396 42.1559 76.253 42.3454 75.9226 42.4862 75.5489 42.5784 75.1751 42.6706 74.7834 42.7167 74.3738 42.7167 73.5647 42.7167 72.8633 42.5605 72.2693 42.2481L72.2693 40.8961C72.9554 41.4031 73.7106 41.6566 74.535 41.6566 75.6411 41.6566 76.194 41.2879 76.194 40.5504 76.194 40.3405 76.1467 40.1625 76.0519 40.0166 75.9572 39.8706 75.8292 39.7413 75.668 39.6286 75.5067 39.516 75.3172 39.4148 75.0996 39.3252 74.8819 39.2356 74.6477 39.1421 74.3968 39.0448 74.0486 38.9065 73.7426 38.767 73.479 38.6261 73.2153 38.4854 72.9951 38.3266 72.8184 38.1499 72.6418 37.9732 72.5086 37.7722 72.419 37.5469 72.3295 37.3216 72.2846 37.0578 72.2846 36.7557 72.2846 36.3869 72.3691 36.0605 72.5381 35.7763 72.7071 35.492 72.9324 35.2539 73.2139 35.0618 73.4956 34.8698 73.8169 34.7251 74.1779 34.6278 74.5389 34.5306 74.9113 34.4819 75.2954 34.4819ZM62.4627 34.4819C63.4919 34.4819 64.2881 34.8148 64.8513 35.4805 65.4146 36.1462 65.6962 37.0706 65.6962 38.2536L65.6962 38.9142 60.1432 38.9142C60.1636 39.7899 60.3992 40.4659 60.8497 40.9422 61.3004 41.4184 61.9199 41.6566 62.7084 41.6566 63.5943 41.6566 64.4085 41.3647 65.1509 40.7809L65.1509 41.9639C64.4597 42.4657 63.5457 42.7167 62.409 42.7167 61.2978 42.7167 60.4248 42.3595 59.7899 41.6451 59.1549 40.9306 58.8374 39.9257 58.8374 38.63 58.8374 37.406 59.1843 36.4087 59.8782 35.638 60.572 34.8672 61.4335 34.4819 62.4627 34.4819ZM52.183 32.6843 52.183 37.2012 53.5348 37.2012C54.4257 37.2012 55.1054 36.9976 55.5739 36.5905 56.0425 36.1834 56.2768 35.6085 56.2768 34.866 56.2768 33.4116 55.4165 32.6843 53.696 32.6843ZM50.8927 31.5168 53.9188 31.5168C55.0965 31.5168 56.0092 31.8035 56.6569 32.3771 57.3046 32.9506 57.6285 33.7598 57.6285 34.8045 57.6285 35.8493 57.2688 36.7044 56.5494 37.3702 55.83 38.0359 54.8584 38.3688 53.6346 38.3688L52.183 38.3688 52.183 42.5323 50.8927 42.5323ZM113.52 31.2709 113.997 31.2709 113.997 42.5323 112.737 42.5323 112.737 33.0147C112.639 33.112 112.498 33.2234 112.31 33.3489 112.124 33.4743 111.914 33.5985 111.68 33.7214 111.448 33.8443 111.202 33.9596 110.943 34.0671 110.685 34.1747 110.432 34.2591 110.187 34.3206L110.187 33.0454C110.464 32.9686 110.756 32.8649 111.066 32.7343 111.376 32.6037 111.68 32.4578 111.98 32.2964 112.28 32.1351 112.563 31.9661 112.829 31.7895 113.095 31.6127 113.326 31.44 113.52 31.2709Z" fill="url(#fill1)" fill-rule="evenodd" transform="scale(1.0019 1)"/><path d="M103.811 232.708 101.914 232.969C101.329 233.051 100.89 233.196 100.592 233.403 100.295 233.61 100.147 233.978 100.147 234.505 100.147 234.89 100.284 235.203 100.558 235.447 100.831 235.69 101.196 235.812 101.653 235.812 102.277 235.812 102.793 235.592 103.2 235.155 103.607 234.717 103.811 234.162 103.811 233.492ZM83.9439 229.697C83.1346 229.697 82.4952 229.972 82.0241 230.522 81.553 231.073 81.317 231.832 81.317 232.8 81.317 233.732 81.5553 234.467 82.0312 235.005 82.5078 235.543 83.1448 235.812 83.9439 235.812 84.7579 235.812 85.384 235.547 85.822 235.02 86.2593 234.493 86.4788 233.742 86.4788 232.77 86.4788 231.786 86.2593 231.028 85.822 230.496 85.384 229.963 84.7579 229.697 83.9439 229.697ZM63.9667 229.697C63.3727 229.697 62.8683 229.909 62.4536 230.335 62.0388 230.759 61.7828 231.315 61.6855 232.001L65.9329 232.001C65.9278 231.274 65.7524 230.708 65.4067 230.304 65.0612 229.899 64.5811 229.697 63.9667 229.697ZM72.1158 228.683C72.4435 228.683 72.6944 228.718 72.8684 228.791L72.8684 230.096C72.6483 229.927 72.3309 229.843 71.9161 229.843 71.3784 229.843 70.9291 230.096 70.5681 230.603 70.2072 231.11 70.0267 231.801 70.0267 232.677L70.0267 236.687 68.767 236.687 68.767 228.821 70.0267 228.821 70.0267 230.441 70.0574 230.441C70.2366 229.889 70.5105 229.458 70.8792 229.148 71.2479 228.838 71.6601 228.683 72.1158 228.683ZM102.297 228.636C104.146 228.636 105.07 229.615 105.07 231.571L105.07 236.687 103.811 236.687 103.811 235.458 103.78 235.458C103.232 236.4 102.426 236.871 101.361 236.871 100.577 236.871 99.964 236.664 99.5212 236.249 99.0784 235.834 98.8566 235.284 98.8566 234.597 98.8566 233.128 99.7217 232.272 101.453 232.032L103.811 231.701C103.811 230.365 103.27 229.697 102.19 229.697 101.243 229.697 100.388 230.019 99.6242 230.665L99.6242 229.374C100.398 228.883 101.288 228.636 102.297 228.636ZM93.8734 228.636C94.7338 228.636 95.3913 228.914 95.8475 229.47 96.3028 230.025 96.5309 230.828 96.5309 231.878L96.5309 236.687 95.271 236.687 95.271 232.201C95.271 230.531 94.6622 229.697 93.4432 229.697 92.8132 229.697 92.2925 229.933 91.8804 230.408 91.4683 230.881 91.2622 231.479 91.2622 232.201L91.2622 236.687 90.0023 236.687 90.0023 228.821 91.2622 228.821 91.2622 230.127 91.2929 230.127C91.8867 229.134 92.7471 228.636 93.8734 228.636ZM84.0359 228.636C85.2086 228.636 86.1241 228.997 86.7816 229.719 87.4399 230.441 87.7686 231.443 87.7686 232.723 87.7686 233.978 87.4139 234.983 86.7053 235.739 85.9959 236.494 85.045 236.871 83.8519 236.871 82.6894 236.871 81.7614 236.504 81.0677 235.769 80.374 235.035 80.0272 234.06 80.0272 232.847 80.0272 231.525 80.3874 230.493 81.1094 229.75 81.8314 229.008 82.8074 228.636 84.0359 228.636ZM76.8224 228.636C77.5035 228.636 78.1128 228.754 78.6508 228.99L78.6508 230.265C78.0718 229.886 77.4062 229.697 76.6534 229.697 76.418 229.697 76.2054 229.723 76.016 229.778 75.8265 229.831 75.6639 229.907 75.5283 230.004 75.3926 230.101 75.2876 230.218 75.2134 230.353 75.1391 230.489 75.102 230.639 75.102 230.803 75.102 231.008 75.1391 231.179 75.2134 231.318 75.2876 231.456 75.3964 231.579 75.5398 231.686 75.6831 231.793 75.8573 231.891 76.0621 231.978 76.2669 232.066 76.4998 232.16 76.761 232.262 77.1092 232.396 77.4215 232.533 77.6981 232.674 77.9745 232.814 78.2101 232.973 78.4046 233.149 78.5992 233.326 78.7491 233.53 78.8537 233.76 78.9591 233.991 79.011 234.265 79.011 234.582 79.011 234.972 78.9253 235.31 78.7538 235.596 78.5826 235.883 78.3534 236.122 78.0667 236.31 77.7799 236.5 77.4497 236.641 77.0759 236.733 76.7021 236.825 76.3104 236.871 75.9008 236.871 75.0918 236.871 74.3903 236.715 73.7963 236.403L73.7963 235.051C74.4824 235.558 75.2377 235.812 76.0621 235.812 77.168 235.812 77.7211 235.443 77.7211 234.705 77.7211 234.495 77.6737 234.317 77.579 234.171 77.4843 234.026 77.3562 233.896 77.1949 233.783 77.0336 233.671 76.8442 233.569 76.6266 233.48 76.409 233.39 76.1747 233.297 75.9238 233.2 75.5756 233.061 75.2697 232.922 75.006 232.781 74.7423 232.64 74.5221 232.482 74.3455 232.305 74.1688 232.128 74.0357 231.927 73.9461 231.701 73.8564 231.477 73.8117 231.212 73.8117 230.91 73.8117 230.541 73.8961 230.215 74.0651 229.931 74.2341 229.647 74.4594 229.409 74.741 229.217 75.0226 229.024 75.3439 228.88 75.7049 228.783 76.0659 228.685 76.4384 228.636 76.8224 228.636ZM63.9897 228.636C65.0189 228.636 65.8152 228.969 66.3784 229.635 66.9416 230.301 67.2232 231.226 67.2232 232.408L67.2232 233.069 61.6702 233.069C61.6907 233.945 61.9262 234.621 62.3768 235.097 62.8274 235.573 63.447 235.812 64.2355 235.812 65.1213 235.812 65.9354 235.519 66.678 234.936L66.678 236.118C65.9866 236.62 65.0726 236.871 63.9359 236.871 62.8249 236.871 61.9518 236.514 61.3168 235.8 60.682 235.086 60.3645 234.081 60.3645 232.784 60.3645 231.561 60.7114 230.563 61.4052 229.793 62.099 229.022 62.9605 228.636 63.9897 228.636ZM53.71 226.839 53.71 231.356 55.0618 231.356C55.9527 231.356 56.6325 231.152 57.101 230.745 57.5695 230.338 57.8038 229.764 57.8038 229.021 57.8038 227.566 56.9435 226.839 55.2231 226.839ZM52.4196 225.671 55.4458 225.671C56.6235 225.671 57.5362 225.958 58.1839 226.532 58.8317 227.105 59.1556 227.914 59.1556 228.959 59.1556 230.004 58.7958 230.859 58.0764 231.525 57.357 232.191 56.3854 232.523 55.1617 232.523L53.71 232.523 53.71 236.687 52.4196 236.687Z" fill="url(#fill2)" fill-rule="evenodd" transform="scale(1.0019 1)"/><path d="M114.277 225.487C114.728 225.487 115.145 225.553 115.529 225.683 115.913 225.814 116.246 226.004 116.527 226.255 116.809 226.507 117.031 226.816 117.192 227.185 117.353 227.553 117.434 227.976 117.434 228.452 117.434 228.887 117.384 229.282 117.284 229.635 117.184 229.988 117.033 230.321 116.831 230.634 116.629 230.946 116.374 231.246 116.067 231.532 115.76 231.819 115.399 232.111 114.984 232.408 114.467 232.777 114.041 233.092 113.705 233.353 113.37 233.614 113.103 233.859 112.906 234.087 112.709 234.315 112.571 234.542 112.491 234.77 112.412 234.998 112.372 235.261 112.372 235.558L117.857 235.558 117.857 236.687 111.059 236.687 111.059 236.142C111.059 235.671 111.11 235.256 111.212 234.897 111.315 234.539 111.484 234.199 111.72 233.875 111.955 233.553 112.264 233.23 112.645 232.908 113.027 232.585 113.494 232.221 114.047 231.817 114.446 231.53 114.78 231.256 115.049 230.995 115.318 230.734 115.534 230.473 115.698 230.211 115.862 229.95 115.979 229.685 116.048 229.417 116.117 229.148 116.152 228.862 116.152 228.56 116.152 228.222 116.099 227.927 115.993 227.676 115.889 227.425 115.746 227.217 115.564 227.05 115.382 226.884 115.168 226.76 114.922 226.678 114.677 226.596 114.41 226.555 114.123 226.555 113.878 226.555 113.637 226.588 113.401 226.655 113.166 226.721 112.937 226.813 112.714 226.931 112.491 227.049 112.276 227.19 112.069 227.354 111.861 227.517 111.669 227.7 111.489 227.9L111.489 226.548C111.842 226.204 112.238 225.942 112.676 225.759 113.113 225.578 113.647 225.487 114.277 225.487Z" fill="url(#fill3)" fill-rule="evenodd" transform="scale(1.0019 1)"/></g></svg>