<?xml version="1.0" encoding="UTF-8" standalone="no"?>
<!DOCTYPE svg PUBLIC "-//W3C//DTD SVG 1.1//EN" "http://www.w3.org/Graphics/SVG/1.1/DTD/svg11.dtd">
<!-- Generated by Microsoft Visio, SVG Export specialized-shared-models.svg Page-1 -->
<svg xmlns="http://www.w3.org/2000/svg" xmlns:xlink="http://www.w3.org/1999/xlink" xmlns:ev="http://www.w3.org/2001/xml-events"
		xmlns:v="http://schemas.microsoft.com/visio/2003/SVGExtensions/" width="16.0553in" height="8.462in"
		viewBox="0 0 1155.98 609.264" xml:space="preserve" color-interpolation-filters="sRGB" class="st25">
	<v:documentProperties v:langID="1033" v:metric="true" v:viewMarkup="false">
		<v:userDefs>
			<v:ud v:nameU="msvSubprocessMaster" v:prompt="" v:val="VT4(Rectangle)"/>
			<v:ud v:nameU="msvNoAutoConnect" v:val="VT0(1):26"/>
			<v:ud v:nameU="msvWarnOnPersonalInfo" v:val="VT0(1):5"/>
		</v:userDefs>
	</v:documentProperties>

	<style type="text/css">
	<![CDATA[
		.st1 {fill:#ffffff;stroke:none;stroke-width:0.25}
		.st2 {fill:#ffffff;stroke:none;stroke-linecap:butt;stroke-width:0.75}
		.st3 {fill:url(#grad0-13);stroke:none;stroke-linecap:butt;stroke-width:0.75}
		.st4 {fill:#e8e8e8}
		.st5 {stroke:none;stroke-linecap:butt;stroke-width:0.75}
		.st6 {fill:#50e6ff}
		.st7 {fill:#198ab3;stroke:none;stroke-linecap:butt;stroke-width:0.75}
		.st8 {fill:#cce7fc;stroke:#accde7;stroke-width:0.25}
		.st9 {fill:#000000;font-family:Calibri;font-size:1.5em;font-weight:bold}
		.st10 {font-size:1em}
		.st11 {marker-end:url(#mrkr13-31);stroke:#000000;stroke-linecap:round;stroke-linejoin:round;stroke-width:1}
		.st12 {fill:#000000;fill-opacity:1;stroke:#000000;stroke-opacity:1;stroke-width:0.28409090909091}
		.st13 {marker-start:url(#mrkr13-58);stroke:#000000;stroke-linecap:round;stroke-linejoin:round;stroke-width:1}
		.st14 {fill:none;stroke:none;stroke-width:0.25}
		.st15 {fill:#000000;font-family:Calibri;font-size:1.5em}
		.st16 {fill:url(#grad1-76);stroke:none;stroke-linecap:butt;stroke-width:0.75}
		.st17 {fill:#0078d4;stroke:none;stroke-linecap:butt;stroke-width:0.75}
		.st18 {fill:#ffffff;fill-opacity:0.8;stroke:none;stroke-linecap:butt;stroke-width:0.75}
		.st19 {fill:url(#grad0-87);stroke:none;stroke-linecap:butt;stroke-width:0.75}
		.st20 {fill:url(#grad0-93);stroke:none;stroke-linecap:butt;stroke-width:0.75}
		.st21 {marker-end:url(#mrkr13-113);stroke:#000000;stroke-width:0.75}
		.st22 {fill:#000000;fill-opacity:1;stroke:#000000;stroke-opacity:1;stroke-width:0.22935779816514}
		.st23 {fill:#212121;stroke:none;stroke-linecap:butt;stroke-width:0.75}
		.st24 {fill:#ffe9a1;stroke:#ffc000;stroke-width:0.25}
		.st25 {fill:none;fill-rule:evenodd;font-size:12px;overflow:visible;stroke-linecap:square;stroke-miterlimit:3}
	]]>
	</style>

	<defs id="Patterns_And_Gradients">
		<linearGradient id="grad0-13" x1="0" y1="0" x2="1" y2="0" gradientTransform="rotate(0 0.5 0.5)">
			<stop offset="0" stop-color="#005ba1" stop-opacity="1"/>
			<stop offset="0.07" stop-color="#0060a9" stop-opacity="1"/>
			<stop offset="0.36" stop-color="#0071c8" stop-opacity="1"/>
			<stop offset="0.52" stop-color="#0078d4" stop-opacity="1"/>
			<stop offset="0.64" stop-color="#0074cd" stop-opacity="1"/>
			<stop offset="0.82" stop-color="#006abb" stop-opacity="1"/>
			<stop offset="1" stop-color="#005ba1" stop-opacity="1"/>
		</linearGradient>
		<radialGradient id="grad1-76" cx="1" cy="1" r="1.4">
			<stop offset="0.195" stop-color="#ffd70f" stop-opacity="1"/>
			<stop offset="0.44" stop-color="#ffcb12" stop-opacity="1"/>
			<stop offset="0.875" stop-color="#feac19" stop-opacity="1"/>
			<stop offset="1" stop-color="#fea11b" stop-opacity="1"/>
		</radialGradient>
		<linearGradient id="grad0-87" x1="0" y1="0" x2="1" y2="0" gradientTransform="rotate(90 0.5 0.5)">
			<stop offset="0.22" stop-color="#32d4f5" stop-opacity="1"/>
			<stop offset="1" stop-color="#198ab3" stop-opacity="1"/>
		</linearGradient>
		<linearGradient id="grad0-93" x1="0" y1="0" x2="1" y2="0" gradientTransform="rotate(85.401203911388 0.5 0.5)">
			<stop offset="0.22" stop-color="#32d4f5" stop-opacity="1"/>
			<stop offset="1" stop-color="#198ab3" stop-opacity="1"/>
		</linearGradient>
	</defs>
	<defs id="Markers">
		<g id="lend13">
			<path d="M 3 1 L 0 0 L 3 -1 L 3 1 " style="stroke:none"/>
		</g>
		<marker id="mrkr13-31" class="st12" v:arrowType="13" v:arrowSize="2" v:setback="10.56" refX="-10.56" orient="auto"
				markerUnits="strokeWidth" overflow="visible">
			<use xlink:href="#lend13" transform="scale(-3.52,-3.52) "/>
		</marker>
		<marker id="mrkr13-58" class="st12" v:arrowType="13" v:arrowSize="2" v:setback="10.2" refX="10.2" orient="auto"
				markerUnits="strokeWidth" overflow="visible">
			<use xlink:href="#lend13" transform="scale(3.52) "/>
		</marker>
		<marker id="mrkr13-113" class="st22" v:arrowType="13" v:arrowSize="2" v:setback="13.08" refX="-13.08" orient="auto"
				markerUnits="strokeWidth" overflow="visible">
			<use xlink:href="#lend13" transform="scale(-4.36,-4.36) "/>
		</marker>
	</defs>
	<g v:mID="4" v:index="1" v:groupContext="backgroundPage">
		<v:userDefs>
			<v:ud v:nameU="msvThemeOrder" v:val="VT0(0):26"/>
			<v:ud v:nameU="msvVisioCreated" v:prompt="" v:val="VT0(0):26"/>
		</v:userDefs>
		<title>VBackground-1</title>
		<v:pageProperties width="16.0553" height="8.462" v:drawingScale="0.0393701" v:pageScale="0.0393701" v:drawingUnits="24"
				v:shadowOffsetX="9" v:shadowOffsetY="-9"/>
		<g id="shape1-1" v:mID="1" v:groupContext="shape">
			<title>Solid</title>
			<v:userDefs>
				<v:ud v:nameU="Background" v:val="VT0(0):26"/>
				<v:ud v:nameU="visVersion" v:val="VT0(15):26"/>
				<v:ud v:nameU="msvShapeCategories" v:prompt="" v:val="VT4(DoNotContain)"/>
				<v:ud v:nameU="msvVisioCreated" v:prompt="" v:val="VT0(0):26"/>
			</v:userDefs>
			<rect x="0" y="0" width="1155.98" height="609.264" class="st1"/>
		</g>
	</g>
	<g v:mID="0" v:index="2" v:groupContext="foregroundPage">
		<v:userDefs>
			<v:ud v:nameU="msvThemeOrder" v:val="VT0(0):26"/>
			<v:ud v:nameU="visNavType" v:val="VT0(1):26"/>
		</v:userDefs>
		<title>Page-1</title>
		<v:pageProperties v:drawingScale="0.0393701" v:pageScale="0.0393701" v:drawingUnits="24" v:shadowOffsetX="9"
				v:shadowOffsetY="-9"/>
		<g id="group1-3" transform="translate(53.4331,-377.268)" v:mID="1" v:groupContext="group">
			<v:userDefs>
				<v:ud v:nameU="visNavOrder" v:prompt="" v:val="VT0(1000):26"/>
			</v:userDefs>
			<title>Icon-storage-98</title>
			<g id="group2-4" v:mID="2" v:groupContext="group">
				<title>Sheet.2</title>
				<g id="shape3-5" v:mID="3" v:groupContext="shape" transform="translate(46.99,-34.8635)">
					<title>Sheet.3</title>
					<path d="M5.13 609.26 A4.99527 4.99527 0 0 1 2.34 608.44 A5.06417 5.06417 0 0 1 -0 604.99 A5.27087 5.27087 0
								 0 1 5.13 598.55 A5.20197 5.20197 0 0 1 7.96 599.38 A5.30532 5.30532 0 0 1 10.27 602.82 A5.27087
								 5.27087 0 0 1 5.13 609.23 L5.13 609.26 Z" class="st2"/>
				</g>
				<g id="shape4-7" v:mID="4" v:groupContext="shape" transform="translate(46.9888,-2.20481)">
					<title>Sheet.4</title>
					<path d="M5.13 609.26 A4.99527 4.99527 0 0 1 2.34 608.44 A5.20197 5.20197 0 0 1 0.69 601.2 A5.23642 5.23642 0
								 0 1 7.96 599.55 A5.27087 5.27087 0 0 1 5.13 609.26 Z" class="st2"/>
				</g>
				<g id="group5-9" v:mID="5" v:groupContext="group">
					<title>Sheet.5</title>
					<g id="shape6-10" v:mID="6" v:groupContext="shape">
						<title>Sheet.6</title>
						<path d="M18.95 572.95 C8.61 572.95 0 569.89 0 566.13 L0 602.37 C0 606.13 8.3 609.26 18.57 609.26 L18.95
									 609.26 C29.28 609.26 37.79 606.23 37.79 602.37 L37.79 566.13 C37.65 569.89 29.28 572.95 18.95
									 572.95 Z" class="st3"/>
					</g>
					<g id="shape7-14" v:mID="7" v:groupContext="shape" transform="translate(0,-36.2415)">
						<title>Sheet.7</title>
						<path d="M37.65 602.37 C37.65 606.13 29.21 609.26 18.81 609.26 C8.41 609.26 0 606.13 0 602.37 C0 598.62 8.61
									 595.55 18.95 595.55 C29.28 595.55 37.79 598.58 37.79 602.44 L37.65 602.37 Z" class="st4"/>
						<path d="M37.65 602.37 C37.65 606.13 29.21 609.26 18.81 609.26 C8.41 609.26 0 606.13 0 602.37 C0 598.62 8.61
									 595.55 18.95 595.55 C29.28 595.55 37.79 598.58 37.79 602.44" class="st5"/>
					</g>
					<g id="shape8-17" v:mID="8" v:groupContext="shape" transform="translate(4.37517,-39.3765)">
						<title>Sheet.8</title>
						<path d="M28.87 604.96 C28.87 607.34 22.43 609.26 14.43 609.26 C6.44 609.26 0 607.34 0 604.96 C0 602.58 6.48
									 600.62 14.57 600.62 C22.67 600.62 29.01 602.55 29.01 604.96 L28.87 604.96 Z" class="st6"/>
						<path d="M28.87 604.96 C28.87 607.34 22.43 609.26 14.43 609.26 C6.44 609.26 0 607.34 0 604.96 C0 602.58 6.48
									 600.62 14.57 600.62 C22.67 600.62 29.01 602.55 29.01 604.96" class="st5"/>
					</g>
					<g id="shape9-20" v:mID="9" v:groupContext="shape" transform="translate(7.54458,-39.3765)">
						<title>Sheet.9</title>
						<path d="M11.4 605.96 A34.8635 34.8635 -180 0 0 -0 607.58 A33.3133 33.3133 -180 0 0 11.4 609.26 A33.6922
									 33.6922 -180 0 0 22.84 607.58 A34.9324 34.9324 -180 0 0 11.4 605.96 Z" class="st7"/>
					</g>
				</g>
			</g>
		</g>
		<g id="shape19-22" v:mID="19" v:groupContext="shape" transform="translate(153.525,-372.039)">
			<title>Sheet.19</title>
			<desc>Tuning for tenant A</desc>
			<v:userDefs>
				<v:ud v:nameU="visNavOrder" v:prompt="" v:val="VT0(2000):26"/>
			</v:userDefs>
			<v:textBlock v:margins="rect(4,4,4,4)" v:tabSpace="42.5197"/>
			<v:textRect cx="84.7578" cy="579.06" width="169.52" height="60.4094"/>
			<rect x="0" y="548.855" width="169.516" height="60.4094" class="st8"/>
			<text x="32.35" y="573.66" class="st9" v:langID="1033"><v:paragraph v:indentLeft="28.35"/><v:tabList/>Tuning for <v:newlineChar/><tspan
						x="32.35" dy="1.2em" class="st10">tenant A</tspan></text>		</g>
		<g id="shape20-26" v:mID="20" v:groupContext="shape" transform="translate(96.7174,-402.449)">
			<title>Sheet.20</title>
			<v:userDefs>
				<v:ud v:nameU="visNavOrder" v:prompt="" v:val="VT0(3000):26"/>
			</v:userDefs>
			<path d="M0 609.26 L46.25 609.26" class="st11"/>
		</g>
		<g id="shape22-32" v:mID="22" v:groupContext="shape" transform="translate(425.088,-372.039)">
			<title>Sheet.22</title>
			<desc>Tenant A model</desc>
			<v:userDefs>
				<v:ud v:nameU="visNavOrder" v:prompt="" v:val="VT0(4000):26"/>
			</v:userDefs>
			<v:textBlock v:margins="rect(4,4,4,4)" v:tabSpace="42.5197"/>
			<v:textRect cx="84.7578" cy="579.06" width="169.52" height="60.4094"/>
			<rect x="0" y="548.855" width="169.516" height="60.4094" class="st8"/>
			<text x="25.3" y="584.46" class="st9" v:langID="1033"><v:paragraph v:horizAlign="1"/><v:tabList/>Tenant A<tspan
						class="st10" v:langID="2052"> </tspan><tspan class="st10" v:langID="2052">model</tspan></text>		</g>
		<g id="shape23-37" v:mID="23" v:groupContext="shape" transform="translate(696.651,-372.039)">
			<title>Sheet.23</title>
			<desc>Inference</desc>
			<v:userDefs>
				<v:ud v:nameU="visNavOrder" v:prompt="" v:val="VT0(5000):26"/>
			</v:userDefs>
			<v:textBlock v:margins="rect(4,4,4,4)" v:tabSpace="42.5197"/>
			<v:textRect cx="84.7578" cy="579.06" width="169.52" height="60.4094"/>
			<rect x="0" y="548.855" width="169.516" height="60.4094" class="st8"/>
			<text x="49.29" y="584.46" class="st9" v:langID="2052"><v:paragraph v:horizAlign="1"/><v:tabList/>Inference</text>		</g>
		<g id="shape24-40" v:mID="24" v:groupContext="shape" transform="translate(968.214,-372.039)">
			<title>Sheet.24</title>
			<desc>Model output</desc>
			<v:userDefs>
				<v:ud v:nameU="visNavOrder" v:prompt="" v:val="VT0(6000):26"/>
			</v:userDefs>
			<v:textBlock v:margins="rect(4,4,4,4)" v:tabSpace="42.5197"/>
			<v:textRect cx="84.7578" cy="579.06" width="169.52" height="60.4094"/>
			<rect x="0" y="548.855" width="169.516" height="60.4094" class="st8"/>
			<text x="32.88" y="584.46" class="st9" v:langID="2052"><v:paragraph v:horizAlign="1"/><v:tabList/>Model output</text>		</g>
		<g id="shape25-43" v:mID="25" v:groupContext="shape" transform="translate(328.71,-400.386)">
			<title>Sheet.25</title>
			<v:userDefs>
				<v:ud v:nameU="visNavOrder" v:prompt="" v:val="VT0(7000):26"/>
			</v:userDefs>
			<path d="M0 609.26 L85.82 609.26" class="st11"/>
		</g>
		<g id="shape26-48" v:mID="26" v:groupContext="shape" transform="translate(871.836,-400.386)">
			<title>Sheet.26</title>
			<v:userDefs>
				<v:ud v:nameU="visNavOrder" v:prompt="" v:val="VT0(8000):26"/>
			</v:userDefs>
			<path d="M0 609.26 L85.82 609.26" class="st11"/>
		</g>
		<g id="shape27-53" v:mID="27" v:groupContext="shape" transform="translate(594.762,-403.625)">
			<title>Sheet.27</title>
			<v:userDefs>
				<v:ud v:nameU="visNavOrder" v:prompt="" v:val="VT0(9000):26"/>
			</v:userDefs>
			<path d="M10.2 609.26 L10.56 609.26 L96.38 609.26" class="st13"/>
		</g>
		<g id="shape28-59" v:mID="28" v:groupContext="shape" transform="translate(332.08,-372.039)">
			<title>Sheet.28</title>
			<desc>Produces</desc>
			<v:userDefs>
				<v:ud v:nameU="visNavOrder" v:prompt="" v:val="VT0(10000):26"/>
			</v:userDefs>
			<v:textBlock v:margins="rect(4,4,4,4)" v:tabSpace="42.5197"/>
			<v:textRect cx="40.8346" cy="599.264" width="81.67" height="20"/>
			<rect x="0" y="589.264" width="81.6693" height="20" class="st14"/>
			<text x="7.04" y="604.66" class="st15" v:langID="2052"><v:paragraph v:horizAlign="1"/><v:tabList/>Produces</text>		</g>
		<g id="shape29-62" v:mID="29" v:groupContext="shape" transform="translate(605.942,-372.039)">
			<title>Sheet.29</title>
			<desc>Users</desc>
			<v:userDefs>
				<v:ud v:nameU="visNavOrder" v:prompt="" v:val="VT0(11000):26"/>
			</v:userDefs>
			<v:textBlock v:margins="rect(4,4,4,4)" v:tabSpace="42.5197"/>
			<v:textRect cx="40.8346" cy="599.264" width="81.67" height="20"/>
			<rect x="0" y="589.264" width="81.6693" height="20" class="st14"/>
			<text x="20.4" y="604.66" class="st15" v:langID="2052"><v:paragraph v:horizAlign="1"/><v:tabList/>Users</text>		</g>
		<g id="shape30-65" v:mID="30" v:groupContext="shape" transform="translate(875.206,-372.039)">
			<title>Sheet.30</title>
			<desc>Produces</desc>
			<v:userDefs>
				<v:ud v:nameU="visNavOrder" v:prompt="" v:val="VT0(12000):26"/>
			</v:userDefs>
			<v:textBlock v:margins="rect(4,4,4,4)" v:tabSpace="42.5197"/>
			<v:textRect cx="40.8346" cy="599.264" width="81.67" height="20"/>
			<rect x="0" y="589.264" width="81.6693" height="20" class="st14"/>
			<text x="7.04" y="604.66" class="st15" v:langID="2052"><v:paragraph v:horizAlign="1"/><v:tabList/>Produces</text>		</g>
		<g id="shape31-68" v:mID="31" v:groupContext="shape" transform="translate(34.4075,-424.154)">
			<title>Sheet.31</title>
			<desc>Tenant A data</desc>
			<v:userDefs>
				<v:ud v:nameU="visNavOrder" v:prompt="" v:val="VT0(13000):26"/>
			</v:userDefs>
			<v:textBlock v:margins="rect(4,4,4,4)" v:tabSpace="42.5197"/>
			<v:textRect cx="40.8346" cy="584.288" width="81.67" height="49.9527"/>
			<rect x="0" y="559.312" width="81.6693" height="49.9527" class="st14"/>
			<text x="7.14" y="578.89" class="st9" v:langID="2052"><v:paragraph v:horizAlign="1"/><v:tabList/>Tenant A <tspan x="24"
						dy="1.2em" class="st10">data</tspan></text>		</g>
		<g id="group33-72" transform="translate(786.409,-470.77)" v:mID="33" v:groupContext="group">
			<v:userDefs>
				<v:ud v:nameU="visNavOrder" v:prompt="" v:val="VT0(14000):26"/>
			</v:userDefs>
			<title>MsPortalFx.base.images-37</title>
			<g id="shape34-73" v:mID="34" v:groupContext="shape">
				<title>Sheet.34</title>
				<path d="M7.81 595.94 L0.42 595.94 a0.381743 0.381743 0 0 1 -0.41848 -0.31945 a0.279519 0.279519 0 0 1 0.0367368
							 -0.135766 L8.9 580.15 a0.437647 0.437647 0 0 1 0.381743 -0.19167 L18.02 579.95 a0.380146 0.380146 0
							 0 1 0.41848 0.31945 a0.282714 0.282714 0 0 1 -0.0734736 0.190073 L7.96 592.47 L18.1 592.47 a0.381743
							 0.381743 0 0 1 0.41848 0.31945 a0.295492 0.295492 0 0 1 -0.107016 0.218823 L1.55 608.37 C1.39 608.45
							 0.28 609.26 0.82 608.02 L7.81 595.94 Z" class="st16"/>
			</g>
		</g>
		<g id="group35-77" transform="translate(759.465,-524.193)" v:mID="35" v:groupContext="group">
			<v:userDefs>
				<v:ud v:nameU="visNavOrder" v:prompt="" v:val="VT0(15000):26"/>
			</v:userDefs>
			<title>Icon-identity-223</title>
			<g id="shape36-78" v:mID="36" v:groupContext="shape" transform="translate(22.0901,-5.94264)">
				<title>Sheet.36</title>
				<path d="M19.85 609.26 A1.92405 1.92405 -180 0 0 21.8 607.34 a0.681943 0.681943 -180 0 0 -0.0487102 -0.316616 C20.99
							 600.93 17.51 595.97 10.89 595.97 C4.26 595.97 0.68 600.25 0 607.02 A1.97276 1.97276 -180 0 0 1.75 609.17
							 L19.85 609.17 L19.85 609.26 Z" class="st17"/>
			</g>
			<g id="shape37-80" v:mID="37" v:groupContext="shape" transform="translate(29.6889,-10.1074)">
				<title>Sheet.37</title>
				<path d="M3.31 601.67 A5.94264 5.94264 0 0 1 -0 600.69 L3.29 609.26 L6.53 600.76 A6.1862 6.1862 0 0 1 3.31 601.67
							 Z" class="st18"/>
			</g>
			<g id="shape38-82" v:mID="38" v:groupContext="shape" transform="translate(26.888,-17.7062)">
				<title>Sheet.38</title>
				<ellipse cx="6.11313" cy="603.151" rx="6.11313" ry="6.11313" class="st17"/>
			</g>
			<g id="shape39-84" v:mID="39" v:groupContext="shape">
				<title>Sheet.39</title>
				<path d="M29.69 609.26 A2.89826 2.89826 -180 0 0 32.59 606.37 A1.60744 1.60744 -180 0 0 32.59 606.03 C31.44 596.92
							 26.25 589.51 16.37 589.51 C6.48 589.51 1.07 595.8 0 605.95 A2.92261 2.92261 -180 0 0 2.61 609.14 L29.64
							 609.14 L29.69 609.26 Z" class="st19"/>
			</g>
			<g id="shape40-88" v:mID="40" v:groupContext="shape" transform="translate(11.6174,-6.25926)">
				<title>Sheet.40</title>
				<path d="M4.87 597.94 A9.0601 9.0601 0 0 1 0 596.48 L4.87 609.26 L9.74 596.58 A9.27929 9.27929 0 0 1 4.87 597.94 Z"
						class="st18"/>
			</g>
			<g id="shape41-90" v:mID="41" v:groupContext="shape" transform="translate(7.28218,-17.5844)">
				<title>Sheet.41</title>
				<ellipse cx="9.13316" cy="600.131" rx="9.13316" ry="9.13316" class="st20"/>
			</g>
		</g>
		<g id="shape42-94" v:mID="42" v:groupContext="shape" transform="translate(1391.52,95.4927) rotate(90)">
			<title>Sheet.42</title>
			<v:userDefs>
				<v:ud v:nameU="visNavOrder" v:prompt="" v:val="VT0(16000):26"/>
			</v:userDefs>
			<path d="M0 609.26 L60.31 609.26" class="st11"/>
		</g>
		<g id="shape43-99" v:mID="43" v:groupContext="shape" transform="translate(804.931,-476.764)">
			<title>Sheet.43</title>
			<desc>Triggers</desc>
			<v:userDefs>
				<v:ud v:nameU="visNavOrder" v:prompt="" v:val="VT0(17000):26"/>
			</v:userDefs>
			<v:textBlock v:margins="rect(4,4,4,4)" v:tabSpace="42.5197"/>
			<v:textRect cx="34.5906" cy="599.264" width="69.19" height="20"/>
			<rect x="0" y="589.264" width="69.1811" height="20" class="st14"/>
			<text x="5.39" y="604.66" class="st15" v:langID="2052"><v:paragraph v:horizAlign="1"/><v:tabList/>Triggers</text>		</g>
		<g id="shape44-102" v:mID="44" v:groupContext="shape" transform="translate(710.963,-570.464)">
			<title>Sheet.44</title>
			<desc>Tenant A&#39;s users</desc>
			<v:userDefs>
				<v:ud v:nameU="visNavOrder" v:prompt="" v:val="VT0(18000):26"/>
			</v:userDefs>
			<v:textBlock v:margins="rect(4,4,4,4)" v:tabSpace="42.5197"/>
			<v:textRect cx="70.446" cy="599.264" width="140.9" height="20"/>
			<rect x="0" y="589.264" width="140.892" height="20" class="st14"/>
			<text x="9.28" y="604.66" class="st9" v:langID="1033"><v:paragraph v:horizAlign="1"/><v:tabList/>Te<tspan class="st10"
						v:langID="2052">nant </tspan>A&#39;s<tspan class="st10" v:langID="2052"> </tspan><tspan class="st10"
						v:langID="2052">users</tspan></text>		</g>
		<g id="shape45-108" v:mID="45" v:groupContext="shape" transform="translate(810.6,-432.449)">
			<title>Sheet.45</title>
			<v:userDefs>
				<v:ud v:nameU="visNavOrder" v:prompt="" v:val="VT0(19000):26"/>
			</v:userDefs>
			<path d="M240.94 609.26 L240.94 505.26 L9.81 505.26" class="st21"/>
		</g>
		<g id="group46-114" transform="translate(53.4331,-48.2175)" v:mID="46" v:groupContext="group">
			<v:userDefs>
				<v:ud v:nameU="visNavOrder" v:prompt="" v:val="VT0(20000):26"/>
			</v:userDefs>
			<title>Icon-storage-98.46</title>
			<g id="group47-115" v:mID="47" v:groupContext="group">
				<title>Sheet.47</title>
				<g id="shape48-116" v:mID="48" v:groupContext="shape" transform="translate(46.99,-34.8635)">
					<title>Sheet.48</title>
					<path d="M5.13 609.26 A4.99527 4.99527 0 0 1 2.34 608.44 A5.06417 5.06417 0 0 1 -0 604.99 A5.27087 5.27087 0
								 0 1 5.13 598.55 A5.20197 5.20197 0 0 1 7.96 599.38 A5.30532 5.30532 0 0 1 10.27 602.82 A5.27087
								 5.27087 0 0 1 5.13 609.23 L5.13 609.26 Z" class="st2"/>
				</g>
				<g id="shape49-118" v:mID="49" v:groupContext="shape" transform="translate(46.9888,-2.20481)">
					<title>Sheet.49</title>
					<path d="M5.13 609.26 A4.99527 4.99527 0 0 1 2.34 608.44 A5.20197 5.20197 0 0 1 0.69 601.2 A5.23642 5.23642 0
								 0 1 7.96 599.55 A5.27087 5.27087 0 0 1 5.13 609.26 Z" class="st2"/>
				</g>
				<g id="group50-120" v:mID="50" v:groupContext="group">
					<title>Sheet.50</title>
					<g id="shape51-121" v:mID="51" v:groupContext="shape">
						<title>Sheet.51</title>
						<path d="M18.95 572.95 C8.61 572.95 0 569.89 0 566.13 L0 602.37 C0 606.13 8.3 609.26 18.57 609.26 L18.95
									 609.26 C29.28 609.26 37.79 606.23 37.79 602.37 L37.79 566.13 C37.65 569.89 29.28 572.95 18.95
									 572.95 Z" class="st3"/>
					</g>
					<g id="shape52-124" v:mID="52" v:groupContext="shape" transform="translate(0,-36.2415)">
						<title>Sheet.52</title>
						<path d="M37.65 602.37 C37.65 606.13 29.21 609.26 18.81 609.26 C8.41 609.26 0 606.13 0 602.37 C0 598.62 8.61
									 595.55 18.95 595.55 C29.28 595.55 37.79 598.58 37.79 602.44 L37.65 602.37 Z" class="st4"/>
						<path d="M37.65 602.37 C37.65 606.13 29.21 609.26 18.81 609.26 C8.41 609.26 0 606.13 0 602.37 C0 598.62 8.61
									 595.55 18.95 595.55 C29.28 595.55 37.79 598.58 37.79 602.44" class="st5"/>
					</g>
					<g id="shape53-127" v:mID="53" v:groupContext="shape" transform="translate(4.37517,-39.3765)">
						<title>Sheet.53</title>
						<path d="M28.87 604.96 C28.87 607.34 22.43 609.26 14.43 609.26 C6.44 609.26 0 607.34 0 604.96 C0 602.58 6.48
									 600.62 14.57 600.62 C22.67 600.62 29.01 602.55 29.01 604.96 L28.87 604.96 Z" class="st6"/>
						<path d="M28.87 604.96 C28.87 607.34 22.43 609.26 14.43 609.26 C6.44 609.26 0 607.34 0 604.96 C0 602.58 6.48
									 600.62 14.57 600.62 C22.67 600.62 29.01 602.55 29.01 604.96" class="st5"/>
					</g>
					<g id="shape54-130" v:mID="54" v:groupContext="shape" transform="translate(7.54458,-39.3765)">
						<title>Sheet.54</title>
						<path d="M11.4 605.96 A34.8635 34.8635 -180 0 0 -0 607.58 A33.3133 33.3133 -180 0 0 11.4 609.26 A33.6922
									 33.6922 -180 0 0 22.84 607.58 A34.9324 34.9324 -180 0 0 11.4 605.96 Z" class="st7"/>
					</g>
				</g>
			</g>
		</g>
		<g id="shape65-132" v:mID="65" v:groupContext="shape" transform="translate(94.9974,-70.4897)">
			<title>Sheet.65</title>
			<v:userDefs>
				<v:ud v:nameU="visNavOrder" v:prompt="" v:val="VT0(21000):26"/>
			</v:userDefs>
			<path d="M0 609.26 L46.25 609.26" class="st11"/>
		</g>
		<g id="shape67-137" v:mID="67" v:groupContext="shape" transform="translate(423.368,-41.4773)">
			<title>Sheet.67</title>
			<desc>Tenant B model</desc>
			<v:userDefs>
				<v:ud v:nameU="visNavOrder" v:prompt="" v:val="VT0(22000):26"/>
			</v:userDefs>
			<v:textBlock v:margins="rect(4,4,4,4)" v:tabSpace="42.5197"/>
			<v:textRect cx="84.7578" cy="579.06" width="169.52" height="60.4094"/>
			<rect x="0" y="548.855" width="169.516" height="60.4094" class="st8"/>
			<text x="25.7" y="584.46" class="st9" v:langID="1033"><v:paragraph v:horizAlign="1"/><v:tabList/>Tenant B<tspan
						class="st10" v:langID="2052"> </tspan><tspan class="st10" v:langID="2052">model</tspan></text>		</g>
		<g id="shape68-142" v:mID="68" v:groupContext="shape" transform="translate(694.931,-41.4773)">
			<title>Sheet.68</title>
			<desc>Inference</desc>
			<v:userDefs>
				<v:ud v:nameU="visNavOrder" v:prompt="" v:val="VT0(23000):26"/>
			</v:userDefs>
			<v:textBlock v:margins="rect(4,4,4,4)" v:tabSpace="42.5197"/>
			<v:textRect cx="84.7578" cy="579.06" width="169.52" height="60.4094"/>
			<rect x="0" y="548.855" width="169.516" height="60.4094" class="st8"/>
			<text x="49.29" y="584.46" class="st9" v:langID="2052"><v:paragraph v:horizAlign="1"/><v:tabList/>Inference</text>		</g>
		<g id="shape69-145" v:mID="69" v:groupContext="shape" transform="translate(966.494,-41.4773)">
			<title>Sheet.69</title>
			<desc>Model output</desc>
			<v:userDefs>
				<v:ud v:nameU="visNavOrder" v:prompt="" v:val="VT0(24000):26"/>
			</v:userDefs>
			<v:textBlock v:margins="rect(4,4,4,4)" v:tabSpace="42.5197"/>
			<v:textRect cx="84.7578" cy="579.06" width="169.52" height="60.4094"/>
			<rect x="0" y="548.855" width="169.516" height="60.4094" class="st8"/>
			<text x="32.88" y="584.46" class="st9" v:langID="2052"><v:paragraph v:horizAlign="1"/><v:tabList/>Model output</text>		</g>
		<g id="shape70-148" v:mID="70" v:groupContext="shape" transform="translate(326.99,-69.8238)">
			<title>Sheet.70</title>
			<v:userDefs>
				<v:ud v:nameU="visNavOrder" v:prompt="" v:val="VT0(25000):26"/>
			</v:userDefs>
			<path d="M0 609.26 L85.82 609.26" class="st11"/>
		</g>
		<g id="shape71-153" v:mID="71" v:groupContext="shape" transform="translate(870.116,-69.8238)">
			<title>Sheet.71</title>
			<v:userDefs>
				<v:ud v:nameU="visNavOrder" v:prompt="" v:val="VT0(26000):26"/>
			</v:userDefs>
			<path d="M0 609.26 L85.82 609.26" class="st11"/>
		</g>
		<g id="shape72-158" v:mID="72" v:groupContext="shape" transform="translate(593.042,-73.0634)">
			<title>Sheet.72</title>
			<v:userDefs>
				<v:ud v:nameU="visNavOrder" v:prompt="" v:val="VT0(27000):26"/>
			</v:userDefs>
			<path d="M10.2 609.26 L10.56 609.26 L96.38 609.26" class="st13"/>
		</g>
		<g id="shape73-163" v:mID="73" v:groupContext="shape" transform="translate(330.36,-41.4773)">
			<title>Sheet.73</title>
			<desc>Produces</desc>
			<v:userDefs>
				<v:ud v:nameU="visNavOrder" v:prompt="" v:val="VT0(28000):26"/>
			</v:userDefs>
			<v:textBlock v:margins="rect(4,4,4,4)" v:tabSpace="42.5197"/>
			<v:textRect cx="40.8346" cy="599.264" width="81.67" height="20"/>
			<rect x="0" y="589.264" width="81.6693" height="20" class="st14"/>
			<text x="7.04" y="604.66" class="st15" v:langID="2052"><v:paragraph v:horizAlign="1"/><v:tabList/>Produces</text>		</g>
		<g id="shape74-166" v:mID="74" v:groupContext="shape" transform="translate(604.222,-41.4773)">
			<title>Sheet.74</title>
			<desc>Users</desc>
			<v:userDefs>
				<v:ud v:nameU="visNavOrder" v:prompt="" v:val="VT0(29000):26"/>
			</v:userDefs>
			<v:textBlock v:margins="rect(4,4,4,4)" v:tabSpace="42.5197"/>
			<v:textRect cx="40.8346" cy="599.264" width="81.67" height="20"/>
			<rect x="0" y="589.264" width="81.6693" height="20" class="st14"/>
			<text x="20.4" y="604.66" class="st15" v:langID="2052"><v:paragraph v:horizAlign="1"/><v:tabList/>Users</text>		</g>
		<g id="shape75-169" v:mID="75" v:groupContext="shape" transform="translate(873.486,-41.4773)">
			<title>Sheet.75</title>
			<desc>Produces</desc>
			<v:userDefs>
				<v:ud v:nameU="visNavOrder" v:prompt="" v:val="VT0(30000):26"/>
			</v:userDefs>
			<v:textBlock v:margins="rect(4,4,4,4)" v:tabSpace="42.5197"/>
			<v:textRect cx="40.8346" cy="599.264" width="81.67" height="20"/>
			<rect x="0" y="589.264" width="81.6693" height="20" class="st14"/>
			<text x="7.04" y="604.66" class="st15" v:langID="2052"><v:paragraph v:horizAlign="1"/><v:tabList/>Produces</text>		</g>
		<g id="shape76-172" v:mID="76" v:groupContext="shape" transform="translate(34.4075,-97.4774)">
			<title>Sheet.76</title>
			<desc>Tenant B data</desc>
			<v:userDefs>
				<v:ud v:nameU="visNavOrder" v:prompt="" v:val="VT0(31000):26"/>
			</v:userDefs>
			<v:textBlock v:margins="rect(4,4,4,4)" v:tabSpace="42.5197"/>
			<v:textRect cx="40.8346" cy="584.288" width="81.67" height="49.9527"/>
			<rect x="0" y="559.312" width="81.6693" height="49.9527" class="st14"/>
			<text x="7.55" y="578.89" class="st9" v:langID="2052"><v:paragraph v:horizAlign="1"/><v:tabList/>Tenant <tspan
						class="st10" v:langID="1033">B</tspan> <tspan x="24" dy="1.2em" class="st10">data</tspan></text>		</g>
		<g id="group78-177" transform="translate(784.689,-140.208)" v:mID="78" v:groupContext="group">
			<v:userDefs>
				<v:ud v:nameU="visNavOrder" v:prompt="" v:val="VT0(32000):26"/>
			</v:userDefs>
			<title>MsPortalFx.base.images-37.78</title>
			<g id="shape79-178" v:mID="79" v:groupContext="shape">
				<title>Sheet.79</title>
				<path d="M7.81 595.94 L0.42 595.94 a0.381743 0.381743 0 0 1 -0.41848 -0.31945 a0.279519 0.279519 0 0 1 0.0367368
							 -0.135766 L8.9 580.15 a0.437647 0.437647 0 0 1 0.381743 -0.19167 L18.02 579.95 a0.380146 0.380146 0
							 0 1 0.41848 0.31945 a0.282714 0.282714 0 0 1 -0.0734736 0.190073 L7.96 592.47 L18.1 592.47 a0.381743
							 0.381743 0 0 1 0.41848 0.31945 a0.295492 0.295492 0 0 1 -0.107016 0.218823 L1.55 608.37 C1.39 608.45
							 0.28 609.26 0.82 608.02 L7.81 595.94 Z" class="st16"/>
			</g>
		</g>
		<g id="group80-181" transform="translate(757.745,-193.631)" v:mID="80" v:groupContext="group">
			<v:userDefs>
				<v:ud v:nameU="visNavOrder" v:prompt="" v:val="VT0(33000):26"/>
			</v:userDefs>
			<title>Icon-identity-223.80</title>
			<g id="shape81-182" v:mID="81" v:groupContext="shape" transform="translate(22.0901,-5.94264)">
				<title>Sheet.81</title>
				<path d="M19.85 609.26 A1.92405 1.92405 -180 0 0 21.8 607.34 a0.681943 0.681943 -180 0 0 -0.0487102 -0.316616 C20.99
							 600.93 17.51 595.97 10.89 595.97 C4.26 595.97 0.68 600.25 0 607.02 A1.97276 1.97276 -180 0 0 1.75 609.17
							 L19.85 609.17 L19.85 609.26 Z" class="st17"/>
			</g>
			<g id="shape82-184" v:mID="82" v:groupContext="shape" transform="translate(29.6889,-10.1074)">
				<title>Sheet.82</title>
				<path d="M3.31 601.67 A5.94264 5.94264 0 0 1 -0 600.69 L3.29 609.26 L6.53 600.76 A6.1862 6.1862 0 0 1 3.31 601.67
							 Z" class="st18"/>
			</g>
			<g id="shape83-186" v:mID="83" v:groupContext="shape" transform="translate(26.888,-17.7062)">
				<title>Sheet.83</title>
				<ellipse cx="6.11313" cy="603.151" rx="6.11313" ry="6.11313" class="st17"/>
			</g>
			<g id="shape84-188" v:mID="84" v:groupContext="shape">
				<title>Sheet.84</title>
				<path d="M29.69 609.26 A2.89826 2.89826 -180 0 0 32.59 606.37 A1.60744 1.60744 -180 0 0 32.59 606.03 C31.44 596.92
							 26.25 589.51 16.37 589.51 C6.48 589.51 1.07 595.8 0 605.95 A2.92261 2.92261 -180 0 0 2.61 609.14 L29.64
							 609.14 L29.69 609.26 Z" class="st19"/>
			</g>
			<g id="shape85-191" v:mID="85" v:groupContext="shape" transform="translate(11.6174,-6.25926)">
				<title>Sheet.85</title>
				<path d="M4.87 597.94 A9.0601 9.0601 0 0 1 0 596.48 L4.87 609.26 L9.74 596.58 A9.27929 9.27929 0 0 1 4.87 597.94 Z"
						class="st18"/>
			</g>
			<g id="shape86-193" v:mID="86" v:groupContext="shape" transform="translate(7.28218,-17.5844)">
				<title>Sheet.86</title>
				<ellipse cx="9.13316" cy="600.131" rx="9.13316" ry="9.13316" class="st20"/>
			</g>
		</g>
		<g id="shape87-196" v:mID="87" v:groupContext="shape" transform="translate(1389.8,426.055) rotate(90)">
			<title>Sheet.87</title>
			<v:userDefs>
				<v:ud v:nameU="visNavOrder" v:prompt="" v:val="VT0(34000):26"/>
			</v:userDefs>
			<path d="M0 609.26 L60.31 609.26" class="st11"/>
		</g>
		<g id="shape88-201" v:mID="88" v:groupContext="shape" transform="translate(803.211,-146.202)">
			<title>Sheet.88</title>
			<desc>Triggers</desc>
			<v:userDefs>
				<v:ud v:nameU="visNavOrder" v:prompt="" v:val="VT0(35000):26"/>
			</v:userDefs>
			<v:textBlock v:margins="rect(4,4,4,4)" v:tabSpace="42.5197"/>
			<v:textRect cx="34.5906" cy="599.264" width="69.19" height="20"/>
			<rect x="0" y="589.264" width="69.1811" height="20" class="st14"/>
			<text x="5.39" y="604.66" class="st15" v:langID="2052"><v:paragraph v:horizAlign="1"/><v:tabList/>Triggers</text>		</g>
		<g id="shape89-204" v:mID="89" v:groupContext="shape" transform="translate(709.243,-239.903)">
			<title>Sheet.89</title>
			<desc>Tenant B&#39;s users</desc>
			<v:userDefs>
				<v:ud v:nameU="visNavOrder" v:prompt="" v:val="VT0(36000):26"/>
			</v:userDefs>
			<v:textBlock v:margins="rect(4,4,4,4)" v:tabSpace="42.5197"/>
			<v:textRect cx="70.446" cy="599.264" width="140.9" height="20"/>
			<rect x="0" y="589.264" width="140.892" height="20" class="st14"/>
			<text x="9.69" y="604.66" class="st9" v:langID="1033"><v:paragraph v:horizAlign="1"/><v:tabList/>Te<tspan class="st10"
						v:langID="2052">nant </tspan>B&#39;s<tspan class="st10" v:langID="2052"> </tspan><tspan class="st10"
						v:langID="2052">users</tspan></text>		</g>
		<g id="shape90-210" v:mID="90" v:groupContext="shape" transform="translate(808.88,-101.887)">
			<title>Sheet.90</title>
			<v:userDefs>
				<v:ud v:nameU="visNavOrder" v:prompt="" v:val="VT0(37000):26"/>
			</v:userDefs>
			<path d="M240.94 609.26 L240.94 505.26 L9.81 505.26" class="st21"/>
		</g>
		<g id="group95-215" transform="translate(283.038,-389.991)" v:mID="95" v:groupContext="group">
			<v:userDefs>
				<v:ud v:nameU="visNavOrder" v:prompt="" v:val="VT0(38000):26"/>
			</v:userDefs>
			<title>Sheet.95</title>
			<g id="group91-216" transform="translate(-1.89848E-14,-11.7842)" v:mID="91" v:groupContext="group">
				<title>Sheet.91</title>
				<g id="shape92-217" v:mID="92" v:groupContext="shape">
					<title>Sheet.92</title>
					<path d="M6.13 596.54 C6.6 596.55 7.08 596.6 7.54 596.71 C7.75 596.75 7.9 596.92 7.92 597.13 L8.03 598.12 C8.08
								 598.58 8.47 598.92 8.93 598.92 C9.05 598.92 9.17 598.9 9.28 598.84 L10.19 598.45 C10.38 598.36 10.6
								 598.41 10.75 598.56 C11.4 599.26 11.89 600.1 12.18 601.02 C12.24 601.22 12.17 601.43 12 601.56 L11.2
								 602.15 C10.97 602.32 10.83 602.59 10.83 602.88 C10.83 603.16 10.97 603.43 11.2 603.6 L12 604.19
								 C12.17 604.32 12.24 604.53 12.18 604.73 C11.89 605.65 11.41 606.49 10.75 607.19 C10.61 607.34 10.39
								 607.39 10.2 607.31 L9.28 606.91 C9.02 606.79 8.72 606.81 8.48 606.95 C8.23 607.09 8.06 607.34 8.03
								 607.63 L7.92 608.62 C7.9 608.82 7.75 608.99 7.55 609.04 C6.61 609.26 5.63 609.26 4.69 609.04 C4.49
								 608.99 4.34 608.82 4.32 608.62 L4.21 607.63 C4.18 607.35 4.01 607.1 3.76 606.95 C3.52 606.81 3.22
								 606.79 2.96 606.91 L2.04 607.31 C1.85 607.39 1.63 607.35 1.49 607.2 C0.84 606.49 0.35 605.65 0.06
								 604.73 C0 604.53 0.07 604.32 0.24 604.19 L1.05 603.6 C1.28 603.43 1.41 603.16 1.41 602.88 C1.41
								 602.59 1.28 602.32 1.05 602.15 L0.24 601.56 C0.07 601.44 0 601.22 0.06 601.02 C0.35 600.1 0.84 599.26
								 1.49 598.56 C1.63 598.41 1.86 598.36 2.05 598.45 L2.95 598.85 C3.22 598.96 3.52 598.94 3.77 598.8
								 C4.01 598.65 4.18 598.4 4.21 598.12 L4.32 597.13 C4.34 596.92 4.49 596.75 4.7 596.71 C5.16 596.6
								 5.64 596.55 6.13 596.54 ZM6.12 600.93 C5.04 600.93 4.17 601.8 4.17 602.88 C4.17 603.95 5.04 604.82
								 6.12 604.82 C7.2 604.82 8.07 603.95 8.07 602.88 C8.07 601.8 7.2 600.93 6.12 600.93 Z" class="st23"/>
				</g>
			</g>
			<g id="group93-219" transform="translate(7.56052,0)" v:mID="93" v:groupContext="group">
				<title>Sheet.93</title>
				<g id="shape94-220" v:mID="94" v:groupContext="shape">
					<title>Sheet.94</title>
					<path d="M7.85 592.97 C8.46 592.97 9.07 593.04 9.67 593.18 C9.93 593.23 10.12 593.45 10.15 593.72 L10.29 594.99
								 C10.36 595.57 10.85 596.01 11.44 596.01 C11.59 596.01 11.75 595.98 11.9 595.92 L13.06 595.4 C13.3
								 595.3 13.59 595.36 13.77 595.55 C14.61 596.45 15.24 597.53 15.6 598.7 C15.68 598.96 15.59 599.23
								 15.38 599.39 L14.34 600.15 C14.05 600.37 13.87 600.71 13.87 601.08 C13.87 601.44 14.05 601.79 14.34
								 602.01 L15.38 602.77 C15.59 602.92 15.68 603.2 15.6 603.45 C15.24 604.63 14.61 605.71 13.77 606.61
								 C13.59 606.8 13.31 606.86 13.06 606.75 L11.89 606.24 C11.56 606.1 11.17 606.12 10.86 606.3 C10.54
								 606.48 10.33 606.81 10.29 607.17 L10.15 608.44 C10.12 608.7 9.93 608.92 9.67 608.98 C8.47 609.26
								 7.21 609.26 6.01 608.98 C5.75 608.92 5.56 608.7 5.53 608.44 L5.39 607.17 C5.35 606.81 5.14 606.49
								 4.82 606.3 C4.51 606.12 4.12 606.1 3.79 606.25 L2.62 606.76 C2.38 606.87 2.09 606.81 1.91 606.61
								 C1.07 605.71 0.44 604.63 0.08 603.45 C0 603.2 0.09 602.93 0.3 602.77 L1.34 602.01 C1.63 601.79 1.81
								 601.45 1.81 601.08 C1.81 600.71 1.63 600.37 1.34 600.15 L0.3 599.39 C0.09 599.23 0 598.96 0.08 598.7
								 C0.44 597.53 1.07 596.45 1.91 595.55 C2.09 595.36 2.38 595.3 2.62 595.4 L3.79 595.92 C4.12 596.06
								 4.51 596.04 4.82 595.86 C5.14 595.67 5.35 595.35 5.39 594.99 L5.53 593.72 C5.56 593.45 5.76 593.23
								 6.02 593.18 C6.62 593.04 7.22 592.97 7.85 592.97 ZM7.84 598.58 C6.46 598.58 5.34 599.7 5.34 601.08
								 C5.34 602.46 6.46 603.58 7.84 603.58 C9.22 603.58 10.34 602.46 10.34 601.08 C10.34 599.7 9.22 598.58
								 7.84 598.58 Z" class="st23"/>
				</g>
			</g>
		</g>
		<g id="shape96-222" v:mID="96" v:groupContext="shape" transform="translate(153.525,-41.4774)">
			<title>Sheet.96</title>
			<desc>Tuning for tenant B</desc>
			<v:userDefs>
				<v:ud v:nameU="visNavOrder" v:prompt="" v:val="VT0(39000):26"/>
			</v:userDefs>
			<v:textBlock v:margins="rect(4,4,4,4)" v:tabSpace="42.5197"/>
			<v:textRect cx="84.7578" cy="579.06" width="169.52" height="60.4094"/>
			<rect x="0" y="548.855" width="169.516" height="60.4094" class="st8"/>
			<text x="32.35" y="573.66" class="st9" v:langID="1033"><v:paragraph v:indentLeft="28.35"/><v:tabList/>Tuning for <v:newlineChar/><tspan
						x="32.35" dy="1.2em" class="st10">tenant B</tspan></text>		</g>
		<g id="group97-226" transform="translate(283.038,-59.4291)" v:mID="97" v:groupContext="group">
			<v:userDefs>
				<v:ud v:nameU="visNavOrder" v:prompt="" v:val="VT0(40000):26"/>
			</v:userDefs>
			<title>Sheet.97</title>
			<g id="group98-227" transform="translate(-1.89848E-14,-11.7842)" v:mID="98" v:groupContext="group">
				<title>Sheet.98</title>
				<g id="shape99-228" v:mID="99" v:groupContext="shape">
					<title>Sheet.99</title>
					<path d="M6.13 596.54 C6.6 596.55 7.08 596.6 7.54 596.71 C7.75 596.75 7.9 596.92 7.92 597.13 L8.03 598.12 C8.08
								 598.58 8.47 598.92 8.93 598.92 C9.05 598.92 9.17 598.9 9.28 598.84 L10.19 598.45 C10.38 598.36 10.6
								 598.41 10.75 598.56 C11.4 599.26 11.89 600.1 12.18 601.02 C12.24 601.22 12.17 601.43 12 601.56 L11.2
								 602.15 C10.97 602.32 10.83 602.59 10.83 602.88 C10.83 603.16 10.97 603.43 11.2 603.6 L12 604.19
								 C12.17 604.32 12.24 604.53 12.18 604.73 C11.89 605.65 11.41 606.49 10.75 607.19 C10.61 607.34 10.39
								 607.39 10.2 607.31 L9.28 606.91 C9.02 606.79 8.72 606.81 8.48 606.95 C8.23 607.09 8.06 607.34 8.03
								 607.63 L7.92 608.62 C7.9 608.82 7.75 608.99 7.55 609.04 C6.61 609.26 5.63 609.26 4.69 609.04 C4.49
								 608.99 4.34 608.82 4.32 608.62 L4.21 607.63 C4.18 607.35 4.01 607.1 3.76 606.95 C3.52 606.81 3.22
								 606.79 2.96 606.91 L2.04 607.31 C1.85 607.39 1.63 607.35 1.49 607.2 C0.84 606.49 0.35 605.65 0.06
								 604.73 C0 604.53 0.07 604.32 0.24 604.19 L1.05 603.6 C1.28 603.43 1.41 603.16 1.41 602.88 C1.41
								 602.59 1.28 602.32 1.05 602.15 L0.24 601.56 C0.07 601.44 0 601.22 0.06 601.02 C0.35 600.1 0.84 599.26
								 1.49 598.56 C1.63 598.41 1.86 598.36 2.05 598.45 L2.95 598.85 C3.22 598.96 3.52 598.94 3.77 598.8
								 C4.01 598.65 4.18 598.4 4.21 598.12 L4.32 597.13 C4.34 596.92 4.49 596.75 4.7 596.71 C5.16 596.6
								 5.64 596.55 6.13 596.54 ZM6.12 600.93 C5.04 600.93 4.17 601.8 4.17 602.88 C4.17 603.95 5.04 604.82
								 6.12 604.82 C7.2 604.82 8.07 603.95 8.07 602.88 C8.07 601.8 7.2 600.93 6.12 600.93 Z" class="st23"/>
				</g>
			</g>
			<g id="group100-230" transform="translate(7.56052,0)" v:mID="100" v:groupContext="group">
				<title>Sheet.100</title>
				<g id="shape101-231" v:mID="101" v:groupContext="shape">
					<title>Sheet.101</title>
					<path d="M7.85 592.97 C8.46 592.97 9.07 593.04 9.67 593.18 C9.93 593.23 10.12 593.45 10.15 593.72 L10.29 594.99
								 C10.36 595.57 10.85 596.01 11.44 596.01 C11.59 596.01 11.75 595.98 11.9 595.92 L13.06 595.4 C13.3
								 595.3 13.59 595.36 13.77 595.55 C14.61 596.45 15.24 597.53 15.6 598.7 C15.68 598.96 15.59 599.23
								 15.38 599.39 L14.34 600.15 C14.05 600.37 13.87 600.71 13.87 601.08 C13.87 601.44 14.05 601.79 14.34
								 602.01 L15.38 602.77 C15.59 602.92 15.68 603.2 15.6 603.45 C15.24 604.63 14.61 605.71 13.77 606.61
								 C13.59 606.8 13.31 606.86 13.06 606.75 L11.89 606.24 C11.56 606.1 11.17 606.12 10.86 606.3 C10.54
								 606.48 10.33 606.81 10.29 607.17 L10.15 608.44 C10.12 608.7 9.93 608.92 9.67 608.98 C8.47 609.26
								 7.21 609.26 6.01 608.98 C5.75 608.92 5.56 608.7 5.53 608.44 L5.39 607.17 C5.35 606.81 5.14 606.49
								 4.82 606.3 C4.51 606.12 4.12 606.1 3.79 606.25 L2.62 606.76 C2.38 606.87 2.09 606.81 1.91 606.61
								 C1.07 605.71 0.44 604.63 0.08 603.45 C0 603.2 0.09 602.93 0.3 602.77 L1.34 602.01 C1.63 601.79 1.81
								 601.45 1.81 601.08 C1.81 600.71 1.63 600.37 1.34 600.15 L0.3 599.39 C0.09 599.23 0 598.96 0.08 598.7
								 C0.44 597.53 1.07 596.45 1.91 595.55 C2.09 595.36 2.38 595.3 2.62 595.4 L3.79 595.92 C4.12 596.06
								 4.51 596.04 4.82 595.86 C5.14 595.67 5.35 595.35 5.39 594.99 L5.53 593.72 C5.56 593.45 5.76 593.23
								 6.02 593.18 C6.62 593.04 7.22 592.97 7.85 592.97 ZM7.84 598.58 C6.46 598.58 5.34 599.7 5.34 601.08
								 C5.34 602.46 6.46 603.58 7.84 603.58 C9.22 603.58 10.34 602.46 10.34 601.08 C10.34 599.7 9.22 598.58
								 7.84 598.58 Z" class="st23"/>
				</g>
			</g>
		</g>
		<g id="shape104-233" v:mID="104" v:groupContext="shape" transform="translate(153.525,-207.84)">
			<title>Sheet.104</title>
			<desc>Pre-trained base model</desc>
			<v:userDefs>
				<v:ud v:nameU="visNavOrder" v:prompt="" v:val="VT0(41000):26"/>
			</v:userDefs>
			<v:textBlock v:margins="rect(4,4,4,4)" v:tabSpace="42.5197"/>
			<v:textRect cx="84.7578" cy="579.06" width="169.52" height="60.4094"/>
			<rect x="0" y="548.855" width="169.516" height="60.4094" class="st24"/>
			<text x="22.89" y="573.66" class="st9" v:langID="1033"><v:paragraph v:horizAlign="1"/><v:tabList/>Pre-trained base <tspan
						x="61.03" dy="1.2em" class="st10">model</tspan></text>		</g>
		<g id="shape105-237" v:mID="105" v:groupContext="shape" transform="translate(-371.298,341.015) rotate(-90)">
			<title>Sheet.105</title>
			<v:userDefs>
				<v:ud v:nameU="visNavOrder" v:prompt="" v:val="VT0(42000):26"/>
			</v:userDefs>
			<path d="M0 609.26 L88.65 609.26" class="st11"/>
		</g>
		<g id="shape106-242" v:mID="106" v:groupContext="shape" transform="translate(-371.298,500.637) rotate(-90)">
			<title>Sheet.106</title>
			<v:userDefs>
				<v:ud v:nameU="visNavOrder" v:prompt="" v:val="VT0(43000):26"/>
			</v:userDefs>
			<path d="M10.2 609.26 L10.56 609.26 L99.21 609.26" class="st13"/>
		</g>
	</g>
</svg>
