<?xml version="1.0" encoding="UTF-8" standalone="no"?>
<!-- Created with Inkscape (http://www.inkscape.org/) -->

<svg
   xmlns:dc="http://purl.org/dc/elements/1.1/"
   xmlns:cc="http://creativecommons.org/ns#"
   xmlns:rdf="http://www.w3.org/1999/02/22-rdf-syntax-ns#"
   xmlns:svg="http://www.w3.org/2000/svg"
   xmlns="http://www.w3.org/2000/svg"
   xmlns:sodipodi="http://sodipodi.sourceforge.net/DTD/sodipodi-0.dtd"
   xmlns:inkscape="http://www.inkscape.org/namespaces/inkscape"
   width="354.28568"
   height="217.85712"
   viewBox="0 0 354.28568 217.85713"
   id="svg2"
   version="1.1"
   inkscape:version="0.91 r13725"
   sodipodi:docname="database-lock.svg">
  <defs
     id="defs4">
    <marker
       inkscape:isstock="true"
       style="overflow:visible"
       id="marker5687"
       refX="0"
       refY="0"
       orient="auto"
       inkscape:stockid="Arrow2Lend">
      <path
         transform="matrix(-1.1,0,0,-1.1,-1.1,0)"
         d="M 8.7185878,4.0337352 -2.2072895,0.01601326 8.7185884,-4.0017078 c -1.7454984,2.3720609 -1.7354408,5.6174519 -6e-7,8.035443 z"
         style="fill:#000000;fill-opacity:1;fill-rule:evenodd;stroke:#000000;stroke-width:0.625;stroke-linejoin:round;stroke-opacity:1"
         id="path5689"
         inkscape:connector-curvature="0" />
    </marker>
    <marker
       inkscape:stockid="Arrow2Lend"
       orient="auto"
       refY="0"
       refX="0"
       id="Arrow2Lend"
       style="overflow:visible"
       inkscape:isstock="true"
       inkscape:collect="always">
      <path
         id="path5424"
         style="fill:#000000;fill-opacity:1;fill-rule:evenodd;stroke:#000000;stroke-width:0.625;stroke-linejoin:round;stroke-opacity:1"
         d="M 8.7185878,4.0337352 -2.2072895,0.01601326 8.7185884,-4.0017078 c -1.7454984,2.3720609 -1.7354408,5.6174519 -6e-7,8.035443 z"
         transform="matrix(-1.1,0,0,-1.1,-1.1,0)"
         inkscape:connector-curvature="0" />
    </marker>
  </defs>
  <sodipodi:namedview
     id="base"
     pagecolor="#ffffff"
     bordercolor="#666666"
     borderopacity="1.0"
     inkscape:pageopacity="0.0"
     inkscape:pageshadow="2"
     inkscape:zoom="1.4"
     inkscape:cx="67.857141"
     inkscape:cy="44.15732"
     inkscape:document-units="px"
     inkscape:current-layer="g8060"
     showgrid="false"
     units="px"
     fit-margin-top="0"
     fit-margin-left="0"
     fit-margin-right="0"
     fit-margin-bottom="0"
     inkscape:window-width="1536"
     inkscape:window-height="801"
     inkscape:window-x="-8"
     inkscape:window-y="-8"
     inkscape:window-maximized="1" />
  <metadata
     id="metadata7">
    <rdf:RDF>
      <cc:Work
         rdf:about="">
        <dc:format>image/svg+xml</dc:format>
        <dc:type
           rdf:resource="http://purl.org/dc/dcmitype/StillImage" />
        <dc:title></dc:title>
      </cc:Work>
    </rdf:RDF>
  </metadata>
  <g
     inkscape:label="Layer 1"
     inkscape:groupmode="layer"
     id="layer1"
     transform="translate(-41.854622,-629.40924)"
     style="display:inline">
    <g
       transform="matrix(1.57723,0,0,1.57723,126.27098,652.10663)"
       id="Layer_1-6">
      <g
         id="Azure" />
      <g
         id="BizTalk_Services"
         transform="translate(37.3575,-2500.2)" />
      <g
         id="Key_Vault" />
      <g
         id="Mobile_Engagement" />
      <g
         id="Office_subscription">
        <g
           id="Office_subscription_1_" />
      </g>
    </g>
    <g
       transform="matrix(1.57723,0,0,1.57723,126.27098,652.10663)"
       id="Layer_57" />
    <rect
       style="fill:#ffffff;fill-opacity:1;stroke:none;stroke-width:0.30000001;stroke-miterlimit:4;stroke-dasharray:none;stroke-opacity:1"
       id="rect8170"
       width="354.28571"
       height="217.85713"
       x="41.854607"
       y="629.40924" />
  </g>
  <g
     inkscape:groupmode="layer"
     id="layer2"
     inkscape:label="VMs"
     transform="translate(-41.854622,-57.047085)"
     style="display:inline">
    <g
       transform="translate(-25.706573,19.313864)"
       id="Layer_1" />
    <g
       id="g5197"
       transform="translate(-27.726878,131.4408)" />
    <g
       id="g8060"
       transform="translate(5.4953999,-7.3235531)">
      <g
         id="paths"
         transform="matrix(1.57723,0,0,1.57723,230.98892,98.69099)">
        <g
           id="Access_control" />
        <g
           id="Azure_active_directory" />
        <g
           id="API_Management" />
        <g
           id="Azure_automation" />
        <g
           id="Azure_SQL_database" />
        <g
           id="Azure_subscription" />
        <g
           id="Backup_service" />
        <g
           id="Bitbucket_code_source" />
        <g
           id="Azure_cache" />
        <g
           id="Content_delivery_network__x28_CDN_x29_" />
        <g
           id="Cloud_service" />
        <g
           id="CodePlex" />
        <g
           id="Dropbox_code_source" />
        <g
           id="Express_route" />
        <g
           id="Git_repository" />
        <g
           id="GitHub_code" />
        <g
           id="HD_Insight" />
        <g
           id="Health_monitoring" />
        <g
           id="Healthy" />
        <g
           id="BizTalk_hybrid_connection" />
        <g
           id="Hybrid_connection_manager_for_BizTalk_hybrid_connection" />
        <g
           id="Hyper-V_recovery_manager" />
        <g
           id="Machine_learning" />
        <g
           id="Media_services" />
        <g
           id="Microsoft_account" />
        <g
           id="Mobile_services" />
        <g
           id="Multi-factor_authentication" />
        <g
           id="MySQL_database" />
        <g
           id="Notification_hub" />
        <g
           id="Notification_topic" />
        <g
           id="Cloud_Office_365" />
        <g
           id="Office_365" />
        <g
           id="OS_image" />
        <g
           id="Remote_app" />
        <g
           id="Task_scheduler" />
        <g
           id="Azure_SDK" />
        <g
           id="Service_bus" />
        <g
           id="Service_bus_queue" />
        <g
           id="Service_bus_relay" />
        <g
           id="Service_bus_topic" />
        <g
           id="Service_endpoint" />
        <g
           id="Custom_create" />
        <g
           id="SQL_data_sync" />
        <g
           id="g55">
          <path
             id="path57"
             d="m 78.3,57 c -0.1,-0.2 -0.3,-0.3 -0.4,-0.5 -0.2,-0.1 -0.4,-0.2 -0.6,-0.2 -0.3,0 -0.5,0.1 -0.7,0.2 -0.2,0.1 -0.3,0.3 -0.5,0.4 -0.1,0.2 -0.2,0.4 -0.3,0.6 -0.1,0.2 -0.1,0.5 -0.1,0.8 0,0.4 0,0.7 0.1,0.9 0.1,0.3 0.2,0.5 0.3,0.6 0.1,0.2 0.3,0.3 0.5,0.3 0.2,0.1 0.4,0.1 0.6,0.1 0.2,0 0.4,0 0.5,-0.1 0.2,-0.1 0.3,-0.2 0.5,-0.4 0.1,-0.2 0.2,-0.4 0.3,-0.6 0.1,-0.2 0.1,-0.5 0.1,-0.9 0,-0.3 0,-0.5 -0.1,-0.8 0,0 -0.1,-0.2 -0.2,-0.4 z"
             inkscape:connector-curvature="0"
             style="fill:#0078d7" />
          <path
             id="path59"
             d="m 77,37.9 c -8,0 -14.4,2.7 -14.4,5.7 l 0,27 c 0,3 6.5,5.8 14.4,5.8 8,0 14.4,-2.7 14.4,-5.7 l 0,-27 C 91.5,40.7 85,37.9 77,37.9 Z m -4.3,22.6 c 0,0.2 -0.1,0.4 -0.2,0.6 -0.1,0.2 -0.2,0.4 -0.4,0.5 -0.2,0.2 -0.4,0.3 -0.6,0.4 -0.2,0.1 -0.5,0.2 -0.9,0.3 -0.3,0.1 -0.7,0.1 -1.2,0.1 -0.2,0 -0.5,0 -0.7,0 -0.2,0 -0.4,0 -0.6,-0.1 -0.2,0 -0.4,-0.1 -0.5,-0.1 -0.2,0 -0.3,-0.1 -0.4,-0.2 l 0,-2.1 c 0.1,0.1 0.3,0.2 0.5,0.3 0.2,0.1 0.3,0.2 0.5,0.3 0.2,0.1 0.4,0.1 0.6,0.2 0.2,0.1 0.4,0.1 0.6,0.1 0.2,0 0.3,0 0.4,-0.1 0.1,0 0.2,-0.1 0.2,-0.1 0.1,0 0.1,-0.1 0.1,-0.2 0,-0.1 0,-0.1 0,-0.2 0,-0.1 0,-0.2 -0.1,-0.3 C 69.9,59.8 69.9,59.7 69.8,59.7 69.7,59.6 69.6,59.6 69.4,59.5 69.2,59.4 69.1,59.4 68.9,59.3 68.6,59.2 68.3,59 68,58.8 67.8,58.6 67.6,58.5 67.4,58.3 67.2,58.1 67.1,57.9 67.1,57.7 67,57.5 67,57.2 67,57 c 0,-0.4 0.1,-0.7 0.2,-1 0.2,-0.3 0.4,-0.6 0.6,-0.8 0.3,-0.2 0.6,-0.4 1,-0.5 0.4,-0.1 0.8,-0.2 1.3,-0.2 0.3,0 0.5,0 0.7,0 0.2,0 0.4,0 0.6,0.1 0.2,0 0.3,0.1 0.5,0.1 0.2,0 0.3,0.1 0.4,0.1 l 0,2 c -0.1,-0.1 -0.2,-0.1 -0.4,-0.2 -0.1,-0.1 -0.3,-0.1 -0.5,-0.2 -0.2,-0.1 -0.3,-0.1 -0.5,-0.1 -0.2,0 -0.4,0 -0.6,0 -0.3,0 -0.5,0 -0.6,0.1 -0.2,0.1 -0.2,0.2 -0.2,0.4 0,0.1 0,0.2 0.1,0.2 0,0.1 0.1,0.1 0.2,0.2 0.1,0.1 0.2,0.1 0.3,0.2 0.1,0.1 0.3,0.1 0.5,0.2 0.3,0.1 0.6,0.3 0.9,0.4 0.3,0.2 0.5,0.3 0.7,0.5 0.2,0.2 0.3,0.4 0.5,0.6 0.1,0.2 0.2,0.5 0.2,0.9 -0.1,0.1 -0.2,0.3 -0.2,0.5 z m 5.9,3.8 -1.7,-1.8 c -0.5,0 -1,-0.2 -1.4,-0.3 -0.4,-0.2 -0.8,-0.5 -1.1,-0.8 -0.3,-0.3 -0.6,-0.7 -0.8,-1.2 -0.2,-0.5 -0.3,-1 -0.3,-1.6 0,-0.6 0.1,-1.2 0.3,-1.7 0.2,-0.5 0.5,-0.9 0.8,-1.3 0.3,-0.4 0.8,-0.6 1.2,-0.8 0.5,-0.2 1,-0.3 1.6,-0.3 0.6,0 1.1,0.1 1.5,0.3 0.5,0.2 0.9,0.5 1.2,0.8 0.3,0.3 0.6,0.8 0.8,1.2 0.2,0.5 0.3,1 0.3,1.7 0,0.4 0,0.9 -0.2,1.2 -0.1,0.4 -0.3,0.7 -0.5,1 -0.2,0.3 -0.4,0.6 -0.7,0.8 -0.3,0.2 -0.5,0.4 -0.9,0.6 l 2.6,2.2 -2.7,0 z m 8.6,-2 -5,0 0,-7.7 2.3,0 0,5.9 2.7,0 0,1.8 z M 77,46.3 c -5.7,0 -10.3,-1.4 -10.3,-3.1 0,-1.7 4.6,-3.1 10.3,-3.1 5.7,0 10.3,1.4 10.3,3.1 0,1.7 -4.6,3.1 -10.3,3.1 z"
             inkscape:connector-curvature="0"
             style="fill:#0078d7" />
        </g>
      </g>
      <rect
         transform="translate(-9.9743616e-8,3.5571528e-6)"
         y="146.42857"
         x="227.96176"
         height="12.857142"
         width="80.60968"
         id="rect6243"
         style="fill:#ed9292;fill-opacity:1;stroke:none;stroke-opacity:1" />
      <rect
         style="fill:#ed9292;fill-opacity:1;stroke:none;stroke-opacity:1"
         id="rect6245"
         width="81.339279"
         height="19.285713"
         x="227.71429"
         y="786.64789"
         transform="translate(-9.9743616e-8,-572.36215)" />
      <g
         style="fill:none"
         id="g7468">
        <path
           inkscape:connector-curvature="0"
           id="path7472"
           d="m 309.87067,154.22579 0,-12.87307 12.87307,0 12.87307,0 0,12.87307 0,12.87307 -12.87307,0 -12.87307,0 0,-12.87307 z"
           style="fill:none" />
        <path
           inkscape:connector-curvature="0"
           id="path7470"
           d="m 314.82709,166.89766 c -0.58694,-0.30848 -0.80876,-0.55272 -1.02996,-1.13406 -0.1752,-0.46044 -0.19729,-1.32289 -0.16554,-6.4631 l 0.0366,-5.93176 0.35924,-0.47086 c 0.45793,-0.60022 0.75352,-0.7538 1.6329,-0.84838 l 0.7112,-0.0765 0.0768,-3.02517 c 0.0561,-2.20801 0.12917,-3.1698 0.27056,-3.56058 0.75709,-2.09263 2.68607,-3.58157 5.09493,-3.93267 3.20142,-0.46661 6.22536,1.18277 7.21007,3.93267 0.13841,0.38654 0.21364,1.37653 0.27055,3.56058 l 0.0788,3.02517 0.7112,0.0765 c 0.87936,0.0946 1.17496,0.24816 1.6329,0.84835 l 0.35924,0.47084 0.0373,5.93179 c 0.0418,6.65528 0.0353,6.71198 -0.84323,7.38222 l -0.46114,0.35179 -7.79831,0.033 c -6.89105,0.0292 -7.8432,0.009 -8.18421,-0.16982 z m 9.64956,-3.98255 c -0.003,-0.28321 -0.11426,-1.12841 -0.24786,-1.87823 l -0.2429,-1.36331 0.44095,-0.54871 c 0.38883,-0.48384 0.44095,-0.63733 0.44095,-1.29841 0,-0.55905 -0.0685,-0.84214 -0.26929,-1.11316 -0.93651,-1.26393 -2.51555,-1.26393 -3.45206,0 -0.20081,0.27102 -0.2693,0.55411 -0.2693,1.11316 0,0.65321 0.0539,0.81672 0.41838,1.27032 0.2301,0.28633 0.41837,0.61592 0.41837,0.73241 0,0.11649 -0.12488,0.89456 -0.27751,1.72905 -0.15263,0.83449 -0.24066,1.6133 -0.19561,1.73069 0.0712,0.18556 0.28826,0.20872 1.66137,0.17728 l 1.57946,-0.0362 -0.005,-0.51492 z m 1.97358,-13.58109 c 0.0207,-1.45144 0.003,-2.82848 -0.0385,-3.0601 -0.2505,-1.38451 -2.48054,-2.45964 -4.34214,-2.09339 -0.963,0.18946 -1.43571,0.41357 -2.00796,0.95197 -0.77364,0.72789 -0.79358,0.82631 -0.79358,3.91621 0,1.54936 0.0395,2.85655 0.0879,2.90486 0.0483,0.0483 1.65584,0.0724 3.57227,0.0536 l 3.48443,-0.0342 0.0377,-2.63898 z"
           style="fill:none" />
      </g>
      <g
         transform="translate(-7.213203,-0.01663144)"
         id="g7515">
        <g
           id="g7474"
           transform="matrix(0.45003489,0,0,0.45003489,177.30552,82.501783)"
           style="fill:#29354a;fill-opacity:1;stroke:none;stroke-width:0.30000001;stroke-miterlimit:4;stroke-dasharray:none;stroke-opacity:1">
          <path
             inkscape:connector-curvature="0"
             id="path7476"
             style="fill:#29354a;fill-opacity:1;stroke:none;stroke-width:0.30000001;stroke-miterlimit:4;stroke-dasharray:none;stroke-opacity:1"
             d="m 317.59494,169.04051 c -0.58694,-0.30848 -0.80876,-0.55272 -1.02996,-1.13406 -0.1752,-0.46044 -0.19729,-1.32289 -0.16554,-6.4631 l 0.0366,-5.93176 0.35924,-0.47086 c 0.45793,-0.60022 0.75352,-0.7538 1.6329,-0.84838 l 0.7112,-0.0765 0.0769,-3.02517 c 0.0561,-2.20801 0.12917,-3.1698 0.27056,-3.56058 0.75709,-2.09263 2.68607,-3.58157 5.09493,-3.93267 3.20142,-0.46661 6.22536,1.18277 7.21007,3.93267 0.13841,0.38654 0.21364,1.37653 0.27055,3.56058 l 0.0788,3.02517 0.7112,0.0765 c 0.87936,0.0946 1.17496,0.24816 1.6329,0.84835 l 0.35924,0.47084 0.0373,5.93179 c 0.0418,6.65528 0.0353,6.71198 -0.84323,7.38222 l -0.46114,0.35179 -7.79831,0.033 c -6.89105,0.0292 -7.8432,0.009 -8.18421,-0.16982 z m 9.64956,-3.98255 c -0.003,-0.28321 -0.11426,-1.12841 -0.24786,-1.87823 l -0.2429,-1.36331 0.44095,-0.54871 c 0.38883,-0.48384 0.44095,-0.63733 0.44095,-1.29841 0,-0.55905 -0.0685,-0.84214 -0.26929,-1.11316 -0.93651,-1.26393 -2.51555,-1.26393 -3.45206,0 -0.20081,0.27102 -0.2693,0.55411 -0.2693,1.11316 0,0.65321 0.0539,0.81672 0.41838,1.27032 0.2301,0.28633 0.41837,0.61592 0.41837,0.73241 0,0.11649 -0.12488,0.89456 -0.27751,1.72905 -0.15263,0.83449 -0.24066,1.6133 -0.19561,1.73069 0.0712,0.18556 0.28826,0.20872 1.66137,0.17728 l 1.57946,-0.0362 -0.005,-0.51492 z m 1.97358,-13.58109 c 0.0207,-1.45144 0.003,-2.82848 -0.0385,-3.0601 -0.2505,-1.38451 -2.48054,-2.45964 -4.34214,-2.09339 -0.963,0.18946 -1.43571,0.41357 -2.00796,0.95197 -0.77364,0.72789 -0.79358,0.82631 -0.79358,3.91621 0,1.54936 0.0395,2.85655 0.0879,2.90486 0.0483,0.0483 1.65584,0.0725 3.57227,0.0536 l 3.48443,-0.0342 0.0377,-2.63898 z" />
        </g>
        <path
           style="fill:#ffffff;fill-opacity:1;stroke:none;stroke-width:0.30000001;stroke-miterlimit:4;stroke-dasharray:none;stroke-opacity:1"
           d="m 323.83956,153.57227 c -0.28302,0 -0.56661,0.14137 -0.77734,0.42578 -0.0904,0.12197 -0.1211,0.25036 -0.1211,0.50195 0,0.29397 0.0235,0.36618 0.1875,0.57031 0.10355,0.12886 0.18946,0.27766 0.18946,0.33008 0,0.0524 -0.0563,0.40179 -0.125,0.77734 -0.0687,0.37555 -0.1082,0.72647 -0.0879,0.7793 0.032,0.0835 0.13009,0.0942 0.74804,0.0801 l 0.70899,-0.0156 -0.002,-0.23242 c -9.9e-4,-0.12746 -0.0512,-0.50826 -0.11132,-0.8457 l -0.10938,-0.61328 0.19922,-0.2461 c 0.17499,-0.21774 0.19727,-0.28647 0.19727,-0.58398 0,-0.25159 -0.0307,-0.37998 -0.1211,-0.50195 -0.21073,-0.28441 -0.49237,-0.42578 -0.77539,-0.42578 z"
           id="path7476-2"
           inkscape:connector-curvature="0" />
      </g>
      <g
         id="g7520"
         transform="translate(-8.4758941,71.054809)">
        <g
           style="fill:#29354a;fill-opacity:1;stroke:none;stroke-width:0.30000001;stroke-miterlimit:4;stroke-dasharray:none;stroke-opacity:1"
           transform="matrix(0.45003489,0,0,0.45003489,177.30552,82.501783)"
           id="g7522">
          <path
             d="m 317.59494,169.04051 c -0.58694,-0.30848 -0.80876,-0.55272 -1.02996,-1.13406 -0.1752,-0.46044 -0.19729,-1.32289 -0.16554,-6.4631 l 0.0366,-5.93176 0.35924,-0.47086 c 0.45793,-0.60022 0.75352,-0.7538 1.6329,-0.84838 l 0.7112,-0.0765 0.0769,-3.02517 c 0.0561,-2.20801 0.12917,-3.1698 0.27056,-3.56058 0.75709,-2.09263 2.68607,-3.58157 5.09493,-3.93267 3.20142,-0.46661 6.22536,1.18277 7.21007,3.93267 0.13841,0.38654 0.21364,1.37653 0.27055,3.56058 l 0.0788,3.02517 0.7112,0.0765 c 0.87936,0.0946 1.17496,0.24816 1.6329,0.84835 l 0.35924,0.47084 0.0373,5.93179 c 0.0418,6.65528 0.0353,6.71198 -0.84323,7.38222 l -0.46114,0.35179 -7.79831,0.033 c -6.89105,0.0292 -7.8432,0.009 -8.18421,-0.16982 z m 9.64956,-3.98255 c -0.003,-0.28321 -0.11426,-1.12841 -0.24786,-1.87823 l -0.2429,-1.36331 0.44095,-0.54871 c 0.38883,-0.48384 0.44095,-0.63733 0.44095,-1.29841 0,-0.55905 -0.0685,-0.84214 -0.26929,-1.11316 -0.93651,-1.26393 -2.51555,-1.26393 -3.45206,0 -0.20081,0.27102 -0.2693,0.55411 -0.2693,1.11316 0,0.65321 0.0539,0.81672 0.41838,1.27032 0.2301,0.28633 0.41837,0.61592 0.41837,0.73241 0,0.11649 -0.12488,0.89456 -0.27751,1.72905 -0.15263,0.83449 -0.24066,1.6133 -0.19561,1.73069 0.0712,0.18556 0.28826,0.20872 1.66137,0.17728 l 1.57946,-0.0362 -0.005,-0.51492 z m 1.97358,-13.58109 c 0.0207,-1.45144 0.003,-2.82848 -0.0385,-3.0601 -0.2505,-1.38451 -2.48054,-2.45964 -4.34214,-2.09339 -0.963,0.18946 -1.43571,0.41357 -2.00796,0.95197 -0.77364,0.72789 -0.79358,0.82631 -0.79358,3.91621 0,1.54936 0.0395,2.85655 0.0879,2.90486 0.0483,0.0483 1.65584,0.0725 3.57227,0.0536 l 3.48443,-0.0342 0.0377,-2.63898 z"
             style="fill:#29354a;fill-opacity:1;stroke:none;stroke-width:0.30000001;stroke-miterlimit:4;stroke-dasharray:none;stroke-opacity:1"
             id="path7524"
             inkscape:connector-curvature="0" />
        </g>
        <path
           inkscape:connector-curvature="0"
           id="path7526"
           d="m 323.83956,153.57227 c -0.28302,0 -0.56661,0.14137 -0.77734,0.42578 -0.0904,0.12197 -0.1211,0.25036 -0.1211,0.50195 0,0.29397 0.0235,0.36618 0.1875,0.57031 0.10355,0.12886 0.18946,0.27766 0.18946,0.33008 0,0.0524 -0.0563,0.40179 -0.125,0.77734 -0.0687,0.37555 -0.1082,0.72647 -0.0879,0.7793 0.032,0.0835 0.13009,0.0942 0.74804,0.0801 l 0.70899,-0.0156 -0.002,-0.23242 c -9.9e-4,-0.12746 -0.0512,-0.50826 -0.11132,-0.8457 l -0.10938,-0.61328 0.19922,-0.2461 c 0.17499,-0.21774 0.19727,-0.28647 0.19727,-0.58398 0,-0.25159 -0.0307,-0.37998 -0.1211,-0.50195 -0.21073,-0.28441 -0.49237,-0.42578 -0.77539,-0.42578 z"
           style="fill:#ffffff;fill-opacity:1;stroke:none;stroke-width:0.30000001;stroke-miterlimit:4;stroke-dasharray:none;stroke-opacity:1" />
      </g>
      <g
         id="g5342">
        <circle
           transform="translate(0,-572.36216)"
           style="fill:none;stroke:#313131;stroke-opacity:1"
           id="path5124"
           cx="85.862968"
           cy="681.63617"
           r="36.36549" />
        <g
           transform="translate(-28.737032,20.324009)"
           id="Ibiza_Symbols">
          <g
             id="g6">
            <path
               style="fill:#0078d7"
               inkscape:connector-curvature="0"
               d="m 131,71.7 -33.1,0 c -1.1,0 -2,1 -2,2.1 l 0,23.1 c 0,1.1 0.9,2.1 2,2.1 l 11.3,0 c 1.2,4.3 -0.4,4.9 -7.6,4.9 l 0,2.3 9.1,0 6.7,0 8.6,0 0,-2.3 c -7.2,0 -7.9,-0.6 -6.7,-4.9 l 11.7,0 c 1.1,0 2.3,-1 2.3,-2.1 l 0,-23.1 c 0,-1.1 -1.2,-2.1 -2.3,-2.1 z m -0.6,2.8 0,21.6 -31.7,0 0,-21.6 31.7,0 0,0 z"
               id="path8" />
            <g
               id="group975-1984_1_"
               transform="translate(1176.51,-2762.63)">
              <title
                 id="title11">Sheet.975</title>
              <g
                 id="shape976-1985_2_"
                 transform="translate(0.8685,-17.652)">
                <title
                   id="title14">Sheet.976</title>
                <path
                   style="fill:#0078d7"
                   inkscape:connector-curvature="0"
                   d="m -1057.4,2861.6 -5.8,-3.3 -5.8,3.3 0,0.1 5.8,3.3 5.8,-3.4 0,0 z"
                   id="path16" />
              </g>
              <g
                 id="shape977-1987_1_"
                 transform="translate(15.8925,0)">
                <title
                   id="title19">Sheet.977</title>
                <path
                   style="fill:#0078d7"
                   inkscape:connector-curvature="0"
                   d="m -1077.6,2848.3 0,6.6 5.8,-3.3 0,-6.6 -5.8,3.3 z"
                   id="path21" />
              </g>
              <g
                 id="shape978-1989_1_">
                <title
                   id="title24">Sheet.978</title>
                <path
                   style="fill:#0078d7"
                   inkscape:connector-curvature="0"
                   d="m -1062.9,2848.3 -5.8,-3.3 0,6.6 5.8,3.3 0,-6.6 z"
                   id="path26" />
              </g>
            </g>
          </g>
        </g>
      </g>
      <g
         id="g5377">
        <g
           id="g5360">
          <circle
             r="36.36549"
             cy="793.25806"
             cx="85.862968"
             id="path5124-6"
             style="fill:none;stroke:#313131;stroke-opacity:1"
             transform="translate(0,-572.36216)" />
          <g
             transform="translate(-28.737032,131.9459)"
             id="g5199">
            <g
               id="g5201">
              <path
                 style="fill:#0078d7"
                 inkscape:connector-curvature="0"
                 d="m 131,71.7 -33.1,0 c -1.1,0 -2,1 -2,2.1 l 0,23.1 c 0,1.1 0.9,2.1 2,2.1 l 11.3,0 c 1.2,4.3 -0.4,4.9 -7.6,4.9 l 0,2.3 9.1,0 6.7,0 8.6,0 0,-2.3 c -7.2,0 -7.9,-0.6 -6.7,-4.9 l 11.7,0 c 1.1,0 2.3,-1 2.3,-2.1 l 0,-23.1 c 0,-1.1 -1.2,-2.1 -2.3,-2.1 z m -0.6,2.8 0,21.6 -31.7,0 0,-21.6 31.7,0 0,0 z"
                 id="path5203" />
              <g
                 id="g5205"
                 transform="translate(1176.51,-2762.63)">
                <title
                   id="title5207">Sheet.975</title>
                <g
                   id="g5209"
                   transform="translate(0.8685,-17.652)">
                  <title
                     id="title5211">Sheet.976</title>
                  <path
                     style="fill:#0078d7"
                     inkscape:connector-curvature="0"
                     d="m -1057.4,2861.6 -5.8,-3.3 -5.8,3.3 0,0.1 5.8,3.3 5.8,-3.4 0,0 z"
                     id="path5213" />
                </g>
                <g
                   id="g5215"
                   transform="translate(15.8925,0)">
                  <title
                     id="title5217">Sheet.977</title>
                  <path
                     style="fill:#0078d7"
                     inkscape:connector-curvature="0"
                     d="m -1077.6,2848.3 0,6.6 5.8,-3.3 0,-6.6 -5.8,3.3 z"
                     id="path5219" />
                </g>
                <g
                   id="g5221">
                  <title
                     id="title5223">Sheet.978</title>
                  <path
                     style="fill:#0078d7"
                     inkscape:connector-curvature="0"
                     d="m -1062.9,2848.3 -5.8,-3.3 0,6.6 5.8,3.3 0,-6.6 z"
                     id="path5225" />
                </g>
              </g>
            </g>
          </g>
        </g>
      </g>
      <path
         inkscape:connector-curvature="0"
         id="path5397"
         d="m 125.88549,115.52716 94.95434,37.37565"
         style="fill:none;fill-rule:evenodd;stroke:#000000;stroke-width:1px;stroke-linecap:butt;stroke-linejoin:miter;stroke-opacity:1;marker-end:url(#Arrow2Lend)" />
      <path
         sodipodi:nodetypes="cc"
         style="fill:none;fill-rule:evenodd;stroke:#000000;stroke-width:1px;stroke-linecap:butt;stroke-linejoin:miter;stroke-opacity:1;marker-end:url(#marker5687)"
         d="m 125.92063,222.23237 95.97501,-0.44634"
         id="path5685"
         inkscape:connector-curvature="0" />
      <text
         sodipodi:linespacing="125%"
         id="text5999"
         y="122.95059"
         x="154.92972"
         style="font-style:normal;font-weight:normal;font-size:15px;line-height:125%;font-family:sans-serif;letter-spacing:0px;word-spacing:0px;fill:#000000;fill-opacity:1;stroke:none;stroke-width:1px;stroke-linecap:butt;stroke-linejoin:miter;stroke-opacity:1"
         xml:space="preserve"><tspan
           y="122.95059"
           x="154.92972"
           id="tspan6001"
           sodipodi:role="line">Update</tspan></text>
      <rect
         y="125.43645"
         x="228.29448"
         height="49.497475"
         width="80.812202"
         id="rect6099"
         style="fill:none;stroke:#313131;stroke-opacity:1" />
      <text
         sodipodi:linespacing="125%"
         id="text6101"
         y="137.14285"
         x="247.46645"
         style="font-style:normal;font-weight:normal;font-size:12.5px;line-height:125%;font-family:sans-serif;letter-spacing:0px;word-spacing:0px;fill:#000000;fill-opacity:1;stroke:none;stroke-width:1px;stroke-linecap:butt;stroke-linejoin:miter;stroke-opacity:1"
         xml:space="preserve"><tspan
           y="137.14285"
           x="247.46645"
           id="tspan6103"
           sodipodi:role="line">Orders</tspan></text>
      <rect
         style="fill:none;stroke:#313131;stroke-width:1.08835578;stroke-opacity:1"
         id="rect6105"
         width="80.723846"
         height="58.694832"
         x="228.33865"
         y="194.05205" />
      <text
         sodipodi:linespacing="125%"
         id="text6107"
         y="207.14285"
         x="232.56166"
         style="font-style:normal;font-weight:normal;font-size:12.5px;line-height:125%;font-family:sans-serif;letter-spacing:0px;word-spacing:0px;fill:#000000;fill-opacity:1;stroke:none;stroke-width:1px;stroke-linecap:butt;stroke-linejoin:miter;stroke-opacity:1"
         xml:space="preserve"><tspan
           y="207.14285"
           x="232.56166"
           id="tspan6109"
           sodipodi:role="line">OrderItems</tspan></text>
      <text
         xml:space="preserve"
         style="font-style:normal;font-weight:normal;font-size:15px;line-height:125%;font-family:sans-serif;text-align:center;letter-spacing:0px;word-spacing:0px;text-anchor:middle;fill:#000000;fill-opacity:1;stroke:none;stroke-width:1px;stroke-linecap:butt;stroke-linejoin:miter;stroke-opacity:1"
         x="164.76242"
         y="211.32768"
         id="text7990"
         sodipodi:linespacing="125%"><tspan
           sodipodi:role="line"
           id="tspan7992"
           x="164.76242"
           y="211.32768">Update</tspan><tspan
           id="tspan7994"
           sodipodi:role="line"
           x="164.76242"
           y="230.07768" /><tspan
           id="tspan7996"
           sodipodi:role="line"
           x="164.76242"
           y="248.82768">(blocked)</tspan></text>
      <path
         sodipodi:nodetypes="cc"
         inkscape:connector-curvature="0"
         id="path7998"
         d="m 268.70058,175.71429 0,17.9438"
         style="fill:none;fill-rule:evenodd;stroke:#000000;stroke-width:1px;stroke-linecap:butt;stroke-linejoin:miter;stroke-opacity:1" />
      <text
         xml:space="preserve"
         style="font-style:normal;font-weight:normal;font-size:15px;line-height:125%;font-family:sans-serif;letter-spacing:0px;word-spacing:0px;fill:#000000;fill-opacity:1;stroke:none;stroke-width:1px;stroke-linecap:butt;stroke-linejoin:miter;stroke-opacity:1"
         x="59.217461"
         y="162.95059"
         id="text8292"
         sodipodi:linespacing="125%"><tspan
           sodipodi:role="line"
           id="tspan8294"
           x="59.217461"
           y="162.95059">Node 1</tspan></text>
      <text
         sodipodi:linespacing="125%"
         id="text8296"
         y="275.80774"
         x="58.906181"
         style="font-style:normal;font-weight:normal;font-size:15px;line-height:125%;font-family:sans-serif;letter-spacing:0px;word-spacing:0px;fill:#000000;fill-opacity:1;stroke:none;stroke-width:1px;stroke-linecap:butt;stroke-linejoin:miter;stroke-opacity:1"
         xml:space="preserve"><tspan
           y="275.80774"
           x="58.906181"
           id="tspan8298"
           sodipodi:role="line">Node 2</tspan></text>
    </g>
  </g>
</svg>
