<?xml version="1.0" encoding="UTF-8" standalone="no"?>
<!DOCTYPE svg PUBLIC "-//W3C//DTD SVG 1.1//EN" "http://www.w3.org/Graphics/SVG/1.1/DTD/svg11.dtd">
<!-- Generated by Microsoft Visio, SVG Export train-machine-learning-models-on-premises-data-at-edge.svg train-machine-learning-models -->
<svg xmlns="http://www.w3.org/2000/svg" xmlns:xlink="http://www.w3.org/1999/xlink" xmlns:ev="http://www.w3.org/2001/xml-events"
		xmlns:v="http://schemas.microsoft.com/visio/2003/SVGExtensions/" width="7in" height="4.67in" viewBox="0 0 504 336.24"
		xml:space="preserve" color-interpolation-filters="sRGB" class="st39">
	<v:documentProperties v:langID="1033" v:viewMarkup="false">
		<v:userDefs>
			<v:ud v:nameU="msvNoAutoConnect" v:val="VT0(1):26"/>
			<v:ud v:nameU="msvWarnOnPersonalInfo" v:val="VT0(0):5"/>
		</v:userDefs>
	</v:documentProperties>

	<style type="text/css">
	<![CDATA[
		.st1 {fill:#ecf3fb;stroke:none;stroke-width:0.25}
		.st2 {fill:url(#grad0-10);stroke:none;stroke-linecap:butt;stroke-width:0.75}
		.st3 {fill:#0078d4;stroke:none;stroke-linecap:butt;stroke-width:0.75}
		.st4 {fill:#000000;fill-opacity:0.5;stroke:none;stroke-linecap:butt;stroke-width:0.75}
		.st5 {fill:#000000;fill-opacity:0.25;stroke:none;stroke-linecap:butt;stroke-width:0.75}
		.st6 {fill:url(#grad0-26);stroke:none;stroke-linecap:butt;stroke-width:0.75}
		.st7 {fill:none;stroke:none;stroke-width:0.25}
		.st8 {fill:#7f7f7f;font-family:Segoe UI Semibold;font-size:0.833336em}
		.st9 {font-size:1em}
		.st10 {fill:#107c10;stroke:none;stroke-width:1.5}
		.st11 {fill:#ffffff;font-family:Segoe UI;font-size:0.916672em}
		.st12 {fill:#198ab3;stroke:none;stroke-linecap:butt;stroke-width:0.75}
		.st13 {fill:url(#grad0-40);stroke:none;stroke-linecap:butt;stroke-width:0.75}
		.st14 {fill:#32bedd;stroke:none;stroke-linecap:butt;stroke-width:0.75}
		.st15 {fill:#000000;font-family:Segoe UI;font-size:0.916672em}
		.st16 {fill:url(#grad0-49);stroke:none;stroke-linecap:butt;stroke-width:0.75}
		.st17 {fill:#50e6ff;stroke:none;stroke-linecap:butt;stroke-width:0.75}
		.st18 {fill:#c3f1ff;stroke:none;stroke-linecap:butt;stroke-width:0.75}
		.st19 {fill:#9cebff;stroke:none;stroke-linecap:butt;stroke-width:0.75}
		.st20 {fill:url(#grad0-63);stroke:none;stroke-linecap:butt;stroke-width:0.75}
		.st21 {marker-end:url(#mrkr4-75);stroke:#000000;stroke-linecap:butt;stroke-width:1.5}
		.st22 {fill:#000000;fill-opacity:1;stroke:#000000;stroke-opacity:1;stroke-width:0.37313432835821}
		.st23 {fill:#000000;stroke:none;stroke-linecap:butt;stroke-width:0.298828}
		.st24 {fill:url(#grad0-85);stroke:none;stroke-width:0.999999}
		.st25 {fill:none}
		.st26 {stroke:none;stroke-linecap:butt;stroke-width:31.4382}
		.st27 {fill:#767676;stroke:none;stroke-linecap:butt;stroke-width:31.4382}
		.st28 {fill:#999999;stroke:none;stroke-width:0.999999}
		.st29 {fill:#a3a3a3;stroke:none;stroke-linecap:butt;stroke-width:31.4382}
		.st30 {fill:#b3b3b3;stroke:none;stroke-linecap:butt;stroke-width:31.4382}
		.st31 {fill:url(#grad0-120);stroke:none;stroke-linecap:butt;stroke-width:31.4382}
		.st32 {fill:#999999;stroke:none;stroke-linecap:butt;stroke-width:31.4382}
		.st33 {marker-start:url(#mrkr4-162);stroke:#000000;stroke-linecap:butt;stroke-width:1.5}
		.st34 {marker-end:url(#mrkr4-75);marker-start:url(#mrkr4-162);stroke:#000000;stroke-linecap:round;stroke-linejoin:round;stroke-width:1.5}
		.st35 {fill:#000000;font-family:Segoe UI Semibold;font-size:1.00001em}
		.st36 {fill:url(#grad0-197);stroke:none;stroke-linecap:butt;stroke-width:0.75}
		.st37 {fill:#ffffff;fill-opacity:0.9;stroke:none;stroke-linecap:butt;stroke-width:0.75}
		.st38 {fill:#ffd400;stroke:none;stroke-linecap:butt;stroke-width:0.75}
		.st39 {fill:none;fill-rule:evenodd;font-size:12px;overflow:visible;stroke-linecap:square;stroke-miterlimit:3}
	]]>
	</style>

	<defs id="Patterns_And_Gradients">
		<linearGradient id="grad0-10" x1="0" y1="0" x2="1" y2="0" gradientTransform="rotate(116.95960434515 0.5 0.5)">
			<stop offset="0" stop-color="#114a8b" stop-opacity="1"/>
			<stop offset="1" stop-color="#0669bc" stop-opacity="1"/>
		</linearGradient>
		<linearGradient id="grad0-26" x1="0" y1="0" x2="1" y2="0" gradientTransform="rotate(61.849084498542 0.5 0.5)">
			<stop offset="0" stop-color="#3ccbf4" stop-opacity="1"/>
			<stop offset="1" stop-color="#2892df" stop-opacity="1"/>
		</linearGradient>
		<linearGradient id="grad0-40" x1="0" y1="0" x2="1" y2="0" gradientTransform="rotate(0 0.5 0.5)">
			<stop offset="0" stop-color="#50c7e8" stop-opacity="1"/>
			<stop offset="0.25" stop-color="#4cc3e4" stop-opacity="1"/>
			<stop offset="0.51" stop-color="#41b6da" stop-opacity="1"/>
			<stop offset="0.77" stop-color="#2fa2c8" stop-opacity="1"/>
			<stop offset="1" stop-color="#1989b2" stop-opacity="1"/>
		</linearGradient>
		<linearGradient id="grad0-49" x1="0" y1="0" x2="1" y2="0" gradientTransform="rotate(-90 0.5 0.5)">
			<stop offset="0" stop-color="#0078d4" stop-opacity="1"/>
			<stop offset="0.82" stop-color="#5ea0ef" stop-opacity="1"/>
		</linearGradient>
		<linearGradient id="grad0-63" x1="0" y1="0" x2="1" y2="0" gradientTransform="rotate(-90 0.5 0.5)">
			<stop offset="0.15" stop-color="#cccccc" stop-opacity="1"/>
			<stop offset="1" stop-color="#707070" stop-opacity="1"/>
		</linearGradient>
		<linearGradient id="grad0-85" x1="0" y1="0" x2="1" y2="0" gradientTransform="rotate(-90 0.5 0.5)">
			<stop offset="0" stop-color="#0078d4" stop-opacity="1"/>
			<stop offset="0.16" stop-color="#1380da" stop-opacity="1"/>
			<stop offset="0.53" stop-color="#3c91e5" stop-opacity="1"/>
			<stop offset="0.82" stop-color="#559cec" stop-opacity="1"/>
			<stop offset="1" stop-color="#5ea0ef" stop-opacity="1"/>
		</linearGradient>
		<linearGradient id="grad0-120" x1="0" y1="0" x2="1" y2="0" gradientTransform="rotate(90 0.5 0.5)">
			<stop offset="0" stop-color="#333132" stop-opacity="1"/>
			<stop offset="1" stop-color="#5b5a5c" stop-opacity="1"/>
		</linearGradient>
		<linearGradient id="grad0-197" x1="0" y1="0" x2="1" y2="0" gradientTransform="rotate(-90 0.5 0.5)">
			<stop offset="0" stop-color="#0078d4" stop-opacity="1"/>
			<stop offset="0.5" stop-color="#4093e6" stop-opacity="1"/>
			<stop offset="0.775" stop-color="#5ea0ef" stop-opacity="1"/>
		</linearGradient>
	</defs>
	<defs id="Markers">
		<g id="lend4">
			<path d="M 2 1 L 0 0 L 2 -1 L 2 1 " style="stroke:none"/>
		</g>
		<marker id="mrkr4-75" class="st22" v:arrowType="4" v:arrowSize="2" v:setback="5.36" refX="-5.36" orient="auto"
				markerUnits="strokeWidth" overflow="visible">
			<use xlink:href="#lend4" transform="scale(-2.68,-2.68) "/>
		</marker>
		<marker id="mrkr4-162" class="st22" v:arrowType="4" v:arrowSize="2" v:setback="5.12" refX="5.12" orient="auto"
				markerUnits="strokeWidth" overflow="visible">
			<use xlink:href="#lend4" transform="scale(2.68) "/>
		</marker>
	</defs>
	<g v:mID="10" v:index="1" v:groupContext="foregroundPage">
		<v:userDefs>
			<v:ud v:nameU="msvThemeOrder" v:val="VT0(0):26"/>
		</v:userDefs>
		<title>train-machine-learning-models</title>
		<v:pageProperties v:drawingScale="1" v:pageScale="1" v:drawingUnits="19" v:shadowOffsetX="9" v:shadowOffsetY="-9"/>
		<v:layer v:name="Azure" v:index="0"/>
		<v:layer v:name="Connector" v:index="1"/>
		<g id="shape1087-1" v:mID="1087" v:groupContext="shape" transform="translate(20.25,-198)">
			<title>Sheet.1087</title>
			<rect x="0" y="218.396" width="463.5" height="117.844" class="st1"/>
		</g>
		<g id="shape1088-3" v:mID="1088" v:groupContext="shape" transform="translate(21.375,-58.517)">
			<title>Sheet.1088</title>
			<rect x="0" y="210.257" width="461.25" height="125.983" class="st1"/>
		</g>
		<g id="group1001-5" transform="translate(30.96,-25.9455)" v:mID="1001" v:groupContext="group">
			<v:userDefs>
				<v:ud v:nameU="msvDisableCustomConnectionPoints" v:prompt="" v:val="VT4(True)"/>
			</v:userDefs>
			<title>Azure.1002</title>
			<g id="group1002-6" v:mID="1002" v:groupContext="group">
				<title>Sheet.1002</title>
				<g id="shape1003-7" v:mID="1003" v:groupContext="shape">
					<title>Sheet.1003</title>
					<path d="M7.66 313.2 L14.52 313.2 L7.41 335.47 A1.07525 1.13553 0 0 1 6.39 336.24 L1.02 336.24 A1.07472 1.13497
								 0 0 1 0 334.74 L6.64 313.97 A1.07367 1.13386 0 0 1 7.66 313.2 Z" class="st2"/>
				</g>
				<g id="shape1004-11" v:mID="1004" v:groupContext="shape" transform="translate(5.85128,0)">
					<title>Sheet.1004</title>
					<path d="M11.28 327.71 L0.46 327.71 a0.500521 0.528578 -180 0 0 -0.341575 0.914313 L7.54 335.93 A1.07525 1.13553
								 -180 0 0 8.28 336.24 L14.41 336.24 L11.28 327.71 Z" class="st3"/>
				</g>
				<g id="group1005-13" transform="translate(8.29149,0)" v:mID="1005" v:groupContext="group">
					<title>Sheet.1005</title>
					<g id="shape1006-14" v:mID="1006" v:groupContext="shape" transform="translate(4.72468,0)">
						<title>Sheet.1006</title>
						<path d="M2.19 336.24 L7.24 336.24 L4.11 327.71 L0 327.71 L2.38 335.14 A1.08683 1.14775 0 0 1 2.19 336.24
									 Z" class="st4"/>
					</g>
					<g id="shape1007-16" v:mID="1007" v:groupContext="shape" transform="translate(5.94524E-14,-13.4357)">
						<title>Sheet.1007</title>
						<path d="M3.16 336.24 L6.23 326.63 L0 326.63 A1.08841 1.14942 0 0 1 0.21 327.02 L3.16 336.24 Z" class="st4"/>
					</g>
				</g>
				<g id="group1008-18" transform="translate(7.90254,0)" v:mID="1008" v:groupContext="group">
					<title>Sheet.1008</title>
					<g id="shape1009-19" v:mID="1009" v:groupContext="shape" transform="translate(0,-12.8032)">
						<title>Sheet.1009</title>
						<path d="M0 326 L3.35 336.24 L3.81 334.78 L1.01 326 L0 326 Z" class="st5"/>
					</g>
					<g id="shape1010-21" v:mID="1010" v:groupContext="shape" transform="translate(4.68679,0)">
						<title>Sheet.1010</title>
						<path d="M1.66 336.24 L3.1 336.24 A1.48419 1.56739 -180 0 0 3.19 335.01 L0.85 327.71 L0 327.71 L2.42 335.28
									 a0.687887 0.726448 0 0 1 -0.649466 0.961001 L1.66 336.24 Z" class="st5"/>
					</g>
				</g>
				<g id="shape1011-23" v:mID="1011" v:groupContext="shape" transform="translate(7.73728,0)">
					<title>Sheet.1011</title>
					<path d="M8.67 313.97 A1.07367 1.13386 -180 0 0 7.65 313.2 L0 313.2 A1.09104 1.1522 0 0 1 1.03 313.98 L7.66 334.72
								 A1.09051 1.15164 0 0 1 6.63 336.24 L14.29 336.24 A1.07472 1.13497 -180 0 0 15.31 334.74 L8.67 313.97
								 Z" class="st6"/>
				</g>
			</g>
		</g>
		<g id="shape1012-27" v:mID="1012" v:groupContext="shape" transform="translate(48.96,-19.44)">
			<title>Sheet.1012</title>
			<desc>Microsoft Azure</desc>
			<v:textBlock v:margins="rect(4,4,4,4)"/>
			<v:textRect cx="28.8431" cy="318.213" width="57.69" height="36.0539"/>
			<rect x="0" y="300.186" width="57.6862" height="36.0539" class="st7"/>
			<text x="7.06" y="315.21" class="st8" v:langID="1033"><v:paragraph v:horizAlign="1"/><v:tabList/>Microsoft<v:newlineChar/><tspan
						x="15.74" dy="1.2em" class="st9">Azure</tspan></text>		</g>
		<g id="shape1013-31" v:mID="1013" v:groupContext="shape" v:layerMember="0" transform="translate(301.5,-82.5083)">
			<title>Number.1358</title>
			<desc>1</desc>
			<v:userDefs>
				<v:ud v:nameU="visLegendShape" v:val="VT0(2):26"/>
				<v:ud v:nameU="visLocToPar" v:val="VT7(PNT(0,4.9960036108132E-16)):40"/>
				<v:ud v:nameU="visVersion" v:val="VT0(11):26"/>
				<v:ud v:nameU="visIsConnected" v:prompt="" v:val="VT0(0):26"/>
				<v:ud v:nameU="visLocToPar" v:prompt="" v:val="VT7(PNT(4.1874996075407,1.1459488827675)):40"/>
			</v:userDefs>
			<v:textBlock v:margins="rect(0,0,0,0)"/>
			<v:textRect cx="11.4057" cy="324.89" width="33.84" height="23.0429"/>
			<ellipse cx="11.5215" cy="324.719" rx="11.5215" ry="11.5215" class="st10"/>
			<text x="8.44" y="328.19" class="st11" v:langID="1033"><v:paragraph v:horizAlign="1"/><v:tabList/>1</text>		</g>
		<g id="group1014-34" transform="translate(211.951,-263.028)" v:mID="1014" v:groupContext="group">
			<title>Azure ML.1138</title>
			<desc>Azure Machine Learning</desc>
			<g id="shape1015-35" v:mID="1015" v:groupContext="shape">
				<title>bc892891-989d-4c43-80d3-d2b4546</title>
				<path d="M43.12 336.24 L3.23 336.24 L0 325.06 L46.35 325.06 L43.12 336.24 Z" class="st12"/>
			</g>
			<g id="shape1016-37" v:mID="1016" v:groupContext="shape">
				<title>Sheet.1016</title>
				<path d="M17.01 289.89 L17.01 307.34 L0 325.06 L3.23 336.24 L29.33 307.34 L29.33 289.89 L17.01 289.89 Z"
						class="st13"/>
			</g>
			<g id="shape1017-41" v:mID="1017" v:groupContext="shape" transform="translate(24.9335,2.84217E-13)">
				<title>e6be01d6-345d-4df4-bbdb-151aa8e</title>
				<path d="M18.19 336.24 L0 318.79 L7.63 310.61 L21.41 325.06 L18.19 336.24 Z" class="st14"/>
			</g>
			<g id="shape1014-43" v:mID="1014" v:groupContext="groupContent">
				<v:textBlock v:margins="rect(0,0,0,0)"/>
				<v:textRect cx="23.1736" cy="344.041" width="121.51" height="13.2037"/>
				<text x="-35.46" y="347.34" class="st15" v:langID="1033"><v:paragraph v:horizAlign="1"/><v:tabList/>Azure Machine Learning</text>			</g>
		</g>
		<g id="group1018-45" transform="translate(214.201,-87.992)" v:mID="1018" v:groupContext="group">
			<title>Virtual Machine.1111</title>
			<desc>Azure Virtual Machine</desc>
			<g id="shape1019-46" v:mID="1019" v:groupContext="shape" transform="translate(0,-12.9036)">
				<title>Sheet.1019</title>
				<v:userDefs>
					<v:ud v:nameU="msvDisableCustomConnectionPoints" v:prompt="" v:val="VT0(1):5"/>
				</v:userDefs>
				<path d="M0 334.57 A1.54494 1.67221 -180 0 0 1.54 336.24 L44.8 336.24 A1.54494 1.67221 -180 0 0 46.35 334.57 L46.35
							 304.47 A1.54494 1.67221 -180 0 0 44.8 302.8 L1.54 302.8 A1.54494 1.67221 -180 0 0 0 304.47 L0 334.57
							 Z" class="st16"/>
			</g>
			<g id="shape1020-50" v:mID="1020" v:groupContext="shape" transform="translate(23.1735,-19.871)">
				<title>Sheet.1020</title>
				<v:userDefs>
					<v:ud v:nameU="msvDisableCustomConnectionPoints" v:prompt="" v:val="VT0(1):5"/>
				</v:userDefs>
				<path d="M7.72 321.61 L7.72 331.33 L0 336.24 L0 326.49 L7.72 321.61 Z" class="st17"/>
			</g>
			<g id="shape1021-52" v:mID="1021" v:groupContext="shape" transform="translate(15.449,-29.5975)">
				<title>Sheet.1021</title>
				<v:userDefs>
					<v:ud v:nameU="msvDisableCustomConnectionPoints" v:prompt="" v:val="VT0(1):5"/>
				</v:userDefs>
				<path d="M15.45 331.33 L7.72 336.24 L0 331.33 L7.72 326.46 L15.45 331.33 Z" class="st18"/>
			</g>
			<g id="shape1022-54" v:mID="1022" v:groupContext="shape" transform="translate(15.449,-19.871)">
				<title>Sheet.1022</title>
				<v:userDefs>
					<v:ud v:nameU="msvDisableCustomConnectionPoints" v:prompt="" v:val="VT0(1):5"/>
				</v:userDefs>
				<path d="M7.72 326.51 L7.72 336.24 L0 331.33 L0 321.61 L7.72 326.51 Z" class="st19"/>
			</g>
			<g id="shape1023-56" v:mID="1023" v:groupContext="shape" transform="translate(15.449,-19.871)">
				<title>Sheet.1023</title>
				<v:userDefs>
					<v:ud v:nameU="msvDisableCustomConnectionPoints" v:prompt="" v:val="VT0(1):5"/>
				</v:userDefs>
				<path d="M0 331.33 L7.72 326.49 L7.72 336.24 L0 331.33 Z" class="st18"/>
			</g>
			<g id="shape1024-58" v:mID="1024" v:groupContext="shape" transform="translate(23.1735,-19.871)">
				<title>Sheet.1024</title>
				<v:userDefs>
					<v:ud v:nameU="msvDisableCustomConnectionPoints" v:prompt="" v:val="VT0(1):5"/>
				</v:userDefs>
				<path d="M7.72 331.33 L0 326.49 L0 336.24 L7.72 331.33 Z" class="st19"/>
			</g>
			<g id="shape1025-60" v:mID="1025" v:groupContext="shape" transform="translate(11.5868,0)">
				<title>Sheet.1025</title>
				<v:userDefs>
					<v:ud v:nameU="msvDisableCustomConnectionPoints" v:prompt="" v:val="VT0(1):5"/>
				</v:userDefs>
				<path d="M20.88 333.45 C16.3 332.67 16.12 329.11 16.12 323.34 L7.03 323.34 C7.03 329.11 6.87 332.67 2.29 333.45 A2.57484
							 2.78696 -180 0 0 -0 336.24 L23.17 336.24 A2.57484 2.78696 -180 0 0 20.88 333.45 Z" class="st20"/>
			</g>
			<g id="shape1018-64" v:mID="1018" v:groupContext="groupContent">
				<v:textBlock v:margins="rect(0,0,0,0)"/>
				<v:textRect cx="23.9048" cy="345.392" width="107.44" height="13.2037"/>
				<text x="-29.52" y="348.69" class="st15" v:langID="1033"><v:paragraph v:horizAlign="1"/><v:tabList/>Azure Virtual Machine</text>			</g>
		</g>
		<g id="shape1026-66" v:mID="1026" v:groupContext="shape" transform="translate(159.75,-209.405)">
			<title>Sheet.1026</title>
			<desc>Experiment definition</desc>
			<v:textBlock v:margins="rect(4,4,4,4)"/>
			<v:textRect cx="34.6036" cy="327.123" width="69.21" height="18.2332"/>
			<rect x="0" y="318.007" width="69.2071" height="18.2332" class="st7"/>
			<text x="7.35" y="323.82" class="st15" v:langID="1033"><v:paragraph v:horizAlign="1"/><v:tabList/>Experiment <tspan
						x="11.46" dy="1.2em" class="st9">definition</tspan></text>		</g>
		<g id="shape1038-70" v:mID="1038" v:groupContext="shape" v:layerMember="1"
				transform="translate(571.36,88.6578) rotate(89.6984)">
			<title>Directed line 1.1000</title>
			<v:userDefs>
				<v:ud v:nameU="visVersion" v:val="VT0(15):26"/>
			</v:userDefs>
			<path d="M0 336.24 L98.84 336.24" class="st21"/>
		</g>
		<g id="shape1039-76" v:mID="1039" v:groupContext="shape" transform="translate(367.201,-91.0923)">
			<title>model1.1039</title>
			<path d="M46.35 316.17 C44.46 319.41 42.6 322.63 40.76 325.83 C38.92 329.03 37.05 332.26 35.15 335.52 L34.74 336.24 L11.59
						 336.24 L11.18 335.52 C9.29 332.27 7.43 329.04 5.59 325.83 C3.75 322.62 1.89 319.4 0 316.17 C1.86 312.79
						 3.79 309.45 5.79 306.14 C7.8 302.84 9.73 299.49 11.59 296.09 L34.74 296.09 C35.66 297.8 36.61 299.48 37.59
						 301.14 C38.57 302.8 39.55 304.46 40.53 306.12 C41.51 307.78 42.5 309.45 43.5 311.12 C44.49 312.79 45.44
						 314.48 46.35 316.17 ZM34.99 314.42 L33.29 298.52 L17.79 304.24 C17.82 304.35 17.83 304.44 17.83 304.53 C17.83
						 304.63 17.83 304.73 17.83 304.85 L34.4 314.7 C34.56 314.59 34.76 314.5 34.99 314.42 ZM17.63 325.99 L33.54
						 316.71 C33.51 316.56 33.49 316.44 33.49 316.35 C33.49 316.18 33.52 316.02 33.56 315.85 L17.2 306.14 C17
						 306.31 16.77 306.44 16.5 306.55 L16.93 325.56 C17.21 325.66 17.45 325.81 17.63 325.99 ZM15.12 325.83 C15.22
						 325.74 15.35 325.67 15.5 325.63 L15.07 306.5 C14.97 306.47 14.88 306.43 14.8 306.37 C14.72 306.31 14.64
						 306.24 14.55 306.16 L2.76 316.14 L15.12 325.83 ZM31.86 297.52 L13.19 297.52 L15.64 302.7 L15.73 302.7 C15.76
						 302.7 15.8 302.69 15.84 302.68 C16.04 302.68 16.23 302.71 16.41 302.77 C16.59 302.83 16.77 302.91 16.95
						 303.02 L31.86 297.52 ZM11.97 298.27 L2.69 314.33 L13.87 304.87 C13.87 304.57 13.9 304.3 13.96 304.06 C14.02
						 303.82 14.16 303.58 14.37 303.36 L11.97 298.27 ZM2.6 317.82 L11.99 334.07 L14.82 328.77 C14.66 328.61 14.53
						 328.4 14.44 328.16 C14.35 327.92 14.3 327.67 14.3 327.41 L14.3 327.21 C14.3 327.15 14.32 327.08 14.35 327.01
						 L2.6 317.82 ZM13.22 334.81 L32.02 334.81 L17.61 328.93 C17.37 329.14 17.13 329.28 16.9 329.34 C16.68 329.4
						 16.41 329.43 16.09 329.43 L13.22 334.81 ZM33.31 333.8 L34.87 318.25 C34.66 318.19 34.46 318.08 34.26 317.93
						 L18.26 327.26 L18.26 327.66 L33.31 333.8 ZM34.78 333.32 L44.29 316.89 L37.41 316.89 C37.33 317.18 37.2 317.43
						 37 317.64 C36.8 317.85 36.58 318.02 36.32 318.16 L34.78 333.32 ZM37.25 315.44 L44.29 315.44 L34.78 299.04
						 L36.43 314.61 C36.8 314.82 37.07 315.1 37.25 315.44 Z" class="st23"/>
		</g>
		<g id="group1040-78" transform="translate(367.201,-262.125)" v:mID="1040" v:groupContext="group">
			<title>Sheet.1040</title>
			<desc>Azure Container Registry</desc>
			<g id="group1041-79" v:mID="1041" v:groupContext="group">
				<title>Page-1</title>
				<g id="group1042-80" v:mID="1042" v:groupContext="group">
					<title>Container Registry</title>
					<g id="group1043-81" transform="translate(-2.39808E-13,-7.44803)" v:mID="1043" v:groupContext="group">
						<title>path22</title>
						<g id="shape1044-82" v:mID="1044" v:groupContext="shape">
							<title>Sheet.1044</title>
							<path d="M41.79 319.39 A10.8736 10.7943 -90 0 0 36.07 316.49 A12.7421 12.6492 -90 0 0 22.93 304.29 A13.1573
										 13.0614 -90 0 0 10.46 312.83 A11.9895 11.9021 -90 0 0 -0 324.45 A12.275 12.1855 -90 0 0
										 12.6 336.24 L13.71 336.24 L34.11 336.24 L34.65 336.24 A10.3805 10.3048 -90 0 0 44.75 326.35
										 A9.52411 9.45471 -90 0 0 41.81 319.52 L41.79 319.39 Z" class="st24"/>
						</g>
						<g id="shape1045-86" v:mID="1045" v:groupContext="shape">
							<title>Sheet.1045</title>
							<path d="M41.79 319.39 A10.8736 10.7943 -90 0 0 36.07 316.49 A12.7421 12.6492 -90 0 0 22.93 304.29 A13.1573
										 13.0614 -90 0 0 10.46 312.83 A11.9895 11.9021 -90 0 0 -0 324.45 A12.275 12.1855 -90 0 0
										 12.6 336.24 L13.71 336.24 L34.11 336.24 L34.65 336.24 A10.3805 10.3048 -90 0 0 44.75 326.35
										 A9.52411 9.45471 -90 0 0 41.81 319.52 L41.79 319.39 Z" class="st25"/>
							<path d="M41.79 319.39 A10.8736 10.7943 -90 0 0 36.07 316.49 A12.7421 12.6492 -90 0 0 22.93 304.29 A13.1573
										 13.0614 -90 0 0 10.46 312.83 A11.9895 11.9021 -90 0 0 -0 324.45 A12.275 12.1855 -90 0 0
										 12.6 336.24 L13.71 336.24 L34.11 336.24 L34.65 336.24 A10.3805 10.3048 -90 0 0 44.75 326.35
										 A9.52411 9.45471 -90 0 0 41.81 319.52" class="st26"/>
						</g>
					</g>
					<g id="group1046-89" transform="translate(25.9425,-11.9895)" v:mID="1046" v:groupContext="group">
						<title>polygon24</title>
						<g id="shape1047-90" v:mID="1047" v:groupContext="shape">
							<title>Sheet.1047</title>
							<path d="M20.4 328.51 L0 320.77 L0.02 331.87 L20.4 336.24 L20.4 328.51 Z" class="st27"/>
						</g>
					</g>
					<g id="group1048-92" transform="translate(20.4294,-13.7542)" v:mID="1048" v:groupContext="group">
						<title>polyline26</title>
						<g id="shape1049-93" v:mID="1049" v:groupContext="shape">
							<title>Sheet.1049</title>
							<path d="M5.51 322.53 L0 325.91 L0 336.24 L5.54 333.64 L5.51 322.53 Z" class="st28"/>
						</g>
						<g id="shape1050-95" v:mID="1050" v:groupContext="shape">
							<title>Sheet.1050</title>
							<path d="M5.51 322.53 L0 325.91 L0 336.24 L5.54 333.64 L5.51 322.53 Z" class="st25"/>
							<path d="M5.51 322.53 L0 325.91 L0 336.24 L5.54 333.64" class="st26"/>
						</g>
					</g>
					<g id="group1051-98" transform="translate(35.2426,-15.6746)" v:mID="1051" v:groupContext="group">
						<title>polygon28</title>
						<g id="shape1052-99" v:mID="1052" v:groupContext="shape">
							<title>Sheet.1052</title>
							<path d="M0 329.54 L0 335.72 L1.86 336.24 L1.86 330.19 L0 329.54 Z" class="st29"/>
						</g>
					</g>
					<g id="group1053-101" transform="translate(31.5328,-16.6607)" v:mID="1053" v:groupContext="group">
						<title>polygon30</title>
						<g id="shape1054-102" v:mID="1054" v:groupContext="shape">
							<title>Sheet.1054</title>
							<path d="M1.86 336.24 L1.86 329.93 L0 329.26 L0 335.72 L1.86 336.24 Z" class="st29"/>
						</g>
					</g>
					<g id="group1055-104" transform="translate(38.9523,-14.6885)" v:mID="1055" v:groupContext="group">
						<title>polygon32</title>
						<g id="shape1056-105" v:mID="1056" v:groupContext="shape">
							<title>Sheet.1056</title>
							<path d="M0 329.86 L0 335.74 L1.81 336.24 L1.86 330.48 L0 329.86 Z" class="st29"/>
						</g>
					</g>
					<g id="group1057-107" transform="translate(27.8489,-17.6729)" v:mID="1057" v:groupContext="group">
						<title>polygon34</title>
						<g id="shape1058-108" v:mID="1058" v:groupContext="shape">
							<title>Sheet.1058</title>
							<path d="M0 329.05 L0 335.77 L1.86 336.24 L1.86 329.67 L0 329.05 Z" class="st29"/>
						</g>
					</g>
					<g id="group1059-110" transform="translate(42.6363,-13.6763)" v:mID="1059" v:groupContext="group">
						<title>polygon36</title>
						<g id="shape1060-111" v:mID="1060" v:groupContext="shape">
							<title>Sheet.1060</title>
							<path d="M1.86 336.24 L1.86 330.74 L0 330.08 L0 335.72 L1.86 336.24 Z" class="st29"/>
						</g>
					</g>
					<g id="group1061-113" transform="translate(21.3826,-15.986)" v:mID="1061" v:groupContext="group">
						<title>a8719886-8ecb-4bb1-abaf-d5d3808</title>
						<g id="shape1062-114" v:mID="1062" v:groupContext="shape">
							<title>Sheet.1062</title>
							<path d="M0.92 335.69 L0 336.24 L0 328.89 L0.92 328.4 L0.92 335.69 ZM2.75 327.34 L1.81 327.96 L1.81 335.1
										 L2.75 334.57 L2.75 327.34 Z" class="st30"/>
						</g>
					</g>
					<g id="group1063-116" transform="translate(20.4294,-10.0691)" v:mID="1063" v:groupContext="group">
						<title>polygon39</title>
						<g id="shape1064-117" v:mID="1064" v:groupContext="shape">
							<title>Sheet.1064</title>
							<path d="M5.54 329.95 L25.91 334.32 L20.36 336.24 L0 332.55 L5.54 329.95 Z" class="st31"/>
						</g>
					</g>
					<g id="group1065-121" transform="translate(25.8651,-0.155707)" v:mID="1065" v:groupContext="group">
						<title>polygon41</title>
						<g id="shape1066-122" v:mID="1066" v:groupContext="shape">
							<title>Sheet.1066</title>
							<path d="M20.48 325.55 L20.48 332.32 L0 336.24 L0.11 321.73 L20.48 325.55 Z" class="st27"/>
						</g>
					</g>
					<g id="group1067-124" transform="translate(27.8489,-2.54323)" v:mID="1067" v:groupContext="group">
						<title>polygon43</title>
						<g id="shape1068-125" v:mID="1068" v:groupContext="shape">
							<title>Sheet.1068</title>
							<path d="M1.86 335.92 L0 336.24 L0 327.03 L1.86 327.26 L1.86 335.92 Z" class="st29"/>
						</g>
					</g>
					<g id="group1069-127" transform="translate(31.5328,-3.14011)" v:mID="1069" v:groupContext="group">
						<title>polygon45</title>
						<g id="shape1070-128" v:mID="1070" v:groupContext="shape">
							<title>Sheet.1070</title>
							<path d="M1.86 328.38 L1.86 335.9 L0 336.24 L0 328.09 L1.86 328.38 Z" class="st29"/>
						</g>
					</g>
					<g id="group1071-130" transform="translate(35.2426,-3.76294)" v:mID="1071" v:groupContext="group">
						<title>polygon47</title>
						<g id="shape1072-131" v:mID="1072" v:groupContext="shape">
							<title>Sheet.1072</title>
							<path d="M1.86 335.9 L0 336.24 L0 329.18 L1.86 329.41 L1.86 335.9 Z" class="st29"/>
						</g>
					</g>
					<g id="group1073-133" transform="translate(38.9523,-4.41173)" v:mID="1073" v:groupContext="group">
						<title>polygon49</title>
						<g id="shape1074-134" v:mID="1074" v:groupContext="shape">
							<title>Sheet.1074</title>
							<path d="M1.83 330.57 L1.83 335.9 L0 336.24 L0 330.3 L1.83 330.57 Z" class="st29"/>
						</g>
					</g>
					<g id="group1075-136" transform="translate(42.6363,-5.0086)" v:mID="1075" v:groupContext="group">
						<title>polygon51</title>
						<g id="shape1076-137" v:mID="1076" v:groupContext="shape">
							<title>Sheet.1076</title>
							<path d="M1.77 331.59 L1.9 335.9 L0 336.24 L0 331.36 L1.77 331.59 Z" class="st29"/>
						</g>
					</g>
					<g id="group1077-139" transform="translate(20.4294,0)" v:mID="1077" v:groupContext="group">
						<title>b8a4c988-6241-4bdc-bddf-c20634c</title>
						<g id="shape1078-140" v:mID="1078" v:groupContext="shape">
							<title>Sheet.1078</title>
							<path d="M0 332.76 L0 324.3 L5.57 321.7 L5.57 336.24 L0 332.76 Z" class="st32"/>
						</g>
					</g>
					<g id="group1079-142" transform="translate(21.3568,-2.43942)" v:mID="1079" v:groupContext="group">
						<title>b623bcd9-1396-4807-80b7-64d0fc8</title>
						<g id="shape1080-143" v:mID="1080" v:groupContext="shape">
							<title>Sheet.1080</title>
							<path d="M0.83 335.17 L0 334.76 L0 327.59 L0.83 327.21 L0.83 335.17 ZM2.8 326.22 L1.83 326.71 L1.83 335.74
										 L2.78 336.24 L2.78 326.22 L2.8 326.22 Z" class="st30"/>
						</g>
					</g>
				</g>
			</g>
			<g id="shape1040-145" v:mID="1040" v:groupContext="groupContent">
				<v:textBlock v:margins="rect(0,0,0,0)"/>
				<v:textRect cx="23.1736" cy="342.889" width="130.51" height="2.45144"/>
				<text x="-36.92" y="346.19" class="st15" v:langID="1033"><v:paragraph v:horizAlign="1"/><v:tabList/>Azure Container Registry</text>			</g>
		</g>
		<g id="shape1081-147" v:mID="1081" v:groupContext="shape" transform="translate(110.25,-113.006)">
			<title>Sheet.1081</title>
			<desc>Local data</desc>
			<v:textBlock v:margins="rect(4,4,4,4)"/>
			<v:textRect cx="51.75" cy="327.123" width="103.5" height="18.2332"/>
			<rect x="0" y="318.007" width="103.5" height="18.2332" class="st7"/>
			<text x="27.06" y="330.42" class="st15" v:langID="1033"><v:paragraph v:horizAlign="1"/><v:tabList/>Local data</text>		</g>
		<g id="shape1082-150" v:mID="1082" v:groupContext="shape" transform="translate(391.5,-147.797)">
			<title>Sheet.1082</title>
			<desc>Containerized model</desc>
			<v:textBlock v:margins="rect(4,4,4,4)"/>
			<v:textRect cx="39.375" cy="327.123" width="78.75" height="18.2332"/>
			<rect x="0" y="318.007" width="78.75" height="18.2332" class="st7"/>
			<text x="5.81" y="323.82" class="st15" v:langID="1033"><v:paragraph v:horizAlign="1"/><v:tabList/>Containerized <tspan
						x="23.97" dy="1.2em" class="st9">model</tspan></text>		</g>
		<g id="shape1083-154" v:mID="1083" v:groupContext="shape" transform="translate(262.125,-113.006)">
			<title>Sheet.1083</title>
			<desc>Trained model</desc>
			<v:textBlock v:margins="rect(4,4,4,4)"/>
			<v:textRect cx="51.75" cy="327.123" width="103.5" height="18.2332"/>
			<rect x="0" y="318.007" width="103.5" height="18.2332" class="st7"/>
			<text x="16.68" y="330.42" class="st15" v:langID="1033"><v:paragraph v:horizAlign="1"/><v:tabList/>Trained model</text>		</g>
		<g id="shape1084-157" v:mID="1084" v:groupContext="shape" v:layerMember="1"
				transform="translate(726.611,88.1451) rotate(89.7069)">
			<title>Directed line 1.1084</title>
			<v:userDefs>
				<v:ud v:nameU="visVersion" v:val="VT0(15):26"/>
			</v:userDefs>
			<path d="M7.68 336.24 L8.04 336.24 L109.97 336.24" class="st33"/>
		</g>
		<g id="shape1085-163" v:mID="1085" v:groupContext="shape" v:layerMember="1"
				transform="translate(263.731,-112.029) rotate(-0.109688)">
			<title>Directed line 1.1085</title>
			<v:userDefs>
				<v:ud v:nameU="visVersion" v:val="VT0(15):26"/>
			</v:userDefs>
			<path d="M0 336.24 L90.68 336.24" class="st21"/>
		</g>
		<g id="shape1086-168" v:mID="1086" v:groupContext="shape" v:layerMember="1" transform="translate(111.375,-112.03)">
			<title>Directed line 1.1086</title>
			<v:userDefs>
				<v:ud v:nameU="visVersion" v:val="VT0(15):26"/>
			</v:userDefs>
			<path d="M7.68 336.24 L8.04 336.24 L90.96 336.24" class="st34"/>
		</g>
		<g id="shape1089-175" v:mID="1089" v:groupContext="shape" transform="translate(29.25,-309.375)">
			<title>Sheet.1089</title>
			<desc>Azure</desc>
			<v:textBlock v:margins="rect(4,4,4,4)"/>
			<v:textRect cx="18.2839" cy="345.123" width="40.5" height="18.2332"/>
			<rect x="0" y="318.007" width="40.5" height="18.2332" class="st7"/>
			<text x="2.56" y="348.72" class="st35" v:langID="1033"><v:paragraph v:horizAlign="1"/><v:tabList/>Azure</text>		</g>
		<g id="shape1090-178" v:mID="1090" v:groupContext="shape" transform="translate(29.25,-154.334)">
			<title>Sheet.1090</title>
			<desc>Azure Stack Hub</desc>
			<v:textBlock v:margins="rect(4,4,4,4)"/>
			<v:textRect cx="49.2187" cy="327.123" width="98.44" height="18.2332"/>
			<rect x="0" y="318.007" width="98.4375" height="18.2332" class="st7"/>
			<text x="4.13" y="330.72" class="st35" v:langID="1033"><v:paragraph v:horizAlign="1"/><v:tabList/>Azure Stack Hub</text>		</g>
		<g id="shape1091-181" v:mID="1091" v:groupContext="shape" v:layerMember="0" transform="translate(242.457,-207)">
			<title>Number.1091</title>
			<desc>2</desc>
			<v:userDefs>
				<v:ud v:nameU="visLegendShape" v:val="VT0(2):26"/>
				<v:ud v:nameU="visLocToPar" v:val="VT7(PNT(0,4.9960036108132E-16)):40"/>
				<v:ud v:nameU="visVersion" v:val="VT0(11):26"/>
				<v:ud v:nameU="visIsConnected" v:prompt="" v:val="VT0(0):26"/>
				<v:ud v:nameU="visLocToPar" v:prompt="" v:val="VT7(PNT(3.3674598108841,2.8750000685453)):40"/>
			</v:userDefs>
			<v:textBlock v:margins="rect(0,0,0,0)"/>
			<v:textRect cx="11.4057" cy="324.89" width="33.84" height="23.0429"/>
			<ellipse cx="11.5215" cy="324.719" rx="11.5215" ry="11.5215" class="st10"/>
			<text x="8.44" y="328.19" class="st11" v:langID="1033"><v:paragraph v:horizAlign="1"/><v:tabList/>2</text>		</g>
		<g id="shape1092-184" v:mID="1092" v:groupContext="shape" v:layerMember="0" transform="translate(359.457,-142.987)">
			<title>Number.1092</title>
			<desc>3</desc>
			<v:userDefs>
				<v:ud v:nameU="visLegendShape" v:val="VT0(2):26"/>
				<v:ud v:nameU="visLocToPar" v:val="VT7(PNT(0,4.9960036108132E-16)):40"/>
				<v:ud v:nameU="visVersion" v:val="VT0(11):26"/>
				<v:ud v:nameU="visIsConnected" v:prompt="" v:val="VT0(0):26"/>
				<v:ud v:nameU="visLocToPar" v:prompt="" v:val="VT7(PNT(4.9924592710896,1.9859286900947)):40"/>
			</v:userDefs>
			<v:textBlock v:margins="rect(0,0,0,0)"/>
			<v:textRect cx="11.4057" cy="324.89" width="33.84" height="23.0429"/>
			<ellipse cx="11.5215" cy="324.719" rx="11.5215" ry="11.5215" class="st10"/>
			<text x="8.44" y="328.19" class="st11" v:langID="1033"><v:paragraph v:horizAlign="1"/><v:tabList/>3</text>		</g>
		<g id="shape1093-187" v:mID="1093" v:groupContext="shape" v:layerMember="0" transform="translate(359.457,-218.449)">
			<title>Number.1093</title>
			<desc>4</desc>
			<v:userDefs>
				<v:ud v:nameU="visLegendShape" v:val="VT0(2):26"/>
				<v:ud v:nameU="visLocToPar" v:val="VT7(PNT(0,4.9960036108132E-16)):40"/>
				<v:ud v:nameU="visVersion" v:val="VT0(11):26"/>
				<v:ud v:nameU="visIsConnected" v:prompt="" v:val="VT0(0):26"/>
				<v:ud v:nameU="visLocToPar" v:prompt="" v:val="VT7(PNT(4.9924592710896,3.0340109697933)):40"/>
			</v:userDefs>
			<v:textBlock v:margins="rect(0,0,0,0)"/>
			<v:textRect cx="11.4057" cy="324.89" width="33.84" height="23.0429"/>
			<ellipse cx="11.5215" cy="324.719" rx="11.5215" ry="11.5215" class="st10"/>
			<text x="8.44" y="328.19" class="st11" v:langID="1033"><v:paragraph v:horizAlign="1"/><v:tabList/>4</text>		</g>
		<g id="shape1094-190" v:mID="1094" v:groupContext="shape" v:layerMember="0" transform="translate(148.791,-82.5083)">
			<title>Number.1094</title>
			<desc>3</desc>
			<v:userDefs>
				<v:ud v:nameU="visLegendShape" v:val="VT0(2):26"/>
				<v:ud v:nameU="visLocToPar" v:val="VT7(PNT(0,4.9960036108132E-16)):40"/>
				<v:ud v:nameU="visVersion" v:val="VT0(11):26"/>
				<v:ud v:nameU="visIsConnected" v:prompt="" v:val="VT0(0):26"/>
				<v:ud v:nameU="visLocToPar" v:prompt="" v:val="VT7(PNT(2.0665420741823,1.1459488827675)):40"/>
			</v:userDefs>
			<v:textBlock v:margins="rect(0,0,0,0)"/>
			<v:textRect cx="11.4057" cy="324.89" width="33.84" height="23.0429"/>
			<ellipse cx="11.5215" cy="324.719" rx="11.5215" ry="11.5215" class="st10"/>
			<text x="8.44" y="328.19" class="st11" v:langID="1033"><v:paragraph v:horizAlign="1"/><v:tabList/>3</text>		</g>
		<g id="group1101-193" transform="translate(55.6875,-92.6338)" v:mID="1101" v:groupContext="group">
			<title>Sheet.1101</title>
			<g id="shape1102-194" v:mID="1102" v:groupContext="shape">
				<title>Sheet.1102</title>
				<path d="M1.46 306.86 L51.19 306.86 L51.19 334.58 A1.6614 1.6614 0 0 1 49.53 336.24 L3.12 336.24 A1.6614 1.6614 0
							 0 1 1.46 334.58 L1.46 306.86 Z" class="st36"/>
			</g>
			<g id="shape1103-198" v:mID="1103" v:groupContext="shape" transform="translate(2.15827E-13,-29.3845)">
				<title>Sheet.1103</title>
				<path d="M3.13 325.65 L49.52 325.65 A1.6614 1.6614 0 0 1 51.18 327.31 L51.18 336.24 L1.46 336.24 L1.46 327.31 A1.6614
							 1.6614 0 0 1 3.13 325.65 Z" class="st3"/>
			</g>
			<g id="shape1104-200" v:mID="1104" v:groupContext="shape" transform="translate(6.7392,-20.0743)">
				<title>Sheet.1104</title>
				<path d="M0 335.41 a0.827794 0.827794 -180 0 0 0.827775 0.827775 L9.85 336.24 a0.827794 0.827794 -180 0 0 0.827775
							 -0.827775 L10.68 331.66 a0.827794 0.827794 -180 0 0 -0.827775 -0.827775 L0.83 330.83 a0.827794 0.827794
							 -180 0 0 -0.827775 0.827775 L0 335.41 Z" class="st37"/>
			</g>
			<g id="shape1105-202" v:mID="1105" v:groupContext="shape" transform="translate(21.06,-20.1503)">
				<title>Sheet.1105</title>
				<path d="M0 335.41 a0.827794 0.827794 -180 0 0 0.827775 0.827775 L9.85 336.24 a0.827794 0.827794 -180 0 0 0.827775
							 -0.827775 L10.68 331.66 a0.827794 0.827794 -180 0 0 -0.827775 -0.827775 L0.83 330.83 a0.827794 0.827794
							 -180 0 0 -0.827775 0.827775 L0 335.41 Z" class="st37"/>
			</g>
			<g id="shape1106-204" v:mID="1106" v:groupContext="shape" transform="translate(35.3808,-20.1503)">
				<title>Sheet.1106</title>
				<path d="M0 335.41 a0.827794 0.827794 -180 0 0 0.827775 0.827775 L9.85 336.24 a0.827794 0.827794 -180 0 0 0.827775
							 -0.827775 L10.68 331.66 a0.827794 0.827794 -180 0 0 -0.827775 -0.827775 L0.83 330.83 a0.827794 0.827794
							 -180 0 0 -0.827775 0.827775 L0 335.41 Z" class="st37"/>
			</g>
			<g id="shape1107-206" v:mID="1107" v:groupContext="shape" transform="translate(6.89715,-12.3347)">
				<title>Sheet.1107</title>
				<path d="M0 335.41 a0.827794 0.827794 -180 0 0 0.827775 0.827775 L9.85 336.24 a0.827794 0.827794 -180 0 0 0.827775
							 -0.827775 L10.68 331.66 a0.827794 0.827794 -180 0 0 -0.827775 -0.827775 L0.83 330.83 a0.827794 0.827794
							 -180 0 0 -0.827775 0.827775 L0 335.41 Z" class="st37"/>
			</g>
			<g id="shape1108-208" v:mID="1108" v:groupContext="shape" transform="translate(21.2179,-12.4108)">
				<title>Sheet.1108</title>
				<path d="M0 335.41 a0.827794 0.827794 -180 0 0 0.827775 0.827775 L9.85 336.24 a0.827794 0.827794 -180 0 0 0.827775
							 -0.827775 L10.68 331.66 a0.827794 0.827794 -180 0 0 -0.827775 -0.827775 L0.83 330.83 a0.827794 0.827794
							 -180 0 0 -0.827775 0.827775 L0 335.41 Z" class="st38"/>
			</g>
			<g id="shape1109-210" v:mID="1109" v:groupContext="shape" transform="translate(35.5388,-12.4108)">
				<title>Sheet.1109</title>
				<path d="M0 335.41 a0.827794 0.827794 -180 0 0 0.827775 0.827775 L9.85 336.24 a0.827794 0.827794 -180 0 0 0.827775
							 -0.827775 L10.68 331.66 a0.827794 0.827794 -180 0 0 -0.827775 -0.827775 L0.83 330.83 a0.827794 0.827794
							 -180 0 0 -0.827775 0.827775 L0 335.41 Z" class="st38"/>
			</g>
			<g id="shape1110-212" v:mID="1110" v:groupContext="shape" transform="translate(6.89715,-4.51913)">
				<title>Sheet.1110</title>
				<path d="M0 335.41 a0.827794 0.827794 -180 0 0 0.827775 0.827775 L9.85 336.24 a0.827794 0.827794 -180 0 0 0.827775
							 -0.827775 L10.68 331.66 a0.827794 0.827794 -180 0 0 -0.827775 -0.827775 L0.83 330.83 a0.827794 0.827794
							 -180 0 0 -0.827775 0.827775 L0 335.41 Z" class="st38"/>
			</g>
			<g id="shape1111-214" v:mID="1111" v:groupContext="shape" transform="translate(21.2179,-4.59518)">
				<title>Sheet.1111</title>
				<path d="M0 335.41 a0.827794 0.827794 -180 0 0 0.827775 0.827775 L9.85 336.24 a0.827794 0.827794 -180 0 0 0.827775
							 -0.827775 L10.68 331.66 a0.827794 0.827794 -180 0 0 -0.827775 -0.827775 L0.83 330.83 a0.827794 0.827794
							 -180 0 0 -0.827775 0.827775 L0 335.41 Z" class="st38"/>
			</g>
			<g id="shape1112-216" v:mID="1112" v:groupContext="shape" transform="translate(35.5388,-4.59518)">
				<title>Sheet.1112</title>
				<path d="M0 335.41 a0.827794 0.827794 -180 0 0 0.827775 0.827775 L9.85 336.24 a0.827794 0.827794 -180 0 0 0.827775
							 -0.827775 L10.68 331.66 a0.827794 0.827794 -180 0 0 -0.827775 -0.827775 L0.83 330.83 a0.827794 0.827794
							 -180 0 0 -0.827775 0.827775 L0 335.41 Z" class="st38"/>
			</g>
		</g>
	</g>
</svg>
