<svg width="2538" height="1582" xmlns="http://www.w3.org/2000/svg" xmlns:xlink="http://www.w3.org/1999/xlink" xml:space="preserve" overflow="hidden"><defs><clipPath id="clip0"><rect x="39" y="54" width="2538" height="1582"/></clipPath></defs><g clip-path="url(#clip0)" transform="translate(-39 -54)"><rect x="41.9999" y="56" width="2535" height="1580" fill="#FFFFFF"/><rect x="780.5" y="63.5001" width="958" height="1509" stroke="#D0CECE" stroke-width="9.16667" stroke-miterlimit="8" fill="#FFFFFF"/><text fill="#181717" font-family="Calibri,Calibri_MSFontService,sans-serif" font-weight="400" font-size="83" transform="matrix(1 0 0 1 812.889 157)">Application</text><rect x="990" y="274" width="537" height="362" stroke="#AFABAB" stroke-width="5.72917" stroke-miterlimit="8" fill="#E7E6E6"/><text fill="#3B3838" font-family="Segoe UI Semibold,Segoe UI Semibold_MSFontService,sans-serif" font-weight="600" font-size="64" transform="matrix(1 0 0 1 1164.77 478)">Events</text><rect x="990" y="1095" width="537" height="361" stroke="#AFABAB" stroke-width="5.72917" stroke-miterlimit="8" fill="#E7E6E6"/><text fill="#3B3838" font-family="Segoe UI Semibold,Segoe UI Semibold_MSFontService,sans-serif" font-weight="600" font-size="64" transform="matrix(1 0 0 1 1150.73 1298)">Actions</text><rect x="916" y="784" width="692" height="158" stroke="#AFABAB" stroke-width="5.72917" stroke-miterlimit="8" fill="#E7E6E6"/><text fill="#3B3838" font-family="Segoe UI Semibold,Segoe UI Semibold_MSFontService,sans-serif" font-weight="600" font-size="64" transform="matrix(1 0 0 1 997.387 886)">Insights to actions</text><rect x="41.9999" y="653" width="537" height="361" stroke="#AFABAB" stroke-width="5.72917" stroke-miterlimit="8" fill="#E7E6E6"/><text fill="#3B3838" font-family="Segoe UI Semibold,Segoe UI Semibold_MSFontService,sans-serif" font-weight="600" font-size="64" transform="matrix(1 0 0 1 199.832 857)">Devices</text><path d="M306.99 653.346 306.99 450.99 967.552 450.99 967.552 459.011 311 459.011 315.01 455 315.01 653.346ZM962.969 432.083 990.469 455 962.969 477.917Z" fill="#767171"/><path d="M22.9164-4.01042 288.1-4.01042 288.1 679.469 280.079 679.469 280.079 0 284.089 4.01042 22.9164 4.01042ZM27.5 22.9167 0 0 27.5-22.9167Z" fill="#767171" transform="matrix(1.83697e-16 1 1 -1.83697e-16 311 1014)"/><path d="M1263.01 635.909 1265.84 761.542 1257.82 761.723 1254.99 636.09ZM1284.64 756.534 1262.35 784.543 1238.82 757.567Z" fill="#767171"/><path d="M1261.01 945.91 1263.84 1071.54 1255.82 1071.72 1252.99 946.09ZM1282.64 1066.53 1260.35 1094.54 1236.82 1067.57Z" fill="#767171"/><text fill="#3B3838" font-family="Segoe UI Semibold,Segoe UI Semibold_MSFontService,sans-serif" font-weight="600" font-size="64" transform="matrix(1 0 0 1 458.315 416)">Events<tspan font-size="64" x="-59.6808" y="970">Commands</tspan></text><path d="M739 529C739 557.719 715.943 581 687.5 581 659.057 581 636 557.719 636 529 636 500.281 659.057 477 687.5 477 715.943 477 739 500.281 739 529Z" fill="#1DDD98" fill-rule="evenodd"/><path d="M692 511 692 543 684.888 543 684.888 518.771C684.496 519.106 684.029 519.425 683.489 519.731 682.96 520.023 682.396 520.291 681.794 520.541 681.193 520.774 680.568 520.976 679.92 521.15 679.273 521.31 678.633 521.428 678 521.501L678 515.694C679.852 515.169 681.6 514.501 683.24 513.687 684.881 512.87 686.363 511.977 687.687 511L692 511Z" fill="#323130" fill-rule="evenodd"/><path d="M902 862C902 890.719 878.943 914 850.5 914 822.057 914 799 890.719 799 862 799 833.281 822.057 810 850.5 810 878.943 810 902 833.281 902 862Z" fill="#1DDD98" fill-rule="evenodd"/><path d="M847.609 869.428 860.977 869.428 860.977 875 840 875 840 872.704C840 871.145 840.261 869.747 840.806 868.514 841.351 867.267 842.039 866.156 842.845 865.177 843.674 864.185 844.575 863.314 845.523 862.562 846.518 861.797 847.443 861.109 848.32 860.499 849.244 859.862 850.05 859.252 850.737 858.67 851.448 858.088 852.041 857.515 852.491 856.949 852.989 856.367 853.344 855.785 853.581 855.205 853.818 854.609 853.937 853.979 853.937 853.312 853.937 852.008 853.558 851.022 852.799 850.358 852.017 849.691 850.856 849.358 849.291 849.358 846.589 849.358 843.982 850.399 841.517 852.482L841.517 846.571C844.243 844.857 847.348 844 850.785 844 852.372 844 853.818 844.204 855.075 844.616 856.355 845.013 857.421 845.586 858.298 846.338 859.175 847.09 859.862 848.004 860.313 849.081 860.787 850.144 861 851.334 861 852.654 861 854.057 860.787 855.304 860.337 856.395 859.886 857.488 859.294 858.48 858.559 859.372 857.824 860.265 856.971 861.088 855.999 861.838 855.027 862.576 854.032 863.291 852.989 863.985 852.278 864.469 851.59 864.95 850.951 865.431 850.287 865.899 849.718 866.366 849.22 866.836 848.722 867.288 848.32 867.735 848.035 868.175 847.751 868.615 847.609 869.032 847.609 869.428Z" fill="#323130" fill-rule="evenodd"/><path d="M737 1221C737 1249.72 713.719 1273 685 1273 656.281 1273 633 1249.72 633 1221 633 1192.28 656.281 1169 685 1169 713.719 1169 737 1192.28 737 1221Z" fill="#1DDD98" fill-rule="evenodd"/><path d="M674 1234.4 674 1228.28C676.099 1229.84 678.552 1230.62 681.359 1230.62 683.128 1230.62 684.495 1230.23 685.462 1229.46 686.453 1228.69 686.948 1227.61 686.948 1226.23 686.948 1224.81 686.335 1223.71 685.109 1222.94 683.906 1222.17 682.231 1221.78 680.108 1221.78L677.208 1221.78 677.208 1216.4 679.896 1216.4C683.977 1216.4 686.005 1215.01 686.005 1212.26 686.005 1209.66 684.448 1208.36 681.312 1208.36 679.212 1208.36 677.16 1209.05 675.179 1210.43L675.179 1204.69C677.396 1203.56 679.943 1203 682.892 1203 686.099 1203 688.599 1203.73 690.368 1205.2 692.161 1206.67 693.057 1208.58 693.057 1210.92 693.057 1215.09 690.981 1217.7 686.83 1218.75L686.83 1218.86C689.047 1219.15 690.792 1219.97 692.066 1221.34 693.363 1222.69 694 1224.35 694 1226.32 694 1229.3 692.939 1231.66 690.792 1233.4 688.646 1235.13 685.675 1236 681.901 1236 678.67 1236 676.028 1235.47 674 1234.4Z" fill="#323130" fill-rule="evenodd"/></g></svg>