<?xml version="1.0" encoding="utf-8"?>
<!-- Generator: Adobe Illustrator 19.2.1, SVG Export Plug-In . SVG Version: 6.00 Build 0)  -->
<svg version="1.1" id="Layer_1" xmlns="http://www.w3.org/2000/svg" xmlns:xlink="http://www.w3.org/1999/xlink" x="0px" y="0px"
	 width="100px" height="85px" viewBox="0 0 100 85" style="enable-background:new 0 0 100 85;" xml:space="preserve">
<style type="text/css">
	.st0{fill:none;}
	.st1{fill:url(#SVGID_1_);}
	.st2{fill:#FFFFFF;}
	.st3{fill:#225FBC;}
</style>
<rect class="st0" width="100" height="85"/>
<linearGradient id="SVGID_1_" gradientUnits="userSpaceOnUse" x1="50" y1="575.5" x2="50" y2="526" gradientTransform="matrix(1 0 0 1 0 -508)">
	<stop  offset="0" style="stop-color:#225FBC"/>
	<stop  offset="1" style="stop-color:#1FB2F0"/>
</linearGradient>
<polyline class="st1" points="0,67.5 50.5,67.5 100,18 0,18 0,67.5 "/>
<path class="st2" d="M59.3,27.3h-9.8v23.4l-8.6-23.4h-8.5L25,46.9c-0.8-4.9-5.9-6.6-9.9-7.9c-2.7-0.8-5.5-2.1-5.4-3.5
	c0-1.1,1.5-2.2,4.5-2c2.5,0.1,5,0.7,7.2,1.9l3.4-6c-3.5-1.7-7.3-2.6-11.2-2.6l0,0c-4.2,0-7.7,1.4-9.8,3.6c-1.5,1.5-2.3,3.6-2.4,5.7
	c-0.2,2.7,1.1,5.3,3.4,6.9c2.1,1.4,4.3,2.4,6.7,3.1c2.7,0.8,5,1.6,4.9,3.1c0,0.6-0.2,1.1-0.6,1.5c-0.9,0.7-2,1.1-3.2,1
	c-2.9,0.1-5.8-0.7-8.2-2.3l-3,6c3.4,1.9,7.2,2.9,11.1,3H13c3.1,0,6.1-1,8.5-2.8c0.1-0.1,0.2-0.2,0.4-0.3l-1,2.6h8.9l1.5-4.6
	c3.4,1.1,7,1.1,10.4,0l1.4,4.5h14.6v-9.5h3.2c7.7,0,12.2-3.9,12.2-10.5C73.2,30.7,68.8,27.3,59.3,27.3z M36.6,47.3
	c-1.1,0-2.1-0.2-3.2-0.6l3.1-9.8h0.1l3.1,9.9C38.7,47.2,37.6,47.3,36.6,47.3L36.6,47.3z M59.9,41.7h-2.2v-7.9h2.2
	c2.9,0,5.2,1,5.2,3.9C65.1,40.7,62.8,41.7,59.9,41.7"/>
<path class="st3" d="M62.6,64.3c0-1.4,1.2-2.6,2.7-2.5c1.4,0,2.6,1.2,2.5,2.7c0,1.4-1.2,2.5-2.6,2.5C63.8,66.9,62.6,65.8,62.6,64.3
	L62.6,64.3z M65.2,67.5c1.8,0,3.2-1.5,3.2-3.3c0-1.8-1.5-3.2-3.3-3.2c-1.8,0-3.2,1.5-3.2,3.2C62,66,63.4,67.5,65.2,67.5L65.2,67.5
	L65.2,67.5z M64.6,64.5h0.6l1,1.6h0.6l-1.1-1.6c0.5,0,1-0.4,1-1c0,0,0,0,0-0.1c0-0.7-0.4-1.1-1.3-1.1H64V66h0.6V64.5L64.6,64.5z
	 M64.6,64v-1.1h0.8c0.4,0,0.8,0.1,0.8,0.5c0,0.6-0.4,0.6-0.9,0.6H64.6L64.6,64z"/>
</svg>
