<?xml version="1.0" encoding="UTF-8" standalone="no"?>
<!DOCTYPE svg PUBLIC "-//W3C//DTD SVG 1.1//EN" "http://www.w3.org/Graphics/SVG/1.1/DTD/svg11.dtd">
<!-- Generated by Microsoft Visio, SVG Export batch-scoring-spark-models-databricks.svg batch-scoring-spark-models-databricks -->
<svg xmlns="http://www.w3.org/2000/svg" xmlns:xlink="http://www.w3.org/1999/xlink" xmlns:ev="http://www.w3.org/2001/xml-events"
		xmlns:v="http://schemas.microsoft.com/visio/2003/SVGExtensions/" width="11in" height="8.5in" viewBox="0 0 792 612"
		xml:space="preserve" color-interpolation-filters="sRGB" class="st24">
	<v:documentProperties v:langID="1033" v:viewMarkup="false">
		<v:userDefs>
			<v:ud v:nameU="msvNoAutoConnect" v:val="VT0(1):26"/>
			<v:ud v:nameU="msvWarnOnPersonalInfo" v:val="VT0(1):5"/>
		</v:userDefs>
	</v:documentProperties>

	<style type="text/css">
	<![CDATA[
		.st1 {fill:#ffffff;stroke:none;stroke-width:0.25}
		.st2 {fill:#f7f7f7;stroke:none;stroke-width:0.75}
		.st3 {fill:#000000;font-family:Segoe UI;font-size:1.00001em;font-weight:bold}
		.st4 {fill:#ffffff;stroke:#000000;stroke-dasharray:5.25,3.75;stroke-width:0.75}
		.st5 {fill:#000000;font-family:Segoe UI;font-size:1.00001em}
		.st6 {fill:#4672c4;stroke:none;stroke-width:6.375}
		.st7 {fill:#e25a1c}
		.st8 {stroke:none;stroke-linecap:butt;stroke-width:1.96609}
		.st9 {fill:#3c3a3e}
		.st10 {fill:#0070c0;stroke:none;stroke-linecap:butt;stroke-width:0.75}
		.st11 {fill:none;stroke:none;stroke-width:0.25}
		.st12 {fill:none;stroke:#000000;stroke-width:0.75}
		.st13 {fill:none;stroke:#000000;stroke-dasharray:5.25,3.75;stroke-width:0.75}
		.st14 {marker-end:url(#mrkr4-96);stroke:#000000;stroke-linecap:round;stroke-linejoin:round;stroke-width:1.5}
		.st15 {fill:#000000;fill-opacity:1;stroke:#000000;stroke-opacity:1;stroke-width:0.37313432835821}
		.st16 {fill:url(#grad0-123);stroke:none;stroke-linecap:butt;stroke-width:0.75}
		.st17 {fill:#0078d4;stroke:none;stroke-linecap:butt;stroke-width:0.75}
		.st18 {fill:#000000;fill-opacity:0.5;stroke:none;stroke-linecap:butt;stroke-width:0.75}
		.st19 {fill:#000000;fill-opacity:0.25;stroke:none;stroke-linecap:butt;stroke-width:0.75}
		.st20 {fill:url(#grad0-139);stroke:none;stroke-linecap:butt;stroke-width:0.75}
		.st21 {fill:#7f7f7f;font-family:Segoe UI Semibold;font-size:1.16666em}
		.st22 {font-size:1em}
		.st23 {fill:#ff3621;stroke:none;stroke-linecap:butt;stroke-width:0.75}
		.st24 {fill:none;fill-rule:evenodd;font-size:12px;overflow:visible;stroke-linecap:square;stroke-miterlimit:3}
	]]>
	</style>

	<defs id="Patterns_And_Gradients">
		<linearGradient id="grad0-123" x1="0" y1="0" x2="1" y2="0" gradientTransform="rotate(116.95960434515 0.5 0.5)">
			<stop offset="0" stop-color="#114a8b" stop-opacity="1"/>
			<stop offset="1" stop-color="#0669bc" stop-opacity="1"/>
		</linearGradient>
		<linearGradient id="grad0-139" x1="0" y1="0" x2="1" y2="0" gradientTransform="rotate(61.849084498542 0.5 0.5)">
			<stop offset="0" stop-color="#3ccbf4" stop-opacity="1"/>
			<stop offset="1" stop-color="#2892df" stop-opacity="1"/>
		</linearGradient>
	</defs>
	<defs id="Markers">
		<g id="lend4">
			<path d="M 2 1 L 0 0 L 2 -1 L 2 1 " style="stroke:none"/>
		</g>
		<marker id="mrkr4-96" class="st15" v:arrowType="4" v:arrowSize="2" v:setback="5.36" refX="-5.36" orient="auto"
				markerUnits="strokeWidth" overflow="visible">
			<use xlink:href="#lend4" transform="scale(-2.68,-2.68) "/>
		</marker>
	</defs>
	<g v:mID="12" v:index="1" v:groupContext="backgroundPage">
		<v:userDefs>
			<v:ud v:nameU="msvThemeOrder" v:val="VT0(0):26"/>
			<v:ud v:nameU="msvVisioCreated" v:prompt="" v:val="VT0(0):26"/>
		</v:userDefs>
		<title>VBackground-1</title>
		<v:pageProperties width="11" height="8.5" v:drawingScale="1" v:pageScale="1" v:drawingUnits="19" v:shadowOffsetX="9"
				v:shadowOffsetY="-9"/>
		<g id="shape1000-1" v:mID="1000" v:groupContext="shape">
			<title>Solid.1000</title>
			<v:userDefs>
				<v:ud v:nameU="Background" v:val="VT0(0):26"/>
				<v:ud v:nameU="visVersion" v:val="VT0(15):26"/>
				<v:ud v:nameU="msvShapeCategories" v:prompt="" v:val="VT4(DoNotContain)"/>
				<v:ud v:nameU="msvVisioCreated" v:prompt="" v:val="VT0(0):26"/>
			</v:userDefs>
			<rect x="0" y="0" width="792" height="612" class="st1"/>
		</g>
	</g>
	<g v:mID="8" v:index="2" v:groupContext="foregroundPage">
		<v:userDefs>
			<v:ud v:nameU="msvThemeOrder" v:val="VT0(0):26"/>
		</v:userDefs>
		<title>batch-scoring-spark-models-databricks</title>
		<v:pageProperties v:drawingScale="1" v:pageScale="1" v:drawingUnits="19" v:shadowOffsetX="9" v:shadowOffsetY="-9"/>
		<v:layer v:name="Web Site Map Shapes" v:index="0"/>
		<g id="shape1077-3" v:mID="1077" v:groupContext="shape" transform="translate(120.292,-227.25)">
			<title>Sheet.1077</title>
			<desc>Ingest</desc>
			<v:textBlock v:margins="rect(4,4,4,4)" v:verticalAlign="0"/>
			<v:textRect cx="97.9577" cy="486" width="195.92" height="252"/>
			<rect x="0" y="360" width="195.915" height="252" class="st2"/>
			<text x="80.49" y="374.8" class="st3" v:langID="1033"><v:paragraph v:horizAlign="1"/><v:tabList/>Ingest</text>		</g>
		<g id="shape1078-6" v:mID="1078" v:groupContext="shape" transform="translate(335.085,-224.37)">
			<title>Sheet.1078</title>
			<desc>Feature engineering</desc>
			<v:textBlock v:margins="rect(4,4,4,4)" v:verticalAlign="0"/>
			<v:textRect cx="97.9577" cy="486" width="195.92" height="252"/>
			<rect x="0" y="360" width="195.915" height="252" class="st2"/>
			<text x="41.25" y="374.8" class="st3" v:langID="1033"><v:paragraph v:horizAlign="1"/><v:tabList/>Feature engineering</text>		</g>
		<g id="shape1079-9" v:mID="1079" v:groupContext="shape" transform="translate(551.76,-224.37)">
			<title>Sheet.1079</title>
			<desc>Training</desc>
			<v:textBlock v:margins="rect(4,4,4,4)" v:verticalAlign="0"/>
			<v:textRect cx="97.9577" cy="486" width="195.92" height="252"/>
			<rect x="0" y="360" width="195.915" height="252" class="st2"/>
			<text x="74.44" y="374.8" class="st3" v:langID="1033"><v:paragraph v:horizAlign="1"/><v:tabList/>Training</text>		</g>
		<g id="shape1030-12" v:mID="1030" v:groupContext="shape" transform="translate(135.03,-351.281)">
			<title>Sheet.1030</title>
			<desc>Machine data</desc>
			<v:textBlock v:margins="rect(4,4,4,4)" v:verticalAlign="2"/>
			<v:textRect cx="81.5625" cy="567.281" width="163.13" height="89.4375"/>
			<path d="M0 612 L163.12 612 L163.12 522.56 L0 522.56 L0 612 Z" class="st4"/>
			<text x="45.65" y="604.4" class="st5" v:langID="1033"><v:paragraph v:horizAlign="1"/><v:tabList/>Machine data</text>		</g>
		<g id="shape1049-15" v:mID="1049" v:groupContext="shape" transform="translate(351.48,-254.25)">
			<title>Sheet.1049</title>
			<desc>Scoring data</desc>
			<v:textBlock v:margins="rect(4,4,4,4)" v:verticalAlign="2"/>
			<v:textRect cx="81.5625" cy="522" width="163.13" height="180"/>
			<path d="M0 612 L163.12 612 L163.12 432 L0 432 L0 612 Z" class="st4"/>
			<text x="48.3" y="604.4" class="st5" v:langID="1033"><v:paragraph v:horizAlign="1"/><v:tabList/>Scoring data</text>		</g>
		<g id="shape1075-18" v:mID="1075" v:groupContext="shape" transform="translate(568.155,-357.75)">
			<title>Sheet.1075</title>
			<desc>Spark MLLib model</desc>
			<v:textBlock v:margins="rect(4,4,4,4)" v:verticalAlign="2"/>
			<v:textRect cx="81.5625" cy="573.75" width="163.13" height="76.5"/>
			<path d="M0 612 L163.12 612 L163.12 535.5 L0 535.5 L0 612 Z" class="st4"/>
			<text x="30.62" y="604.4" class="st5" v:langID="1033"><v:paragraph v:horizAlign="1"/><v:tabList/>Spark MLLib model</text>		</g>
		<g id="shape1076-21" v:mID="1076" v:groupContext="shape" transform="translate(568.155,-233.312)">
			<title>Sheet.1076</title>
			<desc>Batch jobs scheduler</desc>
			<v:textBlock v:margins="rect(4,4,4,4)" v:verticalAlign="2"/>
			<v:textRect cx="81.5625" cy="573.75" width="163.13" height="76.5"/>
			<path d="M0 612 L163.12 612 L163.12 535.5 L0 535.5 L0 612 Z" class="st4"/>
			<text x="27.08" y="604.4" class="st5" v:langID="1033"><v:paragraph v:horizAlign="1"/><v:tabList/>Batch jobs scheduler</text>		</g>
		<g id="group1000-24" transform="translate(632.28,-265.5)" v:mID="1000" v:groupContext="group">
			<title>Alarm Clock.1000</title>
			<g id="shape1001-25" v:mID="1001" v:groupContext="shape" transform="translate(2.82241,0)">
				<title>Sheet.1001</title>
				<path d="M15.68 581.74 C23.26 582.26 29.27 588.58 29.27 596.32 C29.27 600.29 27.65 603.95 25.09 606.56 L27.07 610.48
							 C27.34 611.01 27.13 611.63 26.6 611.9 C26.45 611.95 26.29 612 26.13 612 C25.77 612 25.4 611.79 25.19
							 611.43 L23.47 607.98 C21.01 609.86 17.98 610.95 14.63 610.95 C11.29 610.95 8.26 609.86 5.8 607.98 L4.08
							 611.43 C3.87 611.79 3.5 612 3.14 612 C2.98 612 2.82 611.95 2.67 611.9 C2.14 611.63 1.93 611.01 2.2 610.48
							 L4.18 606.56 C1.57 603.9 0 600.29 0 596.32 C0 588.58 6.01 582.26 13.59 581.74 L13.59 579.59 L11.5 579.59
							 C10.92 579.59 10.45 579.12 10.45 578.55 C10.45 577.97 10.92 577.5 11.5 577.5 L17.77 577.5 C18.35 577.5
							 18.82 577.97 18.82 578.55 C18.82 579.12 18.35 579.59 17.77 579.59 L15.68 579.59 L15.68 581.74 ZM3.14
							 596.32 C3.14 602.64 8.31 607.82 14.63 607.82 C20.96 607.82 26.13 602.64 26.13 596.32 C26.13 590 20.96
							 584.82 14.63 584.82 C8.31 584.82 3.14 590 3.14 596.32 Z" class="st6"/>
			</g>
			<g id="shape1002-27" v:mID="1002" v:groupContext="shape" transform="translate(9.09442,-14.6347)">
				<title>Sheet.1002</title>
				<path d="M7.32 609.91 L7.32 602.59 L9.41 602.59 L9.41 610.95 C9.41 611.53 8.94 612 8.36 612 L0 612 L0 609.91 L7.32
							 609.91 Z" class="st6"/>
			</g>
			<g id="shape1003-29" v:mID="1003" v:groupContext="shape" transform="translate(24.2518,-24.5654)">
				<title>Sheet.1003</title>
				<path d="M10.04 606.36 C10.82 607.14 10.82 608.5 10.04 609.28 L7.32 612 L0 604.68 L2.72 602.02 C3.55 601.18 4.86
							 601.18 5.7 602.02 L10.04 606.36 Z" class="st6"/>
			</g>
			<g id="shape1004-31" v:mID="1004" v:groupContext="shape" transform="translate(1.7486E-13,-24.5654)">
				<title>Sheet.1004</title>
				<path d="M10.66 604.68 L3.35 612 L0.63 609.28 C-0.21 608.45 -0.21 607.14 0.63 606.3 L4.97 601.96 C5.8 601.13 7.11
							 601.13 7.94 601.96 L10.66 604.68 Z" class="st6"/>
			</g>
		</g>
		<g id="group1005-33" transform="translate(619.676,-386.312)" v:mID="1005" v:groupContext="group">
			<title>Apache Spark logo</title>
			<g id="group1006-34" v:mID="1006" v:groupContext="group">
				<title>Sheet.1006</title>
				<g id="shape1007-35" v:mID="1007" v:groupContext="shape" transform="translate(46.5686,-15.4333)">
					<title>Sheet.1007</title>
					<path d="M21.55 608.28 C21.49 608.14 21.46 608.07 21.42 608.01 C20.49 606.23 19.56 604.46 18.61 602.68 C18.52
								 602.5 18.53 602.4 18.66 602.24 C20.15 600.51 21.61 598.77 23.1 597.04 C23.15 596.98 23.2 596.91
								 23.22 596.81 C22.79 596.92 22.35 597.03 21.92 597.14 C20.13 597.62 18.32 598.09 16.55 598.57 C16.38
								 598.62 16.31 598.57 16.22 598.43 C15.2 596.73 14.18 595.02 13.15 593.35 C13.1 593.26 13.04 593.17
								 12.93 593.1 C12.85 593.55 12.76 594 12.68 594.46 C12.4 596.06 12.11 597.65 11.83 599.25 C11.8 599.43
								 11.75 599.6 11.74 599.77 C11.73 599.94 11.64 600 11.49 600.05 C9.38 600.71 7.27 601.38 5.16 602.05
								 C5.06 602.08 4.97 602.12 4.87 602.21 C6.6 602.89 8.33 603.58 10.08 604.28 C10.02 604.33 9.97 604.37
								 9.93 604.4 C8.85 605.09 7.77 605.79 6.69 606.49 C6.56 606.58 6.46 606.59 6.31 606.52 C5.02 605.94
								 3.72 605.37 2.43 604.8 C1.84 604.54 1.32 604.19 0.92 603.69 C0 602.57 0.18 601.3 1.41 600.5 C1.81
								 600.25 2.26 600.06 2.72 599.91 C4.79 599.24 6.87 598.59 8.93 597.93 C9.1 597.88 9.18 597.8 9.22
								 597.61 C9.49 596.01 9.78 594.4 10.07 592.81 C10.22 591.96 10.31 591.08 10.72 590.29 C10.88 589.99
								 11.07 589.7 11.3 589.45 C12.13 588.53 13.28 588.5 14.16 589.37 C14.45 589.66 14.71 590.01 14.92
								 590.36 C15.88 591.93 16.83 593.51 17.78 595.09 C17.89 595.28 17.99 595.31 18.2 595.26 C20.51 594.64
								 22.83 594.03 25.15 593.42 C25.63 593.29 26.11 593.24 26.61 593.34 C27.67 593.53 28.14 594.35 27.78
								 595.38 C27.61 595.85 27.33 596.25 27.01 596.62 C25.39 598.53 23.77 600.44 22.17 602.33 C22.03 602.49
								 22.03 602.6 22.12 602.77 C23.09 604.6 24.05 606.42 25.02 608.27 C25.26 608.7 25.43 609.16 25.44
								 609.66 C25.45 610.8 24.61 611.74 23.48 611.91 C22.84 612 22.25 611.86 21.65 611.68 C20.2 611.23
								 18.75 610.79 17.29 610.35 C17.15 610.31 17.1 610.26 17.08 610.11 C16.91 609.09 16.73 608.07 16.55
								 607.04 C16.55 607.01 16.55 606.98 16.56 606.92 C18.22 607.38 19.87 607.83 21.57 608.3 L21.55 608.28
								 Z" class="st7"/>
					<path d="M21.55 608.28 C21.49 608.14 21.46 608.07 21.42 608.01 C20.49 606.23 19.56 604.46 18.61 602.68 C18.52
								 602.5 18.53 602.4 18.66 602.24 C20.15 600.51 21.61 598.77 23.1 597.04 C23.15 596.98 23.2 596.91
								 23.22 596.81 C22.79 596.92 22.35 597.03 21.92 597.14 C20.13 597.62 18.32 598.09 16.55 598.57 C16.38
								 598.62 16.31 598.57 16.22 598.43 C15.2 596.73 14.18 595.02 13.15 593.35 C13.1 593.26 13.04 593.17
								 12.93 593.1 C12.85 593.55 12.76 594 12.68 594.46 C12.4 596.06 12.11 597.65 11.83 599.25 C11.8 599.43
								 11.75 599.6 11.74 599.77 C11.73 599.94 11.64 600 11.49 600.05 C9.38 600.71 7.27 601.38 5.16 602.05
								 C5.06 602.08 4.97 602.12 4.87 602.21 C6.6 602.89 8.33 603.58 10.08 604.28 C10.02 604.33 9.97 604.37
								 9.93 604.4 C8.85 605.09 7.77 605.79 6.69 606.49 C6.56 606.58 6.46 606.59 6.31 606.52 C5.02 605.94
								 3.72 605.37 2.43 604.8 C1.84 604.54 1.32 604.19 0.92 603.69 C0 602.57 0.18 601.3 1.41 600.5 C1.81
								 600.25 2.26 600.06 2.72 599.91 C4.79 599.24 6.87 598.59 8.93 597.93 C9.1 597.88 9.18 597.8 9.22
								 597.61 C9.49 596.01 9.78 594.4 10.07 592.81 C10.22 591.96 10.31 591.08 10.72 590.29 C10.88 589.99
								 11.07 589.7 11.3 589.45 C12.13 588.53 13.28 588.5 14.16 589.37 C14.45 589.66 14.71 590.01 14.92
								 590.36 C15.88 591.93 16.83 593.51 17.78 595.09 C17.89 595.28 17.99 595.31 18.2 595.26 C20.51 594.64
								 22.83 594.03 25.15 593.42 C25.63 593.29 26.11 593.24 26.61 593.34 C27.67 593.53 28.14 594.35 27.78
								 595.38 C27.61 595.85 27.33 596.25 27.01 596.62 C25.39 598.53 23.77 600.44 22.17 602.33 C22.03 602.49
								 22.03 602.6 22.12 602.77 C23.09 604.6 24.05 606.42 25.02 608.27 C25.26 608.7 25.43 609.16 25.44
								 609.66 C25.45 610.8 24.61 611.74 23.48 611.91 C22.84 612 22.25 611.86 21.65 611.68 C20.2 611.23
								 18.75 610.79 17.29 610.35 C17.15 610.31 17.1 610.26 17.08 610.11 C16.91 609.09 16.73 608.07 16.55
								 607.04 C16.55 607.01 16.55 606.98 16.56 606.92 C18.22 607.38 19.87 607.83 21.57 608.3" class="st8"/>
				</g>
				<g id="shape1008-38" v:mID="1008" v:groupContext="shape" transform="translate(51.6736,-4.14283)">
					<title>Sheet.1008</title>
					<path d="M13.57 611.98 C12.26 611.98 10.95 611.97 9.63 611.98 C9.46 611.98 9.36 611.93 9.27 611.78 C7.72 609.42
								 6.15 607.06 4.61 604.71 C4.56 604.63 4.51 604.56 4.42 604.43 C4.09 606.98 3.76 609.47 3.43 611.97
								 L0 611.97 C0.04 611.63 0.08 611.31 0.12 610.99 C0.45 608.42 0.79 605.88 1.13 603.31 C1.45 600.86
								 1.77 598.42 2.09 595.97 C2.1 595.9 2.15 595.8 2.21 595.77 C3.39 595 4.57 594.23 5.76 593.47 C5.78
								 593.46 5.8 593.46 5.86 593.44 C5.5 596.18 5.15 598.89 4.79 601.6 C4.81 601.61 4.82 601.62 4.83 601.63
								 C6.69 599.57 8.55 597.5 10.45 595.41 C10.5 595.73 10.55 596 10.6 596.27 C10.73 597.05 10.86 597.83
								 11 598.6 C11.03 598.76 10.99 598.85 10.88 598.96 C9.68 600.22 8.48 601.48 7.28 602.75 C7.23 602.81
								 7.18 602.87 7.12 602.93 C7.16 602.99 7.19 603.05 7.23 603.11 C9.3 606.01 11.36 608.91 13.42 611.81
								 C13.46 611.87 13.51 611.91 13.56 611.95 L13.56 612 L13.57 611.98 Z" class="st9"/>
					<path d="M13.57 611.98 C12.26 611.98 10.95 611.97 9.63 611.98 C9.46 611.98 9.36 611.93 9.27 611.78 C7.72 609.42
								 6.15 607.06 4.61 604.71 C4.56 604.63 4.51 604.56 4.42 604.43 C4.09 606.98 3.76 609.47 3.43 611.97
								 L0 611.97 C0.04 611.63 0.08 611.31 0.12 610.99 C0.45 608.42 0.79 605.88 1.13 603.31 C1.45 600.86
								 1.77 598.42 2.09 595.97 C2.1 595.9 2.15 595.8 2.21 595.77 C3.39 595 4.57 594.23 5.76 593.47 C5.78
								 593.46 5.8 593.46 5.86 593.44 C5.5 596.18 5.15 598.89 4.79 601.6 C4.81 601.61 4.82 601.62 4.83 601.63
								 C6.69 599.57 8.55 597.5 10.45 595.41 C10.5 595.73 10.55 596 10.6 596.27 C10.73 597.05 10.86 597.83
								 11 598.6 C11.03 598.76 10.99 598.85 10.88 598.96 C9.68 600.22 8.48 601.48 7.28 602.75 C7.23 602.81
								 7.18 602.87 7.12 602.93 C7.16 602.99 7.19 603.05 7.23 603.11 C9.3 606.01 11.36 608.91 13.42 611.81
								 C13.46 611.87 13.51 611.91 13.56 611.95 L13.56 612" class="st8"/>
				</g>
				<g id="shape1009-41" v:mID="1009" v:groupContext="shape" transform="translate(11.8748,-2.27374E-13)">
					<title>Sheet.1009</title>
					<path d="M12.82 600.16 C12.77 599.9 12.73 599.5 12.62 599.14 C12.04 597.36 10.22 596.4 8.35 596.83 C6.28 597.31
								 4.8 598.94 4.6 601.05 C4.44 602.61 5.28 604.12 6.84 604.68 C8.1 605.13 9.31 604.94 10.44 604.27
								 C11.93 603.37 12.74 602.05 12.84 600.16 L12.82 600.16 ZM3.76 606.76 C3.66 607.52 3.56 608.24 3.46
								 608.96 C3.34 609.91 3.21 610.87 3.09 611.84 C3.08 611.95 3.04 612 2.92 612 C1.98 612 1.04 612 0.09
								 611.99 C0.07 611.99 0.05 611.98 0 611.97 C0.06 611.52 0.11 611.06 0.17 610.61 C0.38 609.03 0.59
								 607.45 0.8 605.86 C1.04 604.05 1.23 602.24 1.54 600.44 C2.09 597.25 4.8 594.52 7.97 593.82 C9.81
								 593.42 11.57 593.61 13.17 594.64 C14.78 595.68 15.69 597.19 15.91 599.06 C16.21 601.72 15.22 603.93
								 13.34 605.77 C12.1 606.98 10.61 607.74 8.9 608 C7.14 608.26 5.47 607.97 3.99 606.93 C3.93 606.89
								 3.87 606.86 3.78 606.8 L3.76 606.76 Z" class="st9"/>
					<path d="M12.82 600.16 C12.77 599.9 12.73 599.5 12.62 599.14 C12.04 597.36 10.22 596.4 8.35 596.83 C6.28 597.31
								 4.8 598.94 4.6 601.05 C4.44 602.61 5.28 604.12 6.84 604.68 C8.1 605.13 9.31 604.94 10.44 604.27
								 C11.93 603.37 12.74 602.05 12.84 600.16 L12.82 600.16M3.76 606.76 C3.66 607.52 3.56 608.24 3.46
								 608.96 C3.34 609.91 3.21 610.87 3.09 611.84 C3.08 611.95 3.04 612 2.92 612 C1.98 612 1.04 612 0.09
								 611.99 C0.07 611.99 0.05 611.98 0 611.97 C0.06 611.52 0.11 611.06 0.17 610.61 C0.38 609.03 0.59
								 607.45 0.8 605.86 C1.04 604.05 1.23 602.24 1.54 600.44 C2.09 597.25 4.8 594.52 7.97 593.82 C9.81
								 593.42 11.57 593.61 13.17 594.64 C14.78 595.68 15.69 597.19 15.91 599.06 C16.21 601.72 15.22 603.93
								 13.34 605.77 C12.1 606.98 10.61 607.74 8.9 608 C7.14 608.26 5.47 607.97 3.99 606.93 C3.93 606.89
								 3.87 606.86 3.78 606.8" class="st8"/>
				</g>
				<g id="shape1010-44" v:mID="1010" v:groupContext="shape" transform="translate(1.4988E-13,-3.70552)">
					<title>Sheet.1010</title>
					<path d="M14.05 595.35 C12.99 596.14 11.97 596.9 10.95 597.66 C10.79 597.4 10.64 597.14 10.47 596.9 C10.03 596.28
								 9.47 595.81 8.67 595.76 C8.01 595.71 7.43 595.93 6.98 596.42 C6.58 596.86 6.52 597.49 6.9 597.98
								 C7.32 598.53 7.77 599.05 8.24 599.56 C9.02 600.4 9.83 601.2 10.59 602.05 C11.29 602.82 11.85 603.68
								 12.02 604.74 C12.23 605.98 11.98 607.16 11.39 608.26 C10.3 610.29 8.58 611.48 6.3 611.84 C5.3 612
								 4.3 611.97 3.33 611.68 C2.03 611.3 1.13 610.45 0.55 609.26 C0.34 608.83 0.18 608.38 0 607.93 C1.13
								 607.32 2.24 606.73 3.36 606.13 C3.4 606.22 3.42 606.3 3.46 606.38 C3.65 606.76 3.81 607.16 4.04
								 607.52 C4.75 608.56 5.88 608.88 7.02 608.36 C7.31 608.23 7.6 608.04 7.84 607.83 C8.58 607.17 8.72
								 606.25 8.17 605.43 C7.86 604.95 7.46 604.52 7.08 604.1 C6.16 603.08 5.21 602.1 4.32 601.05 C3.71
								 600.34 3.29 599.51 3.15 598.56 C3.01 597.51 3.21 596.53 3.76 595.66 C5.11 593.47 7.07 592.35 9.66
								 592.42 C11.14 592.47 12.32 593.16 13.23 594.32 C13.5 594.66 13.76 595.01 14.03 595.38 L14.05 595.35
								 Z" class="st9"/>
					<path d="M14.05 595.35 C12.99 596.14 11.97 596.9 10.95 597.66 C10.79 597.4 10.64 597.14 10.47 596.9 C10.03 596.28
								 9.47 595.81 8.67 595.76 C8.01 595.71 7.43 595.93 6.98 596.42 C6.58 596.86 6.52 597.49 6.9 597.98
								 C7.32 598.53 7.77 599.05 8.24 599.56 C9.02 600.4 9.83 601.2 10.59 602.05 C11.29 602.82 11.85 603.68
								 12.02 604.74 C12.23 605.98 11.98 607.16 11.39 608.26 C10.3 610.29 8.58 611.48 6.3 611.84 C5.3 612
								 4.3 611.97 3.33 611.68 C2.03 611.3 1.13 610.45 0.55 609.26 C0.34 608.83 0.18 608.38 0 607.93 C1.13
								 607.32 2.24 606.73 3.36 606.13 C3.4 606.22 3.42 606.3 3.46 606.38 C3.65 606.76 3.81 607.16 4.04
								 607.52 C4.75 608.56 5.88 608.88 7.02 608.36 C7.31 608.23 7.6 608.04 7.84 607.83 C8.58 607.17 8.72
								 606.25 8.17 605.43 C7.86 604.95 7.46 604.52 7.08 604.1 C6.16 603.08 5.21 602.1 4.32 601.05 C3.71
								 600.34 3.29 599.51 3.15 598.56 C3.01 597.51 3.21 596.53 3.76 595.66 C5.11 593.47 7.07 592.35 9.66
								 592.42 C11.14 592.47 12.32 593.16 13.23 594.32 C13.5 594.66 13.76 595.01 14.03 595.38" class="st8"/>
				</g>
				<g id="shape1011-47" v:mID="1011" v:groupContext="shape" transform="translate(28.8638,-3.54431)">
					<title>Sheet.1011</title>
					<path d="M10.23 606.83 C10.06 608.14 9.89 609.39 9.72 610.64 C9.72 610.7 9.67 610.79 9.61 610.81 C7.05 612 3.69
								 611.83 1.6 609.45 C0.47 608.17 0 606.64 0.07 604.96 C0.23 601.05 3.48 597.62 7.36 597.14 C9.63 596.87
								 11.61 597.48 13.14 599.24 C14.19 600.44 14.67 601.88 14.6 603.46 C14.56 604.51 14.39 605.55 14.26
								 606.58 C14.08 608.05 13.88 609.53 13.68 610.99 C13.67 611.05 13.66 611.1 13.65 611.17 L10.6 611.17
								 C10.64 610.83 10.68 610.5 10.73 610.17 C10.95 608.46 11.19 606.76 11.38 605.06 C11.51 604 11.43
								 602.94 10.94 601.96 C10.43 600.92 9.56 600.36 8.42 600.24 C6.07 599.99 3.82 601.63 3.34 603.94 C3.01
								 605.47 3.53 606.94 4.75 607.75 C5.94 608.54 7.2 608.54 8.49 608.03 C9.15 607.77 9.71 607.36 10.24
								 606.81 L10.23 606.83 Z" class="st9"/>
					<path d="M10.23 606.83 C10.06 608.14 9.89 609.39 9.72 610.64 C9.72 610.7 9.67 610.79 9.61 610.81 C7.05 612 3.69
								 611.83 1.6 609.45 C0.47 608.17 0 606.64 0.07 604.96 C0.23 601.05 3.48 597.62 7.36 597.14 C9.63 596.87
								 11.61 597.48 13.14 599.24 C14.19 600.44 14.67 601.88 14.6 603.46 C14.56 604.51 14.39 605.55 14.26
								 606.58 C14.08 608.05 13.88 609.53 13.68 610.99 C13.67 611.05 13.66 611.1 13.65 611.17 L10.6 611.17
								 C10.64 610.83 10.68 610.5 10.73 610.17 C10.95 608.46 11.19 606.76 11.38 605.06 C11.51 604 11.43
								 602.94 10.94 601.96 C10.43 600.92 9.56 600.36 8.42 600.24 C6.07 599.99 3.82 601.63 3.34 603.94 C3.01
								 605.47 3.53 606.94 4.75 607.75 C5.94 608.54 7.2 608.54 8.49 608.03 C9.15 607.77 9.71 607.36 10.24
								 606.81" class="st8"/>
				</g>
				<g id="shape1012-50" v:mID="1012" v:groupContext="shape" transform="translate(44.0798,-4.28868)">
					<title>Sheet.1012</title>
					<path d="M7.97 598.29 C7.83 599.35 7.69 600.39 7.55 601.45 C6.9 601.45 6.27 601.45 5.63 601.45 C5.12 601.46 4.65
								 601.79 4.5 602.27 C4.44 602.46 4.42 602.66 4.39 602.86 C4.07 605.3 3.75 607.73 3.43 610.15 C3.35
								 610.76 3.27 611.38 3.19 612 L0 612 C0.06 611.53 0.12 611.08 0.17 610.63 C0.38 609.05 0.59 607.46
								 0.8 605.9 C0.98 604.53 1.14 603.17 1.35 601.8 C1.64 599.97 3.45 598.34 5.29 598.27 C6.17 598.23
								 7.05 598.26 7.95 598.26 L7.97 598.29 Z" class="st9"/>
					<path d="M7.97 598.29 C7.83 599.35 7.69 600.39 7.55 601.45 C6.9 601.45 6.27 601.45 5.63 601.45 C5.12 601.46 4.65
								 601.79 4.5 602.27 C4.44 602.46 4.42 602.66 4.39 602.86 C4.07 605.3 3.75 607.73 3.43 610.15 C3.35
								 610.76 3.27 611.38 3.19 612 L0 612 C0.06 611.53 0.12 611.08 0.17 610.63 C0.38 609.05 0.59 607.46
								 0.8 605.9 C0.98 604.53 1.14 603.17 1.35 601.8 C1.64 599.97 3.45 598.34 5.29 598.27 C6.17 598.23
								 7.05 598.26 7.95 598.26" class="st8"/>
				</g>
				<g id="shape1013-53" v:mID="1013" v:groupContext="shape" transform="translate(65.9739,-4.1601)">
					<title>Sheet.1013</title>
					<path d="M3.1 612 L3.1 610.66 L3.1 610.66 L2.57 612 L2.4 612 L1.87 610.66 L1.87 610.66 L1.87 612 L1.6 612 L1.6
								 610.39 L2.01 610.39 L2.49 611.61 L2.96 610.39 L3.37 610.39 L3.37 612 L3.1 612 ZM0.77 610.61 L0.77
								 612 L0.5 612 L0.5 610.61 L0 610.61 L0 610.39 L1.27 610.39 L1.27 610.61 L0.77 610.61 L0.77 610.61
								 Z" class="st9"/>
					<path d="M3.1 612 L3.1 610.66 L3.1 610.66 L2.57 612 L2.4 612 L1.87 610.66 L1.87 610.66 L1.87 612 L1.6 612 L1.6
								 610.39 L2.01 610.39 L2.49 611.61 L2.96 610.39 L3.37 610.39 L3.37 612 L3.1 612M0.77 610.61 L0.77
								 612 L0.5 612 L0.5 610.61 L0 610.61 L0 610.39 L1.27 610.39 L1.27 610.61 L0.77 610.61" class="st8"/>
				</g>
				<g id="shape1014-56" v:mID="1014" v:groupContext="shape" transform="translate(16.5478,-21.0169)">
					<title>Sheet.1014</title>
					<path d="M1.75 610.41 L2.54 610.41 L2.35 609.21 L1.75 610.41 ZM2.66 611.18 L1.35 611.18 L0.93 612 L0 612 L2.05
								 608.16 L2.95 608.16 L3.65 612 L2.79 612 L2.66 611.18 L2.66 611.18 Z" class="st9"/>
					<path d="M1.75 610.41 L2.54 610.41 L2.35 609.21 L1.75 610.41M2.66 611.18 L1.35 611.18 L0.93 612 L0 612 L2.05
								 608.16 L2.95 608.16 L3.65 612 L2.79 612 L2.66 611.18" class="st8"/>
				</g>
				<g id="shape1015-59" v:mID="1015" v:groupContext="shape" transform="translate(22.094,-21.0121)">
					<title>Sheet.1015</title>
					<path d="M1.81 608.94 L1.35 608.94 L1.19 609.83 L1.66 609.83 C1.94 609.83 2.16 609.64 2.16 609.29 C2.16 609.06
								 2.02 608.94 1.81 608.94 L1.81 608.94 ZM0.68 608.17 L1.91 608.17 C2.55 608.17 3 608.55 3 609.21 C3
								 610.04 2.42 610.6 1.58 610.6 L1.05 610.6 L0.8 612 L0 612 L0.68 608.16 L0.68 608.17 Z" class="st9"/>
					<path d="M1.81 608.94 L1.35 608.94 L1.19 609.83 L1.66 609.83 C1.94 609.83 2.16 609.64 2.16 609.29 C2.16 609.06
								 2.02 608.94 1.81 608.94 L1.81 608.94M0.68 608.17 L1.91 608.17 C2.55 608.17 3 608.55 3 609.21 C3
								 610.04 2.42 610.6 1.58 610.6 L1.05 610.6 L0.8 612 L0 612 L0.68 608.16" class="st8"/>
				</g>
				<g id="shape1016-62" v:mID="1016" v:groupContext="shape" transform="translate(26.0689,-21.0169)">
					<title>Sheet.1016</title>
					<path d="M1.75 610.41 L2.54 610.41 L2.35 609.21 L1.75 610.41 ZM2.66 611.18 L1.35 611.18 L0.93 612 L0 612 L2.05
								 608.16 L2.95 608.16 L3.65 612 L2.79 612 L2.66 611.18 L2.66 611.18 Z" class="st9"/>
					<path d="M1.75 610.41 L2.54 610.41 L2.35 609.21 L1.75 610.41M2.66 611.18 L1.35 611.18 L0.93 612 L0 612 L2.05
								 608.16 L2.95 608.16 L3.65 612 L2.79 612 L2.66 611.18" class="st8"/>
				</g>
				<g id="shape1017-65" v:mID="1017" v:groupContext="shape" transform="translate(31.296,-20.9464)">
					<title>Sheet.1017</title>
					<path d="M2.52 611.8 C2.25 611.93 1.95 612 1.65 612 C0.64 612 0 611.24 0 610.29 C0 609.07 1.02 608.04 2.24 608.04
								 C2.55 608.04 2.82 608.12 3.05 608.24 L2.94 609.16 C2.77 608.97 2.5 608.84 2.16 608.84 C1.46 608.84
								 0.84 609.47 0.84 610.21 C0.84 610.76 1.19 611.2 1.74 611.2 C2.08 611.2 2.41 611.07 2.63 610.89 L2.52
								 611.8 L2.52 611.8 Z" class="st9"/>
					<path d="M2.52 611.8 C2.25 611.93 1.95 612 1.65 612 C0.64 612 0 611.24 0 610.29 C0 609.07 1.02 608.04 2.24 608.04
								 C2.55 608.04 2.82 608.12 3.05 608.24 L2.94 609.16 C2.77 608.97 2.5 608.84 2.16 608.84 C1.46 608.84
								 0.84 609.47 0.84 610.21 C0.84 610.76 1.19 611.2 1.74 611.2 C2.08 611.2 2.41 611.07 2.63 610.89 L2.52
								 611.8" class="st8"/>
				</g>
				<g id="shape1018-68" v:mID="1018" v:groupContext="shape" transform="translate(36.1153,-21.0169)">
					<title>Sheet.1018</title>
					<path d="M2.74 610.46 L1.07 610.46 L0.8 612 L0 612 L0.68 608.16 L1.48 608.16 L1.21 609.68 L2.88 609.68 L3.15
								 608.16 L3.95 608.16 L3.27 612 L2.47 612 L2.74 610.46 L2.74 610.46 Z" class="st9"/>
					<path d="M2.74 610.46 L1.07 610.46 L0.8 612 L0 612 L0.68 608.16 L1.48 608.16 L1.21 609.68 L2.88 609.68 L3.15
								 608.16 L3.95 608.16 L3.27 612 L2.47 612 L2.74 610.46" class="st8"/>
				</g>
				<g id="shape1019-71" v:mID="1019" v:groupContext="shape" transform="translate(41.731,-21.0241)">
					<title>Sheet.1019</title>
					<path d="M0 612 L0.68 608.16 L2.8 608.16 L2.67 608.93 L1.34 608.93 L1.21 609.68 L2.42 609.68 L2.29 610.45 L1.07
								 610.45 L0.94 611.22 L2.26 611.22 L2.13 612 L0 612 L0 612 Z" class="st9"/>
					<path d="M0 612 L0.68 608.16 L2.8 608.16 L2.67 608.93 L1.34 608.93 L1.21 609.68 L2.42 609.68 L2.29 610.45 L1.07
								 610.45 L0.94 611.22 L2.26 611.22 L2.13 612 L0 612" class="st8"/>
				</g>
			</g>
		</g>
		<g id="group1028-74" transform="translate(28.5,-369.75)" v:mID="1028" v:groupContext="group">
			<title>Sheet.1028</title>
			<g id="shape1029-75" v:mID="1029" v:groupContext="shape">
				<title>Sheet.1029</title>
				<path d="M3.75 563.25 L26.25 563.25 L26.25 576.38 L28.12 578.25 L41.25 578.25 L41.25 582 L45 582 L45 573.75 L44.44
							 572.4 L32.14 560.03 L30.82 559.5 L1.87 559.5 L0 561.38 L0 610.12 L1.87 612 L15 612 L15 608.25 L3.75
							 608.25 L3.75 563.25 ZM30 563.25 L41.25 574.5 L30 574.5 L30 563.25 ZM50.62 585.75 L20.62 585.75 L18.75
							 587.63 L18.75 610.12 L20.62 612 L50.62 612 L52.5 610.12 L52.5 587.63 L50.62 585.75 ZM48.75 589.5 L48.75
							 604.5 L42.64 598.5 L39.97 598.5 L35.62 602.89 L27.64 594.9 L24.97 594.9 L22.5 597.37 L22.5 589.5 L48.75
							 589.5 ZM38.25 605.51 L41.29 602.47 L47.06 608.25 L40.99 608.25 L38.25 605.51 ZM22.5 608.25 L22.5 602.66
							 L26.25 598.91 L35.7 608.25 L22.5 608.25 ZM43.12 595.13 A1.875 1.875 -180 0 0 43.12 591.38 A1.875 1.875
							 -180 0 0 43.12 595.13 Z" class="st10"/>
			</g>
		</g>
		<g id="shape1074-77" v:mID="1074" v:groupContext="shape" transform="translate(385.465,-349)">
			<title>Sheet.1074</title>
			<desc>Training data</desc>
			<v:textBlock v:margins="rect(4,4,4,4)"/>
			<v:textRect cx="47.5777" cy="602" width="95.16" height="20"/>
			<rect x="0" y="592" width="95.1553" height="20" class="st11"/>
			<text x="12.75" y="605.6" class="st5" v:langID="1033"><v:paragraph v:horizAlign="1"/><v:tabList/>Training data</text>		</g>
		<g id="shape1088-80" v:mID="1088" v:groupContext="shape" transform="translate(110.716,-488.862)">
			<title>Sheet.1088</title>
			<desc>Azure Databricks</desc>
			<v:textBlock v:margins="rect(4,4,4,4)"/>
			<v:textRect cx="55.7838" cy="602" width="111.57" height="20"/>
			<rect x="0" y="592" width="111.568" height="20" class="st11"/>
			<text x="11.23" y="605.6" class="st5" v:langID="1033"><v:paragraph v:horizAlign="1"/><v:tabList/>Azure Databricks</text>		</g>
		<g id="shape1089-83" v:mID="1089" v:groupContext="shape" transform="translate(169.015,-324.25)">
			<title>Sheet.1089</title>
			<desc>Databricks store</desc>
			<v:textBlock v:margins="rect(4,4,4,4)"/>
			<v:textRect cx="47.5777" cy="602" width="95.16" height="20"/>
			<rect x="0" y="592" width="95.1553" height="20" class="st11"/>
			<text x="4.9" y="605.6" class="st5" v:langID="1033"><v:paragraph v:horizAlign="1"/><v:tabList/>Databricks store</text>		</g>
		<g id="shape1090-86" v:mID="1090" v:groupContext="shape" transform="translate(99,-103.5)">
			<title>Sheet.1090</title>
			<rect x="0" y="137.25" width="666" height="474.75" class="st12"/>
		</g>
		<g id="shape1091-88" v:mID="1091" v:groupContext="shape" transform="translate(120.713,-119.531)">
			<title>Sheet.1091</title>
			<desc>Results data</desc>
			<v:textBlock v:margins="rect(4,4,4,4)" v:verticalAlign="2"/>
			<v:textRect cx="313.416" cy="567.281" width="626.84" height="89.4375"/>
			<path d="M0 612 L626.83 612 L626.83 522.56 L0 522.56 L0 612 Z" class="st13"/>
			<text x="279.14" y="604.4" class="st3" v:langID="1033"><v:paragraph v:horizAlign="1"/><v:tabList/>Results data</text>		</g>
		<g id="shape1160-91" v:mID="1160" v:groupContext="shape" transform="translate(83.1903,-396)">
			<title>Sheet.1160</title>
			<path d="M0 612 L43.8 612" class="st14"/>
		</g>
		<g id="shape1161-97" v:mID="1161" v:groupContext="shape" transform="translate(298.155,-396)">
			<title>Sheet.1161</title>
			<path d="M0 612 L45.28 612" class="st14"/>
		</g>
		<g id="shape1162-102" v:mID="1162" v:groupContext="shape" transform="translate(514.605,-396)">
			<title>Sheet.1162</title>
			<path d="M0 612 L45.51 612" class="st14"/>
		</g>
		<g id="shape1163-107" v:mID="1163" v:groupContext="shape" transform="translate(514.605,-271.562)">
			<title>Sheet.1163</title>
			<path d="M0 612 L45.51 612" class="st14"/>
		</g>
		<g id="shape1164-112" v:mID="1164" v:groupContext="shape" transform="translate(1261.72,254.25) rotate(90)">
			<title>Sheet.1164</title>
			<path d="M0 612 L39.9 612" class="st14"/>
		</g>
		<g id="group1165-117" transform="translate(30.6862,-40.5)" v:mID="1165" v:groupContext="group">
			<title>logo.1025</title>
			<g id="group1166-118" transform="translate(0,-4.5)" v:mID="1166" v:groupContext="group">
				<v:userDefs>
					<v:ud v:nameU="msvDisableCustomConnectionPoints" v:prompt="" v:val="VT4(True)"/>
				</v:userDefs>
				<title>Azure.1002</title>
				<g id="group1167-119" v:mID="1167" v:groupContext="group">
					<title>Sheet.1167</title>
					<g id="shape1168-120" v:mID="1168" v:groupContext="shape">
						<title>Sheet.1168</title>
						<path d="M11.96 576 L22.69 576 L11.57 610.79 A1.67987 1.77404 0 0 1 9.98 612 L1.59 612 A1.67905 1.77317 0
									 0 1 0 609.66 L10.37 577.21 A1.6774 1.77143 0 0 1 11.96 576 Z" class="st16"/>
					</g>
					<g id="shape1169-124" v:mID="1169" v:groupContext="shape" transform="translate(9.14148,0)">
						<title>Sheet.1169</title>
						<path d="M17.63 598.67 L0.73 598.67 a0.781965 0.8258 -180 0 0 -0.533644 1.42843 L11.79 611.52 A1.67987 1.77404
									 -180 0 0 12.93 612 L22.51 612 L17.63 598.67 Z" class="st17"/>
					</g>
					<g id="group1170-126" transform="translate(12.9538,0)" v:mID="1170" v:groupContext="group">
						<title>Sheet.1170</title>
						<g id="shape1171-127" v:mID="1171" v:groupContext="shape" transform="translate(7.38139,0)">
							<title>Sheet.1171</title>
							<path d="M3.43 612 L11.31 612 L6.43 598.67 L0 598.67 L3.72 610.29 A1.69796 1.79314 0 0 1 3.43 612 Z"
									class="st18"/>
						</g>
						<g id="shape1172-129" v:mID="1172" v:groupContext="shape" transform="translate(9.29257E-14,-20.9906)">
							<title>Sheet.1172</title>
							<path d="M4.94 612 L9.73 596.99 L0 596.99 A1.70042 1.79575 0 0 1 0.33 597.59 L4.94 612 Z" class="st18"/>
						</g>
					</g>
					<g id="group1173-131" transform="translate(12.3462,0)" v:mID="1173" v:groupContext="group">
						<title>Sheet.1173</title>
						<g id="shape1174-132" v:mID="1174" v:groupContext="shape" transform="translate(0,-20.0024)">
							<title>Sheet.1174</title>
							<path d="M0 596 L5.23 612 L5.95 609.72 L1.58 596 L0 596 Z" class="st19"/>
						</g>
						<g id="shape1175-134" v:mID="1175" v:groupContext="shape" transform="translate(7.32219,0)">
							<title>Sheet.1175</title>
							<path d="M2.59 612 L4.85 612 A2.31876 2.44874 -180 0 0 4.98 610.07 L1.33 598.67 L0 598.67 L3.79 610.5
										 A1.07469 1.13493 0 0 1 2.77 612 L2.59 612 Z" class="st19"/>
						</g>
					</g>
					<g id="shape1176-136" v:mID="1176" v:groupContext="shape" transform="translate(12.088,0)">
						<title>Sheet.1176</title>
						<path d="M13.54 577.21 A1.6774 1.77143 -180 0 0 11.95 576 L0 576 A1.70454 1.80009 0 0 1 1.61 577.22 L11.97
									 609.63 A1.70371 1.79922 0 0 1 10.35 612 L22.32 612 A1.67905 1.77317 -180 0 0 23.91 609.66 L13.54
									 577.21 Z" class="st20"/>
					</g>
				</g>
			</g>
			<g id="shape1177-140" v:mID="1177" v:groupContext="shape" transform="translate(28.6277,0)">
				<title>Sheet.1177</title>
				<desc>Microsoft Azure</desc>
				<v:textBlock v:margins="rect(4,4,4,4)"/>
				<v:textRect cx="36" cy="589.5" width="72" height="45"/>
				<rect x="0" y="567" width="72" height="45" class="st11"/>
				<text x="5.5" y="585.3" class="st21" v:langID="1033"><v:paragraph v:horizAlign="1"/><v:tabList/>Microsoft<v:newlineChar/><tspan
							x="17.66" dy="1.2em" class="st22">Azure</tspan></text>			</g>
		</g>
		<g id="group1178-144" transform="translate(171.209,-380.25)" v:mID="1178" v:groupContext="group">
			<title>Sheet.1178</title>
			<g id="shape1179-145" v:mID="1179" v:groupContext="shape">
				<title>Sheet.1179</title>
				<path d="M0 583.49 L0 584.65 L17.79 594.69 L33.68 585.72 L33.68 589.35 L17.79 598.37 L0.9 588.77 L0 589.27 L0 596.22
							 L17.79 606.23 L33.68 597.29 L33.68 600.89 L17.79 609.92 L0.9 600.31 L0 600.81 L0 601.99 L17.79 612 L35.58
							 601.99 L35.58 595.04 L34.67 594.54 L17.79 604.14 L1.9 595.11 L1.9 591.54 L17.79 600.47 L35.58 590.46
							 L35.58 583.6 L34.67 583.11 L17.79 592.71 L2.71 584.14 L17.79 575.62 L30.21 582.64 L31.3 582.03 L31.3
							 581.07 L17.79 573.45 L0 583.49 Z" class="st23"/>
			</g>
		</g>
		<g id="group1180-147" transform="translate(144,-510.117)" v:mID="1180" v:groupContext="group">
			<title>Sheet.1180</title>
			<g id="shape1181-148" v:mID="1181" v:groupContext="shape">
				<title>Sheet.1181</title>
				<path d="M0 569.94 L0 571.65 L26.25 586.46 L49.69 573.22 L49.69 578.58 L26.25 591.89 L1.32 577.73 L0 578.47 L0 588.71
							 L26.25 603.48 L49.69 590.29 L49.69 595.6 L26.25 608.92 L1.32 594.76 L0 595.49 L0 597.23 L26.25 612 L52.5
							 597.23 L52.5 586.97 L51.16 586.25 L26.25 600.41 L2.8 587.09 L2.8 581.8 L26.25 594.98 L52.5 580.21 L52.5
							 570.1 L51.16 569.37 L26.25 583.53 L4.01 570.89 L26.25 558.33 L44.57 568.68 L46.18 567.78 L46.18 566.37
							 L26.25 555.12 L0 569.94 Z" class="st23"/>
			</g>
		</g>
		<g id="group1182-150" transform="translate(225.03,-380.25)" v:mID="1182" v:groupContext="group">
			<title>Sheet.1182</title>
			<g id="shape1183-151" v:mID="1183" v:groupContext="shape">
				<title>Sheet.1183</title>
				<path d="M0 583.49 L0 584.65 L17.79 594.69 L33.68 585.72 L33.68 589.35 L17.79 598.37 L0.9 588.77 L0 589.27 L0 596.22
							 L17.79 606.23 L33.68 597.29 L33.68 600.89 L17.79 609.92 L0.9 600.31 L0 600.81 L0 601.99 L17.79 612 L35.58
							 601.99 L35.58 595.04 L34.67 594.54 L17.79 604.14 L1.9 595.11 L1.9 591.54 L17.79 600.47 L35.58 590.46
							 L35.58 583.6 L34.67 583.11 L17.79 592.71 L2.71 584.14 L17.79 575.62 L30.21 582.64 L31.3 582.03 L31.3
							 581.07 L17.79 573.45 L0 583.49 Z" class="st23"/>
			</g>
		</g>
		<g id="group1184-153" transform="translate(388.042,-380.25)" v:mID="1184" v:groupContext="group">
			<title>Sheet.1184</title>
			<g id="shape1185-154" v:mID="1185" v:groupContext="shape">
				<title>Sheet.1185</title>
				<path d="M0 583.49 L0 584.65 L17.79 594.69 L33.68 585.72 L33.68 589.35 L17.79 598.37 L0.9 588.77 L0 589.27 L0 596.22
							 L17.79 606.23 L33.68 597.29 L33.68 600.89 L17.79 609.92 L0.9 600.31 L0 600.81 L0 601.99 L17.79 612 L35.58
							 601.99 L35.58 595.04 L34.67 594.54 L17.79 604.14 L1.9 595.11 L1.9 591.54 L17.79 600.47 L35.58 590.46
							 L35.58 583.6 L34.67 583.11 L17.79 592.71 L2.71 584.14 L17.79 575.62 L30.21 582.64 L31.3 582.03 L31.3
							 581.07 L17.79 573.45 L0 583.49 Z" class="st23"/>
			</g>
		</g>
		<g id="group1186-156" transform="translate(441,-380.25)" v:mID="1186" v:groupContext="group">
			<title>Sheet.1186</title>
			<g id="shape1187-157" v:mID="1187" v:groupContext="shape">
				<title>Sheet.1187</title>
				<path d="M0 583.49 L0 584.65 L17.79 594.69 L33.68 585.72 L33.68 589.35 L17.79 598.37 L0.9 588.77 L0 589.27 L0 596.22
							 L17.79 606.23 L33.68 597.29 L33.68 600.89 L17.79 609.92 L0.9 600.31 L0 600.81 L0 601.99 L17.79 612 L35.58
							 601.99 L35.58 595.04 L34.67 594.54 L17.79 604.14 L1.9 595.11 L1.9 591.54 L17.79 600.47 L35.58 590.46
							 L35.58 583.6 L34.67 583.11 L17.79 592.71 L2.71 584.14 L17.79 575.62 L30.21 582.64 L31.3 582.03 L31.3
							 581.07 L17.79 573.45 L0 583.49 Z" class="st23"/>
			</g>
		</g>
		<g id="group1188-159" transform="translate(388.042,-290.25)" v:mID="1188" v:groupContext="group">
			<title>Sheet.1188</title>
			<g id="shape1189-160" v:mID="1189" v:groupContext="shape">
				<title>Sheet.1189</title>
				<path d="M0 583.49 L0 584.65 L17.79 594.69 L33.68 585.72 L33.68 589.35 L17.79 598.37 L0.9 588.77 L0 589.27 L0 596.22
							 L17.79 606.23 L33.68 597.29 L33.68 600.89 L17.79 609.92 L0.9 600.31 L0 600.81 L0 601.99 L17.79 612 L35.58
							 601.99 L35.58 595.04 L34.67 594.54 L17.79 604.14 L1.9 595.11 L1.9 591.54 L17.79 600.47 L35.58 590.46
							 L35.58 583.6 L34.67 583.11 L17.79 592.71 L2.71 584.14 L17.79 575.62 L30.21 582.64 L31.3 582.03 L31.3
							 581.07 L17.79 573.45 L0 583.49 Z" class="st23"/>
			</g>
		</g>
		<g id="group1190-162" transform="translate(441.126,-290.25)" v:mID="1190" v:groupContext="group">
			<title>Sheet.1190</title>
			<g id="shape1191-163" v:mID="1191" v:groupContext="shape">
				<title>Sheet.1191</title>
				<path d="M0 583.49 L0 584.65 L17.79 594.69 L33.68 585.72 L33.68 589.35 L17.79 598.37 L0.9 588.77 L0 589.27 L0 596.22
							 L17.79 606.23 L33.68 597.29 L33.68 600.89 L17.79 609.92 L0.9 600.31 L0 600.81 L0 601.99 L17.79 612 L35.58
							 601.99 L35.58 595.04 L34.67 594.54 L17.79 604.14 L1.9 595.11 L1.9 591.54 L17.79 600.47 L35.58 590.46
							 L35.58 583.6 L34.67 583.11 L17.79 592.71 L2.71 584.14 L17.79 575.62 L30.21 582.64 L31.3 582.03 L31.3
							 581.07 L17.79 573.45 L0 583.49 Z" class="st23"/>
			</g>
		</g>
		<g id="group1192-165" transform="translate(276.553,-151.724)" v:mID="1192" v:groupContext="group">
			<title>Sheet.1192</title>
			<g id="shape1193-166" v:mID="1193" v:groupContext="shape">
				<title>Sheet.1193</title>
				<path d="M0 583.49 L0 584.65 L17.79 594.69 L33.68 585.72 L33.68 589.35 L17.79 598.37 L0.9 588.77 L0 589.27 L0 596.22
							 L17.79 606.23 L33.68 597.29 L33.68 600.89 L17.79 609.92 L0.9 600.31 L0 600.81 L0 601.99 L17.79 612 L35.58
							 601.99 L35.58 595.04 L34.67 594.54 L17.79 604.14 L1.9 595.11 L1.9 591.54 L17.79 600.47 L35.58 590.46
							 L35.58 583.6 L34.67 583.11 L17.79 592.71 L2.71 584.14 L17.79 575.62 L30.21 582.64 L31.3 582.03 L31.3
							 581.07 L17.79 573.45 L0 583.49 Z" class="st23"/>
			</g>
		</g>
		<g id="group1194-168" transform="translate(219.709,-151.724)" v:mID="1194" v:groupContext="group">
			<title>Sheet.1194</title>
			<g id="shape1195-169" v:mID="1195" v:groupContext="shape">
				<title>Sheet.1195</title>
				<path d="M0 583.49 L0 584.65 L17.79 594.69 L33.68 585.72 L33.68 589.35 L17.79 598.37 L0.9 588.77 L0 589.27 L0 596.22
							 L17.79 606.23 L33.68 597.29 L33.68 600.89 L17.79 609.92 L0.9 600.31 L0 600.81 L0 601.99 L17.79 612 L35.58
							 601.99 L35.58 595.04 L34.67 594.54 L17.79 604.14 L1.9 595.11 L1.9 591.54 L17.79 600.47 L35.58 590.46
							 L35.58 583.6 L34.67 583.11 L17.79 592.71 L2.71 584.14 L17.79 575.62 L30.21 582.64 L31.3 582.03 L31.3
							 581.07 L17.79 573.45 L0 583.49 Z" class="st23"/>
			</g>
		</g>
		<g id="group1196-171" transform="translate(390.241,-150.447)" v:mID="1196" v:groupContext="group">
			<title>Sheet.1196</title>
			<g id="shape1197-172" v:mID="1197" v:groupContext="shape">
				<title>Sheet.1197</title>
				<path d="M0 583.49 L0 584.65 L17.79 594.69 L33.68 585.72 L33.68 589.35 L17.79 598.37 L0.9 588.77 L0 589.27 L0 596.22
							 L17.79 606.23 L33.68 597.29 L33.68 600.89 L17.79 609.92 L0.9 600.31 L0 600.81 L0 601.99 L17.79 612 L35.58
							 601.99 L35.58 595.04 L34.67 594.54 L17.79 604.14 L1.9 595.11 L1.9 591.54 L17.79 600.47 L35.58 590.46
							 L35.58 583.6 L34.67 583.11 L17.79 592.71 L2.71 584.14 L17.79 575.62 L30.21 582.64 L31.3 582.03 L31.3
							 581.07 L17.79 573.45 L0 583.49 Z" class="st23"/>
			</g>
		</g>
		<g id="group1198-174" transform="translate(333.397,-150.447)" v:mID="1198" v:groupContext="group">
			<title>Sheet.1198</title>
			<g id="shape1199-175" v:mID="1199" v:groupContext="shape">
				<title>Sheet.1199</title>
				<path d="M0 583.49 L0 584.65 L17.79 594.69 L33.68 585.72 L33.68 589.35 L17.79 598.37 L0.9 588.77 L0 589.27 L0 596.22
							 L17.79 606.23 L33.68 597.29 L33.68 600.89 L17.79 609.92 L0.9 600.31 L0 600.81 L0 601.99 L17.79 612 L35.58
							 601.99 L35.58 595.04 L34.67 594.54 L17.79 604.14 L1.9 595.11 L1.9 591.54 L17.79 600.47 L35.58 590.46
							 L35.58 583.6 L34.67 583.11 L17.79 592.71 L2.71 584.14 L17.79 575.62 L30.21 582.64 L31.3 582.03 L31.3
							 581.07 L17.79 573.45 L0 583.49 Z" class="st23"/>
			</g>
		</g>
		<g id="group1200-177" transform="translate(504.418,-150.447)" v:mID="1200" v:groupContext="group">
			<title>Sheet.1200</title>
			<g id="shape1201-178" v:mID="1201" v:groupContext="shape">
				<title>Sheet.1201</title>
				<path d="M0 583.49 L0 584.65 L17.79 594.69 L33.68 585.72 L33.68 589.35 L17.79 598.37 L0.9 588.77 L0 589.27 L0 596.22
							 L17.79 606.23 L33.68 597.29 L33.68 600.89 L17.79 609.92 L0.9 600.31 L0 600.81 L0 601.99 L17.79 612 L35.58
							 601.99 L35.58 595.04 L34.67 594.54 L17.79 604.14 L1.9 595.11 L1.9 591.54 L17.79 600.47 L35.58 590.46
							 L35.58 583.6 L34.67 583.11 L17.79 592.71 L2.71 584.14 L17.79 575.62 L30.21 582.64 L31.3 582.03 L31.3
							 581.07 L17.79 573.45 L0 583.49 Z" class="st23"/>
			</g>
		</g>
		<g id="group1202-180" transform="translate(520.787,-153)" v:mID="1202" v:groupContext="group">
			<title>Sheet.1202</title>
			<g id="shape1203-181" v:mID="1203" v:groupContext="shape" transform="translate(-73.7014,2.55296)">
				<title>Sheet.1203</title>
				<path d="M0 583.49 L0 584.65 L17.79 594.69 L33.68 585.72 L33.68 589.35 L17.79 598.37 L0.9 588.77 L0 589.27 L0 596.22
							 L17.79 606.23 L33.68 597.29 L33.68 600.89 L17.79 609.92 L0.9 600.31 L0 600.81 L0 601.99 L17.79 612 L35.58
							 601.99 L35.58 595.04 L34.67 594.54 L17.79 604.14 L1.9 595.11 L1.9 591.54 L17.79 600.47 L35.58 590.46
							 L35.58 583.6 L34.67 583.11 L17.79 592.71 L2.71 584.14 L17.79 575.62 L30.21 582.64 L31.3 582.03 L31.3
							 581.07 L17.79 573.45 L0 583.49 Z" class="st23"/>
			</g>
		</g>
		<g id="group1204-183" transform="translate(621,-153)" v:mID="1204" v:groupContext="group">
			<title>Sheet.1204</title>
			<g id="shape1205-184" v:mID="1205" v:groupContext="shape">
				<title>Sheet.1205</title>
				<path d="M0 583.49 L0 584.65 L17.79 594.69 L33.68 585.72 L33.68 589.35 L17.79 598.37 L0.9 588.77 L0 589.27 L0 596.22
							 L17.79 606.23 L33.68 597.29 L33.68 600.89 L17.79 609.92 L0.9 600.31 L0 600.81 L0 601.99 L17.79 612 L35.58
							 601.99 L35.58 595.04 L34.67 594.54 L17.79 604.14 L1.9 595.11 L1.9 591.54 L17.79 600.47 L35.58 590.46
							 L35.58 583.6 L34.67 583.11 L17.79 592.71 L2.71 584.14 L17.79 575.62 L30.21 582.64 L31.3 582.03 L31.3
							 581.07 L17.79 573.45 L0 583.49 Z" class="st23"/>
			</g>
		</g>
		<g id="group1206-186" transform="translate(558,-153)" v:mID="1206" v:groupContext="group">
			<title>Sheet.1206</title>
			<g id="shape1207-187" v:mID="1207" v:groupContext="shape">
				<title>Sheet.1207</title>
				<path d="M0 583.49 L0 584.65 L17.79 594.69 L33.68 585.72 L33.68 589.35 L17.79 598.37 L0.9 588.77 L0 589.27 L0 596.22
							 L17.79 606.23 L33.68 597.29 L33.68 600.89 L17.79 609.92 L0.9 600.31 L0 600.81 L0 601.99 L17.79 612 L35.58
							 601.99 L35.58 595.04 L34.67 594.54 L17.79 604.14 L1.9 595.11 L1.9 591.54 L17.79 600.47 L35.58 590.46
							 L35.58 583.6 L34.67 583.11 L17.79 592.71 L2.71 584.14 L17.79 575.62 L30.21 582.64 L31.3 582.03 L31.3
							 581.07 L17.79 573.45 L0 583.49 Z" class="st23"/>
			</g>
		</g>
	</g>
</svg>
