<?xml version="1.0" encoding="utf-8"?>
<!-- Generator: Adobe Illustrator 22.0.1, SVG Export Plug-In . SVG Version: 6.00 Build 0)  -->
<svg version="1.1" id="Layer_1" xmlns="http://www.w3.org/2000/svg" xmlns:xlink="http://www.w3.org/1999/xlink" x="0px" y="0px"
	 viewBox="0 0 468 128.2" style="enable-background:new 0 0 468 128.2;" xml:space="preserve">
<style type="text/css">
	.st0{fill:none;stroke:#0000FF;stroke-width:0.75;stroke-linecap:round;stroke-linejoin:round;stroke-dasharray:5.25,3.75;}
	.st1{fill:none;stroke:#0078D7;stroke-width:1.1;stroke-linecap:round;stroke-linejoin:round;stroke-dasharray:0,3.3;}
	.st2{fill:#0078D7;}
	.st3{fill:none;}
	.st4{fill:#F2F2F2;stroke:#A5A5A5;stroke-width:0.5;stroke-linecap:round;stroke-linejoin:round;}
	.st5{fill:none;stroke:#FFFFFF;stroke-width:1.25;stroke-linecap:round;stroke-linejoin:round;stroke-dasharray:0,2.25;}
	.st6{fill:#FFFFFF;}
	.st7{fill:#4F4F4F;}
	.st8{font-family:'SegoeUI';}
	.st9{font-size:8.9194px;}
	.st10{fill:none;stroke:#0078D7;stroke-miterlimit:10;}
	.st11{fill:#2A3282;}
	.st12{fill:none;stroke:#FFFFFF;stroke-miterlimit:10;}
</style>
<title>Resiliency2</title>
<path class="st0" d="M10.2,92h138.3V22.7H10.2V92z"/>
<g id="shape145-11">
	<path class="st1" d="M0.6,117.5h159v-107H0.6V117.5z"/>
</g>
<g id="group149-16">
	<g id="group1-17">
		<g id="shape2-18">
			<path class="st2" d="M51.1,46H21.2c-1,0-1.8,0.9-1.8,1.9v20.8c0,1,0.7,1.9,1.8,1.9h10.3c1,3.9-0.4,4.5-6.8,4.5v2.1h22v-2.1
				c-6.5,0-7.1-0.6-5.9-4.5h10.4c1,0,1.9-0.9,2.1-1.9V48C53,46.8,52.1,46,51.1,46z M50.5,48.6V68H22V48.6H50.5L50.5,48.6z"/>
		</g>
		<g id="group3-20">
			<g id="group4-21">
				<g id="shape5-22">
					<path class="st2" d="M41.1,54.6l-5.2-3l-5.2,3v0.1l5.2,3L41.1,54.6L41.1,54.6z"/>
				</g>
			</g>
			<g id="group6-24">
				<g id="shape7-25">
					<path class="st2" d="M36.5,58.7v5.9l5.2-3v-5.9L36.5,58.7z"/>
				</g>
			</g>
			<g id="group8-27">
				<g id="shape9-28">
					<path class="st2" d="M35.3,58.7l-5.2-3v5.9l5.2,3V58.7z"/>
				</g>
			</g>
		</g>
	</g>
	<g id="group10-30">
		<g id="shape11-31">
			<path class="st2" d="M94.8,46H65.1c-1,0-1.8,0.9-1.8,1.9v20.8c0,1,0.7,1.9,1.8,1.9h10.3c1.2,3.9-0.4,4.5-6.8,4.5v2.1h22v-2.1
				c-6.5,0-7.1-0.6-5.9-4.5h10.4c1,0,1.9-0.9,2.1-1.9V48C96.9,46.8,96,46,94.8,46z M94.4,48.6V68H65.8V48.6H94.4L94.4,48.6z"/>
		</g>
		<g id="group12-33">
			<g id="group13-34">
				<g id="shape14-35">
					<path class="st2" d="M85,54.6l-5.2-3l-5.2,3v0.1l5.2,3L85,54.6L85,54.6z"/>
				</g>
			</g>
			<g id="group15-37">
				<g id="shape16-38">
					<path class="st2" d="M80.2,58.7v5.9l5.2-3v-5.9L80.2,58.7z"/>
				</g>
			</g>
			<g id="group17-40">
				<g id="shape18-41">
					<path class="st2" d="M79.2,58.7l-5.2-3v5.9l5.2,3V58.7z"/>
				</g>
			</g>
		</g>
	</g>
</g>
<g id="shape301-52">
	<path class="st1" d="M185.4,127.7h154.2V0.6H185.4V127.7z"/>
</g>
<rect x="185.4" y="96.4" class="st3" width="115.2" height="31.1"/>
<g id="shape78-58">
	<rect x="195" y="26.6" class="st4" width="133.5" height="38.8"/>
</g>
<g id="group303-60">
	<g id="group304-61">
		<g id="shape305-62">
			<path class="st2" d="M236.4,32.8h-25.3c-0.9,0-1.5,0.7-1.5,1.6V52c0,0.9,0.6,1.5,1.5,1.6h8.6c0.9,3.3-0.3,3.7-5.8,3.7v1.8h18.7
				v-1.6c-5.5,0-5.9-0.4-5.1-3.7h8.9c0.9,0,1.6-0.7,1.8-1.6V34.3C238,33.4,237.3,32.7,236.4,32.8z M235.8,34.9v16.5h-24.1V34.9
				H235.8L235.8,34.9z"/>
		</g>
		<g id="group306-64">
			<g id="group307-65">
				<g id="shape308-66">
					<path class="st2" d="M227.9,40.1l-4.5-2.5l-4.5,2.5l0,0l4.5,2.5L227.9,40.1z"/>
				</g>
			</g>
			<g id="group309-68">
				<g id="shape310-69">
					<path class="st2" d="M223.9,43.4v5.1l4.5-2.5v-5.1L223.9,43.4z"/>
				</g>
			</g>
			<g id="group311-71">
				<g id="shape312-72">
					<path class="st2" d="M223,43.4l-4.5-2.5v5.1l4.5,2.5V43.4z"/>
				</g>
			</g>
		</g>
	</g>
	<g id="group313-74">
		<g id="shape314-75">
			<path class="st2" d="M273.2,32.8H248c-0.9,0-1.5,0.7-1.5,1.6V52c0,0.9,0.6,1.5,1.5,1.6h8.6c0.9,3.3-0.3,3.7-5.8,3.7v1.8h18.6
				v-1.6c-5.5,0-5.9-0.4-5.1-3.7h8.9c0.9,0,1.6-0.7,1.8-1.6V34.3C275,33.4,274.3,32.8,273.2,32.8z M272.8,34.9v16.5h-24.1V34.9
				H272.8L272.8,34.9z"/>
		</g>
		<g id="group315-77">
			<g id="group316-78">
				<g id="shape317-79">
					<path class="st2" d="M264.9,40.1l-4.5-2.5l-4.5,2.5l0,0l4.5,2.5L264.9,40.1z"/>
				</g>
			</g>
			<g id="group318-81">
				<g id="shape319-82">
					<path class="st2" d="M260.9,43.4v5.1l4.5-2.5v-5.1L260.9,43.4z"/>
				</g>
			</g>
			<g id="group320-84">
				<g id="shape321-85">
					<path class="st2" d="M260,43.4l-4.5-2.5v5.1l4.5,2.5V43.4z"/>
				</g>
			</g>
		</g>
	</g>
</g>
<g id="shape369-88">
	<rect x="195" y="68" class="st4" width="133.5" height="38.8"/>
</g>
<g id="group370-90">
	<g id="group371-91">
		<g id="shape372-92">
			<path class="st2" d="M236.4,74.3h-25.3c-0.9,0-1.5,0.7-1.5,1.6v17.5c0,0.9,0.6,1.5,1.5,1.6h8.6c0.9,3.3-0.3,3.7-5.8,3.7v1.8h18.7
				v-1.8c-5.5,0-5.9-0.4-5.1-3.7h8.9c0.9,0,1.6-0.7,1.8-1.6V75.9C238,75,237.3,74.3,236.4,74.3z M235.8,76.5V93h-24.1V76.5H235.8
				L235.8,76.5z"/>
		</g>
		<g id="group373-94">
			<g id="group374-95">
				<g id="shape375-96">
					<path class="st2" d="M227.9,81.6l-4.5-2.5l-4.5,2.5l0,0l4.5,2.5L227.9,81.6z"/>
				</g>
			</g>
			<g id="group376-98">
				<g id="shape377-99">
					<path class="st2" d="M223.9,85V90l4.5-2.5v-5.1L223.9,85z"/>
				</g>
			</g>
			<g id="group378-101">
				<g id="shape379-102">
					<path class="st2" d="M223,85l-4.5-2.5v5.1L223,90V85z"/>
				</g>
			</g>
		</g>
	</g>
	<g id="group380-104">
		<g id="shape381-105">
			<path class="st2" d="M273.2,74.3H248c-0.9,0-1.5,0.7-1.5,1.6v17.5c0,0.9,0.6,1.5,1.5,1.6h8.6c0.9,3.3-0.3,3.7-5.8,3.7v1.8h18.6
				v-1.8c-5.5,0-5.9-0.4-5.1-3.7h8.9c0.9,0,1.6-0.7,1.8-1.6V75.9C275,75,274.3,74.3,273.2,74.3z M272.8,76.5V93h-24.1V76.5H272.8
				L272.8,76.5z"/>
		</g>
		<g id="group382-107">
			<g id="group383-108">
				<g id="shape384-109">
					<path class="st2" d="M264.9,81.6l-4.5-2.5l-4.5,2.5l0,0l4.5,2.5L264.9,81.6z"/>
				</g>
			</g>
			<g id="group385-111">
				<g id="shape386-112">
					<path class="st2" d="M260.9,85V90l4.5-2.5v-5.1L260.9,85z"/>
				</g>
			</g>
			<g id="group387-114">
				<g id="shape388-115">
					<path class="st2" d="M260,85l-4.5-2.5v5.1L260,90V85z"/>
				</g>
			</g>
		</g>
	</g>
</g>
<g>
	<path class="st2" d="M46,35.6h-1.1L44,33.2h-3.5l-0.8,2.3h-1.1l3.2-8.3h1L46,35.6z M43.7,32.3l-1.3-3.5c0-0.1-0.1-0.3-0.1-0.6h0
		c0,0.2-0.1,0.4-0.1,0.6l-1.3,3.5H43.7z"/>
	<path class="st2" d="M51.5,29.6l-2.4,5.9h-0.9l-2.3-5.9h1l1.5,4.3c0.1,0.3,0.2,0.6,0.2,0.8h0c0-0.3,0.1-0.6,0.2-0.8l1.6-4.3H51.5z"
		/>
	<path class="st2" d="M56.8,35.6h-1v-0.9h0c-0.4,0.7-1,1.1-1.8,1.1c-0.6,0-1.1-0.2-1.4-0.5c-0.3-0.3-0.5-0.7-0.5-1.2
		c0-1.1,0.7-1.8,2-1.9l1.8-0.2c0-1-0.4-1.5-1.2-1.5c-0.7,0-1.4,0.2-1.9,0.7v-1c0.6-0.4,1.3-0.6,2-0.6c1.4,0,2.1,0.7,2.1,2.2V35.6z
		 M55.8,32.5l-1.4,0.2c-0.4,0.1-0.8,0.2-1,0.3c-0.2,0.2-0.3,0.4-0.3,0.8c0,0.3,0.1,0.5,0.3,0.7c0.2,0.2,0.5,0.3,0.8,0.3
		c0.5,0,0.9-0.2,1.2-0.5c0.3-0.3,0.5-0.8,0.5-1.3V32.5z"/>
	<path class="st2" d="M59.1,28.1c-0.2,0-0.3-0.1-0.4-0.2c-0.1-0.1-0.2-0.3-0.2-0.4c0-0.2,0.1-0.3,0.2-0.4c0.1-0.1,0.3-0.2,0.4-0.2
		c0.2,0,0.3,0.1,0.4,0.2c0.1,0.1,0.2,0.3,0.2,0.4c0,0.2-0.1,0.3-0.2,0.4C59.4,28,59.2,28.1,59.1,28.1z M59.5,35.6h-1v-5.9h1V35.6z"
		/>
	<path class="st2" d="M62.4,35.6h-1v-8.8h1V35.6z"/>
	<path class="st2" d="M68.6,35.6h-1v-0.9h0c-0.4,0.7-1,1.1-1.8,1.1c-0.6,0-1.1-0.2-1.4-0.5c-0.3-0.3-0.5-0.7-0.5-1.2
		c0-1.1,0.7-1.8,2-1.9l1.8-0.2c0-1-0.4-1.5-1.2-1.5c-0.7,0-1.4,0.2-1.9,0.7v-1c0.6-0.4,1.3-0.6,2-0.6c1.4,0,2.1,0.7,2.1,2.2V35.6z
		 M67.6,32.5l-1.4,0.2c-0.4,0.1-0.8,0.2-1,0.3c-0.2,0.2-0.3,0.4-0.3,0.8c0,0.3,0.1,0.5,0.3,0.7c0.2,0.2,0.5,0.3,0.8,0.3
		c0.5,0,0.9-0.2,1.2-0.5c0.3-0.3,0.5-0.8,0.5-1.3V32.5z"/>
	<path class="st2" d="M71.4,34.7L71.4,34.7l0,0.9h-1v-8.8h1v3.9h0c0.5-0.8,1.2-1.2,2.1-1.2c0.8,0,1.4,0.3,1.8,0.8
		c0.4,0.5,0.6,1.2,0.6,2.1c0,1-0.2,1.8-0.7,2.4c-0.5,0.6-1.1,0.9-2,0.9C72.4,35.7,71.8,35.4,71.4,34.7z M71.3,32.3v0.8
		c0,0.5,0.2,0.9,0.5,1.3c0.3,0.3,0.7,0.5,1.2,0.5c0.6,0,1-0.2,1.4-0.7s0.5-1.1,0.5-1.8c0-0.7-0.2-1.2-0.5-1.6
		c-0.3-0.4-0.7-0.6-1.2-0.6c-0.6,0-1,0.2-1.3,0.6C71.5,31.2,71.3,31.7,71.3,32.3z"/>
	<path class="st2" d="M77.9,28.1c-0.2,0-0.3-0.1-0.4-0.2s-0.2-0.3-0.2-0.4c0-0.2,0.1-0.3,0.2-0.4s0.3-0.2,0.4-0.2
		c0.2,0,0.3,0.1,0.4,0.2c0.1,0.1,0.2,0.3,0.2,0.4c0,0.2-0.1,0.3-0.2,0.4C78.2,28,78,28.1,77.9,28.1z M78.3,35.6h-1v-5.9h1V35.6z"/>
	<path class="st2" d="M81.2,35.6h-1v-8.8h1V35.6z"/>
	<path class="st2" d="M83.6,28.1c-0.2,0-0.3-0.1-0.4-0.2S83,27.7,83,27.5c0-0.2,0.1-0.3,0.2-0.4s0.3-0.2,0.4-0.2
		c0.2,0,0.3,0.1,0.4,0.2c0.1,0.1,0.2,0.3,0.2,0.4c0,0.2-0.1,0.3-0.2,0.4C84,28,83.8,28.1,83.6,28.1z M84.1,35.6h-1v-5.9h1V35.6z"/>
	<path class="st2" d="M88.8,35.5c-0.2,0.1-0.5,0.2-0.9,0.2c-1,0-1.6-0.6-1.6-1.7v-3.5h-1v-0.8h1v-1.5l1-0.3v1.8h1.5v0.8h-1.5v3.4
		c0,0.4,0.1,0.7,0.2,0.9c0.1,0.2,0.4,0.3,0.7,0.3c0.2,0,0.4-0.1,0.6-0.2V35.5z"/>
	<path class="st2" d="M94.8,29.6l-2.7,6.9c-0.5,1.2-1.2,1.8-2.1,1.8c-0.2,0-0.5,0-0.6-0.1v-0.9c0.2,0.1,0.4,0.1,0.6,0.1
		c0.5,0,0.8-0.3,1.1-0.9l0.5-1.1l-2.3-5.9h1.1l1.6,4.6c0,0.1,0.1,0.2,0.1,0.5h0c0-0.1,0.1-0.2,0.1-0.4l1.7-4.6H94.8z"/>
	<path class="st2" d="M98.8,35.2v-1.1c0.1,0.1,0.3,0.2,0.5,0.3c0.2,0.1,0.4,0.2,0.6,0.2c0.2,0.1,0.4,0.1,0.6,0.1
		c0.2,0,0.4,0.1,0.6,0.1c0.6,0,1-0.1,1.3-0.3c0.3-0.2,0.4-0.5,0.4-1c0-0.2,0-0.4-0.1-0.6c-0.1-0.2-0.2-0.3-0.4-0.5
		c-0.2-0.1-0.4-0.3-0.6-0.4s-0.5-0.3-0.8-0.4c-0.3-0.1-0.6-0.3-0.8-0.4s-0.5-0.3-0.7-0.5c-0.2-0.2-0.3-0.4-0.4-0.6
		c-0.1-0.2-0.2-0.5-0.2-0.8c0-0.4,0.1-0.7,0.2-1s0.4-0.5,0.7-0.7c0.3-0.2,0.6-0.3,0.9-0.4s0.7-0.1,1.1-0.1c0.8,0,1.4,0.1,1.8,0.3
		v1.1c-0.5-0.3-1.1-0.5-1.9-0.5c-0.2,0-0.4,0-0.6,0.1c-0.2,0-0.4,0.1-0.6,0.2c-0.2,0.1-0.3,0.2-0.4,0.4c-0.1,0.2-0.2,0.4-0.2,0.6
		c0,0.2,0,0.4,0.1,0.6c0.1,0.2,0.2,0.3,0.4,0.4s0.3,0.3,0.6,0.4c0.2,0.1,0.5,0.3,0.8,0.4c0.3,0.1,0.6,0.3,0.8,0.5s0.5,0.3,0.7,0.5
		c0.2,0.2,0.4,0.4,0.5,0.7c0.1,0.2,0.2,0.5,0.2,0.8c0,0.4-0.1,0.8-0.2,1c-0.2,0.3-0.4,0.5-0.7,0.7c-0.3,0.2-0.6,0.3-0.9,0.4
		c-0.4,0.1-0.7,0.1-1.1,0.1c-0.1,0-0.3,0-0.5,0c-0.2,0-0.4-0.1-0.6-0.1s-0.4-0.1-0.6-0.2S98.9,35.3,98.8,35.2z"/>
	<path class="st2" d="M110.2,32.8H106c0,0.7,0.2,1.2,0.5,1.5c0.3,0.4,0.8,0.5,1.4,0.5c0.7,0,1.3-0.2,1.8-0.7v0.9
		c-0.5,0.4-1.2,0.6-2.1,0.6c-0.8,0-1.5-0.3-2-0.8c-0.5-0.5-0.7-1.3-0.7-2.3c0-0.9,0.3-1.7,0.8-2.3s1.2-0.9,2-0.9
		c0.8,0,1.4,0.3,1.8,0.8c0.4,0.5,0.6,1.2,0.6,2.1V32.8z M109.2,32c0-0.6-0.1-1-0.4-1.3c-0.3-0.3-0.6-0.5-1.1-0.5
		c-0.4,0-0.8,0.2-1.1,0.5c-0.3,0.3-0.5,0.7-0.6,1.3H109.2z"/>
	<path class="st2" d="M114.4,35.5c-0.2,0.1-0.5,0.2-0.9,0.2c-1,0-1.6-0.6-1.6-1.7v-3.5h-1v-0.8h1v-1.5l1-0.3v1.8h1.5v0.8h-1.5v3.4
		c0,0.4,0.1,0.7,0.2,0.9c0.1,0.2,0.4,0.3,0.7,0.3c0.2,0,0.4-0.1,0.6-0.2V35.5z"/>
</g>
<g>
	<path class="st2" d="M225,18.7h-1.1l-0.9-2.3h-3.5l-0.8,2.3h-1.1l3.2-8.3h1L225,18.7z M222.7,15.5l-1.3-3.5c0-0.1-0.1-0.3-0.1-0.6
		h0c0,0.2-0.1,0.4-0.1,0.6l-1.3,3.5H222.7z"/>
	<path class="st2" d="M230.5,12.8l-2.4,5.9h-0.9l-2.3-5.9h1l1.5,4.3c0.1,0.3,0.2,0.6,0.2,0.8h0c0-0.3,0.1-0.6,0.2-0.8l1.6-4.3H230.5
		z"/>
	<path class="st2" d="M235.8,18.7h-1v-0.9h0c-0.4,0.7-1,1.1-1.8,1.1c-0.6,0-1.1-0.2-1.4-0.5c-0.3-0.3-0.5-0.7-0.5-1.2
		c0-1.1,0.7-1.8,2-1.9l1.8-0.2c0-1-0.4-1.5-1.2-1.5c-0.7,0-1.4,0.2-1.9,0.7v-1c0.6-0.4,1.3-0.6,2-0.6c1.4,0,2.1,0.7,2.1,2.2V18.7z
		 M234.9,15.7l-1.4,0.2c-0.4,0.1-0.8,0.2-1,0.3c-0.2,0.2-0.3,0.4-0.3,0.8c0,0.3,0.1,0.5,0.3,0.7c0.2,0.2,0.5,0.3,0.8,0.3
		c0.5,0,0.9-0.2,1.2-0.5c0.3-0.3,0.5-0.8,0.5-1.3V15.7z"/>
	<path class="st2" d="M238.1,11.3c-0.2,0-0.3-0.1-0.4-0.2s-0.2-0.3-0.2-0.4s0.1-0.3,0.2-0.4c0.1-0.1,0.3-0.2,0.4-0.2
		c0.2,0,0.3,0.1,0.4,0.2c0.1,0.1,0.2,0.3,0.2,0.4c0,0.2-0.1,0.3-0.2,0.4S238.3,11.3,238.1,11.3z M238.6,18.7h-1v-5.9h1V18.7z"/>
	<path class="st2" d="M241.4,18.7h-1V9.9h1V18.7z"/>
	<path class="st2" d="M247.6,18.7h-1v-0.9h0c-0.4,0.7-1,1.1-1.8,1.1c-0.6,0-1.1-0.2-1.4-0.5s-0.5-0.7-0.5-1.2c0-1.1,0.7-1.8,2-1.9
		l1.8-0.2c0-1-0.4-1.5-1.2-1.5c-0.7,0-1.4,0.2-1.9,0.7v-1c0.6-0.4,1.3-0.6,2-0.6c1.4,0,2.1,0.7,2.1,2.2V18.7z M246.7,15.7l-1.4,0.2
		c-0.4,0.1-0.8,0.2-1,0.3c-0.2,0.2-0.3,0.4-0.3,0.8c0,0.3,0.1,0.5,0.3,0.7c0.2,0.2,0.5,0.3,0.8,0.3c0.5,0,0.9-0.2,1.2-0.5
		c0.3-0.3,0.5-0.8,0.5-1.3V15.7z"/>
	<path class="st2" d="M250.4,17.9L250.4,17.9l0,0.9h-1V9.9h1v3.9h0c0.5-0.8,1.2-1.2,2.1-1.2c0.8,0,1.4,0.3,1.8,0.8
		c0.4,0.5,0.6,1.2,0.6,2.1c0,1-0.2,1.8-0.7,2.4c-0.5,0.6-1.1,0.9-2,0.9C251.4,18.9,250.8,18.5,250.4,17.9z M250.4,15.5v0.8
		c0,0.5,0.2,0.9,0.5,1.3c0.3,0.3,0.7,0.5,1.2,0.5c0.6,0,1-0.2,1.4-0.7c0.3-0.4,0.5-1.1,0.5-1.8c0-0.7-0.2-1.2-0.5-1.6
		c-0.3-0.4-0.7-0.6-1.2-0.6c-0.6,0-1,0.2-1.3,0.6C250.5,14.4,250.4,14.9,250.4,15.5z"/>
	<path class="st2" d="M256.9,11.3c-0.2,0-0.3-0.1-0.4-0.2c-0.1-0.1-0.2-0.3-0.2-0.4s0.1-0.3,0.2-0.4c0.1-0.1,0.3-0.2,0.4-0.2
		c0.2,0,0.3,0.1,0.4,0.2c0.1,0.1,0.2,0.3,0.2,0.4c0,0.2-0.1,0.3-0.2,0.4S257.1,11.3,256.9,11.3z M257.4,18.7h-1v-5.9h1V18.7z"/>
	<path class="st2" d="M260.3,18.7h-1V9.9h1V18.7z"/>
	<path class="st2" d="M262.7,11.3c-0.2,0-0.3-0.1-0.4-0.2c-0.1-0.1-0.2-0.3-0.2-0.4s0.1-0.3,0.2-0.4c0.1-0.1,0.3-0.2,0.4-0.2
		c0.2,0,0.3,0.1,0.4,0.2c0.1,0.1,0.2,0.3,0.2,0.4c0,0.2-0.1,0.3-0.2,0.4S262.8,11.3,262.7,11.3z M263.1,18.7h-1v-5.9h1V18.7z"/>
	<path class="st2" d="M267.8,18.7c-0.2,0.1-0.5,0.2-0.9,0.2c-1,0-1.6-0.6-1.6-1.7v-3.5h-1v-0.8h1v-1.5l1-0.3v1.8h1.5v0.8h-1.5V17
		c0,0.4,0.1,0.7,0.2,0.9c0.1,0.2,0.4,0.3,0.7,0.3c0.2,0,0.4-0.1,0.6-0.2V18.7z"/>
	<path class="st2" d="M273.8,12.8l-2.7,6.9c-0.5,1.2-1.2,1.8-2.1,1.8c-0.2,0-0.5,0-0.6-0.1v-0.9c0.2,0.1,0.4,0.1,0.6,0.1
		c0.5,0,0.8-0.3,1.1-0.9l0.5-1.1l-2.3-5.9h1.1l1.6,4.6c0,0.1,0.1,0.2,0.1,0.5h0c0-0.1,0.1-0.2,0.1-0.4l1.7-4.6H273.8z"/>
	<path class="st2" d="M283.7,10.6l-4.9,7.2h4.8v0.9h-6.2v-0.3l4.8-7.2h-4.4v-0.9h5.9V10.6z"/>
	<path class="st2" d="M287.4,18.9c-0.9,0-1.6-0.3-2.1-0.8c-0.5-0.6-0.8-1.3-0.8-2.2c0-1,0.3-1.8,0.8-2.3c0.5-0.6,1.3-0.8,2.2-0.8
		c0.9,0,1.6,0.3,2.1,0.8c0.5,0.5,0.7,1.3,0.7,2.3c0,0.9-0.3,1.7-0.8,2.3C289,18.6,288.3,18.9,287.4,18.9z M287.4,13.5
		c-0.6,0-1.1,0.2-1.5,0.6c-0.4,0.4-0.5,1-0.5,1.7c0,0.7,0.2,1.3,0.5,1.7c0.4,0.4,0.8,0.6,1.4,0.6c0.6,0,1.1-0.2,1.4-0.6
		s0.5-1,0.5-1.7c0-0.7-0.2-1.3-0.5-1.7C288.5,13.7,288.1,13.5,287.4,13.5z"/>
	<path class="st2" d="M296.8,18.7h-1v-3.4c0-1.3-0.5-1.9-1.4-1.9c-0.5,0-0.9,0.2-1.2,0.5c-0.3,0.4-0.5,0.8-0.5,1.4v3.4h-1v-5.9h1v1
		h0c0.4-0.8,1.1-1.1,2-1.1c0.7,0,1.1,0.2,1.5,0.6c0.3,0.4,0.5,1,0.5,1.8V18.7z"/>
	<path class="st2" d="M303.4,16h-4.2c0,0.7,0.2,1.2,0.5,1.5c0.3,0.4,0.8,0.5,1.4,0.5c0.7,0,1.3-0.2,1.8-0.7v0.9
		c-0.5,0.4-1.2,0.6-2.1,0.6c-0.8,0-1.5-0.3-2-0.8c-0.5-0.5-0.7-1.3-0.7-2.3c0-0.9,0.3-1.7,0.8-2.3c0.5-0.6,1.2-0.9,2-0.9
		c0.8,0,1.4,0.3,1.8,0.8c0.4,0.5,0.6,1.2,0.6,2.1V16z M302.4,15.2c0-0.6-0.1-1-0.4-1.3c-0.3-0.3-0.6-0.5-1.1-0.5
		c-0.5,0-0.8,0.2-1.1,0.5c-0.3,0.3-0.5,0.7-0.6,1.3H302.4z"/>
	<path class="st2" d="M304.4,18.5v-1c0.5,0.4,1.1,0.6,1.7,0.6c0.8,0,1.3-0.3,1.3-0.8c0-0.2,0-0.3-0.1-0.4c-0.1-0.1-0.2-0.2-0.3-0.3
		c-0.1-0.1-0.3-0.2-0.4-0.2c-0.2-0.1-0.3-0.1-0.5-0.2c-0.3-0.1-0.5-0.2-0.7-0.3c-0.2-0.1-0.4-0.2-0.5-0.4c-0.1-0.1-0.2-0.3-0.3-0.5
		c-0.1-0.2-0.1-0.4-0.1-0.6c0-0.3,0.1-0.5,0.2-0.7s0.3-0.4,0.5-0.5c0.2-0.1,0.5-0.3,0.7-0.3c0.3-0.1,0.6-0.1,0.8-0.1
		c0.5,0,1,0.1,1.4,0.3v1c-0.4-0.3-0.9-0.4-1.5-0.4c-0.2,0-0.3,0-0.5,0.1c-0.1,0-0.3,0.1-0.4,0.2c-0.1,0.1-0.2,0.2-0.2,0.3
		c-0.1,0.1-0.1,0.2-0.1,0.3c0,0.2,0,0.3,0.1,0.4c0.1,0.1,0.1,0.2,0.2,0.3c0.1,0.1,0.2,0.2,0.4,0.2c0.2,0.1,0.3,0.1,0.5,0.2
		c0.3,0.1,0.5,0.2,0.7,0.3c0.2,0.1,0.4,0.2,0.5,0.4c0.1,0.1,0.3,0.3,0.3,0.5c0.1,0.2,0.1,0.4,0.1,0.6c0,0.3-0.1,0.6-0.2,0.8
		c-0.1,0.2-0.3,0.4-0.5,0.5c-0.2,0.1-0.5,0.2-0.7,0.3c-0.3,0.1-0.6,0.1-0.9,0.1C305.4,18.9,304.9,18.8,304.4,18.5z"/>
</g>
<rect x="366.4" y="29.9" class="st2" width="101.6" height="38.8"/>
<g id="shape389-126">
	<path class="st5" d="M376.1,65h57.4V33.9h-57.4V65z"/>
</g>
<g id="group392-129">
	<g id="shape393-130">
		<path class="st6" d="M411.2,42.8h-12.6c-0.4,0-0.7,0.4-0.7,0.9v8.8c0,0.4,0.3,0.7,0.7,0.7h4.3c0.4,1.6-0.1,1.9-3,1.9v0.9h9.5v-0.9
			c-2.7,0-3-0.3-2.5-1.9h4.5c0.4,0,0.7-0.3,0.9-0.7v-8.8C412.1,43.1,411.7,42.8,411.2,42.8L411.2,42.8z M410.9,44v8.2h-12V44H410.9
			L410.9,44z"/>
	</g>
	<g id="group394-132">
		<g id="group395-133">
			<g id="shape396-134">
				<path class="st6" d="M406.9,46.5l-2.2-1.3l-2.2,1.3l0,0l2.2,1.3L406.9,46.5z"/>
			</g>
		</g>
		<g id="group397-136">
			<g id="shape398-137">
				<path class="st6" d="M405,48.2v2.5l2.2-1.3v-2.5L405,48.2z"/>
			</g>
		</g>
		<g id="group399-139">
			<g id="shape400-140">
				<path class="st6" d="M404.5,48.2l-2.2-1.3v2.5l2.2,1.3V48.2z"/>
			</g>
		</g>
	</g>
</g>
<g id="group401-142">
	<g id="shape402-143">
		<path class="st6" d="M393.8,42.8h-12.6c-0.4,0-0.7,0.4-0.7,0.9v8.8c0,0.4,0.3,0.7,0.7,0.7h4.3c0.4,1.6-0.1,1.9-3,1.9v0.9h9.4v-0.9
			c-2.7,0-3-0.3-2.5-1.9h4.5c0.4,0,0.7-0.3,0.9-0.7v-8.8C394.7,43.3,394.3,42.8,393.8,42.8z M393.5,44v8.2h-12V44H393.5z"/>
	</g>
	<g id="group403-145">
		<g id="group404-146">
			<g id="shape405-147">
				<path class="st6" d="M389.7,46.5l-2.2-1.3l-2.2,1.3l0,0l2.2,1.3L389.7,46.5z"/>
			</g>
		</g>
		<g id="group406-149">
			<g id="shape407-150">
				<path class="st6" d="M387.6,48.2v2.5l2.2-1.3v-2.5L387.6,48.2z"/>
			</g>
		</g>
		<g id="group408-152">
			<g id="shape409-153">
				<path class="st6" d="M387.1,48.2l-2.2-1.3v2.5l2.2,1.3V48.2z"/>
			</g>
		</g>
	</g>
</g>
<g id="group410-155">
	<g id="shape411-156">
		<path class="st6" d="M393.8,42.8h-12.6c-0.4,0-0.7,0.4-0.7,0.9v8.8c0,0.4,0.3,0.7,0.7,0.7h4.3c0.4,1.6-0.1,1.9-3,1.9v0.9h9.4v-0.9
			c-2.7,0-3-0.3-2.5-1.9h4.5c0.4,0,0.7-0.3,0.9-0.7v-8.8C394.7,43.3,394.3,42.8,393.8,42.8z M393.5,44v8.2h-12V44H393.5z"/>
	</g>
	<g id="group412-158">
		<g id="group413-159">
			<g id="shape414-160">
				<path class="st6" d="M389.7,46.5l-2.2-1.3l-2.2,1.3l0,0l2.2,1.3L389.7,46.5z"/>
			</g>
		</g>
		<g id="group415-162">
			<g id="shape416-163">
				<path class="st6" d="M387.6,48.2v2.5l2.2-1.3v-2.5L387.6,48.2z"/>
			</g>
		</g>
		<g id="group417-165">
			<g id="shape418-166">
				<path class="st6" d="M387.1,48.2l-2.2-1.3v2.5l2.2,1.3V48.2z"/>
			</g>
		</g>
	</g>
</g>
<g id="group392-129_1_">
	<g id="shape393-130_1_">
		<path class="st6" d="M429.4,42.8h-12.6c-0.4,0-0.7,0.4-0.7,0.9v8.8c0,0.4,0.3,0.7,0.7,0.7h4.3c0.4,1.6-0.1,1.9-3,1.9v0.9h9.5v-0.9
			c-2.7,0-3-0.3-2.5-1.9h4.5c0.4,0,0.7-0.3,0.9-0.7v-8.8C430.3,43.1,429.9,42.8,429.4,42.8L429.4,42.8z M429.1,44v8.2h-12V44H429.1
			L429.1,44z"/>
	</g>
	<g id="group394-132_1_">
		<g id="group395-133_1_">
			<g id="shape396-134_1_">
				<path class="st6" d="M425.1,46.5l-2.2-1.3l-2.2,1.3l0,0l2.2,1.3L425.1,46.5z"/>
			</g>
		</g>
		<g id="group397-136_1_">
			<g id="shape398-137_1_">
				<path class="st6" d="M423.2,48.2v2.5l2.2-1.3v-2.5L423.2,48.2z"/>
			</g>
		</g>
		<g id="group399-139_1_">
			<g id="shape400-140_1_">
				<path class="st6" d="M422.7,48.2l-2.2-1.3v2.5l2.2,1.3V48.2z"/>
			</g>
		</g>
	</g>
</g>
<g>
	<path class="st2" d="M379.3,14.8v3.1h-1V9.6h2.3c0.9,0,1.6,0.2,2.1,0.7c0.5,0.4,0.7,1,0.7,1.8s-0.3,1.4-0.8,1.9
		c-0.5,0.5-1.3,0.8-2.2,0.8H379.3z M379.3,10.5v3.4h1c0.7,0,1.2-0.2,1.5-0.5s0.5-0.7,0.5-1.3c0-1.1-0.7-1.6-2-1.6H379.3z"/>
	<path class="st2" d="M388.7,17.9h-1V17h0c-0.4,0.7-1,1.1-1.8,1.1c-0.6,0-1.1-0.2-1.4-0.5c-0.3-0.3-0.5-0.7-0.5-1.2
		c0-1.1,0.7-1.8,2-1.9l1.8-0.2c0-1-0.4-1.5-1.2-1.5c-0.7,0-1.4,0.2-1.9,0.7v-1c0.6-0.4,1.3-0.6,2-0.6c1.4,0,2.1,0.7,2.1,2.2V17.9z
		 M387.8,14.9l-1.4,0.2c-0.4,0.1-0.8,0.2-1,0.3c-0.2,0.2-0.3,0.4-0.3,0.8c0,0.3,0.1,0.5,0.3,0.7c0.2,0.2,0.5,0.3,0.8,0.3
		c0.5,0,0.9-0.2,1.2-0.5c0.3-0.3,0.5-0.8,0.5-1.3V14.9z"/>
	<path class="st2" d="M391,10.5c-0.2,0-0.3-0.1-0.4-0.2c-0.1-0.1-0.2-0.3-0.2-0.4c0-0.2,0.1-0.3,0.2-0.4c0.1-0.1,0.3-0.2,0.4-0.2
		c0.2,0,0.3,0.1,0.4,0.2s0.2,0.3,0.2,0.4c0,0.2-0.1,0.3-0.2,0.4S391.2,10.5,391,10.5z M391.5,17.9h-1V12h1V17.9z"/>
	<path class="st2" d="M396.5,12.9c-0.2-0.1-0.4-0.2-0.7-0.2c-0.4,0-0.7,0.2-1,0.6c-0.3,0.4-0.4,0.9-0.4,1.6v3h-1V12h1v1.2h0
		c0.1-0.4,0.3-0.7,0.6-1c0.3-0.2,0.6-0.4,0.9-0.4c0.2,0,0.4,0,0.6,0.1V12.9z"/>
	<path class="st2" d="M402.3,15.2h-4.2c0,0.7,0.2,1.2,0.5,1.5c0.3,0.4,0.8,0.5,1.4,0.5c0.7,0,1.3-0.2,1.8-0.7v0.9
		c-0.5,0.4-1.2,0.6-2.1,0.6c-0.8,0-1.5-0.3-2-0.8c-0.5-0.5-0.7-1.3-0.7-2.3c0-0.9,0.3-1.7,0.8-2.3c0.5-0.6,1.2-0.9,2-0.9
		s1.4,0.3,1.8,0.8c0.4,0.5,0.6,1.2,0.6,2.1V15.2z M401.3,14.4c0-0.6-0.1-1-0.4-1.3s-0.6-0.5-1.1-0.5c-0.5,0-0.8,0.2-1.1,0.5
		s-0.5,0.7-0.6,1.3H401.3z"/>
	<path class="st2" d="M408.8,17.9h-1v-1h0c-0.4,0.8-1.1,1.1-2,1.1c-0.7,0-1.3-0.3-1.8-0.8s-0.7-1.3-0.7-2.2c0-1,0.2-1.8,0.7-2.4
		c0.5-0.6,1.2-0.9,2-0.9c0.8,0,1.4,0.3,1.8,1h0V9.1h1V17.9z M407.9,15.2v-0.9c0-0.5-0.2-0.9-0.5-1.2c-0.3-0.3-0.7-0.5-1.2-0.5
		c-0.6,0-1,0.2-1.4,0.6c-0.3,0.4-0.5,1-0.5,1.8c0,0.7,0.2,1.2,0.5,1.6c0.3,0.4,0.7,0.6,1.3,0.6c0.5,0,1-0.2,1.3-0.6
		S407.9,15.8,407.9,15.2z"/>
	<path class="st2" d="M420.1,17.9h-1.2l-1.4-2.3c-0.1-0.2-0.3-0.4-0.4-0.6c-0.1-0.2-0.2-0.3-0.4-0.4c-0.1-0.1-0.3-0.2-0.4-0.2
		s-0.3-0.1-0.5-0.1h-0.8v3.5h-1V9.6h2.5c0.4,0,0.7,0,1,0.1s0.6,0.2,0.8,0.4c0.2,0.2,0.4,0.4,0.5,0.7c0.1,0.3,0.2,0.6,0.2,1
		c0,0.3,0,0.6-0.1,0.8c-0.1,0.2-0.2,0.5-0.4,0.6c-0.2,0.2-0.4,0.4-0.6,0.5s-0.5,0.2-0.8,0.3v0c0.1,0.1,0.3,0.1,0.4,0.2
		c0.1,0.1,0.2,0.2,0.3,0.3c0.1,0.1,0.2,0.2,0.3,0.4c0.1,0.1,0.2,0.3,0.3,0.5L420.1,17.9z M415.1,10.5v3h1.3c0.2,0,0.5,0,0.7-0.1
		c0.2-0.1,0.4-0.2,0.5-0.3c0.2-0.1,0.3-0.3,0.4-0.5c0.1-0.2,0.1-0.4,0.1-0.7c0-0.4-0.1-0.8-0.4-1c-0.3-0.2-0.7-0.4-1.3-0.4H415.1z"
		/>
	<path class="st2" d="M425.5,15.2h-4.2c0,0.7,0.2,1.2,0.5,1.5c0.3,0.4,0.8,0.5,1.4,0.5c0.7,0,1.3-0.2,1.8-0.7v0.9
		c-0.5,0.4-1.2,0.6-2.1,0.6c-0.8,0-1.5-0.3-2-0.8c-0.5-0.5-0.7-1.3-0.7-2.3c0-0.9,0.3-1.7,0.8-2.3c0.5-0.6,1.2-0.9,2-0.9
		s1.4,0.3,1.8,0.8c0.4,0.5,0.6,1.2,0.6,2.1V15.2z M424.6,14.4c0-0.6-0.1-1-0.4-1.3s-0.6-0.5-1.1-0.5c-0.5,0-0.8,0.2-1.1,0.5
		s-0.5,0.7-0.6,1.3H424.6z"/>
	<path class="st2" d="M432.1,17.4c0,2.2-1,3.3-3.1,3.3c-0.7,0-1.4-0.1-1.9-0.4v-1c0.7,0.4,1.3,0.6,1.9,0.6c1.5,0,2.2-0.8,2.2-2.3
		v-0.7h0c-0.5,0.8-1.1,1.1-2,1.1c-0.7,0-1.3-0.3-1.8-0.8c-0.5-0.5-0.7-1.2-0.7-2.1c0-1,0.2-1.8,0.7-2.4c0.5-0.6,1.1-0.9,2-0.9
		c0.8,0,1.4,0.3,1.8,1h0V12h1V17.4z M431.1,15.2v-0.9c0-0.5-0.2-0.9-0.5-1.2c-0.3-0.3-0.7-0.5-1.2-0.5c-0.6,0-1,0.2-1.4,0.6
		c-0.3,0.4-0.5,1-0.5,1.8c0,0.7,0.2,1.2,0.5,1.6c0.3,0.4,0.7,0.6,1.3,0.6c0.5,0,1-0.2,1.3-0.6C430.9,16.3,431.1,15.8,431.1,15.2z"/>
	<path class="st2" d="M434.5,10.5c-0.2,0-0.3-0.1-0.4-0.2c-0.1-0.1-0.2-0.3-0.2-0.4c0-0.2,0.1-0.3,0.2-0.4c0.1-0.1,0.3-0.2,0.4-0.2
		c0.2,0,0.3,0.1,0.4,0.2c0.1,0.1,0.2,0.3,0.2,0.4c0,0.2-0.1,0.3-0.2,0.4C434.8,10.4,434.7,10.5,434.5,10.5z M434.9,17.9h-1V12h1
		V17.9z"/>
	<path class="st2" d="M439.4,18.1c-0.9,0-1.6-0.3-2.1-0.8c-0.5-0.6-0.8-1.3-0.8-2.2c0-1,0.3-1.8,0.8-2.3c0.5-0.6,1.3-0.8,2.2-0.8
		c0.9,0,1.6,0.3,2.1,0.8c0.5,0.5,0.7,1.3,0.7,2.3c0,0.9-0.3,1.7-0.8,2.3C441,17.8,440.3,18.1,439.4,18.1z M439.4,12.6
		c-0.6,0-1.1,0.2-1.5,0.6c-0.4,0.4-0.5,1-0.5,1.7c0,0.7,0.2,1.3,0.5,1.7c0.4,0.4,0.8,0.6,1.4,0.6c0.6,0,1.1-0.2,1.4-0.6
		c0.3-0.4,0.5-1,0.5-1.7c0-0.7-0.2-1.3-0.5-1.7C440.5,12.8,440,12.6,439.4,12.6z"/>
	<path class="st2" d="M448.8,17.9h-1v-3.4c0-1.3-0.5-1.9-1.4-1.9c-0.5,0-0.9,0.2-1.2,0.5c-0.3,0.4-0.5,0.8-0.5,1.4v3.4h-1V12h1v1h0
		c0.4-0.8,1.1-1.1,2-1.1c0.7,0,1.1,0.2,1.5,0.6c0.3,0.4,0.5,1,0.5,1.8V17.9z"/>
	<path class="st2" d="M450.2,17.7v-1c0.5,0.4,1.1,0.6,1.7,0.6c0.8,0,1.3-0.3,1.3-0.8c0-0.2,0-0.3-0.1-0.4c-0.1-0.1-0.2-0.2-0.3-0.3
		c-0.1-0.1-0.3-0.2-0.4-0.2c-0.2-0.1-0.3-0.1-0.5-0.2c-0.3-0.1-0.5-0.2-0.7-0.3c-0.2-0.1-0.4-0.2-0.5-0.4c-0.1-0.1-0.2-0.3-0.3-0.5
		c-0.1-0.2-0.1-0.4-0.1-0.6c0-0.3,0.1-0.5,0.2-0.7s0.3-0.4,0.5-0.5c0.2-0.1,0.5-0.3,0.7-0.3s0.6-0.1,0.8-0.1c0.5,0,1,0.1,1.4,0.3v1
		c-0.4-0.3-0.9-0.4-1.5-0.4c-0.2,0-0.3,0-0.5,0.1c-0.1,0-0.3,0.1-0.4,0.2c-0.1,0.1-0.2,0.2-0.2,0.3c-0.1,0.1-0.1,0.2-0.1,0.3
		c0,0.2,0,0.3,0.1,0.4c0.1,0.1,0.1,0.2,0.2,0.3c0.1,0.1,0.2,0.2,0.4,0.2c0.2,0.1,0.3,0.1,0.5,0.2c0.3,0.1,0.5,0.2,0.7,0.3
		s0.4,0.2,0.5,0.4c0.1,0.1,0.3,0.3,0.3,0.5c0.1,0.2,0.1,0.4,0.1,0.6c0,0.3-0.1,0.6-0.2,0.8c-0.1,0.2-0.3,0.4-0.5,0.5
		c-0.2,0.1-0.5,0.2-0.7,0.3c-0.3,0.1-0.6,0.1-0.9,0.1C451.2,18.1,450.7,17.9,450.2,17.7z"/>
</g>
<text transform="matrix(1 0 0 1 44.7268 111.9686)" class="st7 st8 st9">Virtual Network</text>
<text transform="matrix(1 0 0 1 231.7219 123.1189)" class="st7 st8 st9">Virtual Network</text>
<g>
	<line class="st2" x1="404.7" y1="70.6" x2="404.7" y2="86.3"/>
	<g>
		<line class="st10" x1="404.7" y1="73.4" x2="404.7" y2="83.4"/>
		<g>
			<polygon class="st2" points="402.7,74 404.7,70.6 406.7,74 			"/>
		</g>
		<g>
			<polygon class="st2" points="402.7,82.9 404.7,86.3 406.7,82.9 			"/>
		</g>
	</g>
</g>
<rect x="365.4" y="88.2" class="st2" width="101.6" height="38.8"/>
<g id="shape389-126_1_">
	<path class="st5" d="M375.3,123.3h57.4V92.2h-57.4V123.3z"/>
</g>
<g id="group392-129_3_">
	<g id="shape393-130_3_">
		<path class="st6" d="M410.4,101.1h-12.6c-0.4,0-0.7,0.4-0.7,0.9v8.8c0,0.4,0.3,0.7,0.7,0.7h4.3c0.4,1.6-0.1,1.9-3,1.9v0.9h9.5
			v-0.9c-2.7,0-3-0.3-2.5-1.9h4.5c0.4,0,0.7-0.3,0.9-0.7V102C411.3,101.4,410.9,101.1,410.4,101.1L410.4,101.1z M410.1,102.3v8.2
			h-12v-8.2H410.1L410.1,102.3z"/>
	</g>
	<g id="group394-132_3_">
		<g id="group395-133_3_">
			<g id="shape396-134_3_">
				<path class="st6" d="M406.1,104.8l-2.2-1.3l-2.2,1.3l0,0l2.2,1.3L406.1,104.8z"/>
			</g>
		</g>
		<g id="group397-136_3_">
			<g id="shape398-137_3_">
				<path class="st6" d="M404.2,106.5v2.5l2.2-1.3v-2.5L404.2,106.5z"/>
			</g>
		</g>
		<g id="group399-139_3_">
			<g id="shape400-140_3_">
				<path class="st6" d="M403.7,106.5l-2.2-1.3v2.5l2.2,1.3V106.5z"/>
			</g>
		</g>
	</g>
</g>
<g id="group401-142_1_">
	<g id="shape402-143_1_">
		<path class="st6" d="M393,101.1h-12.6c-0.4,0-0.7,0.4-0.7,0.9v8.8c0,0.4,0.3,0.7,0.7,0.7h4.3c0.4,1.6-0.1,1.9-3,1.9v0.9h9.4v-0.9
			c-2.7,0-3-0.3-2.5-1.9h4.5c0.4,0,0.7-0.3,0.9-0.7V102C393.9,101.6,393.5,101.1,393,101.1z M392.7,102.3v8.2h-12v-8.2H392.7z"/>
	</g>
	<g id="group403-145_1_">
		<g id="group404-146_1_">
			<g id="shape405-147_1_">
				<path class="st6" d="M388.9,104.8l-2.2-1.3l-2.2,1.3l0,0l2.2,1.3L388.9,104.8z"/>
			</g>
		</g>
		<g id="group406-149_1_">
			<g id="shape407-150_1_">
				<path class="st6" d="M386.8,106.5v2.5l2.2-1.3v-2.5L386.8,106.5z"/>
			</g>
		</g>
		<g id="group408-152_1_">
			<g id="shape409-153_1_">
				<path class="st6" d="M386.3,106.5l-2.2-1.3v2.5l2.2,1.3V106.5z"/>
			</g>
		</g>
	</g>
</g>
<g id="group410-155_1_">
	<g id="shape411-156_1_">
		<path class="st6" d="M393,101.1h-12.6c-0.4,0-0.7,0.4-0.7,0.9v8.8c0,0.4,0.3,0.7,0.7,0.7h4.3c0.4,1.6-0.1,1.9-3,1.9v0.9h9.4v-0.9
			c-2.7,0-3-0.3-2.5-1.9h4.5c0.4,0,0.7-0.3,0.9-0.7V102C393.9,101.6,393.5,101.1,393,101.1z M392.7,102.3v8.2h-12v-8.2H392.7z"/>
	</g>
	<g id="group412-158_1_">
		<g id="group413-159_1_">
			<g id="shape414-160_1_">
				<path class="st6" d="M388.9,104.8l-2.2-1.3l-2.2,1.3l0,0l2.2,1.3L388.9,104.8z"/>
			</g>
		</g>
		<g id="group415-162_1_">
			<g id="shape416-163_1_">
				<path class="st6" d="M386.8,106.5v2.5l2.2-1.3v-2.5L386.8,106.5z"/>
			</g>
		</g>
		<g id="group417-165_1_">
			<g id="shape418-166_1_">
				<path class="st6" d="M386.3,106.5l-2.2-1.3v2.5l2.2,1.3V106.5z"/>
			</g>
		</g>
	</g>
</g>
<g id="group392-129_2_">
	<g id="shape393-130_2_">
		<path class="st6" d="M428.6,101.1H416c-0.4,0-0.7,0.4-0.7,0.9v8.8c0,0.4,0.3,0.7,0.7,0.7h4.3c0.4,1.6-0.1,1.9-3,1.9v0.9h9.5v-0.9
			c-2.7,0-3-0.3-2.5-1.9h4.5c0.4,0,0.7-0.3,0.9-0.7V102C429.5,101.4,429.1,101.1,428.6,101.1L428.6,101.1z M428.3,102.3v8.2h-12
			v-8.2H428.3L428.3,102.3z"/>
	</g>
	<g id="group394-132_2_">
		<g id="group395-133_2_">
			<g id="shape396-134_2_">
				<path class="st6" d="M424.3,104.8l-2.2-1.3l-2.2,1.3l0,0l2.2,1.3L424.3,104.8z"/>
			</g>
		</g>
		<g id="group397-136_2_">
			<g id="shape398-137_2_">
				<path class="st6" d="M422.4,106.5v2.5l2.2-1.3v-2.5L422.4,106.5z"/>
			</g>
		</g>
		<g id="group399-139_2_">
			<g id="shape400-140_2_">
				<path class="st6" d="M421.9,106.5l-2.2-1.3v2.5l2.2,1.3V106.5z"/>
			</g>
		</g>
	</g>
</g>
<g id="Layer_1_1_">
	<g id="File_x2C__general">
		<title>Sheet.1071</title>
	</g>
	<g id="Message">
	</g>
	<g id="Monitor">
	</g>
	<g id="Monitor_running_apps">
	</g>
	<g id="Mouse">
	</g>
	<g id="Network_card">
	</g>
	<g id="Not_allowed">
	</g>
	<g id="Performance">
	</g>
	<g id="Phone">
	</g>
	<g id="Plug_and_play">
	</g>
	<g id="Powershell_script_file">
	</g>
	<g id="Protocol_stack">
	</g>
	<g id="Queue_x2C__general">
	</g>
	<g id="RMS_connector">
	</g>
	<g id="Router">
	</g>
	<g id="Script_file">
	</g>
	<g id="Secure_virtual_machine">
	</g>
	<g id="Server_farm">
	</g>
	<g id="Server_rack">
		<g>
			<g>
				<path class="st11" d="M143.4,69.3h-32.6c-0.8,0-1.4,0.6-1.4,1.4v8.2c0,0.8,0.6,1.4,1.4,1.4h32.6c0.8,0,1.4-0.6,1.4-1.4v-8.2
					C144.7,69.9,144.1,69.3,143.4,69.3z M112.3,78.9c-0.7,0-1.3-0.6-1.3-1.3s0.6-1.3,1.3-1.3s1.3,0.6,1.3,1.3S113,78.9,112.3,78.9z
					 M142.1,78.3h-7.1c-0.3,0-0.4-0.2-0.4-0.4s0.2-0.4,0.4-0.4h7.1c0.3,0,0.4,0.2,0.4,0.4S142.3,78.3,142.1,78.3z M142.1,77h-7.1
					c-0.3,0-0.4-0.2-0.4-0.4s0.2-0.4,0.4-0.4h7.1c0.3,0,0.4,0.2,0.4,0.4S142.3,77,142.1,77z M142.1,75.6h-7.1
					c-0.3,0-0.4-0.2-0.4-0.4s0.2-0.4,0.4-0.4h7.1c0.3,0,0.4,0.2,0.4,0.4C142.5,75.5,142.3,75.6,142.1,75.6z"/>
			</g>
			<g>
				<path class="st11" d="M143.4,56.7h-32.6c-0.8,0-1.4,0.6-1.4,1.4v8.2c0,0.8,0.6,1.4,1.4,1.4h32.6c0.8,0,1.4-0.6,1.4-1.4V58
					C144.7,57.3,144.1,56.7,143.4,56.7z M112.3,66.3c-0.7,0-1.3-0.6-1.3-1.3s0.6-1.3,1.3-1.3s1.3,0.6,1.3,1.3S113,66.3,112.3,66.3z
					 M142.1,65.8h-7.1c-0.3,0-0.4-0.2-0.4-0.4s0.2-0.4,0.4-0.4h7.1c0.3,0,0.4,0.2,0.4,0.4S142.3,65.8,142.1,65.8z M142.1,64.4h-7.1
					c-0.3,0-0.4-0.2-0.4-0.4c0-0.3,0.2-0.4,0.4-0.4h7.1c0.3,0,0.4,0.2,0.4,0.4C142.5,64.2,142.3,64.4,142.1,64.4z M142.1,63.1h-7.1
					c-0.3,0-0.4-0.2-0.4-0.4s0.2-0.4,0.4-0.4h7.1c0.3,0,0.4,0.2,0.4,0.4S142.3,63.1,142.1,63.1z"/>
			</g>
			<g>
				<path class="st11" d="M143.4,44.1h-32.6c-0.8,0-1.4,0.6-1.4,1.4v8.2c0,0.8,0.6,1.4,1.4,1.4h32.6c0.8,0,1.4-0.6,1.4-1.4v-8.2
					C144.7,44.7,144.1,44.1,143.4,44.1z M112.3,53.7c-0.7,0-1.3-0.6-1.3-1.3c0-0.7,0.6-1.3,1.3-1.3s1.3,0.6,1.3,1.3
					C113.6,53.1,113,53.7,112.3,53.7z M142.1,53.2h-7.1c-0.3,0-0.4-0.2-0.4-0.4s0.2-0.4,0.4-0.4h7.1c0.3,0,0.4,0.2,0.4,0.4
					S142.3,53.2,142.1,53.2z M142.1,51.8h-7.1c-0.3,0-0.4-0.2-0.4-0.4c0-0.3,0.2-0.4,0.4-0.4h7.1c0.3,0,0.4,0.2,0.4,0.4
					C142.5,51.7,142.3,51.8,142.1,51.8z M142.1,50.5h-7.1c-0.3,0-0.4-0.2-0.4-0.4c0-0.3,0.2-0.4,0.4-0.4h7.1c0.3,0,0.4,0.2,0.4,0.4
					C142.5,50.2,142.3,50.5,142.1,50.5z"/>
			</g>
		</g>
	</g>
</g>
<g id="slices">
</g>
<g id="Layer_1_2_">
	<g id="File_x2C__general_1_">
		<title>Sheet.1071</title>
	</g>
	<g id="Message_1_">
	</g>
	<g id="Monitor_1_">
	</g>
	<g id="Monitor_running_apps_1_">
	</g>
	<g id="Mouse_1_">
	</g>
	<g id="Network_card_1_">
	</g>
	<g id="Not_allowed_1_">
	</g>
	<g id="Performance_1_">
	</g>
	<g id="Phone_1_">
	</g>
	<g id="Plug_and_play_1_">
	</g>
	<g id="Powershell_script_file_1_">
	</g>
	<g id="Protocol_stack_1_">
	</g>
	<g id="Queue_x2C__general_1_">
	</g>
	<g id="RMS_connector_1_">
	</g>
	<g id="Router_1_">
	</g>
	<g id="Script_file_1_">
	</g>
	<g id="Secure_virtual_machine_1_">
	</g>
	<g id="Server_farm_1_">
		<g>
			<g>
				<path class="st11" d="M293.2,35.5h-7.8c-0.5,0-1,0.4-1,1v19h9.7v-19C294.2,36,293.7,35.5,293.2,35.5z M292.4,53.8h-6.3v-1.1h6.3
					V53.8z M292.4,51.5h-6.3v-1.1h6.3V51.5z M292.4,39.5h-6.3v-1.1h6.3V39.5z"/>
			</g>
			<g>
				<path class="st11" d="M304.1,35.5h-7.8c-0.5,0-1,0.4-1,1v19h9.7v-19C305,35.9,304.6,35.5,304.1,35.5z M303.3,53.8H297v-1.1h6.3
					V53.8z M303.3,51.5H297v-1.1h6.3V51.5z M303.3,39.5H297v-1.1h6.3V39.5z"/>
			</g>
			<g>
				<path class="st11" d="M314.9,35.5h-7.8c-0.5,0-1,0.4-1,1v19h9.7v-19C315.9,36,315.4,35.5,314.9,35.5z M314.2,53.8h-6.3v-1.1h6.3
					V53.8z M314.2,51.5h-6.3v-1.1h6.3V51.5z M314.2,39.5h-6.3v-1.1h6.3V39.5z"/>
			</g>
		</g>
	</g>
</g>
<g id="slices_1_">
</g>
<g>
	<polygon class="st12" points="450.4,62.1 441.2,62.1 441.2,40.4 446.7,40.4 446.7,54.9 445.6,54.9 446.7,54.9 446.7,36.7 
		455.9,36.7 455.9,54.9 457,54.9 455.9,54.9 455.9,40.4 461.4,40.4 461.4,62.1 452.2,62.1 452.2,54.8 450.4,54.8 450.4,62.1 
		450.4,62.1 	"/>
</g>
<g id="Layer_1_3_">
	<g id="File_x2C__general_2_">
		<title>Sheet.1071</title>
	</g>
	<g id="Message_2_">
	</g>
	<g id="Monitor_2_">
	</g>
	<g id="Monitor_running_apps_2_">
	</g>
	<g id="Mouse_2_">
	</g>
	<g id="Network_card_2_">
	</g>
	<g id="Not_allowed_2_">
	</g>
	<g id="Performance_2_">
	</g>
	<g id="Phone_2_">
	</g>
	<g id="Plug_and_play_2_">
	</g>
	<g id="Powershell_script_file_2_">
	</g>
	<g id="Protocol_stack_2_">
	</g>
	<g id="Queue_x2C__general_2_">
	</g>
	<g id="RMS_connector_2_">
	</g>
	<g id="Router_2_">
	</g>
	<g id="Script_file_2_">
	</g>
	<g id="Secure_virtual_machine_2_">
	</g>
	<g id="Server_farm_2_">
		<g>
			<g>
				<path class="st11" d="M293.6,77h-7.8c-0.5,0-1,0.4-1,1v19h9.7V78C294.6,77.5,294.1,77,293.6,77z M292.9,95.3h-6.3v-1.1h6.3V95.3
					z M292.9,93h-6.3v-1.1h6.3V93z M292.9,81h-6.3v-1.1h6.3V81z"/>
			</g>
			<g>
				<path class="st11" d="M304.5,77h-7.8c-0.5,0-1,0.4-1,1v19h9.7v-19C305.5,77.4,305,77,304.5,77z M303.7,95.3h-6.3v-1.1h6.3V95.3z
					 M303.7,93h-6.3v-1.1h6.3V93z M303.7,81h-6.3v-1.1h6.3V81z"/>
			</g>
			<g>
				<path class="st11" d="M315.4,77h-7.8c-0.5,0-1,0.4-1,1v19h9.7V78C316.3,77.5,315.9,77,315.4,77z M314.6,95.3h-6.3v-1.1h6.3V95.3
					z M314.6,93h-6.3v-1.1h6.3V93z M314.6,81h-6.3v-1.1h6.3V81z"/>
			</g>
		</g>
	</g>
</g>
<g>
	<polygon class="st12" points="450.4,119.2 441.2,119.2 441.2,97.4 446.7,97.4 446.7,112 445.6,112 446.7,112 446.7,93.8 
		455.9,93.8 455.9,112 457,112 455.9,112 455.9,97.4 461.4,97.4 461.4,119.2 452.2,119.2 452.2,111.9 450.4,111.9 450.4,119.2 
		450.4,119.2 	"/>
</g>
</svg>
