<svg width="3630" height="1527" xmlns="http://www.w3.org/2000/svg" xmlns:xlink="http://www.w3.org/1999/xlink" xml:space="preserve" overflow="hidden"><defs><filter id="fx0" x="-10%" y="-10%" width="120%" height="120%" filterUnits="userSpaceOnUse" primitiveUnits="userSpaceOnUse"><feComponentTransfer color-interpolation-filters="sRGB"><feFuncR type="discrete" tableValues="0 0"/><feFuncG type="discrete" tableValues="0 0"/><feFuncB type="discrete" tableValues="0 0"/><feFuncA type="linear" slope="0.631373" intercept="0"/></feComponentTransfer><feGaussianBlur stdDeviation="6.875 6.875"/></filter><filter id="fx1" x="-10%" y="-10%" width="120%" height="120%" filterUnits="userSpaceOnUse" primitiveUnits="userSpaceOnUse"><feComponentTransfer color-interpolation-filters="sRGB"><feFuncR type="discrete" tableValues="0 0"/><feFuncG type="discrete" tableValues="0 0"/><feFuncB type="discrete" tableValues="0 0"/><feFuncA type="linear" slope="0.631373" intercept="0"/></feComponentTransfer><feGaussianBlur stdDeviation="6.875 6.875"/></filter><filter id="fx2" x="-10%" y="-10%" width="120%" height="120%" filterUnits="userSpaceOnUse" primitiveUnits="userSpaceOnUse"><feComponentTransfer color-interpolation-filters="sRGB"><feFuncR type="discrete" tableValues="0 0"/><feFuncG type="discrete" tableValues="0 0"/><feFuncB type="discrete" tableValues="0 0"/><feFuncA type="linear" slope="0.631373" intercept="0"/></feComponentTransfer><feGaussianBlur stdDeviation="6.875 6.875"/></filter><filter id="fx3" x="-10%" y="-10%" width="120%" height="120%" filterUnits="userSpaceOnUse" primitiveUnits="userSpaceOnUse"><feComponentTransfer color-interpolation-filters="sRGB"><feFuncR type="discrete" tableValues="0 0"/><feFuncG type="discrete" tableValues="0 0"/><feFuncB type="discrete" tableValues="0 0"/><feFuncA type="linear" slope="0.631373" intercept="0"/></feComponentTransfer><feGaussianBlur stdDeviation="6.875 6.875"/></filter><filter id="fx4" x="-10%" y="-10%" width="120%" height="120%" filterUnits="userSpaceOnUse" primitiveUnits="userSpaceOnUse"><feComponentTransfer color-interpolation-filters="sRGB"><feFuncR type="discrete" tableValues="0 0"/><feFuncG type="discrete" tableValues="0 0"/><feFuncB type="discrete" tableValues="0 0"/><feFuncA type="linear" slope="0.631373" intercept="0"/></feComponentTransfer><feGaussianBlur stdDeviation="6.875 6.875"/></filter><filter id="fx5" x="-10%" y="-10%" width="120%" height="120%" filterUnits="userSpaceOnUse" primitiveUnits="userSpaceOnUse"><feComponentTransfer color-interpolation-filters="sRGB"><feFuncR type="discrete" tableValues="0 0"/><feFuncG type="discrete" tableValues="0 0"/><feFuncB type="discrete" tableValues="0 0"/><feFuncA type="linear" slope="0.631373" intercept="0"/></feComponentTransfer><feGaussianBlur stdDeviation="6.875 6.875"/></filter><filter id="fx6" x="-10%" y="-10%" width="120%" height="120%" filterUnits="userSpaceOnUse" primitiveUnits="userSpaceOnUse"><feComponentTransfer color-interpolation-filters="sRGB"><feFuncR type="discrete" tableValues="0 0"/><feFuncG type="discrete" tableValues="0 0"/><feFuncB type="discrete" tableValues="0 0"/><feFuncA type="linear" slope="0.631373" intercept="0"/></feComponentTransfer><feGaussianBlur stdDeviation="6.875 6.875"/></filter><filter id="fx7" x="-10%" y="-10%" width="120%" height="120%" filterUnits="userSpaceOnUse" primitiveUnits="userSpaceOnUse"><feComponentTransfer color-interpolation-filters="sRGB"><feFuncR type="discrete" tableValues="0 0"/><feFuncG type="discrete" tableValues="0 0"/><feFuncB type="discrete" tableValues="0 0"/><feFuncA type="linear" slope="0.631373" intercept="0"/></feComponentTransfer><feGaussianBlur stdDeviation="6.875 6.875"/></filter><filter id="fx8" x="-10%" y="-10%" width="120%" height="120%" filterUnits="userSpaceOnUse" primitiveUnits="userSpaceOnUse"><feComponentTransfer color-interpolation-filters="sRGB"><feFuncR type="discrete" tableValues="0 0"/><feFuncG type="discrete" tableValues="0 0"/><feFuncB type="discrete" tableValues="0 0"/><feFuncA type="linear" slope="0.631373" intercept="0"/></feComponentTransfer><feGaussianBlur stdDeviation="6.875 6.875"/></filter><filter id="fx9" x="-10%" y="-10%" width="120%" height="120%" filterUnits="userSpaceOnUse" primitiveUnits="userSpaceOnUse"><feComponentTransfer color-interpolation-filters="sRGB"><feFuncR type="discrete" tableValues="0 0"/><feFuncG type="discrete" tableValues="0 0"/><feFuncB type="discrete" tableValues="0 0"/><feFuncA type="linear" slope="0.631373" intercept="0"/></feComponentTransfer><feGaussianBlur stdDeviation="6.875 6.875"/></filter><filter id="fx10" x="-10%" y="-10%" width="120%" height="120%" filterUnits="userSpaceOnUse" primitiveUnits="userSpaceOnUse"><feComponentTransfer color-interpolation-filters="sRGB"><feFuncR type="discrete" tableValues="0 0"/><feFuncG type="discrete" tableValues="0 0"/><feFuncB type="discrete" tableValues="0 0"/><feFuncA type="linear" slope="0.631373" intercept="0"/></feComponentTransfer><feGaussianBlur stdDeviation="6.875 6.875"/></filter><filter id="fx11" x="-10%" y="-10%" width="120%" height="120%" filterUnits="userSpaceOnUse" primitiveUnits="userSpaceOnUse"><feComponentTransfer color-interpolation-filters="sRGB"><feFuncR type="discrete" tableValues="0 0"/><feFuncG type="discrete" tableValues="0 0"/><feFuncB type="discrete" tableValues="0 0"/><feFuncA type="linear" slope="0.631373" intercept="0"/></feComponentTransfer><feGaussianBlur stdDeviation="6.875 6.875"/></filter><filter id="fx12" x="-10%" y="-10%" width="120%" height="120%" filterUnits="userSpaceOnUse" primitiveUnits="userSpaceOnUse"><feComponentTransfer color-interpolation-filters="sRGB"><feFuncR type="discrete" tableValues="0 0"/><feFuncG type="discrete" tableValues="0 0"/><feFuncB type="discrete" tableValues="0 0"/><feFuncA type="linear" slope="0.631373" intercept="0"/></feComponentTransfer><feGaussianBlur stdDeviation="6.875 6.875"/></filter><filter id="fx13" x="-10%" y="-10%" width="120%" height="120%" filterUnits="userSpaceOnUse" primitiveUnits="userSpaceOnUse"><feComponentTransfer color-interpolation-filters="sRGB"><feFuncR type="discrete" tableValues="0 0"/><feFuncG type="discrete" tableValues="0 0"/><feFuncB type="discrete" tableValues="0 0"/><feFuncA type="linear" slope="0.631373" intercept="0"/></feComponentTransfer><feGaussianBlur stdDeviation="6.875 6.875"/></filter><filter id="fx14" x="-10%" y="-10%" width="120%" height="120%" filterUnits="userSpaceOnUse" primitiveUnits="userSpaceOnUse"><feComponentTransfer color-interpolation-filters="sRGB"><feFuncR type="discrete" tableValues="0 0"/><feFuncG type="discrete" tableValues="0 0"/><feFuncB type="discrete" tableValues="0 0"/><feFuncA type="linear" slope="0.631373" intercept="0"/></feComponentTransfer><feGaussianBlur stdDeviation="6.875 6.875"/></filter><filter id="fx15" x="-10%" y="-10%" width="120%" height="120%" filterUnits="userSpaceOnUse" primitiveUnits="userSpaceOnUse"><feComponentTransfer color-interpolation-filters="sRGB"><feFuncR type="discrete" tableValues="0 0"/><feFuncG type="discrete" tableValues="0 0"/><feFuncB type="discrete" tableValues="0 0"/><feFuncA type="linear" slope="0.631373" intercept="0"/></feComponentTransfer><feGaussianBlur stdDeviation="6.875 6.875"/></filter><filter id="fx16" x="-10%" y="-10%" width="120%" height="120%" filterUnits="userSpaceOnUse" primitiveUnits="userSpaceOnUse"><feComponentTransfer color-interpolation-filters="sRGB"><feFuncR type="discrete" tableValues="0 0"/><feFuncG type="discrete" tableValues="0 0"/><feFuncB type="discrete" tableValues="0 0"/><feFuncA type="linear" slope="0.631373" intercept="0"/></feComponentTransfer><feGaussianBlur stdDeviation="6.875 6.875"/></filter><filter id="fx17" x="-10%" y="-10%" width="120%" height="120%" filterUnits="userSpaceOnUse" primitiveUnits="userSpaceOnUse"><feComponentTransfer color-interpolation-filters="sRGB"><feFuncR type="discrete" tableValues="0 0"/><feFuncG type="discrete" tableValues="0 0"/><feFuncB type="discrete" tableValues="0 0"/><feFuncA type="linear" slope="0.631373" intercept="0"/></feComponentTransfer><feGaussianBlur stdDeviation="6.875 6.875"/></filter><filter id="fx18" x="-10%" y="-10%" width="120%" height="120%" filterUnits="userSpaceOnUse" primitiveUnits="userSpaceOnUse"><feComponentTransfer color-interpolation-filters="sRGB"><feFuncR type="discrete" tableValues="0 0"/><feFuncG type="discrete" tableValues="0 0"/><feFuncB type="discrete" tableValues="0 0"/><feFuncA type="linear" slope="0.631373" intercept="0"/></feComponentTransfer><feGaussianBlur stdDeviation="6.875 6.875"/></filter><filter id="fx19" x="-10%" y="-10%" width="120%" height="120%" filterUnits="userSpaceOnUse" primitiveUnits="userSpaceOnUse"><feComponentTransfer color-interpolation-filters="sRGB"><feFuncR type="discrete" tableValues="0 0"/><feFuncG type="discrete" tableValues="0 0"/><feFuncB type="discrete" tableValues="0 0"/><feFuncA type="linear" slope="0.631373" intercept="0"/></feComponentTransfer><feGaussianBlur stdDeviation="6.875 6.875"/></filter><clipPath id="clip20"><rect x="403" y="620" width="3630" height="1527"/></clipPath><radialGradient cx="-105.006" cy="-10.409" r="5.954" gradientUnits="userSpaceOnUse" spreadMethod="pad" id="fill21" gradientTransform="matrix(7.59733 0 0 7.53133 3702.42 1733.06)"><stop offset="0" stop-color="#5EA0EF"/><stop offset="0.183" stop-color="#5EA0EF"/><stop offset="1" stop-color="#0078D4"/></radialGradient><clipPath id="clip22"><path d="M2948.77 1644.22C2954.55 1668.4 2939.63 1692.68 2915.46 1698.45 2891.28 1704.23 2867 1689.31 2861.23 1665.14 2855.45 1640.96 2870.37 1616.68 2894.54 1610.9 2918.72 1605.13 2943 1620.05 2948.77 1644.22Z"/></clipPath><linearGradient x1="2460.5" y1="1914.64" x2="2460.5" y2="1830.36" gradientUnits="userSpaceOnUse" spreadMethod="pad" id="fill23"><stop offset="0" stop-color="#198AB3"/><stop offset="0.09" stop-color="#1F9DC4"/><stop offset="0.24" stop-color="#28B5D9"/><stop offset="0.4" stop-color="#2DC6E9"/><stop offset="0.57" stop-color="#31D1F2"/><stop offset="0.78" stop-color="#32D4F5"/><stop offset="1" stop-color="#32D4F5"/></linearGradient><linearGradient x1="2457.05" y1="1885.16" x2="2457.05" y2="1901.92" gradientUnits="userSpaceOnUse" spreadMethod="pad" id="fill24"><stop offset="0" stop-color="#C69AEB"/><stop offset="1" stop-color="#6F4BB2"/></linearGradient><clipPath id="clip25"><rect x="41" y="34" width="67" height="92"/></clipPath><linearGradient x1="2672" y1="1907" x2="2672" y2="1999" gradientUnits="userSpaceOnUse" spreadMethod="reflect" id="fill26"><stop offset="0" stop-color="#81B861"/><stop offset="0.5" stop-color="#6FB242"/><stop offset="1" stop-color="#61A235"/></linearGradient><clipPath id="clip27"><rect x="38" y="34" width="77" height="92"/></clipPath><linearGradient x1="1029" y1="884" x2="1029" y2="976" gradientUnits="userSpaceOnUse" spreadMethod="reflect" id="fill28"><stop offset="0" stop-color="#81B861"/><stop offset="0.5" stop-color="#6FB242"/><stop offset="1" stop-color="#61A235"/></linearGradient><radialGradient cx="13428.8" cy="3518.86" r="56.67" gradientUnits="userSpaceOnUse" spreadMethod="pad" id="fill29" gradientTransform="matrix(1.1 0 0 1.1 -11262.8 -2878.75)"><stop offset="0" stop-color="#5EA0EF"/><stop offset="0.18" stop-color="#5EA0EF"/><stop offset="1" stop-color="#0078D4"/></radialGradient><linearGradient x1="3475.27" y1="1010.19" x2="3475.05" y2="981.22" gradientUnits="userSpaceOnUse" spreadMethod="pad" id="fill30"><stop offset="0" stop-color="#CCCCCC"/><stop offset="1" stop-color="#FCFCFC"/></linearGradient><linearGradient x1="3517.29" y1="1039.3" x2="3517.29" y2="1013.27" gradientUnits="userSpaceOnUse" spreadMethod="pad" id="fill31"><stop offset="0" stop-color="#CCCCCC"/><stop offset="1" stop-color="#FCFCFC"/></linearGradient><linearGradient x1="3546.99" y1="1007.77" x2="3546.99" y2="980.12" gradientUnits="userSpaceOnUse" spreadMethod="pad" id="fill32"><stop offset="0" stop-color="#CCCCCC"/><stop offset="1" stop-color="#FCFCFC"/></linearGradient><linearGradient x1="3475.27" y1="1010.19" x2="3475.05" y2="981.22" gradientUnits="userSpaceOnUse" spreadMethod="pad" id="fill33"><stop offset="0" stop-color="#CCCCCC"/><stop offset="1" stop-color="#FCFCFC"/></linearGradient><linearGradient x1="3517.29" y1="1039.3" x2="3517.29" y2="1013.27" gradientUnits="userSpaceOnUse" spreadMethod="pad" id="fill34"><stop offset="0" stop-color="#CCCCCC"/><stop offset="1" stop-color="#FCFCFC"/></linearGradient><linearGradient x1="48.5" y1="90.641" x2="48.5" y2="6.35888" gradientUnits="userSpaceOnUse" spreadMethod="pad" id="fill35"><stop offset="0" stop-color="#198AB3"/><stop offset="0.09" stop-color="#1F9DC4"/><stop offset="0.24" stop-color="#28B5D9"/><stop offset="0.4" stop-color="#2DC6E9"/><stop offset="0.57" stop-color="#31D1F2"/><stop offset="0.78" stop-color="#32D4F5"/><stop offset="1" stop-color="#32D4F5"/></linearGradient><linearGradient x1="45.0511" y1="61.1638" x2="45.0511" y2="77.9233" gradientUnits="userSpaceOnUse" spreadMethod="pad" id="fill36"><stop offset="0" stop-color="#C69AEB"/><stop offset="1" stop-color="#6F4BB2"/></linearGradient><clipPath id="clip37"><rect x="38" y="34" width="77" height="92"/></clipPath><linearGradient x1="3275" y1="929" x2="3275" y2="1021" gradientUnits="userSpaceOnUse" spreadMethod="reflect" id="fill38"><stop offset="0" stop-color="#81B861"/><stop offset="0.5" stop-color="#6FB242"/><stop offset="1" stop-color="#61A235"/></linearGradient><clipPath id="clip39"><rect x="38" y="34" width="81" height="92"/></clipPath><linearGradient x1="2182" y1="899" x2="2182" y2="991" gradientUnits="userSpaceOnUse" spreadMethod="reflect" id="fill40"><stop offset="0" stop-color="#81B861"/><stop offset="0.5" stop-color="#6FB242"/><stop offset="1" stop-color="#61A235"/></linearGradient><clipPath id="clip41"><rect x="38" y="34" width="77" height="92"/></clipPath><linearGradient x1="814" y1="1225" x2="814" y2="1317" gradientUnits="userSpaceOnUse" spreadMethod="reflect" id="fill42"><stop offset="0" stop-color="#81B861"/><stop offset="0.5" stop-color="#6FB242"/><stop offset="1" stop-color="#61A235"/></linearGradient><clipPath id="clip43"><rect x="38" y="34" width="77" height="92"/></clipPath><linearGradient x1="1276" y1="984" x2="1276" y2="1076" gradientUnits="userSpaceOnUse" spreadMethod="reflect" id="fill44"><stop offset="0" stop-color="#81B861"/><stop offset="0.5" stop-color="#6FB242"/><stop offset="1" stop-color="#61A235"/></linearGradient><clipPath id="clip45"><rect x="38" y="34" width="81" height="92"/></clipPath><linearGradient x1="2274" y1="1210" x2="2274" y2="1302" gradientUnits="userSpaceOnUse" spreadMethod="reflect" id="fill46"><stop offset="0" stop-color="#81B861"/><stop offset="0.5" stop-color="#6FB242"/><stop offset="1" stop-color="#61A235"/></linearGradient><clipPath id="clip47"><rect x="41" y="34" width="111" height="92"/></clipPath><linearGradient x1="3279" y1="1084" x2="3279" y2="1176" gradientUnits="userSpaceOnUse" spreadMethod="reflect" id="fill48"><stop offset="0" stop-color="#81B861"/><stop offset="0.5" stop-color="#6FB242"/><stop offset="1" stop-color="#61A235"/></linearGradient><linearGradient x1="1707.37" y1="876.06" x2="1707.37" y2="891.423" gradientUnits="userSpaceOnUse" spreadMethod="pad" id="fill49"><stop offset="0" stop-color="#C69AEB"/><stop offset="1" stop-color="#6F4BB2"/></linearGradient><linearGradient x1="1701.02" y1="907.044" x2="1701.02" y2="922.369" gradientUnits="userSpaceOnUse" spreadMethod="pad" id="fill50"><stop offset="0" stop-color="#C69AEB"/><stop offset="1" stop-color="#6F4BB2"/></linearGradient><clipPath id="clip51"><rect x="38" y="34" width="77" height="92"/></clipPath><linearGradient x1="1631" y1="1161" x2="1631" y2="1253" gradientUnits="userSpaceOnUse" spreadMethod="reflect" id="fill52"><stop offset="0" stop-color="#81B861"/><stop offset="0.5" stop-color="#6FB242"/><stop offset="1" stop-color="#61A235"/></linearGradient><clipPath id="clip53"><rect x="38" y="34" width="77" height="92"/></clipPath><linearGradient x1="2458" y1="1284" x2="2458" y2="1376" gradientUnits="userSpaceOnUse" spreadMethod="reflect" id="fill54"><stop offset="0" stop-color="#81B861"/><stop offset="0.5" stop-color="#6FB242"/><stop offset="1" stop-color="#61A235"/></linearGradient></defs><g clip-path="url(#clip20)" transform="translate(-403 -620)"><rect x="403" y="620" width="3630" height="1527" fill="#FFFFFF"/><path d="M1249.5 673.5 1249.5 2107.35" stroke="#A6A6A6" stroke-width="6.875" stroke-miterlimit="8" stroke-dasharray="27.5 20.625 6.875 20.625" fill="none" fill-rule="evenodd"/><rect x="1469.5" y="723.5" width="1578" height="1356" stroke="#000000" stroke-width="4.58333" stroke-miterlimit="8" fill="none"/><text font-family="Segoe UI,Segoe UI_MSFontService,sans-serif" font-weight="400" font-size="55" transform="matrix(1 0 0 1 1928.51 794)">Vehicle Messaging Services</text><rect x="515.5" y="723.5" width="621" height="985" stroke="#000000" stroke-width="4.58333" stroke-miterlimit="8" fill="#F2F2F2"/><text font-family="Segoe UI,Segoe UI_MSFontService,sans-serif" font-weight="400" font-size="55" transform="matrix(1 0 0 1 739.946 794)">Vehicle</text><text font-family="Segoe UI,Segoe UI_MSFontService,sans-serif" font-weight="400" font-size="41" transform="matrix(1 0 0 1 1546.56 1076)">Event Grid</text><text font-family="Segoe UI,Segoe UI_MSFontService,sans-serif" font-weight="400" font-size="41" transform="matrix(1 0 0 1 1518.76 1126)">MQTT broker</text><rect x="539.5" y="841.5" width="546" height="263" stroke="#7F7F7F" stroke-width="4.58333" stroke-miterlimit="8" fill="#FFFFFF"/><text font-family="Segoe UI,Segoe UI_MSFontService,sans-serif" font-weight="400" font-size="41" transform="matrix(1 0 0 1 713.268 898)">Messaging</text><text font-family="Segoe UI,Segoe UI_MSFontService,sans-serif" font-weight="400" font-size="32" transform="matrix(1 0 0 1 663.722 939)">Command &amp; Control</text><text font-family="Segoe UI,Segoe UI_MSFontService,sans-serif" font-style="italic" font-weight="400" font-size="32" transform="matrix(1 0 0 1 725.597 977)">MQTT Client</text><path d="M2304.83 944.284 1728.91 943.189 1728.92 940.898 2304.84 941.993ZM1733.47 955.802 1706 942 1733.53 928.302Z"/><g><g><g><path d="M2860.66 1627.62C2859.95 1627.62 2859.38 1627.05 2859.37 1626.34 2859.37 1626.34 2859.37 1626.33 2859.37 1626.33L2859.37 1626.33C2859.36 1618.2 2852.77 1611.61 2844.64 1611.59 2843.93 1611.59 2843.35 1611.02 2843.35 1610.31L2843.35 1610.31C2843.35 1609.6 2843.93 1609.02 2844.64 1609.02 2852.77 1609.01 2859.36 1602.41 2859.37 1594.28 2859.37 1593.57 2859.94 1592.99 2860.65 1592.99 2860.65 1592.99 2860.66 1592.99 2860.66 1592.99L2860.66 1592.99C2861.37 1592.99 2861.95 1593.56 2861.95 1594.27 2861.95 1594.27 2861.95 1594.28 2861.95 1594.28L2861.95 1594.28C2861.97 1602.41 2868.55 1609 2876.69 1609.01 2877.39 1609.01 2877.97 1609.58 2877.98 1610.29 2877.98 1610.29 2877.98 1610.3 2877.98 1610.3L2877.98 1610.3C2877.98 1611.01 2877.41 1611.59 2876.7 1611.59 2876.7 1611.59 2876.69 1611.59 2876.69 1611.59L2876.69 1611.59C2868.55 1611.6 2861.96 1618.19 2861.95 1626.33 2861.95 1627.04 2861.37 1627.61 2860.66 1627.62Z" fill="#50E6FF"/><path d="M2953.48 1717.01C2952.91 1717.01 2952.45 1716.55 2952.45 1715.98L2952.45 1715.98C2952.44 1709.47 2947.17 1704.2 2940.66 1704.19 2940.09 1704.19 2939.63 1703.73 2939.63 1703.17L2939.63 1703.17C2939.63 1702.59 2940.09 1702.13 2940.66 1702.13L2940.66 1702.13C2947.17 1702.13 2952.44 1696.85 2952.45 1690.35 2952.45 1689.78 2952.91 1689.31 2953.48 1689.31L2953.48 1689.31C2954.05 1689.31 2954.51 1689.78 2954.51 1690.35L2954.51 1690.35C2954.52 1696.85 2959.79 1702.13 2966.3 1702.13 2966.87 1702.13 2967.33 1702.59 2967.33 1703.17 2967.33 1703.74 2966.87 1704.2 2966.3 1704.2L2966.3 1704.2C2959.79 1704.21 2954.52 1709.48 2954.51 1715.98 2954.51 1716.55 2954.05 1717.01 2953.48 1717.01Z" fill="#50E6FF"/><path d="M2948.77 1644.22C2954.55 1668.4 2939.63 1692.68 2915.46 1698.45 2891.28 1704.23 2867 1689.31 2861.23 1665.14 2855.45 1640.96 2870.37 1616.68 2894.54 1610.9 2918.72 1605.13 2943 1620.05 2948.77 1644.22Z" fill="url(#fill21)"/><g clip-path="url(#clip22)"><path d="M2880.87 1685.18C2887.5 1685.35 2893.01 1680.12 2893.19 1673.48 2893.36 1666.85 2888.13 1661.33 2881.5 1661.16 2881.3 1661.16 2881.1 1661.16 2880.9 1661.16 2880.94 1660.82 2880.96 1660.48 2880.95 1660.13 2880.89 1653.46 2875.45 1648.1 2868.77 1648.14L2859.77 1648.14C2857.98 1661.61 2862.27 1675.17 2871.46 1685.18Z" fill="#F2F2F2"/><path d="M2949.33 1646.31C2949.33 1646.2 2949.33 1646.09 2949.28 1645.99 2947.83 1638.14 2944.26 1630.84 2938.97 1624.87 2938.28 1624.59 2937.57 1624.37 2936.85 1624.21 2929.82 1622.2 2922.49 1626.28 2920.48 1633.31 2920.19 1634.32 2920.02 1635.36 2919.98 1636.4 2919.5 1636.35 2919.01 1636.31 2918.52 1636.31 2911.48 1636.31 2905.78 1642.01 2905.78 1649.04 2905.78 1654.44 2909.17 1659.25 2914.25 1661.05 2915.52 1661.55 2916.86 1661.79 2918.22 1661.78L2933.11 1661.78C2939.09 1657.26 2944.53 1652.07 2949.33 1646.31Z" fill="#F2F2F2"/></g><path d="M2965.07 1617.1C2960.45 1609.42 2949.67 1606.43 2934.6 1608.68 2929.43 1609.41 2924.33 1610.52 2919.33 1611.99 2923.3 1613.36 2927.07 1615.25 2930.53 1617.61 2932.3 1617.23 2934.08 1616.76 2935.78 1616.51 2938.45 1616.09 2941.16 1615.87 2943.87 1615.85 2949.25 1615.08 2954.65 1617.08 2958.23 1621.17L2958.23 1621.17C2961.04 1625.85 2958.67 1633.85 2951.74 1643.17 2942.09 1655.17 2930.28 1665.25 2916.91 1672.88 2903.84 1681.04 2889.35 1686.66 2874.2 1689.47 2862.73 1691.18 2854.53 1689.47 2851.72 1684.8 2848.91 1680.14 2851.28 1672.12 2858.22 1662.84 2859.08 1661.69 2859.29 1661.12 2860.27 1659.96 2859.81 1655.99 2859.87 1651.97 2860.46 1648.01 2857.34 1651.14 2854.47 1654.5 2851.88 1658.07 2842.79 1670.22 2840.33 1681.15 2844.93 1688.83 2849.88 1695.45 2857.98 1698.94 2866.2 1697.99 2869.27 1697.97 2872.34 1697.73 2875.37 1697.25 2891.55 1694.3 2907.02 1688.33 2920.98 1679.65 2935.24 1671.49 2947.83 1660.72 2958.09 1647.89 2967.21 1635.71 2969.67 1624.79 2965.07 1617.1Z" fill="#50E6FF"/></g></g></g><rect x="2204.5" y="1574.5" width="513" height="161" stroke="#000000" stroke-width="3.4375" stroke-linejoin="round" stroke-miterlimit="10" fill="none"/><text font-family="Segoe UI,Segoe UI_MSFontService,sans-serif" font-weight="400" font-size="41" transform="matrix(1 0 0 1 2280.16 1631)">API Implementation</text><text font-family="Segoe UI,Segoe UI_MSFontService,sans-serif" font-weight="400" font-size="32" transform="matrix(1 0 0 1 2242.34 1672)">Vehicle &amp; Device </text><text font-family="Segoe UI,Segoe UI_MSFontService,sans-serif" font-weight="400" font-size="32" transform="matrix(1 0 0 1 2490.42 1672)">Management</text><text font-family="Segoe UI,Segoe UI_MSFontService,sans-serif" font-weight="400" font-size="32" transform="matrix(1 0 0 1 2366.09 1710)">User Consent</text><g><g><g><path d="M2488.41 1855.74C2488 1841.39 2476.09 1830.06 2461.74 1830.36 2450.31 1830.24 2440.05 1837.35 2436.14 1848.09 2423.92 1849.77 2414.79 1860.17 2414.69 1872.5 2415.19 1886.29 2426.71 1897.11 2440.51 1896.75 2441.26 1896.8 2442.02 1896.8 2442.77 1896.75L2449.24 1896.75C2448.84 1895.79 2448.64 1894.77 2448.64 1893.73L2448.64 1893.73C2448.66 1892.35 2449.03 1891 2449.72 1889.8L2442.18 1889.8 2440.51 1889.8C2430.54 1890.14 2422.12 1882.46 2421.54 1872.5 2421.63 1863.53 2428.32 1856.01 2437.22 1854.88L2441.32 1854.23 2442.66 1850.3C2445.62 1842.34 2453.25 1837.1 2461.74 1837.2 2472.31 1836.96 2481.13 1845.23 2481.57 1855.79L2481.57 1861.72 2487.44 1862.53C2494.25 1863.4 2499.41 1869.09 2499.62 1875.95 2499.36 1883.57 2493.13 1889.61 2485.5 1889.64L2484.7 1889.64 2484.26 1889.64 2478.88 1889.64C2476.96 1879.65 2468.19 1872.45 2458.02 1872.5 2456.13 1872.26 2454.41 1873.6 2454.17 1875.49 2453.93 1877.38 2455.27 1879.11 2457.16 1879.34 2457.45 1879.38 2457.74 1879.38 2458.02 1879.34 2465.89 1879.83 2471.88 1886.6 2471.4 1894.47 2470.95 1901.67 2465.22 1907.41 2458.02 1907.85 2456.13 1907.61 2454.41 1908.95 2454.17 1910.84 2453.93 1912.73 2455.27 1914.46 2457.16 1914.69 2457.45 1914.73 2457.74 1914.73 2458.02 1914.69 2468.47 1914.68 2477.33 1907.03 2478.88 1896.7L2484.53 1896.7C2484.89 1896.75 2485.25 1896.75 2485.61 1896.7 2496.98 1896.49 2506.13 1887.31 2506.31 1875.95 2506.11 1865.73 2498.53 1857.17 2488.41 1855.74Z" fill="url(#fill23)"/><path d="M2457.16 1885.16C2461.74 1885.16 2465.46 1888.88 2465.46 1893.46L2465.46 1893.68C2465.46 1898.26 2461.74 1901.98 2457.16 1901.98L2456.94 1901.98C2452.36 1901.98 2448.64 1898.26 2448.64 1893.68L2448.64 1893.46C2448.64 1888.88 2452.36 1885.16 2456.94 1885.16Z" fill="url(#fill24)"/></g></g></g><text font-family="Segoe UI,Segoe UI_MSFontService,sans-serif" font-weight="400" font-size="28" transform="matrix(1 0 0 1 2356.6 1960)">API Management</text><text font-family="Segoe UI,Segoe UI_MSFontService,sans-serif" font-weight="400" font-size="32" transform="matrix(1 0 0 1 2348.28 1997)">Vehicle Owner / </text><text font-family="Segoe UI,Segoe UI_MSFontService,sans-serif" font-weight="400" font-size="32" transform="matrix(1 0 0 1 2366.61 2036)">User Consent</text><path d="M0-1.14583 45.5713-1.14583 45.5713 0.518602 44.4255-0.627231 65.934-0.627231 65.934 1.66444 43.2797 1.66444 43.2797 0 44.4255 1.14583 0 1.14583ZM61.3506-13.2314 88.8506 0.518602 61.3506 14.2686Z" transform="matrix(-1.83697e-16 -1 -1 1.83697e-16 2460.52 1823.85)"/><path d="M2527 982.5C2527 976.149 2531.92 971 2538 971 2544.08 971 2549 976.149 2549 982.5 2549 988.851 2544.08 994 2538 994 2531.92 994 2527 988.851 2527 982.5Z" fill="#FFFFFF" fill-rule="evenodd"/><path d="M2527 1033C2527 1026.92 2531.92 1022 2538 1022 2544.08 1022 2549 1026.92 2549 1033 2549 1039.08 2544.08 1044 2538 1044 2531.92 1044 2527 1039.08 2527 1033Z" fill="#FFFFFF" fill-rule="evenodd"/><path d="M2160 1164C2160 1157.92 2164.93 1153 2171 1153 2177.08 1153 2182 1157.92 2182 1164 2182 1170.07 2177.08 1175 2171 1175 2164.93 1175 2160 1170.07 2160 1164Z" fill="#FFFFFF" fill-rule="evenodd"/><g filter="url(#fx0)" transform="translate(2604 1892)"><g><path d="M22 67.875C22 42.47 42.5949 21.8751 68.0001 21.8751 93.4052 21.8751 114 42.47 114 67.875 114 93.28 93.4052 113.875 68.0001 113.875 42.5949 113.875 22 93.28 22 67.875Z" fill="#FF0000" fill-rule="evenodd"/></g></g><g clip-path="url(#clip25)" filter="url(#fx1)" transform="translate(2594 1881)"><g><path d="M16.8125 0 16.8125-34.25C16.25-33.4792 15.4531-32.7344 14.4219-32.0156 13.3906-31.2969 12.1667-30.6562 10.75-30.0937 9.33333-29.5312 7.75-29.125 6-28.875L6-33.8125C7.72917-34.1042 9.33854-34.6354 10.8281-35.4062 12.3177-36.1771 13.6302-37.0625 14.7656-38.0625 15.901-39.0625 16.7917-40.0208 17.4375-40.9375L22.2812-40.9375 22.2812 0Z" fill="#FFFFFF" transform="matrix(1 0 0 1 60.6758 100)"/></g></g><path d="M2626 1953C2626 1927.59 2646.59 1907 2672 1907 2697.41 1907 2718 1927.59 2718 1953 2718 1978.41 2697.41 1999 2672 1999 2646.59 1999 2626 1978.41 2626 1953Z" fill="url(#fill26)" fill-rule="evenodd"/><text fill="#FFFFFF" font-family="Aptos,Aptos_MSFontService,sans-serif" font-weight="400" font-size="64" transform="matrix(1 0 0 1 2654.68 1974)">1</text><g filter="url(#fx2)" transform="translate(961 869)"><g><path d="M22.0001 67.875C22.0001 42.47 42.595 21.8751 68 21.8751 93.405 21.8751 114 42.47 114 67.875 114 93.28 93.405 113.875 68 113.875 42.595 113.875 22.0001 93.28 22.0001 67.875Z" fill="#FF0000" fill-rule="evenodd"/></g></g><g clip-path="url(#clip27)" filter="url(#fx3)" transform="translate(951 857)"><g><path d="M18.0625 0.5625C15.1667 0.5625 12.5833-0.130208 10.3125-1.51562 8.04167-2.90104 6.25521-5.11458 4.95312-8.15625 3.65104-11.1979 3-15.1875 3-20.125 3-24.9583 3.625-28.9375 4.875-32.0625 6.125-35.1875 7.88542-37.5104 10.1562-39.0312 12.4271-40.5521 15.0625-41.3125 18.0625-41.3125 21.375-41.3125 24.1719-40.4583 26.4531-38.75 28.7344-37.0417 30.1875-34.4479 30.8125-30.9687L25.5625-30.9687C25.125-32.9062 24.2708-34.3646 23-35.3437 21.7292-36.3229 20.0833-36.8125 18.0625-36.8125 15.0625-36.8125 12.6927-35.474 10.9531-32.7969 9.21354-30.1198 8.34375-25.8958 8.34375-20.125L8.34375-18.5C8.34375-14.9167 8.79687-12.0573 9.70312-9.92187 10.6094-7.78646 11.8021-6.25 13.2812-5.3125 14.7604-4.375 16.3646-3.90625 18.0937-3.90625 20.8229-3.90625 22.8437-4.75 24.1562-6.4375 25.4687-8.125 26.125-10.2187 26.125-12.7187 26.125-15.2396 25.4792-17.2292 24.1875-18.6875 22.8958-20.1458 21.0833-20.875 18.75-20.875 16.0417-20.875 13.6667-20.2396 11.625-18.9687 9.58333-17.6979 8.04167-16.2292 7-14.5625L6.40625-18.5625C7.30208-19.8333 8.39062-20.9844 9.67187-22.0156 10.9531-23.0469 12.4115-23.8646 14.0469-24.4687 15.6823-25.0729 17.4896-25.375 19.4687-25.375 21.7812-25.375 23.8437-24.901 25.6562-23.9531 27.4687-23.0052 28.9062-21.6042 29.9687-19.75 31.0312-17.8958 31.5625-15.6146 31.5625-12.9062 31.5625-10.2812 31.0365-7.95312 29.9844-5.92187 28.9323-3.89062 27.401-2.30208 25.3906-1.15625 23.3802-0.0104167 20.9375 0.5625 18.0625 0.5625Z" fill="#FFFFFF" transform="matrix(1 0 0 1 60.3475 100)"/></g></g><path d="M983 930C983 904.595 1003.59 884 1029 884 1054.41 884 1075 904.595 1075 930 1075 955.405 1054.41 976 1029 976 1003.59 976 983 955.405 983 930Z" fill="url(#fill28)" fill-rule="evenodd"/><text fill="#FFFFFF" font-family="Aptos,Aptos_MSFontService,sans-serif" font-weight="400" font-size="64" transform="matrix(1 0 0 1 1011.35 950)">6</text><rect x="3199.5" y="722.5" width="666" height="491" stroke="#000000" stroke-width="4.58333" stroke-miterlimit="8" fill="#FFFFFF"/><text font-family="Segoe UI,Segoe UI_MSFontService,sans-serif" font-weight="400" font-size="55" transform="matrix(1 0 0 1 3231.72 793)">Digital Services</text><g><g><g><path d="M3547.21 1041.28C3519.99 1062.38 3480.82 1057.42 3459.72 1030.21 3438.62 1002.99 3443.58 963.821 3470.79 942.72L3471.45 942.28C3499.04 921.687 3538.1 927.358 3558.69 954.945 3578.94 982.069 3573.84 1020.39 3547.21 1041.28" fill="url(#fill29)"/><path d="M3492.06 979.02C3509.69 962.251 3533.07 952.859 3557.4 952.767 3554.2 948.813 3550.53 945.266 3546.47 942.207 3534.64 942.937 3523.01 945.664 3512.08 950.273 3500.83 955.106 3490.66 962.137 3482.16 970.953 3486.24 972.504 3489.72 975.333 3492.06 979.02Z" fill="#FFFFFF" fill-opacity="0.6"/><path d="M3461.19 1004.1C3458.67 1010.34 3456.63 1016.76 3455.1 1023.31 3456.45 1025.67 3457.97 1027.92 3459.65 1030.06 3460.97 1031.75 3462.21 1033.29 3463.68 1034.83 3465.45 1026.1 3468.11 1017.57 3471.6 1009.38 3467.69 1008.68 3464.06 1006.84 3461.19 1004.1Z" fill="#FFFFFF" fill-opacity="0.6"/><path d="M3468.37 970.807C3465.79 963.862 3464.09 956.618 3463.31 949.247 3460.24 952.479 3457.53 956.046 3455.25 959.88 3456.07 965.819 3457.47 971.664 3459.43 977.333 3461.72 974.348 3464.83 972.083 3468.37 970.807Z" fill="#F2F2F2" fill-opacity="0.55"/><path d="M3495.14 989.653C3495.14 1000.71 3486.18 1009.67 3475.12 1009.67 3464.06 1009.67 3455.1 1000.71 3455.1 989.653 3455.1 978.597 3464.06 969.633 3475.12 969.633 3486.18 969.633 3495.14 978.597 3495.14 989.653Z" fill="url(#fill30)"/><path d="M3504.31 1026.25C3504.31 1022.73 3505.74 1019.37 3508.27 1016.93 3501.51 1013.23 3495.27 1008.64 3489.71 1003.29 3486.81 1006.43 3482.98 1008.57 3478.79 1009.38 3482.09 1012.77 3485.65 1015.9 3489.42 1018.77 3494.12 1022.31 3499.15 1025.38 3504.45 1027.93 3504.37 1027.37 3504.32 1026.81 3504.31 1026.25Z" fill="#F2F2F2" fill-opacity="0.55"/><path d="M3550.51 1027.79C3543.69 1027.79 3536.9 1027 3530.27 1025.44 3530.3 1025.71 3530.3 1025.98 3530.27 1026.25 3530.28 1029.65 3528.93 1032.93 3526.53 1035.34 3534.78 1036.98 3543.21 1037.57 3551.61 1037.1 3554.87 1034.15 3557.79 1030.86 3560.33 1027.27 3557.07 1027.64 3553.79 1027.81 3550.51 1027.79Z" fill="#F2F2F2" fill-opacity="0.55"/><path d="M3530.34 1026.25C3530.34 1033.46 3524.5 1039.3 3517.29 1039.3 3510.08 1039.3 3504.23 1033.46 3504.23 1026.25 3504.23 1019.04 3510.08 1013.19 3517.29 1013.19 3524.5 1013.19 3530.34 1019.04 3530.34 1026.25Z" fill="url(#fill31)"/><path d="M3533.35 991.487C3533.99 988.618 3535.57 986.042 3537.82 984.153 3525.74 975.375 3514.76 965.183 3505.11 953.793 3499.49 947.188 3494.57 940.011 3490.45 932.38 3487.71 933.201 3485.04 934.231 3482.45 935.46 3486.87 943.769 3492.15 951.586 3498.22 958.78 3508.53 971.095 3520.33 982.081 3533.35 991.487Z" fill="#F2F2F2" fill-opacity="0.7"/><path d="M3560.85 993.98C3560.85 1001.63 3554.64 1007.84 3546.99 1007.84 3539.33 1007.84 3533.13 1001.63 3533.13 993.98 3533.13 986.325 3539.33 980.12 3546.99 980.12 3554.64 980.12 3560.85 986.325 3560.85 993.98Z" fill="url(#fill32)"/><path d="M3570.23 1003.29 3567.67 1002.05 3567.67 1002.05 3565.47 1000.87 3565.03 1000.87 3563.12 999.333 3562.61 999.333 3560.33 997.867C3559.55 1000.57 3557.9 1002.94 3555.64 1004.61 3556.52 1005.2 3557.47 1005.71 3558.43 1006.23L3559.01 1006.59 3561.58 1007.99 3561.58 1007.99 3567.89 1011.29 3567.89 1011.29C3568.78 1008.62 3569.49 1005.9 3570.01 1003.15Z" fill="#F2F2F2" fill-opacity="0.55"/><path d="M3495.14 989.653C3495.14 1000.71 3486.18 1009.67 3475.12 1009.67 3464.06 1009.67 3455.1 1000.71 3455.1 989.653 3455.1 978.597 3464.06 969.633 3475.12 969.633 3486.18 969.633 3495.14 978.597 3495.14 989.653Z" fill="url(#fill33)"/><path d="M3530.34 1026.25C3530.34 1033.46 3524.5 1039.3 3517.29 1039.3 3510.08 1039.3 3504.23 1033.46 3504.23 1026.25 3504.23 1019.04 3510.08 1013.19 3517.29 1013.19 3524.5 1013.19 3530.34 1019.04 3530.34 1026.25Z" fill="url(#fill34)"/></g></g></g><text font-family="Segoe UI,Segoe UI_MSFontService,sans-serif" font-weight="400" font-size="41" transform="matrix(1 0 0 1 3393.1 1124)">Service Apps</text><text font-family="Segoe UI,Segoe UI_MSFontService,sans-serif" font-weight="400" font-size="41" transform="matrix(1 0 0 1 3360.17 1174)">Companion App</text><rect x="2302.5" y="863.5" width="316" height="529" stroke="#7F7F7F" stroke-width="4.58333" stroke-miterlimit="8" fill="none"/><text font-family="Segoe UI,Segoe UI_MSFontService,sans-serif" font-weight="400" font-size="41" transform="matrix(1 0 0 1 2356.64 920)">Commands</text><g><g><g><path d="M76.4144 31.7405C76.0032 17.3896 64.0932 6.057 49.7394 6.35888 38.3102 6.24135 28.0506 13.3476 24.1422 24.0883 11.9244 25.7734 2.79282 36.1669 2.69444 48.5 3.19213 62.2944 14.7085 73.1137 28.5072 72.7499 29.2607 72.8028 30.017 72.8028 30.7705 72.7499L37.2372 72.7499C36.8443 71.7923 36.643 70.7674 36.6444 69.7322L36.6444 69.7322C36.6639 68.3505 37.0348 66.9968 37.7222 65.7983L30.1778 65.7983 28.5072 65.7983C18.537 66.1367 10.1177 58.4592 9.53833 48.5 9.62832 39.533 16.3241 32.0089 25.22 30.8783L29.3155 30.2316 30.6628 26.2978C33.6198 18.3434 41.2538 13.1032 49.7394 13.2028 60.3124 12.9587 69.1329 21.2278 69.5705 31.7944L69.5705 37.7222 75.4444 38.5305C82.2505 39.4016 87.4136 45.0905 87.6233 51.9489 87.3624 59.5655 81.1254 65.6124 73.5044 65.6366L72.6961 65.6366 72.2649 65.6366 66.8761 65.6366C64.956 55.6489 56.1915 48.4468 46.0211 48.5 44.1312 48.2623 42.4065 49.6018 42.1689 51.4917 41.9312 53.3815 43.2706 55.1062 45.1605 55.3439 45.4462 55.38 45.7354 55.38 46.0211 55.3439 53.8932 55.8283 59.8824 62.6021 59.3979 70.4742 58.9549 77.6705 53.2175 83.4081 46.0211 83.8511 44.1312 83.6134 42.4065 84.9531 42.1689 86.843 41.9312 88.7328 43.2706 90.4573 45.1605 90.6949 45.4462 90.731 45.7354 90.731 46.0211 90.6949 56.4669 90.6766 65.3305 83.0266 66.8761 72.6961L72.5344 72.6961C72.8917 72.7526 73.2549 72.7526 73.6122 72.6961 84.9768 72.494 94.133 63.314 94.3055 51.9489 94.1147 41.7328 86.532 33.1682 76.4144 31.7405Z" fill="url(#fill35)" transform="matrix(1 0 0 1 2823 958)"/><path d="M45.1589 61.1638C49.7422 61.1638 53.4577 64.8794 53.4577 69.4627L53.4577 69.6783C53.4577 74.2616 49.7422 77.9772 45.1589 77.9772L44.9433 77.9772C40.36 77.9772 36.6444 74.2616 36.6444 69.6783L36.6444 69.4627C36.6444 64.8794 40.36 61.1638 44.9433 61.1638Z" fill="url(#fill36)" transform="matrix(1 0 0 1 2823 958)"/></g></g></g><text font-family="Segoe UI,Segoe UI_MSFontService,sans-serif" font-weight="400" font-size="28" transform="matrix(1 0 0 1 2767.25 1093)">API Management</text><text font-family="Segoe UI,Segoe UI_MSFontService,sans-serif" font-weight="400" font-size="32" transform="matrix(1 0 0 1 2780.7 1130)">Command &amp; </text><text font-family="Segoe UI,Segoe UI_MSFontService,sans-serif" font-weight="400" font-size="32" transform="matrix(1 0 0 1 2818.51 1169)">Control</text><path d="M1.70353e-06-1.14583 219.827-1.14551 219.827 1.14616-1.70353e-06 1.14583ZM215.244-13.7497 242.744 0.000360892 215.244 13.7503Z" transform="matrix(-1 0 0 1 3287.74 978)"/><path d="M1.11546e-06-1.14583 347.802-1.14549 347.802 1.14617-1.11546e-06 1.14583ZM343.219-13.7497 370.719 0.000360892 343.219 13.7503Z" transform="matrix(-1 0 0 1 1455.72 935)"/><path d="M664.146 1104 664.146 1333.81 661.855 1333.81 661.854 1104ZM676.75 1329.23 663 1356.73 649.25 1329.23Z"/><path d="M1.14583-1.6606e-06 1.14616 226.103-1.14551 226.103-1.14583 1.6606e-06ZM13.7503 221.519 0.000360892 249.019-13.7497 221.519Z" transform="matrix(1 0 0 -1 993 1357.02)"/><path d="M1.14588 22.9167 1.14615 159.607-1.14552 159.607-1.14579 22.9167ZM-13.7499 27.5 0 0 13.7501 27.5ZM13.7503 155.024 0.000360892 182.524-13.7497 155.024Z" transform="matrix(-1 0 0 1 2460 1392)"/><path d="M1085 1030.85 1432.8 1030.85 1432.8 1033.15 1085 1033.15ZM1428.22 1018.25 1455.72 1032 1428.22 1045.75Z"/><path d="M1796 1084.85 2013.42 1084.85 2013.42 1255.92 2012.27 1254.78 2205.63 1254.78 2205.63 1257.07 2011.13 1257.07 2011.13 1086 2012.27 1087.15 1796 1087.15ZM2201.04 1242.17 2228.54 1255.92 2201.04 1269.67Z"/><path d="M2608.92 1016.85 2756.89 1016.85 2756.89 1019.15 2608.92 1019.15ZM2613.5 1031.75 2586 1018 2613.5 1004.25ZM2752.31 1004.25 2779.81 1018 2752.31 1031.75Z"/><path d="M0.0083426-1.1458 163.561 0.0450224 163.544 2.33663-0.0083426 1.1458ZM159.069-12.5922 186.468 1.35768 158.869 14.9071Z" transform="matrix(1 0 0 -1 3047 1131.36)"/><g filter="url(#fx4)" transform="translate(3207 914)"><g><path d="M21.9998 67.8751C21.9998 42.47 42.5947 21.8752 67.9998 21.8752 93.4049 21.8752 114 42.47 114 67.8751 114 93.2801 93.4049 113.875 67.9998 113.875 42.5947 113.875 21.9998 93.2801 21.9998 67.8751Z" fill="#FF0000" fill-rule="evenodd"/></g></g><g clip-path="url(#clip37)" filter="url(#fx5)" transform="translate(3198 902)"><g><path d="M2.90625 0 2.90625-4.125 17.375-17.3437C19.875-19.6146 21.6875-21.6771 22.8125-23.5312 23.9375-25.3854 24.5-27.3333 24.5-29.375 24.5-31.5 23.9323-33.2448 22.7969-34.6094 21.6615-35.974 19.8021-36.6562 17.2187-36.6562 14.3021-36.6562 12.2135-35.901 10.9531-34.3906 9.69271-32.8802 9.0625-30.9792 9.0625-28.6875L3.84375-28.6875C3.84375-31.2292 4.33854-33.4479 5.32812-35.3437 6.31771-37.2396 7.80729-38.7083 9.79687-39.75 11.7865-40.7917 14.2604-41.3125 17.2187-41.3125 19.9271-41.3125 22.2292-40.8281 24.125-39.8594 26.0208-38.8906 27.4635-37.5312 28.4531-35.7812 29.4427-34.0312 29.9375-31.9687 29.9375-29.5937 29.9375-27.4687 29.526-25.5312 28.7031-23.7812 27.8802-22.0312 26.7708-20.3854 25.375-18.8437 23.9792-17.3021 22.4375-15.7708 20.75-14.25L10.0312-4.625 31.125-4.625 31.125 0Z" fill="#FFFFFF" transform="matrix(1 0 0 1 60.2703 101)"/></g></g><path d="M3229 975C3229 949.595 3249.59 929 3275 929 3300.41 929 3321 949.595 3321 975 3321 1000.41 3300.41 1021 3275 1021 3249.59 1021 3229 1000.41 3229 975Z" fill="url(#fill38)" fill-rule="evenodd"/><text fill="#FFFFFF" font-family="Aptos,Aptos_MSFontService,sans-serif" font-weight="400" font-size="64" transform="matrix(1 0 0 1 3258.27 996)">2</text><g filter="url(#fx6)" transform="translate(2114 884)"><g><path d="M22 67.8749C22 42.4698 42.5948 21.8749 67.9999 21.8749 93.4049 21.8749 114 42.4698 114 67.8749 114 93.2801 93.4049 113.875 67.9999 113.875 42.5948 113.875 22 93.2801 22 67.8749Z" fill="#FF0000" fill-rule="evenodd"/></g></g><g clip-path="url(#clip39)" filter="url(#fx7)" transform="translate(2104 873)"><g><path d="M21.4375 0 21.4375-8.25 1.75-8.25 1.75-12.9687 21.3437-41.0312 26.6562-41.0312 26.6562-12.8437 32.25-12.8437 32.25-8.25 26.6562-8.25 26.6562 0ZM6.84375-12.8437 21.5-12.8437 21.5-33.9062Z" fill="#FFFFFF" transform="matrix(1 0 0 1 60.9595 100)"/></g></g><path d="M2136 945C2136 919.595 2156.59 899 2182 899 2207.41 899 2228 919.595 2228 945 2228 970.405 2207.41 991 2182 991 2156.59 991 2136 970.405 2136 945Z" fill="url(#fill40)" fill-rule="evenodd"/><text fill="#FFFFFF" font-family="Aptos,Aptos_MSFontService,sans-serif" font-weight="400" font-size="64" transform="matrix(1 0 0 1 2164.96 966)">4</text><g filter="url(#fx8)" transform="translate(746 1210)"><g><path d="M21.9999 67.875C21.9999 42.47 42.5949 21.8751 68 21.8751 93.4051 21.8751 114 42.47 114 67.875 114 93.28 93.4051 113.875 68 113.875 42.5949 113.875 21.9999 93.28 21.9999 67.875Z" fill="#FF0000" fill-rule="evenodd"/></g></g><g clip-path="url(#clip41)" filter="url(#fx9)" transform="translate(736 1198)"><g><path d="M8.0625 0 25.8437-36 2.96875-36 2.96875-40.7812 31.1562-40.7812 31.1562-36.2187 13.75 0Z" fill="#FFFFFF" transform="matrix(1 0 0 1 60.6349 101)"/></g></g><path d="M768 1271C768 1245.59 788.595 1225 814 1225 839.405 1225 860 1245.59 860 1271 860 1296.41 839.405 1317 814 1317 788.595 1317 768 1296.41 768 1271Z" fill="url(#fill42)" fill-rule="evenodd"/><text fill="#FFFFFF" font-family="Aptos,Aptos_MSFontService,sans-serif" font-weight="400" font-size="64" transform="matrix(1 0 0 1 796.635 1292)">7</text><g filter="url(#fx10)" transform="translate(1208 969)"><g><path d="M21.9999 67.8751C21.9999 42.47 42.5948 21.8752 67.9999 21.8752 93.4051 21.8752 114 42.47 114 67.8751 114 93.2801 93.4051 113.875 67.9999 113.875 42.5948 113.875 21.9999 93.2801 21.9999 67.8751Z" fill="#FF0000" fill-rule="evenodd"/></g></g><g clip-path="url(#clip43)" filter="url(#fx11)" transform="translate(1198 957)"><g><path d="M17.0937 0.5625C15.2396 0.5625 13.474 0.322917 11.7969-0.15625 10.1198-0.635417 8.63021-1.36458 7.32812-2.34375 6.02604-3.32292 5-4.5625 4.25-6.0625 3.5-7.5625 3.125-9.34375 3.125-11.4062 3.125-14.0104 3.89062-16.1979 5.42187-17.9687 6.95312-19.7396 8.88542-20.9167 11.2187-21.5 9.23958-22.1667 7.67187-23.3021 6.51562-24.9062 5.35937-26.5104 4.78125-28.4792 4.78125-30.8125 4.78125-33.25 5.38021-35.25 6.57812-36.8125 7.77604-38.375 9.3125-39.5208 11.1875-40.25 13.0625-40.9792 15.0208-41.3437 17.0625-41.3437 19.1042-41.3437 21.0625-40.974 22.9375-40.2344 24.8125-39.4948 26.3542-38.349 27.5625-36.7969 28.7708-35.2448 29.375-33.25 29.375-30.8125 29.375-28.4375 28.724-26.4375 27.4219-24.8125 26.1198-23.1875 24.5729-22.0833 22.7812-21.5 25.1562-20.9167 27.125-19.75 28.6875-18 30.25-16.25 31.0312-14.0521 31.0312-11.4062 31.0312-9.34375 30.6562-7.5625 29.9062-6.0625 29.1562-4.5625 28.1354-3.32292 26.8437-2.34375 25.5521-1.36458 24.0729-0.635417 22.4062-0.15625 20.7396 0.322917 18.9687 0.5625 17.0937 0.5625ZM17.0937-3.875C18.6562-3.875 20.0885-4.15104 21.3906-4.70312 22.6927-5.25521 23.7344-6.10417 24.5156-7.25 25.2969-8.39583 25.6875-9.85417 25.6875-11.625 25.6875-13.3125 25.2917-14.7292 24.5-15.875 23.7083-17.0208 22.6562-17.8854 21.3437-18.4687 20.0312-19.0521 18.6146-19.3229 17.0937-19.2812 15.6562-19.3229 14.2865-19.0625 12.9844-18.5 11.6823-17.9375 10.6146-17.0833 9.78125-15.9375 8.94792-14.7917 8.53125-13.3542 8.53125-11.625 8.53125-9.04167 9.375-7.10417 11.0625-5.8125 12.75-4.52083 14.7604-3.875 17.0937-3.875ZM17.0937-23.625C18.3437-23.5833 19.5104-23.8229 20.5937-24.3437 21.6771-24.8646 22.5573-25.6406 23.2344-26.6719 23.9115-27.7031 24.25-28.9792 24.25-30.5 24.25-32.75 23.5521-34.3958 22.1562-35.4375 20.7604-36.4792 19.0729-37 17.0937-37 15.8854-37 14.7344-36.7708 13.6406-36.3125 12.5469-35.8542 11.6562-35.1458 10.9687-34.1875 10.2812-33.2292 9.9375-32 9.9375-30.5 9.9375-29 10.2812-27.7344 10.9687-26.7031 11.6562-25.6719 12.5521-24.8906 13.6562-24.3594 14.7604-23.8281 15.9062-23.5833 17.0937-23.625Z" fill="#FFFFFF" transform="matrix(1 0 0 1 60.672 100)"/></g></g><path d="M1230 1030C1230 1004.6 1250.59 984 1276 984 1301.41 984 1322 1004.6 1322 1030 1322 1055.41 1301.41 1076 1276 1076 1250.59 1076 1230 1055.41 1230 1030Z" fill="url(#fill44)" fill-rule="evenodd"/><text fill="#FFFFFF" font-family="Aptos,Aptos_MSFontService,sans-serif" font-weight="400" font-size="64" transform="matrix(1 0 0 1 1258.67 1050)">8</text><g filter="url(#fx12)" transform="translate(2206 1195)"><g><path d="M21.9998 67.8751C21.9998 42.4699 42.5947 21.875 67.9998 21.875 93.4049 21.875 114 42.4699 114 67.8751 114 93.2802 93.4049 113.875 67.9998 113.875 42.5947 113.875 21.9998 93.2802 21.9998 67.8751Z" fill="#FF0000" fill-rule="evenodd"/></g></g><g clip-path="url(#clip45)" filter="url(#fx13)" transform="translate(2196 1183)"><g><path d="M15.9375 0.5625C13.6042 0.5625 11.526 0.161458 9.70312-0.640625 7.88021-1.44271 6.39062-2.61458 5.23437-4.15625 4.07812-5.69792 3.34375-7.57292 3.03125-9.78125L8.3125-9.78125C8.64583-8.01042 9.45833-6.58854 10.75-5.51562 12.0417-4.44271 13.7708-3.90625 15.9375-3.90625 19.0833-3.90625 21.5625-5.19792 23.375-7.78125 25.1875-10.3646 26.0937-14.5 26.0937-20.1875L26.0937-21.9687C26.0937-25.6771 25.6667-28.6198 24.8125-30.7969 23.9583-32.974 22.8281-34.5312 21.4219-35.4687 20.0156-36.4062 18.4792-36.875 16.8125-36.875 13.9375-36.875 11.8073-36.026 10.4219-34.3281 9.03646-32.6302 8.34375-30.5208 8.34375-28 8.34375-25.4792 9.01042-23.4896 10.3437-22.0312 11.6771-20.5729 13.5417-19.8437 15.9375-19.8437 17.8333-19.8437 19.4792-20.1354 20.875-20.7187 22.2708-21.3021 23.4896-22.0625 24.5312-23 25.5729-23.9375 26.4792-24.9167 27.25-25.9375L27.7812-22.0937C26.9479-20.9479 25.9427-19.8646 24.7656-18.8437 23.5885-17.8229 22.2135-16.9896 20.6406-16.3437 19.0677-15.6979 17.2812-15.375 15.2812-15.375 12.8646-15.375 10.724-15.8594 8.85937-16.8281 6.99479-17.7969 5.53646-19.2135 4.48437-21.0781 3.43229-22.9427 2.90625-25.1979 2.90625-27.8437 2.90625-30.4479 3.46354-32.7656 4.57812-34.7969 5.69271-36.8281 7.28646-38.4271 9.35937-39.5937 11.4323-40.7604 13.8958-41.3437 16.75-41.3437 19.5833-41.3437 22.1094-40.651 24.3281-39.2656 26.5469-37.8802 28.2969-35.6667 29.5781-32.625 30.8594-29.5833 31.5-25.5937 31.5-20.6562 31.5-15.8021 30.8542-11.8125 29.5625-8.6875 28.2708-5.5625 26.4583-3.23958 24.125-1.71875 21.7917-0.197917 19.0625 0.5625 15.9375 0.5625Z" fill="#FFFFFF" transform="matrix(1 0 0 1 60.9736 100)"/></g></g><path d="M2228 1256C2228 1230.59 2248.59 1210 2274 1210 2299.41 1210 2320 1230.59 2320 1256 2320 1281.41 2299.41 1302 2274 1302 2248.59 1302 2228 1281.41 2228 1256Z" fill="url(#fill46)" fill-rule="evenodd"/><text fill="#FFFFFF" font-family="Aptos,Aptos_MSFontService,sans-serif" font-weight="400" font-size="64" transform="matrix(1 0 0 1 2256.97 1276)">9</text><g filter="url(#fx14)" transform="translate(3211 1069)"><g><path d="M22 67.8749C22 42.4698 42.5949 21.8749 68.0001 21.8749 93.4052 21.8749 114 42.4698 114 67.8749 114 93.2801 93.4052 113.875 68.0001 113.875 42.5949 113.875 22 93.2801 22 67.8749Z" fill="#FF0000" fill-rule="evenodd"/></g></g><g clip-path="url(#clip47)" filter="url(#fx15)" transform="translate(3184 1057)"><g><path d="M16.8125 0 16.8125-34.25C16.25-33.4792 15.4531-32.7344 14.4219-32.0156 13.3906-31.2969 12.1667-30.6562 10.75-30.0937 9.33333-29.5312 7.75-29.125 6-28.875L6-33.8125C7.72917-34.1042 9.33854-34.6354 10.8281-35.4062 12.3177-36.1771 13.6302-37.0625 14.7656-38.0625 15.901-39.0625 16.7917-40.0208 17.4375-40.9375L22.2812-40.9375 22.2812 0ZM51.4687 0.5625C48.8437 0.5625 46.6302 0.0260416 44.8281-1.04687 43.026-2.11979 41.5781-3.60937 40.4844-5.51562 39.3906-7.42187 38.599-9.63542 38.1094-12.1562 37.6198-14.6771 37.375-17.3958 37.375-20.3125 37.375-23.2708 37.6198-26.0208 38.1094-28.5625 38.599-31.1042 39.3906-33.3333 40.4844-35.25 41.5781-37.1667 43.026-38.6615 44.8281-39.7344 46.6302-40.8073 48.8437-41.3437 51.4687-41.3437 54.0937-41.3437 56.3073-40.8125 58.1094-39.75 59.9114-38.6875 61.3542-37.1927 62.4375-35.2656 63.5208-33.3385 64.3073-31.1094 64.7969-28.5781 65.2865-26.0469 65.5312-23.3125 65.5312-20.375 65.5312-17.4375 65.2865-14.7031 64.7969-12.1719 64.3073-9.64062 63.5208-7.42187 62.4375-5.51562 61.3542-3.60937 59.9114-2.11979 58.1094-1.04687 56.3073 0.0260416 54.0937 0.5625 51.4687 0.5625ZM51.4687-4C53.1979-4 54.6146-4.46875 55.7187-5.40625 56.8229-6.34375 57.6823-7.59896 58.2969-9.17187 58.9114-10.7448 59.3385-12.5052 59.5781-14.4531 59.8177-16.401 59.9375-18.375 59.9375-20.375 59.9375-22.3958 59.8177-24.3802 59.5781-26.3281 59.3385-28.276 58.9114-30.0365 58.2969-31.6094 57.6823-33.1823 56.8229-34.4375 55.7187-35.375 54.6146-36.3125 53.1979-36.7812 51.4687-36.7812 49.7396-36.7812 48.3177-36.3125 47.2031-35.375 46.0885-34.4375 45.2187-33.1823 44.5937-31.6094 43.9687-30.0365 43.5365-28.276 43.2969-26.3281 43.0573-24.3802 42.9375-22.3958 42.9375-20.375 42.9375-18.375 43.0573-16.401 43.2969-14.4531 43.5365-12.5052 43.9687-10.7448 44.5937-9.17187 45.2187-7.59896 46.0885-6.34375 47.2031-5.40625 48.3177-4.46875 49.7396-4 51.4687-4Z" fill="#FFFFFF" transform="matrix(1 0 0 1 60.8965 100)"/></g></g><path d="M3233 1130C3233 1104.59 3253.59 1084 3279 1084 3304.41 1084 3325 1104.59 3325 1130 3325 1155.41 3304.41 1176 3279 1176 3253.59 1176 3233 1155.41 3233 1130Z" fill="url(#fill48)" fill-rule="evenodd"/><text fill="#FFFFFF" font-family="Aptos,Aptos_MSFontService,sans-serif" font-weight="400" font-size="64" transform="matrix(1 0 0 1 3244.9 1150)">10</text><g><g><g><path d="M584.333 1839.33C584.333 1848.91 576.573 1856.67 567 1856.67 557.427 1856.67 549.667 1848.91 549.667 1839.33 549.667 1829.76 557.427 1822 567 1822 576.573 1822 584.333 1829.76 584.333 1839.33Z" fill="#D9D9D9"/><path d="M688.333 1839.33C688.333 1848.91 680.573 1856.67 671 1856.67 661.427 1856.67 653.667 1848.91 653.667 1839.33 653.667 1829.76 661.427 1822 671 1822 680.573 1822 688.333 1829.76 688.333 1839.33Z" fill="#D9D9D9"/><path d="M599.5 1796 599.5 1770 629.183 1770C631.567 1770 633.733 1770.87 635.25 1772.6L658.65 1796 599.5 1796ZM590.833 1796 536.017 1796 559.417 1772.6C561.15 1770.87 563.317 1770 565.483 1770L590.833 1770 590.833 1796ZM692.667 1796 674.683 1796C672.3 1796 670.133 1795.13 668.617 1793.4L641.317 1766.32C638.067 1763.07 633.733 1761.33 628.967 1761.33L565.483 1761.33C560.933 1761.33 556.383 1763.07 553.133 1766.32L526.267 1793.4C524.533 1795.13 523.667 1797.3 523.667 1799.68L523.667 1822C523.667 1831.53 531.467 1839.33 541 1839.33L543.167 1839.33C543.167 1826.12 553.783 1815.5 567 1815.5 580.217 1815.5 590.833 1826.12 590.833 1839.33L647.167 1839.33C647.167 1826.12 657.783 1815.5 671 1815.5 684.217 1815.5 694.833 1826.12 694.833 1839.33L705.667 1839.33C710.433 1839.33 714.333 1835.43 714.333 1830.67L714.333 1817.67C714.333 1805.75 704.583 1796 692.667 1796Z" fill="#D9D9D9"/></g></g></g><text fill="#548235" font-family="Aptos,Aptos_MSFontService,sans-serif" font-style="italic" font-weight="400" font-size="37" transform="matrix(1 0 0 1 1807.16 1006)">publish command</text><rect x="1093" y="822" width="428" height="78" fill="#FFFFFF"/><text fill="#548235" font-family="Aptos,Aptos_MSFontService,sans-serif" font-style="italic" font-weight="400" font-size="37" transform="matrix(1 0 0 1 1126.14 873)">Subscribed to command</text><rect x="534" y="1121" width="377" height="78" fill="#FFFFFF"/><text fill="#548235" font-family="Aptos,Aptos_MSFontService,sans-serif" font-style="italic" font-weight="400" font-size="37" transform="matrix(1 0 0 1 566.884 1172)">Execute and monitor</text><rect x="1127" y="1091" width="274" height="78" fill="#FFFFFF"/><text fill="#548235" font-family="Aptos,Aptos_MSFontService,sans-serif" font-style="italic" font-weight="400" font-size="37" transform="matrix(1 0 0 1 1159.74 1142)">publish status</text><rect x="1784" y="1106" width="424" height="123" fill="#FFFFFF"/><text fill="#548235" font-family="Aptos,Aptos_MSFontService,sans-serif" font-style="italic" font-weight="400" font-size="37" transform="matrix(1 0 0 1 1817.02 1157)">Subscribe to </text><text fill="#548235" font-family="Aptos,Aptos_MSFontService,sans-serif" font-style="italic" font-weight="400" font-size="37" transform="matrix(1 0 0 1 1817.02 1201)">command status </text><text fill="#548235" font-family="Aptos,Aptos_MSFontService,sans-serif" font-style="italic" font-weight="400" font-size="37" transform="matrix(1 0 0 1 1817.02 1245)">updates</text><g><g><g><path d="M1657.13 930.767 1657.13 926.367 1623.99 926.367 1608.44 941.84 1597 941.84 1623.55 915 1641.66 915 1641.66 910.82 1621.71 910.82 1590.77 941.84 1586.37 941.84 1586.37 946.24 1599.64 946.24 1615.33 961.713 1652.73 961.713 1652.73 957.313 1616.95 957.313 1605.87 946.24 1632.79 946.24 1632.79 941.84 1614.75 941.84 1625.75 930.767Z" fill="#32BEDD"/><path d="M1643.57 944.04C1643.57 947.564 1640.71 950.42 1637.19 950.42 1633.66 950.42 1630.81 947.564 1630.81 944.04 1630.81 940.516 1633.66 937.66 1637.19 937.66 1640.71 937.66 1643.57 940.516 1643.57 944.04Z" fill="#FFFFFF"/><path d="M1650.24 913.093C1650.24 916.617 1647.38 919.473 1643.86 919.473 1640.34 919.473 1637.48 916.617 1637.48 913.093 1637.48 909.57 1640.34 906.713 1643.86 906.713 1647.38 906.713 1650.24 909.57 1650.24 913.093Z" fill="#FFFFFF"/><path d="M1665.71 928.567C1665.71 932.09 1662.86 934.947 1659.33 934.947 1655.81 934.947 1652.95 932.09 1652.95 928.567 1652.95 925.043 1655.81 922.187 1659.33 922.187 1662.86 922.187 1665.71 925.043 1665.71 928.567Z" fill="#FFFFFF"/><path d="M1659.11 959.513C1659.11 963.037 1656.26 965.893 1652.73 965.893 1649.21 965.893 1646.35 963.037 1646.35 959.513 1646.35 955.99 1649.21 953.133 1652.73 953.133 1656.26 953.133 1659.11 955.99 1659.11 959.513Z" fill="#FFFFFF"/><path d="M1651.34 913.093C1651.34 917.346 1647.89 920.793 1643.64 920.793 1639.39 920.793 1635.94 917.346 1635.94 913.093 1635.94 908.841 1639.39 905.393 1643.64 905.393 1647.89 905.393 1651.34 908.841 1651.34 913.093Z" fill="#50E6FF"/><path d="M1666.81 928.567C1666.81 932.819 1663.37 936.267 1659.11 936.267 1654.86 936.267 1651.41 932.819 1651.41 928.567 1651.41 924.314 1654.86 920.867 1659.11 920.867 1663.37 920.867 1666.81 924.314 1666.81 928.567Z" fill="url(#fill49)"/><path d="M1660.43 959.513C1660.43 963.766 1656.99 967.213 1652.73 967.213 1648.48 967.213 1645.03 963.766 1645.03 959.513 1645.03 955.261 1648.48 951.813 1652.73 951.813 1656.99 951.813 1660.43 955.261 1660.43 959.513Z" fill="url(#fill50)"/><path d="M1644.89 944.04C1644.89 948.293 1641.44 951.74 1637.19 951.74 1632.93 951.74 1629.49 948.293 1629.49 944.04 1629.49 939.787 1632.93 936.34 1637.19 936.34 1641.44 936.34 1644.89 939.787 1644.89 944.04Z" fill="#50E6FF"/><path d="M1571.85 881.487 1581.31 881.487 1581.31 881.487 1581.31 907.667C1581.31 908.841 1580.35 909.793 1579.18 909.793L1569.79 909.793C1568.62 909.793 1567.67 908.841 1567.67 907.667L1567.67 885.667C1567.67 883.358 1569.54 881.487 1571.85 881.487Z" fill="#999999"/><path d="M1571.85 881.487 1581.31 881.487 1581.31 881.487 1581.31 907.667C1581.31 908.841 1580.35 909.793 1579.18 909.793L1569.79 909.793C1568.62 909.793 1567.67 908.841 1567.67 907.667L1567.67 885.667C1567.67 883.358 1569.54 881.487 1571.85 881.487Z" fill="#999999" fill-opacity="0.5"/><path d="M1678.69 881.487 1688.15 881.487C1690.46 881.487 1692.33 883.358 1692.33 885.667L1692.33 907.667C1692.33 908.841 1691.38 909.793 1690.21 909.793L1680.75 909.793C1679.6 909.754 1678.69 908.813 1678.69 907.667L1678.69 881.487 1678.69 881.487Z" fill="#999999"/><path d="M1678.69 881.487 1688.15 881.487C1690.46 881.487 1692.33 883.358 1692.33 885.667L1692.33 907.667C1692.33 908.841 1691.38 909.793 1690.21 909.793L1680.75 909.793C1679.6 909.754 1678.69 908.813 1678.69 907.667L1678.69 881.487 1678.69 881.487Z" fill="#999999" fill-opacity="0.5"/><path d="M1692.33 885.667 1692.33 894.833 1692.33 894.833 1567.67 894.833 1567.67 894.833 1567.67 885.667C1567.67 883.358 1569.54 881.487 1571.85 881.487L1688.23 881.487C1690.51 881.527 1692.33 883.387 1692.33 885.667Z" fill="#949494"/><path d="M1569.79 963.987 1579.25 963.987C1580.43 963.987 1581.38 964.939 1581.38 966.113L1581.38 992.513 1581.38 992.513 1571.85 992.513C1569.54 992.513 1567.67 990.642 1567.67 988.333L1567.67 966.333C1567.55 965.165 1568.39 964.119 1569.56 963.998 1569.64 963.99 1569.72 963.986 1569.79 963.987Z" fill="#999999"/><path d="M1569.79 963.987 1579.25 963.987C1580.43 963.987 1581.38 964.939 1581.38 966.113L1581.38 992.513 1581.38 992.513 1571.85 992.513C1569.54 992.513 1567.67 990.642 1567.67 988.333L1567.67 966.333C1567.55 965.165 1568.39 964.119 1569.56 963.998 1569.64 963.99 1569.72 963.986 1569.79 963.987Z" fill="#999999" fill-opacity="0.5"/><path d="M1680.75 963.987 1690.21 963.987C1691.38 963.987 1692.33 964.939 1692.33 966.113L1692.33 988.113C1692.33 990.422 1690.46 992.293 1688.15 992.293L1678.69 992.293 1678.69 992.293 1678.69 966.333C1678.57 965.165 1679.42 964.119 1680.59 963.997 1680.64 963.992 1680.69 963.988 1680.75 963.987Z" fill="#999999"/><path d="M1680.75 963.987 1690.21 963.987C1691.38 963.987 1692.33 964.939 1692.33 966.113L1692.33 988.113C1692.33 990.422 1690.46 992.293 1688.15 992.293L1678.69 992.293 1678.69 992.293 1678.69 966.333C1678.57 965.165 1679.42 964.119 1680.59 963.997 1680.64 963.992 1680.69 963.988 1680.75 963.987Z" fill="#999999" fill-opacity="0.5"/><path d="M1567.67 988.333 1567.67 979.167 1567.67 979.167 1692.33 979.167 1692.33 979.167 1692.33 988.333C1692.33 990.642 1690.46 992.513 1688.15 992.513L1571.85 992.513C1569.54 992.513 1567.67 990.642 1567.67 988.333Z" fill="#949494"/></g></g></g><text font-family="Segoe UI,Segoe UI_MSFontService,sans-serif" font-weight="400" font-size="41" transform="matrix(1 0 0 1 2800.71 1766)">Cosmos DB</text><text font-family="Segoe UI,Segoe UI_MSFontService,sans-serif" font-style="italic" font-weight="400" font-size="41" transform="matrix(1 0 0 1 2837.08 1816)">Storage</text><path d="M2739.92 1653.85 2816.05 1653.85 2816.05 1656.15 2739.92 1656.15ZM2744.5 1668.75 2717 1655 2744.5 1641.25ZM2811.46 1641.25 2838.96 1655 2811.46 1668.75Z"/><rect x="2339.5" y="935.5" width="247" height="384" stroke="#000000" stroke-width="3.4375" stroke-linejoin="round" stroke-miterlimit="10" fill="none"/><text font-family="Segoe UI,Segoe UI_MSFontService,sans-serif" font-weight="400" font-size="41" transform="matrix(1 0 0 1 2375.4 1118)">Workflow </text><text font-family="Segoe UI,Segoe UI_MSFontService,sans-serif" font-weight="400" font-size="41" transform="matrix(1 0 0 1 2414.35 1168)">Logic</text><g><g><g><path d="M1587.75 1597.94C1587.75 1598.26 1587.92 1598.55 1588.19 1598.71L1594.57 1602.28 1605.35 1608.5C1605.79 1608.75 1606.35 1608.61 1606.61 1608.17L1610.24 1602.01C1610.46 1601.6 1610.31 1601.09 1609.92 1600.85L1597.27 1593.7C1597 1593.54 1596.83 1593.25 1596.82 1592.93L1596.82 1536.17C1596.82 1535.86 1596.99 1535.56 1597.27 1535.4L1609.92 1528.25C1610.31 1528.02 1610.46 1527.51 1610.24 1527.1L1606.61 1520.94C1606.4 1520.47 1605.84 1520.27 1605.37 1520.49 1605.36 1520.49 1605.36 1520.5 1605.35 1520.5L1594.79 1526.6 1588.19 1530.29C1587.92 1530.45 1587.75 1530.74 1587.75 1531.06L1587.75 1597.94Z" fill="#949494"/><path d="M1596.77 1535.73 1597.1 1535.4 1609.75 1528.25C1610.14 1528.09 1610.33 1527.64 1610.16 1527.25 1610.14 1527.19 1610.11 1527.15 1610.08 1527.1L1606.45 1520.94C1606.3 1520.51 1605.84 1520.28 1605.4 1520.42 1605.35 1520.44 1605.29 1520.47 1605.24 1520.5L1594.62 1526.6 1588.08 1530.29C1588.08 1530.29 1587.81 1530.29 1587.75 1530.62L1592.7 1533.42Z" fill="#A3A3A3"/><path d="M1609.75 1600.74 1597.1 1593.59C1596.93 1593.47 1596.8 1593.3 1596.71 1593.1L1587.81 1598.6 1588.08 1598.6 1594.41 1602.17 1605.41 1608.28C1605.78 1608.54 1606.29 1608.44 1606.55 1608.06 1606.58 1608.03 1606.6 1607.99 1606.61 1607.95L1610.24 1601.79C1610.41 1601.4 1610.23 1600.95 1609.84 1600.78 1609.81 1600.77 1609.78 1600.75 1609.75 1600.74Z" fill="#A3A3A3"/><path d="M1681.25 1597.94C1681.25 1598.26 1681.08 1598.55 1680.81 1598.71L1674.43 1602.28 1663.65 1608.5C1663.21 1608.75 1662.65 1608.61 1662.39 1608.17L1658.76 1602.01C1658.54 1601.6 1658.69 1601.09 1659.08 1600.85L1671.73 1593.7C1672 1593.54 1672.17 1593.25 1672.18 1592.93L1672.18 1536.17C1672.18 1535.86 1672.01 1535.56 1671.73 1535.4L1659.08 1528.25C1658.69 1528.02 1658.54 1527.51 1658.76 1527.1L1662.39 1520.94C1662.6 1520.47 1663.16 1520.27 1663.63 1520.49 1663.64 1520.49 1663.64 1520.5 1663.65 1520.5L1674.21 1526.49 1680.81 1530.18C1681.08 1530.34 1681.25 1530.63 1681.25 1530.95L1681.25 1597.94Z" fill="#949494"/><path d="M1672.23 1535.73 1671.9 1535.4 1659.25 1528.25C1658.86 1528.09 1658.67 1527.64 1658.84 1527.25 1658.86 1527.19 1658.89 1527.15 1658.92 1527.1L1662.55 1520.94C1662.7 1520.51 1663.16 1520.28 1663.6 1520.42 1663.65 1520.44 1663.71 1520.47 1663.76 1520.5L1674.38 1526.49 1680.92 1530.18C1680.92 1530.18 1680.92 1530.18 1681.25 1530.51L1676.3 1533.31Z" fill="#A3A3A3"/><path d="M1659.25 1600.74 1671.9 1593.59C1672.07 1593.47 1672.2 1593.3 1672.29 1593.1L1681.19 1598.6 1681.19 1598.6 1674.87 1602.17 1663.87 1608.28C1663.49 1608.54 1662.98 1608.44 1662.72 1608.06 1662.7 1608.03 1662.68 1607.99 1662.66 1607.95L1659.03 1601.79C1658.81 1601.44 1658.91 1600.98 1659.25 1600.74Z" fill="#A3A3A3"/><path d="M1663.7 1547.61 1663.7 1581.38 1634.44 1598.38 1634.44 1564.55 1663.7 1547.61Z" fill="#32BEDD"/><path d="M1663.7 1547.61 1634.5 1564.61 1605.24 1547.61 1634.5 1530.62 1663.7 1547.61Z" fill="#9CEBFF"/><path d="M1634.44 1564.61 1634.44 1598.38 1605.24 1581.38 1605.24 1547.61 1634.44 1564.61Z" fill="#50E6FF"/><path d="M1605.24 1581.38 1634.44 1564.55 1634.44 1598.38 1605.24 1581.38Z" fill="#9CEBFF"/><path d="M1663.7 1581.38 1634.44 1564.55 1634.44 1598.38 1663.7 1581.38Z" fill="#50E6FF"/></g></g></g><text font-family="Segoe UI,Segoe UI_MSFontService,sans-serif" font-weight="400" font-size="37" transform="matrix(1 0 0 1 1489.61 1659)">Resource Manager</text><text font-family="Segoe UI,Segoe UI_MSFontService,sans-serif" font-weight="400" font-size="28" transform="matrix(1 0 0 1 1556.92 1694)">Local Registry</text><g filter="url(#fx16)" transform="translate(1563 1146)"><g><path d="M22 67.8749C22 42.4698 42.5949 21.8749 68.0001 21.8749 93.4052 21.8749 114 42.4698 114 67.8749 114 93.2801 93.4052 113.875 68.0001 113.875 42.5949 113.875 22 93.2801 22 67.8749Z" fill="#FF0000" fill-rule="evenodd"/></g></g><g clip-path="url(#clip51)" filter="url(#fx17)" transform="translate(1554 1134)"><g><path d="M17.0937 0.5625C14.4479 0.5625 12.0573 0.0989583 9.92187-0.828125 7.78646-1.75521 6.09375-3.08854 4.84375-4.82812 3.59375-6.56771 2.96875-8.66667 2.96875-11.125L8.3125-11.125C8.3125-8.89583 9.13021-7.13542 10.7656-5.84375 12.401-4.55208 14.5104-3.90625 17.0937-3.90625 19.8229-3.90625 21.9479-4.6875 23.4687-6.25 24.9896-7.8125 25.75-10.125 25.75-13.1875 25.75-16.2083 24.9844-18.4427 23.4531-19.8906 21.9219-21.3385 19.8542-22.0625 17.25-22.0625 15.3125-22.0625 13.7135-21.7865 12.4531-21.2344 11.1927-20.6823 10.1458-19.9167 9.3125-18.9375L4.59375-18.9375 6.375-40.7812 28.375-40.7812 28.375-36.125 10.5625-36.125 9.46875-23.2187C10.2396-24.0937 11.3073-24.8542 12.6719-25.5 14.0365-26.1458 15.8021-26.4687 17.9687-26.4687 20.3854-26.4687 22.5937-26 24.5937-25.0625 26.5937-24.125 28.1927-22.6771 29.3906-20.7187 30.5885-18.7604 31.1875-16.25 31.1875-13.1875 31.1875-10.2083 30.5833-7.69792 29.375-5.65625 28.1667-3.61458 26.5052-2.06771 24.3906-1.01562 22.276 0.0364583 19.8437 0.5625 17.0937 0.5625Z" fill="#FFFFFF" transform="matrix(1 0 0 1 60.1879 100)"/></g></g><path d="M1585 1207C1585 1181.59 1605.59 1161 1631 1161 1656.41 1161 1677 1181.59 1677 1207 1677 1232.41 1656.41 1253 1631 1253 1605.59 1253 1585 1232.41 1585 1207Z" fill="url(#fill52)" fill-rule="evenodd"/><text fill="#FFFFFF" font-family="Aptos,Aptos_MSFontService,sans-serif" font-weight="400" font-size="64" transform="matrix(1 0 0 1 1614.19 1227)">5</text><path d="M1632.15 1253 1632.15 1492.59 1629.85 1492.59 1629.85 1253ZM1644.75 1488.01 1631 1515.51 1617.25 1488.01Z"/><rect x="1425" y="1337" width="418" height="78" fill="#FFFFFF"/><text fill="#548235" font-family="Aptos,Aptos_MSFontService,sans-serif" font-style="italic" font-weight="400" font-size="37" transform="matrix(1 0 0 1 1529.41 1388)">Authorization</text><rect x="539.5" y="1357.5" width="546" height="177" stroke="#7F7F7F" stroke-width="4.58333" stroke-miterlimit="8" fill="#FFFFFF"/><text font-family="Segoe UI,Segoe UI_MSFontService,sans-serif" font-weight="400" font-size="41" transform="matrix(1 0 0 1 723.592 1413)">Workload</text><g><g><g><path d="M3740.69 794.521 3737.04 794.521 3737.04 918.519 3809.96 918.519 3809.96 794.521 3740.69 794.521ZM3806.31 914.873 3740.69 914.873 3740.69 798.167 3806.31 798.167Z"/><path d="M3815.43 776.292 3731.57 776.292C3729.56 776.298 3727.93 777.926 3727.93 779.937L3727.93 933.108C3727.93 935.119 3729.56 936.747 3731.57 936.754L3815.43 936.754C3817.44 936.746 3819.06 935.118 3819.07 933.108L3819.07 779.937C3819.07 777.927 3817.44 776.299 3815.43 776.292ZM3815.43 933.108 3731.57 933.108 3731.57 779.937 3815.43 779.937Z"/><path d="M3766.21 789.052 3782.61 789.052C3783.62 789.052 3784.44 788.236 3784.44 787.229 3784.44 786.222 3783.62 785.406 3782.61 785.406L3766.21 785.406C3765.2 785.406 3764.39 786.222 3764.39 787.229 3764.39 788.236 3765.2 789.052 3766.21 789.052Z"/></g></g></g><path d="M3510.12 1200 3510.12 1954.03 2740.92 1954.03 2740.92 1951.74 3508.97 1951.74 3507.83 1952.88 3507.83 1200ZM2745.5 1966.63 2718 1952.88 2745.5 1939.13Z"/><rect x="2771" y="868" width="424" height="78.0001" fill="#FFFFFF"/><text fill="#548235" font-family="Aptos,Aptos_MSFontService,sans-serif" font-style="italic" font-weight="400" font-size="37" transform="matrix(1 0 0 1 2804.43 919)">Execute command</text><rect x="2772" y="1194" width="342" height="78" fill="#FFFFFF"/><text fill="#548235" font-family="Aptos,Aptos_MSFontService,sans-serif" font-style="italic" font-weight="400" font-size="37" transform="matrix(1 0 0 1 2805.35 1245)">Receive Result</text><rect x="3194" y="1644" width="618" height="77.9996" fill="#FFFFFF"/><text fill="#548235" font-family="Aptos,Aptos_MSFontService,sans-serif" font-style="italic" font-weight="400" font-size="37" transform="matrix(1 0 0 1 3291.74 1695)">Provide consent (one time)</text><g filter="url(#fx18)" transform="translate(2390 1269)"><g><path d="M22 67.8749C22 42.4698 42.5948 21.8749 67.9999 21.8749 93.4049 21.8749 114 42.4698 114 67.8749 114 93.2801 93.4049 113.875 67.9999 113.875 42.5948 113.875 22 93.2801 22 67.8749Z" fill="#FF0000" fill-rule="evenodd"/></g></g><g clip-path="url(#clip53)" filter="url(#fx19)" transform="translate(2381 1257)"><g><path d="M17.375 0.5625C13.0417 0.5625 9.57292-0.541667 6.96875-2.75 4.36458-4.95833 3.0625-8.125 3.0625-12.25L8.28125-12.25C8.28125-9.70833 9.07812-7.68229 10.6719-6.17187 12.2656-4.66146 14.4792-3.90625 17.3125-3.90625 19.9375-3.90625 22.0052-4.54167 23.5156-5.8125 25.026-7.08333 25.7812-9.05208 25.7812-11.7187 25.7812-14.2812 24.9479-16.1667 23.2812-17.375 21.6146-18.5833 19.3333-19.1875 16.4375-19.1875L14.0312-19.1875 14.0312-23.625 16.5625-23.625C19.1667-23.625 21.1562-24.2708 22.5312-25.5625 23.9062-26.8542 24.5937-28.5729 24.5937-30.7187 24.5937-32.7604 23.9167-34.2865 22.5625-35.2969 21.2083-36.3073 19.4271-36.8125 17.2187-36.8125 14.7187-36.8125 12.7812-36.1458 11.4062-34.8125 10.0312-33.4792 9.34375-31.7292 9.34375-29.5625L4.125-29.5625C4.125-31.9792 4.67708-34.0677 5.78125-35.8281 6.88542-37.5885 8.41146-38.9479 10.3594-39.9062 12.3073-40.8646 14.5729-41.3437 17.1562-41.3437 19.4896-41.3437 21.6146-40.9531 23.5312-40.1719 25.4479-39.3906 26.974-38.2344 28.1094-36.7031 29.2448-35.1719 29.8125-33.2604 29.8125-30.9687 29.8125-28.5312 29.1354-26.526 27.7812-24.9531 26.4271-23.3802 24.6458-22.2812 22.4375-21.6562 24.9583-21.1979 27.0469-20.1146 28.7031-18.4062 30.3594-16.6979 31.1875-14.3958 31.1875-11.5 31.1875-8.91667 30.6094-6.72917 29.4531-4.9375 28.2969-3.14583 26.6823-1.78125 24.6094-0.84375 22.5365 0.0937499 20.125 0.5625 17.375 0.5625Z" fill="#FFFFFF" transform="matrix(1 0 0 1 60.0425 100)"/></g></g><path d="M2412 1330C2412 1304.59 2432.59 1284 2458 1284 2483.41 1284 2504 1304.59 2504 1330 2504 1355.41 2483.41 1376 2458 1376 2432.59 1376 2412 1355.41 2412 1330Z" fill="url(#fill54)" fill-rule="evenodd"/><text fill="#FFFFFF" font-family="Aptos,Aptos_MSFontService,sans-serif" font-weight="400" font-size="64" transform="matrix(1 0 0 1 2441.04 1350)">3</text></g></svg>