<svg width="4354" height="1741" xmlns="http://www.w3.org/2000/svg" xmlns:xlink="http://www.w3.org/1999/xlink" xml:space="preserve" overflow="hidden"><defs><filter id="fx0" x="-10%" y="-10%" width="120%" height="120%" filterUnits="userSpaceOnUse" primitiveUnits="userSpaceOnUse"><feComponentTransfer color-interpolation-filters="sRGB"><feFuncR type="discrete" tableValues="0 0"/><feFuncG type="discrete" tableValues="0 0"/><feFuncB type="discrete" tableValues="0 0"/><feFuncA type="linear" slope="0.101961" intercept="0"/></feComponentTransfer><feGaussianBlur stdDeviation="7.63538 7.63889"/></filter><clipPath id="clip1"><rect x="52" y="438" width="4354" height="1741"/></clipPath></defs><g clip-path="url(#clip1)" transform="translate(-52 -438)"><g filter="url(#fx0)" transform="matrix(7.00322 0 0 7 51 437)"><g transform="matrix(1 0 0 1 -8.88178e-16 -7.10543e-15)"><rect x="23.1322" y="23.1429" width="575.736" height="202.714" fill="#FFFFFF"/></g></g><rect x="213" y="599" width="4032" height="1419" fill="#FFFFFF"/><path d="M1062.5 677.5 1062.5 1639.29" stroke="#A6A6A6" stroke-width="20.625" stroke-miterlimit="8" fill="none" fill-rule="evenodd"/><rect x="3000.5" y="1848.5" width="577" height="113" stroke="#000000" stroke-width="4.58333" stroke-miterlimit="8" fill="#BDD7EE"/><text fill="#0D0D0D" font-family="Segoe UI,Segoe UI_MSFontService,sans-serif" font-weight="400" font-size="48" transform="matrix(1 0 0 1 3182.08 1923)">Use </text><text fill="#0D0D0D" font-family="Segoe UI,Segoe UI_MSFontService,sans-serif" font-weight="400" font-size="48" transform="matrix(1 0 0 1 3274.31 1923)">Cases</text><rect x="270.5" y="672.5" width="699" height="350" stroke="#000000" stroke-width="4.58333" stroke-miterlimit="8" fill="#BDD7EE"/><text fill="#0D0D0D" font-family="Segoe UI,Segoe UI_MSFontService,sans-serif" font-weight="400" font-size="64" transform="matrix(1 0 0 1 529.368 832)">In</text><text fill="#0D0D0D" font-family="Segoe UI,Segoe UI_MSFontService,sans-serif" font-weight="400" font-size="64" transform="matrix(1 0 0 1 582.649 832)">-</text><text fill="#0D0D0D" font-family="Segoe UI,Segoe UI_MSFontService,sans-serif" font-weight="400" font-size="64" transform="matrix(1 0 0 1 608.43 832)">Vehicle </text><text fill="#0D0D0D" font-family="Segoe UI,Segoe UI_MSFontService,sans-serif" font-weight="400" font-size="64" transform="matrix(1 0 0 1 494.695 909)">Applications</text><rect x="2900.5" y="677.5" width="823" height="350" stroke="#000000" stroke-width="4.58333" stroke-miterlimit="8" fill="#BDD7EE"/><text fill="#0D0D0D" font-family="Segoe UI,Segoe UI_MSFontService,sans-serif" font-weight="400" font-size="64" transform="matrix(1 0 0 1 3152 837)">Smart Mobility </text><text fill="#0D0D0D" font-family="Segoe UI,Segoe UI_MSFontService,sans-serif" font-weight="400" font-size="64" transform="matrix(1 0 0 1 3213.05 914)">E</text><text fill="#0D0D0D" font-family="Segoe UI,Segoe UI_MSFontService,sans-serif" font-weight="400" font-size="64" transform="matrix(1 0 0 1 3245.7 914)">cosystem</text><rect x="1155.5" y="677.5" width="846" height="350" stroke="#000000" stroke-width="4.58333" stroke-miterlimit="8" fill="#BDD7EE"/><text fill="#0D0D0D" font-family="Segoe UI,Segoe UI_MSFontService,sans-serif" font-weight="400" font-size="64" transform="matrix(1 0 0 1 1358.16 876)">Digital Engineering</text><rect x="2033.5" y="677.5" width="835" height="350" stroke="#000000" stroke-width="4.58333" stroke-miterlimit="8" fill="#BDD7EE"/><text fill="#0D0D0D" font-family="Segoe UI,Segoe UI_MSFontService,sans-serif" font-weight="400" font-size="64" transform="matrix(1 0 0 1 2284 837)">Digital Services</text><text fill="#0D0D0D" font-family="Segoe UI,Segoe UI_MSFontService,sans-serif" font-weight="400" font-size="64" transform="matrix(1 0 0 1 2256.32 914)">Connected Fleets</text><rect x="1173.5" y="1359.5" width="2549" height="264" stroke="#000000" stroke-width="4.58333" stroke-miterlimit="8" fill="#FFFFFF"/><text font-family="Segoe UI,Segoe UI_MSFontService,sans-serif" font-weight="400" font-size="64" transform="matrix(1 0 0 1 1371.24 1515)">M</text><text font-family="Segoe UI,Segoe UI_MSFontService,sans-serif" font-weight="400" font-size="64" transform="matrix(1 0 0 1 1429.11 1515)">essaging Services</text><rect x="270.5" y="1049.5" width="612" height="264" stroke="#000000" stroke-width="4.58333" stroke-miterlimit="8" fill="#FFFFFF"/><text font-family="Segoe UI,Segoe UI_MSFontService,sans-serif" font-weight="400" font-size="64" transform="matrix(1 0 0 1 410.62 1166)">Automotive </text><text font-family="Segoe UI,Segoe UI_MSFontService,sans-serif" font-weight="400" font-size="64" transform="matrix(1 0 0 1 368.66 1243)">Software Stack</text><rect x="270.5" y="1359.5" width="612" height="264" stroke="#7F7F7F" stroke-width="4.58333" stroke-miterlimit="8" fill="#D9D9D9"/><text fill="#595959" font-family="Segoe UI,Segoe UI_MSFontService,sans-serif" font-weight="400" font-size="64" transform="matrix(1 0 0 1 321.223 1476)">Electromechanical </text><text fill="#595959" font-family="Segoe UI,Segoe UI_MSFontService,sans-serif" font-weight="400" font-size="64" transform="matrix(1 0 0 1 399.3 1553)">components</text><rect x="1854.5" y="1049.5" width="1868" height="264" stroke="#000000" stroke-width="4.58333" stroke-miterlimit="8" fill="#FFFFFF"/><text font-family="Segoe UI,Segoe UI_MSFontService,sans-serif" font-weight="400" font-size="64" transform="matrix(1 0 0 1 2052.38 1205)">Data and Analytics Services</text><rect x="915.5" y="1049.5" width="906" height="264" stroke="#000000" stroke-width="4.58333" stroke-miterlimit="8" fill="#FFFFFF"/><text font-family="Segoe UI,Segoe UI_MSFontService,sans-serif" font-weight="400" font-size="64" transform="matrix(1 0 0 1 1113.36 1166)">Automotive </text><text font-family="Segoe UI,Segoe UI_MSFontService,sans-serif" font-weight="400" font-size="64" transform="matrix(1 0 0 1 1113.36 1243)">Development Toolchain</text><g><g><g><path d="M380 1840.12C380 1855.31 367.688 1867.62 352.5 1867.62 337.312 1867.62 325 1855.31 325 1840.12 325 1824.94 337.312 1812.62 352.5 1812.62 367.688 1812.62 380 1824.94 380 1840.12Z" fill="#D9D9D9"/><path d="M545 1840.12C545 1855.31 532.688 1867.62 517.5 1867.62 502.312 1867.62 490 1855.31 490 1840.12 490 1824.94 502.312 1812.62 517.5 1812.62 532.688 1812.62 545 1824.94 545 1840.12Z" fill="#D9D9D9"/><path d="M404.062 1771.38 404.062 1730.12 451.156 1730.12C454.937 1730.12 458.375 1731.5 460.781 1734.25L497.906 1771.38 404.062 1771.38ZM390.312 1771.38 303.344 1771.38 340.469 1734.25C343.219 1731.5 346.656 1730.12 350.094 1730.12L390.312 1730.12 390.312 1771.38ZM551.875 1771.38 523.344 1771.38C519.562 1771.38 516.125 1770 513.719 1767.25L470.406 1724.28C465.25 1719.12 458.375 1716.38 450.812 1716.38L350.094 1716.38C342.875 1716.38 335.656 1719.12 330.5 1724.28L287.875 1767.25C285.125 1770 283.75 1773.44 283.75 1777.22L283.75 1812.62C283.75 1827.75 296.125 1840.12 311.25 1840.12L314.687 1840.12C314.687 1819.16 331.531 1802.31 352.5 1802.31 373.469 1802.31 390.312 1819.16 390.312 1840.12L479.687 1840.12C479.687 1819.16 496.531 1802.31 517.5 1802.31 538.469 1802.31 555.312 1819.16 555.312 1840.12L572.5 1840.12C580.062 1840.12 586.25 1833.94 586.25 1826.38L586.25 1805.75C586.25 1786.84 570.781 1771.38 551.875 1771.38Z" fill="#D9D9D9"/></g></g></g><g><g><g><path d="M1412.81 1789.66C1411.78 1789.66 1410.41 1789.66 1409.38 1789.66 1409.38 1789.66 1409.38 1789.66 1409.38 1789.66 1409.38 1772.81 1401.12 1757.34 1387.72 1747.72 1373.97 1738.09 1356.44 1735.69 1340.62 1741.19 1327.56 1715.75 1298.69 1702.69 1271.19 1709.22 1243.69 1715.75 1223.75 1740.5 1223.75 1769.03 1223.75 1769.03 1223.75 1769.37 1223.75 1769.72 1204.84 1766.62 1185.94 1774.53 1174.25 1789.66 1162.91 1805.12 1160.84 1825.41 1168.75 1842.59 1177 1859.78 1194.19 1871.12 1213.09 1872.16L1213.09 1872.5 1412.47 1872.5C1435.16 1872.5 1453.72 1853.94 1453.72 1831.25 1453.72 1808.56 1435.5 1789.66 1412.81 1789.66Z" fill="#D9D9D9"/></g></g></g><g><g><g><path d="M1228.78 1455.41C1231.91 1455.39 1234.63 1453.28 1235.41 1450.25L1244.25 1450.25C1247.1 1450.25 1249.41 1452.56 1249.41 1455.41L1249.41 1475.07C1250.17 1474.84 1250.94 1474.64 1251.73 1474.48 1252.05 1473.49 1252.42 1472.52 1252.84 1471.57L1252.84 1455.41C1252.84 1450.66 1248.99 1446.82 1244.25 1446.81L1235.41 1446.81C1234.45 1443.14 1230.71 1440.95 1227.04 1441.9 1223.37 1442.86 1221.17 1446.61 1222.13 1450.27 1222.92 1453.3 1225.65 1455.41 1228.78 1455.41Z"/><path d="M1234.57 1508.69 1221.91 1508.69C1219.06 1508.69 1216.75 1506.38 1216.75 1503.53L1216.75 1492.97C1220.43 1492.03 1222.64 1488.28 1221.69 1484.6 1220.74 1480.92 1216.99 1478.71 1213.31 1479.66 1209.64 1480.61 1207.43 1484.36 1208.37 1488.04 1209 1490.46 1210.89 1492.35 1213.31 1492.97L1213.31 1503.53C1213.32 1508.28 1217.16 1512.12 1221.91 1512.12L1236.62 1512.12C1235.84 1511.04 1235.16 1509.89 1234.57 1508.69Z"/><path d="M1280.34 1434.54 1280.34 1455.53C1281.5 1455.61 1282.65 1455.77 1283.78 1456L1283.78 1434.54C1287.46 1433.59 1289.67 1429.84 1288.72 1426.16 1287.77 1422.49 1284.02 1420.27 1280.34 1421.22 1276.67 1422.17 1274.46 1425.92 1275.41 1429.6 1276.03 1432.02 1277.92 1433.91 1280.34 1434.54Z"/><path d="M1313 1465.72C1313 1462.87 1315.31 1460.56 1318.16 1460.56L1328.47 1460.56C1333.21 1460.56 1337.06 1456.71 1337.06 1451.97L1337.06 1448.29C1340.74 1447.34 1342.95 1443.59 1342 1439.91 1341.05 1436.24 1337.3 1434.02 1333.63 1434.97 1329.95 1435.92 1327.74 1439.67 1328.69 1443.35 1329.31 1445.77 1331.2 1447.66 1333.63 1448.29L1333.63 1451.97C1333.63 1454.82 1331.32 1457.12 1328.47 1457.12L1318.16 1457.12C1313.41 1457.13 1309.57 1460.97 1309.56 1465.72L1309.56 1466.54C1310.75 1467.04 1311.9 1467.62 1313 1468.3Z"/><path d="M1292.38 1546.74 1292.38 1522.44 1288.94 1522.44 1288.94 1546.74C1285.26 1547.69 1283.05 1551.44 1284 1555.12 1284.95 1558.8 1288.7 1561.01 1292.38 1560.06 1296.05 1559.11 1298.26 1555.36 1297.31 1551.68 1296.69 1549.26 1294.8 1547.37 1292.38 1546.74Z"/><path d="M1263.16 1524.16C1263.16 1527 1260.85 1529.31 1258 1529.31L1247.69 1529.31C1242.94 1529.32 1239.1 1533.16 1239.09 1537.91L1239.09 1541.59C1235.42 1542.54 1233.21 1546.29 1234.16 1549.96 1235.11 1553.64 1238.85 1555.85 1242.53 1554.9 1246.21 1553.95 1248.42 1550.2 1247.47 1546.53 1246.84 1544.1 1244.95 1542.21 1242.53 1541.59L1242.53 1537.91C1242.53 1535.06 1244.84 1532.75 1247.69 1532.75L1258 1532.75C1262.74 1532.74 1266.59 1528.9 1266.59 1524.16L1266.59 1522.44 1263.16 1522.44Z"/><path d="M1355.97 1484.62C1352.84 1484.64 1350.12 1486.76 1349.34 1489.78L1334.74 1489.78C1335.47 1490.87 1336.09 1492.02 1336.6 1493.22L1349.34 1493.22C1350.29 1496.89 1354.04 1499.08 1357.71 1498.13 1361.38 1497.17 1363.57 1493.43 1362.62 1489.76 1361.83 1486.73 1359.1 1484.62 1355.97 1484.62Z"/><path d="M1340.5 1531.03C1337.37 1531.04 1334.65 1533.16 1333.87 1536.19L1325.03 1536.19C1322.18 1536.19 1319.88 1533.88 1319.88 1531.03L1319.88 1522.22C1318.93 1522.36 1317.98 1522.43 1317.02 1522.44L1316.44 1522.44 1316.44 1531.03C1316.44 1535.78 1320.29 1539.62 1325.03 1539.62L1333.87 1539.62C1334.83 1543.29 1338.57 1545.49 1342.24 1544.54 1345.91 1543.58 1348.11 1539.83 1347.15 1536.16 1346.36 1533.14 1343.63 1531.03 1340.5 1531.03Z"/><path d="M1241.17 1486.76C1236.86 1492.4 1236.09 1499.98 1239.17 1506.37 1242.26 1512.77 1248.63 1516.95 1255.74 1517.23L1255.85 1517.23 1260.9 1517.28 1317.02 1517.28C1325.81 1517.37 1333.01 1510.32 1333.1 1501.53 1333.19 1493.42 1327.16 1486.54 1319.11 1485.56 1318.21 1480.59 1315.39 1476.19 1311.25 1473.3 1308 1471.03 1304.12 1469.81 1300.15 1469.82 1298.92 1469.82 1297.7 1469.93 1296.49 1470.16 1292.29 1464.12 1285.38 1460.53 1278.02 1460.56 1276.27 1460.56 1274.52 1460.77 1272.81 1461.17 1264.05 1463.19 1257.38 1470.29 1255.9 1479.16 1250.1 1479.37 1244.7 1482.15 1241.17 1486.76ZM1256.56 1482.58C1257.39 1482.58 1258.21 1482.65 1259.03 1482.78 1259.03 1482.78 1259.04 1482.77 1259.04 1482.77 1259.04 1482.76 1259.05 1482.76 1259.05 1482.76 1259.05 1482.67 1259.05 1482.34 1259.05 1482.22 1259.32 1473.7 1265.29 1466.44 1273.59 1464.52 1282.05 1462.51 1290.8 1466.47 1294.87 1474.14 1294.88 1474.15 1294.89 1474.15 1294.89 1474.14 1299.73 1472.46 1305.07 1473.2 1309.28 1476.12 1313.37 1478.96 1315.86 1483.59 1315.96 1488.58 1315.96 1488.63 1315.96 1488.84 1315.96 1488.9 1315.96 1488.91 1315.96 1488.92 1315.98 1488.92 1316.32 1488.88 1316.67 1488.86 1317.01 1488.87 1323.91 1488.79 1329.57 1494.31 1329.65 1501.21 1329.73 1508.1 1324.2 1513.76 1317.31 1513.84 1317.21 1513.84 1317.11 1513.84 1317.01 1513.84L1260.94 1513.84 1255.88 1513.79C1250.05 1513.56 1244.82 1510.13 1242.27 1504.88 1239.76 1499.65 1240.39 1493.45 1243.91 1488.84 1246.92 1484.89 1251.6 1482.58 1256.56 1482.58Z"/></g></g></g><g><g><g><path d="M2014.79 1220.66 1990.63 1196.46C1986.93 1192.75 1980.69 1192.86 1976.06 1196.46L1968.9 1189.3C1987.58 1169.12 1986.37 1137.62 1966.19 1118.94 1946.01 1100.26 1914.51 1101.47 1895.83 1121.65 1877.15 1141.83 1878.36 1173.33 1898.54 1192.01 1917.74 1209.79 1947.42 1209.67 1966.47 1191.75L1973.62 1198.9C1972.09 1200.82 1971.15 1203.15 1970.92 1205.6 1970.6 1208.48 1971.59 1211.36 1973.61 1213.43L1997.77 1237.63C1999.6 1239.43 2002.08 1240.42 2004.66 1240.38 2008.04 1240.32 2011.26 1238.93 2013.62 1236.51 2015.81 1234.38 2017.18 1231.54 2017.48 1228.5 2017.81 1225.61 2016.82 1222.74 2014.79 1220.66ZM1899.66 1122.5C1910.4 1111.73 1925.73 1106.92 1940.69 1109.61 1947.14 1110.72 1953.26 1113.23 1958.64 1116.96 1971.31 1125.61 1978.88 1139.97 1978.86 1155.31L1960.81 1155.31C1960.31 1155.31 1959.83 1155.53 1959.51 1155.91L1951.34 1165.44C1951.34 1165.45 1951.32 1165.45 1951.32 1165.45 1951.31 1165.45 1951.31 1165.44 1951.31 1165.44L1945.29 1142.84C1945.04 1141.92 1944.1 1141.38 1943.18 1141.62 1942.65 1141.76 1942.22 1142.15 1942.02 1142.67L1929.46 1175.15C1929.45 1175.16 1929.44 1175.16 1929.44 1175.16 1929.43 1175.16 1929.43 1175.16 1929.42 1175.15L1921.25 1130.94C1921.08 1130 1920.18 1129.39 1919.25 1129.56 1918.63 1129.67 1918.13 1130.11 1917.93 1130.71L1909.73 1155.31 1886.09 1155.31C1886.07 1143 1890.95 1131.2 1899.66 1122.5ZM1906.79 1194C1894.86 1186.06 1887.26 1173.05 1886.23 1158.75L1910.97 1158.75C1911.71 1158.75 1912.37 1158.28 1912.6 1157.57L1919.06 1138.18C1919.07 1138.17 1919.08 1138.17 1919.09 1138.17 1919.09 1138.17 1919.09 1138.18 1919.1 1138.18L1927.16 1181.79C1927.3 1182.55 1927.93 1183.12 1928.69 1183.19 1928.75 1183.19 1928.8 1183.19 1928.85 1183.19 1929.56 1183.19 1930.2 1182.76 1930.45 1182.09L1943.31 1148.86C1943.31 1148.85 1943.32 1148.85 1943.33 1148.85 1943.33 1148.85 1943.34 1148.86 1943.34 1148.86L1948.84 1169.49C1949.08 1170.41 1950.03 1170.95 1950.94 1170.71 1951.28 1170.62 1951.58 1170.43 1951.8 1170.16L1961.6 1158.75 1978.72 1158.75C1976.84 1184.3 1954.61 1203.5 1929.06 1201.62 1927.48 1201.51 1925.9 1201.31 1924.34 1201.03 1918.06 1199.96 1912.07 1197.57 1906.79 1194ZM2011.2 1234.07C2007.85 1237.41 2002.92 1237.92 2000.2 1235.2L1976.05 1211C1974.74 1209.64 1974.12 1207.76 1974.34 1205.89 1974.57 1203.66 1975.59 1201.58 1977.2 1200.02 1980.55 1196.67 1985.48 1196.17 1988.2 1198.89L2012.36 1223.09C2013.66 1224.45 2014.29 1226.32 2014.06 1228.2 2013.83 1230.43 2012.82 1232.51 2011.2 1234.07Z"/></g></g></g><g><g><g><path d="M1066.96 1180.03C1066.97 1173.52 1065.7 1167.08 1063.23 1161.06 1062.86 1160.18 1061.86 1159.77 1060.98 1160.13 1060.1 1160.49 1059.69 1161.49 1060.05 1162.37 1069.78 1186.1 1058.44 1213.22 1034.71 1222.96 1032.16 1224.01 1029.51 1224.83 1026.81 1225.4 1026.79 1225.4 1026.78 1225.4 1026.79 1225.38L1033.64 1213.26C1034.17 1212.47 1033.95 1211.4 1033.16 1210.88 1032.37 1210.35 1031.3 1210.57 1030.78 1211.36 1030.73 1211.43 1030.69 1211.5 1030.66 1211.58L1021.94 1226.98C1021.48 1227.81 1021.77 1228.86 1022.59 1229.33 1022.59 1229.33 1022.59 1229.33 1022.6 1229.33L1037.97 1238.02C1038.79 1238.5 1039.84 1238.22 1040.32 1237.4 1040.8 1236.58 1040.52 1235.53 1039.7 1235.05 1039.69 1235.04 1039.68 1235.04 1039.66 1235.03L1028.35 1228.63C1028.33 1228.62 1028.33 1228.61 1028.35 1228.6 1050.91 1223.3 1066.89 1203.2 1066.96 1180.03Z"/><path d="M1010.95 1226.02C1004.95 1225.21 999.163 1223.24 993.925 1220.2 975.035 1209.21 966.321 1186.57 972.97 1165.75 972.97 1165.73 972.99 1165.73 973.001 1165.75L980.039 1177.74C980.521 1178.56 981.574 1178.84 982.393 1178.35 983.211 1177.87 983.484 1176.82 983.002 1176L974.044 1160.74C973.563 1159.92 972.51 1159.64 971.692 1160.12 971.691 1160.12 971.691 1160.12 971.691 1160.12L956.456 1169.06C955.637 1169.54 955.363 1170.6 955.844 1171.41 956.325 1172.23 957.378 1172.51 958.197 1172.03L969.427 1165.43C969.448 1165.42 969.458 1165.43 969.451 1165.45 961.422 1191.81 976.276 1219.68 1002.63 1227.71 1005.2 1228.49 1007.83 1229.07 1010.49 1229.43 1010.57 1229.44 1010.65 1229.44 1010.73 1229.44 1011.67 1229.45 1012.45 1228.68 1012.45 1227.73 1012.46 1226.86 1011.81 1226.13 1010.95 1226.02Z"/><path d="M1051.5 1148.87C1051.51 1148.88 1051.51 1148.9 1051.49 1148.9L1037.67 1148.97C1036.72 1148.97 1035.95 1149.74 1035.95 1150.69 1035.95 1151.64 1036.73 1152.41 1037.68 1152.4L1037.68 1152.4 1055.38 1152.32C1056.33 1152.32 1057.1 1151.55 1057.1 1150.6L1057 1132.92C1057.04 1132.01 1056.33 1131.24 1055.42 1131.21 1055.37 1131.2 1055.33 1131.2 1055.29 1131.21 1054.34 1131.21 1053.57 1131.98 1053.57 1132.92 1053.57 1132.93 1053.57 1132.93 1053.57 1132.93L1053.63 1146.01C1053.63 1146.04 1053.62 1146.04 1053.6 1146.03 1037.74 1129.11 1012.33 1125.3 992.204 1136.83 986.565 1140.08 981.619 1144.4 977.65 1149.55 977.074 1150.31 977.219 1151.39 977.974 1151.96 978.723 1152.53 979.793 1152.39 980.372 1151.65 984.068 1146.85 988.673 1142.83 993.923 1139.82 1012.86 1128.96 1036.8 1132.73 1051.5 1148.87Z"/></g></g></g><g><g><g><path d="M1286.44 870.999 1286.44 867.562 1274.41 867.562 1274.41 886.468 1270.97 886.468 1270.97 889.906 1303.63 889.906 1303.63 831.468 1289.12 831.468 1285.68 834.906 1300.19 834.906 1300.19 852.093 1272.69 852.093 1272.69 855.531 1300.19 855.531 1300.19 867.562 1295.03 867.562 1295.03 870.999 1300.19 870.999 1300.19 886.468 1277.85 886.468 1277.85 870.999 1286.44 870.999Z"/><path d="M1309.75 810.843 1306.31 814.281 1319.09 814.281 1319.09 905.375 1208.9 905.375C1210.79 903.529 1212.02 901.112 1212.39 898.5L1212.53 896.781 1212.53 814.281 1270.07 814.281 1273.51 810.843 1212.53 810.843 1212.53 805.687C1212.53 799.042 1207.14 793.656 1200.5 793.656 1193.86 793.656 1188.47 799.042 1188.47 805.687L1188.47 896.781 1188.61 898.5C1189.43 904.12 1194.07 908.4 1199.74 908.766L1322.53 908.812 1322.53 810.843ZM1191.91 805.687C1191.91 800.941 1195.75 797.093 1200.5 797.093 1205.25 797.093 1209.09 800.941 1209.09 805.687L1209.09 888.376C1204.47 883.63 1196.88 883.529 1192.13 888.151 1192.06 888.225 1191.98 888.3 1191.91 888.376ZM1191.91 896.781C1191.91 892.035 1195.75 888.187 1200.5 888.187 1205.25 888.187 1209.09 892.035 1209.09 896.781 1209.09 901.527 1205.25 905.375 1200.5 905.375 1195.76 905.369 1191.91 901.525 1191.91 896.781Z"/><path d="M1249.48 834.906 1252.91 831.468 1228 831.468 1228 889.906 1260.66 889.906 1260.66 886.468 1257.22 886.468 1257.22 867.562 1245.19 867.562 1245.19 870.999 1253.78 870.999 1253.78 886.468 1231.44 886.468 1231.44 870.999 1236.6 870.999 1236.6 867.562 1231.44 867.562 1231.44 855.656 1242.01 855.656 1243.15 852.219 1231.44 852.219 1231.44 834.906 1249.48 834.906Z"/><path d="M1247.77 854.677 1263.96 849.336 1314.56 798.563C1315.9 797.392 1316.03 795.364 1314.86 794.032 1314.79 793.956 1314.72 793.884 1314.65 793.816L1308.63 787.8C1307.33 786.466 1305.19 786.443 1303.85 787.749 1303.84 787.766 1303.82 787.783 1303.8 787.8L1253.11 838.572ZM1306.22 790.244 1312.12 796.148 1306.83 801.433 1300.93 795.529ZM1297.92 798.535 1298.5 797.959 1304.47 803.922 1303.87 804.561 1266.7 841.734C1266.04 838.759 1263.71 836.442 1260.72 835.808ZM1256.12 840.425 1256.82 839.72C1257.51 839.299 1258.31 839.074 1259.12 839.07 1260.27 839.07 1261.37 839.532 1262.18 840.352 1263.64 841.773 1263.87 844.043 1262.71 845.724L1262.11 846.329 1254.93 848.697 1253.76 847.53Z"/></g></g></g><g><g><g><path d="M2082.25 836.759C2090.79 836.759 2097.72 829.833 2097.72 821.29 2097.72 812.747 2090.79 805.821 2082.25 805.821 2073.71 805.821 2066.78 812.747 2066.78 821.29 2066.78 829.833 2073.71 836.759 2082.25 836.759ZM2082.25 809.25C2088.89 809.25 2094.28 814.636 2094.28 821.281 2094.28 827.926 2088.89 833.312 2082.25 833.312 2075.61 833.312 2070.22 827.926 2070.22 821.281 2070.23 814.64 2075.61 809.259 2082.25 809.25Z"/><path d="M2164.75 836.759C2173.29 836.759 2180.22 829.833 2180.22 821.29 2180.22 812.747 2173.29 805.821 2164.75 805.821 2156.21 805.821 2149.28 812.747 2149.28 821.29 2149.28 829.833 2156.21 836.759 2164.75 836.759ZM2164.75 809.25C2171.39 809.25 2176.78 814.636 2176.78 821.281 2176.78 827.926 2171.39 833.312 2164.75 833.312 2158.11 833.312 2152.72 827.926 2152.72 821.281 2152.73 814.64 2158.11 809.259 2164.75 809.25Z"/><path d="M2192.08 849.622C2187.7 846.205 2182.63 843.783 2177.22 842.521 2173.17 841.312 2168.97 840.637 2164.75 840.514 2160.53 840.518 2156.33 841.193 2152.32 842.513 2149.47 843.251 2146.71 844.303 2144.09 845.65 2144.05 847.063 2143.86 848.469 2143.53 849.843 2146.58 848.066 2149.86 846.71 2153.28 845.811 2156.99 844.595 2160.85 843.968 2164.75 843.951 2168.68 844.078 2172.58 844.714 2176.34 845.842 2181.29 846.98 2185.93 849.189 2189.94 852.313L2190.09 852.423C2191.5 853.442 2192.31 855.101 2192.25 856.842L2192.25 869.733 2195.69 869.733 2195.69 856.842C2195.75 853.987 2194.4 851.285 2192.08 849.622Z"/><path d="M2103.4 849.577C2103.09 848.219 2102.92 846.832 2102.89 845.438 2100.26 844.2 2097.53 843.221 2094.71 842.516 2090.66 841.309 2086.47 840.636 2082.25 840.514 2078.03 840.518 2073.83 841.193 2069.82 842.513 2064.44 843.98 2059.37 846.407 2054.86 849.678 2052.63 851.39 2051.33 854.036 2051.33 856.842L2051.33 869.733 2054.76 869.733 2054.76 856.842C2054.77 855.108 2055.57 853.472 2056.94 852.411 2061.13 849.398 2065.82 847.162 2070.79 845.811 2074.49 844.596 2078.36 843.968 2082.25 843.951 2086.18 844.078 2090.08 844.714 2093.84 845.842 2097.18 846.66 2100.39 847.916 2103.4 849.577Z"/><path d="M2150.83 873.359C2146.45 869.943 2141.38 867.52 2135.97 866.259 2131.92 865.05 2127.72 864.375 2123.5 864.25 2119.28 864.254 2115.08 864.929 2111.07 866.249 2105.7 867.715 2100.62 870.142 2096.11 873.414 2093.88 875.122 2092.57 877.769 2092.56 880.578L2092.56 893.469 2096 893.469 2096 880.578C2096 878.843 2096.81 877.208 2098.18 876.147 2102.36 873.133 2107.05 870.897 2112.03 869.547 2115.73 868.33 2119.6 867.703 2123.5 867.687 2127.43 867.813 2131.33 868.449 2135.09 869.578 2140.04 870.715 2144.68 872.923 2148.69 876.047L2148.84 876.157C2150.25 877.177 2151.06 878.836 2151 880.578L2151 893.469 2154.44 893.469 2154.44 880.578C2154.5 877.724 2153.15 875.022 2150.83 873.359Z"/><path d="M2123.5 860.494C2132.04 860.494 2138.97 853.569 2138.97 845.026 2138.97 836.482 2132.04 829.557 2123.5 829.557 2114.96 829.557 2108.03 836.482 2108.03 845.026 2108.03 853.569 2114.96 860.494 2123.5 860.494ZM2123.5 832.994C2130.14 832.994 2135.53 838.381 2135.53 845.026 2135.53 851.67 2130.14 857.057 2123.5 857.057 2116.86 857.057 2111.47 851.67 2111.47 845.026 2111.47 838.382 2116.86 832.995 2123.5 832.986Z"/></g></g></g><rect x="3619.5" y="1848.5" width="576" height="113" stroke="#000000" stroke-width="4.58333" stroke-miterlimit="8" fill="#FFFFFF"/><text fill="#0D0D0D" font-family="Segoe UI,Segoe UI_MSFontService,sans-serif" font-weight="400" font-size="48" transform="matrix(1 0 0 1 3817.91 1923)">Enablers</text><rect x="3755.5" y="672.5" width="440" height="951" stroke="#000000" stroke-width="4.58333" stroke-miterlimit="8" fill="#FFFFFF"/><text font-family="Segoe UI,Segoe UI_MSFontService,sans-serif" font-weight="400" font-size="64" transform="matrix(1 0 0 1 3949.82 1055)">IT </text><text font-family="Segoe UI,Segoe UI_MSFontService,sans-serif" font-weight="400" font-size="64" transform="matrix(1 0 0 1 3818.63 1132)">Operations  </text><text font-family="Segoe UI,Segoe UI_MSFontService,sans-serif" font-weight="400" font-size="64" transform="matrix(1 0 0 1 3858.43 1209)">&amp; Cyber </text><text font-family="Segoe UI,Segoe UI_MSFontService,sans-serif" font-weight="400" font-size="64" transform="matrix(1 0 0 1 3863.02 1286)">Security</text><g><g><g><path d="M4040.72 813.499C4036.53 801.057 4024.9 790.484 4011.53 789.205 4010.62 789.114 4009.72 789.071 4008.84 789.071 3993.35 789.071 3982.06 802.539 3975.52 815.474 3975.52 815.493 3975.49 815.493 3975.48 815.474 3969.16 802.964 3958.71 790.077 3943.63 789.126 3943.08 789.092 3942.53 789.075 3941.98 789.075 3929.21 789.075 3917.5 798.21 3911.97 809.443 3904.74 824.15 3910.63 840.688 3918.23 853.898 3926.39 867.484 3936.27 879.952 3947.64 890.989 3956.36 899.913 3965.67 908.246 3975.5 915.933L3976.05 915.5C3984.68 908.685 3992.92 901.382 4000.72 893.627 4012.03 882.855 4022.02 870.789 4030.51 857.678 4038.38 844.999 4045.9 828.54 4040.72 813.499ZM3997.94 890.836C3990.82 897.915 3983.33 904.616 3975.5 910.909 3966.7 903.861 3958.33 896.285 3950.44 888.223 3940.05 878.09 3930.89 866.76 3923.16 854.469L3946.86 854.469C3947.68 854.43 3948.41 853.909 3948.72 853.138L3957.52 827.434C3957.53 827.394 3957.55 827.396 3957.55 827.434L3968.74 885.65C3968.91 886.517 3969.63 887.166 3970.51 887.239 3970.57 887.242 3970.63 887.242 3970.68 887.239 3971.5 887.238 3972.23 886.734 3972.52 885.971L3989.9 840.424C3989.91 840.394 3989.93 840.394 3989.94 840.424L3998.03 868.295C3998.34 869.339 3999.43 869.936 4000.47 869.629 4000.81 869.53 4001.12 869.341 4001.36 869.083L4015.04 854.469 4027.84 854.469 4027.86 854.506C4019.39 867.776 4009.34 879.975 3997.94 890.836ZM4030.14 850.531 4014.19 850.531C4013.65 850.562 4013.14 850.783 4012.75 851.155L4000.87 863.862C4000.85 863.875 4000.84 863.871 4000.83 863.862L3992.06 833.641C3991.75 832.597 3990.66 831.998 3989.62 832.303 3989.02 832.475 3988.55 832.915 3988.33 833.49L3971.33 878.047C3971.31 878.082 3971.3 878.082 3971.29 878.047L3960.01 819.348C3959.84 818.472 3959.11 817.82 3958.22 817.757 3957.32 817.67 3956.48 818.222 3956.21 819.082L3945.45 850.531 3920.87 850.531C3912.19 834.872 3910.37 821.634 3915.5 811.184 3920.85 800.314 3931.49 793.012 3941.98 793.012 3942.45 793.012 3942.92 793.028 3943.38 793.056 3957.36 793.93 3966.65 806.713 3971.99 817.281L3975.48 824.209C3975.48 824.229 3975.51 824.229 3975.52 824.209L3979.01 817.283C3982.7 809.985 3992.99 793.008 4008.84 793.008 4009.59 793.008 4010.37 793.048 4011.15 793.124 4022.44 794.205 4033.06 803.1 4037 814.781 4040.34 824.483 4038.07 836.236 4030.14 850.531Z"/></g></g></g><g><g><g><path d="M2976.94 829.875 2973.5 829.875 2973.5 835.031 2968.34 835.031 2968.34 838.469 2973.5 838.469 2973.5 843.625 2976.94 843.625 2976.94 838.469 2982.09 838.469 2982.09 835.031 2976.94 835.031 2976.94 829.875Z"/><path d="M3068.03 907.165C3068.03 907.165 3075.77 901.321 3075.77 896.508 3075.77 893.42 3070.97 889.988 3068.05 895.621 3068.04 895.635 3068.02 895.635 3068.02 895.621 3065.09 889.988 3060.3 893.42 3060.3 896.508 3060.3 901.321 3068.03 907.165 3068.03 907.165Z"/><path d="M3036.23 800.258C3036.23 797.17 3031.44 793.738 3028.51 799.371 3028.51 799.386 3028.49 799.386 3028.49 799.371 3025.56 793.738 3020.77 797.17 3020.77 800.258 3020.77 805.071 3028.5 810.915 3028.5 810.915 3028.5 810.915 3036.23 805.071 3036.23 800.258Z"/><path d="M3081.78 852.219C3090.37 852.26 3097.36 845.335 3097.4 836.75 3097.44 828.165 3090.52 821.173 3081.93 821.131 3073.35 821.09 3066.35 828.016 3066.31 836.6 3066.31 838 3066.49 839.394 3066.85 840.745L3048.75 847.987C3045.35 840.667 3038.27 835.749 3030.22 835.118L3030.22 817.742C3038.71 816.793 3044.82 809.141 3043.87 800.651 3042.92 792.16 3035.27 786.047 3026.78 786.996 3018.29 787.945 3012.18 795.598 3013.13 804.088 3013.93 811.27 3019.6 816.939 3026.78 817.742L3026.78 835.119C3018.74 835.749 3011.65 840.668 3008.25 847.987L2990.15 840.745C2992.33 832.508 2987.42 824.059 2979.19 821.873 2970.95 819.688 2962.5 824.594 2960.32 832.831 2958.13 841.068 2963.04 849.518 2971.27 851.703 2978.24 853.551 2985.56 850.332 2988.9 843.949L3007.04 851.206C3004.88 858.627 3006.74 866.64 3011.96 872.344L2998.12 886.183C2991.23 881.118 2981.54 882.6 2976.47 889.492 2971.41 896.385 2972.89 906.078 2979.78 911.143 2986.67 916.208 2996.37 914.726 3001.43 907.834 3005.72 902.002 3005.39 893.981 3000.65 888.515L3014.44 874.721C3022.63 881.385 3034.37 881.385 3042.56 874.721L3056.35 888.515C3050.71 895.005 3051.41 904.834 3057.9 910.47 3064.39 916.105 3074.22 915.413 3079.85 908.923 3085.49 902.433 3084.8 892.604 3078.31 886.968 3072.81 882.196 3064.74 881.87 3058.88 886.183L3045.04 872.344C3050.26 866.64 3052.12 858.627 3049.96 851.206L3068.1 843.949C3070.77 849.03 3076.04 852.213 3081.78 852.219ZM2975.22 848.781C2968.57 848.781 2963.19 843.395 2963.19 836.75 2963.19 830.105 2968.57 824.719 2975.22 824.719 2981.86 824.719 2987.25 830.105 2987.25 836.75 2987.24 843.391 2981.86 848.773 2975.22 848.781ZM3016.47 802.375C3016.47 795.73 3021.86 790.344 3028.5 790.344 3035.14 790.344 3040.53 795.73 3040.53 802.375 3040.53 809.02 3035.14 814.406 3028.5 814.406 3021.86 814.398 3016.48 809.016 3016.47 802.375ZM2988.97 910.656C2982.32 910.656 2976.94 905.27 2976.94 898.625 2976.94 891.98 2982.32 886.594 2988.97 886.594 2995.61 886.594 3001 891.98 3001 898.625 3000.99 905.266 2995.61 910.648 2988.97 910.656ZM3018.06 873.001C3018.11 867.232 3022.83 862.602 3028.6 862.659 3034.25 862.714 3038.84 867.254 3038.94 872.904 3038.95 872.977 3038.95 873.05 3038.94 873.123 3032.62 877.332 3024.39 877.334 3018.06 873.129 3018.06 873.087 3018.05 873.044 3018.06 873.001ZM3024.14 854.863C3024.14 852.454 3026.09 850.501 3028.5 850.501 3030.91 850.502 3032.86 852.455 3032.86 854.865 3032.86 857.274 3030.91 859.226 3028.5 859.226 3026.09 859.223 3024.14 857.271 3024.14 854.863ZM3080.06 898.625C3080.06 905.27 3074.68 910.656 3068.03 910.656 3061.39 910.656 3056 905.27 3056 898.625 3056 891.98 3061.39 886.594 3068.03 886.594 3074.67 886.601 3080.05 891.984 3080.06 898.625ZM3042.12 870.453C3041.24 865.966 3038.21 862.198 3034.01 860.374 3037.06 857.329 3037.06 852.39 3034.02 849.344 3030.97 846.297 3026.03 846.296 3022.99 849.341 3019.94 852.387 3019.94 857.326 3022.98 860.372 3022.98 860.373 3022.99 860.374 3022.99 860.374 3018.79 862.198 3015.76 865.966 3014.88 870.453 3007.64 862.93 3007.87 850.961 3015.39 843.72 3022.91 836.479 3034.88 836.707 3042.12 844.229 3048.87 851.239 3049.19 862.225 3042.87 869.622 3042.63 869.906 3042.38 870.183 3042.12 870.453ZM3081.78 824.719C3088.43 824.719 3093.81 830.105 3093.81 836.75 3093.81 843.395 3088.43 848.781 3081.78 848.781 3075.14 848.781 3069.75 843.395 3069.75 836.75 3069.76 830.109 3075.14 824.726 3081.78 824.719Z"/><path d="M3085.91 843.387C3086.66 843.398 3087.27 842.8 3087.28 842.051 3087.28 842.038 3087.28 842.025 3087.28 842.012 3087.27 841.707 3087.16 841.413 3086.96 841.18 3086.96 841.173 3086.96 841.162 3086.97 841.156 3086.97 841.154 3086.97 841.153 3086.98 841.153L3087.11 841.153C3087.31 841.155 3087.5 841.114 3087.69 841.035 3088.18 840.808 3088.49 840.317 3088.48 839.778 3088.48 839.471 3088.36 839.177 3088.17 838.944 3088.16 838.938 3088.16 838.928 3088.17 838.922 3088.17 838.919 3088.17 838.917 3088.18 838.918 3088.43 838.9 3088.67 838.775 3088.83 838.574 3089.34 838.056 3089.34 837.228 3088.85 836.7 3088.84 836.694 3088.84 836.684 3088.84 836.678 3088.85 836.677 3088.85 836.675 3088.85 836.674 3089.35 836.486 3089.68 836.012 3089.69 835.479 3089.7 834.731 3089.1 834.115 3088.35 834.104 3088.34 834.104 3088.33 834.104 3088.31 834.104L3084.19 834.104C3083.82 834.08 3083.52 833.786 3083.5 833.417 3083.98 832.095 3084.21 830.697 3084.19 829.292L3084.19 829.271C3084.19 828.95 3084.06 828.642 3083.83 828.415 3083.42 827.871 3082.64 827.767 3082.09 828.183 3081.75 828.445 3081.57 828.864 3081.61 829.292 3081.61 832.558 3077.66 834.448 3077.66 834.448L3077.31 834.448 3077.31 841.667C3078.86 841.667 3079.03 843.386 3081.95 843.386Z"/><path d="M3076.28 841.668 3076.28 834.278C3076.31 833.83 3075.97 833.446 3075.52 833.418 3075.49 833.416 3075.45 833.416 3075.42 833.418L3073.88 833.418 3073.88 842.528 3075.42 842.528C3075.87 842.555 3076.25 842.214 3076.28 841.766 3076.28 841.734 3076.28 841.701 3076.28 841.668Z"/><path d="M2996.88 897.356C2996.89 896.607 2996.29 895.992 2995.54 895.981 2995.53 895.981 2995.51 895.981 2995.5 895.981L2991.38 895.981C2991.01 895.956 2990.71 895.662 2990.69 895.293 2991.17 893.972 2991.4 892.574 2991.38 891.168L2991.38 891.147C2991.37 890.826 2991.25 890.519 2991.02 890.292 2990.6 889.747 2989.82 889.643 2989.28 890.06 2988.94 890.321 2988.75 890.74 2988.8 891.168 2988.8 894.434 2984.84 896.325 2984.84 896.325L2984.5 896.325 2984.5 903.543C2986.05 903.543 2986.22 905.262 2989.14 905.262L2993.09 905.262C2993.84 905.273 2994.46 904.675 2994.47 903.926 2994.47 903.913 2994.47 903.9 2994.47 903.887 2994.46 903.582 2994.35 903.288 2994.15 903.055 2994.15 903.048 2994.15 903.037 2994.15 903.031 2994.16 903.029 2994.16 903.028 2994.16 903.028L2994.3 903.028C2995.05 903.039 2995.66 902.44 2995.67 901.691 2995.67 901.678 2995.67 901.666 2995.67 901.653 2995.67 901.346 2995.55 901.051 2995.35 900.819 2995.35 900.813 2995.35 900.803 2995.35 900.797 2995.36 900.794 2995.36 900.792 2995.36 900.793 2995.62 900.776 2995.86 900.651 2996.02 900.449 2996.52 899.931 2996.53 899.103 2996.03 898.576 2996.03 898.569 2996.03 898.559 2996.03 898.553 2996.03 898.552 2996.04 898.55 2996.04 898.549 2996.54 898.361 2996.87 897.888 2996.88 897.356Z"/><path d="M2982.61 895.294 2981.06 895.294 2981.06 904.403 2982.61 904.403C2983.06 904.43 2983.44 904.089 2983.47 903.641 2983.47 903.609 2983.47 903.576 2983.47 903.544L2983.47 896.153C2983.5 895.705 2983.16 895.321 2982.71 895.294 2982.67 895.292 2982.64 895.292 2982.61 895.294Z"/></g></g></g><rect x="3138.5" y="964.5" width="437" height="220" stroke="#000000" stroke-width="4.58333" stroke-miterlimit="8" fill="#FFFFFF"/><text font-family="Segoe UI,Segoe UI_MSFontService,sans-serif" font-weight="400" font-size="64" transform="matrix(1 0 0 1 3186.3 1098)">Datasharing</text><g><g><g><path d="M328.781 806.969 325.344 806.969 325.344 886.066 328.781 886.066 423.312 886.031 445.656 886.031 445.656 882.594 445.656 810.406 445.656 806.969 328.781 806.969ZM442.219 882.594 423.312 882.594 328.781 882.628 328.781 810.406 442.219 810.406Z"/><path d="M447.375 798.384 323.625 798.384C319.833 798.396 316.762 801.467 316.75 805.259L316.75 887.785C316.761 891.577 319.833 894.648 323.625 894.66L447.375 894.66C451.167 894.648 454.239 891.577 454.25 887.785L454.25 805.262C454.24 801.469 451.168 798.396 447.375 798.384ZM450.812 887.785C450.812 889.683 449.273 891.222 447.375 891.222L323.625 891.222C321.726 891.222 320.187 889.683 320.187 887.785L320.187 805.262C320.187 803.364 321.726 801.825 323.625 801.825L447.375 801.825C449.273 801.825 450.812 803.364 450.812 805.262Z"/></g></g></g></g></svg>