<svg width="3542" height="1579" xmlns="http://www.w3.org/2000/svg" xmlns:xlink="http://www.w3.org/1999/xlink" xml:space="preserve" overflow="hidden"><defs><filter id="fx0" x="-10%" y="-10%" width="120%" height="120%" filterUnits="userSpaceOnUse" primitiveUnits="userSpaceOnUse"><feComponentTransfer color-interpolation-filters="sRGB"><feFuncR type="discrete" tableValues="0 0"/><feFuncG type="discrete" tableValues="0 0"/><feFuncB type="discrete" tableValues="0 0"/><feFuncA type="linear" slope="0.631373" intercept="0"/></feComponentTransfer><feGaussianBlur stdDeviation="6.875 6.875"/></filter><filter id="fx1" x="-10%" y="-10%" width="120%" height="120%" filterUnits="userSpaceOnUse" primitiveUnits="userSpaceOnUse"><feComponentTransfer color-interpolation-filters="sRGB"><feFuncR type="discrete" tableValues="0 0"/><feFuncG type="discrete" tableValues="0 0"/><feFuncB type="discrete" tableValues="0 0"/><feFuncA type="linear" slope="0.631373" intercept="0"/></feComponentTransfer><feGaussianBlur stdDeviation="6.875 6.875"/></filter><filter id="fx2" x="-10%" y="-10%" width="120%" height="120%" filterUnits="userSpaceOnUse" primitiveUnits="userSpaceOnUse"><feComponentTransfer color-interpolation-filters="sRGB"><feFuncR type="discrete" tableValues="0 0"/><feFuncG type="discrete" tableValues="0 0"/><feFuncB type="discrete" tableValues="0 0"/><feFuncA type="linear" slope="0.631373" intercept="0"/></feComponentTransfer><feGaussianBlur stdDeviation="6.875 6.875"/></filter><filter id="fx3" x="-10%" y="-10%" width="120%" height="120%" filterUnits="userSpaceOnUse" primitiveUnits="userSpaceOnUse"><feComponentTransfer color-interpolation-filters="sRGB"><feFuncR type="discrete" tableValues="0 0"/><feFuncG type="discrete" tableValues="0 0"/><feFuncB type="discrete" tableValues="0 0"/><feFuncA type="linear" slope="0.631373" intercept="0"/></feComponentTransfer><feGaussianBlur stdDeviation="6.875 6.875"/></filter><filter id="fx4" x="-10%" y="-10%" width="120%" height="120%" filterUnits="userSpaceOnUse" primitiveUnits="userSpaceOnUse"><feComponentTransfer color-interpolation-filters="sRGB"><feFuncR type="discrete" tableValues="0 0"/><feFuncG type="discrete" tableValues="0 0"/><feFuncB type="discrete" tableValues="0 0"/><feFuncA type="linear" slope="0.631373" intercept="0"/></feComponentTransfer><feGaussianBlur stdDeviation="6.875 6.875"/></filter><filter id="fx5" x="-10%" y="-10%" width="120%" height="120%" filterUnits="userSpaceOnUse" primitiveUnits="userSpaceOnUse"><feComponentTransfer color-interpolation-filters="sRGB"><feFuncR type="discrete" tableValues="0 0"/><feFuncG type="discrete" tableValues="0 0"/><feFuncB type="discrete" tableValues="0 0"/><feFuncA type="linear" slope="0.631373" intercept="0"/></feComponentTransfer><feGaussianBlur stdDeviation="6.875 6.875"/></filter><filter id="fx6" x="-10%" y="-10%" width="120%" height="120%" filterUnits="userSpaceOnUse" primitiveUnits="userSpaceOnUse"><feComponentTransfer color-interpolation-filters="sRGB"><feFuncR type="discrete" tableValues="0 0"/><feFuncG type="discrete" tableValues="0 0"/><feFuncB type="discrete" tableValues="0 0"/><feFuncA type="linear" slope="0.631373" intercept="0"/></feComponentTransfer><feGaussianBlur stdDeviation="6.875 6.875"/></filter><filter id="fx7" x="-10%" y="-10%" width="120%" height="120%" filterUnits="userSpaceOnUse" primitiveUnits="userSpaceOnUse"><feComponentTransfer color-interpolation-filters="sRGB"><feFuncR type="discrete" tableValues="0 0"/><feFuncG type="discrete" tableValues="0 0"/><feFuncB type="discrete" tableValues="0 0"/><feFuncA type="linear" slope="0.631373" intercept="0"/></feComponentTransfer><feGaussianBlur stdDeviation="6.875 6.875"/></filter><filter id="fx8" x="-10%" y="-10%" width="120%" height="120%" filterUnits="userSpaceOnUse" primitiveUnits="userSpaceOnUse"><feComponentTransfer color-interpolation-filters="sRGB"><feFuncR type="discrete" tableValues="0 0"/><feFuncG type="discrete" tableValues="0 0"/><feFuncB type="discrete" tableValues="0 0"/><feFuncA type="linear" slope="0.631373" intercept="0"/></feComponentTransfer><feGaussianBlur stdDeviation="6.875 6.875"/></filter><filter id="fx9" x="-10%" y="-10%" width="120%" height="120%" filterUnits="userSpaceOnUse" primitiveUnits="userSpaceOnUse"><feComponentTransfer color-interpolation-filters="sRGB"><feFuncR type="discrete" tableValues="0 0"/><feFuncG type="discrete" tableValues="0 0"/><feFuncB type="discrete" tableValues="0 0"/><feFuncA type="linear" slope="0.631373" intercept="0"/></feComponentTransfer><feGaussianBlur stdDeviation="6.875 6.875"/></filter><filter id="fx10" x="-10%" y="-10%" width="120%" height="120%" filterUnits="userSpaceOnUse" primitiveUnits="userSpaceOnUse"><feComponentTransfer color-interpolation-filters="sRGB"><feFuncR type="discrete" tableValues="0 0"/><feFuncG type="discrete" tableValues="0 0"/><feFuncB type="discrete" tableValues="0 0"/><feFuncA type="linear" slope="0.631373" intercept="0"/></feComponentTransfer><feGaussianBlur stdDeviation="6.875 6.875"/></filter><filter id="fx11" x="-10%" y="-10%" width="120%" height="120%" filterUnits="userSpaceOnUse" primitiveUnits="userSpaceOnUse"><feComponentTransfer color-interpolation-filters="sRGB"><feFuncR type="discrete" tableValues="0 0"/><feFuncG type="discrete" tableValues="0 0"/><feFuncB type="discrete" tableValues="0 0"/><feFuncA type="linear" slope="0.631373" intercept="0"/></feComponentTransfer><feGaussianBlur stdDeviation="6.875 6.875"/></filter><filter id="fx12" x="-10%" y="-10%" width="120%" height="120%" filterUnits="userSpaceOnUse" primitiveUnits="userSpaceOnUse"><feComponentTransfer color-interpolation-filters="sRGB"><feFuncR type="discrete" tableValues="0 0"/><feFuncG type="discrete" tableValues="0 0"/><feFuncB type="discrete" tableValues="0 0"/><feFuncA type="linear" slope="0.631373" intercept="0"/></feComponentTransfer><feGaussianBlur stdDeviation="6.875 6.875"/></filter><filter id="fx13" x="-10%" y="-10%" width="120%" height="120%" filterUnits="userSpaceOnUse" primitiveUnits="userSpaceOnUse"><feComponentTransfer color-interpolation-filters="sRGB"><feFuncR type="discrete" tableValues="0 0"/><feFuncG type="discrete" tableValues="0 0"/><feFuncB type="discrete" tableValues="0 0"/><feFuncA type="linear" slope="0.631373" intercept="0"/></feComponentTransfer><feGaussianBlur stdDeviation="6.875 6.875"/></filter><filter id="fx14" x="-10%" y="-10%" width="120%" height="120%" filterUnits="userSpaceOnUse" primitiveUnits="userSpaceOnUse"><feComponentTransfer color-interpolation-filters="sRGB"><feFuncR type="discrete" tableValues="0 0"/><feFuncG type="discrete" tableValues="0 0"/><feFuncB type="discrete" tableValues="0 0"/><feFuncA type="linear" slope="0.631373" intercept="0"/></feComponentTransfer><feGaussianBlur stdDeviation="6.875 6.875"/></filter><filter id="fx15" x="-10%" y="-10%" width="120%" height="120%" filterUnits="userSpaceOnUse" primitiveUnits="userSpaceOnUse"><feComponentTransfer color-interpolation-filters="sRGB"><feFuncR type="discrete" tableValues="0 0"/><feFuncG type="discrete" tableValues="0 0"/><feFuncB type="discrete" tableValues="0 0"/><feFuncA type="linear" slope="0.631373" intercept="0"/></feComponentTransfer><feGaussianBlur stdDeviation="6.875 6.875"/></filter><filter id="fx16" x="-10%" y="-10%" width="120%" height="120%" filterUnits="userSpaceOnUse" primitiveUnits="userSpaceOnUse"><feComponentTransfer color-interpolation-filters="sRGB"><feFuncR type="discrete" tableValues="0 0"/><feFuncG type="discrete" tableValues="0 0"/><feFuncB type="discrete" tableValues="0 0"/><feFuncA type="linear" slope="0.631373" intercept="0"/></feComponentTransfer><feGaussianBlur stdDeviation="6.875 6.875"/></filter><filter id="fx17" x="-10%" y="-10%" width="120%" height="120%" filterUnits="userSpaceOnUse" primitiveUnits="userSpaceOnUse"><feComponentTransfer color-interpolation-filters="sRGB"><feFuncR type="discrete" tableValues="0 0"/><feFuncG type="discrete" tableValues="0 0"/><feFuncB type="discrete" tableValues="0 0"/><feFuncA type="linear" slope="0.631373" intercept="0"/></feComponentTransfer><feGaussianBlur stdDeviation="6.875 6.875"/></filter><clipPath id="clip18"><rect x="448" y="498" width="3542" height="1579"/></clipPath><clipPath id="clip19"><rect x="38" y="34" width="77" height="92"/></clipPath><linearGradient x1="879" y1="969" x2="879" y2="1061" gradientUnits="userSpaceOnUse" spreadMethod="reflect" id="fill20"><stop offset="0" stop-color="#81B861"/><stop offset="0.5" stop-color="#6FB242"/><stop offset="1" stop-color="#61A235"/></linearGradient><clipPath id="clip21"><rect x="38" y="34" width="77" height="92"/></clipPath><linearGradient x1="879" y1="1132" x2="879" y2="1224" gradientUnits="userSpaceOnUse" spreadMethod="reflect" id="fill22"><stop offset="0" stop-color="#81B861"/><stop offset="0.5" stop-color="#6FB242"/><stop offset="1" stop-color="#61A235"/></linearGradient><clipPath id="clip23"><rect x="38" y="34" width="81" height="92"/></clipPath><linearGradient x1="879" y1="1312" x2="879" y2="1404" gradientUnits="userSpaceOnUse" spreadMethod="reflect" id="fill24"><stop offset="0" stop-color="#81B861"/><stop offset="0.5" stop-color="#6FB242"/><stop offset="1" stop-color="#61A235"/></linearGradient><clipPath id="clip25"><rect x="41" y="34" width="67" height="92"/></clipPath><linearGradient x1="2274" y1="830" x2="2274" y2="922" gradientUnits="userSpaceOnUse" spreadMethod="reflect" id="fill26"><stop offset="0" stop-color="#81B861"/><stop offset="0.5" stop-color="#6FB242"/><stop offset="1" stop-color="#61A235"/></linearGradient><clipPath id="clip27"><rect x="38" y="34" width="77" height="92"/></clipPath><linearGradient x1="2761" y1="1243" x2="2761" y2="1335" gradientUnits="userSpaceOnUse" spreadMethod="reflect" id="fill28"><stop offset="0" stop-color="#81B861"/><stop offset="0.5" stop-color="#6FB242"/><stop offset="1" stop-color="#61A235"/></linearGradient><clipPath id="clip29"><rect x="38" y="34" width="114" height="92"/></clipPath><linearGradient x1="1354.53" y1="1491.79" x2="1354.53" y2="1503.32" gradientUnits="userSpaceOnUse" spreadMethod="pad" id="fill30"><stop offset="0" stop-color="#C69AEB"/><stop offset="1" stop-color="#6F4BB2"/></linearGradient><linearGradient x1="1349.77" y1="1515.03" x2="1349.77" y2="1526.53" gradientUnits="userSpaceOnUse" spreadMethod="pad" id="fill31"><stop offset="0" stop-color="#C69AEB"/><stop offset="1" stop-color="#6F4BB2"/></linearGradient><linearGradient x1="1299" y1="1228.58" x2="1299" y2="1143.42" gradientUnits="userSpaceOnUse" spreadMethod="pad" id="fill32"><stop offset="0" stop-color="#198AB3"/><stop offset="0.09" stop-color="#1F9DC4"/><stop offset="0.24" stop-color="#28B5D9"/><stop offset="0.4" stop-color="#2DC6E9"/><stop offset="0.57" stop-color="#31D1F2"/><stop offset="0.78" stop-color="#32D4F5"/><stop offset="1" stop-color="#32D4F5"/></linearGradient><linearGradient x1="1295.52" y1="1198.79" x2="1295.52" y2="1215.73" gradientUnits="userSpaceOnUse" spreadMethod="pad" id="fill33"><stop offset="0" stop-color="#C69AEB"/><stop offset="1" stop-color="#6F4BB2"/></linearGradient><clipPath id="clip34"><rect x="38" y="34" width="114" height="92"/></clipPath><clipPath id="clip35"><rect x="38" y="34" width="110" height="92"/></clipPath><linearGradient x1="2372" y1="1216" x2="2372" y2="1308" gradientUnits="userSpaceOnUse" spreadMethod="reflect" id="fill36"><stop offset="0" stop-color="#81B861"/><stop offset="0.5" stop-color="#6FB242"/><stop offset="1" stop-color="#61A235"/></linearGradient><clipPath id="clip37"><rect x="38" y="34" width="110" height="92"/></clipPath><linearGradient x1="2761" y1="1529" x2="2761" y2="1621" gradientUnits="userSpaceOnUse" spreadMethod="reflect" id="fill38"><stop offset="0" stop-color="#81B861"/><stop offset="0.5" stop-color="#6FB242"/><stop offset="1" stop-color="#61A235"/></linearGradient></defs><g clip-path="url(#clip18)" transform="translate(-448 -498)"><path d="M448 550.39C448 521.456 471.456 498 500.39 498L3937.61 498C3966.54 498 3990 521.456 3990 550.39L3990 2024.61C3990 2053.54 3966.54 2077 3937.61 2077L500.39 2077C471.456 2077 448 2053.54 448 2024.61Z" fill="#FFFFFF" fill-rule="evenodd"/><rect x="2427.5" y="1072.5" width="1138" height="905" stroke="#BFBFBF" stroke-width="4.58333" stroke-miterlimit="8" fill="#FFFFFF"/><text font-family="Segoe UI,Segoe UI_MSFontService,sans-serif" font-weight="400" font-size="55" transform="matrix(1 0 0 1 2731.02 1142)">Application Scale Unit</text><rect x="2402.5" y="1014.5" width="1116" height="905" stroke="#000000" stroke-width="4.58333" stroke-miterlimit="8" fill="#FFFFFF"/><text font-family="Segoe UI,Segoe UI_MSFontService,sans-serif" font-weight="400" font-size="55" transform="matrix(1 0 0 1 2695.62 1084)">Application Scale Unit</text><rect x="2762.5" y="1144.5" width="633" height="676" stroke="#BFBFBF" stroke-width="4.58333" stroke-miterlimit="8" fill="#FFFFFF"/><text font-family="Segoe UI,Segoe UI_MSFontService,sans-serif" font-weight="400" font-size="41" transform="matrix(1 0 0 1 2966.83 1200)">Applications</text><path d="M2951.5 1285.33C2951.5 1268.3 2965.3 1254.5 2982.33 1254.5L3190.67 1254.5C3207.7 1254.5 3221.5 1268.3 3221.5 1285.33L3221.5 1408.67C3221.5 1425.7 3207.7 1439.5 3190.67 1439.5L2982.33 1439.5C2965.3 1439.5 2951.5 1425.7 2951.5 1408.67Z" stroke="#000000" stroke-width="3.4375" stroke-linejoin="round" stroke-miterlimit="10" fill="#FFFFFF" fill-rule="evenodd"/><text font-family="Segoe UI,Segoe UI_MSFontService,sans-serif" font-weight="400" font-size="37" transform="matrix(1 0 0 1 3035.73 1361)">App A</text><path d="M2954.5 1556.17C2954.5 1537.57 2969.57 1522.5 2988.17 1522.5L3190.83 1522.5C3209.43 1522.5 3224.5 1537.57 3224.5 1556.17L3224.5 1690.83C3224.5 1709.43 3209.43 1724.5 3190.83 1724.5L2988.17 1724.5C2969.57 1724.5 2954.5 1709.43 2954.5 1690.83Z" stroke="#000000" stroke-width="3.4375" stroke-linejoin="round" stroke-miterlimit="10" fill="#FFFFFF" fill-rule="evenodd"/><text font-family="Segoe UI,Segoe UI_MSFontService,sans-serif" font-weight="400" font-size="37" transform="matrix(1 0 0 1 3040.02 1637)">App B</text><rect x="1711.5" y="617.5" width="1038" height="329" stroke="#BFBFBF" stroke-width="4.58333" stroke-miterlimit="8" fill="#FFFFFF"/><text font-family="Segoe UI,Segoe UI_MSFontService,sans-serif" font-weight="400" font-size="55" transform="matrix(1 0 0 1 2018.71 688)">Shared Scale Unit</text><rect x="1134.5" y="1072.5" width="996" height="905" stroke="#BFBFBF" stroke-width="4.58333" stroke-miterlimit="8" fill="#FFFFFF"/><text font-family="Segoe UI,Segoe UI_MSFontService,sans-serif" font-weight="400" font-size="55" transform="matrix(1 0 0 1 1419.21 1142)">Vehicle Scale Unit</text><rect x="1079.5" y="1017.5" width="996" height="905" stroke="#000000" stroke-width="4.58333" stroke-miterlimit="8" fill="#FFFFFF"/><text font-family="Segoe UI,Segoe UI_MSFontService,sans-serif" font-weight="400" font-size="55" transform="matrix(1 0 0 1 1225.56 1087)">Vehicle Messaging Scale Unit</text><text font-family="Segoe UI,Segoe UI_MSFontService,sans-serif" font-weight="400" font-size="37" transform="matrix(1 0 0 1 1217.18 1631)">Event Grid</text><text font-family="Segoe UI,Segoe UI_MSFontService,sans-serif" font-style="italic" font-weight="400" font-size="32" transform="matrix(1 0 0 1 1210.6 1670)">MQTT </text><text font-family="Segoe UI,Segoe UI_MSFontService,sans-serif" font-style="italic" font-weight="400" font-size="32" transform="matrix(1 0 0 1 1302.84 1670)">b</text><text font-family="Segoe UI,Segoe UI_MSFontService,sans-serif" font-style="italic" font-weight="400" font-size="32" transform="matrix(1 0 0 1 1320.03 1670)">roker</text><rect x="1656.5" y="562.5" width="1038" height="329" stroke="#000000" stroke-width="4.58333" stroke-miterlimit="8" fill="#FFFFFF"/><text font-family="Segoe UI,Segoe UI_MSFontService,sans-serif" font-weight="400" font-size="55" transform="matrix(1 0 0 1 1969.4 633)">Common Service</text><g><g><g><path d="M2521.56 1353.31C2521.6 1354.08 2521.01 1354.74 2520.25 1354.79L2508.75 1354.79C2507.98 1354.83 2507.32 1354.24 2507.26 1353.47L2507.26 1344.89C2507.23 1344.13 2507.82 1343.47 2508.58 1343.41L2520.08 1343.41C2520.85 1343.38 2521.51 1343.96 2521.56 1344.73L2521.56 1353.31Z" fill="#76BC2D"/><path d="M2541.97 1362C2542 1362.77 2541.42 1363.43 2540.65 1363.48L2529.16 1363.48C2528.39 1363.52 2527.73 1362.93 2527.67 1362.16L2527.67 1353.64C2527.64 1352.87 2528.22 1352.21 2528.99 1352.15L2540.49 1352.15C2541.25 1352.12 2541.91 1352.71 2541.97 1353.47L2541.97 1362Z" fill="#76BC2D"/><path d="M2521.56 1370.8C2521.6 1371.57 2521.01 1372.23 2520.25 1372.28L2508.75 1372.28C2507.98 1372.32 2507.32 1371.73 2507.26 1370.96L2507.26 1362.38C2507.23 1361.62 2507.82 1360.96 2508.58 1360.9L2520.08 1360.9C2520.85 1360.87 2521.51 1361.45 2521.56 1362.22L2521.56 1370.8Z" fill="#76BC2D"/><path d="M2501.16 1344.62C2501.19 1345.36 2500.63 1345.99 2499.9 1346.05L2488.07 1346.05C2487.32 1346.08 2486.67 1345.53 2486.58 1344.78L2486.58 1335.87C2486.61 1335.15 2487.18 1334.56 2487.91 1334.5L2499.4 1334.5C2500.61 1334.5 2501.16 1335.1 2501.16 1335.98Z" fill="#86D633"/><path d="M2501.16 1362C2501.22 1362.76 2500.66 1363.42 2499.9 1363.48 2499.9 1363.48 2499.9 1363.48 2499.9 1363.48L2488.07 1363.48C2487.28 1363.52 2486.62 1362.9 2486.58 1362.11 2486.58 1362.07 2486.58 1362.04 2486.58 1362L2486.58 1353.31C2486.58 1352.56 2487.16 1351.94 2487.91 1351.88L2499.4 1351.88C2500.61 1351.88 2501.16 1352.48 2501.16 1353.31Z" fill="#76BC2D"/><path d="M2501.16 1379.54C2501.22 1380.3 2500.66 1380.97 2499.9 1381.03 2499.9 1381.03 2499.9 1381.03 2499.9 1381.03L2488.07 1381.03C2487.3 1381.06 2486.64 1380.48 2486.58 1379.71L2486.58 1370.8C2486.55 1370.04 2487.14 1369.4 2487.9 1369.37 2487.9 1369.37 2487.9 1369.37 2487.91 1369.37L2499.4 1369.37C2500.61 1369.37 2501.16 1369.92 2501.16 1370.8Z" fill="#76BC2D"/><path d="M2467.89 1315.3 2474.98 1315.3 2474.98 1315.3 2474.98 1335.1C2474.98 1335.99 2474.27 1336.7 2473.39 1336.7L2466.34 1336.7C2465.46 1336.7 2464.75 1335.99 2464.75 1335.1L2464.75 1318.6C2464.66 1316.88 2465.99 1315.4 2467.72 1315.31 2467.77 1315.31 2467.83 1315.3 2467.89 1315.3Z" fill="#999999"/><path d="M2467.89 1315.3 2474.98 1315.3 2474.98 1315.3 2474.98 1335.1C2474.98 1335.99 2474.27 1336.7 2473.39 1336.7L2466.34 1336.7C2465.46 1336.7 2464.75 1335.99 2464.75 1335.1L2464.75 1318.6C2464.66 1316.88 2465.99 1315.4 2467.72 1315.31 2467.77 1315.31 2467.83 1315.3 2467.89 1315.3Z" fill="#999999" fill-opacity="0.5"/><path d="M2548.02 1315.3 2555.11 1315.3C2556.85 1315.3 2558.25 1316.71 2558.25 1318.44L2558.25 1334.94C2558.25 1335.82 2557.54 1336.53 2556.66 1336.53L2549.56 1336.53C2548.68 1336.53 2547.97 1335.82 2547.97 1334.94L2547.97 1315.3 2548.02 1315.3Z" fill="#999999"/><path d="M2548.02 1315.3 2555.11 1315.3C2556.85 1315.3 2558.25 1316.71 2558.25 1318.44L2558.25 1334.94C2558.25 1335.82 2557.54 1336.53 2556.66 1336.53L2549.56 1336.53C2548.68 1336.53 2547.97 1335.82 2547.97 1334.94L2547.97 1315.3 2548.02 1315.3Z" fill="#999999" fill-opacity="0.5"/><path d="M2558.25 1318.44 2558.25 1325.31 2558.25 1325.31 2464.75 1325.31 2464.75 1325.31 2464.75 1318.44C2464.75 1316.71 2466.15 1315.3 2467.88 1315.3L2555.17 1315.3C2556.88 1315.33 2558.25 1316.73 2558.25 1318.44Z" fill="#949494"/><path d="M2466.34 1377.18 2473.44 1377.18C2474.32 1377.18 2475.03 1377.89 2475.03 1378.77L2475.03 1398.57 2475.03 1398.57 2467.89 1398.57C2466.15 1398.57 2464.75 1397.17 2464.75 1395.44L2464.75 1378.5C2464.89 1377.73 2465.56 1377.17 2466.34 1377.18Z" fill="#999999"/><path d="M2466.34 1377.18 2473.44 1377.18C2474.32 1377.18 2475.03 1377.89 2475.03 1378.77L2475.03 1398.57 2475.03 1398.57 2467.89 1398.57C2466.15 1398.57 2464.75 1397.17 2464.75 1395.44L2464.75 1378.5C2464.89 1377.73 2465.56 1377.17 2466.34 1377.18Z" fill="#999999" fill-opacity="0.5"/><path d="M2549.56 1377.18 2556.66 1377.18C2557.54 1377.18 2558.25 1377.89 2558.25 1378.77L2558.25 1395.27C2558.25 1397.01 2556.85 1398.41 2555.11 1398.41L2548.02 1398.41 2548.02 1398.41 2548.02 1378.5C2548.15 1377.75 2548.8 1377.19 2549.56 1377.18Z" fill="#999999"/><path d="M2549.56 1377.18 2556.66 1377.18C2557.54 1377.18 2558.25 1377.89 2558.25 1378.77L2558.25 1395.27C2558.25 1397.01 2556.85 1398.41 2555.11 1398.41L2548.02 1398.41 2548.02 1398.41 2548.02 1378.5C2548.15 1377.75 2548.8 1377.19 2549.56 1377.18Z" fill="#999999" fill-opacity="0.5"/><path d="M2464.75 1395.44 2464.75 1388.56 2464.75 1388.56 2558.25 1388.56 2558.25 1388.56 2558.25 1395.44C2558.25 1397.17 2556.85 1398.57 2555.11 1398.57L2467.89 1398.57C2466.15 1398.57 2464.75 1397.17 2464.75 1395.44Z" fill="#949494"/></g></g></g><text font-family="Segoe UI,Segoe UI_MSFontService,sans-serif" font-weight="400" font-size="37" transform="matrix(1 0 0 1 2453.8 1452)">Ingress </text><text font-family="Segoe UI,Segoe UI_MSFontService,sans-serif" font-weight="400" font-size="37" transform="matrix(1 0 0 1 2419.99 1496)">Event Hubs</text><g><g><g><path d="M542.333 1225.33C542.333 1234.91 534.573 1242.67 525 1242.67 515.427 1242.67 507.667 1234.91 507.667 1225.33 507.667 1215.76 515.427 1208 525 1208 534.573 1208 542.333 1215.76 542.333 1225.33Z" fill="#D9D9D9"/><path d="M646.333 1225.33C646.333 1234.91 638.573 1242.67 629 1242.67 619.427 1242.67 611.667 1234.91 611.667 1225.33 611.667 1215.76 619.427 1208 629 1208 638.573 1208 646.333 1215.76 646.333 1225.33Z" fill="#D9D9D9"/><path d="M557.5 1182 557.5 1156 587.183 1156C589.567 1156 591.733 1156.87 593.25 1158.6L616.65 1182 557.5 1182ZM548.833 1182 494.017 1182 517.417 1158.6C519.15 1156.87 521.317 1156 523.483 1156L548.833 1156 548.833 1182ZM650.667 1182 632.683 1182C630.3 1182 628.133 1181.13 626.617 1179.4L599.317 1152.32C596.067 1149.07 591.733 1147.33 586.967 1147.33L523.483 1147.33C518.933 1147.33 514.383 1149.07 511.133 1152.32L484.267 1179.4C482.533 1181.13 481.667 1183.3 481.667 1185.68L481.667 1208C481.667 1217.53 489.467 1225.33 499 1225.33L501.167 1225.33C501.167 1212.12 511.783 1201.5 525 1201.5 538.217 1201.5 548.833 1212.12 548.833 1225.33L605.167 1225.33C605.167 1212.12 615.783 1201.5 629 1201.5 642.217 1201.5 652.833 1212.12 652.833 1225.33L663.667 1225.33C668.433 1225.33 672.333 1221.43 672.333 1216.67L672.333 1203.67C672.333 1191.75 662.583 1182 650.667 1182Z" fill="#D9D9D9"/></g></g></g><path d="M22.3109 5.3547 856.711 250.275 856.066 252.474 21.6655 7.55359ZM22.5141 20.9386 0 0 30.2594-5.44813ZM855.863 236.89 878.377 257.828 848.117 263.276Z" fill="#7F7F7F" transform="matrix(1 0 0 -1 766 1049.83)"/><path d="M780.917 1179.85 1165.87 1179.85 1165.87 1182.15 780.917 1182.15ZM785.5 1194.75 758 1181 785.5 1167.25ZM1161.28 1167.25 1188.78 1181 1161.28 1194.75Z" fill="#7F7F7F"/><text font-family="Segoe UI,Segoe UI_MSFontService,sans-serif" font-weight="400" font-size="37" transform="matrix(1 0 0 1 523.242 1081)">Vehicle</text><path d="M1693.5 734C1693.5 719.917 1704.92 708.5 1719 708.5L2119 708.5C2133.08 708.5 2144.5 719.917 2144.5 734L2144.5 835.999C2144.5 850.083 2133.08 861.5 2119 861.5L1719 861.5C1704.92 861.5 1693.5 850.083 1693.5 835.999Z" stroke="#000000" stroke-width="3.4375" stroke-linejoin="round" stroke-miterlimit="10" fill="none" fill-rule="evenodd"/><text font-family="Segoe UI,Segoe UI_MSFontService,sans-serif" font-weight="400" font-size="37" transform="matrix(1 0 0 1 1751.76 776)">Device Management </text><text font-family="Segoe UI,Segoe UI_MSFontService,sans-serif" font-weight="400" font-size="37" transform="matrix(1 0 0 1 1861.46 820)">Service</text><path d="M1554.5 1637.09C1554.5 1630.69 1559.69 1625.5 1566.09 1625.5L1751.91 1625.5C1758.31 1625.5 1763.5 1630.69 1763.5 1637.09L1763.5 1742.91C1763.5 1749.31 1758.31 1754.5 1751.91 1754.5L1566.09 1754.5C1559.69 1754.5 1554.5 1749.31 1554.5 1742.91Z" stroke="#000000" stroke-width="3.4375" stroke-linejoin="round" stroke-miterlimit="10" fill="#FFFFFF" fill-rule="evenodd"/><text font-family="Segoe UI,Segoe UI_MSFontService,sans-serif" font-weight="400" font-size="28" transform="matrix(1 0 0 1 1632.32 1667)">C2D </text><text font-family="Segoe UI,Segoe UI_MSFontService,sans-serif" font-weight="400" font-size="28" transform="matrix(1 0 0 1 1593.36 1700)">Processing </text><text font-family="Segoe UI,Segoe UI_MSFontService,sans-serif" font-weight="400" font-size="28" transform="matrix(1 0 0 1 1625.72 1733)">Logic</text><g><g><g><path d="M1939.56 1686.31C1939.6 1687.08 1939.01 1687.74 1938.24 1687.8L1926.75 1687.8C1925.98 1687.83 1925.32 1687.24 1925.27 1686.47L1925.27 1677.9C1925.23 1677.13 1925.82 1676.47 1926.58 1676.41L1938.08 1676.41C1938.85 1676.38 1939.51 1676.96 1939.56 1677.73L1939.56 1686.31Z" fill="#76BC2D"/><path d="M1959.97 1695C1960 1695.77 1959.42 1696.43 1958.65 1696.48L1947.16 1696.48C1946.39 1696.52 1945.73 1695.93 1945.67 1695.17L1945.67 1686.64C1945.64 1685.87 1946.22 1685.21 1946.99 1685.16L1958.48 1685.16C1959.26 1685.12 1959.91 1685.71 1959.97 1686.47L1959.97 1695Z" fill="#76BC2D"/><path d="M1939.56 1703.8C1939.6 1704.57 1939.01 1705.23 1938.24 1705.29L1926.75 1705.29C1925.98 1705.32 1925.32 1704.73 1925.27 1703.96L1925.27 1695.39C1925.23 1694.62 1925.82 1693.96 1926.58 1693.9L1938.08 1693.9C1938.85 1693.87 1939.51 1694.45 1939.56 1695.22L1939.56 1703.8Z" fill="#76BC2D"/><path d="M1919.16 1677.62C1919.19 1678.36 1918.63 1678.99 1917.9 1679.05L1906.07 1679.05C1905.32 1679.08 1904.67 1678.53 1904.58 1677.79L1904.58 1668.88C1904.61 1668.15 1905.18 1667.56 1905.91 1667.5L1917.4 1667.5C1918.61 1667.5 1919.16 1668.1 1919.16 1668.98Z" fill="#86D633"/><path d="M1919.16 1695C1919.22 1695.76 1918.66 1696.42 1917.9 1696.48 1917.9 1696.48 1917.9 1696.48 1917.9 1696.48L1906.07 1696.48C1905.28 1696.52 1904.62 1695.9 1904.58 1695.11 1904.58 1695.07 1904.58 1695.04 1904.58 1695L1904.58 1686.31C1904.58 1685.56 1905.16 1684.94 1905.91 1684.88L1917.4 1684.88C1918.61 1684.88 1919.16 1685.48 1919.16 1686.31Z" fill="#76BC2D"/><path d="M1919.16 1712.55C1919.22 1713.3 1918.66 1713.97 1917.9 1714.03 1917.9 1714.03 1917.9 1714.03 1917.9 1714.03L1906.07 1714.03C1905.3 1714.06 1904.64 1713.48 1904.58 1712.71L1904.58 1703.8C1904.55 1703.04 1905.14 1702.4 1905.9 1702.37 1905.9 1702.37 1905.9 1702.37 1905.91 1702.37L1917.4 1702.37C1918.61 1702.37 1919.16 1702.92 1919.16 1703.8Z" fill="#76BC2D"/><path d="M1885.89 1648.31 1892.98 1648.31 1892.98 1648.31 1892.98 1668.1C1892.98 1668.99 1892.27 1669.7 1891.39 1669.7L1884.34 1669.7C1883.46 1669.7 1882.75 1668.99 1882.75 1668.1L1882.75 1651.6C1882.66 1649.88 1883.99 1648.4 1885.72 1648.31 1885.77 1648.31 1885.83 1648.3 1885.89 1648.31Z" fill="#999999"/><path d="M1885.89 1648.31 1892.98 1648.31 1892.98 1648.31 1892.98 1668.1C1892.98 1668.99 1892.27 1669.7 1891.39 1669.7L1884.34 1669.7C1883.46 1669.7 1882.75 1668.99 1882.75 1668.1L1882.75 1651.6C1882.66 1649.88 1883.99 1648.4 1885.72 1648.31 1885.77 1648.31 1885.83 1648.3 1885.89 1648.31Z" fill="#999999" fill-opacity="0.5"/><path d="M1966.02 1648.31 1973.11 1648.31C1974.85 1648.31 1976.25 1649.71 1976.25 1651.44L1976.25 1667.94C1976.25 1668.82 1975.54 1669.54 1974.66 1669.54L1967.56 1669.54C1966.68 1669.54 1965.96 1668.82 1965.96 1667.94L1965.96 1648.31 1966.02 1648.31Z" fill="#999999"/><path d="M1966.02 1648.31 1973.11 1648.31C1974.85 1648.31 1976.25 1649.71 1976.25 1651.44L1976.25 1667.94C1976.25 1668.82 1975.54 1669.54 1974.66 1669.54L1967.56 1669.54C1966.68 1669.54 1965.96 1668.82 1965.96 1667.94L1965.96 1648.31 1966.02 1648.31Z" fill="#999999" fill-opacity="0.5"/><path d="M1976.25 1651.44 1976.25 1658.32 1976.25 1658.32 1882.75 1658.32 1882.75 1658.32 1882.75 1651.44C1882.75 1649.71 1884.15 1648.31 1885.88 1648.31L1973.17 1648.31C1974.88 1648.34 1976.25 1649.73 1976.25 1651.44Z" fill="#949494"/><path d="M1884.34 1710.18 1891.44 1710.18C1892.32 1710.18 1893.04 1710.89 1893.04 1711.78L1893.04 1731.57 1893.04 1731.57 1885.89 1731.57C1884.15 1731.57 1882.75 1730.17 1882.75 1728.44L1882.75 1711.5C1882.89 1710.73 1883.56 1710.17 1884.34 1710.18Z" fill="#999999"/><path d="M1884.34 1710.18 1891.44 1710.18C1892.32 1710.18 1893.04 1710.89 1893.04 1711.78L1893.04 1731.57 1893.04 1731.57 1885.89 1731.57C1884.15 1731.57 1882.75 1730.17 1882.75 1728.44L1882.75 1711.5C1882.89 1710.73 1883.56 1710.17 1884.34 1710.18Z" fill="#999999" fill-opacity="0.5"/><path d="M1967.56 1710.18 1974.66 1710.18C1975.54 1710.18 1976.25 1710.89 1976.25 1711.78L1976.25 1728.28C1976.25 1730.01 1974.85 1731.41 1973.11 1731.41L1966.02 1731.41 1966.02 1731.41 1966.02 1711.5C1966.15 1710.75 1966.8 1710.19 1967.56 1710.18Z" fill="#999999"/><path d="M1967.56 1710.18 1974.66 1710.18C1975.54 1710.18 1976.25 1710.89 1976.25 1711.78L1976.25 1728.28C1976.25 1730.01 1974.85 1731.41 1973.11 1731.41L1966.02 1731.41 1966.02 1731.41 1966.02 1711.5C1966.15 1710.75 1966.8 1710.19 1967.56 1710.18Z" fill="#999999" fill-opacity="0.5"/><path d="M1882.75 1728.44 1882.75 1721.57 1882.75 1721.57 1976.25 1721.57 1976.25 1721.57 1976.25 1728.44C1976.25 1730.17 1974.85 1731.58 1973.11 1731.58L1885.88 1731.58C1884.15 1731.58 1882.75 1730.17 1882.75 1728.44Z" fill="#949494"/></g></g></g><text font-family="Segoe UI,Segoe UI_MSFontService,sans-serif" font-weight="400" font-size="37" transform="matrix(1 0 0 1 1892.65 1791)">C2D</text><text font-family="Segoe UI,Segoe UI_MSFontService,sans-serif" font-weight="400" font-size="37" transform="matrix(1 0 0 1 1835.93 1835)">Event Hubs</text><path d="M2176.5 732C2176.5 717.917 2187.92 706.5 2202 706.5L2602 706.5C2616.08 706.5 2627.5 717.917 2627.5 732L2627.5 833.999C2627.5 848.083 2616.08 859.5 2602 859.5L2202 859.5C2187.92 859.5 2176.5 848.083 2176.5 833.999Z" stroke="#000000" stroke-width="3.4375" stroke-linejoin="round" stroke-miterlimit="10" fill="none" fill-rule="evenodd"/><text font-family="Segoe UI,Segoe UI_MSFontService,sans-serif" font-weight="400" font-size="37" transform="matrix(1 0 0 1 2300.31 796)">Subscription</text><path d="M784.819 1307.65 1168.54 1509.32 1167.47 1511.35 783.753 1309.68ZM781.946 1322.97 764 1298 794.74 1298.62ZM1170.35 1496.03 1188.29 1520.99 1157.55 1520.37Z" fill="#7F7F7F"/><g filter="url(#fx0)" transform="translate(811 954)"><g><path d="M21.9999 67.8751C21.9999 42.47 42.5948 21.8751 67.9999 21.8751 93.4051 21.8751 114 42.47 114 67.8751 114 93.2803 93.4051 113.875 67.9999 113.875 42.5948 113.875 21.9999 93.2803 21.9999 67.8751Z" fill="#FF0000" fill-rule="evenodd"/></g></g><g clip-path="url(#clip19)" filter="url(#fx1)" transform="translate(801 942)"><g><path d="M2.90625 0 2.90625-4.125 17.375-17.3437C19.875-19.6146 21.6875-21.6771 22.8125-23.5312 23.9375-25.3854 24.5-27.3333 24.5-29.375 24.5-31.5 23.9323-33.2448 22.7969-34.6094 21.6615-35.974 19.8021-36.6562 17.2187-36.6562 14.3021-36.6562 12.2135-35.901 10.9531-34.3906 9.69271-32.8802 9.0625-30.9792 9.0625-28.6875L3.84375-28.6875C3.84375-31.2292 4.33854-33.4479 5.32812-35.3437 6.31771-37.2396 7.80729-38.7083 9.79687-39.75 11.7865-40.7917 14.2604-41.3125 17.2187-41.3125 19.9271-41.3125 22.2292-40.8281 24.125-39.8594 26.0208-38.8906 27.4635-37.5312 28.4531-35.7812 29.4427-34.0312 29.9375-31.9687 29.9375-29.5937 29.9375-27.4687 29.526-25.5312 28.7031-23.7812 27.8802-22.0312 26.7708-20.3854 25.375-18.8437 23.9792-17.3021 22.4375-15.7708 20.75-14.25L10.0312-4.625 31.125-4.625 31.125 0Z" fill="#FFFFFF" transform="matrix(1 0 0 1 60.6702 100)"/></g></g><path d="M833 1015C833 989.595 853.595 969 879 969 904.405 969 925 989.595 925 1015 925 1040.41 904.405 1061 879 1061 853.595 1061 833 1040.41 833 1015Z" fill="url(#fill20)" fill-rule="evenodd"/><text fill="#FFFFFF" font-family="Aptos,Aptos_MSFontService,sans-serif" font-weight="400" font-size="64" transform="matrix(1 0 0 1 861.67 1036)">2</text><g filter="url(#fx2)" transform="translate(811 1117)"><g><path d="M21.9999 67.8751C21.9999 42.4699 42.5948 21.875 67.9999 21.875 93.4051 21.875 114 42.4699 114 67.8751 114 93.2802 93.4051 113.875 67.9999 113.875 42.5948 113.875 21.9999 93.2802 21.9999 67.8751Z" fill="#FF0000" fill-rule="evenodd"/></g></g><g clip-path="url(#clip21)" filter="url(#fx3)" transform="translate(801 1105)"><g><path d="M17.375 0.5625C13.0417 0.5625 9.57292-0.541667 6.96875-2.75 4.36458-4.95833 3.0625-8.125 3.0625-12.25L8.28125-12.25C8.28125-9.70833 9.07812-7.68229 10.6719-6.17187 12.2656-4.66146 14.4792-3.90625 17.3125-3.90625 19.9375-3.90625 22.0052-4.54167 23.5156-5.8125 25.026-7.08333 25.7812-9.05208 25.7812-11.7187 25.7812-14.2812 24.9479-16.1667 23.2812-17.375 21.6146-18.5833 19.3333-19.1875 16.4375-19.1875L14.0312-19.1875 14.0312-23.625 16.5625-23.625C19.1667-23.625 21.1562-24.2708 22.5312-25.5625 23.9062-26.8542 24.5937-28.5729 24.5937-30.7187 24.5937-32.7604 23.9167-34.2865 22.5625-35.2969 21.2083-36.3073 19.4271-36.8125 17.2187-36.8125 14.7187-36.8125 12.7812-36.1458 11.4062-34.8125 10.0312-33.4792 9.34375-31.7292 9.34375-29.5625L4.125-29.5625C4.125-31.9792 4.67708-34.0677 5.78125-35.8281 6.88542-37.5885 8.41146-38.9479 10.3594-39.9062 12.3073-40.8646 14.5729-41.3437 17.1562-41.3437 19.4896-41.3437 21.6146-40.9531 23.5312-40.1719 25.4479-39.3906 26.974-38.2344 28.1094-36.7031 29.2448-35.1719 29.8125-33.2604 29.8125-30.9687 29.8125-28.5312 29.1354-26.526 27.7812-24.9531 26.4271-23.3802 24.6458-22.2812 22.4375-21.6562 24.9583-21.1979 27.0469-20.1146 28.7031-18.4062 30.3594-16.6979 31.1875-14.3958 31.1875-11.5 31.1875-8.91667 30.6094-6.72917 29.4531-4.9375 28.2969-3.14583 26.6823-1.78125 24.6094-0.84375 22.5365 0.0937499 20.125 0.5625 17.375 0.5625Z" fill="#FFFFFF" transform="matrix(1 0 0 1 60.6702 100)"/></g></g><path d="M833 1178C833 1152.59 853.595 1132 879 1132 904.405 1132 925 1152.59 925 1178 925 1203.41 904.405 1224 879 1224 853.595 1224 833 1203.41 833 1178Z" fill="url(#fill22)" fill-rule="evenodd"/><text fill="#FFFFFF" font-family="Aptos,Aptos_MSFontService,sans-serif" font-weight="400" font-size="64" transform="matrix(1 0 0 1 861.67 1199)">3</text><g filter="url(#fx4)" transform="translate(811 1297)"><g><path d="M21.9999 67.875C21.9999 42.47 42.5948 21.8751 67.9999 21.8751 93.4051 21.8751 114 42.47 114 67.875 114 93.28 93.4051 113.875 67.9999 113.875 42.5948 113.875 21.9999 93.28 21.9999 67.875Z" fill="#FF0000" fill-rule="evenodd"/></g></g><g clip-path="url(#clip23)" filter="url(#fx5)" transform="translate(801 1286)"><g><path d="M21.4375 0 21.4375-8.25 1.75-8.25 1.75-12.9687 21.3437-41.0312 26.6562-41.0312 26.6562-12.8437 32.25-12.8437 32.25-8.25 26.6562-8.25 26.6562 0ZM6.84375-12.8437 21.5-12.8437 21.5-33.9062Z" fill="#FFFFFF" transform="matrix(1 0 0 1 60.6702 100)"/></g></g><path d="M833 1358C833 1332.59 853.595 1312 879 1312 904.405 1312 925 1332.59 925 1358 925 1383.41 904.405 1404 879 1404 853.595 1404 833 1383.41 833 1358Z" fill="url(#fill24)" fill-rule="evenodd"/><text fill="#FFFFFF" font-family="Aptos,Aptos_MSFontService,sans-serif" font-weight="400" font-size="64" transform="matrix(1 0 0 1 861.67 1379)">4</text><g filter="url(#fx6)" transform="translate(2206 815)"><g><path d="M21.9998 67.8751C21.9998 42.47 42.5947 21.8752 67.9998 21.8752 93.4049 21.8752 114 42.47 114 67.8751 114 93.2801 93.4049 113.875 67.9998 113.875 42.5947 113.875 21.9998 93.2801 21.9998 67.8751Z" fill="#FF0000" fill-rule="evenodd"/></g></g><g clip-path="url(#clip25)" filter="url(#fx7)" transform="translate(2197 803)"><g><path d="M16.8125 0 16.8125-34.25C16.25-33.4792 15.4531-32.7344 14.4219-32.0156 13.3906-31.2969 12.1667-30.6562 10.75-30.0937 9.33333-29.5312 7.75-29.125 6-28.875L6-33.8125C7.72917-34.1042 9.33854-34.6354 10.8281-35.4062 12.3177-36.1771 13.6302-37.0625 14.7656-38.0625 15.901-39.0625 16.7917-40.0208 17.4375-40.9375L22.2812-40.9375 22.2812 0Z" fill="#FFFFFF" transform="matrix(1 0 0 1 60.209 100)"/></g></g><path d="M2228 876C2228 850.595 2248.59 830 2274 830 2299.41 830 2320 850.595 2320 876 2320 901.405 2299.41 922 2274 922 2248.59 922 2228 901.405 2228 876Z" fill="url(#fill26)" fill-rule="evenodd"/><text fill="#FFFFFF" font-family="Aptos,Aptos_MSFontService,sans-serif" font-weight="400" font-size="64" transform="matrix(1 0 0 1 2257.21 896)">1</text><path d="M1882 1401.85 2379.36 1403.06 2379.36 1405.35 1882 1404.15ZM2374.81 1390.44 2402.28 1404.26 2374.74 1417.94Z" fill="#7F7F7F"/><path d="M2579 1293.85 2682.32 1293.85 2682.32 1296.15 2579 1296.15ZM2677.73 1281.25 2705.23 1295 2677.73 1308.75Z" fill="#7F7F7F"/><path d="M3.77278e-06-1.14583 86.6903-1.14555 86.6903 1.14612-3.77278e-06 1.14583ZM82.107-13.7497 109.607 0.000360892 82.1069 13.7503Z" fill="#7F7F7F" transform="matrix(-1 0 0 1 1869.61 1685)"/><path d="M2714.48 1689.15 2027.92 1689.15 2027.92 1686.85 2714.48 1686.85ZM2032.5 1701.75 2005 1688 2032.5 1674.25Z" fill="#7F7F7F"/><path d="M0.605872-0.97255 8.38627 3.87442 7.17453 5.81952-0.605872 0.97255ZM14.2216 7.50965 22.002 12.3566 20.7902 14.3017 13.0098 9.45475ZM27.8373 15.9919 35.6177 20.8388 34.4059 22.7839 26.6255 17.937ZM41.453 24.4741 49.2334 29.321 48.0216 31.2661 40.2412 26.4192ZM55.0687 32.9563 62.8491 37.8032 61.6373 39.7483 53.8569 34.9014ZM68.6844 41.4385 76.4648 46.2854 75.253 48.2305 67.4726 43.3836ZM82.3001 49.9207 90.0805 54.7677 88.8687 56.7127 81.0883 51.8658ZM95.9158 58.4029 103.696 63.2499 102.484 65.195 94.704 60.348ZM109.531 66.8851 117.312 71.7321 116.1 73.6772 108.32 68.8302ZM123.147 75.3673 130.928 80.2143 129.716 82.1594 121.935 77.3124ZM136.763 83.8495 144.543 88.6965 143.332 90.6416 135.551 85.7946ZM150.379 92.3317 158.159 97.1787 156.947 99.1238 149.167 94.2768ZM162.268 84.8885 178.339 111.1 147.727 108.23Z" fill="#7F7F7F" transform="matrix(-1 0 0 1 2242.34 908)"/><path d="M2461 1017.26 2453.49 1012 2454.81 1010.13 2462.32 1015.38ZM2447.86 1008.06 2440.35 1002.8 2441.67 1000.92 2449.18 1006.18ZM2434.72 998.856 2427.21 993.597 2428.53 991.72 2436.04 996.979ZM2421.58 989.653 2414.07 984.394 2415.39 982.517 2422.9 987.776ZM2408.44 980.45 2400.94 975.191 2402.25 973.314 2409.76 978.573ZM2395.3 971.247 2387.8 965.988 2389.11 964.111 2396.62 969.37ZM2382.16 962.044 2374.66 956.786 2375.97 954.908 2383.48 960.167ZM2369.03 952.841 2361.52 947.583 2362.83 945.706 2370.34 950.964ZM2355.89 943.639 2348.38 938.38 2349.69 936.503 2357.2 941.762ZM2342.75 934.436 2335.24 929.177 2336.55 927.3 2344.06 932.559ZM2329.61 925.233 2325.11 922.085 2326.43 920.208 2330.92 923.356ZM2321.64 935.038 2307 908 2337.41 912.514Z" fill="#7F7F7F"/><g><g><g><path d="M2521.56 1236.31C2521.6 1237.08 2521.01 1237.74 2520.25 1237.8L2508.75 1237.8C2507.98 1237.83 2507.32 1237.24 2507.26 1236.48L2507.26 1227.9C2507.23 1227.13 2507.82 1226.47 2508.58 1226.41L2520.08 1226.41C2520.85 1226.38 2521.51 1226.96 2521.56 1227.73L2521.56 1236.31Z" fill="#76BC2D"/><path d="M2541.97 1245C2542 1245.77 2541.42 1246.43 2540.65 1246.49L2529.16 1246.49C2528.39 1246.52 2527.73 1245.93 2527.67 1245.17L2527.67 1236.64C2527.64 1235.87 2528.22 1235.21 2528.99 1235.16L2540.49 1235.16C2541.25 1235.12 2541.91 1235.71 2541.97 1236.48L2541.97 1245Z" fill="#76BC2D"/><path d="M2521.56 1253.8C2521.6 1254.57 2521.01 1255.23 2520.25 1255.29L2508.75 1255.29C2507.98 1255.32 2507.32 1254.73 2507.26 1253.97L2507.26 1245.39C2507.23 1244.62 2507.82 1243.96 2508.58 1243.9L2520.08 1243.9C2520.85 1243.87 2521.51 1244.45 2521.56 1245.22L2521.56 1253.8Z" fill="#76BC2D"/><path d="M2501.16 1227.62C2501.19 1228.36 2500.63 1228.99 2499.9 1229.05L2488.07 1229.05C2487.32 1229.08 2486.67 1228.53 2486.58 1227.79L2486.58 1218.88C2486.61 1218.15 2487.18 1217.56 2487.91 1217.5L2499.4 1217.5C2500.61 1217.5 2501.16 1218.11 2501.16 1218.99Z" fill="#86D633"/><path d="M2501.16 1245C2501.22 1245.76 2500.66 1246.42 2499.9 1246.48 2499.9 1246.48 2499.9 1246.49 2499.9 1246.49L2488.07 1246.49C2487.28 1246.52 2486.62 1245.9 2486.58 1245.11 2486.58 1245.07 2486.58 1245.04 2486.58 1245L2486.58 1236.31C2486.58 1235.56 2487.16 1234.94 2487.91 1234.88L2499.4 1234.88C2500.61 1234.88 2501.16 1235.49 2501.16 1236.31Z" fill="#76BC2D"/><path d="M2501.16 1262.55C2501.22 1263.3 2500.66 1263.97 2499.9 1264.03 2499.9 1264.03 2499.9 1264.03 2499.9 1264.03L2488.07 1264.03C2487.3 1264.06 2486.64 1263.48 2486.58 1262.71L2486.58 1253.8C2486.55 1253.04 2487.14 1252.4 2487.9 1252.37 2487.9 1252.37 2487.9 1252.37 2487.91 1252.37L2499.4 1252.37C2500.61 1252.37 2501.16 1252.92 2501.16 1253.8Z" fill="#76BC2D"/><path d="M2467.89 1198.31 2474.98 1198.31 2474.98 1198.31 2474.98 1218.11C2474.98 1218.99 2474.27 1219.7 2473.39 1219.7L2466.34 1219.7C2465.46 1219.7 2464.75 1218.99 2464.75 1218.11L2464.75 1201.61C2464.66 1199.88 2465.99 1198.4 2467.72 1198.31 2467.77 1198.31 2467.83 1198.31 2467.89 1198.31Z" fill="#999999"/><path d="M2467.89 1198.31 2474.98 1198.31 2474.98 1198.31 2474.98 1218.11C2474.98 1218.99 2474.27 1219.7 2473.39 1219.7L2466.34 1219.7C2465.46 1219.7 2464.75 1218.99 2464.75 1218.11L2464.75 1201.61C2464.66 1199.88 2465.99 1198.4 2467.72 1198.31 2467.77 1198.31 2467.83 1198.31 2467.89 1198.31Z" fill="#999999" fill-opacity="0.5"/><path d="M2548.02 1198.31 2555.11 1198.31C2556.85 1198.31 2558.25 1199.71 2558.25 1201.44L2558.25 1217.94C2558.25 1218.82 2557.54 1219.54 2556.66 1219.54L2549.56 1219.54C2548.68 1219.54 2547.97 1218.82 2547.97 1217.94L2547.97 1198.31 2548.02 1198.31Z" fill="#999999"/><path d="M2548.02 1198.31 2555.11 1198.31C2556.85 1198.31 2558.25 1199.71 2558.25 1201.44L2558.25 1217.94C2558.25 1218.82 2557.54 1219.54 2556.66 1219.54L2549.56 1219.54C2548.68 1219.54 2547.97 1218.82 2547.97 1217.94L2547.97 1198.31 2548.02 1198.31Z" fill="#999999" fill-opacity="0.5"/><path d="M2558.25 1201.44 2558.25 1208.32 2558.25 1208.32 2464.75 1208.32 2464.75 1208.32 2464.75 1201.44C2464.75 1199.71 2466.15 1198.31 2467.88 1198.31L2555.17 1198.31C2556.88 1198.34 2558.25 1199.73 2558.25 1201.44Z" fill="#949494"/><path d="M2466.34 1260.18 2473.44 1260.18C2474.32 1260.18 2475.03 1260.89 2475.03 1261.78L2475.03 1281.58 2475.03 1281.58 2467.89 1281.58C2466.15 1281.58 2464.75 1280.17 2464.75 1278.44L2464.75 1261.5C2464.89 1260.73 2465.56 1260.17 2466.34 1260.18Z" fill="#999999"/><path d="M2466.34 1260.18 2473.44 1260.18C2474.32 1260.18 2475.03 1260.89 2475.03 1261.78L2475.03 1281.58 2475.03 1281.58 2467.89 1281.58C2466.15 1281.58 2464.75 1280.17 2464.75 1278.44L2464.75 1261.5C2464.89 1260.73 2465.56 1260.17 2466.34 1260.18Z" fill="#999999" fill-opacity="0.5"/><path d="M2549.56 1260.18 2556.66 1260.18C2557.54 1260.18 2558.25 1260.89 2558.25 1261.78L2558.25 1278.28C2558.25 1280.01 2556.85 1281.41 2555.11 1281.41L2548.02 1281.41 2548.02 1281.41 2548.02 1261.5C2548.15 1260.75 2548.8 1260.19 2549.56 1260.18Z" fill="#999999"/><path d="M2549.56 1260.18 2556.66 1260.18C2557.54 1260.18 2558.25 1260.89 2558.25 1261.78L2558.25 1278.28C2558.25 1280.01 2556.85 1281.41 2555.11 1281.41L2548.02 1281.41 2548.02 1281.41 2548.02 1261.5C2548.15 1260.75 2548.8 1260.19 2549.56 1260.18Z" fill="#999999" fill-opacity="0.5"/><path d="M2464.75 1278.44 2464.75 1271.57 2464.75 1271.57 2558.25 1271.57 2558.25 1271.57 2558.25 1278.44C2558.25 1280.17 2556.85 1281.58 2555.11 1281.58L2467.89 1281.58C2466.15 1281.58 2464.75 1280.17 2464.75 1278.44Z" fill="#949494"/></g></g></g><g filter="url(#fx8)" transform="translate(2693 1228)"><g><path d="M22 67.8751C22 42.4699 42.5949 21.875 68.0001 21.875 93.4052 21.875 114 42.4699 114 67.8751 114 93.2802 93.4052 113.875 68.0001 113.875 42.5949 113.875 22 93.2802 22 67.8751Z" fill="#FF0000" fill-rule="evenodd"/></g></g><g clip-path="url(#clip27)" filter="url(#fx9)" transform="translate(2683 1216)"><g><path d="M18.0625 0.5625C15.1667 0.5625 12.5833-0.130208 10.3125-1.51562 8.04167-2.90104 6.25521-5.11458 4.95312-8.15625 3.65104-11.1979 3-15.1875 3-20.125 3-24.9583 3.625-28.9375 4.875-32.0625 6.125-35.1875 7.88542-37.5104 10.1562-39.0312 12.4271-40.5521 15.0625-41.3125 18.0625-41.3125 21.375-41.3125 24.1719-40.4583 26.4531-38.75 28.7344-37.0417 30.1875-34.4479 30.8125-30.9687L25.5625-30.9687C25.125-32.9062 24.2708-34.3646 23-35.3437 21.7292-36.3229 20.0833-36.8125 18.0625-36.8125 15.0625-36.8125 12.6927-35.474 10.9531-32.7969 9.21354-30.1198 8.34375-25.8958 8.34375-20.125L8.34375-18.5C8.34375-14.9167 8.79687-12.0573 9.70312-9.92187 10.6094-7.78646 11.8021-6.25 13.2812-5.3125 14.7604-4.375 16.3646-3.90625 18.0937-3.90625 20.8229-3.90625 22.8437-4.75 24.1562-6.4375 25.4687-8.125 26.125-10.2187 26.125-12.7187 26.125-15.2396 25.4792-17.2292 24.1875-18.6875 22.8958-20.1458 21.0833-20.875 18.75-20.875 16.0417-20.875 13.6667-20.2396 11.625-18.9687 9.58333-17.6979 8.04167-16.2292 7-14.5625L6.40625-18.5625C7.30208-19.8333 8.39062-20.9844 9.67187-22.0156 10.9531-23.0469 12.4115-23.8646 14.0469-24.4687 15.6823-25.0729 17.4896-25.375 19.4687-25.375 21.7812-25.375 23.8437-24.901 25.6562-23.9531 27.4687-23.0052 28.9062-21.6042 29.9687-19.75 31.0312-17.8958 31.5625-15.6146 31.5625-12.9062 31.5625-10.2812 31.0365-7.95312 29.9844-5.92187 28.9323-3.89062 27.401-2.30208 25.3906-1.15625 23.3802-0.0104167 20.9375 0.5625 18.0625 0.5625Z" fill="#FFFFFF" transform="matrix(1 0 0 1 60.5044 100)"/></g></g><path d="M2715 1289C2715 1263.59 2735.59 1243 2761 1243 2786.41 1243 2807 1263.59 2807 1289 2807 1314.41 2786.41 1335 2761 1335 2735.59 1335 2715 1314.41 2715 1289Z" fill="url(#fill28)" fill-rule="evenodd"/><text fill="#FFFFFF" font-family="Aptos,Aptos_MSFontService,sans-serif" font-weight="400" font-size="64" transform="matrix(1 0 0 1 2743.5 1310)">6</text><g filter="url(#fx10)" transform="translate(2693 1627)"><g><path d="M22 67.875C22 42.47 42.5949 21.8751 68.0001 21.8751 93.4052 21.8751 114 42.47 114 67.875 114 93.28 93.4052 113.875 68.0001 113.875 42.5949 113.875 22 93.28 22 67.875Z" fill="#7030A0" fill-rule="evenodd"/></g></g><g clip-path="url(#clip29)" filter="url(#fx11)" transform="translate(2665 1615)"><g><path d="M8.0625 0 25.8437-36 2.96875-36 2.96875-40.7812 31.1562-40.7812 31.1562-36.2187 13.75 0ZM54.1875 0.5625C51.9375 0.5625 50.0208 0.130208 48.4375-0.734375 46.8542-1.59896 45.5625-2.79167 44.5625-4.3125L44.2812 0 39.4062 0 39.4062-42.0625 44.625-42.0625 44.625-25.5625C45.6875-27.1667 47.0781-28.4687 48.7969-29.4687 50.5156-30.4687 52.5312-30.9687 54.8437-30.9687 57.3229-30.9687 59.4687-30.3802 61.2812-29.2031 63.0937-28.026 64.4948-26.2708 65.4844-23.9375 66.4739-21.6042 66.9687-18.6979 66.9687-15.2187 66.9687-11.7604 66.4427-8.85937 65.3906-6.51562 64.3385-4.17188 62.8542-2.40625 60.9375-1.21875 59.0208-0.03125 56.7708 0.5625 54.1875 0.5625ZM53.2187-3.71875C55.9687-3.71875 58.0521-4.71354 59.4687-6.70312 60.8854-8.69271 61.5937-11.5104 61.5937-15.1562 61.5937-18.9062 60.9323-21.7812 59.6094-23.7812 58.2864-25.7812 56.3333-26.7812 53.75-26.7812 51.5625-26.7812 49.7135-26.1979 48.2031-25.0312 46.6927-23.8646 45.5-22.4479 44.625-20.7812L44.625-9.0625C45.4375-7.52083 46.5521-6.24479 47.9687-5.23437 49.3854-4.22396 51.1354-3.71875 53.2187-3.71875Z" fill="#FFFFFF" transform="matrix(1 0 0 1 60.4578 100)"/></g></g><path d="M2715 1688C2715 1662.59 2735.59 1642 2761 1642 2786.41 1642 2807 1662.59 2807 1688 2807 1713.41 2786.41 1734 2761 1734 2735.59 1734 2715 1713.41 2715 1688Z" fill="#7030A0" fill-rule="evenodd"/><text fill="#FFFFFF" font-family="Aptos,Aptos_MSFontService,sans-serif" font-weight="400" font-size="64" transform="matrix(1 0 0 1 2725.46 1708)">7b</text><g><g><g><path d="M1316.85 1532.83 1316.85 1529.53 1291.99 1529.53 1280.33 1541.13 1271.75 1541.13 1291.66 1521 1305.25 1521 1305.25 1517.87 1290.29 1517.87 1267.08 1541.13 1263.78 1541.13 1263.78 1544.43 1273.73 1544.43 1285.5 1556.04 1313.55 1556.04 1313.55 1552.74 1286.71 1552.74 1278.41 1544.43 1298.59 1544.43 1298.59 1541.13 1285.06 1541.13 1293.31 1532.83Z" fill="#32BEDD"/><path d="M1306.68 1542.78C1306.68 1545.42 1304.53 1547.57 1301.89 1547.57 1299.25 1547.57 1297.11 1545.42 1297.11 1542.78 1297.11 1540.14 1299.25 1538 1301.89 1538 1304.53 1538 1306.68 1540.14 1306.68 1542.78Z" fill="#FFFFFF"/><path d="M1311.68 1519.57C1311.68 1522.21 1309.54 1524.36 1306.9 1524.36 1304.25 1524.36 1302.11 1522.21 1302.11 1519.57 1302.11 1516.93 1304.25 1514.79 1306.9 1514.79 1309.54 1514.79 1311.68 1516.93 1311.68 1519.57Z" fill="#FFFFFF"/><path d="M1323.29 1531.18C1323.29 1533.82 1321.14 1535.96 1318.5 1535.96 1315.86 1535.96 1313.72 1533.82 1313.72 1531.18 1313.72 1528.53 1315.86 1526.39 1318.5 1526.39 1321.14 1526.39 1323.29 1528.53 1323.29 1531.18Z" fill="#FFFFFF"/><path d="M1318.34 1554.39C1318.34 1557.03 1316.19 1559.17 1313.55 1559.17 1310.91 1559.17 1308.77 1557.03 1308.77 1554.39 1308.77 1551.74 1310.91 1549.6 1313.55 1549.6 1316.19 1549.6 1318.34 1551.74 1318.34 1554.39Z" fill="#FFFFFF"/><path d="M1312.51 1519.57C1312.51 1522.76 1309.92 1525.35 1306.73 1525.35 1303.54 1525.35 1300.96 1522.76 1300.96 1519.57 1300.96 1516.38 1303.54 1513.8 1306.73 1513.8 1309.92 1513.8 1312.51 1516.38 1312.51 1519.57Z" fill="#50E6FF"/><path d="M1324.11 1531.18C1324.11 1534.36 1321.52 1536.95 1318.34 1536.95 1315.15 1536.95 1312.56 1534.36 1312.56 1531.18 1312.56 1527.99 1315.15 1525.4 1318.34 1525.4 1321.52 1525.4 1324.11 1527.99 1324.11 1531.18Z" fill="url(#fill30)"/><path d="M1319.33 1554.39C1319.33 1557.57 1316.74 1560.16 1313.55 1560.16 1310.36 1560.16 1307.78 1557.57 1307.78 1554.39 1307.78 1551.2 1310.36 1548.61 1313.55 1548.61 1316.74 1548.61 1319.33 1551.2 1319.33 1554.39Z" fill="url(#fill31)"/><path d="M1307.67 1542.78C1307.67 1545.97 1305.08 1548.56 1301.89 1548.56 1298.7 1548.56 1296.12 1545.97 1296.12 1542.78 1296.12 1539.59 1298.7 1537.01 1301.89 1537.01 1305.08 1537.01 1307.67 1539.59 1307.67 1542.78Z" fill="#50E6FF"/><path d="M1252.89 1495.87 1259.98 1495.87 1259.98 1495.87 1259.98 1515.5C1259.98 1516.38 1259.27 1517.1 1258.39 1517.1L1251.35 1517.1C1250.46 1517.1 1249.75 1516.38 1249.75 1515.5L1249.75 1499C1249.75 1497.27 1251.15 1495.87 1252.89 1495.87Z" fill="#999999"/><path d="M1252.89 1495.87 1259.98 1495.87 1259.98 1495.87 1259.98 1515.5C1259.98 1516.38 1259.27 1517.1 1258.39 1517.1L1251.35 1517.1C1250.46 1517.1 1249.75 1516.38 1249.75 1515.5L1249.75 1499C1249.75 1497.27 1251.15 1495.87 1252.89 1495.87Z" fill="#999999" fill-opacity="0.5"/><path d="M1333.02 1495.87 1340.12 1495.87C1341.85 1495.87 1343.25 1497.27 1343.25 1499L1343.25 1515.5C1343.25 1516.38 1342.54 1517.1 1341.66 1517.1L1334.56 1517.1C1333.7 1517.07 1333.02 1516.36 1333.02 1515.5L1333.02 1495.87 1333.02 1495.87Z" fill="#999999"/><path d="M1333.02 1495.87 1340.12 1495.87C1341.85 1495.87 1343.25 1497.27 1343.25 1499L1343.25 1515.5C1343.25 1516.38 1342.54 1517.1 1341.66 1517.1L1334.56 1517.1C1333.7 1517.07 1333.02 1516.36 1333.02 1515.5L1333.02 1495.87 1333.02 1495.87Z" fill="#999999" fill-opacity="0.5"/><path d="M1343.25 1499 1343.25 1505.88 1343.25 1505.88 1249.75 1505.88 1249.75 1505.88 1249.75 1499C1249.75 1497.27 1251.15 1495.87 1252.89 1495.87L1340.17 1495.87C1341.88 1495.9 1343.25 1497.29 1343.25 1499Z" fill="#949494"/><path d="M1251.35 1557.74 1258.44 1557.74C1259.32 1557.74 1260.04 1558.45 1260.04 1559.34L1260.04 1579.14 1260.04 1579.14 1252.89 1579.14C1251.15 1579.14 1249.75 1577.73 1249.75 1576L1249.75 1559.5C1249.66 1558.62 1250.3 1557.84 1251.17 1557.75 1251.23 1557.74 1251.29 1557.74 1251.35 1557.74Z" fill="#999999"/><path d="M1251.35 1557.74 1258.44 1557.74C1259.32 1557.74 1260.04 1558.45 1260.04 1559.34L1260.04 1579.14 1260.04 1579.14 1252.89 1579.14C1251.15 1579.14 1249.75 1577.73 1249.75 1576L1249.75 1559.5C1249.66 1558.62 1250.3 1557.84 1251.17 1557.75 1251.23 1557.74 1251.29 1557.74 1251.35 1557.74Z" fill="#999999" fill-opacity="0.5"/><path d="M1334.56 1557.74 1341.66 1557.74C1342.54 1557.74 1343.25 1558.45 1343.25 1559.34L1343.25 1575.84C1343.25 1577.57 1341.85 1578.97 1340.12 1578.97L1333.02 1578.97 1333.02 1578.97 1333.02 1559.5C1332.93 1558.62 1333.56 1557.84 1334.44 1557.75 1334.48 1557.74 1334.52 1557.74 1334.56 1557.74Z" fill="#999999"/><path d="M1334.56 1557.74 1341.66 1557.74C1342.54 1557.74 1343.25 1558.45 1343.25 1559.34L1343.25 1575.84C1343.25 1577.57 1341.85 1578.97 1340.12 1578.97L1333.02 1578.97 1333.02 1578.97 1333.02 1559.5C1332.93 1558.62 1333.56 1557.84 1334.44 1557.75 1334.48 1557.74 1334.52 1557.74 1334.56 1557.74Z" fill="#999999" fill-opacity="0.5"/><path d="M1249.75 1576 1249.75 1569.13 1249.75 1569.13 1343.25 1569.13 1343.25 1569.13 1343.25 1576C1343.25 1577.73 1341.85 1579.14 1340.12 1579.14L1252.89 1579.14C1251.15 1579.14 1249.75 1577.73 1249.75 1576Z" fill="#949494"/></g></g></g><g><g><g><path d="M1327.2 1169.07C1326.79 1154.57 1314.75 1143.12 1300.25 1143.42 1288.71 1143.31 1278.34 1150.49 1274.39 1161.34 1262.05 1163.04 1252.82 1173.54 1252.72 1186 1253.22 1199.94 1264.86 1210.87 1278.8 1210.5 1279.56 1210.55 1280.33 1210.55 1281.09 1210.5L1287.62 1210.5C1287.22 1209.53 1287.02 1208.5 1287.02 1207.45L1287.02 1207.45C1287.04 1206.06 1287.42 1204.69 1288.11 1203.48L1280.49 1203.48 1278.8 1203.48C1268.73 1203.82 1260.22 1196.06 1259.64 1186 1259.73 1176.94 1266.49 1169.34 1275.48 1168.2L1279.62 1167.54 1280.98 1163.57C1283.97 1155.53 1291.68 1150.24 1300.25 1150.34 1310.93 1150.09 1319.85 1158.45 1320.29 1169.12L1320.29 1175.11 1326.22 1175.93C1333.1 1176.81 1338.31 1182.56 1338.53 1189.48 1338.26 1197.18 1331.96 1203.29 1324.26 1203.31L1323.45 1203.31 1323.01 1203.31 1317.57 1203.31C1315.63 1193.22 1306.77 1185.95 1296.5 1186 1294.59 1185.76 1292.84 1187.11 1292.6 1189.02 1292.36 1190.93 1293.72 1192.67 1295.63 1192.91 1295.91 1192.95 1296.21 1192.95 1296.5 1192.91 1304.45 1193.4 1310.5 1200.25 1310.01 1208.2 1309.56 1215.47 1303.77 1221.27 1296.5 1221.72 1294.59 1221.48 1292.84 1222.83 1292.6 1224.74 1292.36 1226.65 1293.72 1228.39 1295.63 1228.63 1295.91 1228.67 1296.21 1228.67 1296.5 1228.63 1307.05 1228.61 1316 1220.88 1317.57 1210.45L1323.28 1210.45C1323.64 1210.5 1324.01 1210.5 1324.37 1210.45 1335.85 1210.24 1345.1 1200.97 1345.28 1189.48 1345.08 1179.16 1337.42 1170.51 1327.2 1169.07Z" fill="url(#fill32)"/><path d="M1295.62 1198.79C1300.25 1198.79 1304.01 1202.55 1304.01 1207.18L1304.01 1207.4C1304.01 1212.03 1300.25 1215.78 1295.62 1215.78L1295.41 1215.78C1290.78 1215.78 1287.02 1212.03 1287.02 1207.4L1287.02 1207.18C1287.02 1202.55 1290.78 1198.79 1295.41 1198.79Z" fill="url(#fill33)"/></g></g></g><text font-family="Segoe UI,Segoe UI_MSFontService,sans-serif" font-weight="400" font-size="18" transform="matrix(1 0 0 1 1224.25 1260)">API Management</text><text font-family="Segoe UI,Segoe UI_MSFontService,sans-serif" font-weight="400" font-size="23" transform="matrix(1 0 0 1 1206.49 1286)">Vehicle, Device &amp; </text><text font-family="Segoe UI,Segoe UI_MSFontService,sans-serif" font-weight="400" font-size="23" transform="matrix(1 0 0 1 1207.94 1314)">Cert Provisioning</text><path d="M1673.5 1350.18C1673.5 1343.73 1678.73 1338.5 1685.18 1338.5L1870.82 1338.5C1877.27 1338.5 1882.5 1343.73 1882.5 1350.18L1882.5 1456.82C1882.5 1463.27 1877.27 1468.5 1870.82 1468.5L1685.18 1468.5C1678.73 1468.5 1673.5 1463.27 1673.5 1456.82Z" stroke="#000000" stroke-width="3.4375" stroke-linejoin="round" stroke-miterlimit="10" fill="#FFFFFF" fill-rule="evenodd"/><text font-family="Segoe UI,Segoe UI_MSFontService,sans-serif" font-weight="400" font-size="28" transform="matrix(1 0 0 1 1751.68 1381)">D2C </text><text font-family="Segoe UI,Segoe UI_MSFontService,sans-serif" font-weight="400" font-size="28" transform="matrix(1 0 0 1 1712.72 1414)">Processing </text><text font-family="Segoe UI,Segoe UI_MSFontService,sans-serif" font-weight="400" font-size="28" transform="matrix(1 0 0 1 1745.08 1447)">Logic</text><g filter="url(#fx12)" transform="translate(1577 1338)"><g><path d="M22.0001 67.8751C22.0001 42.4699 42.595 21.875 68 21.875 93.405 21.875 114 42.4699 114 67.8751 114 93.2802 93.405 113.875 68 113.875 42.595 113.875 22.0001 93.2802 22.0001 67.8751Z" fill="#7030A0" fill-rule="evenodd"/></g></g><g clip-path="url(#clip34)" filter="url(#fx13)" transform="translate(1549 1326)"><g><path d="M17.0937 0.5625C14.4479 0.5625 12.0573 0.0989583 9.92187-0.828125 7.78646-1.75521 6.09375-3.08854 4.84375-4.82812 3.59375-6.56771 2.96875-8.66667 2.96875-11.125L8.3125-11.125C8.3125-8.89583 9.13021-7.13542 10.7656-5.84375 12.401-4.55208 14.5104-3.90625 17.0937-3.90625 19.8229-3.90625 21.9479-4.6875 23.4687-6.25 24.9896-7.8125 25.75-10.125 25.75-13.1875 25.75-16.2083 24.9844-18.4427 23.4531-19.8906 21.9219-21.3385 19.8542-22.0625 17.25-22.0625 15.3125-22.0625 13.7135-21.7865 12.4531-21.2344 11.1927-20.6823 10.1458-19.9167 9.3125-18.9375L4.59375-18.9375 6.375-40.7812 28.375-40.7812 28.375-36.125 10.5625-36.125 9.46875-23.2187C10.2396-24.0937 11.3073-24.8542 12.6719-25.5 14.0365-26.1458 15.8021-26.4687 17.9687-26.4687 20.3854-26.4687 22.5937-26 24.5937-25.0625 26.5937-24.125 28.1927-22.6771 29.3906-20.7187 30.5885-18.7604 31.1875-16.25 31.1875-13.1875 31.1875-10.2083 30.5833-7.69792 29.375-5.65625 28.1667-3.61458 26.5052-2.06771 24.3906-1.01562 22.276 0.0364583 19.8437 0.5625 17.0937 0.5625ZM54.1875 0.5625C51.9375 0.5625 50.0208 0.130208 48.4375-0.734375 46.8542-1.59896 45.5625-2.79167 44.5625-4.3125L44.2812 0 39.4062 0 39.4062-42.0625 44.625-42.0625 44.625-25.5625C45.6875-27.1667 47.0781-28.4687 48.7969-29.4687 50.5156-30.4687 52.5312-30.9687 54.8437-30.9687 57.3229-30.9687 59.4687-30.3802 61.2812-29.2031 63.0937-28.026 64.4948-26.2708 65.4844-23.9375 66.4739-21.6042 66.9687-18.6979 66.9687-15.2187 66.9687-11.7604 66.4427-8.85937 65.3906-6.51562 64.3385-4.17188 62.8542-2.40625 60.9375-1.21875 59.0208-0.03125 56.7708 0.5625 54.1875 0.5625ZM53.2187-3.71875C55.9687-3.71875 58.0521-4.71354 59.4687-6.70312 60.8854-8.69271 61.5937-11.5104 61.5937-15.1562 61.5937-18.9062 60.9323-21.7812 59.6094-23.7812 58.2864-25.7812 56.3333-26.7812 53.75-26.7812 51.5625-26.7812 49.7135-26.1979 48.2031-25.0312 46.6927-23.8646 45.5-22.4479 44.625-20.7812L44.625-9.0625C45.4375-7.52083 46.5521-6.24479 47.9687-5.23437 49.3854-4.22396 51.1354-3.71875 53.2187-3.71875Z" fill="#FFFFFF" transform="matrix(1 0 0 1 60.3746 101)"/></g></g><path d="M1599 1399C1599 1373.59 1619.59 1353 1645 1353 1670.41 1353 1691 1373.59 1691 1399 1691 1424.41 1670.41 1445 1645 1445 1619.59 1445 1599 1424.41 1599 1399Z" fill="#7030A0" fill-rule="evenodd"/><text fill="#FFFFFF" font-family="Aptos,Aptos_MSFontService,sans-serif" font-weight="400" font-size="64" transform="matrix(1 0 0 1 1609.37 1420)">5b</text><g filter="url(#fx14)" transform="translate(2304 1201)"><g><path d="M22.0002 67.8749C22.0002 42.4698 42.5951 21.8749 68.0001 21.8749 93.4052 21.8749 114 42.4698 114 67.8749 114 93.2801 93.4052 113.875 68.0001 113.875 42.5951 113.875 22.0002 93.2801 22.0002 67.8749Z" fill="#FF0000" fill-rule="evenodd"/></g></g><g clip-path="url(#clip35)" filter="url(#fx15)" transform="translate(2277 1190)"><g><path d="M17.0937 0.5625C14.4479 0.5625 12.0573 0.0989583 9.92187-0.828125 7.78646-1.75521 6.09375-3.08854 4.84375-4.82812 3.59375-6.56771 2.96875-8.66667 2.96875-11.125L8.3125-11.125C8.3125-8.89583 9.13021-7.13542 10.7656-5.84375 12.401-4.55208 14.5104-3.90625 17.0937-3.90625 19.8229-3.90625 21.9479-4.6875 23.4687-6.25 24.9896-7.8125 25.75-10.125 25.75-13.1875 25.75-16.2083 24.9844-18.4427 23.4531-19.8906 21.9219-21.3385 19.8542-22.0625 17.25-22.0625 15.3125-22.0625 13.7135-21.7865 12.4531-21.2344 11.1927-20.6823 10.1458-19.9167 9.3125-18.9375L4.59375-18.9375 6.375-40.7812 28.375-40.7812 28.375-36.125 10.5625-36.125 9.46875-23.2187C10.2396-24.0937 11.3073-24.8542 12.6719-25.5 14.0365-26.1458 15.8021-26.4687 17.9687-26.4687 20.3854-26.4687 22.5937-26 24.5937-25.0625 26.5937-24.125 28.1927-22.6771 29.3906-20.7187 30.5885-18.7604 31.1875-16.25 31.1875-13.1875 31.1875-10.2083 30.5833-7.69792 29.375-5.65625 28.1667-3.61458 26.5052-2.06771 24.3906-1.01562 22.276 0.0364583 19.8437 0.5625 17.0937 0.5625ZM47.25 0.5625C45.5 0.5625 43.901 0.229167 42.4531-0.4375 41.0052-1.10417 39.849-2.08854 38.9844-3.39062 38.1198-4.69271 37.6875-6.30208 37.6875-8.21875 37.6875-10.9479 38.5417-13.0208 40.25-14.4375 41.9583-15.8542 44.375-16.8177 47.5-17.3281 50.625-17.8385 54.2812-18.1146 58.4687-18.1562L58.4687-20.2812C58.4687-22.8854 57.8229-24.6719 56.5312-25.6406 55.2396-26.6094 53.6042-27.0937 51.625-27.0937 49.5208-27.0937 47.75-26.5625 46.3125-25.5 44.875-24.4375 44.1562-22.7604 44.1562-20.4687L39.0937-20.4687C39.0937-22.9687 39.6302-24.9896 40.7031-26.5312 41.776-28.0729 43.2552-29.1979 45.1406-29.9062 47.026-30.6146 49.1875-30.9687 51.625-30.9687 53.1875-30.9687 54.6823-30.8229 56.1094-30.5312 57.5364-30.2396 58.8177-29.7083 59.9531-28.9375 61.0885-28.1667 61.9896-27.0885 62.6562-25.7031 63.3229-24.3177 63.6562-22.5312 63.6562-20.3437L63.6562 0 58.7812 0 58.5625-4.625C57.1667-3.0625 55.5469-1.80729 53.7031-0.859375 51.8594 0.0885416 49.7083 0.5625 47.25 0.5625ZM48.625-3.4375C50.7083-3.4375 52.5833-3.92708 54.25-4.90625 55.9167-5.88542 57.3125-7.125 58.4375-8.625L58.4375-14.8125C52.8958-14.75 48.9219-14.2292 46.5156-13.25 44.1094-12.2708 42.9062-10.6667 42.9062-8.4375 42.9062-6.91667 43.3906-5.70312 44.3594-4.79687 45.3281-3.89062 46.75-3.4375 48.625-3.4375Z" fill="#FFFFFF" transform="matrix(1 0 0 1 60.3083 100)"/></g></g><path d="M2326 1262C2326 1236.59 2346.6 1216 2372 1216 2397.41 1216 2418 1236.59 2418 1262 2418 1287.41 2397.41 1308 2372 1308 2346.6 1308 2326 1287.41 2326 1262Z" fill="url(#fill36)" fill-rule="evenodd"/><text fill="#FFFFFF" font-family="Aptos,Aptos_MSFontService,sans-serif" font-weight="400" font-size="64" transform="matrix(1 0 0 1 2337.31 1283)">5a</text><rect x="1397.5" y="1438.5" width="16.0001" height="51.9999" stroke="#FFFFFF" stroke-width="4.58333" stroke-miterlimit="8" fill="#FFFFFF"/><rect x="1397.5" y="1491.5" width="16.0001" height="50.9999" stroke="#FFFFFF" stroke-width="4.58333" stroke-miterlimit="8" fill="#FFFFFF"/><rect x="1397.5" y="1543.5" width="16.0001" height="51.9999" stroke="#FFFFFF" stroke-width="4.58333" stroke-miterlimit="8" fill="#FFFFFF"/><rect x="1397.5" y="1595.5" width="16.0001" height="52.0002" stroke="#FFFFFF" stroke-width="4.58333" stroke-miterlimit="8" fill="#FFFFFF"/><path d="M0-1.14583 55.2115-1.14583 55.2115 201.943 54.0657 200.798 889.588 200.798 889.588 203.089 52.9199 203.089 52.9199 0 54.0657 1.14583 0 1.14583ZM885.005 188.193 912.505 201.943 885.005 215.693Z" fill="#7F7F7F" transform="matrix(1 0 0 -1 1413 1463.94)"/><path d="M0-1.14583 93.8609-1.14583 93.8609 117.365 92.7151 116.22 162.513 116.22 162.513 118.511 91.5692 118.511 91.5692 0 92.7151 1.14583 0 1.14583ZM157.93 103.615 185.43 117.365 157.93 131.115Z" fill="#7F7F7F" transform="matrix(1 0 0 -1 1413 1516.37)"/><g filter="url(#fx16)" transform="translate(2693 1514)"><g><path d="M22 67.8751C22 42.4699 42.5949 21.875 68.0001 21.875 93.4052 21.875 114 42.4699 114 67.8751 114 93.2802 93.4052 113.875 68.0001 113.875 42.5949 113.875 22 93.2802 22 67.8751Z" fill="#FF0000" fill-rule="evenodd"/></g></g><g clip-path="url(#clip37)" filter="url(#fx17)" transform="translate(2666 1502)"><g><path d="M8.0625 0 25.8437-36 2.96875-36 2.96875-40.7812 31.1562-40.7812 31.1562-36.2187 13.75 0ZM47.25 0.5625C45.5 0.5625 43.901 0.229167 42.4531-0.4375 41.0052-1.10417 39.849-2.08854 38.9844-3.39062 38.1198-4.69271 37.6875-6.30208 37.6875-8.21875 37.6875-10.9479 38.5417-13.0208 40.25-14.4375 41.9583-15.8542 44.375-16.8177 47.5-17.3281 50.625-17.8385 54.2812-18.1146 58.4687-18.1562L58.4687-20.2812C58.4687-22.8854 57.8229-24.6719 56.5312-25.6406 55.2396-26.6094 53.6042-27.0937 51.625-27.0937 49.5208-27.0937 47.75-26.5625 46.3125-25.5 44.875-24.4375 44.1562-22.7604 44.1562-20.4687L39.0937-20.4687C39.0937-22.9687 39.6302-24.9896 40.7031-26.5312 41.776-28.0729 43.2552-29.1979 45.1406-29.9062 47.026-30.6146 49.1875-30.9687 51.625-30.9687 53.1875-30.9687 54.6823-30.8229 56.1094-30.5312 57.5364-30.2396 58.8177-29.7083 59.9531-28.9375 61.0885-28.1667 61.9896-27.0885 62.6562-25.7031 63.3229-24.3177 63.6562-22.5312 63.6562-20.3437L63.6562 0 58.7812 0 58.5625-4.625C57.1667-3.0625 55.5469-1.80729 53.7031-0.859375 51.8594 0.0885416 49.7083 0.5625 47.25 0.5625ZM48.625-3.4375C50.7083-3.4375 52.5833-3.92708 54.25-4.90625 55.9167-5.88542 57.3125-7.125 58.4375-8.625L58.4375-14.8125C52.8958-14.75 48.9219-14.2292 46.5156-13.25 44.1094-12.2708 42.9062-10.6667 42.9062-8.4375 42.9062-6.91667 43.3906-5.70312 44.3594-4.79687 45.3281-3.89062 46.75-3.4375 48.625-3.4375Z" fill="#FFFFFF" transform="matrix(1 0 0 1 60.3169 100)"/></g></g><path d="M2715 1575C2715 1549.59 2735.59 1529 2761 1529 2786.41 1529 2807 1549.59 2807 1575 2807 1600.41 2786.41 1621 2761 1621 2735.59 1621 2715 1600.41 2715 1575Z" fill="url(#fill38)" fill-rule="evenodd"/><text fill="#FFFFFF" font-family="Aptos,Aptos_MSFontService,sans-serif" font-weight="400" font-size="64" transform="matrix(1 0 0 1 2726.32 1596)">7a</text><path d="M3.17724e-07-1.14583 1278.6-1.14548 1278.6 1.14619-3.17724e-07 1.14583ZM1274.01-13.7496 1301.51 0.000360892 1274.01 13.7504Z" fill="#7F7F7F" transform="matrix(-1 0 0 1 2714.51 1575)"/><path d="M1553.33 1690.44 1482.02 1690.44 1482.02 1621 1483.17 1622.15 1435.92 1622.15 1435.92 1619.85 1484.31 1619.85 1484.31 1689.29 1483.17 1688.14 1553.33 1688.14ZM1440.5 1634.75 1413 1621 1440.5 1607.25Z" fill="#7F7F7F"/><rect x="1165.5" y="1335.5" width="271" height="61.9999" stroke="#000000" stroke-width="3.4375" stroke-linejoin="round" stroke-miterlimit="10" fill="none"/><text font-family="Segoe UI,Segoe UI_MSFontService,sans-serif" font-weight="400" font-size="23" transform="matrix(1 0 0 1 1199.85 1374)">API Implementation</text></g></svg>