<svg width="2645" height="1683" xmlns="http://www.w3.org/2000/svg" xmlns:xlink="http://www.w3.org/1999/xlink" xml:space="preserve" overflow="hidden"><defs><filter id="fx0" x="-10%" y="-10%" width="120%" height="120%" filterUnits="userSpaceOnUse" primitiveUnits="userSpaceOnUse"><feComponentTransfer color-interpolation-filters="sRGB"><feFuncR type="discrete" tableValues="0 0"/><feFuncG type="discrete" tableValues="0 0"/><feFuncB type="discrete" tableValues="0 0"/><feFuncA type="linear" slope="0.631373" intercept="0"/></feComponentTransfer><feGaussianBlur stdDeviation="6.875 6.875"/></filter><filter id="fx1" x="-10%" y="-10%" width="120%" height="120%" filterUnits="userSpaceOnUse" primitiveUnits="userSpaceOnUse"><feComponentTransfer color-interpolation-filters="sRGB"><feFuncR type="discrete" tableValues="0 0"/><feFuncG type="discrete" tableValues="0 0"/><feFuncB type="discrete" tableValues="0 0"/><feFuncA type="linear" slope="0.631373" intercept="0"/></feComponentTransfer><feGaussianBlur stdDeviation="6.875 6.875"/></filter><filter id="fx2" x="-10%" y="-10%" width="120%" height="120%" filterUnits="userSpaceOnUse" primitiveUnits="userSpaceOnUse"><feComponentTransfer color-interpolation-filters="sRGB"><feFuncR type="discrete" tableValues="0 0"/><feFuncG type="discrete" tableValues="0 0"/><feFuncB type="discrete" tableValues="0 0"/><feFuncA type="linear" slope="0.631373" intercept="0"/></feComponentTransfer><feGaussianBlur stdDeviation="6.875 6.875"/></filter><filter id="fx3" x="-10%" y="-10%" width="120%" height="120%" filterUnits="userSpaceOnUse" primitiveUnits="userSpaceOnUse"><feComponentTransfer color-interpolation-filters="sRGB"><feFuncR type="discrete" tableValues="0 0"/><feFuncG type="discrete" tableValues="0 0"/><feFuncB type="discrete" tableValues="0 0"/><feFuncA type="linear" slope="0.631373" intercept="0"/></feComponentTransfer><feGaussianBlur stdDeviation="6.875 6.875"/></filter><filter id="fx4" x="-10%" y="-10%" width="120%" height="120%" filterUnits="userSpaceOnUse" primitiveUnits="userSpaceOnUse"><feComponentTransfer color-interpolation-filters="sRGB"><feFuncR type="discrete" tableValues="0 0"/><feFuncG type="discrete" tableValues="0 0"/><feFuncB type="discrete" tableValues="0 0"/><feFuncA type="linear" slope="0.631373" intercept="0"/></feComponentTransfer><feGaussianBlur stdDeviation="6.875 6.875"/></filter><filter id="fx5" x="-10%" y="-10%" width="120%" height="120%" filterUnits="userSpaceOnUse" primitiveUnits="userSpaceOnUse"><feComponentTransfer color-interpolation-filters="sRGB"><feFuncR type="discrete" tableValues="0 0"/><feFuncG type="discrete" tableValues="0 0"/><feFuncB type="discrete" tableValues="0 0"/><feFuncA type="linear" slope="0.631373" intercept="0"/></feComponentTransfer><feGaussianBlur stdDeviation="6.875 6.875"/></filter><filter id="fx6" x="-10%" y="-10%" width="120%" height="120%" filterUnits="userSpaceOnUse" primitiveUnits="userSpaceOnUse"><feComponentTransfer color-interpolation-filters="sRGB"><feFuncR type="discrete" tableValues="0 0"/><feFuncG type="discrete" tableValues="0 0"/><feFuncB type="discrete" tableValues="0 0"/><feFuncA type="linear" slope="0.631373" intercept="0"/></feComponentTransfer><feGaussianBlur stdDeviation="6.875 6.875"/></filter><filter id="fx7" x="-10%" y="-10%" width="120%" height="120%" filterUnits="userSpaceOnUse" primitiveUnits="userSpaceOnUse"><feComponentTransfer color-interpolation-filters="sRGB"><feFuncR type="discrete" tableValues="0 0"/><feFuncG type="discrete" tableValues="0 0"/><feFuncB type="discrete" tableValues="0 0"/><feFuncA type="linear" slope="0.631373" intercept="0"/></feComponentTransfer><feGaussianBlur stdDeviation="6.875 6.875"/></filter><filter id="fx8" x="-10%" y="-10%" width="120%" height="120%" filterUnits="userSpaceOnUse" primitiveUnits="userSpaceOnUse"><feComponentTransfer color-interpolation-filters="sRGB"><feFuncR type="discrete" tableValues="0 0"/><feFuncG type="discrete" tableValues="0 0"/><feFuncB type="discrete" tableValues="0 0"/><feFuncA type="linear" slope="0.631373" intercept="0"/></feComponentTransfer><feGaussianBlur stdDeviation="6.875 6.875"/></filter><filter id="fx9" x="-10%" y="-10%" width="120%" height="120%" filterUnits="userSpaceOnUse" primitiveUnits="userSpaceOnUse"><feComponentTransfer color-interpolation-filters="sRGB"><feFuncR type="discrete" tableValues="0 0"/><feFuncG type="discrete" tableValues="0 0"/><feFuncB type="discrete" tableValues="0 0"/><feFuncA type="linear" slope="0.631373" intercept="0"/></feComponentTransfer><feGaussianBlur stdDeviation="6.875 6.875"/></filter><filter id="fx10" x="-10%" y="-10%" width="120%" height="120%" filterUnits="userSpaceOnUse" primitiveUnits="userSpaceOnUse"><feComponentTransfer color-interpolation-filters="sRGB"><feFuncR type="discrete" tableValues="0 0"/><feFuncG type="discrete" tableValues="0 0"/><feFuncB type="discrete" tableValues="0 0"/><feFuncA type="linear" slope="0.631373" intercept="0"/></feComponentTransfer><feGaussianBlur stdDeviation="6.875 6.875"/></filter><filter id="fx11" x="-10%" y="-10%" width="120%" height="120%" filterUnits="userSpaceOnUse" primitiveUnits="userSpaceOnUse"><feComponentTransfer color-interpolation-filters="sRGB"><feFuncR type="discrete" tableValues="0 0"/><feFuncG type="discrete" tableValues="0 0"/><feFuncB type="discrete" tableValues="0 0"/><feFuncA type="linear" slope="0.631373" intercept="0"/></feComponentTransfer><feGaussianBlur stdDeviation="6.875 6.875"/></filter><filter id="fx12" x="-10%" y="-10%" width="120%" height="120%" filterUnits="userSpaceOnUse" primitiveUnits="userSpaceOnUse"><feComponentTransfer color-interpolation-filters="sRGB"><feFuncR type="discrete" tableValues="0 0"/><feFuncG type="discrete" tableValues="0 0"/><feFuncB type="discrete" tableValues="0 0"/><feFuncA type="linear" slope="0.631373" intercept="0"/></feComponentTransfer><feGaussianBlur stdDeviation="6.875 6.875"/></filter><filter id="fx13" x="-10%" y="-10%" width="120%" height="120%" filterUnits="userSpaceOnUse" primitiveUnits="userSpaceOnUse"><feComponentTransfer color-interpolation-filters="sRGB"><feFuncR type="discrete" tableValues="0 0"/><feFuncG type="discrete" tableValues="0 0"/><feFuncB type="discrete" tableValues="0 0"/><feFuncA type="linear" slope="0.631373" intercept="0"/></feComponentTransfer><feGaussianBlur stdDeviation="6.875 6.875"/></filter><filter id="fx14" x="-10%" y="-10%" width="120%" height="120%" filterUnits="userSpaceOnUse" primitiveUnits="userSpaceOnUse"><feComponentTransfer color-interpolation-filters="sRGB"><feFuncR type="discrete" tableValues="0 0"/><feFuncG type="discrete" tableValues="0 0"/><feFuncB type="discrete" tableValues="0 0"/><feFuncA type="linear" slope="0.631373" intercept="0"/></feComponentTransfer><feGaussianBlur stdDeviation="6.875 6.875"/></filter><filter id="fx15" x="-10%" y="-10%" width="120%" height="120%" filterUnits="userSpaceOnUse" primitiveUnits="userSpaceOnUse"><feComponentTransfer color-interpolation-filters="sRGB"><feFuncR type="discrete" tableValues="0 0"/><feFuncG type="discrete" tableValues="0 0"/><feFuncB type="discrete" tableValues="0 0"/><feFuncA type="linear" slope="0.631373" intercept="0"/></feComponentTransfer><feGaussianBlur stdDeviation="6.875 6.875"/></filter><linearGradient x1="2512.5" y1="1151.64" x2="2512.5" y2="1067.36" gradientUnits="userSpaceOnUse" spreadMethod="pad" id="fill16"><stop offset="0" stop-color="#198AB3"/><stop offset="0.09" stop-color="#1F9DC4"/><stop offset="0.24" stop-color="#28B5D9"/><stop offset="0.4" stop-color="#2DC6E9"/><stop offset="0.57" stop-color="#31D1F2"/><stop offset="0.78" stop-color="#32D4F5"/><stop offset="1" stop-color="#32D4F5"/></linearGradient><linearGradient x1="2509.05" y1="1122.16" x2="2509.05" y2="1138.92" gradientUnits="userSpaceOnUse" spreadMethod="pad" id="fill17"><stop offset="0" stop-color="#C69AEB"/><stop offset="1" stop-color="#6F4BB2"/></linearGradient><clipPath id="clip18"><rect x="38" y="34" width="81" height="92"/></clipPath><linearGradient x1="2071" y1="849" x2="2071" y2="941" gradientUnits="userSpaceOnUse" spreadMethod="reflect" id="fill19"><stop offset="0" stop-color="#81B861"/><stop offset="0.5" stop-color="#6FB242"/><stop offset="1" stop-color="#61A235"/></linearGradient><clipPath id="clip20"><rect x="38" y="34" width="77" height="92"/></clipPath><linearGradient x1="1353" y1="1865" x2="1353" y2="1957" gradientUnits="userSpaceOnUse" spreadMethod="reflect" id="fill21"><stop offset="0" stop-color="#81B861"/><stop offset="0.5" stop-color="#6FB242"/><stop offset="1" stop-color="#61A235"/></linearGradient><clipPath id="clip22"><rect x="38" y="34" width="77" height="92"/></clipPath><linearGradient x1="2157" y1="1865" x2="2157" y2="1957" gradientUnits="userSpaceOnUse" spreadMethod="reflect" id="fill23"><stop offset="0" stop-color="#81B861"/><stop offset="0.5" stop-color="#6FB242"/><stop offset="1" stop-color="#61A235"/></linearGradient><clipPath id="clip24"><rect x="38" y="34" width="77" height="92"/></clipPath><linearGradient x1="2996" y1="849" x2="2996" y2="941" gradientUnits="userSpaceOnUse" spreadMethod="reflect" id="fill25"><stop offset="0" stop-color="#81B861"/><stop offset="0.5" stop-color="#6FB242"/><stop offset="1" stop-color="#61A235"/></linearGradient><linearGradient x1="2096.53" y1="1865.79" x2="2096.53" y2="1877.32" gradientUnits="userSpaceOnUse" spreadMethod="pad" id="fill26"><stop offset="0" stop-color="#C69AEB"/><stop offset="1" stop-color="#6F4BB2"/></linearGradient><linearGradient x1="2091.77" y1="1889.03" x2="2091.77" y2="1900.53" gradientUnits="userSpaceOnUse" spreadMethod="pad" id="fill27"><stop offset="0" stop-color="#C69AEB"/><stop offset="1" stop-color="#6F4BB2"/></linearGradient><radialGradient cx="-105.006" cy="-10.409" r="5.954" gradientUnits="userSpaceOnUse" spreadMethod="pad" id="fill28" gradientTransform="matrix(7.59733 0 0 7.53133 3478.42 1563.06)"><stop offset="0" stop-color="#5EA0EF"/><stop offset="0.183" stop-color="#5EA0EF"/><stop offset="1" stop-color="#0078D4"/></radialGradient><clipPath id="clip29"><path d="M2724.77 1474.22C2730.55 1498.4 2715.63 1522.68 2691.46 1528.45 2667.28 1534.23 2643 1519.31 2637.23 1495.14 2631.45 1470.96 2646.37 1446.68 2670.54 1440.9 2694.72 1435.13 2719 1450.05 2724.77 1474.22Z"/></clipPath><clipPath id="clip30"><rect x="38" y="34" width="81" height="92"/></clipPath><linearGradient x1="2038" y1="1546" x2="2038" y2="1638" gradientUnits="userSpaceOnUse" spreadMethod="reflect" id="fill31"><stop offset="0" stop-color="#81B861"/><stop offset="0.5" stop-color="#6FB242"/><stop offset="1" stop-color="#61A235"/></linearGradient><clipPath id="clip32"><rect x="41" y="34" width="67" height="92"/></clipPath><linearGradient x1="1852" y1="756" x2="1852" y2="848" gradientUnits="userSpaceOnUse" spreadMethod="reflect" id="fill33"><stop offset="0" stop-color="#81B861"/><stop offset="0.5" stop-color="#6FB242"/><stop offset="1" stop-color="#61A235"/></linearGradient><clipPath id="clip34"><rect x="38" y="34" width="110" height="92"/></clipPath><linearGradient x1="1877" y1="1976" x2="1877" y2="2068" gradientUnits="userSpaceOnUse" spreadMethod="reflect" id="fill35"><stop offset="0" stop-color="#81B861"/><stop offset="0.5" stop-color="#6FB242"/><stop offset="1" stop-color="#61A235"/></linearGradient><clipPath id="clip36"><rect x="38" y="34" width="77" height="92"/></clipPath><linearGradient x1="1350" y1="1439" x2="1350" y2="1531" gradientUnits="userSpaceOnUse" spreadMethod="reflect" id="fill37"><stop offset="0" stop-color="#81B861"/><stop offset="0.5" stop-color="#6FB242"/><stop offset="1" stop-color="#61A235"/></linearGradient></defs><g transform="translate(-706 -518)"><path d="M706 562.5C706 537.923 725.923 518 750.5 518L3306.5 518C3331.08 518 3351 537.923 3351 562.5L3351 2156.5C3351 2181.08 3331.08 2201 3306.5 2201L750.5 2201C725.923 2201 706 2181.08 706 2156.5Z" fill="#FFFFFF" fill-rule="evenodd"/><rect x="798.5" y="1054.5" width="604" height="1080" stroke="#000000" stroke-width="4.58333" stroke-miterlimit="8" fill="#F2F2F2"/><text font-family="Segoe UI,Segoe UI_MSFontService,sans-serif" font-weight="400" font-size="55" transform="matrix(1 0 0 1 1014.87 1124)">Vehicle</text><rect x="827.5" y="1191.5" width="527" height="883" stroke="#000000" stroke-width="4.58333" stroke-miterlimit="8" fill="#F2F2F2"/><text font-family="Segoe UI,Segoe UI_MSFontService,sans-serif" font-weight="400" font-size="55" transform="matrix(1 0 0 1 1010.36 1262)">Device</text><rect x="847.5" y="1215.5" width="528" height="883" stroke="#000000" stroke-width="4.58333" stroke-miterlimit="8" fill="#F2F2F2"/><text font-family="Segoe UI,Segoe UI_MSFontService,sans-serif" font-weight="400" font-size="55" transform="matrix(1 0 0 1 1030.49 1286)">Device</text><rect x="2578.5" y="1054.5" width="38.0002" height="37.9998" stroke="#FFFFFF" stroke-width="4.58333" stroke-miterlimit="8" fill="#FFFFFF"/><path d="M1494.5 574.5 1494.5 2133.93" stroke="#A6A6A6" stroke-width="6.875" stroke-miterlimit="8" stroke-dasharray="27.5 20.625 6.875 20.625" fill="none" fill-rule="evenodd"/><rect x="1715.5" y="1052.5" width="1578" height="1082" stroke="#000000" stroke-width="4.58333" stroke-miterlimit="8" fill="none"/><text font-family="Segoe UI,Segoe UI_MSFontService,sans-serif" font-weight="400" font-size="55" transform="matrix(1 0 0 1 2174.24 2105)">Vehicle Messaging Services</text><rect x="1715.5" y="574.5" width="1578" height="400" stroke="#000000" stroke-width="4.58333" stroke-miterlimit="8" fill="#F2F2F2"/><text font-family="Segoe UI,Segoe UI_MSFontService,sans-serif" font-weight="400" font-size="55" transform="matrix(1 0 0 1 2011.2 645)">Vehicle &amp; Device Management Back</text><text font-family="Segoe UI,Segoe UI_MSFontService,sans-serif" font-weight="400" font-size="55" transform="matrix(1 0 0 1 2882.01 645)">-</text><text font-family="Segoe UI,Segoe UI_MSFontService,sans-serif" font-weight="400" font-size="55" transform="matrix(1 0 0 1 2903.78 645)">end</text><rect x="1864.5" y="711.5" width="415" height="185" stroke="#7F7F7F" stroke-width="4.58333" stroke-miterlimit="8" fill="#FFFFFF"/><text font-family="Segoe UI,Segoe UI_MSFontService,sans-serif" font-weight="400" font-size="41" transform="matrix(1 0 0 1 1933.96 819)">Factory System</text><g><g><g><path d="M2540.41 1092.74C2540 1078.39 2528.09 1067.06 2513.74 1067.36 2502.31 1067.24 2492.05 1074.35 2488.14 1085.09 2475.92 1086.77 2466.79 1097.17 2466.69 1109.5 2467.19 1123.29 2478.71 1134.11 2492.51 1133.75 2493.26 1133.8 2494.02 1133.8 2494.77 1133.75L2501.24 1133.75C2500.84 1132.79 2500.64 1131.77 2500.64 1130.73L2500.64 1130.73C2500.66 1129.35 2501.03 1128 2501.72 1126.8L2494.18 1126.8 2492.51 1126.8C2482.54 1127.14 2474.12 1119.46 2473.54 1109.5 2473.63 1100.53 2480.32 1093.01 2489.22 1091.88L2493.32 1091.23 2494.66 1087.3C2497.62 1079.34 2505.25 1074.1 2513.74 1074.2 2524.31 1073.96 2533.13 1082.23 2533.57 1092.79L2533.57 1098.72 2539.44 1099.53C2546.25 1100.4 2551.41 1106.09 2551.62 1112.95 2551.36 1120.57 2545.13 1126.61 2537.5 1126.64L2536.7 1126.64 2536.26 1126.64 2530.88 1126.64C2528.96 1116.65 2520.19 1109.45 2510.02 1109.5 2508.13 1109.26 2506.41 1110.6 2506.17 1112.49 2505.93 1114.38 2507.27 1116.11 2509.16 1116.34 2509.45 1116.38 2509.74 1116.38 2510.02 1116.34 2517.89 1116.83 2523.88 1123.6 2523.4 1131.47 2522.95 1138.67 2517.22 1144.41 2510.02 1144.85 2508.13 1144.61 2506.41 1145.95 2506.17 1147.84 2505.93 1149.73 2507.27 1151.46 2509.16 1151.7 2509.45 1151.73 2509.74 1151.73 2510.02 1151.7 2520.47 1151.68 2529.33 1144.03 2530.88 1133.7L2536.53 1133.7C2536.89 1133.75 2537.25 1133.75 2537.61 1133.7 2548.98 1133.49 2558.13 1124.31 2558.31 1112.95 2558.11 1102.73 2550.53 1094.17 2540.41 1092.74Z" fill="url(#fill16)"/><path d="M2509.16 1122.16C2513.74 1122.16 2517.46 1125.88 2517.46 1130.46L2517.46 1130.68C2517.46 1135.26 2513.74 1138.98 2509.16 1138.98L2508.94 1138.98C2504.36 1138.98 2500.64 1135.26 2500.64 1130.68L2500.64 1130.46C2500.64 1125.88 2504.36 1122.16 2508.94 1122.16Z" fill="url(#fill17)"/></g></g></g><text font-family="Segoe UI,Segoe UI_MSFontService,sans-serif" font-weight="400" font-size="28" transform="matrix(1 0 0 1 2408.49 1197)">API Management</text><text font-family="Segoe UI,Segoe UI_MSFontService,sans-serif" font-weight="400" font-size="32" transform="matrix(1 0 0 1 2389.59 1234)">Vehicle, Device &amp; </text><text font-family="Segoe UI,Segoe UI_MSFontService,sans-serif" font-weight="400" font-size="32" transform="matrix(1 0 0 1 2391.58 1273)">Cert Provisioning</text><g filter="url(#fx0)" transform="translate(2003 834)"><g><path d="M22 67.8749C22 42.4699 42.5949 21.8751 68.0001 21.8751 93.4052 21.8751 114 42.4699 114 67.8749 114 93.28 93.4052 113.875 68.0001 113.875 42.5949 113.875 22 93.28 22 67.8749Z" fill="#FF0000" fill-rule="evenodd"/></g></g><g clip-path="url(#clip18)" filter="url(#fx1)" transform="translate(1993 822)"><g><path d="M2.90625 0 2.90625-4.125 17.375-17.3437C19.875-19.6146 21.6875-21.6771 22.8125-23.5312 23.9375-25.3854 24.5-27.3333 24.5-29.375 24.5-31.5 23.9323-33.2448 22.7969-34.6094 21.6615-35.974 19.8021-36.6562 17.2187-36.6562 14.3021-36.6562 12.2135-35.901 10.9531-34.3906 9.69271-32.8802 9.0625-30.9792 9.0625-28.6875L3.84375-28.6875C3.84375-31.2292 4.33854-33.4479 5.32812-35.3437 6.31771-37.2396 7.80729-38.7083 9.79687-39.75 11.7865-40.7917 14.2604-41.3125 17.2187-41.3125 19.9271-41.3125 22.2292-40.8281 24.125-39.8594 26.0208-38.8906 27.4635-37.5312 28.4531-35.7812 29.4427-34.0312 29.9375-31.9687 29.9375-29.5937 29.9375-27.4687 29.526-25.5312 28.7031-23.7812 27.8802-22.0312 26.7708-20.3854 25.375-18.8437 23.9792-17.3021 22.4375-15.7708 20.75-14.25L10.0312-4.625 31.125-4.625 31.125 0Z" fill="#FFFFFF" transform="matrix(1 0 0 1 60.9829 101)"/></g></g><path d="M2025 895C2025 869.595 2045.59 849 2071 849 2096.41 849 2117 869.595 2117 895 2117 920.405 2096.41 941 2071 941 2045.59 941 2025 920.405 2025 895Z" fill="url(#fill19)" fill-rule="evenodd"/><text fill="#FFFFFF" font-family="Aptos,Aptos_MSFontService,sans-serif" font-weight="400" font-size="64" transform="matrix(1 0 0 1 2053.98 916)">2</text><rect x="2779.5" y="711.5" width="415" height="185" stroke="#7F7F7F" stroke-width="4.58333" stroke-miterlimit="8" fill="#FFFFFF"/><text font-family="Segoe UI,Segoe UI_MSFontService,sans-serif" font-weight="400" font-size="41" transform="matrix(1 0 0 1 2856.82 819)">Dealer System</text><path d="M1408.92 1483.85 1886.28 1483.85 1886.28 1486.15 1408.92 1486.15ZM1413.5 1498.75 1386 1485 1413.5 1471.25ZM1881.7 1471.25 1909.2 1485 1881.7 1498.75Z"/><rect x="877.5" y="1387.5" width="452" height="195" stroke="#7F7F7F" stroke-width="4.58333" stroke-miterlimit="8" fill="#FFFFFF"/><text font-family="Segoe UI,Segoe UI_MSFontService,sans-serif" font-weight="400" font-size="41" transform="matrix(1 0 0 1 925.621 1475)">Device Provisioning </text><text font-family="Segoe UI,Segoe UI_MSFontService,sans-serif" font-weight="400" font-size="41" transform="matrix(1 0 0 1 1050.82 1525)">Client</text><rect x="873.5" y="1814.5" width="452" height="195" stroke="#7F7F7F" stroke-width="4.58333" stroke-miterlimit="8" fill="#FFFFFF"/><text font-family="Segoe UI,Segoe UI_MSFontService,sans-serif" font-weight="400" font-size="41" transform="matrix(1 0 0 1 944.76 1907)">Cloud Connector</text><text font-family="Segoe UI,Segoe UI_MSFontService,sans-serif" font-style="italic" font-weight="400" font-size="32" transform="matrix(1 0 0 1 1016.08 1948)">MQTT client</text><text font-family="Segoe UI,Segoe UI_MSFontService,sans-serif" font-weight="400" font-size="32" transform="matrix(1 0 0 1 1965.35 2004)">Event Grid</text><text font-family="Segoe UI,Segoe UI_MSFontService,sans-serif" font-style="italic" font-weight="400" font-size="28" transform="matrix(1 0 0 1 1960.47 2038)">MQTT broker</text><g filter="url(#fx2)" transform="translate(1285 1850)"><g><path d="M21.9999 67.8749C21.9999 42.4698 42.5948 21.8749 67.9999 21.8749 93.4051 21.8749 114 42.4698 114 67.8749 114 93.2801 93.4051 113.875 67.9999 113.875 42.5948 113.875 21.9999 93.2801 21.9999 67.8749Z" fill="#FF0000" fill-rule="evenodd"/></g></g><g clip-path="url(#clip20)" filter="url(#fx3)" transform="translate(1275 1839)"><g><path d="M17.0937 0.5625C14.4479 0.5625 12.0573 0.0989583 9.92187-0.828125 7.78646-1.75521 6.09375-3.08854 4.84375-4.82812 3.59375-6.56771 2.96875-8.66667 2.96875-11.125L8.3125-11.125C8.3125-8.89583 9.13021-7.13542 10.7656-5.84375 12.401-4.55208 14.5104-3.90625 17.0937-3.90625 19.8229-3.90625 21.9479-4.6875 23.4687-6.25 24.9896-7.8125 25.75-10.125 25.75-13.1875 25.75-16.2083 24.9844-18.4427 23.4531-19.8906 21.9219-21.3385 19.8542-22.0625 17.25-22.0625 15.3125-22.0625 13.7135-21.7865 12.4531-21.2344 11.1927-20.6823 10.1458-19.9167 9.3125-18.9375L4.59375-18.9375 6.375-40.7812 28.375-40.7812 28.375-36.125 10.5625-36.125 9.46875-23.2187C10.2396-24.0937 11.3073-24.8542 12.6719-25.5 14.0365-26.1458 15.8021-26.4687 17.9687-26.4687 20.3854-26.4687 22.5937-26 24.5937-25.0625 26.5937-24.125 28.1927-22.6771 29.3906-20.7187 30.5885-18.7604 31.1875-16.25 31.1875-13.1875 31.1875-10.2083 30.5833-7.69792 29.375-5.65625 28.1667-3.61458 26.5052-2.06771 24.3906-1.01562 22.276 0.0364583 19.8437 0.5625 17.0937 0.5625Z" fill="#FFFFFF" transform="matrix(1 0 0 1 60.3252 100)"/></g></g><path d="M1307 1911C1307 1885.59 1327.59 1865 1353 1865 1378.41 1865 1399 1885.59 1399 1911 1399 1936.41 1378.41 1957 1353 1957 1327.59 1957 1307 1936.41 1307 1911Z" fill="url(#fill21)" fill-rule="evenodd"/><text fill="#FFFFFF" font-family="Aptos,Aptos_MSFontService,sans-serif" font-weight="400" font-size="64" transform="matrix(1 0 0 1 1335.33 1932)">5</text><path d="M1421.92 1909.85 1946.87 1909.85 1946.87 1912.15 1421.92 1912.15ZM1426.5 1924.75 1399 1911 1426.5 1897.25ZM1942.29 1897.25 1969.79 1911 1942.29 1924.75Z"/><g filter="url(#fx4)" transform="translate(2089 1850)"><g><path d="M22 67.8749C22 42.4698 42.5949 21.8749 68.0001 21.8749 93.4052 21.8749 114 42.4698 114 67.8749 114 93.2801 93.4052 113.875 68.0001 113.875 42.5949 113.875 22 93.2801 22 67.8749Z" fill="#FF0000" fill-rule="evenodd"/></g></g><g clip-path="url(#clip22)" filter="url(#fx5)" transform="translate(2080 1839)"><g><path d="M18.0625 0.5625C15.1667 0.5625 12.5833-0.130208 10.3125-1.51562 8.04167-2.90104 6.25521-5.11458 4.95312-8.15625 3.65104-11.1979 3-15.1875 3-20.125 3-24.9583 3.625-28.9375 4.875-32.0625 6.125-35.1875 7.88542-37.5104 10.1562-39.0312 12.4271-40.5521 15.0625-41.3125 18.0625-41.3125 21.375-41.3125 24.1719-40.4583 26.4531-38.75 28.7344-37.0417 30.1875-34.4479 30.8125-30.9687L25.5625-30.9687C25.125-32.9062 24.2708-34.3646 23-35.3437 21.7292-36.3229 20.0833-36.8125 18.0625-36.8125 15.0625-36.8125 12.6927-35.474 10.9531-32.7969 9.21354-30.1198 8.34375-25.8958 8.34375-20.125L8.34375-18.5C8.34375-14.9167 8.79687-12.0573 9.70312-9.92187 10.6094-7.78646 11.8021-6.25 13.2812-5.3125 14.7604-4.375 16.3646-3.90625 18.0937-3.90625 20.8229-3.90625 22.8437-4.75 24.1562-6.4375 25.4687-8.125 26.125-10.2187 26.125-12.7187 26.125-15.2396 25.4792-17.2292 24.1875-18.6875 22.8958-20.1458 21.0833-20.875 18.75-20.875 16.0417-20.875 13.6667-20.2396 11.625-18.9687 9.58333-17.6979 8.04167-16.2292 7-14.5625L6.40625-18.5625C7.30208-19.8333 8.39062-20.9844 9.67187-22.0156 10.9531-23.0469 12.4115-23.8646 14.0469-24.4687 15.6823-25.0729 17.4896-25.375 19.4687-25.375 21.7812-25.375 23.8437-24.901 25.6562-23.9531 27.4687-23.0052 28.9062-21.6042 29.9687-19.75 31.0312-17.8958 31.5625-15.6146 31.5625-12.9062 31.5625-10.2812 31.0365-7.95312 29.9844-5.92187 28.9323-3.89062 27.401-2.30208 25.3906-1.15625 23.3802-0.0104167 20.9375 0.5625 18.0625 0.5625Z" fill="#FFFFFF" transform="matrix(1 0 0 1 60.2422 100)"/></g></g><path d="M2111 1911C2111 1885.59 2131.59 1865 2157 1865 2182.41 1865 2203 1885.59 2203 1911 2203 1936.41 2182.41 1957 2157 1957 2131.59 1957 2111 1936.41 2111 1911Z" fill="url(#fill23)" fill-rule="evenodd"/><text fill="#FFFFFF" font-family="Aptos,Aptos_MSFontService,sans-serif" font-weight="400" font-size="64" transform="matrix(1 0 0 1 2140.24 1932)">6</text><path d="M22.9166-1.14583 244.44-1.14583 244.44 0.143274 243.294-1.00256 463.671-1.00256 463.671 1.28911 242.148 1.28911 242.148 0 243.294 1.14583 22.9166 1.14583ZM27.5 13.75 0 0 27.5-13.75ZM459.088-13.6067 486.588 0.143274 459.088 13.8933Z" transform="matrix(1 0 0 -1 2203 1911.14)"/><g filter="url(#fx6)" transform="translate(2928 834)"><g><path d="M22 67.8749C22 42.4699 42.5948 21.8751 67.9999 21.8751 93.4049 21.8751 114 42.4699 114 67.8749 114 93.28 93.4049 113.875 67.9999 113.875 42.5948 113.875 22 93.28 22 67.8749Z" fill="#FF0000" fill-rule="evenodd"/></g></g><g clip-path="url(#clip24)" filter="url(#fx7)" transform="translate(2918 822)"><g><path d="M8.0625 0 25.8437-36 2.96875-36 2.96875-40.7812 31.1562-40.7812 31.1562-36.2187 13.75 0Z" fill="#FFFFFF" transform="matrix(1 0 0 1 60.7771 101)"/></g></g><path d="M2950 895C2950 869.595 2970.59 849 2996 849 3021.41 849 3042 869.595 3042 895 3042 920.405 3021.41 941 2996 941 2970.59 941 2950 920.405 2950 895Z" fill="url(#fill25)" fill-rule="evenodd"/><text fill="#FFFFFF" font-family="Aptos,Aptos_MSFontService,sans-serif" font-weight="400" font-size="64" transform="matrix(1 0 0 1 2978.78 916)">7</text><g><g><g><path d="M2810.75 1944.94C2810.75 1945.26 2810.92 1945.55 2811.19 1945.71L2817.57 1949.29 2828.35 1955.5C2828.79 1955.75 2829.35 1955.61 2829.61 1955.17L2833.25 1949.01C2833.46 1948.6 2833.31 1948.09 2832.92 1947.86L2820.26 1940.71C2820 1940.54 2819.83 1940.25 2819.82 1939.94L2819.82 1883.18C2819.82 1882.86 2819.99 1882.56 2820.26 1882.41L2832.92 1875.26C2833.31 1875.02 2833.46 1874.51 2833.25 1874.1L2829.61 1867.94C2829.4 1867.47 2828.84 1867.27 2828.37 1867.49 2828.36 1867.49 2828.36 1867.5 2828.35 1867.5L2817.79 1873.61 2811.19 1877.29C2810.92 1877.45 2810.75 1877.74 2810.75 1878.06L2810.75 1944.94Z" fill="#949494"/><path d="M2819.77 1882.74 2820.1 1882.41 2832.75 1875.26C2833.14 1875.09 2833.33 1874.64 2833.16 1874.25 2833.14 1874.2 2833.11 1874.15 2833.08 1874.1L2829.45 1867.94C2829.3 1867.51 2828.84 1867.28 2828.4 1867.42 2828.35 1867.44 2828.29 1867.47 2828.24 1867.5L2817.62 1873.61 2811.08 1877.29C2811.08 1877.29 2810.8 1877.29 2810.75 1877.62L2815.7 1880.43Z" fill="#A3A3A3"/><path d="M2832.75 1947.75 2820.1 1940.6C2819.93 1940.47 2819.8 1940.3 2819.72 1940.1L2810.8 1945.6 2811.08 1945.6 2817.41 1949.18 2828.41 1955.28C2828.78 1955.54 2829.29 1955.44 2829.55 1955.06 2829.58 1955.03 2829.6 1954.99 2829.61 1954.95L2833.25 1948.79C2833.41 1948.4 2833.23 1947.95 2832.84 1947.78 2832.81 1947.77 2832.78 1947.75 2832.75 1947.75Z" fill="#A3A3A3"/><path d="M2904.25 1944.94C2904.25 1945.26 2904.08 1945.55 2903.81 1945.71L2897.43 1949.29 2886.65 1955.5C2886.21 1955.75 2885.65 1955.61 2885.39 1955.17L2881.75 1949.01C2881.54 1948.6 2881.69 1948.09 2882.08 1947.86L2894.74 1940.71C2895 1940.54 2895.17 1940.25 2895.18 1939.94L2895.18 1883.18C2895.18 1882.86 2895.01 1882.56 2894.74 1882.41L2882.08 1875.26C2881.69 1875.02 2881.54 1874.51 2881.75 1874.1L2885.39 1867.94C2885.6 1867.47 2886.16 1867.27 2886.63 1867.49 2886.64 1867.49 2886.64 1867.5 2886.65 1867.5L2897.21 1873.5 2903.81 1877.18C2904.08 1877.34 2904.25 1877.63 2904.25 1877.95L2904.25 1944.94Z" fill="#949494"/><path d="M2895.23 1882.74 2894.9 1882.41 2882.25 1875.26C2881.86 1875.09 2881.67 1874.64 2881.84 1874.25 2881.86 1874.2 2881.89 1874.15 2881.92 1874.1L2885.55 1867.94C2885.7 1867.51 2886.16 1867.28 2886.6 1867.42 2886.65 1867.44 2886.71 1867.47 2886.76 1867.5L2897.38 1873.5 2903.92 1877.18C2903.92 1877.18 2903.92 1877.18 2904.25 1877.51L2899.3 1880.32Z" fill="#A3A3A3"/><path d="M2882.25 1947.75 2894.9 1940.6C2895.07 1940.47 2895.2 1940.3 2895.28 1940.1L2904.2 1945.6 2904.2 1945.6 2897.87 1949.18 2886.87 1955.28C2886.49 1955.54 2885.98 1955.44 2885.72 1955.06 2885.7 1955.03 2885.68 1954.99 2885.66 1954.95L2882.03 1948.79C2881.81 1948.44 2881.91 1947.98 2882.25 1947.75Z" fill="#A3A3A3"/><path d="M2886.71 1894.62 2886.71 1928.39 2857.45 1945.38 2857.45 1911.56 2886.71 1894.62Z" fill="#32BEDD"/><path d="M2886.71 1894.62 2857.5 1911.61 2828.24 1894.62 2857.5 1877.62 2886.71 1894.62Z" fill="#9CEBFF"/><path d="M2857.45 1911.61 2857.45 1945.38 2828.24 1928.39 2828.24 1894.62 2857.45 1911.61Z" fill="#50E6FF"/><path d="M2828.24 1928.39 2857.45 1911.56 2857.45 1945.38 2828.24 1928.39Z" fill="#9CEBFF"/><path d="M2886.71 1928.39 2857.45 1911.56 2857.45 1945.38 2886.71 1928.39Z" fill="#50E6FF"/></g></g></g><text font-family="Segoe UI,Segoe UI_MSFontService,sans-serif" font-weight="400" font-size="37" transform="matrix(1 0 0 1 2712.56 1985)">Resource Manager</text><text font-family="Segoe UI,Segoe UI_MSFontService,sans-serif" font-style="italic" font-weight="400" font-size="28" transform="matrix(1 0 0 1 2782.16 2020)">Local Registry</text><g><g><g><path d="M880.333 1004.33C880.333 1013.91 872.573 1021.67 863 1021.67 853.427 1021.67 845.667 1013.91 845.667 1004.33 845.667 994.76 853.427 987 863 987 872.573 987 880.333 994.76 880.333 1004.33Z" fill="#D9D9D9"/><path d="M984.333 1004.33C984.333 1013.91 976.573 1021.67 967 1021.67 957.427 1021.67 949.667 1013.91 949.667 1004.33 949.667 994.76 957.427 987 967 987 976.573 987 984.333 994.76 984.333 1004.33Z" fill="#D9D9D9"/><path d="M895.5 961 895.5 935 925.183 935C927.567 935 929.733 935.867 931.25 937.6L954.65 961 895.5 961ZM886.833 961 832.017 961 855.417 937.6C857.15 935.867 859.317 935 861.483 935L886.833 935 886.833 961ZM988.667 961 970.683 961C968.3 961 966.133 960.133 964.617 958.4L937.317 931.317C934.067 928.067 929.733 926.333 924.967 926.333L861.483 926.333C856.933 926.333 852.383 928.067 849.133 931.317L822.267 958.4C820.533 960.133 819.667 962.3 819.667 964.683L819.667 987C819.667 996.533 827.467 1004.33 837 1004.33L839.167 1004.33C839.167 991.117 849.783 980.5 863 980.5 876.217 980.5 886.833 991.117 886.833 1004.33L943.167 1004.33C943.167 991.117 953.783 980.5 967 980.5 980.216 980.5 990.833 991.117 990.833 1004.33L1001.67 1004.33C1006.43 1004.33 1010.33 1000.43 1010.33 995.667L1010.33 982.667C1010.33 970.75 1000.58 961 988.667 961Z" fill="#D9D9D9"/></g></g></g><g><g><g><path d="M2058.85 1906.83 2058.85 1903.53 2033.99 1903.53 2022.33 1915.13 2013.75 1915.13 2033.66 1895 2047.24 1895 2047.24 1891.87 2032.28 1891.87 2009.07 1915.13 2005.77 1915.13 2005.77 1918.43 2015.73 1918.43 2027.5 1930.04 2055.55 1930.04 2055.55 1926.74 2028.71 1926.74 2020.4 1918.43 2040.59 1918.43 2040.59 1915.13 2027.06 1915.13 2035.31 1906.83Z" fill="#32BEDD"/><path d="M2048.67 1916.78C2048.67 1919.42 2046.53 1921.57 2043.89 1921.57 2041.25 1921.57 2039.1 1919.42 2039.1 1916.78 2039.1 1914.14 2041.25 1912 2043.89 1912 2046.53 1912 2048.67 1914.14 2048.67 1916.78Z" fill="#FFFFFF"/><path d="M2053.68 1893.57C2053.68 1896.21 2051.54 1898.36 2048.89 1898.36 2046.25 1898.36 2044.11 1896.21 2044.11 1893.57 2044.11 1890.93 2046.25 1888.79 2048.89 1888.79 2051.54 1888.79 2053.68 1890.93 2053.68 1893.57Z" fill="#FFFFFF"/><path d="M2065.28 1905.18C2065.28 1907.82 2063.14 1909.96 2060.5 1909.96 2057.86 1909.96 2055.71 1907.82 2055.71 1905.18 2055.71 1902.53 2057.86 1900.39 2060.5 1900.39 2063.14 1900.39 2065.28 1902.53 2065.28 1905.18Z" fill="#FFFFFF"/><path d="M2060.33 1928.39C2060.33 1931.03 2058.19 1933.17 2055.55 1933.17 2052.91 1933.17 2050.76 1931.03 2050.76 1928.39 2050.76 1925.74 2052.91 1923.6 2055.55 1923.6 2058.19 1923.6 2060.33 1925.74 2060.33 1928.39Z" fill="#FFFFFF"/><path d="M2054.5 1893.57C2054.5 1896.76 2051.92 1899.35 2048.73 1899.35 2045.54 1899.35 2042.95 1896.76 2042.95 1893.57 2042.95 1890.38 2045.54 1887.8 2048.73 1887.8 2051.92 1887.8 2054.5 1890.38 2054.5 1893.57Z" fill="#50E6FF"/><path d="M2066.11 1905.18C2066.11 1908.36 2063.52 1910.95 2060.33 1910.95 2057.15 1910.95 2054.56 1908.36 2054.56 1905.18 2054.56 1901.99 2057.15 1899.4 2060.33 1899.4 2063.52 1899.4 2066.11 1901.99 2066.11 1905.18Z" fill="url(#fill26)"/><path d="M2061.32 1928.39C2061.32 1931.57 2058.74 1934.16 2055.55 1934.16 2052.36 1934.16 2049.77 1931.57 2049.77 1928.39 2049.77 1925.2 2052.36 1922.61 2055.55 1922.61 2058.74 1922.61 2061.32 1925.2 2061.32 1928.39Z" fill="url(#fill27)"/><path d="M2049.66 1916.78C2049.66 1919.97 2047.08 1922.56 2043.89 1922.56 2040.7 1922.56 2038.11 1919.97 2038.11 1916.78 2038.11 1913.59 2040.7 1911.01 2043.89 1911.01 2047.08 1911.01 2049.66 1913.59 2049.66 1916.78Z" fill="#50E6FF"/><path d="M1994.88 1869.87 2001.98 1869.87 2001.98 1869.87 2001.98 1889.5C2001.98 1890.38 2001.27 1891.1 2000.38 1891.1L1993.34 1891.1C1992.46 1891.1 1991.75 1890.38 1991.75 1889.5L1991.75 1873C1991.75 1871.27 1993.15 1869.87 1994.88 1869.87Z" fill="#999999"/><path d="M1994.88 1869.87 2001.98 1869.87 2001.98 1869.87 2001.98 1889.5C2001.98 1890.38 2001.27 1891.1 2000.38 1891.1L1993.34 1891.1C1992.46 1891.1 1991.75 1890.38 1991.75 1889.5L1991.75 1873C1991.75 1871.27 1993.15 1869.87 1994.88 1869.87Z" fill="#999999" fill-opacity="0.5"/><path d="M2075.02 1869.87 2082.11 1869.87C2083.85 1869.87 2085.25 1871.27 2085.25 1873L2085.25 1889.5C2085.25 1890.38 2084.54 1891.1 2083.65 1891.1L2076.56 1891.1C2075.7 1891.07 2075.02 1890.36 2075.02 1889.5L2075.02 1869.87 2075.02 1869.87Z" fill="#999999"/><path d="M2075.02 1869.87 2082.11 1869.87C2083.85 1869.87 2085.25 1871.27 2085.25 1873L2085.25 1889.5C2085.25 1890.38 2084.54 1891.1 2083.65 1891.1L2076.56 1891.1C2075.7 1891.07 2075.02 1890.36 2075.02 1889.5L2075.02 1869.87 2075.02 1869.87Z" fill="#999999" fill-opacity="0.5"/><path d="M2085.25 1873 2085.25 1879.88 2085.25 1879.88 1991.75 1879.88 1991.75 1879.88 1991.75 1873C1991.75 1871.27 1993.15 1869.87 1994.88 1869.87L2082.17 1869.87C2083.88 1869.9 2085.25 1871.29 2085.25 1873Z" fill="#949494"/><path d="M1993.34 1931.74 2000.44 1931.74C2001.32 1931.74 2002.03 1932.45 2002.03 1933.34L2002.03 1953.14 2002.03 1953.14 1994.88 1953.14C1993.15 1953.14 1991.75 1951.73 1991.75 1950L1991.75 1933.5C1991.66 1932.62 1992.3 1931.84 1993.17 1931.75 1993.23 1931.74 1993.29 1931.74 1993.34 1931.74Z" fill="#999999"/><path d="M1993.34 1931.74 2000.44 1931.74C2001.32 1931.74 2002.03 1932.45 2002.03 1933.34L2002.03 1953.14 2002.03 1953.14 1994.88 1953.14C1993.15 1953.14 1991.75 1951.73 1991.75 1950L1991.75 1933.5C1991.66 1932.62 1992.3 1931.84 1993.17 1931.75 1993.23 1931.74 1993.29 1931.74 1993.34 1931.74Z" fill="#999999" fill-opacity="0.5"/><path d="M2076.56 1931.74 2083.65 1931.74C2084.54 1931.74 2085.25 1932.45 2085.25 1933.34L2085.25 1949.84C2085.25 1951.57 2083.85 1952.97 2082.11 1952.97L2075.02 1952.97 2075.02 1952.97 2075.02 1933.5C2074.93 1932.62 2075.56 1931.84 2076.44 1931.75 2076.48 1931.74 2076.52 1931.74 2076.56 1931.74Z" fill="#999999"/><path d="M2076.56 1931.74 2083.65 1931.74C2084.54 1931.74 2085.25 1932.45 2085.25 1933.34L2085.25 1949.84C2085.25 1951.57 2083.85 1952.97 2082.11 1952.97L2075.02 1952.97 2075.02 1952.97 2075.02 1933.5C2074.93 1932.62 2075.56 1931.84 2076.44 1931.75 2076.48 1931.74 2076.52 1931.74 2076.56 1931.74Z" fill="#999999" fill-opacity="0.5"/><path d="M1991.75 1950 1991.75 1943.13 1991.75 1943.13 2085.25 1943.13 2085.25 1943.13 2085.25 1950C2085.25 1951.73 2083.85 1953.14 2082.11 1953.14L1994.89 1953.14C1993.15 1953.14 1991.75 1951.73 1991.75 1950Z" fill="#949494"/></g></g></g><rect x="1914.5" y="1404.5" width="513" height="161" stroke="#000000" stroke-width="3.4375" stroke-linejoin="round" stroke-miterlimit="10" fill="none"/><text font-family="Segoe UI,Segoe UI_MSFontService,sans-serif" font-weight="400" font-size="41" transform="matrix(1 0 0 1 1990.56 1461)">API Implementation</text><text font-family="Segoe UI,Segoe UI_MSFontService,sans-serif" font-weight="400" font-size="32" transform="matrix(1 0 0 1 1952.75 1502)">Vehicle &amp; Device </text><text font-family="Segoe UI,Segoe UI_MSFontService,sans-serif" font-weight="400" font-size="32" transform="matrix(1 0 0 1 2200.82 1502)">Management</text><text font-family="Segoe UI,Segoe UI_MSFontService,sans-serif" font-weight="400" font-size="32" transform="matrix(1 0 0 1 2076.5 1540)">User Consent</text><g><g><g><path d="M2636.66 1457.62C2635.95 1457.62 2635.38 1457.05 2635.37 1456.34 2635.37 1456.34 2635.37 1456.33 2635.37 1456.33L2635.37 1456.33C2635.36 1448.2 2628.77 1441.61 2620.64 1441.59 2619.93 1441.59 2619.35 1441.02 2619.35 1440.31L2619.35 1440.31C2619.35 1439.6 2619.93 1439.02 2620.64 1439.02 2628.77 1439.01 2635.36 1432.41 2635.37 1424.28 2635.37 1423.57 2635.94 1422.99 2636.65 1422.99 2636.65 1422.99 2636.66 1422.99 2636.66 1422.99L2636.66 1422.99C2637.37 1422.99 2637.95 1423.56 2637.95 1424.27 2637.95 1424.27 2637.95 1424.28 2637.95 1424.28L2637.95 1424.28C2637.97 1432.41 2644.55 1439 2652.69 1439.01 2653.39 1439.01 2653.97 1439.58 2653.98 1440.29 2653.98 1440.29 2653.98 1440.3 2653.98 1440.3L2653.98 1440.3C2653.98 1441.01 2653.41 1441.59 2652.7 1441.59 2652.7 1441.59 2652.69 1441.59 2652.69 1441.59L2652.69 1441.59C2644.55 1441.6 2637.96 1448.19 2637.95 1456.33 2637.95 1457.04 2637.37 1457.61 2636.66 1457.62Z" fill="#50E6FF"/><path d="M2729.48 1547.01C2728.91 1547.01 2728.45 1546.55 2728.45 1545.98L2728.45 1545.98C2728.44 1539.47 2723.17 1534.2 2716.66 1534.19 2716.09 1534.19 2715.63 1533.73 2715.63 1533.17L2715.63 1533.17C2715.63 1532.59 2716.09 1532.13 2716.66 1532.13L2716.66 1532.13C2723.17 1532.13 2728.44 1526.85 2728.45 1520.35 2728.45 1519.78 2728.91 1519.31 2729.48 1519.31L2729.48 1519.31C2730.05 1519.31 2730.51 1519.78 2730.51 1520.35L2730.51 1520.35C2730.52 1526.85 2735.79 1532.13 2742.3 1532.13 2742.87 1532.13 2743.33 1532.59 2743.33 1533.17 2743.33 1533.74 2742.87 1534.2 2742.3 1534.2L2742.3 1534.2C2735.79 1534.21 2730.52 1539.48 2730.51 1545.98 2730.51 1546.55 2730.05 1547.01 2729.48 1547.01Z" fill="#50E6FF"/><path d="M2724.77 1474.22C2730.55 1498.4 2715.63 1522.68 2691.46 1528.45 2667.28 1534.23 2643 1519.31 2637.23 1495.14 2631.45 1470.96 2646.37 1446.68 2670.54 1440.9 2694.72 1435.13 2719 1450.05 2724.77 1474.22Z" fill="url(#fill28)"/><g clip-path="url(#clip29)"><path d="M2656.87 1515.18C2663.5 1515.35 2669.01 1510.12 2669.19 1503.48 2669.36 1496.85 2664.13 1491.33 2657.5 1491.16 2657.3 1491.16 2657.1 1491.16 2656.9 1491.16 2656.94 1490.82 2656.96 1490.48 2656.95 1490.13 2656.89 1483.46 2651.45 1478.1 2644.77 1478.14L2635.77 1478.14C2633.98 1491.61 2638.27 1505.17 2647.46 1515.18Z" fill="#F2F2F2"/><path d="M2725.33 1476.31C2725.33 1476.2 2725.33 1476.09 2725.28 1475.99 2723.83 1468.14 2720.26 1460.84 2714.97 1454.87 2714.28 1454.59 2713.57 1454.37 2712.85 1454.21 2705.82 1452.2 2698.49 1456.28 2696.48 1463.31 2696.19 1464.32 2696.02 1465.36 2695.98 1466.4 2695.5 1466.35 2695.01 1466.31 2694.52 1466.31 2687.48 1466.31 2681.78 1472.01 2681.78 1479.04 2681.78 1484.44 2685.17 1489.25 2690.25 1491.05 2691.52 1491.55 2692.86 1491.79 2694.22 1491.78L2709.11 1491.78C2715.09 1487.26 2720.53 1482.07 2725.33 1476.31Z" fill="#F2F2F2"/></g><path d="M2741.07 1447.1C2736.45 1439.42 2725.67 1436.43 2710.6 1438.68 2705.43 1439.41 2700.33 1440.51 2695.33 1441.99 2699.3 1443.36 2703.07 1445.25 2706.53 1447.61 2708.3 1447.23 2710.08 1446.76 2711.78 1446.51 2714.45 1446.09 2717.16 1445.87 2719.87 1445.85 2725.25 1445.08 2730.65 1447.08 2734.23 1451.17L2734.23 1451.17C2737.04 1455.85 2734.67 1463.85 2727.74 1473.17 2718.09 1485.17 2706.28 1495.25 2692.91 1502.88 2679.84 1511.04 2665.35 1516.66 2650.2 1519.47 2638.73 1521.18 2630.53 1519.47 2627.72 1514.8 2624.91 1510.14 2627.28 1502.12 2634.22 1492.84 2635.08 1491.69 2635.29 1491.12 2636.27 1489.96 2635.81 1485.99 2635.87 1481.97 2636.46 1478.01 2633.34 1481.14 2630.47 1484.5 2627.88 1488.07 2618.79 1500.22 2616.33 1511.15 2620.93 1518.83 2625.88 1525.45 2633.98 1528.94 2642.2 1527.99 2645.27 1527.97 2648.34 1527.73 2651.37 1527.25 2667.55 1524.3 2683.02 1518.33 2696.98 1509.65 2711.24 1501.49 2723.83 1490.72 2734.09 1477.89 2743.21 1465.71 2745.67 1454.79 2741.07 1447.1Z" fill="#50E6FF"/></g></g></g><text font-family="Segoe UI,Segoe UI_MSFontService,sans-serif" font-weight="400" font-size="37" transform="matrix(1 0 0 1 2593.7 1595)">Cosmos DB</text><text font-family="Segoe UI,Segoe UI_MSFontService,sans-serif" font-style="italic" font-weight="400" font-size="28" transform="matrix(1 0 0 1 2641.55 1630)">Storage</text><path d="M2449.92 1483.85 2591.6 1483.85 2591.6 1486.15 2449.92 1486.15ZM2454.5 1498.75 2427 1485 2454.5 1471.25ZM2587.02 1471.25 2614.52 1485 2587.02 1498.75Z"/><g filter="url(#fx8)" transform="translate(1970 1531)"><g><path d="M22 67.8749C22 42.4698 42.5949 21.8749 68.0001 21.8749 93.4052 21.8749 114 42.4698 114 67.8749 114 93.2801 93.4052 113.875 68.0001 113.875 42.5949 113.875 22 93.2801 22 67.8749Z" fill="#FF0000" fill-rule="evenodd"/></g></g><g clip-path="url(#clip30)" filter="url(#fx9)" transform="translate(1960 1519)"><g><path d="M21.4375 0 21.4375-8.25 1.75-8.25 1.75-12.9687 21.3437-41.0312 26.6562-41.0312 26.6562-12.8437 32.25-12.8437 32.25-8.25 26.6562-8.25 26.6562 0ZM6.84375-12.8437 21.5-12.8437 21.5-33.9062Z" fill="#FFFFFF" transform="matrix(1 0 0 1 60.9099 101)"/></g></g><path d="M1992 1592C1992 1566.59 2012.59 1546 2038 1546 2063.41 1546 2084 1566.59 2084 1592 2084 1617.41 2063.41 1638 2038 1638 2012.59 1638 1992 1617.41 1992 1592Z" fill="url(#fill31)" fill-rule="evenodd"/><text fill="#FFFFFF" font-family="Aptos,Aptos_MSFontService,sans-serif" font-weight="400" font-size="64" transform="matrix(1 0 0 1 2020.91 1613)">4</text><path d="M0-1.14583 18.3333-1.14583 18.3333 1.14583 0 1.14583ZM25.2083-1.14583 43.5417-1.14583 43.5417 1.14583 25.2083 1.14583ZM50.4167-1.14583 68.75-1.14583 68.75 1.14583 50.4167 1.14583ZM75.625-1.14583 93.9583-1.14583 93.9583 1.14583 75.625 1.14583ZM100.833-1.14583 119.167-1.14583 119.167 1.14583 100.833 1.14583ZM126.042-1.14583 144.375-1.14583 144.375 1.14583 126.042 1.14583ZM151.25-1.14583 169.583-1.14583 169.583 1.14583 151.25 1.14583ZM176.458-1.14583 194.792-1.14583 194.792 1.14583 176.458 1.14583ZM201.667-1.14583 220-1.14583 220 1.14583 201.667 1.14583ZM226.875-1.14583 245.208-1.14583 245.208 1.14583 226.875 1.14583ZM252.083-1.14583 270.417-1.14583 270.417 1.14583 252.083 1.14583ZM277.292-1.14583 295.625-1.14583 295.625 1.14583 277.292 1.14583ZM302.5-1.14583 320.833-1.14583 320.833 1.14583 302.5 1.14583ZM327.708-1.14583 346.042-1.14583 346.042 1.14583 327.708 1.14583ZM352.917-1.14583 371.25-1.14583 371.25 1.14583 352.917 1.14583ZM378.125-1.14583 396.458-1.14583 396.458 1.14583 378.125 1.14583ZM403.333-1.14583 421.667-1.14583 421.667 1.14583 403.333 1.14583ZM428.542-1.14583 446.875-1.14583 446.875 1.14583 428.542 1.14583ZM453.75-1.14583 472.083-1.14583 472.083 1.14583 453.75 1.14583ZM478.958-1.14583 497.292-1.14583 497.292 1.14583 478.958 1.14583ZM504.167-1.14583 522.5-1.14583 522.5 1.14583 504.167 1.14583ZM529.375-1.14583 547.708-1.14583 547.708 1.14583 529.375 1.14583ZM554.583-1.14583 572.917-1.14583 572.917 1.14583 554.583 1.14583ZM579.792-1.14583 598.125-1.14583 598.125 1.14583 579.792 1.14583ZM605-1.14583 623.333-1.14583 623.333 1.14583 605 1.14583ZM630.208-1.14583 648.542-1.14583 648.542 1.14583 630.208 1.14583ZM655.417-1.14583 673.75-1.14583 673.75 1.14583 655.417 1.14583ZM680.625-1.14583 698.958-1.14583 698.958 1.14583 680.625 1.14583ZM705.833-1.14583 707.301-1.14583 707.301 18.0118 705.009 18.0118 705.009 0 706.155 1.14583 705.833 1.14583ZM707.301 24.8868 707.301 43.2201 705.009 43.2201 705.009 24.8868ZM707.301 50.0951 707.301 68.4284 705.009 68.4284 705.009 50.0951ZM707.301 75.3034 707.301 93.6368 705.009 93.6368 705.009 75.3034ZM707.301 100.512 707.301 118.845 705.009 118.845 705.009 100.512ZM707.301 125.72 707.301 144.053 705.009 144.053 705.009 125.72ZM707.301 150.928 707.301 169.262 705.009 169.262 705.009 150.928ZM707.301 176.137 707.301 194.47 705.009 194.47 705.009 176.137ZM707.301 201.345 707.301 219.678 705.009 219.678 705.009 201.345ZM707.301 226.553 707.301 228.745 705.009 228.745 705.009 226.553ZM719.905 224.161 706.155 251.661 692.405 224.161Z" transform="matrix(-1 1.22465e-16 1.22465e-16 1 1806.15 802)"/><rect x="2009" y="1011" width="349" height="122" fill="#FFFFFF"/><text fill="#548235" font-family="Aptos,Aptos_MSFontService,sans-serif" font-style="italic" font-weight="400" font-size="37" transform="matrix(1 0 0 1 2058.69 1062)">Register vehicle </text><text fill="#548235" font-family="Aptos,Aptos_MSFontService,sans-serif" font-style="italic" font-weight="400" font-size="37" transform="matrix(1 0 0 1 2097.65 1106)">and device</text><rect x="2670" y="1011" width="349" height="167" fill="#FFFFFF"/><text fill="#548235" font-family="Aptos,Aptos_MSFontService,sans-serif" font-style="italic" font-weight="400" font-size="37" transform="matrix(1 0 0 1 2780.45 1062)">Register </text><text fill="#548235" font-family="Aptos,Aptos_MSFontService,sans-serif" font-style="italic" font-weight="400" font-size="37" transform="matrix(1 0 0 1 2743.51 1106)">replacement </text><text fill="#548235" font-family="Aptos,Aptos_MSFontService,sans-serif" font-style="italic" font-weight="400" font-size="37" transform="matrix(1 0 0 1 2783.89 1150)">devices</text><rect x="1441" y="1387" width="350" height="78" fill="#FFFFFF"/><text fill="#548235" font-family="Aptos,Aptos_MSFontService,sans-serif" font-style="italic" font-weight="400" font-size="37" transform="matrix(1 0 0 1 1478.53 1437)">Provision devices</text><rect x="1419" y="1807" width="468" height="78" fill="#FFFFFF"/><text fill="#548235" font-family="Aptos,Aptos_MSFontService,sans-serif" font-style="italic" font-weight="400" font-size="37" transform="matrix(1 0 0 1 1460.1 1858)">Connect to MQTT Broker</text><rect x="2206" y="1813" width="486" height="78" fill="#FFFFFF"/><text fill="#548235" font-family="Aptos,Aptos_MSFontService,sans-serif" font-style="italic" font-weight="400" font-size="37" transform="matrix(1 0 0 1 2242.36 1864)">Check client authorization</text><path d="M2039.15 1638 2039.15 1838.78 2036.85 1838.78 2036.85 1638ZM2051.75 1834.2 2038 1861.7 2024.25 1834.2Z"/><rect x="1880" y="1700" width="349" height="77" fill="#FFFFFF"/><text fill="#548235" font-family="Aptos,Aptos_MSFontService,sans-serif" font-style="italic" font-weight="400" font-size="37" transform="matrix(1 0 0 1 1934.02 1750)">Register device</text><g filter="url(#fx10)" transform="translate(1784 741)"><g><path d="M22.0001 67.8749C22.0001 42.4698 42.595 21.8749 68 21.8749 93.405 21.8749 114 42.4698 114 67.8749 114 93.2801 93.405 113.875 68 113.875 42.595 113.875 22.0001 93.2801 22.0001 67.8749Z" fill="#FF0000" fill-rule="evenodd"/></g></g><g clip-path="url(#clip32)" filter="url(#fx11)" transform="translate(1775 729)"><g><path d="M16.8125 0 16.8125-34.25C16.25-33.4792 15.4531-32.7344 14.4219-32.0156 13.3906-31.2969 12.1667-30.6562 10.75-30.0937 9.33333-29.5312 7.75-29.125 6-28.875L6-33.8125C7.72917-34.1042 9.33854-34.6354 10.8281-35.4062 12.3177-36.1771 13.6302-37.0625 14.7656-38.0625 15.901-39.0625 16.7917-40.0208 17.4375-40.9375L22.2812-40.9375 22.2812 0Z" fill="#FFFFFF" transform="matrix(1 0 0 1 60.198 101)"/></g></g><path d="M1806 802C1806 776.595 1826.59 756 1852 756 1877.41 756 1898 776.595 1898 802 1898 827.405 1877.41 848 1852 848 1826.59 848 1806 827.405 1806 802Z" fill="url(#fill33)" fill-rule="evenodd"/><text fill="#FFFFFF" font-family="Aptos,Aptos_MSFontService,sans-serif" font-weight="400" font-size="64" transform="matrix(1 0 0 1 1835.2 823)">1</text><rect x="1141" y="747" width="501" height="167" fill="#FFFFFF"/><text fill="#548235" font-family="Aptos,Aptos_MSFontService,sans-serif" font-style="italic" font-weight="400" font-size="37" transform="matrix(1 0 0 1 1267.47 797)">Commissioning</text><text fill="#548235" font-family="Aptos,Aptos_MSFontService,sans-serif" font-style="italic" font-weight="400" font-size="37" transform="matrix(1 0 0 1 1198.15 841)">Write X.509 certificate to </text><text fill="#548235" font-family="Aptos,Aptos_MSFontService,sans-serif" font-style="italic" font-weight="400" font-size="37" transform="matrix(1 0 0 1 1310.17 885)">the device</text><rect x="1462" y="1981" width="382" height="78" fill="#FFFFFF"/><text fill="#548235" font-family="Aptos,Aptos_MSFontService,sans-serif" font-style="italic" font-weight="400" font-size="37" transform="matrix(1 0 0 1 1495.62 2032)">Authenticate device</text><g filter="url(#fx12)" transform="translate(1809 1961)"><g><path d="M22.0001 67.8749C22.0001 42.4698 42.595 21.8749 68 21.8749 93.405 21.8749 114 42.4698 114 67.8749 114 93.2801 93.405 113.875 68 113.875 42.595 113.875 22.0001 93.2801 22.0001 67.8749Z" fill="#FF0000" fill-rule="evenodd"/></g></g><g clip-path="url(#clip34)" filter="url(#fx13)" transform="translate(1782 1949)"><g><path d="M17.0937 0.5625C14.4479 0.5625 12.0573 0.0989583 9.92187-0.828125 7.78646-1.75521 6.09375-3.08854 4.84375-4.82812 3.59375-6.56771 2.96875-8.66667 2.96875-11.125L8.3125-11.125C8.3125-8.89583 9.13021-7.13542 10.7656-5.84375 12.401-4.55208 14.5104-3.90625 17.0937-3.90625 19.8229-3.90625 21.9479-4.6875 23.4687-6.25 24.9896-7.8125 25.75-10.125 25.75-13.1875 25.75-16.2083 24.9844-18.4427 23.4531-19.8906 21.9219-21.3385 19.8542-22.0625 17.25-22.0625 15.3125-22.0625 13.7135-21.7865 12.4531-21.2344 11.1927-20.6823 10.1458-19.9167 9.3125-18.9375L4.59375-18.9375 6.375-40.7812 28.375-40.7812 28.375-36.125 10.5625-36.125 9.46875-23.2187C10.2396-24.0937 11.3073-24.8542 12.6719-25.5 14.0365-26.1458 15.8021-26.4687 17.9687-26.4687 20.3854-26.4687 22.5937-26 24.5937-25.0625 26.5937-24.125 28.1927-22.6771 29.3906-20.7187 30.5885-18.7604 31.1875-16.25 31.1875-13.1875 31.1875-10.2083 30.5833-7.69792 29.375-5.65625 28.1667-3.61458 26.5052-2.06771 24.3906-1.01562 22.276 0.0364583 19.8437 0.5625 17.0937 0.5625ZM47.25 0.5625C45.5 0.5625 43.901 0.229167 42.4531-0.4375 41.0052-1.10417 39.849-2.08854 38.9844-3.39062 38.1198-4.69271 37.6875-6.30208 37.6875-8.21875 37.6875-10.9479 38.5417-13.0208 40.25-14.4375 41.9583-15.8542 44.375-16.8177 47.5-17.3281 50.625-17.8385 54.2812-18.1146 58.4687-18.1562L58.4687-20.2812C58.4687-22.8854 57.8229-24.6719 56.5312-25.6406 55.2396-26.6094 53.6042-27.0937 51.625-27.0937 49.5208-27.0937 47.75-26.5625 46.3125-25.5 44.875-24.4375 44.1562-22.7604 44.1562-20.4687L39.0937-20.4687C39.0937-22.9687 39.6302-24.9896 40.7031-26.5312 41.776-28.0729 43.2552-29.1979 45.1406-29.9062 47.026-30.6146 49.1875-30.9687 51.625-30.9687 53.1875-30.9687 54.6823-30.8229 56.1094-30.5312 57.5364-30.2396 58.8177-29.7083 59.9531-28.9375 61.0885-28.1667 61.9896-27.0885 62.6562-25.7031 63.3229-24.3177 63.6562-22.5312 63.6562-20.3437L63.6562 0 58.7812 0 58.5625-4.625C57.1667-3.0625 55.5469-1.80729 53.7031-0.859375 51.8594 0.0885416 49.7083 0.5625 47.25 0.5625ZM48.625-3.4375C50.7083-3.4375 52.5833-3.92708 54.25-4.90625 55.9167-5.88542 57.3125-7.125 58.4375-8.625L58.4375-14.8125C52.8958-14.75 48.9219-14.2292 46.5156-13.25 44.1094-12.2708 42.9062-10.6667 42.9062-8.4375 42.9062-6.91667 43.3906-5.70312 44.3594-4.79687 45.3281-3.89062 46.75-3.4375 48.625-3.4375Z" fill="#FFFFFF" transform="matrix(1 0 0 1 60.1422 100)"/></g></g><path d="M1831 2022C1831 1996.59 1851.59 1976 1877 1976 1902.41 1976 1923 1996.59 1923 2022 1923 2047.41 1902.41 2068 1877 2068 1851.59 2068 1831 2047.41 1831 2022Z" fill="url(#fill35)" fill-rule="evenodd"/><text fill="#FFFFFF" font-family="Aptos,Aptos_MSFontService,sans-serif" font-weight="400" font-size="64" transform="matrix(1 0 0 1 1842.14 2042)">5a</text><g filter="url(#fx14)" transform="translate(1282 1424)"><g><path d="M21.9999 67.8749C21.9999 42.4698 42.5948 21.8749 67.9999 21.8749 93.4051 21.8749 114 42.4698 114 67.8749 114 93.2801 93.4051 113.875 67.9999 113.875 42.5948 113.875 21.9999 93.2801 21.9999 67.8749Z" fill="#FF0000" fill-rule="evenodd"/></g></g><g clip-path="url(#clip36)" filter="url(#fx15)" transform="translate(1272 1412)"><g><path d="M17.375 0.5625C13.0417 0.5625 9.57292-0.541667 6.96875-2.75 4.36458-4.95833 3.0625-8.125 3.0625-12.25L8.28125-12.25C8.28125-9.70833 9.07812-7.68229 10.6719-6.17187 12.2656-4.66146 14.4792-3.90625 17.3125-3.90625 19.9375-3.90625 22.0052-4.54167 23.5156-5.8125 25.026-7.08333 25.7812-9.05208 25.7812-11.7187 25.7812-14.2812 24.9479-16.1667 23.2812-17.375 21.6146-18.5833 19.3333-19.1875 16.4375-19.1875L14.0312-19.1875 14.0312-23.625 16.5625-23.625C19.1667-23.625 21.1562-24.2708 22.5312-25.5625 23.9062-26.8542 24.5937-28.5729 24.5937-30.7187 24.5937-32.7604 23.9167-34.2865 22.5625-35.2969 21.2083-36.3073 19.4271-36.8125 17.2187-36.8125 14.7187-36.8125 12.7812-36.1458 11.4062-34.8125 10.0312-33.4792 9.34375-31.7292 9.34375-29.5625L4.125-29.5625C4.125-31.9792 4.67708-34.0677 5.78125-35.8281 6.88542-37.5885 8.41146-38.9479 10.3594-39.9062 12.3073-40.8646 14.5729-41.3437 17.1562-41.3437 19.4896-41.3437 21.6146-40.9531 23.5312-40.1719 25.4479-39.3906 26.974-38.2344 28.1094-36.7031 29.2448-35.1719 29.8125-33.2604 29.8125-30.9687 29.8125-28.5312 29.1354-26.526 27.7812-24.9531 26.4271-23.3802 24.6458-22.2812 22.4375-21.6562 24.9583-21.1979 27.0469-20.1146 28.7031-18.4062 30.3594-16.6979 31.1875-14.3958 31.1875-11.5 31.1875-8.91667 30.6094-6.72917 29.4531-4.9375 28.2969-3.14583 26.6823-1.78125 24.6094-0.84375 22.5365 0.0937499 20.125 0.5625 17.375 0.5625Z" fill="#FFFFFF" transform="matrix(1 0 0 1 60.3778 100)"/></g></g><path d="M1304 1485C1304 1459.59 1324.59 1439 1350 1439 1375.41 1439 1396 1459.59 1396 1485 1396 1510.41 1375.41 1531 1350 1531 1324.59 1531 1304 1510.41 1304 1485Z" fill="url(#fill37)" fill-rule="evenodd"/><text fill="#FFFFFF" font-family="Aptos,Aptos_MSFontService,sans-serif" font-weight="400" font-size="64" transform="matrix(1 0 0 1 1332.38 1505)">3</text><rect x="2368.5" y="711.5" width="339" height="185" stroke="#7F7F7F" stroke-width="4.58333" stroke-miterlimit="8" fill="#FFFFFF"/><text font-family="Segoe UI,Segoe UI_MSFontService,sans-serif" font-weight="400" font-size="41" transform="matrix(1 0 0 1 2444.47 794)">Public Key </text><text font-family="Segoe UI,Segoe UI_MSFontService,sans-serif" font-weight="400" font-size="41" transform="matrix(1 0 0 1 2415.25 844)">Infrastructure</text><path d="M2368.73 804.917 2350.4 804.917 2350.4 802.626 2368.73 802.626ZM2343.52 804.917 2325.19 804.917 2325.19 802.626 2343.52 802.626ZM2319.09 804.146 2301.92 804.146 2301.92 801.854 2319.09 801.854ZM2306.5 816.75 2279 803 2306.5 789.25Z"/><path d="M0-1.14583 18.3333-1.14583 18.3333 1.14583 0 1.14583ZM25.2083-1.14583 37.3267-1.14583 37.3267 0.365223 36.1809-0.78061 43.1764-0.78061 43.1764 1.51106 35.0351 1.51106 35.0351 0 36.1809 1.14583 25.2083 1.14583ZM44.8618-13.3848 72.3618 0.365223 44.8618 14.1152Z" transform="matrix(1 0 0 -1 2707 803.365)"/><path d="M2513.02 1316 2513.02 1360.16 2171 1360.16 2171 1404.33" stroke="#000000" stroke-width="2.29167" stroke-miterlimit="8" stroke-dasharray="18.3333 6.875" fill="none" fill-rule="evenodd"/><path d="M0-1.14583 58.5422-1.14583 58.5422 358.989 57.3963 357.843 91.8756 357.843 91.8756 360.135 56.2505 360.135 56.2505 0 57.3963 1.14583 0 1.14583ZM87.2923 345.239 114.792 358.989 87.2923 372.739Z" transform="matrix(1.83697e-16 1 1 -1.83697e-16 2071 941)"/><rect x="2411.5" y="1056.5" width="38.0002" height="38.0001" stroke="#FFFFFF" stroke-width="4.58333" stroke-miterlimit="8" fill="#FFFFFF"/><path d="M2996.87 941 2996.87 998.668 2597 998.668 2598.15 997.522 2598.15 1031.13 2595.85 1031.13 2595.85 996.376 2995.72 996.376 2994.58 997.522 2994.58 941ZM2610.75 1026.54 2597 1054.04 2583.25 1026.54Z"/></g></svg>