<svg width="3825" height="2073" xmlns="http://www.w3.org/2000/svg" xmlns:xlink="http://www.w3.org/1999/xlink" xml:space="preserve" overflow="hidden"><defs><clipPath id="clip0"><rect x="256" y="179" width="3825" height="2073"/></clipPath><clipPath id="clip1"><rect x="1181" y="1136" width="199" height="199"/></clipPath><clipPath id="clip2"><rect x="1181" y="1136" width="199" height="199"/></clipPath><clipPath id="clip3"><rect x="1181" y="1136" width="199" height="199"/></clipPath></defs><g clip-path="url(#clip0)" transform="translate(-256 -179)"><rect x="256" y="201" width="3825" height="2019" fill="#FFFFFF"/><rect x="3486" y="1514" width="570" height="543" stroke="#A6A6A6" stroke-width="3.89583" stroke-linejoin="round" stroke-miterlimit="10" fill="#FFFFFF"/><text font-family="Segoe UI,Segoe UI_MSFontService,sans-serif" font-weight="700" font-size="55" transform="matrix(1 0 0 1 3535.47 1584)">Customer Vehicles</text><rect x="1019" y="474" width="2268" height="1449" stroke="#A6A6A6" stroke-width="3.89583" stroke-linejoin="round" stroke-miterlimit="10" fill="#FFFFFF"/><text font-family="Segoe UI,Segoe UI_MSFontService,sans-serif" font-weight="700" font-size="55" transform="matrix(1 0 0 1 1454.16 545)">Automotive Software Defined Vehicle (SDV) Toolchain</text><rect x="2558" y="590" width="661" height="1304" stroke="#000000" stroke-width="3.89583" stroke-linejoin="round" stroke-miterlimit="10" fill="#FFFFFF"/><text font-family="Segoe UI,Segoe UI_MSFontService,sans-serif" font-weight="700" font-size="55" transform="matrix(1 0 0 1 2722.87 661)">Environment</text><rect x="291" y="927" width="577" height="501" stroke="#A6A6A6" stroke-width="3.89583" stroke-linejoin="round" stroke-miterlimit="10" fill="#FFFFFF"/><text font-family="Segoe UI,Segoe UI_MSFontService,sans-serif" font-weight="700" font-size="55" transform="matrix(1 0 0 1 370.162 997)">Requirements &amp; </text><text font-family="Segoe UI,Segoe UI_MSFontService,sans-serif" font-weight="700" font-size="55" transform="matrix(1 0 0 1 420.396 1063)">Architecture</text><rect x="1066" y="928" width="428" height="500" stroke="#000000" stroke-width="3.89583" stroke-linejoin="round" stroke-miterlimit="10" fill="#FFFFFF"/><text font-family="Segoe UI,Segoe UI_MSFontService,sans-serif" font-weight="700" font-size="55" transform="matrix(1 0 0 1 1106.47 998)">Development </text><text font-family="Segoe UI,Segoe UI_MSFontService,sans-serif" font-weight="700" font-size="55" transform="matrix(1 0 0 1 1213.24 1064)">Tools</text><rect x="1690" y="928" width="661" height="500" stroke="#000000" stroke-width="3.89583" stroke-linejoin="round" stroke-miterlimit="10" fill="#FFFFFF"/><text font-family="Segoe UI,Segoe UI_MSFontService,sans-serif" font-weight="700" font-size="55" transform="matrix(1 0 0 1 1838.99 998)">Development, </text><text font-family="Segoe UI,Segoe UI_MSFontService,sans-serif" font-weight="700" font-size="55" transform="matrix(1 0 0 1 1834.2 1064)">Validation and </text><text font-family="Segoe UI,Segoe UI_MSFontService,sans-serif" font-weight="700" font-size="55" transform="matrix(1 0 0 1 1875.2 1130)">Integration</text><rect x="2620" y="687" width="548" height="363" stroke="#000000" stroke-width="3.89583" stroke-linejoin="round" stroke-miterlimit="10" fill="#FFFFFF"/><text font-family="Segoe UI,Segoe UI_MSFontService,sans-serif" font-weight="400" font-size="55" transform="matrix(1 0 0 1 2664.43 757)">Development Farm</text><rect x="2620" y="1083" width="548" height="363" stroke="#000000" stroke-width="3.89583" stroke-linejoin="round" stroke-miterlimit="10" fill="#FFFFFF"/><text font-family="Segoe UI,Segoe UI_MSFontService,sans-serif" font-weight="400" font-size="55" transform="matrix(1 0 0 1 2766.24 1154)">Build Farm</text><rect x="2620" y="1479" width="548" height="363" stroke="#000000" stroke-width="3.89583" stroke-linejoin="round" stroke-miterlimit="10" fill="#FFFFFF"/><text font-family="Segoe UI,Segoe UI_MSFontService,sans-serif" font-weight="400" font-size="55" transform="matrix(1 0 0 1 2779.96 1550)">Test Farm</text><path d="M868.5 1175.78 1043.58 1175.78 1043.58 1179.22 868.5 1179.22ZM1039 1163.75 1066.5 1177.5 1039 1191.25Z" fill="#0078D3"/><path d="M1494.5 1176.78 1669.58 1176.78 1669.58 1180.22 1494.5 1180.22ZM1665 1164.75 1692.5 1178.5 1665 1192.25Z" fill="#0078D3"/><g><g><g><path d="M2985 986.75 2917.12 986.75 2917.12 998.062 2939.75 998.062 2939.75 1009.37 2849.25 1009.37 2849.25 998.062 2871.88 998.062 2871.88 986.75 2804 986.75 2804 862.313 2985 862.313 2985 986.75ZM2973.69 873.625 2815.31 873.625 2815.31 952.812 2973.69 952.812 2973.69 873.625ZM2815.31 975.438 2973.69 975.438 2973.69 964.125 2815.31 964.125 2815.31 975.438ZM2905.81 998.062 2905.81 986.75 2883.19 986.75 2883.19 998.062 2905.81 998.062Z"/></g></g></g><path d="M2351.5 986.781 2526.58 986.782 2526.58 990.219 2351.5 990.219ZM2522 974.75 2549.5 988.5 2522 1002.25Z" fill="#0078D3"/><path d="M2351.5 1354.78 2526.58 1354.78 2526.58 1358.22 2351.5 1358.22ZM2522 1342.75 2549.5 1356.5 2522 1370.25Z" fill="#0078D3"/><g><g><g><path d="M2985 1739.75 2917.12 1739.75 2917.12 1751.06 2939.75 1751.06 2939.75 1762.38 2849.25 1762.38 2849.25 1751.06 2871.88 1751.06 2871.88 1739.75 2804 1739.75 2804 1615.31 2985 1615.31 2985 1739.75ZM2973.69 1626.62 2815.31 1626.62 2815.31 1705.81 2973.69 1705.81 2973.69 1626.62ZM2815.31 1728.44 2973.69 1728.44 2973.69 1717.12 2815.31 1717.12 2815.31 1728.44ZM2905.81 1751.06 2905.81 1739.75 2883.19 1739.75 2883.19 1751.06 2905.81 1751.06Z"/></g></g></g><g><g><g><path d="M2985 1331.75 2917.12 1331.75 2917.12 1343.06 2939.75 1343.06 2939.75 1354.38 2849.25 1354.38 2849.25 1343.06 2871.88 1343.06 2871.88 1331.75 2804 1331.75 2804 1207.31 2985 1207.31 2985 1331.75ZM2973.69 1218.62 2815.31 1218.62 2815.31 1297.81 2973.69 1297.81 2973.69 1218.62ZM2815.31 1320.44 2973.69 1320.44 2973.69 1309.12 2815.31 1309.12 2815.31 1320.44ZM2905.81 1343.06 2905.81 1331.75 2883.19 1331.75 2883.19 1343.06 2905.81 1343.06Z"/></g></g></g><rect x="3486" y="386" width="570" height="533" stroke="#A6A6A6" stroke-width="3.89583" stroke-linejoin="round" stroke-miterlimit="10" fill="#FFFFFF"/><text font-family="Segoe UI,Segoe UI_MSFontService,sans-serif" font-weight="700" font-size="55" transform="matrix(1 0 0 1 3544.39 457)">Hardware</text><text font-family="Segoe UI,Segoe UI_MSFontService,sans-serif" font-weight="700" font-size="55" transform="matrix(1 0 0 1 3797.21 457)">-</text><text font-family="Segoe UI,Segoe UI_MSFontService,sans-serif" font-weight="700" font-size="55" transform="matrix(1 0 0 1 3819.55 457)">in</text><text font-family="Segoe UI,Segoe UI_MSFontService,sans-serif" font-weight="700" font-size="55" transform="matrix(1 0 0 1 3868.25 457)">-</text><text font-family="Segoe UI,Segoe UI_MSFontService,sans-serif" font-weight="700" font-size="55" transform="matrix(1 0 0 1 3890.59 457)">the</text><text font-family="Segoe UI,Segoe UI_MSFontService,sans-serif" font-weight="700" font-size="55" transform="matrix(1 0 0 1 3974.81 457)">-</text><text font-family="Segoe UI,Segoe UI_MSFontService,sans-serif" font-weight="700" font-size="55" transform="matrix(1 0 0 1 3635.28 523)">Loop (</text><text font-family="Segoe UI,Segoe UI_MSFontService,sans-serif" font-weight="700" font-size="55" transform="matrix(1 0 0 1 3800.28 523)">HiL</text><text font-family="Segoe UI,Segoe UI_MSFontService,sans-serif" font-weight="700" font-size="55" transform="matrix(1 0 0 1 3886.22 523)">)</text><rect x="3484" y="939" width="569" height="543" stroke="#A6A6A6" stroke-width="3.89583" stroke-linejoin="round" stroke-miterlimit="10" fill="#FFFFFF"/><text font-family="Segoe UI,Segoe UI_MSFontService,sans-serif" font-weight="700" font-size="55" transform="matrix(1 0 0 1 3635.46 1010)">Test Fleets</text><path d="M3286.5 1158.78 3314 1158.78 3314 1162.22 3286.5 1162.22ZM3324.31 1158.78 3351.81 1158.78 3351.81 1162.22 3324.31 1162.22ZM3362.12 1158.78 3389.62 1158.78 3389.62 1162.22 3362.12 1162.22ZM3399.94 1158.78 3427.44 1158.78 3427.44 1162.22 3399.94 1162.22ZM3437.75 1158.78 3461.58 1158.78 3461.58 1162.22 3437.75 1162.22ZM3457 1146.75 3484.5 1160.5 3457 1174.25Z" fill="#0078D3"/><path d="M3288.5 634.781 3463.58 634.782 3463.58 638.219 3288.5 638.219ZM3459 622.75 3486.5 636.5 3459 650.25Z" fill="#0078D3"/><path d="M952.604 1179.13 946.141 1177.98 939.769 1176.2 933.68 1173.86 927.902 1170.98 922.465 1167.6 917.395 1163.75 912.719 1159.46 908.467 1154.78 904.663 1149.72 901.337 1144.33 898.515 1138.64 896.224 1132.67 894.493 1126.47 893.348 1120.07 892.818 1113.5 892.931 1106.79 893.693 1100.13 895.074 1093.68 897.043 1087.48 899.568 1081.55 902.617 1075.94 906.158 1070.66 910.159 1065.74 914.589 1061.22 919.417 1057.12 924.61 1053.48 930.138 1050.32 935.968 1047.67 942.07 1045.56 948.412 1044.03 954.96 1043.09 961.684 1042.78 968.405 1043.13 974.95 1044.1 981.285 1045.67 987.377 1047.81 993.194 1050.49 998.705 1053.68 1003.88 1057.35 1008.68 1061.47 1013.09 1066.02 1017.06 1070.96 1020.57 1076.25 1023.59 1081.89 1026.08 1087.82 1028.02 1094.03 1029.37 1100.49 1030.09 1107.16 1030.17 1113.86 1029.6 1120.43 1028.42 1126.83 1026.66 1133.02 1024.34 1138.97 1021.48 1144.65 1018.13 1150.03 1014.29 1155.06 1010.02 1159.73 1005.32 1163.99 1000.23 1167.81C1000.13 1167.88 1000.03 1167.94 999.921 1167.99L991.995 1171.67 990.548 1168.55 998.475 1164.87 998.168 1165.06 1003.01 1161.44 1007.49 1157.4 1011.56 1152.98 1015.21 1148.2 1018.41 1143.11 1021.14 1137.72 1023.36 1132.08 1025.04 1126.2 1026.18 1120.13 1026.73 1113.9 1026.67 1107.52 1026 1101.19 1024.74 1095.05 1022.91 1089.15 1020.56 1083.51 1017.71 1078.15 1014.38 1073.11 1010.62 1068.41 1006.44 1064.08 1001.89 1060.15 996.979 1056.65 991.752 1053.61 986.233 1051.05 980.453 1049 974.441 1047.5 968.226 1046.56 961.836 1046.22 955.443 1046.49 949.217 1047.37 943.189 1048.81 937.386 1050.8 931.84 1053.3 926.581 1056.3 921.638 1059.75 917.042 1063.63 912.822 1067.91 909.011 1072.57 905.636 1077.58 902.728 1082.91 900.318 1088.52 898.434 1094.41 897.107 1100.52 896.367 1106.86 896.245 1113.23 896.733 1119.47 897.805 1125.55 899.434 1131.44 901.596 1137.11 904.264 1142.53 907.413 1147.66 911.015 1152.47 915.045 1156.93 919.476 1161.01 924.283 1164.68 929.439 1167.9 934.918 1170.65 940.695 1172.89 946.745 1174.59 953.207 1175.74ZM1000.04 1181.64 969.58 1177.5 991.175 1155.61Z" fill="#0078D3"/><path d="M1583.6 1179.13 1577.14 1177.98 1570.77 1176.2 1564.68 1173.86 1558.9 1170.98 1553.46 1167.6 1548.39 1163.75 1543.72 1159.46 1539.47 1154.78 1535.66 1149.72 1532.34 1144.33 1529.51 1138.64 1527.22 1132.67 1525.49 1126.47 1524.35 1120.07 1523.82 1113.5 1523.93 1106.79 1524.69 1100.13 1526.07 1093.68 1528.04 1087.48 1530.57 1081.55 1533.62 1075.94 1537.16 1070.66 1541.16 1065.74 1545.59 1061.22 1550.42 1057.12 1555.61 1053.48 1561.14 1050.32 1566.97 1047.67 1573.07 1045.56 1579.41 1044.03 1585.96 1043.09 1592.68 1042.78 1599.41 1043.13 1605.95 1044.1 1612.28 1045.67 1618.38 1047.81 1624.19 1050.49 1629.71 1053.68 1634.88 1057.35 1639.68 1061.47 1644.09 1066.02 1648.06 1070.96 1651.57 1076.25 1654.59 1081.89 1657.08 1087.82 1659.02 1094.03 1660.37 1100.49 1661.09 1107.16 1661.17 1113.86 1660.6 1120.43 1659.42 1126.83 1657.66 1133.02 1655.34 1138.97 1652.48 1144.65 1649.13 1150.03 1645.3 1155.06 1641.02 1159.73 1636.32 1163.99 1631.23 1167.81C1631.13 1167.88 1631.03 1167.94 1630.92 1167.99L1622.99 1171.67 1621.55 1168.55 1629.47 1164.87 1629.17 1165.06 1634.01 1161.44 1638.49 1157.4 1642.56 1152.98 1646.21 1148.2 1649.41 1143.11 1652.14 1137.72 1654.36 1132.08 1656.05 1126.2 1657.18 1120.13 1657.73 1113.9 1657.68 1107.52 1657 1101.19 1655.74 1095.05 1653.91 1089.15 1651.56 1083.51 1648.71 1078.15 1645.38 1073.11 1641.62 1068.41 1637.44 1064.08 1632.89 1060.15 1627.98 1056.65 1622.75 1053.61 1617.23 1051.05 1611.45 1049 1605.44 1047.5 1599.23 1046.56 1592.84 1046.22 1586.44 1046.49 1580.22 1047.37 1574.19 1048.81 1568.39 1050.8 1562.84 1053.3 1557.58 1056.3 1552.64 1059.75 1548.04 1063.63 1543.82 1067.91 1540.01 1072.57 1536.64 1077.58 1533.73 1082.91 1531.32 1088.52 1529.43 1094.41 1528.11 1100.52 1527.37 1106.86 1527.25 1113.23 1527.73 1119.47 1528.8 1125.55 1530.43 1131.44 1532.6 1137.11 1535.26 1142.53 1538.41 1147.66 1542.02 1152.47 1546.05 1156.93 1550.48 1161.01 1555.28 1164.68 1560.44 1167.9 1565.92 1170.65 1571.7 1172.89 1577.74 1174.59 1584.21 1175.74ZM1631.05 1181.64 1600.58 1177.5 1622.18 1155.61Z" fill="#0078D3"/><path d="M2441.17 990.128 2434.75 988.976 2428.42 987.2 2422.38 984.856 2416.64 981.976 2411.24 978.594 2406.21 974.744 2401.57 970.459 2397.35 965.772 2393.57 960.716 2390.27 955.325 2387.47 949.632 2385.2 943.669 2383.48 937.47 2382.34 931.069 2381.82 924.499 2381.93 917.794 2382.69 911.132 2384.06 904.684 2386.01 898.483 2388.52 892.559 2391.54 886.942 2395.06 881.66 2399.03 876.744 2403.43 872.223 2408.22 868.126 2413.37 864.483 2418.86 861.321 2424.65 858.672 2430.71 856.564 2437 855.027 2443.51 854.09 2450.18 853.784 2456.85 854.126 2463.35 855.097 2469.64 856.668 2475.69 858.81 2481.47 861.491 2486.94 864.683 2492.08 868.355 2496.85 872.479 2501.22 877.023 2505.16 881.96 2508.65 887.26 2511.64 892.892 2514.12 898.829 2516.04 905.039 2517.37 911.492 2518.09 918.158 2518.17 924.863 2517.61 931.432 2516.44 937.828 2514.69 944.019 2512.38 949.971 2509.55 955.65 2506.22 961.024 2502.41 966.059 2498.17 970.722 2493.5 974.981 2488.45 978.803C2488.36 978.876 2488.25 978.939 2488.14 978.99L2480.41 982.585 2478.96 979.467 2486.69 975.873 2486.38 976.059 2491.19 972.44 2495.63 968.405 2499.67 963.984 2503.3 959.209 2506.47 954.113 2509.18 948.726 2511.38 943.08 2513.06 937.206 2514.18 931.135 2514.73 924.898 2514.68 918.524 2514.01 912.185 2512.75 906.05 2510.94 900.147 2508.61 894.503 2505.77 889.145 2502.47 884.103 2498.74 879.404 2494.59 875.076 2490.07 871.149 2485.2 867.65 2480.02 864.607 2474.54 862.049 2468.81 860.002 2462.84 858.496 2456.67 857.559 2450.33 857.218 2443.99 857.493 2437.81 858.367 2431.83 859.812 2426.08 861.799 2420.57 864.302 2415.35 867.292 2410.45 870.742 2405.89 874.623 2401.7 878.908 2397.92 883.568 2394.57 888.575 2391.68 893.902 2389.29 899.52 2387.42 905.403 2386.1 911.523 2385.37 917.855 2385.25 924.228 2385.73 930.472 2386.79 936.556 2388.41 942.448 2390.56 948.118 2393.21 953.533 2396.33 958.663 2399.91 963.474 2403.91 967.936 2408.3 972.016 2413.07 975.683 2418.19 978.906 2423.63 981.652 2429.36 983.892 2435.36 985.592 2441.77 986.744ZM2488.5 992.529 2458.02 988.5 2479.53 966.533Z" fill="#0078D3"/><path d="M2441.16 1357.13 2434.75 1355.97 2428.42 1354.18 2422.37 1351.81 2416.64 1348.91 2411.24 1345.51 2406.21 1341.63 2401.57 1337.31 2397.34 1332.59 2393.57 1327.49 2390.27 1322.06 2387.47 1316.33 2385.2 1310.32 2383.48 1304.08 2382.34 1297.63 2381.82 1291.02 2381.93 1284.26 2382.69 1277.55 2384.06 1271.06 2386.01 1264.81 2388.51 1258.85 2391.54 1253.19 2395.05 1247.87 2399.02 1242.92 2403.42 1238.36 2408.21 1234.24 2413.37 1230.56 2418.86 1227.38 2424.64 1224.71 2430.7 1222.59 2437 1221.04 2443.5 1220.09 2450.18 1219.78 2456.86 1220.13 2463.36 1221.11 2469.65 1222.69 2475.7 1224.85 2481.47 1227.55 2486.94 1230.77 2492.08 1234.47 2496.85 1238.62 2501.22 1243.2 2505.17 1248.17 2508.65 1253.51 2511.65 1259.18 2514.12 1265.16 2516.04 1271.42 2517.37 1277.92 2518.09 1284.63 2518.17 1291.38 2517.61 1298 2516.44 1304.44 2514.69 1310.68 2512.38 1316.67 2509.55 1322.39 2506.22 1327.81 2502.42 1332.88 2498.17 1337.57 2493.51 1341.87 2488.46 1345.72C2488.36 1345.79 2488.26 1345.85 2488.15 1345.9L2480.4 1349.54 2478.94 1346.42 2486.69 1342.79 2486.38 1342.98 2491.18 1339.33 2495.62 1335.27 2499.67 1330.81 2503.29 1326 2506.47 1320.86 2509.18 1315.44 2511.38 1309.74 2513.06 1303.82 2514.18 1297.71 2514.73 1291.42 2514.68 1284.99 2514.01 1278.61 2512.75 1272.42 2510.94 1266.47 2508.6 1260.78 2505.77 1255.39 2502.47 1250.3 2498.73 1245.57 2494.59 1241.21 2490.07 1237.25 2485.2 1233.73 2480.01 1230.66 2474.54 1228.08 2468.8 1226.02 2462.84 1224.51 2456.67 1223.56 2450.34 1223.22 2443.99 1223.49 2437.82 1224.38 2431.84 1225.83 2426.08 1227.83 2420.58 1230.35 2415.36 1233.37 2410.45 1236.84 2405.89 1240.75 2401.7 1245.07 2397.92 1249.77 2394.57 1254.81 2391.68 1260.18 2389.29 1265.84 2387.42 1271.77 2386.1 1277.94 2385.37 1284.32 2385.25 1290.75 2385.73 1297.04 2386.79 1303.17 2388.41 1309.11 2390.56 1314.82 2393.21 1320.28 2396.33 1325.45 2399.91 1330.3 2403.91 1334.79 2408.31 1338.91 2413.08 1342.6 2418.19 1345.85 2423.63 1348.61 2429.36 1350.87 2435.36 1352.58 2441.78 1353.74ZM2488.51 1359.46 2458.02 1355.5 2479.48 1333.49Z" fill="#0078D3"/><path d="M3378.6 638.128 3372.14 636.976 3365.77 635.201 3359.68 632.857 3353.9 629.978 3348.46 626.597 3343.39 622.748 3338.72 618.463 3334.47 613.776 3330.66 608.721 3327.34 603.33 3324.51 597.636 3322.22 591.673 3320.49 585.473 3319.35 579.071 3318.82 572.5 3318.93 565.794 3319.69 559.13 3321.07 552.682 3323.04 546.48 3325.57 540.555 3328.62 534.937 3332.16 529.655 3336.16 524.739 3340.59 520.219 3345.42 516.122 3350.61 512.479 3356.14 509.319 3361.97 506.67 3368.07 504.562 3374.41 503.026 3380.96 502.09 3387.68 501.784 3394.41 502.126 3400.95 503.097 3407.28 504.668 3413.38 506.808 3419.19 509.489 3424.71 512.68 3429.88 516.352 3434.68 520.474 3439.09 525.019 3443.06 529.955 3446.57 535.255 3449.59 540.888 3452.08 546.824 3454.02 553.035 3455.37 559.489 3456.09 566.157 3456.17 572.863 3455.6 579.433 3454.42 585.831 3452.66 592.023 3450.34 597.975 3447.48 603.655 3444.13 609.029 3440.29 614.064 3436.02 618.727 3431.32 622.986 3426.23 626.807C3426.13 626.879 3426.03 626.94 3425.92 626.991L3417.99 630.668 3416.55 627.549 3424.47 623.872 3424.17 624.056 3429.01 620.436 3433.49 616.4 3437.56 611.979 3441.21 607.204 3444.41 602.108 3447.14 596.721 3449.35 591.076 3451.04 585.204 3452.18 579.134 3452.73 572.898 3452.67 566.525 3452 560.187 3450.74 554.054 3448.91 548.151 3446.56 542.507 3443.71 537.15 3440.38 532.108 3436.62 527.408 3432.44 523.081 3427.89 519.153 3422.98 515.653 3417.75 512.609 3412.23 510.05 3406.45 508.003 3400.44 506.497 3394.23 505.559 3387.84 505.218 3381.44 505.493 3375.22 506.368 3369.19 507.813 3363.39 509.801 3357.84 512.305 3352.58 515.295 3347.64 518.746 3343.04 522.628 3338.82 526.913 3335.01 531.573 3331.64 536.58 3328.73 541.906 3326.32 547.524 3324.43 553.406 3323.11 559.525 3322.37 565.855 3322.25 572.227 3322.73 578.47 3323.8 584.552 3325.43 590.444 3327.6 596.113 3330.26 601.528 3333.41 606.658 3337.02 611.469 3341.05 615.931 3345.48 620.012 3350.28 623.68 3355.44 626.903 3360.92 629.651 3366.7 631.891 3372.74 633.592 3379.21 634.744ZM3426.04 640.645 3395.58 636.5 3417.17 614.615Z" fill="#0078D3"/><path d="M3376.17 1162.13 3369.75 1160.98 3363.42 1159.2 3357.38 1156.86 3351.64 1153.98 3349.8 1152.83 3351.63 1149.92 3353.19 1150.91 3358.63 1153.65 3364.36 1155.89 3370.36 1157.59 3376.77 1158.74ZM3341.26 1146.79 3341.21 1146.74 3336.57 1142.46 3332.35 1137.77 3328.57 1132.72 3325.27 1127.32 3323.96 1124.66 3327.04 1123.15 3328.21 1125.53 3331.33 1130.66 3334.91 1135.47 3338.91 1139.94 3343.3 1144.02 3343.36 1144.06ZM3319.96 1114.83 3318.48 1109.47 3317.34 1103.07 3316.82 1096.5 3316.93 1089.79 3317.24 1087.01 3320.66 1087.4 3320.37 1089.85 3320.25 1096.23 3320.73 1102.47 3321.79 1108.56 3323.27 1113.91ZM3319.05 1076.7 3319.06 1076.68 3321.01 1070.48 3323.52 1064.56 3326.54 1058.94 3330.06 1053.66 3331.71 1051.61 3334.38 1053.77 3332.92 1055.57 3329.57 1060.58 3326.68 1065.9 3324.29 1071.52 3322.42 1077.4 3322.41 1077.42ZM3338.9 1043.81 3343.22 1040.13 3348.37 1036.48 3353.86 1033.32 3359.65 1030.67 3362.91 1029.53 3364.04 1032.78 3361.08 1033.8 3355.57 1036.3 3350.35 1039.29 3345.45 1042.74 3341.13 1046.42ZM3373.19 1026.85 3378.51 1026.09 3385.18 1025.78 3391.85 1026.13 3398.35 1027.1 3401.13 1027.79 3400.29 1031.12 3397.84 1030.5 3391.67 1029.56 3385.33 1029.22 3378.99 1029.49 3373.68 1030.25ZM3411.24 1031.06 3416.47 1033.49 3421.94 1036.68 3427.08 1040.35 3431.85 1044.48 3434.21 1046.94 3431.73 1049.32 3429.59 1047.08 3425.07 1043.15 3420.2 1039.65 3415.02 1036.61 3409.79 1034.17ZM3440.95 1055.14 3443.65 1059.26 3446.64 1064.89 3449.12 1070.83 3451.04 1077.04 3451.83 1080.87 3448.47 1081.56 3447.75 1078.05 3445.94 1072.15 3443.61 1066.5 3440.77 1061.15 3438.07 1057.03ZM3453.11 1091.42 3453.17 1096.86 3452.61 1103.43 3451.44 1109.83 3449.69 1116.02 3448.54 1118.98 3445.34 1117.74 3446.38 1115.08 3448.06 1109.21 3449.18 1103.14 3449.73 1096.9 3449.68 1091.45ZM3443.98 1128.57 3441.22 1133.02 3437.41 1138.06 3433.17 1142.72 3428.5 1146.98 3425.35 1149.37 3423.28 1146.63 3426.19 1144.44 3430.63 1140.4 3434.67 1135.98 3438.3 1131.21 3441.06 1126.76ZM3415.95 1154.33 3415.41 1154.58 3413.96 1151.47 3414.5 1151.22ZM3423.5 1164.53 3393.02 1160.5 3414.53 1138.53Z" fill="#0078D3"/><g clip-path="url(#clip1)"><g clip-path="url(#clip2)"><g clip-path="url(#clip3)"><path d="M1286.19 1180.57C1286.19 1188.11 1284.58 1195.23 1281.35 1201.94 1278.13 1208.64 1273.55 1214.38 1267.63 1219.14L1267.63 1303.74C1267.63 1307.93 1266.79 1311.86 1265.11 1315.53 1263.44 1319.21 1261.18 1322.4 1258.34 1325.11 1255.51 1327.81 1252.22 1329.97 1248.48 1331.58 1244.74 1333.19 1240.81 1334 1236.69 1334 1232.37 1334 1228.34 1333.19 1224.6 1331.58 1220.86 1329.97 1217.61 1327.78 1214.84 1325.01 1212.07 1322.24 1209.84 1318.95 1208.17 1315.15 1206.49 1311.35 1205.69 1307.32 1205.75 1303.06L1205.75 1219.14C1199.88 1214.44 1195.34 1208.74 1192.12 1202.03 1188.9 1195.33 1187.25 1188.17 1187.19 1180.57 1187.19 1176.25 1187.74 1172 1188.83 1167.81 1189.93 1163.62 1191.57 1159.62 1193.76 1155.82 1195.95 1152.02 1198.53 1148.57 1201.5 1145.47 1204.46 1142.38 1207.94 1139.77 1211.94 1137.64 1212.97 1137.13 1213.97 1136.74 1214.93 1136.48 1215.9 1136.23 1216.96 1136.06 1218.13 1136 1219.87 1136 1221.48 1136.32 1222.96 1136.97 1224.44 1137.61 1225.73 1138.48 1226.83 1139.58 1227.92 1140.67 1228.82 1141.99 1229.53 1143.54 1230.24 1145.09 1230.56 1146.7 1230.5 1148.38L1230.5 1174.38 1242.88 1174.38 1242.88 1148.38C1242.88 1146.63 1243.2 1145.02 1243.84 1143.54 1244.49 1142.06 1245.36 1140.77 1246.45 1139.67 1247.55 1138.58 1248.87 1137.68 1250.42 1136.97 1251.96 1136.26 1253.57 1135.94 1255.25 1136 1256.41 1136 1257.47 1136.13 1258.44 1136.39 1259.41 1136.64 1260.41 1137.06 1261.44 1137.64 1265.24 1139.71 1268.66 1142.28 1271.69 1145.38 1274.71 1148.47 1277.33 1151.92 1279.52 1155.72 1281.71 1159.53 1283.35 1163.55 1284.45 1167.81 1285.54 1172.06 1286.12 1176.32 1286.19 1180.57ZM1354.25 1241.19 1354.25 1303.74C1354.25 1307.93 1353.41 1311.86 1351.74 1315.53 1350.06 1319.21 1347.8 1322.4 1344.97 1325.11 1342.13 1327.81 1338.85 1329.97 1335.11 1331.58 1331.37 1333.19 1327.44 1334 1323.31 1334 1319.19 1334 1315.26 1333.23 1311.52 1331.68 1307.78 1330.13 1304.49 1327.97 1301.66 1325.2 1298.82 1322.43 1296.56 1319.21 1294.89 1315.53 1293.21 1311.86 1292.38 1307.93 1292.38 1303.74L1292.38 1241.19C1292.38 1239.77 1292.63 1238.67 1293.15 1237.9 1293.66 1237.13 1294.37 1236.52 1295.28 1236.06 1296.18 1235.61 1297.14 1235.32 1298.18 1235.19 1299.21 1235.06 1300.3 1235 1301.46 1235L1304.75 1235 1304.75 1174.58C1304.36 1173.87 1303.85 1172.9 1303.2 1171.67 1302.56 1170.45 1301.88 1169.13 1301.17 1167.71 1300.46 1166.29 1299.85 1165 1299.34 1163.84 1298.82 1162.68 1298.56 1161.65 1298.56 1160.75 1298.56 1160.04 1298.85 1158.75 1299.43 1156.88 1300.01 1155.01 1300.66 1152.98 1301.37 1150.79 1302.07 1148.6 1302.78 1146.54 1303.49 1144.6 1304.2 1142.67 1304.72 1141.22 1305.04 1140.25 1305.43 1139.03 1306.17 1138.03 1307.26 1137.26 1308.36 1136.48 1309.58 1136.06 1310.94 1136L1335.69 1136C1337.04 1136 1338.23 1136.39 1339.26 1137.16 1340.3 1137.93 1341.07 1138.96 1341.59 1140.25 1341.84 1141.16 1342.33 1142.57 1343.04 1144.51 1343.74 1146.44 1344.49 1148.5 1345.26 1150.7 1346.03 1152.89 1346.68 1154.92 1347.19 1156.79 1347.71 1158.66 1348 1159.98 1348.06 1160.75 1348.06 1161.52 1347.8 1162.52 1347.29 1163.75 1346.77 1164.97 1346.19 1166.29 1345.55 1167.71 1344.9 1169.13 1344.23 1170.42 1343.52 1171.58 1342.81 1172.74 1342.26 1173.74 1341.88 1174.58L1341.88 1235 1345.16 1235C1346.26 1235 1347.32 1235.06 1348.35 1235.19 1349.38 1235.32 1350.35 1235.58 1351.25 1235.97 1352.16 1236.35 1352.86 1236.97 1353.38 1237.8 1353.9 1238.64 1354.19 1239.77 1354.25 1241.19ZM1255.25 1212.67C1258.15 1211.06 1260.73 1209.09 1262.98 1206.77 1265.24 1204.45 1267.21 1201.9 1268.88 1199.13 1270.56 1196.36 1271.78 1193.4 1272.56 1190.24 1273.33 1187.08 1273.75 1183.86 1273.81 1180.57 1273.81 1173.74 1272.2 1167.55 1268.98 1162.01 1265.76 1156.46 1261.18 1151.92 1255.25 1148.38L1255.25 1186.76 1218.13 1186.76 1218.13 1148.38C1212.26 1151.86 1207.72 1156.37 1204.49 1161.91 1201.27 1167.45 1199.63 1173.67 1199.56 1180.57 1199.56 1183.86 1199.98 1187.08 1200.82 1190.24 1201.66 1193.4 1202.88 1196.36 1204.49 1199.13 1206.1 1201.9 1208.04 1204.45 1210.29 1206.77 1212.55 1209.09 1215.16 1211.06 1218.13 1212.67L1218.13 1303.06C1218.13 1305.58 1218.61 1307.96 1219.58 1310.22 1220.54 1312.47 1221.86 1314.44 1223.54 1316.11 1225.21 1317.79 1227.21 1319.14 1229.53 1320.17 1231.85 1321.21 1234.24 1321.69 1236.69 1321.63 1239.2 1321.63 1241.59 1321.14 1243.84 1320.17 1246.1 1319.21 1248.06 1317.89 1249.74 1316.21 1251.42 1314.54 1252.77 1312.54 1253.8 1310.22 1254.83 1307.9 1255.31 1305.51 1255.25 1303.06L1255.25 1212.67ZM1317.13 1235 1329.5 1235 1329.5 1173.13C1329.5 1172.16 1329.73 1171.22 1330.18 1170.32L1335.2 1160.27 1331.24 1148.38 1315.38 1148.38 1311.42 1160.27 1316.45 1170.32C1316.9 1171.22 1317.13 1172.16 1317.13 1173.13L1317.13 1235ZM1304.75 1247.38 1304.75 1259.75 1341.88 1259.75 1341.88 1247.38 1304.75 1247.38ZM1341.88 1303.06 1341.88 1272.13 1304.75 1272.13 1304.75 1303.06C1304.75 1305.58 1305.23 1307.96 1306.2 1310.22 1307.17 1312.47 1308.49 1314.44 1310.16 1316.11 1311.84 1317.79 1313.84 1319.14 1316.16 1320.17 1318.48 1321.21 1320.86 1321.69 1323.31 1321.63 1325.83 1321.63 1328.21 1321.14 1330.47 1320.17 1332.72 1319.21 1334.69 1317.89 1336.36 1316.21 1338.04 1314.54 1339.39 1312.54 1340.42 1310.22 1341.46 1307.9 1341.94 1305.51 1341.88 1303.06Z"/></g></g></g><g><g><g><path d="M1989.62 1184.75 1989.62 1256.94 2032.94 1256.94 2032.94 1314.69 1953.53 1314.69C1950.37 1314.69 1947.48 1314.16 1944.85 1313.11 1942.21 1312.06 1939.96 1310.55 1938.08 1308.6 1936.2 1306.64 1934.69 1304.35 1933.57 1301.72 1932.44 1299.08 1931.88 1296.19 1931.88 1293.03L1931.88 1256.94 1903 1256.94 1903 1242.5 1931.88 1242.5 1931.88 1206.41C1931.88 1203.25 1932.4 1200.35 1933.45 1197.72 1934.51 1195.09 1936.01 1192.83 1937.97 1190.95 1939.92 1189.07 1942.21 1187.57 1944.85 1186.44 1947.48 1185.31 1950.37 1184.75 1953.53 1184.75L1989.62 1184.75ZM2018.5 1271.38 1975.19 1271.38 1975.19 1199.19 1953.53 1199.19C1948.72 1199.19 1946.31 1201.59 1946.31 1206.41L1946.31 1293.03C1946.31 1297.84 1948.72 1300.25 1953.53 1300.25L2018.5 1300.25 2018.5 1271.38ZM2105.12 1242.5 2134 1242.5 2134 1256.94 2105.12 1256.94 2105.12 1293.03C2105.12 1296.19 2104.6 1299.08 2103.55 1301.72 2102.49 1304.35 2100.99 1306.6 2099.03 1308.48 2097.08 1310.36 2094.79 1311.87 2092.15 1313 2089.52 1314.12 2086.63 1314.69 2083.47 1314.69L2047.38 1314.69 2047.38 1242.5 2004.06 1242.5 2004.06 1184.75 2083.47 1184.75C2086.63 1184.75 2089.52 1185.28 2092.15 1186.33 2094.79 1187.38 2097.04 1188.89 2098.92 1190.84 2100.8 1192.8 2102.31 1195.09 2103.43 1197.72 2104.56 1200.35 2105.12 1203.25 2105.12 1206.41L2105.12 1242.5ZM2090.69 1293.03 2090.69 1206.41C2090.69 1201.59 2088.28 1199.19 2083.47 1199.19L2018.5 1199.19 2018.5 1228.06 2061.81 1228.06 2061.81 1300.25 2083.47 1300.25C2088.28 1300.25 2090.69 1297.84 2090.69 1293.03Z"/></g></g></g><g><g><g><path d="M124.298 99.9448C124.558 101.244 124.688 102.564 124.688 103.906 124.688 105.249 124.558 106.569 124.298 107.868L132.351 111.18 129.168 118.908 121.116 115.531C119.601 117.739 117.739 119.601 115.531 121.116L118.908 129.168 111.18 132.351 107.868 124.298C106.569 124.558 105.249 124.688 103.906 124.688 102.564 124.688 101.244 124.558 99.9448 124.298L96.6328 132.351 88.9048 129.168 92.2818 121.116C90.0738 119.601 88.2119 117.739 86.6968 115.531L78.6441 118.908 75.4619 111.18 83.5147 107.868C83.2549 106.569 83.125 105.249 83.125 103.906 83.125 102.564 83.2549 101.244 83.5147 99.9448L75.4619 96.6328 78.6441 88.9048 86.6968 92.2818C88.2119 90.0738 90.0738 88.2119 92.2818 86.6968L88.9048 78.6441 96.6328 75.4619 99.9448 83.5147C101.244 83.2549 102.564 83.125 103.906 83.125 105.249 83.125 106.569 83.2549 107.868 83.5147L111.18 75.4619 118.908 78.6441 115.531 86.6968C117.739 88.2119 119.601 90.0738 121.116 92.2818L129.168 88.9048 132.351 96.6328 124.298 99.9448ZM103.906 116.375C105.638 116.375 107.262 116.05 108.777 115.401 110.292 114.751 111.613 113.864 112.738 112.738 113.864 111.613 114.751 110.292 115.401 108.777 116.05 107.262 116.375 105.638 116.375 103.906 116.375 102.174 116.05 100.551 115.401 99.0357 114.751 97.5206 113.864 96.1997 112.738 95.0742 111.613 93.9488 110.292 93.0611 108.777 92.4116 107.262 91.7622 105.638 91.4375 103.906 91.4375 102.174 91.4375 100.551 91.7622 99.0357 92.4116 97.5206 93.0611 96.1997 93.9488 95.0742 95.0742 93.9488 96.1997 93.0611 97.5206 92.4116 99.0357 91.7622 100.551 91.4375 102.174 91.4375 103.906 91.4375 105.638 91.7622 107.262 92.4116 108.777 93.0611 110.292 93.9488 111.613 95.0742 112.738 96.1997 113.864 97.5206 114.751 99.0357 115.401 100.551 116.05 102.174 116.375 103.906 116.375ZM66.5 103.906C66.5 106.72 66.8033 109.491 67.4092 112.219 68.0151 114.946 68.9243 117.544 70.1367 120.012 71.3492 122.48 72.7993 124.817 74.4878 127.025 76.1763 129.233 78.146 131.225 80.3975 133L22.9893 133C21.2575 133 19.6339 132.675 18.1187 132.026 16.6034 131.376 15.2829 130.489 14.1572 129.363 13.0316 128.238 12.1224 126.917 11.4297 125.402 10.737 123.887 10.4123 122.263 10.4556 120.531 10.4556 119.362 10.6071 118.258 10.9102 117.219 11.2132 116.18 11.6678 115.141 12.2739 114.102L49.2256 49.8101C49.6586 49.0308 49.875 48.2731 49.875 47.5371L49.875 8.3125 41.5625 8.3125 41.5625 0 91.4375 0 91.4375 8.3125 83.125 8.3125 83.125 47.5371C83.125 48.3597 83.3198 49.0957 83.7095 49.7451L94.1001 67.7988C91.3726 68.5781 88.7749 69.6172 86.3072 70.916L76.5659 53.9663C76.0029 52.9706 75.5704 51.9315 75.2671 50.8491 74.9638 49.7668 74.8125 48.6628 74.8125 47.5371L74.8125 8.3125 58.1875 8.3125 58.1875 47.5371C58.1875 49.7884 57.5814 51.9531 56.3692 54.0313L34.9385 91.4375 68.6431 91.4375C67.2144 95.4639 66.5 99.6201 66.5 103.906Z" fill="#0078D3" transform="matrix(1 0 0 1.00752 2928 1577)"/></g></g></g><g><g><g><path d="M2955.25 1236.5 2938.75 1236.5 2938.75 1220 2955.25 1220 2955.25 1236.5ZM3037.75 1203.5 3037.75 1277.75 2922.25 1277.75 2922.25 1203.5 2930.5 1203.5 2930.5 1244.75 3029.5 1244.75 3029.5 1203.5 3037.75 1203.5ZM2971.75 1253 2955.25 1253 2955.25 1269.5 2971.75 1269.5 2971.75 1253ZM3004.75 1253 2988.25 1253 2988.25 1269.5 3004.75 1269.5 3004.75 1253ZM2971.75 1220 2988.25 1220 2988.25 1236.5 2971.75 1236.5 2971.75 1220ZM3021.25 1236.5 3004.75 1236.5 3004.75 1220 3021.25 1220 3021.25 1236.5ZM2975.88 1213.43 2956.47 1194.03 2962.28 1188.22 2971.75 1197.63 2971.75 1154 2980 1154 2980 1197.63 2989.47 1188.22 2995.28 1194.03 2975.88 1213.43Z" fill="#0078D3"/></g></g></g><g><g><g><path d="M536.875 1222.63 536.875 1210.25 673 1210.25 673 1222.63 536.875 1222.63ZM536.875 1173.13 673 1173.13 673 1185.5 536.875 1185.5 536.875 1173.13ZM536.875 1259.75 536.875 1247.38 673 1247.38 673 1259.75 536.875 1259.75ZM536.875 1296.88 536.875 1284.5 673 1284.5 673 1296.88 536.875 1296.88ZM493.563 1181.34 513.962 1161.04 522.663 1169.74 493.563 1198.84 476.837 1182.12 485.538 1173.42 493.563 1181.34ZM493.563 1218.47 513.962 1198.17 522.663 1206.87 493.563 1235.97 476.837 1219.24 485.538 1210.54 493.563 1218.47ZM493.563 1255.59 513.962 1235.29 522.663 1243.99 493.563 1273.09 476.837 1256.37 485.538 1247.67 493.563 1255.59ZM493.563 1292.72 513.962 1272.42 522.663 1281.12 493.563 1310.22 476.837 1293.49 485.538 1284.79 493.563 1292.72Z"/></g></g></g><g><g><g><path d="M3696.34 1685.75C3708.64 1685.75 3719.36 1694.11 3722.35 1706.04L3725.53 1718.75 3733.06 1718.75C3736.2 1718.75 3738.78 1721.08 3739.19 1724.1L3739.25 1724.94C3739.25 1728.07 3736.92 1730.66 3733.9 1731.07L3733.06 1731.12 3728.64 1731.12 3730.36 1737.94C3735.71 1741.2 3739.28 1747.09 3739.28 1753.81L3739.28 1823.91C3739.28 1831.88 3732.82 1838.35 3724.85 1838.35L3712.44 1838.35C3704.46 1838.35 3698 1831.88 3698 1823.91L3697.99 1813.62 3632.03 1813.62 3632.03 1823.91C3632.03 1831.88 3625.57 1838.35 3617.6 1838.35L3605.19 1838.35C3597.21 1838.35 3590.75 1831.88 3590.75 1823.91L3590.75 1753.81C3590.75 1747.09 3594.32 1741.2 3599.67 1737.94L3601.38 1731.12 3596.94 1731.12C3593.8 1731.12 3591.22 1728.8 3590.81 1725.78L3590.75 1724.94C3590.75 1721.8 3593.08 1719.22 3596.1 1718.81L3596.94 1718.75 3604.47 1718.75 3607.65 1706.06C3610.64 1694.12 3621.36 1685.75 3633.67 1685.75L3696.34 1685.75ZM3619.66 1813.62 3603.12 1813.62 3603.12 1823.91C3603.12 1825.05 3604.05 1825.97 3605.19 1825.97L3617.6 1825.97C3618.74 1825.97 3619.66 1825.05 3619.66 1823.91L3619.66 1813.62ZM3726.91 1813.62 3710.37 1813.62 3710.38 1823.91C3710.38 1825.05 3711.3 1825.97 3712.44 1825.97L3724.85 1825.97C3725.99 1825.97 3726.91 1825.05 3726.91 1823.91L3726.91 1813.62ZM3720.72 1747.62 3609.31 1747.62C3605.9 1747.62 3603.12 1750.4 3603.12 1753.81L3603.12 1801.25 3726.91 1801.25 3726.91 1753.81C3726.91 1750.4 3724.14 1747.62 3720.72 1747.62ZM3650.55 1776.5 3679.44 1776.5C3682.86 1776.5 3685.63 1779.27 3685.63 1782.69 3685.63 1785.82 3683.3 1788.41 3680.28 1788.82L3679.44 1788.88 3650.55 1788.88C3647.14 1788.88 3644.37 1786.1 3644.37 1782.69 3644.37 1779.55 3646.69 1776.97 3649.71 1776.56L3650.55 1776.5 3679.44 1776.5 3650.55 1776.5ZM3706.25 1760C3710.81 1760 3714.5 1763.69 3714.5 1768.25 3714.5 1772.81 3710.81 1776.5 3706.25 1776.5 3701.69 1776.5 3698 1772.81 3698 1768.25 3698 1763.69 3701.69 1760 3706.25 1760ZM3623.75 1760C3628.31 1760 3632 1763.69 3632 1768.25 3632 1772.81 3628.31 1776.5 3623.75 1776.5 3619.19 1776.5 3615.5 1772.81 3615.5 1768.25 3615.5 1763.69 3619.19 1760 3623.75 1760ZM3696.34 1698.12 3633.67 1698.12C3627.04 1698.12 3621.27 1702.63 3619.66 1709.06L3613.11 1735.25 3716.92 1735.25 3710.35 1709.05C3708.74 1702.63 3702.97 1698.12 3696.34 1698.12Z" fill="#212121"/></g></g></g><g><g><g><path d="M3800.07 1103.87C3814.42 1103.87 3826.92 1113.63 3830.41 1127.55L3834.12 1142.37 3842.91 1142.37C3846.56 1142.37 3849.58 1145.09 3850.06 1148.61L3850.12 1149.59C3850.12 1153.25 3847.41 1156.27 3843.89 1156.75L3842.91 1156.81 3837.75 1156.81 3839.75 1164.77C3845.99 1168.57 3850.16 1175.44 3850.16 1183.28L3850.16 1265.06C3850.16 1274.37 3842.62 1281.91 3833.32 1281.91L3818.84 1281.91C3809.54 1281.91 3802 1274.37 3802 1265.06L3801.99 1253.06 3725.04 1253.06 3725.04 1265.06C3725.04 1274.37 3717.5 1281.91 3708.2 1281.91L3693.72 1281.91C3684.42 1281.91 3676.87 1274.37 3676.87 1265.06L3676.87 1183.28C3676.87 1175.44 3681.04 1168.57 3687.29 1164.77L3689.28 1156.81 3684.09 1156.81C3680.44 1156.81 3677.42 1154.1 3676.94 1150.57L3676.87 1149.59C3676.87 1145.94 3679.59 1142.92 3683.11 1142.44L3684.09 1142.37 3692.88 1142.37 3696.6 1127.57C3700.08 1113.64 3712.59 1103.87 3726.94 1103.87L3800.07 1103.87ZM3710.6 1253.06 3691.3 1253.06 3691.31 1265.06C3691.31 1266.39 3692.39 1267.47 3693.72 1267.47L3708.2 1267.47C3709.52 1267.47 3710.6 1266.39 3710.6 1265.06L3710.6 1253.06ZM3835.73 1253.06 3816.43 1253.06 3816.44 1265.06C3816.44 1266.39 3817.51 1267.47 3818.84 1267.47L3833.32 1267.47C3834.65 1267.47 3835.73 1266.39 3835.73 1265.06L3835.73 1253.06ZM3828.51 1176.06 3698.53 1176.06C3694.54 1176.06 3691.31 1179.29 3691.31 1183.28L3691.31 1238.62 3835.73 1238.62 3835.73 1183.28C3835.73 1179.29 3832.49 1176.06 3828.51 1176.06ZM3746.65 1209.75 3780.35 1209.75C3784.34 1209.75 3787.57 1212.98 3787.57 1216.97 3787.57 1220.62 3784.85 1223.64 3781.33 1224.12L3780.35 1224.19 3746.65 1224.19C3742.66 1224.19 3739.43 1220.96 3739.43 1216.97 3739.43 1213.31 3742.14 1210.29 3745.67 1209.82L3746.65 1209.75 3780.35 1209.75 3746.65 1209.75ZM3811.62 1190.5C3816.94 1190.5 3821.25 1194.81 3821.25 1200.12 3821.25 1205.44 3816.94 1209.75 3811.62 1209.75 3806.31 1209.75 3802 1205.44 3802 1200.12 3802 1194.81 3806.31 1190.5 3811.62 1190.5ZM3715.37 1190.5C3720.69 1190.5 3725 1194.81 3725 1200.12 3725 1205.44 3720.69 1209.75 3715.37 1209.75 3710.06 1209.75 3705.75 1205.44 3705.75 1200.12 3705.75 1194.81 3710.06 1190.5 3715.37 1190.5ZM3800.07 1118.31 3726.94 1118.31C3719.21 1118.31 3712.48 1123.57 3710.6 1131.07L3702.96 1161.62 3824.07 1161.62 3816.41 1131.06C3814.53 1123.57 3807.79 1118.31 3800.07 1118.31Z" fill="#0078D3"/></g></g></g><g><g><g><path d="M3849.91 589.312C3852.91 589.312 3855.73 589.876 3858.37 591.004 3861 592.132 3863.29 593.674 3865.25 595.629 3867.2 597.584 3868.74 599.877 3869.87 602.509 3871 605.141 3871.56 607.961 3871.56 610.969L3871.56 712.031C3871.56 715.039 3871 717.859 3869.87 720.491 3868.74 723.122 3867.2 725.416 3865.25 727.371 3863.29 729.326 3861 730.868 3858.37 731.995 3855.73 733.123 3852.91 733.687 3849.91 733.687L3842.69 733.687 3842.69 762.562 3828.25 762.562 3828.25 733.687 3813.81 733.687 3813.81 762.562 3799.38 762.562 3799.38 733.687 3784.94 733.687 3784.94 762.562 3770.5 762.562 3770.5 733.687 3756.06 733.687 3756.06 762.562 3741.62 762.562 3741.62 733.687 3727.19 733.687 3727.19 762.562 3712.75 762.562 3712.75 733.687 3698.31 733.687 3698.31 762.562 3683.88 762.562 3683.88 733.687 3676.66 733.687C3673.65 733.687 3670.83 733.123 3668.2 731.995 3665.56 730.868 3663.27 729.326 3661.32 727.371 3659.36 725.416 3657.82 723.122 3656.69 720.491 3655.56 717.859 3655 715.039 3655 712.031L3655 610.969C3655 607.961 3655.56 605.141 3656.69 602.509 3657.82 599.877 3659.36 597.584 3661.32 595.629 3663.27 593.674 3665.56 592.132 3668.2 591.004 3670.83 589.876 3673.65 589.312 3676.66 589.312L3683.88 589.312 3683.88 560.437 3698.31 560.437 3698.31 589.312 3712.75 589.312 3712.75 560.437 3727.19 560.437 3727.19 589.312 3741.62 589.312 3741.62 560.437 3756.06 560.437 3756.06 589.312 3770.5 589.312 3770.5 560.437 3784.94 560.437 3784.94 589.312 3799.38 589.312 3799.38 560.437 3813.81 560.437 3813.81 589.312 3828.25 589.312 3828.25 560.437 3842.69 560.437 3842.69 589.312 3849.91 589.312ZM3857.12 610.969C3857.12 609.014 3856.41 607.322 3854.98 605.893 3853.55 604.464 3851.86 603.75 3849.91 603.75L3676.66 603.75C3674.7 603.75 3673.01 604.464 3671.58 605.893 3670.15 607.322 3669.44 609.014 3669.44 610.969L3669.44 712.031C3669.44 713.986 3670.15 715.678 3671.58 717.107 3673.01 718.536 3674.7 719.25 3676.66 719.25L3849.91 719.25C3851.86 719.25 3853.55 718.536 3854.98 717.107 3856.41 715.678 3857.12 713.986 3857.12 712.031L3857.12 610.969ZM3683.88 618.187 3842.69 618.187 3842.69 704.812 3683.88 704.812 3683.88 618.187ZM3698.31 690.375 3828.25 690.375 3828.25 632.625 3698.31 632.625 3698.31 690.375Z"/></g></g></g><rect x="1066" y="1449" width="428" height="160" fill="#FFFFFF"/><text fill="#0078D3" font-family="Segoe UI,Segoe UI_MSFontService,sans-serif" font-style="italic" font-weight="400" font-size="37" transform="matrix(1 0 0 1 1066.29 1480)">Onboard developers </text><text fill="#0078D3" font-family="Segoe UI,Segoe UI_MSFontService,sans-serif" font-style="italic" font-weight="400" font-size="37" transform="matrix(1 0 0 1 1066.29 1520)">quickly ywith </text><text fill="#0078D3" font-family="Segoe UI,Segoe UI_MSFontService,sans-serif" font-style="italic" font-weight="400" font-size="37" transform="matrix(1 0 0 1 1066.29 1559)">preconfigured </text><text fill="#0078D3" font-family="Segoe UI,Segoe UI_MSFontService,sans-serif" font-style="italic" font-weight="400" font-size="37" transform="matrix(1 0 0 1 1066.29 1599)">environments</text><rect x="861" y="766" width="252" height="120" fill="#FFFFFF"/><text fill="#0078D3" font-family="Segoe UI,Segoe UI_MSFontService,sans-serif" font-style="italic" font-weight="400" font-size="37" transform="matrix(1 0 0 1 860.825 797)">Relationshios </text><text fill="#0078D3" font-family="Segoe UI,Segoe UI_MSFontService,sans-serif" font-style="italic" font-weight="400" font-size="37" transform="matrix(1 0 0 1 860.825 837)">powered by </text><text fill="#0078D3" font-family="Segoe UI,Segoe UI_MSFontService,sans-serif" font-style="italic" font-weight="400" font-size="37" transform="matrix(1 0 0 1 860.825 876)">Generative AI</text><rect x="2176" y="745" width="365" height="120" fill="#FFFFFF"/><text fill="#0078D3" font-family="Segoe UI,Segoe UI_MSFontService,sans-serif" font-style="italic" font-weight="400" font-size="37" transform="matrix(1 0 0 1 2176.49 776)">Spin environments </text><text fill="#0078D3" font-family="Segoe UI,Segoe UI_MSFontService,sans-serif" font-style="italic" font-weight="400" font-size="37" transform="matrix(1 0 0 1 2176.49 816)">based on </text><text fill="#0078D3" font-family="Segoe UI,Segoe UI_MSFontService,sans-serif" font-style="italic" font-weight="400" font-size="37" transform="matrix(1 0 0 1 2176.49 855)">requirements.</text><rect x="2176" y="1463" width="365" height="160" fill="#FFFFFF"/><text fill="#0078D3" font-family="Segoe UI,Segoe UI_MSFontService,sans-serif" font-style="italic" font-weight="400" font-size="37" transform="matrix(1 0 0 1 2176.49 1494)">Metadata inform the </text><text fill="#0078D3" font-family="Segoe UI,Segoe UI_MSFontService,sans-serif" font-style="italic" font-weight="400" font-size="37" transform="matrix(1 0 0 1 2176.49 1534)">requirements and </text><text fill="#0078D3" font-family="Segoe UI,Segoe UI_MSFontService,sans-serif" font-style="italic" font-weight="400" font-size="37" transform="matrix(1 0 0 1 2176.49 1573)">adjustments to the </text><text fill="#0078D3" font-family="Segoe UI,Segoe UI_MSFontService,sans-serif" font-style="italic" font-weight="400" font-size="37" transform="matrix(1 0 0 1 2176.49 1613)">farm configuration.</text><rect x="2592" y="1875" width="531" height="160" fill="#FFFFFF"/><text fill="#0078D3" font-family="Segoe UI,Segoe UI_MSFontService,sans-serif" font-style="italic" font-weight="400" font-size="37" transform="matrix(1 0 0 1 2591.81 1906)">Reduce dependency to edge/in</text><text fill="#0078D3" font-family="Segoe UI,Segoe UI_MSFontService,sans-serif" font-style="italic" font-weight="400" font-size="37" transform="matrix(1 0 0 1 3076.5 1906)">-</text><text fill="#0078D3" font-family="Segoe UI,Segoe UI_MSFontService,sans-serif" font-style="italic" font-weight="400" font-size="37" transform="matrix(1 0 0 1 2591.81 1946)">vehicle silicon with multiple </text><text fill="#0078D3" font-family="Segoe UI,Segoe UI_MSFontService,sans-serif" font-style="italic" font-weight="400" font-size="37" transform="matrix(1 0 0 1 2591.81 1985)">hardware and software </text><text fill="#0078D3" font-family="Segoe UI,Segoe UI_MSFontService,sans-serif" font-style="italic" font-weight="400" font-size="37" transform="matrix(1 0 0 1 2591.81 2025)">combinations.</text><rect x="3521" y="813" width="489" height="80.0001" fill="#FFFFFF"/><text fill="#0078D3" font-family="Segoe UI,Segoe UI_MSFontService,sans-serif" font-style="italic" font-weight="400" font-size="37" transform="matrix(1 0 0 1 3521.18 844)">Simplify deployment and </text><text fill="#0078D3" font-family="Segoe UI,Segoe UI_MSFontService,sans-serif" font-style="italic" font-weight="400" font-size="37" transform="matrix(1 0 0 1 3521.18 884)">monitoring.</text><rect x="3506" y="1362" width="521" height="80.0001" fill="#FFFFFF"/><text fill="#0078D3" font-family="Segoe UI,Segoe UI_MSFontService,sans-serif" font-style="italic" font-weight="400" font-size="37" transform="matrix(1 0 0 1 3505.76 1393)">Validate with real vehicles and </text><text fill="#0078D3" font-family="Segoe UI,Segoe UI_MSFontService,sans-serif" font-style="italic" font-weight="400" font-size="37" transform="matrix(1 0 0 1 3505.76 1433)">collect behavior data.</text><path d="M3288.5 1733.78 3316 1733.78 3316 1737.22 3288.5 1737.22ZM3326.31 1733.78 3353.81 1733.78 3353.81 1737.22 3326.31 1737.22ZM3364.13 1733.78 3391.63 1733.78 3391.63 1737.22 3364.13 1737.22ZM3401.94 1733.78 3429.44 1733.78 3429.44 1737.22 3401.94 1737.22ZM3439.75 1733.78 3463.58 1733.78 3463.58 1737.22 3439.75 1737.22ZM3459 1721.75 3486.5 1735.5 3459 1749.25Z" fill="#0078D3"/><path d="M3378.6 1737.13 3372.14 1735.97 3365.77 1734.18 3359.68 1731.82 3353.9 1728.92 3352.22 1727.87 3354.05 1724.96 3355.44 1725.85 3360.92 1728.61 3366.7 1730.87 3372.75 1732.58 3379.21 1733.74ZM3343.67 1721.84 3343.39 1721.63 3338.72 1717.31 3334.46 1712.59 3330.66 1707.5 3327.33 1702.07 3326.23 1699.83 3329.31 1698.32 3330.27 1700.28 3333.42 1705.45 3337.02 1710.29 3341.05 1714.79 3345.48 1718.9 3345.76 1719.12ZM3322.13 1690.03 3320.49 1684.08 3319.35 1677.63 3318.82 1671.02 3318.93 1664.26 3319.16 1662.23 3322.57 1662.62 3322.37 1664.32 3322.25 1670.75 3322.73 1677.04 3323.81 1683.17 3325.45 1689.12ZM3320.89 1651.91 3321.07 1651.06 3323.04 1644.81 3325.57 1638.84 3328.61 1633.18 3332.15 1627.86 3333.15 1626.62 3335.82 1628.79 3335.01 1629.77 3331.64 1634.82 3328.73 1640.19 3326.32 1645.85 3324.44 1651.78 3324.25 1652.63ZM3340.12 1618.83 3340.58 1618.36 3345.41 1614.23 3350.61 1610.56 3356.13 1607.38 3361.96 1604.71 3363.98 1604 3365.11 1607.25 3363.39 1607.83 3357.85 1610.36 3352.59 1613.37 3347.64 1616.85 3343.05 1620.76 3342.59 1621.23ZM3374.04 1601.12 3374.41 1601.04 3380.96 1600.09 3387.68 1599.78 3394.41 1600.13 3400.95 1601.11 3402.17 1601.4 3401.33 1604.74 3400.44 1604.51 3394.23 1603.56 3387.84 1603.22 3381.44 1603.5 3375.22 1604.38 3374.85 1604.47ZM3412.19 1604.42 3413.38 1604.85 3419.2 1607.55 3424.71 1610.76 3429.88 1614.46 3434.69 1618.62 3435.75 1619.71 3433.27 1622.09 3432.44 1621.21 3427.88 1617.26 3422.97 1613.73 3417.75 1610.66 3412.23 1608.09 3411.04 1607.66ZM3442.62 1627.6 3443.07 1628.17 3446.58 1633.51 3449.59 1639.18 3452.09 1645.16 3454.02 1651.41 3454.38 1653.12 3451.01 1653.81 3450.74 1652.43 3448.91 1646.48 3446.56 1640.79 3443.7 1635.39 3440.38 1630.31 3439.93 1629.75ZM3455.97 1663.47 3456.09 1664.63 3456.17 1671.38 3455.6 1678 3454.43 1684.44 3452.66 1690.68 3452.41 1691.36 3449.2 1690.11 3449.35 1689.74 3451.04 1683.82 3452.18 1677.7 3452.73 1671.42 3452.67 1665 3452.55 1663.83ZM3448.21 1700.94 3447.48 1702.4 3444.13 1707.81 3440.3 1712.88 3436.02 1717.58 3431.32 1721.87 3430.35 1722.61 3428.28 1719.87 3429.01 1719.33 3433.48 1715.26 3437.56 1710.81 3441.21 1706 3444.41 1700.86 3445.14 1699.4ZM3421.26 1728.09 3417.98 1729.62 3416.53 1726.51 3419.8 1724.97ZM3426.05 1739.58 3395.58 1735.5 3417.13 1713.57Z" fill="#0078D3"/><rect x="3508" y="1937" width="521" height="80.0001" fill="#FFFFFF"/><text fill="#0078D3" font-family="Segoe UI,Segoe UI_MSFontService,sans-serif" font-style="italic" font-weight="400" font-size="37" transform="matrix(1 0 0 1 3508.04 1968)">Deploy, manage, understand </text><text fill="#0078D3" font-family="Segoe UI,Segoe UI_MSFontService,sans-serif" font-style="italic" font-weight="400" font-size="37" transform="matrix(1 0 0 1 3508.04 2008)">and improve</text><g><g><g><path d="M3894.34 1685.75C3906.64 1685.75 3917.36 1694.11 3920.35 1706.04L3923.53 1718.75 3931.06 1718.75C3934.2 1718.75 3936.78 1721.08 3937.19 1724.1L3937.25 1724.94C3937.25 1728.07 3934.92 1730.66 3931.9 1731.07L3931.06 1731.12 3926.64 1731.12 3928.36 1737.94C3933.71 1741.2 3937.28 1747.09 3937.28 1753.81L3937.28 1823.91C3937.28 1831.88 3930.82 1838.35 3922.85 1838.35L3910.44 1838.35C3902.46 1838.35 3896 1831.88 3896 1823.91L3895.99 1813.62 3830.03 1813.62 3830.03 1823.91C3830.03 1831.88 3823.57 1838.35 3815.6 1838.35L3803.19 1838.35C3795.21 1838.35 3788.75 1831.88 3788.75 1823.91L3788.75 1753.81C3788.75 1747.09 3792.32 1741.2 3797.67 1737.94L3799.38 1731.12 3794.94 1731.12C3791.8 1731.12 3789.22 1728.8 3788.81 1725.78L3788.75 1724.94C3788.75 1721.8 3791.08 1719.22 3794.1 1718.81L3794.94 1718.75 3802.47 1718.75 3805.65 1706.06C3808.64 1694.12 3819.36 1685.75 3831.67 1685.75L3894.34 1685.75ZM3817.66 1813.62 3801.12 1813.62 3801.12 1823.91C3801.12 1825.05 3802.05 1825.97 3803.19 1825.97L3815.6 1825.97C3816.74 1825.97 3817.66 1825.05 3817.66 1823.91L3817.66 1813.62ZM3924.91 1813.62 3908.37 1813.62 3908.38 1823.91C3908.38 1825.05 3909.3 1825.97 3910.44 1825.97L3922.85 1825.97C3923.99 1825.97 3924.91 1825.05 3924.91 1823.91L3924.91 1813.62ZM3918.72 1747.62 3807.31 1747.62C3803.9 1747.62 3801.12 1750.4 3801.12 1753.81L3801.12 1801.25 3924.91 1801.25 3924.91 1753.81C3924.91 1750.4 3922.14 1747.62 3918.72 1747.62ZM3848.55 1776.5 3877.44 1776.5C3880.86 1776.5 3883.63 1779.27 3883.63 1782.69 3883.63 1785.82 3881.3 1788.41 3878.28 1788.82L3877.44 1788.88 3848.55 1788.88C3845.14 1788.88 3842.37 1786.1 3842.37 1782.69 3842.37 1779.55 3844.69 1776.97 3847.71 1776.56L3848.55 1776.5 3877.44 1776.5 3848.55 1776.5ZM3904.25 1760C3908.81 1760 3912.5 1763.69 3912.5 1768.25 3912.5 1772.81 3908.81 1776.5 3904.25 1776.5 3899.69 1776.5 3896 1772.81 3896 1768.25 3896 1763.69 3899.69 1760 3904.25 1760ZM3821.75 1760C3826.31 1760 3830 1763.69 3830 1768.25 3830 1772.81 3826.31 1776.5 3821.75 1776.5 3817.19 1776.5 3813.5 1772.81 3813.5 1768.25 3813.5 1763.69 3817.19 1760 3821.75 1760ZM3894.34 1698.12 3831.67 1698.12C3825.04 1698.12 3819.27 1702.63 3817.66 1709.06L3811.11 1735.25 3914.92 1735.25 3908.35 1709.05C3906.74 1702.63 3900.97 1698.12 3894.34 1698.12Z" fill="#212121"/></g></g></g><g><g><g><path d="M2918.25 860.75C2920.48 860.75 2922.61 860.32 2924.63 859.461 2926.65 858.602 2928.39 857.42 2929.85 855.916 2931.31 854.412 2932.49 852.672 2933.4 850.695 2934.3 848.719 2934.75 846.57 2934.75 844.25 2934.75 841.199 2934.69 838.148 2934.56 835.098 2934.43 832.047 2934.51 829.082 2934.81 826.203 2935.11 823.324 2935.8 820.51 2936.88 817.76 2937.95 815.01 2939.65 812.496 2941.97 810.219 2944.29 807.898 2946.97 806.115 2950.03 804.869 2953.08 803.623 2956.23 803 2959.5 803L2959.5 811.25C2957.22 811.25 2955.1 811.68 2953.12 812.539 2951.14 813.398 2949.4 814.58 2947.9 816.084 2946.39 817.588 2945.21 819.35 2944.35 821.369 2943.49 823.389 2943.04 825.516 2943 827.75 2943 830.156 2943.04 832.52 2943.13 834.84 2943.21 837.16 2943.24 839.459 2943.19 841.736 2943.15 844.014 2942.94 846.205 2942.55 848.311 2942.16 850.416 2941.58 852.457 2940.81 854.434 2940.03 856.41 2938.92 858.258 2937.46 859.977 2936 861.695 2934.17 863.328 2931.98 864.875 2934.21 866.379 2936.04 868.012 2937.46 869.773 2938.87 871.535 2939.99 873.383 2940.81 875.316 2941.62 877.25 2942.2 879.269 2942.55 881.375 2942.89 883.481 2943.09 885.672 2943.13 887.949 2943.17 890.226 2943.17 892.525 2943.13 894.846 2943.09 897.166 2943.04 899.551 2943 902 2943 904.277 2943.43 906.404 2944.29 908.381 2945.15 910.358 2946.33 912.098 2947.83 913.602 2949.34 915.105 2951.08 916.287 2953.05 917.146 2955.03 918.006 2957.18 918.457 2959.5 918.5L2959.5 926.75C2956.23 926.75 2953.08 926.127 2950.03 924.881 2946.97 923.635 2944.29 921.852 2941.97 919.531 2939.65 917.211 2937.97 914.697 2936.94 911.99 2935.91 909.283 2935.22 906.49 2934.88 903.611 2934.53 900.732 2934.43 897.746 2934.56 894.652 2934.69 891.559 2934.75 888.508 2934.75 885.5 2934.75 883.265 2934.32 881.138 2933.46 879.119 2932.6 877.1 2931.42 875.36 2929.92 873.898 2928.41 872.437 2926.65 871.256 2924.63 870.354 2922.61 869.451 2920.48 869 2918.25 869L2918.25 860.75ZM2992.5 803C2995.77 803 2998.92 803.623 3001.97 804.869 3005.02 806.115 3007.71 807.898 3010.03 810.219 3012.35 812.539 3014.03 815.053 3015.06 817.76 3016.09 820.467 3016.78 823.26 3017.12 826.139 3017.46 829.018 3017.57 832.004 3017.44 835.098 3017.31 838.191 3017.25 841.242 3017.25 844.25 3017.25 846.527 3017.68 848.654 3018.54 850.631 3019.4 852.607 3020.58 854.348 3022.08 855.852 3023.59 857.355 3025.33 858.537 3027.3 859.396 3029.28 860.256 3031.43 860.707 3033.75 860.75L3033.75 869C3031.47 869 3029.35 869.43 3027.37 870.289 3025.39 871.148 3023.65 872.33 3022.15 873.834 3020.64 875.338 3019.46 877.1 3018.6 879.119 3017.74 881.138 3017.29 883.265 3017.25 885.5 3017.25 888.551 3017.31 891.602 3017.44 894.652 3017.57 897.703 3017.49 900.668 3017.19 903.547 3016.88 906.426 3016.2 909.24 3015.12 911.99 3014.05 914.74 3012.35 917.254 3010.03 919.531 3007.71 921.852 3005.02 923.635 3001.97 924.881 2998.92 926.127 2995.77 926.75 2992.5 926.75L2992.5 918.5C2994.73 918.5 2996.86 918.07 2998.88 917.211 3000.9 916.352 3002.64 915.17 3004.1 913.666 3005.56 912.162 3006.74 910.422 3007.65 908.445 3008.55 906.469 3009 904.32 3009 902 3009 899.594 3008.96 897.23 3008.87 894.91 3008.79 892.59 3008.76 890.291 3008.81 888.014 3008.85 885.737 3009.06 883.545 3009.45 881.439 3009.84 879.334 3010.42 877.293 3011.19 875.316 3011.96 873.34 3013.08 871.492 3014.54 869.773 3016 868.054 3017.83 866.422 3020.02 864.875 3017.79 863.371 3015.96 861.738 3014.54 859.977 3013.12 858.215 3012.01 856.367 3011.19 854.434 3010.37 852.5 3009.79 850.48 3009.45 848.375 3009.11 846.27 3008.91 844.078 3008.87 841.801 3008.83 839.523 3008.83 837.225 3008.87 834.904 3008.91 832.584 3008.96 830.199 3009 827.75 3009 825.516 3008.57 823.389 3007.71 821.369 3006.85 819.35 3005.67 817.609 3004.17 816.148 3002.66 814.688 3000.9 813.506 2998.88 812.604 2996.86 811.701 2994.73 811.25 2992.5 811.25L2992.5 803Z" fill="#0078D3"/></g></g></g><path d="M1121 224.252 3885.5 224.252 3885.5 179 3976 269.5 3885.5 360 3885.5 314.752 1121 314.752Z" fill="#EBEBEB" fill-rule="evenodd"/><text font-family="Segoe UI,Segoe UI_MSFontService,sans-serif" font-weight="700" font-size="48" transform="matrix(1 0 0 1 2321.91 284)">Software Artifacts</text><path d="M0 45.5015 2690 45.5015 2690 0 2781 90.9999 2690 182 2690 136.501 0 136.501Z" fill="#EBEBEB" fill-rule="evenodd" transform="matrix(-1 0 0 1 3962 2070)"/><text font-family="Segoe UI,Segoe UI_MSFontService,sans-serif" font-weight="700" font-size="48" transform="matrix(1 0 0 1 1998.55 2176)">Software Telemetry, Logs, Metrics, Traces, Behaviour</text></g></svg>