<?xml version="1.0" encoding="UTF-8" standalone="no"?>
<!-- Created with Inkscape (http://www.inkscape.org/) -->

<svg
   xmlns:dc="http://purl.org/dc/elements/1.1/"
   xmlns:cc="http://creativecommons.org/ns#"
   xmlns:rdf="http://www.w3.org/1999/02/22-rdf-syntax-ns#"
   xmlns:svg="http://www.w3.org/2000/svg"
   xmlns="http://www.w3.org/2000/svg"
   xmlns:sodipodi="http://sodipodi.sourceforge.net/DTD/sodipodi-0.dtd"
   xmlns:inkscape="http://www.inkscape.org/namespaces/inkscape"
   width="320"
   height="144"
   viewBox="0 0 320 144"
   id="svg4195"
   version="1.1"
   inkscape:version="0.91 r13725"
   sodipodi:docname="multi-vm.svg">
  <defs
     id="defs4197">
    <marker
       inkscape:stockid="DotM"
       orient="auto"
       refY="0.0"
       refX="0.0"
       id="DotM"
       style="overflow:visible"
       inkscape:isstock="true">
      <path
         id="path4935"
         d="M -2.5,-1.0 C -2.5,1.7600000 -4.7400000,4.0 -7.5,4.0 C -10.260000,4.0 -12.5,1.7600000 -12.5,-1.0 C -12.5,-3.7600000 -10.260000,-6.0 -7.5,-6.0 C -4.7400000,-6.0 -2.5,-3.7600000 -2.5,-1.0 z "
         style="fill-rule:evenodd;stroke:#000000;stroke-width:1pt;stroke-opacity:1;fill:#000000;fill-opacity:1"
         transform="scale(0.4) translate(7.4, 1)" />
    </marker>
    <marker
       inkscape:stockid="DotL"
       orient="auto"
       refY="0.0"
       refX="0.0"
       id="DotL"
       style="overflow:visible"
       inkscape:isstock="true">
      <path
         id="path4932"
         d="M -2.5,-1.0 C -2.5,1.7600000 -4.7400000,4.0 -7.5,4.0 C -10.260000,4.0 -12.5,1.7600000 -12.5,-1.0 C -12.5,-3.7600000 -10.260000,-6.0 -7.5,-6.0 C -4.7400000,-6.0 -2.5,-3.7600000 -2.5,-1.0 z "
         style="fill-rule:evenodd;stroke:#000000;stroke-width:1pt;stroke-opacity:1;fill:#000000;fill-opacity:1"
         transform="scale(0.8) translate(7.4, 1)" />
    </marker>
    <pattern
       y="0"
       x="0"
       height="6"
       width="6"
       patternUnits="userSpaceOnUse"
       id="EMFhbasepattern" />
    <marker
       inkscape:stockid="Arrow2Mend"
       orient="auto"
       refY="0"
       refX="0"
       id="marker8680"
       style="overflow:visible"
       inkscape:isstock="true">
      <path
         inkscape:connector-curvature="0"
         id="path8682"
         style="fill:#6f6f6f;fill-opacity:1;fill-rule:evenodd;stroke:#6f6f6f;stroke-width:0.625;stroke-linejoin:round;stroke-opacity:1"
         d="M 8.7185878,4.0337352 -2.2072895,0.01601326 8.7185884,-4.0017078 c -1.7454984,2.3720609 -1.7354408,5.6174519 -6e-7,8.035443 z"
         transform="scale(-0.6,-0.6)" />
    </marker>
    <marker
       inkscape:stockid="DotM"
       orient="auto"
       refY="0"
       refX="0"
       id="DotM-68"
       style="overflow:visible"
       inkscape:isstock="true">
      <path
         inkscape:connector-curvature="0"
         id="path4935-9"
         d="m -2.5,-1 c 0,2.76 -2.24,5 -5,5 -2.76,0 -5,-2.24 -5,-5 0,-2.76 2.24,-5 5,-5 2.76,0 5,2.24 5,5 z"
         style="fill:#000000;fill-opacity:1;fill-rule:evenodd;stroke:#000000;stroke-width:1pt;stroke-opacity:1"
         transform="matrix(0.4,0,0,0.4,2.96,0.4)" />
    </marker>
    <marker
       inkscape:stockid="Arrow2Mend"
       orient="auto"
       refY="0"
       refX="0"
       id="marker8680-3"
       style="overflow:visible"
       inkscape:isstock="true">
      <path
         inkscape:connector-curvature="0"
         id="path8682-8"
         style="fill:#6f6f6f;fill-opacity:1;fill-rule:evenodd;stroke:#6f6f6f;stroke-width:0.625;stroke-linejoin:round;stroke-opacity:1"
         d="M 8.7185878,4.0337352 -2.2072895,0.01601326 8.7185884,-4.0017078 c -1.7454984,2.3720609 -1.7354408,5.6174519 -6e-7,8.035443 z"
         transform="scale(-0.6,-0.6)" />
    </marker>
    <marker
       inkscape:stockid="DotM"
       orient="auto"
       refY="0"
       refX="0"
       id="DotM-68-2"
       style="overflow:visible"
       inkscape:isstock="true">
      <path
         inkscape:connector-curvature="0"
         id="path4935-9-7"
         d="m -2.5,-1 c 0,2.76 -2.24,5 -5,5 -2.76,0 -5,-2.24 -5,-5 0,-2.76 2.24,-5 5,-5 2.76,0 5,2.24 5,5 z"
         style="fill:#000000;fill-opacity:1;fill-rule:evenodd;stroke:#000000;stroke-width:1pt;stroke-opacity:1"
         transform="matrix(0.4,0,0,0.4,2.96,0.4)" />
    </marker>
    <marker
       inkscape:stockid="DotM"
       orient="auto"
       refY="0"
       refX="0"
       id="DotM-68-0"
       style="overflow:visible"
       inkscape:isstock="true">
      <path
         inkscape:connector-curvature="0"
         id="path4935-9-77"
         d="m -2.5,-1 c 0,2.76 -2.24,5 -5,5 -2.76,0 -5,-2.24 -5,-5 0,-2.76 2.24,-5 5,-5 2.76,0 5,2.24 5,5 z"
         style="fill:#000000;fill-opacity:1;fill-rule:evenodd;stroke:#000000;stroke-width:1pt;stroke-opacity:1"
         transform="matrix(0.4,0,0,0.4,2.96,0.4)" />
    </marker>
  </defs>
  <sodipodi:namedview
     id="base"
     pagecolor="#ffffff"
     bordercolor="#666666"
     borderopacity="1.0"
     inkscape:pageopacity="0.0"
     inkscape:pageshadow="2"
     inkscape:zoom="1.979899"
     inkscape:cx="160.32257"
     inkscape:cy="90.573342"
     inkscape:document-units="px"
     inkscape:current-layer="layer4"
     showgrid="false"
     units="px"
     inkscape:window-width="1536"
     inkscape:window-height="897"
     inkscape:window-x="-8"
     inkscape:window-y="-8"
     inkscape:window-maximized="1" />
  <metadata
     id="metadata4200">
    <rdf:RDF>
      <cc:Work
         rdf:about="">
        <dc:format>image/svg+xml</dc:format>
        <dc:type
           rdf:resource="http://purl.org/dc/dcmitype/StillImage" />
        <dc:title></dc:title>
      </cc:Work>
    </rdf:RDF>
  </metadata>
  <g
     inkscape:label="vnet"
     inkscape:groupmode="layer"
     id="layer1"
     transform="translate(0,-908.36216)" />
  <g
     inkscape:groupmode="layer"
     id="layer5"
     inkscape:label="subnet" />
  <g
     inkscape:groupmode="layer"
     id="layer2"
     inkscape:label="Layer 2" />
  <g
     inkscape:groupmode="layer"
     id="layer3"
     inkscape:label="Layer 3" />
  <g
     inkscape:groupmode="layer"
     id="layer4"
     inkscape:label="Layer 4">
    <g
       id="g12751"
       transform="translate(19.26276,4.9475096e-7)">
      <g
         transform="translate(34.465091,20.857141)"
         id="g11394">
        <rect
           style="fill:#e4faff;fill-opacity:1;stroke:#3a99c6;stroke-width:0.39511204;stroke-miterlimit:4;stroke-dasharray:none;stroke-opacity:1"
           id="rect4743"
           width="63.059479"
           height="125.67737"
           x="117.9701"
           y="-11.695826" />
        <rect
           style="fill:#eaeaea;fill-opacity:1;stroke:#4c4c4c;stroke-width:0.30030775;stroke-miterlimit:4;stroke-dasharray:none;stroke-dashoffset:0;stroke-opacity:1"
           id="rect5174"
           width="50.556087"
           height="100.25225"
           x="123.49392"
           y="-7.5289435" />
        <g
           id="g5181"
           transform="matrix(1.0340544,0,0,1.0340544,66.983125,124.86319)">
          <path
             id="path3"
             d="m 75.146903,-19.478485 c 0.189533,-0.189534 0.151627,-0.492787 0,-0.68232 l -0.909759,-0.909759 -4.093916,-3.980196 c -0.189533,-0.189533 -0.454879,-0.189533 -0.644412,0 l 0,0 c -0.189533,0.189533 -0.22744,0.492786 0,0.68232 l 4.283449,4.207635 c 0.189533,0.189533 0.189533,0.492786 0,0.68232 l -4.359263,4.359262 c -0.189533,0.189533 -0.189533,0.492786 0,0.682319 l 0,0 c 0.189534,0.189533 0.492787,0.151627 0.644413,0 l 4.056009,-4.018103 c 0,0 0,0 0.03791,-0.03791 l 0.985572,-0.985572 z"
             style="fill:#3999c6"
             inkscape:connector-curvature="0" />
          <path
             id="path5"
             d="m 56.421028,-19.478485 c -0.189533,-0.189534 -0.151627,-0.492787 0,-0.68232 l 0.90976,-0.909759 4.093916,-3.980196 c 0.189533,-0.189533 0.454879,-0.189533 0.644413,0 l 0,0 c 0.189533,0.189533 0.227439,0.492786 0,0.68232 l -4.207636,4.207635 c -0.189533,0.189533 -0.189533,0.492786 0,0.68232 l 4.283449,4.359262 c 0.189533,0.189533 0.189533,0.492786 0,0.682319 l 0,0 c -0.189533,0.189533 -0.492786,0.151627 -0.644413,0 L 57.368695,-18.4171 c 0,0 0,0 -0.03791,-0.03791 l -0.90976,-1.023478 z"
             style="fill:#3999c6"
             inkscape:connector-curvature="0" />
          <path
             id="path7"
             d="m 63.206315,-19.819645 c 0,0.720226 -0.606506,1.250919 -1.250918,1.250919 -0.644413,0 -1.326732,-0.606506 -1.326732,-1.250919 0,-0.644413 0.530692,-1.250919 1.326732,-1.250919 0.758132,0 1.250918,0.606506 1.250918,1.250919 z"
             style="fill:#7fba00"
             inkscape:connector-curvature="0" />
          <path
             id="path9"
             d="m 67.034885,-19.819645 c 0,0.720226 -0.606506,1.250919 -1.250919,1.250919 -0.644413,0 -1.326732,-0.606506 -1.326732,-1.250919 0,-0.644413 0.606506,-1.250919 1.326732,-1.250919 0.720226,0 1.250919,0.606506 1.250919,1.250919 z"
             style="fill:#7fba00"
             inkscape:connector-curvature="0" />
          <circle
             id="circle11"
             r="1.2509187"
             cy="-19.819645"
             cx="69.650444"
             style="fill:#7fba00" />
        </g>
        <g
           transform="matrix(2.0017039,0,0,2.0017039,-349.87926,-361.42377)"
           id="g6636">
          <path
             inkscape:connector-curvature="0"
             id="path6638"
             d="m 253.10782,205.88315 -0.33866,0 -3.32314,0 -0.16933,0 c 0.46563,1.62983 -0.14817,1.86266 -2.87866,1.86266 l 0,0.84667 3.45013,0 2.51883,0 3.25964,0 0,-0.84667 c -2.70931,0 -2.96331,-0.23283 -2.51881,-1.86266 z"
             style="fill:#7a7a7a;fill-opacity:1;fill-rule:nonzero;stroke:none" />
          <path
             inkscape:connector-curvature="0"
             id="path6640"
             d="m 257.21413,195.57506 -12.48825,0 c -0.42334,0 -0.762,0.381 -0.762,0.80433 l 0,8.72062 c 0,0.40214 0.33866,0.78314 0.762,0.78314 l 12.48825,0 c 0.4233,0 0.8678,-0.381 0.8678,-0.78314 l 0,-8.72062 c 0,-0.42333 -0.4445,-0.80433 -0.8678,-0.80433 z"
             style="fill:#a0a1a2;fill-opacity:1;fill-rule:nonzero;stroke:none" />
          <path
             inkscape:connector-curvature="0"
             id="path6642"
             d="m 257.2353,195.57506 c 0,0 0,0 -0.0212,0 l -12.48826,0 c -0.42333,0 -0.76199,0.381 -0.76199,0.80433 l 0,8.72062 c 0,0.40214 0.33866,0.78314 0.762,0.78314 l 0.29633,0 12.21309,-10.30809 z"
             style="fill:#ffffff;fill-opacity:1;fill-rule:nonzero;stroke:none" />
          <path
             inkscape:connector-curvature="0"
             id="path6644"
             d="m 245.04337,196.65456 11.93793,0 0,8.14911 -11.93793,0 z"
             style="fill:#59b4d9;fill-opacity:1;fill-rule:nonzero;stroke:none" />
          <path
             inkscape:connector-curvature="0"
             id="path6646"
             d="m 255.9653,196.65456 0,0 -10.92193,0 0,8.14911 0,0 0,-8.14911 z"
             style="fill:#59b4d9;fill-opacity:1;fill-rule:nonzero;stroke:none" />
          <path
             inkscape:connector-curvature="0"
             id="path6648"
             d="m 246.39803,207.74581 9.2286,0 0,0.84667 -9.2286,0 z"
             style="fill:#a0a1a2;fill-opacity:1;fill-rule:nonzero;stroke:none" />
          <path
             inkscape:connector-curvature="0"
             id="path6650"
             d="m 251.16049,196.16772 c 0,0.10584 -0.0847,0.1905 -0.1905,0.1905 -0.10583,0 -0.21167,-0.0847 -0.21167,-0.1905 0,-0.10583 0.10584,-0.21166 0.21167,-0.21166 0.10583,0 0.1905,0.10583 0.1905,0.21166 z"
             style="fill:#b8d432;fill-opacity:1;fill-rule:nonzero;stroke:none" />
          <path
             inkscape:connector-curvature="0"
             id="path6652"
             d="m 251.18166,200.4857 c -0.0212,0 -0.0423,0 -0.0423,-0.0212 l -2.49763,-1.41817 c -0.0212,-0.0212 -0.0212,-0.0423 -0.0212,-0.0635 0,-0.0423 0,-0.0635 0.0212,-0.0635 l 2.47647,-1.43932 c 0.0212,0 0.0635,0 0.0847,0 l 2.47648,1.43932 c 0.0212,0.0212 0.0423,0.0423 0.0423,0.0635 0,0.0212 -0.0212,0.0423 -0.0423,0.0635 l -2.47648,1.41817 c 0,0.0212 -0.0212,0.0212 -0.0212,0.0212 z"
             style="fill:#ffffff;fill-opacity:1;fill-rule:nonzero;stroke:none" />
          <path
             inkscape:connector-curvature="0"
             id="path6654"
             d="m 250.82182,203.97817 c -0.0212,0 -0.0423,-0.0212 -0.0423,-0.0212 l -2.47647,-1.41817 c -0.0212,-0.0212 -0.0423,-0.0423 -0.0423,-0.0635 l 0,-2.87864 c 0,-0.0212 0.0212,-0.0423 0.0423,-0.0635 0.0212,-0.0212 0.0423,-0.0212 0.0635,0 l 2.49764,1.41817 c 0.0212,0.0212 0.0212,0.0423 0.0212,0.0847 l 0,2.85747 c 0,0.0212 0,0.0423 -0.0212,0.0635 -0.0212,0 -0.0423,0.0212 -0.0423,0.0212 z"
             style="fill:#ffffff;fill-opacity:1;fill-rule:nonzero;stroke:none" />
          <path
             inkscape:connector-curvature="0"
             id="path6656"
             d="m 251.52032,203.97817 c -0.0212,0 -0.0212,-0.0212 -0.0423,-0.0212 -0.0212,-0.0212 -0.0423,-0.0423 -0.0423,-0.0635 l 0,-2.85747 c 0,-0.0212 0.0212,-0.0423 0.0423,-0.0635 l 2.47647,-1.41817 c 0.0212,-0.0212 0.0423,-0.0212 0.0847,0 0.0212,0 0.0212,0.0423 0.0212,0.0635 l 0,2.85747 c 0,0.0212 0,0.0423 -0.0212,0.0635 l -2.47647,1.41817 c -0.0212,0 -0.0423,0.0212 -0.0423,0.0212 z"
             style="fill:#ffffff;fill-opacity:1;fill-rule:nonzero;stroke:none" />
        </g>
        <g
           id="g6658"
           transform="matrix(2.0017039,0,0,2.0017039,-349.87926,-327.58366)">
          <path
             style="fill:#7a7a7a;fill-opacity:1;fill-rule:nonzero;stroke:none"
             d="m 253.10782,205.88315 -0.33866,0 -3.32314,0 -0.16933,0 c 0.46563,1.62983 -0.14817,1.86266 -2.87866,1.86266 l 0,0.84667 3.45013,0 2.51883,0 3.25964,0 0,-0.84667 c -2.70931,0 -2.96331,-0.23283 -2.51881,-1.86266 z"
             id="path6660"
             inkscape:connector-curvature="0" />
          <path
             style="fill:#a0a1a2;fill-opacity:1;fill-rule:nonzero;stroke:none"
             d="m 257.21413,195.57506 -12.48825,0 c -0.42334,0 -0.762,0.381 -0.762,0.80433 l 0,8.72062 c 0,0.40214 0.33866,0.78314 0.762,0.78314 l 12.48825,0 c 0.4233,0 0.8678,-0.381 0.8678,-0.78314 l 0,-8.72062 c 0,-0.42333 -0.4445,-0.80433 -0.8678,-0.80433 z"
             id="path6662"
             inkscape:connector-curvature="0" />
          <path
             style="fill:#ffffff;fill-opacity:1;fill-rule:nonzero;stroke:none"
             d="m 257.2353,195.57506 c 0,0 0,0 -0.0212,0 l -12.48826,0 c -0.42333,0 -0.76199,0.381 -0.76199,0.80433 l 0,8.72062 c 0,0.40214 0.33866,0.78314 0.762,0.78314 l 0.29633,0 12.21309,-10.30809 z"
             id="path6664"
             inkscape:connector-curvature="0" />
          <path
             style="fill:#59b4d9;fill-opacity:1;fill-rule:nonzero;stroke:none"
             d="m 245.04337,196.65456 11.93793,0 0,8.14911 -11.93793,0 z"
             id="path6666"
             inkscape:connector-curvature="0" />
          <path
             style="fill:#59b4d9;fill-opacity:1;fill-rule:nonzero;stroke:none"
             d="m 255.9653,196.65456 0,0 -10.92193,0 0,8.14911 0,0 0,-8.14911 z"
             id="path6668"
             inkscape:connector-curvature="0" />
          <path
             style="fill:#a0a1a2;fill-opacity:1;fill-rule:nonzero;stroke:none"
             d="m 246.39803,207.74581 9.2286,0 0,0.84667 -9.2286,0 z"
             id="path6670"
             inkscape:connector-curvature="0" />
          <path
             style="fill:#b8d432;fill-opacity:1;fill-rule:nonzero;stroke:none"
             d="m 251.16049,196.16772 c 0,0.10584 -0.0847,0.1905 -0.1905,0.1905 -0.10583,0 -0.21167,-0.0847 -0.21167,-0.1905 0,-0.10583 0.10584,-0.21166 0.21167,-0.21166 0.10583,0 0.1905,0.10583 0.1905,0.21166 z"
             id="path6672"
             inkscape:connector-curvature="0" />
          <path
             style="fill:#ffffff;fill-opacity:1;fill-rule:nonzero;stroke:none"
             d="m 251.18166,200.4857 c -0.0212,0 -0.0423,0 -0.0423,-0.0212 l -2.49763,-1.41817 c -0.0212,-0.0212 -0.0212,-0.0423 -0.0212,-0.0635 0,-0.0423 0,-0.0635 0.0212,-0.0635 l 2.47647,-1.43932 c 0.0212,0 0.0635,0 0.0847,0 l 2.47648,1.43932 c 0.0212,0.0212 0.0423,0.0423 0.0423,0.0635 0,0.0212 -0.0212,0.0423 -0.0423,0.0635 l -2.47648,1.41817 c 0,0.0212 -0.0212,0.0212 -0.0212,0.0212 z"
             id="path6674"
             inkscape:connector-curvature="0" />
          <path
             style="fill:#ffffff;fill-opacity:1;fill-rule:nonzero;stroke:none"
             d="m 250.82182,203.97817 c -0.0212,0 -0.0423,-0.0212 -0.0423,-0.0212 l -2.47647,-1.41817 c -0.0212,-0.0212 -0.0423,-0.0423 -0.0423,-0.0635 l 0,-2.87864 c 0,-0.0212 0.0212,-0.0423 0.0423,-0.0635 0.0212,-0.0212 0.0423,-0.0212 0.0635,0 l 2.49764,1.41817 c 0.0212,0.0212 0.0212,0.0423 0.0212,0.0847 l 0,2.85747 c 0,0.0212 0,0.0423 -0.0212,0.0635 -0.0212,0 -0.0423,0.0212 -0.0423,0.0212 z"
             id="path6676"
             inkscape:connector-curvature="0" />
          <path
             style="fill:#ffffff;fill-opacity:1;fill-rule:nonzero;stroke:none"
             d="m 251.52032,203.97817 c -0.0212,0 -0.0212,-0.0212 -0.0423,-0.0212 -0.0212,-0.0212 -0.0423,-0.0423 -0.0423,-0.0635 l 0,-2.85747 c 0,-0.0212 0.0212,-0.0423 0.0423,-0.0635 l 2.47647,-1.41817 c 0.0212,-0.0212 0.0423,-0.0212 0.0847,0 0.0212,0 0.0212,0.0423 0.0212,0.0635 l 0,2.85747 c 0,0.0212 0,0.0423 -0.0212,0.0635 l -2.47647,1.41817 c -0.0212,0 -0.0423,0.0212 -0.0423,0.0212 z"
             id="path6678"
             inkscape:connector-curvature="0" />
        </g>
        <g
           id="g6680"
           transform="matrix(2.0017039,0,0,2.0017039,-349.87926,-394.7588)">
          <path
             style="fill:#7a7a7a;fill-opacity:1;fill-rule:nonzero;stroke:none"
             d="m 253.10782,205.88315 -0.33866,0 -3.32314,0 -0.16933,0 c 0.46563,1.62983 -0.14817,1.86266 -2.87866,1.86266 l 0,0.84667 3.45013,0 2.51883,0 3.25964,0 0,-0.84667 c -2.70931,0 -2.96331,-0.23283 -2.51881,-1.86266 z"
             id="path6682"
             inkscape:connector-curvature="0" />
          <path
             style="fill:#a0a1a2;fill-opacity:1;fill-rule:nonzero;stroke:none"
             d="m 257.21413,195.57506 -12.48825,0 c -0.42334,0 -0.762,0.381 -0.762,0.80433 l 0,8.72062 c 0,0.40214 0.33866,0.78314 0.762,0.78314 l 12.48825,0 c 0.4233,0 0.8678,-0.381 0.8678,-0.78314 l 0,-8.72062 c 0,-0.42333 -0.4445,-0.80433 -0.8678,-0.80433 z"
             id="path6684"
             inkscape:connector-curvature="0" />
          <path
             style="fill:#ffffff;fill-opacity:1;fill-rule:nonzero;stroke:none"
             d="m 257.2353,195.57506 c 0,0 0,0 -0.0212,0 l -12.48826,0 c -0.42333,0 -0.76199,0.381 -0.76199,0.80433 l 0,8.72062 c 0,0.40214 0.33866,0.78314 0.762,0.78314 l 0.29633,0 12.21309,-10.30809 z"
             id="path6686"
             inkscape:connector-curvature="0" />
          <path
             style="fill:#59b4d9;fill-opacity:1;fill-rule:nonzero;stroke:none"
             d="m 245.04337,196.65456 11.93793,0 0,8.14911 -11.93793,0 z"
             id="path6688"
             inkscape:connector-curvature="0" />
          <path
             style="fill:#59b4d9;fill-opacity:1;fill-rule:nonzero;stroke:none"
             d="m 255.9653,196.65456 0,0 -10.92193,0 0,8.14911 0,0 0,-8.14911 z"
             id="path6690"
             inkscape:connector-curvature="0" />
          <path
             style="fill:#a0a1a2;fill-opacity:1;fill-rule:nonzero;stroke:none"
             d="m 246.39803,207.74581 9.2286,0 0,0.84667 -9.2286,0 z"
             id="path6692"
             inkscape:connector-curvature="0" />
          <path
             style="fill:#b8d432;fill-opacity:1;fill-rule:nonzero;stroke:none"
             d="m 251.16049,196.16772 c 0,0.10584 -0.0847,0.1905 -0.1905,0.1905 -0.10583,0 -0.21167,-0.0847 -0.21167,-0.1905 0,-0.10583 0.10584,-0.21166 0.21167,-0.21166 0.10583,0 0.1905,0.10583 0.1905,0.21166 z"
             id="path6694"
             inkscape:connector-curvature="0" />
          <path
             style="fill:#ffffff;fill-opacity:1;fill-rule:nonzero;stroke:none"
             d="m 251.18166,200.4857 c -0.0212,0 -0.0423,0 -0.0423,-0.0212 l -2.49763,-1.41817 c -0.0212,-0.0212 -0.0212,-0.0423 -0.0212,-0.0635 0,-0.0423 0,-0.0635 0.0212,-0.0635 l 2.47647,-1.43932 c 0.0212,0 0.0635,0 0.0847,0 l 2.47648,1.43932 c 0.0212,0.0212 0.0423,0.0423 0.0423,0.0635 0,0.0212 -0.0212,0.0423 -0.0423,0.0635 l -2.47648,1.41817 c 0,0.0212 -0.0212,0.0212 -0.0212,0.0212 z"
             id="path6696"
             inkscape:connector-curvature="0" />
          <path
             style="fill:#ffffff;fill-opacity:1;fill-rule:nonzero;stroke:none"
             d="m 250.82182,203.97817 c -0.0212,0 -0.0423,-0.0212 -0.0423,-0.0212 l -2.47647,-1.41817 c -0.0212,-0.0212 -0.0423,-0.0423 -0.0423,-0.0635 l 0,-2.87864 c 0,-0.0212 0.0212,-0.0423 0.0423,-0.0635 0.0212,-0.0212 0.0423,-0.0212 0.0635,0 l 2.49764,1.41817 c 0.0212,0.0212 0.0212,0.0423 0.0212,0.0847 l 0,2.85747 c 0,0.0212 0,0.0423 -0.0212,0.0635 -0.0212,0 -0.0423,0.0212 -0.0423,0.0212 z"
             id="path6698"
             inkscape:connector-curvature="0" />
          <path
             style="fill:#ffffff;fill-opacity:1;fill-rule:nonzero;stroke:none"
             d="m 251.52032,203.97817 c -0.0212,0 -0.0212,-0.0212 -0.0423,-0.0212 -0.0212,-0.0212 -0.0423,-0.0423 -0.0423,-0.0635 l 0,-2.85747 c 0,-0.0212 0.0212,-0.0423 0.0423,-0.0635 l 2.47647,-1.41817 c 0.0212,-0.0212 0.0423,-0.0212 0.0847,0 0.0212,0 0.0212,0.0423 0.0212,0.0635 l 0,2.85747 c 0,0.0212 0,0.0423 -0.0212,0.0635 l -2.47647,1.41817 c -0.0212,0 -0.0423,0.0212 -0.0423,0.0212 z"
             id="path6700"
             inkscape:connector-curvature="0" />
        </g>
        <g
           transform="matrix(0.66664966,0,0,0.66664966,-124.67075,-90.62076)"
           id="g6702">
          <path
             inkscape:connector-curvature="0"
             style="fill:#7fba00"
             d="m 337.89703,224.55889 c -1.232,0 -2.392,-0.48 -3.261,-1.352 l -20.389,-20.388 c -0.859,-0.859 -1.351,-2.046 -1.351,-3.261 0,-1.214 0.492,-2.402 1.351,-3.26 l 20.389,-20.388 c 0.871,-0.872 2.029,-1.352 3.261,-1.352 1.231,0 2.39,0.48 3.261,1.352 l 20.386,20.388 c 0.873,0.868 1.352,2.027 1.352,3.26 0,1.233 -0.479,2.392 -1.353,3.263 l -20.385,20.386 c -0.87,0.872 -2.03,1.352 -3.261,1.352"
             id="path6704" />
          <path
             inkscape:connector-curvature="0"
             style="fill:#ffffff"
             d="m 358.50903,199.21889 -6.613,-6.612 0,4.668 -7.016,-0.006 c -0.677,-2.418 -2.573,-4.328 -4.984,-5.02 l 0,-6.69 4.613,0 -6.613,-6.613 -6.612,6.613 4.612,0 0,6.689 c -2.407,0.692 -4.301,2.596 -4.981,5.008 l -7.019,-0.006 0,-4.618 -6.613,6.613 6.613,6.612 0,-4.668 7.022,0.006 c 0.683,2.407 2.574,4.305 4.978,4.996 l 0,4.636 c -1,0.728 -2.528,2.258 -2.528,4.04 0,2.481 2.033,4.5 4.514,4.5 2.481,0 4.51,-2.019 4.51,-4.5 0,-1.762 -1.496,-3.274 -2.496,-4.013 l 0,-4.663 c 2.399,-0.689 4.289,-2.583 4.975,-4.983 l 7.025,0.006 0,4.618 6.613,-6.613 z"
             id="path6706" />
          <path
             inkscape:connector-curvature="0"
             style="fill:#59b4d9"
             d="m 337.89603,193.96089 c -2.899,0 -5.258,2.359 -5.258,5.258 0,2.899 2.359,5.258 5.258,5.258 2.899,0 5.258,-2.358 5.258,-5.258 0,-2.9 -2.359,-5.258 -5.258,-5.258 z"
             id="path6708" />
          <path
             inkscape:connector-curvature="0"
             style="opacity:0.15;fill:#ffffff"
             d="m 341.15803,175.90989 c -0.871,-0.872 -2.029,-1.352 -3.261,-1.352 -1.231,0 -2.389,0.48 -3.26,1.352 l -20.389,20.388 c -0.86,0.858 -1.352,2.046 -1.352,3.26 0,1.215 0.492,2.403 1.352,3.261 l 11.543,11.544 21.715,-32.106 -6.348,-6.347 z"
             id="path6710" />
        </g>
        <path
           style="fill:none;fill-rule:evenodd;stroke:#000000;stroke-width:1px;stroke-linecap:butt;stroke-linejoin:miter;stroke-opacity:1"
           d="m 118.33342,42.42104 18.18274,0 0,0"
           id="path6726"
           inkscape:connector-curvature="0" />
        <path
           style="fill:none;fill-rule:evenodd;stroke:#000000;stroke-width:1px;stroke-linecap:butt;stroke-linejoin:miter;stroke-opacity:1"
           d="m 118.08088,40.65324 19.95051,-33.8400996 0,0"
           id="path6728"
           inkscape:connector-curvature="0" />
        <path
           inkscape:connector-curvature="0"
           id="path6732"
           d="m 117.54517,45.13844 19.95051,33.84005 0,0"
           style="fill:none;fill-rule:evenodd;stroke:#000000;stroke-width:1px;stroke-linecap:butt;stroke-linejoin:miter;stroke-opacity:1" />
        <path
           style="fill:none;fill-rule:evenodd;stroke:#000000;stroke-width:1px;stroke-linecap:butt;stroke-linejoin:miter;stroke-opacity:1;marker-start:url(#DotM-68-0)"
           d="m 72.132683,42.833951 10.357143,0 0,0.17857"
           id="path4865-4"
           inkscape:connector-curvature="0"
           sodipodi:nodetypes="ccc" />
      </g>
      <g
         id="paths"
         transform="matrix(0.54946248,0,0,0.54946248,12.264609,7.5610735)">
        <g
           id="Internet">
          <g
             id="XMLID_1_">
            <g
               id="g8" />
            <g
               id="g10">
              <path
                 id="path12"
                 d="m 153,118.4 -45.5,0 c -5.3,0 -9.6,-4.8 -9.6,-10.6 0,-5.8 4.3,-10.6 9.6,-10.6 0.4,0 0.7,0 1.1,0.1 1.6,-2.8 4.3,-4.5 7.3,-4.5 0.8,0 1.6,0.1 2.4,0.4 0,-0.1 0,-0.3 0,-0.4 0,-6.9 5,-12.4 11.2,-12.4 4.3,0 8.3,2.8 10.1,7.2 1.6,-1 3.4,-1.6 5.3,-1.6 6,0 10.8,5.4 10.8,12 0,0.7 -0.1,1.3 -0.2,2 3.2,1.5 5.3,4.9 5.3,8.8 0,4.5 -2.8,8.3 -6.6,9.3 l -1.2,0.3 z"
                 stroke-miterlimit="10"
                 inkscape:connector-curvature="0"
                 style="fill:none;stroke:#00188f;stroke-miterlimit:10" />
            </g>
          </g>
        </g>
      </g>
    </g>
  </g>
</svg>
