<?xml version="1.0" encoding="UTF-8" standalone="no"?>
<!DOCTYPE svg PUBLIC "-//W3C//DTD SVG 1.1//EN" "http://www.w3.org/Graphics/SVG/1.1/DTD/svg11.dtd">
<!-- Generated by Microsoft Visio, SVG Export pointshardlet.svg pointshardlet -->
<svg xmlns="http://www.w3.org/2000/svg" xmlns:xlink="http://www.w3.org/1999/xlink" xmlns:ev="http://www.w3.org/2001/xml-events"
		width="7in" height="6.75in" viewBox="0 0 504 486" xml:space="preserve" color-interpolation-filters="sRGB" class="st23">
	<style type="text/css">
	<![CDATA[
		.st1 {fill:#ffffff;stroke:none;stroke-width:0.25}
		.st2 {fill:#ecf3fb;stroke:#7f7f7f;stroke-linecap:butt;stroke-width:1}
		.st3 {fill:#d8d8d8;stroke:none;stroke-width:0.25}
		.st4 {fill:#000000;font-family:Segoe UI;font-size:0.833336em}
		.st5 {font-size:1em}
		.st6 {fill:none;stroke:none;stroke-width:0.25}
		.st7 {fill:#000000;font-family:Segoe UI Semibold;font-size:0.916672em}
		.st8 {stroke:#000000;stroke-dasharray:3,3;stroke-linecap:round;stroke-linejoin:round;stroke-width:1}
		.st9 {fill:#e0e0e0;stroke:none;stroke-linecap:round;stroke-linejoin:round;stroke-width:0.75}
		.st10 {fill:#8dc63f;stroke:none;stroke-linecap:round;stroke-linejoin:round;stroke-width:0.75}
		.st11 {fill:#ffffff;stroke:none;stroke-linecap:round;stroke-linejoin:round;stroke-width:0.75}
		.st12 {fill:#1c427f;stroke:none;stroke-linecap:round;stroke-linejoin:round;stroke-width:0.75}
		.st13 {fill:#e3e3e3;stroke:none;stroke-linecap:round;stroke-linejoin:round;stroke-width:0.75}
		.st14 {fill:#99cc53;stroke:none;stroke-linecap:round;stroke-linejoin:round;stroke-width:0.75}
		.st15 {marker-end:url(#mrkr4-195);stroke:#000000;stroke-linecap:round;stroke-linejoin:round;stroke-width:1.5}
		.st16 {fill:#000000;fill-opacity:1;stroke:#000000;stroke-opacity:1;stroke-width:0.37313432835821}
		.st17 {fill:url(#grad0-217);stroke:none;stroke-linecap:butt;stroke-width:0.75}
		.st18 {fill:#0078d4;stroke:none;stroke-linecap:butt;stroke-width:0.75}
		.st19 {fill:#000000;fill-opacity:0.5;stroke:none;stroke-linecap:butt;stroke-width:0.75}
		.st20 {fill:#000000;fill-opacity:0.25;stroke:none;stroke-linecap:butt;stroke-width:0.75}
		.st21 {fill:url(#grad0-233);stroke:none;stroke-linecap:butt;stroke-width:0.75}
		.st22 {fill:#7f7f7f;font-family:Segoe UI Semibold;font-size:1.00001em}
		.st23 {fill:none;fill-rule:evenodd;font-size:12px;overflow:visible;stroke-linecap:square;stroke-miterlimit:3}
	]]>
	</style>

	<defs id="Patterns_And_Gradients">
		<linearGradient id="grad0-217" x1="0" y1="0" x2="1" y2="0" gradientTransform="rotate(116.95960434515 0.5 0.5)">
			<stop offset="0" stop-color="#114a8b" stop-opacity="1"/>
			<stop offset="1" stop-color="#0669bc" stop-opacity="1"/>
		</linearGradient>
		<linearGradient id="grad0-233" x1="0" y1="0" x2="1" y2="0" gradientTransform="rotate(61.849084498542 0.5 0.5)">
			<stop offset="0" stop-color="#3ccbf4" stop-opacity="1"/>
			<stop offset="1" stop-color="#2892df" stop-opacity="1"/>
		</linearGradient>
	</defs>
	<defs id="Markers">
		<g id="lend4">
			<path d="M 2 1 L 0 0 L 2 -1 L 2 1 " style="stroke:none"/>
		</g>
		<marker id="mrkr4-195" class="st16" refX="-5.36" orient="auto" markerUnits="strokeWidth" overflow="visible">
			<use xlink:href="#lend4" transform="scale(-2.68,-2.68) "/>
		</marker>
	</defs>
	<g>
		<title>VBackground-1</title>
		<g id="shape1000-1">
			<title>Solid.1000</title>
			<rect x="0" y="0" width="504" height="486" class="st1"/>
		</g>
	</g>
	<g>
		<title>pointshardlet</title>
		<g id="group1194-3" transform="translate(189.584,-279.209)">
			<title>Database - small.1194</title>
			<g id="shape1195-4" transform="translate(56.8773,-164.182)">
				<title>Sheet.1195</title>
			</g>
			<g id="group1196-5">
				<title>Sheet.1196</title>
				<g id="shape1197-6">
					<title>Sheet.1197</title>
					<path d="M62.74 486 C40.17 486 2.05 482.19 0 456.98 L0 456.39 L0 349.67 L0 346.74 C2.05 329.44 33.13 321.82 63.03
								 321.82 C92.94 321.82 124.02 329.44 125.77 346.45 L125.77 349.67 L125.77 456.68 L125.77 456.98 C123.72
								 482.19 85.32 486 62.74 486 Z" class="st2"/>
				</g>
				<g id="shape1198-8" transform="translate(8.50227,-8.79545)">
					<title>Sheet.1198</title>
					<path d="M54.24 380.45 C32.84 380.45 10.55 376.35 0 367.85 L0 464.89 C1.76 484.53 40.17 486 53.95 486 C67.72
								 486 106.42 484.53 108.18 464.89 L108.18 367.85 C98.22 376.35 75.64 380.45 54.24 380.45 Z"
							class="st2"/>
				</g>
				<g id="shape1199-10" transform="translate(8.50227,-120.205)">
					<title>Sheet.1199</title>
					<ellipse cx="54.2386" cy="468.409" rx="54.2386" ry="17.5909" class="st2"/>
				</g>
			</g>
		</g>
		<g id="shape1163-12" transform="translate(207.472,-339.809)">
			<title>Sheet.1163</title>
			<desc>Shardlet key: 1 Shardlet key: 2</desc>
			<rect x="0" y="452.548" width="90" height="33.4522" class="st3"/>
			<text x="12.73" y="466.27" class="st4">Shardlet key: 1 <tspan x="12.73" dy="1.2em" class="st5">Shardlet key: 2</tspan></text>		</g>
		<g id="shape1165-16" transform="translate(192.847,-450.209)">
			<title>Sheet.1165</title>
			<desc>Global shard-map manager database</desc>
			<rect x="0" y="464.625" width="119.25" height="21.375" class="st6"/>
			<text x="14.88" y="472.01" class="st7">Global shard-map <tspan x="13.5" dy="1.2em" class="st5">manager database</tspan></text>		</g>
		<g id="shape1167-20" transform="translate(34.972,-88.5951)">
			<title>Sheet.1167</title>
			<desc>Shard A</desc>
			<rect x="0" y="462.501" width="129.6" height="23.4994" class="st6"/>
			<text x="45.18" y="477.55" class="st7">Shard A</text>		</g>
		<g id="shape1166-23" transform="translate(340.372,-87.7542)">
			<title>Sheet.1166</title>
			<desc>Shard B</desc>
			<rect x="0" y="461.66" width="129.6" height="24.3404" class="st6"/>
			<text x="45.55" y="477.13" class="st7">Shard B</text>		</g>
		<g id="shape1170-26" transform="translate(350.047,-67.4095)">
			<title>Sheet.1170</title>
			<desc>Shardlet holding data for tenant 2</desc>
			<rect x="0" y="459" width="110.25" height="27" class="st6"/>
			<text x="7.53" y="469.5" class="st4">Shardlet holding data <tspan x="29.25" dy="1.2em" class="st5">for tenant 2</tspan></text>		</g>
		<g id="shape1171-30" transform="translate(324.884,-332.609)">
			<title>Sheet.1171</title>
			<desc>List shard map. Each shardlet contains data for a single key</desc>
			<rect x="0" y="448.2" width="127.05" height="37.8" class="st6"/>
			<text x="30.35" y="458.1" class="st4">List shard map.  <tspan x="14.41" dy="1.2em" class="st5">Each shardlet contains </tspan><tspan
						x="19.09" dy="1.2em" class="st5">data for a single key</tspan></text>		</g>
		<g id="shape1172-35" transform="translate(44.692,-68.1595)">
			<title>Sheet.1172</title>
			<desc>Shardlet holding data for tenant 1</desc>
			<rect x="0" y="459.75" width="110.16" height="26.25" class="st6"/>
			<text x="7.48" y="469.88" class="st4">Shardlet holding data <tspan x="29.21" dy="1.2em" class="st5">for tenant 1</tspan></text>		</g>
		<g id="shape1179-39" transform="translate(299.684,-362.609)">
			<title>Directed line 1.1179</title>
			<path d="M0 486 L50.4 486" class="st8"/>
		</g>
		<g id="group1238-42" transform="translate(36.8845,-113.609)">
			<title>Sheet.1238</title>
			<g id="group1187-43">
				<title>Database - small.1187</title>
				<g id="shape1188-44" transform="translate(56.8773,-164.182)">
					<title>Sheet.1188</title>
				</g>
				<g id="group1189-45">
					<title>Sheet.1189</title>
					<g id="shape1190-46">
						<title>Sheet.1190</title>
						<path d="M62.74 486 C40.17 486 2.05 482.19 0 456.98 L0 456.39 L0 349.67 L0 346.74 C2.05 329.44 33.13 321.82
									 63.03 321.82 C92.94 321.82 124.02 329.44 125.77 346.45 L125.77 349.67 L125.77 456.68 L125.77
									 456.98 C123.72 482.19 85.32 486 62.74 486 Z" class="st2"/>
					</g>
					<g id="shape1191-48" transform="translate(8.50227,-8.79545)">
						<title>Sheet.1191</title>
						<path d="M54.24 380.45 C32.84 380.45 10.55 376.35 0 367.85 L0 464.89 C1.76 484.53 40.17 486 53.95 486 C67.72
									 486 106.42 484.53 108.18 464.89 L108.18 367.85 C98.22 376.35 75.64 380.45 54.24 380.45 Z"
								class="st2"/>
					</g>
					<g id="shape1192-50" transform="translate(8.50227,-120.205)">
						<title>Sheet.1192</title>
						<ellipse cx="54.2386" cy="468.409" rx="54.2386" ry="17.5909" class="st2"/>
					</g>
				</g>
			</g>
			<g id="group1237-52" transform="translate(23.5125,-27.1175)">
				<title>Sheet.1237</title>
				<g id="shape1178-53">
					<title>Sheet.1178</title>
					<rect x="0" y="404.438" width="78.75" height="81.5625" class="st3"/>
				</g>
				<g id="group1101-55" transform="translate(22.7812,-32.2406)">
					<title>Storage Resource group.1101</title>
					<g id="shape1102-56">
						<title>Sheet.1102</title>
						<path d="M0 484.72 C-0 485.48 0.54 486 1.21 486 C31.93 486 31.93 486 31.93 486 C32.67 486 33.19 485.48 33.19
									 484.72 C33.19 462.47 33.19 462.47 33.19 462.47 C0 462.47 -0 462.47 0 462.47 C0 484.72 0 484.72
									 0 484.72 Z" class="st9"/>
					</g>
					<g id="shape1103-58" transform="translate(1.65867E-13,-23.5281)">
						<title>Sheet.1103</title>
						<path d="M32 481.16 C1.21 481.16 1.21 481.16 1.21 481.16 C0.54 481.16 -0 481.74 0 482.37 C0 486 0 486 0 486
									 C33.19 486 33.19 486 33.19 486 C33.19 482.37 33.19 482.37 33.19 482.37 C33.19 481.74 32.67 481.16
									 32 481.16 Z" class="st10"/>
					</g>
					<g id="shape1104-60" transform="translate(9.67969,-12.4561)">
						<title>Sheet.1104</title>
						<path d="M0 482.19 L0 486 L6.22 486 L6.22 482.19 L0 482.19 L0 482.19 Z" class="st11"/>
					</g>
					<g id="shape1105-62" transform="translate(9.67969,-17.3001)">
						<title>Sheet.1105</title>
						<path d="M0 482.19 L0 486 L6.22 486 L6.22 482.19 L0 482.19 L0 482.19 Z" class="st11"/>
					</g>
					<g id="shape1106-64" transform="translate(9.67969,-7.61205)">
						<title>Sheet.1106</title>
						<path d="M0 482.54 L0 486 L6.22 486 L6.22 482.54 L0 482.54 L0 482.54 Z" class="st10"/>
					</g>
					<g id="shape1107-66" transform="translate(17.2852,-7.61205)">
						<title>Sheet.1107</title>
						<path d="M0 482.54 L0 486 L6.22 486 L6.22 482.54 L0 482.54 L0 482.54 Z" class="st10"/>
					</g>
					<g id="shape1108-68" transform="translate(17.2852,-12.4561)">
						<title>Sheet.1108</title>
						<path d="M0 482.19 L0 486 L6.22 486 L6.22 482.19 L0 482.19 L0 482.19 Z" class="st11"/>
					</g>
					<g id="shape1109-70" transform="translate(17.2852,-17.3001)">
						<title>Sheet.1109</title>
						<path d="M0 482.19 L0 486 L6.22 486 L6.22 482.19 L0 482.19 L0 482.19 Z" class="st11"/>
					</g>
					<g id="shape1110-72" transform="translate(2.41992,-17.3001)">
						<title>Sheet.1110</title>
						<path d="M0 482.19 L0 486 L6.22 486 L6.22 482.19 L0 482.19 L0 482.19 Z" class="st11"/>
					</g>
					<g id="shape1111-74" transform="translate(2.41992,-12.4561)">
						<title>Sheet.1111</title>
						<path d="M0 482.19 L0 486 L6.22 486 L6.22 482.19 L0 482.19 L0 482.19 Z" class="st11"/>
					</g>
					<g id="shape1112-76" transform="translate(2.41992,-7.61205)">
						<title>Sheet.1112</title>
						<path d="M0 482.54 L0 486 L6.22 486 L6.22 482.54 L0 482.54 L0 482.54 Z" class="st10"/>
					</g>
					<g id="shape1113-78" transform="translate(2.41992,-2.42202)">
						<title>Sheet.1113</title>
						<path d="M0 482.19 L0 486 L6.22 486 L6.22 482.19 L0 482.19 L0 482.19 Z" class="st10"/>
					</g>
					<g id="shape1114-80" transform="translate(9.67969,-2.42202)">
						<title>Sheet.1114</title>
						<path d="M0 482.19 L0 486 L6.22 486 L6.22 482.19 L0 482.19 L0 482.19 Z" class="st10"/>
					</g>
					<g id="shape1115-82" transform="translate(17.2852,-2.42202)">
						<title>Sheet.1115</title>
						<path d="M0 482.19 L0 486 L6.22 486 L6.22 482.19 L0 482.19 L0 482.19 Z" class="st10"/>
					</g>
					<g id="shape1116-84" transform="translate(24.5449,-7.61205)">
						<title>Sheet.1116</title>
						<path d="M0 482.54 L0 486 L6.22 486 L6.22 482.54 L0 482.54 L0 482.54 Z" class="st10"/>
					</g>
					<g id="shape1117-86" transform="translate(24.5449,-12.4561)">
						<title>Sheet.1117</title>
						<path d="M0 482.19 L0 486 L6.22 486 L6.22 482.19 L0 482.19 L0 482.19 Z" class="st11"/>
					</g>
					<g id="shape1118-88" transform="translate(24.5449,-17.3001)">
						<title>Sheet.1118</title>
						<path d="M0 482.19 L0 486 L6.22 486 L6.22 482.19 L0 482.19 L0 482.19 Z" class="st11"/>
					</g>
					<g id="shape1119-90" transform="translate(24.5449,-2.42202)">
						<title>Sheet.1119</title>
						<path d="M0 482.19 L0 486 L6.22 486 L6.22 482.19 L0 482.19 L0 482.19 Z" class="st10"/>
					</g>
					<g id="shape1120-92" transform="translate(1.03711,5.68434E-14)">
						<title>Sheet.1120</title>
						<path d="M0.09 486 C0.15 486 0.22 486 0.35 486 C1.75 486 1.75 486 1.75 486 C1.81 486 1.81 486 1.81 486 C0.22
									 486 0.22 486 0.22 486 C0.15 486 0.15 486 0.09 486 ZM28 457.63 C0.35 457.63 0.35 457.63 0.35
									 457.63 C0.22 457.63 0.15 457.63 0 457.71 C0.09 457.71 0.15 457.63 0.22 457.63 C28 457.63 28
									 457.63 28 457.63 C28 457.63 28 457.63 28 457.63 Z" class="st12"/>
					</g>
					<g id="shape1121-94">
						<title>Sheet.1121</title>
						<path d="M2.46 478.54 C2.46 474.78 2.46 474.78 2.46 474.78 C8.56 474.78 8.56 474.78 8.56 474.78 C8.56 478.54
									 8.56 478.54 8.56 478.54 C2.46 478.54 2.46 478.54 2.46 478.54 ZM2.46 473.57 C2.46 469.8 2.46
									 469.8 2.46 469.8 C8.56 469.8 8.56 469.8 8.56 469.8 C8.56 473.57 8.56 473.57 8.56 473.57 C2.46
									 473.57 2.46 473.57 2.46 473.57 ZM2.46 468.59 C2.46 464.83 2.46 464.83 2.46 464.83 C8.56 464.83
									 8.56 464.83 8.56 464.83 C8.56 468.59 8.56 468.59 8.56 468.59 C2.46 468.59 2.46 468.59 2.46 468.59
									 ZM9.83 468.59 C9.83 464.83 9.83 464.83 9.83 464.83 C15.92 464.83 15.92 464.83 15.92 464.83 C15.92
									 468.59 15.92 468.59 15.92 468.59 C9.83 468.59 9.83 468.59 9.83 468.59 ZM24.2 462.47 C-0 462.47
									 0 462.47 0 462.47 C0 463.62 0 463.62 0 463.62 C0 465.85 0 465.85 0 465.85 C0 484.66 0 484.66
									 0 484.66 C-0 485.33 0.48 485.87 1.08 486 C1.15 486 1.15 486 1.21 486 C2.79 486 2.79 486 2.79
									 486 C5.06 483.51 5.06 483.51 5.06 483.51 C2.46 483.51 2.46 483.51 2.46 483.51 C2.46 479.75 2.46
									 479.75 2.46 479.75 C8.43 479.75 8.43 479.75 8.43 479.75 C9.83 478.28 9.83 478.28 9.83 478.28
									 C9.83 474.78 9.83 474.78 9.83 474.78 C13.01 474.78 13.01 474.78 13.01 474.78 C14.13 473.57 14.13
									 473.57 14.13 473.57 C9.83 473.57 9.83 473.57 9.83 473.57 C9.83 469.8 9.83 469.8 9.83 469.8 C15.92
									 469.8 15.92 469.8 15.92 469.8 C15.92 471.55 15.92 471.55 15.92 471.55 C17.18 470.21 17.18 470.21
									 17.18 470.21 C17.18 469.8 17.18 469.8 17.18 469.8 C17.52 469.8 17.52 469.8 17.52 469.8 C18.65
									 468.59 18.65 468.59 18.65 468.59 C17.18 468.59 17.18 468.59 17.18 468.59 C17.18 464.83 17.18
									 464.83 17.18 464.83 C22.02 464.83 22.02 464.83 22.02 464.83 C24.2 462.47 24.2 462.47 24.2 462.47
									 Z" class="st13"/>
					</g>
					<g id="shape1122-96" transform="translate(1.65867E-13,-23.5281)">
						<title>Sheet.1122</title>
						<path d="M29.04 481.16 C1.21 481.16 1.21 481.16 1.21 481.16 C1.15 481.16 1.08 481.22 1.02 481.22 C0.41 481.35
									 0 481.87 0 482.43 C0 486 0 486 0 486 C24.37 486 24.37 486 24.37 486 C29.04 481.16 29.04 481.16
									 29.04 481.16 Z" class="st14"/>
					</g>
					<g id="shape1123-98" transform="translate(9.67969,-12.4561)">
						<title>Sheet.1123</title>
						<path d="M6.22 482.19 L0 482.19 L0 486 L4.41 486 L6.22 483.97 L6.22 482.19 L6.22 482.19 Z" class="st11"/>
					</g>
					<g id="shape1124-100" transform="translate(9.67969,-17.3001)">
						<title>Sheet.1124</title>
						<path d="M0 482.19 L0 486 L6.22 486 L6.22 482.19 L0 482.19 L0 482.19 Z" class="st11"/>
					</g>
					<g id="shape1125-102" transform="translate(9.67969,-7.61205)">
						<title>Sheet.1125</title>
						<path d="M3.46 482.54 L0 482.54 L0 486 L3.46 482.54 L3.46 482.54 Z" class="st14"/>
					</g>
					<g id="shape1126-104" transform="translate(17.2852,-15.5701)">
						<title>Sheet.1126</title>
						<path d="M0.35 485.31 L0 485.31 L0 486 L0.35 485.31 L0.35 485.31 Z" class="st11"/>
					</g>
					<g id="shape1127-106" transform="translate(17.2852,-17.3001)">
						<title>Sheet.1127</title>
						<path d="M4.84 482.19 L0 482.19 L0 486 L1.49 486 L4.84 482.19 L4.84 482.19 Z" class="st11"/>
					</g>
					<g id="shape1128-108" transform="translate(2.41992,-17.3001)">
						<title>Sheet.1128</title>
						<path d="M0 482.19 L0 486 L6.22 486 L6.22 482.19 L0 482.19 L0 482.19 Z" class="st11"/>
					</g>
					<g id="shape1129-110" transform="translate(2.41992,-12.4561)">
						<title>Sheet.1129</title>
						<path d="M0 482.19 L0 486 L6.22 486 L6.22 482.19 L0 482.19 L0 482.19 Z" class="st11"/>
					</g>
					<g id="shape1130-112" transform="translate(2.41992,-7.61205)">
						<title>Sheet.1130</title>
						<path d="M0 482.54 L0 486 L6.22 486 L6.22 482.54 L0 482.54 L0 482.54 Z" class="st14"/>
					</g>
					<g id="shape1131-114" transform="translate(2.41992,-2.42202)">
						<title>Sheet.1131</title>
						<path d="M5.88 482.19 L0 482.19 L0 486 L2.55 486 L5.88 482.19 L5.88 482.19 Z" class="st14"/>
					</g>
				</g>
			</g>
		</g>
		<g id="group1239-116" transform="translate(342.284,-113.609)">
			<title>Sheet.1239</title>
			<g id="group1240-117">
				<title>Database - small.1187</title>
				<g id="shape1241-118" transform="translate(56.8773,-164.182)">
					<title>Sheet.1241</title>
				</g>
				<g id="group1242-119">
					<title>Sheet.1242</title>
					<g id="shape1243-120">
						<title>Sheet.1243</title>
						<path d="M62.74 486 C40.17 486 2.05 482.19 0 456.98 L0 456.39 L0 349.67 L0 346.74 C2.05 329.44 33.13 321.82
									 63.03 321.82 C92.94 321.82 124.02 329.44 125.77 346.45 L125.77 349.67 L125.77 456.68 L125.77
									 456.98 C123.72 482.19 85.32 486 62.74 486 Z" class="st2"/>
					</g>
					<g id="shape1244-122" transform="translate(8.50227,-8.79545)">
						<title>Sheet.1244</title>
						<path d="M54.24 380.45 C32.84 380.45 10.55 376.35 0 367.85 L0 464.89 C1.76 484.53 40.17 486 53.95 486 C67.72
									 486 106.42 484.53 108.18 464.89 L108.18 367.85 C98.22 376.35 75.64 380.45 54.24 380.45 Z"
								class="st2"/>
					</g>
					<g id="shape1245-124" transform="translate(8.50227,-120.205)">
						<title>Sheet.1245</title>
						<ellipse cx="54.2386" cy="468.409" rx="54.2386" ry="17.5909" class="st2"/>
					</g>
				</g>
			</g>
			<g id="group1246-126" transform="translate(23.5125,-27.1175)">
				<title>Sheet.1246</title>
				<g id="shape1247-127">
					<title>Sheet.1247</title>
					<rect x="0" y="404.438" width="78.75" height="81.5625" class="st3"/>
				</g>
				<g id="group1248-129" transform="translate(22.7812,-32.2406)">
					<title>Storage Resource group.1101</title>
					<g id="shape1249-130">
						<title>Sheet.1249</title>
						<path d="M0 484.72 C-0 485.48 0.54 486 1.21 486 C31.93 486 31.93 486 31.93 486 C32.67 486 33.19 485.48 33.19
									 484.72 C33.19 462.47 33.19 462.47 33.19 462.47 C0 462.47 -0 462.47 0 462.47 C0 484.72 0 484.72
									 0 484.72 Z" class="st9"/>
					</g>
					<g id="shape1250-132" transform="translate(1.65867E-13,-23.5281)">
						<title>Sheet.1250</title>
						<path d="M32 481.16 C1.21 481.16 1.21 481.16 1.21 481.16 C0.54 481.16 -0 481.74 0 482.37 C0 486 0 486 0 486
									 C33.19 486 33.19 486 33.19 486 C33.19 482.37 33.19 482.37 33.19 482.37 C33.19 481.74 32.67 481.16
									 32 481.16 Z" class="st10"/>
					</g>
					<g id="shape1251-134" transform="translate(9.67969,-12.4561)">
						<title>Sheet.1251</title>
						<path d="M0 482.19 L0 486 L6.22 486 L6.22 482.19 L0 482.19 L0 482.19 Z" class="st11"/>
					</g>
					<g id="shape1252-136" transform="translate(9.67969,-17.3001)">
						<title>Sheet.1252</title>
						<path d="M0 482.19 L0 486 L6.22 486 L6.22 482.19 L0 482.19 L0 482.19 Z" class="st11"/>
					</g>
					<g id="shape1253-138" transform="translate(9.67969,-7.61205)">
						<title>Sheet.1253</title>
						<path d="M0 482.54 L0 486 L6.22 486 L6.22 482.54 L0 482.54 L0 482.54 Z" class="st10"/>
					</g>
					<g id="shape1254-140" transform="translate(17.2852,-7.61205)">
						<title>Sheet.1254</title>
						<path d="M0 482.54 L0 486 L6.22 486 L6.22 482.54 L0 482.54 L0 482.54 Z" class="st10"/>
					</g>
					<g id="shape1255-142" transform="translate(17.2852,-12.4561)">
						<title>Sheet.1255</title>
						<path d="M0 482.19 L0 486 L6.22 486 L6.22 482.19 L0 482.19 L0 482.19 Z" class="st11"/>
					</g>
					<g id="shape1256-144" transform="translate(17.2852,-17.3001)">
						<title>Sheet.1256</title>
						<path d="M0 482.19 L0 486 L6.22 486 L6.22 482.19 L0 482.19 L0 482.19 Z" class="st11"/>
					</g>
					<g id="shape1257-146" transform="translate(2.41992,-17.3001)">
						<title>Sheet.1257</title>
						<path d="M0 482.19 L0 486 L6.22 486 L6.22 482.19 L0 482.19 L0 482.19 Z" class="st11"/>
					</g>
					<g id="shape1258-148" transform="translate(2.41992,-12.4561)">
						<title>Sheet.1258</title>
						<path d="M0 482.19 L0 486 L6.22 486 L6.22 482.19 L0 482.19 L0 482.19 Z" class="st11"/>
					</g>
					<g id="shape1259-150" transform="translate(2.41992,-7.61205)">
						<title>Sheet.1259</title>
						<path d="M0 482.54 L0 486 L6.22 486 L6.22 482.54 L0 482.54 L0 482.54 Z" class="st10"/>
					</g>
					<g id="shape1260-152" transform="translate(2.41992,-2.42202)">
						<title>Sheet.1260</title>
						<path d="M0 482.19 L0 486 L6.22 486 L6.22 482.19 L0 482.19 L0 482.19 Z" class="st10"/>
					</g>
					<g id="shape1261-154" transform="translate(9.67969,-2.42202)">
						<title>Sheet.1261</title>
						<path d="M0 482.19 L0 486 L6.22 486 L6.22 482.19 L0 482.19 L0 482.19 Z" class="st10"/>
					</g>
					<g id="shape1262-156" transform="translate(17.2852,-2.42202)">
						<title>Sheet.1262</title>
						<path d="M0 482.19 L0 486 L6.22 486 L6.22 482.19 L0 482.19 L0 482.19 Z" class="st10"/>
					</g>
					<g id="shape1263-158" transform="translate(24.5449,-7.61205)">
						<title>Sheet.1263</title>
						<path d="M0 482.54 L0 486 L6.22 486 L6.22 482.54 L0 482.54 L0 482.54 Z" class="st10"/>
					</g>
					<g id="shape1264-160" transform="translate(24.5449,-12.4561)">
						<title>Sheet.1264</title>
						<path d="M0 482.19 L0 486 L6.22 486 L6.22 482.19 L0 482.19 L0 482.19 Z" class="st11"/>
					</g>
					<g id="shape1265-162" transform="translate(24.5449,-17.3001)">
						<title>Sheet.1265</title>
						<path d="M0 482.19 L0 486 L6.22 486 L6.22 482.19 L0 482.19 L0 482.19 Z" class="st11"/>
					</g>
					<g id="shape1266-164" transform="translate(24.5449,-2.42202)">
						<title>Sheet.1266</title>
						<path d="M0 482.19 L0 486 L6.22 486 L6.22 482.19 L0 482.19 L0 482.19 Z" class="st10"/>
					</g>
					<g id="shape1267-166" transform="translate(1.03711,5.68434E-14)">
						<title>Sheet.1267</title>
						<path d="M0.09 486 C0.15 486 0.22 486 0.35 486 C1.75 486 1.75 486 1.75 486 C1.81 486 1.81 486 1.81 486 C0.22
									 486 0.22 486 0.22 486 C0.15 486 0.15 486 0.09 486 ZM28 457.63 C0.35 457.63 0.35 457.63 0.35
									 457.63 C0.22 457.63 0.15 457.63 0 457.71 C0.09 457.71 0.15 457.63 0.22 457.63 C28 457.63 28
									 457.63 28 457.63 C28 457.63 28 457.63 28 457.63 Z" class="st12"/>
					</g>
					<g id="shape1268-168">
						<title>Sheet.1268</title>
						<path d="M2.46 478.54 C2.46 474.78 2.46 474.78 2.46 474.78 C8.56 474.78 8.56 474.78 8.56 474.78 C8.56 478.54
									 8.56 478.54 8.56 478.54 C2.46 478.54 2.46 478.54 2.46 478.54 ZM2.46 473.57 C2.46 469.8 2.46
									 469.8 2.46 469.8 C8.56 469.8 8.56 469.8 8.56 469.8 C8.56 473.57 8.56 473.57 8.56 473.57 C2.46
									 473.57 2.46 473.57 2.46 473.57 ZM2.46 468.59 C2.46 464.83 2.46 464.83 2.46 464.83 C8.56 464.83
									 8.56 464.83 8.56 464.83 C8.56 468.59 8.56 468.59 8.56 468.59 C2.46 468.59 2.46 468.59 2.46 468.59
									 ZM9.83 468.59 C9.83 464.83 9.83 464.83 9.83 464.83 C15.92 464.83 15.92 464.83 15.92 464.83 C15.92
									 468.59 15.92 468.59 15.92 468.59 C9.83 468.59 9.83 468.59 9.83 468.59 ZM24.2 462.47 C-0 462.47
									 0 462.47 0 462.47 C0 463.62 0 463.62 0 463.62 C0 465.85 0 465.85 0 465.85 C0 484.66 0 484.66
									 0 484.66 C-0 485.33 0.48 485.87 1.08 486 C1.15 486 1.15 486 1.21 486 C2.79 486 2.79 486 2.79
									 486 C5.06 483.51 5.06 483.51 5.06 483.51 C2.46 483.51 2.46 483.51 2.46 483.51 C2.46 479.75 2.46
									 479.75 2.46 479.75 C8.43 479.75 8.43 479.75 8.43 479.75 C9.83 478.28 9.83 478.28 9.83 478.28
									 C9.83 474.78 9.83 474.78 9.83 474.78 C13.01 474.78 13.01 474.78 13.01 474.78 C14.13 473.57 14.13
									 473.57 14.13 473.57 C9.83 473.57 9.83 473.57 9.83 473.57 C9.83 469.8 9.83 469.8 9.83 469.8 C15.92
									 469.8 15.92 469.8 15.92 469.8 C15.92 471.55 15.92 471.55 15.92 471.55 C17.18 470.21 17.18 470.21
									 17.18 470.21 C17.18 469.8 17.18 469.8 17.18 469.8 C17.52 469.8 17.52 469.8 17.52 469.8 C18.65
									 468.59 18.65 468.59 18.65 468.59 C17.18 468.59 17.18 468.59 17.18 468.59 C17.18 464.83 17.18
									 464.83 17.18 464.83 C22.02 464.83 22.02 464.83 22.02 464.83 C24.2 462.47 24.2 462.47 24.2 462.47
									 Z" class="st13"/>
					</g>
					<g id="shape1269-170" transform="translate(1.65867E-13,-23.5281)">
						<title>Sheet.1269</title>
						<path d="M29.04 481.16 C1.21 481.16 1.21 481.16 1.21 481.16 C1.15 481.16 1.08 481.22 1.02 481.22 C0.41 481.35
									 0 481.87 0 482.43 C0 486 0 486 0 486 C24.37 486 24.37 486 24.37 486 C29.04 481.16 29.04 481.16
									 29.04 481.16 Z" class="st14"/>
					</g>
					<g id="shape1270-172" transform="translate(9.67969,-12.4561)">
						<title>Sheet.1270</title>
						<path d="M6.22 482.19 L0 482.19 L0 486 L4.41 486 L6.22 483.97 L6.22 482.19 L6.22 482.19 Z" class="st11"/>
					</g>
					<g id="shape1271-174" transform="translate(9.67969,-17.3001)">
						<title>Sheet.1271</title>
						<path d="M0 482.19 L0 486 L6.22 486 L6.22 482.19 L0 482.19 L0 482.19 Z" class="st11"/>
					</g>
					<g id="shape1272-176" transform="translate(9.67969,-7.61205)">
						<title>Sheet.1272</title>
						<path d="M3.46 482.54 L0 482.54 L0 486 L3.46 482.54 L3.46 482.54 Z" class="st14"/>
					</g>
					<g id="shape1273-178" transform="translate(17.2852,-15.5701)">
						<title>Sheet.1273</title>
						<path d="M0.35 485.31 L0 485.31 L0 486 L0.35 485.31 L0.35 485.31 Z" class="st11"/>
					</g>
					<g id="shape1274-180" transform="translate(17.2852,-17.3001)">
						<title>Sheet.1274</title>
						<path d="M4.84 482.19 L0 482.19 L0 486 L1.49 486 L4.84 482.19 L4.84 482.19 Z" class="st11"/>
					</g>
					<g id="shape1275-182" transform="translate(2.41992,-17.3001)">
						<title>Sheet.1275</title>
						<path d="M0 482.19 L0 486 L6.22 486 L6.22 482.19 L0 482.19 L0 482.19 Z" class="st11"/>
					</g>
					<g id="shape1276-184" transform="translate(2.41992,-12.4561)">
						<title>Sheet.1276</title>
						<path d="M0 482.19 L0 486 L6.22 486 L6.22 482.19 L0 482.19 L0 482.19 Z" class="st11"/>
					</g>
					<g id="shape1277-186" transform="translate(2.41992,-7.61205)">
						<title>Sheet.1277</title>
						<path d="M0 482.54 L0 486 L6.22 486 L6.22 482.54 L0 482.54 L0 482.54 Z" class="st14"/>
					</g>
					<g id="shape1278-188" transform="translate(2.41992,-2.42202)">
						<title>Sheet.1278</title>
						<path d="M5.88 482.19 L0 482.19 L0 486 L2.55 486 L5.88 482.19 L5.88 482.19 Z" class="st14"/>
					</g>
				</g>
			</g>
		</g>
		<g id="shape1174-190" transform="translate(611.228,406.953) rotate(125.493)">
			<title>Directed line 1.1000</title>
			<path d="M0 486 L160.53 486" class="st15"/>
		</g>
		<g id="shape1175-196" transform="translate(684.087,-144.938) rotate(54.6817)">
			<title>Directed line 1.1175</title>
			<path d="M0 486 L145.69 486" class="st15"/>
		</g>
		<g id="shape1279-201" transform="translate(480.994,-43.0472) rotate(39.6798)">
			<title>Directed line 1.1279</title>
			<path d="M0 486 L74.35 486" class="st8"/>
		</g>
		<g id="shape1280-204" transform="translate(591.248,748.928) rotate(148.617)">
			<title>Directed line 1.1280</title>
			<path d="M0 486 L65.89 486" class="st8"/>
		</g>
		<g id="shape1173-207" transform="translate(189.884,-95.0095)">
			<title>Sheet.1173</title>
			<desc>Databases implementing separate shards</desc>
			<rect x="0" y="456.713" width="119.25" height="29.2875" class="st1"/>
			<text x="4.91" y="468.36" class="st4">Databases implementing <tspan x="25.14" dy="1.2em" class="st5">separate shards</tspan></text>		</g>
		<g id="group1281-211" transform="translate(29.8707,-17.3793)">
			<title>logo.1359</title>
			<g id="group1282-212" transform="translate(4.53637E-13,-7.66743)">
				<title>Azure.1002</title>
				<g id="group1283-213">
					<title>Sheet.1283</title>
					<g id="shape1284-214">
						<title>Sheet.1284</title>
						<path d="M9.59 457.16 L18.18 457.16 L9.27 485.03 A1.34599 1.42145 0 0 1 7.99 486 L1.27 486 A1.34534 1.42075
									 0 0 1 0 484.12 L8.31 458.12 A1.34402 1.41936 0 0 1 9.59 457.16 Z" class="st17"/>
					</g>
					<g id="shape1285-218" transform="translate(7.32461,5.68434E-14)">
						<title>Sheet.1285</title>
						<path d="M14.13 475.32 L0.58 475.32 a0.62655 0.661672 -180 0 0 -0.427582 1.14453 L9.44 485.62 A1.34599 1.42145
									 -180 0 0 10.36 486 L18.03 486 L14.13 475.32 Z" class="st18"/>
					</g>
					<g id="group1286-220" transform="translate(10.3792,5.68434E-14)">
						<title>Sheet.1286</title>
						<g id="shape1287-221" transform="translate(5.91434,5.68434E-14)">
							<title>Sheet.1287</title>
							<path d="M2.75 486 L9.06 486 L5.15 475.32 L0 475.32 L2.98 484.63 A1.36049 1.43675 0 0 1 2.75 486 Z"
									class="st19"/>
						</g>
						<g id="shape1288-223" transform="translate(7.39409E-14,-16.8187)">
							<title>Sheet.1288</title>
							<path d="M3.95 486 L7.8 473.97 L0 473.97 A1.36247 1.43884 0 0 1 0.26 474.45 L3.95 486 Z" class="st19"/>
						</g>
					</g>
					<g id="group1289-225" transform="translate(9.89237,5.68434E-14)">
						<title>Sheet.1289</title>
						<g id="shape1290-226" transform="translate(0,-16.0269)">
							<title>Sheet.1290</title>
							<path d="M0 473.18 L4.19 486 L4.77 484.18 L1.26 473.18 L0 473.18 Z" class="st20"/>
						</g>
						<g id="shape1291-228" transform="translate(5.8669,5.68434E-14)">
							<title>Sheet.1291</title>
							<path d="M2.07 486 L3.88 486 A1.85791 1.96206 -180 0 0 3.99 484.46 L1.07 475.32 L0 475.32 L3.03 484.8
										 a0.861094 0.909364 0 0 1 -0.812999 1.20298 L2.07 486 Z" class="st20"/>
						</g>
					</g>
					<g id="shape1292-230" transform="translate(9.68549,5.68434E-14)">
						<title>Sheet.1292</title>
						<path d="M10.85 458.12 A1.34402 1.41936 -180 0 0 9.57 457.16 L0 457.16 A1.36576 1.44232 0 0 1 1.29 458.14
									 L9.59 484.1 A1.3651 1.44162 0 0 1 8.29 486 L17.88 486 A1.34534 1.42075 -180 0 0 19.16 484.12
									 L10.85 458.12 Z" class="st21"/>
					</g>
				</g>
			</g>
			<g id="shape1293-234" transform="translate(22.72,-2.02935)">
				<title>Sheet.1293</title>
				<desc>Microsoft Azure</desc>
				<rect x="0" y="445.431" width="64.911" height="40.5694" class="st6"/>
				<text x="6.31" y="462.12" class="st22">Microsoft <tspan x="16.73" dy="1.2em" class="st5">Azure</tspan></text>			</g>
		</g>
	</g>
</svg>
