<?xml version="1.0" encoding="UTF-8" standalone="no"?>
<!DOCTYPE svg PUBLIC "-//W3C//DTD SVG 1.1//EN" "http://www.w3.org/Graphics/SVG/1.1/DTD/svg11.dtd">
<!-- Generated by Microsoft Visio, SVG Export automated-api-deployments-apiops-architecture.svg Page-1 -->
<svg xmlns="http://www.w3.org/2000/svg" xmlns:xlink="http://www.w3.org/1999/xlink" xmlns:ev="http://www.w3.org/2001/xml-events"
		width="1.95344in" height="0.366669in" viewBox="0 0 140.648 26.4001" xml:space="preserve" color-interpolation-filters="sRGB"
		class="st12">
	<style type="text/css">
	<![CDATA[
		.st1 {fill:url(#grad0-8);stroke:none;stroke-linecap:butt;stroke-width:0.75}
		.st2 {fill:#3cd4c2;stroke:none;stroke-linecap:butt;stroke-width:0.75}
		.st3 {fill:#ffffff;fill-opacity:0.6;stroke:none;stroke-linecap:butt;stroke-width:0.75}
		.st4 {fill:#ffffff;fill-opacity:0.8;stroke:none;stroke-linecap:butt;stroke-width:0.75}
		.st5 {fill:#ffffff;stroke:none;stroke-linecap:butt;stroke-width:0.75}
		.st6 {fill:#37c2b1;stroke:none;stroke-linecap:butt;stroke-width:0.75}
		.st7 {fill:#16b69a;stroke:none;stroke-linecap:butt;stroke-width:0.75}
		.st8 {fill:#ffffff;fill-opacity:0.3;stroke:none;stroke-linecap:butt;stroke-width:0.75}
		.st9 {fill:none;stroke:none;stroke-linecap:round;stroke-linejoin:round;stroke-width:0.75}
		.st10 {fill:#000000;font-family:Segoe UI;font-size:0.916672em}
		.st11 {font-size:1em}
		.st12 {fill:none;fill-rule:evenodd;font-size:12px;overflow:visible;stroke-linecap:square;stroke-miterlimit:3}
	]]>
	</style>

	<defs id="Patterns_And_Gradients">
		<linearGradient id="grad0-8" x1="0" y1="0" x2="1" y2="0" gradientTransform="rotate(90 0.5 0.5)">
			<stop offset="0" stop-color="#3cd4c2" stop-opacity="1"/>
			<stop offset="1" stop-color="#37c2b1" stop-opacity="1"/>
		</linearGradient>
	</defs>
	<g>
		<title>Page-1</title>
		<g id="group1225-1" transform="translate(-37.2606,9.93458)">
			<title>Sheet.1225</title>
			<g id="group1158-2">
				<title>Sheet.1158</title>
				<g id="group1122-3" transform="translate(4.996E-14,-7.8408)">
					<title>Sheet.1122</title>
					<g id="group1123-4">
						<title>af5c3af2-ed8d-4e64-8790-d144450</title>
						<g id="shape1124-5">
							<title>Sheet.1124</title>
							<path d="M0 25.31 A1.08545 1.08545 -180 0 0 1.09 26.4 L25.51 26.4 A1.08545 1.08545 -180 0 0 26.59 25.31
										 L26.59 -1.01 A1.08545 1.08545 -180 0 0 25.51 -2.1 L1.09 -2.1 A1.08545 1.08545 -180 0 0 0
										 -1.01 L0 25.31 Z" class="st1"/>
						</g>
						<g id="shape1125-9" transform="translate(1.62271,-1.7403)">
							<title>Sheet.1125</title>
							<path d="M0 25.31 A1.08545 1.08545 -180 0 0 1.09 26.4 L22.26 26.4 A1.08545 1.08545 -180 0 0 23.35 25.31
										 L23.35 2.46 A1.08545 1.08545 -180 0 0 22.26 1.38 L1.09 1.38 A1.08545 1.08545 -180 0 0 -0
										 2.46 L0 25.31 Z" class="st2"/>
						</g>
						<g id="shape1126-11" transform="translate(6.23034,-25.7698)">
							<title>Sheet.1126</title>
							<path d="M9.14 21.7 A2.08944 2.08944 -180 0 0 4.96 21.7 L0.9 21.7 a0.904521 0.904521 -180 0 0 -0.904521
										 0.904521 L0 26.4 L14.12 26.4 L14.12 22.6 a0.904521 0.904521 -180 0 0 -0.904521 -0.904521
										 L9.14 21.7 ZM6.76 20.69 A1.04563 1.04563 0 0 1 8.09 21.7 L8.07 21.7 A1.03839 1.03839 0 0
										 1 6.63 22.66 A1.04744 1.04744 0 0 1 6.05 21.39 A1.02573 1.02573 0 0 1 6.76 20.69 Z"
									class="st1"/>
						</g>
						<g id="shape1127-14" transform="translate(4.81205,-18.5626)">
							<title>Sheet.1127</title>
							<path d="M0 25.86 a0.542725 0.542725 -180 0 0 0.542713 0.542713 L16.22 26.4 a0.542725 0.542725 -180 0
										 0 0.542713 -0.542713 L16.77 25.34 a0.542725 0.542725 -180 0 0 -0.542713 -0.542713 L0.54
										 24.79 a0.542725 0.542725 -180 0 0 -0.542713 0.542713 L0 25.86 Z" class="st3"/>
						</g>
						<g id="shape1128-16" transform="translate(4.81205,-13.9694)">
							<title>Sheet.1128</title>
							<path d="M0 25.86 a0.542725 0.542725 -180 0 0 0.542713 0.542713 L16.22 26.4 a0.542725 0.542725 -180 0
										 0 0.542713 -0.542713 L16.77 25.34 a0.542725 0.542725 -180 0 0 -0.542713 -0.542713 L0.54
										 24.79 a0.542725 0.542725 -180 0 0 -0.542713 0.542713 L0 25.86 Z" class="st4"/>
						</g>
						<g id="shape1129-18" transform="translate(4.81205,-9.37807)">
							<title>Sheet.1129</title>
							<path d="M0 25.86 a0.542725 0.542725 -180 0 0 0.542713 0.542713 L16.22 26.4 a0.542725 0.542725 -180 0
										 0 0.542713 -0.542713 L16.77 25.34 a0.542725 0.542725 -180 0 0 -0.542713 -0.542713 L0.54
										 24.79 a0.542725 0.542725 -180 0 0 -0.542713 0.542713 L0 25.86 Z" class="st5"/>
						</g>
					</g>
				</g>
				<g id="group1157-20" transform="translate(12.8592,0)">
					<title>Sheet.1157</title>
					<g id="shape1154-21" transform="translate(29.7949,-0.29357) rotate(45)">
						<title>Sheet.1154</title>
						<path d="M0.96 23.55 L10.8 23.55 A1.33289 1.33289 0 0 1 12.13 24.88 L12.13 25.07 A1.33289 1.33289 0 0 1 10.8
									 26.4 L1.33 26.4 A1.33289 1.33289 0 0 1 0 25.07 L0 24.51 a0.955492 0.955492 0 0 1 0.955492 -0.955492
									 Z" class="st6"/>
					</g>
					<g id="shape1155-23" transform="translate(1.77958,-6.47739)">
						<title>Sheet.1155</title>
						<path d="M5.78 26.4 A8.17622 8.17622 0 1 1 13.96 18.22 A8.18495 8.18495 0 0 1 5.78 26.4 ZM5.78 11.28 A6.94586
									 6.94586 -180 1 0 12.73 18.22 A6.95459 6.95459 -180 0 0 5.78 11.28 Z" class="st7"/>
					</g>
					<g id="shape1156-25" transform="translate(-2.19824E-14,-7.09257)">
						<title>Sheet.1156</title>
						<ellipse cx="7.56104" cy="18.8391" rx="7.56104" ry="7.56104" class="st8"/>
					</g>
				</g>
			</g>
			<g id="shape1159-27" transform="translate(37.6356,-11.212)">
				<title>Sheet.1159</title>
				<desc>Product logger and diagnostics</desc>
				<rect x="0" y="2.55457" width="139.898" height="23.8456" class="st9"/>
				<text x="4" y="11.18" class="st10">Product logger and <tspan x="4" dy="1.2em" class="st11">diagnostics</tspan></text>			</g>
		</g>
	</g>
</svg>
