<?xml version="1.0" encoding="UTF-8" standalone="no"?>
<!DOCTYPE svg PUBLIC "-//W3C//DTD SVG 1.1//EN" "http://www.w3.org/Graphics/SVG/1.1/DTD/svg11.dtd">
<!-- Generated by Microsoft Visio, SVG Export azure-lighthouse-for-ms-sentinel.svg azure-lighthouse-for-ms-sentinel -->
<svg xmlns="http://www.w3.org/2000/svg" xmlns:xlink="http://www.w3.org/1999/xlink" xmlns:ev="http://www.w3.org/2001/xml-events"
		width="11.75in" height="7in" viewBox="0 0 846 504" xml:space="preserve" color-interpolation-filters="sRGB" class="st76">
	<style type="text/css">
	<![CDATA[
		.st1 {fill:#ffffff;stroke:none;stroke-linecap:round;stroke-linejoin:round;stroke-width:0.75}
		.st2 {stroke:#000000;stroke-dasharray:1.5,3;stroke-linecap:round;stroke-linejoin:round;stroke-width:1.5}
		.st3 {fill:#0078d4;stroke:none;stroke-linecap:butt;stroke-width:15.6923}
		.st4 {fill:#50e6ff;stroke:none;stroke-linecap:butt;stroke-width:15.6923}
		.st5 {fill:#f2f2f2;stroke:none;stroke-linecap:round;stroke-linejoin:round;stroke-width:0.75}
		.st6 {fill:#ffffff;stroke:none;stroke-linecap:butt;stroke-width:0.75}
		.st7 {fill:#808080;stroke:none;stroke-linecap:butt;stroke-width:0.75}
		.st8 {fill:#eaeaea;stroke:none;stroke-linecap:butt;stroke-width:0.75}
		.st9 {fill:#b3b2b3;stroke:none;stroke-linecap:butt;stroke-width:0.75}
		.st10 {fill:#4d81b8;stroke:none;stroke-linecap:butt;stroke-width:0.75}
		.st11 {marker-end:url(#mrkr4-49);marker-start:url(#mrkr4-47);stroke:#000000;stroke-linecap:round;stroke-linejoin:round;stroke-width:1.5}
		.st12 {fill:#000000;fill-opacity:1;stroke:#000000;stroke-opacity:1;stroke-width:0.37313432835821}
		.st13 {fill:#50e6ff;stroke:none;stroke-linecap:butt;stroke-width:0.75}
		.st14 {fill:url(#grad0-61);stroke:none;stroke-linecap:butt;stroke-width:0.75}
		.st15 {fill:#53b1e0;stroke:none;stroke-linecap:butt;stroke-width:0.75}
		.st16 {fill:#9cebff;stroke:none;stroke-linecap:butt;stroke-width:0.75}
		.st17 {fill:url(#grad0-69);stroke:none;stroke-linecap:butt;stroke-width:0.75}
		.st18 {fill:none;stroke:none;stroke-linecap:round;stroke-linejoin:round;stroke-width:0.75}
		.st19 {fill:#000000;font-family:Segoe UI;font-size:0.833336em}
		.st20 {font-size:1em}
		.st21 {fill:#000000;stroke:none;stroke-linecap:round;stroke-linejoin:round;stroke-width:6.375}
		.st22 {fill:#0078d4;stroke:none;stroke-linecap:butt;stroke-width:12.75}
		.st23 {fill:#50e6ff;stroke:none;stroke-linecap:butt;stroke-width:12.75}
		.st24 {fill:#1b93eb;stroke:none;stroke-linecap:butt;stroke-width:0.75}
		.st25 {fill:url(#grad0-95);stroke:none;stroke-linecap:butt;stroke-width:0.75}
		.st26 {fill:#c3f1ff;stroke:none;stroke-linecap:butt;stroke-width:0.75}
		.st27 {fill:#ecf3fb;stroke:none;stroke-linecap:round;stroke-linejoin:round;stroke-width:0.75}
		.st28 {fill:#d8e8f5;stroke:none;stroke-linecap:butt;stroke-width:0.75}
		.st29 {fill:#f8f8f8;stroke:none;stroke-linecap:round;stroke-linejoin:round;stroke-width:0.24}
		.st30 {fill:#000000;font-family:Segoe UI;font-size:1.00001em;font-weight:bold}
		.st31 {fill:#0070c0;font-family:Segoe UI Semibold;font-size:0.916672em}
		.st32 {fill:#000000;font-family:Segoe UI;font-size:1.00001em}
		.st33 {fill:none;stroke:#000000;stroke-dasharray:2.25,2.25;stroke-linecap:round;stroke-linejoin:round;stroke-width:0.75}
		.st34 {fill:#949494;stroke:none;stroke-linecap:butt;stroke-width:33.9999}
		.st35 {fill:#a3a3a3;stroke:none;stroke-linecap:butt;stroke-width:33.9999}
		.st36 {fill:#32bedd;stroke:none;stroke-linecap:butt;stroke-width:33.9999}
		.st37 {fill:#9cebff;stroke:none;stroke-linecap:butt;stroke-width:33.9999}
		.st38 {fill:#50e6ff;stroke:none;stroke-linecap:butt;stroke-width:33.9999}
		.st39 {fill:#595959;stroke:none;stroke-linecap:butt;stroke-width:0.75}
		.st40 {fill:#f2f2f2;stroke:none;stroke-linecap:butt;stroke-width:0.75}
		.st41 {fill:#ffffff;stroke:#0070c0;stroke-linecap:round;stroke-linejoin:round;stroke-width:1.25}
		.st42 {fill:#0078d4;stroke:none;stroke-linecap:butt;stroke-width:12.4898}
		.st43 {fill:url(#grad0-318);stroke:none;stroke-linecap:butt;stroke-width:0.75}
		.st44 {fill:#83b9f9;stroke:none;stroke-linecap:butt;stroke-width:0.75}
		.st45 {fill:#0078d4;stroke:none;stroke-linecap:butt;stroke-width:0.75}
		.st46 {fill:none;stroke:#0070c0;stroke-linecap:round;stroke-linejoin:round;stroke-width:1.25}
		.st47 {marker-end:url(#mrkr4-49);stroke:#000000;stroke-linecap:round;stroke-linejoin:round;stroke-width:1.5}
		.st48 {stroke:#000000;stroke-linecap:round;stroke-linejoin:round;stroke-width:1.5}
		.st49 {fill:#000000;font-family:Segoe UI;font-size:1.16666em;font-weight:bold}
		.st50 {fill:#000000;stroke:none;stroke-linecap:butt;stroke-width:4.22069}
		.st51 {fill:#50e6ff;stroke:none;stroke-linecap:butt;stroke-width:4.22069}
		.st52 {fill:#000000;font-family:Segoe UI Semibold;font-size:1.00001em}
		.st53 {font-family:Segoe UI;font-size:0.83333em}
		.st54 {fill:#0078d4;stroke:none;stroke-linecap:butt;stroke-width:12.24}
		.st55 {fill:#ffffff;stroke:none;stroke-linecap:butt;stroke-width:12.75}
		.st56 {fill:#ffffff;stroke:#000000;stroke-linecap:round;stroke-linejoin:round;stroke-width:0.75}
		.st57 {fill:#000000;stroke:none;stroke-linecap:butt;stroke-width:12.75}
		.st58 {fill:#000000;stroke:none;stroke-linecap:butt;stroke-width:3.89809}
		.st59 {fill:#2bc7f4;fill-opacity:0.98;stroke:none;stroke-linecap:butt;stroke-width:3.89809}
		.st60 {fill:#0fbff2;fill-opacity:0.97;stroke:none;stroke-linecap:butt;stroke-width:3.89809}
		.st61 {fill:#4472c4;stroke:none;stroke-linecap:butt;stroke-width:3.89809}
		.st62 {fill:#000000;font-family:Segoe UI Semibold;font-size:1.00001em;font-weight:bold}
		.st63 {font-family:Segoe UI;font-size:0.83333em;font-weight:normal}
		.st64 {fill:#000000;stroke:none;stroke-linecap:butt;stroke-width:6.375}
		.st65 {fill:#0078d4;stroke:none;stroke-linecap:butt;stroke-width:6.375}
		.st66 {fill:#107c10;stroke:none;stroke-width:1.5}
		.st67 {fill:#ffffff;font-family:Segoe UI;font-size:1.00001em}
		.st68 {fill:#000000;font-family:Segoe UI;font-size:1.5em;font-weight:bold}
		.st69 {fill:url(#grad0-515);stroke:none;stroke-width:0.25}
		.st70 {fill:#0078d4;stroke:none;stroke-width:0.25}
		.st71 {fill:#4672c4;fill-opacity:0.5;stroke:none;stroke-width:0.25}
		.st72 {fill:#4672c4;fill-opacity:0.25;stroke:none;stroke-width:0.25}
		.st73 {fill:url(#grad0-531);stroke:none;stroke-width:0.25}
		.st74 {fill:none;stroke:none;stroke-width:0.25}
		.st75 {fill:#7f7f7f;font-family:Segoe UI Semibold;font-size:1.16666em}
		.st76 {fill:none;fill-rule:evenodd;font-size:12px;overflow:visible;stroke-linecap:square;stroke-miterlimit:3}
	]]>
	</style>

	<defs id="Patterns_And_Gradients">
		<linearGradient id="grad0-61" x1="0" y1="0" x2="1" y2="0" gradientTransform="rotate(-133.54829310906 0.5 0.5)">
			<stop offset="0" stop-color="#1988d9" stop-opacity="1"/>
			<stop offset="0.9" stop-color="#54aef0" stop-opacity="1"/>
		</linearGradient>
		<linearGradient id="grad0-69" x1="0" y1="0" x2="1" y2="0" gradientTransform="rotate(65.834982258294 0.5 0.5)">
			<stop offset="0.1" stop-color="#54aef0" stop-opacity="1"/>
			<stop offset="0.29" stop-color="#4fabee" stop-opacity="1"/>
			<stop offset="0.51" stop-color="#41a2e9" stop-opacity="1"/>
			<stop offset="0.74" stop-color="#2a93e0" stop-opacity="1"/>
			<stop offset="0.88" stop-color="#1988d9" stop-opacity="1"/>
		</linearGradient>
		<linearGradient id="grad0-95" x1="0" y1="0" x2="1" y2="0" gradientTransform="rotate(-90 0.5 0.5)">
			<stop offset="0" stop-color="#1b93eb" stop-opacity="1"/>
			<stop offset="0.21" stop-color="#2095eb" stop-opacity="1"/>
			<stop offset="0.44" stop-color="#2e9ced" stop-opacity="1"/>
			<stop offset="0.69" stop-color="#45a7ef" stop-opacity="1"/>
			<stop offset="0.95" stop-color="#64b6f1" stop-opacity="1"/>
			<stop offset="1" stop-color="#6bb9f2" stop-opacity="1"/>
		</linearGradient>
		<linearGradient id="grad0-318" x1="0" y1="0" x2="1" y2="0" gradientTransform="rotate(-90 0.5 0.5)">
			<stop offset="0" stop-color="#0078d4" stop-opacity="1"/>
			<stop offset="0.16" stop-color="#1380da" stop-opacity="1"/>
			<stop offset="0.53" stop-color="#3c91e5" stop-opacity="1"/>
			<stop offset="0.82" stop-color="#559cec" stop-opacity="1"/>
			<stop offset="1" stop-color="#5ea0ef" stop-opacity="1"/>
		</linearGradient>
		<linearGradient id="grad0-515" x1="0" y1="0" x2="1" y2="0" gradientTransform="rotate(116.95960434515 0.5 0.5)">
			<stop offset="0" stop-color="#114a8b" stop-opacity="1"/>
			<stop offset="1" stop-color="#0669bc" stop-opacity="1"/>
		</linearGradient>
		<linearGradient id="grad0-531" x1="0" y1="0" x2="1" y2="0" gradientTransform="rotate(61.849084498542 0.5 0.5)">
			<stop offset="0" stop-color="#3ccbf4" stop-opacity="1"/>
			<stop offset="1" stop-color="#2892df" stop-opacity="1"/>
		</linearGradient>
	</defs>
	<defs id="Markers">
		<g id="lend4">
			<path d="M 2 1 L 0 0 L 2 -1 L 2 1 " style="stroke:none"/>
		</g>
		<marker id="mrkr4-47" class="st12" refX="5.12" orient="auto" markerUnits="strokeWidth" overflow="visible">
			<use xlink:href="#lend4" transform="scale(2.68) "/>
		</marker>
		<marker id="mrkr4-49" class="st12" refX="-5.36" orient="auto" markerUnits="strokeWidth" overflow="visible">
			<use xlink:href="#lend4" transform="scale(-2.68,-2.68) "/>
		</marker>
	</defs>
	<g>
		<title>VBackground-3</title>
		<g id="shape1000-1">
			<title>Solid.1000</title>
			<rect x="0" y="0" width="846" height="504" class="st1"/>
		</g>
	</g>
	<g>
		<title>azure-lighthouse-for-ms-sentinel</title>
		<g id="shape1497-3" transform="translate(1092.86,143.375) rotate(90.1482)">
			<title>Directed line 1.1497</title>
			<path d="M0 504 L186.43 504" class="st2"/>
		</g>
		<g id="group1043-6" transform="translate(579.857,-363.591)">
			<title>Sheet.1043</title>
			<g id="shape1044-7" transform="translate(2.02656,-9.93802)">
				<title>Sheet.1044</title>
				<path d="M7.09 494.39 C6.97 494.38 6.85 494.38 6.73 494.38 L6.74 494.37 C5.49 494.37 4.29 494.87 3.4 495.75 C2.52
							 496.64 2.02 497.84 2.02 499.09 L2.02 504 L0 504 L0 499.09 C0 497.3 0.71 495.59 1.97 494.33 C3.1 493.2
							 4.58 492.51 6.15 492.38 L7.24 492.38 C10.78 492.63 13.47 495.68 13.48 499.23 L13.48 504 L11.45 504 L11.45
							 499.23 C11.45 496.69 9.54 494.57 7.09 494.39 Z" class="st3"/>
			</g>
			<g id="shape1045-9">
				<title>Sheet.1045</title>
				<path d="M17.52 504 L0 504 L0 491.2 L17.52 491.2 L17.52 504 Z" class="st3"/>
			</g>
			<g id="shape1046-11" transform="translate(6.73764,-5.41203)">
				<title>Sheet.1046</title>
				<path d="M0 501.96 L0 502 C0 503.1 0.9 504 2 504 L2.04 504 C3.15 504 4.04 503.1 4.04 502 L4.04 501.96 C4.04 500.85
							 3.15 499.96 2.04 499.96 L2 499.96 C0.9 499.96 0 500.85 0 501.96 Z" class="st4"/>
			</g>
			<g id="shape1047-13" transform="translate(7.74828,-2.69505)">
				<title>Sheet.1047</title>
				<path d="M1.02 499.28 L1 499.28 C0.45 499.28 0 499.73 0 500.29 L0 503 C0 503.55 0.45 504 1 504 L1.02 504 C1.57 504
							 2.02 503.55 2.02 503 L2.02 500.29 C2.02 499.73 1.57 499.28 1.02 499.28 Z" class="st4"/>
			</g>
		</g>
		<g id="group1397-15" transform="translate(481.8,-76.5)">
			<title>Sheet.1397</title>
			<g id="shape1396-16">
				<title>Sheet.1396</title>
				<rect x="0" y="406.125" width="201.375" height="97.875" rx="9" ry="9" class="st5"/>
			</g>
			<g id="group1061-18" transform="translate(6.75,-102)">
				<title>Contacts.1061</title>
				<g id="group1062-19">
					<title>Sheet.1062</title>
					<g id="shape1063-20">
						<title>Sheet.1063</title>
						<rect x="0" y="476.952" width="36.225" height="27.048" class="st6"/>
					</g>
					<g id="shape1064-22" transform="translate(0.966,-0.966)">
						<title>Sheet.1064</title>
						<rect x="0" y="478.884" width="34.293" height="25.116" class="st7"/>
					</g>
					<g id="shape1065-24" transform="translate(1.932,-1.932)">
						<title>Sheet.1065</title>
						<rect x="0" y="480.816" width="32.361" height="23.184" class="st8"/>
					</g>
					<g id="group1066-26" transform="translate(21.735,-6.762)">
						<title>Sheet.1066</title>
						<g id="shape1067-27" transform="translate(0,-12.558)">
							<title>Sheet.1067</title>
							<rect x="0" y="503.034" width="9.66" height="0.966" class="st9"/>
						</g>
						<g id="shape1068-29" transform="translate(0,-6.762)">
							<title>Sheet.1068</title>
							<rect x="0" y="503.034" width="9.66" height="0.966" class="st9"/>
						</g>
						<g id="shape1069-31" transform="translate(0,-3.381)">
							<title>Sheet.1069</title>
							<rect x="0" y="503.034" width="9.66" height="0.966" class="st9"/>
						</g>
						<g id="shape1070-33">
							<title>Sheet.1070</title>
							<rect x="0" y="503.034" width="9.66" height="0.966" class="st9"/>
						</g>
					</g>
					<g id="group1071-35" transform="translate(4.32092,-5.313)">
						<title>Sheet.1071</title>
						<g id="shape1072-36" transform="translate(3.29792,-8.27959)">
							<title>Sheet.1072</title>
							<path d="M3.93 496.14 C6.1 496.14 7.86 497.9 7.86 500.07 C7.86 502.24 6.1 504 3.93 504 C1.76 504 0 502.24
										 0 500.07 C0 497.9 1.76 496.14 3.93 496.14 Z" class="st10"/>
						</g>
						<g id="shape1073-38">
							<title>Sheet.1073</title>
							<path d="M14.3 500.7 C13.69 497.21 13.44 496.98 10.43 496.18 C10.32 496.15 10.28 496.14 10.16 496.11
										 C9.91 496.06 9.65 496.11 9.65 496.11 C9.38 497.19 7.8 499.44 7.34 500.07 C7.3 500.07 7.27
										 500.07 7.23 500.07 C7.23 500.07 7.22 500.07 7.22 500.07 C7.22 500.07 7.22 500.07 7.22 500.07
										 C7.18 500.07 7.14 500.07 7.1 500.07 C6.65 499.44 5.07 497.19 4.79 496.11 C4.79 496.11 4.54
										 496.06 4.28 496.11 C4.17 496.14 4.12 496.15 4.02 496.18 C1.01 496.98 0.76 497.21 0.14 500.7
										 C-0 501.51 0.02 501.7 0.04 501.88 C0.16 503.15 3.31 504 7.22 504 C7.22 504 7.22 504 7.22
										 504 C7.22 504 7.23 504 7.23 504 C11.13 504 14.28 503.15 14.4 501.88 C14.42 501.7 14.45 501.51
										 14.3 500.7 Z" class="st10"/>
						</g>
					</g>
				</g>
			</g>
			<g id="group1392-40" transform="translate(15.6563,-11.385)">
				<title>Sheet.1392</title>
				<g id="shape1386-41" transform="translate(52.275,-61.215)">
					<title>Directed line 1.1386</title>
					<path d="M7.68 504 L8.04 504 L50.76 504" class="st11"/>
				</g>
				<g id="group1390-50">
					<title>Sheet.1390</title>
					<g id="group1365-51" transform="translate(18.0375,-42.3153)">
						<title>Azure Active Directory.1365</title>
						<g id="shape1366-52">
							<title>Sheet.1366</title>
							<path d="M1.83 488.83 L16.15 499.97 L30.72 488.78 L32.55 491.34 L16.15 504 L0 491.34 L1.83 488.83 Z"
									class="st13"/>
						</g>
						<g id="shape1367-54" transform="translate(2.91142,-6.35175)">
							<title>Sheet.1367</title>
							<path d="M0 493.75 L13.24 474.84 L26.75 493.77 L13.24 504 L0 493.75 Z" class="st6"/>
						</g>
						<g id="shape1368-56" transform="translate(2.91142,-6.35175)">
							<title>Sheet.1368</title>
							<path d="M13.24 474.84 L13.24 504 L0 493.75 L13.24 474.84 Z" class="st13"/>
						</g>
						<g id="shape1369-58" transform="translate(16.1484,-6.35175)">
							<title>Sheet.1369</title>
							<path d="M0 474.84 L0 504 L13.51 493.77 L0 474.84 Z" class="st14"/>
						</g>
						<g id="shape1370-62" transform="translate(16.1484,-6.35175)">
							<title>Sheet.1370</title>
							<path d="M0 489.91 L13.51 493.77 L0 504 L0 489.91 Z" class="st15"/>
						</g>
						<g id="shape1371-64" transform="translate(2.91142,-6.35175)">
							<title>Sheet.1371</title>
							<path d="M13.24 504 L0 493.75 L13.24 489.91 L13.24 504 Z" class="st16"/>
						</g>
						<g id="shape1372-66" transform="translate(16.1484,1.7053E-13)">
							<title>Sheet.1372</title>
							<path d="M0 504 L16.4 491.34 L14.58 488.78 L0 499.97 L0 504 Z" class="st17"/>
						</g>
					</g>
					<g id="shape1387-70">
						<title>Sheet.1387</title>
						<desc>Azure Active Directory</desc>
						<rect x="0" y="468.36" width="68.625" height="35.64" class="st18"/>
						<text x="6.82" y="483.18" class="st19">Azure Active <tspan x="14.15" dy="1.2em" class="st20">Directory</tspan></text>					</g>
				</g>
				<g id="group1391-74" transform="translate(91.0875,-0.015009)">
					<title>Sheet.1391</title>
					<g id="shape1388-75">
						<title>Sheet.1388</title>
						<desc>Azure Sentinel workspace</desc>
						<rect x="0" y="468.375" width="88.95" height="35.625" class="st18"/>
						<text x="12.78" y="483.19" class="st19">Azure Sentinel <tspan x="21.18" dy="1.2em" class="st20">workspace</tspan></text>					</g>
					<g id="group1389-79" transform="translate(21.7125,-33.6)">
						<title>Sheet.1389</title>
						<g id="group1364-80" transform="translate(25.8,0)">
							<title>Sheet.1364</title>
							<g id="group1075-81" transform="translate(-2.19824E-14,-3.50348)">
								<title>Database.1075</title>
								<g id="shape1076-82">
									<title>Sheet.1076</title>
									<path d="M7.29 499.84 C11.3 499.84 14.58 498.9 14.58 497.75 L14.58 501.92 C14.58 503.06 11.3
												 504 7.29 504 C3.28 504 0 503.06 0 501.92 L0 497.75 C0 498.9 3.28 499.84 7.29 499.84
												 ZM12.49 501.92 C12.81 501.92 13.01 501.71 13.01 501.4 C13.01 501.08 12.81 500.88
												 12.49 500.88 C12.18 500.88 11.97 501.08 11.97 501.4 C11.97 501.71 12.18 501.92 12.49
												 501.92 ZM7.29 494.63 C11.3 494.63 14.58 493.69 14.58 492.55 L14.58 496.71 C14.58
												 497.86 11.3 498.79 7.29 498.79 C3.28 498.79 0 497.86 0 496.71 L0 492.55 C0 493.69
												 3.28 494.63 7.29 494.63 ZM12.49 496.71 C12.81 496.71 13.01 496.5 13.01 496.19 C13.01
												 495.88 12.81 495.67 12.49 495.67 C12.18 495.67 11.97 495.88 11.97 496.19 C11.97
												 496.5 12.18 496.71 12.49 496.71 ZM7.29 489.42 C11.3 489.42 14.58 488.49 14.58 487.34
												 L14.58 491.51 C14.58 492.65 11.3 493.59 7.29 493.59 C3.28 493.59 0 492.65 0 491.51
												 L0 487.34 C0 488.49 3.28 489.42 7.29 489.42 ZM12.49 491.51 C12.81 491.51 13.01 491.3
												 13.01 490.99 C13.01 490.67 12.81 490.47 12.49 490.47 C12.18 490.47 11.97 490.67
												 11.97 490.99 C11.97 491.3 12.18 491.51 12.49 491.51 ZM14.58 486.3 A7.28756 2.08216
												 0 1 1 -0 486.3 A7.28756 2.08216 0 1 1 14.58 486.3 Z" class="st21"/>
								</g>
							</g>
							<g id="group1083-84" transform="translate(7.33615,0)">
								<title>Sheet.1083</title>
								<g id="shape1084-85">
									<title>Sheet.1084</title>
									<path d="M6.23 504 L6.16 504 C4.5 503.94 0 500.98 0 495.4 L0 491.03 L0.34 491.06 C0.37 491.06
												 3.17 491.36 6.01 488.68 L6.23 488.5 L6.44 488.65 C9.46 491.09 12.08 491.06 12.08
												 491.06 L12.39 491.06 L12.39 495.43 C12.39 500.98 7.89 503.94 6.23 504 Z"
											class="st22"/>
								</g>
								<g id="shape1085-87" transform="translate(5.17733,-5.48545)">
									<title>Sheet.1085</title>
									<path d="M1.42 502 L1.42 504 L0.62 504 L0.62 502 C0.25 501.84 0 501.47 0 501.07 C0 500.52 0.46
												 500.06 1.02 500.06 C1.57 500.06 2.03 500.52 2.03 501.07 C2.03 501.47 1.79 501.84
												 1.42 502 Z" class="st23"/>
								</g>
							</g>
						</g>
						<g id="group1381-89" transform="translate(0,-9.6)">
							<title>Icon-security-248.1381</title>
							<g id="shape1382-90">
								<title>Sheet.1382</title>
								<path d="M27.75 486.03 C27.75 495.09 16.79 502.38 14.41 503.87 a0.852321 0.852321 0 0 1 -0.911786
											 0 C11.04 502.38 0 495.07 0 486.03 L0 475.13 a0.872143 0.872143 0 0 1 0.852321 -0.872143
											 C9.45 474.04 7.49 470.29 13.87 470.29 C20.26 470.29 18.3 474.04 26.82 474.25 a0.872143
											 0.872143 0 0 1 0.852321 0.872143 L27.75 486.03 Z" class="st24"/>
							</g>
							<g id="shape1383-92" transform="translate(1.22893,-1.42144)">
								<title>Sheet.1383</title>
								<path d="M25.29 487.53 C25.29 495.85 15.24 502.53 13.06 503.88 a0.792857 0.792857 0 0 1 -0.8325 0
											 C10.05 502.53 0 495.85 0 487.53 L0 477.62 a0.812679 0.812679 0 0 1 0.753214 -0.951429
											 C8.56 476.45 6.7 473.04 12.65 473.04 C18.59 473.04 16.71 476.53 24.54 476.67 a0.812679
											 0.812679 0 0 1 0.773036 0.792857 L25.29 487.53 Z" class="st25"/>
							</g>
							<g id="shape1384-96" transform="translate(3.50839,-16.0686)">
								<title>Sheet.1384</title>
								<path d="M10.37 498.31 A5.70857 5.70857 0 0 1 16 503.21 a0.97125 0.97125 -180 0 0 0.97125 0.792857
											 L19.74 504 a0.97125 0.97125 -180 0 0 0.991071 -1.05054 A10.4261 10.4261 -180 0 0 0 502.95
											 a0.97125 0.97125 -180 0 0 0.991071 1.05054 L3.77 504 a0.97125 0.97125 -180 0 0 0.97125
											 -0.792857 A5.70857 5.70857 0 0 1 10.37 498.31 Z" class="st26"/>
							</g>
							<g id="shape1385-98" transform="translate(10.0891,-12.2827)">
								<title>Sheet.1385</title>
								<ellipse cx="3.78589" cy="500.214" rx="3.78589" ry="3.78589" class="st6"/>
							</g>
						</g>
					</g>
				</g>
			</g>
			<g id="shape1395-100" transform="translate(42.45,-103.8)">
				<title>Sheet.1395</title>
				<desc>Customer B</desc>
				<rect x="0" y="483.75" width="65.25" height="20.25" class="st18"/>
				<text x="4" y="496.88" class="st19">Customer B</text>			</g>
		</g>
		<g id="shape1399-103" transform="translate(481.8,-217.5)">
			<title>Sheet.1399</title>
			<rect x="0" y="406.125" width="201.375" height="97.875" rx="9" ry="9" class="st27"/>
		</g>
		<g id="group1400-105" transform="translate(488.55,-319.5)">
			<title>Contacts.1400</title>
			<g id="group1401-106">
				<title>Sheet.1401</title>
				<g id="shape1402-107">
					<title>Sheet.1402</title>
					<rect x="0" y="476.952" width="36.225" height="27.048" class="st6"/>
				</g>
				<g id="shape1403-109" transform="translate(0.966,-0.966)">
					<title>Sheet.1403</title>
					<rect x="0" y="478.884" width="34.293" height="25.116" class="st7"/>
				</g>
				<g id="shape1404-111" transform="translate(1.932,-1.932)">
					<title>Sheet.1404</title>
					<rect x="0" y="480.816" width="32.361" height="23.184" class="st28"/>
				</g>
				<g id="group1405-113" transform="translate(21.735,-6.762)">
					<title>Sheet.1405</title>
					<g id="shape1406-114" transform="translate(0,-12.558)">
						<title>Sheet.1406</title>
						<rect x="0" y="503.034" width="9.66" height="0.966" class="st9"/>
					</g>
					<g id="shape1407-116" transform="translate(0,-6.762)">
						<title>Sheet.1407</title>
						<rect x="0" y="503.034" width="9.66" height="0.966" class="st9"/>
					</g>
					<g id="shape1408-118" transform="translate(0,-3.381)">
						<title>Sheet.1408</title>
						<rect x="0" y="503.034" width="9.66" height="0.966" class="st9"/>
					</g>
					<g id="shape1409-120">
						<title>Sheet.1409</title>
						<rect x="0" y="503.034" width="9.66" height="0.966" class="st9"/>
					</g>
				</g>
				<g id="group1410-122" transform="translate(4.32092,-5.313)">
					<title>Sheet.1410</title>
					<g id="shape1411-123" transform="translate(3.29792,-8.27959)">
						<title>Sheet.1411</title>
						<path d="M3.93 496.14 C6.1 496.14 7.86 497.9 7.86 500.07 C7.86 502.24 6.1 504 3.93 504 C1.76 504 0 502.24
									 0 500.07 C0 497.9 1.76 496.14 3.93 496.14 Z" class="st10"/>
					</g>
					<g id="shape1412-125">
						<title>Sheet.1412</title>
						<path d="M14.3 500.7 C13.69 497.21 13.44 496.98 10.43 496.18 C10.32 496.15 10.28 496.14 10.16 496.11 C9.91
									 496.06 9.65 496.11 9.65 496.11 C9.38 497.19 7.8 499.44 7.34 500.07 C7.3 500.07 7.27 500.07 7.23
									 500.07 C7.23 500.07 7.22 500.07 7.22 500.07 C7.22 500.07 7.22 500.07 7.22 500.07 C7.18 500.07
									 7.14 500.07 7.1 500.07 C6.65 499.44 5.07 497.19 4.79 496.11 C4.79 496.11 4.54 496.06 4.28 496.11
									 C4.17 496.14 4.12 496.15 4.02 496.18 C1.01 496.98 0.76 497.21 0.14 500.7 C-0 501.51 0.02 501.7
									 0.04 501.88 C0.16 503.15 3.31 504 7.22 504 C7.22 504 7.22 504 7.22 504 C7.22 504 7.23 504 7.23
									 504 C11.13 504 14.28 503.15 14.4 501.88 C14.42 501.7 14.45 501.51 14.3 500.7 Z" class="st10"/>
					</g>
				</g>
			</g>
		</g>
		<g id="group1413-127" transform="translate(497.456,-228.885)">
			<title>Sheet.1413</title>
			<g id="shape1414-128" transform="translate(52.275,-61.215)">
				<title>Directed line 1.1386</title>
				<path d="M7.68 504 L8.04 504 L50.76 504" class="st11"/>
			</g>
			<g id="group1415-135">
				<title>Sheet.1415</title>
				<g id="group1416-136" transform="translate(18.0375,-42.3153)">
					<title>Azure Active Directory.1365</title>
					<g id="shape1417-137">
						<title>Sheet.1417</title>
						<path d="M1.83 488.83 L16.15 499.97 L30.72 488.78 L32.55 491.34 L16.15 504 L0 491.34 L1.83 488.83 Z"
								class="st13"/>
					</g>
					<g id="shape1418-139" transform="translate(2.91142,-6.35175)">
						<title>Sheet.1418</title>
						<path d="M0 493.75 L13.24 474.84 L26.75 493.77 L13.24 504 L0 493.75 Z" class="st6"/>
					</g>
					<g id="shape1419-141" transform="translate(2.91142,-6.35175)">
						<title>Sheet.1419</title>
						<path d="M13.24 474.84 L13.24 504 L0 493.75 L13.24 474.84 Z" class="st13"/>
					</g>
					<g id="shape1420-143" transform="translate(16.1484,-6.35175)">
						<title>Sheet.1420</title>
						<path d="M0 474.84 L0 504 L13.51 493.77 L0 474.84 Z" class="st14"/>
					</g>
					<g id="shape1421-146" transform="translate(16.1484,-6.35175)">
						<title>Sheet.1421</title>
						<path d="M0 489.91 L13.51 493.77 L0 504 L0 489.91 Z" class="st15"/>
					</g>
					<g id="shape1422-148" transform="translate(2.91142,-6.35175)">
						<title>Sheet.1422</title>
						<path d="M13.24 504 L0 493.75 L13.24 489.91 L13.24 504 Z" class="st16"/>
					</g>
					<g id="shape1423-150" transform="translate(16.1484,1.7053E-13)">
						<title>Sheet.1423</title>
						<path d="M0 504 L16.4 491.34 L14.58 488.78 L0 499.97 L0 504 Z" class="st17"/>
					</g>
				</g>
				<g id="shape1424-153">
					<title>Sheet.1424</title>
					<desc>Azure Active Directory</desc>
					<rect x="0" y="468.36" width="68.625" height="35.64" class="st18"/>
					<text x="6.82" y="483.18" class="st19">Azure Active <tspan x="14.15" dy="1.2em" class="st20">Directory</tspan></text>				</g>
			</g>
			<g id="group1425-157" transform="translate(91.0875,-0.015009)">
				<title>Sheet.1425</title>
				<g id="shape1426-158">
					<title>Sheet.1426</title>
					<desc>Azure Sentinel workspace</desc>
					<rect x="0" y="468.375" width="88.95" height="35.625" class="st18"/>
					<text x="12.78" y="483.19" class="st19">Azure Sentinel <tspan x="21.18" dy="1.2em" class="st20">workspace</tspan></text>				</g>
				<g id="group1427-162" transform="translate(21.7125,-33.6)">
					<title>Sheet.1427</title>
					<g id="group1428-163" transform="translate(25.8,0)">
						<title>Sheet.1428</title>
						<g id="group1429-164" transform="translate(-2.19824E-14,-3.50348)">
							<title>Database.1075</title>
							<g id="shape1430-165">
								<title>Sheet.1430</title>
								<path d="M7.29 499.84 C11.3 499.84 14.58 498.9 14.58 497.75 L14.58 501.92 C14.58 503.06 11.3 504
											 7.29 504 C3.28 504 0 503.06 0 501.92 L0 497.75 C0 498.9 3.28 499.84 7.29 499.84 ZM12.49
											 501.92 C12.81 501.92 13.01 501.71 13.01 501.4 C13.01 501.08 12.81 500.88 12.49 500.88
											 C12.18 500.88 11.97 501.08 11.97 501.4 C11.97 501.71 12.18 501.92 12.49 501.92 ZM7.29
											 494.63 C11.3 494.63 14.58 493.69 14.58 492.55 L14.58 496.71 C14.58 497.86 11.3 498.79
											 7.29 498.79 C3.28 498.79 0 497.86 0 496.71 L0 492.55 C0 493.69 3.28 494.63 7.29 494.63
											 ZM12.49 496.71 C12.81 496.71 13.01 496.5 13.01 496.19 C13.01 495.88 12.81 495.67 12.49
											 495.67 C12.18 495.67 11.97 495.88 11.97 496.19 C11.97 496.5 12.18 496.71 12.49 496.71
											 ZM7.29 489.42 C11.3 489.42 14.58 488.49 14.58 487.34 L14.58 491.51 C14.58 492.65 11.3
											 493.59 7.29 493.59 C3.28 493.59 0 492.65 0 491.51 L0 487.34 C0 488.49 3.28 489.42 7.29
											 489.42 ZM12.49 491.51 C12.81 491.51 13.01 491.3 13.01 490.99 C13.01 490.67 12.81 490.47
											 12.49 490.47 C12.18 490.47 11.97 490.67 11.97 490.99 C11.97 491.3 12.18 491.51 12.49
											 491.51 ZM14.58 486.3 A7.28756 2.08216 0 1 1 -0 486.3 A7.28756 2.08216 0 1 1 14.58 486.3
											 Z" class="st21"/>
							</g>
						</g>
						<g id="group1431-167" transform="translate(7.33615,0)">
							<title>Sheet.1431</title>
							<g id="shape1432-168">
								<title>Sheet.1432</title>
								<path d="M6.23 504 L6.16 504 C4.5 503.94 0 500.98 0 495.4 L0 491.03 L0.34 491.06 C0.37 491.06 3.17
											 491.36 6.01 488.68 L6.23 488.5 L6.44 488.65 C9.46 491.09 12.08 491.06 12.08 491.06 L12.39
											 491.06 L12.39 495.43 C12.39 500.98 7.89 503.94 6.23 504 Z" class="st22"/>
							</g>
							<g id="shape1433-170" transform="translate(5.17733,-5.48545)">
								<title>Sheet.1433</title>
								<path d="M1.42 502 L1.42 504 L0.62 504 L0.62 502 C0.25 501.84 0 501.47 0 501.07 C0 500.52 0.46 500.06
											 1.02 500.06 C1.57 500.06 2.03 500.52 2.03 501.07 C2.03 501.47 1.79 501.84 1.42 502 Z"
										class="st23"/>
							</g>
						</g>
					</g>
					<g id="group1434-172" transform="translate(0,-9.6)">
						<title>Icon-security-248.1381</title>
						<g id="shape1435-173">
							<title>Sheet.1435</title>
							<path d="M27.75 486.03 C27.75 495.09 16.79 502.38 14.41 503.87 a0.852321 0.852321 0 0 1 -0.911786 0 C11.04
										 502.38 0 495.07 0 486.03 L0 475.13 a0.872143 0.872143 0 0 1 0.852321 -0.872143 C9.45 474.04
										 7.49 470.29 13.87 470.29 C20.26 470.29 18.3 474.04 26.82 474.25 a0.872143 0.872143 0 0 1
										 0.852321 0.872143 L27.75 486.03 Z" class="st24"/>
						</g>
						<g id="shape1436-175" transform="translate(1.22893,-1.42144)">
							<title>Sheet.1436</title>
							<path d="M25.29 487.53 C25.29 495.85 15.24 502.53 13.06 503.88 a0.792857 0.792857 0 0 1 -0.8325 0 C10.05
										 502.53 0 495.85 0 487.53 L0 477.62 a0.812679 0.812679 0 0 1 0.753214 -0.951429 C8.56 476.45
										 6.7 473.04 12.65 473.04 C18.59 473.04 16.71 476.53 24.54 476.67 a0.812679 0.812679 0 0 1
										 0.773036 0.792857 L25.29 487.53 Z" class="st25"/>
						</g>
						<g id="shape1437-178" transform="translate(3.50839,-16.0686)">
							<title>Sheet.1437</title>
							<path d="M10.37 498.31 A5.70857 5.70857 0 0 1 16 503.21 a0.97125 0.97125 -180 0 0 0.97125 0.792857 L19.74
										 504 a0.97125 0.97125 -180 0 0 0.991071 -1.05054 A10.4261 10.4261 -180 0 0 0 502.95 a0.97125
										 0.97125 -180 0 0 0.991071 1.05054 L3.77 504 a0.97125 0.97125 -180 0 0 0.97125 -0.792857
										 A5.70857 5.70857 0 0 1 10.37 498.31 Z" class="st26"/>
						</g>
						<g id="shape1438-180" transform="translate(10.0891,-12.2827)">
							<title>Sheet.1438</title>
							<ellipse cx="3.78589" cy="500.214" rx="3.78589" ry="3.78589" class="st6"/>
						</g>
					</g>
				</g>
			</g>
		</g>
		<g id="shape1439-182" transform="translate(525.214,-320.786)">
			<title>Sheet.1439</title>
			<desc>Customer A</desc>
			<rect x="0" y="483.75" width="63.1607" height="20.25" class="st18"/>
			<text x="4" y="496.88" class="st19">Customer A</text>		</g>
		<g id="shape1441-185" transform="translate(18.72,-141.75)">
			<title>Block Arrow.1441</title>
			<path d="M0 504 L352.53 504 L393.03 420.75 L352.53 337.5 L0 337.5 L0 504 Z" class="st29"/>
		</g>
		<g id="shape1442-187" transform="translate(17.3571,-272.571)">
			<title>Sheet.1442</title>
			<desc>Managed detection and response (MSSP tenant)</desc>
			<rect x="0" y="468.36" width="151.393" height="35.64" class="st18"/>
			<text x="8.55" y="482.58" class="st30">Managed detection and <tspan x="8.22" dy="1.2em" class="st20">response (MSSP tenant)</tspan></text>		</g>
		<g id="shape1443-191" transform="translate(45.18,-258)">
			<title>Sheet.1443</title>
			<desc>Provisioning method</desc>
			<rect x="0" y="485.385" width="127.125" height="18.615" class="st18"/>
			<text x="11.45" y="497.99" class="st31">Provisioning method</text>		</g>
		<g id="shape1444-194" transform="translate(210.803,-258)">
			<title>Sheet.1444</title>
			<desc>Azure Lighthouse integration</desc>
			<rect x="0" y="485.385" width="167.625" height="18.615" class="st18"/>
			<text x="11.07" y="497.99" class="st31">Azure Lighthouse integration</text>		</g>
		<g id="shape1446-197" transform="translate(324.643,-378)">
			<title>Sheet.1446</title>
			<desc>Extended control plane</desc>
			<rect x="0" y="468.231" width="131.475" height="35.7685" class="st18"/>
			<text x="4.55" y="489.72" class="st32">Extended control plane</text>		</g>
		<g id="shape1461-200" transform="translate(213.48,-153)">
			<title>Sheet.1461</title>
			<rect x="0" y="397.656" width="162.27" height="106.344" rx="9" ry="9" class="st33"/>
		</g>
		<g id="group1466-202" transform="translate(227.261,-155.52)">
			<title>Sheet.1466</title>
			<g id="group1030-203" transform="translate(21.7388,-37.9049)">
				<title>Icon-security-248</title>
				<g id="shape1031-204">
					<title>Sheet.1031</title>
					<path d="M27.75 486.03 C27.75 495.09 16.79 502.38 14.41 503.87 a0.852321 0.852321 0 0 1 -0.911786 0 C11.04 502.38
								 0 495.07 0 486.03 L0 475.13 a0.872143 0.872143 0 0 1 0.852321 -0.872143 C9.45 474.04 7.49 470.29
								 13.87 470.29 C20.26 470.29 18.3 474.04 26.82 474.25 a0.872143 0.872143 0 0 1 0.852321 0.872143 L27.75
								 486.03 Z" class="st24"/>
				</g>
				<g id="shape1032-206" transform="translate(1.22893,-1.42144)">
					<title>Sheet.1032</title>
					<path d="M25.29 487.53 C25.29 495.85 15.24 502.53 13.06 503.88 a0.792857 0.792857 0 0 1 -0.8325 0 C10.05 502.53
								 0 495.85 0 487.53 L0 477.62 a0.812679 0.812679 0 0 1 0.753214 -0.951429 C8.56 476.45 6.7 473.04
								 12.65 473.04 C18.59 473.04 16.71 476.53 24.54 476.67 a0.812679 0.812679 0 0 1 0.773036 0.792857
								 L25.29 487.53 Z" class="st25"/>
				</g>
				<g id="shape1033-209" transform="translate(3.50839,-16.0686)">
					<title>Sheet.1033</title>
					<path d="M10.37 498.31 A5.70857 5.70857 0 0 1 16 503.21 a0.97125 0.97125 -180 0 0 0.97125 0.792857 L19.74 504
								 a0.97125 0.97125 -180 0 0 0.991071 -1.05054 A10.4261 10.4261 -180 0 0 0 502.95 a0.97125 0.97125
								 -180 0 0 0.991071 1.05054 L3.77 504 a0.97125 0.97125 -180 0 0 0.97125 -0.792857 A5.70857 5.70857
								 0 0 1 10.37 498.31 Z" class="st26"/>
				</g>
				<g id="shape1034-211" transform="translate(10.0891,-12.2827)">
					<title>Sheet.1034</title>
					<ellipse cx="3.78589" cy="500.214" rx="3.78589" ry="3.78589" class="st6"/>
				</g>
			</g>
			<g id="shape1464-213">
				<title>Sheet.1464</title>
				<desc>Managing Sentinel</desc>
				<rect x="0" y="461.16" width="71.2275" height="42.84" class="st18"/>
				<text x="13.28" y="479.58" class="st19">Managing <tspan x="17.95" dy="1.2em" class="st20">Sentinel</tspan></text>			</g>
		</g>
		<g id="group1467-217" transform="translate(292.061,-155.52)">
			<title>Sheet.1467</title>
			<g id="group1373-218" transform="translate(19.3388,-37.08)">
				<title>Azure Active Directory.1373</title>
				<g id="shape1374-219">
					<title>Sheet.1374</title>
					<path d="M1.83 488.83 L16.15 499.97 L30.72 488.78 L32.55 491.34 L16.15 504 L0 491.34 L1.83 488.83 Z"
							class="st13"/>
				</g>
				<g id="shape1375-221" transform="translate(2.91142,-6.35175)">
					<title>Sheet.1375</title>
					<path d="M0 493.75 L13.24 474.84 L26.75 493.77 L13.24 504 L0 493.75 Z" class="st6"/>
				</g>
				<g id="shape1376-223" transform="translate(2.91142,-6.35175)">
					<title>Sheet.1376</title>
					<path d="M13.24 474.84 L13.24 504 L0 493.75 L13.24 474.84 Z" class="st13"/>
				</g>
				<g id="shape1377-225" transform="translate(16.1484,-6.35175)">
					<title>Sheet.1377</title>
					<path d="M0 474.84 L0 504 L13.51 493.77 L0 474.84 Z" class="st14"/>
				</g>
				<g id="shape1378-228" transform="translate(16.1484,-6.35175)">
					<title>Sheet.1378</title>
					<path d="M0 489.91 L13.51 493.77 L0 504 L0 489.91 Z" class="st15"/>
				</g>
				<g id="shape1379-230" transform="translate(2.91142,-6.35175)">
					<title>Sheet.1379</title>
					<path d="M13.24 504 L0 493.75 L13.24 489.91 L13.24 504 Z" class="st16"/>
				</g>
				<g id="shape1380-232" transform="translate(16.1484,1.7053E-13)">
					<title>Sheet.1380</title>
					<path d="M0 504 L16.4 491.34 L14.58 488.78 L0 499.97 L0 504 Z" class="st17"/>
				</g>
			</g>
			<g id="shape1465-235">
				<title>Sheet.1465</title>
				<desc>Managing tenant</desc>
				<rect x="0" y="461.16" width="71.2275" height="42.84" class="st18"/>
				<text x="13.28" y="479.58" class="st19">Managing <tspan x="21.41" dy="1.2em" class="st20">tenant</tspan></text>			</g>
		</g>
		<g id="group1468-239" transform="translate(106.399,-155.52)">
			<title>Sheet.1468</title>
			<g id="group1008-240" transform="translate(19.0013,-38.28)">
				<title>Sheet.1008</title>
				<g id="group1009-241">
					<title>Page-1</title>
					<g id="group1010-242">
						<title>Resource Group</title>
						<g id="group1011-243">
							<title>Sheet.1011</title>
							<g id="group1012-244">
								<title>Sheet.1012</title>
								<g id="shape1013-245">
									<title>Sheet.1013</title>
									<path d="M0 500.19 a0.315039 0.312692 -90 0 0 0.156346 0.275659 L2.43 501.74 L6.25 503.97 a0.334729
												 0.332235 -90 0 0 0.449495 -0.118139 L7.99 501.65 a0.315039 0.312692 -90 0 0 -0.11726
												 -0.413489 L3.38 498.67 a0.334729 0.332235 90 0 1 -0.156346 -0.275659 L3.22 478.08
												 a0.315039 0.312692 90 0 1 0.156346 -0.275659 L7.88 475.24 a0.315039 0.312692 -90
												 0 0 0.11726 -0.413489 L6.7 472.62 a0.334729 0.332235 -90 0 0 -0.449495 -0.15752
												 L2.5 474.65 L0.16 475.97 a0.315039 0.312692 -90 0 0 -0.156346 0.275659 L0 500.19
												 Z" class="st34"/>
								</g>
							</g>
							<g id="group1014-247" transform="translate(0,-0.0696469)">
								<title>Sheet.1014</title>
								<g id="shape1015-248">
									<title>Sheet.1015</title>
									<path d="M3.21 477.99 L3.32 477.87 L7.82 475.31 a0.275659 0.273606 -90 0 0 0.11726 -0.413489
												 L6.65 472.69 a0.295349 0.293149 -90 0 0 -0.429952 -0.15752 L2.44 474.72 L0.12 476.04
												 C0.12 476.04 0.02 476.04 0 476.16 L1.76 477.16 L3.21 477.99 ZM7.82 501.26 L3.32
												 498.7 a0.433179 0.429952 90 0 1 -0.136803 -0.17721 L0.02 500.49 L0.12 500.49 L2.37
												 501.77 L6.27 503.96 a0.295349 0.293149 -90 0 0 0.429952 -0.118139 L7.99 501.63 a0.275659
												 0.273606 -90 0 0 -0.175889 -0.374109 L7.82 501.26 Z" class="st35"/>
								</g>
							</g>
							<g id="group1016-250" transform="translate(25.2091,-1.13687E-13)">
								<title>Sheet.1016</title>
								<g id="shape1017-251">
									<title>Sheet.1017</title>
									<path d="M8.02 500.19 a0.315039 0.312692 90 0 1 -0.156346 0.275659 L5.59 501.74 L1.76 503.97
												 a0.334729 0.332235 90 0 1 -0.449495 -0.118139 L0.02 501.65 a0.315039 0.312692 90
												 0 1 0.11726 -0.413489 L4.63 498.67 a0.334729 0.332235 -90 0 0 0.156346 -0.275659
												 L4.79 478.08 a0.315039 0.312692 -90 0 0 -0.156346 -0.275659 L0.14 475.24 a0.315039
												 0.312692 90 0 1 -0.11726 -0.413489 L1.31 472.62 a0.334729 0.332235 90 0 1 0.449495
												 -0.15752 L5.51 474.61 L7.86 475.93 a0.315039 0.312692 90 0 1 0.156346 0.275659 L8.02
												 500.19 Z" class="st34"/>
								</g>
							</g>
							<g id="group1018-253" transform="translate(25.2503,-0.0696469)">
								<title>Sheet.1018</title>
								<g id="shape1019-254">
									<title>Sheet.1019</title>
									<path d="M4.77 477.99 L4.65 477.87 L0.16 475.31 a0.275659 0.273606 90 0 1 -0.11726 -0.413489
												 L1.33 472.69 a0.295349 0.293149 90 0 1 0.429952 -0.15752 L5.53 474.68 L7.86 476
												 L7.97 476.12 L6.22 477.12 L4.77 477.99 ZM0.16 501.26 L4.65 498.7 a0.433179 0.429952
												 -90 0 0 0.136803 -0.17721 L7.95 500.49 L5.71 501.77 L1.8 503.96 a0.295349 0.293149
												 90 0 1 -0.429952 -0.118139 L0.08 501.63 a0.275659 0.273606 90 0 1 0.078173 -0.374109
												 L0.16 501.26 Z" class="st35"/>
								</g>
							</g>
							<g id="group1020-256" transform="translate(16.5922,-3.65426)">
								<title>Sheet.1020</title>
								<g id="shape1021-257">
									<title>Sheet.1021</title>
									<path d="M10.4 485.83 L10.4 497.91 L0 504 L0 491.89 L10.4 485.83 Z" class="st36"/>
								</g>
							</g>
							<g id="group1022-259" transform="translate(6.21475,-15.7439)">
								<title>Sheet.1022</title>
								<g id="shape1023-260">
									<title>Sheet.1023</title>
									<path d="M20.77 497.91 L10.4 504 L0 497.91 L10.4 491.83 L20.77 497.91 Z" class="st37"/>
								</g>
							</g>
							<g id="group1024-262" transform="translate(6.21475,-3.65426)">
								<title>Sheet.1024</title>
								<g id="shape1025-263">
									<title>Sheet.1025</title>
									<path d="M10.38 491.91 L10.38 504 L0 497.91 L0 485.83 L10.38 491.91 Z" class="st38"/>
								</g>
							</g>
							<g id="group1026-265" transform="translate(6.21475,-3.65426)">
								<title>Sheet.1026</title>
								<g id="shape1027-266">
									<title>Sheet.1027</title>
									<path d="M0 497.91 L10.38 491.89 L10.38 504 L0 497.91 Z" class="st37"/>
								</g>
							</g>
							<g id="group1028-268" transform="translate(16.5922,-3.65426)">
								<title>Sheet.1028</title>
								<g id="shape1029-269">
									<title>Sheet.1029</title>
									<path d="M10.4 497.91 L0 491.89 L0 504 L10.4 497.91 Z" class="st38"/>
								</g>
							</g>
						</g>
					</g>
				</g>
			</g>
			<g id="shape1463-271">
				<title>Sheet.1463</title>
				<desc>ARM templates</desc>
				<rect x="0" y="461.16" width="71.2275" height="42.84" class="st18"/>
				<text x="24.91" y="479.58" class="st19">ARM <tspan x="13.87" dy="1.2em" class="st20">templates</tspan></text>			</g>
		</g>
		<g id="group1469-275" transform="translate(22.3612,-155.52)">
			<title>Sheet.1469</title>
			<g id="shape1042-276" transform="translate(14.8388,-38.28)">
				<title>Shopping cart.1042</title>
				<path d="M33.76 496.21 L13.23 496.21 L11.69 492.31 L36.63 492.31 L37.44 491.2 L41.55 474.14 L7.8 474.14 L6.74 468.32
							 L6.33 467.64 L0 467.64 L0 470.24 L4.26 470.24 L8.77 492.48 L11.32 498.32 L11.71 498.81 L13 498.81 A3.21555
							 3.21555 -180 0 0 12.34 500.75 A3.24562 3.24562 -180 0 0 15.58 504 A3.24562 3.24562 -180 0 0 18.83 500.75
							 A3.21555 3.21555 -180 0 0 18.16 498.81 L27.93 498.81 A3.21445 3.21445 -180 0 0 27.27 500.75 A3.24562
							 3.24562 -180 0 0 30.51 504 A3.24562 3.24562 -180 0 0 33.76 500.75 A3.20728 3.20728 -180 0 0 33.09 498.81
							 L34.89 498.81 L37.49 497.7 L36.51 495.2 L33.76 496.21 ZM10.86 489.72 L8.31 476.73 L38.23 476.73 L35.03
							 489.72 L10.86 489.72 Z" class="st39"/>
			</g>
			<g id="shape1462-278">
				<title>Sheet.1462</title>
				<desc>Marketplace offer</desc>
				<rect x="0" y="461.16" width="71.2275" height="42.84" class="st18"/>
				<text x="8.43" y="479.58" class="st19">Marketplace <tspan x="25.2" dy="1.2em" class="st20">offer</tspan></text>			</g>
		</g>
		<g id="group1470-282" transform="translate(20.3226,-311.806)">
			<title>Contacts.1061</title>
			<g id="group1471-283">
				<title>Sheet.1471</title>
				<g id="shape1472-284">
					<title>Sheet.1472</title>
					<rect x="0" y="476.952" width="36.225" height="27.048" class="st6"/>
				</g>
				<g id="shape1473-286" transform="translate(0.966,-0.966)">
					<title>Sheet.1473</title>
					<rect x="0" y="478.884" width="34.293" height="25.116" class="st7"/>
				</g>
				<g id="shape1474-288" transform="translate(1.932,-1.932)">
					<title>Sheet.1474</title>
					<rect x="0" y="480.816" width="32.361" height="23.184" class="st40"/>
				</g>
				<g id="group1475-290" transform="translate(21.735,-6.762)">
					<title>Sheet.1475</title>
					<g id="shape1476-291" transform="translate(0,-12.558)">
						<title>Sheet.1476</title>
						<rect x="0" y="503.034" width="9.66" height="0.966" class="st9"/>
					</g>
					<g id="shape1477-293" transform="translate(0,-6.762)">
						<title>Sheet.1477</title>
						<rect x="0" y="503.034" width="9.66" height="0.966" class="st9"/>
					</g>
					<g id="shape1478-295" transform="translate(0,-3.381)">
						<title>Sheet.1478</title>
						<rect x="0" y="503.034" width="9.66" height="0.966" class="st9"/>
					</g>
					<g id="shape1479-297">
						<title>Sheet.1479</title>
						<rect x="0" y="503.034" width="9.66" height="0.966" class="st9"/>
					</g>
				</g>
				<g id="group1480-299" transform="translate(4.32092,-5.313)">
					<title>Sheet.1480</title>
					<g id="shape1481-300" transform="translate(3.29792,-8.27959)">
						<title>Sheet.1481</title>
						<path d="M3.93 496.14 C6.1 496.14 7.86 497.9 7.86 500.07 C7.86 502.24 6.1 504 3.93 504 C1.76 504 0 502.24
									 0 500.07 C0 497.9 1.76 496.14 3.93 496.14 Z" class="st10"/>
					</g>
					<g id="shape1482-302">
						<title>Sheet.1482</title>
						<path d="M14.3 500.7 C13.69 497.21 13.44 496.98 10.43 496.18 C10.32 496.15 10.28 496.14 10.16 496.11 C9.91
									 496.06 9.65 496.11 9.65 496.11 C9.38 497.19 7.8 499.44 7.34 500.07 C7.3 500.07 7.27 500.07 7.23
									 500.07 C7.23 500.07 7.22 500.07 7.22 500.07 C7.22 500.07 7.22 500.07 7.22 500.07 C7.18 500.07
									 7.14 500.07 7.1 500.07 C6.65 499.44 5.07 497.19 4.79 496.11 C4.79 496.11 4.54 496.06 4.28 496.11
									 C4.17 496.14 4.12 496.15 4.02 496.18 C1.01 496.98 0.76 497.21 0.14 500.7 C-0 501.51 0.02 501.7
									 0.04 501.88 C0.16 503.15 3.31 504 7.22 504 C7.22 504 7.22 504 7.22 504 C7.22 504 7.23 504 7.23
									 504 C11.13 504 14.28 503.15 14.4 501.88 C14.42 501.7 14.45 501.51 14.3 500.7 Z" class="st10"/>
					</g>
				</g>
			</g>
		</g>
		<g id="shape1460-304" transform="translate(25.92,-153)">
			<title>Custom 1.1460</title>
			<path d="M0 504 L165.65 504 L165.65 397.62 L0 415.62 L0 504 Z" class="st33"/>
		</g>
		<g id="group1492-306" transform="translate(173.613,-243.29)">
			<title>Sheet.1492</title>
			<g id="shape1486-307">
				<title>Sheet.1486</title>
				<ellipse cx="14.4798" cy="489.52" rx="14.4798" ry="14.4798" class="st41"/>
			</g>
			<g id="group1488-309" transform="translate(-418.965,248.558) rotate(-60)">
				<title>Sheet.1488</title>
				<g id="shape1489-310">
					<title>Sheet.1489</title>
					<path d="M16.49 493.5 L16.49 489.13 L14.74 489.13 L14.74 490.69 C13.23 488.75 10.87 487.49 8.23 487.49 C3.68
								 487.49 0 491.19 0 495.75 C0 500.31 3.69 504 8.23 504 C12.78 504 16.46 500.3 16.46 495.75 C16.46
								 495.58 16.46 495.42 16.45 495.26 L14.84 495.26 C14.85 495.42 14.86 495.58 14.86 495.75 C14.86 499.41
								 11.89 502.39 8.23 502.39 C4.57 502.39 1.61 499.41 1.61 495.75 C1.61 492.08 4.57 489.11 8.23 489.11
								 C10.38 489.11 12.29 490.13 13.5 491.73 L12.12 491.73 L12.12 493.48 L14.74 493.48 L14.74 493.5 L16.49
								 493.5 Z" class="st42"/>
				</g>
			</g>
		</g>
		<g id="group1493-312" transform="translate(167.262,-352.633)">
			<title>Sheet.1493</title>
			<g id="group1086-313" transform="translate(7.61915,-7.9476)">
				<title>Icon471-AzureLighthouse</title>
				<g id="group1087-314">
					<title>e5b0933f-d08a-4ba0-b46b-ca75717</title>
					<g id="shape1088-315">
						<title>Sheet.1088</title>
						<path d="M28.24 502.56 L21.61 485.36 a0.516765 0.516765 -180 0 0 -0.479853 -0.332206 L16.41 485.03 L16.41
									 480.93 A2.39926 2.39926 -180 1 0 11.63 480.93 L11.63 485.03 L7.36 485.03 a0.535221 0.535221
									 -180 0 0 -0.498309 0.332206 L0 502.56 A1.01507 1.01507 -180 0 0 0.83 504 L27.41 504 A1.01507
									 1.01507 -180 0 0 28.24 502.56 Z" class="st43"/>
					</g>
					<g id="shape1089-319" transform="translate(0.830515,-3.43279)">
						<title>Sheet.1089</title>
						<path d="M2.9 496.62 L18.82 488.46 L20.21 488.46 a0.516765 0.516765 0 0 1 0.498309 0.350662 L22.24 492.78
									 L0 504 L2.9 496.62 Z" class="st44"/>
					</g>
					<g id="shape1090-321" transform="translate(15.1154,0)">
						<title>Sheet.1090</title>
						<path d="M0 503.96 L11.07 497.32 L13.09 502.56 A1.03353 1.03353 0 0 1 12.24 504 L0 503.96 Z" class="st44"/>
					</g>
					<g id="shape1091-323" transform="translate(6.12735,-18.9726)">
						<title>Sheet.1091</title>
						<path d="M7.75 490.31 L0.15 494.72 a0.295294 0.295294 -180 0 0 -0.147647 0.258382 L0 495.66 a0.295294 0.295294
									 -180 0 0 0.295294 0.295294 L1.44 495.95 L1.44 504 L2.88 504 L2.88 495.95 L12.92 495.95 L12.92
									 504 L14.34 504 L14.34 495.95 L15.5 495.95 a0.295294 0.295294 -180 0 0 0.295294 -0.295294 L15.8
									 494.98 a0.295294 0.295294 -180 0 0 -0.147647 -0.258382 L7.99 490.31 a0.406029 0.406029 -180
									 0 0 -0.239926 5.68434E-14 Z" class="st45"/>
					</g>
				</g>
			</g>
			<g id="shape1491-325">
				<title>Sheet.1491</title>
				<ellipse cx="21.7379" cy="482.262" rx="21.7379" ry="21.7379" class="st46"/>
			</g>
		</g>
		<g id="shape1494-327" transform="translate(191.88,-204.968)">
			<title>Directed line 1.1386</title>
			<path d="M0 504 L13.38 504" class="st47"/>
		</g>
		<g id="shape1495-332" transform="translate(211.5,-372.214)">
			<title>Directed line 1.1495</title>
			<path d="M0 504 L367.07 504" class="st48"/>
		</g>
		<g id="shape1445-335" transform="translate(258.429,-357.429)">
			<title>Sheet.1445</title>
			<desc>Azure delegated resource management</desc>
			<rect x="0" y="474.914" width="273.375" height="29.086" class="st5"/>
			<text x="7.41" y="493.66" class="st49">Azure delegated resource management</text>		</g>
		<g id="shape1496-338" transform="translate(-315,230.786) rotate(-90)">
			<title>Directed line 1.1496</title>
			<path d="M0 504 L77.14 504" class="st48"/>
		</g>
		<g id="shape1498-341" transform="translate(597.214,-358.714)">
			<title>Sheet.1498</title>
			<desc>RBAC</desc>
			<rect x="0" y="483.75" width="63.1607" height="20.25" class="st18"/>
			<text x="4" y="496.88" class="st19">RBAC</text>		</g>
		<g id="shape1500-344" transform="translate(685.125,-259.875)">
			<title>Double tree square.1500</title>
			<path d="M0 504 L14.95 504" class="st48"/>
			<path d="M14.95 504 L14.95 678.86 L29.26 678.86" class="st48"/>
			<path d="M14.95 504 L14.95 378.48 L30.38 378.48" class="st48"/>
		</g>
		<g id="group1501-349" transform="translate(707.22,-29.88)">
			<title>Sheet.1501</title>
			<g id="group1456-350" transform="translate(12.1987,-289.8)">
				<title>Sheet.1456</title>
				<g id="group1048-351" transform="translate(33.0037,-45.9214)">
					<title>Sheet.1048</title>
					<g id="shape1049-352" transform="translate(0,-18.4592)">
						<title>Sheet.1049</title>
						<path d="M38.91 499.69 C37.87 499.69 37 500.42 36.79 501.4 L4.27 501.4 C4.06 500.42 3.19 499.69 2.16 499.69
									 C0.97 499.69 0 500.65 0 501.84 C0 503.03 0.97 504 2.16 504 C3.13 504 3.95 503.36 4.22 502.47
									 L36.84 502.47 C37.11 503.36 37.93 504 38.9 504 C40.09 504 41.06 503.03 41.06 501.84 C41.07 500.65
									 40.1 499.69 38.91 499.69 Z" class="st50"/>
					</g>
					<g id="shape1050-354" transform="translate(20.1238,-20.1311)">
						<title>Sheet.1050</title>
						<path d="M14.42 487.37 C13.23 487.37 12.26 488.33 12.26 489.52 C12.26 489.94 12.38 490.32 12.58 490.65 L0
									 503.24 L0.76 504 L13.36 491.4 C13.67 491.58 14.04 491.68 14.42 491.68 C15.61 491.68 16.58 490.72
									 16.58 489.53 C16.58 488.33 15.61 487.37 14.42 487.37 Z" class="st51"/>
					</g>
					<g id="shape1051-356" transform="translate(4.33312,-4.36953)">
						<title>Sheet.1051</title>
						<path d="M15.16 488.11 L3.27 500 C2.94 499.8 2.56 499.69 2.16 499.69 C0.97 499.69 0 500.65 0 501.84 C0 503.03
									 0.97 504 2.16 504 C3.35 504 4.31 503.03 4.31 501.84 C4.31 501.45 4.2 501.09 4.02 500.77 L15.92
									 488.87 L15.16 488.11 Z" class="st51"/>
					</g>
					<g id="shape1052-358" transform="translate(4.32614,-4.31895)">
						<title>Sheet.1052</title>
						<path d="M30.24 499.68 C29.85 499.68 29.49 499.78 29.18 499.96 L4.02 474.8 C4.2 474.48 4.31 474.11 4.31 473.71
									 C4.31 472.52 3.35 471.55 2.16 471.55 C0.97 471.55 0 472.52 0 473.71 C0 474.9 0.97 475.87 2.16
									 475.87 C2.56 475.87 2.93 475.76 3.26 475.56 L28.41 500.71 C28.21 501.04 28.09 501.43 28.09 501.84
									 C28.09 503.03 29.06 504 30.25 504 C31.44 504 32.4 503.03 32.4 501.84 C32.4 500.65 31.43 499.68
									 30.24 499.68 Z" class="st51"/>
					</g>
					<g id="shape1053-360" transform="translate(18.3933,0)">
						<title>Sheet.1053</title>
						<path d="M2.71 499.75 L2.71 467.21 C3.63 466.97 4.31 466.12 4.31 465.13 C4.31 463.94 3.35 462.97 2.16 462.97
									 C0.97 462.97 0 463.94 0 465.13 C0 466.14 0.7 466.99 1.64 467.23 L1.64 499.75 C0.7 499.98 0 500.83
									 0 501.84 C0 503.03 0.97 504 2.16 504 C3.35 504 4.31 503.03 4.31 501.84 C4.31 500.84 3.63 500
									 2.71 499.75 Z" class="st50"/>
					</g>
					<g id="shape1054-362" transform="translate(16.1945,-16.3097)">
						<title>Sheet.1054</title>
						<path d="M8.64 499.68 C8.64 502.07 6.71 504 4.32 504 C1.93 504 0 502.07 0 499.68 C0 497.29 1.93 495.36 4.32
									 495.36 C6.71 495.36 8.64 497.29 8.64 499.68 Z" class="st50"/>
					</g>
				</g>
				<g id="shape1447-364">
					<title>Sheet.1447</title>
					<desc>Collect Security data across your enterprise</desc>
					<rect x="0" y="461.16" width="107.078" height="42.84" class="st18"/>
					<text x="34.92" y="474.18" class="st52">Collect <tspan x="9.83" dy="1.26em" class="st53">Security data across </tspan><tspan
								x="20.14" dy="1.2em" class="st53">your enterprise</tspan></text>				</g>
			</g>
			<g id="group1457-369" transform="translate(9.10125,-191.453)">
				<title>Sheet.1457</title>
				<g id="shape1448-370">
					<title>Sheet.1448</title>
					<desc>Investigate Critical incidents guided by AI</desc>
					<rect x="0" y="461.16" width="113.273" height="42.84" class="st18"/>
					<text x="26.73" y="474.18" class="st52">Investigate  <tspan x="20.49" dy="1.26em" class="st53">Critical incidents </tspan><tspan
								x="28.49" dy="1.2em" class="st53">guided by AI</tspan></text>				</g>
				<g id="group1455-375" transform="translate(35.79,-46.4365)">
					<title>Sheet.1455</title>
					<g id="group1174-376" transform="translate(-9.99201E-14,-3.9246)">
						<title>Sheet.1174</title>
						<g id="shape1173-377">
							<title>Sheet.1173</title>
							<path d="M0 504 L38.72 504 L38.72 476.82 L0 476.82 L0 504 Z" class="st54"/>
						</g>
						<g id="group1163-379" transform="translate(7.06787,-2.20871)">
							<title>Sheet.1163</title>
							<g id="shape1164-380">
								<title>Sheet.1164</title>
								<path d="M5.5 492.97 L0 492.97 L0 504 L5.5 504 L5.5 492.97 Z" class="st23"/>
							</g>
							<g id="shape1165-382" transform="translate(20.728,-0.00467393)">
								<title>Sheet.1165</title>
								<path d="M5.5 484.72 L0 484.72 L0 504 L5.5 504 L5.5 484.72 Z" class="st55"/>
							</g>
							<g id="shape1166-384" transform="translate(6.93546,-0.00269438)">
								<title>Sheet.1166</title>
								<path d="M5.5 490.2 L0 490.2 L0 504 L5.5 504 L5.5 490.2 Z" class="st23"/>
							</g>
							<g id="shape1167-386" transform="translate(13.8293,-0.00340922)">
								<title>Sheet.1167</title>
								<path d="M5.5 483.34 L0 483.34 L0 504 L5.5 504 L5.5 483.34 Z" class="st55"/>
							</g>
						</g>
					</g>
					<g id="group1454-388" transform="translate(21.1085,0)">
						<title>Sheet.1454</title>
						<g id="shape1450-389" transform="translate(6.48656,-7.7549)">
							<title>Sheet.1450</title>
							<ellipse cx="6.34161" cy="496.752" rx="6.34161" ry="7.24756" class="st56"/>
						</g>
						<g id="group1451-391" transform="translate(20.584,0) scale(-1,1)">
							<title>Sheet.1451</title>
							<g id="shape1452-392" transform="translate(10.9852,-5.68434E-14)">
								<title>Sheet.1452</title>
								<path d="M2.25 494.32 L0 496.59 L7.35 504 L9.6 501.73 L2.25 494.32 Z" class="st57"/>
							</g>
							<g id="shape1453-394" transform="translate(2.89768E-14,-6.08221)">
								<title>Sheet.1453</title>
								<path d="M7.63 488.76 C3.42 488.76 0 492.17 0 496.38 C0 500.59 3.41 504 7.63 504 C11.84 504 15.25
											 500.59 15.25 496.38 C15.25 492.17 11.84 488.76 7.63 488.76 ZM7.63 500.97 C5.09 500.97
											 3.04 498.92 3.04 496.39 C3.04 493.86 5.1 491.81 7.63 491.81 C10.15 491.81 12.21 493.87
											 12.21 496.39 C12.21 498.92 10.16 500.97 7.63 500.97 Z" class="st57"/>
							</g>
						</g>
					</g>
				</g>
			</g>
			<g id="group1458-396" transform="translate(0,-86.794)">
				<title>Sheet.1458</title>
				<g id="group1327-397" transform="translate(46.2375,-54)">
					<title>Sheet.1327</title>
					<g id="shape1328-398" transform="translate(0.325437,-36.322)">
						<title>Sheet.1328</title>
						<path d="M1.44 504 C2.24 504 2.88 503.36 2.88 502.56 C2.88 501.76 2.24 501.12 1.44 501.12 C0.64 501.12 0
									 501.76 0 502.56 C0 503.36 0.64 504 1.44 504 Z" class="st58"/>
					</g>
					<g id="shape1329-400" transform="translate(6.9788,-36.322)">
						<title>Sheet.1329</title>
						<path d="M1.44 504 C2.24 504 2.88 503.36 2.88 502.56 C2.88 501.76 2.24 501.12 1.44 501.12 C0.64 501.12 0
									 501.76 0 502.56 C0 503.36 0.64 504 1.44 504 Z" class="st58"/>
					</g>
					<g id="shape1330-402" transform="translate(14.1595,-36.322)">
						<title>Sheet.1330</title>
						<path d="M1.44 504 C2.24 504 2.88 503.36 2.88 502.56 C2.88 501.76 2.24 501.12 1.44 501.12 C0.64 501.12 0
									 501.76 0 502.56 C0 503.36 0.64 504 1.44 504 Z" class="st58"/>
					</g>
					<g id="shape1331-404" transform="translate(21.4648,-36.322)">
						<title>Sheet.1331</title>
						<path d="M1.44 504 C2.24 504 2.88 503.36 2.88 502.56 C2.88 501.76 2.24 501.12 1.44 501.12 C0.64 501.12 0
									 501.76 0 502.56 C0 503.36 0.64 504 1.44 504 Z" class="st58"/>
					</g>
					<g id="shape1332-406" transform="translate(28.8933,-36.322)">
						<title>Sheet.1332</title>
						<path d="M1.44 504 C2.24 504 2.88 503.36 2.88 502.56 C2.88 501.76 2.24 501.12 1.44 501.12 C0.64 501.12 0
									 501.76 0 502.56 C0 503.36 0.64 504 1.44 504 Z" class="st58"/>
					</g>
					<g id="shape1333-408" transform="translate(35.703,-36.322)">
						<title>Sheet.1333</title>
						<path d="M1.44 504 C2.24 504 2.88 503.36 2.88 502.56 C2.88 501.76 2.24 501.12 1.44 501.12 C0.64 501.12 0
									 501.76 0 502.56 C0 503.36 0.64 504 1.44 504 Z" class="st58"/>
					</g>
					<g id="shape1334-410" transform="translate(0.325437,-29.1409)">
						<title>Sheet.1334</title>
						<path d="M1.44 504 C2.24 504 2.88 503.36 2.88 502.56 C2.88 501.76 2.24 501.12 1.44 501.12 C0.64 501.12 0
									 501.76 0 502.56 C0 503.36 0.64 504 1.44 504 Z" class="st58"/>
					</g>
					<g id="shape1335-412" transform="translate(6.9788,-29.1409)">
						<title>Sheet.1335</title>
						<path d="M1.44 504 C2.24 504 2.88 503.36 2.88 502.56 C2.88 501.76 2.24 501.12 1.44 501.12 C0.64 501.12 0
									 501.76 0 502.56 C0 503.36 0.64 504 1.44 504 Z" class="st58"/>
					</g>
					<g id="shape1336-414" transform="translate(13.7423,-28.7238)">
						<title>Sheet.1336</title>
						<path d="M1.86 504 C2.88 504 3.71 503.17 3.71 502.14 C3.71 501.12 2.88 500.29 1.86 500.29 C0.83 500.29 0
									 501.12 0 502.14 C0 503.17 0.83 504 1.86 504 Z" class="st58"/>
					</g>
					<g id="shape1337-416" transform="translate(21.4073,-26.9509)">
						<title>Sheet.1337</title>
						<path d="M1.62 504 C2.51 504 3.24 503 3.24 501.77 C3.24 500.54 2.51 499.54 1.62 499.54 C0.73 499.54 0 500.54
									 0 501.77 C0 503 0.73 504 1.62 504 Z" class="st59"/>
					</g>
					<g id="shape1338-418" transform="translate(28.4763,-28.7238)">
						<title>Sheet.1338</title>
						<path d="M1.86 504 C2.88 504 3.71 503.17 3.71 502.14 C3.71 501.12 2.88 500.29 1.86 500.29 C0.83 500.29 0
									 501.12 0 502.14 C0 503.17 0.83 504 1.86 504 Z" class="st58"/>
					</g>
					<g id="shape1339-420" transform="translate(35.2857,-28.7238)">
						<title>Sheet.1339</title>
						<path d="M1.86 504 C2.88 504 3.71 503.17 3.71 502.14 C3.71 501.12 2.88 500.29 1.86 500.29 C0.83 500.29 0
									 501.12 0 502.14 C0 503.17 0.83 504 1.86 504 Z" class="st58"/>
					</g>
					<g id="shape1340-422" transform="translate(0.325437,-21.9598)">
						<title>Sheet.1340</title>
						<path d="M1.44 504 C2.24 504 2.88 503.36 2.88 502.56 C2.88 501.76 2.24 501.12 1.44 501.12 C0.64 501.12 0
									 501.76 0 502.56 C0 503.36 0.64 504 1.44 504 Z" class="st58"/>
					</g>
					<g id="shape1341-424" transform="translate(6.9788,-21.9598)">
						<title>Sheet.1341</title>
						<path d="M1.44 504 C2.24 504 2.88 503.36 2.88 502.56 C2.88 501.76 2.24 501.12 1.44 501.12 C0.64 501.12 0
									 501.76 0 502.56 C0 503.36 0.64 504 1.44 504 Z" class="st58"/>
					</g>
					<g id="shape1342-426" transform="translate(13.7423,-21.5427)">
						<title>Sheet.1342</title>
						<path d="M1.86 504 C2.88 504 3.71 503.17 3.71 502.14 C3.71 501.12 2.88 500.29 1.86 500.29 C0.83 500.29 0
									 501.12 0 502.14 C0 503.17 0.83 504 1.86 504 Z" class="st60"/>
					</g>
					<g id="shape1343-428" transform="translate(19.8633,-19.248)">
						<title>Sheet.1343</title>
						<path d="M3.16 504 C4.91 504 6.33 502.52 6.33 500.69 C6.33 498.86 4.91 497.37 3.16 497.37 C1.42 497.37 0
									 498.86 0 500.69 C0 502.52 1.42 504 3.16 504 Z" class="st61"/>
					</g>
					<g id="shape1344-430" transform="translate(28.4884,-21.5548)">
						<title>Sheet.1344</title>
						<path d="M1.84 504 C2.86 504 3.69 503.17 3.69 502.15 C3.69 501.14 2.86 500.31 1.84 500.31 C0.83 500.31 0
									 501.14 0 502.15 C0 503.17 0.83 504 1.84 504 Z" class="st60"/>
					</g>
					<g id="shape1345-432" transform="translate(35.2857,-21.5427)">
						<title>Sheet.1345</title>
						<path d="M1.86 504 C2.88 504 3.71 503.17 3.71 502.14 C3.71 501.12 2.88 500.29 1.86 500.29 C0.83 500.29 0
									 501.12 0 502.14 C0 503.17 0.83 504 1.86 504 Z" class="st58"/>
					</g>
					<g id="shape1346-434" transform="translate(0.325437,-14.6553)">
						<title>Sheet.1346</title>
						<path d="M1.44 504 C2.24 504 2.88 503.36 2.88 502.56 C2.88 501.76 2.24 501.12 1.44 501.12 C0.64 501.12 0
									 501.76 0 502.56 C0 503.36 0.64 504 1.44 504 Z" class="st58"/>
					</g>
					<g id="shape1347-436" transform="translate(6.56166,-14.2383)">
						<title>Sheet.1347</title>
						<path d="M1.86 504 C2.88 504 3.71 503.17 3.71 502.14 C3.71 501.12 2.88 500.29 1.86 500.29 C0.83 500.29 0
									 501.12 0 502.14 C0 503.17 0.83 504 1.86 504 Z" class="st60"/>
					</g>
					<g id="shape1348-438" transform="translate(12.3047,-13.6191)">
						<title>Sheet.1348</title>
						<path d="M3.25 504 C5.05 504 6.5 502.89 6.5 501.52 C6.5 500.16 5.05 499.05 3.25 499.05 C1.46 499.05 0 500.16
									 0 501.52 C0 502.89 1.46 504 3.25 504 Z" class="st61"/>
					</g>
					<g id="shape1349-440" transform="translate(19.3131,-12.381)">
						<title>Sheet.1349</title>
						<path d="M3.71 504 C5.77 504 7.43 502.34 7.43 500.29 C7.43 498.23 5.77 496.57 3.71 496.57 C1.66 496.57 0
									 498.23 0 500.29 C0 502.34 1.66 504 3.71 504 Z" class="st61"/>
					</g>
					<g id="shape1350-442" transform="translate(26.8945,-13.6191)">
						<title>Sheet.1350</title>
						<path d="M3.38 504 C5.25 504 6.77 502.89 6.77 501.52 C6.77 500.16 5.25 499.05 3.38 499.05 C1.52 499.05 0
									 500.16 0 501.52 C0 502.89 1.52 504 3.38 504 Z" class="st61"/>
					</g>
					<g id="shape1351-444" transform="translate(35.703,-14.6553)">
						<title>Sheet.1351</title>
						<path d="M1.44 504 C2.24 504 2.88 503.36 2.88 502.56 C2.88 501.76 2.24 501.12 1.44 501.12 C0.64 501.12 0
									 501.76 0 502.56 C0 503.36 0.64 504 1.44 504 Z" class="st60"/>
					</g>
					<g id="shape1352-446" transform="translate(0.325437,-7.59824)">
						<title>Sheet.1352</title>
						<path d="M1.44 504 C2.24 504 2.88 503.36 2.88 502.56 C2.88 501.76 2.24 501.12 1.44 501.12 C0.64 501.12 0
									 501.76 0 502.56 C0 503.36 0.64 504 1.44 504 Z" class="st58"/>
					</g>
					<g id="shape1353-448" transform="translate(6.9788,-7.59824)">
						<title>Sheet.1353</title>
						<path d="M1.44 504 C2.24 504 2.88 503.36 2.88 502.56 C2.88 501.76 2.24 501.12 1.44 501.12 C0.64 501.12 0
									 501.76 0 502.56 C0 503.36 0.64 504 1.44 504 Z" class="st58"/>
					</g>
					<g id="shape1354-450" transform="translate(13.7423,-7.18097)">
						<title>Sheet.1354</title>
						<path d="M1.86 504 C2.88 504 3.71 503.17 3.71 502.14 C3.71 501.12 2.88 500.29 1.86 500.29 C0.83 500.29 0
									 501.12 0 502.14 C0 503.17 0.83 504 1.86 504 Z" class="st60"/>
					</g>
					<g id="shape1355-452" transform="translate(19.9072,-5.91797)">
						<title>Sheet.1355</title>
						<path d="M3.12 504 C4.84 504 6.24 502.52 6.24 500.69 C6.24 498.86 4.84 497.38 3.12 497.38 C1.4 497.38 0 498.86
									 0 500.69 C0 502.52 1.4 504 3.12 504 Z" class="st61"/>
					</g>
					<g id="shape1356-454" transform="translate(28.4763,-6.93944)">
						<title>Sheet.1356</title>
						<path d="M1.86 504 C2.88 504 3.71 503.17 3.71 502.14 C3.71 501.12 2.88 500.29 1.86 500.29 C0.83 500.29 0
									 501.12 0 502.14 C0 503.17 0.83 504 1.86 504 Z" class="st60"/>
					</g>
					<g id="shape1357-456" transform="translate(35.703,-7.59824)">
						<title>Sheet.1357</title>
						<path d="M1.44 504 C2.24 504 2.88 503.36 2.88 502.56 C2.88 501.76 2.24 501.12 1.44 501.12 C0.64 501.12 0
									 501.76 0 502.56 C0 503.36 0.64 504 1.44 504 Z" class="st58"/>
					</g>
					<g id="shape1358-458" transform="translate(0.325437,-0.417274)">
						<title>Sheet.1358</title>
						<path d="M1.44 504 C2.24 504 2.88 503.36 2.88 502.56 C2.88 501.76 2.24 501.12 1.44 501.12 C0.64 501.12 0
									 501.76 0 502.56 C0 503.36 0.64 504 1.44 504 Z" class="st58"/>
					</g>
					<g id="shape1359-460" transform="translate(6.9788,-0.417274)">
						<title>Sheet.1359</title>
						<path d="M1.44 504 C2.24 504 2.88 503.36 2.88 502.56 C2.88 501.76 2.24 501.12 1.44 501.12 C0.64 501.12 0
									 501.76 0 502.56 C0 503.36 0.64 504 1.44 504 Z" class="st58"/>
					</g>
					<g id="shape1360-462" transform="translate(13.7423,0)">
						<title>Sheet.1360</title>
						<path d="M1.86 504 C2.88 504 3.71 503.17 3.71 502.14 C3.71 501.12 2.88 500.29 1.86 500.29 C0.83 500.29 0
									 501.12 0 502.14 C0 503.17 0.83 504 1.86 504 Z" class="st58"/>
					</g>
					<g id="shape1361-464" transform="translate(21.0174,0)">
						<title>Sheet.1361</title>
						<path d="M2.01 504 C3.12 504 4.02 502.74 4.02 501.19 C4.02 499.63 3.12 498.37 2.01 498.37 C0.9 498.37 0 499.63
									 0 501.19 C0 502.74 0.9 504 2.01 504 Z" class="st61"/>
					</g>
					<g id="shape1362-466" transform="translate(28.4763,0)">
						<title>Sheet.1362</title>
						<path d="M1.86 504 C2.88 504 3.71 503.17 3.71 502.14 C3.71 501.12 2.88 500.29 1.86 500.29 C0.83 500.29 0
									 501.12 0 502.14 C0 503.17 0.83 504 1.86 504 Z" class="st58"/>
					</g>
					<g id="shape1363-468" transform="translate(35.703,-0.417274)">
						<title>Sheet.1363</title>
						<path d="M1.44 504 C2.24 504 2.88 503.36 2.88 502.56 C2.88 501.76 2.24 501.12 1.44 501.12 C0.64 501.12 0
									 501.76 0 502.56 C0 503.36 0.64 504 1.44 504 Z" class="st58"/>
					</g>
				</g>
				<g id="shape1449-470" transform="translate(-1.1175,0.449981)">
					<title>Sheet.1449</title>
					<desc>Detect Threats with vast threat intelligence and AI</desc>
					<rect x="0" y="451.35" width="131.475" height="52.65" class="st18"/>
					<text x="47.9" y="469.28" class="st62">Detect <tspan x="14.25" dy="1.26em" class="st63">Threats with vast threat </tspan><tspan
								x="24.83" dy="1.2em" class="st63">intelligence and AI</tspan></text>				</g>
			</g>
			<g id="group1459-475" transform="translate(10.6125,0)">
				<title>Sheet.1459</title>
				<g id="group1092-476" transform="translate(36.2663,-43.1175)">
					<title>Sheet.1092</title>
					<g id="shape1093-477">
						<title>Sheet.1093</title>
						<path d="M16.6 495.97 L17.95 495.95 L17.92 494.08 L16.59 494.1 A7.64421 7.64421 -180 0 0 15.03 490.37 L15.97
									 489.43 L14.54 488.06 L13.63 488.97 A7.64207 7.64207 -180 0 0 9.77 487.43 L9.76 486.05 L7.86
									 486.08 L7.87 487.47 A7.64549 7.64549 -180 0 0 4.17 489.07 L3.27 488.2 L1.88 489.6 L2.8 490.49
									 A7.63994 7.63994 -180 0 0 1.35 494.09 L0 494.1 L0.03 495.97 L1.32 495.96 A7.63908 7.63908 -180
									 0 0 2.9 499.79 L2.02 500.68 L3.45 502.05 L4.31 501.19 A7.64079 7.64079 -180 0 0 8.17 502.72
									 L8.19 504 L10.09 503.97 L10.07 502.68 A7.64506 7.64506 -180 0 0 13.81 501.04 L14.72 501.91 L16.11
									 500.51 L15.17 499.6 A7.64378 7.64378 -180 0 0 16.6 495.97 ZM9.02 498.92 L8.96 498.92 A3.84539
									 3.84539 0 0 1 6.21 492.39 A3.81975 3.81975 0 0 1 8.92 491.23 L8.97 491.23 A3.84547 3.84547 0
									 0 1 9.02 498.92 L9.02 498.92 Z" class="st64"/>
					</g>
					<g id="shape1094-479" transform="translate(2.04836E-13,-19.2304)">
						<title>Sheet.1094</title>
						<path d="M9.48 499.41 L10.25 499.4 L10.24 498.34 L9.48 498.35 A4.36409 4.36409 -180 0 0 8.59 496.21 L9.12
									 495.68 L8.31 494.9 L7.79 495.42 A4.36324 4.36324 -180 0 0 5.58 494.53 L5.57 493.75 L4.49 493.77
									 L4.5 494.56 A4.36623 4.36623 -180 0 0 2.38 495.47 L1.87 494.98 L1.07 495.78 L1.6 496.28 A4.36751
									 4.36751 -180 0 0 0.77 498.34 L0 498.35 L0.01 499.42 L0.76 499.41 A4.36025 4.36025 -180 0 0 1.66
									 501.6 L1.16 502.11 L1.97 502.89 L2.46 502.39 A4.36623 4.36623 -180 0 0 4.67 503.27 L4.68 504
									 L5.77 503.98 L5.76 503.25 A4.37135 4.37135 -180 0 0 7.89 502.31 L8.41 502.81 L9.2 502.01 L8.67
									 501.49 A4.36879 4.36879 -180 0 0 9.48 499.41 ZM5.15 501.1 L5.12 501.1 A2.197 2.197 0 0 1 3.55
									 497.37 A2.17905 2.17905 0 0 1 5.09 496.71 L5.12 496.71 A2.19661 2.19661 0 0 1 5.15 501.1 L5.15
									 501.1 Z" class="st65"/>
					</g>
					<g id="shape1095-481" transform="translate(11.5362,-11.5362)">
						<title>Sheet.1095</title>
						<path d="M27.76 492.63 A13.3871 13.3871 -180 0 0 27.67 485.54 L29.37 484.81 L28.04 481.71 L26.34 482.44 A13.3905
									 13.3905 -180 0 0 21.32 477.52 L22.02 475.77 L18.89 474.52 L18.19 476.25 A13.3845 13.3845 -180
									 0 0 11.02 476.33 L10.29 474.63 L7.19 475.96 L7.92 477.66 A13.3914 13.3914 -180 0 0 2.96 482.74
									 L1.25 482.06 L0 485.2 L1.71 485.88 A13.3879 13.3879 -180 0 0 1.8 492.98 L0.11 493.71 L1.44 496.81
									 L3.14 496.08 A13.3918 13.3918 -180 0 0 8.23 501.04 L7.54 502.75 L10.68 504 L11.36 502.29 A13.3884
									 13.3884 -180 0 0 18.46 502.19 L19.19 503.89 L22.29 502.55 L21.56 500.86 A13.3909 13.3909 -180
									 0 0 26.51 495.77 L28.23 496.45 L29.48 493.32 L27.76 492.63 ZM23.66 492.82 A9.61049 9.61049 0
									 1 1 23.56 485.46 A9.56691 9.56691 0 0 1 23.66 492.82 L23.66 492.82 Z" class="st64"/>
					</g>
				</g>
				<g id="shape1440-483">
					<title>Sheet.1440</title>
					<desc>Response Rapidly and automate protection</desc>
					<rect x="0" y="468.36" width="110.25" height="35.64" class="st18"/>
					<text x="29.14" y="477.78" class="st52">Response <tspan x="6.65" dy="1.26em" class="st53">Rapidly and automate </tspan><tspan
								x="32.23" dy="1.2em" class="st53">protection</tspan></text>				</g>
			</g>
		</g>
		<g id="shape1502-488" transform="translate(74.5714,-414.643)">
			<title>Number.1645</title>
			<desc>1</desc>
			<ellipse cx="12.6" cy="491.4" rx="12.6" ry="12.6" class="st66"/>
			<text x="9.24" y="495.19" class="st67">1</text>		</g>
		<g id="shape1503-491" transform="translate(308.571,-414.643)">
			<title>Number.1503</title>
			<desc>2</desc>
			<ellipse cx="12.6" cy="491.4" rx="12.6" ry="12.6" class="st66"/>
			<text x="9.24" y="495.19" class="st67">2</text>		</g>
		<g id="shape1504-494" transform="translate(488.571,-414.643)">
			<title>Number.1504</title>
			<desc>3</desc>
			<ellipse cx="12.6" cy="491.4" rx="12.6" ry="12.6" class="st66"/>
			<text x="9.24" y="495.19" class="st67">3</text>		</g>
		<g id="shape1505-497" transform="translate(683.357,-414.643)">
			<title>Number.1505</title>
			<desc>4</desc>
			<ellipse cx="12.6" cy="491.4" rx="12.6" ry="12.6" class="st66"/>
			<text x="9.24" y="495.19" class="st67">4</text>		</g>
		<g id="group1508-500" transform="translate(54.0489,-65.7913)">
			<title>Sheet.1508</title>
			<g id="shape1509-501">
				<title>Sheet.1509</title>
				<path d="M2.21 504 L33.11 504 C34.33 504 35.31 503.01 35.32 501.79 L35.32 477.96 C35.31 476.74 34.33 475.75 33.11
							 475.75 L2.21 475.75 C0.99 475.75 0 476.74 0 477.96 L0 501.79 C0 503.01 0.99 504 2.21 504 ZM0.88 501.79
							 L0.88 487.23 L6.62 487.23 L6.62 493.41 L6.18 493.41 C5.2 493.41 4.41 494.2 4.41 495.17 C4.41 496.15
							 5.2 496.94 6.18 496.94 L6.62 496.94 L6.62 497.82 L6.18 497.82 C5.2 497.82 4.41 498.61 4.41 499.59 C4.41
							 500.56 5.2 501.35 6.18 501.35 L6.62 501.35 L6.62 503.12 L2.21 503.12 C1.48 503.12 0.88 502.52 0.88 501.79
							 ZM7.95 479.28 C8.43 479.28 8.83 479.67 8.83 480.16 C8.83 480.65 8.43 481.05 7.95 481.05 L6.18 481.05
							 C5.69 481.05 5.3 480.65 5.3 480.16 C5.3 479.67 5.69 479.28 6.18 479.28 L7.95 479.28 ZM7.95 481.93 C8.92
							 481.93 9.71 481.14 9.71 480.16 C9.71 479.19 8.92 478.4 7.95 478.4 L7.5 478.4 L7.5 476.63 L13.68 476.63
							 L13.68 481.05 L13.24 481.05 C12.27 481.05 11.48 481.84 11.48 482.81 C11.48 483.79 12.27 484.58 13.24
							 484.58 L13.68 484.58 L13.68 486.34 L7.5 486.34 L7.5 481.93 L7.95 481.93 ZM27.37 483.69 C26.88 483.69
							 26.49 483.3 26.49 482.81 C26.49 482.32 26.88 481.93 27.37 481.93 L29.14 481.93 C29.62 481.93 30.02 482.32
							 30.02 482.81 C30.02 483.3 29.62 483.69 29.14 483.69 L27.37 483.69 ZM27.37 481.05 C26.39 481.05 25.6
							 481.84 25.6 482.81 C25.6 483.79 26.39 484.58 27.37 484.58 L27.81 484.58 L27.81 486.34 L21.63 486.34
							 L21.63 481.93 L22.07 481.93 C23.05 481.93 23.84 481.14 23.84 480.16 C23.84 479.19 23.05 478.4 22.07
							 478.4 L21.63 478.4 L21.63 476.63 L27.81 476.63 L27.81 481.05 L27.37 481.05 ZM27.37 491.64 C26.88 491.64
							 26.49 491.24 26.49 490.76 C26.49 490.27 26.88 489.87 27.37 489.87 L29.14 489.87 C29.62 489.87 30.02
							 490.27 30.02 490.76 C30.02 491.24 29.62 491.64 29.14 491.64 L27.37 491.64 ZM27.37 488.99 C26.39 488.99
							 25.6 489.78 25.6 490.76 C25.6 491.73 26.39 492.52 27.37 492.52 L27.81 492.52 L27.81 497.82 L27.37 497.82
							 C26.39 497.82 25.6 498.61 25.6 499.59 C25.6 500.56 26.39 501.35 27.37 501.35 L27.81 501.35 L27.81 503.12
							 L21.63 503.12 L21.63 501.35 L22.07 501.35 C23.05 501.35 23.84 500.56 23.84 499.59 C23.84 498.61 23.05
							 497.82 22.07 497.82 L21.63 497.82 L21.63 496.94 L22.07 496.94 C23.05 496.94 23.84 496.15 23.84 495.17
							 C23.84 494.2 23.05 493.41 22.07 493.41 L21.63 493.41 L21.63 487.23 L27.81 487.23 L27.81 488.99 L27.37
							 488.99 ZM27.37 500.47 C26.88 500.47 26.49 500.07 26.49 499.59 C26.49 499.1 26.88 498.7 27.37 498.7 L29.14
							 498.7 C29.62 498.7 30.02 499.1 30.02 499.59 C30.02 500.07 29.62 500.47 29.14 500.47 L27.37 500.47 ZM15.01
							 494.29 C15.5 494.29 15.89 494.68 15.89 495.17 C15.89 495.66 15.5 496.05 15.01 496.05 L13.24 496.05 C12.76
							 496.05 12.36 495.66 12.36 495.17 C12.36 494.68 12.76 494.29 13.24 494.29 L15.01 494.29 ZM15.01 496.94
							 C15.98 496.94 16.77 496.15 16.77 495.17 C16.77 494.2 15.98 493.41 15.01 493.41 L14.57 493.41 L14.57
							 492.52 L15.01 492.52 C15.98 492.52 16.77 491.73 16.77 490.76 C16.77 489.78 15.98 488.99 15.01 488.99
							 L14.57 488.99 L14.57 487.23 L20.75 487.23 L20.75 493.41 L20.31 493.41 C19.33 493.41 18.54 494.2 18.54
							 495.17 C18.54 496.15 19.33 496.94 20.31 496.94 L20.75 496.94 L20.75 497.82 L20.31 497.82 C19.33 497.82
							 18.54 498.61 18.54 499.59 C18.54 500.56 19.33 501.35 20.31 501.35 L20.75 501.35 L20.75 503.12 L14.57
							 503.12 L14.57 496.94 L15.01 496.94 ZM15.01 489.87 C15.5 489.87 15.89 490.27 15.89 490.76 C15.89 491.24
							 15.5 491.64 15.01 491.64 L13.24 491.64 C12.76 491.64 12.36 491.24 12.36 490.76 C12.36 490.27 12.76 489.87
							 13.24 489.87 L15.01 489.87 ZM20.31 496.05 C19.82 496.05 19.42 495.66 19.42 495.17 C19.42 494.68 19.82
							 494.29 20.31 494.29 L22.07 494.29 C22.56 494.29 22.95 494.68 22.95 495.17 C22.95 495.66 22.56 496.05
							 22.07 496.05 L20.31 496.05 ZM20.31 500.47 C19.82 500.47 19.42 500.07 19.42 499.59 C19.42 499.1 19.82
							 498.7 20.31 498.7 L22.07 498.7 C22.56 498.7 22.95 499.1 22.95 499.59 C22.95 500.07 22.56 500.47 22.07
							 500.47 L20.31 500.47 ZM22.07 479.28 C22.56 479.28 22.95 479.67 22.95 480.16 C22.95 480.65 22.56 481.05
							 22.07 481.05 L20.31 481.05 C19.82 481.05 19.42 480.65 19.42 480.16 C19.42 479.67 19.82 479.28 20.31
							 479.28 L22.07 479.28 ZM20.75 478.4 L20.31 478.4 C19.33 478.4 18.54 479.19 18.54 480.16 C18.54 481.14
							 19.33 481.93 20.31 481.93 L20.75 481.93 L20.75 486.34 L14.57 486.34 L14.57 484.58 L15.01 484.58 C15.98
							 484.58 16.77 483.79 16.77 482.81 C16.77 481.84 15.98 481.05 15.01 481.05 L14.57 481.05 L14.57 476.63
							 L20.75 476.63 L20.75 478.4 ZM15.01 481.93 C15.5 481.93 15.89 482.32 15.89 482.81 C15.89 483.3 15.5 483.69
							 15.01 483.69 L13.24 483.69 C12.76 483.69 12.36 483.3 12.36 482.81 C12.36 482.32 12.76 481.93 13.24 481.93
							 L15.01 481.93 ZM13.68 487.23 L13.68 488.99 L13.24 488.99 C12.27 488.99 11.48 489.78 11.48 490.76 C11.48
							 491.73 12.27 492.52 13.24 492.52 L13.68 492.52 L13.68 493.41 L13.24 493.41 C12.27 493.41 11.48 494.2
							 11.48 495.17 C11.48 496.15 12.27 496.94 13.24 496.94 L13.68 496.94 L13.68 503.12 L7.5 503.12 L7.5 501.35
							 L7.95 501.35 C8.92 501.35 9.71 500.56 9.71 499.59 C9.71 498.61 8.92 497.82 7.95 497.82 L7.5 497.82 L7.5
							 496.94 L7.95 496.94 C8.92 496.94 9.71 496.15 9.71 495.17 C9.71 494.2 8.92 493.41 7.95 493.41 L7.5 493.41
							 L7.5 487.23 L13.68 487.23 ZM7.95 498.7 C8.43 498.7 8.83 499.1 8.83 499.59 C8.83 500.07 8.43 500.47 7.95
							 500.47 L6.18 500.47 C5.69 500.47 5.3 500.07 5.3 499.59 C5.3 499.1 5.69 498.7 6.18 498.7 L7.95 498.7
							 ZM7.95 494.29 C8.43 494.29 8.83 494.68 8.83 495.17 C8.83 495.66 8.43 496.05 7.95 496.05 L6.18 496.05
							 C5.69 496.05 5.3 495.66 5.3 495.17 C5.3 494.68 5.69 494.29 6.18 494.29 L7.95 494.29 ZM33.11 503.12 L28.69
							 503.12 L28.69 501.35 L29.14 501.35 C30.11 501.35 30.9 500.56 30.9 499.59 C30.9 498.61 30.11 497.82 29.14
							 497.82 L28.69 497.82 L28.69 492.52 L29.14 492.52 C30.11 492.52 30.9 491.73 30.9 490.76 C30.9 489.78
							 30.11 488.99 29.14 488.99 L28.69 488.99 L28.69 487.23 L34.43 487.23 L34.43 501.79 C34.43 502.52 33.84
							 503.12 33.11 503.12 ZM34.43 477.96 L34.43 486.34 L28.69 486.34 L28.69 484.58 L29.14 484.58 C30.11 484.58
							 30.9 483.79 30.9 482.81 C30.9 481.84 30.11 481.05 29.14 481.05 L28.69 481.05 L28.69 476.63 L33.11 476.63
							 C33.84 476.63 34.43 477.22 34.43 477.96 ZM2.21 476.63 L6.62 476.63 L6.62 478.4 L6.18 478.4 C5.2 478.4
							 4.41 479.19 4.41 480.16 C4.41 481.14 5.2 481.93 6.18 481.93 L6.62 481.93 L6.62 486.34 L0.88 486.34 L0.88
							 477.96 C0.88 477.22 1.48 476.63 2.21 476.63 Z" class="st64"/>
			</g>
		</g>
		<g id="group1510-503" transform="translate(54,-109.565)">
			<title>Sheet.1510</title>
			<g id="shape1511-504">
				<title>Sheet.1511</title>
				<path d="M33.23 493.55 L33.23 490.45 C33.23 488.35 29.86 486.95 25.79 486.38 L25.79 483.89 C25.79 483.19 25.4 482.23
							 23.61 481.31 L23.61 478.21 C23.61 475.36 17.53 473.83 11.8 473.83 C6.08 473.83 0 475.36 0 478.21 L0
							 481.7 C0 482.75 0.83 483.63 2.19 484.33 L2.19 487.39 C2.19 487.39 2.19 487.39 2.19 487.43 C0.39 488.35
							 0 489.35 0 490.01 L0 493.51 C0 496.35 6.08 497.88 11.8 497.88 L11.8 499.63 C11.8 502.47 17.88 504 23.61
							 504 C29.34 504 35.41 502.47 35.41 499.63 L35.41 496.13 C35.41 495.47 35.02 494.47 33.23 493.55 ZM34.54
							 496.17 C34.54 497.84 30.04 499.67 23.61 499.67 C18.49 499.67 14.6 498.49 13.2 497.18 C13.2 497.18 13.2
							 497.18 13.2 497.18 C15.87 498.01 18.62 498.4 21.38 498.36 C26.71 498.36 32.4 497 33.1 494.56 C34.06
							 495.04 34.54 495.61 34.54 496.17 ZM27.11 500.33 L27.11 502.95 C26.54 502.99 25.97 503.08 25.36 503.08
							 L25.36 500.46 C25.97 500.46 26.54 500.41 27.11 500.33 ZM27.98 500.24 C28.59 500.15 29.16 500.07 29.73
							 499.93 L29.73 502.51 C29.2 502.64 28.59 502.73 27.98 502.82 L27.98 500.24 ZM30.6 499.72 C31.22 499.58
							 31.78 499.37 32.35 499.15 L32.35 501.68 C31.78 501.95 31.22 502.12 30.6 502.29 L30.6 499.72 ZM16.61
							 502.29 C16 502.12 15.43 501.95 14.86 501.68 L14.86 499.15 C15.43 499.37 16 499.54 16.61 499.72 L16.61
							 502.29 ZM17.49 499.93 C18.06 500.07 18.62 500.15 19.24 500.24 L19.24 502.86 C18.62 502.78 18.01 502.64
							 17.49 502.56 L17.49 499.93 ZM20.11 500.33 C20.68 500.37 21.29 500.46 21.86 500.46 L21.86 503.08 C21.25
							 503.04 20.68 502.99 20.11 502.95 L20.11 500.33 ZM9.62 490.49 L9.62 490.62 C9.01 490.53 8.39 490.4 7.87
							 490.32 L7.87 487.74 C8.44 487.87 9.01 487.95 9.62 488.04 L9.62 490.49 ZM10.49 493.99 L10.49 492.24 C10.89
							 492.59 11.32 492.9 11.8 493.11 L11.8 495.61 C10.97 495.04 10.49 494.51 10.49 493.99 ZM32.35 493.99 C32.35
							 494.51 31.87 495.08 31.04 495.56 L31.04 493.07 C31.52 492.85 31.96 492.55 32.35 492.2 L32.35 493.99
							 ZM30.17 496 C29.6 496.26 29.03 496.44 28.42 496.61 L28.42 494.03 C29.03 493.9 29.6 493.68 30.17 493.46
							 L30.17 496 ZM27.54 496.83 C27.02 496.96 26.41 497.05 25.79 497.14 L25.79 494.51 C26.41 494.43 26.98
							 494.34 27.54 494.21 L27.54 496.83 ZM24.92 497.27 C24.35 497.31 23.78 497.4 23.17 497.4 L23.17 494.78
							 C23.74 494.73 24.35 494.69 24.92 494.64 L24.92 497.27 ZM22.3 497.44 C21.99 497.44 21.73 497.44 21.42
							 497.44 C21.12 497.44 20.85 497.44 20.55 497.44 L20.55 494.82 C20.85 494.82 21.12 494.82 21.42 494.82
							 C21.73 494.82 21.99 494.82 22.3 494.82 L22.3 497.44 ZM19.67 497.44 C19.06 497.4 18.49 497.35 17.93 497.31
							 L17.93 494.69 C18.49 494.73 19.11 494.82 19.67 494.82 L19.67 497.44 ZM17.05 497.18 C16.44 497.09 15.83
							 496.96 15.3 496.87 L15.3 494.29 C15.87 494.43 16.44 494.51 17.05 494.6 L17.05 497.18 ZM14.43 496.61
							 C13.82 496.44 13.25 496.26 12.68 496 L12.68 493.46 C13.25 493.68 13.82 493.86 14.43 494.03 L14.43 496.61
							 ZM32.35 490.49 C32.35 492.15 27.85 493.99 21.42 493.99 C15 493.99 10.49 492.15 10.49 490.49 C10.49 488.83
							 15 486.99 21.42 486.99 C27.85 486.99 32.35 488.83 32.35 490.49 ZM10.49 488.74 L10.49 488.09 C10.76 488.13
							 11.02 488.13 11.28 488.17 C11.02 488.35 10.76 488.52 10.49 488.74 ZM24.18 486.21 C24.44 486.03 24.7
							 485.86 24.96 485.64 L24.96 486.29 C24.66 486.25 24.44 486.25 24.18 486.21 ZM23.52 482.27 C24.44 482.8
							 24.92 483.36 24.92 483.89 C24.92 484.63 23.96 485.46 22.34 486.07 C22.03 486.07 21.73 486.07 21.42 486.07
							 C18.36 486.07 15.17 486.51 12.9 487.39 C8.31 487.26 4.9 486.16 3.63 484.94 C3.63 484.94 3.63 484.94
							 3.63 484.94 C6.3 485.77 9.05 486.16 11.8 486.12 C17.14 486.12 22.82 484.76 23.52 482.27 ZM7 487.47 L7
							 490.05 C6.38 489.88 5.81 489.7 5.25 489.44 L5.25 486.91 C5.81 487.12 6.43 487.34 7 487.47 ZM4.37 486.51
							 L4.37 489 C3.54 488.48 3.06 487.95 3.06 487.43 L3.06 485.68 C3.45 485.99 3.89 486.29 4.37 486.51 ZM3.06
							 483.76 L3.06 481.22 C3.63 481.44 4.2 481.62 4.81 481.79 L4.81 484.37 C4.24 484.19 3.63 484.02 3.06 483.76
							 ZM5.68 484.59 L5.68 482.01 C6.25 482.14 6.82 482.23 7.43 482.31 L7.43 484.94 C6.82 484.85 6.25 484.72
							 5.68 484.59 ZM8.31 485.03 L8.31 482.4 C8.88 482.45 9.49 482.53 10.06 482.53 L10.06 485.16 C9.44 485.16
							 8.88 485.11 8.31 485.03 ZM10.93 485.2 L10.93 482.58 C11.24 482.58 11.5 482.58 11.8 482.58 C12.11 482.58
							 12.37 482.58 12.68 482.58 L12.68 485.2 C12.37 485.2 12.11 485.2 11.8 485.2 C11.5 485.2 11.24 485.24
							 10.93 485.2 ZM13.55 485.2 L13.55 482.58 C14.12 482.53 14.73 482.49 15.3 482.45 L15.3 485.07 C14.73 485.11
							 14.17 485.16 13.55 485.2 ZM16.18 484.94 L16.18 482.31 C16.79 482.23 17.36 482.14 17.93 482.01 L17.93
							 484.59 C17.4 484.72 16.79 484.85 16.18 484.94 ZM18.8 484.37 L18.8 481.79 C19.41 481.66 19.98 481.44
							 20.55 481.22 L20.55 483.76 C19.98 484.02 19.41 484.19 18.8 484.37 ZM21.42 483.32 L21.42 480.83 C21.9
							 480.61 22.34 480.3 22.73 479.95 L22.73 481.7 C22.73 482.27 22.3 482.8 21.42 483.32 ZM2.19 483.32 C1.36
							 482.8 0.87 482.27 0.87 481.75 L0.87 480 C1.27 480.35 1.71 480.65 2.19 480.87 L2.19 483.32 ZM0.87 478.25
							 C0.87 476.59 5.38 474.75 11.8 474.75 C18.23 474.75 22.73 476.59 22.73 478.25 C22.73 479.91 18.23 481.75
							 11.8 481.75 C5.38 481.75 0.87 479.87 0.87 478.25 ZM2.4 488.3 C3.19 489.92 6.16 490.97 9.62 491.45 L9.62
							 493.42 C4.37 493.07 0.87 491.45 0.87 490.01 C0.87 489.44 1.44 488.87 2.4 488.3 ZM2.19 495.12 C1.36 494.6
							 0.87 494.08 0.87 493.55 L0.87 491.8 C1.27 492.15 1.71 492.46 2.19 492.68 L2.19 495.12 ZM4.81 496.17
							 C4.2 496 3.63 495.82 3.06 495.56 L3.06 493.03 C3.63 493.24 4.2 493.42 4.81 493.59 L4.81 496.17 ZM7.43
							 496.74 C6.82 496.66 6.21 496.52 5.68 496.44 L5.68 493.86 C6.25 493.99 6.82 494.08 7.43 494.16 L7.43
							 496.74 ZM8.31 494.21 C8.74 494.25 9.18 494.29 9.66 494.34 C9.71 494.64 9.88 494.95 10.06 495.26 L10.06
							 497 C9.44 496.96 8.88 496.92 8.31 496.87 L8.31 494.21 ZM10.93 496.04 C11.19 496.22 11.5 496.39 11.8
							 496.57 L11.8 497 C11.5 497 11.24 497 10.93 497 L10.93 496.04 ZM12.68 499.67 L12.68 497.92 C13.07 498.27
							 13.51 498.58 13.99 498.8 L13.99 501.29 C13.16 500.72 12.68 500.2 12.68 499.67 ZM22.73 500.5 C23.04 500.5
							 23.3 500.5 23.61 500.5 C23.91 500.5 24.18 500.5 24.48 500.5 L24.48 503.13 C24.18 503.13 23.91 503.13
							 23.61 503.13 C23.3 503.13 23.04 503.13 22.73 503.13 L22.73 500.5 ZM33.23 498.75 C33.71 498.54 34.15
							 498.23 34.54 497.88 L34.54 499.63 C34.54 500.15 34.06 500.72 33.23 501.2 L33.23 498.75 Z" class="st64"/>
			</g>
		</g>
		<g id="shape1512-506" transform="translate(136.174,-460.174)">
			<title>Sheet.1512</title>
			<desc>Azure Lighthouse for Sentinel  high level architecture</desc>
			<rect x="0" y="468.36" width="554.408" height="35.64" class="st18"/>
			<text x="47.61" y="491.58" class="st68">Azure Lighthouse for Sentinel  high level architecture</text>		</g>
		<g id="group1513-509" transform="translate(12.5217,-10.1739)">
			<title>logo.1443</title>
			<g id="group1514-510" transform="translate(0,-4.5)">
				<title>Azure.1002</title>
				<g id="group1515-511">
					<title>Sheet.1515</title>
					<g id="shape1516-512">
						<title>Sheet.1516</title>
						<path d="M11.96 468 L22.69 468 L11.57 502.79 A1.67987 1.77404 0 0 1 9.98 504 L1.59 504 A1.67905 1.77317 0
									 0 1 0 501.66 L10.37 469.21 A1.6774 1.77143 0 0 1 11.96 468 Z" class="st69"/>
					</g>
					<g id="shape1517-516" transform="translate(9.14148,0)">
						<title>Sheet.1517</title>
						<path d="M17.63 490.67 L0.73 490.67 a0.781965 0.8258 -180 0 0 -0.533644 1.42843 L11.79 503.52 A1.67987 1.77404
									 -180 0 0 12.93 504 L22.51 504 L17.63 490.67 Z" class="st70"/>
					</g>
					<g id="group1518-518" transform="translate(12.9538,0)">
						<title>Sheet.1518</title>
						<g id="shape1519-519" transform="translate(7.38139,0)">
							<title>Sheet.1519</title>
							<path d="M3.43 504 L11.31 504 L6.43 490.67 L0 490.67 L3.72 502.29 A1.69796 1.79314 0 0 1 3.43 504 Z"
									class="st71"/>
						</g>
						<g id="shape1520-521" transform="translate(9.29257E-14,-20.9906)">
							<title>Sheet.1520</title>
							<path d="M4.94 504 L9.73 488.99 L0 488.99 A1.70042 1.79575 0 0 1 0.33 489.59 L4.94 504 Z" class="st71"/>
						</g>
					</g>
					<g id="group1521-523" transform="translate(12.3462,0)">
						<title>Sheet.1521</title>
						<g id="shape1522-524" transform="translate(0,-20.0024)">
							<title>Sheet.1522</title>
							<path d="M0 488 L5.23 504 L5.95 501.72 L1.58 488 L0 488 Z" class="st72"/>
						</g>
						<g id="shape1523-526" transform="translate(7.32219,0)">
							<title>Sheet.1523</title>
							<path d="M2.59 504 L4.85 504 A2.31876 2.44874 -180 0 0 4.98 502.07 L1.33 490.67 L0 490.67 L3.79 502.5
										 A1.07469 1.13493 0 0 1 2.77 504 L2.59 504 Z" class="st72"/>
						</g>
					</g>
					<g id="shape1524-528" transform="translate(12.088,0)">
						<title>Sheet.1524</title>
						<path d="M13.54 469.21 A1.6774 1.77143 -180 0 0 11.95 468 L0 468 A1.70454 1.80009 0 0 1 1.61 469.22 L11.97
									 501.63 A1.70371 1.79922 0 0 1 10.35 504 L22.32 504 A1.67905 1.77317 -180 0 0 23.91 501.66 L13.54
									 469.21 Z" class="st73"/>
					</g>
				</g>
			</g>
			<g id="shape1525-532" transform="translate(28.6277,0)">
				<title>Sheet.1525</title>
				<desc>Microsoft Azure</desc>
				<rect x="0" y="459" width="72" height="45" class="st74"/>
				<text x="5.5" y="477.3" class="st75">Microsoft <tspan x="17.66" dy="1.2em" class="st20">Azure</tspan></text>			</g>
		</g>
	</g>
</svg>
