<?xml version="1.0" encoding="utf-8"?>
<!-- Generator: Adobe Illustrator 22.0.1, SVG Export Plug-In . SVG Version: 6.00 Build 0)  -->
<svg version="1.1" id="Layer_1" xmlns="http://www.w3.org/2000/svg" xmlns:xlink="http://www.w3.org/1999/xlink" x="0px" y="0px"
	 viewBox="0 0 253.7 122.1" style="enable-background:new 0 0 253.7 122.1;" xml:space="preserve">
<style type="text/css">
	.st0{fill:#FFFFFF;}
	.st1{fill:none;stroke:#000000;stroke-miterlimit:10;}
</style>
<g>
	<g>
		<rect x="1.2" y="78.7" class="st0" width="97.8" height="27"/>
		<path d="M98.5,79.2v26H1.7v-26H98.5 M99.5,78.2H0.7v28h98.8V78.2L99.5,78.2z"/>
	</g>
	<g>
		<path d="M38.1,93.7V93c0.1,0.1,0.2,0.1,0.3,0.2c0.1,0.1,0.3,0.1,0.4,0.2c0.1,0,0.3,0.1,0.4,0.1c0.1,0,0.3,0,0.4,0
			c0.4,0,0.7-0.1,0.9-0.2s0.3-0.4,0.3-0.6c0-0.2,0-0.3-0.1-0.4c-0.1-0.1-0.2-0.2-0.3-0.3c-0.1-0.1-0.3-0.2-0.4-0.3
			c-0.2-0.1-0.3-0.2-0.5-0.3c-0.2-0.1-0.4-0.2-0.5-0.3c-0.2-0.1-0.3-0.2-0.4-0.3c-0.1-0.1-0.2-0.3-0.3-0.4s-0.1-0.3-0.1-0.5
			c0-0.3,0.1-0.5,0.2-0.7c0.1-0.2,0.3-0.3,0.4-0.5c0.2-0.1,0.4-0.2,0.6-0.3c0.2-0.1,0.5-0.1,0.7-0.1c0.6,0,1,0.1,1.2,0.2v0.7
			C41,89,40.5,88.9,40,88.9c-0.1,0-0.3,0-0.4,0s-0.3,0.1-0.4,0.1c-0.1,0.1-0.2,0.2-0.3,0.3c-0.1,0.1-0.1,0.2-0.1,0.4
			c0,0.1,0,0.3,0.1,0.4c0.1,0.1,0.1,0.2,0.2,0.3c0.1,0.1,0.2,0.2,0.4,0.3c0.1,0.1,0.3,0.2,0.5,0.3c0.2,0.1,0.4,0.2,0.6,0.3
			c0.2,0.1,0.3,0.2,0.5,0.4c0.1,0.1,0.2,0.3,0.3,0.4c0.1,0.2,0.1,0.3,0.1,0.6c0,0.3-0.1,0.5-0.2,0.7c-0.1,0.2-0.3,0.3-0.4,0.5
			c-0.2,0.1-0.4,0.2-0.6,0.3c-0.2,0.1-0.5,0.1-0.8,0.1c-0.1,0-0.2,0-0.3,0c-0.1,0-0.3,0-0.4-0.1s-0.3-0.1-0.4-0.1
			S38.2,93.8,38.1,93.7z"/>
		<path d="M45.8,92.1h-2.8c0,0.4,0.1,0.8,0.4,1c0.2,0.2,0.5,0.4,0.9,0.4c0.5,0,0.9-0.1,1.2-0.4v0.6c-0.4,0.3-0.8,0.4-1.4,0.4
			c-0.6,0-1-0.2-1.3-0.5c-0.3-0.4-0.5-0.9-0.5-1.5c0-0.6,0.2-1.1,0.5-1.5c0.4-0.4,0.8-0.6,1.3-0.6c0.5,0,0.9,0.2,1.2,0.5
			s0.4,0.8,0.4,1.4V92.1z M45.1,91.6c0-0.4-0.1-0.7-0.3-0.9c-0.2-0.2-0.4-0.3-0.7-0.3c-0.3,0-0.6,0.1-0.8,0.3s-0.3,0.5-0.4,0.8H45.1
			z"/>
		<path d="M48.8,90.6c-0.1-0.1-0.3-0.1-0.5-0.1c-0.3,0-0.5,0.1-0.7,0.4c-0.2,0.3-0.3,0.6-0.3,1.1v2h-0.6v-4h0.6v0.8h0
			c0.1-0.3,0.2-0.5,0.4-0.7c0.2-0.2,0.4-0.2,0.6-0.2c0.2,0,0.3,0,0.4,0.1V90.6z"/>
		<path d="M52.7,90l-1.6,4h-0.6l-1.5-4h0.7l1,2.9c0.1,0.2,0.1,0.4,0.1,0.6h0c0-0.2,0.1-0.4,0.1-0.5L52,90H52.7z"/>
		<path d="M53.7,89c-0.1,0-0.2,0-0.3-0.1c-0.1-0.1-0.1-0.2-0.1-0.3c0-0.1,0-0.2,0.1-0.3c0.1-0.1,0.2-0.1,0.3-0.1
			c0.1,0,0.2,0,0.3,0.1c0.1,0.1,0.1,0.2,0.1,0.3c0,0.1,0,0.2-0.1,0.3C53.9,88.9,53.8,89,53.7,89z M54,94h-0.6v-4H54V94z"/>
		<path d="M58,93.8c-0.3,0.2-0.7,0.3-1.1,0.3c-0.6,0-1-0.2-1.4-0.6c-0.4-0.4-0.5-0.9-0.5-1.4c0-0.7,0.2-1.2,0.6-1.6s0.9-0.6,1.5-0.6
			c0.4,0,0.7,0.1,0.9,0.2v0.7c-0.3-0.2-0.6-0.3-1-0.3c-0.4,0-0.7,0.1-1,0.4s-0.4,0.7-0.4,1.2c0,0.5,0.1,0.8,0.4,1.1
			c0.2,0.3,0.6,0.4,1,0.4c0.3,0,0.7-0.1,1-0.3V93.8z"/>
		<path d="M62.2,92.1h-2.8c0,0.4,0.1,0.8,0.4,1c0.2,0.2,0.5,0.4,0.9,0.4c0.5,0,0.9-0.1,1.2-0.4v0.6c-0.4,0.3-0.8,0.4-1.4,0.4
			c-0.6,0-1-0.2-1.3-0.5s-0.5-0.9-0.5-1.5c0-0.6,0.2-1.1,0.5-1.5c0.4-0.4,0.8-0.6,1.3-0.6c0.5,0,0.9,0.2,1.2,0.5
			c0.3,0.3,0.4,0.8,0.4,1.4V92.1z M61.6,91.6c0-0.4-0.1-0.7-0.3-0.9c-0.2-0.2-0.4-0.3-0.7-0.3c-0.3,0-0.6,0.1-0.8,0.3
			s-0.3,0.5-0.4,0.8H61.6z"/>
	</g>
	<g>
		<line class="st1" x1="22.4" y1="78.5" x2="22.4" y2="64.5"/>
		<circle class="st1" cx="22.4" cy="61.8" r="2.7"/>
	</g>
	<g>
		<path d="M32.5,59.5l-1.6,4h-0.6l-1.5-4h0.7l1,2.9c0.1,0.2,0.1,0.4,0.1,0.6h0c0-0.2,0.1-0.4,0.1-0.5l1.1-2.9H32.5z"/>
		<path d="M35.4,63.5h-0.6v-4.8c0,0-0.1,0.1-0.2,0.2S34.3,59,34.2,59c-0.1,0.1-0.2,0.1-0.4,0.2c-0.1,0.1-0.3,0.1-0.4,0.1v-0.6
			c0.1,0,0.3-0.1,0.4-0.2c0.2-0.1,0.3-0.1,0.5-0.2s0.3-0.2,0.4-0.3s0.3-0.2,0.4-0.3h0.2V63.5z"/>
	</g>
	<g>
		<line class="st1" x1="77.8" y1="78.5" x2="77.8" y2="64.5"/>
		<circle class="st1" cx="77.8" cy="61.8" r="2.7"/>
	</g>
	<g>
		<path d="M87.3,60.2l-1.6,4H85l-1.5-4h0.7l1,2.9c0.1,0.2,0.1,0.4,0.1,0.6h0c0-0.2,0.1-0.4,0.1-0.5l1.1-2.9H87.3z"/>
		<path d="M90.3,60c0-0.2,0-0.3-0.1-0.4s-0.1-0.2-0.2-0.3c-0.1-0.1-0.2-0.1-0.3-0.2c-0.1,0-0.3-0.1-0.4-0.1c-0.1,0-0.2,0-0.4,0.1
			c-0.1,0-0.2,0.1-0.4,0.1c-0.1,0.1-0.2,0.1-0.3,0.2S88,59.6,88,59.7V59c0.2-0.2,0.4-0.3,0.6-0.4c0.2-0.1,0.5-0.1,0.8-0.1
			c0.2,0,0.4,0,0.6,0.1c0.2,0.1,0.4,0.2,0.5,0.3s0.3,0.3,0.3,0.5c0.1,0.2,0.1,0.4,0.1,0.6c0,0.2,0,0.4-0.1,0.6s-0.1,0.3-0.2,0.5
			c-0.1,0.2-0.2,0.3-0.4,0.5s-0.3,0.3-0.6,0.4c-0.3,0.2-0.5,0.3-0.7,0.5c-0.2,0.1-0.3,0.3-0.4,0.4s-0.2,0.2-0.2,0.3
			s-0.1,0.2-0.1,0.4h2.8v0.6h-3.5v-0.3c0-0.2,0-0.5,0.1-0.6c0.1-0.2,0.1-0.4,0.3-0.5c0.1-0.2,0.3-0.3,0.5-0.5s0.4-0.3,0.7-0.6
			c0.2-0.1,0.4-0.3,0.5-0.4c0.1-0.1,0.2-0.3,0.3-0.4c0.1-0.1,0.1-0.3,0.2-0.4C90.3,60.3,90.3,60.2,90.3,60z"/>
	</g>
	<g>
		<g>
			<rect x="1.2" y="0.5" class="st0" width="42.4" height="29"/>
			<path d="M43.1,1v28H1.7V1H43.1 M44.1,0H0.7v30h43.4V0L44.1,0z"/>
		</g>
		<g>
			<path d="M10.9,12.8l-1.6,4H8.6l-1.5-4h0.7l1,2.9C8.9,15.9,9,16.1,9,16.2h0c0-0.2,0.1-0.4,0.1-0.5l1.1-2.9H10.9z"/>
			<path d="M13.7,16.8h-0.6v-4.8c0,0-0.1,0.1-0.2,0.2s-0.2,0.1-0.3,0.2s-0.2,0.1-0.4,0.2s-0.3,0.1-0.4,0.1v-0.6
				c0.1,0,0.3-0.1,0.4-0.2c0.2-0.1,0.3-0.1,0.5-0.2c0.2-0.1,0.3-0.2,0.4-0.3c0.1-0.1,0.3-0.2,0.4-0.3h0.2V16.8z"/>
			<path d="M22,16.5c-0.4,0.2-0.9,0.3-1.5,0.3c-0.8,0-1.4-0.3-1.9-0.8c-0.5-0.5-0.7-1.2-0.7-2c0-0.9,0.3-1.6,0.8-2.2
				s1.2-0.8,2.1-0.8c0.5,0,1,0.1,1.3,0.2V12c-0.4-0.2-0.8-0.3-1.3-0.3c-0.6,0-1.2,0.2-1.6,0.6s-0.6,1-0.6,1.7c0,0.7,0.2,1.2,0.6,1.6
				c0.4,0.4,0.9,0.6,1.5,0.6c0.6,0,1.1-0.1,1.5-0.4V16.5z"/>
			<path d="M23.7,16.8H23v-5.9h0.6V16.8z"/>
			<path d="M25.3,11.8c-0.1,0-0.2,0-0.3-0.1c-0.1-0.1-0.1-0.2-0.1-0.3c0-0.1,0-0.2,0.1-0.3s0.2-0.1,0.3-0.1c0.1,0,0.2,0,0.3,0.1
				c0.1,0.1,0.1,0.2,0.1,0.3c0,0.1,0,0.2-0.1,0.3C25.5,11.7,25.4,11.8,25.3,11.8z M25.6,16.8H25v-4h0.6V16.8z"/>
			<path d="M30.1,14.9h-2.8c0,0.4,0.1,0.8,0.4,1c0.2,0.2,0.5,0.4,0.9,0.4c0.5,0,0.9-0.1,1.2-0.4v0.6c-0.4,0.3-0.8,0.4-1.4,0.4
				c-0.6,0-1-0.2-1.3-0.5c-0.3-0.4-0.5-0.9-0.5-1.5c0-0.6,0.2-1.1,0.5-1.5s0.8-0.6,1.3-0.6c0.5,0,0.9,0.2,1.2,0.5s0.4,0.8,0.4,1.4
				V14.9z M29.5,14.4c0-0.4-0.1-0.7-0.3-0.9s-0.4-0.3-0.7-0.3c-0.3,0-0.6,0.1-0.8,0.3c-0.2,0.2-0.3,0.5-0.4,0.8H29.5z"/>
			<path d="M34.4,16.8h-0.6v-2.3c0-0.9-0.3-1.3-0.9-1.3c-0.3,0-0.6,0.1-0.8,0.4c-0.2,0.2-0.3,0.5-0.3,0.9v2.3h-0.6v-4h0.6v0.7h0
				c0.3-0.5,0.7-0.8,1.3-0.8c0.4,0,0.8,0.1,1,0.4c0.2,0.3,0.3,0.7,0.3,1.2V16.8z"/>
			<path d="M37.5,16.7c-0.2,0.1-0.4,0.1-0.6,0.1c-0.7,0-1.1-0.4-1.1-1.2v-2.4h-0.7v-0.5h0.7v-1l0.6-0.2v1.2h1v0.5h-1v2.3
				c0,0.3,0,0.5,0.1,0.6s0.2,0.2,0.5,0.2c0.2,0,0.3,0,0.4-0.1V16.7z"/>
		</g>
		<g>
			<g>
				<line class="st1" x1="22.4" y1="29.8" x2="22.4" y2="49.3"/>
				<g>
					<polygon points="17.4,47.9 22.4,56.5 27.4,47.9 					"/>
				</g>
			</g>
		</g>
	</g>
	<g>
		<g>
			<rect x="56.6" y="0.5" class="st0" width="42.4" height="29"/>
			<path d="M98.5,1v28H57.1V1H98.5 M99.5,0H56.1v30h43.4V0L99.5,0z"/>
		</g>
		<g>
			<path d="M66.3,12.8l-1.6,4h-0.6l-1.5-4h0.7l1,2.9c0.1,0.2,0.1,0.4,0.1,0.6h0c0-0.2,0.1-0.4,0.1-0.5l1.1-2.9H66.3z"/>
			<path d="M69.3,12.6c0-0.2,0-0.3-0.1-0.4c-0.1-0.1-0.1-0.2-0.2-0.3c-0.1-0.1-0.2-0.1-0.3-0.2s-0.3-0.1-0.4-0.1
				c-0.1,0-0.2,0-0.4,0.1c-0.1,0-0.2,0.1-0.4,0.1c-0.1,0.1-0.2,0.1-0.3,0.2c-0.1,0.1-0.2,0.2-0.3,0.3v-0.7c0.2-0.2,0.4-0.3,0.6-0.4
				c0.2-0.1,0.5-0.1,0.8-0.1c0.2,0,0.4,0,0.6,0.1c0.2,0.1,0.4,0.2,0.5,0.3c0.1,0.1,0.3,0.3,0.3,0.5c0.1,0.2,0.1,0.4,0.1,0.6
				c0,0.2,0,0.4-0.1,0.6s-0.1,0.3-0.2,0.5s-0.2,0.3-0.4,0.5c-0.2,0.1-0.3,0.3-0.6,0.4c-0.3,0.2-0.5,0.3-0.7,0.5
				c-0.2,0.1-0.3,0.3-0.4,0.4c-0.1,0.1-0.2,0.2-0.2,0.3c0,0.1-0.1,0.2-0.1,0.4h2.8v0.6h-3.5v-0.3c0-0.2,0-0.5,0.1-0.6
				c0.1-0.2,0.1-0.4,0.3-0.5c0.1-0.2,0.3-0.3,0.5-0.5c0.2-0.2,0.4-0.3,0.7-0.6c0.2-0.1,0.4-0.3,0.5-0.4c0.1-0.1,0.2-0.3,0.3-0.4
				c0.1-0.1,0.1-0.3,0.2-0.4C69.3,12.9,69.3,12.8,69.3,12.6z"/>
			<path d="M77.4,16.5c-0.4,0.2-0.9,0.3-1.5,0.3c-0.8,0-1.4-0.3-1.9-0.8c-0.5-0.5-0.7-1.2-0.7-2c0-0.9,0.3-1.6,0.8-2.2
				s1.2-0.8,2.1-0.8c0.5,0,1,0.1,1.3,0.2V12c-0.4-0.2-0.8-0.3-1.3-0.3c-0.6,0-1.2,0.2-1.6,0.6s-0.6,1-0.6,1.7c0,0.7,0.2,1.2,0.6,1.6
				c0.4,0.4,0.9,0.6,1.5,0.6c0.6,0,1.1-0.1,1.5-0.4V16.5z"/>
			<path d="M79.1,16.8h-0.6v-5.9h0.6V16.8z"/>
			<path d="M80.7,11.8c-0.1,0-0.2,0-0.3-0.1c-0.1-0.1-0.1-0.2-0.1-0.3c0-0.1,0-0.2,0.1-0.3s0.2-0.1,0.3-0.1c0.1,0,0.2,0,0.3,0.1
				c0.1,0.1,0.1,0.2,0.1,0.3c0,0.1,0,0.2-0.1,0.3C80.9,11.7,80.8,11.8,80.7,11.8z M81,16.8h-0.6v-4H81V16.8z"/>
			<path d="M85.5,14.9h-2.8c0,0.4,0.1,0.8,0.4,1c0.2,0.2,0.5,0.4,0.9,0.4c0.5,0,0.9-0.1,1.2-0.4v0.6c-0.4,0.3-0.8,0.4-1.4,0.4
				c-0.6,0-1-0.2-1.3-0.5C82.2,16,82,15.5,82,14.8c0-0.6,0.2-1.1,0.5-1.5c0.4-0.4,0.8-0.6,1.3-0.6c0.5,0,0.9,0.2,1.2,0.5
				c0.3,0.3,0.4,0.8,0.4,1.4V14.9z M84.9,14.4c0-0.4-0.1-0.7-0.3-0.9c-0.2-0.2-0.4-0.3-0.7-0.3c-0.3,0-0.6,0.1-0.8,0.3
				c-0.2,0.2-0.3,0.5-0.4,0.8H84.9z"/>
			<path d="M89.8,16.8h-0.6v-2.3c0-0.9-0.3-1.3-0.9-1.3c-0.3,0-0.6,0.1-0.8,0.4c-0.2,0.2-0.3,0.5-0.3,0.9v2.3h-0.6v-4h0.6v0.7h0
				c0.3-0.5,0.7-0.8,1.3-0.8c0.4,0,0.8,0.1,1,0.4c0.2,0.3,0.3,0.7,0.3,1.2V16.8z"/>
			<path d="M92.9,16.7c-0.2,0.1-0.4,0.1-0.6,0.1c-0.7,0-1.1-0.4-1.1-1.2v-2.4h-0.7v-0.5h0.7v-1l0.6-0.2v1.2h1v0.5h-1v2.3
				c0,0.3,0,0.5,0.1,0.6s0.2,0.2,0.5,0.2c0.2,0,0.3,0,0.4-0.1V16.7z"/>
		</g>
		<g>
			<g>
				<line class="st1" x1="77.8" y1="29.8" x2="77.8" y2="49.3"/>
				<g>
					<polygon points="72.8,47.9 77.8,56.5 82.8,47.9 					"/>
				</g>
			</g>
		</g>
	</g>
</g>
<g>
	<g>
		<line class="st1" x1="176.6" y1="78.5" x2="176.6" y2="64.5"/>
		<circle class="st1" cx="176.6" cy="61.8" r="2.7"/>
	</g>
	<g>
		<path d="M186.7,59.5l-1.6,4h-0.6l-1.5-4h0.7l1,2.9c0.1,0.2,0.1,0.4,0.1,0.6h0c0-0.2,0.1-0.4,0.1-0.5l1.1-2.9H186.7z"/>
		<path d="M189.6,63.5H189v-4.8c0,0-0.1,0.1-0.2,0.2s-0.2,0.1-0.3,0.2c-0.1,0.1-0.2,0.1-0.4,0.2c-0.1,0.1-0.3,0.1-0.4,0.1v-0.6
			c0.1,0,0.3-0.1,0.4-0.2c0.2-0.1,0.3-0.1,0.5-0.2c0.2-0.1,0.3-0.2,0.4-0.3c0.1-0.1,0.3-0.2,0.4-0.3h0.2V63.5z"/>
	</g>
	<g>
		<line class="st1" x1="232" y1="78.5" x2="232" y2="64.5"/>
		<circle class="st1" cx="232" cy="61.8" r="2.7"/>
	</g>
	<g>
		<path d="M241.5,60.2l-1.6,4h-0.6l-1.5-4h0.7l1,2.9c0.1,0.2,0.1,0.4,0.1,0.6h0c0-0.2,0.1-0.4,0.1-0.5l1.1-2.9H241.5z"/>
		<path d="M244.5,60c0-0.2,0-0.3-0.1-0.4c-0.1-0.1-0.1-0.2-0.2-0.3c-0.1-0.1-0.2-0.1-0.3-0.2c-0.1,0-0.3-0.1-0.4-0.1
			c-0.1,0-0.2,0-0.4,0.1c-0.1,0-0.2,0.1-0.4,0.1c-0.1,0.1-0.2,0.1-0.3,0.2c-0.1,0.1-0.2,0.2-0.3,0.3V59c0.2-0.2,0.4-0.3,0.6-0.4
			c0.2-0.1,0.5-0.1,0.8-0.1c0.2,0,0.4,0,0.6,0.1c0.2,0.1,0.4,0.2,0.5,0.3c0.1,0.1,0.3,0.3,0.3,0.5c0.1,0.2,0.1,0.4,0.1,0.6
			c0,0.2,0,0.4-0.1,0.6s-0.1,0.3-0.2,0.5c-0.1,0.2-0.2,0.3-0.4,0.5s-0.3,0.3-0.6,0.4c-0.3,0.2-0.5,0.3-0.7,0.5
			c-0.2,0.1-0.3,0.3-0.4,0.4c-0.1,0.1-0.2,0.2-0.2,0.3s-0.1,0.2-0.1,0.4h2.8v0.6h-3.5v-0.3c0-0.2,0-0.5,0.1-0.6
			c0.1-0.2,0.1-0.4,0.3-0.5c0.1-0.2,0.3-0.3,0.5-0.5s0.4-0.3,0.7-0.6c0.2-0.1,0.4-0.3,0.5-0.4c0.1-0.1,0.2-0.3,0.3-0.4
			c0.1-0.1,0.1-0.3,0.2-0.4C244.5,60.3,244.5,60.2,244.5,60z"/>
	</g>
	<g>
		<rect x="155.4" y="0.5" class="st0" width="42.4" height="29"/>
		<path d="M197.3,1v28h-41.4V1H197.3 M198.3,0h-43.4v30h43.4V0L198.3,0z"/>
	</g>
	<g>
		<path d="M165.1,12.8l-1.6,4h-0.6l-1.5-4h0.7l1,2.9c0.1,0.2,0.1,0.4,0.1,0.6h0c0-0.2,0.1-0.4,0.1-0.5l1.1-2.9H165.1z"/>
		<path d="M168,16.8h-0.6v-4.8c0,0-0.1,0.1-0.2,0.2c-0.1,0.1-0.2,0.1-0.3,0.2s-0.2,0.1-0.4,0.2c-0.1,0.1-0.3,0.1-0.4,0.1v-0.6
			c0.1,0,0.3-0.1,0.4-0.2c0.2-0.1,0.3-0.1,0.5-0.2c0.2-0.1,0.3-0.2,0.4-0.3s0.3-0.2,0.4-0.3h0.2V16.8z"/>
		<path d="M176.2,16.5c-0.4,0.2-0.9,0.3-1.5,0.3c-0.8,0-1.4-0.3-1.9-0.8c-0.5-0.5-0.7-1.2-0.7-2c0-0.9,0.3-1.6,0.8-2.2
			s1.2-0.8,2.1-0.8c0.5,0,1,0.1,1.3,0.2V12c-0.4-0.2-0.8-0.3-1.3-0.3c-0.6,0-1.2,0.2-1.6,0.6s-0.6,1-0.6,1.7c0,0.7,0.2,1.2,0.6,1.6
			c0.4,0.4,0.9,0.6,1.5,0.6c0.6,0,1.1-0.1,1.5-0.4V16.5z"/>
		<path d="M177.9,16.8h-0.6v-5.9h0.6V16.8z"/>
		<path d="M179.5,11.8c-0.1,0-0.2,0-0.3-0.1c-0.1-0.1-0.1-0.2-0.1-0.3c0-0.1,0-0.2,0.1-0.3s0.2-0.1,0.3-0.1c0.1,0,0.2,0,0.3,0.1
			s0.1,0.2,0.1,0.3c0,0.1,0,0.2-0.1,0.3S179.6,11.8,179.5,11.8z M179.8,16.8h-0.6v-4h0.6V16.8z"/>
		<path d="M184.3,14.9h-2.8c0,0.4,0.1,0.8,0.4,1c0.2,0.2,0.5,0.4,0.9,0.4c0.5,0,0.9-0.1,1.2-0.4v0.6c-0.4,0.3-0.8,0.4-1.4,0.4
			c-0.6,0-1-0.2-1.3-0.5c-0.3-0.4-0.5-0.9-0.5-1.5c0-0.6,0.2-1.1,0.5-1.5c0.4-0.4,0.8-0.6,1.3-0.6c0.5,0,0.9,0.2,1.2,0.5
			c0.3,0.3,0.4,0.8,0.4,1.4V14.9z M183.7,14.4c0-0.4-0.1-0.7-0.3-0.9c-0.2-0.2-0.4-0.3-0.7-0.3c-0.3,0-0.6,0.1-0.8,0.3
			c-0.2,0.2-0.3,0.5-0.4,0.8H183.7z"/>
		<path d="M188.6,16.8H188v-2.3c0-0.9-0.3-1.3-0.9-1.3c-0.3,0-0.6,0.1-0.8,0.4c-0.2,0.2-0.3,0.5-0.3,0.9v2.3h-0.6v-4h0.6v0.7h0
			c0.3-0.5,0.7-0.8,1.3-0.8c0.4,0,0.8,0.1,1,0.4c0.2,0.3,0.3,0.7,0.3,1.2V16.8z"/>
		<path d="M191.7,16.7c-0.2,0.1-0.4,0.1-0.6,0.1c-0.7,0-1.1-0.4-1.1-1.2v-2.4h-0.7v-0.5h0.7v-1l0.6-0.2v1.2h1v0.5h-1v2.3
			c0,0.3,0,0.5,0.1,0.6c0.1,0.1,0.2,0.2,0.5,0.2c0.2,0,0.3,0,0.4-0.1V16.7z"/>
	</g>
	<g>
		<g>
			<line class="st1" x1="176.6" y1="29.8" x2="176.6" y2="49.3"/>
			<g>
				<polygon points="171.6,47.9 176.6,56.5 181.6,47.9 				"/>
			</g>
		</g>
	</g>
	<g>
		<g>
			<rect x="210.8" y="0.5" class="st0" width="42.4" height="29"/>
			<path d="M252.7,1v28h-41.4V1H252.7 M253.7,0h-43.4v30h43.4V0L253.7,0z"/>
		</g>
		<g>
			<path d="M220.5,12.8l-1.6,4h-0.6l-1.5-4h0.7l1,2.9c0.1,0.2,0.1,0.4,0.1,0.6h0c0-0.2,0.1-0.4,0.1-0.5l1.1-2.9H220.5z"/>
			<path d="M223.6,12.6c0-0.2,0-0.3-0.1-0.4c-0.1-0.1-0.1-0.2-0.2-0.3c-0.1-0.1-0.2-0.1-0.3-0.2c-0.1,0-0.3-0.1-0.4-0.1
				c-0.1,0-0.2,0-0.4,0.1c-0.1,0-0.2,0.1-0.4,0.1c-0.1,0.1-0.2,0.1-0.3,0.2c-0.1,0.1-0.2,0.2-0.3,0.3v-0.7c0.2-0.2,0.4-0.3,0.6-0.4
				c0.2-0.1,0.5-0.1,0.8-0.1c0.2,0,0.4,0,0.6,0.1c0.2,0.1,0.4,0.2,0.5,0.3c0.1,0.1,0.3,0.3,0.3,0.5s0.1,0.4,0.1,0.6
				c0,0.2,0,0.4-0.1,0.6c-0.1,0.2-0.1,0.3-0.2,0.5c-0.1,0.2-0.2,0.3-0.4,0.5s-0.3,0.3-0.6,0.4c-0.3,0.2-0.5,0.3-0.7,0.5
				s-0.3,0.3-0.4,0.4c-0.1,0.1-0.2,0.2-0.2,0.3c0,0.1-0.1,0.2-0.1,0.4h2.8v0.6H221v-0.3c0-0.2,0-0.5,0.1-0.6
				c0.1-0.2,0.1-0.4,0.3-0.5c0.1-0.2,0.3-0.3,0.5-0.5c0.2-0.2,0.4-0.3,0.7-0.6c0.2-0.1,0.4-0.3,0.5-0.4s0.2-0.3,0.3-0.4
				c0.1-0.1,0.1-0.3,0.2-0.4C223.5,12.9,223.6,12.8,223.6,12.6z"/>
			<path d="M231.6,16.5c-0.4,0.2-0.9,0.3-1.5,0.3c-0.8,0-1.4-0.3-1.9-0.8c-0.5-0.5-0.7-1.2-0.7-2c0-0.9,0.3-1.6,0.8-2.2
				s1.2-0.8,2.1-0.8c0.5,0,1,0.1,1.3,0.2V12c-0.4-0.2-0.8-0.3-1.3-0.3c-0.6,0-1.2,0.2-1.6,0.6s-0.6,1-0.6,1.7c0,0.7,0.2,1.2,0.6,1.6
				c0.4,0.4,0.9,0.6,1.5,0.6c0.6,0,1.1-0.1,1.5-0.4V16.5z"/>
			<path d="M233.3,16.8h-0.6v-5.9h0.6V16.8z"/>
			<path d="M234.9,11.8c-0.1,0-0.2,0-0.3-0.1c-0.1-0.1-0.1-0.2-0.1-0.3c0-0.1,0-0.2,0.1-0.3s0.2-0.1,0.3-0.1c0.1,0,0.2,0,0.3,0.1
				c0.1,0.1,0.1,0.2,0.1,0.3c0,0.1,0,0.2-0.1,0.3C235.1,11.7,235,11.8,234.9,11.8z M235.2,16.8h-0.6v-4h0.6V16.8z"/>
			<path d="M239.8,14.9h-2.8c0,0.4,0.1,0.8,0.4,1c0.2,0.2,0.5,0.4,0.9,0.4c0.5,0,0.9-0.1,1.2-0.4v0.6c-0.4,0.3-0.8,0.4-1.4,0.4
				c-0.6,0-1-0.2-1.3-0.5c-0.3-0.4-0.5-0.9-0.5-1.5c0-0.6,0.2-1.1,0.5-1.5s0.8-0.6,1.3-0.6s0.9,0.2,1.2,0.5s0.4,0.8,0.4,1.4V14.9z
				 M239.1,14.4c0-0.4-0.1-0.7-0.3-0.9c-0.2-0.2-0.4-0.3-0.7-0.3c-0.3,0-0.6,0.1-0.8,0.3c-0.2,0.2-0.3,0.5-0.4,0.8H239.1z"/>
			<path d="M244,16.8h-0.6v-2.3c0-0.9-0.3-1.3-0.9-1.3c-0.3,0-0.6,0.1-0.8,0.4c-0.2,0.2-0.3,0.5-0.3,0.9v2.3h-0.6v-4h0.6v0.7h0
				c0.3-0.5,0.7-0.8,1.3-0.8c0.4,0,0.8,0.1,1,0.4c0.2,0.3,0.3,0.7,0.3,1.2V16.8z"/>
			<path d="M247.1,16.7c-0.2,0.1-0.4,0.1-0.6,0.1c-0.7,0-1.1-0.4-1.1-1.2v-2.4h-0.7v-0.5h0.7v-1l0.6-0.2v1.2h1v0.5h-1v2.3
				c0,0.3,0,0.5,0.1,0.6c0.1,0.1,0.2,0.2,0.5,0.2c0.2,0,0.3,0,0.4-0.1V16.7z"/>
		</g>
		<g>
			<g>
				<line class="st1" x1="232" y1="29.8" x2="232" y2="49.3"/>
				<g>
					<polygon points="227,47.9 232,56.5 237,47.9 					"/>
				</g>
			</g>
		</g>
	</g>
	<g>
		<rect x="155.4" y="77.7" class="st0" width="42.4" height="29"/>
		<path d="M197.3,78.2v28h-41.4v-28H197.3 M198.3,77.2h-43.4v30h43.4V77.2L198.3,77.2z"/>
	</g>
	<g>
		<rect x="210.8" y="77.7" class="st0" width="42.4" height="29"/>
		<path d="M252.7,78.2v28h-41.4v-28H252.7 M253.7,77.2h-43.4v30h43.4V77.2L253.7,77.2z"/>
	</g>
	<g>
		<path d="M176.2,86.2l-1.6,4H174l-1.5-4h0.7l1,2.9c0.1,0.2,0.1,0.4,0.1,0.6h0c0-0.2,0.1-0.4,0.1-0.5l1.1-2.9H176.2z"/>
		<path d="M179.1,90.2h-0.6v-4.8c0,0-0.1,0.1-0.2,0.2s-0.2,0.1-0.3,0.2c-0.1,0.1-0.2,0.1-0.4,0.2c-0.1,0.1-0.3,0.1-0.4,0.1v-0.6
			c0.1,0,0.3-0.1,0.4-0.2c0.2-0.1,0.3-0.1,0.5-0.2s0.3-0.2,0.4-0.3c0.1-0.1,0.3-0.2,0.4-0.3h0.2V90.2z"/>
		<path d="M164.5,99.6v-0.8c0.1,0.1,0.2,0.1,0.3,0.2c0.1,0.1,0.3,0.1,0.4,0.2c0.1,0,0.3,0.1,0.4,0.1s0.3,0,0.4,0
			c0.4,0,0.7-0.1,0.9-0.2c0.2-0.1,0.3-0.4,0.3-0.6c0-0.2,0-0.3-0.1-0.4s-0.2-0.2-0.3-0.3c-0.1-0.1-0.3-0.2-0.4-0.3
			c-0.2-0.1-0.3-0.2-0.5-0.3c-0.2-0.1-0.4-0.2-0.5-0.3s-0.3-0.2-0.4-0.3c-0.1-0.1-0.2-0.3-0.3-0.4c-0.1-0.2-0.1-0.3-0.1-0.5
			c0-0.3,0.1-0.5,0.2-0.7c0.1-0.2,0.3-0.3,0.4-0.5c0.2-0.1,0.4-0.2,0.6-0.3c0.2-0.1,0.5-0.1,0.7-0.1c0.6,0,1,0.1,1.2,0.2v0.7
			c-0.3-0.2-0.8-0.3-1.3-0.3c-0.1,0-0.3,0-0.4,0c-0.1,0-0.3,0.1-0.4,0.1c-0.1,0.1-0.2,0.2-0.3,0.3c-0.1,0.1-0.1,0.2-0.1,0.4
			c0,0.1,0,0.3,0.1,0.4c0.1,0.1,0.1,0.2,0.2,0.3c0.1,0.1,0.2,0.2,0.4,0.3c0.1,0.1,0.3,0.2,0.5,0.3c0.2,0.1,0.4,0.2,0.6,0.3
			c0.2,0.1,0.3,0.2,0.5,0.4c0.1,0.1,0.2,0.3,0.3,0.4c0.1,0.2,0.1,0.3,0.1,0.6c0,0.3-0.1,0.5-0.2,0.7s-0.3,0.3-0.4,0.5
			s-0.4,0.2-0.6,0.3c-0.2,0.1-0.5,0.1-0.8,0.1c-0.1,0-0.2,0-0.3,0c-0.1,0-0.3,0-0.4-0.1c-0.1,0-0.3-0.1-0.4-0.1
			C164.7,99.7,164.6,99.6,164.5,99.6z"/>
		<path d="M172.2,98h-2.8c0,0.4,0.1,0.8,0.4,1s0.5,0.4,0.9,0.4c0.5,0,0.9-0.1,1.2-0.4v0.6c-0.4,0.3-0.8,0.4-1.4,0.4
			c-0.6,0-1-0.2-1.3-0.5c-0.3-0.4-0.5-0.9-0.5-1.5c0-0.6,0.2-1.1,0.5-1.5c0.4-0.4,0.8-0.6,1.3-0.6s0.9,0.2,1.2,0.5
			c0.3,0.3,0.4,0.8,0.4,1.4V98z M171.5,97.4c0-0.4-0.1-0.7-0.3-0.9c-0.2-0.2-0.4-0.3-0.7-0.3c-0.3,0-0.6,0.1-0.8,0.3
			c-0.2,0.2-0.3,0.5-0.4,0.8H171.5z"/>
		<path d="M175.2,96.5c-0.1-0.1-0.3-0.1-0.5-0.1c-0.3,0-0.5,0.1-0.7,0.4c-0.2,0.3-0.3,0.6-0.3,1.1v2h-0.6v-4h0.6v0.8h0
			c0.1-0.3,0.2-0.5,0.4-0.7c0.2-0.2,0.4-0.2,0.6-0.2c0.2,0,0.3,0,0.4,0.1V96.5z"/>
		<path d="M179.1,95.8l-1.6,4h-0.6l-1.5-4h0.7l1,2.9c0.1,0.2,0.1,0.4,0.1,0.6h0c0-0.2,0.1-0.4,0.1-0.5l1.1-2.9H179.1z"/>
		<path d="M180.1,94.8c-0.1,0-0.2,0-0.3-0.1c-0.1-0.1-0.1-0.2-0.1-0.3s0-0.2,0.1-0.3c0.1-0.1,0.2-0.1,0.3-0.1c0.1,0,0.2,0,0.3,0.1
			c0.1,0.1,0.1,0.2,0.1,0.3c0,0.1,0,0.2-0.1,0.3C180.3,94.8,180.2,94.8,180.1,94.8z M180.4,99.8h-0.6v-4h0.6V99.8z"/>
		<path d="M184.4,99.6c-0.3,0.2-0.7,0.3-1.1,0.3c-0.6,0-1-0.2-1.4-0.6c-0.4-0.4-0.5-0.9-0.5-1.4c0-0.7,0.2-1.2,0.6-1.6
			c0.4-0.4,0.9-0.6,1.5-0.6c0.4,0,0.7,0.1,0.9,0.2v0.7c-0.3-0.2-0.6-0.3-1-0.3c-0.4,0-0.7,0.1-1,0.4s-0.4,0.7-0.4,1.2
			c0,0.5,0.1,0.8,0.4,1.1s0.6,0.4,1,0.4c0.3,0,0.7-0.1,1-0.3V99.6z"/>
		<path d="M188.6,98h-2.8c0,0.4,0.1,0.8,0.4,1s0.5,0.4,0.9,0.4c0.5,0,0.9-0.1,1.2-0.4v0.6c-0.4,0.3-0.8,0.4-1.4,0.4
			c-0.6,0-1-0.2-1.3-0.5c-0.3-0.4-0.5-0.9-0.5-1.5c0-0.6,0.2-1.1,0.5-1.5c0.4-0.4,0.8-0.6,1.3-0.6c0.5,0,0.9,0.2,1.2,0.5
			c0.3,0.3,0.4,0.8,0.4,1.4V98z M188,97.4c0-0.4-0.1-0.7-0.3-0.9s-0.4-0.3-0.7-0.3c-0.3,0-0.6,0.1-0.8,0.3c-0.2,0.2-0.3,0.5-0.4,0.8
			H188z"/>
	</g>
	<g>
		<path d="M232.3,86.2l-1.6,4h-0.6l-1.5-4h0.7l1,2.9c0.1,0.2,0.1,0.4,0.1,0.6h0c0-0.2,0.1-0.4,0.1-0.5l1.1-2.9H232.3z"/>
		<path d="M235.4,86.1c0-0.2,0-0.3-0.1-0.4c-0.1-0.1-0.1-0.2-0.2-0.3c-0.1-0.1-0.2-0.1-0.3-0.2c-0.1,0-0.3-0.1-0.4-0.1
			c-0.1,0-0.2,0-0.4,0.1c-0.1,0-0.2,0.1-0.4,0.1c-0.1,0.1-0.2,0.1-0.3,0.2c-0.1,0.1-0.2,0.2-0.3,0.3V85c0.2-0.2,0.4-0.3,0.6-0.4
			c0.2-0.1,0.5-0.1,0.8-0.1c0.2,0,0.4,0,0.6,0.1c0.2,0.1,0.4,0.2,0.5,0.3c0.1,0.1,0.3,0.3,0.3,0.5c0.1,0.2,0.1,0.4,0.1,0.6
			c0,0.2,0,0.4-0.1,0.6c-0.1,0.2-0.1,0.3-0.2,0.5c-0.1,0.2-0.2,0.3-0.4,0.5s-0.3,0.3-0.6,0.4c-0.3,0.2-0.5,0.3-0.7,0.5
			s-0.3,0.3-0.4,0.4c-0.1,0.1-0.2,0.2-0.2,0.3s-0.1,0.2-0.1,0.4h2.8v0.6h-3.5v-0.3c0-0.2,0-0.5,0.1-0.6c0.1-0.2,0.1-0.4,0.3-0.5
			s0.3-0.3,0.5-0.5c0.2-0.2,0.4-0.3,0.7-0.6c0.2-0.1,0.4-0.3,0.5-0.4c0.1-0.1,0.2-0.3,0.3-0.4c0.1-0.1,0.1-0.3,0.2-0.4
			C235.3,86.4,235.4,86.2,235.4,86.1z"/>
		<path d="M220.6,99.6v-0.8c0.1,0.1,0.2,0.1,0.3,0.2s0.3,0.1,0.4,0.2c0.1,0,0.3,0.1,0.4,0.1c0.1,0,0.3,0,0.4,0
			c0.4,0,0.7-0.1,0.9-0.2c0.2-0.1,0.3-0.4,0.3-0.6c0-0.2,0-0.3-0.1-0.4s-0.2-0.2-0.3-0.3c-0.1-0.1-0.3-0.2-0.4-0.3
			c-0.2-0.1-0.3-0.2-0.5-0.3c-0.2-0.1-0.4-0.2-0.5-0.3c-0.2-0.1-0.3-0.2-0.4-0.3c-0.1-0.1-0.2-0.3-0.3-0.4s-0.1-0.3-0.1-0.5
			c0-0.3,0.1-0.5,0.2-0.7c0.1-0.2,0.3-0.3,0.4-0.5c0.2-0.1,0.4-0.2,0.6-0.3c0.2-0.1,0.5-0.1,0.7-0.1c0.6,0,1,0.1,1.2,0.2v0.7
			c-0.3-0.2-0.8-0.3-1.3-0.3c-0.1,0-0.3,0-0.4,0c-0.1,0-0.3,0.1-0.4,0.1c-0.1,0.1-0.2,0.2-0.3,0.3s-0.1,0.2-0.1,0.4
			c0,0.1,0,0.3,0.1,0.4c0.1,0.1,0.1,0.2,0.2,0.3c0.1,0.1,0.2,0.2,0.4,0.3c0.1,0.1,0.3,0.2,0.5,0.3c0.2,0.1,0.4,0.2,0.6,0.3
			c0.2,0.1,0.3,0.2,0.5,0.4c0.1,0.1,0.2,0.3,0.3,0.4c0.1,0.2,0.1,0.3,0.1,0.6c0,0.3-0.1,0.5-0.2,0.7c-0.1,0.2-0.3,0.3-0.4,0.5
			c-0.2,0.1-0.4,0.2-0.6,0.3s-0.5,0.1-0.8,0.1c-0.1,0-0.2,0-0.3,0c-0.1,0-0.3,0-0.4-0.1c-0.1,0-0.3-0.1-0.4-0.1
			C220.8,99.7,220.7,99.6,220.6,99.6z"/>
		<path d="M228.3,98h-2.8c0,0.4,0.1,0.8,0.4,1s0.5,0.4,0.9,0.4c0.5,0,0.9-0.1,1.2-0.4v0.6c-0.4,0.3-0.8,0.4-1.4,0.4
			c-0.6,0-1-0.2-1.3-0.5c-0.3-0.4-0.5-0.9-0.5-1.5c0-0.6,0.2-1.1,0.5-1.5c0.4-0.4,0.8-0.6,1.3-0.6c0.5,0,0.9,0.2,1.2,0.5
			c0.3,0.3,0.4,0.8,0.4,1.4V98z M227.6,97.4c0-0.4-0.1-0.7-0.3-0.9c-0.2-0.2-0.4-0.3-0.7-0.3c-0.3,0-0.6,0.1-0.8,0.3
			c-0.2,0.2-0.3,0.5-0.4,0.8H227.6z"/>
		<path d="M231.3,96.5c-0.1-0.1-0.3-0.1-0.5-0.1c-0.3,0-0.5,0.1-0.7,0.4s-0.3,0.6-0.3,1.1v2h-0.6v-4h0.6v0.8h0
			c0.1-0.3,0.2-0.5,0.4-0.7s0.4-0.2,0.6-0.2c0.2,0,0.3,0,0.4,0.1V96.5z"/>
		<path d="M235.2,95.8l-1.6,4h-0.6l-1.5-4h0.7l1,2.9c0.1,0.2,0.1,0.4,0.1,0.6h0c0-0.2,0.1-0.4,0.1-0.5l1.1-2.9H235.2z"/>
		<path d="M236.2,94.8c-0.1,0-0.2,0-0.3-0.1s-0.1-0.2-0.1-0.3s0-0.2,0.1-0.3s0.2-0.1,0.3-0.1c0.1,0,0.2,0,0.3,0.1s0.1,0.2,0.1,0.3
			c0,0.1,0,0.2-0.1,0.3S236.3,94.8,236.2,94.8z M236.5,99.8h-0.6v-4h0.6V99.8z"/>
		<path d="M240.5,99.6c-0.3,0.2-0.7,0.3-1.1,0.3c-0.6,0-1-0.2-1.4-0.6s-0.5-0.9-0.5-1.4c0-0.7,0.2-1.2,0.6-1.6
			c0.4-0.4,0.9-0.6,1.5-0.6c0.4,0,0.7,0.1,0.9,0.2v0.7c-0.3-0.2-0.6-0.3-1-0.3c-0.4,0-0.7,0.1-1,0.4c-0.3,0.3-0.4,0.7-0.4,1.2
			c0,0.5,0.1,0.8,0.4,1.1c0.2,0.3,0.6,0.4,1,0.4c0.3,0,0.7-0.1,1-0.3V99.6z"/>
		<path d="M244.7,98h-2.8c0,0.4,0.1,0.8,0.4,1s0.5,0.4,0.9,0.4c0.5,0,0.9-0.1,1.2-0.4v0.6c-0.4,0.3-0.8,0.4-1.4,0.4
			c-0.6,0-1-0.2-1.3-0.5c-0.3-0.4-0.5-0.9-0.5-1.5c0-0.6,0.2-1.1,0.5-1.5c0.4-0.4,0.8-0.6,1.3-0.6c0.5,0,0.9,0.2,1.2,0.5
			c0.3,0.3,0.4,0.8,0.4,1.4V98z M244,97.4c0-0.4-0.1-0.7-0.3-0.9c-0.2-0.2-0.4-0.3-0.7-0.3c-0.3,0-0.6,0.1-0.8,0.3
			c-0.2,0.2-0.3,0.5-0.4,0.8H244z"/>
	</g>
</g>
<g>
	<path d="M3.7,115.5c-0.1,0-0.1-0.1-0.2-0.1s-0.2-0.1-0.3-0.1c-0.1,0-0.2-0.1-0.3-0.1c-0.1,0-0.2,0-0.3,0c-0.2,0-0.4,0-0.5,0.1
		s-0.3,0.1-0.3,0.2c-0.1,0.1-0.1,0.2-0.2,0.3c0,0.1-0.1,0.2-0.1,0.3c0,0.1,0,0.2,0.1,0.3c0,0.1,0.1,0.2,0.2,0.3
		c0.1,0.1,0.2,0.2,0.3,0.3s0.2,0.2,0.4,0.3c0.2,0.1,0.3,0.2,0.4,0.3s0.2,0.2,0.3,0.4c0.1,0.1,0.2,0.2,0.2,0.4c0,0.1,0.1,0.3,0.1,0.4
		c0,0.1,0,0.2,0,0.3c0,0.1-0.1,0.2-0.1,0.4c-0.1,0.1-0.1,0.2-0.2,0.3s-0.2,0.2-0.3,0.3s-0.3,0.2-0.5,0.2c-0.2,0.1-0.4,0.1-0.7,0.1
		c-0.1,0-0.3,0-0.4,0c-0.1,0-0.3,0-0.4-0.1c-0.1,0-0.2-0.1-0.3-0.1S0.1,120,0,120l0.1-0.7c0.1,0.1,0.2,0.1,0.3,0.2s0.2,0.1,0.3,0.1
		s0.2,0.1,0.4,0.1s0.3,0,0.4,0c0.2,0,0.4,0,0.5-0.1c0.1,0,0.3-0.1,0.4-0.2c0.1-0.1,0.2-0.2,0.2-0.3c0-0.1,0.1-0.2,0.1-0.4
		c0-0.1,0-0.2-0.1-0.3c0-0.1-0.1-0.2-0.2-0.3c-0.1-0.1-0.2-0.2-0.3-0.3c-0.1-0.1-0.3-0.2-0.4-0.3c-0.1-0.1-0.2-0.2-0.4-0.3
		c-0.1-0.1-0.2-0.2-0.3-0.3s-0.2-0.3-0.2-0.4c-0.1-0.1-0.1-0.3-0.1-0.5c0-0.2,0-0.4,0.1-0.6s0.2-0.4,0.4-0.5s0.4-0.3,0.6-0.3
		s0.5-0.1,0.8-0.1c0.1,0,0.2,0,0.4,0s0.2,0,0.3,0.1s0.2,0.1,0.3,0.1c0.1,0,0.2,0.1,0.3,0.1L3.7,115.5z"/>
	<path d="M7.6,117.2c0,0.2,0,0.4-0.1,0.6c-0.1,0.2-0.2,0.3-0.5,0.4c-0.2,0.1-0.5,0.2-0.9,0.3c-0.4,0.1-0.8,0.1-1.3,0.1
		c0,0,0,0.1,0,0.1c0,0,0,0.1,0,0.1c0,0.1,0,0.3,0.1,0.4c0,0.1,0.1,0.2,0.2,0.3c0.1,0.1,0.2,0.2,0.3,0.2c0.1,0.1,0.3,0.1,0.5,0.1
		c0.2,0,0.4,0,0.6-0.1s0.4-0.2,0.6-0.3L6.9,120c-0.1,0.1-0.3,0.2-0.5,0.2s-0.4,0.1-0.7,0.1c-0.3,0-0.5,0-0.7-0.1
		c-0.2-0.1-0.4-0.2-0.5-0.4c-0.1-0.2-0.2-0.3-0.3-0.5c-0.1-0.2-0.1-0.4-0.1-0.6c0-0.2,0-0.5,0.1-0.7s0.1-0.4,0.2-0.6
		c0.1-0.2,0.2-0.4,0.3-0.5c0.1-0.2,0.3-0.3,0.4-0.4c0.2-0.1,0.3-0.2,0.5-0.3c0.2-0.1,0.4-0.1,0.6-0.1c0.2,0,0.4,0,0.5,0.1
		c0.2,0.1,0.3,0.1,0.4,0.2c0.1,0.1,0.2,0.2,0.2,0.3C7.6,116.9,7.6,117,7.6,117.2z M6.9,117.2c0-0.2-0.1-0.3-0.2-0.4
		c-0.1-0.1-0.3-0.1-0.5-0.1c-0.2,0-0.3,0-0.5,0.1c-0.1,0.1-0.3,0.2-0.4,0.3c-0.1,0.1-0.2,0.3-0.3,0.4c-0.1,0.2-0.2,0.4-0.2,0.5
		c0.4,0,0.7,0,1-0.1c0.3,0,0.5-0.1,0.6-0.2c0.2-0.1,0.3-0.2,0.4-0.3C6.9,117.5,6.9,117.3,6.9,117.2z"/>
	<path d="M10.7,116.9L10.7,116.9c-0.1,0-0.1-0.1-0.2-0.1s-0.2,0-0.3,0c-0.2,0-0.3,0-0.4,0.1c-0.1,0.1-0.3,0.2-0.4,0.4
		c-0.1,0.2-0.2,0.3-0.3,0.5c-0.1,0.2-0.2,0.4-0.2,0.6l-0.4,1.7H7.9l0.6-2.7c0-0.1,0-0.2,0.1-0.3c0-0.1,0-0.2,0.1-0.4
		c0-0.1,0-0.2,0.1-0.3c0-0.1,0-0.2,0-0.3h0.6c0,0.1,0,0.2,0,0.2c0,0.1,0,0.2,0,0.3c0,0.1,0,0.2,0,0.2c0,0.1,0,0.1,0,0.2h0
		c0.1-0.1,0.2-0.3,0.3-0.4c0.1-0.1,0.2-0.2,0.3-0.3c0.1-0.1,0.2-0.2,0.3-0.2c0.1,0,0.2-0.1,0.3-0.1c0.1,0,0.1,0,0.2,0
		c0.1,0,0.1,0,0.2,0L10.7,116.9z"/>
	<path d="M12.5,120.3h-0.5l-0.6-4h0.6l0.4,2.5c0,0,0,0.1,0,0.2s0,0.1,0,0.2s0,0.1,0,0.2c0,0.1,0,0.1,0,0.2h0c0,0,0-0.1,0.1-0.2
		c0-0.1,0.1-0.1,0.1-0.2s0.1-0.1,0.1-0.2s0.1-0.1,0.1-0.2l1.4-2.5h0.7L12.5,120.3z"/>
	<path d="M16.2,120.2c-0.1,0-0.1,0-0.2,0.1c-0.1,0-0.2,0-0.2,0c-0.3,0-0.5-0.1-0.6-0.2s-0.2-0.3-0.2-0.5c0-0.1,0-0.1,0-0.2
		s0-0.2,0.1-0.3l0.6-2.8h0.6l-0.6,2.8c0,0.1,0,0.2,0,0.3c0,0.1,0,0.1,0,0.2c0,0.1,0,0.2,0.1,0.2c0.1,0.1,0.2,0.1,0.3,0.1
		c0.1,0,0.1,0,0.2,0c0.1,0,0.1,0,0.1,0L16.2,120.2z M16.6,114.8c0,0.1,0,0.2-0.1,0.3c-0.1,0.1-0.2,0.1-0.3,0.1c-0.1,0-0.2,0-0.3-0.1
		c-0.1-0.1-0.1-0.2-0.1-0.3c0-0.1,0-0.2,0.1-0.3c0.1-0.1,0.2-0.1,0.3-0.1c0.1,0,0.2,0,0.3,0.1S16.6,114.7,16.6,114.8z"/>
	<path d="M20,117c-0.1-0.1-0.2-0.2-0.4-0.2c-0.2-0.1-0.3-0.1-0.5-0.1c-0.2,0-0.3,0-0.5,0.1s-0.3,0.1-0.4,0.3
		c-0.1,0.1-0.2,0.2-0.3,0.4c-0.1,0.1-0.1,0.3-0.2,0.4c-0.1,0.1-0.1,0.3-0.1,0.4c0,0.1,0,0.3,0,0.4c0,0.4,0.1,0.7,0.2,0.8
		s0.4,0.3,0.7,0.3c0.2,0,0.4,0,0.5-0.1c0.2-0.1,0.4-0.2,0.5-0.3l-0.1,0.6c-0.2,0.1-0.3,0.2-0.5,0.2c-0.2,0.1-0.3,0.1-0.5,0.1
		c-0.2,0-0.5,0-0.6-0.1c-0.2-0.1-0.3-0.2-0.5-0.3c-0.1-0.1-0.2-0.3-0.3-0.5c-0.1-0.2-0.1-0.4-0.1-0.6c0-0.2,0-0.4,0.1-0.6
		c0-0.2,0.1-0.4,0.2-0.6s0.2-0.4,0.3-0.5c0.1-0.2,0.3-0.3,0.4-0.4c0.2-0.1,0.4-0.2,0.6-0.3c0.2-0.1,0.4-0.1,0.7-0.1
		c0.1,0,0.2,0,0.3,0c0.1,0,0.2,0,0.3,0.1s0.2,0.1,0.2,0.1c0.1,0,0.1,0.1,0.2,0.1L20,117z"/>
	<path d="M23.8,117.2c0,0.2,0,0.4-0.1,0.6c-0.1,0.2-0.2,0.3-0.5,0.4s-0.5,0.2-0.9,0.3c-0.4,0.1-0.8,0.1-1.3,0.1c0,0,0,0.1,0,0.1
		c0,0,0,0.1,0,0.1c0,0.1,0,0.3,0.1,0.4s0.1,0.2,0.2,0.3c0.1,0.1,0.2,0.2,0.3,0.2s0.3,0.1,0.5,0.1c0.2,0,0.4,0,0.6-0.1
		s0.4-0.2,0.6-0.3l-0.1,0.6c-0.1,0.1-0.3,0.2-0.5,0.2c-0.2,0.1-0.4,0.1-0.7,0.1c-0.3,0-0.5,0-0.7-0.1c-0.2-0.1-0.4-0.2-0.5-0.4
		c-0.1-0.2-0.2-0.3-0.3-0.5c-0.1-0.2-0.1-0.4-0.1-0.6c0-0.2,0-0.5,0.1-0.7c0.1-0.2,0.1-0.4,0.2-0.6s0.2-0.4,0.3-0.5
		c0.1-0.2,0.3-0.3,0.4-0.4c0.2-0.1,0.3-0.2,0.5-0.3c0.2-0.1,0.4-0.1,0.6-0.1c0.2,0,0.4,0,0.5,0.1c0.2,0.1,0.3,0.1,0.4,0.2
		c0.1,0.1,0.2,0.2,0.2,0.3S23.8,117,23.8,117.2z M23.1,117.2c0-0.2-0.1-0.3-0.2-0.4c-0.1-0.1-0.3-0.1-0.5-0.1c-0.2,0-0.3,0-0.5,0.1
		c-0.1,0.1-0.3,0.2-0.4,0.3c-0.1,0.1-0.2,0.3-0.3,0.4c-0.1,0.2-0.2,0.4-0.2,0.5c0.4,0,0.7,0,1-0.1c0.3,0,0.5-0.1,0.6-0.2
		s0.3-0.2,0.4-0.3C23.1,117.5,23.1,117.3,23.1,117.2z"/>
	<path d="M29,117c-0.1-0.1-0.2-0.1-0.4-0.2c-0.1,0-0.3-0.1-0.4-0.1c-0.2,0-0.4,0.1-0.6,0.2s-0.2,0.3-0.2,0.4c0,0.1,0,0.1,0,0.2
		s0.1,0.1,0.1,0.2s0.1,0.1,0.2,0.2s0.2,0.1,0.3,0.2c0.3,0.2,0.5,0.3,0.6,0.5c0.1,0.2,0.2,0.4,0.2,0.6c0,0.2,0,0.3-0.1,0.4
		c-0.1,0.1-0.1,0.3-0.3,0.4c-0.1,0.1-0.3,0.2-0.5,0.3c-0.2,0.1-0.4,0.1-0.7,0.1c-0.1,0-0.2,0-0.3,0s-0.2,0-0.3,0
		c-0.1,0-0.2,0-0.3-0.1c-0.1,0-0.2-0.1-0.2-0.1l0.1-0.6c0.1,0,0.1,0.1,0.2,0.1s0.2,0.1,0.3,0.1s0.2,0.1,0.3,0.1c0.1,0,0.2,0,0.3,0
		c0.3,0,0.5-0.1,0.6-0.2s0.2-0.2,0.2-0.4c0-0.1,0-0.1,0-0.2c0-0.1-0.1-0.1-0.1-0.2c0-0.1-0.1-0.1-0.2-0.2c-0.1-0.1-0.2-0.1-0.3-0.2
		c-0.3-0.2-0.5-0.3-0.6-0.5c-0.1-0.2-0.2-0.4-0.2-0.6c0-0.2,0-0.3,0.1-0.5c0.1-0.1,0.1-0.3,0.3-0.4s0.3-0.2,0.4-0.3s0.4-0.1,0.6-0.1
		c0.2,0,0.4,0,0.5,0.1c0.2,0,0.3,0.1,0.4,0.1L29,117z"/>
	<path d="M32.9,119.1c0,0.1,0,0.2-0.1,0.3c0,0.1,0,0.2-0.1,0.3c0,0.1,0,0.2,0,0.3c0,0.1,0,0.2,0,0.2h-0.6c0-0.1,0-0.2,0-0.3
		c0-0.1,0-0.2,0-0.3c0-0.1,0-0.2,0.1-0.3h0c-0.1,0.1-0.2,0.3-0.3,0.4c-0.1,0.1-0.2,0.2-0.4,0.3c-0.1,0.1-0.3,0.2-0.4,0.2
		s-0.3,0.1-0.5,0.1c-0.2,0-0.3,0-0.5-0.1c-0.1-0.1-0.2-0.1-0.3-0.2c-0.1-0.1-0.2-0.2-0.2-0.3c0-0.1-0.1-0.3-0.1-0.5c0,0,0-0.1,0-0.2
		c0-0.1,0-0.1,0-0.2s0-0.2,0-0.2c0-0.1,0-0.1,0-0.2l0.5-2.2h0.6l-0.5,2.3c0,0,0,0.1,0,0.1c0,0.1,0,0.1,0,0.2c0,0.1,0,0.1,0,0.2
		c0,0,0,0.1,0,0.1c0,0.2,0,0.4,0.1,0.5c0.1,0.1,0.2,0.2,0.4,0.2c0.1,0,0.2,0,0.3-0.1c0.1,0,0.2-0.1,0.3-0.2c0.1-0.1,0.2-0.2,0.3-0.3
		s0.2-0.2,0.3-0.3c0.1-0.1,0.1-0.2,0.2-0.4c0.1-0.1,0.1-0.2,0.1-0.4l0.4-2h0.6L32.9,119.1z"/>
	<path d="M37.8,117.6c0,0.2,0,0.4-0.1,0.6c0,0.2-0.1,0.4-0.2,0.6c-0.1,0.2-0.2,0.4-0.3,0.6s-0.3,0.3-0.5,0.5
		c-0.2,0.1-0.4,0.2-0.6,0.3c-0.2,0.1-0.5,0.1-0.7,0.1c-0.2,0-0.3,0-0.5,0c-0.1,0-0.3-0.1-0.4-0.1l-0.4,1.9h-0.6l1-4.6
		c0-0.1,0-0.2,0.1-0.3c0-0.1,0-0.2,0-0.4s0-0.2,0-0.3c0-0.1,0-0.2,0-0.2h0.7c0,0,0,0.1,0,0.2s0,0.2,0,0.2c0,0.1,0,0.2,0,0.2
		c0,0.1,0,0.1,0,0.2h0c0.2-0.3,0.4-0.6,0.6-0.7s0.5-0.2,0.8-0.2c0.2,0,0.3,0,0.5,0.1c0.1,0.1,0.3,0.2,0.4,0.3
		c0.1,0.1,0.2,0.3,0.2,0.5C37.8,117.2,37.8,117.4,37.8,117.6z M37.1,117.7c0-0.1,0-0.3,0-0.4c0-0.1-0.1-0.2-0.1-0.3
		c-0.1-0.1-0.1-0.2-0.2-0.2c-0.1,0-0.2-0.1-0.3-0.1c-0.1,0-0.3,0-0.4,0.1c-0.1,0.1-0.2,0.1-0.3,0.2c-0.1,0.1-0.2,0.2-0.3,0.3
		c-0.1,0.1-0.2,0.3-0.2,0.4c-0.1,0.1-0.1,0.3-0.2,0.4s-0.1,0.3-0.1,0.4l-0.2,1.2c0,0,0.1,0,0.2,0.1c0.1,0,0.1,0,0.2,0s0.1,0,0.2,0
		c0.1,0,0.1,0,0.2,0c0.2,0,0.3,0,0.5-0.1c0.2-0.1,0.3-0.1,0.4-0.2s0.2-0.2,0.3-0.4c0.1-0.1,0.2-0.3,0.2-0.4s0.1-0.3,0.1-0.5
		S37.1,117.8,37.1,117.7z"/>
	<path d="M42.1,117.6c0,0.2,0,0.4-0.1,0.6c0,0.2-0.1,0.4-0.2,0.6c-0.1,0.2-0.2,0.4-0.3,0.6c-0.1,0.2-0.3,0.3-0.5,0.5
		c-0.2,0.1-0.4,0.2-0.6,0.3c-0.2,0.1-0.5,0.1-0.7,0.1c-0.2,0-0.3,0-0.5,0c-0.1,0-0.3-0.1-0.4-0.1l-0.4,1.9h-0.6l1-4.6
		c0-0.1,0-0.2,0.1-0.3c0-0.1,0-0.2,0-0.4s0-0.2,0-0.3c0-0.1,0-0.2,0-0.2h0.7c0,0,0,0.1,0,0.2s0,0.2,0,0.2c0,0.1,0,0.2,0,0.2
		s0,0.1,0,0.2h0c0.2-0.3,0.4-0.6,0.6-0.7s0.5-0.2,0.8-0.2c0.2,0,0.3,0,0.5,0.1c0.1,0.1,0.3,0.2,0.4,0.3c0.1,0.1,0.2,0.3,0.2,0.5
		C42.1,117.2,42.1,117.4,42.1,117.6z M41.5,117.7c0-0.1,0-0.3,0-0.4c0-0.1-0.1-0.2-0.1-0.3c-0.1-0.1-0.1-0.2-0.2-0.2
		c-0.1,0-0.2-0.1-0.3-0.1c-0.1,0-0.3,0-0.4,0.1c-0.1,0.1-0.2,0.1-0.3,0.2c-0.1,0.1-0.2,0.2-0.3,0.3c-0.1,0.1-0.2,0.3-0.2,0.4
		c-0.1,0.1-0.1,0.3-0.2,0.4c0,0.1-0.1,0.3-0.1,0.4l-0.2,1.2c0,0,0.1,0,0.2,0.1c0.1,0,0.1,0,0.2,0s0.1,0,0.2,0c0.1,0,0.1,0,0.2,0
		c0.2,0,0.3,0,0.5-0.1c0.2-0.1,0.3-0.1,0.4-0.2s0.2-0.2,0.3-0.4c0.1-0.1,0.2-0.3,0.2-0.4s0.1-0.3,0.1-0.5S41.5,117.8,41.5,117.7z"/>
	<path d="M46.4,117.7c0,0.4-0.1,0.7-0.2,1c-0.1,0.3-0.2,0.6-0.4,0.8c-0.2,0.2-0.4,0.4-0.7,0.6c-0.3,0.1-0.6,0.2-0.9,0.2
		c-0.2,0-0.4,0-0.6-0.1c-0.2-0.1-0.3-0.2-0.5-0.3c-0.1-0.1-0.2-0.3-0.3-0.5c-0.1-0.2-0.1-0.4-0.1-0.7c0-0.4,0.1-0.7,0.2-1
		c0.1-0.3,0.3-0.6,0.4-0.8c0.2-0.2,0.4-0.4,0.7-0.6c0.3-0.1,0.6-0.2,0.9-0.2c0.2,0,0.4,0,0.6,0.1c0.2,0.1,0.3,0.2,0.5,0.3
		c0.1,0.1,0.2,0.3,0.3,0.5S46.4,117.5,46.4,117.7z M45.8,117.8c0-0.2,0-0.3-0.1-0.5c0-0.1-0.1-0.2-0.2-0.3c-0.1-0.1-0.2-0.2-0.3-0.2
		c-0.1,0-0.2-0.1-0.4-0.1c-0.2,0-0.4,0.1-0.6,0.2c-0.2,0.1-0.3,0.3-0.5,0.5s-0.2,0.4-0.3,0.7s-0.1,0.5-0.1,0.7c0,0.2,0,0.3,0.1,0.4
		c0,0.1,0.1,0.2,0.2,0.3c0.1,0.1,0.2,0.2,0.3,0.2c0.1,0,0.2,0.1,0.4,0.1c0.2,0,0.4-0.1,0.6-0.2c0.2-0.1,0.3-0.3,0.5-0.5
		c0.1-0.2,0.2-0.4,0.3-0.7C45.7,118.3,45.8,118,45.8,117.8z"/>
	<path d="M49.7,116.9L49.7,116.9c-0.1,0-0.1-0.1-0.2-0.1s-0.2,0-0.3,0c-0.2,0-0.3,0-0.4,0.1c-0.1,0.1-0.3,0.2-0.4,0.4
		c-0.1,0.2-0.2,0.3-0.3,0.5c-0.1,0.2-0.2,0.4-0.2,0.6l-0.4,1.7h-0.6l0.6-2.7c0-0.1,0-0.2,0.1-0.3c0-0.1,0-0.2,0.1-0.4
		c0-0.1,0-0.2,0.1-0.3c0-0.1,0-0.2,0-0.3h0.6c0,0.1,0,0.2,0,0.2c0,0.1,0,0.2,0,0.3c0,0.1,0,0.2,0,0.2c0,0.1,0,0.1,0,0.2h0
		c0.1-0.1,0.2-0.3,0.3-0.4c0.1-0.1,0.2-0.2,0.3-0.3c0.1-0.1,0.2-0.2,0.3-0.2c0.1,0,0.2-0.1,0.3-0.1c0.1,0,0.1,0,0.2,0s0.1,0,0.2,0
		L49.7,116.9z"/>
	<path d="M52.4,116.8h-1l-0.4,2.1c0,0.1,0,0.2,0,0.3c0,0.1,0,0.2,0,0.2c0,0.1,0,0.2,0.1,0.3c0.1,0.1,0.2,0.1,0.3,0.1
		c0,0,0.1,0,0.1,0c0,0,0.1,0,0.2,0c0.1,0,0.1,0,0.2-0.1c0.1,0,0.1,0,0.1-0.1l-0.1,0.6c-0.1,0-0.2,0.1-0.3,0.1s-0.2,0-0.3,0
		c-0.1,0-0.3,0-0.4-0.1s-0.2-0.1-0.3-0.2c-0.1-0.1-0.1-0.2-0.1-0.3c0-0.1,0-0.2,0-0.3c0-0.1,0-0.2,0-0.3c0-0.1,0-0.2,0.1-0.3
		l0.5-2.2h-0.7l0.1-0.5h0.7l0.2-1c0,0,0.1,0,0.1,0c0.1,0,0.1,0,0.2-0.1s0.2,0,0.2-0.1c0.1,0,0.1,0,0.1,0l-0.2,1.2h1L52.4,116.8z"/>
	<path d="M55.2,117c-0.1-0.1-0.2-0.1-0.4-0.2c-0.1,0-0.3-0.1-0.4-0.1c-0.2,0-0.4,0.1-0.6,0.2s-0.2,0.3-0.2,0.4c0,0.1,0,0.1,0,0.2
		c0,0.1,0.1,0.1,0.1,0.2c0,0.1,0.1,0.1,0.2,0.2c0.1,0.1,0.2,0.1,0.3,0.2c0.3,0.2,0.5,0.3,0.6,0.5c0.1,0.2,0.2,0.4,0.2,0.6
		c0,0.2,0,0.3-0.1,0.4c-0.1,0.1-0.1,0.3-0.3,0.4s-0.3,0.2-0.5,0.3c-0.2,0.1-0.4,0.1-0.7,0.1c-0.1,0-0.2,0-0.3,0c-0.1,0-0.2,0-0.3,0
		c-0.1,0-0.2,0-0.3-0.1c-0.1,0-0.2-0.1-0.2-0.1l0.1-0.6c0.1,0,0.1,0.1,0.2,0.1s0.2,0.1,0.3,0.1s0.2,0.1,0.3,0.1c0.1,0,0.2,0,0.3,0
		c0.3,0,0.5-0.1,0.6-0.2s0.2-0.2,0.2-0.4c0-0.1,0-0.1,0-0.2c0-0.1-0.1-0.1-0.1-0.2c0-0.1-0.1-0.1-0.2-0.2c-0.1-0.1-0.2-0.1-0.3-0.2
		c-0.3-0.2-0.5-0.3-0.6-0.5c-0.1-0.2-0.2-0.4-0.2-0.6c0-0.2,0-0.3,0.1-0.5c0.1-0.1,0.1-0.3,0.3-0.4c0.1-0.1,0.3-0.2,0.4-0.3
		s0.4-0.1,0.6-0.1c0.2,0,0.4,0,0.5,0.1c0.2,0,0.3,0.1,0.4,0.1L55.2,117z"/>
	<path d="M60.4,116.8h-1l-0.4,2.1c0,0.1,0,0.2,0,0.3c0,0.1,0,0.2,0,0.2c0,0.1,0,0.2,0.1,0.3c0.1,0.1,0.2,0.1,0.3,0.1
		c0,0,0.1,0,0.1,0c0,0,0.1,0,0.2,0c0.1,0,0.1,0,0.2-0.1c0.1,0,0.1,0,0.1-0.1l-0.1,0.6c-0.1,0-0.2,0.1-0.3,0.1s-0.2,0-0.3,0
		c-0.1,0-0.3,0-0.4-0.1c-0.1,0-0.2-0.1-0.3-0.2c-0.1-0.1-0.1-0.2-0.1-0.3c0-0.1,0-0.2,0-0.3c0-0.1,0-0.2,0-0.3c0-0.1,0-0.2,0.1-0.3
		l0.5-2.2h-0.7l0.1-0.5h0.7l0.2-1c0,0,0.1,0,0.1,0c0.1,0,0.1,0,0.2-0.1c0.1,0,0.2,0,0.2-0.1c0.1,0,0.1,0,0.1,0l-0.2,1.2h1
		L60.4,116.8z"/>
	<path d="M64.3,120.3h-0.6l-0.2-2.8c0,0,0-0.1,0-0.1s0-0.1,0-0.1s0-0.1,0-0.1c0,0,0-0.1,0-0.1h0c0,0,0,0.1,0,0.1c0,0,0,0.1,0,0.1
		s0,0.1,0,0.1c0,0,0,0.1,0,0.1l-1.5,2.8h-0.6l-0.4-4h0.6l0.2,3c0,0.1,0,0.1,0,0.2s0,0.1,0,0.2h0c0-0.1,0-0.1,0.1-0.2
		s0.1-0.1,0.1-0.2l1.6-3h0.6l0.2,3c0,0.1,0,0.1,0,0.2c0,0.1,0,0.1,0,0.2h0c0,0,0-0.1,0-0.1c0,0,0-0.1,0-0.1c0,0,0-0.1,0-0.1
		s0-0.1,0-0.1l1.4-3h0.6L64.3,120.3z"/>
	<path d="M70,117.7c0,0.4-0.1,0.7-0.2,1c-0.1,0.3-0.2,0.6-0.4,0.8c-0.2,0.2-0.4,0.4-0.7,0.6c-0.3,0.1-0.6,0.2-0.9,0.2
		c-0.2,0-0.4,0-0.6-0.1c-0.2-0.1-0.3-0.2-0.5-0.3c-0.1-0.1-0.2-0.3-0.3-0.5c-0.1-0.2-0.1-0.4-0.1-0.7c0-0.4,0.1-0.7,0.2-1
		c0.1-0.3,0.3-0.6,0.4-0.8c0.2-0.2,0.4-0.4,0.7-0.6c0.3-0.1,0.6-0.2,0.9-0.2c0.2,0,0.4,0,0.6,0.1c0.2,0.1,0.3,0.2,0.5,0.3
		c0.1,0.1,0.2,0.3,0.3,0.5C70,117.3,70,117.5,70,117.7z M69.4,117.8c0-0.2,0-0.3-0.1-0.5s-0.1-0.2-0.2-0.3s-0.2-0.2-0.3-0.2
		s-0.2-0.1-0.4-0.1c-0.2,0-0.4,0.1-0.6,0.2c-0.2,0.1-0.3,0.3-0.5,0.5s-0.2,0.4-0.3,0.7c-0.1,0.2-0.1,0.5-0.1,0.7
		c0,0.2,0,0.3,0.1,0.4c0,0.1,0.1,0.2,0.2,0.3c0.1,0.1,0.2,0.2,0.3,0.2c0.1,0,0.2,0.1,0.4,0.1c0.2,0,0.4-0.1,0.6-0.2
		c0.2-0.1,0.3-0.3,0.5-0.5c0.1-0.2,0.2-0.4,0.3-0.7S69.4,118,69.4,117.8z"/>
	<path d="M74.3,120.3h-0.5l-0.6-4h0.6l0.4,2.5c0,0,0,0.1,0,0.2s0,0.1,0,0.2c0,0.1,0,0.1,0,0.2s0,0.1,0,0.2h0c0,0,0-0.1,0.1-0.2
		c0-0.1,0.1-0.1,0.1-0.2c0-0.1,0.1-0.1,0.1-0.2s0.1-0.1,0.1-0.2l1.4-2.5h0.7L74.3,120.3z"/>
	<path d="M80.1,117.2c0,0.2,0,0.4-0.1,0.6c-0.1,0.2-0.2,0.3-0.5,0.4s-0.5,0.2-0.9,0.3c-0.4,0.1-0.8,0.1-1.3,0.1c0,0,0,0.1,0,0.1
		c0,0,0,0.1,0,0.1c0,0.1,0,0.3,0.1,0.4s0.1,0.2,0.2,0.3c0.1,0.1,0.2,0.2,0.3,0.2s0.3,0.1,0.5,0.1c0.2,0,0.4,0,0.6-0.1
		s0.4-0.2,0.6-0.3l-0.1,0.6c-0.1,0.1-0.3,0.2-0.5,0.2c-0.2,0.1-0.4,0.1-0.7,0.1c-0.3,0-0.5,0-0.7-0.1c-0.2-0.1-0.4-0.2-0.5-0.4
		c-0.1-0.2-0.2-0.3-0.3-0.5c-0.1-0.2-0.1-0.4-0.1-0.6c0-0.2,0-0.5,0.1-0.7s0.1-0.4,0.2-0.6s0.2-0.4,0.3-0.5s0.3-0.3,0.4-0.4
		c0.2-0.1,0.3-0.2,0.5-0.3c0.2-0.1,0.4-0.1,0.6-0.1c0.2,0,0.4,0,0.5,0.1c0.2,0.1,0.3,0.1,0.4,0.2c0.1,0.1,0.2,0.2,0.2,0.3
		C80,116.9,80.1,117,80.1,117.2z M79.4,117.2c0-0.2-0.1-0.3-0.2-0.4c-0.1-0.1-0.3-0.1-0.5-0.1c-0.2,0-0.3,0-0.5,0.1
		c-0.1,0.1-0.3,0.2-0.4,0.3c-0.1,0.1-0.2,0.3-0.3,0.4s-0.2,0.4-0.2,0.5c0.4,0,0.7,0,1-0.1c0.3,0,0.5-0.1,0.6-0.2
		c0.2-0.1,0.3-0.2,0.4-0.3C79.4,117.5,79.4,117.3,79.4,117.2z"/>
	<path d="M83.2,116.9L83.2,116.9c-0.1,0-0.1-0.1-0.2-0.1c-0.1,0-0.2,0-0.3,0c-0.2,0-0.3,0-0.4,0.1c-0.1,0.1-0.3,0.2-0.4,0.4
		c-0.1,0.2-0.2,0.3-0.3,0.5c-0.1,0.2-0.2,0.4-0.2,0.6l-0.4,1.7h-0.6l0.6-2.7c0-0.1,0-0.2,0.1-0.3c0-0.1,0-0.2,0.1-0.4
		c0-0.1,0-0.2,0.1-0.3c0-0.1,0-0.2,0-0.3h0.6c0,0.1,0,0.2,0,0.2c0,0.1,0,0.2,0,0.3c0,0.1,0,0.2,0,0.2s0,0.1,0,0.2h0
		c0.1-0.1,0.2-0.3,0.3-0.4s0.2-0.2,0.3-0.3c0.1-0.1,0.2-0.2,0.3-0.2c0.1,0,0.2-0.1,0.3-0.1c0.1,0,0.1,0,0.2,0c0.1,0,0.1,0,0.2,0
		L83.2,116.9z"/>
	<path d="M86,117c-0.1-0.1-0.2-0.1-0.4-0.2c-0.1,0-0.3-0.1-0.4-0.1c-0.2,0-0.4,0.1-0.6,0.2c-0.1,0.1-0.2,0.3-0.2,0.4
		c0,0.1,0,0.1,0,0.2s0.1,0.1,0.1,0.2s0.1,0.1,0.2,0.2c0.1,0.1,0.2,0.1,0.3,0.2c0.3,0.2,0.5,0.3,0.6,0.5c0.1,0.2,0.2,0.4,0.2,0.6
		c0,0.2,0,0.3-0.1,0.4s-0.1,0.3-0.3,0.4c-0.1,0.1-0.3,0.2-0.5,0.3c-0.2,0.1-0.4,0.1-0.7,0.1c-0.1,0-0.2,0-0.3,0c-0.1,0-0.2,0-0.3,0
		c-0.1,0-0.2,0-0.3-0.1c-0.1,0-0.2-0.1-0.2-0.1l0.1-0.6c0.1,0,0.1,0.1,0.2,0.1s0.2,0.1,0.3,0.1s0.2,0.1,0.3,0.1c0.1,0,0.2,0,0.3,0
		c0.3,0,0.5-0.1,0.6-0.2c0.1-0.1,0.2-0.2,0.2-0.4c0-0.1,0-0.1,0-0.2c0-0.1-0.1-0.1-0.1-0.2c0-0.1-0.1-0.1-0.2-0.2
		c-0.1-0.1-0.2-0.1-0.3-0.2c-0.3-0.2-0.5-0.3-0.6-0.5c-0.1-0.2-0.2-0.4-0.2-0.6c0-0.2,0-0.3,0.1-0.5c0.1-0.1,0.1-0.3,0.3-0.4
		c0.1-0.1,0.3-0.2,0.4-0.3s0.4-0.1,0.6-0.1c0.2,0,0.4,0,0.5,0.1c0.2,0,0.3,0.1,0.4,0.1L86,117z"/>
	<path d="M87.9,120.2c-0.1,0-0.1,0-0.2,0.1c-0.1,0-0.2,0-0.2,0c-0.3,0-0.5-0.1-0.6-0.2s-0.2-0.3-0.2-0.5c0-0.1,0-0.1,0-0.2
		s0-0.2,0.1-0.3l0.6-2.8H88l-0.6,2.8c0,0.1,0,0.2,0,0.3c0,0.1,0,0.1,0,0.2c0,0.1,0,0.2,0.1,0.2s0.2,0.1,0.3,0.1c0.1,0,0.1,0,0.2,0
		c0.1,0,0.1,0,0.1,0L87.9,120.2z M88.4,114.8c0,0.1,0,0.2-0.1,0.3c-0.1,0.1-0.2,0.1-0.3,0.1c-0.1,0-0.2,0-0.3-0.1
		c-0.1-0.1-0.1-0.2-0.1-0.3c0-0.1,0-0.2,0.1-0.3c0.1-0.1,0.2-0.1,0.3-0.1s0.2,0,0.3,0.1C88.3,114.6,88.4,114.7,88.4,114.8z"/>
	<path d="M92.4,117.7c0,0.4-0.1,0.7-0.2,1c-0.1,0.3-0.2,0.6-0.4,0.8c-0.2,0.2-0.4,0.4-0.7,0.6c-0.3,0.1-0.6,0.2-0.9,0.2
		c-0.2,0-0.4,0-0.6-0.1c-0.2-0.1-0.3-0.2-0.5-0.3c-0.1-0.1-0.2-0.3-0.3-0.5c-0.1-0.2-0.1-0.4-0.1-0.7c0-0.4,0.1-0.7,0.2-1
		c0.1-0.3,0.3-0.6,0.4-0.8c0.2-0.2,0.4-0.4,0.7-0.6c0.3-0.1,0.6-0.2,0.9-0.2c0.2,0,0.4,0,0.6,0.1c0.2,0.1,0.3,0.2,0.5,0.3
		c0.1,0.1,0.2,0.3,0.3,0.5C92.3,117.3,92.4,117.5,92.4,117.7z M91.7,117.8c0-0.2,0-0.3-0.1-0.5s-0.1-0.2-0.2-0.3s-0.2-0.2-0.3-0.2
		s-0.2-0.1-0.4-0.1c-0.2,0-0.4,0.1-0.6,0.2c-0.2,0.1-0.3,0.3-0.5,0.5s-0.2,0.4-0.3,0.7c-0.1,0.2-0.1,0.5-0.1,0.7
		c0,0.2,0,0.3,0.1,0.4c0,0.1,0.1,0.2,0.2,0.3c0.1,0.1,0.2,0.2,0.3,0.2c0.1,0,0.2,0.1,0.4,0.1c0.2,0,0.4-0.1,0.6-0.2
		c0.2-0.1,0.3-0.3,0.5-0.5c0.1-0.2,0.2-0.4,0.3-0.7S91.7,118,91.7,117.8z"/>
	<path d="M96.8,117.2c0,0,0,0.1,0,0.2c0,0.1,0,0.1,0,0.2s0,0.2,0,0.2c0,0.1,0,0.1,0,0.2l-0.5,2.2h-0.6l0.5-2.3c0,0,0-0.1,0-0.1
		c0-0.1,0-0.1,0-0.2c0-0.1,0-0.1,0-0.2c0,0,0-0.1,0-0.1c0-0.2,0-0.4-0.1-0.5c-0.1-0.1-0.2-0.2-0.4-0.2c-0.2,0-0.3,0.1-0.5,0.2
		s-0.3,0.2-0.5,0.4s-0.3,0.3-0.4,0.5s-0.2,0.4-0.2,0.5l-0.4,2h-0.6l0.6-2.9c0-0.1,0-0.2,0.1-0.3c0-0.1,0-0.2,0.1-0.3
		c0-0.1,0-0.2,0-0.3s0-0.2,0-0.2h0.6c0,0.1,0,0.2,0,0.3c0,0.1,0,0.2,0,0.3c0,0.1,0,0.2-0.1,0.3h0c0.1-0.1,0.2-0.3,0.3-0.4
		c0.1-0.1,0.2-0.2,0.4-0.3c0.1-0.1,0.3-0.2,0.4-0.2c0.1-0.1,0.3-0.1,0.5-0.1c0.2,0,0.3,0,0.5,0.1s0.2,0.1,0.3,0.2
		c0.1,0.1,0.1,0.2,0.2,0.3S96.8,117.1,96.8,117.2z"/>
	<path d="M100,117c-0.1-0.1-0.2-0.1-0.4-0.2c-0.1,0-0.3-0.1-0.4-0.1c-0.2,0-0.4,0.1-0.6,0.2c-0.1,0.1-0.2,0.3-0.2,0.4
		c0,0.1,0,0.1,0,0.2c0,0.1,0.1,0.1,0.1,0.2s0.1,0.1,0.2,0.2c0.1,0.1,0.2,0.1,0.3,0.2c0.3,0.2,0.5,0.3,0.6,0.5
		c0.1,0.2,0.2,0.4,0.2,0.6c0,0.2,0,0.3-0.1,0.4s-0.1,0.3-0.3,0.4c-0.1,0.1-0.3,0.2-0.5,0.3c-0.2,0.1-0.4,0.1-0.7,0.1
		c-0.1,0-0.2,0-0.3,0c-0.1,0-0.2,0-0.3,0c-0.1,0-0.2,0-0.3-0.1c-0.1,0-0.2-0.1-0.2-0.1l0.1-0.6c0.1,0,0.1,0.1,0.2,0.1
		s0.2,0.1,0.3,0.1s0.2,0.1,0.3,0.1c0.1,0,0.2,0,0.3,0c0.3,0,0.5-0.1,0.6-0.2s0.2-0.2,0.2-0.4c0-0.1,0-0.1,0-0.2
		c0-0.1-0.1-0.1-0.1-0.2c0-0.1-0.1-0.1-0.2-0.2c-0.1-0.1-0.2-0.1-0.3-0.2c-0.3-0.2-0.5-0.3-0.6-0.5c-0.1-0.2-0.2-0.4-0.2-0.6
		c0-0.2,0-0.3,0.1-0.5c0.1-0.1,0.1-0.3,0.3-0.4c0.1-0.1,0.3-0.2,0.4-0.3s0.4-0.1,0.6-0.1c0.2,0,0.4,0,0.5,0.1c0.2,0,0.3,0.1,0.4,0.1
		L100,117z"/>
</g>
<g>
	<path d="M165.5,115.5c-0.1,0-0.1-0.1-0.2-0.1s-0.2-0.1-0.3-0.1c-0.1,0-0.2-0.1-0.3-0.1c-0.1,0-0.2,0-0.3,0c-0.2,0-0.4,0-0.5,0.1
		s-0.3,0.1-0.3,0.2c-0.1,0.1-0.1,0.2-0.2,0.3c0,0.1-0.1,0.2-0.1,0.3c0,0.1,0,0.2,0.1,0.3s0.1,0.2,0.2,0.3c0.1,0.1,0.2,0.2,0.3,0.3
		s0.2,0.2,0.4,0.3c0.2,0.1,0.3,0.2,0.4,0.3c0.1,0.1,0.2,0.2,0.3,0.4c0.1,0.1,0.2,0.2,0.2,0.4c0,0.1,0.1,0.3,0.1,0.4
		c0,0.1,0,0.2,0,0.3s-0.1,0.2-0.1,0.4c-0.1,0.1-0.1,0.2-0.2,0.3c-0.1,0.1-0.2,0.2-0.3,0.3s-0.3,0.2-0.5,0.2
		c-0.2,0.1-0.4,0.1-0.7,0.1c-0.1,0-0.3,0-0.4,0c-0.1,0-0.3,0-0.4-0.1c-0.1,0-0.2-0.1-0.3-0.1c-0.1,0-0.2-0.1-0.3-0.1l0.1-0.7
		c0.1,0.1,0.2,0.1,0.3,0.2s0.2,0.1,0.3,0.1s0.2,0.1,0.4,0.1s0.3,0,0.4,0c0.2,0,0.4,0,0.5-0.1c0.1,0,0.3-0.1,0.4-0.2
		c0.1-0.1,0.2-0.2,0.2-0.3c0-0.1,0.1-0.2,0.1-0.4c0-0.1,0-0.2-0.1-0.3c0-0.1-0.1-0.2-0.2-0.3c-0.1-0.1-0.2-0.2-0.3-0.3
		c-0.1-0.1-0.3-0.2-0.4-0.3c-0.1-0.1-0.2-0.2-0.4-0.3c-0.1-0.1-0.2-0.2-0.3-0.3s-0.2-0.3-0.2-0.4c-0.1-0.1-0.1-0.3-0.1-0.5
		c0-0.2,0-0.4,0.1-0.6s0.2-0.4,0.4-0.5c0.2-0.1,0.4-0.3,0.6-0.3c0.2-0.1,0.5-0.1,0.8-0.1c0.1,0,0.2,0,0.4,0s0.2,0,0.3,0.1
		s0.2,0.1,0.3,0.1c0.1,0,0.2,0.1,0.3,0.1L165.5,115.5z"/>
	<path d="M167.2,120.2c-0.1,0-0.1,0-0.2,0.1c-0.1,0-0.2,0-0.2,0c-0.3,0-0.5-0.1-0.6-0.2s-0.2-0.3-0.2-0.5c0-0.1,0-0.1,0-0.2
		c0-0.1,0-0.2,0.1-0.3l0.6-2.8h0.6l-0.6,2.8c0,0.1,0,0.2,0,0.3c0,0.1,0,0.1,0,0.2c0,0.1,0,0.2,0.1,0.2s0.2,0.1,0.3,0.1
		c0.1,0,0.1,0,0.2,0c0.1,0,0.1,0,0.1,0L167.2,120.2z M167.7,114.8c0,0.1,0,0.2-0.1,0.3c-0.1,0.1-0.2,0.1-0.3,0.1
		c-0.1,0-0.2,0-0.3-0.1c-0.1-0.1-0.1-0.2-0.1-0.3c0-0.1,0-0.2,0.1-0.3c0.1-0.1,0.2-0.1,0.3-0.1s0.2,0,0.3,0.1
		S167.7,114.7,167.7,114.8z"/>
	<path d="M171.2,119c0,0.1,0,0.2-0.1,0.3c0,0.1,0,0.2,0,0.4c0,0.1,0,0.2,0,0.3c0,0.1,0,0.2,0,0.2h-0.7c0,0,0-0.1,0-0.2s0-0.2,0-0.2
		c0-0.1,0-0.2,0-0.2c0-0.1,0-0.1,0-0.2h0c-0.1,0.2-0.2,0.3-0.3,0.4c-0.1,0.1-0.2,0.2-0.3,0.3s-0.2,0.1-0.3,0.2
		c-0.1,0-0.2,0.1-0.4,0.1c-0.2,0-0.3,0-0.5-0.1c-0.1-0.1-0.3-0.2-0.4-0.3c-0.1-0.1-0.2-0.3-0.2-0.5c-0.1-0.2-0.1-0.4-0.1-0.6
		c0-0.2,0-0.4,0.1-0.6c0-0.2,0.1-0.4,0.2-0.6c0.1-0.2,0.2-0.4,0.3-0.6s0.3-0.3,0.5-0.5c0.2-0.1,0.4-0.2,0.6-0.3s0.5-0.1,0.8-0.1
		c0.1,0,0.3,0,0.4,0c0.1,0,0.2,0,0.3,0.1l0.4-1.9h0.6L171.2,119z M171,116.8c-0.1,0-0.2-0.1-0.3-0.1c-0.1,0-0.2,0-0.3,0
		c-0.2,0-0.4,0-0.6,0.1c-0.2,0.1-0.3,0.2-0.5,0.3c-0.1,0.1-0.2,0.3-0.3,0.4c-0.1,0.1-0.2,0.3-0.2,0.5c-0.1,0.2-0.1,0.3-0.1,0.5
		c0,0.2,0,0.3,0,0.4c0,0.1,0,0.3,0,0.4c0,0.1,0.1,0.2,0.1,0.3c0.1,0.1,0.1,0.2,0.2,0.2c0.1,0,0.2,0.1,0.3,0.1c0.1,0,0.3,0,0.4-0.1
		s0.2-0.1,0.3-0.2c0.1-0.1,0.2-0.2,0.3-0.3c0.1-0.1,0.2-0.3,0.2-0.4c0.1-0.1,0.1-0.3,0.2-0.4c0-0.1,0.1-0.3,0.1-0.4L171,116.8z"/>
	<path d="M175.8,117.2c0,0.2,0,0.4-0.1,0.6c-0.1,0.2-0.2,0.3-0.5,0.4s-0.5,0.2-0.9,0.3s-0.8,0.1-1.3,0.1c0,0,0,0.1,0,0.1
		c0,0,0,0.1,0,0.1c0,0.1,0,0.3,0.1,0.4c0,0.1,0.1,0.2,0.2,0.3c0.1,0.1,0.2,0.2,0.3,0.2c0.1,0.1,0.3,0.1,0.5,0.1c0.2,0,0.4,0,0.6-0.1
		c0.2-0.1,0.4-0.2,0.6-0.3l-0.1,0.6c-0.1,0.1-0.3,0.2-0.5,0.2s-0.4,0.1-0.7,0.1c-0.3,0-0.5,0-0.7-0.1c-0.2-0.1-0.4-0.2-0.5-0.4
		c-0.1-0.2-0.2-0.3-0.3-0.5c-0.1-0.2-0.1-0.4-0.1-0.6c0-0.2,0-0.5,0.1-0.7s0.1-0.4,0.2-0.6c0.1-0.2,0.2-0.4,0.3-0.5s0.3-0.3,0.4-0.4
		c0.2-0.1,0.3-0.2,0.5-0.3c0.2-0.1,0.4-0.1,0.6-0.1c0.2,0,0.4,0,0.5,0.1c0.2,0.1,0.3,0.1,0.4,0.2c0.1,0.1,0.2,0.2,0.2,0.3
		S175.8,117,175.8,117.2z M175.1,117.2c0-0.2-0.1-0.3-0.2-0.4c-0.1-0.1-0.3-0.1-0.5-0.1c-0.2,0-0.3,0-0.5,0.1
		c-0.1,0.1-0.3,0.2-0.4,0.3c-0.1,0.1-0.2,0.3-0.3,0.4c-0.1,0.2-0.2,0.4-0.2,0.5c0.4,0,0.7,0,1-0.1c0.3,0,0.5-0.1,0.6-0.2
		c0.2-0.1,0.3-0.2,0.4-0.3C175.1,117.5,175.1,117.3,175.1,117.2z"/>
	<path d="M178.6,118.3h-2.1l0.1-0.5h2.1L178.6,118.3z"/>
	<path d="M183.2,117.6c0,0.2,0,0.4-0.1,0.6c0,0.2-0.1,0.4-0.2,0.6c-0.1,0.2-0.2,0.4-0.3,0.6c-0.1,0.2-0.3,0.3-0.5,0.5
		s-0.4,0.3-0.6,0.3c-0.2,0.1-0.5,0.1-0.8,0.1c-0.1,0-0.2,0-0.4,0c-0.1,0-0.3,0-0.4-0.1c-0.1,0-0.2-0.1-0.4-0.1
		c-0.1,0-0.2-0.1-0.3-0.2l1.2-5.7h0.6l-0.4,1.9c0,0.1-0.1,0.3-0.1,0.4c0,0.1-0.1,0.3-0.1,0.4h0c0.1-0.1,0.2-0.3,0.3-0.4
		c0.1-0.1,0.2-0.2,0.3-0.3c0.1-0.1,0.2-0.1,0.3-0.2c0.1,0,0.3-0.1,0.4-0.1c0.4,0,0.7,0.1,0.9,0.4
		C183.1,116.8,183.2,117.2,183.2,117.6z M182.5,117.7c0-0.1,0-0.3,0-0.4c0-0.1-0.1-0.2-0.1-0.3c-0.1-0.1-0.1-0.1-0.2-0.2
		c-0.1,0-0.2-0.1-0.3-0.1c-0.2,0-0.3,0-0.5,0.1c-0.2,0.1-0.3,0.2-0.4,0.4s-0.2,0.3-0.3,0.5c-0.1,0.2-0.2,0.4-0.2,0.6l-0.3,1.2
		c0.1,0,0.2,0.1,0.3,0.1c0.1,0,0.3,0.1,0.4,0.1c0.2,0,0.4,0,0.5-0.1s0.3-0.1,0.4-0.3c0.1-0.1,0.2-0.2,0.3-0.4
		c0.1-0.1,0.2-0.3,0.2-0.4c0.1-0.2,0.1-0.3,0.1-0.5S182.5,117.8,182.5,117.7z"/>
	<path d="M184.8,120.9c-0.1,0.2-0.2,0.4-0.4,0.5c-0.1,0.1-0.3,0.3-0.4,0.4c-0.1,0.1-0.3,0.2-0.4,0.2c-0.2,0.1-0.3,0.1-0.5,0.1
		c-0.1,0-0.1,0-0.2,0c-0.1,0-0.1,0-0.2,0l0.1-0.6c0,0,0.1,0,0.2,0.1c0.1,0,0.1,0,0.2,0c0.2,0,0.3,0,0.5-0.1c0.1-0.1,0.3-0.3,0.4-0.5
		l0.5-0.7l-0.7-4h0.7l0.5,3.1c0,0.1,0,0.1,0,0.2c0,0.1,0,0.1,0,0.1h0c0,0,0-0.1,0.1-0.1c0-0.1,0.1-0.1,0.1-0.2l1.8-3.1h0.7
		L184.8,120.9z"/>
	<path d="M189.9,118.3h-2.1l0.1-0.5h2.1L189.9,118.3z"/>
	<path d="M193.3,117c-0.1-0.1-0.2-0.1-0.4-0.2c-0.1,0-0.3-0.1-0.4-0.1c-0.2,0-0.4,0.1-0.6,0.2c-0.1,0.1-0.2,0.3-0.2,0.4
		c0,0.1,0,0.1,0,0.2c0,0.1,0.1,0.1,0.1,0.2c0,0.1,0.1,0.1,0.2,0.2c0.1,0.1,0.2,0.1,0.3,0.2c0.3,0.2,0.5,0.3,0.6,0.5
		c0.1,0.2,0.2,0.4,0.2,0.6c0,0.2,0,0.3-0.1,0.4c-0.1,0.1-0.1,0.3-0.3,0.4c-0.1,0.1-0.3,0.2-0.5,0.3c-0.2,0.1-0.4,0.1-0.7,0.1
		c-0.1,0-0.2,0-0.3,0c-0.1,0-0.2,0-0.3,0c-0.1,0-0.2,0-0.3-0.1s-0.2-0.1-0.2-0.1l0.1-0.6c0.1,0,0.1,0.1,0.2,0.1
		c0.1,0,0.2,0.1,0.3,0.1s0.2,0.1,0.3,0.1c0.1,0,0.2,0,0.3,0c0.3,0,0.5-0.1,0.6-0.2c0.1-0.1,0.2-0.2,0.2-0.4c0-0.1,0-0.1,0-0.2
		c0-0.1-0.1-0.1-0.1-0.2c0-0.1-0.1-0.1-0.2-0.2c-0.1-0.1-0.2-0.1-0.3-0.2c-0.3-0.2-0.5-0.3-0.6-0.5c-0.1-0.2-0.2-0.4-0.2-0.6
		c0-0.2,0-0.3,0.1-0.5c0.1-0.1,0.1-0.3,0.3-0.4s0.3-0.2,0.4-0.3s0.4-0.1,0.6-0.1c0.2,0,0.4,0,0.5,0.1c0.2,0,0.3,0.1,0.4,0.1
		L193.3,117z"/>
	<path d="M195.3,120.2c-0.1,0-0.1,0-0.2,0.1c-0.1,0-0.2,0-0.2,0c-0.3,0-0.5-0.1-0.6-0.2s-0.2-0.3-0.2-0.5c0-0.1,0-0.1,0-0.2
		c0-0.1,0-0.2,0.1-0.3l0.6-2.8h0.6l-0.6,2.8c0,0.1,0,0.2,0,0.3c0,0.1,0,0.1,0,0.2c0,0.1,0,0.2,0.1,0.2c0.1,0.1,0.2,0.1,0.3,0.1
		c0.1,0,0.1,0,0.2,0c0.1,0,0.1,0,0.1,0L195.3,120.2z M195.7,114.8c0,0.1,0,0.2-0.1,0.3c-0.1,0.1-0.2,0.1-0.3,0.1
		c-0.1,0-0.2,0-0.3-0.1c-0.1-0.1-0.1-0.2-0.1-0.3c0-0.1,0-0.2,0.1-0.3s0.2-0.1,0.3-0.1c0.1,0,0.2,0,0.3,0.1S195.7,114.7,195.7,114.8
		z"/>
	<path d="M199.2,119c0,0.1,0,0.2-0.1,0.3s0,0.2,0,0.4c0,0.1,0,0.2,0,0.3s0,0.2,0,0.2h-0.7c0,0,0-0.1,0-0.2s0-0.2,0-0.2
		c0-0.1,0-0.2,0-0.2c0-0.1,0-0.1,0-0.2h0c-0.1,0.2-0.2,0.3-0.3,0.4c-0.1,0.1-0.2,0.2-0.3,0.3s-0.2,0.1-0.3,0.2
		c-0.1,0-0.2,0.1-0.4,0.1c-0.2,0-0.3,0-0.5-0.1c-0.1-0.1-0.3-0.2-0.4-0.3c-0.1-0.1-0.2-0.3-0.2-0.5c-0.1-0.2-0.1-0.4-0.1-0.6
		c0-0.2,0-0.4,0.1-0.6c0-0.2,0.1-0.4,0.2-0.6c0.1-0.2,0.2-0.4,0.3-0.6c0.1-0.2,0.3-0.3,0.5-0.5c0.2-0.1,0.4-0.2,0.6-0.3
		s0.5-0.1,0.8-0.1c0.1,0,0.3,0,0.4,0c0.1,0,0.2,0,0.3,0.1l0.4-1.9h0.6L199.2,119z M199.1,116.8c-0.1,0-0.2-0.1-0.3-0.1
		c-0.1,0-0.2,0-0.3,0c-0.2,0-0.4,0-0.6,0.1s-0.3,0.2-0.5,0.3c-0.1,0.1-0.2,0.3-0.3,0.4c-0.1,0.1-0.2,0.3-0.2,0.5
		c-0.1,0.2-0.1,0.3-0.1,0.5s0,0.3,0,0.4c0,0.1,0,0.3,0,0.4c0,0.1,0.1,0.2,0.1,0.3c0.1,0.1,0.1,0.2,0.2,0.2c0.1,0,0.2,0.1,0.3,0.1
		c0.1,0,0.3,0,0.4-0.1c0.1-0.1,0.2-0.1,0.3-0.2c0.1-0.1,0.2-0.2,0.3-0.3c0.1-0.1,0.2-0.3,0.2-0.4c0.1-0.1,0.1-0.3,0.2-0.4
		s0.1-0.3,0.1-0.4L199.1,116.8z"/>
	<path d="M203.8,117.2c0,0.2,0,0.4-0.1,0.6c-0.1,0.2-0.2,0.3-0.5,0.4c-0.2,0.1-0.5,0.2-0.9,0.3c-0.4,0.1-0.8,0.1-1.3,0.1
		c0,0,0,0.1,0,0.1c0,0,0,0.1,0,0.1c0,0.1,0,0.3,0.1,0.4c0,0.1,0.1,0.2,0.2,0.3c0.1,0.1,0.2,0.2,0.3,0.2c0.1,0.1,0.3,0.1,0.5,0.1
		c0.2,0,0.4,0,0.6-0.1s0.4-0.2,0.6-0.3l-0.1,0.6c-0.1,0.1-0.3,0.2-0.5,0.2c-0.2,0.1-0.4,0.1-0.7,0.1c-0.3,0-0.5,0-0.7-0.1
		c-0.2-0.1-0.4-0.2-0.5-0.4c-0.1-0.2-0.2-0.3-0.3-0.5c-0.1-0.2-0.1-0.4-0.1-0.6c0-0.2,0-0.5,0.1-0.7s0.1-0.4,0.2-0.6
		c0.1-0.2,0.2-0.4,0.3-0.5s0.3-0.3,0.4-0.4c0.2-0.1,0.3-0.2,0.5-0.3c0.2-0.1,0.4-0.1,0.6-0.1c0.2,0,0.4,0,0.5,0.1
		c0.2,0.1,0.3,0.1,0.4,0.2c0.1,0.1,0.2,0.2,0.2,0.3C203.8,116.9,203.8,117,203.8,117.2z M203.1,117.2c0-0.2-0.1-0.3-0.2-0.4
		c-0.1-0.1-0.3-0.1-0.5-0.1c-0.2,0-0.3,0-0.5,0.1c-0.1,0.1-0.3,0.2-0.4,0.3c-0.1,0.1-0.2,0.3-0.3,0.4c-0.1,0.2-0.2,0.4-0.2,0.5
		c0.4,0,0.7,0,1-0.1c0.3,0,0.5-0.1,0.6-0.2c0.2-0.1,0.3-0.2,0.4-0.3C203.1,117.5,203.1,117.3,203.1,117.2z"/>
	<path d="M209.7,119c0,0.1,0,0.2-0.1,0.3s0,0.2,0,0.4c0,0.1,0,0.2,0,0.3s0,0.2,0,0.2h-0.7c0,0,0-0.1,0-0.2c0-0.1,0-0.2,0-0.2
		c0-0.1,0-0.2,0-0.2s0-0.1,0-0.2h0c-0.1,0.2-0.2,0.3-0.3,0.4s-0.2,0.2-0.3,0.3s-0.2,0.1-0.3,0.2s-0.2,0.1-0.4,0.1
		c-0.2,0-0.3,0-0.5-0.1c-0.1-0.1-0.3-0.2-0.4-0.3c-0.1-0.1-0.2-0.3-0.2-0.5c-0.1-0.2-0.1-0.4-0.1-0.6c0-0.2,0-0.4,0.1-0.6
		c0-0.2,0.1-0.4,0.2-0.6c0.1-0.2,0.2-0.4,0.3-0.6s0.3-0.3,0.5-0.5c0.2-0.1,0.4-0.2,0.6-0.3s0.5-0.1,0.8-0.1c0.1,0,0.3,0,0.4,0
		c0.1,0,0.2,0,0.3,0.1l0.4-1.9h0.6L209.7,119z M209.5,116.8c-0.1,0-0.2-0.1-0.3-0.1c-0.1,0-0.2,0-0.3,0c-0.2,0-0.4,0-0.6,0.1
		c-0.2,0.1-0.3,0.2-0.5,0.3c-0.1,0.1-0.2,0.3-0.3,0.4c-0.1,0.1-0.2,0.3-0.2,0.5c-0.1,0.2-0.1,0.3-0.1,0.5c0,0.2,0,0.3,0,0.4
		c0,0.1,0,0.3,0,0.4c0,0.1,0.1,0.2,0.1,0.3c0.1,0.1,0.1,0.2,0.2,0.2s0.2,0.1,0.3,0.1c0.1,0,0.3,0,0.4-0.1s0.2-0.1,0.3-0.2
		c0.1-0.1,0.2-0.2,0.3-0.3c0.1-0.1,0.2-0.3,0.2-0.4c0.1-0.1,0.1-0.3,0.2-0.4c0-0.1,0.1-0.3,0.1-0.4L209.5,116.8z"/>
	<path d="M214.2,117.2c0,0.2,0,0.4-0.1,0.6c-0.1,0.2-0.2,0.3-0.5,0.4c-0.2,0.1-0.5,0.2-0.9,0.3s-0.8,0.1-1.3,0.1c0,0,0,0.1,0,0.1
		c0,0,0,0.1,0,0.1c0,0.1,0,0.3,0.1,0.4c0,0.1,0.1,0.2,0.2,0.3c0.1,0.1,0.2,0.2,0.3,0.2c0.1,0.1,0.3,0.1,0.5,0.1c0.2,0,0.4,0,0.6-0.1
		s0.4-0.2,0.6-0.3l-0.1,0.6c-0.1,0.1-0.3,0.2-0.5,0.2c-0.2,0.1-0.4,0.1-0.7,0.1c-0.3,0-0.5,0-0.7-0.1c-0.2-0.1-0.4-0.2-0.5-0.4
		c-0.1-0.2-0.2-0.3-0.3-0.5c-0.1-0.2-0.1-0.4-0.1-0.6c0-0.2,0-0.5,0.1-0.7s0.1-0.4,0.2-0.6s0.2-0.4,0.3-0.5s0.3-0.3,0.4-0.4
		c0.2-0.1,0.3-0.2,0.5-0.3c0.2-0.1,0.4-0.1,0.6-0.1c0.2,0,0.4,0,0.5,0.1c0.2,0.1,0.3,0.1,0.4,0.2c0.1,0.1,0.2,0.2,0.2,0.3
		S214.2,117,214.2,117.2z M213.6,117.2c0-0.2-0.1-0.3-0.2-0.4c-0.1-0.1-0.3-0.1-0.5-0.1c-0.2,0-0.3,0-0.5,0.1
		c-0.1,0.1-0.3,0.2-0.4,0.3c-0.1,0.1-0.2,0.3-0.3,0.4c-0.1,0.2-0.2,0.4-0.2,0.5c0.4,0,0.7,0,1-0.1c0.3,0,0.5-0.1,0.6-0.2
		c0.2-0.1,0.3-0.2,0.4-0.3C213.5,117.5,213.6,117.3,213.6,117.2z"/>
	<path d="M218.4,117.6c0,0.2,0,0.4-0.1,0.6c0,0.2-0.1,0.4-0.2,0.6c-0.1,0.2-0.2,0.4-0.3,0.6c-0.1,0.2-0.3,0.3-0.5,0.5
		s-0.4,0.2-0.6,0.3c-0.2,0.1-0.5,0.1-0.7,0.1c-0.2,0-0.3,0-0.5,0c-0.1,0-0.3-0.1-0.4-0.1l-0.4,1.9h-0.6l1-4.6c0-0.1,0-0.2,0.1-0.3
		c0-0.1,0-0.2,0-0.4s0-0.2,0-0.3c0-0.1,0-0.2,0-0.2h0.7c0,0,0,0.1,0,0.2c0,0.1,0,0.2,0,0.2c0,0.1,0,0.2,0,0.2c0,0.1,0,0.1,0,0.2h0
		c0.2-0.3,0.4-0.6,0.6-0.7s0.5-0.2,0.8-0.2c0.2,0,0.3,0,0.5,0.1c0.1,0.1,0.3,0.2,0.4,0.3c0.1,0.1,0.2,0.3,0.2,0.5
		C218.4,117.2,218.4,117.4,218.4,117.6z M217.8,117.7c0-0.1,0-0.3,0-0.4c0-0.1-0.1-0.2-0.1-0.3c-0.1-0.1-0.1-0.2-0.2-0.2
		c-0.1,0-0.2-0.1-0.3-0.1c-0.1,0-0.3,0-0.4,0.1c-0.1,0.1-0.2,0.1-0.3,0.2s-0.2,0.2-0.3,0.3c-0.1,0.1-0.2,0.3-0.2,0.4
		c-0.1,0.1-0.1,0.3-0.2,0.4c0,0.1-0.1,0.3-0.1,0.4l-0.2,1.2c0,0,0.1,0,0.2,0.1c0.1,0,0.1,0,0.2,0c0.1,0,0.1,0,0.2,0
		c0.1,0,0.1,0,0.2,0c0.2,0,0.3,0,0.5-0.1c0.2-0.1,0.3-0.1,0.4-0.2c0.1-0.1,0.2-0.2,0.3-0.4s0.2-0.3,0.2-0.4c0.1-0.2,0.1-0.3,0.1-0.5
		S217.8,117.8,217.8,117.7z"/>
	<path d="M220.4,120.2c-0.1,0-0.1,0-0.2,0.1s-0.2,0-0.2,0c-0.3,0-0.5-0.1-0.6-0.2s-0.2-0.3-0.2-0.5c0-0.1,0-0.1,0-0.2s0-0.2,0.1-0.3
		l1-4.7h0.6l-1,4.7c0,0.1,0,0.2,0,0.3c0,0.1,0,0.1,0,0.2c0,0.1,0,0.2,0.1,0.2s0.2,0.1,0.3,0.1c0.1,0,0.1,0,0.2,0c0.1,0,0.1,0,0.1,0
		L220.4,120.2z"/>
	<path d="M224.8,117.7c0,0.4-0.1,0.7-0.2,1c-0.1,0.3-0.2,0.6-0.4,0.8c-0.2,0.2-0.4,0.4-0.7,0.6c-0.3,0.1-0.6,0.2-0.9,0.2
		c-0.2,0-0.4,0-0.6-0.1c-0.2-0.1-0.3-0.2-0.5-0.3c-0.1-0.1-0.2-0.3-0.3-0.5c-0.1-0.2-0.1-0.4-0.1-0.7c0-0.4,0.1-0.7,0.2-1
		c0.1-0.3,0.3-0.6,0.4-0.8c0.2-0.2,0.4-0.4,0.7-0.6c0.3-0.1,0.6-0.2,0.9-0.2c0.2,0,0.4,0,0.6,0.1c0.2,0.1,0.3,0.2,0.5,0.3
		c0.1,0.1,0.2,0.3,0.3,0.5C224.7,117.3,224.8,117.5,224.8,117.7z M224.1,117.8c0-0.2,0-0.3-0.1-0.5c0-0.1-0.1-0.2-0.2-0.3
		s-0.2-0.2-0.3-0.2s-0.2-0.1-0.4-0.1c-0.2,0-0.4,0.1-0.6,0.2c-0.2,0.1-0.3,0.3-0.5,0.5s-0.2,0.4-0.3,0.7s-0.1,0.5-0.1,0.7
		c0,0.2,0,0.3,0.1,0.4c0,0.1,0.1,0.2,0.2,0.3c0.1,0.1,0.2,0.2,0.3,0.2c0.1,0,0.2,0.1,0.4,0.1c0.2,0,0.4-0.1,0.6-0.2
		c0.2-0.1,0.3-0.3,0.5-0.5c0.1-0.2,0.2-0.4,0.3-0.7C224.1,118.3,224.1,118,224.1,117.8z"/>
	<path d="M226.4,120.9c-0.1,0.2-0.2,0.4-0.4,0.5c-0.1,0.1-0.3,0.3-0.4,0.4c-0.1,0.1-0.3,0.2-0.4,0.2c-0.2,0.1-0.3,0.1-0.5,0.1
		c-0.1,0-0.1,0-0.2,0c-0.1,0-0.1,0-0.2,0l0.1-0.6c0,0,0.1,0,0.2,0.1c0.1,0,0.1,0,0.2,0c0.2,0,0.3,0,0.5-0.1c0.1-0.1,0.3-0.3,0.4-0.5
		l0.5-0.7l-0.7-4h0.7l0.5,3.1c0,0.1,0,0.1,0,0.2c0,0.1,0,0.1,0,0.1h0c0,0,0-0.1,0.1-0.1c0-0.1,0.1-0.1,0.1-0.2l1.8-3.1h0.7
		L226.4,120.9z"/>
	<path d="M235.4,117.3c0,0,0,0.1,0,0.2c0,0.1,0,0.1,0,0.2c0,0.1,0,0.2,0,0.2s0,0.1,0,0.2l-0.5,2.2h-0.6l0.5-2.3c0,0,0-0.1,0-0.1
		c0-0.1,0-0.1,0-0.2s0-0.1,0-0.1c0,0,0-0.1,0-0.1c0-0.2,0-0.4-0.1-0.5c-0.1-0.1-0.2-0.2-0.4-0.2c-0.1,0-0.2,0-0.3,0.1
		c-0.1,0-0.2,0.1-0.3,0.2c-0.1,0.1-0.2,0.2-0.3,0.3c-0.1,0.1-0.2,0.2-0.3,0.3c-0.1,0.1-0.1,0.2-0.2,0.4c-0.1,0.1-0.1,0.2-0.1,0.4
		l-0.4,2h-0.6l0.5-2.3c0,0,0-0.1,0-0.1c0-0.1,0-0.1,0-0.2s0-0.1,0-0.1c0,0,0-0.1,0-0.1c0-0.2,0-0.4-0.1-0.5
		c-0.1-0.1-0.2-0.2-0.4-0.2c-0.1,0-0.2,0-0.3,0.1c-0.1,0-0.2,0.1-0.3,0.2c-0.1,0.1-0.2,0.2-0.3,0.3s-0.2,0.2-0.3,0.3
		s-0.1,0.2-0.2,0.4c-0.1,0.1-0.1,0.2-0.1,0.4l-0.4,2h-0.6l0.6-2.9c0-0.1,0-0.2,0.1-0.3c0-0.1,0-0.2,0.1-0.3s0-0.2,0-0.3
		c0-0.1,0-0.2,0-0.2h0.6c0,0.1,0,0.2,0,0.3c0,0.1,0,0.2,0,0.3c0,0.1,0,0.2-0.1,0.3h0c0.1-0.2,0.2-0.3,0.3-0.4s0.2-0.2,0.3-0.3
		c0.1-0.1,0.3-0.2,0.4-0.2s0.3-0.1,0.4-0.1c0.2,0,0.3,0,0.4,0.1c0.1,0,0.2,0.1,0.3,0.2c0.1,0.1,0.1,0.2,0.2,0.3s0.1,0.3,0.1,0.4
		c0.1-0.1,0.2-0.3,0.3-0.4c0.1-0.1,0.2-0.2,0.4-0.3c0.1-0.1,0.3-0.2,0.4-0.2s0.3-0.1,0.5-0.1c0.3,0,0.6,0.1,0.8,0.3
		C235.3,116.6,235.4,116.9,235.4,117.3z"/>
	<path d="M239.5,117.2c0,0.2,0,0.4-0.1,0.6c-0.1,0.2-0.2,0.3-0.5,0.4c-0.2,0.1-0.5,0.2-0.9,0.3s-0.8,0.1-1.3,0.1c0,0,0,0.1,0,0.1
		c0,0,0,0.1,0,0.1c0,0.1,0,0.3,0.1,0.4c0,0.1,0.1,0.2,0.2,0.3c0.1,0.1,0.2,0.2,0.3,0.2c0.1,0.1,0.3,0.1,0.5,0.1c0.2,0,0.4,0,0.6-0.1
		s0.4-0.2,0.6-0.3l-0.1,0.6c-0.1,0.1-0.3,0.2-0.5,0.2s-0.4,0.1-0.7,0.1c-0.3,0-0.5,0-0.7-0.1c-0.2-0.1-0.4-0.2-0.5-0.4
		c-0.1-0.2-0.2-0.3-0.3-0.5c-0.1-0.2-0.1-0.4-0.1-0.6c0-0.2,0-0.5,0.1-0.7s0.1-0.4,0.2-0.6s0.2-0.4,0.3-0.5s0.3-0.3,0.4-0.4
		c0.2-0.1,0.3-0.2,0.5-0.3c0.2-0.1,0.4-0.1,0.6-0.1c0.2,0,0.4,0,0.5,0.1c0.2,0.1,0.3,0.1,0.4,0.2c0.1,0.1,0.2,0.2,0.2,0.3
		S239.5,117,239.5,117.2z M238.9,117.2c0-0.2-0.1-0.3-0.2-0.4c-0.1-0.1-0.3-0.1-0.5-0.1c-0.2,0-0.3,0-0.5,0.1
		c-0.1,0.1-0.3,0.2-0.4,0.3c-0.1,0.1-0.2,0.3-0.3,0.4c-0.1,0.2-0.2,0.4-0.2,0.5c0.4,0,0.7,0,1-0.1c0.3,0,0.5-0.1,0.6-0.2
		s0.3-0.2,0.4-0.3C238.8,117.5,238.9,117.3,238.9,117.2z"/>
	<path d="M243.8,117.2c0,0,0,0.1,0,0.2s0,0.1,0,0.2s0,0.2,0,0.2s0,0.1,0,0.2l-0.5,2.2h-0.6l0.5-2.3c0,0,0-0.1,0-0.1
		c0-0.1,0-0.1,0-0.2c0-0.1,0-0.1,0-0.2c0,0,0-0.1,0-0.1c0-0.2,0-0.4-0.1-0.5s-0.2-0.2-0.4-0.2c-0.2,0-0.3,0.1-0.5,0.2
		c-0.2,0.1-0.3,0.2-0.5,0.4s-0.3,0.3-0.4,0.5c-0.1,0.2-0.2,0.4-0.2,0.5l-0.4,2h-0.6l0.6-2.9c0-0.1,0-0.2,0.1-0.3
		c0-0.1,0-0.2,0.1-0.3c0-0.1,0-0.2,0-0.3c0-0.1,0-0.2,0-0.2h0.6c0,0.1,0,0.2,0,0.3c0,0.1,0,0.2,0,0.3c0,0.1,0,0.2-0.1,0.3h0
		c0.1-0.1,0.2-0.3,0.3-0.4c0.1-0.1,0.2-0.2,0.4-0.3c0.1-0.1,0.3-0.2,0.4-0.2c0.1-0.1,0.3-0.1,0.5-0.1c0.2,0,0.3,0,0.5,0.1
		s0.2,0.1,0.3,0.2c0.1,0.1,0.1,0.2,0.2,0.3S243.8,117.1,243.8,117.2z"/>
	<path d="M246.9,116.8h-1l-0.4,2.1c0,0.1,0,0.2,0,0.3c0,0.1,0,0.2,0,0.2c0,0.1,0,0.2,0.1,0.3c0.1,0.1,0.2,0.1,0.3,0.1
		c0,0,0.1,0,0.1,0c0,0,0.1,0,0.2,0c0.1,0,0.1,0,0.2-0.1c0.1,0,0.1,0,0.1-0.1l-0.1,0.6c-0.1,0-0.2,0.1-0.3,0.1s-0.2,0-0.3,0
		c-0.1,0-0.3,0-0.4-0.1s-0.2-0.1-0.3-0.2c-0.1-0.1-0.1-0.2-0.1-0.3c0-0.1,0-0.2,0-0.3c0-0.1,0-0.2,0-0.3c0-0.1,0-0.2,0.1-0.3
		l0.5-2.2h-0.7l0.1-0.5h0.7l0.2-1c0,0,0.1,0,0.1,0c0.1,0,0.1,0,0.2-0.1c0.1,0,0.2,0,0.2-0.1c0.1,0,0.1,0,0.1,0l-0.2,1.2h1
		L246.9,116.8z"/>
</g>
</svg>
