<?xml version="1.0" encoding="utf-8"?>
<!-- Generator: Adobe Illustrator 22.1.0, SVG Export Plug-In . SVG Version: 6.00 Build 0)  -->
<svg version="1.1" xmlns="http://www.w3.org/2000/svg" xmlns:xlink="http://www.w3.org/1999/xlink" x="0px" y="0px"
	 viewBox="0 0 492.1 273.2" style="enable-background:new 0 0 492.1 273.2;" xml:space="preserve">
<style type="text/css">
	.st0{fill:#FFFFFF;}
	.st1{fill:none;}
	.st2{fill:none;stroke:#000000;stroke-width:0.8597;stroke-linecap:round;stroke-linejoin:round;stroke-miterlimit:3;}
	.st3{enable-background:new    ;}
	.st4{font-family:segoe-ui_normal,Segoe UI,Segoe,Segoe WP,Helvetica Neue,Helvetica,sans-serif;;}
	.st5{font-size:10px;}
	.st6{fill:none;stroke:#000000;stroke-width:2;stroke-linecap:round;stroke-linejoin:round;stroke-miterlimit:3;}
	.st7{stroke:#000000;stroke-width:2.686660e-02;stroke-linecap:round;stroke-linejoin:round;stroke-miterlimit:3;}
	.st8{fill:#F2F2F2;stroke:#000000;stroke-width:0.75;stroke-linecap:round;stroke-linejoin:round;stroke-miterlimit:3;}
	.st9{font-family:'Calibri';}
	.st10{font-size:12.0001px;}
	.st11{font-size:11.0001px;}
	.st12{fill:none;stroke:#000000;stroke-width:0.3663;stroke-linecap:round;stroke-linejoin:round;stroke-miterlimit:3;}
</style>
<g id="background">
	<rect class="st0" width="492.1" height="273.2"/>
</g>
<g id="svg219" inkscape:version="0.92.2 (5c3e80d, 2017-08-06)" sodipodi:docname="ddd2.svg" xmlns:cc="http://creativecommons.org/ns#" xmlns:dc="http://purl.org/dc/elements/1.1/" xmlns:inkscape="http://www.inkscape.org/namespaces/inkscape" xmlns:rdf="http://www.w3.org/1999/02/22-rdf-syntax-ns#" xmlns:sodipodi="http://sodipodi.sourceforge.net/DTD/sodipodi-0.dtd" xmlns:svg="http://www.w3.org/2000/svg" xmlns:v="http://schemas.microsoft.com/visio/2003/SVGExtensions/">
	
		<sodipodi:namedview  bordercolor="#666666" borderopacity="1" gridtolerance="10" guidetolerance="10" id="namedview221" inkscape:current-layer="svg219" inkscape:cx="117.07863" inkscape:cy="89.595155" inkscape:pageopacity="0" inkscape:pageshadow="2" inkscape:window-height="1001" inkscape:window-maximized="1" inkscape:window-width="1920" inkscape:window-x="-9" inkscape:window-y="-9" inkscape:zoom="1.2642212" objecttolerance="10" pagecolor="#ffffff" showgrid="false">
		</sodipodi:namedview>
	<v:documentProperties  v:langID="1033" v:viewMarkup="false">
		<v:userDefs>
			<v:ud  v:nameU="msvNoAutoConnect" v:val="VT0(1):26"></v:ud>
		</v:userDefs>
	</v:documentProperties>
	<g id="shape3-1" transform="translate(38.920118,-546.79874)">
		<title  id="title6">Sheet.3</title>
		<path id="path8" inkscape:connector-curvature="0" class="st1" d="M0,762.4c0-16.4,25.3-29.6,56.6-29.6s56.6,13.3,56.6,29.7
			c0,16.4-25.3,29.6-56.6,29.6S0,778.7,0,762.4z"/>
	</g>
	<g id="shape4-3" transform="translate(38.920118,-546.79874)">
		<title  id="title11">Sheet.4</title>
		<desc  id="desc13">Accounts</desc>
		<v:textBlock  v:margins="rect(4,4,4,4)"></v:textBlock>
		<v:textRect  cx="56.56" cy="762.356" height="59.2871" width="113.13"></v:textRect>
		<path id="path15" inkscape:connector-curvature="0" class="st2" d="M0,762.4c0-16.4,25.3-29.6,56.6-29.6s56.6,13.3,56.6,29.7
			c0,16.4-25.3,29.6-56.6,29.6S0,778.7,0,762.4"/>
		<text id="text17" transform="matrix(1 0 0 1 36.31 765.36)" class="st3 st4 st5">Accounts<v:paragraph  v:horizAlign="1"></v:paragraph><v:tabList></v:tabList></text>
	</g>
	<g id="shape6-7" transform="translate(175.47452,-724.12824)">
		<title  id="title20">Sheet.6</title>
		<path id="path22" inkscape:connector-curvature="0" class="st1" d="M0,762.4c0-16.4,31.5-29.6,70.3-29.6
			c38.8,0,70.3,13.3,70.3,29.7c0,16.4-31.5,29.6-70.3,29.6C31.5,792,0,778.7,0,762.4z"/>
	</g>
	<g id="shape7-9" transform="translate(175.47452,-724.12824)">
		<title  id="title25">Sheet.7</title>
		<desc  id="desc27">Drone management</desc>
		<v:textBlock  v:margins="rect(4,4,4,4)"></v:textBlock>
		<v:textRect  cx="70.3237" cy="762.356" height="59.2871" width="140.65"></v:textRect>
		<path id="path29" inkscape:connector-curvature="0" class="st2" d="M0,762.4c0-16.4,31.5-29.6,70.3-29.6
			c38.8,0,70.3,13.3,70.3,29.7c0,16.4-31.5,29.6-70.3,29.6C31.5,792,0,778.7,0,762.4"/>
		<text id="text31" transform="matrix(1 0 0 1 26.11 765.3599)" class="st3 st4 st5">Drone management<v:paragraph  v:horizAlign="1"></v:paragraph><v:tabList></v:tabList></text>
	</g>
	<g id="shape9-13" transform="translate(358.49452,-617.68574)">
		<title  id="title34">Sheet.9</title>
		<path id="path36" inkscape:connector-curvature="0" class="st1" d="M0,754.8c0-20.5,23.1-37.2,51.6-37.2
			c28.5,0,51.6,16.6,51.6,37.2c0,20.5-23.1,37.2-51.6,37.2C23.1,792,0,775.4,0,754.8z"/>
	</g>
	<g id="shape15-15" transform="translate(241.07352,-528.32574)">
		<title  id="title39">Sheet.15</title>
		<path id="path41" inkscape:connector-curvature="0" class="st1" d="M0,760c0-17.7,26.3-32,58.7-32c32.5,0,58.7,14.3,58.7,32
			c0,17.7-26.3,32-58.7,32C26.3,792,0,777.7,0,760z"/>
	</g>
	<g id="shape18-17" transform="translate(42.998918,-739.16524)">
		<title  id="title44">Sheet.18</title>
		<path id="path46" inkscape:connector-curvature="0" class="st1" d="M0,772.7c0-10.7,19.3-19.3,43-19.3c23.8,0,43,8.7,43,19.3
			c0,10.7-19.2,19.3-43,19.3C19.3,792,0,783.3,0,772.7z"/>
	</g>
	<g id="shape19-19" transform="translate(42.998918,-739.16524)">
		<title  id="title49">Sheet.19</title>
		<desc  id="desc51">Video surveillance</desc>
		<v:textBlock  v:margins="rect(4,4,4,4)"></v:textBlock>
		<v:textRect  cx="43.0114" cy="772.667" height="38.6655" width="86.03"></v:textRect>
		<path id="path53" inkscape:connector-curvature="0" class="st2" d="M0,772.7c0-10.7,19.3-19.3,43-19.3c23.8,0,43,8.7,43,19.3
			c0,10.7-19.2,19.3-43,19.3C19.3,792,0,783.3,0,772.7"/>
		<text transform="matrix(1 0 0 1 30.21 769.67)" class="st4 st5">Video </text>
		<text transform="matrix(1 0 0 1 17.38 781.6701)" class="st4 st5">surveillance</text>
		<v:paragraph  v:horizAlign="1"></v:paragraph>
		<v:tabList></v:tabList>
	</g>
	<g id="shape22-24" transform="translate(35.479218,-672.67674)">
		<title  id="title60">Sheet.22</title>
		<path id="path62" inkscape:connector-curvature="0" class="st1" d="M0,772.5c0-10.8,17-19.5,38.1-19.5c21,0,38.1,8.8,38.1,19.5
			c0,10.8-17,19.5-38.1,19.5C17,792,0,783.3,0,772.5z"/>
	</g>
	<g id="shape23-26" transform="translate(35.479218,-672.67674)">
		<title  id="title65">Sheet.23</title>
		<desc  id="desc67">Drone sharing</desc>
		<v:textBlock  v:margins="rect(4,4,4,4)"></v:textBlock>
		<v:textRect  cx="38.0651" cy="772.452" height="39.0951" width="76.14"></v:textRect>
		<path id="path69" inkscape:connector-curvature="0" class="st2" d="M0,772.5c0-10.8,17-19.5,38.1-19.5c21,0,38.1,8.8,38.1,19.5
			c0,10.8-17,19.5-38.1,19.5C17,792,0,783.3,0,772.5"/>
		<text id="text71" transform="matrix(1 0 0 1 6.86 775.45)" class="st3 st4 st5">Drone sharing<v:paragraph  v:horizAlign="1"></v:paragraph><v:tabList></v:tabList></text>
	</g>
	<g id="shape26-30" transform="translate(222.23752,-694.05524)">
		<title  id="title74">Sheet.26</title>
		<path id="path76" inkscape:connector-curvature="0" class="st6" d="M0,792l23.7-29.9"/>
	</g>
	<g id="shape29-33" transform="translate(295.05352,-654.33774)">
		<title  id="title79">Sheet.29</title>
		<path id="path81" inkscape:connector-curvature="0" class="st6" d="M64,792l-64-0.5"/>
	</g>
	<g id="shape30-36" transform="translate(298.06352,-680.97374)">
		<title  id="title84">Sheet.30</title>
		<path id="path86" inkscape:connector-curvature="0" class="st6" d="M0,741.7L76,792"/>
	</g>
	<g id="shape38-39" transform="translate(135.48052,-597.19874)">
		<title  id="title89">Sheet.38</title>
		<path id="path91" inkscape:connector-curvature="0" class="st6" d="M51.1,761L0,792"/>
	</g>
	<g id="shape39-42" transform="translate(152.25552,-560.03674)">
		<title  id="title94">Sheet.39</title>
		<path id="path96" inkscape:connector-curvature="0" class="st6" d="M0,775.8L89,792"/>
	</g>
	<g id="shape40-45" transform="translate(73.544317,-605.95174)">
		<title  id="title99">Sheet.40</title>
		<path id="path101" inkscape:connector-curvature="0" class="st6" d="M0,725.5L21.9,792"/>
	</g>
	<g id="shape41-48" transform="translate(129.23652,-753.50324)">
		<title  id="title104">Sheet.41</title>
		<path id="path106" inkscape:connector-curvature="0" class="st6" d="M0,787.2l46.4,4.8"/>
	</g>
	<g id="shape42-51" transform="translate(167.95452,-617.68574)">
		<title  id="title109">Sheet.42</title>
		<path id="path111" inkscape:connector-curvature="0" class="st1" d="M0,754.4c0-20.8,28.4-37.6,63.4-37.6
			c35.1,0,63.4,16.8,63.4,37.6c0,20.8-28.4,37.6-63.4,37.6C28.4,792,0,775.2,0,754.4z"/>
	</g>
	<g id="shape43-53" transform="translate(167.95452,-617.68574)">
		<title  id="title114">Sheet.43</title>
		<desc  id="desc116">Shipping</desc>
		<v:textBlock  v:margins="rect(4,4,4,4)"></v:textBlock>
		<v:textRect  cx="63.4418" cy="754.409" height="75.183" width="126.89"></v:textRect>
		<path id="path118" inkscape:connector-curvature="0" class="st2" d="M0,754.4c0-20.8,28.4-37.6,63.4-37.6
			c35.1,0,63.4,16.8,63.4,37.6c0,20.8-28.4,37.6-63.4,37.6C28.4,792,0,775.2,0,754.4"/>
		<text id="text120" transform="matrix(1 0 0 1 43.88 757.41)" class="st3 st4 st5">Shipping<v:paragraph  v:horizAlign="1"></v:paragraph><v:tabList></v:tabList></text>
	</g>
	<g id="shape45-57" transform="translate(313.79052,-563.76874)">
		<title  id="title123">Sheet.45</title>
		<path id="path125" inkscape:connector-curvature="0" class="st7" d="M140.9,585.6l-3.3,0.8l-0.2-0.8l3.4-0.8L140.9,585.6z
			 M135.1,587l-3.3,0.8l-0.2-0.8l3.4-0.8L135.1,587z M129.3,588.4l-3.4,0.8l-0.2-0.8l3.3-0.8L129.3,588.4z M123.4,589.8l-3.3,0.8
			l-0.2-0.8l3.3-0.8L123.4,589.8z M117.6,591.2l-3.4,0.8l-0.2-0.8l3.3-0.8L117.6,591.2z M111.7,592.7l-1.1,0.3l0,0l-2.2,0.6
			l-0.2-0.8l2.2-0.6l1.1-0.3L111.7,592.7z M105.9,594.2l-3.3,0.8l-0.2-0.8l3.3-0.8L105.9,594.2z M100,595.6l-3.3,0.9l-0.2-0.8
			l3.3-0.9L100,595.6z M94.2,597.1l-3.3,0.9l-0.2-0.8l3.3-0.9L94.2,597.1z M88.4,598.7l-3.3,0.9l-0.2-0.8l3.3-0.9L88.4,598.7z
			 M82.6,600.3l-0.7,0.2l0,0l-2.6,0.8l-0.3-0.8l2.6-0.8l0.7-0.2L82.6,600.3z M76.8,601.9l-1.6,0.5l0,0l-1.7,0.5l-0.3-0.8l1.7-0.5
			l1.6-0.5L76.8,601.9z M71,603.6l-2.3,0.7l0,0l-0.9,0.3l-0.3-0.8l1-0.3l2.3-0.7L71,603.6z M65.3,605.4l-2.8,0.9l0,0l-0.5,0.1
			l-0.3-0.8l0.5-0.2l2.8-0.9L65.3,605.4z M59.5,607.2l-3,1h0l-0.2,0.1l-0.3-0.8l0.2-0.1l3-1L59.5,607.2z M53.8,609.2l-3,1v0
			l-0.3,0.1l-0.3-0.8l0.3-0.1l3-1L53.8,609.2z M48.2,611.2l-2.6,1h0l-0.6,0.2l-0.3-0.8l0.6-0.3l2.6-1L48.2,611.2z M42.6,613.5
			l-2,0.8l0,0l-1.2,0.5l-0.3-0.8l1.2-0.5l2-0.8L42.6,613.5z M37.1,615.9l-1,0.5l0,0l-2.1,1l-0.4-0.8l2.1-1l1-0.5L37.1,615.9z
			 M31.7,618.4l-3.1,1.5l-0.4-0.8l3.1-1.5L31.7,618.4z M26.2,621l-1.7,0.8h0l-1.4,0.7l-0.4-0.8l1.4-0.7l1.7-0.8L26.2,621z
			 M20.9,623.6l-2.5,1.3l0,0l-0.6,0.3l-0.4-0.8l0.6-0.3l2.5-1.3L20.9,623.6z M15.7,626.5l-2.3,1.5l0,0l-0.5,0.4l-0.5-0.7l0.6-0.4
			l2.3-1.6L15.7,626.5z M10.9,630.1l-1.5,1.5l0,0l-0.9,1L7.9,632l0.9-1l1.5-1.5L10.9,630.1z M7.1,634.6l-0.8,1.2l0-0.1l-0.9,1.8
			l-0.8-0.3l0.9-1.8l0.8-1.2L7.1,634.6z M4.5,639.9l-0.4,1.2l0,0l-0.5,2.1L2.7,643l0.5-2.1l0.5-1.2L4.5,639.9z M3,645.7L2.6,648v0
			L2.5,649l-0.8-0.1l0.1-1.1l0.4-2.3L3,645.7z M2.2,651.6l-0.1,0.5l0,0l-0.2,2.3l0,0l0,0.6L1,654.9l0.1-0.6l0.2-2.3l0-0.5L2.2,651.6
			z M1.6,657.6l-0.2,2l0,0L1.4,661l-0.9,0l0.1-1.5l0.1-1.9L1.6,657.6z M1.2,663.6L1.1,667l-0.9,0l0.1-3.4L1.2,663.6z M1,669.6
			L0.9,673l-0.9,0l0.1-3.4L1,669.6z M0.9,675.6v3.4H0v-3.4H0.9z M0.9,681.6v0.3l0,0L1,685l-0.9,0L0,681.9v-0.3L0.9,681.6z
			 M1.1,687.6l0,1.6v0l0.1,1.9l-0.9,0l-0.1-1.8l0-1.6L1.1,687.6z M1.4,693.6l0.2,3l0,0l0,0.4L0.8,697l0-0.4l-0.2-3.1L1.4,693.6z
			 M1.9,699.5l0.3,3.4L1.3,703L1,699.6L1.9,699.5z M2.5,705.5l0.5,3.4L2.1,709l-0.5-3.4L2.5,705.5z M3.3,711.5l0,0.3l0,0l0.6,3.1
			L3.1,715l-0.6-3.1l0-0.3L3.3,711.5z M4.4,717.4l0.3,1.8v0l0.4,1.6l-0.8,0.2l-0.4-1.6l-0.3-1.8L4.4,717.4z M5.7,723.2l0.8,3.2v0
			l0.1,0.2l-0.8,0.2l-0.1-0.2l-0.8-3.2L5.7,723.2z M7.3,729l1,3.3l-0.8,0.3l-1-3.3L7.3,729z M9.2,734.7l1.3,3.2l-0.8,0.3L8.4,735
			L9.2,734.7z M11.4,740.2l1.6,3.1l-0.8,0.4l-1.6-3.1L11.4,740.2z M14.2,745.5l0.2,0.3l0,0l1.6,2.6l-0.7,0.5l-1.6-2.6l-0.2-0.3
			L14.2,745.5z M17.4,750.5l0.5,0.8v0l1.6,2l-0.7,0.5l-1.6-2l-0.5-0.8L17.4,750.5z M21.3,755.1l0.9,0.9l0,0l1.6,1.5l-0.6,0.6
			l-1.7-1.5l-0.9-0.9L21.3,755.1z M25.7,759.1l1.2,1l0,0l1.5,1.1l-0.5,0.7l-1.5-1.1l-1.2-1L25.7,759.1z M30.5,762.7l1.7,1.2h0
			l1.1,0.6l-0.4,0.8l-1.1-0.7l-1.8-1.3L30.5,762.7z M35.5,765.9l2.6,1.5l-0.1,0l0.5,0.2l-0.4,0.8l-0.5-0.2l-2.5-1.5L35.5,765.9z
			 M40.8,768.6l3.1,1.5l-0.4,0.8l-3.1-1.5L40.8,768.6z M46.2,771.2l3.2,1.3l-0.3,0.8l-3.2-1.3L46.2,771.2z M51.8,773.4l3.3,1.1
			l-0.3,0.8l-3.3-1.1L51.8,773.4z M57.5,775.4l1,0.3h0l2.3,0.7l-0.3,0.8l-2.3-0.7l-1-0.3L57.5,775.4z M63.2,777.2l2.8,0.8h0l0.5,0.1
			l-0.2,0.8l-0.5-0.1L63,778L63.2,777.2z M69,778.8l3.3,0.9l-0.2,0.8l-3.3-0.9L69,778.8z M74.8,780.3l3.4,0.8l-0.2,0.8l-3.4-0.8
			L74.8,780.3z M80.7,781.6l1.6,0.3l0,0l1.8,0.3l-0.2,0.8l-1.8-0.3l-1.6-0.3L80.7,781.6z M86.6,782.8l3.4,0.7l-0.2,0.8l-3.4-0.7
			L86.6,782.8z M92.5,783.9l3.4,0.6l-0.2,0.9l-3.4-0.6L92.5,783.9z M98.4,784.9l1.1,0.2l0,0l2.3,0.3l-0.1,0.8l-2.3-0.4l-1.1-0.2
			L98.4,784.9z M104.4,785.9l3.4,0.5l-0.1,0.9l-3.4-0.5L104.4,785.9z M110.3,786.8l3.4,0.5l-0.1,0.9l-3.4-0.5L110.3,786.8z
			 M116.3,787.6l3.4,0.5l-0.1,0.9l-3.4-0.5L116.3,787.6z M122.2,788.4l3.4,0.5l-0.1,0.8l-3.4-0.5L122.2,788.4z M128.2,789.2l3.4,0.4
			l-0.1,0.9l-3.4-0.4L128.2,789.2z M134.2,790l3.4,0.4l-0.1,0.9l-3.4-0.4L134.2,790z M140.1,790.7l3.4,0.4l-0.1,0.9l-3.4-0.4
			L140.1,790.7z"/>
	</g>
	<g id="shape46-59" transform="translate(137.78552,-703.50724)">
		<title  id="title128">Sheet.46</title>
		<path id="path130" inkscape:connector-curvature="0" class="st7" d="M178.4,780.8l-3.4,0.7l-0.2-0.8l3.4-0.7L178.4,780.8z
			 M172.5,782l-3.4,0.7l-0.2-0.8l3.4-0.6L172.5,782z M166.6,783.1l-3.4,0.6l-0.1-0.8l3.4-0.6L166.6,783.1z M160.6,784.2l-3.4,0.5
			l-0.1-0.9l3.4-0.5L160.6,784.2z M154.7,785.1l-3.4,0.4l-0.1-0.9l3.4-0.4L154.7,785.1z M148.7,785.8l-3.4,0.3l-0.1-0.9l3.4-0.3
			L148.7,785.8z M142.7,786.4l-0.9,0.1l-2.5,0.2l-0.1-0.9l2.5-0.2l0,0l0.9-0.1L142.7,786.4z M136.7,786.9l-2.6,0.1l-0.9,0.1l0-0.9
			l0.9-0.1h0l2.6-0.1L136.7,786.9z M130.7,787.2l-0.6,0l-2.8,0.1l0-0.8l2.8-0.1l0,0l0.6,0L130.7,787.2z M124.7,787.5l-3.4,0.2
			l-0.1-0.9l3.4-0.2L124.7,787.5z M118.7,787.9l-2.6,0.2l0,0l-0.9,0.1l-0.1-0.9l0.9-0.1l2.6-0.2L118.7,787.9z M112.7,788.4l-1.9,0.2
			l0,0l-1.5,0.2l-0.1-0.8l1.5-0.2l1.9-0.2L112.7,788.4z M106.7,789.1l-1.6,0.2l-1.8,0.2l-0.1-0.9l1.8-0.2l1.6-0.2L106.7,789.1z
			 M100.7,789.8l-1.5,0.2l-1.9,0.2l-0.1-0.8l2-0.2l1.4-0.2L100.7,789.8z M94.7,790.4l-1.5,0.2l-1.9,0.2l-0.1-0.9l1.9-0.2l0,0
			l1.5-0.2L94.7,790.4z M88.7,791l-1.6,0.1l-1.8,0.2l-0.1-0.9l1.8-0.1l0,0l1.6-0.2L88.7,791z M82.7,791.5l-1.8,0.1l-1.7,0.1l0-0.9
			l1.7-0.1l0,0l1.8-0.2L82.7,791.5z M76.7,791.9l-1.9,0.1l-1.6,0v-0.9l1.5,0l0,0l1.9-0.1L76.7,791.9z M70.7,792h-1.9l-1.5,0l0-0.9
			l1.5,0h0h1.9V792z M64.6,791.9l-1.8-0.1l-1.7-0.1l0.1-0.9l1.7,0.2l0,0l1.7,0.1L64.6,791.9z M58.6,791.4l-1.5-0.1l-2-0.3l0.1-0.8
			l2,0.3h0l1.4,0.1L58.6,791.4z M52.6,790.5l-0.9-0.1l-2.5-0.7l0.2-0.8l2.5,0.6h0l0.9,0.1L52.6,790.5z M46.7,789.1L46.7,789.1
			l-3.3-1.2l0.3-0.8l3.2,1.2l0,0h0L46.7,789.1z M41.1,786.8l-3-1.7l0.4-0.8l3,1.7L41.1,786.8z M35.9,783.6l-2-1.5l-0.8-0.7l0.6-0.7
			l0.7,0.7l0,0l2,1.5L35.9,783.6z M31.3,779.7l-0.9-0.8l-1.5-1.7l0.6-0.6l1.5,1.7l0,0l0.9,0.8L31.3,779.7z M27.2,775.2L27.2,775.2
			l-2.1-2.8l0.7-0.5l2,2.7l0,0l0,0L27.2,775.2z M23.6,770.3l-1.9-2.9l0.7-0.5l1.9,2.9L23.6,770.3z M20.4,765.2l-1.7-3l0.8-0.4l1.7,3
			L20.4,765.2z M17.6,759.9l-1.3-2.7l-0.2-0.4l0.8-0.3l0.2,0.4v0l1.3,2.7L17.6,759.9z M15.1,754.4l-1-2.4l-0.3-0.8l0.8-0.3l0.3,0.8
			v0l1.1,2.4L15.1,754.4z M12.8,748.8l-0.9-2.3l-0.3-1l0.8-0.3l0.4,0.9h0l0.9,2.3L12.8,748.8z M10.7,743.1l-0.8-2.2l-0.3-1l0.8-0.3
			l0.3,1v0l0.8,2.3L10.7,743.1z M8.9,737.4l-0.8-2.3l-0.3-0.9l0.8-0.2l0.3,0.9l0,0l0.7,2.3L8.9,737.4z M7.1,731.6l-0.8-2.5l-0.2-0.8
			l0.8-0.2l0.2,0.8l0,0l0.7,2.5L7.1,731.6z M5.5,725.8l-0.9-3.3l0.8-0.2l0.9,3.3L5.5,725.8z M3.9,720L3,716.9L3,716.7l0.8-0.2l0,0.2
			v0l0.9,3.1L3.9,720z M2.3,714.2l-0.8-3.3l0.8-0.2l0.8,3.3L2.3,714.2z M0.9,708.4L0,705.1l0.8-0.2l0.9,3.3L0.9,708.4z"/>
	</g>
	<g id="shape47-61" transform="translate(206.23452,-521.88174)">
		<title  id="title133">Sheet.47</title>
		<path id="path135" inkscape:connector-curvature="0" class="st7" d="M114.1,688.9l-3.4,0.5l-0.1-0.9l3.4-0.5L114.1,688.9z
			 M108.1,689.8l-3.4,0.5l-0.1-0.9l3.4-0.5L108.1,689.8z M102.1,690.7l-3.4,0.5l-0.1-0.9l3.4-0.5L102.1,690.7z M96.2,691.6l-3.4,0.5
			l-0.1-0.9l3.4-0.5L96.2,691.6z M90.2,692.5l-3.4,0.6l-0.1-0.9l3.4-0.6L90.2,692.5z M84.3,693.5l-3.4,0.6l-0.1-0.9l3.4-0.6
			L84.3,693.5z M78.4,694.6l-3.4,0.7l-0.2-0.9l3.4-0.6L78.4,694.6z M72.5,695.7l-3.3,0.6h0l-0.1,0l-0.2-0.9H69l3.3-0.7L72.5,695.7z
			 M66.6,696.9l-2.5,0.5l0,0l-0.9,0.2l-0.2-0.9l0.9-0.2l2.5-0.5L66.6,696.9z M60.7,698.2l-1.6,0.4h0l-1.8,0.5l-0.2-0.8l1.8-0.5
			l1.6-0.4L60.7,698.2z M54.9,699.7l-0.5,0.1l0,0l-2.8,0.8l-0.2-0.8l2.8-0.8l0.5-0.1L54.9,699.7z M49.1,701.4l-3.3,1.1l-0.3-0.8
			l3.3-1.1L49.1,701.4z M43.5,703.3l-1.9,0.7h0l-1.3,0.6l-0.3-0.8l1.3-0.5l1.9-0.7L43.5,703.3z M37.9,705.6L37.9,705.6L37.9,705.6
			l-3.1,1.5l-0.4-0.8l3-1.5l0.1,0L37.9,705.6z M32.6,708.3l-1.4,0.8h0l-1.6,1l-0.5-0.7l1.6-1l1.4-0.8L32.6,708.3z M27.6,711.6
			l-1.7,1.3l0,0l-0.9,0.8l-0.6-0.6l0.9-0.9l1.8-1.3L27.6,711.6z M23.2,715.5l-1.6,1.6h0l-0.8,0.9l-0.7-0.5l0.8-0.9l1.6-1.7
			L23.2,715.5z M19.3,720.1l-1.1,1.6v0l-0.8,1.2l-0.7-0.5l0.8-1.2l1.2-1.6L19.3,720.1z M16.2,725.1l-1.6,3.1l-0.8-0.4l1.6-3.1
			L16.2,725.1z M13.5,730.5l-1.3,3.2l-0.8-0.3l1.3-3.2L13.5,730.5z M11.2,736l-1.2,3.2l-0.8-0.3l1.2-3.2L11.2,736z M9.1,741.6
			L8,744.5h0l-0.1,0.3l-0.8-0.3l0.1-0.3l1.1-2.9L9.1,741.6z M7,747.3l0,0.1L7,747.3l-0.9,3.3l-0.8-0.2l0.9-3.2l0.1-0.1L7,747.3z
			 M5.5,753.1l-0.3,1.1l0,0l-0.5,2.3L4,756.2l0.5-2.3l0.2-1.1L5.5,753.1z M4.3,758.9l-0.5,3.4L3,762.2l0.5-3.4L4.3,758.9z
			 M3.4,764.8l-0.2,0.9l0,0L3,768.3l-0.8-0.1l0.3-2.5l0.1-0.9L3.4,764.8z M2.7,770.8l-0.3,2.7l0,0l-0.1,0.7l-0.9-0.1l0.1-0.7
			l0.3-2.8L2.7,770.8z M2,776.8L2,777.3l0,0l-0.3,3l-0.9-0.1l0.3-3l0-0.5L2,776.8z M1.5,782.8l-0.1,1.1l-0.2,2.3l-0.9-0.1l0.2-2.3
			l0.1-1.1L1.5,782.8z M1.1,788.7l0,0.1l-0.1,1.7l0,0l0,0.6l0,0.5l0,0.3v-0.1v0.1H0v-0.1l0.1-0.3l0,0l0-0.5l0,0l0-0.7l0.1-1.7v0
			l0-0.1L1.1,788.7z"/>
	</g>
	<g id="shape48-63" transform="translate(103.84052,-568.97774)">
		<title  id="title138">Sheet.48</title>
		<path id="path140" inkscape:connector-curvature="0" class="st7" d="M0.1,697.8l3.4,0.3L3.4,699L0,698.6L0.1,697.8z M6.1,698.4
			l3.4,0.4l-0.1,0.9L6,699.2L6.1,698.4z M12.1,699.2l3.1,0.5l0.3,0l-0.2,0.8l-0.3-0.1h0l-3.1-0.5L12.1,699.2z M18,700.3l2.4,0.5
			l1,0.3l-0.2,0.8l-1-0.3h0l-2.4-0.5L18,700.3z M23.9,701.8l1.9,0.5l1.4,0.5l-0.3,0.8l-1.4-0.5l0,0l-1.9-0.5L23.9,701.8z
			 M29.6,703.7l1.7,0.7l1.5,0.6l-0.3,0.8l-1.5-0.6h0l-1.7-0.6L29.6,703.7z M35.2,706.1l1.9,0.9l1.2,0.6l-0.4,0.8l-1.2-0.6l0,0
			l-1.9-0.9L35.2,706.1z M40.5,708.9l2.6,1.5l0.4,0.2l-0.5,0.7l-0.4-0.2l0,0l-2.6-1.5L40.5,708.9z M45.7,712l0.7,0.4l2.2,1.5
			l-0.5,0.7l-2.2-1.5h0l-0.6-0.4L45.7,712z M50.7,715.5l2.7,2l0.1,0.1l-0.5,0.7l0-0.1l0,0l-2.7-2L50.7,715.5z M55.5,719.1l1.6,1.2
			l1.1,0.9l-0.5,0.7l-1.1-0.9l0,0l-1.6-1.2L55.5,719.1z M60.3,722.8l0.7,0.6l2,1.6l-0.5,0.7l-2-1.6h0l-0.7-0.6L60.3,722.8z
			 M65,726.5l2.6,2.2l-0.5,0.7l-2.6-2.2L65,726.5z M69.6,730.4l2.6,2.2l-0.5,0.7l-2.6-2.2L69.6,730.4z M74.1,734.4l2.6,2.3l-0.6,0.7
			l-2.6-2.3L74.1,734.4z M78.6,738.4l1.8,1.6l0.8,0.7l-0.6,0.6l-0.8-0.7l0,0L78,739L78.6,738.4z M83.1,742.4l0.9,0.9l1.6,1.5
			l-0.6,0.6l-1.6-1.5h0l-0.9-0.9L83.1,742.4z M87.4,746.6L87.4,746.6l2.4,2.4l-0.6,0.6l-2.4-2.4l0,0l0,0L87.4,746.6z M91.6,750.9
			l1.9,2l0.5,0.5l-0.7,0.6l-0.5-0.5l0,0l-1.9-2L91.6,750.9z M95.7,755.4l0.4,0.5L98,758l-0.7,0.5l-1.8-2.2h0l-0.4-0.5L95.7,755.4z
			 M99.5,760.1l0.8,1.1l1.1,1.8l-0.8,0.5l-1.1-1.8l0,0l-0.8-1L99.5,760.1z M102.7,765.2l0.8,1.5l0.7,1.7l-0.8,0.3l-0.7-1.7v0
			l-0.7-1.5L102.7,765.2z M105.1,770.8l0.6,1.6l0.5,1.7l-0.8,0.2l-0.5-1.7v0l-0.6-1.6L105.1,770.8z M106.9,776.6l0.3,1.3l0.4,2
			l-0.8,0.2l-0.4-2l0,0l-0.3-1.3L106.9,776.6z M108.1,782.5l0.1,0.4l0.3,2.3l0.1,0.8l-0.9,0.1l-0.1-0.8v0l-0.3-2.2l0,0l-0.1-0.4
			L108.1,782.5z M108.7,788.5l0,0.4l0.1,1.4l0,1v0.6H108v-0.6v0l0-1l0,0l-0.1-1.4l0,0l-0.1-0.4L108.7,788.5z"/>
	</g>
	<path id="path145" inkscape:connector-curvature="0" class="st2" d="M138.6,0.7c-66.8-1.6-61.3,3-83.2,9.6
		c-21.9,6.6-39.1,7.7-48.1,30c-9,22.3-6.9,71.8-5.8,103.7c1.1,31.9-5,67.6,12.3,87.5s25.6,27.3,91.7,32.4
		c66.1,5.1,242.6,18,304.9-1.8c62.3-19.8,61.3-76.6,68.9-116.9c7.6-40.4,33.3-101.2-23.4-125.3C399.2-4.1,205.3,2.4,138.6,0.7"/>
	<g id="shape51-71" transform="translate(362.57552,-621.85674)">
		<title  id="title179">Sheet.51</title>
		<desc  id="desc181">Third-party transportation</desc>
		<v:textBlock  v:margins="rect(4,4,4,4)"></v:textBlock>
		<v:textRect  cx="44.5168" cy="758.25" height="67.5" width="89.04"></v:textRect>
		<ellipse id="ellipse183" class="st8" cx="44.5" cy="758.3" rx="44.5" ry="33.8"/>
		<text transform="matrix(1 0 0 1 17.14 754.65)" class="st9 st10">Third-party </text>
		<text transform="matrix(1 0 0 1 9.05 769.0501)" class="st9 st10">transportation</text>
		<v:paragraph  v:horizAlign="1"></v:paragraph>
		<v:tabList></v:tabList>
	</g>
	<g id="shape52-75" transform="translate(243.01552,-525.10674)">
		<title  id="title190">Sheet.52</title>
		<desc  id="desc192">Call center</desc>
		<v:textBlock  v:margins="rect(4,4,4,4)"></v:textBlock>
		<v:textRect  cx="44.5168" cy="758.25" height="67.5" width="89.04"></v:textRect>
		<ellipse id="ellipse194" class="st8" cx="44.5" cy="758.3" rx="44.5" ry="33.8"/>
		<text id="text196" transform="matrix(1 0 0 1 18.57 761.8499)" class="st3 st9 st10">Call center<v:paragraph  v:horizAlign="1"></v:paragraph><v:tabList></v:tabList></text>
	</g>
	<g id="shape53-78" transform="translate(344.57552,-600.60674)">
		<title  id="title199">Sheet.53</title>
		<desc  id="desc201">External system</desc>
		<v:textBlock  v:margins="rect(4,4,4,4)"></v:textBlock>
		<v:textRect  cx="63.4418" cy="782" height="20" width="126.89"></v:textRect>
		<rect id="rect203" x="0" y="772" class="st1" width="126.9" height="20"/>
		<text id="text205" transform="matrix(1 0 0 1 25.93 785.3)" class="st3 st4 st11">External system<v:paragraph  v:horizAlign="1"></v:paragraph><v:tabList></v:tabList></text>
	</g>
	<g id="shape54-81" transform="translate(316.69152,-537.60674)">
		<title  id="title208">Sheet.54</title>
		<desc  id="desc210">External system</desc>
		<v:textBlock  v:margins="rect(4,4,4,4)"></v:textBlock>
		<v:textRect  cx="63.4418" cy="782" height="20" width="126.89"></v:textRect>
		<rect id="rect212" x="0" y="772" class="st1" width="126.9" height="20"/>
		<text id="text214" transform="matrix(1 0 0 1 25.93 785.3)" class="st3 st4 st11">External system<v:paragraph  v:horizAlign="1"></v:paragraph><v:tabList></v:tabList></text>
	</g>
	<g id="g11" transform="matrix(0.97538202,0,0,1.0745855,-182.986,-314.82674)">
		<title  id="title4">Page-3</title>
		<v:pageProperties  v:drawingScale="1" v:drawingUnits="19" v:pageScale="1" v:shadowOffsetX="9" v:shadowOffsetY="-9">
			</v:pageProperties>
		<g id="shape4-1" transform="translate(189,-369)">
			<title  id="title6-0">Sheet.4</title>
			<path id="path8-2" inkscape:connector-curvature="0" class="st12" d="M0,730.4l3.4-0.4l0.1,0.9l-3.4,0.4L0,730.4z M6,729.7
				l3.4-0.4l0.1,0.9l-3.4,0.4L6,729.7z M12.1,729l2.5-0.3l0.9-0.1l0.1,0.9l-0.9,0.1l0,0l-2.5,0.3L12.1,729z M18.1,728.4l3.4-0.4
				l0.1,0.9l-3.4,0.4L18.1,728.4z M24.1,727.7l3.4-0.3l0.1,0.9l-3.4,0.3L24.1,727.7z M30.2,727.1l3.4-0.3l0.1,0.9l-3.5,0.3
				L30.2,727.1z M36.2,726.6l1.3-0.1l2.1-0.2l0.1,0.9l-2.1,0.2l0,0l-1.3,0.1L36.2,726.6z M42.3,726.1l3.5-0.3l0.1,0.8l-3.4,0.3
				L42.3,726.1z M48.3,725.7l3.5-0.2l0,0.9l-3.5,0.2L48.3,725.7z M54.4,725.3l3.4-0.2l0,0.9l-3.5,0.2L54.4,725.3z M60.4,725l2.9-0.2
				h0.6l0,0.9h-0.6l0,0l-2.9,0.2L60.4,725z M66.5,724.7l1.7-0.1l1.8,0l0,0.9l-1.8,0.1l-1.7,0.1L66.5,724.7z M72.6,724.5l0.7-0.1
				l2.7-0.1l0,0.9l-2.7,0.1l0,0l-0.7,0L72.6,724.5z M78.6,724.2l0.1,0l3.4-0.1l0,0.9l-3.4,0.1l-0.1,0L78.6,724.2z M84.7,724l3.5-0.1
				l0,0.9l-3.5,0.1L84.7,724z M90.8,723.9l3.5-0.1l0,0.9l-3.5,0.1L90.8,723.9z M96.8,723.7l3.5-0.1l0,0.9l-3.5,0.1L96.8,723.7z
				 M102.9,723.6l3.5-0.1v0.9l-3.4,0.1L102.9,723.6z M109,723.4l3.5,0v0.9l-3.5,0.1V723.4z M115,723.4l3.5,0v0.9l-3.5,0V723.4z
				 M121.1,723.3h3.5v0.9h-3.5V723.3z M127.2,723.3h3.4l0.1,0v0.9l-0.1,0l0,0h-3.4V723.3z M133.2,723.4l2.3,0l1.2,0v0.9l-1.2,0l0,0
				l-2.3,0V723.4z M139.3,723.5h0.9l2.6,0.1l-0.1,0.9l-2.6-0.1l0,0h-0.8L139.3,723.5z M145.4,723.8l2.7,0.2l0.8,0l-0.1,0.9l-0.8-0.1
				h0l-2.7-0.1L145.4,723.8z M151.5,724.2l2.8,0.3l0.6,0.1l-0.1,0.9l-0.7-0.1h0l-2.8-0.3L151.5,724.2z M157.5,725l1.6,0.3l1.8,0.4
				l-0.2,0.9l-1.8-0.4l0,0l-1.6-0.3L157.5,725z M163.5,726.5l1,0.4l1.4,0.6l0.8,0.5l-0.4,0.8l-0.8-0.4h0l-1.4-0.6l0,0l-1-0.4
				L163.5,726.5z M169,729.3l1.2,0.8l1.5,1.4l-0.6,0.6l-1.5-1.4l0,0l-1.1-0.8L169,729.3z M173.5,733.3l1.9,1.6l0,0l0.7,0.6l-0.5,0.7
				l-0.8-0.6L173,734L173.5,733.3z M178.1,737.3l1.5,1.3l0.9,1l0.1,0.1l-0.7,0.5l-0.1-0.1l0,0l-0.9-1l0.1,0l-1.5-1.3L178.1,737.3z
				 M181.8,742.3l0.2,0.8v1.3l-0.4,1.3l-0.1,0.2l-0.8-0.4l0.1-0.2l0,0.1l0.3-1.2l0,0.1v-1.2l0,0.1l-0.2-0.8L181.8,742.3z
				 M180.1,748.2l-0.3,0.3l-1.6,1.5l-0.8,0.6l-0.5-0.7l0.8-0.6l0,0l1.6-1.4l-0.1,0l0.3-0.3L180.1,748.2z M175.3,752l-1.6,1l-1.3,0.8
				l-0.4-0.7l1.3-0.8l0,0l1.6-1L175.3,752z M170.1,755.2l-2.9,1.6l-0.2,0.1l-0.4-0.8l0.2-0.1v0l2.9-1.6L170.1,755.2z M164.7,758.1
				l-1.4,0.8l-1.7,0.9l-0.4-0.8l1.7-0.9l0,0l1.4-0.7L164.7,758.1z M159.4,760.9l-0.1,0.1l-3,1.4l-0.4-0.8l2.9-1.4l0,0l0.2-0.1
				L159.4,760.9z M153.9,763.6l-3.1,1.5l-0.4-0.8l3.1-1.5L153.9,763.6z M148.4,766.2l-3.2,1.4l-0.4-0.8l3.2-1.4L148.4,766.2z
				 M142.8,768.6l-3.1,1.3l-0.1,0l-0.3-0.8h0l0,0l3.1-1.3L142.8,768.6z M137.2,770.9l-2.9,1.2l-0.3,0.1l-0.3-0.8l0.3-0.1l0,0
				l2.9-1.2L137.2,770.9z M131.6,773.1l-3.3,1.2l-0.3-0.8l3.3-1.2L131.6,773.1z M125.9,775.2l-2.7,1l-0.6,0.2l-0.3-0.8l0.6-0.2l0,0
				l2.7-1L125.9,775.2z M120.1,777.3l-2.6,0.9l-0.7,0.2l-0.3-0.8l0.7-0.2h0l2.6-0.9L120.1,777.3z M114.4,779.1l-2.5,0.8l-0.8,0.2
				l-0.2-0.8l0.8-0.2l0,0l2.5-0.8L114.4,779.1z M108.5,780.8l-2.3,0.7l-1.1,0.3l-0.2-0.8l1.1-0.3h0l2.3-0.7L108.5,780.8z
				 M102.6,782.4l-2,0.5l-1.4,0.3l-0.2-0.8l1.4-0.3l0,0l1.9-0.5L102.6,782.4z M96.7,783.7l-2,0.4l-1.4,0.2l-0.2-0.8l1.4-0.2h0l2-0.4
				L96.7,783.7z M90.7,784.8l-2.8,0.5l-0.6,0.1l-0.1-0.8l0.6-0.1l0,0l2.8-0.5L90.7,784.8z M84.7,785.7l-0.5,0l-3,0.4l-0.1-0.8l3-0.4
				l0,0l0.5-0.1L84.7,785.7z M78.7,786.5l-3.5,0.4l-0.1-0.9l3.4-0.4L78.7,786.5z M72.7,787.2h-0.1l-3.4,0.4l-0.1-0.9l3.4-0.3l0,0
				l0.1,0L72.7,787.2z M66.6,787.8l-2.3,0.2l-1.2,0.1l0-0.9l1.1-0.1l0,0l2.3-0.2L66.6,787.8z M60.6,788.4l-3.5,0.3l-0.1-0.8l3.5-0.3
				L60.6,788.4z M54.5,788.9l-3.4,0.3l-0.1-0.9l3.5-0.3L54.5,788.9z M48.5,789.4l-0.9,0.1l-2.5,0.2l0-0.9l2.5-0.2l0,0l0.9-0.1
				L48.5,789.4z M42.4,789.8l-3.1,0.2l-0.4,0l0-0.9l0.4,0v0l3.1-0.2L42.4,789.8z M36.4,790.2l-3.5,0.2l0-0.9l3.5-0.2L36.4,790.2z
				 M30.3,790.6l-2.6,0.2l-0.9,0.1l0-0.9l0.9,0l0,0l2.5-0.2L30.3,790.6z M24.2,791h-0.1l-3.4,0.2l-0.1-0.9l3.4-0.2h0.1L24.2,791z
				 M18.2,791.3l-0.7,0l-2.8,0.2l0-0.9l2.8-0.2l0.7,0L18.2,791.3z M12.1,791.6h-0.5l-2.6,0.1l0,0l-0.5,0l0-0.9l0.5,0l2.6-0.1l0,0
				h0.5L12.1,791.6z M6,791.9l-1.2,0l-1.7,0l0,0l-0.6,0l0-0.9l0.6,0l1.7-0.1l0,0l1.2,0L6,791.9z"/>
		</g>
	</g>
</g>
</svg>
