<?xml version="1.0" encoding="UTF-8" standalone="no"?>
<!DOCTYPE svg PUBLIC "-//W3C//DTD SVG 1.1//EN" "http://www.w3.org/Graphics/SVG/1.1/DTD/svg11.dtd">
<!-- Generated by Microsoft Visio, SVG Export natgw_fw_vmss.svg Page-1 -->
<svg xmlns="http://www.w3.org/2000/svg" xmlns:xlink="http://www.w3.org/1999/xlink" xmlns:ev="http://www.w3.org/2001/xml-events"
		xmlns:v="http://schemas.microsoft.com/visio/2003/SVGExtensions/" width="5.00609in" height="4.19025in"
		viewBox="0 0 360.438 301.698" xml:space="preserve" color-interpolation-filters="sRGB" class="st19">
	<v:documentProperties v:langID="1033" v:viewMarkup="false">
		<v:userDefs>
			<v:ud v:nameU="msvNoAutoConnect" v:val="VT0(1):26"/>
		</v:userDefs>
	</v:documentProperties>

	<style type="text/css">
	<![CDATA[
		.st1 {fill:#ffffff;fill-opacity:0.35;stroke:#e6e6e6;stroke-linecap:round;stroke-linejoin:round;stroke-width:0.75}
		.st2 {fill:#ffffff;fill-opacity:0.35;stroke:none;stroke-linecap:round;stroke-linejoin:round;stroke-width:0.75}
		.st3 {stroke:none;stroke-linecap:round;stroke-linejoin:round;stroke-width:0.75}
		.st4 {fill:#ffffff;fill-opacity:0.35}
		.st5 {fill:none;stroke:#0078d7;stroke-dasharray:0,3.3;stroke-linecap:round;stroke-linejoin:round;stroke-width:1.1}
		.st6 {fill:#0078d7;stroke:none;stroke-linecap:butt;stroke-width:0.653846}
		.st7 {fill:#0078d7;font-family:Segoe UI;font-size:0.75em}
		.st8 {fill:#005ba1;stroke:none;stroke-linecap:butt;stroke-width:0.75}
		.st9 {fill:#50e6ff;stroke:none;stroke-linecap:butt;stroke-width:0.75}
		.st10 {fill:#c3f1ff;stroke:none;stroke-linecap:butt;stroke-width:0.75}
		.st11 {fill:#9cebff;stroke:none;stroke-linecap:butt;stroke-width:0.75}
		.st12 {fill:#0078d4;stroke:none;stroke-linecap:butt;stroke-width:0.75}
		.st13 {fill:url(#grad0-161);stroke:none;stroke-linecap:butt;stroke-width:0.75}
		.st14 {fill:url(#grad0-175);stroke:none;stroke-linecap:butt;stroke-width:0.75}
		.st15 {fill:#000000;font-family:Calibri;font-size:0.75em}
		.st16 {fill:url(#grad0-182);stroke:none;stroke-linecap:butt;stroke-width:0.75}
		.st17 {fill:#ffffff;stroke:none;stroke-linecap:butt;stroke-width:0.75}
		.st18 {fill:#86d633;stroke:none;stroke-linecap:butt;stroke-width:0.75}
		.st19 {fill:none;fill-rule:evenodd;font-size:12px;overflow:visible;stroke-linecap:square;stroke-miterlimit:3}
	]]>
	</style>

	<defs id="Patterns_And_Gradients">
		<linearGradient id="grad0-161" x1="0" y1="0" x2="1" y2="0" gradientTransform="rotate(-90 0.5 0.5)">
			<stop offset="0" stop-color="#0078d4" stop-opacity="1"/>
			<stop offset="0.82" stop-color="#5ea0ef" stop-opacity="1"/>
		</linearGradient>
		<linearGradient id="grad0-175" x1="0" y1="0" x2="1" y2="0" gradientTransform="rotate(-90 0.5 0.5)">
			<stop offset="0.15" stop-color="#cccccc" stop-opacity="1"/>
			<stop offset="1" stop-color="#707070" stop-opacity="1"/>
		</linearGradient>
		<linearGradient id="grad0-182" x1="0" y1="0" x2="1" y2="0" gradientTransform="rotate(-90 0.5 0.5)">
			<stop offset="0" stop-color="#238ab0" stop-opacity="1"/>
			<stop offset="0.11" stop-color="#2da4c8" stop-opacity="1"/>
			<stop offset="0.775" stop-color="#3ed3f2" stop-opacity="1"/>
		</linearGradient>
	</defs>
	<g v:mID="4" v:index="1" v:groupContext="backgroundPage">
		<v:userDefs>
			<v:ud v:nameU="msvVisioCreated" v:prompt="" v:val="VT0(0):26"/>
		</v:userDefs>
		<title>VBackground-1</title>
		<v:pageProperties width="5.00609" height="4.19025" v:drawingScale="1" v:pageScale="1" v:drawingUnits="19"
				v:shadowOffsetX="9" v:shadowOffsetY="-9"/>
		<g id="group1-1" v:mID="1" v:groupContext="group">
			<v:userDefs>
				<v:ud v:nameU="Background" v:val="VT0(0):26"/>
				<v:ud v:nameU="visVersion" v:val="VT0(15):26"/>
				<v:ud v:nameU="msvShapeCategories" v:prompt="" v:val="VT4(DoNotContain)"/>
				<v:ud v:nameU="msvVisioCreated" v:prompt="" v:val="VT0(0):26"/>
			</v:userDefs>
			<title>World</title>
			<g id="shape2-2" v:mID="2" v:groupContext="shape">
				<title>Sheet.2</title>
				<rect x="0" y="0" width="360.438" height="301.698" class="st1"/>
			</g>
			<g id="group3-4" transform="translate(0,-48.1242)" v:mID="3" v:groupContext="group">
				<title>Sheet.3</title>
				<g id="shape4-5" v:mID="4" v:groupContext="shape" transform="translate(94.0274,-161.208)">
					<title>Sheet.4</title>
					<path d="M0 300.96 L1.25 301.7 L2.51 301.7 L1.25 300.96 L0 300.96 Z" class="st2"/>
				</g>
				<g id="shape5-7" v:mID="5" v:groupContext="shape" transform="translate(94.0274,-161.208)">
					<title>Sheet.5</title>
					<path d="M0 300.96 L1.25 301.7 L2.51 301.7 L1.25 300.96 L0 300.96" class="st3"/>
				</g>
				<g id="shape6-10" v:mID="6" v:groupContext="shape" transform="translate(92.7737,-156.035)">
					<title>Sheet.6</title>
					<path d="M0 300.96 L1.25 301.7 L1.88 300.96 L0.63 300.96 L0.63 300.22 L0 300.96 Z" class="st2"/>
				</g>
				<g id="shape7-12" v:mID="7" v:groupContext="shape" transform="translate(92.7737,-156.035)">
					<title>Sheet.7</title>
					<path d="M0 300.96 L1.25 301.7 L1.88 300.96 L0.63 300.96 L0.63 300.22 L0 300.96" class="st3"/>
				</g>
				<g id="shape8-15" v:mID="8" v:groupContext="shape" transform="translate(98.4153,-156.774)">
					<title>Sheet.8</title>
					<path d="M0 298.74 L0 300.22 L3.76 300.22 L3.13 300.96 L3.76 300.96 L4.39 300.22 L5.01 300.22 L4.39 300.96 L5.01
								 300.96 L5.01 301.7 L5.64 301.7 L6.27 300.22 L5.64 300.22 L6.27 298.74 L5.01 300.22 L6.27 298 L5.64
								 298 L6.27 297.26 L4.39 297.26 L4.39 296.53 L4.39 295.79 L3.13 296.53 L5.01 294.31 L4.39 294.31 L1.25
								 298 L0 298.74 Z" class="st2"/>
				</g>
				<g id="shape9-17" v:mID="9" v:groupContext="shape" transform="translate(98.4153,-156.774)">
					<title>Sheet.9</title>
					<path d="M0 298.74 L0 300.22 L3.76 300.22 L3.13 300.96 L3.76 300.96 L4.39 300.22 L5.01 300.22 L4.39 300.96 L5.01
								 300.96 L5.01 301.7 L5.64 301.7 L6.27 300.22 L5.64 300.22 L6.27 298.74 L5.01 300.22 L6.27 298 L5.64
								 298 L6.27 297.26 L4.39 297.26 L4.39 296.53 L4.39 295.79 L3.13 296.53 L5.01 294.31 L4.39 294.31 L1.25
								 298 L0 298.74" class="st3"/>
				</g>
				<g id="shape10-20" v:mID="10" v:groupContext="shape" transform="translate(305.902,-190.769)">
					<title>Sheet.10</title>
					<path d="M0 300.22 L0.63 301.7" class="st3"/>
				</g>
				<g id="shape11-23" v:mID="11" v:groupContext="shape" transform="translate(305.902,-190.769)">
					<title>Sheet.11</title>
					<path d="M0.63 301.7 L2.51 300.22 L0 300.22 L0.63 301.7 Z" class="st2"/>
				</g>
				<g id="shape12-25" v:mID="12" v:groupContext="shape" transform="translate(305.902,-190.769)">
					<title>Sheet.12</title>
					<path d="M0.63 301.7 L2.51 300.22 L0 300.22 L0.63 301.7" class="st3"/>
				</g>
				<g id="shape13-28" v:mID="13" v:groupContext="shape" transform="translate(305.902,-190.769)">
					<title>Sheet.13</title>
					<path d="M0.63 301.7 L2.51 300.22 L0 300.22" class="st3"/>
				</g>
				<g id="shape14-31" v:mID="14" v:groupContext="shape" transform="translate(271.426,-194.464)">
					<title>Sheet.14</title>
					<path d="M0 301.7 L3.13 301.7 L0.63 300.96 L0 300.96 L0 301.7 Z" class="st2"/>
				</g>
				<g id="shape15-33" v:mID="15" v:groupContext="shape" transform="translate(271.426,-194.464)">
					<title>Sheet.15</title>
					<path d="M0 301.7 L3.13 301.7 L0.63 300.96 L0 300.96 L0 301.7" class="st3"/>
				</g>
				<g id="shape16-36" v:mID="16" v:groupContext="shape" transform="translate(272.679,-195.942)">
					<title>Sheet.16</title>
					<path d="M0 300.96 L4.39 301.7 L4.39 300.96 L0 300.96 Z" class="st2"/>
				</g>
				<g id="shape17-38" v:mID="17" v:groupContext="shape" transform="translate(272.679,-195.942)">
					<title>Sheet.17</title>
					<path d="M0 300.96 L4.39 301.7 L4.39 300.96 L0 300.96" class="st3"/>
				</g>
				<g id="shape18-41" v:mID="18" v:groupContext="shape" transform="translate(265.157,-195.942)">
					<title>Sheet.18</title>
					<path d="M0.63 300.96 L3.76 301.7 L6.27 301.7 L6.9 300.96 L3.76 300.22 L0.63 300.22 L0 300.22 L0.63 300.96 Z"
							class="st2"/>
				</g>
				<g id="shape19-43" v:mID="19" v:groupContext="shape" transform="translate(265.157,-195.942)">
					<title>Sheet.19</title>
					<path d="M0.63 300.96 L3.76 301.7 L6.27 301.7 L6.9 300.96 L3.76 300.22 L0.63 300.22 L0 300.22 L0.63 300.96"
							class="st3"/>
				</g>
				<g id="shape20-46" v:mID="20" v:groupContext="shape" transform="translate(234.442,-200.376)">
					<title>Sheet.20</title>
					<path d="M0 301.7 L3.76 301.7 L3.13 300.96 L0.63 300.22 L0 300.22 L0 301.7 Z" class="st2"/>
				</g>
				<g id="shape21-48" v:mID="21" v:groupContext="shape" transform="translate(234.442,-200.376)">
					<title>Sheet.21</title>
					<path d="M0 301.7 L3.76 301.7 L3.13 300.96 L0.63 300.22 L0 300.22 L0 301.7" class="st3"/>
				</g>
				<g id="shape22-51" v:mID="22" v:groupContext="shape" transform="translate(226.293,-201.115)">
					<title>Sheet.22</title>
					<path d="M0 300.22 L3.13 301.7 L7.52 301.7 L6.9 300.96 L1.88 299.48 L0.63 299.48 L0.63 300.22 L0 300.22 Z"
							class="st2"/>
				</g>
				<g id="shape23-53" v:mID="23" v:groupContext="shape" transform="translate(226.293,-201.115)">
					<title>Sheet.23</title>
					<path d="M0 300.22 L3.13 301.7 L7.52 301.7 L6.9 300.96 L1.88 299.48 L0.63 299.48 L0.63 300.22 L0 300.22"
							class="st3"/>
				</g>
				<g id="shape24-56" v:mID="24" v:groupContext="shape" transform="translate(201.219,-190.769)">
					<title>Sheet.24</title>
					<path d="M1.25 300.22 L3.13 301.7 L5.64 301.7 L4.39 300.22 L3.76 298.74 L6.27 295.79 L11.91 295.05 L11.28 294.31
								 L10.66 294.31 L9.4 294.31 L5.64 295.05 L2.51 295.79 L2.51 297.26 L1.88 297.26 L2.51 298 L1.25 298.74
								 L1.88 298.74 L0 299.48 L1.25 300.22 Z" class="st2"/>
				</g>
				<g id="shape25-58" v:mID="25" v:groupContext="shape" transform="translate(201.219,-190.769)">
					<title>Sheet.25</title>
					<path d="M1.25 300.22 L3.13 301.7 L5.64 301.7 L4.39 300.22 L3.76 298.74 L6.27 295.79 L11.91 295.05 L11.28 294.31
								 L10.66 294.31 L9.4 294.31 L5.64 295.05 L2.51 295.79 L2.51 297.26 L1.88 297.26 L2.51 298 L1.25 298.74
								 L1.88 298.74 L0 299.48 L1.25 300.22" class="st3"/>
				</g>
				<g id="shape26-61" v:mID="26" v:groupContext="shape" transform="translate(200.592,-188.552)">
					<title>Sheet.26</title>
					<path d="M0.63 301.7 L1.88 300.96 L0.63 300.96 L0 300.96 L0.63 301.7 Z" class="st2"/>
				</g>
				<g id="shape27-63" v:mID="27" v:groupContext="shape" transform="translate(200.592,-188.552)">
					<title>Sheet.27</title>
					<path d="M0.63 301.7 L1.88 300.96 L0.63 300.96 L0 300.96 L0.63 301.7" class="st3"/>
				</g>
				<g id="shape28-66" v:mID="28" v:groupContext="shape" transform="translate(201.219,-202.593)">
					<title>Sheet.28</title>
					<path d="M0 301.7 L3.76 301.7 L4.39 301.7 L3.76 300.96 L5.64 300.96 L5.01 300.96 L0 301.7 Z" class="st2"/>
				</g>
				<g id="shape29-68" v:mID="29" v:groupContext="shape" transform="translate(201.219,-202.593)">
					<title>Sheet.29</title>
					<path d="M0 301.7 L3.76 301.7 L4.39 301.7 L3.76 300.96 L5.64 300.96 L5.01 300.96 L0 301.7" class="st3"/>
				</g>
				<g id="shape30-71" v:mID="30" v:groupContext="shape" transform="translate(199.338,-203.332)">
					<title>Sheet.30</title>
					<path d="M0 301.7 L3.76 301.7 L3.13 301.7 L3.13 300.96 L1.88 301.7 L0 301.7 Z" class="st2"/>
				</g>
				<g id="shape31-73" v:mID="31" v:groupContext="shape" transform="translate(199.338,-203.332)">
					<title>Sheet.31</title>
					<path d="M0 301.7 L3.76 301.7 L3.13 301.7 L3.13 300.96 L1.88 301.7 L0 301.7" class="st3"/>
				</g>
				<g id="shape32-76" v:mID="32" v:groupContext="shape" transform="translate(198.711,-202.593)">
					<title>Sheet.32</title>
					<path d="M0 301.7 L1.88 301.7" class="st3"/>
				</g>
				<g id="shape33-79" v:mID="33" v:groupContext="shape" transform="translate(192.443,-202.593)">
					<title>Sheet.33</title>
					<path d="M0 301.7 L3.76 301.7 L4.39 301.7 L5.01 301.7 L2.51 300.96 L0 301.7 Z" class="st2"/>
				</g>
				<g id="shape34-81" v:mID="34" v:groupContext="shape" transform="translate(192.443,-202.593)">
					<title>Sheet.34</title>
					<path d="M0 301.7 L3.76 301.7 L4.39 301.7 L5.01 301.7 L2.51 300.96 L0 301.7" class="st3"/>
				</g>
				<g id="shape35-84" v:mID="35" v:groupContext="shape" transform="translate(169.249,-198.159)">
					<title>Sheet.35</title>
					<path d="M0 298 L0.63 298.74 L1.25 299.48 L1.88 299.48 L1.88 300.22 L4.39 301.7 L5.64 299.48 L6.9 299.48 L6.9
								 300.22 L10.66 300.22 L5.64 298.74 L5.64 298 L8.78 298.74 L11.91 298 L11.28 297.26 L6.27 297.26 L3.76
								 298 L0 298 Z" class="st2"/>
				</g>
				<g id="shape36-86" v:mID="36" v:groupContext="shape" transform="translate(169.249,-198.159)">
					<title>Sheet.36</title>
					<path d="M0 298 L0.63 298.74 L1.25 299.48 L1.88 299.48 L1.88 300.22 L4.39 301.7 L5.64 299.48 L6.9 299.48 L6.9
								 300.22 L10.66 300.22 L5.64 298.74 L5.64 298 L8.78 298.74 L11.91 298 L11.28 297.26 L6.27 297.26 L3.76
								 298 L0 298" class="st3"/>
				</g>
				<g id="shape37-89" v:mID="37" v:groupContext="shape" transform="translate(59.5507,-172.925)">
					<title>Sheet.37</title>
					<path d="M26.33 292.72 L26.95 292.72 A1.43291 1.43291 -180 0 0 29.46 292.72 L26.95 289.77 L26.95 289.03 L24.45
								 292.72 L24.45 293.46 L26.33 292.72 ZM35.1 288.29 L35.73 288.29 L36.98 286.81 L36.36 286.81 A1.12491
								 1.12491 -180 0 0 35.1 288.29 ZM36.98 280.16 A1.71387 1.71387 -180 0 0 39.49 280.9 L35.73 281.64
								 L36.98 280.16 ZM35.1 279.42 C33.34 279.31 31.79 279.46 30.09 280.16 C29.29 280.49 28.45 280.94 28.21
								 281.64 C27.82 282.74 28.9 284.46 30.09 284.59 L33.85 284.59 L34.48 285.33 A1.98945 1.98945 0 0 1
								 37.61 285.33 L36.36 286.07 A2.02667 2.02667 0 0 1 39.49 288.29 L35.73 289.03 L36.36 289.77 C34.72
								 292.44 31.99 286.65 31.34 291.98 A6.08294 6.08294 0 0 1 35.73 292.72 L36.36 292.72 C35.21 295.46
								 39.36 294.86 40.75 294.94 L39.49 293.46 L39.49 292.72 C40.16 293.31 41.38 294.8 42.63 294.2 C42.96
								 294.04 43.29 293.73 43.25 293.46 C43.18 292.92 41.65 292.53 43.25 291.98 L42 289.77 C42.02 288.62
								 43.73 288.92 43.88 289.77 C43.97 290.25 43.56 290.9 44.51 290.51 L47.64 288.29 L45.13 286.81 A1.32475
								 1.32475 0 0 1 43.25 286.07 L43.88 286.07 A1.12491 1.12491 -180 0 0 45.13 284.59 A5.05489 5.05489
								 -180 0 0 41.37 281.64 L42 280.9 L40.12 280.9 L40.75 280.16 L37.61 279.42 a0.954158 0.954158 0 0
								 1 -1.88055 -5.68434E-14 L35.1 279.42 ZM28.84 276.46 A1.71387 1.71387 -180 0 0 31.34 277.2 L30.09
								 278.68 L30.72 278.68 L35.1 278.68 L36.98 278.68 A3.17064 3.17064 -180 0 0 40.12 277.94 L33.85 277.2
								 a0.484536 0.484536 0 0 1 -0.626849 -0.739028 L29.46 276.46 L28.84 276.46 ZM37.61 271.29 L34.48 272.03
								 L33.85 274.25 L35.73 274.25 L39.49 272.77 L40.12 272.03 L37.61 271.29 ZM40.12 272.03 L41.37 272.03
								 L40.12 272.77 a0.484536 0.484536 0 1 1 0.626849 0.739028 A5.37594 5.37594 -180 0 0 34.48 276.46
								 L40.12 276.46 L40.12 277.2 L43.25 276.46 L42.63 274.99 a0.727654 0.727654 -180 1 0 1.2537 -0.739028
								 A6.12857 6.12857 -180 0 0 48.89 272.77 L59.1 270.76 L59.55 271.29 L57.67 271.29 L53.91 272.03 L55.79
								 272.03 A1.12491 1.12491 0 0 1 54.54 273.51 L48.89 273.51 L48.27 274.25 a0.727654 0.727654 0 0 1
								 1.2537 0.739028 L48.27 276.46 L49.52 277.2 L54.54 277.2 L57.04 277.2 C55.58 277.64 56.74 278.17
								 57.1 278.73 C57.55 279.44 56.73 280.22 56.53 280.99 C56.42 281.42 56.5 281.86 55.79 281.64 a0.954158
								 0.954158 -180 0 0 1.88055 0 L57.67 282.38 L58.92 283.85 A2.64951 2.64951 -180 0 0 55.16 285.33 L58.3
								 284.59 C58.5 285.09 58.19 285.88 57.67 286.07 C57 286.32 55.99 285.56 55.79 286.81 L54.54 289.77
								 L55.16 289.77 L54.54 291.98 L55.16 293.46 L55.79 295.68 L56.42 296.42 L58.92 297.9 L59.55 297.9
								 L62.06 294.94 L62.06 294.2 A2.77443 2.77443 -180 0 0 64.57 290.51 L65.82 289.77 C69.4 291.76 70.85
								 288 73.34 286.81 C75.83 285.62 79.34 286.99 81.49 284.59 L82.12 284.59 A1.56183 1.56183 0 0 1 80.24
								 282.38 L80.86 282.38 L83.37 283.85 L83.37 282.38 C82.68 281.33 85.18 280.93 83.37 280.16 A2.43001
								 2.43001 -180 0 0 86.51 278.68 L85.88 278.68 L86.51 277.2 a0.727654 0.727654 0 1 1 -1.2537 -0.739028
								 A1.50219 1.50219 -180 1 0 87.13 274.25 L87.76 274.25 L87.76 273.51 L94.03 271.29 A15.1087 15.1087
								 -180 0 0 87.13 270.55 L88.39 269.81 L84 269.07 A144.649 144.649 0 0 1 50.15 269.81 L39.49 271.29
								 L40.12 272.03 ZM32.6 274.99 L33.22 274.25 L29.46 274.99 L32.6 274.99 ZM19.43 281.64 L20.69 282.38
								 A3.97896 3.97896 -180 0 0 24.45 280.16 L25.07 279.42 L21.31 279.42 L21.31 280.16 L19.43 280.9 L19.43
								 281.64 ZM10.03 277.94 L10.66 277.94 L11.91 277.2 L10.03 277.94 ZM10.66 280.16 L10.03 279.42 A7.01574
								 7.01574 -180 0 0 3.76 279.42 L3.76 280.16 L0 281.64 a0.484536 0.484536 0 1 1 0.626849 0.739028 C4.53
								 283.83 6.35 277.99 10.66 280.16 ZM80.86 290.51 L78.98 291.98 L80.86 291.98 L79.61 292.72 A7.02011
								 7.02011 -180 0 0 87.13 291.98 L88.39 289.77 C87.4 290.27 87.89 289.38 87.76 289.03 C87.64 288.7
								 86.99 288.84 86.51 289.03 C85.22 289.54 85.08 290.47 83.37 289.77 L83.37 289.03 L81.49 290.51 A1.31631
								 1.31631 -180 0 0 78.98 289.77 L80.86 290.51 ZM93.4 301.59 L94.03 300.11 C93.04 299.27 91.93 302.3
								 93.4 301.59 Z" class="st2"/>
				</g>
				<g id="shape38-91" v:mID="38" v:groupContext="shape" transform="translate(282.709,-12.305)">
					<title>Sheet.38</title>
					<path d="M35.1 242.96 A1.71387 1.71387 -180 0 0 37.61 242.22 L38.86 240 L39.49 240 C41.91 241.16 40.52 246.38
								 44.51 244.43 C44.46 244.97 45.39 245.43 45.72 245.16 C46.06 244.86 45.71 243.72 45.1 243.68 C44.87
								 243.67 44.61 243.8 44.53 243.7 C44.43 243.59 44.58 243.15 44.5 242.96 C44.37 242.63 43.59 243.02
								 43.25 242.96 C42.34 242.79 44.77 239.29 42 240 C41.45 238.87 42.87 239.2 43.25 238.52 C43.38 238.29
								 43.38 237.95 43.26 237.79 C43.05 237.51 42.45 237.76 41.98 237.78 C41.44 237.79 41.07 237.49 40.79
								 237.07 C40.49 236.61 40.32 236 40.04 235.53 C38.43 232.73 33.53 234.49 31.97 231.13 A3.87692 3.87692
								 -180 0 0 29.46 234.09 L28.84 234.09 L26.95 229.65 C25.99 230.15 26.44 229.28 26.33 228.92 C26.08
								 228.06 22.8 229.92 23.82 230.39 A1.12491 1.12491 0 0 1 25.07 231.87 C27.8 229.64 27.8 235.58 25.07
								 233.35 C26.25 233.28 25.41 234.53 25.7 234.83 C25.98 235.11 27.24 234.55 26.95 234.09 A6.63532 6.63532
								 -180 0 0 31.34 236.31 L31.97 237.04 L32.6 240 L31.97 240 L31.34 242.22 A2.09597 2.09597 0 0 1 35.1
								 242.96 ZM23.19 247.39 L22.57 248.13 L22.57 250.35 L21.94 250.35 L20.69 251.09 L21.94 251.83 a0.954158
								 0.954158 0 0 1 -1.88055 0 L19.43 252.56 L18.81 251.09 a0.484536 0.484536 -180 0 0 -0.626849 -0.739028
								 L16.92 251.83 L16.3 251.83 L15.04 254.04 L14.42 253.3 A1.4783 1.4783 0 0 1 13.16 255.52 L13.16 254.04
								 L11.91 255.52 L11.91 256.26 L10.03 259.22 L4.39 260.69 L2.51 262.91 L2.51 262.17 L1.25 265.87 L1.25
								 269.56 L0.63 268.08 L0.63 269.56 A18.0857 18.0857 0 0 1 0.63 279.91 L0 279.91 L0 282.13 C0.39 283.18
								 1.55 283.18 2.51 282.86 C4.74 282.12 5.8 279.62 8.78 281.39 A2.48428 2.48428 0 0 1 11.91 279.17
								 L18.18 277.69 A3.83693 3.83693 0 0 1 20.69 282.86 L24.45 279.91 L22.57 283.6 L24.45 282.13 L23.82
								 283.6 C24.79 283.19 24.33 283.88 24.45 284.34 C24.61 284.99 25.95 285.17 24.45 285.82 C23.49 289.75
								 28.57 287.91 29.46 286.56 L29.46 288.04 L30.09 288.04 L30.09 289.52 L36.98 284.34 C37.17 279.73
								 43.16 277.41 44.51 273.26 C45.27 270.89 44.53 267.91 43.25 265.87 L43.25 265.13 A1.4783 1.4783 -180
								 0 0 42 262.91 L41.37 259.95 L39.49 258.48 L38.86 251.83 L37.61 251.09 L36.98 245.91 L36.36 245.17
								 L36.36 245.91 L34.48 253.3 L33.22 255.52 L31.97 256.26 C31.34 255.69 31.38 253.38 30.09 253.3 C29.63
								 253.28 29.01 253.53 28.84 253.3 C28.54 252.91 29.63 251.05 27.58 251.83 A1.4783 1.4783 -180 0 0
								 28.84 249.61 L29.46 249.61 L30.09 247.39 L28.84 248.13 a0.727654 0.727654 -180 0 0 -1.2537 -0.739028
								 L25.07 245.91 A1.29388 1.29388 0 0 1 23.19 247.39 ZM23.19 247.39 C23.54 247.31 24.16 246.33 23.82
								 245.91 C23.57 245.61 22.81 245.61 22.57 245.91 C22.23 246.33 22.85 247.31 23.19 247.39 ZM22.57 284.34
								 a0.484536 0.484536 -180 1 0 0.626849 -0.739028 L21.94 284.34 L22.57 284.34 ZM26.33 295.43 a0.484536
								 0.484536 -180 0 0 0.626849 0.739028 L28.84 295.43 L30.72 291.73 A2.76216 2.76216 0 0 1 26.95 291.73
								 L26.33 295.43 ZM58.92 289.52 A1.49813 1.49813 0 0 1 58.92 292.47 L59.55 292.47 L62.68 289.52 L65.82
								 286.56 L65.19 286.56 L63.31 288.04 A2.05599 2.05599 0 0 1 63.31 285.08 L62.06 285.82 L58.92 289.52
								 ZM62.68 282.86 L61.43 282.13 L61.43 285.82 L62.06 285.82 L62.68 283.6 L62.68 282.86 ZM55.79 291.73
								 C55.04 297.86 47.67 294.76 45.76 299.86 L47.01 300.6 C49.21 300.44 50.02 298.27 52.03 297.64 C53.43
								 297.21 55.43 297.53 54.54 295.43 L57.04 293.21 L57.67 292.47 a0.484536 0.484536 0 1 1 -0.626849
								 -0.739028 L55.79 291.73 ZM46.39 300.6 L45.13 301.34 a0.727654 0.727654 -180 0 0 1.2537 -0.739028
								 ZM24.45 240 L24.45 239.26 L23.82 241.48 L24.45 240 ZM27.58 237.78 L27.58 237.04 L26.95 239.26 L27.58
								 237.78 ZM20.69 228.18 C20.03 226.75 21.55 227.89 21.94 227.44 C22.08 227.27 22.07 226.88 21.94 226.7
								 C21.54 226.15 20.05 227.44 20.06 225.96 A2.05599 2.05599 -180 0 0 20.06 228.92 a0.484536 0.484536
								 0 1 1 0.626849 -0.739028 ZM23.82 234.83 A2.10326 2.10326 -180 0 0 20.06 234.09 L23.82 234.83 ZM23.82
								 229.65 L24.45 228.92 L23.19 228.92 L23.82 229.65 ZM30.09 230.39 a0.484536 0.484536 -180 1 0 -0.626849
								 -0.739028 L30.09 230.39 ZM44.51 238.52 C46.27 239.54 46.77 237.95 47.64 237.04 C47.86 236.82 48.11
								 236.63 48.27 236.31 C48.39 236.06 48.46 235.73 48.27 235.57 C48.1 235.43 47.75 235.41 47.64 235.57
								 C47.51 235.75 47.72 236.16 47.64 236.31 C47.47 236.62 45.95 235.67 46.39 237.04 L43.25 237.04 L44.51
								 238.52 ZM48.27 234.83 L48.89 236.31 A2.48199 2.48199 -180 0 0 47.64 233.35 L47.01 233.35 L48.27
								 234.83 ZM52.03 239.26 L52.66 238.52 L51.4 237.04 L52.03 239.26 ZM55.79 243.7 L57.04 244.43 A1.12491
								 1.12491 -180 0 0 55.79 242.96 L55.79 243.7 ZM58.92 245.17 L59.55 245.17 A1.32475 1.32475 -180 0
								 0 57.67 244.43 L58.92 245.17 ZM63.31 254.04 L63.94 254.04 L63.31 253.3 L63.31 254.04 ZM59.55 261.43
								 L60.8 262.91 L61.43 262.91 A3.87692 3.87692 -180 0 0 58.92 259.95 L59.55 261.43 ZM75.22 256.26 C75.85
								 256.82 76.13 255.8 75.85 255.52 C75.51 255.19 74.41 255.87 74.6 256.26 L75.22 256.26 ZM76.48 254.78
								 L77.73 254.04 L77.1 254.04 L77.73 253.3 A1.12491 1.12491 -180 0 0 76.48 254.78 Z" class="st2"/>
				</g>
				<g id="shape39-93" v:mID="39" v:groupContext="shape" transform="translate(58.7632,0)">
					<title>Sheet.39</title>
					<path d="M17.09 200.35 A1.4783 1.4783 0 0 1 15.83 202.57 A1.4783 1.4783 0 0 1 17.09 200.35 ZM26.49 295.69 L26.49
								 294.95 L27.12 295.69 L26.49 295.69 ZM32.13 283.12 L31.5 283.12 A4.59157 4.59157 -180 0 0 30.25 279.43
								 C30.73 280.52 32.93 280.33 33.38 279.43 C33.68 278.85 33.26 277.98 33.38 277.21 C33.49 276.54 34.01
								 275.95 34.64 275.73 C36.21 275.2 38.49 277.02 37.77 273.52 A1.12491 1.12491 -180 0 0 36.52 272.04
								 L37.14 271.3 L35.26 269.82 L35.26 269.08 A3.46881 3.46881 -180 0 0 40.28 269.82 L40.91 269.08 A18.5986
								 18.5986 0 0 1 44.67 260.95 A4.52896 4.52896 0 0 1 45.92 254.3 L48.43 252.82 A1.45531 1.45531 0 0
								 1 50.94 251.34 L52.19 249.13 A4.25474 4.25474 -180 0 0 54.07 243.95 L54.07 243.22 A13.0585 13.0585
								 0 0 1 57.2 231.39 A5.42358 5.42358 -180 0 0 55.95 224 L52.19 221.04 A2.13507 2.13507 0 0 1 48.43
								 219.57 L46.55 221.04 A2.13058 2.13058 -180 0 0 45.29 218.09 L43.41 217.35 L42.79 217.35 L42.16 218.83
								 L42.79 216.61 L42.16 216.61 A1.56183 1.56183 -180 0 0 40.28 218.83 A2.19642 2.19642 0 0 1 40.91
								 215.13 L40.28 213.65 L39.65 210.7 L38.4 209.96 L35.89 207.74 L35.26 207.74 C34.03 208.82 31.23 207.87
								 30.88 206.26 C30.64 205.18 31.51 203.8 29.62 203.31 L28.37 203.31 C29.2 201.59 27.95 201.83 27.15
								 201.1 C26.88 200.86 26.67 200.51 26.42 200.34 C25.57 199.76 24.3 201.21 23.32 201.08 C22.33 200.95
								 21.64 199.18 20.22 200.35 A2.42254 2.42254 -180 0 0 17.71 198.13 L17.09 200.35 L15.83 198.87 A1.12491
								 1.12491 -180 0 0 17.09 197.4 L13.95 199.61 L13.32 199.61 C11.14 198.76 12.4 200.71 12.07 201.83
								 C11.74 202.93 9.87 203.23 10.82 204.79 L8.31 201.83 L6.43 201.83 L5.18 202.57 C2.62 202.72 3.71
								 197.39 0.16 199.61 A1.78092 1.78092 -180 0 0 0.79 201.83 L0.79 201.09 L2.67 202.57 a0.484536 0.484536
								 -180 1 0 0.626849 0.739028 L5.18 204.79 L6.43 205.52 C4.78 204.61 5.7 202.58 7.06 202.57 C7.58 202.56
								 8.17 202.86 8.31 203.31 C8.45 203.76 8.13 204.36 8.31 204.79 C8.51 205.28 9.38 205.53 8.94 206.26
								 L8.94 209.96 A1.241 1.241 0 0 1 8.94 212.18 L8.31 212.18 A4.99573 4.99573 0 0 1 6.43 215.87 C7.2
								 217.06 6.03 216.4 5.8 216.61 C5.68 216.72 5.84 217.09 5.8 217.35 C5.76 217.69 5.38 217.85 5.18 218.09
								 C4.32 219.08 6.4 221.44 6.43 221.78 L5.8 221.78 A2.9505 2.9505 -180 0 0 5.8 225.48 L5.18 225.48
								 L7.68 229.91 L12.07 239.52 L17.71 243.95 L19.59 249.87 L19.59 251.34 A21.2371 21.2371 0 0 1 19.59
								 261.69 A1.241 1.241 0 0 1 19.59 263.91 A14.87 14.87 0 0 1 20.85 273.52 a0.484536 0.484536 -180 0
								 0 -0.626849 0.739028 L21.47 277.95 L22.1 280.91 L22.1 280.17 L22.73 280.91 L23.35 284.6 L22.1 284.6
								 L22.73 286.82 L22.1 288.3 L23.98 288.3 L23.98 291.25 L23.35 289.77 C23.61 290.44 22.81 293.25 23.98
								 293.47 C24.6 293.59 25.76 292.98 25.23 294.21 L25.86 293.47 L25.86 294.21 L25.86 295.69 C27.31 295.08
								 25.71 297.16 27.12 297.16 L27.12 296.43 L30.88 299.38 L30.88 297.16 L32.13 297.9 L31.5 299.38 L31.5
								 300.12 L28.37 297.9 A1.41209 1.41209 -180 0 0 29.62 300.12 L33.38 300.86 C32.81 302.3 34.59 301.4
								 35.26 301.6 L37.14 300.86 A7.52571 7.52571 0 0 1 32.13 297.16 a0.484536 0.484536 0 1 1 -0.626849
								 -0.739028 L33.38 296.43 L30.88 294.95 C30.49 294.23 31.23 293.94 31.5 293.47 C32.21 292.27 29.8
								 289.92 33.38 289.77 L32.13 289.04 L31.5 289.04 A1.12491 1.12491 0 0 1 30.25 287.56 C28.46 284.61
								 32.36 287.35 31.5 285.34 A1.78092 1.78092 0 0 1 32.13 283.12 ZM32.13 283.12 A1.1816 1.1816 -180
								 1 0 32.13 280.91 A1.241 1.241 -180 0 0 32.13 283.12 ZM28.37 201.09 L28.37 199.61 a0.745186 0.745186
								 -180 1 0 -2.34479E-13 1.47806 ZM40.91 296.06 L41.53 296.43 L42.79 295.69 L42.16 295.69 L40.91 295.69
								 L40.91 296.06 ZM40.91 296.06 L40.28 295.69 L40.91 296.43 L40.91 296.06 ZM22.1 283.86 L22.73 283.86
								 A1.86367 1.86367 -180 0 0 21.47 280.91 L22.1 283.86 Z" class="st2"/>
				</g>
				<g id="shape40-95" v:mID="40" v:groupContext="shape" transform="translate(137.28,-31.1389)">
					<title>Sheet.40</title>
					<path d="M50.77 184.19 L50.15 183.45 L49.52 181.24 A1.22756 1.22756 -180 0 0 50.15 179.02 C52.03 179.29 51.18
								 177.6 51.43 176.75 C51.8 175.51 54.48 176.01 55.16 176.8 L53.91 177.54 A1.12491 1.12491 0 0 1 55.16
								 179.02 L57.67 178.28 L58.92 178.28 L62.06 180.5 A2.44379 2.44379 0 0 1 63.94 182.71 L63.94 183.45
								 C62.74 184.09 60.92 184.7 59.55 184.19 C58.67 183.86 57.98 183.07 57.04 182.71 C56.44 182.48 55.72
								 182.43 55.16 182.71 C54.45 183.07 53.99 183.96 53.28 184.19 C52.54 184.43 51.52 183.95 50.77 184.19
								 ZM50.15 190.84 L50.77 190.84 L50.15 190.84 ZM97.16 213.01 L98.42 212.28 L98.42 213.01 L97.16 213.01
								 ZM162.98 142.81 L164.86 144.29 L164.23 144.29 L162.35 143.55 a0.484536 0.484536 -180 1 0 0.626849
								 -0.739028 ZM84 144.29 L84.62 144.29 L86.51 145.76 L85.88 146.5 A1.98945 1.98945 0 0 1 82.74 146.5
								 A1.4783 1.4783 -180 0 0 84 144.29 ZM82.12 140.59 C84.6 141.14 82.32 143.44 84 144.29 L83.37 144.29
								 L82.12 140.59 ZM11.28 183.45 L11.28 184.19 L10.03 187.15 L10.66 187.89 L10.66 190.84 L13.16 190.1
								 L14.42 192.32 A2.27197 2.27197 0 0 1 17.55 190.84 L20.69 187.89 L19.43 186.41 C19.52 183.04 25.85
								 185.25 23.82 181.24 L24.45 180.5 A6.08294 6.08294 -180 0 0 28.84 179.76 a0.954158 0.954158 0 0 1
								 1.88055 2.27374E-13 L31.97 182.71 L33.22 183.45 A5.3553 5.3553 0 0 1 37.61 187.15 a0.484536 0.484536
								 -180 0 0 0.626849 -0.739028 L37.61 186.41 L38.24 184.93 L39.49 185.67 L36.98 183.45 L35.73 182.71
								 C36.65 180.33 33.87 180.35 33.22 179.02 C33.02 178.6 33.03 178.05 33.22 177.54 C33.35 177.21 33.56
								 176.89 33.85 176.8 C34.5 176.61 35.52 177.59 35.1 178.28 L35.73 177.54 A1.78092 1.78092 0 0 1 36.36
								 179.76 A4.85354 4.85354 0 0 1 40.75 185.67 L41.37 186.41 L43.25 187.89 L44.51 187.89 L45.76 190.1
								 L45.76 188.63 L46.39 188.63 L44.51 185.67 L44.51 184.93 L45.13 185.67 A1.01504 1.01504 0 1 1 47.01
								 184.93 C47.65 185.01 48.05 185.01 48.5 184.83 C49.5 184.46 50.75 183.28 51.4 184.93 L50.77 184.93
								 L51.4 185.67 L48.89 185.67 C47.93 184.42 47.32 185.99 47.64 186.41 C48.09 187.01 50.44 185.25 49.52
								 187.89 L48.89 187.89 A1.78092 1.78092 0 0 1 49.52 190.1 L50.15 190.1 L49.52 190.84 L50.15 190.84
								 L52.03 191.58 L53.91 190.84 L55.16 192.32 L55.79 191.58 L57.67 190.84 L58.3 191.58 L58.92 190.84
								 A18.2415 18.2415 0 0 1 57.67 198.97 L57.67 199.71 L55.79 199.71 C55.6 199.48 54.72 199.94 54.54
								 199.71 C54.33 199.46 54.95 198.38 53.91 198.97 C52.5 200.56 51.01 199.21 49.52 198.97 C48.72 198.84
								 47.91 199.04 47.01 198.97 C45.76 198.89 44.34 198.3 45.13 196.76 L43.88 196.76 A2.59183 2.59183
								 -180 0 0 41.37 200.45 L40.75 201.19 L36.98 198.97 L36.98 198.23 C36.27 195.98 34.98 196.93 33.22
								 196.76 C32.65 196.7 32.03 196.52 31.97 196.02 C31.94 195.76 32.06 195.42 31.97 195.28 C31.73 194.89
								 29.97 195.92 30.72 194.54 C34.13 193.76 29.83 191.81 31.97 190.84 a0.73805 0.73805 0 0 1 -1.2537
								 -0.739028 L29.46 190.84 L28.84 190.84 L24.45 190.84 L17.55 193.06 L16.92 193.06 C14.88 194.98 15.23
								 191.73 13.79 192.32 A3.50703 3.50703 0 0 1 10.66 196.02 L10.03 196.76 C9.1 197.67 9.56 199.25 9.37
								 200.5 C8.96 203.1 5.69 204.24 4.39 206.36 L3.76 207.1 A10.6154 10.6154 0 0 1 0.63 213.01 L0.63 215.23
								 A1.78092 1.78092 0 0 1 1.25 217.45 C0.48 219.78 2.78 223.24 0 224.84 A1.99582 1.99582 0 0 1 0.63
								 227.06 A1.41209 1.41209 -180 0 0 1.88 229.27 L1.88 230.75 L2.51 230.75 C4.91 232.52 2.82 236.56
								 6.27 237.4 L10.03 240.36 L10.66 241.1 L13.16 239.62 C13.95 239.83 14.89 239.41 15.67 239.62 C17.04
								 239.99 17.95 242.32 19.43 238.88 C20.41 239.23 20.79 238.65 21.38 238.33 C22.86 237.51 25.69 238.3
								 25.7 240.36 L25.7 241.1 L29.46 240.36 a0.484536 0.484536 -180 0 0 0.626849 0.739028 A4.79961 4.79961
								 0 0 1 30.09 246.27 L30.72 246.27 L30.09 247.75 a0.484536 0.484536 0 0 1 -0.626849 0.739028 C31.07
								 249.61 30.02 253.26 31.97 254.4 C32.41 254.66 33 254.79 33.22 255.14 C33.56 255.67 33.05 256.72
								 33.22 257.36 L35.1 261.05 L33.85 261.79 L35.73 264.75 A16.6487 16.6487 -180 0 0 32.6 274.35 L32.6
								 275.09 L36.36 281.74 L36.98 289.87 L38.24 292.09 L38.24 292.83 L40.12 298.74 L39.49 298.74 L40.12
								 300.96 L40.12 300.22 L40.75 301.7 L41.37 301.7 C42.59 298.99 45.16 300.69 47.18 300.85 C51.08 301.17
								 52.97 295.75 54.54 292.83 L55.16 292.09 L55.79 289.13 L55.79 286.92 L58.92 285.44 A6.8878 6.8878
								 -180 0 0 58.92 279.53 L58.92 278.79 C58.04 272.2 64.74 275.86 65.82 271.4 L65.82 264.01 L65.19 263.27
								 L63.94 261.79 L65.19 258.1 A2.87448 2.87448 0 0 1 65.82 252.92 L65.82 252.18 A24.3084 24.3084 0
								 0 1 72.71 243.32 L75.22 238.88 L77.1 231.49 A1.241 1.241 -180 0 0 77.1 229.27 C76.67 229.92 75.99
								 230.54 75.22 230.75 C73.61 231.2 71.65 229.84 70.21 231.49 L69.58 231.49 L68.33 230.01 a0.749066
								 0.749066 -180 0 0 1.56319E-13 -1.47806 C69.63 224.54 65.09 225.14 63.94 223.36 C63.13 222.11 63.99
								 219.68 62.06 218.93 L60.8 213.01 a0.727654 0.727654 0 1 1 -1.2537 -0.739028 L59.55 210.06 L55.79
								 202.67 L55.16 201.19 L57.67 204.89 L58.3 201.93 L58.3 204.89 L58.92 204.89 L61.43 210.06 C64.28
								 210.15 64.08 213.06 63.91 215.31 C63.81 216.52 63.72 217.54 65.82 217.45 L67.7 221.88 L67.7 222.62
								 L68.95 228.53 C70.43 229.43 70.59 227.47 71.46 227.06 C71.97 226.81 72.73 227.1 73.34 227.06 C75.39
								 226.91 75.92 223.05 78.36 223.36 C77.65 221.99 79.31 222.99 79.61 222.62 C79.91 222.26 78.85 220.54
								 80.86 221.88 L81.49 221.88 C80.93 218.5 85.48 222.54 84 218.19 L84.62 218.19 C83.74 216.02 87.04
								 214.89 87.13 213.08 C87.2 211.52 84.89 209.45 83.37 210.06 A2.77651 2.77651 0 0 1 82.74 207.1 L82.12
								 207.1 L82.12 207.84 C82.35 211.95 79.57 209.15 78.36 210.06 C77.74 210.52 77.52 211.93 76.48 210.06
								 A1.78092 1.78092 -180 0 0 77.1 207.84 L75.85 208.58 A10.0173 10.0173 -180 0 0 73.34 203.41 L72.71
								 201.93 C73.64 202.32 73.28 201.68 73.34 201.19 C73.46 200.32 74.93 199.93 75.22 201.19 A6.26541
								 6.26541 -180 0 0 79.61 207.1 C81.1 207.97 83.37 204.51 83.37 207.84 L88.39 208.58 L90.89 208.58
								 L91.52 208.58 A2.5078 2.5078 0 0 1 95.28 210.8 L95.91 210.8 L99.04 215.97 L100.3 215.23 L100.92
								 215.23 L100.92 213.01 L101.55 213.01 L102.8 222.62 L104.06 224.84 L106.56 233.71 L108.44 235.92
								 L109.07 233.71 A4.0165 4.0165 -180 0 0 110.33 230.01 A7.28368 7.28368 -180 0 0 110.33 224.1 L111.58
								 223.36 L111.58 222.62 L112.83 221.88 L115.34 218.93 C113.95 216.76 116.79 217.65 117.22 216.71 C117.5
								 216.12 116.8 214.79 117.22 214.49 C117.73 214.13 119.93 215.34 118.47 213.01 A1.58078 1.58078 -180
								 1 0 121.61 213.01 L125.37 218.19 L126 218.19 A3.86978 3.86978 0 0 1 126 222.62 C127.79 225.45 128.1
								 222.1 129.13 221.88 C130.08 221.68 131.64 224.13 131.05 224.71 L131.11 224.9 L132.27 228.53 C130.1
								 229.64 134.43 231.52 131.64 232.97 L131.64 233.71 L132.27 235.92 L132.27 234.45 C135.78 235.81 133.3
								 239.05 134.15 241.1 C134.84 242.78 137.77 243.66 137.91 245.53 L139.16 245.53 C136.28 243.46 139.83
								 239.58 136.03 238.14 L134.15 236.66 L133.52 232.97 L132.89 232.97 C132.32 230.89 134.67 229.04 132.89
								 227.06 L134.15 227.06 C132.77 229.91 135.8 227.41 136.03 229.27 C136.53 231.27 140.15 231.13 139.16
								 233.71 A1.56183 1.56183 -180 0 0 141.04 231.49 L141.67 231.49 C145.14 230.52 143.59 226.43 142.92
								 224.1 L139.16 218.93 A3.15043 3.15043 0 0 1 142.92 214.49 L142.92 215.97 L143.55 215.97 L143.55
								 215.23 L146.68 213.01 L147.94 213.01 A5.05489 5.05489 -180 0 0 151.7 210.06 L151.7 209.32 C153.15
								 208.36 152.87 207.55 153.06 206.5 C153.49 204.02 156.5 200.2 151.7 200.45 L153.58 199.71 L152.95
								 198.97 L153.58 198.97 C151.1 197.91 151.75 193.75 148.56 193.8 L149.82 191.58 A1.32475 1.32475 0
								 0 1 151.7 190.84 L151.7 190.1 L149.19 188.63 L148.56 190.84 L147.94 190.84 L145.43 187.89 C144.69
								 186.5 146.44 187.53 146.68 187.15 C146.77 187.01 146.66 186.67 146.68 186.41 C146.78 185.51 148.64
								 185.56 147.94 184.19 L149.19 184.93 C146.97 186.33 149.83 186.59 149.19 187.89 A3.3952 3.3952 0
								 0 1 153.58 186.41 L153.58 188.63 C157.01 186.99 154.34 190.19 156.09 190.84 L155.46 190.84 L156.71
								 192.32 L156.09 193.06 A1.90832 1.90832 -180 0 0 159.85 193.06 L159.85 192.32 L154.83 185.67 L156.71
								 184.93 A2.9505 2.9505 0 0 1 156.71 181.24 C157.2 179.72 157.75 180.94 158.59 181.24 C159.3 181.48
								 160.2 181.09 160.47 180.5 C160.93 179.5 159.56 177.92 161.73 177.54 A13.7708 13.7708 -180 0 0 155.46
								 164.24 L154.2 164.98 L154.2 164.24 a0.484536 0.484536 -180 0 0 -0.626849 0.739028 A1.88202 1.88202
								 -180 0 0 150.44 163.5 L151.7 162.02 L152.95 156.85 L154.2 156.85 L158.59 156.85 L158.59 156.11 A1.99482
								 1.99482 0 0 1 161.73 158.33 L164.86 156.85 A1.32475 1.32475 0 0 1 162.98 156.11 A1.99482 1.99482
								 0 0 1 166.12 153.89 L166.12 154.63 A1.51468 1.51468 -180 1 0 168 152.41 L169.25 152.41 L169.25 153.15
								 L170.5 154.63 L169.88 155.37 L169.25 159.07 a0.749066 0.749066 -180 0 0 6.25278E-13 1.47806 L168.62
								 160.54 L169.88 162.76 L176.14 169.41 L176.14 168.67 L176.14 166.46 L176.77 166.46 A1.4783 1.4783
								 0 0 1 176.77 163.5 L175.52 162.02 L176.14 161.28 L172.38 159.07 L172.38 156.85 L171.76 156.11 L173.01
								 155.37 L174.89 156.11 a0.484536 0.484536 0 1 1 0.626849 -0.739028 L178.03 156.11 L177.4 155.37 L179.28
								 153.15 L179.91 152.41 L182.41 153.15 L182.41 152.41 L177.4 150.2 C179.5 151.15 178.45 148.94 178.65
								 147.98 L177.4 147.98 a0.954158 0.954158 0 0 1 1.88055 -8.52651E-14 L186.17 150.2 L184.92 147.98
								 L186.17 147.98 L186.17 147.24 L180.53 146.5 L172.38 144.29 A13.0117 13.0117 -180 0 0 162.98 142.81
								 L161.73 142.81 L161.73 143.55 L156.09 143.55 C154.65 143.07 153.23 142.25 151.7 142.07 C150.25 141.89
								 148.71 142.29 147.31 142.07 C143.12 141.42 140.16 135.34 134.77 139.11 A1.12491 1.12491 -180 0 0
								 136.03 140.59 L132.89 139.85 L132.27 140.59 L129.13 139.85 A1.4783 1.4783 0 0 1 130.38 142.07 L126.62
								 139.85 L126.62 139.11 L124.74 138.37 L119.73 137.63 L120.98 138.37 L117.22 138.37 L116.59 138.37
								 L112.83 138.37 L112.21 137.63 L109.7 137.63 L110.33 138.37 L107.19 138.37 L110.95 136.16 L110.33
								 135.42 C108.95 133.15 105.56 135.93 104.06 134.68 C103.6 134.3 103.31 133.54 102.8 133.2 C101.68
								 132.46 99.44 133.76 99.04 134.68 L99.04 135.42 A16.4673 16.4673 -180 0 0 91.52 136.16 L90.27 136.89
								 L91.52 137.63 L87.13 138.37 L87.76 139.11 L89.64 139.85 L89.01 139.85 L84.62 139.11 L84 139.85 L87.13
								 142.07 L84 140.59 L83.37 139.11 L82.12 140.59 L81.49 140.59 A1.4783 1.4783 -180 0 0 80.24 138.37
								 L78.36 138.37 C75.22 140 78.6 141.58 77.73 143.55 L80.86 144.29 L80.24 145.02 L71.46 142.07 L71.46
								 142.81 L73.97 144.29 L72.71 144.29 L73.34 145.02 L72.09 144.29 L68.95 144.29 L68.95 145.02 L67.7
								 144.29 L63.94 145.76 L63.94 146.5 L63.31 146.5 L60.8 145.76 L62.06 145.76 L61.43 145.02 L58.92 144.29
								 C61.39 144.25 59.19 146.58 60.8 147.24 L60.18 147.24 L57.04 147.98 L58.3 150.2 L54.54 148.72 L53.91
								 148.72 L55.79 150.94 C54.96 151 53.15 150.99 52.66 150.2 C51.88 148.96 54.31 145.8 50.15 146.5 A11.0436
								 11.0436 -180 0 0 58.3 146.5 L57.67 145.76 L50.15 142.81 A2.57381 2.57381 0 0 1 46.39 142.81 L48.89
								 142.07 A1.88202 1.88202 0 0 1 45.76 140.59 L45.13 142.07 L43.88 142.07 L43.88 140.59 C44.22 142.92
								 42.39 141.74 41.35 142.08 C40.91 142.22 40.62 142.62 40.17 142.79 C39.16 143.17 37.4 142.29 37.11
								 143.51 C37.04 143.78 37.04 144.16 36.9 144.31 C36.63 144.59 35.84 144.11 36.36 143.55 L35.1 144.29
								 L36.36 145.02 A11.1404 11.1404 -180 0 0 30.72 151.68 L30.09 150.94 L29.46 152.41 L28.84 152.41 L26.95
								 153.89 L26.95 156.85 C24.73 161.03 31.59 158.86 31.34 156.85 L31.97 156.85 L33.22 161.28 C32.59
								 162.44 34.43 163.31 35.1 162.76 C35.78 162.21 35.29 160.26 36.98 161.28 A5.07436 5.07436 0 0 1 38.86
								 156.85 L38.24 156.85 L38.86 156.11 A2.48199 2.48199 0 0 1 37.61 153.15 C42.82 154.3 38.86 146.04
								 43.25 147.98 a0.73805 0.73805 0 0 1 1.2537 0.739028 L41.37 152.41 L40.75 152.41 C41.9 153.03 41.06
								 154.57 41.37 155.37 C41.96 156.88 46.66 155.73 47.01 155.37 L47.64 155.37 L48.89 156.11 C47.9 157.72
								 46.93 156.29 45.76 156.11 C44.34 155.89 42.62 157.52 43.88 159.07 L44.51 159.07 L44.51 160.54 L43.88
								 160.54 C42.95 159.54 42.09 159.54 41.64 160.01 C40.8 160.9 41.45 163.5 39.49 164.24 L38.86 163.5
								 L35.1 164.98 L33.85 164.24 L35.1 164.24 A1.72832 1.72832 -180 0 0 31.97 164.98 C32.56 163.95 31.03
								 163.98 30.72 163.5 C30.35 162.94 31.67 161.7 31.97 161.28 L31.34 161.28 L31.34 159.8 C30.65 159.97
								 29.04 161.09 29.46 161.98 C29.69 162.45 30.51 162.86 30.09 163.5 L29.46 164.98 L28.84 164.98 L26.95
								 166.46 C27.78 167.7 24.87 167.7 25.7 166.46 L24.45 168.67 L23.82 169.41 L23.82 168.67 C23.48 170.11
								 21.03 170.13 21.31 171.63 L19.43 171.63 L19.43 170.89 L18.81 170.89 L19.43 172.37 L18.18 172.37
								 L17.55 172.37 a0.727654 0.727654 -180 1 0 -1.2537 0.739028 L19.43 176.06 L19.43 176.8 L18.81 179.76
								 a0.484536 0.484536 0 1 1 -0.626849 0.739028 L16.3 180.5 L12.54 179.76 L10.66 181.24 L11.28 183.45
								 ZM43.88 187.89 A2.27639 2.27639 -180 0 0 44.51 191.58 L44.51 190.84 L45.13 191.58 L44.51 190.1 L45.13
								 190.1 L43.88 187.89 ZM58.3 177.54 L57.67 177.54 L55.79 176.8 L58.92 175.32 L60.8 175.32 L58.92 176.06
								 L59.55 176.06 L58.92 177.54 L58.3 177.54 ZM112.21 137.63 A1.32475 1.32475 -180 0 0 110.33 136.89
								 L112.21 137.63 ZM47.64 185.67 L48.89 184.93 L48.58 184.93 L47.64 185.67 ZM161.1 232.23 L161.1 230.75
								 L160.47 231.49 C160.98 228.64 158.33 231.15 157.97 229.27 L157.97 231.49 L159.85 231.49 a0.727654
								 0.727654 0 1 1 -1.2537 0.739028 L159.85 233.71 L161.1 232.23 ZM161.1 232.23 L161.1 232.97 L161.73
								 232.97 L161.73 232.23 L161.1 232.23 ZM161.73 232.23 a0.749066 0.749066 -180 0 0 2.84217E-14 -1.47806
								 L161.73 232.23 ZM161.73 230.75 L162.35 230.75 L162.35 229.27 a0.727654 0.727654 -180 1 0 -1.2537
								 -0.739028 L161.73 230.01 a0.484536 0.484536 -180 1 0 -0.626849 0.739028 L161.73 230.75 ZM166.12
								 195.28 A1.29018 1.29018 -180 1 0 168 193.8 A1.44155 1.44155 -180 0 0 169.88 193.06 L170.5 193.8
								 L170.5 193.06 L171.13 193.8 L171.76 192.32 L170.5 188.63 a0.484536 0.484536 0 1 1 0.626849 -0.739028
								 L170.5 187.15 L168.62 184.19 L168 184.19 L168.62 190.1 L167.37 190.84 a0.727654 0.727654 -180 0
								 0 -1.2537 -0.739028 L166.12 192.32 L166.12 193.06 L165.49 192.32 C164.89 191.92 160.02 193.97 162.35
								 195.28 a0.808447 0.808447 -180 1 0 -0.626849 1.47806 L161.73 196.02 L162.35 196.76 L162.35 199.71
								 L163.61 198.97 C165.4 197.42 161.53 195.63 163.61 194.54 L165.49 193.8 L166.12 193.8 L166.12 195.28
								 ZM166.12 195.28 L164.86 194.54 L165.49 196.02 L166.12 195.28 ZM164.86 195.28 L164.23 194.54 A1.16204
								 1.16204 -180 0 0 164.86 196.76 L164.86 195.28 ZM68.33 285.44 L68.95 286.92 L69.58 286.92 L72.09
								 286.18 L72.71 286.18 A56.2515 56.2515 -180 0 0 75.85 271.4 L75.85 272.14 L76.48 271.4 L75.85 266.96
								 L75.22 266.22 L74.6 268.44 A1.78092 1.78092 -180 0 0 73.97 270.66 L69.58 272.14 C67.92 274.18 70.07
								 276.72 69.58 278.79 C69.07 280.92 65.76 282.55 68.33 285.44 ZM80.86 229.27 L81.49 228.53 L80.24
								 228.53 L80.86 229.27 ZM33.22 190.1 L36.36 190.84 L36.98 187.89 A3.17064 3.17064 0 0 1 33.85 188.63
								 L33.22 188.63 L33.22 190.1 ZM47.01 193.8 L48.89 193.8 L48.89 193.06 L45.76 192.32 A1.12491 1.12491
								 -180 0 0 47.01 193.8 ZM55.16 193.8 L55.79 193.8 C58.13 194.95 56.18 192.59 57.67 192.32 L54.54 193.8
								 L55.16 193.8 ZM1.25 204.89 L1.88 203.41 L1.25 203.41 L1.25 204.89 ZM5.64 202.67 a0.727654 0.727654
								 -180 1 0 -1.2537 0.739028 L3.76 204.89 L5.64 202.67 ZM75.22 183.45 L75.85 184.19 L75.85 183.45 a0.889607
								 0.889607 0 1 1 -2.70006E-13 1.47806 a0.484536 0.484536 -180 1 0 0.626849 0.739028 L77.73 190.1 L77.73
								 190.84 A2.98898 2.98898 0 0 1 72.71 187.89 L72.09 187.15 L72.71 187.15 A1.78092 1.78092 0 0 1 73.34
								 184.93 L71.46 183.45 C68.2 183.13 70.12 181.05 69.58 179.76 C69.15 178.71 67.11 178.18 68.95 176.8
								 L70.21 176.06 L72.71 175.32 A3.62798 3.62798 0 0 1 76.48 177.54 L73.97 177.54 a0.749066 0.749066
								 -180 0 0 9.9476E-14 1.47806 L73.34 179.02 L74.6 181.24 L75.22 181.24 L75.22 182.71 L75.22 183.45
								 ZM175.52 170.89 a0.749066 0.749066 -180 0 0 0 -1.47806 L175.52 170.89 ZM173.01 177.54 L172.38 177.54
								 L171.76 179.02 L173.01 177.54 ZM167.37 184.19 L168 183.45 L167.37 181.24 L168 182.71 L168.62 181.24
								 L169.88 182.71 L170.5 181.24 L171.76 180.5 A1.08642 1.08642 0 0 1 170.5 179.02 L169.88 179.76 L169.25
								 179.02 L165.49 177.54 L166.12 178.28 L167.37 180.5 a0.727654 0.727654 -180 0 0 -1.2537 0.739028
								 L167.37 184.19 ZM110.95 238.14 L112.21 238.14 L112.83 238.14 A6.81657 6.81657 -180 0 0 111.58 232.97
								 L110.95 232.23 L110.95 232.97 A5.55342 5.55342 -180 0 0 110.95 238.14 ZM102.18 199.71 L100.92 198.23
								 L101.55 198.23 L102.18 199.71 ZM144.18 248.49 L145.43 249.23 L146.06 252.18 L147.31 252.18 L147.31
								 252.92 L149.19 252.92 L149.82 252.92 L150.44 254.4 A2.78011 2.78011 -180 0 0 152.95 250.71 L153.58
								 249.23 L154.83 246.27 L155.46 246.27 C152.36 245.77 155.19 244.24 154.83 243.32 C154.73 243.06 154.4
								 242.85 154.2 242.58 C153.62 241.73 154.35 240.24 155.46 240.36 L154.83 240.36 L156.09 239.62 L154.2
								 238.88 L153.58 237.4 L151.7 239.62 L151.7 240.36 A2.20521 2.20521 -180 0 0 148.56 242.58 L147.31
								 242.58 L146.68 245.53 C145.05 243.04 143.25 247.36 144.18 248.49 ZM142.29 218.93 L142.92 218.93
								 A1.4783 1.4783 -180 0 0 144.18 216.71 A1.45365 1.45365 -180 0 0 142.29 218.93 ZM154.83 213.01 L155.46
								 213.01 L155.46 208.58 A3.22237 3.22237 -180 0 0 154.83 213.01 ZM140.92 252.48 L141.67 252.92 L141.67
								 252.18 L141.04 250.71 a0.727654 0.727654 -180 1 0 -1.2537 -0.739028 L140.41 250.71 L139.79 250.71
								 L139.16 249.23 C138.79 249.51 137.77 248.94 137.91 248.49 C137.99 248.21 138.49 247.98 138.53 247.75
								 C138.61 247.34 137.25 246.94 137.91 246.27 L135.4 244.79 L134.77 244.79 L131.01 239.62 L128.5 238.88
								 C127.7 240.59 129.41 240.97 130.38 241.84 C130.87 242.27 131.17 242.83 131.64 243.32 C132.1 243.8
								 132.73 244.21 132.89 244.79 C133.08 245.46 132.67 246.36 132.89 247.01 C133.08 247.58 133.75 247.97
								 134.15 248.49 C135.08 249.72 134.46 251.69 135.4 252.92 L139.16 255.88 L139.16 256.62 L139.79 255.88
								 L140.41 256.62 L141.04 252.92 L140.92 252.48 ZM162.35 260.31 L161.73 260.31 L161.73 261.05 L162.35
								 260.31 ZM163.61 260.31 L164.23 258.83 L163.61 258.83 L162.98 260.31 L163.61 260.31 ZM156.71 263.27
								 L157.34 263.27 L156.09 262.53 L155.46 262.53 L156.71 263.27 ZM161.1 247.01 A1.29905 1.29905 -180
								 0 0 162.98 245.53 L160.47 246.27 L157.97 245.53 L156.71 246.27 L156.71 247.75 L157.34 247.01 L161.1
								 247.01 ZM156.09 252.92 L156.09 253.66 L156.09 255.88 L156.71 255.88 L156.71 252.92 L157.97 252.18
								 L157.34 252.92 L158.59 254.4 C157.9 255.76 159.52 254.8 159.85 255.14 C160.09 255.39 159.61 256.36
								 159.85 256.62 L160.47 255.14 L158.59 252.92 L159.85 252.92 L158.59 249.97 L160.47 249.23 L161.1
								 249.23 L160.47 248.49 L157.34 249.23 L156.71 248.49 L155.46 252.18 a0.484536 0.484536 -180 1 0 0.626849
								 0.739028 ZM164.23 253.66 C165.57 254.41 164.84 251.35 163.61 252.92 L164.23 253.66 ZM166.12 249.97
								 L165.49 249.23 L164.86 249.97 L166.12 249.97 ZM155.46 224.84 a0.969073 0.969073 0 0 1 1.2537 1.47806
								 L157.34 226.32 L158.59 227.06 L158.59 226.32 L161.1 227.06 L160.47 226.32 L158.59 225.58 L157.97
								 226.32 L157.97 225.58 A2.9505 2.9505 0 0 1 157.97 221.88 L157.34 221.14 A1.45361 1.45361 -180 0
								 0 155.46 218.93 L156.09 222.62 L155.46 222.62 L155.46 224.84 ZM156.09 231.49 L155.46 230.75 L155.46
								 231.49 L153.58 234.45 L156.09 231.49 ZM157.34 229.27 L157.34 228.53 A1.4783 1.4783 -180 0 0 156.09
								 226.32 L157.34 229.27 ZM161.73 263.27 A2.48428 2.48428 0 0 1 164.86 261.05 A3.38978 3.38978 -180
								 0 0 160.47 263.27 L161.73 263.27 ZM161.1 235.92 L161.1 234.45 L160.47 234.45 L158.59 235.92 L158.59
								 237.4 L159.85 235.92 L159.85 236.66 L161.1 235.92 ZM161.1 235.92 A1.241 1.241 0 0 1 161.1 238.14
								 L162.98 238.88 L162.98 236.66 L163.61 238.14 A4.43211 4.43211 -180 0 0 162.35 232.23 L162.98 233.71
								 L161.73 233.71 L161.73 234.45 L161.1 235.92 ZM156.09 261.05 L154.2 260.31 L154.2 261.05 A1.31631
								 1.31631 -180 0 0 151.7 261.79 L156.09 261.05 ZM156.09 261.05 A4.6231 4.6231 -180 0 0 161.1 261.05
								 C159.66 258.53 158.35 263.15 156.71 260.31 L156.09 261.05 ZM149.82 260.31 L149.82 258.83 A1.32475
								 1.32475 0 0 1 147.94 258.1 L146.06 257.36 L146.06 258.1 C143.58 260.1 143.56 257.18 142.29 256.62
								 C141.52 256.27 140.28 256.8 139.79 257.36 L142.92 258.83 L144.18 258.83 L147.94 261.05 a0.954158
								 0.954158 0 0 1 1.88055 5.68434E-14 L149.82 260.31 ZM149.82 260.31 a0.954158 0.954158 -180 0 0 1.88055
								 2.27374E-13 L149.82 260.31 ZM37.61 187.15 L36.98 188.63 L37.61 188.63 L37.61 187.15 ZM36.98 183.45
								 L37.61 183.45 L36.98 183.45 ZM21.94 166.46 L21.31 166.46 L21.94 166.46 ZM17.55 163.5 C19.12 163.11
								 19.49 166.19 18.18 166.45 C17.74 166.54 17.11 166.32 16.95 166.5 C16.85 166.6 16.92 166.85 16.87
								 167.1 C16.72 167.9 15.41 168.78 16.92 168.67 L15.67 170.15 L16.3 170.15 A1.32475 1.32475 -180 0
								 0 18.18 169.41 L18.81 170.15 L21.94 169.41 L22.57 168.67 L21.94 168.67 L23.19 167.2 L21.94 166.46
								 L21.31 164.24 A2.78466 2.78466 -180 0 0 18.18 162.02 L19.43 159.8 L17.55 159.8 A1.12491 1.12491
								 -180 0 0 18.81 158.33 A1.58078 1.58078 -180 0 0 16.3 159.8 L15.67 161.28 a0.824757 0.824757 0 0
								 1 0.626849 1.47806 L16.92 162.02 L16.3 163.5 L17.55 163.5 ZM17.55 163.5 L18.18 163.5 L17.55 163.5
								 ZM16.3 162.02 L15.67 162.02 L16.3 162.02 ZM26.95 176.06 L26.95 176.8 L26.95 176.06 ZM14.42 162.76
								 L13.16 163.5 L13.79 163.5 L12.54 164.24 L11.28 164.24 L12.54 164.98 L11.28 164.98 L13.16 166.46
								 L11.28 167.93 L10.66 167.93 L11.28 168.67 L15.04 167.93 C16.03 166.74 15.57 165.67 15.67 164.24
								 C15.74 163.22 16.1 162.02 14.42 162.76 ZM17.55 168.67 L18.18 168.67 L17.55 168.67 ZM23.82 187.15
								 L23.19 185.67 L22.57 186.41 L23.82 187.15 ZM31.97 162.02 L31.97 162.76 L33.22 162.02 L31.97 162.02
								 ZM30.09 184.19 L30.09 181.24 L29.46 181.24 L29.46 183.45 L30.09 184.19 ZM30.09 184.19 L28.84 184.19
								 L29.46 187.15 L30.72 187.15 L30.72 184.93 L30.09 184.19 ZM36.98 144.29 L37.61 144.29 L36.98 144.29
								 Z" class="st2"/>
				</g>
				<g id="shape41-97" v:mID="41" v:groupContext="shape" transform="translate(1.80655E-12,-101.691)">
					<title>Sheet.41</title>
					<path d="M76.05 251.18 C79.12 253.16 78.79 250.85 79.61 249.57 C79.21 249.88 78.81 250.18 78.36 250.31 C77.13
								 250.66 75.54 249.68 74.6 251.05 A1.32475 1.32475 0 0 1 75.85 251.05 A1.32475 1.32475 0 0 1 76.05
								 251.18 ZM76.48 251.79 A1.32475 1.32475 -180 0 0 76.05 251.18 A1.32475 1.32475 -180 0 0 75.85 251.05
								 L76.48 251.79 ZM79.61 249.57 C80.01 249.27 80.41 248.96 80.86 248.83 C80.24 248.87 79.87 249.17
								 79.61 249.57 ZM84 254.01 L84.62 254.01 L84.62 253.27 L84 254.01 ZM73.34 287.26 C73.62 285.99 72.36
								 286.76 72.09 286.52 C71.74 286.22 72.92 284.33 70.83 285.78 A4.84518 4.84518 -180 0 0 62.06 285.04
								 L62.68 285.04 L64.57 283.57 L65.19 283.57 A6.39207 6.39207 0 0 1 69.58 286.52 L70.21 286.52 L69.58
								 287.26 L73.34 287.26 ZM69.58 290.96 C70.85 292.14 71.4 289.98 70.83 289.48 C70.31 289.02 68.85 289.94
								 68.33 289.48 L69.58 290.96 ZM71.06 253.48 A3.97426 3.97426 -180 0 0 70.83 254.01 L71.06 253.48 ZM71.53
								 250.26 a0.484536 0.484536 -180 0 0 -0.0693691 0.0490699 A1.78092 1.78092 -180 0 0 71.53 250.26 ZM71.53
								 250.26 a0.484536 0.484536 -180 0 0 -0.0693691 0.0490699 A1.78092 1.78092 -180 0 0 71.53 250.26 ZM82.12
								 289.48 C80.18 288.03 80.18 292.4 82.12 290.96 L82.74 289.48 L82.12 289.48 ZM67.26 243.57 L67.07
								 243.66 L67.7 243.66 L67.26 243.57 ZM101.08 233.12 a0.727654 0.727654 -180 0 0 -0.160011 0.188646
								 L101.08 233.12 ZM101.08 233.12 a0.727654 0.727654 -180 0 0 -0.160011 0.188646 L101.08 233.12 ZM102.78
								 234.43 a0.727654 0.727654 -180 0 0 -0.607099 0.357872 L102.78 234.43 ZM102.78 234.43 a0.727654 0.727654
								 -180 0 0 -0.607099 0.357872 L102.78 234.43 ZM67.26 243.57 L70.21 242.18 C72.81 241.62 70.1 244.99
								 72.71 243.66 L72.09 246.62 L75.85 247.35 A1.241 1.241 0 0 1 75.85 249.57 L73.97 248.09 L72.71 251.05
								 L72.09 251.05 a0.484536 0.484536 -180 0 0 -0.55748 -0.788098 A1.78092 1.78092 0 0 1 71.46 250.31
								 a0.484536 0.484536 0 0 1 0.0693691 -0.0490699 A1.78092 1.78092 -180 0 0 72.09 248.09 L71.46 248.09
								 A5.9028 5.9028 -180 0 0 67.07 253.27 L65.82 254.01 L65.82 253.27 A6.13781 6.13781 0 0 1 68.33 248.83
								 L67.07 249.57 A4.13872 4.13872 0 0 1 72.09 247.35 a0.484536 0.484536 -180 0 0 1.20792E-12 -0.739028
								 a0.484536 0.484536 -180 0 0 -0.626849 1.44951E-12 L69.58 246.62 L69.58 245.88 L67.7 246.62 L69.58
								 245.14 L65.82 246.62 L65.82 245.88 L64.57 246.62 L67.07 243.66 L67.7 243.66 L67.26 243.57 ZM76.48
								 251.79 L72.09 254.01 L70.83 254.01 L71.06 253.48 A3.97426 3.97426 0 0 1 76.48 251.79 L75.85 251.05
								 A1.32475 1.32475 -180 0 0 74.6 251.05 C75.54 249.68 77.13 250.66 78.36 250.31 C78.81 250.18 79.21
								 249.88 79.61 249.57 C79.87 249.17 80.24 248.87 80.86 248.83 C80.41 248.96 80.01 249.27 79.61 249.57
								 C78.79 250.85 79.12 253.16 76.05 251.18 A1.32475 1.32475 0 0 1 76.48 251.79 ZM33.85 245.14 C36.07
								 244.25 32.96 241.65 32.6 243.66 A16.2507 16.2507 0 0 1 28.21 251.79 L26.95 256.22 C27.63 256.9 26.22
								 257.28 26.33 257.7 C26.39 257.94 26.93 258.2 26.95 258.44 C26.98 258.68 26.48 258.92 26.33 259.18
								 C26.07 259.61 26.77 260.13 26.95 260.66 C27.13 261.15 26.87 261.65 26.95 262.14 C27.1 262.98 28.29
								 263.77 26.95 264.35 L28.84 265.09 L29.46 267.31 L29.46 272.48 A1.69145 1.69145 0 0 1 30.09 275.44
								 L32.6 277.65 L32.6 278.39 L31.34 279.87 A2.59183 2.59183 0 0 1 33.85 283.57 L34.48 282.83 L33.22
								 277.65 L30.72 271.74 A1.73911 1.73911 0 0 1 33.22 269.53 L33.22 270.26 A16.4766 16.4766 -180 0 0
								 35.73 277.65 L35.1 278.39 L36.36 279.13 L38.24 283.57 L39.49 285.04 L37.61 286.52 L38.24 287.26
								 A5.27342 5.27342 -180 0 0 42 290.96 L42.63 291.7 A7.10717 7.10717 -180 0 0 50.15 293.17 L52.03 295.39
								 L52.03 296.13 L57.04 297.61 L57.04 296.87 C58.01 297.36 57.63 298.24 57.67 299.09 C57.75 300.84
								 59.63 302.48 61.43 301.3 L62.68 296.13 C63.98 292.84 58.14 294.3 57.04 293.91 L55.79 293.17 L57.04
								 289.48 L57.67 290.96 L57.67 289.48 L59.55 285.04 L58.3 285.04 C53.98 283.68 57 289.34 53.28 288.74
								 L53.91 289.48 L52.66 289.48 A2.64951 2.64951 0 0 1 48.89 288 C47.47 285.38 47.25 283.24 48.27 280.61
								 C48.57 279.82 48.99 278.98 48.89 278.39 L49.52 275.44 L52.66 272.48 L55.79 272.48 L56.42 271.74
								 C55.2 274.28 57.98 272.84 58.92 273.22 C57.81 272.78 58.37 272.19 58.92 271.74 C60.06 270.84 61.14
								 270.56 62.68 271 L63.31 272.48 A1.30748 1.30748 0 0 1 65.82 273.22 L66.45 279.13 A1.41209 1.41209
								 -180 0 0 67.7 276.92 A9.1194 9.1194 0 0 1 69.58 267.31 L75.85 263.61 C78.01 262.51 73.68 260.63
								 76.48 259.18 A1.4783 1.4783 -180 0 0 77.73 256.96 L78.36 257.7 L79.61 255.48 L82.74 254.74 L82.74
								 254.01 L84 254.01 L84 253.27 C83.84 251.38 85.31 249.64 87.13 249.57 C88.13 249.54 89.24 250 89.01
								 248.09 L91.38 248.09 A2.24982 2.24982 -180 0 0 89.64 251.05 L95.28 248.09 A1.55991 1.55991 -180
								 0 0 96.53 245.88 C96.1 247.43 94.74 247.74 93.4 247.35 C92.32 247.04 91.25 246.29 92.77 245.14 L92.15
								 245.14 L90.89 243.66 L94.03 242.92 L93.4 242.18 A7.53964 7.53964 -180 0 0 85.88 245.88 A6.06169
								 6.06169 0 0 1 90.27 242.18 L90.89 242.18 C92.33 238.76 96.56 241.95 99.07 240.74 C100.67 239.97
								 101.57 237.43 104.06 238.49 L104.06 235.53 L103.43 235.53 a0.727654 0.727654 -180 0 0 -0.646599
								 -1.0969 L102.18 234.79 a0.727654 0.727654 0 0 1 0.607099 -0.357872 L103.43 234.05 L102.18 234.05
								 a0.727654 0.727654 -180 0 0 -1.09369 -0.927674 L100.92 233.31 a0.727654 0.727654 0 0 1 0.160011
								 -0.188646 L101.55 232.57 L100.3 231.83 L101.55 231.1 L100.3 225.92 A1.12491 1.12491 -180 0 0 99.04
								 227.4 L95.91 229.62 A4.23419 4.23419 0 0 1 95.91 225.18 L94.65 225.18 A1.12491 1.12491 -180 0 0
								 93.4 223.71 L90.27 222.97 C87.71 223.78 88.39 227.32 86.51 228.88 L87.13 229.62 A4.68749 4.68749
								 0 0 1 82.12 234.05 L81.49 238.49 C78.69 241.79 76.67 234.34 80.24 234.05 L73.34 231.1 L72.09 231.1
								 L72.71 228.88 a0.969073 0.969073 0 1 1 -1.2537 -1.47806 L76.48 223.71 L76.48 222.97 C79.46 225.31
								 79.07 220.37 81.49 221.49 L85.88 217.79 L87.76 217.79 L90.27 217.05 L90.89 216.32 L90.27 216.32
								 L92.77 214.1 L92.15 214.1 L89.64 213.36 A5.27342 5.27342 0 0 1 85.88 217.05 L85.88 216.32 L86.51
								 214.84 L86.51 214.1 A1.36747 1.36747 0 0 1 84 213.36 L85.25 213.36 L84.62 210.4 a0.727654 0.727654
								 -180 1 0 1.2537 -0.739028 L87.13 209.66 L89.64 208.19 C85.94 207.37 83.78 211.3 80.86 212.62 A1.12491
								 1.12491 -180 0 0 82.12 214.1 L78.98 216.32 L78.36 216.32 C78.95 215.23 81.55 214.74 79.61 213.36
								 L76.48 214.84 L78.36 214.84 A4.49072 4.49072 0 0 1 72.09 215.58 L72.09 214.84 L68.33 215.58 L69.58
								 215.58 C68.71 217.26 67.94 215.87 67.07 215.58 C65.73 215.13 64.16 217.3 62.68 216.32 L64.57 215.58
								 L64.57 214.84 L61.43 214.1 C60.85 213.47 59.77 213.08 58.92 213.36 C57.88 213.7 57.19 215.03 55.79
								 214.1 a0.749066 0.749066 -180 0 0 -4.9738E-14 -1.47806 L49.52 214.1 L47.01 214.84 L43.88 214.1 L42.63
								 213.36 L36.36 212.62 L34.48 212.62 L34.48 211.14 L33.85 211.14 C29.39 211.13 25.89 215.78 21.31
								 214.84 C19.64 215.33 21.31 215.82 21.31 216.32 C21.31 216.81 19.64 217.3 21.31 217.79 L18.81 217.79
								 L14.42 218.53 A1.241 1.241 0 0 1 14.42 220.75 A5.14762 5.14762 -180 0 0 19.43 219.27 C18.37 225.21
								 8.92 220.52 8.78 226.66 L11.28 226.66 L9.4 228.88 L13.16 228.88 L11.91 230.36 L0 234.79 L8.15 232.57
								 L16.3 228.88 L16.92 228.88 C16.05 226.62 17.92 227.31 19.43 227.4 C21.76 227.53 23.23 226.22 25.07
								 225.18 C26.51 224.38 26.77 226.11 27.58 226.66 C28.53 227.31 30.24 226.34 31.34 226.66 A2.57381
								 2.57381 -180 0 0 35.1 226.66 L34.48 231.83 A1.241 1.241 0 0 1 35.1 232.57 A1.241 1.241 0 0 1 34.48
								 234.05 C33.15 235.19 30.45 234.06 32.6 237.75 L33.22 237.75 C31.1 239.64 34.65 240.68 35.1 242.18
								 L35.1 242.92 L34.48 245.14 L33.85 245.14 ZM31.34 226.66 L30.72 227.4 L32.6 229.62 L33.22 229.62
								 L32.6 231.1 L33.85 230.36 a0.73805 0.73805 0 0 1 -1.2537 0.739028 L31.34 231.83 L32.6 231.83 L31.34
								 233.31 L32.6 234.05 L33.22 231.83 L33.85 232.57 L33.22 232.57 L33.22 234.05 L34.48 234.05 C34.91
								 233.68 35.19 233.08 35.1 232.57 A1.241 1.241 -180 0 0 34.48 231.83 L35.1 226.66 A2.57381 2.57381
								 0 0 1 31.34 226.66 ZM32.6 231.1 a0.73805 0.73805 -180 0 0 1.2537 -0.739028 L32.6 231.1 ZM35.1 232.57
								 C35.19 233.08 34.91 233.68 34.48 234.05 A1.241 1.241 -180 0 0 35.1 232.57 Z" class="st4"/>
					<path d="M76.05 251.18 C79.12 253.16 78.79 250.85 79.61 249.57 C79.21 249.88 78.81 250.18 78.36 250.31 C77.13
								 250.66 75.54 249.68 74.6 251.05 A1.32475 1.32475 0 0 1 75.85 251.05 A1.32475 1.32475 0 0 1 76.05
								 251.18" class="st3"/>
					<path d="M76.48 251.79 A1.32475 1.32475 -180 0 0 76.05 251.18 A1.32475 1.32475 -180 0 0 75.85 251.05 L76.48 251.79"
							class="st3"/>
					<path d="M79.61 249.57 C80.01 249.27 80.41 248.96 80.86 248.83 C80.24 248.87 79.87 249.17 79.61 249.57"
							class="st3"/>
					<path d="M84 254.01 L84.62 254.01 L84.62 253.27 L84 254.01" class="st3"/>
					<path d="M73.34 287.26 C73.62 285.99 72.36 286.76 72.09 286.52 C71.74 286.22 72.92 284.33 70.83 285.78 A4.84518
								 4.84518 -180 0 0 62.06 285.04 L62.68 285.04 L64.57 283.57 L65.19 283.57 A6.39207 6.39207 0 0 1 69.58
								 286.52 L70.21 286.52 L69.58 287.26 L73.34 287.26" class="st3"/>
					<path d="M69.58 290.96 C70.85 292.14 71.4 289.98 70.83 289.48 C70.31 289.02 68.85 289.94 68.33 289.48 L69.58
								 290.96" class="st3"/>
					<path d="M67.26 243.57 L67.7 243.66 L67.07 243.66 L64.57 246.62 L65.82 245.88 L65.82 246.62 L69.58 245.14 L67.7
								 246.62 L69.58 245.88 L69.58 246.62 L71.46 246.62 a0.484536 0.484536 0 0 1 0.626849 5.11591E-13 L72.71
								 243.66 C70.1 244.99 72.81 241.62 70.21 242.18 L67.26 243.57" class="st3"/>
					<path d="M72.09 246.62 a0.484536 0.484536 0 0 1 -3.41061E-13 0.739028 A4.13872 4.13872 -180 0 0 67.07 249.57
								 L68.33 248.83 A6.13781 6.13781 -180 0 0 65.82 253.27 L65.82 254.01 L67.07 253.27 A5.9028 5.9028
								 0 0 1 71.46 248.09 L72.09 248.09 A1.78092 1.78092 0 0 1 71.53 250.26 a0.484536 0.484536 0 0 1 0.55748
								 0.788098 L72.71 251.05 L73.97 248.09 L75.85 249.57 A1.241 1.241 -180 0 0 75.85 247.35 L72.09 246.62"
							class="st3"/>
					<path d="M71.06 253.48 L70.83 254.01 L72.09 254.01 L76.48 251.79 A3.97426 3.97426 -180 0 0 71.06 253.48"
							class="st3"/>
					<path d="M71.06 253.48 A3.97426 3.97426 -180 0 0 70.83 254.01 L71.06 253.48" class="st3"/>
					<path d="M71.53 250.26 a0.484536 0.484536 -180 0 0 -0.0693691 0.0490699 A1.78092 1.78092 -180 0 0 71.53 250.26"
							class="st3"/>
					<path d="M71.53 250.26 a0.484536 0.484536 -180 0 0 -0.0693691 0.0490699 A1.78092 1.78092 -180 0 0 71.53 250.26"
							class="st3"/>
					<path d="M82.12 289.48 C80.18 288.03 80.18 292.4 82.12 290.96 L82.74 289.48 L82.12 289.48" class="st3"/>
					<path d="M67.26 243.57 L67.07 243.66 L67.7 243.66 L67.26 243.57" class="st3"/>
					<path d="M101.08 233.12 a0.727654 0.727654 -180 0 0 -0.160011 0.188646 L101.08 233.12" class="st3"/>
					<path d="M101.08 233.12 a0.727654 0.727654 -180 0 0 -0.160011 0.188646 L101.08 233.12" class="st3"/>
					<path d="M102.78 234.43 a0.727654 0.727654 -180 0 0 -0.607099 0.357872 L102.78 234.43" class="st3"/>
					<path d="M102.78 234.43 a0.727654 0.727654 -180 0 0 -0.607099 0.357872 L102.78 234.43" class="st3"/>
					<path d="M67.26 243.57 L70.21 242.18 C72.81 241.62 70.1 244.99 72.71 243.66 L72.09 246.62 L75.85 247.35 A1.241
								 1.241 0 0 1 75.85 249.57 L73.97 248.09 L72.71 251.05 L72.09 251.05 a0.484536 0.484536 -180 0 0 -0.55748
								 -0.788098 A1.78092 1.78092 0 0 1 71.46 250.31 a0.484536 0.484536 0 0 1 0.0693691 -0.0490699 A1.78092
								 1.78092 -180 0 0 72.09 248.09 L71.46 248.09 A5.9028 5.9028 -180 0 0 67.07 253.27 L65.82 254.01 L65.82
								 253.27 A6.13781 6.13781 0 0 1 68.33 248.83 L67.07 249.57 A4.13872 4.13872 0 0 1 72.09 247.35 a0.484536
								 0.484536 -180 0 0 1.20792E-12 -0.739028 a0.484536 0.484536 -180 0 0 -0.626849 1.44951E-12 L69.58
								 246.62 L69.58 245.88 L67.7 246.62 L69.58 245.14 L65.82 246.62 L65.82 245.88 L64.57 246.62 L67.07
								 243.66 L67.7 243.66 L67.26 243.57" class="st3"/>
					<path d="M76.48 251.79 L72.09 254.01 L70.83 254.01 L71.06 253.48 A3.97426 3.97426 0 0 1 76.48 251.79 L75.85 251.05
								 A1.32475 1.32475 -180 0 0 74.6 251.05 C75.54 249.68 77.13 250.66 78.36 250.31 C78.81 250.18 79.21
								 249.88 79.61 249.57 C79.87 249.17 80.24 248.87 80.86 248.83 C80.41 248.96 80.01 249.27 79.61 249.57
								 C78.79 250.85 79.12 253.16 76.05 251.18 A1.32475 1.32475 0 0 1 76.48 251.79" class="st3"/>
					<path d="M33.85 245.14 C36.07 244.25 32.96 241.65 32.6 243.66 A16.2507 16.2507 0 0 1 28.21 251.79 L26.95 256.22
								 C27.63 256.9 26.22 257.28 26.33 257.7 C26.39 257.94 26.93 258.2 26.95 258.44 C26.98 258.68 26.48
								 258.92 26.33 259.18 C26.07 259.61 26.77 260.13 26.95 260.66 C27.13 261.15 26.87 261.65 26.95 262.14
								 C27.1 262.98 28.29 263.77 26.95 264.35 L28.84 265.09 L29.46 267.31 L29.46 272.48 A1.69145 1.69145
								 0 0 1 30.09 275.44 L32.6 277.65 L32.6 278.39 L31.34 279.87 A2.59183 2.59183 0 0 1 33.85 283.57 L34.48
								 282.83 L33.22 277.65 L30.72 271.74 A1.73911 1.73911 0 0 1 33.22 269.53 L33.22 270.26 A16.4766 16.4766
								 -180 0 0 35.73 277.65 L35.1 278.39 L36.36 279.13 L38.24 283.57 L39.49 285.04 L37.61 286.52 L38.24
								 287.26 A5.27342 5.27342 -180 0 0 42 290.96 L42.63 291.7 A7.10717 7.10717 -180 0 0 50.15 293.17 L52.03
								 295.39 L52.03 296.13 L57.04 297.61 L57.04 296.87 C58.01 297.36 57.63 298.24 57.67 299.09 C57.75
								 300.84 59.63 302.48 61.43 301.3 L62.68 296.13 C63.98 292.84 58.14 294.3 57.04 293.91 L55.79 293.17
								 L57.04 289.48 L57.67 290.96 L57.67 289.48 L59.55 285.04 L58.3 285.04 C53.98 283.68 57 289.34 53.28
								 288.74 L53.91 289.48 L52.66 289.48 A2.64951 2.64951 0 0 1 48.89 288 C47.47 285.38 47.25 283.24 48.27
								 280.61 C48.57 279.82 48.99 278.98 48.89 278.39 L49.52 275.44 L52.66 272.48 L55.79 272.48 L56.42
								 271.74 C55.2 274.28 57.98 272.84 58.92 273.22 C57.81 272.78 58.37 272.19 58.92 271.74 C60.06 270.84
								 61.14 270.56 62.68 271 L63.31 272.48 A1.30748 1.30748 0 0 1 65.82 273.22 L66.45 279.13 A1.41209
								 1.41209 -180 0 0 67.7 276.92 A9.1194 9.1194 0 0 1 69.58 267.31 L75.85 263.61 C78.01 262.51 73.68
								 260.63 76.48 259.18 A1.4783 1.4783 -180 0 0 77.73 256.96 L78.36 257.7 L79.61 255.48 L82.74 254.74
								 L82.74 254.01 L84 254.01 L84 253.27 C83.84 251.38 85.31 249.64 87.13 249.57 C88.13 249.54 89.24
								 250 89.01 248.09 L91.38 248.09 A2.24982 2.24982 -180 0 0 89.64 251.05 L95.28 248.09 A1.55991 1.55991
								 -180 0 0 96.53 245.88 C96.1 247.43 94.74 247.74 93.4 247.35 C92.32 247.04 91.25 246.29 92.77 245.14
								 L92.15 245.14 L90.89 243.66 L94.03 242.92 L93.4 242.18 A7.53964 7.53964 -180 0 0 85.88 245.88 A6.06169
								 6.06169 0 0 1 90.27 242.18 L90.89 242.18 C92.33 238.76 96.56 241.95 99.07 240.74 C100.67 239.97
								 101.57 237.43 104.06 238.49 L104.06 235.53 L103.43 235.53 a0.727654 0.727654 -180 0 0 -0.646599
								 -1.0969 L102.18 234.79 a0.727654 0.727654 0 0 1 0.607099 -0.357872 L103.43 234.05 L102.18 234.05
								 a0.727654 0.727654 -180 0 0 -1.09369 -0.927674 L100.92 233.31 a0.727654 0.727654 0 0 1 0.160011
								 -0.188646 L101.55 232.57 L100.3 231.83 L101.55 231.1 L100.3 225.92 A1.12491 1.12491 -180 0 0 99.04
								 227.4 L95.91 229.62 A4.23419 4.23419 0 0 1 95.91 225.18 L94.65 225.18 A1.12491 1.12491 -180 0 0
								 93.4 223.71 L90.27 222.97 C87.71 223.78 88.39 227.32 86.51 228.88 L87.13 229.62 A4.68749 4.68749
								 0 0 1 82.12 234.05 L81.49 238.49 C78.69 241.79 76.67 234.34 80.24 234.05 L73.34 231.1 L72.09 231.1
								 L72.71 228.88 a0.969073 0.969073 0 1 1 -1.2537 -1.47806 L76.48 223.71 L76.48 222.97 C79.46 225.31
								 79.07 220.37 81.49 221.49 L85.88 217.79 L87.76 217.79 L90.27 217.05 L90.89 216.32 L90.27 216.32
								 L92.77 214.1 L92.15 214.1 L89.64 213.36 A5.27342 5.27342 0 0 1 85.88 217.05 L85.88 216.32 L86.51
								 214.84 L86.51 214.1 A1.36747 1.36747 0 0 1 84 213.36 L85.25 213.36 L84.62 210.4 a0.727654 0.727654
								 -180 1 0 1.2537 -0.739028 L87.13 209.66 L89.64 208.19 C85.94 207.37 83.78 211.3 80.86 212.62 A1.12491
								 1.12491 -180 0 0 82.12 214.1 L78.98 216.32 L78.36 216.32 C78.95 215.23 81.55 214.74 79.61 213.36
								 L76.48 214.84 L78.36 214.84 A4.49072 4.49072 0 0 1 72.09 215.58 L72.09 214.84 L68.33 215.58 L69.58
								 215.58 C68.71 217.26 67.94 215.87 67.07 215.58 C65.73 215.13 64.16 217.3 62.68 216.32 L64.57 215.58
								 L64.57 214.84 L61.43 214.1 C60.85 213.47 59.77 213.08 58.92 213.36 C57.88 213.7 57.19 215.03 55.79
								 214.1 a0.749066 0.749066 -180 0 0 -4.9738E-14 -1.47806 L49.52 214.1 L47.01 214.84 L43.88 214.1 L42.63
								 213.36 L36.36 212.62 L34.48 212.62 L34.48 211.14 L33.85 211.14 C29.39 211.13 25.89 215.78 21.31
								 214.84 C19.64 215.33 21.31 215.82 21.31 216.32 C21.31 216.81 19.64 217.3 21.31 217.79 L18.81 217.79
								 L14.42 218.53 A1.241 1.241 0 0 1 14.42 220.75 A5.14762 5.14762 -180 0 0 19.43 219.27 C18.37 225.21
								 8.92 220.52 8.78 226.66 L11.28 226.66 L9.4 228.88 L13.16 228.88 L11.91 230.36 L0 234.79 L8.15 232.57
								 L16.3 228.88 L16.92 228.88 C16.05 226.62 17.92 227.31 19.43 227.4 C21.76 227.53 23.23 226.22 25.07
								 225.18 C26.51 224.38 26.77 226.11 27.58 226.66 C28.53 227.31 30.24 226.34 31.34 226.66 A2.57381
								 2.57381 -180 0 0 35.1 226.66 L34.48 231.83 A1.241 1.241 0 0 1 35.1 232.57 A1.241 1.241 0 0 1 34.48
								 234.05 C33.15 235.19 30.45 234.06 32.6 237.75 L33.22 237.75 C31.1 239.64 34.65 240.68 35.1 242.18
								 L35.1 242.92 L34.48 245.14 L33.85 245.14" class="st3"/>
					<path d="M31.34 226.66 L30.72 227.4 L32.6 229.62 L33.22 229.62 L32.6 231.1 L33.85 230.36 a0.73805 0.73805 0 0
								 1 -1.2537 0.739028 L31.34 231.83 L32.6 231.83 L31.34 233.31 L32.6 234.05 L33.22 231.83 L33.85 232.57
								 L33.22 232.57 L33.22 234.05 L34.48 234.05 C34.91 233.68 35.19 233.08 35.1 232.57 A1.241 1.241 -180
								 0 0 34.48 231.83 L35.1 226.66 A2.57381 2.57381 0 0 1 31.34 226.66" class="st3"/>
					<path d="M32.6 231.1 a0.73805 0.73805 -180 0 0 1.2537 -0.739028 L32.6 231.1" class="st3"/>
					<path d="M35.1 232.57 C35.19 233.08 34.91 233.68 34.48 234.05 A1.241 1.241 -180 0 0 35.1 232.57" class="st3"/>
				</g>
			</g>
		</g>
	</g>
	<g v:mID="0" v:index="2" v:groupContext="foregroundPage">
		<title>Page-1</title>
		<v:pageProperties v:drawingScale="1" v:pageScale="1" v:drawingUnits="19" v:shadowOffsetX="9" v:shadowOffsetY="-9"/>
		<g id="shape1-123" v:mID="1" v:groupContext="shape" transform="translate(18.55,-19)">
			<title>Virtual Network Box</title>
			<path d="M0 301.7 L323.34 301.7 L323.34 54.2 L0 54.2 L0 301.7 Z" class="st5"/>
		</g>
		<g id="group2-125" transform="translate(163.219,-43.75)" v:mID="2" v:groupContext="group">
			<title>Azure load balancer</title>
			<desc>Internal Load Balancer</desc>
			<g id="group3-126" transform="translate(0.588462,-0.523077)" v:mID="3" v:groupContext="group">
				<title>Sheet.3</title>
				<g id="shape4-127" v:mID="4" v:groupContext="shape">
					<title>Sheet.4</title>
					<path d="M31.91 283.13 L18.57 269.79 C17.98 269.2 17.26 268.88 16.41 268.88 C15.63 268.88 14.84 269.2 14.25 269.79
								 L0.92 283.13 C0.33 283.72 0 284.44 0 285.29 C0 286.07 0.33 286.86 0.92 287.44 L14.25 300.78 C14.84
								 301.37 15.56 301.7 16.41 301.7 C17.2 301.7 17.98 301.37 18.57 300.78 L31.91 287.44 C32.5 286.86
								 32.82 286.14 32.82 285.29 C32.76 284.44 32.43 283.65 31.91 283.13 ZM25.57 289.34 L25.57 286.33 L20.99
								 286.33 C20.53 287.9 19.29 289.14 17.72 289.6 L17.72 292.68 C18.37 293.13 19.35 294.18 19.35 295.29
								 C19.35 296.93 18.05 298.23 16.41 298.23 C14.78 298.23 13.47 296.93 13.47 295.29 C13.47 294.11 14.45
								 293.13 15.1 292.68 L15.1 289.67 C13.53 289.21 12.29 287.97 11.83 286.4 L7.26 286.4 L7.26 289.47
								 L2.94 285.16 L7.26 280.84 L7.26 283.85 L11.83 283.85 C12.29 282.28 13.53 281.04 15.1 280.58 L15.1
								 276.2 L12.1 276.2 L16.41 271.88 L20.73 276.2 L17.72 276.2 L17.72 280.58 C19.29 281.04 20.53 282.28
								 20.99 283.85 L25.57 283.85 L25.57 280.78 L29.88 285.09 L25.57 289.34 Z" class="st6"/>
				</g>
				<g id="shape5-129" v:mID="5" v:groupContext="shape" transform="translate(12.9462,-13.2077)">
					<title>Sheet.5</title>
					<path d="M3.47 294.77 C1.57 294.77 0 296.34 0 298.23 C0 300.13 1.57 301.7 3.47 301.7 C5.36 301.7 6.93 300.13
								 6.93 298.23 C6.93 296.34 5.36 294.77 3.47 294.77 Z" class="st6"/>
				</g>
			</g>
			<g id="shape2-131" v:mID="2" v:groupContext="groupContent">
				<v:textBlock v:margins="rect(0,0,0,0)" v:verticalAlign="0"/>
				<v:textRect cx="17" cy="307.1" width="90.6" height="10.8036"/>
				<text x="-27.06" y="309.8" class="st7" v:langID="1033"><v:paragraph v:horizAlign="1"/><v:tabList/>Internal Load Balancer</text>			</g>
		</g>
		<g id="group6-133" transform="translate(163.219,-196.75)" v:mID="6" v:groupContext="group">
			<title>Azure load balancer.6</title>
			<desc>External Load Balancer</desc>
			<g id="group7-134" transform="translate(0.588462,-0.523077)" v:mID="7" v:groupContext="group">
				<title>Sheet.7</title>
				<g id="shape8-135" v:mID="8" v:groupContext="shape">
					<title>Sheet.8</title>
					<path d="M31.91 283.13 L18.57 269.79 C17.98 269.2 17.26 268.88 16.41 268.88 C15.63 268.88 14.84 269.2 14.25 269.79
								 L0.92 283.13 C0.33 283.72 0 284.44 0 285.29 C0 286.07 0.33 286.86 0.92 287.44 L14.25 300.78 C14.84
								 301.37 15.56 301.7 16.41 301.7 C17.2 301.7 17.98 301.37 18.57 300.78 L31.91 287.44 C32.5 286.86
								 32.82 286.14 32.82 285.29 C32.76 284.44 32.43 283.65 31.91 283.13 ZM25.57 289.34 L25.57 286.33 L20.99
								 286.33 C20.53 287.9 19.29 289.14 17.72 289.6 L17.72 292.68 C18.37 293.13 19.35 294.18 19.35 295.29
								 C19.35 296.93 18.05 298.23 16.41 298.23 C14.78 298.23 13.47 296.93 13.47 295.29 C13.47 294.11 14.45
								 293.13 15.1 292.68 L15.1 289.67 C13.53 289.21 12.29 287.97 11.83 286.4 L7.26 286.4 L7.26 289.47
								 L2.94 285.16 L7.26 280.84 L7.26 283.85 L11.83 283.85 C12.29 282.28 13.53 281.04 15.1 280.58 L15.1
								 276.2 L12.1 276.2 L16.41 271.88 L20.73 276.2 L17.72 276.2 L17.72 280.58 C19.29 281.04 20.53 282.28
								 20.99 283.85 L25.57 283.85 L25.57 280.78 L29.88 285.09 L25.57 289.34 Z" class="st6"/>
				</g>
				<g id="shape9-137" v:mID="9" v:groupContext="shape" transform="translate(12.9462,-13.2077)">
					<title>Sheet.9</title>
					<path d="M3.47 294.77 C1.57 294.77 0 296.34 0 298.23 C0 300.13 1.57 301.7 3.47 301.7 C5.36 301.7 6.93 300.13
								 6.93 298.23 C6.93 296.34 5.36 294.77 3.47 294.77 Z" class="st6"/>
				</g>
			</g>
			<g id="shape6-139" v:mID="6" v:groupContext="groupContent">
				<v:textBlock v:margins="rect(0,0,0,0)" v:verticalAlign="0"/>
				<v:textRect cx="17" cy="307.1" width="94.26" height="10.8036"/>
				<text x="-27.66" y="309.8" class="st7" v:langID="1033"><v:paragraph v:horizAlign="1"/><v:tabList/>External Load Balancer  </text>			</g>
		</g>
		<g id="group10-141" transform="translate(147.98,-104.75)" v:mID="10" v:groupContext="group">
			<title>VM Scale Sets</title>
			<desc>Firewall Scale Set</desc>
			<g id="shape11-142" v:mID="11" v:groupContext="shape" transform="translate(0,-38.8771)">
				<title>Sheet.11</title>
				<v:userDefs>
					<v:ud v:nameU="msvDisableCustomConnectionPoints" v:prompt="" v:val="VT0(1):5"/>
				</v:userDefs>
				<path d="M0 300.41 A1.28961 1.28961 -180 0 0 1.29 301.7 L37.06 301.7 A1.28961 1.28961 -180 0 0 38.35 300.41 L38.35
							 277.39 A1.28961 1.28961 -180 0 0 37.06 276.1 L1.29 276.1 A1.28961 1.28961 -180 0 0 0 277.39 L0 300.41
							 Z" class="st8"/>
			</g>
			<g id="shape12-144" v:mID="12" v:groupContext="shape" transform="translate(19.192,-44.2251)">
				<title>Sheet.12</title>
				<v:userDefs>
					<v:ud v:nameU="msvDisableCustomConnectionPoints" v:prompt="" v:val="VT0(1):5"/>
				</v:userDefs>
				<path d="M6.37 290.51 L6.37 297.98 L0 301.7 L0 294.26 L6.37 290.51 Z" class="st9"/>
			</g>
			<g id="shape13-146" v:mID="13" v:groupContext="shape" transform="translate(12.782,-51.6592)">
				<title>Sheet.13</title>
				<v:userDefs>
					<v:ud v:nameU="msvDisableCustomConnectionPoints" v:prompt="" v:val="VT0(1):5"/>
				</v:userDefs>
				<path d="M12.78 297.94 L6.41 301.7 L0 297.94 L6.41 294.19 L12.78 297.94 Z" class="st10"/>
			</g>
			<g id="shape14-148" v:mID="14" v:groupContext="shape" transform="translate(12.782,-44.2251)">
				<title>Sheet.14</title>
				<v:userDefs>
					<v:ud v:nameU="msvDisableCustomConnectionPoints" v:prompt="" v:val="VT0(1):5"/>
				</v:userDefs>
				<path d="M6.41 294.26 L6.41 301.7 L0 297.98 L0 290.51 L6.41 294.26 Z" class="st11"/>
			</g>
			<g id="shape15-150" v:mID="15" v:groupContext="shape" transform="translate(15.0578,-24.1986)">
				<title>Sheet.15</title>
				<v:userDefs>
					<v:ud v:nameU="msvDisableCustomConnectionPoints" v:prompt="" v:val="VT0(1):5"/>
				</v:userDefs>
				<path d="M0 300.41 A1.28961 1.28961 -180 0 0 1.29 301.7 L37.06 301.7 A1.28961 1.28961 -180 0 0 38.35 300.41 L38.35
							 277.39 A1.28961 1.28961 -180 0 0 37.06 276.1 L1.29 276.1 A1.28961 1.28961 -180 0 0 0 277.39 L0 300.41
							 Z" class="st12"/>
			</g>
			<g id="shape16-152" v:mID="16" v:groupContext="shape" transform="translate(34.2498,-29.5087)">
				<title>Sheet.16</title>
				<v:userDefs>
					<v:ud v:nameU="msvDisableCustomConnectionPoints" v:prompt="" v:val="VT0(1):5"/>
				</v:userDefs>
				<path d="M6.37 290.51 L6.37 297.94 L0 301.7 L0 294.23 L6.37 290.51 Z" class="st9"/>
			</g>
			<g id="shape17-154" v:mID="17" v:groupContext="shape" transform="translate(27.8398,-36.9807)">
				<title>Sheet.17</title>
				<v:userDefs>
					<v:ud v:nameU="msvDisableCustomConnectionPoints" v:prompt="" v:val="VT0(1):5"/>
				</v:userDefs>
				<path d="M12.78 297.98 L6.41 301.7 L0 297.98 L6.41 294.23 L12.78 297.98 Z" class="st10"/>
			</g>
			<g id="shape18-156" v:mID="18" v:groupContext="shape" transform="translate(27.8398,-29.5087)">
				<title>Sheet.18</title>
				<v:userDefs>
					<v:ud v:nameU="msvDisableCustomConnectionPoints" v:prompt="" v:val="VT0(1):5"/>
				</v:userDefs>
				<path d="M6.41 294.23 L6.41 301.7 L0 297.94 L0 290.51 L6.41 294.23 Z" class="st11"/>
			</g>
			<g id="shape19-158" v:mID="19" v:groupContext="shape" transform="translate(26.133,-9.93737)">
				<title>Sheet.19</title>
				<v:userDefs>
					<v:ud v:nameU="msvDisableCustomConnectionPoints" v:prompt="" v:val="VT0(1):5"/>
				</v:userDefs>
				<path d="M0 300.41 A1.28961 1.28961 -180 0 0 1.29 301.7 L37.06 301.7 A1.28961 1.28961 -180 0 0 38.35 300.41 L38.35
							 277.39 A1.28961 1.28961 -180 0 0 37.06 276.1 L1.29 276.1 A1.28961 1.28961 -180 0 0 0 277.39 L0 300.41
							 Z" class="st13"/>
			</g>
			<g id="shape20-162" v:mID="20" v:groupContext="shape" transform="translate(45.325,-15.2474)">
				<title>Sheet.20</title>
				<v:userDefs>
					<v:ud v:nameU="msvDisableCustomConnectionPoints" v:prompt="" v:val="VT0(1):5"/>
				</v:userDefs>
				<path d="M6.37 290.51 L6.37 297.94 L0 301.7 L0 294.23 L6.37 290.51 Z" class="st9"/>
			</g>
			<g id="shape21-164" v:mID="21" v:groupContext="shape" transform="translate(38.915,-22.6815)">
				<title>Sheet.21</title>
				<v:userDefs>
					<v:ud v:nameU="msvDisableCustomConnectionPoints" v:prompt="" v:val="VT0(1):5"/>
				</v:userDefs>
				<path d="M12.78 297.94 L6.41 301.7 L0 297.94 L6.41 294.19 L12.78 297.94 Z" class="st10"/>
			</g>
			<g id="shape22-166" v:mID="22" v:groupContext="shape" transform="translate(38.915,-15.2474)">
				<title>Sheet.22</title>
				<v:userDefs>
					<v:ud v:nameU="msvDisableCustomConnectionPoints" v:prompt="" v:val="VT0(1):5"/>
				</v:userDefs>
				<path d="M6.41 294.26 L6.41 301.7 L0 297.94 L0 290.51 L6.41 294.26 Z" class="st11"/>
			</g>
			<g id="shape23-168" v:mID="23" v:groupContext="shape" transform="translate(38.915,-15.2474)">
				<title>Sheet.23</title>
				<v:userDefs>
					<v:ud v:nameU="msvDisableCustomConnectionPoints" v:prompt="" v:val="VT0(1):5"/>
				</v:userDefs>
				<path d="M0 297.94 L6.41 294.23 L6.41 301.7 L0 297.94 Z" class="st10"/>
			</g>
			<g id="shape24-170" v:mID="24" v:groupContext="shape" transform="translate(45.325,-15.2474)">
				<title>Sheet.24</title>
				<v:userDefs>
					<v:ud v:nameU="msvDisableCustomConnectionPoints" v:prompt="" v:val="VT0(1):5"/>
				</v:userDefs>
				<path d="M6.37 297.94 L0 294.23 L0 301.7 L6.37 297.94 Z" class="st11"/>
			</g>
			<g id="shape25-172" v:mID="25" v:groupContext="shape" transform="translate(35.9187,1.13687E-13)">
				<title>Sheet.25</title>
				<v:userDefs>
					<v:ud v:nameU="msvDisableCustomConnectionPoints" v:prompt="" v:val="VT0(1):5"/>
				</v:userDefs>
				<path d="M17.07 299.54 C13.28 298.93 13.28 296.2 13.28 291.95 L5.69 291.95 C5.69 296.35 5.69 299.08 1.9 299.54 A2.2378
							 2.2378 -180 0 0 0 301.7 L18.96 301.7 A2.2378 2.2378 -180 0 0 17.07 299.54 Z" class="st14"/>
			</g>
			<g id="shape10-176" v:mID="10" v:groupContext="groupContent">
				<v:textBlock v:margins="rect(0,0,0,0)"/>
				<v:textRect cx="32.2396" cy="307.1" width="128.96" height="10.8036"/>
				<text x="0.65" y="309.8" class="st15" v:langID="1033"><v:paragraph v:horizAlign="1"/><v:tabList/>Firewall Scale Set</text>			</g>
		</g>
		<g id="group26-178" transform="translate(162.939,-248.5)" v:mID="26" v:groupContext="group">
			<title>NAT</title>
			<desc>NAT Gateway</desc>
			<g id="shape27-179" v:mID="27" v:groupContext="shape">
				<title>Sheet.27</title>
				<v:userDefs>
					<v:ud v:nameU="msvDisableCustomConnectionPoints" v:prompt="" v:val="VT0(1):5"/>
				</v:userDefs>
				<path d="M0.45 283.61 L16.47 267.59 C16.92 267.14 17.64 267.14 18.09 267.59 L34.11 283.61 C34.56 284.06 34.56 284.78
							 34.11 285.23 L18.09 301.25 C17.64 301.7 16.92 301.7 16.47 301.25 L0.45 285.23 C0 284.78 0 284.06 0.45
							 283.61 Z" class="st16"/>
			</g>
			<g id="shape28-183" v:mID="28" v:groupContext="shape" transform="translate(7.19564,-6.50973)">
				<title>Sheet.28</title>
				<v:userDefs>
					<v:ud v:nameU="msvDisableCustomConnectionPoints" v:prompt="" v:val="VT0(1):5"/>
				</v:userDefs>
				<path d="M19.94 292.99 L19.25 292.3 L19.25 289.63 L13.72 289.63 L13.72 292.57 L16.2 292.57 L9.97 298.8 L3.74 292.57
							 L6.26 292.57 L6.26 289.63 L0.19 289.63 L0.19 292.57 L0.42 292.57 L0 292.99 L8.71 301.7 L9.97 300.44
							 L11.23 301.7 L19.94 292.99 Z" class="st11"/>
			</g>
			<g id="shape29-185" v:mID="29" v:groupContext="shape" transform="translate(4.19785,-13.7453)">
				<title>Sheet.29</title>
				<v:userDefs>
					<v:ud v:nameU="msvDisableCustomConnectionPoints" v:prompt="" v:val="VT0(1):5"/>
				</v:userDefs>
				<path d="M5.52 296.18 C4.32 294.98 2.38 294.98 1.19 296.17 C0 297.37 0.01 299.31 1.21 300.5 C2.41 301.7 4.35 301.7
							 5.54 300.5 C6.73 299.31 6.72 297.37 5.52 296.18 Z" class="st17"/>
			</g>
			<g id="shape30-187" v:mID="30" v:groupContext="shape" transform="translate(5.64336,-15.1909)">
				<title>Sheet.30</title>
				<v:userDefs>
					<v:ud v:nameU="msvDisableCustomConnectionPoints" v:prompt="" v:val="VT0(1):5"/>
				</v:userDefs>
				<path d="M3.14 298.56 C2.46 297.87 1.35 297.87 0.68 298.55 C0 299.22 0.01 300.33 0.69 301.01 C1.38 301.69 2.48 301.7
							 3.16 301.02 C3.83 300.34 3.83 299.24 3.14 298.56 Z" class="st18"/>
			</g>
			<g id="shape31-189" v:mID="31" v:groupContext="shape" transform="translate(23.6216,-13.7464)">
				<title>Sheet.31</title>
				<v:userDefs>
					<v:ud v:nameU="msvDisableCustomConnectionPoints" v:prompt="" v:val="VT0(1):5"/>
				</v:userDefs>
				<path d="M5.52 296.18 C4.32 294.98 2.38 294.98 1.19 296.18 C0 297.37 0.01 299.31 1.21 300.5 C2.41 301.7 4.35 301.7
							 5.54 300.5 C6.73 299.31 6.72 297.37 5.52 296.18 Z" class="st17"/>
			</g>
			<g id="shape32-191" v:mID="32" v:groupContext="shape" transform="translate(25.0685,-15.188)">
				<title>Sheet.32</title>
				<v:userDefs>
					<v:ud v:nameU="msvDisableCustomConnectionPoints" v:prompt="" v:val="VT0(1):5"/>
				</v:userDefs>
				<path d="M3.14 298.56 C2.46 297.87 1.35 297.87 0.68 298.55 C0 299.22 0.01 300.33 0.69 301.01 C1.38 301.69 2.48 301.7
							 3.16 301.02 C3.83 300.34 3.83 299.24 3.14 298.56 Z" class="st18"/>
			</g>
			<g id="shape33-193" v:mID="33" v:groupContext="shape" transform="translate(12.9632,-4.82836)">
				<title>Sheet.33</title>
				<v:userDefs>
					<v:ud v:nameU="msvDisableCustomConnectionPoints" v:prompt="" v:val="VT0(1):5"/>
				</v:userDefs>
				<path d="M8.27 281.13 L4.4 277.26 C4.28 277.15 4.1 277.14 3.99 277.26 C3.99 277.26 3.99 277.26 3.99 277.26 L0.12
							 281.13 C0 281.24 0 281.43 0.11 281.54 C0.17 281.6 0.24 281.63 0.32 281.63 L2.52 281.63 C2.63 281.63
							 2.73 281.72 2.73 281.84 L2.73 301.7 L5.67 301.7 L5.67 281.84 C5.67 281.73 5.76 281.64 5.87 281.63 L8.06
							 281.63 C8.22 281.63 8.35 281.51 8.35 281.35 C8.36 281.26 8.33 281.19 8.27 281.13 Z" class="st17"/>
			</g>
			<g id="shape34-195" v:mID="34" v:groupContext="shape" transform="translate(13.7961,-3.9747)">
				<title>Sheet.34</title>
				<v:userDefs>
					<v:ud v:nameU="msvDisableCustomConnectionPoints" v:prompt="" v:val="VT0(1):5"/>
				</v:userDefs>
				<path d="M5.52 296.18 C4.32 294.98 2.38 294.98 1.19 296.18 C0 297.37 0.01 299.31 1.21 300.5 C2.41 301.7 4.35 301.7
							 5.54 300.5 C6.73 299.31 6.72 297.37 5.52 296.18 Z" class="st17"/>
			</g>
			<g id="shape35-197" v:mID="35" v:groupContext="shape" transform="translate(15.2437,-5.41934)">
				<title>Sheet.35</title>
				<v:userDefs>
					<v:ud v:nameU="msvDisableCustomConnectionPoints" v:prompt="" v:val="VT0(1):5"/>
				</v:userDefs>
				<path d="M3.14 298.56 C2.45 297.87 1.35 297.87 0.68 298.55 C0 299.22 0.01 300.33 0.69 301.01 C1.38 301.69 2.48 301.7
							 3.15 301.02 C3.83 300.34 3.82 299.24 3.14 298.56 Z" class="st18"/>
			</g>
			<g id="shape26-199" v:mID="26" v:groupContext="groupContent">
				<v:textBlock v:margins="rect(0,0,0,0)"/>
				<v:textRect cx="17.28" cy="307.1" width="69.12" height="10.8036"/>
				<text x="-7.59" y="309.8" class="st15" v:langID="1033"><v:paragraph v:horizAlign="1"/><v:tabList/>NAT Gateway</text>			</g>
		</g>
	</g>
</svg>
