<svg xmlns="http://www.w3.org/2000/svg" viewBox="0 0 400 140"><defs><style>.cls-1{fill:#80bceb;}.cls-2{fill:#aad2f2;}.cls-3{fill:#bad80a;}.cls-4{fill:#55a5e4;}.cls-5{fill:#2b8fde;}.cls-6{fill:#2b978a;}.cls-7{fill:#aad5d0;}.cls-8{fill:#55aca1;}.cls-9{fill:#9273b6;}</style></defs><title>azure-architecture-center-cloud-patterns</title><g id="ICONS"><path class="cls-1" d="M366,91.73c0,.1,0,.2,0,.3a28.39,28.39,0,0,1-1.91,10v.06a27.86,27.86,0,0,1-14.4,15.27h0a25.3,25.3,0,0,1-4.21,1.48h0c-.47.13-.94.24-1.43.34a23.07,23.07,0,0,1-5.34.64h-74c-4.27,0-7.59,0-10.27-.11-1.77,0-3.27-.13-4.58-.24l-.64-.06A21.52,21.52,0,0,1,244,118.3c-.81-.29-1.56-.6-2.32-.92l-.39-.17a25.55,25.55,0,0,1-14.67-23q0-.86.06-1.68a29,29,0,0,0,4.19.92c.66.1,1.34.17,2,.21s1.21.06,1.83.06a28.16,28.16,0,0,0,8.7-1.38,28.11,28.11,0,0,0,8.44-4.43,25.88,25.88,0,0,0,3-2.69,28.05,28.05,0,0,0,8-19.63,26.88,26.88,0,0,0-.2-3.31c-.06-.54-.15-1.07-.25-1.61a28.82,28.82,0,0,1,3.41-3.4,27.38,27.38,0,0,1,5.69-3.64,26.69,26.69,0,0,1,21.68-.69c.63.25,1.25.53,1.86.83a27.32,27.32,0,0,1,3.18-4.17,26.42,26.42,0,0,1,7.63-5.74h0A25.72,25.72,0,0,1,312,41.62a26.33,26.33,0,0,1,5.7-.62,25.75,25.75,0,0,1,6,.7h0a26.62,26.62,0,0,1,6.3,2.4h0a27.08,27.08,0,0,1,7.27,5.67,27.66,27.66,0,0,1,5.35,8.52,0,0,0,0,0,0,0,27.19,27.19,0,0,1,1.3,4.25h0c.13.57.24,1.14.33,1.72l.82.19a27.17,27.17,0,0,1,15.21,10.12h0A28.26,28.26,0,0,1,366,91.73Z"/><path class="cls-2" d="M244,118.3c-.81-.29-1.56-.6-2.32-.92l-.39-.17a25.33,25.33,0,0,1-4.69-2.86c-1.22-1.57-2.76-3.09-4-4.93a13,13,0,0,1-2.45-7.66v0a13.07,13.07,0,0,1,2.78-8.13q.9.06,1.83.06a27.1,27.1,0,0,0,3-.16,17,17,0,0,0-1.65,8.23h0c0,5.26,1.13,7.9,3.17,10.62,1.37,1.81,3.06,3.43,4.42,5.41C243.77,118,243.88,118.12,244,118.3Z"/><path class="cls-3" d="M263.73,101.74v0a12.92,12.92,0,0,1-2.44,7.66c-1.38,2-3.08,3.61-4.35,5.33a14.58,14.58,0,0,0-2.52,5c-1.77,0-3.27-.13-4.58-.24l-.64-.06a14.26,14.26,0,0,1,1-1.66c1.36-2,3-3.6,4.42-5.41,2-2.72,3.17-5.36,3.17-10.62h0c0-5.25-1.12-7.89-3.17-10.61-.85-1.12-1.81-2.16-2.75-3.27a25.88,25.88,0,0,0,3-2.69,15.84,15.84,0,0,0,2,3.58C259.48,92.18,263.73,95.19,263.73,101.74Z"/><path class="cls-2" d="M279.08,117.78a14.93,14.93,0,0,1,1.2,2.07h-5.4a14.23,14.23,0,0,0-2.55-5.1c-1.27-1.72-3-3.33-4.34-5.33a12.93,12.93,0,0,1-2.45-7.66v0c0-6.55,4.26-9.56,6.79-13a14.74,14.74,0,0,0,2.33-4.34,19.78,19.78,0,0,0,.85-6.28c0-5.26-1.2-8-3.18-10.63-1.27-1.72-3-3.32-4.34-5.32a13.22,13.22,0,0,1-2.18-5,27.38,27.38,0,0,1,5.69-3.64c0,.3,0,.6,0,.92h0c0,5.25,1.13,7.9,3.18,10.62,1.36,1.81,3,3.42,4.41,5.4a12.75,12.75,0,0,1,2.37,7.6c0,6.55-4.06,9.37-6.78,13-2,2.72-3.18,5.36-3.18,10.61h0c0,5.26,1.13,7.9,3.18,10.62C276,114.18,277.72,115.8,279.08,117.78Z"/><path class="cls-3" d="M299.16,101.76h0c0-6.55-4.25-9.56-6.79-13-2-2.66-3.18-5.36-3.18-10.62h0c0-5.26,1.21-8,3.18-10.62,2.54-3.43,6.78-6.45,6.79-13h0a12.75,12.75,0,0,0-1-4.94A27.31,27.31,0,0,0,295,53.72c-.61-.3-1.23-.58-1.86-.83h0c0,.51,0,1,0,1.61h0c0,5.25-1.13,7.9-3.17,10.62-2.73,3.63-6.79,6.45-6.79,13h0c0,6.55,4.06,9.37,6.79,13,2,2.72,3.17,5.36,3.17,10.62h0c0,5.25-1.13,7.9-3.17,10.62-1.81,2.41-4.2,4.46-5.6,7.48h5.38a14.59,14.59,0,0,1,2.55-5.1C294.91,111.31,299.16,108.3,299.16,101.76Z"/><path class="cls-2" d="M314.52,117.78a14.93,14.93,0,0,1,1.2,2.07h-5.41a14.37,14.37,0,0,0-2.54-5.1c-1.27-1.72-3-3.33-4.35-5.33a12.92,12.92,0,0,1-2.44-7.66v0c0-6.55,4.25-9.56,6.79-13a14.72,14.72,0,0,0,2.32-4.34,19.78,19.78,0,0,0,.85-6.28c0-5.26-1.2-8-3.17-10.63-1.27-1.72-3-3.32-4.35-5.32A12.92,12.92,0,0,1,301,54.52v0c0-5.07,2.55-8,4.87-10.69h0A25.72,25.72,0,0,1,312,41.62c-.65.75-1.3,1.49-1.88,2.26-2,2.72-3.17,5.37-3.17,10.62h0c0,5.25,1.12,7.9,3.17,10.62,1.36,1.81,3.06,3.42,4.42,5.4a12.75,12.75,0,0,1,2.37,7.6c0,6.55-4.06,9.37-6.79,13-2,2.72-3.17,5.36-3.17,10.61h0c0,5.26,1.12,7.9,3.17,10.62C311.46,114.18,313.16,115.8,314.52,117.78Z"/><path class="cls-3" d="M330,44.1h0c2.25,2.59,4.61,5.51,4.61,10.39v0a12.93,12.93,0,0,1-2.45,7.66c-1.38,2-3.07,3.6-4.34,5.32-2,2.67-3.18,5.37-3.18,10.63a19.78,19.78,0,0,0,.85,6.28,15,15,0,0,0,2.33,4.34c2.54,3.43,6.79,6.44,6.79,13v0a12.93,12.93,0,0,1-2.45,7.66c-1.38,2-3.07,3.61-4.34,5.33a14.56,14.56,0,0,0-2.55,5.1h-5.4a14.93,14.93,0,0,1,1.2-2.07c1.36-2,3.05-3.6,4.41-5.41,2-2.72,3.18-5.36,3.18-10.62h0c0-5.25-1.13-7.89-3.18-10.61-2.72-3.63-6.78-6.45-6.78-13a12.75,12.75,0,0,1,2.37-7.6c1.36-2,3.05-3.59,4.41-5.4,2-2.72,3.18-5.37,3.18-10.62h0c0-5.25-1.13-7.9-3.18-10.62-.56-.75-1.18-1.46-1.8-2.18h0Z"/><path class="cls-2" d="M345.53,112.37c1.28,1.69,2.84,3.21,4.14,5a25.3,25.3,0,0,1-4.21,1.48h0a14.94,14.94,0,0,0-2.25-4.12c-1.27-1.72-3-3.33-4.35-5.33a12.92,12.92,0,0,1-2.44-7.66v0c0-6.55,4.25-9.56,6.79-13a15.22,15.22,0,0,0,2.33-4.34,19.78,19.78,0,0,0,.85-6.28c0-5.26-1.21-8-3.18-10.63-1.27-1.72-3-3.32-4.35-5.32a12.92,12.92,0,0,1-2.44-7.66v0a13,13,0,0,1,.85-4.72,27.66,27.66,0,0,1,5.35,8.52,0,0,0,0,0,0,0,13.8,13.8,0,0,0,1.3,4.25h0a14.89,14.89,0,0,0,1.15,1.91c.15.21.3.43.46.64,1.37,1.81,3.06,3.42,4.42,5.4a12.82,12.82,0,0,1,2.37,7.6c0,6.55-4.06,9.37-6.79,13-2,2.72-3.17,5.36-3.17,10.61h0C342.36,107,343.49,109.65,345.53,112.37Z"/><path class="cls-3" d="M366,92c-1-1.14-1.94-2.19-2.75-3.28a15.22,15.22,0,0,1-2.33-4.34,19.78,19.78,0,0,1-.85-6.28,26.27,26.27,0,0,1,.22-3.51h0a26.67,26.67,0,0,0-3.77-4.1s0,0,0,0a12.82,12.82,0,0,0-2.37,7.6c0,6.55,4.06,9.37,6.79,13,2,2.72,3.17,5.36,3.17,10.61v.38Z"/><path class="cls-4" d="M200.61,103.59a24.19,24.19,0,0,1-1.57,8.5,25.27,25.27,0,0,1-4.48,7.47,27,27,0,0,1-5,4.51c-2,1.46-6.8,4.27-6.8,4.27a28.75,28.75,0,0,1-8.58,1.62h0c-.52,0-114.74,0-114.74,0a30.7,30.7,0,0,1-3.87-.24s0,0,0,0a0,0,0,0,0,0,0c-3.49-.42-6.65-2-9.56-3.48a26.29,26.29,0,0,1-5.91-4,25.35,25.35,0,0,1-3.38-3.65,24.53,24.53,0,0,1-3.55-6.49,24.06,24.06,0,0,1-1.44-6.64c-.06-.63-.08-1.26-.08-1.9a27.12,27.12,0,0,1,.53-5.38,25.25,25.25,0,0,1,2.21-6.4c.16-.33.34-.66.52-1l.24-.42A26.22,26.22,0,0,1,46,80.16,29.89,29.89,0,0,1,59.53,77a39.59,39.59,0,0,1,9,1.44,21.37,21.37,0,0,1,.33-2.77,23.46,23.46,0,0,1,1.17-4.29,26.15,26.15,0,0,1,3.37-6.18,26.81,26.81,0,0,1,3.09-3.58A29.53,29.53,0,0,1,84.61,56,28.38,28.38,0,0,1,94,53.46s0,0,0,0h.19c.76-.07,1.5-.1,2.27-.1a29.38,29.38,0,0,1,7.55,1A31.86,31.86,0,0,1,117.62,62a23.18,23.18,0,0,1,.63-3.36,24.74,24.74,0,0,1,2.35-5.89,25.9,25.9,0,0,1,7.57-8.46,27,27,0,0,1,7.3-3.75h0a29.29,29.29,0,0,1,22.7,1.75c.33.17.67.35,1,.54l.39.23c.44.27.88.55,1.31.84a24.63,24.63,0,0,0-5.32,4.8l0,0A19.76,19.76,0,0,0,153.85,51l0,.06a21.94,21.94,0,0,0-3.17,10.61c0,.38,0,.77,0,1.16A25,25,0,0,0,151,67c0,.14,0,.28.07.41a24.22,24.22,0,0,0,4.66,10.4c.16.21.32.42.49.62A25.28,25.28,0,0,0,164.49,85a26.49,26.49,0,0,0,8,2.5h0l.94.13C175.78,96.5,186.89,103,200.2,103h.39C200.59,103.19,200.61,103.39,200.61,103.59Z"/><path class="cls-1" d="M94,53.46h.19l-.32.08.12-.07S94,53.47,94,53.46Z"/><path class="cls-1" d="M153.81,51.1c-2.95,2.52-6.36,5-11.79,5h0c-7.85,0-11.47-5.1-15.59-8.15-.47-.35-.94-.68-1.42-1l3.19-2.69c.36.3.72.59,1.09.87a17.4,17.4,0,0,0,5.23,2.82,23.87,23.87,0,0,0,7.51,1h0c6.31,0,9.48-1.36,12.74-3.81,1.18-.89,2.29-1.89,3.43-2.87.33.17.67.35,1,.54l.39.23Z"/><path class="cls-1" d="M194.56,119.56a27,27,0,0,1-5,4.51c-2.45-1.67-4.4-3.74-6.49-5.28a17.63,17.63,0,0,0-5.21-2.79,23.73,23.73,0,0,0-7.54-1c-6.31,0-9.55,1.44-12.74,3.81-4.12,3-7.74,8.14-15.59,8.14h0c-7.85,0-11.47-5.1-15.59-8.14a17.45,17.45,0,0,0-5.2-2.79,23.77,23.77,0,0,0-7.54-1c-6.31,0-9.55,1.44-12.75,3.81-4.12,3-7.73,8.14-15.59,8.14h0c-7.86,0-11.47-5.1-15.59-8.14A17.63,17.63,0,0,0,64.5,116,23.77,23.77,0,0,0,57,115c-6.31,0-9.55,1.44-12.74,3.81-1.38,1-2.71,2.27-4.16,3.48a25.35,25.35,0,0,1-3.38-3.65A17.7,17.7,0,0,0,41.36,116c2.17-1.64,4.11-3.68,6.48-5.31A15.44,15.44,0,0,1,57,107.84c7.87,0,11.25,4.87,15.6,8.15a17.3,17.3,0,0,0,5.23,2.82,23.91,23.91,0,0,0,7.51,1h0c6.3,0,9.47-1.36,12.74-3.81,2.17-1.64,4.11-3.68,6.48-5.31a15.44,15.44,0,0,1,9.12-2.84c7.86,0,11.25,4.87,15.6,8.15a17.18,17.18,0,0,0,5.23,2.82,23.87,23.87,0,0,0,7.51,1h0c6.31,0,9.48-1.36,12.74-3.81,2.18-1.64,4.12-3.68,6.49-5.31a15.38,15.38,0,0,1,9.11-2.84c7.87,0,11.25,4.87,15.6,8.15A16.9,16.9,0,0,0,194.56,119.56Z"/><path class="cls-5" d="M170.35,120.91a15.38,15.38,0,0,0-9.11,2.84c-2.37,1.63-4.31,3.67-6.49,5.31-.43.33-.87.63-1.31.92h7.17C163,128.75,166,128,170.35,128a23.73,23.73,0,0,1,7.54,1c.32.11.63.23.93.35a23.89,23.89,0,0,0,4-1.08l1.32-.79C180.53,124.47,177.08,120.91,170.35,120.91Z"/><path class="cls-5" d="M129.26,129.06c-4.35-3.28-7.74-8.15-15.6-8.15a15.44,15.44,0,0,0-9.12,2.84c-2.37,1.63-4.31,3.67-6.48,5.31-.44.33-.89.64-1.34.94h7.16c2.45-1.24,5.36-1.94,9.78-1.94a23.77,23.77,0,0,1,7.54,1,15.66,15.66,0,0,1,2.2.92h7.18C130.14,129.7,129.7,129.39,129.26,129.06Z"/><path class="cls-5" d="M72.56,129.06c-4.35-3.28-7.73-8.15-15.6-8.15a15.44,15.44,0,0,0-9.12,2.84,31.78,31.78,0,0,0-2.67,2.1c.27.14.52.29.8.43a49.9,49.9,0,0,0,5.1,2.34A26.93,26.93,0,0,1,57,128a23.77,23.77,0,0,1,7.54,1,15.69,15.69,0,0,1,2.22.93H73.9C73.45,129.71,73,129.4,72.56,129.06Z"/><path class="cls-5" d="M172.51,87.5a20.88,20.88,0,0,0-9,3.45c-4.7,3-8.83,8.14-17.77,8.14h0c-9,0-13.07-5.1-17.77-8.14A20.91,20.91,0,0,0,122,88.16a30.61,30.61,0,0,0-8.59-1c-7.2,0-10.89,1.44-14.54,3.81-4.7,3-8.81,8.14-17.77,8.14h0C72.1,99.09,68,94,63.28,91a21.1,21.1,0,0,0-5.94-2.79,30.61,30.61,0,0,0-8.59-1c-6.61,0-10.27,1.22-13.64,3.26A26.22,26.22,0,0,1,46,80.16,23.29,23.29,0,0,1,48.75,80c9,0,12.82,4.87,17.78,8.15a20.83,20.83,0,0,0,6,2.82,30.86,30.86,0,0,0,8.57,1h0c7.18,0,10.79-1.36,14.52-3.81,2.48-1.64,4.69-3.68,7.39-5.31A19.33,19.33,0,0,1,113.39,80c9,0,12.82,4.87,17.78,8.15a20.58,20.58,0,0,0,6,2.82,30.78,30.78,0,0,0,8.56,1h0c7.2,0,10.81-1.36,14.53-3.81,1.46-1,2.83-2.07,4.26-3.15A26.49,26.49,0,0,0,172.51,87.5Z"/><path class="cls-6" d="M155.69,77.83c-3.44,3-7,6.58-13.67,6.58h0c-7.85,0-11.47-5.1-15.59-8.14a17.46,17.46,0,0,0-5.2-2.79,23.78,23.78,0,0,0-7.54-1c-6.31,0-9.55,1.44-12.75,3.81-4.12,3-7.73,8.14-15.59,8.14h0c-7.86,0-11.47-5.1-15.59-8.14-.27-.2-.53-.39-.8-.57a23.46,23.46,0,0,1,1.17-4.29c.82.72,1.63,1.42,2.48,2.06a17.3,17.3,0,0,0,5.23,2.82,23.91,23.91,0,0,0,7.51,1h0c6.3,0,9.47-1.36,12.74-3.81,2.17-1.64,4.11-3.68,6.48-5.31a15.44,15.44,0,0,1,9.12-2.84c7.86,0,11.25,4.87,15.6,8.15a17.18,17.18,0,0,0,5.23,2.82,23.87,23.87,0,0,0,7.51,1h0c5.48,0,8.59-1,11.45-2.9A24.17,24.17,0,0,0,155.69,77.83Z"/><path class="cls-5" d="M150.34,39.53A15.26,15.26,0,0,1,142,41.89h0a15.08,15.08,0,0,1-6.51-1.39,29.52,29.52,0,0,1,14.86-1Z"/><path class="cls-6" d="M200.44,106.38a23.39,23.39,0,0,1-1.4,5.71l-.35.67c-7.86,0-11.47-5.1-15.59-8.15a18.11,18.11,0,0,0-5.21-2.79,23.73,23.73,0,0,0-7.54-1c-6.31,0-9.55,1.45-12.74,3.81-4.12,3-7.74,8.15-15.59,8.15h0c-7.85,0-11.47-5.1-15.59-8.15a17.92,17.92,0,0,0-5.2-2.79,23.77,23.77,0,0,0-7.54-1c-6.31,0-9.55,1.45-12.75,3.81-4.12,3-7.73,8.15-15.59,8.15h0c-7.86,0-11.47-5.1-15.59-8.15a18.11,18.11,0,0,0-5.21-2.79,23.77,23.77,0,0,0-7.54-1c-6.31,0-9.55,1.45-12.74,3.81s-6.17,6.06-11.09,7.52a24.06,24.06,0,0,1-1.44-6.64,17,17,0,0,0,9.67-3.68c1.42-1.07,2.75-2.31,4.16-3.51.74-.62,1.5-1.23,2.32-1.79A15.37,15.37,0,0,1,57,93.66c5.4,0,8.69,2.3,11.63,4.8,1.34,1.15,2.61,2.33,4,3.35a17.55,17.55,0,0,0,5.23,2.83,24.25,24.25,0,0,0,7.51,1h0c6.3,0,9.47-1.35,12.74-3.81,1.31-1,2.54-2.12,3.83-3.22a28.56,28.56,0,0,1,2.65-2.08l.38-.26a15.3,15.3,0,0,1,8.74-2.59,15.86,15.86,0,0,1,10.4,3.8c.47.36.92.74,1.37,1.12,1.29,1.11,2.52,2.24,3.83,3.23a17.43,17.43,0,0,0,5.23,2.83,24.2,24.2,0,0,0,7.51,1h0c6.31,0,9.48-1.35,12.74-3.81,2.18-1.63,4.12-3.67,6.49-5.3a15.32,15.32,0,0,1,9.11-2.85c7.87,0,11.25,4.88,15.6,8.15C189,104.07,194.65,106.07,200.44,106.38Z"/><path class="cls-5" d="M104,54.35a31.14,31.14,0,0,1,8.89,3.94c-5.84.11-9,1.53-12,3.8-4.12,3.05-7.73,8.15-15.59,8.15h0c-5.48,0-8.89-2.48-11.85-5a26.8,26.8,0,0,1,3.09-3.58c.4.17.82.33,1.25.47a24.24,24.24,0,0,0,7.51,1v0l0,0c6.3,0,9.47-1.35,12.74-3.81C100.07,57.78,101.89,55.91,104,54.35Z"/><path class="cls-5" d="M151,67.43a15.5,15.5,0,0,1-9,2.81h0c-7.85,0-11.47-5.1-15.59-8.15a17.28,17.28,0,0,0-8.15-3.49,24.74,24.74,0,0,1,2.35-5.89c3.46,1.71,5.86,4.47,8.66,6.58a17.43,17.43,0,0,0,5.23,2.83,24.2,24.2,0,0,0,7.51,1v0a22.12,22.12,0,0,0,8.63-1.39c0,.38,0,.77,0,1.16A25,25,0,0,0,151,67C151,67.16,151,67.3,151,67.43Z"/><path class="cls-7" d="M260.85,65.54a26.13,26.13,0,0,1-26.13,26.13,24.8,24.8,0,0,1-3.57-.25,26.28,26.28,0,0,1-7-2C220.85,96.14,211.38,101,200.2,101c-13.13,0-23.9-6.69-25.08-15.24a24.09,24.09,0,0,1-17.4-8.58,22.2,22.2,0,0,1-4.79-10.49,22.9,22.9,0,0,1-.32-3.82c0-8.61,4.7-15.4,12.79-19.31,0-1-.26-1.83-.26-2.87A27.84,27.84,0,0,1,187.3,13.88a26.76,26.76,0,0,1,3-.46c.91-.09,1.83-.13,2.76-.13a28.38,28.38,0,0,1,22.7,11.48,20.85,20.85,0,0,1,5.69-2.45,22,22,0,0,1,5.53-.68,21.28,21.28,0,0,1,17.83,9.78c.18.26.34.52.5.79a20.24,20.24,0,0,1,2.81,10.3v.63a26.48,26.48,0,0,1,7.21,6.37,17.5,17.5,0,0,1,1.4,1.84,19.23,19.23,0,0,1,2,3.85,25.7,25.7,0,0,1,1.94,7.26A24.14,24.14,0,0,1,260.85,65.54Z"/><path class="cls-8" d="M201.48,66.54a5.9,5.9,0,1,0,5.89,5.9A5.9,5.9,0,0,0,201.48,66.54Zm47.24,0a5.9,5.9,0,1,0,5.9,5.9A5.9,5.9,0,0,0,248.72,66.54Zm-94.49,0a5.57,5.57,0,0,0-1.3.15,22.2,22.2,0,0,0,4.79,10.49,5.89,5.89,0,0,0-3.49-10.64Zm47.25-35.43a5.9,5.9,0,1,0,5.89,5.9A5.9,5.9,0,0,0,201.48,31.11Zm43.83,1.1c-.16-.27-.32-.53-.5-.79a5.55,5.55,0,0,0-1.51.78,5.89,5.89,0,0,0,3.41,10.7,5.45,5.45,0,0,0,1.41-.18v-.21A20.24,20.24,0,0,0,245.31,32.21Z"/><path class="cls-4" d="M177.85,31.11a5.9,5.9,0,1,0,5.9,5.9A5.9,5.9,0,0,0,177.85,31.11Zm47.24,0A5.9,5.9,0,1,0,231,37,5.9,5.9,0,0,0,225.1,31.11ZM177.85,66.54a5.9,5.9,0,1,0,5.9,5.9A5.9,5.9,0,0,0,177.85,66.54Zm47.24,0a5.9,5.9,0,1,0,5.9,5.9A5.9,5.9,0,0,0,225.1,66.54Z"/><path class="cls-8" d="M166,48.83a5.9,5.9,0,1,0,5.9,5.9A5.9,5.9,0,0,0,166,48.83Zm47.24,0a5.9,5.9,0,1,0,5.9,5.9A5.9,5.9,0,0,0,213.29,48.83Zm0,35.43a5.9,5.9,0,1,0,5.9,5.9A5.9,5.9,0,0,0,213.29,84.26ZM258.72,55.2a19.23,19.23,0,0,0-2-3.85,5.89,5.89,0,0,0,2,11.44,6,6,0,0,0,2-.33A25.7,25.7,0,0,0,258.72,55.2Zm-43-30.43a28.07,28.07,0,0,0-5.62-5.69,5.57,5.57,0,0,0-.33,1.92,5.89,5.89,0,0,0,11.64,1.32A20.85,20.85,0,0,0,215.76,24.77Z"/><path class="cls-9" d="M189.67,84.26a5.9,5.9,0,1,0,5.89,5.9A5.9,5.9,0,0,0,189.67,84.26Zm47.24,0a5.88,5.88,0,0,0-5.76,7.16,24.8,24.8,0,0,0,3.57.25,26,26,0,0,0,8.08-1.28,1.69,1.69,0,0,0,0-.23A5.9,5.9,0,0,0,236.91,84.26ZM189.67,48.83a5.9,5.9,0,1,0,5.89,5.89A5.9,5.9,0,0,0,189.67,48.83Zm.63-35.41q-.32,0-.63,0a6.05,6.05,0,0,0-2.37.49,5.9,5.9,0,1,0,3-.46Z"/><path class="cls-9" d="M237.51,49.21a5.9,5.9,0,1,0,5.89,5.89A5.9,5.9,0,0,0,237.51,49.21Z"/></g></svg>