<svg id="Shapes" xmlns="http://www.w3.org/2000/svg" xmlns:xlink="http://www.w3.org/1999/xlink" viewBox="0 0 42 42"  width="42" height="42">
  <defs>
    <linearGradient id="linear-gradient" x1="21.38" y1="813.84" x2="21.38" y2="788.06" gradientTransform="matrix(1, 0, 0, -1, 0, 827.25)" gradientUnits="userSpaceOnUse">
      <stop offset="0" stop-color="#5e9624"/>
      <stop offset="0.32" stop-color="#619a25"/>
      <stop offset="0.66" stop-color="#69a728"/>
      <stop offset="1" stop-color="#76bc2d"/>
    </linearGradient>
    <linearGradient id="linear-gradient-2" x1="21.38" y1="790.23" x2="21.38" y2="814.19" gradientTransform="matrix(1, 0, 0, -1, 0, 827.25)" gradientUnits="userSpaceOnUse">
      <stop offset="0" stop-color="#5e9624"/>
      <stop offset="0.55" stop-color="#6dad2a"/>
      <stop offset="1" stop-color="#76bc2d"/>
    </linearGradient>
  </defs>
  <g>
    <path d="M21,9.53a1.44,1.44,0,0,1-1.4-1.4V5.34a1.32,1.32,0,0,1,.42-1,1.35,1.35,0,0,1,2,0,1.32,1.32,0,0,1,.42,1V8.13A1.44,1.44,0,0,1,21,9.53Z" fill="#85c896"/>
    <path d="M1.4,24.19a1.34,1.34,0,0,1-1-.41,1.37,1.37,0,0,1,0-2,1.34,1.34,0,0,1,1-.41H4.2a1.4,1.4,0,0,1,0,2.79Z" fill="#83bde0"/>
    <path d="M1.33,32.31a1.28,1.28,0,0,1,.26-.78A1.61,1.61,0,0,1,2.23,31l.67-.28.88-.38c.31-.13.61-.24.89-.33a2.1,2.1,0,0,1,.69-.14,1.31,1.31,0,0,1,1,.41,1.36,1.36,0,0,1,.42,1,1.25,1.25,0,0,1-.25.78,1.56,1.56,0,0,1-.65.51l-.66.3-.89.37-.89.33a2.39,2.39,0,0,1-.69.14,1.35,1.35,0,0,1-1-.42A1.34,1.34,0,0,1,1.33,32.31Z" fill="#83b9f9"/>
    <path d="M4.9,13a1.49,1.49,0,0,1,.72.22L8,14.61a1.36,1.36,0,0,1,.48.5,1.42,1.42,0,0,1,.17.7,1.31,1.31,0,0,1-.41,1,1.35,1.35,0,0,1-1,.42,1.39,1.39,0,0,1-.72-.2L4.18,15.55A1.41,1.41,0,0,1,3.69,15a1.28,1.28,0,0,1-.19-.69,1.32,1.32,0,0,1,.42-1A1.32,1.32,0,0,1,4.9,13Z" fill="#84c0c8"/>
    <path d="M13.26,11.62a1.38,1.38,0,0,1-.71-.19A1.39,1.39,0,0,1,12,10.9L10.67,8.46a1.43,1.43,0,0,1-.17-.68,1.33,1.33,0,0,1,.42-1,1.32,1.32,0,0,1,1-.42,1.41,1.41,0,0,1,.71.2,1.24,1.24,0,0,1,.51.53l1.36,2.44a1.25,1.25,0,0,1,.18.65,1.42,1.42,0,0,1-1.4,1.42Z" fill="#84c4af"/>
    <path d="M40.6,21.4a1.4,1.4,0,0,1,0,2.79H37.8a1.4,1.4,0,0,1,0-2.79Z" fill="#86d24c"/>
    <path d="M36.66,29.86a2.16,2.16,0,0,1,.68.16c.28.1.57.22.88.35l.88.39.67.28a1.53,1.53,0,0,1,.63.52,1.28,1.28,0,0,1,.24.77,1.31,1.31,0,0,1-.41,1,1.35,1.35,0,0,1-1,.42,2.36,2.36,0,0,1-.66-.14c-.29-.1-.58-.21-.89-.34l-.89-.39-.66-.29a1.58,1.58,0,0,1-.65-.52,1.33,1.33,0,0,1-.25-.79,1.3,1.3,0,0,1,.43-1A1.38,1.38,0,0,1,36.66,29.86Z" fill="#86d633"/>
    <path d="M38.5,14.35a1.28,1.28,0,0,1-.19.69,1.41,1.41,0,0,1-.49.51L35.44,17a1.39,1.39,0,0,1-.72.2,1.35,1.35,0,0,1-1-.42,1.31,1.31,0,0,1-.41-1,1.42,1.42,0,0,1,.17-.7,1.36,1.36,0,0,1,.48-.5l2.41-1.44A1.49,1.49,0,0,1,37.1,13a1.44,1.44,0,0,1,1.4,1.4Z" fill="#85cf65"/>
    <path d="M28.74,11.62a1.42,1.42,0,0,1-1.4-1.42,1.25,1.25,0,0,1,.18-.65l1.35-2.44a1.32,1.32,0,0,1,.52-.53,1.41,1.41,0,0,1,.71-.2,1.32,1.32,0,0,1,1,.42,1.36,1.36,0,0,1,.24,1.66L30,10.9a1.39,1.39,0,0,1-.52.53A1.38,1.38,0,0,1,28.74,11.62Z" fill="#85cb7d"/>
    <g>
      <g>
        <path d="M30.6,25.05C30.6,31.1,23.28,36,21.69,37a.56.56,0,0,1-.61,0c-1.59-1-8.92-5.87-8.92-11.92v-7.3a.57.57,0,0,1,.57-.57c5.69-.16,4.38-2.66,8.65-2.66s3,2.5,8.66,2.66a.57.57,0,0,1,.56.57Z" fill="url(#linear-gradient)"/>
        <path d="M29.84,25.11c0,5.55-6.72,10-8.18,10.93a.52.52,0,0,1-.56,0c-1.46-.9-8.17-5.38-8.17-10.93V18.42a.53.53,0,0,1,.52-.53c5.22-.14,4-2.43,7.93-2.43s2.71,2.3,7.94,2.43a.53.53,0,0,1,.52.53Z" fill="url(#linear-gradient-2)"/>
      </g>
      <path d="M27.26,21.19l-.61-.61a.38.38,0,0,0-.54,0l-6.84,6.84L16.65,24.8a.38.38,0,0,0-.54,0l-.61.61a.38.38,0,0,0,0,.54L19,29.41a.52.52,0,0,0,.63,0l7.67-7.67A.38.38,0,0,0,27.26,21.19Z" fill="#fff"/>
    </g>
  </g>
</svg>
