<svg xmlns="http://www.w3.org/2000/svg" width="102.269" height="110.833" viewBox="0 0 102.269 110.833">
  <title>Artboard 30</title>
  <g id="_1180_Grids" data-name="1180 Grids">
    <g>
      <polyline points="23.342 0 102.269 27.037 102.269 65.66 86.819 110.833 0 93.369 23.342 0" fill="#0072c6"/>
      <path d="M86.819,110.833c-.336-.84,0-58.271,0-58.271l15.449,13.1Z" fill="#fff" opacity="0.17"/>
      <polygon points="102.269 27.037 102.269 65.66 86.819 52.562 102.269 27.037" fill="#fff" opacity="0.72"/>
      <polygon points="23.342 0 102.269 27.037 86.819 52.562 23.342 0" fill="#fff" opacity="0.72"/>
      <polygon points="28.716 44.501 86.819 52.562 0 93.369 28.716 44.501" fill="#fff" opacity="0.28"/>
      <polygon points="28.716 44.501 23.342 0 86.819 52.562 28.716 44.501" fill="#fff" opacity="0.86"/>
      <polygon points="86.819 52.562 102.269 27.037 74.905 17.663 86.819 52.562" fill="#fff" opacity="0.31"/>
      <polygon points="0 93.369 58.775 96.056 86.819 52.562 0 93.369" fill="#fff" opacity="0.63"/>
      <polygon points="86.819 110.833 58.775 96.056 86.819 52.562 86.819 110.833" fill="#0072c6"/>
      <polygon points="0 93.369 86.819 110.833 58.775 96.056 0 93.369" fill="#1b348e"/>
      <polygon points="28.716 44.501 0 93.369 23.342 0 28.716 44.501" fill="#fff" opacity="0.59"/>
    </g>
  </g>
</svg>
