<svg id="Layer_1" data-name="Layer 1" xmlns="http://www.w3.org/2000/svg" width="67" height="28" viewBox="0 0 67 28"><defs><style>.cls-1{fill:#0078d7;}.cls-2{fill:#fff;}</style></defs><title>new-with-chevron</title><rect class="cls-1" width="67" height="28" rx="8" ry="8"/><path class="cls-2" d="M30.22,47.14H26.75L22.52,40a10,10,0,0,1-.75-1.51h0q-.18,1.23-.46,2.42l-1.33,6.23H15.87L19,32.54h3.8l4.08,6.78a5.67,5.67,0,0,1,.35.64,4.8,4.8,0,0,1,.31.76h.05a6,6,0,0,1,.12-.79l1.56-7.38H33.3Z" transform="translate(-7 -26)"/><path class="cls-2" d="M44.54,36H39.85l-.44,2.13h4.4l-.72,3.44h-4.4l-.46,2.15h5l-.73,3.44H33.1l3.09-14.6h9.09Z" transform="translate(-7 -26)"/><path class="cls-2" d="M61.22,47.14H56.61l-.35-8.41a7.7,7.7,0,0,1,.14-1.24l.06-.36h0a7.55,7.55,0,0,1-.24.73q-.2.54-.39,1L51.9,47.14H46.85l-.4-14.6h4.63l-.42,8.63q0,.63-.21,1.67h.06c0-.18.14-.46.27-.84s.25-.67.36-.89l4-8.57h4.78l.08,8.7c0,.19,0,.46,0,.83s0,.61-.07.76h0l.52-1.65,3-8.63H68Z" transform="translate(-7 -26)"/></svg>