<?xml version="1.0" encoding="UTF-8" standalone="no"?>
<!-- Created with Inkscape (http://www.inkscape.org/) -->

<svg
   xmlns:dc="http://purl.org/dc/elements/1.1/"
   xmlns:cc="http://creativecommons.org/ns#"
   xmlns:rdf="http://www.w3.org/1999/02/22-rdf-syntax-ns#"
   xmlns:svg="http://www.w3.org/2000/svg"
   xmlns="http://www.w3.org/2000/svg"
   xmlns:sodipodi="http://sodipodi.sourceforge.net/DTD/sodipodi-0.dtd"
   xmlns:inkscape="http://www.inkscape.org/namespaces/inkscape"
   width="320"
   height="60"
   viewBox="0 0 320 60"
   id="svg3349"
   version="1.1"
   inkscape:version="0.91 r13725"
   sodipodi:docname="pnp-logo-night.svg">
  <title
     id="title3439">patterns &amp; practices</title>
  <defs
     id="defs3351" />
  <sodipodi:namedview
     id="base"
     pagecolor="#ffffff"
     bordercolor="#666666"
     borderopacity="1.0"
     inkscape:pageopacity="0.0"
     inkscape:pageshadow="2"
     inkscape:zoom="4.296875"
     inkscape:cx="125.67273"
     inkscape:cy="30"
     inkscape:document-units="px"
     inkscape:current-layer="flowRoot3378"
     showgrid="false"
     units="px"
     inkscape:window-width="1500"
     inkscape:window-height="937"
     inkscape:window-x="-8"
     inkscape:window-y="-8"
     inkscape:window-maximized="1" />
  <metadata
     id="metadata3354">
    <rdf:RDF>
      <cc:Work
         rdf:about="">
        <dc:format>image/svg+xml</dc:format>
        <dc:type
           rdf:resource="http://purl.org/dc/dcmitype/StillImage" />
        <dc:title>patterns &amp; practices</dc:title>
        <dc:source>http://aka.ms/practices</dc:source>
      </cc:Work>
    </rdf:RDF>
  </metadata>
  <g
     inkscape:label="Layer 1"
     inkscape:groupmode="layer"
     id="layer1"
     transform="translate(0,-992.36216)">
    <g
       transform="matrix(1.0130903,0,0,1.0466381,-19.003199,799.97364)"
       style="font-style:normal;font-weight:normal;font-size:40px;line-height:125%;font-family:sans-serif;letter-spacing:0px;word-spacing:0px;fill:#000000;fill-opacity:1;stroke:none;stroke-width:1px;stroke-linecap:butt;stroke-linejoin:miter;stroke-opacity:1"
       id="flowRoot3378">
      <g
         id="g3579"
         transform="matrix(0.41488461,0,0,0.41488461,10.220064,164.74586)"
         style="fill:#ffffff;fill-opacity:1">
        <g
           id="flowRoot3368"
           style="font-style:normal;font-weight:normal;font-size:40px;line-height:125%;font-family:sans-serif;letter-spacing:0px;word-spacing:0px;fill:#ffffff;fill-opacity:1;stroke:none;stroke-width:1px;stroke-linecap:butt;stroke-linejoin:miter;stroke-opacity:1"
           transform="matrix(0.98934557,0,0,1.0618887,0.25880121,-5.0224524)">
          <path
             id="path3451"
             style="font-size:77.5px;fill:#ffffff;fill-opacity:1"
             d="m 59.056641,89.942572 q 0,5.146484 -1.47583,9.422607 -1.475831,4.238281 -4.162598,7.189941 -2.497559,2.80029 -5.90332,4.35181 -3.36792,1.51367 -7.1521,1.51367 -3.292236,0 -5.979004,-0.71899 -2.648926,-0.719 -5.411377,-2.23267 l 0,17.70996 -7.114258,0 0,-57.860107 7.114258,0 0,4.42749 q 2.838135,-2.384033 6.357422,-3.973389 3.557129,-1.627197 7.568359,-1.627197 7.644043,0 11.882325,5.789795 4.276123,5.751953 4.276123,16.00708 z m -7.341309,0.189209 q 0,-7.644043 -2.611084,-11.428223 -2.611084,-3.784179 -8.022461,-3.784179 -3.065185,0 -6.168213,1.324462 -3.103027,1.324463 -5.941162,3.481446 l 0,23.953853 q 3.027344,1.36231 5.184326,1.85425 2.194824,0.49195 4.957276,0.49195 5.941162,0 9.27124,-4.01123 3.330078,-4.011235 3.330078,-11.882329 z"
             inkscape:connector-curvature="0" />
          <path
             id="path3453"
             style="font-size:77.5px;fill:#ffffff;fill-opacity:1"
             d="m 102.99097,111.58808 -7.076419,0 0,-4.50317 q -0.946045,0.64331 -2.573242,1.8164 -1.589356,1.13526 -3.103028,1.81641 -1.778564,0.87036 -4.086914,1.43799 -2.308349,0.60547 -5.411377,0.60547 -5.714111,0 -9.6875,-3.78418 -3.973388,-3.78418 -3.973388,-9.649662 0,-4.805909 2.043457,-7.757569 2.081298,-2.989502 5.90332,-4.692383 3.859863,-1.70288 9.27124,-2.308349 5.411377,-0.605469 11.617432,-0.908203 l 0,-1.097412 q 0,-2.421875 -0.870362,-4.011231 -0.832519,-1.589355 -2.421875,-2.497559 -1.513671,-0.870361 -3.632812,-1.173095 -2.119141,-0.302735 -4.42749,-0.302735 -2.800293,0 -6.243897,0.756836 -3.443603,0.718994 -7.114258,2.119141 l -0.378418,0 0,-7.227783 q 2.081299,-0.567627 6.016846,-1.24878 3.935547,-0.681152 7.757569,-0.681152 4.465332,0 7.757568,0.756836 3.330078,0.718994 5.751953,2.497559 2.384035,1.740722 3.632815,4.503173 1.24878,2.762452 1.24878,6.849366 l 0,28.684082 z m -7.076419,-10.40649 0,-11.768803 q -3.254395,0.189209 -7.681885,0.567627 -4.389648,0.378418 -6.962891,1.097412 -3.065185,0.870361 -4.957275,2.724609 -1.89209,1.816406 -1.89209,5.032959 0,3.632816 2.194824,5.487056 2.194825,1.81641 6.697998,1.81641 3.746338,0 6.849366,-1.43799 3.103027,-1.47583 5.751953,-3.51928 z"
             inkscape:connector-curvature="0" />
          <path
             id="path3455"
             style="font-size:77.5px;fill:#ffffff;fill-opacity:1"
             d="m 138.71362,111.20966 q -2.00561,0.52979 -4.38965,0.87036 -2.34619,0.34058 -4.20043,0.34058 -6.47095,0 -9.83887,-3.48145 -3.36792,-3.48144 -3.36792,-11.163326 l 0,-22.478027 -4.80591,0 0,-5.979004 4.80591,0 0,-12.147217 7.11426,0 0,12.147217 14.68261,0 0,5.979004 -14.68261,0 0,19.261474 q 0,3.330078 0.15136,5.222168 0.15137,1.854251 1.05957,3.481441 0.83252,1.51368 2.27051,2.23267 1.47583,0.68115 4.46533,0.68115 1.74073,0 3.63282,-0.49194 1.89209,-0.52979 2.72461,-0.87036 l 0.37841,0 0,6.39526 z"
             inkscape:connector-curvature="0" />
          <path
             id="path3457"
             style="font-size:77.5px;fill:#ffffff;fill-opacity:1"
             d="m 169.28979,111.20966 q -2.00561,0.52979 -4.38964,0.87036 -2.34619,0.34058 -4.20044,0.34058 -6.47095,0 -9.83887,-3.48145 -3.36792,-3.48144 -3.36792,-11.163326 l 0,-22.478027 -4.80591,0 0,-5.979004 4.80591,0 0,-12.147217 7.11426,0 0,12.147217 14.68261,0 0,5.979004 -14.68261,0 0,19.261474 q 0,3.330078 0.15136,5.222168 0.15137,1.854251 1.05958,3.481441 0.83251,1.51368 2.2705,2.23267 1.47583,0.68115 4.46534,0.68115 1.74072,0 3.63281,-0.49194 1.89209,-0.52979 2.72461,-0.87036 l 0.37841,0 0,6.39526 z"
             inkscape:connector-curvature="0" />
          <path
             id="path3459"
             style="font-size:77.5px;fill:#ffffff;fill-opacity:1"
             d="m 213.2998,91.191351 -31.14379,0 q 0,3.897705 1.17309,6.811524 1.1731,2.875975 3.21655,4.730225 1.96778,1.81641 4.65455,2.72461 2.7246,0.9082 5.979,0.9082 4.31396,0 8.66577,-1.70288 4.38965,-1.74072 6.2439,-3.40576 l 0.37842,0 0,7.75757 q -3.59498,1.51367 -7.34131,2.5354 -3.74634,1.02173 -7.8711,1.02173 -10.52002,0 -16.42334,-5.67627 -5.90332,-5.71411 -5.90332,-16.196292 0,-10.368652 5.63843,-16.461182 5.67627,-6.092529 14.90967,-6.092529 8.55224,0 13.16894,4.995117 4.65454,4.995117 4.65454,14.190674 l 0,3.859863 z m -6.92504,-5.449219 q -0.0379,-5.600585 -2.83814,-8.665771 -2.76245,-3.065186 -8.43872,-3.065186 -5.71411,0 -9.11987,3.36792 -3.36792,3.36792 -3.82202,8.363037 l 24.21875,0 z"
             inkscape:connector-curvature="0" />
          <path
             id="path3461"
             style="font-size:77.5px;fill:#ffffff;fill-opacity:1"
             d="m 250.46045,77.076361 -0.37842,0 q -1.58935,-0.378418 -3.10303,-0.529785 -1.47583,-0.189209 -3.51928,-0.189209 -3.29224,0 -6.35743,1.47583 -3.06518,1.437988 -5.90332,3.746338 l 0,30.008545 -7.11425,0 0,-42.269287 7.11425,0 0,6.243896 q 4.23829,-3.405762 7.45484,-4.805908 3.25439,-1.437988 6.62231,-1.437988 1.85425,0 2.68677,0.113525 0.83252,0.07568 2.49756,0.340576 l 0,7.303467 z"
             inkscape:connector-curvature="0" />
          <path
             id="path3463"
             style="font-size:77.5px;fill:#ffffff;fill-opacity:1"
             d="m 292.57837,111.58808 -7.11426,0 0,-24.067383 q 0,-2.913818 -0.34057,-5.449219 -0.34058,-2.573242 -1.24878,-4.01123 -0.94605,-1.589356 -2.72461,-2.346192 -1.77857,-0.794677 -4.6167,-0.794677 -2.91382,0 -6.09253,1.437988 -3.17871,1.437988 -6.09253,3.670654 l 0,31.560059 -7.11426,0 0,-42.269287 7.11426,0 0,4.692382 q 3.33008,-2.762451 6.88721,-4.313964 3.55712,-1.551514 7.30346,-1.551514 6.84937,0 10.44434,4.124756 3.59497,4.124756 3.59497,11.882324 l 0,27.435303 z"
             inkscape:connector-curvature="0" />
          <path
             id="path3465"
             style="font-size:77.5px;fill:#ffffff;fill-opacity:1"
             d="m 336.47485,99.403021 q 0,5.789799 -4.8059,9.498289 -4.76807,3.7085 -13.05542,3.7085 -4.69239,0 -8.62793,-1.09741 -3.89771,-1.13526 -6.54664,-2.45972 l 0,-7.98462 0.37842,0 q 3.36792,2.5354 7.49268,4.04907 4.12475,1.47583 7.90893,1.47583 4.69239,0 7.34131,-1.51367 2.64893,-1.51367 2.64893,-4.76807 0,-2.497554 -1.43799,-3.784175 -1.43799,-1.286622 -5.5249,-2.194825 -1.51367,-0.340576 -3.97339,-0.794677 -2.42188,-0.454102 -4.42749,-0.983887 -5.56275,-1.47583 -7.90894,-4.313965 -2.30835,-2.875976 -2.30835,-7.038574 0,-2.611084 1.05957,-4.919434 1.09742,-2.308349 3.29224,-4.124756 2.11914,-1.778564 5.37354,-2.800293 3.29223,-1.05957 7.3413,-1.05957 3.78418,0 7.64405,0.946045 3.8977,0.908203 6.47094,2.232666 l 0,7.606201 -0.37841,0 q -2.72461,-2.005615 -6.62232,-3.36792 -3.8977,-1.400146 -7.64404,-1.400146 -3.89771,0 -6.58447,1.513672 -2.68677,1.47583 -2.68677,4.42749 0,2.611084 1.6272,3.935547 1.58935,1.324463 5.14648,2.156982 1.96777,0.454102 4.38965,0.908203 2.45972,0.454102 4.08691,0.83252 4.95728,1.135254 7.64405,3.897705 2.68676,2.800293 2.68676,7.416992 z"
             inkscape:connector-curvature="0" />
          <path
             id="path3467"
             style="font-size:77.5px;fill:#ffffff;fill-opacity:1"
             d="m 396.9082,66.5185 q 0,-3.594971 -2.15698,-5.638428 -2.11914,-2.081299 -5.44922,-2.081299 -3.48144,0 -5.67627,2.346192 -2.19482,2.308349 -2.19482,5.676269 0,2.838135 1.47583,5.032959 1.51367,2.194824 6.47095,5.184326 3.70849,-1.324463 5.60058,-3.859863 1.92993,-2.573242 1.92993,-6.660156 z m 7.34131,33.149414 -18.08838,-17.634278 q -1.17309,0.567627 -2.34619,1.513672 -1.17309,0.908203 -2.34619,2.497559 -1.05957,1.47583 -1.74072,3.557129 -0.68116,2.081299 -0.68116,4.692383 0,5.524902 3.21656,8.930661 3.25439,3.36792 9.19555,3.36792 3.51929,0 6.96289,-1.70288 3.48145,-1.74072 5.82764,-5.222166 z m 11.39038,-22.478028 0,3.632813 q 0,3.632812 -0.94604,8.173828 -0.94605,4.541016 -3.21656,8.665771 l 14.3042,13.925782 -9.30908,0 -8.66577,-8.47656 q -4.35181,5.37353 -8.89282,7.53051 -4.54102,2.11915 -9.34693,2.11915 -7.87109,0 -13.09326,-4.57886 -5.18432,-4.6167 -5.18432,-12.071535 0,-3.481445 0.98388,-6.016846 0.98389,-2.5354 2.30835,-4.389648 1.32447,-1.778565 3.29224,-3.330078 1.96777,-1.589356 3.97339,-2.762452 -4.1626,-2.724609 -6.01685,-5.48706 -1.8164,-2.762451 -1.8164,-6.962891 0,-2.5354 0.98388,-4.805908 1.02173,-2.30835 3.02735,-4.200439 1.89209,-1.816407 4.91943,-2.951661 3.06519,-1.135254 6.73584,-1.135254 6.54663,0 10.5957,3.330079 4.04908,3.292236 4.04908,8.363037 0,1.665039 -0.45411,3.784179 -0.4541,2.081299 -1.55151,3.746338 -1.21094,1.854248 -3.4436,3.557129 -2.23267,1.702881 -5.7898,2.913819 l 14.03931,13.69873 q 0.52978,-1.513672 0.79468,-3.330078 0.26489,-1.816406 0.30273,-3.78418 0.0757,-2.11914 0.0378,-4.730224 0,-2.611084 0,-4.427491 l 7.37915,0 z"
             inkscape:connector-curvature="0" />
          <path
             id="path3469"
             style="font-size:75px;fill:#ffffff;fill-opacity:1"
             d="m 493.26562,90.640814 q 0,4.980469 -1.42822,9.118652 -1.42822,4.101564 -4.02832,6.958004 -2.41699,2.70997 -5.71289,4.21143 -3.25928,1.46484 -6.92139,1.46484 -3.18603,0 -5.78613,-0.6958 -2.56347,-0.6958 -5.23681,-2.16064 l 0,17.13867 -6.88477,0 0,-55.993652 6.88477,0 0,4.284668 q 2.74658,-2.307129 6.15234,-3.845215 3.44238,-1.574707 7.32422,-1.574707 7.39746,0 11.49902,5.603027 4.13818,5.566407 4.13818,15.490723 z m -7.10449,0.183106 q 0,-7.397461 -2.52685,-11.059571 -2.52686,-3.662109 -7.76367,-3.662109 -2.96631,0 -5.96924,1.281738 -3.00293,1.281738 -5.74951,3.369141 l 0,23.181151 q 2.92968,1.31836 5.01709,1.79443 2.12402,0.47608 4.79736,0.47608 5.74951,0 8.97217,-3.88184 3.22265,-3.881833 3.22265,-11.49902 z"
             inkscape:connector-curvature="0" />
          <path
             id="path3471"
             style="font-size:75px;fill:#ffffff;fill-opacity:1"
             d="m 529.52051,78.189642 -0.36621,0 q -1.53809,-0.366211 -3.00293,-0.512695 -1.42823,-0.183106 -3.40576,-0.183106 -3.18604,0 -6.15235,1.428223 -2.96631,1.391602 -5.71289,3.625488 l 0,29.040528 -6.88476,0 0,-40.905762 6.88476,0 0,6.04248 q 4.10156,-3.295898 7.21436,-4.650878 3.14941,-1.391602 6.40869,-1.391602 1.79443,0 2.6001,0.109863 0.80566,0.07324 2.41699,0.32959 l 0,7.067871 z"
             inkscape:connector-curvature="0" />
          <path
             id="path3473"
             style="font-size:75px;fill:#ffffff;fill-opacity:1"
             d="m 566.54443,111.58808 -6.84814,0 0,-4.35791 q -0.91553,0.62256 -2.49024,1.75781 -1.53808,1.09863 -3.00293,1.75781 -1.72119,0.84229 -3.95507,1.39161 -2.23389,0.58593 -5.23682,0.58593 -5.52978,0 -9.375,-3.66211 -3.84521,-3.66211 -3.84521,-9.338375 0,-4.650879 1.97753,-7.507324 2.01416,-2.893066 5.7129,-4.541015 3.73535,-1.64795 8.97216,-2.233887 5.23682,-0.585938 11.24268,-0.878906 l 0,-1.062012 q 0,-2.34375 -0.84229,-3.881836 -0.80566,-1.538086 -2.34375,-2.416992 -1.46484,-0.842285 -3.51562,-1.135254 -2.05078,-0.292969 -4.28467,-0.292969 -2.70996,0 -6.04248,0.732422 -3.33252,0.695801 -6.88477,2.050781 l -0.36621,0 0,-6.994629 q 2.01416,-0.549316 5.82276,-1.208496 3.80859,-0.65918 7.50732,-0.65918 4.32129,0 7.50733,0.732422 3.22265,0.695801 5.5664,2.416993 2.30713,1.68457 3.51563,4.35791 1.20849,2.67334 1.20849,6.628418 l 0,27.758789 z m -6.84814,-10.0708 0,-11.389161 q -3.14942,0.183105 -7.43408,0.549316 -4.24805,0.366211 -6.73828,1.062012 -2.96631,0.842285 -4.79737,2.636719 -1.83105,1.757812 -1.83105,4.870605 0,3.515629 2.12402,5.310059 2.12402,1.75781 6.48193,1.75781 3.62549,0 6.62842,-1.3916 3.00293,-1.42822 5.56641,-3.40576 z"
             inkscape:connector-curvature="0" />
          <path
             id="path3475"
             style="font-size:75px;fill:#ffffff;fill-opacity:1"
             d="m 610.12354,109.0246 q -3.44239,1.64795 -6.55518,2.56348 -3.07617,0.91553 -6.55518,0.91553 -4.43115,0 -8.12988,-1.28174 -3.69873,-1.31836 -6.33545,-3.95508 -2.67334,-2.63672 -4.13818,-6.66504 -1.46485,-4.028319 -1.46485,-9.411619 0,-10.03418 5.49317,-15.747071 5.52978,-5.71289 14.57519,-5.71289 3.51563,0 6.88477,0.988769 3.40576,0.98877 6.22559,2.416992 l 0,7.653809 -0.36622,0 q -3.14941,-2.453613 -6.51855,-3.771973 -3.33252,-1.318359 -6.51856,-1.318359 -5.85937,0 -9.26513,3.955078 -3.36914,3.918457 -3.36914,11.535645 0,7.39746 3.2959,11.389159 3.33252,3.95508 9.33837,3.95508 2.08741,0 4.24805,-0.54932 2.16065,-0.54931 3.88184,-1.42822 1.50146,-0.76904 2.81982,-1.61133 1.31836,-0.8789 2.0874,-1.50146 l 0.36622,0 0,7.58056 z"
             inkscape:connector-curvature="0" />
          <path
             id="path3477"
             style="font-size:75px;fill:#ffffff;fill-opacity:1"
             d="m 640.22607,111.22187 q -1.94091,0.51269 -4.24804,0.84228 -2.27051,0.32959 -4.06494,0.32959 -6.26221,0 -9.52149,-3.36914 -3.25928,-3.36914 -3.25928,-10.803219 l 0,-21.75293 -4.65087,0 0,-5.786133 4.65087,0 0,-11.755371 6.88477,0 0,11.755371 14.20898,0 0,5.786133 -14.20898,0 0,18.640137 q 0,3.222656 0.14648,5.053712 0.14649,1.79443 1.02539,3.36914 0.80567,1.46484 2.19727,2.16064 1.42822,0.65918 4.32129,0.65918 1.68457,0 3.51562,-0.47607 1.83106,-0.5127 2.63672,-0.84229 l 0.36621,0 0,6.18897 z"
             inkscape:connector-curvature="0" />
          <path
             id="path3479"
             style="font-size:75px;fill:#ffffff;fill-opacity:1"
             d="m 655.97314,63.834173 -7.76367,0 0,-7.141113 7.76367,0 0,7.141113 z m -0.43945,47.753907 -6.88476,0 0,-40.905762 6.88476,0 0,40.905762 z"
             inkscape:connector-curvature="0" />
          <path
             id="path3481"
             style="font-size:75px;fill:#ffffff;fill-opacity:1"
             d="m 699.18604,109.0246 q -3.44239,1.64795 -6.55518,2.56348 -3.07617,0.91553 -6.55518,0.91553 -4.43115,0 -8.12988,-1.28174 -3.69873,-1.31836 -6.33545,-3.95508 -2.67334,-2.63672 -4.13818,-6.66504 -1.46485,-4.028319 -1.46485,-9.411619 0,-10.03418 5.49317,-15.747071 5.52978,-5.71289 14.57519,-5.71289 3.51563,0 6.88477,0.988769 3.40576,0.98877 6.22559,2.416992 l 0,7.653809 -0.36622,0 q -3.14941,-2.453613 -6.51855,-3.771973 -3.33252,-1.318359 -6.51856,-1.318359 -5.85937,0 -9.26513,3.955078 -3.36914,3.918457 -3.36914,11.535645 0,7.39746 3.2959,11.389159 3.33252,3.95508 9.33837,3.95508 2.08741,0 4.24805,-0.54932 2.16065,-0.54931 3.88184,-1.42822 1.50146,-0.76904 2.81982,-1.61133 1.31836,-0.8789 2.0874,-1.50146 l 0.36622,0 0,7.58056 z"
             inkscape:connector-curvature="0" />
          <path
             id="path3483"
             style="font-size:75px;fill:#ffffff;fill-opacity:1"
             d="m 742.28906,91.84931 -30.13916,0 q 0,3.771973 1.13526,6.591797 1.13525,2.783203 3.11279,4.577633 1.9043,1.75782 4.50439,2.63672 2.63672,0.87891 5.78614,0.87891 4.1748,0 8.38623,-1.64795 4.24804,-1.68457 6.04248,-3.2959 l 0.36621,0 0,7.50733 q -3.47901,1.46484 -7.10449,2.45361 -3.62549,0.98877 -7.61719,0.98877 -10.18067,0 -15.89356,-5.49317 -5.71289,-5.52978 -5.71289,-15.673824 0,-10.03418 5.45655,-15.930176 5.49316,-5.895996 14.42871,-5.895996 8.27636,0 12.74414,4.833984 4.50439,4.833985 4.50439,13.732911 l 0,3.735351 z m -6.70166,-5.273437 q -0.0366,-5.419922 -2.74658,-8.386231 -2.67334,-2.966308 -8.1665,-2.966308 -5.52979,0 -8.82569,3.259277 -3.25927,3.259277 -3.69873,8.093262 l 23.4375,0 z"
             inkscape:connector-curvature="0" />
          <path
             id="path3485"
             style="font-size:75px;fill:#ffffff;fill-opacity:1"
             d="m 781.94971,99.796088 q 0,5.603022 -4.65088,9.191892 -4.61426,3.58887 -12.63428,3.58887 -4.54101,0 -8.34961,-1.06201 -3.77197,-1.09864 -6.33545,-2.38037 l 0,-7.72705 0.36621,0 q 3.25928,2.45361 7.25098,3.91845 3.9917,1.42823 7.65381,1.42823 4.54101,0 7.10449,-1.46485 2.56348,-1.46484 2.56348,-4.61426 0,-2.416988 -1.3916,-3.662106 -1.39161,-1.245117 -5.34668,-2.124023 -1.46485,-0.32959 -3.84522,-0.769043 -2.34375,-0.439453 -4.28467,-0.952148 -5.3833,-1.428223 -7.65381,-4.174805 -2.23388,-2.783203 -2.23388,-6.811524 0,-2.526855 1.02539,-4.760742 1.06201,-2.233886 3.18603,-3.991699 2.05078,-1.721191 5.2002,-2.709961 3.18603,-1.025391 7.10449,-1.025391 3.66211,0 7.39746,0.915528 3.77197,0.878906 6.26221,2.160644 l 0,7.36084 -0.36621,0 q -2.63672,-1.940918 -6.40869,-3.259277 -3.77198,-1.354981 -7.39746,-1.354981 -3.77198,0 -6.37207,1.464844 -2.6001,1.428223 -2.6001,4.284668 0,2.526856 1.5747,3.808594 1.53809,1.281738 4.98047,2.087402 1.9043,0.439453 4.24805,0.878906 2.38037,0.439454 3.95508,0.805665 4.79736,1.098632 7.39746,3.771972 2.6001,2.709961 2.6001,7.177735 z"
             inkscape:connector-curvature="0" />
        </g>
        <path
           id="path3488"
           style="font-size:38.75px;fill:#ffffff;fill-opacity:1"
           d="m 42.462891,160.01035 q 0,2.57324 -0.737915,4.7113 -0.737915,2.11914 -2.081299,3.59497 -1.24878,1.40015 -2.95166,2.17591 -1.68396,0.75683 -3.57605,0.75683 -1.646118,0 -2.989502,-0.35949 -1.324463,-0.3595 -2.705689,-1.11634 l 0,8.85498 -3.557129,0 0,-28.93005 3.557129,0 0,2.21374 q 1.419068,-1.19201 3.178711,-1.98669 1.778565,-0.8136 3.78418,-0.8136 3.822021,0 5.941162,2.8949 2.138062,2.87597 2.138062,8.00354 z m -3.670655,0.0946 q 0,-3.82202 -1.305542,-5.71411 -1.305542,-1.89209 -4.01123,-1.89209 -1.532593,0 -3.084107,0.66223 -1.551513,0.66223 -2.970581,1.74073 l 0,11.97692 q 1.513672,0.68116 2.592163,0.92713 1.097413,0.24597 2.478638,0.24597 2.970581,0 4.63562,-2.00561 1.665039,-2.00562 1.665039,-5.94117 z"
           inkscape:connector-curvature="0" />
        <path
           id="path3490"
           style="font-size:38.75px;fill:#ffffff;fill-opacity:1"
           d="m 61.19458,153.57724 -0.189209,0 q -0.794678,-0.18921 -1.551514,-0.26489 -0.737915,-0.0946 -1.759643,-0.0946 -1.646118,0 -3.178711,0.73791 -1.532593,0.719 -2.95166,1.87317 l 0,15.00427 -3.557129,0 0,-21.13464 3.557129,0 0,3.12195 q 2.11914,-1.70288 3.727417,-2.40296 1.627197,-0.71899 3.311157,-0.71899 0.927124,0 1.343384,0.0568 0.41626,0.0378 1.248779,0.17029 l 0,3.65173 z"
           inkscape:connector-curvature="0" />
        <path
           id="path3492"
           style="font-size:38.75px;fill:#ffffff;fill-opacity:1"
           d="m 82.594116,160.27524 q 0,5.16541 -2.648926,8.15491 -2.648925,2.9895 -7.095336,2.9895 -4.484253,0 -7.133179,-2.9895 -2.630005,-2.9895 -2.630005,-8.15491 0,-5.1654 2.630005,-8.15491 2.648926,-3.00842 7.133179,-3.00842 4.446411,0 7.095336,3.00842 2.648926,2.98951 2.648926,8.15491 z m -3.670654,0 q 0,-4.10583 -1.608276,-6.09253 -1.608277,-2.00561 -4.465332,-2.00561 -2.894898,0 -4.503174,2.00561 -1.589356,1.9867 -1.589356,6.09253 0,3.97339 1.608277,6.03577 1.608276,2.04345 4.484253,2.04345 2.838134,0 4.446411,-2.02453 1.627197,-2.04346 1.627197,-6.05469 z"
           inkscape:connector-curvature="0" />
        <path
           id="path3494"
           style="font-size:38.75px;fill:#ffffff;fill-opacity:1"
           d="m 106.09387,149.69846 -8.552244,21.13464 -3.57605,0 -8.495483,-21.13464 3.859863,0 6.546631,16.82068 6.489873,-16.82068 3.72741,0 z"
           inkscape:connector-curvature="0" />
        <path
           id="path3496"
           style="font-size:38.75px;fill:#ffffff;fill-opacity:1"
           d="m 128.13672,160.63474 -15.5719,0 q 0,1.94885 0.58655,3.40576 0.58655,1.43799 1.60827,2.36511 0.98389,0.90821 2.32727,1.36231 1.36231,0.4541 2.98951,0.4541 2.15698,0 4.33288,-0.85144 2.19483,-0.87036 3.12195,-1.70288 l 0.18921,0 0,3.87878 q -1.79749,0.75684 -3.67066,1.2677 -1.87316,0.51087 -3.93554,0.51087 -5.26001,0 -8.21167,-2.83814 -2.95166,-2.85705 -2.95166,-8.09814 0,-5.18433 2.81921,-8.23059 2.83814,-3.04627 7.45484,-3.04627 4.27612,0 6.58447,2.49756 2.32727,2.49756 2.32727,7.09534 l 0,1.92993 z m -3.46253,-2.72461 q -0.0189,-2.80029 -1.41906,-4.33289 -1.38123,-1.53259 -4.21936,-1.53259 -2.85706,0 -4.55994,1.68396 -1.68396,1.68396 -1.91101,4.18152 l 12.10937,0 z"
           inkscape:connector-curvature="0" />
        <path
           id="path3498"
           style="font-size:38.75px;fill:#ffffff;fill-opacity:1"
           d="m 151.20129,170.8331 -3.55712,0 0,-12.03369 q 0,-1.45691 -0.17029,-2.72461 -0.17029,-1.28662 -0.62439,-2.00561 -0.47303,-0.79468 -1.36231,-1.1731 -0.88928,-0.39734 -2.30835,-0.39734 -1.45691,0 -3.04626,0.719 -1.58936,0.71899 -3.04627,1.83532 l 0,15.78003 -3.55713,0 0,-21.13464 3.55713,0 0,2.34619 q 1.66504,-1.38123 3.44361,-2.15698 1.77856,-0.77576 3.65173,-0.77576 3.42468,0 5.22217,2.06238 1.79748,2.06238 1.79748,5.94116 l 0,13.71765 z"
           inkscape:connector-curvature="0" />
        <path
           id="path3500"
           style="font-size:38.75px;fill:#ffffff;fill-opacity:1"
           d="m 190.27295,160.01035 q 0,2.57324 -0.73792,4.7113 -0.73791,2.11914 -2.08129,3.59497 -1.24878,1.40015 -2.95166,2.17591 -1.68396,0.75683 -3.57605,0.75683 -1.64612,0 -2.98951,-0.35949 -1.32446,-0.3595 -2.70569,-1.11634 l 0,8.85498 -3.55712,0 0,-28.93005 3.55712,0 0,2.21374 q 1.41907,-1.19201 3.17872,-1.98669 1.77856,-0.8136 3.78418,-0.8136 3.82202,0 5.94116,2.8949 2.13806,2.87597 2.13806,8.00354 z m -3.67066,0.0946 q 0,-3.82202 -1.30554,-5.71411 -1.30554,-1.89209 -4.01123,-1.89209 -1.53259,0 -3.0841,0.66223 -1.55152,0.66223 -2.97059,1.74073 l 0,11.97692 q 1.51368,0.68116 2.59217,0.92713 1.09741,0.24597 2.47864,0.24597 2.97058,0 4.63562,-2.00561 1.66503,-2.00562 1.66503,-5.94117 z"
           inkscape:connector-curvature="0" />
        <path
           id="path3502"
           style="font-size:38.75px;fill:#ffffff;fill-opacity:1"
           d="m 209.00464,153.57724 -0.18921,0 q -0.79468,-0.18921 -1.55151,-0.26489 -0.73792,-0.0946 -1.75965,-0.0946 -1.64612,0 -3.17871,0.73791 -1.53259,0.719 -2.95166,1.87317 l 0,15.00427 -3.55713,0 0,-21.13464 3.55713,0 0,3.12195 q 2.11914,-1.70288 3.72742,-2.40296 1.6272,-0.71899 3.31116,-0.71899 0.92712,0 1.34338,0.0568 0.41626,0.0378 1.24878,0.17029 l 0,3.65173 z"
           inkscape:connector-curvature="0" />
        <path
           id="path3504"
           style="font-size:38.75px;fill:#ffffff;fill-opacity:1"
           d="m 228.13367,170.8331 -3.53821,0 0,-2.25158 q -0.47302,0.32165 -1.28662,0.9082 -0.79468,0.56763 -1.55152,0.9082 -0.88928,0.43518 -2.04345,0.719 -1.15418,0.30273 -2.70569,0.30273 -2.85706,0 -4.84375,-1.89209 -1.9867,-1.89209 -1.9867,-4.82483 0,-2.40295 1.02173,-3.87878 1.04065,-1.49475 2.95166,-2.34619 1.92993,-0.85144 4.63562,-1.15418 2.70569,-0.30273 5.80872,-0.4541 l 0,-0.54871 q 0,-1.21093 -0.43518,-2.00561 -0.41626,-0.79468 -1.21094,-1.24878 -0.75684,-0.43518 -1.81641,-0.58655 -1.05957,-0.15137 -2.21374,-0.15137 -1.40015,0 -3.12195,0.37842 -1.7218,0.3595 -3.55713,1.05957 l -0.18921,0 0,-3.61389 q 1.04065,-0.28381 3.00843,-0.62439 1.96777,-0.34058 3.87878,-0.34058 2.23267,0 3.87878,0.37842 1.66504,0.3595 2.87598,1.24878 1.19202,0.87036 1.81641,2.25159 0.62439,1.38122 0.62439,3.42468 l 0,14.34204 z m -3.53821,-5.20324 0,-5.8844 q -1.6272,0.0946 -3.84094,0.28381 -2.19483,0.18921 -3.48145,0.54871 -1.53259,0.43518 -2.47864,1.3623 -0.94604,0.9082 -0.94604,2.51648 0,1.81641 1.09741,2.74353 1.09741,0.9082 3.349,0.9082 1.87317,0 3.42468,-0.71899 1.55152,-0.73792 2.87598,-1.75964 z"
           inkscape:connector-curvature="0" />
        <path
           id="path3506"
           style="font-size:38.75px;fill:#ffffff;fill-opacity:1"
           d="m 250.64954,169.50864 q -1.77857,0.85144 -3.38684,1.32446 -1.58936,0.47302 -3.38685,0.47302 -2.28942,0 -4.20043,-0.66223 -1.91102,-0.68115 -3.27332,-2.04345 -1.38123,-1.36231 -2.13806,-3.44361 -0.75684,-2.0813 -0.75684,-4.86267 0,-5.18432 2.83814,-8.13598 2.85705,-2.95166 7.53051,-2.95166 1.81641,0 3.55713,0.51086 1.75965,0.51086 3.21656,1.24878 l 0,3.95447 -0.18921,0 q -1.6272,-1.2677 -3.36792,-1.94886 -1.7218,-0.68115 -3.36792,-0.68115 -3.02735,0 -4.78699,2.04346 -1.74072,2.02454 -1.74072,5.96008 0,3.82202 1.70288,5.8844 1.7218,2.04346 4.82483,2.04346 1.07849,0 2.19482,-0.28382 1.11633,-0.28381 2.00562,-0.73791 0.77575,-0.39734 1.45691,-0.83252 0.68115,-0.4541 1.07849,-0.77576 l 0.18921,0 0,3.91663 z"
           inkscape:connector-curvature="0" />
        <path
           id="path3508"
           style="font-size:38.75px;fill:#ffffff;fill-opacity:1"
           d="m 266.20251,170.64389 q -1.0028,0.2649 -2.19482,0.43518 -1.1731,0.17029 -2.10022,0.17029 -3.23547,0 -4.91943,-1.74072 -1.68396,-1.74072 -1.68396,-5.58167 l 0,-11.23901 -2.40296,0 0,-2.9895 2.40296,0 0,-6.07361 3.55713,0 0,6.07361 7.3413,0 0,2.9895 -7.3413,0 0,9.63074 q 0,1.66504 0.0757,2.61108 0.0757,0.92713 0.52978,1.74072 0.41626,0.75684 1.13526,1.11634 0.73791,0.34057 2.23266,0.34057 0.87037,0 1.81641,-0.24597 0.94605,-0.26489 1.36231,-0.43518 l 0.1892,0 0,3.19763 z"
           inkscape:connector-curvature="0" />
        <path
           id="path3510"
           style="font-size:38.75px;fill:#ffffff;fill-opacity:1"
           d="m 274.3385,146.16025 -4.01123,0 0,-3.68957 4.01123,0 0,3.68957 z m -0.22705,24.67285 -3.55713,0 0,-21.13464 3.55713,0 0,21.13464 z"
           inkscape:connector-curvature="0" />
        <path
           id="path3512"
           style="font-size:38.75px;fill:#ffffff;fill-opacity:1"
           d="m 296.66516,169.50864 q -1.77856,0.85144 -3.38684,1.32446 -1.58936,0.47302 -3.38684,0.47302 -2.28943,0 -4.20044,-0.66223 -1.91101,-0.68115 -3.27332,-2.04345 -1.38122,-1.36231 -2.13806,-3.44361 -0.75683,-2.0813 -0.75683,-4.86267 0,-5.18432 2.83813,-8.13598 2.85706,-2.95166 7.53052,-2.95166 1.81641,0 3.55713,0.51086 1.75964,0.51086 3.21655,1.24878 l 0,3.95447 -0.18921,0 q -1.6272,-1.2677 -3.36792,-1.94886 -1.7218,-0.68115 -3.36792,-0.68115 -3.02734,0 -4.78699,2.04346 -1.74072,2.02454 -1.74072,5.96008 0,3.82202 1.70288,5.8844 1.7218,2.04346 4.82483,2.04346 1.07849,0 2.19483,-0.28382 1.11633,-0.28381 2.00561,-0.73791 0.77576,-0.39734 1.45691,-0.83252 0.68115,-0.4541 1.07849,-0.77576 l 0.18921,0 0,3.91663 z"
           inkscape:connector-curvature="0" />
        <path
           id="path3514"
           style="font-size:38.75px;fill:#ffffff;fill-opacity:1"
           d="m 318.93506,160.63474 -15.5719,0 q 0,1.94885 0.58655,3.40576 0.58654,1.43799 1.60827,2.36511 0.98389,0.90821 2.32727,1.36231 1.36231,0.4541 2.98951,0.4541 2.15698,0 4.33288,-0.85144 2.19483,-0.87036 3.12195,-1.70288 l 0.18921,0 0,3.87878 q -1.79749,0.75684 -3.67066,1.2677 -1.87316,0.51087 -3.93554,0.51087 -5.26001,0 -8.21167,-2.83814 -2.95166,-2.85705 -2.95166,-8.09814 0,-5.18433 2.81921,-8.23059 2.83814,-3.04627 7.45484,-3.04627 4.27612,0 6.58447,2.49756 2.32727,2.49756 2.32727,7.09534 l 0,1.92993 z m -3.46253,-2.72461 q -0.0189,-2.80029 -1.41906,-4.33289 -1.38123,-1.53259 -4.21936,-1.53259 -2.85706,0 -4.55994,1.68396 -1.68396,1.68396 -1.91101,4.18152 l 12.10937,0 z"
           inkscape:connector-curvature="0" />
        <path
           id="path3516"
           style="font-size:38.75px;fill:#ffffff;fill-opacity:1"
           d="m 339.42639,164.74057 q 0,2.8949 -2.40295,4.74915 -2.38404,1.85425 -6.52771,1.85425 -2.34619,0 -4.31397,-0.54871 -1.94885,-0.56763 -3.27331,-1.22986 l 0,-3.99231 0.18921,0 q 1.68396,1.2677 3.74633,2.02454 2.06238,0.73791 3.95447,0.73791 2.34619,0 3.67066,-0.75683 1.32446,-0.75684 1.32446,-2.38404 0,-1.24877 -0.719,-1.89209 -0.71899,-0.64331 -2.76245,-1.09741 -0.75683,-0.17029 -1.98669,-0.39734 -1.21094,-0.22705 -2.21375,-0.49194 -2.78137,-0.73791 -3.95446,-2.15698 -1.15418,-1.43799 -1.15418,-3.51929 0,-1.30554 0.52979,-2.45972 0.5487,-1.15417 1.64612,-2.06237 1.05957,-0.88929 2.68676,-1.40015 1.64612,-0.52979 3.67066,-0.52979 1.89209,0 3.82202,0.47303 1.94885,0.4541 3.23547,1.11633 l 0,3.8031 -0.18921,0 q -1.3623,-1.00281 -3.31115,-1.68396 -1.94886,-0.70007 -3.82203,-0.70007 -1.94885,0 -3.29223,0.75683 -1.34339,0.73792 -1.34339,2.21375 0,1.30554 0.8136,1.96777 0.79468,0.66223 2.57325,1.07849 0.98388,0.22705 2.19482,0.4541 1.22986,0.22706 2.04346,0.41626 2.47863,0.56763 3.82202,1.94886 1.34338,1.40014 1.34338,3.70849 z"
           inkscape:connector-curvature="0" />
        <path
           id="path3518"
           style="font-size:38.75px;fill:#ffffff;fill-opacity:1"
           d="m 369.52954,144.83579 -0.18921,0 q -0.58655,-0.17029 -1.53259,-0.34058 -0.94605,-0.18921 -1.66504,-0.18921 -2.28943,0 -3.33008,1.02173 -1.02173,1.00281 -1.02173,3.65173 l 0,0.719 6.41419,0 0,2.9895 -6.30066,0 0,18.14514 -3.55713,0 0,-18.14514 -2.40295,0 0,-2.9895 2.40295,0 0,-0.70007 q 0,-3.76526 1.87317,-5.77088 1.87317,-2.02453 5.41138,-2.02453 1.19201,0 2.13806,0.11352 0.96496,0.11353 1.75964,0.26489 l 0,3.2544 z"
           inkscape:connector-curvature="0" />
        <path
           id="path3520"
           style="font-size:38.75px;fill:#ffffff;fill-opacity:1"
           d="m 389.79382,160.27524 q 0,5.16541 -2.64892,8.15491 -2.64893,2.9895 -7.09534,2.9895 -4.48425,0 -7.13318,-2.9895 -2.63,-2.9895 -2.63,-8.15491 0,-5.1654 2.63,-8.15491 2.64893,-3.00842 7.13318,-3.00842 4.44641,0 7.09534,3.00842 2.64892,2.98951 2.64892,8.15491 z m -3.67065,0 q 0,-4.10583 -1.60828,-6.09253 -1.60827,-2.00561 -4.46533,-2.00561 -2.8949,0 -4.50317,2.00561 -1.58936,1.9867 -1.58936,6.09253 0,3.97339 1.60828,6.03577 1.60827,2.04345 4.48425,2.04345 2.83814,0 4.44641,-2.02453 1.6272,-2.04346 1.6272,-6.05469 z"
           inkscape:connector-curvature="0" />
        <path
           id="path3522"
           style="font-size:38.75px;fill:#ffffff;fill-opacity:1"
           d="m 408.50659,153.57724 -0.18921,0 q -0.79467,-0.18921 -1.55151,-0.26489 -0.73792,-0.0946 -1.75964,-0.0946 -1.64612,0 -3.17872,0.73791 -1.53259,0.719 -2.95166,1.87317 l 0,15.00427 -3.55712,0 0,-21.13464 3.55712,0 0,3.12195 q 2.11915,-1.70288 3.72742,-2.40296 1.6272,-0.71899 3.31116,-0.71899 0.92712,0 1.34338,0.0568 0.41626,0.0378 1.24878,0.17029 l 0,3.65173 z"
           inkscape:connector-curvature="0" />
        <path
           id="path3524"
           style="font-size:38.75px;fill:#ffffff;fill-opacity:1"
           d="m 444.11572,160.01035 q 0,2.57324 -0.73791,4.7113 -0.73792,2.11914 -2.0813,3.59497 -1.24878,1.40015 -2.95166,2.17591 -1.68396,0.75683 -3.57605,0.75683 -1.64612,0 -2.9895,-0.35949 -1.32447,-0.3595 -2.70569,-1.11634 l 0,8.85498 -3.55713,0 0,-28.93005 3.55713,0 0,2.21374 q 1.41907,-1.19201 3.17871,-1.98669 1.77856,-0.8136 3.78418,-0.8136 3.82202,0 5.94116,2.8949 2.13806,2.87597 2.13806,8.00354 z m -3.67065,0.0946 q 0,-3.82202 -1.30554,-5.71411 -1.30555,-1.89209 -4.01123,-1.89209 -1.5326,0 -3.08411,0.66223 -1.55151,0.66223 -2.97058,1.74073 l 0,11.97692 q 1.51367,0.68116 2.59216,0.92713 1.09741,0.24597 2.47864,0.24597 2.97058,0 4.63562,-2.00561 1.66504,-2.00562 1.66504,-5.94117 z"
           inkscape:connector-curvature="0" />
        <path
           id="path3526"
           style="font-size:38.75px;fill:#ffffff;fill-opacity:1"
           d="m 462.84741,153.57724 -0.18921,0 q -0.79467,-0.18921 -1.55151,-0.26489 -0.73792,-0.0946 -1.75964,-0.0946 -1.64612,0 -3.17872,0.73791 -1.53259,0.719 -2.95166,1.87317 l 0,15.00427 -3.55712,0 0,-21.13464 3.55712,0 0,3.12195 q 2.11915,-1.70288 3.72742,-2.40296 1.6272,-0.71899 3.31116,-0.71899 0.92712,0 1.34338,0.0568 0.41626,0.0378 1.24878,0.17029 l 0,3.65173 z"
           inkscape:connector-curvature="0" />
        <path
           id="path3528"
           style="font-size:38.75px;fill:#ffffff;fill-opacity:1"
           d="m 483.92529,160.63474 -15.5719,0 q 0,1.94885 0.58655,3.40576 0.58655,1.43799 1.60828,2.36511 0.98388,0.90821 2.32727,1.36231 1.3623,0.4541 2.9895,0.4541 2.15698,0 4.33289,-0.85144 2.19482,-0.87036 3.12194,-1.70288 l 0.18921,0 0,3.87878 q -1.79748,0.75684 -3.67065,1.2677 -1.87317,0.51087 -3.93555,0.51087 -5.26001,0 -8.21167,-2.83814 -2.95166,-2.85705 -2.95166,-8.09814 0,-5.18433 2.81922,-8.23059 2.83813,-3.04627 7.45483,-3.04627 4.27612,0 6.58447,2.49756 2.32727,2.49756 2.32727,7.09534 l 0,1.92993 z m -3.46252,-2.72461 q -0.0189,-2.80029 -1.41907,-4.33289 -1.38122,-1.53259 -4.21936,-1.53259 -2.85705,0 -4.55994,1.68396 -1.68396,1.68396 -1.91101,4.18152 l 12.10938,0 z"
           inkscape:connector-curvature="0" />
        <path
           id="path3530"
           style="font-size:38.75px;fill:#ffffff;fill-opacity:1"
           d="m 506.46008,170.8331 -3.55713,0 0,-2.21374 q -1.53259,1.32446 -3.19763,2.06238 -1.66504,0.73791 -3.61389,0.73791 -3.78418,0 -6.01685,-2.91382 -2.21374,-2.91382 -2.21374,-8.07922 0,-2.68677 0.75684,-4.78699 0.77575,-2.10022 2.08129,-3.57605 1.28663,-1.43799 2.98951,-2.19482 1.7218,-0.75684 3.55713,-0.75684 1.66503,0 2.95166,0.3595 1.28662,0.34057 2.70568,1.07849 l 0,-9.15772 3.55713,0 0,29.44092 z m -3.55713,-5.20324 0,-12.1283 q -1.43798,-0.64331 -2.57324,-0.88928 -1.13525,-0.24597 -2.47864,-0.24597 -2.9895,0 -4.65454,2.08129 -1.66504,2.0813 -1.66504,5.90332 0,3.76526 1.28663,5.73304 1.28662,1.94885 4.12475,1.94885 1.51367,0 3.06519,-0.66223 1.55151,-0.68115 2.89489,-1.74072 z"
           inkscape:connector-curvature="0" />
        <path
           id="path3532"
           style="font-size:38.75px;fill:#ffffff;fill-opacity:1"
           d="m 517.28284,146.16025 -4.01123,0 0,-3.68957 4.01123,0 0,3.68957 z m -0.22705,24.67285 -3.55713,0 0,-21.13464 3.55713,0 0,21.13464 z"
           inkscape:connector-curvature="0" />
        <path
           id="path3534"
           style="font-size:38.75px;fill:#ffffff;fill-opacity:1"
           d="m 539.6095,169.50864 q -1.77857,0.85144 -3.38684,1.32446 -1.58936,0.47302 -3.38684,0.47302 -2.28943,0 -4.20044,-0.66223 -1.91101,-0.68115 -3.27332,-2.04345 -1.38123,-1.36231 -2.13806,-3.44361 -0.75684,-2.0813 -0.75684,-4.86267 0,-5.18432 2.83814,-8.13598 2.85705,-2.95166 7.53052,-2.95166 1.8164,0 3.55712,0.51086 1.75965,0.51086 3.21656,1.24878 l 0,3.95447 -0.18921,0 q -1.6272,-1.2677 -3.36792,-1.94886 -1.7218,-0.68115 -3.36792,-0.68115 -3.02735,0 -4.78699,2.04346 -1.74072,2.02454 -1.74072,5.96008 0,3.82202 1.70288,5.8844 1.7218,2.04346 4.82483,2.04346 1.07849,0 2.19482,-0.28382 1.11634,-0.28381 2.00562,-0.73791 0.77575,-0.39734 1.45691,-0.83252 0.68115,-0.4541 1.07849,-0.77576 l 0.18921,0 0,3.91663 z"
           inkscape:connector-curvature="0" />
        <path
           id="path3536"
           style="font-size:38.75px;fill:#ffffff;fill-opacity:1"
           d="m 555.16248,170.64389 q -1.00281,0.2649 -2.19483,0.43518 -1.17309,0.17029 -2.10022,0.17029 -3.23547,0 -4.91943,-1.74072 -1.68396,-1.74072 -1.68396,-5.58167 l 0,-11.23901 -2.40296,0 0,-2.9895 2.40296,0 0,-6.07361 3.55713,0 0,6.07361 7.34131,0 0,2.9895 -7.34131,0 0,9.63074 q 0,1.66504 0.0757,2.61108 0.0757,0.92713 0.52979,1.74072 0.41626,0.75684 1.13525,1.11634 0.73791,0.34057 2.23267,0.34057 0.87036,0 1.8164,-0.24597 0.94605,-0.26489 1.36231,-0.43518 l 0.18921,0 0,3.19763 z"
           inkscape:connector-curvature="0" />
        <path
           id="path3538"
           style="font-size:38.75px;fill:#ffffff;fill-opacity:1"
           d="m 575.89978,170.8331 -3.53821,0 0,-2.25158 q -0.47302,0.32165 -1.28662,0.9082 -0.79468,0.56763 -1.55151,0.9082 -0.88928,0.43518 -2.04346,0.719 -1.15417,0.30273 -2.70569,0.30273 -2.85705,0 -4.84375,-1.89209 -1.98669,-1.89209 -1.98669,-4.82483 0,-2.40295 1.02173,-3.87878 1.04065,-1.49475 2.95166,-2.34619 1.92993,-0.85144 4.63562,-1.15418 2.70568,-0.30273 5.80871,-0.4541 l 0,-0.54871 q 0,-1.21093 -0.43518,-2.00561 -0.41626,-0.79468 -1.21094,-1.24878 -0.75683,-0.43518 -1.8164,-0.58655 -1.05957,-0.15137 -2.21375,-0.15137 -1.40014,0 -3.12195,0.37842 -1.7218,0.3595 -3.55712,1.05957 l -0.18921,0 0,-3.61389 q 1.04065,-0.28381 3.00842,-0.62439 1.96777,-0.34058 3.87878,-0.34058 2.23267,0 3.87879,0.37842 1.66504,0.3595 2.87597,1.24878 1.19202,0.87036 1.81641,2.25159 0.62439,1.38122 0.62439,3.42468 l 0,14.34204 z m -3.53821,-5.20324 0,-5.8844 q -1.6272,0.0946 -3.84094,0.28381 -2.19482,0.18921 -3.48145,0.54871 -1.53259,0.43518 -2.47863,1.3623 -0.94605,0.9082 -0.94605,2.51648 0,1.81641 1.09741,2.74353 1.09742,0.9082 3.349,0.9082 1.87317,0 3.42469,-0.71899 1.55151,-0.73792 2.87597,-1.75964 z"
           inkscape:connector-curvature="0" />
        <path
           id="path3540"
           style="font-size:38.75px;fill:#ffffff;fill-opacity:1"
           d="m 601.38623,160.10495 q 0,2.64893 -0.75684,4.76807 -0.73791,2.11914 -2.00561,3.55713 -1.34338,1.49475 -2.95166,2.25159 -1.60828,0.73791 -3.53821,0.73791 -1.79748,0 -3.14087,-0.43518 -1.34338,-0.41626 -2.64892,-1.13525 l -0.22705,0.98388 -3.33008,0 0,-29.44092 3.55713,0 0,10.52002 q 1.49475,-1.22985 3.17871,-2.00561 1.68396,-0.79468 3.78418,-0.79468 3.74633,0 5.90332,2.87598 2.1759,2.87597 2.1759,8.11706 z m -3.67065,0.0946 q 0,-3.78418 -1.24878,-5.73303 -1.24878,-1.96778 -4.03015,-1.96778 -1.55152,0 -3.14087,0.68115 -1.58936,0.66224 -2.95166,1.72181 l 0,12.10937 q 1.51367,0.68115 2.59216,0.94605 1.09741,0.26489 2.47864,0.26489 2.95166,0 4.6167,-1.92993 1.68396,-1.94886 1.68396,-6.09253 z"
           inkscape:connector-curvature="0" />
        <path
           id="path3542"
           style="font-size:38.75px;fill:#ffffff;fill-opacity:1"
           d="m 610.52502,170.8331 -3.55712,0 0,-29.44092 3.55712,0 0,29.44092 z"
           inkscape:connector-curvature="0" />
        <path
           id="path3544"
           style="font-size:38.75px;fill:#ffffff;fill-opacity:1"
           d="m 635.14111,160.63474 -15.5719,0 q 0,1.94885 0.58655,3.40576 0.58655,1.43799 1.60828,2.36511 0.98388,0.90821 2.32727,1.36231 1.3623,0.4541 2.9895,0.4541 2.15698,0 4.33289,-0.85144 2.19482,-0.87036 3.12194,-1.70288 l 0.18921,0 0,3.87878 q -1.79748,0.75684 -3.67065,1.2677 -1.87317,0.51087 -3.93555,0.51087 -5.26001,0 -8.21167,-2.83814 -2.95166,-2.85705 -2.95166,-8.09814 0,-5.18433 2.81922,-8.23059 2.83813,-3.04627 7.45483,-3.04627 4.27612,0 6.58447,2.49756 2.32727,2.49756 2.32727,7.09534 l 0,1.92993 z m -3.46252,-2.72461 q -0.0189,-2.80029 -1.41907,-4.33289 -1.38122,-1.53259 -4.21936,-1.53259 -2.85705,0 -4.55994,1.68396 -1.68396,1.68396 -1.91101,4.18152 l 12.10938,0 z"
           inkscape:connector-curvature="0" />
        <path
           id="path3546"
           style="font-size:38.75px;fill:#ffffff;fill-opacity:1"
           d="m 667.34448,153.57724 -0.18921,0 q -0.79467,-0.18921 -1.55151,-0.26489 -0.73792,-0.0946 -1.75964,-0.0946 -1.64612,0 -3.17871,0.73791 -1.5326,0.719 -2.95166,1.87317 l 0,15.00427 -3.55713,0 0,-21.13464 3.55713,0 0,3.12195 q 2.11914,-1.70288 3.72741,-2.40296 1.6272,-0.71899 3.31116,-0.71899 0.92712,0 1.34338,0.0568 0.41626,0.0378 1.24878,0.17029 l 0,3.65173 z"
           inkscape:connector-curvature="0" />
        <path
           id="path3548"
           style="font-size:38.75px;fill:#ffffff;fill-opacity:1"
           d="m 688.42236,160.63474 -15.5719,0 q 0,1.94885 0.58655,3.40576 0.58655,1.43799 1.60828,2.36511 0.98388,0.90821 2.32727,1.36231 1.3623,0.4541 2.9895,0.4541 2.15698,0 4.33289,-0.85144 2.19482,-0.87036 3.12194,-1.70288 l 0.18921,0 0,3.87878 q -1.79748,0.75684 -3.67065,1.2677 -1.87317,0.51087 -3.93555,0.51087 -5.26001,0 -8.21167,-2.83814 -2.95166,-2.85705 -2.95166,-8.09814 0,-5.18433 2.81922,-8.23059 2.83813,-3.04627 7.45483,-3.04627 4.27612,0 6.58447,2.49756 2.32727,2.49756 2.32727,7.09534 l 0,1.92993 z m -3.46252,-2.72461 q -0.0189,-2.80029 -1.41907,-4.33289 -1.38122,-1.53259 -4.21936,-1.53259 -2.85705,0 -4.55994,1.68396 -1.68396,1.68396 -1.91101,4.18152 l 12.10938,0 z"
           inkscape:connector-curvature="0" />
        <path
           id="path3550"
           style="font-size:38.75px;fill:#ffffff;fill-opacity:1"
           d="m 708.9137,164.74057 q 0,2.8949 -2.40296,4.74915 -2.38403,1.85425 -6.52771,1.85425 -2.34619,0 -4.31396,-0.54871 -1.94886,-0.56763 -3.27332,-1.22986 l 0,-3.99231 0.18921,0 q 1.68396,1.2677 3.74634,2.02454 2.06238,0.73791 3.95447,0.73791 2.34619,0 3.67065,-0.75683 1.32446,-0.75684 1.32446,-2.38404 0,-1.24877 -0.71899,-1.89209 -0.71899,-0.64331 -2.76245,-1.09741 -0.75684,-0.17029 -1.9867,-0.39734 -1.21093,-0.22705 -2.21374,-0.49194 -2.78137,-0.73791 -3.95447,-2.15698 -1.15417,-1.43799 -1.15417,-3.51929 0,-1.30554 0.52978,-2.45972 0.54871,-1.15417 1.64612,-2.06237 1.05957,-0.88929 2.68677,-1.40015 1.64612,-0.52979 3.67065,-0.52979 1.89209,0 3.82202,0.47303 1.94886,0.4541 3.23548,1.11633 l 0,3.8031 -0.18921,0 q -1.36231,-1.00281 -3.31116,-1.68396 -1.94885,-0.70007 -3.82202,-0.70007 -1.94885,0 -3.29224,0.75683 -1.34338,0.73792 -1.34338,2.21375 0,1.30554 0.8136,1.96777 0.79468,0.66223 2.57324,1.07849 0.98389,0.22705 2.19482,0.4541 1.22986,0.22706 2.04346,0.41626 2.47864,0.56763 3.82202,1.94886 1.34339,1.40014 1.34339,3.70849 z"
           inkscape:connector-curvature="0" />
        <path
           id="path3552"
           style="font-size:38.75px;fill:#ffffff;fill-opacity:1"
           d="m 731.54309,170.8331 -3.55713,0 0,-2.34619 q -1.79748,1.41907 -3.4436,2.1759 -1.64612,0.75684 -3.63281,0.75684 -3.33008,0 -5.18433,-2.02454 -1.85425,-2.04345 -1.85425,-5.979 l 0,-13.71765 3.55713,0 0,12.03369 q 0,1.60828 0.15137,2.76245 0.15136,1.13526 0.64331,1.94885 0.51086,0.83252 1.32446,1.21094 0.8136,0.37842 2.36511,0.37842 1.38123,0 3.00843,-0.71899 1.64611,-0.719 3.06518,-1.83533 l 0,-15.78003 3.55713,0 0,21.13464 z"
           inkscape:connector-curvature="0" />
        <path
           id="path3554"
           style="font-size:38.75px;fill:#ffffff;fill-opacity:1"
           d="m 742.13879,170.8331 -3.55712,0 0,-29.44092 3.55712,0 0,29.44092 z"
           inkscape:connector-curvature="0" />
        <path
           id="path3556"
           style="font-size:38.75px;fill:#ffffff;fill-opacity:1"
           d="m 760.03796,170.64389 q -1.0028,0.2649 -2.19482,0.43518 -1.1731,0.17029 -2.10022,0.17029 -3.23547,0 -4.91943,-1.74072 -1.68396,-1.74072 -1.68396,-5.58167 l 0,-11.23901 -2.40296,0 0,-2.9895 2.40296,0 0,-6.07361 3.55713,0 0,6.07361 7.3413,0 0,2.9895 -7.3413,0 0,9.63074 q 0,1.66504 0.0757,2.61108 0.0757,0.92713 0.52978,1.74072 0.41626,0.75684 1.13526,1.11634 0.73791,0.34057 2.23266,0.34057 0.87037,0 1.81641,-0.24597 0.94605,-0.26489 1.3623,-0.43518 l 0.18921,0 0,3.19763 z"
           inkscape:connector-curvature="0" />
        <path
           id="path3558"
           style="font-size:38.75px;fill:#ffffff;fill-opacity:1"
           d="m 779.45081,164.74057 q 0,2.8949 -2.40296,4.74915 -2.38403,1.85425 -6.52771,1.85425 -2.34619,0 -4.31396,-0.54871 -1.94886,-0.56763 -3.27332,-1.22986 l 0,-3.99231 0.18921,0 q 1.68396,1.2677 3.74634,2.02454 2.06238,0.73791 3.95447,0.73791 2.34619,0 3.67065,-0.75683 1.32446,-0.75684 1.32446,-2.38404 0,-1.24877 -0.71899,-1.89209 -0.719,-0.64331 -2.76245,-1.09741 -0.75684,-0.17029 -1.9867,-0.39734 -1.21093,-0.22705 -2.21374,-0.49194 -2.78137,-0.73791 -3.95447,-2.15698 -1.15417,-1.43799 -1.15417,-3.51929 0,-1.30554 0.52978,-2.45972 0.54871,-1.15417 1.64612,-2.06237 1.05957,-0.88929 2.68677,-1.40015 1.64611,-0.52979 3.67065,-0.52979 1.89209,0 3.82202,0.47303 1.94886,0.4541 3.23548,1.11633 l 0,3.8031 -0.18921,0 q -1.36231,-1.00281 -3.31116,-1.68396 -1.94885,-0.70007 -3.82202,-0.70007 -1.94885,0 -3.29224,0.75683 -1.34338,0.73792 -1.34338,2.21375 0,1.30554 0.8136,1.96777 0.79467,0.66223 2.57324,1.07849 0.98389,0.22705 2.19482,0.4541 1.22986,0.22706 2.04346,0.41626 2.47864,0.56763 3.82202,1.94886 1.34339,1.40014 1.34339,3.70849 z"
           inkscape:connector-curvature="0" />
      </g>
    </g>
  </g>
</svg>
