<?xml version="1.0" encoding="UTF-8" standalone="no"?>
<!DOCTYPE svg PUBLIC "-//W3C//DTD SVG 1.1//EN" "http://www.w3.org/Graphics/SVG/1.1/DTD/svg11.dtd">
<!-- Generated by Microsoft Visio, SVG Export group-chat-pattern.svg Page-1 -->
<svg xmlns="http://www.w3.org/2000/svg" xmlns:xlink="http://www.w3.org/1999/xlink" xmlns:ev="http://www.w3.org/2001/xml-events"
		xmlns:v="http://schemas.microsoft.com/visio/2003/SVGExtensions/" width="6.65354in" height="5.23622in"
		viewBox="0 0 479.055 377.008" xml:space="preserve" color-interpolation-filters="sRGB" class="st19">
	<v:documentProperties v:langID="2052" v:metric="true" v:viewMarkup="false">
		<v:userDefs>
			<v:ud v:nameU="msvSubprocessMaster" v:prompt="" v:val="VT4(Rectangle)"/>
			<v:ud v:nameU="msvNoAutoConnect" v:val="VT0(1):26"/>
		</v:userDefs>
	</v:documentProperties>

	<style type="text/css">
	<![CDATA[
		.st1 {fill:#ffffff;stroke:none;stroke-linecap:butt;stroke-width:0.75}
		.st2 {fill:none}
		.st3 {stroke:#000000;stroke-linecap:butt;stroke-width:0.75}
		.st4 {fill:#000000;stroke:#000000;stroke-linecap:butt;stroke-width:0.75}
		.st5 {fill:#ffffff;stroke:#000000;stroke-linecap:butt;stroke-width:0.75}
		.st6 {fill:#000000;font-family:Segoe UI;font-size:0.833336em}
		.st7 {fill:#dae8fc;stroke:#6c8ebf;stroke-linecap:butt;stroke-width:0.75}
		.st8 {stroke:#6c8ebf;stroke-linecap:butt;stroke-width:0.75}
		.st9 {fill:#000000;font-family:Segoe UI;font-size:0.75em}
		.st10 {font-size:1em}
		.st11 {fill:#fff2cc;stroke:#d6b656;stroke-linecap:butt;stroke-width:0.75}
		.st12 {fill:#f5f5f5;stroke:#666666;stroke-linecap:butt;stroke-width:0.75}
		.st13 {stroke:#666666;stroke-linecap:butt;stroke-width:0.75}
		.st14 {fill:#000000;font-family:Segoe UI;font-size:1.00001em}
		.st15 {fill:none;stroke:none;stroke-linecap:butt;stroke-width:0.75}
		.st16 {stroke:#e6e6e6;stroke-linecap:round;stroke-linejoin:round;stroke-width:0.375}
		.st17 {stroke:#666666;stroke-linecap:round;stroke-linejoin:round;stroke-width:0.75}
		.st18 {fill:#000000;font-family:Segoe UI;font-size:0.666664em}
		.st19 {fill:none;fill-rule:evenodd;font-size:12px;overflow:visible;stroke-linecap:square;stroke-miterlimit:3}
	]]>
	</style>

	<g v:mID="0" v:index="1" v:groupContext="foregroundPage">
		<v:userDefs>
			<v:ud v:nameU="msvThemeOrder" v:val="VT0(0):26"/>
		</v:userDefs>
		<title>页-1</title>
		<v:pageProperties v:drawingScale="0.0393701" v:pageScale="0.0393701" v:drawingUnits="24" v:shadowOffsetX="9"
				v:shadowOffsetY="-9"/>
		<g id="group1-1" transform="translate(-1.09252,-1.74213)" v:mID="1" v:groupContext="group">
			<title>Sheet.1</title>
			<g id="shape2-2" v:mID="2" v:groupContext="shape">
				<title>Sheet.2</title>
				<rect x="0" y="0.507871" width="477.75" height="376.5" class="st1"/>
			</g>
			<g id="group3-4" transform="translate(20.25,-16.5)" v:mID="3" v:groupContext="group">
				<title>Sheet.3</title>
				<g id="group4-5" transform="translate(177.375,-307.5)" v:mID="4" v:groupContext="group">
					<title>Sheet.4</title>
					<g id="shape5-6" v:mID="5" v:groupContext="shape" transform="translate(2.625,0)">
						<title>Sheet.5</title>
						<path d="M0 362.01 L0 377.01 L0 362.01 L0 372.23 L0 362.01 Z" class="st2"/>
						<path d="M0 362.01 L0 377.01 L0 362.01 L0 372.23" class="st3"/>
					</g>
					<g id="shape6-9" v:mID="6" v:groupContext="shape" transform="translate(0,-0.84)">
						<title>Sheet.6</title>
						<path d="M2.62 377.01 L0 371.76 L2.62 373.07 L5.25 371.76 L2.62 377.01 Z" class="st4"/>
					</g>
				</g>
				<g id="group7-11" transform="translate(157.477,-322.5)" v:mID="7" v:groupContext="group">
					<title>Sheet.7</title>
					<desc>Input</desc>
					<g id="shape8-12" v:mID="8" v:groupContext="shape">
						<title>Sheet.8</title>
						<path d="M0 373.63 A3.37508 3.37508 -180 0 0 3.38 377.01 L41.63 377.01 A3.37508 3.37508 -180 0 0 45 373.63
									 L45 357.88 A3.37508 3.37508 -180 0 0 41.63 354.51 L3.38 354.51 A3.37508 3.37508 -180 0 0 -0
									 357.88 L0 373.63 Z" class="st5"/>
					</g>
					<g id="shape7-14" v:mID="7" v:groupContext="groupContent">
						<v:textBlock v:margins="rect(0,0,0,0)" v:tabSpace="42.5197"/>
						<v:textRect cx="22.5" cy="365.758" width="45.01" height="22.5"/>
						<text x="10.88" y="368.76" class="st6" v:langID="1033"><v:paragraph v:horizAlign="1"/><v:tabList/>Input</text>					</g>
				</g>
				<g id="shape10-16" v:mID="10" v:groupContext="shape" transform="translate(60,-172.5)">
					<title>Sheet.10</title>
					<path d="M0 362.01 L0 377.01 L0 362.01 L0 377.01 L0 362.01 Z" class="st2"/>
					<path d="M0 362.01 L0 377.01 L0 362.01 L0 377.01" class="st3"/>
				</g>
				<g id="group11-19" transform="translate(0,-68.34)" v:mID="11" v:groupContext="group">
					<title>Sheet.11</title>
					<g id="shape12-20" v:mID="12" v:groupContext="shape" transform="translate(9.27258E-13,-3.9375)">
						<title>Sheet.12</title>
						<path d="M14.98 239.29 L0 239.29 L0 366.79 L180 366.79 L179.99 377.01 L14.98 239.29 Z" class="st2"/>
						<path d="M14.98 239.29 L0 239.29 L0 366.79 L180 366.79 L179.99 377.01" class="st3"/>
					</g>
					<g id="shape13-23" v:mID="13" v:groupContext="shape" transform="translate(177.36,0)">
						<title>Sheet.13</title>
						<path d="M2.62 377.01 L0 371.76 L2.63 373.07 L5.25 371.77 L2.62 377.01 Z" class="st4"/>
					</g>
				</g>
				<g id="group14-25" transform="translate(14.9775,-187.5)" v:mID="14" v:groupContext="group">
					<title>Sheet.14</title>
					<desc>Agent 1</desc>
					<g id="group15-26" v:mID="15" v:groupContext="group">
						<title>Sheet.15</title>
						<g id="shape16-27" v:mID="16" v:groupContext="shape">
							<title>Sheet.16</title>
							<rect x="0" y="332.008" width="90" height="45" class="st7"/>
						</g>
						<g id="shape17-29" v:mID="17" v:groupContext="shape" transform="translate(9,0)">
							<title>Sheet.17</title>
							<path d="M0 332.01 L0 377.01 L0 332.01 ZM72 332.01 L72 377.01 L72 332.01 Z" class="st2"/>
							<path d="M0 332.01 L0 377.01M72 332.01 L72 377.01" class="st8"/>
						</g>
					</g>
					<g id="shape14-32" v:mID="14" v:groupContext="groupContent">
						<v:textBlock v:margins="rect(0,0,0,0)" v:tabSpace="42.5197"/>
						<v:textRect cx="45" cy="354.508" width="90.01" height="45"/>
						<text x="27.63" y="357.51" class="st6" v:langID="1033"><v:paragraph v:horizAlign="1"/><v:tabList/>Agent 1</text>					</g>
				</g>
				<g id="shape19-34" v:mID="19" v:groupContext="shape" transform="translate(179.978,-172.5)">
					<title>Sheet.19</title>
					<path d="M0 362.01 L0.02 377.01 L0.02 362.01 L0.02 377.01 L0 362.01 Z" class="st2"/>
					<path d="M0 362.01 L0.02 377.01 L0.02 362.01 L0.02 377.01" class="st3"/>
				</g>
				<g id="group20-37" transform="translate(177.36,-68.34)" v:mID="20" v:groupContext="group">
					<title>Sheet.20</title>
					<g id="shape21-38" v:mID="21" v:groupContext="shape" transform="translate(2.625,-3.9375)">
						<title>Sheet.21</title>
						<path d="M149.99 239.29 L135.02 239.29 L135.02 366.79 L0.01 366.79 L0 377.01 L149.99 239.29 Z" class="st2"/>
						<path d="M149.99 239.29 L135.02 239.29 L135.02 366.79 L0.01 366.79 L0 377.01" class="st3"/>
					</g>
					<g id="shape22-41" v:mID="22" v:groupContext="shape">
						<title>Sheet.22</title>
						<path d="M2.62 377.01 L0 371.76 L2.62 373.07 L5.25 371.77 L2.62 377.01 Z" class="st4"/>
					</g>
				</g>
				<g id="shape23-43" v:mID="23" v:groupContext="shape" transform="translate(374.97,-172.5)">
					<title>Sheet.23</title>
					<path d="M0.03 362.01 L0.03 377.01 L0.03 362.01 L0 377.01 L0.03 362.01 Z" class="st2"/>
					<path d="M0.03 362.01 L0.03 377.01 L0.03 362.01 L0 377.01" class="st3"/>
				</g>
				<g id="group24-46" transform="translate(329.978,-187.5)" v:mID="24" v:groupContext="group">
					<title>Sheet.24</title>
					<desc>Agent n</desc>
					<g id="group25-47" v:mID="25" v:groupContext="group">
						<title>Sheet.25</title>
						<g id="shape26-48" v:mID="26" v:groupContext="shape">
							<title>Sheet.26</title>
							<rect x="0" y="332.008" width="90" height="45" class="st7"/>
						</g>
						<g id="shape27-50" v:mID="27" v:groupContext="shape" transform="translate(9,0)">
							<title>Sheet.27</title>
							<path d="M0 332.01 L0 377.01 L0 332.01 ZM72 332.01 L72 377.01 L72 332.01 Z" class="st2"/>
							<path d="M0 332.01 L0 377.01M72 332.01 L72 377.01" class="st8"/>
						</g>
					</g>
					<g id="shape24-53" v:mID="24" v:groupContext="groupContent">
						<v:textBlock v:margins="rect(0,0,0,0)" v:tabSpace="42.5197"/>
						<v:textRect cx="45" cy="354.508" width="90.01" height="45"/>
						<text x="27.49" y="357.51" class="st6" v:langID="1033"><v:paragraph v:horizAlign="1"/><v:tabList/>Agent n</text>					</g>
				</g>
				<g id="shape29-55" v:mID="29" v:groupContext="shape" transform="translate(179.977,-22.5)">
					<title>Sheet.29</title>
					<path d="M0 362.01 L0 377.01 L0 362.01 Z" class="st2"/>
					<path d="M0 362.01 L0 377.01" class="st3"/>
				</g>
				<g id="group30-58" transform="translate(146.227,-37.5)" v:mID="30" v:groupContext="group">
					<title>Sheet.30</title>
					<desc>Accumulating chat thread</desc>
					<g id="shape31-59" v:mID="31" v:groupContext="shape">
						<title>Sheet.31</title>
						<path d="M-0 372.51 A4.5001 4.5001 -180 0 0 4.5 377.01 L63 377.01 A4.5001 4.5001 -180 0 0 67.5 372.51 L67.5
									 351.51 A4.5001 4.5001 -180 0 0 63 347.01 L4.5 347.01 A4.5001 4.5001 -180 0 0 -0 351.51 L0 372.51
									 Z" class="st5"/>
					</g>
					<g id="shape30-61" v:mID="30" v:groupContext="groupContent">
						<v:textBlock v:margins="rect(0,0,0,0)" v:tabSpace="42.5197"/>
						<v:textRect cx="33.75" cy="362.008" width="67.5" height="30"/>
						<text x="6.53" y="359.31" class="st9" v:langID="1033"><v:paragraph v:horizAlign="1"/><v:tabList/>Accumulating <tspan
									x="11.15" dy="1.2em" class="st10">chat thread</tspan></text>					</g>
				</g>
				<g id="group33-64" transform="translate(142.522,-127.5)" v:mID="33" v:groupContext="group">
					<title>Sheet.33</title>
					<desc>Model and knowledge</desc>
					<g id="shape34-65" v:mID="34" v:groupContext="shape">
						<title>Sheet.34</title>
						<path d="M0 370.26 A6.75016 6.75016 -180 0 0 6.75 377.01 L68.23 377.01 A6.75016 6.75016 -180 0 0 74.98 370.26
									 L74.98 338.76 A6.75016 6.75016 -180 0 0 68.23 332.01 L6.75 332.01 A6.75016 6.75016 -180 0 0
									 0 338.76 L0 370.26 Z" class="st11"/>
					</g>
					<g id="shape33-67" v:mID="33" v:groupContext="groupContent">
						<v:textBlock v:margins="rect(0,0,0,0)" v:tabSpace="42.5197"/>
						<v:textRect cx="37.4888" cy="354.508" width="74.98" height="45"/>
						<text x="13.61" y="351.51" class="st6" v:langID="1033"><v:paragraph v:horizAlign="1"/><v:tabList/>Model and<v:newlineChar/><tspan
									x="13.3" dy="1.2em" class="st10">knowledge</tspan></text>					</g>
				</g>
				<g id="group36-70" transform="translate(337.485,-127.5)" v:mID="36" v:groupContext="group">
					<title>Sheet.36</title>
					<desc>Model and knowledge</desc>
					<g id="shape37-71" v:mID="37" v:groupContext="shape">
						<title>Sheet.37</title>
						<path d="M0 370.26 A6.75016 6.75016 -180 0 0 6.75 377.01 L68.23 377.01 A6.75016 6.75016 -180 0 0 74.98 370.26
									 L74.98 338.76 A6.75016 6.75016 -180 0 0 68.23 332.01 L6.75 332.01 A6.75016 6.75016 -180 0 0
									 0 338.76 L0 370.26 Z" class="st11"/>
					</g>
					<g id="shape36-73" v:mID="36" v:groupContext="groupContent">
						<v:textBlock v:margins="rect(0,0,0,0)" v:tabSpace="42.5197"/>
						<v:textRect cx="37.4888" cy="354.508" width="74.98" height="45"/>
						<text x="13.61" y="351.51" class="st6" v:langID="1033"><v:paragraph v:horizAlign="1"/><v:tabList/>Model and<v:newlineChar/><tspan
									x="13.3" dy="1.2em" class="st10">knowledge</tspan></text>					</g>
				</g>
				<g id="group39-76" transform="translate(57.375,-233.34)" v:mID="39" v:groupContext="group">
					<title>Sheet.39</title>
					<g id="shape40-77" v:mID="40" v:groupContext="shape" transform="translate(2.625,-3.9375)">
						<title>Sheet.40</title>
						<path d="M119.98 351.79 L120 366.79 L0 366.79 L0 377.01 L119.98 351.79 Z" class="st2"/>
						<path d="M119.98 351.79 L120 366.79 L0 366.79 L0 377.01" class="st3"/>
					</g>
					<g id="shape41-80" v:mID="41" v:groupContext="shape">
						<title>Sheet.41</title>
						<path d="M2.63 377.01 L0 371.76 L2.63 373.07 L5.25 371.76 L2.63 377.01 Z" class="st4"/>
					</g>
				</g>
				<g id="group42-82" transform="translate(179.977,-233.34)" v:mID="42" v:groupContext="group">
					<title>Sheet.42</title>
					<g id="shape43-83" v:mID="43" v:groupContext="shape" transform="translate(-1.00719E-12,-3.9375)">
						<title>Sheet.43</title>
						<path d="M0 351.79 L0.02 366.79 L195.02 366.79 L195.01 377.01 L0 351.79 Z" class="st2"/>
						<path d="M0 351.79 L0.02 366.79 L195.02 366.79 L195.01 377.01" class="st3"/>
					</g>
					<g id="shape44-86" v:mID="44" v:groupContext="shape" transform="translate(192.383,-5.68434E-14)">
						<title>Sheet.44</title>
						<path d="M2.62 377.01 L0 371.76 L2.62 373.07 L5.25 371.77 L2.62 377.01 Z" class="st4"/>
					</g>
				</g>
				<g id="group45-88" transform="translate(179.978,-233.34)" v:mID="45" v:groupContext="group">
					<title>Sheet.45</title>
					<g id="shape46-89" v:mID="46" v:groupContext="shape" transform="translate(0,-3.9375)">
						<title>Sheet.46</title>
						<path d="M0 351.79 L0.02 366.79 L97.52 366.79 L97.51 377.01 L0 351.79 Z" class="st2"/>
						<path d="M0 351.79 L0.02 366.79 L97.52 366.79 L97.51 377.01" class="st3"/>
					</g>
					<g id="shape47-92" v:mID="47" v:groupContext="shape" transform="translate(94.8825,-5.68434E-14)">
						<title>Sheet.47</title>
						<path d="M2.62 377.01 L0 371.76 L2.62 373.07 L5.25 371.77 L2.62 377.01 Z" class="st4"/>
					</g>
				</g>
				<g id="group48-94" transform="translate(177.352,-233.34)" v:mID="48" v:groupContext="group">
					<title>Sheet.48</title>
					<g id="shape49-95" v:mID="49" v:groupContext="shape" transform="translate(2.625,-3.9375)">
						<title>Sheet.49</title>
						<path d="M0 351.79 L0 377.01 L0 351.79 Z" class="st2"/>
						<path d="M0 351.79 L0 377.01" class="st3"/>
					</g>
					<g id="shape50-98" v:mID="50" v:groupContext="shape">
						<title>Sheet.50</title>
						<path d="M2.62 377.01 L0 371.76 L2.62 373.07 L5.25 371.76 L2.62 377.01 Z" class="st4"/>
					</g>
				</g>
				<g id="group51-100" transform="translate(214.568,-49.875)" v:mID="51" v:groupContext="group">
					<title>Sheet.51</title>
					<g id="shape52-101" v:mID="52" v:groupContext="shape" transform="translate(3.9375,-2.625)">
						<title>Sheet.52</title>
						<path d="M6.47 144.51 L216.49 144.51 L216.49 377.01 L0 377.01 L6.47 144.51 Z" class="st2"/>
						<path d="M6.47 144.51 L216.49 144.51 L216.49 377.01 L0 377.01" class="st3"/>
					</g>
					<g id="shape53-104" v:mID="53" v:groupContext="shape">
						<title>Sheet.53</title>
						<path d="M0 374.38 L5.25 371.76 L3.94 374.38 L5.25 377.01 L0 374.38 Z" class="st4"/>
					</g>
				</g>
				<g id="shape54-106" v:mID="54" v:groupContext="shape" transform="translate(104.978,-285)">
					<title>Sheet.54</title>
					<path d="M30 377.01 L0 377.01 L30 377.01 Z" class="st2"/>
					<path d="M30 377.01 L0 377.01" class="st3"/>
				</g>
				<g id="group55-109" transform="translate(134.977,-262.5)" v:mID="55" v:groupContext="group">
					<title>Sheet.55</title>
					<desc>Group chat manager</desc>
					<g id="group56-110" v:mID="56" v:groupContext="group">
						<title>Sheet.56</title>
						<g id="shape57-111" v:mID="57" v:groupContext="shape">
							<title>Sheet.57</title>
							<rect x="0" y="332.008" width="90" height="45" class="st7"/>
						</g>
						<g id="shape58-113" v:mID="58" v:groupContext="shape" transform="translate(9,0)">
							<title>Sheet.58</title>
							<path d="M0 332.01 L0 377.01 L0 332.01 ZM72 332.01 L72 377.01 L72 332.01 Z" class="st2"/>
							<path d="M0 332.01 L0 377.01M72 332.01 L72 377.01" class="st8"/>
						</g>
					</g>
					<g id="shape55-116" v:mID="55" v:groupContext="groupContent">
						<v:textBlock v:margins="rect(0,0,0,0)" v:tabSpace="42.5197"/>
						<v:textRect cx="45" cy="354.508" width="90.01" height="45"/>
						<text x="20.39" y="351.51" class="st6" v:langID="1033"><v:paragraph v:horizAlign="1"/><v:tabList/>Group chat <tspan
									x="25.48" dy="1.2em" class="st10">manager</tspan></text>					</g>
				</g>
				<g id="group60-119" transform="translate(214.568,-49.875)" v:mID="60" v:groupContext="group">
					<title>Sheet.60</title>
					<g id="shape61-120" v:mID="61" v:groupContext="shape" transform="translate(3.9375,-2.625)">
						<title>Sheet.61</title>
						<path d="M156.5 362.01 L156.5 377.01 L0 377.01 L156.5 362.01 Z" class="st2"/>
						<path d="M156.5 362.01 L156.5 377.01 L0 377.01" class="st3"/>
					</g>
					<g id="shape62-123" v:mID="62" v:groupContext="shape">
						<title>Sheet.62</title>
						<path d="M0 374.38 L5.25 371.76 L3.94 374.38 L5.25 377.01 L0 374.38 Z" class="st4"/>
					</g>
				</g>
				<g id="group63-125" transform="translate(329.978,-67.5)" v:mID="63" v:groupContext="group">
					<title>Sheet.63</title>
					<desc>Human chat participant or observer</desc>
					<g id="group64-126" v:mID="64" v:groupContext="group">
						<title>Sheet.64</title>
						<g id="shape65-127" v:mID="65" v:groupContext="shape">
							<title>Sheet.65</title>
							<rect x="0" y="332.008" width="90" height="45" class="st12"/>
						</g>
						<g id="shape66-129" v:mID="66" v:groupContext="shape" transform="translate(9,0)">
							<title>Sheet.66</title>
							<path d="M0 332.01 L0 377.01 L0 332.01 ZM72 332.01 L72 377.01 L72 332.01 Z" class="st2"/>
							<path d="M0 332.01 L0 377.01M72 332.01 L72 377.01" class="st13"/>
						</g>
					</g>
					<g id="shape63-132" v:mID="63" v:groupContext="groupContent">
						<v:textBlock v:margins="rect(0,0,0,0)" v:tabSpace="42.5197"/>
						<v:textRect cx="45" cy="354.508" width="90.01" height="45"/>
						<text x="20.87" y="346.41" class="st9" v:langID="1033"><v:paragraph v:horizAlign="1"/><v:tabList/>Human chat <tspan
									x="18.28" dy="1.2em" class="st10">participant or </tspan><tspan x="27.82" dy="1.2em"
									class="st10">observer</tspan></text>					</g>
				</g>
				<g id="group68-136" transform="translate(22.485,-127.5)" v:mID="68" v:groupContext="group">
					<title>Sheet.68</title>
					<desc>Model and knowledge</desc>
					<g id="shape69-137" v:mID="69" v:groupContext="shape">
						<title>Sheet.69</title>
						<path d="M0 370.26 A6.75016 6.75016 -180 0 0 6.75 377.01 L68.23 377.01 A6.75016 6.75016 -180 0 0 74.98 370.26
									 L74.98 338.76 A6.75016 6.75016 -180 0 0 68.23 332.01 L6.75 332.01 A6.75016 6.75016 -180 0 0
									 0 338.76 L0 370.26 Z" class="st11"/>
					</g>
					<g id="shape68-139" v:mID="68" v:groupContext="groupContent">
						<v:textBlock v:margins="rect(0,0,0,0)" v:tabSpace="42.5197"/>
						<v:textRect cx="37.4888" cy="354.508" width="74.98" height="45"/>
						<text x="13.61" y="351.51" class="st6" v:langID="1033"><v:paragraph v:horizAlign="1"/><v:tabList/>Model and<v:newlineChar/><tspan
									x="13.3" dy="1.2em" class="st10">knowledge</tspan></text>					</g>
				</g>
				<g id="group71-142" transform="translate(120,-68.34)" v:mID="71" v:groupContext="group">
					<title>Sheet.71</title>
					<g id="shape72-143" v:mID="72" v:groupContext="shape" transform="translate(-3.15747E-13,-3.9375)">
						<title>Sheet.72</title>
						<path d="M14.98 239.29 L0 239.29 L0 366.79 L60 366.79 L60 377.01 L14.98 239.29 Z" class="st2"/>
						<path d="M14.98 239.29 L0 239.29 L0 366.79 L60 366.79 L60 377.01" class="st3"/>
					</g>
					<g id="shape73-146" v:mID="73" v:groupContext="shape" transform="translate(57.375,0)">
						<title>Sheet.73</title>
						<path d="M2.63 377.01 L0 371.76 L2.63 373.07 L5.25 371.76 L2.63 377.01 Z" class="st4"/>
					</g>
				</g>
				<g id="group74-148" transform="translate(134.977,-187.5)" v:mID="74" v:groupContext="group">
					<title>Sheet.74</title>
					<desc>Agent 2</desc>
					<g id="group75-149" v:mID="75" v:groupContext="group">
						<title>Sheet.75</title>
						<g id="shape76-150" v:mID="76" v:groupContext="shape">
							<title>Sheet.76</title>
							<rect x="0" y="332.008" width="90" height="45" class="st7"/>
						</g>
						<g id="shape77-152" v:mID="77" v:groupContext="shape" transform="translate(9,0)">
							<title>Sheet.77</title>
							<path d="M0 332.01 L0 377.01 L0 332.01 ZM72 332.01 L72 377.01 L72 332.01 Z" class="st2"/>
							<path d="M0 332.01 L0 377.01M72 332.01 L72 377.01" class="st8"/>
						</g>
					</g>
					<g id="shape74-155" v:mID="74" v:groupContext="groupContent">
						<v:textBlock v:margins="rect(0,0,0,0)" v:tabSpace="42.5197"/>
						<v:textRect cx="45" cy="354.508" width="90.01" height="45"/>
						<text x="27.63" y="357.51" class="st6" v:langID="1033"><v:paragraph v:horizAlign="1"/><v:tabList/>Agent 2</text>					</g>
				</g>
				<g id="group79-157" transform="translate(177.36,-68.34)" v:mID="79" v:groupContext="group">
					<title>Sheet.79</title>
					<g id="shape80-158" v:mID="80" v:groupContext="shape" transform="translate(2.625,-3.9375)">
						<title>Sheet.80</title>
						<path d="M74.99 239.29 L60.02 239.29 L60.02 366.79 L0.01 366.79 L0 377.01 L74.99 239.29 Z" class="st2"/>
						<path d="M74.99 239.29 L60.02 239.29 L60.02 366.79 L0.01 366.79 L0 377.01" class="st3"/>
					</g>
					<g id="shape81-161" v:mID="81" v:groupContext="shape">
						<title>Sheet.81</title>
						<path d="M2.62 377.01 L0 371.76 L2.63 373.07 L5.25 371.77 L2.62 377.01 Z" class="st4"/>
					</g>
				</g>
				<g id="group82-163" transform="translate(254.978,-187.5)" v:mID="82" v:groupContext="group">
					<title>Sheet.82</title>
					<desc>...</desc>
					<g id="group83-164" v:mID="83" v:groupContext="group">
						<title>Sheet.83</title>
						<g id="shape84-165" v:mID="84" v:groupContext="shape">
							<title>Sheet.84</title>
							<rect x="0" y="332.008" width="45" height="45" class="st7"/>
						</g>
						<g id="shape85-167" v:mID="85" v:groupContext="shape" transform="translate(4.5,0)">
							<title>Sheet.85</title>
							<path d="M0 332.01 L0 377.01 L0 332.01 ZM36 332.01 L36 377.01 L36 332.01 Z" class="st2"/>
							<path d="M0 332.01 L0 377.01M36 332.01 L36 377.01" class="st8"/>
						</g>
					</g>
					<g id="shape82-170" v:mID="82" v:groupContext="groupContent">
						<v:textBlock v:margins="rect(0,0,0,0)" v:tabSpace="42.5197"/>
						<v:textRect cx="22.5" cy="354.508" width="45.01" height="45"/>
						<text x="18.6" y="358.11" class="st14" v:langID="2052"><v:paragraph v:horizAlign="1"/><v:tabList/>...</text>					</g>
				</g>
				<g id="group87-172" transform="translate(60,-262.5)" v:mID="87" v:groupContext="group">
					<title>Sheet.87</title>
					<desc>Model</desc>
					<g id="shape88-173" v:mID="88" v:groupContext="shape">
						<title>Sheet.88</title>
						<path d="M0 370.26 A6.75016 6.75016 -180 0 0 6.75 377.01 L38.23 377.01 A6.75016 6.75016 -180 0 0 44.98 370.26
									 L44.98 338.76 A6.75016 6.75016 -180 0 0 38.23 332.01 L6.75 332.01 A6.75016 6.75016 -180 0 0
									 -0 338.76 L0 370.26 Z" class="st11"/>
					</g>
					<g id="shape87-175" v:mID="87" v:groupContext="groupContent">
						<v:textBlock v:margins="rect(0,0,0,0)" v:tabSpace="42.5197"/>
						<v:textRect cx="22.4888" cy="354.508" width="44.98" height="45"/>
						<text x="8.3" y="357.51" class="st6" v:langID="1033"><v:paragraph v:horizAlign="1"/><v:tabList/>Mode<tspan
									class="st10" v:langID="2052">l</tspan></text>					</g>
				</g>
				<g id="group90-178" transform="translate(262.26,-12.18)" v:mID="90" v:groupContext="group">
					<title>Sheet.90</title>
					<desc>New group instructions based on accumulated context</desc>
					<g id="group91-179" v:mID="91" v:groupContext="group">
						<title>Sheet.91</title>
						<g id="shape92-180" v:mID="92" v:groupContext="shape" transform="translate(0.24,-2.82)">
							<title>Sheet.92</title>
							<rect x="0" y="342.508" width="105" height="34.5" class="st15"/>
						</g>
						<g id="shape93-182" v:mID="93" v:groupContext="shape" transform="translate(-5.35572E-13,-2.145)">
							<title>Sheet.93</title>
							<path d="M0.39 341.66 C0.39 341.66 0.39 341.66 0.39 341.66 ZM0.39 341.66 C0.39 341.66 0.39 341.66 0.39
										 341.66 ZM0.19 346.46 C0.07 345.71 1.41 345.43 4.13 341.93 L0.19 346.46 ZM0.19 346.46 C1.26
										 344.77 2.82 343.52 4.13 341.93 L0.19 346.46 ZM0 351.25 C2.92 346.42 3.34 344.29 8.36 341.63
										 L0 351.25 ZM0 351.25 C1.9 348.43 5.18 344.38 8.36 341.63 L0 351.25 ZM0.29 355.49 C3.16 350.86
										 5.48 345.39 12.11 341.9 L0.29 355.49 ZM0.29 355.49 C2.92 351.43 9.33 346.78 12.11 341.9
										 L0.29 355.49 ZM0.1 360.29 C4.47 354.46 9.21 348.87 16.34 341.61 L0.1 360.29 ZM0.1 360.29
										 C4.49 355.98 7.73 351.86 16.34 341.61 L0.1 360.29 ZM0.4 364.52 C7.97 356.77 13.25 347.59
										 20.08 341.88 L0.4 364.52 ZM0.4 364.52 C8.69 357.89 14.97 348.94 20.08 341.88 L0.4 364.52
										 ZM0.19 369.32 C7.76 359.83 18.59 348.88 24.31 341.59 L0.19 369.32 ZM0.19 369.32 C7.18 359.52
										 12.95 353.16 24.31 341.59 L0.19 369.32 ZM0 374.11 C7.52 364.56 20.81 352.97 28.05 341.86
										 L0 374.11 ZM0 374.11 C5.06 367.57 12.22 360.37 28.05 341.86 L0 374.11 ZM1.78 376.65 C10.13
										 364.22 19.37 356.56 32.28 341.56 L1.78 376.65 ZM1.78 376.65 C9.53 369.82 15.76 361.32 32.28
										 341.56 L1.78 376.65 ZM5.51 376.92 C13.87 363.82 24.41 355.69 36.02 341.83 L5.51 376.92 ZM5.51
										 376.92 C17 364.77 30.23 350.54 36.02 341.83 L5.51 376.92 ZM9.75 376.63 C20.32 365.98 33.68
										 350.96 39.77 342.1 L9.75 376.63 ZM9.75 376.63 C18.49 367.84 26.76 358.42 39.77 342.1 L9.75
										 376.63 ZM13.49 376.9 C22.15 368.82 29.98 353.94 44 341.8 L13.49 376.9 ZM13.49 376.9 C24.48
										 365.45 33.67 355.19 44 341.8 L13.49 376.9 ZM17.72 376.6 C24.08 367.66 35.99 359.59 47.74
										 342.07 L17.72 376.6 ZM17.72 376.6 C27.97 363.68 39.14 351.91 47.74 342.07 L17.72 376.6 ZM21.46
										 376.87 C31.22 361.78 43.55 352.75 51.97 341.77 L21.46 376.87 ZM21.46 376.87 C30.93 363.68
										 42.53 353.13 51.97 341.77 L21.46 376.87 ZM25.7 376.57 C38.17 361.11 46.94 351.22 55.71 342.04
										 L25.7 376.57 ZM25.7 376.57 C32.26 368.86 41.11 357.06 55.71 342.04 L25.7 376.57 ZM29.43
										 376.84 C36.75 366.48 52.04 356.56 59.94 341.75 L29.43 376.84 ZM29.43 376.84 C37.01 367.96
										 43.13 361.65 59.94 341.75 L29.43 376.84 ZM33.67 376.54 C43.67 364.82 51.8 355.09 63.68 342.02
										 L33.67 376.54 ZM33.67 376.54 C38.73 370.79 46.04 362.96 63.68 342.02 L33.67 376.54 ZM37.4
										 376.82 C46.2 369.23 57.44 357.19 67.91 341.72 L37.4 376.82 ZM37.4 376.82 C47.99 362.85 59.57
										 350.4 67.91 341.72 L37.4 376.82 ZM41.64 376.52 C51.93 366.48 54.17 360.37 71.66 341.99 L41.64
										 376.52 ZM41.64 376.52 C47.67 367.41 57.07 357.99 71.66 341.99 L41.64 376.52 ZM45.38 376.79
										 C53.08 369.95 62.78 358 75.89 341.7 L45.38 376.79 ZM45.38 376.79 C53.61 369.08 60.95 359.65
										 75.89 341.7 L45.38 376.79 ZM49.61 376.5 C57.06 363.81 70.5 354.57 79.63 341.97 L49.61 376.5
										 ZM49.61 376.5 C58.71 365.34 67.59 355.04 79.63 341.97 L49.61 376.5 ZM53.35 376.77 C62.6
										 365.65 74 355.3 83.86 341.67 L53.35 376.77 ZM53.35 376.77 C59.15 371.02 65.15 362.56 83.86
										 341.67 L53.35 376.77 ZM57.59 376.47 C66.75 363.04 76.93 352.99 87.6 341.94 L57.59 376.47
										 ZM57.59 376.47 C69.21 364.03 77.67 353.67 87.6 341.94 L57.59 376.47 ZM61.32 376.74 C69.11
										 365.62 77.09 356.61 91.83 341.65 L61.32 376.74 ZM61.32 376.74 C73.99 362.23 85.03 350.9
										 91.83 341.65 L61.32 376.74 ZM65.06 377.01 C72.49 363.12 81.63 356.87 95.57 341.92 L65.06
										 377.01 ZM65.06 377.01 C76.73 362.65 87.63 349.87 95.57 341.92 L65.06 377.01 ZM69.29 376.72
										 C81.56 365.6 87.9 356.75 99.8 341.62 L69.29 376.72 ZM69.29 376.72 C78.89 364.77 86.43 354.33
										 99.8 341.62 L69.29 376.72 ZM73.04 376.99 C78.96 369.77 87.57 362.32 103.55 341.89 L73.04
										 376.99 ZM73.04 376.99 C83.54 364.15 95.89 349.85 103.55 341.89 L73.04 376.99 ZM77.27 376.69
										 C86.66 366.37 96.14 354.53 105.32 344.42 L77.27 376.69 ZM77.27 376.69 C85.35 366.49 95.33
										 353.57 105.32 344.42 L77.27 376.69 ZM81.01 376.96 C87.47 369.31 93.68 364.27 105.61 348.66
										 L81.01 376.96 ZM81.01 376.96 C90.81 367.57 97.97 355.71 105.61 348.66 L81.01 376.96 ZM85.24
										 376.66 C88.64 373.63 95.55 367.88 105.41 353.45 L85.24 376.66 ZM85.24 376.66 C89.91 369.44
										 98.6 360.79 105.41 353.45 L85.24 376.66 ZM88.98 376.93 C94.84 371.51 100.41 363.61 105.22
										 358.25 L88.98 376.93 ZM88.98 376.93 C93.07 374.14 97.12 368.31 105.22 358.25 L88.98 376.93
										 ZM93.21 376.63 C96.05 373.96 98.84 372.26 105.52 362.49 L93.21 376.63 ZM93.21 376.63 C97.07
										 374.89 98.04 370.11 105.52 362.49 L93.21 376.63 ZM96.95 376.9 C99.18 374.92 101.69 370.72
										 105.32 367.28 L96.95 376.9 ZM96.95 376.9 C101.09 374.46 102.16 370.19 105.32 367.28 L96.95
										 376.9 ZM101.18 376.61 C102.23 375.04 103.55 373.04 105.62 371.52 L101.18 376.61 ZM101.18
										 376.61 C103.01 373.94 104.26 372.4 105.62 371.52 L101.18 376.61 Z" class="st2"/>
							<path d="M0.39 341.66 C0.39 341.66 0.39 341.66 0.39 341.66M0.39 341.66 C0.39 341.66 0.39 341.66 0.39
										 341.66M0.19 346.46 C0.07 345.71 1.41 345.43 4.13 341.93M0.19 346.46 C1.26 344.77 2.82 343.52
										 4.13 341.93M0 351.25 C2.92 346.42 3.34 344.29 8.36 341.63M0 351.25 C1.9 348.43 5.18 344.38
										 8.36 341.63M0.29 355.49 C3.16 350.86 5.48 345.39 12.11 341.9M0.29 355.49 C2.92 351.43 9.33
										 346.78 12.11 341.9M0.1 360.29 C4.47 354.46 9.21 348.87 16.34 341.61M0.1 360.29 C4.49 355.98
										 7.73 351.86 16.34 341.61M0.4 364.52 C7.97 356.77 13.25 347.59 20.08 341.88M0.4 364.52 C8.69
										 357.89 14.97 348.94 20.08 341.88M0.19 369.32 C7.76 359.83 18.59 348.88 24.31 341.59M0.19
										 369.32 C7.18 359.52 12.95 353.16 24.31 341.59M0 374.11 C7.52 364.56 20.81 352.97 28.05 341.86M0
										 374.11 C5.06 367.57 12.22 360.37 28.05 341.86M1.78 376.65 C10.13 364.22 19.37 356.56 32.28
										 341.56M1.78 376.65 C9.53 369.82 15.76 361.32 32.28 341.56M5.51 376.92 C13.87 363.82 24.41
										 355.69 36.02 341.83M5.51 376.92 C17 364.77 30.23 350.54 36.02 341.83M9.75 376.63 C20.32
										 365.98 33.68 350.96 39.77 342.1M9.75 376.63 C18.49 367.84 26.76 358.42 39.77 342.1M13.49
										 376.9 C22.15 368.82 29.98 353.94 44 341.8M13.49 376.9 C24.48 365.45 33.67 355.19 44 341.8M17.72
										 376.6 C24.08 367.66 35.99 359.59 47.74 342.07M17.72 376.6 C27.97 363.68 39.14 351.91 47.74
										 342.07M21.46 376.87 C31.22 361.78 43.55 352.75 51.97 341.77M21.46 376.87 C30.93 363.68 42.53
										 353.13 51.97 341.77M25.7 376.57 C38.17 361.11 46.94 351.22 55.71 342.04M25.7 376.57 C32.26
										 368.86 41.11 357.06 55.71 342.04M29.43 376.84 C36.75 366.48 52.04 356.56 59.94 341.75M29.43
										 376.84 C37.01 367.96 43.13 361.65 59.94 341.75M33.67 376.54 C43.67 364.82 51.8 355.09 63.68
										 342.02M33.67 376.54 C38.73 370.79 46.04 362.96 63.68 342.02M37.4 376.82 C46.2 369.23 57.44
										 357.19 67.91 341.72M37.4 376.82 C47.99 362.85 59.57 350.4 67.91 341.72M41.64 376.52 C51.93
										 366.48 54.17 360.37 71.66 341.99M41.64 376.52 C47.67 367.41 57.07 357.99 71.66 341.99M45.38
										 376.79 C53.08 369.95 62.78 358 75.89 341.7M45.38 376.79 C53.61 369.08 60.95 359.65 75.89
										 341.7M49.61 376.5 C57.06 363.81 70.5 354.57 79.63 341.97M49.61 376.5 C58.71 365.34 67.59
										 355.04 79.63 341.97M53.35 376.77 C62.6 365.65 74 355.3 83.86 341.67M53.35 376.77 C59.15
										 371.02 65.15 362.56 83.86 341.67M57.59 376.47 C66.75 363.04 76.93 352.99 87.6 341.94M57.59
										 376.47 C69.21 364.03 77.67 353.67 87.6 341.94M61.32 376.74 C69.11 365.62 77.09 356.61 91.83
										 341.65M61.32 376.74 C73.99 362.23 85.03 350.9 91.83 341.65M65.06 377.01 C72.49 363.12 81.63
										 356.87 95.57 341.92M65.06 377.01 C76.73 362.65 87.63 349.87 95.57 341.92M69.29 376.72 C81.56
										 365.6 87.9 356.75 99.8 341.62M69.29 376.72 C78.89 364.77 86.43 354.33 99.8 341.62M73.04
										 376.99 C78.96 369.77 87.57 362.32 103.55 341.89M73.04 376.99 C83.54 364.15 95.89 349.85
										 103.55 341.89M77.27 376.69 C86.66 366.37 96.14 354.53 105.32 344.42M77.27 376.69 C85.35
										 366.49 95.33 353.57 105.32 344.42M81.01 376.96 C87.47 369.31 93.68 364.27 105.61 348.66M81.01
										 376.96 C90.81 367.57 97.97 355.71 105.61 348.66M85.24 376.66 C88.64 373.63 95.55 367.88
										 105.41 353.45M85.24 376.66 C89.91 369.44 98.6 360.79 105.41 353.45M88.98 376.93 C94.84 371.51
										 100.41 363.61 105.22 358.25M88.98 376.93 C93.07 374.14 97.12 368.31 105.22 358.25M93.21
										 376.63 C96.05 373.96 98.84 372.26 105.52 362.49M93.21 376.63 C97.07 374.89 98.04 370.11
										 105.52 362.49M96.95 376.9 C99.18 374.92 101.69 370.72 105.32 367.28M96.95 376.9 C101.09
										 374.46 102.16 370.19 105.32 367.28M101.18 376.61 C102.23 375.04 103.55 373.04 105.62 371.52M101.18
										 376.61 C103.01 373.94 104.26 372.4 105.62 371.52" class="st16"/>
						</g>
						<g id="shape94-185" v:mID="94" v:groupContext="shape" transform="translate(0.2325,0)">
							<title>Sheet.94</title>
							<path d="M0.01 339.69 C36.32 339.13 70.82 342.53 105.01 339.69 L0.01 339.69 ZM0.01 339.69 C29.87 340.62
										 60.92 339.14 105.01 339.69 L0.01 339.69 ZM105.01 339.69 C107.84 356.03 102.54 365.3 105.01
										 374.19 L105.01 339.69 ZM105.01 339.69 C103.36 348.19 103.46 358.84 105.01 374.19 L105.01
										 339.69 ZM105.01 374.19 C67.76 376.97 32.54 375.59 0.01 374.19 L105.01 374.19 ZM105.01 374.19
										 C73.01 375.56 41.24 377.01 0.01 374.19 L105.01 374.19 ZM0.01 374.19 C0.34 368.2 0.54 358.62
										 0.01 339.69 L0.01 374.19 ZM0.01 374.19 C0 366.57 1.31 358.41 0.01 339.69 L0.01 374.19 Z"
									class="st2"/>
							<path d="M0.01 339.69 C36.32 339.13 70.82 342.53 105.01 339.69M0.01 339.69 C29.87 340.62 60.92 339.14
										 105.01 339.69M105.01 339.69 C107.84 356.03 102.54 365.3 105.01 374.19M105.01 339.69 C103.36
										 348.19 103.46 358.84 105.01 374.19M105.01 374.19 C67.76 376.97 32.54 375.59 0.01 374.19M105.01
										 374.19 C73.01 375.56 41.24 377.01 0.01 374.19M0.01 374.19 C0.34 368.2 0.54 358.62 0.01 339.69M0.01
										 374.19 C0 366.57 1.31 358.41 0.01 339.69" class="st17"/>
						</g>
					</g>
					<g id="shape90-188" v:mID="90" v:groupContext="groupContent">
						<v:textBlock v:margins="rect(0,0,0,0)" v:tabSpace="42.5197"/>
						<v:textRect cx="54.0375" cy="358.067" width="108.08" height="37.8825"/>
						<text x="12.75" y="350.87" class="st18" v:langID="1033"><v:paragraph v:horizAlign="1"/><v:tabList/>New group instructions <v:newlineChar/><tspan
									x="14.2" dy="1.2em" class="st10">based on accumulated <v:newlineChar/></tspan><tspan x="40.94"
									dy="1.2em" class="st10">context</tspan></text>					</g>
				</g>
				<g id="group96-192" transform="translate(157.477,0)" v:mID="96" v:groupContext="group">
					<title>Sheet.96</title>
					<desc>Result</desc>
					<g id="shape97-193" v:mID="97" v:groupContext="shape">
						<title>Sheet.97</title>
						<path d="M0 373.63 A3.37508 3.37508 -180 0 0 3.38 377.01 L41.63 377.01 A3.37508 3.37508 -180 0 0 45 373.63
									 L45 357.88 A3.37508 3.37508 -180 0 0 41.63 354.51 L3.38 354.51 A3.37508 3.37508 -180 0 0 -0
									 357.88 L0 373.63 Z" class="st5"/>
					</g>
					<g id="shape96-195" v:mID="96" v:groupContext="groupContent">
						<v:textBlock v:margins="rect(0,0,0,0)" v:tabSpace="42.5197"/>
						<v:textRect cx="22.5" cy="365.758" width="45.01" height="22.5"/>
						<text x="9.04" y="368.76" class="st6" v:langID="1033"><v:paragraph v:horizAlign="1"/><v:tabList/>Result</text>					</g>
				</g>
				<g id="group99-197" transform="translate(140.317,-83.8575)" v:mID="99" v:groupContext="group">
					<title>Sheet.99</title>
					<desc>Chat output from agents</desc>
					<g id="group100-198" v:mID="100" v:groupContext="group">
						<title>Sheet.100</title>
						<g id="shape101-199" v:mID="101" v:groupContext="shape" transform="translate(2.1825,-1.6425)">
							<title>Sheet.101</title>
							<rect x="0" y="350.008" width="75" height="27" class="st15"/>
						</g>
						<g id="shape102-201" v:mID="102" v:groupContext="shape" transform="translate(2.025,-1.215)">
							<title>Sheet.102</title>
							<path d="M0.1 349.65 C0.1 349.65 0.1 349.65 0.1 349.65 ZM0.1 349.65 C0.1 349.65 0.1 349.65 0.1 349.65
										 ZM0.4 353.88 C0.39 352.05 3.68 350.61 4.33 349.36 L0.4 353.88 ZM0.4 353.88 C1.04 352.52
										 2.9 351.22 4.33 349.36 L0.4 353.88 ZM0.2 358.68 C1.99 355.69 5.48 352.93 8.07 349.63 L0.2
										 358.68 ZM0.2 358.68 C2.39 355.49 4.43 352.53 8.07 349.63 L0.2 358.68 ZM0 363.48 C4.79 359.01
										 8.96 356.34 12.3 349.33 L0 363.48 ZM0 363.48 C3.53 359.03 5.87 354.68 12.3 349.33 L0 363.48
										 ZM0.3 367.71 C5.15 361.99 12.97 357.52 16.04 349.6 L0.3 367.71 ZM0.3 367.71 C3.5 363.93
										 8.42 355.96 16.04 349.6 L0.3 367.71 ZM0.11 372.51 C5.13 369.31 10.66 361.73 20.27 349.3
										 L0.11 372.51 ZM0.11 372.51 C4.04 366.88 10.35 361.18 20.27 349.3 L0.11 372.51 ZM0.4 376.74
										 C4.64 371.56 13.4 362.32 24.02 349.57 L0.4 376.74 ZM0.4 376.74 C6.93 370.01 14.59 360.46
										 24.02 349.57 L0.4 376.74 ZM4.14 377.01 C14.57 366.05 23.34 356.65 27.76 349.84 L4.14 377.01
										 ZM4.14 377.01 C10.92 366.46 19.49 358.11 27.76 349.84 L4.14 377.01 ZM8.37 376.72 C19.82
										 366.62 27.72 353.8 31.99 349.54 L8.37 376.72 ZM8.37 376.72 C14.99 367.45 23.69 361.5 31.99
										 349.54 L8.37 376.72 ZM12.11 376.99 C19.79 368.35 24.92 364.96 35.73 349.81 L12.11 376.99
										 ZM12.11 376.99 C22.28 367.84 28.49 355.99 35.73 349.81 L12.11 376.99 ZM16.34 376.69 C21.81
										 371.27 29.4 366.97 39.96 349.52 L16.34 376.69 ZM16.34 376.69 C24.95 367.03 34.82 355.42
										 39.96 349.52 L16.34 376.69 ZM20.09 376.96 C27.56 370.69 33.16 362.31 43.7 349.79 L20.09
										 376.96 ZM20.09 376.96 C28.09 369.66 33.17 362.73 43.7 349.79 L20.09 376.96 ZM24.32 376.66
										 C28.82 372.28 33.72 365.92 47.93 349.49 L24.32 376.66 ZM24.32 376.66 C33.81 367.36 40.49
										 358.12 47.93 349.49 L24.32 376.66 ZM28.06 376.93 C36.83 364.78 45.47 353.93 51.68 349.76
										 L28.06 376.93 ZM28.06 376.93 C33.34 370.75 41.63 361.28 51.68 349.76 L28.06 376.93 ZM32.29
										 376.64 C39.86 365.54 49.01 355.45 55.91 349.47 L32.29 376.64 ZM32.29 376.64 C36.56 368.84
										 44.24 364.19 55.91 349.47 L32.29 376.64 ZM36.03 376.91 C47.97 365.02 53.59 357.93 59.65
										 349.74 L36.03 376.91 ZM36.03 376.91 C42.09 369.04 47.93 362.81 59.65 349.74 L36.03 376.91
										 ZM40.26 376.61 C48.25 373.45 52.73 362.98 63.88 349.44 L40.26 376.61 ZM40.26 376.61 C46.76
										 370.26 52.52 360.85 63.88 349.44 L40.26 376.61 ZM44 376.88 C50.69 369.12 51.69 367.54 67.62
										 349.71 L44 376.88 ZM44 376.88 C52.69 366.94 60.8 359.25 67.62 349.71 L44 376.88 ZM48.23
										 376.59 C60.09 368.66 68.48 353.8 71.85 349.42 L48.23 376.59 ZM48.23 376.59 C56.57 368.47
										 61.37 359.56 71.85 349.42 L48.23 376.59 ZM51.98 376.86 C60.38 367.84 71.46 355.49 75.59
										 349.69 L51.98 376.86 ZM51.98 376.86 C59.1 368.35 70.24 358.75 75.59 349.69 L51.98 376.86
										 ZM56.21 376.56 C63.71 366.73 68.6 361.57 75.4 354.49 L56.21 376.56 ZM56.21 376.56 C60.54
										 370.96 67.25 363.16 75.4 354.49 L56.21 376.56 ZM59.95 376.83 C67.26 371.86 66.97 365.1 75.69
										 358.72 L59.95 376.83 ZM59.95 376.83 C65.87 370.21 70.13 363.24 75.69 358.72 L59.95 376.83
										 ZM64.18 376.54 C67.04 371.81 73.61 364.67 75.5 363.52 L64.18 376.54 ZM64.18 376.54 C66.41
										 370.82 71.27 368.12 75.5 363.52 L64.18 376.54 ZM67.92 376.81 C71.78 375.73 71.73 370.12
										 75.3 368.32 L67.92 376.81 ZM67.92 376.81 C69.47 374.89 71.71 372.1 75.3 368.32 L67.92 376.81
										 ZM72.15 376.51 C74.11 374.07 74.3 373.37 75.59 372.55 L72.15 376.51 ZM72.15 376.51 C73 374.62
										 74.84 373.58 75.59 372.55 L72.15 376.51 Z" class="st2"/>
							<path d="M0.1 349.65 C0.1 349.65 0.1 349.65 0.1 349.65M0.1 349.65 C0.1 349.65 0.1 349.65 0.1 349.65M0.4
										 353.88 C0.39 352.05 3.68 350.61 4.33 349.36M0.4 353.88 C1.04 352.52 2.9 351.22 4.33 349.36M0.2
										 358.68 C1.99 355.69 5.48 352.93 8.07 349.63M0.2 358.68 C2.39 355.49 4.43 352.53 8.07 349.63M0
										 363.48 C4.79 359.01 8.96 356.34 12.3 349.33M0 363.48 C3.53 359.03 5.87 354.68 12.3 349.33M0.3
										 367.71 C5.15 361.99 12.97 357.52 16.04 349.6M0.3 367.71 C3.5 363.93 8.42 355.96 16.04 349.6M0.11
										 372.51 C5.13 369.31 10.66 361.73 20.27 349.3M0.11 372.51 C4.04 366.88 10.35 361.18 20.27
										 349.3M0.4 376.74 C4.64 371.56 13.4 362.32 24.02 349.57M0.4 376.74 C6.93 370.01 14.59 360.46
										 24.02 349.57M4.14 377.01 C14.57 366.05 23.34 356.65 27.76 349.84M4.14 377.01 C10.92 366.46
										 19.49 358.11 27.76 349.84M8.37 376.72 C19.82 366.62 27.72 353.8 31.99 349.54M8.37 376.72
										 C14.99 367.45 23.69 361.5 31.99 349.54M12.11 376.99 C19.79 368.35 24.92 364.96 35.73 349.81M12.11
										 376.99 C22.28 367.84 28.49 355.99 35.73 349.81M16.34 376.69 C21.81 371.27 29.4 366.97 39.96
										 349.52M16.34 376.69 C24.95 367.03 34.82 355.42 39.96 349.52M20.09 376.96 C27.56 370.69 33.16
										 362.31 43.7 349.79M20.09 376.96 C28.09 369.66 33.17 362.73 43.7 349.79M24.32 376.66 C28.82
										 372.28 33.72 365.92 47.93 349.49M24.32 376.66 C33.81 367.36 40.49 358.12 47.93 349.49M28.06
										 376.93 C36.83 364.78 45.47 353.93 51.68 349.76M28.06 376.93 C33.34 370.75 41.63 361.28 51.68
										 349.76M32.29 376.64 C39.86 365.54 49.01 355.45 55.91 349.47M32.29 376.64 C36.56 368.84 44.24
										 364.19 55.91 349.47M36.03 376.91 C47.97 365.02 53.59 357.93 59.65 349.74M36.03 376.91 C42.09
										 369.04 47.93 362.81 59.65 349.74M40.26 376.61 C48.25 373.45 52.73 362.98 63.88 349.44M40.26
										 376.61 C46.76 370.26 52.52 360.85 63.88 349.44M44 376.88 C50.69 369.12 51.69 367.54 67.62
										 349.71M44 376.88 C52.69 366.94 60.8 359.25 67.62 349.71M48.23 376.59 C60.09 368.66 68.48
										 353.8 71.85 349.42M48.23 376.59 C56.57 368.47 61.37 359.56 71.85 349.42M51.98 376.86 C60.38
										 367.84 71.46 355.49 75.59 349.69M51.98 376.86 C59.1 368.35 70.24 358.75 75.59 349.69M56.21
										 376.56 C63.71 366.73 68.6 361.57 75.4 354.49M56.21 376.56 C60.54 370.96 67.25 363.16 75.4
										 354.49M59.95 376.83 C67.26 371.86 66.97 365.1 75.69 358.72M59.95 376.83 C65.87 370.21 70.13
										 363.24 75.69 358.72M64.18 376.54 C67.04 371.81 73.61 364.67 75.5 363.52M64.18 376.54 C66.41
										 370.82 71.27 368.12 75.5 363.52M67.92 376.81 C71.78 375.73 71.73 370.12 75.3 368.32M67.92
										 376.81 C69.47 374.89 71.71 372.1 75.3 368.32M72.15 376.51 C74.11 374.07 74.3 373.37 75.59
										 372.55M72.15 376.51 C73 374.62 74.84 373.58 75.59 372.55" class="st16"/>
						</g>
						<g id="shape103-204" v:mID="103" v:groupContext="shape">
							<title>Sheet.103</title>
							<path d="M2.18 348.37 C25.85 347.95 53.81 344.76 77.18 348.37 L2.18 348.37 ZM2.18 348.37 C27.1 347.44
										 52.07 348.31 77.18 348.37 L2.18 348.37 ZM77.18 348.37 C74.76 359.3 78.88 367.69 77.18 375.37
										 L77.18 348.37 ZM77.18 348.37 C77.74 356.98 78.14 364.69 77.18 375.37 L77.18 348.37 ZM77.18
										 375.37 C61.51 373.68 40.1 373.81 2.18 375.37 L77.18 375.37 ZM77.18 375.37 C59.67 375.22
										 43.04 377.01 2.18 375.37 L77.18 375.37 ZM2.18 375.37 C1.39 367.85 0 357.26 2.18 348.37 L2.18
										 375.37 ZM2.18 375.37 C3.03 367.14 3.84 358.6 2.18 348.37 L2.18 375.37 Z" class="st2"/>
							<path d="M2.18 348.37 C25.85 347.95 53.81 344.76 77.18 348.37M2.18 348.37 C27.1 347.44 52.07 348.31 77.18
										 348.37M77.18 348.37 C74.76 359.3 78.88 367.69 77.18 375.37M77.18 348.37 C77.74 356.98 78.14
										 364.69 77.18 375.37M77.18 375.37 C61.51 373.68 40.1 373.81 2.18 375.37M77.18 375.37 C59.67
										 375.22 43.04 377.01 2.18 375.37M2.18 375.37 C1.39 367.85 0 357.26 2.18 348.37M2.18 375.37
										 C3.03 367.14 3.84 358.6 2.18 348.37" class="st17"/>
						</g>
					</g>
					<g id="shape99-207" v:mID="99" v:groupContext="groupContent">
						<v:textBlock v:margins="rect(0,0,0,0)" v:tabSpace="42.5197"/>
						<v:textRect cx="39.4388" cy="360.883" width="78.88" height="32.25"/>
						<text x="4.92" y="358.18" class="st9" v:langID="1033"><v:paragraph v:horizAlign="1"/><v:tabList/>Chat output from <tspan
									x="26.17" dy="1.2em" class="st10">agents</tspan></text>					</g>
				</g>
			</g>
		</g>
	</g>
</svg>
