<?xml version="1.0" encoding="UTF-8" standalone="no"?>
<!DOCTYPE svg PUBLIC "-//W3C//DTD SVG 1.1//EN" "http://www.w3.org/Graphics/SVG/1.1/DTD/svg11.dtd">
<!-- Generated by Microsoft Visio, SVG Export group-chat-pattern.svg Page-1 -->
<svg xmlns="http://www.w3.org/2000/svg" xmlns:xlink="http://www.w3.org/1999/xlink" xmlns:ev="http://www.w3.org/2001/xml-events"
		xmlns:v="http://schemas.microsoft.com/visio/2003/SVGExtensions/" width="7.15625in" height="5.75in" viewBox="0 0 515.25 414"
		xml:space="preserve" color-interpolation-filters="sRGB" class="st19">
	<v:documentProperties v:langID="2052" v:metric="true" v:viewMarkup="false">
		<v:userDefs>
			<v:ud v:nameU="msvSubprocessMaster" v:prompt="" v:val="VT4(Rectangle)"/>
			<v:ud v:nameU="msvNoAutoConnect" v:val="VT0(1):26"/>
		</v:userDefs>
	</v:documentProperties>

	<style type="text/css">
	<![CDATA[
		.st1 {fill:#ffffff;stroke:none;stroke-linecap:butt;stroke-width:0.75}
		.st2 {fill:none}
		.st3 {stroke:#000000;stroke-linecap:butt;stroke-width:0.75}
		.st4 {fill:#000000;stroke:#000000;stroke-linecap:butt;stroke-width:0.75}
		.st5 {fill:#ffffff;stroke:#000000;stroke-linecap:butt;stroke-width:0.75}
		.st6 {fill:#000000;font-family:Segoe UI;font-size:0.833336em}
		.st7 {fill:#dae8fc;stroke:#6c8ebf;stroke-linecap:butt;stroke-width:0.75}
		.st8 {stroke:#6c8ebf;stroke-linecap:butt;stroke-width:0.75}
		.st9 {fill:#000000;font-family:Segoe UI;font-size:0.75em}
		.st10 {font-size:1em}
		.st11 {fill:#fff2cc;stroke:#d6b656;stroke-linecap:butt;stroke-width:0.75}
		.st12 {fill:#f5f5f5;stroke:#666666;stroke-linecap:butt;stroke-width:0.75}
		.st13 {stroke:#666666;stroke-linecap:butt;stroke-width:0.75}
		.st14 {fill:#000000;font-family:Segoe UI;font-size:1.00001em}
		.st15 {fill:none;stroke:none;stroke-linecap:butt;stroke-width:0.75}
		.st16 {stroke:#e6e6e6;stroke-linecap:round;stroke-linejoin:round;stroke-width:0.375}
		.st17 {stroke:#666666;stroke-linecap:round;stroke-linejoin:round;stroke-width:0.75}
		.st18 {fill:#000000;font-family:Segoe UI;font-size:0.666664em}
		.st19 {fill:none;fill-rule:evenodd;font-size:12px;overflow:visible;stroke-linecap:square;stroke-miterlimit:3}
	]]>
	</style>

	<g v:mID="0" v:index="1" v:groupContext="foregroundPage">
		<v:userDefs>
			<v:ud v:nameU="msvThemeOrder" v:val="VT0(0):26"/>
		</v:userDefs>
		<title>页-1</title>
		<v:pageProperties v:drawingScale="0.0393701" v:pageScale="0.0393701" v:drawingUnits="24" v:shadowOffsetX="9"
				v:shadowOffsetY="-9"/>
		<g id="group1-1" transform="translate(18.75,-18.75)" v:mID="1" v:groupContext="group">
			<title>Sheet.1</title>
			<g id="shape2-2" v:mID="2" v:groupContext="shape">
				<title>Sheet.2</title>
				<rect x="0" y="37.5" width="477.75" height="376.5" class="st1"/>
			</g>
			<g id="group3-4" transform="translate(20.25,-16.5)" v:mID="3" v:groupContext="group">
				<title>Sheet.3</title>
				<g id="group4-5" transform="translate(177.375,-307.5)" v:mID="4" v:groupContext="group">
					<title>Sheet.4</title>
					<g id="shape5-6" v:mID="5" v:groupContext="shape" transform="translate(2.625,1.13687E-13)">
						<title>Sheet.5</title>
						<path d="M0 399 L0 414 L0 399 L0 409.22 L0 399 Z" class="st2"/>
						<path d="M0 399 L0 414 L0 399 L0 409.22" class="st3"/>
					</g>
					<g id="shape6-9" v:mID="6" v:groupContext="shape" transform="translate(-6.59472E-14,-0.84)">
						<title>Sheet.6</title>
						<path d="M2.62 414 L0 408.75 L2.62 410.06 L5.25 408.75 L2.62 414 Z" class="st4"/>
					</g>
				</g>
				<g id="group7-11" transform="translate(157.477,-322.5)" v:mID="7" v:groupContext="group">
					<title>Sheet.7</title>
					<desc>Input</desc>
					<g id="shape8-12" v:mID="8" v:groupContext="shape">
						<title>Sheet.8</title>
						<path d="M0 410.62 A3.37508 3.37508 -180 0 0 3.37 414 L41.63 414 A3.37508 3.37508 -180 0 0 45 410.62 L45
									 394.87 A3.37508 3.37508 -180 0 0 41.63 391.5 L3.37 391.5 A3.37508 3.37508 -180 0 0 0 394.87
									 L0 410.62 Z" class="st5"/>
					</g>
					<g id="shape7-14" v:mID="7" v:groupContext="groupContent">
						<v:textBlock v:margins="rect(0,0,0,0)" v:tabSpace="42.5197"/>
						<v:textRect cx="22.5" cy="402.75" width="45.01" height="22.5"/>
						<text x="10.88" y="405.75" class="st6" v:langID="1033"><v:paragraph v:horizAlign="1"/><v:tabList/>Input</text>					</g>
				</g>
				<g id="shape10-16" v:mID="10" v:groupContext="shape" transform="translate(60,-172.5)">
					<title>Sheet.10</title>
					<path d="M0 399 L0 414 L0 399 L0 414 L0 399 Z" class="st2"/>
					<path d="M0 399 L0 414 L0 399 L0 414" class="st3"/>
				</g>
				<g id="group11-19" transform="translate(1.29496E-12,-68.34)" v:mID="11" v:groupContext="group">
					<title>Sheet.11</title>
					<g id="shape12-20" v:mID="12" v:groupContext="shape" transform="translate(2.15827E-12,-3.9375)">
						<title>Sheet.12</title>
						<path d="M14.98 276.28 L0 276.28 L0 403.78 L180 403.78 L179.99 414 L14.98 276.28 Z" class="st2"/>
						<path d="M14.98 276.28 L0 276.28 L0 403.78 L180 403.78 L179.99 414" class="st3"/>
					</g>
					<g id="shape13-23" v:mID="13" v:groupContext="shape" transform="translate(177.36,1.13687E-13)">
						<title>Sheet.13</title>
						<path d="M2.62 414 L0 408.75 L2.63 410.06 L5.25 408.76 L2.62 414 Z" class="st4"/>
					</g>
				</g>
				<g id="group14-25" transform="translate(14.9775,-187.5)" v:mID="14" v:groupContext="group">
					<title>Sheet.14</title>
					<desc>Agent 1</desc>
					<g id="group15-26" v:mID="15" v:groupContext="group">
						<title>Sheet.15</title>
						<g id="shape16-27" v:mID="16" v:groupContext="shape">
							<title>Sheet.16</title>
							<rect x="0" y="369" width="90" height="45" class="st7"/>
						</g>
						<g id="shape17-29" v:mID="17" v:groupContext="shape" transform="translate(9,-6.82121E-13)">
							<title>Sheet.17</title>
							<path d="M0 369 L0 414 L0 369 ZM72 369 L72 414 L72 369 Z" class="st2"/>
							<path d="M0 369 L0 414M72 369 L72 414" class="st8"/>
						</g>
					</g>
					<g id="shape14-32" v:mID="14" v:groupContext="groupContent">
						<v:textBlock v:margins="rect(0,0,0,0)" v:tabSpace="42.5197"/>
						<v:textRect cx="45" cy="391.5" width="90.01" height="45"/>
						<text x="27.63" y="394.5" class="st6" v:langID="1033"><v:paragraph v:horizAlign="1"/><v:tabList/>Agent 1</text>					</g>
				</g>
				<g id="shape19-34" v:mID="19" v:groupContext="shape" transform="translate(179.978,-172.5)">
					<title>Sheet.19</title>
					<path d="M0 399 L0.02 414 L0.02 399 L0.02 414 L0 399 Z" class="st2"/>
					<path d="M0 399 L0.02 414 L0.02 399 L0.02 414" class="st3"/>
				</g>
				<g id="group20-37" transform="translate(177.36,-68.34)" v:mID="20" v:groupContext="group">
					<title>Sheet.20</title>
					<g id="shape21-38" v:mID="21" v:groupContext="shape" transform="translate(2.625,-3.9375)">
						<title>Sheet.21</title>
						<path d="M149.99 276.28 L135.02 276.28 L135.02 403.78 L0.01 403.78 L0 414 L149.99 276.28 Z" class="st2"/>
						<path d="M149.99 276.28 L135.02 276.28 L135.02 403.78 L0.01 403.78 L0 414" class="st3"/>
					</g>
					<g id="shape22-41" v:mID="22" v:groupContext="shape">
						<title>Sheet.22</title>
						<path d="M2.62 414 L0 408.75 L2.62 410.06 L5.25 408.76 L2.62 414 Z" class="st4"/>
					</g>
				</g>
				<g id="shape23-43" v:mID="23" v:groupContext="shape" transform="translate(374.97,-172.5)">
					<title>Sheet.23</title>
					<path d="M0.03 399 L0.03 414 L0.03 399 L0 414 L0.03 399 Z" class="st2"/>
					<path d="M0.03 399 L0.03 414 L0.03 399 L0 414" class="st3"/>
				</g>
				<g id="group24-46" transform="translate(329.978,-187.5)" v:mID="24" v:groupContext="group">
					<title>Sheet.24</title>
					<desc>Agent n</desc>
					<g id="group25-47" v:mID="25" v:groupContext="group">
						<title>Sheet.25</title>
						<g id="shape26-48" v:mID="26" v:groupContext="shape">
							<title>Sheet.26</title>
							<rect x="0" y="369" width="90" height="45" class="st7"/>
						</g>
						<g id="shape27-50" v:mID="27" v:groupContext="shape" transform="translate(9,-6.82121E-13)">
							<title>Sheet.27</title>
							<path d="M0 369 L0 414 L0 369 ZM72 369 L72 414 L72 369 Z" class="st2"/>
							<path d="M0 369 L0 414M72 369 L72 414" class="st8"/>
						</g>
					</g>
					<g id="shape24-53" v:mID="24" v:groupContext="groupContent">
						<v:textBlock v:margins="rect(0,0,0,0)" v:tabSpace="42.5197"/>
						<v:textRect cx="45" cy="391.5" width="90.01" height="45"/>
						<text x="27.49" y="394.5" class="st6" v:langID="1033"><v:paragraph v:horizAlign="1"/><v:tabList/>Agent n</text>					</g>
				</g>
				<g id="shape29-55" v:mID="29" v:groupContext="shape" transform="translate(179.977,-22.5)">
					<title>Sheet.29</title>
					<path d="M0 399 L0 414 L0 399 Z" class="st2"/>
					<path d="M0 399 L0 414" class="st3"/>
				</g>
				<g id="group30-58" transform="translate(146.227,-37.5)" v:mID="30" v:groupContext="group">
					<title>Sheet.30</title>
					<desc>Accumulating chat thread</desc>
					<g id="shape31-59" v:mID="31" v:groupContext="shape">
						<title>Sheet.31</title>
						<path d="M-0 409.5 A4.5001 4.5001 -180 0 0 4.5 414 L63 414 A4.5001 4.5001 -180 0 0 67.5 409.5 L67.5 388.5
									 A4.5001 4.5001 -180 0 0 63 384 L4.5 384 A4.5001 4.5001 -180 0 0 -0 388.5 L0 409.5 Z"
								class="st5"/>
					</g>
					<g id="shape30-61" v:mID="30" v:groupContext="groupContent">
						<v:textBlock v:margins="rect(0,0,0,0)" v:tabSpace="42.5197"/>
						<v:textRect cx="33.75" cy="399" width="67.5" height="30"/>
						<text x="6.53" y="396.3" class="st9" v:langID="1033"><v:paragraph v:horizAlign="1"/><v:tabList/>Accumulating <tspan
									x="11.15" dy="1.2em" class="st10">chat thread</tspan></text>					</g>
				</g>
				<g id="group33-64" transform="translate(142.522,-127.5)" v:mID="33" v:groupContext="group">
					<title>Sheet.33</title>
					<desc>Model and knowledge</desc>
					<g id="shape34-65" v:mID="34" v:groupContext="shape">
						<title>Sheet.34</title>
						<path d="M0 407.25 A6.75016 6.75016 -180 0 0 6.75 414 L68.23 414 A6.75016 6.75016 -180 0 0 74.98 407.25 L74.98
									 375.75 A6.75016 6.75016 -180 0 0 68.23 369 L6.75 369 A6.75016 6.75016 -180 0 0 -0 375.75 L0
									 407.25 Z" class="st11"/>
					</g>
					<g id="shape33-67" v:mID="33" v:groupContext="groupContent">
						<v:textBlock v:margins="rect(0,0,0,0)" v:tabSpace="42.5197"/>
						<v:textRect cx="37.4888" cy="391.5" width="74.98" height="45"/>
						<text x="13.61" y="388.5" class="st6" v:langID="1033"><v:paragraph v:horizAlign="1"/><v:tabList/>Model and<v:newlineChar/><tspan
									x="13.3" dy="1.2em" class="st10">knowledge</tspan></text>					</g>
				</g>
				<g id="group36-70" transform="translate(337.485,-127.5)" v:mID="36" v:groupContext="group">
					<title>Sheet.36</title>
					<desc>Model and knowledge</desc>
					<g id="shape37-71" v:mID="37" v:groupContext="shape">
						<title>Sheet.37</title>
						<path d="M0 407.25 A6.75016 6.75016 -180 0 0 6.75 414 L68.23 414 A6.75016 6.75016 -180 0 0 74.98 407.25 L74.98
									 375.75 A6.75016 6.75016 -180 0 0 68.23 369 L6.75 369 A6.75016 6.75016 -180 0 0 0 375.75 L0 407.25
									 Z" class="st11"/>
					</g>
					<g id="shape36-73" v:mID="36" v:groupContext="groupContent">
						<v:textBlock v:margins="rect(0,0,0,0)" v:tabSpace="42.5197"/>
						<v:textRect cx="37.4888" cy="391.5" width="74.98" height="45"/>
						<text x="13.61" y="388.5" class="st6" v:langID="1033"><v:paragraph v:horizAlign="1"/><v:tabList/>Model and<v:newlineChar/><tspan
									x="13.3" dy="1.2em" class="st10">knowledge</tspan></text>					</g>
				</g>
				<g id="group39-76" transform="translate(57.375,-233.34)" v:mID="39" v:groupContext="group">
					<title>Sheet.39</title>
					<g id="shape40-77" v:mID="40" v:groupContext="shape" transform="translate(2.625,-3.9375)">
						<title>Sheet.40</title>
						<path d="M119.98 388.78 L120 403.78 L0 403.78 L0 414 L119.98 388.78 Z" class="st2"/>
						<path d="M119.98 388.78 L120 403.78 L0 403.78 L0 414" class="st3"/>
					</g>
					<g id="shape41-80" v:mID="41" v:groupContext="shape">
						<title>Sheet.41</title>
						<path d="M2.63 414 L0 408.75 L2.63 410.06 L5.25 408.75 L2.63 414 Z" class="st4"/>
					</g>
				</g>
				<g id="group42-82" transform="translate(179.977,-233.34)" v:mID="42" v:groupContext="group">
					<title>Sheet.42</title>
					<g id="shape43-83" v:mID="43" v:groupContext="shape" transform="translate(4.31655E-13,-3.9375)">
						<title>Sheet.43</title>
						<path d="M0 388.78 L0.02 403.78 L195.02 403.78 L195.01 414 L0 388.78 Z" class="st2"/>
						<path d="M0 388.78 L0.02 403.78 L195.02 403.78 L195.01 414" class="st3"/>
					</g>
					<g id="shape44-86" v:mID="44" v:groupContext="shape" transform="translate(192.383,0)">
						<title>Sheet.44</title>
						<path d="M2.62 414 L0 408.75 L2.62 410.06 L5.25 408.76 L2.62 414 Z" class="st4"/>
					</g>
				</g>
				<g id="group45-88" transform="translate(179.978,-233.34)" v:mID="45" v:groupContext="group">
					<title>Sheet.45</title>
					<g id="shape46-89" v:mID="46" v:groupContext="shape" transform="translate(-6.63469E-13,-3.9375)">
						<title>Sheet.46</title>
						<path d="M0 388.78 L0.02 403.78 L97.52 403.78 L97.51 414 L0 388.78 Z" class="st2"/>
						<path d="M0 388.78 L0.02 403.78 L97.52 403.78 L97.51 414" class="st3"/>
					</g>
					<g id="shape47-92" v:mID="47" v:groupContext="shape" transform="translate(94.8825,0)">
						<title>Sheet.47</title>
						<path d="M2.62 414 L0 408.75 L2.62 410.06 L5.25 408.76 L2.62 414 Z" class="st4"/>
					</g>
				</g>
				<g id="group48-94" transform="translate(177.352,-233.34)" v:mID="48" v:groupContext="group">
					<title>Sheet.48</title>
					<g id="shape49-95" v:mID="49" v:groupContext="shape" transform="translate(2.625,-3.9375)">
						<title>Sheet.49</title>
						<path d="M0 388.78 L0 414 L0 388.78 Z" class="st2"/>
						<path d="M0 388.78 L0 414" class="st3"/>
					</g>
					<g id="shape50-98" v:mID="50" v:groupContext="shape">
						<title>Sheet.50</title>
						<path d="M2.62 414 L0 408.75 L2.62 410.06 L5.25 408.75 L2.62 414 Z" class="st4"/>
					</g>
				</g>
				<g id="group51-100" transform="translate(214.568,-49.875)" v:mID="51" v:groupContext="group">
					<title>Sheet.51</title>
					<g id="shape52-101" v:mID="52" v:groupContext="shape" transform="translate(3.9375,-2.625)">
						<title>Sheet.52</title>
						<path d="M6.47 181.5 L216.49 181.5 L216.49 414 L0 414 L6.47 181.5 Z" class="st2"/>
						<path d="M6.47 181.5 L216.49 181.5 L216.49 414 L0 414" class="st3"/>
					</g>
					<g id="shape53-104" v:mID="53" v:groupContext="shape">
						<title>Sheet.53</title>
						<path d="M0 411.37 L5.25 408.75 L3.94 411.37 L5.25 414 L0 411.37 Z" class="st4"/>
					</g>
				</g>
				<g id="shape54-106" v:mID="54" v:groupContext="shape" transform="translate(104.978,-285)">
					<title>Sheet.54</title>
					<path d="M30 414 L0 414 L30 414 Z" class="st2"/>
					<path d="M30 414 L0 414" class="st3"/>
				</g>
				<g id="group55-109" transform="translate(134.977,-262.5)" v:mID="55" v:groupContext="group">
					<title>Sheet.55</title>
					<desc>Group chat manager</desc>
					<g id="group56-110" v:mID="56" v:groupContext="group">
						<title>Sheet.56</title>
						<g id="shape57-111" v:mID="57" v:groupContext="shape">
							<title>Sheet.57</title>
							<rect x="0" y="369" width="90" height="45" class="st7"/>
						</g>
						<g id="shape58-113" v:mID="58" v:groupContext="shape" transform="translate(9,-6.82121E-13)">
							<title>Sheet.58</title>
							<path d="M0 369 L0 414 L0 369 ZM72 369 L72 414 L72 369 Z" class="st2"/>
							<path d="M0 369 L0 414M72 369 L72 414" class="st8"/>
						</g>
					</g>
					<g id="shape55-116" v:mID="55" v:groupContext="groupContent">
						<v:textBlock v:margins="rect(0,0,0,0)" v:tabSpace="42.5197"/>
						<v:textRect cx="45" cy="391.5" width="90.01" height="45"/>
						<text x="20.39" y="388.5" class="st6" v:langID="1033"><v:paragraph v:horizAlign="1"/><v:tabList/>Group chat <tspan
									x="25.48" dy="1.2em" class="st10">manager</tspan></text>					</g>
				</g>
				<g id="group60-119" transform="translate(214.568,-49.875)" v:mID="60" v:groupContext="group">
					<title>Sheet.60</title>
					<g id="shape61-120" v:mID="61" v:groupContext="shape" transform="translate(3.9375,-2.625)">
						<title>Sheet.61</title>
						<path d="M156.5 399 L156.5 414 L0 414 L156.5 399 Z" class="st2"/>
						<path d="M156.5 399 L156.5 414 L0 414" class="st3"/>
					</g>
					<g id="shape62-123" v:mID="62" v:groupContext="shape">
						<title>Sheet.62</title>
						<path d="M0 411.37 L5.25 408.75 L3.94 411.37 L5.25 414 L0 411.37 Z" class="st4"/>
					</g>
				</g>
				<g id="group63-125" transform="translate(329.978,-67.5)" v:mID="63" v:groupContext="group">
					<title>Sheet.63</title>
					<desc>Human chat participant or observer</desc>
					<g id="group64-126" v:mID="64" v:groupContext="group">
						<title>Sheet.64</title>
						<g id="shape65-127" v:mID="65" v:groupContext="shape">
							<title>Sheet.65</title>
							<rect x="0" y="369" width="90" height="45" class="st12"/>
						</g>
						<g id="shape66-129" v:mID="66" v:groupContext="shape" transform="translate(9,-6.82121E-13)">
							<title>Sheet.66</title>
							<path d="M0 369 L0 414 L0 369 ZM72 369 L72 414 L72 369 Z" class="st2"/>
							<path d="M0 369 L0 414M72 369 L72 414" class="st13"/>
						</g>
					</g>
					<g id="shape63-132" v:mID="63" v:groupContext="groupContent">
						<v:textBlock v:margins="rect(0,0,0,0)" v:tabSpace="42.5197"/>
						<v:textRect cx="45" cy="391.5" width="90.01" height="45"/>
						<text x="20.87" y="383.4" class="st9" v:langID="1033"><v:paragraph v:horizAlign="1"/><v:tabList/>Human chat <tspan
									x="18.28" dy="1.2em" class="st10">participant or </tspan><tspan x="27.82" dy="1.2em"
									class="st10">observer</tspan></text>					</g>
				</g>
				<g id="group68-136" transform="translate(22.485,-127.5)" v:mID="68" v:groupContext="group">
					<title>Sheet.68</title>
					<desc>Model and knowledge</desc>
					<g id="shape69-137" v:mID="69" v:groupContext="shape">
						<title>Sheet.69</title>
						<path d="M0 407.25 A6.75016 6.75016 -180 0 0 6.75 414 L68.23 414 A6.75016 6.75016 -180 0 0 74.98 407.25 L74.98
									 375.75 A6.75016 6.75016 -180 0 0 68.23 369 L6.75 369 A6.75016 6.75016 -180 0 0 -0 375.75 L0
									 407.25 Z" class="st11"/>
					</g>
					<g id="shape68-139" v:mID="68" v:groupContext="groupContent">
						<v:textBlock v:margins="rect(0,0,0,0)" v:tabSpace="42.5197"/>
						<v:textRect cx="37.4888" cy="391.5" width="74.98" height="45"/>
						<text x="13.61" y="388.5" class="st6" v:langID="1033"><v:paragraph v:horizAlign="1"/><v:tabList/>Model and<v:newlineChar/><tspan
									x="13.3" dy="1.2em" class="st10">knowledge</tspan></text>					</g>
				</g>
				<g id="group71-142" transform="translate(120,-68.34)" v:mID="71" v:groupContext="group">
					<title>Sheet.71</title>
					<g id="shape72-143" v:mID="72" v:groupContext="shape" transform="translate(-4.39648E-14,-3.9375)">
						<title>Sheet.72</title>
						<path d="M14.98 276.28 L0 276.28 L0 403.78 L60 403.78 L60 414 L14.98 276.28 Z" class="st2"/>
						<path d="M14.98 276.28 L0 276.28 L0 403.78 L60 403.78 L60 414" class="st3"/>
					</g>
					<g id="shape73-146" v:mID="73" v:groupContext="shape" transform="translate(57.375,1.13687E-13)">
						<title>Sheet.73</title>
						<path d="M2.63 414 L0 408.75 L2.63 410.06 L5.25 408.75 L2.63 414 Z" class="st4"/>
					</g>
				</g>
				<g id="group74-148" transform="translate(134.977,-187.5)" v:mID="74" v:groupContext="group">
					<title>Sheet.74</title>
					<desc>Agent 2</desc>
					<g id="group75-149" v:mID="75" v:groupContext="group">
						<title>Sheet.75</title>
						<g id="shape76-150" v:mID="76" v:groupContext="shape">
							<title>Sheet.76</title>
							<rect x="0" y="369" width="90" height="45" class="st7"/>
						</g>
						<g id="shape77-152" v:mID="77" v:groupContext="shape" transform="translate(9,-6.82121E-13)">
							<title>Sheet.77</title>
							<path d="M0 369 L0 414 L0 369 ZM72 369 L72 414 L72 369 Z" class="st2"/>
							<path d="M0 369 L0 414M72 369 L72 414" class="st8"/>
						</g>
					</g>
					<g id="shape74-155" v:mID="74" v:groupContext="groupContent">
						<v:textBlock v:margins="rect(0,0,0,0)" v:tabSpace="42.5197"/>
						<v:textRect cx="45" cy="391.5" width="90.01" height="45"/>
						<text x="27.63" y="394.5" class="st6" v:langID="1033"><v:paragraph v:horizAlign="1"/><v:tabList/>Agent 2</text>					</g>
				</g>
				<g id="group79-157" transform="translate(177.36,-68.34)" v:mID="79" v:groupContext="group">
					<title>Sheet.79</title>
					<g id="shape80-158" v:mID="80" v:groupContext="shape" transform="translate(2.625,-3.9375)">
						<title>Sheet.80</title>
						<path d="M74.99 276.28 L60.02 276.28 L60.02 403.78 L0.01 403.78 L0 414 L74.99 276.28 Z" class="st2"/>
						<path d="M74.99 276.28 L60.02 276.28 L60.02 403.78 L0.01 403.78 L0 414" class="st3"/>
					</g>
					<g id="shape81-161" v:mID="81" v:groupContext="shape">
						<title>Sheet.81</title>
						<path d="M2.62 414 L0 408.75 L2.63 410.06 L5.25 408.76 L2.62 414 Z" class="st4"/>
					</g>
				</g>
				<g id="group82-163" transform="translate(254.978,-187.5)" v:mID="82" v:groupContext="group">
					<title>Sheet.82</title>
					<desc>...</desc>
					<g id="group83-164" v:mID="83" v:groupContext="group">
						<title>Sheet.83</title>
						<g id="shape84-165" v:mID="84" v:groupContext="shape">
							<title>Sheet.84</title>
							<rect x="0" y="369" width="45" height="45" class="st7"/>
						</g>
						<g id="shape85-167" v:mID="85" v:groupContext="shape" transform="translate(4.5,-6.82121E-13)">
							<title>Sheet.85</title>
							<path d="M0 369 L0 414 L0 369 ZM36 369 L36 414 L36 369 Z" class="st2"/>
							<path d="M0 369 L0 414M36 369 L36 414" class="st8"/>
						</g>
					</g>
					<g id="shape82-170" v:mID="82" v:groupContext="groupContent">
						<v:textBlock v:margins="rect(0,0,0,0)" v:tabSpace="42.5197"/>
						<v:textRect cx="22.5" cy="391.5" width="45.01" height="45"/>
						<text x="18.6" y="395.1" class="st14" v:langID="2052"><v:paragraph v:horizAlign="1"/><v:tabList/>...</text>					</g>
				</g>
				<g id="group87-172" transform="translate(60,-262.5)" v:mID="87" v:groupContext="group">
					<title>Sheet.87</title>
					<desc>Model</desc>
					<g id="shape88-173" v:mID="88" v:groupContext="shape">
						<title>Sheet.88</title>
						<path d="M0 407.25 A6.75016 6.75016 -180 0 0 6.75 414 L38.23 414 A6.75016 6.75016 -180 0 0 44.98 407.25 L44.98
									 375.75 A6.75016 6.75016 -180 0 0 38.23 369 L6.75 369 A6.75016 6.75016 -180 0 0 0 375.75 L0 407.25
									 Z" class="st11"/>
					</g>
					<g id="shape87-175" v:mID="87" v:groupContext="groupContent">
						<v:textBlock v:margins="rect(0,0,0,0)" v:tabSpace="42.5197"/>
						<v:textRect cx="22.4888" cy="391.5" width="44.98" height="45"/>
						<text x="8.3" y="394.5" class="st6" v:langID="1033"><v:paragraph v:horizAlign="1"/><v:tabList/>Mode<tspan
									class="st10" v:langID="2052">l</tspan></text>					</g>
				</g>
				<g id="group90-178" transform="translate(262.26,-12.18)" v:mID="90" v:groupContext="group">
					<title>Sheet.90</title>
					<desc>New group instructions based on accumulated context</desc>
					<g id="group91-179" v:mID="91" v:groupContext="group">
						<title>Sheet.91</title>
						<g id="shape92-180" v:mID="92" v:groupContext="shape" transform="translate(0.24,-2.82)">
							<title>Sheet.92</title>
							<rect x="0" y="379.5" width="105" height="34.5" class="st15"/>
						</g>
						<g id="shape93-182" v:mID="93" v:groupContext="shape" transform="translate(1.1191E-13,-2.145)">
							<title>Sheet.93</title>
							<path d="M0.39 378.65 C0.39 378.65 0.39 378.65 0.39 378.65 ZM0.39 378.65 C0.39 378.65 0.39 378.65 0.39
										 378.65 ZM0.19 383.45 C0.07 382.7 1.41 382.42 4.13 378.92 L0.19 383.45 ZM0.19 383.45 C1.26
										 381.76 2.82 380.51 4.13 378.92 L0.19 383.45 ZM0 388.24 C2.92 383.41 3.34 381.28 8.36 378.62
										 L0 388.24 ZM0 388.24 C1.9 385.42 5.18 381.37 8.36 378.62 L0 388.24 ZM0.29 392.48 C3.16 387.85
										 5.48 382.38 12.11 378.89 L0.29 392.48 ZM0.29 392.48 C2.92 388.42 9.33 383.77 12.11 378.89
										 L0.29 392.48 ZM0.1 397.28 C4.47 391.45 9.21 385.86 16.34 378.6 L0.1 397.28 ZM0.1 397.28
										 C4.49 392.97 7.73 388.85 16.34 378.6 L0.1 397.28 ZM0.4 401.51 C7.97 393.76 13.25 384.58
										 20.08 378.87 L0.4 401.51 ZM0.4 401.51 C8.69 394.88 14.97 385.93 20.08 378.87 L0.4 401.51
										 ZM0.19 406.31 C7.76 396.82 18.59 385.87 24.31 378.58 L0.19 406.31 ZM0.19 406.31 C7.18 396.51
										 12.95 390.15 24.31 378.58 L0.19 406.31 ZM0 411.1 C7.52 401.55 20.81 389.96 28.05 378.85
										 L0 411.1 ZM0 411.1 C5.06 404.56 12.22 397.36 28.05 378.85 L0 411.1 ZM1.78 413.64 C10.13
										 401.21 19.37 393.55 32.28 378.55 L1.78 413.64 ZM1.78 413.64 C9.53 406.81 15.76 398.31 32.28
										 378.55 L1.78 413.64 ZM5.51 413.91 C13.87 400.81 24.41 392.68 36.02 378.82 L5.51 413.91 ZM5.51
										 413.91 C17 401.76 30.23 387.53 36.02 378.82 L5.51 413.91 ZM9.75 413.62 C20.32 402.97 33.68
										 387.95 39.77 379.09 L9.75 413.62 ZM9.75 413.62 C18.49 404.83 26.76 395.41 39.77 379.09 L9.75
										 413.62 ZM13.49 413.89 C22.15 405.81 29.98 390.93 44 378.79 L13.49 413.89 ZM13.49 413.89
										 C24.48 402.44 33.67 392.18 44 378.79 L13.49 413.89 ZM17.72 413.59 C24.08 404.65 35.99 396.58
										 47.74 379.06 L17.72 413.59 ZM17.72 413.59 C27.97 400.67 39.14 388.9 47.74 379.06 L17.72
										 413.59 ZM21.46 413.86 C31.22 398.77 43.55 389.74 51.97 378.76 L21.46 413.86 ZM21.46 413.86
										 C30.93 400.67 42.53 390.12 51.97 378.76 L21.46 413.86 ZM25.7 413.56 C38.17 398.1 46.94 388.21
										 55.71 379.03 L25.7 413.56 ZM25.7 413.56 C32.26 405.85 41.11 394.05 55.71 379.03 L25.7 413.56
										 ZM29.43 413.83 C36.75 403.47 52.04 393.55 59.94 378.74 L29.43 413.83 ZM29.43 413.83 C37.01
										 404.95 43.13 398.64 59.94 378.74 L29.43 413.83 ZM33.67 413.53 C43.67 401.81 51.8 392.08
										 63.68 379.01 L33.67 413.53 ZM33.67 413.53 C38.73 407.78 46.04 399.95 63.68 379.01 L33.67
										 413.53 ZM37.4 413.81 C46.2 406.22 57.44 394.18 67.91 378.71 L37.4 413.81 ZM37.4 413.81 C47.99
										 399.84 59.57 387.39 67.91 378.71 L37.4 413.81 ZM41.64 413.51 C51.93 403.47 54.17 397.36
										 71.66 378.98 L41.64 413.51 ZM41.64 413.51 C47.67 404.4 57.07 394.98 71.66 378.98 L41.64
										 413.51 ZM45.38 413.78 C53.08 406.94 62.78 394.99 75.89 378.69 L45.38 413.78 ZM45.38 413.78
										 C53.61 406.07 60.95 396.64 75.89 378.69 L45.38 413.78 ZM49.61 413.49 C57.06 400.8 70.5 391.56
										 79.63 378.96 L49.61 413.49 ZM49.61 413.49 C58.71 402.33 67.59 392.03 79.63 378.96 L49.61
										 413.49 ZM53.35 413.76 C62.6 402.64 74 392.29 83.86 378.66 L53.35 413.76 ZM53.35 413.76 C59.15
										 408.01 65.15 399.55 83.86 378.66 L53.35 413.76 ZM57.59 413.46 C66.75 400.03 76.93 389.98
										 87.6 378.93 L57.59 413.46 ZM57.59 413.46 C69.21 401.02 77.67 390.66 87.6 378.93 L57.59 413.46
										 ZM61.32 413.73 C69.11 402.61 77.09 393.6 91.83 378.64 L61.32 413.73 ZM61.32 413.73 C73.99
										 399.22 85.03 387.89 91.83 378.64 L61.32 413.73 ZM65.06 414 C72.49 400.11 81.63 393.86 95.57
										 378.91 L65.06 414 ZM65.06 414 C76.73 399.64 87.63 386.86 95.57 378.91 L65.06 414 ZM69.29
										 413.71 C81.56 402.59 87.9 393.74 99.8 378.61 L69.29 413.71 ZM69.29 413.71 C78.89 401.76
										 86.43 391.32 99.8 378.61 L69.29 413.71 ZM73.04 413.98 C78.96 406.76 87.57 399.31 103.55
										 378.88 L73.04 413.98 ZM73.04 413.98 C83.54 401.14 95.89 386.84 103.55 378.88 L73.04 413.98
										 ZM77.27 413.68 C86.66 403.36 96.14 391.52 105.32 381.41 L77.27 413.68 ZM77.27 413.68 C85.35
										 403.48 95.33 390.56 105.32 381.41 L77.27 413.68 ZM81.01 413.95 C87.47 406.3 93.68 401.26
										 105.61 385.65 L81.01 413.95 ZM81.01 413.95 C90.81 404.56 97.97 392.7 105.61 385.65 L81.01
										 413.95 ZM85.24 413.65 C88.64 410.62 95.55 404.87 105.41 390.44 L85.24 413.65 ZM85.24 413.65
										 C89.91 406.43 98.6 397.78 105.41 390.44 L85.24 413.65 ZM88.98 413.92 C94.84 408.5 100.41
										 400.6 105.22 395.24 L88.98 413.92 ZM88.98 413.92 C93.07 411.13 97.12 405.3 105.22 395.24
										 L88.98 413.92 ZM93.21 413.62 C96.05 410.95 98.84 409.25 105.52 399.48 L93.21 413.62 ZM93.21
										 413.62 C97.07 411.88 98.04 407.1 105.52 399.48 L93.21 413.62 ZM96.95 413.89 C99.18 411.91
										 101.69 407.71 105.32 404.27 L96.95 413.89 ZM96.95 413.89 C101.09 411.45 102.16 407.18 105.32
										 404.27 L96.95 413.89 ZM101.18 413.6 C102.23 412.03 103.55 410.03 105.62 408.51 L101.18 413.6
										 ZM101.18 413.6 C103.01 410.93 104.26 409.39 105.62 408.51 L101.18 413.6 Z" class="st2"/>
							<path d="M0.39 378.65 C0.39 378.65 0.39 378.65 0.39 378.65M0.39 378.65 C0.39 378.65 0.39 378.65 0.39
										 378.65M0.19 383.45 C0.07 382.7 1.41 382.42 4.13 378.92M0.19 383.45 C1.26 381.76 2.82 380.51
										 4.13 378.92M0 388.24 C2.92 383.41 3.34 381.28 8.36 378.62M0 388.24 C1.9 385.42 5.18 381.37
										 8.36 378.62M0.29 392.48 C3.16 387.85 5.48 382.38 12.11 378.89M0.29 392.48 C2.92 388.42 9.33
										 383.77 12.11 378.89M0.1 397.28 C4.47 391.45 9.21 385.86 16.34 378.6M0.1 397.28 C4.49 392.97
										 7.73 388.85 16.34 378.6M0.4 401.51 C7.97 393.76 13.25 384.58 20.08 378.87M0.4 401.51 C8.69
										 394.88 14.97 385.93 20.08 378.87M0.19 406.31 C7.76 396.82 18.59 385.87 24.31 378.58M0.19
										 406.31 C7.18 396.51 12.95 390.15 24.31 378.58M0 411.1 C7.52 401.55 20.81 389.96 28.05 378.85M0
										 411.1 C5.06 404.56 12.22 397.36 28.05 378.85M1.78 413.64 C10.13 401.21 19.37 393.55 32.28
										 378.55M1.78 413.64 C9.53 406.81 15.76 398.31 32.28 378.55M5.51 413.91 C13.87 400.81 24.41
										 392.68 36.02 378.82M5.51 413.91 C17 401.76 30.23 387.53 36.02 378.82M9.75 413.62 C20.32
										 402.97 33.68 387.95 39.77 379.09M9.75 413.62 C18.49 404.83 26.76 395.41 39.77 379.09M13.49
										 413.89 C22.15 405.81 29.98 390.93 44 378.79M13.49 413.89 C24.48 402.44 33.67 392.18 44 378.79M17.72
										 413.59 C24.08 404.65 35.99 396.58 47.74 379.06M17.72 413.59 C27.97 400.67 39.14 388.9 47.74
										 379.06M21.46 413.86 C31.22 398.77 43.55 389.74 51.97 378.76M21.46 413.86 C30.93 400.67 42.53
										 390.12 51.97 378.76M25.7 413.56 C38.17 398.1 46.94 388.21 55.71 379.03M25.7 413.56 C32.26
										 405.85 41.11 394.05 55.71 379.03M29.43 413.83 C36.75 403.47 52.04 393.55 59.94 378.74M29.43
										 413.83 C37.01 404.95 43.13 398.64 59.94 378.74M33.67 413.53 C43.67 401.81 51.8 392.08 63.68
										 379.01M33.67 413.53 C38.73 407.78 46.04 399.95 63.68 379.01M37.4 413.81 C46.2 406.22 57.44
										 394.18 67.91 378.71M37.4 413.81 C47.99 399.84 59.57 387.39 67.91 378.71M41.64 413.51 C51.93
										 403.47 54.17 397.36 71.66 378.98M41.64 413.51 C47.67 404.4 57.07 394.98 71.66 378.98M45.38
										 413.78 C53.08 406.94 62.78 394.99 75.89 378.69M45.38 413.78 C53.61 406.07 60.95 396.64 75.89
										 378.69M49.61 413.49 C57.06 400.8 70.5 391.56 79.63 378.96M49.61 413.49 C58.71 402.33 67.59
										 392.03 79.63 378.96M53.35 413.76 C62.6 402.64 74 392.29 83.86 378.66M53.35 413.76 C59.15
										 408.01 65.15 399.55 83.86 378.66M57.59 413.46 C66.75 400.03 76.93 389.98 87.6 378.93M57.59
										 413.46 C69.21 401.02 77.67 390.66 87.6 378.93M61.32 413.73 C69.11 402.61 77.09 393.6 91.83
										 378.64M61.32 413.73 C73.99 399.22 85.03 387.89 91.83 378.64M65.06 414 C72.49 400.11 81.63
										 393.86 95.57 378.91M65.06 414 C76.73 399.64 87.63 386.86 95.57 378.91M69.29 413.71 C81.56
										 402.59 87.9 393.74 99.8 378.61M69.29 413.71 C78.89 401.76 86.43 391.32 99.8 378.61M73.04
										 413.98 C78.96 406.76 87.57 399.31 103.55 378.88M73.04 413.98 C83.54 401.14 95.89 386.84
										 103.55 378.88M77.27 413.68 C86.66 403.36 96.14 391.52 105.32 381.41M77.27 413.68 C85.35
										 403.48 95.33 390.56 105.32 381.41M81.01 413.95 C87.47 406.3 93.68 401.26 105.61 385.65M81.01
										 413.95 C90.81 404.56 97.97 392.7 105.61 385.65M85.24 413.65 C88.64 410.62 95.55 404.87 105.41
										 390.44M85.24 413.65 C89.91 406.43 98.6 397.78 105.41 390.44M88.98 413.92 C94.84 408.5 100.41
										 400.6 105.22 395.24M88.98 413.92 C93.07 411.13 97.12 405.3 105.22 395.24M93.21 413.62 C96.05
										 410.95 98.84 409.25 105.52 399.48M93.21 413.62 C97.07 411.88 98.04 407.1 105.52 399.48M96.95
										 413.89 C99.18 411.91 101.69 407.71 105.32 404.27M96.95 413.89 C101.09 411.45 102.16 407.18
										 105.32 404.27M101.18 413.6 C102.23 412.03 103.55 410.03 105.62 408.51M101.18 413.6 C103.01
										 410.93 104.26 409.39 105.62 408.51" class="st16"/>
						</g>
						<g id="shape94-185" v:mID="94" v:groupContext="shape" transform="translate(0.2325,-5.11591E-13)">
							<title>Sheet.94</title>
							<path d="M0.01 376.68 C36.32 376.12 70.82 379.52 105.01 376.68 L0.01 376.68 ZM0.01 376.68 C29.87 377.61
										 60.92 376.13 105.01 376.68 L0.01 376.68 ZM105.01 376.68 C107.84 393.02 102.54 402.29 105.01
										 411.18 L105.01 376.68 ZM105.01 376.68 C103.36 385.18 103.46 395.83 105.01 411.18 L105.01
										 376.68 ZM105.01 411.18 C67.76 413.96 32.54 412.58 0.01 411.18 L105.01 411.18 ZM105.01 411.18
										 C73.01 412.55 41.24 414 0.01 411.18 L105.01 411.18 ZM0.01 411.18 C0.34 405.19 0.54 395.61
										 0.01 376.68 L0.01 411.18 ZM0.01 411.18 C0 403.56 1.31 395.4 0.01 376.68 L0.01 411.18 Z"
									class="st2"/>
							<path d="M0.01 376.68 C36.32 376.12 70.82 379.52 105.01 376.68M0.01 376.68 C29.87 377.61 60.92 376.13
										 105.01 376.68M105.01 376.68 C107.84 393.02 102.54 402.29 105.01 411.18M105.01 376.68 C103.36
										 385.18 103.46 395.83 105.01 411.18M105.01 411.18 C67.76 413.96 32.54 412.58 0.01 411.18M105.01
										 411.18 C73.01 412.55 41.24 414 0.01 411.18M0.01 411.18 C0.34 405.19 0.54 395.61 0.01 376.68M0.01
										 411.18 C0 403.56 1.31 395.4 0.01 376.68" class="st17"/>
						</g>
					</g>
					<g id="shape90-188" v:mID="90" v:groupContext="groupContent">
						<v:textBlock v:margins="rect(0,0,0,0)" v:tabSpace="42.5197"/>
						<v:textRect cx="54.0375" cy="395.059" width="108.08" height="37.8825"/>
						<text x="12.75" y="387.86" class="st18" v:langID="1033"><v:paragraph v:horizAlign="1"/><v:tabList/>New group instructions <v:newlineChar/><tspan
									x="14.2" dy="1.2em" class="st10">based on accumulated <v:newlineChar/></tspan><tspan x="40.94"
									dy="1.2em" class="st10">context</tspan></text>					</g>
				</g>
				<g id="group96-192" transform="translate(157.477,0)" v:mID="96" v:groupContext="group">
					<title>Sheet.96</title>
					<desc>Result</desc>
					<g id="shape97-193" v:mID="97" v:groupContext="shape">
						<title>Sheet.97</title>
						<path d="M0 410.62 A3.37508 3.37508 -180 0 0 3.37 414 L41.63 414 A3.37508 3.37508 -180 0 0 45 410.62 L45
									 394.87 A3.37508 3.37508 -180 0 0 41.63 391.5 L3.37 391.5 A3.37508 3.37508 -180 0 0 0 394.87
									 L0 410.62 Z" class="st5"/>
					</g>
					<g id="shape96-195" v:mID="96" v:groupContext="groupContent">
						<v:textBlock v:margins="rect(0,0,0,0)" v:tabSpace="42.5197"/>
						<v:textRect cx="22.5" cy="402.75" width="45.01" height="22.5"/>
						<text x="9.04" y="405.75" class="st6" v:langID="1033"><v:paragraph v:horizAlign="1"/><v:tabList/>Result</text>					</g>
				</g>
				<g id="group99-197" transform="translate(140.318,-83.8575)" v:mID="99" v:groupContext="group">
					<title>Sheet.99</title>
					<desc>Chat output from agents</desc>
					<g id="group100-198" v:mID="100" v:groupContext="group">
						<title>Sheet.100</title>
						<g id="shape101-199" v:mID="101" v:groupContext="shape" transform="translate(2.1825,-1.6425)">
							<title>Sheet.101</title>
							<rect x="0" y="387" width="75" height="27" class="st15"/>
						</g>
						<g id="shape102-201" v:mID="102" v:groupContext="shape" transform="translate(2.025,-1.215)">
							<title>Sheet.102</title>
							<path d="M0.1 386.64 C0.1 386.64 0.1 386.64 0.1 386.64 ZM0.1 386.64 C0.1 386.64 0.1 386.64 0.1 386.64
										 ZM0.4 390.87 C0.39 389.04 3.68 387.6 4.33 386.35 L0.4 390.87 ZM0.4 390.87 C1.04 389.51 2.9
										 388.21 4.33 386.35 L0.4 390.87 ZM0.2 395.67 C1.99 392.68 5.48 389.92 8.07 386.62 L0.2 395.67
										 ZM0.2 395.67 C2.39 392.48 4.43 389.52 8.07 386.62 L0.2 395.67 ZM0 400.47 C4.79 396 8.96
										 393.33 12.3 386.32 L0 400.47 ZM0 400.47 C3.53 396.02 5.87 391.67 12.3 386.32 L0 400.47 ZM0.3
										 404.7 C5.15 398.98 12.97 394.51 16.04 386.59 L0.3 404.7 ZM0.3 404.7 C3.5 400.92 8.42 392.95
										 16.04 386.59 L0.3 404.7 ZM0.11 409.5 C5.13 406.3 10.66 398.72 20.27 386.29 L0.11 409.5 ZM0.11
										 409.5 C4.04 403.87 10.35 398.17 20.27 386.29 L0.11 409.5 ZM0.4 413.73 C4.64 408.55 13.4
										 399.31 24.02 386.56 L0.4 413.73 ZM0.4 413.73 C6.93 407 14.59 397.45 24.02 386.56 L0.4 413.73
										 ZM4.14 414 C14.57 403.04 23.34 393.64 27.76 386.83 L4.14 414 ZM4.14 414 C10.92 403.45 19.49
										 395.1 27.76 386.83 L4.14 414 ZM8.37 413.71 C19.82 403.61 27.72 390.79 31.99 386.53 L8.37
										 413.71 ZM8.37 413.71 C14.99 404.44 23.69 398.49 31.99 386.53 L8.37 413.71 ZM12.11 413.98
										 C19.79 405.34 24.92 401.95 35.73 386.8 L12.11 413.98 ZM12.11 413.98 C22.28 404.83 28.49
										 392.98 35.73 386.8 L12.11 413.98 ZM16.34 413.68 C21.81 408.26 29.4 403.96 39.96 386.51 L16.34
										 413.68 ZM16.34 413.68 C24.95 404.02 34.82 392.41 39.96 386.51 L16.34 413.68 ZM20.09 413.95
										 C27.56 407.68 33.16 399.3 43.7 386.78 L20.09 413.95 ZM20.09 413.95 C28.09 406.65 33.17 399.72
										 43.7 386.78 L20.09 413.95 ZM24.32 413.65 C28.82 409.27 33.72 402.91 47.93 386.48 L24.32
										 413.65 ZM24.32 413.65 C33.81 404.35 40.49 395.11 47.93 386.48 L24.32 413.65 ZM28.06 413.92
										 C36.83 401.77 45.47 390.92 51.68 386.75 L28.06 413.92 ZM28.06 413.92 C33.34 407.74 41.63
										 398.27 51.68 386.75 L28.06 413.92 ZM32.29 413.63 C39.86 402.53 49.01 392.44 55.91 386.46
										 L32.29 413.63 ZM32.29 413.63 C36.56 405.83 44.24 401.18 55.91 386.46 L32.29 413.63 ZM36.03
										 413.9 C47.97 402.01 53.59 394.92 59.65 386.73 L36.03 413.9 ZM36.03 413.9 C42.09 406.03 47.93
										 399.8 59.65 386.73 L36.03 413.9 ZM40.26 413.6 C48.25 410.44 52.73 399.97 63.88 386.43 L40.26
										 413.6 ZM40.26 413.6 C46.76 407.25 52.52 397.84 63.88 386.43 L40.26 413.6 ZM44 413.87 C50.69
										 406.11 51.69 404.53 67.62 386.7 L44 413.87 ZM44 413.87 C52.69 403.93 60.8 396.24 67.62 386.7
										 L44 413.87 ZM48.23 413.58 C60.09 405.65 68.48 390.79 71.85 386.41 L48.23 413.58 ZM48.23
										 413.58 C56.57 405.46 61.37 396.55 71.85 386.41 L48.23 413.58 ZM51.98 413.85 C60.38 404.83
										 71.46 392.48 75.59 386.68 L51.98 413.85 ZM51.98 413.85 C59.1 405.34 70.24 395.74 75.59 386.68
										 L51.98 413.85 ZM56.21 413.55 C63.71 403.72 68.6 398.56 75.4 391.48 L56.21 413.55 ZM56.21
										 413.55 C60.54 407.95 67.25 400.15 75.4 391.48 L56.21 413.55 ZM59.95 413.82 C67.26 408.85
										 66.97 402.09 75.69 395.71 L59.95 413.82 ZM59.95 413.82 C65.87 407.2 70.13 400.23 75.69 395.71
										 L59.95 413.82 ZM64.18 413.53 C67.04 408.8 73.61 401.66 75.5 400.51 L64.18 413.53 ZM64.18
										 413.53 C66.41 407.81 71.27 405.11 75.5 400.51 L64.18 413.53 ZM67.92 413.8 C71.78 412.72
										 71.73 407.11 75.3 405.31 L67.92 413.8 ZM67.92 413.8 C69.47 411.88 71.71 409.09 75.3 405.31
										 L67.92 413.8 ZM72.15 413.5 C74.11 411.06 74.3 410.36 75.59 409.54 L72.15 413.5 ZM72.15 413.5
										 C73 411.61 74.84 410.57 75.59 409.54 L72.15 413.5 Z" class="st2"/>
							<path d="M0.1 386.64 C0.1 386.64 0.1 386.64 0.1 386.64M0.1 386.64 C0.1 386.64 0.1 386.64 0.1 386.64M0.4
										 390.87 C0.39 389.04 3.68 387.6 4.33 386.35M0.4 390.87 C1.04 389.51 2.9 388.21 4.33 386.35M0.2
										 395.67 C1.99 392.68 5.48 389.92 8.07 386.62M0.2 395.67 C2.39 392.48 4.43 389.52 8.07 386.62M0
										 400.47 C4.79 396 8.96 393.33 12.3 386.32M0 400.47 C3.53 396.02 5.87 391.67 12.3 386.32M0.3
										 404.7 C5.15 398.98 12.97 394.51 16.04 386.59M0.3 404.7 C3.5 400.92 8.42 392.95 16.04 386.59M0.11
										 409.5 C5.13 406.3 10.66 398.72 20.27 386.29M0.11 409.5 C4.04 403.87 10.35 398.17 20.27 386.29M0.4
										 413.73 C4.64 408.55 13.4 399.31 24.02 386.56M0.4 413.73 C6.93 407 14.59 397.45 24.02 386.56M4.14
										 414 C14.57 403.04 23.34 393.64 27.76 386.83M4.14 414 C10.92 403.45 19.49 395.1 27.76 386.83M8.37
										 413.71 C19.82 403.61 27.72 390.79 31.99 386.53M8.37 413.71 C14.99 404.44 23.69 398.49 31.99
										 386.53M12.11 413.98 C19.79 405.34 24.92 401.95 35.73 386.8M12.11 413.98 C22.28 404.83 28.49
										 392.98 35.73 386.8M16.34 413.68 C21.81 408.26 29.4 403.96 39.96 386.51M16.34 413.68 C24.95
										 404.02 34.82 392.41 39.96 386.51M20.09 413.95 C27.56 407.68 33.16 399.3 43.7 386.78M20.09
										 413.95 C28.09 406.65 33.17 399.72 43.7 386.78M24.32 413.65 C28.82 409.27 33.72 402.91 47.93
										 386.48M24.32 413.65 C33.81 404.35 40.49 395.11 47.93 386.48M28.06 413.92 C36.83 401.77 45.47
										 390.92 51.68 386.75M28.06 413.92 C33.34 407.74 41.63 398.27 51.68 386.75M32.29 413.63 C39.86
										 402.53 49.01 392.44 55.91 386.46M32.29 413.63 C36.56 405.83 44.24 401.18 55.91 386.46M36.03
										 413.9 C47.97 402.01 53.59 394.92 59.65 386.73M36.03 413.9 C42.09 406.03 47.93 399.8 59.65
										 386.73M40.26 413.6 C48.25 410.44 52.73 399.97 63.88 386.43M40.26 413.6 C46.76 407.25 52.52
										 397.84 63.88 386.43M44 413.87 C50.69 406.11 51.69 404.53 67.62 386.7M44 413.87 C52.69 403.93
										 60.8 396.24 67.62 386.7M48.23 413.58 C60.09 405.65 68.48 390.79 71.85 386.41M48.23 413.58
										 C56.57 405.46 61.37 396.55 71.85 386.41M51.98 413.85 C60.38 404.83 71.46 392.48 75.59 386.68M51.98
										 413.85 C59.1 405.34 70.24 395.74 75.59 386.68M56.21 413.55 C63.71 403.72 68.6 398.56 75.4
										 391.48M56.21 413.55 C60.54 407.95 67.25 400.15 75.4 391.48M59.95 413.82 C67.26 408.85 66.97
										 402.09 75.69 395.71M59.95 413.82 C65.87 407.2 70.13 400.23 75.69 395.71M64.18 413.53 C67.04
										 408.8 73.61 401.66 75.5 400.51M64.18 413.53 C66.41 407.81 71.27 405.11 75.5 400.51M67.92
										 413.8 C71.78 412.72 71.73 407.11 75.3 405.31M67.92 413.8 C69.47 411.88 71.71 409.09 75.3
										 405.31M72.15 413.5 C74.11 411.06 74.3 410.36 75.59 409.54M72.15 413.5 C73 411.61 74.84 410.57
										 75.59 409.54" class="st16"/>
						</g>
						<g id="shape103-204" v:mID="103" v:groupContext="shape">
							<title>Sheet.103</title>
							<path d="M2.18 385.36 C25.85 384.94 53.81 381.75 77.18 385.36 L2.18 385.36 ZM2.18 385.36 C27.1 384.43
										 52.07 385.3 77.18 385.36 L2.18 385.36 ZM77.18 385.36 C74.76 396.29 78.88 404.68 77.18 412.36
										 L77.18 385.36 ZM77.18 385.36 C77.74 393.97 78.14 401.68 77.18 412.36 L77.18 385.36 ZM77.18
										 412.36 C61.51 410.67 40.1 410.8 2.18 412.36 L77.18 412.36 ZM77.18 412.36 C59.67 412.21 43.04
										 414 2.18 412.36 L77.18 412.36 ZM2.18 412.36 C1.39 404.84 0 394.25 2.18 385.36 L2.18 412.36
										 ZM2.18 412.36 C3.03 404.13 3.84 395.59 2.18 385.36 L2.18 412.36 Z" class="st2"/>
							<path d="M2.18 385.36 C25.85 384.94 53.81 381.75 77.18 385.36M2.18 385.36 C27.1 384.43 52.07 385.3 77.18
										 385.36M77.18 385.36 C74.76 396.29 78.88 404.68 77.18 412.36M77.18 385.36 C77.74 393.97 78.14
										 401.68 77.18 412.36M77.18 412.36 C61.51 410.67 40.1 410.8 2.18 412.36M77.18 412.36 C59.67
										 412.21 43.04 414 2.18 412.36M2.18 412.36 C1.39 404.84 0 394.25 2.18 385.36M2.18 412.36 C3.03
										 404.13 3.84 395.59 2.18 385.36" class="st17"/>
						</g>
					</g>
					<g id="shape99-207" v:mID="99" v:groupContext="groupContent">
						<v:textBlock v:margins="rect(0,0,0,0)" v:tabSpace="42.5197"/>
						<v:textRect cx="39.4388" cy="397.875" width="78.88" height="32.25"/>
						<text x="4.92" y="395.18" class="st9" v:langID="1033"><v:paragraph v:horizAlign="1"/><v:tabList/>Chat output from <tspan
									x="26.17" dy="1.2em" class="st10">agents</tspan></text>					</g>
				</g>
			</g>
		</g>
	</g>
</svg>
