<?xml version="1.0" encoding="UTF-8" standalone="no"?>
<!DOCTYPE svg PUBLIC "-//W3C//DTD SVG 1.1//EN" "http://www.w3.org/Graphics/SVG/1.1/DTD/svg11.dtd">
<!-- Generated by Microsoft Visio, SVG Export handoff-pattern-example.svg handoff-pattern-example -->
<svg xmlns="http://www.w3.org/2000/svg" xmlns:xlink="http://www.w3.org/1999/xlink" xmlns:ev="http://www.w3.org/2001/xml-events"
		xmlns:v="http://schemas.microsoft.com/visio/2003/SVGExtensions/" width="7.30208in" height="5.42708in"
		viewBox="0 0 525.75 390.75" xml:space="preserve" color-interpolation-filters="sRGB" class="st15">
	<v:documentProperties v:langID="2052" v:viewMarkup="false"/>

	<style type="text/css">
	<![CDATA[
		.st1 {fill:#ffffff;stroke:none;stroke-linecap:butt;stroke-width:0.75}
		.st2 {fill:none}
		.st3 {stroke:#000000;stroke-linecap:butt;stroke-width:0.75}
		.st4 {fill:#000000;stroke:#000000;stroke-linecap:butt;stroke-width:0.75}
		.st5 {fill:#ffffff;stroke:#000000;stroke-linecap:butt;stroke-width:0.75}
		.st6 {fill:#000000;font-family:Segoe UI;font-size:0.833336em}
		.st7 {fill:#dae8fc;stroke:#6c8ebf;stroke-linecap:butt;stroke-width:0.75}
		.st8 {stroke:#6c8ebf;stroke-linecap:butt;stroke-width:0.75}
		.st9 {fill:#000000;font-family:Segoe UI;font-size:0.75em}
		.st10 {font-size:1em}
		.st11 {fill:#fff2cc;stroke:#d6b656;stroke-linecap:butt;stroke-width:0.75}
		.st12 {fill:#000000;font-family:Segoe UI;font-size:0.666664em}
		.st13 {fill:#f5f5f5;stroke:#666666;stroke-linecap:butt;stroke-width:0.75}
		.st14 {stroke:#666666;stroke-linecap:butt;stroke-width:0.75}
		.st15 {fill:none;fill-rule:evenodd;font-size:12px;overflow:visible;stroke-linecap:square;stroke-miterlimit:3}
	]]>
	</style>

	<g v:mID="0" v:index="1" v:groupContext="foregroundPage">
		<title>handoff-pattern-example</title>
		<v:pageProperties v:drawingScale="1" v:pageScale="1" v:drawingUnits="19" v:shadowOffsetX="9" v:shadowOffsetY="-9"/>
		<g id="shape1-1" v:mID="1" v:groupContext="shape" transform="translate(0.375,0.375)">
			<title>Sheet.1</title>
			<rect x="0" y="0" width="525.75" height="390.75" class="st1"/>
		</g>
		<g id="group2-3" transform="translate(15.375,-15.375)" v:mID="2" v:groupContext="group">
			<title>Sheet.2</title>
			<g id="group3-4" transform="translate(192.375,-322.5)" v:mID="3" v:groupContext="group">
				<title>Sheet.3</title>
				<g id="shape4-5" v:mID="4" v:groupContext="shape" transform="translate(2.625,-5.68434E-14)">
					<title>Sheet.4</title>
					<path d="M0 375.75 L0 390.75 L0 375.75 L0 385.97 L0 375.75 Z" class="st2"/>
					<path d="M0 375.75 L0 390.75 L0 375.75 L0 385.97" class="st3"/>
				</g>
				<g id="shape5-8" v:mID="5" v:groupContext="shape" transform="translate(1.02918E-13,-0.84)">
					<title>Sheet.5</title>
					<path d="M2.63 390.75 L0 385.5 L2.63 386.81 L5.25 385.5 L2.63 390.75 Z" class="st4"/>
				</g>
			</g>
			<g id="group6-10" transform="translate(172.478,-337.5)" v:mID="6" v:groupContext="group">
				<title>Sheet.6</title>
				<desc>Input</desc>
				<g id="shape7-11" v:mID="7" v:groupContext="shape">
					<title>Sheet.7</title>
					<path d="M0 387.37 A3.37508 3.37508 -180 0 0 3.37 390.75 L41.63 390.75 A3.37508 3.37508 -180 0 0 45 387.37 L45
								 371.62 A3.37508 3.37508 -180 0 0 41.63 368.25 L3.37 368.25 A3.37508 3.37508 -180 0 0 0 371.62 L0
								 387.37 Z" class="st5"/>
				</g>
				<g id="shape6-13" v:mID="6" v:groupContext="groupContent">
					<v:textBlock v:margins="rect(0,0,0,0)"/>
					<v:textRect cx="22.5" cy="379.5" width="45.01" height="22.5"/>
					<text x="10.88" y="382.5" class="st6" v:langID="1033"><v:paragraph v:horizAlign="1"/><v:tabList/>Input</text>				</g>
			</g>
			<g id="shape9-15" v:mID="9" v:groupContext="shape" transform="translate(105,-165)">
				<title>Sheet.9</title>
				<path d="M0 375.75 L0 390.75 L0 375.75 L0 390.75 L0 375.75 Z" class="st2"/>
				<path d="M0 375.75 L0 390.75 L0 375.75 L0 390.75" class="st3"/>
			</g>
			<g id="group10-18" transform="translate(45,-199.875)" v:mID="10" v:groupContext="group">
				<title>Sheet.10</title>
				<g id="shape11-19" v:mID="11" v:groupContext="shape" transform="translate(-7.89369E-14,-2.625)">
					<title>Sheet.11</title>
					<path d="M14.98 390.75 L0 390.75 L15 390.75 L4.78 390.75 L14.98 390.75 Z" class="st2"/>
					<path d="M14.98 390.75 L0 390.75 L15 390.75 L4.78 390.75" class="st3"/>
				</g>
				<g id="shape12-22" v:mID="12" v:groupContext="shape" transform="translate(0.84,1.13687E-13)">
					<title>Sheet.12</title>
					<path d="M0 388.13 L5.25 385.5 L3.94 388.13 L5.25 390.75 L0 388.13 Z" class="st4"/>
				</g>
			</g>
			<g id="group13-24" transform="translate(59.9775,-180)" v:mID="13" v:groupContext="group">
				<title>Sheet.13</title>
				<g id="group14-25" v:mID="14" v:groupContext="group">
					<title>Sheet.14</title>
					<desc>Technical infrastructure agent</desc>
					<g id="shape15-26" v:mID="15" v:groupContext="shape">
						<title>Sheet.15</title>
						<rect x="0" y="345.75" width="90" height="45" class="st7"/>
					</g>
					<g id="shape16-28" v:mID="16" v:groupContext="shape" transform="translate(9,0)">
						<title>Sheet.16</title>
						<path d="M0 345.75 L0 390.75 L0 345.75 ZM72 345.75 L72 390.75 L72 345.75 Z" class="st2"/>
						<path d="M0 345.75 L0 390.75M72 345.75 L72 390.75" class="st8"/>
					</g>
					<g id="shape14-31" v:mID="14" v:groupContext="groupContent">
						<v:textBlock v:margins="rect(0,0,0,0)"/>
						<v:textRect cx="45" cy="368.25" width="90" height="45"/>
						<text x="26.57" y="360.15" class="st9" v:langID="1033"><v:paragraph v:horizAlign="1"/><v:tabList/>Technical <tspan
									x="18.49" dy="1.2em" class="st10">infrastructure <v:newlineChar/></tspan><tspan x="33.64"
									dy="1.2em" class="st10">agent</tspan></text>					</g>
				</g>
			</g>
			<g id="shape18-35" v:mID="18" v:groupContext="shape" transform="translate(232.477,-165)">
				<title>Sheet.18</title>
				<path d="M0 375.75 L0.02 390.75 L0.02 375.75 L0.02 390.75 L0 375.75 Z" class="st2"/>
				<path d="M0 375.75 L0.02 390.75 L0.02 375.75 L0.02 390.75" class="st3"/>
			</g>
			<g id="group19-38" transform="translate(323.34,-64.875)" v:mID="19" v:groupContext="group">
				<title>Sheet.19</title>
				<g id="shape20-39" v:mID="20" v:groupContext="shape" transform="translate(3.9375,-2.625)">
					<title>Sheet.20</title>
					<path d="M55.22 304.5 C55.22 362 36.81 390.75 0 390.75 L55.22 304.5 Z" class="st2"/>
					<path d="M55.22 304.5 C55.22 362 36.81 390.75 0 390.75" class="st3"/>
				</g>
				<g id="shape21-42" v:mID="21" v:groupContext="shape">
					<title>Sheet.21</title>
					<path d="M0 388.12 L5.25 385.5 L3.94 388.12 L5.25 390.75 L0 388.12 Z" class="st4"/>
				</g>
			</g>
			<g id="shape22-44" v:mID="22" v:groupContext="shape" transform="translate(408.75,-135)">
				<title>Sheet.22</title>
				<path d="M0 372 L0 383.25 L0 390.75 L0 372 Z" class="st2"/>
				<path d="M0 372 L0 383.25 L0 390.75" class="st3"/>
			</g>
			<g id="group23-47" transform="translate(427.5,-173.625)" v:mID="23" v:groupContext="group">
				<title>Sheet.23</title>
				<g id="shape24-48" v:mID="24" v:groupContext="shape" transform="translate(1.3689E-13,-2.625)">
					<title>Sheet.24</title>
					<path d="M0 390.75 L15 390.75 L7.5 390.75 L17.72 390.75 L0 390.75 Z" class="st2"/>
					<path d="M0 390.75 L15 390.75 L7.5 390.75 L17.72 390.75" class="st3"/>
				</g>
				<g id="shape25-51" v:mID="25" v:groupContext="shape" transform="translate(16.41,1.13687E-13)">
					<title>Sheet.25</title>
					<path d="M5.25 388.13 L0 390.75 L1.31 388.13 L0 385.5 L5.25 388.13 Z" class="st4"/>
				</g>
			</g>
			<g id="group26-53" transform="translate(337.5,-153.75)" v:mID="26" v:groupContext="group">
				<title>Sheet.26</title>
				<desc>Account access agent</desc>
				<g id="group27-54" v:mID="27" v:groupContext="group">
					<title>Sheet.27</title>
					<g id="shape28-55" v:mID="28" v:groupContext="shape">
						<title>Sheet.28</title>
						<rect x="0" y="345.75" width="90" height="45" class="st7"/>
					</g>
					<g id="shape29-57" v:mID="29" v:groupContext="shape" transform="translate(9,0)">
						<title>Sheet.29</title>
						<path d="M0 345.75 L0 390.75 L0 345.75 ZM72 345.75 L72 390.75 L72 345.75 Z" class="st2"/>
						<path d="M0 345.75 L0 390.75M72 345.75 L72 390.75" class="st8"/>
					</g>
				</g>
				<g id="shape26-60" v:mID="26" v:groupContext="groupContent">
					<v:textBlock v:margins="rect(0,0,0,0)"/>
					<v:textRect cx="45" cy="368.25" width="90" height="45"/>
					<text x="14.83" y="365.55" class="st9" v:langID="1033"><v:paragraph v:horizAlign="1"/><v:tabList/>Account access <v:newlineChar/><tspan
								x="33.64" dy="1.2em" class="st10">agent</tspan></text>				</g>
			</g>
			<g id="group31-63" transform="translate(194.992,-120)" v:mID="31" v:groupContext="group">
				<title>Sheet.31</title>
				<desc>Model, billing account knowledge, and billing API access</desc>
				<g id="shape32-64" v:mID="32" v:groupContext="shape">
					<title>Sheet.32</title>
					<path d="M0 384 A6.75016 6.75016 -180 0 0 6.75 390.75 L68.23 390.75 A6.75016 6.75016 -180 0 0 74.98 384 L74.98
								 352.5 A6.75016 6.75016 -180 0 0 68.23 345.75 L6.75 345.75 A6.75016 6.75016 -180 0 0 0 352.5 L0 384
								 Z" class="st11"/>
				</g>
				<g id="shape31-66" v:mID="31" v:groupContext="groupContent">
					<v:textBlock v:margins="rect(0,0,0,0)"/>
					<v:textRect cx="37.4888" cy="368.25" width="74.98" height="45"/>
					<text x="25.27" y="356.25" class="st12" v:langID="1033"><v:paragraph v:horizAlign="1"/><v:tabList/>Model,<v:newlineChar/><tspan
								x="11.59" dy="1.2em" class="st10">billing account </tspan><tspan x="9.52" dy="1.2em" class="st10">knowledge, and </tspan><tspan
								x="7.35" dy="1.2em" class="st10">billing API access</tspan></text>				</g>
			</g>
			<g id="group34-71" transform="translate(390,-97.5)" v:mID="34" v:groupContext="group">
				<title>Sheet.34</title>
				<desc>Model and customer knowledge</desc>
				<g id="shape35-72" v:mID="35" v:groupContext="shape">
					<title>Sheet.35</title>
					<path d="M0 385.12 A5.62513 5.62513 -180 0 0 5.63 390.75 L61.85 390.75 A5.62513 5.62513 -180 0 0 67.48 385.12
								 L67.48 358.87 A5.62513 5.62513 -180 0 0 61.85 353.25 L5.63 353.25 A5.62513 5.62513 -180 0 0 0 358.87
								 L0 385.12 Z" class="st11"/>
				</g>
				<g id="shape34-74" v:mID="34" v:groupContext="groupContent">
					<v:textBlock v:margins="rect(0,0,0,0)"/>
					<v:textRect cx="33.7387" cy="372" width="67.48" height="37.5"/>
					<text x="12.25" y="363.9" class="st9" v:langID="1033"><v:paragraph v:horizAlign="1"/><v:tabList/>Model and<v:newlineChar/><tspan
								x="15.25" dy="1.2em" class="st10">customer </tspan><tspan x="11.97" dy="1.2em" class="st10">knowledge</tspan></text>				</g>
			</g>
			<g id="shape37-78" v:mID="37" v:groupContext="shape" transform="translate(135,-300)">
				<title>Sheet.37</title>
				<path d="M14.98 390.75 L0 390.75 L15 390.75 L0 390.75 L14.98 390.75 Z" class="st2"/>
				<path d="M14.98 390.75 L0 390.75 L15 390.75 L0 390.75" class="st3"/>
			</g>
			<g id="group38-81" transform="translate(102.375,-225.84)" v:mID="38" v:groupContext="group">
				<title>Sheet.38</title>
				<g id="shape39-82" v:mID="39" v:groupContext="shape" transform="translate(2.625,-3.9375)">
					<title>Sheet.39</title>
					<path d="M90 343.03 C90 360.53 75 369.28 45 369.28 C15 369.28 0 376.43 0 390.75 L90 343.03 Z" class="st2"/>
					<path d="M90 343.03 C90 360.53 75 369.28 45 369.28 C15 369.28 0 376.43 0 390.75" class="st3"/>
				</g>
				<g id="shape40-85" v:mID="40" v:groupContext="shape">
					<title>Sheet.40</title>
					<path d="M2.62 390.75 L0 385.5 L2.62 386.81 L5.25 385.5 L2.62 390.75 Z" class="st4"/>
				</g>
			</g>
			<g id="group41-87" transform="translate(195,-225.84)" v:mID="41" v:groupContext="group">
				<title>Sheet.41</title>
				<g id="shape42-88" v:mID="42" v:groupContext="shape" transform="translate(7.19425E-14,-3.9375)">
					<title>Sheet.42</title>
					<path d="M0 343.03 C0 360.53 6.25 369.28 18.75 369.28 C31.25 369.28 37.5 376.43 37.5 390.75 L0 343.03 Z"
							class="st2"/>
					<path d="M0 343.03 C0 360.53 6.25 369.28 18.75 369.28 C31.25 369.28 37.5 376.43 37.5 390.75" class="st3"/>
				</g>
				<g id="shape43-91" v:mID="43" v:groupContext="shape" transform="translate(34.875,0)">
					<title>Sheet.43</title>
					<path d="M2.63 390.75 L0 385.5 L2.63 386.81 L5.25 385.5 L2.63 390.75 Z" class="st4"/>
				</g>
			</g>
			<g id="group44-93" transform="translate(239.978,-297.375)" v:mID="44" v:groupContext="group">
				<title>Sheet.44</title>
				<g id="shape45-94" v:mID="45" v:groupContext="shape" transform="translate(-1.00919E-13,-2.625)">
					<title>Sheet.45</title>
					<path d="M0 390.75 L15.02 390.75 L7.52 390.75 L17.74 390.75 L0 390.75 Z" class="st2"/>
					<path d="M0 390.75 L15.02 390.75 L7.52 390.75 L17.74 390.75" class="st3"/>
				</g>
				<g id="shape46-97" v:mID="46" v:groupContext="shape" transform="translate(16.4325,0)">
					<title>Sheet.46</title>
					<path d="M5.25 388.12 L0 390.75 L1.31 388.12 L0 385.5 L5.25 388.12 Z" class="st4"/>
				</g>
			</g>
			<g id="group47-99" transform="translate(195,-199.59)" v:mID="47" v:groupContext="group">
				<title>Sheet.47</title>
				<g id="shape48-100" v:mID="48" v:groupContext="shape" transform="translate(6.39488E-14,-3.9375)">
					<title>Sheet.48</title>
					<path d="M0 316.78 C0 336.78 31.25 346.78 93.75 346.78 C156.25 346.78 187.5 361.43 187.5 390.75 L0 316.78 Z"
							class="st2"/>
					<path d="M0 316.78 C0 336.78 31.25 346.78 93.75 346.78 C156.25 346.78 187.5 361.43 187.5 390.75" class="st3"/>
				</g>
				<g id="shape49-103" v:mID="49" v:groupContext="shape" transform="translate(184.875,-5.68434E-14)">
					<title>Sheet.49</title>
					<path d="M2.62 390.75 L0 385.5 L2.62 386.81 L5.25 385.5 L2.62 390.75 Z" class="st4"/>
				</g>
			</g>
			<g id="group50-105" transform="translate(149.978,-277.5)" v:mID="50" v:groupContext="group">
				<title>Sheet.50</title>
				<desc>Triage support agent</desc>
				<g id="group51-106" v:mID="51" v:groupContext="group">
					<title>Sheet.51</title>
					<g id="shape52-107" v:mID="52" v:groupContext="shape">
						<title>Sheet.52</title>
						<rect x="0" y="345.75" width="90" height="45" class="st7"/>
					</g>
					<g id="shape53-109" v:mID="53" v:groupContext="shape" transform="translate(9,0)">
						<title>Sheet.53</title>
						<path d="M0 345.75 L0 390.75 L0 345.75 ZM72 345.75 L72 390.75 L72 345.75 Z" class="st2"/>
						<path d="M0 345.75 L0 390.75M72 345.75 L72 390.75" class="st8"/>
					</g>
				</g>
				<g id="shape50-112" v:mID="50" v:groupContext="groupContent">
					<v:textBlock v:margins="rect(0,0,0,0)"/>
					<v:textRect cx="45" cy="368.25" width="90" height="45"/>
					<text x="15.99" y="365.55" class="st9" v:langID="1033"><v:paragraph v:horizAlign="1"/><v:tabList/>Triage support <v:newlineChar/><tspan
								x="33.64" dy="1.2em" class="st10">agent</tspan></text>				</g>
			</g>
			<g id="group55-115" transform="translate(274.875,-23.34)" v:mID="55" v:groupContext="group">
				<title>Sheet.55</title>
				<g id="shape56-116" v:mID="56" v:groupContext="shape" transform="translate(2.625,-3.9375)">
					<title>Sheet.56</title>
					<path d="M0 373.03 L0 388.03 L0 380.53 L0 390.75 L0 373.03 Z" class="st2"/>
					<path d="M0 373.03 L0 388.03 L0 380.53 L0 390.75" class="st3"/>
				</g>
				<g id="shape57-119" v:mID="57" v:groupContext="shape">
					<title>Sheet.57</title>
					<path d="M2.63 390.75 L0 385.5 L2.63 386.81 L5.25 385.5 L2.63 390.75 Z" class="st4"/>
				</g>
			</g>
			<g id="group58-121" transform="translate(232.5,-45)" v:mID="58" v:groupContext="group">
				<title>Sheet.58</title>
				<desc>Customer support employee</desc>
				<g id="group59-122" v:mID="59" v:groupContext="group">
					<title>Sheet.59</title>
					<g id="shape60-123" v:mID="60" v:groupContext="shape">
						<title>Sheet.60</title>
						<rect x="0" y="345.75" width="90" height="45" class="st13"/>
					</g>
					<g id="shape61-125" v:mID="61" v:groupContext="shape" transform="translate(9,0)">
						<title>Sheet.61</title>
						<path d="M0 345.75 L0 390.75 L0 345.75 ZM72 345.75 L72 390.75 L72 345.75 Z" class="st2"/>
						<path d="M0 345.75 L0 390.75M72 345.75 L72 390.75" class="st14"/>
					</g>
				</g>
				<g id="shape58-128" v:mID="58" v:groupContext="groupContent">
					<v:textBlock v:margins="rect(0,0,0,0)"/>
					<v:textRect cx="45" cy="368.25" width="90" height="45"/>
					<text x="25.8" y="360.15" class="st9" v:langID="1033"><v:paragraph v:horizAlign="1"/><v:tabList/>Customer <v:newlineChar/><tspan
								x="29.53" dy="1.2em" class="st10">support <v:newlineChar/></tspan><tspan x="25.51" dy="1.2em"
								class="st10">employee</tspan></text>				</g>
			</g>
			<g id="group63-132" transform="translate(67.4925,-120)" v:mID="63" v:groupContext="group">
				<title>Sheet.63</title>
				<desc>Model, infrastructure knowledge, and tools</desc>
				<g id="shape64-133" v:mID="64" v:groupContext="shape">
					<title>Sheet.64</title>
					<path d="M0 384 A6.75016 6.75016 -180 0 0 6.75 390.75 L68.23 390.75 A6.75016 6.75016 -180 0 0 74.98 384 L74.98
								 352.5 A6.75016 6.75016 -180 0 0 68.23 345.75 L6.75 345.75 A6.75016 6.75016 -180 0 0 -0 352.5 L0
								 384 Z" class="st11"/>
				</g>
				<g id="shape63-135" v:mID="63" v:groupContext="groupContent">
					<v:textBlock v:margins="rect(0,0,0,0)"/>
					<v:textRect cx="37.4888" cy="368.25" width="74.98" height="45"/>
					<text x="25.27" y="356.25" class="st12" v:langID="1033"><v:paragraph v:horizAlign="1"/><v:tabList/>Model,<v:newlineChar/><tspan
								x="13.92" dy="1.2em" class="st10">infrastructure </tspan><tspan x="9.52" dy="1.2em" class="st10">knowledge, and </tspan><tspan
								x="28.78" dy="1.2em" class="st10">tools</tspan></text>				</g>
			</g>
			<g id="group66-140" transform="translate(232.5,-154.59)" v:mID="66" v:groupContext="group">
				<title>Sheet.66</title>
				<g id="shape67-141" v:mID="67" v:groupContext="shape" transform="translate(-7.19425E-13,-3.9375)">
					<title>Sheet.67</title>
					<path d="M0 369.28 L0 376.78 L75 376.78 L75 390.75 L0 369.28 Z" class="st2"/>
					<path d="M0 369.28 L0 376.78 L75 376.78 L75 390.75" class="st3"/>
				</g>
				<g id="shape68-144" v:mID="68" v:groupContext="shape" transform="translate(72.375,-5.68434E-14)">
					<title>Sheet.68</title>
					<path d="M2.62 390.75 L0 385.5 L2.62 386.81 L5.25 385.5 L2.62 390.75 Z" class="st4"/>
				</g>
			</g>
			<g id="group69-146" transform="translate(172.5,-64.875)" v:mID="69" v:groupContext="group">
				<title>Sheet.69</title>
				<g id="shape70-147" v:mID="70" v:groupContext="shape" transform="translate(-1.67866E-13,-2.625)">
					<title>Sheet.70</title>
					<path d="M14.98 255.75 C4.99 255.75 0 278.25 0 323.25 C0 368.25 18.41 390.75 55.22 390.75 L14.98 255.75 Z"
							class="st2"/>
					<path d="M14.98 255.75 C4.99 255.75 0 278.25 0 323.25 C0 368.25 18.41 390.75 55.22 390.75" class="st3"/>
				</g>
				<g id="shape71-150" v:mID="71" v:groupContext="shape" transform="translate(53.91,-5.68434E-14)">
					<title>Sheet.71</title>
					<path d="M5.25 388.12 L0 390.75 L1.31 388.12 L0 385.5 L5.25 388.12 Z" class="st4"/>
				</g>
			</g>
			<g id="group72-152" transform="translate(277.478,-173.625)" v:mID="72" v:groupContext="group">
				<title>Sheet.72</title>
				<g id="shape73-153" v:mID="73" v:groupContext="shape" transform="translate(8.71303E-13,-2.625)">
					<title>Sheet.73</title>
					<path d="M0 364.5 C20.02 364.5 30.02 368.88 30.02 377.63 C30.02 386.37 38.43 390.75 55.25 390.75 L0 364.5 Z"
							class="st2"/>
					<path d="M0 364.5 C20.02 364.5 30.02 368.88 30.02 377.63 C30.02 386.37 38.43 390.75 55.25 390.75" class="st3"/>
				</g>
				<g id="shape74-156" v:mID="74" v:groupContext="shape" transform="translate(53.9325,0)">
					<title>Sheet.74</title>
					<path d="M5.25 388.13 L0 390.75 L1.31 388.13 L0 385.5 L5.25 388.13 Z" class="st4"/>
				</g>
			</g>
			<g id="group75-158" transform="translate(187.478,-180)" v:mID="75" v:groupContext="group">
				<title>Sheet.75</title>
				<desc>Financial resolution agent</desc>
				<g id="group76-159" v:mID="76" v:groupContext="group">
					<title>Sheet.76</title>
					<g id="shape77-160" v:mID="77" v:groupContext="shape">
						<title>Sheet.77</title>
						<rect x="0" y="345.75" width="90" height="45" class="st7"/>
					</g>
					<g id="shape78-162" v:mID="78" v:groupContext="shape" transform="translate(9,0)">
						<title>Sheet.78</title>
						<path d="M0 345.75 L0 390.75 L0 345.75 ZM72 345.75 L72 390.75 L72 345.75 Z" class="st2"/>
						<path d="M0 345.75 L0 390.75M72 345.75 L72 390.75" class="st8"/>
					</g>
				</g>
				<g id="shape75-165" v:mID="75" v:groupContext="groupContent">
					<v:textBlock v:margins="rect(0,0,0,0)"/>
					<v:textRect cx="45" cy="368.25" width="90" height="45"/>
					<text x="27.78" y="365.55" class="st9" v:langID="1033"><v:paragraph v:horizAlign="1"/><v:tabList/>Financial <v:newlineChar/><tspan
								x="12.5" dy="1.2em" class="st10">resolution agent</tspan></text>				</g>
			</g>
			<g id="group80-168" transform="translate(60,-277.5)" v:mID="80" v:groupContext="group">
				<title>Sheet.80</title>
				<desc>Model and general knowledge</desc>
				<g id="shape81-169" v:mID="81" v:groupContext="shape">
					<title>Sheet.81</title>
					<path d="M0 384 A6.75016 6.75016 -180 0 0 6.75 390.75 L68.25 390.75 A6.75016 6.75016 -180 0 0 75 384 L75 352.5
								 A6.75016 6.75016 -180 0 0 68.25 345.75 L6.75 345.75 A6.75016 6.75016 -180 0 0 0 352.5 L0 384 Z"
							class="st11"/>
				</g>
				<g id="shape80-171" v:mID="80" v:groupContext="groupContent">
					<v:textBlock v:margins="rect(0,0,0,0)"/>
					<v:textRect cx="37.5" cy="368.25" width="75" height="45"/>
					<text x="16.01" y="360.15" class="st9" v:langID="1033"><v:paragraph v:horizAlign="1"/><v:tabList/>Model and <tspan
								x="22.65" dy="1.2em" class="st10">general </tspan><tspan x="15.73" dy="1.2em" class="st10">knowledge</tspan></text>				</g>
			</g>
			<g id="group83-175" transform="translate(-2.31815E-13,-191.25)" v:mID="83" v:groupContext="group">
				<title>Sheet.83</title>
				<desc>Result</desc>
				<g id="shape84-176" v:mID="84" v:groupContext="shape">
					<title>Sheet.84</title>
					<path d="M0 387.37 A3.37508 3.37508 -180 0 0 3.37 390.75 L41.63 390.75 A3.37508 3.37508 -180 0 0 45 387.37 L45
								 371.62 A3.37508 3.37508 -180 0 0 41.63 368.25 L3.37 368.25 A3.37508 3.37508 -180 0 0 0 371.62 L0
								 387.37 Z" class="st5"/>
				</g>
				<g id="shape83-178" v:mID="83" v:groupContext="groupContent">
					<v:textBlock v:margins="rect(0,0,0,0)"/>
					<v:textRect cx="22.5" cy="379.5" width="45.01" height="22.5"/>
					<text x="9.04" y="382.5" class="st6" v:langID="1033"><v:paragraph v:horizAlign="1"/><v:tabList/>Result</text>				</g>
			</g>
			<g id="group86-180" transform="translate(285,-131.25)" v:mID="86" v:groupContext="group">
				<title>Sheet.86</title>
				<desc>Result</desc>
				<g id="shape87-181" v:mID="87" v:groupContext="shape">
					<title>Sheet.87</title>
					<path d="M0 387.37 A3.37508 3.37508 -180 0 0 3.37 390.75 L41.63 390.75 A3.37508 3.37508 -180 0 0 45 387.37 L45
								 371.62 A3.37508 3.37508 -180 0 0 41.63 368.25 L3.37 368.25 A3.37508 3.37508 -180 0 0 0 371.62 L0
								 387.37 Z" class="st5"/>
				</g>
				<g id="shape86-183" v:mID="86" v:groupContext="groupContent">
					<v:textBlock v:margins="rect(0,0,0,0)"/>
					<v:textRect cx="22.5" cy="379.5" width="45.01" height="22.5"/>
					<text x="9.04" y="382.5" class="st6" v:langID="1033"><v:paragraph v:horizAlign="1"/><v:tabList/>Result</text>				</g>
			</g>
			<g id="group89-185" transform="translate(450,-165)" v:mID="89" v:groupContext="group">
				<title>Sheet.89</title>
				<desc>Result</desc>
				<g id="shape90-186" v:mID="90" v:groupContext="shape">
					<title>Sheet.90</title>
					<path d="M0 387.37 A3.37508 3.37508 -180 0 0 3.37 390.75 L41.63 390.75 A3.37508 3.37508 -180 0 0 45 387.37 L45
								 371.62 A3.37508 3.37508 -180 0 0 41.63 368.25 L3.37 368.25 A3.37508 3.37508 -180 0 0 0 371.62 L0
								 387.37 Z" class="st5"/>
				</g>
				<g id="shape89-188" v:mID="89" v:groupContext="groupContent">
					<v:textBlock v:margins="rect(0,0,0,0)"/>
					<v:textRect cx="22.5" cy="379.5" width="45.01" height="22.5"/>
					<text x="9.04" y="382.5" class="st6" v:langID="1033"><v:paragraph v:horizAlign="1"/><v:tabList/>Result</text>				</g>
			</g>
			<g id="group92-190" transform="translate(262.5,-288.75)" v:mID="92" v:groupContext="group">
				<title>Sheet.92</title>
				<desc>Result</desc>
				<g id="shape93-191" v:mID="93" v:groupContext="shape">
					<title>Sheet.93</title>
					<path d="M0 387.37 A3.37508 3.37508 -180 0 0 3.37 390.75 L41.63 390.75 A3.37508 3.37508 -180 0 0 45 387.37 L45
								 371.62 A3.37508 3.37508 -180 0 0 41.63 368.25 L3.37 368.25 A3.37508 3.37508 -180 0 0 0 371.62 L0
								 387.37 Z" class="st5"/>
				</g>
				<g id="shape92-193" v:mID="92" v:groupContext="groupContent">
					<v:textBlock v:margins="rect(0,0,0,0)"/>
					<v:textRect cx="22.5" cy="379.5" width="45.01" height="22.5"/>
					<text x="9.04" y="382.5" class="st6" v:langID="1033"><v:paragraph v:horizAlign="1"/><v:tabList/>Result</text>				</g>
			</g>
			<g id="group95-195" transform="translate(255,0)" v:mID="95" v:groupContext="group">
				<title>Sheet.95</title>
				<desc>Result</desc>
				<g id="shape96-196" v:mID="96" v:groupContext="shape">
					<title>Sheet.96</title>
					<path d="M0 387.37 A3.37508 3.37508 -180 0 0 3.37 390.75 L41.63 390.75 A3.37508 3.37508 -180 0 0 45 387.37 L45
								 371.62 A3.37508 3.37508 -180 0 0 41.63 368.25 L3.37 368.25 A3.37508 3.37508 -180 0 0 0 371.62 L0
								 387.37 Z" class="st5"/>
				</g>
				<g id="shape95-198" v:mID="95" v:groupContext="groupContent">
					<v:textBlock v:margins="rect(0,0,0,0)"/>
					<v:textRect cx="22.5" cy="379.5" width="45.01" height="22.5"/>
					<text x="9.04" y="382.5" class="st6" v:langID="1033"><v:paragraph v:horizAlign="1"/><v:tabList/>Result</text>				</g>
			</g>
		</g>
	</g>
</svg>
