<?xml version="1.0" encoding="UTF-8" standalone="no"?>
<!DOCTYPE svg PUBLIC "-//W3C//DTD SVG 1.1//EN" "http://www.w3.org/Graphics/SVG/1.1/DTD/svg11.dtd">
<!-- Generated by Microsoft Visio, SVG Export handoff-pattern-sample.svg handoff-pattern-sample -->
<svg xmlns="http://www.w3.org/2000/svg" xmlns:xlink="http://www.w3.org/1999/xlink" xmlns:ev="http://www.w3.org/2001/xml-events"
		xmlns:v="http://schemas.microsoft.com/visio/2003/SVGExtensions/" width="7.3125in" height="5.4375in"
		viewBox="0 0 526.5 391.5" xml:space="preserve" color-interpolation-filters="sRGB" class="st21">
	<v:documentProperties v:langID="2052" v:viewMarkup="false"/>

	<style type="text/css">
	<![CDATA[
		.st1 {fill:#ffffff;stroke:none;stroke-linecap:butt;stroke-width:0.75}
		.st2 {fill:none}
		.st3 {stroke:#000000;stroke-linecap:butt;stroke-width:0.75}
		.st4 {fill:#000000;stroke:#000000;stroke-linecap:butt;stroke-width:0.75}
		.st5 {fill:#ffffff;stroke:#000000;stroke-linecap:butt;stroke-width:0.75}
		.st6 {fill:#000000;font-family:Segoe UI;font-size:0.833336em}
		.st7 {stroke:#b1b1b1;stroke-linecap:butt;stroke-width:0.75}
		.st8 {fill:#b1b1b1;stroke:#b1b1b1;stroke-linecap:butt;stroke-width:0.75}
		.st9 {fill:#dae8fc;stroke:#6c8ebf;stroke-linecap:butt;stroke-width:0.75}
		.st10 {stroke:#6c8ebf;stroke-linecap:butt;stroke-width:0.75}
		.st11 {fill:#000000;font-family:Segoe UI;font-size:0.75em}
		.st12 {font-size:1em}
		.st13 {fill:#fff2cc;stroke:#d6b656;stroke-linecap:butt;stroke-width:0.75}
		.st14 {fill:#000000;font-family:Segoe UI;font-size:0.666664em}
		.st15 {fill:#f5f5f5;stroke:#666666;stroke-linecap:butt;stroke-width:0.75}
		.st16 {stroke:#666666;stroke-linecap:butt;stroke-width:0.75}
		.st17 {stroke:#aaaaaa;stroke-linecap:butt;stroke-width:0.75}
		.st18 {fill:#aaaaaa;stroke:#aaaaaa;stroke-linecap:butt;stroke-width:0.75}
		.st19 {fill:#f5f5f5;stroke:#b1b1b1;stroke-linecap:butt;stroke-width:0.75}
		.st20 {fill:#ffffff;stroke:none;stroke-linecap:round;stroke-linejoin:round;stroke-width:0.75}
		.st21 {fill:none;fill-rule:evenodd;font-size:12px;overflow:visible;stroke-linecap:square;stroke-miterlimit:3}
	]]>
	</style>

	<g v:mID="0" v:index="1" v:groupContext="foregroundPage">
		<title>handoff-pattern-sample</title>
		<v:pageProperties v:drawingScale="1" v:pageScale="1" v:drawingUnits="19" v:shadowOffsetX="9" v:shadowOffsetY="-9"/>
		<g id="shape1-1" v:mID="1" v:groupContext="shape" transform="translate(0.375,0.375)">
			<title>Sheet.1</title>
			<rect x="0" y="0" width="526.5" height="391.5" class="st1"/>
		</g>
		<g id="group2-3" transform="translate(15.375,-16.125)" v:mID="2" v:groupContext="group">
			<title>Sheet.2</title>
			<g id="group3-4" transform="translate(192.375,-322.5)" v:mID="3" v:groupContext="group">
				<title>Sheet.3</title>
				<g id="shape4-5" v:mID="4" v:groupContext="shape" transform="translate(2.625,-5.68434E-14)">
					<title>Sheet.4</title>
					<path d="M0 376.5 L0 391.5 L0 376.5 L0 386.72 L0 376.5 Z" class="st2"/>
					<path d="M0 376.5 L0 391.5 L0 376.5 L0 386.72" class="st3"/>
				</g>
				<g id="shape5-8" v:mID="5" v:groupContext="shape" transform="translate(1.02918E-13,-0.84)">
					<title>Sheet.5</title>
					<path d="M2.63 391.5 L0 386.25 L2.63 387.56 L5.25 386.25 L2.63 391.5 Z" class="st4"/>
				</g>
			</g>
			<g id="group6-10" transform="translate(172.478,-337.5)" v:mID="6" v:groupContext="group">
				<title>Sheet.6</title>
				<desc>Input</desc>
				<g id="shape7-11" v:mID="7" v:groupContext="shape">
					<title>Sheet.7</title>
					<path d="M0 388.12 A3.37508 3.37508 -180 0 0 3.37 391.5 L41.63 391.5 A3.37508 3.37508 -180 0 0 45 388.12 L45
								 372.37 A3.37508 3.37508 -180 0 0 41.63 369 L3.37 369 A3.37508 3.37508 -180 0 0 0 372.37 L0 388.12
								 Z" class="st5"/>
				</g>
				<g id="shape6-13" v:mID="6" v:groupContext="groupContent">
					<v:textBlock v:margins="rect(0,0,0,0)"/>
					<v:textRect cx="22.5" cy="380.25" width="45.01" height="22.5"/>
					<text x="10.88" y="383.25" class="st6" v:langID="1033"><v:paragraph v:horizAlign="1"/><v:tabList/>Input</text>				</g>
			</g>
			<g id="shape9-15" v:mID="9" v:groupContext="shape" transform="translate(105,-165)">
				<title>Sheet.9</title>
				<path d="M0 376.5 L0 391.5 L0 376.5 L0 391.5 L0 376.5 Z" class="st2"/>
				<path d="M0 376.5 L0 391.5 L0 376.5 L0 391.5" class="st3"/>
			</g>
			<g id="group10-18" transform="translate(45,-199.875)" v:mID="10" v:groupContext="group">
				<title>Sheet.10</title>
				<g id="shape11-19" v:mID="11" v:groupContext="shape" transform="translate(-7.89369E-14,-2.625)">
					<title>Sheet.11</title>
					<path d="M14.98 391.5 L0 391.5 L15 391.5 L4.78 391.5 L14.98 391.5 Z" class="st2"/>
					<path d="M14.98 391.5 L0 391.5 L15 391.5 L4.78 391.5" class="st7"/>
				</g>
				<g id="shape12-22" v:mID="12" v:groupContext="shape" transform="translate(0.84,5.68434E-14)">
					<title>Sheet.12</title>
					<path d="M0 388.88 L5.25 386.25 L3.94 388.88 L5.25 391.5 L0 388.88 Z" class="st8"/>
				</g>
			</g>
			<g id="group13-24" transform="translate(59.9775,-180)" v:mID="13" v:groupContext="group">
				<title>Sheet.13</title>
				<desc>Technical infrastructure agent</desc>
				<g id="group14-25" v:mID="14" v:groupContext="group">
					<title>Sheet.14</title>
					<g id="shape15-26" v:mID="15" v:groupContext="shape">
						<title>Sheet.15</title>
						<rect x="0" y="346.5" width="90" height="45" class="st9"/>
					</g>
					<g id="shape16-28" v:mID="16" v:groupContext="shape" transform="translate(9,0)">
						<title>Sheet.16</title>
						<path d="M0 346.5 L0 391.5 L0 346.5 ZM72 346.5 L72 391.5 L72 346.5 Z" class="st2"/>
						<path d="M0 346.5 L0 391.5M72 346.5 L72 391.5" class="st10"/>
					</g>
				</g>
				<g id="shape13-31" v:mID="13" v:groupContext="groupContent">
					<v:textBlock v:margins="rect(0,0,0,0)"/>
					<v:textRect cx="45" cy="369" width="90" height="45"/>
					<text x="26.57" y="360.9" class="st11" v:langID="1033"><v:paragraph v:horizAlign="1"/><v:tabList/>Technical <tspan
								x="18.49" dy="1.2em" class="st12">infrastructure <v:newlineChar/></tspan><tspan x="33.64"
								dy="1.2em" class="st12">agent</tspan></text>				</g>
			</g>
			<g id="shape18-35" v:mID="18" v:groupContext="shape" transform="translate(232.477,-165)">
				<title>Sheet.18</title>
				<path d="M0 376.5 L0.02 391.5 L0.02 376.5 L0.02 391.5 L0 376.5 Z" class="st2"/>
				<path d="M0 376.5 L0.02 391.5 L0.02 376.5 L0.02 391.5" class="st3"/>
			</g>
			<g id="group19-38" transform="translate(323.34,-64.875)" v:mID="19" v:groupContext="group">
				<title>Sheet.19</title>
				<g id="group20-39" v:mID="20" v:groupContext="group">
					<title>Sheet.20</title>
					<g id="shape21-40" v:mID="21" v:groupContext="shape" transform="translate(3.9375,-2.625)">
						<title>Sheet.21</title>
						<path d="M55.22 305.25 C55.22 362.75 36.81 391.5 0 391.5 L55.22 305.25 Z" class="st2"/>
						<path d="M55.22 305.25 C55.22 362.75 36.81 391.5 0 391.5" class="st3"/>
					</g>
					<g id="shape22-43" v:mID="22" v:groupContext="shape">
						<title>Sheet.22</title>
						<path d="M0 388.87 L5.25 386.25 L3.94 388.87 L5.25 391.5 L0 388.87 Z" class="st4"/>
					</g>
				</g>
			</g>
			<g id="shape24-45" v:mID="24" v:groupContext="shape" transform="translate(408.75,-135)">
				<title>Sheet.24</title>
				<path d="M0 372.75 L0 384 L0 391.5 L0 372.75 Z" class="st2"/>
				<path d="M0 372.75 L0 384 L0 391.5" class="st3"/>
			</g>
			<g id="group25-48" transform="translate(427.5,-173.625)" v:mID="25" v:groupContext="group">
				<title>Sheet.25</title>
				<g id="shape26-49" v:mID="26" v:groupContext="shape" transform="translate(1.3689E-13,-2.625)">
					<title>Sheet.26</title>
					<path d="M0 391.5 L15 391.5 L7.5 391.5 L17.72 391.5 L0 391.5 Z" class="st2"/>
					<path d="M0 391.5 L15 391.5 L7.5 391.5 L17.72 391.5" class="st7"/>
				</g>
				<g id="shape27-52" v:mID="27" v:groupContext="shape" transform="translate(16.41,5.68434E-14)">
					<title>Sheet.27</title>
					<path d="M5.25 388.88 L0 391.5 L1.31 388.88 L0 386.25 L5.25 388.88 Z" class="st8"/>
				</g>
			</g>
			<g id="group28-54" transform="translate(337.5,-153.75)" v:mID="28" v:groupContext="group">
				<title>Sheet.28</title>
				<desc>Account access agent</desc>
				<g id="group29-55" v:mID="29" v:groupContext="group">
					<title>Sheet.29</title>
					<g id="shape30-56" v:mID="30" v:groupContext="shape">
						<title>Sheet.30</title>
						<rect x="0" y="346.5" width="90" height="45" class="st9"/>
					</g>
					<g id="shape31-58" v:mID="31" v:groupContext="shape" transform="translate(9,0)">
						<title>Sheet.31</title>
						<path d="M0 346.5 L0 391.5 L0 346.5 ZM72 346.5 L72 391.5 L72 346.5 Z" class="st2"/>
						<path d="M0 346.5 L0 391.5M72 346.5 L72 391.5" class="st10"/>
					</g>
				</g>
				<g id="shape28-61" v:mID="28" v:groupContext="groupContent">
					<v:textBlock v:margins="rect(0,0,0,0)"/>
					<v:textRect cx="45" cy="369" width="90" height="45"/>
					<text x="14.83" y="366.3" class="st11" v:langID="1033"><v:paragraph v:horizAlign="1"/><v:tabList/>Account access <v:newlineChar/><tspan
								x="33.64" dy="1.2em" class="st12">agent</tspan></text>				</g>
			</g>
			<g id="group33-64" transform="translate(194.992,-120)" v:mID="33" v:groupContext="group">
				<title>Sheet.33</title>
				<desc>Model, billing account knowledge, and billing API access</desc>
				<g id="shape34-65" v:mID="34" v:groupContext="shape">
					<title>Sheet.34</title>
					<path d="M0 384.75 A6.75016 6.75016 -180 0 0 6.75 391.5 L68.23 391.5 A6.75016 6.75016 -180 0 0 74.98 384.75 L74.98
								 353.25 A6.75016 6.75016 -180 0 0 68.23 346.5 L6.75 346.5 A6.75016 6.75016 -180 0 0 0 353.25 L0 384.75
								 Z" class="st13"/>
				</g>
				<g id="shape33-67" v:mID="33" v:groupContext="groupContent">
					<v:textBlock v:margins="rect(0,0,0,0)"/>
					<v:textRect cx="37.4888" cy="369" width="74.98" height="45"/>
					<text x="25.27" y="357" class="st14" v:langID="1033"><v:paragraph v:horizAlign="1"/><v:tabList/>Model,<v:newlineChar/><tspan
								x="11.59" dy="1.2em" class="st12">billing account </tspan><tspan x="9.52" dy="1.2em" class="st12">knowledge, and </tspan><tspan
								x="7.35" dy="1.2em" class="st12">billing API access</tspan></text>				</g>
			</g>
			<g id="group36-72" transform="translate(390,-97.5)" v:mID="36" v:groupContext="group">
				<title>Sheet.36</title>
				<desc>Model and customer knowledge</desc>
				<g id="shape37-73" v:mID="37" v:groupContext="shape">
					<title>Sheet.37</title>
					<path d="M0 385.87 A5.62513 5.62513 -180 0 0 5.63 391.5 L61.85 391.5 A5.62513 5.62513 -180 0 0 67.48 385.87 L67.48
								 359.62 A5.62513 5.62513 -180 0 0 61.85 354 L5.63 354 A5.62513 5.62513 -180 0 0 0 359.62 L0 385.87
								 Z" class="st13"/>
				</g>
				<g id="shape36-75" v:mID="36" v:groupContext="groupContent">
					<v:textBlock v:margins="rect(0,0,0,0)"/>
					<v:textRect cx="33.7387" cy="372.75" width="67.48" height="37.5"/>
					<text x="12.25" y="364.65" class="st11" v:langID="1033"><v:paragraph v:horizAlign="1"/><v:tabList/>Model and<v:newlineChar/><tspan
								x="15.25" dy="1.2em" class="st12">customer </tspan><tspan x="11.97" dy="1.2em" class="st12">knowledge</tspan></text>				</g>
			</g>
			<g id="shape39-79" v:mID="39" v:groupContext="shape" transform="translate(135,-300)">
				<title>Sheet.39</title>
				<path d="M14.98 391.5 L0 391.5 L15 391.5 L0 391.5 L14.98 391.5 Z" class="st2"/>
				<path d="M14.98 391.5 L0 391.5 L15 391.5 L0 391.5" class="st3"/>
			</g>
			<g id="group40-82" transform="translate(102.375,-225.84)" v:mID="40" v:groupContext="group">
				<title>Sheet.40</title>
				<g id="shape41-83" v:mID="41" v:groupContext="shape" transform="translate(2.625,-3.9375)">
					<title>Sheet.41</title>
					<path d="M90 343.78 C90 361.28 75 370.03 45 370.03 C15 370.03 0 377.18 0 391.5 L90 343.78 Z" class="st2"/>
					<path d="M90 343.78 C90 361.28 75 370.03 45 370.03 C15 370.03 0 377.18 0 391.5" class="st7"/>
				</g>
				<g id="shape42-86" v:mID="42" v:groupContext="shape">
					<title>Sheet.42</title>
					<path d="M2.62 391.5 L0 386.25 L2.62 387.56 L5.25 386.25 L2.62 391.5 Z" class="st8"/>
				</g>
			</g>
			<g id="group43-88" transform="translate(195,-225.84)" v:mID="43" v:groupContext="group">
				<title>Sheet.43</title>
				<g id="group44-89" v:mID="44" v:groupContext="group">
					<title>Sheet.44</title>
					<g id="shape45-90" v:mID="45" v:groupContext="shape" transform="translate(7.19425E-14,-3.9375)">
						<title>Sheet.45</title>
						<path d="M0 343.78 C0 361.28 6.25 370.03 18.75 370.03 C31.25 370.03 37.5 377.18 37.5 391.5 L0 343.78 Z"
								class="st2"/>
						<path d="M0 343.78 C0 361.28 6.25 370.03 18.75 370.03 C31.25 370.03 37.5 377.18 37.5 391.5" class="st3"/>
					</g>
					<g id="shape46-93" v:mID="46" v:groupContext="shape" transform="translate(34.875,0)">
						<title>Sheet.46</title>
						<path d="M2.63 391.5 L0 386.25 L2.63 387.56 L5.25 386.25 L2.63 391.5 Z" class="st4"/>
					</g>
				</g>
			</g>
			<g id="group48-95" transform="translate(239.978,-297.375)" v:mID="48" v:groupContext="group">
				<title>Sheet.48</title>
				<g id="shape49-96" v:mID="49" v:groupContext="shape" transform="translate(-1.00919E-13,-2.625)">
					<title>Sheet.49</title>
					<path d="M0 391.5 L15.02 391.5 L7.52 391.5 L17.74 391.5 L0 391.5 Z" class="st2"/>
					<path d="M0 391.5 L15.02 391.5 L7.52 391.5 L17.74 391.5" class="st3"/>
				</g>
				<g id="shape50-99" v:mID="50" v:groupContext="shape" transform="translate(16.4325,1.13687E-13)">
					<title>Sheet.50</title>
					<path d="M5.25 388.88 L0 391.5 L1.31 388.88 L0 386.25 L5.25 388.88 Z" class="st4"/>
				</g>
			</g>
			<g id="group51-101" transform="translate(195,-199.59)" v:mID="51" v:groupContext="group">
				<title>Sheet.51</title>
				<g id="shape52-102" v:mID="52" v:groupContext="shape" transform="translate(6.39488E-14,-3.9375)">
					<title>Sheet.52</title>
					<path d="M0 317.53 C0 337.53 31.25 347.53 93.75 347.53 C156.25 347.53 187.5 362.18 187.5 391.5 L0 317.53 Z"
							class="st2"/>
					<path d="M0 317.53 C0 337.53 31.25 347.53 93.75 347.53 C156.25 347.53 187.5 362.18 187.5 391.5" class="st7"/>
				</g>
				<g id="shape53-105" v:mID="53" v:groupContext="shape" transform="translate(184.875,-5.68434E-14)">
					<title>Sheet.53</title>
					<path d="M2.62 391.5 L0 386.25 L2.62 387.56 L5.25 386.25 L2.62 391.5 Z" class="st8"/>
				</g>
			</g>
			<g id="group54-107" transform="translate(149.978,-277.5)" v:mID="54" v:groupContext="group">
				<title>Sheet.54</title>
				<desc>Triage support agent</desc>
				<g id="group55-108" v:mID="55" v:groupContext="group">
					<title>Sheet.55</title>
					<g id="shape56-109" v:mID="56" v:groupContext="shape">
						<title>Sheet.56</title>
						<rect x="0" y="346.5" width="90" height="45" class="st9"/>
					</g>
					<g id="shape57-111" v:mID="57" v:groupContext="shape" transform="translate(9,0)">
						<title>Sheet.57</title>
						<path d="M0 346.5 L0 391.5 L0 346.5 ZM72 346.5 L72 391.5 L72 346.5 Z" class="st2"/>
						<path d="M0 346.5 L0 391.5M72 346.5 L72 391.5" class="st10"/>
					</g>
				</g>
				<g id="shape54-114" v:mID="54" v:groupContext="groupContent">
					<v:textBlock v:margins="rect(0,0,0,0)"/>
					<v:textRect cx="45" cy="369" width="90" height="45"/>
					<text x="15.99" y="366.3" class="st11" v:langID="1033"><v:paragraph v:horizAlign="1"/><v:tabList/>Triage support <v:newlineChar/><tspan
								x="33.64" dy="1.2em" class="st12">agent</tspan></text>				</g>
			</g>
			<g id="group59-117" transform="translate(274.875,-23.34)" v:mID="59" v:groupContext="group">
				<title>Sheet.59</title>
				<g id="shape60-118" v:mID="60" v:groupContext="shape" transform="translate(2.625,-3.9375)">
					<title>Sheet.60</title>
					<path d="M0 373.78 L0 388.78 L0 381.28 L0 391.5 L0 373.78 Z" class="st2"/>
					<path d="M0 373.78 L0 388.78 L0 381.28 L0 391.5" class="st3"/>
				</g>
				<g id="shape61-121" v:mID="61" v:groupContext="shape">
					<title>Sheet.61</title>
					<path d="M2.63 391.5 L0 386.25 L2.63 387.56 L5.25 386.25 L2.63 391.5 Z" class="st4"/>
				</g>
			</g>
			<g id="group62-123" transform="translate(232.5,-45)" v:mID="62" v:groupContext="group">
				<title>Sheet.62</title>
				<desc>Customer support employee</desc>
				<g id="group63-124" v:mID="63" v:groupContext="group">
					<title>Sheet.63</title>
					<g id="shape64-125" v:mID="64" v:groupContext="shape">
						<title>Sheet.64</title>
						<rect x="0" y="346.5" width="90" height="45" class="st15"/>
					</g>
					<g id="shape65-127" v:mID="65" v:groupContext="shape" transform="translate(9,0)">
						<title>Sheet.65</title>
						<path d="M0 346.5 L0 391.5 L0 346.5 ZM72 346.5 L72 391.5 L72 346.5 Z" class="st2"/>
						<path d="M0 346.5 L0 391.5M72 346.5 L72 391.5" class="st16"/>
					</g>
				</g>
				<g id="shape62-130" v:mID="62" v:groupContext="groupContent">
					<v:textBlock v:margins="rect(0,0,0,0)"/>
					<v:textRect cx="45" cy="369" width="90" height="45"/>
					<text x="25.8" y="360.9" class="st11" v:langID="1033"><v:paragraph v:horizAlign="1"/><v:tabList/>Customer <v:newlineChar/><tspan
								x="29.53" dy="1.2em" class="st12">support <v:newlineChar/></tspan><tspan x="25.51" dy="1.2em"
								class="st12">employee</tspan></text>				</g>
			</g>
			<g id="group67-134" transform="translate(67.4925,-120)" v:mID="67" v:groupContext="group">
				<title>Sheet.67</title>
				<desc>Model, infrastructure knowledge, and tools</desc>
				<g id="shape68-135" v:mID="68" v:groupContext="shape">
					<title>Sheet.68</title>
					<path d="M0 384.75 A6.75016 6.75016 -180 0 0 6.75 391.5 L68.23 391.5 A6.75016 6.75016 -180 0 0 74.98 384.75 L74.98
								 353.25 A6.75016 6.75016 -180 0 0 68.23 346.5 L6.75 346.5 A6.75016 6.75016 -180 0 0 -0 353.25 L0
								 384.75 Z" class="st13"/>
				</g>
				<g id="shape67-137" v:mID="67" v:groupContext="groupContent">
					<v:textBlock v:margins="rect(0,0,0,0)"/>
					<v:textRect cx="37.4888" cy="369" width="74.98" height="45"/>
					<text x="25.27" y="357" class="st14" v:langID="1033"><v:paragraph v:horizAlign="1"/><v:tabList/>Model,<v:newlineChar/><tspan
								x="13.92" dy="1.2em" class="st12">infrastructure </tspan><tspan x="9.52" dy="1.2em" class="st12">knowledge, and </tspan><tspan
								x="28.78" dy="1.2em" class="st12">tools</tspan></text>				</g>
			</g>
			<g id="group70-142" transform="translate(255,-154.59)" v:mID="70" v:groupContext="group">
				<title>Sheet.70</title>
				<g id="shape71-143" v:mID="71" v:groupContext="shape" transform="translate(1.06315E-12,-3.9375)">
					<title>Sheet.71</title>
					<path d="M0 370.03 L0 377.53 L52.5 377.53 L52.5 391.5 L0 370.03 Z" class="st2"/>
					<path d="M0 370.03 L0 377.53 L52.5 377.53 L52.5 391.5" class="st7"/>
				</g>
				<g id="shape72-146" v:mID="72" v:groupContext="shape" transform="translate(49.875,-5.68434E-14)">
					<title>Sheet.72</title>
					<path d="M2.63 391.5 L0 386.25 L2.63 387.56 L5.25 386.25 L2.63 391.5 Z" class="st8"/>
				</g>
			</g>
			<g id="group73-148" transform="translate(172.5,-64.875)" v:mID="73" v:groupContext="group">
				<title>Sheet.73</title>
				<g id="shape74-149" v:mID="74" v:groupContext="shape" transform="translate(-1.67866E-13,-2.625)">
					<title>Sheet.74</title>
					<path d="M14.98 256.5 C4.99 256.5 0 279 0 324 C0 369 18.41 391.5 55.22 391.5 L14.98 256.5 Z" class="st2"/>
					<path d="M14.98 256.5 C4.99 256.5 0 279 0 324 C0 369 18.41 391.5 55.22 391.5" class="st17"/>
				</g>
				<g id="shape75-152" v:mID="75" v:groupContext="shape" transform="translate(53.91,-5.68434E-14)">
					<title>Sheet.75</title>
					<path d="M5.25 388.87 L0 391.5 L1.31 388.87 L0 386.25 L5.25 388.87 Z" class="st18"/>
				</g>
			</g>
			<g id="group76-154" transform="translate(277.478,-173.625)" v:mID="76" v:groupContext="group">
				<title>Sheet.76</title>
				<g id="group77-155" v:mID="77" v:groupContext="group">
					<title>Sheet.77</title>
					<g id="shape78-156" v:mID="78" v:groupContext="shape" transform="translate(8.71303E-13,-2.625)">
						<title>Sheet.78</title>
						<path d="M0 365.25 C20.02 365.25 30.02 369.63 30.02 378.38 C30.02 387.12 38.43 391.5 55.25 391.5 L0 365.25
									 Z" class="st2"/>
						<path d="M0 365.25 C20.02 365.25 30.02 369.63 30.02 378.38 C30.02 387.12 38.43 391.5 55.25 391.5"
								class="st3"/>
					</g>
					<g id="shape79-159" v:mID="79" v:groupContext="shape" transform="translate(53.9325,0)">
						<title>Sheet.79</title>
						<path d="M5.25 388.88 L0 391.5 L1.31 388.88 L0 386.25 L5.25 388.88 Z" class="st4"/>
					</g>
				</g>
			</g>
			<g id="group81-161" transform="translate(187.478,-180)" v:mID="81" v:groupContext="group">
				<title>Sheet.81</title>
				<desc>Financial resolution agent</desc>
				<g id="group82-162" v:mID="82" v:groupContext="group">
					<title>Sheet.82</title>
					<g id="shape83-163" v:mID="83" v:groupContext="shape">
						<title>Sheet.83</title>
						<rect x="0" y="346.5" width="90" height="45" class="st9"/>
					</g>
					<g id="shape84-165" v:mID="84" v:groupContext="shape" transform="translate(9,0)">
						<title>Sheet.84</title>
						<path d="M0 346.5 L0 391.5 L0 346.5 ZM72 346.5 L72 391.5 L72 346.5 Z" class="st2"/>
						<path d="M0 346.5 L0 391.5M72 346.5 L72 391.5" class="st10"/>
					</g>
				</g>
				<g id="shape81-168" v:mID="81" v:groupContext="groupContent">
					<v:textBlock v:margins="rect(0,0,0,0)"/>
					<v:textRect cx="45" cy="369" width="90" height="45"/>
					<text x="27.78" y="366.3" class="st11" v:langID="1033"><v:paragraph v:horizAlign="1"/><v:tabList/>Financial <v:newlineChar/><tspan
								x="12.5" dy="1.2em" class="st12">resolution agent</tspan></text>				</g>
			</g>
			<g id="group86-171" transform="translate(60,-277.5)" v:mID="86" v:groupContext="group">
				<title>Sheet.86</title>
				<desc>Model and general knowledge</desc>
				<g id="shape87-172" v:mID="87" v:groupContext="shape">
					<title>Sheet.87</title>
					<path d="M0 384.75 A6.75016 6.75016 -180 0 0 6.75 391.5 L68.25 391.5 A6.75016 6.75016 -180 0 0 75 384.75 L75
								 353.25 A6.75016 6.75016 -180 0 0 68.25 346.5 L6.75 346.5 A6.75016 6.75016 -180 0 0 0 353.25 L0 384.75
								 Z" class="st13"/>
				</g>
				<g id="shape86-174" v:mID="86" v:groupContext="groupContent">
					<v:textBlock v:margins="rect(0,0,0,0)"/>
					<v:textRect cx="37.5" cy="369" width="75" height="45"/>
					<text x="16.01" y="360.9" class="st11" v:langID="1033"><v:paragraph v:horizAlign="1"/><v:tabList/>Model and <tspan
								x="22.65" dy="1.2em" class="st12">general </tspan><tspan x="15.73" dy="1.2em" class="st12">knowledge</tspan></text>				</g>
			</g>
			<g id="group89-178" transform="translate(-2.31815E-13,-191.25)" v:mID="89" v:groupContext="group">
				<title>Sheet.89</title>
				<desc>Result</desc>
				<g id="shape90-179" v:mID="90" v:groupContext="shape">
					<title>Sheet.90</title>
					<path d="M0 388.12 A3.37508 3.37508 -180 0 0 3.37 391.5 L41.63 391.5 A3.37508 3.37508 -180 0 0 45 388.12 L45
								 372.37 A3.37508 3.37508 -180 0 0 41.63 369 L3.37 369 A3.37508 3.37508 -180 0 0 0 372.37 L0 388.12
								 Z" class="st19"/>
				</g>
				<g id="shape89-181" v:mID="89" v:groupContext="groupContent">
					<v:textBlock v:margins="rect(0,0,0,0)"/>
					<v:textRect cx="22.5" cy="380.25" width="45.01" height="22.5"/>
					<text x="9.04" y="383.25" class="st6" v:langID="1033"><v:paragraph v:horizAlign="1"/><v:tabList/>Result</text>				</g>
			</g>
			<g id="group92-183" transform="translate(285,-131.25)" v:mID="92" v:groupContext="group">
				<title>Sheet.92</title>
				<desc>Result</desc>
				<g id="shape93-184" v:mID="93" v:groupContext="shape">
					<title>Sheet.93</title>
					<path d="M0 388.12 A3.37508 3.37508 -180 0 0 3.37 391.5 L41.63 391.5 A3.37508 3.37508 -180 0 0 45 388.12 L45
								 372.37 A3.37508 3.37508 -180 0 0 41.63 369 L3.37 369 A3.37508 3.37508 -180 0 0 0 372.37 L0 388.12
								 Z" class="st19"/>
				</g>
				<g id="shape92-186" v:mID="92" v:groupContext="groupContent">
					<v:textBlock v:margins="rect(0,0,0,0)"/>
					<v:textRect cx="22.5" cy="380.25" width="45.01" height="22.5"/>
					<text x="10.38" y="382.95" class="st11" v:langID="1033"><v:paragraph v:horizAlign="1"/><v:tabList/>Result</text>				</g>
			</g>
			<g id="group95-188" transform="translate(450,-165)" v:mID="95" v:groupContext="group">
				<title>Sheet.95</title>
				<desc>Result</desc>
				<g id="shape96-189" v:mID="96" v:groupContext="shape">
					<title>Sheet.96</title>
					<path d="M0 388.12 A3.37508 3.37508 -180 0 0 3.37 391.5 L41.63 391.5 A3.37508 3.37508 -180 0 0 45 388.12 L45
								 372.37 A3.37508 3.37508 -180 0 0 41.63 369 L3.37 369 A3.37508 3.37508 -180 0 0 0 372.37 L0 388.12
								 Z" class="st19"/>
				</g>
				<g id="shape95-191" v:mID="95" v:groupContext="groupContent">
					<v:textBlock v:margins="rect(0,0,0,0)"/>
					<v:textRect cx="22.5" cy="380.25" width="45.01" height="22.5"/>
					<text x="10.38" y="382.95" class="st11" v:langID="1033"><v:paragraph v:horizAlign="1"/><v:tabList/>Result</text>				</g>
			</g>
			<g id="group98-193" transform="translate(262.5,-288.75)" v:mID="98" v:groupContext="group">
				<title>Sheet.98</title>
				<g id="shape99-194" v:mID="99" v:groupContext="shape">
					<title>Sheet.99</title>
					<desc>Result</desc>
					<v:textBlock v:margins="rect(0,0,0,0)"/>
					<v:textRect cx="22.5" cy="380.25" width="45.01" height="22.5"/>
					<path d="M0 388.12 A3.37508 3.37508 -180 0 0 3.37 391.5 L41.63 391.5 A3.37508 3.37508 -180 0 0 45 388.12 L45
								 372.37 A3.37508 3.37508 -180 0 0 41.63 369 L3.37 369 A3.37508 3.37508 -180 0 0 0 372.37 L0 388.12
								 Z" class="st5"/>
					<text x="9.04" y="383.25" class="st6" v:langID="1033"><v:paragraph v:horizAlign="1"/><v:tabList/>Result</text>				</g>
			</g>
			<g id="group101-197" transform="translate(255,0)" v:mID="101" v:groupContext="group">
				<title>Sheet.101</title>
				<desc>Result</desc>
				<g id="shape102-198" v:mID="102" v:groupContext="shape">
					<title>Sheet.102</title>
					<path d="M0 388.12 A3.37508 3.37508 -180 0 0 3.37 391.5 L41.63 391.5 A3.37508 3.37508 -180 0 0 45 388.12 L45
								 372.37 A3.37508 3.37508 -180 0 0 41.63 369 L3.37 369 A3.37508 3.37508 -180 0 0 0 372.37 L0 388.12
								 Z" class="st5"/>
				</g>
				<g id="shape101-200" v:mID="101" v:groupContext="groupContent">
					<v:textBlock v:margins="rect(0,0,0,0)"/>
					<v:textRect cx="22.5" cy="380.25" width="45.01" height="22.5"/>
					<text x="9.04" y="383.25" class="st6" v:langID="1033"><v:paragraph v:horizAlign="1"/><v:tabList/>Result</text>				</g>
			</g>
		</g>
		<g id="shape103-202" v:mID="103" v:groupContext="shape" transform="translate(213.499,-256.239)">
			<title>Sheet.103</title>
			<desc>Handoff</desc>
			<v:textBlock v:margins="rect(4,4,4,4)"/>
			<v:textRect cx="20.5006" cy="386.739" width="41.01" height="9.52238"/>
			<rect x="0" y="381.978" width="41.0013" height="9.52238" class="st20"/>
			<text x="8.32" y="389.14" class="st14" v:langID="1033"><v:paragraph v:horizAlign="2"/><v:tabList/>Handoff</text>		</g>
		<g id="shape104-205" v:mID="104" v:groupContext="shape" transform="translate(303.499,-202.239)">
			<title>Sheet.104</title>
			<desc>Handoff</desc>
			<v:textBlock v:margins="rect(4,4,4,4)"/>
			<v:textRect cx="20.5006" cy="386.739" width="41.01" height="9.52238"/>
			<rect x="0" y="381.978" width="41.0013" height="9.52238" class="st20"/>
			<text x="8.32" y="389.14" class="st14" v:langID="1033"><v:paragraph v:horizAlign="2"/><v:tabList/>Handoff</text>		</g>
		<g id="shape105-208" v:mID="105" v:groupContext="shape" transform="translate(356.625,-93.9776)">
			<title>Sheet.105</title>
			<desc>Handoff</desc>
			<v:textBlock v:margins="rect(4,4,4,4)"/>
			<v:textRect cx="20.5006" cy="386.739" width="41.01" height="9.52238"/>
			<rect x="0" y="381.978" width="41.0013" height="9.52238" class="st20"/>
			<text x="8.32" y="389.14" class="st14" v:langID="1033"><v:paragraph v:horizAlign="2"/><v:tabList/>Handoff</text>		</g>
	</g>
</svg>
