<?xml version="1.0" encoding="UTF-8" standalone="no"?>
<!DOCTYPE svg PUBLIC "-//W3C//DTD SVG 1.1//EN" "http://www.w3.org/Graphics/SVG/1.1/DTD/svg11.dtd">
<!-- Generated by Microsoft Visio, SVG Export sequential-pattern.svg sequential-pattern -->
<svg xmlns="http://www.w3.org/2000/svg" xmlns:xlink="http://www.w3.org/1999/xlink" xmlns:ev="http://www.w3.org/2001/xml-events"
		xmlns:v="http://schemas.microsoft.com/visio/2003/SVGExtensions/" width="7.71875in" height="2.30208in"
		viewBox="0 0 555.75 165.75" xml:space="preserve" color-interpolation-filters="sRGB" class="st15">
	<v:documentProperties v:langID="2052" v:viewMarkup="false"/>

	<style type="text/css">
	<![CDATA[
		.st1 {fill:#ffffff;stroke:none;stroke-linecap:butt;stroke-width:0.75}
		.st2 {fill:none}
		.st3 {stroke:#000000;stroke-linecap:butt;stroke-width:0.75}
		.st4 {fill:#000000;stroke:#000000;stroke-linecap:butt;stroke-width:0.75}
		.st5 {fill:#ffffff;stroke:#000000;stroke-linecap:butt;stroke-width:0.75}
		.st6 {fill:#000000;font-family:Segoe UI;font-size:0.833336em}
		.st7 {fill:#dae8fc;stroke:#6c8ebf;stroke-linecap:butt;stroke-width:0.75}
		.st8 {stroke:#6c8ebf;stroke-linecap:butt;stroke-width:0.75}
		.st9 {font-size:1em;font-style:italic}
		.st10 {fill:#fff2cc;stroke:#d6b656;stroke-linecap:butt;stroke-width:0.75}
		.st11 {font-size:1em}
		.st12 {fill:#ffe6cc;stroke:#d79b00;stroke-linecap:butt;stroke-width:0.75}
		.st13 {fill:none;stroke:none;stroke-linecap:butt;stroke-width:0.75}
		.st14 {fill:#000000;font-family:Segoe UI;font-size:0.666664em}
		.st15 {fill:none;fill-rule:evenodd;font-size:12px;overflow:visible;stroke-linecap:square;stroke-miterlimit:3}
	]]>
	</style>

	<g v:mID="0" v:index="1" v:groupContext="foregroundPage">
		<title>sequential-pattern</title>
		<v:pageProperties v:drawingScale="1" v:pageScale="1" v:drawingUnits="19" v:shadowOffsetX="9" v:shadowOffsetY="-9"/>
		<g id="shape1-1" v:mID="1" v:groupContext="shape" transform="translate(0.375,0.375)">
			<title>Sheet.1</title>
			<rect x="0" y="0" width="555.75" height="165.75" class="st1"/>
		</g>
		<g id="group2-3" transform="translate(15.375,-15.375)" v:mID="2" v:groupContext="group">
			<title>Sheet.2</title>
			<g id="group3-4" transform="translate(45,-109.875)" v:mID="3" v:groupContext="group">
				<title>Sheet.3</title>
				<g id="shape4-5" v:mID="4" v:groupContext="shape" transform="translate(1.21902E-13,-2.625)">
					<title>Sheet.4</title>
					<path d="M0 165.75 L17.72 165.75 L0 165.75 Z" class="st2"/>
					<path d="M0 165.75 L17.72 165.75" class="st3"/>
				</g>
				<g id="shape5-8" v:mID="5" v:groupContext="shape" transform="translate(16.41,2.84217E-14)">
					<title>Sheet.5</title>
					<path d="M5.25 163.12 L0 165.75 L1.31 163.12 L0 160.5 L5.25 163.12 Z" class="st4"/>
				</g>
			</g>
			<g id="group6-10" transform="translate(7.99361E-14,-97.5)" v:mID="6" v:groupContext="group">
				<title>Sheet.6</title>
				<desc>Input</desc>
				<g id="shape7-11" v:mID="7" v:groupContext="shape">
					<title>Sheet.7</title>
					<path d="M0 161.25 A4.5001 4.5001 -180 0 0 4.5 165.75 L40.5 165.75 A4.5001 4.5001 -180 0 0 45 161.25 L45 140.25
								 A4.5001 4.5001 -180 0 0 40.5 135.75 L4.5 135.75 A4.5001 4.5001 -180 0 0 0 140.25 L0 161.25 Z"
							class="st5"/>
				</g>
				<g id="shape6-13" v:mID="6" v:groupContext="groupContent">
					<v:textBlock v:margins="rect(0,0,0,0)"/>
					<v:textRect cx="22.5" cy="150.75" width="45.01" height="30"/>
					<text x="10.88" y="153.75" class="st6" v:langID="1033"><v:paragraph v:horizAlign="1"/><v:tabList/>Input</text>				</g>
			</g>
			<g id="group9-15" transform="translate(157.5,-109.875)" v:mID="9" v:groupContext="group">
				<title>Sheet.9</title>
				<g id="shape10-16" v:mID="10" v:groupContext="shape" transform="translate(1.14908E-13,-2.625)">
					<title>Sheet.10</title>
					<path d="M0 165.75 L17.72 165.75 L0 165.75 Z" class="st2"/>
					<path d="M0 165.75 L17.72 165.75" class="st3"/>
				</g>
				<g id="shape11-19" v:mID="11" v:groupContext="shape" transform="translate(16.41,2.84217E-14)">
					<title>Sheet.11</title>
					<path d="M5.25 163.12 L0 165.75 L1.31 163.12 L0 160.5 L5.25 163.12 Z" class="st4"/>
				</g>
			</g>
			<g id="shape12-21" v:mID="12" v:groupContext="shape" transform="translate(112.5,-75)">
				<title>Sheet.12</title>
				<path d="M0 150.75 L0 165.75 L0 150.75 Z" class="st2"/>
				<path d="M0 150.75 L0 165.75" class="st3"/>
			</g>
			<g id="group13-24" transform="translate(67.5,-90)" v:mID="13" v:groupContext="group">
				<title>Sheet.13</title>
				<desc>Agent 1</desc>
				<g id="group14-25" v:mID="14" v:groupContext="group">
					<title>Sheet.14</title>
					<g id="shape15-26" v:mID="15" v:groupContext="shape">
						<title>Sheet.15</title>
						<rect x="0" y="120.75" width="90" height="45" class="st7"/>
					</g>
					<g id="shape16-28" v:mID="16" v:groupContext="shape" transform="translate(9,2.55795E-13)">
						<title>Sheet.16</title>
						<path d="M0 120.75 L0 165.75 L0 120.75 ZM72 120.75 L72 165.75 L72 120.75 Z" class="st2"/>
						<path d="M0 120.75 L0 165.75M72 120.75 L72 165.75" class="st8"/>
					</g>
				</g>
				<g id="shape13-31" v:mID="13" v:groupContext="groupContent">
					<v:textBlock v:margins="rect(0,0,0,0)"/>
					<v:textRect cx="45" cy="143.25" width="90" height="45"/>
					<text x="27.63" y="146.25" class="st6" v:langID="1033"><v:paragraph v:horizAlign="1"/><v:tabList/>Agent 1</text>				</g>
			</g>
			<g id="shape18-33" v:mID="18" v:groupContext="shape" transform="translate(225,-75)">
				<title>Sheet.18</title>
				<path d="M0 150.75 L0 165.75 L0 150.75 L0 165.75 L0 150.75 Z" class="st2"/>
				<path d="M0 150.75 L0 165.75 L0 150.75 L0 165.75" class="st3"/>
			</g>
			<g id="group19-36" transform="translate(270,-109.875)" v:mID="19" v:groupContext="group">
				<title>Sheet.19</title>
				<g id="shape20-37" v:mID="20" v:groupContext="shape" transform="translate(1.3689E-13,-2.625)">
					<title>Sheet.20</title>
					<path d="M0 165.75 L17.72 165.75 L0 165.75 Z" class="st2"/>
					<path d="M0 165.75 L17.72 165.75" class="st3"/>
				</g>
				<g id="shape21-40" v:mID="21" v:groupContext="shape" transform="translate(16.41,2.84217E-14)">
					<title>Sheet.21</title>
					<path d="M5.25 163.12 L0 165.75 L1.31 163.12 L0 160.5 L5.25 163.12 Z" class="st4"/>
				</g>
			</g>
			<g id="group22-42" transform="translate(180,-90)" v:mID="22" v:groupContext="group">
				<title>Sheet.22</title>
				<desc>Agent 2</desc>
				<g id="group23-43" v:mID="23" v:groupContext="group">
					<title>Sheet.23</title>
					<g id="shape24-44" v:mID="24" v:groupContext="shape">
						<title>Sheet.24</title>
						<rect x="0" y="120.75" width="90" height="45" class="st7"/>
					</g>
					<g id="shape25-46" v:mID="25" v:groupContext="shape" transform="translate(9,2.55795E-13)">
						<title>Sheet.25</title>
						<path d="M0 120.75 L0 165.75 L0 120.75 ZM72 120.75 L72 165.75 L72 120.75 Z" class="st2"/>
						<path d="M0 120.75 L0 165.75M72 120.75 L72 165.75" class="st8"/>
					</g>
				</g>
				<g id="shape22-49" v:mID="22" v:groupContext="groupContent">
					<v:textBlock v:margins="rect(0,0,0,0)"/>
					<v:textRect cx="45" cy="143.25" width="90" height="45"/>
					<text x="27.63" y="146.25" class="st6" v:langID="1033"><v:paragraph v:horizAlign="1"/><v:tabList/>Agent 2</text>				</g>
			</g>
			<g id="group27-51" transform="translate(450,-109.875)" v:mID="27" v:groupContext="group">
				<title>Sheet.27</title>
				<g id="shape28-52" v:mID="28" v:groupContext="shape" transform="translate(1.14908E-13,-2.625)">
					<title>Sheet.28</title>
					<path d="M0 165.75 L15 165.75 L7.5 165.75 L17.72 165.75 L0 165.75 Z" class="st2"/>
					<path d="M0 165.75 L15 165.75 L7.5 165.75 L17.72 165.75" class="st3"/>
				</g>
				<g id="shape29-55" v:mID="29" v:groupContext="shape" transform="translate(16.41,2.84217E-14)">
					<title>Sheet.29</title>
					<path d="M5.25 163.12 L0 165.75 L1.31 163.12 L0 160.5 L5.25 163.12 Z" class="st4"/>
				</g>
			</g>
			<g id="shape30-57" v:mID="30" v:groupContext="shape" transform="translate(405,-75)">
				<title>Sheet.30</title>
				<path d="M0 150.75 L0 165.75 L0 150.75 Z" class="st2"/>
				<path d="M0 150.75 L0 165.75" class="st3"/>
			</g>
			<g id="group31-60" transform="translate(360,-90)" v:mID="31" v:groupContext="group">
				<title>Sheet.31</title>
				<desc>Agent n</desc>
				<g id="group32-61" v:mID="32" v:groupContext="group">
					<title>Sheet.32</title>
					<g id="shape33-62" v:mID="33" v:groupContext="shape">
						<title>Sheet.33</title>
						<rect x="0" y="120.75" width="90" height="45" class="st7"/>
					</g>
					<g id="shape34-64" v:mID="34" v:groupContext="shape" transform="translate(9,2.55795E-13)">
						<title>Sheet.34</title>
						<path d="M0 120.75 L0 165.75 L0 120.75 ZM72 120.75 L72 165.75 L72 120.75 Z" class="st2"/>
						<path d="M0 120.75 L0 165.75M72 120.75 L72 165.75" class="st8"/>
					</g>
				</g>
				<g id="shape31-67" v:mID="31" v:groupContext="groupContent">
					<v:textBlock v:margins="rect(0,0,0,0)"/>
					<v:textRect cx="45" cy="143.25" width="90" height="45"/>
					<text x="27.51" y="146.25" class="st6" v:langID="1033"><v:paragraph v:horizAlign="1"/><v:tabList/>Agent <tspan
								class="st9">n</tspan></text>				</g>
			</g>
			<g id="group36-70" transform="translate(472.5,-97.5)" v:mID="36" v:groupContext="group">
				<title>Sheet.36</title>
				<desc>Result</desc>
				<g id="shape37-71" v:mID="37" v:groupContext="shape">
					<title>Sheet.37</title>
					<path d="M0 161.25 A4.5001 4.5001 -180 0 0 4.5 165.75 L48 165.75 A4.5001 4.5001 -180 0 0 52.5 161.25 L52.5 140.25
								 A4.5001 4.5001 -180 0 0 48 135.75 L4.5 135.75 A4.5001 4.5001 -180 0 0 -0 140.25 L0 161.25 Z"
							class="st5"/>
				</g>
				<g id="shape36-73" v:mID="36" v:groupContext="groupContent">
					<v:textBlock v:margins="rect(0,0,0,0)"/>
					<v:textRect cx="26.25" cy="150.75" width="52.5" height="30"/>
					<text x="12.79" y="153.75" class="st6" v:langID="1033"><v:paragraph v:horizAlign="1"/><v:tabList/>Result</text>				</g>
			</g>
			<g id="group39-75" transform="translate(67.5,-30)" v:mID="39" v:groupContext="group">
				<title>Sheet.39</title>
				<desc>Model, knowledge, and tools</desc>
				<g id="shape40-76" v:mID="40" v:groupContext="shape">
					<title>Sheet.40</title>
					<path d="M0 159 A6.75016 6.75016 -180 0 0 6.75 165.75 L83.25 165.75 A6.75016 6.75016 -180 0 0 90 159 L90 127.5
								 A6.75016 6.75016 -180 0 0 83.25 120.75 L6.75 120.75 A6.75016 6.75016 -180 0 0 -0 127.5 L0 159 Z"
							class="st10"/>
				</g>
				<g id="shape39-78" v:mID="39" v:groupContext="groupContent">
					<v:textBlock v:margins="rect(0,0,0,0)"/>
					<v:textRect cx="45" cy="143.25" width="90" height="45"/>
					<text x="29.73" y="134.25" class="st6" v:langID="1033"><v:paragraph v:horizAlign="1"/><v:tabList/>Model,<v:newlineChar/><tspan
								x="19.73" dy="1.2em" class="st11">knowledge,<v:newlineChar/></tspan><tspan x="24.43" dy="1.2em"
								class="st11">and tools</tspan></text>				</g>
			</g>
			<g id="group42-82" transform="translate(180,-30)" v:mID="42" v:groupContext="group">
				<title>Sheet.42</title>
				<desc>Model, knowledge, and tools</desc>
				<g id="shape43-83" v:mID="43" v:groupContext="shape">
					<title>Sheet.43</title>
					<path d="M0 159 A6.75016 6.75016 -180 0 0 6.75 165.75 L83.25 165.75 A6.75016 6.75016 -180 0 0 90 159 L90 127.5
								 A6.75016 6.75016 -180 0 0 83.25 120.75 L6.75 120.75 A6.75016 6.75016 -180 0 0 -0 127.5 L0 159 Z"
							class="st10"/>
				</g>
				<g id="shape42-85" v:mID="42" v:groupContext="groupContent">
					<v:textBlock v:margins="rect(0,0,0,0)"/>
					<v:textRect cx="45" cy="143.25" width="90" height="45"/>
					<text x="29.73" y="134.25" class="st6" v:langID="1033"><v:paragraph v:horizAlign="1"/><v:tabList/>Model,<v:newlineChar/><tspan
								x="19.73" dy="1.2em" class="st11">knowledge,<v:newlineChar/></tspan><tspan x="24.43" dy="1.2em"
								class="st11">and tools</tspan></text>				</g>
			</g>
			<g id="group45-89" transform="translate(360,-30)" v:mID="45" v:groupContext="group">
				<title>Sheet.45</title>
				<desc>Model, knowledge, and tools</desc>
				<g id="shape46-90" v:mID="46" v:groupContext="shape">
					<title>Sheet.46</title>
					<path d="M0 159 A6.75016 6.75016 -180 0 0 6.75 165.75 L83.25 165.75 A6.75016 6.75016 -180 0 0 90 159 L90 127.5
								 A6.75016 6.75016 -180 0 0 83.25 120.75 L6.75 120.75 A6.75016 6.75016 -180 0 0 -0 127.5 L0 159 Z"
							class="st10"/>
				</g>
				<g id="shape45-92" v:mID="45" v:groupContext="groupContent">
					<v:textBlock v:margins="rect(0,0,0,0)"/>
					<v:textRect cx="45" cy="143.25" width="90" height="45"/>
					<text x="29.73" y="134.25" class="st6" v:langID="1033"><v:paragraph v:horizAlign="1"/><v:tabList/>Model,<v:newlineChar/><tspan
								x="19.73" dy="1.2em" class="st11">knowledge,<v:newlineChar/></tspan><tspan x="24.43" dy="1.2em"
								class="st11">and tools</tspan></text>				</g>
			</g>
			<g id="group48-96" transform="translate(67.5,5.68434E-14)" v:mID="48" v:groupContext="group">
				<title>Sheet.48</title>
				<desc>Common state</desc>
				<g id="shape49-97" v:mID="49" v:groupContext="shape">
					<title>Sheet.49</title>
					<path d="M0 162.37 A3.37508 3.37508 -180 0 0 3.37 165.75 L379.13 165.75 A3.37508 3.37508 -180 0 0 382.5 162.37
								 L382.5 146.62 A3.37508 3.37508 -180 0 0 379.13 143.25 L3.37 143.25 A3.37508 3.37508 -180 0 0 0 146.62
								 L0 162.37 Z" class="st12"/>
				</g>
				<g id="shape48-99" v:mID="48" v:groupContext="groupContent">
					<v:textBlock v:margins="rect(0,0,0,0)"/>
					<v:textRect cx="191.25" cy="154.5" width="382.51" height="22.5"/>
					<text x="158.81" y="157.5" class="st6" v:langID="1033"><v:paragraph v:horizAlign="1"/><v:tabList/>Common state</text>				</g>
			</g>
			<g id="group51-101" transform="translate(337.5,-109.875)" v:mID="51" v:groupContext="group">
				<title>Sheet.51</title>
				<g id="shape52-102" v:mID="52" v:groupContext="shape" transform="translate(1.14908E-13,-2.625)">
					<title>Sheet.52</title>
					<path d="M0 165.75 L15 165.75 L7.5 165.75 L17.72 165.75 L0 165.75 Z" class="st2"/>
					<path d="M0 165.75 L15 165.75 L7.5 165.75 L17.72 165.75" class="st3"/>
				</g>
				<g id="shape53-105" v:mID="53" v:groupContext="shape" transform="translate(16.41,2.84217E-14)">
					<title>Sheet.53</title>
					<path d="M5.25 163.12 L0 165.75 L1.31 163.12 L0 160.5 L5.25 163.12 Z" class="st4"/>
				</g>
			</g>
			<g id="group54-107" transform="translate(292.5,-90)" v:mID="54" v:groupContext="group">
				<title>Sheet.54</title>
				<desc>...</desc>
				<g id="group55-108" v:mID="55" v:groupContext="group">
					<title>Sheet.55</title>
					<g id="shape56-109" v:mID="56" v:groupContext="shape">
						<title>Sheet.56</title>
						<rect x="0" y="120.75" width="45" height="45" class="st7"/>
					</g>
					<g id="shape57-111" v:mID="57" v:groupContext="shape" transform="translate(4.5,2.55795E-13)">
						<title>Sheet.57</title>
						<path d="M0 120.75 L0 165.75 L0 120.75 ZM36 120.75 L36 165.75 L36 120.75 Z" class="st2"/>
						<path d="M0 120.75 L0 165.75M36 120.75 L36 165.75" class="st8"/>
					</g>
				</g>
				<g id="shape58-114" v:mID="58" v:groupContext="shape" transform="translate(316.475,-122.55)">
					<title>Sheet.58</title>
					<desc>...</desc>
					<v:textBlock v:margins="rect(0,0,0,0)"/>
					<v:textRect cx="13.525" cy="160.35" width="27.05" height="10.8"/>
					<rect x="0" y="154.95" width="27.05" height="10.8" class="st13"/>
					<text x="10.92" y="162.75" class="st14" v:langID="2052"><v:paragraph v:horizAlign="1"/><v:tabList/>...</text>				</g>
				<g id="shape54-117" v:mID="54" v:groupContext="groupContent">
					<v:textBlock v:margins="rect(0,0,0,0)"/>
					<v:textRect cx="22.5" cy="143.25" width="45.01" height="45"/>
					<text x="19.25" y="146.25" class="st6" v:langID="2052"><v:paragraph v:horizAlign="1"/><v:tabList/>...</text>				</g>
			</g>
		</g>
	</g>
</svg>
