<?xml version="1.0" encoding="UTF-8" standalone="no"?>
<svg
   id="Layer_1"
   data-name="Layer 1"
   width="806"
   height="373.13"
   viewBox="0 0 806 373.13"
   version="1.1"
   sodipodi:docname="n-tier-logical.svg"
   inkscape:version="1.4.2 (f4327f4, 2025-05-13)"
   xmlns:inkscape="http://www.inkscape.org/namespaces/inkscape"
   xmlns:sodipodi="http://sodipodi.sourceforge.net/DTD/sodipodi-0.dtd"
   xmlns="http://www.w3.org/2000/svg"
   xmlns:svg="http://www.w3.org/2000/svg"
   xmlns:rdf="http://www.w3.org/1999/02/22-rdf-syntax-ns#"
   xmlns:cc="http://creativecommons.org/ns#"
   xmlns:dc="http://purl.org/dc/elements/1.1/"
   style="background-color:white">
  <sodipodi:namedview
     id="namedview18"
     pagecolor="#ffffff"
     bordercolor="#000000"
     borderopacity="0.25"
     inkscape:showpageshadow="2"
     inkscape:pageopacity="0.0"
     inkscape:pagecheckerboard="0"
     inkscape:deskcolor="#d1d1d1"
     inkscape:zoom="1.1259542"
     inkscape:cx="338.37966"
     inkscape:cy="228.69491"
     inkscape:window-width="1920"
     inkscape:window-height="1009"
     inkscape:window-x="2488"
     inkscape:window-y="-8"
     inkscape:window-maximized="1"
     inkscape:current-layer="Layer_1" />
  <defs
     id="defs1">
    <style
       id="style1">
text{font-family:segoe-ui_normal,Segoe UI,Segoe,Segoe WP,Helvetica Neue,Helvetica,sans-serif;}.cls-1,.cls-3{fill:none;stroke:#afafaf;stroke-width:6px;}.cls-1{stroke-miterlimit:10;}.cls-2{fill:#afafaf;}.cls-3{stroke-linejoin:bevel;}.cls-4{fill:#3fa0ec;}.cls-5{font-size:18.04px;}.cls-5,.cls-7{fill:#fff;}.cls-6{letter-spacing:-0.04em;}.cls-11,.cls-7{font-size:18px;}.cls-8{letter-spacing:-0.03em;}.cls-9{letter-spacing:-0.04em;}.cls-10{fill:#8fb6cc;}.cls-11{fill:#213d47;}</style>
  </defs>
  <title
     id="title1">n-tier-logical</title>
  <line
     class="cls-1"
     x1="571.76001"
     y1="221.38"
     x2="691"
     y2="221.38"
     id="line1" />
  <polygon
     class="cls-2"
     points="551,209.38 563.95,201.9 563.95,216.86 "
     id="polygon1"
     transform="translate(10,12)" />
  <line
     class="cls-1"
     x1="548"
     y1="48.380001"
     x2="680.23999"
     y2="48.380001"
     id="line2" />
  <polygon
     class="cls-2"
     points="681,36.38 668.05,28.9 668.05,43.86 "
     id="polygon2"
     transform="translate(10,12)" />
  <line
     class="cls-1"
     x1="547"
     y1="121.38"
     x2="680.23999"
     y2="122.31"
     id="line3" />
  <polygon
     class="cls-2"
     points="681,110.38 668.1,102.81 668,117.77 "
     id="polygon3"
     transform="translate(10,12)" />
  <line
     class="cls-3"
     x1="547"
     y1="284.87"
     x2="681.22998"
     y2="284.70001"
     id="line4" />
  <polygon
     class="cls-2"
     points="682,272.68 669.04,265.22 669.05,280.18 "
     id="polygon4"
     transform="translate(10,12)" />
  <line
     class="cls-1"
     x1="571.76001"
     y1="155.38"
     x2="691"
     y2="155.38"
     id="line5" />
  <polygon
     class="cls-2"
     points="551,143.38 563.95,135.9 563.95,150.86 "
     id="polygon5"
     transform="translate(10,12)" />
  <line
     class="cls-1"
     x1="300"
     y1="284.38"
     x2="474.23999"
     y2="284.38"
     id="line6" />
  <polygon
     class="cls-2"
     points="475,272.38 462.05,264.9 462.05,279.86 "
     id="polygon6"
     transform="translate(10,12)" />
  <rect
     class="cls-4"
     x="224.5"
     y="12.38"
     width="76"
     height="352.75"
     rx="8"
     ry="8"
     id="rect6" />
  <rect
     class="cls-4"
     x="12.054237"
     y="14.528813"
     width="71.11525"
     height="346.97711"
     rx="7.4858165"
     ry="7.8690777"
     id="rect6-4"
     style="fill:#ffffff;fill-opacity:1;stroke-width:0.959382" />
  <text
     class="cls-5"
     id="text8"
     x="244.45"
     y="181.75"><tspan
       class="cls-6"
       id="tspan6">W</tspan><tspan
       x="260.59"
       y="181.75"
       id="tspan7">eb</tspan><tspan
       x="247.78"
       y="203.39999"
       id="tspan8">tier</tspan></text>
  <rect
     class="cls-4"
     x="484.75"
     width="76"
     height="186"
     rx="8"
     ry="8"
     id="rect8"
     y="12" />
  <text
     class="cls-7"
     id="text9"
     x="495"
     y="98.010002">Middle<tspan
   x="500.70001"
   y="119.61"
   id="tspan9">tier 1</tspan></text>
  <rect
     class="cls-4"
     x="484.75"
     y="205.78"
     width="76"
     height="158"
     rx="8"
     ry="8"
     id="rect9" />
  <text
     class="cls-7"
     id="text10"
     x="495"
     y="278.59">Middle<tspan
   x="500.70001"
   y="300.19"
   id="tspan10">tier 2</tspan></text>
  <rect
     class="cls-4"
     x="334.75"
     y="254.73"
     width="115.75"
     height="60.099998"
     rx="8"
     ry="8"
     id="rect10" />
  <text
     class="cls-7"
     id="text11"
     x="349.75"
     y="288.59">Messaging</text>
  <rect
     class="cls-4"
     x="595"
     y="133.38"
     width="61.75"
     height="109"
     rx="8"
     ry="8"
     id="rect11" />
  <text
     class="cls-7"
     id="text12"
     x="601.77002"
     y="191.69">Cache</text>
  <line
     class="cls-1"
     x1="300"
     y1="84.379997"
     x2="474.23999"
     y2="85.32"
     id="line12" />
  <polygon
     class="cls-2"
     points="475,73.38 462.09,65.83 462.01,80.79 "
     id="polygon12"
     transform="translate(10,12)" />
  <rect
     class="cls-4"
     x="691"
     width="105"
     height="73"
     rx="8"
     ry="8"
     id="rect12"
     y="12" />
  <text
     class="cls-7"
     id="text14"
     x="712.89001"
     y="41.510002"><tspan
       class="cls-8"
       id="tspan12">R</tspan><tspan
       x="723.13"
       y="41.510002"
       id="tspan13">emote</tspan><tspan
       x="715.53003"
       y="63.110001"
       id="tspan14">service</tspan></text>
  <rect
     class="cls-4"
     x="691"
     y="93.779999"
     width="105"
     height="270"
     rx="8"
     ry="8"
     id="rect14" />
  <text
     class="cls-7"
     id="text15"
     x="724.97998"
     y="232.58">Data<tspan
   x="728.77002"
   y="254.18001"
   id="tspan15">tier</tspan></text>
  <rect
     class="cls-4"
     x="107.25"
     y="95.879997"
     width="98"
     height="185.75"
     rx="8"
     ry="8"
     id="rect15" />
  <text
     class="cls-7"
     id="text17"
     x="112.98999"
     y="159.71001"><tspan
       class="cls-9"
       id="tspan16">Web</tspan><tspan
       x="112.98999"
       y="181.71001"
       id="tspan17">application</tspan><tspan
       x="112.98999"
       y="203.71001"
       id="tspan18">framework</tspan><tspan
       x="112.98999"
       y="225.71001"
       id="tspan19">(WAF)</tspan></text>
  <line
     class="cls-1"
     x1="205"
     y1="188.75999"
     x2="213.24001"
     y2="188.75999"
     id="line17" />
  <polygon
     class="cls-2"
     points="214,176.76 201.05,169.28 201.05,184.24 "
     id="polygon17"
     transform="translate(10,12)" />
  <path
     class="cls-10"
     d="m 78,16.38 a 4,4 0 0 1 4,4 v 335 a 4,4 0 0 1 -4,4 H 18 a 4,4 0 0 1 -4,-4 v -335 a 4,4 0 0 1 4,-4 h 60 m 0,-4 H 18 a 8,8 0 0 0 -8,8 v 335 a 8,8 0 0 0 8,8 h 60 a 8,8 0 0 0 8,-8 v -335 a 8,8 0 0 0 -8,-8 z"
     id="path17" />
  <text
     class="cls-11"
     id="text18"
     x="25.220001"
     y="191.83">Client</text>
  <line
     class="cls-1"
     x1="86"
     y1="188.75999"
     x2="93.24"
     y2="188.75999"
     id="line18" />
  <polygon
     class="cls-2"
     points="97,176.76 84.05,169.28 84.05,184.24 "
     id="polygon18"
     transform="translate(10,12)" />
  <metadata
     id="metadata1">
    <rdf:RDF>
      <cc:Work
         rdf:about="">
        <dc:title>n-tier-logical</dc:title>
      </cc:Work>
    </rdf:RDF>
  </metadata>
</svg>
