<?xml version="1.0" encoding="UTF-8" standalone="no"?>
<!DOCTYPE svg PUBLIC "-//W3C//DTD SVG 1.1//EN" "http://www.w3.org/Graphics/SVG/1.1/DTD/svg11.dtd">
<!-- Generated by Microsoft Visio, SVG Export web-queue-worker-logical1.svg web-queue-worker-logical -->
<svg xmlns="http://www.w3.org/2000/svg" xmlns:xlink="http://www.w3.org/1999/xlink" xmlns:ev="http://www.w3.org/2001/xml-events"
		xmlns:v="http://schemas.microsoft.com/visio/2003/SVGExtensions/" width="8.33333in" height="3.3899in"
		viewBox="0 0 600 244.073" xml:space="preserve" color-interpolation-filters="sRGB" class="st13">
	<v:documentProperties v:langID="1033" v:viewMarkup="false"/>

	<style type="text/css">
	<![CDATA[
		.st1 {stroke:#7f7f7f;stroke-linecap:butt;stroke-width:1.5}
		.st2 {fill:#7f7f7f;stroke:none;stroke-linecap:butt;stroke-width:0.75}
		.st3 {fill:#0099ff;stroke:none;stroke-linecap:butt;stroke-width:0.75}
		.st4 {fill:none;stroke:none;stroke-linecap:butt;stroke-width:0.75}
		.st5 {fill:#ffffff;font-family:Arial;font-size:0.833336em}
		.st6 {fill:#aedfff;stroke:none;stroke-linecap:butt;stroke-width:0.75}
		.st7 {fill:#000000;font-family:Arial;font-size:0.833336em}
		.st8 {stroke:none;stroke-linecap:butt;stroke-width:0.75}
		.st9 {fill:#ffffff;font-family:Arial;font-size:0.833336em;font-stretch:normal}
		.st10 {fill:#7f7f7f;stroke:#7f7f7f;stroke-linecap:butt;stroke-width:0.75}
		.st11 {font-size:1em}
		.st12 {stroke:#7f7f7f;stroke-linecap:round;stroke-linejoin:round;stroke-width:1.5}
		.st13 {fill:none;fill-rule:evenodd;font-size:12px;overflow:visible;stroke-linecap:square;stroke-miterlimit:3}
	]]>
	</style>

	<g v:mID="0" v:index="1" v:groupContext="foregroundPage">
		<title>web-queue-worker-logical</title>
		<v:pageProperties v:drawingScale="1" v:pageScale="1" v:drawingUnits="19" v:shadowOffsetX="9" v:shadowOffsetY="-9"/>
		<v:layer v:name="Connector" v:index="0"/>
		<g id="shape1-1" v:mID="1" v:groupContext="shape" transform="translate(432.57,-127.125)">
			<title>Sheet.1</title>
			<path d="M0 244.07 L92.43 244.07" class="st1"/>
		</g>
		<g id="shape2-4" v:mID="2" v:groupContext="shape" transform="translate(424.5,-121.515)">
			<title>Sheet.2</title>
			<path d="M9.71 244.07 L0 238.46 L9.71 232.85 L9.71 244.07 Z" class="st2"/>
		</g>
		<g id="shape3-6" v:mID="3" v:groupContext="shape" transform="translate(248.82,-23.685)">
			<title>Sheet.3</title>
			<path d="M0 244.07 L278.43 244.07" class="st1"/>
		</g>
		<g id="shape4-9" v:mID="4" v:groupContext="shape" transform="translate(240.75,-18.075)">
			<title>Sheet.4</title>
			<path d="M9.71 244.07 L0 238.46 L9.71 232.85 L9.71 244.07 Z" class="st2"/>
		</g>
		<g id="shape5-11" v:mID="5" v:groupContext="shape" transform="translate(423,-112.875)">
			<title>Sheet.5</title>
			<path d="M0 244.07 L93.93 244.07" class="st1"/>
		</g>
		<g id="shape6-14" v:mID="6" v:groupContext="shape" transform="translate(515.287,-107.265)">
			<title>Sheet.6</title>
			<path d="M0 244.07 L9.71 238.46 L0 232.85 L0 244.07 Z" class="st2"/>
		</g>
		<g id="shape7-16" v:mID="7" v:groupContext="shape" transform="translate(248.82,-177.75)">
			<title>Sheet.7</title>
			<path d="M0 244.07 L280.69 244.07" class="st1"/>
		</g>
		<g id="shape8-19" v:mID="8" v:groupContext="shape" transform="translate(240.743,-172.14)">
			<title>Sheet.8</title>
			<path d="M9.72 244.07 L0 238.46 L9.72 232.85 L9.72 244.07 Z" class="st2"/>
		</g>
		<g id="shape9-21" v:mID="9" v:groupContext="shape" transform="translate(240.75,-192.375)">
			<title>Sheet.9</title>
			<path d="M0 244.07 L276.18 244.07" class="st1"/>
		</g>
		<g id="shape10-24" v:mID="10" v:groupContext="shape" transform="translate(515.287,-186.765)">
			<title>Sheet.10</title>
			<path d="M0 244.07 L9.71 238.46 L0 232.85 L0 244.07 Z" class="st2"/>
		</g>
		<g id="shape11-26" v:mID="11" v:groupContext="shape" transform="translate(240.743,-225.727)">
			<title>Sheet.11</title>
			<path d="M0 244.07 L277.69 244.07" class="st1"/>
		</g>
		<g id="shape12-29" v:mID="12" v:groupContext="shape" transform="translate(516.788,-220.117)">
			<title>Sheet.12</title>
			<path d="M0 244.07 L9.72 238.46 L0 232.85 L0 244.07 Z" class="st2"/>
		</g>
		<g id="shape13-31" v:mID="13" v:groupContext="shape" transform="translate(141,-195.015)">
			<title>Sheet.13</title>
			<path d="M0 244.07 L17.43 244.07" class="st1"/>
		</g>
		<g id="shape14-34" v:mID="14" v:groupContext="shape" transform="translate(156.788,-189.405)">
			<title>Sheet.14</title>
			<path d="M0 244.07 L9.71 238.46 L0 232.86 L0 244.07 Z" class="st2"/>
		</g>
		<g id="shape15-36" v:mID="15" v:groupContext="shape" transform="translate(367.163,-56.595)">
			<title>Sheet.15</title>
			<path d="M0 238.07 A6.00014 6.00014 -180 0 0 6 244.07 L51 244.07 A6.00014 6.00014 -180 0 0 57 238.07 L57 141.29 A6.00014
						 6.00014 -180 0 0 51 135.29 L6 135.29 A6.00014 6.00014 -180 0 0 -0 141.29 L0 238.07 Z" class="st3"/>
		</g>
		<g id="shape16-38" v:mID="16" v:groupContext="shape" transform="translate(378,-117)">
			<title>Sheet.16</title>
			<desc>Worker</desc>
			<v:textBlock v:margins="rect(0,0,0,0)"/>
			<v:textRect cx="22.5" cy="238.073" width="45" height="12"/>
			<rect x="0" y="232.073" width="45" height="12" class="st4"/>
			<text x="0" y="241.07" class="st5" v:langID="1033"><v:paragraph/><v:tabList/>Worker</text>		</g>
		<g id="shape17-41" v:mID="17" v:groupContext="shape" transform="translate(0,-1.2825)">
			<title>Sheet.17</title>
			<path d="M51 5.57 A3 3 0 0 1 54 8.57 L54 238.07 A3 3 0 0 1 51 241.07 L6 241.07 A3 3 0 0 1 3 238.07 L3 8.57 A3 3 0 0 1
						 6 5.57 L51 5.57 ZM51 2.57 L6 2.57 A6 6 -180 0 0 0 8.57 L0 238.07 A6 6 -180 0 0 6 244.07 L51 244.07 A6 6
						 -180 0 0 57 238.07 L57 8.57 A6 6 -180 0 0 51 2.57 Z" class="st6"/>
		</g>
		<g id="shape18-43" v:mID="18" v:groupContext="shape" transform="translate(11.39,-120.435)">
			<title>Sheet.18</title>
			<desc>Client</desc>
			<v:textBlock v:margins="rect(0,0,0,0)"/>
			<v:textRect cx="30.025" cy="238.073" width="60.06" height="12"/>
			<rect x="0" y="232.073" width="60.05" height="12" class="st4"/>
			<text x="0" y="241.07" class="st7" v:langID="1033"><v:paragraph/><v:tabList/>Client</text>		</g>
		<g id="shape19-46" v:mID="19" v:groupContext="shape" transform="translate(55.5,-195.015)">
			<title>Sheet.19</title>
			<path d="M0 244.07 L18.18 244.07" class="st8"/>
		</g>
		<g id="shape20-49" v:mID="20" v:groupContext="shape" transform="translate(72.0375,-189.405)">
			<title>Sheet.20</title>
			<path d="M0 244.07 L9.71 238.46 L0 232.86 L0 244.07 Z" class="st2"/>
		</g>
		<g id="shape21-51" v:mID="21" v:groupContext="shape" transform="translate(240.75,-82.86)">
			<title>Sheet.21</title>
			<path d="M0 244.07 L16.68 244.07" class="st1"/>
		</g>
		<g id="shape22-54" v:mID="22" v:groupContext="shape" transform="translate(255.788,-77.25)">
			<title>Sheet.22</title>
			<path d="M0 244.07 L9.71 238.46 L0 232.85 L0 244.07 Z" class="st2"/>
		</g>
		<g id="shape23-56" v:mID="23" v:groupContext="shape" transform="translate(525,-207.375)">
			<title>Sheet.23</title>
			<path d="M0 238.07 A6.00014 6.00014 -180 0 0 6 244.07 L69 244.07 A6.00014 6.00014 -180 0 0 75 238.07 L75 213.38 A6.00014
						 6.00014 -180 0 0 69 207.38 L6 207.38 A6.00014 6.00014 -180 0 0 0 213.38 L0 238.07 Z" class="st3"/>
		</g>
		<g id="shape24-58" v:mID="24" v:groupContext="shape" transform="translate(528.975,-219)">
			<title>Sheet.24</title>
			<desc>Remote service</desc>
			<v:textBlock v:margins="rect(0,0,0,0)"/>
			<v:textRect cx="37.0125" cy="238.073" width="74.03" height="12"/>
			<rect x="0" y="232.073" width="74.025" height="12" class="st4"/>
			<text x="0" y="241.07" class="st5" v:langID="1033"><v:paragraph/><v:tabList/>Remote service</text>		</g>
		<g id="shape25-61" v:mID="25" v:groupContext="shape" transform="translate(525,0)">
			<title>Sheet.25</title>
			<path d="M0 238.07 A6.00014 6.00014 -180 0 0 6 244.07 L69 244.07 A6.00014 6.00014 -180 0 0 75 238.07 L75 205.07 A6.00014
						 6.00014 -180 0 0 69 199.07 L6 199.07 A6.00014 6.00014 -180 0 0 -0 205.07 L0 238.07 Z" class="st3"/>
		</g>
		<g id="shape26-63" v:mID="26" v:groupContext="shape" transform="translate(533.475,-18)">
			<title>Sheet.26</title>
			<desc>Static content</desc>
			<v:textBlock v:margins="rect(0,0,0,0)"/>
			<v:textRect cx="33.525" cy="238.073" width="67.05" height="12"/>
			<rect x="0" y="232.073" width="67.05" height="12" class="st4"/>
			<text x="0" y="241.07" class="st5" v:langID="1033"><v:paragraph/><v:tabList/>Static content</text>		</g>
		<g id="shape27-66" v:mID="27" v:groupContext="shape" transform="translate(525,-49.6875)">
			<title>Sheet.27</title>
			<path d="M0 238.07 A6.00014 6.00014 -180 0 0 6 244.07 L69 244.07 A6.00014 6.00014 -180 0 0 75 238.07 L75 97.07 A6.00014
						 6.00014 -180 0 0 69 91.07 L6 91.07 A6.00014 6.00014 -180 0 0 0 97.07 L0 238.07 Z" class="st3"/>
		</g>
		<g id="shape28-68" v:mID="28" v:groupContext="shape" transform="translate(534.793,-114.788)">
			<title>Sheet.28</title>
			<desc>Database</desc>
			<v:textBlock v:margins="rect(0,0,0,0)"/>
			<v:textRect cx="27.3538" cy="238.073" width="54.71" height="12"/>
			<rect x="0" y="232.073" width="54.7075" height="12" class="st4"/>
			<text x="0" y="241.07" class="st5" v:langID="1033"><v:paragraph/><v:tabList/>Database</text>		</g>
		<g id="shape29-71" v:mID="29" v:groupContext="shape" transform="translate(265.635,-60.345)">
			<title>Sheet.29</title>
			<path d="M-0 238.07 A6.00014 6.00014 -180 0 0 6 244.07 L70.98 244.07 A6.00014 6.00014 -180 0 0 76.98 238.07 L76.98 205.07
						 A6.00014 6.00014 -180 0 0 70.98 199.07 L6 199.07 A6.00014 6.00014 -180 0 0 0 205.07 L0 238.07 Z"
					class="st3"/>
		</g>
		<g id="shape30-73" v:mID="30" v:groupContext="shape" transform="translate(288,-78)">
			<title>Sheet.30</title>
			<desc>Queue</desc>
			<v:textBlock v:margins="rect(0,0,0,0)"/>
			<v:textRect cx="25.025" cy="238.073" width="50.06" height="12"/>
			<rect x="0" y="232.073" width="50.05" height="12" class="st4"/>
			<text x="0" y="241.07" class="st5" v:langID="1033"><v:paragraph/><v:tabList/>Queue</text>		</g>
		<g id="shape31-76" v:mID="31" v:groupContext="shape" transform="translate(166.088,-49.875)">
			<title>Sheet.31</title>
			<path d="M0 238.07 A6.00014 6.00014 -180 0 0 6 244.07 L69 244.07 A6.00014 6.00014 -180 0 0 75 238.07 L75 57.07 A6.00014
						 6.00014 -180 0 0 69 51.07 L6 51.07 A6.00014 6.00014 -180 0 0 -0 57.07 L0 238.07 Z" class="st3"/>
		</g>
		<g id="shape32-78" v:mID="32" v:groupContext="shape" transform="translate(174.013,-187.5)">
			<title>Sheet.32</title>
			<desc>Web front end</desc>
			<v:textBlock v:margins="rect(0,0,0,0)"/>
			<v:textRect cx="31.825" cy="238.073" width="63.65" height="12"/>
			<rect x="0" y="232.073" width="63.65" height="12" class="st4"/>
			<text x="0" y="241.07" class="st9" v:langID="1033"><v:paragraph/><v:tabList/>Web front end</text>		</g>
		<g id="shape33-81" v:mID="33" v:groupContext="shape" transform="translate(166.088,-1.185)">
			<title>Sheet.33</title>
			<path d="M-0 238.07 A6.00014 6.00014 -180 0 0 6 244.07 L69 244.07 A6.00014 6.00014 -180 0 0 75 238.07 L75 205.07 A6.00014
						 6.00014 -180 0 0 69 199.07 L6 199.07 A6.00014 6.00014 -180 0 0 0 205.07 L0 238.07 Z" class="st3"/>
		</g>
		<g id="shape34-83" v:mID="34" v:groupContext="shape" transform="translate(192.425,-18)">
			<title>Sheet.34</title>
			<desc>CDN</desc>
			<v:textBlock v:margins="rect(0,0,0,0)"/>
			<v:textRect cx="14.575" cy="238.073" width="29.16" height="12"/>
			<rect x="0" y="232.073" width="29.15" height="12" class="st4"/>
			<text x="0" y="241.07" class="st9" v:langID="1033"><v:paragraph/><v:tabList/>CDN</text>		</g>
		<g id="shape35-86" v:mID="35" v:groupContext="shape" transform="translate(81.5475,-171.135)">
			<title>Sheet.35</title>
			<path d="M0 238.07 A6.00014 6.00014 -180 0 0 6 244.07 L54 244.07 A6.00014 6.00014 -180 0 0 60 238.07 L60 202.33 A6.00014
						 6.00014 -180 0 0 54 196.33 L6 196.33 A6.00014 6.00014 -180 0 0 0 202.33 L0 238.07 Z" class="st3"/>
		</g>
		<g id="shape37-88" v:mID="37" v:groupContext="shape" transform="translate(342.75,-82.845)">
			<title>Sheet.37</title>
			<path d="M0 244.07 L16.68 244.07" class="st1"/>
		</g>
		<g id="shape38-91" v:mID="38" v:groupContext="shape" transform="translate(357.788,-77.235)">
			<title>Sheet.38</title>
			<path d="M0 244.07 L9.71 238.46 L0 232.85 L0 244.07 Z" class="st10"/>
		</g>
		<g id="shape39-93" v:mID="39" v:groupContext="shape" transform="translate(65.07,-23.685)">
			<title>Sheet.39</title>
			<path d="M0 244.07 L100.68 244.07" class="st1"/>
		</g>
		<g id="shape40-96" v:mID="40" v:groupContext="shape" transform="translate(57,-18.075)">
			<title>Sheet.40</title>
			<path d="M9.71 244.07 L0 238.46 L9.71 232.85 L9.71 244.07 Z" class="st2"/>
		</g>
		<g id="shape41-98" v:mID="41" v:groupContext="shape" transform="translate(457.5,-118.125)">
			<title>Sheet.41</title>
			<path d="M0 238.07 A6.00014 6.00014 -180 0 0 6 244.07 L40.31 244.07 A6.00014 6.00014 -180 0 0 46.31 238.07 L46.31 181.07
						 A6.00014 6.00014 -180 0 0 40.31 175.07 L6 175.07 A6.00014 6.00014 -180 0 0 0 181.07 L0 238.07 Z"
					class="st3"/>
		</g>
		<g id="shape42-100" v:mID="42" v:groupContext="shape" transform="translate(465.9,-150)">
			<title>Sheet.42</title>
			<desc>Cache</desc>
			<v:textBlock v:margins="rect(0,0,0,0)"/>
			<v:textRect cx="15.75" cy="238.073" width="31.5" height="12"/>
			<rect x="0" y="232.073" width="31.5" height="12" class="st4"/>
			<text x="0" y="241.07" class="st5" v:langID="1033"><v:paragraph/><v:tabList/>Cache</text>		</g>
		<g id="shape43-103" v:mID="43" v:groupContext="shape" transform="translate(94.5,-178.995)">
			<title>Sheet.43</title>
			<desc>Identity provider</desc>
			<v:textBlock v:margins="rect(0,0,0,0)"/>
			<v:textRect cx="18.5494" cy="227.82" width="37.1" height="32.505"/>
			<rect x="0" y="211.568" width="37.0988" height="32.505" class="st4"/>
			<text x="0" y="224.82" class="st5" v:langID="1033"><v:paragraph/><v:tabList/>Identity <tspan x="0" dy="1.2em"
						class="st11">provider</tspan></text>		</g>
		<g id="shape44-107" v:mID="44" v:groupContext="shape" v:layerMember="0" transform="translate(73.5187,-186.011)">
			<title>Dynamic connector</title>
			<path d="M-1.48 235.07 L-16.52 235.07" class="st12"/>
		</g>
	</g>
</svg>
