<?xml version="1.0" encoding="UTF-8" standalone="no"?>
<!DOCTYPE svg PUBLIC "-//W3C//DTD SVG 1.1//EN" "http://www.w3.org/Graphics/SVG/1.1/DTD/svg11.dtd">
<!-- Generated by Microsoft Visio, SVG Export aks-services.svg aks-services-conceptual -->
<svg xmlns="http://www.w3.org/2000/svg" xmlns:xlink="http://www.w3.org/1999/xlink" xmlns:ev="http://www.w3.org/2001/xml-events"
		width="8.5in" height="2.8125in" viewBox="0 0 612 202.5" xml:space="preserve" color-interpolation-filters="sRGB"
		class="st16">
	<style type="text/css">
	<![CDATA[
		.st1 {fill:#ffffff;stroke:none;stroke-linecap:round;stroke-linejoin:round;stroke-width:0.75}
		.st2 {fill:none;stroke:none;stroke-linecap:round;stroke-linejoin:round;stroke-width:0.75}
		.st3 {fill:#000000;font-family:Segoe UI Semibold;font-size:0.75em}
		.st4 {fill:#ffffff;stroke:#000000;stroke-linecap:round;stroke-linejoin:round;stroke-width:0.75}
		.st5 {fill:#000000;font-family:Segoe UI Semibold;font-size:1.00001em}
		.st6 {fill:#f2f2f2;stroke:#7f7f7f;stroke-linecap:round;stroke-linejoin:round;stroke-width:0.25}
		.st7 {fill:#000000;font-family:Segoe UI;font-size:1.00001em}
		.st8 {fill:#000000;font-family:Segoe UI;font-size:0.916672em}
		.st9 {stroke:#000000;stroke-linecap:butt;stroke-width:1}
		.st10 {fill:#000000;font-family:Segoe UI Semibold;font-size:0.833336em}
		.st11 {font-family:Segoe UI;font-size:1em}
		.st12 {font-size:1em}
		.st13 {marker-start:url(#mrkr42-69);stroke:#000000;stroke-linecap:butt;stroke-width:1.5}
		.st14 {fill:#000000;fill-opacity:1;stroke:#000000;stroke-opacity:1;stroke-width:0.37313432835821}
		.st15 {marker-end:url(#mrkr4-80);stroke:#000000;stroke-linecap:round;stroke-linejoin:round;stroke-width:1.5}
		.st16 {fill:none;fill-rule:evenodd;font-size:12px;overflow:visible;stroke-linecap:square;stroke-miterlimit:3}
	]]>
	</style>

	<defs id="Markers">
		<g id="lend42">
			<path
					d="M 0 0.75 C -0.414214 0.75 -0.75 0.414214 -0.75 0 -0.75 -0.414214 -0.414214 -0.75 0 -0.75 0.414214 -0.75 0.75 -0.414214 0.75 0 0.75 0.414214 0.414214 0.75 0 0.75 Z "
					style="stroke:none"/>
		</g>
		<marker id="mrkr42-69" class="st14" refX="1.77" orient="auto" markerUnits="strokeWidth" overflow="visible">
			<use xlink:href="#lend42" transform="scale(2.68) "/>
		</marker>
		<g id="lend4">
			<path d="M 2 1 L 0 0 L 2 -1 L 2 1 " style="stroke:none"/>
		</g>
		<marker id="mrkr4-80" class="st14" refX="-5.36" orient="auto" markerUnits="strokeWidth" overflow="visible">
			<use xlink:href="#lend4" transform="scale(-2.68,-2.68) "/>
		</marker>
	</defs>
	<g>
		<title>VBackground-1</title>
		<g id="shape1000-1">
			<title>Solid.1000</title>
			<rect x="0" y="0" width="612" height="202.5" class="st1"/>
		</g>
	</g>
	<g>
		<title>aks-services-conceptual</title>
		<g id="shape1000-3" transform="translate(72.3462,-158.885)">
			<title>Sheet.1000</title>
			<desc>Service IP</desc>
			<rect x="0" y="175.5" width="77.2759" height="27" class="st2"/>
			<text x="18.99" y="191.7" class="st3">Service IP</text>		</g>
		<g id="shape1002-6" transform="translate(513.726,-13.5)">
			<title>Sheet.1002</title>
			<desc>ReplicaSet</desc>
			<rect x="0" y="32.9879" width="89.2742" height="169.512" class="st4"/>
			<text x="16.39" y="47.79" class="st5">ReplicaSet</text>		</g>
		<g id="shape1003-9" transform="translate(533.468,-96.9375)">
			<title>Sheet.1003</title>
			<desc>Pod</desc>
			<ellipse cx="25.3125" cy="177.188" rx="25.3125" ry="25.3125" class="st6"/>
			<text x="14.9" y="180.79" class="st7">Pod</text>		</g>
		<g id="shape1004-12" transform="translate(533.05,-35.5875)">
			<title>Sheet.1004</title>
			<desc>Pod</desc>
			<ellipse cx="25.3125" cy="177.188" rx="25.3125" ry="25.3125" class="st6"/>
			<text x="14.9" y="180.79" class="st7">Pod</text>		</g>
		<g id="shape1007-15" transform="translate(61.1667,-136.333)">
			<title>Sheet.1007</title>
			<desc>10.0.112.39:80</desc>
			<rect x="0" y="189" width="111.375" height="13.5" class="st2"/>
			<text x="21.27" y="199.05" class="st8">10.0.112.39:80</text>		</g>
		<g id="shape1008-18" transform="translate(359.1,-115.5)">
			<title>Sheet.1008</title>
			<desc>10.244.0.6:8080</desc>
			<rect x="0" y="189" width="111.375" height="13.5" class="st2"/>
			<text x="18.31" y="199.05" class="st8">10.244.0.6:8080</text>		</g>
		<g id="shape1009-21" transform="translate(9.33966,-103.922)">
			<title>Sheet.1009</title>
			<desc>service-a.backend.svc.cluster.local</desc>
			<rect x="0" y="189" width="180" height="13.5" class="st2"/>
			<text x="8.49" y="199.05" class="st8">service-a.backend.svc.cluster.local</text>		</g>
		<g id="shape1010-24" transform="translate(242.19,108.328) rotate(90) scale(-1,1)">
			<title>Double tree square.1010</title>
			<path d="M0 202.5 L6.6 202.5" class="st9"/>
			<path d="M6.6 202.5 L6.6 223.53 L10.69 223.53" class="st9"/>
			<path d="M6.6 202.5 L6.6 183.31 L11.81 183.31" class="st9"/>
		</g>
		<g id="shape1012-29" transform="translate(-4.81035,-80.4224)">
			<title>Sheet.1012</title>
			<desc>Service name</desc>
			<rect x="0" y="188.7" width="77.2759" height="13.8" class="st2"/>
			<text x="11.58" y="198.3" class="st3">Service name</text>		</g>
		<g id="shape1013-32" transform="translate(54.6897,-80.4224)">
			<title>Sheet.1013</title>
			<desc>Namespace</desc>
			<rect x="0" y="188.7" width="77.2759" height="13.8" class="st2"/>
			<text x="14.95" y="198.3" class="st3">Namespace</text>		</g>
		<g id="shape1014-35" transform="translate(371.382,-153.794)">
			<title>Sheet.1014</title>
			<desc>Cluster private IP</desc>
			<rect x="0" y="188.7" width="95.8629" height="13.8" class="st2"/>
			<text x="13.1" y="198.3" class="st3">Cluster private IP</text>		</g>
		<g id="shape1017-38" transform="translate(38.6897,-65.1724)">
			<title>Sheet.1017</title>
			<desc>Cluster DNS</desc>
			<rect x="0" y="189" width="111.375" height="13.5" class="st2"/>
			<text x="26.45" y="199.05" class="st8">Cluster DNS</text>		</g>
		<g id="shape1018-41" transform="translate(617.4,49.2353) rotate(90)">
			<title>Double tree square.1018</title>
			<path d="M0 202.5 L12.71 202.5" class="st9"/>
			<path d="M12.71 202.5 L12.71 236.03 L20.51 236.03" class="st9"/>
			<path d="M12.71 202.5 L12.71 169.65 L21.64 169.65" class="st9"/>
		</g>
		<g id="shape1019-46" transform="translate(204.362,-34.1379)">
			<title>Sheet.1019</title>
			<desc>Name: service-a Namespace: backend Port: 80 targetPort: 8080</desc>
			<rect x="0" y="135.6" width="121.425" height="66.9" class="st2"/>
			<text x="4" y="154.05" class="st10">Name<tspan class="st11">: service</tspan><tspan class="st11">-</tspan><tspan
						class="st11">a </tspan><tspan x="4" dy="1.2em" class="st12">Namespace</tspan><tspan class="st11">: backend </tspan><tspan
						x="4" dy="1.2em" class="st12">Port</tspan><tspan class="st11">: 80 </tspan><tspan x="4" dy="1.2em"
						class="st12">targetPort</tspan><tspan class="st11">: 8080</tspan></text>		</g>
		<g id="shape1020-58" transform="translate(409.109,-89.2174)">
			<title>Sheet.1020</title>
			<desc>containerPort</desc>
			<rect x="0" y="175.5" width="77.2759" height="27" class="st2"/>
			<text x="10.77" y="191.7" class="st3">containerPort</text>		</g>
		<g id="shape1021-61" transform="translate(359.1,-54.15)">
			<title>Sheet.1021</title>
			<desc>10.244.0.8:8080</desc>
			<rect x="0" y="189" width="111.384" height="13.5" class="st2"/>
			<text x="18.31" y="199.05" class="st8">10.244.0.8:8080</text>		</g>
		<g id="shape1022-64" transform="translate(458.357,-122.25)">
			<title>Directed line 1.1022</title>
			<path d="M2.65 202.5 L3.01 202.5 L75.34 202.5" class="st13"/>
		</g>
		<g id="shape1023-70" transform="translate(458.357,-60.9)">
			<title>Directed line 1.1023</title>
			<path d="M2.65 202.5 L3.01 202.5 L75.31 202.5" class="st13"/>
		</g>
		<g id="shape1024-75" transform="translate(293.1,-124.5)">
			<title>Directed line 1.1024</title>
			<path d="M0 202.5 L74.76 202.5" class="st15"/>
		</g>
		<g id="shape1025-81" transform="translate(407.413,-87.9869) rotate(34.5742)">
			<title>Directed line 1.1025</title>
			<path d="M0 202.5 L93.07 202.5" class="st15"/>
		</g>
		<g id="shape1026-86" transform="translate(641.914,97.1862) rotate(-89.1846) scale(1,-1)">
			<title>Double tree square.1026</title>
			<path d="M0 202.5 L5.51 202.5" class="st9"/>
			<path d="M5.51 202.5 L5.51 211.36 L10 211.36" class="st9"/>
			<path d="M5.51 202.5 L5.51 192.72 L10.13 192.72" class="st9"/>
		</g>
		<g id="shape1027-91" transform="translate(286.94,108.328) rotate(90) scale(-1,1)">
			<title>Double tree square.1027</title>
			<path d="M0 202.5 L6.6 202.5" class="st9"/>
			<path d="M6.6 202.5 L6.6 223.53 L10.69 223.53" class="st9"/>
			<path d="M6.6 202.5 L6.6 183.31 L11.81 183.31" class="st9"/>
		</g>
		<g id="shape1028-96" transform="translate(137.833,-126.6)">
			<title>Directed line 1.1028</title>
			<path d="M2.65 202.5 L3.01 202.5 L52.45 202.5" class="st13"/>
		</g>
		<g id="shape1029-101" transform="translate(311.667,36.6923) rotate(90)">
			<title>Double tree square.1029</title>
			<path d="M0 202.5 L9.47 202.5" class="st9"/>
			<path d="M9.47 202.5 L9.47 226.73 L13.37 226.73" class="st9"/>
			<path d="M9.47 202.5 L9.47 175.54 L13.37 175.54" class="st9"/>
		</g>
		<g id="shape1001-106" transform="translate(191.032,-98.5645)">
			<title>Sheet.1001</title>
			<desc>Service A</desc>
			<rect x="0" y="142.875" width="101.25" height="59.625" class="st4"/>
			<text x="25.65" y="176.29" class="st5">Service A</text>		</g>
	</g>
</svg>
