<?xml version="1.0" encoding="UTF-8" standalone="no"?>
<!DOCTYPE svg PUBLIC "-//W3C//DTD SVG 1.1//EN" "http://www.w3.org/Graphics/SVG/1.1/DTD/svg11.dtd">
<!-- Generated by Microsoft Visio, SVG Export wsus-vnet.svg wsys-vnet -->
<svg xmlns="http://www.w3.org/2000/svg" xmlns:xlink="http://www.w3.org/1999/xlink" xmlns:ev="http://www.w3.org/2001/xml-events"
		width="7in" height="6.75in" viewBox="0 0 504 486" xml:space="preserve" color-interpolation-filters="sRGB" class="st38">
	<style type="text/css">
	<![CDATA[
		.st1 {fill:#ffffff;stroke:none;stroke-width:0.25}
		.st2 {fill:#f2f2f2;stroke:none;stroke-width:0.25}
		.st3 {fill:url(#grad0-11);stroke:none;stroke-linecap:butt;stroke-width:0.75}
		.st4 {fill:#0078d4;stroke:none;stroke-linecap:butt;stroke-width:0.75}
		.st5 {fill:#000000;fill-opacity:0.5;stroke:none;stroke-linecap:butt;stroke-width:0.75}
		.st6 {fill:#000000;fill-opacity:0.25;stroke:none;stroke-linecap:butt;stroke-width:0.75}
		.st7 {fill:url(#grad0-27);stroke:none;stroke-linecap:butt;stroke-width:0.75}
		.st8 {fill:none;stroke:none;stroke-width:0.25}
		.st9 {fill:#7f7f7f;font-family:Segoe UI Semibold;font-size:1.00001em}
		.st10 {font-size:1em}
		.st11 {fill:none;stroke:#4472c4;stroke-dasharray:4.5,4.5;stroke-width:1.5}
		.st12 {fill:#ffffff;stroke:none;stroke-linecap:butt;stroke-width:0.75}
		.st13 {fill:#4d81b8;stroke:none;stroke-linecap:butt;stroke-width:0.75}
		.st14 {fill:#000000;font-family:Segoe UI;font-size:0.916672em}
		.st15 {fill:url(#grad0-46);stroke:none;stroke-linecap:butt;stroke-width:0.75}
		.st16 {fill:#821010;stroke:none;stroke-linecap:butt;stroke-width:0.75}
		.st17 {fill:#e62323;stroke:none;stroke-linecap:butt;stroke-width:0.75}
		.st18 {fill:#ff7381;stroke:none;stroke-linecap:butt;stroke-width:0.75}
		.st19 {fill:#000000;font-family:Segoe UI;font-size:0.916672em;font-weight:bold}
		.st20 {fill:none;stroke:#000000;stroke-width:0.75}
		.st21 {fill:#000000;font-family:Segoe UI Semibold;font-size:0.75em}
		.st22 {fill:#feffff;stroke:none;stroke-width:0.25}
		.st23 {fill:url(#grad0-88);stroke:none;stroke-linecap:butt;stroke-width:34.0001}
		.st24 {fill:#50e6ff;stroke:none;stroke-linecap:butt;stroke-width:34.0001}
		.st25 {fill:#1490df;stroke:none;stroke-linecap:butt;stroke-width:34.0001}
		.st26 {fill:#6bb9f2;stroke:none;stroke-linecap:butt;stroke-width:0.75}
		.st27 {fill:url(#grad0-109);stroke:none;stroke-linecap:butt;stroke-width:0.75}
		.st28 {fill:#50e6ff;stroke:none;stroke-linecap:butt;stroke-width:0.75}
		.st29 {marker-end:url(#mrkr4-121);stroke:#000000;stroke-linecap:round;stroke-linejoin:round;stroke-width:1.5}
		.st30 {fill:#000000;fill-opacity:1;stroke:#000000;stroke-opacity:1;stroke-width:0.37313432835821}
		.st31 {stroke:#000000;stroke-linecap:round;stroke-linejoin:round;stroke-width:1.5}
		.st32 {fill:#c3f1ff;stroke:none;stroke-linecap:butt;stroke-width:0.75}
		.st33 {fill:#9cebff;stroke:none;stroke-linecap:butt;stroke-width:0.75}
		.st34 {fill:url(#grad0-148);stroke:none;stroke-linecap:butt;stroke-width:0.75}
		.st35 {fill:#000000;font-family:Segoe UI Semibold;font-size:0.75em;font-weight:bold}
		.st36 {fill:#70ad47;font-family:Wingdings;font-size:1.5em}
		.st37 {fill:#70ad47;font-family:Segoe UI;font-size:0.916672em}
		.st38 {fill:none;fill-rule:evenodd;font-size:12px;overflow:visible;stroke-linecap:square;stroke-miterlimit:3}
	]]>
	</style>

	<defs id="Patterns_And_Gradients">
		<linearGradient id="grad0-11" x1="0" y1="0" x2="1" y2="0" gradientTransform="rotate(116.95960434515 0.5 0.5)">
			<stop offset="0" stop-color="#114a8b" stop-opacity="1"/>
			<stop offset="1" stop-color="#0669bc" stop-opacity="1"/>
		</linearGradient>
		<linearGradient id="grad0-27" x1="0" y1="0" x2="1" y2="0" gradientTransform="rotate(61.849084498542 0.5 0.5)">
			<stop offset="0" stop-color="#3ccbf4" stop-opacity="1"/>
			<stop offset="1" stop-color="#2892df" stop-opacity="1"/>
		</linearGradient>
		<linearGradient id="grad0-46" x1="0" y1="0" x2="1" y2="0" gradientTransform="rotate(-90 0.5 0.5)">
			<stop offset="0" stop-color="#0078d4" stop-opacity="1"/>
			<stop offset="0.82" stop-color="#5ea0ef" stop-opacity="1"/>
		</linearGradient>
		<linearGradient id="grad0-88" x1="0" y1="0" x2="1" y2="0" gradientTransform="rotate(-90 0.5 0.5)">
			<stop offset="0" stop-color="#5e9624" stop-opacity="1"/>
			<stop offset="0.24" stop-color="#6fb02a" stop-opacity="1"/>
			<stop offset="0.5" stop-color="#7cc52f" stop-opacity="1"/>
			<stop offset="0.755" stop-color="#83d232" stop-opacity="1"/>
			<stop offset="1" stop-color="#86d633" stop-opacity="1"/>
		</linearGradient>
		<linearGradient id="grad0-109" x1="0" y1="0" x2="1" y2="0" gradientTransform="rotate(90 0.5 0.5)">
			<stop offset="0" stop-color="#5ea0ef" stop-opacity="1"/>
			<stop offset="0.18" stop-color="#559cec" stop-opacity="1"/>
			<stop offset="0.47" stop-color="#3c91e5" stop-opacity="1"/>
			<stop offset="0.84" stop-color="#1380da" stop-opacity="1"/>
			<stop offset="1" stop-color="#0078d4" stop-opacity="1"/>
		</linearGradient>
		<linearGradient id="grad0-148" x1="0" y1="0" x2="1" y2="0" gradientTransform="rotate(-90 0.5 0.5)">
			<stop offset="0.15" stop-color="#cccccc" stop-opacity="1"/>
			<stop offset="1" stop-color="#707070" stop-opacity="1"/>
		</linearGradient>
	</defs>
	<defs id="Markers">
		<g id="lend4">
			<path d="M 2 1 L 0 0 L 2 -1 L 2 1 " style="stroke:none"/>
		</g>
		<marker id="mrkr4-121" class="st30" refX="-5.36" orient="auto" markerUnits="strokeWidth" overflow="visible">
			<use xlink:href="#lend4" transform="scale(-2.68,-2.68) "/>
		</marker>
	</defs>
	<g>
		<title>VBackground-1</title>
		<g id="shape1000-1">
			<title>Solid.1000</title>
			<rect x="0" y="0" width="504" height="486" class="st1"/>
		</g>
	</g>
	<g>
		<title>wsys-vnet</title>
		<g id="shape1155-3" transform="translate(65.3535,-244.107)">
			<title>Sheet.1155</title>
			<ellipse cx="54.5625" cy="431.156" rx="54.5625" ry="54.8438" class="st2"/>
		</g>
		<g id="group1024-5" transform="translate(7.54839,-1.16129)">
			<title>logo.1359</title>
			<g id="group1025-6" transform="translate(0,-4.5)">
				<title>Azure.1002</title>
				<g id="group1026-7" transform="translate(0,-7.36693)">
					<title>Sheet.1026</title>
					<g id="shape1027-8">
						<title>Sheet.1027</title>
						<path d="M9.51 457.37 L18.04 457.37 L9.2 485.04 A1.33611 1.411 0 0 1 7.94 486 L1.27 486 A1.33545 1.41031
									 0 0 1 0 484.14 L8.25 458.33 A1.33414 1.40893 0 0 1 9.51 457.37 Z" class="st3"/>
					</g>
					<g id="shape1028-12" transform="translate(7.27079,5.68434E-14)">
						<title>Sheet.1028</title>
						<path d="M14.02 475.4 L0.58 475.4 a0.621946 0.65681 -180 0 0 -0.424441 1.13612 L9.37 485.62 A1.33611 1.411
									 -180 0 0 10.29 486 L17.9 486 L14.02 475.4 Z" class="st4"/>
					</g>
					<g id="group1029-14" transform="translate(10.303,5.68434E-14)">
						<title>Sheet.1029</title>
						<g id="shape1030-15" transform="translate(5.87088,5.68434E-14)">
							<title>Sheet.1030</title>
							<path d="M2.73 486 L8.99 486 L5.11 475.4 L0 475.4 L2.96 484.64 A1.35049 1.4262 0 0 1 2.73 486 Z"
									class="st5"/>
						</g>
						<g id="shape1031-17" transform="translate(7.49401E-14,-16.6951)">
							<title>Sheet.1031</title>
							<path d="M3.93 486 L7.74 474.06 L0 474.06 A1.35245 1.42827 0 0 1 0.26 474.54 L3.93 486 Z" class="st5"/>
						</g>
					</g>
					<g id="group1032-19" transform="translate(9.81969,5.68434E-14)">
						<title>Sheet.1032</title>
						<g id="shape1033-20" transform="translate(0,-15.9092)">
							<title>Sheet.1033</title>
							<path d="M0 473.28 L4.16 486 L4.74 484.19 L1.25 473.28 L0 473.28 Z" class="st6"/>
						</g>
						<g id="shape1034-22" transform="translate(5.8238,5.68434E-14)">
							<title>Sheet.1034</title>
							<path d="M2.06 486 L3.85 486 A1.84426 1.94764 -180 0 0 3.96 484.47 L1.06 475.4 L0 475.4 L3.01 484.81
										 a0.854767 0.902683 0 0 1 -0.807026 1.19414 L2.06 486 Z" class="st6"/>
						</g>
					</g>
					<g id="shape1035-24" transform="translate(9.61433,5.68434E-14)">
						<title>Sheet.1035</title>
						<path d="M10.77 458.33 A1.33414 1.40893 -180 0 0 9.5 457.37 L0 457.37 A1.35572 1.43172 0 0 1 1.28 458.34
									 L9.52 484.11 A1.35507 1.43103 0 0 1 8.23 486 L17.75 486 A1.33545 1.41031 -180 0 0 19.02 484.14
									 L10.77 458.33 Z" class="st7"/>
					</g>
				</g>
			</g>
			<g id="shape1036-28" transform="translate(15.6774,-2.90323)">
				<title>Sheet.1036</title>
				<desc>Microsoft Azure</desc>
				<rect x="0" y="441" width="72" height="45" class="st8"/>
				<text x="9.86" y="459.9" class="st9">Microsoft <tspan x="20.28" dy="1.2em" class="st10">Azure</tspan></text>			</g>
		</g>
		<g id="shape1038-32" transform="translate(51.5323,-53.9818)">
			<title>Sheet.1038</title>
			<rect x="0" y="151.875" width="427.5" height="334.125" rx="4.5" ry="4.5" class="st11"/>
		</g>
		<g id="group1045-34" transform="translate(93.7432,-419.879)">
			<title>Globe; Internet.1045</title>
			<g id="shape1046-35">
				<title>Sheet.1046</title>
				<ellipse cx="28.125" cy="457.875" rx="28.125" ry="28.125" class="st12"/>
			</g>
			<g id="shape1047-37" transform="translate(1.5,-1.5)">
				<title>Sheet.1047</title>
				<path d="M26.63 432.75 C11.94 432.75 0 444.69 0 459.38 C-0 474.06 11.94 486 26.63 486 C41.31 486 53.25 474.06 53.25
							 459.38 C53.25 444.69 41.31 432.75 26.63 432.75 ZM26.63 484.5 C22.93 484.5 19.62 479.28 17.85 471.71
							 C20.68 471.25 23.67 471 26.63 471 C29.58 471 32.57 471.25 35.4 471.7 C33.63 479.27 30.32 484.5 26.63
							 484.5 ZM26.63 469.5 C23.57 469.5 20.47 469.76 17.53 470.24 C16.9 467.04 16.52 463.48 16.5 459.75 L36.75
							 459.75 C36.73 463.48 36.36 467.04 35.72 470.24 C32.78 469.76 29.69 469.5 26.63 469.5 ZM26.63 434.25
							 C30.2 434.25 33.41 439.13 35.22 446.3 C32.47 446.75 29.57 447 26.63 447 C23.68 447 20.78 446.75 18.03
							 446.3 C19.84 439.13 23.05 434.25 26.63 434.25 ZM26.63 448.5 C29.68 448.5 32.7 448.24 35.56 447.76 C36.25
							 450.94 36.67 454.5 36.74 458.25 L16.51 458.25 C16.58 454.5 17 450.94 17.69 447.76 C20.55 448.24 23.57
							 448.5 26.63 448.5 ZM15.01 458.25 L1.53 458.25 C1.76 453.01 3.6 448.19 6.57 444.26 C9.29 445.67 12.58
							 446.76 16.19 447.48 C15.49 450.73 15.08 454.37 15.01 458.25 ZM15 459.75 C15.03 463.61 15.39 467.24 16.03
							 470.51 C12.21 471.25 8.72 472.36 6.04 473.75 C3.25 469.77 1.59 464.95 1.51 459.75 L15 459.75 ZM38.25
							 459.75 L51.74 459.75 C51.66 464.94 50.01 469.75 47.23 473.72 C44.54 472.34 41.05 471.23 37.22 470.5
							 C37.86 467.24 38.23 463.61 38.25 459.75 ZM38.24 458.25 C38.17 454.37 37.76 450.73 37.07 447.48 C40.67
							 446.76 43.96 445.66 46.68 444.26 C49.65 448.19 51.49 453.01 51.72 458.25 L38.24 458.25 ZM45.71 443.06
							 C43.15 444.35 40.08 445.35 36.73 446.02 C35.45 440.87 33.44 436.85 31 434.64 C36.84 435.67 42 438.73
							 45.71 443.06 ZM22.25 434.64 C19.81 436.85 17.8 440.87 16.52 446.02 C13.16 445.35 10.1 444.35 7.54 443.06
							 C11.25 438.73 16.4 435.67 22.25 434.64 ZM6.95 474.97 C9.49 473.69 12.76 472.66 16.34 471.98 C17.61 477.49
							 19.69 481.8 22.25 484.11 C16.09 483.02 10.69 479.69 6.95 474.97 ZM31 484.11 C33.56 481.79 35.64 477.48
							 36.91 471.97 C40.51 472.65 43.77 473.67 46.32 474.95 C42.58 479.67 37.17 483.02 31 484.11 Z"
						class="st13"/>
			</g>
		</g>
		<g id="shape1068-39" transform="translate(68.5161,-406.452)">
			<title>Sheet.1068</title>
			<desc>Internet</desc>
			<rect x="0" y="467.767" width="103.5" height="18.2332" class="st8"/>
			<text x="32.67" y="480.18" class="st14">Internet</text>		</g>
		<g id="group1069-42" transform="translate(88.6573,-285.107)">
			<title>Icon-networking-84</title>
			<g id="shape1070-43" transform="translate(0,-8.52965)">
				<title>Sheet.1070</title>
				<path d="M62.52 472.09 A14.1012 14.1012 -180 0 0 50.33 458.58 A17.7133 17.7133 -180 0 0 32.09 441.67 A18.1648 18.1648
							 -180 0 0 14.73 453.51 A16.7408 16.7408 -180 0 0 0 469.63 A17.0187 17.0187 -180 0 0 17.61 485.99 L19.14
							 485.99 L47.65 485.99 A5.07087 5.07087 -180 0 0 48.42 485.99 A14.2401 14.2401 -180 0 0 62.52 472.09 Z"
						class="st15"/>
			</g>
			<g id="shape1071-47" transform="translate(12.8856,5.68434E-14)">
				<title>Sheet.1071</title>
				<path d="M36.75 467.21 A1.45874 1.45874 -180 0 0 35.29 465.79 L1.46 465.79 A1.45874 1.45874 -180 0 0 -0 467.21 L0
							 484.58 A1.45874 1.45874 -180 0 0 1.46 486 L35.29 486 A1.45874 1.45874 -180 0 0 36.75 484.58 L36.75 467.21
							 Z" class="st16"/>
			</g>
			<g id="shape1072-49" transform="translate(14.9347,-13.7886)">
				<title>Sheet.1072</title>
				<rect x="0" y="481.589" width="9.96808" height="4.41096" class="st17"/>
			</g>
			<g id="shape1073-51" transform="translate(26.3963,-13.7886)">
				<title>Sheet.1073</title>
				<rect x="0" y="481.589" width="9.96808" height="4.41096" class="st18"/>
			</g>
			<g id="shape1074-53" transform="translate(37.8578,-13.7886)">
				<title>Sheet.1074</title>
				<rect x="0" y="481.589" width="9.96808" height="4.41096" class="st17"/>
			</g>
			<g id="shape1075-55" transform="translate(14.9347,-7.88416)">
				<title>Sheet.1075</title>
				<rect x="0" y="481.589" width="4.1331" height="4.41096" class="st17"/>
			</g>
			<g id="shape1076-57" transform="translate(43.6928,-7.88416)">
				<title>Sheet.1076</title>
				<rect x="0" y="481.589" width="4.1331" height="4.41096" class="st18"/>
			</g>
			<g id="shape1077-59" transform="translate(20.5613,-7.88416)">
				<title>Sheet.1077</title>
				<rect x="0" y="481.589" width="9.96808" height="4.41096" class="st18"/>
			</g>
			<g id="shape1078-61" transform="translate(32.0576,-7.88416)">
				<title>Sheet.1078</title>
				<rect x="0" y="481.589" width="9.96808" height="4.41096" class="st17"/>
			</g>
			<g id="shape1079-63" transform="translate(14.9347,-1.97972)">
				<title>Sheet.1079</title>
				<rect x="0" y="481.589" width="9.96808" height="4.41096" class="st17"/>
			</g>
			<g id="shape1080-65" transform="translate(26.3963,-1.97972)">
				<title>Sheet.1080</title>
				<rect x="0" y="481.589" width="9.96808" height="4.41096" class="st18"/>
			</g>
			<g id="shape1081-67" transform="translate(37.8578,-1.97972)">
				<title>Sheet.1081</title>
				<rect x="0" y="481.589" width="9.96808" height="4.41096" class="st17"/>
			</g>
		</g>
		<g id="shape1085-69" transform="translate(210.194,-156.774)">
			<title>Sheet.1085</title>
			<desc>MainSubnet</desc>
			<rect x="0" y="467.767" width="83.2137" height="18.2332" class="st8"/>
			<text x="7.03" y="480.18" class="st19">MainSubnet</text>		</g>
		<g id="shape1086-72" transform="translate(210.157,-71.9818)">
			<title>Sheet.1086</title>
			<rect x="0" y="383.063" width="238" height="102.938" class="st20"/>
		</g>
		<g id="shape1122-74" transform="translate(420.714,-182.903)">
			<title>Sheet.1122</title>
			<desc>NSG_MS</desc>
			<rect x="0" y="469.234" width="56.25" height="16.7661" class="st8"/>
			<text x="10.61" y="480.32" class="st21">NSG_MS</text>		</g>
		<g id="group1008-77" transform="translate(436.065,-43.5484)">
			<title>VNet WhiteBCK2.1342</title>
			<g id="shape1009-78" transform="translate(3.44085,-1.29032)">
				<title>Sheet.1009</title>
				<rect x="0" y="468.581" width="25.1612" height="17.4193" class="st22"/>
			</g>
			<g id="group1010-80">
				<title>Sheet.1010</title>
				<g id="group1011-81">
					<title>Page-1</title>
					<g id="group1012-82">
						<title>Virtual Network.16823</title>
						<g id="group1013-83">
							<title>Sheet.1013</title>
							<g id="group1014-84" transform="translate(8.15339,-8.26756)">
								<title>Sheet.1014</title>
								<g id="shape1015-85">
									<title>Sheet.1015</title>
									<path d="M16.95 484.5 A2.09637 2.09185 90 1 1 14.86 482.41 A2.09456 2.09004 90 0 1 16.95 484.5
												 ZM8.16 482.42 A2.09637 2.09185 -90 1 0 10.25 484.51 A2.09456 2.09004 -90 0 0 8.16
												 482.42 ZM1.48 482.42 A2.09637 2.09185 -90 1 0 3.57 484.52 A2.09637 2.09185 -90 0
												 0 1.48 482.43 L1.48 482.42 Z" class="st23"/>
								</g>
							</g>
							<g id="group1016-89" transform="translate(0.00722535,5.68434E-14)">
								<title>Sheet.1016</title>
								<g id="shape1017-90">
									<title>Sheet.1017</title>
									<path d="M11.16 484.64 L9.96 485.84 a0.543101 0.54193 90 0 1 -0.76593 0 L0.32 476.98 A1.0862
												 1.08386 90 0 1 0.32 475.44 L1.52 474.24 L11.16 483.87 a0.543101 0.54193 90 0 1 -1.59872E-14
												 0.769393 L11.16 484.64 Z" class="st24"/>
								</g>
							</g>
							<g id="group1018-92" transform="translate(0,-7.84199)">
								<title>Sheet.1018</title>
								<g id="shape1019-93">
									<title>Sheet.1019</title>
									<path d="M9.79 474.5 L11 475.71 a0.543101 0.54193 90 0 1 0 0.769393 L1.52 486 L0.32 484.8 A1.0862
												 1.08386 90 0 1 0.32 483.26 L9.03 474.51 a0.543101 0.54193 90 0 1 0.767736 0 L9.79
												 474.5 Z" class="st25"/>
								</g>
							</g>
							<g id="group1020-95" transform="translate(21.1854,-0.00362067)">
								<title>Sheet.1020</title>
								<g id="shape1021-96">
									<title>Sheet.1021</title>
									<path d="M9.8 474.24 L11 475.44 A1.0862 1.08386 90 0 1 11 476.98 L2.12 485.84 a0.543101 0.54193
												 90 0 1 -0.76593 0 L0.16 484.64 a0.543101 0.54193 90 0 1 -4.38538E-15 -0.767581 L9.8
												 474.24 Z" class="st24"/>
								</g>
							</g>
							<g id="group1022-98" transform="translate(21.3588,-7.84738)">
								<title>Sheet.1022</title>
								<g id="shape1023-99">
									<title>Sheet.1023</title>
									<path d="M10.83 484.8 L9.63 486 L0.16 476.48 a0.543101 0.54193 90 0 1 -9.04832E-15 -0.767581
												 L1.37 474.5 a0.543101 0.54193 90 0 1 0.76593 0 L10.84 483.25 A1.0862 1.08386 90
												 0 1 10.84 484.79 L10.83 484.8 Z" class="st25"/>
								</g>
							</g>
						</g>
					</g>
				</g>
			</g>
		</g>
		<g id="group1123-101" transform="translate(439.503,-161.667)">
			<title>Network Security Groups.1123</title>
			<g id="shape1124-102">
				<title>Sheet.1124</title>
				<path d="M18.67 474.05 C18.67 480.08 11.25 484.93 9.64 485.92 a0.583475 0.572661 0 0 1 -0.608844 0 C7.42 484.93 0
							 480.08 0 474.05 L0 466.81 a0.583475 0.572661 0 0 1 0.570791 -0.572661 C6.34 466.08 5.01 463.59 9.34
							 463.59 C13.66 463.59 12.33 466.08 18.1 466.23 a0.583475 0.572661 0 0 1 0.570791 0.572661 L18.67 474.05
							 Z" class="st4"/>
			</g>
			<g id="shape1125-104" transform="translate(0.773739,-0.92999)">
				<title>Sheet.1125</title>
				<path d="M17.12 475.04 C17.12 480.57 10.32 485 8.84 485.92 a0.545422 0.535313 0 0 1 -0.558107 0 C6.8 485.03 0 480.57
							 0 475.04 L0 468.4 a0.532738 0.522864 0 0 1 0.520054 -0.522864 C5.81 467.74 4.59 465.46 8.56 465.46 C12.53
							 465.46 11.31 467.74 16.6 467.87 a0.532738 0.522864 0 0 1 0.520054 0.522864 L17.12 475.04 Z"
						class="st26"/>
			</g>
			<g id="shape1126-106" transform="translate(0.811791,-0.930663)">
				<title>Sheet.1126</title>
				<path d="M8.52 475.73 L8.52 465.46 C12.49 465.46 11.28 467.74 16.57 467.87 a0.545422 0.535313 0 0 1 0.520054 0.535313
							 L17.09 475.06 A6.20259 6.08763 0 0 1 17.09 475.73 L8.52 475.73 ZM8.52 475.73 L0 475.73 C0.51 480.93
							 6.82 485.07 8.24 485.93 a0.494685 0.485517 -180 0 0 0.228316 0.0746949 L8.52 486 L8.52 475.73 Z"
						class="st27"/>
			</g>
			<g id="shape1127-110" transform="translate(0.802329,-0.930663)">
				<title>Sheet.1127</title>
				<path d="M0.49 467.87 C5.78 467.74 4.56 465.46 8.53 465.46 L8.53 475.73 L0.01 475.73 A6.20259 6.08763 0 0 1 0.01
							 475.06 L0.01 468.41 a0.545422 0.535313 0 0 1 0.482001 -0.535313 ZM17.06 475.73 L8.53 475.73 L8.53 486
							 a0.494685 0.485517 -180 0 0 0.228316 -0.0746949 C10.23 485.07 16.55 480.93 17.06 475.73 Z"
						class="st28"/>
			</g>
		</g>
		<g id="shape1148-112" transform="translate(57.2048,-251.419)">
			<title>Sheet.1148</title>
			<desc>Azure Firewall (optional)</desc>
			<rect x="0" y="451.989" width="123.281" height="34.0109" class="st8"/>
			<text x="27.96" y="465.69" class="st14">Azure Firewall <tspan x="38.2" dy="1.2em" class="st10">(optional)</tspan></text>		</g>
		<g id="shape1149-116" transform="translate(606.448,81.871) rotate(90)">
			<title>Directed line 1.1000</title>
			<path d="M0 486 L54.67 486" class="st29"/>
		</g>
		<g id="shape1150-122" transform="translate(826.657,246.194) rotate(90)">
			<title>Directed line 1.1150</title>
			<path d="M0 486 L105.39 486" class="st31"/>
		</g>
		<g id="shape1151-125" transform="translate(775.451,12.0942) rotate(61.1776)">
			<title>Directed line 1.1151</title>
			<path d="M0 486 L121.34 486" class="st31"/>
		</g>
		<g id="shape1152-128" transform="translate(759.959,477.597) rotate(118.482)">
			<title>Directed line 1.1152</title>
			<path d="M0 486 L120.31 486" class="st31"/>
		</g>
		<g id="group1000-131" transform="translate(318.554,-277.849)">
			<title>Virtual Machine.1111</title>
			<g id="shape1001-132" transform="translate(0,-12.9636)">
				<title>Sheet.1001</title>
				<path d="M0 484.32 A1.55212 1.67998 -180 0 0 1.55 486 L45.01 486 A1.55212 1.67998 -180 0 0 46.56 484.32 L46.56 454.08
							 A1.55212 1.67998 -180 0 0 45.01 452.4 L1.55 452.4 A1.55212 1.67998 -180 0 0 -0 454.08 L0 484.32 Z"
						class="st15"/>
			</g>
			<g id="shape1002-135" transform="translate(23.2813,-19.9634)">
				<title>Sheet.1002</title>
				<path d="M7.76 471.3 L7.76 481.07 L0 486 L0 476.2 L7.76 471.3 Z" class="st28"/>
			</g>
			<g id="shape1003-137" transform="translate(15.5208,-29.735)">
				<title>Sheet.1003</title>
				<path d="M15.52 481.07 L7.76 486 L0 481.07 L7.76 476.17 L15.52 481.07 Z" class="st32"/>
			</g>
			<g id="shape1004-139" transform="translate(15.5208,-19.9634)">
				<title>Sheet.1004</title>
				<path d="M7.76 476.23 L7.76 486 L0 481.07 L0 471.3 L7.76 476.23 Z" class="st33"/>
			</g>
			<g id="shape1005-141" transform="translate(15.5208,-19.9634)">
				<title>Sheet.1005</title>
				<path d="M0 481.07 L7.76 476.2 L7.76 486 L0 481.07 Z" class="st32"/>
			</g>
			<g id="shape1006-143" transform="translate(23.2813,-19.9634)">
				<title>Sheet.1006</title>
				<path d="M7.76 481.07 L0 476.2 L0 486 L7.76 481.07 Z" class="st33"/>
			</g>
			<g id="shape1007-145" transform="translate(11.6406,5.68434E-14)">
				<title>Sheet.1007</title>
				<path d="M20.98 483.2 C16.37 482.42 16.19 478.83 16.19 473.04 L7.06 473.04 C7.06 478.83 6.91 482.42 2.3 483.2 A2.58681
							 2.79991 -180 0 0 0 486 L23.28 486 A2.58681 2.79991 -180 0 0 20.98 483.2 Z" class="st34"/>
			</g>
		</g>
		<g id="shape1082-149" transform="translate(236.032,-215.419)">
			<title>Sheet.1082</title>
			<rect x="0" y="347.063" width="212.125" height="138.938" class="st20"/>
		</g>
		<g id="shape1083-151" transform="translate(275.226,-240.968)">
			<title>Sheet.1083</title>
			<desc>Windows Server Update Service virtual machine</desc>
			<rect x="0" y="451.989" width="136.703" height="34.0109" class="st8"/>
			<text x="10.06" y="465.69" class="st14">Windows Server Update <tspan x="12.75" dy="1.2em" class="st10">Service virtual machine</tspan></text>		</g>
		<g id="shape1084-155" transform="translate(236.903,-334.452)">
			<title>Sheet.1084</title>
			<desc>WSUSSubnet</desc>
			<rect x="0" y="467.767" width="81" height="18.2332" class="st8"/>
			<text x="6.57" y="480.18" class="st19">WSUSSubnet</text>		</g>
		<g id="group1115-158" transform="translate(435.693,-342)">
			<title>Network Security Groups.1115</title>
			<g id="shape1116-159">
				<title>Sheet.1116</title>
				<path d="M18.67 474.05 C18.67 480.08 11.25 484.93 9.64 485.92 a0.583475 0.572661 0 0 1 -0.608844 0 C7.42 484.93 0
							 480.08 0 474.05 L0 466.81 a0.583475 0.572661 0 0 1 0.570791 -0.572661 C6.34 466.08 5.01 463.59 9.34
							 463.59 C13.66 463.59 12.33 466.08 18.1 466.23 a0.583475 0.572661 0 0 1 0.570791 0.572661 L18.67 474.05
							 Z" class="st4"/>
			</g>
			<g id="shape1117-161" transform="translate(0.773739,-0.92999)">
				<title>Sheet.1117</title>
				<path d="M17.12 475.04 C17.12 480.57 10.32 485 8.84 485.92 a0.545422 0.535313 0 0 1 -0.558107 0 C6.8 485.03 0 480.57
							 0 475.04 L0 468.4 a0.532738 0.522864 0 0 1 0.520054 -0.522864 C5.81 467.74 4.59 465.46 8.56 465.46 C12.53
							 465.46 11.31 467.74 16.6 467.87 a0.532738 0.522864 0 0 1 0.520054 0.522864 L17.12 475.04 Z"
						class="st26"/>
			</g>
			<g id="shape1118-163" transform="translate(0.811791,-0.930663)">
				<title>Sheet.1118</title>
				<path d="M8.52 475.73 L8.52 465.46 C12.49 465.46 11.28 467.74 16.57 467.87 a0.545422 0.535313 0 0 1 0.520054 0.535313
							 L17.09 475.06 A6.20259 6.08763 0 0 1 17.09 475.73 L8.52 475.73 ZM8.52 475.73 L0 475.73 C0.51 480.93
							 6.82 485.07 8.24 485.93 a0.494685 0.485517 -180 0 0 0.228316 0.0746949 L8.52 486 L8.52 475.73 Z"
						class="st27"/>
			</g>
			<g id="shape1119-166" transform="translate(0.802329,-0.930663)">
				<title>Sheet.1119</title>
				<path d="M0.49 467.87 C5.78 467.74 4.56 465.46 8.53 465.46 L8.53 475.73 L0.01 475.73 A6.20259 6.08763 0 0 1 0.01
							 475.06 L0.01 468.41 a0.545422 0.535313 0 0 1 0.482001 -0.535313 ZM17.06 475.73 L8.53 475.73 L8.53 486
							 a0.494685 0.485517 -180 0 0 0.228316 -0.0746949 C10.23 485.07 16.55 480.93 17.06 475.73 Z"
						class="st28"/>
			</g>
		</g>
		<g id="shape1037-168" transform="translate(416.903,-362.382)">
			<title>Sheet.1037</title>
			<desc>NSG_DS</desc>
			<rect x="0" y="465.977" width="56.25" height="20.0233" class="st8"/>
			<text x="11.54" y="478.69" class="st35">NSG_DS</text>		</g>
		<g id="group1153-171" transform="translate(245.613,-90.5806)">
			<title>Sheet.1153</title>
			<g id="group1144-172">
				<title>Sheet.1144</title>
				<g id="group1087-173" transform="translate(11.1875,-27.1081)">
					<title>Virtual Machine.1087</title>
					<g id="shape1088-174" transform="translate(0,-8.59599)">
						<title>Sheet.1088</title>
						<path d="M0 484.89 A1.02919 1.11398 -180 0 0 1.03 486 L29.85 486 A1.02919 1.11398 -180 0 0 30.88 484.89 L30.88
									 464.83 A1.02919 1.11398 -180 0 0 29.85 463.72 L1.03 463.72 A1.02919 1.11398 -180 0 0 -0 464.83
									 L0 484.89 Z" class="st15"/>
					</g>
					<g id="shape1089-177" transform="translate(15.4375,-13.2375)">
						<title>Sheet.1089</title>
						<path d="M5.15 476.25 L5.15 482.73 L0 486 L0 479.5 L5.15 476.25 Z" class="st28"/>
					</g>
					<g id="shape1090-179" transform="translate(10.2917,-19.7169)">
						<title>Sheet.1090</title>
						<path d="M10.29 482.73 L5.15 486 L0 482.73 L5.15 479.48 L10.29 482.73 Z" class="st32"/>
					</g>
					<g id="shape1091-181" transform="translate(10.2917,-13.2375)">
						<title>Sheet.1091</title>
						<path d="M5.15 479.52 L5.15 486 L0 482.73 L0 476.25 L5.15 479.52 Z" class="st33"/>
					</g>
					<g id="shape1092-183" transform="translate(10.2917,-13.2375)">
						<title>Sheet.1092</title>
						<path d="M0 482.73 L5.15 479.5 L5.15 486 L0 482.73 Z" class="st32"/>
					</g>
					<g id="shape1093-185" transform="translate(15.4375,-13.2375)">
						<title>Sheet.1093</title>
						<path d="M5.15 482.73 L0 479.5 L0 486 L5.15 482.73 Z" class="st33"/>
					</g>
					<g id="shape1094-187" transform="translate(7.71875,5.68434E-14)">
						<title>Sheet.1094</title>
						<path d="M13.91 484.14 C10.86 483.62 10.74 481.25 10.74 477.4 L4.68 477.4 C4.68 481.25 4.58 483.62 1.53 484.14
									 A1.71528 1.85658 -180 0 0 -0 486 L15.44 486 A1.71528 1.85658 -180 0 0 13.91 484.14 Z"
								class="st34"/>
					</g>
				</g>
				<g id="shape1111-190">
					<title>Sheet.1111</title>
					<desc>Virtual machine</desc>
					<rect x="0" y="467.767" width="53.25" height="18.2332" class="st8"/>
					<text x="10.86" y="473.58" class="st14">Virtual <tspan x="6.12" dy="1.2em" class="st10">machine</tspan></text>				</g>
			</g>
			<g id="group1145-194" transform="translate(64.6354,0)">
				<title>Sheet.1145</title>
				<g id="shape1112-195">
					<title>Sheet.1112</title>
					<desc>Virtual machine</desc>
					<rect x="0" y="467.767" width="56.7001" height="18.2332" class="st8"/>
					<text x="12.58" y="473.58" class="st14">Virtual <tspan x="7.84" dy="1.2em" class="st10">machine</tspan></text>				</g>
				<g id="group1128-199" transform="translate(12.9125,-27.1081)">
					<title>Virtual Machine.1128</title>
					<g id="shape1129-200" transform="translate(0,-8.59599)">
						<title>Sheet.1129</title>
						<path d="M0 484.89 A1.02919 1.11398 -180 0 0 1.03 486 L29.85 486 A1.02919 1.11398 -180 0 0 30.88 484.89 L30.88
									 464.83 A1.02919 1.11398 -180 0 0 29.85 463.72 L1.03 463.72 A1.02919 1.11398 -180 0 0 -0 464.83
									 L0 484.89 Z" class="st15"/>
					</g>
					<g id="shape1130-203" transform="translate(15.4375,-13.2375)">
						<title>Sheet.1130</title>
						<path d="M5.15 476.25 L5.15 482.73 L0 486 L0 479.5 L5.15 476.25 Z" class="st28"/>
					</g>
					<g id="shape1131-205" transform="translate(10.2917,-19.7169)">
						<title>Sheet.1131</title>
						<path d="M10.29 482.73 L5.15 486 L0 482.73 L5.15 479.48 L10.29 482.73 Z" class="st32"/>
					</g>
					<g id="shape1132-207" transform="translate(10.2917,-13.2375)">
						<title>Sheet.1132</title>
						<path d="M5.15 479.52 L5.15 486 L0 482.73 L0 476.25 L5.15 479.52 Z" class="st33"/>
					</g>
					<g id="shape1133-209" transform="translate(10.2917,-13.2375)">
						<title>Sheet.1133</title>
						<path d="M0 482.73 L5.15 479.5 L5.15 486 L0 482.73 Z" class="st32"/>
					</g>
					<g id="shape1134-211" transform="translate(15.4375,-13.2375)">
						<title>Sheet.1134</title>
						<path d="M5.15 482.73 L0 479.5 L0 486 L5.15 482.73 Z" class="st33"/>
					</g>
					<g id="shape1135-213" transform="translate(7.71875,5.68434E-14)">
						<title>Sheet.1135</title>
						<path d="M13.91 484.14 C10.86 483.62 10.74 481.25 10.74 477.4 L4.68 477.4 C4.68 481.25 4.58 483.62 1.53 484.14
									 A1.71528 1.85658 -180 0 0 -0 486 L15.44 486 A1.71528 1.85658 -180 0 0 13.91 484.14 Z"
								class="st34"/>
					</g>
				</g>
			</g>
			<g id="group1146-216" transform="translate(132.721,-1.7053E-13)">
				<title>Sheet.1146</title>
				<g id="shape1113-217">
					<title>Sheet.1113</title>
					<desc>Virtual machine</desc>
					<rect x="0" y="467.767" width="56.7001" height="18.2332" class="st8"/>
					<text x="12.58" y="473.58" class="st14">Virtual <tspan x="7.84" dy="1.2em" class="st10">machine</tspan></text>				</g>
				<g id="group1136-221" transform="translate(12.9125,-27.1081)">
					<title>Virtual Machine.1136</title>
					<g id="shape1137-222" transform="translate(0,-8.59599)">
						<title>Sheet.1137</title>
						<path d="M0 484.89 A1.02919 1.11398 -180 0 0 1.03 486 L29.85 486 A1.02919 1.11398 -180 0 0 30.88 484.89 L30.88
									 464.83 A1.02919 1.11398 -180 0 0 29.85 463.72 L1.03 463.72 A1.02919 1.11398 -180 0 0 -0 464.83
									 L0 484.89 Z" class="st15"/>
					</g>
					<g id="shape1138-225" transform="translate(15.4375,-13.2375)">
						<title>Sheet.1138</title>
						<path d="M5.15 476.25 L5.15 482.73 L0 486 L0 479.5 L5.15 476.25 Z" class="st28"/>
					</g>
					<g id="shape1139-227" transform="translate(10.2917,-19.7169)">
						<title>Sheet.1139</title>
						<path d="M10.29 482.73 L5.15 486 L0 482.73 L5.15 479.48 L10.29 482.73 Z" class="st32"/>
					</g>
					<g id="shape1140-229" transform="translate(10.2917,-13.2375)">
						<title>Sheet.1140</title>
						<path d="M5.15 479.52 L5.15 486 L0 482.73 L0 476.25 L5.15 479.52 Z" class="st33"/>
					</g>
					<g id="shape1141-231" transform="translate(10.2917,-13.2375)">
						<title>Sheet.1141</title>
						<path d="M0 482.73 L5.15 479.5 L5.15 486 L0 482.73 Z" class="st32"/>
					</g>
					<g id="shape1142-233" transform="translate(15.4375,-13.2375)">
						<title>Sheet.1142</title>
						<path d="M5.15 482.73 L0 479.5 L0 486 L5.15 482.73 Z" class="st33"/>
					</g>
					<g id="shape1143-235" transform="translate(7.71875,5.68434E-14)">
						<title>Sheet.1143</title>
						<path d="M13.91 484.14 C10.86 483.62 10.74 481.25 10.74 477.4 L4.68 477.4 C4.68 481.25 4.58 483.62 1.53 484.14
									 A1.71528 1.85658 -180 0 0 -0 486 L15.44 486 A1.71528 1.85658 -180 0 0 13.91 484.14 Z"
								class="st34"/>
					</g>
				</g>
			</g>
		</g>
		<g id="shape1154-238" transform="translate(232.258,659.613) rotate(180)">
			<title>Directed line 1.1154</title>
			<path d="M0 486 L83.03 486" class="st31"/>
		</g>
		<g id="shape1156-241" transform="translate(117.871,-342)">
			<title>Sheet.1156</title>
			<desc>ü</desc>
			<rect x="0" y="467.438" width="33.75" height="18.5625" class="st8"/>
			<text x="9.8" y="482.12" class="st36">ü</text>		</g>
		<g id="shape1157-244" transform="translate(139.355,-334.452)">
			<title>Sheet.1157</title>
			<desc>Windows Update</desc>
			<rect x="0" y="450" width="94.4274" height="36" class="st8"/>
			<text x="5.57" y="471.39" class="st37">Windows Update</text>		</g>
	</g>
</svg>
