<svg width="3320" height="1833" xmlns="http://www.w3.org/2000/svg" xmlns:xlink="http://www.w3.org/1999/xlink" xml:space="preserve" overflow="hidden"><defs><clipPath id="clip0"><rect x="545" y="307" width="3320" height="1833"/></clipPath></defs><g clip-path="url(#clip0)" transform="translate(-545 -307)"><rect x="545" y="307" width="3320" height="1833" fill="#FFFFFF"/><path d="M2838.08 769.866 3222 1056.1 3215.84 1064.37 2831.92 778.134ZM3224.03 1044.75 3239.59 1075.64 3205.54 1069.55Z" fill="#215F9A"/><path d="M0.0313946-5.15615 378.84-2.84968 378.777 7.46263-0.0313946 5.15615ZM373.746-13.1934 404.589 2.46345 373.558 17.7435Z" fill="#215F9A" transform="matrix(1 0 0 -1 2835 773.464)"/><path d="M3.11404-4.1097 387.155 286.889 380.927 295.108-3.11404 4.1097ZM389.273 275.555 404.589 306.569 370.589 300.214Z" fill="#215F9A" transform="matrix(1 0 0 -1 2835 773.569)"/><path d="M1307.02 764.844 1611 765.967 1610.96 776.279 1306.98 775.156ZM1605.88 755.635 1636.76 771.218 1605.77 786.572Z" fill="#215F9A"/><path d="M913.5 691.667C913.5 670.036 931.036 652.5 952.667 652.5L1268.33 652.5C1289.96 652.5 1307.5 670.036 1307.5 691.667L1307.5 848.333C1307.5 869.964 1289.96 887.5 1268.33 887.5L952.667 887.5C931.036 887.5 913.5 869.964 913.5 848.333Z" stroke="#4E95D9" stroke-width="6.875" stroke-miterlimit="8" fill="#FFFFFF" fill-rule="evenodd"/><text fill="#595959" font-family="Calibri,Calibri_MSFontService,sans-serif" font-weight="400" font-size="64" transform="matrix(1 0 0 1 961.794 753)">Application</text><text fill="#595959" font-family="Calibri,Calibri_MSFontService,sans-serif" font-weight="400" font-size="64" transform="matrix(1 0 0 1 971.213 830)">(producer)</text><path d="M1636 715.667C1636 700.387 1648.39 688 1663.67 688L2871.33 688C2886.61 688 2899 700.387 2899 715.667L2899 826.332C2899 841.613 2886.61 854 2871.33 854L1663.67 854C1648.39 854 1636 841.613 1636 826.332Z" fill="#0070C0" fill-rule="evenodd"/><path d="M3239.5 467.5C3239.5 394.598 3298.6 335.5 3371.5 335.5 3444.4 335.5 3503.5 394.598 3503.5 467.5 3503.5 540.402 3444.4 599.5 3371.5 599.5 3298.6 599.5 3239.5 540.402 3239.5 467.5Z" stroke="#4E95D9" stroke-width="6.875" stroke-miterlimit="8" fill="#FFFFFF" fill-rule="evenodd"/><text fill="#595959" font-family="Calibri,Calibri_MSFontService,sans-serif" font-weight="400" font-size="55" transform="matrix(1 0 0 1 3257.33 485)">Consumer</text><path d="M3239.5 771.5C3239.5 698.598 3298.6 639.5 3371.5 639.5 3444.4 639.5 3503.5 698.598 3503.5 771.5 3503.5 844.401 3444.4 903.5 3371.5 903.5 3298.6 903.5 3239.5 844.401 3239.5 771.5Z" stroke="#4E95D9" stroke-width="6.875" stroke-miterlimit="8" fill="#FFFFFF" fill-rule="evenodd"/><text fill="#595959" font-family="Calibri,Calibri_MSFontService,sans-serif" font-weight="400" font-size="55" transform="matrix(1 0 0 1 3257.33 789)">Consumer</text><path d="M2831.4 1463.43 3219.12 1666.85 3214.33 1675.98 2826.6 1472.57ZM3219.35 1655.33 3239.56 1683.4 3204.97 1682.72Z" fill="#215F9A"/><path d="M1.08898-5.03994 386.444 78.2234 384.266 88.3033-1.08898 5.03994ZM383.583 67.0547 410.556 88.7084 377.049 97.2944Z" fill="#215F9A" transform="matrix(1 0 0 -1 2829 1468.71)"/><path d="M1636 1409.67C1636 1394.39 1648.39 1382 1663.67 1382L2871.33 1382C2886.61 1382 2899 1394.39 2899 1409.67L2899 1520.33C2899 1535.61 2886.61 1548 2871.33 1548L1663.67 1548C1648.39 1548 1636 1535.61 1636 1520.33Z" fill="#0070C0" fill-rule="evenodd"/><path d="M3239.5 1380.5C3239.5 1307.6 3298.6 1248.5 3371.5 1248.5 3444.4 1248.5 3503.5 1307.6 3503.5 1380.5 3503.5 1453.4 3444.4 1512.5 3371.5 1512.5 3298.6 1512.5 3239.5 1453.4 3239.5 1380.5Z" stroke="#4E95D9" stroke-width="6.875" stroke-miterlimit="8" fill="#FFFFFF" fill-rule="evenodd"/><text fill="#595959" font-family="Calibri,Calibri_MSFontService,sans-serif" font-weight="400" font-size="55" transform="matrix(1 0 0 1 3257.33 1398)">Consumer</text><path d="M2835.02 1980.84 3213.83 1982.54 3213.78 1992.85 2834.98 1991.16ZM3208.72 1972.2 3239.59 1987.81 3208.58 2003.14Z" fill="#215F9A"/><path d="M1636 1927.67C1636 1912.39 1648.39 1900 1663.67 1900L2871.33 1900C2886.61 1900 2899 1912.39 2899 1927.67L2899 2038.33C2899 2053.61 2886.61 2066 2871.33 2066L1663.67 2066C1648.39 2066 1636 2053.61 1636 2038.33Z" fill="#0070C0" fill-rule="evenodd"/><path d="M3239.5 1988.5C3239.5 1915.6 3298.6 1856.5 3371.5 1856.5 3444.4 1856.5 3503.5 1915.6 3503.5 1988.5 3503.5 2061.4 3444.4 2120.5 3371.5 2120.5 3298.6 2120.5 3239.5 2061.4 3239.5 1988.5Z" stroke="#4E95D9" stroke-width="6.875" stroke-miterlimit="8" fill="#FFFFFF" fill-rule="evenodd"/><text fill="#595959" font-family="Calibri,Calibri_MSFontService,sans-serif" font-weight="400" font-size="55" transform="matrix(1 0 0 1 3257.33 2006)">Consumer</text><path d="M3239.5 1684.5C3239.5 1611.6 3298.6 1552.5 3371.5 1552.5 3444.4 1552.5 3503.5 1611.6 3503.5 1684.5 3503.5 1757.4 3444.4 1816.5 3371.5 1816.5 3298.6 1816.5 3239.5 1757.4 3239.5 1684.5Z" stroke="#4E95D9" stroke-width="6.875" stroke-miterlimit="8" fill="#FFFFFF" fill-rule="evenodd"/><text fill="#595959" font-family="Calibri,Calibri_MSFontService,sans-serif" font-weight="400" font-size="55" transform="matrix(1 0 0 1 3257.33 1702)">Consumer</text><path d="M3239.5 1076.5C3239.5 1003.6 3298.6 944.5 3371.5 944.5 3444.4 944.5 3503.5 1003.6 3503.5 1076.5 3503.5 1149.4 3444.4 1208.5 3371.5 1208.5 3298.6 1208.5 3239.5 1149.4 3239.5 1076.5Z" stroke="#4E95D9" stroke-width="6.875" stroke-miterlimit="8" fill="#FFFFFF" fill-rule="evenodd"/><text fill="#595959" font-family="Calibri,Calibri_MSFontService,sans-serif" font-weight="400" font-size="55" transform="matrix(1 0 0 1 3257.33 1094)">Consumer</text><path d="M0-5.15625 582.972-5.15625 582.972 430.243 572.66 430.243 572.66 0 577.816 5.15625 0 5.15625ZM593.285 425.086 577.816 456.024 562.347 425.086Z" fill="#215F9A" transform="matrix(1.83697e-16 1 1 -1.83697e-16 1180 887)"/><path d="M0-5.15625 1100.67-5.15625 1100.67 576.907 1090.35 576.907 1090.35 0 1095.51 5.15625 0 5.15625ZM1110.98 571.751 1095.51 602.688 1080.04 571.751Z" fill="#215F9A" transform="matrix(1.83697e-16 1 1 -1.83697e-16 1034 887)"/><rect x="1130" y="1162" width="126" height="89" fill="#FFFFFF"/><g><g><g><path d="M17.2917 36.3125 17.2917 129.688 148.708 129.688 148.708 36.3125ZM86.6693 95.9065C84.6393 97.9245 81.3608 97.9245 79.3307 95.9065L23.2244 39.8002C23.2177 39.7935 23.2179 39.7824 23.2246 39.7759 23.2279 39.7727 23.232 39.7708 23.2365 39.7708L142.763 39.7708C142.773 39.771 142.781 39.7788 142.781 39.7883 142.78 39.7928 142.779 39.7971 142.776 39.8002ZM61.5341 83 20.7794 123.755C20.7727 123.761 20.7616 123.761 20.755 123.755 20.7519 123.751 20.75 123.747 20.75 123.743L20.75 42.2574C20.7502 42.2479 20.758 42.2403 20.7675 42.2403 20.772 42.2404 20.7763 42.2422 20.7794 42.2453ZM63.9792 85.4451 76.8857 98.3516C80.2617 101.728 85.7359 101.729 89.1128 98.3531 89.1133 98.3526 89.1138 98.3521 89.1143 98.3516L102.021 85.4451 142.776 126.2C142.782 126.207 142.782 126.218 142.775 126.224 142.772 126.227 142.768 126.229 142.763 126.229L23.2365 126.229C23.227 126.229 23.2194 126.221 23.2194 126.212 23.2196 126.207 23.2213 126.203 23.2244 126.2ZM104.466 83 145.221 42.2453C145.227 42.2385 145.238 42.2387 145.245 42.2455 145.248 42.2487 145.25 42.2529 145.25 42.2574L145.25 123.743C145.25 123.752 145.242 123.76 145.233 123.76 145.228 123.76 145.224 123.758 145.221 123.755Z" stroke="#7F7F7F" stroke-width="1.72917" fill="#7F7F7F" transform="matrix(1.00602 0 0 1 1109 1123)"/></g></g></g><text font-family="Calibri,Calibri_MSFontService,sans-serif" font-weight="700" font-size="73" transform="matrix(1 0 0 1 1174.31 1233)">2</text><rect x="970" y="1659" width="127" height="90.0001" fill="#FFFFFF"/><g><g><g><path d="M967.292 1657.31 967.292 1750.69 1098.71 1750.69 1098.71 1657.31ZM1036.67 1716.91C1034.64 1718.92 1031.36 1718.92 1029.33 1716.91L973.225 1660.8C973.218 1660.79 973.218 1660.78 973.225 1660.78 973.228 1660.77 973.232 1660.77 973.237 1660.77L1092.76 1660.77C1092.77 1660.77 1092.78 1660.78 1092.78 1660.79 1092.78 1660.79 1092.78 1660.8 1092.78 1660.8ZM1011.53 1704 970.78 1744.75C970.773 1744.76 970.762 1744.76 970.755 1744.75 970.752 1744.75 970.75 1744.75 970.75 1744.74L970.75 1663.26C970.75 1663.25 970.758 1663.24 970.768 1663.24 970.772 1663.24 970.776 1663.24 970.78 1663.25ZM1013.98 1706.45 1026.89 1719.35C1030.26 1722.73 1035.74 1722.73 1039.11 1719.35 1039.11 1719.35 1039.11 1719.35 1039.11 1719.35L1052.02 1706.45 1092.78 1747.2C1092.78 1747.21 1092.78 1747.22 1092.78 1747.22 1092.77 1747.23 1092.77 1747.23 1092.76 1747.23L973.237 1747.23C973.227 1747.23 973.22 1747.22 973.22 1747.21 973.22 1747.21 973.221 1747.2 973.225 1747.2ZM1054.47 1704 1095.22 1663.25C1095.23 1663.24 1095.24 1663.24 1095.25 1663.25 1095.25 1663.25 1095.25 1663.25 1095.25 1663.26L1095.25 1744.74C1095.25 1744.75 1095.24 1744.76 1095.23 1744.76 1095.23 1744.76 1095.22 1744.76 1095.22 1744.75Z" stroke="#7F7F7F" stroke-width="1.72917" fill="#7F7F7F"/></g></g></g><text font-family="Calibri,Calibri_MSFontService,sans-serif" font-weight="700" font-size="73" transform="matrix(1 0 0 1 1014.62 1731)">3</text><rect x="1409" y="728" width="126" height="89.0001" fill="#FFFFFF"/><g><g><g><path d="M17.2917 36.3125 17.2917 129.688 148.708 129.688 148.708 36.3125ZM86.6693 95.9065C84.6393 97.9245 81.3608 97.9245 79.3307 95.9065L23.2244 39.8002C23.2177 39.7935 23.2179 39.7824 23.2246 39.7759 23.2279 39.7727 23.232 39.7708 23.2365 39.7708L142.763 39.7708C142.773 39.771 142.781 39.7788 142.781 39.7883 142.78 39.7928 142.779 39.7971 142.776 39.8002ZM61.5341 83 20.7794 123.755C20.7727 123.761 20.7616 123.761 20.755 123.755 20.7519 123.751 20.75 123.747 20.75 123.743L20.75 42.2574C20.7502 42.2479 20.758 42.2403 20.7675 42.2403 20.772 42.2404 20.7763 42.2422 20.7794 42.2453ZM63.9792 85.4451 76.8857 98.3516C80.2617 101.728 85.7359 101.729 89.1128 98.3531 89.1133 98.3526 89.1138 98.3521 89.1143 98.3516L102.021 85.4451 142.776 126.2C142.782 126.207 142.782 126.218 142.775 126.224 142.772 126.227 142.768 126.229 142.763 126.229L23.2365 126.229C23.227 126.229 23.2194 126.221 23.2194 126.212 23.2196 126.207 23.2213 126.203 23.2244 126.2ZM104.466 83 145.221 42.2453C145.227 42.2385 145.238 42.2387 145.245 42.2455 145.248 42.2487 145.25 42.2529 145.25 42.2574L145.25 123.743C145.25 123.752 145.242 123.76 145.233 123.76 145.228 123.76 145.224 123.758 145.221 123.755Z" stroke="#F2F2F2" stroke-width="1.72917" fill="#7F7F7F" transform="matrix(1.00602 0 0 1 1388 689)"/></g></g></g><text font-family="Calibri,Calibri_MSFontService,sans-serif" font-weight="700" font-size="73" transform="matrix(1 0 0 1 1453.25 799)">1</text><rect x="2276" y="727" width="127" height="90.0001" fill="#FFFFFF"/><g><g><g><path d="M2273.29 725.312 2273.29 818.687 2404.71 818.687 2404.71 725.312ZM2342.67 784.906C2340.64 786.924 2337.36 786.924 2335.33 784.906L2279.22 728.8C2279.22 728.793 2279.22 728.782 2279.22 728.776 2279.23 728.773 2279.23 728.771 2279.24 728.771L2398.76 728.771C2398.77 728.771 2398.78 728.779 2398.78 728.788 2398.78 728.793 2398.78 728.797 2398.78 728.8ZM2317.53 772 2276.78 812.755C2276.77 812.761 2276.76 812.761 2276.76 812.754 2276.75 812.751 2276.75 812.747 2276.75 812.743L2276.75 731.257C2276.75 731.248 2276.76 731.24 2276.77 731.24 2276.77 731.24 2276.78 731.242 2276.78 731.245ZM2319.98 774.445 2332.89 787.351C2336.26 790.728 2341.74 790.729 2345.11 787.353 2345.11 787.352 2345.11 787.352 2345.11 787.351L2358.02 774.445 2398.78 815.2C2398.78 815.206 2398.78 815.217 2398.78 815.224 2398.77 815.227 2398.77 815.229 2398.76 815.229L2279.24 815.229C2279.23 815.229 2279.22 815.221 2279.22 815.212 2279.22 815.207 2279.22 815.203 2279.22 815.2ZM2360.47 772 2401.22 731.245C2401.23 731.238 2401.24 731.239 2401.25 731.245 2401.25 731.249 2401.25 731.253 2401.25 731.257L2401.25 812.743C2401.25 812.752 2401.24 812.76 2401.23 812.76 2401.23 812.759 2401.22 812.758 2401.22 812.755Z" stroke="#F2F2F2" stroke-width="1.72917" fill="#7F7F7F"/></g></g></g><text font-family="Calibri,Calibri_MSFontService,sans-serif" font-weight="700" font-size="73" transform="matrix(1 0 0 1 2320.68 799)">1</text><rect x="2498" y="727" width="126" height="90.0001" fill="#FFFFFF"/><g><g><g><path d="M17.2917 36.3125 17.2917 129.688 148.708 129.688 148.708 36.3125ZM86.6693 95.9065C84.6393 97.9245 81.3608 97.9245 79.3307 95.9065L23.2244 39.8002C23.2177 39.7935 23.2179 39.7824 23.2246 39.7759 23.2279 39.7727 23.232 39.7708 23.2365 39.7708L142.763 39.7708C142.773 39.771 142.781 39.7788 142.781 39.7883 142.78 39.7928 142.779 39.7971 142.776 39.8002ZM61.5341 83 20.7794 123.755C20.7727 123.761 20.7616 123.761 20.755 123.755 20.7519 123.751 20.75 123.747 20.75 123.743L20.75 42.2574C20.7502 42.2479 20.758 42.2403 20.7675 42.2403 20.772 42.2404 20.7763 42.2422 20.7794 42.2453ZM63.9792 85.4451 76.8857 98.3516C80.2617 101.728 85.7359 101.729 89.1128 98.3531 89.1133 98.3526 89.1138 98.3521 89.1143 98.3516L102.021 85.4451 142.776 126.2C142.782 126.207 142.782 126.218 142.775 126.224 142.772 126.227 142.768 126.229 142.763 126.229L23.2365 126.229C23.227 126.229 23.2194 126.221 23.2194 126.212 23.2196 126.207 23.2213 126.203 23.2244 126.2ZM104.466 83 145.221 42.2453C145.227 42.2385 145.238 42.2387 145.245 42.2455 145.248 42.2487 145.25 42.2529 145.25 42.2574L145.25 123.743C145.25 123.752 145.242 123.76 145.233 123.76 145.228 123.76 145.224 123.758 145.221 123.755Z" stroke="#F2F2F2" stroke-width="1.72917" fill="#7F7F7F" transform="matrix(1.00602 0 0 1 2477 689)"/></g></g></g><text font-family="Calibri,Calibri_MSFontService,sans-serif" font-weight="700" font-size="73" transform="matrix(1 0 0 1 2542.33 799)">1</text><rect x="2719" y="727" width="127" height="90.0001" fill="#FFFFFF"/><g><g><g><path d="M2716.29 725.312 2716.29 818.687 2847.71 818.687 2847.71 725.312ZM2785.67 784.906C2783.64 786.924 2780.36 786.924 2778.33 784.906L2722.22 728.8C2722.22 728.793 2722.22 728.782 2722.22 728.776 2722.23 728.773 2722.23 728.771 2722.24 728.771L2841.76 728.771C2841.77 728.771 2841.78 728.779 2841.78 728.788 2841.78 728.793 2841.78 728.797 2841.78 728.8ZM2760.53 772 2719.78 812.755C2719.77 812.761 2719.76 812.761 2719.76 812.754 2719.75 812.751 2719.75 812.747 2719.75 812.743L2719.75 731.257C2719.75 731.248 2719.76 731.24 2719.77 731.24 2719.77 731.24 2719.78 731.242 2719.78 731.245ZM2762.98 774.445 2775.89 787.351C2779.26 790.728 2784.74 790.729 2788.11 787.353 2788.11 787.352 2788.11 787.352 2788.11 787.351L2801.02 774.445 2841.78 815.2C2841.78 815.206 2841.78 815.217 2841.78 815.224 2841.77 815.227 2841.77 815.229 2841.76 815.229L2722.24 815.229C2722.23 815.229 2722.22 815.221 2722.22 815.212 2722.22 815.207 2722.22 815.203 2722.22 815.2ZM2803.47 772 2844.22 731.245C2844.23 731.238 2844.24 731.239 2844.25 731.245 2844.25 731.249 2844.25 731.253 2844.25 731.257L2844.25 812.743C2844.25 812.752 2844.24 812.76 2844.23 812.76 2844.23 812.759 2844.22 812.758 2844.22 812.755Z" stroke="#F2F2F2" stroke-width="1.72917" fill="#7F7F7F"/></g></g></g><text font-family="Calibri,Calibri_MSFontService,sans-serif" font-weight="700" font-size="73" transform="matrix(1 0 0 1 2763.99 799)">1</text><rect x="2276" y="1427" width="127" height="90.0001" fill="#FFFFFF"/><g><g><g><path d="M2273.29 1425.31 2273.29 1518.69 2404.71 1518.69 2404.71 1425.31ZM2342.67 1484.91C2340.64 1486.92 2337.36 1486.92 2335.33 1484.91L2279.22 1428.8C2279.22 1428.79 2279.22 1428.78 2279.22 1428.78 2279.23 1428.77 2279.23 1428.77 2279.24 1428.77L2398.76 1428.77C2398.77 1428.77 2398.78 1428.78 2398.78 1428.79 2398.78 1428.79 2398.78 1428.8 2398.78 1428.8ZM2317.53 1472 2276.78 1512.75C2276.77 1512.76 2276.76 1512.76 2276.76 1512.75 2276.75 1512.75 2276.75 1512.75 2276.75 1512.74L2276.75 1431.26C2276.75 1431.25 2276.76 1431.24 2276.77 1431.24 2276.77 1431.24 2276.78 1431.24 2276.78 1431.25ZM2319.98 1474.45 2332.89 1487.35C2336.26 1490.73 2341.74 1490.73 2345.11 1487.35 2345.11 1487.35 2345.11 1487.35 2345.11 1487.35L2358.02 1474.45 2398.78 1515.2C2398.78 1515.21 2398.78 1515.22 2398.78 1515.22 2398.77 1515.23 2398.77 1515.23 2398.76 1515.23L2279.24 1515.23C2279.23 1515.23 2279.22 1515.22 2279.22 1515.21 2279.22 1515.21 2279.22 1515.2 2279.22 1515.2ZM2360.47 1472 2401.22 1431.25C2401.23 1431.24 2401.24 1431.24 2401.25 1431.25 2401.25 1431.25 2401.25 1431.25 2401.25 1431.26L2401.25 1512.74C2401.25 1512.75 2401.24 1512.76 2401.23 1512.76 2401.23 1512.76 2401.22 1512.76 2401.22 1512.75Z" stroke="#F2F2F2" stroke-width="1.72917" fill="#7F7F7F"/></g></g></g><text font-family="Calibri,Calibri_MSFontService,sans-serif" font-weight="700" font-size="73" transform="matrix(1 0 0 1 2320.68 1499)">2</text><rect x="2498" y="1427" width="126" height="90.0001" fill="#FFFFFF"/><g><g><g><path d="M17.2917 36.3125 17.2917 129.688 148.708 129.688 148.708 36.3125ZM86.6693 95.9065C84.6393 97.9245 81.3608 97.9245 79.3307 95.9065L23.2244 39.8002C23.2177 39.7935 23.2179 39.7824 23.2246 39.7759 23.2279 39.7727 23.232 39.7708 23.2365 39.7708L142.763 39.7708C142.773 39.771 142.781 39.7788 142.781 39.7883 142.78 39.7928 142.779 39.7971 142.776 39.8002ZM61.5341 83 20.7794 123.755C20.7727 123.761 20.7616 123.761 20.755 123.755 20.7519 123.751 20.75 123.747 20.75 123.743L20.75 42.2574C20.7502 42.2479 20.758 42.2403 20.7675 42.2403 20.772 42.2404 20.7763 42.2422 20.7794 42.2453ZM63.9792 85.4451 76.8857 98.3516C80.2617 101.728 85.7359 101.729 89.1128 98.3531 89.1133 98.3526 89.1138 98.3521 89.1143 98.3516L102.021 85.4451 142.776 126.2C142.782 126.207 142.782 126.218 142.775 126.224 142.772 126.227 142.768 126.229 142.763 126.229L23.2365 126.229C23.227 126.229 23.2194 126.221 23.2194 126.212 23.2196 126.207 23.2213 126.203 23.2244 126.2ZM104.466 83 145.221 42.2453C145.227 42.2385 145.238 42.2387 145.245 42.2455 145.248 42.2487 145.25 42.2529 145.25 42.2574L145.25 123.743C145.25 123.752 145.242 123.76 145.233 123.76 145.228 123.76 145.224 123.758 145.221 123.755Z" stroke="#F2F2F2" stroke-width="1.72917" fill="#7F7F7F" transform="matrix(1.00602 0 0 1 2477 1389)"/></g></g></g><text font-family="Calibri,Calibri_MSFontService,sans-serif" font-weight="700" font-size="73" transform="matrix(1 0 0 1 2542.33 1499)">2</text><rect x="2719" y="1427" width="127" height="90.0001" fill="#FFFFFF"/><g><g><g><path d="M2716.29 1425.31 2716.29 1518.69 2847.71 1518.69 2847.71 1425.31ZM2785.67 1484.91C2783.64 1486.92 2780.36 1486.92 2778.33 1484.91L2722.22 1428.8C2722.22 1428.79 2722.22 1428.78 2722.22 1428.78 2722.23 1428.77 2722.23 1428.77 2722.24 1428.77L2841.76 1428.77C2841.77 1428.77 2841.78 1428.78 2841.78 1428.79 2841.78 1428.79 2841.78 1428.8 2841.78 1428.8ZM2760.53 1472 2719.78 1512.75C2719.77 1512.76 2719.76 1512.76 2719.76 1512.75 2719.75 1512.75 2719.75 1512.75 2719.75 1512.74L2719.75 1431.26C2719.75 1431.25 2719.76 1431.24 2719.77 1431.24 2719.77 1431.24 2719.78 1431.24 2719.78 1431.25ZM2762.98 1474.45 2775.89 1487.35C2779.26 1490.73 2784.74 1490.73 2788.11 1487.35 2788.11 1487.35 2788.11 1487.35 2788.11 1487.35L2801.02 1474.45 2841.78 1515.2C2841.78 1515.21 2841.78 1515.22 2841.78 1515.22 2841.77 1515.23 2841.77 1515.23 2841.76 1515.23L2722.24 1515.23C2722.23 1515.23 2722.22 1515.22 2722.22 1515.21 2722.22 1515.21 2722.22 1515.2 2722.22 1515.2ZM2803.47 1472 2844.22 1431.25C2844.23 1431.24 2844.24 1431.24 2844.25 1431.25 2844.25 1431.25 2844.25 1431.25 2844.25 1431.26L2844.25 1512.74C2844.25 1512.75 2844.24 1512.76 2844.23 1512.76 2844.23 1512.76 2844.22 1512.76 2844.22 1512.75Z" stroke="#F2F2F2" stroke-width="1.72917" fill="#7F7F7F"/></g></g></g><text font-family="Calibri,Calibri_MSFontService,sans-serif" font-weight="700" font-size="73" transform="matrix(1 0 0 1 2763.99 1499)">2</text><rect x="2276" y="1941" width="127" height="88.9996" fill="#FFFFFF"/><g><g><g><path d="M2273.29 1938.31 2273.29 2031.69 2404.71 2031.69 2404.71 1938.31ZM2342.67 1997.91C2340.64 1999.92 2337.36 1999.92 2335.33 1997.91L2279.22 1941.8C2279.22 1941.79 2279.22 1941.78 2279.22 1941.78 2279.23 1941.77 2279.23 1941.77 2279.24 1941.77L2398.76 1941.77C2398.77 1941.77 2398.78 1941.78 2398.78 1941.79 2398.78 1941.79 2398.78 1941.8 2398.78 1941.8ZM2317.53 1985 2276.78 2025.75C2276.77 2025.76 2276.76 2025.76 2276.76 2025.75 2276.75 2025.75 2276.75 2025.75 2276.75 2025.74L2276.75 1944.26C2276.75 1944.25 2276.76 1944.24 2276.77 1944.24 2276.77 1944.24 2276.78 1944.24 2276.78 1944.25ZM2319.98 1987.45 2332.89 2000.35C2336.26 2003.73 2341.74 2003.73 2345.11 2000.35 2345.11 2000.35 2345.11 2000.35 2345.11 2000.35L2358.02 1987.45 2398.78 2028.2C2398.78 2028.21 2398.78 2028.22 2398.78 2028.22 2398.77 2028.23 2398.77 2028.23 2398.76 2028.23L2279.24 2028.23C2279.23 2028.23 2279.22 2028.22 2279.22 2028.21 2279.22 2028.21 2279.22 2028.2 2279.22 2028.2ZM2360.47 1985 2401.22 1944.25C2401.23 1944.24 2401.24 1944.24 2401.25 1944.25 2401.25 1944.25 2401.25 1944.25 2401.25 1944.26L2401.25 2025.74C2401.25 2025.75 2401.24 2025.76 2401.23 2025.76 2401.23 2025.76 2401.22 2025.76 2401.22 2025.75Z" stroke="#F2F2F2" stroke-width="1.72917" fill="#7F7F7F"/></g></g></g><text font-family="Calibri,Calibri_MSFontService,sans-serif" font-weight="700" font-size="73" transform="matrix(1 0 0 1 2320.68 2012)">3</text><rect x="2498" y="1941" width="126" height="88.9996" fill="#FFFFFF"/><g><g><g><path d="M17.2917 36.3125 17.2917 129.688 148.708 129.688 148.708 36.3125ZM86.6693 95.9065C84.6393 97.9245 81.3608 97.9245 79.3307 95.9065L23.2244 39.8002C23.2177 39.7935 23.2179 39.7824 23.2246 39.7759 23.2279 39.7727 23.232 39.7708 23.2365 39.7708L142.763 39.7708C142.773 39.771 142.781 39.7788 142.781 39.7883 142.78 39.7928 142.779 39.7971 142.776 39.8002ZM61.5341 83 20.7794 123.755C20.7727 123.761 20.7616 123.761 20.755 123.755 20.7519 123.751 20.75 123.747 20.75 123.743L20.75 42.2574C20.7502 42.2479 20.758 42.2403 20.7675 42.2403 20.772 42.2404 20.7763 42.2422 20.7794 42.2453ZM63.9792 85.4451 76.8857 98.3516C80.2617 101.728 85.7359 101.729 89.1128 98.3531 89.1133 98.3526 89.1138 98.3521 89.1143 98.3516L102.021 85.4451 142.776 126.2C142.782 126.207 142.782 126.218 142.775 126.224 142.772 126.227 142.768 126.229 142.763 126.229L23.2365 126.229C23.227 126.229 23.2194 126.221 23.2194 126.212 23.2196 126.207 23.2213 126.203 23.2244 126.2ZM104.466 83 145.221 42.2453C145.227 42.2385 145.238 42.2387 145.245 42.2455 145.248 42.2487 145.25 42.2529 145.25 42.2574L145.25 123.743C145.25 123.752 145.242 123.76 145.233 123.76 145.228 123.76 145.224 123.758 145.221 123.755Z" stroke="#F2F2F2" stroke-width="1.72917" fill="#7F7F7F" transform="matrix(1.00602 0 0 1 2477 1902)"/></g></g></g><text font-family="Calibri,Calibri_MSFontService,sans-serif" font-weight="700" font-size="73" transform="matrix(1 0 0 1 2542.33 2012)">3</text><rect x="2719" y="1941" width="127" height="88.9996" fill="#FFFFFF"/><g><g><g><path d="M2716.29 1938.31 2716.29 2031.69 2847.71 2031.69 2847.71 1938.31ZM2785.67 1997.91C2783.64 1999.92 2780.36 1999.92 2778.33 1997.91L2722.22 1941.8C2722.22 1941.79 2722.22 1941.78 2722.22 1941.78 2722.23 1941.77 2722.23 1941.77 2722.24 1941.77L2841.76 1941.77C2841.77 1941.77 2841.78 1941.78 2841.78 1941.79 2841.78 1941.79 2841.78 1941.8 2841.78 1941.8ZM2760.53 1985 2719.78 2025.75C2719.77 2025.76 2719.76 2025.76 2719.76 2025.75 2719.75 2025.75 2719.75 2025.75 2719.75 2025.74L2719.75 1944.26C2719.75 1944.25 2719.76 1944.24 2719.77 1944.24 2719.77 1944.24 2719.78 1944.24 2719.78 1944.25ZM2762.98 1987.45 2775.89 2000.35C2779.26 2003.73 2784.74 2003.73 2788.11 2000.35 2788.11 2000.35 2788.11 2000.35 2788.11 2000.35L2801.02 1987.45 2841.78 2028.2C2841.78 2028.21 2841.78 2028.22 2841.78 2028.22 2841.77 2028.23 2841.77 2028.23 2841.76 2028.23L2722.24 2028.23C2722.23 2028.23 2722.22 2028.22 2722.22 2028.21 2722.22 2028.21 2722.22 2028.2 2722.22 2028.2ZM2803.47 1985 2844.22 1944.25C2844.23 1944.24 2844.24 1944.24 2844.25 1944.25 2844.25 1944.25 2844.25 1944.25 2844.25 1944.26L2844.25 2025.74C2844.25 2025.75 2844.24 2025.76 2844.23 2025.76 2844.23 2025.76 2844.22 2025.76 2844.22 2025.75Z" stroke="#F2F2F2" stroke-width="1.72917" fill="#7F7F7F"/></g></g></g><text font-family="Calibri,Calibri_MSFontService,sans-serif" font-weight="700" font-size="73" transform="matrix(1 0 0 1 2763.99 2012)">3</text></g></svg>