<svg width="3309" height="1888" xmlns="http://www.w3.org/2000/svg" xmlns:xlink="http://www.w3.org/1999/xlink" xml:space="preserve" overflow="hidden"><defs><clipPath id="clip0"><rect x="550" y="284" width="3309" height="1888"/></clipPath></defs><g clip-path="url(#clip0)" transform="translate(-550 -284)"><rect x="550" y="284" width="3309" height="1888" fill="#FFFFFF"/><path d="M3135 368.651C3135 332.393 3164.39 303 3200.65 303L3463.25 303C3499.51 303 3528.9 332.393 3528.9 368.651L3528.9 2092.35C3528.9 2128.61 3499.51 2158 3463.25 2158L3200.65 2158C3164.39 2158 3135 2128.61 3135 2092.35Z" fill="#F2F2F2" fill-rule="evenodd"/><rect x="2381.5" y="735.5" width="74" height="89.9997" stroke="#042433" stroke-width="6.875" stroke-miterlimit="8" fill="#156082"/><path d="M2790.05 777.844 3114.6 781.019 3114.5 791.331 2789.95 788.156ZM3109.54 770.656 3140.33 786.427 3109.24 801.592Z" fill="#215F9A"/><path d="M1262.02 773.844 1566 774.966 1565.96 785.279 1261.98 784.156ZM1560.88 764.635 1591.76 780.218 1560.77 795.572Z" fill="#215F9A"/><path d="M868.5 700.834C868.5 679.11 886.111 661.5 907.834 661.5L1223.17 661.5C1244.89 661.5 1262.5 679.11 1262.5 700.834L1262.5 858.166C1262.5 879.89 1244.89 897.5 1223.17 897.5L907.834 897.5C886.111 897.5 868.5 879.89 868.5 858.166Z" stroke="#4E95D9" stroke-width="6.875" stroke-miterlimit="8" fill="#FFFFFF" fill-rule="evenodd"/><text fill="#595959" font-family="Calibri,Calibri_MSFontService,sans-serif" font-weight="400" font-size="64" transform="matrix(1 0 0 1 917.492 762)">Application</text><text fill="#595959" font-family="Calibri,Calibri_MSFontService,sans-serif" font-weight="400" font-size="64" transform="matrix(1 0 0 1 926.911 839)">(producer)</text><path d="M1592 724.668C1592 709.387 1604.39 697 1619.67 697L2827.33 697C2842.61 697 2855 709.387 2855 724.668L2855 835.333C2855 850.613 2842.61 863 2827.33 863L1619.67 863C1604.39 863 1592 850.613 1592 835.333Z" fill="#0070C0" fill-rule="evenodd"/><rect x="2458" y="737" width="127" height="89" fill="#FFFFFF"/><g><g><g><path d="M17.2916 36.3124 17.2916 129.687 148.708 129.687 148.708 36.3124ZM86.6691 95.9063C84.6391 97.9242 81.3606 97.9242 79.3306 95.9063L23.2244 39.8002C23.2176 39.7934 23.2178 39.7823 23.2246 39.7758 23.2278 39.7727 23.232 39.7708 23.2365 39.7708L142.763 39.7708C142.773 39.7709 142.78 39.7787 142.78 39.7882 142.78 39.7927 142.778 39.797 142.775 39.8002ZM61.534 82.9998 20.7794 123.754C20.7726 123.761 20.7615 123.761 20.755 123.754 20.7519 123.751 20.75 123.747 20.75 123.742L20.75 42.2573C20.7501 42.2478 20.7579 42.2402 20.7674 42.2402 20.7719 42.2403 20.7762 42.2421 20.7794 42.2452ZM63.979 85.4449 76.8855 98.3513C80.2615 101.728 85.7357 101.729 89.1126 98.3529 89.1131 98.3524 89.1136 98.3519 89.1142 98.3513L102.021 85.4449 142.775 126.2C142.782 126.206 142.782 126.217 142.775 126.224 142.772 126.227 142.768 126.229 142.763 126.229L23.2365 126.229C23.227 126.229 23.2194 126.221 23.2194 126.211 23.2195 126.207 23.2213 126.203 23.2244 126.2ZM104.466 82.9998 145.22 42.2452C145.227 42.2384 145.238 42.2386 145.245 42.2454 145.248 42.2486 145.25 42.2528 145.25 42.2573L145.25 123.742C145.25 123.752 145.242 123.759 145.232 123.759 145.228 123.759 145.223 123.758 145.22 123.754Z" stroke="#7F7F7F" stroke-width="1.72916" fill="#7F7F7F" transform="matrix(1 0 0 1 2438 698)"/></g></g></g><text font-family="Calibri,Calibri_MSFontService,sans-serif" font-weight="700" font-size="73" transform="matrix(1 0 0 1 2502.89 808)">1</text><rect x="1375" y="735" width="127" height="90.0001" fill="#FFFFFF"/><g><g><g><path d="M1372.29 733.313 1372.29 826.688 1503.71 826.688 1503.71 733.313ZM1441.67 792.907C1439.64 794.925 1436.36 794.925 1434.33 792.907L1378.22 736.8C1378.22 736.794 1378.22 736.783 1378.22 736.776 1378.23 736.773 1378.23 736.771 1378.24 736.771L1497.76 736.771C1497.77 736.771 1497.78 736.779 1497.78 736.788 1497.78 736.793 1497.78 736.797 1497.78 736.8ZM1416.53 780 1375.78 820.755C1375.77 820.762 1375.76 820.761 1375.76 820.755 1375.75 820.751 1375.75 820.747 1375.75 820.743L1375.75 739.258C1375.75 739.248 1375.76 739.24 1375.77 739.24 1375.77 739.241 1375.78 739.242 1375.78 739.245ZM1418.98 782.445 1431.89 795.352C1435.26 798.729 1440.74 798.729 1444.11 795.353 1444.11 795.353 1444.11 795.352 1444.11 795.352L1457.02 782.445 1497.78 823.2C1497.78 823.207 1497.78 823.218 1497.78 823.224 1497.77 823.227 1497.77 823.229 1497.76 823.229L1378.24 823.229C1378.23 823.229 1378.22 823.221 1378.22 823.212 1378.22 823.207 1378.22 823.203 1378.22 823.2ZM1459.47 780 1500.22 739.245C1500.23 739.239 1500.24 739.239 1500.25 739.246 1500.25 739.249 1500.25 739.253 1500.25 739.258L1500.25 820.743C1500.25 820.752 1500.24 820.76 1500.23 820.76 1500.23 820.76 1500.22 820.758 1500.22 820.755Z" stroke="#7F7F7F" stroke-width="1.72917" fill="#7F7F7F"/></g></g></g><text font-family="Calibri,Calibri_MSFontService,sans-serif" font-weight="700" font-size="73" transform="matrix(1 0 0 1 1420.06 807)">1</text><rect x="2662" y="737" width="127" height="89" fill="#FFFFFF"/><g><g><g><path d="M17.2916 36.3124 17.2916 129.687 148.708 129.687 148.708 36.3124ZM86.6691 95.9063C84.6391 97.9242 81.3606 97.9242 79.3306 95.9063L23.2244 39.8002C23.2176 39.7934 23.2178 39.7823 23.2246 39.7758 23.2278 39.7727 23.232 39.7708 23.2365 39.7708L142.763 39.7708C142.773 39.7709 142.78 39.7787 142.78 39.7882 142.78 39.7927 142.778 39.797 142.775 39.8002ZM61.534 82.9998 20.7794 123.754C20.7726 123.761 20.7615 123.761 20.755 123.754 20.7519 123.751 20.75 123.747 20.75 123.742L20.75 42.2573C20.7501 42.2478 20.7579 42.2402 20.7674 42.2402 20.7719 42.2403 20.7762 42.2421 20.7794 42.2452ZM63.979 85.4449 76.8855 98.3513C80.2615 101.728 85.7357 101.729 89.1126 98.3529 89.1131 98.3524 89.1136 98.3519 89.1142 98.3513L102.021 85.4449 142.775 126.2C142.782 126.206 142.782 126.217 142.775 126.224 142.772 126.227 142.768 126.229 142.763 126.229L23.2365 126.229C23.227 126.229 23.2194 126.221 23.2194 126.211 23.2195 126.207 23.2213 126.203 23.2244 126.2ZM104.466 82.9998 145.22 42.2452C145.227 42.2384 145.238 42.2386 145.245 42.2454 145.248 42.2486 145.25 42.2528 145.25 42.2573L145.25 123.742C145.25 123.752 145.242 123.759 145.232 123.759 145.228 123.759 145.223 123.758 145.22 123.754Z" stroke="#7F7F7F" stroke-width="1.72916" fill="#7F7F7F" transform="matrix(1 0 0 1 2642 698)"/></g></g></g><text font-family="Calibri,Calibri_MSFontService,sans-serif" font-weight="700" font-size="73" transform="matrix(1 0 0 1 2707.01 808)">1</text><rect x="2254" y="737" width="127" height="89" fill="#FFFFFF"/><g><g><g><path d="M17.2916 36.3124 17.2916 129.687 148.708 129.687 148.708 36.3124ZM86.6691 95.9063C84.6391 97.9242 81.3606 97.9242 79.3306 95.9063L23.2244 39.8002C23.2176 39.7934 23.2178 39.7823 23.2246 39.7758 23.2278 39.7727 23.232 39.7708 23.2365 39.7708L142.763 39.7708C142.773 39.7709 142.78 39.7787 142.78 39.7882 142.78 39.7927 142.778 39.797 142.775 39.8002ZM61.534 82.9998 20.7794 123.754C20.7726 123.761 20.7615 123.761 20.755 123.754 20.7519 123.751 20.75 123.747 20.75 123.742L20.75 42.2573C20.7501 42.2478 20.7579 42.2402 20.7674 42.2402 20.7719 42.2403 20.7762 42.2421 20.7794 42.2452ZM63.979 85.4449 76.8855 98.3513C80.2615 101.728 85.7357 101.729 89.1126 98.3529 89.1131 98.3524 89.1136 98.3519 89.1142 98.3513L102.021 85.4449 142.775 126.2C142.782 126.206 142.782 126.217 142.775 126.224 142.772 126.227 142.768 126.229 142.763 126.229L23.2365 126.229C23.227 126.229 23.2194 126.221 23.2194 126.211 23.2195 126.207 23.2213 126.203 23.2244 126.2ZM104.466 82.9998 145.22 42.2452C145.227 42.2384 145.238 42.2386 145.245 42.2454 145.248 42.2486 145.25 42.2528 145.25 42.2573L145.25 123.742C145.25 123.752 145.242 123.759 145.232 123.759 145.228 123.759 145.223 123.758 145.22 123.754Z" stroke="#7F7F7F" stroke-width="1.72916" fill="#7F7F7F" transform="matrix(1 0 0 1 2234 698)"/></g></g></g><text font-family="Calibri,Calibri_MSFontService,sans-serif" font-weight="700" font-size="73" transform="matrix(1 0 0 1 2298.76 808)">1</text><path d="M3195.5 473.5C3195.5 400.598 3254.6 341.5 3327.5 341.5 3400.4 341.5 3459.5 400.598 3459.5 473.5 3459.5 546.401 3400.4 605.5 3327.5 605.5 3254.6 605.5 3195.5 546.401 3195.5 473.5Z" stroke="#4E95D9" stroke-width="6.875" stroke-miterlimit="8" fill="#FFFFFF" fill-rule="evenodd"/><text fill="#595959" font-family="Calibri,Calibri_MSFontService,sans-serif" font-weight="400" font-size="55" transform="matrix(1 0 0 1 3213.03 491)">Consumer</text><path d="M3195.5 781.5C3195.5 708.598 3254.6 649.5 3327.5 649.5 3400.4 649.5 3459.5 708.598 3459.5 781.5 3459.5 854.401 3400.4 913.5 3327.5 913.5 3254.6 913.5 3195.5 854.401 3195.5 781.5Z" stroke="#4E95D9" stroke-width="6.875" stroke-miterlimit="8" fill="#FFFFFF" fill-rule="evenodd"/><text fill="#595959" font-family="Calibri,Calibri_MSFontService,sans-serif" font-weight="400" font-size="55" transform="matrix(1 0 0 1 3213.03 799)">Consumer</text><path d="M2784 1472.84 3108.55 1472.84 3108.55 1483.16 2784 1483.16ZM3103.39 1462.53 3134.33 1478 3103.39 1493.47Z" fill="#215F9A"/><path d="M1592 1418.83C1592 1403.46 1604.46 1391 1619.83 1391L2827.17 1391C2842.54 1391 2855 1403.46 2855 1418.83L2855 1530.17C2855 1545.54 2842.54 1558 2827.17 1558L1619.83 1558C1604.46 1558 1592 1545.54 1592 1530.17Z" fill="#0070C0" fill-rule="evenodd"/><g><g><g><path d="M1815.5 1616.75 1815.5 1809.25 2090.5 1809.25 2090.5 1616.75 1815.5 1616.75ZM1957.81 1736.72C1955.06 1739.47 1950.94 1739.47 1948.19 1736.72L1846.44 1637.37 2059.91 1637.37 1957.81 1736.72ZM1903.16 1711.97 1836.12 1779.34 1836.12 1646.31 1903.16 1711.97ZM1913.12 1721.59 1938.91 1746.69C1943.03 1750.47 1948.19 1752.53 1953.34 1752.53 1958.5 1752.53 1963.66 1750.47 1967.78 1746.69L1993.56 1721.59 2060.25 1788.62 1846.09 1788.62 1913.12 1721.59ZM2002.84 1711.97 2069.88 1646.66 2069.88 1779 2002.84 1711.97Z" fill="#FFFFFF"/></g></g></g><rect x="2452" y="1431" width="127" height="90.0001" fill="#FFFFFF"/><g><g><g><path d="M2449.29 1429.31 2449.29 1522.69 2580.71 1522.69 2580.71 1429.31ZM2518.67 1488.91C2516.64 1490.92 2513.36 1490.92 2511.33 1488.91L2455.22 1432.8C2455.22 1432.79 2455.22 1432.78 2455.22 1432.78 2455.23 1432.77 2455.23 1432.77 2455.24 1432.77L2574.76 1432.77C2574.77 1432.77 2574.78 1432.78 2574.78 1432.79 2574.78 1432.79 2574.78 1432.8 2574.78 1432.8ZM2493.53 1476 2452.78 1516.75C2452.77 1516.76 2452.76 1516.76 2452.76 1516.75 2452.75 1516.75 2452.75 1516.75 2452.75 1516.74L2452.75 1435.26C2452.75 1435.25 2452.76 1435.24 2452.77 1435.24 2452.77 1435.24 2452.78 1435.24 2452.78 1435.25ZM2495.98 1478.44 2508.89 1491.35C2512.26 1494.73 2517.74 1494.73 2521.11 1491.35 2521.11 1491.35 2521.11 1491.35 2521.11 1491.35L2534.02 1478.44 2574.78 1519.2C2574.78 1519.21 2574.78 1519.22 2574.78 1519.22 2574.77 1519.23 2574.77 1519.23 2574.76 1519.23L2455.24 1519.23C2455.23 1519.23 2455.22 1519.22 2455.22 1519.21 2455.22 1519.21 2455.22 1519.2 2455.22 1519.2ZM2536.47 1476 2577.22 1435.25C2577.23 1435.24 2577.24 1435.24 2577.25 1435.25 2577.25 1435.25 2577.25 1435.25 2577.25 1435.26L2577.25 1516.74C2577.25 1516.75 2577.24 1516.76 2577.23 1516.76 2577.23 1516.76 2577.22 1516.76 2577.22 1516.75Z" stroke="#7F7F7F" stroke-width="1.72917" fill="#7F7F7F"/></g></g></g><text font-family="Calibri,Calibri_MSFontService,sans-serif" font-weight="700" font-size="73" transform="matrix(1 0 0 1 2496.92 1503)">2</text><rect x="2656" y="1431" width="127" height="90.0001" fill="#FFFFFF"/><g><g><g><path d="M2653.29 1429.31 2653.29 1522.69 2784.71 1522.69 2784.71 1429.31ZM2722.67 1488.91C2720.64 1490.92 2717.36 1490.92 2715.33 1488.91L2659.22 1432.8C2659.22 1432.79 2659.22 1432.78 2659.22 1432.78 2659.23 1432.77 2659.23 1432.77 2659.24 1432.77L2778.76 1432.77C2778.77 1432.77 2778.78 1432.78 2778.78 1432.79 2778.78 1432.79 2778.78 1432.8 2778.78 1432.8ZM2697.53 1476 2656.78 1516.75C2656.77 1516.76 2656.76 1516.76 2656.75 1516.75 2656.75 1516.75 2656.75 1516.75 2656.75 1516.74L2656.75 1435.26C2656.75 1435.25 2656.76 1435.24 2656.77 1435.24 2656.77 1435.24 2656.78 1435.24 2656.78 1435.25ZM2699.98 1478.44 2712.89 1491.35C2716.26 1494.73 2721.74 1494.73 2725.11 1491.35 2725.11 1491.35 2725.11 1491.35 2725.11 1491.35L2738.02 1478.44 2778.78 1519.2C2778.78 1519.21 2778.78 1519.22 2778.78 1519.22 2778.77 1519.23 2778.77 1519.23 2778.76 1519.23L2659.24 1519.23C2659.23 1519.23 2659.22 1519.22 2659.22 1519.21 2659.22 1519.21 2659.22 1519.2 2659.22 1519.2ZM2740.47 1476 2781.22 1435.25C2781.23 1435.24 2781.24 1435.24 2781.24 1435.25 2781.25 1435.25 2781.25 1435.25 2781.25 1435.26L2781.25 1516.74C2781.25 1516.75 2781.24 1516.76 2781.23 1516.76 2781.23 1516.76 2781.22 1516.76 2781.22 1516.75Z" stroke="#7F7F7F" stroke-width="1.72917" fill="#7F7F7F"/></g></g></g><text font-family="Calibri,Calibri_MSFontService,sans-serif" font-weight="700" font-size="73" transform="matrix(1 0 0 1 2701.04 1503)">2</text><path d="M3195.5 1386.5C3195.5 1313.6 3254.6 1254.5 3327.5 1254.5 3400.4 1254.5 3459.5 1313.6 3459.5 1386.5 3459.5 1459.4 3400.4 1518.5 3327.5 1518.5 3254.6 1518.5 3195.5 1459.4 3195.5 1386.5Z" stroke="#4E95D9" stroke-width="6.875" stroke-miterlimit="8" fill="#FFFFFF" fill-rule="evenodd"/><text fill="#595959" font-family="Calibri,Calibri_MSFontService,sans-serif" font-weight="400" font-size="55" transform="matrix(1 0 0 1 3213.03 1404)">Consumer</text><path d="M5.37402e-06-5.15625 320.487-5.15592 320.487 5.15658-5.37402e-06 5.15625ZM315.33-15.4684 346.268 0.000360892 315.33 15.4691Z" fill="#215F9A" transform="matrix(1 0 0 -1 2790 1995)"/><path d="M1592 1936.67C1592 1921.39 1604.39 1909 1619.67 1909L2827.33 1909C2842.61 1909 2855 1921.39 2855 1936.67L2855 2047.33C2855 2062.61 2842.61 2075 2827.33 2075L1619.67 2075C1604.39 2075 1592 2062.61 1592 2047.33Z" fill="#0070C0" fill-rule="evenodd"/><rect x="2662" y="1949" width="127" height="89" fill="#FFFFFF"/><g><g><g><path d="M17.2917 36.3125 17.2917 129.688 148.708 129.688 148.708 36.3125ZM86.6693 95.9065C84.6393 97.9245 81.3608 97.9245 79.3307 95.9065L23.2244 39.8002C23.2177 39.7935 23.2179 39.7824 23.2246 39.7759 23.2279 39.7727 23.232 39.7708 23.2365 39.7708L142.763 39.7708C142.773 39.771 142.781 39.7788 142.781 39.7883 142.78 39.7928 142.779 39.7971 142.776 39.8002ZM61.5341 83 20.7794 123.755C20.7727 123.761 20.7616 123.761 20.755 123.755 20.7519 123.751 20.75 123.747 20.75 123.743L20.75 42.2574C20.7502 42.2479 20.758 42.2403 20.7675 42.2403 20.772 42.2404 20.7763 42.2422 20.7794 42.2453ZM63.9792 85.4451 76.8857 98.3516C80.2617 101.728 85.7359 101.729 89.1128 98.3531 89.1133 98.3526 89.1138 98.3521 89.1143 98.3516L102.021 85.4451 142.776 126.2C142.782 126.207 142.782 126.218 142.775 126.224 142.772 126.227 142.768 126.229 142.763 126.229L23.2365 126.229C23.227 126.229 23.2194 126.221 23.2194 126.212 23.2196 126.207 23.2213 126.203 23.2244 126.2ZM104.466 83 145.221 42.2453C145.227 42.2385 145.238 42.2387 145.245 42.2455 145.248 42.2487 145.25 42.2529 145.25 42.2574L145.25 123.743C145.25 123.752 145.242 123.76 145.233 123.76 145.228 123.76 145.224 123.758 145.221 123.755Z" stroke="#7F7F7F" stroke-width="1.72917" fill="#7F7F7F" transform="matrix(1 0 0 1.00602 2642 1910)"/></g></g></g><text font-family="Calibri,Calibri_MSFontService,sans-serif" font-weight="700" font-size="73" transform="matrix(1 0 0 1 2707.01 2020)">3</text><path d="M3195.5 1994.5C3195.5 1921.6 3254.6 1862.5 3327.5 1862.5 3400.4 1862.5 3459.5 1921.6 3459.5 1994.5 3459.5 2067.4 3400.4 2126.5 3327.5 2126.5 3254.6 2126.5 3195.5 2067.4 3195.5 1994.5Z" stroke="#4E95D9" stroke-width="6.875" stroke-miterlimit="8" fill="#FFFFFF" fill-rule="evenodd"/><text fill="#595959" font-family="Calibri,Calibri_MSFontService,sans-serif" font-weight="400" font-size="55" transform="matrix(1 0 0 1 3213.03 2012)">Consumer</text><path d="M3195.5 1690.5C3195.5 1617.6 3254.6 1558.5 3327.5 1558.5 3400.4 1558.5 3459.5 1617.6 3459.5 1690.5 3459.5 1763.4 3400.4 1822.5 3327.5 1822.5 3254.6 1822.5 3195.5 1763.4 3195.5 1690.5Z" stroke="#4E95D9" stroke-width="6.875" stroke-miterlimit="8" fill="#FFFFFF" fill-rule="evenodd"/><text fill="#595959" font-family="Calibri,Calibri_MSFontService,sans-serif" font-weight="400" font-size="55" transform="matrix(1 0 0 1 3213.03 1708)">Consumer</text><path d="M3195.5 1082.5C3195.5 1009.6 3254.6 950.5 3327.5 950.5 3400.4 950.5 3459.5 1009.6 3459.5 1082.5 3459.5 1155.4 3400.4 1214.5 3327.5 1214.5 3254.6 1214.5 3195.5 1155.4 3195.5 1082.5Z" stroke="#4E95D9" stroke-width="6.875" stroke-miterlimit="8" fill="#FFFFFF" fill-rule="evenodd"/><text fill="#595959" font-family="Calibri,Calibri_MSFontService,sans-serif" font-weight="400" font-size="55" transform="matrix(1 0 0 1 3213.03 1100)">Consumer</text><path d="M0-5.15625 582.972-5.15625 582.972 430.243 572.66 430.243 572.66 0 577.816 5.15625 0 5.15625ZM593.285 425.086 577.816 456.024 562.347 425.086Z" fill="#215F9A" transform="matrix(1.83697e-16 1 1 -1.83697e-16 1136 897)"/><path d="M0-5.15625 1100.67-5.15625 1100.67 576.907 1090.35 576.907 1090.35 0 1095.51 5.15625 0 5.15625ZM1110.98 571.751 1095.51 602.688 1080.04 571.751Z" fill="#215F9A" transform="matrix(1.83697e-16 1 1 -1.83697e-16 989 897)"/><rect x="1085" y="1171" width="127" height="88.9996" fill="#FFFFFF"/><g><g><g><path d="M17.2917 36.3125 17.2917 129.688 148.708 129.688 148.708 36.3125ZM86.6693 95.9065C84.6393 97.9245 81.3608 97.9245 79.3307 95.9065L23.2244 39.8002C23.2177 39.7935 23.2179 39.7824 23.2246 39.7759 23.2279 39.7727 23.232 39.7708 23.2365 39.7708L142.763 39.7708C142.773 39.771 142.781 39.7788 142.781 39.7883 142.78 39.7928 142.779 39.7971 142.776 39.8002ZM61.5341 83 20.7794 123.755C20.7727 123.761 20.7616 123.761 20.755 123.755 20.7519 123.751 20.75 123.747 20.75 123.743L20.75 42.2574C20.7502 42.2479 20.758 42.2403 20.7675 42.2403 20.772 42.2404 20.7763 42.2422 20.7794 42.2453ZM63.9792 85.4451 76.8857 98.3516C80.2617 101.728 85.7359 101.729 89.1128 98.3531 89.1133 98.3526 89.1138 98.3521 89.1143 98.3516L102.021 85.4451 142.776 126.2C142.782 126.207 142.782 126.218 142.775 126.224 142.772 126.227 142.768 126.229 142.763 126.229L23.2365 126.229C23.227 126.229 23.2194 126.221 23.2194 126.212 23.2196 126.207 23.2213 126.203 23.2244 126.2ZM104.466 83 145.221 42.2453C145.227 42.2385 145.238 42.2387 145.245 42.2455 145.248 42.2487 145.25 42.2529 145.25 42.2574L145.25 123.743C145.25 123.752 145.242 123.76 145.233 123.76 145.228 123.76 145.224 123.758 145.221 123.755Z" stroke="#7F7F7F" stroke-width="1.72917" fill="#7F7F7F" transform="matrix(1 0 0 1.00602 1065 1132)"/></g></g></g><text font-family="Calibri,Calibri_MSFontService,sans-serif" font-weight="700" font-size="73" transform="matrix(1 0 0 1 1130.01 1242)">2</text><rect x="2252" y="1429" width="127" height="89" fill="#FFFFFF"/><g><g><g><path d="M2249.29 1426.31 2249.29 1519.69 2380.71 1519.69 2380.71 1426.31ZM2318.67 1485.91C2316.64 1487.92 2313.36 1487.92 2311.33 1485.91L2255.22 1429.8C2255.22 1429.79 2255.22 1429.78 2255.22 1429.78 2255.23 1429.77 2255.23 1429.77 2255.24 1429.77L2374.76 1429.77C2374.77 1429.77 2374.78 1429.78 2374.78 1429.79 2374.78 1429.79 2374.78 1429.8 2374.78 1429.8ZM2293.53 1473 2252.78 1513.75C2252.77 1513.76 2252.76 1513.76 2252.76 1513.75 2252.75 1513.75 2252.75 1513.75 2252.75 1513.74L2252.75 1432.26C2252.75 1432.25 2252.76 1432.24 2252.77 1432.24 2252.77 1432.24 2252.78 1432.24 2252.78 1432.25ZM2295.98 1475.45 2308.89 1488.35C2312.26 1491.73 2317.74 1491.73 2321.11 1488.35 2321.11 1488.35 2321.11 1488.35 2321.11 1488.35L2334.02 1475.45 2374.78 1516.2C2374.78 1516.21 2374.78 1516.22 2374.78 1516.22 2374.77 1516.23 2374.77 1516.23 2374.76 1516.23L2255.24 1516.23C2255.23 1516.23 2255.22 1516.22 2255.22 1516.21 2255.22 1516.21 2255.22 1516.2 2255.22 1516.2ZM2336.47 1473 2377.22 1432.25C2377.23 1432.24 2377.24 1432.24 2377.25 1432.25 2377.25 1432.25 2377.25 1432.25 2377.25 1432.26L2377.25 1513.74C2377.25 1513.75 2377.24 1513.76 2377.23 1513.76 2377.23 1513.76 2377.22 1513.76 2377.22 1513.75Z" stroke="#7F7F7F" stroke-width="1.72917" fill="#7F7F7F"/></g></g></g><text font-family="Calibri,Calibri_MSFontService,sans-serif" font-weight="700" font-size="73" transform="matrix(1 0 0 1 2296.85 1500)">2</text><rect x="2456" y="1948" width="127" height="89" fill="#FFFFFF"/><g><g><g><path d="M17.2916 36.3124 17.2916 129.687 148.708 129.687 148.708 36.3124ZM86.6691 95.9063C84.6391 97.9242 81.3606 97.9242 79.3306 95.9063L23.2244 39.8002C23.2176 39.7934 23.2178 39.7823 23.2246 39.7758 23.2278 39.7727 23.232 39.7708 23.2365 39.7708L142.763 39.7708C142.773 39.7709 142.78 39.7787 142.78 39.7882 142.78 39.7927 142.778 39.797 142.775 39.8002ZM61.534 82.9998 20.7794 123.754C20.7726 123.761 20.7615 123.761 20.755 123.754 20.7519 123.751 20.75 123.747 20.75 123.742L20.75 42.2573C20.7501 42.2478 20.7579 42.2402 20.7674 42.2402 20.7719 42.2403 20.7762 42.2421 20.7794 42.2452ZM63.979 85.4449 76.8855 98.3513C80.2615 101.728 85.7357 101.729 89.1126 98.3529 89.1131 98.3524 89.1136 98.3519 89.1142 98.3513L102.021 85.4449 142.775 126.2C142.782 126.206 142.782 126.217 142.775 126.224 142.772 126.227 142.768 126.229 142.763 126.229L23.2365 126.229C23.227 126.229 23.2194 126.221 23.2194 126.211 23.2195 126.207 23.2213 126.203 23.2244 126.2ZM104.466 82.9998 145.22 42.2452C145.227 42.2384 145.238 42.2386 145.245 42.2454 145.248 42.2486 145.25 42.2528 145.25 42.2573L145.25 123.742C145.25 123.752 145.242 123.759 145.232 123.759 145.228 123.759 145.223 123.758 145.22 123.754Z" stroke="#7F7F7F" stroke-width="1.72916" fill="#7F7F7F" transform="matrix(1 0 0 1 2436 1909)"/></g></g></g><text font-family="Calibri,Calibri_MSFontService,sans-serif" font-weight="700" font-size="73" transform="matrix(1 0 0 1 2500.94 2019)">3</text><rect x="2254" y="1949" width="127" height="89" fill="#FFFFFF"/><g><g><g><path d="M17.2917 36.3125 17.2917 129.688 148.708 129.688 148.708 36.3125ZM86.6693 95.9065C84.6393 97.9245 81.3608 97.9245 79.3307 95.9065L23.2244 39.8002C23.2177 39.7935 23.2179 39.7824 23.2246 39.7759 23.2279 39.7727 23.232 39.7708 23.2365 39.7708L142.763 39.7708C142.773 39.771 142.781 39.7788 142.781 39.7883 142.78 39.7928 142.779 39.7971 142.776 39.8002ZM61.5341 83 20.7794 123.755C20.7727 123.761 20.7616 123.761 20.755 123.755 20.7519 123.751 20.75 123.747 20.75 123.743L20.75 42.2574C20.7502 42.2479 20.758 42.2403 20.7675 42.2403 20.772 42.2404 20.7763 42.2422 20.7794 42.2453ZM63.9792 85.4451 76.8857 98.3516C80.2617 101.728 85.7359 101.729 89.1128 98.3531 89.1133 98.3526 89.1138 98.3521 89.1143 98.3516L102.021 85.4451 142.776 126.2C142.782 126.207 142.782 126.218 142.775 126.224 142.772 126.227 142.768 126.229 142.763 126.229L23.2365 126.229C23.227 126.229 23.2194 126.221 23.2194 126.212 23.2196 126.207 23.2213 126.203 23.2244 126.2ZM104.466 83 145.221 42.2453C145.227 42.2385 145.238 42.2387 145.245 42.2455 145.248 42.2487 145.25 42.2529 145.25 42.2574L145.25 123.743C145.25 123.752 145.242 123.76 145.233 123.76 145.228 123.76 145.224 123.758 145.221 123.755Z" stroke="#7F7F7F" stroke-width="1.72917" fill="#7F7F7F" transform="matrix(1 0 0 1.00602 2234 1910)"/></g></g></g><text font-family="Calibri,Calibri_MSFontService,sans-serif" font-weight="700" font-size="73" transform="matrix(1 0 0 1 2298.76 2020)">3</text><rect x="926" y="1668" width="126" height="90.0001" fill="#FFFFFF"/><g><g><g><path d="M17.2917 36.3125 17.2917 129.688 148.708 129.688 148.708 36.3125ZM86.6693 95.9065C84.6393 97.9245 81.3608 97.9245 79.3307 95.9065L23.2244 39.8002C23.2177 39.7935 23.2179 39.7824 23.2246 39.7759 23.2279 39.7727 23.232 39.7708 23.2365 39.7708L142.763 39.7708C142.773 39.771 142.781 39.7788 142.781 39.7883 142.78 39.7928 142.779 39.7971 142.776 39.8002ZM61.5341 83 20.7794 123.755C20.7727 123.761 20.7616 123.761 20.755 123.755 20.7519 123.751 20.75 123.747 20.75 123.743L20.75 42.2574C20.7502 42.2479 20.758 42.2403 20.7675 42.2403 20.772 42.2404 20.7763 42.2422 20.7794 42.2453ZM63.9792 85.4451 76.8857 98.3516C80.2617 101.728 85.7359 101.729 89.1128 98.3531 89.1133 98.3526 89.1138 98.3521 89.1143 98.3516L102.021 85.4451 142.776 126.2C142.782 126.207 142.782 126.218 142.775 126.224 142.772 126.227 142.768 126.229 142.763 126.229L23.2365 126.229C23.227 126.229 23.2194 126.221 23.2194 126.212 23.2196 126.207 23.2213 126.203 23.2244 126.2ZM104.466 83 145.221 42.2453C145.227 42.2385 145.238 42.2387 145.245 42.2455 145.248 42.2487 145.25 42.2529 145.25 42.2574L145.25 123.743C145.25 123.752 145.242 123.76 145.233 123.76 145.228 123.76 145.224 123.758 145.221 123.755Z" stroke="#7F7F7F" stroke-width="1.72917" fill="#7F7F7F" transform="matrix(1.00602 0 0 1 905 1630)"/></g></g></g><text font-family="Calibri,Calibri_MSFontService,sans-serif" font-weight="700" font-size="73" transform="matrix(1 0 0 1 970.313 1740)">3</text></g></svg>