<svg width="3320" height="973" xmlns="http://www.w3.org/2000/svg" xmlns:xlink="http://www.w3.org/1999/xlink" xml:space="preserve" overflow="hidden"><defs><clipPath id="clip0"><rect x="545" y="731" width="3320" height="973"/></clipPath></defs><g clip-path="url(#clip0)" transform="translate(-545 -731)"><rect x="545" y="731" width="3320" height="956" fill="#FFFFFF"/><rect x="2399.5" y="1169.5" width="75.0002" height="90.0001" stroke="#042433" stroke-width="6.875" stroke-miterlimit="8" fill="#156082"/><path d="M2812.11 1212.89 3197.32 1504.33 3191.1 1512.55 2805.89 1221.11ZM3199.43 1492.99 3214.77 1524 3180.76 1517.66Z" fill="#215F9A"/><path d="M0.0175459-5.15622 380.004-3.86318 379.969 6.44926-0.0175459 5.15622ZM374.883-14.1932 405.768 1.38077 374.778 16.7442Z" fill="#215F9A" transform="matrix(1 0 0 -1 2809 1217.38)"/><path d="M3.12875-4.09852 388.404 290.015 382.147 298.212-3.12875 4.09852ZM390.563 278.689 405.768 309.757 371.791 303.28Z" fill="#215F9A" transform="matrix(1 0 0 -1 2809 1216.76)"/><path d="M1281.02 1207.84 1585 1208.97 1584.96 1219.28 1280.98 1218.16ZM1579.88 1198.64 1610.76 1214.22 1579.77 1229.57Z" fill="#215F9A"/><path d="M887.5 1134.67C887.5 1113.04 905.036 1095.5 926.667 1095.5L1242.33 1095.5C1263.96 1095.5 1281.5 1113.04 1281.5 1134.67L1281.5 1291.33C1281.5 1312.96 1263.96 1330.5 1242.33 1330.5L926.667 1330.5C905.036 1330.5 887.5 1312.96 887.5 1291.33Z" stroke="#4E95D9" stroke-width="6.875" stroke-miterlimit="8" fill="#FFFFFF" fill-rule="evenodd"/><text fill="#595959" font-family="Calibri,Calibri_MSFontService,sans-serif" font-weight="400" font-size="64" transform="matrix(1 0 0 1 935.824 1196)">Application</text><text fill="#595959" font-family="Calibri,Calibri_MSFontService,sans-serif" font-weight="400" font-size="64" transform="matrix(1 0 0 1 945.242 1273)">(producer)</text><path d="M1610 1158.67C1610 1143.39 1622.39 1131 1637.67 1131L2845.33 1131C2860.61 1131 2873 1143.39 2873 1158.67L2873 1269.33C2873 1284.61 2860.61 1297 2845.33 1297L1637.67 1297C1622.39 1297 1610 1284.61 1610 1269.33Z" fill="#0070C0" fill-rule="evenodd"/><g><g><g><path d="M1834.5 1442.75 1834.5 1635.25 2109.5 1635.25 2109.5 1442.75 1834.5 1442.75ZM1976.81 1562.72C1974.06 1565.47 1969.94 1565.47 1967.19 1562.72L1865.44 1463.38 2078.91 1463.38 1976.81 1562.72ZM1922.16 1537.97 1855.13 1605.34 1855.13 1472.31 1922.16 1537.97ZM1932.13 1547.59 1957.91 1572.69C1962.03 1576.47 1967.19 1578.53 1972.34 1578.53 1977.5 1578.53 1982.66 1576.47 1986.78 1572.69L2012.56 1547.59 2079.25 1614.62 1865.09 1614.62 1932.13 1547.59ZM2021.84 1537.97 2088.88 1472.66 2088.88 1605 2021.84 1537.97Z" fill="#FFFFFF"/></g></g></g><rect x="1394" y="1169" width="126" height="90.0001" fill="#FFFFFF"/><g><g><g><path d="M1391.29 1167.31 1391.29 1260.69 1522.71 1260.69 1522.71 1167.31ZM1460.67 1226.91C1458.64 1228.92 1455.36 1228.92 1453.33 1226.91L1397.22 1170.8C1397.22 1170.79 1397.22 1170.78 1397.22 1170.78 1397.23 1170.77 1397.23 1170.77 1397.24 1170.77L1516.76 1170.77C1516.77 1170.77 1516.78 1170.78 1516.78 1170.79 1516.78 1170.79 1516.78 1170.8 1516.78 1170.8ZM1435.53 1214 1394.78 1254.75C1394.77 1254.76 1394.76 1254.76 1394.76 1254.75 1394.75 1254.75 1394.75 1254.75 1394.75 1254.74L1394.75 1173.26C1394.75 1173.25 1394.76 1173.24 1394.77 1173.24 1394.77 1173.24 1394.78 1173.24 1394.78 1173.25ZM1437.98 1216.44 1450.89 1229.35C1454.26 1232.73 1459.74 1232.73 1463.11 1229.35 1463.11 1229.35 1463.11 1229.35 1463.11 1229.35L1476.02 1216.44 1516.78 1257.2C1516.78 1257.21 1516.78 1257.22 1516.78 1257.22 1516.77 1257.23 1516.77 1257.23 1516.76 1257.23L1397.24 1257.23C1397.23 1257.23 1397.22 1257.22 1397.22 1257.21 1397.22 1257.21 1397.22 1257.2 1397.22 1257.2ZM1478.47 1214 1519.22 1173.25C1519.23 1173.24 1519.24 1173.24 1519.24 1173.25 1519.25 1173.25 1519.25 1173.25 1519.25 1173.26L1519.25 1254.74C1519.25 1254.75 1519.24 1254.76 1519.23 1254.76 1519.23 1254.76 1519.22 1254.76 1519.22 1254.75Z" stroke="#F2F2F2" stroke-width="1.72917" fill="#7F7F7F"/></g></g></g><text font-family="Calibri,Calibri_MSFontService,sans-serif" font-weight="700" font-size="73" transform="matrix(1 0 0 1 1438.39 1241)">1</text><rect x="1660" y="1170" width="127" height="89" fill="#FFFFFF"/><g><g><g><path d="M1657.29 1167.31 1657.29 1260.69 1788.71 1260.69 1788.71 1167.31ZM1726.67 1226.91C1724.64 1228.92 1721.36 1228.92 1719.33 1226.91L1663.22 1170.8C1663.22 1170.79 1663.22 1170.78 1663.22 1170.78 1663.23 1170.77 1663.23 1170.77 1663.24 1170.77L1782.76 1170.77C1782.77 1170.77 1782.78 1170.78 1782.78 1170.79 1782.78 1170.79 1782.78 1170.8 1782.78 1170.8ZM1701.53 1214 1660.78 1254.75C1660.77 1254.76 1660.76 1254.76 1660.76 1254.75 1660.75 1254.75 1660.75 1254.75 1660.75 1254.74L1660.75 1173.26C1660.75 1173.25 1660.76 1173.24 1660.77 1173.24 1660.77 1173.24 1660.78 1173.24 1660.78 1173.25ZM1703.98 1216.44 1716.89 1229.35C1720.26 1232.73 1725.74 1232.73 1729.11 1229.35 1729.11 1229.35 1729.11 1229.35 1729.11 1229.35L1742.02 1216.44 1782.78 1257.2C1782.78 1257.21 1782.78 1257.22 1782.78 1257.22 1782.77 1257.23 1782.77 1257.23 1782.76 1257.23L1663.24 1257.23C1663.23 1257.23 1663.22 1257.22 1663.22 1257.21 1663.22 1257.21 1663.22 1257.2 1663.22 1257.2ZM1744.47 1214 1785.22 1173.25C1785.23 1173.24 1785.24 1173.24 1785.24 1173.25 1785.25 1173.25 1785.25 1173.25 1785.25 1173.26L1785.25 1254.74C1785.25 1254.75 1785.24 1254.76 1785.23 1254.76 1785.23 1254.76 1785.22 1254.76 1785.22 1254.75Z" stroke="#F2F2F2" stroke-width="1.72917" fill="#7F7F7F"/></g></g></g><text font-family="Calibri,Calibri_MSFontService,sans-serif" font-weight="700" font-size="73" transform="matrix(1 0 0 1 1704.71 1238)">3</text><rect x="2079" y="1169" width="127" height="90.0001" fill="#FFFFFF"/><g><g><g><path d="M2076.29 1167.31 2076.29 1260.69 2207.71 1260.69 2207.71 1167.31ZM2145.67 1226.91C2143.64 1228.92 2140.36 1228.92 2138.33 1226.91L2082.22 1170.8C2082.22 1170.79 2082.22 1170.78 2082.22 1170.78 2082.23 1170.77 2082.23 1170.77 2082.24 1170.77L2201.76 1170.77C2201.77 1170.77 2201.78 1170.78 2201.78 1170.79 2201.78 1170.79 2201.78 1170.8 2201.78 1170.8ZM2120.53 1214 2079.78 1254.75C2079.77 1254.76 2079.76 1254.76 2079.76 1254.75 2079.75 1254.75 2079.75 1254.75 2079.75 1254.74L2079.75 1173.26C2079.75 1173.25 2079.76 1173.24 2079.77 1173.24 2079.77 1173.24 2079.78 1173.24 2079.78 1173.25ZM2122.98 1216.44 2135.89 1229.35C2139.26 1232.73 2144.74 1232.73 2148.11 1229.35 2148.11 1229.35 2148.11 1229.35 2148.11 1229.35L2161.02 1216.44 2201.78 1257.2C2201.78 1257.21 2201.78 1257.22 2201.78 1257.22 2201.77 1257.23 2201.77 1257.23 2201.76 1257.23L2082.24 1257.23C2082.23 1257.23 2082.22 1257.22 2082.22 1257.21 2082.22 1257.21 2082.22 1257.2 2082.22 1257.2ZM2163.47 1214 2204.22 1173.25C2204.23 1173.24 2204.24 1173.24 2204.25 1173.25 2204.25 1173.25 2204.25 1173.25 2204.25 1173.26L2204.25 1254.74C2204.25 1254.75 2204.24 1254.76 2204.23 1254.76 2204.23 1254.76 2204.22 1254.76 2204.22 1254.75Z" stroke="#F2F2F2" stroke-width="1.72917" fill="#7F7F7F"/></g></g></g><text font-family="Calibri,Calibri_MSFontService,sans-serif" font-weight="700" font-size="73" transform="matrix(1 0 0 1 2123.88 1238)">2</text><path d="M3215.5 907.5C3215.5 834.598 3274.6 775.5 3347.5 775.5 3420.4 775.5 3479.5 834.598 3479.5 907.5 3479.5 980.402 3420.4 1039.5 3347.5 1039.5 3274.6 1039.5 3215.5 980.402 3215.5 907.5Z" stroke="#4E95D9" stroke-width="6.875" stroke-miterlimit="8" fill="#FFFFFF" fill-rule="evenodd"/><text fill="#595959" font-family="Calibri,Calibri_MSFontService,sans-serif" font-weight="400" font-size="55" transform="matrix(1 0 0 1 3232.54 925)">Consumer</text><path d="M3215.5 1216.5C3215.5 1143.6 3274.6 1084.5 3347.5 1084.5 3420.4 1084.5 3479.5 1143.6 3479.5 1216.5 3479.5 1289.4 3420.4 1348.5 3347.5 1348.5 3274.6 1348.5 3215.5 1289.4 3215.5 1216.5Z" stroke="#4E95D9" stroke-width="6.875" stroke-miterlimit="8" fill="#FFFFFF" fill-rule="evenodd"/><text fill="#595959" font-family="Calibri,Calibri_MSFontService,sans-serif" font-weight="400" font-size="55" transform="matrix(1 0 0 1 3232.54 1234)">Consumer</text><path d="M3215.5 1524.5C3215.5 1451.6 3274.6 1392.5 3347.5 1392.5 3420.4 1392.5 3479.5 1451.6 3479.5 1524.5 3479.5 1597.4 3420.4 1656.5 3347.5 1656.5 3274.6 1656.5 3215.5 1597.4 3215.5 1524.5Z" stroke="#4E95D9" stroke-width="6.875" stroke-miterlimit="8" fill="#FFFFFF" fill-rule="evenodd"/><text fill="#595959" font-family="Calibri,Calibri_MSFontService,sans-serif" font-weight="400" font-size="55" transform="matrix(1 0 0 1 3232.54 1542)">Consumer</text><path d="M0-3.4375 20.625-3.4375 20.625 3.4375 0 3.4375ZM27.5-3.4375 48.125-3.4375 48.125 3.4375 27.5 3.4375ZM55-3.4375 75.625-3.4375 75.625 3.4375 55 3.4375ZM79.0625 0 79.0625 20.625 85.9375 20.625 85.9375 0ZM85.9375 27.5 85.9375 48.125 79.0625 48.125 79.0625 27.5ZM85.9375 55 85.9375 75.625 79.0625 75.625 79.0625 55ZM85.9375 82.5 85.9375 103.125 79.0625 103.125 79.0625 82.5ZM85.9375 110 85.9375 130.625 79.0625 130.625 79.0625 110ZM85.9375 137.5 85.9375 158.125 79.0625 158.125 79.0625 137.5ZM85.9375 165 85.9375 185.625 79.0625 185.625 79.0625 165ZM85.9375 192.5 85.9375 213.125 79.0625 213.125 79.0625 192.5ZM85.9375 220 85.9375 240.625 79.0625 240.625 79.0625 220ZM85.9375 247.5 85.9375 268.125 79.0625 268.125 79.0625 247.5ZM85.9375 275 85.9375 295.625 79.0625 295.625 79.0625 275ZM85.9375 302.5 85.9375 323.125 79.0625 323.125 79.0625 302.5ZM85.9375 330 85.9375 350.625 79.0625 350.625 79.0625 330ZM85.9375 357.5 85.9375 378.125 79.0625 378.125 79.0625 357.5ZM85.9375 385 85.9375 405.625 79.0625 405.625 79.0625 385ZM85.9375 412.5 85.9375 433.125 79.0625 433.125 79.0625 412.5ZM85.9375 440 85.9375 460.625 79.0625 460.625 79.0625 440ZM85.9375 467.5 85.9375 488.125 79.0625 488.125 79.0625 467.5ZM85.9375 495 85.9375 515.625 79.0625 515.625 79.0625 495ZM85.9375 522.5 85.9375 543.125 79.0625 543.125 79.0625 522.5ZM85.9375 550 85.9375 570.625 79.0625 570.625 79.0625 550ZM85.9375 577.5 85.9375 598.125 79.0625 598.125 79.0625 577.5ZM85.9375 605 85.9375 625.625 79.0625 625.625 79.0625 605ZM85.9375 632.5 85.9375 653.125 79.0625 653.125 79.0625 632.5ZM85.9375 660 85.9375 680.625 79.0625 680.625 79.0625 660ZM85.9375 687.5 85.9375 708.125 79.0625 708.125 79.0625 687.5ZM85.9375 715 85.9375 735.625 79.0625 735.625 79.0625 715ZM85.9375 742.5 85.9375 763.125 79.0625 763.125 79.0625 742.5ZM85.9375 770 85.9375 790.625 79.0625 790.625 79.0625 770ZM85.9375 797.5 85.9375 818.125 79.0625 818.125 79.0625 797.5ZM85.9375 825 85.9375 845.625 79.0625 845.625 79.0625 825ZM85.9375 852.5 85.9375 873.125 79.0625 873.125 79.0625 852.5ZM85.9375 880 85.9375 900.625 79.0625 900.625 79.0625 880ZM85.9375 907.5 85.9375 928.125 79.0625 928.125 79.0625 907.5ZM85.9375 935 85.9375 955.625 79.0625 955.625 79.0625 935ZM85.9375 962.5 85.9375 982.727 78.6641 982.727 78.6641 975.852 82.5 975.852 79.0625 979.289 79.0625 962.5ZM71.7891 982.727 51.1641 982.727 51.1641 975.852 71.7891 975.852ZM44.2891 982.727 27.5 982.727 27.5 975.852 44.2891 975.852ZM32.0833 993.039 4.58333 979.289 32.0833 965.539Z" transform="matrix(1.83697e-16 1 1 -1.83697e-16 1459.5 1256.5)"/><text font-family="Calibri,Calibri_MSFontService,sans-serif" font-weight="400" font-size="55" transform="matrix(1 0 0 1 1691.51 1403)">Messages are ordered </text><text font-family="Calibri,Calibri_MSFontService,sans-serif" font-weight="400" font-size="55" transform="matrix(1 0 0 1 1691.51 1469)">by priority in the queue</text><rect x="1870" y="1170" width="126" height="89" fill="#FFFFFF"/><g><g><g><path d="M17.2917 36.3125 17.2917 129.688 148.708 129.688 148.708 36.3125ZM86.6693 95.9065C84.6393 97.9245 81.3608 97.9245 79.3307 95.9065L23.2244 39.8002C23.2177 39.7935 23.2179 39.7824 23.2246 39.7759 23.2279 39.7727 23.232 39.7708 23.2365 39.7708L142.763 39.7708C142.773 39.771 142.781 39.7788 142.781 39.7883 142.78 39.7928 142.779 39.7971 142.776 39.8002ZM61.5341 83 20.7794 123.755C20.7727 123.761 20.7616 123.761 20.755 123.755 20.7519 123.751 20.75 123.747 20.75 123.743L20.75 42.2574C20.7502 42.2479 20.758 42.2403 20.7675 42.2403 20.772 42.2404 20.7763 42.2422 20.7794 42.2453ZM63.9792 85.4451 76.8857 98.3516C80.2617 101.728 85.7359 101.729 89.1128 98.3531 89.1133 98.3526 89.1138 98.3521 89.1143 98.3516L102.021 85.4451 142.776 126.2C142.782 126.207 142.782 126.218 142.775 126.224 142.772 126.227 142.768 126.229 142.763 126.229L23.2365 126.229C23.227 126.229 23.2194 126.221 23.2194 126.212 23.2196 126.207 23.2213 126.203 23.2244 126.2ZM104.466 83 145.221 42.2453C145.227 42.2385 145.238 42.2387 145.245 42.2455 145.248 42.2487 145.25 42.2529 145.25 42.2574L145.25 123.743C145.25 123.752 145.242 123.76 145.233 123.76 145.228 123.76 145.224 123.758 145.221 123.755Z" stroke="#F2F2F2" stroke-width="1.72917" fill="#7F7F7F" transform="matrix(1.00602 0 0 1 1849 1131)"/></g></g></g><text font-family="Calibri,Calibri_MSFontService,sans-serif" font-weight="700" font-size="73" transform="matrix(1 0 0 1 1914.3 1238)">3</text><rect x="2289" y="1169" width="126" height="90.0001" fill="#FFFFFF"/><g><g><g><path d="M2286.29 1167.31 2286.29 1260.69 2417.71 1260.69 2417.71 1167.31ZM2355.67 1226.91C2353.64 1228.92 2350.36 1228.92 2348.33 1226.91L2292.22 1170.8C2292.22 1170.79 2292.22 1170.78 2292.22 1170.78 2292.23 1170.77 2292.23 1170.77 2292.24 1170.77L2411.76 1170.77C2411.77 1170.77 2411.78 1170.78 2411.78 1170.79 2411.78 1170.79 2411.78 1170.8 2411.78 1170.8ZM2330.53 1214 2289.78 1254.75C2289.77 1254.76 2289.76 1254.76 2289.76 1254.75 2289.75 1254.75 2289.75 1254.75 2289.75 1254.74L2289.75 1173.26C2289.75 1173.25 2289.76 1173.24 2289.77 1173.24 2289.77 1173.24 2289.78 1173.24 2289.78 1173.25ZM2332.98 1216.44 2345.89 1229.35C2349.26 1232.73 2354.74 1232.73 2358.11 1229.35 2358.11 1229.35 2358.11 1229.35 2358.11 1229.35L2371.02 1216.44 2411.78 1257.2C2411.78 1257.21 2411.78 1257.22 2411.78 1257.22 2411.77 1257.23 2411.77 1257.23 2411.76 1257.23L2292.24 1257.23C2292.23 1257.23 2292.22 1257.22 2292.22 1257.21 2292.22 1257.21 2292.22 1257.2 2292.22 1257.2ZM2373.47 1214 2414.22 1173.25C2414.23 1173.24 2414.24 1173.24 2414.25 1173.25 2414.25 1173.25 2414.25 1173.25 2414.25 1173.26L2414.25 1254.74C2414.25 1254.75 2414.24 1254.76 2414.23 1254.76 2414.23 1254.76 2414.22 1254.76 2414.22 1254.75Z" stroke="#F2F2F2" stroke-width="1.72917" fill="#7F7F7F"/></g></g></g><text font-family="Calibri,Calibri_MSFontService,sans-serif" font-weight="700" font-size="73" transform="matrix(1 0 0 1 2333.47 1238)">2</text><rect x="2708" y="1170" width="127" height="89" fill="#FFFFFF"/><g><g><g><path d="M2705.29 1167.31 2705.29 1260.69 2836.71 1260.69 2836.71 1167.31ZM2774.67 1226.91C2772.64 1228.92 2769.36 1228.92 2767.33 1226.91L2711.22 1170.8C2711.22 1170.79 2711.22 1170.78 2711.22 1170.78 2711.23 1170.77 2711.23 1170.77 2711.24 1170.77L2830.76 1170.77C2830.77 1170.77 2830.78 1170.78 2830.78 1170.79 2830.78 1170.79 2830.78 1170.8 2830.78 1170.8ZM2749.53 1214 2708.78 1254.75C2708.77 1254.76 2708.76 1254.76 2708.76 1254.75 2708.75 1254.75 2708.75 1254.75 2708.75 1254.74L2708.75 1173.26C2708.75 1173.25 2708.76 1173.24 2708.77 1173.24 2708.77 1173.24 2708.78 1173.24 2708.78 1173.25ZM2751.98 1216.44 2764.89 1229.35C2768.26 1232.73 2773.74 1232.73 2777.11 1229.35 2777.11 1229.35 2777.11 1229.35 2777.11 1229.35L2790.02 1216.44 2830.78 1257.2C2830.78 1257.21 2830.78 1257.22 2830.78 1257.22 2830.77 1257.23 2830.77 1257.23 2830.76 1257.23L2711.24 1257.23C2711.23 1257.23 2711.22 1257.22 2711.22 1257.21 2711.22 1257.21 2711.22 1257.2 2711.22 1257.2ZM2792.47 1214 2833.22 1173.25C2833.23 1173.24 2833.24 1173.24 2833.25 1173.25 2833.25 1173.25 2833.25 1173.25 2833.25 1173.26L2833.25 1254.74C2833.25 1254.75 2833.24 1254.76 2833.23 1254.76 2833.23 1254.76 2833.22 1254.76 2833.22 1254.75Z" stroke="#F2F2F2" stroke-width="1.72917" fill="#7F7F7F"/></g></g></g><text font-family="Calibri,Calibri_MSFontService,sans-serif" font-weight="700" font-size="73" transform="matrix(1 0 0 1 2752.64 1241)">1</text><rect x="2498" y="1170" width="127" height="89" fill="#FFFFFF"/><g><g><g><path d="M2495.29 1167.31 2495.29 1260.69 2626.71 1260.69 2626.71 1167.31ZM2564.67 1226.91C2562.64 1228.92 2559.36 1228.92 2557.33 1226.91L2501.22 1170.8C2501.22 1170.79 2501.22 1170.78 2501.22 1170.78 2501.23 1170.77 2501.23 1170.77 2501.24 1170.77L2620.76 1170.77C2620.77 1170.77 2620.78 1170.78 2620.78 1170.79 2620.78 1170.79 2620.78 1170.8 2620.78 1170.8ZM2539.53 1214 2498.78 1254.75C2498.77 1254.76 2498.76 1254.76 2498.76 1254.75 2498.75 1254.75 2498.75 1254.75 2498.75 1254.74L2498.75 1173.26C2498.75 1173.25 2498.76 1173.24 2498.77 1173.24 2498.77 1173.24 2498.78 1173.24 2498.78 1173.25ZM2541.98 1216.44 2554.89 1229.35C2558.26 1232.73 2563.74 1232.73 2567.11 1229.35 2567.11 1229.35 2567.11 1229.35 2567.11 1229.35L2580.02 1216.44 2620.78 1257.2C2620.78 1257.21 2620.78 1257.22 2620.78 1257.22 2620.77 1257.23 2620.77 1257.23 2620.76 1257.23L2501.24 1257.23C2501.23 1257.23 2501.22 1257.22 2501.22 1257.21 2501.22 1257.21 2501.22 1257.2 2501.22 1257.2ZM2582.47 1214 2623.22 1173.25C2623.23 1173.24 2623.24 1173.24 2623.25 1173.25 2623.25 1173.25 2623.25 1173.25 2623.25 1173.26L2623.25 1254.74C2623.25 1254.75 2623.24 1254.76 2623.23 1254.76 2623.23 1254.76 2623.22 1254.76 2623.22 1254.75Z" stroke="#F2F2F2" stroke-width="1.72917" fill="#7F7F7F"/></g></g></g><text font-family="Calibri,Calibri_MSFontService,sans-serif" font-weight="700" font-size="73" transform="matrix(1 0 0 1 2543.05 1241)">1</text></g></svg>