<?xml version="1.0" encoding="utf-8"?>
<!-- Generator: Adobe Illustrator 19.2.1, SVG Export Plug-In . SVG Version: 6.00 Build 0)  -->
<svg version="1.1" id="Layer_1" xmlns="http://www.w3.org/2000/svg" xmlns:xlink="http://www.w3.org/1999/xlink" x="0px" y="0px" width="80px" height="80px" viewBox="0 0 80 80" enable-background="new 0 0 80 80" xml:space="preserve">
<polygon fill="#7A7A7A" points="80,44.362 80,35.258 78.715,34.84 68.97,31.658 66.37,25.378 71.368,14.803 64.93,8.366   63.722,8.976 54.584,13.621 48.304,11.016 44.358,0 35.258,0 34.837,1.291 31.654,11.038 25.379,13.635 14.8,8.64 8.363,15.075   8.976,16.28 13.616,25.422 11.019,31.696 0,35.642 0,44.747 1.286,45.17 11.034,48.349 13.634,54.626 8.637,65.203 15.07,71.643   16.278,71.029 25.418,66.387 31.696,68.987 35.64,80 44.746,80 45.165,78.715 48.347,68.973 54.624,66.371 65.2,71.373   71.64,64.931 71.027,63.725 66.384,54.587 68.987,48.309 " />
<path opacity="0.2" fill="#FFFFFF" enable-background="new    " d="M63.598,9.037l-9.014,4.584l-6.28-2.6L44.36,0h-9.1l-0.419,1.291  l-3.182,9.746l-6.275,2.6l-10.582-5l-6.435,6.438l0.613,1.2l4.64,9.144l-2.6,6.272L0.001,35.638v9.1l1.286,0.421l9.747,3.181  l2.6,6.277l-5,10.578l6.434,6.44l1.208-0.614l3.893-1.978l5.523-7.632l0.029,0.019l30.475-42.112l-0.029-0.022L63.598,9.037z" />
<path fill="#FFFFFF" d="M52.043,26.011l-3.79,3.826c3.546,2.368,5.679,6.347,5.686,10.611c0.054,6.75-5.375,12.266-12.125,12.32  c-0.108,0.001-0.216,0-0.325-0.002C34.557,52.599,29.023,46.934,29.02,40c0.067-3.754,1.824-7.277,4.782-9.59l3,2.784V24h-9.294  l2.274,2.435c-3.886,3.365-6.115,8.254-6.107,13.394c0.015,9.916,7.924,18.016,17.837,18.267  c9.429,0.217,17.249-7.252,17.466-16.681c0.006-0.261,0.006-0.522,0-0.783C59.082,34.942,56.516,29.531,52.043,26.011z" />
</svg>