<svg class="architecture-diagram" aria-labelledby="anomaly-detection-in-real-time-data-streams" height="567.614" viewbox="0 0 760.536 567.614" width="760.536" xmlns="http://www.w3.org/2000/svg">
    <path d="M32.978 18a.63.63 0 01-.667.667h-5.2a.63.63 0 01-.666-.667v-3.867a.63.63 0 01.667-.667h5.2a.63.63 0 01.667.667zM42.311 22a.63.63 0 01-.667.667h-5.2a.63.63 0 01-.666-.667v-3.867a.63.63 0 01.667-.667h5.2a.63.63 0 01.667.667zM32.978 26a.63.63 0 01-.667.667h-5.2a.63.63 0 01-.666-.667v-3.867a.63.63 0 01.667-.667h5.2a.63.63 0 01.667.667zM23.645 14a.63.63 0 01-.667.667h-5.333a.63.63 0 01-.667-.667v-4a.63.63 0 01.667-.667h5.2c.533 0 .8.267.8.667z" fill="#b8d432"/>
    <path d="M46.978 0H9.645a.63.63 0 00-.667.667v8a.63.63 0 00.667.667h4a.63.63 0 00.667-.667V5.333h28v3.334c0 .4.267.667.8.667h3.867a.63.63 0 00.667-.667v-8A.63.63 0 0046.978 0zM46.978 30.8h-3.867a.63.63 0 00-.667.667v3.2H14.311v-3.334c0-.4-.267-.667-.8-.667H9.645c-.4 0-.667.267-.667.8v7.867a.63.63 0 00.667.667h37.333a.63.63 0 00.667-.667v-7.866a.63.63 0 00-.667-.667z" fill="#0072c6"/>
    <path d="M23.645 22a.63.63 0 01-.667.667h-5.333a.63.63 0 01-.667-.667v-4a.63.63 0 01.667-.667h5.2c.533 0 .8.267.8.667zM23.645 30a.63.63 0 01-.667.667h-5.333a.63.63 0 01-.667-.667v-4a.63.63 0 01.667-.667h5.2c.533 0 .8.267.8.667z" fill="#b8d432"/>
    <path d="M5.2 66.423H0v-9.8h4.977v1.039H1.148v3.26h3.541v1.033H1.148v3.432H5.2zM12.434 59.423l-2.789 7h-1.1l-2.652-7h1.23L8.9 64.509a4.6 4.6 0 01.246.977h.027a4.55 4.55 0 01.219-.949l1.859-5.113zM19.182 63.2h-4.944a2.623 2.623 0 00.629 1.8 2.17 2.17 0 001.654.637 3.437 3.437 0 002.174-.779v1.053a4.062 4.062 0 01-2.439.67 2.961 2.961 0 01-2.332-.954 3.906 3.906 0 01-.848-2.683A3.826 3.826 0 0114 60.287a2.966 2.966 0 012.3-1.028 2.634 2.634 0 012.127.889 3.7 3.7 0 01.752 2.467zm-1.148-.949a2.286 2.286 0 00-.469-1.512 1.6 1.6 0 00-1.281-.539 1.812 1.812 0 00-1.348.566 2.58 2.58 0 00-.684 1.484zM26.688 66.423h-1.122v-3.992q0-2.229-1.627-2.229a1.766 1.766 0 00-1.392.632 2.342 2.342 0 00-.55 1.6v3.992h-1.12v-7H22v1.162h.027a2.525 2.525 0 012.3-1.326 2.137 2.137 0 011.751.738 3.3 3.3 0 01.609 2.144zM32.047 66.354a2.169 2.169 0 01-1.047.219q-1.838 0-1.838-2.051V60.38h-1.2v-.957h1.2v-1.709l1.121-.363v2.072h1.764v.957h-1.764v3.943a1.642 1.642 0 00.238 1.006.957.957 0 00.793.3 1.184 1.184 0 00.732-.232zM44.9 66.423h-1.15v-4.471h-5.072v4.471h-1.149v-9.8h1.148v4.3h5.073v-4.3h1.15zM52.979 66.423h-1.122v-1.108h-.027a2.3 2.3 0 01-2.16 1.271q-2.5 0-2.5-2.98v-4.183h1.113v4.006q0 2.215 1.7 2.215a1.717 1.717 0 001.351-.605 2.318 2.318 0 00.53-1.582v-4.034h1.121zM56.389 65.411h-.027v1.012H55.24V56.059h1.121v4.594h.027a2.652 2.652 0 012.42-1.395 2.564 2.564 0 012.109.939 3.885 3.885 0 01.762 2.52 4.339 4.339 0 01-.854 2.813 2.847 2.847 0 01-2.338 1.057 2.305 2.305 0 01-2.098-1.176zm-.027-2.824v.979a2.082 2.082 0 00.564 1.473 2.011 2.011 0 003.028-.174 3.579 3.579 0 00.577-2.168 2.826 2.826 0 00-.539-1.832 1.789 1.789 0 00-1.463-.662 1.986 1.986 0 00-1.572.68 2.5 2.5 0 00-.596 1.704z" fill="#5b5b5b"/>
    <path fill="#969696" d="M64.642 20.012h81.265v1.5H64.642z"/>
    <path fill="#969696" d="M144.375 15.525l9.067 5.236-9.067 5.236V15.525zM541.194 178.512H400.642v-1.5h139.052v-81.81h1.5v83.31z"/>
    <path fill="#969696" d="M545.68 96.734l-5.235-9.067-5.236 9.067h10.471zM369.194 126.132h-1.5V21.512H243.642v-1.5h125.552v106.12z"/>
    <path fill="#969696" d="M363.209 124.599l5.236 9.068 5.235-9.068h-10.471zM246.642 502.012h71.265v1.5h-71.265z"/>
    <path fill="#969696" d="M316.375 497.525l9.067 5.236-9.067 5.236v-10.472zM573.642 343.012h72.265v1.5h-72.265z"/>
    <path fill="#969696" d="M644.375 338.525l9.067 5.236-9.067 5.236v-10.472z"/>
    <path d="M208.992 27.93l1.12-2.892 5.131-1.773v-4.106l-.56-.187-4.572-1.306-1.12-2.892 2.332-4.758-2.892-2.892-.56.28-4.2 2.146-2.986-1.213-1.866-4.945h-4.2l-.187.56-1.4 4.385-2.892 1.12-4.94-2.147-2.985 2.89.28.56 1.306 2.426a14.685 14.685 0 017.371-1.866 15.049 15.049 0 019.61 3.919 21.6 21.6 0 011.773 1.493 7.121 7.121 0 01.746 1.026 7.276 7.276 0 01-1.866 9.33 7.145 7.145 0 01-7.371 1.026c-.28-.187-.466-.187-.56-.28a9.686 9.686 0 01-1.586-1.12c-.187 0-.28-.187-.56-.187a2.3 2.3 0 00-1.586.746l-.187.187a14.03 14.03 0 01-5.971 3.732l-.84 1.773 2.8 2.8.187.187.56-.28 4.2-2.146 2.892 1.12L195 39.592h4.2l.187-.56 1.493-4.385 2.892-1.12 4.945 2.146 2.8-3.079-.28-.56z" fill="#7a7a7a"/>
    <path d="M183.988 20.652a7.448 7.448 0 01-11.289-.187.784.784 0 00-1.306 0 1.059 1.059 0 00-.28.746 1.781 1.781 0 00.28.746 9.418 9.418 0 0013.995.187 7.483 7.483 0 0111.2.28c.466.466 1.026.466 1.306 0a1.059 1.059 0 00.28-.746 1.781 1.781 0 00-.28-.746 9.387 9.387 0 00-13.906-.28z" fill="#48c8ef"/>
    <path d="M190.985 22.425a5.923 5.923 0 00-4.478 1.866l-.187.187-.187.187a10.517 10.517 0 01-8.117 3.359 11.392 11.392 0 01-8.024-3.732c-.466-.466-1.026-.466-1.306 0-.093 0-.093.187-.093.466a1.256 1.256 0 00.466.84 12.334 12.334 0 009.33 4.385 12.028 12.028 0 009.423-4.105l.188-.188.187-.187a4.23 4.23 0 013.079-1.306 4.4 4.4 0 013.079 1.493c.466.466 1.026.466 1.306 0a1.059 1.059 0 00.28-.746 1.781 1.781 0 00-.28-.746 7.589 7.589 0 00-4.666-1.773z" fill="#00abec"/>
    <path d="M183.148 18.6a10.941 10.941 0 018.117-3.452 10.82 10.82 0 017.835 3.732c.466.466 1.026.466 1.306 0a1.059 1.059 0 00.28-.746 1.781 1.781 0 00-.28-.746A12.334 12.334 0 00191.078 13a12.531 12.531 0 00-9.423 4.105l-.187.187-.187.187a4.09 4.09 0 01-6.158-.187c-.466-.466-1.026-.466-1.306 0a1.059 1.059 0 00-.28.746 1.781 1.781 0 00.28.746 5.993 5.993 0 008.863.187l.187-.187z" fill="#84d6ef"/>
    <g opacity=".2" style="isolation:isolate" fill="#f1f1f1">
        <path d="M191.825 26.623c-.187 0-.28-.187-.56-.187a2.3 2.3 0 00-1.586.746l-.187.187a14.03 14.03 0 01-5.971 3.732l-.84 1.773 1.493 1.493 7.651-7.744zM183.894 13.282a14.685 14.685 0 017.371-1.866 15.049 15.049 0 019.61 3.919c.466.373.84.653 1.306 1.026l7.744-7.744-1.586-1.586-.56.28-4.2 2.146-2.892-1.12-1.866-4.945h-4.2l-.187.56-1.4 4.385-2.892 1.12L185.2 7.31l-2.985 2.89.28.56z"/>
    </g>
    <path d="M145.672 67.418v-1.354a2.633 2.633 0 00.558.369 4.387 4.387 0 00.684.276 5.279 5.279 0 00.722.175 4.018 4.018 0 00.67.062 2.626 2.626 0 001.582-.393 1.473 1.473 0 00.349-1.822 1.977 1.977 0 00-.481-.537 4.865 4.865 0 00-.729-.465q-.42-.221-.906-.468-.513-.259-.957-.526a4.122 4.122 0 01-.771-.588 2.454 2.454 0 01-.517-.729 2.475 2.475 0 01.106-2.119 2.526 2.526 0 01.771-.816 3.5 3.5 0 011.09-.483 4.955 4.955 0 011.247-.157 4.785 4.785 0 012.113.349v1.292a3.829 3.829 0 00-2.229-.6 3.636 3.636 0 00-.752.079 2.084 2.084 0 00-.67.256 1.491 1.491 0 00-.479.458 1.216 1.216 0 00-.186.684 1.4 1.4 0 00.141.649 1.6 1.6 0 00.414.5 4.121 4.121 0 00.666.438q.393.212.906.465t1 .547a4.531 4.531 0 01.826.636 2.818 2.818 0 01.564.772 2.176 2.176 0 01.209.971 2.472 2.472 0 01-.284 1.228 2.333 2.333 0 01-.766.816 3.365 3.365 0 01-1.11.455 6.129 6.129 0 01-1.326.14 5.326 5.326 0 01-.574-.038q-.343-.037-.7-.109a5.385 5.385 0 01-.674-.178 2.082 2.082 0 01-.507-.235zM156.213 67.746a2.16 2.16 0 01-1.045.219q-1.84 0-1.84-2.051v-4.143h-1.2v-.957h1.2v-1.709l1.121-.362v2.071h1.764v.957h-1.764v3.944a1.631 1.631 0 00.24 1 .955.955 0 00.793.3 1.174 1.174 0 00.73-.232zM161.361 61.949a1.372 1.372 0 00-.848-.226 1.431 1.431 0 00-1.2.677 3.129 3.129 0 00-.481 1.846v3.568h-1.121v-7h1.121v1.442h.027a2.445 2.445 0 01.73-1.152 1.67 1.67 0 011.1-.413 1.841 1.841 0 01.67.1zM168.02 64.595h-4.943a2.623 2.623 0 00.629 1.8 2.17 2.17 0 001.654.636 3.437 3.437 0 002.174-.779v1.053a4.062 4.062 0 01-2.439.67 2.958 2.958 0 01-2.332-.954 3.9 3.9 0 01-.848-2.683 3.828 3.828 0 01.927-2.663 2.969 2.969 0 012.3-1.028 2.634 2.634 0 012.127.889 3.707 3.707 0 01.752 2.468zm-1.148-.95a2.281 2.281 0 00-.469-1.511 1.6 1.6 0 00-1.281-.54 1.81 1.81 0 00-1.348.567 2.58 2.58 0 00-.684 1.483zM174.725 67.814H173.6v-1.093h-.027a2.345 2.345 0 01-2.152 1.258 2.3 2.3 0 01-1.638-.554 1.917 1.917 0 01-.591-1.47q0-1.961 2.311-2.283l2.1-.294q0-1.784-1.441-1.784a3.444 3.444 0 00-2.283.861v-1.148a4.335 4.335 0 012.379-.656q2.467 0 2.467 2.611zm-1.125-3.541l-1.687.232a2.756 2.756 0 00-1.176.386 1.115 1.115 0 00-.4.981 1.065 1.065 0 00.365.837 1.413 1.413 0 00.975.325 1.8 1.8 0 001.377-.585 2.086 2.086 0 00.543-1.479zM186.777 67.814h-1.121v-4.02a3.033 3.033 0 00-.359-1.682 1.361 1.361 0 00-1.207-.52 1.493 1.493 0 00-1.22.656 2.512 2.512 0 00-.5 1.572v3.992h-1.121v-4.154q0-2.064-1.592-2.064a1.475 1.475 0 00-1.217.618 2.557 2.557 0 00-.479 1.61v3.992h-1.121v-7h1.121v1.107h.027a2.377 2.377 0 012.174-1.271 2.023 2.023 0 011.982 1.449 2.5 2.5 0 012.324-1.449q2.31 0 2.311 2.851zM200.469 67.814H199.2l-1.039-2.748H194l-.977 2.748h-1.279l3.76-9.8h1.196zm-2.686-3.78l-1.539-4.177a4.105 4.105 0 01-.15-.656h-.027a3.659 3.659 0 01-.156.656l-1.525 4.177zM207.572 67.814h-1.121v-3.992q0-2.228-1.627-2.229a1.766 1.766 0 00-1.392.632 2.344 2.344 0 00-.55 1.6v3.992h-1.121v-7h1.121v1.162h.027a2.526 2.526 0 012.3-1.326 2.14 2.14 0 011.756.741 3.3 3.3 0 01.609 2.144zM214.7 67.814h-1.121v-1.093h-.027a2.348 2.348 0 01-2.154 1.258 2.3 2.3 0 01-1.637-.554 1.918 1.918 0 01-.592-1.47q0-1.961 2.311-2.283l2.1-.294q0-1.784-1.443-1.784a3.448 3.448 0 00-2.283.861v-1.148a4.34 4.34 0 012.379-.656q2.468 0 2.469 2.611zm-1.121-3.541l-1.689.232a2.761 2.761 0 00-1.176.386 1.117 1.117 0 00-.4.981 1.066 1.066 0 00.366.837 1.41 1.41 0 00.974.325 1.8 1.8 0 001.378-.585 2.086 2.086 0 00.544-1.479zM217.928 67.814h-1.121V57.451h1.121zM225.77 60.814l-3.221 8.121q-.861 2.174-2.42 2.174a2.581 2.581 0 01-.73-.089v-1a2.072 2.072 0 00.662.123 1.373 1.373 0 001.271-1.012l.561-1.326-2.734-6.986h1.241l1.9 5.381q.034.1.143.533h.041c.023-.109.068-.282.137-.52l1.99-5.4zM230.26 67.746a2.16 2.16 0 01-1.045.219q-1.84 0-1.84-2.051v-4.143h-1.2v-.957h1.2v-1.709l1.121-.362v2.071h1.764v.957h-1.76v3.944a1.631 1.631 0 00.24 1 .955.955 0 00.793.3 1.174 1.174 0 00.73-.232zM232.332 59.037a.712.712 0 01-.514-.205.693.693 0 01-.211-.52.717.717 0 01.725-.731.721.721 0 01.522.209.728.728 0 010 1.035.719.719 0 01-.522.212zm.547 8.777h-1.121v-7h1.121zM239.92 67.493a3.637 3.637 0 01-1.914.485 3.172 3.172 0 01-2.417-.978 3.532 3.532 0 01-.919-2.526 3.881 3.881 0 01.99-2.778 3.467 3.467 0 012.646-1.05 3.688 3.688 0 011.627.342v1.148a2.854 2.854 0 00-1.668-.547 2.257 2.257 0 00-1.761.769 2.921 2.921 0 00-.687 2.021 2.778 2.778 0 00.646 1.941 2.229 2.229 0 001.733.711 2.807 2.807 0 001.723-.608zM241.191 67.561v-1.2a3.315 3.315 0 002.016.677q1.477 0 1.477-.984a.861.861 0 00-.126-.476 1.286 1.286 0 00-.342-.345 2.641 2.641 0 00-.506-.271 34.39 34.39 0 00-.626-.249 8.121 8.121 0 01-.816-.372 2.521 2.521 0 01-.588-.424 1.587 1.587 0 01-.355-.537 1.9 1.9 0 01-.119-.7 1.676 1.676 0 01.225-.872 2 2 0 01.6-.635 2.774 2.774 0 01.858-.387 3.837 3.837 0 011-.13 4.013 4.013 0 011.627.314v1.13a3.175 3.175 0 00-1.777-.506 2.124 2.124 0 00-.568.071 1.412 1.412 0 00-.434.2.923.923 0 00-.28.312.813.813 0 00-.1.4.955.955 0 00.1.458 1.007 1.007 0 00.29.328 2.276 2.276 0 00.465.26q.274.117.623.253a8.453 8.453 0 01.834.366 2.831 2.831 0 01.629.424 1.652 1.652 0 01.4.543 1.764 1.764 0 01.14.731 1.726 1.726 0 01-.229.9 1.958 1.958 0 01-.611.636 2.826 2.826 0 01-.883.376 4.344 4.344 0 01-1.045.123 3.977 3.977 0 01-1.879-.414zM163.485 228.2h-1.271l-1.039-2.748h-4.156l-.978 2.748h-1.278l3.76-9.8h1.189zm-2.687-3.78l-1.538-4.177a4 4 0 01-.15-.656h-.027a3.733 3.733 0 01-.157.656l-1.524 4.177zM169.658 221.518l-4.143 5.722h4.1v.957h-5.749v-.349l4.143-5.694h-3.753v-.954h5.4zM176.768 228.2h-1.121v-1.11h-.027a2.3 2.3 0 01-2.16 1.271q-2.5 0-2.5-2.98V221.2h1.114v4q0 2.215 1.7 2.215a1.719 1.719 0 001.351-.6 2.321 2.321 0 00.529-1.583V221.2h1.121zM182.681 222.332a1.372 1.372 0 00-.848-.226 1.433 1.433 0 00-1.2.677 3.136 3.136 0 00-.481 1.846v3.571h-1.122v-7h1.121v1.442h.027a2.447 2.447 0 01.731-1.152 1.67 1.67 0 011.1-.413 1.837 1.837 0 01.67.1zM189.339 224.977H184.4a2.614 2.614 0 00.629 1.8 2.167 2.167 0 001.654.636 3.441 3.441 0 002.174-.779v1.053a4.065 4.065 0 01-2.44.67 2.954 2.954 0 01-2.331-.954 3.9 3.9 0 01-.848-2.683 3.832 3.832 0 01.926-2.663 2.973 2.973 0 012.3-1.028 2.63 2.63 0 012.126.889 3.707 3.707 0 01.752 2.468zm-1.148-.95a2.286 2.286 0 00-.468-1.511 1.6 1.6 0 00-1.282-.54 1.809 1.809 0 00-1.347.567 2.574 2.574 0 00-.684 1.483zM194.562 227.8v-1.354a2.633 2.633 0 00.558.369 4.349 4.349 0 00.684.276 5.231 5.231 0 00.721.175 4.018 4.018 0 00.67.062 2.624 2.624 0 001.582-.393 1.476 1.476 0 00.35-1.822 2 2 0 00-.482-.537 4.815 4.815 0 00-.729-.465c-.279-.147-.582-.3-.905-.468q-.513-.259-.957-.526a4.13 4.13 0 01-.772-.588 2.451 2.451 0 01-.516-.729 2.479 2.479 0 01.105-2.119 2.519 2.519 0 01.772-.816 3.5 3.5 0 011.091-.479 4.955 4.955 0 011.247-.157 4.783 4.783 0 012.112.349v1.292a3.829 3.829 0 00-2.229-.6 3.636 3.636 0 00-.752.079 2.084 2.084 0 00-.67.256 1.491 1.491 0 00-.479.458 1.216 1.216 0 00-.185.684 1.413 1.413 0 00.14.649 1.6 1.6 0 00.414.5 4.121 4.121 0 00.666.438q.394.212.906.465t1 .547a4.573 4.573 0 01.827.636 2.815 2.815 0 01.563.772 2.163 2.163 0 01.209.971 2.472 2.472 0 01-.283 1.228 2.341 2.341 0 01-.766.816 3.379 3.379 0 01-1.111.455 6.129 6.129 0 01-1.326.14 5.326 5.326 0 01-.574-.038q-.343-.037-.7-.109a5.43 5.43 0 01-.674-.178 2.09 2.09 0 01-.507-.239zM205.1 228.129a2.167 2.167 0 01-1.046.219q-1.84 0-1.839-2.051v-4.143h-1.2v-.954h1.2v-1.709l1.121-.362v2.071h1.764v.957h-1.764v3.943a1.631 1.631 0 00.239 1 .955.955 0 00.793.3 1.177 1.177 0 00.731-.232zM209.416 228.361a3.247 3.247 0 01-2.479-.981 3.632 3.632 0 01-.926-2.6 3.784 3.784 0 01.964-2.755 3.468 3.468 0 012.6-.991 3.138 3.138 0 012.443.964 3.82 3.82 0 01.879 2.673 3.757 3.757 0 01-.947 2.683 3.314 3.314 0 01-2.534 1.007zm.082-6.385a2.13 2.13 0 00-1.709.735 3.012 3.012 0 00-.629 2.026 2.855 2.855 0 00.636 1.962 2.161 2.161 0 001.7.718 2.054 2.054 0 001.672-.7 3.059 3.059 0 00.584-2 3.113 3.113 0 00-.584-2.023 2.044 2.044 0 00-1.668-.718zM218.344 222.332a1.372 1.372 0 00-.848-.226 1.429 1.429 0 00-1.2.677 3.122 3.122 0 00-.482 1.846v3.571h-1.121v-7h1.121v1.442h.027a2.447 2.447 0 01.731-1.152 1.668 1.668 0 011.1-.413 1.841 1.841 0 01.67.1zM224.571 228.2h-1.121v-1.1h-.027a2.347 2.347 0 01-2.153 1.258 2.3 2.3 0 01-1.637-.554 1.918 1.918 0 01-.592-1.47q0-1.961 2.311-2.283l2.1-.294q0-1.784-1.442-1.784a3.444 3.444 0 00-2.283.861v-1.148a4.335 4.335 0 012.379-.656q2.467 0 2.468 2.611zm-1.121-3.541l-1.688.232a2.756 2.756 0 00-1.176.386 1.115 1.115 0 00-.4.981 1.068 1.068 0 00.365.837 1.413 1.413 0 00.975.325 1.794 1.794 0 001.377-.585 2.082 2.082 0 00.544-1.479zM232.658 227.637q0 3.855-3.691 3.855A4.953 4.953 0 01226.7 231v-1.121a4.659 4.659 0 002.256.656q2.584 0 2.584-2.748v-.766h-.027a2.832 2.832 0 01-4.508.407 3.73 3.73 0 01-.8-2.506 4.362 4.362 0 01.857-2.837 2.867 2.867 0 012.349-1.053 2.281 2.281 0 012.1 1.135h.027v-.967h1.121zm-1.121-2.6V224a2 2 0 00-.564-1.429 1.854 1.854 0 00-1.4-.595 1.947 1.947 0 00-1.627.755 3.369 3.369 0 00-.588 2.116 2.892 2.892 0 00.564 1.87 1.82 1.82 0 001.493.7 1.95 1.95 0 001.534-.67 2.5 2.5 0 00.588-1.715zM240.554 224.977h-4.942a2.614 2.614 0 00.629 1.8 2.167 2.167 0 001.654.636 3.441 3.441 0 002.174-.779v1.053a4.065 4.065 0 01-2.44.67 2.954 2.954 0 01-2.331-.954 3.9 3.9 0 01-.848-2.683 3.832 3.832 0 01.926-2.663 2.973 2.973 0 012.3-1.028 2.63 2.63 0 012.126.889 3.707 3.707 0 01.752 2.468zm-1.148-.95a2.286 2.286 0 00-.468-1.511 1.6 1.6 0 00-1.282-.54 1.809 1.809 0 00-1.347.567 2.574 2.574 0 00-.684 1.483z" fill="#5b5b5b"/>
    <path d="M172.628 206.234a1.837 1.837 0 001.9 1.9h46.2a1.837 1.837 0 001.9-1.9v-33.1h-50z" fill="#a0a1a2"/>
    <path d="M220.728 165.534h-46.2a1.837 1.837 0 00-1.9 1.9v5.7h50v-5.7a1.837 1.837 0 00-1.9-1.9" fill="#7a7a7a"/>
    <path fill="#fff" d="M191.428 176.434h12.6v7.6h-12.6z"/>
    <path fill="#fcd116" d="M191.428 186.734h12.6v7.6h-12.6zM206.428 186.734h12.6v7.6h-12.6z"/>
    <path fill="#fff" d="M206.428 176.434h12.6v7.6h-12.6zM176.428 176.434h12.6v7.6h-12.6zM176.428 186.734h12.6v7.6h-12.6z"/>
    <path fill="#fcd116" d="M176.428 196.934h12.6v7.6h-12.6zM191.428 196.934h12.6v7.6h-12.6zM206.428 196.934h12.6v7.6h-12.6z"/>
    <path d="M174.528 165.534a2.043 2.043 0 00-1.9 1.9v38.8a2.043 2.043 0 001.9 1.9h2.1l39.6-42.6z" fill="#fff" opacity=".2"/>
    <path d="M162.594 388.519v-9.8h2.706q5.181 0 5.182 4.778a4.814 4.814 0 01-1.439 3.646 5.334 5.334 0 01-3.852 1.378zm1.148-8.764v7.725h1.463a4.151 4.151 0 003-1.032 3.869 3.869 0 001.074-2.926q0-3.768-4.006-3.767zM177.27 388.519h-1.121v-1.094h-.027a2.345 2.345 0 01-2.152 1.258 2.3 2.3 0 01-1.638-.554 1.917 1.917 0 01-.591-1.47q0-1.961 2.311-2.283l2.1-.294q0-1.784-1.441-1.784a3.444 3.444 0 00-2.283.861v-1.148a4.335 4.335 0 012.379-.656q2.467 0 2.467 2.611zm-1.121-3.541l-1.687.232a2.756 2.756 0 00-1.176.386 1.115 1.115 0 00-.4.981 1.065 1.065 0 00.365.837 1.413 1.413 0 00.975.325 1.8 1.8 0 001.377-.585 2.086 2.086 0 00.543-1.479zM182.629 388.451a2.16 2.16 0 01-1.045.219q-1.84 0-1.84-2.051v-4.143h-1.2v-.957h1.2v-1.709l1.121-.362v2.071h1.764v.957h-1.764v3.944a1.631 1.631 0 00.24 1 .955.955 0 00.793.3 1.174 1.174 0 00.73-.232zM189.137 388.519h-1.121v-1.094h-.027a2.345 2.345 0 01-2.152 1.258 2.3 2.3 0 01-1.638-.554 1.917 1.917 0 01-.591-1.47q0-1.961 2.311-2.283l2.1-.294q0-1.784-1.441-1.784a3.444 3.444 0 00-2.283.861v-1.148a4.335 4.335 0 012.379-.656q2.467 0 2.467 2.611zm-1.121-3.541l-1.687.232a2.756 2.756 0 00-1.176.386 1.115 1.115 0 00-.4.981 1.065 1.065 0 00.365.837 1.413 1.413 0 00.975.325 1.8 1.8 0 001.377-.585 2.086 2.086 0 00.543-1.479zM200.211 379.756h-3.828v3.391h3.541v1.032h-3.541v4.341h-1.148v-9.8h4.977zM206.412 388.519h-1.121v-1.094h-.027a2.348 2.348 0 01-2.154 1.258 2.3 2.3 0 01-1.637-.554 1.918 1.918 0 01-.592-1.47q0-1.961 2.311-2.283l2.1-.294q0-1.784-1.443-1.784a3.448 3.448 0 00-2.283.861v-1.148a4.34 4.34 0 012.379-.656q2.468 0 2.469 2.611zm-1.121-3.541l-1.689.232a2.761 2.761 0 00-1.176.386 1.117 1.117 0 00-.4.981 1.066 1.066 0 00.366.837 1.41 1.41 0 00.974.325 1.8 1.8 0 001.378-.585 2.086 2.086 0 00.544-1.479zM213.295 388.2a3.635 3.635 0 01-1.914.485 3.172 3.172 0 01-2.416-.974 3.533 3.533 0 01-.92-2.526 3.878 3.878 0 01.992-2.778 3.463 3.463 0 012.645-1.05 3.685 3.685 0 011.627.342v1.148a2.852 2.852 0 00-1.668-.547 2.257 2.257 0 00-1.76.769 2.921 2.921 0 00-.687 2.021 2.778 2.778 0 00.646 1.941 2.227 2.227 0 001.732.711 2.8 2.8 0 001.723-.608zM218.238 388.451a2.169 2.169 0 01-1.047.219q-1.838 0-1.838-2.051v-4.143h-1.2v-.957h1.2v-1.709l1.121-.362v2.071h1.764v.957h-1.764v3.944a1.639 1.639 0 00.238 1 .957.957 0 00.793.3 1.178 1.178 0 00.732-.232zM222.551 388.683a3.245 3.245 0 01-2.478-.981 3.629 3.629 0 01-.927-2.6 3.785 3.785 0 01.965-2.755 3.465 3.465 0 012.6-.991 3.141 3.141 0 012.444.964 3.824 3.824 0 01.878 2.673 3.761 3.761 0 01-.946 2.683 3.317 3.317 0 01-2.536 1.007zm.082-6.385a2.133 2.133 0 00-1.709.735 3.017 3.017 0 00-.629 2.026 2.855 2.855 0 00.637 1.962 2.159 2.159 0 001.7.718 2.052 2.052 0 001.672-.7 3.054 3.054 0 00.584-2 3.107 3.107 0 00-.584-2.023 2.042 2.042 0 00-1.671-.716zM231.479 382.654a1.37 1.37 0 00-.848-.226 1.43 1.43 0 00-1.2.677 3.129 3.129 0 00-.482 1.846v3.568h-1.121v-7h1.121v1.442h.027a2.455 2.455 0 01.732-1.152 1.667 1.667 0 011.1-.413 1.834 1.834 0 01.67.1zM238.828 381.519l-3.221 8.121q-.861 2.174-2.42 2.174a2.581 2.581 0 01-.73-.089v-1a2.072 2.072 0 00.662.123 1.373 1.373 0 001.271-1.012l.561-1.326-2.734-6.986h1.244l1.895 5.387q.034.1.143.533h.041c.023-.109.068-.282.137-.52l1.99-5.4zM166.862 537.717l-3.63 9.8h-1.265l-3.555-9.8h1.278l2.714 7.772a4.6 4.6 0 01.2.868h.027a4.217 4.217 0 01.226-.882l2.769-7.759zM168.694 538.742a.71.71 0 01-.513-.205.69.69 0 01-.212-.52.719.719 0 01.725-.731.719.719 0 01.522.209.728.728 0 010 1.035.718.718 0 01-.522.212zm.547 8.777h-1.121v-7h1.121zM171.087 547.267v-1.2a3.316 3.316 0 002.017.677q1.477 0 1.477-.984a.854.854 0 00-.127-.476 1.258 1.258 0 00-.342-.345 2.584 2.584 0 00-.506-.271c-.193-.079-.4-.162-.625-.249a8.022 8.022 0 01-.816-.372 2.48 2.48 0 01-.588-.424 1.559 1.559 0 01-.355-.537 1.9 1.9 0 01-.12-.7 1.677 1.677 0 01.226-.872 1.994 1.994 0 01.6-.635 2.768 2.768 0 01.857-.387 3.842 3.842 0 011-.13 4.01 4.01 0 011.627.314v1.124a3.173 3.173 0 00-1.777-.506 2.112 2.112 0 00-.567.071 1.391 1.391 0 00-.434.2.936.936 0 00-.281.312.823.823 0 00-.1.4.966.966 0 00.1.458 1.01 1.01 0 00.291.328 2.225 2.225 0 00.465.26c.182.078.39.162.622.253a8.453 8.453 0 01.834.366 2.808 2.808 0 01.629.424 1.638 1.638 0 01.4.543 1.749 1.749 0 01.141.731 1.726 1.726 0 01-.229.9 1.971 1.971 0 01-.612.636 2.821 2.821 0 01-.882.376 4.358 4.358 0 01-1.046.123 3.979 3.979 0 01-1.879-.408zM183.111 547.519h-1.121v-1.107h-.027a2.3 2.3 0 01-2.16 1.271q-2.5 0-2.5-2.98v-4.184h1.114v4.006q0 2.215 1.7 2.215a1.719 1.719 0 001.351-.6 2.321 2.321 0 00.529-1.583v-4.033h1.121zM190.385 547.519h-1.121v-1.094h-.027a2.347 2.347 0 01-2.153 1.258 2.3 2.3 0 01-1.638-.554 1.921 1.921 0 01-.591-1.47q0-1.961 2.311-2.283l2.1-.294q0-1.784-1.442-1.784a3.446 3.446 0 00-2.283.861v-1.148a4.34 4.34 0 012.379-.656q2.468 0 2.468 2.611zm-1.121-3.541l-1.688.232a2.761 2.761 0 00-1.176.386 1.115 1.115 0 00-.4.981 1.066 1.066 0 00.366.837 1.41 1.41 0 00.974.325 1.8 1.8 0 001.378-.585 2.09 2.09 0 00.543-1.479zM193.618 547.519H192.5v-10.363h1.121zM199.415 547.123v-1.354a2.633 2.633 0 00.558.369 4.349 4.349 0 00.684.276 5.231 5.231 0 00.721.175 4.018 4.018 0 00.67.062 2.624 2.624 0 001.582-.393 1.476 1.476 0 00.35-1.822 2 2 0 00-.482-.537 4.815 4.815 0 00-.729-.465c-.279-.147-.582-.3-.905-.468q-.513-.259-.957-.526a4.13 4.13 0 01-.772-.588 2.451 2.451 0 01-.516-.729 2.479 2.479 0 01.105-2.119 2.519 2.519 0 01.772-.816 3.5 3.5 0 011.091-.479 4.955 4.955 0 011.247-.157 4.783 4.783 0 012.112.349v1.292a3.829 3.829 0 00-2.229-.6 3.636 3.636 0 00-.752.079 2.084 2.084 0 00-.67.256 1.491 1.491 0 00-.479.458 1.216 1.216 0 00-.185.684 1.413 1.413 0 00.14.649 1.6 1.6 0 00.414.5 4.121 4.121 0 00.666.438q.394.212.906.465t1 .547a4.573 4.573 0 01.827.636 2.815 2.815 0 01.563.772 2.163 2.163 0 01.209.971 2.472 2.472 0 01-.283 1.228 2.341 2.341 0 01-.766.816 3.379 3.379 0 01-1.111.455 6.129 6.129 0 01-1.326.14 5.326 5.326 0 01-.574-.038q-.343-.037-.7-.109a5.43 5.43 0 01-.674-.178 2.09 2.09 0 01-.507-.239zM209.956 547.451a2.167 2.167 0 01-1.046.219q-1.84 0-1.839-2.051v-4.143h-1.2v-.957h1.2v-1.709l1.121-.362v2.071h1.764v.957h-1.764v3.944a1.631 1.631 0 00.239 1 .955.955 0 00.793.3 1.177 1.177 0 00.731-.232zM217.113 547.519h-1.121v-1.107h-.027a2.3 2.3 0 01-2.16 1.271q-2.5 0-2.5-2.98v-4.184h1.114v4.006q0 2.215 1.7 2.215a1.719 1.719 0 001.351-.6 2.321 2.321 0 00.529-1.583v-4.033h1.121zM225.351 547.519h-1.121v-1.189h-.03a2.824 2.824 0 01-4.515.413 3.848 3.848 0 01-.79-2.56 4.2 4.2 0 01.875-2.782 2.885 2.885 0 012.331-1.046 2.244 2.244 0 012.1 1.135h.027v-4.334h1.121zm-1.121-3.165v-1.032a2 2 0 00-.561-1.436 1.882 1.882 0 00-1.422-.588 1.936 1.936 0 00-1.613.752 3.3 3.3 0 00-.588 2.078 2.972 2.972 0 00.563 1.911 1.846 1.846 0 001.515.7 1.913 1.913 0 001.521-.677 2.518 2.518 0 00.584-1.708zM228.194 538.742a.71.71 0 01-.513-.205.69.69 0 01-.212-.52.719.719 0 01.725-.731.719.719 0 01.522.209.728.728 0 010 1.035.718.718 0 01-.522.212zm.547 8.777h-1.121v-7h1.121zM233.937 547.683a3.245 3.245 0 01-2.478-.981 3.629 3.629 0 01-.927-2.6 3.784 3.784 0 01.964-2.755 3.468 3.468 0 012.6-.991 3.141 3.141 0 012.444.964 3.824 3.824 0 01.878 2.673 3.761 3.761 0 01-.946 2.683 3.318 3.318 0 01-2.535 1.007zm.082-6.385a2.132 2.132 0 00-1.709.735 3.017 3.017 0 00-.629 2.026 2.855 2.855 0 00.636 1.962 2.161 2.161 0 001.7.718 2.049 2.049 0 001.671-.7 3.048 3.048 0 00.585-2 3.1 3.1 0 00-.585-2.023 2.039 2.039 0 00-1.669-.716zM148.08 564.319h-1.271l-1.039-2.748h-4.156l-.977 2.748h-1.279l3.76-9.8h1.189zm-2.686-3.78l-1.539-4.177a4.105 4.105 0 01-.15-.656h-.027a3.7 3.7 0 01-.156.656L142 560.539zM150.521 563.308h-.027v4.231h-1.121v-10.22h1.121v1.23h.027a2.65 2.65 0 012.42-1.395 2.563 2.563 0 012.111.939 3.9 3.9 0 01.76 2.52 4.331 4.331 0 01-.855 2.813 2.842 2.842 0 01-2.338 1.057 2.342 2.342 0 01-2.098-1.175zm-.027-2.823v.978a2.079 2.079 0 00.563 1.473 2.011 2.011 0 003.028-.174 3.578 3.578 0 00.578-2.167 2.821 2.821 0 00-.541-1.832 1.785 1.785 0 00-1.463-.663 1.987 1.987 0 00-1.572.68 2.5 2.5 0 00-.593 1.704zM158.752 563.308h-.027v4.231H157.6v-10.22h1.121v1.23h.027a2.65 2.65 0 012.42-1.395 2.563 2.563 0 012.111.939 3.9 3.9 0 01.76 2.52 4.331 4.331 0 01-.855 2.813 2.842 2.842 0 01-2.338 1.057 2.342 2.342 0 01-2.094-1.175zm-.027-2.823v.978a2.079 2.079 0 00.563 1.473 2.011 2.011 0 003.028-.174 3.578 3.578 0 00.578-2.167 2.821 2.821 0 00-.541-1.832 1.785 1.785 0 00-1.463-.663 1.987 1.987 0 00-1.572.68 2.5 2.5 0 00-.593 1.704zM166.955 564.319h-1.121v-10.363h1.121zM169.8 555.542a.712.712 0 01-.514-.205.7.7 0 01-.211-.52.716.716 0 01.725-.731.724.724 0 01.522.208.7.7 0 01.216.523.693.693 0 01-.216.513.715.715 0 01-.522.212zm.547 8.777h-1.121v-7h1.121zM177.387 564a3.647 3.647 0 01-1.914.485 3.166 3.166 0 01-2.417-.975 3.525 3.525 0 01-.919-2.525 3.886 3.886 0 01.99-2.779 3.47 3.47 0 012.646-1.049 3.674 3.674 0 011.627.342v1.148a2.847 2.847 0 00-1.668-.547 2.252 2.252 0 00-1.761.77 2.915 2.915 0 00-.687 2.02 2.78 2.78 0 00.646 1.941 2.225 2.225 0 001.733.711 2.813 2.813 0 001.723-.608zM184.092 564.319h-1.121v-1.094h-.027a2.347 2.347 0 01-2.152 1.258 2.3 2.3 0 01-1.638-.554 1.916 1.916 0 01-.591-1.47q0-1.963 2.311-2.283l2.1-.294q0-1.784-1.441-1.784a3.444 3.444 0 00-2.283.861v-1.148a4.335 4.335 0 012.379-.656q2.467 0 2.467 2.611zm-1.121-3.541l-1.687.232a2.716 2.716 0 00-1.176.387 1.112 1.112 0 00-.4.98 1.068 1.068 0 00.365.838 1.417 1.417 0 00.975.324 1.8 1.8 0 001.377-.584 2.09 2.09 0 00.543-1.48zM189.451 564.251a2.149 2.149 0 01-1.045.219q-1.84 0-1.84-2.051v-4.143h-1.2v-.957h1.2v-1.709l1.121-.362v2.071h1.764v.957h-1.764v3.944a1.631 1.631 0 00.24 1 .952.952 0 00.793.3 1.181 1.181 0 00.73-.232zM191.523 555.542a.712.712 0 01-.514-.205.7.7 0 01-.211-.52.716.716 0 01.725-.731.724.724 0 01.522.208.7.7 0 01.216.523.693.693 0 01-.216.513.715.715 0 01-.522.212zm.547 8.777h-1.121v-7h1.121zM197.266 564.483a3.249 3.249 0 01-2.479-.98 3.636 3.636 0 01-.926-2.6 3.785 3.785 0 01.963-2.755 3.466 3.466 0 012.605-.991 3.14 3.14 0 012.443.964 3.822 3.822 0 01.879 2.673 3.764 3.764 0 01-.947 2.684 3.317 3.317 0 01-2.538 1.005zm.082-6.385a2.133 2.133 0 00-1.709.734 3.017 3.017 0 00-.629 2.027 2.853 2.853 0 00.635 1.962 2.163 2.163 0 001.7.718 2.048 2.048 0 001.671-.7 3.057 3.057 0 00.585-2 3.109 3.109 0 00-.585-2.023 2.038 2.038 0 00-1.668-.716zM208.354 564.319h-1.121v-3.992q0-2.229-1.627-2.229a1.764 1.764 0 00-1.392.633 2.339 2.339 0 00-.55 1.6v3.992h-1.121v-7h1.121v1.162h.027a2.525 2.525 0 012.3-1.326 2.138 2.138 0 011.756.742 3.3 3.3 0 01.609 2.143zM215.6 564.319h-1.148v-9.8h1.148zM223.836 564.319h-1.121v-3.992q0-2.229-1.627-2.229a1.764 1.764 0 00-1.391.633 2.34 2.34 0 00-.551 1.6v3.992h-1.121v-7h1.121v1.162h.027a2.527 2.527 0 012.3-1.326 2.143 2.143 0 011.758.742 3.3 3.3 0 01.607 2.143zM225.525 564.066v-1.2a3.315 3.315 0 002.016.677q1.477 0 1.477-.984a.851.851 0 00-.126-.475 1.249 1.249 0 00-.342-.346 2.64 2.64 0 00-.506-.27c-.194-.08-.4-.164-.626-.25a7.9 7.9 0 01-.816-.373 2.439 2.439 0 01-.588-.424 1.574 1.574 0 01-.355-.536 1.889 1.889 0 01-.119-.7 1.668 1.668 0 01.225-.871 2.011 2.011 0 01.6-.637 2.842 2.842 0 01.858-.386 3.8 3.8 0 011-.13 4.029 4.029 0 011.627.314v1.125a3.167 3.167 0 00-1.777-.506 2.047 2.047 0 00-.568.072 1.389 1.389 0 00-.434.2.92.92 0 00-.28.311.816.816 0 00-.1.4.957.957 0 00.1.458 1.007 1.007 0 00.29.328 2.231 2.231 0 00.465.26q.274.116.623.253a8.949 8.949 0 01.834.365 2.934 2.934 0 01.629.424 1.676 1.676 0 01.4.544 1.761 1.761 0 01.14.731 1.731 1.731 0 01-.229.9 1.958 1.958 0 01-.611.636 2.8 2.8 0 01-.883.376 4.344 4.344 0 01-1.045.123 3.965 3.965 0 01-1.879-.409zM232.463 555.542a.708.708 0 01-.512-.205.693.693 0 01-.213-.52.719.719 0 01.725-.731.726.726 0 01.523.208.7.7 0 01.215.523.692.692 0 01-.215.513.718.718 0 01-.523.212zm.547 8.777h-1.121v-7h1.121zM241.254 563.759q0 3.855-3.691 3.855a4.959 4.959 0 01-2.27-.492V566a4.665 4.665 0 002.256.656q2.584 0 2.584-2.748v-.766h-.027a2.831 2.831 0 01-4.508.406 3.726 3.726 0 01-.8-2.5 4.355 4.355 0 01.858-2.837 2.867 2.867 0 012.349-1.053 2.281 2.281 0 012.1 1.135h.027v-.971h1.121zm-1.121-2.6v-1.032a2 2 0 00-.563-1.429 1.858 1.858 0 00-1.405-.595 1.947 1.947 0 00-1.627.756 3.372 3.372 0 00-.588 2.115 2.892 2.892 0 00.564 1.869 1.821 1.821 0 001.494.7 1.949 1.949 0 001.534-.67 2.5 2.5 0 00.591-1.719zM249.334 564.319h-1.121v-4.033q0-2.188-1.627-2.187a1.774 1.774 0 00-1.381.633 2.358 2.358 0 00-.561 1.623v3.965h-1.121v-10.364h1.121v4.525h.027a2.545 2.545 0 012.3-1.326q2.366 0 2.365 2.851zM254.693 564.251a2.149 2.149 0 01-1.045.219q-1.84 0-1.84-2.051v-4.143h-1.2v-.957h1.2v-1.709l1.121-.362v2.071h1.764v.957h-1.763v3.944a1.631 1.631 0 00.24 1 .952.952 0 00.793.3 1.181 1.181 0 00.73-.232zM255.768 564.066v-1.2a3.315 3.315 0 002.016.677q1.477 0 1.477-.984a.851.851 0 00-.126-.475 1.249 1.249 0 00-.342-.346 2.64 2.64 0 00-.506-.27c-.194-.08-.4-.164-.626-.25a7.9 7.9 0 01-.816-.373 2.439 2.439 0 01-.588-.424 1.574 1.574 0 01-.355-.536 1.889 1.889 0 01-.119-.7 1.668 1.668 0 01.225-.871 2.011 2.011 0 01.6-.637 2.842 2.842 0 01.858-.386 3.8 3.8 0 011-.13 4.029 4.029 0 011.627.314v1.125a3.167 3.167 0 00-1.777-.506 2.047 2.047 0 00-.568.072 1.389 1.389 0 00-.434.2.92.92 0 00-.28.311.816.816 0 00-.1.4.957.957 0 00.1.458 1.007 1.007 0 00.29.328 2.231 2.231 0 00.465.26q.274.116.623.253a8.949 8.949 0 01.834.365 2.934 2.934 0 01.629.424 1.676 1.676 0 01.4.544 1.761 1.761 0 01.14.731 1.731 1.731 0 01-.229.9 1.958 1.958 0 01-.611.636 2.8 2.8 0 01-.883.376 4.344 4.344 0 01-1.045.123 3.965 3.965 0 01-1.879-.409z" fill="#5b5b5b"/>
    <path d="M223.434 350.827v-9.706l-10.989 9.546h-.245v-9.546l-10.989 9.546v-19.974c0-1.685-3.77-3.369-8.743-3.369s-9.064 1.6-9.064 3.369v36.578h40.107zM192.471 332.3c-3.61 0-6.5-.882-6.5-1.845s2.888-1.845 6.5-1.845 6.5.8 6.5 1.845c-.083.96-2.971 1.845-6.5 1.845zm18.929 28.474h-4.41v-4.412h4.41zm-7.781 0h-4.412v-4.412h4.412zm11.23 0v-4.412h4.412v4.412z" fill="#59b4d9"/>
    <path fill="#3999c6" d="M183.407 330.453h8.904v36.818h-8.904z"/>
    <path d="M201.134 330.453c0 1.765-4.011 3.209-8.9 3.209s-8.824-1.444-8.824-3.209 4.011-3.209 8.9-3.209 8.824 1.364 8.824 3.209" fill="#fff"/>
    <path d="M199.37 330.212c0 1.2-3.128 2.086-7.059 2.086s-7.059-.882-7.059-2.086 3.128-2.086 7.059-2.086 7.059.963 7.059 2.086" fill="#7fba00"/>
    <path d="M197.846 331.5c.963-.321 1.444-.8 1.444-1.283 0-1.2-3.128-2.086-7.059-2.086s-7.059.963-7.059 2.086c.08.481.642.963 1.524 1.283a17.029 17.029 0 015.615-.8 16.85 16.85 0 015.535.8" fill="#b8d432"/>
    <path fill="#969696" d="M197.129 88.027h1.5v57.266h-1.5z"/>
    <path fill="#969696" d="M203.114 143.761l-5.235 9.066-5.236-9.066h10.471zM197.129 254.229h1.5v49.73h-1.5z"/>
    <path fill="#969696" d="M203.115 302.427l-5.236 9.068-5.236-9.068h10.472zM203.115 255.761l-5.236-9.067-5.236 9.067h10.472zM197.129 407.694h1.5v57.266h-1.5z"/>
    <path fill="#969696" d="M203.114 463.428l-5.235 9.066-5.236-9.066h10.471z"/>
    <path d="M199.481 497.667l12.72-10.08v19.8zm-18.408 7.2v-14.4l7.2 7.32zm31-31.2l-18.99 19.08-12.2-9.48-4.755 2.52v24l4.74 2.4 12.09-9.36 19.127 18.841 12.044-4.8v-38.521z" fill="#682a7a"/>
    <path d="M345.869 228.679H344.6l-1.039-2.748H339.4l-.977 2.748h-1.279l3.76-9.8h1.196zm-2.686-3.78l-1.539-4.177a4.105 4.105 0 01-.15-.656h-.027a3.7 3.7 0 01-.156.656l-1.525 4.177zM352.043 222l-4.143 5.722h4.1v.957h-5.75v-.349l4.143-5.694h-3.752v-.957h5.4zM359.152 228.679h-1.121v-1.107H358a2.3 2.3 0 01-2.16 1.271q-2.5 0-2.5-2.98v-4.184h1.113v4.006q0 2.215 1.7 2.215a1.714 1.714 0 001.351-.605 2.314 2.314 0 00.53-1.582v-4.033h1.121zM365.064 222.813a1.37 1.37 0 00-.848-.226 1.43 1.43 0 00-1.2.677 3.129 3.129 0 00-.482 1.846v3.568h-1.121v-7h1.121v1.442h.027a2.447 2.447 0 01.732-1.151 1.663 1.663 0 011.1-.414 1.813 1.813 0 01.67.1zM371.723 225.459h-4.941a2.614 2.614 0 00.629 1.8 2.167 2.167 0 001.654.636 3.441 3.441 0 002.174-.779v1.053a4.061 4.061 0 01-2.441.67 2.959 2.959 0 01-2.33-.953 3.906 3.906 0 01-.848-2.684 3.826 3.826 0 01.926-2.662 2.969 2.969 0 012.3-1.029 2.631 2.631 0 012.125.889 3.7 3.7 0 01.752 2.468zm-1.148-.95a2.279 2.279 0 00-.468-1.511 1.6 1.6 0 00-1.282-.54 1.811 1.811 0 00-1.346.567 2.568 2.568 0 00-.684 1.483zM376.945 228.282v-1.354a2.633 2.633 0 00.558.369 4.59 4.59 0 00.684.277 5.578 5.578 0 00.722.174 4.018 4.018 0 00.67.062 2.618 2.618 0 001.582-.394 1.472 1.472 0 00.349-1.821 1.946 1.946 0 00-.481-.536 4.714 4.714 0 00-.729-.465q-.42-.223-.906-.469-.513-.261-.957-.526a4.164 4.164 0 01-.771-.588 2.45 2.45 0 01-.517-.728 2.475 2.475 0 01.106-2.119 2.51 2.51 0 01.771-.817 3.5 3.5 0 011.091-.479 5 5 0 011.247-.157 4.785 4.785 0 012.113.349v1.292a3.836 3.836 0 00-2.229-.6 3.7 3.7 0 00-.752.078 2.131 2.131 0 00-.67.257 1.471 1.471 0 00-.479.458 1.216 1.216 0 00-.186.684 1.406 1.406 0 00.141.649 1.59 1.59 0 00.414.5 4.057 4.057 0 00.666.438c.262.141.564.3.906.465s.684.355 1 .547a4.531 4.531 0 01.826.636 2.8 2.8 0 01.564.772 2.176 2.176 0 01.209.971 2.466 2.466 0 01-.284 1.227 2.327 2.327 0 01-.766.817 3.323 3.323 0 01-1.11.454 6.068 6.068 0 01-1.326.141 5.554 5.554 0 01-.574-.037 8.284 8.284 0 01-.7-.109 5.943 5.943 0 01-.674-.178 2.155 2.155 0 01-.508-.24zM388.793 228.843a4.33 4.33 0 01-3.344-1.374 5.105 5.105 0 01-1.25-3.575 5.385 5.385 0 011.277-3.773 4.479 4.479 0 013.48-1.408 4.208 4.208 0 013.268 1.367 5.109 5.109 0 011.244 3.575 5.417 5.417 0 01-1.271 3.794 3.868 3.868 0 01-.643.574l2.755 1.977h-2.084l-1.846-1.381a5.315 5.315 0 01-1.586.224zm.082-9.092a3.161 3.161 0 00-2.51 1.114 4.313 4.313 0 00-.963 2.926 4.384 4.384 0 00.936 2.919 3.079 3.079 0 002.455 1.1 3.218 3.218 0 002.543-1.053 4.307 4.307 0 00.93-2.946 4.48 4.48 0 00-.9-3 3.1 3.1 0 00-2.491-1.06zM400.482 228.679H395.4v-9.8h1.148v8.764h3.938z" fill="#5b5b5b"/>
    <path d="M348.973 157.1v36.111c0 3.749 8.392 6.789 18.743 6.789v-42.9z" fill="#0072c6"/>
    <path d="M367.459 200h.257c10.351 0 18.743-3.038 18.743-6.788V157.1h-19z" fill="#0072c6"/>
    <path d="M367.459 200h.257c10.351 0 18.743-3.038 18.743-6.788V157.1h-19z" fill="#fff" opacity=".15"/>
    <path d="M386.459 157.1c0 3.749-8.392 6.788-18.743 6.788s-18.743-3.039-18.743-6.788 8.392-6.788 18.743-6.788 18.743 3.039 18.743 6.788" fill="#fff"/>
    <path d="M382.627 156.713c0 2.475-6.676 4.479-14.911 4.479s-14.912-2-14.912-4.479 6.677-4.479 14.912-4.479 14.911 2.005 14.911 4.479" fill="#7fba00"/>
    <path d="M379.5 159.45c1.952-.757 3.125-1.7 3.125-2.735 0-2.475-6.676-4.48-14.912-4.48s-14.911 2.005-14.911 4.48c0 1.03 1.173 1.978 3.125 2.735a40.768 40.768 0 0123.573 0" fill="#b8d432"/>
    <path d="M361.763 182.17a3.079 3.079 0 01-1.221 2.607 5.475 5.475 0 01-3.373.924 6.416 6.416 0 01-3.061-.66V182.4a4.723 4.723 0 003.126 1.205 2.127 2.127 0 001.275-.33 1.032 1.032 0 00.45-.875 1.224 1.224 0 00-.433-.932 7.956 7.956 0 00-1.761-1.023q-2.706-1.269-2.706-3.464a3.127 3.127 0 011.18-2.553 4.813 4.813 0 013.134-.961 7.83 7.83 0 012.871.454v2.466a4.679 4.679 0 00-2.722-.825 2.015 2.015 0 00-1.212.325 1.026 1.026 0 00-.445.87 1.243 1.243 0 00.359.92 5.8 5.8 0 001.472.887 7.293 7.293 0 012.364 1.592 2.965 2.965 0 01.703 2.014zM374.49 179.5a6.748 6.748 0 01-.949 3.621 5.064 5.064 0 01-2.672 2.153l3.431 3.176h-3.464l-2.45-2.747a5.744 5.744 0 01-2.842-.833 5.221 5.221 0 01-1.955-2.124 6.518 6.518 0 01-.689-3.007 7.028 7.028 0 01.746-3.279 5.3 5.3 0 012.1-2.215 6.133 6.133 0 013.1-.775 5.706 5.706 0 012.924.751 5.122 5.122 0 012 2.136 6.752 6.752 0 01.72 3.143zm-2.8.149a4.628 4.628 0 00-.784-2.842 2.537 2.537 0 00-2.145-1.044 2.693 2.693 0 00-2.219 1.047 5.091 5.091 0 00-.017 5.555 2.625 2.625 0 002.169 1.035 2.66 2.66 0 002.186-1 4.251 4.251 0 00.806-2.753zM383.489 185.495h-7.044v-11.828h2.664v9.667h4.38v2.161z" fill="#fff"/>
    <path d="M481.717 62.7v3.705h-1.148V56.6h2.693a3.553 3.553 0 012.438.766 2.734 2.734 0 01.865 2.16 2.971 2.971 0 01-.961 2.283 3.672 3.672 0 01-2.594.889zm0-5.059v4.02h1.2a2.691 2.691 0 001.815-.544 1.924 1.924 0 00.626-1.534q0-1.942-2.3-1.941zM490.666 66.569a3.249 3.249 0 01-2.479-.981 3.632 3.632 0 01-.926-2.6 3.788 3.788 0 01.963-2.756 3.469 3.469 0 012.605-.99 3.139 3.139 0 012.443.963 3.822 3.822 0 01.879 2.674 3.763 3.763 0 01-.947 2.683 3.314 3.314 0 01-2.538 1.007zm.082-6.385a2.13 2.13 0 00-1.709.734 3.017 3.017 0 00-.629 2.027 2.852 2.852 0 00.635 1.961 2.163 2.163 0 001.7.719 2.048 2.048 0 001.671-.705 3.053 3.053 0 00.585-2 3.107 3.107 0 00-.585-2.023 2.038 2.038 0 00-1.668-.713zM504.762 59.405l-2.1 7H501.5l-1.441-5.012a3.213 3.213 0 01-.109-.648h-.027a3.071 3.071 0 01-.145.635l-1.564 5.025h-1.121l-2.119-7h1.176l1.449 5.264a3.241 3.241 0 01.1.629h.055a2.931 2.931 0 01.123-.643l1.613-5.25h1.025l1.449 5.277a3.8 3.8 0 01.1.629h.055a2.954 2.954 0 01.117-.629l1.422-5.277zM511.617 63.184h-4.941a2.614 2.614 0 00.629 1.8 2.167 2.167 0 001.654.637 3.441 3.441 0 002.174-.779V65.9a4.068 4.068 0 01-2.441.67 2.957 2.957 0 01-2.33-.954 3.9 3.9 0 01-.848-2.683 3.83 3.83 0 01.926-2.663 2.968 2.968 0 012.3-1.028 2.628 2.628 0 012.125.889 3.7 3.7 0 01.752 2.467zm-1.148-.949a2.28 2.28 0 00-.469-1.511 1.6 1.6 0 00-1.282-.539 1.81 1.81 0 00-1.346.566 2.574 2.574 0 00-.684 1.484zM516.963 60.54a1.369 1.369 0 00-.848-.227 1.431 1.431 0 00-1.2.678 3.129 3.129 0 00-.482 1.846v3.568h-1.121v-7h1.121v1.441h.027a2.452 2.452 0 01.732-1.151 1.662 1.662 0 011.1-.413 1.813 1.813 0 01.67.1zM522.166 66.405V56.6h2.789a3.048 3.048 0 012.016.621 2.012 2.012 0 01.746 1.621 2.385 2.385 0 01-.451 1.449 2.438 2.438 0 01-1.244.875v.034a2.492 2.492 0 011.586.748 2.3 2.3 0 01.594 1.645 2.564 2.564 0 01-.9 2.037 3.356 3.356 0 01-2.275.779zm1.148-8.764v3.164h1.176a2.225 2.225 0 001.482-.454 1.584 1.584 0 00.541-1.282q0-1.428-1.881-1.428zm0 4.2v3.527h1.559a2.338 2.338 0 001.568-.479 1.641 1.641 0 00.559-1.314q0-1.737-2.365-1.736zM531.34 66.405h-1.148V56.6h1.148zM537.752 66.405V56.6h2.707q5.181 0 5.182 4.777a4.818 4.818 0 01-1.439 3.647 5.334 5.334 0 01-3.852 1.378zm1.148-8.764v7.725h1.463a4.147 4.147 0 003-1.033 3.867 3.867 0 001.074-2.926q0-3.766-4.006-3.766zM552.428 66.405h-1.121v-1.094h-.027a2.347 2.347 0 01-2.152 1.258 2.3 2.3 0 01-1.638-.555 1.915 1.915 0 01-.591-1.469q0-1.963 2.311-2.283l2.1-.295q0-1.784-1.441-1.783a3.444 3.444 0 00-2.283.861V59.9a4.335 4.335 0 012.379-.656q2.467 0 2.467 2.611zm-1.121-3.541l-1.687.232a2.73 2.73 0 00-1.176.386 1.114 1.114 0 00-.4.981 1.065 1.065 0 00.365.837 1.417 1.417 0 00.975.325 1.8 1.8 0 001.377-.585 2.087 2.087 0 00.543-1.479zM554.117 66.151v-1.2a3.316 3.316 0 002.016.678q1.477 0 1.477-.984a.857.857 0 00-.126-.476 1.259 1.259 0 00-.342-.345 2.588 2.588 0 00-.506-.271c-.194-.079-.4-.163-.626-.249a8.112 8.112 0 01-.816-.373 2.465 2.465 0 01-.588-.424 1.577 1.577 0 01-.355-.537 1.887 1.887 0 01-.119-.7 1.674 1.674 0 01.225-.872 2.008 2.008 0 01.6-.636 2.82 2.82 0 01.858-.387 3.836 3.836 0 011-.129 4.013 4.013 0 011.627.314v1.13a3.167 3.167 0 00-1.777-.506 2.086 2.086 0 00-.568.071 1.39 1.39 0 00-.434.2.911.911 0 00-.28.311.816.816 0 00-.1.4.953.953 0 00.1.457 1.007 1.007 0 00.29.328 2.231 2.231 0 00.465.26c.183.078.391.162.623.254a8.7 8.7 0 01.834.365 2.864 2.864 0 01.629.424 1.662 1.662 0 01.4.543 1.766 1.766 0 01.14.732 1.731 1.731 0 01-.229.9 1.955 1.955 0 01-.611.635 2.8 2.8 0 01-.883.377 4.344 4.344 0 01-1.045.123 3.965 3.965 0 01-1.879-.413zM566.291 66.405h-1.121v-4.033q0-2.188-1.627-2.187a1.776 1.776 0 00-1.381.632 2.359 2.359 0 00-.561 1.624v3.965h-1.121V56.042h1.12v4.525h.027a2.545 2.545 0 012.3-1.326q2.366 0 2.365 2.85zM569.553 65.393h-.027v1.012H568.4V56.042h1.121v4.594h.027a2.65 2.65 0 012.42-1.395 2.565 2.565 0 012.108.939 3.885 3.885 0 01.763 2.52 4.335 4.335 0 01-.855 2.812 2.845 2.845 0 01-2.338 1.057 2.3 2.3 0 01-2.093-1.176zm-.027-2.824v.979a2.081 2.081 0 00.563 1.473 2.011 2.011 0 003.028-.174 3.579 3.579 0 00.578-2.168 2.821 2.821 0 00-.541-1.832 1.787 1.787 0 00-1.463-.662 1.987 1.987 0 00-1.572.68 2.5 2.5 0 00-.594 1.704zM579.561 66.569a3.249 3.249 0 01-2.479-.981 3.632 3.632 0 01-.926-2.6 3.788 3.788 0 01.963-2.756 3.469 3.469 0 012.605-.99 3.139 3.139 0 012.443.963 3.822 3.822 0 01.879 2.674 3.763 3.763 0 01-.947 2.683 3.314 3.314 0 01-2.538 1.007zm.082-6.385a2.13 2.13 0 00-1.709.734 3.017 3.017 0 00-.629 2.027 2.852 2.852 0 00.635 1.961 2.163 2.163 0 001.7.719 2.048 2.048 0 001.671-.705 3.053 3.053 0 00.585-2 3.107 3.107 0 00-.585-2.023 2.038 2.038 0 00-1.668-.713zM589.664 66.405h-1.121v-1.094h-.027a2.35 2.35 0 01-2.154 1.258 2.3 2.3 0 01-1.637-.555 1.916 1.916 0 01-.592-1.469q0-1.963 2.311-2.283l2.1-.295q0-1.784-1.443-1.783a3.448 3.448 0 00-2.283.861V59.9a4.34 4.34 0 012.379-.656q2.468 0 2.469 2.611zm-1.121-3.541l-1.689.232a2.735 2.735 0 00-1.176.386 1.116 1.116 0 00-.4.981 1.066 1.066 0 00.366.837 1.415 1.415 0 00.974.325 1.8 1.8 0 001.382-.584 2.088 2.088 0 00.544-1.479zM595.426 60.54a1.369 1.369 0 00-.848-.227 1.431 1.431 0 00-1.2.678 3.129 3.129 0 00-.482 1.846v3.568h-1.121v-7h1.125v1.441h.027a2.452 2.452 0 01.732-1.151 1.662 1.662 0 011.1-.413 1.813 1.813 0 01.67.1zM602.434 66.405h-1.121v-1.189h-.027a2.589 2.589 0 01-2.406 1.354 2.617 2.617 0 01-2.109-.94 3.853 3.853 0 01-.789-2.56 4.193 4.193 0 01.875-2.783 2.883 2.883 0 012.33-1.045 2.245 2.245 0 012.1 1.135h.027v-4.335h1.121zm-1.121-3.166v-1.031a2 2 0 00-.561-1.436 1.878 1.878 0 00-1.422-.588 1.934 1.934 0 00-1.613.752 3.289 3.289 0 00-.588 2.078 2.961 2.961 0 00.563 1.91 1.845 1.845 0 001.515.7 1.915 1.915 0 001.521-.678 2.521 2.521 0 00.585-1.707z" fill="#5b5b5b"/>
    <path d="M562 35.519h-1.09v-2.18H562a4.2 4.2 0 004.195-4.195V6.877A4.2 4.2 0 00562 2.681h-41.3a4.2 4.2 0 00-4.195 4.2v22.265a4.2 4.2 0 004.195 4.195h1.09v2.18h-1.09a6.382 6.382 0 01-6.374-6.375V6.877A6.382 6.382 0 01520.7.5H562a6.382 6.382 0 016.375 6.375v22.271A6.382 6.382 0 01562 35.521"/>
    <path d="M527.4 28.221a2.958 2.958 0 012.958 2.958V38a2.958 2.958 0 01-2.958 2.958A2.958 2.958 0 01524.436 38v-6.821a2.958 2.958 0 012.958-2.958zM536.7 40.959A2.959 2.959 0 01533.741 38V20.491a2.959 2.959 0 015.917 0V38a2.959 2.959 0 01-2.958 2.959M555.307 40.872a2.959 2.959 0 01-2.959-2.958v-24.8a2.959 2.959 0 115.917 0v24.8a2.959 2.959 0 01-2.958 2.959M546 40.959A2.959 2.959 0 01543.044 38V24.993a2.959 2.959 0 015.917 0V38A2.959 2.959 0 01546 40.959"/>
    <path d="M383.676 357.023l-11.209-19.414v-7.86h.2a2.427 2.427 0 100-4.855h-12.226a2.428 2.428 0 000 4.856h.2v7.859l-11.209 19.414c-1.23 2.129-.224 3.871 2.235 3.871h29.773c2.46 0 3.465-1.742 2.236-3.871z" fill="#59b4d9"/>
    <path fill="#b8d432" d="M358.666 348.667l-4.625 8.01h25.028l-4.624-8.01h-15.779z"/>
    <path d="M367.15 351.917a2.257 2.257 0 002.031-3.251h-4.063a2.257 2.257 0 002.032 3.251z" fill="#7fba00"/>
    <circle cx="369.956" cy="353.663" fill="#7fba00" r="1.11"/>
    <path d="M349.434 357.023l11.209-19.415v-7.859h-.2a2.427 2.427 0 110-4.855h5.27v12.652l-5.913 23.348h-8.134c-2.456 0-3.466-1.742-2.232-3.871z" fill="#fff" opacity=".25"/>
    <path d="M325.087 387.315h-1.142v-6.576q0-.779.1-1.906h-.027a6.065 6.065 0 01-.294.949l-3.35 7.533h-.561l-3.343-7.479a5.873 5.873 0 01-.294-1h-.027q.054.587.055 1.92v6.563h-1.107v-9.8h1.518l3.008 6.836a8.77 8.77 0 01.451 1.176h.041c.2-.537.353-.938.472-1.2l3.069-6.809h1.436zM332.524 387.315H331.4v-1.094h-.027a2.347 2.347 0 01-2.153 1.258 2.3 2.3 0 01-1.637-.553 1.919 1.919 0 01-.592-1.471q0-1.961 2.311-2.283l2.1-.293q0-1.784-1.442-1.785a3.444 3.444 0 00-2.283.861v-1.148a4.335 4.335 0 012.379-.656q2.467 0 2.468 2.611zm-1.121-3.541l-1.688.232a2.742 2.742 0 00-1.176.387 1.113 1.113 0 00-.4.98 1.072 1.072 0 00.365.838 1.412 1.412 0 00.975.324 1.8 1.8 0 001.377-.584 2.084 2.084 0 00.544-1.48zM339.408 387a3.646 3.646 0 01-1.914.484 3.167 3.167 0 01-2.416-.974 3.529 3.529 0 01-.92-2.526 3.88 3.88 0 01.991-2.778 3.465 3.465 0 012.646-1.05 3.688 3.688 0 011.627.342v1.148a2.854 2.854 0 00-1.668-.547 2.252 2.252 0 00-1.76.77 2.913 2.913 0 00-.687 2.02 2.774 2.774 0 00.646 1.941 2.222 2.222 0 001.732.711 2.812 2.812 0 001.723-.607zM346.914 387.315h-1.121v-4.033q0-2.187-1.627-2.187a1.772 1.772 0 00-1.381.633 2.355 2.355 0 00-.561 1.623v3.965H341.1v-10.364h1.121v4.525h.027a2.545 2.545 0 012.3-1.326q2.364 0 2.365 2.852zM349.6 378.538a.71.71 0 01-.513-.205.69.69 0 01-.212-.52.717.717 0 01.725-.73.718.718 0 01.522.208.73.73 0 010 1.036.717.717 0 01-.522.211zm.547 8.777h-1.121v-7h1.121zM358.228 387.315h-1.121v-3.992q0-2.228-1.627-2.229a1.766 1.766 0 00-1.392.633 2.346 2.346 0 00-.55 1.6v3.992h-1.121v-7h1.121v1.162h.027a2.526 2.526 0 012.3-1.326 2.144 2.144 0 011.757.742 3.3 3.3 0 01.608 2.143zM365.966 384.1h-4.942a2.614 2.614 0 00.629 1.8 2.166 2.166 0 001.654.635 3.441 3.441 0 002.174-.779v1.053a4.058 4.058 0 01-2.44.67 2.957 2.957 0 01-2.331-.953 3.9 3.9 0 01-.848-2.684 3.828 3.828 0 01.926-2.662 2.973 2.973 0 012.3-1.029 2.633 2.633 0 012.126.889 3.71 3.71 0 01.752 2.469zm-1.148-.951a2.285 2.285 0 00-.468-1.51 1.6 1.6 0 00-1.282-.541 1.81 1.81 0 00-1.347.568 2.568 2.568 0 00-.684 1.482zM376.732 387.315h-5.086v-9.8h1.148v8.764h3.938zM383.712 384.1h-4.942a2.614 2.614 0 00.629 1.8 2.166 2.166 0 001.654.635 3.441 3.441 0 002.174-.779v1.053a4.058 4.058 0 01-2.44.67 2.957 2.957 0 01-2.331-.953 3.9 3.9 0 01-.848-2.684 3.828 3.828 0 01.926-2.662 2.973 2.973 0 012.3-1.029 2.633 2.633 0 012.126.889 3.71 3.71 0 01.752 2.469zm-1.148-.951a2.285 2.285 0 00-.468-1.51 1.6 1.6 0 00-1.282-.541 1.81 1.81 0 00-1.347.568 2.568 2.568 0 00-.684 1.482zM390.418 387.315H389.3v-1.094h-.027a2.347 2.347 0 01-2.153 1.258 2.3 2.3 0 01-1.638-.553 1.922 1.922 0 01-.591-1.471q0-1.961 2.311-2.283l2.1-.293q0-1.784-1.442-1.785a3.446 3.446 0 00-2.283.861v-1.148a4.34 4.34 0 012.379-.656q2.468 0 2.468 2.611zm-1.121-3.541l-1.688.232a2.747 2.747 0 00-1.176.387 1.113 1.113 0 00-.4.98 1.069 1.069 0 00.366.838 1.41 1.41 0 00.974.324 1.8 1.8 0 001.378-.584 2.092 2.092 0 00.543-1.48zM396.181 381.45a1.372 1.372 0 00-.848-.225 1.432 1.432 0 00-1.2.676 3.136 3.136 0 00-.481 1.846v3.568h-1.122v-7h1.121v1.443h.027a2.442 2.442 0 01.731-1.152 1.671 1.671 0 011.1-.414 1.837 1.837 0 01.67.1zM403.181 387.315h-1.121v-3.992q0-2.228-1.627-2.229a1.766 1.766 0 00-1.392.633 2.346 2.346 0 00-.55 1.6v3.992h-1.121v-7h1.121v1.162h.027a2.526 2.526 0 012.3-1.326 2.144 2.144 0 011.757.742 3.3 3.3 0 01.608 2.143zM405.867 378.538a.71.71 0 01-.513-.205.69.69 0 01-.212-.52.717.717 0 01.725-.73.724.724 0 01.523.208.732.732 0 010 1.036.722.722 0 01-.523.211zm.547 8.777h-1.121v-7h1.121zM414.494 387.315h-1.121v-3.992q0-2.228-1.627-2.229a1.762 1.762 0 00-1.391.633 2.342 2.342 0 00-.551 1.6v3.992h-1.121v-7h1.117v1.162h.027a2.526 2.526 0 012.3-1.326 2.142 2.142 0 011.757.742 3.3 3.3 0 01.608 2.143zM422.581 386.755q0 3.855-3.691 3.855a4.956 4.956 0 01-2.27-.492V389a4.659 4.659 0 002.256.656q2.584 0 2.584-2.748v-.766h-.027a2.833 2.833 0 01-4.509.407 3.732 3.732 0 01-.8-2.5 4.36 4.36 0 01.858-2.838 2.865 2.865 0 012.348-1.053 2.283 2.283 0 012.1 1.135h.027v-.971h1.121zm-1.121-2.6v-1.033a2 2 0 00-.563-1.428 1.86 1.86 0 00-1.405-.6 1.946 1.946 0 00-1.627.756 3.374 3.374 0 00-.588 2.115 2.9 2.9 0 00.563 1.87 1.822 1.822 0 001.494.7 1.951 1.951 0 001.535-.67 2.5 2.5 0 00.591-1.714zM514.123 385.315v-9.8h2.789a3.048 3.048 0 012.017.623 2.007 2.007 0 01.745 1.619 2.383 2.383 0 01-.451 1.449 2.432 2.432 0 01-1.244.875v.027a2.5 2.5 0 011.586.749 2.3 2.3 0 01.595 1.644 2.562 2.562 0 01-.9 2.037 3.358 3.358 0 01-2.276.779zm1.148-8.764v3.166h1.176a2.235 2.235 0 001.483-.455 1.581 1.581 0 00.54-1.281q0-1.43-1.88-1.43zm0 4.2v3.527h1.559a2.333 2.333 0 001.568-.479 1.636 1.636 0 00.558-1.312q0-1.736-2.365-1.736zM527.658 385.315h-1.121v-1.107h-.027a2.3 2.3 0 01-2.16 1.271q-2.5 0-2.5-2.98v-4.184h1.114v4.006q0 2.215 1.7 2.215a1.716 1.716 0 001.351-.6 2.318 2.318 0 00.529-1.583v-4.033h1.121zM529.5 385.063v-1.2a3.315 3.315 0 002.017.676q1.477 0 1.477-.984a.848.848 0 00-.127-.475 1.248 1.248 0 00-.342-.346 2.636 2.636 0 00-.506-.27c-.193-.08-.4-.163-.625-.25a7.814 7.814 0 01-.816-.372 2.453 2.453 0 01-.588-.424 1.555 1.555 0 01-.355-.536 1.9 1.9 0 01-.12-.705 1.671 1.671 0 01.226-.871 2 2 0 01.6-.636 2.79 2.79 0 01.857-.386 3.8 3.8 0 011-.131 4.026 4.026 0 011.627.314v1.133a3.173 3.173 0 00-1.777-.506 2.072 2.072 0 00-.567.072 1.39 1.39 0 00-.434.2.946.946 0 00-.281.312.823.823 0 00-.1.4.97.97 0 00.1.459 1.01 1.01 0 00.291.328 2.225 2.225 0 00.465.26c.182.077.39.161.622.252a8.69 8.69 0 01.834.366 2.875 2.875 0 01.629.424 1.652 1.652 0 01.4.544 1.744 1.744 0 01.141.73 1.726 1.726 0 01-.229.9 1.974 1.974 0 01-.612.637 2.819 2.819 0 01-.882.375 4.358 4.358 0 01-1.046.123 3.979 3.979 0 01-1.879-.413zM545.644 376.552h-2.83v8.764h-1.148v-8.764h-2.823v-1.039h6.8zM548.515 385.479a3.244 3.244 0 01-2.478-.98 3.633 3.633 0 01-.927-2.6 3.782 3.782 0 01.964-2.754 3.465 3.465 0 012.6-.992 3.141 3.141 0 012.444.965 3.823 3.823 0 01.878 2.672 3.761 3.761 0 01-.946 2.684 3.321 3.321 0 01-2.535 1.005zm.082-6.385a2.135 2.135 0 00-1.709.735 3.017 3.017 0 00-.629 2.026 2.856 2.856 0 00.636 1.963 2.16 2.16 0 001.7.717 2.048 2.048 0 001.671-.7 3.053 3.053 0 00.585-2 3.1 3.1 0 00-.585-2.023 2.039 2.039 0 00-1.666-.717zM554.94 384.3h-.027v4.232h-1.121v-10.217h1.121v1.23h.027a2.652 2.652 0 012.42-1.395 2.566 2.566 0 012.112.94 3.89 3.89 0 01.759 2.519 4.341 4.341 0 01-.854 2.813 2.846 2.846 0 01-2.338 1.056 2.341 2.341 0 01-2.099-1.178zm-.027-2.822v.977a2.086 2.086 0 00.563 1.474 2.014 2.014 0 003.029-.175 3.575 3.575 0 00.577-2.166 2.825 2.825 0 00-.54-1.832 1.787 1.787 0 00-1.463-.664 1.984 1.984 0 00-1.572.681 2.5 2.5 0 00-.594 1.708zM562.6 376.538a.71.71 0 01-.513-.205.69.69 0 01-.212-.52.717.717 0 01.725-.73.718.718 0 01.522.208.73.73 0 010 1.036.717.717 0 01-.522.211zm.547 8.777h-1.121v-7h1.121zM570.185 385a3.646 3.646 0 01-1.914.484 3.17 3.17 0 01-2.417-.974 3.533 3.533 0 01-.919-2.526 3.88 3.88 0 01.991-2.778 3.465 3.465 0 012.646-1.05 3.688 3.688 0 011.627.342v1.148a2.852 2.852 0 00-1.668-.547 2.256 2.256 0 00-1.761.77 2.921 2.921 0 00-.687 2.02 2.782 2.782 0 00.646 1.941 2.227 2.227 0 001.733.711 2.812 2.812 0 001.723-.607zM571.456 385.063v-1.2a3.315 3.315 0 002.017.676q1.477 0 1.477-.984a.848.848 0 00-.127-.475 1.248 1.248 0 00-.342-.346 2.636 2.636 0 00-.506-.27c-.193-.08-.4-.163-.625-.25a7.814 7.814 0 01-.816-.372 2.453 2.453 0 01-.588-.424 1.555 1.555 0 01-.355-.536 1.9 1.9 0 01-.12-.705 1.671 1.671 0 01.226-.871 2 2 0 01.6-.636 2.79 2.79 0 01.857-.386 3.8 3.8 0 011-.131 4.026 4.026 0 011.627.314v1.133a3.173 3.173 0 00-1.777-.506 2.072 2.072 0 00-.567.072 1.39 1.39 0 00-.434.2.946.946 0 00-.281.312.823.823 0 00-.1.4.97.97 0 00.1.459 1.01 1.01 0 00.291.328 2.225 2.225 0 00.465.26c.182.077.39.161.622.252a8.69 8.69 0 01.834.366 2.875 2.875 0 01.629.424 1.652 1.652 0 01.4.544 1.744 1.744 0 01.141.73 1.726 1.726 0 01-.229.9 1.974 1.974 0 01-.612.637 2.819 2.819 0 01-.882.375 4.358 4.358 0 01-1.046.123 3.979 3.979 0 01-1.879-.413zM667.861 329.219h-2.83v8.764h-1.148v-8.764h-2.823v-1.039h6.8zM671.683 332.117a1.372 1.372 0 00-.848-.226 1.433 1.433 0 00-1.2.677 3.136 3.136 0 00-.481 1.846v3.568h-1.121v-7h1.121v1.442h.027a2.447 2.447 0 01.731-1.152 1.67 1.67 0 011.1-.413 1.837 1.837 0 01.67.1zM677.91 337.982h-1.121v-1.094h-.027a2.347 2.347 0 01-2.153 1.258 2.3 2.3 0 01-1.638-.554 1.921 1.921 0 01-.591-1.47q0-1.961 2.311-2.283l2.1-.294q0-1.784-1.442-1.784a3.446 3.446 0 00-2.283.861v-1.148a4.34 4.34 0 012.379-.656q2.468 0 2.468 2.611zm-1.121-3.541l-1.688.232a2.761 2.761 0 00-1.176.386 1.115 1.115 0 00-.4.981 1.066 1.066 0 00.366.837 1.41 1.41 0 00.974.325 1.8 1.8 0 001.378-.585 2.09 2.09 0 00.543-1.479zM684.794 337.661a3.637 3.637 0 01-1.914.485 3.174 3.174 0 01-2.417-.974 3.536 3.536 0 01-.919-2.526 3.877 3.877 0 01.991-2.778 3.465 3.465 0 012.646-1.05 3.688 3.688 0 011.627.342v1.148a2.852 2.852 0 00-1.668-.547 2.259 2.259 0 00-1.761.769 2.926 2.926 0 00-.687 2.021 2.782 2.782 0 00.646 1.941 2.23 2.23 0 001.733.711 2.807 2.807 0 001.723-.608zM692.3 337.982h-1.572l-3.09-3.363h-.027v3.363h-1.121v-10.363h1.121v6.569h.027l2.939-3.206h1.47l-3.247 3.377zM694.022 329.2a.71.71 0 01-.513-.205.69.69 0 01-.212-.52.719.719 0 01.725-.731.719.719 0 01.522.209.728.728 0 010 1.035.718.718 0 01-.522.212zm.547 8.777h-1.121v-7h1.121zM702.649 337.982h-1.121v-3.992q0-2.228-1.627-2.229a1.768 1.768 0 00-1.392.632 2.348 2.348 0 00-.55 1.6v3.992h-1.121v-7h1.121v1.162h.027a2.526 2.526 0 012.3-1.326 2.143 2.143 0 011.757.741 3.308 3.308 0 01.608 2.144zM710.736 337.422q0 3.855-3.691 3.855a4.953 4.953 0 01-2.27-.492v-1.121a4.659 4.659 0 002.256.656q2.584 0 2.584-2.748v-.766h-.027a2.832 2.832 0 01-4.508.407 3.73 3.73 0 01-.8-2.506 4.362 4.362 0 01.857-2.837 2.867 2.867 0 012.349-1.053 2.281 2.281 0 012.1 1.135h.027v-.971h1.121zm-1.121-2.6v-1.032a2 2 0 00-.564-1.429 1.854 1.854 0 00-1.4-.595 1.947 1.947 0 00-1.627.755 3.369 3.369 0 00-.588 2.116A2.892 2.892 0 00706 336.5a1.82 1.82 0 001.493.7 1.95 1.95 0 001.534-.67 2.5 2.5 0 00.588-1.713zM716.417 337.729v-1.2a3.316 3.316 0 002.017.677q1.477 0 1.477-.984a.854.854 0 00-.127-.476 1.258 1.258 0 00-.342-.345 2.584 2.584 0 00-.506-.271c-.193-.079-.4-.162-.625-.249a8.022 8.022 0 01-.816-.372 2.48 2.48 0 01-.588-.424 1.559 1.559 0 01-.355-.537 1.9 1.9 0 01-.12-.7 1.677 1.677 0 01.226-.872 1.994 1.994 0 01.6-.635 2.768 2.768 0 01.857-.387 3.842 3.842 0 011-.13 4.01 4.01 0 011.627.314v1.135a3.173 3.173 0 00-1.777-.506 2.112 2.112 0 00-.567.071 1.391 1.391 0 00-.434.2.936.936 0 00-.281.312.823.823 0 00-.1.4.966.966 0 00.1.458 1.01 1.01 0 00.291.328 2.225 2.225 0 00.465.26c.182.078.39.162.622.253a8.453 8.453 0 01.834.366 2.808 2.808 0 01.629.424 1.638 1.638 0 01.4.543 1.749 1.749 0 01.141.731 1.726 1.726 0 01-.229.9 1.971 1.971 0 01-.612.636 2.821 2.821 0 01-.882.376 4.358 4.358 0 01-1.046.123 3.979 3.979 0 01-1.879-.419zM728.353 330.982l-3.22 8.121q-.861 2.174-2.42 2.174a2.589 2.589 0 01-.731-.089v-1a2.073 2.073 0 00.663.123 1.375 1.375 0 001.271-1.012l.561-1.326-2.734-6.986h1.244l1.894 5.387q.034.1.144.533h.041q.034-.164.137-.52l1.989-5.4zM729.132 337.729v-1.2a3.316 3.316 0 002.017.677q1.477 0 1.477-.984a.854.854 0 00-.127-.476 1.258 1.258 0 00-.342-.345 2.584 2.584 0 00-.506-.271c-.193-.079-.4-.162-.625-.249a8.022 8.022 0 01-.816-.372 2.48 2.48 0 01-.588-.424 1.559 1.559 0 01-.355-.537 1.9 1.9 0 01-.12-.7 1.677 1.677 0 01.226-.872 1.994 1.994 0 01.6-.635 2.768 2.768 0 01.857-.387 3.842 3.842 0 011-.13 4.01 4.01 0 011.627.314v1.135a3.173 3.173 0 00-1.777-.506 2.112 2.112 0 00-.567.071 1.391 1.391 0 00-.434.2.936.936 0 00-.281.312.823.823 0 00-.1.4.966.966 0 00.1.458 1.01 1.01 0 00.291.328 2.225 2.225 0 00.465.26c.182.078.39.162.622.253a8.453 8.453 0 01.834.366 2.808 2.808 0 01.629.424 1.638 1.638 0 01.4.543 1.749 1.749 0 01.141.731 1.726 1.726 0 01-.229.9 1.971 1.971 0 01-.612.636 2.821 2.821 0 01-.882.376 4.358 4.358 0 01-1.046.123 3.979 3.979 0 01-1.879-.419zM738.743 337.914a2.167 2.167 0 01-1.046.219q-1.84 0-1.839-2.051v-4.143h-1.2v-.957h1.2v-1.709l1.121-.362v2.071h1.764v.957h-1.764v3.944a1.631 1.631 0 00.239 1 .955.955 0 00.793.3 1.177 1.177 0 00.731-.232zM745.757 334.763h-4.942a2.614 2.614 0 00.629 1.8 2.167 2.167 0 001.654.636 3.441 3.441 0 002.174-.779v1.053a4.065 4.065 0 01-2.44.67 2.954 2.954 0 01-2.331-.954 3.9 3.9 0 01-.848-2.683 3.832 3.832 0 01.926-2.663 2.973 2.973 0 012.3-1.028 2.63 2.63 0 012.126.889 3.707 3.707 0 01.752 2.468zm-1.148-.95a2.286 2.286 0 00-.468-1.511 1.6 1.6 0 00-1.282-.54 1.809 1.809 0 00-1.347.567 2.574 2.574 0 00-.684 1.483zM757.392 337.982h-1.121v-4.02a3.043 3.043 0 00-.358-1.682 1.363 1.363 0 00-1.207-.52 1.5 1.5 0 00-1.221.656 2.517 2.517 0 00-.5 1.572v3.992h-1.121v-4.156q0-2.064-1.593-2.064a1.476 1.476 0 00-1.217.618 2.557 2.557 0 00-.479 1.61v3.992h-1.121v-7h1.121v1.107h.027a2.379 2.379 0 012.174-1.271 2.02 2.02 0 011.982 1.449 2.5 2.5 0 012.324-1.449q2.31 0 2.311 2.851zM760.536 336.424l-1.094 3.363h-.8l.8-3.363zM677.914 351.562h-4.943a2.623 2.623 0 00.629 1.8 2.17 2.17 0 001.654.636 3.437 3.437 0 002.174-.779v1.053a4.055 4.055 0 01-2.439.67 2.964 2.964 0 01-2.332-.953 3.911 3.911 0 01-.848-2.684 3.822 3.822 0 01.927-2.662 2.967 2.967 0 012.3-1.029 2.637 2.637 0 012.127.889 3.706 3.706 0 01.752 2.468zm-1.148-.95a2.285 2.285 0 00-.469-1.511 1.593 1.593 0 00-1.281-.54 1.813 1.813 0 00-1.348.567 2.574 2.574 0 00-.684 1.483zM689.549 354.782h-1.121v-4.02a3.029 3.029 0 00-.359-1.682 1.363 1.363 0 00-1.207-.52 1.493 1.493 0 00-1.22.656 2.51 2.51 0 00-.5 1.572v3.992h-1.121v-4.156q0-2.065-1.592-2.064a1.473 1.473 0 00-1.217.619 2.554 2.554 0 00-.479 1.609v3.992h-1.121v-7h1.121v1.107h.027a2.377 2.377 0 012.174-1.271 2.026 2.026 0 011.982 1.449 2.5 2.5 0 012.324-1.449q2.31 0 2.311 2.851zM696.678 354.782h-1.121v-1.094h-.027a2.347 2.347 0 01-2.152 1.258 2.3 2.3 0 01-1.638-.554 1.916 1.916 0 01-.591-1.47q0-1.963 2.311-2.283l2.1-.294q0-1.784-1.441-1.784a3.444 3.444 0 00-2.283.861v-1.148a4.335 4.335 0 012.379-.656q2.467 0 2.467 2.611zm-1.121-3.541l-1.687.232a2.716 2.716 0 00-1.176.387 1.112 1.112 0 00-.4.98 1.068 1.068 0 00.365.838 1.417 1.417 0 00.975.324 1.8 1.8 0 001.377-.584 2.09 2.09 0 00.543-1.48zM699.365 346a.712.712 0 01-.514-.205.7.7 0 01-.211-.52.716.716 0 01.725-.731.724.724 0 01.522.208.7.7 0 01.216.523.693.693 0 01-.216.513.715.715 0 01-.522.212zm.547 8.777h-1.121v-7h1.121zM703.3 354.782h-1.121v-10.363h1.121zM705.148 354.529v-1.2a3.315 3.315 0 002.016.677q1.477 0 1.477-.984a.851.851 0 00-.126-.475 1.249 1.249 0 00-.342-.346 2.64 2.64 0 00-.506-.27c-.194-.08-.4-.164-.626-.25a7.9 7.9 0 01-.816-.373 2.439 2.439 0 01-.588-.424 1.574 1.574 0 01-.355-.536 1.889 1.889 0 01-.119-.7 1.668 1.668 0 01.225-.871 2.011 2.011 0 01.6-.637 2.842 2.842 0 01.858-.386 3.8 3.8 0 011-.13 4.029 4.029 0 011.627.314v1.135a3.167 3.167 0 00-1.777-.506 2.047 2.047 0 00-.568.072 1.389 1.389 0 00-.434.2.92.92 0 00-.28.311.816.816 0 00-.1.4.957.957 0 00.1.458 1.007 1.007 0 00.29.328 2.231 2.231 0 00.465.26q.274.116.623.253a8.949 8.949 0 01.834.365 2.934 2.934 0 01.629.424 1.676 1.676 0 01.4.544 1.761 1.761 0 01.14.731 1.731 1.731 0 01-.229.9 1.958 1.958 0 01-.611.636 2.8 2.8 0 01-.883.376 4.344 4.344 0 01-1.045.123 3.965 3.965 0 01-1.879-.419zM712.537 353.224l-1.094 3.363h-.8l.8-3.363zM723.393 354.782h-1.121v-1.094h-.027a2.347 2.347 0 01-2.152 1.258 2.3 2.3 0 01-1.638-.554 1.916 1.916 0 01-.591-1.47q0-1.963 2.311-2.283l2.1-.294q0-1.784-1.441-1.784a3.444 3.444 0 00-2.283.861v-1.148a4.335 4.335 0 012.379-.656q2.467 0 2.467 2.611zm-1.121-3.541l-1.687.232a2.716 2.716 0 00-1.176.387 1.112 1.112 0 00-.4.98 1.068 1.068 0 00.365.838 1.417 1.417 0 00.975.324 1.8 1.8 0 001.377-.584 2.09 2.09 0 00.543-1.48zM726.627 354.782h-1.121v-10.363h1.121zM734.521 351.562h-4.941a2.614 2.614 0 00.629 1.8 2.167 2.167 0 001.654.636 3.441 3.441 0 002.174-.779v1.053a4.061 4.061 0 01-2.441.67 2.959 2.959 0 01-2.33-.953 3.906 3.906 0 01-.848-2.684 3.826 3.826 0 01.926-2.662 2.969 2.969 0 012.3-1.029 2.631 2.631 0 012.125.889 3.7 3.7 0 01.752 2.468zm-1.148-.95a2.279 2.279 0 00-.468-1.511 1.6 1.6 0 00-1.282-.54 1.811 1.811 0 00-1.346.567 2.568 2.568 0 00-.684 1.483zM739.867 348.917a1.37 1.37 0 00-.848-.226 1.43 1.43 0 00-1.2.677 3.129 3.129 0 00-.482 1.846v3.568h-1.121v-7h1.121v1.442h.027a2.447 2.447 0 01.732-1.151 1.663 1.663 0 011.1-.414 1.813 1.813 0 01.67.1zM744.734 354.714a2.149 2.149 0 01-1.045.219q-1.84 0-1.84-2.051v-4.143h-1.2v-.957h1.2v-1.709l1.121-.362v2.071h1.764v.957h-1.764v3.944a1.631 1.631 0 00.24 1 .952.952 0 00.793.3 1.181 1.181 0 00.73-.232zM745.809 354.529v-1.2a3.315 3.315 0 002.016.677q1.477 0 1.477-.984a.851.851 0 00-.126-.475 1.249 1.249 0 00-.342-.346 2.64 2.64 0 00-.506-.27c-.194-.08-.4-.164-.626-.25a7.9 7.9 0 01-.816-.373 2.439 2.439 0 01-.588-.424 1.574 1.574 0 01-.355-.536 1.889 1.889 0 01-.119-.7 1.668 1.668 0 01.225-.871 2.011 2.011 0 01.6-.637 2.842 2.842 0 01.858-.386 3.8 3.8 0 011-.13 4.029 4.029 0 011.627.314v1.135a3.167 3.167 0 00-1.777-.506 2.047 2.047 0 00-.568.072 1.389 1.389 0 00-.434.2.92.92 0 00-.28.311.816.816 0 00-.1.4.957.957 0 00.1.458 1.007 1.007 0 00.29.328 2.231 2.231 0 00.465.26q.274.116.623.253a8.949 8.949 0 01.834.365 2.934 2.934 0 01.629.424 1.676 1.676 0 01.4.544 1.761 1.761 0 01.14.731 1.731 1.731 0 01-.229.9 1.958 1.958 0 01-.611.636 2.8 2.8 0 01-.883.376 4.344 4.344 0 01-1.045.123 3.965 3.965 0 01-1.879-.419zM347.134 490.219H344.3v8.764h-1.148v-8.764h-2.823v-1.039h6.8zM352.705 495.763h-4.942a2.618 2.618 0 00.629 1.8 2.168 2.168 0 001.654.636 3.441 3.441 0 002.174-.779v1.053a4.065 4.065 0 01-2.44.67 2.956 2.956 0 01-2.331-.954 3.9 3.9 0 01-.848-2.683 3.828 3.828 0 01.927-2.663 2.969 2.969 0 012.3-1.028 2.632 2.632 0 012.126.889 3.707 3.707 0 01.752 2.468zm-1.148-.95a2.276 2.276 0 00-.469-1.511 1.6 1.6 0 00-1.281-.54 1.808 1.808 0 00-1.347.567 2.58 2.58 0 00-.684 1.483zM355.521 498.982H354.4v-10.363h1.121zM363.417 495.763h-4.942a2.614 2.614 0 00.629 1.8 2.167 2.167 0 001.654.636 3.441 3.441 0 002.174-.779v1.053a4.065 4.065 0 01-2.44.67 2.954 2.954 0 01-2.331-.954 3.9 3.9 0 01-.848-2.683 3.832 3.832 0 01.926-2.663 2.973 2.973 0 012.3-1.028 2.63 2.63 0 012.126.889 3.707 3.707 0 01.752 2.468zm-1.148-.95a2.286 2.286 0 00-.468-1.511 1.6 1.6 0 00-1.282-.54 1.809 1.809 0 00-1.347.567 2.574 2.574 0 00-.684 1.483zM375.052 498.982h-1.121v-4.02a3.043 3.043 0 00-.358-1.682 1.363 1.363 0 00-1.207-.52 1.5 1.5 0 00-1.221.656 2.517 2.517 0 00-.5 1.572v3.992h-1.121v-4.156q0-2.064-1.593-2.064a1.476 1.476 0 00-1.217.618 2.557 2.557 0 00-.479 1.61v3.992h-1.121v-7h1.121v1.107h.027a2.379 2.379 0 012.174-1.271 2.02 2.02 0 011.982 1.449 2.5 2.5 0 012.324-1.449q2.31 0 2.311 2.851zM382.8 495.763h-4.942a2.618 2.618 0 00.629 1.8 2.168 2.168 0 001.654.636 3.441 3.441 0 002.174-.779v1.053a4.065 4.065 0 01-2.44.67 2.956 2.956 0 01-2.331-.954 3.9 3.9 0 01-.848-2.683 3.828 3.828 0 01.927-2.663 2.969 2.969 0 012.3-1.028 2.632 2.632 0 012.126.889 3.707 3.707 0 01.752 2.468zm-1.148-.95a2.276 2.276 0 00-.469-1.511 1.6 1.6 0 00-1.281-.54 1.808 1.808 0 00-1.347.567 2.58 2.58 0 00-.684 1.483zM387.739 498.914a2.167 2.167 0 01-1.046.219q-1.84 0-1.839-2.051v-4.143h-1.2v-.957h1.2v-1.709l1.121-.362v2.071h1.764v.957h-1.764v3.944a1.631 1.631 0 00.239 1 .955.955 0 00.793.3 1.177 1.177 0 00.731-.232zM392.887 493.117a1.372 1.372 0 00-.848-.226 1.429 1.429 0 00-1.2.677 3.122 3.122 0 00-.482 1.846v3.568h-1.121v-7h1.121v1.442h.027a2.447 2.447 0 01.731-1.152 1.668 1.668 0 011.1-.413 1.841 1.841 0 01.67.1zM400.235 491.982l-3.22 8.121q-.861 2.174-2.42 2.174a2.589 2.589 0 01-.731-.089v-1a2.073 2.073 0 00.663.123 1.375 1.375 0 001.271-1.012l.561-1.326-2.734-6.986h1.244l1.894 5.387q.034.1.144.533h.041q.034-.164.137-.52l1.989-5.4zM339.83 515.782v-9.8h2.707q5.181 0 5.182 4.778a4.819 4.819 0 01-1.439 3.647 5.338 5.338 0 01-3.852 1.377zm1.148-8.764v7.725h1.463a4.147 4.147 0 003-1.032 3.869 3.869 0 001.074-2.926q0-3.766-4.006-3.767zM354.506 515.782h-1.121v-1.094h-.027a2.347 2.347 0 01-2.152 1.258 2.3 2.3 0 01-1.638-.554 1.916 1.916 0 01-.591-1.47q0-1.963 2.311-2.283l2.1-.294q0-1.784-1.441-1.784a3.444 3.444 0 00-2.283.861v-1.148a4.335 4.335 0 012.379-.656q2.467 0 2.467 2.611zm-1.121-3.541l-1.687.232a2.716 2.716 0 00-1.176.387 1.112 1.112 0 00-.4.98 1.068 1.068 0 00.365.838 1.417 1.417 0 00.975.324 1.8 1.8 0 001.377-.584 2.09 2.09 0 00.543-1.48zM356.2 515.529v-1.2a3.315 3.315 0 002.016.677q1.477 0 1.477-.984a.851.851 0 00-.126-.475 1.249 1.249 0 00-.342-.346 2.64 2.64 0 00-.506-.27c-.194-.08-.4-.164-.626-.25a7.9 7.9 0 01-.816-.373 2.439 2.439 0 01-.588-.424 1.574 1.574 0 01-.355-.536 1.889 1.889 0 01-.119-.7 1.668 1.668 0 01.225-.871 2.011 2.011 0 01.6-.637 2.842 2.842 0 01.858-.386 3.8 3.8 0 011-.13 4.029 4.029 0 011.627.314v1.135a3.167 3.167 0 00-1.777-.506 2.047 2.047 0 00-.568.072 1.389 1.389 0 00-.434.2.92.92 0 00-.28.311.816.816 0 00-.1.4.957.957 0 00.1.458 1.007 1.007 0 00.29.328 2.231 2.231 0 00.465.26q.274.116.623.253a8.949 8.949 0 01.834.365 2.934 2.934 0 01.629.424 1.676 1.676 0 01.4.544 1.761 1.761 0 01.14.731 1.731 1.731 0 01-.229.9 1.958 1.958 0 01-.611.636 2.8 2.8 0 01-.883.376 4.344 4.344 0 01-1.045.123 3.965 3.965 0 01-1.879-.419zM368.369 515.782h-1.121v-4.033q0-2.188-1.627-2.187a1.774 1.774 0 00-1.381.633 2.358 2.358 0 00-.561 1.623v3.965h-1.121v-10.364h1.121v4.525h.027a2.545 2.545 0 012.3-1.326q2.366 0 2.365 2.851zM371.631 514.77h-.031v1.012h-1.121v-10.363h1.121v4.594h.027a2.65 2.65 0 012.42-1.395 2.567 2.567 0 012.108.939 3.885 3.885 0 01.763 2.52 4.331 4.331 0 01-.855 2.813 2.842 2.842 0 01-2.338 1.057 2.3 2.3 0 01-2.094-1.177zm-.027-2.823v.978a2.079 2.079 0 00.563 1.473 2.011 2.011 0 003.028-.174 3.578 3.578 0 00.578-2.167 2.821 2.821 0 00-.541-1.832 1.785 1.785 0 00-1.463-.663 1.987 1.987 0 00-1.572.68 2.5 2.5 0 00-.597 1.705zM381.639 515.946a3.249 3.249 0 01-2.479-.98 3.636 3.636 0 01-.926-2.6 3.785 3.785 0 01.963-2.755 3.466 3.466 0 012.605-.991 3.14 3.14 0 012.443.964 3.822 3.822 0 01.879 2.673 3.764 3.764 0 01-.947 2.684 3.317 3.317 0 01-2.538 1.005zm.082-6.385a2.133 2.133 0 00-1.709.734 3.017 3.017 0 00-.629 2.027 2.853 2.853 0 00.635 1.962 2.163 2.163 0 001.7.718 2.048 2.048 0 001.671-.7 3.057 3.057 0 00.585-2 3.109 3.109 0 00-.585-2.023 2.038 2.038 0 00-1.668-.718zM391.742 515.782h-1.121v-1.094h-.027a2.35 2.35 0 01-2.154 1.258 2.3 2.3 0 01-1.637-.554 1.917 1.917 0 01-.592-1.47q0-1.963 2.311-2.283l2.1-.294q0-1.784-1.443-1.784a3.448 3.448 0 00-2.283.861v-1.148a4.34 4.34 0 012.379-.656q2.468 0 2.469 2.611zm-1.121-3.541l-1.689.232a2.721 2.721 0 00-1.176.387 1.114 1.114 0 00-.4.98 1.069 1.069 0 00.366.838 1.414 1.414 0 00.974.324 1.8 1.8 0 001.378-.584 2.09 2.09 0 00.544-1.48zM397.5 509.917a1.37 1.37 0 00-.848-.226 1.43 1.43 0 00-1.2.677 3.129 3.129 0 00-.482 1.846v3.568h-1.121v-7h1.121v1.442h.03a2.447 2.447 0 01.732-1.151 1.663 1.663 0 011.1-.414 1.813 1.813 0 01.67.1zM404.512 515.782h-1.121v-1.189h-.027a2.589 2.589 0 01-2.406 1.354 2.617 2.617 0 01-2.109-.939 3.858 3.858 0 01-.789-2.561 4.19 4.19 0 01.875-2.782 2.884 2.884 0 012.33-1.046 2.246 2.246 0 012.1 1.135h.027v-4.334h1.121zm-1.121-3.165v-1.032a2.007 2.007 0 00-.561-1.436 1.878 1.878 0 00-1.422-.588 1.934 1.934 0 00-1.613.752 3.291 3.291 0 00-.588 2.078 2.961 2.961 0 00.563 1.91 1.842 1.842 0 001.515.7 1.914 1.914 0 001.521-.677 2.521 2.521 0 00.585-1.707z" fill="#5b5b5b"/>
    <path fill="#969696" d="M256.336 346.979h50.73v1.5h-50.73z"/>
    <path fill="#969696" d="M257.868 352.965l-9.067-5.236 9.067-5.235v10.471zM305.535 352.965l9.067-5.236-9.067-5.235v10.471zM284.194 348.667h-1.5v-76.75h81v-17.715h1.5v19.215h-81v75.25z"/>
    <path fill="#969696" d="M369.68 255.734l-5.235-9.067-5.236 9.067h10.471z"/>
    <path d="M524.538 321.351a.687.687 0 00-.727.727v8.722a.687.687 0 00.727.727h4.362a.687.687 0 00.727-.727v-3.636h32v3.636c0 .436.291.727.873.727h4.218a.687.687 0 00.727-.727v-8.727a.686.686 0 00-.726-.728h-42.181zM566.718 364.984a.687.687 0 00.727-.727v-8.581a.687.687 0 00-.727-.727H562.5a.687.687 0 00-.727.727v3.491H529.63v-3.637c0-.436-.291-.727-.873-.727h-4.218c-.436 0-.727.291-.727.873v8.581a.687.687 0 00.727.727z" fill="#0072c6"/>
    <path d="M549.867 344.125a5.995 5.995 0 01-8.478 0L533.265 336v16.513h24.725V336z" fill="#59b4d9"/>
    <path d="M545.628 344.675a4.757 4.757 0 003.386-1.4l8.976-8.976v-.476h-24.725v.476l8.976 8.974a4.758 4.758 0 003.387 1.402z" fill="#59b4d9"/>
    <path fill="#969696" d="M545.194 298.799h-1.5v-25.382h-179.25v-1.5h180.75v26.882z"/>
    <path fill="#969696" d="M539.209 297.266l5.236 9.068 5.235-9.068h-10.471z"/>
</svg>
