<?xml version="1.0" encoding="UTF-8" standalone="no"?>
<svg
   xmlns:dc="http://purl.org/dc/elements/1.1/"
   xmlns:cc="http://creativecommons.org/ns#"
   xmlns:rdf="http://www.w3.org/1999/02/22-rdf-syntax-ns#"
   xmlns:svg="http://www.w3.org/2000/svg"
   xmlns="http://www.w3.org/2000/svg"
   xmlns:sodipodi="http://sodipodi.sourceforge.net/DTD/sodipodi-0.dtd"
   xmlns:inkscape="http://www.inkscape.org/namespaces/inkscape"
   width="1673.7616"
   height="913.31262"
   viewBox="0 0 557.92036 304.43753"
   version="1.1"
   id="svg132"
   sodipodi:docname="application-integration-using-event-grid.svg"
   inkscape:version="0.92.4 (5da689c313, 2019-01-14)">
  <metadata
     id="metadata138">
    <rdf:RDF>
      <cc:Work
         rdf:about="">
        <dc:format>image/svg+xml</dc:format>
        <dc:type
           rdf:resource="http://purl.org/dc/dcmitype/StillImage" />
        <dc:title></dc:title>
      </cc:Work>
    </rdf:RDF>
  </metadata>
  <defs
     id="defs136" />
  <sodipodi:namedview
     pagecolor="#ffffff"
     bordercolor="#666666"
     borderopacity="1"
     objecttolerance="10"
     gridtolerance="10"
     guidetolerance="10"
     inkscape:pageopacity="0"
     inkscape:pageshadow="2"
     inkscape:window-width="1471"
     inkscape:window-height="922"
     id="namedview134"
     showgrid="false"
     fit-margin-top="0"
     fit-margin-left="0"
     fit-margin-right="0"
     fit-margin-bottom="0"
     inkscape:zoom="0.39054726"
     inkscape:cx="401.9997"
     inkscape:cy="692.81327"
     inkscape:window-x="1849"
     inkscape:window-y="207"
     inkscape:window-maximized="0"
     inkscape:current-layer="svg132" />
  <path
     d="M 100.4705,272.81751 H 15.445426 c -7.2123666,0 -13.0576971,-5.84741 -13.0576971,-13.05978 V 190.15558 H 102.24181 v 15.62923 l 11.28847,0.17296 v 53.79996 c 0,7.21237 -5.84741,13.05978 -13.05978,13.05978"
     id="path2"
     inkscape:connector-curvature="0"
     style="fill:#fff4cd;stroke-width:2.08389688" />
  <polygon
     points="36.6621,8.8756 36.6621,41.8616 3.8121,41.8616 3.8121,1.1256 29.3121,1.1256 "
     id="polygon4"
     style="fill:#ddf0f7"
     transform="matrix(2.0838968,0,0,2.0838968,-2.0838968e-4,-4.1677936e-4)" />
  <path
     d="m 518.07612,266.05089 v -8.30016 H 513.925 v 8.30016 c 0,1.49416 -1.32745,2.8216 -3.48636,3.48636 l -5.64528,1.16073 c -3.8177,1.16282 -6.47258,4.15113 -6.47258,7.47077 v 9.46298 h 4.14904 v -9.46298 c 0,-1.49207 1.32744,-2.82159 3.48844,-3.48427 l 5.64319,-1.32953 c 3.56138,-0.68977 6.21627,-3.68641 6.47467,-7.30406"
     id="path6"
     inkscape:connector-curvature="0"
     style="fill:#59b4d9;stroke-width:2.08389688" />
  <path
     d="m 507.45095,291.94915 v -7.63749 c -0.006,-1.83174 -1.48998,-3.31339 -3.32173,-3.31964 h -7.63539 c -1.83175,0.006 -3.31548,1.4879 -3.32174,3.31964 v 7.63749 c 0.006,1.83174 1.48999,3.31548 3.32174,3.32173 h 7.63539 c 1.83175,-0.006 3.31548,-1.48999 3.32173,-3.32173"
     id="path8"
     inkscape:connector-curvature="0"
     style="fill:#7fba00;stroke-width:2.08389688" />
  <path
     d="m 513.42799,266.05089 v -8.30016 h 4.14904 v 8.30016 c 0,1.49416 1.32952,2.8216 3.48636,3.48636 l 6.9748,1.49416 c 3.8177,1.16073 6.47258,4.15112 6.47258,7.47077 v 9.46297 h -4.14904 v -9.46297 c 0,-1.49416 -1.32952,-2.82368 -3.48844,-3.48636 l -6.97272,-1.49416 c -3.8177,-1.16281 -6.47258,-4.15112 -6.47258,-7.47077"
     id="path10"
     inkscape:connector-curvature="0"
     style="fill:#59b4d9;stroke-width:2.08389688" />
  <path
     d="m 525.37997,292.2809 v -7.6354 c 0.006,-1.83174 1.48999,-3.31548 3.32173,-3.32173 h 7.6354 c 1.83174,0.006 3.31548,1.48999 3.32173,3.32173 v 7.6354 c -0.006,1.83175 -1.48999,3.31548 -3.32173,3.32173 h -7.6354 c -1.83174,-0.006 -3.31548,-1.48998 -3.32173,-3.32173"
     id="path12"
     inkscape:connector-curvature="0"
     style="fill:#7fba00;stroke-width:2.08389688" />
  <polygon
     points="246.379,123.687 246.379,127.511 248.609,127.511 248.609,123.687 "
     id="polygon14"
     style="fill:#59b4d9"
     transform="matrix(2.0838968,0,0,2.0838968,-2.0838968e-4,-4.1677936e-4)" />
  <path
     d="m 520.23316,245.46429 h -8.79821 c -1.83175,0.006 -3.3134,1.48998 -3.31965,3.32173 v 8.79613 c 0.006,1.83174 1.4879,3.31547 3.31965,3.32173 h 8.79821 c 1.83175,-0.006 3.31548,-1.48999 3.32173,-3.32173 v -8.79613 c -0.006,-1.83175 -1.48998,-3.31548 -3.32173,-3.32173 z m -7.47077,10.7925 h 6.14333 v -6.14333 h -6.14333 z"
     id="path16"
     inkscape:connector-curvature="0"
     style="fill:#0072c6;stroke-width:2.08389688" />
  <path
     d="m 488.02654,304.3996 c -2.62155,0.2063 -5.241,-0.43346 -7.47077,-1.8255 -1.49416,-1.32952 -2.15892,-3.48636 -2.15892,-6.64138 v -17.26508 c 0,-2.8216 -1.16282,-4.31575 -3.48636,-4.31575 v -4.31575 c 2.32354,0 3.48636,-1.49624 3.48636,-4.48455 v -16.93374 c 0,-3.15294 0.66476,-5.47648 2.15892,-6.80601 1.49415,-1.32744 3.98441,-1.82549 7.47077,-1.82549 v 4.31575 c -2.49026,0 -3.8177,1.32952 -3.8177,4.14903 v 16.60241 c 0,3.81978 -1.16282,6.14333 -3.65307,7.13943 2.32354,0.9961 3.65307,3.32173 3.65307,7.13943 v 16.43361 c -0.0688,1.16698 0.21881,2.32771 0.82939,3.32173 0.75645,0.72103 1.78173,1.08363 2.82159,0.99611 z"
     id="path18"
     inkscape:connector-curvature="0"
     style="fill:#59b4d9;stroke-width:2.08389688" />
  <path
     d="m 544.80439,239.98593 c 2.62154,-0.20631 5.241,0.43553 7.47077,1.82549 1.49415,1.32953 2.15891,3.48636 2.15891,6.6393 v 17.26925 c 0,2.81951 1.16282,4.31575 3.48636,4.31575 v 4.31575 c -2.32354,0 -3.48636,1.49415 -3.48636,4.48246 v 16.76704 c 0,3.15502 -0.66476,5.47856 -2.15891,6.80809 -1.49416,1.32744 -3.98441,1.99012 -7.47077,1.99012 v -4.31575 c 2.49025,0 3.8177,-1.32744 3.8177,-4.14904 v -16.60241 c 0,-3.81769 1.16281,-6.14124 3.65307,-7.13943 -2.32355,-0.99401 -3.65307,-3.31964 -3.65307,-7.13943 v -16.43361 c 0.0688,-1.16698 -0.21881,-2.32563 -0.82939,-3.32173 -0.75646,-0.71894 -1.78174,-1.08154 -2.8216,-0.9961 z"
     id="path20"
     inkscape:connector-curvature="0"
     style="fill:#59b4d9;stroke-width:2.08389688" />
  <path
     d="m 517.50221,165.23426 h -3.6614 l -2.18393,2.36105 h 5.84533 v 17.05253 h -21.61834 l -4.48871,4.85548 h -2.8862 c -1.44206,0 -2.62363,-1.18157 -2.62363,-2.62362 v 0.26257 c 0,1.31285 1.0482,2.49234 2.36106,2.49234 h 60.73934 c 1.31285,0 2.49442,-1.05029 2.49442,-2.49234 V 142.2072 l -16.36484,0.0563 -17.6131,19.01347 z"
     id="path22"
     inkscape:connector-curvature="0"
     style="fill:#a0a1a2;stroke-width:2.08389688" />
  <path
     d="m 551.47953,143.58736 v -7.4791 c 0,-1.31077 -1.05029,-2.49234 -2.49234,-2.49234 h -5.90368 l -9.22125,9.97144 z"
     id="path24"
     inkscape:connector-curvature="0"
     style="fill:#7a7a7a;stroke-width:2.08389688" />
  <path
     d="m 488.50875,133.61571 h -0.26257 c -1.31286,0 -2.36106,1.18157 -2.36106,2.49234 v 0.13337 c 0,-1.44414 1.18157,-2.62571 2.62363,-2.62571"
     id="path26"
     inkscape:connector-curvature="0"
     style="fill:#7a7a7a;stroke-width:2.08389688" />
  <polygon
     points="248.334,79.2908 248.334,77.3918 246.577,79.2908 "
     id="polygon28"
     style="fill:#0072c6"
     transform="matrix(2.0838968,0,0,2.0838968,-2.0838968e-4,-4.1677936e-4)" />
  <polygon
     points="248.334,88.6081 248.334,80.4241 245.529,80.4241 237.96,88.6081 "
     id="polygon30"
     style="fill:#0072c6"
     transform="matrix(2.0838968,0,0,2.0838968,-2.0838968e-4,-4.1677936e-4)" />
  <polygon
     points="256.1841,68.9035 233.1621,68.9035 233.1621,68.9655 256.1261,68.9655 "
     id="polygon32"
     style="fill:#ffffff"
     transform="matrix(2.0838968,0,0,2.0838968,-2.0838968e-4,-4.1677936e-4)" />
  <path
     d="m 485.88554,145.81797 v 4.32825 36.73285 c 0,1.44206 1.17949,2.62571 2.62363,2.62571 h 2.88619 l 4.48872,-4.85548 h -5.14514 v -17.05461 h 20.91815 l 2.18393,-2.36106 h -23.10208 v -17.05461 h 26.76348 v 13.09729 l 16.23773,-17.55891 h -47.85461 z"
     id="path34"
     inkscape:connector-curvature="0"
     style="fill:#a0a1a2;stroke-width:2.08389688" />
  <path
     d="m 485.88554,145.81797 v 4.32825 36.73285 c 0,1.44206 1.17949,2.62571 2.62363,2.62571 h 2.88619 l 4.48872,-4.85548 h -5.14514 v -17.05461 h 20.91815 l 2.18393,-2.36106 h -23.10208 v -17.05461 h 26.76348 v 13.09729 l 17.94027,-19.39899 -49.55715,-0.21673 z"
     id="path36"
     inkscape:connector-curvature="0"
     style="fill:#bbbcbd;stroke-width:2.08389688" />
  <path
     d="m 543.08288,133.61571 h -54.57309 c -1.44414,0 -2.62362,1.18157 -2.62362,2.62571 v 7.34574 h 47.97547 z"
     id="path38"
     inkscape:connector-curvature="0"
     style="fill:#7a7a7a;stroke-width:2.08389688" />
  <path
     d="m 543.08288,133.61571 h -54.57309 c -1.44414,0 -2.62362,1.18157 -2.62362,2.62571 v 7.34574 h 47.97547 z"
     id="path40"
     inkscape:connector-curvature="0"
     style="fill:#9f9f9f;stroke-width:2.08389688" />
  <polygon
     points="248.334,77.3917 248.334,71.1067 235.491,71.1067 235.491,79.2917 246.577,79.2917 "
     id="polygon42"
     style="fill:#0072c6"
     transform="matrix(2.0838968,0,0,2.0838968,-2.0838968e-4,-4.1677936e-4)" />
  <polygon
     points="248.334,77.3917 248.334,71.1067 235.491,71.1067 235.491,79.2917 246.577,79.2917 "
     id="polygon44"
     style="fill:#479bd2"
     transform="matrix(2.0838968,0,0,2.0838968,-2.0838968e-4,-4.1677936e-4)" />
  <polygon
     points="245.5292,80.4241 235.4912,80.4241 235.4912,88.6081 237.9602,88.6081 "
     id="polygon46"
     style="fill:#0072c6"
     transform="matrix(2.0838968,0,0,2.0838968,-2.0838968e-4,-4.1677936e-4)" />
  <polygon
     points="245.5292,80.4241 235.4912,80.4241 235.4912,88.6081 237.9602,88.6081 "
     id="polygon48"
     style="fill:#479bd2"
     transform="matrix(2.0838968,0,0,2.0838968,-2.0838968e-4,-4.1677936e-4)" />
  <polygon
     points="249.467,71.107 249.467,79.292 262.246,79.292 262.246,71.107 "
     id="polygon50"
     style="fill:#ffffff"
     transform="matrix(2.0838968,0,0,2.0838968,-2.0838968e-4,-4.1677936e-4)" />
  <polygon
     points="249.467,80.424 249.467,88.608 262.246,88.608 262.246,80.424 "
     id="polygon52"
     style="fill:#0072c6"
     transform="matrix(2.0838968,0,0,2.0838968,-2.0838968e-4,-4.1677936e-4)" />
  <path
     d="m 445.29644,199.08133 c -0.66268,-0.65018 -1.72755,-0.65018 -2.39023,0 -0.3626,0.31258 -0.57099,0.76896 -0.57099,1.25034 0,0.47721 0.20839,0.93358 0.57099,1.24825 l 15.74801,15.42709 c 0.65226,0.70435 0.65226,1.79423 0,2.49859 l -16.07726,15.96473 c -0.65018,0.70644 -0.65018,1.79215 0,2.4986 0.68351,0.59807 1.70671,0.59807 2.39023,0 l 18.68838,-18.46541 c 0.596,-0.7252 0.596,-1.7734 0,-2.49651 z"
     id="path54"
     inkscape:connector-curvature="0"
     style="fill:#3999c6;stroke-width:2.08389688" />
  <path
     d="M 479.42629,168.62268 V 154.38132 H 378.18434 l -56.00056,55.83177 h -47.78584 l 97.01373,-97.42218 h 35.07824 V 97.828534 H 365.07246 L 253.57565,210.21309 h -16.25023 v 14.32679 h 53.69993 l 55.03155,54.70229 H 471.26367 V 264.65489 H 353.00253 l -39.32105,-40.11501 h 80.49885 l -2.0964,-2.0714 -0.15004,-0.15004 -0.13754,-0.16462 c -1.85884,-2.25895 -1.85884,-5.539 0,-7.79795 l 0.14587,-0.17504 0.16046,-0.15838 3.90314,-3.80936 h -50.40113 l 40.91523,-41.59041 z"
     id="path56"
     inkscape:connector-curvature="0"
     style="fill:#999a9a;stroke-width:2.08389688" />
  <path
     d="m 416.08313,235.47012 -15.74801,-15.96473 c -0.64809,-0.70644 -0.64809,-1.79215 0,-2.49859 l 15.42709,-15.42709 c 0.36259,-0.31467 0.57098,-0.77104 0.57098,-1.24825 0,-0.48138 -0.20839,-0.93776 -0.57098,-1.25034 -0.32926,-0.32509 -0.76479,-0.48763 -1.19616,-0.48763 -0.43137,0 -0.86273,0.16254 -1.19407,0.48763 l -18.35705,17.92568 c -0.59808,0.72311 -0.59808,1.77131 0,2.49651 l 1.83591,1.81716 16.84414,16.64825 c 0.34176,0.30008 0.76896,0.44803 1.19407,0.44803 0.4272,0 0.85232,-0.14795 1.19408,-0.44803 0.65226,-0.70644 0.65226,-1.79215 0,-2.4986"
     id="path58"
     inkscape:connector-curvature="0"
     style="fill:#3999c6;stroke-width:2.08389688" />
  <polygon
     points="199.9814,120.4974 199.9814,120.4944 199.9794,120.4994 199.9804,120.4974 "
     id="polygon60"
     style="fill:#fcd116"
     transform="matrix(2.0838968,0,0,2.0838968,-2.0838968e-4,-4.1677936e-4)" />
  <polygon
     points="199.9815,120.4973 199.9805,120.4973 199.9795,120.5003 "
     id="polygon62"
     style="fill:#ff8c00"
     transform="matrix(2.0838968,0,0,2.0838968,-2.0838968e-4,-4.1677936e-4)" />
  <path
     d="m 416.74039,251.10352 h -0.002 z"
     id="path64"
     inkscape:connector-curvature="0"
     style="fill:#ff8c00;stroke-width:2.08389688" />
  <polygon
     points="214.3639,100.1213 207.3809,100.1213 207.3799,100.1223 214.3629,100.1223 "
     id="polygon66"
     style="fill:#fcd116"
     transform="matrix(2.0838968,0,0,2.0838968,-2.0838968e-4,-4.1677936e-4)" />
  <polygon
     points="208.8394,89.7503 203.9924,89.7503 198.5194,105.1773 205.1914,105.2283 199.9814,120.4943 199.9814,120.4973 209.8814,102.6233 203.2104,102.5723 "
     id="polygon68"
     style="fill:#fbd63c"
     transform="matrix(2.0838968,0,0,2.0838968,-2.0838968e-4,-4.1677936e-4)" />
  <polygon
     points="207.3799,100.1213 207.3809,100.1213 214.1559,89.7503 214.1549,89.7503 "
     id="polygon70"
     style="fill:#ff8c00"
     transform="matrix(2.0838968,0,0,2.0838968,-2.0838968e-4,-4.1677936e-4)" />
  <polygon
     points="214.3643,100.1223 214.3633,100.1223 199.9813,120.4973 "
     id="polygon72"
     style="fill:#ff8c00"
     transform="matrix(2.0838968,0,0,2.0838968,-2.0838968e-4,-4.1677936e-4)" />
  <polygon
     points="207.3798,100.1213 214.1548,89.7503 208.8398,89.7503 203.2108,102.5723 209.8818,102.6233 199.9818,120.4973 214.3628,100.1223 207.3798,100.1223 207.3808,100.1213 "
     id="polygon74"
     style="fill:#fac336"
     transform="matrix(2.0838968,0,0,2.0838968,-2.0838968e-4,-4.1677936e-4)" />
  <path
     d="m 475.07949,129.47438 h -24.47745 v -4.4512 h 5.93494 v -5.19099 h -5.93494 v -2.96747 h 5.93494 v -5.19307 h -5.93494 v -2.96538 h 5.93494 v -5.19307 h -5.93494 v -2.96747 h 5.93494 v -5.19099 h -5.93494 v -2.967469 h 5.93494 v -5.190987 h -5.93494 v -4.451203 h 24.47745 z m -41.18822,-11.38641 c -1.26075,-3.0925 -2.79659,-6.08289 -3.701,-9.3171 -1.0086,3.01331 -2.44858,5.85366 -3.60514,8.80655 -1.62544,-0.0229 -3.24879,-0.0896 -4.87215,-0.1563 1.90468,-3.73017 3.74476,-7.49161 5.70988,-11.19886 -1.6692,-3.82186 -3.50095,-7.566627 -5.22225,-11.363487 1.63169,-0.09794 3.26339,-0.193802 4.89716,-0.28341 1.10447,2.900784 2.31313,5.764057 3.22587,8.737777 0.97943,-3.15085 2.44025,-6.118319 3.69475,-9.16706 1.67545,-0.120866 3.35924,-0.225061 5.04303,-0.306333 -1.9797,4.059431 -3.96774,8.116783 -5.98495,12.157453 2.03805,4.15529 4.12195,8.27932 6.17042,12.43253 -1.78798,-0.1042 -3.56763,-0.21464 -5.35562,-0.34176 z m 43.42008,5.48898 c -0.006,-12.86806 -0.0208,-25.738205 0.0167,-38.612519 -0.0521,-1.262841 0.0375,-2.656968 -0.72728,-3.755182 -1.08988,-0.750203 -2.46942,-0.660595 -3.72393,-0.712693 -7.42492,0.03959 -14.84984,0.02292 -22.27477,0.02292 v -5.934938 h -4.40536 c -11.37807,2.010961 -22.7624,3.963572 -34.14881,5.943274 v 51.914038 c 11.31973,1.9797 22.64362,3.87813 33.94876,5.93286 h 4.60541 v -6.67473 c 7.69167,-0.0146 15.38541,0.0208 23.06874,0 1.23783,-0.0521 3.09459,-0.0896 3.3905,-1.63169 0.45221,-2.12766 0.21464,-4.33242 0.25007,-6.49134 z"
     id="path76"
     inkscape:connector-curvature="0"
     style="fill:#207245;stroke-width:2.08389688" />
  <polygon
     points="220.502,41.843 220.502,44.334 225.485,44.334 225.485,41.843 "
     id="polygon78"
     style="fill:#207245"
     transform="matrix(2.0838968,0,0,2.0838968,-2.0838968e-4,-4.1677936e-4)" />
  <polygon
     points="220.502,45.758 220.502,48.249 225.485,48.249 225.485,45.758 "
     id="polygon80"
     style="fill:#207245"
     transform="matrix(2.0838968,0,0,2.0838968,-2.0838968e-4,-4.1677936e-4)" />
  <polygon
     points="220.502,49.673 220.502,52.165 225.485,52.165 225.485,49.673 "
     id="polygon82"
     style="fill:#207245"
     transform="matrix(2.0838968,0,0,2.0838968,-2.0838968e-4,-4.1677936e-4)" />
  <polygon
     points="220.502,53.588 220.502,56.08 225.485,56.08 225.485,53.588 "
     id="polygon84"
     style="fill:#207245"
     transform="matrix(2.0838968,0,0,2.0838968,-2.0838968e-4,-4.1677936e-4)" />
  <polygon
     points="220.502,57.504 220.502,59.995 225.485,59.995 225.485,57.504 "
     id="polygon86"
     style="fill:#207245"
     transform="matrix(2.0838968,0,0,2.0838968,-2.0838968e-4,-4.1677936e-4)" />
  <polygon
     points="6.938,98.125 6.938,100.75 40.813,100.75 40.813,98.125 "
     id="polygon88"
     style="fill:#a0a1a2"
     transform="matrix(2.0838968,0,0,2.0838968,-2.0838968e-4,-4.1677936e-4)" />
  <polygon
     points="26.188,105.922 26.188,107.938 40.813,107.938 40.813,105.922 "
     id="polygon90"
     style="fill:#a0a1a2"
     transform="matrix(2.0838968,0,0,2.0838968,-2.0838968e-4,-4.1677936e-4)" />
  <polygon
     points="26.188,110.859 26.188,112.875 40.813,112.875 40.813,110.859 "
     id="polygon92"
     style="fill:#a0a1a2"
     transform="matrix(2.0838968,0,0,2.0838968,-2.0838968e-4,-4.1677936e-4)" />
  <polygon
     points="26.188,115.984 26.188,118 40.813,118 40.813,115.984 "
     id="polygon94"
     style="fill:#a0a1a2"
     transform="matrix(2.0838968,0,0,2.0838968,-2.0838968e-4,-4.1677936e-4)" />
  <polygon
     points="26.188,120.984 26.188,123 40.813,123 40.813,120.984 "
     id="polygon96"
     style="fill:#a0a1a2"
     transform="matrix(2.0838968,0,0,2.0838968,-2.0838968e-4,-4.1677936e-4)" />
  <polygon
     points="7.125,106.063 7.125,123.063 23.25,123.063 23.25,106.063 "
     id="polygon98"
     style="fill:#0070c9"
     transform="matrix(2.0838968,0,0,2.0838968,-2.0838968e-4,-4.1677936e-4)" />
  <polygon
     points="18.644,106.0627 7.125,106.0627 7.125,121.3117 "
     id="polygon100"
     style="fill:#2c8dd4"
     transform="matrix(2.0838968,0,0,2.0838968,-2.0838968e-4,-4.1677936e-4)" />
  <path
     d="m 110.61116,260.2958 c 0,5.82865 -4.72628,10.55285 -10.55286,10.55285 H 14.816506 c -5.8286592,0 -10.5528532,-4.7242 -10.5528532,-10.55285 V 191.66474 H 100.15625 v 68.69149 h 3.9073 v -52.09742 h 6.54761 z m -6.54761,-56.08809 V 187.68033 H 0 v 72.70924 c 0,8.18346 6.6330434,14.81442 14.814422,14.81442 h 85.245968 c 8.17929,0 14.81442,-6.63096 14.81442,-14.81442 v -52.13076 -4.0511 z"
     id="path102"
     inkscape:connector-curvature="0"
     style="fill:#a0a1a2;stroke-width:2.08389688" />
  <path
     d="M 75.323283,85.439768 H 10.289032 V 4.3345053 H 60.431756 V 18.755071 H 75.323283 Z M 62.125964,0 H 6.1399935 V 89.086587 H 79.318113 v -72.02364 z"
     id="path104"
     inkscape:connector-curvature="0"
     style="fill:#54b3db;stroke-width:2.08389688" />
  <polygon
     points="10.063,12.001 10.063,13.938 29.125,13.938 29.125,12.001 "
     id="polygon106"
     style="fill:#54b3db"
     transform="matrix(2.0838968,0,0,2.0838968,-2.0838968e-4,-4.1677936e-4)" />
  <polygon
     points="10.063,16.938 10.063,18.875 29.125,18.875 29.125,16.938 "
     id="polygon108"
     style="fill:#54b3db"
     transform="matrix(2.0838968,0,0,2.0838968,-2.0838968e-4,-4.1677936e-4)" />
  <polygon
     points="10.063,22.063 10.063,24 29.125,24 29.125,22.063 "
     id="polygon110"
     style="fill:#54b3db"
     transform="matrix(2.0838968,0,0,2.0838968,-2.0838968e-4,-4.1677936e-4)" />
  <polygon
     points="10.063,26.938 10.063,28.875 29.125,28.875 29.125,26.938 "
     id="polygon112"
     style="fill:#54b3db"
     transform="matrix(2.0838968,0,0,2.0838968,-2.0838968e-4,-4.1677936e-4)" />
  <polygon
     points="10.062,32.001 10.062,33.938 20.75,33.938 20.75,32.001 "
     id="polygon114"
     style="fill:#54b3db"
     transform="matrix(2.0838968,0,0,2.0838968,-2.0838968e-4,-4.1677936e-4)" />
  <polygon
     points="20.2449,74.7229 15.5219,74.7229 20.7579,81.7889 25.9929,74.7229 22.0459,74.7229 22.0459,70.7499 20.2449,70.7499 "
     id="polygon116"
     style="fill:#969696"
     transform="matrix(2.0838968,0,0,2.0838968,-2.0838968e-4,-4.1677936e-4)" />
  <polygon
     points="20.245,52.75 20.245,57.25 22.046,57.25 22.046,52.75 "
     id="polygon118"
     style="fill:#969696"
     transform="matrix(2.0838968,0,0,2.0838968,-2.0838968e-4,-4.1677936e-4)" />
  <polygon
     points="20.245,58.75 20.245,63.25 22.046,63.25 22.046,58.75 "
     id="polygon120"
     style="fill:#969696"
     transform="matrix(2.0838968,0,0,2.0838968,-2.0838968e-4,-4.1677936e-4)" />
  <polygon
     points="20.245,64.75 20.245,69.25 22.046,69.25 22.046,64.75 "
     id="polygon122"
     style="fill:#969696"
     transform="matrix(2.0838968,0,0,2.0838968,-2.0838968e-4,-4.1677936e-4)" />
  <polygon
     points="88.145,103.3501 88.145,105.1511 92.224,105.1511 92.224,109.3661 99.291,104.1311 92.224,98.8961 92.224,103.3501 "
     id="polygon124"
     style="fill:#969696"
     transform="matrix(2.0838968,0,0,2.0838968,-2.0838968e-4,-4.1677936e-4)" />
  <polygon
     points="70.146,103.35 70.146,105.151 74.646,105.151 74.646,103.35 "
     id="polygon126"
     style="fill:#969696"
     transform="matrix(2.0838968,0,0,2.0838968,-2.0838968e-4,-4.1677936e-4)" />
  <polygon
     points="76.146,103.35 76.146,105.151 80.646,105.151 80.646,103.35 "
     id="polygon128"
     style="fill:#969696"
     transform="matrix(2.0838968,0,0,2.0838968,-2.0838968e-4,-4.1677936e-4)" />
  <polygon
     points="82.146,103.35 82.146,105.151 86.646,105.151 86.646,103.35 "
     id="polygon130"
     style="fill:#969696"
     transform="matrix(2.0838968,0,0,2.0838968,-2.0838968e-4,-4.1677936e-4)" />
</svg>
