<?xml version="1.0" encoding="UTF-8" standalone="no"?>
<!DOCTYPE svg PUBLIC "-//W3C//DTD SVG 1.1//EN" "http://www.w3.org/Graphics/SVG/1.1/DTD/svg11.dtd">
<!-- Generated by Microsoft Visio, SVG Export azure-batch-rendering.svg azure-batch-rendering -->
<svg xmlns="http://www.w3.org/2000/svg" xmlns:xlink="http://www.w3.org/1999/xlink" xmlns:ev="http://www.w3.org/2001/xml-events"
		width="11.875in" height="8.5in" viewBox="0 0 855 612" xml:space="preserve" color-interpolation-filters="sRGB" class="st67">
	<style type="text/css">
	<![CDATA[
		.st1 {fill:#ffffff;stroke:none;stroke-width:0.25}
		.st2 {fill:#ecf3fb;stroke:none;stroke-linecap:butt;stroke-width:0.75}
		.st3 {fill:url(#grad0-17);stroke:none;stroke-linecap:butt;stroke-width:0.75}
		.st4 {fill:#0078d4;stroke:none;stroke-linecap:butt;stroke-width:0.75}
		.st5 {fill:#000000;fill-opacity:0.5;stroke:none;stroke-linecap:butt;stroke-width:0.75}
		.st6 {fill:#000000;fill-opacity:0.25;stroke:none;stroke-linecap:butt;stroke-width:0.75}
		.st7 {fill:url(#grad0-33);stroke:none;stroke-linecap:butt;stroke-width:0.75}
		.st8 {fill:none;stroke:none;stroke-width:0.25}
		.st9 {fill:#7f7f7f;font-family:Segoe UI Semibold;font-size:1.16666em}
		.st10 {font-size:1em}
		.st11 {fill:#107c10;stroke:none;stroke-width:1.5}
		.st12 {fill:#ffffff;font-family:Segoe UI;font-size:1.00001em}
		.st13 {fill:#000000;font-family:Segoe UI;font-size:0.916672em}
		.st14 {fill:url(#grad6-54);stroke:none;stroke-linecap:butt;stroke-width:33.9998}
		.st15 {fill:#ff9300;fill-opacity:0.75;stroke:none;stroke-linecap:butt;stroke-width:33.9998}
		.st16 {fill:none;stroke:#4472c4;stroke-dasharray:2.25,2.25;stroke-width:0.75}
		.st17 {marker-end:url(#mrkr4-68);marker-start:url(#mrkr4-66);stroke:#000000;stroke-linecap:round;stroke-linejoin:round;stroke-width:1.5}
		.st18 {fill:#000000;fill-opacity:1;stroke:#000000;stroke-opacity:1;stroke-width:0.37313432835821}
		.st19 {fill:url(#grad0-78);stroke:none;stroke-linecap:butt;stroke-width:0.75}
		.st20 {fill:#50e6ff;stroke:none;stroke-linecap:butt;stroke-width:0.75}
		.st21 {fill:#c3f1ff;stroke:none;stroke-linecap:butt;stroke-width:0.75}
		.st22 {fill:#9cebff;stroke:none;stroke-linecap:butt;stroke-width:0.75}
		.st23 {fill:url(#grad0-92);stroke:none;stroke-linecap:butt;stroke-width:0.75}
		.st24 {fill:url(#grad0-237);stroke:none;stroke-linecap:butt;stroke-width:0.75}
		.st25 {fill:#ffffff;stroke:none;stroke-linecap:butt;stroke-width:0.75}
		.st26 {fill:#ffffff;fill-opacity:0.8;stroke:none;stroke-linecap:butt;stroke-width:0.75}
		.st27 {fill:#ffffff;fill-opacity:0.6;stroke:none;stroke-linecap:butt;stroke-width:0.75}
		.st28 {fill:#000000;font-family:Segoe UI;font-size:0.833336em}
		.st29 {fill:#a5a5a5;stroke:none;stroke-linecap:butt;stroke-width:33.9998}
		.st30 {fill:#ffffff;stroke:none;stroke-linecap:butt;stroke-width:33.9998}
		.st31 {fill:#f2f2f2;stroke:none;stroke-linecap:butt;stroke-width:33.9998}
		.st32 {fill:#feffff;stroke:none;stroke-width:0.25}
		.st33 {fill:url(#grad0-283);stroke:none;stroke-linecap:butt;stroke-width:34.0001}
		.st34 {fill:#50e6ff;stroke:none;stroke-linecap:butt;stroke-width:34.0001}
		.st35 {fill:#1490df;stroke:none;stroke-linecap:butt;stroke-width:34.0001}
		.st36 {fill:none;stroke:#000000;stroke-width:0.5}
		.st37 {fill:url(#grad0-311);stroke:none;stroke-linecap:butt;stroke-width:0.75}
		.st38 {fill:#1490df;stroke:none;stroke-linecap:butt;stroke-width:0.75}
		.st39 {fill:none;stroke:#7f7f7f;stroke-dasharray:5.25,3.75;stroke-width:0.75}
		.st40 {fill:#7f7f7f;stroke:none;stroke-linecap:butt;stroke-width:0.75}
		.st41 {fill:url(#grad0-372);stroke:none;stroke-linecap:butt;stroke-width:34}
		.st42 {fill:#ffffff;stroke:none;stroke-linecap:butt;stroke-width:34}
		.st43 {fill:#0078d4;stroke:none;stroke-linecap:butt;stroke-width:34}
		.st44 {fill:#83b9f9;stroke:none;stroke-linecap:butt;stroke-width:34}
		.st45 {fill:#5ea0ef;stroke:none;stroke-linecap:butt;stroke-width:34}
		.st46 {fill:#83b9f9;fill-opacity:0.2;stroke:none;stroke-linecap:butt;stroke-width:34}
		.st47 {fill:#5ea0ef;fill-opacity:0.2;stroke:none;stroke-linecap:butt;stroke-width:34}
		.st48 {fill:url(#grad0-395);stroke:none;stroke-linecap:butt;stroke-width:34}
		.st49 {marker-start:url(#mrkr4-66);stroke:#000000;stroke-linecap:butt;stroke-width:1.5}
		.st50 {fill:#4672c4;stroke:#7f7f7f;stroke-width:0.25}
		.st51 {fill:#ffffff;stroke:none;stroke-width:6.375}
		.st52 {fill:#ffffff;stroke:#0070c0;stroke-linecap:butt;stroke-width:0.75}
		.st53 {fill:#0070c0;stroke:none;stroke-linecap:butt;stroke-width:12.4898}
		.st54 {fill:#ffffff;stroke:none;stroke-linecap:butt;stroke-width:13.9091}
		.st55 {fill:#0078d7;stroke:none;stroke-linecap:butt;stroke-width:13.9091}
		.st56 {fill:url(#grad0-549);stroke:none;stroke-linecap:butt;stroke-width:33.9998}
		.st57 {fill:url(#grad0-561);stroke:none;stroke-linecap:butt;stroke-width:0.75}
		.st58 {fill:#0070c0;stroke:none;stroke-linecap:butt;stroke-width:0.75}
		.st59 {marker-end:url(#mrkr4-599);marker-start:url(#mrkr4-597);stroke:#000000;stroke-linecap:round;stroke-linejoin:round;stroke-width:3.25}
		.st60 {fill:#000000;fill-opacity:1;stroke:#000000;stroke-opacity:1;stroke-width:0.5632582322357}
		.st61 {fill:#a67af4;stroke:none;stroke-linecap:butt;stroke-width:34}
		.st62 {fill:#773adc;stroke:none;stroke-linecap:butt;stroke-width:34}
		.st63 {fill:url(#grad0-615);stroke:none;stroke-linecap:butt;stroke-width:34}
		.st64 {fill:url(#grad0-620);stroke:none;stroke-linecap:butt;stroke-width:34}
		.st65 {fill:url(#grad0-625);stroke:none;stroke-linecap:butt;stroke-width:34}
		.st66 {marker-end:url(#mrkr4-68);marker-start:url(#mrkr4-66);stroke:#000000;stroke-dasharray:4.5,4.5;stroke-linecap:round;stroke-linejoin:round;stroke-width:1.5}
		.st67 {fill:none;fill-rule:evenodd;font-size:12px;overflow:visible;stroke-linecap:square;stroke-miterlimit:3}
	]]>
	</style>

	<defs id="Patterns_And_Gradients">
		<linearGradient id="grad0-17" x1="0" y1="0" x2="1" y2="0" gradientTransform="rotate(116.95960434515 0.5 0.5)">
			<stop offset="0" stop-color="#114a8b" stop-opacity="1"/>
			<stop offset="1" stop-color="#0669bc" stop-opacity="1"/>
		</linearGradient>
		<linearGradient id="grad0-33" x1="0" y1="0" x2="1" y2="0" gradientTransform="rotate(61.849084498542 0.5 0.5)">
			<stop offset="0" stop-color="#3ccbf4" stop-opacity="1"/>
			<stop offset="1" stop-color="#2892df" stop-opacity="1"/>
		</linearGradient>
		<radialGradient id="grad6-54" cx="1" cy="0" r="1.4">
			<stop offset="0.265" stop-color="#ffd70f" stop-opacity="1"/>
			<stop offset="0.485" stop-color="#ffcb12" stop-opacity="1"/>
			<stop offset="0.885" stop-color="#feac19" stop-opacity="1"/>
			<stop offset="1" stop-color="#fea11b" stop-opacity="1"/>
		</radialGradient>
		<linearGradient id="grad0-78" x1="0" y1="0" x2="1" y2="0" gradientTransform="rotate(-90 0.5 0.5)">
			<stop offset="0" stop-color="#0078d4" stop-opacity="1"/>
			<stop offset="0.82" stop-color="#5ea0ef" stop-opacity="1"/>
		</linearGradient>
		<linearGradient id="grad0-92" x1="0" y1="0" x2="1" y2="0" gradientTransform="rotate(-90 0.5 0.5)">
			<stop offset="0.15" stop-color="#cccccc" stop-opacity="1"/>
			<stop offset="1" stop-color="#707070" stop-opacity="1"/>
		</linearGradient>
		<linearGradient id="grad0-237" x1="0" y1="0" x2="1" y2="0" gradientTransform="rotate(-90 0.5 0.5)">
			<stop offset="0" stop-color="#0078d4" stop-opacity="1"/>
			<stop offset="1" stop-color="#5ea0ef" stop-opacity="1"/>
		</linearGradient>
		<linearGradient id="grad0-283" x1="0" y1="0" x2="1" y2="0" gradientTransform="rotate(-90 0.5 0.5)">
			<stop offset="0" stop-color="#5e9624" stop-opacity="1"/>
			<stop offset="0.24" stop-color="#6fb02a" stop-opacity="1"/>
			<stop offset="0.5" stop-color="#7cc52f" stop-opacity="1"/>
			<stop offset="0.755" stop-color="#83d232" stop-opacity="1"/>
			<stop offset="1" stop-color="#86d633" stop-opacity="1"/>
		</linearGradient>
		<linearGradient id="grad0-311" x1="0" y1="0" x2="1" y2="0" gradientTransform="rotate(-90 0.5 0.5)">
			<stop offset="0" stop-color="#5e9624" stop-opacity="1"/>
			<stop offset="0.24" stop-color="#6fb02a" stop-opacity="1"/>
			<stop offset="0.5" stop-color="#7cc52f" stop-opacity="1"/>
			<stop offset="0.755" stop-color="#83d232" stop-opacity="1"/>
			<stop offset="1" stop-color="#86d633" stop-opacity="1"/>
		</linearGradient>
		<linearGradient id="grad0-372" x1="0" y1="0" x2="1" y2="0" gradientTransform="rotate(-90 0.5 0.5)">
			<stop offset="0" stop-color="#0078d4" stop-opacity="1"/>
			<stop offset="0.82" stop-color="#5ea0ef" stop-opacity="1"/>
		</linearGradient>
		<linearGradient id="grad0-395" x1="0" y1="0" x2="1" y2="0" gradientTransform="rotate(-90 0.5 0.5)">
			<stop offset="0" stop-color="#1490df" stop-opacity="1"/>
			<stop offset="0.98" stop-color="#1f56a3" stop-opacity="1"/>
		</linearGradient>
		<linearGradient id="grad0-549" x1="0" y1="0" x2="1" y2="0" gradientTransform="rotate(-90 0.5 0.5)">
			<stop offset="0" stop-color="#005ba1" stop-opacity="1"/>
			<stop offset="0.99" stop-color="#0063af" stop-opacity="1"/>
		</linearGradient>
		<linearGradient id="grad0-561" x1="0" y1="0" x2="1" y2="0" gradientTransform="rotate(270 0.5 0.5)">
			<stop offset="0" stop-color="#0078d4" stop-opacity="1"/>
			<stop offset="1" stop-color="#5ea0ef" stop-opacity="1"/>
		</linearGradient>
		<linearGradient id="grad0-615" x1="0" y1="0" x2="1" y2="0" gradientTransform="rotate(44.92 0.5 0.5)">
			<stop offset="0" stop-color="#86d633" stop-opacity="1"/>
			<stop offset="0.24" stop-color="#83d232" stop-opacity="1"/>
			<stop offset="0.5" stop-color="#7cc52f" stop-opacity="1"/>
			<stop offset="0.76" stop-color="#6fb02a" stop-opacity="1"/>
			<stop offset="1" stop-color="#5e9624" stop-opacity="1"/>
		</linearGradient>
		<linearGradient id="grad0-620" x1="0" y1="0" x2="1" y2="0" gradientTransform="rotate(45.084134711206 0.5 0.5)">
			<stop offset="0" stop-color="#86d633" stop-opacity="1"/>
			<stop offset="0.24" stop-color="#83d232" stop-opacity="1"/>
			<stop offset="0.5" stop-color="#7cc52f" stop-opacity="1"/>
			<stop offset="0.76" stop-color="#6fb02a" stop-opacity="1"/>
			<stop offset="1" stop-color="#5e9624" stop-opacity="1"/>
		</linearGradient>
		<linearGradient id="grad0-625" x1="0" y1="0" x2="1" y2="0" gradientTransform="rotate(45 0.5 0.5)">
			<stop offset="0" stop-color="#86d633" stop-opacity="1"/>
			<stop offset="0.24" stop-color="#83d232" stop-opacity="1"/>
			<stop offset="0.5" stop-color="#7cc52f" stop-opacity="1"/>
			<stop offset="0.76" stop-color="#6fb02a" stop-opacity="1"/>
			<stop offset="1" stop-color="#5e9624" stop-opacity="1"/>
		</linearGradient>
	</defs>
	<defs id="Markers">
		<g id="lend4">
			<path d="M 2 1 L 0 0 L 2 -1 L 2 1 " style="stroke:none"/>
		</g>
		<marker id="mrkr4-66" class="st18" refX="5.12" orient="auto" markerUnits="strokeWidth" overflow="visible">
			<use xlink:href="#lend4" transform="scale(2.68) "/>
		</marker>
		<marker id="mrkr4-68" class="st18" refX="-5.36" orient="auto" markerUnits="strokeWidth" overflow="visible">
			<use xlink:href="#lend4" transform="scale(-2.68,-2.68) "/>
		</marker>
		<marker id="mrkr4-597" class="st60" refX="3.44" orient="auto" markerUnits="strokeWidth" overflow="visible">
			<use xlink:href="#lend4" transform="scale(1.7753846153846) "/>
		</marker>
		<marker id="mrkr4-599" class="st60" refX="-3.5507692307692" orient="auto" markerUnits="strokeWidth" overflow="visible">
			<use xlink:href="#lend4" transform="scale(-1.7753846153846,-1.7753846153846) "/>
		</marker>
	</defs>
	<g>
		<title>VBackground-1</title>
		<g id="shape1000-1">
			<title>Solid.1000</title>
			<rect x="0" y="0" width="855" height="612" class="st1"/>
		</g>
	</g>
	<g>
		<title>azure-batch-rendering</title>
		<g id="group1272-3" transform="translate(3.375,-304.875)">
			<title>Cloud, Public.1272</title>
			<g id="shape1273-4">
				<title>Sheet.1273</title>
				<path d="M87.72 612 C39.35 612 0 570.45 0 519.37 C0 468.87 38.44 427.67 86.04 426.72 C101.17 407.67 123.29 396.55
							 147.22 396.43 C155.88 347.59 196.44 310.5 245.03 310.5 C277.14 310.5 307.01 327.32 325.36 354.62 C334.88
							 351.35 344.87 349.67 354.94 349.67 C408.16 349.67 451.46 395.47 451.46 451.78 C451.46 452.78 451.45
							 453.79 451.41 454.79 C474.16 470.39 488.25 497.11 488.25 526.26 C488.25 565.54 462.98 599.76 426.81
							 609.5 L426.18 609.67 L414.39 612 L87.72 612 Z" class="st2"/>
			</g>
			<g id="group1274-6" transform="translate(12.8526,-12.8528)">
				<title>Sheet.1274</title>
				<g id="shape1275-7" transform="translate(6.42629,-6.42638)">
					<title>Sheet.1275</title>
					<path d="M393.22 612 L68.44 612 C30.7 612 0 579.1 0 538.65 C0 498.18 30.7 465.26 68.44 465.26 C71.06 465.26 73.68
								 465.45 76.48 465.83 C87.73 446.69 107.2 434.99 128.33 434.99 C134.13 434.99 139.9 435.92 145.57
								 437.77 C145.54 436.92 145.52 436.06 145.52 435.19 C145.52 387.69 181.51 349.06 225.75 349.06 C256.83
								 349.06 284.89 368.79 297.87 398.95 C309.41 391.9 322.33 388.22 335.66 388.22 C378.25 388.22 412.9
								 425.38 412.9 471.05 C412.9 475.53 412.54 480.02 411.8 484.64 C434.68 494.99 449.69 518.78 449.69
								 545.53 C449.69 576.46 429.95 602.78 402.52 610.16 L393.22 612 Z" class="st2"/>
				</g>
				<g id="shape1276-9">
					<title>Sheet.1276</title>
					<path d="M400.27 612 L74.87 612 C33.58 612 0 576.21 0 532.22 C0 486.54 36.14 449.36 79.59 452.59 C92.33 433.44
								 112.67 422.13 134.75 422.13 C138.4 422.13 142.05 422.47 145.68 423.12 C148.42 374.7 186.17 336.2
								 232.18 336.2 C263.29 336.2 292.04 354.58 307.17 383.59 C318.08 378.19 330.02 375.36 342.08 375.36
								 C388.22 375.36 425.75 415.4 425.75 464.62 C425.75 467.91 425.57 471.18 425.21 474.5 C448.05 486.87
								 462.55 511.7 462.55 539.1 C462.55 572.58 441.2 601.7 410.63 609.93 L400.27 612 ZM74.87 465.26 C40.67
								 465.26 12.85 495.3 12.85 532.22 C12.85 569.12 40.67 599.15 74.87 599.15 L399.01 599.15 L407.7 597.42
								 C432.25 590.8 449.69 566.77 449.69 539.1 C449.69 515.05 436.3 493.45 415.57 484.06 L411.1 482.04
								 L411.87 477.19 C412.56 472.89 412.9 468.78 412.9 464.62 C412.9 422.49 381.13 388.22 342.08 388.22
								 C330.04 388.22 318.13 391.6 307.64 398 L301.32 401.86 L298.39 395.06 C286.37 367.11 260.37 349.05
								 232.18 349.05 C191.48 349.05 158.37 384.81 158.37 428.76 C158.37 429.54 158.39 430.3 158.42 431.05
								 L158.83 440.33 L150.01 437.45 C144.99 435.81 139.86 434.98 134.75 434.98 C115.94 434.98 98.62 445.33
								 88.44 462.66 L86.27 466.35 L82.03 465.77 C79.54 465.43 77.2 465.26 74.87 465.26 Z" class="st2"/>
				</g>
			</g>
		</g>
		<g id="group1000-11" transform="translate(32.6667,-35.4375)">
			<title>logo.1359</title>
			<g id="group1001-12" transform="translate(0,-4.5)">
				<title>Azure.1002</title>
				<g id="group1002-13">
					<title>Sheet.1002</title>
					<g id="shape1003-14">
						<title>Sheet.1003</title>
						<path d="M11.96 576 L22.69 576 L11.57 610.79 A1.67987 1.77404 0 0 1 9.98 612 L1.59 612 A1.67905 1.77317 0
									 0 1 0 609.66 L10.37 577.21 A1.6774 1.77143 0 0 1 11.96 576 Z" class="st3"/>
					</g>
					<g id="shape1004-18" transform="translate(9.14148,0)">
						<title>Sheet.1004</title>
						<path d="M17.63 598.67 L0.73 598.67 a0.781965 0.8258 -180 0 0 -0.533644 1.42843 L11.79 611.52 A1.67987 1.77404
									 -180 0 0 12.93 612 L22.51 612 L17.63 598.67 Z" class="st4"/>
					</g>
					<g id="group1005-20" transform="translate(12.9538,0)">
						<title>Sheet.1005</title>
						<g id="shape1006-21" transform="translate(7.38139,0)">
							<title>Sheet.1006</title>
							<path d="M3.43 612 L11.31 612 L6.43 598.67 L0 598.67 L3.72 610.29 A1.69796 1.79314 0 0 1 3.43 612 Z"
									class="st5"/>
						</g>
						<g id="shape1007-23" transform="translate(9.29257E-14,-20.9906)">
							<title>Sheet.1007</title>
							<path d="M4.94 612 L9.73 596.99 L0 596.99 A1.70042 1.79575 0 0 1 0.33 597.59 L4.94 612 Z" class="st5"/>
						</g>
					</g>
					<g id="group1008-25" transform="translate(12.3462,0)">
						<title>Sheet.1008</title>
						<g id="shape1009-26" transform="translate(0,-20.0024)">
							<title>Sheet.1009</title>
							<path d="M0 596 L5.23 612 L5.95 609.72 L1.58 596 L0 596 Z" class="st6"/>
						</g>
						<g id="shape1010-28" transform="translate(7.32219,0)">
							<title>Sheet.1010</title>
							<path d="M2.59 612 L4.85 612 A2.31876 2.44874 -180 0 0 4.98 610.07 L1.33 598.67 L0 598.67 L3.79 610.5
										 A1.07469 1.13493 0 0 1 2.77 612 L2.59 612 Z" class="st6"/>
						</g>
					</g>
					<g id="shape1011-30" transform="translate(12.088,0)">
						<title>Sheet.1011</title>
						<path d="M13.54 577.21 A1.6774 1.77143 -180 0 0 11.95 576 L0 576 A1.70454 1.80009 0 0 1 1.61 577.22 L11.97
									 609.63 A1.70371 1.79922 0 0 1 10.35 612 L22.32 612 A1.67905 1.77317 -180 0 0 23.91 609.66 L13.54
									 577.21 Z" class="st7"/>
					</g>
				</g>
			</g>
			<g id="shape1012-34" transform="translate(28.6277,0)">
				<title>Sheet.1012</title>
				<desc>Microsoft Azure</desc>
				<rect x="0" y="567" width="72" height="45" class="st8"/>
				<text x="5.5" y="585.3" class="st9">Microsoft <tspan x="17.66" dy="1.2em" class="st10">Azure</tspan></text>			</g>
		</g>
		<g id="shape1279-38" transform="translate(639.333,-219.333)">
			<title>Number.35.1279</title>
			<desc>1</desc>
			<ellipse cx="12.6" cy="599.4" rx="12.6" ry="12.6" class="st11"/>
			<text x="9.24" y="603.19" class="st12">1</text>		</g>
		<g id="shape1364-41" transform="translate(330.667,-308)">
			<title>Sheet.1364</title>
			<desc>ExpressRoute gateway</desc>
			<rect x="0" y="577.936" width="73.8621" height="34.0635" class="st8"/>
			<text x="4.57" y="591.67" class="st13">ExpressRoute <tspan x="16.72" dy="1.2em" class="st10">gateway</tspan></text>		</g>
		<g id="group1380-45" transform="translate(58.2353,-322.412)">
			<title>Sheet.1380</title>
			<g id="group1074-46" transform="translate(22.2353,-182.269)">
				<title>Sheet.1074</title>
				<g id="group1075-47">
					<title>Page-1</title>
					<g id="group1076-48">
						<title>Subscription</title>
						<g id="group1077-49">
							<title>Sheet.1077</title>
							<g id="group1078-50">
								<title>Sheet.1078</title>
								<g id="shape1079-51">
									<title>Sheet.1079</title>
									<path d="M8.82 602.59 A1.78993 1.71847 -90 0 0 8.82 600.07 L5.87 596.99 A1.77785 1.70687 -90
												 0 0 3.45 596.99 L0.5 600.07 A1.79079 1.7193 -90 0 0 0.5 602.59 L2.96 605.16 a0.501421
												 0.481403 90 0 1 0.139757 0.353503 L3.1 610.28 a0.611027 0.586635 -90 0 0 0.169901
												 0.430233 L4.39 611.88 a0.403898 0.387774 -90 0 0 0.548067 0 L6.02 610.75 L6.02 610.74
												 L6.66 610.07 a0.233882 0.224545 -90 0 0 6.21725E-15 -0.329679 L6.2 609.26 a0.25891
												 0.248574 90 0 1 -3.55271E-15 -0.359886 L6.66 608.42 a0.233882 0.224545 -90 0 0 -1.68754E-14
												 -0.329679 L6.2 607.61 a0.25891 0.248574 90 0 1 -2.66454E-15 -0.359886 L6.66 606.77
												 a0.233019 0.223716 -90 0 0 -1.68754E-14 -0.328816 L6.02 605.77 L6.02 605.53 L8.82
												 602.59 ZM4.66 597.73 a1.01406 0.973579 90 1 1 -0.97282 1.01392 a1.0132 0.972751
												 90 0 1 0.97282 -1.01392 Z" class="st14"/>
								</g>
							</g>
							<g id="group1080-55" transform="translate(2.29565,-1.57575)">
								<title>Sheet.1080</title>
								<g id="shape1081-56">
									<title>Sheet.1081</title>
									<path d="M1.6 611.96 a0.217484 0.208802 -90 0 0 0.352975 -0.165702 L1.95 607.94 a0.231293 0.222059
												 -90 0 0 -0.0961151 -0.191593 a0.218347 0.20963 -90 0 0 -0.323146 0.191593 L1.53
												 611.79 a0.231293 0.222059 -90 0 0 0.0662863 0.165702 L1.6 611.96 ZM0.26 602.67 L4.59
												 602.67 a0.272718 0.261831 90 0 1 0.261831 0.272718 L4.85 603 a0.273581 0.262659
												 90 0 1 -0.262659 0.273581 L0.26 603.27 a0.272718 0.261831 90 0 1 -0.261831 -0.272718
												 L0 602.95 a0.273581 0.262659 90 0 1 0.262659 -0.273581 L0.26 602.67 ZM0.26 603.64
												 L4.59 603.64 a0.272718 0.261831 90 0 1 0.261831 0.272718 L4.85 603.97 a0.272718
												 0.261831 90 0 1 -0.261831 0.272718 L0.26 604.24 a0.273581 0.262659 90 0 1 -0.262659
												 -0.273581 L0 603.92 a0.273581 0.262659 90 0 1 0.262659 -0.273581 L0.26 603.64 Z"
											class="st15"/>
								</g>
							</g>
						</g>
					</g>
				</g>
			</g>
			<g id="shape1277-58" transform="translate(20.6801,-18.438)">
				<title>Sheet.1277</title>
				<rect x="0" y="452.92" width="363.937" height="159.08" rx="4.5" ry="4.5" class="st16"/>
			</g>
			<g id="shape1319-60" transform="translate(165.403,-101.018)">
				<title>Directed line 1.1000</title>
				<path d="M7.68 612 L8.04 612 L70.55 612" class="st17"/>
			</g>
			<g id="shape1013-69" transform="translate(49.3676,-136.588)">
				<title>Sheet.1013</title>
				<desc>Virtual render farm</desc>
				<rect x="0" y="587.945" width="103.5" height="24.0552" class="st8"/>
				<text x="5.87" y="603.27" class="st13">Virtual render farm</text>			</g>
			<g id="group1232-72" transform="translate(62.4626,-57.6672)">
				<title>Sheet.1232</title>
				<g id="group1181-73" transform="translate(0,-56.3065)">
					<title>Sheet.1181</title>
					<g id="group1014-74">
						<title>Virtual Machine.1111</title>
						<g id="shape1015-75" transform="translate(0,-7.11622)">
							<title>Sheet.1015</title>
							<path d="M0 611.08 a0.85202 0.92221 -180 0 0 0.852 0.922189 L24.71 612 a0.85202 0.92221 -180 0 0 0.852
										 -0.922189 L25.56 594.48 a0.85202 0.92221 -180 0 0 -0.852 -0.922189 L0.85 593.56 a0.85202
										 0.92221 -180 0 0 -0.852 0.922189 L0 611.08 Z" class="st19"/>
						</g>
						<g id="shape1016-79" transform="translate(12.78,-10.9587)">
							<title>Sheet.1016</title>
							<path d="M4.26 603.93 L4.26 609.29 L0 612 L0 606.62 L4.26 603.93 Z" class="st20"/>
						</g>
						<g id="shape1017-81" transform="translate(8.52,-16.3227)">
							<title>Sheet.1017</title>
							<path d="M8.52 609.29 L4.26 612 L0 609.29 L4.26 606.61 L8.52 609.29 Z" class="st21"/>
						</g>
						<g id="shape1018-83" transform="translate(8.52,-10.9587)">
							<title>Sheet.1018</title>
							<path d="M4.26 606.64 L4.26 612 L0 609.29 L0 603.93 L4.26 606.64 Z" class="st22"/>
						</g>
						<g id="shape1019-85" transform="translate(8.52,-10.9587)">
							<title>Sheet.1019</title>
							<path d="M0 609.29 L4.26 606.62 L4.26 612 L0 609.29 Z" class="st21"/>
						</g>
						<g id="shape1020-87" transform="translate(12.78,-10.9587)">
							<title>Sheet.1020</title>
							<path d="M4.26 609.29 L0 606.62 L0 612 L4.26 609.29 Z" class="st22"/>
						</g>
						<g id="shape1021-89" transform="translate(6.39,0)">
							<title>Sheet.1021</title>
							<path d="M11.52 610.46 C8.99 610.03 8.89 608.07 8.89 604.88 L3.88 604.88 C3.88 608.07 3.79 610.03 1.26
										 610.46 A1.42 1.53698 -180 0 0 0 612 L12.78 612 A1.42 1.53698 -180 0 0 11.52 610.46 Z"
									class="st23"/>
						</g>
					</g>
					<g id="group1165-93" transform="translate(27,0)">
						<title>Virtual Machine.1165</title>
						<g id="shape1166-94" transform="translate(0,-7.11622)">
							<title>Sheet.1166</title>
							<path d="M0 611.08 a0.85202 0.92221 -180 0 0 0.852 0.922189 L24.71 612 a0.85202 0.92221 -180 0 0 0.852
										 -0.922189 L25.56 594.48 a0.85202 0.92221 -180 0 0 -0.852 -0.922189 L0.85 593.56 a0.85202
										 0.92221 -180 0 0 -0.852 0.922189 L0 611.08 Z" class="st19"/>
						</g>
						<g id="shape1167-97" transform="translate(12.78,-10.9587)">
							<title>Sheet.1167</title>
							<path d="M4.26 603.93 L4.26 609.29 L0 612 L0 606.62 L4.26 603.93 Z" class="st20"/>
						</g>
						<g id="shape1168-99" transform="translate(8.52,-16.3227)">
							<title>Sheet.1168</title>
							<path d="M8.52 609.29 L4.26 612 L0 609.29 L4.26 606.61 L8.52 609.29 Z" class="st21"/>
						</g>
						<g id="shape1169-101" transform="translate(8.52,-10.9587)">
							<title>Sheet.1169</title>
							<path d="M4.26 606.64 L4.26 612 L0 609.29 L0 603.93 L4.26 606.64 Z" class="st22"/>
						</g>
						<g id="shape1170-103" transform="translate(8.52,-10.9587)">
							<title>Sheet.1170</title>
							<path d="M0 609.29 L4.26 606.62 L4.26 612 L0 609.29 Z" class="st21"/>
						</g>
						<g id="shape1171-105" transform="translate(12.78,-10.9587)">
							<title>Sheet.1171</title>
							<path d="M4.26 609.29 L0 606.62 L0 612 L4.26 609.29 Z" class="st22"/>
						</g>
						<g id="shape1172-107" transform="translate(6.39,0)">
							<title>Sheet.1172</title>
							<path d="M11.52 610.46 C8.99 610.03 8.89 608.07 8.89 604.88 L3.88 604.88 C3.88 608.07 3.79 610.03 1.26
										 610.46 A1.42 1.53698 -180 0 0 0 612 L12.78 612 A1.42 1.53698 -180 0 0 11.52 610.46 Z"
									class="st23"/>
						</g>
					</g>
					<g id="group1173-110" transform="translate(54,0)">
						<title>Virtual Machine.1173</title>
						<g id="shape1174-111" transform="translate(0,-7.11622)">
							<title>Sheet.1174</title>
							<path d="M0 611.08 a0.85202 0.92221 -180 0 0 0.852 0.922189 L24.71 612 a0.85202 0.92221 -180 0 0 0.852
										 -0.922189 L25.56 594.48 a0.85202 0.92221 -180 0 0 -0.852 -0.922189 L0.85 593.56 a0.85202
										 0.92221 -180 0 0 -0.852 0.922189 L0 611.08 Z" class="st19"/>
						</g>
						<g id="shape1175-114" transform="translate(12.78,-10.9587)">
							<title>Sheet.1175</title>
							<path d="M4.26 603.93 L4.26 609.29 L0 612 L0 606.62 L4.26 603.93 Z" class="st20"/>
						</g>
						<g id="shape1176-116" transform="translate(8.52,-16.3227)">
							<title>Sheet.1176</title>
							<path d="M8.52 609.29 L4.26 612 L0 609.29 L4.26 606.61 L8.52 609.29 Z" class="st21"/>
						</g>
						<g id="shape1177-118" transform="translate(8.52,-10.9587)">
							<title>Sheet.1177</title>
							<path d="M4.26 606.64 L4.26 612 L0 609.29 L0 603.93 L4.26 606.64 Z" class="st22"/>
						</g>
						<g id="shape1178-120" transform="translate(8.52,-10.9587)">
							<title>Sheet.1178</title>
							<path d="M0 609.29 L4.26 606.62 L4.26 612 L0 609.29 Z" class="st21"/>
						</g>
						<g id="shape1179-122" transform="translate(12.78,-10.9587)">
							<title>Sheet.1179</title>
							<path d="M4.26 609.29 L0 606.62 L0 612 L4.26 609.29 Z" class="st22"/>
						</g>
						<g id="shape1180-124" transform="translate(6.39,0)">
							<title>Sheet.1180</title>
							<path d="M11.52 610.46 C8.99 610.03 8.89 608.07 8.89 604.88 L3.88 604.88 C3.88 608.07 3.79 610.03 1.26
										 610.46 A1.42 1.53698 -180 0 0 0 612 L12.78 612 A1.42 1.53698 -180 0 0 11.52 610.46 Z"
									class="st23"/>
						</g>
					</g>
				</g>
				<g id="group1182-127" transform="translate(0,-28.1532)">
					<title>Sheet.1182</title>
					<g id="group1183-128">
						<title>Virtual Machine.1111</title>
						<g id="shape1184-129" transform="translate(0,-7.11622)">
							<title>Sheet.1184</title>
							<path d="M0 611.08 a0.85202 0.92221 -180 0 0 0.852 0.922189 L24.71 612 a0.85202 0.92221 -180 0 0 0.852
										 -0.922189 L25.56 594.48 a0.85202 0.92221 -180 0 0 -0.852 -0.922189 L0.85 593.56 a0.85202
										 0.92221 -180 0 0 -0.852 0.922189 L0 611.08 Z" class="st19"/>
						</g>
						<g id="shape1185-132" transform="translate(12.78,-10.9587)">
							<title>Sheet.1185</title>
							<path d="M4.26 603.93 L4.26 609.29 L0 612 L0 606.62 L4.26 603.93 Z" class="st20"/>
						</g>
						<g id="shape1186-134" transform="translate(8.52,-16.3227)">
							<title>Sheet.1186</title>
							<path d="M8.52 609.29 L4.26 612 L0 609.29 L4.26 606.61 L8.52 609.29 Z" class="st21"/>
						</g>
						<g id="shape1187-136" transform="translate(8.52,-10.9587)">
							<title>Sheet.1187</title>
							<path d="M4.26 606.64 L4.26 612 L0 609.29 L0 603.93 L4.26 606.64 Z" class="st22"/>
						</g>
						<g id="shape1188-138" transform="translate(8.52,-10.9587)">
							<title>Sheet.1188</title>
							<path d="M0 609.29 L4.26 606.62 L4.26 612 L0 609.29 Z" class="st21"/>
						</g>
						<g id="shape1189-140" transform="translate(12.78,-10.9587)">
							<title>Sheet.1189</title>
							<path d="M4.26 609.29 L0 606.62 L0 612 L4.26 609.29 Z" class="st22"/>
						</g>
						<g id="shape1190-142" transform="translate(6.39,0)">
							<title>Sheet.1190</title>
							<path d="M11.52 610.46 C8.99 610.03 8.89 608.07 8.89 604.88 L3.88 604.88 C3.88 608.07 3.79 610.03 1.26
										 610.46 A1.42 1.53698 -180 0 0 0 612 L12.78 612 A1.42 1.53698 -180 0 0 11.52 610.46 Z"
									class="st23"/>
						</g>
					</g>
					<g id="group1191-145" transform="translate(27,0)">
						<title>Virtual Machine.1165</title>
						<g id="shape1192-146" transform="translate(0,-7.11622)">
							<title>Sheet.1192</title>
							<path d="M0 611.08 a0.85202 0.92221 -180 0 0 0.852 0.922189 L24.71 612 a0.85202 0.92221 -180 0 0 0.852
										 -0.922189 L25.56 594.48 a0.85202 0.92221 -180 0 0 -0.852 -0.922189 L0.85 593.56 a0.85202
										 0.92221 -180 0 0 -0.852 0.922189 L0 611.08 Z" class="st19"/>
						</g>
						<g id="shape1193-149" transform="translate(12.78,-10.9587)">
							<title>Sheet.1193</title>
							<path d="M4.26 603.93 L4.26 609.29 L0 612 L0 606.62 L4.26 603.93 Z" class="st20"/>
						</g>
						<g id="shape1194-151" transform="translate(8.52,-16.3227)">
							<title>Sheet.1194</title>
							<path d="M8.52 609.29 L4.26 612 L0 609.29 L4.26 606.61 L8.52 609.29 Z" class="st21"/>
						</g>
						<g id="shape1195-153" transform="translate(8.52,-10.9587)">
							<title>Sheet.1195</title>
							<path d="M4.26 606.64 L4.26 612 L0 609.29 L0 603.93 L4.26 606.64 Z" class="st22"/>
						</g>
						<g id="shape1196-155" transform="translate(8.52,-10.9587)">
							<title>Sheet.1196</title>
							<path d="M0 609.29 L4.26 606.62 L4.26 612 L0 609.29 Z" class="st21"/>
						</g>
						<g id="shape1197-157" transform="translate(12.78,-10.9587)">
							<title>Sheet.1197</title>
							<path d="M4.26 609.29 L0 606.62 L0 612 L4.26 609.29 Z" class="st22"/>
						</g>
						<g id="shape1198-159" transform="translate(6.39,0)">
							<title>Sheet.1198</title>
							<path d="M11.52 610.46 C8.99 610.03 8.89 608.07 8.89 604.88 L3.88 604.88 C3.88 608.07 3.79 610.03 1.26
										 610.46 A1.42 1.53698 -180 0 0 0 612 L12.78 612 A1.42 1.53698 -180 0 0 11.52 610.46 Z"
									class="st23"/>
						</g>
					</g>
					<g id="group1199-162" transform="translate(54,0)">
						<title>Virtual Machine.1173</title>
						<g id="shape1200-163" transform="translate(0,-7.11622)">
							<title>Sheet.1200</title>
							<path d="M0 611.08 a0.85202 0.92221 -180 0 0 0.852 0.922189 L24.71 612 a0.85202 0.92221 -180 0 0 0.852
										 -0.922189 L25.56 594.48 a0.85202 0.92221 -180 0 0 -0.852 -0.922189 L0.85 593.56 a0.85202
										 0.92221 -180 0 0 -0.852 0.922189 L0 611.08 Z" class="st19"/>
						</g>
						<g id="shape1201-166" transform="translate(12.78,-10.9587)">
							<title>Sheet.1201</title>
							<path d="M4.26 603.93 L4.26 609.29 L0 612 L0 606.62 L4.26 603.93 Z" class="st20"/>
						</g>
						<g id="shape1202-168" transform="translate(8.52,-16.3227)">
							<title>Sheet.1202</title>
							<path d="M8.52 609.29 L4.26 612 L0 609.29 L4.26 606.61 L8.52 609.29 Z" class="st21"/>
						</g>
						<g id="shape1203-170" transform="translate(8.52,-10.9587)">
							<title>Sheet.1203</title>
							<path d="M4.26 606.64 L4.26 612 L0 609.29 L0 603.93 L4.26 606.64 Z" class="st22"/>
						</g>
						<g id="shape1204-172" transform="translate(8.52,-10.9587)">
							<title>Sheet.1204</title>
							<path d="M0 609.29 L4.26 606.62 L4.26 612 L0 609.29 Z" class="st21"/>
						</g>
						<g id="shape1205-174" transform="translate(12.78,-10.9587)">
							<title>Sheet.1205</title>
							<path d="M4.26 609.29 L0 606.62 L0 612 L4.26 609.29 Z" class="st22"/>
						</g>
						<g id="shape1206-176" transform="translate(6.39,0)">
							<title>Sheet.1206</title>
							<path d="M11.52 610.46 C8.99 610.03 8.89 608.07 8.89 604.88 L3.88 604.88 C3.88 608.07 3.79 610.03 1.26
										 610.46 A1.42 1.53698 -180 0 0 0 612 L12.78 612 A1.42 1.53698 -180 0 0 11.52 610.46 Z"
									class="st23"/>
						</g>
					</g>
				</g>
				<g id="group1207-179">
					<title>Sheet.1207</title>
					<g id="group1208-180">
						<title>Virtual Machine.1111</title>
						<g id="shape1209-181" transform="translate(0,-7.11622)">
							<title>Sheet.1209</title>
							<path d="M0 611.08 a0.85202 0.92221 -180 0 0 0.852 0.922189 L24.71 612 a0.85202 0.92221 -180 0 0 0.852
										 -0.922189 L25.56 594.48 a0.85202 0.92221 -180 0 0 -0.852 -0.922189 L0.85 593.56 a0.85202
										 0.92221 -180 0 0 -0.852 0.922189 L0 611.08 Z" class="st19"/>
						</g>
						<g id="shape1210-184" transform="translate(12.78,-10.9587)">
							<title>Sheet.1210</title>
							<path d="M4.26 603.93 L4.26 609.29 L0 612 L0 606.62 L4.26 603.93 Z" class="st20"/>
						</g>
						<g id="shape1211-186" transform="translate(8.52,-16.3227)">
							<title>Sheet.1211</title>
							<path d="M8.52 609.29 L4.26 612 L0 609.29 L4.26 606.61 L8.52 609.29 Z" class="st21"/>
						</g>
						<g id="shape1212-188" transform="translate(8.52,-10.9587)">
							<title>Sheet.1212</title>
							<path d="M4.26 606.64 L4.26 612 L0 609.29 L0 603.93 L4.26 606.64 Z" class="st22"/>
						</g>
						<g id="shape1213-190" transform="translate(8.52,-10.9587)">
							<title>Sheet.1213</title>
							<path d="M0 609.29 L4.26 606.62 L4.26 612 L0 609.29 Z" class="st21"/>
						</g>
						<g id="shape1214-192" transform="translate(12.78,-10.9587)">
							<title>Sheet.1214</title>
							<path d="M4.26 609.29 L0 606.62 L0 612 L4.26 609.29 Z" class="st22"/>
						</g>
						<g id="shape1215-194" transform="translate(6.39,0)">
							<title>Sheet.1215</title>
							<path d="M11.52 610.46 C8.99 610.03 8.89 608.07 8.89 604.88 L3.88 604.88 C3.88 608.07 3.79 610.03 1.26
										 610.46 A1.42 1.53698 -180 0 0 0 612 L12.78 612 A1.42 1.53698 -180 0 0 11.52 610.46 Z"
									class="st23"/>
						</g>
					</g>
					<g id="group1216-197" transform="translate(27,0)">
						<title>Virtual Machine.1165</title>
						<g id="shape1217-198" transform="translate(0,-7.11622)">
							<title>Sheet.1217</title>
							<path d="M0 611.08 a0.85202 0.92221 -180 0 0 0.852 0.922189 L24.71 612 a0.85202 0.92221 -180 0 0 0.852
										 -0.922189 L25.56 594.48 a0.85202 0.92221 -180 0 0 -0.852 -0.922189 L0.85 593.56 a0.85202
										 0.92221 -180 0 0 -0.852 0.922189 L0 611.08 Z" class="st19"/>
						</g>
						<g id="shape1218-201" transform="translate(12.78,-10.9587)">
							<title>Sheet.1218</title>
							<path d="M4.26 603.93 L4.26 609.29 L0 612 L0 606.62 L4.26 603.93 Z" class="st20"/>
						</g>
						<g id="shape1219-203" transform="translate(8.52,-16.3227)">
							<title>Sheet.1219</title>
							<path d="M8.52 609.29 L4.26 612 L0 609.29 L4.26 606.61 L8.52 609.29 Z" class="st21"/>
						</g>
						<g id="shape1220-205" transform="translate(8.52,-10.9587)">
							<title>Sheet.1220</title>
							<path d="M4.26 606.64 L4.26 612 L0 609.29 L0 603.93 L4.26 606.64 Z" class="st22"/>
						</g>
						<g id="shape1221-207" transform="translate(8.52,-10.9587)">
							<title>Sheet.1221</title>
							<path d="M0 609.29 L4.26 606.62 L4.26 612 L0 609.29 Z" class="st21"/>
						</g>
						<g id="shape1222-209" transform="translate(12.78,-10.9587)">
							<title>Sheet.1222</title>
							<path d="M4.26 609.29 L0 606.62 L0 612 L4.26 609.29 Z" class="st22"/>
						</g>
						<g id="shape1223-211" transform="translate(6.39,0)">
							<title>Sheet.1223</title>
							<path d="M11.52 610.46 C8.99 610.03 8.89 608.07 8.89 604.88 L3.88 604.88 C3.88 608.07 3.79 610.03 1.26
										 610.46 A1.42 1.53698 -180 0 0 0 612 L12.78 612 A1.42 1.53698 -180 0 0 11.52 610.46 Z"
									class="st23"/>
						</g>
					</g>
					<g id="group1224-214" transform="translate(54,0)">
						<title>Virtual Machine.1173</title>
						<g id="shape1225-215" transform="translate(0,-7.11622)">
							<title>Sheet.1225</title>
							<path d="M0 611.08 a0.85202 0.92221 -180 0 0 0.852 0.922189 L24.71 612 a0.85202 0.92221 -180 0 0 0.852
										 -0.922189 L25.56 594.48 a0.85202 0.92221 -180 0 0 -0.852 -0.922189 L0.85 593.56 a0.85202
										 0.92221 -180 0 0 -0.852 0.922189 L0 611.08 Z" class="st19"/>
						</g>
						<g id="shape1226-218" transform="translate(12.78,-10.9587)">
							<title>Sheet.1226</title>
							<path d="M4.26 603.93 L4.26 609.29 L0 612 L0 606.62 L4.26 603.93 Z" class="st20"/>
						</g>
						<g id="shape1227-220" transform="translate(8.52,-16.3227)">
							<title>Sheet.1227</title>
							<path d="M8.52 609.29 L4.26 612 L0 609.29 L4.26 606.61 L8.52 609.29 Z" class="st21"/>
						</g>
						<g id="shape1228-222" transform="translate(8.52,-10.9587)">
							<title>Sheet.1228</title>
							<path d="M4.26 606.64 L4.26 612 L0 609.29 L0 603.93 L4.26 606.64 Z" class="st22"/>
						</g>
						<g id="shape1229-224" transform="translate(8.52,-10.9587)">
							<title>Sheet.1229</title>
							<path d="M0 609.29 L4.26 606.62 L4.26 612 L0 609.29 Z" class="st21"/>
						</g>
						<g id="shape1230-226" transform="translate(12.78,-10.9587)">
							<title>Sheet.1230</title>
							<path d="M4.26 609.29 L0 606.62 L0 612 L4.26 609.29 Z" class="st22"/>
						</g>
						<g id="shape1231-228" transform="translate(6.39,0)">
							<title>Sheet.1231</title>
							<path d="M11.52 610.46 C8.99 610.03 8.89 608.07 8.89 604.88 L3.88 604.88 C3.88 608.07 3.79 610.03 1.26
										 610.46 A1.42 1.53698 -180 0 0 0 612 L12.78 612 A1.42 1.53698 -180 0 0 11.52 610.46 Z"
									class="st23"/>
						</g>
					</g>
				</g>
			</g>
			<g id="group1043-231" transform="translate(283.754,-75.7059)">
				<title>Sheet.1043</title>
				<g id="group1044-232">
					<title>bf187bb0-4c3d-4c4e-a222-f036f6c</title>
					<g id="group1045-233" transform="translate(0,-2.05794)">
						<title>Sheet.1045</title>
						<g id="shape1046-234" transform="translate(0,-6.9562)">
							<title>Sheet.1046</title>
							<path d="M46.48 601.48 A10.5711 10.5711 -180 0 0 37.41 591.26 A13.2695 13.2695 -180 0 0 23.86 578.42
										 A13.6077 13.6077 -180 0 0 10.89 587.4 A12.5413 12.5413 -180 0 0 0 599.61 A12.7479 12.7479
										 -180 0 0 13.09 612 C13.48 612 13.86 611.98 14.24 611.95 L35.43 611.95 A2.01663 2.01663 -180
										 0 0 35.99 611.86 A10.6641 10.6641 -180 0 0 46.48 601.48 Z" class="st24"/>
						</g>
						<g id="shape1047-238" transform="translate(18.9785,0)">
							<title>Sheet.1047</title>
							<path d="M0 610.45 A1.5493 1.5493 -180 0 0 1.55 612 L21.69 612 A1.5493 1.5493 -180 0 0 23.24 610.45 L23.24
										 590.31 A1.5493 1.5493 -180 0 0 21.69 588.76 L1.55 588.76 A1.5493 1.5493 -180 0 0 0 590.31
										 L0 610.45 Z" class="st20"/>
						</g>
					</g>
					<g id="shape1048-240" transform="translate(17.8527,2.27374E-13)">
						<title>Sheet.1048</title>
						<path d="M0 610.45 A1.5493 1.5493 -180 0 0 1.55 612 L23.94 612 A1.5493 1.5493 -180 0 0 25.49 610.45 L25.49
									 588.06 A1.5493 1.5493 -180 0 0 23.94 586.51 L1.55 586.51 A1.5493 1.5493 -180 0 0 0 588.06 L0
									 610.45 Z" class="st20"/>
					</g>
					<g id="shape1049-242" transform="translate(21.6716,-17.6358)">
						<title>Sheet.1049</title>
						<path d="M0 611.23 a0.77465 0.77465 -180 0 0 0.774632 0.774632 L17.99 612 a0.77465 0.77465 -180 0 0 0.774632
									 -0.774632 L18.76 608.4 a0.77465 0.77465 -180 0 0 -0.774632 -0.774632 L0.77 607.62 a0.77465 0.77465
									 -180 0 0 -0.774632 0.774632 L0 611.23 Z" class="st25"/>
					</g>
					<g id="shape1050-244" transform="translate(21.6716,-10.5582)">
						<title>Sheet.1050</title>
						<path d="M0 611.23 a0.77465 0.77465 -180 0 0 0.774632 0.774632 L17.99 612 a0.77465 0.77465 -180 0 0 0.774632
									 -0.774632 L18.76 608.4 a0.77465 0.77465 -180 0 0 -0.774632 -0.774632 L0.77 607.62 a0.77465 0.77465
									 -180 0 0 -0.774632 0.774632 L0 611.23 Z" class="st26"/>
					</g>
					<g id="shape1051-246" transform="translate(21.6716,-3.48068)">
						<title>Sheet.1051</title>
						<path d="M0 611.23 a0.77465 0.77465 -180 0 0 0.774632 0.774632 L17.99 612 a0.77465 0.77465 -180 0 0 0.774632
									 -0.774632 L18.76 608.4 a0.77465 0.77465 -180 0 0 -0.774632 -0.774632 L0.77 607.62 a0.77465 0.77465
									 -180 0 0 -0.774632 0.774632 L0 611.23 Z" class="st27"/>
					</g>
				</g>
			</g>
			<g id="shape1233-248" transform="translate(255.098,-116.922)">
				<title>Sheet.1233</title>
				<desc>Azure HPC Cache</desc>
				<rect x="0" y="590.143" width="103.5" height="21.8567" class="st8"/>
				<text x="9.68" y="604.37" class="st13">Azure HPC Cache</text>			</g>
			<g id="shape1322-251" transform="translate(163.475,-100.134)">
				<title>Sheet.1322</title>
				<desc>&#60;- NFS -&#62;</desc>
				<rect x="0" y="593.767" width="82.4153" height="18.2332" class="st8"/>
				<text x="16.05" y="605.88" class="st28">&#60;-  NFS  -&#62;</text>			</g>
			<g id="shape1323-254" transform="translate(185.975,-60.9202)">
				<title>Sheet.1323</title>
				<desc>/data/nas /data/blob</desc>
				<rect x="0" y="582.978" width="57.4839" height="29.0218" class="st8"/>
				<text x="4" y="594.49" class="st28">/data/nas <tspan x="4" dy="1.2em" class="st10">/data/blob</tspan></text>			</g>
			<g id="group1344-258" transform="translate(340.412,-2.64706)">
				<title>Sheet.1344</title>
				<g id="group1345-259">
					<title>Page-1</title>
					<g id="group1346-260">
						<title>Route Server.16885</title>
						<g id="group1347-261">
							<title>Sheet.1347</title>
							<g id="group1348-262">
								<title>Sheet.1348</title>
								<g id="shape1349-263">
									<title>Sheet.1349</title>
									<ellipse cx="14.9625" cy="597.038" rx="14.9625" ry="14.9625" class="st29"/>
								</g>
							</g>
							<g id="group1350-265" transform="translate(11.0086,-2.19259)">
								<title>Sheet.1350</title>
								<g id="shape1351-266" transform="translate(602.946,595.386) rotate(90)">
									<title>Sheet.1351</title>
									<path d="M0.04 590.26 L3.55 586.13 a0.416398 0.490426 0 0 1 0.590277 0 L7.64 590.26 a0.186083
												 0.219165 0 0 1 -0.131173 0.375454 L5.35 590.63 a0.186083 0.219165 -180 0 0 -0.186083
												 0.220961 L5.17 596.01 a0.152527 0.179643 0 0 1 -0.152527 0.179643 L2.67 596.19 a0.152527
												 0.179643 0 0 1 -0.152527 -0.179643 L2.51 590.85 a0.186083 0.219165 -180 0 0 -0.184558
												 -0.220961 L0.17 590.63 a0.187608 0.220961 0 0 1 -0.132698 -0.375454 L0.04 590.26
												 ZM7.64 607.73 L4.14 611.86 a0.416398 0.490426 0 0 1 -0.590277 0 L0.04 607.73 a0.187608
												 0.220961 0 0 1 0.132698 -0.375454 L2.33 607.35 a0.186083 0.219165 -180 0 0 0.186083
												 -0.220961 L2.51 601.97 a0.152527 0.179643 0 0 1 0.152527 -0.179643 L5.02 601.79
												 a0.152527 0.179643 0 0 1 0.152527 0.179643 L5.18 607.13 a0.186083 0.219165 -180
												 0 0 0.186083 0.220961 L7.51 607.35 a0.186083 0.219165 0 0 1 0.131173 0.375454 L7.64
												 607.73 Z" class="st30"/>
								</g>
							</g>
							<g id="group1352-268" transform="translate(-592.977,584.124) rotate(-90) scale(-1,1)">
								<title>Sheet.1352</title>
								<g id="shape1353-269">
									<title>Sheet.1353</title>
									<path d="M19.89 611.96 L15.76 608.25 a0.490426 0.439912 0 0 1 1.77636E-15 -0.62361 L19.89 603.92
												 a0.219165 0.196591 0 0 1 0.375454 0.138581 L20.27 606.34 a0.220961 0.198202 -180
												 0 0 0.219165 0.198202 L25.65 606.54 a0.179643 0.16114 0 0 1 0.179643 0.16114 L25.83
												 609.18 a0.179643 0.16114 0 0 1 -0.179643 0.16114 L20.49 609.34 a0.219165 0.196591
												 -180 0 0 -0.219165 0.196591 L20.27 611.82 a0.220961 0.198202 0 0 1 -0.375454 0.136969
												 L19.89 611.96 ZM5.94 603.92 L10.07 607.63 a0.490426 0.439912 0 0 1 1.06581E-14 0.62361
												 L5.94 611.96 a0.220961 0.198202 0 0 1 -0.375454 -0.140192 L5.56 609.54 a0.219165
												 0.196591 -180 0 0 -0.219165 -0.196591 L0.18 609.34 a0.179643 0.16114 0 0 1 -0.179643
												 -0.16114 L0 606.69 a0.179643 0.16114 0 0 1 0.179643 -0.16114 L5.34 606.53 a0.220961
												 0.198202 -180 0 0 0.219165 -0.198202 L5.56 604.06 a0.219165 0.196591 0 0 1 0.375454
												 -0.138581 L5.94 603.92 Z" class="st31"/>
								</g>
							</g>
						</g>
					</g>
				</g>
			</g>
			<g id="shape1365-271" transform="translate(29.9496,-178.412)">
				<title>Sheet.1365</title>
				<desc>Azure subscription</desc>
				<rect x="0" y="596.449" width="104.143" height="15.5515" class="st8"/>
				<text x="4" y="607.52" class="st13">Azure subscription</text>			</g>
			<g id="group1377-274">
				<title>Sheet.1377</title>
				<g id="group1290-275" transform="translate(29.1176,-12.7059)">
					<title>Vnet_hexbck.1290</title>
					<g id="shape1291-276" transform="translate(3.87558,-0.932567)">
						<title>Hexagon.1255</title>
						<path d="M12.48 599.78 L3.34 599.78 L-1.22 605.89 L3.34 612 L12.48 612 L17.05 605.89 L12.48 599.78 Z"
								class="st32"/>
					</g>
					<g id="group1292-278">
						<title>Sheet.1292</title>
						<g id="group1293-279" transform="translate(5.88364,-5.96604)">
							<title>Sheet.1293</title>
							<g id="shape1294-280">
								<title>Sheet.1294</title>
								<path d="M12.23 610.92 A1.51278 1.50952 90 1 1 10.72 609.41 A1.51148 1.50822 90 0 1 12.23 610.92
											 ZM5.89 609.42 A1.51278 1.50952 -90 1 0 7.4 610.93 A1.51148 1.50822 -90 0 0 5.89 609.42
											 ZM1.07 609.42 A1.51278 1.50952 -90 1 0 2.58 610.93 A1.51278 1.50952 -90 0 0 1.07 609.42
											 L1.07 609.42 Z" class="st33"/>
							</g>
						</g>
						<g id="group1295-284" transform="translate(0.00521395,0)">
							<title>Sheet.1295</title>
							<g id="shape1296-285">
								<title>Sheet.1296</title>
								<path d="M8.05 611.02 L7.19 611.89 a0.391913 0.391067 90 0 1 -0.55271 0 L0.23 605.49 a0.783827 0.782134
											 90 0 1 -7.77156E-16 -1.10907 L1.09 603.51 L8.05 610.46 a0.391913 0.391067 90 0 1 -1.77636E-14
											 0.55521 L8.05 611.02 Z" class="st34"/>
							</g>
						</g>
						<g id="group1297-287" transform="translate(0,-5.65893)">
							<title>Sheet.1297</title>
							<g id="shape1298-288">
								<title>Sheet.1298</title>
								<path d="M7.06 603.7 L7.93 604.58 a0.391913 0.391067 90 0 1 -2.66454E-15 0.55521 L1.1 612 L0.23 611.14
											 a0.783827 0.782134 90 0 1 1.11022E-16 -1.10907 L6.52 603.71 a0.391913 0.391067 90 0
											 1 0.554014 0 L7.06 603.7 Z" class="st35"/>
							</g>
						</g>
						<g id="group1299-290" transform="translate(15.2878,-0.00261275)">
							<title>Sheet.1299</title>
							<g id="shape1300-291">
								<title>Sheet.1300</title>
								<path d="M7.07 603.51 L7.94 604.38 a0.783827 0.782134 90 0 1 0 1.10907 L1.53 611.89 a0.391913 0.391067
											 90 0 1 -0.55271 0 L0.11 611.02 a0.391913 0.391067 90 0 1 -3.88578E-15 -0.553902 L7.07
											 603.51 Z" class="st34"/>
							</g>
						</g>
						<g id="group1301-293" transform="translate(15.4129,-5.66282)">
							<title>Sheet.1301</title>
							<g id="shape1302-294">
								<title>Sheet.1302</title>
								<path d="M7.82 611.14 L6.95 612 L0.11 605.13 a0.391913 0.391067 90 0 1 -7.99361E-15 -0.553902 L0.99
											 603.7 a0.391913 0.391067 90 0 1 0.55271 0 L7.82 610.02 a0.783827 0.782134 90 0 1 -0.00413832
											 1.10907 L7.82 611.14 Z" class="st35"/>
							</g>
						</g>
					</g>
				</g>
				<g id="shape1303-296">
					<title>Sheet.1303</title>
					<desc>Virtual network</desc>
					<rect x="0" y="600.655" width="87.75" height="11.3448" class="st8"/>
					<text x="10.27" y="609.33" class="st28">Virtual network</text>				</g>
			</g>
			<g id="group1378-299" transform="translate(37.5882,-21.7059)">
				<title>Sheet.1378</title>
				<g id="shape1278-300" transform="translate(2.77941,-23.6812)">
					<title>Sheet.1278</title>
					<rect x="0" y="496.8" width="123.75" height="115.2" class="st36"/>
				</g>
				<g id="group1306-302" transform="translate(90,0)">
					<title>Sheet.1306</title>
					<g id="group1280-303" transform="translate(10.8739,-12.265)">
						<title>subnet-hexbck.1280</title>
						<g id="shape1281-304" transform="translate(3.6,-6.86253)">
							<title>Hexagon.2378</title>
							<path d="M11.98 602.72 L3.21 602.72 L-1.17 607.36 L3.21 612 L11.98 612 L16.36 607.36 L11.98 602.72 Z"
									class="st1"/>
						</g>
						<g id="group1282-306">
							<title>Sheet.1282</title>
							<g id="group1283-307">
								<title>Sheet.1283</title>
								<g id="shape1284-308" transform="translate(10.5603,-10.3114)">
									<title>Sheet.1284</title>
									<path d="M1 609.57 A1.41925 1.41925 -180 1 0 2.42 610.99 A1.41925 1.41925 -180 0 0 1 609.57 Z"
											class="st37"/>
								</g>
								<g id="group1285-312">
									<title>Sheet.1285</title>
									<g id="shape1286-313" transform="translate(438.567,1029.61) rotate(134.919)">
										<title>Sheet.1286</title>
										<path d="M3.22 603.95 L4.19 603.95 a0.308863 0.308863 0 0 1 0.308863 0.308863 L4.49 611.38
													 a0.617727 0.617727 0 0 1 -0.617727 0.617727 L2.91 612 L2.91 604.26 a0.308863
													 0.308863 0 0 1 0.308863 -0.309951 Z" class="st20"/>
									</g>
									<g id="shape1287-315" transform="translate(432.137,165.258) rotate(44.919)">
										<title>Sheet.1287</title>
										<path d="M3.17 604.06 L4.13 604.06 a0.308863 0.308863 0 0 1 0.308863 0.308863 L4.44 612 L3.48
													 612 a0.617727 0.617727 0 0 1 -0.617727 -0.617727 L2.86 604.37 a0.308863 0.308863
													 0 0 1 0.308863 -0.308863 L3.17 604.06 Z" class="st38"/>
									</g>
									<g id="shape1288-317" transform="translate(436.912,162.401) rotate(45.081)">
										<title>Sheet.1288</title>
										<path d="M15.08 603.95 L16.05 603.95 a0.617727 0.617727 0 0 1 0.617727 0.617727 L16.66 611.69
													 a0.308863 0.308863 0 0 1 -0.308863 0.308863 L15.39 612 a0.308863 0.308863 0
													 0 1 -0.308863 -0.308863 L15.08 603.95 Z" class="st20"/>
									</g>
									<g id="shape1289-319" transform="translate(458.273,1017.69) rotate(135.081)">
										<title>Sheet.1289</title>
										<path d="M15.75 604.06 L16.72 604.06 L16.72 611.69 a0.308863 0.308863 0 0 1 -0.308863 0.308863
													 L15.44 612 a0.308863 0.308863 0 0 1 -0.308863 -0.308863 L15.13 604.68 a0.617727
													 0.617727 0 0 1 0.617727 -0.617727 L15.75 604.06 Z" class="st38"/>
									</g>
								</g>
							</g>
						</g>
					</g>
					<g id="shape1304-321" transform="translate(0,-5.07477)">
						<title>Sheet.1304</title>
						<desc>Subnet</desc>
						<rect x="0" y="597.925" width="45.99" height="14.0748" class="st8"/>
						<text x="7.43" y="607.96" class="st28">Subnet</text>					</g>
				</g>
			</g>
			<g id="group1379-324" transform="translate(240.123,-21.7059)">
				<title>Sheet.1379</title>
				<g id="shape1305-325" transform="translate(4.995,-23.6812)">
					<title>Sheet.1305</title>
					<rect x="0" y="496.8" width="123.75" height="115.2" class="st36"/>
				</g>
				<g id="group1307-327">
					<title>Sheet.1307</title>
					<g id="group1308-328" transform="translate(10.8739,-12.265)">
						<title>subnet-hexbck.1280</title>
						<g id="shape1309-329" transform="translate(3.6,-6.86253)">
							<title>Hexagon.2378</title>
							<path d="M11.98 602.72 L3.21 602.72 L-1.17 607.36 L3.21 612 L11.98 612 L16.36 607.36 L11.98 602.72 Z"
									class="st1"/>
						</g>
						<g id="group1310-331">
							<title>Sheet.1310</title>
							<g id="group1311-332">
								<title>Sheet.1311</title>
								<g id="shape1312-333" transform="translate(10.5603,-10.3114)">
									<title>Sheet.1312</title>
									<path d="M1 609.57 A1.41925 1.41925 -180 1 0 2.42 610.99 A1.41925 1.41925 -180 0 0 1 609.57 Z"
											class="st37"/>
								</g>
								<g id="group1313-336">
									<title>Sheet.1313</title>
									<g id="shape1314-337" transform="translate(438.567,1029.61) rotate(134.919)">
										<title>Sheet.1314</title>
										<path d="M3.22 603.95 L4.19 603.95 a0.308863 0.308863 0 0 1 0.308863 0.308863 L4.49 611.38
													 a0.617727 0.617727 0 0 1 -0.617727 0.617727 L2.91 612 L2.91 604.26 a0.308863
													 0.308863 0 0 1 0.308863 -0.309951 Z" class="st20"/>
									</g>
									<g id="shape1315-339" transform="translate(432.137,165.258) rotate(44.919)">
										<title>Sheet.1315</title>
										<path d="M3.17 604.06 L4.13 604.06 a0.308863 0.308863 0 0 1 0.308863 0.308863 L4.44 612 L3.48
													 612 a0.617727 0.617727 0 0 1 -0.617727 -0.617727 L2.86 604.37 a0.308863 0.308863
													 0 0 1 0.308863 -0.308863 L3.17 604.06 Z" class="st38"/>
									</g>
									<g id="shape1316-341" transform="translate(436.912,162.401) rotate(45.081)">
										<title>Sheet.1316</title>
										<path d="M15.08 603.95 L16.05 603.95 a0.617727 0.617727 0 0 1 0.617727 0.617727 L16.66 611.69
													 a0.308863 0.308863 0 0 1 -0.308863 0.308863 L15.39 612 a0.308863 0.308863 0
													 0 1 -0.308863 -0.308863 L15.08 603.95 Z" class="st20"/>
									</g>
									<g id="shape1317-343" transform="translate(458.273,1017.69) rotate(135.081)">
										<title>Sheet.1317</title>
										<path d="M15.75 604.06 L16.72 604.06 L16.72 611.69 a0.308863 0.308863 0 0 1 -0.308863 0.308863
													 L15.44 612 a0.308863 0.308863 0 0 1 -0.308863 -0.308863 L15.13 604.68 a0.617727
													 0.617727 0 0 1 0.617727 -0.617727 L15.75 604.06 Z" class="st38"/>
									</g>
								</g>
							</g>
						</g>
					</g>
					<g id="shape1318-345" transform="translate(0,-5.07477)">
						<title>Sheet.1318</title>
						<desc>Subnet</desc>
						<rect x="0" y="597.925" width="45.99" height="14.0748" class="st8"/>
						<text x="7.43" y="607.96" class="st28">Subnet</text>					</g>
				</g>
			</g>
		</g>
		<g id="shape1375-348" transform="translate(491.625,-35.4375)">
			<title>Sheet.1375</title>
			<path d="M0 612 L348.88 612 L348.88 398.25 L0 398.25 L0 612 Z" class="st39"/>
		</g>
		<g id="group1070-350" transform="translate(789.353,-223.941)">
			<title>On Premises.1070</title>
			<g id="group1071-351">
				<title>Sheet.1071</title>
				<g id="shape1072-352">
					<title>Sheet.1072</title>
					<path d="M21.75 563.25 L21.75 552.75 L0 552.75 L0 612 L37.5 612 L37.5 575.25 L35.25 575.25 L35.25 569.25 L33
								 569.25 L33 563.25 L30.75 563.25 L30.75 556.5 L24 556.5 L24 563.25 L21.75 563.25 Z" class="st25"/>
				</g>
				<g id="shape1073-354" transform="translate(2.25,-2.25)">
					<title>Sheet.1073</title>
					<path d="M30.75 579.75 L30.75 573.75 L28.5 573.75 L28.5 567.75 L26.25 567.75 L26.25 561 L24 561 L24 567.75 L21.75
								 567.75 L21.75 573.75 L19.5 573.75 L19.5 579.75 L17.25 579.75 L17.25 557.25 L0 557.25 L0 612 L33
								 612 L33 579.75 L30.75 579.75 ZM6.75 598.5 L3.75 598.5 L3.75 595.5 L6.75 595.5 L6.75 598.5 ZM6.75
								 591.75 L3.75 591.75 L3.75 588.75 L6.75 588.75 L6.75 591.75 ZM6.75 585 L3.75 585 L3.75 582 L6.75
								 582 L6.75 585 ZM6.75 578.25 L3.75 578.25 L3.75 575.25 L6.75 575.25 L6.75 578.25 ZM6.75 571.5 L3.75
								 571.5 L3.75 568.5 L6.75 568.5 L6.75 571.5 ZM6.75 564.75 L3.75 564.75 L3.75 561.75 L6.75 561.75 L6.75
								 564.75 ZM13.5 598.5 L10.5 598.5 L10.5 595.5 L13.5 595.5 L13.5 598.5 ZM13.5 591.75 L10.5 591.75 L10.5
								 588.75 L13.5 588.75 L13.5 591.75 ZM13.5 585 L10.5 585 L10.5 582 L13.5 582 L13.5 585 ZM13.5 578.25
								 L10.5 578.25 L10.5 575.25 L13.5 575.25 L13.5 578.25 ZM13.5 571.5 L10.5 571.5 L10.5 568.5 L13.5 568.5
								 L13.5 571.5 ZM13.5 564.75 L10.5 564.75 L10.5 561.75 L13.5 561.75 L13.5 564.75 ZM23.25 596.25 L20.25
								 596.25 L20.25 593.25 L23.25 593.25 L23.25 596.25 ZM23.25 585.75 L20.25 585.75 L20.25 582.75 L23.25
								 582.75 L23.25 585.75 ZM29.25 591 L26.25 591 L26.25 588 L29.25 588 L29.25 591 Z" class="st40"/>
				</g>
			</g>
		</g>
		<g id="shape1266-356" transform="translate(681.353,-245.812)">
			<title>Sheet.1266</title>
			<desc>Customer datacenter</desc>
			<rect x="0" y="585.991" width="112.5" height="26.0089" class="st8"/>
			<text x="5.4" y="602.3" class="st13">Customer datacenter</text>		</g>
		<g id="shape1263-359" transform="translate(652.765,-51.75)">
			<title>Sheet.1263</title>
			<desc>Network attached storage</desc>
			<rect x="0" y="588.34" width="103.5" height="23.6596" class="st8"/>
			<text x="8.45" y="596.87" class="st13">Network attached <tspan x="33.5" dy="1.2em" class="st10">storage</tspan></text>		</g>
		<g id="group1269-363" transform="translate(764.471,-72.5294)">
			<title>Sheet.1269</title>
			<g id="group1242-364" transform="translate(18,-18.619)">
				<title>Sheet.1242</title>
				<g id="group1243-365">
					<title>Page-1</title>
					<g id="group1244-366">
						<title>Virtual Machine (Classic).10710</title>
						<g id="group1245-367">
							<title>Icon-compute-28</title>
							<g id="group1246-368" transform="translate(0,-8.33956)">
								<title>Sheet.1246</title>
								<g id="shape1247-369">
									<title>Sheet.1247</title>
									<path d="M0 610.92 A1.10943 1.08074 -0 0 0 1.11 612 L32.17 612 A1.10943 1.08074 -0 0 0 33.28
												 610.92 L33.28 591.46 A1.10943 1.08074 -0 0 0 32.17 590.38 L1.11 590.38 A1.10943
												 1.08074 -0 0 0 -0 591.46 L0 610.92 Z" class="st41"/>
								</g>
							</g>
							<g id="group1248-373" transform="translate(1.84901,-10.1408)">
								<title>Sheet.1248</title>
								<g id="shape1249-374">
									<title>Sheet.1249</title>
									<path d="M-0 611.41 a0.610185 0.594411 -0 0 0 0.610544 0.592932 L28.97 612 a0.610185 0.594411
												 -0 0 0 0.610544 -0.592932 L29.58 594.58 a0.610185 0.594411 -0 0 0 -0.610544 -0.592932
												 L0.61 593.99 a0.610185 0.594411 -0 0 0 -0.610544 0.592932 L0 611.41 Z"
											class="st42"/>
								</g>
							</g>
							<g id="group1250-376" transform="translate(16.6411,-12.8425)">
								<title>Sheet.1250</title>
								<g id="shape1251-377">
									<title>Sheet.1251</title>
									<path d="M5.55 602.54 L5.55 608.83 L0 612 L0 605.69 L5.55 602.54 Z" class="st43"/>
								</g>
							</g>
							<g id="group1252-379" transform="translate(11.094,-19.1287)">
								<title>Sheet.1252</title>
								<g id="shape1253-380">
									<title>Sheet.1253</title>
									<path d="M11.1 608.83 L5.55 612 L0 608.83 L5.55 605.68 L11.1 608.83 Z" class="st44"/>
								</g>
							</g>
							<g id="group1254-382" transform="translate(11.094,-12.8425)">
								<title>Sheet.1254</title>
								<g id="shape1255-383">
									<title>Sheet.1255</title>
									<path d="M5.55 605.71 L5.55 612 L0 608.83 L0 602.54 L5.55 605.71 Z" class="st45"/>
								</g>
							</g>
							<g id="group1256-385" transform="translate(11.094,-12.8425)">
								<title>Sheet.1256</title>
								<g id="shape1257-386">
									<title>Sheet.1257</title>
									<path d="M0 608.83 L5.55 605.69 L5.55 612 L0 608.83 Z" class="st46"/>
								</g>
							</g>
							<g id="group1258-388" transform="translate(16.6411,-12.8425)">
								<title>Sheet.1258</title>
								<g id="shape1259-389">
									<title>Sheet.1259</title>
									<path d="M5.55 608.83 L0 605.69 L0 612 L5.55 608.83 Z" class="st47"/>
								</g>
							</g>
							<g id="group1260-391" transform="translate(8.32053,1.13687E-13)">
								<title>Sheet.1260</title>
								<g id="shape1261-392">
									<title>Sheet.1261</title>
									<path d="M14.98 610.2 C11.71 609.69 11.58 607.37 11.58 603.66 L5.05 603.66 C5.05 607.37 4.92
												 609.69 1.64 610.2 A1.84901 1.8012 -0 0 0 0 612 L16.64 612 A1.84901 1.8012 -0 0 0
												 14.98 610.2 Z" class="st48"/>
								</g>
							</g>
						</g>
					</g>
				</g>
			</g>
			<g id="shape1264-396">
				<title>Sheet.1264</title>
				<desc>VFX artists</desc>
				<rect x="0" y="593.767" width="72" height="18.2332" class="st8"/>
				<text x="10.71" y="606.18" class="st13">VFX artists</text>			</g>
		</g>
		<g id="shape1325-399" transform="translate(603.734,-105.797)">
			<title>Directed line 1.1325</title>
			<path d="M7.68 612 L8.04 612 L70.93 612" class="st17"/>
		</g>
		<g id="shape1326-406" transform="translate(722.647,-105.797)">
			<title>Directed line 1.1326</title>
			<path d="M7.68 612 L8.04 612 L52.94 612" class="st49"/>
		</g>
		<g id="shape1330-411" transform="translate(1077.26,-1.98478) rotate(45.1342)">
			<title>Directed line 1.1330</title>
			<path d="M7.68 612 L8.04 612 L51.9 612" class="st17"/>
		</g>
		<g id="shape1331-418" transform="translate(611.718,-104.055)">
			<title>Sheet.1331</title>
			<desc>&#60;- NFS -&#62;</desc>
			<rect x="0" y="593.767" width="63" height="18.2332" class="st8"/>
			<text x="6.34" y="605.88" class="st28">&#60;-  NFS  -&#62;</text>		</g>
		<g id="shape1328-421" transform="translate(626,-182)">
			<title>Sheet.1328</title>
			<desc>Azure FXT Edge Filer</desc>
			<rect x="0" y="573.667" width="83.625" height="38.3333" class="st8"/>
			<text x="17.56" y="589.53" class="st13">Azure FXT <tspan x="18.03" dy="1.2em" class="st10">Edge Filer</tspan></text>		</g>
		<g id="group1342-425" transform="translate(588.805,-183.176)">
			<title>Sheet.1342</title>
			<g id="group1327-426">
				<title>Sheet.1327</title>
				<g id="shape1324-427">
					<title>Sheet.1324</title>
					<rect x="0" y="573.979" width="48.7016" height="38.0214" class="st50"/>
				</g>
				<g id="group1270-429" transform="translate(9.97735,-10.5837)">
					<title>Folder.1270</title>
					<g id="shape1271-430">
						<title>Sheet.1271</title>
						<path d="M20.73 612 C21.38 612 21.91 611.47 21.91 610.82 L21.91 598.97 C21.91 598.32 21.38 597.79 20.73 597.79
									 L10.66 597.79 L7.4 595.63 C7.22 595.48 6.99 595.42 6.75 595.42 L1.18 595.42 C0.53 595.42 0 595.95
									 0 596.6 L0 610.82 C0 611.47 0.53 612 1.18 612 L20.73 612 Z" class="st51"/>
					</g>
				</g>
			</g>
			<g id="group1341-432" transform="translate(16.4819,-7.07798)">
				<title>Sheet.1341</title>
				<g id="shape1334-433" transform="translate(-2.19824E-14,-5.0648)">
					<title>Sheet.1334</title>
					<path d="M0 612 L23.92 612 L23.92 607.24 L0 607.24 L0 612 Z" class="st52"/>
				</g>
				<g id="shape1335-435" transform="translate(-2.19824E-14,-10.1296)">
					<title>Sheet.1335</title>
					<path d="M0 612 L23.92 612 L23.92 607.24 L0 607.24 L0 612 Z" class="st52"/>
				</g>
				<g id="shape1337-437" transform="translate(20.4534,-11.4353)">
					<title>Sheet.1337</title>
					<path d="M2.32 610.85 C2.32 611.48 1.8 612 1.16 612 C0.52 612 0 611.48 0 610.85 C0 610.21 0.52 609.69 1.16 609.69
								 C1.8 609.69 2.32 610.21 2.32 610.85 Z" class="st53"/>
				</g>
				<g id="shape1338-439" transform="translate(20.2607,-6.23563)">
					<title>Sheet.1338</title>
					<path d="M2.32 610.85 C2.32 611.48 1.8 612 1.16 612 C0.52 612 0 611.48 0 610.85 C0 610.21 0.52 609.69 1.16 609.69
								 C1.8 609.69 2.32 610.21 2.32 610.85 Z" class="st53"/>
				</g>
				<g id="shape1339-441">
					<title>Sheet.1339</title>
					<path d="M0 612 L23.92 612 L23.92 607.24 L0 607.24 L0 612 Z" class="st52"/>
				</g>
				<g id="shape1340-443" transform="translate(20.227,-1.22594)">
					<title>Sheet.1340</title>
					<path d="M2.32 610.85 C2.32 611.48 1.8 612 1.16 612 C0.52 612 0 611.48 0 610.85 C0 610.21 0.52 609.69 1.16 609.69
								 C1.8 609.69 2.32 610.21 2.32 610.85 Z" class="st53"/>
				</g>
			</g>
		</g>
		<g id="group1367-445" transform="translate(503.471,-46.0588)">
			<title>Sheet.1367</title>
			<g id="group1110-446" transform="translate(11.6684,-23.6988)">
				<title>Sheet.1110</title>
				<g id="group1111-447" transform="translate(0,-52.0593)">
					<title>Sheet.1111</title>
					<g id="group1112-448">
						<title>Sheet.1112</title>
						<g id="shape1113-449" transform="translate(0.499762,-0.576746)">
							<title>Sheet.1113</title>
							<rect x="0" y="588.296" width="26.4876" height="23.7039" class="st54"/>
						</g>
						<g id="shape1114-451" transform="translate(0.000382373,-15.8631)">
							<title>Sheet.1114</title>
							<path d="M3.89 606.58 C3.42 606.58 3.04 606.96 3.04 607.44 C3.04 607.91 3.42 608.29 3.89 608.29 C4.37
										 608.29 4.75 607.91 4.75 607.44 C4.75 606.96 4.37 606.58 3.89 606.58 ZM3.89 609.25 C2.89
										 609.25 2.08 608.44 2.08 607.44 C2.08 606.44 2.89 605.62 3.89 605.62 C4.89 605.62 5.71 606.44
										 5.71 607.44 C5.71 608.44 4.89 609.25 3.89 609.25 ZM0.96 611.04 L26.46 611.04 L26.46 603.9
										 L0.96 603.9 L0.96 611.04 ZM26.57 612 L0.84 612 C0.38 612 0 611.62 0 611.16 L0 603.79 C0
										 603.32 0.38 602.94 0.84 602.94 L27.42 602.94 L27.42 611.16 C27.42 611.62 27.04 612 26.57
										 612 Z" class="st55"/>
						</g>
						<g id="shape1115-453" transform="translate(0,-7.9821)">
							<title>Sheet.1115</title>
							<path d="M3.86 606.57 C3.38 606.57 3 606.96 3 607.43 C3 607.91 3.38 608.29 3.86 608.29 C4.33 608.29 4.72
										 607.91 4.72 607.43 C4.72 606.96 4.33 606.57 3.86 606.57 ZM3.86 609.25 C2.86 609.25 2.04
										 608.43 2.04 607.43 C2.04 606.43 2.86 605.62 3.86 605.62 C4.86 605.62 5.67 606.43 5.67 607.43
										 C5.67 608.43 4.86 609.25 3.86 609.25 ZM0.96 611.04 L26.46 611.04 L26.46 604.14 L0.96 604.14
										 L0.96 611.04 ZM26.57 612 L0.84 612 C0.38 612 0 611.62 0 611.16 L0 604.03 C0 603.56 0.38
										 603.19 0.84 603.19 L26.57 603.19 C27.04 603.19 27.42 603.56 27.42 604.03 L27.42 611.16 C27.42
										 611.62 27.04 612 26.57 612 Z" class="st55"/>
						</g>
						<g id="shape1116-455">
							<title>Sheet.1116</title>
							<path d="M3.86 606.4 C3.38 606.4 3 606.78 3 607.26 C3 607.73 3.38 608.11 3.86 608.11 C4.33 608.11 4.72
										 607.73 4.72 607.26 C4.72 606.78 4.33 606.4 3.86 606.4 ZM3.86 609.07 C2.86 609.07 2.04 608.26
										 2.04 607.26 C2.04 606.26 2.86 605.44 3.86 605.44 C4.86 605.44 5.67 606.26 5.67 607.26 C5.67
										 608.26 4.86 609.07 3.86 609.07 ZM0.96 611.04 L26.46 611.04 L26.46 604 L0.96 604 L0.96 611.04
										 ZM26.57 612 L0 612 L0 603.89 C0 603.42 0.38 603.05 0.84 603.05 L26.57 603.05 C27.04 603.05
										 27.42 603.42 27.42 603.89 L27.42 611.16 C27.42 611.62 27.04 612 26.57 612 Z" class="st55"/>
						</g>
					</g>
				</g>
				<g id="group1117-457" transform="translate(28.1697,-52.0593)">
					<title>Sheet.1117</title>
					<g id="group1118-458">
						<title>Sheet.1118</title>
						<g id="shape1119-459" transform="translate(0.499762,-0.576746)">
							<title>Sheet.1119</title>
							<rect x="0" y="588.296" width="26.4876" height="23.7039" class="st54"/>
						</g>
						<g id="shape1120-461" transform="translate(0.000382373,-15.8631)">
							<title>Sheet.1120</title>
							<path d="M3.89 606.58 C3.42 606.58 3.04 606.96 3.04 607.44 C3.04 607.91 3.42 608.29 3.89 608.29 C4.37
										 608.29 4.75 607.91 4.75 607.44 C4.75 606.96 4.37 606.58 3.89 606.58 ZM3.89 609.25 C2.89
										 609.25 2.08 608.44 2.08 607.44 C2.08 606.44 2.89 605.62 3.89 605.62 C4.89 605.62 5.71 606.44
										 5.71 607.44 C5.71 608.44 4.89 609.25 3.89 609.25 ZM0.96 611.04 L26.46 611.04 L26.46 603.9
										 L0.96 603.9 L0.96 611.04 ZM26.57 612 L0.84 612 C0.38 612 0 611.62 0 611.16 L0 603.79 C0
										 603.32 0.38 602.94 0.84 602.94 L27.42 602.94 L27.42 611.16 C27.42 611.62 27.04 612 26.57
										 612 Z" class="st55"/>
						</g>
						<g id="shape1121-463" transform="translate(0,-7.9821)">
							<title>Sheet.1121</title>
							<path d="M3.86 606.57 C3.38 606.57 3 606.96 3 607.43 C3 607.91 3.38 608.29 3.86 608.29 C4.33 608.29 4.72
										 607.91 4.72 607.43 C4.72 606.96 4.33 606.57 3.86 606.57 ZM3.86 609.25 C2.86 609.25 2.04
										 608.43 2.04 607.43 C2.04 606.43 2.86 605.62 3.86 605.62 C4.86 605.62 5.67 606.43 5.67 607.43
										 C5.67 608.43 4.86 609.25 3.86 609.25 ZM0.96 611.04 L26.46 611.04 L26.46 604.14 L0.96 604.14
										 L0.96 611.04 ZM26.57 612 L0.84 612 C0.38 612 0 611.62 0 611.16 L0 604.03 C0 603.56 0.38
										 603.19 0.84 603.19 L26.57 603.19 C27.04 603.19 27.42 603.56 27.42 604.03 L27.42 611.16 C27.42
										 611.62 27.04 612 26.57 612 Z" class="st55"/>
						</g>
						<g id="shape1122-465">
							<title>Sheet.1122</title>
							<path d="M3.86 606.4 C3.38 606.4 3 606.78 3 607.26 C3 607.73 3.38 608.11 3.86 608.11 C4.33 608.11 4.72
										 607.73 4.72 607.26 C4.72 606.78 4.33 606.4 3.86 606.4 ZM3.86 609.07 C2.86 609.07 2.04 608.26
										 2.04 607.26 C2.04 606.26 2.86 605.44 3.86 605.44 C4.86 605.44 5.67 606.26 5.67 607.26 C5.67
										 608.26 4.86 609.07 3.86 609.07 ZM0.96 611.04 L26.46 611.04 L26.46 604 L0.96 604 L0.96 611.04
										 ZM26.57 612 L0 612 L0 603.89 C0 603.42 0.38 603.05 0.84 603.05 L26.57 603.05 C27.04 603.05
										 27.42 603.42 27.42 603.89 L27.42 611.16 C27.42 611.62 27.04 612 26.57 612 Z" class="st55"/>
						</g>
					</g>
				</g>
				<g id="group1123-467" transform="translate(56.3394,-52.0593)">
					<title>Sheet.1123</title>
					<g id="group1124-468">
						<title>Sheet.1124</title>
						<g id="shape1125-469" transform="translate(0.499762,-0.576746)">
							<title>Sheet.1125</title>
							<rect x="0" y="588.296" width="26.4876" height="23.7039" class="st54"/>
						</g>
						<g id="shape1126-471" transform="translate(0.000382373,-15.8631)">
							<title>Sheet.1126</title>
							<path d="M3.89 606.58 C3.42 606.58 3.04 606.96 3.04 607.44 C3.04 607.91 3.42 608.29 3.89 608.29 C4.37
										 608.29 4.75 607.91 4.75 607.44 C4.75 606.96 4.37 606.58 3.89 606.58 ZM3.89 609.25 C2.89
										 609.25 2.08 608.44 2.08 607.44 C2.08 606.44 2.89 605.62 3.89 605.62 C4.89 605.62 5.71 606.44
										 5.71 607.44 C5.71 608.44 4.89 609.25 3.89 609.25 ZM0.96 611.04 L26.46 611.04 L26.46 603.9
										 L0.96 603.9 L0.96 611.04 ZM26.57 612 L0.84 612 C0.38 612 0 611.62 0 611.16 L0 603.79 C0
										 603.32 0.38 602.94 0.84 602.94 L27.42 602.94 L27.42 611.16 C27.42 611.62 27.04 612 26.57
										 612 Z" class="st55"/>
						</g>
						<g id="shape1127-473" transform="translate(0,-7.9821)">
							<title>Sheet.1127</title>
							<path d="M3.86 606.57 C3.38 606.57 3 606.96 3 607.43 C3 607.91 3.38 608.29 3.86 608.29 C4.33 608.29 4.72
										 607.91 4.72 607.43 C4.72 606.96 4.33 606.57 3.86 606.57 ZM3.86 609.25 C2.86 609.25 2.04
										 608.43 2.04 607.43 C2.04 606.43 2.86 605.62 3.86 605.62 C4.86 605.62 5.67 606.43 5.67 607.43
										 C5.67 608.43 4.86 609.25 3.86 609.25 ZM0.96 611.04 L26.46 611.04 L26.46 604.14 L0.96 604.14
										 L0.96 611.04 ZM26.57 612 L0.84 612 C0.38 612 0 611.62 0 611.16 L0 604.03 C0 603.56 0.38
										 603.19 0.84 603.19 L26.57 603.19 C27.04 603.19 27.42 603.56 27.42 604.03 L27.42 611.16 C27.42
										 611.62 27.04 612 26.57 612 Z" class="st55"/>
						</g>
						<g id="shape1128-475">
							<title>Sheet.1128</title>
							<path d="M3.86 606.4 C3.38 606.4 3 606.78 3 607.26 C3 607.73 3.38 608.11 3.86 608.11 C4.33 608.11 4.72
										 607.73 4.72 607.26 C4.72 606.78 4.33 606.4 3.86 606.4 ZM3.86 609.07 C2.86 609.07 2.04 608.26
										 2.04 607.26 C2.04 606.26 2.86 605.44 3.86 605.44 C4.86 605.44 5.67 606.26 5.67 607.26 C5.67
										 608.26 4.86 609.07 3.86 609.07 ZM0.96 611.04 L26.46 611.04 L26.46 604 L0.96 604 L0.96 611.04
										 ZM26.57 612 L0 612 L0 603.89 C0 603.42 0.38 603.05 0.84 603.05 L26.57 603.05 C27.04 603.05
										 27.42 603.42 27.42 603.89 L27.42 611.16 C27.42 611.62 27.04 612 26.57 612 Z" class="st55"/>
						</g>
					</g>
				</g>
				<g id="group1129-477" transform="translate(0,-26.0296)">
					<title>Sheet.1129</title>
					<g id="group1130-478">
						<title>Sheet.1130</title>
						<g id="shape1131-479" transform="translate(0.499762,-0.576746)">
							<title>Sheet.1131</title>
							<rect x="0" y="588.296" width="26.4876" height="23.7039" class="st54"/>
						</g>
						<g id="shape1132-481" transform="translate(0.000382373,-15.8631)">
							<title>Sheet.1132</title>
							<path d="M3.89 606.58 C3.42 606.58 3.04 606.96 3.04 607.44 C3.04 607.91 3.42 608.29 3.89 608.29 C4.37
										 608.29 4.75 607.91 4.75 607.44 C4.75 606.96 4.37 606.58 3.89 606.58 ZM3.89 609.25 C2.89
										 609.25 2.08 608.44 2.08 607.44 C2.08 606.44 2.89 605.62 3.89 605.62 C4.89 605.62 5.71 606.44
										 5.71 607.44 C5.71 608.44 4.89 609.25 3.89 609.25 ZM0.96 611.04 L26.46 611.04 L26.46 603.9
										 L0.96 603.9 L0.96 611.04 ZM26.57 612 L0.84 612 C0.38 612 0 611.62 0 611.16 L0 603.79 C0
										 603.32 0.38 602.94 0.84 602.94 L27.42 602.94 L27.42 611.16 C27.42 611.62 27.04 612 26.57
										 612 Z" class="st55"/>
						</g>
						<g id="shape1133-483" transform="translate(0,-7.9821)">
							<title>Sheet.1133</title>
							<path d="M3.86 606.57 C3.38 606.57 3 606.96 3 607.43 C3 607.91 3.38 608.29 3.86 608.29 C4.33 608.29 4.72
										 607.91 4.72 607.43 C4.72 606.96 4.33 606.57 3.86 606.57 ZM3.86 609.25 C2.86 609.25 2.04
										 608.43 2.04 607.43 C2.04 606.43 2.86 605.62 3.86 605.62 C4.86 605.62 5.67 606.43 5.67 607.43
										 C5.67 608.43 4.86 609.25 3.86 609.25 ZM0.96 611.04 L26.46 611.04 L26.46 604.14 L0.96 604.14
										 L0.96 611.04 ZM26.57 612 L0.84 612 C0.38 612 0 611.62 0 611.16 L0 604.03 C0 603.56 0.38
										 603.19 0.84 603.19 L26.57 603.19 C27.04 603.19 27.42 603.56 27.42 604.03 L27.42 611.16 C27.42
										 611.62 27.04 612 26.57 612 Z" class="st55"/>
						</g>
						<g id="shape1134-485">
							<title>Sheet.1134</title>
							<path d="M3.86 606.4 C3.38 606.4 3 606.78 3 607.26 C3 607.73 3.38 608.11 3.86 608.11 C4.33 608.11 4.72
										 607.73 4.72 607.26 C4.72 606.78 4.33 606.4 3.86 606.4 ZM3.86 609.07 C2.86 609.07 2.04 608.26
										 2.04 607.26 C2.04 606.26 2.86 605.44 3.86 605.44 C4.86 605.44 5.67 606.26 5.67 607.26 C5.67
										 608.26 4.86 609.07 3.86 609.07 ZM0.96 611.04 L26.46 611.04 L26.46 604 L0.96 604 L0.96 611.04
										 ZM26.57 612 L0 612 L0 603.89 C0 603.42 0.38 603.05 0.84 603.05 L26.57 603.05 C27.04 603.05
										 27.42 603.42 27.42 603.89 L27.42 611.16 C27.42 611.62 27.04 612 26.57 612 Z" class="st55"/>
						</g>
					</g>
				</g>
				<g id="group1135-487" transform="translate(28.1697,-26.0296)">
					<title>Sheet.1135</title>
					<g id="group1136-488">
						<title>Sheet.1136</title>
						<g id="shape1137-489" transform="translate(0.499762,-0.576746)">
							<title>Sheet.1137</title>
							<rect x="0" y="588.296" width="26.4876" height="23.7039" class="st54"/>
						</g>
						<g id="shape1138-491" transform="translate(0.000382373,-15.8631)">
							<title>Sheet.1138</title>
							<path d="M3.89 606.58 C3.42 606.58 3.04 606.96 3.04 607.44 C3.04 607.91 3.42 608.29 3.89 608.29 C4.37
										 608.29 4.75 607.91 4.75 607.44 C4.75 606.96 4.37 606.58 3.89 606.58 ZM3.89 609.25 C2.89
										 609.25 2.08 608.44 2.08 607.44 C2.08 606.44 2.89 605.62 3.89 605.62 C4.89 605.62 5.71 606.44
										 5.71 607.44 C5.71 608.44 4.89 609.25 3.89 609.25 ZM0.96 611.04 L26.46 611.04 L26.46 603.9
										 L0.96 603.9 L0.96 611.04 ZM26.57 612 L0.84 612 C0.38 612 0 611.62 0 611.16 L0 603.79 C0
										 603.32 0.38 602.94 0.84 602.94 L27.42 602.94 L27.42 611.16 C27.42 611.62 27.04 612 26.57
										 612 Z" class="st55"/>
						</g>
						<g id="shape1139-493" transform="translate(0,-7.9821)">
							<title>Sheet.1139</title>
							<path d="M3.86 606.57 C3.38 606.57 3 606.96 3 607.43 C3 607.91 3.38 608.29 3.86 608.29 C4.33 608.29 4.72
										 607.91 4.72 607.43 C4.72 606.96 4.33 606.57 3.86 606.57 ZM3.86 609.25 C2.86 609.25 2.04
										 608.43 2.04 607.43 C2.04 606.43 2.86 605.62 3.86 605.62 C4.86 605.62 5.67 606.43 5.67 607.43
										 C5.67 608.43 4.86 609.25 3.86 609.25 ZM0.96 611.04 L26.46 611.04 L26.46 604.14 L0.96 604.14
										 L0.96 611.04 ZM26.57 612 L0.84 612 C0.38 612 0 611.62 0 611.16 L0 604.03 C0 603.56 0.38
										 603.19 0.84 603.19 L26.57 603.19 C27.04 603.19 27.42 603.56 27.42 604.03 L27.42 611.16 C27.42
										 611.62 27.04 612 26.57 612 Z" class="st55"/>
						</g>
						<g id="shape1140-495">
							<title>Sheet.1140</title>
							<path d="M3.86 606.4 C3.38 606.4 3 606.78 3 607.26 C3 607.73 3.38 608.11 3.86 608.11 C4.33 608.11 4.72
										 607.73 4.72 607.26 C4.72 606.78 4.33 606.4 3.86 606.4 ZM3.86 609.07 C2.86 609.07 2.04 608.26
										 2.04 607.26 C2.04 606.26 2.86 605.44 3.86 605.44 C4.86 605.44 5.67 606.26 5.67 607.26 C5.67
										 608.26 4.86 609.07 3.86 609.07 ZM0.96 611.04 L26.46 611.04 L26.46 604 L0.96 604 L0.96 611.04
										 ZM26.57 612 L0 612 L0 603.89 C0 603.42 0.38 603.05 0.84 603.05 L26.57 603.05 C27.04 603.05
										 27.42 603.42 27.42 603.89 L27.42 611.16 C27.42 611.62 27.04 612 26.57 612 Z" class="st55"/>
						</g>
					</g>
				</g>
				<g id="group1141-497" transform="translate(56.3394,-26.0296)">
					<title>Sheet.1141</title>
					<g id="group1142-498">
						<title>Sheet.1142</title>
						<g id="shape1143-499" transform="translate(0.499762,-0.576746)">
							<title>Sheet.1143</title>
							<rect x="0" y="588.296" width="26.4876" height="23.7039" class="st54"/>
						</g>
						<g id="shape1144-501" transform="translate(0.000382373,-15.8631)">
							<title>Sheet.1144</title>
							<path d="M3.89 606.58 C3.42 606.58 3.04 606.96 3.04 607.44 C3.04 607.91 3.42 608.29 3.89 608.29 C4.37
										 608.29 4.75 607.91 4.75 607.44 C4.75 606.96 4.37 606.58 3.89 606.58 ZM3.89 609.25 C2.89
										 609.25 2.08 608.44 2.08 607.44 C2.08 606.44 2.89 605.62 3.89 605.62 C4.89 605.62 5.71 606.44
										 5.71 607.44 C5.71 608.44 4.89 609.25 3.89 609.25 ZM0.96 611.04 L26.46 611.04 L26.46 603.9
										 L0.96 603.9 L0.96 611.04 ZM26.57 612 L0.84 612 C0.38 612 0 611.62 0 611.16 L0 603.79 C0
										 603.32 0.38 602.94 0.84 602.94 L27.42 602.94 L27.42 611.16 C27.42 611.62 27.04 612 26.57
										 612 Z" class="st55"/>
						</g>
						<g id="shape1145-503" transform="translate(0,-7.9821)">
							<title>Sheet.1145</title>
							<path d="M3.86 606.57 C3.38 606.57 3 606.96 3 607.43 C3 607.91 3.38 608.29 3.86 608.29 C4.33 608.29 4.72
										 607.91 4.72 607.43 C4.72 606.96 4.33 606.57 3.86 606.57 ZM3.86 609.25 C2.86 609.25 2.04
										 608.43 2.04 607.43 C2.04 606.43 2.86 605.62 3.86 605.62 C4.86 605.62 5.67 606.43 5.67 607.43
										 C5.67 608.43 4.86 609.25 3.86 609.25 ZM0.96 611.04 L26.46 611.04 L26.46 604.14 L0.96 604.14
										 L0.96 611.04 ZM26.57 612 L0.84 612 C0.38 612 0 611.62 0 611.16 L0 604.03 C0 603.56 0.38
										 603.19 0.84 603.19 L26.57 603.19 C27.04 603.19 27.42 603.56 27.42 604.03 L27.42 611.16 C27.42
										 611.62 27.04 612 26.57 612 Z" class="st55"/>
						</g>
						<g id="shape1146-505">
							<title>Sheet.1146</title>
							<path d="M3.86 606.4 C3.38 606.4 3 606.78 3 607.26 C3 607.73 3.38 608.11 3.86 608.11 C4.33 608.11 4.72
										 607.73 4.72 607.26 C4.72 606.78 4.33 606.4 3.86 606.4 ZM3.86 609.07 C2.86 609.07 2.04 608.26
										 2.04 607.26 C2.04 606.26 2.86 605.44 3.86 605.44 C4.86 605.44 5.67 606.26 5.67 607.26 C5.67
										 608.26 4.86 609.07 3.86 609.07 ZM0.96 611.04 L26.46 611.04 L26.46 604 L0.96 604 L0.96 611.04
										 ZM26.57 612 L0 612 L0 603.89 C0 603.42 0.38 603.05 0.84 603.05 L26.57 603.05 C27.04 603.05
										 27.42 603.42 27.42 603.89 L27.42 611.16 C27.42 611.62 27.04 612 26.57 612 Z" class="st55"/>
						</g>
					</g>
				</g>
				<g id="group1147-507">
					<title>Sheet.1147</title>
					<g id="group1148-508">
						<title>Sheet.1148</title>
						<g id="shape1149-509" transform="translate(0.499762,-0.576746)">
							<title>Sheet.1149</title>
							<rect x="0" y="588.296" width="26.4876" height="23.7039" class="st54"/>
						</g>
						<g id="shape1150-511" transform="translate(0.000382373,-15.8631)">
							<title>Sheet.1150</title>
							<path d="M3.89 606.58 C3.42 606.58 3.04 606.96 3.04 607.44 C3.04 607.91 3.42 608.29 3.89 608.29 C4.37
										 608.29 4.75 607.91 4.75 607.44 C4.75 606.96 4.37 606.58 3.89 606.58 ZM3.89 609.25 C2.89
										 609.25 2.08 608.44 2.08 607.44 C2.08 606.44 2.89 605.62 3.89 605.62 C4.89 605.62 5.71 606.44
										 5.71 607.44 C5.71 608.44 4.89 609.25 3.89 609.25 ZM0.96 611.04 L26.46 611.04 L26.46 603.9
										 L0.96 603.9 L0.96 611.04 ZM26.57 612 L0.84 612 C0.38 612 0 611.62 0 611.16 L0 603.79 C0
										 603.32 0.38 602.94 0.84 602.94 L27.42 602.94 L27.42 611.16 C27.42 611.62 27.04 612 26.57
										 612 Z" class="st55"/>
						</g>
						<g id="shape1151-513" transform="translate(0,-7.9821)">
							<title>Sheet.1151</title>
							<path d="M3.86 606.57 C3.38 606.57 3 606.96 3 607.43 C3 607.91 3.38 608.29 3.86 608.29 C4.33 608.29 4.72
										 607.91 4.72 607.43 C4.72 606.96 4.33 606.57 3.86 606.57 ZM3.86 609.25 C2.86 609.25 2.04
										 608.43 2.04 607.43 C2.04 606.43 2.86 605.62 3.86 605.62 C4.86 605.62 5.67 606.43 5.67 607.43
										 C5.67 608.43 4.86 609.25 3.86 609.25 ZM0.96 611.04 L26.46 611.04 L26.46 604.14 L0.96 604.14
										 L0.96 611.04 ZM26.57 612 L0.84 612 C0.38 612 0 611.62 0 611.16 L0 604.03 C0 603.56 0.38
										 603.19 0.84 603.19 L26.57 603.19 C27.04 603.19 27.42 603.56 27.42 604.03 L27.42 611.16 C27.42
										 611.62 27.04 612 26.57 612 Z" class="st55"/>
						</g>
						<g id="shape1152-515">
							<title>Sheet.1152</title>
							<path d="M3.86 606.4 C3.38 606.4 3 606.78 3 607.26 C3 607.73 3.38 608.11 3.86 608.11 C4.33 608.11 4.72
										 607.73 4.72 607.26 C4.72 606.78 4.33 606.4 3.86 606.4 ZM3.86 609.07 C2.86 609.07 2.04 608.26
										 2.04 607.26 C2.04 606.26 2.86 605.44 3.86 605.44 C4.86 605.44 5.67 606.26 5.67 607.26 C5.67
										 608.26 4.86 609.07 3.86 609.07 ZM0.96 611.04 L26.46 611.04 L26.46 604 L0.96 604 L0.96 611.04
										 ZM26.57 612 L0 612 L0 603.89 C0 603.42 0.38 603.05 0.84 603.05 L26.57 603.05 C27.04 603.05
										 27.42 603.42 27.42 603.89 L27.42 611.16 C27.42 611.62 27.04 612 26.57 612 Z" class="st55"/>
						</g>
					</g>
				</g>
				<g id="group1153-517" transform="translate(28.1697,-3.41061E-13)">
					<title>Sheet.1153</title>
					<g id="group1154-518">
						<title>Sheet.1154</title>
						<g id="shape1155-519" transform="translate(0.499762,-0.576746)">
							<title>Sheet.1155</title>
							<rect x="0" y="588.296" width="26.4876" height="23.7039" class="st54"/>
						</g>
						<g id="shape1156-521" transform="translate(0.000382373,-15.8631)">
							<title>Sheet.1156</title>
							<path d="M3.89 606.58 C3.42 606.58 3.04 606.96 3.04 607.44 C3.04 607.91 3.42 608.29 3.89 608.29 C4.37
										 608.29 4.75 607.91 4.75 607.44 C4.75 606.96 4.37 606.58 3.89 606.58 ZM3.89 609.25 C2.89
										 609.25 2.08 608.44 2.08 607.44 C2.08 606.44 2.89 605.62 3.89 605.62 C4.89 605.62 5.71 606.44
										 5.71 607.44 C5.71 608.44 4.89 609.25 3.89 609.25 ZM0.96 611.04 L26.46 611.04 L26.46 603.9
										 L0.96 603.9 L0.96 611.04 ZM26.57 612 L0.84 612 C0.38 612 0 611.62 0 611.16 L0 603.79 C0
										 603.32 0.38 602.94 0.84 602.94 L27.42 602.94 L27.42 611.16 C27.42 611.62 27.04 612 26.57
										 612 Z" class="st55"/>
						</g>
						<g id="shape1157-523" transform="translate(0,-7.9821)">
							<title>Sheet.1157</title>
							<path d="M3.86 606.57 C3.38 606.57 3 606.96 3 607.43 C3 607.91 3.38 608.29 3.86 608.29 C4.33 608.29 4.72
										 607.91 4.72 607.43 C4.72 606.96 4.33 606.57 3.86 606.57 ZM3.86 609.25 C2.86 609.25 2.04
										 608.43 2.04 607.43 C2.04 606.43 2.86 605.62 3.86 605.62 C4.86 605.62 5.67 606.43 5.67 607.43
										 C5.67 608.43 4.86 609.25 3.86 609.25 ZM0.96 611.04 L26.46 611.04 L26.46 604.14 L0.96 604.14
										 L0.96 611.04 ZM26.57 612 L0.84 612 C0.38 612 0 611.62 0 611.16 L0 604.03 C0 603.56 0.38
										 603.19 0.84 603.19 L26.57 603.19 C27.04 603.19 27.42 603.56 27.42 604.03 L27.42 611.16 C27.42
										 611.62 27.04 612 26.57 612 Z" class="st55"/>
						</g>
						<g id="shape1158-525">
							<title>Sheet.1158</title>
							<path d="M3.86 606.4 C3.38 606.4 3 606.78 3 607.26 C3 607.73 3.38 608.11 3.86 608.11 C4.33 608.11 4.72
										 607.73 4.72 607.26 C4.72 606.78 4.33 606.4 3.86 606.4 ZM3.86 609.07 C2.86 609.07 2.04 608.26
										 2.04 607.26 C2.04 606.26 2.86 605.44 3.86 605.44 C4.86 605.44 5.67 606.26 5.67 607.26 C5.67
										 608.26 4.86 609.07 3.86 609.07 ZM0.96 611.04 L26.46 611.04 L26.46 604 L0.96 604 L0.96 611.04
										 ZM26.57 612 L0 612 L0 603.89 C0 603.42 0.38 603.05 0.84 603.05 L26.57 603.05 C27.04 603.05
										 27.42 603.42 27.42 603.89 L27.42 611.16 C27.42 611.62 27.04 612 26.57 612 Z" class="st55"/>
						</g>
					</g>
				</g>
				<g id="group1159-527" transform="translate(56.3394,-3.41061E-13)">
					<title>Sheet.1159</title>
					<g id="group1160-528">
						<title>Sheet.1160</title>
						<g id="shape1161-529" transform="translate(0.499762,-0.576746)">
							<title>Sheet.1161</title>
							<rect x="0" y="588.296" width="26.4876" height="23.7039" class="st54"/>
						</g>
						<g id="shape1162-531" transform="translate(0.000382373,-15.8631)">
							<title>Sheet.1162</title>
							<path d="M3.89 606.58 C3.42 606.58 3.04 606.96 3.04 607.44 C3.04 607.91 3.42 608.29 3.89 608.29 C4.37
										 608.29 4.75 607.91 4.75 607.44 C4.75 606.96 4.37 606.58 3.89 606.58 ZM3.89 609.25 C2.89
										 609.25 2.08 608.44 2.08 607.44 C2.08 606.44 2.89 605.62 3.89 605.62 C4.89 605.62 5.71 606.44
										 5.71 607.44 C5.71 608.44 4.89 609.25 3.89 609.25 ZM0.96 611.04 L26.46 611.04 L26.46 603.9
										 L0.96 603.9 L0.96 611.04 ZM26.57 612 L0.84 612 C0.38 612 0 611.62 0 611.16 L0 603.79 C0
										 603.32 0.38 602.94 0.84 602.94 L27.42 602.94 L27.42 611.16 C27.42 611.62 27.04 612 26.57
										 612 Z" class="st55"/>
						</g>
						<g id="shape1163-533" transform="translate(0,-7.9821)">
							<title>Sheet.1163</title>
							<path d="M3.86 606.57 C3.38 606.57 3 606.96 3 607.43 C3 607.91 3.38 608.29 3.86 608.29 C4.33 608.29 4.72
										 607.91 4.72 607.43 C4.72 606.96 4.33 606.57 3.86 606.57 ZM3.86 609.25 C2.86 609.25 2.04
										 608.43 2.04 607.43 C2.04 606.43 2.86 605.62 3.86 605.62 C4.86 605.62 5.67 606.43 5.67 607.43
										 C5.67 608.43 4.86 609.25 3.86 609.25 ZM0.96 611.04 L26.46 611.04 L26.46 604.14 L0.96 604.14
										 L0.96 611.04 ZM26.57 612 L0.84 612 C0.38 612 0 611.62 0 611.16 L0 604.03 C0 603.56 0.38
										 603.19 0.84 603.19 L26.57 603.19 C27.04 603.19 27.42 603.56 27.42 604.03 L27.42 611.16 C27.42
										 611.62 27.04 612 26.57 612 Z" class="st55"/>
						</g>
						<g id="shape1164-535">
							<title>Sheet.1164</title>
							<path d="M3.86 606.4 C3.38 606.4 3 606.78 3 607.26 C3 607.73 3.38 608.11 3.86 608.11 C4.33 608.11 4.72
										 607.73 4.72 607.26 C4.72 606.78 4.33 606.4 3.86 606.4 ZM3.86 609.07 C2.86 609.07 2.04 608.26
										 2.04 607.26 C2.04 606.26 2.86 605.44 3.86 605.44 C4.86 605.44 5.67 606.26 5.67 607.26 C5.67
										 608.26 4.86 609.07 3.86 609.07 ZM0.96 611.04 L26.46 611.04 L26.46 604 L0.96 604 L0.96 611.04
										 ZM26.57 612 L0 612 L0 603.89 C0 603.42 0.38 603.05 0.84 603.05 L26.57 603.05 C27.04 603.05
										 27.42 603.42 27.42 603.89 L27.42 611.16 C27.42 611.62 27.04 612 26.57 612 Z" class="st55"/>
						</g>
					</g>
				</g>
			</g>
			<g id="shape1262-537">
				<title>Sheet.1262</title>
				<desc>On-premises render farm</desc>
				<rect x="0" y="593.767" width="103.5" height="18.2332" class="st8"/>
				<text x="20.66" y="599.58" class="st13">On-premises <tspan x="23.15" dy="1.2em" class="st10">render farm</tspan></text>			</g>
		</g>
		<g id="group1354-541" transform="translate(478,-234)">
			<title>Sheet.1354</title>
			<g id="group1355-542">
				<title>Page-1</title>
				<g id="group1356-543">
					<title>Route Server.16885</title>
					<g id="group1357-544">
						<title>Sheet.1357</title>
						<g id="group1358-545">
							<title>Sheet.1358</title>
							<g id="shape1359-546">
								<title>Sheet.1359</title>
								<ellipse cx="14.9625" cy="597.038" rx="14.9625" ry="14.9625" class="st56"/>
							</g>
						</g>
						<g id="group1360-550" transform="translate(11.0086,-2.19259)">
							<title>Sheet.1360</title>
							<g id="shape1361-551" transform="translate(602.946,595.386) rotate(90)">
								<title>Sheet.1361</title>
								<path d="M0.04 590.26 L3.55 586.13 a0.416398 0.490426 0 0 1 0.590277 0 L7.64 590.26 a0.186083 0.219165
											 0 0 1 -0.131173 0.375454 L5.35 590.63 a0.186083 0.219165 -180 0 0 -0.186083 0.220961
											 L5.17 596.01 a0.152527 0.179643 0 0 1 -0.152527 0.179643 L2.67 596.19 a0.152527 0.179643
											 0 0 1 -0.152527 -0.179643 L2.51 590.85 a0.186083 0.219165 -180 0 0 -0.184558 -0.220961
											 L0.17 590.63 a0.187608 0.220961 0 0 1 -0.132698 -0.375454 L0.04 590.26 ZM7.64 607.73
											 L4.14 611.86 a0.416398 0.490426 0 0 1 -0.590277 0 L0.04 607.73 a0.187608 0.220961 0
											 0 1 0.132698 -0.375454 L2.33 607.35 a0.186083 0.219165 -180 0 0 0.186083 -0.220961 L2.51
											 601.97 a0.152527 0.179643 0 0 1 0.152527 -0.179643 L5.02 601.79 a0.152527 0.179643 0
											 0 1 0.152527 0.179643 L5.18 607.13 a0.186083 0.219165 -180 0 0 0.186083 0.220961 L7.51
											 607.35 a0.186083 0.219165 0 0 1 0.131173 0.375454 L7.64 607.73 Z" class="st30"/>
							</g>
						</g>
						<g id="group1362-553" transform="translate(-592.977,584.124) rotate(-90) scale(-1,1)">
							<title>Sheet.1362</title>
							<g id="shape1363-554">
								<title>Sheet.1363</title>
								<path d="M19.89 611.96 L15.76 608.25 a0.490426 0.439912 0 0 1 1.77636E-15 -0.62361 L19.89 603.92
											 a0.219165 0.196591 0 0 1 0.375454 0.138581 L20.27 606.34 a0.220961 0.198202 -180 0 0
											 0.219165 0.198202 L25.65 606.54 a0.179643 0.16114 0 0 1 0.179643 0.16114 L25.83 609.18
											 a0.179643 0.16114 0 0 1 -0.179643 0.16114 L20.49 609.34 a0.219165 0.196591 -180 0 0
											 -0.219165 0.196591 L20.27 611.82 a0.220961 0.198202 0 0 1 -0.375454 0.136969 L19.89
											 611.96 ZM5.94 603.92 L10.07 607.63 a0.490426 0.439912 0 0 1 1.06581E-14 0.62361 L5.94
											 611.96 a0.220961 0.198202 0 0 1 -0.375454 -0.140192 L5.56 609.54 a0.219165 0.196591
											 -180 0 0 -0.219165 -0.196591 L0.18 609.34 a0.179643 0.16114 0 0 1 -0.179643 -0.16114
											 L0 606.69 a0.179643 0.16114 0 0 1 0.179643 -0.16114 L5.34 606.53 a0.220961 0.198202
											 -180 0 0 0.219165 -0.198202 L5.56 604.06 a0.219165 0.196591 0 0 1 0.375454 -0.138581
											 L5.94 603.92 Z" class="st31"/>
							</g>
						</g>
					</g>
				</g>
			</g>
		</g>
		<g id="group1376-556" transform="translate(686.089,-79.1461)">
			<title>Sheet.1376</title>
			<g id="group1098-557" transform="translate(0,-29.9619)">
				<title>Icon-storage-86</title>
				<g id="shape1099-558">
					<title>Sheet.1099</title>
					<path d="M0.89 594.08 L31.2 594.08 L31.2 610.98 A1.01617 1.01617 0 0 1 30.18 612 L1.91 612 A1.01617 1.01617 0
								 0 1 0.89 610.98 L0.89 594.08 Z" class="st57"/>
				</g>
				<g id="shape1100-562" transform="translate(0,-17.9167)">
					<title>Sheet.1100</title>
					<path d="M1.91 605.55 L30.18 605.55 A1.01617 1.01617 0 0 1 31.2 606.56 L31.2 612 L0.89 612 L0.89 606.54 A1.01617
								 1.01617 0 0 1 1.91 605.55 Z" class="st58"/>
				</g>
				<g id="shape1101-564" transform="translate(4.54603,-12.4971)">
					<title>Sheet.1101</title>
					<path d="M0.46 608.54 L22.52 608.54 a0.481344 0.481344 0 0 1 0.463516 0.481344 L22.98 611.52 a0.481344 0.481344
								 0 0 1 -0.463516 0.481344 L0.46 612 a0.481344 0.481344 0 0 1 -0.463516 -0.481344 L0 609.02 a0.481344
								 0.481344 0 0 1 0.463516 -0.481344 Z" class="st25"/>
				</g>
				<g id="shape1102-566" transform="translate(4.56385,-7.5054)">
					<title>Sheet.1102</title>
					<path d="M0.46 608.52 L22.52 608.52 a0.481344 0.481344 0 0 1 0.463516 0.481344 L22.98 611.52 a0.481344 0.481344
								 0 0 1 -0.463516 0.481344 L0.46 612 a0.481344 0.481344 0 0 1 -0.463516 -0.481344 L0 609.09 a0.481344
								 0.481344 0 0 1 0.463516 -0.570482 Z" class="st25"/>
				</g>
				<g id="shape1103-568" transform="translate(4.56385,-2.47803)">
					<title>Sheet.1103</title>
					<path d="M0.46 608.52 L22.52 608.52 a0.481344 0.481344 0 0 1 0.463516 0.481344 L22.98 611.52 a0.481344 0.481344
								 0 0 1 -0.463516 0.481344 L0.46 612 a0.481344 0.481344 0 0 1 -0.463516 -0.481344 L0 609 a0.481344
								 0.481344 0 0 1 0.463516 -0.481344 Z" class="st25"/>
				</g>
			</g>
			<g id="group1368-570">
				<title>Icon-storage-86.1368</title>
				<g id="shape1369-571">
					<title>Sheet.1369</title>
					<path d="M0.89 594.08 L31.2 594.08 L31.2 610.98 A1.01617 1.01617 0 0 1 30.18 612 L1.91 612 A1.01617 1.01617 0
								 0 1 0.89 610.98 L0.89 594.08 Z" class="st57"/>
				</g>
				<g id="shape1370-574" transform="translate(0,-17.9167)">
					<title>Sheet.1370</title>
					<path d="M1.91 605.55 L30.18 605.55 A1.01617 1.01617 0 0 1 31.2 606.56 L31.2 612 L0.89 612 L0.89 606.54 A1.01617
								 1.01617 0 0 1 1.91 605.55 Z" class="st58"/>
				</g>
				<g id="shape1371-576" transform="translate(4.54603,-12.4971)">
					<title>Sheet.1371</title>
					<path d="M0.46 608.54 L22.52 608.54 a0.481344 0.481344 0 0 1 0.463516 0.481344 L22.98 611.52 a0.481344 0.481344
								 0 0 1 -0.463516 0.481344 L0.46 612 a0.481344 0.481344 0 0 1 -0.463516 -0.481344 L0 609.02 a0.481344
								 0.481344 0 0 1 0.463516 -0.481344 Z" class="st25"/>
				</g>
				<g id="shape1372-578" transform="translate(4.56385,-7.5054)">
					<title>Sheet.1372</title>
					<path d="M0.46 608.52 L22.52 608.52 a0.481344 0.481344 0 0 1 0.463516 0.481344 L22.98 611.52 a0.481344 0.481344
								 0 0 1 -0.463516 0.481344 L0.46 612 a0.481344 0.481344 0 0 1 -0.463516 -0.481344 L0 609.09 a0.481344
								 0.481344 0 0 1 0.463516 -0.570482 Z" class="st25"/>
				</g>
				<g id="shape1373-580" transform="translate(4.56385,-2.47803)">
					<title>Sheet.1373</title>
					<path d="M0.46 608.52 L22.52 608.52 a0.481344 0.481344 0 0 1 0.463516 0.481344 L22.98 611.52 a0.481344 0.481344
								 0 0 1 -0.463516 0.481344 L0.46 612 a0.481344 0.481344 0 0 1 -0.463516 -0.481344 L0 609 a0.481344
								 0.481344 0 0 1 0.463516 -0.481344 Z" class="st25"/>
				</g>
			</g>
		</g>
		<g id="shape1382-582" transform="translate(492,-322.2)">
			<title>Number.1382</title>
			<desc>2</desc>
			<ellipse cx="12.6" cy="599.4" rx="12.6" ry="12.6" class="st11"/>
			<text x="9.24" y="603.19" class="st12">2</text>		</g>
		<g id="shape1383-585" transform="translate(400,-455.333)">
			<title>Number.1383</title>
			<desc>3</desc>
			<ellipse cx="12.6" cy="599.4" rx="12.6" ry="12.6" class="st11"/>
			<text x="9.24" y="603.19" class="st12">3</text>		</g>
		<g id="shape1384-588" transform="translate(148.2,-310.8)">
			<title>Number.1384</title>
			<desc>4</desc>
			<ellipse cx="12.6" cy="599.4" rx="12.6" ry="12.6" class="st11"/>
			<text x="9.24" y="603.19" class="st12">4</text>		</g>
		<g id="shape1385-591" transform="translate(875.644,-135.205) rotate(46.9698)">
			<title>Directed line 1.1330</title>
			<path d="M11.18 612 L11.54 612 L73.05 612" class="st59"/>
		</g>
		<g id="group1386-600" transform="translate(397.2,-266.4)">
			<title>Sheet.1386</title>
			<g id="group1022-601" transform="translate(30.9973,-11.4697)">
				<title>Sheet.1022</title>
				<g id="group1023-602">
					<title>Page-1</title>
					<g id="group1024-603">
						<title>ExpressRoute Circuit</title>
						<g id="group1025-604">
							<title>Icon-networking-79</title>
							<g id="group1026-605" transform="translate(3.46399,-4.80805)">
								<title>Sheet.1026</title>
								<g id="shape1027-606">
									<title>Sheet.1027</title>
									<path d="M6.58 599.28 L8.96 600.63 L2.38 611.79 L0 610.45 L6.58 599.28 ZM8.97 600.83 L11.35 599.49
												 L17.93 610.66 L15.55 612 L8.97 600.83 Z" class="st61"/>
								</g>
							</g>
							<g id="group1028-608" transform="translate(5.73638,-2.13088)">
								<title>Sheet.1028</title>
								<g id="shape1029-609">
									<title>Sheet.1029</title>
									<rect x="0" y="609.313" width="13.1632" height="2.68708" class="st62"/>
								</g>
							</g>
							<g id="group1030-611" transform="translate(9.22807,-15.9054)">
								<title>Sheet.1030</title>
								<g id="shape1031-612">
									<title>Sheet.1031</title>
									<ellipse cx="3.33928" cy="608.729" rx="3.33928" ry="3.27064" class="st63"/>
								</g>
							</g>
							<g id="group1032-616" transform="translate(18.2621,0)">
								<title>Sheet.1032</title>
								<g id="shape1033-617">
									<title>Sheet.1033</title>
									<ellipse cx="3.33928" cy="608.729" rx="3.33928" ry="3.27064" class="st64"/>
								</g>
							</g>
							<g id="group1034-621">
								<title>Sheet.1034</title>
								<g id="shape1035-622">
									<title>Sheet.1035</title>
									<ellipse cx="3.33928" cy="608.729" rx="3.33928" ry="3.27064" class="st65"/>
								</g>
							</g>
						</g>
					</g>
				</g>
			</g>
			<g id="shape1265-626" transform="translate(0,3.15)">
				<title>Sheet.1265</title>
				<desc>ExpressRoute</desc>
				<rect x="0" y="593.535" width="86.9353" height="18.465" class="st8"/>
				<text x="14.05" y="605.77" class="st28">ExpressRoute</text>			</g>
		</g>
		<g id="shape1387-629" transform="translate(897.887,-112.407) rotate(57.1715)">
			<title>Directed line 1.1387</title>
			<path d="M7.68 612 L8.04 612 L33.46 612" class="st17"/>
		</g>
		<g id="shape1388-636" transform="translate(808.446,-246.134) rotate(43.0881)">
			<title>Directed line 1.1388</title>
			<path d="M7.68 612 L8.04 612 L266.16 612" class="st66"/>
		</g>
		<g id="shape1389-643" transform="translate(502.2,-247.8)">
			<title>Sheet.1389</title>
			<desc>Gateway</desc>
			<rect x="0" y="594.999" width="53.7" height="17.001" class="st8"/>
			<text x="6.1" y="606.8" class="st13">Gateway</text>		</g>
		<g id="shape1390-646" transform="translate(636.667,-82)">
			<title>Sheet.1390</title>
			<desc>/data/nas</desc>
			<rect x="0" y="594.499" width="57.4839" height="17.501" class="st8"/>
			<text x="4" y="606.25" class="st28">/data/nas</text>		</g>
	</g>
</svg>
