<svg id="Layer_1" data-name="Layer 1" xmlns="http://www.w3.org/2000/svg" width="80" height="74.666" viewBox="0 0 80 74.666">
  <path d="M5873.1,1912.471c0.053-.56.08-1.147,0.08-1.733a17.07,17.07,0,0,0-30.88-9.842,12.907,12.907,0,0,0-19.653,9.627,24.718,24.718,0,0,1,3.147-.24,23,23,0,0,1,13.547,4.427c2.906-6.694,10.293-10.987,18.478-11.227v-5.733l10,8.56-10,8.507v-5.6c-4.693.186-9.253,1.946-11.893,6.213l0.533-.053a18.683,18.683,0,0,1,18.56,16.293,19.03,19.03,0,0,1,5.333,6.107,13.977,13.977,0,0,0,10.614-13.522C5880.968,1919,5878.14,1914.817,5873.1,1912.471Z" transform="translate(-5800.968 -1893.858)" fill="#0072c6" />
  <path d="M5808.835,1934.657c-0.053-.587-0.08-1.173-0.08-1.76a17.082,17.082,0,0,1,30.88-9.84,12.929,12.929,0,0,1,19.707,10.853l-0.027,1.014c4.8,2.427,7.387,6.453,7.387,11.493,0,7.92-6.453,14.107-14.693,14.107H5815.66c-8.24,0-14.693-6.187-14.693-14.107C5800.968,1941.191,5803.795,1937,5808.835,1934.657Z" transform="translate(-5800.968 -1893.858)" fill="#59b4d9" />
  <path d="M5879.289,1937.129v-3.453h-22.715l-5.15-5.152h-13.858v37.941a2.058,2.058,0,0,0,2.058,2.059h39.286a2.058,2.058,0,0,0,2.058-2.059v-29.338h-1.678v0Z" transform="translate(-5800.968 -1893.858)" fill="#fee087" />
  <path d="M5841.683,1937.129v29.336a2.058,2.058,0,1,1-4.115,0v-37.941h13.858l5.15,5.152h22.715v3.453h-37.608Z" transform="translate(-5800.968 -1893.858)" fill="#1e1e1e" opacity="0.2" style="isolation: isolate" />
</svg>