<svg class="architecture-diagram" aria-labelledby="backup-archive-on-premises" height="460" viewbox="0 0 719 460" width="719" xmlns="http://www.w3.org/2000/svg">
    <g fill="none" fill-rule="evenodd" stroke="none" stroke-width="1">
        <path d="M485.388 328.102v-3.146c0-44.815 34.507-80.983 77.265-80.983 26.255 0 49.384 14.546 62.886 36.168 7.126-3.8 13.878-6.028 22.13-6.028 24.13 0 43.258 20.574 43.258 45.996a63.059 63.059 0 0127.756 52.809c0 33.547-23.13 60.017-53.01 63.818H492.638c-28.88 0-51.51-25.423-51.51-53.99 0-28.174 19.003-50.843 44.258-54.643" fill="#ECF4FB"/>
        <path fill="#9F9F9F" d="M0 5.336h1v-1H0zM4.964 5.336h.991v-1h-.991v1zm4.955 0h.991v-1h-.991v1zm4.954 0h.991v-1h-.991v1zm4.955 0h.991v-1h-.991v1zm4.955 0h.991v-1h-.991v1zm4.955 0h.991v-1h-.991v1zm4.954 0h.991v-1h-.991v1zm4.955 0h.991v-1h-.991v1zm4.955 0h.991v-1h-.991v1zm4.954 0h.991v-1h-.991v1zm4.955 0h.991v-1h-.991v1zm4.955 0h.991v-1h-.991v1zm4.955 0h.991v-1h-.991v1zm4.954 0h.991v-1h-.991v1zm4.955 0h.991v-1h-.991v1zm4.955 0h.991v-1h-.991v1zm4.954 0h.991v-1h-.991v1zm4.955 0h.991v-1h-.991v1zm4.955 0h.991v-1h-.991v1zm4.955 0h.991v-1h-.991v1zm4.954 0h.991v-1h-.991v1zm4.955 0h.991v-1h-.991v1zm4.955 0h.991v-1h-.991v1zm4.955 0h.991v-1h-.991v1zm4.954 0h.991v-1h-.991v1zm4.955 0h.991v-1h-.991v1zm4.955 0h.991v-1h-.991v1zm4.954 0h.991v-1h-.991v1zm4.955 0h.991v-1h-.991v1zm4.955 0h.991v-1h-.991v1zm4.955 0h.991v-1h-.991v1zm4.954 0h.991v-1h-.991v1zm4.955 0h.991v-1h-.991v1zm4.955 0h.991v-1h-.991v1zm4.955 0h.991v-1h-.991v1zm4.954 0h.991v-1h-.991v1zm4.955 0h.991v-1h-.991v1zm4.955 0h.991v-1h-.991v1zm4.954 0h.991v-1h-.991v1zm4.955 0h.991v-1h-.991v1zm4.955 0h.991v-1h-.991v1zm4.955 0h.991v-1h-.991v1zm4.954 0h.991v-1h-.991v1zm4.955 0h.991v-1h-.991v1zm4.955 0h.991v-1h-.991v1zm4.954 0h.991v-1h-.991v1zm4.955 0h.991v-1h-.991v1zm4.955 0h.991v-1h-.991v1zm4.955 0h.991v-1h-.991v1zM247.745 5.336h1v-1h-1zM247.745 10.399h1V9.386h-1v1.013zm0 5.064h1V14.45h-1v1.013zm0 5.063h1v-1.013h-1v1.013zm0 5.064h1v-1.013h-1v1.013zm0 5.063h1V29.64h-1v1.013zm0 5.063h1v-1.013h-1v1.013zm0 5.063h1v-1.013h-1v1.013zm0 5.064h1V44.83h-1v1.013zm0 5.063h1v-1.013h-1v1.013zm0 5.064h1v-1.013h-1v1.013zm0 5.063h1V60.02h-1v1.013zm0 5.064h1v-1.013h-1v1.013zm0 5.063h1v-1.013h-1v1.013zm0 5.064h1v-1.013h-1v1.013zm0 5.062h1v-1.013h-1v1.013zm0 5.064h1v-1.013h-1v1.013zm0 5.063h1V90.4h-1v1.013zm0 5.064h1v-1.013h-1v1.013zm0 5.063h1v-1.013h-1v1.013zm0 5.064h1v-1.013h-1v1.013zm0 5.063h1v-1.013h-1v1.013zm0 5.064h1v-1.013h-1v1.013zm0 5.063h1v-1.013h-1v1.013zm0 5.062h1v-1.013h-1v1.013zm0 5.064h1v-1.013h-1v1.013zm0 5.063h1v-1.013h-1v1.013zm0 5.064h1v-1.013h-1v1.013zm0 5.063h1v-1.013h-1v1.013zm0 5.064h1v-1.013h-1v1.013zm0 5.063h1v-1.013h-1v1.013zm0 5.064h1v-1.013h-1v1.013zm0 5.063h1v-1.013h-1v1.013zm0 5.063h1v-1.013h-1v1.013zm0 5.063h1v-1.013h-1v1.013zm0 5.064h1v-1.013h-1v1.013zm0 5.063h1v-1.013h-1v1.013zM247.745 192.668h1v-1h-1zM4.964 192.668h.991v-1h-.991v1zm4.955 0h.991v-1h-.991v1zm4.954 0h.991v-1h-.991v1zm4.955 0h.991v-1h-.991v1zm4.955 0h.991v-1h-.991v1zm4.955 0h.991v-1h-.991v1zm4.954 0h.991v-1h-.991v1zm4.955 0h.991v-1h-.991v1zm4.955 0h.991v-1h-.991v1zm4.954 0h.991v-1h-.991v1zm4.955 0h.991v-1h-.991v1zm4.955 0h.991v-1h-.991v1zm4.955 0h.991v-1h-.991v1zm4.954 0h.991v-1h-.991v1zm4.955 0h.991v-1h-.991v1zm4.955 0h.991v-1h-.991v1zm4.954 0h.991v-1h-.991v1zm4.955 0h.991v-1h-.991v1zm4.955 0h.991v-1h-.991v1zm4.955 0h.991v-1h-.991v1zm4.954 0h.991v-1h-.991v1zm4.955 0h.991v-1h-.991v1zm4.955 0h.991v-1h-.991v1zm4.955 0h.991v-1h-.991v1zm4.954 0h.991v-1h-.991v1zm4.955 0h.991v-1h-.991v1zm4.955 0h.991v-1h-.991v1zm4.954 0h.991v-1h-.991v1zm4.955 0h.991v-1h-.991v1zm4.955 0h.991v-1h-.991v1zm4.955 0h.991v-1h-.991v1zm4.954 0h.991v-1h-.991v1zm4.955 0h.991v-1h-.991v1zm4.955 0h.991v-1h-.991v1zm4.955 0h.991v-1h-.991v1zm4.954 0h.991v-1h-.991v1zm4.955 0h.991v-1h-.991v1zm4.955 0h.991v-1h-.991v1zm4.954 0h.991v-1h-.991v1zm4.955 0h.991v-1h-.991v1zm4.955 0h.991v-1h-.991v1zm4.955 0h.991v-1h-.991v1zm4.954 0h.991v-1h-.991v1zm4.955 0h.991v-1h-.991v1zm4.955 0h.991v-1h-.991v1zm4.954 0h.991v-1h-.991v1zm4.955 0h.991v-1h-.991v1zm4.955 0h.991v-1h-.991v1zm4.955 0h.991v-1h-.991v1zM0 192.668h1v-1H0zM0 10.399h1V9.386H0v1.013zm0 5.064h1V14.45H0v1.013zm0 5.063h1v-1.013H0v1.013zm0 5.064h1v-1.013H0v1.013zm0 5.062h1v-1.013H0v1.013zm0 5.064h1v-1.013H0v1.013zm0 5.063h1v-1.013H0v1.013zm0 5.064h1V44.83H0v1.013zm0 5.063h1v-1.013H0v1.013zm0 5.064h1v-1.013H0v1.013zm0 5.063h1V60.02H0v1.013zm0 5.064h1v-1.013H0v1.013zm0 5.063h1v-1.013H0v1.013zm0 5.063h1V75.21H0v1.013zm0 5.063h1v-1.013H0v1.013zm0 5.064h1v-1.013H0v1.013zm0 5.063h1V90.4H0v1.013zm0 5.064h1v-1.013H0v1.013zm0 5.063h1v-1.013H0v1.013zm0 5.064h1v-1.013H0v1.013zm0 5.063h1v-1.013H0v1.013zm0 5.064h1v-1.013H0v1.013zm0 5.062h1v-1.013H0v1.013zm0 5.063h1v-1.013H0v1.013zm0 5.064h1v-1.013H0v1.013zm0 5.063h1v-1.013H0v1.013zm0 5.064h1v-1.013H0v1.013zm0 5.063h1v-1.013H0v1.013zm0 5.064h1v-1.013H0v1.013zm0 5.063h1v-1.013H0v1.013zm0 5.064h1v-1.013H0v1.013zm0 5.062h1v-1.013H0v1.013zm0 5.064h1v-1.013H0v1.013zm0 5.063h1v-1.013H0v1.013zm0 5.064h1v-1.013H0v1.013zm0 5.063h1v-1.013H0v1.013z"/>
        <path d="M554.495 214.013h-1.143v-6.576c0-.52.033-1.156.096-1.908h-.027c-.11.443-.207.759-.293.95l-3.35 7.534h-.56l-3.344-7.48c-.096-.217-.193-.553-.293-1.004h-.027c.036.392.054 1.033.054 1.922v6.562H544.5v-9.803h1.517l3.008 6.836c.233.524.383.916.45 1.176h.042c.196-.54.353-.94.47-1.203l3.07-6.81h1.437v9.804zM556.921 214.013h1.121v-7h-1.121v7zm.574-8.778a.706.706 0 01-.512-.205.69.69 0 01-.213-.519c0-.211.071-.385.213-.524a.706.706 0 01.512-.209.728.728 0 110 1.457zM565.082 213.69c-.537.325-1.175.487-1.913.487-.999 0-1.803-.325-2.416-.975-.614-.648-.92-1.492-.92-2.525 0-1.154.33-2.08.991-2.78.66-.698 1.543-1.048 2.646-1.048.615 0 1.158.113 1.626.341v1.149a2.849 2.849 0 00-1.668-.547c-.715 0-1.302.256-1.76.77-.457.511-.688 1.185-.688 2.02 0 .82.216 1.466.648 1.94.43.474 1.007.712 1.731.712.612 0 1.186-.204 1.723-.61v1.066zM570.428 208.148c-.195-.15-.479-.227-.848-.227-.478 0-.878.227-1.199.678-.32.45-.482 1.067-.482 1.846v3.567h-1.12v-7h1.12v1.442h.027c.16-.493.404-.875.732-1.15a1.663 1.663 0 011.1-.415c.292 0 .516.031.67.096v1.162zM574.47 207.792c-.722 0-1.29.244-1.71.734-.42.491-.629 1.166-.629 2.028 0 .828.211 1.482.635 1.961.424.478.992.718 1.703.718.725 0 1.281-.234 1.671-.705.39-.468.585-1.136.585-2.002 0-.875-.195-1.55-.585-2.023-.39-.475-.946-.711-1.67-.711m-.083 6.385c-1.035 0-1.86-.328-2.479-.981-.617-.654-.925-1.521-.925-2.601 0-1.176.32-2.094.963-2.756.642-.66 1.511-.99 2.605-.99 1.043 0 1.857.32 2.443.963.586.642.88 1.533.88 2.673 0 1.116-.317 2.01-.948 2.684-.63.672-1.478 1.008-2.539 1.008M579.24 213.759v-1.203c.61.45 1.283.678 2.017.678.984 0 1.476-.33 1.476-.985a.842.842 0 00-.126-.474 1.248 1.248 0 00-.342-.346 2.47 2.47 0 00-.505-.27c-.195-.08-.403-.164-.626-.25a8.136 8.136 0 01-.817-.373 2.466 2.466 0 01-.588-.423 1.572 1.572 0 01-.355-.538 1.886 1.886 0 01-.12-.703c0-.328.075-.62.225-.871a2.02 2.02 0 01.602-.637c.25-.17.537-.298.858-.386.322-.086.654-.13.995-.13.606 0 1.149.104 1.627.315v1.135c-.515-.338-1.107-.506-1.777-.506-.21 0-.4.024-.568.072a1.349 1.349 0 00-.434.202.906.906 0 00-.28.31.822.822 0 00-.1.4.96.96 0 00.1.458c.065.123.163.232.29.328.128.095.283.183.465.259.182.079.39.163.623.254.309.118.588.24.834.366.246.125.455.267.629.423.172.159.306.338.399.543.093.206.14.45.14.733 0 .346-.077.646-.23.902a1.959 1.959 0 01-.61.635c-.256.17-.55.295-.883.377a4.348 4.348 0 01-1.045.123c-.721 0-1.345-.14-1.873-.418M588.612 207.792c-.72 0-1.29.244-1.71.734-.418.491-.628 1.166-.628 2.028 0 .828.213 1.482.637 1.961.424.478.99.718 1.7.718.726 0 1.283-.234 1.673-.705.39-.468.584-1.136.584-2.002 0-.875-.194-1.55-.584-2.023-.39-.475-.947-.711-1.672-.711m-.082 6.385c-1.034 0-1.86-.328-2.478-.981-.618-.654-.926-1.521-.926-2.601 0-1.176.322-2.094.965-2.756.642-.66 1.509-.99 2.603-.99 1.044 0 1.859.32 2.444.963.585.642.878 1.533.878 2.673 0 1.116-.314 2.01-.946 2.684-.632.672-1.478 1.008-2.54 1.008M597.014 204.634a1.499 1.499 0 00-.746-.186c-.783 0-1.176.495-1.176 1.485v1.08h1.641v.957h-1.64v6.043h-1.114v-6.043h-1.197v-.957h1.197v-1.135c0-.734.211-1.314.635-1.74.423-.426.953-.64 1.586-.64.341 0 .613.042.814.124v1.012zM601.436 213.944c-.264.145-.612.22-1.045.22-1.226 0-1.84-.685-1.84-2.052v-4.143h-1.203v-.957h1.203v-1.709l1.121-.363v2.072h1.764v.957h-1.764v3.944c0 .47.08.804.241 1.006.159.2.423.3.793.3.282 0 .525-.078.73-.232v.957zM611.82 210.232l-1.538-4.177a3.98 3.98 0 01-.15-.656h-.028a3.676 3.676 0 01-.156.656l-1.525 4.177h3.398zm2.687 3.78h-1.272l-1.04-2.748h-4.155l-.977 2.748h-1.28l3.76-9.802h1.19l3.774 9.802zM620.68 207.333l-4.143 5.723h4.102v.957h-5.75v-.35l4.143-5.693h-3.752v-.957h5.4zM627.79 214.013h-1.121v-1.107h-.027c-.465.847-1.186 1.27-2.161 1.27-1.668 0-2.502-.993-2.502-2.98v-4.183h1.114v4.006c0 1.476.565 2.215 1.695 2.215.547 0 .998-.201 1.35-.606.353-.402.53-.931.53-1.582v-4.033h1.122v7zM633.702 208.148c-.195-.15-.48-.227-.848-.227-.478 0-.878.227-1.2.678-.32.45-.481 1.067-.481 1.846v3.567h-1.121v-7h1.12v1.442h.028c.16-.493.404-.875.732-1.15a1.663 1.663 0 011.1-.415c.292 0 .516.031.67.096v1.162zM639.211 209.843c-.004-.648-.16-1.15-.468-1.512-.307-.36-.735-.54-1.282-.54-.528 0-.977.19-1.346.568-.369.379-.597.873-.683 1.484h3.78zm1.148.949h-4.94c.017.78.227 1.38.628 1.805.4.424.952.637 1.654.637.788 0 1.513-.26 2.174-.78v1.053c-.615.445-1.43.67-2.44.67-.99 0-1.767-.318-2.33-.953-.567-.637-.849-1.531-.849-2.684 0-1.09.31-1.976.926-2.662.617-.687 1.384-1.03 2.3-1.03.917 0 1.625.296 2.125.89.502.59.752 1.414.752 2.466v.588zM166.708 127.233v-1.355c.155.138.341.26.557.37.216.11.444.201.684.277a5.6 5.6 0 00.721.174c.242.041.465.061.67.061.706 0 1.234-.13 1.582-.392.349-.262.523-.64.523-1.131 0-.265-.058-.494-.174-.691a1.948 1.948 0 00-.482-.537 4.766 4.766 0 00-.728-.465c-.28-.147-.582-.303-.906-.468-.342-.172-.66-.348-.957-.526a4.136 4.136 0 01-.772-.588 2.437 2.437 0 01-.516-.728 2.25 2.25 0 01-.188-.953c0-.447.098-.836.294-1.166.195-.33.453-.603.772-.817a3.517 3.517 0 011.09-.478 4.987 4.987 0 011.248-.157c.966 0 1.67.115 2.112.347v1.292c-.578-.4-1.322-.6-2.228-.6-.251 0-.502.026-.752.078a2.149 2.149 0 00-.67.257 1.478 1.478 0 00-.479.457 1.214 1.214 0 00-.184.683c0 .251.047.467.14.65.093.183.231.349.414.5.182.15.404.296.666.436.262.142.564.296.906.465.351.174.683.357.998.547.314.191.59.403.827.636.237.233.425.49.564.772.139.282.208.607.208.971 0 .484-.094.892-.283 1.227a2.328 2.328 0 01-.766.817c-.321.21-.691.362-1.111.455a6.043 6.043 0 01-1.326.14c-.155 0-.346-.013-.574-.038a8.095 8.095 0 01-.697-.108 5.86 5.86 0 01-.674-.178 2.078 2.078 0 01-.509-.236M177.249 127.56c-.264.147-.613.22-1.046.22-1.226 0-1.839-.684-1.839-2.051v-4.143h-1.203v-.957h1.203v-1.71l1.121-.361v2.07h1.764v.958h-1.764v3.945c0 .469.08.804.24 1.005.159.2.423.3.793.3.282 0 .526-.077.731-.232v.957zM181.644 121.408c-.72 0-1.29.245-1.709.734-.418.491-.629 1.166-.629 2.028 0 .83.212 1.483.636 1.962.424.478.992.717 1.702.717.725 0 1.282-.234 1.671-.704.39-.469.585-1.136.585-2.003 0-.875-.195-1.549-.585-2.023-.388-.474-.946-.71-1.67-.71m-.083 6.384c-1.035 0-1.86-.327-2.478-.98-.618-.655-.925-1.522-.925-2.602 0-1.176.32-2.094.964-2.755.642-.66 1.51-.99 2.603-.99 1.043 0 1.858.32 2.445.963.585.642.877 1.533.877 2.672 0 1.117-.315 2.011-.946 2.684-.632.672-1.477 1.008-2.54 1.008M190.49 121.764c-.196-.15-.479-.226-.848-.226-.478 0-.878.226-1.199.677-.322.45-.482 1.067-.482 1.846v3.568h-1.12v-7h1.12v1.443h.027c.16-.493.403-.876.731-1.152a1.669 1.669 0 011.101-.414c.292 0 .515.032.67.096v1.162zM191.4 127.233v-1.355c.154.138.34.26.556.37.216.11.444.201.684.277a5.6 5.6 0 00.721.174c.242.041.465.061.67.061.706 0 1.234-.13 1.582-.392.35-.262.523-.64.523-1.131 0-.265-.058-.494-.174-.691a1.948 1.948 0 00-.482-.537 4.766 4.766 0 00-.728-.465c-.28-.147-.582-.303-.906-.468-.342-.172-.66-.348-.957-.526a4.136 4.136 0 01-.772-.588 2.437 2.437 0 01-.516-.728 2.25 2.25 0 01-.188-.953c0-.447.098-.836.294-1.166.195-.33.453-.603.772-.817a3.517 3.517 0 011.09-.478 4.987 4.987 0 011.248-.157c.966 0 1.67.115 2.112.347v1.292c-.578-.4-1.322-.6-2.228-.6-.25 0-.502.026-.752.078a2.149 2.149 0 00-.67.257 1.478 1.478 0 00-.479.457 1.214 1.214 0 00-.184.683c0 .251.047.467.14.65.093.183.231.349.414.5.182.15.404.296.666.436.262.142.564.296.906.465.351.174.683.357.998.547.314.191.59.403.827.636.237.233.425.49.564.772.14.282.208.607.208.971 0 .484-.094.892-.283 1.227a2.328 2.328 0 01-.766.817c-.32.21-.69.362-1.11.455a6.043 6.043 0 01-1.327.14c-.155 0-.346-.013-.574-.038a8.095 8.095 0 01-.697-.108 5.86 5.86 0 01-.674-.178 2.078 2.078 0 01-.509-.236M199.145 127.629h1.121v-7h-1.121v7zm.574-8.777a.713.713 0 01-.725-.725c0-.21.071-.384.212-.523a.703.703 0 01.513-.208.724.724 0 01.738.731c0 .2-.072.371-.215.513a.72.72 0 01-.523.212zM212.475 127.629h-1.121v-4.02c0-.774-.12-1.334-.36-1.681-.238-.347-.641-.52-1.206-.52-.478 0-.885.219-1.22.657-.335.437-.502.961-.502 1.572v3.992h-1.121v-4.156c0-1.376-.531-2.065-1.593-2.065-.492 0-.898.206-1.217.619-.32.413-.478.949-.478 1.61v3.992h-1.121v-7h1.12v1.107h.028c.497-.847 1.22-1.271 2.174-1.271a2.027 2.027 0 011.982 1.449c.52-.966 1.295-1.449 2.324-1.449 1.54 0 2.31.95 2.31 2.851v4.313zM215.715 123.794v.978c0 .579.188 1.07.564 1.472.376.404.853.606 1.432.606.679 0 1.21-.26 1.596-.78.386-.519.578-1.242.578-2.167 0-.779-.18-1.389-.54-1.832-.36-.442-.848-.663-1.463-.663-.652 0-1.176.227-1.572.68-.397.454-.595 1.022-.595 1.706m.027 2.823h-.027v4.232h-1.121v-10.22h1.12v1.23h.028c.552-.929 1.358-1.394 2.42-1.394.903 0 1.607.313 2.113.939.505.627.758 1.467.758 2.52 0 1.171-.284 2.109-.854 2.812-.57.705-1.35 1.057-2.338 1.057-.907 0-1.606-.392-2.1-1.176M222.824 127.629h1.121v-10.363h-1.121zM230.692 123.459c-.004-.647-.16-1.15-.468-1.511-.308-.36-.735-.54-1.282-.54-.529 0-.978.19-1.347.568-.369.378-.597.873-.683 1.483h3.78zm1.148.95h-4.942c.018.779.228 1.381.63 1.805.4.424.952.636 1.653.636.79 0 1.513-.26 2.174-.78v1.053c-.615.446-1.429.67-2.44.67-.989 0-1.766-.318-2.33-.953-.566-.637-.849-1.53-.849-2.684 0-1.089.31-1.976.926-2.662.618-.686 1.384-1.029 2.301-1.029.916 0 1.624.296 2.125.889.502.592.752 1.415.752 2.467v.588z" fill="#525252"/>
        <path d="M485.388 84.128v-3.145C485.388 36.168 519.895 0 562.653 0c26.255 0 49.384 14.545 62.886 36.168 7.126-3.8 13.878-6.028 22.13-6.028 24.13 0 43.258 20.573 43.258 45.996a63.058 63.058 0 0127.756 52.808c0 33.547-23.13 60.017-53.01 63.818H492.638c-28.88 0-51.51-25.422-51.51-53.989 0-28.174 19.003-50.844 44.258-54.644" fill="#ECF4FB"/>
        <path fill="#9F9F9F" d="M0 250.549h1v-1H0zM4.964 250.549h.991v-1h-.991v1zm4.955 0h.991v-1h-.991v1zm4.954 0h.991v-1h-.991v1zm4.955 0h.991v-1h-.991v1zm4.955 0h.991v-1h-.991v1zm4.955 0h.991v-1h-.991v1zm4.954 0h.991v-1h-.991v1zm4.955 0h.991v-1h-.991v1zm4.955 0h.991v-1h-.991v1zm4.954 0h.991v-1h-.991v1zm4.955 0h.991v-1h-.991v1zm4.955 0h.991v-1h-.991v1zm4.955 0h.991v-1h-.991v1zm4.954 0h.991v-1h-.991v1zm4.955 0h.991v-1h-.991v1zm4.955 0h.991v-1h-.991v1zm4.954 0h.991v-1h-.991v1zm4.955 0h.991v-1h-.991v1zm4.955 0h.991v-1h-.991v1zm4.955 0h.991v-1h-.991v1zm4.954 0h.991v-1h-.991v1zm4.955 0h.991v-1h-.991v1zm4.955 0h.991v-1h-.991v1zm4.955 0h.991v-1h-.991v1zm4.954 0h.991v-1h-.991v1zm4.955 0h.991v-1h-.991v1zm4.955 0h.991v-1h-.991v1zm4.954 0h.991v-1h-.991v1zm4.955 0h.991v-1h-.991v1zm4.955 0h.991v-1h-.991v1zm4.955 0h.991v-1h-.991v1zm4.954 0h.991v-1h-.991v1zm4.955 0h.991v-1h-.991v1zm4.955 0h.991v-1h-.991v1zm4.955 0h.991v-1h-.991v1zm4.954 0h.991v-1h-.991v1zm4.955 0h.991v-1h-.991v1zm4.955 0h.991v-1h-.991v1zm4.954 0h.991v-1h-.991v1zm4.955 0h.991v-1h-.991v1zm4.955 0h.991v-1h-.991v1zm4.955 0h.991v-1h-.991v1zm4.954 0h.991v-1h-.991v1zm4.955 0h.991v-1h-.991v1zm4.955 0h.991v-1h-.991v1zm4.954 0h.991v-1h-.991v1zm4.955 0h.991v-1h-.991v1zm4.955 0h.991v-1h-.991v1zm4.955 0h.991v-1h-.991v1zM247.745 250.549h1v-1h-1zM247.745 255.612h1v-1.013h-1v1.013zm0 5.064h1v-1.013h-1v1.013zm0 5.063h1v-1.013h-1v1.013zm0 5.064h1v-1.013h-1v1.013zm0 5.063h1v-1.013h-1v1.013zm0 5.063h1v-1.013h-1v1.013zm0 5.063h1v-1.013h-1v1.013zm0 5.064h1v-1.013h-1v1.013zm0 5.063h1v-1.013h-1v1.013zm0 5.064h1v-1.013h-1v1.013zm0 5.063h1v-1.013h-1v1.013zm0 5.064h1v-1.013h-1v1.013zm0 5.063h1v-1.013h-1v1.013zm0 5.064h1v-1.013h-1v1.013zm0 5.062h1v-1.013h-1v1.013zm0 5.064h1v-1.013h-1v1.013zm0 5.063h1v-1.013h-1v1.013zm0 5.063h1v-1.013h-1v1.013zm0 5.064h1v-1.013h-1v1.013zm0 5.063h1v-1.013h-1v1.013zm0 5.064h1v-1.013h-1v1.013zm0 5.063h1v-1.013h-1v1.013zm0 5.064h1v-1.013h-1v1.013zm0 5.062h1v-1.013h-1v1.013zm0 5.064h1v-1.013h-1v1.013zm0 5.063h1v-1.013h-1v1.013zm0 5.064h1v-1.013h-1v1.013zm0 5.063h1v-1.013h-1v1.013zm0 5.064h1v-1.013h-1v1.013zm0 5.063h1v-1.013h-1v1.013zm0 5.064h1v-1.013h-1v1.013zm0 5.063h1v-1.013h-1v1.013zm0 5.063h1v-1.013h-1v1.013zm0 5.063h1v-1.013h-1v1.013zm0 5.064h1v-1.013h-1v1.013zm0 5.063h1v-1.013h-1v1.013zM247.745 437.881h1v-1h-1zM4.964 437.881h.991v-1h-.991v1zm4.955 0h.991v-1h-.991v1zm4.954 0h.991v-1h-.991v1zm4.955 0h.991v-1h-.991v1zm4.955 0h.991v-1h-.991v1zm4.955 0h.991v-1h-.991v1zm4.954 0h.991v-1h-.991v1zm4.955 0h.991v-1h-.991v1zm4.955 0h.991v-1h-.991v1zm4.954 0h.991v-1h-.991v1zm4.955 0h.991v-1h-.991v1zm4.955 0h.991v-1h-.991v1zm4.955 0h.991v-1h-.991v1zm4.954 0h.991v-1h-.991v1zm4.955 0h.991v-1h-.991v1zm4.955 0h.991v-1h-.991v1zm4.954 0h.991v-1h-.991v1zm4.955 0h.991v-1h-.991v1zm4.955 0h.991v-1h-.991v1zm4.955 0h.991v-1h-.991v1zm4.954 0h.991v-1h-.991v1zm4.955 0h.991v-1h-.991v1zm4.955 0h.991v-1h-.991v1zm4.955 0h.991v-1h-.991v1zm4.954 0h.991v-1h-.991v1zm4.955 0h.991v-1h-.991v1zm4.955 0h.991v-1h-.991v1zm4.954 0h.991v-1h-.991v1zm4.955 0h.991v-1h-.991v1zm4.955 0h.991v-1h-.991v1zm4.955 0h.991v-1h-.991v1zm4.954 0h.991v-1h-.991v1zm4.955 0h.991v-1h-.991v1zm4.955 0h.991v-1h-.991v1zm4.955 0h.991v-1h-.991v1zm4.954 0h.991v-1h-.991v1zm4.955 0h.991v-1h-.991v1zm4.955 0h.991v-1h-.991v1zm4.954 0h.991v-1h-.991v1zm4.955 0h.991v-1h-.991v1zm4.955 0h.991v-1h-.991v1zm4.955 0h.991v-1h-.991v1zm4.954 0h.991v-1h-.991v1zm4.955 0h.991v-1h-.991v1zm4.955 0h.991v-1h-.991v1zm4.954 0h.991v-1h-.991v1zm4.955 0h.991v-1h-.991v1zm4.955 0h.991v-1h-.991v1zm4.955 0h.991v-1h-.991v1zM0 437.881h1v-1H0zM0 255.612h1v-1.013H0v1.013zm0 5.064h1v-1.013H0v1.013zm0 5.063h1v-1.013H0v1.013zm0 5.064h1v-1.013H0v1.013zm0 5.062h1v-1.013H0v1.013zm0 5.064h1v-1.013H0v1.013zm0 5.063h1v-1.013H0v1.013zm0 5.064h1v-1.013H0v1.013zm0 5.063h1v-1.013H0v1.013zm0 5.064h1v-1.013H0v1.013zm0 5.063h1v-1.013H0v1.013zm0 5.064h1v-1.013H0v1.013zm0 5.063h1v-1.013H0v1.013zm0 5.063h1v-1.013H0v1.013zm0 5.063h1v-1.013H0v1.013zm0 5.064h1v-1.013H0v1.013zm0 5.063h1v-1.013H0v1.013zm0 5.063h1v-1.013H0v1.013zm0 5.064h1v-1.013H0v1.013zm0 5.063h1v-1.013H0v1.013zm0 5.064h1v-1.013H0v1.013zm0 5.063h1v-1.013H0v1.013zm0 5.063h1v-1.013H0v1.013zm0 5.063h1v-1.013H0v1.013zm0 5.064h1v-1.013H0v1.013zm0 5.063h1v-1.013H0v1.013zm0 5.064h1v-1.013H0v1.013zm0 5.063h1v-1.013H0v1.013zm0 5.064h1v-1.013H0v1.013zm0 5.063h1v-1.013H0v1.013zm0 5.064h1v-1.013H0v1.013zm0 5.062h1v-1.013H0v1.013zm0 5.064h1v-1.013H0v1.013zm0 5.063h1v-1.013H0v1.013zm0 5.064h1v-1.013H0v1.013zm0 5.063h1v-1.013H0v1.013z"/>
        <path d="M175.605 370.067c0 .442-.083.844-.25 1.207-.166.36-.4.671-.704.93a3.248 3.248 0 01-1.09.596 4.39 4.39 0 01-1.401.212c-.934 0-1.678-.176-2.229-.533v-1.202a3.576 3.576 0 002.27.779c.341 0 .65-.043.926-.13a2.08 2.08 0 00.711-.376c.198-.165.351-.363.458-.595a1.86 1.86 0 00.161-.785c0-1.281-.912-1.922-2.735-1.922h-.813v-.95h.772c1.613 0 2.42-.601 2.42-1.805 0-1.113-.615-1.668-1.846-1.668-.692 0-1.342.233-1.948.697v-1.087c.625-.373 1.367-.56 2.229-.56.41 0 .781.057 1.114.17.332.115.618.274.854.48.237.204.421.45.551.738.13.287.195.603.195.95 0 1.29-.652 2.12-1.956 2.488v.027c.333.036.641.118.923.243.283.125.527.288.732.49a2.18 2.18 0 01.656 1.606M181.422 366.977c-.196-.15-.479-.226-.848-.226-.478 0-.878.226-1.199.677-.322.45-.482 1.067-.482 1.846v3.568h-1.12v-7h1.12v1.443h.027c.16-.493.403-.876.731-1.152a1.669 1.669 0 011.101-.414c.292 0 .515.032.67.096v1.162zM187.308 369.677v-1.032c0-.566-.187-1.044-.56-1.436-.374-.391-.848-.588-1.422-.588-.684 0-1.222.25-1.614.752-.392.5-.588 1.195-.588 2.078 0 .807.188 1.444.564 1.91.376.468.881.702 1.515.702.624 0 1.131-.226 1.521-.677.39-.451.584-1.021.584-1.71zm1.121 3.165h-1.12v-1.19h-.028c-.52.903-1.322 1.354-2.407 1.354-.879 0-1.582-.313-2.108-.94-.527-.626-.79-1.48-.79-2.56 0-1.157.291-2.085.875-2.782.583-.697 1.36-1.046 2.331-1.046.961 0 1.661.378 2.1 1.135h.026v-4.334h1.121v10.363zM195.655 369.007v.978c0 .579.188 1.07.564 1.472.376.404.853.606 1.432.606.679 0 1.21-.26 1.596-.78.386-.52.578-1.242.578-2.167 0-.78-.18-1.39-.54-1.832-.36-.442-.848-.663-1.463-.663-.652 0-1.176.227-1.572.68-.397.454-.595 1.022-.595 1.706m.027 2.823h-.027v4.232h-1.121v-10.22h1.12v1.23h.028c.552-.93 1.358-1.394 2.42-1.394.903 0 1.607.313 2.113.939.505.627.758 1.467.758 2.52 0 1.17-.284 2.109-.854 2.812-.57.705-1.35 1.057-2.338 1.057-.907 0-1.606-.392-2.1-1.176M206.47 369.3l-1.689.233c-.52.074-.912.202-1.176.387-.264.184-.397.51-.397.98 0 .342.122.622.366.839.244.215.568.324.974.324.556 0 1.015-.196 1.378-.584.362-.391.543-.884.543-1.481v-.697zm1.12 3.542h-1.12v-1.094h-.028c-.488.839-1.206 1.258-2.154 1.258-.697 0-1.243-.184-1.637-.554-.394-.37-.59-.86-.59-1.47 0-1.307.77-2.07 2.31-2.283l2.098-.294c0-1.19-.48-1.784-1.442-1.784-.844 0-1.604.287-2.284.862v-1.15c.688-.436 1.481-.655 2.38-.655 1.644 0 2.467.87 2.467 2.61v4.554zM213.353 366.977c-.196-.15-.479-.226-.848-.226-.478 0-.878.226-1.199.677-.322.45-.482 1.067-.482 1.846v3.568h-1.121v-7h1.121v1.443h.027c.16-.493.403-.876.731-1.152a1.669 1.669 0 011.101-.414c.292 0 .515.032.67.096v1.162zM218.22 372.774c-.264.146-.613.219-1.046.219-1.226 0-1.839-.685-1.839-2.051v-4.144h-1.203v-.957h1.203v-1.709l1.121-.361v2.07h1.764v.957h-1.764v3.945c0 .47.08.805.24 1.005.16.2.423.3.793.3.282 0 .526-.077.731-.231v.957zM225.289 365.842l-3.22 8.12c-.574 1.45-1.381 2.175-2.42 2.175-.291 0-.535-.03-.731-.09v-1.004c.242.082.462.123.663.123.565 0 .989-.337 1.27-1.011l.562-1.327-2.734-6.986h1.244l1.893 5.387c.023.068.07.246.144.533h.04c.024-.11.069-.282.138-.52l1.989-5.4h1.162zM179.023 385.807v.978c0 .579.188 1.07.564 1.472.376.404.853.606 1.432.606.679 0 1.21-.26 1.596-.78.386-.52.578-1.242.578-2.167 0-.78-.18-1.39-.54-1.832-.36-.442-.848-.663-1.463-.663-.652 0-1.176.227-1.572.68-.397.454-.595 1.022-.595 1.706m.027 2.823h-.027v1.012h-1.121v-10.363h1.12v4.593h.028c.552-.93 1.358-1.394 2.42-1.394.898 0 1.6.313 2.109.939.508.627.762 1.467.762 2.52 0 1.17-.284 2.109-.854 2.812-.57.705-1.35 1.057-2.338 1.057-.925 0-1.625-.392-2.1-1.176M189.837 386.1l-1.688.233c-.52.074-.912.202-1.176.387-.264.184-.397.51-.397.98 0 .342.122.622.366.839.244.215.568.324.974.324.556 0 1.015-.196 1.378-.584.362-.391.543-.884.543-1.481v-.697zm1.121 3.542h-1.12v-1.094h-.028c-.488.839-1.206 1.258-2.154 1.258-.697 0-1.243-.184-1.637-.554-.394-.37-.59-.86-.59-1.47 0-1.307.77-2.07 2.31-2.283l2.098-.294c0-1.19-.48-1.784-1.442-1.784-.844 0-1.604.287-2.284.862v-1.15c.688-.436 1.481-.655 2.38-.655 1.644 0 2.467.87 2.467 2.61v4.554zM197.842 389.32c-.538.323-1.176.485-1.914.485-.998 0-1.804-.324-2.417-.974-.612-.649-.919-1.49-.919-2.526 0-1.153.331-2.079.991-2.779.661-.699 1.543-1.049 2.646-1.049.615 0 1.157.114 1.627.342v1.148c-.52-.364-1.076-.546-1.668-.546-.716 0-1.303.255-1.76.77-.459.511-.688 1.185-.688 2.02 0 .82.216 1.466.646 1.94.431.474 1.01.711 1.733.711.611 0 1.185-.203 1.723-.608v1.066zM205.348 389.642h-1.572l-3.09-3.363h-.027v3.363h-1.122v-10.363h1.122v6.569h.027l2.94-3.206h1.47l-3.248 3.377zM212.157 389.642h-1.121v-1.107h-.027c-.465.847-1.185 1.27-2.161 1.27-1.668 0-2.502-.992-2.502-2.98v-4.183h1.115v4.006c0 1.476.565 2.215 1.695 2.215a1.71 1.71 0 001.35-.606c.353-.402.53-.93.53-1.582v-4.033h1.12v7zM215.54 385.807v.978c0 .579.189 1.07.565 1.472.376.404.853.606 1.431.606.68 0 1.212-.26 1.596-.78.386-.52.578-1.242.578-2.167 0-.78-.18-1.39-.54-1.832-.36-.442-.847-.663-1.462-.663-.653 0-1.177.227-1.572.68-.398.454-.595 1.022-.595 1.706m.026 2.823h-.026v4.232h-1.121v-10.22h1.12v1.23h.028c.551-.93 1.357-1.394 2.42-1.394.903 0 1.607.313 2.113.939.505.627.757 1.467.757 2.52 0 1.17-.284 2.109-.853 2.812-.57.705-1.35 1.057-2.338 1.057-.907 0-1.607-.392-2.1-1.176" fill="#525252"/>
        <path d="M206.553 343.07h-13.582c1.728 5.882-.494 6.905-9.876 6.905v3.07h32.1v-3.069c-9.382 0-10.369-1.023-8.64-6.906" fill="#7C7B7B"/>
        <path d="M221.053 307.045H176.98a2.752 2.752 0 00-2.739 2.714v30.6a2.752 2.752 0 002.74 2.714h44.072a2.979 2.979 0 002.988-2.714v-30.6a2.979 2.979 0 00-2.988-2.714" fill="#9FA0A2"/>
        <path d="M175.532 307.6a2.906 2.906 0 00-1.29 2.217v30.544-30.544c.062-.9.54-1.72 1.29-2.218" fill="#FFF"/>
        <path d="M220.725 307.045h-43.764a2.662 2.662 0 00-1.484.493 2.944 2.944 0 00-1.236 2.221v30.6a2.74 2.74 0 002.72 2.714h.99l4.45-3.7h-4.448v-28.627h38.324l4.451-3.7" fill="#B4B4B5"/>
        <path fill="#FFF" d="M178.114 339.743h42.057V310.37h-42.057z"/>
        <path fill="#5BB4DA" d="M178.114 339.743V310.37h38.183-38.183z"/>
        <path fill="#9FA0A2" d="M183.095 353.044h32.095v-2.771h-32.095z"/>
        <path d="M198.036 309.262c0-.306.372-.554.83-.554.458 0 .83.248.83.554 0 .307-.372.555-.83.555-.458 0-.83-.248-.83-.555" fill="#B8D433"/>
        <path d="M545.498 337.067c0 .442-.083.844-.25 1.207a2.69 2.69 0 01-.703.93 3.262 3.262 0 01-1.091.596 4.39 4.39 0 01-1.401.212c-.934 0-1.677-.176-2.23-.533v-1.202a3.576 3.576 0 002.27.779c.342 0 .65-.043.927-.13a2.08 2.08 0 00.71-.376c.2-.165.352-.363.459-.595a1.86 1.86 0 00.16-.785c0-1.281-.911-1.922-2.734-1.922h-.813v-.95h.772c1.613 0 2.42-.601 2.42-1.805 0-1.113-.615-1.668-1.846-1.668-.692 0-1.341.233-1.948.697v-1.087c.625-.373 1.367-.56 2.229-.56.41 0 .782.057 1.114.17.333.115.618.274.854.48.238.204.42.45.55.738.13.287.196.603.196.95 0 1.29-.652 2.12-1.956 2.488v.027c.333.036.64.118.923.243.284.125.527.288.732.49.205.2.366.435.482.707.116.27.174.57.174.899M551.315 333.977c-.195-.15-.48-.226-.848-.226-.478 0-.878.226-1.2.677-.32.45-.481 1.067-.481 1.846v3.568h-1.121v-7h1.12v1.443h.028c.16-.493.403-.876.73-1.152a1.67 1.67 0 011.102-.414c.292 0 .516.032.67.096v1.162zM557.2 336.677v-1.032c0-.566-.186-1.044-.56-1.436-.373-.391-.847-.588-1.421-.588-.684 0-1.221.25-1.614.752-.391.5-.588 1.195-.588 2.078 0 .807.189 1.444.565 1.91.376.468.88.702 1.514.702.625 0 1.13-.226 1.52-.677.39-.451.585-1.021.585-1.71zm1.122 3.165H557.2v-1.19h-.027c-.52.903-1.322 1.354-2.407 1.354-.88 0-1.582-.313-2.108-.94-.526-.626-.79-1.48-.79-2.56 0-1.157.292-2.085.875-2.782.584-.697 1.36-1.046 2.33-1.046.963 0 1.662.378 2.1 1.135h.027v-4.334h1.12v10.363zM565.547 336.007v.978c0 .579.188 1.07.564 1.472.376.404.854.606 1.432.606.68 0 1.211-.26 1.597-.78.385-.52.577-1.242.577-2.167 0-.78-.18-1.39-.54-1.832-.359-.442-.848-.663-1.463-.663-.65 0-1.176.227-1.572.68-.397.454-.595 1.022-.595 1.706m.027 2.823h-.027v4.232h-1.12v-10.22h1.12v1.23h.027c.552-.93 1.36-1.394 2.42-1.394.903 0 1.607.313 2.113.939.505.627.758 1.467.758 2.52 0 1.17-.284 2.109-.854 2.812-.569.705-1.349 1.057-2.338 1.057-.906 0-1.606-.392-2.099-1.176M576.362 336.3l-1.688.233c-.52.074-.912.202-1.176.387-.264.184-.397.51-.397.98 0 .342.122.622.366.839.244.215.569.324.974.324.557 0 1.016-.196 1.378-.584.362-.391.543-.884.543-1.481v-.697zm1.12 3.542h-1.12v-1.094h-.027c-.488.839-1.205 1.258-2.154 1.258-.697 0-1.243-.184-1.636-.554-.395-.37-.592-.86-.592-1.47 0-1.307.77-2.07 2.31-2.283l2.099-.294c0-1.19-.48-1.784-1.442-1.784-.843 0-1.604.287-2.284.862v-1.15c.689-.436 1.482-.655 2.379-.655 1.646 0 2.468.87 2.468 2.61v4.554zM583.246 333.977c-.195-.15-.48-.226-.848-.226-.478 0-.878.226-1.2.677-.32.45-.481 1.067-.481 1.846v3.568h-1.121v-7h1.12v1.443h.028c.16-.493.403-.876.73-1.152a1.67 1.67 0 011.102-.414c.292 0 .516.032.67.096v1.162zM588.113 339.774c-.264.146-.612.219-1.046.219-1.225 0-1.84-.685-1.84-2.051v-4.144h-1.202v-.957h1.203v-1.709l1.12-.361v2.07h1.765v.957h-1.764v3.945c0 .47.08.805.24 1.005.16.2.423.3.793.3.283 0 .526-.077.73-.231v.957zM595.181 332.842l-3.22 8.12c-.574 1.45-1.38 2.175-2.42 2.175-.29 0-.535-.03-.73-.09v-1.004c.241.082.462.123.662.123.565 0 .99-.337 1.271-1.011l.561-1.327-2.734-6.986h1.244l1.893 5.387c.024.068.072.246.144.533h.041c.023-.11.068-.282.137-.52l1.99-5.4h1.161zM601.34 336.007v.978c0 .579.188 1.07.564 1.472.376.404.854.606 1.432.606.68 0 1.211-.26 1.597-.78.385-.52.577-1.242.577-2.167 0-.78-.18-1.39-.54-1.832-.359-.442-.848-.663-1.463-.663-.65 0-1.176.227-1.572.68-.397.454-.595 1.022-.595 1.706m.027 2.823h-.027v1.012h-1.12v-10.363h1.12v4.593h.027c.552-.93 1.36-1.394 2.42-1.394.9 0 1.601.313 2.11.939.507.627.761 1.467.761 2.52 0 1.17-.284 2.109-.854 2.812-.569.705-1.349 1.057-2.338 1.057-.925 0-1.624-.392-2.099-1.176M612.155 336.3l-1.688.233c-.52.074-.912.202-1.176.387-.264.184-.397.51-.397.98 0 .342.122.622.366.839.244.215.569.324.974.324.557 0 1.016-.196 1.378-.584.362-.391.543-.884.543-1.481v-.697zm1.12 3.542h-1.12v-1.094h-.027c-.488.839-1.205 1.258-2.154 1.258-.697 0-1.243-.184-1.636-.554-.395-.37-.592-.86-.592-1.47 0-1.307.77-2.07 2.31-2.283l2.099-.294c0-1.19-.48-1.784-1.442-1.784-.843 0-1.604.287-2.284.862v-1.15c.689-.436 1.482-.655 2.379-.655 1.646 0 2.468.87 2.468 2.61v4.554zM620.16 339.52c-.537.324-1.176.486-1.914.486-.998 0-1.804-.324-2.416-.974-.613-.65-.92-1.491-.92-2.526 0-1.153.33-2.08.99-2.78.662-.698 1.544-1.048 2.647-1.048.615 0 1.158.114 1.627.342v1.148c-.52-.364-1.076-.546-1.668-.546-.715 0-1.302.255-1.76.769-.458.512-.688 1.186-.688 2.02 0 .82.216 1.467.647 1.94.43.475 1.008.712 1.732.712.612 0 1.186-.203 1.723-.608v1.066zM627.665 339.842h-1.572l-3.09-3.363h-.027v3.363h-1.121v-10.363h1.121v6.569h.028l2.938-3.206h1.47l-3.247 3.377zM634.474 339.842h-1.12v-1.107h-.028c-.465.847-1.185 1.27-2.16 1.27-1.669 0-2.503-.992-2.503-2.98v-4.183h1.115v4.006c0 1.476.565 2.215 1.695 2.215.547 0 .997-.201 1.351-.606.352-.402.53-.93.53-1.582v-4.033h1.12v7zM637.858 336.007v.978c0 .579.188 1.07.564 1.472.376.404.854.606 1.432.606.68 0 1.21-.26 1.597-.78.385-.52.577-1.242.577-2.167 0-.78-.18-1.39-.54-1.832-.36-.442-.848-.663-1.463-.663-.651 0-1.176.227-1.572.68-.397.454-.595 1.022-.595 1.706m.027 2.823h-.027v4.232h-1.121v-10.22h1.12v1.23h.028c.552-.93 1.359-1.394 2.42-1.394.903 0 1.607.313 2.113.939.505.627.758 1.467.758 2.52 0 1.17-.284 2.109-.854 2.812-.57.705-1.35 1.057-2.338 1.057-.906 0-1.606-.392-2.1-1.176" fill="#525252"/>
        <path d="M555.85 285.559a2.903 2.903 0 00-1.29 2.217v30.544-30.543c.062-.9.54-1.72 1.29-2.217" fill="#FFF"/>
        <path d="M534.543 179.77l-1.538-4.176a3.98 3.98 0 01-.15-.656h-.029a3.633 3.633 0 01-.156.656l-1.524 4.177h3.398zm2.687 3.78h-1.273l-1.038-2.747h-4.156l-.978 2.748h-1.279l3.76-9.802h1.19l3.774 9.802zM543.403 176.872l-4.143 5.722h4.102v.957h-5.75v-.349l4.143-5.694h-3.752v-.957h5.4zM550.512 183.55h-1.12v-1.106h-.028c-.465.847-1.186 1.27-2.16 1.27-1.669 0-2.503-.992-2.503-2.98v-4.183h1.114v4.006c0 1.476.565 2.215 1.695 2.215.547 0 .998-.201 1.351-.606.352-.402.53-.93.53-1.582v-4.033h1.121v7zM556.424 177.686c-.195-.15-.479-.226-.848-.226-.478 0-.878.226-1.199.677-.32.45-.482 1.067-.482 1.846v3.568h-1.12v-7h1.12v1.443h.027c.16-.493.404-.876.732-1.152a1.668 1.668 0 011.1-.414c.292 0 .516.032.67.096v1.162zM561.934 179.38c-.004-.646-.16-1.15-.468-1.51-.307-.36-.735-.54-1.282-.54-.528 0-.977.19-1.346.568-.369.378-.597.873-.683 1.483h3.78zm1.148.95h-4.94c.017.78.227 1.382.628 1.806.4.424.952.636 1.654.636.788 0 1.513-.26 2.174-.78v1.053c-.615.446-1.43.67-2.44.67-.99 0-1.767-.318-2.33-.953-.567-.637-.849-1.53-.849-2.684 0-1.09.31-1.976.926-2.662.617-.686 1.384-1.03 2.3-1.03.917 0 1.625.297 2.125.89.502.592.752 1.415.752 2.467v.588zM568.305 183.154V181.8c.155.137.342.26.558.37.215.11.444.201.683.277.24.074.48.133.722.174.241.041.465.061.67.061.706 0 1.233-.13 1.582-.393.348-.262.523-.639.523-1.13 0-.266-.058-.495-.175-.692a1.944 1.944 0 00-.48-.536 4.766 4.766 0 00-.729-.465 63.078 63.078 0 00-.907-.468c-.342-.173-.66-.349-.957-.527a4.095 4.095 0 01-.77-.588 2.458 2.458 0 01-.518-.727 2.25 2.25 0 01-.188-.954c0-.446.098-.835.295-1.165.195-.33.453-.604.771-.818a3.523 3.523 0 011.091-.478 4.973 4.973 0 011.247-.157c.967 0 1.671.116 2.113.348v1.292c-.579-.4-1.322-.6-2.228-.6-.25 0-.502.025-.752.077a2.14 2.14 0 00-.67.257 1.478 1.478 0 00-.479.458 1.214 1.214 0 00-.185.683c0 .251.047.467.14.65.094.182.232.348.414.5.182.15.405.295.667.436.261.142.564.296.906.465.35.173.683.356.998.547.314.191.59.403.826.636.237.232.426.49.564.772.14.282.21.607.21.971 0 .483-.096.892-.285 1.226a2.317 2.317 0 01-.765.818c-.322.21-.692.361-1.11.454a6.05 6.05 0 01-1.327.141c-.155 0-.347-.013-.574-.038a8.035 8.035 0 01-.697-.109 5.807 5.807 0 01-.674-.178 2.105 2.105 0 01-.51-.236M578.846 183.482c-.264.147-.612.22-1.045.22-1.226 0-1.84-.684-1.84-2.052v-4.143h-1.203v-.957h1.203v-1.709l1.121-.362v2.071h1.764v.957h-1.764v3.945c0 .47.08.804.241 1.006.16.2.423.3.793.3.282 0 .525-.078.73-.233v.957zM583.243 177.33c-.721 0-1.29.245-1.71.734-.42.491-.628 1.166-.628 2.028 0 .83.21 1.483.635 1.962.424.478.992.717 1.703.717.725 0 1.28-.234 1.67-.704.39-.469.586-1.136.586-2.003 0-.875-.195-1.549-.585-2.023-.39-.474-.946-.71-1.671-.71m-.082 6.384c-1.035 0-1.861-.327-2.48-.98-.616-.655-.924-1.522-.924-2.602 0-1.176.32-2.094.963-2.755.642-.66 1.51-.99 2.605-.99 1.043 0 1.857.32 2.443.963.586.642.879 1.533.879 2.672 0 1.117-.316 2.011-.947 2.684-.631.672-1.478 1.008-2.54 1.008M592.088 177.686c-.196-.15-.479-.226-.848-.226-.478 0-.879.226-1.2.677-.32.45-.48 1.067-.48 1.846v3.568h-1.122v-7h1.121v1.443h.027c.16-.493.402-.876.731-1.152a1.667 1.667 0 011.101-.414c.291 0 .515.032.67.096v1.162zM597.194 180.01l-1.687.232c-.52.074-.913.202-1.176.387-.265.184-.397.51-.397.98 0 .342.12.622.365.839.245.215.569.324.975.324.556 0 1.015-.196 1.377-.584.362-.391.543-.884.543-1.481v-.697zm1.12 3.54h-1.12v-1.093h-.027c-.488.839-1.205 1.258-2.153 1.258-.697 0-1.244-.184-1.637-.554-.394-.37-.591-.86-.591-1.47 0-1.307.769-2.07 2.31-2.283l2.098-.294c0-1.19-.48-1.784-1.441-1.784-.844 0-1.605.287-2.284.862v-1.15c.688-.436 1.48-.655 2.379-.655 1.645 0 2.467.87 2.467 2.61v4.554zM605.282 180.386v-1.032c0-.556-.188-1.032-.564-1.43a1.858 1.858 0 00-1.405-.594c-.693 0-1.235.252-1.627.756-.392.503-.588 1.208-.588 2.115 0 .78.188 1.403.564 1.87.376.467.874.7 1.493.7.629 0 1.14-.223 1.535-.67.395-.445.592-1.018.592-1.715zm1.12 2.604c0 2.57-1.23 3.856-3.69 3.856-.867 0-1.623-.164-2.27-.492v-1.121c.788.437 1.54.656 2.256.656 1.723 0 2.584-.916 2.584-2.748v-.766h-.027c-.534.894-1.336 1.34-2.407 1.34-.871 0-1.572-.31-2.102-.933-.53-.622-.796-1.458-.796-2.505 0-1.19.285-2.135.857-2.837.573-.702 1.355-1.053 2.348-1.053.943 0 1.644.378 2.1 1.135h.027v-.971h1.12v6.439zM613.149 179.38c-.004-.646-.16-1.15-.468-1.51-.307-.36-.735-.54-1.282-.54-.528 0-.977.19-1.346.568-.37.378-.597.873-.683 1.483h3.779zm1.148.95h-4.941c.018.78.228 1.382.629 1.806.4.424.952.636 1.654.636.788 0 1.513-.26 2.174-.78v1.053c-.615.446-1.43.67-2.441.67-.99 0-1.766-.318-2.33-.953-.566-.637-.848-1.53-.848-2.684 0-1.09.309-1.976.926-2.662.617-.686 1.384-1.03 2.3-1.03.917 0 1.625.297 2.125.89.502.592.752 1.415.752 2.467v.588zM622.768 185.78h-.998c-1.413-1.614-2.119-3.604-2.119-5.969 0-2.374.706-4.395 2.12-6.063h1.011c-1.432 1.731-2.147 3.748-2.147 6.05 0 2.283.711 4.277 2.133 5.981M625.174 179.716v.978c0 .579.187 1.07.563 1.472.376.404.854.606 1.433.606.68 0 1.211-.26 1.596-.78s.578-1.242.578-2.167c0-.78-.18-1.39-.54-1.832-.36-.442-.849-.663-1.464-.663-.65 0-1.176.227-1.572.68-.397.454-.594 1.022-.594 1.706m.027 2.823h-.027v1.012h-1.12v-10.363h1.12v4.593h.027c.551-.93 1.358-1.394 2.42-1.394.898 0 1.6.313 2.11.939.507.627.761 1.467.761 2.52 0 1.17-.285 2.109-.855 2.812-.569.705-1.349 1.057-2.338 1.057-.925 0-1.624-.392-2.098-1.176M632.284 183.551h1.121v-10.363h-1.121zM638.682 177.33c-.72 0-1.29.245-1.709.734-.42.491-.629 1.166-.629 2.028 0 .83.211 1.483.635 1.962.424.478.992.717 1.703.717.725 0 1.281-.234 1.671-.704.39-.469.585-1.136.585-2.003 0-.875-.195-1.549-.585-2.023-.39-.474-.946-.71-1.67-.71m-.083 6.384c-1.035 0-1.86-.327-2.479-.98-.617-.655-.925-1.522-.925-2.602 0-1.176.32-2.094.963-2.755.642-.66 1.511-.99 2.605-.99 1.043 0 1.857.32 2.443.963.586.642.88 1.533.88 2.672 0 1.117-.317 2.011-.948 2.684-.63.672-1.478 1.008-2.539 1.008M644.999 179.716v.978c0 .579.187 1.07.563 1.472.375.404.853.606 1.433.606.678 0 1.21-.26 1.596-.78.385-.52.577-1.242.577-2.167 0-.78-.18-1.39-.54-1.832-.36-.442-.849-.663-1.464-.663-.65 0-1.175.227-1.572.68-.396.454-.593 1.022-.593 1.706m.026 2.823H645v1.012h-1.121v-10.363h1.12v4.593h.027c.552-.93 1.359-1.394 2.42-1.394.898 0 1.6.313 2.11.939.508.627.762 1.467.762 2.52 0 1.17-.285 2.109-.856 2.812-.568.705-1.349 1.057-2.337 1.057-.926 0-1.625-.392-2.099-1.176M652.135 185.78h-.998c1.422-1.705 2.133-3.699 2.133-5.982 0-2.302-.716-4.319-2.147-6.05h1.012c1.422 1.668 2.133 3.69 2.133 6.063 0 2.365-.71 4.355-2.133 5.968M533.543 91.22l-1.538-4.177a3.98 3.98 0 01-.15-.656h-.029a3.633 3.633 0 01-.156.656l-1.524 4.177h3.398zM536.23 95h-1.273l-1.038-2.748h-4.156L528.785 95h-1.279l3.76-9.802h1.19L536.23 95zM542.403 88.321l-4.143 5.722h4.102V95h-5.75v-.349l4.143-5.694h-3.752V88h5.4zM549.512 95h-1.12v-1.107h-.028c-.465.847-1.186 1.271-2.16 1.271-1.669 0-2.503-.993-2.503-2.98V88h1.114v4.006c0 1.476.565 2.215 1.695 2.215.547 0 .998-.201 1.351-.606.352-.402.53-.93.53-1.582V88h1.121v7zM555.424 89.135c-.195-.15-.479-.226-.848-.226-.478 0-.878.226-1.199.677-.32.45-.482 1.067-.482 1.846V95h-1.12v-7h1.12v1.443h.027c.16-.493.404-.876.732-1.152a1.668 1.668 0 011.1-.414c.292 0 .516.032.67.096v1.162zM560.934 90.83c-.004-.647-.16-1.15-.468-1.51-.307-.36-.735-.54-1.282-.54-.528 0-.977.19-1.346.567-.369.378-.597.873-.683 1.483h3.78zm1.148.95h-4.94c.017.78.227 1.381.628 1.805.4.424.952.636 1.654.636.788 0 1.513-.26 2.174-.78v1.053c-.615.446-1.43.67-2.44.67-.99 0-1.767-.318-2.33-.953-.567-.637-.849-1.53-.849-2.684 0-1.089.31-1.976.926-2.662.617-.686 1.384-1.029 2.3-1.029.917 0 1.625.296 2.125.89.502.591.752 1.414.752 2.466v.588zM567.305 94.604V93.25c.155.137.342.26.558.37.215.109.444.2.683.277.24.074.48.133.722.174.241.04.465.06.67.06.706 0 1.233-.13 1.582-.392.348-.262.523-.64.523-1.131 0-.265-.058-.494-.175-.691a1.944 1.944 0 00-.48-.536 4.766 4.766 0 00-.729-.465 63.078 63.078 0 00-.907-.468c-.342-.173-.66-.35-.957-.527a4.095 4.095 0 01-.77-.588 2.458 2.458 0 01-.518-.727 2.25 2.25 0 01-.188-.954c0-.446.098-.835.295-1.165.195-.331.453-.604.771-.818a3.523 3.523 0 011.091-.478 4.973 4.973 0 011.247-.157c.967 0 1.671.116 2.113.348v1.292c-.579-.401-1.322-.601-2.228-.601-.25 0-.502.026-.752.078a2.14 2.14 0 00-.67.257 1.478 1.478 0 00-.479.458 1.214 1.214 0 00-.185.683c0 .25.047.467.14.65.094.182.232.348.414.499.182.15.405.296.667.437.261.142.564.296.906.465.35.173.683.356.998.547.314.19.59.403.826.636.237.232.426.49.564.772.14.282.21.607.21.97 0 .484-.096.893-.285 1.227a2.317 2.317 0 01-.765.818c-.322.21-.692.36-1.11.454a6.05 6.05 0 01-1.327.14c-.155 0-.347-.012-.574-.037a8.035 8.035 0 01-.697-.11 5.807 5.807 0 01-.674-.177 2.105 2.105 0 01-.51-.236M577.846 94.932c-.264.146-.612.219-1.045.219-1.226 0-1.84-.684-1.84-2.051v-4.143h-1.203V88h1.203v-1.71l1.121-.361v2.07h1.764v.958h-1.764v3.945c0 .469.08.804.241 1.005.16.2.423.3.793.3.282 0 .525-.077.73-.232v.957zM582.243 88.78c-.721 0-1.29.244-1.71.733-.42.491-.628 1.166-.628 2.028 0 .83.21 1.483.635 1.962.424.478.992.717 1.703.717.725 0 1.28-.234 1.67-.704.39-.469.586-1.136.586-2.003 0-.875-.195-1.549-.585-2.023-.39-.474-.946-.71-1.671-.71m-.082 6.384c-1.035 0-1.861-.327-2.48-.98-.616-.655-.924-1.522-.924-2.602 0-1.176.32-2.094.963-2.755.642-.66 1.51-.99 2.605-.99 1.043 0 1.857.32 2.443.963.586.642.879 1.533.879 2.672 0 1.117-.316 2.011-.947 2.684-.631.672-1.478 1.008-2.54 1.008M591.088 89.135c-.196-.15-.479-.226-.848-.226-.478 0-.879.226-1.2.677-.32.45-.48 1.067-.48 1.846V95h-1.122v-7h1.121v1.443h.027c.16-.493.402-.876.731-1.152a1.667 1.667 0 011.101-.414c.291 0 .515.032.67.096v1.162zM596.194 91.459l-1.687.232c-.52.074-.913.202-1.176.387-.265.184-.397.511-.397.981 0 .341.12.621.365.838.245.215.569.324.975.324.556 0 1.015-.196 1.377-.584.362-.391.543-.884.543-1.481v-.697zm1.12 3.541h-1.12v-1.094h-.027c-.488.839-1.205 1.258-2.153 1.258-.697 0-1.244-.184-1.637-.554-.394-.369-.591-.859-.591-1.469 0-1.308.769-2.07 2.31-2.284l2.098-.294c0-1.189-.48-1.784-1.441-1.784-.844 0-1.605.287-2.284.862v-1.149c.688-.437 1.48-.656 2.379-.656 1.645 0 2.467.87 2.467 2.611V95zM604.282 91.835v-1.032c0-.556-.188-1.032-.564-1.429a1.858 1.858 0 00-1.405-.595c-.693 0-1.235.252-1.627.756-.392.503-.588 1.208-.588 2.115 0 .78.188 1.403.564 1.87.376.467.874.701 1.493.701.629 0 1.14-.224 1.535-.67.395-.446.592-1.019.592-1.716zm1.12 2.604c0 2.571-1.23 3.856-3.69 3.856-.867 0-1.623-.164-2.27-.492v-1.121c.788.437 1.54.656 2.256.656 1.723 0 2.584-.916 2.584-2.748v-.766h-.027c-.534.894-1.336 1.34-2.407 1.34-.871 0-1.572-.31-2.102-.933-.53-.622-.796-1.458-.796-2.505 0-1.19.285-2.135.857-2.837.573-.702 1.355-1.053 2.348-1.053.943 0 1.644.378 2.1 1.135h.027V88h1.12v6.439zM612.149 90.83c-.004-.647-.16-1.15-.468-1.51-.307-.36-.735-.54-1.282-.54-.528 0-.977.19-1.346.567-.37.378-.597.873-.683 1.483h3.779zm1.148.95h-4.941c.018.78.228 1.381.629 1.805.4.424.952.636 1.654.636.788 0 1.513-.26 2.174-.78v1.053c-.615.446-1.43.67-2.441.67-.99 0-1.766-.318-2.33-.953-.566-.637-.848-1.53-.848-2.684 0-1.089.309-1.976.926-2.662.617-.686 1.384-1.029 2.3-1.029.917 0 1.625.296 2.125.89.502.591.752 1.414.752 2.466v.588zM621.768 97.229h-.998c-1.413-1.613-2.119-3.603-2.119-5.968 0-2.374.706-4.395 2.12-6.063h1.011c-1.432 1.73-2.147 3.748-2.147 6.05 0 2.283.711 4.277 2.133 5.98M624.174 91.165v.978c0 .58.187 1.07.563 1.472.376.404.854.606 1.433.606.68 0 1.211-.26 1.596-.78.385-.519.578-1.242.578-2.167 0-.779-.18-1.389-.54-1.832-.36-.442-.849-.663-1.464-.663-.65 0-1.176.227-1.572.68-.397.454-.594 1.022-.594 1.706m.027 2.823h-.027V95h-1.12V84.637h1.12v4.593h.027c.551-.929 1.358-1.394 2.42-1.394.898 0 1.6.313 2.11.94.507.626.761 1.466.761 2.52 0 1.17-.285 2.108-.855 2.811-.569.705-1.349 1.057-2.338 1.057-.925 0-1.624-.392-2.098-1.176M631.284 95h1.121V84.637h-1.121zM637.682 88.78c-.72 0-1.29.244-1.709.733-.42.491-.629 1.166-.629 2.028 0 .83.211 1.483.635 1.962.424.478.992.717 1.703.717.725 0 1.281-.234 1.671-.704.39-.469.585-1.136.585-2.003 0-.875-.195-1.549-.585-2.023-.39-.474-.946-.71-1.67-.71m-.083 6.384c-1.035 0-1.86-.327-2.479-.98-.617-.655-.925-1.522-.925-2.602 0-1.176.32-2.094.963-2.755.642-.66 1.511-.99 2.605-.99 1.043 0 1.857.32 2.443.963.586.642.88 1.533.88 2.672 0 1.117-.317 2.011-.948 2.684-.63.672-1.478 1.008-2.539 1.008M643.999 91.165v.978c0 .58.187 1.07.563 1.472.375.404.853.606 1.433.606.678 0 1.21-.26 1.596-.78.385-.519.577-1.242.577-2.167 0-.779-.18-1.389-.54-1.832-.36-.442-.849-.663-1.464-.663-.65 0-1.175.227-1.572.68-.396.454-.593 1.022-.593 1.706m.026 2.823H644V95h-1.121V84.637h1.12v4.593h.027c.552-.929 1.359-1.394 2.42-1.394.898 0 1.6.313 2.11.94.508.626.762 1.466.762 2.52 0 1.17-.285 2.108-.856 2.811-.568.705-1.349 1.057-2.337 1.057-.926 0-1.625-.392-2.099-1.176M651.135 97.229h-.998c1.422-1.704 2.133-3.698 2.133-5.981 0-2.302-.716-4.32-2.147-6.05h1.012c1.422 1.668 2.133 3.689 2.133 6.063 0 2.365-.71 4.355-2.133 5.968" fill="#525252"/>
        <path d="M460.334 153.96c-.622.328-1.396.492-2.32.492-1.197 0-2.154-.385-2.872-1.154-.719-.77-1.079-1.779-1.079-3.029 0-1.344.406-2.43 1.214-3.258.809-.828 1.834-1.242 3.077-1.242.796 0 1.457.115 1.98.345v1.049a4.018 4.018 0 00-1.993-.504c-.964 0-1.747.322-2.346.967-.6.645-.9 1.506-.9 2.584 0 1.023.28 1.839.841 2.446.56.608 1.296.911 2.207.911.843 0 1.574-.187 2.19-.562v.955zM464.494 148.98c-.617 0-1.105.21-1.465.63-.36.42-.54.998-.54 1.736 0 .712.183 1.273.546 1.683.363.41.85.614 1.459.614.62 0 1.099-.2 1.433-.602.334-.404.5-.976.5-1.718 0-.75-.166-1.328-.5-1.734-.334-.406-.812-.61-1.433-.61m-.07 5.473c-.887 0-1.595-.28-2.124-.84-.53-.561-.794-1.304-.794-2.23 0-1.007.275-1.796.826-2.362.55-.566 1.295-.85 2.232-.85.895 0 1.593.276 2.095.828.502.55.753 1.314.753 2.29 0 .957-.271 1.724-.812 2.3-.541.577-1.266.864-2.176.864M471.525 148.98c-.617 0-1.105.21-1.465.63-.36.42-.54.998-.54 1.736 0 .712.183 1.273.546 1.683.363.41.85.614 1.459.614.62 0 1.099-.2 1.433-.602.334-.404.5-.976.5-1.718 0-.75-.166-1.328-.5-1.734-.334-.406-.812-.61-1.433-.61m-.07 5.473c-.887 0-1.595-.28-2.124-.84-.53-.561-.794-1.304-.794-2.23 0-1.007.275-1.796.826-2.362.55-.566 1.295-.85 2.232-.85.895 0 1.593.276 2.095.828.502.55.753 1.314.753 2.29 0 .957-.271 1.724-.812 2.3-.541.577-1.266.864-2.176.864M475.978 154.312h.961v-8.883h-.961zM484.955 154.253c-.227.125-.525.187-.896.187-1.051 0-1.577-.585-1.577-1.757v-3.551h-1.031v-.82h1.03v-1.465l.962-.311v1.776h1.512v.82h-1.512v3.381c0 .402.069.689.205.861.137.172.364.258.68.258.242 0 .45-.066.627-.199v.82zM486.238 154.312h.961v-6h-.961v6zm.492-7.524a.604.604 0 01-.439-.176.589.589 0 01-.182-.445c0-.18.06-.329.182-.448a.603.603 0 01.439-.179.62.62 0 01.633.627.593.593 0 01-.185.439.611.611 0 01-.448.182zM492.982 150.737c-.004-.555-.138-.986-.401-1.295-.264-.309-.63-.463-1.1-.463-.452 0-.837.162-1.153.487-.317.324-.512.748-.586 1.271h3.24zm.984.814h-4.236c.016.668.195 1.184.539 1.547.344.364.817.545 1.418.545.676 0 1.297-.222 1.863-.668v.903c-.527.382-1.224.574-2.091.574-.848 0-1.514-.273-1.998-.818-.485-.544-.727-1.31-.727-2.299 0-.934.265-1.695.794-2.283a2.547 2.547 0 011.972-.88c.785 0 1.392.252 1.822.76.43.508.644 1.213.644 2.116v.503zM498.548 149.284c-.168-.129-.41-.193-.727-.193-.41 0-.752.193-1.028.58-.275.386-.413.914-.413 1.582v3.058h-.96v-6h.96v1.237h.023c.137-.422.346-.75.627-.988.282-.236.596-.354.944-.354.25 0 .441.027.574.082v.996z" fill="#2272B9"/>
        <path fill="#E71E27" d="M465.711 71.324h-.984v-3.832h-4.348v3.832h-.984v-8.402h.984v3.685h4.348v-3.685h.984zM470.364 65.992c-.617 0-1.105.21-1.465.63-.36.42-.54 1-.54 1.737 0 .711.183 1.272.546 1.682.363.41.85.615 1.459.615.62 0 1.099-.2 1.433-.603.334-.403.5-.975.5-1.717 0-.75-.166-1.328-.5-1.735-.334-.406-.812-.609-1.433-.609m-.07 5.473c-.887 0-1.595-.28-2.124-.84-.53-.562-.794-1.305-.794-2.23 0-1.008.275-1.796.826-2.362.55-.566 1.295-.85 2.232-.85.895 0 1.593.276 2.095.827.502.55.753 1.314.753 2.291 0 .957-.271 1.723-.812 2.3-.541.576-1.266.864-2.176.864M477.6 71.266c-.227.125-.525.187-.896.187-1.05 0-1.577-.585-1.577-1.757v-3.551h-1.03v-.82h1.03V63.86l.961-.311v1.776h1.512v.82h-1.512v3.38c0 .403.07.69.205.862.137.172.364.258.68.258.242 0 .451-.066.627-.2v.82zM484.954 71.266c-.227.125-.525.187-.896.187-1.051 0-1.577-.585-1.577-1.757v-3.551h-1.031v-.82h1.03V63.86l.962-.311v1.776h1.512v.82h-1.512v3.38c0 .403.069.69.205.862.137.172.364.258.68.258.242 0 .45-.066.627-.2v.82zM486.237 71.324h.961v-6h-.961v6zm.492-7.523a.608.608 0 01-.439-.176.59.59 0 01-.182-.445c0-.18.06-.329.182-.449a.602.602 0 01.439-.178.62.62 0 01.633.627.593.593 0 01-.185.439.615.615 0 01-.448.182zM492.981 67.75c-.004-.555-.138-.986-.401-1.295-.264-.309-.63-.463-1.099-.463-.453 0-.838.162-1.154.487-.317.324-.512.748-.586 1.271h3.24zm.984.814h-4.236c.016.668.195 1.184.539 1.547.344.364.817.545 1.418.545.676 0 1.297-.222 1.863-.668v.903c-.527.382-1.224.574-2.091.574-.848 0-1.514-.273-1.998-.818-.485-.544-.727-1.311-.727-2.299 0-.934.265-1.695.794-2.283a2.547 2.547 0 011.972-.881c.785 0 1.392.253 1.822.761.43.508.644 1.213.644 2.116v.503zM498.547 66.297c-.168-.13-.41-.193-.727-.193-.41 0-.752.193-1.028.58-.275.386-.413.914-.413 1.582v3.058h-.96v-6h.96v1.237h.023c.137-.422.346-.751.627-.988.282-.236.596-.354.944-.354.25 0 .441.027.574.082v.996z"/>
        <path d="M554.828 458.963h-1.142v-6.576c0-.52.032-1.155.096-1.907h-.027c-.11.442-.208.758-.294.95l-3.35 7.533h-.56l-3.343-7.48c-.096-.217-.194-.552-.294-1.003h-.027c.036.39.054 1.032.054 1.92v6.563h-1.107v-9.803h1.517l3.008 6.836c.233.525.383.916.45 1.176h.042c.196-.538.353-.938.472-1.203l3.069-6.81h1.436v9.804zM557.254 458.963h1.121v-7h-1.121v7zm.575-8.777a.711.711 0 01-.725-.725.7.7 0 01.212-.523.702.702 0 01.513-.208.72.72 0 01.522.208.696.696 0 01.216.523c0 .2-.072.371-.216.513a.716.716 0 01-.522.212zM565.417 458.642c-.538.323-1.177.485-1.914.485-.999 0-1.805-.324-2.418-.974-.612-.65-.918-1.491-.918-2.526 0-1.153.33-2.08.99-2.78.66-.698 1.542-1.048 2.646-1.048.615 0 1.158.114 1.628.342v1.148c-.52-.364-1.077-.546-1.668-.546-.716 0-1.303.255-1.762.769-.457.512-.687 1.186-.687 2.02 0 .82.216 1.467.647 1.94.43.475 1.009.712 1.732.712.611 0 1.186-.203 1.724-.608v1.066zM570.762 453.098c-.196-.15-.479-.226-.848-.226-.478 0-.879.226-1.2.677-.32.45-.48 1.067-.48 1.846v3.568h-1.122v-7h1.121v1.443h.027c.16-.493.403-.876.731-1.152a1.669 1.669 0 011.101-.414c.291 0 .515.032.67.096v1.162zM574.802 452.742c-.72 0-1.29.245-1.709.734-.42.491-.629 1.166-.629 2.028 0 .83.212 1.483.636 1.962.424.478.991.717 1.702.717.725 0 1.281-.234 1.671-.704.39-.469.585-1.136.585-2.003 0-.875-.195-1.549-.585-2.023-.39-.474-.946-.71-1.67-.71m-.083 6.384c-1.035 0-1.86-.327-2.479-.98-.617-.655-.925-1.522-.925-2.602 0-1.176.321-2.094.964-2.755.642-.66 1.51-.99 2.604-.99 1.043 0 1.858.32 2.443.963.586.642.88 1.533.88 2.672 0 1.117-.316 2.011-.948 2.684-.63.672-1.478 1.008-2.539 1.008M579.574 458.71v-1.203c.61.451 1.282.677 2.017.677.984 0 1.476-.328 1.476-.985a.845.845 0 00-.127-.474 1.248 1.248 0 00-.342-.346 2.57 2.57 0 00-.505-.27c-.194-.08-.403-.163-.625-.25a7.942 7.942 0 01-.818-.373 2.466 2.466 0 01-.588-.423 1.577 1.577 0 01-.355-.537 1.911 1.911 0 01-.12-.704c0-.328.076-.619.226-.871.15-.254.35-.465.602-.637a2.85 2.85 0 01.857-.385 3.8 3.8 0 01.995-.13c.606 0 1.149.104 1.627.314v1.135c-.515-.337-1.107-.506-1.777-.506-.21 0-.4.024-.567.072a1.365 1.365 0 00-.435.202.947.947 0 00-.28.31.825.825 0 00-.1.401.96.96 0 00.1.458c.066.123.163.232.29.328.128.095.283.182.466.259.18.078.389.163.622.253.309.119.588.241.834.366.246.126.455.267.629.423.172.159.306.339.399.544.094.206.14.45.14.732 0 .347-.076.647-.23.902a1.962 1.962 0 01-.61.636c-.256.169-.55.294-.882.376a4.362 4.362 0 01-1.046.123c-.721 0-1.345-.139-1.873-.417M588.946 452.742c-.721 0-1.29.245-1.71.734-.42.491-.628 1.166-.628 2.028 0 .83.212 1.483.636 1.962.424.478.99.717 1.702.717.725 0 1.28-.234 1.67-.704.39-.469.586-1.136.586-2.003 0-.875-.195-1.549-.585-2.023-.39-.474-.946-.71-1.671-.71m-.082 6.384c-1.035 0-1.86-.327-2.48-.98-.616-.655-.924-1.522-.924-2.602 0-1.176.32-2.094.964-2.755.642-.66 1.51-.99 2.604-.99 1.043 0 1.858.32 2.443.963.586.642.879 1.533.879 2.672 0 1.117-.315 2.011-.947 2.684-.631.672-1.478 1.008-2.54 1.008M597.347 449.584a1.497 1.497 0 00-.745-.185c-.784 0-1.176.495-1.176 1.484v1.08h1.641v.957h-1.64v6.043h-1.115v-6.043h-1.196v-.957h1.196v-1.135c0-.733.212-1.313.636-1.74.423-.426.952-.639 1.586-.639.341 0 .612.041.813.123v1.012zM601.77 458.895c-.265.146-.613.219-1.046.219-1.226 0-1.839-.684-1.839-2.051v-4.143h-1.203v-.957h1.203v-1.71l1.121-.361v2.07h1.764v.958h-1.764v3.945c0 .469.079.804.24 1.005.159.2.423.3.793.3.282 0 .526-.077.731-.232v.957zM612.154 455.183l-1.538-4.177a3.78 3.78 0 01-.15-.656h-.028a3.708 3.708 0 01-.157.656l-1.524 4.177h3.397zm2.687 3.78h-1.272l-1.04-2.748h-4.155l-.978 2.748h-1.278l3.76-9.802h1.189l3.774 9.802zM621.013 452.284l-4.143 5.722h4.102v.957h-5.749v-.349l4.143-5.694h-3.753v-.957h5.4zM628.123 458.963h-1.121v-1.107h-.027c-.465.847-1.186 1.27-2.161 1.27-1.668 0-2.502-.992-2.502-2.98v-4.183h1.115v4.006c0 1.476.564 2.215 1.695 2.215a1.71 1.71 0 001.35-.606c.353-.402.53-.93.53-1.582v-4.033h1.12v7zM634.036 453.098c-.196-.15-.48-.226-.848-.226-.478 0-.88.226-1.2.677-.321.45-.481 1.067-.481 1.846v3.568h-1.121v-7h1.12v1.443h.028c.159-.493.403-.876.73-1.152a1.669 1.669 0 011.102-.414c.29 0 .515.032.67.096v1.162zM639.545 454.793c-.005-.647-.16-1.15-.469-1.511-.307-.36-.734-.54-1.28-.54-.53 0-.979.19-1.348.568-.369.378-.597.873-.683 1.483h3.78zm1.148.95h-4.942c.018.779.228 1.381.63 1.805.4.424.951.636 1.653.636.788 0 1.513-.26 2.174-.78v1.053c-.615.446-1.429.67-2.44.67-.99 0-1.767-.318-2.33-.953-.567-.637-.849-1.53-.849-2.684 0-1.089.31-1.976.926-2.662.618-.686 1.384-1.029 2.301-1.029.916 0 1.624.296 2.125.889.501.592.752 1.415.752 2.467v.588zM533.543 424.722l-1.538-4.177a3.98 3.98 0 01-.15-.656h-.029a3.633 3.633 0 01-.156.656l-1.524 4.177h3.398zm2.687 3.78h-1.273l-1.038-2.748h-4.156l-.978 2.748h-1.279l3.76-9.802h1.19l3.774 9.802zM542.403 421.823l-4.143 5.722h4.102v.957h-5.75v-.349l4.143-5.694h-3.752v-.957h5.4zM549.512 428.502h-1.12v-1.107h-.028c-.465.847-1.186 1.271-2.16 1.271-1.669 0-2.503-.993-2.503-2.98v-4.184h1.114v4.006c0 1.476.565 2.215 1.695 2.215.547 0 .998-.201 1.351-.606.352-.402.53-.93.53-1.582v-4.033h1.121v7zM555.424 422.637c-.195-.15-.479-.226-.848-.226-.478 0-.878.226-1.199.677-.32.45-.482 1.067-.482 1.846v3.568h-1.12v-7h1.12v1.443h.027c.16-.493.404-.876.732-1.152a1.668 1.668 0 011.1-.414c.292 0 .516.032.67.096v1.162zM560.934 424.332c-.004-.647-.16-1.15-.468-1.51-.307-.36-.735-.54-1.282-.54-.528 0-.977.19-1.346.567-.369.378-.597.873-.683 1.483h3.78zm1.148.95h-4.94c.017.78.227 1.381.628 1.805.4.424.952.636 1.654.636.788 0 1.513-.26 2.174-.78v1.053c-.615.446-1.43.67-2.44.67-.99 0-1.767-.318-2.33-.953-.567-.637-.849-1.53-.849-2.684 0-1.089.31-1.976.926-2.662.617-.686 1.384-1.029 2.3-1.029.917 0 1.625.296 2.125.89.502.591.752 1.414.752 2.466v.588zM567.305 428.106v-1.354c.155.137.342.26.558.37.215.108.444.2.683.276.24.075.48.133.722.174.241.041.465.062.67.062.706 0 1.233-.132 1.582-.394.348-.262.523-.639.523-1.13 0-.266-.058-.495-.175-.692a1.944 1.944 0 00-.48-.536 4.766 4.766 0 00-.729-.464 63.078 63.078 0 00-.907-.469c-.342-.173-.66-.349-.957-.526a4.095 4.095 0 01-.77-.589 2.458 2.458 0 01-.518-.726 2.25 2.25 0 01-.188-.954c0-.447.098-.836.295-1.166.195-.33.453-.603.771-.817a3.523 3.523 0 011.091-.478 4.973 4.973 0 011.247-.157c.967 0 1.671.115 2.113.348v1.291c-.579-.4-1.322-.6-2.228-.6-.25 0-.502.026-.752.077a2.14 2.14 0 00-.67.257 1.478 1.478 0 00-.479.459 1.214 1.214 0 00-.185.683c0 .25.047.466.14.65.094.181.232.347.414.498.182.15.405.296.667.438.261.142.564.296.906.464.35.173.683.356.998.548.314.19.59.402.826.635.237.233.426.49.564.773.14.281.21.606.21.97 0 .483-.096.893-.285 1.226a2.317 2.317 0 01-.765.819c-.322.21-.692.36-1.11.454a6.05 6.05 0 01-1.327.14c-.155 0-.347-.012-.574-.038a8.035 8.035 0 01-.697-.108 5.807 5.807 0 01-.674-.178 2.105 2.105 0 01-.51-.236M577.846 428.434c-.264.146-.612.219-1.045.219-1.226 0-1.84-.684-1.84-2.051v-4.143h-1.203v-.957h1.203v-1.71l1.121-.361v2.07h1.764v.958h-1.764v3.945c0 .469.08.804.241 1.005.16.2.423.3.793.3.282 0 .525-.077.73-.232v.957zM582.243 422.281c-.721 0-1.29.245-1.71.734-.42.491-.628 1.166-.628 2.028 0 .83.21 1.483.635 1.962.424.478.992.717 1.703.717.725 0 1.28-.234 1.67-.704.39-.469.586-1.136.586-2.003 0-.875-.195-1.549-.585-2.023-.39-.474-.946-.71-1.671-.71m-.082 6.384c-1.035 0-1.861-.327-2.48-.98-.616-.655-.924-1.522-.924-2.602 0-1.176.32-2.094.963-2.755.642-.66 1.51-.99 2.605-.99 1.043 0 1.857.32 2.443.963.586.642.879 1.533.879 2.672 0 1.117-.316 2.011-.947 2.684-.631.672-1.478 1.008-2.54 1.008M591.088 422.637c-.196-.15-.479-.226-.848-.226-.478 0-.879.226-1.2.677-.32.45-.48 1.067-.48 1.846v3.568h-1.122v-7h1.121v1.443h.027c.16-.493.402-.876.731-1.152a1.667 1.667 0 011.101-.414c.291 0 .515.032.67.096v1.162zM596.194 424.961l-1.687.232c-.52.074-.913.202-1.176.387-.265.184-.397.511-.397.981 0 .341.12.621.365.838.245.215.569.324.975.324.556 0 1.015-.196 1.377-.584.362-.391.543-.884.543-1.481v-.697zm1.12 3.541h-1.12v-1.094h-.027c-.488.839-1.205 1.258-2.153 1.258-.697 0-1.244-.184-1.637-.554-.394-.369-.591-.859-.591-1.469 0-1.308.769-2.07 2.31-2.284l2.098-.294c0-1.189-.48-1.784-1.441-1.784-.844 0-1.605.287-2.284.862v-1.149c.688-.437 1.48-.656 2.379-.656 1.645 0 2.467.87 2.467 2.611v4.553zM604.282 425.337v-1.032c0-.556-.188-1.032-.564-1.429a1.858 1.858 0 00-1.405-.595c-.693 0-1.235.252-1.627.756-.392.503-.588 1.208-.588 2.115 0 .78.188 1.403.564 1.87.376.467.874.701 1.493.701.629 0 1.14-.224 1.535-.67.395-.446.592-1.019.592-1.716zm1.12 2.604c0 2.571-1.23 3.856-3.69 3.856-.867 0-1.623-.164-2.27-.492v-1.121c.788.437 1.54.656 2.256.656 1.723 0 2.584-.916 2.584-2.748v-.766h-.027c-.534.894-1.336 1.34-2.407 1.34-.871 0-1.572-.31-2.102-.933-.53-.622-.796-1.458-.796-2.505 0-1.19.285-2.135.857-2.837.573-.702 1.355-1.053 2.348-1.053.943 0 1.644.378 2.1 1.135h.027v-.971h1.12v6.439zM612.149 424.332c-.004-.647-.16-1.15-.468-1.51-.307-.36-.735-.54-1.282-.54-.528 0-.977.19-1.346.567-.37.378-.597.873-.683 1.483h3.779zm1.148.95h-4.941c.018.78.228 1.381.629 1.805.4.424.952.636 1.654.636.788 0 1.513-.26 2.174-.78v1.053c-.615.446-1.43.67-2.441.67-.99 0-1.766-.318-2.33-.953-.566-.637-.848-1.53-.848-2.684 0-1.089.309-1.976.926-2.662.617-.686 1.384-1.029 2.3-1.029.917 0 1.625.296 2.125.89.502.591.752 1.414.752 2.466v.588zM621.768 430.73h-.998c-1.413-1.613-2.119-3.603-2.119-5.968 0-2.373.706-4.394 2.12-6.063h1.011c-1.432 1.731-2.147 3.748-2.147 6.05 0 2.284.711 4.277 2.133 5.981M624.174 424.667v.978c0 .579.187 1.07.563 1.472.376.404.854.606 1.433.606.68 0 1.211-.26 1.596-.78.385-.519.578-1.242.578-2.167 0-.779-.18-1.389-.54-1.832-.36-.442-.849-.663-1.464-.663-.65 0-1.176.227-1.572.68-.397.454-.594 1.022-.594 1.706m.027 2.823h-.027v1.012h-1.12v-10.363h1.12v4.593h.027c.551-.929 1.358-1.394 2.42-1.394.898 0 1.6.313 2.11.939.507.627.761 1.467.761 2.52 0 1.171-.285 2.109-.855 2.812-.569.705-1.349 1.057-2.338 1.057-.925 0-1.624-.392-2.098-1.176M631.284 428.502h1.121v-10.363h-1.121zM637.682 422.281c-.72 0-1.29.245-1.709.734-.42.491-.629 1.166-.629 2.028 0 .83.211 1.483.635 1.962.424.478.992.717 1.703.717.725 0 1.281-.234 1.671-.704.39-.469.585-1.136.585-2.003 0-.875-.195-1.549-.585-2.023-.39-.474-.946-.71-1.67-.71m-.083 6.384c-1.035 0-1.86-.327-2.479-.98-.617-.655-.925-1.522-.925-2.602 0-1.176.32-2.094.963-2.755.642-.66 1.511-.99 2.605-.99 1.043 0 1.857.32 2.443.963.586.642.88 1.533.88 2.672 0 1.117-.317 2.011-.948 2.684-.63.672-1.478 1.008-2.539 1.008M643.999 424.667v.978c0 .579.187 1.07.563 1.472.375.404.853.606 1.433.606.678 0 1.21-.26 1.596-.78.385-.519.577-1.242.577-2.167 0-.779-.18-1.389-.54-1.832-.36-.442-.849-.663-1.464-.663-.65 0-1.175.227-1.572.68-.396.454-.593 1.022-.593 1.706m.026 2.823H644v1.012h-1.121v-10.363h1.12v4.593h.027c.552-.929 1.359-1.394 2.42-1.394.898 0 1.6.313 2.11.939.508.627.762 1.467.762 2.52 0 1.171-.285 2.109-.856 2.812-.568.705-1.349 1.057-2.337 1.057-.926 0-1.625-.392-2.099-1.176M651.135 430.73h-.998c1.422-1.704 2.133-3.697 2.133-5.98 0-2.303-.716-4.32-2.147-6.05h1.012c1.422 1.668 2.133 3.689 2.133 6.063 0 2.365-.71 4.355-2.133 5.968" fill="#525252"/>
        <path d="M545.206 60.832h-2.216l-1.322 1.441h3.538v10.403h-13.087l-2.718 2.96h-1.748a1.6 1.6 0 01-1.588-1.6v.16c0 .8.636 1.521 1.43 1.521h36.772c.793 0 1.508-.642 1.508-1.52v-27.41l-9.907.033-10.662 11.6v2.412z" fill="#9FA0A1"/>
        <path d="M565.775 47.628v-4.562c0-.799-.636-1.519-1.51-1.519h-3.573l-5.583 6.081h10.666zM527.653 41.547h-.158c-.794 0-1.43.72-1.43 1.52v.08a1.6 1.6 0 011.588-1.6" fill="#7A7A7A"/>
        <path fill="#E52C3C" d="M545.207 58.418l-2.216 2.414h2.216zM545.207 62.273h-3.538l-9.548 10.402h13.086z"/>
        <path fill="#FFF" d="M526.065 47.629v.081h28.972l.072-.081z"/>
        <path d="M526.065 74.036a1.6 1.6 0 001.588 1.601h1.747l2.718-2.96h-3.115V62.272h12.665l1.322-1.44h-13.987V50.43h16.203v7.99l9.83-10.71h-28.971v26.326z" fill="#9FA0A1"/>
        <path d="M526.065 74.035a1.6 1.6 0 001.588 1.601h1.747l2.718-2.96h-3.115V62.271h12.665l1.322-1.44h-13.987V50.428h16.203v7.99l10.86-11.832-30.001-.134v27.582z" fill="#BABBBC"/>
        <path d="M560.692 41.547h-33.04a1.6 1.6 0 00-1.587 1.6v4.48h29.044l5.583-6.08z" fill="#7A7A7A"/>
        <path d="M560.692 41.547h-33.04a1.6 1.6 0 00-1.587 1.6v4.48h29.044l5.583-6.08z" fill="#9E9E9E"/>
        <path fill="#0072C5" d="M545.207 50.43h-16.202v10.403h13.986l2.216-2.413z"/>
        <path fill="#EB5A64" d="M545.207 50.43h-16.202v10.403h13.986l2.216-2.413z"/>
        <path fill="#0072C5" d="M529.004 62.273v10.402h3.115l9.55-10.401z"/>
        <path fill="#EB5A64" d="M529.004 62.273v10.402h3.115l9.55-10.401z"/>
        <path fill="#FFF" d="M546.635 60.831h16.122V50.429h-16.122z"/>
        <path fill="#E52C3C" d="M546.635 72.676h16.122V62.274h-16.122z"/>
        <path d="M545.586 147.768h-2.216l-1.32 1.44h3.536v10.403H532.5l-2.719 2.96h-1.747c-.874 0-1.588-.72-1.588-1.6v.16c0 .836.684 1.52 1.521 1.52h36.681c.793 0 1.508-.64 1.508-1.52v-27.41l-9.907.035-10.663 11.598v2.414z" fill="#9FA0A1"/>
        <path d="M566.156 134.563V130c0-.798-.635-1.518-1.51-1.518h-3.573l-5.582 6.08h10.665zM528.035 128.482h-.158c-.79 0-1.43.64-1.43 1.43v.17a1.6 1.6 0 011.588-1.6" fill="#7A7A7A"/>
        <path fill="#0072C5" d="M545.588 145.354l-2.216 2.413h2.216zM545.588 149.208h-3.537l-9.549 10.402h13.086z"/>
        <path fill="#FFF" d="M526.447 134.565v.08h28.972l.072-.08z"/>
        <path d="M526.447 160.97c0 .882.72 1.602 1.6 1.602h1.735l2.718-2.961h-3.115v-10.403h12.665l1.32-1.44h-13.985v-10.403h16.202v7.989l9.832-10.71h-28.972v26.327z" fill="#9FA0A1"/>
        <path d="M526.447 160.97c0 .88.72 1.6 1.6 1.6h1.735l2.718-2.96h-3.115v-10.403h12.665l1.32-1.44h-13.985v-10.402h16.202v7.988l10.86-11.831-30-.134v27.582z" fill="#BABBBC"/>
        <path d="M561.074 128.482h-33.04c-.877 0-1.587.71-1.587 1.588v4.493h29.044l5.583-6.081z" fill="#7A7A7A"/>
        <path d="M561.074 128.482h-33.04c-.877 0-1.587.71-1.587 1.588v4.493h29.044l5.583-6.081z" fill="#9E9E9E"/>
        <path fill="#0072C5" d="M545.588 137.365h-16.202v10.402h13.986l2.216-2.413z"/>
        <path fill="#479AD1" d="M545.588 137.365h-16.202v10.402h13.986l2.216-2.413z"/>
        <path fill="#0072C5" d="M529.386 149.208v10.402h3.115l9.55-10.402z"/>
        <path fill="#479AD1" d="M529.386 149.208v10.402h3.115l9.55-10.402z"/>
        <path fill="#FFF" d="M547.017 147.767h16.122v-10.403h-16.122z"/>
        <path fill="#0072C5" d="M547.017 159.61h16.122v-10.402h-16.122z"/>
        <path d="M590.206 60.832h-2.216l-1.322 1.441h3.538v10.403h-13.087l-2.718 2.96h-1.748a1.6 1.6 0 01-1.588-1.6v.16c0 .8.636 1.521 1.43 1.521h36.772c.793 0 1.508-.642 1.508-1.52v-27.41l-9.907.033-10.662 11.6v2.412z" fill="#9FA0A1"/>
        <path d="M610.775 47.628v-4.562c0-.799-.636-1.519-1.51-1.519h-3.573l-5.583 6.081h10.666zM572.653 41.547h-.158c-.794 0-1.43.72-1.43 1.52v.08a1.6 1.6 0 011.588-1.6" fill="#7A7A7A"/>
        <path fill="#E52C3C" d="M590.207 58.418l-2.216 2.414h2.216zM590.207 62.273h-3.538l-9.548 10.402h13.086z"/>
        <path fill="#FFF" d="M571.065 47.629v.081h28.972l.072-.081z"/>
        <path d="M571.065 74.036a1.6 1.6 0 001.588 1.601h1.747l2.718-2.96h-3.115V62.272h12.665l1.322-1.44h-13.987V50.43h16.203v7.99l9.83-10.71h-28.971v26.326z" fill="#9FA0A1"/>
        <path d="M571.065 74.035a1.6 1.6 0 001.588 1.601h1.747l2.718-2.96h-3.115V62.271h12.665l1.322-1.44h-13.987V50.428h16.203v7.99l10.86-11.832-30.001-.134v27.582z" fill="#BABBBC"/>
        <path d="M605.692 41.547h-33.04a1.6 1.6 0 00-1.587 1.6v4.48h29.044l5.583-6.08z" fill="#7A7A7A"/>
        <path d="M605.692 41.547h-33.04a1.6 1.6 0 00-1.587 1.6v4.48h29.044l5.583-6.08z" fill="#9E9E9E"/>
        <path fill="#0072C5" d="M590.207 50.43h-16.202v10.403h13.986l2.216-2.413z"/>
        <path fill="#EB5A64" d="M590.207 50.43h-16.202v10.403h13.986l2.216-2.413z"/>
        <path fill="#0072C5" d="M574.004 62.273v10.402h3.115l9.55-10.401z"/>
        <path fill="#EB5A64" d="M574.004 62.273v10.402h3.115l9.55-10.401z"/>
        <path fill="#FFF" d="M591.635 60.831h16.122V50.429h-16.122z"/>
        <path fill="#E52C3C" d="M591.635 72.676h16.122V62.274h-16.122z"/>
        <path d="M590.586 147.768h-2.216l-1.32 1.44h3.536v10.403H577.5l-2.719 2.96h-1.747c-.874 0-1.588-.72-1.588-1.6v.16c0 .836.684 1.52 1.521 1.52h36.681c.793 0 1.508-.64 1.508-1.52v-27.41l-9.907.035-10.663 11.598v2.414z" fill="#9FA0A1"/>
        <path d="M611.156 134.563V130c0-.798-.635-1.518-1.51-1.518h-3.573l-5.582 6.08h10.665zM573.035 128.482h-.158c-.79 0-1.43.64-1.43 1.43v.17a1.6 1.6 0 011.588-1.6" fill="#7A7A7A"/>
        <path fill="#0072C5" d="M590.588 145.354l-2.216 2.413h2.216zM590.588 149.208h-3.537l-9.549 10.402h13.086z"/>
        <path fill="#FFF" d="M571.447 134.565v.08h28.972l.072-.08z"/>
        <path d="M571.447 160.97c0 .882.72 1.602 1.6 1.602h1.735l2.718-2.961h-3.115v-10.403h12.665l1.32-1.44h-13.985v-10.403h16.202v7.989l9.832-10.71h-28.972v26.327z" fill="#9FA0A1"/>
        <path d="M571.447 160.97c0 .88.72 1.6 1.6 1.6h1.735l2.718-2.96h-3.115v-10.403h12.665l1.32-1.44h-13.985v-10.402h16.202v7.988l10.86-11.831-30-.134v27.582z" fill="#BABBBC"/>
        <path d="M606.074 128.482h-33.04c-.877 0-1.587.71-1.587 1.588v4.493h29.044l5.583-6.081z" fill="#7A7A7A"/>
        <path d="M606.074 128.482h-33.04c-.877 0-1.587.71-1.587 1.588v4.493h29.044l5.583-6.081z" fill="#9E9E9E"/>
        <path fill="#0072C5" d="M590.588 137.365h-16.202v10.402h13.986l2.216-2.413z"/>
        <path fill="#479AD1" d="M590.588 137.365h-16.202v10.402h13.986l2.216-2.413z"/>
        <path fill="#0072C5" d="M574.386 149.208v10.402h3.115l9.55-10.402z"/>
        <path fill="#479AD1" d="M574.386 149.208v10.402h3.115l9.55-10.402z"/>
        <path fill="#FFF" d="M592.017 147.767h16.122v-10.403h-16.122z"/>
        <path fill="#0072C5" d="M592.017 159.61h16.122v-10.402h-16.122z"/>
        <path d="M635.206 60.832h-2.216l-1.322 1.441h3.538v10.403h-13.087l-2.718 2.96h-1.748a1.6 1.6 0 01-1.588-1.6v.16c0 .8.636 1.521 1.43 1.521h36.772c.793 0 1.508-.642 1.508-1.52v-27.41l-9.907.033-10.662 11.6v2.412z" fill="#9FA0A1"/>
        <path d="M655.775 47.628v-4.562c0-.799-.636-1.519-1.51-1.519h-3.573l-5.583 6.081h10.666zM617.653 41.547h-.158c-.794 0-1.43.72-1.43 1.52v.08a1.6 1.6 0 011.588-1.6" fill="#7A7A7A"/>
        <path fill="#E52C3C" d="M635.207 58.418l-2.216 2.414h2.216zM635.207 62.273h-3.538l-9.548 10.402h13.086z"/>
        <path fill="#FFF" d="M616.065 47.629v.081h28.972l.072-.081z"/>
        <path d="M616.065 74.036a1.6 1.6 0 001.588 1.601h1.747l2.718-2.96h-3.115V62.272h12.665l1.322-1.44h-13.987V50.43h16.203v7.99l9.83-10.71h-28.971v26.326z" fill="#9FA0A1"/>
        <path d="M616.065 74.035a1.6 1.6 0 001.588 1.601h1.747l2.718-2.96h-3.115V62.271h12.665l1.322-1.44h-13.987V50.428h16.203v7.99l10.86-11.832-30.001-.134v27.582z" fill="#BABBBC"/>
        <path d="M650.692 41.547h-33.04a1.6 1.6 0 00-1.587 1.6v4.48h29.044l5.583-6.08z" fill="#7A7A7A"/>
        <path d="M650.692 41.547h-33.04a1.6 1.6 0 00-1.587 1.6v4.48h29.044l5.583-6.08z" fill="#9E9E9E"/>
        <path fill="#0072C5" d="M635.207 50.43h-16.202v10.403h13.986l2.216-2.413z"/>
        <path fill="#EB5A64" d="M635.207 50.43h-16.202v10.403h13.986l2.216-2.413z"/>
        <path fill="#0072C5" d="M619.004 62.273v10.402h3.115l9.55-10.401z"/>
        <path fill="#EB5A64" d="M619.004 62.273v10.402h3.115l9.55-10.401z"/>
        <path fill="#FFF" d="M636.635 60.831h16.122V50.429h-16.122z"/>
        <path fill="#E52C3C" d="M636.635 72.676h16.122V62.274h-16.122z"/>
        <path d="M635.586 147.768h-2.216l-1.32 1.44h3.536v10.403H622.5l-2.719 2.96h-1.747c-.874 0-1.588-.72-1.588-1.6v.16c0 .836.684 1.52 1.521 1.52h36.681c.793 0 1.508-.64 1.508-1.52v-27.41l-9.907.035-10.663 11.598v2.414z" fill="#9FA0A1"/>
        <path d="M656.156 134.563V130c0-.798-.635-1.518-1.51-1.518h-3.573l-5.582 6.08h10.665zM618.035 128.482h-.158c-.79 0-1.43.64-1.43 1.43v.17a1.6 1.6 0 011.588-1.6" fill="#7A7A7A"/>
        <path fill="#0072C5" d="M635.588 145.354l-2.216 2.413h2.216zM635.588 149.208h-3.537l-9.549 10.402h13.086z"/>
        <path fill="#FFF" d="M616.447 134.565v.08h28.972l.072-.08z"/>
        <path d="M616.447 160.97c0 .882.72 1.602 1.6 1.602h1.735l2.718-2.961h-3.115v-10.403h12.665l1.32-1.44h-13.985v-10.403h16.202v7.989l9.832-10.71h-28.972v26.327z" fill="#9FA0A1"/>
        <path d="M616.447 160.97c0 .88.72 1.6 1.6 1.6h1.735l2.718-2.96h-3.115v-10.403h12.665l1.32-1.44h-13.985v-10.402h16.202v7.988l10.86-11.831-30-.134v27.582z" fill="#BABBBC"/>
        <path d="M651.074 128.482h-33.04c-.877 0-1.587.71-1.587 1.588v4.493h29.044l5.583-6.081z" fill="#7A7A7A"/>
        <path d="M651.074 128.482h-33.04c-.877 0-1.587.71-1.587 1.588v4.493h29.044l5.583-6.081z" fill="#9E9E9E"/>
        <path fill="#0072C5" d="M635.588 137.365h-16.202v10.402h13.986l2.216-2.413z"/>
        <path fill="#479AD1" d="M635.588 137.365h-16.202v10.402h13.986l2.216-2.413z"/>
        <path fill="#0072C5" d="M619.386 149.208v10.402h3.115l9.55-10.402z"/>
        <path fill="#479AD1" d="M619.386 149.208v10.402h3.115l9.55-10.402z"/>
        <path fill="#FFF" d="M637.017 147.767h16.122v-10.403h-16.122z"/>
        <path fill="#0072C5" d="M637.017 159.61h16.122v-10.402h-16.122z"/>
        <path d="M545.586 393.904h-2.216l-1.32 1.44h3.536v10.403H532.5l-2.719 2.96h-1.747c-.874 0-1.588-.72-1.588-1.6v.16c0 .836.684 1.521 1.521 1.521h36.681c.793 0 1.508-.64 1.508-1.52v-27.41l-9.907.034-10.663 11.598v2.414z" fill="#9FA0A1"/>
        <path d="M566.156 380.7v-4.563c0-.799-.635-1.519-1.51-1.519h-3.573l-5.582 6.081h10.665zM528.035 374.618h-.158c-.79 0-1.43.641-1.43 1.43v.171a1.6 1.6 0 011.588-1.6" fill="#7A7A7A"/>
        <path fill="#0072C5" d="M545.588 391.49l-2.216 2.413h2.216zM545.588 395.345h-3.537l-9.549 10.402h13.086z"/>
        <path fill="#FFF" d="M526.447 380.701v.08h28.972l.072-.08z"/>
        <path d="M526.447 407.108c0 .88.72 1.6 1.6 1.6h1.735l2.718-2.96h-3.115v-10.404h12.665l1.32-1.44h-13.985v-10.401h16.202v7.988l9.832-10.71h-28.972v26.327z" fill="#9FA0A1"/>
        <path d="M526.447 407.106c0 .882.72 1.601 1.6 1.601h1.735l2.718-2.96h-3.115v-10.404h12.665l1.32-1.44h-13.985v-10.401h16.202v7.988l10.86-11.832-30-.134v27.582z" fill="#BABBBC"/>
        <path d="M561.074 374.618h-33.04c-.877 0-1.587.711-1.587 1.588v4.493h29.044l5.583-6.08z" fill="#7A7A7A"/>
        <path d="M561.074 374.618h-33.04c-.877 0-1.587.711-1.587 1.588v4.493h29.044l5.583-6.08z" fill="#9E9E9E"/>
        <path fill="#0072C5" d="M545.588 383.502h-16.202v10.402h13.986l2.216-2.413z"/>
        <path fill="#479AD1" d="M545.588 383.502h-16.202v10.402h13.986l2.216-2.413z"/>
        <path fill="#0072C5" d="M529.386 395.345v10.402h3.115l9.55-10.402z"/>
        <path fill="#479AD1" d="M529.386 395.345v10.402h3.115l9.55-10.402z"/>
        <path fill="#FFF" d="M547.017 393.903h16.122V383.5h-16.122z"/>
        <path fill="#0072C5" d="M547.017 405.747h16.122v-10.402h-16.122z"/>
        <path d="M590.586 393.904h-2.216l-1.32 1.44h3.536v10.403H577.5l-2.719 2.96h-1.747c-.874 0-1.588-.72-1.588-1.6v.16c0 .836.684 1.521 1.521 1.521h36.681c.793 0 1.508-.64 1.508-1.52v-27.41l-9.907.034-10.663 11.598v2.414z" fill="#9FA0A1"/>
        <path d="M611.156 380.7v-4.563c0-.799-.635-1.519-1.51-1.519h-3.573l-5.582 6.081h10.665zM573.035 374.618h-.158c-.79 0-1.43.641-1.43 1.43v.171a1.6 1.6 0 011.588-1.6" fill="#7A7A7A"/>
        <path fill="#0072C5" d="M590.588 391.49l-2.216 2.413h2.216zM590.588 395.345h-3.537l-9.549 10.402h13.086z"/>
        <path fill="#FFF" d="M571.447 380.701v.08h28.972l.072-.08z"/>
        <path d="M571.447 407.108c0 .88.72 1.6 1.6 1.6h1.735l2.718-2.96h-3.115v-10.404h12.665l1.32-1.44h-13.985v-10.401h16.202v7.988l9.832-10.71h-28.972v26.327z" fill="#9FA0A1"/>
        <path d="M571.447 407.106c0 .882.72 1.601 1.6 1.601h1.735l2.718-2.96h-3.115v-10.404h12.665l1.32-1.44h-13.985v-10.401h16.202v7.988l10.86-11.832-30-.134v27.582z" fill="#BABBBC"/>
        <path d="M606.074 374.618h-33.04c-.877 0-1.587.711-1.587 1.588v4.493h29.044l5.583-6.08z" fill="#7A7A7A"/>
        <path d="M606.074 374.618h-33.04c-.877 0-1.587.711-1.587 1.588v4.493h29.044l5.583-6.08z" fill="#9E9E9E"/>
        <path fill="#0072C5" d="M590.588 383.502h-16.202v10.402h13.986l2.216-2.413z"/>
        <path fill="#479AD1" d="M590.588 383.502h-16.202v10.402h13.986l2.216-2.413z"/>
        <path fill="#0072C5" d="M574.386 395.345v10.402h3.115l9.55-10.402z"/>
        <path fill="#479AD1" d="M574.386 395.345v10.402h3.115l9.55-10.402z"/>
        <path fill="#FFF" d="M592.017 393.903h16.122V383.5h-16.122z"/>
        <path fill="#0072C5" d="M592.017 405.747h16.122v-10.402h-16.122z"/>
        <path d="M635.586 393.904h-2.216l-1.32 1.44h3.536v10.403H622.5l-2.719 2.96h-1.747c-.874 0-1.588-.72-1.588-1.6v.16c0 .836.684 1.521 1.521 1.521h36.681c.793 0 1.508-.64 1.508-1.52v-27.41l-9.907.034-10.663 11.598v2.414z" fill="#9FA0A1"/>
        <path d="M656.156 380.7v-4.563c0-.799-.635-1.519-1.51-1.519h-3.573l-5.582 6.081h10.665zM618.035 374.618h-.158c-.79 0-1.43.641-1.43 1.43v.171a1.6 1.6 0 011.588-1.6" fill="#7A7A7A"/>
        <path fill="#0072C5" d="M635.588 391.49l-2.216 2.413h2.216zM635.588 395.345h-3.537l-9.549 10.402h13.086z"/>
        <path fill="#FFF" d="M616.447 380.701v.08h28.972l.072-.08z"/>
        <path d="M616.447 407.108c0 .88.72 1.6 1.6 1.6h1.735l2.718-2.96h-3.115v-10.404h12.665l1.32-1.44h-13.985v-10.401h16.202v7.988l9.832-10.71h-28.972v26.327z" fill="#9FA0A1"/>
        <path d="M616.447 407.106c0 .882.72 1.601 1.6 1.601h1.735l2.718-2.96h-3.115v-10.404h12.665l1.32-1.44h-13.985v-10.401h16.202v7.988l10.86-11.832-30-.134v27.582z" fill="#BABBBC"/>
        <path d="M651.074 374.618h-33.04c-.877 0-1.587.711-1.587 1.588v4.493h29.044l5.583-6.08z" fill="#7A7A7A"/>
        <path d="M651.074 374.618h-33.04c-.877 0-1.587.711-1.587 1.588v4.493h29.044l5.583-6.08z" fill="#9E9E9E"/>
        <path fill="#0072C5" d="M635.588 383.502h-16.202v10.402h13.986l2.216-2.413z"/>
        <path fill="#479AD1" d="M635.588 383.502h-16.202v10.402h13.986l2.216-2.413z"/>
        <path fill="#0072C5" d="M619.386 395.345v10.402h3.115l9.55-10.402z"/>
        <path fill="#479AD1" d="M619.386 395.345v10.402h3.115l9.55-10.402z"/>
        <path fill="#FFF" d="M637.017 393.903h16.122V383.5h-16.122z"/>
        <path fill="#0072C5" d="M637.017 405.747h16.122v-10.402h-16.122z"/>
        <path d="M190.25 323.25v-4.726h1.888v1.692a8.842 8.842 0 017.016-3.45c4.903 0 8.879 3.986 8.879 8.902 0 4.916-3.976 8.9-8.879 8.9s-8.879-3.984-8.879-8.9c0-.177.006-.35.016-.523h1.737a6.952 6.952 0 00-.019.523c0 3.956 3.197 7.165 7.145 7.165 3.948 0 7.145-3.206 7.145-7.165s-3.2-7.165-7.145-7.165a7.114 7.114 0 00-5.685 2.828h1.495v1.893h-2.826v.025h-1.888z" fill="#0078D4"/>
        <path d="M189.923 86.27h10.393v-2.311h-10.393v2.311zm0 4.763h10.393v-2.311h-10.393v2.311zm26.329-5.774h-.693c.277-1.299.554-2.599.554-3.897 0-8.084-5.543-14.58-13.302-14.58-6.098 0-11.363 4.187-13.165 9.961-.97-.289-2.078-.578-3.186-.578-5.128 0-9.424 4.619-9.424 10.105 0 5.773 3.88 9.67 9.145 9.67h3.741v-2.454h10.532v4.909h10.394V95.94h5.404c2.91 0 4.989-2.165 4.989-5.196.138-3.031-2.218-5.485-4.989-5.485zM200.454 103.16h10.393v-2.311h-10.393zM200.454 108.068h10.393v-2.311h-10.393z" fill="#59B4D9"/>
        <path d="M194.36 79.496c1.063-.276 2.124-.276 3.096-.185.44-4.966 4.202-9.939 8.44-12.154a13.156 13.156 0 00-3.085-.373c-6.098 0-11.363 4.187-13.164 9.961-.971-.289-2.08-.578-3.187-.578-5.128 0-9.424 4.618-9.424 10.103 0 5.774 3.88 9.671 9.145 9.671h3.725c-1.22-1.282-2.092-2.834-2.53-4.749-1.15-5.249 1.945-10.499 6.985-11.696" fill="#8BCAE1"/>
        <path d="M205.91 67.147l-.015.008.01.004.005-.012z" fill="#FFF"/>
        <path d="M597.84 311.622H586.81c1.406 4.795-.407 5.607-8.03 5.607v2.503h26.088v-2.495c-7.623 0-8.427-.812-7.022-5.607" fill="#7A7A7A"/>
        <path d="M609.624 282.349h-35.808a2.234 2.234 0 00-2.226 2.21v24.869a2.235 2.235 0 002.226 2.194h35.824a2.422 2.422 0 002.422-2.194v-24.87a2.422 2.422 0 00-2.422-2.193" fill="#A0A1A2"/>
        <path d="M572.646 282.796a2.357 2.357 0 00-1.057 1.804v24.828V284.6a2.357 2.357 0 011.057-1.804" fill="#FFF"/>
        <path d="M609.364 282.349H573.8a2.162 2.162 0 00-1.204.406 2.39 2.39 0 00-1.007 1.804v24.869a2.226 2.226 0 002.21 2.194h.813l3.608-3.006h-3.616v-23.244h31.15l3.617-3.007" fill="#B3B4B5"/>
        <path fill="#FFF" d="M574.735 308.924h34.182v-23.877h-34.182z"/>
        <path fill="#59B4D9" d="M574.735 308.924v-23.877h31.045-31.045z"/>
        <path fill="#A0A1A2" d="M578.782 317.474h26.088v2.259h-26.088v-2.251z"/>
        <path d="M582.863 295.081v-4.725h1.888v1.692a8.845 8.845 0 017.016-3.452c4.903 0 8.879 3.987 8.879 8.904 0 4.916-3.976 8.9-8.88 8.9-4.901 0-8.878-3.984-8.878-8.9 0-.177.006-.35.016-.523h1.737a7.524 7.524 0 00-.02.523c0 3.956 3.198 7.165 7.146 7.165s7.145-3.206 7.145-7.165-3.2-7.165-7.145-7.165a7.11 7.11 0 00-5.684 2.828h1.495v1.893h-2.827v.025h-1.888z" fill="#0078D4"/>
        <path fill="#EDEDEE" d="M7.11 183.382h142.802V12.571H7.11z"/>
        <path fill="#525252" d="M34.389 80.135H30.56v3.39h3.54v1.033h-3.54v4.34h-1.15v-9.802h4.978zM36.098 88.898h1.121v-7h-1.121v7zm.574-8.777a.709.709 0 01-.513-.205.693.693 0 01-.212-.519c0-.21.071-.384.212-.524a.703.703 0 01.513-.208.724.724 0 01.738.732c0 .2-.072.371-.215.512a.716.716 0 01-.523.212zM39.488 88.898h1.121V78.535h-1.121zM47.356 84.729c-.004-.647-.16-1.15-.468-1.511-.308-.36-.735-.54-1.282-.54-.529 0-.978.19-1.347.568-.369.378-.597.873-.683 1.483h3.78zm1.148.95h-4.942c.018.779.228 1.38.63 1.805.4.424.952.636 1.653.636.79 0 1.513-.26 2.174-.78v1.053c-.615.446-1.429.67-2.44.67-.989 0-1.766-.318-2.33-.953-.566-.637-.849-1.53-.849-2.684 0-1.09.31-1.976.926-2.662.618-.686 1.384-1.03 2.301-1.03.916 0 1.624.297 2.125.89.502.592.752 1.415.752 2.467v.588zM49.776 88.646v-1.203a3.32 3.32 0 002.017.677c.984 0 1.476-.328 1.476-.985a.853.853 0 00-.126-.474 1.276 1.276 0 00-.342-.346 2.61 2.61 0 00-.506-.27c-.194-.08-.402-.163-.625-.25a7.822 7.822 0 01-.817-.373 2.426 2.426 0 01-.588-.423 1.58 1.58 0 01-.356-.537 1.911 1.911 0 01-.119-.704c0-.328.075-.62.225-.871.151-.254.351-.465.602-.637.25-.17.536-.298.858-.385.321-.087.653-.13.994-.13.606 0 1.15.104 1.627.314v1.135c-.515-.337-1.107-.506-1.777-.506-.21 0-.399.024-.567.072a1.35 1.35 0 00-.434.202.939.939 0 00-.28.31.825.825 0 00-.1.4.96.96 0 00.1.459c.065.123.162.232.29.328.127.095.282.182.465.259.182.078.39.163.622.253.31.119.588.24.834.366s.455.267.63.423c.172.159.305.339.398.544.094.206.141.45.141.732 0 .347-.077.647-.229.902a1.975 1.975 0 01-.612.636c-.256.169-.55.294-.882.376a4.356 4.356 0 01-1.046.123c-.72 0-1.344-.14-1.873-.417M61.014 164.135h-3.828v3.39h3.54v1.033h-3.54v4.34h-1.15v-9.802h4.978zM65.73 166.678c-.72 0-1.29.245-1.709.734-.419.49-.629 1.166-.629 2.028 0 .829.212 1.483.636 1.962.424.478.991.717 1.703.717.725 0 1.282-.234 1.67-.704.39-.47.586-1.136.586-2.003 0-.875-.195-1.55-.585-2.023-.39-.474-.947-.711-1.671-.711m-.082 6.385c-1.035 0-1.86-.327-2.479-.981-.617-.654-.925-1.521-.925-2.601 0-1.176.32-2.094.964-2.755.641-.661 1.51-.991 2.603-.991 1.044 0 1.859.32 2.445.964.584.642.877 1.533.877 2.672 0 1.117-.314 2.01-.945 2.684-.632.672-1.478 1.008-2.54 1.008M70.926 172.898h1.121v-10.363h-1.121zM79.17 169.733v-1.032c0-.566-.187-1.044-.561-1.436-.373-.39-.847-.588-1.421-.588-.684 0-1.222.251-1.614.752-.392.501-.588 1.195-.588 2.078 0 .807.188 1.444.564 1.911.376.467.88.701 1.515.701.624 0 1.13-.226 1.52-.677.39-.45.585-1.02.585-1.709zm1.12 3.165h-1.12v-1.189h-.027c-.52.902-1.322 1.353-2.407 1.353-.88 0-1.582-.313-2.108-.939-.527-.627-.79-1.48-.79-2.56 0-1.158.29-2.086.875-2.783.583-.697 1.36-1.046 2.33-1.046.962 0 1.662.378 2.1 1.135h.027v-4.334h1.12v10.363zM87.038 168.729c-.004-.647-.16-1.15-.468-1.511-.308-.36-.735-.54-1.282-.54-.529 0-.978.19-1.347.568-.369.378-.597.873-.683 1.483h3.78zm1.148.95h-4.942c.018.779.228 1.38.63 1.805.4.424.952.636 1.653.636.79 0 1.513-.26 2.174-.78v1.053c-.615.446-1.429.67-2.44.67-.989 0-1.766-.318-2.33-.953-.566-.637-.849-1.53-.849-2.684 0-1.09.31-1.976.926-2.662.618-.686 1.384-1.03 2.301-1.03.916 0 1.624.297 2.125.89.502.592.752 1.415.752 2.467v.588zM93.532 167.033c-.196-.15-.479-.226-.848-.226-.478 0-.878.226-1.199.677-.322.451-.482 1.067-.482 1.846v3.568h-1.12v-7h1.12v1.443h.027c.16-.493.403-.876.731-1.152a1.669 1.669 0 011.101-.414c.292 0 .515.032.67.096v1.162zM94.42 172.646v-1.203a3.32 3.32 0 002.018.677c.984 0 1.476-.328 1.476-.985a.853.853 0 00-.126-.474 1.276 1.276 0 00-.342-.346 2.61 2.61 0 00-.506-.27c-.194-.08-.402-.163-.625-.25a7.822 7.822 0 01-.817-.373 2.426 2.426 0 01-.588-.423 1.58 1.58 0 01-.356-.537 1.911 1.911 0 01-.12-.704c0-.328.076-.62.226-.871.15-.254.35-.465.602-.637.25-.17.536-.298.858-.385.32-.087.653-.13.994-.13.606 0 1.149.104 1.627.314v1.135c-.515-.337-1.107-.506-1.777-.506-.21 0-.4.024-.567.072a1.35 1.35 0 00-.434.202.939.939 0 00-.281.31.825.825 0 00-.1.4.96.96 0 00.1.459c.066.123.163.232.29.328.128.095.283.182.466.259.182.078.389.163.622.253.31.119.588.24.834.366s.455.267.629.423c.173.159.306.339.399.544.094.206.14.45.14.732 0 .347-.076.647-.228.902a1.975 1.975 0 01-.612.636c-.256.169-.55.294-.882.376a4.356 4.356 0 01-1.046.123c-.72 0-1.344-.14-1.873-.417M99.04 80.135v7.725h1.463c1.285 0 2.287-.344 3.001-1.033.716-.688 1.073-1.663 1.073-2.925 0-2.511-1.334-3.767-4.005-3.767H99.04zm-1.148 8.764v-9.803h2.708c3.455 0 5.18 1.593 5.18 4.778 0 1.513-.478 2.729-1.438 3.648-.96.918-2.242 1.377-3.852 1.377h-2.597zM107.558 88.898h1.121v-7h-1.121v7zm.574-8.777a.708.708 0 01-.512-.205.693.693 0 01-.212-.519c0-.21.071-.384.212-.524a.703.703 0 01.512-.208c.205 0 .38.069.524.208.143.14.215.314.215.524 0 .2-.072.371-.215.512a.718.718 0 01-.524.212zM110.525 88.646v-1.203a3.32 3.32 0 002.017.677c.984 0 1.476-.328 1.476-.985a.853.853 0 00-.126-.474 1.262 1.262 0 00-.342-.346 2.6 2.6 0 00-.505-.27c-.195-.08-.403-.163-.626-.25a7.918 7.918 0 01-.817-.373 2.426 2.426 0 01-.588-.423 1.563 1.563 0 01-.355-.537 1.89 1.89 0 01-.12-.704c0-.328.075-.62.225-.871a2.02 2.02 0 01.602-.637c.25-.17.537-.298.858-.385.322-.087.653-.13.994-.13.607 0 1.149.104 1.627.314v1.135c-.514-.337-1.107-.506-1.777-.506-.21 0-.398.024-.567.072a1.36 1.36 0 00-.434.202.925.925 0 00-.28.31.814.814 0 00-.1.4c0 .183.033.336.1.459.065.123.163.232.29.328.128.095.283.182.465.259.182.078.389.163.622.253.31.119.588.24.834.366s.456.267.629.423c.173.159.306.339.4.544.093.206.14.45.14.732 0 .347-.077.647-.23.902a1.965 1.965 0 01-.611.636 2.789 2.789 0 01-.882.376 4.35 4.35 0 01-1.046.123c-.72 0-1.344-.14-1.873-.417M121.66 88.577c-.536.323-1.175.485-1.913.485-.998 0-1.804-.324-2.416-.974-.613-.649-.92-1.49-.92-2.526 0-1.153.33-2.079.99-2.779.662-.699 1.544-1.049 2.647-1.049.615 0 1.158.114 1.627.342v1.148c-.52-.364-1.076-.546-1.668-.546-.715 0-1.302.255-1.76.77-.458.511-.688 1.185-.688 2.02 0 .82.216 1.466.647 1.94.43.474 1.008.711 1.732.711.612 0 1.186-.203 1.723-.608v1.066zM122.932 88.646v-1.203a3.32 3.32 0 002.017.677c.984 0 1.476-.328 1.476-.985a.853.853 0 00-.126-.474 1.262 1.262 0 00-.342-.346 2.6 2.6 0 00-.505-.27c-.195-.08-.403-.163-.626-.25a7.918 7.918 0 01-.817-.373 2.426 2.426 0 01-.588-.423 1.563 1.563 0 01-.355-.537 1.89 1.89 0 01-.12-.704c0-.328.075-.62.225-.871a2.02 2.02 0 01.602-.637c.251-.17.537-.298.858-.385.322-.087.653-.13.994-.13.607 0 1.15.104 1.627.314v1.135c-.514-.337-1.107-.506-1.777-.506-.209 0-.398.024-.567.072a1.36 1.36 0 00-.434.202.925.925 0 00-.28.31.814.814 0 00-.1.4c0 .183.033.336.1.459.065.123.163.232.29.328.128.095.283.182.465.259.182.078.39.163.622.253.31.119.588.24.834.366s.456.267.63.423c.172.159.305.339.4.544.092.206.14.45.14.732 0 .347-.078.647-.23.902a1.965 1.965 0 01-.612.636 2.789 2.789 0 01-.882.376 4.35 4.35 0 01-1.046.123c-.72 0-1.344-.14-1.873-.417"/>
        <path d="M133.885 61.089c0 4.236-9.627 7.669-21.5 7.669-11.874 0-21.5-3.433-21.5-7.67v-4.132h43v4.133z" fill="#7FBA00"/>
        <path d="M133.885 56.956c0 4.235-9.627 7.668-21.5 7.668-11.874 0-21.5-3.433-21.5-7.668s9.626-7.669 21.5-7.669c11.873 0 21.5 3.435 21.5 7.67" fill="#B8D432"/>
        <path d="M119.275 56.516c0 1.127-3.085 2.039-6.892 2.039-3.807 0-6.893-.912-6.893-2.04 0-1.126 3.087-2.038 6.893-2.038 3.806 0 6.892.913 6.892 2.039" fill="#7FBA00"/>
        <path d="M127.928 51.702c-3.012-1.125-6.97-1.922-11.42-2.23l-2.79 5.085c1.2.054 2.39.243 3.547.561l10.663-3.416zM95.96 61.945c3.097 1.307 7.394 2.238 12.287 2.577l3.261-5.944a17.832 17.832 0 01-3.584-.468l-11.965 3.835z" fill="#CADD6D"/>
        <path d="M133.885 44.56c0 4.235-9.627 7.668-21.5 7.668-11.874 0-21.5-3.433-21.5-7.668v-4.133h43v4.133z" fill="#0072C6"/>
        <path d="M133.885 40.427c0 4.235-9.627 7.668-21.5 7.668-11.874 0-21.5-3.434-21.5-7.668s9.626-7.67 21.5-7.67c11.873 0 21.5 3.435 21.5 7.67" fill="#59B4D9"/>
        <path d="M119.275 39.986c0 1.127-3.085 2.04-6.892 2.04-3.807 0-6.893-.913-6.893-2.04s3.087-2.039 6.893-2.039c3.806 0 6.892.912 6.892 2.04" fill="#0072C6"/>
        <path d="M127.928 35.13c-3.012-1.123-6.97-1.922-11.42-2.23l-2.79 5.085c1.2.055 2.39.244 3.547.562l10.663-3.416zM95.96 45.374c3.097 1.307 7.394 2.238 12.287 2.578l3.261-5.944a17.906 17.906 0 01-3.584-.469l-11.965 3.835z" fill="#83C7E1"/>
        <path fill="#E2F2F7" d="M54.571 40.083h-3.208v-4.75h-5.23v-5.229H23.134v30.812h4.937v2.75h4.354v5.042h27.606V45.375z"/>
        <path d="M48.207 60.058h-9.926a.717.717 0 00-.714.72v.007a.717.717 0 00.72.713h9.92a.72.72 0 000-1.44M54.687 55.098H38.281a.717.717 0 00-.714.72v.007a.717.717 0 00.72.713h16.4a.72.72 0 000-1.44M38.28 50.458a.718.718 0 00-.713.72v.006a.716.716 0 00.72.713h16.4a.72.72 0 100-1.439H38.28z" fill="#5BB4DA"/>
        <path d="M59.166 67.897h-25.6V40.698h20.8v4.8h4.8v22.4zm-27.2-4.8h-3.2v-27.2h21.6v3.2h-18.4v24zm-4.8-3.2h-3.2v-28.8h21.6v3.2h-18.4v25.6zm-4.8-30.398v32h4.8v3.2h4.8v4.8h28.8V44.858l-5.76-5.76h-3.04v-4.8h-4.8v-4.8h-24.8z" fill="#5BB4DA"/>
        <path d="M31.966 39.098h18.4-18.4z" fill="#FFF"/>
        <path d="M94.574 123.325H59.478v27.381a1.919 1.919 0 01-1.872 1.92H94.22a1.922 1.922 0 001.92-1.923v-27.38l-1.566.002z" fill="#FDDF87"/>
        <path fill="#1E1E1E" d="M68.568 115.296l4.807 4.808z"/>
        <path d="M59.478 150.706v-27.38h35.096v-3.223H73.375l-4.807-4.807H55.637v35.407a1.92 1.92 0 001.92 1.922h.048a1.919 1.919 0 001.873-1.919" fill="#D4BE85"/>
        <path fill="#EDEDEE" d="M7.11 428.716h142.802V257.904H7.11z"/>
        <path fill="#525252" d="M34.389 325.468H30.56v3.39h3.54v1.033h-3.54v4.34h-1.15v-9.802h4.978zM36.098 334.231h1.121v-7h-1.121v7zm.574-8.777a.709.709 0 01-.513-.205.692.692 0 01-.212-.519c0-.21.071-.384.212-.524a.703.703 0 01.513-.208.724.724 0 01.738.732c0 .2-.072.371-.215.512a.716.716 0 01-.523.212zM39.488 334.231h1.121v-10.363h-1.121zM47.356 330.062c-.004-.647-.16-1.15-.468-1.511-.308-.36-.735-.54-1.282-.54-.529 0-.978.19-1.347.568-.369.378-.597.873-.683 1.483h3.78zm1.148.95h-4.942c.018.779.228 1.38.63 1.805.4.424.952.636 1.653.636.79 0 1.513-.26 2.174-.78v1.053c-.615.446-1.429.67-2.44.67-.989 0-1.766-.318-2.33-.953-.566-.637-.849-1.53-.849-2.684 0-1.09.31-1.976.926-2.662.618-.686 1.384-1.03 2.301-1.03.916 0 1.624.297 2.125.89.502.592.752 1.415.752 2.467v.588zM49.776 333.979v-1.203a3.32 3.32 0 002.017.677c.984 0 1.476-.328 1.476-.985a.853.853 0 00-.126-.474 1.276 1.276 0 00-.342-.346 2.61 2.61 0 00-.506-.27c-.194-.08-.402-.163-.625-.25a7.822 7.822 0 01-.817-.373 2.426 2.426 0 01-.588-.423 1.58 1.58 0 01-.356-.537 1.911 1.911 0 01-.119-.704c0-.328.075-.62.225-.871.151-.254.351-.465.602-.637.25-.17.536-.298.858-.385.321-.087.653-.13.994-.13.606 0 1.15.104 1.627.314v1.135c-.515-.337-1.107-.506-1.777-.506-.21 0-.399.024-.567.072a1.35 1.35 0 00-.434.202.939.939 0 00-.28.31.825.825 0 00-.1.4.96.96 0 00.1.459c.065.123.162.232.29.328.127.095.282.182.465.259.182.078.39.163.622.253.31.119.588.24.834.366s.455.267.63.423c.172.159.305.339.398.544.094.206.141.45.141.732 0 .347-.077.647-.229.902a1.975 1.975 0 01-.612.636c-.256.169-.55.294-.882.376a4.356 4.356 0 01-1.046.123c-.72 0-1.344-.14-1.873-.417M61.014 409.468h-3.828v3.39h3.54v1.033h-3.54v4.34h-1.15v-9.802h4.978zM65.73 412.01c-.72 0-1.29.246-1.709.735-.419.49-.629 1.166-.629 2.028 0 .829.212 1.483.636 1.962.424.478.991.717 1.703.717.725 0 1.282-.234 1.67-.704.39-.47.586-1.136.586-2.003 0-.875-.195-1.55-.585-2.023-.39-.474-.947-.711-1.671-.711m-.082 6.385c-1.035 0-1.86-.327-2.479-.981-.617-.654-.925-1.521-.925-2.601 0-1.176.32-2.094.964-2.755.641-.661 1.51-.991 2.603-.991 1.044 0 1.859.32 2.445.964.584.642.877 1.533.877 2.672 0 1.117-.314 2.01-.945 2.684-.632.672-1.478 1.008-2.54 1.008M70.926 418.231h1.121v-10.363h-1.121zM79.17 415.067v-1.033c0-.565-.187-1.043-.561-1.435-.373-.392-.847-.589-1.421-.589-.684 0-1.222.252-1.614.752-.392.502-.588 1.195-.588 2.079 0 .806.188 1.443.564 1.91.376.468.88.702 1.515.702.624 0 1.13-.226 1.52-.677.39-.452.585-1.022.585-1.71zm1.12 3.164h-1.12v-1.188h-.027c-.52.901-1.322 1.353-2.407 1.353-.88 0-1.582-.314-2.108-.94-.527-.627-.79-1.48-.79-2.56 0-1.158.29-2.086.875-2.783.583-.697 1.36-1.046 2.33-1.046.962 0 1.662.378 2.1 1.135h.027v-4.334h1.12v10.363zM87.038 414.062c-.004-.647-.16-1.15-.468-1.511-.308-.36-.735-.54-1.282-.54-.529 0-.978.19-1.347.568-.369.378-.597.873-.683 1.483h3.78zm1.148.95h-4.942c.018.779.228 1.38.63 1.805.4.424.952.636 1.653.636.79 0 1.513-.26 2.174-.78v1.053c-.615.446-1.429.67-2.44.67-.989 0-1.766-.318-2.33-.953-.566-.637-.849-1.53-.849-2.684 0-1.09.31-1.976.926-2.662.618-.686 1.384-1.03 2.301-1.03.916 0 1.624.297 2.125.89.502.592.752 1.415.752 2.467v.588zM93.532 412.366c-.196-.15-.479-.226-.848-.226-.478 0-.878.226-1.199.677-.322.451-.482 1.067-.482 1.846v3.568h-1.12v-7h1.12v1.443h.027c.16-.493.403-.876.731-1.152a1.669 1.669 0 011.101-.414c.292 0 .515.032.67.096v1.162zM94.42 417.979v-1.203a3.32 3.32 0 002.018.677c.984 0 1.476-.328 1.476-.985a.853.853 0 00-.126-.474 1.276 1.276 0 00-.342-.346 2.61 2.61 0 00-.506-.27c-.194-.08-.402-.163-.625-.25a7.822 7.822 0 01-.817-.373 2.426 2.426 0 01-.588-.423 1.58 1.58 0 01-.356-.537 1.911 1.911 0 01-.12-.704c0-.328.076-.62.226-.871.15-.254.35-.465.602-.637.25-.17.536-.298.858-.385.32-.087.653-.13.994-.13.606 0 1.149.104 1.627.314v1.135c-.515-.337-1.107-.506-1.777-.506-.21 0-.4.024-.567.072a1.35 1.35 0 00-.434.202.939.939 0 00-.281.31.825.825 0 00-.1.4.96.96 0 00.1.459c.066.123.163.232.29.328.128.095.283.182.466.259.182.078.389.163.622.253.31.119.588.24.834.366s.455.267.629.423c.173.159.306.339.399.544.094.206.14.45.14.732 0 .347-.076.647-.228.902a1.975 1.975 0 01-.612.636c-.256.169-.55.294-.882.376a4.356 4.356 0 01-1.046.123c-.72 0-1.344-.14-1.873-.417M99.04 325.468v7.725h1.463c1.285 0 2.287-.344 3.001-1.033.716-.688 1.073-1.663 1.073-2.925 0-2.511-1.334-3.767-4.005-3.767H99.04zm-1.148 8.764v-9.803h2.708c3.455 0 5.18 1.593 5.18 4.778 0 1.513-.478 2.729-1.438 3.648-.96.918-2.242 1.377-3.852 1.377h-2.597zM107.558 334.231h1.121v-7h-1.121v7zm.574-8.777a.708.708 0 01-.512-.205.692.692 0 01-.212-.519c0-.21.071-.384.212-.524a.703.703 0 01.512-.208c.205 0 .38.069.524.208.143.14.215.314.215.524 0 .2-.072.371-.215.512a.718.718 0 01-.524.212zM110.525 333.979v-1.203a3.32 3.32 0 002.017.677c.984 0 1.476-.328 1.476-.985a.853.853 0 00-.126-.474 1.262 1.262 0 00-.342-.346 2.6 2.6 0 00-.505-.27c-.195-.08-.403-.163-.626-.25a7.918 7.918 0 01-.817-.373 2.426 2.426 0 01-.588-.423 1.563 1.563 0 01-.355-.537 1.89 1.89 0 01-.12-.704c0-.328.075-.62.225-.871a2.02 2.02 0 01.602-.637c.25-.17.537-.298.858-.385.322-.087.653-.13.994-.13.607 0 1.149.104 1.627.314v1.135c-.514-.337-1.107-.506-1.777-.506-.21 0-.398.024-.567.072a1.36 1.36 0 00-.434.202.925.925 0 00-.28.31.814.814 0 00-.1.4c0 .183.033.336.1.459.065.123.163.232.29.328.128.095.283.182.465.259.182.078.389.163.622.253.31.119.588.24.834.366s.456.267.629.423c.173.159.306.339.4.544.093.206.14.45.14.732 0 .347-.077.647-.23.902a1.965 1.965 0 01-.611.636 2.789 2.789 0 01-.882.376 4.35 4.35 0 01-1.046.123c-.72 0-1.344-.14-1.873-.417M121.66 333.91c-.536.323-1.175.485-1.913.485-.998 0-1.804-.324-2.416-.974-.613-.649-.92-1.49-.92-2.526 0-1.153.33-2.079.99-2.779.662-.699 1.544-1.049 2.647-1.049.615 0 1.158.114 1.627.342v1.148c-.52-.364-1.076-.546-1.668-.546-.715 0-1.302.255-1.76.77-.458.511-.688 1.185-.688 2.02 0 .82.216 1.466.647 1.94.43.474 1.008.711 1.732.711.612 0 1.186-.203 1.723-.608v1.066zM122.932 333.979v-1.203a3.32 3.32 0 002.017.677c.984 0 1.476-.328 1.476-.985a.853.853 0 00-.126-.474 1.262 1.262 0 00-.342-.346 2.6 2.6 0 00-.505-.27c-.195-.08-.403-.163-.626-.25a7.918 7.918 0 01-.817-.373 2.426 2.426 0 01-.588-.423 1.563 1.563 0 01-.355-.537 1.89 1.89 0 01-.12-.704c0-.328.075-.62.225-.871a2.02 2.02 0 01.602-.637c.251-.17.537-.298.858-.385.322-.087.653-.13.994-.13.607 0 1.15.104 1.627.314v1.135c-.514-.337-1.107-.506-1.777-.506-.209 0-.398.024-.567.072a1.36 1.36 0 00-.434.202.925.925 0 00-.28.31.814.814 0 00-.1.4c0 .183.033.336.1.459.065.123.163.232.29.328.128.095.283.182.465.259.182.078.39.163.622.253.31.119.588.24.834.366s.456.267.63.423c.172.159.305.339.4.544.092.206.14.45.14.732 0 .347-.078.647-.23.902a1.965 1.965 0 01-.612.636 2.789 2.789 0 01-.882.376 4.35 4.35 0 01-1.046.123c-.72 0-1.344-.14-1.873-.417"/>
        <path d="M133.885 305.423c0 4.235-9.627 7.668-21.5 7.668-11.874 0-21.5-3.433-21.5-7.668v-4.134h43v4.134z" fill="#7FBA00"/>
        <path d="M133.885 301.29c0 4.234-9.627 7.668-21.5 7.668-11.874 0-21.5-3.434-21.5-7.669 0-4.235 9.626-7.668 21.5-7.668 11.873 0 21.5 3.435 21.5 7.668" fill="#B8D432"/>
        <path d="M119.275 300.849c0 1.127-3.085 2.039-6.892 2.039-3.807 0-6.893-.912-6.893-2.04 0-1.125 3.087-2.037 6.893-2.037 3.806 0 6.892.913 6.892 2.038" fill="#7FBA00"/>
        <path d="M127.928 296.035c-3.012-1.124-6.97-1.922-11.42-2.23l-2.79 5.085c1.2.054 2.39.243 3.547.561l10.663-3.416zM95.96 306.278c3.097 1.307 7.394 2.24 12.287 2.578l3.261-5.945a17.832 17.832 0 01-3.584-.468l-11.965 3.835z" fill="#CADD6D"/>
        <path d="M133.885 288.893c0 4.235-9.627 7.668-21.5 7.668-11.874 0-21.5-3.433-21.5-7.668v-4.133h43v4.133z" fill="#0072C6"/>
        <path d="M133.885 284.76c0 4.235-9.627 7.669-21.5 7.669-11.874 0-21.5-3.434-21.5-7.67 0-4.233 9.626-7.667 21.5-7.667 11.873 0 21.5 3.433 21.5 7.668" fill="#59B4D9"/>
        <path d="M119.275 284.32c0 1.126-3.085 2.038-6.892 2.038-3.807 0-6.893-.912-6.893-2.039 0-1.126 3.087-2.038 6.893-2.038 3.806 0 6.892.912 6.892 2.038" fill="#0072C6"/>
        <path d="M127.928 279.464c-3.012-1.124-6.97-1.923-11.42-2.23l-2.79 5.084c1.2.055 2.39.244 3.547.562l10.663-3.416zM95.96 289.707c3.097 1.307 7.394 2.24 12.287 2.578l3.261-5.944a17.904 17.904 0 01-3.584-.468l-11.965 3.834z" fill="#83C7E1"/>
        <path fill="#E2F2F7" d="M54.571 283.417h-3.208v-4.751h-5.23v-5.228H23.134v30.812h4.937V307h4.354v5.041h27.606v-23.333z"/>
        <path d="M48.207 303.392h-9.926a.716.716 0 00-.714.72v.006a.716.716 0 00.72.713h9.92a.72.72 0 100-1.44M54.687 298.43H38.281a.717.717 0 00-.714.722v.006a.716.716 0 00.72.713h16.4a.72.72 0 100-1.44M38.28 293.791a.718.718 0 00-.713.72v.007a.717.717 0 00.72.713h16.4a.72.72 0 100-1.44H38.28z" fill="#5BB4DA"/>
        <path d="M59.166 311.231h-25.6v-27.2h20.8v4.8h4.8v22.4zm-27.2-4.8h-3.2v-27.2h21.6v3.2h-18.4v24zm-4.8-3.2h-3.2v-28.8h21.6v3.2h-18.4v25.6zm-4.8-30.4v32h4.8v3.2h4.8v4.8h28.8v-24.64l-5.76-5.76h-3.04v-4.8h-4.8v-4.8h-24.8z" fill="#5BB4DA"/>
        <path fill="#FFF" d="M31.966 282.432h18.4v-.001h-18.4z"/>
        <path d="M94.574 368.658H59.478v27.382a1.918 1.918 0 01-1.872 1.918H94.22a1.922 1.922 0 001.92-1.922v-27.38l-1.566.002z" fill="#FDDF87"/>
        <path fill="#1E1E1E" d="M68.568 360.629l4.807 4.808z"/>
        <path d="M59.478 396.04v-27.382h35.096v-3.222H73.375l-4.807-4.807H55.637v35.407a1.92 1.92 0 001.92 1.922h.048a1.918 1.918 0 001.873-1.918" fill="#D4BE85"/>
        <path fill="#959595" d="M447.622 331.041l-9.066-5.235v4.485H270.119v-4.485l-9.067 5.235 9.067 5.235v-4.485h168.437v4.485zM447.622 91.129l-9.066-5.235v4.485H270.119v-4.485l-9.067 5.235 9.067 5.235v-4.485h168.437v4.485zM590.75 362.879h1.5v-14.904h-1.5z"/>
        <path fill="#959595" d="M596.736 361.348l-5.235 9.066-5.236-9.066zM594.75 116.379h1.5v-14.904h-1.5z"/>
        <path fill="#959595" d="M600.736 114.848l-5.235 9.066-5.236-9.066zM583.75 123.914h1.5V109.01h-1.5z"/>
        <path fill="#959595" d="M579.265 110.541l5.235-9.066 5.236 9.066z"/>
    </g>
</svg>
