<?xml version="1.0" encoding="utf-8"?>
<!-- Generator: Adobe Illustrator 20.1.0, SVG Export Plug-In . SVG Version: 6.00 Build 0)  -->
<svg version="1.1" id="Layer_1" xmlns="http://www.w3.org/2000/svg" xmlns:xlink="http://www.w3.org/1999/xlink" x="0px" y="0px" width="50px" height="50px" viewBox="0 0 50 50" enable-background="new 0 0 50 50" xml:space="preserve">
<path fill="#D7D7D7" d="M25.737,47.683L9.276,38.178L9.297,19.65l16.238-9.374l16.533,9.542l0,18.438L25.737,47.683z M10.369,37.548  l15.368,8.874l15.24-8.797l0-17.176l-15.441-8.911l-15.146,8.744L10.369,37.548z" />
<g>
	<polygon fill="#148FC0" points="25.641,16.094 18.66,12.064 18.66,3.976 25.641,8.006  " />
	<polygon fill="#2BA1DB" points="18.659,3.962 25.617,-0.055 32.623,3.988 25.662,8.006  " />
	<polygon fill="#44BAE9" points="32.623,12.064 25.641,16.094 25.641,8.059 32.623,4.028  " />
</g>
<g>
	<polygon fill="#D60C13" points="9.843,23.823 3.894,20.388 3.894,13.496 9.843,16.93  " />
	<polygon fill="#FB3900" points="3.894,13.484 9.823,10.061 15.793,13.506 9.861,16.93  " />
	<polygon fill="#FA5900" points="15.793,20.388 9.843,23.823 9.843,16.975 15.793,13.54  " />
</g>
<g>
	<polygon fill="#653675" points="41.522,23.823 35.573,20.388 35.573,13.496 41.522,16.93  " />
	<polygon fill="#7F498D" points="35.573,13.484 41.502,10.061 47.472,13.506 41.541,16.93  " />
	<polygon fill="#9863A9" points="47.472,20.388 41.522,23.823 41.522,16.975 47.472,13.54  " />
</g>
<g>
	<polygon fill="#653675" points="9.843,41.551 3.894,38.116 3.894,31.224 9.843,34.658  " />
	<polygon fill="#7F498D" points="3.894,31.212 9.823,27.789 15.793,31.235 9.861,34.659  " />
	<polygon fill="#9863A9" points="15.793,38.116 9.843,41.551 9.843,34.704 15.793,31.268  " />
</g>
<g>
	<polygon fill="#739A04" points="41.522,41.551 35.573,38.116 35.573,31.224 41.522,34.658  " />
	<polygon fill="#7FB900" points="35.573,31.212 41.502,27.789 47.472,31.235 41.541,34.659  " />
	<polygon fill="#9BCB17" points="47.472,38.116 41.522,41.551 41.522,34.704 47.472,31.268  " />
</g>
<g>
	<polygon fill="#148FC0" points="25.641,49.945 18.66,45.915 18.66,37.827 25.641,41.857  " />
	<polygon fill="#2BA1DB" points="18.659,37.813 25.617,33.796 32.623,37.839 25.662,41.857  " />
	<polygon fill="#44BAE9" points="32.623,45.915 25.641,49.945 25.641,41.91 32.623,37.879  " />
</g>
</svg>