<svg class="architecture-diagram" aria-labelledby="commerce-chatbot" height="457" viewbox="0 0 614 457" width="614" xmlns="http://www.w3.org/2000/svg">
    <g fill="none" fill-rule="evenodd" stroke="none" stroke-width="1">
        <path fill="#959595" d="M222.486 344.062h1.5V236.148h-1.5z"/>
        <path fill="#959595" d="M228.472 342.53l-5.236 9.066L218 342.53zM228.472 237.679l-5.236-9.066-5.235 9.066zM565.827 344.062h1.5V135.838h-1.5z"/>
        <path fill="#959595" d="M571.813 342.53l-5.236 9.066-5.235-9.066zM571.813 136.534l-5.236-9.066-5.235 9.066z"/>
        <path fill="#F2F2F2" d="M320.79 456.163h148.187V.143H320.79z"/>
        <path d="M373.13 265.86h-1.271l-1.04-2.748h-4.155l-.977 2.748h-1.28l3.76-9.803h1.19l3.774 9.803zm-2.685-3.78l-1.54-4.177c-.05-.137-.1-.356-.15-.656h-.027a3.698 3.698 0 01-.156.656l-1.525 4.176h3.398zM379.304 259.18l-4.143 5.724h4.102v.957h-5.75v-.35l4.143-5.693h-3.752v-.957h5.4zM386.414 265.86h-1.121v-1.107h-.027c-.465.847-1.186 1.271-2.161 1.271-1.668 0-2.502-.994-2.502-2.98v-4.184h1.114v4.006c0 1.475.565 2.215 1.695 2.215.547 0 .998-.202 1.35-.606.353-.403.53-.93.53-1.582v-4.033h1.122v7zM392.326 259.995c-.195-.15-.48-.228-.848-.228-.478 0-.878.228-1.2.68-.32.45-.481 1.066-.481 1.845v3.568h-1.121v-7h1.12v1.442h.028c.16-.494.404-.875.732-1.153a1.671 1.671 0 011.1-.412c.292 0 .516.03.67.096v1.162zM398.984 262.64h-4.941c.018.779.228 1.38.629 1.805.4.424.952.636 1.654.636.788 0 1.513-.26 2.174-.78v1.054c-.615.445-1.43.67-2.441.67-.99 0-1.766-.32-2.33-.954-.566-.636-.848-1.531-.848-2.684 0-1.09.309-1.976.926-2.662.617-.687 1.384-1.028 2.3-1.028.917 0 1.625.296 2.125.888.502.59.752 1.414.752 2.466v.589zm-1.148-.95c-.004-.647-.16-1.151-.468-1.512-.307-.358-.735-.538-1.282-.538a1.81 1.81 0 00-1.346.566c-.37.379-.597.873-.683 1.485h3.779zM404.666 265.86v-9.803h2.789c.847 0 1.519.207 2.015.621.497.415.746.955.746 1.621 0 .556-.15 1.04-.451 1.45-.301.41-.716.701-1.244.875v.026c.66.078 1.189.327 1.586.748.396.422.594.971.594 1.646 0 .837-.301 1.517-.903 2.037-.601.52-1.359.778-2.275.778h-2.857zm1.148-8.764v3.164h1.176c.629 0 1.123-.15 1.482-.454.361-.303.541-.73.541-1.283 0-.95-.627-1.427-1.881-1.427h-1.318zm0 4.198v3.526h1.559c.673 0 1.197-.159 1.568-.478.371-.32.557-.756.557-1.313 0-1.157-.788-1.735-2.366-1.735h-1.318zM415.466 266.024c-1.035 0-1.86-.328-2.479-.98-.617-.655-.925-1.522-.925-2.602 0-1.176.32-2.095.963-2.756.642-.66 1.511-.99 2.605-.99 1.043 0 1.857.32 2.443.963.586.642.88 1.534.88 2.673 0 1.117-.317 2.01-.948 2.683-.63.673-1.478 1.01-2.539 1.01m.082-6.386c-.72 0-1.29.244-1.709.734-.42.491-.629 1.166-.629 2.028 0 .83.211 1.482.635 1.961.424.478.992.718 1.703.718.725 0 1.281-.235 1.671-.705.39-.468.585-1.136.585-2.002 0-.875-.195-1.549-.585-2.023-.39-.475-.946-.71-1.67-.71M423.99 265.792c-.264.146-.612.219-1.045.219-1.226 0-1.84-.684-1.84-2.051v-4.144h-1.203v-.957h1.203v-1.709l1.12-.362v2.071h1.765v.957h-1.764v3.945c0 .469.08.803.24 1.006.16.2.424.299.794.299.282 0 .525-.077.73-.231v.957zM373.097 282.263v-1.354c.154.137.34.26.557.37.216.109.444.202.683.277.24.075.48.133.721.174.242.04.465.06.67.06.707 0 1.234-.13 1.583-.391.348-.263.522-.64.522-1.132 0-.264-.057-.494-.174-.691a1.98 1.98 0 00-.482-.537 4.91 4.91 0 00-.727-.464 62.735 62.735 0 00-.906-.468 14.492 14.492 0 01-.957-.527 4.07 4.07 0 01-.773-.588 2.437 2.437 0 01-.516-.727 2.263 2.263 0 01-.187-.953c0-.447.097-.836.293-1.166.196-.33.454-.603.773-.818a3.472 3.472 0 011.09-.477 4.897 4.897 0 011.248-.158c.966 0 1.67.117 2.111.348v1.29c-.578-.398-1.32-.6-2.228-.6-.25 0-.5.028-.752.08a2.11 2.11 0 00-.67.257c-.195.118-.356.27-.479.457a1.215 1.215 0 00-.183.682c0 .25.047.469.14.652.092.18.231.346.413.498.182.15.404.297.667.437.262.142.563.297.905.465.351.174.683.356.998.547.314.19.591.404.828.637.236.232.424.489.563.77.14.283.208.608.208.972 0 .483-.093.89-.283 1.226a2.337 2.337 0 01-.765.819 3.354 3.354 0 01-1.112.454c-.419.093-.86.14-1.326.14-.154 0-.346-.012-.574-.04a7.426 7.426 0 01-.697-.107 5.461 5.461 0 01-.673-.18 2.008 2.008 0 01-.509-.234M386.468 279.44h-4.943c.019.779.229 1.382.629 1.805.4.425.953.635 1.654.635.789 0 1.514-.26 2.174-.78v1.053c-.615.446-1.428.67-2.44.67-.99 0-1.766-.317-2.331-.952-.565-.636-.848-1.531-.848-2.684 0-1.09.309-1.976.927-2.663.618-.685 1.384-1.029 2.3-1.029.916 0 1.625.298 2.126.889.5.592.752 1.416.752 2.469v.587zm-1.148-.95c-.005-.648-.161-1.151-.47-1.51-.306-.36-.733-.542-1.28-.542a1.81 1.81 0 00-1.348.569c-.37.377-.596.871-.683 1.483h3.78zM391.814 276.794c-.196-.15-.479-.226-.848-.226-.478 0-.879.226-1.2.677-.321.45-.481 1.067-.481 1.846v3.568h-1.121v-7h1.121v1.444h.027c.159-.494.402-.877.731-1.153a1.672 1.672 0 011.101-.414c.291 0 .515.031.67.096v1.162zM399.093 275.66l-2.789 7h-1.1l-2.652-7h1.23l1.778 5.085c.132.374.214.7.246.977h.027c.045-.35.118-.667.22-.95l1.858-5.113h1.182zM400.87 273.882a.708.708 0 01-.51-.205.691.691 0 01-.213-.52c0-.21.07-.382.213-.522a.695.695 0 01.51-.208.723.723 0 01.74.73.696.696 0 01-.215.514.725.725 0 01-.524.21zm-.573 8.777h1.12v-7h-1.12v7zM408.459 282.339c-.538.323-1.176.483-1.914.483-.999 0-1.804-.323-2.417-.972-.613-.651-.92-1.491-.92-2.528 0-1.151.331-2.077.992-2.777.66-.7 1.543-1.05 2.646-1.05.615 0 1.157.115 1.627.342v1.148c-.52-.364-1.077-.546-1.668-.546-.716 0-1.303.255-1.76.769-.459.513-.689 1.186-.689 2.02 0 .82.216 1.466.647 1.94.432.476 1.009.712 1.733.712.612 0 1.185-.202 1.723-.607v1.066zM415.78 279.44h-4.943c.02.779.23 1.382.63 1.805.4.425.952.635 1.653.635.79 0 1.514-.26 2.174-.78v1.053c-.615.446-1.428.67-2.439.67-.99 0-1.767-.317-2.332-.952-.565-.636-.848-1.531-.848-2.684 0-1.09.31-1.976.927-2.663.618-.685 1.384-1.029 2.3-1.029.916 0 1.625.298 2.126.889.501.592.752 1.416.752 2.469v.587zm-1.148-.95c-.005-.648-.16-1.151-.469-1.51-.307-.36-.734-.542-1.28-.542a1.81 1.81 0 00-1.349.569c-.369.377-.596.871-.683 1.483h3.781zM371.205 105.86h-1.272l-1.039-2.748h-4.156l-.977 2.748h-1.279l3.76-9.803h1.19l3.773 9.803zm-2.686-3.78l-1.539-4.177c-.05-.137-.1-.356-.15-.656h-.028a3.698 3.698 0 01-.156.656l-1.525 4.176h3.398zM377.378 99.18l-4.143 5.724h4.102v.957h-5.75v-.35l4.143-5.693h-3.752v-.957h5.4zM384.488 105.86h-1.121v-1.107h-.027c-.465.846-1.186 1.271-2.161 1.271-1.668 0-2.502-.994-2.502-2.98V98.86h1.114v4.006c0 1.475.565 2.215 1.695 2.215.547 0 .998-.202 1.35-.607.353-.402.53-.929.53-1.58V98.86h1.122v7zM390.4 99.995c-.195-.15-.48-.228-.848-.228-.478 0-.878.228-1.2.68-.32.45-.481 1.066-.481 1.845v3.568h-1.121v-7h1.12v1.442h.028c.16-.494.404-.875.732-1.153a1.671 1.671 0 011.1-.412c.292 0 .516.03.67.096v1.162zM397.058 102.64h-4.941c.018.779.228 1.38.629 1.805.4.424.952.636 1.654.636.788 0 1.513-.26 2.174-.78v1.054c-.615.445-1.43.67-2.441.67-.99 0-1.766-.32-2.33-.954-.566-.636-.848-1.531-.848-2.684 0-1.09.309-1.976.926-2.662.617-.687 1.384-1.028 2.3-1.028.917 0 1.625.296 2.125.888.502.59.752 1.414.752 2.466v.589zm-1.148-.95c-.004-.647-.16-1.151-.468-1.512-.307-.358-.735-.538-1.282-.538a1.81 1.81 0 00-1.346.566c-.37.379-.597.873-.683 1.485h3.779zM410.328 105.86h-1.272l-1.039-2.748h-4.156l-.979 2.748h-1.277l3.76-9.803h1.19l3.773 9.803zm-2.688-3.78l-1.537-4.177a3.828 3.828 0 01-.15-.656h-.028a3.675 3.675 0 01-.158.656l-1.523 4.176h3.396zM412.767 104.849h-.027v4.23h-1.12V98.86h1.12v1.229h.027c.552-.928 1.36-1.393 2.42-1.393.903 0 1.608.31 2.114.938.505.627.757 1.468.757 2.52 0 1.172-.284 2.108-.853 2.812-.57.704-1.35 1.058-2.338 1.058-.907 0-1.607-.394-2.1-1.176m-.027-2.824v.978c0 .578.188 1.07.564 1.473.376.402.854.605 1.432.605.68 0 1.211-.26 1.597-.78.386-.518.577-1.241.577-2.168 0-.778-.18-1.388-.539-1.832-.36-.44-.848-.661-1.463-.661-.652 0-1.176.227-1.572.68-.397.453-.596 1.02-.596 1.705M420.998 104.849h-.027v4.23h-1.121V98.86h1.12v1.229h.028c.552-.928 1.359-1.393 2.42-1.393.903 0 1.608.31 2.114.938.505.627.757 1.468.757 2.52 0 1.172-.284 2.108-.853 2.812-.57.704-1.35 1.058-2.338 1.058-.907 0-1.607-.394-2.1-1.176m-.027-2.824v.978c0 .578.188 1.07.564 1.473.376.402.854.605 1.432.605.68 0 1.21-.26 1.597-.78.386-.518.577-1.241.577-2.168 0-.778-.18-1.388-.54-1.832-.36-.44-.847-.661-1.462-.661-.652 0-1.176.227-1.572.68-.397.453-.596 1.02-.596 1.705M373.43 122.263v-1.354c.155.137.341.26.558.37.215.109.443.202.683.277.238.075.48.133.721.174.242.04.465.06.67.06.707 0 1.234-.13 1.582-.391.35-.263.523-.64.523-1.132 0-.264-.058-.494-.174-.691a1.997 1.997 0 00-.482-.537 4.872 4.872 0 00-.728-.464c-.28-.148-.582-.304-.906-.468a14.492 14.492 0 01-.957-.527 4.094 4.094 0 01-.772-.588 2.437 2.437 0 01-.516-.727 2.248 2.248 0 01-.188-.953c0-.447.098-.836.294-1.166.195-.33.453-.604.772-.818a3.487 3.487 0 011.091-.477 4.884 4.884 0 011.247-.158c.966 0 1.671.117 2.112.348v1.29c-.578-.398-1.322-.6-2.228-.6-.25 0-.502.028-.752.08a2.1 2.1 0 00-.67.257c-.195.118-.356.27-.479.457a1.215 1.215 0 00-.184.682c0 .25.047.469.14.652.093.18.232.346.414.498.181.15.404.297.666.437.262.142.564.297.906.465.351.174.683.356.998.547.314.19.59.404.827.637.237.232.425.489.563.77.14.283.21.608.21.972 0 .482-.095.89-.284 1.226a2.346 2.346 0 01-.765.819 3.362 3.362 0 01-1.112.454c-.42.093-.86.14-1.326.14-.154 0-.346-.012-.574-.04a7.326 7.326 0 01-.697-.107 5.526 5.526 0 01-.674-.18 2.042 2.042 0 01-.509-.234M386.801 119.44h-4.942c.018.779.23 1.382.63 1.806.4.424.952.633 1.653.633.79 0 1.514-.258 2.174-.78v1.054c-.615.447-1.429.67-2.44.67-.99 0-1.767-.317-2.33-.952-.566-.636-.849-1.531-.849-2.685 0-1.09.31-1.976.926-2.662.618-.686 1.384-1.028 2.301-1.028.916 0 1.625.297 2.125.888.501.591.752 1.415.752 2.468v.588zm-1.148-.95c-.005-.647-.16-1.151-.468-1.511-.308-.36-.735-.541-1.282-.541-.528 0-.978.19-1.347.569-.369.377-.597.871-.683 1.483h3.78zM392.147 116.794c-.196-.15-.479-.226-.848-.226-.478 0-.878.226-1.2.677-.32.45-.481 1.067-.481 1.846v3.567h-1.121v-7h1.121v1.445h.027c.159-.494.403-.877.731-1.154a1.68 1.68 0 011.101-.413c.292 0 .515.031.67.096v1.162zM399.427 115.66l-2.789 7h-1.1l-2.653-7h1.23l1.778 5.085c.132.374.214.7.246.977h.027a4.62 4.62 0 01.22-.95l1.858-5.113h1.183zM401.205 113.882a.71.71 0 01-.724-.725c0-.21.07-.382.212-.522a.697.697 0 01.512-.208.724.724 0 01.738.73.727.727 0 01-.738.725zm-.574 8.777h1.12v-7h-1.12v7zM408.793 122.339c-.538.323-1.177.483-1.915.483-.998 0-1.803-.323-2.416-.972-.613-.651-.92-1.491-.92-2.528 0-1.151.33-2.077.992-2.777.66-.7 1.541-1.05 2.646-1.05.615 0 1.157.115 1.627.342v1.148c-.52-.364-1.077-.546-1.668-.546-.716 0-1.303.255-1.76.769-.46.513-.689 1.186-.689 2.02 0 .82.216 1.466.647 1.94.43.476 1.009.712 1.733.712.612 0 1.185-.202 1.723-.607v1.066zM416.114 119.44h-4.942c.018.779.229 1.382.629 1.806.4.424.953.633 1.654.633.789 0 1.514-.258 2.174-.78v1.054c-.615.447-1.43.67-2.44.67-.99 0-1.767-.317-2.331-.952-.565-.636-.848-1.531-.848-2.685 0-1.09.309-1.976.926-2.662.618-.686 1.384-1.028 2.3-1.028.917 0 1.626.297 2.126.888s.752 1.415.752 2.468v.588zm-1.148-.95c-.005-.647-.161-1.151-.468-1.511-.308-.36-.735-.541-1.282-.541-.528 0-.978.19-1.347.569-.37.377-.597.871-.683 1.483h3.78zM194.162 104.86h-1.272l-1.039-2.748h-4.156l-.977 2.748h-1.279l3.76-9.803h1.19l3.773 9.803zm-2.686-3.78l-1.539-4.177c-.05-.137-.1-.356-.15-.656h-.028a3.698 3.698 0 01-.156.656l-1.525 4.176h3.398zM200.335 98.18l-4.143 5.724h4.102v.957h-5.75v-.35l4.143-5.693h-3.752v-.957h5.4zM207.445 104.86h-1.121v-1.107h-.027c-.465.846-1.186 1.271-2.161 1.271-1.668 0-2.502-.994-2.502-2.98V97.86h1.114v4.006c0 1.475.565 2.215 1.695 2.215.547 0 .998-.202 1.35-.607.353-.402.53-.929.53-1.58V97.86h1.122v7zM213.357 98.995c-.195-.15-.48-.228-.848-.228-.478 0-.878.228-1.2.68-.32.45-.481 1.066-.481 1.845v3.568h-1.121v-7h1.12v1.442h.028c.16-.494.404-.875.732-1.153a1.671 1.671 0 011.1-.412c.292 0 .516.03.67.096v1.162zM220.015 101.64h-4.941c.018.779.228 1.38.629 1.805.4.424.952.636 1.654.636.788 0 1.513-.26 2.174-.78v1.054c-.615.445-1.43.67-2.441.67-.99 0-1.766-.32-2.33-.954-.566-.636-.848-1.531-.848-2.684 0-1.09.309-1.976.926-2.662.617-.687 1.384-1.028 2.3-1.028.917 0 1.625.296 2.125.888.502.59.752 1.414.752 2.466v.589zm-1.148-.95c-.004-.647-.16-1.151-.468-1.512-.307-.358-.735-.538-1.282-.538a1.81 1.81 0 00-1.346.566c-.37.379-.597.873-.683 1.485h3.779zM233.285 104.86h-1.272l-1.039-2.748h-4.156l-.979 2.748h-1.277l3.76-9.803h1.19l3.773 9.803zm-2.688-3.78l-1.537-4.177a3.828 3.828 0 01-.15-.656h-.028a3.675 3.675 0 01-.158.656l-1.523 4.176h3.396zM239.347 104.538c-.537.324-1.176.485-1.914.485-.998 0-1.803-.324-2.416-.973-.613-.65-.92-1.49-.92-2.527 0-1.152.331-2.079.992-2.778.66-.699 1.542-1.049 2.645-1.049.615 0 1.158.113 1.627.342v1.147a2.855 2.855 0 00-1.668-.545c-.715 0-1.302.254-1.76.768-.458.513-.688 1.187-.688 2.021 0 .82.216 1.465.647 1.941.431.474 1.008.711 1.732.711.612 0 1.186-.203 1.723-.609v1.066zM244.29 104.792c-.264.146-.612.219-1.046.219-1.226 0-1.839-.684-1.839-2.051v-4.144h-1.203v-.957h1.203V96.15l1.121-.362v2.071h1.764v.957h-1.763v3.945c0 .469.079.803.239 1.006.16.2.423.299.793.299.282 0 .526-.077.732-.231v.957zM246.36 96.083a.708.708 0 01-.51-.205.693.693 0 01-.214-.52.7.7 0 01.213-.523.7.7 0 01.511-.209.726.726 0 01.74.732c0 .2-.073.371-.216.512a.718.718 0 01-.524.213zm-.574 8.777h1.121v-7h-1.12v7zM254.681 97.86l-2.789 7h-1.102l-2.652-7h1.231l1.777 5.086c.133.373.215.7.246.976h.027c.046-.35.12-.666.22-.95l1.858-5.112h1.184zM261.427 101.64h-4.941c.018.779.228 1.38.629 1.805.4.424.952.636 1.654.636.788 0 1.513-.26 2.174-.78v1.054c-.615.445-1.43.67-2.441.67-.99 0-1.766-.32-2.33-.954-.566-.636-.848-1.531-.848-2.684 0-1.09.309-1.976.926-2.662.617-.687 1.384-1.028 2.3-1.028.917 0 1.625.296 2.125.888.502.59.752 1.414.752 2.466v.589zm-1.148-.95c-.004-.647-.16-1.151-.468-1.512-.307-.358-.735-.538-1.282-.538a1.81 1.81 0 00-1.346.566c-.37.379-.597.873-.683 1.485h3.779zM182.565 121.66v-9.804h2.707c3.454 0 5.181 1.594 5.181 4.78 0 1.512-.479 2.728-1.438 3.646-.96.918-2.244 1.377-3.853 1.377h-2.597zm1.148-8.765v7.725h1.463c1.285 0 2.286-.344 3.001-1.032.715-.688 1.073-1.664 1.073-2.925 0-2.512-1.335-3.768-4.006-3.768h-1.53zM192.806 112.882a.714.714 0 01-.725-.725c0-.21.07-.382.212-.522a.7.7 0 01.513-.208c.205 0 .38.068.522.208.145.14.216.313.216.522a.69.69 0 01-.216.514.718.718 0 01-.522.21zm-.574 8.777h1.12v-7h-1.12v7zM199.272 115.794c-.196-.15-.479-.226-.848-.226-.478 0-.878.226-1.2.677-.32.45-.481 1.067-.481 1.846v3.567h-1.121v-7h1.121v1.445h.027c.159-.494.403-.877.731-1.154a1.68 1.68 0 011.101-.413c.292 0 .515.031.67.096v1.162zM205.93 118.44h-4.942c.018.779.23 1.382.63 1.806.4.424.952.633 1.653.633.79 0 1.514-.258 2.174-.78v1.054c-.615.447-1.429.67-2.44.67-.99 0-1.767-.317-2.33-.952-.566-.636-.849-1.531-.849-2.685 0-1.09.31-1.976.926-2.662.618-.686 1.384-1.028 2.301-1.028.916 0 1.625.297 2.125.888.501.591.752 1.415.752 2.468v.588zm-1.148-.95c-.005-.647-.16-1.151-.468-1.511-.308-.36-.735-.541-1.282-.541-.528 0-.978.19-1.347.569-.369.377-.597.871-.683 1.483h3.78zM212.397 121.339c-.538.323-1.176.483-1.914.483-.998 0-1.804-.323-2.417-.972-.612-.651-.919-1.491-.919-2.528 0-1.151.331-2.077.991-2.777.66-.7 1.543-1.05 2.646-1.05.615 0 1.157.115 1.627.342v1.148c-.52-.364-1.076-.546-1.668-.546-.716 0-1.302.255-1.761.769-.457.513-.687 1.186-.687 2.02 0 .82.216 1.466.646 1.94.432.476 1.009.712 1.733.712.611 0 1.185-.202 1.723-.607v1.066zM217.34 121.59c-.265.147-.614.22-1.047.22-1.225 0-1.839-.684-1.839-2.051v-4.144h-1.203v-.957h1.203v-1.71l1.121-.36v2.07h1.764v.957h-1.764v3.947c0 .467.08.802.24 1.004.16.2.423.299.793.299.282 0 .526-.077.731-.231v.957zM221.653 121.823c-1.034 0-1.86-.326-2.478-.98-.618-.655-.926-1.522-.926-2.602 0-1.176.32-2.094.964-2.754.642-.66 1.51-.992 2.604-.992 1.044 0 1.858.322 2.444.964.585.643.878 1.534.878 2.672 0 1.118-.315 2.012-.946 2.684-.632.672-1.48 1.008-2.54 1.008m.082-6.385c-.72 0-1.29.246-1.71.735-.418.49-.628 1.165-.628 2.027 0 .83.212 1.484.636 1.963.424.478.99.716 1.702.716.725 0 1.282-.234 1.67-.702.392-.47.586-1.138.586-2.005 0-.875-.194-1.548-.585-2.023-.39-.474-.946-.71-1.671-.71M230.58 115.794c-.195-.15-.478-.226-.847-.226-.478 0-.878.226-1.2.677-.32.45-.481 1.067-.481 1.846v3.567h-1.121v-7h1.12v1.445h.028c.159-.494.403-.877.73-1.154a1.68 1.68 0 011.102-.413c.292 0 .515.031.67.096v1.162zM237.93 114.66l-3.22 8.12c-.575 1.448-1.382 2.174-2.42 2.174-.293 0-.537-.029-.732-.088v-1.006c.242.082.463.123.663.123.565 0 .99-.338 1.271-1.01l.561-1.329-2.734-6.985h1.244l1.893 5.387c.024.068.071.246.144.533h.041a7.52 7.52 0 01.137-.52l1.99-5.4h1.161zM542.764 104.192h-5.086V94.39h1.148v8.764h3.938zM549.128 104.192h-1.12v-1.094h-.028c-.489.84-1.205 1.258-2.154 1.258-.697 0-1.243-.185-1.637-.554-.394-.368-.59-.858-.59-1.469 0-1.308.77-2.069 2.31-2.285l2.098-.293c0-1.188-.48-1.785-1.442-1.785-.843 0-1.605.287-2.284.863v-1.149c.69-.437 1.482-.656 2.38-.656 1.645 0 2.467.871 2.467 2.611v4.553zm-1.12-3.54l-1.689.23c-.52.075-.912.204-1.176.388-.265.185-.397.512-.397.981 0 .34.122.621.366.837.244.216.57.325.974.325.556 0 1.015-.196 1.378-.584.361-.39.543-.883.543-1.48v-.698zM557.051 104.192h-1.12V100.2c0-1.487-.543-2.23-1.628-2.23-.56 0-1.024.212-1.392.634-.366.422-.549.953-.549 1.596v3.992h-1.122v-7h1.122v1.162h.027c.528-.885 1.294-1.326 2.297-1.326.765 0 1.35.248 1.757.742.406.494.608 1.21.608 2.143v4.28zM565.138 103.632c0 2.57-1.23 3.855-3.69 3.855-.867 0-1.624-.164-2.27-.492v-1.121c.788.438 1.54.656 2.255.656 1.723 0 2.584-.916 2.584-2.748v-.766h-.027c-.534.894-1.336 1.34-2.407 1.34-.87 0-1.57-.31-2.1-.932-.532-.623-.798-1.458-.798-2.505 0-1.19.286-2.136.857-2.838.573-.701 1.356-1.053 2.35-1.053.942 0 1.643.379 2.098 1.135h.027v-.97h1.121v6.439zm-1.12-2.604v-1.033c0-.555-.188-1.031-.565-1.427a1.855 1.855 0 00-1.405-.597c-.693 0-1.234.252-1.627.757-.392.504-.588 1.209-.588 2.114 0 .78.188 1.403.565 1.87.375.468.873.7 1.493.7.63 0 1.141-.221 1.534-.67.395-.445.592-1.017.592-1.714zM573.068 104.192h-1.121v-1.107h-.027c-.465.847-1.186 1.271-2.161 1.271-1.668 0-2.502-.993-2.502-2.98v-4.184h1.115v4.006c0 1.475.565 2.215 1.695 2.215.547 0 .997-.2 1.35-.605.353-.403.53-.93.53-1.583v-4.033h1.12v7zM580.341 104.192h-1.12v-1.094h-.028c-.489.84-1.205 1.258-2.154 1.258-.697 0-1.243-.185-1.637-.554-.394-.368-.59-.858-.59-1.469 0-1.308.77-2.069 2.31-2.285l2.098-.293c0-1.188-.48-1.785-1.442-1.785-.843 0-1.605.287-2.284.863v-1.149c.69-.437 1.482-.656 2.38-.656 1.645 0 2.467.871 2.467 2.611v4.553zm-1.12-3.54l-1.689.23c-.52.075-.912.204-1.176.388-.265.185-.397.512-.397.981 0 .34.122.621.366.837.244.216.57.325.974.325.556 0 1.015-.196 1.378-.584.361-.39.543-.883.543-1.48v-.698zM588.428 103.632c0 2.57-1.23 3.855-3.69 3.855-.868 0-1.623-.164-2.27-.492v-1.121c.787.438 1.54.656 2.255.656 1.723 0 2.584-.916 2.584-2.748v-.766h-.027c-.534.894-1.335 1.34-2.407 1.34-.87 0-1.57-.31-2.102-.932-.53-.623-.796-1.458-.796-2.505 0-1.19.286-2.136.858-2.838.572-.701 1.354-1.053 2.348-1.053.943 0 1.643.379 2.1 1.135h.026v-.97h1.121v6.439zm-1.12-2.604v-1.033c0-.555-.189-1.031-.564-1.427a1.86 1.86 0 00-1.406-.597c-.692 0-1.235.252-1.627.757-.39.504-.588 1.209-.588 2.114 0 .78.19 1.403.564 1.87.377.468.875.7 1.494.7.63 0 1.141-.221 1.535-.67.394-.445.591-1.017.591-1.714zM596.323 100.974h-4.942c.02.778.228 1.38.63 1.805.4.424.951.634 1.653.634.788 0 1.513-.26 2.174-.78v1.054c-.615.446-1.429.67-2.44.67-.989 0-1.766-.318-2.33-.953-.567-.636-.849-1.531-.849-2.684 0-1.09.31-1.976.927-2.662.617-.686 1.383-1.03 2.3-1.03.916 0 1.624.298 2.125.889.502.592.752 1.416.752 2.469v.588zm-1.148-.951c-.004-.647-.16-1.151-.469-1.51-.306-.36-.734-.541-1.28-.541-.53 0-.979.189-1.348.568-.369.378-.596.872-.683 1.483h3.78zM529.294 117.028c0 2.752-1.242 4.13-3.727 4.13-2.378 0-3.568-1.325-3.568-3.975v-5.993h1.15v5.92c0 2.01.846 3.014 2.541 3.014 1.637 0 2.456-.97 2.456-2.912v-6.022h1.148v5.838zM537.402 120.993h-1.121v-3.992c0-1.487-.543-2.229-1.627-2.229-.561 0-1.025.211-1.392.632-.366.421-.55.954-.55 1.597v3.992h-1.121v-7h1.122v1.162h.027c.528-.886 1.294-1.326 2.297-1.326.765 0 1.35.246 1.756.741.406.495.609 1.21.609 2.144v4.28zM545.488 120.993h-1.121v-1.189h-.027c-.52.902-1.322 1.353-2.407 1.353-.88 0-1.582-.314-2.108-.94-.526-.626-.79-1.48-.79-2.56 0-1.158.292-2.086.875-2.783.584-.697 1.36-1.045 2.332-1.045.96 0 1.66.378 2.098 1.135h.027v-4.334h1.12v10.363zm-1.121-3.166v-1.03c0-.568-.187-1.045-.561-1.437-.373-.392-.847-.589-1.421-.589-.684 0-1.221.25-1.614.752-.391.501-.588 1.195-.588 2.078 0 .808.189 1.445.565 1.912.376.465.88.701 1.514.701.625 0 1.13-.227 1.52-.678.39-.45.585-1.022.585-1.709zM553.384 117.772h-4.943c.019.78.229 1.381.629 1.805.4.424.953.636 1.654.636.789 0 1.514-.258 2.174-.78v1.054c-.615.446-1.428.67-2.44.67-.99 0-1.766-.319-2.331-.953-.565-.636-.848-1.531-.848-2.684 0-1.09.309-1.977.927-2.662.618-.688 1.384-1.029 2.3-1.029.916 0 1.625.297 2.126.889.5.59.752 1.413.752 2.465v.59zm-1.148-.949c-.005-.647-.161-1.151-.47-1.512-.306-.359-.733-.539-1.28-.539-.53 0-.98.188-1.348.566-.37.38-.596.874-.683 1.486h3.78zM558.73 115.128c-.196-.15-.479-.228-.848-.228-.478 0-.879.228-1.2.679-.321.45-.481 1.067-.481 1.846v3.567h-1.121v-7h1.121v1.443h.027c.159-.494.402-.875.731-1.153a1.67 1.67 0 011.101-.412c.291 0 .515.03.67.096v1.162zM559.619 120.74v-1.204c.61.451 1.282.678 2.016.678.984 0 1.476-.329 1.476-.986a.847.847 0 00-.126-.474 1.259 1.259 0 00-.342-.345 2.573 2.573 0 00-.505-.272 39.315 39.315 0 00-.626-.249 8.136 8.136 0 01-.817-.373 2.492 2.492 0 01-.588-.422 1.585 1.585 0 01-.355-.539c-.08-.2-.12-.433-.12-.703 0-.327.075-.618.225-.872.15-.253.352-.465.602-.636.25-.169.537-.298.858-.385.322-.086.654-.129.995-.129.606 0 1.149.103 1.627.313v1.136c-.515-.338-1.107-.506-1.777-.506-.21 0-.4.024-.568.071a1.371 1.371 0 00-.434.203.906.906 0 00-.28.31.819.819 0 00-.1.401c0 .18.034.334.1.457.065.123.163.232.29.328.128.094.283.181.465.26.182.078.39.162.623.252.309.12.588.242.834.367s.455.265.629.422c.172.16.306.338.399.543.093.207.14.451.14.734 0 .346-.077.645-.23.902a1.949 1.949 0 01-.61.635c-.256.17-.55.295-.883.377a4.348 4.348 0 01-1.045.123c-.721 0-1.345-.14-1.873-.418M569.23 120.925c-.265.146-.613.219-1.047.219-1.225 0-1.838-.684-1.838-2.051v-4.144h-1.203v-.957h1.203v-1.71l1.121-.361v2.07h1.764v.958h-1.764v3.945c0 .469.079.803.239 1.006.16.2.423.299.793.299.283 0 .527-.078.732-.231v.957zM575.738 120.993h-1.121v-1.095h-.027c-.49.84-1.206 1.26-2.155 1.26-.697 0-1.242-.186-1.636-.557-.395-.369-.592-.857-.592-1.467 0-1.309.77-2.07 2.31-2.285l2.1-.293c0-1.19-.481-1.785-1.443-1.785-.843 0-1.604.287-2.284.863v-1.149c.689-.437 1.482-.656 2.379-.656 1.646 0 2.469.87 2.469 2.61v4.554zm-1.121-3.54l-1.69.23c-.52.074-.911.203-1.175.387-.264.185-.397.512-.397.982 0 .34.123.621.366.837.244.214.569.325.974.325.557 0 1.016-.197 1.378-.585.362-.39.544-.883.544-1.48v-.697zM583.66 120.993h-1.121v-3.992c0-1.487-.542-2.229-1.627-2.229-.561 0-1.023.211-1.391.632-.367.421-.55.954-.55 1.597v3.992h-1.122v-7h1.122v1.162h.027c.529-.886 1.295-1.326 2.297-1.326.765 0 1.35.246 1.758.741.405.495.607 1.21.607 2.144v4.28zM591.748 120.993h-1.121v-1.189h-.027c-.52.902-1.323 1.353-2.407 1.353-.88 0-1.583-.314-2.11-.94-.525-.626-.788-1.48-.788-2.56 0-1.158.29-2.086.875-2.783.583-.697 1.359-1.045 2.33-1.045.962 0 1.662.378 2.1 1.135h.027v-4.334h1.12v10.363zm-1.121-3.166v-1.03c0-.568-.187-1.045-.561-1.437-.374-.392-.847-.589-1.421-.589-.684 0-1.222.25-1.614.752-.392.501-.588 1.195-.588 2.078 0 .808.188 1.445.564 1.912.376.465.88.701 1.515.701.624 0 1.13-.227 1.52-.678.39-.45.585-1.022.585-1.709zM594.592 112.216a.712.712 0 01-.725-.725c0-.21.07-.384.21-.523a.708.708 0 01.515-.21c.205 0 .379.07.522.21a.696.696 0 01.216.523.69.69 0 01-.216.512.717.717 0 01-.522.213zm-.574 8.777h1.12v-7h-1.12v7zM603.218 120.993h-1.12v-3.992c0-1.487-.544-2.229-1.628-2.229-.56 0-1.025.211-1.392.632-.366.421-.549.954-.549 1.597v3.992h-1.122v-7h1.122v1.162h.027c.528-.886 1.294-1.326 2.297-1.326.765 0 1.35.246 1.756.741.406.495.61 1.21.61 2.144v4.28zM611.304 120.432c0 2.57-1.23 3.856-3.69 3.856-.867 0-1.623-.164-2.27-.492v-1.121c.788.438 1.54.656 2.255.656 1.723 0 2.584-.916 2.584-2.748v-.766h-.027c-.534.893-1.335 1.34-2.407 1.34-.87 0-1.57-.311-2.1-.934-.532-.622-.798-1.457-.798-2.505 0-1.19.287-2.135.858-2.836.572-.702 1.355-1.053 2.35-1.053.942 0 1.642.378 2.097 1.135h.027v-.97h1.121v6.438zm-1.12-2.604v-1.032c0-.556-.188-1.033-.564-1.43a1.857 1.857 0 00-1.406-.594c-.692 0-1.234.252-1.627.756-.39.503-.588 1.209-.588 2.115 0 .78.19 1.403.565 1.87.376.466.874.7 1.494.7.63 0 1.141-.222 1.534-.67.394-.446.591-1.02.591-1.715z" fill="#525252"/>
        <path d="M412.772 219.512c0 9.779-7.929 17.708-17.708 17.708-9.78 0-17.709-7.93-17.709-17.708 0-9.78 7.929-17.708 17.709-17.708 9.779 0 17.708 7.928 17.708 17.708" fill="#FFF"/>
        <path d="M394.65 202.552c9.284 0 16.81 7.527 16.81 16.812 0 9.283-7.526 16.808-16.81 16.808-9.284 0-16.81-7.525-16.81-16.808.01-9.281 7.53-16.8 16.81-16.812m0-2.4c-10.61 0-19.211 8.6-19.211 19.212 0 10.61 8.6 19.21 19.21 19.21 10.61 0 19.213-8.6 19.213-19.21 0-10.611-8.602-19.212-19.212-19.212" fill="#3A96DD"/>
        <path d="M391.648 217.562a1.802 1.802 0 110 3.604 1.802 1.802 0 010-3.604M397.652 217.562a1.801 1.801 0 110 3.602 1.801 1.801 0 010-3.602" fill="#3A96DD"/>
        <path d="M399.068 229.73h-13.584a1.201 1.201 0 01-1.201-1.2v-13.584h2.4v12.383h12.386v2.401h-.001zM405.017 223.781h-2.4v-12.384h-12.385v-2.402h13.585a1.2 1.2 0 011.2 1.201v13.585z" fill="#3A96DD"/>
        <path d="M391.012 74.895h-13.056V61.917h2.674a6.935 6.935 0 01-.472-2.594v-.157h-4.955v18.482h18.562V66.637h-2.753v8.258zM409.416 61.918h2.36v13.056H398.72v-8.258h-2.754v10.931h18.562V59.165h-5.82c.445.794.688 1.686.707 2.596v.157zM377.957 54.053V41.075h13.055v7.55a7.317 7.317 0 012.753-1.258v-9.043h-18.561v18.482h5.349a7.449 7.449 0 011.728-2.674l-4.325-.08zM398.72 47.053v-5.978h13.056v13.057h-5.742c.257.867.39 1.769.393 2.674v.078h8.102v-18.56h-18.562v8.572c.235 0 .394-.078.63-.078.711.04 1.42.118 2.123.235" fill="#9FA0A1"/>
        <path d="M407.293 61.682a2.902 2.902 0 00-2.897-2.91h-.406a8.583 8.583 0 00.315-2.045 7.74 7.74 0 00-15.101-2.44 6.133 6.133 0 00-1.73-.312 5.347 5.347 0 000 10.695h17.144a2.987 2.987 0 002.675-2.988" fill="#61B3D4"/>
        <path d="M390.304 64.67a5.348 5.348 0 012.596-8.966 4.366 4.366 0 011.73-.078 7.8 7.8 0 014.325-6.292 7.333 7.333 0 00-2.359-.393 7.694 7.694 0 00-7.314 5.348 6.112 6.112 0 00-1.73-.314 5.348 5.348 0 000 10.696h2.752z" fill="#80C2DC"/>
        <path d="M553.16 366.224v25.95c0 2.675 6 4.916 13.446 4.916v-30.866H553.16z" fill="#0072C5"/>
        <path d="M566.461 397.09h.217c7.446 0 13.444-2.17 13.444-4.916v-25.95h-13.66v30.866z" fill="#0072C5"/>
        <path d="M566.317 397.09h.217c7.517 0 13.66-2.17 13.66-4.916v-26.022H566.39v30.938h-.072z" fill="#338BCD"/>
        <path d="M580.124 366.224c0 2.675-6 4.916-13.446 4.916s-13.446-2.17-13.446-4.916c0-2.747 6-4.915 13.447-4.915 7.445 0 13.445 2.24 13.445 4.915" fill="#FFF"/>
        <path d="M577.376 365.935c0 1.807-4.77 3.253-10.697 3.253-5.928 0-10.698-1.446-10.698-3.253 0-1.81 4.77-3.253 10.697-3.253 5.928 0 10.698 1.444 10.698 3.253" fill="#7FB900"/>
        <path d="M575.135 367.887c1.373-.58 2.241-1.23 2.241-1.952 0-1.808-4.77-3.253-10.698-3.253-5.927 0-10.698 1.445-10.698 3.253 0 .723.867 1.445 2.241 1.952 1.952-.796 5.06-1.23 8.457-1.23 3.397 0 6.506.505 8.457 1.23" fill="#B7D332"/>
        <path d="M562.341 384.223c0 .796-.289 1.446-.867 1.88-.578.433-1.374.65-2.458.65-.868 0-1.59-.144-2.169-.507v-1.878a3.359 3.359 0 002.241.867c.361 0 .723-.073.94-.216.217-.147.29-.361.29-.651 0-.291-.073-.506-.29-.651-.217-.218-.65-.434-1.3-.723-1.303-.58-1.952-1.445-1.952-2.46 0-.792.288-1.372.867-1.805.578-.433 1.301-.723 2.24-.723.795 0 1.518.146 2.097.362v1.807a3.633 3.633 0 00-1.952-.578c-.362 0-.65.07-.868.216-.216.144-.29.362-.29.65 0 .29.074.508.29.652.145.144.506.36 1.085.65.794.362 1.373.724 1.735 1.156.216.29.361.724.361 1.302M569.498 382.416c0-.867-.217-1.519-.58-2.024-.361-.506-.867-.724-1.516-.724-.652 0-1.23.218-1.591.724-.434.505-.578 1.157-.578 2.024 0 .795.217 1.518.578 2.023.361.507.939.723 1.591.723.649 0 1.155-.216 1.59-.723.289-.505.506-1.158.506-2.023m2.023-.073c0 1.012-.217 1.88-.65 2.603-.434.723-1.084 1.228-1.953 1.518l2.459 2.313h-2.459l-1.734-1.953a3.89 3.89 0 01-2.024-.577c-.578-.361-1.084-.867-1.372-1.518-.362-.652-.507-1.374-.507-2.169 0-.867.145-1.663.507-2.385a3.579 3.579 0 011.517-1.591 4.493 4.493 0 012.24-.578c.795 0 1.519.145 2.097.507.651.361 1.084.867 1.445 1.516.29.724.434 1.447.434 2.314M578.027 386.608h-5.133v-8.457h1.953v6.937h3.18z" fill="#FFF"/>
        <path d="M587.862 57.022l.652.087v2.657l-.648.092c-1.852.26-2.775 1.729-2.775 4.709v6.23c0 2.31-.53 4.032-1.637 5.133-1.092 1.083-2.672 1.651-4.705 1.728l-.783.03V74.43l.713-.04c1.079-.058 1.775-.364 2.152-.888.413-.569.647-1.68.647-3.311V64.4c0-2.799.747-4.802 2.262-5.945-1.51-1.054-2.262-2.96-2.262-5.62v-6.148c0-1.633-.234-2.743-.647-3.313-.377-.523-1.073-.83-2.152-.886l-.713-.038v-3.26l.783.03c2.033.075 3.613.645 4.705 1.73 1.107 1.098 1.637 2.82 1.637 5.13v6.587c0 2.75.909 4.103 2.77 4.355M549.53 40.95c1.093-1.085 2.674-1.654 4.706-1.73l.782-.03v3.26l-.712.038c-1.08.058-1.775.363-2.153.885-.413.57-.646 1.68-.646 3.313v6.151c0 2.674-.762 4.588-2.29 5.635 1.532 1.1 2.29 3.11 2.29 5.927v5.791c0 1.632.233 2.742.646 3.314.378.522 1.073.827 2.153.885l.712.04v3.257l-.782-.028c-2.032-.077-3.613-.646-4.705-1.73-1.107-1.099-1.638-2.82-1.638-5.129v-6.233c0-2.978-.922-4.449-2.775-4.709l-.65-.093V57.11l.655-.089c1.862-.25 2.77-1.603 2.77-4.35v-6.59c0-2.31.53-4.03 1.638-5.13" fill="#0063B1"/>
        <path d="M222.605 79.355c-1.003 0-2.007-.401-2.676-1.14L203 61.356c-.737-.736-1.138-1.673-1.138-2.677 0-1.005.401-2.01 1.138-2.677l16.929-16.862c.736-.736 1.673-1.139 2.676-1.139 1.004 0 2.008.403 2.677 1.139L242.145 56c.735.737 1.137 1.672 1.137 2.678 0 1.004-.402 2.008-1.137 2.677l-16.863 16.86c-.669.739-1.673 1.14-2.677 1.14" fill="#59B3D8"/>
        <path d="M225.282 39.071c-.735-.735-1.673-1.138-2.677-1.138-1.003 0-2.007.403-2.676 1.138l-16.93 16.862c-.736.737-1.137 1.674-1.137 2.678 0 1.003.4 2.007 1.138 2.676l9.568 9.57 17.914-26.528-5.2-5.258z" fill="#7BC3DD"/>
        <path fill="#B6DEEC" d="M235.453 58.678l-8.698-8.7-1.205 1.74 8.364 8.433z"/>
        <path fill="#BDE1EE" d="M223.275 46.566l-1.473 1.472 3.747 3.68 1.205-1.74z"/>
        <path fill="#BDE1EE" d="M209.805 58.684l12.112-12.112 1.467 1.466-12.112 12.113z"/>
        <path d="M233.914 55.4a3.212 3.212 0 00-3.212 3.211c0 .67.2 1.27.536 1.807l-6.424 6.422c-.201-.132-.335-.2-.536-.335V50.178c.938-.534 1.607-1.605 1.607-2.809a3.213 3.213 0 00-6.424 0c0 1.204.669 2.208 1.605 2.81v16.395c-.2.066-.334.2-.535.266l-6.424-6.422c.335-.538.536-1.138.536-1.742a3.214 3.214 0 00-3.212-3.212 3.214 3.214 0 00-3.212 3.212c0 1.742 1.472 3.213 3.212 3.213.402 0 .736-.066 1.07-.2l6.759 6.758c-.2.47-.334.935-.334 1.473a3.741 3.741 0 003.747 3.747 3.741 3.741 0 003.747-3.747c0-.538-.134-1.004-.268-1.473l6.759-6.758c.334.134.669.2 1.004.2a3.212 3.212 0 003.212-3.213c-.001-1.805-1.473-3.277-3.213-3.277" fill="#FFF"/>
        <path d="M225.137 70.004a2.477 2.477 0 01-2.498 2.498 2.477 2.477 0 01-2.498-2.498 2.478 2.478 0 012.498-2.5c1.396.075 2.498 1.177 2.498 2.5M224.412 47.37a1.8 1.8 0 01-1.807 1.806 1.8 1.8 0 01-1.806-1.807 1.8 1.8 0 011.806-1.808 1.8 1.8 0 011.807 1.808M213.103 58.678a1.8 1.8 0 01-1.807 1.807 1.8 1.8 0 01-1.806-1.807 1.8 1.8 0 011.806-1.808 1.8 1.8 0 011.807 1.808M235.654 58.678a1.8 1.8 0 01-1.807 1.807 1.798 1.798 0 01-1.806-1.807 1.8 1.8 0 011.806-1.808 1.8 1.8 0 011.807 1.808" fill="#B7D332"/>
        <path fill="#959595" d="M138.151 220.012h168.255v4.484l9.066-5.234-9.066-5.235v4.485H138.151V54.782h30.471v4.75l9.067-5.236-9.067-5.235v4.22h-31.97v165.23h-20.847v1.5h20.846z"/>
        <path d="M231.25 389.07h-11.046c-1.25 0-9.294 4.481-9.294 4.481s2.808-6.253 2.023-6.723c-3.451-2.075-4.594-5.304-4.594-9.623 0-6.553 5.313-11.865 11.865-11.865h11.046c6.553 0 11.863 5.312 11.863 11.865 0 6.552-5.31 11.864-11.863 11.864" fill="#FFF"/>
        <path d="M218.043 374.525c.69 0 1.255.222 1.695.667.441.444.66 1.008.66 1.687 0 .69-.215 1.257-.653 1.708-.435.45-1.002.674-1.702.674-.69 0-1.26-.23-1.709-.695a2.34 2.34 0 01-.673-1.687c0-.69.226-1.253.68-1.693.453-.44 1.02-.66 1.702-.66M226.165 374.525c.689 0 1.255.222 1.694.667.442.444.66 1.008.66 1.687 0 .69-.216 1.257-.653 1.708-.435.45-1.003.674-1.701.674-.69 0-1.261-.23-1.71-.695a2.337 2.337 0 01-.673-1.687c0-.69.227-1.253.68-1.693.453-.44 1.02-.66 1.703-.66M234.285 374.525c.69 0 1.256.222 1.695.667.44.444.66 1.008.66 1.687 0 .69-.216 1.257-.653 1.708-.435.45-1.003.674-1.702.674-.69 0-1.26-.23-1.708-.695a2.337 2.337 0 01-.674-1.687c0-.69.226-1.253.68-1.693.453-.44 1.02-.66 1.702-.66" fill="#0063B1"/>
        <path d="M242.74 377.287c0 5.892-4.718 10.713-10.485 10.713h-12.206c-.25 0-.495-.01-.74-.027l-6.83 2.93 1.857-4.646a10.79 10.79 0 01-4.772-8.97v-.855c0-5.892 4.718-10.712 10.485-10.712h12.205c5.767 0 10.485 4.82 10.486 10.712v.855zm-10.486-14.266h-12.205c-7.271 0-13.185 6.042-13.185 13.411v.854c0 3.786 1.575 7.32 4.226 9.822l-3.534 8.845 12.248-5.258.245.003h12.206c7.27 0 13.184-6.042 13.184-13.41v-.856c-.001-7.37-5.914-13.41-13.185-13.41z" fill="#0063B1"/>
        <path d="M392.897 361.666a17.769 17.769 0 00-11.999 6.518 17.772 17.772 0 00-3.877 13.095 17.77 17.77 0 006.52 11.997 17.753 17.753 0 0013.09 3.878c4.906-.516 9.122-2.967 12.002-6.519a17.781 17.781 0 003.874-13.094c-.523-4.947-3.033-9.177-6.643-12.097-3.036-2.459-6.907-3.879-11.055-3.879-.631 0-1.268.033-1.912.101" fill="#FFF"/>
        <path d="M387.418 374.654l-4.341-3.515a14.294 14.294 0 00-2.572 8.801l5.55-.585c0-1.625.447-3.258 1.363-4.7" fill="#D2E5A9"/>
        <path d="M399.56 371.91l3.515-4.343a14.313 14.313 0 00-8.805-2.565l.584 5.551a8.785 8.785 0 014.706 1.356" fill="#A5CB54"/>
        <path d="M392.917 370.77l-.584-5.556a14.323 14.323 0 00-8.04 4.406l4.337 3.512a8.758 8.758 0 014.287-2.361" fill="#BCD97D"/>
        <path d="M386.27 381.292l-5.555.587a14.308 14.308 0 004.405 8.048l3.51-4.339a8.753 8.753 0 01-2.36-4.296" fill="#E3EFCA"/>
        <path d="M416.144 377.16c-.626-5.967-3.673-11.08-7.974-14.56a20.983 20.983 0 00-2.667-1.806l-1.688 3.25a17.03 17.03 0 012.051 1.401c3.609 2.921 6.12 7.151 6.642 12.096.518 4.908-1.002 9.541-3.873 13.096-2.881 3.552-7.096 6.002-12.002 6.52a17.712 17.712 0 01-9.24-1.515l-1.686 3.246a21.38 21.38 0 0011.31 1.904 21.422 21.422 0 0014.46-7.855 21.424 21.424 0 004.667-15.778" fill="#A0A1A2"/>
        <path d="M383.543 393.277a17.768 17.768 0 01-6.519-11.996 17.771 17.771 0 013.876-13.097 17.761 17.761 0 0111.998-6.517 17.663 17.663 0 0110.917 2.374l1.688-3.248a21.344 21.344 0 00-12.99-2.764 21.453 21.453 0 00-14.459 7.852l-.006.01a21.457 21.457 0 00-4.663 15.771 21.442 21.442 0 007.856 14.461 21.453 21.453 0 004.467 2.762l1.686-3.245a17.955 17.955 0 01-3.851-2.363" fill="#A0A1A2"/>
        <path d="M383.543 393.277a17.768 17.768 0 01-6.519-11.996 17.771 17.771 0 013.876-13.097 17.761 17.761 0 0111.998-6.517 17.663 17.663 0 0110.917 2.374l1.688-3.248a21.344 21.344 0 00-12.99-2.764 21.453 21.453 0 00-14.459 7.852l-.006.01a21.457 21.457 0 00-4.663 15.771 21.442 21.442 0 007.856 14.461 21.453 21.453 0 004.467 2.762l1.686-3.245a17.955 17.955 0 01-3.851-2.363" fill="#BBBCBD"/>
        <path d="M404.594 368.784l-3.512 4.34a8.728 8.728 0 011.947 2.956h5.827a14.308 14.308 0 00-4.262-7.296" fill="#7FBA00"/>
        <path d="M393.114 381.164a2.514 2.514 0 011.773-4.298c.64 0 1.28.213 1.77.7.005.005.008-.007.015 0H408.96l.533-.005.003.004c1.01 0 1.828.811 1.835 1.818a1.83 1.83 0 01-1.824 1.838h-12.973c-.473.414-1.063.67-1.654.67a2.502 2.502 0 01-1.765-.727" fill="#DD5900"/>
        <path d="M409.496 377.582l-.004-.005-.534.005h-12.286c-.007-.008-.01.006-.016 0-.491-.486-1.13-.7-1.77-.7a2.51 2.51 0 00-1.786.745 2.505 2.505 0 00-.73 1.767h18.96a1.832 1.832 0 00-1.834-1.812" fill="#FF8C00"/>
        <path d="M356.763 422.232l-1.538-4.177a3.878 3.878 0 01-.15-.656h-.028a3.753 3.753 0 01-.157.656l-1.524 4.177h3.397zm2.687 3.78h-1.272l-1.04-2.748h-4.155l-.978 2.748h-1.278l3.76-9.802h1.189l3.774 9.802zM365.622 419.334l-4.143 5.722h4.102v.957h-5.749v-.349l4.143-5.694h-3.753v-.957h5.4zM372.731 426.013h-1.12v-1.107h-.028c-.465.847-1.186 1.27-2.16 1.27-1.669 0-2.503-.993-2.503-2.98v-4.183h1.115v4.006c0 1.476.565 2.215 1.695 2.215.547 0 .997-.201 1.351-.606.352-.402.53-.93.53-1.582v-4.033h1.12v7zM378.644 420.147c-.195-.15-.478-.226-.848-.226-.478 0-.877.226-1.2.678-.32.45-.48 1.067-.48 1.846v3.567h-1.121v-7h1.12v1.443h.027c.16-.493.404-.875.731-1.151a1.67 1.67 0 011.101-.414c.293 0 .516.03.67.096v1.161zM384.154 421.843c-.005-.646-.16-1.15-.468-1.511-.308-.36-.735-.54-1.282-.54-.528 0-.978.19-1.347.568-.369.378-.597.872-.683 1.483h3.78zm1.148.95h-4.942c.018.779.228 1.38.63 1.805.4.424.951.636 1.653.636.788 0 1.513-.26 2.174-.78v1.053c-.615.447-1.429.67-2.44.67-.99 0-1.767-.318-2.33-.953-.567-.637-.849-1.531-.849-2.684 0-1.09.31-1.976.926-2.662.618-.686 1.384-1.03 2.301-1.03.916 0 1.625.298 2.125.89.501.59.752 1.415.752 2.467v.588zM400.978 426.013h-1.142v-6.576c0-.52.032-1.155.096-1.907h-.028c-.11.442-.207.758-.293.95l-3.35 7.533h-.56l-3.344-7.48c-.096-.217-.194-.552-.294-1.003h-.026c.036.39.054 1.032.054 1.92v6.563h-1.108v-9.803h1.517l3.009 6.836c.232.524.382.916.45 1.176H396c.197-.537.354-.94.473-1.203l3.068-6.81h1.437v9.804zM406.412 419.792c-.72 0-1.29.245-1.709.734-.419.491-.629 1.166-.629 2.028 0 .83.212 1.483.636 1.962.424.478.991.717 1.702.717.725 0 1.282-.234 1.671-.704.391-.469.585-1.137.585-2.003 0-.875-.194-1.548-.585-2.023-.389-.475-.946-.711-1.67-.711m-.083 6.385c-1.034 0-1.86-.327-2.478-.981-.618-.654-.926-1.521-.926-2.601 0-1.176.321-2.094.964-2.755.642-.661 1.51-.991 2.604-.991 1.044 0 1.858.321 2.444.964.585.642.878 1.534.878 2.672 0 1.118-.315 2.011-.946 2.684-.632.672-1.479 1.008-2.54 1.008M417.418 426.013h-1.121v-3.992c0-1.487-.542-2.23-1.627-2.23-.561 0-1.024.212-1.392.634-.366.42-.549.953-.549 1.596v3.992h-1.122v-7h1.122v1.162h.027c.528-.885 1.294-1.326 2.297-1.326.765 0 1.35.247 1.757.742.405.494.608 1.209.608 2.143v4.279zM419.53 426.013h1.121v-7h-1.121v7zm.574-8.778a.706.706 0 01-.512-.205.688.688 0 01-.212-.519c0-.209.07-.384.212-.524a.705.705 0 01.512-.208.73.73 0 01.524.208c.143.14.215.315.215.524a.692.692 0 01-.215.512.718.718 0 01-.524.212zM426.168 425.944c-.265.146-.613.22-1.046.22-1.226 0-1.839-.685-1.839-2.052v-4.143h-1.203v-.957h1.203v-1.709l1.121-.362v2.071h1.764v.957h-1.764v3.945c0 .47.079.803.24 1.005.159.201.423.3.793.3.282 0 .526-.078.731-.232v.957zM430.563 419.792c-.72 0-1.29.245-1.709.734-.42.491-.628 1.166-.628 2.028 0 .83.212 1.483.635 1.962.425.478.992.717 1.702.717.726 0 1.281-.234 1.673-.704.389-.469.584-1.137.584-2.003 0-.875-.195-1.548-.584-2.023-.392-.475-.947-.711-1.673-.711m-.082 6.385c-1.034 0-1.86-.327-2.478-.981-.618-.654-.925-1.521-.925-2.601 0-1.176.32-2.094.964-2.755.642-.661 1.51-.991 2.604-.991 1.042 0 1.857.321 2.442.964.587.642.88 1.534.88 2.672 0 1.118-.316 2.011-.947 2.684-.632.672-1.478 1.008-2.54 1.008M439.41 420.147c-.197-.15-.48-.226-.849-.226-.478 0-.879.226-1.199.678-.322.45-.482 1.067-.482 1.846v3.567h-1.12v-7h1.12v1.443h.027c.16-.493.403-.875.731-1.151a1.669 1.669 0 011.101-.414c.291 0 .515.03.67.096v1.161z" fill="#525252"/>
        <path d="M32.458 237.456a2.516 2.516 0 01-2.506-2.51v-30.979a2.516 2.516 0 012.506-2.51H47a2.515 2.515 0 012.505 2.51v30.98a2.514 2.514 0 01-2.505 2.51H32.458z" fill="#454C50"/>
        <path fill="#505659" d="M37.561 235.459H41.9v-1.45h-4.339zM40.453 204.176a.723.723 0 11-1.446 0c0-.4.324-.726.723-.726.4 0 .723.327.723.726"/>
        <path fill="#FFF" d="M31.37 232.013h16.714v-25.115H31.37z"/>
        <path fill="#E5625C" d="M32.655 210.351h14.144v-2.166H32.655z"/>
        <path fill="#E7E7E7" d="M32.655 229.167h14.144v-.713H32.655zM32.655 230.725h14.144v-.712H32.655z"/>
        <path fill="#B2E8FF" d="M32.655 227.607h14.144v-11.101H32.655z"/>
        <path fill="#D3D5D7" d="M32.655 215.66h14.144v-4.464H32.655z"/>
        <path d="M55.903 237.456a2.516 2.516 0 01-2.506-2.51v-30.979a2.516 2.516 0 012.506-2.51h14.542a2.515 2.515 0 012.505 2.51v30.98a2.514 2.514 0 01-2.505 2.51H55.903z" fill="#454C50"/>
        <path fill="#505659" d="M61.006 235.459h4.339v-1.45h-4.339zM63.898 204.176a.722.722 0 11-1.446 0c0-.4.325-.726.723-.726.4 0 .723.327.723.726"/>
        <path fill="#FFF" d="M54.815 232.013H71.53v-25.115H54.815z"/>
        <path d="M67.657 224.605a.497.497 0 01-.496.496H59.87a.498.498 0 01-.496-.496v-6.514c0-.275.223-.499.496-.499h7.29c.275 0 .497.224.497.498v6.514z" fill="#84C708"/>
        <path fill="#84C708" d="M59.366 221.017h8.299v-3.422h-8.299zM69.87 222.169a.883.883 0 11-1.765 0v-3.974a.882.882 0 111.764 0v3.974zM58.924 222.169a.883.883 0 11-1.765 0v-3.974a.883.883 0 011.765 0v3.974zM59.4 217.105s.092-3.518 4.116-3.506c3.985.013 4.115 3.506 4.115 3.506H59.4z"/>
        <path d="M62.204 215.308a.496.496 0 11-.992 0 .496.496 0 01.992 0M65.814 215.308a.496.496 0 11-.991 0 .496.496 0 01.991 0" fill="#FFF"/>
        <path d="M61.573 214.072c.015.021.06.015.1-.016.04-.028.062-.069.047-.089l-.768-1.087c-.015-.02-.06-.014-.1.014-.041.031-.062.071-.048.091l.769 1.087zM65.456 214.072c-.015.021-.06.015-.101-.016-.04-.028-.061-.069-.046-.089l.768-1.087c.015-.02.06-.014.1.014.04.031.062.071.048.091l-.77 1.087zM66.1 227.312a.883.883 0 11-1.765 0v-3.974a.882.882 0 111.765 0v3.974zM62.693 227.312a.883.883 0 11-1.765 0v-3.974a.883.883 0 111.765 0v3.974z" fill="#84C708"/>
        <path d="M7.314 264.442c-.724.383-1.627.574-2.707.574-1.395 0-2.512-.448-3.35-1.345-.838-.899-1.256-2.077-1.256-3.536 0-1.567.47-2.834 1.415-3.8.942-.966 2.139-1.45 3.588-1.45.93 0 1.7.135 2.31.405v1.222a4.697 4.697 0 00-2.324-.588c-1.126 0-2.039.377-2.738 1.13-.7.751-1.048 1.755-1.048 3.013 0 1.194.326 2.146.98 2.854.653.71 1.511 1.064 2.574 1.064.984 0 1.835-.219 2.556-.656v1.113zM14.82 264.853H13.7v-1.107h-.028c-.465.847-1.186 1.27-2.16 1.27-1.669 0-2.503-.992-2.503-2.98v-4.183h1.115v4.006c0 1.476.564 2.215 1.695 2.215.547 0 .997-.201 1.35-.605.353-.403.53-.93.53-1.583v-4.033h1.121v7zM16.66 264.6v-1.202c.61.45 1.281.676 2.016.676.984 0 1.476-.328 1.476-.985a.847.847 0 00-.127-.474 1.262 1.262 0 00-.342-.346 2.712 2.712 0 00-.505-.27c-.194-.08-.403-.163-.625-.25a7.853 7.853 0 01-.818-.372 2.523 2.523 0 01-.588-.423 1.587 1.587 0 01-.355-.537 1.896 1.896 0 01-.119-.705c0-.328.075-.618.225-.871.151-.253.351-.465.602-.636.25-.17.536-.3.857-.385a3.8 3.8 0 01.995-.131c.606 0 1.15.105 1.627.314v1.135c-.515-.337-1.107-.506-1.777-.506-.21 0-.399.025-.567.073a1.386 1.386 0 00-.435.2.939.939 0 00-.28.312.818.818 0 00-.099.4c0 .182.033.336.1.459.065.123.162.232.29.328.127.095.282.18.465.259.181.078.39.162.622.252.31.12.588.24.834.367.246.126.455.266.63.423.171.158.305.339.398.544.094.206.141.449.141.73 0 .348-.077.648-.23.903a1.955 1.955 0 01-.61.637 2.83 2.83 0 01-.883.375 4.362 4.362 0 01-1.046.123c-.72 0-1.345-.14-1.873-.416M26.27 264.784c-.264.146-.613.22-1.046.22-1.226 0-1.838-.685-1.838-2.052v-4.143h-1.203v-.957h1.203v-1.709l1.12-.36v2.07h1.764v.956h-1.764v3.946c0 .468.08.803.24 1.004.16.201.424.3.794.3.282 0 .526-.077.73-.232v.957zM30.666 258.632c-.721 0-1.29.246-1.709.735-.42.49-.629 1.165-.629 2.027 0 .83.212 1.484.636 1.963.424.478.991.716 1.702.716.725 0 1.281-.234 1.671-.703.39-.47.585-1.137.585-2.004 0-.875-.195-1.548-.585-2.023-.39-.474-.946-.711-1.671-.711m-.082 6.385c-1.035 0-1.861-.326-2.479-.981-.617-.654-.925-1.521-.925-2.601 0-1.176.321-2.094.964-2.754.642-.661 1.51-.992 2.604-.992 1.043 0 1.858.322 2.443.964.586.643.879 1.534.879 2.672 0 1.118-.316 2.012-.947 2.684-.631.672-1.478 1.008-2.539 1.008M45.8 264.853h-1.12v-4.02c0-.774-.12-1.334-.36-1.681-.24-.346-.641-.52-1.206-.52-.478 0-.885.219-1.22.657-.335.437-.502.96-.502 1.572v3.992H40.27v-4.156c0-1.376-.532-2.065-1.593-2.065-.492 0-.898.207-1.217.619-.32.413-.478.95-.478 1.61v3.992h-1.121v-7h1.12v1.107h.028c.496-.847 1.22-1.271 2.174-1.271.478 0 .895.134 1.25.4.356.267.599.617.732 1.049.52-.966 1.294-1.45 2.324-1.45 1.54 0 2.31.952 2.31 2.853v4.312zM52.398 260.683c-.006-.646-.162-1.15-.47-1.51-.306-.36-.733-.541-1.28-.541-.53 0-.979.19-1.348.569-.368.378-.596.872-.682 1.482h3.78zm1.147.95h-4.942c.018.78.228 1.382.63 1.806.4.424.952.635 1.654.635.788 0 1.513-.26 2.173-.78v1.053c-.614.447-1.428.67-2.44.67-.99 0-1.767-.317-2.33-.953-.566-.636-.849-1.53-.849-2.684 0-1.09.31-1.976.926-2.662.617-.685 1.385-1.03 2.302-1.03.916 0 1.623.298 2.125.89.5.592.752 1.416.752 2.468v.588zM58.892 258.987c-.196-.15-.48-.225-.848-.225-.478 0-.88.225-1.2.676-.321.451-.481 1.067-.481 1.846v3.568h-1.121v-7h1.12v1.444h.028c.159-.493.403-.877.73-1.153a1.674 1.674 0 011.102-.414c.29 0 .515.032.67.096v1.162zM73.883 264.853h-1.121v-4.02c0-.774-.12-1.334-.36-1.681-.24-.346-.641-.52-1.206-.52-.478 0-.885.219-1.22.657-.335.437-.502.96-.502 1.572v3.992h-1.121v-4.156c0-1.376-.532-2.065-1.593-2.065-.492 0-.898.207-1.217.619-.32.413-.478.95-.478 1.61v3.992h-1.121v-7h1.12v1.107h.028c.496-.847 1.22-1.271 2.174-1.271.478 0 .895.134 1.25.4.356.267.599.617.732 1.049.52-.966 1.294-1.45 2.324-1.45 1.54 0 2.31.952 2.31 2.853v4.312zM79.01 258.632c-.721 0-1.29.246-1.71.735-.42.49-.628 1.165-.628 2.027 0 .83.212 1.484.636 1.963.424.478.99.716 1.702.716.725 0 1.28-.234 1.67-.703.39-.47.586-1.137.586-2.004 0-.875-.195-1.548-.585-2.023-.39-.474-.946-.711-1.671-.711m-.082 6.385c-1.035 0-1.861-.326-2.48-.981-.616-.654-.924-1.521-.924-2.601 0-1.176.32-2.094.964-2.754.642-.661 1.51-.992 2.604-.992 1.043 0 1.858.322 2.443.964.586.643.879 1.534.879 2.672 0 1.118-.316 2.012-.947 2.684-.631.672-1.478 1.008-2.54 1.008M85.326 261.019v.977c0 .579.187 1.07.563 1.473.376.404.854.605 1.433.605.68 0 1.211-.26 1.596-.78s.578-1.241.578-2.166c0-.78-.18-1.39-.54-1.832-.36-.442-.848-.664-1.463-.664-.652 0-1.176.227-1.572.68-.397.455-.595 1.023-.595 1.707m.027 2.822h-.027v1.012h-1.12V254.49h1.12v4.593h.027c.551-.93 1.358-1.394 2.42-1.394.898 0 1.601.314 2.11.94.507.626.761 1.466.761 2.519 0 1.172-.285 2.109-.854 2.813-.57.704-1.35 1.056-2.338 1.056-.926 0-1.625-.392-2.099-1.176M92.436 264.853h1.121v-7h-1.121v7zm.574-8.778a.709.709 0 01-.513-.205.688.688 0 01-.212-.519c0-.209.07-.383.212-.523a.703.703 0 01.513-.208.72.72 0 01.522.208.7.7 0 01.216.523.691.691 0 01-.216.513.715.715 0 01-.522.211zM95.826 264.853h1.121V254.49h-1.121zM103.694 260.683c-.005-.646-.16-1.15-.469-1.51-.307-.36-.734-.541-1.28-.541-.53 0-.979.19-1.348.569-.369.378-.597.872-.683 1.482h3.78zm1.148.95H99.9c.018.78.228 1.382.63 1.806.4.424.951.635 1.653.635.788 0 1.513-.26 2.174-.78v1.053c-.615.447-1.429.67-2.44.67-.99 0-1.767-.317-2.33-.953-.567-.636-.849-1.53-.849-2.684 0-1.09.31-1.976.926-2.662.617-.685 1.384-1.03 2.301-1.03.916 0 1.624.298 2.125.89.501.592.752 1.416.752 2.468v.588z" fill="#525252"/>
        <path fill="#959595" d="M394.798 185.505h1.5V132.04h-1.5z"/>
        <path fill="#959595" d="M400.783 184.509l-5.235 9.066-5.236-9.066zM394.072 344.062h1.5v-47.309h-1.5z"/>
        <path fill="#959595" d="M400.058 342.53l-5.236 9.066-5.235-9.066zM400.058 298.679l-5.236-9.066-5.235 9.066zM480.853 219.546h85.238v-1.5h-85.238z"/>
        <path fill="#959595" d="M482.386 224.031l-9.067-5.235 9.067-5.237z"/>
        <path d="M520.501 424.737v-1.354c.155.137.341.26.557.37.216.11.444.201.684.276.239.075.479.134.721.175.241.041.465.06.67.06.706 0 1.234-.13 1.582-.392.349-.262.523-.639.523-1.13 0-.266-.058-.496-.174-.693a1.962 1.962 0 00-.482-.536 4.765 4.765 0 00-.728-.464c-.28-.148-.582-.304-.906-.468-.342-.174-.661-.35-.957-.528a4.133 4.133 0 01-.772-.587 2.454 2.454 0 01-.516-.728 2.243 2.243 0 01-.188-.954c0-.446.097-.834.294-1.165.195-.33.453-.603.772-.818a3.54 3.54 0 011.09-.478 4.986 4.986 0 011.248-.156c.966 0 1.67.115 2.112.347v1.293c-.579-.4-1.322-.6-2.228-.6-.251 0-.502.024-.752.077a2.147 2.147 0 00-.67.256 1.481 1.481 0 00-.479.46 1.212 1.212 0 00-.184.682c0 .25.047.467.14.65.093.181.231.348.414.5.182.15.404.295.666.436.262.141.564.296.906.465.35.173.683.356.998.547.314.191.59.402.827.635.237.232.425.49.564.773.139.282.208.606.208.971 0 .482-.094.891-.283 1.226a2.325 2.325 0 01-.766.817 3.35 3.35 0 01-1.111.455 6.043 6.043 0 01-1.326.141 7.384 7.384 0 01-1.271-.148 5.431 5.431 0 01-.674-.178 2.118 2.118 0 01-.509-.235M531.042 425.065c-.265.146-.613.22-1.046.22-1.226 0-1.839-.685-1.839-2.052v-4.143h-1.203v-.957h1.203v-1.709l1.121-.363v2.072h1.764v.957h-1.764v3.944c0 .47.08.804.24 1.006.159.2.423.3.793.3.282 0 .526-.078.731-.232v.957zM536.19 419.269c-.197-.15-.48-.227-.849-.227-.477 0-.878.227-1.198.678-.322.45-.483 1.067-.483 1.846v3.568h-1.12v-7h1.12v1.442h.028c.159-.493.403-.875.73-1.152a1.668 1.668 0 011.101-.413c.293 0 .515.03.67.096v1.162zM543.066 425.134h-1.12v-1.107h-.028c-.465.847-1.185 1.27-2.16 1.27-1.669 0-2.503-.993-2.503-2.98v-4.183h1.115v4.006c0 1.476.565 2.215 1.695 2.215.547 0 .997-.202 1.35-.606.353-.403.53-.93.53-1.582v-4.033h1.121v7zM550.1 424.812c-.537.323-1.175.486-1.913.486-.998 0-1.804-.325-2.417-.974-.612-.65-.92-1.492-.92-2.526 0-1.154.33-2.08.992-2.78.66-.698 1.543-1.048 2.646-1.048.615 0 1.157.112 1.627.341v1.149a2.849 2.849 0 00-1.668-.546c-.716 0-1.303.255-1.761.768-.458.512-.687 1.186-.687 2.02 0 .82.216 1.466.646 1.942.43.474 1.009.71 1.733.71.61 0 1.185-.202 1.723-.608v1.066zM555.043 425.065c-.265.146-.613.22-1.046.22-1.226 0-1.839-.685-1.839-2.052v-4.143h-1.203v-.957h1.203v-1.709l1.121-.363v2.072h1.764v.957h-1.764v3.944c0 .47.08.804.24 1.006.159.2.423.3.793.3.282 0 .526-.078.731-.232v.957zM562.2 425.134h-1.12v-1.107h-.028c-.465.847-1.185 1.27-2.16 1.27-1.669 0-2.503-.993-2.503-2.98v-4.183h1.115v4.006c0 1.476.565 2.215 1.695 2.215.547 0 .997-.202 1.35-.606.353-.403.53-.93.53-1.582v-4.033h1.121v7zM568.113 419.269c-.196-.15-.479-.227-.848-.227-.478 0-.878.227-1.199.678-.322.45-.482 1.067-.482 1.846v3.568h-1.12v-7h1.12v1.442h.027c.16-.493.403-.875.731-1.152a1.668 1.668 0 011.101-.413c.292 0 .515.03.67.096v1.162zM573.623 420.964c-.005-.647-.161-1.151-.468-1.512-.308-.36-.735-.54-1.282-.54-.529 0-.978.19-1.347.568-.369.379-.597.873-.683 1.484h3.78zm1.148.949h-4.942c.018.78.228 1.38.629 1.805.401.424.952.637 1.654.637.788 0 1.513-.26 2.174-.78v1.053c-.615.446-1.429.67-2.44.67-.99 0-1.766-.318-2.331-.954-.566-.636-.848-1.53-.848-2.683 0-1.09.309-1.976.926-2.663.618-.686 1.384-1.028 2.301-1.028.916 0 1.624.296 2.125.889.501.59.752 1.414.752 2.466v.588zM581.32 421.968v-1.031c0-.566-.187-1.044-.56-1.436-.375-.392-.848-.588-1.422-.588-.684 0-1.222.25-1.614.752-.392.5-.588 1.194-.588 2.078 0 .807.188 1.444.564 1.91.376.467.881.702 1.515.702.624 0 1.131-.227 1.521-.678.39-.451.584-1.021.584-1.71zm1.121 3.166h-1.12v-1.19h-.028c-.52.903-1.322 1.354-2.407 1.354-.879 0-1.582-.314-2.108-.94-.527-.626-.79-1.48-.79-2.56 0-1.158.291-2.086.875-2.783.583-.697 1.36-1.045 2.331-1.045.961 0 1.661.378 2.1 1.135h.026v-4.334h1.121v10.363zM593.4 421.968v-1.031c0-.566-.188-1.044-.562-1.436-.374-.392-.847-.588-1.42-.588-.685 0-1.223.25-1.615.752-.392.5-.588 1.194-.588 2.078 0 .807.188 1.444.564 1.91.376.467.881.702 1.515.702.624 0 1.131-.227 1.521-.678.39-.451.584-1.021.584-1.71zm1.12 3.166h-1.12v-1.19h-.028c-.52.903-1.322 1.354-2.407 1.354-.879 0-1.582-.314-2.108-.94-.527-.626-.79-1.48-.79-2.56 0-1.158.291-2.086.875-2.783.583-.697 1.36-1.045 2.331-1.045.961 0 1.661.378 2.1 1.135h.026v-4.334h1.121v10.363zM600.68 421.593l-1.688.232c-.52.073-.912.202-1.176.386-.265.185-.397.512-.397.982 0 .34.122.62.366.837.244.215.568.325.974.325.556 0 1.015-.196 1.378-.585.362-.39.543-.883.543-1.48v-.697zm1.12 3.54h-1.12v-1.093h-.027c-.488.838-1.206 1.258-2.154 1.258-.697 0-1.243-.185-1.637-.555-.394-.37-.591-.858-.591-1.468 0-1.31.77-2.07 2.31-2.284l2.099-.294c0-1.19-.481-1.784-1.442-1.784-.844 0-1.605.287-2.284.862v-1.15c.688-.436 1.48-.655 2.379-.655 1.645 0 2.468.87 2.468 2.61v4.554zM607.16 425.065c-.265.146-.613.22-1.046.22-1.226 0-1.839-.685-1.839-2.052v-4.143h-1.203v-.957h1.203v-1.709l1.121-.363v2.072h1.764v.957h-1.764v3.944c0 .47.08.804.24 1.006.16.2.423.3.793.3.282 0 .526-.078.731-.232v.957zM612.547 421.593l-1.688.232c-.52.073-.912.202-1.176.386-.265.185-.397.512-.397.982 0 .34.122.62.366.837.244.215.568.325.974.325.556 0 1.015-.196 1.378-.585.362-.39.543-.883.543-1.48v-.697zm1.12 3.54h-1.12v-1.093h-.027c-.488.838-1.206 1.258-2.154 1.258-.697 0-1.243-.185-1.637-.555-.394-.37-.591-.858-.591-1.468 0-1.31.77-2.07 2.31-2.284l2.099-.294c0-1.19-.481-1.784-1.442-1.784-.844 0-1.605.287-2.284.862v-1.15c.688-.436 1.48-.655 2.379-.655 1.645 0 2.468.87 2.468 2.61v4.554zM242.93 117.609v3.527h1.56c.673 0 1.196-.16 1.567-.478.372-.32.558-.756.558-1.313 0-1.157-.789-1.736-2.366-1.736h-1.319zm0-4.197v3.166h1.176c.63 0 1.123-.153 1.483-.455.36-.303.54-.731.54-1.282 0-.953-.627-1.43-1.88-1.43h-1.319zm-1.148 8.763v-9.802h2.79c.846 0 1.518.208 2.015.623.497.414.745.954.745 1.619 0 .556-.15 1.039-.45 1.449-.302.41-.717.702-1.245.875v.027c.661.079 1.19.329 1.586.749.396.42.595.97.595 1.644 0 .839-.3 1.518-.903 2.037-.6.52-1.36.779-2.276.779h-2.857zM256.48 121.765c-.726.383-1.628.574-2.708.574-1.395 0-2.51-.448-3.35-1.345-.839-.9-1.257-2.077-1.257-3.536 0-1.567.471-2.834 1.415-3.8.943-.966 2.14-1.45 3.588-1.45.93 0 1.7.135 2.311.405v1.222a4.697 4.697 0 00-2.324-.588c-1.126 0-2.038.377-2.738 1.129-.7.752-1.049 1.756-1.049 3.014 0 1.194.327 2.146.981 2.854.653.709 1.511 1.064 2.573 1.064.985 0 1.837-.22 2.557-.656v1.113zM262.467 114.943c0-.301-.047-.562-.14-.785a1.546 1.546 0 00-.383-.558 1.57 1.57 0 00-.57-.331 2.23 2.23 0 00-.712-.11c-.218 0-.433.03-.642.089-.21.059-.414.14-.612.246a3.994 3.994 0 00-1.09.861v-1.203a3.333 3.333 0 011.056-.7c.39-.161.864-.243 1.425-.243.401 0 .772.058 1.114.174.342.117.638.287.89.509.25.224.447.5.59.828.144.328.216.703.216 1.127 0 .388-.045.739-.134 1.053a3.267 3.267 0 01-.403.889c-.18.278-.407.545-.68.8a9.847 9.847 0 01-.964.78c-.46.328-.84.607-1.138.84a5.002 5.002 0 00-.71.653 1.879 1.879 0 00-.37.608 2.123 2.123 0 00-.106.702h4.881v1.003h-6.05v-.484c0-.42.045-.79.136-1.107.091-.32.242-.623.452-.911.21-.287.484-.574.823-.861.34-.287.756-.61 1.248-.971.355-.254.653-.498.892-.73.24-.232.432-.465.578-.697.145-.233.25-.47.311-.708a3.08 3.08 0 00.092-.763M177.89 424.317v-1.354c.155.137.34.26.557.37.216.109.444.202.684.277.239.075.479.133.72.174.242.04.466.06.67.06.707 0 1.235-.13 1.583-.391.349-.263.523-.64.523-1.132 0-.264-.058-.494-.174-.691a1.962 1.962 0 00-.482-.536 4.766 4.766 0 00-.728-.465c-.28-.148-.582-.304-.906-.468a14.97 14.97 0 01-.957-.527 4.094 4.094 0 01-.772-.588 2.437 2.437 0 01-.516-.727 2.246 2.246 0 01-.188-.954c0-.446.097-.835.294-1.165.195-.331.453-.603.772-.818a3.54 3.54 0 011.09-.478 4.987 4.987 0 011.248-.157c.966 0 1.67.116 2.112.348v1.292c-.58-.4-1.322-.601-2.228-.601-.251 0-.502.026-.752.079a2.123 2.123 0 00-.67.256 1.489 1.489 0 00-.48.458 1.216 1.216 0 00-.183.683c0 .25.047.468.14.65.093.182.23.348.414.499.182.15.404.297.666.437.262.142.564.297.906.465.35.174.683.356.998.547.314.19.59.403.827.636.237.232.425.49.564.772.139.283.208.607.208.97 0 .484-.094.893-.283 1.228a2.325 2.325 0 01-.766.817 3.35 3.35 0 01-1.111.455c-.42.093-.861.14-1.326.14-.155 0-.347-.013-.574-.038a7.723 7.723 0 01-.697-.11 5.613 5.613 0 01-.674-.177 2.078 2.078 0 01-.51-.236M186.756 420.878v.978c0 .58.188 1.07.564 1.473.376.403.853.605 1.432.605.679 0 1.211-.26 1.596-.78.386-.519.578-1.24.578-2.167 0-.779-.18-1.389-.54-1.832-.36-.44-.848-.663-1.463-.663-.652 0-1.176.227-1.572.681-.397.453-.595 1.021-.595 1.705m.027 2.823h-.027v4.232h-1.121v-10.22h1.121v1.23h.027c.552-.929 1.358-1.394 2.42-1.394.903 0 1.607.313 2.113.94.505.626.758 1.466.758 2.52 0 1.171-.285 2.108-.854 2.812-.57.704-1.349 1.056-2.338 1.056-.907 0-1.606-.392-2.099-1.176M198.343 420.543c-.005-.646-.161-1.15-.468-1.51-.308-.36-.735-.54-1.282-.54-.53 0-.978.19-1.347.567-.37.38-.597.873-.683 1.483h3.78zm1.148.95h-4.942c.018.78.228 1.381.629 1.805.4.424.952.636 1.654.636.788 0 1.513-.26 2.174-.78v1.053c-.615.447-1.43.67-2.44.67-.99 0-1.766-.317-2.331-.953-.566-.636-.848-1.53-.848-2.684 0-1.089.309-1.976.926-2.662.618-.686 1.384-1.029 2.3-1.029.917 0 1.625.297 2.126.89.5.591.752 1.414.752 2.466v.588zM205.664 420.543c-.005-.646-.16-1.15-.468-1.51-.308-.36-.735-.54-1.282-.54-.529 0-.978.19-1.347.567-.369.38-.597.873-.683 1.483h3.78zm1.148.95h-4.942c.018.78.228 1.381.63 1.805.4.424.951.636 1.653.636.788 0 1.513-.26 2.174-.78v1.053c-.615.447-1.429.67-2.44.67-.99 0-1.766-.317-2.33-.953-.567-.636-.849-1.53-.849-2.684 0-1.089.31-1.976.926-2.662.618-.686 1.384-1.029 2.301-1.029.916 0 1.624.297 2.125.89.501.591.752 1.414.752 2.466v.588zM213.28 424.392c-.539.324-1.177.485-1.915.485-.998 0-1.804-.324-2.417-.973-.612-.65-.919-1.491-.919-2.527 0-1.152.33-2.079.991-2.778.661-.7 1.543-1.05 2.646-1.05.615 0 1.157.114 1.627.342v1.148c-.52-.364-1.076-.546-1.668-.546-.716 0-1.303.256-1.76.769-.459.513-.688 1.186-.688 2.02 0 .82.216 1.467.646 1.941.431.475 1.01.711 1.733.711.611 0 1.185-.202 1.723-.608v1.066zM220.785 424.713h-1.12v-4.033c0-1.458-.544-2.188-1.628-2.188-.547 0-1.007.211-1.38.633-.375.421-.56.963-.56 1.623v3.965h-1.123V414.35h1.122v4.525h.027c.537-.884 1.303-1.326 2.297-1.326 1.576 0 2.365.95 2.365 2.851v4.313zM226.309 424.46v-1.203c.61.451 1.283.677 2.017.677.984 0 1.476-.328 1.476-.985a.855.855 0 00-.126-.474 1.29 1.29 0 00-.342-.346c-.144-.1-.312-.19-.506-.27-.194-.08-.402-.163-.625-.25a8.043 8.043 0 01-.817-.372 2.481 2.481 0 01-.588-.423 1.584 1.584 0 01-.356-.538 1.908 1.908 0 01-.12-.704c0-.328.076-.618.226-.87.15-.254.35-.466.602-.637.25-.17.536-.299.858-.386.32-.086.653-.13.994-.13.606 0 1.149.105 1.627.314v1.135c-.515-.337-1.107-.506-1.777-.506-.21 0-.4.025-.567.072a1.393 1.393 0 00-.434.202.932.932 0 00-.281.311.818.818 0 00-.1.4.96.96 0 00.1.458c.066.123.163.232.29.328.128.095.283.182.466.26.182.078.389.162.622.252.309.12.588.241.834.367.246.125.455.266.629.423.172.158.306.338.399.543.094.206.14.45.14.732 0 .347-.076.647-.228.902a1.956 1.956 0 01-.612.636c-.256.17-.55.294-.882.376a4.362 4.362 0 01-1.046.123c-.72 0-1.345-.139-1.873-.417M237.15 420.543c-.005-.646-.16-1.15-.468-1.51-.308-.36-.735-.54-1.282-.54-.529 0-.978.19-1.347.567-.369.38-.597.873-.683 1.483h3.78zm1.148.95h-4.942c.018.78.228 1.381.63 1.805.4.424.951.636 1.653.636.788 0 1.513-.26 2.174-.78v1.053c-.615.447-1.429.67-2.44.67-.99 0-1.766-.317-2.33-.953-.567-.636-.849-1.53-.849-2.684 0-1.089.31-1.976.926-2.662.618-.686 1.384-1.029 2.301-1.029.916 0 1.624.297 2.125.89.501.591.752 1.414.752 2.466v.588zM243.645 418.848c-.196-.15-.48-.226-.848-.226-.478 0-.878.226-1.2.677-.321.451-.481 1.067-.481 1.846v3.568h-1.121v-7h1.12v1.443h.028c.159-.493.403-.876.73-1.152a1.669 1.669 0 011.102-.414c.292 0 .515.032.67.096v1.162zM250.925 417.713l-2.789 7h-1.101l-2.652-7h1.23l1.778 5.086c.132.374.214.7.246.977h.027a4.62 4.62 0 01.219-.95l1.859-5.113h1.183zM252.128 424.713h1.12v-7h-1.12v7zm.575-8.777a.709.709 0 01-.513-.205.69.69 0 01-.212-.52.7.7 0 01.212-.522.7.7 0 01.513-.209c.205 0 .379.069.522.209a.695.695 0 01.216.522.691.691 0 01-.216.513.712.712 0 01-.522.212zM260.29 424.392c-.538.324-1.176.485-1.914.485-.998 0-1.804-.324-2.417-.973-.612-.65-.919-1.491-.919-2.527 0-1.152.33-2.079.991-2.778.661-.7 1.543-1.05 2.646-1.05.615 0 1.157.114 1.627.342v1.148c-.52-.364-1.076-.546-1.668-.546-.716 0-1.303.256-1.76.769-.459.513-.688 1.186-.688 2.02 0 .82.216 1.467.646 1.941.431.475 1.01.711 1.733.711.611 0 1.185-.202 1.723-.608v1.066zM266.463 420.543c-.005-.646-.161-1.15-.468-1.51-.308-.36-.735-.54-1.282-.54-.529 0-.978.19-1.347.567-.369.38-.597.873-.683 1.483h3.78zm1.148.95h-4.942c.018.78.228 1.381.629 1.805.401.424.952.636 1.654.636.788 0 1.513-.26 2.174-.78v1.053c-.615.447-1.429.67-2.44.67-.99 0-1.766-.317-2.331-.953-.566-.636-.848-1.53-.848-2.684 0-1.089.309-1.976.926-2.662.618-.686 1.384-1.029 2.301-1.029.916 0 1.624.297 2.125.89.501.591.752 1.414.752 2.466v.588z" fill="#525252"/>
        
            <circle cx="111.254" cy="217.628" fill="#A5CE00" r="14.5"/>
            <text fill="#303030" font-family="SegoeUI, Segoe UI" font-size="15" transform="translate(107.246 223.128)">
                1
            </text>
        
        
            <circle cx="137.328" cy="134.628" fill="#A5CE00" r="14.5"/>
            <text fill="#303030" font-family="SegoeUI, Segoe UI" font-size="15" transform="translate(133.319 139.128)">
                2
            </text>
        
        
            <circle cx="395.294" cy="161.628" fill="#A5CE00" r="14.5"/>
            <text fill="#303030" font-family="SegoeUI, Segoe UI" font-size="15" transform="translate(392.285 166.128)">
                3
            </text>
        
        
            <circle cx="565.698" cy="161.628" fill="#A5CE00" r="14.5"/>
            <text fill="#303030" font-family="SegoeUI, Segoe UI" font-size="15" transform="translate(561.69 166.128)">
                4
            </text>
        
        
            <circle cx="222.918" cy="292.053" fill="#A5CE00" r="14.5"/>
            <text fill="#303030" font-family="SegoeUI, Segoe UI" font-size="15" transform="translate(219.473 296.558)">
                5
            </text>
        
        
            <circle cx="566.317" cy="292.379" fill="#A5CE00" r="14.5"/>
            <text fill="#303030" font-family="SegoeUI, Segoe UI" font-size="15" transform="translate(562.308 296.773)">
                6
            </text>
        
        
            <circle cx="395.235" cy="321.379" fill="#A5CE00" r="14.5"/>
            <text fill="#303030" font-family="SegoeUI, Segoe UI" font-size="15" transform="translate(392.226 326.88)">
                7
            </text>
        
    </g>
</svg>
