<svg width="782px" height="476px" viewBox="0 0 782 476" xmlns="http://www.w3.org/2000/svg" xmlns:xlink="http://www.w3.org/1999/xlink">
    <g stroke="none" stroke-width="1" fill="none" fill-rule="evenodd">
        <g>
            <polygon fill="#804997" points="354.854 217.88 354.853 217.881 354.855 217.881 371.405 217.881 377.419 223.881 377.419 223.886 376.29 225.015 381.501 230.214 381.501 245.599 370.742 256.268 355.495 256.268 350.264 251.056 349.132 252.189 349.133 252.19 354.831 257.867 371.405 257.867 383.101 246.271 383.101 229.547 377.42 223.881 371.406 217.881 371.405 217.88"></polygon>
            <polygon fill="#804997" points="374.7993 238.6828 379.2933 242.9208 379.2933 231.1288 374.7283 226.5768 365.4703 235.8398 365.4703 239.2478 362.0623 239.2478 358.5323 242.7798 362.5973 242.7798 360.6943 244.9088 369.7103 254.0638 369.8313 254.0638 377.0553 246.8988 371.9653 241.3688 368.9923 244.3208 368.9923 235.7228 378.0913 235.7228"></polygon>
            <polygon fill="#804997" points="351.8237 249.4963 354.5247 252.1883 355.1237 252.7853 356.4047 254.0633 365.2927 254.0633 363.9757 252.7853 363.3617 252.1883 358.2047 247.1783 356.0647 249.4833 356.0647 245.2523"></polygon>
            <polygon fill="#E8DFEC" points="365.4692 239.2463 365.4692 235.8373 362.0622 239.2463"></polygon>
            <polygon fill="#E8DFEC" points="376.2896 225.0129 374.7296 226.5739 379.2956 231.1269 379.2956 242.9189 374.8016 238.6809 378.0936 235.7209 368.9946 235.7209 368.9946 244.3189 371.9676 241.3659 377.0576 246.8969 369.8336 254.0619 360.6956 244.9079 362.6006 242.7779 358.5356 242.7779 356.0636 245.2499 356.0636 249.4819 358.2036 247.1759 365.2916 254.0619 356.4046 254.0619 351.8236 249.4939 350.2646 251.0539 355.4946 256.2659 370.7416 256.2659 381.5016 245.5959 381.5016 230.2109"></polygon>
            <polygon fill="#FFFFFF" points="343.1343 246.2101 344.6423 247.7121 344.6423 247.7111 343.1343 246.2081"></polygon>
            <polygon fill="#FFFFFF" points="344.6442 247.7154 344.7342 247.8054 344.7342 247.8044 344.6442 247.7134"></polygon>
            <polygon fill="#FFFFFF" points="344.7339 247.8039 344.7339 247.8049 349.1319 252.1869"></polygon>
            <polygon fill="#A07CB1" points="354.854 217.88 343.134 229.899 343.134 246.211 349.131 252.188 350.263 251.055 344.733 245.545 344.732 245.544 344.732 230.536 344.733 230.536 355.513 219.479 370.74 219.479 376.29 225.014 377.418 223.885 377.418 223.88 371.404 217.88"></polygon>
            <polygon fill="#A07CB1" points="356.6558 235.0724 349.5988 228.7114 346.9398 231.4284 346.9398 244.6234 351.8248 249.4934 356.0648 245.2504 356.0648 242.7764 358.5368 242.7764 362.0648 239.2464 352.6368 239.2464"></polygon>
            <polygon fill="#A07CB1" points="356.4448 221.6857 354.1708 224.0177 361.2758 230.6757 365.4718 226.4887 365.4718 235.8387 374.7308 226.5757 369.8298 221.6857"></polygon>
            <polygon fill="#EDE5EF" points="346.939 244.6252 346.939 231.4312 349.598 228.7122 356.655 235.0742 352.636 239.2482 362.065 239.2482 365.472 235.8392 365.472 226.4882 361.275 230.6752 354.169 224.0192 356.444 221.6852 369.829 221.6852 374.73 226.5752 376.29 225.0142 370.741 219.4792 355.513 219.4792 344.734 230.5362 344.734 245.5452 350.264 251.0562 351.824 249.4952"></polygon>
            <polygon fill="#EDE5EF" points="356.064 245.2531 358.535 242.7791 356.064 242.7791"></polygon>
            <path d="M545.6235,230.2287 C545.2315,229.8427 544.6035,229.8427 544.2135,230.2287 C543.9995,230.4157 543.8775,230.6857 543.8775,230.9697 C543.8775,231.2537 543.9995,231.5247 544.2135,231.7097 L553.4985,240.8597 C553.8835,241.2787 553.8835,241.9237 553.4985,242.3417 L544.0195,251.8107 C543.6355,252.2287 543.6355,252.8737 544.0195,253.2917 C544.4235,253.6457 545.0255,253.6457 545.4285,253.2917 L556.4465,242.3407 C556.7995,241.9107 556.7995,241.2897 556.4465,240.8597 L545.6235,230.2287 Z" fill="#3998C5"></path>
            <path d="M519.1138,242.342 C518.7308,241.923 518.7308,241.279 519.1138,240.861 L528.2108,231.711 C528.4238,231.525 528.5468,231.254 528.5468,230.971 C528.5468,230.686 528.4238,230.415 528.2108,230.229 C527.8188,229.843 527.1918,229.843 526.8008,230.229 L515.9758,240.86 C515.6248,241.289 515.6248,241.91 515.9758,242.341 L526.9908,253.292 C527.3938,253.646 527.9958,253.646 528.3998,253.292 C528.7838,252.873 528.7838,252.229 528.3998,251.811 L519.1138,242.342 Z" fill="#3998C5"></path>
            <polygon fill="#FAD53C" points="528.7856 261.0802 540.9506 238.9912 532.7536 238.9272 539.6696 223.0812 533.7136 223.0812 526.9896 242.1462 535.1866 242.2112 528.7856 261.0762"></polygon>
            <polygon fill="#FF8B00" points="537.8765 235.8996 546.2015 223.0816 546.2005 223.0816"></polygon>
            <polygon fill="#FF8B00" points="546.4575 235.9006 528.7865 261.0806 528.7865 261.0816"></polygon>
            <polygon fill="#F9C236" points="540.9517 238.9914 528.7867 261.0804 546.4577 235.9004 537.8777 235.9004 537.8777 235.8994 546.2027 223.0814 539.6707 223.0814 532.7547 238.9284"></polygon>
            <polygon fill="#959595" points="314.6909 256.7541 305.6239 251.5191 305.6239 256.0041 242.1549 256.0041 242.1549 257.5041 305.6239 257.5041 305.6239 261.9891"></polygon>
            <polygon fill="#959595" points="144.6733 256.7541 135.6073 251.5191 135.6073 256.0041 72.1383 256.0041 72.1383 257.5041 135.6073 257.5041 135.6073 261.9891"></polygon>
            <polygon fill="#959595" points="481.6909 256.7541 472.6239 251.5191 472.6239 256.0041 409.1549 256.0041 409.1549 257.5041 472.6239 257.5041 472.6239 261.9891"></polygon>
            <polygon fill="#959595" points="456.6909 96.7541 447.6239 91.5191 447.6239 96.0041 361.4049 96.0041 361.4049 175.5811 362.9049 175.5811 362.9049 97.5041 447.6239 97.5041 447.6239 101.9891"></polygon>
            <polygon fill="#959595" points="457.6909 417.7541 448.6239 412.5191 448.6239 417.0041 362.9049 417.0041 362.9049 319.5811 361.4049 319.5811 361.4049 418.5041 448.6239 418.5041 448.6239 422.9891"></polygon>
            <polygon fill="#F3F3F3" points="459.983 155.861 781.712 155.861 781.712 15.082 459.983 15.082"></polygon>
            <polygon fill="#F3F3F3" points="459.983 475.869 610.324 475.869 610.324 337.395 459.983 337.395"></polygon>
            <polygon fill="#959595" points="543.6587 146.5529 538.4237 137.4869 533.1867 146.5529 537.6727 146.5529 537.6727 209.0219 539.1727 209.0219 539.1727 146.5529"></polygon>
            <polygon fill="#959595" points="539.1724 325.9552 539.1724 297.4862 537.6724 297.4862 537.6724 325.9552 533.1874 325.9552 538.4234 335.0212 543.6584 325.9552"></polygon>
            <polygon fill="#75757A" points="192.165 230.196 192.506 230.196 192.506 229.196 192.165 229.196"></polygon>
            <polygon fill="#75757A" points="192.165 216.159 192.506 216.159 192.506 215.159 192.165 215.159"></polygon>
            <path d="M189.4468,248.0129 C199.4478,248.0129 207.6108,239.8729 207.6108,229.9009 C207.6108,219.9279 199.4418,211.7939 189.4468,211.7939 C179.4468,211.7939 171.2838,219.9339 171.2838,229.9009 C171.2838,239.8669 179.4468,248.0129 189.4468,248.0129" fill="#0078D4"></path>
            <polygon fill="#FFFFFF" points="189.306 248.015 189.646 248.015 189.646 211.86 189.306 211.86"></polygon>
            <path d="M189.4468,221.3576 C179.5168,221.3576 171.4898,225.2216 171.4898,229.9006 C171.4898,234.5796 179.5168,238.4446 189.4468,238.4446 C199.3778,238.4446 207.4048,234.5796 207.4048,229.9006 C207.3988,225.2216 199.3778,221.3576 189.4468,221.3576 M189.4468,238.8546 C179.3758,238.8546 171.1488,234.8556 171.1488,229.9716 C171.1488,225.0876 179.3758,221.0876 189.4468,221.0876 C199.5188,221.0876 207.7458,225.0876 207.7458,229.9716 C207.7388,234.8556 199.5118,238.8546 189.4468,238.8546" fill="#FFFFFF"></path>
            <path d="M189.4468,211.9933 C184.6838,211.9933 180.8798,219.9993 180.8798,229.9003 C180.8798,239.8033 184.7548,247.8083 189.4468,247.8083 C194.1378,247.8083 198.0138,239.8033 198.0138,229.9003 C198.0138,219.9993 194.2028,211.9933 189.4468,211.9933 M189.4468,248.2193 C184.5498,248.2193 180.5388,240.0143 180.5388,229.9723 C180.5388,219.9283 184.5498,211.7243 189.4468,211.7243 C194.3438,211.7243 198.3548,219.9343 198.3548,229.9723 C198.3548,240.0083 194.3438,248.2193 189.4468,248.2193" fill="#FFFFFF"></path>
            <polygon fill="#FFFFFF" points="207.603 229.7668 171.354 229.7668 171.354 230.1068 207.61 230.1068 207.61 229.7668"></polygon>
            <path d="M189.4468,240.2775 C190.3338,240.2775 191.0788,239.5345 191.0788,238.6495 C191.0788,237.7645 190.3338,237.0215 189.4468,237.0215 C188.5588,237.0215 187.8138,237.7645 187.8138,238.6495 C187.8138,239.5345 188.5588,240.2775 189.4468,240.2775" fill="#FFFFFF"></path>
            <path d="M180.6743,231.2599 C181.4193,231.2599 182.0363,230.6519 182.0363,229.9019 C182.0363,229.1569 181.4263,228.5419 180.6743,228.5419 C179.9283,228.5419 179.3113,229.1519 179.3113,229.9019 C179.3113,230.6519 179.9223,231.2599 180.6743,231.2599" fill="#FFFFFF"></path>
            <path d="M189.4985,231.7345 C190.5325,231.7345 191.3615,230.9075 191.3615,229.8755 C191.3615,228.8435 190.5325,228.0165 189.4985,228.0165 C188.4635,228.0165 187.6345,228.8435 187.6345,229.8755 C187.6345,230.9075 188.4635,231.7345 189.4985,231.7345" fill="#50E6FF"></path>
            <path d="M189.4985,223.0187 C190.5325,223.0187 191.3615,222.1917 191.3615,221.1597 C191.3615,220.1277 190.5325,219.3007 189.4985,219.3007 C188.4635,219.3007 187.6345,220.1277 187.6345,221.1597 C187.6345,222.1917 188.4635,223.0187 189.4985,223.0187" fill="#50E6FF"></path>
            <path d="M198.1431,231.7345 C199.1771,231.7345 200.0061,230.9075 200.0061,229.8755 C200.0061,228.8435 199.1771,228.0165 198.1431,228.0165 C197.1081,228.0165 196.2791,228.8435 196.2791,229.8755 C196.2791,230.9075 197.1081,231.7345 198.1431,231.7345" fill="#50E6FF"></path>
            <path d="M197.1333,238.547 C197.6603,238.547 198.0913,238.118 198.0913,237.592 C198.0913,237.067 197.6603,236.638 197.1333,236.638 C196.6063,236.638 196.1753,237.067 196.1753,237.592 C196.1753,238.118 196.6063,238.547 197.1333,238.547" fill="#FFFFFF"></path>
            <path d="M181.689,238.547 C182.216,238.547 182.646,238.118 182.646,237.592 C182.646,237.067 182.216,236.638 181.689,236.638 C181.162,236.638 180.731,237.067 180.731,237.592 C180.731,238.118 181.162,238.547 181.689,238.547" fill="#FFFFFF"></path>
            <path d="M197.1333,223.0812 C197.6603,223.0812 198.0913,222.6522 198.0913,222.1262 C198.0913,221.6012 197.6603,221.1722 197.1333,221.1722 C196.6063,221.1722 196.1753,221.6012 196.1753,222.1262 C196.1753,222.6582 196.6063,223.0812 197.1333,223.0812" fill="#FFFFFF"></path>
            <path d="M181.689,223.0812 C182.216,223.0812 182.646,222.6522 182.646,222.1262 C182.646,221.6012 182.216,221.1722 181.689,221.1722 C181.162,221.1722 180.731,221.6012 180.731,222.1262 C180.731,222.6582 181.162,223.0812 181.689,223.0812" fill="#FFFFFF"></path>
            <polygon fill="#36C4EA" points="186.973 246.304 211.212 246.304 211.212 229.113 186.973 229.113"></polygon>
            <path d="M203.061,247.9543 L202.397,247.9543 L195.828,247.9543 L195.485,247.9543 C196.395,251.1703 195.172,251.6323 189.815,251.6323 L189.815,253.3153 L196.628,253.3153 L201.603,253.3153 L208.032,253.3153 L208.032,251.6323 C202.675,251.6323 202.15,251.1723 203.061,247.9543" fill="#7A7A7A"></path>
            <path d="M211.188,227.5861 L208.653,229.7301 L210.679,229.7301 L210.679,245.8111 L189.631,245.8111 L187.093,247.9551 L211.17,247.9551 C212.007,247.9551 212.854,247.2141 212.854,246.3811 L212.854,229.1721 C212.854,228.3381 212.019,227.5971 211.188,227.5861" fill="#3E3E3E"></path>
            <polygon fill="#9FA0A1" points="189.815 253.316 208.032 253.316 208.032 251.631 189.815 251.631"></polygon>
            <path d="M187.104,245.8117 L187.104,229.7317 L208.653,229.7317 L211.189,227.5867 L211.182,227.5867 C211.179,227.5857 211.175,227.5857 211.171,227.5857 L186.507,227.5857 C186.147,227.5857 185.821,227.7307 185.561,227.9557 C185.217,228.2527 184.993,228.6957 184.993,229.1727 L184.993,246.3817 C184.993,247.2147 185.669,247.9567 186.507,247.9567 L187.094,247.9567 L189.631,245.8117 L187.104,245.8117 Z" fill="#707070"></path>
            <path d="M199.2124,228.7521 C199.2124,228.9701 199.0354,229.1481 198.8164,229.1481 C198.5974,229.1481 198.4214,228.9701 198.4214,228.7521 C198.4214,228.5321 198.5974,228.3561 198.8164,228.3561 C199.0354,228.3561 199.2124,228.5321 199.2124,228.7521" fill="#B7D332"></path>
            <polygon fill="#525252" points="320.0327 275.0392 317.2027 275.0392 317.2027 283.8032 316.0537 283.8032 316.0537 275.0392 313.2297 275.0392 313.2297 274.0002 320.0327 274.0002"></polygon>
            <path d="M323.853,277.9377 C323.658,277.7877 323.374,277.7107 323.005,277.7107 C322.527,277.7107 322.127,277.9377 321.806,278.3887 C321.485,278.8397 321.324,279.4557 321.324,280.2347 L321.324,283.8027 L320.203,283.8027 L320.203,276.8027 L321.324,276.8027 L321.324,278.2447 L321.351,278.2447 C321.511,277.7517 321.755,277.3697 322.083,277.0927 C322.412,276.8167 322.778,276.6797 323.183,276.6797 C323.475,276.6797 323.699,276.7107 323.853,276.7757 L323.853,277.9377 Z" fill="#525252"></path>
            <path d="M328.9604,280.2619 L327.2714,280.4939 C326.7514,280.5669 326.3594,280.6959 326.0954,280.8799 C325.8314,281.0649 325.6984,281.3919 325.6984,281.8619 C325.6984,282.2029 325.8204,282.4829 326.0644,282.6989 C326.3084,282.9139 326.6334,283.0239 327.0384,283.0239 C327.5954,283.0239 328.0544,282.8279 328.4164,282.4389 C328.7784,282.0489 328.9604,281.5559 328.9604,280.9589 L328.9604,280.2619 Z M330.0814,283.8029 L328.9604,283.8029 L328.9604,282.7089 L328.9334,282.7089 C328.4444,283.5469 327.7274,283.9669 326.7784,283.9669 C326.0814,283.9669 325.5364,283.7819 325.1424,283.4119 C324.7474,283.0429 324.5504,282.5539 324.5504,281.9439 C324.5504,280.6349 325.3204,279.8739 326.8604,279.6599 L328.9604,279.3659 C328.9604,278.1759 328.4794,277.5819 327.5174,277.5819 C326.6744,277.5819 325.9134,277.8689 325.2334,278.4439 L325.2334,277.2949 C325.9224,276.8579 326.7154,276.6389 327.6124,276.6389 C329.2584,276.6389 330.0814,277.5089 330.0814,279.2499 L330.0814,283.8029 Z" fill="#525252"></path>
            <path d="M335.6519,274.424 C335.4329,274.301 335.1849,274.238 334.9079,274.238 C334.1239,274.238 333.7319,274.734 333.7319,275.723 L333.7319,276.803 L335.3729,276.803 L335.3729,277.76 L333.7319,277.76 L333.7319,283.803 L332.6169,283.803 L332.6169,277.76 L331.4219,277.76 L331.4219,276.803 L332.6169,276.803 L332.6169,275.668 C332.6169,274.934 332.8299,274.354 333.2539,273.928 C333.6769,273.502 334.2059,273.289 334.8399,273.289 C335.1809,273.289 335.4519,273.33 335.6519,273.412 L335.6519,274.424 Z" fill="#525252"></path>
            <path d="M340.0347,274.424 C339.8157,274.301 339.5667,274.238 339.2887,274.238 C338.5057,274.238 338.1127,274.734 338.1127,275.723 L338.1127,276.803 L339.7537,276.803 L339.7537,277.76 L338.1127,277.76 L338.1127,283.803 L336.9997,283.803 L336.9997,277.76 L335.8027,277.76 L335.8027,276.803 L336.9997,276.803 L336.9997,275.668 C336.9997,274.934 337.2107,274.354 337.6347,273.928 C338.0577,273.502 338.5877,273.289 339.2207,273.289 C339.5617,273.289 339.8337,273.33 340.0347,273.412 L340.0347,274.424 Z" fill="#525252"></path>
            <path d="M340.957,283.803 L342.078,283.803 L342.078,276.803 L340.957,276.803 L340.957,283.803 Z M341.531,275.026 C341.331,275.026 341.16,274.957 341.019,274.82 C340.877,274.684 340.806,274.51 340.806,274.301 C340.806,274.091 340.877,273.916 341.019,273.778 C341.16,273.639 341.331,273.569 341.531,273.569 C341.736,273.569 341.911,273.639 342.054,273.778 C342.198,273.916 342.269,274.091 342.269,274.301 C342.269,274.501 342.198,274.672 342.054,274.813 C341.911,274.954 341.736,275.026 341.531,275.026 Z" fill="#525252"></path>
            <path d="M349.1187,283.4806 C348.5817,283.8046 347.9427,283.9666 347.2047,283.9666 C346.2067,283.9666 345.4017,283.6416 344.7887,282.9926 C344.1757,282.3426 343.8687,281.5016 343.8687,280.4666 C343.8687,279.3136 344.1997,278.3866 344.8607,277.6876 C345.5207,276.9886 346.4027,276.6386 347.5057,276.6386 C348.1207,276.6386 348.6637,276.7516 349.1327,276.9806 L349.1327,278.1286 C348.6127,277.7636 348.0567,277.5826 347.4647,277.5826 C346.7497,277.5826 346.1627,277.8376 345.7047,278.3506 C345.2467,278.8636 345.0167,279.5376 345.0167,280.3716 C345.0167,281.1916 345.2327,281.8376 345.6637,282.3126 C346.0947,282.7866 346.6717,283.0236 347.3957,283.0236 C348.0077,283.0236 348.5817,282.8206 349.1187,282.4146 L349.1187,283.4806 Z" fill="#525252"></path>
            <path d="M364.5894,283.8029 L363.4684,283.8029 L363.4684,279.7829 C363.4684,279.0079 363.3484,278.4479 363.1094,278.1019 C362.8694,277.7549 362.4674,277.5819 361.9014,277.5819 C361.4234,277.5819 361.0174,277.8009 360.6824,278.2389 C360.3474,278.6759 360.1794,279.1989 360.1794,279.8109 L360.1794,283.8029 L359.0584,283.8029 L359.0584,279.6469 C359.0584,278.2699 358.5274,277.5819 357.4664,277.5819 C356.9744,277.5819 356.5684,277.7869 356.2494,278.1999 C355.9304,278.6139 355.7714,279.1499 355.7714,279.8109 L355.7714,283.8029 L354.6504,283.8029 L354.6504,276.8029 L355.7714,276.8029 L355.7714,277.9099 L355.7984,277.9099 C356.2944,277.0629 357.0194,276.6389 357.9724,276.6389 C358.4504,276.6389 358.8664,276.7719 359.2224,277.0379 C359.5774,277.3049 359.8214,277.6549 359.9544,278.0879 C360.4744,277.1209 361.2484,276.6389 362.2784,276.6389 C363.8184,276.6389 364.5894,277.5879 364.5894,279.4889 L364.5894,283.8029 Z" fill="#525252"></path>
            <path d="M370.5972,280.2619 L368.9102,280.4939 C368.3902,280.5669 367.9972,280.6959 367.7342,280.8799 C367.4692,281.0649 367.3372,281.3919 367.3372,281.8619 C367.3372,282.2029 367.4582,282.4829 367.7022,282.6989 C367.9472,282.9139 368.2712,283.0239 368.6772,283.0239 C369.2332,283.0239 369.6922,282.8279 370.0542,282.4389 C370.4162,282.0489 370.5972,281.5559 370.5972,280.9589 L370.5972,280.2619 Z M371.7182,283.8029 L370.5972,283.8029 L370.5972,282.7089 L370.5702,282.7089 C370.0822,283.5469 369.3652,283.9669 368.4172,283.9669 C367.7202,283.9669 367.1732,283.7819 366.7802,283.4119 C366.3852,283.0429 366.1892,282.5539 366.1892,281.9439 C366.1892,280.6349 366.9582,279.8739 368.4992,279.6599 L370.5972,279.3659 C370.5972,278.1759 370.1172,277.5819 369.1562,277.5819 C368.3122,277.5819 367.5512,277.8689 366.8722,278.4439 L366.8722,277.2949 C367.5602,276.8579 368.3532,276.6389 369.2512,276.6389 C370.8962,276.6389 371.7182,277.5089 371.7182,279.2499 L371.7182,283.8029 Z" fill="#525252"></path>
            <path d="M379.6421,283.8029 L378.5211,283.8029 L378.5211,279.8109 C378.5211,278.3239 377.9781,277.5819 376.8941,277.5819 C376.3331,277.5819 375.8691,277.7929 375.5021,278.2139 C375.1351,278.6349 374.9531,279.1679 374.9531,279.8109 L374.9531,283.8029 L373.8311,283.8029 L373.8311,276.8029 L374.9531,276.8029 L374.9531,277.9649 L374.9801,277.9649 C375.5081,277.0799 376.2741,276.6389 377.2771,276.6389 C378.0421,276.6389 378.6271,276.8849 379.0331,277.3799 C379.4391,277.8749 379.6421,278.5889 379.6421,279.5239 L379.6421,283.8029 Z" fill="#525252"></path>
            <path d="M385.644,280.2619 L383.955,280.4939 C383.435,280.5669 383.043,280.6959 382.779,280.8799 C382.515,281.0649 382.382,281.3919 382.382,281.8619 C382.382,282.2029 382.504,282.4829 382.748,282.6989 C382.992,282.9139 383.317,283.0239 383.722,283.0239 C384.279,283.0239 384.738,282.8279 385.1,282.4389 C385.462,282.0489 385.644,281.5559 385.644,280.9589 L385.644,280.2619 Z M386.765,283.8029 L385.644,283.8029 L385.644,282.7089 L385.617,282.7089 C385.128,283.5469 384.411,283.9669 383.462,283.9669 C382.765,283.9669 382.22,283.7819 381.826,283.4119 C381.431,283.0429 381.234,282.5539 381.234,281.9439 C381.234,280.6349 382.004,279.8739 383.544,279.6599 L385.644,279.3659 C385.644,278.1759 385.163,277.5819 384.201,277.5819 C383.358,277.5819 382.597,277.8689 381.917,278.4439 L381.917,277.2949 C382.606,276.8579 383.399,276.6389 384.296,276.6389 C385.942,276.6389 386.765,277.5089 386.765,279.2499 L386.765,283.8029 Z" fill="#525252"></path>
            <path d="M393.73,280.6369 L393.73,279.6059 C393.73,279.0489 393.543,278.5729 393.167,278.1759 C392.791,277.7799 392.322,277.5819 391.761,277.5819 C391.069,277.5819 390.527,277.8339 390.134,278.3369 C389.743,278.8399 389.546,279.5459 389.546,280.4529 C389.546,281.2329 389.735,281.8559 390.111,282.3229 C390.487,282.7889 390.985,283.0239 391.605,283.0239 C392.234,283.0239 392.745,282.7999 393.139,282.3539 C393.533,281.9069 393.73,281.3339 393.73,280.6369 Z M394.851,283.2419 C394.851,285.8129 393.621,287.0979 391.16,287.0979 C390.294,287.0979 389.538,286.9339 388.89,286.6059 L388.89,285.4849 C389.679,285.9219 390.431,286.1409 391.146,286.1409 C392.869,286.1409 393.73,285.2249 393.73,283.3929 L393.73,282.6269 L393.703,282.6269 C393.169,283.5199 392.368,283.9669 391.296,283.9669 C390.426,283.9669 389.726,283.6559 389.195,283.0329 C388.664,282.4109 388.398,281.5759 388.398,280.5279 C388.398,279.3379 388.684,278.3929 389.256,277.6919 C389.828,276.9899 390.611,276.6389 391.605,276.6389 C392.548,276.6389 393.248,277.0169 393.703,277.7739 L393.73,277.7739 L393.73,276.8029 L394.851,276.8029 L394.851,283.2419 Z" fill="#525252"></path>
            <path d="M401.5991,279.633 C401.5941,278.986 401.4381,278.482 401.1301,278.121 C400.8231,277.762 400.3961,277.582 399.8491,277.582 C399.3201,277.582 398.8701,277.771 398.5011,278.149 C398.1321,278.528 397.9051,279.022 397.8181,279.633 L401.5991,279.633 Z M402.7471,280.582 L397.8041,280.582 C397.8231,281.362 398.0331,281.963 398.4331,282.387 C398.8341,282.811 399.3861,283.024 400.0871,283.024 C400.8761,283.024 401.6011,282.764 402.2611,282.244 L402.2611,283.297 C401.6461,283.743 400.8331,283.967 399.8221,283.967 C398.8321,283.967 398.0551,283.649 397.4901,283.013 C396.9251,282.377 396.6421,281.483 396.6421,280.33 C396.6421,279.24 396.9511,278.354 397.5691,277.667 C398.1861,276.981 398.9531,276.639 399.8691,276.639 C400.7851,276.639 401.4941,276.935 401.9951,277.528 C402.4961,278.119 402.7471,278.942 402.7471,279.994 L402.7471,280.582 Z" fill="#525252"></path>
            <path d="M408.0933,277.9377 C407.8973,277.7877 407.6143,277.7107 407.2453,277.7107 C406.7673,277.7107 406.3663,277.9377 406.0453,278.3887 C405.7243,278.8397 405.5643,279.4557 405.5643,280.2347 L405.5643,283.8027 L404.4433,283.8027 L404.4433,276.8027 L405.5643,276.8027 L405.5643,278.2447 L405.5913,278.2447 C405.7503,277.7517 405.9933,277.3697 406.3223,277.0927 C406.6503,276.8167 407.0173,276.6797 407.4233,276.6797 C407.7143,276.6797 407.9383,276.7107 408.0933,276.7757 L408.0933,277.9377 Z" fill="#525252"></path>
            <path d="M176.1538,274.0002 L173.3858,283.8032 L172.0388,283.8032 L170.0228,276.6392 C169.9358,276.3332 169.8828,276.0002 169.8648,275.6412 L169.8378,275.6412 C169.8098,275.9782 169.7518,276.3062 169.6598,276.6252 L167.6308,283.8032 L166.2968,283.8032 L163.4248,274.0002 L164.6908,274.0002 L166.7748,281.5202 C166.8618,281.8342 166.9168,282.1622 166.9388,282.5042 L166.9738,282.5042 C166.9968,282.2622 167.0668,281.9342 167.1848,281.5202 L169.3528,274.0002 L170.4528,274.0002 L172.5308,281.5742 C172.6038,281.8342 172.6588,282.1392 172.6948,282.4902 L172.7218,282.4902 C172.7408,282.2532 172.8018,281.9382 172.9078,281.5472 L174.9098,274.0002 L176.1538,274.0002 Z" fill="#525252"></path>
            <path d="M181.603,279.633 C181.598,278.986 181.442,278.482 181.134,278.121 C180.827,277.762 180.4,277.582 179.853,277.582 C179.324,277.582 178.874,277.771 178.505,278.149 C178.136,278.528 177.909,279.022 177.822,279.633 L181.603,279.633 Z M182.751,280.582 L177.808,280.582 C177.827,281.362 178.037,281.963 178.437,282.387 C178.838,282.811 179.39,283.024 180.091,283.024 C180.88,283.024 181.605,282.764 182.265,282.244 L182.265,283.297 C181.65,283.743 180.837,283.967 179.826,283.967 C178.836,283.967 178.059,283.649 177.494,283.013 C176.929,282.377 176.646,281.483 176.646,280.33 C176.646,279.24 176.955,278.354 177.573,277.667 C178.19,276.981 178.957,276.639 179.873,276.639 C180.789,276.639 181.498,276.935 181.999,277.528 C182.5,278.119 182.751,278.942 182.751,279.994 L182.751,280.582 Z" fill="#525252"></path>
            <path d="M185.5679,279.967 L185.5679,280.946 C185.5679,281.524 185.7549,282.015 186.1309,282.418 C186.5069,282.821 186.9849,283.024 187.5639,283.024 C188.2429,283.024 188.7749,282.764 189.1599,282.244 C189.5449,281.725 189.7379,281.002 189.7379,280.076 C189.7379,279.297 189.5569,278.687 189.1969,278.244 C188.8379,277.803 188.3489,277.582 187.7339,277.582 C187.0829,277.582 186.5579,277.809 186.1619,278.262 C185.7649,278.715 185.5679,279.283 185.5679,279.967 M185.5949,282.791 L185.5679,282.791 L185.5679,283.803 L184.4469,283.803 L184.4469,273.44 L185.5679,273.44 L185.5679,278.033 L185.5949,278.033 C186.1459,277.104 186.9529,276.639 188.0149,276.639 C188.9129,276.639 189.6149,276.951 190.1239,277.578 C190.6309,278.205 190.8859,279.045 190.8859,280.098 C190.8859,281.269 190.6009,282.206 190.0309,282.91 C189.4619,283.614 188.6819,283.967 187.6929,283.967 C186.7679,283.967 186.0689,283.574 185.5949,282.791" fill="#525252"></path>
            <path d="M201.564,280.0216 L200.025,275.8456 C199.975,275.7096 199.925,275.4906 199.875,275.1896 L199.847,275.1896 C199.802,275.4666 199.75,275.6856 199.691,275.8456 L198.166,280.0216 L201.564,280.0216 Z M204.25,283.8026 L202.978,283.8026 L201.939,281.0546 L197.783,281.0546 L196.806,283.8026 L195.527,283.8026 L199.287,274.0006 L200.476,274.0006 L204.25,283.8026 Z" fill="#525252"></path>
            <path d="M206.6636,279.967 L206.6636,280.946 C206.6636,281.524 206.8506,282.015 207.2266,282.418 C207.6026,282.821 208.0806,283.024 208.6596,283.024 C209.3386,283.024 209.8706,282.764 210.2556,282.244 C210.6406,281.725 210.8336,281.002 210.8336,280.076 C210.8336,279.297 210.6526,278.687 210.2926,278.244 C209.9336,277.803 209.4446,277.582 208.8296,277.582 C208.1786,277.582 207.6536,277.809 207.2576,278.262 C206.8606,278.715 206.6636,279.283 206.6636,279.967 M206.6906,282.791 L206.6636,282.791 L206.6636,287.022 L205.5426,287.022 L205.5426,276.803 L206.6636,276.803 L206.6636,278.033 L206.6906,278.033 C207.2416,277.104 208.0486,276.639 209.1106,276.639 C210.0136,276.639 210.7166,276.951 211.2226,277.578 C211.7276,278.205 211.9816,279.045 211.9816,280.098 C211.9816,281.269 211.6966,282.206 211.1266,282.91 C210.5576,283.614 209.7776,283.967 208.7886,283.967 C207.8826,283.967 207.1836,283.574 206.6906,282.791" fill="#525252"></path>
            <path d="M214.894,279.967 L214.894,280.946 C214.894,281.524 215.081,282.015 215.457,282.418 C215.833,282.821 216.311,283.024 216.89,283.024 C217.569,283.024 218.101,282.764 218.486,282.244 C218.871,281.725 219.064,281.002 219.064,280.076 C219.064,279.297 218.883,278.687 218.523,278.244 C218.164,277.803 217.675,277.582 217.06,277.582 C216.409,277.582 215.884,277.809 215.488,278.262 C215.091,278.715 214.894,279.283 214.894,279.967 M214.921,282.791 L214.894,282.791 L214.894,287.022 L213.773,287.022 L213.773,276.803 L214.894,276.803 L214.894,278.033 L214.921,278.033 C215.472,277.104 216.279,276.639 217.341,276.639 C218.244,276.639 218.947,276.951 219.453,277.578 C219.958,278.205 220.212,279.045 220.212,280.098 C220.212,281.269 219.927,282.206 219.357,282.91 C218.788,283.614 218.008,283.967 217.019,283.967 C216.113,283.967 215.414,283.574 214.921,282.791" fill="#525252"></path>
            <path d="M494.7397,280.0216 L493.2027,275.8456 C493.1517,275.7096 493.1017,275.4906 493.0527,275.1896 L493.0247,275.1896 C492.9787,275.4666 492.9267,275.6856 492.8667,275.8456 L491.3437,280.0216 L494.7397,280.0216 Z M497.4277,283.8026 L496.1557,283.8026 L495.1167,281.0546 L490.9607,281.0546 L489.9817,283.8026 L488.7047,283.8026 L492.4647,274.0006 L493.6537,274.0006 L497.4277,283.8026 Z" fill="#525252"></path>
            <polygon fill="#525252" points="503.5991 277.1232 499.4561 282.8462 503.5581 282.8462 503.5581 283.8032 497.8101 283.8032 497.8101 283.4532 501.9531 277.7602 498.1991 277.7602 498.1991 276.8032 503.5991 276.8032"></polygon>
            <path d="M510.7085,283.8029 L509.5875,283.8029 L509.5875,282.6959 L509.5605,282.6959 C509.0955,283.5429 508.3755,283.9669 507.3995,283.9669 C505.7315,283.9669 504.8975,282.9729 504.8975,280.9869 L504.8975,276.8029 L506.0135,276.8029 L506.0135,280.8089 C506.0135,282.2849 506.5775,283.0239 507.7085,283.0239 C508.2555,283.0239 508.7045,282.8219 509.0585,282.4179 C509.4115,282.0149 509.5875,281.4879 509.5875,280.8359 L509.5875,276.8029 L510.7085,276.8029 L510.7085,283.8029 Z" fill="#525252"></path>
            <path d="M516.6226,277.9377 C516.4266,277.7877 516.1436,277.7107 515.7746,277.7107 C515.2966,277.7107 514.8956,277.9377 514.5746,278.3887 C514.2536,278.8397 514.0936,279.4557 514.0936,280.2347 L514.0936,283.8027 L512.9726,283.8027 L512.9726,276.8027 L514.0936,276.8027 L514.0936,278.2447 L514.1206,278.2447 C514.2796,277.7517 514.5226,277.3697 514.8516,277.0927 C515.1796,276.8167 515.5466,276.6797 515.9526,276.6797 C516.2436,276.6797 516.4676,276.7107 516.6226,276.7757 L516.6226,277.9377 Z" fill="#525252"></path>
            <path d="M522.1323,279.633 C522.1273,278.986 521.9713,278.482 521.6633,278.121 C521.3563,277.762 520.9293,277.582 520.3823,277.582 C519.8533,277.582 519.4033,277.771 519.0343,278.149 C518.6653,278.528 518.4383,279.022 518.3513,279.633 L522.1323,279.633 Z M523.2803,280.582 L518.3373,280.582 C518.3563,281.362 518.5663,281.963 518.9663,282.387 C519.3673,282.811 519.9193,283.024 520.6203,283.024 C521.4093,283.024 522.1343,282.764 522.7943,282.244 L522.7943,283.297 C522.1793,283.743 521.3663,283.967 520.3553,283.967 C519.3653,283.967 518.5883,283.649 518.0233,283.013 C517.4583,282.377 517.1753,281.483 517.1753,280.33 C517.1753,279.24 517.4843,278.354 518.1023,277.667 C518.7193,276.981 519.4863,276.639 520.4023,276.639 C521.3183,276.639 522.0273,276.935 522.5283,277.528 C523.0293,278.119 523.2803,278.942 523.2803,279.994 L523.2803,280.582 Z" fill="#525252"></path>
            <path d="M532.269,274.424 C532.05,274.301 531.802,274.238 531.525,274.238 C530.741,274.238 530.349,274.734 530.349,275.723 L530.349,276.803 L531.99,276.803 L531.99,277.76 L530.349,277.76 L530.349,283.803 L529.234,283.803 L529.234,277.76 L528.039,277.76 L528.039,276.803 L529.234,276.803 L529.234,275.668 C529.234,274.934 529.447,274.354 529.871,273.928 C530.294,273.502 530.823,273.289 531.457,273.289 C531.798,273.289 532.069,273.33 532.269,273.412 L532.269,274.424 Z" fill="#525252"></path>
            <path d="M538.853,283.8029 L537.732,283.8029 L537.732,282.6959 L537.705,282.6959 C537.24,283.5429 536.519,283.9669 535.544,283.9669 C533.876,283.9669 533.042,282.9729 533.042,280.9869 L533.042,276.8029 L534.156,276.8029 L534.156,280.8089 C534.156,282.2849 534.721,283.0239 535.851,283.0239 C536.398,283.0239 536.848,282.8219 537.202,282.4179 C537.554,282.0149 537.732,281.4879 537.732,280.8359 L537.732,276.8029 L538.853,276.8029 L538.853,283.8029 Z" fill="#525252"></path>
            <path d="M546.9253,283.8029 L545.8043,283.8029 L545.8043,279.8109 C545.8043,278.3239 545.2623,277.5819 544.1773,277.5819 C543.6163,277.5819 543.1543,277.7929 542.7863,278.2139 C542.4193,278.6349 542.2363,279.1679 542.2363,279.8109 L542.2363,283.8029 L541.1143,283.8029 L541.1143,276.8029 L542.2363,276.8029 L542.2363,277.9649 L542.2633,277.9649 C542.7923,277.0799 543.5583,276.6389 544.5603,276.6389 C545.3253,276.6389 545.9113,276.8849 546.3183,277.3799 C546.7233,277.8749 546.9253,278.5889 546.9253,279.5239 L546.9253,283.8029 Z" fill="#525252"></path>
            <path d="M553.8101,283.4806 C553.2721,283.8046 552.6341,283.9666 551.8961,283.9666 C550.8981,283.9666 550.0911,283.6416 549.4791,282.9926 C548.8661,282.3426 548.5601,281.5016 548.5601,280.4666 C548.5601,279.3136 548.8901,278.3866 549.5501,277.6876 C550.2111,276.9886 551.0931,276.6386 552.1971,276.6386 C552.8121,276.6386 553.3541,276.7516 553.8241,276.9806 L553.8241,278.1286 C553.3041,277.7636 552.7481,277.5826 552.1561,277.5826 C551.4401,277.5826 550.8531,277.8376 550.3951,278.3506 C549.9371,278.8636 549.7081,279.5376 549.7081,280.3716 C549.7081,281.1916 549.9231,281.8376 550.3541,282.3126 C550.7851,282.7866 551.3631,283.0236 552.0871,283.0236 C552.6981,283.0236 553.2721,282.8206 553.8101,282.4146 L553.8101,283.4806 Z" fill="#525252"></path>
            <path d="M558.7515,283.7345 C558.4875,283.8805 558.1395,283.9535 557.7065,283.9535 C556.4805,283.9535 555.8665,283.2695 555.8665,281.9025 L555.8665,277.7595 L554.6635,277.7595 L554.6635,276.8025 L555.8665,276.8025 L555.8665,275.0935 L556.9875,274.7305 L556.9875,276.8025 L558.7515,276.8025 L558.7515,277.7595 L556.9875,277.7595 L556.9875,281.7035 C556.9875,282.1725 557.0675,282.5075 557.2285,282.7095 C557.3875,282.9095 557.6515,283.0095 558.0215,283.0095 C558.3035,283.0095 558.5465,282.9315 558.7515,282.7775 L558.7515,283.7345 Z" fill="#525252"></path>
            <path d="M560.25,283.803 L561.371,283.803 L561.371,276.803 L560.25,276.803 L560.25,283.803 Z M560.824,275.026 C560.623,275.026 560.452,274.957 560.31,274.82 C560.169,274.684 560.099,274.51 560.099,274.301 C560.099,274.091 560.169,273.916 560.31,273.778 C560.452,273.639 560.623,273.569 560.824,273.569 C561.029,273.569 561.203,273.639 561.346,273.778 C561.49,273.916 561.562,274.091 561.562,274.301 C561.562,274.501 561.49,274.672 561.346,274.813 C561.203,274.954 561.029,275.026 560.824,275.026 Z" fill="#525252"></path>
            <path d="M566.6479,277.5822 C565.9269,277.5822 565.3579,277.8262 564.9389,278.3162 C564.5189,278.8072 564.3099,279.4822 564.3099,280.3442 C564.3099,281.1732 564.5209,281.8262 564.9449,282.3052 C565.3689,282.7832 565.9369,283.0232 566.6479,283.0232 C567.3729,283.0232 567.9289,282.7882 568.3189,282.3182 C568.7089,281.8502 568.9039,281.1822 568.9039,280.3162 C568.9039,279.4412 568.7089,278.7672 568.3189,278.2932 C567.9289,277.8182 567.3729,277.5822 566.6479,277.5822 M566.5659,283.9672 C565.5309,283.9672 564.7049,283.6392 564.0869,282.9852 C563.4699,282.3322 563.1619,281.4652 563.1619,280.3852 C563.1619,279.2092 563.4819,278.2902 564.1249,277.6292 C564.7669,276.9692 565.6359,276.6392 566.7299,276.6392 C567.7729,276.6392 568.5869,276.9592 569.1729,277.6022 C569.7589,278.2442 570.0519,279.1362 570.0519,280.2752 C570.0519,281.3922 569.7359,282.2852 569.1049,282.9582 C568.4739,283.6312 567.6269,283.9672 566.5659,283.9672" fill="#525252"></path>
            <path d="M577.6538,283.8029 L576.5328,283.8029 L576.5328,279.8109 C576.5328,278.3239 575.9898,277.5819 574.9058,277.5819 C574.3448,277.5819 573.8808,277.7929 573.5138,278.2139 C573.1468,278.6349 572.9648,279.1679 572.9648,279.8109 L572.9648,283.8029 L571.8428,283.8029 L571.8428,276.8029 L572.9648,276.8029 L572.9648,277.9649 L572.9918,277.9649 C573.5198,277.0799 574.2858,276.6389 575.2888,276.6389 C576.0538,276.6389 576.6388,276.8849 577.0448,277.3799 C577.4508,277.8749 577.6538,278.5889 577.6538,279.5239 L577.6538,283.8029 Z" fill="#525252"></path>
            <path d="M579.3413,283.549 L579.3413,282.346 C579.9523,282.797 580.6243,283.024 581.3593,283.024 C582.3433,283.024 582.8353,282.695 582.8353,282.039 C582.8353,281.852 582.7923,281.694 582.7083,281.564 C582.6243,281.434 582.5103,281.319 582.3663,281.219 C582.2233,281.118 582.0543,281.028 581.8613,280.948 C581.6673,280.869 581.4583,280.785 581.2363,280.699 C580.9253,280.576 580.6533,280.451 580.4183,280.326 C580.1833,280.201 579.9873,280.06 579.8303,279.903 C579.6733,279.745 579.5543,279.567 579.4753,279.365 C579.3953,279.165 579.3553,278.931 579.3553,278.662 C579.3553,278.334 579.4313,278.043 579.5813,277.79 C579.7323,277.537 579.9323,277.325 580.1833,277.154 C580.4333,276.984 580.7193,276.855 581.0403,276.768 C581.3623,276.682 581.6933,276.639 582.0343,276.639 C582.6413,276.639 583.1833,276.743 583.6613,276.953 L583.6613,278.088 C583.1473,277.75 582.5543,277.582 581.8843,277.582 C581.6753,277.582 581.4863,277.606 581.3183,277.653 C581.1493,277.701 581.0033,277.769 580.8833,277.856 C580.7623,277.942 580.6693,278.045 580.6033,278.166 C580.5363,278.287 580.5033,278.42 580.5033,278.567 C580.5033,278.748 580.5363,278.901 580.6033,279.024 C580.6693,279.147 580.7663,279.256 580.8943,279.352 C581.0213,279.447 581.1763,279.534 581.3593,279.611 C581.5403,279.69 581.7473,279.774 581.9803,279.865 C582.2903,279.984 582.5683,280.106 582.8143,280.231 C583.0603,280.356 583.2703,280.497 583.4433,280.654 C583.6163,280.812 583.7493,280.992 583.8433,281.197 C583.9373,281.403 583.9843,281.647 583.9843,281.93 C583.9843,282.276 583.9063,282.576 583.7543,282.832 C583.6013,283.087 583.3983,283.299 583.1423,283.467 C582.8873,283.636 582.5933,283.762 582.2613,283.844 C581.9283,283.926 581.5793,283.967 581.2143,283.967 C580.4943,283.967 579.8703,283.827 579.3413,283.549" fill="#525252"></path>
            <path d="M518.7397,434.0802 L515.9707,443.8832 L514.6247,443.8832 L512.6077,436.7192 C512.5207,436.4142 512.4687,436.0822 512.4507,435.7212 L512.4237,435.7212 C512.3957,436.0592 512.3367,436.3872 512.2457,436.7052 L510.2157,443.8832 L508.8827,443.8832 L506.0107,434.0802 L507.2757,434.0802 L509.3607,441.6002 C509.4477,441.9142 509.5027,442.2422 509.5247,442.5842 L509.5587,442.5842 C509.5817,442.3442 509.6527,442.0162 509.7707,441.6002 L511.9377,434.0802 L513.0387,434.0802 L515.1167,441.6542 C515.1897,441.9142 515.2447,442.2212 515.2807,442.5702 L515.3077,442.5702 C515.3267,442.3342 515.3877,442.0192 515.4927,441.6272 L517.4957,434.0802 L518.7397,434.0802 Z" fill="#525252"></path>
            <path d="M524.188,439.7131 C524.183,439.0671 524.027,438.5631 523.72,438.2031 C523.412,437.8421 522.985,437.6621 522.438,437.6621 C521.91,437.6621 521.46,437.8521 521.091,438.2311 C520.722,438.6081 520.495,439.1041 520.408,439.7131 L524.188,439.7131 Z M525.336,440.6641 L520.394,440.6641 C520.413,441.4431 520.622,442.0451 521.023,442.4691 C521.424,442.8931 521.975,443.1041 522.677,443.1041 C523.465,443.1041 524.19,442.8441 524.851,442.3241 L524.851,443.3771 C524.236,443.8241 523.422,444.0471 522.411,444.0471 C521.421,444.0471 520.645,443.7291 520.08,443.0941 C519.514,442.4571 519.232,441.5651 519.232,440.4101 C519.232,439.3221 519.541,438.4341 520.158,437.7481 C520.776,437.0631 521.542,436.7191 522.459,436.7191 C523.375,436.7191 524.084,437.0161 524.584,437.6081 C525.085,438.2011 525.336,439.0241 525.336,440.0761 L525.336,440.6641 Z" fill="#525252"></path>
            <path d="M528.1528,440.049 L528.1528,441.026 C528.1528,441.606 528.3398,442.096 528.7168,442.498 C529.0918,442.903 529.5698,443.104 530.1488,443.104 C530.8278,443.104 531.3598,442.844 531.7448,442.324 C532.1308,441.805 532.3228,441.082 532.3228,440.158 C532.3228,439.379 532.1428,438.768 531.7828,438.326 C531.4228,437.883 530.9348,437.662 530.3198,437.662 C529.6688,437.662 529.1438,437.889 528.7478,438.342 C528.3508,438.797 528.1528,439.365 528.1528,440.049 M528.1798,442.871 L528.1528,442.871 L528.1528,443.883 L527.0318,443.883 L527.0318,433.52 L528.1528,433.52 L528.1528,438.113 L528.1798,438.113 C528.7318,437.184 529.5388,436.719 530.5998,436.719 C531.4978,436.719 532.2008,437.033 532.7098,437.658 C533.2168,438.285 533.4708,439.125 533.4708,440.178 C533.4708,441.35 533.1858,442.287 532.6168,442.99 C532.0478,443.695 531.2678,444.047 530.2788,444.047 C529.3538,444.047 528.6538,443.656 528.1798,442.871" fill="#525252"></path>
            <path d="M542.9868,440.342 L541.2988,440.574 C540.7788,440.649 540.3868,440.776 540.1228,440.961 C539.8578,441.145 539.7258,441.473 539.7258,441.942 C539.7258,442.283 539.8478,442.563 540.0908,442.78 C540.3358,442.996 540.6608,443.104 541.0658,443.104 C541.6218,443.104 542.0818,442.908 542.4428,442.52 C542.8058,442.129 542.9868,441.637 542.9868,441.039 L542.9868,440.342 Z M544.1078,443.883 L542.9868,443.883 L542.9868,442.789 L542.9598,442.789 C542.4718,443.629 541.7548,444.047 540.8058,444.047 C540.1088,444.047 539.5628,443.863 539.1698,443.494 C538.7748,443.125 538.5778,442.635 538.5778,442.024 C538.5778,440.717 539.3478,439.955 540.8878,439.74 L542.9868,439.447 C542.9868,438.258 542.5068,437.662 541.5448,437.662 C540.7018,437.662 539.9398,437.949 539.2608,438.524 L539.2608,437.375 C539.9498,436.938 540.7428,436.719 541.6398,436.719 C543.2858,436.719 544.1078,437.59 544.1078,439.33 L544.1078,443.883 Z" fill="#525252"></path>
            <path d="M547.3413,440.049 L547.3413,441.026 C547.3413,441.606 547.5283,442.096 547.9053,442.498 C548.2803,442.903 548.7583,443.104 549.3373,443.104 C550.0163,443.104 550.5483,442.844 550.9333,442.324 C551.3193,441.805 551.5113,441.082 551.5113,440.158 C551.5113,439.379 551.3313,438.768 550.9713,438.326 C550.6113,437.883 550.1233,437.662 549.5083,437.662 C548.8573,437.662 548.3323,437.889 547.9363,438.342 C547.5393,438.797 547.3413,439.365 547.3413,440.049 M547.3683,442.871 L547.3413,442.871 L547.3413,447.104 L546.2203,447.104 L546.2203,436.883 L547.3413,436.883 L547.3413,438.113 L547.3683,438.113 C547.9203,437.184 548.7273,436.719 549.7883,436.719 C550.6913,436.719 551.3953,437.033 551.9013,437.658 C552.4063,438.285 552.6593,439.125 552.6593,440.178 C552.6593,441.35 552.3743,442.287 551.8053,442.99 C551.2363,443.695 550.4563,444.047 549.4673,444.047 C548.5603,444.047 547.8613,443.656 547.3683,442.871" fill="#525252"></path>
            <path d="M555.5718,440.049 L555.5718,441.026 C555.5718,441.606 555.7588,442.096 556.1358,442.498 C556.5108,442.903 556.9888,443.104 557.5678,443.104 C558.2468,443.104 558.7788,442.844 559.1638,442.324 C559.5498,441.805 559.7418,441.082 559.7418,440.158 C559.7418,439.379 559.5618,438.768 559.2018,438.326 C558.8418,437.883 558.3538,437.662 557.7388,437.662 C557.0878,437.662 556.5628,437.889 556.1668,438.342 C555.7698,438.797 555.5718,439.365 555.5718,440.049 M555.5988,442.871 L555.5718,442.871 L555.5718,447.104 L554.4508,447.104 L554.4508,436.883 L555.5718,436.883 L555.5718,438.113 L555.5988,438.113 C556.1508,437.184 556.9578,436.719 558.0188,436.719 C558.9218,436.719 559.6258,437.033 560.1318,437.658 C560.6368,438.285 560.8898,439.125 560.8898,440.178 C560.8898,441.35 560.6048,442.287 560.0358,442.99 C559.4668,443.695 558.6868,444.047 557.6978,444.047 C556.7908,444.047 556.0918,443.656 555.5988,442.871" fill="#525252"></path>
            <path d="M562.2573,443.631 L562.2573,442.428 C562.8673,442.879 563.5403,443.104 564.2743,443.104 C565.2583,443.104 565.7503,442.776 565.7503,442.119 C565.7503,441.934 565.7083,441.774 565.6243,441.645 C565.5393,441.514 565.4253,441.401 565.2823,441.299 C565.1383,441.199 564.9703,441.11 564.7773,441.029 C564.5823,440.949 564.3743,440.867 564.1513,440.779 C563.8413,440.656 563.5693,440.533 563.3333,440.406 C563.0993,440.281 562.9033,440.141 562.7453,439.983 C562.5893,439.826 562.4703,439.647 562.3903,439.447 C562.3113,439.246 562.2713,439.012 562.2713,438.742 C562.2713,438.414 562.3463,438.123 562.4963,437.871 C562.6473,437.617 562.8473,437.406 563.0983,437.235 C563.3493,437.065 563.6343,436.936 563.9563,436.85 C564.2773,436.762 564.6093,436.719 564.9503,436.719 C565.5573,436.719 566.0993,436.824 566.5773,437.033 L566.5773,438.168 C566.0633,437.832 565.4703,437.662 564.8003,437.662 C564.5903,437.662 564.4023,437.686 564.2333,437.735 C564.0643,437.781 563.9193,437.85 563.7983,437.936 C563.6783,438.024 563.5843,438.127 563.5193,438.246 C563.4523,438.367 563.4193,438.502 563.4193,438.647 C563.4193,438.83 563.4523,438.983 563.5193,439.106 C563.5843,439.229 563.6813,439.338 563.8093,439.434 C563.9373,439.529 564.0913,439.615 564.2743,439.693 C564.4563,439.77 564.6633,439.856 564.8963,439.945 C565.2053,440.065 565.4843,440.186 565.7303,440.311 C565.9763,440.438 566.1863,440.578 566.3593,440.735 C566.5313,440.893 566.6653,441.074 566.7593,441.279 C566.8523,441.485 566.8993,441.729 566.8993,442.01 C566.8993,442.358 566.8223,442.658 566.6693,442.912 C566.5173,443.168 566.3133,443.379 566.0583,443.549 C565.8033,443.717 565.5093,443.842 565.1763,443.924 C564.8433,444.006 564.4943,444.047 564.1303,444.047 C563.4103,444.047 562.7853,443.908 562.2573,443.631" fill="#525252"></path>
            <path d="M519.7397,114.215 L516.9707,124.018 L515.6247,124.018 L513.6077,116.854 C513.5207,116.547 513.4687,116.215 513.4507,115.856 L513.4237,115.856 C513.3957,116.192 513.3367,116.52 513.2457,116.84 L511.2157,124.018 L509.8827,124.018 L507.0107,114.215 L508.2757,114.215 L510.3607,121.735 C510.4477,122.049 510.5027,122.377 510.5247,122.719 L510.5587,122.719 C510.5817,122.477 510.6527,122.149 510.7707,121.735 L512.9377,114.215 L514.0387,114.215 L516.1167,121.789 C516.1897,122.049 516.2447,122.354 516.2807,122.705 L516.3077,122.705 C516.3267,122.467 516.3877,122.152 516.4927,121.762 L518.4957,114.215 L519.7397,114.215 Z" fill="#525252"></path>
            <path d="M525.188,119.8478 C525.183,119.1998 525.027,118.6978 524.72,118.3358 C524.412,117.9768 523.985,117.7968 523.438,117.7968 C522.91,117.7968 522.46,117.9868 522.091,118.3638 C521.722,118.7428 521.495,119.2368 521.408,119.8478 L525.188,119.8478 Z M526.336,120.7968 L521.394,120.7968 C521.413,121.5768 521.622,122.1778 522.023,122.6018 C522.424,123.0258 522.975,123.2388 523.677,123.2388 C524.465,123.2388 525.19,122.9788 525.851,122.4588 L525.851,123.5118 C525.236,123.9568 524.422,124.1818 523.411,124.1818 C522.421,124.1818 521.645,123.8638 521.08,123.2288 C520.514,122.5918 520.232,121.6978 520.232,120.5448 C520.232,119.4548 520.541,118.5688 521.158,117.8828 C521.776,117.1958 522.542,116.8538 523.459,116.8538 C524.375,116.8538 525.084,117.1488 525.584,117.7428 C526.085,118.3338 526.336,119.1568 526.336,120.2088 L526.336,120.7968 Z" fill="#525252"></path>
            <path d="M529.1528,120.1818 L529.1528,121.1608 C529.1528,121.7388 529.3398,122.2308 529.7168,122.6328 C530.0918,123.0368 530.5698,123.2388 531.1488,123.2388 C531.8278,123.2388 532.3598,122.9788 532.7448,122.4588 C533.1308,121.9398 533.3228,121.2168 533.3228,120.2908 C533.3228,119.5118 533.1428,118.9028 532.7828,118.4588 C532.4228,118.0178 531.9348,117.7968 531.3198,117.7968 C530.6688,117.7968 530.1438,118.0238 529.7478,118.4768 C529.3508,118.9298 529.1528,119.4978 529.1528,120.1818 M529.1798,123.0058 L529.1528,123.0058 L529.1528,124.0178 L528.0318,124.0178 L528.0318,113.6548 L529.1528,113.6548 L529.1528,118.2478 L529.1798,118.2478 C529.7318,117.3188 530.5388,116.8538 531.5998,116.8538 C532.4978,116.8538 533.2008,117.1658 533.7098,117.7928 C534.2168,118.4198 534.4708,119.2598 534.4708,120.3128 C534.4708,121.4828 534.1858,122.4218 533.6168,123.1248 C533.0478,123.8298 532.2678,124.1818 531.2788,124.1818 C530.3538,124.1818 529.6538,123.7888 529.1798,123.0058" fill="#525252"></path>
            <path d="M543.9868,120.4767 L542.2988,120.7087 C541.7788,120.7817 541.3868,120.9107 541.1228,121.0957 C540.8578,121.2797 540.7258,121.6057 540.7258,122.0767 C540.7258,122.4177 540.8478,122.6977 541.0908,122.9147 C541.3358,123.1287 541.6608,123.2387 542.0658,123.2387 C542.6218,123.2387 543.0818,123.0427 543.4428,122.6547 C543.8058,122.2637 543.9868,121.7697 543.9868,121.1737 L543.9868,120.4767 Z M545.1078,124.0177 L543.9868,124.0177 L543.9868,122.9237 L543.9598,122.9237 C543.4718,123.7617 542.7548,124.1817 541.8058,124.1817 C541.1088,124.1817 540.5628,123.9967 540.1698,123.6267 C539.7748,123.2577 539.5778,122.7677 539.5778,122.1587 C539.5778,120.8497 540.3478,120.0877 541.8878,119.8747 L543.9868,119.5807 C543.9868,118.3907 543.5068,117.7967 542.5448,117.7967 C541.7018,117.7967 540.9398,118.0837 540.2608,118.6587 L540.2608,117.5097 C540.9498,117.0727 541.7428,116.8537 542.6398,116.8537 C544.2858,116.8537 545.1078,117.7227 545.1078,119.4647 L545.1078,124.0177 Z" fill="#525252"></path>
            <path d="M548.3413,120.1818 L548.3413,121.1608 C548.3413,121.7388 548.5283,122.2308 548.9053,122.6328 C549.2803,123.0368 549.7583,123.2388 550.3373,123.2388 C551.0163,123.2388 551.5483,122.9788 551.9333,122.4588 C552.3193,121.9398 552.5113,121.2168 552.5113,120.2908 C552.5113,119.5118 552.3313,118.9028 551.9713,118.4588 C551.6113,118.0178 551.1233,117.7968 550.5083,117.7968 C549.8573,117.7968 549.3323,118.0238 548.9363,118.4768 C548.5393,118.9298 548.3413,119.4978 548.3413,120.1818 M548.3683,123.0058 L548.3413,123.0058 L548.3413,127.2368 L547.2203,127.2368 L547.2203,117.0178 L548.3413,117.0178 L548.3413,118.2478 L548.3683,118.2478 C548.9203,117.3188 549.7273,116.8538 550.7883,116.8538 C551.6913,116.8538 552.3953,117.1658 552.9013,117.7928 C553.4063,118.4198 553.6593,119.2598 553.6593,120.3128 C553.6593,121.4828 553.3743,122.4218 552.8053,123.1248 C552.2363,123.8298 551.4563,124.1818 550.4673,124.1818 C549.5603,124.1818 548.8613,123.7888 548.3683,123.0058" fill="#525252"></path>
            <path d="M556.5718,120.1818 L556.5718,121.1608 C556.5718,121.7388 556.7588,122.2308 557.1358,122.6328 C557.5108,123.0368 557.9888,123.2388 558.5678,123.2388 C559.2468,123.2388 559.7788,122.9788 560.1638,122.4588 C560.5498,121.9398 560.7418,121.2168 560.7418,120.2908 C560.7418,119.5118 560.5618,118.9028 560.2018,118.4588 C559.8418,118.0178 559.3538,117.7968 558.7388,117.7968 C558.0878,117.7968 557.5628,118.0238 557.1668,118.4768 C556.7698,118.9298 556.5718,119.4978 556.5718,120.1818 M556.5988,123.0058 L556.5718,123.0058 L556.5718,127.2368 L555.4508,127.2368 L555.4508,117.0178 L556.5718,117.0178 L556.5718,118.2478 L556.5988,118.2478 C557.1508,117.3188 557.9578,116.8538 559.0188,116.8538 C559.9218,116.8538 560.6258,117.1658 561.1318,117.7928 C561.6368,118.4198 561.8898,119.2598 561.8898,120.3128 C561.8898,121.4828 561.6048,122.4218 561.0358,123.1248 C560.4668,123.8298 559.6868,124.1818 558.6978,124.1818 C557.7908,124.1818 557.0918,123.7888 556.5988,123.0058" fill="#525252"></path>
            <path d="M563.2573,123.7638 L563.2573,122.5608 C563.8673,123.0118 564.5403,123.2388 565.2743,123.2388 C566.2583,123.2388 566.7503,122.9098 566.7503,122.2538 C566.7503,122.0668 566.7083,121.9088 566.6243,121.7798 C566.5393,121.6488 566.4253,121.5338 566.2823,121.4338 C566.1383,121.3318 565.9703,121.2428 565.7773,121.1638 C565.5823,121.0838 565.3743,120.9998 565.1513,120.9138 C564.8413,120.7908 564.5693,120.6658 564.3333,120.5408 C564.0993,120.4158 563.9033,120.2758 563.7453,120.1178 C563.5893,119.9608 563.4703,119.7818 563.3903,119.5798 C563.3113,119.3808 563.2713,119.1448 563.2713,118.8768 C563.2713,118.5488 563.3463,118.2578 563.4963,118.0058 C563.6473,117.7518 563.8473,117.5408 564.0983,117.3688 C564.3493,117.1998 564.6343,117.0708 564.9563,116.9828 C565.2773,116.8968 565.6093,116.8538 565.9503,116.8538 C566.5573,116.8538 567.0993,116.9568 567.5773,117.1678 L567.5773,118.3028 C567.0633,117.9648 566.4703,117.7968 565.8003,117.7968 C565.5903,117.7968 565.4023,117.8208 565.2333,117.8688 C565.0643,117.9158 564.9193,117.9828 564.7983,118.0708 C564.6783,118.1568 564.5843,118.2598 564.5193,118.3808 C564.4523,118.5018 564.4193,118.6348 564.4193,118.7818 C564.4193,118.9628 564.4523,119.1158 564.5193,119.2388 C564.5843,119.3618 564.6813,119.4708 564.8093,119.5668 C564.9373,119.6618 565.0913,119.7498 565.2743,119.8258 C565.4563,119.9048 565.6633,119.9888 565.8963,120.0798 C566.2053,120.1978 566.4843,120.3208 566.7303,120.4458 C566.9763,120.5708 567.1863,120.7128 567.3593,120.8688 C567.5313,121.0278 567.6653,121.2068 567.7593,121.4118 C567.8523,121.6178 567.8993,121.8618 567.8993,122.1448 C567.8993,122.4908 567.8223,122.7908 567.6693,123.0468 C567.5173,123.3008 567.3133,123.5138 567.0583,123.6818 C566.8033,123.8518 566.5093,123.9768 566.1763,124.0588 C565.8433,124.1408 565.4943,124.1818 565.1303,124.1818 C564.4103,124.1818 563.7853,124.0428 563.2573,123.7638" fill="#525252"></path>
            <path d="M11.5679,280.4425 C11.5679,283.1955 10.3259,284.5715 7.8419,284.5715 C5.4639,284.5715 4.2739,283.2475 4.2739,280.5995 L4.2739,274.6045 L5.4219,274.6045 L5.4219,280.5245 C5.4219,282.5345 6.2699,283.5395 7.9649,283.5395 C9.6009,283.5395 10.4199,282.5685 10.4199,280.6275 L10.4199,274.6045 L11.5679,274.6045 L11.5679,280.4425 Z" fill="#525252"></path>
            <path d="M13.4409,284.1545 L13.4409,282.9515 C14.0509,283.4025 14.7229,283.6285 15.4579,283.6285 C16.4419,283.6285 16.9339,283.3005 16.9339,282.6435 C16.9339,282.4575 16.8919,282.2985 16.8069,282.1695 C16.7229,282.0385 16.6089,281.9245 16.4649,281.8235 C16.3219,281.7225 16.1539,281.6335 15.9599,281.5535 C15.7659,281.4735 15.5569,281.3905 15.3349,281.3035 C15.0239,281.1805 14.7529,281.0565 14.5169,280.9305 C14.2829,280.8055 14.0869,280.6655 13.9289,280.5075 C13.7719,280.3505 13.6539,280.1715 13.5739,279.9705 C13.4949,279.7705 13.4549,279.5355 13.4549,279.2665 C13.4549,278.9385 13.5299,278.6475 13.6799,278.3955 C13.8309,278.1415 14.0309,277.9305 14.2819,277.7585 C14.5319,277.5895 14.8179,277.4605 15.1389,277.3735 C15.4609,277.2865 15.7929,277.2435 16.1339,277.2435 C16.7399,277.2435 17.2829,277.3475 17.7609,277.5575 L17.7609,278.6925 C17.2459,278.3555 16.6539,278.1865 15.9839,278.1865 C15.7739,278.1865 15.5849,278.2105 15.4169,278.2585 C15.2479,278.3055 15.1029,278.3735 14.9819,278.4605 C14.8619,278.5475 14.7679,278.6505 14.7019,278.7705 C14.6359,278.8915 14.6029,279.0255 14.6029,279.1715 C14.6029,279.3535 14.6359,279.5065 14.7019,279.6295 C14.7679,279.7525 14.8649,279.8615 14.9929,279.9575 C15.1199,280.0525 15.2749,280.1395 15.4579,280.2165 C15.6389,280.2945 15.8469,280.3795 16.0799,280.4695 C16.3889,280.5885 16.6679,280.7105 16.9139,280.8355 C17.1599,280.9615 17.3689,281.1025 17.5429,281.2585 C17.7149,281.4175 17.8489,281.5975 17.9419,281.8025 C18.0359,282.0085 18.0829,282.2525 18.0829,282.5345 C18.0829,282.8815 18.0059,283.1815 17.8529,283.4365 C17.7009,283.6915 17.4969,283.9035 17.2419,284.0725 C16.9859,284.2415 16.6919,284.3665 16.3599,284.4485 C16.0269,284.5305 15.6779,284.5715 15.3139,284.5715 C14.5929,284.5715 13.9689,284.4325 13.4409,284.1545" fill="#525252"></path>
            <path d="M24.2827,280.2375 C24.2777,279.5905 24.1217,279.0875 23.8137,278.7265 C23.5067,278.3665 23.0797,278.1865 22.5327,278.1865 C22.0037,278.1865 21.5547,278.3765 21.1857,278.7545 C20.8167,279.1325 20.5887,279.6275 20.5027,280.2375 L24.2827,280.2375 Z M25.4307,281.1875 L20.4887,281.1875 C20.5067,281.9665 20.7167,282.5685 21.1177,282.9925 C21.5177,283.4165 22.0697,283.6285 22.7717,283.6285 C23.5597,283.6285 24.2847,283.3685 24.9457,282.8485 L24.9457,283.9015 C24.3307,284.3475 23.5167,284.5715 22.5057,284.5715 C21.5157,284.5715 20.7387,284.2535 20.1747,283.6185 C19.6087,282.9815 19.3267,282.0885 19.3267,280.9345 C19.3267,279.8455 19.6357,278.9585 20.2527,278.2725 C20.8707,277.5865 21.6367,277.2435 22.5537,277.2435 C23.4697,277.2435 24.1777,277.5395 24.6787,278.1325 C25.1797,278.7245 25.4307,279.5475 25.4307,280.5995 L25.4307,281.1875 Z" fill="#525252"></path>
            <path d="M30.7769,278.5422 C30.5809,278.3922 30.2979,278.3162 29.9289,278.3162 C29.4509,278.3162 29.0499,278.5422 28.7289,278.9932 C28.4079,279.4442 28.2479,280.0602 28.2479,280.8392 L28.2479,284.4072 L27.1269,284.4072 L27.1269,277.4072 L28.2479,277.4072 L28.2479,278.8502 L28.2749,278.8502 C28.4339,278.3572 28.6779,277.9742 29.0059,277.6982 C29.3349,277.4222 29.7009,277.2842 30.1069,277.2842 C30.3979,277.2842 30.6219,277.3162 30.7769,277.3802 L30.7769,278.5422 Z" fill="#525252"></path>
            <path d="M31.6655,284.1545 L31.6655,282.9515 C32.2755,283.4025 32.9475,283.6285 33.6825,283.6285 C34.6665,283.6285 35.1585,283.3005 35.1585,282.6435 C35.1585,282.4575 35.1165,282.2985 35.0315,282.1695 C34.9475,282.0385 34.8335,281.9245 34.6895,281.8235 C34.5465,281.7225 34.3785,281.6335 34.1845,281.5535 C33.9905,281.4735 33.7815,281.3905 33.5595,281.3035 C33.2485,281.1805 32.9775,281.0565 32.7415,280.9305 C32.5075,280.8055 32.3115,280.6655 32.1535,280.5075 C31.9965,280.3505 31.8785,280.1715 31.7985,279.9705 C31.7195,279.7705 31.6795,279.5355 31.6795,279.2665 C31.6795,278.9385 31.7545,278.6475 31.9045,278.3955 C32.0555,278.1415 32.2555,277.9305 32.5065,277.7585 C32.7565,277.5895 33.0425,277.4605 33.3635,277.3735 C33.6855,277.2865 34.0175,277.2435 34.3585,277.2435 C34.9645,277.2435 35.5075,277.3475 35.9855,277.5575 L35.9855,278.6925 C35.4705,278.3555 34.8785,278.1865 34.2085,278.1865 C33.9985,278.1865 33.8095,278.2105 33.6415,278.2585 C33.4725,278.3055 33.3275,278.3735 33.2065,278.4605 C33.0865,278.5475 32.9925,278.6505 32.9265,278.7705 C32.8605,278.8915 32.8275,279.0255 32.8275,279.1715 C32.8275,279.3535 32.8605,279.5065 32.9265,279.6295 C32.9925,279.7525 33.0895,279.8615 33.2175,279.9575 C33.3445,280.0525 33.4995,280.1395 33.6825,280.2165 C33.8635,280.2945 34.0715,280.3795 34.3045,280.4695 C34.6135,280.5885 34.8925,280.7105 35.1385,280.8355 C35.3845,280.9615 35.5935,281.1025 35.7675,281.2585 C35.9395,281.4175 36.0735,281.5975 36.1665,281.8025 C36.2605,282.0085 36.3075,282.2525 36.3075,282.5345 C36.3075,282.8815 36.2305,283.1815 36.0775,283.4365 C35.9255,283.6915 35.7215,283.9035 35.4665,284.0725 C35.2105,284.2415 34.9165,284.3665 34.5845,284.4485 C34.2515,284.5305 33.9025,284.5715 33.5385,284.5715 C32.8175,284.5715 32.1935,284.4325 31.6655,284.1545" fill="#525252"></path>
            <path d="M36.4517,221.8136 C36.4517,224.7456 34.0727,227.1246 31.1407,227.1246 C28.2097,227.1246 25.8307,224.7456 25.8307,221.8136 C25.8307,218.8816 28.2097,216.5026 31.1407,216.5026 C34.0727,216.5026 36.4517,218.8816 36.4517,221.8136" fill="#50E6FF"></path>
            <path d="M31.0981,229.1203 C36.4521,229.1203 40.8271,233.4543 40.8271,238.8493 L40.8271,240.0813 L21.3691,240.0813 L21.3691,238.8493 C21.3691,233.4543 25.7451,229.1203 31.0981,229.1203" fill="#50E6FF"></path>
            <path d="M15.0815,239.0627 C15.0815,241.9947 12.7025,244.3737 9.7705,244.3737 C6.8395,244.3737 4.4185,241.9947 4.4185,239.0627 C4.4185,236.1307 6.7975,233.7517 9.7705,233.7517 C12.7445,233.7517 15.0815,236.1307 15.0815,239.0627" fill="#0078D4"></path>
            <path d="M9.729,246.3693 C15.082,246.3693 19.458,250.7033 19.458,256.0983 L19.458,257.2883 L0,257.2883 L0,256.0563 C0,250.7033 4.333,246.3693 9.729,246.3693" fill="#0078D4"></path>
            <path d="M460.3589,326.6232 L458.8209,322.4472 C458.7709,322.3112 458.7199,322.0922 458.6709,321.7912 L458.6429,321.7912 C458.5969,322.0682 458.5449,322.2872 458.4859,322.4472 L456.9619,326.6232 L460.3589,326.6232 Z M463.0459,330.4042 L461.7739,330.4042 L460.7349,327.6562 L456.5789,327.6562 L455.6009,330.4042 L454.3229,330.4042 L458.0829,320.6022 L459.2719,320.6022 L463.0459,330.4042 Z" fill="#525252"></path>
            <polygon fill="#525252" points="469.2183 323.7248 465.0753 329.4478 469.1773 329.4478 469.1773 330.4048 463.4283 330.4048 463.4283 330.0548 467.5713 324.3618 463.8183 324.3618 463.8183 323.4048 469.2183 323.4048"></polygon>
            <path d="M476.3276,330.4045 L475.2066,330.4045 L475.2066,329.2975 L475.1796,329.2975 C474.7146,330.1445 473.9936,330.5685 473.0186,330.5685 C471.3506,330.5685 470.5166,329.5745 470.5166,327.5885 L470.5166,323.4045 L471.6316,323.4045 L471.6316,327.4105 C471.6316,328.8865 472.1966,329.6255 473.3266,329.6255 C473.8736,329.6255 474.3236,329.4235 474.6776,329.0195 C475.0296,328.6165 475.2066,328.0895 475.2066,327.4375 L475.2066,323.4045 L476.3276,323.4045 L476.3276,330.4045 Z" fill="#525252"></path>
            <path d="M482.2407,324.5392 C482.0447,324.3892 481.7617,324.3122 481.3927,324.3122 C480.9147,324.3122 480.5147,324.5392 480.1927,324.9902 C479.8727,325.4412 479.7117,326.0572 479.7117,326.8362 L479.7117,330.4042 L478.5907,330.4042 L478.5907,323.4042 L479.7117,323.4042 L479.7117,324.8462 L479.7387,324.8462 C479.8977,324.3532 480.1417,323.9712 480.4697,323.6942 C480.7987,323.4182 481.1657,323.2812 481.5707,323.2812 C481.8627,323.2812 482.0857,323.3122 482.2407,323.3772 L482.2407,324.5392 Z" fill="#525252"></path>
            <path d="M487.7505,326.2345 C487.7455,325.5875 487.5895,325.0835 487.2825,324.7225 C486.9745,324.3635 486.5475,324.1835 486.0005,324.1835 C485.4725,324.1835 485.0225,324.3725 484.6535,324.7505 C484.2845,325.1295 484.0565,325.6235 483.9705,326.2345 L487.7505,326.2345 Z M488.8985,327.1835 L483.9565,327.1835 C483.9745,327.9635 484.1845,328.5645 484.5855,328.9885 C484.9855,329.4125 485.5375,329.6255 486.2395,329.6255 C487.0275,329.6255 487.7525,329.3655 488.4135,328.8455 L488.4135,329.8985 C487.7985,330.3445 486.9845,330.5685 485.9735,330.5685 C484.9835,330.5685 484.2065,330.2505 483.6425,329.6145 C483.0765,328.9785 482.7945,328.0845 482.7945,326.9315 C482.7945,325.8415 483.1035,324.9555 483.7205,324.2685 C484.3385,323.5825 485.1045,323.2405 486.0215,323.2405 C486.9375,323.2405 487.6465,323.5365 488.1465,324.1295 C488.6475,324.7205 488.8985,325.5435 488.8985,326.5955 L488.8985,327.1835 Z" fill="#525252"></path>
            <path d="M494.1216,330.008 L494.1216,328.654 C494.2766,328.791 494.4626,328.914 494.6796,329.024 C494.8946,329.133 495.1226,329.225 495.3626,329.3 C495.6006,329.375 495.8416,329.434 496.0836,329.475 C496.3246,329.516 496.5486,329.535 496.7536,329.535 C497.4596,329.535 497.9876,329.404 498.3356,329.143 C498.6846,328.881 498.8586,328.504 498.8586,328.012 C498.8586,327.747 498.8006,327.517 498.6846,327.32 C498.5676,327.125 498.4076,326.945 498.2026,326.784 C497.9976,326.623 497.7556,326.467 497.4746,326.32 C497.1946,326.172 496.8926,326.016 496.5686,325.852 C496.2266,325.678 495.9076,325.502 495.6116,325.324 C495.3156,325.147 495.0586,324.951 494.8396,324.737 C494.6206,324.523 494.4486,324.279 494.3236,324.009 C494.1976,323.738 494.1356,323.42 494.1356,323.055 C494.1356,322.609 494.2326,322.221 494.4296,321.89 C494.6246,321.559 494.8826,321.287 495.2016,321.072 C495.5206,320.859 495.8846,320.699 496.2926,320.594 C496.6996,320.489 497.1156,320.438 497.5396,320.438 C498.5056,320.438 499.2096,320.553 499.6516,320.785 L499.6516,322.078 C499.0726,321.677 498.3296,321.477 497.4236,321.477 C497.1726,321.477 496.9216,321.502 496.6716,321.555 C496.4206,321.608 496.1966,321.693 496.0016,321.811 C495.8056,321.93 495.6456,322.082 495.5226,322.27 C495.3996,322.456 495.3386,322.684 495.3386,322.953 C495.3386,323.203 495.3856,323.42 495.4776,323.602 C495.5716,323.784 495.7096,323.951 495.8926,324.102 C496.0736,324.252 496.2966,324.398 496.5586,324.539 C496.8206,324.68 497.1226,324.835 497.4646,325.004 C497.8146,325.177 498.1476,325.36 498.4626,325.551 C498.7766,325.742 499.0526,325.953 499.2896,326.186 C499.5266,326.418 499.7146,326.676 499.8526,326.959 C499.9926,327.241 500.0616,327.565 500.0616,327.93 C500.0616,328.412 499.9676,328.821 499.7786,329.156 C499.5896,329.491 499.3336,329.764 499.0136,329.973 C498.6906,330.183 498.3206,330.334 497.9016,330.428 C497.4816,330.522 497.0406,330.569 496.5756,330.569 C496.4206,330.569 496.2286,330.555 496.0016,330.53 C495.7726,330.506 495.5406,330.469 495.3046,330.421 C495.0666,330.373 494.8436,330.315 494.6306,330.243 C494.4196,330.172 494.2496,330.094 494.1216,330.008" fill="#525252"></path>
            <path d="M504.6626,330.3361 C504.3976,330.4821 504.0496,330.5551 503.6166,330.5551 C502.3906,330.5551 501.7776,329.8711 501.7776,328.5041 L501.7776,324.3611 L500.5746,324.3611 L500.5746,323.4041 L501.7776,323.4041 L501.7776,321.6951 L502.8986,321.3321 L502.8986,323.4041 L504.6626,323.4041 L504.6626,324.3611 L502.8986,324.3611 L502.8986,328.3051 C502.8986,328.7741 502.9776,329.1091 503.1386,329.3111 C503.2976,329.5111 503.5616,329.6111 503.9316,329.6111 C504.2136,329.6111 504.4576,329.5331 504.6626,329.3791 L504.6626,330.3361 Z" fill="#525252"></path>
            <path d="M510.0493,326.8634 L508.3613,327.0954 C507.8413,327.1684 507.4483,327.2974 507.1853,327.4814 C506.9203,327.6664 506.7883,327.9934 506.7883,328.4634 C506.7883,328.8044 506.9103,329.0844 507.1533,329.3004 C507.3983,329.5154 507.7223,329.6254 508.1283,329.6254 C508.6843,329.6254 509.1443,329.4294 509.5053,329.0404 C509.8683,328.6504 510.0493,328.1574 510.0493,327.5604 L510.0493,326.8634 Z M511.1703,330.4044 L510.0493,330.4044 L510.0493,329.3104 L510.0223,329.3104 C509.5343,330.1484 508.8163,330.5684 507.8683,330.5684 C507.1713,330.5684 506.6253,330.3834 506.2323,330.0134 C505.8373,329.6444 505.6403,329.1554 505.6403,328.5454 C505.6403,327.2364 506.4093,326.4754 507.9503,326.2614 L510.0493,325.9674 C510.0493,324.7774 509.5683,324.1834 508.6073,324.1834 C507.7633,324.1834 507.0023,324.4704 506.3233,325.0454 L506.3233,323.8964 C507.0113,323.4594 507.8043,323.2404 508.7023,323.2404 C510.3473,323.2404 511.1703,324.1104 511.1703,325.8514 L511.1703,330.4044 Z" fill="#525252"></path>
            <path d="M518.0542,330.0822 C517.5162,330.4062 516.8782,330.5682 516.1402,330.5682 C515.1422,330.5682 514.3362,330.2432 513.7242,329.5942 C513.1112,328.9442 512.8042,328.1032 512.8042,327.0682 C512.8042,325.9152 513.1342,324.9882 513.7952,324.2892 C514.4562,323.5902 515.3372,323.2402 516.4412,323.2402 C517.0562,323.2402 517.5982,323.3532 518.0682,323.5822 L518.0682,324.7302 C517.5482,324.3652 516.9922,324.1842 516.4002,324.1842 C515.6842,324.1842 515.0972,324.4392 514.6402,324.9522 C514.1812,325.4652 513.9522,326.1392 513.9522,326.9732 C513.9522,327.7932 514.1672,328.4392 514.5992,328.9142 C515.0292,329.3882 515.6072,329.6252 516.3312,329.6252 C516.9422,329.6252 517.5162,329.4222 518.0542,329.0162 L518.0542,330.0822 Z" fill="#525252"></path>
            <polygon fill="#525252" points="525.5601 330.4045 523.9881 330.4045 520.8981 327.0415 520.8711 327.0415 520.8711 330.4045 519.7491 330.4045 519.7491 320.0415 520.8711 320.0415 520.8711 326.6095 520.8981 326.6095 523.8371 323.4045 525.3071 323.4045 522.0601 326.7815"></polygon>
            <path d="M467.105,6.0216 L465.568,1.8456 C465.517,1.7096 465.467,1.4906 465.418,1.1896 L465.39,1.1896 C465.344,1.4666 465.292,1.6856 465.232,1.8456 L463.709,6.0216 L467.105,6.0216 Z M469.793,9.8026 L468.521,9.8026 L467.482,7.0546 L463.326,7.0546 L462.347,9.8026 L461.07,9.8026 L464.83,0.0006 L466.019,0.0006 L469.793,9.8026 Z" fill="#525252"></path>
            <polygon fill="#525252" points="475.9644 3.1232 471.8214 8.8462 475.9234 8.8462 475.9234 9.8032 470.1754 9.8032 470.1754 9.4532 474.3184 3.7602 470.5644 3.7602 470.5644 2.8032 475.9644 2.8032"></polygon>
            <path d="M483.0737,9.8029 L481.9527,9.8029 L481.9527,8.6959 L481.9257,8.6959 C481.4607,9.5429 480.7407,9.9669 479.7647,9.9669 C478.0967,9.9669 477.2627,8.9729 477.2627,6.9869 L477.2627,2.8029 L478.3787,2.8029 L478.3787,6.8089 C478.3787,8.2849 478.9427,9.0239 480.0737,9.0239 C480.6207,9.0239 481.0697,8.8219 481.4237,8.4179 C481.7767,8.0149 481.9527,7.4879 481.9527,6.8359 L481.9527,2.8029 L483.0737,2.8029 L483.0737,9.8029 Z" fill="#525252"></path>
            <path d="M488.9878,3.9377 C488.7918,3.7877 488.5088,3.7107 488.1398,3.7107 C487.6618,3.7107 487.2608,3.9377 486.9398,4.3887 C486.6188,4.8397 486.4588,5.4557 486.4588,6.2347 L486.4588,9.8027 L485.3378,9.8027 L485.3378,2.8027 L486.4588,2.8027 L486.4588,4.2447 L486.4858,4.2447 C486.6448,3.7517 486.8878,3.3697 487.2168,3.0927 C487.5448,2.8167 487.9118,2.6797 488.3178,2.6797 C488.6088,2.6797 488.8328,2.7107 488.9878,2.7757 L488.9878,3.9377 Z" fill="#525252"></path>
            <path d="M494.4976,5.633 C494.4926,4.986 494.3366,4.482 494.0286,4.121 C493.7216,3.762 493.2946,3.582 492.7476,3.582 C492.2186,3.582 491.7686,3.771 491.3996,4.149 C491.0306,4.528 490.8036,5.022 490.7166,5.633 L494.4976,5.633 Z M495.6456,6.582 L490.7026,6.582 C490.7216,7.362 490.9316,7.963 491.3316,8.387 C491.7326,8.811 492.2846,9.024 492.9856,9.024 C493.7746,9.024 494.4996,8.764 495.1596,8.244 L495.1596,9.297 C494.5446,9.743 493.7316,9.967 492.7206,9.967 C491.7306,9.967 490.9536,9.649 490.3886,9.013 C489.8236,8.377 489.5406,7.483 489.5406,6.33 C489.5406,5.24 489.8496,4.354 490.4676,3.667 C491.0846,2.981 491.8516,2.639 492.7676,2.639 C493.6836,2.639 494.3926,2.935 494.8936,3.528 C495.3946,4.119 495.6456,4.942 495.6456,5.994 L495.6456,6.582 Z" fill="#525252"></path>
            <path d="M556.9341,397.5216 C556.9341,408.8756 547.7881,418.0796 536.5041,418.0796 C525.2201,418.0796 516.0741,408.8756 516.0741,397.5216 C516.0741,386.1676 525.2201,376.9646 536.5041,376.9646 C547.7881,376.9646 556.9341,386.1676 556.9341,397.5216" fill="#FFFFFF"></path>
            <path d="M523.1401,392.1095 C524.2341,391.7125 525.4061,391.6445 526.5201,391.8785 C526.7441,391.6225 526.9731,391.3665 527.2101,391.1125 C529.0751,389.1395 531.0971,387.4425 532.9111,386.1725 C532.9061,386.1675 532.9021,386.1645 532.8971,386.1585 C530.7371,383.8635 528.8201,381.5085 527.3871,379.1745 C526.1981,379.7605 525.0421,380.4585 523.9501,381.2985 C523.1361,381.9215 522.4031,382.6085 521.7101,383.3205 C521.4271,385.0095 521.3181,388.1745 523.1401,392.1095" fill="#59B3D8"></path>
            <path d="M535.8052,384.3508 L535.8052,384.3528 C541.4132,381.3698 546.3252,381.3028 549.4992,381.7868 C545.7622,378.6838 541.1012,377.0708 536.3992,377.0708 C534.2842,377.0708 532.1612,377.3998 530.1112,378.0618 C532.0422,380.3068 533.9402,382.3988 535.8042,384.3508 L535.8052,384.3508 Z" fill="#59B3D8"></path>
            <path d="M520.3188,401.7043 C518.5888,399.4343 518.6668,396.3573 520.3238,394.1873 C518.9168,390.8013 519.0278,387.9853 519.4908,386.0063 C514.7808,392.8813 514.6238,402.1613 519.5898,409.2983 C519.7008,407.1933 520.0368,404.7603 520.7778,402.2343 C520.6188,402.0673 520.4628,401.8923 520.3188,401.7043" fill="#59B3D8"></path>
            <path d="M539.6304,388.2853 C542.0524,390.6933 544.3484,392.8433 546.4374,394.7173 C548.3334,393.6243 550.7614,394.0743 552.1314,395.8483 C553.0894,397.1063 553.2554,398.7163 552.7314,400.0973 C554.3184,401.3843 555.4184,402.2313 556.2344,402.8403 C557.7964,396.9173 556.7224,390.3673 552.7084,385.1283 C552.6304,385.0243 552.5444,384.9283 552.4644,384.8273 C552.1104,384.7933 546.8934,384.3763 539.6304,388.2853" fill="#59B3D8"></path>
            <path d="M551.3052,402.0246 C549.3722,403.4966 546.6062,403.1436 545.1162,401.1996 C544.0792,399.8446 543.9732,398.0876 544.6542,396.6436 C542.0812,394.6356 539.3662,392.3896 536.8022,390.0206 C536.8032,390.0206 536.8032,390.0196 536.8042,390.0196 C536.7382,389.9576 536.6762,389.8946 536.6092,389.8326 C536.6752,389.8956 536.7362,389.9616 536.8022,390.0236 C535.1332,391.1636 533.3482,392.5826 531.4512,394.3566 C531.2022,394.5886 530.9712,394.8246 530.7372,395.0596 C531.7712,397.0486 531.6462,399.4166 530.4762,401.2606 C530.8322,401.5666 531.2042,401.8726 531.5902,402.1796 C533.5062,403.6966 535.3652,404.9046 537.1382,405.8676 C538.9052,404.7286 541.2752,405.0956 542.5712,406.7966 C542.9502,407.2926 543.1852,407.8506 543.3072,408.4226 C548.3892,409.8836 552.1102,409.3806 553.3852,409.1176 C554.3472,407.6996 555.1142,406.1826 555.6852,404.6006 C554.9092,404.0736 553.5422,403.1566 551.5762,401.7706 C551.4842,401.8526 551.4072,401.9486 551.3052,402.0246" fill="#59B3D8"></path>
            <path d="M541.8179,412.5168 C540.0299,413.8828 537.4689,413.5498 536.0869,411.7618 C535.4389,410.9048 535.1899,409.8698 535.2919,408.8718 C533.3349,407.8958 531.3259,406.6558 529.3109,405.0598 C528.7259,404.5838 528.1749,404.1168 527.6489,403.6548 C526.7319,404.0398 525.7539,404.1918 524.7919,404.1188 C523.3959,407.8688 523.2359,411.1978 523.3829,413.4558 C527.1129,416.5308 531.7549,418.1298 536.4379,418.1298 C540.7889,418.1298 545.1689,416.7448 548.8879,413.8998 C549.5199,413.4148 550.1069,412.8948 550.6669,412.3548 C548.6109,412.3498 545.8669,412.2168 542.7279,411.5178 C542.4849,411.8868 542.1899,412.2318 541.8179,412.5168" fill="#59B3D8"></path>
            <path d="M556.9341,77.0851 C556.9341,88.4391 547.7881,97.6431 536.5041,97.6431 C525.2201,97.6431 516.0741,88.4391 516.0741,77.0851 C516.0741,65.7311 525.2201,56.5281 536.5041,56.5281 C547.7881,56.5281 556.9341,65.7311 556.9341,77.0851" fill="#FFFFFF"></path>
            <path d="M523.1401,71.673 C524.2341,71.276 525.4061,71.208 526.5201,71.442 C526.7441,71.186 526.9731,70.93 527.2101,70.676 C529.0751,68.703 531.0971,67.006 532.9111,65.736 C532.9061,65.731 532.9021,65.728 532.8971,65.722 C530.7371,63.427 528.8201,61.072 527.3871,58.738 C526.1981,59.324 525.0421,60.022 523.9501,60.862 C523.1361,61.485 522.4031,62.172 521.7101,62.884 C521.4271,64.573 521.3181,67.738 523.1401,71.673" fill="#59B3D8"></path>
            <path d="M535.8052,63.9142 L535.8052,63.9162 C541.4132,60.9332 546.3252,60.8662 549.4992,61.3502 C545.7622,58.2472 541.1012,56.6342 536.3992,56.6342 C534.2842,56.6342 532.1612,56.9632 530.1112,57.6252 C532.0422,59.8702 533.9402,61.9622 535.8042,63.9142 L535.8052,63.9142 Z" fill="#59B3D8"></path>
            <path d="M520.3188,81.2687 C518.5888,78.9977 518.6668,75.9207 520.3238,73.7507 C518.9168,70.3647 519.0278,67.5487 519.4908,65.5697 C514.7808,72.4447 514.6238,81.7247 519.5898,88.8617 C519.7008,86.7567 520.0368,84.3237 520.7778,81.7977 C520.6188,81.6307 520.4628,81.4557 520.3188,81.2687" fill="#59B3D8"></path>
            <path d="M539.6304,67.8488 C542.0524,70.2568 544.3484,72.4068 546.4374,74.2808 C548.3334,73.1878 550.7614,73.6378 552.1314,75.4118 C553.0894,76.6698 553.2554,78.2798 552.7314,79.6608 C554.3184,80.9478 555.4184,81.7948 556.2344,82.4038 C557.7964,76.4808 556.7224,69.9308 552.7084,64.6918 C552.6304,64.5878 552.5444,64.4918 552.4644,64.3908 C552.1104,64.3568 546.8934,63.9398 539.6304,67.8488" fill="#59B3D8"></path>
            <path d="M551.3052,81.5881 C549.3722,83.0601 546.6062,82.7071 545.1162,80.7631 C544.0792,79.4081 543.9732,77.6511 544.6542,76.2071 C542.0812,74.1991 539.3662,71.9531 536.8022,69.5841 C536.8032,69.5841 536.8032,69.5831 536.8042,69.5831 C536.7382,69.5211 536.6762,69.4581 536.6092,69.3961 C536.6752,69.4591 536.7362,69.5251 536.8022,69.5871 C535.1332,70.7271 533.3482,72.1461 531.4512,73.9201 C531.2022,74.1521 530.9712,74.3881 530.7372,74.6231 C531.7712,76.6121 531.6462,78.9801 530.4762,80.8241 C530.8322,81.1301 531.2042,81.4361 531.5902,81.7431 C533.5062,83.2611 535.3652,84.4681 537.1382,85.4311 C538.9052,84.2921 541.2752,84.6591 542.5712,86.3601 C542.9502,86.8561 543.1852,87.4141 543.3072,87.9861 C548.3892,89.4471 552.1102,88.9441 553.3852,88.6811 C554.3472,87.2631 555.1142,85.7461 555.6852,84.1641 C554.9092,83.6371 553.5422,82.7201 551.5762,81.3341 C551.4842,81.4161 551.4072,81.5121 551.3052,81.5881" fill="#59B3D8"></path>
            <path d="M541.8179,92.0802 C540.0299,93.4462 537.4689,93.1132 536.0869,91.3252 C535.4389,90.4682 535.1899,89.4332 535.2919,88.4362 C533.3349,87.4592 531.3259,86.2192 529.3109,84.6232 C528.7259,84.1472 528.1749,83.6802 527.6489,83.2182 C526.7319,83.6032 525.7539,83.7552 524.7919,83.6822 C523.3959,87.4322 523.2359,90.7612 523.3829,93.0192 C527.1129,96.0942 531.7549,97.6932 536.4379,97.6932 C540.7889,97.6932 545.1689,96.3082 548.8879,93.4632 C549.5199,92.9782 550.1069,92.4582 550.6669,91.9182 C548.6109,91.9132 545.8669,91.7802 542.7279,91.0812 C542.4849,91.4502 542.1899,91.7952 541.8179,92.0802" fill="#59B3D8"></path>
            <path d="M617.1177,77.0851 C617.1177,88.4391 607.9707,97.6431 596.6867,97.6431 C585.4037,97.6431 576.2577,88.4391 576.2577,77.0851 C576.2577,65.7311 585.4037,56.5281 596.6867,56.5281 C607.9707,56.5281 617.1177,65.7311 617.1177,77.0851" fill="#FFFFFF"></path>
            <path d="M583.3237,71.673 C584.4177,71.276 585.5897,71.208 586.7027,71.442 C586.9277,71.186 587.1567,70.93 587.3937,70.676 C589.2587,68.703 591.2797,67.006 593.0947,65.736 C593.0897,65.731 593.0847,65.728 593.0807,65.722 C590.9197,63.427 589.0037,61.072 587.5707,58.738 C586.3807,59.324 585.2247,60.022 584.1327,60.862 C583.3187,61.485 582.5867,62.172 581.8927,62.884 C581.6097,64.573 581.5007,67.738 583.3237,71.673" fill="#AED8E9"></path>
            <path d="M595.9878,63.9142 L595.9888,63.9162 C601.5968,60.9332 606.5078,60.8662 609.6818,61.3502 C605.9448,58.2472 601.2848,56.6342 596.5828,56.6342 C594.4668,56.6342 592.3448,56.9632 590.2948,57.6252 C592.2258,59.8702 594.1228,61.9622 595.9868,63.9142 L595.9878,63.9142 Z" fill="#AED8E9"></path>
            <path d="M580.5024,81.2687 C578.7714,78.9977 578.8494,75.9207 580.5064,73.7507 C579.0994,70.3647 579.2104,67.5487 579.6744,65.5697 C574.9634,72.4447 574.8064,81.7247 579.7734,88.8617 C579.8844,86.7567 580.2204,84.3237 580.9614,81.7977 C580.8014,81.6307 580.6464,81.4557 580.5024,81.2687" fill="#AED8E9"></path>
            <path d="M599.814,67.8488 C602.235,70.2568 604.531,72.4068 606.62,74.2808 C608.517,73.1878 610.944,73.6378 612.314,75.4118 C613.273,76.6698 613.438,78.2798 612.914,79.6608 C614.502,80.9478 615.601,81.7948 616.418,82.4038 C617.98,76.4808 616.905,69.9308 612.892,64.6918 C612.814,64.5878 612.728,64.4918 612.648,64.3908 C612.294,64.3568 607.077,63.9398 599.814,67.8488" fill="#AED8E9"></path>
            <path d="M611.4888,81.5881 C609.5548,83.0601 606.7888,82.7071 605.2988,80.7631 C604.2618,79.4081 604.1558,77.6511 604.8378,76.2071 C602.2638,74.1991 599.5498,71.9531 596.9858,69.5841 C596.9868,69.5841 596.9868,69.5831 596.9878,69.5831 C596.9218,69.5211 596.8588,69.4581 596.7918,69.3961 C596.8578,69.4591 596.9188,69.5251 596.9848,69.5871 C595.3158,70.7271 593.5318,72.1461 591.6348,73.9201 C591.3858,74.1521 591.1548,74.3881 590.9198,74.6231 C591.9548,76.6121 591.8288,78.9801 590.6588,80.8241 C591.0158,81.1301 591.3868,81.4361 591.7738,81.7431 C593.6898,83.2611 595.5488,84.4681 597.3218,85.4311 C599.0888,84.2921 601.4578,84.6591 602.7548,86.3601 C603.1328,86.8561 603.3678,87.4141 603.4908,87.9861 C608.5718,89.4471 612.2928,88.9441 613.5678,88.6811 C614.5308,87.2631 615.2968,85.7461 615.8688,84.1641 C615.0928,83.6371 613.7248,82.7201 611.7598,81.3341 C611.6678,81.4161 611.5898,81.5121 611.4888,81.5881" fill="#AED8E9"></path>
            <path d="M602.0015,92.0802 C600.2135,93.4462 597.6525,93.1132 596.2695,91.3252 C595.6225,90.4682 595.3735,89.4332 595.4745,88.4362 C593.5175,87.4592 591.5085,86.2192 589.4945,84.6232 C588.9085,84.1472 588.3585,83.6802 587.8325,83.2182 C586.9155,83.6032 585.9375,83.7552 584.9745,83.6822 C583.5795,87.4322 583.4195,90.7612 583.5655,93.0192 C587.2965,96.0942 591.9385,97.6932 596.6215,97.6932 C600.9715,97.6932 605.3525,96.3082 609.0705,93.4632 C609.7025,92.9782 610.2905,92.4582 610.8505,91.9182 C608.7945,91.9132 606.0495,91.7802 602.9105,91.0812 C602.6675,91.4502 602.3725,91.7952 602.0015,92.0802" fill="#AED8E9"></path>
            <path d="M677.1177,77.0851 C677.1177,88.4391 667.9707,97.6431 656.6867,97.6431 C645.4037,97.6431 636.2577,88.4391 636.2577,77.0851 C636.2577,65.7311 645.4037,56.5281 656.6867,56.5281 C667.9707,56.5281 677.1177,65.7311 677.1177,77.0851" fill="#FFFFFF"></path>
            <path d="M643.3237,71.673 C644.4177,71.276 645.5897,71.208 646.7027,71.442 C646.9277,71.186 647.1567,70.93 647.3937,70.676 C649.2587,68.703 651.2797,67.006 653.0947,65.736 C653.0897,65.731 653.0847,65.728 653.0807,65.722 C650.9197,63.427 649.0037,61.072 647.5707,58.738 C646.3807,59.324 645.2247,60.022 644.1327,60.862 C643.3187,61.485 642.5867,62.172 641.8927,62.884 C641.6097,64.573 641.5007,67.738 643.3237,71.673" fill="#AED8E9"></path>
            <path d="M655.9878,63.9142 L655.9888,63.9162 C661.5968,60.9332 666.5078,60.8662 669.6818,61.3502 C665.9448,58.2472 661.2848,56.6342 656.5828,56.6342 C654.4668,56.6342 652.3448,56.9632 650.2948,57.6252 C652.2258,59.8702 654.1228,61.9622 655.9868,63.9142 L655.9878,63.9142 Z" fill="#AED8E9"></path>
            <path d="M640.5024,81.2687 C638.7714,78.9977 638.8494,75.9207 640.5064,73.7507 C639.0994,70.3647 639.2104,67.5487 639.6744,65.5697 C634.9634,72.4447 634.8064,81.7247 639.7734,88.8617 C639.8844,86.7567 640.2204,84.3237 640.9614,81.7977 C640.8014,81.6307 640.6464,81.4557 640.5024,81.2687" fill="#AED8E9"></path>
            <path d="M659.814,67.8488 C662.235,70.2568 664.531,72.4068 666.62,74.2808 C668.517,73.1878 670.944,73.6378 672.314,75.4118 C673.273,76.6698 673.438,78.2798 672.914,79.6608 C674.502,80.9478 675.601,81.7948 676.418,82.4038 C677.98,76.4808 676.905,69.9308 672.892,64.6918 C672.814,64.5878 672.728,64.4918 672.648,64.3908 C672.294,64.3568 667.077,63.9398 659.814,67.8488" fill="#AED8E9"></path>
            <path d="M671.4888,81.5881 C669.5548,83.0601 666.7888,82.7071 665.2988,80.7631 C664.2618,79.4081 664.1558,77.6511 664.8378,76.2071 C662.2638,74.1991 659.5498,71.9531 656.9858,69.5841 C656.9868,69.5841 656.9868,69.5831 656.9878,69.5831 C656.9218,69.5211 656.8588,69.4581 656.7918,69.3961 C656.8578,69.4591 656.9188,69.5251 656.9848,69.5871 C655.3158,70.7271 653.5318,72.1461 651.6348,73.9201 C651.3858,74.1521 651.1548,74.3881 650.9198,74.6231 C651.9548,76.6121 651.8288,78.9801 650.6588,80.8241 C651.0158,81.1301 651.3868,81.4361 651.7738,81.7431 C653.6898,83.2611 655.5488,84.4681 657.3218,85.4311 C659.0888,84.2921 661.4578,84.6591 662.7548,86.3601 C663.1328,86.8561 663.3678,87.4141 663.4908,87.9861 C668.5718,89.4471 672.2928,88.9441 673.5678,88.6811 C674.5308,87.2631 675.2968,85.7461 675.8688,84.1641 C675.0928,83.6371 673.7248,82.7201 671.7598,81.3341 C671.6678,81.4161 671.5898,81.5121 671.4888,81.5881" fill="#AED8E9"></path>
            <path d="M662.0015,92.0802 C660.2135,93.4462 657.6525,93.1132 656.2695,91.3252 C655.6225,90.4682 655.3735,89.4332 655.4745,88.4362 C653.5175,87.4592 651.5085,86.2192 649.4945,84.6232 C648.9085,84.1472 648.3585,83.6802 647.8325,83.2182 C646.9155,83.6032 645.9375,83.7552 644.9745,83.6822 C643.5795,87.4322 643.4195,90.7612 643.5655,93.0192 C647.2965,96.0942 651.9385,97.6932 656.6215,97.6932 C660.9715,97.6932 665.3525,96.3082 669.0705,93.4632 C669.7025,92.9782 670.2905,92.4582 670.8505,91.9182 C668.7945,91.9132 666.0495,91.7802 662.9105,91.0812 C662.6675,91.4502 662.3725,91.7952 662.0015,92.0802" fill="#AED8E9"></path>
            <path d="M737.1177,77.0851 C737.1177,88.4391 727.9707,97.6431 716.6867,97.6431 C705.4037,97.6431 696.2577,88.4391 696.2577,77.0851 C696.2577,65.7311 705.4037,56.5281 716.6867,56.5281 C727.9707,56.5281 737.1177,65.7311 737.1177,77.0851" fill="#FFFFFF"></path>
            <path d="M703.3237,71.673 C704.4177,71.276 705.5897,71.208 706.7027,71.442 C706.9277,71.186 707.1567,70.93 707.3937,70.676 C709.2587,68.703 711.2797,67.006 713.0947,65.736 C713.0897,65.731 713.0847,65.728 713.0807,65.722 C710.9197,63.427 709.0037,61.072 707.5707,58.738 C706.3807,59.324 705.2247,60.022 704.1327,60.862 C703.3187,61.485 702.5867,62.172 701.8927,62.884 C701.6097,64.573 701.5007,67.738 703.3237,71.673" fill="#AED8E9"></path>
            <path d="M715.9878,63.9142 L715.9888,63.9162 C721.5968,60.9332 726.5078,60.8662 729.6818,61.3502 C725.9448,58.2472 721.2848,56.6342 716.5828,56.6342 C714.4668,56.6342 712.3448,56.9632 710.2948,57.6252 C712.2258,59.8702 714.1228,61.9622 715.9868,63.9142 L715.9878,63.9142 Z" fill="#AED8E9"></path>
            <path d="M700.5024,81.2687 C698.7714,78.9977 698.8494,75.9207 700.5064,73.7507 C699.0994,70.3647 699.2104,67.5487 699.6744,65.5697 C694.9634,72.4447 694.8064,81.7247 699.7734,88.8617 C699.8844,86.7567 700.2204,84.3237 700.9614,81.7977 C700.8014,81.6307 700.6464,81.4557 700.5024,81.2687" fill="#AED8E9"></path>
            <path d="M719.814,67.8488 C722.235,70.2568 724.531,72.4068 726.62,74.2808 C728.517,73.1878 730.944,73.6378 732.314,75.4118 C733.273,76.6698 733.438,78.2798 732.914,79.6608 C734.502,80.9478 735.601,81.7948 736.418,82.4038 C737.98,76.4808 736.905,69.9308 732.892,64.6918 C732.814,64.5878 732.728,64.4918 732.648,64.3908 C732.294,64.3568 727.077,63.9398 719.814,67.8488" fill="#AED8E9"></path>
            <path d="M731.4888,81.5881 C729.5548,83.0601 726.7888,82.7071 725.2988,80.7631 C724.2618,79.4081 724.1558,77.6511 724.8378,76.2071 C722.2638,74.1991 719.5498,71.9531 716.9858,69.5841 C716.9868,69.5841 716.9868,69.5831 716.9878,69.5831 C716.9218,69.5211 716.8588,69.4581 716.7918,69.3961 C716.8578,69.4591 716.9188,69.5251 716.9848,69.5871 C715.3158,70.7271 713.5318,72.1461 711.6348,73.9201 C711.3858,74.1521 711.1548,74.3881 710.9198,74.6231 C711.9548,76.6121 711.8288,78.9801 710.6588,80.8241 C711.0158,81.1301 711.3868,81.4361 711.7738,81.7431 C713.6898,83.2611 715.5488,84.4681 717.3218,85.4311 C719.0888,84.2921 721.4578,84.6591 722.7548,86.3601 C723.1328,86.8561 723.3678,87.4141 723.4908,87.9861 C728.5718,89.4471 732.2928,88.9441 733.5678,88.6811 C734.5308,87.2631 735.2968,85.7461 735.8688,84.1641 C735.0928,83.6371 733.7248,82.7201 731.7598,81.3341 C731.6678,81.4161 731.5898,81.5121 731.4888,81.5881" fill="#AED8E9"></path>
            <path d="M722.0015,92.0802 C720.2135,93.4462 717.6525,93.1132 716.2695,91.3252 C715.6225,90.4682 715.3735,89.4332 715.4745,88.4362 C713.5175,87.4592 711.5085,86.2192 709.4945,84.6232 C708.9085,84.1472 708.3585,83.6802 707.8325,83.2182 C706.9155,83.6032 705.9375,83.7552 704.9745,83.6822 C703.5795,87.4322 703.4195,90.7612 703.5655,93.0192 C707.2965,96.0942 711.9385,97.6932 716.6215,97.6932 C720.9715,97.6932 725.3525,96.3082 729.0705,93.4632 C729.7025,92.9782 730.2905,92.4582 730.8505,91.9182 C728.7945,91.9132 726.0495,91.7802 722.9105,91.0812 C722.6675,91.4502 722.3725,91.7952 722.0015,92.0802" fill="#AED8E9"></path>
            
            <a class="architecture-tooltip-trigger" href="#">
            <circle fill="#A5CE00" cx="104.8823" cy="257.0695" r="14.5"></circle>
            <text transform="translate(100.87371 262.5695)" font-size="15" fill="#303030" font-family="SegoeUI, Segoe UI">1</text>
            </a>

            <a class="architecture-tooltip-trigger" href="#">
            <circle fill="#A5CE00" cx="326.5308" cy="202.9386" r="14.5"></circle>
            <text transform="translate(322.52221 207.4386)" font-size="15" fill="#303030" font-family="SegoeUI, Segoe UI">2</text>
            </a>

            <a class="architecture-tooltip-trigger" href="#">
            <circle fill="#A5CE00" cx="486.5308" cy="363.9386" r="14.5"></circle>
            <text transform="translate(483.52221 368.4386)" font-size="15" fill="#303030" font-family="SegoeUI, Segoe UI">3</text>
            </a>

            <a class="architecture-tooltip-trigger" href="#">
            <circle fill="#A5CE00" cx="486.5308" cy="202.9386" r="14.5"></circle>
            <text transform="translate(482.52221 207.4386)" font-size="15" fill="#303030" font-family="SegoeUI, Segoe UI">4</text>
            </a>

            <a class="architecture-tooltip-trigger" href="#">
            <circle fill="#A5CE00" cx="486.5308" cy="41.9386" r="14.5"></circle>
            <text transform="translate(483.52221 46.4386)" font-size="15" fill="#303030" font-family="SegoeUI, Segoe UI">5</text>
            </a>

        </g>
    </g>
</svg>