<svg xmlns="http://www.w3.org/2000/svg" width="961.382" height="235.303" viewBox="0 0 961.382 235.303">
    <path d="M26.336,7.705V40.328c0,3.332,7.635,6.108,16.936,6.108V7.567H26.336Z" fill="#3999c6" />
    <path d="M42.994,46.574h.278c9.3,0,16.936-2.776,16.936-6.108V7.705H42.994Z" fill="#59b4d9" />
    <path d="M60.208,7.705c0,3.332-7.635,6.108-16.936,6.108S26.336,11.037,26.336,7.705,33.971,1.6,43.272,1.6,60.208,4.374,60.208,7.705" fill="#fff" />
    <path d="M56.737,7.289c0,2.221-6.108,4.026-13.465,4.026S29.806,9.51,29.806,7.289s6.108-4.026,13.465-4.026,13.465,1.8,13.465,4.026" fill="#7fba00" />
    <path d="M53.961,9.788c1.8-.694,2.776-1.527,2.776-2.5,0-2.221-6.108-4.026-13.465-4.026-7.5,0-13.465,1.8-13.465,4.026,0,.972,1.111,1.8,2.776,2.5A31.743,31.743,0,0,1,43.272,8.261,31.743,31.743,0,0,1,53.961,9.788" fill="#b8d432" />
    <path d="M7.215,73.066v-9.8H9.922q5.182,0,5.182,4.777a4.817,4.817,0,0,1-1.439,3.647,5.336,5.336,0,0,1-3.852,1.378ZM8.364,64.3v7.725H9.827a4.151,4.151,0,0,0,3-1.033A3.869,3.869,0,0,0,13.9,68.068Q13.9,64.3,9.9,64.3Z" fill="#5b5b5b" />
    <path d="M21.892,73.066H20.771V71.973h-.027A2.349,2.349,0,0,1,18.59,73.23a2.3,2.3,0,0,1-1.637-.555,1.916,1.916,0,0,1-.591-1.469q0-1.963,2.311-2.283l2.1-.295q0-1.784-1.442-1.783a3.446,3.446,0,0,0-2.283.861V66.558a4.337,4.337,0,0,1,2.379-.656q2.468,0,2.468,2.611Zm-1.121-3.541-1.688.232a2.732,2.732,0,0,0-1.176.386,1.114,1.114,0,0,0-.4.981,1.066,1.066,0,0,0,.366.837,1.416,1.416,0,0,0,.974.325,1.8,1.8,0,0,0,1.377-.585,2.088,2.088,0,0,0,.543-1.479Z" fill="#5b5b5b" />
    <path d="M27.251,73a2.166,2.166,0,0,1-1.046.219q-1.839,0-1.839-2.051V67.023h-1.2v-.957h1.2V64.357l1.121-.363v2.072h1.764v.957H25.488v3.943a1.638,1.638,0,0,0,.239,1.006.956.956,0,0,0,.793.3,1.183,1.183,0,0,0,.731-.232Z" fill="#5b5b5b" />
    <path d="M33.759,73.066H32.638V71.973h-.027a2.349,2.349,0,0,1-2.153,1.258,2.3,2.3,0,0,1-1.637-.555,1.916,1.916,0,0,1-.591-1.469q0-1.963,2.311-2.283l2.1-.295q0-1.784-1.442-1.783a3.446,3.446,0,0,0-2.283.861V66.558a4.337,4.337,0,0,1,2.379-.656q2.468,0,2.468,2.611Zm-1.121-3.541-1.688.232a2.732,2.732,0,0,0-1.176.386,1.114,1.114,0,0,0-.4.981,1.066,1.066,0,0,0,.366.837,1.416,1.416,0,0,0,.974.325,1.8,1.8,0,0,0,1.377-.585,2.088,2.088,0,0,0,.543-1.479Z" fill="#5b5b5b" />
    <path d="M39.4,72.67V71.316a2.622,2.622,0,0,0,.557.369,4.505,4.505,0,0,0,.684.276,5.438,5.438,0,0,0,.721.175,4.013,4.013,0,0,0,.67.061,2.627,2.627,0,0,0,1.583-.393,1.475,1.475,0,0,0,.349-1.822,1.962,1.962,0,0,0-.482-.536,4.782,4.782,0,0,0-.728-.465q-.42-.221-.906-.468-.513-.261-.957-.527a4.114,4.114,0,0,1-.772-.588,2.453,2.453,0,0,1-.516-.728,2.482,2.482,0,0,1,.106-2.119,2.52,2.52,0,0,1,.772-.817,3.522,3.522,0,0,1,1.09-.479,5.006,5.006,0,0,1,1.248-.156,4.784,4.784,0,0,1,2.112.348V64.74a3.827,3.827,0,0,0-2.229-.6,3.64,3.64,0,0,0-.752.078,2.137,2.137,0,0,0-.67.256,1.486,1.486,0,0,0-.479.459,1.213,1.213,0,0,0-.185.684,1.4,1.4,0,0,0,.14.648,1.588,1.588,0,0,0,.414.5,4.127,4.127,0,0,0,.667.438q.393.211.906.465t1,.547a4.561,4.561,0,0,1,.827.635,2.826,2.826,0,0,1,.564.773,2.17,2.17,0,0,1,.208.971,2.463,2.463,0,0,1-.284,1.227,2.322,2.322,0,0,1-.766.816,3.345,3.345,0,0,1-1.111.455,6.064,6.064,0,0,1-1.326.141,5.6,5.6,0,0,1-.574-.038c-.228-.024-.46-.062-.7-.109a5.563,5.563,0,0,1-.673-.178A2.143,2.143,0,0,1,39.4,72.67Z" fill="#5b5b5b" />
    <path d="M49.94,73a2.166,2.166,0,0,1-1.046.219q-1.839,0-1.839-2.051V67.023h-1.2v-.957h1.2V64.357l1.121-.363v2.072H49.94v.957H48.176v3.943a1.638,1.638,0,0,0,.239,1.006.956.956,0,0,0,.793.3,1.183,1.183,0,0,0,.731-.232Z" fill="#5b5b5b" />
    <path d="M55.087,67.2a1.371,1.371,0,0,0-.848-.227,1.432,1.432,0,0,0-1.2.678,3.129,3.129,0,0,0-.482,1.846v3.568H51.437v-7h1.121v1.441h.027a2.445,2.445,0,0,1,.731-1.151,1.664,1.664,0,0,1,1.1-.413,1.817,1.817,0,0,1,.67.1Z" fill="#5b5b5b" />
    <path d="M61.746,69.846H56.8a2.617,2.617,0,0,0,.629,1.8,2.168,2.168,0,0,0,1.654.637,3.44,3.44,0,0,0,2.174-.779V72.56a4.065,4.065,0,0,1-2.44.67,2.959,2.959,0,0,1-2.331-.954,3.9,3.9,0,0,1-.848-2.683,3.828,3.828,0,0,1,.926-2.663,2.967,2.967,0,0,1,2.3-1.028,2.631,2.631,0,0,1,2.126.889,3.7,3.7,0,0,1,.752,2.467ZM60.6,68.9a2.284,2.284,0,0,0-.468-1.512,1.6,1.6,0,0,0-1.282-.539,1.811,1.811,0,0,0-1.347.566,2.577,2.577,0,0,0-.684,1.484Z" fill="#5b5b5b" />
    <path d="M68.452,73.066H67.331V71.973H67.3A2.349,2.349,0,0,1,65.15,73.23a2.3,2.3,0,0,1-1.637-.555,1.916,1.916,0,0,1-.591-1.469q0-1.963,2.311-2.283l2.1-.295q0-1.784-1.442-1.783a3.446,3.446,0,0,0-2.283.861V66.558a4.337,4.337,0,0,1,2.379-.656q2.468,0,2.468,2.611Zm-1.121-3.541-1.688.232a2.732,2.732,0,0,0-1.176.386,1.114,1.114,0,0,0-.4.981,1.066,1.066,0,0,0,.366.837,1.416,1.416,0,0,0,.974.325,1.8,1.8,0,0,0,1.377-.585,2.088,2.088,0,0,0,.543-1.479Z" fill="#5b5b5b" />
    <path d="M80.5,73.066H79.382v-4.02a3.029,3.029,0,0,0-.359-1.682,1.36,1.36,0,0,0-1.207-.52,1.494,1.494,0,0,0-1.22.656,2.509,2.509,0,0,0-.5,1.572v3.992H74.973V68.91q0-2.065-1.593-2.064a1.473,1.473,0,0,0-1.217.618,2.559,2.559,0,0,0-.479,1.61v3.992H70.564v-7h1.121v1.107h.027A2.378,2.378,0,0,1,73.886,65.9a2.02,2.02,0,0,1,1.982,1.449A2.5,2.5,0,0,1,78.193,65.9q2.31,0,2.311,2.85Z" fill="#5b5b5b" />
    <path d="M7.369,196.56H6.221V192.09H1.148v4.471H0v-9.8H1.148v4.3H6.221v-4.3H7.369Z" fill="#5b5b5b" />
    <path d="M10.363,187.783a.71.71,0,0,1-.513-.205.693.693,0,0,1-.212-.52.719.719,0,0,1,.725-.732.726.726,0,0,1,.523.209.7.7,0,0,1,.215.523.69.69,0,0,1-.215.512A.717.717,0,0,1,10.363,187.783Zm.547,8.777H9.789v-7H10.91Z" fill="#5b5b5b" />
    <path d="M12.756,196.307v-1.2a3.318,3.318,0,0,0,2.017.678q1.477,0,1.477-.984a.855.855,0,0,0-.126-.476,1.252,1.252,0,0,0-.342-.345,2.581,2.581,0,0,0-.506-.271c-.194-.079-.4-.163-.625-.249a8.1,8.1,0,0,1-.817-.373,2.456,2.456,0,0,1-.588-.424,1.57,1.57,0,0,1-.355-.537,1.891,1.891,0,0,1-.12-.7,1.674,1.674,0,0,1,.226-.872,2,2,0,0,1,.6-.636,2.812,2.812,0,0,1,.858-.387,3.833,3.833,0,0,1,.995-.129,4.011,4.011,0,0,1,1.627.314v1.135a3.166,3.166,0,0,0-1.777-.506,2.077,2.077,0,0,0-.567.071,1.38,1.38,0,0,0-.434.2.918.918,0,0,0-.28.311.819.819,0,0,0-.1.4.956.956,0,0,0,.1.457,1,1,0,0,0,.291.328,2.2,2.2,0,0,0,.465.26c.182.078.39.162.622.254a8.67,8.67,0,0,1,.834.365,2.853,2.853,0,0,1,.629.424,1.657,1.657,0,0,1,.4.543,1.758,1.758,0,0,1,.14.732,1.729,1.729,0,0,1-.229.9,1.959,1.959,0,0,1-.612.635,2.8,2.8,0,0,1-.882.377,4.355,4.355,0,0,1-1.046.123A3.967,3.967,0,0,1,12.756,196.307Z" fill="#5b5b5b" />
    <path d="M22.367,196.492a2.166,2.166,0,0,1-1.046.219q-1.839,0-1.839-2.051v-4.143h-1.2v-.957h1.2v-1.709l1.121-.363v2.072h1.764v.957H20.6v3.943a1.638,1.638,0,0,0,.239,1.006.956.956,0,0,0,.793.3,1.183,1.183,0,0,0,.731-.232Z" fill="#5b5b5b" />
    <path d="M26.681,196.724a3.249,3.249,0,0,1-2.478-.981,3.631,3.631,0,0,1-.926-2.6,3.788,3.788,0,0,1,.964-2.756,3.467,3.467,0,0,1,2.6-.99,3.139,3.139,0,0,1,2.444.963,3.825,3.825,0,0,1,.878,2.674,3.761,3.761,0,0,1-.947,2.683A3.316,3.316,0,0,1,26.681,196.724Zm.082-6.385a2.131,2.131,0,0,0-1.709.734,3.019,3.019,0,0,0-.629,2.027,2.852,2.852,0,0,0,.636,1.961,2.161,2.161,0,0,0,1.7.719,2.049,2.049,0,0,0,1.671-.705,3.053,3.053,0,0,0,.584-2,3.107,3.107,0,0,0-.584-2.023A2.039,2.039,0,0,0,26.763,190.34Z" fill="#5b5b5b" />
    <path d="M35.608,190.7a1.371,1.371,0,0,0-.848-.227,1.432,1.432,0,0,0-1.2.678,3.129,3.129,0,0,0-.482,1.846v3.568H31.958v-7h1.121V191h.027a2.445,2.445,0,0,1,.731-1.151,1.664,1.664,0,0,1,1.1-.413,1.817,1.817,0,0,1,.67.1Z" fill="#5b5b5b" />
    <path d="M37.4,187.783a.71.71,0,0,1-.513-.205.693.693,0,0,1-.212-.52.719.719,0,0,1,.725-.732.726.726,0,0,1,.523.209.7.7,0,0,1,.215.523.69.69,0,0,1-.215.512A.717.717,0,0,1,37.4,187.783Zm.547,8.777H36.825v-7h1.121Z" fill="#5b5b5b" />
    <path d="M44.987,196.238a3.637,3.637,0,0,1-1.914.486,3.169,3.169,0,0,1-2.417-.975,3.529,3.529,0,0,1-.919-2.525,3.881,3.881,0,0,1,.991-2.779,3.468,3.468,0,0,1,2.646-1.049,3.674,3.674,0,0,1,1.627.342v1.148a2.846,2.846,0,0,0-1.668-.547,2.254,2.254,0,0,0-1.76.769,2.92,2.92,0,0,0-.687,2.021,2.78,2.78,0,0,0,.646,1.941,2.228,2.228,0,0,0,1.733.711,2.807,2.807,0,0,0,1.723-.609Z" fill="#5b5b5b" />
    <path d="M51.693,196.56H50.572v-1.094h-.027a2.349,2.349,0,0,1-2.153,1.258,2.3,2.3,0,0,1-1.637-.555,1.916,1.916,0,0,1-.591-1.469q0-1.963,2.311-2.283l2.1-.295q0-1.784-1.442-1.783a3.446,3.446,0,0,0-2.283.861v-1.148a4.337,4.337,0,0,1,2.379-.656q2.468,0,2.468,2.611Zm-1.121-3.541-1.688.232a2.732,2.732,0,0,0-1.176.386,1.114,1.114,0,0,0-.4.981,1.066,1.066,0,0,0,.366.837,1.416,1.416,0,0,0,.974.325,1.8,1.8,0,0,0,1.377-.585,2.088,2.088,0,0,0,.543-1.479Z" fill="#5b5b5b" />
    <path d="M54.927,196.56H53.806V186.2h1.121Z" fill="#5b5b5b" />
    <path d="M61.182,196.56v-9.8h2.707q5.182,0,5.182,4.777a4.817,4.817,0,0,1-1.439,3.647,5.336,5.336,0,0,1-3.852,1.378ZM62.33,187.8v7.725h1.463a4.151,4.151,0,0,0,3-1.033,3.869,3.869,0,0,0,1.073-2.926q0-3.766-4.006-3.766Z" fill="#5b5b5b" />
    <path d="M75.858,196.56H74.737v-1.094H74.71a2.349,2.349,0,0,1-2.153,1.258,2.3,2.3,0,0,1-1.637-.555,1.916,1.916,0,0,1-.591-1.469q0-1.963,2.311-2.283l2.1-.295q0-1.784-1.442-1.783a3.446,3.446,0,0,0-2.283.861v-1.148a4.337,4.337,0,0,1,2.379-.656q2.468,0,2.468,2.611Zm-1.121-3.541-1.688.232a2.732,2.732,0,0,0-1.176.386,1.114,1.114,0,0,0-.4.981,1.066,1.066,0,0,0,.366.837,1.416,1.416,0,0,0,.974.325,1.8,1.8,0,0,0,1.377-.585,2.088,2.088,0,0,0,.543-1.479Z" fill="#5b5b5b" />
    <path d="M81.218,196.492a2.166,2.166,0,0,1-1.046.219q-1.839,0-1.839-2.051v-4.143h-1.2v-.957h1.2v-1.709l1.121-.363v2.072h1.764v.957H79.454v3.943a1.638,1.638,0,0,0,.239,1.006.956.956,0,0,0,.793.3,1.183,1.183,0,0,0,.731-.232Z" fill="#5b5b5b" />
    <path d="M87.726,196.56H86.6v-1.094h-.027a2.349,2.349,0,0,1-2.153,1.258,2.3,2.3,0,0,1-1.637-.555A1.916,1.916,0,0,1,82.2,194.7q0-1.963,2.311-2.283l2.1-.295q0-1.784-1.442-1.783a3.446,3.446,0,0,0-2.283.861v-1.148a4.337,4.337,0,0,1,2.379-.656q2.468,0,2.468,2.611ZM86.6,193.019l-1.688.232a2.732,2.732,0,0,0-1.176.386,1.114,1.114,0,0,0-.4.981,1.066,1.066,0,0,0,.366.837,1.416,1.416,0,0,0,.974.325,1.8,1.8,0,0,0,1.377-.585,2.088,2.088,0,0,0,.543-1.479Z" fill="#5b5b5b" />
    <path d="M215.782,27.426a.63.63,0,0,1-.667.667h-5.2a.63.63,0,0,1-.667-.667V23.56a.63.63,0,0,1,.667-.667h5.2a.63.63,0,0,1,.667.667Z" fill="#b8d432" />
    <path d="M225.115,31.426a.63.63,0,0,1-.667.667h-5.2a.63.63,0,0,1-.667-.667V27.56a.63.63,0,0,1,.667-.667h5.2a.63.63,0,0,1,.667.667Z" fill="#b8d432" />
    <path d="M215.782,35.426a.63.63,0,0,1-.667.667h-5.2a.63.63,0,0,1-.667-.667V31.56a.63.63,0,0,1,.667-.667h5.2a.63.63,0,0,1,.667.667Z" fill="#b8d432" />
    <path d="M206.449,23.426a.63.63,0,0,1-.667.667h-5.333a.63.63,0,0,1-.667-.667v-4a.63.63,0,0,1,.667-.667h5.2c.533,0,.8.267.8.667Z" fill="#b8d432" />
    <path d="M229.782,9.426H192.449a.63.63,0,0,0-.667.667v8a.63.63,0,0,0,.667.667h4a.63.63,0,0,0,.667-.667V14.76h28v3.333c0,.4.267.667.8.667h3.867a.63.63,0,0,0,.667-.667v-8A.63.63,0,0,0,229.782,9.426Z" fill="#0072c6" />
    <path d="M229.782,40.226h-3.867a.63.63,0,0,0-.667.667v3.2H197.115V40.76c0-.4-.267-.667-.8-.667h-3.867c-.4,0-.667.267-.667.8V48.76a.63.63,0,0,0,.667.667h37.333a.63.63,0,0,0,.667-.667V40.893A.63.63,0,0,0,229.782,40.226Z" fill="#0072c6" />
    <path d="M206.449,31.426a.63.63,0,0,1-.667.667h-5.333a.63.63,0,0,1-.667-.667v-4a.63.63,0,0,1,.667-.667h5.2c.533,0,.8.267.8.667Z" fill="#b8d432" />
    <path d="M206.449,39.426a.63.63,0,0,1-.667.667h-5.333a.63.63,0,0,1-.667-.667v-4a.63.63,0,0,1,.667-.667h5.2c.533,0,.8.267.8.667Z" fill="#b8d432" />
    <path d="M396.689,36.964l1.12-2.892L402.94,32.3V28.194l-.56-.187L397.809,26.7l-1.12-2.892,2.332-4.758h0l-2.892-2.892-.56.28-4.2,2.146-2.986-1.213-1.866-4.945h-4.2l-.187.56-1.4,4.385-2.892,1.12L372.9,16.345l-2.986,2.892.28.56,1.306,2.426a14.685,14.685,0,0,1,7.371-1.866,15.049,15.049,0,0,1,9.61,3.919,21.6,21.6,0,0,1,1.773,1.493A7.121,7.121,0,0,1,391,26.794a7.276,7.276,0,0,1-1.866,9.33,7.145,7.145,0,0,1-7.371,1.026c-.28-.187-.466-.187-.56-.28h0a9.686,9.686,0,0,1-1.586-1.12c-.187,0-.28-.187-.56-.187a2.3,2.3,0,0,0-1.586.746l-.187.187h0a14.03,14.03,0,0,1-5.971,3.732L370.472,42l2.8,2.8.187.187.56-.28,4.2-2.146,2.892,1.12,1.586,4.945h4.2l.187-.56,1.493-4.385,2.892-1.12,4.945,2.146,2.8-3.079-.28-.56Z" fill="#7a7a7a" />
    <path d="M371.685,29.687h0A7.448,7.448,0,0,1,360.4,29.5a.784.784,0,0,0-1.306,0,1.059,1.059,0,0,0-.28.746,1.781,1.781,0,0,0,.28.746,9.418,9.418,0,0,0,13.995.187h0a7.483,7.483,0,0,1,11.2.28c.466.466,1.026.466,1.306,0a1.059,1.059,0,0,0,.28-.746,1.781,1.781,0,0,0-.28-.746A9.387,9.387,0,0,0,371.685,29.687Z" fill="#48c8ef" />
    <path d="M378.682,31.459a5.923,5.923,0,0,0-4.478,1.866l-.187.187-.187.187a10.517,10.517,0,0,1-8.117,3.359,11.392,11.392,0,0,1-8.024-3.732c-.466-.466-1.026-.466-1.306,0-.093,0-.093.187-.093.466a1.256,1.256,0,0,0,.466.84,12.334,12.334,0,0,0,9.33,4.385,12.028,12.028,0,0,0,9.423-4.105l.187-.187.187-.187a4.23,4.23,0,0,1,3.079-1.306,4.4,4.4,0,0,1,3.079,1.493c.466.466,1.026.466,1.306,0a1.059,1.059,0,0,0,.28-.746,1.781,1.781,0,0,0-.28-.746A7.589,7.589,0,0,0,378.682,31.459Z" fill="#00abec" />
    <path d="M370.845,27.634a10.941,10.941,0,0,1,8.117-3.452,10.82,10.82,0,0,1,7.837,3.732c.466.466,1.026.466,1.306,0a1.059,1.059,0,0,0,.28-.746,1.781,1.781,0,0,0-.28-.746,12.334,12.334,0,0,0-9.33-4.385,12.531,12.531,0,0,0-9.423,4.105l-.187.187-.187.187a4.09,4.09,0,0,1-6.158-.187c-.466-.466-1.026-.466-1.306,0a1.059,1.059,0,0,0-.28.746,1.781,1.781,0,0,0,.28.746,5.993,5.993,0,0,0,8.863.187l.187-.187Z" fill="#84d6ef" />
    <g opacity="0.2" style="isolation: isolate">
        <path d="M379.522,35.658c-.187,0-.28-.187-.56-.187a2.3,2.3,0,0,0-1.586.746l-.187.187a14.03,14.03,0,0,1-5.971,3.732l-.84,1.773,1.493,1.493,7.651-7.744Z" fill="#f1f1f1" />
        <path d="M371.592,22.316a14.685,14.685,0,0,1,7.371-1.866,15.049,15.049,0,0,1,9.61,3.919c.466.373.84.653,1.306,1.026l7.744-7.744-1.586-1.586-.56.28-4.2,2.146-2.892-1.12-1.866-4.945h-4.2l-.187.56-1.4,4.385-2.892,1.12L372.9,16.345l-2.986,2.892.28.56Z" fill="#f1f1f1" />
    </g>

    <path d="M188,71.849h-5.2v-9.8h4.977v1.039h-3.828v3.261h3.541v1.032h-3.541v3.432H188Z" fill="#5b5b5b" />
    <path d="M195.237,64.849l-2.789,7h-1.1l-2.652-7h1.23l1.777,5.086a4.589,4.589,0,0,1,.246.978h.027a4.592,4.592,0,0,1,.219-.95l1.859-5.113Z" fill="#5b5b5b" />
    <path d="M201.984,68.629h-4.942a2.617,2.617,0,0,0,.629,1.8,2.168,2.168,0,0,0,1.654.636,3.44,3.44,0,0,0,2.174-.779v1.053a4.065,4.065,0,0,1-2.44.67,2.955,2.955,0,0,1-2.331-.954,3.9,3.9,0,0,1-.848-2.683,3.83,3.83,0,0,1,.926-2.663,2.97,2.97,0,0,1,2.3-1.028,2.631,2.631,0,0,1,2.126.889,3.706,3.706,0,0,1,.752,2.468Zm-1.148-.95a2.28,2.28,0,0,0-.468-1.511,1.6,1.6,0,0,0-1.282-.54,1.808,1.808,0,0,0-1.347.567,2.577,2.577,0,0,0-.684,1.483Z" fill="#5b5b5b" />
    <path d="M209.49,71.849h-1.121V67.856q0-2.228-1.627-2.229a1.766,1.766,0,0,0-1.391.632,2.345,2.345,0,0,0-.55,1.6v3.992h-1.121v-7H204.8v1.162h.027a2.527,2.527,0,0,1,2.3-1.326,2.142,2.142,0,0,1,1.757.741,3.306,3.306,0,0,1,.608,2.144Z" fill="#5b5b5b" />
    <path d="M214.849,71.78A2.166,2.166,0,0,1,213.8,72q-1.839,0-1.839-2.051V65.806h-1.2v-.957h1.2V63.14l1.121-.362v2.071h1.764v.957h-1.764V69.75a1.635,1.635,0,0,0,.239,1,.956.956,0,0,0,.793.3,1.177,1.177,0,0,0,.731-.232Z" fill="#5b5b5b" />
    <path d="M227.7,71.849h-1.148V67.378H221.48v4.471h-1.148v-9.8h1.148v4.3h5.072v-4.3H227.7Z" fill="#5b5b5b" />
    <path d="M235.781,71.849H234.66V70.741h-.027a2.3,2.3,0,0,1-2.16,1.271q-2.5,0-2.5-2.98V64.849h1.114v4.006q0,2.215,1.7,2.215a1.718,1.718,0,0,0,1.35-.6,2.319,2.319,0,0,0,.53-1.583V64.849h1.121Z" fill="#5b5b5b" />
    <path d="M239.192,70.837h-.027v1.012h-1.121V61.485h1.121v4.594h.027a2.651,2.651,0,0,1,2.42-1.395,2.565,2.565,0,0,1,2.109.94,3.879,3.879,0,0,1,.762,2.519,4.343,4.343,0,0,1-.854,2.813,2.848,2.848,0,0,1-2.338,1.056A2.3,2.3,0,0,1,239.192,70.837Zm-.027-2.823v.978a2.084,2.084,0,0,0,.564,1.474,2.012,2.012,0,0,0,3.028-.175,3.574,3.574,0,0,0,.578-2.167,2.822,2.822,0,0,0-.54-1.832,1.789,1.789,0,0,0-1.463-.663,1.984,1.984,0,0,0-1.572.681A2.5,2.5,0,0,0,239.165,68.014Z" fill="#5b5b5b" />
    <path d="M332.368,71.452V70.1a2.622,2.622,0,0,0,.557.369,4.407,4.407,0,0,0,.684.276,5.29,5.29,0,0,0,.721.175,4.02,4.02,0,0,0,.67.062,2.627,2.627,0,0,0,1.583-.393,1.475,1.475,0,0,0,.349-1.822,1.979,1.979,0,0,0-.482-.537,4.859,4.859,0,0,0-.728-.465q-.42-.221-.906-.468-.513-.259-.957-.526a4.114,4.114,0,0,1-.772-.588,2.457,2.457,0,0,1-.516-.729,2.482,2.482,0,0,1,.106-2.119,2.527,2.527,0,0,1,.772-.816,3.5,3.5,0,0,1,1.09-.479,4.961,4.961,0,0,1,1.248-.157,4.781,4.781,0,0,1,2.112.349v1.292a3.827,3.827,0,0,0-2.229-.6,3.642,3.642,0,0,0-.752.079,2.09,2.09,0,0,0-.67.256,1.494,1.494,0,0,0-.479.458,1.216,1.216,0,0,0-.185.684,1.4,1.4,0,0,0,.14.649,1.6,1.6,0,0,0,.414.5,4.127,4.127,0,0,0,.667.438q.393.212.906.465t1,.547a4.565,4.565,0,0,1,.827.636,2.837,2.837,0,0,1,.564.772,2.173,2.173,0,0,1,.208.971,2.467,2.467,0,0,1-.284,1.228,2.33,2.33,0,0,1-.766.816,3.366,3.366,0,0,1-1.111.455,6.125,6.125,0,0,1-1.326.14,5.333,5.333,0,0,1-.574-.038q-.342-.037-.7-.109a5.388,5.388,0,0,1-.673-.178A2.069,2.069,0,0,1,332.368,71.452Z" fill="#5b5b5b" />
    <path d="M342.909,71.78a2.166,2.166,0,0,1-1.046.219q-1.839,0-1.839-2.051V65.806h-1.2v-.957h1.2V63.14l1.121-.362v2.071h1.764v.957h-1.764V69.75a1.635,1.635,0,0,0,.239,1,.956.956,0,0,0,.793.3,1.177,1.177,0,0,0,.731-.232Z" fill="#5b5b5b" />
    <path d="M348.056,65.983a1.371,1.371,0,0,0-.848-.226,1.431,1.431,0,0,0-1.2.677,3.129,3.129,0,0,0-.482,1.846v3.568h-1.121v-7h1.121v1.442h.027a2.449,2.449,0,0,1,.731-1.152,1.669,1.669,0,0,1,1.1-.413,1.838,1.838,0,0,1,.67.1Z" fill="#5b5b5b" />
    <path d="M354.714,68.629h-4.942a2.617,2.617,0,0,0,.629,1.8,2.168,2.168,0,0,0,1.654.636,3.44,3.44,0,0,0,2.174-.779v1.053a4.065,4.065,0,0,1-2.44.67,2.955,2.955,0,0,1-2.331-.954,3.9,3.9,0,0,1-.848-2.683,3.83,3.83,0,0,1,.926-2.663,2.97,2.97,0,0,1,2.3-1.028,2.631,2.631,0,0,1,2.126.889,3.706,3.706,0,0,1,.752,2.468Zm-1.148-.95a2.28,2.28,0,0,0-.468-1.511,1.6,1.6,0,0,0-1.282-.54,1.808,1.808,0,0,0-1.347.567,2.577,2.577,0,0,0-.684,1.483Z" fill="#5b5b5b" />
    <path d="M361.42,71.849H360.3V70.755h-.027a2.347,2.347,0,0,1-2.153,1.258,2.3,2.3,0,0,1-1.637-.554,1.919,1.919,0,0,1-.591-1.47q0-1.961,2.311-2.283l2.1-.294q0-1.784-1.442-1.784a3.446,3.446,0,0,0-2.283.861V65.341a4.337,4.337,0,0,1,2.379-.656q2.468,0,2.468,2.611ZM360.3,68.307l-1.688.232a2.759,2.759,0,0,0-1.176.386,1.115,1.115,0,0,0-.4.981,1.066,1.066,0,0,0,.366.837,1.411,1.411,0,0,0,.974.325,1.8,1.8,0,0,0,1.377-.585A2.086,2.086,0,0,0,360.3,69Z" fill="#5b5b5b" />
    <path d="M373.472,71.849h-1.121v-4.02a3.034,3.034,0,0,0-.359-1.682,1.36,1.36,0,0,0-1.207-.52,1.494,1.494,0,0,0-1.22.656,2.511,2.511,0,0,0-.5,1.572v3.992h-1.121V67.692q0-2.064-1.593-2.064a1.476,1.476,0,0,0-1.217.618,2.559,2.559,0,0,0-.479,1.61v3.992h-1.121v-7h1.121v1.107h.027a2.378,2.378,0,0,1,2.174-1.271,2.02,2.02,0,0,1,1.982,1.449,2.5,2.5,0,0,1,2.324-1.449q2.31,0,2.311,2.851Z" fill="#5b5b5b" />
    <path d="M387.165,71.849h-1.271L384.854,69.1H380.7l-.978,2.748h-1.278l3.76-9.8h1.189Zm-2.687-3.78-1.538-4.177a3.974,3.974,0,0,1-.15-.656h-.027a3.668,3.668,0,0,1-.157.656l-1.524,4.177Z" fill="#5b5b5b" />
    <path d="M394.267,71.849h-1.121V67.856q0-2.228-1.627-2.229a1.766,1.766,0,0,0-1.391.632,2.345,2.345,0,0,0-.55,1.6v3.992h-1.121v-7h1.121v1.162h.027a2.527,2.527,0,0,1,2.3-1.326,2.142,2.142,0,0,1,1.757.741,3.306,3.306,0,0,1,.608,2.144Z" fill="#5b5b5b" />
    <path d="M401.39,71.849h-1.121V70.755h-.027a2.347,2.347,0,0,1-2.153,1.258,2.3,2.3,0,0,1-1.637-.554,1.919,1.919,0,0,1-.591-1.47q0-1.961,2.311-2.283l2.1-.294q0-1.784-1.442-1.784a3.446,3.446,0,0,0-2.283.861V65.341a4.337,4.337,0,0,1,2.379-.656q2.468,0,2.468,2.611Zm-1.121-3.541-1.688.232a2.759,2.759,0,0,0-1.176.386,1.115,1.115,0,0,0-.4.981,1.066,1.066,0,0,0,.366.837,1.411,1.411,0,0,0,.974.325,1.8,1.8,0,0,0,1.377-.585A2.086,2.086,0,0,0,400.269,69Z" fill="#5b5b5b" />
    <path d="M404.624,71.849H403.5V61.485h1.121Z" fill="#5b5b5b" />
    <path d="M412.464,64.849l-3.22,8.121q-.861,2.174-2.42,2.174a2.587,2.587,0,0,1-.731-.089v-1a2.077,2.077,0,0,0,.663.123,1.374,1.374,0,0,0,1.271-1.012l.561-1.326-2.734-6.986H407.1l1.894,5.387q.034.1.144.533h.041q.034-.164.137-.52l1.989-5.4Z" fill="#5b5b5b" />
    <path d="M416.956,71.78A2.166,2.166,0,0,1,415.91,72q-1.839,0-1.839-2.051V65.806h-1.2v-.957h1.2V63.14l1.121-.362v2.071h1.764v.957h-1.764V69.75a1.635,1.635,0,0,0,.239,1,.956.956,0,0,0,.793.3,1.177,1.177,0,0,0,.731-.232Z" fill="#5b5b5b" />
    <path d="M419.027,63.071a.71.71,0,0,1-.513-.205.691.691,0,0,1-.212-.52.719.719,0,0,1,.725-.731.722.722,0,0,1,.523.209.73.73,0,0,1,0,1.035A.72.72,0,0,1,419.027,63.071Zm.547,8.777h-1.121v-7h1.121Z" fill="#5b5b5b" />
    <path d="M426.615,71.527a3.637,3.637,0,0,1-1.914.485,3.172,3.172,0,0,1-2.417-.974,3.533,3.533,0,0,1-.919-2.526,3.878,3.878,0,0,1,.991-2.778A3.465,3.465,0,0,1,425,64.684a3.687,3.687,0,0,1,1.627.342v1.148a2.853,2.853,0,0,0-1.668-.547,2.257,2.257,0,0,0-1.76.769,2.921,2.921,0,0,0-.687,2.021,2.778,2.778,0,0,0,.646,1.941,2.228,2.228,0,0,0,1.733.711,2.806,2.806,0,0,0,1.723-.608Z" fill="#5b5b5b" />
    <path d="M427.886,71.6v-1.2a3.317,3.317,0,0,0,2.017.677q1.477,0,1.477-.984a.859.859,0,0,0-.126-.476,1.279,1.279,0,0,0-.342-.345,2.634,2.634,0,0,0-.506-.271q-.291-.119-.625-.249a8.107,8.107,0,0,1-.817-.372,2.51,2.51,0,0,1-.588-.424,1.58,1.58,0,0,1-.355-.537,1.9,1.9,0,0,1-.12-.7,1.677,1.677,0,0,1,.226-.872,2,2,0,0,1,.6-.635,2.766,2.766,0,0,1,.858-.387,3.833,3.833,0,0,1,.995-.13,4.011,4.011,0,0,1,1.627.314v1.135a3.174,3.174,0,0,0-1.777-.506,2.116,2.116,0,0,0-.567.071,1.4,1.4,0,0,0-.434.2.931.931,0,0,0-.28.312.816.816,0,0,0-.1.4.957.957,0,0,0,.1.458,1,1,0,0,0,.291.328,2.244,2.244,0,0,0,.465.26q.273.117.622.253a8.427,8.427,0,0,1,.834.366,2.819,2.819,0,0,1,.629.424,1.646,1.646,0,0,1,.4.543,1.756,1.756,0,0,1,.14.731,1.724,1.724,0,0,1-.229.9,1.962,1.962,0,0,1-.612.636,2.821,2.821,0,0,1-.882.376,4.355,4.355,0,0,1-1.046.123A3.979,3.979,0,0,1,427.886,71.6Z" fill="#5b5b5b" />
    <rect x="257.227" y="28.344" width="81.265" height="1.5" fill="#969696" />
    <polygon points="336.961 23.858 346.028 29.094 336.961 34.329 336.961 23.858" fill="#969696" />
    <rect x="89.227" y="28.344" width="81.265" height="1.5" fill="#969696" />
    <polygon points="168.961 23.858 178.028 29.094 168.961 34.329 168.961 23.858" fill="#969696" />
    <rect x="609.762" y="188.344" width="81.265" height="1.5" fill="#969696" />
    <polygon points="611.294 194.329 602.227 189.094 611.294 183.858 611.294 194.329" fill="#969696" />
    <rect x="425.219" y="28.344" width="81.265" height="1.5" fill="#969696" />
    <polygon points="504.952 23.858 514.019 29.094 504.952 34.329 504.952 23.858" fill="#969696" />
    <rect x="106.233" y="189.836" width="401.265" height="1.5" fill="#969696" />
    <polygon points="505.966 185.35 515.033 190.586 505.966 195.821 505.966 185.35" fill="#969696" />
    <rect x="607.219" y="28.344" width="241.265" height="1.5" fill="#969696" />
    <polygon points="846.952 23.858 856.019 29.094 846.952 34.329 846.952 23.858" fill="#969696" />
    <rect x="542.427" y="16.495" width="5.179" height="5.179" fill="#7fbb42" />
    <rect x="538.321" y="30.539" width="5.179" height="5.179" fill="#7fbb42" />
    <rect x="545.691" y="30.539" width="5.179" height="5.179" fill="#7fbb42" />
    <rect x="552.988" y="30.539" width="5.179" height="5.179" fill="#7fbb42" />
    <rect x="538.321" y="23.517" width="5.179" height="5.179" fill="#7fbb42" />
    <rect x="545.691" y="23.517" width="5.179" height="5.179" fill="#7fbb42" />
    <polygon points="550.797 0 529.399 10.837 529.399 14 533.562 14 533.562 35.893 537.044 35.893 537.044 14 562.404 14 562.404 34.5 566.234 34.5 566.234 14 570.05 14 570.05 10.837 550.797 0" fill="#3999c6" />
    <g opacity="0.8" style="isolation: isolate">
        <polygon points="547.606 21.675 547.011 21.675 547.011 17.163 542.427 17.163 542.427 16.495 547.606 16.495 547.606 21.675" fill="#b8d433" />
    </g>
    <g opacity="0.5" style="isolation: isolate">
        <polygon points="542.427 16.495 543.022 16.495 543.022 21.022 547.606 21.022 547.606 21.675 542.427 21.675 542.427 16.495" fill="#b8d433" />
    </g>
    <g opacity="0.8" style="isolation: isolate">
        <polygon points="543.5 28.697 542.92 28.697 542.92 24.185 538.321 24.185 538.321 23.517 543.5 23.517 543.5 28.697" fill="#b8d433" />
    </g>
    <g opacity="0.5" style="isolation: isolate">
        <polygon points="538.321 23.517 538.916 23.517 538.916 28.029 543.5 28.029 543.5 28.697 538.321 28.697 538.321 23.517" fill="#b8d433" />
    </g>
    <g opacity="0.8" style="isolation: isolate">
        <polygon points="550.899 28.697 550.276 28.697 550.276 24.185 545.691 24.185 545.691 23.517 550.899 23.517 550.899 28.697" fill="#b8d433" />
    </g>
    <g opacity="0.5" style="isolation: isolate">
        <polygon points="545.691 23.517 546.315 23.517 546.315 28.029 550.899 28.029 550.899 28.697 545.691 28.697 545.691 23.517" fill="#b8d433" />
    </g>
    <g opacity="0.8" style="isolation: isolate">
        <polygon points="543.5 35.718 542.92 35.718 542.92 31.192 538.321 31.192 538.321 30.539 543.5 30.539 543.5 35.718" fill="#b8d433" />
    </g>
    <g opacity="0.5" style="isolation: isolate">
        <polygon points="538.321 30.539 538.916 30.539 538.916 35.051 543.5 35.051 543.5 35.718 538.321 35.718 538.321 30.539" fill="#b8d433" />
    </g>
    <g opacity="0.8" style="isolation: isolate">
        <polygon points="550.899 35.718 550.276 35.718 550.276 31.192 545.691 31.192 545.691 30.539 550.899 30.539 550.899 35.718" fill="#b8d433" />
    </g>
    <g opacity="0.5" style="isolation: isolate">
        <polygon points="545.691 30.539 546.315 30.539 546.315 35.051 550.899 35.051 550.899 35.718 545.691 35.718 545.691 30.539" fill="#b8d433" />
    </g>
    <g opacity="0.8" style="isolation: isolate">
        <polygon points="558.168 35.718 557.573 35.718 557.573 31.192 552.988 31.192 552.988 30.539 558.168 30.539 558.168 35.718" fill="#b8d433" />
    </g>
    <g opacity="0.5" style="isolation: isolate">
        <polygon points="552.988 30.539 553.583 30.539 553.583 35.051 558.168 35.051 558.168 35.718 552.988 35.718 552.988 30.539" fill="#b8d433" />
    </g>
    <g opacity="0.8" style="isolation: isolate">
        <polygon points="543.196 21.675 542.427 21.675 542.427 21.08 546.91 16.495 547.606 16.495 547.606 17.018 543.196 21.675" fill="#b8d433" />
    </g>
    <g opacity="0.8" style="isolation: isolate">
        <polygon points="546.46 28.697 545.691 28.697 545.691 28.102 550.217 23.517 550.899 23.517 550.899 24.04 546.46 28.697" fill="#b8d433" />
    </g>
    <g opacity="0.8" style="isolation: isolate">
        <polygon points="539.09 28.697 538.321 28.697 538.321 28.102 542.804 23.517 543.5 23.517 543.5 24.04 539.09 28.697" fill="#b8d433" />
    </g>
    <g opacity="0.8" style="isolation: isolate">
        <polygon points="539.09 35.718 538.321 35.718 538.321 35.124 542.804 30.539 543.5 30.539 543.5 31.061 539.09 35.718" fill="#b8d433" />
    </g>
    <g opacity="0.8" style="isolation: isolate">
        <polygon points="546.46 35.718 545.691 35.718 545.691 35.124 550.217 30.539 550.899 30.539 550.899 31.061 546.46 35.718" fill="#b8d433" />
    </g>
    <g opacity="0.8" style="isolation: isolate">
        <polygon points="553.757 35.718 552.988 35.718 552.988 35.124 557.471 30.539 558.168 30.539 558.168 31.061 553.757 35.718" fill="#b8d433" />
    </g>

    <path d="M560.083,25.81V48.355c0,2.321,5.252,4.236,11.708,4.236V25.81Z" fill="#3999c6" />
    <path d="M571.617,52.606h.174c6.471,0,11.708-1.915,11.708-4.236V25.81H571.617v26.8Z" fill="#5ab4d9" />
    <path d="M583.5,25.81c0,2.321-5.252,4.236-11.708,4.236s-11.708-1.9-11.708-4.236,5.252-4.236,11.708-4.236S583.5,23.445,583.5,25.81" fill="#fff" />
    <path d="M581.1,25.563c0,1.523-4.164,2.815-9.314,2.815s-9.314-1.248-9.314-2.815c0-1.523,4.164-2.815,9.314-2.815s9.314,1.262,9.314,2.815" fill="#7fbb42" />
    <path d="M579.161,27.275c1.219-.493,1.944-1.074,1.944-1.7,0-1.523-4.164-2.815-9.314-2.815s-9.314,1.248-9.314,2.815c0,.667.725,1.248,1.944,1.7a21.7,21.7,0,0,1,7.37-1.074,20.72,20.72,0,0,1,7.37,1.074" fill="#b8d433" />

    <path d="M563,41.971v-1.6a2.933,2.933,0,0,0,.943.551,3.726,3.726,0,0,0,1,.174,1.814,1.814,0,0,0,.522-.073.976.976,0,0,0,.377-.145.47.47,0,0,0,.2-.247.97.97,0,0,0,.073-.276.639.639,0,0,0-.1-.377,1.646,1.646,0,0,0-.319-.319c-.145-.1-.319-.174-.493-.276-.174-.073-.377-.174-.624-.276a3.724,3.724,0,0,1-1.248-.827,1.856,1.856,0,0,1-.421-1.219,2.017,2.017,0,0,1,.2-.943,1.885,1.885,0,0,1,.595-.667,2.192,2.192,0,0,1,.9-.377,5.185,5.185,0,0,1,1.074-.1,6.189,6.189,0,0,1,.972.073,2.932,2.932,0,0,1,.8.2v1.494a2.309,2.309,0,0,0-.377-.2,3.582,3.582,0,0,0-.421-.145c-.145-.029-.319-.073-.45-.1a2.053,2.053,0,0,0-.421-.029,2.655,2.655,0,0,0-.493.029.976.976,0,0,0-.377.145c-.1.073-.174.145-.247.2a.4.4,0,0,0-.073.276.586.586,0,0,0,.1.319,1.234,1.234,0,0,0,.276.276,2.148,2.148,0,0,0,.421.247c.174.073.348.174.551.247a4.742,4.742,0,0,1,.769.377,2.779,2.779,0,0,1,.595.45,1.67,1.67,0,0,1,.377.595,2.2,2.2,0,0,1,.145.769,2.368,2.368,0,0,1-.2,1,1.719,1.719,0,0,1-.624.667,2.38,2.38,0,0,1-.9.348,5.185,5.185,0,0,1-1.074.1,5.615,5.615,0,0,1-1.117-.1A1.934,1.934,0,0,1,563,41.971Z" fill="#fff" />
    <path d="M571.994,42.392a3.412,3.412,0,0,1-2.5-1,3.668,3.668,0,0,1-.972-2.611,3.794,3.794,0,0,1,.972-2.713,3.357,3.357,0,0,1,2.568-1.045,3.3,3.3,0,0,1,2.466,1,3.651,3.651,0,0,1,.943,2.64,3.794,3.794,0,0,1-.972,2.713l-.073.073-.073.073,1.813,1.741h-2.263l-.943-.972A4.241,4.241,0,0,1,571.994,42.392Zm.073-5.977a1.664,1.664,0,0,0-1.349.624,2.514,2.514,0,0,0-.493,1.668,2.684,2.684,0,0,0,.493,1.668,1.593,1.593,0,0,0,1.291.624,1.669,1.669,0,0,0,1.32-.595,2.684,2.684,0,0,0,.493-1.668A2.851,2.851,0,0,0,573.329,37,1.506,1.506,0,0,0,572.066,36.415Z" fill="#fff" />
    <path d="M580.931,42.247h-4.236V35.124h1.6v5.8h2.64v1.32Z" fill="#fff" />
    <path d="M749.064,203.716,737.855,184.3v-7.86h.2a2.427,2.427,0,1,0,0-4.855H725.828a2.428,2.428,0,0,0,0,4.856h.2V184.3l-11.209,19.414c-1.23,2.129-.224,3.871,2.235,3.871h29.773C749.288,207.587,750.293,205.845,749.064,203.716Z" fill="#59b4d9" />
    <polygon points="724.054 195.359 719.428 203.37 744.457 203.37 739.832 195.359 724.054 195.359" fill="#b8d432" />
    <path d="M732.537,198.61a2.257,2.257,0,0,0,2.031-3.251h-4.063a2.257,2.257,0,0,0,2.032,3.251Z" fill="#7fba00" />
    <circle cx="735.344" cy="200.355" r="1.11" fill="#7fba00" />
    <g opacity="0.25" style="isolation: isolate">
        <path d="M714.822,203.716,726.031,184.3v-7.859h-.2a2.427,2.427,0,1,1,0-4.855h5.27v12.652l-5.908,23.348h-8.134C714.6,207.587,713.592,205.845,714.822,203.716Z" fill="#fff" />
    </g>

    <path d="M690.473,232.008h-1.142v-6.576q0-.779.1-1.906H689.4a6.119,6.119,0,0,1-.294.949l-3.35,7.533H685.2l-3.343-7.479a5.828,5.828,0,0,1-.294-1h-.027q.055.587.055,1.92v6.563h-1.107v-9.8H682L685,229.041a8.77,8.77,0,0,1,.451,1.176h.041q.294-.806.472-1.2l3.069-6.809h1.436Z" fill="#5b5b5b" />
    <path d="M697.91,232.008h-1.121v-1.094h-.027a2.347,2.347,0,0,1-2.153,1.258,2.3,2.3,0,0,1-1.637-.553,1.919,1.919,0,0,1-.591-1.471q0-1.961,2.311-2.283l2.1-.293q0-1.784-1.442-1.785a3.446,3.446,0,0,0-2.283.861V225.5a4.337,4.337,0,0,1,2.379-.656q2.468,0,2.468,2.611Zm-1.121-3.541-1.688.232a2.745,2.745,0,0,0-1.176.387,1.113,1.113,0,0,0-.4.98,1.07,1.07,0,0,0,.366.838,1.411,1.411,0,0,0,.974.324,1.8,1.8,0,0,0,1.377-.584,2.088,2.088,0,0,0,.543-1.48Z" fill="#5b5b5b" />
    <path d="M704.794,231.687a3.646,3.646,0,0,1-1.914.484,3.168,3.168,0,0,1-2.417-.974,3.53,3.53,0,0,1-.919-2.526,3.881,3.881,0,0,1,.991-2.778,3.465,3.465,0,0,1,2.646-1.05,3.687,3.687,0,0,1,1.627.342v1.148a2.853,2.853,0,0,0-1.668-.547,2.254,2.254,0,0,0-1.76.77,2.917,2.917,0,0,0-.687,2.02,2.778,2.778,0,0,0,.646,1.941,2.224,2.224,0,0,0,1.733.711,2.811,2.811,0,0,0,1.723-.607Z" fill="#5b5b5b" />
    <path d="M712.3,232.008h-1.121v-4.033q0-2.187-1.627-2.187a1.773,1.773,0,0,0-1.381.633,2.356,2.356,0,0,0-.561,1.623v3.965h-1.121V221.644h1.121v4.525h.027a2.546,2.546,0,0,1,2.3-1.326q2.365,0,2.365,2.852Z" fill="#5b5b5b" />
    <path d="M714.986,223.23a.71.71,0,0,1-.513-.205.691.691,0,0,1-.212-.52.717.717,0,0,1,.725-.73.721.721,0,0,1,.523.208.731.731,0,0,1,0,1.036A.72.72,0,0,1,714.986,223.23Zm.547,8.777h-1.121v-7h1.121Z" fill="#5b5b5b" />
    <path d="M723.613,232.008h-1.121v-3.992q0-2.228-1.627-2.229a1.764,1.764,0,0,0-1.391.633,2.343,2.343,0,0,0-.55,1.6v3.992H717.8v-7h1.121v1.162h.027a2.527,2.527,0,0,1,2.3-1.326,2.143,2.143,0,0,1,1.757.742,3.3,3.3,0,0,1,.608,2.143Z" fill="#5b5b5b" />
    <path d="M731.352,228.789h-4.942a2.617,2.617,0,0,0,.629,1.8,2.167,2.167,0,0,0,1.654.635,3.44,3.44,0,0,0,2.174-.779V231.5a4.058,4.058,0,0,1-2.44.67,2.958,2.958,0,0,1-2.331-.953,3.9,3.9,0,0,1-.848-2.684,3.826,3.826,0,0,1,.926-2.662,2.971,2.971,0,0,1,2.3-1.029,2.634,2.634,0,0,1,2.126.889,3.709,3.709,0,0,1,.752,2.469Zm-1.148-.951a2.279,2.279,0,0,0-.468-1.51,1.6,1.6,0,0,0-1.282-.541,1.809,1.809,0,0,0-1.347.568,2.571,2.571,0,0,0-.684,1.482Z" fill="#5b5b5b" />
    <path d="M742.118,232.008h-5.086v-9.8h1.148v8.764h3.938Z" fill="#5b5b5b" />
    <path d="M749.1,228.789h-4.942a2.617,2.617,0,0,0,.629,1.8,2.167,2.167,0,0,0,1.654.635,3.44,3.44,0,0,0,2.174-.779V231.5a4.058,4.058,0,0,1-2.44.67,2.958,2.958,0,0,1-2.331-.953,3.9,3.9,0,0,1-.848-2.684,3.826,3.826,0,0,1,.926-2.662,2.971,2.971,0,0,1,2.3-1.029,2.634,2.634,0,0,1,2.126.889,3.709,3.709,0,0,1,.752,2.469Zm-1.148-.951a2.279,2.279,0,0,0-.468-1.51,1.6,1.6,0,0,0-1.282-.541,1.809,1.809,0,0,0-1.347.568,2.571,2.571,0,0,0-.684,1.482Z" fill="#5b5b5b" />
    <path d="M755.8,232.008h-1.121v-1.094h-.027a2.347,2.347,0,0,1-2.153,1.258,2.3,2.3,0,0,1-1.637-.553,1.919,1.919,0,0,1-.591-1.471q0-1.961,2.311-2.283l2.1-.293q0-1.784-1.442-1.785a3.446,3.446,0,0,0-2.283.861V225.5a4.337,4.337,0,0,1,2.379-.656q2.468,0,2.468,2.611Zm-1.121-3.541-1.688.232a2.745,2.745,0,0,0-1.176.387,1.113,1.113,0,0,0-.4.98,1.07,1.07,0,0,0,.366.838,1.411,1.411,0,0,0,.974.324,1.8,1.8,0,0,0,1.377-.584,2.088,2.088,0,0,0,.543-1.48Z" fill="#5b5b5b" />
    <path d="M761.566,226.142a1.371,1.371,0,0,0-.848-.225,1.43,1.43,0,0,0-1.2.676,3.129,3.129,0,0,0-.482,1.846v3.568h-1.121v-7h1.121v1.443h.027a2.444,2.444,0,0,1,.731-1.152,1.67,1.67,0,0,1,1.1-.414,1.838,1.838,0,0,1,.67.1Z" fill="#5b5b5b" />
    <path d="M768.566,232.008h-1.121v-3.992q0-2.228-1.627-2.229a1.764,1.764,0,0,0-1.391.633,2.343,2.343,0,0,0-.55,1.6v3.992h-1.121v-7h1.121v1.162h.027a2.527,2.527,0,0,1,2.3-1.326,2.143,2.143,0,0,1,1.757.742,3.3,3.3,0,0,1,.608,2.143Z" fill="#5b5b5b" />
    <path d="M771.253,223.23a.71.71,0,0,1-.513-.205.691.691,0,0,1-.212-.52.717.717,0,0,1,.725-.73.721.721,0,0,1,.523.208.731.731,0,0,1,0,1.036A.72.72,0,0,1,771.253,223.23Zm.547,8.777h-1.121v-7H771.8Z" fill="#5b5b5b" />
    <path d="M779.88,232.008h-1.121v-3.992q0-2.228-1.627-2.229a1.764,1.764,0,0,0-1.391.633,2.343,2.343,0,0,0-.55,1.6v3.992h-1.121v-7h1.121v1.162h.027a2.527,2.527,0,0,1,2.3-1.326,2.143,2.143,0,0,1,1.757.742,3.3,3.3,0,0,1,.608,2.143Z" fill="#5b5b5b" />
    <path d="M787.967,231.447q0,3.855-3.691,3.855a4.956,4.956,0,0,1-2.27-.492v-1.121a4.661,4.661,0,0,0,2.256.656q2.584,0,2.584-2.748v-.766h-.027a2.833,2.833,0,0,1-4.508.407,3.729,3.729,0,0,1-.8-2.5,4.361,4.361,0,0,1,.858-2.838,2.867,2.867,0,0,1,2.348-1.053,2.283,2.283,0,0,1,2.1,1.135h.027v-.971h1.121Zm-1.121-2.6V227.81a2,2,0,0,0-.564-1.428,1.858,1.858,0,0,0-1.4-.6,1.946,1.946,0,0,0-1.627.756,3.371,3.371,0,0,0-.588,2.115,2.9,2.9,0,0,0,.564,1.87,1.82,1.82,0,0,0,1.494.7,1.949,1.949,0,0,0,1.535-.67A2.5,2.5,0,0,0,786.846,228.844Z" fill="#5b5b5b" />
    <path d="M534.383,71.128V69.774a2.622,2.622,0,0,0,.557.369,4.407,4.407,0,0,0,.684.276,5.29,5.29,0,0,0,.721.175,4.02,4.02,0,0,0,.67.062,2.627,2.627,0,0,0,1.583-.393,1.475,1.475,0,0,0,.349-1.822,1.979,1.979,0,0,0-.482-.537,4.859,4.859,0,0,0-.728-.465q-.42-.221-.906-.468-.513-.259-.957-.526a4.114,4.114,0,0,1-.772-.588,2.457,2.457,0,0,1-.516-.729,2.482,2.482,0,0,1,.106-2.119,2.527,2.527,0,0,1,.772-.816,3.5,3.5,0,0,1,1.09-.479,4.961,4.961,0,0,1,1.248-.157,4.781,4.781,0,0,1,2.112.349V63.2a3.827,3.827,0,0,0-2.229-.6,3.642,3.642,0,0,0-.752.079,2.09,2.09,0,0,0-.67.256,1.494,1.494,0,0,0-.479.458,1.216,1.216,0,0,0-.185.684,1.4,1.4,0,0,0,.14.649,1.6,1.6,0,0,0,.414.5,4.127,4.127,0,0,0,.667.438q.393.212.906.465t1,.547a4.565,4.565,0,0,1,.827.636,2.837,2.837,0,0,1,.564.772,2.173,2.173,0,0,1,.208.971,2.467,2.467,0,0,1-.284,1.228,2.33,2.33,0,0,1-.766.816,3.366,3.366,0,0,1-1.111.455,6.125,6.125,0,0,1-1.326.14,5.333,5.333,0,0,1-.574-.038q-.342-.037-.7-.109a5.388,5.388,0,0,1-.673-.178A2.069,2.069,0,0,1,534.383,71.128Z" fill="#5b5b5b" />
    <path d="M546.23,71.688a4.327,4.327,0,0,1-3.343-1.374,5.1,5.1,0,0,1-1.251-3.575,5.385,5.385,0,0,1,1.278-3.773,4.479,4.479,0,0,1,3.479-1.408,4.21,4.21,0,0,1,3.268,1.367,5.1,5.1,0,0,1,1.244,3.575,5.417,5.417,0,0,1-1.271,3.794,3.755,3.755,0,0,1-.643.574l2.755,1.976h-2.085l-1.846-1.381A5.314,5.314,0,0,1,546.23,71.688Zm.082-9.092a3.162,3.162,0,0,0-2.509,1.114,4.314,4.314,0,0,0-.964,2.926,4.384,4.384,0,0,0,.937,2.919,3.08,3.08,0,0,0,2.454,1.1,3.221,3.221,0,0,0,2.543-1.053,4.3,4.3,0,0,0,.93-2.946,4.478,4.478,0,0,0-.9-3A3.092,3.092,0,0,0,546.312,62.6Z" fill="#5b5b5b" />
    <path d="M557.919,71.524h-5.086v-9.8h1.148v8.764h3.938Z" fill="#5b5b5b" />
    <path d="M563.258,71.524v-9.8h2.707q5.182,0,5.182,4.778a4.813,4.813,0,0,1-1.439,3.646,5.336,5.336,0,0,1-3.852,1.378Zm1.148-8.764v7.725h1.463a4.155,4.155,0,0,0,3-1.032,3.87,3.87,0,0,0,1.073-2.926q0-3.768-4.006-3.767Z" fill="#5b5b5b" />
    <path d="M584.7,61.722l-2.769,9.8h-1.347l-2.017-7.164a4.471,4.471,0,0,1-.157-1h-.027a5.079,5.079,0,0,1-.178.984l-2.03,7.178h-1.333l-2.871-9.8h1.265l2.085,7.52a4.959,4.959,0,0,1,.164.984h.034a5.8,5.8,0,0,1,.212-.984l2.167-7.52h1.1l2.078,7.574a5.581,5.581,0,0,1,.164.916h.027a5.448,5.448,0,0,1,.185-.943l2-7.547Z" fill="#5b5b5b" />
    <path d="M533.732,207.37a1.88,1.88,0,0,0,1.8,1.9h46.3a1.9,1.9,0,0,0,1.9-1.9v-33.1h-50Z" fill="#a0a1a2" />
    <path d="M581.832,166.57h-46.3a1.88,1.88,0,0,0-1.8,1.9v5.7h50v-5.7a1.9,1.9,0,0,0-1.9-1.9" fill="#7a7a7a" />
    <rect x="537.432" y="177.67" width="20.4" height="13" fill="#0072c6" />
    <rect x="537.432" y="192.47" width="20.4" height="13" fill="#0072c6" />
    <rect x="559.632" y="177.67" width="20.3" height="13" fill="#fff" />
    <rect x="559.632" y="192.47" width="20.3" height="13" fill="#0072c6" />
    <g opacity="0.2" style="isolation: isolate">
        <path d="M535.732,166.57a2.006,2.006,0,0,0-2,2v38.6a2.006,2.006,0,0,0,2,2h2.2l39.4-42.6Z" fill="#fff" />
    </g>

    <path d="M512.1,230.721h-1.271l-1.039-2.748H505.63l-.978,2.748h-1.278l3.76-9.8h1.189Zm-2.687-3.781-1.538-4.176a3.974,3.974,0,0,1-.15-.656h-.027a3.712,3.712,0,0,1-.157.656l-1.524,4.176Z" fill="#5b5b5b" />
    <path d="M518.27,224.041l-4.143,5.723h4.1v.957h-5.749v-.35l4.143-5.693h-3.753v-.957h5.4Z" fill="#5b5b5b" />
    <path d="M525.379,230.721h-1.121v-1.107h-.027a2.3,2.3,0,0,1-2.16,1.271q-2.5,0-2.5-2.98v-4.184h1.114v4.006q0,2.215,1.7,2.215a1.716,1.716,0,0,0,1.35-.605,2.315,2.315,0,0,0,.53-1.582v-4.033h1.121Z" fill="#5b5b5b" />
    <path d="M531.292,224.855a1.371,1.371,0,0,0-.848-.227,1.432,1.432,0,0,0-1.2.678,3.129,3.129,0,0,0-.482,1.846v3.568h-1.121v-7h1.121v1.441h.027a2.445,2.445,0,0,1,.731-1.151,1.664,1.664,0,0,1,1.1-.413,1.817,1.817,0,0,1,.67.1Z" fill="#5b5b5b" />
    <path d="M537.95,227.5h-4.942a2.617,2.617,0,0,0,.629,1.8,2.168,2.168,0,0,0,1.654.637,3.44,3.44,0,0,0,2.174-.779v1.053a4.065,4.065,0,0,1-2.44.67,2.959,2.959,0,0,1-2.331-.954,3.9,3.9,0,0,1-.848-2.683,3.828,3.828,0,0,1,.926-2.663,2.967,2.967,0,0,1,2.3-1.028,2.631,2.631,0,0,1,2.126.889,3.7,3.7,0,0,1,.752,2.467Zm-1.148-.949a2.284,2.284,0,0,0-.468-1.512,1.6,1.6,0,0,0-1.282-.539,1.811,1.811,0,0,0-1.347.566,2.577,2.577,0,0,0-.684,1.484Z" fill="#5b5b5b" />
    <path d="M543.631,230.721v-9.8h2.789a3.052,3.052,0,0,1,2.017.621,2.012,2.012,0,0,1,.745,1.621,2.385,2.385,0,0,1-.451,1.449,2.437,2.437,0,0,1-1.244.875v.027a2.491,2.491,0,0,1,1.586.748,2.3,2.3,0,0,1,.595,1.645,2.564,2.564,0,0,1-.9,2.037,3.358,3.358,0,0,1-2.276.779Zm1.148-8.764v3.164h1.176a2.229,2.229,0,0,0,1.483-.454,1.585,1.585,0,0,0,.54-1.282q0-1.428-1.88-1.428Zm0,4.2v3.527h1.559a2.339,2.339,0,0,0,1.569-.479,1.64,1.64,0,0,0,.557-1.312q0-1.737-2.365-1.736Z" fill="#5b5b5b" />
    <path d="M552.627,230.721h-1.121V220.357h1.121Z" fill="#5b5b5b" />
    <path d="M557.822,230.885a3.249,3.249,0,0,1-2.478-.981,3.631,3.631,0,0,1-.926-2.6,3.788,3.788,0,0,1,.964-2.756,3.467,3.467,0,0,1,2.6-.99,3.139,3.139,0,0,1,2.444.963,3.825,3.825,0,0,1,.878,2.674,3.761,3.761,0,0,1-.947,2.683A3.316,3.316,0,0,1,557.822,230.885Zm.082-6.385a2.131,2.131,0,0,0-1.709.734,3.019,3.019,0,0,0-.629,2.027,2.852,2.852,0,0,0,.636,1.961,2.161,2.161,0,0,0,1.7.719,2.049,2.049,0,0,0,1.671-.705,3.053,3.053,0,0,0,.584-2,3.107,3.107,0,0,0-.584-2.023A2.039,2.039,0,0,0,557.9,224.5Z" fill="#5b5b5b" />
    <path d="M564.248,229.709h-.027v1.012H563.1V220.357h1.121v4.594h.027a2.651,2.651,0,0,1,2.42-1.395,2.565,2.565,0,0,1,2.109.939,3.884,3.884,0,0,1,.762,2.52,4.338,4.338,0,0,1-.854,2.813,2.846,2.846,0,0,1-2.338,1.057A2.3,2.3,0,0,1,564.248,229.709Zm-.027-2.824v.979a2.081,2.081,0,0,0,.564,1.473,2.011,2.011,0,0,0,3.028-.174,3.578,3.578,0,0,0,.578-2.168,2.824,2.824,0,0,0-.54-1.832,1.788,1.788,0,0,0-1.463-.662,1.987,1.987,0,0,0-1.572.68A2.5,2.5,0,0,0,564.221,226.885Z" fill="#5b5b5b" />
    <path d="M574.857,230.324v-1.354a2.622,2.622,0,0,0,.557.369,4.505,4.505,0,0,0,.684.276,5.438,5.438,0,0,0,.721.175,4.013,4.013,0,0,0,.67.061,2.627,2.627,0,0,0,1.583-.393,1.475,1.475,0,0,0,.349-1.822,1.962,1.962,0,0,0-.482-.536,4.782,4.782,0,0,0-.728-.465q-.42-.221-.906-.468-.513-.261-.957-.527a4.114,4.114,0,0,1-.772-.588,2.453,2.453,0,0,1-.516-.728,2.482,2.482,0,0,1,.106-2.119,2.52,2.52,0,0,1,.772-.817,3.522,3.522,0,0,1,1.09-.479,5.006,5.006,0,0,1,1.248-.156,4.784,4.784,0,0,1,2.112.348v1.293a3.827,3.827,0,0,0-2.229-.6,3.64,3.64,0,0,0-.752.078,2.137,2.137,0,0,0-.67.256,1.486,1.486,0,0,0-.479.459,1.213,1.213,0,0,0-.185.684,1.4,1.4,0,0,0,.14.648,1.588,1.588,0,0,0,.414.5,4.127,4.127,0,0,0,.667.438q.393.211.906.465t1,.547a4.561,4.561,0,0,1,.827.635,2.826,2.826,0,0,1,.564.773,2.17,2.17,0,0,1,.208.971,2.463,2.463,0,0,1-.284,1.227,2.322,2.322,0,0,1-.766.816,3.345,3.345,0,0,1-1.111.455,6.064,6.064,0,0,1-1.326.141,5.6,5.6,0,0,1-.574-.038c-.228-.024-.46-.062-.7-.109a5.563,5.563,0,0,1-.673-.178A2.143,2.143,0,0,1,574.857,230.324Z" fill="#5b5b5b" />
    <path d="M585.4,230.652a2.166,2.166,0,0,1-1.046.219q-1.839,0-1.839-2.051v-4.143h-1.2v-.957h1.2v-1.709l1.121-.363v2.072H585.4v.957h-1.764v3.943a1.638,1.638,0,0,0,.239,1.006.956.956,0,0,0,.793.3,1.183,1.183,0,0,0,.731-.232Z" fill="#5b5b5b" />
    <path d="M589.712,230.885a3.249,3.249,0,0,1-2.478-.981,3.631,3.631,0,0,1-.926-2.6,3.788,3.788,0,0,1,.964-2.756,3.467,3.467,0,0,1,2.6-.99,3.139,3.139,0,0,1,2.444.963,3.825,3.825,0,0,1,.878,2.674,3.761,3.761,0,0,1-.947,2.683A3.316,3.316,0,0,1,589.712,230.885Zm.082-6.385a2.131,2.131,0,0,0-1.709.734,3.019,3.019,0,0,0-.629,2.027,2.852,2.852,0,0,0,.636,1.961,2.161,2.161,0,0,0,1.7.719,2.049,2.049,0,0,0,1.671-.705,3.053,3.053,0,0,0,.584-2,3.107,3.107,0,0,0-.584-2.023A2.039,2.039,0,0,0,589.794,224.5Z" fill="#5b5b5b" />
    <path d="M598.64,224.855a1.371,1.371,0,0,0-.848-.227,1.432,1.432,0,0,0-1.2.678,3.129,3.129,0,0,0-.482,1.846v3.568h-1.121v-7h1.121v1.441h.027a2.445,2.445,0,0,1,.731-1.151,1.664,1.664,0,0,1,1.1-.413,1.817,1.817,0,0,1,.67.1Z" fill="#5b5b5b" />
    <path d="M604.867,230.721h-1.121v-1.094h-.027a2.349,2.349,0,0,1-2.153,1.258,2.3,2.3,0,0,1-1.637-.555,1.916,1.916,0,0,1-.591-1.469q0-1.963,2.311-2.283l2.1-.295q0-1.784-1.442-1.783a3.446,3.446,0,0,0-2.283.861v-1.148a4.337,4.337,0,0,1,2.379-.656q2.468,0,2.468,2.611Zm-1.121-3.541-1.688.232a2.732,2.732,0,0,0-1.176.386,1.114,1.114,0,0,0-.4.981,1.066,1.066,0,0,0,.366.837,1.416,1.416,0,0,0,.974.325,1.8,1.8,0,0,0,1.377-.585,2.088,2.088,0,0,0,.543-1.479Z" fill="#5b5b5b" />
    <path d="M612.954,230.16q0,3.855-3.691,3.855a4.956,4.956,0,0,1-2.27-.492V232.4a4.661,4.661,0,0,0,2.256.656q2.584,0,2.584-2.748v-.766h-.027a2.832,2.832,0,0,1-4.508.406,3.73,3.73,0,0,1-.8-2.506,4.353,4.353,0,0,1,.858-2.836,2.865,2.865,0,0,1,2.348-1.053,2.281,2.281,0,0,1,2.1,1.135h.027v-.971h1.121Zm-1.121-2.605v-1.031a2,2,0,0,0-.564-1.43,1.856,1.856,0,0,0-1.4-.594,1.948,1.948,0,0,0-1.627.755,3.37,3.37,0,0,0-.588,2.116,2.892,2.892,0,0,0,.564,1.869,1.823,1.823,0,0,0,1.494.7,1.952,1.952,0,0,0,1.535-.67A2.5,2.5,0,0,0,611.833,227.555Z" fill="#5b5b5b" />
    <path d="M620.85,227.5h-4.942a2.617,2.617,0,0,0,.629,1.8,2.168,2.168,0,0,0,1.654.637,3.44,3.44,0,0,0,2.174-.779v1.053a4.065,4.065,0,0,1-2.44.67,2.959,2.959,0,0,1-2.331-.954,3.9,3.9,0,0,1-.848-2.683,3.828,3.828,0,0,1,.926-2.663,2.967,2.967,0,0,1,2.3-1.028,2.631,2.631,0,0,1,2.126.889,3.7,3.7,0,0,1,.752,2.467Zm-1.148-.949a2.284,2.284,0,0,0-.468-1.512,1.6,1.6,0,0,0-1.282-.539,1.811,1.811,0,0,0-1.347.566,2.577,2.577,0,0,0-.684,1.484Z" fill="#5b5b5b" />
    <path d="M840.666,68.135V71.84h-1.148v-9.8h2.693a3.559,3.559,0,0,1,2.437.766,2.733,2.733,0,0,1,.865,2.16,2.971,2.971,0,0,1-.96,2.283,3.673,3.673,0,0,1-2.594.889Zm0-5.059V67.1h1.2a2.7,2.7,0,0,0,1.815-.543,1.927,1.927,0,0,0,.625-1.535q0-1.942-2.3-1.941Z" fill="#5b5b5b" />
    <path d="M849.614,72a3.249,3.249,0,0,1-2.478-.98,3.635,3.635,0,0,1-.926-2.6,3.786,3.786,0,0,1,.964-2.755,3.464,3.464,0,0,1,2.6-.991,3.14,3.14,0,0,1,2.444.964,3.824,3.824,0,0,1,.878,2.673A3.762,3.762,0,0,1,852.154,71,3.319,3.319,0,0,1,849.614,72Zm.082-6.385a2.134,2.134,0,0,0-1.709.734,3.019,3.019,0,0,0-.629,2.027,2.853,2.853,0,0,0,.636,1.962,2.161,2.161,0,0,0,1.7.718,2.049,2.049,0,0,0,1.671-.7,3.057,3.057,0,0,0,.584-2,3.109,3.109,0,0,0-.584-2.023A2.039,2.039,0,0,0,849.7,65.619Z" fill="#5b5b5b" />
    <path d="M863.71,64.84l-2.1,7h-1.162l-1.442-5.011a3.246,3.246,0,0,1-.109-.649h-.027a3.066,3.066,0,0,1-.144.636l-1.565,5.024H856.04l-2.119-7H855.1l1.449,5.264a3.2,3.2,0,0,1,.1.629h.055a2.942,2.942,0,0,1,.123-.643l1.613-5.25h1.025l1.449,5.277a3.8,3.8,0,0,1,.1.629h.055a2.911,2.911,0,0,1,.116-.629L862.6,64.84Z" fill="#5b5b5b" />
    <path d="M870.566,68.62h-4.942a2.617,2.617,0,0,0,.629,1.8,2.168,2.168,0,0,0,1.654.636,3.44,3.44,0,0,0,2.174-.779v1.053a4.058,4.058,0,0,1-2.44.67,2.961,2.961,0,0,1-2.331-.953,3.907,3.907,0,0,1-.848-2.684,3.824,3.824,0,0,1,.926-2.662,2.968,2.968,0,0,1,2.3-1.029,2.634,2.634,0,0,1,2.126.889,3.7,3.7,0,0,1,.752,2.468Zm-1.148-.95a2.283,2.283,0,0,0-.468-1.511,1.594,1.594,0,0,0-1.282-.54,1.812,1.812,0,0,0-1.347.567,2.571,2.571,0,0,0-.684,1.483Z" fill="#5b5b5b" />
    <path d="M875.912,65.974a1.371,1.371,0,0,0-.848-.226,1.431,1.431,0,0,0-1.2.677,3.129,3.129,0,0,0-.482,1.846V71.84h-1.121v-7h1.121v1.442h.027a2.44,2.44,0,0,1,.731-1.151,1.665,1.665,0,0,1,1.1-.414,1.817,1.817,0,0,1,.67.1Z" fill="#5b5b5b" />
    <path d="M881.114,71.84v-9.8H883.9a3.047,3.047,0,0,1,2.017.622,2.011,2.011,0,0,1,.745,1.62,2.383,2.383,0,0,1-.451,1.449,2.437,2.437,0,0,1-1.244.875v.027a2.5,2.5,0,0,1,1.586.748,2.305,2.305,0,0,1,.595,1.645,2.564,2.564,0,0,1-.9,2.037,3.358,3.358,0,0,1-2.276.779Zm1.148-8.764v3.165h1.176a2.235,2.235,0,0,0,1.483-.454,1.585,1.585,0,0,0,.54-1.282q0-1.428-1.88-1.429Zm0,4.2V70.8h1.559a2.339,2.339,0,0,0,1.569-.479,1.638,1.638,0,0,0,.557-1.312q0-1.737-2.365-1.736Z" fill="#5b5b5b" />
    <path d="M890.288,71.84H889.14v-9.8h1.148Z" fill="#5b5b5b" />
    <path d="M896.7,71.84v-9.8h2.707q5.182,0,5.182,4.778a4.818,4.818,0,0,1-1.439,3.647A5.339,5.339,0,0,1,899.3,71.84Zm1.148-8.764V70.8h1.463a4.151,4.151,0,0,0,3-1.032,3.87,3.87,0,0,0,1.073-2.926q0-3.766-4.006-3.767Z" fill="#5b5b5b" />
    <path d="M911.377,71.84h-1.121V70.746h-.027A2.349,2.349,0,0,1,908.075,72a2.3,2.3,0,0,1-1.637-.554,1.917,1.917,0,0,1-.591-1.47q0-1.963,2.311-2.283l2.1-.294q0-1.784-1.442-1.784a3.446,3.446,0,0,0-2.283.861V65.332a4.337,4.337,0,0,1,2.379-.656q2.468,0,2.468,2.611ZM910.256,68.3l-1.688.232a2.718,2.718,0,0,0-1.176.387,1.112,1.112,0,0,0-.4.98,1.07,1.07,0,0,0,.366.838,1.416,1.416,0,0,0,.974.324,1.8,1.8,0,0,0,1.377-.584,2.09,2.09,0,0,0,.543-1.48Z" fill="#5b5b5b" />
    <path d="M913.065,71.587v-1.2a3.317,3.317,0,0,0,2.017.677q1.477,0,1.477-.984a.849.849,0,0,0-.126-.475,1.242,1.242,0,0,0-.342-.346,2.633,2.633,0,0,0-.506-.27c-.194-.08-.4-.164-.625-.25a7.887,7.887,0,0,1-.817-.373,2.429,2.429,0,0,1-.588-.424,1.567,1.567,0,0,1-.355-.536,1.893,1.893,0,0,1-.12-.7,1.668,1.668,0,0,1,.226-.871,2,2,0,0,1,.6-.637,2.834,2.834,0,0,1,.858-.386,3.792,3.792,0,0,1,.995-.13,4.028,4.028,0,0,1,1.627.314v1.135a3.166,3.166,0,0,0-1.777-.506,2.038,2.038,0,0,0-.567.072,1.379,1.379,0,0,0-.434.2.928.928,0,0,0-.28.311.819.819,0,0,0-.1.4.96.96,0,0,0,.1.458,1,1,0,0,0,.291.328,2.2,2.2,0,0,0,.465.26q.273.116.622.253a8.92,8.92,0,0,1,.834.365,2.922,2.922,0,0,1,.629.424,1.67,1.67,0,0,1,.4.544,1.753,1.753,0,0,1,.14.731,1.729,1.729,0,0,1-.229.9,1.962,1.962,0,0,1-.612.636,2.8,2.8,0,0,1-.882.376,4.355,4.355,0,0,1-1.046.123A3.967,3.967,0,0,1,913.065,71.587Z" fill="#5b5b5b" />
    <path d="M925.24,71.84h-1.121V67.807q0-2.188-1.627-2.187a1.773,1.773,0,0,0-1.381.633,2.355,2.355,0,0,0-.561,1.623V71.84H919.43V61.476h1.121V66h.027a2.544,2.544,0,0,1,2.3-1.326q2.365,0,2.365,2.851Z" fill="#5b5b5b" />
    <path d="M928.5,70.828h-.027V71.84h-1.121V61.476h1.121V66.07h.027a2.651,2.651,0,0,1,2.42-1.395,2.567,2.567,0,0,1,2.109.939,3.884,3.884,0,0,1,.762,2.52,4.335,4.335,0,0,1-.854,2.813A2.843,2.843,0,0,1,930.6,72,2.3,2.3,0,0,1,928.5,70.828ZM928.474,68v.978a2.08,2.08,0,0,0,.564,1.473,2.011,2.011,0,0,0,3.028-.174,3.576,3.576,0,0,0,.578-2.167,2.824,2.824,0,0,0-.54-1.832,1.786,1.786,0,0,0-1.463-.663,1.987,1.987,0,0,0-1.572.68A2.5,2.5,0,0,0,928.474,68Z" fill="#5b5b5b" />
    <path d="M938.509,72a3.249,3.249,0,0,1-2.478-.98,3.635,3.635,0,0,1-.926-2.6,3.786,3.786,0,0,1,.964-2.755,3.464,3.464,0,0,1,2.6-.991,3.14,3.14,0,0,1,2.444.964A3.824,3.824,0,0,1,942,68.312,3.762,3.762,0,0,1,941.048,71,3.319,3.319,0,0,1,938.509,72Zm.082-6.385a2.134,2.134,0,0,0-1.709.734,3.019,3.019,0,0,0-.629,2.027,2.853,2.853,0,0,0,.636,1.962,2.161,2.161,0,0,0,1.7.718,2.049,2.049,0,0,0,1.671-.7,3.057,3.057,0,0,0,.584-2,3.109,3.109,0,0,0-.584-2.023A2.039,2.039,0,0,0,938.591,65.619Z" fill="#5b5b5b" />
    <path d="M948.612,71.84h-1.121V70.746h-.027A2.349,2.349,0,0,1,945.311,72a2.3,2.3,0,0,1-1.637-.554,1.917,1.917,0,0,1-.591-1.47q0-1.963,2.311-2.283l2.1-.294q0-1.784-1.442-1.784a3.446,3.446,0,0,0-2.283.861V65.332a4.337,4.337,0,0,1,2.379-.656q2.468,0,2.468,2.611ZM947.491,68.3l-1.688.232a2.718,2.718,0,0,0-1.176.387,1.112,1.112,0,0,0-.4.98,1.07,1.07,0,0,0,.366.838,1.416,1.416,0,0,0,.974.324,1.8,1.8,0,0,0,1.377-.584,2.09,2.09,0,0,0,.543-1.48Z" fill="#5b5b5b" />
    <path d="M954.375,65.974a1.371,1.371,0,0,0-.848-.226,1.431,1.431,0,0,0-1.2.677,3.129,3.129,0,0,0-.482,1.846V71.84h-1.121v-7h1.121v1.442h.027a2.44,2.44,0,0,1,.731-1.151,1.665,1.665,0,0,1,1.1-.414,1.817,1.817,0,0,1,.67.1Z" fill="#5b5b5b" />
    <path d="M961.382,71.84h-1.121V70.65h-.027A2.588,2.588,0,0,1,957.827,72a2.616,2.616,0,0,1-2.109-.939,3.858,3.858,0,0,1-.79-2.561,4.193,4.193,0,0,1,.875-2.782,2.886,2.886,0,0,1,2.331-1.046,2.245,2.245,0,0,1,2.1,1.135h.027V61.476h1.121Zm-1.121-3.165V67.642a2.005,2.005,0,0,0-.561-1.436,1.878,1.878,0,0,0-1.422-.588,1.934,1.934,0,0,0-1.613.752,3.294,3.294,0,0,0-.588,2.078,2.961,2.961,0,0,0,.564,1.91,1.842,1.842,0,0,0,1.514.7,1.915,1.915,0,0,0,1.521-.677A2.521,2.521,0,0,0,960.261,68.675Z" fill="#5b5b5b" />
    <path d="M920.952,40.953h-1.09v-2.18h1.09a4.2,4.2,0,0,0,4.195-4.195V12.31a4.2,4.2,0,0,0-4.195-4.2h-41.3a4.2,4.2,0,0,0-4.195,4.2V34.579a4.2,4.2,0,0,0,4.195,4.195h1.09v2.18h-1.09a6.382,6.382,0,0,1-6.374-6.375V12.31a6.382,6.382,0,0,1,6.375-6.375h41.3a6.382,6.382,0,0,1,6.375,6.375V34.579a6.382,6.382,0,0,1-6.375,6.375" />
    <path d="M886.347,33.654h0a2.958,2.958,0,0,1,2.958,2.958v6.821a2.958,2.958,0,0,1-2.958,2.958h0a2.958,2.958,0,0,1-2.959-2.957h0V36.613a2.958,2.958,0,0,1,2.958-2.958Z" />
    <path d="M895.652,46.392a2.959,2.959,0,0,1-2.959-2.958V25.925a2.959,2.959,0,1,1,5.917,0V43.434a2.959,2.959,0,0,1-2.958,2.959" />
    <path d="M914.259,46.306a2.959,2.959,0,0,1-2.959-2.958v-24.8a2.959,2.959,0,0,1,5.917,0h0v24.8a2.959,2.959,0,0,1-2.958,2.959" />
    <path d="M904.955,46.392A2.959,2.959,0,0,1,902,43.434V30.427a2.959,2.959,0,1,1,5.917,0V43.434a2.959,2.959,0,0,1-2.958,2.959" />

    <rect x="732.458" y="29.074" width="1.5" height="109.465" fill="#969696" />
    <polygon points="727.972 137.007 733.208 146.074 738.443 137.007 727.972 137.007" fill="#969696" />
    <rect x="557.758" y="90.277" width="1.5" height="58.73" fill="#969696" />
    <polygon points="563.744 147.475 558.508 156.543 553.272 147.475 563.744 147.475" fill="#969696" />
    <polygon points="563.744 91.809 558.508 82.742 553.272 91.809 563.744 91.809" fill="#969696" />
</svg>
