<svg xmlns="http://www.w3.org/2000/svg" height="639.059" width="1065.788" viewBox="0 0 1065.788 639.059">
    <g>
        <path d="M731.8,67.4l-24.5-40.7l0-16.5h0.4c2.9,0,5.2-2.2,5.3-5.1c-0.1-2.9-2.4-5.1-5.3-5.1l-26.6,0.1
        c-2.9,0-5.2,2.2-5.3,5.1c0.1,2.9,2.4,5.1,5.3,5.1h0.4l0,16.5l-24.3,40.8c-2.7,4.5-0.5,8.1,4.9,8.1l64.8-0.1
        C732.3,75.5,734.5,71.8,731.8,67.4z" fill="#59B4D9" />
        <polygon fill="#B8D432" points="677.3,49.9 667.3,66.8 721.8,66.7 711.7,49.9 			" />
        <path fill="#7FBA00" d="M692.7,54.9c2.7,0,4.9-2.1,4.9-4.8c0-0.7-0.2-1.4-0.5-2.1l-8.8,0c-0.3,0.6-0.5,1.4-0.5,2.1
        C687.8,52.8,690,55,692.7,54.9z" />

        <ellipse transform="matrix(1 -2.076936e-03 2.076936e-03 1 -0.1239 1.458)" fill="#7FBA00" cx="701.9" cy="60.4" rx="2.4" ry="2.3" />
        <path opacity="0.25" fill="#FFFFFF" d="M657.3,67.5l24.3-40.8l0-16.5h-0.4c-2.9,0.1-5.2-2.2-5.3-5.1c0-2.9,2.4-5.1,5.3-5.1l11.5,0l0.1,26.5
        l-12.8,49l-17.7,0C656.8,75.6,654.6,72,657.3,67.5z" />
    </g>
    <g>
        <path fill="#7A7A7A" d="M735.9,293.9l2.7-6.8L751,283v-9.6l-1.4-0.4l-11.1-3.1l-2.7-6.8l5.7-11.1l0,0l-7-6.8l-1.4,0.7l-10.2,5
        l-7.2-2.8l-4.5-11.6h-10.2l-0.5,1.3l-3.4,10.3l-7,2.6l-12-5l-7.2,6.8l0.7,1.3l3.2,5.7c5.5-3,11.6-4.5,17.9-4.4
        c8.6,0.3,16.8,3.5,23.3,9.2c1.5,1.1,2.9,2.3,4.3,3.5c0.7,0.7,1.3,1.5,1.8,2.4c4.3,7.2,2.5,16.4-4.5,21.8
        c-5.1,4-11.9,4.9-17.9,2.4c-0.7-0.4-1.1-0.4-1.4-0.7l0,0c-1.4-0.7-2.7-1.6-3.8-2.6c-0.5,0-0.7-0.4-1.4-0.4
        c-1.5,0.1-2.8,0.7-3.8,1.7l-0.5,0.4l0,0c-4,4.1-9,7.1-14.5,8.7l-2,4.1l6.8,6.5l0.5,0.4l1.4-0.7l10.2-5l7,2.6l3.8,11.6h10.2
        l0.5-1.3l3.6-10.3l7-2.6l12,5l6.8-7.2l-0.7-1.3L735.9,293.9z" />
        <path fill="#48C8EF" d="M675.3,276.8L675.3,276.8c-7.7,7.9-20.1,7.9-27.3-0.4c-0.6-0.9-1.8-1.1-2.7-0.5c-0.2,0.1-0.3,0.3-0.5,0.5
        c-0.5,0.5-0.7,1.1-0.7,1.7c0.1,0.6,0.3,1.2,0.7,1.7c9,9.8,24.2,10,33.9,0.4l0,0c7.7-7.4,19.7-7.6,27.1,0.7c1.1,1.1,2.5,1.1,3.2,0
        c0.5-0.5,0.7-1.1,0.7-1.7c-0.1-0.6-0.3-1.2-0.7-1.7c-8.7-9.5-23.4-10.1-32.9-1.4C675.8,276.3,675.6,276.6,675.3,276.8z" />
        <path fill="#00ABEC" d="M692.3,281c-4.1-0.1-8,1.5-10.8,4.4l-0.5,0.4l-0.5,0.4c-5.1,5.3-12.3,8.2-19.7,7.9c-7.5,0-14-3.5-19.4-8.7
        c-1.1-1.1-2.5-1.1-3.2,0c-0.2,0-0.2,0.4-0.2,1.1c0.1,0.8,0.5,1.5,1.1,2c5.7,6.5,13.9,10.2,22.6,10.3c8.4,0.4,16.5-3.1,22.8-9.6
        l0.5-0.4l0.5-0.4c2-2,4.7-3.1,7.5-3.1c2.7,0,5.2,1.3,7.5,3.5c1.1,1.1,2.5,1.1,3.2,0c0.5-0.5,0.7-1.1,0.7-1.7
        c-0.1-0.6-0.3-1.2-0.7-1.7C700.4,282.6,696.4,281.1,692.3,281z" />
        <path fill="#84D6EF" d="M673.3,272c5.2-5.3,12.3-8.2,19.7-8.1c7.2,0,14,3.5,19,8.7c1.1,1.1,2.5,1.1,3.2,0c0.5-0.5,0.7-1.1,0.7-1.7
        c-0.1-0.6-0.3-1.2-0.7-1.7c-5.7-6.5-13.9-10.2-22.6-10.3c-8.6-0.1-16.9,3.4-22.8,9.6l-0.5,0.4l-0.5,0.4c-2,2-4.7,3.1-7.5,3.1
        c-2.9,0-5.2-1.3-7.5-3.5c-1.1-1.1-2.5-1.1-3.2,0c-0.5,0.5-0.7,1.1-0.7,1.7c0.1,0.6,0.3,1.2,0.7,1.7c5.6,6,15,6.4,21,0.9
        c0.2-0.1,0.3-0.3,0.5-0.4l0.5-0.4L673.3,272z" />
        <g opacity="0.2">
            <path fill="#F1F1F1" d="M694.3,290.8c-0.5,0-0.7-0.4-1.4-0.4c-1.5,0.1-2.8,0.7-3.8,1.7l-0.5,0.4c-4,4.1-9,7.1-14.5,8.7l-2,4.1
            l3.6,3.5L694.3,290.8L694.3,290.8z" />
            <path fill="#F1F1F1" d="M675.1,259.6c5.5-3,11.6-4.5,17.9-4.4c8.6,0.3,16.8,3.5,23.3,9.2c1.1,0.9,2,1.5,3.2,2.4l18.8-18.1l-3.8-3.7
            l-1.4,0.7l-10.2,5l-7-2.6l-4.5-11.6h-10.2l-0.5,1.3l-3.4,10.3l-7,2.6l-12-5l-7.2,6.8l0.7,1.3L675.1,259.6z" />
        </g>
    </g>
    <g>
        <path fill="#B8D432" d="M397.2,274.8c0,0.7-0.5,1.3-1.2,1.3c-0.1,0-0.1,0-0.2,0h-10.8c-0.7,0.1-1.3-0.5-1.4-1.2c0-0.1,0-0.1,0-0.2
        V267c0-0.7,0.5-1.3,1.2-1.3c0.1,0,0.1,0,0.2,0h10.8c0.7-0.1,1.3,0.5,1.4,1.2c0,0.1,0,0.1,0,0.2V274.8z" />
        <path fill="#B8D432" d="M416.6,282.8c0,0.7-0.5,1.3-1.2,1.3c-0.1,0-0.1,0-0.2,0h-10.8c-0.7,0.1-1.3-0.5-1.4-1.2c0-0.1,0-0.1,0-0.2
        v-7.8c0-0.7,0.5-1.3,1.2-1.3c0.1,0,0.1,0,0.2,0h10.8c0.7-0.1,1.3,0.5,1.4,1.2c0,0.1,0,0.1,0,0.2V282.8z" />
        <path fill="#B8D432" d="M397.2,290.8c0,0.7-0.5,1.3-1.2,1.3c-0.1,0-0.1,0-0.2,0h-10.8c-0.7,0.1-1.3-0.5-1.4-1.2c0-0.1,0-0.1,0-0.2
        v-7.8c0-0.7,0.5-1.3,1.2-1.3c0.1,0,0.1,0,0.2,0h10.8c0.7-0.1,1.3,0.5,1.4,1.2c0,0.1,0,0.1,0,0.2V290.8z" />
        <path fill="#B8D432" d="M377.8,266.8c0,0.7-0.5,1.3-1.2,1.3c-0.1,0-0.1,0-0.2,0h-11.1c-0.7,0.1-1.3-0.5-1.4-1.2c0-0.1,0-0.1,0-0.2
        v-8c0-0.7,0.5-1.3,1.2-1.3c0.1,0,0.1,0,0.2,0h10.8c1.1,0,1.7,0.5,1.7,1.3L377.8,266.8z" />
        <path fill="#0072C6" d="M426.3,238.7h-77.6c-0.7-0.1-1.3,0.5-1.4,1.2c0,0.1,0,0.1,0,0.2v16c0,0.7,0.5,1.3,1.2,1.3
        c0.1,0,0.1,0,0.2,0h8.3c0.7,0.1,1.3-0.5,1.4-1.2c0-0.1,0-0.1,0-0.2v-6.7h58.2v6.7c0,0.8,0.6,1.3,1.7,1.3h8
        c0.7,0.1,1.3-0.5,1.4-1.2c0-0.1,0-0.1,0-0.2v-16c0-0.7-0.5-1.3-1.2-1.3C426.4,238.7,426.4,238.7,426.3,238.7z" />
        <path fill="#0072C6" d="M426.3,300.5h-8c-0.7-0.1-1.3,0.5-1.4,1.2c0,0.1,0,0.1,0,0.2v6.4h-58.5v-6.7c0-0.8-0.6-1.3-1.7-1.3h-8
        c-0.8,0-1.4,0.5-1.4,1.6v15.8c0,0.7,0.5,1.3,1.2,1.3c0.1,0,0.1,0,0.2,0h77.6c0.7,0.1,1.3-0.5,1.4-1.2c0-0.1,0-0.1,0-0.2v-15.8
        c0-0.7-0.5-1.3-1.2-1.3C426.4,300.5,426.4,300.5,426.3,300.5z" />
        <path fill="#B8D432" d="M377.8,282.8c0,0.7-0.5,1.3-1.2,1.3c-0.1,0-0.1,0-0.2,0h-11.1c-0.7,0.1-1.3-0.5-1.4-1.2c0-0.1,0-0.1,0-0.2
        v-8c0-0.7,0.5-1.3,1.2-1.3c0.1,0,0.1,0,0.2,0h10.8c1.1,0,1.7,0.5,1.7,1.3L377.8,282.8z" />
        <path fill="#B8D432" d="M377.8,298.9c0,0.7-0.5,1.3-1.2,1.3c-0.1,0-0.1,0-0.2,0h-11.1c-0.7,0.1-1.3-0.5-1.4-1.2c0-0.1,0-0.1,0-0.2
        v-8c0-0.7,0.5-1.3,1.2-1.3c0.1,0,0.1,0,0.2,0h10.8c1.1,0,1.7,0.5,1.7,1.3L377.8,298.9z" />
    </g>
    <text transform="matrix(1.036 0 0 1 649.0181 605.8223)" fill="#505050" font-family="SegoeUI" font-size="15.372px">Azure SQL DW</text>
    <text transform="matrix(1.036 0 0 1 632.0332 101.647)" fill="#505050" font-family="SegoeUI" font-size="15.372px">Machine Learning</text>
    <text transform="matrix(1.036 0 0 1 615.7505 122.4482)" fill="#505050" font-family="SegoeUI" font-size="15.372px">(Real time predictions)</text>
    <text transform="matrix(1.036 0 0 1 958.0928 343.5039)" fill="#505050" font-family="SegoeUI" font-size="14.173px">Power BI</text>
    <text transform="matrix(1.036 0 0 1 8.8091 344.5239)" fill="#505050" font-family="SegoeUI" font-size="15.372px">ALS test measurements </text>
    <text transform="matrix(1.036 0 0 1 51.1465 362.9697)" fill="#505050" font-family="SegoeUI" font-size="15.372px">(Telemetry)</text>
    <text transform="matrix(1.036 0 0 1 349.6152 355.7959)" fill="#505050" font-family="SegoeUI" font-size="15.372px">Event Hub</text>
    <text transform="matrix(1.036 0 0 1 640.6113 344.5239)" fill="#505050" font-family="SegoeUI" font-size="15.372px">Stream Analytics</text>
    <text transform="matrix(1.036 0 0 1 624.7603 365.3252)" fill="#505050" font-family="SegoeUI" font-size="15.372px">(Real time analytics)</text>
    <text transform="matrix(1.036 0 0 1 799.2773 532.5215)" fill="#505050" font-family="SegoeUI" font-size="12.298px">Dashboard of predictions/alerts</text>
    <text transform="matrix(1.036 0 0 1 791.4375 254.8018)" fill="#505050" font-family="SegoeUI" font-size="12.298px">Realtime data stats, </text>
    <text transform="matrix(1.036 0 0 1 772.998 267.1001)" fill="#505050" font-family="SegoeUI" font-size="12.298px">Anomaliesand aggregates</text>
    <text transform="matrix(1.036 0 0 1 701.4443 425.9434)" fill="#505050" font-family="SegoeUI" font-size="12.298px">Realtime event </text>
    <text transform="matrix(1.036 0 0 1 699.501 438.2412)" fill="#505050" font-family="SegoeUI" font-size="12.298px">and predictions</text>
    <g>
        <line fill="none" stroke="#AFAFAF" stroke-width="0.962" stroke-miterlimit="10" x1="694.5" y1="155.9" x2="694.5" y2="209.4" />
        <polygon fill="#AFAFAF" points="689.7,157.3 694.5,149 699.3,157.3 			" />
        <polygon fill="#AFAFAF" points="689.7,208 694.5,216.3 699.3,208 			" />
    </g>
    <g>
        <line fill="none" stroke="#AFAFAF" stroke-width="0.962" stroke-miterlimit="10" x1="577" y1="278.8" x2="490.6" y2="278.8" />
        <polygon fill="#AFAFAF" points="575.6,274 583.9,278.8 575.6,283.6 			" />
    </g>
    <g>
        <line fill="none" stroke="#AFAFAF" stroke-width="0.962" stroke-miterlimit="10" x1="694.5" y1="468.7" x2="694.5" y2="390.5" />
        <polygon fill="#AFAFAF" points="699.3,467.3 694.5,475.6 689.7,467.3 			" />
    </g>
    <g>
        <line fill="none" stroke="#AFAFAF" stroke-width="0.962" stroke-miterlimit="10" x1="985.6" y1="380" x2="985.6" y2="550.4" />
        <polygon fill="#AFAFAF" points="980.8,381.4 985.6,373.1 990.4,381.4 			" />
    </g>
    <g>
        <line fill="none" stroke="#AFAFAF" stroke-width="0.962" stroke-miterlimit="10" x1="909.8" y1="278.8" x2="774.2" y2="278.8" />
        <polygon fill="#AFAFAF" points="908.4,274 916.7,278.8 908.4,283.6 			" />
    </g>
    <g>
        <line fill="none" stroke="#AFAFAF" stroke-width="0.962" stroke-miterlimit="10" x1="277.6" y1="278.8" x2="191.2" y2="278.8" />
        <polygon fill="#AFAFAF" points="276.2,274 284.5,278.8 276.2,283.6 			" />
    </g>
    <g>
        <path fill="#0072C6" d="M693.4,591.6" />
        <path fill="#0072C6" d="M692.9,591.6h0.5" />
        <path opacity="0.15" fill="#FFFFFF" d="M692.9,591.6h0.5" />
    </g>
    <g>
        <path fill="#A0A1A2" d="M85.6,300.7c0,1.9-1.5,3.4-3.4,3.4H49.5c-1.9,0-3.4-1.5-3.4-3.4v-60.5c0-1.9,1.5-3.4,3.4-3.4h32.6
        c1.9,0,3.4,1.5,3.4,3.4v60.5H85.6z" />
        <path opacity="0.6" fill="#1E1E1E" d="M52,273.1c0-2.4,1.9-4.4,4.3-4.4c0,0,0,0,0.1,0H76c2.4,0,4.4,1.9,4.4,4.3c0,0,0,0,0,0.1l0,0
        c0,2.4-1.9,4.4-4.3,4.4c0,0,0,0-0.1,0H56.2C53.8,277.4,52,275.5,52,273.1z" />
        <circle fill="#B8D432" cx="56.4" cy="273.1" r="2.9" />
        <path opacity="0.6" fill="#1E1E1E" d="M52,260.3c0-2.4,1.9-4.4,4.3-4.4c0,0,0,0,0.1,0H76c2.4,0,4.4,1.9,4.4,4.3c0,0,0,0,0,0.1l0,0
        c0,2.4-1.9,4.4-4.3,4.4c0,0,0,0-0.1,0H56.2C53.8,264.6,52,262.7,52,260.3z" />
        <circle fill="#B8D432" cx="56.4" cy="260.3" r="2.9" />
        <path opacity="0.6" fill="#1E1E1E" d="M52,247.7c-0.1-2.3,1.7-4.3,4-4.4c0.1,0,0.1,0,0.2,0h19.7c2.4,0,4.4,1.9,4.4,4.3c0,0,0,0,0,0.1l0,0
        c0,2.4-1.9,4.4-4.3,4.4c0,0,0,0-0.1,0H56.2C53.9,252,52,250.1,52,247.7z" />
        <circle fill="#B8D432" cx="56.4" cy="247.7" r="2.9" />
    </g>
    <g>
        <path fill="#A0A1A2" d="M130.1,300.7c0,1.9-1.5,3.4-3.4,3.4H94c-1.9,0-3.4-1.5-3.4-3.4v-60.5c0-1.9,1.5-3.4,3.4-3.4h32.8
        c1.9,0,3.4,1.5,3.4,3.4L130.1,300.7z" />
        <path opacity="0.6" fill="#1E1E1E" d="M96.5,273.1c0-2.4,1.9-4.4,4.3-4.4c0,0,0,0,0.1,0h19.7c2.4,0,4.4,1.9,4.4,4.3c0,0,0,0,0,0.1l0,0
        c0,2.4-1.9,4.4-4.3,4.4c0,0,0,0-0.1,0h-19.8C98.4,277.4,96.5,275.5,96.5,273.1L96.5,273.1z" />
        <circle fill="#B8D432" cx="100.9" cy="273.1" r="2.9" />
        <path opacity="0.6" fill="#1E1E1E" d="M96.5,260.3c0-2.4,1.9-4.4,4.3-4.4c0,0,0,0,0.1,0h19.7c2.4,0,4.4,1.9,4.4,4.3c0,0,0,0,0,0.1l0,0
        c0,2.4-1.9,4.4-4.3,4.4c0,0,0,0-0.1,0h-19.8C98.4,264.6,96.5,262.7,96.5,260.3L96.5,260.3z" />
        <circle fill="#B8D432" cx="100.9" cy="260.3" r="2.9" />
        <path opacity="0.6" fill="#1E1E1E" d="M96.5,247.7c0-2.4,1.9-4.4,4.3-4.4c0,0,0,0,0.1,0h19.7c2.4,0,4.4,1.9,4.4,4.3c0,0,0,0,0,0.1l0,0
        c0,2.4-1.9,4.4-4.3,4.4c0,0,0,0-0.1,0h-19.8C98.4,252,96.6,250.1,96.5,247.7L96.5,247.7z" />
        <circle fill="#B8D432" cx="100.9" cy="247.7" r="2.9" />
    </g>
    <g>
        <path fill="#3E3E3E" d="M109.3,317.5c0,1.9-1.5,3.4-3.4,3.4H73.3c-1.9,0-3.4-1.5-3.4-3.4V257c0-1.9,1.5-3.4,3.4-3.4h32.6
        c1.9,0,3.4,1.5,3.4,3.4V317.5z" />
        <path fill="#1E1E1E" d="M75.7,289.9c0-2.4,1.9-4.4,4.3-4.4c0,0,0,0,0.1,0h19.7c2.4,0,4.4,1.9,4.4,4.3c0,0,0,0,0,0.1l0,0
        c0,2.4-1.9,4.4-4.3,4.4c0,0,0,0-0.1,0H80.1C77.7,294.3,75.7,292.4,75.7,289.9C75.7,289.9,75.7,289.9,75.7,289.9L75.7,289.9z" />
        <circle fill="#B8D432" cx="80.2" cy="289.9" r="2.9" />
        <path fill="#1E1E1E" d="M75.7,277.1c0-2.4,1.9-4.4,4.3-4.4c0,0,0,0,0.1,0h19.7c2.4,0,4.4,1.9,4.4,4.3c0,0,0,0,0,0.1l0,0
        c0,2.4-1.9,4.4-4.3,4.4c0,0,0,0-0.1,0H80.1C77.7,281.5,75.7,279.6,75.7,277.1C75.7,277.2,75.7,277.1,75.7,277.1L75.7,277.1z" />
        <circle fill="#B8D432" cx="80.2" cy="277.1" r="2.9" />
        <path fill="#1E1E1E" d="M75.7,264.5c0-2.4,1.9-4.4,4.3-4.4c0,0,0,0,0.1,0h19.7c2.4,0,4.4,1.9,4.4,4.3c0,0,0,0,0,0.1l0,0
        c0,2.4-1.9,4.4-4.3,4.4c0,0,0,0-0.1,0H80.1C77.7,268.8,75.7,266.9,75.7,264.5L75.7,264.5z" />
        <circle fill="#B8D432" cx="80.2" cy="264.5" r="2.9" />
    </g>
    <line fill="none" stroke="#AFAFAF" stroke-width="0.962" stroke-miterlimit="10" x1="789.6" y1="549.9" x2="985.9" y2="549.9" />
    <path d="M1020,314h-1.9v-3.9h1.9c4.1,0,7.4-3.3,7.4-7.4v-39.4c0-4.1-3.3-7.4-7.4-7.4h-73.1c-4.1,0-7.4,3.3-7.4,7.4v39.4
    c0,4.1,3.3,7.4,7.4,7.4h1.9v3.9h-1.9c-6.2,0-11.3-5.1-11.3-11.3v-39.4c0-6.2,5.1-11.3,11.3-11.3h73.1c6.2,0,11.3,5.1,11.3,11.3
    v39.4C1031.3,308.9,1026.3,314,1020,314" />
    <path d="M958.8,301L958.8,301c2.9,0,5.2,2.3,5.2,5.2v12.1c0,2.9-2.3,5.2-5.2,5.2l0,0c-2.9,0-5.2-2.3-5.2-5.2l0,0v-12.1
    C953.5,303.4,955.9,301,958.8,301L958.8,301z" />
    <path d="M975.3,323.6c-2.9,0-5.2-2.3-5.2-5.2v-31c0-2.9,2.3-5.2,5.2-5.2c2.9,0,5.2,2.3,5.2,5.2v31
    C980.5,321.2,978.1,323.6,975.3,323.6" />
    <path d="M1008.2,323.4c-2.9,0-5.2-2.3-5.2-5.2v-43.9c0-2.9,2.3-5.2,5.2-5.2c2.9,0,5.2,2.3,5.2,5.2l0,0v43.9
    C1013.4,321.1,1011.1,323.4,1008.2,323.4" />
    <path d="M991.7,323.6c-2.9,0-5.2-2.3-5.2-5.2v-23c0-2.9,2.3-5.2,5.2-5.2c2.9,0,5.2,2.3,5.2,5.2l0,0v23
    C997,321.2,994.6,323.6,991.7,323.6" />
    <rect x="676.5" y="524.8" fill="#7FBB42" width="8.3" height="8.3" />
    <rect x="669.9" y="547.4" fill="#7FBB42" width="8.3" height="8.3" />
    <rect x="681.8" y="547.4" fill="#7FBB42" width="8.3" height="8.3" />
    <rect x="693.5" y="547.4" fill="#7FBB42" width="8.3" height="8.3" />
    <rect x="669.9" y="536.1" fill="#7FBB42" width="8.3" height="8.3" />
    <rect x="681.8" y="536.1" fill="#7FBB42" width="8.3" height="8.3" />
    <polygon fill="#3999C6" points="688.4,498.2 655.5,515.7 655.5,520.8 662.2,520.8 662.2,556 667.8,556 667.8,520.8 708.7,520.8
    708.7,553.8 714.9,553.8 714.9,520.8 721,520.8 721,515.7 	" />
    <polygon opacity="0.8" fill="#B8D433" points="684.9,533.1 683.9,533.1 683.9,525.8 676.5,525.8 676.5,524.8 684.9,524.8 	" />
    <polygon opacity="0.5" fill="#B8D433" points="676.5,524.8 677.5,524.8 677.5,532.1 684.9,532.1 684.9,533.1 676.5,533.1 	" />
    <polygon opacity="0.8" fill="#B8D433" points="678.2,544.4 677.3,544.4 677.3,537.2 669.9,537.2 669.9,536.1 678.2,536.1 	" />
    <polygon opacity="0.5" fill="#B8D433" points="669.9,536.1 670.8,536.1 670.8,543.4 678.2,543.4 678.2,544.4 669.9,544.4 	" />
    <polygon opacity="0.8" fill="#B8D433" points="690.2,544.4 689.2,544.4 689.2,537.2 681.8,537.2 681.8,536.1 690.2,536.1 	" />
    <polygon opacity="0.5" fill="#B8D433" points="681.8,536.1 682.8,536.1 682.8,543.4 690.2,543.4 690.2,544.4 681.8,544.4 	" />
    <polygon opacity="0.8" fill="#B8D433" points="678.2,555.7 677.3,555.7 677.3,548.5 669.9,548.5 669.9,547.4 678.2,547.4 	" />
    <polygon opacity="0.5" fill="#B8D433" points="669.9,547.4 670.8,547.4 670.8,554.7 678.2,554.7 678.2,555.7 669.9,555.7 	" />
    <polygon opacity="0.8" fill="#B8D433" points="690.2,555.7 689.2,555.7 689.2,548.5 681.8,548.5 681.8,547.4 690.2,547.4 	" />
    <polygon opacity="0.5" fill="#B8D433" points="681.8,547.4 682.8,547.4 682.8,554.7 690.2,554.7 690.2,555.7 681.8,555.7 	" />
    <polygon opacity="0.8" fill="#B8D433" points="701.9,555.7 700.9,555.7 700.9,548.5 693.5,548.5 693.5,547.4 701.9,547.4 	" />
    <polygon opacity="0.5" fill="#B8D433" points="693.5,547.4 694.5,547.4 694.5,554.7 701.9,554.7 701.9,555.7 693.5,555.7 	" />
    <polygon opacity="0.8" fill="#B8D433" points="677.7,533.1 676.5,533.1 676.5,532.2 683.7,524.8 684.9,524.8 684.9,525.6 	" />
    <polygon opacity="0.8" fill="#B8D433" points="683,544.4 681.8,544.4 681.8,543.5 689.1,536.1 690.2,536.1 690.2,536.9 	" />
    <polygon opacity="0.8" fill="#B8D433" points="671.1,544.4 669.9,544.4 669.9,543.5 677.1,536.1 678.2,536.1 678.2,536.9 	" />
    <polygon opacity="0.8" fill="#B8D433" points="671.1,555.7 669.9,555.7 669.9,554.8 677.1,547.4 678.2,547.4 678.2,548.2 	" />
    <polygon opacity="0.8" fill="#B8D433" points="683,555.7 681.8,555.7 681.8,554.8 689.1,547.4 690.2,547.4 690.2,548.2 	" />
    <polygon opacity="0.8" fill="#B8D433" points="694.8,555.7 693.5,555.7 693.5,554.8 700.7,547.4 701.9,547.4 701.9,548.2 	" />
    <path fill="#3999C6" d="M705,539.8v36.3c0,3.7,8.5,6.8,18.9,6.8v-43.1H705z" />
    <path fill="#5AB4D9" d="M723.5,583h0.3c10.4,0,18.9-3.1,18.9-6.8v-36.3h-19.1V583L723.5,583z" />
    <path fill="#FFFFFF" d="M742.7,539.8c0,3.7-8.5,6.8-18.9,6.8s-18.9-3.1-18.9-6.8c0-3.8,8.5-6.8,18.9-6.8S742.7,536,742.7,539.8" />
    <path fill="#7FBB42" d="M738.8,539.4c0,2.5-6.7,4.5-15,4.5s-15-2-15-4.5c0-2.5,6.7-4.5,15-4.5C732.1,534.8,738.8,536.9,738.8,539.4" />
    <path fill="#B8D433" d="M735.7,542.1c2-0.8,3.1-1.7,3.1-2.7c0-2.5-6.7-4.5-15-4.5s-15,2-15,4.5c0,1.1,1.2,2,3.1,2.7
    c2.7-1.1,7.1-1.7,11.9-1.7C728.6,540.3,732.9,541.1,735.7,542.1" />
    <path fill="#FFFFFF" d="M709.6,565.8v-2.6c0.4,0.4,1,0.7,1.5,0.9c0.6,0.2,1.1,0.3,1.6,0.3c0.3,0,0.6,0,0.8-0.1
    c0.2,0,0.4-0.1,0.6-0.2s0.3-0.2,0.3-0.4c0-0.2,0.1-0.3,0.1-0.4c0-0.2,0-0.4-0.2-0.6c-0.1-0.2-0.3-0.3-0.5-0.5
    c-0.2-0.2-0.5-0.3-0.8-0.4c-0.3-0.1-0.6-0.3-1-0.4c-0.9-0.4-1.6-0.8-2-1.3c-0.4-0.6-0.7-1.2-0.7-2c0-0.6,0.1-1.1,0.3-1.5
    c0.2-0.4,0.6-0.8,1-1.1c0.4-0.3,0.9-0.5,1.4-0.6c0.6-0.1,1.1-0.2,1.7-0.2c0.6,0,1.1,0,1.6,0.1c0.4,0,0.9,0.2,1.3,0.3v2.4
    c-0.2-0.1-0.4-0.2-0.6-0.3s-0.4-0.2-0.7-0.2c-0.2,0-0.5-0.1-0.7-0.2c-0.2,0-0.4,0-0.7,0c-0.3,0-0.6,0-0.8,0
    c-0.2,0-0.4,0.1-0.6,0.2c-0.2,0.1-0.3,0.2-0.4,0.3c-0.1,0.2-0.1,0.3-0.1,0.4c0,0.2,0,0.3,0.2,0.5c0.1,0.2,0.2,0.3,0.4,0.4
    c0.2,0.1,0.4,0.3,0.7,0.4c0.3,0.1,0.6,0.3,0.9,0.4c0.4,0.2,0.9,0.4,1.2,0.6c0.4,0.2,0.7,0.4,1,0.7c0.3,0.3,0.4,0.6,0.6,1
    c0.1,0.3,0.2,0.7,0.2,1.2c0,0.6-0.1,1.2-0.3,1.6c-0.2,0.4-0.6,0.8-1,1.1c-0.4,0.3-0.9,0.4-1.4,0.6c-0.6,0.1-1.1,0.2-1.7,0.2
    c-0.6,0-1.2,0-1.8-0.2C710.5,566.2,710,566,709.6,565.8z" />
    <path fill="#FFFFFF" d="M724.1,566.5c-1.6,0-3-0.6-4-1.6c-1-1.1-1.6-2.5-1.6-4.2c0-1.8,0.5-3.2,1.6-4.4c1.1-1.1,2.4-1.7,4.1-1.7
    c1.6,0,3,0.6,4,1.6s1.5,2.5,1.5,4.3c0,1.8-0.5,3.2-1.6,4.4c0,0,0,0-0.1,0.1c0,0,0,0-0.1,0.1l2.9,2.8h-3.6l-1.5-1.6
    C725.3,566.4,724.8,566.5,724.1,566.5z M724.3,556.9c-0.9,0-1.6,0.3-2.2,1c-0.6,0.7-0.8,1.6-0.8,2.7s0.3,2,0.8,2.7
    c0.6,0.7,1.2,1,2.1,1c0.9,0,1.6-0.3,2.1-1c0.5-0.7,0.8-1.6,0.8-2.7c0-1.2-0.3-2.1-0.8-2.8C725.8,557.2,725.1,556.9,724.3,556.9z" />
    <path fill="#FFFFFF" d="M738.5,566.3h-6.8v-11.5h2.6v9.3h4.3V566.3L738.5,566.3z" />
</svg>
