<svg xmlns="http://www.w3.org/2000/svg" width="402.691" height="394.688" viewBox="0 0 402.691 394.688">
    <path d="M12.729,56.644l-2.769,9.8H8.613L6.6,59.282a4.494,4.494,0,0,1-.157-1H6.412a5.06,5.06,0,0,1-.178.984L4.2,66.446H2.871L0,56.644H1.265l2.085,7.52a4.959,4.959,0,0,1,.164.984h.034a5.785,5.785,0,0,1,.212-.984l2.167-7.52h1.1l2.078,7.574a5.562,5.562,0,0,1,.164.916H9.3a5.448,5.448,0,0,1,.185-.943l2-7.547Z" fill="#5b5b5b" />
    <path d="M19.325,63.226H14.383a2.618,2.618,0,0,0,.629,1.8,2.169,2.169,0,0,0,1.654.637,3.439,3.439,0,0,0,2.174-.779v1.053a4.065,4.065,0,0,1-2.44.67,2.959,2.959,0,0,1-2.331-.954,3.9,3.9,0,0,1-.848-2.683,3.828,3.828,0,0,1,.926-2.663,2.967,2.967,0,0,1,2.3-1.028,2.631,2.631,0,0,1,2.126.889,3.7,3.7,0,0,1,.752,2.467Zm-1.148-.949a2.283,2.283,0,0,0-.468-1.512,1.6,1.6,0,0,0-1.282-.539,1.811,1.811,0,0,0-1.347.566,2.577,2.577,0,0,0-.684,1.484Z" fill="#5b5b5b" />
    <path d="M22.169,65.435h-.027v1.012H21.021V56.083h1.121v4.594h.027a2.651,2.651,0,0,1,2.42-1.395,2.564,2.564,0,0,1,2.109.939,3.885,3.885,0,0,1,.762,2.52,4.337,4.337,0,0,1-.854,2.812,2.846,2.846,0,0,1-2.338,1.057A2.3,2.3,0,0,1,22.169,65.435Zm-.027-2.824v.979a2.081,2.081,0,0,0,.564,1.473,2.011,2.011,0,0,0,3.028-.174,3.579,3.579,0,0,0,.578-2.168,2.824,2.824,0,0,0-.54-1.832,1.788,1.788,0,0,0-1.463-.662,1.987,1.987,0,0,0-1.572.68A2.5,2.5,0,0,0,22.142,62.61Z" fill="#5b5b5b" />
    <path d="M40.824,66.446H39.553L38.514,63.7H34.357l-.978,2.748H32.1l3.76-9.8h1.189Zm-2.687-3.781L36.6,58.489a4,4,0,0,1-.15-.656h-.027a3.69,3.69,0,0,1-.157.656L34.74,62.665Z" fill="#5b5b5b" />
    <path d="M43.265,65.435h-.027v4.23H42.116V59.446h1.121v1.23h.027a2.651,2.651,0,0,1,2.42-1.395,2.562,2.562,0,0,1,2.112.939,3.9,3.9,0,0,1,.759,2.52,4.337,4.337,0,0,1-.854,2.812,2.846,2.846,0,0,1-2.338,1.057A2.343,2.343,0,0,1,43.265,65.435Zm-.027-2.824v.979a2.081,2.081,0,0,0,.564,1.473,2.011,2.011,0,0,0,3.028-.174,3.579,3.579,0,0,0,.578-2.168,2.824,2.824,0,0,0-.54-1.832,1.788,1.788,0,0,0-1.463-.662,1.987,1.987,0,0,0-1.572.68A2.5,2.5,0,0,0,43.237,62.61Z" fill="#5b5b5b" />
    <path d="M51.5,65.435h-.027v4.23H50.347V59.446h1.121v1.23H51.5a2.651,2.651,0,0,1,2.42-1.395,2.562,2.562,0,0,1,2.112.939,3.9,3.9,0,0,1,.759,2.52,4.337,4.337,0,0,1-.854,2.812,2.846,2.846,0,0,1-2.338,1.057A2.343,2.343,0,0,1,51.5,65.435Zm-.027-2.824v.979a2.081,2.081,0,0,0,.564,1.473,2.011,2.011,0,0,0,3.028-.174,3.579,3.579,0,0,0,.578-2.168,2.824,2.824,0,0,0-.54-1.832,1.788,1.788,0,0,0-1.463-.662,1.987,1.987,0,0,0-1.572.68A2.5,2.5,0,0,0,51.468,62.61Z" fill="#5b5b5b" />
    <path d="M42.394,40.269a22.351,22.351,0,0,1-31.509-4.047,22.3,22.3,0,0,1,4.047-31.51A22.4,22.4,0,0,1,46.441,8.76,22.315,22.315,0,0,1,42.394,40.269Z" fill="#59b4d9" />
    <path d="M38.106,26.538a5.236,5.236,0,0,0,6.986.906c0-.222,0-.222.222-.444,2.255,1.571,3.6,2.7,4.491,3.142.24-.665.462-1.35.684-1.793-.906-.684-2.255-1.812-3.826-3.16a5.909,5.909,0,0,0-.683-4.713,5.152,5.152,0,0,0-6.3-1.127c-2.237-2.032-4.934-4.509-7.411-6.986,8.094-4.491,13.952-3.825,13.952-3.825a14.937,14.937,0,0,0-3.16-3.364,25.046,25.046,0,0,0-15.08,2.7h0c-2.014-2.033-4.047-4.288-6.3-6.764a17.861,17.861,0,0,0-2.92,1.127,44.984,44.984,0,0,0,6.081,7.651h0a65.984,65.984,0,0,0-6.3,5.415,3.074,3.074,0,0,1-.683.887,7.309,7.309,0,0,0-3.826.24,17.3,17.3,0,0,1-1.571-9.684A14.647,14.647,0,0,0,10.2,9.665a13.235,13.235,0,0,0,.906,9,6.744,6.744,0,0,0,0,8.334c0,.222.222.444.443.665A25.743,25.743,0,0,0,10.2,35.556c.222.222.222.444.462.665a27.515,27.515,0,0,0,3.586,3.6A31.821,31.821,0,0,1,15.838,29.7a7,7,0,0,0,3.142-.683c.683.683,1.349,1.127,1.811,1.589a37.234,37.234,0,0,0,6.745,4.269,3.975,3.975,0,0,0,.665,3.16,4.646,4.646,0,0,0,6.3.887c.462-.443.906-.665,1.127-1.127a45.619,45.619,0,0,0,8.778.906c.462,0,2.033-2.255,2.938-3.6a24.6,24.6,0,0,1-11.033-.665,4.645,4.645,0,0,0-.905-1.811,4.351,4.351,0,0,0-5.858-1.127,28.35,28.35,0,0,1-6.284-4.047,6.125,6.125,0,0,0-1.127-.906,6.6,6.6,0,0,0,.222-6.745c.222-.444.665-.665.905-.906,2.015-1.793,4.047-3.363,5.84-4.712l-.222-.222.222.222a79.678,79.678,0,0,0,8.557,7.189A5.313,5.313,0,0,0,38.106,26.538Z" fill="#fff" />
    <path d="M177.773,45.906a1.88,1.88,0,0,0,1.8,1.9h46.3a1.9,1.9,0,0,0,1.9-1.9v-33.1h-50Z" fill="#a0a1a2" />
    <path d="M225.873,5.106h-46.3a1.88,1.88,0,0,0-1.8,1.9v5.7h50v-5.7a1.9,1.9,0,0,0-1.9-1.9" fill="#7a7a7a" />
    <rect x="181.473" y="16.206" width="20.4" height="13" fill="#0072c6" />
    <rect x="181.473" y="31.006" width="20.4" height="13" fill="#0072c6" />
    <rect x="203.673" y="16.206" width="20.3" height="13" fill="#fff" />
    <rect x="203.673" y="31.006" width="20.3" height="13" fill="#0072c6" />
    <g opacity="0.2" style="isolation: isolate">
        <path d="M179.773,5.106a2.006,2.006,0,0,0-2,2v38.6a2.006,2.006,0,0,0,2,2h2.2l39.4-42.6Z" fill="#fff" />
    </g>

    <path d="M156.137,69.256h-1.271l-1.039-2.748H149.67l-.978,2.748h-1.278l3.76-9.8h1.189Zm-2.687-3.78L151.913,61.3a3.948,3.948,0,0,1-.15-.656h-.027a3.69,3.69,0,0,1-.157.656l-1.524,4.177Z" fill="#5b5b5b" />
    <path d="M162.31,62.577,158.167,68.3h4.1v.957H156.52v-.349l4.143-5.694H156.91v-.957h5.4Z" fill="#5b5b5b" />
    <path d="M169.419,69.256H168.3V68.149h-.027a2.3,2.3,0,0,1-2.16,1.271q-2.5,0-2.5-2.98V62.256h1.114v4.006q0,2.215,1.7,2.215a1.717,1.717,0,0,0,1.35-.6,2.319,2.319,0,0,0,.53-1.583V62.256h1.121Z" fill="#5b5b5b" />
    <path d="M175.333,63.391a1.372,1.372,0,0,0-.848-.226,1.431,1.431,0,0,0-1.2.677,3.129,3.129,0,0,0-.482,1.846v3.568h-1.121v-7H172.8V63.7h.027a2.447,2.447,0,0,1,.731-1.152,1.669,1.669,0,0,1,1.1-.413,1.839,1.839,0,0,1,.67.1Z" fill="#5b5b5b" />
    <path d="M181.991,66.036h-4.942a2.616,2.616,0,0,0,.629,1.8,2.167,2.167,0,0,0,1.654.636,3.441,3.441,0,0,0,2.174-.779V68.75a4.065,4.065,0,0,1-2.44.67,2.955,2.955,0,0,1-2.331-.954,3.9,3.9,0,0,1-.848-2.683,3.83,3.83,0,0,1,.926-2.663,2.971,2.971,0,0,1,2.3-1.028,2.631,2.631,0,0,1,2.126.889,3.707,3.707,0,0,1,.752,2.468Zm-1.148-.95a2.281,2.281,0,0,0-.468-1.511,1.6,1.6,0,0,0-1.282-.54,1.808,1.808,0,0,0-1.347.567,2.577,2.577,0,0,0-.684,1.483Z" fill="#5b5b5b" />
    <path d="M187.671,69.256v-9.8h2.789a3.053,3.053,0,0,1,2.017.622,2.011,2.011,0,0,1,.745,1.62,2.385,2.385,0,0,1-.451,1.449,2.432,2.432,0,0,1-1.244.875v.027a2.492,2.492,0,0,1,1.586.749,2.3,2.3,0,0,1,.595,1.644,2.562,2.562,0,0,1-.9,2.037,3.358,3.358,0,0,1-2.276.779Zm1.148-8.764v3.165H190a2.23,2.23,0,0,0,1.483-.455,1.583,1.583,0,0,0,.54-1.281q0-1.43-1.88-1.429Zm0,4.2v3.527h1.559a2.334,2.334,0,0,0,1.569-.479,1.64,1.64,0,0,0,.557-1.312q0-1.736-2.365-1.736Z" fill="#5b5b5b" />
    <path d="M196.667,69.256h-1.121V58.893h1.121Z" fill="#5b5b5b" />
    <path d="M201.863,69.42a3.246,3.246,0,0,1-2.478-.981,3.631,3.631,0,0,1-.926-2.6,3.784,3.784,0,0,1,.964-2.755,3.468,3.468,0,0,1,2.6-.991,3.14,3.14,0,0,1,2.444.964,3.822,3.822,0,0,1,.878,2.673,3.759,3.759,0,0,1-.947,2.683A3.316,3.316,0,0,1,201.863,69.42Zm.082-6.385a2.131,2.131,0,0,0-1.709.735,3.015,3.015,0,0,0-.629,2.026,2.855,2.855,0,0,0,.636,1.962,2.161,2.161,0,0,0,1.7.718,2.051,2.051,0,0,0,1.671-.7,3.054,3.054,0,0,0,.584-2,3.107,3.107,0,0,0-.584-2.023A2.041,2.041,0,0,0,201.945,63.035Z" fill="#5b5b5b" />
    <path d="M208.289,68.244h-.027v1.012H207.14V58.893h1.121v4.594h.027a2.651,2.651,0,0,1,2.42-1.395,2.566,2.566,0,0,1,2.109.94,3.878,3.878,0,0,1,.762,2.519,4.344,4.344,0,0,1-.854,2.813,2.848,2.848,0,0,1-2.338,1.056A2.3,2.3,0,0,1,208.289,68.244Zm-.027-2.823V66.4a2.084,2.084,0,0,0,.564,1.474,2.012,2.012,0,0,0,3.028-.175,3.573,3.573,0,0,0,.578-2.167,2.822,2.822,0,0,0-.54-1.832,1.789,1.789,0,0,0-1.463-.663,1.984,1.984,0,0,0-1.572.681A2.5,2.5,0,0,0,208.261,65.421Z" fill="#5b5b5b" />
    <path d="M218.9,68.859V67.506a2.629,2.629,0,0,0,.557.369,4.407,4.407,0,0,0,.684.276,5.29,5.29,0,0,0,.721.175,4.018,4.018,0,0,0,.67.062A2.627,2.627,0,0,0,223.112,68a1.475,1.475,0,0,0,.349-1.822,1.979,1.979,0,0,0-.482-.537,4.859,4.859,0,0,0-.728-.465q-.42-.221-.906-.468-.513-.259-.957-.526a4.114,4.114,0,0,1-.772-.588,2.461,2.461,0,0,1-.516-.729,2.482,2.482,0,0,1,.106-2.119,2.524,2.524,0,0,1,.772-.816,3.5,3.5,0,0,1,1.09-.479,4.961,4.961,0,0,1,1.248-.157,4.783,4.783,0,0,1,2.112.349V60.93a3.828,3.828,0,0,0-2.229-.6,3.64,3.64,0,0,0-.752.079,2.088,2.088,0,0,0-.67.256,1.491,1.491,0,0,0-.479.458,1.216,1.216,0,0,0-.185.684,1.407,1.407,0,0,0,.14.649,1.592,1.592,0,0,0,.414.5,4.127,4.127,0,0,0,.667.438q.393.212.906.465t1,.547a4.573,4.573,0,0,1,.827.636,2.837,2.837,0,0,1,.564.772,2.169,2.169,0,0,1,.208.971,2.467,2.467,0,0,1-.284,1.228,2.328,2.328,0,0,1-.766.816,3.368,3.368,0,0,1-1.111.455,6.125,6.125,0,0,1-1.326.14,5.326,5.326,0,0,1-.574-.038q-.342-.037-.7-.109a5.377,5.377,0,0,1-.673-.178A2.069,2.069,0,0,1,218.9,68.859Z" fill="#5b5b5b" />
    <path d="M229.439,69.188a2.167,2.167,0,0,1-1.046.219q-1.839,0-1.839-2.051V63.213h-1.2v-.957h1.2V60.547l1.121-.362v2.071h1.764v.957h-1.764v3.944a1.635,1.635,0,0,0,.239,1,.955.955,0,0,0,.793.3,1.177,1.177,0,0,0,.731-.232Z" fill="#5b5b5b" />
    <path d="M233.752,69.42a3.246,3.246,0,0,1-2.478-.981,3.631,3.631,0,0,1-.926-2.6,3.784,3.784,0,0,1,.964-2.755,3.468,3.468,0,0,1,2.6-.991,3.14,3.14,0,0,1,2.444.964,3.822,3.822,0,0,1,.878,2.673,3.759,3.759,0,0,1-.947,2.683A3.316,3.316,0,0,1,233.752,69.42Zm.082-6.385a2.131,2.131,0,0,0-1.709.735A3.015,3.015,0,0,0,231.5,65.8a2.855,2.855,0,0,0,.636,1.962,2.161,2.161,0,0,0,1.7.718,2.051,2.051,0,0,0,1.671-.7,3.054,3.054,0,0,0,.584-2,3.107,3.107,0,0,0-.584-2.023A2.041,2.041,0,0,0,233.834,63.035Z" fill="#5b5b5b" />
    <path d="M242.68,63.391a1.372,1.372,0,0,0-.848-.226,1.431,1.431,0,0,0-1.2.677,3.129,3.129,0,0,0-.482,1.846v3.568H239.03v-7h1.121V63.7h.027a2.447,2.447,0,0,1,.731-1.152,1.669,1.669,0,0,1,1.1-.413,1.839,1.839,0,0,1,.67.1Z" fill="#5b5b5b" />
    <path d="M248.908,69.256h-1.121V68.162h-.027a2.347,2.347,0,0,1-2.153,1.258,2.3,2.3,0,0,1-1.637-.554,1.919,1.919,0,0,1-.591-1.47q0-1.961,2.311-2.283l2.1-.294q0-1.784-1.442-1.784a3.445,3.445,0,0,0-2.283.861V62.748a4.337,4.337,0,0,1,2.379-.656q2.468,0,2.468,2.611Zm-1.121-3.541-1.688.232a2.759,2.759,0,0,0-1.176.386,1.115,1.115,0,0,0-.4.981,1.067,1.067,0,0,0,.366.837,1.411,1.411,0,0,0,.974.325,1.8,1.8,0,0,0,1.377-.585,2.086,2.086,0,0,0,.543-1.479Z" fill="#5b5b5b" />
    <path d="M256.995,68.7q0,3.855-3.691,3.855a4.955,4.955,0,0,1-2.27-.492V70.938a4.659,4.659,0,0,0,2.256.656q2.584,0,2.584-2.748V68.08h-.027a2.833,2.833,0,0,1-4.508.407,3.733,3.733,0,0,1-.8-2.506,4.36,4.36,0,0,1,.858-2.837,2.865,2.865,0,0,1,2.348-1.053,2.281,2.281,0,0,1,2.1,1.135h.027v-.971h1.121Zm-1.121-2.6V65.059a2,2,0,0,0-.564-1.429,1.857,1.857,0,0,0-1.4-.595,1.947,1.947,0,0,0-1.627.755,3.372,3.372,0,0,0-.588,2.116,2.9,2.9,0,0,0,.564,1.87,1.822,1.822,0,0,0,1.494.7,1.952,1.952,0,0,0,1.535-.67A2.5,2.5,0,0,0,255.874,66.091Z" fill="#5b5b5b" />
    <path d="M264.89,66.036h-4.942a2.616,2.616,0,0,0,.629,1.8,2.167,2.167,0,0,0,1.654.636A3.441,3.441,0,0,0,264.4,67.7V68.75a4.065,4.065,0,0,1-2.44.67,2.955,2.955,0,0,1-2.331-.954,3.9,3.9,0,0,1-.848-2.683,3.83,3.83,0,0,1,.926-2.663,2.971,2.971,0,0,1,2.3-1.028,2.631,2.631,0,0,1,2.126.889,3.707,3.707,0,0,1,.752,2.468Zm-1.148-.95a2.281,2.281,0,0,0-.468-1.511,1.6,1.6,0,0,0-1.282-.54,1.808,1.808,0,0,0-1.347.567,2.577,2.577,0,0,0-.684,1.483Z" fill="#5b5b5b" />
    <path d="M351.5,67.028v3.705H350.35v-9.8h2.693a3.553,3.553,0,0,1,2.437.766,2.734,2.734,0,0,1,.865,2.16,2.972,2.972,0,0,1-.96,2.283,3.673,3.673,0,0,1-2.594.889Zm0-5.059v4.02h1.2a2.69,2.69,0,0,0,1.815-.544,1.924,1.924,0,0,0,.625-1.534q0-1.942-2.3-1.941Z" fill="#5b5b5b" />
    <path d="M360.446,70.9a3.249,3.249,0,0,1-2.478-.981,3.631,3.631,0,0,1-.926-2.6,3.788,3.788,0,0,1,.964-2.756,3.467,3.467,0,0,1,2.6-.99,3.14,3.14,0,0,1,2.444.963,3.825,3.825,0,0,1,.878,2.674,3.762,3.762,0,0,1-.947,2.683A3.316,3.316,0,0,1,360.446,70.9Zm.082-6.385a2.131,2.131,0,0,0-1.709.734,3.019,3.019,0,0,0-.629,2.027,2.852,2.852,0,0,0,.636,1.961,2.161,2.161,0,0,0,1.7.719,2.049,2.049,0,0,0,1.671-.705,3.053,3.053,0,0,0,.584-2,3.107,3.107,0,0,0-.584-2.023A2.039,2.039,0,0,0,360.528,64.513Z" fill="#5b5b5b" />
    <path d="M374.542,63.733l-2.1,7h-1.162l-1.442-5.012a3.247,3.247,0,0,1-.109-.648H369.7a3.059,3.059,0,0,1-.144.635l-1.565,5.025h-1.121l-2.119-7h1.176L367.378,69a3.167,3.167,0,0,1,.1.629h.055a2.931,2.931,0,0,1,.123-.643l1.613-5.25h1.025l1.449,5.277a3.784,3.784,0,0,1,.1.629h.055a2.915,2.915,0,0,1,.116-.629l1.422-5.277Z" fill="#5b5b5b" />
    <path d="M381.4,67.513h-4.942a2.618,2.618,0,0,0,.629,1.8,2.169,2.169,0,0,0,1.654.637,3.439,3.439,0,0,0,2.174-.779v1.053a4.065,4.065,0,0,1-2.44.67,2.959,2.959,0,0,1-2.331-.954,3.9,3.9,0,0,1-.848-2.683,3.828,3.828,0,0,1,.926-2.663,2.967,2.967,0,0,1,2.3-1.028,2.631,2.631,0,0,1,2.126.889,3.7,3.7,0,0,1,.752,2.467Zm-1.148-.949a2.283,2.283,0,0,0-.468-1.512,1.6,1.6,0,0,0-1.282-.539,1.811,1.811,0,0,0-1.347.566,2.577,2.577,0,0,0-.684,1.484Z" fill="#5b5b5b" />
    <path d="M386.744,64.868a1.37,1.37,0,0,0-.848-.227,1.432,1.432,0,0,0-1.2.678,3.129,3.129,0,0,0-.482,1.846v3.568h-1.121v-7h1.121v1.441h.027a2.447,2.447,0,0,1,.731-1.151,1.664,1.664,0,0,1,1.1-.413,1.816,1.816,0,0,1,.67.1Z" fill="#5b5b5b" />
    <path d="M391.946,70.733v-9.8h2.789a3.051,3.051,0,0,1,2.017.621,2.012,2.012,0,0,1,.745,1.621,2.385,2.385,0,0,1-.451,1.449,2.436,2.436,0,0,1-1.244.875v.027a2.491,2.491,0,0,1,1.586.748,2.3,2.3,0,0,1,.595,1.645,2.564,2.564,0,0,1-.9,2.037,3.358,3.358,0,0,1-2.276.779Zm1.148-8.764v3.164h1.176a2.229,2.229,0,0,0,1.483-.454,1.585,1.585,0,0,0,.54-1.282q0-1.428-1.88-1.428Zm0,4.2v3.527h1.559a2.339,2.339,0,0,0,1.569-.479,1.641,1.641,0,0,0,.557-1.312q0-1.737-2.365-1.736Z" fill="#5b5b5b" />
    <path d="M401.12,70.733h-1.148v-9.8h1.148Z" fill="#5b5b5b" />
    <path d="M396.316,39.848h-1.09v-2.18h1.09a4.2,4.2,0,0,0,4.195-4.195V11.205a4.2,4.2,0,0,0-4.195-4.2h-41.3a4.2,4.2,0,0,0-4.195,4.2V33.474a4.2,4.2,0,0,0,4.195,4.195h1.09v2.18h-1.09a6.382,6.382,0,0,1-6.374-6.375V11.205a6.382,6.382,0,0,1,6.375-6.375h41.3a6.382,6.382,0,0,1,6.375,6.375V33.474a6.382,6.382,0,0,1-6.375,6.375" />
    <path d="M361.711,32.549h0a2.958,2.958,0,0,1,2.958,2.958v6.821a2.958,2.958,0,0,1-2.958,2.958h0a2.958,2.958,0,0,1-2.959-2.957h0V35.508a2.958,2.958,0,0,1,2.958-2.958Z" />
    <path d="M371.015,45.287a2.959,2.959,0,0,1-2.959-2.958V24.82a2.959,2.959,0,1,1,5.917,0V42.329a2.959,2.959,0,0,1-2.958,2.959" />
    <path d="M389.622,45.2a2.959,2.959,0,0,1-2.959-2.958v-24.8a2.959,2.959,0,1,1,5.917,0h0v24.8a2.959,2.959,0,0,1-2.958,2.959" />
    <path d="M380.319,45.287a2.959,2.959,0,0,1-2.959-2.958V29.322a2.959,2.959,0,1,1,5.917,0V42.329a2.959,2.959,0,0,1-2.958,2.959" />
    <polygon points="198.571 170.718 193.946 171.511 189.849 173.361 186.281 175.607 182.845 179.704 180.994 181.687 179.144 182.347 178.616 181.158 179.541 179.969 179.673 178.251 180.334 178.251 180.862 178.779 180.73 177.061 180.069 176.533 180.069 175.872 178.483 176.797 176.898 178.515 176.633 180.101 177.294 181.422 177.823 183.537 179.012 184.065 180.334 184.065 181.523 183.272 180.73 187.369 181.523 191.862 180.598 193.977 177.823 197.016 178.219 198.999 179.673 201.113 182.184 202.831 183.638 203.096 185.091 203.096 184.166 207.06 187.602 208.514 191.963 209.042 193.417 207.985 193.549 205.474 195.267 202.699 195.399 200.452 199.364 200.849 203.064 200.452 199.364 202.699 200.025 205.342 202.271 209.042 204.65 209.968 206.368 209.307 207.161 207.721 210.993 204.814 211.786 205.474 217.733 205.739 218.923 204.681 219.055 202.963 218.658 202.303 218.394 197.677 216.412 193.713 216.676 191.862 217.865 192.523 221.302 195.695 222.887 195.827 224.738 195.034 226.588 193.713 227.513 190.673 232.799 191.07 236.103 189.748 238.746 187.369 240.596 183.801 241.125 179.572 240.728 174.815 239.671 170.453 238.614 169 237.16 168.603 234.649 171.379 232.402 172.171 230.42 168.868 228.438 167.017 227.248 166.357 223.02 162.656 219.451 160.806 216.015 160.542 211.919 161.203 208.35 162.524 205.972 164.506 203.989 166.885 202.007 167.414 198.571 170.718" fill="#fcd116" />
    <path d="M241.521,174.55a14.653,14.653,0,0,0-1.586-5.286c-.132-.132-.264-.4-.4-.529a5.457,5.457,0,0,0-1.454-.925,1.96,1.96,0,0,0-1.718,0c-.132.132-.264.132-.4.264a7.33,7.33,0,0,0-.793,1.057,9.318,9.318,0,0,1-.925,1.189,5.128,5.128,0,0,1-1.454.793,5.128,5.128,0,0,0-.793-1.454,12.4,12.4,0,0,0-1.189-1.586l-1.057-1.057-1.189-.793a29.418,29.418,0,0,1-3.172-2.511c-.4-.4-.925-.793-1.322-1.189a11.711,11.711,0,0,0-7-3.04,19.132,19.132,0,0,0-7.929,1.718,13.93,13.93,0,0,0-3.436,2.114,18.967,18.967,0,0,0-2.511,2.907,3.91,3.91,0,0,0-1.322.264,4.69,4.69,0,0,0-1.586,1.057A8.55,8.55,0,0,1,199.1,168.6h0l-1.057,1.057a28.952,28.952,0,0,0-6.872,1.718,19.8,19.8,0,0,0-5.683,3.436,9.936,9.936,0,0,0-1.982,2.114,21.524,21.524,0,0,0-1.454,2.247l-1.189,1.189a2.742,2.742,0,0,1-1.322.793h0a1.023,1.023,0,0,1-.4.132v-.132a3.389,3.389,0,0,0,.793-2.511c.132.132.132.264.264.4s.132.264.264.4l.264-.264.4.132a5.542,5.542,0,0,0,.132-2.114,1.816,1.816,0,0,0-.661-1.057c0-.132.132-.132.132-.264a1.91,1.91,0,0,0,.264-.925l-.264-.132h0l.264.132.4-.264-.529.132a8.585,8.585,0,0,0-3.568,2.247,5.868,5.868,0,0,0-1.057,1.454,2.949,2.949,0,0,0-.4,1.718,3.97,3.97,0,0,0,.793,1.454,8.422,8.422,0,0,0,.264.925,1.878,1.878,0,0,1,.264.793,2.746,2.746,0,0,0,1.454,1.322,3.221,3.221,0,0,0,1.586,0c-.132.661-.132,1.322-.264,1.982a27.663,27.663,0,0,0,.132,3.172,1.676,1.676,0,0,0,.132.793c0,.264.132.529.132.793a1.878,1.878,0,0,0-.264.793,5.523,5.523,0,0,1-.529,1.322l-1.057,1.057-.925.925-.264.264a1.625,1.625,0,0,0-.661,1.85,18.821,18.821,0,0,0,.661,2.114,8.032,8.032,0,0,0,1.322,1.85,14.113,14.113,0,0,0,3.3,2.114,3.92,3.92,0,0,0,2.114.264c0,.132,0,.264-.132.264a6.443,6.443,0,0,0-.4.925c-.793,1.85,0,2.775,1.322,3.3a12.99,12.99,0,0,0,2.114.661c.132,0,.264.132.529.132a19.751,19.751,0,0,0,3.7.793c1.454.132,2.775-.264,3.172-1.586a5.816,5.816,0,0,0,.264-1.322V206a7.076,7.076,0,0,1,.925-1.586c0-.132.132-.132.132-.264.264-.529.529-.793.529-1.189v-1.586a15.994,15.994,0,0,0,2.511.132h1.322c-.132,0-.264.132-.4.132a.129.129,0,0,0-.132.132c-1.189.529-1.189,1.718-.793,2.775a6.285,6.285,0,0,0,1.454,2.643,10.365,10.365,0,0,0,2.643,3.04c1.057.661,2.247.661,3.832-.132a2.746,2.746,0,0,0,1.322-1.454c.132-.132.264-.4.4-.529a19.778,19.778,0,0,1,1.982-1.586,5.6,5.6,0,0,1,.925-.661,4.4,4.4,0,0,0,.793.4,4.955,4.955,0,0,0,1.454.132h3.436a3.823,3.823,0,0,0,2.247-.4,2.286,2.286,0,0,0,1.057-1.982v-1.057a1.757,1.757,0,0,0-.4-.925v-2.907a6.633,6.633,0,0,0-.264-1.586,6.442,6.442,0,0,0-.529-1.454c-.132-.4-.264-.661-.4-1.057l-.264.132h0l.264-.132h0a8.084,8.084,0,0,0-.661-1.586v-.4l.529.529.793.793a9.1,9.1,0,0,0,1.718,1.454,3.19,3.19,0,0,0,2.247.529,5.239,5.239,0,0,0,2.907-1.057,6.459,6.459,0,0,0,1.85-2.379c.132-.264.132-.529.264-.793,0-.264.132-.4.132-.661a15.132,15.132,0,0,0,4.229.132,11.72,11.72,0,0,0,3.832-1.057,9.717,9.717,0,0,0,3.832-3.832h0a14.938,14.938,0,0,0,1.85-5.947C242.05,179.176,241.918,176.8,241.521,174.55ZM221.7,190.541c-.4,1.322-1.057,3.568.793,3.965a2.354,2.354,0,0,0,1.982-.4,3.724,3.724,0,0,1-1.718,0,1.159,1.159,0,0,1-.925-.793c.132.132.4.132.925.264,1.322.264,2.643-.264,2.907-1.322a13.663,13.663,0,0,1,.4-1.586,8.422,8.422,0,0,0,.925.264c-.132.529-.4,1.057-.529,1.718a3.737,3.737,0,0,1-3.7,2.511c-1.454,0-2.247-.925-3.3-1.718-.661-.529-1.322-1.189-1.982-1.718a14.62,14.62,0,0,1-4.758-2.379,9.045,9.045,0,0,0,3.568,2.775,34.584,34.584,0,0,1-1.718,6.343c-.264,1.057-2.775,5.154-3.568,5.55-.529.264-3.568,2.907-4.229,3.3a5.93,5.93,0,0,1-1.454,1.718c-1.982,1.057-3.3-.925-4.361-2.643-.529-.793-1.85-3.04-.661-3.7,1.057-.529,1.718-1.057,2.907-1.718a4.016,4.016,0,0,0,.661.925c0-.4-.132-.661-.132-1.057a3.772,3.772,0,0,1,0-1.718c0-.529.132-1.189.132-1.718-.132.661-.529,1.189-.661,1.85a1.191,1.191,0,0,0-.132.661,21.353,21.353,0,0,1-7.665.132c-.132-.925-.4-1.982-.529-2.643v4.229a3.008,3.008,0,0,1-.529,2.114c-.4.793-.661.925-1.322,2.247a11.368,11.368,0,0,1-.132,2.114c-.4,1.322-3.965.264-4.89,0-1.189-.264-3.568-.793-3.04-2.379a19.168,19.168,0,0,0,1.189-4.758,25.648,25.648,0,0,1-4.493-11.1,13.782,13.782,0,0,1,.529-6.476,17.58,17.58,0,0,1,4.625-7.268c3.04-2.643,5.815-3.7,10.308-4.361-1.057,1.189-2.114,2.511-3.3,3.832a20.478,20.478,0,0,0-2.643,4.229c-1.057,2.114-1.057,2.907.4,4.625,1.189,1.586,1.85,2.247,2.247,3.832a8.559,8.559,0,0,0-.661,2.775c1.454,1.586,2.511,2.643,3.832,2.907a5.118,5.118,0,0,0,3.7-.4c2.643-1.322,5.154-3.172,8.194-3.3,1.454-3.436,1.322-6.343.529-9.779a58.531,58.531,0,0,1-.793-6.74,17.227,17.227,0,0,0-.264,6.872c.529,2.907.925,6.079-.529,8.59-2.775.264-5.154,1.85-7.665,3.172a4.364,4.364,0,0,1-3.172.264c-.793-.132-1.454-.793-2.643-2.114a6.139,6.139,0,0,1,.793-3.04,57.631,57.631,0,0,1,3.172-5.418c-1.322,1.718-2.643,3.172-3.7,4.758a12.324,12.324,0,0,0-1.982-3.172,2.784,2.784,0,0,1-.4-3.436A14.2,14.2,0,0,1,194.871,176c2.114-2.379,4.1-4.89,6.476-7.268a5.035,5.035,0,0,1,3.436-1.454c1.586-.264,3.04-.529,4.625-.925a26.978,26.978,0,0,1-4.493.4h0c1.454-1.85,2.247-2.907,4.625-3.965,5.815-2.511,9.515-2.775,14.008,1.057a31.639,31.639,0,0,0,3.436,2.775,5.816,5.816,0,0,0-1.322.264,5.038,5.038,0,0,1,1.982.132c.132.132.4.264.529.4a5.381,5.381,0,0,1,1.85,1.586,17.5,17.5,0,0,1,1.586,2.643c-.264-.132-.529-.132-.793-.264a.8.8,0,0,0-.529-.132,1.589,1.589,0,0,0-1.057.264h0a4.306,4.306,0,0,1-1.718.529,1.459,1.459,0,0,0,1.057,0h.132c-.132.132-.132.4-.264.661a2.249,2.249,0,0,0,.132.925h0c0,.132.132.132.132.264-.264.132-.4.132-.661.264a12.736,12.736,0,0,1,3.172,0c.132.4.132.661.264,1.057h-.4a1.808,1.808,0,0,0-1.85-.132c-2.247.529-1.718,1.85-2.775,3.832,1.057-1.322,1.057-2.775,2.775-3.172.4-.132.661-.264.925-.132a2.593,2.593,0,0,0-1.189,1.189c-.529,1.454-.132,2.511-.793,3.832.661-1.189.661-2.247,1.322-3.568.264-.4,1.057-1.189,1.454-1.189h.4a12.866,12.866,0,0,1,.132,2.114c-.132,1.189-.4,2.907-.529,3.568a9.474,9.474,0,0,0,1.189-3.568,10,10,0,0,0,0-3.965c-.4-1.85,1.454-1.454,2.511-2.379.793-.661,1.322-1.586,1.982-2.247s1.85.264,2.114,1.057a26.308,26.308,0,0,1,1.454,10.572c-.4,3.3-1.982,7-4.89,8.59-3.7,2.114-8.194.793-11.894-.4a9.44,9.44,0,0,1-1.982-1.057A2.969,2.969,0,0,1,221.7,190.541Zm-3.3,13.348c-.132,1.322-.529,1.454-1.85,1.454a27.623,27.623,0,0,1-3.3-.132,7.179,7.179,0,0,1-1.454-.264c1.189-.925,3.3-4.625,3.7-5.947s.925-2.511,1.189-3.832a7.451,7.451,0,0,0,.529,1.586,7.821,7.821,0,0,1,.661,2.511,25.464,25.464,0,0,0,.132,3.172A2.045,2.045,0,0,1,218.394,203.888ZM179.805,176.4a2.109,2.109,0,0,0-.4,1.057c-.4,1.454.132,2.775-1.189,3.832.661,1.189.529,1.718,1.982,1.189a5.457,5.457,0,0,0,1.454-.925c-.132.529-.4,1.057-.529,1.586,0,.132,0,.132-.132.264-1.057.4-2.379.661-2.907-.4a6.543,6.543,0,0,1-.529-1.718C175.84,179.572,178.351,177.193,179.805,176.4Zm.132,1.586a.8.8,0,0,1,.132-.529c0-.132,0-.132.132-.264.4.264.4.529.529,1.057C180.466,177.986,180.2,177.854,179.937,177.986Zm1.322,15.462a31.234,31.234,0,0,0,3.568,7.665h0a9.105,9.105,0,0,1-.4,1.057c-1.057,1.454-3.7-.661-4.493-1.454a5.346,5.346,0,0,1-1.586-2.907c-.132-.661,0-.661.529-1.189l1.982-1.982Zm50.351-21.805c0,.132.132.264.132.4l-.132.132c-.132-.132-.264-.4-.4-.529ZM182.448,179.7Zm-2.114-3.172Zm-3.3,5.022Zm18.5,19.427Zm32.246-9.779Zm11.894-4.493Z" fill="#1e1e1e" />
    <path d="M224.341,175.079a13.744,13.744,0,0,0-1.982.264c0-.264-.132-.4-.132-.661a1.876,1.876,0,0,0-1.189-1.057c.4-.264.925-.529,1.322-.793-1.057.529-2.247.4-3.172.925-.793.529-1.85,2.247-2.643,2.907a11.024,11.024,0,0,0,1.586-1.057,2.45,2.45,0,0,0,.264.925,2.082,2.082,0,0,0,.925.925,4.134,4.134,0,0,0-.661,1.322A11.547,11.547,0,0,1,224.341,175.079Z" fill="#1e1e1e" />
    <path d="M214.826,173.1a5.216,5.216,0,0,1,3.3-4.1C214.958,169.793,214.429,171.114,214.826,173.1Z" fill="#1e1e1e" />
    <path d="M219.98,188.162c-.132.4-.132,1.057-.264,1.454a5.72,5.72,0,0,1,.661-1.586c.264-.529.4-.529.925-.793a12.28,12.28,0,0,0,1.322-.661c-.4,0-1.057.264-1.454.264C220.244,186.973,220.112,187.237,219.98,188.162Z" fill="#1e1e1e" />
    <path d="M203.064,170.321c-1.189,1.189-2.247,5.022-2.643,6.608.529-1.322,1.982-4.89,3.04-5.815a2.765,2.765,0,0,1,.793-.529c-.793,1.322-.661,1.586-.4,3.3a6.977,6.977,0,0,1,1.85-3.832c1.057-.264,2.114-.661,3.3-1.057-1.322.132-2.511.264-3.832.4C203.989,169.66,203.725,169.66,203.064,170.321Z" fill="#1e1e1e" />
    <path d="M218.791,177.061a.887.887,0,0,1,1.586-.793v.132a8.551,8.551,0,0,0-1.189,1.057.422.422,0,0,1-.4-.4" fill="#fffacb" />

    <path d="M147.935,229.5V228.15a2.616,2.616,0,0,0,.557.369,4.407,4.407,0,0,0,.684.276,5.29,5.29,0,0,0,.721.175,4.022,4.022,0,0,0,.67.062,2.626,2.626,0,0,0,1.583-.393,1.475,1.475,0,0,0,.349-1.822,1.979,1.979,0,0,0-.482-.537,4.859,4.859,0,0,0-.728-.465q-.42-.221-.906-.468-.513-.259-.957-.526a4.114,4.114,0,0,1-.772-.588,2.453,2.453,0,0,1-.516-.729,2.482,2.482,0,0,1,.106-2.119,2.529,2.529,0,0,1,.772-.816,3.5,3.5,0,0,1,1.09-.479,4.961,4.961,0,0,1,1.248-.157,4.78,4.78,0,0,1,2.112.349v1.292a3.826,3.826,0,0,0-2.229-.6,3.643,3.643,0,0,0-.752.079,2.093,2.093,0,0,0-.67.256,1.5,1.5,0,0,0-.479.458,1.216,1.216,0,0,0-.185.684,1.4,1.4,0,0,0,.14.649,1.6,1.6,0,0,0,.414.5,4.127,4.127,0,0,0,.667.438q.393.212.906.465t1,.547a4.556,4.556,0,0,1,.827.636,2.837,2.837,0,0,1,.564.772,2.176,2.176,0,0,1,.208.971,2.467,2.467,0,0,1-.284,1.228,2.333,2.333,0,0,1-.766.816,3.364,3.364,0,0,1-1.111.455,6.125,6.125,0,0,1-1.326.14,5.341,5.341,0,0,1-.574-.038q-.342-.037-.7-.109a5.4,5.4,0,0,1-.673-.178A2.069,2.069,0,0,1,147.935,229.5Z" fill="#5b5b5b" />
    <path d="M156.828,228.889H156.8v4.231H155.68V222.9H156.8v1.23h.027a2.651,2.651,0,0,1,2.42-1.395,2.563,2.563,0,0,1,2.112.94,3.89,3.89,0,0,1,.759,2.519,4.342,4.342,0,0,1-.854,2.813,2.848,2.848,0,0,1-2.338,1.056A2.341,2.341,0,0,1,156.828,228.889Zm-.027-2.823v.978a2.084,2.084,0,0,0,.564,1.474,2.012,2.012,0,0,0,3.028-.175,3.576,3.576,0,0,0,.578-2.167,2.822,2.822,0,0,0-.54-1.832,1.789,1.789,0,0,0-1.463-.663,1.984,1.984,0,0,0-1.572.681A2.5,2.5,0,0,0,156.8,226.066Z" fill="#5b5b5b" />
    <path d="M168.736,229.9h-1.121v-1.094h-.027a2.347,2.347,0,0,1-2.153,1.258,2.3,2.3,0,0,1-1.637-.554,1.918,1.918,0,0,1-.591-1.47q0-1.961,2.311-2.283l2.1-.294q0-1.784-1.442-1.784a3.446,3.446,0,0,0-2.283.861v-1.148a4.337,4.337,0,0,1,2.379-.656q2.468,0,2.468,2.611Zm-1.121-3.541-1.688.232a2.759,2.759,0,0,0-1.176.386,1.116,1.116,0,0,0-.4.981,1.065,1.065,0,0,0,.366.837,1.411,1.411,0,0,0,.974.325,1.8,1.8,0,0,0,1.377-.585,2.086,2.086,0,0,0,.543-1.479Z" fill="#5b5b5b" />
    <path d="M174.5,224.035a1.371,1.371,0,0,0-.848-.226,1.431,1.431,0,0,0-1.2.677,3.129,3.129,0,0,0-.482,1.846V229.9h-1.121v-7h1.121v1.442H172a2.45,2.45,0,0,1,.731-1.152,1.669,1.669,0,0,1,1.1-.413,1.837,1.837,0,0,1,.67.1Z" fill="#5b5b5b" />
    <path d="M181.526,229.9h-1.572l-3.09-3.363h-.027V229.9h-1.121V219.537h1.121v6.569h.027L179.8,222.9h1.47l-3.247,3.377Z" fill="#5b5b5b" />
    <path d="M189.436,230.065a3.245,3.245,0,0,1-2.478-.981,3.631,3.631,0,0,1-.926-2.6,3.784,3.784,0,0,1,.964-2.755,3.468,3.468,0,0,1,2.6-.991,3.14,3.14,0,0,1,2.444.964,3.822,3.822,0,0,1,.878,2.673,3.761,3.761,0,0,1-.947,2.683A3.316,3.316,0,0,1,189.436,230.065Zm.082-6.385a2.132,2.132,0,0,0-1.709.735,3.015,3.015,0,0,0-.629,2.026,2.855,2.855,0,0,0,.636,1.962,2.161,2.161,0,0,0,1.7.718,2.051,2.051,0,0,0,1.671-.7,3.054,3.054,0,0,0,.584-2,3.107,3.107,0,0,0-.584-2.023A2.041,2.041,0,0,0,189.518,223.68Z" fill="#5b5b5b" />
    <path d="M200.523,229.9H199.4v-3.992q0-2.228-1.627-2.229a1.766,1.766,0,0,0-1.391.632,2.344,2.344,0,0,0-.55,1.6V229.9h-1.121v-7h1.121v1.162h.027a2.527,2.527,0,0,1,2.3-1.326,2.142,2.142,0,0,1,1.757.741,3.3,3.3,0,0,1,.608,2.144Z" fill="#5b5b5b" />
    <path d="M213.99,229.9h-1.148V225.43H207.77V229.9h-1.148v-9.8h1.148v4.3h5.072v-4.3h1.148Z" fill="#5b5b5b" />
    <path d="M216.561,229.9v-9.8h2.707q5.182,0,5.182,4.778a4.814,4.814,0,0,1-1.439,3.646,5.335,5.335,0,0,1-3.852,1.378Zm1.148-8.764v7.725h1.463a4.154,4.154,0,0,0,3-1.032,3.87,3.87,0,0,0,1.073-2.926q0-3.768-4.006-3.767Z" fill="#5b5b5b" />
    <path d="M227.525,229.9h-1.148v-9.8h1.148Z" fill="#5b5b5b" />
    <path d="M235.763,229.9h-1.121v-3.992q0-2.228-1.627-2.229a1.766,1.766,0,0,0-1.391.632,2.344,2.344,0,0,0-.55,1.6V229.9h-1.121v-7h1.121v1.162h.027a2.527,2.527,0,0,1,2.3-1.326,2.142,2.142,0,0,1,1.757.741,3.3,3.3,0,0,1,.608,2.144Z" fill="#5b5b5b" />
    <path d="M237.451,229.648v-1.2a3.318,3.318,0,0,0,2.017.677q1.477,0,1.477-.984a.862.862,0,0,0-.126-.476,1.279,1.279,0,0,0-.342-.345,2.641,2.641,0,0,0-.506-.271q-.291-.119-.625-.249a8.083,8.083,0,0,1-.817-.372,2.51,2.51,0,0,1-.588-.424,1.58,1.58,0,0,1-.355-.537,1.9,1.9,0,0,1-.12-.7,1.677,1.677,0,0,1,.226-.872,2,2,0,0,1,.6-.635,2.766,2.766,0,0,1,.858-.387,3.833,3.833,0,0,1,.995-.13,4.011,4.011,0,0,1,1.627.314v1.135a3.174,3.174,0,0,0-1.777-.506,2.117,2.117,0,0,0-.567.071,1.4,1.4,0,0,0-.434.2.928.928,0,0,0-.28.312.813.813,0,0,0-.1.4.954.954,0,0,0,.1.458,1.008,1.008,0,0,0,.291.328,2.25,2.25,0,0,0,.465.26q.273.117.622.253a8.4,8.4,0,0,1,.834.366,2.819,2.819,0,0,1,.629.424,1.646,1.646,0,0,1,.4.543,1.756,1.756,0,0,1,.14.731,1.726,1.726,0,0,1-.229.9,1.959,1.959,0,0,1-.612.636,2.821,2.821,0,0,1-.882.376,4.352,4.352,0,0,1-1.046.123A3.979,3.979,0,0,1,237.451,229.648Z" fill="#5b5b5b" />
    <path d="M244.39,221.123a.71.71,0,0,1-.513-.205.692.692,0,0,1-.212-.52.719.719,0,0,1,.725-.731.722.722,0,0,1,.523.209.73.73,0,0,1,0,1.035A.72.72,0,0,1,244.39,221.123Zm.547,8.777h-1.121v-7h1.121Z" fill="#5b5b5b" />
    <path d="M253.181,229.34q0,3.855-3.691,3.855a4.956,4.956,0,0,1-2.27-.492v-1.121a4.662,4.662,0,0,0,2.256.656q2.584,0,2.584-2.748v-.766h-.027a2.833,2.833,0,0,1-4.508.407,3.73,3.73,0,0,1-.8-2.506,4.357,4.357,0,0,1,.858-2.837,2.865,2.865,0,0,1,2.348-1.053,2.281,2.281,0,0,1,2.1,1.135h.027V222.9h1.121Zm-1.121-2.6V225.7a2,2,0,0,0-.564-1.429,1.857,1.857,0,0,0-1.4-.595,1.948,1.948,0,0,0-1.627.755,3.372,3.372,0,0,0-.588,2.116,2.9,2.9,0,0,0,.564,1.87,1.823,1.823,0,0,0,1.494.7,1.953,1.953,0,0,0,1.535-.67A2.5,2.5,0,0,0,252.06,226.735Z" fill="#5b5b5b" />
    <path d="M261.261,229.9H260.14v-4.033q0-2.187-1.627-2.187a1.775,1.775,0,0,0-1.381.632,2.358,2.358,0,0,0-.561,1.624V229.9H255.45V219.537h1.121v4.525h.027a2.546,2.546,0,0,1,2.3-1.326q2.365,0,2.365,2.851Z" fill="#5b5b5b" />
    <path d="M266.62,229.832a2.164,2.164,0,0,1-1.046.219q-1.839,0-1.839-2.051v-4.143h-1.2V222.9h1.2v-1.709l1.121-.362V222.9h1.764v.957h-1.764V227.8a1.635,1.635,0,0,0,.239,1,.956.956,0,0,0,.793.3,1.176,1.176,0,0,0,.731-.232Z" fill="#5b5b5b" />
    <rect x="79.638" y="26.562" width="66.265" height="1.5" fill="#969696" />
    <polygon points="144.371 22.076 153.438 27.311 144.371 32.547 144.371 22.076" fill="#969696" />
    <rect x="255.638" y="26.562" width="66.265" height="1.5" fill="#969696" />
    <polygon points="320.371 22.076 329.438 27.311 320.371 32.547 320.371 22.076" fill="#969696" />
    <rect x="203.742" y="89.198" width="1.5" height="50.73" fill="#969696" />
    <polygon points="209.727 138.397 204.492 147.464 199.256 138.397 209.727 138.397" fill="#969696" />
    <polygon points="209.727 90.731 204.492 81.663 199.256 90.731 209.727 90.731" fill="#969696" />
    <rect x="203.742" y="249.198" width="1.5" height="50.73" fill="#969696" />
    <polygon points="209.727 298.397 204.492 307.464 199.256 298.397 209.727 298.397" fill="#969696" />
    <polygon points="209.727 250.731 204.492 241.663 199.256 250.731 209.727 250.731" fill="#969696" />
    <path d="M171.022,391.393v-9.8h2.707q5.182,0,5.182,4.778a4.812,4.812,0,0,1-1.439,3.646,5.335,5.335,0,0,1-3.852,1.378Zm1.148-8.764v7.725h1.463a4.154,4.154,0,0,0,3-1.032,3.87,3.87,0,0,0,1.073-2.926q0-3.768-4.006-3.767Z" fill="#5b5b5b" />
    <path d="M185.7,391.393h-1.121V390.3h-.027a2.347,2.347,0,0,1-2.153,1.258A2.3,2.3,0,0,1,180.76,391a1.919,1.919,0,0,1-.591-1.47q0-1.961,2.311-2.283l2.1-.294q0-1.784-1.442-1.784a3.446,3.446,0,0,0-2.283.861v-1.148a4.337,4.337,0,0,1,2.379-.656q2.468,0,2.468,2.611Zm-1.121-3.541-1.688.232a2.759,2.759,0,0,0-1.176.386,1.116,1.116,0,0,0-.4.981,1.067,1.067,0,0,0,.366.837,1.411,1.411,0,0,0,.974.325,1.8,1.8,0,0,0,1.377-.585,2.086,2.086,0,0,0,.543-1.479Z" fill="#5b5b5b" />
    <path d="M191.058,391.324a2.164,2.164,0,0,1-1.046.219q-1.839,0-1.839-2.051V385.35h-1.2v-.957h1.2v-1.709l1.121-.362v2.071h1.764v.957h-1.764v3.944a1.635,1.635,0,0,0,.239,1,.956.956,0,0,0,.793.3,1.176,1.176,0,0,0,.731-.232Z" fill="#5b5b5b" />
    <path d="M197.566,391.393h-1.121V390.3h-.027a2.347,2.347,0,0,1-2.153,1.258,2.3,2.3,0,0,1-1.637-.554,1.919,1.919,0,0,1-.591-1.47q0-1.961,2.311-2.283l2.1-.294q0-1.784-1.442-1.784a3.446,3.446,0,0,0-2.283.861v-1.148a4.337,4.337,0,0,1,2.379-.656q2.468,0,2.468,2.611Zm-1.121-3.541-1.688.232a2.759,2.759,0,0,0-1.176.386,1.116,1.116,0,0,0-.4.981,1.067,1.067,0,0,0,.366.837,1.411,1.411,0,0,0,.974.325,1.8,1.8,0,0,0,1.377-.585,2.086,2.086,0,0,0,.543-1.479Z" fill="#5b5b5b" />
    <path d="M208.64,382.629h-3.828v3.391h3.541v1.032h-3.541v4.341h-1.148v-9.8h4.977Z" fill="#5b5b5b" />
    <path d="M214.84,391.393h-1.121V390.3h-.027a2.347,2.347,0,0,1-2.153,1.258A2.3,2.3,0,0,1,209.9,391a1.919,1.919,0,0,1-.591-1.47q0-1.961,2.311-2.283l2.1-.294q0-1.784-1.442-1.784a3.446,3.446,0,0,0-2.283.861v-1.148a4.337,4.337,0,0,1,2.379-.656q2.468,0,2.468,2.611Zm-1.121-3.541-1.688.232a2.759,2.759,0,0,0-1.176.386,1.116,1.116,0,0,0-.4.981,1.067,1.067,0,0,0,.366.837,1.411,1.411,0,0,0,.974.325,1.8,1.8,0,0,0,1.377-.585,2.086,2.086,0,0,0,.543-1.479Z" fill="#5b5b5b" />
    <path d="M221.724,391.071a3.636,3.636,0,0,1-1.914.485,3.172,3.172,0,0,1-2.417-.974,3.534,3.534,0,0,1-.919-2.526,3.879,3.879,0,0,1,.991-2.778,3.465,3.465,0,0,1,2.646-1.05,3.686,3.686,0,0,1,1.627.342v1.148a2.853,2.853,0,0,0-1.668-.547,2.257,2.257,0,0,0-1.76.769,2.921,2.921,0,0,0-.687,2.021,2.778,2.778,0,0,0,.646,1.941,2.228,2.228,0,0,0,1.733.711,2.805,2.805,0,0,0,1.723-.608Z" fill="#5b5b5b" />
    <path d="M226.667,391.324a2.164,2.164,0,0,1-1.046.219q-1.839,0-1.839-2.051V385.35h-1.2v-.957h1.2v-1.709l1.121-.362v2.071h1.764v.957H224.9v3.944a1.635,1.635,0,0,0,.239,1,.956.956,0,0,0,.793.3,1.176,1.176,0,0,0,.731-.232Z" fill="#5b5b5b" />
    <path d="M230.98,391.557a3.246,3.246,0,0,1-2.478-.981,3.631,3.631,0,0,1-.926-2.6,3.784,3.784,0,0,1,.964-2.755,3.468,3.468,0,0,1,2.6-.991,3.14,3.14,0,0,1,2.444.964,3.822,3.822,0,0,1,.878,2.673,3.759,3.759,0,0,1-.947,2.683A3.316,3.316,0,0,1,230.98,391.557Zm.082-6.385a2.132,2.132,0,0,0-1.709.735,3.015,3.015,0,0,0-.629,2.026,2.855,2.855,0,0,0,.636,1.962,2.161,2.161,0,0,0,1.7.718,2.051,2.051,0,0,0,1.671-.7,3.054,3.054,0,0,0,.584-2,3.107,3.107,0,0,0-.584-2.023A2.041,2.041,0,0,0,231.062,385.172Z" fill="#5b5b5b" />
    <path d="M239.908,385.527a1.371,1.371,0,0,0-.848-.226,1.431,1.431,0,0,0-1.2.677,3.129,3.129,0,0,0-.482,1.846v3.568h-1.121v-7h1.121v1.442h.027a2.45,2.45,0,0,1,.731-1.152,1.669,1.669,0,0,1,1.1-.413,1.837,1.837,0,0,1,.67.1Z" fill="#5b5b5b" />
    <path d="M247.256,384.393l-3.22,8.121q-.861,2.174-2.42,2.174a2.589,2.589,0,0,1-.731-.089v-1a2.078,2.078,0,0,0,.663.123,1.374,1.374,0,0,0,1.271-1.012l.561-1.326-2.734-6.986h1.244l1.894,5.387q.034.1.144.533h.041q.034-.164.137-.52l1.989-5.4Z" fill="#5b5b5b" />
    <path d="M230.981,353.257h0v-11.22l-12.7,11.035H218V342.037l-12.7,11.035h0V329.983c0-1.947-4.358-3.895-10.107-3.895s-10.478,1.855-10.478,3.895v42.284h46.364Zm-35.793-21.42c-4.173,0-7.511-1.02-7.511-2.133s3.338-2.133,7.511-2.133,7.511.927,7.511,2.133C202.606,330.817,199.268,331.837,195.188,331.837Zm21.884,32.919h-5.1v-5.1h5.1Zm-8.995,0h-5.1v-5.1h5.1Zm12.982,0v-5.1h5.1v5.1Z" fill="#59b4d9" />
    <rect x="184.709" y="329.704" width="10.293" height="42.562" fill="#3999c6" />
    <path d="M205.2,329.7c0,2.04-4.636,3.709-10.293,3.709s-10.2-1.669-10.2-3.709S189.346,326,195,326s10.2,1.576,10.2,3.709" fill="#fff" />
    <path d="M203.162,329.426c0,1.391-3.616,2.411-8.16,2.411s-8.16-1.02-8.16-2.411,3.616-2.411,8.16-2.411,8.16,1.113,8.16,2.411" fill="#7fba00" />
    <path d="M201.4,330.91c1.113-.371,1.669-.927,1.669-1.484,0-1.391-3.616-2.411-8.16-2.411s-8.16,1.113-8.16,2.411c.093.556.742,1.113,1.762,1.484a19.686,19.686,0,0,1,6.491-.927,19.479,19.479,0,0,1,6.4.927" fill="#b8d432" />
</svg>
