<svg class="architecture-diagram" aria-labelledby="demand-forecasting-and-price-optimization" height="394.688" viewbox="0 0 402.691 394.688" width="402.691" xmlns="http://www.w3.org/2000/svg">
    <path d="M12.729 56.644l-2.769 9.8H8.613L6.6 59.282a4.494 4.494 0 01-.157-1h-.031a5.06 5.06 0 01-.178.984L4.2 66.446H2.871L0 56.644h1.265l2.085 7.52a4.959 4.959 0 01.164.984h.034a5.785 5.785 0 01.212-.984l2.167-7.52h1.1l2.078 7.574a5.562 5.562 0 01.164.916H9.3a5.448 5.448 0 01.185-.943l2-7.547zM19.325 63.226h-4.942a2.618 2.618 0 00.629 1.8 2.169 2.169 0 001.654.637 3.439 3.439 0 002.174-.779v1.053a4.065 4.065 0 01-2.44.67 2.959 2.959 0 01-2.331-.954 3.9 3.9 0 01-.848-2.683 3.828 3.828 0 01.926-2.663 2.967 2.967 0 012.3-1.028 2.631 2.631 0 012.126.889 3.7 3.7 0 01.752 2.467zm-1.148-.949a2.283 2.283 0 00-.468-1.512 1.6 1.6 0 00-1.282-.539 1.811 1.811 0 00-1.347.566 2.577 2.577 0 00-.684 1.484zM22.169 65.435h-.027v1.012h-1.121V56.083h1.121v4.594h.027a2.651 2.651 0 012.42-1.395 2.564 2.564 0 012.109.939 3.885 3.885 0 01.762 2.52 4.337 4.337 0 01-.854 2.812 2.846 2.846 0 01-2.338 1.057 2.3 2.3 0 01-2.099-1.175zm-.027-2.824v.979a2.081 2.081 0 00.564 1.473 2.011 2.011 0 003.028-.174 3.579 3.579 0 00.578-2.168 2.824 2.824 0 00-.54-1.832 1.788 1.788 0 00-1.463-.662 1.987 1.987 0 00-1.572.68 2.5 2.5 0 00-.595 1.703zM40.824 66.446h-1.271L38.514 63.7h-4.157l-.978 2.748H32.1l3.76-9.8h1.189zm-2.687-3.781L36.6 58.489a4 4 0 01-.15-.656h-.027a3.69 3.69 0 01-.157.656l-1.526 4.176zM43.265 65.435h-.027v4.23h-1.122V59.446h1.121v1.23h.027a2.651 2.651 0 012.42-1.395 2.562 2.562 0 012.112.939 3.9 3.9 0 01.759 2.52 4.337 4.337 0 01-.854 2.812 2.846 2.846 0 01-2.338 1.057 2.343 2.343 0 01-2.098-1.174zm-.027-2.824v.979a2.081 2.081 0 00.564 1.473 2.011 2.011 0 003.028-.174 3.579 3.579 0 00.578-2.168 2.824 2.824 0 00-.54-1.832 1.788 1.788 0 00-1.463-.662 1.987 1.987 0 00-1.572.68 2.5 2.5 0 00-.596 1.703zM51.5 65.435h-.027v4.23h-1.126V59.446h1.121v1.23h.032a2.651 2.651 0 012.42-1.395 2.562 2.562 0 012.112.939 3.9 3.9 0 01.759 2.52 4.337 4.337 0 01-.854 2.812 2.846 2.846 0 01-2.338 1.057 2.343 2.343 0 01-2.099-1.174zm-.027-2.824v.979a2.081 2.081 0 00.564 1.473 2.011 2.011 0 003.028-.174 3.579 3.579 0 00.578-2.168 2.824 2.824 0 00-.54-1.832 1.788 1.788 0 00-1.463-.662 1.987 1.987 0 00-1.572.68 2.5 2.5 0 00-.6 1.703z" fill="#5b5b5b"/>
    <path d="M42.394 40.269a22.351 22.351 0 01-31.509-4.047 22.3 22.3 0 014.047-31.51A22.4 22.4 0 0146.441 8.76a22.315 22.315 0 01-4.047 31.509z" fill="#59b4d9"/>
    <path d="M38.106 26.538a5.236 5.236 0 006.986.906c0-.222 0-.222.222-.444 2.255 1.571 3.6 2.7 4.491 3.142.24-.665.462-1.35.684-1.793-.906-.684-2.255-1.812-3.826-3.16a5.909 5.909 0 00-.683-4.713 5.152 5.152 0 00-6.3-1.127c-2.237-2.032-4.934-4.509-7.411-6.986 8.094-4.491 13.952-3.825 13.952-3.825a14.937 14.937 0 00-3.16-3.364 25.046 25.046 0 00-15.08 2.7c-2.014-2.033-4.047-4.288-6.3-6.764a17.861 17.861 0 00-2.92 1.127 44.984 44.984 0 006.081 7.651 65.984 65.984 0 00-6.3 5.415 3.074 3.074 0 01-.683.887 7.309 7.309 0 00-3.826.24 17.3 17.3 0 01-1.571-9.684A14.647 14.647 0 0010.2 9.665a13.235 13.235 0 00.906 9 6.744 6.744 0 000 8.334c0 .222.222.444.443.665a25.743 25.743 0 00-1.349 7.892c.222.222.222.444.462.665a27.515 27.515 0 003.586 3.6 31.821 31.821 0 011.59-10.121 7 7 0 003.142-.683c.683.683 1.349 1.127 1.811 1.589a37.234 37.234 0 006.745 4.269 3.975 3.975 0 00.665 3.16 4.646 4.646 0 006.3.887c.462-.443.906-.665 1.127-1.127a45.619 45.619 0 008.778.906c.462 0 2.033-2.255 2.938-3.6a24.6 24.6 0 01-11.033-.665 4.645 4.645 0 00-.905-1.811 4.351 4.351 0 00-5.858-1.127 28.35 28.35 0 01-6.284-4.047 6.125 6.125 0 00-1.127-.906 6.6 6.6 0 00.222-6.745c.222-.444.665-.665.905-.906 2.015-1.793 4.047-3.363 5.84-4.712l-.222-.222.222.222a79.678 79.678 0 008.557 7.189 5.313 5.313 0 00.445 5.167z" fill="#fff"/>
    <path d="M177.773 45.906a1.88 1.88 0 001.8 1.9h46.3a1.9 1.9 0 001.9-1.9v-33.1h-50z" fill="#a0a1a2"/>
    <path d="M225.873 5.106h-46.3a1.88 1.88 0 00-1.8 1.9v5.7h50v-5.7a1.9 1.9 0 00-1.9-1.9" fill="#7a7a7a"/>
    <path fill="#0072c6" d="M181.473 16.206h20.4v13h-20.4zM181.473 31.006h20.4v13h-20.4z"/>
    <path fill="#fff" d="M203.673 16.206h20.3v13h-20.3z"/>
    <path fill="#0072c6" d="M203.673 31.006h20.3v13h-20.3z"/>
    <path d="M179.773 5.106a2.006 2.006 0 00-2 2v38.6a2.006 2.006 0 002 2h2.2l39.4-42.6z" fill="#fff" opacity=".2"/>
    <path d="M156.137 69.256h-1.271l-1.039-2.748h-4.157l-.978 2.748h-1.278l3.76-9.8h1.189zm-2.687-3.78l-1.537-4.176a3.948 3.948 0 01-.15-.656h-.027a3.69 3.69 0 01-.157.656l-1.524 4.177zM162.31 62.577l-4.143 5.723h4.1v.957h-5.747v-.349l4.143-5.694h-3.753v-.957h5.4zM169.419 69.256H168.3v-1.107h-.027a2.3 2.3 0 01-2.16 1.271q-2.5 0-2.5-2.98v-4.184h1.114v4.006q0 2.215 1.7 2.215a1.717 1.717 0 001.35-.6 2.319 2.319 0 00.53-1.583v-4.038h1.121zM175.333 63.391a1.372 1.372 0 00-.848-.226 1.431 1.431 0 00-1.2.677 3.129 3.129 0 00-.482 1.846v3.568h-1.121v-7h1.118V63.7h.027a2.447 2.447 0 01.731-1.152 1.669 1.669 0 011.1-.413 1.839 1.839 0 01.67.1zM181.991 66.036h-4.942a2.616 2.616 0 00.629 1.8 2.167 2.167 0 001.654.636 3.441 3.441 0 002.174-.779v1.057a4.065 4.065 0 01-2.44.67 2.955 2.955 0 01-2.331-.954 3.9 3.9 0 01-.848-2.683 3.83 3.83 0 01.926-2.663 2.971 2.971 0 012.3-1.028 2.631 2.631 0 012.126.889 3.707 3.707 0 01.752 2.468zm-1.148-.95a2.281 2.281 0 00-.468-1.511 1.6 1.6 0 00-1.282-.54 1.808 1.808 0 00-1.347.567 2.577 2.577 0 00-.684 1.483zM187.671 69.256v-9.8h2.789a3.053 3.053 0 012.017.622 2.011 2.011 0 01.745 1.62 2.385 2.385 0 01-.451 1.449 2.432 2.432 0 01-1.244.875v.027a2.492 2.492 0 011.586.749 2.3 2.3 0 01.595 1.644 2.562 2.562 0 01-.9 2.037 3.358 3.358 0 01-2.276.779zm1.148-8.764v3.165H190a2.23 2.23 0 001.483-.455 1.583 1.583 0 00.54-1.281q0-1.43-1.88-1.429zm0 4.2v3.527h1.559a2.334 2.334 0 001.569-.479 1.64 1.64 0 00.557-1.312q0-1.736-2.365-1.736zM196.667 69.256h-1.121V58.893h1.121zM201.863 69.42a3.246 3.246 0 01-2.478-.981 3.631 3.631 0 01-.926-2.6 3.784 3.784 0 01.964-2.755 3.468 3.468 0 012.6-.991 3.14 3.14 0 012.444.964 3.822 3.822 0 01.878 2.673 3.759 3.759 0 01-.947 2.683 3.316 3.316 0 01-2.535 1.007zm.082-6.385a2.131 2.131 0 00-1.709.735 3.015 3.015 0 00-.629 2.026 2.855 2.855 0 00.636 1.962 2.161 2.161 0 001.7.718 2.051 2.051 0 001.671-.7 3.054 3.054 0 00.584-2 3.107 3.107 0 00-.584-2.023 2.041 2.041 0 00-1.669-.718zM208.289 68.244h-.027v1.012h-1.122V58.893h1.121v4.594h.027a2.651 2.651 0 012.42-1.395 2.566 2.566 0 012.109.94 3.878 3.878 0 01.762 2.519 4.344 4.344 0 01-.854 2.813 2.848 2.848 0 01-2.338 1.056 2.3 2.3 0 01-2.098-1.176zm-.027-2.823v.979a2.084 2.084 0 00.564 1.474 2.012 2.012 0 003.028-.175 3.573 3.573 0 00.578-2.167 2.822 2.822 0 00-.54-1.832 1.789 1.789 0 00-1.463-.663 1.984 1.984 0 00-1.572.681 2.5 2.5 0 00-.596 1.703zM218.9 68.859v-1.353a2.629 2.629 0 00.557.369 4.407 4.407 0 00.684.276 5.29 5.29 0 00.721.175 4.018 4.018 0 00.67.062 2.627 2.627 0 001.58-.388 1.475 1.475 0 00.349-1.822 1.979 1.979 0 00-.482-.537 4.859 4.859 0 00-.728-.465q-.42-.221-.906-.468-.513-.259-.957-.526a4.114 4.114 0 01-.772-.588 2.461 2.461 0 01-.516-.729 2.482 2.482 0 01.106-2.119 2.524 2.524 0 01.772-.816 3.5 3.5 0 011.09-.479 4.961 4.961 0 011.248-.157 4.783 4.783 0 012.112.349v1.287a3.828 3.828 0 00-2.229-.6 3.64 3.64 0 00-.752.079 2.088 2.088 0 00-.67.256 1.491 1.491 0 00-.479.458 1.216 1.216 0 00-.185.684 1.407 1.407 0 00.14.649 1.592 1.592 0 00.414.5 4.127 4.127 0 00.667.438q.393.212.906.465t1 .547a4.573 4.573 0 01.827.636 2.837 2.837 0 01.564.772 2.169 2.169 0 01.208.971 2.467 2.467 0 01-.284 1.228 2.328 2.328 0 01-.766.816 3.368 3.368 0 01-1.111.455 6.125 6.125 0 01-1.326.14 5.326 5.326 0 01-.574-.038q-.342-.037-.7-.109a5.377 5.377 0 01-.673-.178 2.069 2.069 0 01-.505-.24zM229.439 69.188a2.167 2.167 0 01-1.046.219q-1.839 0-1.839-2.051v-4.143h-1.2v-.957h1.2v-1.709l1.121-.362v2.071h1.764v.957h-1.764v3.944a1.635 1.635 0 00.239 1 .955.955 0 00.793.3 1.177 1.177 0 00.731-.232zM233.752 69.42a3.246 3.246 0 01-2.478-.981 3.631 3.631 0 01-.926-2.6 3.784 3.784 0 01.964-2.755 3.468 3.468 0 012.6-.991 3.14 3.14 0 012.444.964 3.822 3.822 0 01.878 2.673 3.759 3.759 0 01-.947 2.683 3.316 3.316 0 01-2.535 1.007zm.082-6.385a2.131 2.131 0 00-1.709.735 3.015 3.015 0 00-.625 2.03 2.855 2.855 0 00.636 1.962 2.161 2.161 0 001.7.718 2.051 2.051 0 001.671-.7 3.054 3.054 0 00.584-2 3.107 3.107 0 00-.584-2.023 2.041 2.041 0 00-1.673-.722zM242.68 63.391a1.372 1.372 0 00-.848-.226 1.431 1.431 0 00-1.2.677 3.129 3.129 0 00-.482 1.846v3.568h-1.12v-7h1.121V63.7h.027a2.447 2.447 0 01.731-1.152 1.669 1.669 0 011.1-.413 1.839 1.839 0 01.67.1zM248.908 69.256h-1.121v-1.094h-.027a2.347 2.347 0 01-2.153 1.258 2.3 2.3 0 01-1.637-.554 1.919 1.919 0 01-.591-1.47q0-1.961 2.311-2.283l2.1-.294q0-1.784-1.442-1.784a3.445 3.445 0 00-2.283.861v-1.148a4.337 4.337 0 012.379-.656q2.468 0 2.468 2.611zm-1.121-3.541l-1.688.232a2.759 2.759 0 00-1.176.386 1.115 1.115 0 00-.4.981 1.067 1.067 0 00.366.837 1.411 1.411 0 00.974.325 1.8 1.8 0 001.377-.585 2.086 2.086 0 00.543-1.479zM256.995 68.7q0 3.855-3.691 3.855a4.955 4.955 0 01-2.27-.492v-1.125a4.659 4.659 0 002.256.656q2.584 0 2.584-2.748v-.766h-.027a2.833 2.833 0 01-4.508.407 3.733 3.733 0 01-.8-2.506 4.36 4.36 0 01.858-2.837 2.865 2.865 0 012.348-1.053 2.281 2.281 0 012.1 1.135h.027v-.971h1.121zm-1.121-2.6v-1.041a2 2 0 00-.564-1.429 1.857 1.857 0 00-1.4-.595 1.947 1.947 0 00-1.627.755 3.372 3.372 0 00-.588 2.116 2.9 2.9 0 00.564 1.87 1.822 1.822 0 001.494.7 1.952 1.952 0 001.535-.67 2.5 2.5 0 00.586-1.715zM264.89 66.036h-4.942a2.616 2.616 0 00.629 1.8 2.167 2.167 0 001.654.636 3.441 3.441 0 002.169-.772v1.05a4.065 4.065 0 01-2.44.67 2.955 2.955 0 01-2.331-.954 3.9 3.9 0 01-.848-2.683 3.83 3.83 0 01.926-2.663 2.971 2.971 0 012.3-1.028 2.631 2.631 0 012.126.889 3.707 3.707 0 01.752 2.468zm-1.148-.95a2.281 2.281 0 00-.468-1.511 1.6 1.6 0 00-1.282-.54 1.808 1.808 0 00-1.347.567 2.577 2.577 0 00-.684 1.483zM351.5 67.028v3.705h-1.15v-9.8h2.693a3.553 3.553 0 012.437.766 2.734 2.734 0 01.865 2.16 2.972 2.972 0 01-.96 2.283 3.673 3.673 0 01-2.594.889zm0-5.059v4.02h1.2a2.69 2.69 0 001.815-.544 1.924 1.924 0 00.625-1.534q0-1.942-2.3-1.941zM360.446 70.9a3.249 3.249 0 01-2.478-.981 3.631 3.631 0 01-.926-2.6 3.788 3.788 0 01.964-2.756 3.467 3.467 0 012.6-.99 3.14 3.14 0 012.444.963 3.825 3.825 0 01.878 2.674 3.762 3.762 0 01-.947 2.683 3.316 3.316 0 01-2.535 1.007zm.082-6.385a2.131 2.131 0 00-1.709.734 3.019 3.019 0 00-.629 2.027 2.852 2.852 0 00.636 1.961 2.161 2.161 0 001.7.719 2.049 2.049 0 001.671-.705 3.053 3.053 0 00.584-2 3.107 3.107 0 00-.584-2.023 2.039 2.039 0 00-1.669-.715zM374.542 63.733l-2.1 7h-1.162l-1.442-5.012a3.247 3.247 0 01-.109-.648h-.029a3.059 3.059 0 01-.144.635l-1.565 5.025h-1.121l-2.119-7h1.176L367.378 69a3.167 3.167 0 01.1.629h.055a2.931 2.931 0 01.123-.643l1.613-5.25h1.025l1.449 5.277a3.784 3.784 0 01.1.629h.055a2.915 2.915 0 01.116-.629l1.422-5.277zM381.4 67.513h-4.942a2.618 2.618 0 00.629 1.8 2.169 2.169 0 001.654.637 3.439 3.439 0 002.174-.779v1.053a4.065 4.065 0 01-2.44.67 2.959 2.959 0 01-2.331-.954 3.9 3.9 0 01-.848-2.683 3.828 3.828 0 01.926-2.663 2.967 2.967 0 012.3-1.028 2.631 2.631 0 012.126.889 3.7 3.7 0 01.752 2.467zm-1.148-.949a2.283 2.283 0 00-.468-1.512 1.6 1.6 0 00-1.282-.539 1.811 1.811 0 00-1.347.566 2.577 2.577 0 00-.684 1.484zM386.744 64.868a1.37 1.37 0 00-.848-.227 1.432 1.432 0 00-1.2.678 3.129 3.129 0 00-.482 1.846v3.568h-1.121v-7h1.121v1.441h.027a2.447 2.447 0 01.731-1.151 1.664 1.664 0 011.1-.413 1.816 1.816 0 01.67.1zM391.946 70.733v-9.8h2.789a3.051 3.051 0 012.017.621 2.012 2.012 0 01.745 1.621 2.385 2.385 0 01-.451 1.449 2.436 2.436 0 01-1.244.875v.027a2.491 2.491 0 011.586.748 2.3 2.3 0 01.595 1.645 2.564 2.564 0 01-.9 2.037 3.358 3.358 0 01-2.276.779zm1.148-8.764v3.164h1.176a2.229 2.229 0 001.483-.454 1.585 1.585 0 00.54-1.282q0-1.428-1.88-1.428zm0 4.2v3.527h1.559a2.339 2.339 0 001.569-.479 1.641 1.641 0 00.557-1.312q0-1.737-2.365-1.736zM401.12 70.733h-1.148v-9.8h1.148z" fill="#5b5b5b"/>
    <path d="M396.316 39.848h-1.09v-2.18h1.09a4.2 4.2 0 004.195-4.195V11.205a4.2 4.2 0 00-4.195-4.2h-41.3a4.2 4.2 0 00-4.195 4.2v22.269a4.2 4.2 0 004.195 4.195h1.09v2.18h-1.09a6.382 6.382 0 01-6.374-6.375V11.205a6.382 6.382 0 016.375-6.375h41.3a6.382 6.382 0 016.375 6.375v22.269a6.382 6.382 0 01-6.375 6.375"/>
    <path d="M361.711 32.549a2.958 2.958 0 012.958 2.958v6.821a2.958 2.958 0 01-2.958 2.958 2.958 2.958 0 01-2.959-2.957v-6.821a2.958 2.958 0 012.958-2.958zM371.015 45.287a2.959 2.959 0 01-2.959-2.958V24.82a2.959 2.959 0 115.917 0v17.509a2.959 2.959 0 01-2.958 2.959M389.622 45.2a2.959 2.959 0 01-2.959-2.958v-24.8a2.959 2.959 0 115.917 0v24.8a2.959 2.959 0 01-2.958 2.959M380.319 45.287a2.959 2.959 0 01-2.959-2.958V29.322a2.959 2.959 0 115.917 0v13.007a2.959 2.959 0 01-2.958 2.959"/>
    <path fill="#fcd116" d="M198.571 170.718l-4.625.793-4.097 1.85-3.568 2.246-3.436 4.097-1.851 1.983-1.85.66-.528-1.189.925-1.189.132-1.718h.661l.528.528-.132-1.718-.661-.528v-.661l-1.586.925-1.585 1.718-.265 1.586.661 1.321.529 2.115 1.189.528h1.322l1.189-.793-.793 4.097.793 4.493-.925 2.115-2.775 3.039.396 1.983 1.454 2.114 2.511 1.718 1.454.265h1.453l-.925 3.964 3.436 1.454 4.361.528 1.454-1.057.132-2.511 1.718-2.775.132-2.247 3.965.397 3.7-.397-3.7 2.247.661 2.643 2.246 3.7 2.379.926 1.718-.661.793-1.586 3.832-2.907.793.66 5.947.265 1.19-1.058.132-1.718-.397-.66-.264-4.626-1.982-3.964.264-1.851 1.189.661 3.437 3.172 1.585.132 1.851-.793 1.85-1.321.925-3.04 5.286.397 3.304-1.322 2.643-2.379 1.85-3.568.529-4.229-.397-4.757-1.057-4.362-1.057-1.453-1.454-.397-2.511 2.776-2.247.792-1.982-3.303-1.982-1.851-1.19-.66-4.228-3.701-3.569-1.85-3.436-.264-4.096.661-3.569 1.321-2.378 1.982-1.983 2.379-1.982.529-3.436 3.304z"/>
    <path d="M241.521 174.55a14.653 14.653 0 00-1.586-5.286c-.132-.132-.264-.4-.4-.529a5.457 5.457 0 00-1.454-.925 1.96 1.96 0 00-1.718 0c-.132.132-.264.132-.4.264a7.33 7.33 0 00-.793 1.057 9.318 9.318 0 01-.925 1.189 5.128 5.128 0 01-1.454.793 5.128 5.128 0 00-.793-1.454 12.4 12.4 0 00-1.189-1.586l-1.057-1.057-1.189-.793a29.418 29.418 0 01-3.172-2.511c-.4-.4-.925-.793-1.322-1.189a11.711 11.711 0 00-7-3.04 19.132 19.132 0 00-7.929 1.718 13.93 13.93 0 00-3.436 2.114 18.967 18.967 0 00-2.511 2.907 3.91 3.91 0 00-1.322.264 4.69 4.69 0 00-1.586 1.057 8.55 8.55 0 01-1.185 1.057l-1.057 1.057a28.952 28.952 0 00-6.872 1.718 19.8 19.8 0 00-5.683 3.436 9.936 9.936 0 00-1.982 2.114 21.524 21.524 0 00-1.454 2.247l-1.189 1.189a2.742 2.742 0 01-1.322.793 1.023 1.023 0 01-.4.132v-.132a3.389 3.389 0 00.793-2.511c.132.132.132.264.264.4s.132.264.264.4l.264-.264.4.132a5.542 5.542 0 00.132-2.114 1.816 1.816 0 00-.661-1.057c0-.132.132-.132.132-.264a1.91 1.91 0 00.264-.925l-.264-.132.264.132.4-.264-.529.132a8.585 8.585 0 00-3.568 2.247 5.868 5.868 0 00-1.057 1.454 2.949 2.949 0 00-.4 1.718 3.97 3.97 0 00.793 1.454 8.422 8.422 0 00.264.925 1.878 1.878 0 01.264.793 2.746 2.746 0 001.454 1.322 3.221 3.221 0 001.586 0c-.132.661-.132 1.322-.264 1.982a27.663 27.663 0 00.132 3.172 1.676 1.676 0 00.132.793c0 .264.132.529.132.793a1.878 1.878 0 00-.264.793 5.523 5.523 0 01-.529 1.322l-1.057 1.057-.925.925-.264.264a1.625 1.625 0 00-.661 1.85 18.821 18.821 0 00.661 2.114 8.032 8.032 0 001.322 1.85 14.113 14.113 0 003.3 2.114 3.92 3.92 0 002.114.264c0 .132 0 .264-.132.264a6.443 6.443 0 00-.4.925c-.793 1.85 0 2.775 1.322 3.3a12.99 12.99 0 002.114.661c.132 0 .264.132.529.132a19.751 19.751 0 003.7.793c1.454.132 2.775-.264 3.172-1.586a5.816 5.816 0 00.264-1.322V206a7.076 7.076 0 01.925-1.586c0-.132.132-.132.132-.264.264-.529.529-.793.529-1.189v-1.586a15.994 15.994 0 002.511.132h1.322c-.132 0-.264.132-.4.132a.129.129 0 00-.132.132c-1.189.529-1.189 1.718-.793 2.775a6.285 6.285 0 001.454 2.643 10.365 10.365 0 002.643 3.04c1.057.661 2.247.661 3.832-.132a2.746 2.746 0 001.322-1.454c.132-.132.264-.4.4-.529a19.778 19.778 0 011.982-1.586 5.6 5.6 0 01.925-.661 4.4 4.4 0 00.793.4 4.955 4.955 0 001.454.132h3.436a3.823 3.823 0 002.247-.4 2.286 2.286 0 001.057-1.982v-1.057a1.757 1.757 0 00-.4-.925v-2.907a6.633 6.633 0 00-.264-1.586 6.442 6.442 0 00-.529-1.454c-.132-.4-.264-.661-.4-1.057l-.264.132.264-.132a8.084 8.084 0 00-.661-1.586v-.4l.529.529.793.793a9.1 9.1 0 001.718 1.454 3.19 3.19 0 002.247.529 5.239 5.239 0 002.907-1.057 6.459 6.459 0 001.85-2.379c.132-.264.132-.529.264-.793 0-.264.132-.4.132-.661a15.132 15.132 0 004.229.132 11.72 11.72 0 003.832-1.057 9.717 9.717 0 003.832-3.832 14.938 14.938 0 001.85-5.947c-.116-1.58-.248-3.956-.645-6.206zM221.7 190.541c-.4 1.322-1.057 3.568.793 3.965a2.354 2.354 0 001.982-.4 3.724 3.724 0 01-1.718 0 1.159 1.159 0 01-.925-.793c.132.132.4.132.925.264 1.322.264 2.643-.264 2.907-1.322a13.663 13.663 0 01.4-1.586 8.422 8.422 0 00.925.264c-.132.529-.4 1.057-.529 1.718a3.737 3.737 0 01-3.7 2.511c-1.454 0-2.247-.925-3.3-1.718-.661-.529-1.322-1.189-1.982-1.718a14.62 14.62 0 01-4.758-2.379 9.045 9.045 0 003.568 2.775 34.584 34.584 0 01-1.718 6.343c-.264 1.057-2.775 5.154-3.568 5.55-.529.264-3.568 2.907-4.229 3.3a5.93 5.93 0 01-1.454 1.718c-1.982 1.057-3.3-.925-4.361-2.643-.529-.793-1.85-3.04-.661-3.7 1.057-.529 1.718-1.057 2.907-1.718a4.016 4.016 0 00.661.925c0-.4-.132-.661-.132-1.057a3.772 3.772 0 010-1.718c0-.529.132-1.189.132-1.718-.132.661-.529 1.189-.661 1.85a1.191 1.191 0 00-.132.661 21.353 21.353 0 01-7.665.132c-.132-.925-.4-1.982-.529-2.643v4.229a3.008 3.008 0 01-.529 2.114c-.4.793-.661.925-1.322 2.247a11.368 11.368 0 01-.132 2.114c-.4 1.322-3.965.264-4.89 0-1.189-.264-3.568-.793-3.04-2.379a19.168 19.168 0 001.189-4.758 25.648 25.648 0 01-4.493-11.1 13.782 13.782 0 01.529-6.476 17.58 17.58 0 014.625-7.268c3.04-2.643 5.815-3.7 10.308-4.361-1.057 1.189-2.114 2.511-3.3 3.832a20.478 20.478 0 00-2.643 4.229c-1.057 2.114-1.057 2.907.4 4.625 1.189 1.586 1.85 2.247 2.247 3.832a8.559 8.559 0 00-.661 2.775c1.454 1.586 2.511 2.643 3.832 2.907a5.118 5.118 0 003.7-.4c2.643-1.322 5.154-3.172 8.194-3.3 1.454-3.436 1.322-6.343.529-9.779a58.531 58.531 0 01-.793-6.74 17.227 17.227 0 00-.264 6.872c.529 2.907.925 6.079-.529 8.59-2.775.264-5.154 1.85-7.665 3.172a4.364 4.364 0 01-3.172.264c-.793-.132-1.454-.793-2.643-2.114a6.139 6.139 0 01.793-3.04 57.631 57.631 0 013.172-5.418c-1.322 1.718-2.643 3.172-3.7 4.758a12.324 12.324 0 00-1.982-3.172 2.784 2.784 0 01-.4-3.436 14.2 14.2 0 012.633-4.223c2.114-2.379 4.1-4.89 6.476-7.268a5.035 5.035 0 013.436-1.454c1.586-.264 3.04-.529 4.625-.925a26.978 26.978 0 01-4.493.4c1.454-1.85 2.247-2.907 4.625-3.965 5.815-2.511 9.515-2.775 14.008 1.057a31.639 31.639 0 003.436 2.775 5.816 5.816 0 00-1.322.264 5.038 5.038 0 011.982.132c.132.132.4.264.529.4a5.381 5.381 0 011.85 1.586 17.5 17.5 0 011.586 2.643c-.264-.132-.529-.132-.793-.264a.8.8 0 00-.529-.132 1.589 1.589 0 00-1.057.264 4.306 4.306 0 01-1.718.529 1.459 1.459 0 001.057 0h.132c-.132.132-.132.4-.264.661a2.249 2.249 0 00.132.925c0 .132.132.132.132.264-.264.132-.4.132-.661.264a12.736 12.736 0 013.172 0c.132.4.132.661.264 1.057h-.4a1.808 1.808 0 00-1.85-.132c-2.247.529-1.718 1.85-2.775 3.832 1.057-1.322 1.057-2.775 2.775-3.172.4-.132.661-.264.925-.132a2.593 2.593 0 00-1.189 1.189c-.529 1.454-.132 2.511-.793 3.832.661-1.189.661-2.247 1.322-3.568.264-.4 1.057-1.189 1.454-1.189h.4a12.866 12.866 0 01.132 2.114 57.563 57.563 0 01-.529 3.568 9.474 9.474 0 001.189-3.568 10 10 0 000-3.965c-.4-1.85 1.454-1.454 2.511-2.379.793-.661 1.322-1.586 1.982-2.247s1.85.264 2.114 1.057a26.308 26.308 0 011.454 10.572c-.4 3.3-1.982 7-4.89 8.59-3.7 2.114-8.194.793-11.894-.4a9.44 9.44 0 01-1.982-1.057 2.969 2.969 0 01.268 2.383zm-3.3 13.348c-.132 1.322-.529 1.454-1.85 1.454a27.623 27.623 0 01-3.3-.132 7.179 7.179 0 01-1.454-.264c1.189-.925 3.3-4.625 3.7-5.947s.925-2.511 1.189-3.832a7.451 7.451 0 00.529 1.586 7.821 7.821 0 01.661 2.511 25.464 25.464 0 00.132 3.172 2.045 2.045 0 01.387 1.451zM179.805 176.4a2.109 2.109 0 00-.4 1.057c-.4 1.454.132 2.775-1.189 3.832.661 1.189.529 1.718 1.982 1.189a5.457 5.457 0 001.454-.925c-.132.529-.4 1.057-.529 1.586 0 .132 0 .132-.132.264-1.057.4-2.379.661-2.907-.4a6.543 6.543 0 01-.529-1.718c-1.715-1.713.796-4.092 2.25-4.885zm.132 1.586a.8.8 0 01.132-.529c0-.132 0-.132.132-.264.4.264.4.529.529 1.057-.264-.264-.53-.396-.793-.264zm1.322 15.462a31.234 31.234 0 003.568 7.665 9.105 9.105 0 01-.4 1.057c-1.057 1.454-3.7-.661-4.493-1.454a5.346 5.346 0 01-1.586-2.907c-.132-.661 0-.661.529-1.189l1.982-1.982zm50.351-21.805c0 .132.132.264.132.4l-.132.132c-.132-.132-.264-.4-.4-.529zm-49.162 8.057zm-2.114-3.172zm-3.3 5.022zm18.5 19.427zm32.246-9.779zm11.894-4.493z" fill="#1e1e1e"/>
    <path d="M224.341 175.079a13.744 13.744 0 00-1.982.264c0-.264-.132-.4-.132-.661a1.876 1.876 0 00-1.189-1.057c.4-.264.925-.529 1.322-.793-1.057.529-2.247.4-3.172.925-.793.529-1.85 2.247-2.643 2.907a11.024 11.024 0 001.586-1.057 2.45 2.45 0 00.264.925 2.082 2.082 0 00.925.925 4.134 4.134 0 00-.661 1.322 11.547 11.547 0 015.682-3.7zM214.826 173.1a5.216 5.216 0 013.3-4.1c-3.168.793-3.697 2.114-3.3 4.1zM219.98 188.162c-.132.4-.132 1.057-.264 1.454a5.72 5.72 0 01.661-1.586c.264-.529.4-.529.925-.793a12.28 12.28 0 001.322-.661c-.4 0-1.057.264-1.454.264-.926.133-1.058.397-1.19 1.322zM203.064 170.321c-1.189 1.189-2.247 5.022-2.643 6.608.529-1.322 1.982-4.89 3.04-5.815a2.765 2.765 0 01.793-.529c-.793 1.322-.661 1.586-.4 3.3a6.977 6.977 0 011.85-3.832c1.057-.264 2.114-.661 3.3-1.057-1.322.132-2.511.264-3.832.4-1.183.264-1.447.264-2.108.925z" fill="#1e1e1e"/>
    <path d="M218.791 177.061a.887.887 0 011.586-.793v.132a8.551 8.551 0 00-1.189 1.057.422.422 0 01-.4-.4" fill="#fffacb"/>
    <path d="M147.935 229.5v-1.35a2.616 2.616 0 00.557.369 4.407 4.407 0 00.684.276 5.29 5.29 0 00.721.175 4.022 4.022 0 00.67.062 2.626 2.626 0 001.583-.393 1.475 1.475 0 00.349-1.822 1.979 1.979 0 00-.482-.537 4.859 4.859 0 00-.728-.465q-.42-.221-.906-.468-.513-.259-.957-.526a4.114 4.114 0 01-.772-.588 2.453 2.453 0 01-.516-.729 2.482 2.482 0 01.106-2.119 2.529 2.529 0 01.772-.816 3.5 3.5 0 011.09-.479 4.961 4.961 0 011.248-.157 4.78 4.78 0 012.112.349v1.292a3.826 3.826 0 00-2.229-.6 3.643 3.643 0 00-.752.079 2.093 2.093 0 00-.67.256 1.5 1.5 0 00-.479.458 1.216 1.216 0 00-.185.684 1.4 1.4 0 00.14.649 1.6 1.6 0 00.414.5 4.127 4.127 0 00.667.438q.393.212.906.465t1 .547a4.556 4.556 0 01.827.636 2.837 2.837 0 01.564.772 2.176 2.176 0 01.208.971 2.467 2.467 0 01-.284 1.228 2.333 2.333 0 01-.766.816 3.364 3.364 0 01-1.111.455 6.125 6.125 0 01-1.326.14 5.341 5.341 0 01-.574-.038q-.342-.037-.7-.109a5.4 5.4 0 01-.673-.178 2.069 2.069 0 01-.508-.243zM156.828 228.889h-.028v4.231h-1.12V222.9h1.12v1.23h.027a2.651 2.651 0 012.42-1.395 2.563 2.563 0 012.112.94 3.89 3.89 0 01.759 2.519 4.342 4.342 0 01-.854 2.813 2.848 2.848 0 01-2.338 1.056 2.341 2.341 0 01-2.098-1.174zm-.027-2.823v.978a2.084 2.084 0 00.564 1.474 2.012 2.012 0 003.028-.175 3.576 3.576 0 00.578-2.167 2.822 2.822 0 00-.54-1.832 1.789 1.789 0 00-1.463-.663 1.984 1.984 0 00-1.572.681 2.5 2.5 0 00-.596 1.704zM168.736 229.9h-1.121v-1.094h-.027a2.347 2.347 0 01-2.153 1.258 2.3 2.3 0 01-1.637-.554 1.918 1.918 0 01-.591-1.47q0-1.961 2.311-2.283l2.1-.294q0-1.784-1.442-1.784a3.446 3.446 0 00-2.283.861v-1.148a4.337 4.337 0 012.379-.656q2.468 0 2.468 2.611zm-1.121-3.541l-1.688.232a2.759 2.759 0 00-1.176.386 1.116 1.116 0 00-.4.981 1.065 1.065 0 00.366.837 1.411 1.411 0 00.974.325 1.8 1.8 0 001.377-.585 2.086 2.086 0 00.543-1.479zM174.5 224.035a1.371 1.371 0 00-.848-.226 1.431 1.431 0 00-1.2.677 3.129 3.129 0 00-.482 1.846v3.568h-1.121v-7h1.121v1.442h.03a2.45 2.45 0 01.731-1.152 1.669 1.669 0 011.1-.413 1.837 1.837 0 01.67.1zM181.526 229.9h-1.572l-3.09-3.363h-.027v3.363h-1.121v-10.363h1.121v6.569h.027l2.936-3.206h1.47l-3.247 3.377zM189.436 230.065a3.245 3.245 0 01-2.478-.981 3.631 3.631 0 01-.926-2.6 3.784 3.784 0 01.964-2.755 3.468 3.468 0 012.6-.991 3.14 3.14 0 012.444.964 3.822 3.822 0 01.878 2.673 3.761 3.761 0 01-.947 2.683 3.316 3.316 0 01-2.535 1.007zm.082-6.385a2.132 2.132 0 00-1.709.735 3.015 3.015 0 00-.629 2.026 2.855 2.855 0 00.636 1.962 2.161 2.161 0 001.7.718 2.051 2.051 0 001.671-.7 3.054 3.054 0 00.584-2 3.107 3.107 0 00-.584-2.023 2.041 2.041 0 00-1.669-.718zM200.523 229.9H199.4v-3.992q0-2.228-1.627-2.229a1.766 1.766 0 00-1.391.632 2.344 2.344 0 00-.55 1.6v3.989h-1.121v-7h1.121v1.162h.027a2.527 2.527 0 012.3-1.326 2.142 2.142 0 011.757.741 3.3 3.3 0 01.608 2.144zM213.99 229.9h-1.148v-4.47h-5.072v4.47h-1.148v-9.8h1.148v4.3h5.072v-4.3h1.148zM216.561 229.9v-9.8h2.707q5.182 0 5.182 4.778a4.814 4.814 0 01-1.439 3.646 5.335 5.335 0 01-3.852 1.378zm1.148-8.764v7.725h1.463a4.154 4.154 0 003-1.032 3.87 3.87 0 001.073-2.926q0-3.768-4.006-3.767zM227.525 229.9h-1.148v-9.8h1.148zM235.763 229.9h-1.121v-3.992q0-2.228-1.627-2.229a1.766 1.766 0 00-1.391.632 2.344 2.344 0 00-.55 1.6v3.989h-1.121v-7h1.121v1.162h.027a2.527 2.527 0 012.3-1.326 2.142 2.142 0 011.757.741 3.3 3.3 0 01.608 2.144zM237.451 229.648v-1.2a3.318 3.318 0 002.017.677q1.477 0 1.477-.984a.862.862 0 00-.126-.476 1.279 1.279 0 00-.342-.345 2.641 2.641 0 00-.506-.271q-.291-.119-.625-.249a8.083 8.083 0 01-.817-.372 2.51 2.51 0 01-.588-.424 1.58 1.58 0 01-.355-.537 1.9 1.9 0 01-.12-.7 1.677 1.677 0 01.226-.872 2 2 0 01.6-.635 2.766 2.766 0 01.858-.387 3.833 3.833 0 01.995-.13 4.011 4.011 0 011.627.314v1.135a3.174 3.174 0 00-1.777-.506 2.117 2.117 0 00-.567.071 1.4 1.4 0 00-.434.2.928.928 0 00-.28.312.813.813 0 00-.1.4.954.954 0 00.1.458 1.008 1.008 0 00.291.328 2.25 2.25 0 00.465.26q.273.117.622.253a8.4 8.4 0 01.834.366 2.819 2.819 0 01.629.424 1.646 1.646 0 01.4.543 1.756 1.756 0 01.14.731 1.726 1.726 0 01-.229.9 1.959 1.959 0 01-.612.636 2.821 2.821 0 01-.882.376 4.352 4.352 0 01-1.046.123 3.979 3.979 0 01-1.875-.419zM244.39 221.123a.71.71 0 01-.513-.205.692.692 0 01-.212-.52.719.719 0 01.725-.731.722.722 0 01.523.209.73.73 0 010 1.035.72.72 0 01-.523.212zm.547 8.777h-1.121v-7h1.121zM253.181 229.34q0 3.855-3.691 3.855a4.956 4.956 0 01-2.27-.492v-1.121a4.662 4.662 0 002.256.656q2.584 0 2.584-2.748v-.766h-.027a2.833 2.833 0 01-4.508.407 3.73 3.73 0 01-.8-2.506 4.357 4.357 0 01.858-2.837 2.865 2.865 0 012.348-1.053 2.281 2.281 0 012.1 1.135h.027v-.97h1.121zm-1.121-2.6v-1.04a2 2 0 00-.564-1.429 1.857 1.857 0 00-1.4-.595 1.948 1.948 0 00-1.627.755 3.372 3.372 0 00-.588 2.116 2.9 2.9 0 00.564 1.87 1.823 1.823 0 001.494.7 1.953 1.953 0 001.535-.67 2.5 2.5 0 00.586-1.712zM261.261 229.9h-1.121v-4.033q0-2.187-1.627-2.187a1.775 1.775 0 00-1.381.632 2.358 2.358 0 00-.561 1.624v3.964h-1.121v-10.363h1.121v4.525h.027a2.546 2.546 0 012.3-1.326q2.365 0 2.365 2.851zM266.62 229.832a2.164 2.164 0 01-1.046.219q-1.839 0-1.839-2.051v-4.143h-1.2v-.957h1.2v-1.709l1.121-.362v2.071h1.764v.957h-1.764v3.943a1.635 1.635 0 00.239 1 .956.956 0 00.793.3 1.176 1.176 0 00.731-.232z" fill="#5b5b5b"/>
    <path fill="#969696" d="M79.638 26.562h66.265v1.5H79.638z"/>
    <path fill="#969696" d="M144.371 22.076l9.067 5.235-9.067 5.236V22.076zM255.638 26.562h66.265v1.5h-66.265z"/>
    <path fill="#969696" d="M320.371 22.076l9.067 5.235-9.067 5.236V22.076zM203.742 89.198h1.5v50.73h-1.5z"/>
    <path fill="#969696" d="M209.727 138.397l-5.235 9.067-5.236-9.067h10.471zM209.727 90.731l-5.235-9.068-5.236 9.068h10.471zM203.742 249.198h1.5v50.73h-1.5z"/>
    <path fill="#969696" d="M209.727 298.397l-5.235 9.067-5.236-9.067h10.471zM209.727 250.731l-5.235-9.068-5.236 9.068h10.471z"/>
    <path d="M171.022 391.393v-9.8h2.707q5.182 0 5.182 4.778a4.812 4.812 0 01-1.439 3.646 5.335 5.335 0 01-3.852 1.378zm1.148-8.764v7.725h1.463a4.154 4.154 0 003-1.032 3.87 3.87 0 001.073-2.926q0-3.768-4.006-3.767zM185.7 391.393h-1.121V390.3h-.027a2.347 2.347 0 01-2.153 1.258 2.3 2.3 0 01-1.639-.558 1.919 1.919 0 01-.591-1.47q0-1.961 2.311-2.283l2.1-.294q0-1.784-1.442-1.784a3.446 3.446 0 00-2.283.861v-1.148a4.337 4.337 0 012.379-.656q2.468 0 2.468 2.611zm-1.121-3.541l-1.688.232a2.759 2.759 0 00-1.176.386 1.116 1.116 0 00-.4.981 1.067 1.067 0 00.366.837 1.411 1.411 0 00.974.325 1.8 1.8 0 001.377-.585 2.086 2.086 0 00.543-1.479zM191.058 391.324a2.164 2.164 0 01-1.046.219q-1.839 0-1.839-2.051v-4.142h-1.2v-.957h1.2v-1.709l1.121-.362v2.071h1.764v.957h-1.764v3.944a1.635 1.635 0 00.239 1 .956.956 0 00.793.3 1.176 1.176 0 00.731-.232zM197.566 391.393h-1.121V390.3h-.027a2.347 2.347 0 01-2.153 1.258 2.3 2.3 0 01-1.637-.554 1.919 1.919 0 01-.591-1.47q0-1.961 2.311-2.283l2.1-.294q0-1.784-1.442-1.784a3.446 3.446 0 00-2.283.861v-1.148a4.337 4.337 0 012.379-.656q2.468 0 2.468 2.611zm-1.121-3.541l-1.688.232a2.759 2.759 0 00-1.176.386 1.116 1.116 0 00-.4.981 1.067 1.067 0 00.366.837 1.411 1.411 0 00.974.325 1.8 1.8 0 001.377-.585 2.086 2.086 0 00.543-1.479zM208.64 382.629h-3.828v3.391h3.541v1.032h-3.541v4.341h-1.148v-9.8h4.977zM214.84 391.393h-1.121V390.3h-.027a2.347 2.347 0 01-2.153 1.258A2.3 2.3 0 01209.9 391a1.919 1.919 0 01-.591-1.47q0-1.961 2.311-2.283l2.1-.294q0-1.784-1.442-1.784a3.446 3.446 0 00-2.283.861v-1.148a4.337 4.337 0 012.379-.656q2.468 0 2.468 2.611zm-1.121-3.541l-1.688.232a2.759 2.759 0 00-1.176.386 1.116 1.116 0 00-.4.981 1.067 1.067 0 00.366.837 1.411 1.411 0 00.974.325 1.8 1.8 0 001.377-.585 2.086 2.086 0 00.543-1.479zM221.724 391.071a3.636 3.636 0 01-1.914.485 3.172 3.172 0 01-2.417-.974 3.534 3.534 0 01-.919-2.526 3.879 3.879 0 01.991-2.778 3.465 3.465 0 012.646-1.05 3.686 3.686 0 011.627.342v1.148a2.853 2.853 0 00-1.668-.547 2.257 2.257 0 00-1.76.769 2.921 2.921 0 00-.687 2.021 2.778 2.778 0 00.646 1.941 2.228 2.228 0 001.733.711 2.805 2.805 0 001.723-.608zM226.667 391.324a2.164 2.164 0 01-1.046.219q-1.839 0-1.839-2.051v-4.142h-1.2v-.957h1.2v-1.709l1.121-.362v2.071h1.764v.957H224.9v3.944a1.635 1.635 0 00.239 1 .956.956 0 00.793.3 1.176 1.176 0 00.731-.232zM230.98 391.557a3.246 3.246 0 01-2.478-.981 3.631 3.631 0 01-.926-2.6 3.784 3.784 0 01.964-2.755 3.468 3.468 0 012.6-.991 3.14 3.14 0 012.444.964 3.822 3.822 0 01.878 2.673 3.759 3.759 0 01-.947 2.683 3.316 3.316 0 01-2.535 1.007zm.082-6.385a2.132 2.132 0 00-1.709.735 3.015 3.015 0 00-.629 2.026 2.855 2.855 0 00.636 1.962 2.161 2.161 0 001.7.718 2.051 2.051 0 001.671-.7 3.054 3.054 0 00.584-2 3.107 3.107 0 00-.584-2.023 2.041 2.041 0 00-1.669-.718zM239.908 385.527a1.371 1.371 0 00-.848-.226 1.431 1.431 0 00-1.2.677 3.129 3.129 0 00-.482 1.846v3.568h-1.121v-7h1.121v1.442h.027a2.45 2.45 0 01.731-1.152 1.669 1.669 0 011.1-.413 1.837 1.837 0 01.67.1zM247.256 384.393l-3.22 8.121q-.861 2.174-2.42 2.174a2.589 2.589 0 01-.731-.089v-1a2.078 2.078 0 00.663.123 1.374 1.374 0 001.271-1.012l.561-1.326-2.734-6.986h1.244l1.894 5.387q.034.1.144.533h.041q.034-.164.137-.52l1.989-5.4z" fill="#5b5b5b"/>
    <path d="M230.981 353.257v-11.22l-12.7 11.035H218v-11.035l-12.7 11.035v-23.089c0-1.947-4.358-3.895-10.107-3.895s-10.478 1.855-10.478 3.895v42.284h46.364zm-35.793-21.42c-4.173 0-7.511-1.02-7.511-2.133s3.338-2.133 7.511-2.133 7.511.927 7.511 2.133c-.093 1.113-3.431 2.133-7.511 2.133zm21.884 32.919h-5.1v-5.1h5.1zm-8.995 0h-5.1v-5.1h5.1zm12.982 0v-5.1h5.1v5.1z" fill="#59b4d9"/>
    <path fill="#3999c6" d="M184.709 329.704h10.293v42.562h-10.293z"/>
    <path d="M205.2 329.7c0 2.04-4.636 3.709-10.293 3.709s-10.2-1.669-10.2-3.709S189.346 326 195 326s10.2 1.576 10.2 3.709" fill="#fff"/>
    <path d="M203.162 329.426c0 1.391-3.616 2.411-8.16 2.411s-8.16-1.02-8.16-2.411 3.616-2.411 8.16-2.411 8.16 1.113 8.16 2.411" fill="#7fba00"/>
    <path d="M201.4 330.91c1.113-.371 1.669-.927 1.669-1.484 0-1.391-3.616-2.411-8.16-2.411s-8.16 1.113-8.16 2.411c.093.556.742 1.113 1.762 1.484a19.686 19.686 0 016.491-.927 19.479 19.479 0 016.4.927" fill="#b8d432"/>
</svg>
