<svg width="617" height="422" viewBox="0 0 617 422" fill="none" xmlns="http://www.w3.org/2000/svg">
  <path d="M616.564 282.471H293.664V421.471H616.564V282.471Z" fill="#F3F3F3"/>
  <path d="M535.064 193.871H544.164V190.971H535.064V193.871Z" fill="#7A7A7A"/>
  <path d="M535.064 197.071L537.864 200.071H541.264L544.064 197.071H535.064Z" fill="#7A7A7A"/>
  <path d="M544.764 173.271C544.764 172.471 544.164 171.771 543.264 171.771C542.464 171.771 541.764 172.471 541.764 173.271V174.771H543.264C544.064 174.771 544.764 174.071 544.764 173.271Z" fill="#68217A"/>
  <path d="M535.464 174.771H536.964V173.271C536.864 172.471 536.264 171.771 535.464 171.771C534.664 171.771 533.964 172.371 533.964 173.271C534.064 174.071 534.764 174.771 535.464 174.771Z" fill="#68217A"/>
  <path d="M535.464 171.771C536.264 171.771 536.864 172.471 536.964 173.271V174.771H535.464C534.664 174.771 533.964 174.071 533.964 173.271C534.064 172.371 534.764 171.771 535.464 171.771ZM541.864 173.271C541.864 172.471 542.564 171.771 543.364 171.771C544.264 171.771 544.864 172.471 544.864 173.271C544.864 174.071 544.164 174.771 543.364 174.771H541.864V173.271Z" fill="#68217A"/>
  <path d="M553.464 169.671V169.371C553.464 165.071 551.064 161.171 547.464 159.071L536.364 170.171C537.764 170.571 538.764 171.771 538.764 173.271V174.771H540.264V173.271C540.264 171.571 541.764 170.071 543.464 170.071C545.164 170.071 546.664 171.571 546.664 173.271C546.664 174.971 545.164 176.471 543.464 176.471H541.964V187.371H540.264V176.471H538.764V187.371H536.964V176.471H535.464C534.064 176.471 532.764 175.471 532.364 174.071L528.764 177.671C528.064 176.971 527.464 176.271 527.064 175.571C527.664 176.571 528.464 177.471 529.664 178.471C531.864 180.471 534.264 185.771 534.564 187.371L534.864 187.871H543.964L544.264 187.371C544.564 185.771 547.064 180.471 549.164 178.571C554.064 174.371 553.464 169.871 553.464 169.671Z" fill="#68217A"/>
  <path d="M535.464 171.771C536.264 171.771 536.864 172.471 536.964 173.271V174.771H535.464C534.664 174.771 533.964 174.071 533.964 173.271C534.064 172.371 534.764 171.771 535.464 171.771ZM541.864 173.271C541.864 172.471 542.564 171.771 543.364 171.771C544.264 171.771 544.864 172.471 544.864 173.271C544.864 174.071 544.164 174.771 543.364 174.771H541.864V173.271ZM535.464 176.471H536.964V187.871H538.664V176.471H540.164V187.771H541.864V176.471H543.364C545.064 176.471 546.564 174.971 546.564 173.271C546.564 171.571 545.064 170.071 543.364 170.071C541.664 170.071 540.164 171.571 540.164 173.271V174.771H538.664V173.271C538.664 171.871 537.664 170.571 536.264 170.171L532.364 174.071C532.764 175.471 534.064 176.471 535.464 176.471Z" fill="#CEBAD3"/>
  <path d="M532.464 174.071C532.364 173.771 532.364 173.571 532.364 173.271C532.364 171.571 533.764 170.071 535.564 170.071C535.864 170.071 536.164 170.071 536.364 170.171L547.464 159.071C547.464 159.071 547.364 159.071 547.364 158.971C547.164 158.871 546.964 158.671 546.764 158.571C546.464 158.371 546.164 158.271 545.864 158.171C545.864 158.171 545.764 158.171 545.764 158.071C544.264 157.471 542.664 157.071 540.964 157.071C540.764 156.771 536.864 157.171 536.864 157.171C530.564 157.971 525.664 163.171 525.664 169.271C525.664 169.271 525.664 169.371 525.664 169.471V169.571V169.671C525.664 169.771 525.664 169.771 525.664 169.871C525.664 169.971 525.664 169.971 525.664 170.071C525.664 170.171 525.664 170.171 525.664 170.271C525.664 170.371 525.664 170.371 525.664 170.471C525.664 170.571 525.664 170.671 525.664 170.671C525.664 170.771 525.664 170.871 525.664 170.871C525.664 170.971 525.664 171.071 525.664 171.171C525.664 171.271 525.664 171.371 525.664 171.471C525.664 171.571 525.664 171.671 525.764 171.771C525.764 171.871 525.764 171.971 525.864 172.071C525.864 172.171 525.964 172.271 525.964 172.471C525.964 172.571 525.964 172.671 526.064 172.671C526.064 172.771 526.164 172.971 526.164 173.071C526.164 173.171 526.264 173.271 526.264 173.271C526.364 173.471 526.364 173.571 526.464 173.771C526.464 173.871 526.564 173.871 526.564 173.971C526.664 174.171 526.764 174.271 526.864 174.471C526.864 174.571 526.964 174.571 526.964 174.671C527.064 174.871 527.164 175.071 527.264 175.271L527.364 175.371C527.764 176.071 528.364 176.771 529.064 177.471L532.464 174.071Z" fill="#875094"/>
  <path d="M532.264 173.271C532.264 173.571 532.364 173.871 532.364 174.071L536.264 170.171C535.964 170.071 535.764 170.071 535.464 170.071C533.664 170.071 532.264 171.571 532.264 173.271Z" fill="#D6C5D9"/>
  <path d="M2.46387 11.4713V34.1713C2.46387 37.2713 3.56387 38.4713 6.76387 38.4713H41.8639C44.9639 38.4713 46.1639 37.3713 46.1639 34.1713V11.4713H2.46387Z" fill="#59B3D8"/>
  <path d="M46.0639 12.2713V5.17134C46.0639 2.07134 44.9639 0.871338 41.7639 0.871338H6.66389C3.56389 0.871338 2.36389 1.97134 2.36389 5.17134V12.2713H46.0639V12.2713Z" fill="#9FA0A1"/>
  <path d="M40.6639 0.871338H6.66387C3.56387 0.871338 2.46387 1.97134 2.46387 5.17134V12.3713H30.0639L40.6639 0.871338Z" fill="#B2B3B4"/>
  <path d="M6.66389 38.3714H6.06389C3.36389 38.2714 2.36389 37.0714 2.36389 34.0714V12.2714H29.9639L6.66389 38.3714Z" fill="#7AC2E0"/>
  <path d="M13.3639 8.97139H43.2639V5.17139H13.3639V8.97139Z" fill="#FBFBFB"/>
  <path d="M8.16389 2.77136C10.5639 2.77136 12.4639 4.67136 12.4639 7.07136C12.4639 9.47136 10.5639 11.3714 8.16389 11.3714C5.76389 11.3714 3.86389 9.47136 3.86389 7.07136C3.86389 4.77136 5.76389 2.77136 8.16389 2.77136Z" fill="#59B3D8"/>
  <path d="M12.3639 6.57139H8.16389L9.56389 5.17139V4.67139H8.16389L5.86389 7.17139L8.06389 9.47139H9.46389V8.97139L8.16389 7.57139H12.4639V6.57139H12.3639Z" fill="#FBFBFB"/>
  <path d="M196.464 171.271H173.564C172.664 171.271 171.864 170.471 171.864 169.471C171.864 168.571 172.664 167.671 173.564 167.671H196.464C197.364 167.671 198.164 168.471 198.164 169.471C198.164 170.471 197.364 171.271 196.464 171.271Z" fill="#7A7A7A"/>
  <path d="M191.764 185.871H170.664C169.764 185.871 168.964 185.071 168.964 184.071C168.964 183.171 169.764 182.271 170.664 182.271H191.764C192.664 182.271 193.464 183.071 193.464 184.071C193.564 185.071 192.764 185.871 191.764 185.871Z" fill="#7A7A7A"/>
  <path d="M189.264 178.771H168.164C167.264 178.771 166.464 177.971 166.464 176.971C166.464 176.071 167.264 175.171 168.164 175.171H189.264C190.164 175.171 190.964 175.971 190.964 176.971C191.064 177.971 190.264 178.771 189.264 178.771Z" fill="#7A7A7A"/>
  <path d="M209.464 182.071C209.464 180.071 207.864 178.371 205.864 178.271H205.364C205.564 177.371 205.764 176.471 205.764 175.671C205.764 170.271 201.464 165.871 196.164 165.871C192.064 165.971 188.464 168.571 187.064 172.471C186.364 172.271 185.664 172.171 184.964 172.071C181.264 172.071 178.464 175.171 178.464 178.971C178.464 182.771 181.364 185.871 184.964 185.871H206.164C207.964 185.571 209.464 183.971 209.464 182.071Z" fill="#3998C5"/>
  <path d="M188.264 185.771C187.364 184.871 186.664 183.771 186.464 182.371C185.664 178.771 187.864 175.071 191.364 174.371C192.064 174.271 192.864 174.171 193.564 174.271C193.864 170.871 195.964 167.871 198.964 166.371C198.064 166.071 197.064 165.871 196.064 165.871C191.964 165.971 188.364 168.571 186.964 172.471C186.264 172.271 185.564 172.171 184.864 172.071C181.164 172.071 178.364 175.171 178.364 178.971C178.364 182.771 181.264 185.871 184.864 185.871L188.264 185.771Z" fill="#72B5D2"/>
  <path d="M369.964 199.371C380.364 199.371 388.764 190.871 388.764 180.371C388.764 169.871 380.364 161.371 369.964 161.371C359.564 161.371 351.164 169.871 351.164 180.371C351.264 190.871 359.664 199.371 369.964 199.371Z" fill="white"/>
  <path d="M357.664 175.371C358.664 174.971 359.764 174.871 360.764 175.171C360.964 174.871 361.264 174.671 361.364 174.471C363.064 172.671 364.964 171.071 366.564 169.971C364.564 167.871 362.764 165.771 361.464 163.571C360.364 164.171 359.264 164.771 358.264 165.471C357.564 166.071 356.864 166.671 356.264 167.371C356.064 168.871 356.064 171.771 357.664 175.371Z" fill="#59B3D8"/>
  <path d="M369.364 168.271C374.564 165.471 379.064 165.471 381.964 165.871C378.564 162.971 374.264 161.571 369.864 161.571C367.964 161.571 365.964 161.871 364.064 162.471C365.864 164.471 367.664 166.471 369.364 168.271Z" fill="#59B3D8"/>
  <path d="M355.064 184.171C353.464 182.071 353.464 179.271 355.064 177.271C353.764 174.171 353.864 171.571 354.364 169.771C350.064 176.171 349.864 184.671 354.464 191.271C354.564 189.371 354.864 187.171 355.564 184.771C355.364 184.571 355.264 184.371 355.064 184.171Z" fill="#59B3D8"/>
  <path d="M372.864 171.871C375.064 174.071 377.164 176.071 379.164 177.771C380.864 176.771 383.164 177.171 384.364 178.771C385.264 179.971 385.364 181.471 384.964 182.671C386.464 183.871 387.464 184.571 388.164 185.171C389.664 179.771 388.664 173.671 384.964 168.871C384.864 168.771 384.764 168.671 384.764 168.571C384.364 168.671 379.564 168.271 372.864 171.871Z" fill="#59B3D8"/>
  <path d="M383.664 184.571C381.964 185.971 379.364 185.571 377.964 183.871C377.064 182.571 376.964 180.971 377.464 179.671C375.064 177.871 372.564 175.671 370.164 173.571C370.064 173.471 370.064 173.471 369.964 173.371C370.064 173.471 370.064 173.471 370.164 173.571C368.564 174.571 366.964 175.971 365.164 177.571C364.964 177.771 364.664 178.071 364.564 178.171C365.464 179.971 365.364 182.271 364.264 183.871C364.664 184.171 364.864 184.471 365.264 184.671C366.964 186.071 368.764 187.171 370.364 188.071C372.064 187.071 374.164 187.371 375.364 188.871C375.764 189.371 375.964 189.871 375.964 190.371C380.664 191.771 384.064 191.271 385.264 190.971C386.164 189.671 386.864 188.271 387.364 186.871C386.664 186.371 385.464 185.571 383.564 184.271C383.864 184.371 383.764 184.471 383.664 184.571Z" fill="#59B3D8"/>
  <path d="M374.864 194.271C373.164 195.571 370.864 195.171 369.664 193.571C369.064 192.771 368.864 191.871 368.964 190.871C367.164 189.971 365.264 188.871 363.464 187.371C362.864 186.871 362.464 186.571 361.864 186.071C361.064 186.471 360.164 186.571 359.164 186.571C357.864 189.971 357.664 193.071 357.864 195.171C361.264 198.071 365.564 199.471 369.964 199.471C374.064 199.471 377.964 198.171 381.364 195.571C381.964 195.071 382.464 194.671 383.064 194.171C381.164 194.171 378.664 194.071 375.764 193.471C375.564 193.571 375.264 193.971 374.864 194.271Z" fill="#59B3D8"/>
  <path d="M559.364 319.671H519.564V359.471H559.364V319.671Z" fill="#0072C6"/>
  <path d="M550.564 330.971C550.564 329.871 548.164 328.971 545.264 328.971C542.364 328.971 539.964 329.871 539.964 330.971V342.071C539.964 343.171 542.364 343.971 545.264 343.971H545.364C548.264 343.971 550.564 343.071 550.564 342.071V330.971V330.971Z" fill="white"/>
  <path d="M549.564 330.971C549.564 331.671 547.564 332.171 545.164 332.171C542.764 332.171 540.764 331.571 540.764 330.971C540.764 330.371 542.764 329.771 545.164 329.771C547.564 329.671 549.564 330.271 549.564 330.971Z" fill="#0072C6"/>
  <path d="M539.064 330.971C539.064 329.871 536.664 328.971 533.764 328.971C530.864 328.971 528.464 329.871 528.464 330.971V342.071C528.464 343.171 530.864 343.971 533.764 343.971H533.864C536.764 343.971 539.064 343.071 539.064 342.071V330.971V330.971Z" fill="white"/>
  <path d="M538.064 330.971C538.064 331.671 536.064 332.171 533.664 332.171C531.264 332.171 529.264 331.571 529.264 330.971C529.264 330.371 531.164 329.771 533.664 329.771C536.164 329.771 538.064 330.271 538.064 330.971Z" fill="#0072C6"/>
  <path d="M545.664 337.771C545.664 335.971 541.864 335.071 539.464 335.071C537.064 335.071 533.264 335.971 533.264 337.771V349.071C533.264 350.971 536.464 351.871 539.464 351.871H540.464C543.164 351.671 545.664 350.771 545.664 349.071V337.771Z" fill="#0072C6"/>
  <path d="M543.664 337.871C543.664 338.571 541.764 339.071 539.464 339.071C537.164 339.071 535.264 338.571 535.264 337.871C535.264 337.171 537.164 336.671 539.464 336.671C541.764 336.771 543.664 337.271 543.664 337.871Z" fill="#0072C6"/>
  <path d="M544.764 338.071C544.764 336.971 542.364 336.071 539.464 336.071C536.564 336.071 534.164 336.971 534.164 338.071V349.171C534.164 350.271 536.564 351.071 539.464 351.071H539.564C542.464 351.071 544.764 350.171 544.764 349.171V338.071V338.071Z" fill="white"/>
  <path d="M543.864 338.071C543.864 338.771 541.864 339.271 539.464 339.271C537.064 339.271 535.064 338.671 535.064 338.071C535.064 337.471 537.064 336.871 539.464 336.871C541.864 336.771 543.864 337.371 543.864 338.071Z" fill="#0072C6"/>
  <path d="M354.064 323.071V353.571C354.064 356.771 361.164 359.371 369.964 359.371V323.171H354.064V323.071Z" fill="#0072C5"/>
  <path d="M369.764 359.271H370.064C378.964 359.271 385.964 356.771 385.964 353.471V322.971H369.764V359.271Z" fill="#3A93CE"/>
  <path d="M385.864 323.071C385.864 326.171 378.764 328.871 369.964 328.871C361.164 328.871 353.964 326.271 353.964 323.071C353.964 319.971 361.064 317.271 369.864 317.271C378.664 317.371 385.864 319.971 385.864 323.071Z" fill="white"/>
  <path d="M382.664 322.771C382.664 324.871 376.964 326.571 370.064 326.571C363.164 326.571 357.364 324.871 357.364 322.771C357.364 320.671 363.064 318.971 369.964 318.971C376.864 318.971 382.664 320.671 382.664 322.771Z" fill="#7FB900"/>
  <path d="M379.964 325.071C381.664 324.371 382.564 323.671 382.564 322.771C382.564 320.671 376.864 318.971 369.964 318.971C363.064 318.971 357.364 320.671 357.364 322.771C357.364 323.571 358.364 324.471 359.964 325.071C362.264 324.171 365.864 323.671 369.964 323.671C373.964 323.571 377.664 324.171 379.964 325.071Z" fill="#B7D332"/>
  <path d="M382.064 343.471V337.971H378.764V341.371C378.764 341.571 378.764 341.771 378.564 341.771H375.964C375.564 341.771 375.564 341.271 375.564 341.271V337.971H371.564L372.264 338.471V341.971C372.264 341.971 372.064 344.371 374.264 344.371H378.464C378.764 344.371 379.164 344.171 379.264 343.971C379.264 343.871 379.264 344.971 378.264 344.971H372.864V347.471H379.264C379.864 347.471 380.764 347.371 381.464 346.471C382.064 345.671 382.164 345.071 382.164 344.571C382.064 344.271 382.064 343.471 382.064 343.471Z" fill="white"/>
  <path d="M360.064 339.671V344.771H357.264V336.671C357.264 336.671 357.464 334.871 359.164 334.871C360.764 334.871 361.164 335.171 361.864 336.671C362.664 338.071 364.064 340.771 364.064 340.771C364.064 340.771 366.064 336.271 366.364 335.571C366.664 334.871 367.464 334.671 368.464 334.771C369.364 334.871 370.364 335.371 370.364 336.571V344.671H367.564V339.571C367.564 339.571 365.864 343.471 365.464 343.971C365.164 344.471 364.564 344.671 363.964 344.671C363.364 344.671 362.564 344.571 362.164 343.871C361.864 343.271 360.064 339.671 360.064 339.671Z" fill="white"/>
  <path d="M369.564 125.671V39.4713H61.0638V40.9713H196.364V125.671H191.864L197.164 134.771L202.364 125.671H197.864V40.9713H368.064V125.671H363.564L368.764 134.771L374.064 125.671H369.564Z" fill="#959595"/>
  <path d="M482.864 199.371L473.864 194.071V198.571H431.864V194.071L422.864 199.371L431.864 204.571V200.071H473.864V204.571L482.864 199.371Z" fill="#959595"/>
  <path d="M482.864 360.871L473.864 355.671V360.171H431.864V355.671L422.864 360.871L431.864 366.071V361.671H473.864V366.071L482.864 360.871Z" fill="#959595"/>
  <path d="M370.664 248.771H369.164V284.771H370.664V248.771Z" fill="#959595"/>
  <path d="M375.164 283.171L369.964 292.271L364.664 283.171H375.164Z" fill="#959595"/>
  <path d="M510.664 388.071H509.264L507.664 385.371C507.464 385.071 507.364 384.871 507.264 384.671C507.164 384.471 506.964 384.371 506.864 384.271C506.764 384.171 506.564 384.071 506.364 384.071C506.164 383.971 505.964 383.971 505.764 383.971H504.864V388.171H503.764V378.371H506.664C507.064 378.371 507.464 378.471 507.864 378.571C508.264 378.671 508.564 378.871 508.764 379.071C509.064 379.271 509.264 379.571 509.364 379.871C509.564 380.171 509.564 380.571 509.564 380.971C509.564 381.271 509.464 381.671 509.364 381.871C509.264 382.171 509.164 382.371 508.964 382.671C508.764 382.871 508.564 383.071 508.264 383.271C507.964 383.471 507.664 383.571 507.364 383.671C507.564 383.771 507.664 383.871 507.764 383.871C507.864 383.971 507.964 384.071 508.064 384.171C508.164 384.271 508.264 384.471 508.364 384.571C508.464 384.771 508.564 384.871 508.764 385.171L510.664 388.071ZM504.764 379.271V382.871H506.364C506.664 382.871 506.964 382.871 507.164 382.771C507.364 382.671 507.664 382.571 507.764 382.371C507.964 382.171 508.064 381.971 508.164 381.771C508.264 381.571 508.364 381.271 508.364 380.971C508.364 380.471 508.164 380.071 507.864 379.771C507.564 379.471 507.064 379.371 506.364 379.371H504.764V379.271Z" fill="#525252"/>
  <path d="M517.164 384.771H512.264C512.264 385.571 512.464 386.171 512.864 386.571C513.264 386.971 513.864 387.171 514.564 387.171C515.364 387.171 516.064 386.871 516.764 386.371V387.471C516.164 387.871 515.364 388.171 514.364 388.171C513.364 388.171 512.564 387.871 512.064 387.171C511.464 386.571 511.264 385.671 511.264 384.471C511.264 383.371 511.564 382.471 512.164 381.771C512.764 381.071 513.564 380.771 514.464 380.771C515.364 380.771 516.064 381.071 516.564 381.671C517.064 382.271 517.364 383.071 517.364 384.171V384.771H517.164ZM515.964 383.871C515.964 383.271 515.764 382.671 515.464 382.371C515.164 381.971 514.764 381.871 514.164 381.871C513.664 381.871 513.164 382.071 512.864 382.471C512.564 382.871 512.264 383.371 512.164 383.971H515.964V383.871Z" fill="#525252"/>
  <path d="M524.764 388.071H523.664V386.871C523.164 387.771 522.364 388.271 521.264 388.271C520.364 388.271 519.664 387.971 519.164 387.371C518.664 386.771 518.364 385.871 518.364 384.771C518.364 383.571 518.664 382.671 519.264 381.971C519.864 381.271 520.664 380.971 521.564 380.971C522.564 380.971 523.264 381.371 523.664 382.071V377.771H524.764V388.071ZM523.664 384.871V383.871C523.664 383.271 523.464 382.871 523.064 382.471C522.664 382.071 522.264 381.871 521.664 381.871C520.964 381.871 520.464 382.171 520.064 382.671C519.664 383.171 519.464 383.871 519.464 384.771C519.464 385.571 519.664 386.171 520.064 386.671C520.464 387.171 520.964 387.371 521.564 387.371C522.164 387.371 522.664 387.171 523.064 386.671C523.464 386.071 523.664 385.571 523.664 384.871Z" fill="#525252"/>
  <path d="M527.664 379.271C527.464 379.271 527.264 379.171 527.164 379.071C527.064 378.971 526.964 378.771 526.964 378.571C526.964 378.371 527.064 378.171 527.164 378.071C527.264 377.971 527.464 377.871 527.664 377.871C527.864 377.871 528.064 377.971 528.164 378.071C528.264 378.171 528.364 378.371 528.364 378.571C528.364 378.771 528.264 378.971 528.164 379.071C528.064 379.171 527.864 379.271 527.664 379.271ZM528.164 388.071H527.064V381.071H528.164V388.071Z" fill="#525252"/>
  <path d="M530.064 387.771V386.571C530.664 387.071 531.364 387.271 532.064 387.271C533.064 387.271 533.564 386.971 533.564 386.271C533.564 386.071 533.564 385.971 533.464 385.771C533.364 385.671 533.264 385.571 533.164 385.471C533.064 385.371 532.864 385.271 532.664 385.171C532.464 385.071 532.264 384.971 532.064 384.971C531.764 384.871 531.464 384.771 531.264 384.571C531.064 384.471 530.864 384.271 530.664 384.171C530.464 383.971 530.364 383.871 530.264 383.671C530.164 383.471 530.164 383.271 530.164 382.971C530.164 382.671 530.264 382.371 530.364 382.071C530.564 381.771 530.764 381.571 530.964 381.471C531.264 381.271 531.464 381.171 531.864 381.071C532.164 380.971 532.564 380.971 532.864 380.971C533.464 380.971 533.964 381.071 534.464 381.271V382.371C533.964 382.071 533.364 381.871 532.664 381.871C532.464 381.871 532.264 381.871 532.064 381.971C531.864 381.971 531.764 382.071 531.664 382.171C531.564 382.271 531.464 382.371 531.364 382.471C531.264 382.571 531.264 382.771 531.264 382.871C531.264 383.071 531.264 383.171 531.364 383.371C531.464 383.471 531.564 383.571 531.664 383.671C531.764 383.771 531.964 383.871 532.164 383.971C532.364 384.071 532.564 384.171 532.764 384.271C533.064 384.371 533.364 384.471 533.564 384.671C533.764 384.771 534.064 384.971 534.164 385.071C534.364 385.271 534.464 385.371 534.564 385.571C534.664 385.771 534.664 385.971 534.664 386.271C534.664 386.571 534.564 386.871 534.464 387.171C534.264 387.471 534.064 387.671 533.864 387.771C533.564 387.971 533.364 388.071 532.964 388.171C532.564 388.271 532.264 388.271 531.964 388.271C531.164 388.171 530.564 388.071 530.064 387.771Z" fill="#525252"/>
  <path d="M547.064 387.571C546.364 387.971 545.464 388.171 544.364 388.171C542.964 388.171 541.864 387.771 541.064 386.871C540.264 385.971 539.764 384.771 539.764 383.371C539.764 381.771 540.264 380.571 541.164 379.571C542.064 378.571 543.264 378.171 544.764 378.171C545.664 378.171 546.464 378.271 547.064 378.571V379.771C546.364 379.371 545.564 379.171 544.764 379.171C543.664 379.171 542.764 379.571 542.064 380.271C541.364 381.071 541.064 382.071 541.064 383.271C541.064 384.471 541.364 385.371 542.064 386.171C542.764 386.871 543.564 387.271 544.664 387.271C545.664 387.271 546.464 387.071 547.264 386.571V387.571H547.064Z" fill="#525252"/>
  <path d="M553.864 388.071H552.764V386.971C552.264 387.771 551.564 388.271 550.564 388.271C549.864 388.271 549.364 388.071 548.964 387.671C548.564 387.271 548.364 386.771 548.364 386.171C548.364 384.871 549.164 384.071 550.664 383.871L552.764 383.571C552.764 382.371 552.264 381.771 551.364 381.771C550.564 381.771 549.764 382.071 549.064 382.671V381.571C549.764 381.171 550.564 380.871 551.464 380.871C553.064 380.871 553.964 381.771 553.964 383.471V388.071H553.864ZM552.764 384.471L551.064 384.671C550.564 384.771 550.164 384.871 549.864 385.071C549.564 385.271 549.464 385.571 549.464 386.071C549.464 386.371 549.564 386.671 549.864 386.871C550.064 387.071 550.464 387.171 550.864 387.171C551.464 387.171 551.864 386.971 552.264 386.571C552.664 386.171 552.764 385.671 552.764 385.071V384.471V384.471Z" fill="#525252"/>
  <path d="M560.764 387.671C560.264 387.971 559.564 388.171 558.864 388.171C557.864 388.171 557.064 387.871 556.464 387.171C555.864 386.471 555.564 385.671 555.564 384.671C555.564 383.471 555.864 382.571 556.564 381.871C557.264 381.171 558.064 380.871 559.164 380.871C559.764 380.871 560.364 380.971 560.764 381.171V382.271C560.264 381.871 559.664 381.771 559.064 381.771C558.364 381.771 557.764 382.071 557.264 382.571C556.764 383.071 556.564 383.771 556.564 384.571C556.564 385.371 556.764 386.071 557.164 386.471C557.564 386.971 558.164 387.171 558.864 387.171C559.464 387.171 560.064 386.971 560.564 386.571V387.671H560.764Z" fill="#525252"/>
  <path d="M568.264 388.071H567.164V384.071C567.164 382.571 566.664 381.871 565.564 381.871C565.064 381.871 564.564 382.071 564.164 382.471C563.764 382.871 563.564 383.471 563.564 384.071V388.071H562.464V377.671H563.564V382.171C564.064 381.271 564.864 380.871 565.864 380.871C567.464 380.871 568.264 381.871 568.264 383.771V388.071V388.071Z" fill="#525252"/>
  <path d="M576.064 384.771H571.164C571.164 385.571 571.364 386.171 571.764 386.571C572.164 386.971 572.764 387.171 573.464 387.171C574.264 387.171 574.964 386.871 575.664 386.371V387.471C575.064 387.871 574.264 388.171 573.264 388.171C572.264 388.171 571.464 387.871 570.964 387.171C570.364 386.571 570.164 385.671 570.164 384.471C570.164 383.371 570.464 382.471 571.064 381.771C571.664 381.071 572.464 380.771 573.364 380.771C574.264 380.771 574.964 381.071 575.464 381.671C575.964 382.271 576.264 383.071 576.264 384.171V384.771H576.064ZM574.864 383.871C574.864 383.271 574.664 382.671 574.364 382.371C574.064 381.971 573.664 381.871 573.064 381.871C572.564 381.871 572.064 382.071 571.764 382.471C571.464 382.871 571.164 383.371 571.064 383.971H574.864V383.871Z" fill="#525252"/>
  <path d="M330.664 385.471H329.364L328.364 382.771H324.164L323.164 385.471H321.864L325.664 375.671H326.864L330.664 385.471ZM327.964 381.671L326.464 377.471C326.464 377.371 326.364 377.071 326.264 376.771C326.264 377.071 326.164 377.271 326.064 377.471L324.564 381.671H327.964Z" fill="#525252"/>
  <path d="M336.764 378.771L332.664 384.471H336.764V385.471H330.964V385.171L335.064 379.471H331.264V378.471H336.664V378.771H336.764Z" fill="#525252"/>
  <path d="M343.864 385.471H342.764V384.371C342.264 385.171 341.564 385.671 340.564 385.671C338.864 385.671 338.064 384.671 338.064 382.671V378.471H339.164V382.471C339.164 383.971 339.764 384.671 340.864 384.671C341.364 384.671 341.864 384.471 342.264 384.071C342.664 383.671 342.764 383.171 342.764 382.471V378.471H343.864V385.471Z" fill="#525252"/>
  <path d="M349.864 379.571C349.664 379.371 349.364 379.371 349.064 379.371C348.564 379.371 348.164 379.571 347.864 380.071C347.564 380.571 347.364 381.171 347.364 381.871V385.471H346.264V378.471H347.364V379.871C347.564 379.371 347.764 378.971 348.064 378.671C348.364 378.371 348.764 378.271 349.164 378.271C349.464 378.271 349.664 378.271 349.864 378.371V379.571Z" fill="#525252"/>
  <path d="M356.464 382.171H351.564C351.564 382.971 351.764 383.571 352.164 383.971C352.564 384.371 353.164 384.571 353.864 384.571C354.664 384.571 355.364 384.271 356.064 383.771V384.871C355.464 385.271 354.664 385.571 353.664 385.571C352.664 385.571 351.864 385.271 351.364 384.571C350.764 383.971 350.564 383.071 350.564 381.871C350.564 380.771 350.864 379.871 351.464 379.171C352.064 378.471 352.864 378.171 353.764 378.171C354.664 378.171 355.364 378.471 355.864 379.071C356.364 379.671 356.664 380.471 356.664 381.571V382.171H356.464ZM355.364 381.271C355.364 380.671 355.164 380.071 354.864 379.771C354.564 379.371 354.164 379.271 353.564 379.271C353.064 379.271 352.564 379.471 352.264 379.871C351.864 380.271 351.664 380.771 351.564 381.371H355.364V381.271Z" fill="#525252"/>
  <path d="M362.164 385.471V375.671H364.864C368.364 375.671 370.064 377.271 370.064 380.471C370.064 381.971 369.564 383.171 368.664 384.071C367.764 384.971 366.464 385.471 364.764 385.471H362.164ZM363.264 376.671V384.371H364.764C366.064 384.371 367.064 384.071 367.764 383.371C368.464 382.671 368.864 381.671 368.864 380.471C368.864 377.971 367.564 376.671 364.864 376.671H363.264Z" fill="#525252"/>
  <path d="M376.864 385.471H375.764V384.371C375.264 385.171 374.564 385.671 373.564 385.671C372.864 385.671 372.364 385.471 371.964 385.071C371.564 384.671 371.364 384.171 371.364 383.571C371.364 382.271 372.164 381.471 373.664 381.271L375.764 380.971C375.764 379.771 375.264 379.171 374.364 379.171C373.564 379.171 372.764 379.471 372.064 380.071V378.971C372.764 378.571 373.564 378.271 374.464 378.271C376.064 378.271 376.964 379.171 376.964 380.871V385.471H376.864ZM375.664 381.871L373.964 382.071C373.464 382.171 373.064 382.271 372.764 382.471C372.464 382.671 372.364 382.971 372.364 383.471C372.364 383.771 372.464 384.071 372.764 384.271C373.064 384.471 373.364 384.571 373.764 384.571C374.364 384.571 374.764 384.371 375.164 383.971C375.564 383.571 375.664 383.071 375.664 382.471V381.871Z" fill="#525252"/>
  <path d="M382.164 385.371C381.864 385.471 381.564 385.571 381.164 385.571C379.964 385.571 379.364 384.871 379.364 383.471V379.371H378.164V378.371H379.364V376.671L380.464 376.271V378.371H382.264V379.371H380.464V383.271C380.464 383.771 380.564 384.071 380.664 384.271C380.864 384.471 381.064 384.571 381.464 384.571C381.764 384.571 381.964 384.471 382.164 384.371V385.371Z" fill="#525252"/>
  <path d="M388.664 385.471H387.564V384.371C387.064 385.171 386.364 385.671 385.364 385.671C384.664 385.671 384.164 385.471 383.764 385.071C383.364 384.671 383.164 384.171 383.164 383.571C383.164 382.271 383.964 381.471 385.464 381.271L387.564 380.971C387.564 379.771 387.064 379.171 386.164 379.171C385.364 379.171 384.564 379.471 383.864 380.071V378.971C384.564 378.571 385.364 378.271 386.264 378.271C387.864 378.271 388.764 379.171 388.764 380.871V385.471H388.664ZM387.564 381.871L385.864 382.071C385.364 382.171 384.964 382.271 384.664 382.471C384.364 382.671 384.264 382.971 384.264 383.471C384.264 383.771 384.364 384.071 384.664 384.271C384.964 384.471 385.264 384.571 385.664 384.571C386.264 384.571 386.664 384.371 387.064 383.971C387.464 383.571 387.564 383.071 387.564 382.471V381.871Z" fill="#525252"/>
  <path d="M391.964 384.471V385.471H390.864V375.071H391.964V379.671C392.564 378.771 393.364 378.271 394.364 378.271C395.264 378.271 395.964 378.571 396.464 379.171C396.964 379.771 397.264 380.671 397.264 381.671C397.264 382.871 396.964 383.771 396.364 384.471C395.764 385.171 395.064 385.571 394.064 385.571C393.164 385.571 392.464 385.171 391.964 384.471ZM391.964 381.571V382.571C391.964 383.171 392.164 383.671 392.564 384.071C392.964 384.471 393.464 384.671 393.964 384.671C394.664 384.671 395.164 384.371 395.564 383.871C395.964 383.371 396.164 382.671 396.164 381.671C396.164 380.871 395.964 380.271 395.664 379.871C395.264 379.471 394.864 379.171 394.164 379.171C393.464 379.171 392.964 379.371 392.564 379.871C392.164 380.371 391.964 380.871 391.964 381.571Z" fill="#525252"/>
  <path d="M403.864 385.471H402.764V384.371C402.264 385.171 401.564 385.671 400.564 385.671C399.864 385.671 399.364 385.471 398.964 385.071C398.564 384.671 398.364 384.171 398.364 383.571C398.364 382.271 399.164 381.471 400.664 381.271L402.764 380.971C402.764 379.771 402.264 379.171 401.364 379.171C400.564 379.171 399.764 379.471 399.064 380.071V378.971C399.764 378.571 400.564 378.271 401.464 378.271C403.064 378.271 403.964 379.171 403.964 380.871V385.471H403.864ZM402.764 381.871L401.064 382.071C400.564 382.171 400.164 382.271 399.864 382.471C399.564 382.671 399.464 382.971 399.464 383.471C399.464 383.771 399.564 384.071 399.864 384.271C400.064 384.471 400.464 384.571 400.864 384.571C401.464 384.571 401.864 384.371 402.264 383.971C402.664 383.571 402.764 383.071 402.764 382.471V381.871Z" fill="#525252"/>
  <path d="M405.564 385.171V383.971C406.164 384.471 406.864 384.671 407.564 384.671C408.564 384.671 409.064 384.371 409.064 383.671C409.064 383.471 409.064 383.371 408.964 383.171C408.864 382.971 408.764 382.971 408.664 382.871C408.564 382.771 408.364 382.671 408.164 382.571C407.964 382.471 407.764 382.371 407.564 382.371C407.264 382.271 406.964 382.171 406.764 381.971C406.564 381.871 406.364 381.671 406.164 381.571C405.964 381.471 405.864 381.271 405.764 381.071C405.664 380.871 405.664 380.671 405.664 380.371C405.664 380.071 405.764 379.771 405.864 379.471C405.964 379.171 406.264 378.971 406.464 378.871C406.664 378.671 406.964 378.571 407.364 378.471C407.664 378.371 408.064 378.371 408.364 378.371C408.964 378.371 409.464 378.471 409.964 378.671V379.771C409.464 379.471 408.864 379.271 408.164 379.271C407.964 379.271 407.764 379.271 407.564 379.371C407.364 379.371 407.264 379.471 407.164 379.571C407.064 379.671 406.964 379.771 406.864 379.871C406.764 379.971 406.764 380.171 406.764 380.271C406.764 380.471 406.764 380.571 406.864 380.771C406.964 380.971 407.064 380.971 407.164 381.071C407.264 381.171 407.464 381.271 407.664 381.371C407.864 381.471 408.064 381.571 408.264 381.671C408.564 381.771 408.864 381.871 409.064 382.071C409.264 382.271 409.564 382.371 409.664 382.471C409.864 382.671 409.964 382.771 410.064 382.971C410.164 383.171 410.164 383.371 410.164 383.671C410.164 383.971 410.064 384.271 409.964 384.571C409.764 384.871 409.564 385.071 409.364 385.171C409.064 385.371 408.864 385.471 408.464 385.571C408.164 385.671 407.764 385.671 407.464 385.671C406.664 385.571 406.064 385.471 405.564 385.171Z" fill="#525252"/>
  <path d="M417.564 382.171H412.664C412.664 382.971 412.864 383.571 413.264 383.971C413.664 384.371 414.264 384.571 414.964 384.571C415.764 384.571 416.464 384.271 417.164 383.771V384.871C416.564 385.271 415.764 385.571 414.764 385.571C413.764 385.571 412.964 385.271 412.464 384.571C411.864 383.971 411.664 383.071 411.664 381.871C411.664 380.771 411.964 379.871 412.564 379.171C413.164 378.471 413.964 378.171 414.864 378.171C415.764 378.171 416.464 378.471 416.964 379.071C417.464 379.671 417.764 380.471 417.764 381.571V382.171H417.564ZM416.364 381.271C416.364 380.671 416.164 380.071 415.864 379.771C415.564 379.371 415.164 379.271 414.564 379.271C414.064 379.271 413.564 379.471 413.264 379.871C412.864 380.271 412.664 380.771 412.564 381.371H416.364V381.271Z" fill="#525252"/>
  <path d="M341.964 392.871C341.764 392.771 341.464 392.671 341.264 392.671C340.464 392.671 340.064 393.171 340.064 394.171V395.271H341.664V396.271H339.964V402.271H338.864V396.271H337.664V395.271H338.864V394.171C338.864 393.471 339.064 392.871 339.464 392.471C339.864 392.071 340.464 391.871 341.064 391.871C341.364 391.871 341.664 391.871 341.864 391.971V392.871H341.964Z" fill="#525252"/>
  <path d="M345.764 402.371C344.764 402.371 343.864 402.071 343.264 401.371C342.664 400.671 342.364 399.871 342.364 398.771C342.364 397.571 342.664 396.671 343.364 395.971C343.964 395.271 344.864 394.971 345.964 394.971C346.964 394.971 347.864 395.271 348.364 395.971C348.864 396.671 349.264 397.471 349.264 398.671C349.264 399.771 348.964 400.671 348.364 401.371C347.764 402.071 346.864 402.371 345.764 402.371ZM345.864 395.971C345.164 395.971 344.564 396.171 344.164 396.671C343.764 397.171 343.564 397.871 343.564 398.671C343.564 399.471 343.764 400.171 344.164 400.671C344.564 401.171 345.164 401.371 345.864 401.371C346.564 401.371 347.164 401.171 347.564 400.671C347.964 400.171 348.164 399.571 348.164 398.671C348.164 397.771 347.964 397.171 347.564 396.671C347.164 396.271 346.564 395.971 345.864 395.971Z" fill="#525252"/>
  <path d="M354.664 396.371C354.464 396.171 354.164 396.171 353.864 396.171C353.364 396.171 352.964 396.371 352.664 396.871C352.364 397.371 352.164 397.971 352.164 398.671V402.271H351.064V395.271H352.164V396.671C352.364 396.171 352.564 395.771 352.864 395.471C353.164 395.171 353.564 395.071 353.964 395.071C354.264 395.071 354.464 395.071 354.664 395.171V396.371Z" fill="#525252"/>
  <path d="M369.864 402.271H368.764V395.671C368.764 395.171 368.764 394.471 368.864 393.771C368.764 394.171 368.664 394.571 368.564 394.671L365.264 402.171H364.664L361.364 394.671C361.264 394.471 361.164 394.071 361.064 393.671C361.064 394.071 361.164 394.671 361.164 395.571V402.171H360.064V392.371H361.564L364.564 399.171C364.764 399.671 364.964 400.071 365.064 400.371C365.264 399.871 365.464 399.471 365.564 399.171L368.664 392.371H370.064V402.271H369.864Z" fill="#525252"/>
  <path d="M377.864 395.271L374.664 403.371C374.064 404.771 373.264 405.571 372.264 405.571C371.964 405.571 371.764 405.571 371.564 405.471V404.471C371.764 404.571 372.064 404.571 372.264 404.571C372.864 404.571 373.264 404.271 373.564 403.571L374.164 402.271L371.464 395.271H372.664L374.564 400.671C374.564 400.771 374.664 400.871 374.664 401.171C374.664 401.071 374.764 400.871 374.764 400.671L376.764 395.271H377.864Z" fill="#525252"/>
  <path d="M378.764 401.871V400.471C378.964 400.571 379.064 400.771 379.364 400.871C379.664 400.971 379.764 401.071 380.064 401.171C380.364 401.271 380.564 401.271 380.764 401.371C380.964 401.371 381.264 401.471 381.464 401.471C382.164 401.471 382.664 401.371 383.064 401.071C383.464 400.771 383.564 400.471 383.564 399.971C383.564 399.671 383.464 399.471 383.364 399.271C383.264 399.071 383.064 398.871 382.864 398.771C382.664 398.671 382.464 398.471 382.164 398.271C381.864 398.071 381.564 397.971 381.264 397.771C380.964 397.571 380.564 397.471 380.264 397.271C379.964 397.071 379.664 396.871 379.464 396.671C379.264 396.471 379.064 396.171 378.964 395.971C378.864 395.771 378.764 395.371 378.764 394.971C378.764 394.571 378.864 394.171 379.064 393.771C379.264 393.471 379.564 393.171 379.864 392.971C380.164 392.771 380.564 392.571 380.964 392.471C381.364 392.371 381.764 392.271 382.164 392.271C383.164 392.271 383.864 392.371 384.264 392.571V393.871C383.664 393.471 382.964 393.271 382.064 393.271C381.864 393.271 381.564 393.271 381.264 393.371C381.064 393.471 380.764 393.471 380.564 393.671C380.364 393.771 380.164 393.971 380.064 394.171C379.964 394.371 379.864 394.571 379.864 394.871C379.864 395.171 379.864 395.371 379.964 395.571C380.064 395.771 380.164 395.871 380.364 396.071C380.564 396.271 380.764 396.371 381.064 396.471C381.364 396.571 381.664 396.771 381.964 396.971C382.364 397.171 382.664 397.371 382.964 397.471C383.264 397.571 383.564 397.871 383.764 398.071C383.964 398.271 384.164 398.571 384.364 398.871C384.464 399.171 384.564 399.471 384.564 399.871C384.564 400.371 384.464 400.771 384.264 401.071C384.064 401.371 383.864 401.671 383.464 401.871C383.164 402.071 382.764 402.271 382.364 402.371C381.964 402.471 381.464 402.471 381.064 402.471C380.864 402.471 380.764 402.471 380.464 402.471C380.264 402.471 379.964 402.371 379.764 402.371C379.564 402.371 379.264 402.271 379.064 402.171C378.864 402.071 378.864 401.971 378.764 401.871Z" fill="#525252"/>
  <path d="M390.664 402.371C389.264 402.371 388.164 401.871 387.364 400.971C386.564 400.071 386.064 398.871 386.064 397.371C386.064 395.771 386.464 394.571 387.364 393.571C388.264 392.671 389.364 392.171 390.864 392.171C392.164 392.171 393.264 392.671 394.164 393.571C394.964 394.471 395.364 395.671 395.364 397.171C395.364 398.771 394.964 400.071 394.064 400.971C393.864 401.171 393.664 401.371 393.464 401.571L396.264 403.571H394.164L392.364 402.171C391.764 402.371 391.164 402.371 390.664 402.371ZM390.664 393.271C389.664 393.271 388.764 393.671 388.164 394.371C387.564 395.071 387.164 396.071 387.164 397.271C387.164 398.471 387.464 399.471 388.064 400.171C388.664 400.871 389.464 401.271 390.564 401.271C391.664 401.271 392.464 400.871 393.064 400.171C393.664 399.471 393.964 398.471 393.964 397.271C393.964 395.971 393.664 394.971 393.064 394.271C392.564 393.671 391.764 393.271 390.664 393.271Z" fill="#525252"/>
  <path d="M402.364 402.271H397.264V392.471H398.364V401.271H402.264V402.271H402.364Z" fill="#525252"/>
  <path d="M164.864 226.871H163.564L162.564 224.171H158.364L157.364 226.871H156.064L159.864 217.071H161.064L164.864 226.871ZM162.264 223.071L160.764 218.871C160.764 218.771 160.664 218.471 160.564 218.171C160.564 218.471 160.464 218.671 160.364 218.871L158.864 223.071H162.264Z" fill="#525252"/>
  <path d="M171.064 220.171L166.964 225.871H171.064V226.871H165.364V226.571L169.464 220.871H165.664V219.871H171.064V220.171Z" fill="#525252"/>
  <path d="M178.164 226.871H177.064V225.771C176.564 226.571 175.864 227.071 174.864 227.071C173.164 227.071 172.364 226.071 172.364 224.071V219.871H173.464V223.871C173.464 225.371 174.064 226.071 175.164 226.071C175.664 226.071 176.164 225.871 176.564 225.471C176.964 225.071 177.064 224.571 177.064 223.871V219.871H178.164V226.871Z" fill="#525252"/>
  <path d="M184.064 220.971C183.864 220.771 183.564 220.771 183.264 220.771C182.764 220.771 182.364 220.971 182.064 221.471C181.764 221.971 181.564 222.571 181.564 223.271V226.871H180.464V219.871H181.564V221.271C181.764 220.771 181.964 220.371 182.264 220.071C182.564 219.771 182.964 219.671 183.364 219.671C183.664 219.671 183.864 219.671 184.064 219.771V220.971V220.971Z" fill="#525252"/>
  <path d="M190.764 223.571H185.864C185.864 224.371 186.064 224.971 186.464 225.371C186.864 225.771 187.464 225.971 188.164 225.971C188.964 225.971 189.664 225.671 190.364 225.171V226.271C189.764 226.671 188.964 226.971 187.964 226.971C186.964 226.971 186.164 226.671 185.664 225.971C185.064 225.371 184.864 224.471 184.864 223.271C184.864 222.171 185.164 221.271 185.764 220.571C186.364 219.871 187.164 219.571 188.064 219.571C188.964 219.571 189.664 219.871 190.164 220.471C190.664 221.071 190.964 221.871 190.964 222.971V223.571H190.764ZM189.664 222.671C189.664 222.071 189.464 221.471 189.164 221.171C188.864 220.771 188.464 220.671 187.864 220.671C187.364 220.671 186.864 220.871 186.564 221.271C186.264 221.671 185.964 222.171 185.864 222.771H189.664V222.671Z" fill="#525252"/>
  <path d="M203.164 226.371C202.464 226.771 201.564 226.971 200.464 226.971C199.064 226.971 197.964 226.571 197.164 225.671C196.364 224.771 195.864 223.571 195.864 222.171C195.864 220.571 196.364 219.371 197.264 218.371C198.164 217.371 199.364 216.971 200.864 216.971C201.764 216.971 202.564 217.071 203.164 217.371V218.571C202.464 218.171 201.664 217.971 200.864 217.971C199.764 217.971 198.864 218.371 198.164 219.071C197.464 219.871 197.164 220.871 197.164 222.071C197.164 223.271 197.464 224.171 198.164 224.971C198.864 225.671 199.664 226.071 200.764 226.071C201.764 226.071 202.564 225.871 203.364 225.371V226.371H203.164Z" fill="#525252"/>
  <path d="M205.064 226.871V217.071H207.764C211.264 217.071 212.964 218.671 212.964 221.871C212.964 223.371 212.464 224.571 211.564 225.471C210.564 226.371 209.364 226.871 207.664 226.871H205.064ZM206.264 218.071V225.771H207.764C209.064 225.771 210.064 225.471 210.764 224.771C211.464 224.071 211.864 223.071 211.864 221.871C211.864 219.371 210.564 218.071 207.864 218.071H206.264V218.071Z" fill="#525252"/>
  <path d="M222.864 226.871H221.464L216.464 219.071C216.364 218.871 216.264 218.671 216.164 218.471C216.164 218.671 216.264 219.171 216.264 219.771V226.871H214.964V217.071H216.464L221.364 224.771C221.564 225.071 221.664 225.271 221.764 225.471C221.764 225.171 221.664 224.671 221.664 224.071V217.171H222.764V226.871H222.864Z" fill="#525252"/>
  <path d="M322.864 227.471C322.164 227.871 321.264 228.071 320.164 228.071C318.764 228.071 317.664 227.671 316.864 226.771C316.064 225.871 315.564 224.671 315.564 223.271C315.564 221.671 316.064 220.471 316.964 219.471C317.864 218.471 319.064 218.071 320.564 218.071C321.464 218.071 322.264 218.171 322.864 218.471V219.671C322.164 219.271 321.364 219.071 320.564 219.071C319.464 219.071 318.564 219.471 317.864 220.171C317.164 220.971 316.864 221.971 316.864 223.171C316.864 224.371 317.164 225.271 317.864 226.071C318.564 226.771 319.364 227.171 320.464 227.171C321.464 227.171 322.264 226.971 323.064 226.471V227.471H322.864Z" fill="#525252"/>
  <path d="M334.864 227.871H333.764V221.271C333.764 220.771 333.764 220.071 333.864 219.371C333.764 219.771 333.664 220.171 333.564 220.371L330.264 227.871H329.664L326.364 220.371C326.264 220.171 326.164 219.771 326.064 219.371C326.064 219.771 326.164 220.371 326.164 221.271V227.871H325.064V218.071H326.564L329.564 224.871C329.764 225.371 329.964 225.771 330.064 226.071C330.264 225.571 330.464 225.171 330.564 224.871L333.664 218.071H335.064V227.871H334.864Z" fill="#525252"/>
  <path d="M336.964 227.471V226.071C337.164 226.171 337.264 226.371 337.564 226.471C337.764 226.571 337.964 226.671 338.264 226.771C338.464 226.871 338.764 226.871 338.964 226.971C339.164 227.071 339.464 227.071 339.664 227.071C340.364 227.071 340.864 226.971 341.264 226.671C341.564 226.371 341.764 226.071 341.764 225.571C341.764 225.271 341.664 225.071 341.564 224.871C341.464 224.671 341.264 224.471 341.064 224.371C340.864 224.171 340.664 224.071 340.364 223.871C340.064 223.771 339.764 223.571 339.464 223.371C339.164 223.171 338.764 223.071 338.464 222.871C338.164 222.671 337.864 222.471 337.664 222.271C337.464 222.071 337.264 221.771 337.164 221.571C337.064 221.271 336.964 220.971 336.964 220.571C336.964 220.171 337.064 219.771 337.264 219.371C337.464 219.071 337.764 218.771 338.064 218.571C338.364 218.371 338.764 218.171 339.164 218.071C339.564 217.971 339.964 217.871 340.364 217.871C341.364 217.871 342.064 217.971 342.464 218.171V219.471C341.864 219.071 341.164 218.871 340.264 218.871C339.964 218.871 339.764 218.871 339.464 218.971C339.164 219.071 338.964 219.071 338.764 219.271C338.564 219.471 338.364 219.571 338.264 219.771C338.164 219.971 338.064 220.171 338.064 220.471C338.064 220.771 338.064 220.971 338.164 221.071C338.264 221.271 338.364 221.371 338.564 221.571C338.764 221.771 338.964 221.871 339.264 221.971C339.564 222.071 339.864 222.271 340.164 222.471C340.564 222.671 340.864 222.871 341.164 222.971C341.464 223.071 341.764 223.371 341.964 223.571C342.164 223.771 342.364 224.071 342.564 224.371C342.664 224.671 342.764 224.971 342.764 225.371C342.764 225.871 342.664 226.271 342.464 226.571C342.264 226.871 342.064 227.171 341.664 227.371C341.364 227.571 340.964 227.771 340.564 227.871C340.164 227.971 339.664 227.971 339.264 227.971C339.064 227.971 338.964 227.971 338.664 227.971C338.464 227.971 338.164 227.871 337.964 227.871C337.764 227.871 337.464 227.771 337.264 227.671C337.264 227.671 337.064 227.571 336.964 227.471Z" fill="#525252"/>
  <path d="M351.464 228.071C350.464 228.071 349.564 227.771 348.964 227.071C348.364 226.371 348.064 225.571 348.064 224.471C348.064 223.271 348.364 222.371 349.064 221.671C349.764 220.971 350.564 220.671 351.664 220.671C352.664 220.671 353.564 220.971 354.064 221.671C354.664 222.271 354.964 223.171 354.964 224.371C354.964 225.471 354.664 226.371 354.064 227.071C353.364 227.671 352.564 228.071 351.464 228.071ZM351.564 221.671C350.864 221.671 350.264 221.871 349.864 222.371C349.464 222.871 349.264 223.571 349.264 224.371C349.264 225.171 349.464 225.871 349.864 226.371C350.264 226.871 350.864 227.071 351.564 227.071C352.264 227.071 352.864 226.871 353.264 226.371C353.664 225.871 353.864 225.271 353.864 224.371C353.864 223.471 353.664 222.871 353.264 222.371C352.864 221.871 352.264 221.671 351.564 221.671Z" fill="#525252"/>
  <path d="M362.564 227.871H361.464V223.871C361.464 222.371 360.964 221.671 359.864 221.671C359.264 221.671 358.864 221.871 358.464 222.271C358.064 222.671 357.864 223.271 357.864 223.871V227.871H356.764V220.871H357.864V222.071C358.364 221.171 359.164 220.771 360.164 220.771C360.964 220.771 361.564 220.971 361.964 221.471C362.364 221.971 362.564 222.671 362.564 223.571V227.871Z" fill="#525252"/>
  <path d="M380.264 218.071L377.464 227.871H376.164L374.164 220.671C374.064 220.371 374.064 220.071 373.964 219.671C373.964 219.971 373.864 220.371 373.764 220.671L371.764 227.871H370.464L367.564 218.071H368.864L370.964 225.571C371.064 225.871 371.064 226.171 371.164 226.571C371.164 226.371 371.264 225.971 371.364 225.571L373.564 218.071H374.664L376.764 225.671C376.864 225.971 376.864 226.271 376.964 226.571C376.964 226.371 377.064 225.971 377.164 225.671L379.164 218.171H380.264V218.071Z" fill="#525252"/>
  <path d="M386.864 224.671H381.964C381.964 225.471 382.164 226.071 382.564 226.471C382.964 226.871 383.564 227.071 384.264 227.071C385.064 227.071 385.764 226.771 386.464 226.271V227.371C385.864 227.771 385.064 228.071 384.064 228.071C383.064 228.071 382.264 227.771 381.764 227.071C381.164 226.471 380.964 225.571 380.964 224.371C380.964 223.271 381.264 222.371 381.864 221.671C382.464 220.971 383.264 220.671 384.164 220.671C385.064 220.671 385.764 220.971 386.264 221.571C386.764 222.171 387.064 222.971 387.064 224.071V224.671H386.864ZM385.664 223.671C385.664 223.071 385.464 222.471 385.164 222.171C384.864 221.771 384.464 221.671 383.864 221.671C383.364 221.671 382.864 221.871 382.564 222.271C382.264 222.671 381.964 223.171 381.864 223.771H385.664V223.671Z" fill="#525252"/>
  <path d="M389.664 226.871V227.871H388.564V217.471H389.664V222.071C390.264 221.171 391.064 220.671 392.064 220.671C392.964 220.671 393.664 220.971 394.164 221.571C394.664 222.171 394.964 223.071 394.964 224.071C394.964 225.271 394.664 226.171 394.064 226.871C393.464 227.571 392.764 227.971 391.764 227.971C390.864 228.071 390.164 227.671 389.664 226.871ZM389.664 224.071V225.071C389.664 225.671 389.864 226.171 390.264 226.571C390.664 226.971 391.164 227.171 391.664 227.171C392.364 227.171 392.864 226.871 393.264 226.371C393.664 225.871 393.864 225.171 393.864 224.171C393.864 223.371 393.664 222.771 393.364 222.371C393.064 221.971 392.564 221.671 391.864 221.671C391.164 221.671 390.664 221.871 390.264 222.371C389.864 222.771 389.664 223.371 389.664 224.071Z" fill="#525252"/>
  <path d="M408.364 227.871H407.064L406.064 225.171H401.864L400.864 227.871H399.564L403.364 218.071H404.564L408.364 227.871ZM405.664 224.071L404.164 219.871C404.164 219.771 404.064 219.471 403.964 219.171C403.964 219.471 403.864 219.671 403.764 219.871L402.264 224.071H405.664Z" fill="#525252"/>
  <path d="M410.764 226.871V231.071H409.664V220.871H410.764V222.071C411.364 221.171 412.164 220.671 413.164 220.671C414.064 220.671 414.764 220.971 415.264 221.571C415.764 222.171 416.064 223.071 416.064 224.071C416.064 225.271 415.764 226.171 415.164 226.871C414.564 227.571 413.864 227.971 412.864 227.971C411.964 228.071 411.264 227.671 410.764 226.871ZM410.764 224.071V225.071C410.764 225.671 410.964 226.171 411.364 226.571C411.764 226.971 412.264 227.171 412.764 227.171C413.464 227.171 413.964 226.871 414.364 226.371C414.764 225.871 414.964 225.171 414.964 224.171C414.964 223.371 414.764 222.771 414.464 222.371C414.164 221.971 413.664 221.671 412.964 221.671C412.264 221.671 411.764 221.871 411.364 222.371C410.964 222.771 410.764 223.371 410.764 224.071Z" fill="#525252"/>
  <path d="M419.064 226.871V231.071H417.964V220.871H419.064V222.071C419.664 221.171 420.464 220.671 421.464 220.671C422.364 220.671 423.064 220.971 423.564 221.571C424.064 222.171 424.364 223.071 424.364 224.071C424.364 225.271 424.064 226.171 423.464 226.871C422.864 227.571 422.164 227.971 421.164 227.971C420.264 228.071 419.564 227.671 419.064 226.871ZM418.964 224.071V225.071C418.964 225.671 419.164 226.171 419.564 226.571C419.964 226.971 420.464 227.171 420.964 227.171C421.664 227.171 422.164 226.871 422.564 226.371C422.964 225.871 423.164 225.171 423.164 224.171C423.164 223.371 422.964 222.771 422.664 222.371C422.364 221.971 421.864 221.671 421.164 221.671C420.464 221.671 419.964 221.871 419.564 222.371C419.164 222.771 418.964 223.371 418.964 224.071Z" fill="#525252"/>
  <path d="M487.464 227.471H486.164L485.164 224.771H480.964L479.964 227.471H478.664L482.464 217.671H483.664L487.464 227.471ZM484.764 223.771L483.264 219.571C483.264 219.471 483.164 219.171 483.064 218.871C483.064 219.171 482.964 219.371 482.864 219.571L481.364 223.771H484.764Z" fill="#525252"/>
  <path d="M489.864 226.471V230.671H488.764V220.471H489.864V221.671C490.464 220.771 491.264 220.271 492.264 220.271C493.164 220.271 493.864 220.571 494.364 221.171C494.864 221.771 495.164 222.671 495.164 223.671C495.164 224.871 494.864 225.771 494.264 226.471C493.664 227.171 492.964 227.571 491.964 227.571C491.064 227.671 490.364 227.271 489.864 226.471ZM489.864 223.671V224.671C489.864 225.271 490.064 225.771 490.464 226.171C490.864 226.571 491.364 226.771 491.864 226.771C492.564 226.771 493.064 226.471 493.464 225.971C493.864 225.471 494.064 224.771 494.064 223.771C494.064 222.971 493.864 222.371 493.564 221.971C493.264 221.571 492.764 221.271 492.064 221.271C491.364 221.271 490.864 221.471 490.464 221.971C490.064 222.371 489.864 222.971 489.864 223.671Z" fill="#525252"/>
  <path d="M498.164 226.471V230.671H496.964V220.471H498.064V221.671C498.664 220.771 499.464 220.271 500.464 220.271C501.364 220.271 502.064 220.571 502.564 221.171C503.064 221.771 503.364 222.671 503.364 223.671C503.364 224.871 503.064 225.771 502.464 226.471C501.864 227.171 501.164 227.571 500.164 227.571C499.364 227.671 498.664 227.271 498.164 226.471ZM498.064 223.671V224.671C498.064 225.271 498.264 225.771 498.664 226.171C499.064 226.571 499.564 226.771 500.064 226.771C500.764 226.771 501.264 226.471 501.664 225.971C502.064 225.471 502.264 224.771 502.264 223.771C502.264 222.971 502.064 222.371 501.764 221.971C501.464 221.571 500.964 221.271 500.264 221.271C499.564 221.271 499.064 221.471 498.664 221.971C498.264 222.371 498.064 222.971 498.064 223.671Z" fill="#525252"/>
  <path d="M506.364 227.471H505.264V217.071H506.364V227.471Z" fill="#525252"/>
  <path d="M509.164 218.771C508.964 218.771 508.764 218.671 508.664 218.571C508.564 218.471 508.464 218.271 508.464 218.071C508.464 217.871 508.564 217.671 508.664 217.571C508.764 217.471 508.964 217.371 509.164 217.371C509.364 217.371 509.564 217.471 509.664 217.571C509.764 217.671 509.864 217.871 509.864 218.071C509.864 218.271 509.764 218.471 509.664 218.571C509.564 218.671 509.364 218.771 509.164 218.771ZM509.764 227.471H508.664V220.471H509.764V227.471Z" fill="#525252"/>
  <path d="M516.764 227.171C516.264 227.471 515.564 227.671 514.864 227.671C513.864 227.671 513.064 227.371 512.464 226.671C511.864 226.071 511.564 225.171 511.564 224.171C511.564 222.971 511.864 222.071 512.564 221.371C513.264 220.671 514.064 220.371 515.164 220.371C515.764 220.371 516.364 220.471 516.764 220.671V221.771C516.264 221.371 515.664 221.271 515.064 221.271C514.364 221.271 513.764 221.571 513.264 222.071C512.764 222.571 512.564 223.271 512.564 224.071C512.564 224.871 512.764 225.571 513.164 225.971C513.564 226.471 514.164 226.671 514.864 226.671C515.464 226.671 516.064 226.471 516.564 226.071V227.171H516.764Z" fill="#525252"/>
  <path d="M523.464 227.471H522.364V226.371C521.864 227.171 521.164 227.671 520.164 227.671C519.464 227.671 518.964 227.471 518.564 227.071C518.164 226.671 517.964 226.171 517.964 225.571C517.964 224.271 518.764 223.471 520.264 223.271L522.364 222.971C522.364 221.771 521.864 221.171 520.964 221.171C520.164 221.171 519.364 221.471 518.664 222.071V220.971C519.364 220.571 520.164 220.271 521.064 220.271C522.664 220.271 523.564 221.171 523.564 222.871V227.471H523.464ZM522.364 223.971L520.664 224.171C520.164 224.271 519.764 224.371 519.464 224.571C519.164 224.771 519.064 225.071 519.064 225.571C519.064 225.871 519.164 226.171 519.464 226.371C519.664 226.571 520.064 226.671 520.464 226.671C521.064 226.671 521.464 226.471 521.864 226.071C522.264 225.671 522.364 225.171 522.364 224.571V223.971V223.971Z" fill="#525252"/>
  <path d="M528.864 227.471C528.564 227.571 528.264 227.671 527.864 227.671C526.664 227.671 526.064 226.971 526.064 225.571V221.471H524.864V220.471H526.064V218.771L527.164 218.371V220.471H528.964V221.471H527.164V225.371C527.164 225.871 527.264 226.171 527.364 226.371C527.464 226.571 527.764 226.671 528.164 226.671C528.464 226.671 528.664 226.571 528.864 226.471V227.471V227.471Z" fill="#525252"/>
  <path d="M530.864 218.771C530.664 218.771 530.464 218.671 530.364 218.571C530.264 218.471 530.164 218.271 530.164 218.071C530.164 217.871 530.264 217.671 530.364 217.571C530.464 217.471 530.664 217.371 530.864 217.371C531.064 217.371 531.264 217.471 531.364 217.571C531.464 217.671 531.564 217.871 531.564 218.071C531.564 218.271 531.464 218.471 531.364 218.571C531.264 218.671 531.164 218.771 530.864 218.771ZM531.464 227.471H530.364V220.471H531.464V227.471Z" fill="#525252"/>
  <path d="M536.664 227.671C535.664 227.671 534.764 227.371 534.164 226.671C533.564 225.971 533.264 225.171 533.264 224.071C533.264 222.871 533.564 221.971 534.264 221.271C534.964 220.571 535.764 220.271 536.864 220.271C537.864 220.271 538.764 220.571 539.264 221.271C539.864 221.871 540.164 222.771 540.164 223.971C540.164 225.071 539.864 225.971 539.264 226.671C538.564 227.371 537.764 227.671 536.664 227.671ZM536.764 221.271C536.064 221.271 535.464 221.471 535.064 221.971C534.664 222.471 534.464 223.171 534.464 223.971C534.464 224.771 534.664 225.471 535.064 225.971C535.464 226.471 536.064 226.671 536.764 226.671C537.464 226.671 538.064 226.471 538.464 225.971C538.864 225.471 539.064 224.871 539.064 223.971C539.064 223.071 538.864 222.471 538.464 221.971C538.064 221.571 537.464 221.271 536.764 221.271Z" fill="#525252"/>
  <path d="M547.764 227.471H546.664V223.471C546.664 221.971 546.164 221.271 545.064 221.271C544.464 221.271 544.064 221.471 543.664 221.871C543.264 222.271 543.064 222.871 543.064 223.471V227.471H541.964V220.471H543.064V221.671C543.564 220.771 544.364 220.371 545.364 220.371C546.164 220.371 546.764 220.571 547.164 221.071C547.564 221.571 547.764 222.271 547.764 223.171V227.471Z" fill="#525252"/>
  <path d="M554.964 227.471H553.864V217.671H554.964V227.471Z" fill="#525252"/>
  <path d="M563.264 227.471H562.164V223.471C562.164 221.971 561.664 221.271 560.564 221.271C559.964 221.271 559.564 221.471 559.164 221.871C558.764 222.271 558.564 222.871 558.564 223.471V227.471H557.464V220.471H558.564V221.671C559.064 220.771 559.864 220.371 560.864 220.371C561.664 220.371 562.264 220.571 562.664 221.071C563.064 221.571 563.264 222.271 563.264 223.171V227.471V227.471Z" fill="#525252"/>
  <path d="M564.864 227.271V226.071C565.464 226.571 566.164 226.771 566.864 226.771C567.864 226.771 568.364 226.471 568.364 225.771C568.364 225.571 568.364 225.471 568.264 225.271C568.164 225.171 568.064 225.071 567.964 224.971C567.864 224.871 567.664 224.771 567.464 224.671C567.264 224.571 567.064 224.471 566.864 224.471C566.564 224.371 566.264 224.271 566.064 224.071C565.864 223.971 565.664 223.771 565.464 223.671C565.264 223.471 565.164 223.371 565.064 223.171C564.964 222.971 564.964 222.771 564.964 222.471C564.964 222.171 565.064 221.871 565.164 221.571C565.364 221.271 565.564 221.071 565.764 220.971C566.064 220.771 566.264 220.671 566.664 220.571C566.964 220.471 567.364 220.471 567.664 220.471C568.264 220.471 568.764 220.571 569.264 220.771V221.871C568.764 221.571 568.164 221.371 567.464 221.371C567.264 221.371 567.064 221.371 566.864 221.471C566.664 221.471 566.564 221.571 566.464 221.671C566.364 221.771 566.264 221.871 566.164 221.971C566.064 222.071 566.064 222.271 566.064 222.371C566.064 222.571 566.064 222.671 566.164 222.871C566.264 222.971 566.364 223.071 566.464 223.171C566.564 223.271 566.764 223.371 566.964 223.471C567.164 223.571 567.364 223.671 567.564 223.771C567.864 223.871 568.164 223.971 568.364 224.171C568.564 224.271 568.864 224.471 568.964 224.571C569.164 224.771 569.264 224.871 569.364 225.071C569.464 225.271 569.464 225.471 569.464 225.771C569.464 226.071 569.364 226.371 569.264 226.671C569.064 226.971 568.864 227.171 568.664 227.271C568.464 227.371 568.164 227.571 567.764 227.671C567.364 227.771 567.064 227.771 566.764 227.771C566.064 227.671 565.464 227.571 564.864 227.271Z" fill="#525252"/>
  <path d="M571.864 218.771C571.664 218.771 571.464 218.671 571.364 218.571C571.264 218.471 571.164 218.271 571.164 218.071C571.164 217.871 571.264 217.671 571.364 217.571C571.464 217.471 571.664 217.371 571.864 217.371C572.064 217.371 572.264 217.471 572.364 217.571C572.464 217.671 572.564 217.871 572.564 218.071C572.564 218.271 572.464 218.471 572.364 218.571C572.264 218.671 572.064 218.771 571.864 218.771ZM572.364 227.471H571.264V220.471H572.364V227.471Z" fill="#525252"/>
  <path d="M580.664 226.971C580.664 229.571 579.464 230.871 576.964 230.871C576.064 230.871 575.364 230.671 574.664 230.371V229.271C575.464 229.671 576.164 229.971 576.964 229.971C578.664 229.971 579.564 229.071 579.564 227.271V226.471C579.064 227.371 578.264 227.771 577.164 227.771C576.264 227.771 575.564 227.471 575.064 226.871C574.564 226.271 574.264 225.371 574.264 224.371C574.264 223.171 574.564 222.271 575.164 221.571C575.764 220.871 576.564 220.471 577.464 220.471C578.364 220.471 579.064 220.871 579.564 221.571V220.571H580.664V226.971ZM579.564 224.371V223.371C579.564 222.771 579.364 222.371 578.964 221.971C578.564 221.571 578.164 221.371 577.564 221.371C576.864 221.371 576.364 221.671 575.964 222.171C575.564 222.671 575.364 223.371 575.364 224.271C575.364 225.071 575.564 225.671 575.964 226.171C576.364 226.671 576.864 226.871 577.464 226.871C578.064 226.871 578.564 226.671 578.964 226.171C579.364 225.571 579.564 225.071 579.564 224.371Z" fill="#525252"/>
  <path d="M588.764 227.471H587.664V223.471C587.664 221.971 587.164 221.271 586.064 221.271C585.564 221.271 585.064 221.471 584.664 221.871C584.264 222.271 584.064 222.871 584.064 223.471V227.471H582.964V217.071H584.064V221.571C584.564 220.671 585.364 220.271 586.364 220.271C587.964 220.271 588.764 221.271 588.764 223.171V227.471V227.471Z" fill="#525252"/>
  <path d="M594.064 227.471C593.764 227.571 593.464 227.671 593.064 227.671C591.864 227.671 591.264 226.971 591.264 225.571V221.471H589.964V220.471H591.164V218.771L592.264 218.371V220.471H594.064V221.471H592.264V225.371C592.264 225.871 592.364 226.171 592.464 226.371C592.564 226.571 592.864 226.671 593.264 226.671C593.564 226.671 593.764 226.571 593.964 226.471V227.471H594.064Z" fill="#525252"/>
  <path d="M595.164 227.271V226.071C595.764 226.571 596.464 226.771 597.164 226.771C598.164 226.771 598.664 226.471 598.664 225.771C598.664 225.571 598.664 225.471 598.564 225.271C598.464 225.171 598.364 225.071 598.264 224.971C598.164 224.871 597.964 224.771 597.764 224.671C597.564 224.571 597.364 224.471 597.164 224.471C596.864 224.371 596.564 224.271 596.364 224.071C596.164 223.971 595.964 223.771 595.764 223.671C595.564 223.471 595.464 223.371 595.364 223.171C595.264 222.971 595.264 222.771 595.264 222.471C595.264 222.171 595.364 221.871 595.464 221.571C595.664 221.271 595.864 221.071 596.064 220.971C596.364 220.771 596.564 220.671 596.964 220.571C597.264 220.471 597.664 220.471 597.964 220.471C598.564 220.471 599.064 220.571 599.564 220.771V221.871C599.064 221.571 598.464 221.371 597.764 221.371C597.564 221.371 597.364 221.371 597.164 221.471C596.964 221.471 596.864 221.571 596.764 221.671C596.664 221.771 596.564 221.871 596.464 221.971C596.364 222.071 596.364 222.271 596.364 222.371C596.364 222.571 596.364 222.671 596.464 222.871C596.564 222.971 596.664 223.071 596.764 223.171C596.864 223.271 597.064 223.371 597.264 223.471C597.464 223.571 597.664 223.671 597.864 223.771C598.164 223.871 598.464 223.971 598.664 224.171C598.864 224.271 599.164 224.471 599.264 224.571C599.464 224.771 599.564 224.871 599.664 225.071C599.764 225.271 599.764 225.471 599.764 225.771C599.764 226.071 599.664 226.371 599.564 226.671C599.364 226.971 599.164 227.171 598.964 227.271C598.764 227.371 598.464 227.571 598.064 227.671C597.664 227.771 597.364 227.771 597.064 227.771C596.264 227.671 595.664 227.571 595.164 227.271Z" fill="#525252"/>
  <path d="M0.963867 65.8713V56.0713H3.76387C4.56387 56.0713 5.26387 56.2713 5.76387 56.6713C6.26387 57.0713 6.46387 57.6713 6.46387 58.2713C6.46387 58.8713 6.26387 59.2713 5.96387 59.6713C5.66387 60.0713 5.26387 60.3713 4.76387 60.5713C5.46387 60.6713 5.96387 60.8713 6.36387 61.2713C6.76387 61.8713 6.96387 62.3713 6.96387 63.0713C6.96387 63.8713 6.66387 64.5713 6.06387 65.0713C5.46387 65.6713 4.76387 65.8713 3.86387 65.8713H0.963867ZM2.06387 57.1713V60.3713H3.26387C3.86387 60.3713 4.36387 60.1713 4.76387 59.8713C5.16387 59.5713 5.26387 59.1713 5.26387 58.5713C5.26387 57.5713 4.66387 57.1713 3.36387 57.1713H2.06387V57.1713ZM2.06387 61.3713V64.8713H3.66387C4.36387 64.8713 4.86387 64.6713 5.26387 64.3713C5.66387 64.0713 5.86387 63.5713 5.86387 63.0713C5.86387 61.8713 5.06387 61.3713 3.46387 61.3713H2.06387Z" fill="#525252"/>
  <path d="M12.4639 60.0713C12.2639 59.8713 11.9639 59.8713 11.6639 59.8713C11.1639 59.8713 10.7639 60.0713 10.4639 60.5713C10.1639 60.9713 9.96389 61.5713 9.96389 62.3713V65.8713H8.86389V58.8713H9.96389V60.2713C10.1639 59.7713 10.3639 59.3713 10.6639 59.0713C10.9639 58.7713 11.3639 58.6713 11.7639 58.6713C12.0639 58.6713 12.2639 58.6713 12.4639 58.7713V60.0713V60.0713Z" fill="#525252"/>
  <path d="M16.4638 66.0713C15.4638 66.0713 14.5638 65.7713 13.9638 65.0713C13.3638 64.3713 13.0638 63.5713 13.0638 62.4713C13.0638 61.2713 13.3638 60.3713 14.0638 59.6713C14.7638 58.9713 15.5638 58.6713 16.6638 58.6713C17.6638 58.6713 18.5638 58.9713 19.0638 59.6713C19.6638 60.2713 19.9638 61.1713 19.9638 62.3713C19.9638 63.4713 19.6638 64.3713 19.0638 65.0713C18.3638 65.7713 17.4638 66.0713 16.4638 66.0713ZM16.5638 59.6713C15.8638 59.6713 15.2638 59.8713 14.8638 60.3713C14.4638 60.8713 14.2638 61.5713 14.2638 62.3713C14.2638 63.1713 14.4638 63.8713 14.8638 64.3713C15.2638 64.8713 15.8638 65.0713 16.5638 65.0713C17.2638 65.0713 17.8638 64.8713 18.2638 64.3713C18.6638 63.8713 18.8638 63.2713 18.8638 62.3713C18.8638 61.4713 18.6638 60.8713 18.2638 60.3713C17.7638 59.8713 17.2638 59.6713 16.5638 59.6713Z" fill="#525252"/>
  <path d="M30.5639 58.8713L28.4639 65.8713H27.2639L25.8639 60.8713C25.7639 60.6713 25.7639 60.4713 25.7639 60.2713C25.7639 60.4713 25.6639 60.6713 25.6639 60.8713L23.9639 65.8713H22.8639L20.7639 58.8713H21.9639L23.3639 64.1713C23.3639 64.3713 23.4639 64.5713 23.4639 64.7713H23.5639C23.5639 64.5713 23.6639 64.3713 23.6639 64.1713L25.2639 58.9713H26.2639L27.6639 64.2713C27.6639 64.4713 27.7639 64.6713 27.7639 64.8713H27.8639C27.8639 64.6713 27.8639 64.4713 27.9639 64.2713L29.3639 58.9713H30.5639V58.8713Z" fill="#525252"/>
  <path d="M31.4639 65.6713V64.4713C32.0639 64.9713 32.7639 65.1713 33.4639 65.1713C34.4639 65.1713 34.9639 64.8713 34.9639 64.1713C34.9639 63.9713 34.9639 63.8713 34.8639 63.6713C34.7639 63.5713 34.6639 63.4713 34.5639 63.3713C34.4639 63.2713 34.2639 63.1713 34.0639 63.0713C33.8639 62.9713 33.6639 62.8713 33.4639 62.8713C33.1639 62.7713 32.8639 62.6713 32.6639 62.4713C32.4639 62.3713 32.2639 62.1713 32.0639 62.0713C31.8639 61.8713 31.7639 61.7713 31.6639 61.5713C31.5639 61.3713 31.5639 61.1713 31.5639 60.8713C31.5639 60.5713 31.6639 60.2713 31.7639 59.9713C31.9639 59.6713 32.1639 59.4713 32.3639 59.3713C32.6639 59.1713 32.8639 59.0713 33.2639 58.9713C33.5639 58.8713 33.9639 58.8713 34.2639 58.8713C34.8639 58.8713 35.3639 58.9713 35.8639 59.1713V60.2713C35.3639 59.9713 34.7639 59.7713 34.0639 59.7713C33.8639 59.7713 33.6639 59.7713 33.4639 59.8713C33.2639 59.8713 33.1639 59.9713 33.0639 60.0713C32.9639 60.1713 32.8639 60.2713 32.7639 60.3713C32.6639 60.4713 32.6639 60.6713 32.6639 60.7713C32.6639 60.9713 32.6639 61.0713 32.7639 61.2713C32.8639 61.3713 32.9639 61.4713 33.0639 61.5713C33.1639 61.6713 33.3639 61.7713 33.5639 61.8713C33.7639 61.9713 33.9639 62.0713 34.1639 62.1713C34.4639 62.2713 34.7639 62.3713 34.9639 62.5713C35.1639 62.6713 35.4639 62.8713 35.5639 62.9713C35.7639 63.1713 35.8639 63.2713 35.9639 63.4713C36.0639 63.6713 36.0639 63.8713 36.0639 64.1713C36.0639 64.4713 35.9639 64.7713 35.8639 65.0713C35.6639 65.3713 35.4639 65.5713 35.2639 65.6713C35.0639 65.7713 34.7639 65.9713 34.3639 66.0713C33.9639 66.1713 33.6639 66.1713 33.3639 66.1713C32.5639 66.0713 31.9639 65.9713 31.4639 65.6713Z" fill="#525252"/>
  <path d="M43.3639 62.6713H38.4639C38.4639 63.4713 38.6639 64.0713 39.0639 64.4713C39.4639 64.8713 40.0639 65.0713 40.7639 65.0713C41.5639 65.0713 42.2639 64.7713 42.9639 64.2713V65.3713C42.3639 65.7713 41.5639 66.0713 40.5639 66.0713C39.5639 66.0713 38.7639 65.7713 38.2639 65.0713C37.6639 64.4713 37.4639 63.5713 37.4639 62.3713C37.4639 61.2713 37.7639 60.3713 38.3639 59.6713C38.9639 58.9713 39.7639 58.6713 40.6639 58.6713C41.5639 58.6713 42.2639 58.9713 42.7639 59.5713C43.2639 60.1713 43.5639 60.9713 43.5639 62.0713V62.6713H43.3639ZM42.2639 61.7713C42.2639 61.1713 42.0639 60.5713 41.7639 60.2713C41.4639 59.8713 41.0639 59.7713 40.4639 59.7713C39.9639 59.7713 39.4639 59.9713 39.1639 60.3713C38.8639 60.7713 38.5639 61.2713 38.4639 61.8713H42.2639V61.7713Z" fill="#525252"/>
  <path d="M48.7639 60.0713C48.5639 59.8713 48.2639 59.8713 47.9639 59.8713C47.4639 59.8713 47.0639 60.0713 46.7639 60.5713C46.4639 61.0713 46.2639 61.6713 46.2639 62.3713V65.8713H45.1639V58.8713H46.2639V60.2713C46.4639 59.7713 46.6639 59.3713 46.9639 59.0713C47.2639 58.7713 47.6639 58.6713 48.0639 58.6713C48.3639 58.6713 48.5639 58.6713 48.7639 58.7713V60.0713V60.0713Z" fill="#525252"/>
</svg>
