<svg class="architecture-diagram" aria-labelledby="digital-marketing-sitecore" height="432" viewbox="0 0 957 432" width="957" xmlns="http://www.w3.org/2000/svg">
    <g fill="none" fill-rule="evenodd" stroke="none" stroke-width="1">
        <path fill="#F3F3F3" d="M292.143 161.332h664.425V0H292.143z"/>
        <path d="M897.423 51.048c0-.337.084-.758.084-1.093 0-5.974-4.88-10.77-10.938-10.77a10.616 10.616 0 00-8.834 4.375c-1.262-.842-2.777-1.263-4.375-1.263-4.544 0-8.246 3.703-8.246 8.163v.672c-3.029 1.6-4.712 4.208-4.712 7.404 0 5.048 4.124 9.002 9.423 9.002h23.222c5.301 0 9.424-3.953 9.424-9.002 0-3.366-1.852-6.058-5.048-7.488" fill="#59B4D9"/>
        <path d="M866.293 62.658c0-3.45 1.766-6.142 5.048-7.824v-.673c0-4.796 3.954-8.667 8.75-8.667 1.683 0 3.281.42 4.627 1.263 2.104-2.946 5.637-4.796 9.423-4.796-2.019-1.767-4.626-2.861-7.572-2.861-3.534 0-6.814 1.683-8.834 4.459-1.262-.841-2.777-1.261-4.375-1.261-4.544 0-8.245 3.7-8.245 8.16v.674c-3.03 1.598-4.712 4.207-4.712 7.404 0 4.29 2.944 7.824 7.067 8.75-.757-1.347-1.178-2.945-1.178-4.628" fill="#FFF"/>
        <path d="M889.261 65.184c-.84 3.281-3.702 5.554-7.067 5.554a6.417 6.417 0 01-1.767-.253c-.842-.252-1.683-.589-2.355-1.094-.758-.505-1.347-1.178-1.852-1.85-1.094-1.683-1.599-3.703-1.094-5.806.842-3.28 3.702-5.553 7.068-5.553.588 0 1.177.084 1.766.252 1.852.505 3.45 1.6 4.46 3.281 1.01 1.6 1.346 3.618.841 5.47" fill="#FFF"/>
        <path d="M889.261 65.184c-.84 3.281-3.702 5.554-7.067 5.554a6.417 6.417 0 01-1.767-.253c-.842-.252-1.683-.589-2.355-1.094-.758-.505-1.347-1.178-1.852-1.85-1.094-1.683-1.599-3.703-1.094-5.806.842-3.28 3.702-5.553 7.068-5.553.588 0 1.177.084 1.766.252 1.852.505 3.45 1.6 4.46 3.281 1.01 1.6 1.346 3.618.841 5.47" fill="#59B4D9"/>
        <path d="M886.15 57.36c-.673-.421-1.43-.758-2.188-.926a6.403 6.403 0 00-1.766-.252c-3.365 0-6.226 2.272-7.067 5.553-.505 2.104-.084 4.207 1.093 5.806.168.252.42.589.673.84a18.82 18.82 0 019.255-11.021" fill="#59B4D9"/>
        <path d="M889.264 65.182c-.842 3.281-3.702 5.553-7.067 5.553a6.428 6.428 0 01-1.768-.252c-.84-.253-1.683-.589-2.355-1.094-.757-.505-1.346-1.178-1.85-1.852-1.095-1.682-1.6-3.7-1.095-5.804.841-3.28 3.701-5.554 7.068-5.554.588 0 1.177.085 1.766.253 1.851.505 3.45 1.6 4.46 3.281 1.01 1.683 1.346 3.618.841 5.47m1.851-7.068a10.396 10.396 0 00-6.395-4.712c-.84-.168-1.683-.336-2.523-.336-4.796 0-8.919 3.281-10.097 7.908-.673 2.608-.252 5.301 1.094 7.656l-7.909 7.993c-1.01 1.01-1.01 2.777 0 3.787.588.504 1.262.757 1.935.757s1.346-.253 1.935-.757l7.91-7.994c.841.505 1.765.842 2.691 1.095.842.168 1.683.336 2.525.336 4.795 0 8.918-3.28 10.096-7.909.59-2.693.168-5.469-1.262-7.824" fill="#3E3E3E"/>
        <path d="M876.304 71.999a10.256 10.256 0 01-2.692-2.692c-.168-.253-.252-.421-.42-.673l-.674.757-.084.084c.084.168.168.336.337.504.841 1.178 1.766 2.188 2.944 3.03.084.084.337.168.59.252l.756-.757c-.336-.253-.504-.337-.757-.505" fill="#1E1E1E"/>
        <path d="M692.826 42.294l.494 34.192c.05 3.525 7.998 6.363 17.809 6.22l-.587-40.667-17.716.255z" fill="#0072C5"/>
        <path d="M710.938 82.71l.286-.004c9.81-.142 17.674-3.113 17.622-6.732l-.494-34.193-18 .26.586 40.669z" fill="#0072C5"/>
        <path d="M710.747 82.713l.286-.005c9.905-.142 17.96-3.117 17.907-6.736l-.494-34.287-18.191.261.492 40.767z" fill="#3A93CE"/>
        <path d="M728.35 41.782c.051 3.524-7.812 6.59-17.622 6.732-9.81.142-17.756-2.601-17.809-6.22-.05-3.62 7.813-6.591 17.622-6.733 9.81-.141 17.758 2.698 17.81 6.22" fill="#FFF"/>
        <path d="M724.727 41.452c.034 2.38-6.225 4.377-14.034 4.489-7.81.114-14.124-1.701-14.158-4.082-.035-2.381 6.224-4.377 14.034-4.49 7.81-.112 14.124 1.702 14.158 4.083" fill="#7FB900"/>
        <path d="M721.811 44.066c1.799-.788 2.93-1.66 2.916-2.614-.034-2.38-6.348-4.196-14.158-4.082-7.81.112-14.069 2.108-14.034 4.49.013.951 1.171 1.887 2.99 2.527 2.556-1.084 6.643-1.715 11.12-1.779 4.476-.064 8.581.543 11.166 1.458" fill="#B7D332"/>
        <path d="M705.263 65.834c.015 1.048-.354 1.91-1.107 2.493-.754.583-1.797.884-3.226.904-1.144.017-2.099-.16-2.867-.626l-.035-2.476a4.43 4.43 0 002.968 1.1c.476-.006.952-.108 1.234-.303.283-.195.375-.482.37-.863-.007-.38-.106-.665-.395-.851-.29-.282-.865-.56-1.727-.928-1.726-.737-2.6-1.868-2.619-3.201-.015-1.048.355-1.815 1.11-2.397.752-.583 1.7-.978 2.938-.996a7.957 7.957 0 012.768.437l.034 2.38c-.768-.465-1.63-.737-2.582-.724-.476.007-.855.108-1.138.302-.284.194-.374.48-.37.863.006.38.106.665.394.852.193.187.674.466 1.441.836 1.055.46 1.824.927 2.308 1.49.291.378.49.946.501 1.708M717.325 63.183c.02 1.333-.25 2.48-.808 3.441-.557.96-1.405 1.64-2.543 2.038l3.283 3-3.24.047-2.321-2.539a5.126 5.126 0 01-2.68-.723c-.767-.465-1.443-1.122-1.837-1.974-.49-.85-.693-1.8-.708-2.848-.016-1.142.16-2.193.622-3.152a4.743 4.743 0 011.969-2.125 5.928 5.928 0 012.943-.804c1.047-.015 2.002.161 2.77.627.864.464 1.446 1.122 1.935 1.973.394.946.598 1.896.615 3.04m-2.665.133c-.017-1.143-.315-1.996-.801-2.656-.486-.66-1.156-.936-2.013-.923-.858.011-1.616.308-2.083.982-.561.675-.74 1.535-.723 2.678.015 1.048.314 1.996.8 2.655.487.66 1.253.935 2.11.923.856-.013 1.52-.308 2.08-.982.373-.673.646-1.535.63-2.677M725.977 68.68l-6.763.097-.16-11.143 2.571-.037.132 9.143 4.191-.06z" fill="#FFF"/>
        <path d="M520.867 42.036v34.196c0 3.524 7.906 6.477 17.717 6.477V42.036h-17.717z" fill="#0072C5"/>
        <path d="M538.394 82.709h.285c9.812 0 17.718-2.857 17.718-6.477V42.036h-18.003v40.673z" fill="#0072C5"/>
        <path d="M538.203 82.709h.285c9.907 0 18.003-2.857 18.003-6.478V41.94h-18.193l-.095 40.769z" fill="#3A93CE"/>
        <path d="M556.394 42.037c0 3.524-7.905 6.477-17.717 6.477-9.81 0-17.717-2.858-17.717-6.477 0-3.62 7.907-6.478 17.717-6.478 9.812 0 17.717 2.954 17.717 6.478" fill="#FFF"/>
        <path d="M552.776 41.654c0 2.382-6.286 4.287-14.097 4.287s-14.097-1.905-14.097-4.287c0-2.381 6.286-4.286 14.097-4.286 7.81 0 14.097 1.905 14.097 4.286" fill="#7FB900"/>
        <path d="M549.824 44.226c1.81-.762 2.952-1.619 2.952-2.572 0-2.38-6.286-4.286-14.097-4.286s-14.097 1.905-14.097 4.286c0 .953 1.142 1.905 2.953 2.572 2.57-1.048 6.667-1.619 11.144-1.619s8.573.667 11.145 1.62" fill="#B7D332"/>
        <path d="M532.962 65.753c0 1.048-.38 1.905-1.143 2.477-.76.572-1.809.857-3.238.857-1.143 0-2.096-.19-2.858-.666v-2.478a4.427 4.427 0 002.953 1.144c.476 0 .952-.096 1.238-.286.286-.191.381-.476.381-.858 0-.38-.095-.666-.38-.856-.287-.286-.858-.571-1.716-.953-1.714-.762-2.57-1.904-2.57-3.238 0-1.048.38-1.81 1.142-2.382.762-.572 1.714-.952 2.953-.952 1.048 0 2 .19 2.762.476v2.38c-.762-.475-1.62-.761-2.572-.761-.476 0-.857.096-1.142.286-.287.19-.38.476-.38.857 0 .382.093.667.38.857.19.19.666.477 1.428.858 1.048.476 1.81.953 2.286 1.524.286.38.476.952.476 1.714M545.061 63.276c0 1.334-.285 2.477-.857 3.43-.572.952-1.429 1.619-2.572 2l3.239 3.048h-3.239l-2.286-2.572a5.133 5.133 0 01-2.667-.761c-.762-.477-1.429-1.144-1.809-2.001-.477-.858-.667-1.81-.667-2.858 0-1.142.19-2.19.667-3.143a4.726 4.726 0 012-2.096 5.912 5.912 0 012.953-.762c1.048 0 2 .191 2.761.667.858.477 1.429 1.143 1.906 2 .381.953.571 1.905.571 3.048m-2.667.096c0-1.143-.285-2-.762-2.667-.476-.667-1.143-.952-2-.952s-1.62.285-2.095.952c-.573.667-.763 1.524-.763 2.667 0 1.048.286 2 .763 2.667.475.667 1.238.952 2.095.952.857 0 1.524-.285 2.095-.952.382-.667.667-1.524.667-2.667M553.633 68.897h-6.763V57.752h2.572v9.145h4.191z" fill="#FFF"/>
        <path d="M345.403 43.516v31.232c0 3.29 7.229 5.884 16.093 5.884V43.516h-16.093z" fill="#3999C6"/>
        <path d="M361.325 80.634h.258c8.95 0 16.094-2.596 16.094-5.884V43.518h-16.352v37.116z" fill="#59B4D9"/>
        <path d="M377.677 43.517c0 3.201-7.229 5.883-16.095 5.883-8.864 0-16.179-2.682-16.179-5.883 0-3.202 7.23-5.884 16.092-5.884 8.867 0 16.182 2.682 16.182 5.884" fill="#FFF"/>
        <path d="M374.406 43.172c0 2.163-5.767 3.893-12.824 3.893-7.057 0-12.91-1.73-12.91-3.893s5.766-3.894 12.824-3.894c7.057 0 12.91 1.73 12.91 3.894" fill="#7FBA00"/>
        <path d="M371.652 45.508c1.722-.693 2.668-1.472 2.668-2.337 0-2.163-5.767-3.892-12.824-3.892-7.057 0-12.823 1.73-12.823 3.892 0 .865 1.033 1.732 2.667 2.337 2.325-.953 6.025-1.472 10.156-1.472 4.13 0 7.832.606 10.156 1.471" fill="#B8D432"/>
        <path d="M365.887 55.89v20.85c0 2.163 4.82 3.894 10.757 3.894V55.89h-10.757z" fill="#0072C6"/>
        <path d="M376.473 80.634h.172c5.938 0 10.758-1.73 10.758-3.894V55.89h-10.93v24.744z" fill="#0072C6"/>
        <path d="M376.473 80.634h.172c5.938 0 10.758-1.73 10.758-3.894V55.89h-10.93v24.744z" fill="#2686CD"/>
        <path d="M387.403 55.89c0 2.163-4.82 3.893-10.76 3.893-5.936 0-10.756-1.73-10.756-3.893s4.82-3.894 10.757-3.894c5.94 0 10.759 1.731 10.759 3.894" fill="#FFF"/>
        <path d="M385.166 55.63c0 1.384-3.873 2.595-8.522 2.595-4.647 0-8.519-1.123-8.519-2.596 0-1.383 3.873-2.596 8.52-2.596 4.648 0 8.52 1.212 8.52 2.596" fill="#7FBA00"/>
        <path d="M383.358 57.187c1.119-.433 1.808-.952 1.808-1.558 0-1.383-3.873-2.595-8.521-2.595-4.733 0-8.52 1.125-8.52 2.595 0 .606.688 1.125 1.807 1.558 1.549-.605 4.045-1.038 6.799-1.038 2.582 0 4.992.433 6.627 1.038" fill="#B8D432"/>
        <path fill="#FFF" d="M382.498 68.52l-11.962 9.951 4.648-7.7h-4.046l11.963-9.864-4.648 7.613z"/>
        <path d="M1.793 51.978V74.64c0 3.141 1.121 4.263 4.258 4.263H41.16c3.136 0 4.258-1.122 4.258-4.263V51.978H1.793z" fill="#59B3D8"/>
        <path d="M45.417 52.807v-7.104c0-3.14-1.12-4.262-4.258-4.262H6.052c-3.138 0-4.258 1.121-4.258 4.262v7.104h43.624z" fill="#9FA0A1"/>
        <path d="M39.964 41.365H6.05c-3.137 0-4.257 1.122-4.257 4.263v7.178h27.564l10.607-11.441z" fill="#B2B3B4"/>
        <path d="M6.05 78.902h-.597c-2.688-.149-3.66-1.347-3.66-4.263V52.804h27.565L6.05 78.902z" fill="#7AC2E0"/>
        <path fill="#FBFBFB" d="M12.699 49.441h29.88v-3.814h-29.88z"/>
        <path d="M7.469 43.308a4.26 4.26 0 014.258 4.263 4.26 4.26 0 01-4.258 4.262 4.26 4.26 0 01-4.258-4.262 4.26 4.26 0 014.258-4.263" fill="#59B3D8"/>
        <path fill="#FBFBFB" d="M11.73 47.048H7.47l1.42-1.42v-.449H7.47l-2.24 2.468 2.24 2.319h1.42v-.523l-1.42-1.421h4.258z"/>
        <path fill="#7A7A7A" d="M191.516 396.393h9.114v-2.93h-9.114zM191.516 399.58l2.837 3.017h3.353l2.838-3.016z"/>
        <path d="M201.232 375.804c0-.775-.602-1.466-1.461-1.466-.774 0-1.462.691-1.462 1.466v1.465h1.462c.773 0 1.46-.69 1.46-1.465M191.947 377.27h1.461v-1.466c-.086-.775-.688-1.466-1.46-1.466-.775 0-1.463.605-1.463 1.466 0 .776.688 1.465 1.462 1.465" fill="#68217A"/>
        <path d="M198.31 375.804c0-.776.688-1.466 1.46-1.466.862 0 1.464.69 1.464 1.466 0 .774-.688 1.465-1.463 1.465h-1.461v-1.465zm-6.362-1.466c.773 0 1.375.69 1.46 1.466v1.465h-1.46c-.774 0-1.463-.69-1.463-1.465 0-.862.689-1.466 1.463-1.466z" fill="#68217A"/>
        <path d="M209.918 372.186v-.26c0-4.32-2.417-8.155-6.021-10.336l-11.124 11.146a3.178 3.178 0 012.356 3.068v1.464h1.462v-1.464c0-1.722 1.461-3.187 3.181-3.187 1.719 0 3.181 1.465 3.181 3.187 0 1.722-1.462 3.188-3.181 3.188h-1.462v10.941h-1.719v-10.94h-1.462v10.853h-1.72v-10.854h-1.462c-1.436 0-2.68-1.027-3.055-2.368l-3.565 3.573a12.092 12.092 0 01-1.713-2.092 12.455 12.455 0 002.572 2.868c2.236 1.982 4.557 7.322 4.901 8.873l.258.518h9.115l.258-.518c.344-1.55 2.751-6.89 4.901-8.787 4.901-4.136 4.299-8.7 4.299-8.873" fill="#68217A"/>
        <path d="M191.947 378.99h1.46v11.355h1.722V378.99h1.46v11.34h1.72v-11.34h1.462c1.72 0 3.18-1.464 3.18-3.187 0-1.723-1.46-3.188-3.18-3.188-1.72 0-3.181 1.465-3.181 3.188v1.464h-1.461v-1.464c0-1.447-.977-2.7-2.356-3.068l-3.882 3.889c.376 1.34 1.619 2.366 3.056 2.366zm6.362-3.186c0-.776.688-1.465 1.462-1.465.86 0 1.462.689 1.462 1.465 0 .775-.688 1.464-1.462 1.464h-1.462v-1.464zm-6.362-1.465c.773 0 1.375.689 1.46 1.465v1.464h-1.46c-.774 0-1.463-.69-1.463-1.464 0-.862.689-1.465 1.463-1.465z" fill="#CEBAD3"/>
        <path d="M188.893 376.625a3.039 3.039 0 01-.126-.821 3.177 3.177 0 013.182-3.188c.289 0 .562.049.825.119l11.124-11.144c-.034-.022-.068-.041-.103-.062a13.654 13.654 0 00-.644-.366 14.03 14.03 0 00-.91-.432l-.127-.051a13.122 13.122 0 00-4.835-.987c-.172-.258-4.127.086-4.127.086-6.277.776-11.178 6.032-11.178 12.148 0 .02-.01.103-.018.234l-.001.013-.006.147-.005.118-.001.174v.17c0 .065.004.138.007.208.003.068.005.136.01.209.005.078.012.16.019.243l.024.238c.01.09.023.186.037.283a9.681 9.681 0 00.103.577c.016.083.036.168.055.255.028.12.06.245.094.372.022.08.048.165.073.248.04.138.085.275.134.417.027.077.057.154.086.232.058.155.118.31.187.467.029.069.062.137.093.205.078.17.158.34.25.517.03.056.063.112.094.168.103.189.209.378.33.569.023.037.05.075.075.113a12.03 12.03 0 001.714 2.093l3.565-3.572z" fill="#875094"/>
        <path d="M188.766 375.804c0 .283.052.556.126.821l3.881-3.889a3.144 3.144 0 00-.825-.12 3.177 3.177 0 00-3.182 3.188" fill="#D6C5D9"/>
        <path d="M193.358 237.54c11.429 0 20.693-9.355 20.693-20.896 0-11.542-9.264-20.897-20.693-20.897-11.43 0-20.694 9.355-20.694 20.897 0 11.54 9.265 20.896 20.694 20.896" fill="#FFF"/>
        <path d="M179.763 211.064c1.116-.405 2.333-.507 3.45-.203.202-.304.506-.507.71-.812 1.926-2.028 3.955-3.753 5.781-4.969-2.232-2.334-4.159-4.667-5.579-7.102a25.267 25.267 0 00-3.55 2.131c-.812.71-1.522 1.318-2.232 2.13-.305 1.623-.406 4.87 1.42 8.825M192.644 203.254c5.681-3.043 10.651-3.043 13.897-2.638-3.753-3.144-8.521-4.767-13.288-4.767-2.13 0-4.26.304-6.391 1.014a181.883 181.883 0 005.782 6.39M176.923 220.802c-1.724-2.333-1.724-5.377 0-7.608-1.42-3.449-1.318-6.289-.812-8.318-4.767 7-4.97 16.433.102 23.635.102-2.13.406-4.564 1.217-7.202-.202-.102-.304-.305-.507-.507M196.5 207.209c2.435 2.435 4.768 4.667 6.898 6.492 1.927-1.115 4.362-.608 5.781 1.116 1.014 1.319 1.115 2.942.61 4.26 1.623 1.32 2.738 2.13 3.55 2.739 1.623-5.984.506-12.68-3.55-17.954-.102-.101-.204-.203-.204-.304-.406.1-5.68-.305-13.085 3.65M208.368 221.207c-1.927 1.52-4.768 1.116-6.29-.812-1.014-1.42-1.115-3.144-.506-4.666-2.638-2.03-5.377-4.362-8.014-6.695l-.203-.202.203.202c-1.725 1.116-3.55 2.638-5.478 4.362l-.71.71c1.015 2.029.913 4.463-.304 6.289.406.305.71.609 1.115.914 1.928 1.52 3.855 2.739 5.58 3.752 1.826-1.115 4.159-.811 5.478.914.405.507.608 1.116.71 1.623 5.173 1.52 8.926 1.014 10.245.71 1.014-1.42 1.724-2.942 2.333-4.565-.811-.507-2.13-1.42-4.16-2.841.204.102.103.203 0 .305M198.733 231.858c-1.826 1.42-4.362 1.015-5.782-.812-.609-.913-.913-1.927-.812-2.942-2.029-1.014-4.057-2.23-6.086-3.854-.609-.507-1.116-.913-1.724-1.42-.913.406-1.928.507-2.942.507-1.42 3.753-1.623 7.202-1.42 9.434 3.753 3.145 8.521 4.768 13.288 4.768 4.463 0 8.826-1.42 12.58-4.26.607-.508 1.216-1.016 1.825-1.523-2.13 0-4.869-.1-8.014-.81-.203.202-.507.607-.913.912" fill="#59B3D8"/>
        <path d="M219.41 230.405c0 7.856-6.368 14.226-14.225 14.226-7.856 0-14.225-6.37-14.225-14.226 0-7.856 6.369-14.226 14.225-14.226 7.857 0 14.226 6.37 14.226 14.226" fill="#FFF"/>
        <path d="M205.295 239.914c-5.209 0-9.427-4.312-9.427-9.62 0-5.306 4.218-9.618 9.427-9.618 5.21 0 9.427 4.312 9.427 9.619 0 5.307-4.218 9.619-9.427 9.619m-.11-22.61c-7.084 0-12.818 5.859-12.818 13.1 0 7.243 5.734 13.104 12.818 13.104s12.817-5.861 12.817-13.103-5.733-13.101-12.817-13.101" fill="#E32419"/>
        <path d="M198.873 234.772c.055.056.083.111.138.14.055.026.138.082.193.11l-.331-.25z" fill="#E32419"/>
        <path d="M204.276 237.935a8.19 8.19 0 01-6.716-3.475c1.502 2.796 4.467 4.64 7.708 4.64 2.988 0 5.82-1.58 7.426-4.137l-1.477-.845c-1.534 2.392-4.118 3.817-6.941 3.817" fill="#E32419"/>
        <path d="M210.981 229.533c-.163 3.899-3.474 7.048-7.45 7.048a7.602 7.602 0 01-3.127-.672 7.051 7.051 0 003.9 1.173c2.753 0 5.307-1.626 6.507-4.144l.068-.144 2.29 1.272a8.747 8.747 0 00.852-3.8c0-.25-.02-.503-.04-.733h-3z" fill="#E32419"/>
        <path d="M210.135 229.454c0-.062.006-.143.014-.224a2.17 2.17 0 00.013-.207v-.34l3.692-.11c-.308-1.596-1.013-3.04-2.048-4.19l-2.907 2.013c.276.698.405 1.563.405 2.71 0 2.783-1.605 5.167-4.018 6.25 2.645-.756 4.649-3.08 4.849-5.902" fill="#E32419"/>
        <path d="M847.49 103.693l-1.538-4.177a3.78 3.78 0 01-.15-.656h-.028a3.708 3.708 0 01-.157.656l-1.524 4.177h3.397zm2.687 3.78h-1.272l-1.04-2.748h-4.155l-.978 2.748h-1.278l3.76-9.802h1.189l3.774 9.802zM856.35 100.795l-4.144 5.722h4.102v.957h-5.749v-.35l4.143-5.693h-3.753v-.957h5.4zM863.458 107.473h-1.12v-1.107h-.027c-.466.847-1.187 1.271-2.162 1.271-1.668 0-2.501-.993-2.501-2.98v-4.184h1.115v4.006c0 1.476.563 2.215 1.694 2.215a1.71 1.71 0 001.35-.606c.353-.402.53-.93.53-1.582v-4.033h1.121v7zM869.372 101.608c-.196-.15-.48-.226-.848-.226-.478 0-.88.226-1.2.677-.321.451-.481 1.067-.481 1.846v3.568h-1.121v-7h1.12v1.443h.028c.159-.493.403-.876.73-1.152a1.669 1.669 0 011.102-.414c.29 0 .515.032.67.096v1.162zM874.881 103.303c-.005-.647-.16-1.15-.469-1.51-.307-.36-.734-.54-1.28-.54-.53 0-.979.19-1.348.567-.369.378-.597.873-.683 1.483h3.78zm1.148.95h-4.942c.018.78.228 1.381.63 1.805.4.424.951.636 1.653.636.788 0 1.513-.26 2.174-.78v1.053c-.615.446-1.429.67-2.44.67-.99 0-1.767-.318-2.33-.953-.567-.637-.849-1.53-.849-2.684 0-1.089.31-1.976.926-2.662.618-.686 1.384-1.029 2.301-1.029.916 0 1.624.296 2.125.89.501.591.752 1.414.752 2.466v.588zM881.252 107.077v-1.354c.154.137.341.26.557.37.216.109.444.2.683.277.24.074.48.133.722.174.241.04.465.06.67.06.706 0 1.233-.13 1.582-.392.348-.262.523-.64.523-1.131 0-.265-.058-.494-.175-.691a1.944 1.944 0 00-.48-.536 4.766 4.766 0 00-.729-.465 62.735 62.735 0 00-.906-.468 14.97 14.97 0 01-.957-.527 4.103 4.103 0 01-.772-.588 2.458 2.458 0 01-.517-.727 2.265 2.265 0 01-.187-.954c0-.446.097-.835.294-1.165.195-.331.453-.604.772-.818a3.507 3.507 0 011.09-.478 4.987 4.987 0 011.248-.157c.966 0 1.67.116 2.112.348v1.292c-.579-.401-1.322-.601-2.228-.601-.25 0-.502.026-.752.078a2.14 2.14 0 00-.67.257 1.478 1.478 0 00-.479.458 1.214 1.214 0 00-.184.683c0 .25.047.467.14.65.093.182.231.348.414.499.181.15.404.296.666.437.262.142.564.296.906.465.35.173.683.356.998.547.314.19.59.403.827.636.236.232.425.49.563.772.14.282.21.607.21.97 0 .484-.095.893-.285 1.227a2.317 2.317 0 01-.765.818c-.322.21-.692.36-1.11.454a6.05 6.05 0 01-1.327.14c-.155 0-.347-.012-.574-.037a8.035 8.035 0 01-.697-.11 5.807 5.807 0 01-.674-.177 2.078 2.078 0 01-.509-.236M893.475 103.303c-.005-.647-.16-1.15-.469-1.51-.307-.36-.734-.54-1.28-.54-.53 0-.979.19-1.348.567-.369.378-.597.873-.683 1.483h3.78zm1.148.95h-4.942c.018.78.228 1.381.63 1.805.4.424.951.636 1.653.636.788 0 1.513-.26 2.174-.78v1.053c-.615.446-1.429.67-2.44.67-.99 0-1.767-.318-2.33-.953-.567-.637-.849-1.53-.849-2.684 0-1.089.31-1.976.926-2.662.618-.686 1.384-1.029 2.301-1.029.916 0 1.624.296 2.125.89.501.591.752 1.414.752 2.466v.588zM900.208 103.932l-1.688.232c-.52.074-.913.202-1.175.387-.265.184-.398.511-.398.981 0 .341.122.621.365.838.245.215.57.324.976.324.555 0 1.014-.196 1.376-.584.363-.39.544-.884.544-1.48v-.698zm1.122 3.541h-1.122v-1.094h-.026c-.49.84-1.207 1.258-2.154 1.258-.697 0-1.244-.184-1.638-.554-.394-.369-.59-.859-.59-1.469 0-1.308.769-2.07 2.31-2.284l2.098-.294c0-1.189-.48-1.784-1.442-1.784-.843 0-1.604.287-2.284.862v-1.149c.688-.437 1.481-.656 2.38-.656 1.644 0 2.468.87 2.468 2.611v4.553zM907.092 101.608c-.196-.15-.479-.226-.848-.226-.478 0-.879.226-1.2.677-.32.451-.48 1.067-.48 1.846v3.568h-1.122v-7h1.121v1.443h.027c.16-.493.403-.876.731-1.152a1.669 1.669 0 011.101-.414c.291 0 .515.032.67.096v1.162zM912.896 107.152c-.538.323-1.176.485-1.914.485-.998 0-1.804-.324-2.417-.974-.612-.649-.919-1.491-.919-2.526 0-1.153.33-2.079.991-2.779.66-.699 1.542-1.049 2.646-1.049.615 0 1.157.114 1.627.342v1.148c-.52-.364-1.076-.546-1.668-.546-.716 0-1.303.255-1.761.769-.458.512-.687 1.186-.687 2.02 0 .82.215 1.467.646 1.941.431.474 1.009.711 1.733.711.611 0 1.185-.203 1.723-.608v1.066zM920.402 107.473h-1.121v-4.033c0-1.458-.543-2.188-1.627-2.188-.547 0-1.008.211-1.381.633-.374.421-.56.962-.56 1.623v3.965h-1.122V97.11h1.122v4.525h.027c.537-.884 1.303-1.326 2.297-1.326 1.576 0 2.365.95 2.365 2.851v4.313zM334.277 103.549l-1.538-4.178a3.98 3.98 0 01-.15-.655h-.028a3.539 3.539 0 01-.157.656l-1.524 4.177h3.397zm2.687 3.78h-1.272l-1.04-2.748h-4.155l-.978 2.748h-1.278l3.76-9.802h1.189l3.774 9.802zM343.136 100.65l-4.143 5.722h4.102v.957h-5.749v-.349l4.143-5.694h-3.753v-.957h5.4zM350.246 107.329h-1.121v-1.107h-.027c-.465.847-1.185 1.27-2.161 1.27-1.668 0-2.502-.992-2.502-2.98v-4.183h1.115v4.006c0 1.476.565 2.215 1.695 2.215.547 0 .997-.201 1.35-.606.353-.402.53-.93.53-1.582v-4.033h1.12v7zM356.159 101.463c-.195-.15-.48-.225-.848-.225-.478 0-.878.225-1.2.677-.32.45-.481 1.066-.481 1.845v3.569h-1.121v-7h1.12v1.443h.028c.16-.494.403-.877.73-1.153a1.67 1.67 0 011.102-.413c.292 0 .516.031.67.096v1.161zM361.668 103.159c-.004-.647-.16-1.15-.468-1.511-.306-.36-.734-.54-1.281-.54-.529 0-.978.19-1.347.568-.37.378-.596.873-.683 1.483h3.78zm1.149.95h-4.942c.019.779.228 1.38.628 1.805.401.424.954.636 1.655.636.788 0 1.513-.26 2.173-.78v1.053c-.615.446-1.429.67-2.44.67-.989 0-1.766-.318-2.33-.953-.565-.637-.849-1.53-.849-2.684 0-1.09.31-1.976.928-2.662.617-.686 1.382-1.03 2.3-1.03.916 0 1.625.297 2.125.89.502.592.752 1.415.752 2.467v.588zM375.17 106.919c-.726.383-1.628.574-2.708.574-1.395 0-2.51-.45-3.35-1.346-.838-.898-1.257-2.077-1.257-3.535 0-1.567.471-2.835 1.415-3.8.943-.966 2.14-1.45 3.588-1.45.93 0 1.701.135 2.311.404v1.223a4.694 4.694 0 00-2.324-.588c-1.125 0-2.038.376-2.738 1.128-.7.752-1.049 1.757-1.049 3.015 0 1.194.327 2.146.981 2.854.653.709 1.512 1.063 2.573 1.063.985 0 1.837-.22 2.557-.656v1.114zM380.905 103.788l-1.688.232c-.52.074-.912.202-1.176.387-.264.184-.397.51-.397.98 0 .342.122.622.366.839.244.215.569.324.974.324.557 0 1.016-.196 1.378-.584.362-.391.543-.884.543-1.481v-.697zm1.12 3.54h-1.12v-1.093h-.027c-.488.839-1.205 1.258-2.154 1.258-.697 0-1.243-.184-1.636-.554-.395-.37-.592-.86-.592-1.47 0-1.307.77-2.07 2.31-2.283l2.099-.294c0-1.19-.48-1.784-1.442-1.784-.843 0-1.604.287-2.284.862v-1.15c.689-.436 1.482-.655 2.379-.655 1.646 0 2.468.87 2.468 2.61v4.554zM388.91 107.007c-.537.323-1.176.486-1.914.486-.998 0-1.804-.325-2.416-.974-.613-.65-.92-1.492-.92-2.526 0-1.153.33-2.08.99-2.78.662-.698 1.544-1.048 2.647-1.048.615 0 1.158.113 1.627.341v1.148c-.52-.364-1.076-.545-1.668-.545-.715 0-1.302.255-1.76.769-.458.511-.688 1.186-.688 2.02 0 .82.216 1.467.647 1.94.43.475 1.008.712 1.732.712.612 0 1.186-.203 1.723-.608v1.066zM396.416 107.329h-1.121v-4.033c0-1.458-.543-2.188-1.627-2.188-.548 0-1.007.21-1.382.633-.373.42-.56.962-.56 1.623v3.965h-1.122V96.966h1.123v4.525h.026c.538-.884 1.305-1.326 2.298-1.326 1.577 0 2.365.95 2.365 2.85v4.314zM403.005 103.159c-.004-.647-.16-1.15-.468-1.511-.307-.36-.735-.54-1.282-.54-.528 0-.978.19-1.347.568-.369.378-.596.873-.683 1.483h3.78zm1.148.95h-4.942c.02.779.23 1.38.63 1.805.4.424.952.636 1.653.636.79 0 1.514-.26 2.174-.78v1.053c-.615.446-1.429.67-2.44.67-.989 0-1.766-.318-2.33-.953-.566-.637-.849-1.53-.849-2.684 0-1.09.31-1.976.927-2.662.617-.686 1.383-1.03 2.3-1.03.916 0 1.625.297 2.125.89.502.592.752 1.415.752 2.467v.588zM343.913 114.75a1.497 1.497 0 00-.745-.185c-.784 0-1.176.495-1.176 1.484v1.08h1.64v.957h-1.64v6.043h-1.114v-6.043h-1.196v-.957h1.196v-1.135c0-.733.212-1.313.636-1.74.423-.426.952-.64 1.586-.64.34 0 .612.042.813.124v1.012zM347.843 117.908c-.72 0-1.29.245-1.709.734-.42.49-.629 1.166-.629 2.028 0 .829.212 1.483.636 1.962.424.478.991.717 1.702.717.725 0 1.281-.234 1.671-.704.39-.47.585-1.136.585-2.003 0-.875-.195-1.55-.585-2.023-.39-.474-.946-.711-1.67-.711m-.083 6.385c-1.035 0-1.86-.327-2.479-.981-.617-.654-.925-1.521-.925-2.601 0-1.176.321-2.094.964-2.755.642-.661 1.51-.991 2.604-.991 1.043 0 1.858.32 2.443.964.586.642.88 1.533.88 2.672 0 1.117-.316 2.01-.948 2.684-.63.672-1.478 1.008-2.539 1.008M356.689 118.263c-.196-.15-.479-.226-.848-.226-.478 0-.879.226-1.2.677-.321.451-.481 1.067-.481 1.846v3.568h-1.121v-7h1.121v1.443h.027c.159-.493.403-.876.731-1.152a1.669 1.669 0 011.101-.414c.291 0 .515.032.67.096v1.162zM363.04 115.365v3.555h1.559c.287 0 .552-.043.795-.13.245-.087.456-.211.633-.372.178-.162.317-.361.417-.596.1-.234.15-.497.15-.79 0-.523-.17-.933-.51-1.226-.338-.295-.83-.441-1.472-.441h-1.572zm5.879 8.764h-1.367l-1.641-2.748a6.142 6.142 0 00-.437-.653 2.53 2.53 0 00-.435-.441 1.51 1.51 0 00-.478-.25 1.986 1.986 0 00-.578-.078h-.943v4.17h-1.148v-9.803h2.925c.428 0 .824.054 1.186.16.362.108.677.27.943.489.267.219.476.492.626.818.15.325.226.707.226 1.144 0 .342-.052.656-.154.94a2.461 2.461 0 01-.438.762 2.634 2.634 0 01-.684.572 3.542 3.542 0 01-.898.365v.027c.164.074.307.157.427.25s.236.203.345.33c.11.129.218.274.325.436.107.16.226.35.359.563l1.839 2.947zM374.203 119.959c-.005-.647-.161-1.15-.47-1.511-.306-.36-.733-.54-1.28-.54-.53 0-.978.19-1.347.568-.37.378-.597.873-.683 1.483h3.78zm1.148.95h-4.942c.018.779.228 1.38.629 1.805.4.424.952.636 1.654.636.788 0 1.513-.26 2.174-.78v1.053c-.615.446-1.43.67-2.44.67-.99 0-1.767-.318-2.331-.953-.566-.637-.848-1.53-.848-2.684 0-1.09.309-1.976.926-2.662.618-.686 1.384-1.03 2.3-1.03.917 0 1.625.297 2.126.89.5.592.752 1.415.752 2.467v.588zM381.9 120.963v-1.031c0-.567-.187-1.044-.561-1.436-.374-.391-.847-.588-1.421-.588-.684 0-1.222.25-1.614.751-.392.501-.588 1.195-.588 2.078 0 .808.188 1.445.564 1.912.376.466.88.7 1.515.7.624 0 1.13-.225 1.52-.677.39-.45.585-1.02.585-1.709zm1.12 3.166h-1.12v-1.19h-.027c-.52.903-1.323 1.354-2.407 1.354-.88 0-1.583-.314-2.11-.94-.525-.626-.788-1.48-.788-2.56 0-1.158.29-2.086.875-2.783.583-.697 1.36-1.046 2.33-1.046.962 0 1.662.379 2.1 1.136h.027v-4.334h1.12v10.362zM385.291 124.129h1.121v-7h-1.121v7zm.574-8.778a.709.709 0 01-.513-.205.688.688 0 01-.212-.519c0-.21.07-.384.212-.524a.707.707 0 01.513-.208.725.725 0 01.738.732.69.69 0 01-.216.512.712.712 0 01-.522.212zM388.257 123.876v-1.203c.61.45 1.282.677 2.017.677.984 0 1.476-.328 1.476-.985a.845.845 0 00-.127-.474 1.248 1.248 0 00-.342-.346 2.57 2.57 0 00-.505-.27c-.194-.08-.403-.163-.625-.25a7.942 7.942 0 01-.818-.373 2.466 2.466 0 01-.588-.423 1.577 1.577 0 01-.355-.537 1.911 1.911 0 01-.119-.704c0-.328.075-.62.225-.871.151-.254.351-.465.602-.637a2.85 2.85 0 01.857-.385 3.8 3.8 0 01.995-.13c.606 0 1.15.104 1.627.314v1.135c-.515-.337-1.107-.506-1.777-.506-.21 0-.399.024-.567.072a1.365 1.365 0 00-.435.202.947.947 0 00-.28.31.825.825 0 00-.099.4.96.96 0 00.1.459c.065.123.162.232.29.328.127.095.282.182.465.259.181.078.39.163.622.253.31.119.588.24.834.366s.455.267.63.423c.171.159.305.339.398.544.094.206.141.45.141.732 0 .347-.077.647-.23.902a1.962 1.962 0 01-.61.636c-.257.169-.55.294-.883.376a4.362 4.362 0 01-1.046.123c-.72 0-1.345-.14-1.873-.417M487.873 107v-1.354c.154.137.34.26.557.37.216.109.444.2.683.277.239.074.48.133.722.174.24.04.465.06.67.06.706 0 1.233-.13 1.582-.392.348-.262.523-.64.523-1.131 0-.265-.058-.494-.175-.691a1.944 1.944 0 00-.481-.536 4.766 4.766 0 00-.728-.465 62.735 62.735 0 00-.906-.468 14.97 14.97 0 01-.957-.527 4.103 4.103 0 01-.772-.588 2.458 2.458 0 01-.517-.727 2.265 2.265 0 01-.187-.954c0-.446.097-.835.294-1.165.195-.331.453-.604.772-.818a3.507 3.507 0 011.09-.478 4.987 4.987 0 011.248-.157c.966 0 1.67.116 2.112.348v1.292c-.58-.401-1.322-.601-2.228-.601-.251 0-.502.026-.752.078a2.14 2.14 0 00-.67.257 1.478 1.478 0 00-.48.458 1.214 1.214 0 00-.183.683c0 .25.047.467.139.65.094.182.232.348.415.499.18.15.404.296.666.437.262.142.564.296.906.465.35.173.683.356.998.547.314.19.59.403.827.636.236.232.425.49.563.772.14.282.209.607.209.97 0 .484-.094.893-.284 1.227a2.317 2.317 0 01-.765.818c-.322.21-.692.36-1.111.454a6.05 6.05 0 01-1.326.14c-.155 0-.347-.012-.574-.037a8.035 8.035 0 01-.697-.11 5.807 5.807 0 01-.674-.177 2.078 2.078 0 01-.51-.236M495.618 107.396h1.121v-7h-1.121v7zm.574-8.777a.713.713 0 01-.725-.725c0-.21.071-.384.212-.523a.703.703 0 01.513-.208.72.72 0 01.522.208.696.696 0 01.216.523c0 .2-.072.371-.216.513a.716.716 0 01-.522.212zM502.255 107.328c-.265.146-.613.219-1.046.219-1.226 0-1.839-.684-1.839-2.051v-4.143h-1.203v-.957h1.203v-1.71l1.121-.361v2.07h1.764v.958h-1.764v3.945c0 .469.08.804.24 1.005.16.2.423.3.793.3.282 0 .526-.077.731-.232v.957zM508.12 103.226c-.004-.647-.16-1.15-.468-1.51-.307-.36-.734-.54-1.281-.54-.53 0-.978.19-1.347.567-.37.378-.597.873-.683 1.483h3.78zm1.149.95h-4.942c.018.78.228 1.381.629 1.805.4.424.952.636 1.654.636.788 0 1.513-.26 2.174-.78v1.053c-.615.446-1.43.67-2.44.67-.99 0-1.767-.318-2.331-.953-.566-.637-.848-1.53-.848-2.684 0-1.089.309-1.976.926-2.662.618-.686 1.384-1.029 2.3-1.029.917 0 1.625.296 2.126.89.5.591.752 1.414.752 2.466v.588zM515.736 107.075c-.538.323-1.176.485-1.914.485-.998 0-1.804-.324-2.417-.974-.612-.65-.92-1.491-.92-2.526 0-1.153.33-2.08.992-2.78.66-.698 1.542-1.048 2.646-1.048.615 0 1.157.114 1.627.342v1.148c-.52-.364-1.076-.546-1.668-.546-.716 0-1.303.255-1.761.769-.458.512-.687 1.186-.687 2.02 0 .82.215 1.467.646 1.94.43.475 1.009.712 1.733.712.61 0 1.185-.203 1.723-.608v1.066zM520.439 101.175c-.721 0-1.29.245-1.709.734-.42.491-.629 1.166-.629 2.028 0 .83.212 1.483.636 1.962.424.478.991.717 1.702.717.725 0 1.281-.234 1.671-.704.39-.469.585-1.136.585-2.003 0-.875-.195-1.549-.585-2.023-.39-.474-.946-.71-1.671-.71m-.082 6.384c-1.035 0-1.86-.327-2.479-.98-.617-.655-.925-1.522-.925-2.602 0-1.176.321-2.094.964-2.755.642-.66 1.51-.99 2.604-.99 1.043 0 1.858.32 2.443.963.586.642.879 1.533.879 2.672 0 1.117-.315 2.011-.947 2.684-.631.672-1.478 1.008-2.539 1.008M529.285 101.53c-.196-.15-.48-.225-.848-.225-.478 0-.88.226-1.2.677-.321.45-.481 1.067-.481 1.846v3.568h-1.121v-7h1.12v1.443h.028c.159-.493.403-.876.73-1.152a1.669 1.669 0 011.102-.414c.29 0 .515.032.67.096v1.162zM534.794 103.226c-.005-.647-.16-1.15-.469-1.51-.307-.36-.734-.54-1.28-.54-.53 0-.979.19-1.348.567-.369.378-.597.873-.683 1.483h3.78zm1.148.95H531c.018.78.228 1.381.63 1.805.4.424.951.636 1.653.636.788 0 1.513-.26 2.174-.78v1.053c-.615.446-1.429.67-2.44.67-.99 0-1.767-.318-2.33-.953-.567-.637-.849-1.53-.849-2.684 0-1.089.31-1.976.926-2.662.618-.686 1.384-1.029 2.301-1.029.916 0 1.624.296 2.125.89.501.591.752 1.414.752 2.466v.588zM548.295 106.986c-.725.383-1.627.574-2.707.574-1.395 0-2.512-.449-3.35-1.346-.839-.898-1.257-2.077-1.257-3.535 0-1.567.471-2.835 1.415-3.8.943-.966 2.14-1.45 3.588-1.45.93 0 1.7.135 2.311.404v1.223a4.697 4.697 0 00-2.324-.588c-1.126 0-2.038.376-2.738 1.128-.7.752-1.049 1.757-1.049 3.015 0 1.194.327 2.146.98 2.854.654.709 1.512 1.063 2.574 1.063.985 0 1.836-.219 2.557-.656v1.114zM553.149 101.175c-.721 0-1.29.245-1.71.734-.42.491-.628 1.166-.628 2.028 0 .83.212 1.483.636 1.962.424.478.99.717 1.702.717.725 0 1.28-.234 1.67-.704.39-.469.586-1.136.586-2.003 0-.875-.195-1.549-.585-2.023-.39-.474-.946-.71-1.671-.71m-.082 6.384c-1.035 0-1.86-.327-2.48-.98-.616-.655-.924-1.522-.924-2.602 0-1.176.32-2.094.964-2.755.642-.66 1.51-.99 2.604-.99 1.043 0 1.858.32 2.443.963.586.642.879 1.533.879 2.672 0 1.117-.315 2.011-.947 2.684-.631.672-1.478 1.008-2.54 1.008M564.155 107.396h-1.121v-3.992c0-1.486-.543-2.229-1.627-2.229-.561 0-1.024.211-1.392.633-.366.421-.55.953-.55 1.596v3.992h-1.121v-7h1.122v1.162h.027c.528-.884 1.294-1.326 2.297-1.326.765 0 1.35.247 1.757.742.405.494.608 1.208.608 2.143v4.28zM569.514 107.328c-.265.146-.613.219-1.046.219-1.226 0-1.839-.684-1.839-2.051v-4.143h-1.203v-.957h1.203v-1.71l1.121-.361v2.07h1.764v.958h-1.764v3.945c0 .469.08.804.24 1.005.16.2.423.3.793.3.282 0 .526-.077.731-.232v.957zM575.38 103.226c-.006-.647-.162-1.15-.47-1.51-.307-.36-.734-.54-1.28-.54-.53 0-.979.19-1.348.567-.369.378-.597.873-.683 1.483h3.78zm1.147.95h-4.942c.018.78.228 1.381.63 1.805.4.424.951.636 1.653.636.788 0 1.513-.26 2.174-.78v1.053c-.615.446-1.429.67-2.44.67-.99 0-1.767-.318-2.33-.953-.567-.637-.849-1.53-.849-2.684 0-1.089.31-1.976.926-2.662.618-.686 1.384-1.029 2.301-1.029.916 0 1.624.296 2.125.89.501.591.752 1.414.752 2.466v.588zM584.034 107.396h-1.121v-3.992c0-1.486-.543-2.229-1.627-2.229-.561 0-1.024.211-1.392.633-.366.421-.55.953-.55 1.596v3.992h-1.121v-7h1.122v1.162h.027c.528-.884 1.294-1.326 2.297-1.326.765 0 1.35.247 1.757.742.405.494.608 1.208.608 2.143v4.28zM589.393 107.328c-.265.146-.613.219-1.046.219-1.226 0-1.839-.684-1.839-2.051v-4.143h-1.203v-.957h1.203v-1.71l1.121-.361v2.07h1.764v.958h-1.764v3.945c0 .469.08.804.24 1.005.16.2.423.3.793.3.282 0 .526-.077.731-.232v.957zM500.71 117.975c-.72 0-1.29.245-1.709.734-.42.491-.629 1.166-.629 2.028 0 .83.212 1.483.636 1.962.424.478.991.717 1.702.717.725 0 1.281-.234 1.671-.704.39-.469.585-1.136.585-2.003 0-.875-.195-1.549-.585-2.023-.39-.474-.946-.71-1.67-.71m-.083 6.384c-1.035 0-1.86-.327-2.479-.98-.617-.655-.925-1.522-.925-2.602 0-1.176.321-2.094.964-2.755.642-.66 1.51-.99 2.604-.99 1.043 0 1.858.32 2.443.963.586.642.88 1.533.88 2.672 0 1.117-.316 2.011-.948 2.684-.63.672-1.478 1.008-2.539 1.008M511.716 124.196h-1.12v-3.992c0-1.486-.544-2.23-1.628-2.23-.56 0-1.024.212-1.392.634-.366.42-.549.953-.549 1.596v3.992h-1.122v-7h1.122v1.162h.027c.528-.884 1.294-1.326 2.297-1.326.765 0 1.35.247 1.757.742.405.494.608 1.208.608 2.143v4.279zM522.715 120.416l-1.538-4.177a3.78 3.78 0 01-.15-.656H521a3.708 3.708 0 01-.157.656l-1.524 4.177h3.397zm2.687 3.78h-1.272l-1.039-2.748h-4.156l-.978 2.748h-1.278l3.76-9.802h1.19l3.773 9.802zM531.575 117.517l-4.143 5.722h4.102v.957h-5.75v-.349l4.144-5.694h-3.753v-.957h5.4zM538.684 124.196h-1.12v-1.107h-.028c-.465.847-1.186 1.27-2.16 1.27-1.669 0-2.503-.992-2.503-2.98v-4.183h1.115v4.006c0 1.476.564 2.215 1.695 2.215a1.71 1.71 0 001.35-.606c.353-.402.53-.93.53-1.582v-4.033h1.121v7zM544.597 118.33c-.196-.15-.479-.225-.848-.225-.478 0-.879.226-1.2.677-.32.45-.48 1.067-.48 1.846v3.568h-1.122v-7h1.121v1.443h.027c.16-.493.403-.876.731-1.152a1.669 1.669 0 011.101-.414c.291 0 .515.032.67.096v1.162zM550.107 120.026c-.005-.647-.161-1.15-.47-1.511-.306-.36-.733-.54-1.28-.54-.53 0-.978.19-1.347.568-.37.378-.597.873-.683 1.483h3.78zm1.148.95h-4.942c.018.779.228 1.381.629 1.805.4.424.952.636 1.654.636.788 0 1.513-.26 2.174-.78v1.053c-.615.446-1.43.67-2.44.67-.99 0-1.767-.318-2.331-.953-.566-.637-.848-1.53-.848-2.684 0-1.089.309-1.976.926-2.662.618-.686 1.384-1.029 2.3-1.029.917 0 1.625.296 2.126.889.5.592.752 1.415.752 2.467v.588zM556.478 123.8v-1.355c.154.138.341.26.557.37.216.11.444.201.683.278.239.073.48.132.722.173.241.041.465.061.67.061.706 0 1.233-.13 1.582-.392.348-.263.523-.64.523-1.132 0-.264-.058-.493-.175-.69a1.944 1.944 0 00-.481-.537 4.766 4.766 0 00-.728-.464 62.735 62.735 0 00-.906-.468 14.97 14.97 0 01-.957-.528 4.103 4.103 0 01-.772-.588 2.458 2.458 0 01-.517-.727 2.265 2.265 0 01-.187-.954c0-.445.097-.834.294-1.164.195-.332.453-.605.772-.819a3.507 3.507 0 011.09-.478 4.987 4.987 0 011.248-.156c.966 0 1.67.115 2.112.347v1.293c-.579-.401-1.322-.602-2.228-.602-.251 0-.502.026-.752.079a2.14 2.14 0 00-.67.257 1.478 1.478 0 00-.479.457 1.214 1.214 0 00-.184.683c0 .252.047.468.139.65.094.182.232.349.415.5.181.15.404.295.666.436.262.142.564.296.906.466.35.172.683.355.998.546.314.192.59.404.827.636.236.233.425.49.563.773.14.281.209.606.209.97 0 .483-.094.892-.284 1.227a2.317 2.317 0 01-.765.818c-.322.21-.692.36-1.111.453a6.05 6.05 0 01-1.326.142c-.155 0-.347-.014-.574-.038a8.035 8.035 0 01-.697-.11 5.807 5.807 0 01-.674-.177 2.078 2.078 0 01-.509-.237M568.407 115.268c-1.03 0-1.866.371-2.51 1.114-.641.743-.963 1.718-.963 2.926 0 1.203.312 2.176.937 2.92.629.732 1.446 1.1 2.454 1.1 1.075 0 1.923-.35 2.543-1.053.619-.702.93-1.684.93-2.946 0-1.299-.301-2.299-.903-3-.601-.707-1.431-1.06-2.488-1.06m-.082 9.091c-1.386 0-2.5-.458-3.343-1.374-.834-.916-1.251-2.108-1.251-3.575 0-1.58.426-2.839 1.279-3.774.856-.938 2.016-1.408 3.479-1.408 1.349 0 2.438.456 3.268 1.367.829.911 1.244 2.104 1.244 3.575 0 1.6-.424 2.865-1.272 3.794a3.769 3.769 0 01-.642.574l2.755 1.976h-2.085l-1.846-1.38a5.295 5.295 0 01-1.586.225M580.014 124.196h-5.086v-9.803h1.148v8.764h3.938zM1.148 103.288v3.527h1.56c.673 0 1.196-.16 1.567-.478.372-.32.558-.757.558-1.313 0-1.157-.789-1.736-2.366-1.736H1.148zm0-4.197v3.165h1.176c.63 0 1.123-.152 1.483-.454.36-.304.54-.731.54-1.283 0-.952-.626-1.428-1.88-1.428H1.148zM0 107.854v-9.802h2.79c.846 0 1.52.207 2.015.622.497.415.745.955.745 1.62 0 .556-.15 1.039-.45 1.449-.302.41-.716.702-1.245.875v.027c.661.078 1.19.328 1.586.748.396.422.595.97.595 1.645 0 .839-.3 1.518-.903 2.037-.6.52-1.36.779-2.276.779H0zM11.525 101.989c-.196-.15-.479-.226-.848-.226-.478 0-.878.226-1.199.677-.322.45-.482 1.067-.482 1.846v3.568h-1.12v-7h1.12v1.443h.027c.16-.493.403-.876.731-1.152a1.669 1.669 0 011.101-.414c.292 0 .515.032.67.096v1.162zM15.565 101.633c-.72 0-1.29.245-1.709.734-.419.491-.629 1.166-.629 2.028 0 .83.212 1.483.636 1.962.424.478.991.717 1.702.717.725 0 1.282-.234 1.671-.704.39-.469.585-1.136.585-2.003 0-.875-.195-1.549-.585-2.023-.389-.474-.946-.71-1.67-.71m-.083 6.384c-1.035 0-1.86-.327-2.478-.98-.618-.655-.926-1.522-.926-2.602 0-1.176.321-2.094.964-2.755.642-.66 1.51-.99 2.604-.99 1.043 0 1.858.32 2.444.963.585.642.878 1.533.878 2.672 0 1.117-.315 2.011-.946 2.684-.632.672-1.478 1.008-2.54 1.008M29.58 100.854l-2.1 7h-1.162l-1.442-5.01a3.225 3.225 0 01-.109-.65h-.028a3.088 3.088 0 01-.143.636l-1.566 5.024h-1.12l-2.12-7h1.176l1.45 5.264c.044.16.077.37.095.63h.054c.014-.202.055-.416.123-.644l1.614-5.25h1.025l1.45 5.277c.045.17.08.378.102.63h.054c.01-.178.048-.388.117-.63l1.422-5.277h1.107zM30.454 107.601v-1.203a3.32 3.32 0 002.017.677c.984 0 1.476-.328 1.476-.985a.853.853 0 00-.126-.474 1.276 1.276 0 00-.342-.346 2.61 2.61 0 00-.506-.27c-.194-.08-.402-.163-.625-.25a7.822 7.822 0 01-.817-.373 2.426 2.426 0 01-.588-.423 1.58 1.58 0 01-.356-.537 1.911 1.911 0 01-.119-.704c0-.328.075-.619.225-.87.151-.255.351-.466.602-.638.25-.169.536-.298.858-.385.321-.087.653-.13.994-.13.606 0 1.15.104 1.627.314v1.135c-.515-.337-1.107-.506-1.777-.506-.21 0-.399.024-.567.072a1.35 1.35 0 00-.434.202.939.939 0 00-.28.31.825.825 0 00-.1.401.96.96 0 00.1.458c.065.123.162.232.29.328.127.095.282.182.465.26.182.077.39.162.622.252.31.12.588.241.834.366.246.126.455.267.63.423.172.16.305.34.398.544.094.206.141.45.141.732 0 .347-.077.647-.229.902a1.975 1.975 0 01-.612.636c-.256.17-.55.294-.882.376a4.356 4.356 0 01-1.046.123c-.72 0-1.344-.139-1.873-.417M41.296 103.684c-.004-.647-.161-1.15-.468-1.51-.308-.36-.735-.54-1.282-.54-.53 0-.978.19-1.347.567-.37.378-.597.873-.683 1.483h3.78zm1.148.95h-4.942c.018.78.228 1.381.629 1.805.4.424.953.636 1.654.636.789 0 1.513-.26 2.174-.78v1.053c-.615.446-1.43.67-2.44.67-.99 0-1.766-.318-2.331-.953-.565-.637-.848-1.53-.848-2.684 0-1.089.309-1.976.926-2.662.618-.686 1.384-1.029 2.3-1.029.917 0 1.625.296 2.126.89.502.591.752 1.414.752 2.466v.588zM47.79 101.989c-.196-.15-.479-.226-.848-.226-.478 0-.878.226-1.199.677-.322.45-.482 1.067-.482 1.846v3.568H44.14v-7h1.121v1.443h.027c.16-.493.403-.876.731-1.152a1.669 1.669 0 011.101-.414c.292 0 .515.032.67.096v1.162zM145.414 106.421v-1.354c.155.138.34.26.557.37.216.11.444.201.684.278a5.6 5.6 0 00.72.173c.243.041.466.061.67.061.707 0 1.235-.13 1.583-.392.349-.263.523-.64.523-1.132 0-.264-.058-.493-.174-.69a1.948 1.948 0 00-.482-.537 4.766 4.766 0 00-.728-.464c-.28-.148-.582-.304-.906-.468-.342-.174-.66-.35-.957-.528a4.136 4.136 0 01-.772-.588 2.437 2.437 0 01-.516-.727 2.25 2.25 0 01-.188-.954c0-.445.098-.834.294-1.164.195-.332.453-.605.772-.819a3.517 3.517 0 011.09-.478 4.987 4.987 0 011.248-.156c.966 0 1.67.115 2.112.347v1.293c-.578-.401-1.322-.602-2.228-.602-.251 0-.502.026-.752.079a2.149 2.149 0 00-.67.257 1.478 1.478 0 00-.48.457 1.214 1.214 0 00-.183.683c0 .252.047.468.14.65.093.182.23.349.414.5.182.15.404.295.666.436.262.142.564.297.906.466.35.172.683.355.998.546.314.192.59.404.827.636.237.233.425.49.564.773.139.281.208.606.208.97 0 .483-.094.892-.283 1.227a2.328 2.328 0 01-.766.818c-.321.21-.691.36-1.111.453a6.043 6.043 0 01-1.326.142c-.155 0-.346-.014-.574-.038a8.095 8.095 0 01-.697-.11 5.86 5.86 0 01-.674-.177 2.078 2.078 0 01-.51-.237M153.159 106.818h1.121v-7h-1.121v7zm.574-8.777a.713.713 0 01-.725-.725c0-.21.071-.384.212-.523a.703.703 0 01.513-.208.724.724 0 01.738.731c0 .2-.072.371-.215.513a.72.72 0 01-.523.212zM159.796 106.75c-.264.146-.613.219-1.046.219-1.226 0-1.839-.684-1.839-2.051v-4.143h-1.203v-.957h1.203v-1.71l1.121-.361v2.07h1.764v.958h-1.764v3.945c0 .469.08.804.24 1.005.16.2.423.3.793.3.282 0 .526-.077.731-.232v.957zM165.662 102.648c-.004-.647-.161-1.15-.468-1.51-.308-.36-.735-.54-1.282-.54-.53 0-.978.19-1.347.567-.37.378-.597.873-.683 1.483h3.78zm1.148.95h-4.942c.018.78.228 1.381.629 1.805.4.424.953.636 1.654.636.789 0 1.513-.26 2.174-.78v1.053c-.615.446-1.43.67-2.44.67-.99 0-1.766-.318-2.331-.953-.565-.637-.848-1.53-.848-2.684 0-1.089.309-1.976.926-2.662.618-.686 1.384-1.029 2.3-1.029.917 0 1.625.296 2.126.89.502.591.752 1.414.752 2.466v.588zM173.277 106.497c-.538.323-1.176.485-1.914.485-.998 0-1.804-.324-2.417-.974-.612-.65-.92-1.491-.92-2.526 0-1.153.332-2.08.992-2.78.66-.698 1.543-1.048 2.646-1.048.615 0 1.157.114 1.627.342v1.148c-.52-.364-1.076-.546-1.668-.546-.716 0-1.303.255-1.761.769-.458.512-.687 1.186-.687 2.02 0 .82.216 1.467.646 1.94.43.475 1.009.712 1.733.712.61 0 1.185-.203 1.723-.608v1.066zM177.98 100.597c-.72 0-1.29.245-1.709.734-.419.491-.629 1.166-.629 2.028 0 .83.212 1.483.636 1.962.424.478.991.717 1.702.717.725 0 1.282-.234 1.671-.704.39-.469.585-1.136.585-2.003 0-.875-.195-1.549-.585-2.023-.389-.474-.946-.71-1.671-.71m-.082 6.384c-1.035 0-1.86-.327-2.478-.98-.618-.655-.926-1.522-.926-2.602 0-1.176.321-2.094.964-2.755.642-.66 1.51-.99 2.604-.99 1.043 0 1.858.32 2.444.963.585.642.878 1.533.878 2.672 0 1.117-.315 2.011-.946 2.684-.632.672-1.478 1.008-2.54 1.008M186.826 100.953c-.196-.15-.48-.226-.848-.226-.478 0-.878.226-1.2.677-.321.45-.481 1.067-.481 1.846v3.568h-1.121v-7h1.12v1.443h.028c.16-.493.403-.876.73-1.152a1.669 1.669 0 011.102-.414c.292 0 .515.032.67.096v1.162zM192.335 102.648c-.004-.647-.16-1.15-.468-1.51-.308-.36-.735-.54-1.282-.54-.529 0-.978.19-1.347.567-.369.378-.597.873-.683 1.483h3.78zm1.148.95h-4.942c.018.78.228 1.381.63 1.805.4.424.952.636 1.653.636.79 0 1.513-.26 2.174-.78v1.053c-.615.446-1.429.67-2.44.67-.989 0-1.766-.318-2.33-.953-.566-.637-.849-1.53-.849-2.684 0-1.089.31-1.976.926-2.662.618-.686 1.384-1.029 2.301-1.029.916 0 1.624.296 2.125.89.502.591.752 1.414.752 2.466v.588zM205.836 106.408c-.725.383-1.627.574-2.707.574-1.395 0-2.51-.45-3.35-1.346-.838-.898-1.257-2.077-1.257-3.535 0-1.567.471-2.835 1.415-3.8.943-.966 2.14-1.45 3.588-1.45.93 0 1.7.135 2.311.404v1.223a4.697 4.697 0 00-2.324-.588c-1.126 0-2.038.376-2.738 1.128-.7.752-1.049 1.757-1.049 3.015 0 1.194.327 2.146.981 2.854.653.709 1.511 1.063 2.573 1.063.985 0 1.837-.22 2.557-.656v1.114zM210.69 100.597c-.72 0-1.29.245-1.71.734-.418.491-.628 1.166-.628 2.028 0 .83.212 1.483.636 1.962.424.478.99.717 1.702.717.725 0 1.282-.234 1.67-.704.39-.469.586-1.136.586-2.003 0-.875-.195-1.549-.585-2.023-.39-.474-.946-.71-1.671-.71m-.082 6.384c-1.035 0-1.86-.327-2.478-.98-.618-.655-.926-1.522-.926-2.602 0-1.176.32-2.094.964-2.755.642-.66 1.51-.99 2.604-.99 1.043 0 1.858.32 2.444.963.585.642.878 1.533.878 2.672 0 1.117-.315 2.011-.946 2.684-.632.672-1.478 1.008-2.54 1.008M221.696 106.818h-1.121v-3.992c0-1.486-.543-2.229-1.627-2.229-.561 0-1.024.211-1.391.633-.367.421-.55.953-.55 1.596v3.992h-1.122v-7h1.122v1.162h.027c.529-.884 1.294-1.326 2.297-1.326.765 0 1.35.247 1.757.742.405.494.608 1.208.608 2.143v4.279zM227.055 106.75c-.264.146-.613.219-1.046.219-1.226 0-1.839-.684-1.839-2.051v-4.143h-1.203v-.957h1.203v-1.71l1.121-.361v2.07h1.764v.958h-1.764v3.945c0 .469.08.804.24 1.005.16.2.423.3.793.3.282 0 .526-.077.731-.232v.957zM232.92 102.648c-.004-.647-.16-1.15-.468-1.51-.308-.36-.735-.54-1.282-.54-.529 0-.978.19-1.347.567-.369.378-.597.873-.683 1.483h3.78zm1.148.95h-4.942c.018.78.228 1.381.63 1.805.4.424.952.636 1.653.636.79 0 1.513-.26 2.174-.78v1.053c-.615.446-1.429.67-2.44.67-.989 0-1.766-.318-2.33-.953-.566-.637-.849-1.53-.849-2.684 0-1.089.31-1.976.926-2.662.618-.686 1.384-1.029 2.301-1.029.916 0 1.624.296 2.125.89.502.591.752 1.414.752 2.466v.588zM241.575 106.818h-1.121v-3.992c0-1.486-.543-2.229-1.627-2.229-.561 0-1.024.211-1.391.633-.367.421-.55.953-.55 1.596v3.992h-1.122v-7h1.122v1.162h.027c.529-.884 1.294-1.326 2.297-1.326.765 0 1.35.247 1.757.742.405.494.608 1.208.608 2.143v4.279zM246.934 106.75c-.264.146-.613.219-1.046.219-1.226 0-1.839-.684-1.839-2.051v-4.143h-1.203v-.957h1.203v-1.71l1.121-.361v2.07h1.764v.958h-1.764v3.945c0 .469.08.804.24 1.005.16.2.423.3.793.3.282 0 .526-.077.731-.232v.957zM125.336 123.618h-1.142v-6.576c0-.52.032-1.155.096-1.907h-.027c-.11.442-.208.758-.294.95l-3.35 7.533h-.56l-3.343-7.48c-.096-.217-.194-.552-.294-1.003h-.027c.036.39.054 1.032.054 1.92v6.563h-1.107v-9.803h1.517l3.008 6.836c.233.525.383.916.451 1.176h.041c.196-.538.353-.938.472-1.203l3.07-6.81h1.435v9.804zM131.653 120.077l-1.688.232c-.52.074-.912.202-1.176.387-.264.184-.397.51-.397.98 0 .342.122.622.366.839.244.215.568.324.974.324.556 0 1.015-.196 1.378-.584.362-.391.543-.884.543-1.481v-.697zm1.12 3.54h-1.12v-1.093h-.027c-.488.839-1.206 1.258-2.154 1.258-.697 0-1.243-.184-1.637-.554-.394-.37-.591-.86-.591-1.47 0-1.307.77-2.07 2.31-2.283l2.099-.294c0-1.19-.481-1.784-1.442-1.784-.844 0-1.604.287-2.284.862v-1.15c.688-.436 1.48-.655 2.379-.655 1.645 0 2.468.87 2.468 2.61v4.554zM140.697 123.618h-1.121v-3.992c0-1.486-.543-2.23-1.627-2.23-.561 0-1.024.212-1.391.634-.367.42-.55.953-.55 1.596v3.992h-1.122v-7h1.122v1.162h.027c.529-.884 1.294-1.326 2.297-1.326.765 0 1.35.247 1.757.742.405.494.608 1.208.608 2.143v4.279zM146.699 120.077l-1.688.232c-.52.074-.912.202-1.176.387-.264.184-.397.51-.397.98 0 .342.122.622.366.839.244.215.568.324.974.324.556 0 1.015-.196 1.378-.584.362-.391.543-.884.543-1.481v-.697zm1.12 3.54h-1.12v-1.093h-.027c-.488.839-1.206 1.258-2.154 1.258-.697 0-1.243-.184-1.637-.554-.394-.37-.591-.86-.591-1.47 0-1.307.77-2.07 2.31-2.283l2.099-.294c0-1.19-.481-1.784-1.442-1.784-.844 0-1.604.287-2.284.862v-1.15c.688-.436 1.48-.655 2.379-.655 1.645 0 2.468.87 2.468 2.61v4.554zM154.786 120.453v-1.032c0-.556-.188-1.032-.564-1.43a1.858 1.858 0 00-1.405-.594c-.693 0-1.235.252-1.627.756-.392.503-.588 1.208-.588 2.115 0 .78.188 1.403.564 1.87.376.467.874.7 1.494.7.629 0 1.14-.223 1.535-.67.394-.445.59-1.018.59-1.715zm1.12 2.604c0 2.57-1.23 3.856-3.69 3.856-.866 0-1.623-.164-2.27-.492V125.3c.789.437 1.54.656 2.256.656 1.723 0 2.584-.916 2.584-2.748v-.766h-.027c-.534.894-1.336 1.34-2.407 1.34-.87 0-1.571-.31-2.102-.933-.53-.622-.796-1.458-.796-2.505 0-1.19.286-2.135.858-2.837.572-.702 1.354-1.053 2.348-1.053.943 0 1.643.378 2.099 1.135h.027v-.971h1.12v6.439zM162.654 119.448c-.004-.647-.161-1.15-.468-1.511-.308-.36-.735-.54-1.282-.54-.53 0-.978.19-1.347.568-.37.378-.597.873-.683 1.483h3.78zm1.148.95h-4.942c.018.779.228 1.38.629 1.805.4.424.953.636 1.654.636.789 0 1.513-.26 2.174-.78v1.053c-.615.446-1.43.67-2.44.67-.99 0-1.766-.318-2.331-.953-.565-.637-.848-1.53-.848-2.684 0-1.09.309-1.976.926-2.662.618-.686 1.384-1.03 2.3-1.03.917 0 1.625.297 2.126.89.502.592.752 1.415.752 2.467v.588zM175.437 123.618h-1.121v-4.02c0-.774-.12-1.334-.359-1.681s-.642-.52-1.207-.52c-.478 0-.885.219-1.22.657-.335.437-.502.96-.502 1.572v3.992h-1.121v-4.156c0-1.376-.531-2.065-1.593-2.065-.492 0-.898.206-1.217.619-.319.413-.478.949-.478 1.61v3.992h-1.121v-7h1.121v1.107h.027c.497-.847 1.221-1.271 2.174-1.271a2.027 2.027 0 011.982 1.449c.52-.966 1.295-1.45 2.324-1.45 1.541 0 2.311.95 2.311 2.852v4.313zM182.034 119.448c-.004-.647-.161-1.15-.468-1.511-.308-.36-.735-.54-1.282-.54-.53 0-.978.19-1.347.568-.37.378-.597.873-.683 1.483h3.78zm1.148.95h-4.942c.018.779.228 1.38.629 1.805.4.424.953.636 1.654.636.789 0 1.513-.26 2.174-.78v1.053c-.615.446-1.43.67-2.44.67-.99 0-1.766-.318-2.331-.953-.565-.637-.848-1.53-.848-2.684 0-1.09.309-1.976.926-2.662.618-.686 1.384-1.03 2.3-1.03.917 0 1.625.297 2.126.89.502.592.752 1.415.752 2.467v.588zM190.688 123.618h-1.121v-3.992c0-1.486-.543-2.23-1.627-2.23-.561 0-1.024.212-1.391.634-.367.42-.55.953-.55 1.596v3.992h-1.122v-7h1.122v1.162h.027c.529-.884 1.294-1.326 2.297-1.326.765 0 1.351.247 1.757.742.405.494.608 1.208.608 2.143v4.279zM196.047 123.55c-.264.145-.613.219-1.046.219-1.226 0-1.839-.684-1.839-2.052v-4.142h-1.203v-.957h1.203v-1.71l1.121-.362v2.072h1.764v.957h-1.764v3.944c0 .47.08.804.24 1.005.16.2.423.3.793.3.282 0 .526-.076.731-.231v.956zM204.387 117.397c-.72 0-1.29.245-1.709.734-.419.491-.629 1.166-.629 2.028 0 .83.212 1.483.636 1.962.424.478.991.717 1.702.717.725 0 1.282-.234 1.671-.704.39-.469.585-1.136.585-2.003 0-.875-.195-1.549-.585-2.023-.389-.474-.946-.71-1.67-.71m-.083 6.384c-1.035 0-1.86-.327-2.478-.98-.618-.655-.926-1.522-.926-2.602 0-1.176.321-2.094.964-2.755.642-.66 1.51-.99 2.604-.99 1.043 0 1.858.32 2.444.963.585.642.878 1.533.878 2.672 0 1.117-.315 2.011-.946 2.684-.632.672-1.478 1.008-2.54 1.008M215.393 123.618h-1.12v-3.992c0-1.486-.544-2.23-1.628-2.23-.56 0-1.024.212-1.39.634-.368.42-.55.953-.55 1.596v3.992h-1.123v-7h1.122v1.162h.027c.53-.884 1.294-1.326 2.297-1.326.765 0 1.351.247 1.757.742.405.494.608 1.208.608 2.143v4.279zM233.112 113.815l-2.77 9.803h-1.345l-2.017-7.164a4.512 4.512 0 01-.157-.998h-.027a5.124 5.124 0 01-.178.984l-2.03 7.178h-1.333l-2.872-9.803h1.265l2.085 7.52c.087.314.14.642.164.984h.034c.023-.24.094-.569.212-.984l2.167-7.52h1.1l2.079 7.574c.073.26.127.566.164.916h.027a5.44 5.44 0 01.185-.943l2.003-7.547h1.244zM238.56 119.448c-.004-.647-.16-1.15-.468-1.511-.308-.36-.735-.54-1.282-.54-.529 0-.978.19-1.347.568-.369.378-.597.873-.683 1.483h3.78zm1.148.95h-4.942c.018.779.228 1.38.63 1.805.4.424.952.636 1.653.636.79 0 1.513-.26 2.174-.78v1.053c-.615.446-1.429.67-2.44.67-.989 0-1.766-.318-2.33-.953-.566-.637-.849-1.53-.849-2.684 0-1.09.31-1.976.926-2.662.618-.686 1.384-1.03 2.301-1.03.916 0 1.624.297 2.125.89.502.592.752 1.415.752 2.467v.588zM242.525 119.783v.978c0 .579.188 1.07.564 1.472.376.404.853.606 1.432.606.679 0 1.21-.26 1.596-.78.386-.52.578-1.242.578-2.167 0-.78-.18-1.39-.54-1.832-.36-.442-.848-.663-1.463-.663-.652 0-1.176.227-1.572.68-.397.454-.595 1.022-.595 1.706m.027 2.823h-.027v1.012h-1.121v-10.363h1.12v4.593h.028c.552-.93 1.358-1.394 2.42-1.394.898 0 1.6.313 2.109.939.508.627.762 1.467.762 2.52 0 1.17-.284 2.109-.854 2.812-.57.705-1.35 1.057-2.338 1.057-.925 0-1.625-.392-2.1-1.176M258.521 119.838l-1.538-4.177a3.98 3.98 0 01-.15-.657h-.028a3.622 3.622 0 01-.157.656l-1.524 4.178h3.397zm2.687 3.78h-1.272l-1.039-2.748h-4.156l-.978 2.748h-1.278l3.76-9.802h1.189l3.774 9.802zM263.62 119.783v.978c0 .579.189 1.07.565 1.472.376.404.853.606 1.432.606.679 0 1.21-.26 1.596-.78.386-.52.578-1.242.578-2.167 0-.78-.18-1.39-.54-1.832-.36-.442-.848-.663-1.463-.663-.652 0-1.176.227-1.572.68-.397.454-.595 1.022-.595 1.706m.027 2.823h-.027v4.232H262.5v-10.22h1.12v1.23h.028c.552-.93 1.358-1.394 2.42-1.394.903 0 1.607.313 2.113.939.505.627.758 1.467.758 2.52 0 1.17-.284 2.109-.854 2.812-.57.705-1.35 1.057-2.338 1.057-.907 0-1.606-.392-2.1-1.176M271.851 119.783v.978c0 .579.188 1.07.564 1.472.376.404.853.606 1.432.606.68 0 1.211-.26 1.596-.78.386-.52.578-1.242.578-2.167 0-.78-.18-1.39-.54-1.832-.36-.442-.848-.663-1.463-.663-.652 0-1.176.227-1.572.68-.397.454-.595 1.022-.595 1.706m.027 2.823h-.027v4.232h-1.12v-10.22h1.12v1.23h.027c.552-.93 1.358-1.394 2.42-1.394.903 0 1.607.313 2.113.939.505.627.758 1.467.758 2.52 0 1.17-.284 2.109-.854 2.812-.57.705-1.349 1.057-2.338 1.057-.907 0-1.606-.392-2.099-1.176M145.414 268.165v-1.354c.155.137.34.26.558.37.215.109.444.2.683.277.239.074.48.133.72.174.243.04.466.06.67.06.708 0 1.235-.13 1.584-.392.348-.262.522-.64.522-1.131 0-.265-.057-.494-.174-.691a1.948 1.948 0 00-.482-.536 4.754 4.754 0 00-.727-.465 63.078 63.078 0 00-.907-.468c-.342-.173-.66-.35-.957-.527a4.136 4.136 0 01-.772-.588 2.437 2.437 0 01-.516-.727 2.25 2.25 0 01-.188-.954c0-.446.098-.835.294-1.165.196-.331.454-.604.772-.818a3.512 3.512 0 011.09-.478 4.973 4.973 0 011.248-.157c.967 0 1.67.116 2.112.348v1.292c-.578-.401-1.321-.601-2.228-.601a3.7 3.7 0 00-.752.078c-.25.053-.474.139-.67.257a1.488 1.488 0 00-.48.458 1.214 1.214 0 00-.183.683c0 .25.047.467.14.65.093.182.232.348.414.499.182.15.404.296.667.437.26.142.563.296.905.465.35.173.683.356.998.547a4.5 4.5 0 01.827.636c.237.232.425.49.564.772.139.282.208.607.208.97 0 .484-.094.893-.283 1.227a2.326 2.326 0 01-.765.818c-.322.21-.692.36-1.112.454a6.043 6.043 0 01-1.326.14 5.45 5.45 0 01-.574-.037 8.156 8.156 0 01-.697-.11 5.843 5.843 0 01-.673-.177 2.105 2.105 0 01-.51-.236M153.159 268.561h1.121v-7h-1.121v7zm.574-8.777a.716.716 0 01-.725-.725c0-.21.072-.384.212-.523a.706.706 0 01.513-.208.723.723 0 01.738.731c0 .2-.071.371-.215.513a.714.714 0 01-.523.212zM159.796 268.493c-.264.146-.612.219-1.046.219-1.225 0-1.839-.684-1.839-2.051v-4.143h-1.203v-.957h1.203v-1.71l1.121-.361v2.07h1.764v.958h-1.764v3.945c0 .469.08.804.24 1.005.16.2.423.3.793.3.283 0 .526-.077.731-.232v.957zM165.662 264.391c-.004-.647-.16-1.15-.468-1.51-.307-.36-.735-.54-1.282-.54-.528 0-.978.19-1.347.567-.37.378-.596.873-.683 1.483h3.78zm1.148.95h-4.942c.019.78.229 1.381.629 1.805.4.424.953.636 1.654.636.789 0 1.514-.26 2.174-.78v1.053c-.615.446-1.43.67-2.44.67-.99 0-1.766-.318-2.331-.953-.565-.637-.848-1.53-.848-2.684 0-1.089.309-1.976.927-2.662.617-.686 1.383-1.029 2.3-1.029.916 0 1.625.296 2.125.89.502.591.752 1.414.752 2.466v.588zM173.277 268.24c-.537.323-1.176.485-1.914.485-.998 0-1.804-.324-2.416-.974-.613-.65-.92-1.491-.92-2.526 0-1.153.33-2.08.99-2.78.662-.698 1.544-1.048 2.647-1.048.615 0 1.158.114 1.627.342v1.148c-.52-.364-1.076-.546-1.668-.546-.715 0-1.302.255-1.76.769-.458.512-.688 1.186-.688 2.02 0 .82.216 1.467.647 1.94.43.475 1.008.712 1.732.712.612 0 1.186-.203 1.723-.608v1.066zM177.98 262.34c-.72 0-1.289.246-1.709.735-.419.49-.629 1.166-.629 2.028 0 .829.212 1.483.636 1.962.424.478.991.716 1.702.716.725 0 1.282-.233 1.672-.704.39-.469.584-1.135.584-2.002 0-.875-.194-1.55-.584-2.024-.39-.474-.947-.71-1.672-.71m-.082 6.385c-1.034 0-1.86-.327-2.478-.981-.618-.654-.926-1.522-.926-2.601 0-1.177.321-2.094.964-2.755.642-.661 1.51-.992 2.604-.992 1.044 0 1.858.322 2.444.964.585.642.878 1.534.878 2.673 0 1.117-.315 2.01-.946 2.683-.632.673-1.478 1.009-2.54 1.009M186.826 262.696c-.195-.15-.48-.226-.848-.226-.478 0-.878.226-1.2.677-.32.45-.481 1.067-.481 1.846v3.568h-1.121v-7h1.12v1.443h.028c.16-.493.403-.876.73-1.152a1.67 1.67 0 011.102-.414c.292 0 .516.032.67.096v1.162zM192.335 264.391c-.004-.647-.16-1.15-.468-1.51-.307-.36-.735-.54-1.282-.54-.528 0-.978.19-1.347.567-.369.378-.596.873-.683 1.483h3.78zm1.148.95h-4.942c.02.78.23 1.381.63 1.805.4.424.952.636 1.653.636.79 0 1.514-.26 2.174-.78v1.053c-.615.446-1.429.67-2.44.67-.989 0-1.766-.318-2.33-.953-.566-.637-.849-1.53-.849-2.684 0-1.089.31-1.976.927-2.662.617-.686 1.383-1.029 2.3-1.029.916 0 1.625.296 2.125.89.502.591.752 1.414.752 2.466v.588zM205.836 268.151c-.725.383-1.627.574-2.707.574-1.395 0-2.51-.449-3.35-1.346-.838-.898-1.257-2.077-1.257-3.535 0-1.567.471-2.835 1.415-3.8.943-.966 2.14-1.45 3.588-1.45.93 0 1.701.135 2.311.404v1.223a4.694 4.694 0 00-2.324-.588c-1.125 0-2.038.376-2.738 1.128-.7.752-1.049 1.757-1.049 3.015 0 1.194.327 2.146.981 2.854.653.709 1.512 1.063 2.573 1.063.985 0 1.837-.219 2.557-.656v1.114zM210.69 262.34c-.72 0-1.29.246-1.71.735-.418.49-.628 1.166-.628 2.028 0 .829.212 1.483.636 1.962.424.478.99.716 1.702.716.725 0 1.282-.233 1.672-.704.39-.469.584-1.135.584-2.002 0-.875-.194-1.55-.584-2.024-.39-.474-.947-.71-1.672-.71m-.082 6.385c-1.034 0-1.86-.327-2.478-.981-.618-.654-.926-1.522-.926-2.601 0-1.177.32-2.094.964-2.755.642-.661 1.51-.992 2.604-.992 1.044 0 1.858.322 2.444.964.585.642.878 1.534.878 2.673 0 1.117-.315 2.01-.946 2.683-.632.673-1.478 1.009-2.54 1.009M221.696 268.561h-1.121v-3.992c0-1.486-.542-2.229-1.627-2.229-.561 0-1.024.211-1.391.633-.367.421-.55.953-.55 1.596v3.992h-1.122v-7h1.122v1.162h.027c.529-.884 1.295-1.326 2.297-1.326.765 0 1.35.247 1.757.742.406.494.608 1.208.608 2.143v4.28zM227.055 268.493c-.264.146-.612.219-1.046.219-1.225 0-1.839-.684-1.839-2.051v-4.143h-1.203v-.957h1.203v-1.71l1.121-.361v2.07h1.764v.958h-1.764v3.945c0 .469.08.804.24 1.005.16.2.423.3.793.3.283 0 .526-.077.731-.232v.957zM232.92 264.391c-.004-.647-.16-1.15-.468-1.51-.307-.36-.735-.54-1.282-.54-.528 0-.978.19-1.347.567-.369.378-.596.873-.683 1.483h3.78zm1.148.95h-4.942c.02.78.23 1.381.63 1.805.4.424.952.636 1.653.636.79 0 1.514-.26 2.174-.78v1.053c-.615.446-1.429.67-2.44.67-.989 0-1.766-.318-2.33-.953-.566-.637-.849-1.53-.849-2.684 0-1.089.31-1.976.927-2.662.617-.686 1.383-1.029 2.3-1.029.916 0 1.625.296 2.125.89.502.591.752 1.414.752 2.466v.588zM241.575 268.561h-1.121v-3.992c0-1.486-.542-2.229-1.627-2.229-.561 0-1.024.211-1.391.633-.367.421-.55.953-.55 1.596v3.992h-1.122v-7h1.122v1.162h.027c.529-.884 1.295-1.326 2.297-1.326.765 0 1.35.247 1.757.742.406.494.608 1.208.608 2.143v4.28zM246.934 268.493c-.264.146-.612.219-1.046.219-1.225 0-1.839-.684-1.839-2.051v-4.143h-1.203v-.957h1.203v-1.71l1.121-.361v2.07h1.764v.958h-1.764v3.945c0 .469.08.804.24 1.005.16.2.423.3.793.3.283 0 .526-.077.731-.232v.957zM132.634 276.597v7.725h1.463c1.285 0 2.285-.344 3.001-1.033.715-.688 1.073-1.663 1.073-2.925 0-2.51-1.336-3.767-4.006-3.767h-1.53zm-1.148 8.764v-9.803h2.707c3.454 0 5.181 1.593 5.181 4.778 0 1.513-.479 2.73-1.439 3.648-.959.918-2.243 1.377-3.852 1.377h-2.597zM145.63 281.191c-.006-.647-.162-1.15-.47-1.51-.307-.36-.734-.54-1.28-.54-.53 0-.979.19-1.348.567-.369.378-.597.873-.683 1.483h3.78zm1.147.95h-4.942c.018.78.228 1.381.63 1.805.4.424.951.636 1.653.636.788 0 1.513-.26 2.174-.78v1.053c-.615.446-1.429.67-2.44.67-.99 0-1.767-.318-2.33-.953-.567-.637-.849-1.53-.849-2.684 0-1.089.31-1.976.926-2.662.618-.686 1.384-1.029 2.301-1.029.916 0 1.624.296 2.125.89.501.591.752 1.414.752 2.466v.588zM148.473 285.361h1.121v-10.363h-1.121zM151.864 285.361h1.121v-7h-1.121v7zm.574-8.777a.713.713 0 01-.725-.725c0-.21.071-.384.212-.523a.703.703 0 01.513-.208.72.72 0 01.522.208.696.696 0 01.216.523c0 .2-.072.371-.216.513a.716.716 0 01-.522.212zM160.757 278.361l-2.789 7h-1.1l-2.653-7h1.23l1.778 5.086c.132.374.214.699.246.977h.027c.045-.35.118-.667.22-.95l1.858-5.113h1.183zM166.356 281.191c-.005-.647-.161-1.15-.469-1.51-.307-.36-.734-.54-1.281-.54-.529 0-.978.19-1.347.567-.369.378-.597.873-.683 1.483h3.78zm1.148.95h-4.942c.018.78.228 1.381.629 1.805.4.424.952.636 1.654.636.788 0 1.513-.26 2.174-.78v1.053c-.615.446-1.429.67-2.44.67-.99 0-1.767-.318-2.331-.953-.566-.637-.848-1.53-.848-2.684 0-1.089.309-1.976.926-2.662.618-.686 1.384-1.029 2.301-1.029.916 0 1.624.296 2.125.89.501.591.752 1.414.752 2.466v.588zM172.85 279.496c-.196-.15-.479-.226-.848-.226-.478 0-.879.226-1.2.677-.32.45-.48 1.067-.48 1.846v3.568H169.2v-7h1.121v1.443h.027c.16-.493.403-.876.731-1.152a1.669 1.669 0 011.101-.414c.291 0 .515.032.67.096v1.162zM180.199 278.361l-3.22 8.121c-.574 1.449-1.381 2.174-2.42 2.174-.292 0-.536-.029-.731-.089v-1.005c.24.082.462.123.663.123.564 0 .988-.337 1.27-1.011l.562-1.327-2.734-6.986h1.244l1.893 5.387c.023.068.07.246.144.533h.04c.023-.109.069-.282.138-.52l1.989-5.4h1.162zM188.245 279.14c-.721 0-1.29.245-1.71.734-.42.491-.628 1.166-.628 2.028 0 .83.212 1.483.636 1.962.424.478.99.717 1.702.717.725 0 1.28-.234 1.67-.704.39-.469.586-1.136.586-2.003 0-.875-.195-1.549-.585-2.023-.39-.474-.946-.71-1.671-.71m-.082 6.384c-1.035 0-1.86-.327-2.48-.98-.616-.655-.924-1.522-.924-2.602 0-1.176.32-2.094.964-2.755.642-.66 1.51-.99 2.604-.99 1.043 0 1.858.32 2.443.963.586.642.879 1.533.879 2.672 0 1.117-.315 2.011-.947 2.684-.631.672-1.478 1.008-2.54 1.008M199.25 285.361h-1.12v-3.992c0-1.486-.543-2.229-1.627-2.229-.561 0-1.024.211-1.392.633-.367.421-.55.953-.55 1.596v3.992h-1.121v-7h1.121v1.162h.028c.528-.884 1.293-1.326 2.297-1.326.764 0 1.35.247 1.757.742.405.494.607 1.208.607 2.143v4.279zM216.97 275.558l-2.77 9.803h-1.346l-2.017-7.164a4.454 4.454 0 01-.157-.998h-.027a5.124 5.124 0 01-.178.984l-2.03 7.178h-1.333l-2.872-9.803h1.265l2.085 7.52c.086.314.141.642.164.984h.034c.023-.24.093-.569.212-.984l2.167-7.52h1.101l2.078 7.574c.072.26.127.566.164.916h.027c.018-.237.08-.552.185-.943l2.003-7.547h1.244zM222.417 281.191c-.005-.647-.16-1.15-.469-1.51-.306-.36-.734-.54-1.28-.54-.53 0-.978.19-1.347.567-.37.378-.597.873-.684 1.483h3.78zm1.148.95h-4.941c.018.78.227 1.381.629 1.805.4.424.952.636 1.654.636.787 0 1.512-.26 2.173-.78v1.053c-.615.446-1.429.67-2.44.67-.99 0-1.766-.318-2.33-.953-.566-.637-.849-1.53-.849-2.684 0-1.089.31-1.976.926-2.662.619-.686 1.385-1.029 2.302-1.029.916 0 1.624.296 2.125.89.5.591.751 1.414.751 2.466v.588zM226.382 281.526v.978c0 .579.187 1.07.563 1.472.376.404.854.606 1.433.606.68 0 1.211-.26 1.596-.78.386-.519.578-1.242.578-2.167 0-.779-.18-1.389-.54-1.832-.36-.442-.848-.663-1.463-.663-.652 0-1.176.227-1.572.68-.397.454-.595 1.022-.595 1.706m.027 2.823h-.027v1.012h-1.12v-10.363h1.12v4.593h.027c.551-.929 1.358-1.394 2.42-1.394.898 0 1.601.313 2.11.939.507.627.761 1.467.761 2.52 0 1.171-.285 2.109-.854 2.812-.57.705-1.35 1.057-2.338 1.057-.926 0-1.625-.392-2.099-1.176M242.378 281.58l-1.538-4.176a3.78 3.78 0 01-.15-.656h-.028a3.708 3.708 0 01-.157.656l-1.524 4.177h3.397zm2.687 3.78h-1.272l-1.039-2.747h-4.156l-.978 2.748h-1.278l3.76-9.802h1.19l3.773 9.802zM247.478 281.526v.978c0 .579.187 1.07.563 1.472.376.404.854.606 1.433.606.679 0 1.211-.26 1.596-.78.386-.519.578-1.242.578-2.167 0-.779-.181-1.389-.54-1.832-.36-.442-.848-.663-1.463-.663-.652 0-1.176.227-1.572.68-.397.454-.595 1.022-.595 1.706m.027 2.823h-.027v4.232h-1.121v-10.22h1.121v1.23h.027c.551-.929 1.358-1.394 2.42-1.394.903 0 1.607.313 2.113.939.505.627.758 1.467.758 2.52 0 1.171-.285 2.109-.854 2.812-.57.705-1.35 1.057-2.338 1.057-.907 0-1.606-.392-2.099-1.176M255.708 281.526v.978c0 .579.188 1.07.564 1.472.375.404.853.606 1.433.606.679 0 1.21-.26 1.596-.78.386-.519.577-1.242.577-2.167 0-.779-.18-1.389-.54-1.832-.36-.442-.848-.663-1.463-.663-.651 0-1.175.227-1.572.68-.397.454-.595 1.022-.595 1.706m.028 2.823h-.028v4.232h-1.12v-10.22h1.12v1.23h.028c.55-.929 1.358-1.394 2.42-1.394.902 0 1.606.313 2.113.939.505.627.757 1.467.757 2.52 0 1.171-.285 2.109-.853 2.812-.57.705-1.35 1.057-2.339 1.057-.906 0-1.606-.392-2.099-1.176M141.233 424.827l-1.538-4.177a3.98 3.98 0 01-.15-.656h-.028a3.622 3.622 0 01-.157.656l-1.524 4.177h3.397zm2.687 3.78h-1.272l-1.039-2.748h-4.156l-.978 2.748h-1.278l3.76-9.802h1.19l3.773 9.802zM146.333 424.772v.978c0 .58.188 1.07.564 1.472.376.404.853.606 1.432.606.679 0 1.211-.26 1.596-.78.386-.519.578-1.242.578-2.167 0-.779-.18-1.389-.54-1.832-.36-.442-.848-.663-1.463-.663-.652 0-1.176.227-1.572.68-.397.454-.595 1.022-.595 1.706m.027 2.823h-.027v4.232h-1.121v-10.22h1.121v1.23h.027c.552-.929 1.358-1.394 2.42-1.394.903 0 1.607.313 2.113.94.505.626.758 1.466.758 2.52 0 1.17-.284 2.108-.854 2.811-.57.705-1.349 1.057-2.338 1.057-.907 0-1.606-.392-2.099-1.176M154.564 424.772v.978c0 .58.188 1.07.564 1.472.376.404.853.606 1.432.606.678 0 1.21-.26 1.595-.78.387-.519.578-1.242.578-2.167 0-.779-.18-1.389-.54-1.832-.36-.442-.848-.663-1.463-.663-.651 0-1.175.227-1.571.68-.397.454-.595 1.022-.595 1.706m.026 2.823h-.026v4.232h-1.121v-10.22h1.12v1.23h.028c.552-.929 1.357-1.394 2.42-1.394.903 0 1.607.313 2.113.94.505.626.757 1.466.757 2.52 0 1.17-.284 2.108-.853 2.811-.57.705-1.35 1.057-2.338 1.057-.907 0-1.607-.392-2.1-1.176M161.673 428.607h1.121v-10.363h-1.121zM165.064 428.607h1.121v-7h-1.121v7zm.574-8.777a.713.713 0 01-.725-.725c0-.21.071-.384.212-.523a.703.703 0 01.513-.208.724.724 0 01.738.731c0 .2-.072.371-.215.513a.72.72 0 01-.523.212zM173.226 428.286c-.538.323-1.176.485-1.914.485-.998 0-1.804-.324-2.417-.974-.612-.65-.92-1.491-.92-2.526 0-1.153.332-2.08.992-2.78.66-.698 1.543-1.048 2.646-1.048.615 0 1.157.114 1.627.342v1.148c-.52-.364-1.076-.546-1.668-.546-.716 0-1.303.255-1.761.769-.458.512-.687 1.186-.687 2.02 0 .82.216 1.467.646 1.94.43.475 1.009.712 1.733.712.61 0 1.185-.203 1.723-.608v1.066zM178.81 425.066l-1.688.232c-.52.074-.912.202-1.176.387-.263.184-.397.511-.397.981 0 .341.123.621.367.838.244.215.567.324.974.324.556 0 1.015-.196 1.378-.584.362-.39.542-.884.542-1.48v-.698zm1.121 3.541h-1.12v-1.094h-.028c-.487.84-1.206 1.258-2.153 1.258-.697 0-1.243-.184-1.637-.554-.394-.369-.591-.859-.591-1.469 0-1.308.77-2.07 2.31-2.284l2.099-.294c0-1.189-.482-1.784-1.442-1.784-.845 0-1.605.287-2.285.862V422.1c.689-.437 1.481-.656 2.38-.656 1.644 0 2.468.87 2.468 2.611v4.553zM185.291 428.539c-.264.146-.613.219-1.046.219-1.226 0-1.839-.684-1.839-2.051v-4.143h-1.203v-.957h1.203v-1.71l1.121-.361v2.07h1.764v.958h-1.764v3.945c0 .469.08.804.24 1.005.159.2.423.3.793.3.282 0 .526-.077.731-.232v.957zM186.788 428.607h1.121v-7h-1.121v7zm.574-8.777a.712.712 0 01-.724-.725.7.7 0 01.212-.523.703.703 0 01.512-.208c.205 0 .38.069.523.208a.696.696 0 01.216.523c0 .2-.072.371-.216.513a.718.718 0 01-.523.212zM193.186 422.386c-.72 0-1.29.245-1.709.734-.418.491-.629 1.166-.629 2.028 0 .83.212 1.483.636 1.962.424.478.992.717 1.702.717.725 0 1.282-.234 1.671-.704.39-.469.585-1.136.585-2.003 0-.875-.195-1.549-.585-2.023-.388-.474-.946-.71-1.67-.71m-.083 6.384c-1.035 0-1.86-.327-2.478-.98-.618-.655-.925-1.522-.925-2.602 0-1.176.32-2.094.964-2.755.642-.66 1.51-.99 2.603-.99 1.043 0 1.858.32 2.445.963.585.642.877 1.533.877 2.672 0 1.117-.315 2.011-.946 2.684-.632.672-1.477 1.008-2.54 1.008M204.192 428.607h-1.12v-3.992c0-1.486-.544-2.229-1.628-2.229-.56 0-1.024.211-1.39.633-.368.421-.55.953-.55 1.596v3.992h-1.123v-7h1.122v1.162h.027c.53-.884 1.294-1.326 2.297-1.326.765 0 1.351.247 1.757.742.405.494.608 1.208.608 2.143v4.28zM210.29 428.607h1.148v-9.803h-1.148zM219.676 428.607h-1.121v-3.992c0-1.486-.543-2.229-1.627-2.229-.561 0-1.024.211-1.391.633-.367.421-.55.953-.55 1.596v3.992h-1.122v-7h1.122v1.162h.027c.529-.884 1.294-1.326 2.297-1.326.765 0 1.35.247 1.757.742.405.494.608 1.208.608 2.143v4.28zM221.364 428.354v-1.203a3.32 3.32 0 002.017.677c.984 0 1.476-.328 1.476-.985a.853.853 0 00-.126-.474 1.276 1.276 0 00-.342-.346 2.61 2.61 0 00-.506-.27c-.194-.08-.402-.163-.625-.25a7.822 7.822 0 01-.817-.373 2.426 2.426 0 01-.588-.423 1.58 1.58 0 01-.356-.537 1.911 1.911 0 01-.119-.704c0-.328.075-.619.225-.87.151-.255.351-.466.602-.638.25-.169.536-.298.858-.385.321-.087.653-.13.994-.13.606 0 1.15.104 1.627.314v1.135c-.515-.337-1.107-.506-1.777-.506-.21 0-.399.024-.567.072a1.35 1.35 0 00-.434.202.939.939 0 00-.28.31.825.825 0 00-.1.401.96.96 0 00.1.458c.065.123.162.232.29.328.127.095.282.182.465.26.182.077.39.162.622.252.31.12.588.241.834.366.246.126.455.267.63.423.172.16.305.34.398.544.094.206.141.45.141.732 0 .347-.077.647-.229.902a1.975 1.975 0 01-.612.636c-.256.17-.55.294-.882.376a4.356 4.356 0 01-1.046.123c-.72 0-1.344-.139-1.873-.417M227.729 428.607h1.121v-7h-1.121v7zm.574-8.777a.713.713 0 01-.725-.725c0-.21.071-.384.212-.523a.703.703 0 01.513-.208.724.724 0 01.738.731c0 .2-.072.371-.215.513a.72.72 0 01-.523.212zM235.973 425.442v-1.032c0-.556-.188-1.032-.564-1.429a1.858 1.858 0 00-1.405-.595c-.693 0-1.235.252-1.627.756-.392.503-.588 1.208-.588 2.115 0 .78.188 1.403.564 1.87.376.467.874.701 1.494.701.629 0 1.14-.224 1.535-.67.394-.446.59-1.019.59-1.716zm1.12 2.604c0 2.571-1.23 3.856-3.69 3.856-.866 0-1.623-.164-2.27-.492v-1.121c.789.437 1.54.656 2.256.656 1.723 0 2.584-.916 2.584-2.748v-.766h-.027c-.534.894-1.336 1.34-2.407 1.34-.87 0-1.571-.31-2.102-.933-.53-.622-.796-1.458-.796-2.505 0-1.19.286-2.135.858-2.837.572-.702 1.354-1.053 2.348-1.053.943 0 1.643.378 2.099 1.135h.027v-.971h1.12v6.439zM245.174 428.607h-1.121v-4.033c0-1.458-.543-2.188-1.627-2.188-.547 0-1.007.211-1.381.633-.373.421-.56.962-.56 1.623v3.965h-1.122v-10.363h1.122v4.525h.027c.537-.884 1.303-1.326 2.297-1.326 1.576 0 2.365.95 2.365 2.851v4.313zM250.533 428.539c-.264.146-.613.219-1.046.219-1.226 0-1.839-.684-1.839-2.051v-4.143h-1.203v-.957h1.203v-1.71l1.121-.361v2.07h1.764v.958h-1.764v3.945c0 .469.08.804.24 1.005.16.2.423.3.793.3.282 0 .526-.077.731-.232v.957zM251.606 428.354v-1.203a3.32 3.32 0 002.017.677c.984 0 1.476-.328 1.476-.985a.853.853 0 00-.126-.474 1.276 1.276 0 00-.342-.346 2.61 2.61 0 00-.506-.27c-.194-.08-.402-.163-.625-.25a7.822 7.822 0 01-.817-.373 2.426 2.426 0 01-.588-.423 1.58 1.58 0 01-.356-.537 1.911 1.911 0 01-.119-.704c0-.328.075-.619.225-.87.151-.255.351-.466.602-.638.25-.169.536-.298.858-.385.321-.087.653-.13.994-.13.606 0 1.15.104 1.627.314v1.135c-.515-.337-1.107-.506-1.777-.506-.21 0-.399.024-.567.072a1.35 1.35 0 00-.434.202.939.939 0 00-.28.31.825.825 0 00-.1.401.96.96 0 00.1.458c.065.123.162.232.29.328.127.095.282.182.465.26.182.077.39.162.622.252.31.12.588.241.834.366.246.126.455.267.63.423.172.16.305.34.398.544.094.206.141.45.141.732 0 .347-.077.647-.229.902a1.975 1.975 0 01-.612.636c-.256.17-.55.294-.882.376a4.356 4.356 0 01-1.046.123c-.72 0-1.344-.139-1.873-.417" fill="#525252"/>
        <path fill="#959595" d="M111.475 83.528l-9.067-5.235v4.485H57.03v1.5h45.378v4.485zM287.62 83.528l-9.068-5.235v4.485h-40.47v1.5h40.47v4.485zM372.528 178.794l-5.235-9.067-5.237 9.067h4.487v62.6H238.082v1.5h129.96v-64.1zM111.475 242.144l-9.067-5.235v4.485h-77.54V126.477h-1.5v116.417h79.04v4.485zM196.691 306.63h4.486l-5.236-9.067-5.235 9.067h4.485v33.976h-4.485l5.235 9.067 5.236-9.067h-4.486z"/>
        <path d="M657.652 107.276v-1.354c.155.137.34.26.558.37.215.109.443.201.683.277a5.6 5.6 0 00.72.174c.242.041.466.061.67.061.707 0 1.235-.131 1.583-.393.349-.262.523-.639.523-1.131 0-.265-.058-.494-.174-.691a1.964 1.964 0 00-.482-.536 4.718 4.718 0 00-.728-.465c-.28-.148-.582-.304-.906-.468a14.97 14.97 0 01-.957-.527 4.136 4.136 0 01-.772-.588 2.437 2.437 0 01-.516-.727 2.25 2.25 0 01-.188-.954c0-.446.097-.835.294-1.165.196-.331.453-.604.772-.818a3.512 3.512 0 011.09-.478 4.973 4.973 0 011.248-.157c.966 0 1.67.116 2.112.348v1.292c-.58-.401-1.321-.601-2.228-.601-.251 0-.501.026-.752.078a2.149 2.149 0 00-.67.257 1.478 1.478 0 00-.48.458 1.214 1.214 0 00-.183.683c0 .251.047.467.139.65.094.182.232.348.415.499.182.15.404.296.666.437.262.142.564.296.906.465.35.173.683.356.998.547.314.191.59.403.827.636a2.8 2.8 0 01.563.772c.14.282.209.607.209.971 0 .483-.094.892-.283 1.226a2.335 2.335 0 01-.765.818 3.35 3.35 0 01-1.112.454 6.043 6.043 0 01-1.326.141c-.155 0-.347-.013-.574-.038a8.156 8.156 0 01-.697-.109 5.86 5.86 0 01-.674-.178 2.114 2.114 0 01-.51-.236M665.397 107.673h1.121v-7h-1.121v7zm.574-8.778a.712.712 0 01-.724-.724c0-.21.07-.384.211-.524a.706.706 0 01.513-.208c.205 0 .379.069.524.208.142.14.214.314.214.524 0 .2-.072.371-.214.512a.72.72 0 01-.524.212zM672.035 107.604c-.265.146-.613.22-1.046.22-1.225 0-1.84-.685-1.84-2.052v-4.143h-1.202v-.957h1.203v-1.709l1.12-.362v2.071h1.765v.957h-1.764v3.945c0 .47.08.804.24 1.005.159.2.423.3.793.3.282 0 .526-.077.73-.232v.957zM677.9 103.503c-.005-.647-.161-1.15-.468-1.511-.308-.36-.735-.54-1.282-.54-.528 0-.978.19-1.347.568-.37.378-.596.873-.683 1.483h3.78zm1.148.95h-4.942c.019.779.228 1.38.629 1.805.4.424.952.636 1.654.636.788 0 1.513-.26 2.174-.78v1.053c-.615.446-1.43.67-2.44.67-.99 0-1.766-.318-2.331-.953-.566-.637-.848-1.53-.848-2.684 0-1.09.309-1.976.926-2.662.618-.686 1.384-1.03 2.3-1.03.917 0 1.626.297 2.126.89.5.592.752 1.415.752 2.467v.588zM685.515 107.351c-.538.323-1.176.485-1.914.485-.998 0-1.804-.324-2.416-.974-.613-.649-.92-1.49-.92-2.526 0-1.153.33-2.079.991-2.779.661-.699 1.543-1.049 2.646-1.049.615 0 1.157.114 1.627.342v1.148c-.52-.364-1.076-.546-1.668-.546-.716 0-1.303.255-1.76.77-.459.511-.688 1.185-.688 2.02 0 .82.215 1.466.647 1.94.43.474 1.008.711 1.732.711.611 0 1.185-.203 1.723-.608v1.066zM690.218 101.452c-.72 0-1.29.245-1.709.734-.419.49-.629 1.166-.629 2.028 0 .829.212 1.483.636 1.962.424.478.991.717 1.702.717.725 0 1.281-.234 1.672-.704.39-.47.584-1.136.584-2.003 0-.875-.195-1.55-.584-2.023-.39-.474-.947-.711-1.672-.711m-.082 6.385c-1.034 0-1.86-.327-2.479-.981-.617-.654-.925-1.521-.925-2.601 0-1.176.321-2.094.964-2.755.642-.661 1.51-.991 2.604-.991 1.044 0 1.858.32 2.443.964.586.642.88 1.533.88 2.672 0 1.117-.316 2.01-.948 2.684-.63.672-1.478 1.008-2.539 1.008M699.064 101.807c-.196-.15-.479-.226-.848-.226-.478 0-.879.226-1.199.677-.322.451-.482 1.067-.482 1.846v3.568h-1.121v-7h1.121v1.443h.027c.159-.493.403-.876.731-1.152a1.67 1.67 0 011.101-.414c.292 0 .515.032.67.096v1.162zM704.574 103.503c-.005-.647-.161-1.15-.468-1.511-.308-.36-.735-.54-1.282-.54-.528 0-.978.19-1.347.568-.37.378-.596.873-.683 1.483h3.78zm1.148.95h-4.942c.019.779.228 1.38.629 1.805.4.424.952.636 1.654.636.788 0 1.513-.26 2.174-.78v1.053c-.615.446-1.43.67-2.44.67-.99 0-1.766-.318-2.331-.953-.566-.637-.848-1.53-.848-2.684 0-1.09.309-1.976.926-2.662.618-.686 1.384-1.03 2.3-1.03.917 0 1.626.297 2.126.89.5.592.752 1.415.752 2.467v.588zM716.304 103.892l-1.538-4.177a3.878 3.878 0 01-.15-.656h-.028a3.622 3.622 0 01-.157.656l-1.524 4.177h3.397zm2.687 3.78h-1.272l-1.039-2.748h-4.156l-.978 2.748h-1.278l3.76-9.802h1.19l3.773 9.802zM726.093 107.672h-1.12v-3.992c0-1.486-.543-2.229-1.628-2.229-.56 0-1.024.212-1.39.634-.368.42-.55.953-.55 1.596v3.992h-1.123v-7h1.122v1.162h.027c.528-.884 1.294-1.326 2.297-1.326.765 0 1.351.246 1.757.742.405.493.608 1.207.608 2.142v4.28zM732.095 104.132l-1.688.231c-.52.075-.912.203-1.176.388-.265.183-.397.51-.397.98 0 .342.122.622.365.839.245.215.57.324.975.324.556 0 1.016-.197 1.377-.585.363-.39.544-.883.544-1.48v-.697zm1.121 3.54h-1.12v-1.093h-.028c-.488.839-1.205 1.258-2.154 1.258-.697 0-1.243-.184-1.636-.555-.395-.368-.592-.858-.592-1.468 0-1.308.77-2.07 2.31-2.284l2.1-.294c0-1.19-.48-1.785-1.443-1.785-.843 0-1.605.288-2.284.863v-1.15c.69-.436 1.482-.656 2.38-.656 1.645 0 2.467.87 2.467 2.612v4.552zM735.329 107.673h1.121V97.31h-1.121zM744.29 100.672l-3.22 8.121c-.574 1.45-1.38 2.174-2.42 2.174-.291 0-.534-.028-.73-.088v-1.005c.24.082.463.123.663.123.565 0 .989-.338 1.27-1.011l.562-1.328-2.734-6.986h1.243l1.894 5.388c.023.067.07.245.144.532h.04c.023-.108.069-.281.138-.52l1.989-5.4h1.161zM748.782 107.604c-.265.146-.613.22-1.046.22-1.225 0-1.84-.685-1.84-2.052v-4.143h-1.202v-.957h1.203v-1.709l1.12-.362v2.071h1.765v.957h-1.764v3.945c0 .47.08.804.24 1.005.159.2.423.3.793.3.282 0 .526-.077.73-.232v.957zM750.279 107.673h1.121v-7h-1.121v7zm.574-8.778a.712.712 0 01-.725-.724c0-.21.071-.384.212-.524a.706.706 0 01.513-.208.724.724 0 01.738.732c0 .2-.072.371-.215.512a.716.716 0 01-.523.212zM758.44 107.351c-.537.323-1.175.485-1.913.485-.998 0-1.804-.324-2.416-.974-.613-.649-.92-1.49-.92-2.526 0-1.153.33-2.079.99-2.779.662-.699 1.544-1.049 2.647-1.049.615 0 1.157.114 1.627.342v1.148c-.52-.364-1.076-.546-1.668-.546-.716 0-1.303.255-1.76.77-.46.511-.688 1.185-.688 2.02 0 .82.215 1.466.647 1.94.43.474 1.008.711 1.732.711.61 0 1.185-.203 1.723-.608v1.066zM759.712 107.42v-1.203c.61.45 1.283.677 2.017.677.984 0 1.476-.328 1.476-.985a.853.853 0 00-.126-.474 1.276 1.276 0 00-.342-.346 2.629 2.629 0 00-.505-.27c-.195-.08-.403-.163-.626-.25a8.04 8.04 0 01-.818-.373 2.466 2.466 0 01-.588-.423 1.592 1.592 0 01-.355-.537 1.911 1.911 0 01-.119-.704c0-.328.075-.62.225-.871.151-.254.351-.465.602-.637.251-.17.536-.298.858-.385.321-.087.653-.13.994-.13.607 0 1.15.104 1.627.314v1.135c-.514-.337-1.107-.506-1.777-.506-.21 0-.398.024-.567.072a1.365 1.365 0 00-.435.202.932.932 0 00-.279.31.814.814 0 00-.1.4c0 .183.033.336.1.459a.993.993 0 00.29.328c.128.095.282.182.465.259.182.078.39.163.622.253.31.119.588.24.834.366s.456.267.63.423c.171.159.305.339.4.544.092.206.14.45.14.732 0 .347-.078.647-.23.902a1.962 1.962 0 01-.612.636 2.789 2.789 0 01-.882.376 4.362 4.362 0 01-1.046.123c-.72 0-1.345-.14-1.873-.417M673.194 118.252c-.72 0-1.29.245-1.71.734-.418.49-.628 1.166-.628 2.028 0 .829.212 1.483.636 1.962.424.478.99.717 1.702.717.725 0 1.28-.234 1.672-.704.389-.47.584-1.136.584-2.003 0-.875-.195-1.55-.584-2.023-.391-.474-.947-.711-1.672-.711m-.082 6.385c-1.034 0-1.86-.327-2.48-.981-.616-.654-.924-1.521-.924-2.601 0-1.176.32-2.094.964-2.755.642-.661 1.51-.991 2.604-.991 1.044 0 1.858.32 2.443.964.586.642.879 1.533.879 2.672 0 1.117-.315 2.01-.947 2.684-.631.672-1.478 1.008-2.54 1.008M684.2 124.472h-1.121v-3.992c0-1.486-.542-2.229-1.627-2.229-.561 0-1.024.211-1.391.633-.367.421-.55.953-.55 1.596v3.992h-1.122v-7h1.122v1.162h.027c.528-.884 1.294-1.326 2.297-1.326.765 0 1.35.247 1.757.742.405.494.608 1.208.608 2.143v4.28zM695.199 120.692l-1.538-4.177a3.878 3.878 0 01-.15-.656h-.028a3.622 3.622 0 01-.157.656l-1.524 4.177h3.397zm2.687 3.78h-1.272l-1.04-2.748h-4.155l-.978 2.748h-1.278l3.76-9.802h1.189l3.774 9.802zM704.058 117.794l-4.143 5.722h4.102v.957h-5.749v-.35l4.143-5.693h-3.753v-.957h5.4zM711.168 124.472h-1.121v-1.107h-.028c-.465.847-1.184 1.271-2.16 1.271-1.668 0-2.503-.993-2.503-2.98v-4.184h1.115v4.006c0 1.476.566 2.215 1.696 2.215.546 0 .996-.2 1.35-.606.352-.402.53-.93.53-1.582v-4.033h1.12v7zM717.08 118.607c-.195-.15-.478-.226-.847-.226-.478 0-.88.226-1.2.677-.321.451-.481 1.067-.481 1.846v3.568h-1.121v-7h1.12v1.443h.028c.159-.493.403-.876.73-1.152a1.67 1.67 0 011.102-.414c.292 0 .515.032.67.096v1.162zM722.59 120.302c-.005-.647-.16-1.15-.468-1.51-.308-.36-.735-.54-1.282-.54-.528 0-.978.19-1.347.567-.369.378-.596.873-.683 1.483h3.78zm1.148.95h-4.942c.02.78.228 1.381.63 1.805.4.424.951.636 1.653.636.788 0 1.513-.26 2.174-.78v1.053c-.615.446-1.429.67-2.44.67-.99 0-1.766-.318-2.33-.953-.567-.637-.849-1.53-.849-2.684 0-1.089.31-1.976.926-2.662.618-.686 1.384-1.029 2.301-1.029.916 0 1.625.296 2.125.89.501.591.752 1.414.752 2.466v.588zM728.961 124.076v-1.354c.155.137.341.26.558.37.215.109.443.2.683.277a5.6 5.6 0 00.721.174c.241.04.465.06.67.06.706 0 1.234-.13 1.582-.392.35-.262.523-.64.523-1.131 0-.265-.058-.494-.174-.691a1.964 1.964 0 00-.482-.536 4.718 4.718 0 00-.728-.465c-.28-.148-.582-.304-.906-.468a14.97 14.97 0 01-.957-.527 4.136 4.136 0 01-.772-.588 2.437 2.437 0 01-.516-.727 2.25 2.25 0 01-.188-.954c0-.446.097-.835.294-1.165.196-.331.453-.604.772-.818a3.512 3.512 0 011.091-.478 4.973 4.973 0 011.247-.157c.966 0 1.67.116 2.112.348v1.292c-.579-.401-1.32-.601-2.228-.601-.25 0-.5.026-.752.078a2.149 2.149 0 00-.67.257 1.478 1.478 0 00-.479.458 1.214 1.214 0 00-.184.683c0 .25.047.467.14.65.093.182.231.348.414.499.182.15.404.296.666.437.262.142.564.296.906.465.35.173.683.356.998.547.314.19.59.403.827.636a2.8 2.8 0 01.563.772c.14.282.21.607.21.97 0 .484-.095.893-.284 1.227a2.335 2.335 0 01-.765.818 3.35 3.35 0 01-1.112.454 6.043 6.043 0 01-1.326.14c-.155 0-.347-.012-.574-.037a8.156 8.156 0 01-.697-.11 5.86 5.86 0 01-.674-.177 2.114 2.114 0 01-.509-.236M740.89 115.545c-1.03 0-1.866.37-2.509 1.114-.642.743-.964 1.718-.964 2.926 0 1.203.313 2.176.937 2.919.63.733 1.447 1.1 2.454 1.1 1.075 0 1.923-.35 2.543-1.052.62-.702.93-1.684.93-2.946 0-1.3-.3-2.3-.903-3.001-.6-.706-1.43-1.06-2.488-1.06m-.082 9.092c-1.386 0-2.5-.458-3.343-1.374-.834-.916-1.25-2.108-1.25-3.575 0-1.581.425-2.84 1.278-3.774.856-.938 2.016-1.408 3.48-1.408 1.348 0 2.438.456 3.267 1.367.83.91 1.244 2.104 1.244 3.575 0 1.6-.424 2.865-1.272 3.794-.2.224-.415.415-.642.574l2.755 1.976h-2.085l-1.846-1.381a5.295 5.295 0 01-1.586.226M752.498 124.472h-5.086v-9.803h1.148v8.764h3.938z" fill="#525252"/>
        <path d="M193.358 76.485c11.429 0 20.693-9.355 20.693-20.896 0-11.542-9.264-20.897-20.693-20.897-11.43 0-20.694 9.355-20.694 20.897 0 11.541 9.265 20.896 20.694 20.896" fill="#FFF"/>
        <path d="M179.763 50.01c1.116-.407 2.333-.509 3.45-.204.202-.305.506-.507.71-.812 1.926-2.028 3.955-3.753 5.781-4.97-2.232-2.333-4.159-4.666-5.579-7.1a25.172 25.172 0 00-3.55 2.13c-.812.71-1.522 1.318-2.232 2.13-.305 1.623-.406 4.87 1.42 8.825M192.644 42.199c5.681-3.043 10.651-3.043 13.897-2.638-3.753-3.144-8.521-4.767-13.288-4.767-2.13 0-4.26.304-6.391 1.014a181.883 181.883 0 005.782 6.39M176.923 59.748c-1.724-2.333-1.724-5.377 0-7.608-1.42-3.45-1.318-6.29-.812-8.318-4.767 6.999-4.97 16.433.102 23.635.102-2.13.406-4.564 1.217-7.202-.202-.102-.304-.305-.507-.507M196.5 46.154c2.435 2.435 4.768 4.666 6.898 6.492 1.927-1.115 4.362-.608 5.781 1.116 1.014 1.319 1.115 2.942.61 4.26 1.623 1.32 2.738 2.131 3.55 2.739 1.623-5.985.506-12.679-3.55-17.955-.102-.1-.204-.202-.204-.303-.406.101-5.68-.305-13.085 3.651M208.368 60.152c-1.927 1.521-4.768 1.115-6.29-.812-1.014-1.419-1.115-3.144-.506-4.666-2.638-2.029-5.377-4.362-8.014-6.695l-.203-.203.203.203c-1.725 1.116-3.55 2.638-5.478 4.362l-.71.71c1.015 2.029.913 4.463-.304 6.289.406.305.71.609 1.115.914 1.928 1.521 3.855 2.738 5.58 3.752 1.826-1.116 4.159-.811 5.478.914.405.506.608 1.116.71 1.623 5.173 1.521 8.926 1.014 10.245.71 1.014-1.42 1.724-2.942 2.333-4.565-.811-.508-2.13-1.421-4.16-2.841.204.102.103.203 0 .305M198.733 70.803c-1.826 1.42-4.362 1.014-5.782-.812-.609-.913-.913-1.927-.812-2.942-2.029-1.014-4.057-2.23-6.086-3.854-.609-.507-1.116-.913-1.724-1.42-.913.405-1.928.507-2.942.507-1.42 3.753-1.623 7.202-1.42 9.433 3.753 3.146 8.521 4.77 13.288 4.77 4.463 0 8.826-1.422 12.58-4.262.607-.508 1.216-1.015 1.825-1.522-2.13 0-4.869-.1-8.014-.81-.203.202-.507.607-.913.912" fill="#59B3D8"/>
        <path d="M219.41 69.35c0 7.856-6.368 14.226-14.225 14.226-7.856 0-14.225-6.37-14.225-14.226 0-7.856 6.369-14.226 14.225-14.226 7.857 0 14.226 6.37 14.226 14.226" fill="#FFF"/>
        <path d="M205.295 78.859c-5.209 0-9.427-4.312-9.427-9.619 0-5.308 4.218-9.619 9.427-9.619 5.21 0 9.427 4.311 9.427 9.619 0 5.307-4.218 9.619-9.427 9.619m-.11-22.61c-7.084 0-12.818 5.859-12.818 13.101 0 7.242 5.734 13.102 12.818 13.102s12.817-5.86 12.817-13.102-5.733-13.101-12.817-13.101" fill="#E32419"/>
        <path d="M198.873 73.717c.055.056.083.11.138.14.055.026.138.082.193.11l-.331-.25z" fill="#E32419"/>
        <path d="M204.276 76.88a8.19 8.19 0 01-6.716-3.474c1.502 2.795 4.467 4.638 7.708 4.638 2.988 0 5.82-1.58 7.426-4.135l-1.477-.846c-1.534 2.392-4.118 3.817-6.941 3.817" fill="#E32419"/>
        <path d="M210.981 68.478c-.163 3.9-3.474 7.048-7.45 7.048a7.602 7.602 0 01-3.127-.672 7.051 7.051 0 003.9 1.173c2.753 0 5.307-1.626 6.507-4.144l.068-.144 2.29 1.272a8.747 8.747 0 00.852-3.8c0-.249-.02-.503-.04-.733h-3z" fill="#E32419"/>
        <path d="M210.135 68.4c0-.063.006-.144.014-.225a2.17 2.17 0 00.013-.207v-.339l3.692-.11c-.308-1.597-1.013-3.04-2.048-4.19l-2.907 2.012c.276.698.405 1.563.405 2.71 0 2.783-1.605 5.167-4.018 6.251 2.645-.757 4.649-3.08 4.849-5.903" fill="#E32419"/>
    </g>
</svg>
