<svg xmlns="http://www.w3.org/2000/svg" height="348.129" width="746.468" viewBox="0 0 746.468 348.129">
    <line x1="101.758" y1="158.68" x2="64.754" y2="158.68" fill="none" stroke="#b5b6b6" stroke-miterlimit="10" stroke-width="1.5" />
    <polygon points="100.335 153.818 108.754 158.68 100.335 163.542 100.335 153.818" fill="#b5b6b6" />
    <line x1="216.758" y1="158.68" x2="179.754" y2="158.68" fill="none" stroke="#b5b6b6" stroke-miterlimit="10" stroke-width="1.5" />
    <polygon points="215.335 153.818 223.754 158.68 215.335 163.542 215.335 153.818" fill="#b5b6b6" />
    <line x1="327.758" y1="158.68" x2="290.754" y2="158.68" fill="none" stroke="#b5b6b6" stroke-miterlimit="10" stroke-width="1.5" />
    <polygon points="326.335 153.818 334.754 158.68 326.335 163.542 326.335 153.818" fill="#b5b6b6" />
    <line x1="574.754" y1="158.68" x2="529.754" y2="158.68" fill="none" stroke="#b5b6b6" stroke-miterlimit="10" stroke-width="1.5" />
    <line x1="574.148" y1="102.177" x2="574.148" y2="239.183" fill="none" stroke="#b5b6b6" stroke-miterlimit="10" stroke-width="1.5" />
    <polygon points="569.287 103.599 574.148 95.18 579.01 103.599 569.287 103.599" fill="#b5b6b6" />
    <polygon points="569.287 237.761 574.148 246.18 579.01 237.761 569.287 237.761" fill="#b5b6b6" />
    <polyline points="165.758 27.68 143.754 27.68 143.754 112.599" fill="none" stroke="#b5b6b6" stroke-miterlimit="10" stroke-width="1.5" />
    <polygon points="164.335 22.818 172.754 27.68 164.335 32.542 164.335 22.818" fill="#b5b6b6" />
    <polygon points="138.893 111.176 143.754 119.596 148.616 111.176 138.893 111.176" fill="#b5b6b6" />
    <polyline points="612.846 15.68 714.064 15.68 714.064 104.214" fill="none" stroke="#b5b6b6" stroke-miterlimit="10" stroke-width="1.5" />
    <polygon points="709.202 102.792 714.064 111.211 718.926 102.792 709.202 102.792" fill="#b5b6b6" />
    <polyline points="619.843 29.47 699.064 29.47 699.064 111.211" fill="none" stroke="#b5b6b6" stroke-miterlimit="10" stroke-width="1.5" />
    <polygon points="621.266 34.331 612.846 29.47 621.266 24.608 621.266 34.331" fill="#b5b6b6" />
    <polyline points="612.846 293.304 714.064 293.304 714.064 230.385" fill="none" stroke="#b5b6b6" stroke-miterlimit="10" stroke-width="1.5" />
    <polygon points="718.926 231.807 714.064 223.388 709.202 231.807 718.926 231.807" fill="#b5b6b6" />
    <polyline points="619.843 278.304 699.064 278.304 699.064 223.388" fill="none" stroke="#b5b6b6" stroke-miterlimit="10" stroke-width="1.5" />
    <polygon points="621.266 283.165 612.846 278.304 621.266 273.442 621.266 283.165" fill="#b5b6b6" />
    <text transform="translate(629.007 8.501)" font-size="10" fill="#5e5e5e" font-family="SegoeUI, Segoe UI"><tspan letter-spacing="-0.098em">T</tspan><tspan x="4.263" y="0">oken</tspan></text>
    <text transform="translate(629.007 308.596)" font-size="10" fill="#5e5e5e" font-family="SegoeUI, Segoe UI"><tspan letter-spacing="-0.098em">T</tspan><tspan x="4.263" y="0">oken</tspan></text>
    <text transform="translate(631.584 47.096)" font-size="10" fill="#5e5e5e" font-family="SegoeUI, Segoe UI">License/<tspan x="36.006" y="0" letter-spacing="-0.013em">K</tspan><tspan x="41.675" y="0">ey</tspan></text>
    <text transform="translate(631.584 270.221)" font-size="10" fill="#5e5e5e" font-family="SegoeUI, Segoe UI">License/<tspan x="36.006" y="0" letter-spacing="-0.013em">K</tspan><tspan x="41.675" y="0">ey</tspan></text>
    <text transform="translate(114.399 197.149)" font-size="12" fill="#5e5e5e" font-family="SegoeUI, Segoe UI">Azure Blob<tspan x="8.429" y="14.4" letter-spacing="-0.032em">S</tspan><tspan x="14.417" y="14.4">torage</tspan></text>
    <path d="M120.333,177.331a1.88,1.88,0,0,0,1.8,1.9h46.3a1.9,1.9,0,0,0,1.9-1.9v-33.1h-50Z" transform="translate(-2.154 -1.285)" fill="#9fa0a2" />
    <path d="M168.433,136.531h-46.3a1.88,1.88,0,0,0-1.8,1.9v5.7h50v-5.7a1.9,1.9,0,0,0-1.9-1.9" transform="translate(-2.154 -1.285)" fill="#7c7b7b" />
    <rect x="121.88" y="146.346" width="20.4" height="13" fill="#2272b9" />
    <rect x="121.88" y="161.146" width="20.4" height="13" fill="#2272b9" />
    <rect x="144.08" y="146.346" width="20.3" height="13" fill="#fff" />
    <rect x="144.08" y="161.146" width="20.3" height="13" fill="#2272b9" />
    <path d="M122.333,136.531a2.006,2.006,0,0,0-2,2v38.6a2.006,2.006,0,0,0,2,2h2.2l39.4-42.6Z" transform="translate(-2.154 -1.285)" fill="#fff" opacity="0.2" style="isolation:isolate" />
    <text transform="translate(229.326 197.149)" font-size="12" fill="#5e5e5e" font-family="SegoeUI, Segoe UI"><tspan letter-spacing="-0.032em">S</tspan><tspan x="5.988" y="0">treaming</tspan><tspan x="2.965" y="14.4">Endpoint</tspan></text>
    <path d="M281.333,173.611a5.52,5.52,0,0,1-5.52,5.52h-34.96a5.52,5.52,0,0,1-5.52-5.52v-34.96a5.52,5.52,0,0,1,5.52-5.52h34.96a5.52,5.52,0,0,1,5.52,5.52Z" transform="translate(-2.154 -1.285)" fill="#5bb4da" />
    <path d="M248.213,179.131h-7.36a5.52,5.52,0,0,1-5.52-5.52v-34.96a5.52,5.52,0,0,1,5.52-5.52h31.28Z" transform="translate(-2.154 -1.285)" fill="#fff" opacity="0.15" style="isolation:isolate" />
    <path d="M250.053,168.4V143.865l19.6,12.279Z" transform="translate(-2.154 -1.285)" fill="#fff" />
    <rect x="228.662" y="128.632" width="55.184" height="88.048" fill="#b9539f" opacity="0" />
    <text transform="translate(321.163 197.149)" font-size="12" fill="#5e5e5e" font-family="SegoeUI, Segoe UI">Multi-Protocol <tspan x="15.422" y="14.4">Dynamic </tspan><tspan x="10.749" y="28.8" letter-spacing="-0.034em">P</tspan><tspan x="17.06" y="28.8">ackaging/</tspan><tspan x="10.711" y="43.2">Multi-DRM</tspan></text>
    <path d="M377.186,155.444h0v-1.671a12.434,12.434,0,0,0-3.342-8.658c-1.975-2.278-6.379-3.721-9.645-3.721s-7.67,1.443-9.645,3.721a12.785,12.785,0,0,0-3.342,8.658v1.671h0l6,.683v-1.519a9.68,9.68,0,0,1,1.823-5.772c1.139-1.291,3.569-1.9,5.164-1.975a7.7,7.7,0,0,1,5.164,1.975,7.253,7.253,0,0,1,1.823,4.86v2.43Z" transform="translate(-2.154 -1.285)" fill="#3f3f3f" />
    <path d="M351.214,155.444h0c-2.962,0-4.025,1.747-4.025,4.025v15.872c0,1.975,1.215,4.025,3.493,4.025h27.036c2.582,0,3.493-2.05,3.493-4.025V159.469c0-2.05-.835-4.025-4.025-4.025H351.214Z" transform="translate(-2.154 -1.285)" fill="#5bb4da" />
    <polygon points="359.29 159.855 367.644 165.411 359.29 170.967 359.29 159.855" fill="#fff" />
    <path d="M371.111,155.444h-19.9c-2.962,0-4.025,1.747-4.025,4.025v15.872c0,1.975,1.215,4.025,3.493,4.025h5.088Z" transform="translate(-2.154 -1.285)" fill="#fff" opacity="0.15" style="isolation:isolate" />
    <line x1="427.758" y1="158.68" x2="389.754" y2="158.68" fill="none" stroke="#b5b6b6" stroke-miterlimit="10" stroke-width="1.5" />
    <polygon points="426.335 153.818 434.754 158.68 426.335 163.542 426.335 153.818" fill="#b5b6b6" />
    <text transform="translate(168.859 70.483)" font-size="12" fill="#5e5e5e" font-family="SegoeUI, Segoe UI">Azure Encoder<tspan x="5.584" y="14.4">(</tspan><tspan x="9.205" y="14.4" letter-spacing="-0.032em">S</tspan><tspan x="15.193" y="14.4">tandard or</tspan><tspan x="12.741" y="28.8">Premium)</tspan></text>
    <path d="M219.023,45.982h-18.9a3.521,3.521,0,0,1,0-7.042h18.9a4.544,4.544,0,0,0,4.539-4.539V16.056a4.544,4.544,0,0,0-4.539-4.539h-18.9a3.521,3.521,0,0,1,0-7.042h18.9A11.594,11.594,0,0,1,230.6,16.056V34.4A11.594,11.594,0,0,1,219.023,45.982Z" transform="translate(-2.154 -1.285)" fill="#3f3f3f" />
    <rect x="192.224" y="48.96" width="19.056" height="1.76" fill="#3f3f3f" />
    <rect x="198.232" y="50.72" width="7.042" height="2.47" fill="#3f3f3f" />
    <rect x="200.872" y="10.232" width="1.76" height="40.489" fill="#3f3f3f" />
    <rect x="185.909" y="23.554" width="28.166" height="7.922" fill="#618dc9" />
    <rect x="191.19" y="15.633" width="19.364" height="7.922" fill="#5bb4da" />
    <rect x="198.232" y="12.992" width="7.042" height="2.641" fill="#676767" />
    <rect x="198.232" y="31.476" width="7.042" height="2.47" fill="#676767" />
    <path d="M551,45.634a2.007,2.007,0,0,0,2.007,2.007h45.986A2.007,2.007,0,0,0,601,45.634V14.3H551Z" transform="translate(-2.154 -1.285)" fill="#5bb4da" />
    <path d="M598.993,5.007H553.007A2.006,2.006,0,0,0,551,7.014V17.641h50V7.014a2.007,2.007,0,0,0-2.007-2.007" transform="translate(-2.154 -1.285)" fill="#9fa0a2" />
    <path d="M553.014,5.007a2.007,2.007,0,0,0-2.007,2.007v38.62a2.008,2.008,0,0,0,2.007,2.007H555.2L594.62,5.007Z" transform="translate(-2.154 -1.285)" fill="#fff" opacity="0.2" style="isolation:isolate" />
    <rect x="561.703" y="8.501" width="33.671" height="3.942" fill="#fff" />
    <path d="M562.31,11.69a4.878,4.878,0,1,1-4.878-4.879,4.879,4.879,0,0,1,4.878,4.879" transform="translate(-2.154 -1.285)" fill="#5bb4da" />
    <polygon points="554.762 10.954 556.975 13.29 555.774 13.29 552.815 10.472 555.763 7.654 556.961 7.654 554.762 9.976 560.155 9.976 560.155 10.954 554.762 10.954" fill="#fff" />
    <text transform="translate(522.852 70.596)" font-size="12" fill="#5e5e5e" font-family="SegoeUI, Segoe UI">Azure Media Player<tspan x="23.408" y="14.4">in Browser</tspan></text>
    <circle cx="574.148" cy="30.68" r="11.52" fill="#5bb4da" />
    <path d="M568.156,40.111a11.52,11.52,0,0,1,16.292-16.292Z" transform="translate(-2.154 -1.285)" fill="#fff" opacity="0.15" style="isolation:isolate" />
    <polygon points="571.464 35.614 571.482 25.747 579.346 30.685 571.464 35.614" fill="#fff" />
    <path d="M576.3,22.187a9.778,9.778,0,1,1-9.778,9.778,9.778,9.778,0,0,1,9.778-9.778m0-2.222a12,12,0,1,0,12,12,12.014,12.014,0,0,0-12-12Z" transform="translate(-2.154 -1.285)" fill="#3f3f3f" />
    <rect x="520.975" y="1.95" width="101.871" height="84.23" fill="#b9539f" opacity="0" />
    <text transform="translate(522.577 328.796)" font-size="12" fill="#5e5e5e" font-family="SegoeUI, Segoe UI">Azure Media Player<tspan x="13.512" y="14.4">in Mobile App</tspan></text>
    <path d="M593.222,306.859a3,3,0,0,1-3,3H561.778a3,3,0,0,1-3-3v-44a3,3,0,0,1,3-3h28.445a3,3,0,0,1,3,3Z" transform="translate(-2.154 -1.285)" fill="#3f3f3f" />
    <rect x="558.848" y="263.574" width="30" height="35.222" fill="#5bb4da" />
    <path d="M578.889,304.969A2.889,2.889,0,1,1,576,302.08a2.889,2.889,0,0,1,2.89,2.889" transform="translate(-2.154 -1.285)" fill="#fff" />
    <path d="M577.895,304.969a1.894,1.894,0,1,1-1.9-1.894,1.9,1.9,0,0,1,1.9,1.894" transform="translate(-2.154 -1.285)" fill="#b8d433" />
    <path d="M561,300.081V264.859h22.767l2.031-5H561.778a3,3,0,0,0-3,3v44a3,3,0,0,0,3,3h3.695l3.974-9.778Z" transform="translate(-2.154 -1.285)" fill="#fff" opacity="0.15" style="isolation:isolate" />
    <path d="M581.111,262.676a.737.737,0,0,1-.738.738h-8.744a.739.739,0,1,1,0-1.477h8.744a.738.738,0,0,1,.738.739" transform="translate(-2.154 -1.285)" fill="#1e1e1e" />
    <path d="M581.111,262.676a.737.737,0,0,1-.738.738h-8.744a.739.739,0,1,1,0-1.477h8.744a.738.738,0,0,1,.738.739" transform="translate(-2.154 -1.285)" fill="#fff" />
    <circle cx="574.148" cy="281.304" r="11.52" fill="#5bb4da" />
    <path d="M568.156,290.734a11.52,11.52,0,0,1,16.292-16.292Z" transform="translate(-2.154 -1.285)" fill="#fff" opacity="0.15" style="isolation:isolate" />
    <polygon points="571.464 286.237 571.482 276.37 579.346 281.309 571.464 286.237" fill="#fff" />
    <path d="M576.3,272.811a9.778,9.778,0,1,1-9.778,9.778,9.778,9.778,0,0,1,9.778-9.778m0-2.222a12,12,0,1,0,12,12,12.014,12.014,0,0,0-12-12Z" transform="translate(-2.154 -1.285)" fill="#3f3f3f" />
    <rect x="521.975" y="258.18" width="101.871" height="87" fill="#b9539f" opacity="0" />
    <text transform="translate(676.625 183.66)" font-size="12" fill="#5e5e5e" font-family="SegoeUI, Segoe UI">Cloud DRM<tspan x="-0.606" y="14.4">License/</tspan><tspan x="42.601" y="14.4" letter-spacing="-0.013em">K</tspan><tspan x="49.403" y="14.4">ey</tspan><tspan x="-8.965" y="28.8">Delivery Server</tspan></text>
    <path d="M731.618,147.431a22.453,22.453,0,0,0-8.8-17.8v.7a13.743,13.743,0,0,1-1.5,6.1,16.294,16.294,0,1,1-28.4,10.9,16.426,16.426,0,0,1,4.7-11.5,13.161,13.161,0,0,1-1.3-5.6,5.7,5.7,0,0,1,.1-1.3,22.44,22.44,0,1,0,35.2,18.5Z" transform="translate(-2.154 -1.285)" fill="#7fbb42" />
    <path d="M709.518,119.831a10.31,10.31,0,0,0-2.9,20.2v10.2h-4.8v5.2h4.8v3.8h5.7v-19.3a10.23,10.23,0,0,0,7.4-9.9A10.115,10.115,0,0,0,709.518,119.831Zm0,5.4a4.9,4.9,0,1,1-4.9,4.9A4.908,4.908,0,0,1,709.518,125.231Z" transform="translate(-2.154 -1.285)" fill="#fbd118" />
    <text transform="translate(453.719 197.559)" font-size="12" fill="#5e5e5e" font-family="SegoeUI, Segoe UI">Azure CDN</text>
    <path d="M498.853,156.467h-39.9a3.009,3.009,0,0,1-3-3h0a3.009,3.009,0,0,1,3-3h39.9a3.009,3.009,0,0,1,3,3h0A3.009,3.009,0,0,1,498.853,156.467Z" transform="translate(-2.154 -1.285)" fill="#7c7b7b" />
    <path d="M490.753,181.517h-36.9a3.009,3.009,0,0,1-3-3h0a3.009,3.009,0,0,1,3-3h36.9a3.009,3.009,0,0,1,3,3h0A3.009,3.009,0,0,1,490.753,181.517Z" transform="translate(-2.154 -1.285)" fill="#7c7b7b" />
    <path d="M486.4,169.367H449.5a3.009,3.009,0,0,1-3-3h0a3.009,3.009,0,0,1,3-3h36.9a3.009,3.009,0,0,1,3,3h0A3.009,3.009,0,0,1,486.4,169.367Z" transform="translate(-2.154 -1.285)" fill="#7c7b7b" />
    <path d="M521.5,175.067a6.371,6.371,0,0,0-6.3-6.45h-.9a20.411,20.411,0,0,0,.6-4.5,16.869,16.869,0,0,0-16.8-16.8,17.071,17.071,0,0,0-15.9,11.4,15.081,15.081,0,0,0-3.75-.6,11.7,11.7,0,0,0,0,23.4H515.5a6.626,6.626,0,0,0,6-6.45" transform="translate(-2.154 -1.285)" fill="#3999c7" />
    <path d="M484.453,181.367a10.682,10.682,0,0,1-3.15-5.7,11.275,11.275,0,0,1,12.45-13.95,16.334,16.334,0,0,1,9.45-13.5,19.139,19.139,0,0,0-5.1-.9,17.071,17.071,0,0,0-15.9,11.4,15.081,15.081,0,0,0-3.75-.6,11.7,11.7,0,0,0,0,23.4h0l6-.15Z" transform="translate(-2.154 -1.285)" fill="#fff" opacity="0.2" style="isolation:isolate" />
    <rect x="444.9" y="144.021" width="75.26" height="55" fill="#b9539f" opacity="0" />
    <text transform="translate(1.461 197.149)" font-size="12" fill="#5e5e5e" font-family="SegoeUI, Segoe UI">Mezzanine<tspan x="-0.144" y="14.4">Video Files</tspan></text>
    <polygon points="52.246 149.046 48.346 145.146 46.646 143.546 46.446 143.546 17.846 143.546 17.846 181.546 53.846 181.546 53.846 150.946 53.846 150.746 52.246 149.046" fill="#5bb4da" />
    <polygon points="45.846 145.546 19.846 145.546 19.846 179.546 51.846 179.546 51.846 151.546 45.846 151.546 45.846 145.546" fill="#fff" opacity="0.8" style="isolation:isolate" />
    <path d="M27,171.931a.9.9,0,0,1,.9-.9H40.3a.9.9,0,0,1,0,1.8H27.9a.9.9,0,0,1-.9-.9" transform="translate(-2.154 -1.285)" fill="#5bb4da" />
    <path d="M27,165.731a.9.9,0,0,1,.9-.9H48.4a.9.9,0,1,1,0,1.8H27.9a.9.9,0,0,1-.9-.9" transform="translate(-2.154 -1.285)" fill="#5bb4da" />
    <path d="M27,159.931a.9.9,0,0,1,.9-.9H48.4a.9.9,0,1,1,0,1.8H27.9a.9.9,0,0,1-.9-.9" transform="translate(-2.154 -1.285)" fill="#5bb4da" />
    <rect x="7.846" y="131.546" width="29" height="6" fill="#5bb4da" />
    <rect x="5.846" y="131.546" width="6" height="40" fill="#5bb4da" />
    <polygon points="9.846 133.546 7.846 133.546 7.846 169.546 11.846 169.546 11.846 137.546 34.846 137.546 34.846 133.546 9.846 133.546" fill="#fff" opacity="0.8" style="isolation:isolate" />
    <rect x="13.846" y="137.546" width="29" height="6" fill="#5bb4da" />
    <rect x="11.846" y="137.546" width="6" height="38" fill="#5bb4da" />
    <polygon points="15.846 139.546 13.846 139.546 13.846 173.546 17.846 173.546 17.846 143.546 40.846 143.546 40.846 139.546 15.846 139.546" fill="#fff" opacity="0.8" style="isolation:isolate" />
    <path d="M73.75,128.13h0v-1.1a8.186,8.186,0,0,0-2.2-5.7c-1.3-1.5-4.2-2.45-6.35-2.45s-5.05.95-6.35,2.45a8.417,8.417,0,0,0-2.2,5.7v1.1h0l3.95.45v-1a6.373,6.373,0,0,1,1.2-3.8,5.33,5.33,0,0,1,3.4-1.3,5.07,5.07,0,0,1,3.4,1.3,4.776,4.776,0,0,1,1.2,3.2v1.6Z" transform="translate(-2.154 -1.285)" fill="#3f3f3f" />
    <path d="M56.65,128.13h0A2.372,2.372,0,0,0,54,130.78v10.45a2.44,2.44,0,0,0,2.3,2.65H74.1c1.7,0,2.3-1.35,2.3-2.65V130.78a2.363,2.363,0,0,0-2.65-2.65H56.65Z" transform="translate(-2.154 -1.285)" fill="#5bb4da" />
    <polygon points="61.232 130.596 66.732 134.254 61.232 137.911 61.232 130.596" fill="#fff" />
    <path d="M69.75,128.13H56.65A2.372,2.372,0,0,0,54,130.78v10.45a2.44,2.44,0,0,0,2.3,2.65h3.35Z" transform="translate(-2.154 -1.285)" fill="#fff" opacity="0.15" style="isolation:isolate" />
    <rect y="116.546" width="75.246" height="97.149" fill="#b9539f" opacity="0" />
</svg>
