<?xml version="1.0" encoding="utf-8"?>
<!-- Generator: Adobe Illustrator 19.2.1, SVG Export Plug-In . SVG Version: 6.00 Build 0)  -->
<svg version="1.1" id="Layer_1" xmlns="http://www.w3.org/2000/svg" xmlns:xlink="http://www.w3.org/1999/xlink" x="0px" y="0px" width="69.334px" height="80px" viewBox="0 0 69.334 80" enable-background="new 0 0 69.334 80" xml:space="preserve">
<polygon fill="#3999C6" points="69.334,71.782 69.331,71.781 67.555,19.782 63.518,19.782 63.518,19.782 58.667,19.782   58.667,19.782 1.778,19.782 0,75.368 58.667,80 58.667,80 63.518,76.262 " />
<polygon opacity="0.3" fill="#FFFFFF" enable-background="new    " points="63.518,19.782 58.667,19.782 58.667,80 63.518,70.952   " />
<polygon opacity="0.2" fill="#1E1E1E" enable-background="new    " points="63.555,70.883 63.518,70.952 58.667,80 63.518,76.262   69.334,71.782 " />
<path fill="#FFFFFF" d="M48.059,54.735c0.014-2.471-1.979-4.486-4.45-4.5c-0.002,0-0.004,0-0.006,0  c-0.182,0-0.364,0.013-0.544,0.038c0.279-1.034,0.421-2.099,0.422-3.17c0.063-6.556-5.202-11.922-11.758-11.984  c-5.175-0.049-9.785,3.259-11.396,8.176c-0.852-0.302-1.749-0.457-2.653-0.458c-4.526,0.158-8.067,3.955-7.909,8.481  c0.15,4.304,3.604,7.759,7.909,7.909h0.011l0,0h26.278v-0.022c2.325-0.194,4.11-2.142,4.1-4.475" />
<path fill="#A0A1A2" d="M32.649,10.816c0.306-4.222,3.976-7.397,8.198-7.092c3.797,0.275,6.817,3.295,7.092,7.092v8.966h3.674  v-8.966c-0.277-6.25-5.568-11.092-11.818-10.815c-5.862,0.26-10.556,4.953-10.815,10.815v8.966h3.67V10.816z" />
<path fill="#7A7A7A" d="M21.39,10.816c0.302-4.223,3.97-7.402,8.193-7.1c3.803,0.272,6.828,3.297,7.1,7.1v8.966h3.67v-8.966  c-0.277-6.25-5.568-11.092-11.818-10.815c-5.862,0.26-10.556,4.953-10.815,10.815v8.966h3.67L21.39,10.816L21.39,10.816z" />
</svg>