<?xml version="1.0" encoding="UTF-8" standalone="no"?>
<!DOCTYPE svg PUBLIC "-//W3C//DTD SVG 1.1//EN" "http://www.w3.org/Graphics/SVG/1.1/DTD/svg11.dtd">
<!-- Generated by Microsoft Visio, SVG Export facilities-management-powered-by-mixed-reality-and-iot.svg facilities-management -->
<svg xmlns="http://www.w3.org/2000/svg" xmlns:xlink="http://www.w3.org/1999/xlink" xmlns:ev="http://www.w3.org/2001/xml-events"
		width="9.6875in" height="6in" viewBox="0 0 697.5 432" xml:space="preserve" color-interpolation-filters="sRGB" class="st51">
	<style type="text/css">
	<![CDATA[
		.st1 {fill:#ffffff;stroke:none;stroke-width:0.25}
		.st2 {fill:#eaeaea;stroke:#f2f2f2;stroke-width:0.25}
		.st3 {fill:url(#grad0-11);stroke:none;stroke-linecap:butt;stroke-width:0.75}
		.st4 {fill:#0078d4;stroke:none;stroke-linecap:butt;stroke-width:0.75}
		.st5 {fill:#000000;fill-opacity:0.5;stroke:none;stroke-linecap:butt;stroke-width:0.75}
		.st6 {fill:#000000;fill-opacity:0.25;stroke:none;stroke-linecap:butt;stroke-width:0.75}
		.st7 {fill:url(#grad0-27);stroke:none;stroke-linecap:butt;stroke-width:0.75}
		.st8 {fill:none;stroke:none;stroke-width:0.25}
		.st9 {fill:#7f7f7f;font-family:Segoe UI Semibold;font-size:1.16666em}
		.st10 {font-size:1em}
		.st11 {fill:#50e6ff;stroke:none;stroke-linecap:butt;stroke-width:0.75}
		.st12 {fill:#ffffff;stroke:none;stroke-linecap:butt;stroke-width:0.75}
		.st13 {fill:url(#grad0-42);stroke:none;stroke-linecap:butt;stroke-width:0.75}
		.st14 {fill:#53b1e0;stroke:none;stroke-linecap:butt;stroke-width:0.75}
		.st15 {fill:#9cebff;stroke:none;stroke-linecap:butt;stroke-width:0.75}
		.st16 {fill:url(#grad0-50);stroke:none;stroke-linecap:butt;stroke-width:0.75}
		.st17 {fill:#000000;font-family:Segoe UI;font-size:0.916672em}
		.st18 {fill:#50e6ff;stroke:none;stroke-linecap:butt;stroke-width:34}
		.st19 {fill:#1490df;stroke:none;stroke-linecap:butt;stroke-width:34}
		.st20 {fill:url(#grad0-75);stroke:none;stroke-linecap:butt;stroke-width:34}
		.st21 {fill:url(#grad0-90);stroke:none;stroke-linecap:butt;stroke-width:0.75}
		.st22 {fill:url(#grad0-100);stroke:none;stroke-linecap:butt;stroke-width:0.75}
		.st23 {fill:#949494;stroke:none;stroke-linecap:butt;stroke-width:0.75}
		.st24 {fill:url(#grad0-117);stroke:none;stroke-linecap:butt;stroke-width:0.75}
		.st25 {fill:#50e6ff;stroke:none;stroke-linecap:butt;stroke-width:33.0147}
		.st26 {fill:url(#grad7-138);stroke:none;stroke-linecap:butt;stroke-width:0.799129}
		.st27 {fill:#f2f2f2;stroke:none;stroke-linecap:butt;stroke-width:33.0147}
		.st28 {fill:url(#grad0-157);stroke:none;stroke-linecap:butt;stroke-width:0.75}
		.st29 {fill:#f2f2f2;stroke:none;stroke-linecap:butt;stroke-width:0.75}
		.st30 {fill:url(#grad0-163);stroke:none;stroke-linecap:butt;stroke-width:0.75}
		.st31 {fill:#005ba1;stroke:none;stroke-linecap:butt;stroke-width:0.75}
		.st32 {fill:#5ea0ef;stroke:none;stroke-linecap:butt;stroke-width:0.75}
		.st33 {fill:#76bc2d;stroke:none;stroke-linecap:butt;stroke-width:33.9998}
		.st34 {fill:#86d633;stroke:none;stroke-linecap:butt;stroke-width:33.9998}
		.st35 {fill:#999999;stroke:none;stroke-linecap:butt;stroke-width:33.9998}
		.st36 {fill:#999999;fill-opacity:0.5;stroke:none;stroke-linecap:butt;stroke-width:33.9998}
		.st37 {fill:#949494;stroke:none;stroke-linecap:butt;stroke-width:33.9998}
		.st38 {fill:url(#grad0-236);stroke:none;stroke-linecap:butt;stroke-width:0.75}
		.st39 {fill:url(#grad0-240);stroke:none;stroke-linecap:butt;stroke-width:0.75}
		.st40 {fill:url(#grad0-244);stroke:none;stroke-linecap:butt;stroke-width:0.75}
		.st41 {fill:#000000;font-family:Segoe UI Semibold;font-size:0.916672em}
		.st42 {marker-end:url(#mrkr4-263);stroke:#000000;stroke-linecap:butt;stroke-width:1.5}
		.st43 {fill:#000000;fill-opacity:1;stroke:#000000;stroke-opacity:1;stroke-width:0.37313432835821}
		.st44 {marker-end:url(#mrkr4-263);marker-start:url(#mrkr4-280);stroke:#000000;stroke-linecap:butt;stroke-width:1.5}
		.st45 {marker-start:url(#mrkr4-280);stroke:#000000;stroke-linecap:butt;stroke-width:1.5}
		.st46 {marker-end:url(#mrkr4-263);stroke:#000000;stroke-linecap:round;stroke-linejoin:round;stroke-width:1.5}
		.st47 {fill:#107c10;stroke:none;stroke-width:1.5}
		.st48 {fill:#ffffff;font-family:Segoe UI;font-size:0.916672em}
		.st49 {fill:#000000;stroke:none;stroke-linecap:butt;stroke-width:0.75}
		.st50 {fill:#0078d7;stroke:none;stroke-linecap:butt;stroke-width:0.75}
		.st51 {fill:none;fill-rule:evenodd;font-size:12px;overflow:visible;stroke-linecap:square;stroke-miterlimit:3}
	]]>
	</style>

	<defs id="Patterns_And_Gradients">
		<linearGradient id="grad0-11" x1="0" y1="0" x2="1" y2="0" gradientTransform="rotate(116.95960434515 0.5 0.5)">
			<stop offset="0" stop-color="#114a8b" stop-opacity="1"/>
			<stop offset="1" stop-color="#0669bc" stop-opacity="1"/>
		</linearGradient>
		<linearGradient id="grad0-27" x1="0" y1="0" x2="1" y2="0" gradientTransform="rotate(61.849084498542 0.5 0.5)">
			<stop offset="0" stop-color="#3ccbf4" stop-opacity="1"/>
			<stop offset="1" stop-color="#2892df" stop-opacity="1"/>
		</linearGradient>
		<linearGradient id="grad0-42" x1="0" y1="0" x2="1" y2="0" gradientTransform="rotate(-133.54829310906 0.5 0.5)">
			<stop offset="0" stop-color="#1988d9" stop-opacity="1"/>
			<stop offset="0.9" stop-color="#54aef0" stop-opacity="1"/>
		</linearGradient>
		<linearGradient id="grad0-50" x1="0" y1="0" x2="1" y2="0" gradientTransform="rotate(65.834982258294 0.5 0.5)">
			<stop offset="0.1" stop-color="#54aef0" stop-opacity="1"/>
			<stop offset="0.29" stop-color="#4fabee" stop-opacity="1"/>
			<stop offset="0.51" stop-color="#41a2e9" stop-opacity="1"/>
			<stop offset="0.74" stop-color="#2a93e0" stop-opacity="1"/>
			<stop offset="0.88" stop-color="#1988d9" stop-opacity="1"/>
		</linearGradient>
		<linearGradient id="grad0-75" x1="0" y1="0" x2="1" y2="0" gradientTransform="rotate(-90 0.5 0.5)">
			<stop offset="0" stop-color="#fea11b" stop-opacity="1"/>
			<stop offset="0.285" stop-color="#fea51a" stop-opacity="1"/>
			<stop offset="0.545" stop-color="#feb018" stop-opacity="1"/>
			<stop offset="0.8" stop-color="#ffc314" stop-opacity="1"/>
			<stop offset="1" stop-color="#ffd70f" stop-opacity="1"/>
		</linearGradient>
		<linearGradient id="grad0-90" x1="0" y1="0" x2="1" y2="0" gradientTransform="rotate(-90 0.5 0.5)">
			<stop offset="0" stop-color="#773adc" stop-opacity="1"/>
			<stop offset="1" stop-color="#b77af4" stop-opacity="1"/>
		</linearGradient>
		<linearGradient id="grad0-100" x1="0" y1="0" x2="1" y2="0" gradientTransform="rotate(90 0.5 0.5)">
			<stop offset="0" stop-color="#b77af4" stop-opacity="1"/>
			<stop offset="0.62" stop-color="#8c4fe4" stop-opacity="1"/>
			<stop offset="1" stop-color="#773adc" stop-opacity="1"/>
		</linearGradient>
		<linearGradient id="grad0-117" x1="0" y1="0" x2="1" y2="0" gradientTransform="rotate(90 0.5 0.5)">
			<stop offset="0.18" stop-color="#5ea0ef" stop-opacity="1"/>
			<stop offset="1" stop-color="#0078d4" stop-opacity="1"/>
		</linearGradient>
		<radialGradient id="grad7-138" cx="0" cy="0" r="1.4">
			<stop offset="0.185" stop-color="#5ea0ef" stop-opacity="1"/>
			<stop offset="1" stop-color="#0078d4" stop-opacity="1"/>
		</radialGradient>
		<linearGradient id="grad0-157" x1="0" y1="0" x2="1" y2="0" gradientTransform="rotate(-90 0.5 0.5)">
			<stop offset="0" stop-color="#0078d4" stop-opacity="1"/>
			<stop offset="0.165" stop-color="#1c84dc" stop-opacity="1"/>
			<stop offset="0.38" stop-color="#3990e4" stop-opacity="1"/>
			<stop offset="0.59" stop-color="#4d99ea" stop-opacity="1"/>
			<stop offset="0.8" stop-color="#5a9eee" stop-opacity="1"/>
			<stop offset="1" stop-color="#5ea0ef" stop-opacity="1"/>
		</linearGradient>
		<linearGradient id="grad0-163" x1="0" y1="0" x2="1" y2="0" gradientTransform="rotate(-90 0.5 0.5)">
			<stop offset="0" stop-color="#d2ebff" stop-opacity="1"/>
			<stop offset="0.995" stop-color="#f0fffd" stop-opacity="1"/>
		</linearGradient>
		<linearGradient id="grad0-236" x1="0" y1="0" x2="1" y2="0" gradientTransform="rotate(99.33049973538 0.5 0.5)">
			<stop offset="0" stop-color="#32bedd" stop-opacity="1"/>
			<stop offset="1" stop-color="#198ab3" stop-opacity="1"/>
		</linearGradient>
		<linearGradient id="grad0-240" x1="0" y1="0" x2="1" y2="0" gradientTransform="rotate(71.098329049756 0.5 0.5)">
			<stop offset="0" stop-color="#50e6ff" stop-opacity="1"/>
			<stop offset="0.995" stop-color="#32bedd" stop-opacity="1"/>
		</linearGradient>
		<linearGradient id="grad0-244" x1="0" y1="0" x2="1" y2="0" gradientTransform="rotate(29.36783521474 0.5 0.5)">
			<stop offset="0" stop-color="#ffffff" stop-opacity="1"/>
			<stop offset="1" stop-color="#9cebff" stop-opacity="1"/>
		</linearGradient>
	</defs>
	<defs id="Markers">
		<g id="lend4">
			<path d="M 2 1 L 0 0 L 2 -1 L 2 1 " style="stroke:none"/>
		</g>
		<marker id="mrkr4-263" class="st43" refX="-5.36" orient="auto" markerUnits="strokeWidth" overflow="visible">
			<use xlink:href="#lend4" transform="scale(-2.68,-2.68) "/>
		</marker>
		<marker id="mrkr4-280" class="st43" refX="5.12" orient="auto" markerUnits="strokeWidth" overflow="visible">
			<use xlink:href="#lend4" transform="scale(2.68) "/>
		</marker>
	</defs>
	<g>
		<title>VBackground-1</title>
		<g id="shape1000-1">
			<title>Solid.1000</title>
			<rect x="0" y="0" width="697.5" height="432" class="st1"/>
		</g>
	</g>
	<g>
		<title>facilities-management</title>
		<g id="shape1131-3" transform="translate(27,-72.5625)">
			<title>Sheet.1131</title>
			<rect x="0" y="194.062" width="117" height="237.938" class="st2"/>
		</g>
		<g id="group1000-5" transform="translate(35.1862,-18)">
			<title>logo.1359</title>
			<g id="group1001-6" transform="translate(0,-4.5)">
				<title>Azure.1002</title>
				<g id="group1002-7">
					<title>Sheet.1002</title>
					<g id="shape1003-8">
						<title>Sheet.1003</title>
						<path d="M11.96 396 L22.69 396 L11.57 430.79 A1.67987 1.77404 0 0 1 9.98 432 L1.59 432 A1.67905 1.77317 0
									 0 1 0 429.66 L10.37 397.21 A1.6774 1.77143 0 0 1 11.96 396 Z" class="st3"/>
					</g>
					<g id="shape1004-12" transform="translate(9.14148,5.68434E-14)">
						<title>Sheet.1004</title>
						<path d="M17.63 418.67 L0.73 418.67 a0.781965 0.8258 -180 0 0 -0.533644 1.42843 L11.79 431.52 A1.67987 1.77404
									 -180 0 0 12.93 432 L22.51 432 L17.63 418.67 Z" class="st4"/>
					</g>
					<g id="group1005-14" transform="translate(12.9538,5.68434E-14)">
						<title>Sheet.1005</title>
						<g id="shape1006-15" transform="translate(7.38139,5.68434E-14)">
							<title>Sheet.1006</title>
							<path d="M3.43 432 L11.31 432 L6.43 418.67 L0 418.67 L3.72 430.29 A1.69796 1.79314 0 0 1 3.43 432 Z"
									class="st5"/>
						</g>
						<g id="shape1007-17" transform="translate(9.29257E-14,-20.9906)">
							<title>Sheet.1007</title>
							<path d="M4.94 432 L9.73 416.99 L0 416.99 A1.70042 1.79575 0 0 1 0.33 417.59 L4.94 432 Z" class="st5"/>
						</g>
					</g>
					<g id="group1008-19" transform="translate(12.3462,5.68434E-14)">
						<title>Sheet.1008</title>
						<g id="shape1009-20" transform="translate(0,-20.0024)">
							<title>Sheet.1009</title>
							<path d="M0 416 L5.23 432 L5.95 429.72 L1.58 416 L0 416 Z" class="st6"/>
						</g>
						<g id="shape1010-22" transform="translate(7.32219,5.68434E-14)">
							<title>Sheet.1010</title>
							<path d="M2.59 432 L4.85 432 A2.31876 2.44874 -180 0 0 4.98 430.07 L1.33 418.67 L0 418.67 L3.79 430.5
										 A1.07469 1.13493 0 0 1 2.77 432 L2.59 432 Z" class="st6"/>
						</g>
					</g>
					<g id="shape1011-24" transform="translate(12.088,5.68434E-14)">
						<title>Sheet.1011</title>
						<path d="M13.54 397.21 A1.6774 1.77143 -180 0 0 11.95 396 L0 396 A1.70454 1.80009 0 0 1 1.61 397.22 L11.97
									 429.63 A1.70371 1.79922 0 0 1 10.35 432 L22.32 432 A1.67905 1.77317 -180 0 0 23.91 429.66 L13.54
									 397.21 Z" class="st7"/>
					</g>
				</g>
			</g>
			<g id="shape1012-28" transform="translate(28.6277,5.68434E-14)">
				<title>Sheet.1012</title>
				<desc>Microsoft Azure</desc>
				<rect x="0" y="387" width="72" height="45" class="st8"/>
				<text x="5.5" y="405.3" class="st9">Microsoft <tspan x="17.66" dy="1.2em" class="st10">Azure</tspan></text>			</g>
		</g>
		<g id="group1013-32" transform="translate(272.094,-368.365)">
			<title>Azure Active Directory.1161</title>
			<desc>Azure Active Directory</desc>
			<g id="shape1014-33">
				<title>Sheet.1014</title>
				<path d="M1.92 416.07 L16.95 427.77 L32.25 416.03 L34.16 418.71 L16.95 432 L0 418.71 L1.92 416.07 Z" class="st11"/>
			</g>
			<g id="shape1015-35" transform="translate(3.05583,-6.66682)">
				<title>Sheet.1015</title>
				<path d="M0 421.24 L13.89 401.4 L28.07 421.26 L13.89 432 L0 421.24 Z" class="st12"/>
			</g>
			<g id="shape1016-37" transform="translate(3.05583,-6.66682)">
				<title>Sheet.1016</title>
				<path d="M13.89 401.4 L13.89 432 L0 421.24 L13.89 401.4 Z" class="st11"/>
			</g>
			<g id="shape1017-39" transform="translate(16.9494,-6.66682)">
				<title>Sheet.1017</title>
				<path d="M0 401.4 L0 432 L14.18 421.26 L0 401.4 Z" class="st13"/>
			</g>
			<g id="shape1018-43" transform="translate(16.9494,-6.66682)">
				<title>Sheet.1018</title>
				<path d="M0 417.21 L14.18 421.26 L0 432 L0 417.21 Z" class="st14"/>
			</g>
			<g id="shape1019-45" transform="translate(3.05583,-6.66682)">
				<title>Sheet.1019</title>
				<path d="M13.89 432 L0 421.24 L13.89 417.21 L13.89 432 Z" class="st15"/>
			</g>
			<g id="shape1020-47" transform="translate(16.9494,2.27374E-13)">
				<title>Sheet.1020</title>
				<path d="M0 432 L17.22 418.71 L15.3 416.03 L0 427.77 L0 432 Z" class="st16"/>
			</g>
			<g id="shape1013-51">
				<text x="-13.15" y="441.9" class="st17">Azure Active <tspan x="-5.1" dy="1.2em" class="st10">Directory</tspan></text>			</g>
		</g>
		<g id="group1110-54" transform="translate(591.638,-86.6836)">
			<title>Sheet.1110</title>
			<g id="group1070-55" transform="translate(10.1582,-19.6681)">
				<title>Sheet.1070</title>
				<g id="group1071-56">
					<title>Page-1</title>
					<g id="group1072-57">
						<title>Function App</title>
						<g id="group1073-58">
							<title>Sheet.1073</title>
							<g id="group1074-59" transform="translate(0.0046176,-7.47204)">
								<title>Sheet.1074</title>
								<g id="shape1075-60">
									<title>Sheet.1075</title>
									<path d="M11.62 430.56 L10.34 431.84 a0.639943 0.636119 180 0 1 -0.853257 0 L0.32 422.72 A1.29695
												 1.2892 180 0 1 0.32 421.03 L1.39 419.75 L11.62 429.93 a0.401031 0.398634 180 0 1
												 1.06581E-14 0.636119 L11.62 430.56 Z" class="st18"/>
								</g>
							</g>
							<g id="group1076-62" transform="translate(0,-15.6909)">
								<title>Sheet.1076</title>
								<g id="shape1077-63">
									<title>Sheet.1077</title>
									<path d="M10.14 420.13 L11.42 421.4 a0.639943 0.636119 180 0 1 8.88178E-15 0.848156 L1.6 432
												 L0.32 430.73 A1.27989 1.27224 180 0 1 0.32 429.03 L9.5 419.92 a0.782863 0.778183
												 180 0 1 0.643512 0.209988 Z" class="st19"/>
								</g>
							</g>
							<g id="group1078-65" transform="translate(26.3997,-7.26002)">
								<title>Sheet.1078</title>
								<g id="shape1079-66">
									<title>Sheet.1079</title>
									<path d="M10.4 419.54 L11.69 420.81 A1.29695 1.2892 180 0 1 11.69 422.51 L2.3 431.84 a0.639943
												 0.636119 180 0 1 -0.853257 0 L0.16 430.56 a0.639943 0.636119 180 0 1 -6.38378E-15
												 -0.848156 L10.4 419.54 Z" class="st18"/>
								</g>
							</g>
							<g id="group1080-68" transform="translate(26.3997,-15.6909)">
								<title>Sheet.1080</title>
								<g id="shape1081-69">
									<title>Sheet.1081</title>
									<path d="M11.47 430.73 L10.19 432 L0.16 422.04 a0.639943 0.636119 180 0 1 -2.38698E-15 -0.848156
												 L1.44 419.92 a0.639943 0.636119 180 0 1 0.853257 0 L11.47 429.03 A1.27989 1.27224
												 180 0 1 11.47 430.73 Z" class="st19"/>
								</g>
							</g>
							<g id="group1082-71" transform="translate(9.49793,5.68434E-14)">
								<title>Sheet.1082</title>
								<g id="shape1083-72">
									<title>Sheet.1083</title>
									<path d="M8.11 416.31 L0.43 416.31 a0.458625 0.455885 180 0 1 -0.426628 -0.424079 L0 415.68 L9.17
												 397.65 C9.39 397.65 9.39 397.44 9.6 397.44 L18.56 397.44 a0.458625 0.455885 180
												 0 1 0.426628 0.424079 L18.99 398.07 L8.32 412.28 L18.77 412.28 a0.458625 0.455885
												 180 0 1 0.426628 0.424079 a0.213314 0.212039 180 0 1 -0.213314 0.212039 L1.49 430.94
												 C1.28 430.94 0.21 432 0.64 430.52 L8.11 416.31 Z" class="st20"/>
								</g>
							</g>
						</g>
					</g>
				</g>
			</g>
			<g id="shape1109-76" transform="translate(-4.16836,8.7637)">
				<title>Sheet.1109</title>
				<desc>Azure Functions</desc>
				<rect x="0" y="406.368" width="72.1716" height="25.632" class="st8"/>
				<text x="22.15" y="415.88" class="st17">Azure <tspan x="12.77" dy="1.2em" class="st10">Functions</tspan></text>			</g>
		</g>
		<g id="group1113-80" transform="translate(253.09,-79.0803)">
			<title>Sheet.1113</title>
			<g id="group1021-81" transform="translate(16.7062,-29.8844)">
				<title>Icon-other-352</title>
				<g id="group1022-82">
					<title>Sheet.1022</title>
					<g id="shape1023-83" transform="translate(28.0807,-12.1443)">
						<title>a0c1ba3e-b1b7-469c-bdc3-466c91e</title>
						<ellipse cx="3.11749" cy="428.883" rx="3.11749" ry="3.11749" class="st15"/>
					</g>
					<g id="shape1024-85" transform="translate(0.953859,-2.65219)">
						<title>Sheet.1024</title>
						<path d="M30.24 413.85 A5.49051 5.49051 -180 0 0 26.96 414.88 L16.61 407.6 L0 419.39 L16.61 432 L27.15 424
									 A5.6301 5.6301 -180 0 0 30.24 424.93 A5.53704 5.53704 -180 1 0 30.24 413.85 ZM16.61 428.98 L4.07
									 419.53 L16.61 410.55 L25.41 416.78 A5.39745 5.39745 -180 0 0 24.75 419.39 A5.58357 5.58357 -180
									 0 0 25.41 422.23 L16.61 428.98 ZM30.24 422.58 A3.14076 3.14076 0 1 1 30.24 416.32 A3.14076 3.14076
									 0 0 1 30.24 422.58 Z" class="st11"/>
					</g>
					<g id="shape1025-87" transform="translate(13.6332,-21.8922)">
						<title>a9522cc2-b2ba-4b00-9796-5c509d7</title>
						<ellipse cx="3.93176" cy="428.068" rx="3.93176" ry="3.93176" class="st21"/>
					</g>
					<g id="shape1026-91" transform="translate(0,-11.33)">
						<title>f6bf0b63-bfa6-4c36-8883-b7c63ca</title>
						<ellipse cx="3.93176" cy="428.068" rx="3.93176" ry="3.93176" class="st21"/>
					</g>
					<g id="shape1027-94" transform="translate(13.6332,0)">
						<title>a22c324d-f47e-42c6-beb7-a9e72fe</title>
						<ellipse cx="3.93176" cy="428.068" rx="3.93176" ry="3.93176" class="st21"/>
					</g>
					<g id="shape1028-97" transform="translate(23.6371,-13.8798)">
						<title>Sheet.1028</title>
						<path d="M7.56 406.33 A7.79373 7.79373 -180 0 0 0 414.47 C0 418.03 4.51 426.36 6.56 431.34 A1.07018 1.07018
									 -180 0 0 8.54 431.34 C10.61 426.31 15.12 417.92 15.12 414.47 A7.91005 7.91005 -180 0 0 7.56
									 406.33 ZM7.56 417.36 A3.37341 3.37341 0 1 1 10.91 414.01 A3.35014 3.35014 0 0 1 7.56 417.36
									 Z" class="st22"/>
					</g>
				</g>
			</g>
			<g id="shape1112-101" transform="translate(9.59233E-14,-0.213168)">
				<title>Sheet.1112</title>
				<desc>Azure Spatial Anchors</desc>
				<rect x="0" y="406.36" width="72.1716" height="25.6402" class="st8"/>
				<text x="4.36" y="415.88" class="st17">Azure Spatial <tspan x="16.3" dy="1.2em" class="st10">Anchors</tspan></text>			</g>
		</g>
		<g id="group1101-105" transform="translate(271.896,-248.955)">
			<title>Icon-web-47</title>
			<g id="shape1102-106" transform="translate(0,-18.1224)">
				<title>Sheet.1102</title>
				<path d="M16.35 432 L0 432 L0 417.94 A2.376 2.376 0 0 1 2.35 415.56 L16.35 415.56 L16.35 432 ZM2.03 429.97 L14.32
							 429.97 L14.32 417.55 L2.35 417.55 a0.324 0.324 -180 0 0 -0.324 0.324 L2.03 429.97 Z" class="st23"/>
			</g>
			<g id="shape1103-108" transform="translate(18.2088,-18.1224)">
				<title>Sheet.1103</title>
				<path d="M16.35 432 L0 432 L0 415.56 L14 415.56 A2.376 2.376 0 0 1 16.35 417.94 L16.35 432 ZM2.03 429.97 L14.32 429.97
							 L14.32 417.94 a0.324 0.324 -180 0 0 -0.324 -0.3888 L2.03 417.55 L2.03 429.97 Z" class="st23"/>
			</g>
			<g id="shape1104-110">
				<title>Sheet.1104</title>
				<path d="M16.35 432 L2.35 432 A2.3544 2.3544 0 0 1 0 429.67 L0 415.58 L16.35 415.58 L16.35 432 ZM2.03 417.61 L2.03
							 429.67 a0.324 0.324 -180 0 0 0.324 0.324 L14.32 429.99 L14.32 417.61 L2.03 417.61 Z" class="st23"/>
			</g>
			<g id="shape1105-112" transform="translate(18.2088,5.68434E-14)">
				<title>Sheet.1105</title>
				<path d="M14 432 L0 432 L0 415.58 L16.35 415.58 L16.35 429.67 A2.3544 2.3544 0 0 1 14 432 ZM2.03 429.97 L14 429.97
							 a0.324 0.324 -180 0 0 0.324 -0.324 L14.32 417.61 L2.03 417.61 L2.03 429.97 Z" class="st23"/>
			</g>
			<g id="shape1106-114" transform="translate(5.0544,-8.4456)">
				<title>Sheet.1106</title>
				<path d="M24.47 426.49 A5.5944 5.5944 -180 0 0 19.7 421.09 A6.9984 6.9984 -180 0 0 12.55 414.35 A7.1712 7.1712 -180
							 0 0 5.75 419.04 A6.6528 6.6528 -180 0 0 0 425.52 A6.7176 6.7176 -180 0 0 6.89 432 L18.71 432 L19.01
							 432 A5.6376 5.6376 -180 0 0 24.47 426.49 Z" class="st24"/>
			</g>
		</g>
		<g id="shape1111-118" transform="translate(253.09,-216.68)">
			<title>Sheet.1111</title>
			<desc>Azure App Service</desc>
			<rect x="0" y="406.368" width="72.1716" height="25.632" class="st8"/>
			<text x="10.63" y="415.88" class="st17">Azure App <tspan x="18.99" dy="1.2em" class="st10">Service</tspan></text>		</g>
		<g id="group1116-122" transform="translate(432.118,-77.9117)">
			<title>Sheet.1116</title>
			<g id="group1084-123" transform="translate(16.7062,-26.1754)">
				<title>Sheet.1084</title>
				<g id="group1085-124">
					<title>Page-1</title>
					<g id="group1086-125">
						<title>Azure Cosmos DB</title>
						<g id="group1087-126">
							<title>layer1</title>
							<g id="group1088-127" transform="translate(0.906667,-26.5404)">
								<title>path14</title>
								<g id="shape1089-128">
									<title>Sheet.1089</title>
									<path d="M5.19 432 a0.38458 0.381027 180 0 1 -0.387053 -0.383477 A4.42157 4.38073 -0 0 0 0.39
												 427.24 a0.386778 0.383205 180 0 1 -0.387055 -0.38101 a0.386778 0.383205 180 0 1
												 0.387055 -0.383479 A4.42157 4.38073 -0 0 0 4.8 422.1 a0.38458 0.381027 180 0 1 0.387053
												 -0.383479 a0.38458 0.381027 180 0 1 0.387055 0.383479 A4.42157 4.38073 -0 0 0 9.99
												 426.48 a0.38458 0.381027 180 0 1 0.387055 0.383479 a0.38458 0.381027 180 0 1 -0.387055
												 0.383479 A4.41937 4.37855 -0 0 0 5.58 431.62 a0.388975 0.385382 180 0 1 -0.387055
												 0.383479 L5.19 432 Z" class="st25"/>
								</g>
							</g>
							<g id="group1090-130" transform="translate(29.7548,2.27374E-13)">
								<title>path16</title>
								<g id="shape1091-131">
									<title>Sheet.1091</title>
									<path d="M4.15 432 a0.309861 0.307 180 0 1 -0.30981 -0.306948 A3.53594 3.50327 -0 0 0 0.31 428.19
												 a0.309861 0.307 180 0 1 -0.30981 -0.304479 a0.309861 0.307 180 0 1 0.30981 -0.306947
												 A3.53374 3.5011 -0 0 0 3.84 424.08 a0.309861 0.307 180 0 1 0.30981 -0.306947 a0.309861
												 0.307 180 0 1 0.30981 0.306947 A3.53374 3.5011 -0 0 0 7.99 427.58 a0.309861 0.307
												 180 1 1 5.32907E-15 0.613895 A3.53594 3.50327 -0 0 0 4.46 431.69 a0.309861 0.307
												 180 0 1 -0.30981 0.304481 L4.15 432 Z" class="st25"/>
								</g>
							</g>
							<g id="group1092-133" transform="translate(5.23318,-5.0858)">
								<title>g26</title>
								<g id="group1093-134" transform="translate(0.605066,5.68434E-14)">
									<title>path1554</title>
									<g id="shape1094-135">
										<title>Sheet.1094</title>
										<ellipse cx="13.5074" cy="418.617" rx="13.5074" ry="13.3826" class="st26"/>
									</g>
								</g>
								<g id="group1095-139" transform="translate(-1.38889E-13,-4.27602)">
									<title>path20-2-1-1</title>
									<g id="shape1096-140">
										<title>Sheet.1096</title>
										<path d="M7.12 431.87 C12.04 432 12.05 424.63 7.13 424.74 C7.14 424.64 7.15 424.54 7.14 424.44
													 C7.13 422.46 5.5 420.86 3.5 420.88 L0.8 420.88 C0 424.41 1.33 428.9 4.09 431.87
													 L7.12 431.87 Z" class="st27"/>
									</g>
								</g>
								<g id="group1097-142" transform="translate(14.4309,-11.2509)">
									<title>path22-2-2-2</title>
									<g id="shape1098-143">
										<title>Sheet.1098</title>
										<path d="M12.99 427.41 C12.99 427.37 12.99 427.34 12.97 427.31 A13.1373 13.0159 -0 0 0 9.88
													 421.04 A4.01062 3.97357 -0 0 0 9.25 420.84 A3.96886 3.9322 -0 0 0 4.19 424.47
													 A4.3952 4.3546 -0 0 0 3.75 424.44 A3.81723 3.78197 -0 0 0 2.48 431.78 A3.18872
													 3.15926 -0 0 0 3.66 432 L8.12 432 A29.5643 29.2912 -0 0 0 12.99 427.41 Z"
												class="st27"/>
									</g>
								</g>
							</g>
							<g id="group1099-145" transform="translate(0,-5.64874)">
								<title>path28</title>
								<g id="shape1100-146">
									<title>Sheet.1100</title>
									<path d="M37.38 407.98 C36 405.7 32.76 404.82 28.25 405.49 A32.0981 31.8016 -0 0 0 23.68 406.46
												 A14.1877 14.0566 180 0 1 27.03 408.14 C27.56 408.02 28.09 407.89 28.61 407.81 A16.46
												 16.3079 180 0 1 31.03 407.61 A4.80835 4.76393 180 0 1 35.33 409.19 C36.17 410.58
												 35.46 412.96 33.39 415.72 A36.7505 36.4109 180 0 1 22.95 424.54 A36.8274 36.4872
												 180 0 1 10.15 429.47 C6.71 429.98 4.25 429.47 3.41 428.08 C2.57 426.7 3.28 424.32
												 5.36 421.57 C5.62 421.22 5.68 421.05 5.98 420.71 A13.7394 13.6124 180 0 1 6.03 417.16
												 A25.3867 25.1522 -0 0 0 3.46 420.15 C0.74 423.75 0 427 1.38 429.28 A6.9554 6.89114
												 -0 0 0 7.75 432 A18.5346 18.3634 -0 0 0 10.5 431.78 A39.2381 38.8757 -0 0 0 24.17
												 426.56 A39.1348 38.7734 -0 0 0 35.29 417.12 C38.02 413.51 38.76 410.26 37.38 407.98
												 Z" class="st25"/>
								</g>
							</g>
						</g>
					</g>
				</g>
			</g>
			<g id="shape1115-148">
				<title>Sheet.1115</title>
				<desc>Azure Cosmos DB</desc>
				<rect x="0" y="406.36" width="72.1716" height="25.6402" class="st8"/>
				<text x="22.15" y="415.88" class="st17">Azure <tspan x="8.31" dy="1.2em" class="st10">Cosmos DB</tspan></text>			</g>
		</g>
		<g id="group1118-152" transform="translate(68.494,-236.938)">
			<title>MsPortalFx.base.images-62</title>
			<g id="group1119-153">
				<title>Sheet.1119</title>
				<g id="shape1120-154">
					<title>Sheet.1120</title>
					<path d="M0 431.02 a0.979137 0.979137 -180 0 0 0.979114 0.979114 L24.2 432 a0.979137 0.979137 -180 0 0 0.979114
								 -0.979114 L25.18 390.92 a0.979137 0.979137 -180 0 0 -0.979114 -0.979114 L0.98 389.94 a0.979137 0.979137
								 -180 0 0 -0.979114 0.979114 L0 431.02 Z" class="st28"/>
				</g>
				<g id="shape1121-158" transform="translate(9.68832,-39.8726)">
					<title>Sheet.1121</title>
					<path d="M0 431.64 a0.359874 0.359874 -180 0 0 0.359865 0.359865 L5.44 432 a0.359874 0.359874 -180 0 0 0.359865
								 -0.359865 L5.8 431.58 a0.359874 0.359874 -180 0 0 -0.359865 -0.359865 L0.36 431.22 a0.359874 0.359874
								 -180 0 0 -0.359865 0.359865 L0 431.64 Z" class="st29"/>
				</g>
				<g id="shape1122-160" transform="translate(2.36249,-4.7133)">
					<title>Sheet.1122</title>
					<path d="M0 431.53 a0.469705 0.469705 -180 0 0 0.469694 0.469694 L19.99 432 a0.469705 0.469705 -180 0 0 0.469694
								 -0.469694 L20.46 398.68 a0.469705 0.469705 -180 0 0 -0.469694 -0.469694 L0.47 398.21 a0.469705 0.469705
								 -180 0 0 -0.469694 0.469694 L0 431.53 Z" class="st30"/>
				</g>
				<g id="shape1123-164" transform="translate(11.1839,-0.916021)">
					<title>Sheet.1123</title>
					<path d="M-0 431.33 a0.668337 0.668337 -180 0 0 0.668321 0.668321 L2.15 432 a0.668337 0.668337 -180 0 0 0.668321
								 -0.668321 L2.81 430.27 a0.668337 0.668337 -180 0 0 -0.668321 -0.668321 L0.67 429.6 a0.668337 0.668337
								 -180 0 0 -0.668321 0.668321 L0 431.33 Z" class="st29"/>
				</g>
				<g id="shape1124-166" transform="translate(12.7705,-13.4248)">
					<title>Sheet.1124</title>
					<path d="M6.55 420.6 L6.55 428.19 L0 432 L0 424.4 L6.55 420.6 Z" class="st31"/>
				</g>
				<g id="shape1125-168" transform="translate(6.21586,-21.0101)">
					<title>Sheet.1125</title>
					<path d="M13.11 428.19 L6.56 432 L0 428.19 L6.56 424.38 L13.11 428.19 Z" class="st32"/>
				</g>
				<g id="shape1126-170" transform="translate(6.21586,-13.4248)">
					<title>Sheet.1126</title>
					<path d="M6.55 424.41 L6.55 432 L0 428.19 L0 420.6 L6.55 424.41 Z" class="st4"/>
				</g>
			</g>
		</g>
		<g id="shape1127-172" transform="translate(45,-212.12)">
			<title>Sheet.1127</title>
			<desc>Mobile</desc>
			<rect x="0" y="406.36" width="72.1716" height="25.6402" class="st8"/>
			<text x="19.15" y="422.48" class="st17">Mobile</text>		</g>
		<g id="shape1128-175" transform="translate(49.4142,-91.3598)">
			<title>Sheet.1128</title>
			<desc>Microsoft HoloLens</desc>
			<rect x="0" y="406.36" width="72.1716" height="25.6402" class="st8"/>
			<text x="13" y="415.88" class="st17">Microsoft <tspan x="13.49" dy="1.2em" class="st10">HoloLens</tspan></text>		</g>
		<g id="group1129-179" transform="translate(591.638,-216.68)">
			<title>Sheet.1129</title>
			<g id="group1036-180" transform="translate(10.2465,-32.2747)">
				<title>Sheet.1036</title>
				<g id="group1037-181">
					<title>Page-1</title>
					<g id="group1038-182">
						<title>Event Hub</title>
						<g id="group1039-183">
							<title> Icon-analytics-144</title>
							<g id="group1040-184" transform="translate(17.46,-10.911)">
								<title>Sheet.1040</title>
								<g id="shape1041-185">
									<title>Sheet.1041</title>
									<path d="M5.87 424.12 a0.593484 0.587278 90 0 1 -0.542103 0.616311 L0.61 424.74 a0.593484 0.587278
												 90 0 1 -0.609866 -0.547832 L0 420.63 a0.593484 0.587278 90 0 1 0.542103 -0.616311
												 L5.26 420.02 a0.593484 0.587278 90 0 1 0.609866 0.547832 L5.87 424.12 ZM14.25 427.73
												 a0.593484 0.587278 90 0 1 -0.542103 0.616311 L8.99 428.35 a0.593484 0.587278 90
												 0 1 -0.609866 -0.547832 L8.38 424.26 a0.593484 0.587278 90 0 1 0.542103 -0.616311
												 L13.64 423.64 a0.593484 0.587278 90 0 1 0.609866 0.547832 L14.25 427.73 ZM5.87 431.38
												 a0.593484 0.587278 90 0 1 -0.542103 0.616311 L0.61 432 a0.593484 0.587278 90 0 1
												 -0.609866 -0.547832 L0 427.89 a0.593484 0.587278 90 0 1 0.542103 -0.616311 L5.26
												 427.27 a0.593484 0.587278 90 0 1 0.609866 0.547832 L5.87 431.38 Z" class="st33"/>
								</g>
							</g>
							<g id="group1042-187" transform="translate(8.96703,-21.7991)">
								<title>Sheet.1042</title>
								<g id="shape1043-188">
									<title>Sheet.1043</title>
									<path d="M5.99 431.4 a0.570658 0.56469 90 0 1 -0.519516 0.593484 L0.61 432 a0.593484 0.587278
												 90 0 1 -0.609866 -0.525006 L0 427.77 a0.593484 0.587278 90 0 1 0.542103 -0.570658
												 L5.26 427.2 C5.76 427.2 5.99 427.46 5.99 427.82 L5.99 431.4 Z" class="st34"/>
								</g>
							</g>
							<g id="group1044-190" transform="translate(8.96703,-7.28161)">
								<title>Sheet.1044</title>
								<g id="shape1045-191">
									<title>Sheet.1045</title>
									<path d="M5.99 424.1 a0.570658 0.56469 90 0 1 -0.519516 0.616311 L0.61 424.72 a0.593484 0.587278
												 90 0 1 -0.609866 -0.616311 L0 420.49 a0.593484 0.587278 90 0 1 0.542103 -0.593484
												 L5.26 419.9 C5.76 419.9 5.99 420.15 5.99 420.49 L5.99 424.1 ZM5.99 431.38 a0.570658
												 0.56469 90 0 1 -0.519516 0.616311 L0.61 432 a0.593484 0.587278 90 0 1 -0.609866
												 -0.547832 L0 427.75 a0.570658 0.56469 90 0 1 0.542103 -0.593484 L5.26 427.16 C5.76
												 427.16 5.99 427.39 5.99 427.75 L5.99 431.38 Z" class="st33"/>
								</g>
							</g>
							<g id="group1046-193" transform="translate(3.82194E-14,-25.6797)">
								<title>Sheet.1046</title>
								<g id="group1047-194">
									<title>Sheet.1047</title>
									<g id="shape1048-195">
										<title>Sheet.1048</title>
										<path d="M1.29 423.12 L4.2 423.12 L4.2 431.34 a0.661964 0.655041 90 0 1 -0.655041 0.661964
													 L0.66 432 a0.661964 0.655041 90 0 1 -0.655041 -0.661964 L0 424.49 A1.3011 1.28749
													 90 0 1 1.29 423.12 Z" class="st35"/>
									</g>
								</g>
								<g id="group1049-197">
									<title>Sheet.1049</title>
									<g id="shape1050-198">
										<title>Sheet.1050</title>
										<path d="M1.29 423.12 L4.2 423.12 L4.2 431.34 a0.661964 0.655041 90 0 1 -0.655041 0.661964
													 L0.66 432 a0.661964 0.655041 90 0 1 -0.655041 -0.661964 L0 424.49 A1.3011 1.28749
													 90 0 1 1.29 423.12 Z" class="st36"/>
									</g>
								</g>
							</g>
							<g id="group1051-200" transform="translate(34.1751,-25.7481)">
								<title>Sheet.1051</title>
								<g id="group1052-201">
									<title>Sheet.1052</title>
									<g id="shape1053-202">
										<title>Sheet.1053</title>
										<path d="M0.02 423.19 L2.94 423.19 A1.3011 1.28749 90 0 1 4.23 424.49 L4.23 431.34 a0.661964
													 0.655041 90 0 1 -0.655041 0.661964 L0.66 432 a0.661964 0.655041 90 0 1 -0.655041
													 -0.661964 L0 423.19 L0.02 423.19 Z" class="st35"/>
									</g>
								</g>
								<g id="group1054-204">
									<title>Sheet.1054</title>
									<g id="shape1055-205">
										<title>Sheet.1055</title>
										<path d="M0.02 423.19 L2.94 423.19 A1.3011 1.28749 90 0 1 4.23 424.49 L4.23 431.34 a0.661964
													 0.655041 90 0 1 -0.655041 0.661964 L0.66 432 a0.661964 0.655041 90 0 1 -0.655041
													 -0.661964 L0 423.19 L0.02 423.19 Z" class="st36"/>
									</g>
								</g>
							</g>
							<g id="group1056-207" transform="translate(0,-30.4047)">
								<title>Sheet.1056</title>
								<g id="shape1057-208">
									<title>Sheet.1057</title>
									<path d="M38.4 429.15 L38.4 432 L0 432 L0 429.15 A1.3011 1.28749 90 0 1 1.29 427.85 L37.14 427.85
												 A1.3011 1.28749 90 0 1 38.4 429.15 Z" class="st37"/>
								</g>
							</g>
							<g id="group1058-210">
								<title>Sheet.1058</title>
								<g id="group1059-211">
									<title>Sheet.1059</title>
									<g id="shape1060-212">
										<title>Sheet.1060</title>
										<path d="M0.66 423.12 L3.57 423.12 a0.661964 0.655041 90 0 1 0.655041 0.661964 L4.23 432
													 L1.29 432 A1.3011 1.28749 90 0 1 0 430.7 L0 423.67 a0.661964 0.655041 90 0 1
													 0.655041 -0.547832 L0.66 423.12 Z" class="st35"/>
									</g>
								</g>
								<g id="group1061-214">
									<title>Sheet.1061</title>
									<g id="shape1062-215">
										<title>Sheet.1062</title>
										<path d="M0.66 423.12 L3.57 423.12 a0.661964 0.655041 90 0 1 0.655041 0.661964 L4.23 432
													 L1.29 432 A1.3011 1.28749 90 0 1 0 430.7 L0 423.67 a0.661964 0.655041 90 0 1
													 0.655041 -0.547832 L0.66 423.12 Z" class="st36"/>
									</g>
								</g>
							</g>
							<g id="group1063-217" transform="translate(34.1976,-0.0684793)">
								<title>Sheet.1063</title>
								<g id="group1064-218">
									<title>Sheet.1064</title>
									<g id="shape1065-219">
										<title>Sheet.1065</title>
										<path d="M0.63 423.19 L3.55 423.19 a0.661964 0.655041 90 0 1 0.655041 0.661964 L4.2 430.7
													 A1.3011 1.28749 90 0 1 2.91 432 L0 432 L0 423.74 a0.661964 0.655041 90 0 1 0.632454
													 -0.547832 L0.63 423.19 Z" class="st35"/>
									</g>
								</g>
								<g id="group1066-221">
									<title>Sheet.1066</title>
									<g id="shape1067-222">
										<title>Sheet.1067</title>
										<path d="M0.63 423.19 L3.55 423.19 a0.661964 0.655041 90 0 1 0.655041 0.661964 L4.2 430.7
													 A1.3011 1.28749 90 0 1 2.91 432 L0 432 L0 423.74 a0.661964 0.655041 90 0 1 0.632454
													 -0.547832 L0.63 423.19 Z" class="st36"/>
									</g>
								</g>
							</g>
							<g id="group1068-224">
								<title>Sheet.1068</title>
								<g id="shape1069-225">
									<title>Sheet.1069</title>
									<path d="M0 430.7 L0 427.85 L38.4 427.85 L38.4 430.7 A1.3011 1.28749 90 0 1 37.11 432 L1.29 432
												 A1.3011 1.28749 90 0 1 -0 430.7 Z" class="st37"/>
								</g>
							</g>
						</g>
					</g>
				</g>
			</g>
			<g id="shape1107-227" transform="translate(-6.63841,5.68434E-14)">
				<title>Sheet.1107</title>
				<desc>Azure Event Hubs</desc>
				<rect x="0" y="406.368" width="72.1716" height="25.632" class="st8"/>
				<text x="7.37" y="415.88" class="st17">Azure Event <tspan x="23.5" dy="1.2em" class="st10">Hubs</tspan></text>			</g>
		</g>
		<g id="group1130-231" transform="translate(432.118,-216.68)">
			<title>Sheet.1130</title>
			<g id="group1029-232" transform="translate(19.0035,-32.2747)">
				<title>Sheet.1029</title>
				<g id="shape1030-233" transform="translate(-1.71863E-13,-1.45145)">
					<title>Sheet.1030</title>
					<path d="M27.5 405.32 L17.52 399.57 A5.03781 5.03781 -180 0 0 12.49 399.57 L2.52 405.32 A5.03973 5.03973 -180
								 0 0 -0 409.69 L0 421.2 A5.03973 5.03973 -180 0 0 2.52 425.57 L12.5 431.33 A5.03781 5.03781 -180
								 0 0 17.53 431.33 L27.52 425.57 A5.03973 5.03973 -180 0 0 30.03 421.2 L30.03 409.69 A5.03973 5.03973
								 -180 0 0 27.5 405.32 Z" class="st38"/>
				</g>
				<g id="shape1031-237" transform="translate(12.0416,5.68434E-14)">
					<title>Sheet.1031</title>
					<path d="M20.09 412.31 L13.08 408.26 A4.04907 4.04907 -180 0 0 9.03 408.26 L2.02 412.31 A4.03179 4.03179 -180
								 0 0 0 415.81 L0 423.91 A4.04331 4.04331 -180 0 0 2.02 427.41 L9.03 431.46 A4.04907 4.04907 -180
								 0 0 13.08 431.46 L20.09 427.41 A4.04715 4.04715 -180 0 0 22.12 423.91 L22.12 415.81 A4.04523 4.04523
								 -180 0 0 20.09 412.31 Z" class="st39"/>
				</g>
				<g id="shape1032-241" transform="translate(5.24132,-11.2736)">
					<title>Sheet.1032</title>
					<path d="M9.11 414.4 L11.13 413.29 L19.78 431.23 L19.08 432 L0 432 L0.22 429.7 L16.31 429.7 L9.11 414.4 Z"
							class="st40"/>
				</g>
				<g id="shape1033-245" transform="translate(2.16373,-9.43626)">
					<title>Sheet.1033</title>
					<ellipse cx="2.87985" cy="429.12" rx="2.87985" ry="2.87985" class="st12"/>
				</g>
				<g id="shape1034-247" transform="translate(18.5981,-7.64115)">
					<title>Sheet.1034</title>
					<ellipse cx="4.50024" cy="427.5" rx="4.50024" ry="4.50024" class="st12"/>
				</g>
				<g id="shape1035-249" transform="translate(12.3565,-26.7672)">
					<title>Sheet.1035</title>
					<ellipse cx="2.87985" cy="429.12" rx="2.87985" ry="2.87985" class="st12"/>
				</g>
			</g>
			<g id="shape1117-251">
				<title>Sheet.1117</title>
				<desc>Azure Digital Twins</desc>
				<rect x="0" y="406.368" width="72.1716" height="25.632" class="st8"/>
				<text x="4.89" y="415.88" class="st17">Azure Digital <tspan x="22.45" dy="1.2em" class="st10">Twins</tspan></text>			</g>
		</g>
		<g id="shape1132-255" transform="translate(49.4142,-311.18)">
			<title>Sheet.1132</title>
			<desc>Client</desc>
			<rect x="0" y="419.18" width="72.1716" height="12.8201" class="st8"/>
			<text x="21.68" y="428.89" class="st41">Client</text>		</g>
		<g id="shape1134-258" transform="translate(-142.824,145.241) rotate(-90)">
			<title>Directed line 1.1000</title>
			<path d="M0 432 L47.16 432" class="st42"/>
		</g>
		<g id="shape1135-264" transform="translate(492.511,-266.235)">
			<title>Directed line 1.1135</title>
			<path d="M0 432 L96.87 432" class="st42"/>
		</g>
		<g id="shape1136-269" transform="translate(320.897,-266.235)">
			<title>Directed line 1.1136</title>
			<path d="M0 432 L119.78 432" class="st42"/>
		</g>
		<g id="shape1137-274" transform="translate(149.586,-266.235)">
			<title>Directed line 1.1137</title>
			<path d="M7.68 432 L8.04 432 L105.55 432" class="st44"/>
		</g>
		<g id="shape1138-282" transform="translate(721.176,219.724) rotate(90)">
			<title>Directed line 1.1138</title>
			<path d="M0 432 L60.24 432" class="st42"/>
		</g>
		<g id="shape1139-287" transform="translate(153,-126)">
			<title>Directed line 1.1139</title>
			<path d="M0 432 L107.16 432" class="st42"/>
		</g>
		<g id="shape1140-292" transform="translate(492.511,-126)">
			<title>Directed line 1.1140</title>
			<path d="M7.68 432 L8.04 432 L107.49 432" class="st45"/>
		</g>
		<g id="shape1141-297" transform="translate(320.897,-252)">
			<title>Dynamic connector.1034</title>
			<path d="M0 432 L22.5 432 L22.5 504 L151.6 504 L151.6 531.96" class="st46"/>
		</g>
		<g id="shape1142-302" transform="translate(195.487,-254.714)">
			<title>Number.1142</title>
			<desc>5</desc>
			<ellipse cx="11.5215" cy="420.479" rx="11.5215" ry="11.5215" class="st47"/>
			<text x="8.44" y="423.95" class="st48">5</text>		</g>
		<g id="shape1143-305" transform="translate(221.791,-254.714)">
			<title>Number.1143</title>
			<desc>7</desc>
			<ellipse cx="11.5215" cy="420.479" rx="11.5215" ry="11.5215" class="st47"/>
			<text x="8.44" y="423.95" class="st48">7</text>		</g>
		<g id="shape1133-308" transform="translate(169.184,-254.714)">
			<title>Number.1358</title>
			<desc>1</desc>
			<ellipse cx="11.5215" cy="420.479" rx="11.5215" ry="11.5215" class="st47"/>
			<text x="8.44" y="423.95" class="st48">1</text>		</g>
		<g id="shape1144-311" transform="translate(199.079,-114.479)">
			<title>Number.1144</title>
			<desc>6</desc>
			<ellipse cx="11.5215" cy="420.479" rx="11.5215" ry="11.5215" class="st47"/>
			<text x="8.44" y="423.95" class="st48">6</text>		</g>
		<g id="shape1145-314" transform="translate(277.654,-299.376)">
			<title>Number.1145</title>
			<desc>2</desc>
			<ellipse cx="11.5215" cy="420.479" rx="11.5215" ry="11.5215" class="st47"/>
			<text x="8.44" y="423.95" class="st48">2</text>		</g>
		<g id="shape1146-317" transform="translate(377.457,-254.714)">
			<title>Number.1146</title>
			<desc>4</desc>
			<ellipse cx="11.5215" cy="420.479" rx="11.5215" ry="11.5215" class="st47"/>
			<text x="8.44" y="423.95" class="st48">4</text>		</g>
		<g id="shape1147-320" transform="translate(377.457,-168.479)">
			<title>Number.1147</title>
			<desc>7</desc>
			<ellipse cx="11.5215" cy="420.479" rx="11.5215" ry="11.5215" class="st47"/>
			<text x="8.44" y="423.95" class="st48">7</text>		</g>
		<g id="shape1148-323" transform="translate(533.447,-254.714)">
			<title>Number.1148</title>
			<desc>8</desc>
			<ellipse cx="11.5215" cy="420.479" rx="11.5215" ry="11.5215" class="st47"/>
			<text x="8.44" y="423.95" class="st48">8</text>		</g>
		<g id="shape1149-326" transform="translate(533.447,-114.479)">
			<title>Number.1149</title>
			<desc>9</desc>
			<ellipse cx="11.5215" cy="420.479" rx="11.5215" ry="11.5215" class="st47"/>
			<text x="8.44" y="423.95" class="st48">9</text>		</g>
		<g id="group1150-329" transform="translate(62.4565,-126)">
			<title>holo.1150</title>
			<g id="shape1151-330" transform="translate(-1.1191E-13,-9.78652)">
				<title>Sheet.1151</title>
				<path d="M21.51 423.83 L24.65 423.83 L24.65 424.53 L24.65 425.23 L21.51 425.23 L21.51 424.53 L21.51 423.83 ZM0.93
							 428.93 L1.64 429.14 C11.1 432 21.29 432 30.68 429.2 C35.41 427.81 39.86 425.64 43.94 422.91 L44.59 422.5
							 L45.09 422.14 C44.8 421.94 44.59 421.8 44.23 421.65 L44.16 421.65 C40 420.11 32.68 419.28 23.08 419.28
							 C13.33 419.28 6.02 420.11 1.93 421.65 C1.43 421.87 1.07 422.14 0.64 422.5 C0.21 422.91 0 423.47 0 424.03
							 L0 428.57 L0.93 428.93 Z" class="st49"/>
			</g>
			<g id="shape1152-332" transform="translate(0.000285809,1.13687E-13)">
				<title>Sheet.1152</title>
				<path d="M45.94 413.41 L44.73 414.25 C40.57 417.04 35.91 419.28 31.11 420.74 C21.44 423.61 10.96 423.61 1.21 420.68
							 L0 420.32 L0 420.74 C0.14 423.68 1.43 426.48 3.66 428.57 C6.02 430.81 9.17 432 12.48 432 L14.48 432
							 C15.05 432 15.62 431.79 15.98 431.51 L19.21 429.07 C20.21 428.16 21.58 427.67 23.01 427.67 C24.44 427.67
							 25.81 428.16 26.88 429.13 L30.11 431.51 C30.54 431.86 31.11 432 31.61 432 L33.61 432 C36.98 432 40.07
							 430.81 42.43 428.57 C44.8 426.34 46.09 423.4 46.09 420.25 L46.09 414.25 C46.09 413.97 46.09 413.68 45.94
							 413.41 Z" class="st50"/>
			</g>
		</g>
		<g id="shape1153-334" transform="translate(277.654,-168.479)">
			<title>Number.1153</title>
			<desc>3</desc>
			<ellipse cx="11.5215" cy="420.479" rx="11.5215" ry="11.5215" class="st47"/>
			<text x="8.44" y="423.95" class="st48">3</text>		</g>
	</g>
</svg>
