<svg xmlns="http://www.w3.org/2000/svg" width="753.592" height="305.172" viewBox="0 0 753.592 305.172">
    <g>
        <path d="M213.25,271.261h-4.51v4h4.172v1.216H208.74v5.112h-1.357V270.038h5.867Z" fill="#5b5b5b" />
        <path d="M215.935,271.245a.837.837,0,0,1-.6-.242.814.814,0,0,1-.25-.613.846.846,0,0,1,.83-.861h.024a.855.855,0,0,1,.619,1.463l0,0A.849.849,0,0,1,215.935,271.245Zm.644,10.341h-1.321v-8.247h1.321Z" fill="#5b5b5b" />
        <path d="M226.1,281.584h-1.321v-4.7q0-2.626-1.917-2.626a2.077,2.077,0,0,0-1.639.745,2.759,2.759,0,0,0-.649,1.885v4.7h-1.315v-8.247h1.321v1.369h.032a2.975,2.975,0,0,1,2.71-1.562,2.522,2.522,0,0,1,2.07.874,3.9,3.9,0,0,1,.716,2.525Z" fill="#5b5b5b" />
        <path d="M234.491,281.584H233.17V280.3h-.032a2.766,2.766,0,0,1-2.537,1.482,2.71,2.71,0,0,1-1.93-.653,2.262,2.262,0,0,1-.7-1.732q0-2.312,2.723-2.69l2.474-.346q0-2.1-1.7-2.1a4.06,4.06,0,0,0-2.69,1.014v-1.353a5.113,5.113,0,0,1,2.8-.773q2.908,0,2.908,3.076Zm-1.321-4.172-1.989.273a3.229,3.229,0,0,0-1.386.455,1.311,1.311,0,0,0-.471,1.156,1.258,1.258,0,0,0,.431.986,1.664,1.664,0,0,0,1.148.383,2.121,2.121,0,0,0,1.624-.688,2.465,2.465,0,0,0,.64-1.744Z" fill="#5b5b5b" />
        <path d="M243.826,281.584h-1.321v-4.7q0-2.626-1.917-2.626a2.082,2.082,0,0,0-1.64.745,2.764,2.764,0,0,0-.648,1.885v4.7h-1.321v-8.247H238.3v1.369h.032a2.975,2.975,0,0,1,2.71-1.562,2.524,2.524,0,0,1,2.07.874,3.9,3.9,0,0,1,.716,2.525Z" fill="#5b5b5b" />
        <path d="M251.936,281.208a4.291,4.291,0,0,1-2.255.571,3.731,3.731,0,0,1-2.846-1.148,4.158,4.158,0,0,1-1.084-2.976,4.571,4.571,0,0,1,1.168-3.274,4.084,4.084,0,0,1,3.117-1.236,4.337,4.337,0,0,1,1.917.4V274.9a3.359,3.359,0,0,0-1.965-.644,2.652,2.652,0,0,0-2.074.906,3.433,3.433,0,0,0-.809,2.38,3.269,3.269,0,0,0,.761,2.287,2.62,2.62,0,0,0,2.041.838,3.311,3.311,0,0,0,2.03-.716Z" fill="#5b5b5b" />
        <path d="M254.61,271.245a.837.837,0,0,1-.6-.242.814.814,0,0,1-.25-.613.846.846,0,0,1,.83-.861h.024a.855.855,0,0,1,.619,1.463l0,0A.849.849,0,0,1,254.61,271.245Zm.644,10.341h-1.321v-8.247h1.321Z" fill="#5b5b5b" />
        <path d="M263.832,281.584h-1.321V280.3h-.032a2.766,2.766,0,0,1-2.537,1.482,2.71,2.71,0,0,1-1.929-.653,2.259,2.259,0,0,1-.7-1.732q0-2.312,2.723-2.69l2.474-.346q0-2.1-1.7-2.1a4.058,4.058,0,0,0-2.69,1.014v-1.353a5.107,5.107,0,0,1,2.8-.773q2.907,0,2.908,3.076Zm-1.321-4.172-1.989.273a3.223,3.223,0,0,0-1.386.455,1.311,1.311,0,0,0-.471,1.156,1.261,1.261,0,0,0,.43.986,1.667,1.667,0,0,0,1.149.383,2.121,2.121,0,0,0,1.622-.688,2.455,2.455,0,0,0,.641-1.744Z" fill="#5b5b5b" />
        <path d="M267.641,281.584h-1.321V269.377h1.321Z" fill="#5b5b5b" />
        <path d="M281.873,281.584h-1.321v-1.4h-.028a3.327,3.327,0,0,1-5.319.488,4.537,4.537,0,0,1-.931-3.016,4.948,4.948,0,0,1,1.031-3.278,3.4,3.4,0,0,1,2.745-1.231,2.645,2.645,0,0,1,2.474,1.337h.032v-5.106h1.321Zm-1.321-3.729v-1.219a2.356,2.356,0,0,0-.661-1.692,2.215,2.215,0,0,0-1.675-.693,2.28,2.28,0,0,0-1.9.886,3.888,3.888,0,0,0-.693,2.448,3.5,3.5,0,0,0,.663,2.251,2.174,2.174,0,0,0,1.785.825,2.254,2.254,0,0,0,1.792-.8,2.965,2.965,0,0,0,.689-2.006Z" fill="#5b5b5b" />
        <path d="M290.45,281.584h-1.325V280.3h-.032a2.766,2.766,0,0,1-2.537,1.482,2.71,2.71,0,0,1-1.93-.653,2.262,2.262,0,0,1-.7-1.732q0-2.312,2.723-2.69l2.474-.346q0-2.1-1.7-2.1a4.06,4.06,0,0,0-2.69,1.014v-1.353a5.113,5.113,0,0,1,2.8-.773q2.908,0,2.908,3.076Zm-1.321-4.172-1.989.273a3.229,3.229,0,0,0-1.386.455,1.311,1.311,0,0,0-.471,1.156,1.258,1.258,0,0,0,.431.986,1.664,1.664,0,0,0,1.148.383,2.121,2.121,0,0,0,1.624-.688,2.465,2.465,0,0,0,.64-1.744Z" fill="#5b5b5b" />
        <path d="M296.765,281.506a2.546,2.546,0,0,1-1.232.258q-2.166,0-2.167-2.416v-4.881h-1.414v-1.13h1.414v-2.014l1.321-.426v2.44h2.078v1.128h-2.078v4.646a1.93,1.93,0,0,0,.282,1.178,1.124,1.124,0,0,0,.934.353,1.39,1.39,0,0,0,.861-.273Z" fill="#5b5b5b" />
        <path d="M304.432,281.584h-1.321V280.3h-.032a2.766,2.766,0,0,1-2.537,1.482,2.71,2.71,0,0,1-1.93-.653,2.262,2.262,0,0,1-.7-1.732q0-2.312,2.723-2.69l2.474-.346q0-2.1-1.7-2.1a4.06,4.06,0,0,0-2.69,1.014v-1.353a5.113,5.113,0,0,1,2.8-.773q2.908,0,2.908,3.076Zm-1.321-4.172-1.989.273a3.229,3.229,0,0,0-1.386.455,1.311,1.311,0,0,0-.471,1.156,1.258,1.258,0,0,0,.431.986,1.664,1.664,0,0,0,1.148.383,2.121,2.121,0,0,0,1.624-.688,2.465,2.465,0,0,0,.64-1.744Z" fill="#5b5b5b" />
        <path d="M315.515,270.536a1.758,1.758,0,0,0-.878-.218q-1.386,0-1.386,1.747v1.271h1.933v1.128h-1.933v7.12H311.94v-7.12h-1.414v-1.128h1.414V272a2.778,2.778,0,0,1,.749-2.05,2.527,2.527,0,0,1,1.869-.753,2.592,2.592,0,0,1,.958.145Z" fill="#5b5b5b" />
        <path d="M320.9,274.676a1.616,1.616,0,0,0-1-.266,1.688,1.688,0,0,0-1.414.8,3.7,3.7,0,0,0-.567,2.175v4.2H316.6v-8.247h1.321v1.7h.032a2.878,2.878,0,0,1,.861-1.357,1.965,1.965,0,0,1,1.3-.488,2.152,2.152,0,0,1,.789.118Z" fill="#5b5b5b" />
        <path d="M325.565,281.78a3.828,3.828,0,0,1-2.921-1.156,4.281,4.281,0,0,1-1.091-3.063,4.459,4.459,0,0,1,1.136-3.246,4.084,4.084,0,0,1,3.063-1.168,3.7,3.7,0,0,1,2.878,1.136,4.5,4.5,0,0,1,1.036,3.149,4.428,4.428,0,0,1-1.116,3.161A3.907,3.907,0,0,1,325.565,281.78Zm.1-7.523a2.512,2.512,0,0,0-2.014.866,3.551,3.551,0,0,0-.741,2.388,3.362,3.362,0,0,0,.749,2.312,2.546,2.546,0,0,0,2,.846,2.418,2.418,0,0,0,1.97-.825,3.606,3.606,0,0,0,.688-2.356,3.669,3.669,0,0,0-.688-2.383A2.406,2.406,0,0,0,325.662,274.257Z" fill="#5b5b5b" />
        <path d="M343.494,281.584h-1.321v-4.736a3.562,3.562,0,0,0-.423-1.982,1.6,1.6,0,0,0-1.421-.613,1.758,1.758,0,0,0-1.437.773,2.945,2.945,0,0,0-.589,1.852v4.706h-1.321v-4.9q0-2.433-1.877-2.432a1.737,1.737,0,0,0-1.434.729,3.011,3.011,0,0,0-.564,1.9v4.7h-1.321v-8.247h1.321v1.3h.032a2.8,2.8,0,0,1,2.561-1.5,2.382,2.382,0,0,1,2.335,1.707,2.945,2.945,0,0,1,2.738-1.707q2.722,0,2.723,3.359Z" fill="#5b5b5b" />
        <path d="M231.21,301.377h-1.321v-4.736a3.571,3.571,0,0,0-.423-1.982,1.6,1.6,0,0,0-1.422-.613,1.759,1.759,0,0,0-1.437.773,2.958,2.958,0,0,0-.589,1.852v4.706H224.7v-4.9q0-2.433-1.876-2.432a1.737,1.737,0,0,0-1.434.729,3.011,3.011,0,0,0-.564,1.9v4.7h-1.329V293.13h1.321v1.3h.032a2.8,2.8,0,0,1,2.561-1.5,2.385,2.385,0,0,1,2.335,1.707,2.945,2.945,0,0,1,2.738-1.707q2.722,0,2.723,3.359Z" fill="#5b5b5b" />
        <path d="M240.375,301.377h-1.323v-1.3h-.032a2.71,2.71,0,0,1-2.545,1.5q-2.945,0-2.945-3.511V293.13h1.311v4.72q0,2.61,2,2.61a2.023,2.023,0,0,0,1.592-.707,2.731,2.731,0,0,0,.624-1.865V293.13h1.321Z" fill="#5b5b5b" />
        <path d="M244.361,301.377H243.04V289.169h1.321Z" fill="#5b5b5b" />
        <path d="M250.862,301.3a2.548,2.548,0,0,1-1.234.258q-2.165,0-2.165-2.416v-4.881h-1.414V293.13h1.414v-2.014l1.321-.426v2.44h2.078v1.128h-2.078V298.9a1.931,1.931,0,0,0,.28,1.178,1.125,1.125,0,0,0,.934.353,1.391,1.391,0,0,0,.862-.273Z" fill="#5b5b5b" />
        <path d="M253.3,291.038a.834.834,0,0,1-.6-.242.815.815,0,0,1-.251-.613.848.848,0,0,1,.835-.861h.019a.855.855,0,0,1,.619,1.463l0,0A.848.848,0,0,1,253.3,291.038Zm.644,10.341h-1.321v-8.247h1.321Z" fill="#5b5b5b" />
        <path d="M257.972,300.187h-.032v4.985H256.62V293.13h1.321v1.449h.032a3.125,3.125,0,0,1,2.851-1.644,3.023,3.023,0,0,1,2.489,1.107,4.587,4.587,0,0,1,.893,2.968,5.113,5.113,0,0,1-1.006,3.314,3.354,3.354,0,0,1-2.755,1.244A2.76,2.76,0,0,1,257.972,300.187Zm-.032-3.326v1.152a2.453,2.453,0,0,0,.664,1.735,2.37,2.37,0,0,0,3.568-.2,4.214,4.214,0,0,0,.68-2.553,3.328,3.328,0,0,0-.635-2.158,2.107,2.107,0,0,0-1.724-.781,2.339,2.339,0,0,0-1.852.8A2.945,2.945,0,0,0,257.94,296.861Z" fill="#5b5b5b" />
        <path d="M267.637,301.377h-1.321V289.169h1.321Z" fill="#5b5b5b" />
        <path d="M276.941,297.586h-5.824a3.09,3.09,0,0,0,.741,2.121,2.557,2.557,0,0,0,1.949.749,4.049,4.049,0,0,0,2.561-.918v1.25a4.782,4.782,0,0,1-2.874.789,3.489,3.489,0,0,1-2.748-1.124,4.6,4.6,0,0,1-1-3.161,4.507,4.507,0,0,1,1.092-3.137,3.5,3.5,0,0,1,2.71-1.212,3.1,3.1,0,0,1,2.506,1.047,4.368,4.368,0,0,1,.886,2.908Zm-1.353-1.119a2.69,2.69,0,0,0-.553-1.78,1.885,1.885,0,0,0-1.509-.636,2.134,2.134,0,0,0-1.588.668,3.036,3.036,0,0,0-.806,1.747Z" fill="#5b5b5b" />
        <path d="M282.955,301.082v-1.414a3.913,3.913,0,0,0,2.378.8q1.74,0,1.74-1.159a1.01,1.01,0,0,0-.15-.56,1.478,1.478,0,0,0-.4-.406,3.111,3.111,0,0,0-.6-.318c-.227-.094-.471-.192-.736-.295a9.348,9.348,0,0,1-.963-.439,2.9,2.9,0,0,1-.693-.5,1.845,1.845,0,0,1-.418-.633,2.229,2.229,0,0,1-.141-.825,1.971,1.971,0,0,1,.267-1.027,2.356,2.356,0,0,1,.707-.749,3.288,3.288,0,0,1,1.01-.455,4.488,4.488,0,0,1,1.171-.153,4.734,4.734,0,0,1,1.917.37v1.337a3.734,3.734,0,0,0-2.094-.6,2.438,2.438,0,0,0-.667.085,1.632,1.632,0,0,0-.513.236,1.1,1.1,0,0,0-.33.366.96.96,0,0,0-.118.471,1.126,1.126,0,0,0,.118.54,1.19,1.19,0,0,0,.343.386,2.592,2.592,0,0,0,.548.306q.32.137.732.3a10.117,10.117,0,0,1,.983.431,3.367,3.367,0,0,1,.741.5,1.948,1.948,0,0,1,.471.64,2.058,2.058,0,0,1,.166.861,2.037,2.037,0,0,1-.27,1.06,2.31,2.31,0,0,1-.721.749,3.3,3.3,0,0,1-1.038.443,5.137,5.137,0,0,1-1.234.145A4.685,4.685,0,0,1,282.955,301.082Z" fill="#5b5b5b" />
        <path d="M293.9,301.573a3.826,3.826,0,0,1-2.921-1.156,4.281,4.281,0,0,1-1.091-3.063,4.459,4.459,0,0,1,1.135-3.246,4.086,4.086,0,0,1,3.069-1.168,3.7,3.7,0,0,1,2.878,1.136,4.5,4.5,0,0,1,1.036,3.149,4.432,4.432,0,0,1-1.116,3.161A3.907,3.907,0,0,1,293.9,301.573Zm.1-7.523a2.512,2.512,0,0,0-2.014.866,3.551,3.551,0,0,0-.741,2.388,3.363,3.363,0,0,0,.748,2.312,2.548,2.548,0,0,0,2,.846,2.414,2.414,0,0,0,1.969-.825,3.6,3.6,0,0,0,.689-2.356,3.662,3.662,0,0,0-.689-2.383A2.4,2.4,0,0,0,294,294.05Z" fill="#5b5b5b" />
        <path d="M306.789,301.377h-1.321v-1.3h-.032a2.71,2.71,0,0,1-2.545,1.5q-2.945,0-2.945-3.511V293.13h1.314v4.72q0,2.61,2,2.61a2.023,2.023,0,0,0,1.592-.707,2.731,2.731,0,0,0,.624-1.865V293.13H306.8Z" fill="#5b5b5b" />
        <path d="M313.748,294.47a1.614,1.614,0,0,0-1-.266,1.685,1.685,0,0,0-1.414.8,3.687,3.687,0,0,0-.568,2.175v4.2h-1.321V293.13h1.321v1.7h.032a2.888,2.888,0,0,1,.862-1.357,1.962,1.962,0,0,1,1.3-.488,2.148,2.148,0,0,1,.789.118Z" fill="#5b5b5b" />
        <path d="M320.592,301a4.291,4.291,0,0,1-2.255.571,3.734,3.734,0,0,1-2.848-1.148,4.157,4.157,0,0,1-1.083-2.976,4.576,4.576,0,0,1,1.166-3.274,4.087,4.087,0,0,1,3.117-1.236,4.337,4.337,0,0,1,1.917.4v1.353a3.359,3.359,0,0,0-1.965-.644,2.657,2.657,0,0,0-2.075.906,3.438,3.438,0,0,0-.809,2.38,3.274,3.274,0,0,0,.761,2.287,2.624,2.624,0,0,0,2.042.838,3.311,3.311,0,0,0,2.03-.716Z" fill="#5b5b5b" />
        <path d="M329.218,297.586H323.4a3.08,3.08,0,0,0,.741,2.121,2.553,2.553,0,0,0,1.949.749,4.054,4.054,0,0,0,2.561-.918v1.25a4.789,4.789,0,0,1-2.876.789,3.484,3.484,0,0,1-2.745-1.124,4.6,4.6,0,0,1-1-3.161,4.511,4.511,0,0,1,1.091-3.137,3.5,3.5,0,0,1,2.71-1.212,3.1,3.1,0,0,1,2.5,1.047,4.359,4.359,0,0,1,.886,2.908Zm-1.353-1.119a2.683,2.683,0,0,0-.551-1.78,1.885,1.885,0,0,0-1.51-.636,2.131,2.131,0,0,0-1.586.668,3.029,3.029,0,0,0-.806,1.747Z" fill="#5b5b5b" />
        <path d="M330.714,301.082v-1.414a3.913,3.913,0,0,0,2.378.8q1.74,0,1.74-1.159a1.01,1.01,0,0,0-.15-.56,1.477,1.477,0,0,0-.4-.406,3.111,3.111,0,0,0-.6-.318c-.227-.094-.471-.192-.736-.295a9.349,9.349,0,0,1-.963-.439,2.9,2.9,0,0,1-.693-.5,1.845,1.845,0,0,1-.418-.633,2.229,2.229,0,0,1-.141-.825A1.971,1.971,0,0,1,331,294.3a2.356,2.356,0,0,1,.707-.749,3.288,3.288,0,0,1,1.01-.455,4.488,4.488,0,0,1,1.171-.153,4.734,4.734,0,0,1,1.917.37v1.337a3.734,3.734,0,0,0-2.094-.6,2.438,2.438,0,0,0-.667.085,1.632,1.632,0,0,0-.513.236,1.1,1.1,0,0,0-.33.366.96.96,0,0,0-.118.471,1.126,1.126,0,0,0,.118.54,1.19,1.19,0,0,0,.343.386,2.592,2.592,0,0,0,.548.306q.32.137.732.3a10.117,10.117,0,0,1,.983.431,3.367,3.367,0,0,1,.741.5,1.948,1.948,0,0,1,.471.64,2.058,2.058,0,0,1,.166.861,2.037,2.037,0,0,1-.27,1.06,2.31,2.31,0,0,1-.721.749,3.3,3.3,0,0,1-1.038.443,5.137,5.137,0,0,1-1.234.145A4.684,4.684,0,0,1,330.714,301.082Z" fill="#5b5b5b" />
    </g>
    <g>
        <path d="M218.92,100.481h-1.5L216.2,97.243h-4.9l-1.152,3.238h-1.5l4.43-11.546h1.4Zm-3.166-4.454-1.812-4.921a4.6,4.6,0,0,1-.177-.773h-.032a4.323,4.323,0,0,1-.185.773l-1.8,4.915Z" fill="#5b5b5b" />
        <path d="M226.192,92.612l-4.881,6.742h4.831v1.128h-6.765v-.411l4.881-6.709h-4.422V92.233H226.2Z" fill="#5b5b5b" />
        <path d="M234.569,100.481h-1.321v-1.3h-.032a2.71,2.71,0,0,1-2.545,1.5q-2.945,0-2.945-3.511V92.233h1.311v4.72q0,2.61,2,2.61a2.018,2.018,0,0,0,1.591-.707,2.725,2.725,0,0,0,.624-1.865V92.233h1.321Z" fill="#5b5b5b" />
        <path d="M241.535,93.571a1.616,1.616,0,0,0-1-.266,1.684,1.684,0,0,0-1.414.8,3.678,3.678,0,0,0-.568,2.175v4.2h-1.321V92.233h1.321v1.7h.032a2.878,2.878,0,0,1,.861-1.357,1.963,1.963,0,0,1,1.3-.488,2.156,2.156,0,0,1,.789.118Z" fill="#5b5b5b" />
        <path d="M249.38,96.687h-5.823a3.084,3.084,0,0,0,.741,2.121,2.554,2.554,0,0,0,1.949.749,4.054,4.054,0,0,0,2.561-.918V99.88a4.786,4.786,0,0,1-2.875.789,3.486,3.486,0,0,1-2.746-1.124,4.6,4.6,0,0,1-1-3.161,4.507,4.507,0,0,1,1.092-3.137,3.5,3.5,0,0,1,2.71-1.212,3.1,3.1,0,0,1,2.5,1.047,4.368,4.368,0,0,1,.886,2.908Zm-1.353-1.119a2.684,2.684,0,0,0-.553-1.78,1.878,1.878,0,0,0-1.509-.636,2.131,2.131,0,0,0-1.587.668,3.036,3.036,0,0,0-.806,1.747Z" fill="#5b5b5b" />
        <path d="M265.013,100.481h-1.5l-1.224-3.238h-4.9l-1.152,3.238h-1.506l4.43-11.546h1.4Zm-3.166-4.454-1.812-4.921a4.713,4.713,0,0,1-.177-.773h-.032a4.425,4.425,0,0,1-.185.773l-1.8,4.915Z" fill="#5b5b5b" />
        <path d="M267.888,99.288h-.032v4.98h-1.321V92.233h1.321v1.449h.032a3.122,3.122,0,0,1,2.851-1.644,3.021,3.021,0,0,1,2.488,1.107,4.587,4.587,0,0,1,.894,2.968,5.113,5.113,0,0,1-1.006,3.314,3.351,3.351,0,0,1-2.755,1.244A2.759,2.759,0,0,1,267.888,99.288Zm-.032-3.326v1.152a2.448,2.448,0,0,0,.664,1.735,2.369,2.369,0,0,0,3.566-.205,4.206,4.206,0,0,0,.681-2.553,3.322,3.322,0,0,0-.636-2.158,2.107,2.107,0,0,0-1.724-.781,2.34,2.34,0,0,0-1.852.8A2.945,2.945,0,0,0,267.856,95.962Z" fill="#5b5b5b" />
        <path d="M277.584,99.288h-.032v4.98h-1.321V92.233h1.321v1.449h.032a3.122,3.122,0,0,1,2.851-1.644,3.021,3.021,0,0,1,2.488,1.107,4.587,4.587,0,0,1,.894,2.968,5.113,5.113,0,0,1-1.006,3.314,3.351,3.351,0,0,1-2.755,1.244A2.759,2.759,0,0,1,277.584,99.288Zm-.032-3.326v1.152a2.448,2.448,0,0,0,.664,1.735,2.369,2.369,0,0,0,3.566-.205,4.206,4.206,0,0,0,.681-2.553,3.322,3.322,0,0,0-.636-2.158,2.107,2.107,0,0,0-1.724-.781,2.34,2.34,0,0,0-1.852.8A2.946,2.946,0,0,0,277.552,95.962Z" fill="#5b5b5b" />
        <path d="M290.084,100.014v-1.6a3.093,3.093,0,0,0,.656.435,5.383,5.383,0,0,0,.806.326,6.479,6.479,0,0,0,.851.205,4.735,4.735,0,0,0,.789.073A3.1,3.1,0,0,0,295.052,99a1.737,1.737,0,0,0,.41-2.147,2.293,2.293,0,0,0-.567-.633,5.685,5.685,0,0,0-.858-.548q-.5-.262-1.067-.551-.6-.306-1.128-.62a4.853,4.853,0,0,1-.91-.693,2.737,2.737,0,0,1-.484-3.354,2.97,2.97,0,0,1,.91-.963,4.124,4.124,0,0,1,1.284-.564,5.881,5.881,0,0,1,1.47-.185,5.635,5.635,0,0,1,2.488.411v1.522a4.512,4.512,0,0,0-2.626-.707,4.33,4.33,0,0,0-.886.093,2.493,2.493,0,0,0-.789.3,1.745,1.745,0,0,0-.564.54,1.433,1.433,0,0,0-.218.806,1.649,1.649,0,0,0,.166.765,1.859,1.859,0,0,0,.487.589,4.83,4.83,0,0,0,.786.516q.463.25,1.066.548t1.178.644a5.388,5.388,0,0,1,.974.749,3.36,3.36,0,0,1,.664.91,2.564,2.564,0,0,1,.245,1.144,2.9,2.9,0,0,1-.335,1.446,2.724,2.724,0,0,1-.9.963,3.929,3.929,0,0,1-1.308.536,7.177,7.177,0,0,1-1.562.165,6.407,6.407,0,0,1-.676-.045q-.4-.044-.825-.128a6.58,6.58,0,0,1-.793-.21A2.454,2.454,0,0,1,290.084,100.014Z" fill="#5b5b5b" />
        <path d="M305.838,96.687h-5.823a3.084,3.084,0,0,0,.741,2.121,2.554,2.554,0,0,0,1.949.749,4.054,4.054,0,0,0,2.561-.918V99.88a4.786,4.786,0,0,1-2.875.789,3.486,3.486,0,0,1-2.746-1.124,4.6,4.6,0,0,1-1-3.161,4.507,4.507,0,0,1,1.092-3.137,3.5,3.5,0,0,1,2.71-1.212,3.1,3.1,0,0,1,2.5,1.047,4.367,4.367,0,0,1,.886,2.908Zm-1.353-1.119a2.684,2.684,0,0,0-.553-1.78,1.878,1.878,0,0,0-1.509-.636,2.131,2.131,0,0,0-1.587.668,3.036,3.036,0,0,0-.806,1.747Z" fill="#5b5b5b" />
        <path d="M312.136,93.571a1.617,1.617,0,0,0-1-.266,1.684,1.684,0,0,0-1.414.8,3.678,3.678,0,0,0-.568,2.175v4.2h-1.321V92.233h1.318v1.7h.032a2.878,2.878,0,0,1,.861-1.357,1.963,1.963,0,0,1,1.3-.488,2.156,2.156,0,0,1,.789.118Z" fill="#5b5b5b" />
        <path d="M320.714,92.233l-3.286,8.247h-1.3l-3.125-8.247h1.449l2.094,5.992a5.419,5.419,0,0,1,.29,1.152h.032a5.372,5.372,0,0,1,.258-1.119l2.19-6.024Z" fill="#5b5b5b" />
        <path d="M322.807,90.14a.837.837,0,0,1-.6-.242.814.814,0,0,1-.25-.613.846.846,0,0,1,.83-.861h.024a.849.849,0,0,1,.615.245.859.859,0,0,1,.006,1.215l-.006.006A.844.844,0,0,1,322.807,90.14Zm.644,10.341h-1.321V92.233h1.321Z" fill="#5b5b5b" />
        <path d="M331.747,100.1a4.291,4.291,0,0,1-2.255.571,3.736,3.736,0,0,1-2.848-1.148,4.161,4.161,0,0,1-1.083-2.976,4.571,4.571,0,0,1,1.168-3.274,4.084,4.084,0,0,1,3.117-1.236,4.337,4.337,0,0,1,1.917.4V93.8a3.357,3.357,0,0,0-1.965-.644,2.658,2.658,0,0,0-2.075.906,3.444,3.444,0,0,0-.809,2.38,3.279,3.279,0,0,0,.761,2.287,2.626,2.626,0,0,0,2.042.838,3.311,3.311,0,0,0,2.03-.716Z" fill="#5b5b5b" />
        <path d="M340.375,96.687h-5.823a3.085,3.085,0,0,0,.741,2.121,2.554,2.554,0,0,0,1.949.749,4.054,4.054,0,0,0,2.561-.918V99.88a4.786,4.786,0,0,1-2.875.789,3.486,3.486,0,0,1-2.746-1.124,4.6,4.6,0,0,1-1-3.161,4.507,4.507,0,0,1,1.092-3.137,3.5,3.5,0,0,1,2.71-1.212,3.1,3.1,0,0,1,2.5,1.047,4.367,4.367,0,0,1,.886,2.908Zm-1.353-1.119a2.684,2.684,0,0,0-.553-1.78,1.878,1.878,0,0,0-1.509-.636,2.131,2.131,0,0,0-1.587.668,3.036,3.036,0,0,0-.806,1.747Z" fill="#5b5b5b" />
        <path d="M341.871,100.183V98.769a3.909,3.909,0,0,0,2.376.8q1.74,0,1.74-1.159a1.008,1.008,0,0,0-.148-.56,1.509,1.509,0,0,0-.4-.406,3.145,3.145,0,0,0-.6-.318c-.229-.094-.471-.192-.738-.295a9.58,9.58,0,0,1-.963-.439,2.946,2.946,0,0,1-.693-.5,1.885,1.885,0,0,1-.418-.633,2.253,2.253,0,0,1-.14-.825,1.971,1.971,0,0,1,.266-1.027,2.356,2.356,0,0,1,.707-.749,3.3,3.3,0,0,1,1.011-.455,4.477,4.477,0,0,1,1.171-.153,4.737,4.737,0,0,1,1.917.37v1.33a3.736,3.736,0,0,0-2.094-.6,2.448,2.448,0,0,0-.668.085,1.65,1.65,0,0,0-.513.236,1.093,1.093,0,0,0-.329.366.96.96,0,0,0-.118.471,1.126,1.126,0,0,0,.118.54,1.178,1.178,0,0,0,.342.386,2.626,2.626,0,0,0,.548.306q.323.137.733.3a10.241,10.241,0,0,1,.983.431,3.4,3.4,0,0,1,.741.5,1.964,1.964,0,0,1,.471.64,2.077,2.077,0,0,1,.165.861,2.025,2.025,0,0,1-.27,1.06,2.307,2.307,0,0,1-.72.749,3.309,3.309,0,0,1-1.039.443,5.134,5.134,0,0,1-1.232.145A4.678,4.678,0,0,1,341.871,100.183Z" fill="#5b5b5b" />
    </g>
    <g>
        <rect x="134.392" y="41.566" width="83.964" height="1.767" fill="#969696" />
        <polygon points="216.551 36.281 227.234 42.45 216.551 48.619 216.551 36.281" fill="#969696" />
    </g>
    <g>
        <rect x="326.435" y="41.566" width="95.746" height="1.767" fill="#969696" />
        <polygon points="420.375 36.281 431.058 42.45 420.375 48.619 420.375 36.281" fill="#969696" />
    </g>
    <g>
        <rect x="523.19" y="41.566" width="95.746" height="1.767" fill="#969696" />
        <polygon points="617.131 36.281 627.813 42.45 617.131 48.619 617.131 36.281" fill="#969696" />
    </g>
    <g>
        <path d="M655.036,96.116v4.365h-1.353V88.935h3.173a4.188,4.188,0,0,1,2.872.9,3.222,3.222,0,0,1,1.019,2.545,3.5,3.5,0,0,1-1.132,2.69,4.324,4.324,0,0,1-3.056,1.047Zm0-5.96v4.736h1.414a3.171,3.171,0,0,0,2.142-.637,2.268,2.268,0,0,0,.738-1.809q0-2.288-2.71-2.287Z" fill="#5b5b5b" />
        <path d="M665.58,100.674a3.826,3.826,0,0,1-2.921-1.156,4.281,4.281,0,0,1-1.091-3.063,4.459,4.459,0,0,1,1.135-3.246,4.086,4.086,0,0,1,3.069-1.168,3.7,3.7,0,0,1,2.878,1.136,4.5,4.5,0,0,1,1.036,3.149,4.432,4.432,0,0,1-1.116,3.161A3.907,3.907,0,0,1,665.58,100.674Zm.1-7.523a2.512,2.512,0,0,0-2.013.866,3.551,3.551,0,0,0-.741,2.388,3.363,3.363,0,0,0,.748,2.312,2.548,2.548,0,0,0,2,.846,2.414,2.414,0,0,0,1.969-.825,3.6,3.6,0,0,0,.689-2.356A3.662,3.662,0,0,0,667.641,94,2.4,2.4,0,0,0,665.676,93.151Z" fill="#5b5b5b" />
        <path d="M682.187,92.233l-2.474,8.247h-1.369l-1.7-5.9a3.79,3.79,0,0,1-.128-.765h-.032a3.627,3.627,0,0,1-.171.749l-1.843,5.919h-1.322l-2.5-8.247h1.386l1.707,6.2a3.828,3.828,0,0,1,.118.741h.065a3.47,3.47,0,0,1,.145-.758l1.9-6.185h1.208l1.707,6.217a4.491,4.491,0,0,1,.118.741h.065a3.49,3.49,0,0,1,.138-.741l1.675-6.217Z" fill="#5b5b5b" />
        <path d="M690.264,96.687h-5.821a3.08,3.08,0,0,0,.741,2.121,2.553,2.553,0,0,0,1.949.749,4.054,4.054,0,0,0,2.561-.918V99.88a4.789,4.789,0,0,1-2.876.789,3.484,3.484,0,0,1-2.745-1.124,4.6,4.6,0,0,1-1-3.161,4.511,4.511,0,0,1,1.091-3.137,3.5,3.5,0,0,1,2.71-1.212,3.1,3.1,0,0,1,2.5,1.047,4.359,4.359,0,0,1,.886,2.908Zm-1.353-1.119a2.683,2.683,0,0,0-.551-1.78,1.885,1.885,0,0,0-1.51-.636,2.131,2.131,0,0,0-1.586.668,3.029,3.029,0,0,0-.806,1.747Z" fill="#5b5b5b" />
        <path d="M696.562,93.571a1.614,1.614,0,0,0-1-.266,1.685,1.685,0,0,0-1.414.8,3.687,3.687,0,0,0-.568,2.175v4.2h-1.321V92.233h1.321v1.7h.032a2.888,2.888,0,0,1,.862-1.357,1.962,1.962,0,0,1,1.3-.488,2.148,2.148,0,0,1,.789.118Z" fill="#5b5b5b" />
        <path d="M702.692,100.481V88.935h3.286a3.588,3.588,0,0,1,2.375.733,2.368,2.368,0,0,1,.879,1.909,2.809,2.809,0,0,1-.531,1.707,2.869,2.869,0,0,1-1.466,1.031v.032a2.945,2.945,0,0,1,1.869.882,2.71,2.71,0,0,1,.7,1.937,3.02,3.02,0,0,1-1.06,2.4,3.954,3.954,0,0,1-2.68.918Zm1.353-10.326v3.729h1.386a2.625,2.625,0,0,0,1.746-.536,1.865,1.865,0,0,0,.637-1.51q0-1.684-2.216-1.684Zm0,4.948v4.155h1.837a2.751,2.751,0,0,0,1.847-.564,1.931,1.931,0,0,0,.656-1.546q0-2.046-2.786-2.045Z" fill="#5b5b5b" />
        <path d="M713.5,100.481h-1.353V88.935H713.5Z" fill="#5b5b5b" />
        <path d="M617.307,122.9h-1.178a10.29,10.29,0,0,1-2.5-7.031,10.68,10.68,0,0,1,2.5-7.143h1.192a10.857,10.857,0,0,0-2.528,7.128A10.665,10.665,0,0,0,617.307,122.9Z" fill="#5b5b5b" />
        <path d="M624.862,109.949h-4.51v4h4.172v1.216h-4.172v5.114H619V108.728h5.864Z" fill="#5b5b5b" />
        <path d="M627.552,109.933a.836.836,0,0,1-.6-.242.814.814,0,0,1-.25-.613.846.846,0,0,1,.83-.861h.024a.85.85,0,0,1,.615.245.859.859,0,0,1,.006,1.215l-.006.006A.843.843,0,0,1,627.552,109.933Zm.644,10.341h-1.321v-8.247H628.2Z" fill="#5b5b5b" />
        <path d="M637.716,120.274H636.4v-4.7q0-2.626-1.917-2.626a2.082,2.082,0,0,0-1.64.745,2.764,2.764,0,0,0-.648,1.885v4.7h-1.321V112.03h1.321V113.4h.032a2.975,2.975,0,0,1,2.71-1.562,2.524,2.524,0,0,1,2.07.874,3.9,3.9,0,0,1,.716,2.525Z" fill="#5b5b5b" />
        <path d="M646.111,120.274h-1.321v-1.289h-.032a2.766,2.766,0,0,1-2.537,1.482,2.71,2.71,0,0,1-1.929-.653,2.259,2.259,0,0,1-.7-1.732q0-2.312,2.723-2.69l2.474-.346q0-2.1-1.7-2.1a4.058,4.058,0,0,0-2.69,1.014v-1.353a5.107,5.107,0,0,1,2.8-.773q2.907,0,2.908,3.076Zm-1.321-4.172-1.989.273a3.224,3.224,0,0,0-1.386.455,1.311,1.311,0,0,0-.471,1.156,1.261,1.261,0,0,0,.43.986,1.667,1.667,0,0,0,1.149.383,2.121,2.121,0,0,0,1.622-.688,2.455,2.455,0,0,0,.641-1.744Z" fill="#5b5b5b" />
        <path d="M655.443,120.274h-1.32v-4.7q0-2.626-1.917-2.626a2.077,2.077,0,0,0-1.639.745,2.759,2.759,0,0,0-.649,1.885v4.7H648.6V112.03h1.321V113.4h.032a2.975,2.975,0,0,1,2.71-1.562,2.522,2.522,0,0,1,2.07.874,3.9,3.9,0,0,1,.716,2.525Z" fill="#5b5b5b" />
        <path d="M663.548,119.9a4.291,4.291,0,0,1-2.255.571,3.736,3.736,0,0,1-2.848-1.148,4.161,4.161,0,0,1-1.083-2.976,4.571,4.571,0,0,1,1.168-3.274,4.084,4.084,0,0,1,3.117-1.236,4.337,4.337,0,0,1,1.917.4v1.353a3.356,3.356,0,0,0-1.965-.644,2.658,2.658,0,0,0-2.075.906,3.444,3.444,0,0,0-.809,2.38,3.279,3.279,0,0,0,.761,2.287,2.626,2.626,0,0,0,2.042.838,3.311,3.311,0,0,0,2.03-.716Z" fill="#5b5b5b" />
        <path d="M666.228,109.933a.836.836,0,0,1-.6-.242.814.814,0,0,1-.25-.613.846.846,0,0,1,.83-.861h.024a.85.85,0,0,1,.615.245.859.859,0,0,1,.006,1.215l-.006.006A.843.843,0,0,1,666.228,109.933Zm.644,10.341h-1.321v-8.247h1.321Z" fill="#5b5b5b" />
        <path d="M675.448,120.274h-1.32v-1.289H674.1a2.766,2.766,0,0,1-2.537,1.482,2.71,2.71,0,0,1-1.93-.653,2.262,2.262,0,0,1-.7-1.732q0-2.312,2.723-2.69l2.474-.346q0-2.1-1.7-2.1a4.06,4.06,0,0,0-2.69,1.014v-1.353a5.113,5.113,0,0,1,2.8-.773q2.908,0,2.908,3.076Zm-1.321-4.172-1.989.273a3.229,3.229,0,0,0-1.386.455,1.311,1.311,0,0,0-.471,1.156,1.258,1.258,0,0,0,.431.986,1.664,1.664,0,0,0,1.148.383,2.121,2.121,0,0,0,1.624-.688,2.465,2.465,0,0,0,.64-1.744Z" fill="#5b5b5b" />
        <path d="M679.258,120.274h-1.321V108.065h1.321Z" fill="#5b5b5b" />
        <path d="M695.568,120.274h-1.5l-1.224-3.238h-4.9l-1.152,3.238H685.29l4.43-11.546h1.4Zm-3.166-4.459-1.812-4.921a4.6,4.6,0,0,1-.177-.773h-.032a4.317,4.317,0,0,1-.185.773l-1.8,4.921Z" fill="#5b5b5b" />
        <path d="M703.935,120.274h-1.321v-4.7q0-2.626-1.917-2.626a2.082,2.082,0,0,0-1.64.745,2.764,2.764,0,0,0-.648,1.885v4.7h-1.321V112.03h1.321V113.4h.032a2.975,2.975,0,0,1,2.71-1.562,2.524,2.524,0,0,1,2.07.874,3.9,3.9,0,0,1,.716,2.525Z" fill="#5b5b5b" />
        <path d="M712.325,120.274H711v-1.289h-.032a2.766,2.766,0,0,1-2.537,1.482,2.71,2.71,0,0,1-1.929-.653,2.259,2.259,0,0,1-.7-1.732q0-2.312,2.723-2.69l2.474-.346q0-2.1-1.7-2.1a4.058,4.058,0,0,0-2.69,1.014v-1.353a5.107,5.107,0,0,1,2.8-.773q2.907,0,2.908,3.076ZM711,116.1l-1.989.273a3.224,3.224,0,0,0-1.386.455,1.311,1.311,0,0,0-.471,1.156,1.261,1.261,0,0,0,.43.986,1.667,1.667,0,0,0,1.149.383,2.121,2.121,0,0,0,1.622-.688,2.455,2.455,0,0,0,.641-1.744Z" fill="#5b5b5b" />
        <path d="M716.138,120.274h-1.321V108.065h1.321Z" fill="#5b5b5b" />
        <path d="M725.376,112.027l-3.794,9.568q-1.014,2.561-2.851,2.561a3.029,3.029,0,0,1-.861-.1v-1.178a2.442,2.442,0,0,0,.781.145,1.62,1.62,0,0,0,1.5-1.192l.661-1.562-3.221-8.231h1.466l2.231,6.347q.04.118.17.628h.048q.04-.193.161-.613l2.343-6.362Z" fill="#5b5b5b" />
        <path d="M730.667,120.194a2.546,2.546,0,0,1-1.232.258q-2.166,0-2.167-2.416v-4.881h-1.414v-1.128h1.414v-2.014l1.321-.426v2.44h2.078v1.128h-2.083V117.8a1.93,1.93,0,0,0,.282,1.178,1.124,1.124,0,0,0,.934.353,1.39,1.39,0,0,0,.861-.273Z" fill="#5b5b5b" />
        <path d="M733.107,109.933a.836.836,0,0,1-.6-.242.814.814,0,0,1-.25-.613.846.846,0,0,1,.83-.861h.024a.85.85,0,0,1,.615.245.859.859,0,0,1,.006,1.215l-.006.006A.843.843,0,0,1,733.107,109.933Zm.644,10.341h-1.321v-8.247h1.321Z" fill="#5b5b5b" />
        <path d="M742.047,119.9a4.291,4.291,0,0,1-2.255.571,3.736,3.736,0,0,1-2.848-1.148,4.161,4.161,0,0,1-1.083-2.976,4.571,4.571,0,0,1,1.168-3.274,4.084,4.084,0,0,1,3.117-1.236,4.337,4.337,0,0,1,1.917.4v1.353a3.356,3.356,0,0,0-1.965-.644,2.658,2.658,0,0,0-2.075.906,3.444,3.444,0,0,0-.809,2.38,3.279,3.279,0,0,0,.761,2.287,2.626,2.626,0,0,0,2.042.838,3.311,3.311,0,0,0,2.03-.716Z" fill="#5b5b5b" />
        <path d="M743.547,119.976v-1.414a3.907,3.907,0,0,0,2.376.8q1.74,0,1.74-1.159a1,1,0,0,0-.15-.56,1.461,1.461,0,0,0-.4-.406,3.044,3.044,0,0,0-.6-.318c-.227-.094-.471-.192-.736-.295a9.323,9.323,0,0,1-.961-.439,2.876,2.876,0,0,1-.693-.5,1.828,1.828,0,0,1-.418-.633,2.23,2.23,0,0,1-.141-.825,1.971,1.971,0,0,1,.266-1.027,2.356,2.356,0,0,1,.707-.749,3.3,3.3,0,0,1,1.01-.455,4.5,4.5,0,0,1,1.178-.153,4.734,4.734,0,0,1,1.917.37v1.33a3.734,3.734,0,0,0-2.094-.6,2.441,2.441,0,0,0-.668.085,1.626,1.626,0,0,0-.511.236,1.1,1.1,0,0,0-.331.366.972.972,0,0,0-.118.471,1.139,1.139,0,0,0,.118.54,1.19,1.19,0,0,0,.343.386,2.592,2.592,0,0,0,.548.306c.214.092.46.191.733.3a10.247,10.247,0,0,1,.983.431,3.366,3.366,0,0,1,.741.5,1.944,1.944,0,0,1,.471.64,2.058,2.058,0,0,1,.166.861,2.036,2.036,0,0,1-.27,1.06,2.322,2.322,0,0,1-.721.749,3.31,3.31,0,0,1-1.039.443,5.134,5.134,0,0,1-1.232.145A4.681,4.681,0,0,1,743.547,119.976Z" fill="#5b5b5b" />
        <path d="M751.075,122.9H749.9a10.665,10.665,0,0,0,2.513-7.047,10.857,10.857,0,0,0-2.528-7.128h1.192a10.64,10.64,0,0,1,2.513,7.143A10.25,10.25,0,0,1,751.075,122.9Z" fill="#5b5b5b" />
    </g>
    <path d="M707.84,58.778h-1.288V56.21h1.284a4.948,4.948,0,0,0,4.942-4.942V25.033a4.948,4.948,0,0,0-4.942-4.948H659.177a4.948,4.948,0,0,0-4.942,4.948V51.269a4.948,4.948,0,0,0,4.942,4.942h1.284V58.78h-1.284a7.519,7.519,0,0,1-7.51-7.511V25.033a7.519,7.519,0,0,1,7.511-7.511h48.659a7.519,7.519,0,0,1,7.511,7.511V51.269a7.519,7.519,0,0,1-7.511,7.511" />
    <path d="M667.07,50.18h0a3.485,3.485,0,0,1,3.485,3.485h0V61.7a3.485,3.485,0,0,1-3.485,3.485h0a3.485,3.485,0,0,1-3.486-3.484h0V53.665a3.485,3.485,0,0,1,3.485-3.485h0Z" />
    <path d="M678.032,65.187a3.486,3.486,0,0,1-3.486-3.485V41.072a3.486,3.486,0,1,1,6.971-.129q0,.064,0,.129V61.7a3.486,3.486,0,0,1-3.485,3.486" />
    <path d="M699.954,65.085a3.486,3.486,0,0,1-3.486-3.485V32.381a3.486,3.486,0,0,1,6.971-.129q0,.064,0,.129h0V61.6a3.486,3.486,0,0,1-3.485,3.486" />
    <path d="M689,65.187a3.486,3.486,0,0,1-3.486-3.485V46.377a3.486,3.486,0,1,1,6.971-.129q0,.064,0,.129V61.7A3.486,3.486,0,0,1,689,65.187" />
    <path d="M271.976,67.415H250.854v-21h4.326a11.208,11.208,0,0,1-.763-4.2v-.254H246.4v29.9h30.029V54.055h-4.454Z" fill="#a0a1a2" />
    <path d="M301.751,46.42h3.817V67.542H284.446V54.182h-4.454V71.869h30.029v-29.9h-9.416a8.965,8.965,0,0,1,1.145,4.2Z" fill="#a0a1a2" />
    <path d="M250.854,33.7v-21h21.122V24.916a11.807,11.807,0,0,1,4.454-2.036V8.247H246.4v29.9h8.653a12.075,12.075,0,0,1,2.8-4.326l-7-.127Z" fill="#a0a1a2" />
    <path d="M284.446,22.371V12.7h21.122V33.823h-9.289a15.434,15.434,0,0,1,.636,4.326v.127h13.106V8.247H279.992V22.117c.382,0,.636-.127,1.018-.127A31.518,31.518,0,0,1,284.446,22.371Z" fill="#a0a1a2" />
    <path d="M298.314,46.038a4.7,4.7,0,0,0-4.682-4.713h-.667a13.834,13.834,0,0,0,.509-3.308,12.522,12.522,0,0,0-24.431-3.945,9.926,9.926,0,0,0-2.8-.509,8.654,8.654,0,0,0,0,17.305h27.739a4.839,4.839,0,0,0,4.326-4.831" fill="#59b4d9" />
    <g opacity="0.2">
        <path d="M270.831,50.874a8.649,8.649,0,0,1,4.2-14.506,7.03,7.03,0,0,1,2.8-.127,12.622,12.622,0,0,1,7-10.179,12,12,0,0,0-3.817-.636,12.453,12.453,0,0,0-11.834,8.653,9.926,9.926,0,0,0-2.8-.509,8.654,8.654,0,0,0,0,17.305h4.454Z" fill="#fff" />
    </g>
    <g>
        <path d="M435.271,100.481h-1.5l-1.224-3.238h-4.9l-1.153,3.238h-1.506l4.43-11.546h1.4Zm-3.166-4.454-1.812-4.921a4.594,4.594,0,0,1-.177-.773h-.032a4.323,4.323,0,0,1-.185.773l-1.8,4.915Z" fill="#5b5b5b" />
        <path d="M442.544,92.612l-4.881,6.742h4.831v1.128H435.72v-.411l4.881-6.709h-4.422V92.233h6.362Z" fill="#5b5b5b" />
        <path d="M450.921,100.481H449.6v-1.3h-.032a2.71,2.71,0,0,1-2.545,1.5q-2.945,0-2.945-3.511V92.233h1.313v4.72q0,2.61,2,2.61a2.018,2.018,0,0,0,1.591-.707,2.725,2.725,0,0,0,.624-1.865V92.233h1.321Z" fill="#5b5b5b" />
        <path d="M457.887,93.571a1.617,1.617,0,0,0-1-.266,1.684,1.684,0,0,0-1.414.8,3.678,3.678,0,0,0-.568,2.175v4.2h-1.321V92.233h1.321v1.7h.032a2.878,2.878,0,0,1,.861-1.357,1.963,1.963,0,0,1,1.3-.488,2.156,2.156,0,0,1,.789.118Z" fill="#5b5b5b" />
        <path d="M465.733,96.687H459.91a3.085,3.085,0,0,0,.741,2.121,2.554,2.554,0,0,0,1.949.749,4.054,4.054,0,0,0,2.561-.918V99.88a4.786,4.786,0,0,1-2.875.789,3.486,3.486,0,0,1-2.746-1.124,4.6,4.6,0,0,1-1-3.161,4.507,4.507,0,0,1,1.092-3.137,3.5,3.5,0,0,1,2.71-1.212,3.1,3.1,0,0,1,2.5,1.047,4.367,4.367,0,0,1,.886,2.908Zm-1.353-1.119a2.684,2.684,0,0,0-.553-1.78,1.878,1.878,0,0,0-1.509-.636,2.131,2.131,0,0,0-1.587.668,3.036,3.036,0,0,0-.806,1.747Z" fill="#5b5b5b" />
        <path d="M472.424,100.481V88.935h3.189q6.1,0,6.105,5.629a5.674,5.674,0,0,1-1.694,4.3,6.291,6.291,0,0,1-4.54,1.622Zm1.353-10.326v9.1H475.5a4.893,4.893,0,0,0,3.535-1.216,4.562,4.562,0,0,0,1.264-3.447q0-4.438-4.72-4.438Z" fill="#5b5b5b" />
        <path d="M489.716,100.481H488.4V99.192h-.032a2.766,2.766,0,0,1-2.537,1.482,2.71,2.71,0,0,1-1.93-.653,2.262,2.262,0,0,1-.7-1.732q0-2.312,2.723-2.69l2.474-.346q0-2.1-1.7-2.1a4.06,4.06,0,0,0-2.69,1.014V92.813a5.113,5.113,0,0,1,2.8-.773q2.908,0,2.908,3.076ZM488.4,96.309l-1.989.273a3.23,3.23,0,0,0-1.386.455,1.311,1.311,0,0,0-.471,1.156,1.258,1.258,0,0,0,.431.986,1.664,1.664,0,0,0,1.148.383,2.121,2.121,0,0,0,1.624-.688,2.465,2.465,0,0,0,.64-1.744Z" fill="#5b5b5b" />
        <path d="M496.031,100.4a2.546,2.546,0,0,1-1.232.258q-2.166,0-2.167-2.416V93.361h-1.414V92.233h1.414V90.22l1.321-.426v2.44h2.078v1.128h-2.078v4.647a1.93,1.93,0,0,0,.282,1.178,1.124,1.124,0,0,0,.934.353,1.39,1.39,0,0,0,.861-.273Z" fill="#5b5b5b" />
        <path d="M503.7,100.481h-1.323V99.192h-.032a2.766,2.766,0,0,1-2.537,1.482,2.71,2.71,0,0,1-1.93-.653,2.262,2.262,0,0,1-.7-1.732q0-2.312,2.723-2.69l2.474-.346q0-2.1-1.7-2.1a4.06,4.06,0,0,0-2.69,1.014V92.813a5.113,5.113,0,0,1,2.8-.773q2.908,0,2.908,3.076Zm-1.323-4.172-1.989.273a3.23,3.23,0,0,0-1.386.455,1.311,1.311,0,0,0-.471,1.156,1.258,1.258,0,0,0,.431.986,1.664,1.664,0,0,0,1.148.383,2.121,2.121,0,0,0,1.624-.688,2.465,2.465,0,0,0,.64-1.744Z" fill="#5b5b5b" />
        <path d="M507.539,99.288h-.032v1.192h-1.321V88.271h1.321v5.413h.032a3.125,3.125,0,0,1,2.851-1.644,3.022,3.022,0,0,1,2.484,1.107,4.568,4.568,0,0,1,.9,2.968,5.113,5.113,0,0,1-1.006,3.314,3.354,3.354,0,0,1-2.755,1.244A2.71,2.71,0,0,1,507.539,99.288Zm-.032-3.326v1.152a2.456,2.456,0,0,0,.663,1.735,2.372,2.372,0,0,0,3.569-.205,4.214,4.214,0,0,0,.68-2.553,3.33,3.33,0,0,0-.636-2.158,2.107,2.107,0,0,0-1.724-.781,2.339,2.339,0,0,0-1.852.8A2.945,2.945,0,0,0,507.507,95.962Z" fill="#5b5b5b" />
        <path d="M521.569,100.481h-1.321V99.192h-.032a2.766,2.766,0,0,1-2.537,1.482,2.71,2.71,0,0,1-1.929-.653,2.259,2.259,0,0,1-.7-1.732q0-2.312,2.723-2.69l2.474-.346q0-2.1-1.7-2.1a4.058,4.058,0,0,0-2.69,1.014V92.813a5.107,5.107,0,0,1,2.8-.773q2.907,0,2.908,3.076Zm-1.321-4.172-1.989.273a3.223,3.223,0,0,0-1.386.455,1.311,1.311,0,0,0-.471,1.156,1.261,1.261,0,0,0,.43.986,1.667,1.667,0,0,0,1.149.383,2.121,2.121,0,0,0,1.622-.688,2.455,2.455,0,0,0,.641-1.744Z" fill="#5b5b5b" />
        <path d="M523.559,100.183V98.769a3.909,3.909,0,0,0,2.376.8q1.74,0,1.74-1.159a1.008,1.008,0,0,0-.148-.56,1.509,1.509,0,0,0-.4-.406,3.145,3.145,0,0,0-.6-.318c-.229-.094-.471-.192-.738-.295a9.58,9.58,0,0,1-.963-.439,2.946,2.946,0,0,1-.693-.5,1.885,1.885,0,0,1-.418-.633,2.253,2.253,0,0,1-.14-.825,1.971,1.971,0,0,1,.266-1.027,2.356,2.356,0,0,1,.707-.749,3.3,3.3,0,0,1,1.011-.455,4.477,4.477,0,0,1,1.171-.153,4.737,4.737,0,0,1,1.917.37v1.33a3.736,3.736,0,0,0-2.094-.6,2.448,2.448,0,0,0-.668.085,1.65,1.65,0,0,0-.513.236,1.093,1.093,0,0,0-.329.366.96.96,0,0,0-.118.471,1.126,1.126,0,0,0,.118.54,1.178,1.178,0,0,0,.342.386,2.626,2.626,0,0,0,.548.306q.323.137.733.3a10.241,10.241,0,0,1,.983.431,3.4,3.4,0,0,1,.741.5,1.964,1.964,0,0,1,.471.64,2.077,2.077,0,0,1,.165.861,2.025,2.025,0,0,1-.27,1.06,2.307,2.307,0,0,1-.72.749,3.309,3.309,0,0,1-1.039.443,5.134,5.134,0,0,1-1.232.145A4.678,4.678,0,0,1,523.559,100.183Z" fill="#5b5b5b" />
        <path d="M537.685,96.687h-5.823a3.085,3.085,0,0,0,.741,2.121,2.554,2.554,0,0,0,1.949.749,4.054,4.054,0,0,0,2.561-.918V99.88a4.786,4.786,0,0,1-2.875.789,3.486,3.486,0,0,1-2.746-1.124,4.6,4.6,0,0,1-1-3.161,4.507,4.507,0,0,1,1.092-3.137,3.5,3.5,0,0,1,2.71-1.212,3.1,3.1,0,0,1,2.5,1.047,4.367,4.367,0,0,1,.886,2.908Zm-1.353-1.119a2.684,2.684,0,0,0-.553-1.78,1.878,1.878,0,0,0-1.509-.636,2.131,2.131,0,0,0-1.587.668,3.036,3.036,0,0,0-.806,1.747Z" fill="#5b5b5b" />
        <path d="M434.928,109.224a1.757,1.757,0,0,0-.877-.218q-1.386,0-1.386,1.747v1.272H434.6v1.128h-1.933v7.12h-1.314v-7.119h-1.414v-1.128h1.414V110.69a2.779,2.779,0,0,1,.75-2.05,2.527,2.527,0,0,1,1.869-.753,2.58,2.58,0,0,1,.958.145Z" fill="#5b5b5b" />
        <path d="M439.459,120.467a3.826,3.826,0,0,1-2.921-1.156,4.281,4.281,0,0,1-1.091-3.063A4.459,4.459,0,0,1,436.582,113a4.086,4.086,0,0,1,3.069-1.168,3.7,3.7,0,0,1,2.878,1.136,4.5,4.5,0,0,1,1.036,3.149,4.432,4.432,0,0,1-1.116,3.161A3.907,3.907,0,0,1,439.459,120.467Zm.1-7.523a2.512,2.512,0,0,0-2.014.866,3.551,3.551,0,0,0-.741,2.388,3.363,3.363,0,0,0,.748,2.312,2.548,2.548,0,0,0,2,.846,2.414,2.414,0,0,0,1.969-.825,3.6,3.6,0,0,0,.689-2.356,3.662,3.662,0,0,0-.689-2.383,2.4,2.4,0,0,0-1.96-.847Z" fill="#5b5b5b" />
        <path d="M449.983,113.364a1.617,1.617,0,0,0-1-.266,1.686,1.686,0,0,0-1.414.8A3.686,3.686,0,0,0,447,116.07v4.2h-1.321v-8.247H447v1.7h.032a2.876,2.876,0,0,1,.86-1.357,1.965,1.965,0,0,1,1.3-.488,2.156,2.156,0,0,1,.789.118Z" fill="#5b5b5b" />
        <path d="M457.463,115.909v4.365h-1.353V108.728h3.173a4.188,4.188,0,0,1,2.872.9,3.222,3.222,0,0,1,1.019,2.545,3.5,3.5,0,0,1-1.132,2.69,4.324,4.324,0,0,1-3.056,1.047Zm0-5.96v4.736h1.414a3.17,3.17,0,0,0,2.143-.637,2.268,2.268,0,0,0,.738-1.809q0-2.288-2.71-2.287Z" fill="#5b5b5b" />
        <path d="M468.007,120.467a3.826,3.826,0,0,1-2.921-1.156,4.281,4.281,0,0,1-1.091-3.063A4.459,4.459,0,0,1,465.13,113a4.086,4.086,0,0,1,3.069-1.168,3.7,3.7,0,0,1,2.878,1.136,4.5,4.5,0,0,1,1.036,3.149A4.432,4.432,0,0,1,471,119.281,3.907,3.907,0,0,1,468.007,120.467Zm.1-7.523a2.512,2.512,0,0,0-2.014.866,3.551,3.551,0,0,0-.741,2.388,3.363,3.363,0,0,0,.748,2.312,2.548,2.548,0,0,0,2,.846,2.414,2.414,0,0,0,1.969-.825,3.6,3.6,0,0,0,.689-2.356,3.662,3.662,0,0,0-.689-2.383,2.4,2.4,0,0,0-1.964-.847Z" fill="#5b5b5b" />
        <path d="M473.726,119.976v-1.414a3.906,3.906,0,0,0,2.375.8q1.74,0,1.74-1.159a1.008,1.008,0,0,0-.148-.56,1.493,1.493,0,0,0-.4-.406,3.111,3.111,0,0,0-.6-.318c-.229-.094-.471-.192-.738-.295a9.439,9.439,0,0,1-.961-.439,2.92,2.92,0,0,1-.693-.5,1.862,1.862,0,0,1-.418-.633,2.228,2.228,0,0,1-.14-.825,1.97,1.97,0,0,1,.265-1.027,2.366,2.366,0,0,1,.707-.749,3.309,3.309,0,0,1,1.011-.455,4.5,4.5,0,0,1,1.178-.153,4.737,4.737,0,0,1,1.917.37v1.33a3.736,3.736,0,0,0-2.094-.6,2.456,2.456,0,0,0-.669.085,1.65,1.65,0,0,0-.511.236,1.085,1.085,0,0,0-.33.366.96.96,0,0,0-.118.471,1.126,1.126,0,0,0,.118.54,1.186,1.186,0,0,0,.342.386,2.654,2.654,0,0,0,.548.306q.323.137.734.3a10.241,10.241,0,0,1,.983.431,3.4,3.4,0,0,1,.741.5,1.961,1.961,0,0,1,.471.64,2.077,2.077,0,0,1,.165.861,2.036,2.036,0,0,1-.27,1.06,2.307,2.307,0,0,1-.72.749,3.317,3.317,0,0,1-1.04.443,5.118,5.118,0,0,1-1.231.145A4.679,4.679,0,0,1,473.726,119.976Z" fill="#5b5b5b" />
        <path d="M485.055,120.194a2.548,2.548,0,0,1-1.234.258q-2.166,0-2.166-2.416v-4.881h-1.414v-1.128h1.414v-2.014l1.321-.426v2.44h2.078v1.128h-2.078V117.8a1.931,1.931,0,0,0,.28,1.178,1.125,1.125,0,0,0,.934.353,1.391,1.391,0,0,0,.862-.273Z" fill="#5b5b5b" />
        <path d="M493.723,119.613q0,4.542-4.349,4.542a5.843,5.843,0,0,1-2.674-.58v-1.321a5.5,5.5,0,0,0,2.658.773q3.044,0,3.044-3.238v-.9h-.032a3.337,3.337,0,0,1-5.311.48,4.392,4.392,0,0,1-.943-2.951,5.132,5.132,0,0,1,1.011-3.342,3.377,3.377,0,0,1,2.768-1.241,2.686,2.686,0,0,1,2.474,1.337h.032v-1.144h1.321ZM492.4,116.55v-1.221a2.356,2.356,0,0,0-.663-1.684,2.189,2.189,0,0,0-1.655-.7,2.3,2.3,0,0,0-1.917.89,3.975,3.975,0,0,0-.693,2.493,3.417,3.417,0,0,0,.664,2.2,2.147,2.147,0,0,0,1.76.825,2.3,2.3,0,0,0,1.807-.789,2.945,2.945,0,0,0,.7-2.021Z" fill="#5b5b5b" />
        <path d="M500.7,113.364a1.614,1.614,0,0,0-1-.266,1.685,1.685,0,0,0-1.414.8,3.687,3.687,0,0,0-.568,2.175v4.2H496.4v-8.247h1.321v1.7h.032a2.888,2.888,0,0,1,.862-1.357,1.962,1.962,0,0,1,1.3-.488,2.148,2.148,0,0,1,.789.118Z" fill="#5b5b5b" />
        <path d="M508.542,116.48H502.72a3.08,3.08,0,0,0,.741,2.121,2.553,2.553,0,0,0,1.949.749,4.054,4.054,0,0,0,2.561-.918v1.241a4.789,4.789,0,0,1-2.876.789,3.484,3.484,0,0,1-2.745-1.124,4.6,4.6,0,0,1-1-3.161,4.511,4.511,0,0,1,1.091-3.137,3.5,3.5,0,0,1,2.71-1.212,3.1,3.1,0,0,1,2.5,1.047,4.359,4.359,0,0,1,.886,2.908Zm-1.353-1.119a2.683,2.683,0,0,0-.551-1.78,1.885,1.885,0,0,0-1.51-.636,2.131,2.131,0,0,0-1.586.668,3.029,3.029,0,0,0-.806,1.747Z" fill="#5b5b5b" />
        <path d="M510.177,119.806v-1.6a3.063,3.063,0,0,0,.656.435,5.335,5.335,0,0,0,.806.326,6.417,6.417,0,0,0,.849.205,4.745,4.745,0,0,0,.789.073,3.09,3.09,0,0,0,1.865-.463,1.739,1.739,0,0,0,.41-2.148,2.316,2.316,0,0,0-.568-.633,5.626,5.626,0,0,0-.858-.548q-.495-.262-1.066-.551-.6-.306-1.128-.62a4.863,4.863,0,0,1-.911-.693,2.886,2.886,0,0,1-.608-.858,2.932,2.932,0,0,1,.124-2.5,2.974,2.974,0,0,1,.911-.963,4.11,4.11,0,0,1,1.284-.564,5.88,5.88,0,0,1,1.47-.185,5.626,5.626,0,0,1,2.487.411v1.522a4.51,4.51,0,0,0-2.626-.707,4.341,4.341,0,0,0-.886.093,2.5,2.5,0,0,0-.789.3,1.757,1.757,0,0,0-.564.54,1.432,1.432,0,0,0-.217.806,1.65,1.65,0,0,0,.165.765,1.876,1.876,0,0,0,.487.589,4.829,4.829,0,0,0,.786.516q.463.25,1.066.548t1.178.644a5.4,5.4,0,0,1,.976.749,3.356,3.356,0,0,1,.663.91,2.564,2.564,0,0,1,.245,1.144,2.9,2.9,0,0,1-.333,1.446,2.745,2.745,0,0,1-.9.963,3.936,3.936,0,0,1-1.309.536,7.176,7.176,0,0,1-1.562.165,6.443,6.443,0,0,1-.676-.045q-.4-.044-.825-.128a6.7,6.7,0,0,1-.793-.21A2.464,2.464,0,0,1,510.177,119.806Z" fill="#5b5b5b" />
        <path d="M524.134,120.467a5.1,5.1,0,0,1-3.937-1.619,6.016,6.016,0,0,1-1.475-4.212,6.342,6.342,0,0,1,1.507-4.445,5.272,5.272,0,0,1,4.1-1.659,4.957,4.957,0,0,1,3.85,1.611,6.009,6.009,0,0,1,1.466,4.212,6.382,6.382,0,0,1-1.5,4.47,4.418,4.418,0,0,1-.758.676l3.247,2.328h-2.459L526,120.2A6.257,6.257,0,0,1,524.134,120.467Zm.1-10.712a3.723,3.723,0,0,0-2.955,1.312,5.083,5.083,0,0,0-1.137,3.447,5.162,5.162,0,0,0,1.105,3.439,3.626,3.626,0,0,0,2.89,1.3,3.79,3.79,0,0,0,3-1.241,5.066,5.066,0,0,0,1.1-3.471,5.277,5.277,0,0,0-1.06-3.535A3.644,3.644,0,0,0,524.23,109.755Z" fill="#5b5b5b" />
        <path d="M537.907,120.274h-5.992V108.728h1.353v10.326h4.64Z" fill="#5b5b5b" />
        <path d="M407.668,142.694h-1.178a10.29,10.29,0,0,1-2.5-7.031,10.68,10.68,0,0,1,2.5-7.143h1.192a10.851,10.851,0,0,0-2.528,7.128A10.665,10.665,0,0,0,407.668,142.694Z" fill="#5b5b5b" />
        <path d="M415.222,129.743h-4.51v4h4.172v1.216h-4.172v5.114h-1.353V128.522h5.864Z" fill="#5b5b5b" />
        <path d="M417.912,129.727a.839.839,0,0,1-.606-.242.818.818,0,0,1-.249-.613.844.844,0,0,1,.826-.861h.029a.855.855,0,0,1,.621,1.46l-.006.006A.845.845,0,0,1,417.912,129.727Zm.644,10.341h-1.321V131.82h1.321Z" fill="#5b5b5b" />
        <path d="M428.076,140.067h-1.321v-4.7q0-2.626-1.917-2.626a2.079,2.079,0,0,0-1.64.745,2.759,2.759,0,0,0-.648,1.885v4.7H421.23v-8.247h1.321v1.369h.032a2.975,2.975,0,0,1,2.71-1.562,2.52,2.52,0,0,1,2.069.874,3.888,3.888,0,0,1,.718,2.525Z" fill="#5b5b5b" />
        <path d="M436.468,140.067h-1.321v-1.289h-.032a2.768,2.768,0,0,1-2.538,1.482,2.71,2.71,0,0,1-1.929-.653,2.259,2.259,0,0,1-.7-1.732q0-2.312,2.723-2.69l2.474-.346q0-2.1-1.7-2.1a4.062,4.062,0,0,0-2.69,1.014V132.4a5.113,5.113,0,0,1,2.8-.773q2.908,0,2.909,3.076Zm-1.321-4.172-1.99.273a3.23,3.23,0,0,0-1.386.455,1.315,1.315,0,0,0-.471,1.156,1.258,1.258,0,0,0,.431.986,1.664,1.664,0,0,0,1.148.383,2.121,2.121,0,0,0,1.624-.688,2.46,2.46,0,0,0,.641-1.744Z" fill="#5b5b5b" />
        <path d="M445.8,140.067h-1.321v-4.7q0-2.626-1.917-2.626a2.08,2.08,0,0,0-1.639.745,2.759,2.759,0,0,0-.649,1.885v4.7h-1.321v-8.247h1.321v1.369h.032a2.978,2.978,0,0,1,2.71-1.562,2.526,2.526,0,0,1,2.071.874,3.9,3.9,0,0,1,.715,2.525Z" fill="#5b5b5b" />
        <path d="M453.913,139.689a4.291,4.291,0,0,1-2.255.571,3.734,3.734,0,0,1-2.848-1.148,4.157,4.157,0,0,1-1.083-2.976,4.576,4.576,0,0,1,1.166-3.274,4.087,4.087,0,0,1,3.117-1.236,4.337,4.337,0,0,1,1.917.4v1.353a3.359,3.359,0,0,0-1.965-.644,2.657,2.657,0,0,0-2.075.906,3.438,3.438,0,0,0-.809,2.38,3.274,3.274,0,0,0,.761,2.287,2.624,2.624,0,0,0,2.042.838,3.311,3.311,0,0,0,2.03-.716Z" fill="#5b5b5b" />
        <path d="M456.587,129.727a.839.839,0,0,1-.606-.242.818.818,0,0,1-.249-.613.844.844,0,0,1,.826-.861h.029a.855.855,0,0,1,.621,1.46l-.006.006A.845.845,0,0,1,456.587,129.727Zm.644,10.341H455.91V131.82h1.321Z" fill="#5b5b5b" />
        <path d="M465.807,140.067h-1.321v-1.289h-.032a2.764,2.764,0,0,1-2.535,1.482,2.71,2.71,0,0,1-1.93-.653,2.259,2.259,0,0,1-.7-1.732q0-2.312,2.723-2.69l2.474-.346q0-2.1-1.7-2.1a4.058,4.058,0,0,0-2.69,1.014V132.4a5.107,5.107,0,0,1,2.8-.773q2.907,0,2.907,3.076Zm-1.321-4.172-1.988.273a3.223,3.223,0,0,0-1.386.455,1.311,1.311,0,0,0-.471,1.156,1.257,1.257,0,0,0,.43.986,1.667,1.667,0,0,0,1.149.383,2.121,2.121,0,0,0,1.622-.688,2.46,2.46,0,0,0,.64-1.744Z" fill="#5b5b5b" />
        <path d="M469.621,140.067H468.3V127.858h1.321Z" fill="#5b5b5b" />
        <path d="M483.848,140.067h-1.321v-1.4H482.5a3.049,3.049,0,0,1-2.835,1.6,3.081,3.081,0,0,1-2.484-1.107,4.543,4.543,0,0,1-.931-3.016,4.948,4.948,0,0,1,1.031-3.278,3.4,3.4,0,0,1,2.748-1.232,2.643,2.643,0,0,1,2.474,1.337h.032v-5.106h1.321Zm-1.321-3.729v-1.216a2.356,2.356,0,0,0-.661-1.692,2.214,2.214,0,0,0-1.675-.693,2.281,2.281,0,0,0-1.9.886,3.888,3.888,0,0,0-.693,2.448,3.492,3.492,0,0,0,.664,2.251,2.171,2.171,0,0,0,1.784.825,2.256,2.256,0,0,0,1.792-.8A2.97,2.97,0,0,0,482.528,136.338Z" fill="#5b5b5b" />
        <path d="M492.427,140.067h-1.321v-1.289h-.032a2.768,2.768,0,0,1-2.538,1.482,2.71,2.71,0,0,1-1.929-.653,2.259,2.259,0,0,1-.7-1.732q0-2.312,2.723-2.69l2.474-.346q0-2.1-1.7-2.1a4.062,4.062,0,0,0-2.69,1.014V132.4a5.113,5.113,0,0,1,2.8-.773q2.908,0,2.909,3.076Zm-1.321-4.172-1.99.273a3.23,3.23,0,0,0-1.386.455,1.315,1.315,0,0,0-.471,1.156,1.258,1.258,0,0,0,.431.986,1.664,1.664,0,0,0,1.148.383,2.121,2.121,0,0,0,1.624-.688,2.46,2.46,0,0,0,.641-1.744Z" fill="#5b5b5b" />
        <path d="M498.741,139.987a2.548,2.548,0,0,1-1.234.258q-2.166,0-2.166-2.416v-4.881h-1.414V131.82h1.414v-2.014l1.321-.426v2.44h2.078v1.128h-2.078v4.647a1.931,1.931,0,0,0,.28,1.178,1.125,1.125,0,0,0,.934.353,1.391,1.391,0,0,0,.862-.273Z" fill="#5b5b5b" />
        <path d="M506.408,140.067h-1.324v-1.289h-.032a2.768,2.768,0,0,1-2.538,1.482,2.71,2.71,0,0,1-1.929-.653,2.259,2.259,0,0,1-.7-1.732q0-2.312,2.723-2.69l2.474-.346q0-2.1-1.7-2.1a4.062,4.062,0,0,0-2.69,1.014V132.4a5.113,5.113,0,0,1,2.8-.773q2.908,0,2.909,3.076Zm-1.321-4.172-1.99.273a3.23,3.23,0,0,0-1.386.455,1.315,1.315,0,0,0-.471,1.156,1.258,1.258,0,0,0,.431.986,1.664,1.664,0,0,0,1.148.383,2.121,2.121,0,0,0,1.624-.688,2.46,2.46,0,0,0,.641-1.744Z" fill="#5b5b5b" />
        <path d="M512.916,139.769v-1.414a3.906,3.906,0,0,0,2.375.8q1.74,0,1.74-1.159a1.008,1.008,0,0,0-.148-.56,1.493,1.493,0,0,0-.4-.406,3.111,3.111,0,0,0-.6-.318c-.229-.094-.471-.192-.738-.295a9.439,9.439,0,0,1-.961-.439,2.92,2.92,0,0,1-.693-.5,1.862,1.862,0,0,1-.418-.633,2.228,2.228,0,0,1-.14-.825,1.97,1.97,0,0,1,.265-1.027,2.366,2.366,0,0,1,.707-.749,3.309,3.309,0,0,1,1.011-.455,4.5,4.5,0,0,1,1.178-.153,4.737,4.737,0,0,1,1.917.37v1.337a3.736,3.736,0,0,0-2.094-.6,2.456,2.456,0,0,0-.669.085,1.65,1.65,0,0,0-.511.236,1.085,1.085,0,0,0-.33.366.96.96,0,0,0-.118.471,1.126,1.126,0,0,0,.118.54,1.186,1.186,0,0,0,.342.386,2.654,2.654,0,0,0,.548.306q.323.137.734.3a10.241,10.241,0,0,1,.983.431,3.4,3.4,0,0,1,.741.5,1.961,1.961,0,0,1,.471.64,2.077,2.077,0,0,1,.165.861,2.036,2.036,0,0,1-.27,1.06,2.307,2.307,0,0,1-.72.749,3.317,3.317,0,0,1-1.04.443,5.118,5.118,0,0,1-1.231.145A4.678,4.678,0,0,1,512.916,139.769Z" fill="#5b5b5b" />
        <path d="M523.86,140.261a3.824,3.824,0,0,1-2.92-1.156,4.278,4.278,0,0,1-1.092-3.063,4.459,4.459,0,0,1,1.137-3.246,4.081,4.081,0,0,1,3.063-1.168,3.7,3.7,0,0,1,2.879,1.136,4.507,4.507,0,0,1,1.034,3.149,4.432,4.432,0,0,1-1.115,3.161A3.909,3.909,0,0,1,523.86,140.261Zm.1-7.523a2.514,2.514,0,0,0-2.014.866,3.558,3.558,0,0,0-.741,2.388,3.363,3.363,0,0,0,.75,2.312,2.544,2.544,0,0,0,2,.846,2.416,2.416,0,0,0,1.97-.825,3.6,3.6,0,0,0,.688-2.356,3.662,3.662,0,0,0-.688-2.383,2.4,2.4,0,0,0-1.969-.846Z" fill="#5b5b5b" />
        <path d="M536.746,140.067h-1.321v-1.3h-.032a2.71,2.71,0,0,1-2.545,1.5q-2.945,0-2.945-3.511V131.82h1.314v4.72q0,2.61,2,2.61a2.021,2.021,0,0,0,1.591-.707,2.725,2.725,0,0,0,.623-1.865v-4.752h1.321Z" fill="#5b5b5b" />
        <path d="M543.714,133.157a1.617,1.617,0,0,0-1-.266,1.686,1.686,0,0,0-1.414.8,3.686,3.686,0,0,0-.567,2.175v4.2h-1.321V131.82h1.321v1.7h.032a2.876,2.876,0,0,1,.86-1.357,1.965,1.965,0,0,1,1.3-.488,2.156,2.156,0,0,1,.789.118Z" fill="#5b5b5b" />
        <path d="M550.551,139.689a4.288,4.288,0,0,1-2.255.571,3.732,3.732,0,0,1-2.846-1.148,4.158,4.158,0,0,1-1.084-2.976,4.572,4.572,0,0,1,1.169-3.274,4.081,4.081,0,0,1,3.116-1.236,4.333,4.333,0,0,1,1.917.4v1.353a3.357,3.357,0,0,0-1.965-.644,2.656,2.656,0,0,0-2.074.906,3.438,3.438,0,0,0-.809,2.38,3.274,3.274,0,0,0,.761,2.287,2.621,2.621,0,0,0,2.041.838,3.306,3.306,0,0,0,2.03-.716Z" fill="#5b5b5b" />
        <path d="M559.177,136.275h-5.824a3.09,3.09,0,0,0,.741,2.121,2.557,2.557,0,0,0,1.949.749,4.049,4.049,0,0,0,2.561-.918v1.241a4.782,4.782,0,0,1-2.874.789,3.489,3.489,0,0,1-2.748-1.124,4.6,4.6,0,0,1-1-3.161,4.507,4.507,0,0,1,1.092-3.137,3.5,3.5,0,0,1,2.71-1.212,3.1,3.1,0,0,1,2.506,1.047,4.367,4.367,0,0,1,.886,2.908Zm-1.353-1.119a2.69,2.69,0,0,0-.548-1.786,1.885,1.885,0,0,0-1.509-.636,2.134,2.134,0,0,0-1.588.668,3.036,3.036,0,0,0-.806,1.747Z" fill="#5b5b5b" />
        <path d="M561.207,142.694h-1.178a10.665,10.665,0,0,0,2.513-7.047,10.857,10.857,0,0,0-2.528-7.128h1.192a10.64,10.64,0,0,1,2.513,7.143A10.25,10.25,0,0,1,561.207,142.694Z" fill="#5b5b5b" />
    </g>
    <path d="M309.375,252.667h2.77v-61.8H257.959c-1.731.173-5.367,4.5-5.367,5.02V255.61a3.287,3.287,0,0,0,3.285,3.289h49.343V257.86Z" fill="#0072c6" />
    <path d="M260.383,193.634a4.108,4.108,0,0,0-3.463,1.384c-2.945,2.592.693,2.592,2.077,2.592h46.222v60.245l4.154-5.367V193.634Z" fill="#e5e5e5" />
    <path d="M260.383,227.566a2.367,2.367,0,0,1-2.309,2.424H250a2.367,2.367,0,0,1-2.424-2.309q0-.057,0-.114h0a2.367,2.367,0,0,1,2.309-2.424h8.078a2.272,2.272,0,0,1,2.424,2.424Z" fill="#a0a1a2" />
    <path d="M260.383,209.734a2.367,2.367,0,0,1-2.309,2.424H250a2.367,2.367,0,0,1-2.424-2.309q0-.057,0-.114h0a2.367,2.367,0,0,1,2.309-2.424h8.078A2.474,2.474,0,0,1,260.383,209.734Z" fill="#a0a1a2" />
    <path d="M260.383,245.223a2.367,2.367,0,0,1-2.309,2.424H250a2.367,2.367,0,0,1-2.424-2.309q0-.057,0-.114h0a2.367,2.367,0,0,1,2.309-2.424h8.078a2.367,2.367,0,0,1,2.424,2.309Q260.384,245.166,260.383,245.223Z" fill="#a0a1a2" />
    <path d="M281.669,238.411v3.437h-2.313v-3.342a12.928,12.928,0,0,1-5.987-1.457v-4.389a9.213,9.213,0,0,0,2.74,1.378,12.606,12.606,0,0,0,3.247.729V229a12.246,12.246,0,0,1-5.06-2.985,5.88,5.88,0,0,1-1.355-3.921,5.759,5.759,0,0,1,1.759-4.241,7.387,7.387,0,0,1,4.656-2.036v-2.945h2.313v2.883a11.728,11.728,0,0,1,4.99,1.077v4.277a11.982,11.982,0,0,0-4.99-1.649v6.009a12.724,12.724,0,0,1,4.974,2.859,5.484,5.484,0,0,1,1.5,3.888,5.6,5.6,0,0,1-1.679,4.241A8.02,8.02,0,0,1,281.669,238.411Zm-2.313-13.86v-5.021q-2.2.4-2.2,2.3,0,1.632,2.2,2.725Zm2.313,5.354v4.8q2.266-.353,2.266-2.266.006-1.553-2.266-2.534Z" fill="#fff" />
    <g>
        <rect x="279.476" y="119.779" width="1.767" height="50.343" fill="#969696" />
        <polygon points="286.528 168.318 280.359 179 274.191 168.318 286.528 168.318" fill="#969696" />
        <polygon points="286.528 121.584 280.359 110.902 274.191 121.584 286.528 121.584" fill="#969696" />
    </g>
    <g>
        <path d="M451.782,8.74V57.529c0,5.136,11.473,9.19,25.54,9.19V8.74Z" fill="#3998c5" />
        <path d="M477.322,66.543h.4c13.981,0,25.14-4.042,25.14-9.163V8.74H477.322Z" fill="#59b3d8" />
        <path d="M502.464,9.19c0,5-11.353,9.19-25.273,9.19s-25.409-4.19-25.409-9.19S463.135,0,477.055,0s25.409,4.19,25.409,9.19" fill="#fff" />
        <path d="M497.322,8.649c0,3.379-9.054,6.082-20.137,6.082s-20.265-2.7-20.265-6.082,9.048-6.082,20.135-6.082,20.265,2.7,20.265,6.082" fill="#7fb900" />
        <path d="M493,12.3c2.7-1.074,4.19-2.3,4.19-3.652,0-3.379-9.054-6.082-20.137-6.082s-20.137,2.7-20.137,6.082c0,1.351,1.621,2.7,4.19,3.652,3.652-1.487,9.46-2.3,15.948-2.3A49.259,49.259,0,0,1,493,12.3" fill="#b7d332" />
        <path d="M491.364,45.429c-4.022.825-4.3-.537-4.3-.537,4.241-6.3,6.023-14.3,4.49-16.259-4.179-5.339-11.419-2.815-11.534-2.749l-.039.007a14.346,14.346,0,0,0-2.686-.279,6.631,6.631,0,0,0-4.247,1.271s-12.907-5.317-12.307,6.685c.134,2.552,3.661,19.322,7.874,14.256,1.54-1.852,3.028-3.417,3.028-3.417a3.907,3.907,0,0,0,2.552.652l.073-.06a2.812,2.812,0,0,0,.029.722c-1.085,1.209-.767,1.426-2.937,1.872-2.195.452-.9,1.257-.065,1.468a4.461,4.461,0,0,0,4.979-1.612l-.065.256a7.254,7.254,0,0,1,.672,3.919,10.806,10.806,0,0,0,.251,3.777c.335.911.672,2.962,3.522,2.356a4.207,4.207,0,0,0,3.79-4.042c.118-1.568.4-1.343.415-2.74l.221-.663c.256-2.128.04-2.815,1.507-2.494l.353.031a8.129,8.129,0,0,0,3.326-.56c1.788-.825,2.848-2.215,1.085-1.851Z" fill="#336790" />
        <g>
            <path d="M474.385,34.9a1.712,1.712,0,0,0-.582-.181,1.247,1.247,0,0,0-.857.118.312.312,0,0,0-.134.209c-.038.269.362.774.861.844a.919.919,0,0,0,.118.008.943.943,0,0,0,.852-.547l.013-.047C474.676,35.22,474.657,35.051,474.385,34.9Z" fill="#fff" />
            <path d="M485.5,34.482a1.6,1.6,0,0,0-.577-.012c-.418.06-.825.247-.788.495l.007.025a.852.852,0,0,0,.776.5.872.872,0,0,0,.11-.007,1.018,1.018,0,0,0,.573-.315.654.654,0,0,0,.217-.437C485.8,34.614,485.683,34.521,485.5,34.482Z" fill="#fff" />
        </g>
        <path d="M492.58,45.377c-.193-.589-1.04-.416-1.318-.353-2.828.589-3.628.008-3.793-.154a33.033,33.033,0,0,0,4.384-9.855c.783-3.134.768-5.621-.034-6.646a9.162,9.162,0,0,0-7.12-3.519,13.778,13.778,0,0,0-4.762.635l-.034.008-.054.019h0l-.048.019a11.087,11.087,0,0,0-2.521-.328,7.155,7.155,0,0,0-4.264,1.209,18.652,18.652,0,0,0-4.078-1.025,8.432,8.432,0,0,0-6.028,1.085c-1.869,1.325-2.736,3.708-2.567,7.077.082,1.589,2.407,14.248,6.057,15.466a2.23,2.23,0,0,0,2.474-.984c1.3-1.563,2.515-2.862,2.821-3.181a4.452,4.452,0,0,0,2.121.564,1.912,1.912,0,0,0,.018.224c-.134.152-.256.305-.383.471-.488.621-.6.767-2.184,1.093-.641.134-1.494.382-1.507,1.017s.879,1.034,1.406,1.165a4.8,4.8,0,0,0,4.894-1.185,32.6,32.6,0,0,0,.471,7.523,3.5,3.5,0,0,0,3.364,2.592,5.4,5.4,0,0,0,1.123-.127,4.254,4.254,0,0,0,3.91-3.99c.236-1.343.635-4.609.806-6.253a4.145,4.145,0,0,0,1.507.229,8.337,8.337,0,0,0,3.165-.6C491.417,47.1,492.831,46.127,492.58,45.377Zm-7.193,1.75c-.07.918-.6,5.338-.875,6.942a3.555,3.555,0,0,1-3.341,3.384,2.828,2.828,0,0,1-3.582-1.779h0q-.039-.118-.068-.236a39.7,39.7,0,0,1-.39-8.767.353.353,0,0,0-.038-.164,1.9,1.9,0,0,0-.068-.336,1.847,1.847,0,0,0-.907-1.1l-.045-.022a1.343,1.343,0,0,0-1.17-.07,9.513,9.513,0,0,1,.482-1.532l.075-.2c.086-.236.19-.461.3-.715.589-1.316,1.4-3.116.52-7.2a2.481,2.481,0,0,0-2.852-2.044h0q-.074.012-.147.029a7.315,7.315,0,0,0-2.837,1.012,10.873,10.873,0,0,1,2.492-6.637,6.154,6.154,0,0,1,4.641-1.746A9.573,9.573,0,0,1,484.561,29a11.326,11.326,0,0,1,2.552,4.192c-1.917-.23-3.206.118-3.84,1.019-1.343,1.929.783,5.751,1.809,7.589.174.313.353.636.412.774a6.79,6.79,0,0,0,1.082,1.737,3.668,3.668,0,0,1,.362.5l-.087.025c-.543.146-1.558.431-1.466,2.292Zm-18.819.994c-1.2-.4-2.535-2.81-3.756-6.783a43.4,43.4,0,0,1-1.7-7.762c-.152-3.049.589-5.178,2.217-6.328a6.586,6.586,0,0,1,3.837-1.032,16.6,16.6,0,0,1,5.007.91h0a3.1,3.1,0,0,0-.236.212c-2.79,2.816-2.691,7.651-2.686,7.854v.024a23.239,23.239,0,0,1-.081,4.523,4.973,4.973,0,0,0,1.31,4.164,4.335,4.335,0,0,0,.445.4c-.457.485-1.545,1.665-2.72,3.081h0c-.566.676-1.1.918-1.641.74Zm4.033-8.247a24.181,24.181,0,0,0,.094-4.641,5.655,5.655,0,0,1,3.762-1.178,1.628,1.628,0,0,1,1.369,1.424c.825,3.841.108,5.446-.471,6.737-.112.249-.227.505-.323.759l-.075.2a11.81,11.81,0,0,0-.485,1.49A3.652,3.652,0,0,1,471.73,43.5a4.333,4.333,0,0,1-1.128-3.633Zm3.943,6.056a.36.36,0,0,0,.035-.045.616.616,0,0,1,.825-.2l.06.031a1.13,1.13,0,0,1,.49,1.477,4.1,4.1,0,0,1-4.587,1.477h0a1.972,1.972,0,0,1-.859-.422,2.057,2.057,0,0,1,.9-.325c1.767-.362,2.015-.6,2.616-1.36.134-.172.3-.383.524-.632Zm11.325-3.644c-.07-.171-.226-.449-.441-.835l-.009-.016c-.878-1.573-2.931-5.257-1.847-6.807a2.456,2.456,0,0,1,2.129-.773,8.837,8.837,0,0,1,1.163.087,9.606,9.606,0,0,1-.146,1.543,12.834,12.834,0,0,0-.174,1.634,12.27,12.27,0,0,0,.134,1.851,6.541,6.541,0,0,1-.415,4.066,4.932,4.932,0,0,1-.392-.754Zm4.9-6.7a37.1,37.1,0,0,1-3.849,8.545c-.06-.086-.134-.181-.229-.3l-.086-.11-.025-.029a6.865,6.865,0,0,0,.672-4.831,11.665,11.665,0,0,1-.118-1.728,12.347,12.347,0,0,1,.163-1.559,9.369,9.369,0,0,0,.153-1.885.616.616,0,0,0,.02-.236,11.507,11.507,0,0,0-6.591-7.54c6.016-1.469,9.136,1.532,10.21,2.894.806,1.025.687,3.43-.322,6.77Zm-4.015,9.941a2.164,2.164,0,0,0,.269-.088,1.818,1.818,0,0,0,.189.144,6.009,6.009,0,0,0,4.213.153,2.3,2.3,0,0,1,.386-.051,4.8,4.8,0,0,1-1.7,1.209,6.6,6.6,0,0,1-4.2.31c-.073-.042-.088-.074-.09-.082-.075-1.305.437-1.449.943-1.589Z" fill="#fff" />
    </g>
    <g>
        <path d="M0,97.236V85.69H3.286a3.6,3.6,0,0,1,2.378.733,2.369,2.369,0,0,1,.877,1.909,2.809,2.809,0,0,1-.531,1.7,2.864,2.864,0,0,1-1.466,1.031V91.1a2.945,2.945,0,0,1,1.869.882,2.71,2.71,0,0,1,.707,1.937,3.02,3.02,0,0,1-1.06,2.4,3.96,3.96,0,0,1-2.683.918ZM1.353,86.91v3.729H2.738A2.633,2.633,0,0,0,4.486,90.1a1.867,1.867,0,0,0,.636-1.5q0-1.684-2.214-1.684Zm0,4.948v4.155H3.189a2.755,2.755,0,0,0,1.849-.564A1.932,1.932,0,0,0,5.7,93.9q0-2.046-2.786-2.045Z" fill="#5b5b5b" />
        <path d="M13.578,90.326a1.614,1.614,0,0,0-1-.266,1.685,1.685,0,0,0-1.414.8,3.687,3.687,0,0,0-.562,2.175v4.2H9.278V88.989H10.6v1.7h.032A2.888,2.888,0,0,1,11.5,89.33a1.962,1.962,0,0,1,1.3-.488,2.148,2.148,0,0,1,.789.118Z" fill="#5b5b5b" />
        <path d="M18.243,97.435a3.826,3.826,0,0,1-2.921-1.156,4.281,4.281,0,0,1-1.091-3.063,4.459,4.459,0,0,1,1.135-3.246A4.086,4.086,0,0,1,18.435,88.8a3.7,3.7,0,0,1,2.878,1.136,4.5,4.5,0,0,1,1.038,3.137,4.432,4.432,0,0,1-1.116,3.161A3.907,3.907,0,0,1,18.243,97.435Zm.1-7.523a2.512,2.512,0,0,0-2.014.866,3.551,3.551,0,0,0-.741,2.388,3.363,3.363,0,0,0,.748,2.312,2.548,2.548,0,0,0,2,.846A2.414,2.414,0,0,0,20.3,95.5a3.6,3.6,0,0,0,.689-2.356A3.662,3.662,0,0,0,20.3,90.76a2.4,2.4,0,0,0-1.965-.852Z" fill="#5b5b5b" />
        <path d="M34.85,88.989l-2.474,8.247H31.007l-1.7-5.9a3.79,3.79,0,0,1-.128-.765h-.033a3.627,3.627,0,0,1-.171.749l-1.843,5.919H25.814l-2.5-8.247H24.7l1.707,6.2a3.826,3.826,0,0,1,.118.741h.065a3.466,3.466,0,0,1,.145-.758l1.9-6.185h1.208l1.707,6.217a4.491,4.491,0,0,1,.118.741h.065a3.487,3.487,0,0,1,.138-.741l1.675-6.217Z" fill="#5b5b5b" />
        <path d="M35.881,96.938V95.524a3.906,3.906,0,0,0,2.375.8q1.74,0,1.74-1.159a1.009,1.009,0,0,0-.148-.56,1.493,1.493,0,0,0-.4-.406,3.112,3.112,0,0,0-.6-.318c-.229-.094-.471-.192-.738-.295a9.436,9.436,0,0,1-.961-.439,2.921,2.921,0,0,1-.693-.5,1.861,1.861,0,0,1-.418-.633,2.229,2.229,0,0,1-.14-.825,1.97,1.97,0,0,1,.265-1.027,2.366,2.366,0,0,1,.707-.749,3.308,3.308,0,0,1,1.011-.455A4.5,4.5,0,0,1,39.06,88.8a4.737,4.737,0,0,1,1.917.37V90.51a3.736,3.736,0,0,0-2.1-.6,2.457,2.457,0,0,0-.669.085,1.649,1.649,0,0,0-.511.236,1.085,1.085,0,0,0-.33.366.96.96,0,0,0-.118.471,1.126,1.126,0,0,0,.118.54,1.186,1.186,0,0,0,.342.386,2.654,2.654,0,0,0,.548.306q.323.137.734.3a10.242,10.242,0,0,1,.983.431,3.4,3.4,0,0,1,.741.5,1.961,1.961,0,0,1,.471.64,2.077,2.077,0,0,1,.165.861,2.036,2.036,0,0,1-.27,1.06,2.307,2.307,0,0,1-.72.749,3.317,3.317,0,0,1-1.04.443,5.118,5.118,0,0,1-1.231.145A4.679,4.679,0,0,1,35.881,96.938Z" fill="#5b5b5b" />
        <path d="M50.008,93.443H44.182a3.09,3.09,0,0,0,.741,2.121,2.557,2.557,0,0,0,1.949.749,4.049,4.049,0,0,0,2.561-.918v1.241a4.782,4.782,0,0,1-2.874.789A3.489,3.489,0,0,1,43.812,96.3a4.6,4.6,0,0,1-1-3.161A4.507,4.507,0,0,1,43.9,90a3.5,3.5,0,0,1,2.71-1.212,3.1,3.1,0,0,1,2.506,1.047,4.368,4.368,0,0,1,.886,2.908Zm-1.353-1.119a2.69,2.69,0,0,0-.553-1.78,1.885,1.885,0,0,0-1.509-.636,2.134,2.134,0,0,0-1.588.668,3.036,3.036,0,0,0-.806,1.747Z" fill="#5b5b5b" />
        <path d="M56.306,90.326a1.616,1.616,0,0,0-1-.266,1.686,1.686,0,0,0-1.414.8,3.687,3.687,0,0,0-.567,2.175v4.2H52.006V88.989h1.321v1.7h.032a2.876,2.876,0,0,1,.86-1.357,1.965,1.965,0,0,1,1.3-.488,2.156,2.156,0,0,1,.789.118Z" fill="#5b5b5b" />
        <path d="M67.469,85.688,61.932,99.154H60.695l5.524-13.467Z" fill="#5b5b5b" />
        <path d="M85.155,97.236H83.81V89.488q0-.918.118-2.247h-.041a7.3,7.3,0,0,1-.345,1.119l-3.947,8.875h-.656L75,88.424a6.852,6.852,0,0,1-.345-1.178h-.032q.064.693.065,2.263v7.732H73.38V85.7h1.787l3.544,8.054a10.3,10.3,0,0,1,.531,1.386h.048q.345-.95.555-1.414L83.463,85.7h1.692Z" fill="#5b5b5b" />
        <path d="M91.461,97.435a3.824,3.824,0,0,1-2.92-1.156,4.278,4.278,0,0,1-1.092-3.063,4.459,4.459,0,0,1,1.137-3.246A4.081,4.081,0,0,1,91.649,88.8a3.7,3.7,0,0,1,2.879,1.136,4.507,4.507,0,0,1,1.039,3.137,4.432,4.432,0,0,1-1.115,3.161A3.909,3.909,0,0,1,91.461,97.435Zm.1-7.523a2.514,2.514,0,0,0-2.016.86,3.558,3.558,0,0,0-.741,2.388,3.362,3.362,0,0,0,.75,2.312,2.544,2.544,0,0,0,2,.846,2.416,2.416,0,0,0,1.97-.825,3.6,3.6,0,0,0,.688-2.356,3.662,3.662,0,0,0-.688-2.383,2.4,2.4,0,0,0-1.966-.846Z" fill="#5b5b5b" />
        <path d="M99.032,96.045H99v1.192H97.678V85.027H99v5.413h.032a3.125,3.125,0,0,1,2.851-1.644,3.023,3.023,0,0,1,2.485,1.107,4.575,4.575,0,0,1,.9,2.968,5.113,5.113,0,0,1-1.006,3.314,3.354,3.354,0,0,1-2.753,1.25A2.71,2.71,0,0,1,99.032,96.045ZM99,92.722v1.152a2.453,2.453,0,0,0,.664,1.735,2.37,2.37,0,0,0,3.568-.205,4.214,4.214,0,0,0,.68-2.553,3.328,3.328,0,0,0-.635-2.158,2.107,2.107,0,0,0-1.724-.781,2.339,2.339,0,0,0-1.852.8A2.945,2.945,0,0,0,99,92.722Z" fill="#5b5b5b" />
        <path d="M108.052,86.9a.834.834,0,0,1-.6-.242.815.815,0,0,1-.251-.613.848.848,0,0,1,.835-.861h.019a.856.856,0,0,1,.619,1.463l0,0A.848.848,0,0,1,108.052,86.9Zm.644,10.341h-1.321V88.989H108.7Z" fill="#5b5b5b" />
        <path d="M112.69,97.236h-1.321V85.027h1.321Z" fill="#5b5b5b" />
        <path d="M121.994,93.443h-5.826a3.09,3.09,0,0,0,.741,2.121,2.557,2.557,0,0,0,1.949.749,4.049,4.049,0,0,0,2.561-.918v1.241a4.782,4.782,0,0,1-2.874.789A3.489,3.489,0,0,1,115.8,96.3a4.6,4.6,0,0,1-1-3.161A4.507,4.507,0,0,1,115.891,90a3.5,3.5,0,0,1,2.71-1.212,3.1,3.1,0,0,1,2.506,1.047,4.367,4.367,0,0,1,.886,2.908Zm-1.353-1.119a2.69,2.69,0,0,0-.553-1.78,1.885,1.885,0,0,0-1.509-.636,2.134,2.134,0,0,0-1.588.668,3.036,3.036,0,0,0-.806,1.747Z" fill="#5b5b5b" />
        <path d="M137.626,97.236h-1.5L134.9,94H130l-1.151,3.238h-1.5l4.43-11.546h1.4Zm-3.165-4.454-1.813-4.921a4.836,4.836,0,0,1-.177-.773h-.032a4.336,4.336,0,0,1-.184.773l-1.8,4.921Z" fill="#5b5b5b" />
        <path d="M140.5,96.045h-.032v4.985H139.15V88.989h1.321v1.449h.032a3.122,3.122,0,0,1,2.851-1.644A3.018,3.018,0,0,1,145.84,89.9a4.587,4.587,0,0,1,.9,2.968,5.107,5.107,0,0,1-1.007,3.314,3.351,3.351,0,0,1-2.755,1.244A2.758,2.758,0,0,1,140.5,96.045Zm-.032-3.326v1.152a2.452,2.452,0,0,0,.663,1.735A2.37,2.37,0,0,0,144.7,95.4a4.214,4.214,0,0,0,.681-2.553,3.322,3.322,0,0,0-.637-2.158,2.105,2.105,0,0,0-1.724-.781,2.34,2.34,0,0,0-1.852.8,2.945,2.945,0,0,0-.7,2.012Z" fill="#5b5b5b" />
        <path d="M150.2,96.045h-.032v4.985h-1.321V88.989h1.321v1.449h.032a3.122,3.122,0,0,1,2.851-1.644,3.018,3.018,0,0,1,2.487,1.107,4.587,4.587,0,0,1,.9,2.968,5.107,5.107,0,0,1-1.007,3.314,3.351,3.351,0,0,1-2.755,1.244A2.758,2.758,0,0,1,150.2,96.045Zm-.032-3.326v1.152a2.452,2.452,0,0,0,.663,1.735A2.37,2.37,0,0,0,154.4,95.4a4.214,4.214,0,0,0,.681-2.553,3.322,3.322,0,0,0-.637-2.158,2.105,2.105,0,0,0-1.724-.781,2.34,2.34,0,0,0-1.852.8,2.945,2.945,0,0,0-.7,2.012Z" fill="#5b5b5b" />
    </g>
    <path d="M30.685,66.085a2.141,2.141,0,0,0,2.135,2.131h49.1a2.141,2.141,0,0,0,2.135-2.135V32.676H30.684Z" fill="#59b4d9" />
    <path d="M81.92,22.748H32.82a2.141,2.141,0,0,0-2.135,2.135V33H84.056V24.883a2.141,2.141,0,0,0-2.135-2.135" fill="#a0a1a2" />
    <g opacity="0.2">
        <path d="M32.82,22.748a2.141,2.141,0,0,0-2.135,2.135v41.2a2.141,2.141,0,0,0,2.135,2.131h2.348L77.229,22.739Z" fill="#fff" />
    </g>
    <rect x="46.422" y="25.641" width="34.896" height="4.106" fill="#fff" />
    <circle cx="39.134" cy="28.685" r="2.306" fill="#3999c6" />
    <g>
        <path d="M118.853,66.2a2.055,2.055,0,0,1-2.1,1.865H95.549A2,2,0,0,1,93.684,66.2V24.25a2,2,0,0,1,1.866-1.865h21.207a2.055,2.055,0,0,1,2.1,1.865Z" fill="#333" />
        <polygon points="117.455 61.54 94.848 61.54 94.848 28.911 117.455 28.911 117.455 61.54 117.455 61.54" fill="#505050" />
        <path d="M113.026,25.416a.229.229,0,0,1-.221.236h-13.3a.229.229,0,0,1-.236-.221s0-.01,0-.014h0c0-.236,0-.471.236-.471h13.284c.236,0,.236.236.236.471Z" />
        <path d="M97.412,64.8a.619.619,0,0,1-.7.7H95.55a.619.619,0,0,1-.707-.7h0a.745.745,0,0,1,.7-.7h1.165A.745.745,0,0,1,97.412,64.8Z" fill="#737373" />
        <path d="M117.455,64.8a.745.745,0,0,1-.7.7h-1.165a.619.619,0,0,1-.7-.7h0a.745.745,0,0,1,.7-.7h1.168a1.051,1.051,0,0,1,.7.7Z" fill="#737373" />
        <path d="M108.832,64.8a1.236,1.236,0,0,1-1.4,1.4h-2.564a1.343,1.343,0,0,1-1.4-1.285q0-.057,0-.113h0a1.5,1.5,0,0,1,1.4-1.4h2.564a1.343,1.343,0,0,1,1.4,1.285Q108.834,64.743,108.832,64.8Z" fill="#737373" />
    </g>
</svg>
