<?xml version="1.0" encoding="UTF-8" standalone="no"?>
<!DOCTYPE svg PUBLIC "-//W3C//DTD SVG 1.1//EN" "http://www.w3.org/Graphics/SVG/1.1/DTD/svg11.dtd">
<!-- Generated by Microsoft Visio, SVG Export gaming-using-azure-database-for-mysql.svg gaming-using-azure-database-for-mysql -->
<svg xmlns="http://www.w3.org/2000/svg" xmlns:xlink="http://www.w3.org/1999/xlink" xmlns:ev="http://www.w3.org/2001/xml-events"
		xmlns:v="http://schemas.microsoft.com/visio/2003/SVGExtensions/" width="8.9375in" height="4.125in" viewBox="0 0 643.5 297"
		xml:space="preserve" color-interpolation-filters="sRGB" class="st40">
	<v:documentProperties v:langID="1033" v:viewMarkup="false">
		<v:userDefs>
			<v:ud v:nameU="msvNoAutoConnect" v:val="VT0(1):26"/>
			<v:ud v:nameU="msvWarnOnPersonalInfo" v:val="VT0(1):5"/>
		</v:userDefs>
	</v:documentProperties>

	<style type="text/css">
	<![CDATA[
		.st1 {fill:#ffffff;stroke:none;stroke-width:0.25}
		.st2 {fill:none;stroke:none;stroke-linecap:butt;stroke-width:0.75}
		.st3 {fill:#000000;font-family:Calibri;font-size:0.874992em}
		.st4 {font-size:1em;letter-spacing:-0.0142858em}
		.st5 {font-size:1em;letter-spacing:-0.085715em}
		.st6 {font-size:1em}
		.st7 {font-size:1em;letter-spacing:-0.0190478em}
		.st8 {font-size:1em;letter-spacing:-0.0333336em}
		.st9 {font-size:1em;letter-spacing:-0.00952389em}
		.st10 {marker-start:url(#mrkr4-42);stroke:#000000;stroke-linecap:butt;stroke-width:1.5}
		.st11 {fill:#000000;fill-opacity:1;stroke:#000000;stroke-opacity:1;stroke-width:0.37313432835821}
		.st12 {fill:#804998;stroke:none;stroke-linecap:butt;stroke-width:0.75}
		.st13 {fill:#ffffff;fill-opacity:0.8;stroke:none;stroke-linecap:butt;stroke-width:0.75}
		.st14 {fill:#ffffff;fill-opacity:0.2;stroke:none;stroke-linecap:butt;stroke-width:0.75}
		.st15 {fill:#59b4d9;stroke:none;stroke-linecap:butt;stroke-width:0.75}
		.st16 {fill:#ffffff;stroke:none;stroke-linecap:butt;stroke-width:0.75}
		.st17 {fill:#a0a1a2;stroke:none;stroke-linecap:butt;stroke-width:0.75}
		.st18 {fill:#1e1e1e;stroke:none;stroke-linecap:butt;stroke-width:0.75}
		.st19 {font-size:1em;letter-spacing:0.00476195em}
		.st20 {fill:#7a7a7a;stroke:none;stroke-linecap:butt;stroke-width:0.75}
		.st21 {fill:#3999c6}
		.st22 {stroke:none;stroke-linecap:butt;stroke-width:0.75}
		.st23 {fill:#fcd116;stroke:none;stroke-linecap:butt;stroke-width:0.75}
		.st24 {stroke:#000000;stroke-linecap:butt;stroke-width:1.5}
		.st25 {fill:#0078d7;stroke:none;stroke-linecap:butt;stroke-width:0.25}
		.st26 {fill:url(#grad0-143);stroke:none;stroke-linecap:butt;stroke-width:0.75}
		.st27 {fill:#e8e8e8;stroke:none;stroke-linecap:butt;stroke-width:0.75}
		.st28 {fill:#50e6ff;stroke:none;stroke-linecap:butt;stroke-width:0.75}
		.st29 {fill:#198ab3;stroke:none;stroke-linecap:butt;stroke-width:0.75}
		.st30 {fill:#f2f2f2;stroke:none;stroke-linecap:butt;stroke-width:0.75}
		.st31 {fill:url(#grad0-158);stroke:none;stroke-linecap:butt;stroke-width:12.75}
		.st32 {fill:#ffffff;stroke:none;stroke-linecap:butt;stroke-width:12.75}
		.st33 {fill:url(#grad0-171);stroke:none;stroke-linecap:butt;stroke-width:0.75}
		.st34 {fill:#0078d4;stroke:none;stroke-linecap:butt;stroke-width:0.75}
		.st35 {fill:#000000;fill-opacity:0.5;stroke:none;stroke-linecap:butt;stroke-width:0.75}
		.st36 {fill:#000000;fill-opacity:0.25;stroke:none;stroke-linecap:butt;stroke-width:0.75}
		.st37 {fill:url(#grad0-187);stroke:none;stroke-linecap:butt;stroke-width:0.75}
		.st38 {fill:none;stroke:none;stroke-width:0.25}
		.st39 {fill:#7f7f7f;font-family:Segoe UI Semibold;font-size:1.16666em}
		.st40 {fill:none;fill-rule:evenodd;font-size:12px;overflow:visible;stroke-linecap:square;stroke-miterlimit:3}
	]]>
	</style>

	<defs id="Patterns_And_Gradients">
		<linearGradient id="grad0-143" x1="0" y1="0" x2="1" y2="0" gradientTransform="rotate(0 0.5 0.5)">
			<stop offset="0" stop-color="#005ba1" stop-opacity="1"/>
			<stop offset="0.07" stop-color="#0060a9" stop-opacity="1"/>
			<stop offset="0.36" stop-color="#0071c8" stop-opacity="1"/>
			<stop offset="0.52" stop-color="#0078d4" stop-opacity="1"/>
			<stop offset="0.64" stop-color="#0074cd" stop-opacity="1"/>
			<stop offset="0.82" stop-color="#006abb" stop-opacity="1"/>
			<stop offset="1" stop-color="#005ba1" stop-opacity="1"/>
		</linearGradient>
		<linearGradient id="grad0-158" x1="0" y1="0" x2="1" y2="0" gradientTransform="rotate(-153.59947509264 0.5 0.5)">
			<stop offset="0" stop-color="#0078d4" stop-opacity="1"/>
			<stop offset="0.16" stop-color="#1380da" stop-opacity="1"/>
			<stop offset="0.53" stop-color="#3c91e5" stop-opacity="1"/>
			<stop offset="0.82" stop-color="#559cec" stop-opacity="1"/>
			<stop offset="1" stop-color="#5ea0ef" stop-opacity="1"/>
		</linearGradient>
		<linearGradient id="grad0-171" x1="0" y1="0" x2="1" y2="0" gradientTransform="rotate(116.95960434515 0.5 0.5)">
			<stop offset="0" stop-color="#114a8b" stop-opacity="1"/>
			<stop offset="1" stop-color="#0669bc" stop-opacity="1"/>
		</linearGradient>
		<linearGradient id="grad0-187" x1="0" y1="0" x2="1" y2="0" gradientTransform="rotate(61.849084498542 0.5 0.5)">
			<stop offset="0" stop-color="#3ccbf4" stop-opacity="1"/>
			<stop offset="1" stop-color="#2892df" stop-opacity="1"/>
		</linearGradient>
	</defs>
	<defs id="Markers">
		<g id="lend4">
			<path d="M 2 1 L 0 0 L 2 -1 L 2 1 " style="stroke:none"/>
		</g>
		<marker id="mrkr4-42" class="st11" v:arrowType="4" v:arrowSize="2" v:setback="5.12" refX="5.12" orient="auto"
				markerUnits="strokeWidth" overflow="visible">
			<use xlink:href="#lend4" transform="scale(2.68) "/>
		</marker>
	</defs>
	<g v:mID="21" v:index="1" v:groupContext="backgroundPage">
		<v:userDefs>
			<v:ud v:nameU="msvThemeOrder" v:val="VT0(0):26"/>
			<v:ud v:nameU="msvVisioCreated" v:prompt="" v:val="VT0(0):26"/>
		</v:userDefs>
		<title>VBackground-1</title>
		<v:pageProperties width="8.9375" height="4.125" v:drawingScale="1" v:pageScale="1" v:drawingUnits="19" v:shadowOffsetX="9"
				v:shadowOffsetY="-9"/>
		<g id="shape1000-1" v:mID="1000" v:groupContext="shape">
			<title>Solid.1000</title>
			<v:userDefs>
				<v:ud v:nameU="Background" v:val="VT0(0):26"/>
				<v:ud v:nameU="visVersion" v:val="VT0(15):26"/>
				<v:ud v:nameU="msvShapeCategories" v:prompt="" v:val="VT4(DoNotContain)"/>
				<v:ud v:nameU="msvVisioCreated" v:prompt="" v:val="VT0(0):26"/>
			</v:userDefs>
			<rect x="0" y="0" width="643.5" height="297" class="st1"/>
		</g>
	</g>
	<g v:mID="16" v:index="2" v:groupContext="foregroundPage">
		<v:userDefs>
			<v:ud v:nameU="msvThemeOrder" v:val="VT0(0):26"/>
		</v:userDefs>
		<title>gaming-using-azure-database-for-mysql</title>
		<v:pageProperties v:drawingScale="1" v:pageScale="1" v:drawingUnits="19" v:shadowOffsetX="9" v:shadowOffsetY="-9"/>
		<v:layer v:name="Container" v:index="0"/>
		<v:layer v:name="Connector" v:index="1"/>
		<v:layer v:name="Flow Equipment" v:index="2"/>
		<v:layer v:name="Mobile Cards and Containers" v:index="3"/>
		<g id="group1000-3" transform="translate(56.6842,-112.286)" v:mID="1000" v:groupContext="group">
			<title>Sheet.1000</title>
			<g id="shape1001-4" v:mID="1001" v:groupContext="shape" transform="translate(-0.57075,-2.83725)">
				<title>Sheet.1001</title>
				<desc>Mobile App</desc>
				<v:textBlock v:margins="rect(0,0,0,0)"/>
				<v:textRect cx="29.0329" cy="290.7" width="58.07" height="12.6"/>
				<rect x="0" y="284.4" width="58.0657" height="12.6" class="st2"/>
				<text x="4.25" y="293.85" class="st3" v:langID="1033"><v:paragraph v:horizAlign="1"/><v:tabList/>Mobile App</text>			</g>
			<g id="shape1002-7" v:mID="1002" v:groupContext="shape" transform="translate(120.294,-3.97904E-13)">
				<title>Sheet.1002</title>
				<desc>Azure Traffic Manager</desc>
				<v:textBlock v:margins="rect(0,0,0,0)"/>
				<v:textRect cx="33.1609" cy="290.7" width="66.33" height="12.6"/>
				<rect x="0" y="284.4" width="66.3218" height="12.6" class="st2"/>
				<text x="6.63" y="287.55" class="st3" v:langID="1033"><v:paragraph v:horizAlign="1"/><v:tabList/>Azu<tspan
							class="st4">r</tspan>e <tspan class="st5">T</tspan>raffic<v:newlineChar/><tspan x="13.97" dy="1.2em"
							class="st6">Manager</tspan></text>			</g>
			<g id="shape1003-13" v:mID="1003" v:groupContext="shape" transform="translate(242.26,-2.25)">
				<title>Sheet.1003</title>
				<desc>Azure API Apps (Game backend)</desc>
				<v:textBlock v:margins="rect(0,0,0,0)"/>
				<v:textRect cx="39.0293" cy="290.7" width="78.06" height="12.6"/>
				<rect x="0" y="284.4" width="78.0585" height="12.6" class="st2"/>
				<text x="6.71" y="287.55" class="st3" v:langID="1033"><v:paragraph v:horizAlign="1"/><v:tabList/>Azu<tspan
							class="st4">r</tspan>e API Apps<v:newlineChar/><tspan x="4.17" dy="1.2em" class="st6">(Game </tspan><tspan
							class="st4">b</tspan>ac<tspan class="st7">k</tspan>end)</text>			</g>
			<g id="shape1004-20" v:mID="1004" v:groupContext="shape" transform="translate(368.967,-2.25)">
				<title>Sheet.1004</title>
				<desc>Azure Database for MySQL</desc>
				<v:textBlock v:margins="rect(0,0,0,0)"/>
				<v:textRect cx="45.6311" cy="290.7" width="91.27" height="12.6"/>
				<rect x="0" y="284.4" width="91.2623" height="12.6" class="st2"/>
				<text x="12.28" y="287.55" class="st3" v:langID="1033"><v:paragraph v:horizAlign="1"/><v:tabList/>Azu<tspan
							class="st4">r</tspan>e Data<tspan class="st4">b</tspan>ase<v:newlineChar/><tspan x="23.23" dy="1.2em"
							class="st6">for MySQL</tspan></text>			</g>
			<g id="shape1005-26" v:mID="1005" v:groupContext="shape" transform="translate(386.273,-120)">
				<title>Sheet.1005</title>
				<desc>Azure CDN</desc>
				<v:textBlock v:margins="rect(0,0,0,0)"/>
				<v:textRect cx="32.8594" cy="290.7" width="65.72" height="12.6"/>
				<rect x="0" y="284.4" width="65.7188" height="12.6" class="st2"/>
				<text x="9.99" y="293.85" class="st3" v:langID="1033"><v:paragraph v:horizAlign="1"/><v:tabList/>Azu<tspan
							class="st4">r</tspan>e CDN</text>			</g>
			<g id="shape1006-30" v:mID="1006" v:groupContext="shape" transform="translate(507.136,-120)">
				<title>Sheet.1006</title>
				<desc>Azure Storage (Game files)</desc>
				<v:textBlock v:margins="rect(0,0,0,0)"/>
				<v:textRect cx="34.0639" cy="290.7" width="68.13" height="12.6"/>
				<rect x="0" y="284.4" width="68.1277" height="12.6" class="st2"/>
				<text x="4.47" y="287.55" class="st3" v:langID="1033"><v:paragraph v:horizAlign="1"/><v:tabList/>Azu<tspan
							class="st4">r</tspan>e <tspan class="st8">S</tspan><tspan class="st9">t</tspan>orage<v:newlineChar/><tspan
							x="8.38" dy="1.2em" class="st6">(Game files)</tspan></text>			</g>
			<g id="shape1007-37" v:mID="1007" v:groupContext="shape" transform="translate(248.25,555.034) rotate(180)">
				<title>Sheet.1007</title>
				<path d="M7.68 297 L8.04 297 L60.95 297" class="st10"/>
			</g>
			<g id="shape1009-43" v:mID="1009" v:groupContext="shape" transform="translate(122.25,555.034) rotate(180)">
				<title>Sheet.1009</title>
				<path d="M7.68 297 L8.04 297 L60.95 297" class="st10"/>
			</g>
			<g id="shape1011-48" v:mID="1011" v:groupContext="shape" transform="translate(374.244,555.034) rotate(180)">
				<title>Sheet.1011</title>
				<path d="M7.68 297 L8.04 297 L60.95 297" class="st10"/>
			</g>
			<g id="shape1015-53" v:mID="1015" v:groupContext="shape" transform="translate(495.744,555.034) rotate(180)">
				<title>Sheet.1015</title>
				<path d="M7.68 297 L8.04 297 L45.95 297" class="st10"/>
			</g>
			<g id="shape1017-58" v:mID="1017" v:groupContext="shape" transform="translate(455.446,-157.5)">
				<title>Sheet.1017</title>
				<path d="M7.68 297 L8.04 297 L45.95 297" class="st10"/>
			</g>
			<g id="shape1025-63" v:mID="1025" v:groupContext="shape" transform="translate(138.977,-21.3638)">
				<title>Sheet.1025</title>
				<path d="M33.75 287.21 L33.75 273.1 L23.87 263.25 L9.9 263.25 L0 273.39 L0 287.16 L9.88 297 L23.87 297 L33.75 287.21
							 Z" class="st12"/>
			</g>
			<g id="shape1026-65" v:mID="1026" v:groupContext="shape" transform="translate(140.325,-22.7138)">
				<title>Sheet.1026</title>
				<path d="M21.97 265.95 L9.11 265.95 L0 275.28 L0 287.95 L9.09 297 L21.97 297 L31.05 288 L31.05 275.01 L21.97 265.95
							 ZM21.2 295.14 L21.1 295.14 L13.48 287.41 L15.09 285.61 L9.57 285.61 L9.57 291.27 L11.38 289.32 L17.36
							 295.13 L9.86 295.13 L1.87 287.18 L1.87 276.04 L4.11 273.74 L10.07 279.11 L6.67 282.64 L17.51 282.64
							 L17.51 271.87 L13.97 275.4 L7.97 269.78 L9.89 267.81 L21.2 267.81 L29.19 275.78 L29.19 285.74 L25.39
							 282.16 L28.17 279.66 L20.49 279.66 L20.49 286.91 L23 284.42 L27.3 289.09 L21.2 295.14 Z" class="st13"/>
			</g>
			<g id="shape1027-67" v:mID="1027" v:groupContext="shape" transform="translate(138.977,-26.157)">
				<title>Sheet.1027</title>
				<path d="M28.95 273.11 L23.87 268.04 L9.9 268.04 L0 278.19 L0 291.96 L5.06 297 L28.95 273.11 Z" class="st14"/>
			</g>
			<g id="shape1028-69" v:mID="1028" v:groupContext="shape" transform="translate(264.785,-24.3637)">
				<title>Sheet.1028</title>
				<path d="M0 295.49 A1.51875 1.51875 -180 0 0 1.51 297 L36.34 297 A1.51875 1.51875 -180 0 0 37.85 295.49 L37.85 271.79
							 L0 271.79 L0 295.49 Z" class="st15"/>
			</g>
			<g id="shape1029-71" v:mID="1029" v:groupContext="shape" transform="translate(275.762,-26.5582)">
				<title>Sheet.1029</title>
				<path d="M22.33 269.75 A1.59 1.59 -180 1 0 19.15 269.75 L19.15 285.72 L16.05 285.72 A9.645 9.645 -180 0 0 13.48 280.72
							 A9.3855 9.3855 -180 0 0 6.74 277.92 A9.51525 9.51525 -180 0 0 -0 280.72 A1.60584 1.60584 -180 1 0 2.27
							 283 A6.2355 6.2355 0 0 1 6.74 281.18 A6.56625 6.56625 0 0 1 11.2 283 A6.2835 6.2835 0 0 1 6.74 293.75
							 A6.56625 6.56625 0 0 1 2.27 291.93 A1.60584 1.60584 -180 1 0 -0 294.2 A9.3855 9.3855 -180 0 0 6.74 297
							 A9.51525 9.51525 -180 0 0 13.48 294.2 A9.33375 9.33375 -180 0 0 16.13 288.9 L20.74 288.9 A1.5525 1.5525
							 -180 0 0 22.33 287.31 L22.33 269.75 Z" class="st16"/>
			</g>
			<g id="shape1030-73" v:mID="1030" v:groupContext="shape" transform="translate(269.403,-32.5547)">
				<title>Sheet.1030</title>
				<path d="M13.1 289.52 A3.77325 3.77325 -180 0 0 9.69 291.72 L3.1 291.72 L3.1 275.74 A1.5525 1.5525 -180 0 0 1.51
							 274.15 A1.5855 1.5855 -180 0 0 0 275.74 L0 293.3 A1.5525 1.5525 -180 0 0 1.59 294.89 L9.76 294.89 A3.768
							 3.768 -180 0 0 16.96 293.3 A3.912 3.912 -180 0 0 13.1 289.52 Z" class="st16"/>
			</g>
			<g id="shape1031-75" v:mID="1031" v:groupContext="shape" transform="translate(264.785,-49.3463)">
				<title>Sheet.1031</title>
				<path d="M36.34 289.73 L1.51 289.73 A1.51875 1.51875 -180 0 0 -0 291.25 L0 297 L37.85 297 L37.85 291.25 A1.51875
							 1.51875 -180 0 0 36.34 289.73 Z" class="st17"/>
			</g>
			<g id="shape1032-77" v:mID="1032" v:groupContext="shape" transform="translate(264.785,-24.3638)">
				<title>Sheet.1032</title>
				<path d="M1.51 264.75 A1.51875 1.51875 -180 0 0 -0 266.26 L0 295.49 A1.51875 1.51875 -180 0 0 1.51 297 L3.18 297
							 L33.01 264.75 L1.51 264.75 Z" class="st14"/>
			</g>
			<g id="shape1040-79" v:mID="1040" v:groupContext="shape" transform="translate(522.305,-41.1472)">
				<title>Sheet.1040</title>
				<path d="M0 296.5 L0.4 297 L0.5 296.41 L0.2 296.41 L0 296.5 Z" class="st18"/>
			</g>
			<g id="shape1044-81" v:mID="1044" v:groupContext="shape" transform="translate(551.545,-39.459)">
				<title>Sheet.1044</title>
				<path d="M0.2 295.91 C0.1 296.21 0.1 296.7 0 297 A4.29 4.29 0 0 1 0.5 295.81 C0.69 295.41 0.8 295.41 1.19 295.22
							 A9.21 9.21 -180 0 0 2.18 294.72 C1.88 294.72 1.39 294.92 1.09 294.92 C0.4 295.02 0.3 295.22 0.2 295.91
							 Z" class="st18"/>
			</g>
			<g id="shape1047-83" v:mID="1047" v:groupContext="shape" transform="translate(504.886,-0.846)">
				<title>Sheet.1047</title>
				<desc>Azure HD Insight (Game analytics)</desc>
				<v:textBlock v:margins="rect(0,0,0,0)"/>
				<v:textRect cx="38.625" cy="290.7" width="77.26" height="12.6"/>
				<rect x="0" y="284.4" width="77.25" height="12.6" class="st2"/>
				<text x="3.16" y="287.55" class="st3" v:langID="1033"><v:paragraph v:horizAlign="1"/><v:tabList/>Azu<tspan
							class="st4">r</tspan>e HD Insight<v:newlineChar/><tspan x="2.99" dy="1.2em" class="st6">(Game anal</tspan><tspan
							class="st19">y</tspan>tics)</text>			</g>
			<g id="shape1048-89" v:mID="1048" v:groupContext="shape" transform="translate(392.25,-161.477)">
				<title>Sheet.1048</title>
				<path d="M30.09 297 L2.11 297 A2.1105 2.1105 0 0 1 0 294.9 A2.1105 2.1105 0 0 1 2.1 292.79 L30.09 292.79 A2.1105
							 2.1105 0 0 1 32.19 294.9 A2.1105 2.1105 0 0 1 30.09 297 Z" class="st20"/>
			</g>
			<g id="shape1049-91" v:mID="1049" v:groupContext="shape" transform="translate(388.677,-143.908)">
				<title>Sheet.1049</title>
				<path d="M27.98 297 L2.1 297 A2.1105 2.1105 0 0 1 0 294.9 A2.1105 2.1105 0 0 1 2.1 292.79 L27.98 292.79 A2.1105 2.1105
							 0 0 1 30.09 294.9 A2.1105 2.1105 0 0 1 27.98 297 Z" class="st20"/>
			</g>
			<g id="shape1050-93" v:mID="1050" v:groupContext="shape" transform="translate(385.624,-152.43)">
				<title>Sheet.1050</title>
				<path d="M27.99 297 L2.1 297 A2.1105 2.1105 0 0 1 0 294.9 A2.1105 2.1105 0 0 1 2.1 292.79 L27.98 292.79 A2.1105 2.1105
							 0 0 1 30.09 294.9 A2.1105 2.1105 0 0 1 27.99 297 Z" class="st20"/>
			</g>
			<g id="shape1051-95" v:mID="1051" v:groupContext="shape" transform="translate(400.037,-143.908)">
				<title>Sheet.1051</title>
				<path d="M38.19 292.48 A4.4685 4.4685 -180 0 0 33.78 287.95 L33.14 287.95 A14.3153 14.3153 -180 0 0 33.56 284.8 A11.8312
							 11.8312 -180 0 0 21.78 273.01 A11.973 11.973 -180 0 0 10.63 281.01 A10.575 10.575 -180 0 0 8 280.59
							 A8.03925 8.03925 -180 0 0 -0 288.79 A8.10675 8.10675 -180 0 0 8 297 L33.98 297 A4.65 4.65 -180 0 0 38.19
							 292.48 L38.19 292.48 Z" class="st21"/>
				<path d="M38.19 292.48 A4.4685 4.4685 -180 0 0 33.78 287.95 L33.14 287.95 A14.3153 14.3153 -180 0 0 33.56 284.8 A11.8312
							 11.8312 -180 0 0 21.78 273.01 A11.973 11.973 -180 0 0 10.63 281.01 A10.575 10.575 -180 0 0 8 280.59
							 A8.03925 8.03925 -180 0 0 -0 288.79 A8.10675 8.10675 -180 0 0 8 297 L33.98 297 A4.65 4.65 -180 0 0 38.19
							 292.48" class="st22"/>
			</g>
			<g id="shape1052-98" v:mID="1052" v:groupContext="shape" transform="translate(400.037,-143.908)">
				<title>Sheet.1052</title>
				<path d="M12.2 296.89 A7.4925 7.4925 0 0 1 10 292.9 A7.90725 7.90725 0 0 1 18.73 283.11 A11.4555 11.4555 0 0 1 25.35
							 273.64 A13.425 13.425 -180 0 0 21.78 273.01 A11.973 11.973 -180 0 0 10.63 281.01 A10.575 10.575 -180
							 0 0 8 280.59 A8.03925 8.03925 -180 0 0 0 288.79 A8.10675 8.10675 -180 0 0 8 297 L12.2 296.89 Z"
						class="st14"/>
			</g>
			<g id="shape1053-100" v:mID="1053" v:groupContext="shape" transform="translate(524.85,-141.514)">
				<title>Sheet.1053</title>
				<path d="M0 295.57 A1.37775 1.37775 -180 0 0 1.42 297 L36.07 297 A1.37775 1.37775 -180 0 0 37.5 295.57 L37.5 270.75
							 L0 270.75 L0 295.57 Z" class="st17"/>
			</g>
			<g id="shape1054-102" v:mID="1054" v:groupContext="shape" transform="translate(524.85,-167.764)">
				<title>Sheet.1054</title>
				<path d="M36.07 291.3 L1.42 291.3 A1.37775 1.37775 -180 0 0 0 292.72 L0 297 L37.5 297 L37.5 292.72 A1.37775 1.37775
							 -180 0 0 36.07 291.3 Z" class="st20"/>
			</g>
			<g id="shape1055-104" v:mID="1055" v:groupContext="shape" transform="translate(538.952,-159.589)">
				<title>Sheet.1055</title>
				<rect x="0" y="291.3" width="9.45" height="5.7" class="st16"/>
			</g>
			<g id="shape1056-106" v:mID="1056" v:groupContext="shape" transform="translate(538.952,-151.864)">
				<title>Sheet.1056</title>
				<rect x="0" y="291.3" width="9.45" height="5.7" class="st23"/>
			</g>
			<g id="shape1057-108" v:mID="1057" v:groupContext="shape" transform="translate(550.202,-151.864)">
				<title>Sheet.1057</title>
				<rect x="0" y="291.3" width="9.45" height="5.7" class="st23"/>
			</g>
			<g id="shape1058-110" v:mID="1058" v:groupContext="shape" transform="translate(550.202,-159.589)">
				<title>Sheet.1058</title>
				<rect x="0" y="291.3" width="9.45" height="5.7" class="st16"/>
			</g>
			<g id="shape1059-112" v:mID="1059" v:groupContext="shape" transform="translate(527.702,-159.589)">
				<title>Sheet.1059</title>
				<rect x="0" y="291.3" width="9.45" height="5.7" class="st16"/>
			</g>
			<g id="shape1060-114" v:mID="1060" v:groupContext="shape" transform="translate(527.702,-151.864)">
				<title>Sheet.1060</title>
				<rect x="0" y="291.3" width="9.45" height="5.7" class="st16"/>
			</g>
			<g id="shape1061-116" v:mID="1061" v:groupContext="shape" transform="translate(527.702,-144.214)">
				<title>Sheet.1061</title>
				<rect x="0" y="291.3" width="9.45" height="5.7" class="st23"/>
			</g>
			<g id="shape1062-118" v:mID="1062" v:groupContext="shape" transform="translate(538.952,-144.214)">
				<title>Sheet.1062</title>
				<rect x="0" y="291.3" width="9.45" height="5.7" class="st23"/>
			</g>
			<g id="shape1063-120" v:mID="1063" v:groupContext="shape" transform="translate(550.202,-144.214)">
				<title>Sheet.1063</title>
				<rect x="0" y="291.3" width="9.45" height="5.7" class="st23"/>
			</g>
			<g id="shape1064-122" v:mID="1064" v:groupContext="shape" transform="translate(524.85,-141.514)">
				<title>Sheet.1064</title>
				<path d="M1.42 265.05 A1.53225 1.53225 -180 0 0 0 266.47 L0 295.57 A1.53225 1.53225 -180 0 0 1.42 297 L3 297 L32.7
							 265.05 L1.42 265.05 Z" class="st14"/>
			</g>
		</g>
		<g id="shape1065-124" v:mID="1065" v:groupContext="shape" transform="translate(425.684,324.225) rotate(180)">
			<title>Sheet.1065</title>
			<path d="M7.68 297 L8.04 297 L87.71 297" class="st10"/>
		</g>
		<g id="shape1066-129" v:mID="1066" v:groupContext="shape" transform="translate(40.9733,121.5) rotate(-90)">
			<title>Sheet.1066</title>
			<path d="M0 297 L94.27 297" class="st24"/>
		</g>
		<g id="group1067-132" transform="translate(575.319,-135.77)" v:mID="1067" v:groupContext="group">
			<v:userDefs>
				<v:ud v:nameU="visNavOrder" v:val="VT0(9000):26"/>
			</v:userDefs>
			<title>HDInsight.1111</title>
			<g id="shape1068-133" v:mID="1068" v:groupContext="shape" transform="translate(26.0799,-1.75422)">
				<title>Sheet.1068</title>
				<path d="M5.07 291.56 C4.82 290.78 3.99 289.28 3.99 289.28 C3.99 289.28 3.82 291.47 2.41 293.67 C1 295.86 0.09 296.21
							 0.09 296.21 C0.09 296.21 0 296.91 0.75 297 C1 297 4.16 297 4.65 297 C5.23 297 5.65 296.48 5.65 295.86
							 C5.65 295.25 5.15 294.55 5.15 294.55 C5.15 294.55 5.23 292.26 5.07 291.56 Z" class="st25"/>
			</g>
			<g id="shape1069-135" v:mID="1069" v:groupContext="shape" transform="translate(0.581398,-4.47327)">
				<title>Sheet.1069</title>
				<path d="M2.66 289.2 C2.66 289.2 2.66 289.2 2.66 289.2 C2.66 289.2 1.5 290.6 0.75 291.65 C0 292.7 0.49 293.4 0.49
							 293.4 C0.49 293.4 2.57 297 4.32 296.48 C4.9 296.3 5.4 295.34 5.4 295.34 C5.4 295.34 4.65 294.28 4.07
							 292.97 C3.41 291.56 2.83 289.45 2.66 289.2 Z" class="st25"/>
			</g>
			<g id="shape1070-137" v:mID="1070" v:groupContext="shape">
				<title>Sheet.1070</title>
				<path d="M49.42 268.93 C49.17 262.01 47.34 260.16 46.85 260.16 C46.18 260.25 45.94 261.39 45.19 261.92 C44.19 262.71
							 43.52 262.53 42.94 263.15 C42.36 263.76 43.52 265.34 43.35 269.46 C43.19 273.23 40.87 274.63 40.87 274.63
							 C40.87 274.63 41.94 272.97 42.11 271.82 C42.27 270.95 41.78 270.78 41.45 270.51 C40.78 269.89 39.45
							 271.47 39.12 271.82 C39.7 271.12 40.61 270.34 40.28 269.64 C39.62 268.49 38.2 269.28 37.87 269.37 C38.2
							 269.2 38.88 268.93 38.7 268.23 C38.46 267 37.29 267.27 37.13 267.35 C37.62 267.09 37.87 266.83 39.21
							 266.92 C39.95 266.92 39.79 266.13 39.28 265.52 C38.53 264.55 38.04 264.19 37.46 264.02 C36.8 263.76
							 35.47 263.94 35.47 263.94 C35.47 263.94 36.38 263.32 36.87 263.4 C36.21 262.44 34.06 258.93 30.32 258.76
							 C23.5 258.41 21.51 263.05 21.51 263.05 L24.83 262.88 C24.83 262.88 23.84 263.32 21.84 263.67 C20.27
							 263.94 20.35 263.94 19.85 264.02 C19.1 264.19 17.19 266.65 15.45 268.76 C13.7 270.86 11.88 273.49 11.88
							 274.55 C11.88 275.6 12.88 276.3 13.45 277.18 C14.03 278.06 14.2 278.49 14.2 278.49 L16.61 275.51 L13.79
							 281.65 C13.79 281.65 15.12 283.49 16.53 283.32 C17.61 283.14 20.02 281.12 21.51 280.86 C23.09 280.51
							 23.75 280.78 23.75 280.78 C23.75 280.78 24.83 277.79 24.34 275.69 C23.42 271.91 24.08 269.89 24.83 268.67
							 C24.25 273.67 25.83 274.02 25.74 277.27 C25.67 279.72 24.92 282.36 24.92 282.36 C24.92 282.36 22.68
							 281.57 20.93 282.53 C19.19 283.49 17.69 284.81 16.03 284.81 C14.29 284.81 11.97 281.65 11.97 281.65
							 L13.21 279.72 C13.21 279.72 13.04 279.1 12.54 278.49 C11.79 277.52 10.55 276.13 10.47 274.98 C10.38
							 273.05 12.21 270.95 12.88 270.16 C13.54 269.28 15.53 267 15.53 267 C15.53 267 9.72 267.88 7.31 270.86
							 C4.4 274.55 3.99 275.6 2.9 275.77 C1.83 275.94 1.41 274.73 1.41 274.73 C1.41 274.73 2.24 274.63 2.16
							 273.58 C1.99 271.91 2.41 270.95 2.41 270.95 C2.41 270.95 0.66 272.09 0.33 273.23 C0 274.37 0.75 274.73
							 0.75 274.73 C0.75 274.73 0.75 276.83 1.91 277.27 C3.07 277.79 3.99 277.35 3.99 277.35 C3.99 277.35 3.24
							 281.22 4.23 284.02 C5.23 286.83 7.23 289.89 7.23 289.89 C7.23 289.89 7.06 292.01 6.81 292.53 C6.64 293.05
							 5.89 294.28 7.06 295.15 C8.23 296.04 11.13 296.38 11.79 295.94 C12.46 295.51 12.3 294.28 12.37 293.84
							 C12.46 293.4 13.37 291.65 13.54 291.22 C13.63 290.68 13.63 288.06 13.45 287.17 C13.63 287.62 14.37 289.64
							 17.11 289.72 C19.6 289.81 20.43 288.41 20.43 287.44 C20.43 287.88 20.6 289.81 20.35 290.16 C20.1 290.51
							 19.36 290.78 18.61 291.22 C17.86 291.74 16.86 292.26 18.52 294.36 C20.35 296.83 20.69 297 22.26 295.69
							 C23.84 294.36 25.5 293.14 26.66 291.56 C27.82 289.99 29.9 284.19 29.9 284.19 C29.9 284.19 28.66 283.32
							 27.82 282.18 C27.24 281.3 27.08 280.78 27.08 280.78 C27.08 280.78 28.74 282.53 30.48 282.97 C31.14 283.76
							 32.22 284.9 33.14 285.25 C36.54 286.73 37.62 282.26 37.62 282.26 L37.13 282.18 C37.13 282.18 36.21 284.46
							 34.72 284.28 C31.73 283.93 32.64 277.44 32.64 277.44 C32.64 277.44 35.63 282.01 41.69 281.82 C45.43
							 281.91 49.75 277.35 49.42 268.93 ZM28.32 268.67 C28.32 268.67 28.57 265.69 29.15 265.25 C29.9 264.73
							 31.89 265.42 31.89 265.42 C31.89 265.42 30.65 265.42 29.9 266.13 C29.23 266.73 28.32 268.67 28.32 268.67
							 ZM33.14 271.3 C32.22 272.09 31.4 273.05 31.4 273.05 C31.4 273.05 31.56 272.61 31.73 272.36 C31.89 272.01
							 32.15 271.65 32.15 271.65 C32.15 271.65 31.82 271.57 31.4 271.12 C31.14 270.86 31.07 270.6 30.98 270.43
							 C30.98 270.43 30.81 270.51 30.56 270.78 C30.32 270.95 29.98 271.39 29.98 271.39 C29.98 271.39 30.81
							 269.72 31.98 268.85 C33.22 267.97 34.47 267.97 34.47 267.97 C34.47 267.97 34.3 267.97 33.88 268.23 C33.48
							 268.49 33.48 268.49 33.48 268.49 C33.48 268.49 33.88 268.67 34.22 269.02 C34.55 269.46 34.63 269.99
							 34.63 269.99 C34.63 269.99 34.72 269.99 35.14 269.81 C35.54 269.64 35.96 269.64 35.96 269.64 C35.96
							 269.64 34.47 270.16 33.14 271.3 ZM45.68 263.4 C44.68 264.19 43.6 264.28 43.52 263.94 C43.35 263.59 43.6
							 263.59 43.6 263.59 C43.6 263.59 44.68 263.15 45.27 262.71 C46.01 262.09 46.67 260.68 46.93 261.03 C47.18
							 261.47 46.51 262.8 45.68 263.4 Z" class="st25"/>
			</g>
		</g>
		<g id="group1071-139" transform="translate(456.731,-135.77)" v:mID="1071" v:groupContext="group">
			<title>Icon-databases-122</title>
			<g id="shape1072-140" v:mID="1072" v:groupContext="shape">
				<title>Sheet.1072</title>
				<path d="M14.55 268.94 C6.52 268.94 0 266.67 0 263.67 L0 291.73 C0 294.62 6.4 296.95 14.35 297 L14.55 297 C22.59
							 297 29.1 294.73 29.1 291.73 L29.1 263.67 C29.1 266.6 22.59 268.94 14.55 268.94 Z" class="st26"/>
			</g>
			<g id="shape1073-144" v:mID="1073" v:groupContext="shape" transform="translate(0,-28.0587)">
				<title>Sheet.1073</title>
				<path d="M29.1 291.73 C29.1 294.66 22.59 297 14.55 297 C6.52 297 0 294.73 0 291.73 C0 288.74 6.52 286.47 14.55 286.47
							 C22.59 286.47 29.1 288.74 29.1 291.73 Z" class="st27"/>
			</g>
			<g id="shape1074-146" v:mID="1074" v:groupContext="shape" transform="translate(3.38248,-30.3969)">
				<title>Sheet.1074</title>
				<path d="M22.34 293.64 C22.34 295.5 17.32 297 11.17 297 C5.02 297 0 295.5 0 293.64 C0 291.78 5.02 290.3 11.17 290.3
							 C17.32 290.3 22.34 291.8 22.34 293.64 Z" class="st28"/>
			</g>
			<g id="shape1075-148" v:mID="1075" v:groupContext="shape" transform="translate(5.7207,-30.3969)">
				<title>Sheet.1075</title>
				<path d="M8.83 294.48 A26.2199 26.2199 -180 0 0 0 295.77 A25.9247 25.9247 -180 0 0 8.83 297 A25.3118 25.3118 -180
							 0 0 17.66 295.68 A26.8782 26.8782 -180 0 0 8.83 294.48 Z" class="st29"/>
			</g>
			<g id="shape1076-150" v:mID="1076" v:groupContext="shape" transform="translate(16.8216,-10.2836)">
				<title>Sheet.1076</title>
				<path d="M5.99 287.99 L5.99 291.69 L3.72 291.69 a0.885346 0.885346 0 0 1 -0.658334 -0.317816 L3.06 287.99 L0 287.99
							 L0 292.03 A2.08851 2.08851 -180 0 0 2.27 294.05 L5.65 294.05 L6.24 293.75 C6.24 293.75 5.99 294.68 5.65
							 294.73 L0.25 294.73 L0.25 297 L6.29 297 A2.74684 2.74684 -180 0 0 9.08 294.12 L9.08 287.99 L5.99 287.99
							 Z" class="st30"/>
			</g>
			<g id="shape1077-152" v:mID="1077" v:groupContext="shape" transform="translate(3.33707,-12.9624)">
				<title>Sheet.1077</title>
				<path d="M12.42 290.67 C12.42 290.67 12.42 290.67 12.42 290.67 L12.42 289.55 A1.58908 1.58908 -180 0 0 11.33 287.81
							 A3.95 3.95 -180 0 0 10.19 287.62 A2.13391 2.13391 -180 0 0 8.13 288.94 L6.36 293.25 L4.09 288.94 A2.11121
							 2.11121 -180 0 0 2.13 287.62 A3.26897 3.26897 -180 0 0 0.98 287.83 C0.18 288.08 0 288.6 0 289.49 L0
							 297 L2.66 297 L2.66 291.94 L4.09 295.5 A2.45173 2.45173 -180 0 0 6.36 297 C7.36 297 7.76 296.41 8.17
							 295.5 L9.69 292.07 L9.69 296.95 L12.37 296.95 L12.37 290.67 L12.42 290.67 Z" class="st30"/>
			</g>
		</g>
		<g id="group1078-154" transform="translate(74.6213,-133.626)" v:mID="1078" v:groupContext="group">
			<title>Sheet.1078</title>
			<g id="shape1079-155" v:mID="1079" v:groupContext="shape">
				<title>Sheet.1079</title>
				<path d="M3.48 297 C1.56 297 0 295.44 0 293.53 L0 261.88 C0 259.97 1.56 258.41 3.48 258.41 L17.57 258.41 C19.49 258.41
							 21.05 259.97 21.05 261.87 L21.05 293.53 C21.05 295.44 19.49 297 17.57 297 L3.48 297 Z" class="st31"/>
			</g>
			<g id="shape1080-159" v:mID="1080" v:groupContext="shape" transform="translate(8.18887,-2.13905)">
				<title>Sheet.1080</title>
				<path d="M3.89 297 L0.78 297 C0.35 297 0 296.65 0 296.22 C0 295.79 0.35 295.45 0.78 295.45 L3.89 295.45 C4.32 295.45
							 4.67 295.79 4.67 296.22 C4.67 296.65 4.32 297 3.89 297 Z" class="st32"/>
			</g>
			<g id="shape1081-161" v:mID="1081" v:groupContext="shape" transform="translate(9.74781,-34.9006)">
				<title>Sheet.1081</title>
				<path d="M1.56 296.22 C1.56 296.65 1.21 297 0.78 297 C0.35 297 0 296.65 0 296.22 C0 295.79 0.35 295.45 0.78 295.45
							 C1.21 295.45 1.56 295.79 1.56 296.22 Z" class="st32"/>
			</g>
			<g id="shape1082-163" v:mID="1082" v:groupContext="shape" transform="translate(1.52807,-5.83485)">
				<title>Sheet.1082</title>
				<path d="M17.22 297 L0.78 297 C0.35 297 0 296.65 0 296.22 L0 270.85 C0 270.42 0.35 270.08 0.78 270.08 L17.22 270.08
							 C17.65 270.08 17.99 270.42 17.99 270.85 L17.99 296.22 C17.99 296.65 17.65 297 17.22 297 Z"
						class="st32"/>
			</g>
		</g>
		<g id="group1083-165" transform="translate(6.75,8.58307E-06)" v:mID="1083" v:groupContext="group">
			<title>logo.1025</title>
			<g id="group1084-166" transform="translate(0,-4.5)" v:mID="1084" v:groupContext="group">
				<v:userDefs>
					<v:ud v:nameU="msvDisableCustomConnectionPoints" v:prompt="" v:val="VT4(True)"/>
				</v:userDefs>
				<title>Azure.1002</title>
				<g id="group1085-167" v:mID="1085" v:groupContext="group">
					<title>Sheet.1085</title>
					<g id="shape1086-168" v:mID="1086" v:groupContext="shape">
						<title>Sheet.1086</title>
						<path d="M11.96 261 L22.69 261 L11.57 295.79 A1.67987 1.77404 0 0 1 9.98 297 L1.59 297 A1.67905 1.77317 0
									 0 1 0 294.66 L10.37 262.21 A1.6774 1.77143 0 0 1 11.96 261 Z" class="st33"/>
					</g>
					<g id="shape1087-172" v:mID="1087" v:groupContext="shape" transform="translate(9.14148,0)">
						<title>Sheet.1087</title>
						<path d="M17.63 283.67 L0.73 283.67 a0.781965 0.8258 -180 0 0 -0.533644 1.42843 L11.79 296.52 A1.67987 1.77404
									 -180 0 0 12.93 297 L22.51 297 L17.63 283.67 Z" class="st34"/>
					</g>
					<g id="group1088-174" transform="translate(12.9538,0)" v:mID="1088" v:groupContext="group">
						<title>Sheet.1088</title>
						<g id="shape1089-175" v:mID="1089" v:groupContext="shape" transform="translate(7.38139,0)">
							<title>Sheet.1089</title>
							<path d="M3.43 297 L11.31 297 L6.43 283.67 L0 283.67 L3.72 295.29 A1.69796 1.79314 0 0 1 3.43 297 Z"
									class="st35"/>
						</g>
						<g id="shape1090-177" v:mID="1090" v:groupContext="shape" transform="translate(9.29257E-14,-20.9906)">
							<title>Sheet.1090</title>
							<path d="M4.94 297 L9.73 281.99 L0 281.99 A1.70042 1.79575 0 0 1 0.33 282.59 L4.94 297 Z" class="st35"/>
						</g>
					</g>
					<g id="group1091-179" transform="translate(12.3462,0)" v:mID="1091" v:groupContext="group">
						<title>Sheet.1091</title>
						<g id="shape1092-180" v:mID="1092" v:groupContext="shape" transform="translate(0,-20.0024)">
							<title>Sheet.1092</title>
							<path d="M0 281 L5.23 297 L5.95 294.72 L1.58 281 L0 281 Z" class="st36"/>
						</g>
						<g id="shape1093-182" v:mID="1093" v:groupContext="shape" transform="translate(7.32219,0)">
							<title>Sheet.1093</title>
							<path d="M2.59 297 L4.85 297 A2.31876 2.44874 -180 0 0 4.98 295.07 L1.33 283.67 L0 283.67 L3.79 295.5
										 A1.07469 1.13493 0 0 1 2.77 297 L2.59 297 Z" class="st36"/>
						</g>
					</g>
					<g id="shape1094-184" v:mID="1094" v:groupContext="shape" transform="translate(12.088,0)">
						<title>Sheet.1094</title>
						<path d="M13.54 262.21 A1.6774 1.77143 -180 0 0 11.95 261 L0 261 A1.70454 1.80009 0 0 1 1.61 262.22 L11.97
									 294.63 A1.70371 1.79922 0 0 1 10.35 297 L22.32 297 A1.67905 1.77317 -180 0 0 23.91 294.66 L13.54
									 262.21 Z" class="st37"/>
					</g>
				</g>
			</g>
			<g id="shape1095-188" v:mID="1095" v:groupContext="shape" transform="translate(28.6277,0)">
				<title>Sheet.1095</title>
				<desc>Microsoft Azure</desc>
				<v:textBlock v:margins="rect(4,4,4,4)"/>
				<v:textRect cx="36" cy="274.5" width="72" height="45"/>
				<rect x="0" y="252" width="72" height="45" class="st38"/>
				<text x="5.5" y="270.3" class="st39" v:langID="1033"><v:paragraph v:horizAlign="1"/><v:tabList/>Microsoft<v:newlineChar/><tspan
							x="17.66" dy="1.2em" class="st6">Azure</tspan></text>			</g>
		</g>
	</g>
</svg>
