<svg class="architecture-diagram" aria-labelledby="globally-distributed-mission-critical-applications-using-cosmos-db" fill="none" height="489" viewbox="0 0 819 489" width="819" xmlns="http://www.w3.org/2000/svg">
    <path d="M804.5 15.5h-150v457.8h150V15.5z" fill="#F3F3F3"/>
    <path d="M21.3 226.5v22.7c0 3.1 1.1 4.3 4.3 4.3h35.1c3.1 0 4.3-1.1 4.3-4.3v-22.7H21.3z" fill="#59B3D8"/>
    <path d="M64.9 227.3v-7.1c0-3.1-1.1-4.3-4.3-4.3h-35c-3.1 0-4.3 1.1-4.3 4.3v7.1h43.6z" fill="#9FA0A1"/>
    <path d="M59.5 215.9H25.6c-3.1 0-4.3 1.1-4.3 4.3v7.2h27.6l10.6-11.5z" fill="#B2B3B4"/>
    <path d="M25.6 253.4H25c-2.7-.1-3.7-1.3-3.7-4.3v-21.8h27.6l-23.3 26.1z" fill="#7AC2E0"/>
    <path d="M32.2 224h29.9v-3.8H32.2v3.8z" fill="#FBFBFB"/>
    <path d="M27 217.8c2.4 0 4.3 1.9 4.3 4.3s-1.9 4.3-4.3 4.3-4.3-1.9-4.3-4.3 1.9-4.3 4.3-4.3z" fill="#59B3D8"/>
    <path d="M31.2 221.6H27l1.4-1.4v-.4H27l-2.2 2.5 2.2 2.3h1.4v-.5l-1.4-1.4h4.3v-1.1h-.1z" fill="#FBFBFB"/>
    <path d="M206.2 211.2h18l6.5 6.5-1.2 1.2 5.7 5.7v16.7l-11.7 11.6h-16.6l-5.7-5.7-1.2 1.2 6.2 6.2h18l12.7-12.6v-18.2l-6.2-6.2-6.5-6.5h-18v.1z" fill="#804997"/>
    <path d="M227.9 233.8l4.9 4.6v-12.8l-5-4.9-10.1 10.1v3.7H214l-3.8 3.8h4.4l-2.1 2.3 9.8 10h.1l7.9-7.8-5.5-6-3.2 3.2v-9.3h9.9l-3.6 3.1zM202.9 245.6l2.9 2.9.7.6 1.4 1.4h9.7l-1.4-1.4-.7-.6-5.6-5.4-2.3 2.5V241l-4.7 4.6z" fill="#804997"/>
    <path d="M217.8 234.4v-3.7l-3.7 3.7h3.7z" fill="#E8DFEC"/>
    <path d="M229.5 218.9l-1.7 1.7 5 5v12.8l-4.9-4.6 3.6-3.2h-9.9v9.3l3.2-3.2 5.5 6-7.9 7.8-9.9-10 2.1-2.3h-4.4l-2.7 2.7v4.6l2.3-2.5 7.7 7.5h-9.7l-5-5-1.7 1.7 5.7 5.7h16.6l11.7-11.6v-16.7l-5.6-5.7z" fill="#E8DFEC"/>
    <path d="M193.5 242l1.6 1.6-1.6-1.6zM195.2 243.7l4.8 4.8-4.8-4.8z" fill="#fff"/>
    <path d="M206.2 211.2l-12.7 13.1V242l6.5 6.5 1.2-1.2-6-6V225l11.7-12h16.6l6 6 1.2-1.2-6.5-6.5h-18v-.1z" fill="#A07CB1"/>
    <path d="M208.2 229.9l-7.7-6.9-2.9 3v14.3l5.3 5.3 4.6-4.6v-2.7h2.7l3.8-3.8h-10.2l4.4-4.6zM208 215.3l-2.5 2.5 7.7 7.2 4.6-4.6v10.2l10.1-10.1-5.3-5.3H208v.1z" fill="#A07CB1"/>
    <path d="M197.6 240.3V226l2.9-3 7.7 6.9-4.4 4.5H214l3.7-3.7v-10.2l-4.6 4.6-7.7-7.2 2.5-2.5h14.5l5.3 5.3 1.7-1.7-6-6h-16.6l-11.7 12v16.3l6 6 1.7-1.7-5.2-5.3z" fill="#EDE5EF"/>
    <path d="M207.5 240.9l2.7-2.7h-2.7v2.7z" fill="#EDE5EF"/>
    <path d="M373.8 65.9c1.2-.4 2.4-.5 3.6-.2.2-.3.5-.5.7-.8 2-2.1 4.1-3.9 6-5.2-2.3-2.4-4.3-4.9-5.8-7.4-1.3.6-2.5 1.4-3.6 2.3-.9.7-1.6 1.4-2.4 2.1-.3 1.6-.4 5 1.5 9.2zM387.2 57.6c6-3.2 11.2-3.2 14.5-2.7-4-3.3-8.9-5-13.9-5-2.2 0-4.5.3-6.7 1.1 2.2 2.3 4.2 4.6 6.1 6.6zM370.8 76c-1.8-2.4-1.8-5.7 0-8-1.5-3.6-1.4-6.6-.9-8.7-5 7.3-5.2 17.1.1 24.7.1-2.2.5-4.8 1.3-7.5-.2-.1-.3-.3-.5-.5zM391.3 61.8c2.6 2.6 5 4.8 7.2 6.8 2-1.2 4.6-.7 6 1.2 1 1.3 1.2 3 .6 4.5 1.7 1.4 2.9 2.3 3.7 2.9 1.7-6.3.5-13.2-3.7-18.8l-.3-.3c-.3 0-5.8-.4-13.5 3.7zM403.7 76.4c-2.1 1.6-5 1.2-6.6-.9-1.1-1.4-1.2-3.3-.5-4.8-2.7-2.1-5.6-4.5-8.3-7l-.2-.2.2.2c-1.8 1.2-3.7 2.7-5.7 4.6-.3.2-.5.5-.8.7 1.1 2.1 1 4.6-.3 6.6.4.3.8.6 1.2 1 2 1.6 4 2.9 5.9 3.9 1.9-1.2 4.4-.8 5.8 1 .4.5.7 1.1.8 1.7 5.4 1.5 9.3 1 10.7.7 1-1.5 1.8-3.1 2.4-4.8-.8-.6-2.3-1.5-4.4-3 0 .1-.1.2-.2.3zM393.6 87.5c-1.9 1.4-4.6 1.1-6.1-.8-.7-.9-1-2-.8-3.1-2.1-1-4.2-2.4-6.3-4l-1.8-1.5c-1 .4-2 .6-3 .5-1.5 4-1.6 7.5-1.5 9.9 4 3.3 8.9 5 13.8 5 4.6 0 9.3-1.5 13.2-4.5.7-.5 1.3-1.1 1.9-1.6-2.2 0-5.1-.1-8.4-.9-.3.3-.6.7-1 1zM373.8 231c1.2-.4 2.4-.5 3.6-.2.2-.3.5-.5.7-.8 2-2.1 4.1-3.9 6-5.2-2.3-2.4-4.3-4.9-5.8-7.4-1.3.6-2.5 1.4-3.6 2.3-.9.7-1.6 1.4-2.4 2.1-.3 1.7-.4 5.1 1.5 9.2zM387.2 222.8c6-3.2 11.2-3.2 14.5-2.7-4-3.3-8.9-5-13.9-5-2.2 0-4.5.3-6.7 1.1 2.2 2.3 4.2 4.5 6.1 6.6zM370.8 241.2c-1.8-2.4-1.8-5.7 0-8-1.5-3.6-1.4-6.6-.9-8.7-5 7.3-5.2 17.1.1 24.7.1-2.2.5-4.8 1.3-7.5-.2-.1-.3-.3-.5-.5zM391.3 227c2.6 2.6 5 4.8 7.2 6.8 2-1.2 4.6-.7 6 1.2 1 1.3 1.2 3 .6 4.5 1.7 1.4 2.9 2.3 3.7 2.9 1.7-6.3.5-13.2-3.7-18.8l-.3-.3c-.3 0-5.8-.5-13.5 3.7zM403.7 241.5c-2.1 1.6-5 1.2-6.6-.9-1.1-1.4-1.2-3.3-.5-4.8-2.7-2.1-5.6-4.5-8.3-7l-.2-.2.2.2c-1.8 1.2-3.7 2.7-5.7 4.6-.3.2-.5.5-.8.7 1.1 2.1 1 4.6-.3 6.6.4.3.8.6 1.2 1 2 1.6 4 2.9 5.9 3.9 1.9-1.2 4.4-.8 5.8 1 .4.5.7 1.1.8 1.7 5.4 1.5 9.3 1 10.7.7 1-1.5 1.8-3.1 2.4-4.8-.8-.6-2.3-1.5-4.4-3 0 .2-.1.3-.2.3zM393.6 252.7c-1.9 1.4-4.6 1.1-6.1-.8-.7-.9-1-2-.8-3.1-2.1-1-4.2-2.4-6.3-4l-1.8-1.5c-1 .4-2 .6-3 .5-1.5 4-1.6 7.5-1.5 9.9 4 3.3 8.9 5 13.8 5 4.6 0 9.3-1.5 13.2-4.5.7-.5 1.3-1.1 1.9-1.6-2.2 0-5.1-.1-8.4-.9-.3.3-.6.7-1 1zM373.8 387.2c1.2-.4 2.4-.5 3.6-.2.2-.3.5-.5.7-.8 2-2.1 4.1-3.9 6-5.2-2.3-2.4-4.3-4.9-5.8-7.4-1.3.6-2.5 1.4-3.6 2.3-.9.7-1.6 1.4-2.4 2.1-.3 1.7-.4 5 1.5 9.2zM387.2 379c6-3.2 11.2-3.2 14.5-2.7-4-3.3-8.9-5-13.9-5-2.2 0-4.5.3-6.7 1.1 2.2 2.3 4.2 4.5 6.1 6.6zM370.8 397.4c-1.8-2.4-1.8-5.7 0-8-1.5-3.6-1.4-6.6-.9-8.7-5 7.3-5.2 17.1.1 24.7.1-2.2.5-4.8 1.3-7.5-.2-.1-.3-.3-.5-.5zM391.3 383.2c2.6 2.6 5 4.8 7.2 6.8 2-1.2 4.6-.7 6 1.2 1 1.3 1.2 3 .6 4.5 1.7 1.4 2.9 2.3 3.7 2.9 1.7-6.3.5-13.2-3.7-18.8l-.3-.3c-.3 0-5.8-.5-13.5 3.7zM403.7 397.7c-2.1 1.6-5 1.2-6.6-.9-1.1-1.4-1.2-3.3-.5-4.8-2.7-2.1-5.6-4.5-8.3-7l-.2-.2.2.2c-1.8 1.2-3.7 2.7-5.7 4.6-.3.2-.5.5-.8.7 1.1 2.1 1 4.6-.3 6.6.4.3.8.6 1.2 1 2 1.6 4 2.9 5.9 3.9 1.9-1.2 4.4-.8 5.8 1 .4.5.7 1.1.8 1.7 5.4 1.5 9.3 1 10.7.7 1-1.5 1.8-3.1 2.4-4.8-.8-.6-2.3-1.5-4.4-3 0 .2-.1.3-.2.3zM393.6 408.9c-1.9 1.4-4.6 1.1-6.1-.8-.7-.9-1-2-.8-3.1-2.1-1-4.2-2.4-6.3-4l-1.8-1.5c-1 .4-2 .6-3 .5-1.5 4-1.6 7.5-1.5 9.9 4 3.3 8.9 5 13.8 5 4.6 0 9.3-1.5 13.2-4.5.7-.5 1.3-1.1 1.9-1.6-2.2 0-5.1-.1-8.4-.9-.3.3-.6.7-1 1zM754.2 241.4c3.1 12.8-4.8 25.8-17.8 28.9-13 3.1-26.1-4.8-29.2-17.6-3.1-12.8 4.8-25.8 17.8-28.9 12.9-3.1 26 4.7 29.1 17.5.1 0 .1.1.1.1z" fill="#59B3D8"/>
    <path d="M727.3 256.6c0-3.5-2.9-6.3-6.4-6.3h-1c.8-3.4-1.3-6.8-4.7-7.6-.5-.1-1-.2-1.5-.2H707c-1.4 7.4.7 14.9 5.8 20.5h8.1c3.5 0 6.4-2.9 6.4-6.4zM735.3 230.3c0 .4 0 .7.1 1.1h-2.8c-3.7 0-6.7 3-6.7 6.6 0 3.6 3 6.6 6.7 6.6h22.1c-.7-7.9-5.4-14.9-12.5-18.6h-2.6c-2.4.1-4.3 2-4.3 4.3zM754.8 249.5h-13.2c-3 0-5.5 2.4-5.5 5.4 0 .9.2 1.8.7 2.6-2.9.9-4.5 3.9-3.6 6.7.7 2.2 2.8 3.8 5.2 3.8h3.7c7-3.7 11.8-10.6 12.7-18.5z" fill="#B6DEEC"/>
    <path d="M703.7 231.1c-.4 0-.7-.3-.7-.7 0-4.6-3.8-8.3-8.5-8.3-.4 0-.7-.3-.7-.7 0-.4.3-.7.7-.7 4.7 0 8.4-3.7 8.5-8.3 0-.4.4-.7.8-.7s.7.3.7.7c0 4.6 3.8 8.3 8.5 8.3.4 0 .7.3.7.7 0 .4-.3.7-.7.7-4.7 0-8.4 3.7-8.5 8.3-.1.4-.4.7-.8.7z" fill="#B7D332"/>
    <path d="M755.8 278.1c-.2 0-.4-.2-.4-.4 0-2.8-2.3-5-5.1-5-.2 0-.4-.2-.4-.4s.2-.4.4-.4c2.8 0 5-2.2 5.1-5 0-.2.2-.4.4-.4s.4.2.4.4c0 2.8 2.3 5 5.1 5 .2 0 .4.2.4.4s-.2.4-.4.4c-2.8 0-5 2.2-5.1 5 .1.2-.1.4-.4.4z" fill="#0072C5"/>
    <path d="M766 225.5c-2.3-3.7-8.1-4.6-16.8-2.5-2.7.7-5.4 1.5-7.9 2.5 1.7.8 3.2 1.8 4.7 3 1.5-.5 2.9-.9 4.3-1.2 2.3-.6 4.7-.9 7.1-1 2.8 0 4.4.7 4.9 1.5.9 1.4.1 5-5 10.8-.9 1-1.9 2.1-3 3.1-5.5 5.3-11.6 9.9-18.2 13.8-6.5 4-13.5 7.3-20.8 9.8-8.8 2.8-14.7 2.8-16.1.6-1.3-2.2 1.3-7.5 7.9-13.9-.4-1.8-.6-3.7-.5-5.6-10.4 9.3-13.8 17.4-11.1 21.7 1.4 2.3 4.5 3.6 9 3.6 5.3-.2 10.6-1.4 15.5-3.4 6.4-2.5 12.5-5.5 18.4-9.1 5.9-3.5 11.4-7.6 16.5-12.1 2-1.8 3.9-3.7 5.7-5.7 5.8-6.6 7.7-12.1 5.4-15.9z" fill="#000"/>
    <path d="M684.1 105h-1.3l-1-2.7h-4.2l-1 2.7h-1.3l3.8-9.8h1.2l3.8 9.8zm-2.7-3.8l-1.5-4.2c-.1-.1-.1-.4-.2-.7 0 .3-.1.5-.2.7l-1.5 4.2h3.4zM690.2 98.3l-4.1 5.7h4.1v1h-5.7v-.3l4.1-5.7h-3.8v-1h5.4v.3zM697.4 105h-1.1v-1.1c-.5.8-1.2 1.3-2.2 1.3-1.7 0-2.5-1-2.5-3V98h1.1v4c0 1.5.6 2.2 1.7 2.2.5 0 1-.2 1.3-.6.3-.4.5-.9.5-1.6v-4h1.1v7h.1zM703.3 99.1c-.2-.2-.5-.2-.8-.2-.5 0-.9.2-1.2.7-.3.5-.5 1.1-.5 1.8v3.6h-1.1v-7h1.1v1.4c.2-.5.4-.9.7-1.2.3-.3.7-.4 1.1-.4.3 0 .5 0 .7.1v1.2zM709.9 101.7H705c0 .8.2 1.4.6 1.8.4.4 1 .6 1.7.6.8 0 1.5-.3 2.2-.8v1.1c-.6.4-1.4.7-2.4.7s-1.8-.3-2.3-1c-.6-.6-.8-1.5-.8-2.7 0-1.1.3-2 .9-2.7.6-.7 1.4-1 2.3-1 .9 0 1.6.3 2.1.9.5.6.8 1.4.8 2.5v.6h-.2zm-1.1-.9c0-.6-.2-1.2-.5-1.5-.3-.4-.7-.5-1.3-.5-.5 0-1 .2-1.3.6-.4.4-.6.9-.7 1.5h3.8v-.1zM722.3 104.5c-.7.4-1.6.6-2.7.6-1.4 0-2.5-.4-3.3-1.3-.8-.9-1.3-2.1-1.3-3.5 0-1.6.5-2.8 1.4-3.8.9-1 2.1-1.4 3.6-1.4.9 0 1.7.1 2.3.4v1.2c-.7-.4-1.5-.6-2.3-.6-1.1 0-2 .4-2.7 1.1-.7.8-1 1.8-1 3s.3 2.1 1 2.9c.7.7 1.5 1.1 2.6 1.1 1 0 1.8-.2 2.6-.7v1h-.2zM727 105.1c-1 0-1.9-.3-2.5-1-.6-.7-.9-1.5-.9-2.6 0-1.2.3-2.1 1-2.8.6-.7 1.5-1 2.6-1 1 0 1.9.3 2.4 1 .6.6.9 1.5.9 2.7 0 1.1-.3 2-.9 2.7-.6.7-1.5 1-2.6 1zm.1-6.4c-.7 0-1.3.2-1.7.7-.4.5-.6 1.2-.6 2s.2 1.5.6 2c.4.5 1 .7 1.7.7s1.3-.2 1.7-.7c.4-.5.6-1.1.6-2 0-.9-.2-1.5-.6-2-.4-.4-.9-.7-1.7-.7zM731.9 104.7v-1.2c.6.5 1.3.7 2 .7 1 0 1.5-.3 1.5-1 0-.2 0-.3-.1-.5s-.2-.2-.3-.3c-.1-.1-.3-.2-.5-.3-.2-.1-.4-.2-.6-.2-.3-.1-.6-.2-.8-.4-.2-.1-.4-.3-.6-.4-.2-.1-.3-.3-.4-.5-.1-.2-.1-.4-.1-.7 0-.3.1-.6.2-.9.1-.3.4-.5.6-.6.2-.2.5-.3.9-.4.3-.1.7-.1 1-.1.6 0 1.1.1 1.6.3v1.1c-.5-.3-1.1-.5-1.8-.5-.2 0-.4 0-.6.1-.2 0-.3.1-.4.2l-.3.3c-.1.1-.1.3-.1.4 0 .2 0 .3.1.5s.2.2.3.3c.1.1.3.2.5.3l.6.3c.3.1.6.2.8.4.2.2.5.3.6.4.2.2.3.3.4.5.1.2.1.4.1.7 0 .3-.1.6-.2.9-.2.3-.4.5-.6.6-.3.2-.5.3-.9.4-.3.1-.7.1-1 .1-.7-.1-1.4-.2-1.9-.5zM748.2 105h-1.1v-4c0-.8-.1-1.3-.4-1.7-.2-.3-.6-.5-1.2-.5-.5 0-.9.2-1.2.7-.3.5-.5 1-.5 1.6v4h-1.1v-4.2c0-1.4-.5-2.1-1.6-2.1-.5 0-.9.2-1.2.6-.3.4-.5.9-.5 1.6v4h-1.1v-7h1.1v1.1c.5-.8 1.2-1.3 2.2-1.3.5 0 .9.1 1.2.4.3.3.6.6.7 1 .5-1 1.3-1.4 2.3-1.4 1.5 0 2.3.9 2.3 2.8v4.4h.1zM753.3 105.1c-1 0-1.9-.3-2.5-1-.6-.7-.9-1.5-.9-2.6 0-1.2.3-2.1 1-2.8.6-.7 1.5-1 2.6-1 1 0 1.9.3 2.4 1s.9 1.5.9 2.7c0 1.1-.3 2-.9 2.7-.6.7-1.6 1-2.6 1zm0-6.4c-.7 0-1.3.2-1.7.7-.4.5-.6 1.2-.6 2s.2 1.5.6 2c.4.5 1 .7 1.7.7s1.3-.2 1.7-.7c.4-.5.6-1.1.6-2 0-.9-.2-1.5-.6-2-.4-.4-.9-.7-1.7-.7zM758.1 104.7v-1.2c.6.5 1.3.7 2 .7 1 0 1.5-.3 1.5-1 0-.2 0-.3-.1-.5l-.3-.3c-.1-.1-.3-.2-.5-.3-.2-.1-.4-.2-.6-.2-.3-.1-.6-.2-.8-.4-.2-.2-.4-.3-.6-.4-.2-.1-.3-.3-.4-.5-.1-.2-.1-.4-.1-.7 0-.3.1-.6.2-.9.1-.3.4-.5.6-.6.3-.2.5-.3.9-.4.3-.1.7-.1 1-.1.6 0 1.1.1 1.6.3v1.1c-.5-.3-1.1-.5-1.8-.5-.2 0-.4 0-.6.1-.2 0-.3.1-.4.2l-.3.3c-.1.1-.1.3-.1.4 0 .2 0 .3.1.5l.3.3c.1.1.3.2.5.3l.6.3c.3.1.6.2.8.4.2.2.5.3.6.4.2.2.3.3.4.5.1.2.1.4.1.7 0 .3-.1.6-.2.9-.2.3-.4.5-.6.6-.3.2-.5.3-.9.4-.3.1-.7.1-1 .1-.7-.1-1.4-.2-1.9-.5zM768.5 105v-9.8h2.7c3.5 0 5.2 1.6 5.2 4.8 0 1.5-.5 2.7-1.4 3.6-.9.9-2.2 1.4-3.9 1.4h-2.6zm1.1-8.8v7.7h1.5c1.3 0 2.3-.3 3-1 .7-.7 1.1-1.7 1.1-2.9 0-2.5-1.3-3.8-4-3.8h-1.6zM778.3 105v-9.8h2.8c.8 0 1.5.2 2 .6.5.4.7 1 .7 1.6 0 .6-.2 1-.5 1.4-.3.4-.7.7-1.2.9.7.1 1.2.3 1.6.7.4.4.6 1 .6 1.6 0 .8-.3 1.5-.9 2-.6.5-1.4.8-2.3.8h-2.8v.2zm1.1-8.8v3.2h1.2c.6 0 1.1-.2 1.5-.5.4-.3.5-.7.5-1.3 0-1-.6-1.4-1.9-1.4h-1.3zm0 4.2v3.5h1.6c.7 0 1.2-.2 1.6-.5.4-.3.6-.8.6-1.3 0-1.2-.8-1.7-2.4-1.7h-1.4zM672.3 124h-1c-1.4-1.6-2.1-3.6-2.1-6s.7-4.4 2.1-6.1h1c-1.4 1.7-2.1 3.7-2.1 6.1 0 2.3.7 4.3 2.1 6zM678.6 121.8h-1.1v-1.1c-.5.8-1.2 1.3-2.2 1.3-.7 0-1.2-.2-1.6-.6-.4-.4-.6-.9-.6-1.5 0-1.3.8-2.1 2.3-2.3l2.1-.3c0-1.2-.5-1.8-1.4-1.8-.8 0-1.6.3-2.3.9v-1.1c.7-.4 1.5-.7 2.4-.7 1.6 0 2.5.9 2.5 2.6v4.6h-.1zm-1.1-3.6l-1.7.2c-.5.1-.9.2-1.2.4-.3.2-.4.5-.4 1 0 .3.1.6.4.8.3.2.6.3 1 .3.6 0 1-.2 1.4-.6.4-.4.5-.9.5-1.5v-.6zM681.9 120.7v4.2h-1.1v-10.2h1.1v1.2c.6-.9 1.4-1.4 2.4-1.4.9 0 1.6.3 2.1.9.5.6.8 1.5.8 2.5 0 1.2-.3 2.1-.9 2.8-.6.7-1.3 1.1-2.3 1.1-.9.1-1.6-.3-2.1-1.1zm0-2.8v1c0 .6.2 1.1.6 1.5.4.4.9.6 1.4.6.7 0 1.2-.3 1.6-.8.4-.5.6-1.2.6-2.2 0-.8-.2-1.4-.5-1.8-.4-.4-.8-.7-1.5-.7s-1.2.2-1.6.7c-.4.5-.6 1-.6 1.7zM690.1 120.7v4.2H689v-10.2h1.1v1.2c.6-.9 1.4-1.4 2.4-1.4.9 0 1.6.3 2.1.9.5.6.8 1.5.8 2.5 0 1.2-.3 2.1-.9 2.8-.6.7-1.3 1.1-2.3 1.1-.9.1-1.6-.3-2.1-1.1zm0-2.8v1c0 .6.2 1.1.6 1.5.4.4.9.6 1.4.6.7 0 1.2-.3 1.6-.8.4-.5.6-1.2.6-2.2 0-.8-.2-1.4-.5-1.8-.4-.4-.8-.7-1.5-.7s-1.2.2-1.6.7c-.4.5-.6 1-.6 1.7zM704.1 118.1h-2.8v2.8h-.9v-2.8h-2.8v-.9h2.8v-2.8h.9v2.8h2.8v.9zM710.2 121.5v-1.2c.6.5 1.3.7 2 .7 1 0 1.5-.3 1.5-1 0-.2 0-.3-.1-.5l-.3-.3c-.1-.1-.3-.2-.5-.3-.2-.1-.4-.2-.6-.2-.3-.1-.6-.2-.8-.4-.2-.2-.4-.3-.6-.4-.2-.1-.3-.3-.4-.5-.1-.2-.1-.4-.1-.7 0-.3.1-.6.2-.9.1-.3.4-.5.6-.6.3-.2.5-.3.9-.4.3-.1.7-.1 1-.1.6 0 1.1.1 1.6.3v1.1c-.5-.3-1.1-.5-1.8-.5-.2 0-.4 0-.6.1-.2 0-.3.1-.4.2l-.3.3c-.1.1-.1.3-.1.4 0 .2 0 .3.1.5l.3.3c.1.1.3.2.5.3l.6.3c.3.1.6.2.8.4.2.2.5.3.6.4.2.2.3.3.4.5.1.2.1.4.1.7 0 .3-.1.6-.2.9-.2.3-.4.5-.6.6-.3.2-.5.3-.9.4-.3.1-.7.1-1 .1-.8-.1-1.4-.2-1.9-.5zM722.2 118.5h-4.9c0 .8.2 1.4.6 1.8.4.4 1 .6 1.7.6.8 0 1.5-.3 2.2-.8v1.1c-.6.4-1.4.7-2.4.7s-1.8-.3-2.3-1c-.6-.6-.8-1.5-.8-2.7 0-1.1.3-2 .9-2.7.6-.7 1.4-1 2.3-1 .9 0 1.6.3 2.1.9.5.6.8 1.4.8 2.5v.6h-.2zm-1.2-.9c0-.6-.2-1.2-.5-1.5-.3-.4-.7-.5-1.3-.5-.5 0-1 .2-1.3.6-.4.4-.6.9-.7 1.5h3.8v-.1zM723.4 121.5v-1.2c.6.5 1.3.7 2 .7 1 0 1.5-.3 1.5-1 0-.2 0-.3-.1-.5l-.3-.3c-.1-.1-.3-.2-.5-.3-.2-.1-.4-.2-.6-.2-.3-.1-.6-.2-.8-.4-.2-.2-.4-.3-.6-.4-.2-.1-.3-.3-.4-.5-.1-.2-.1-.4-.1-.7 0-.3.1-.6.2-.9.1-.3.4-.5.6-.6.3-.2.5-.3.9-.4.3-.1.7-.1 1-.1.6 0 1.1.1 1.6.3v1.1c-.5-.3-1.1-.5-1.8-.5-.2 0-.4 0-.6.1-.2 0-.3.1-.4.2l-.3.3c-.1.1-.1.3-.1.4 0 .2 0 .3.1.5l.3.3c.1.1.3.2.5.3l.6.3c.3.1.6.2.8.4.2.2.5.3.6.4.2.2.3.3.4.5.1.2.1.4.1.7 0 .3-.1.6-.2.9-.2.3-.4.5-.6.6-.3.2-.5.3-.9.4-.3.1-.7.1-1 .1-.7-.1-1.3-.2-1.9-.5zM729.4 121.5v-1.2c.6.5 1.3.7 2 .7 1 0 1.5-.3 1.5-1 0-.2 0-.3-.1-.5s-.2-.2-.3-.3c-.1-.1-.3-.2-.5-.3-.2-.1-.4-.2-.6-.2-.3-.1-.6-.2-.8-.4-.2-.1-.4-.3-.6-.4-.2-.1-.3-.3-.4-.5-.1-.2-.1-.4-.1-.7 0-.3.1-.6.2-.9.1-.3.4-.5.6-.6.2-.2.5-.3.9-.4.3-.1.7-.1 1-.1.6 0 1.1.1 1.6.3v1.1c-.5-.3-1.1-.5-1.8-.5-.2 0-.4 0-.6.1-.2 0-.3.1-.4.2l-.3.3c-.1.1-.1.3-.1.4 0 .2 0 .3.1.5s.2.2.3.3c.1.1.3.2.5.3l.6.3c.3.1.6.2.8.4.2.2.5.3.6.4.2.2.3.3.4.5.1.2.1.4.1.7 0 .3-.1.6-.2.9-.2.3-.4.5-.6.6-.3.2-.5.3-.9.4-.3.1-.7.1-1 .1-.8-.1-1.4-.2-1.9-.5zM736.3 113c-.2 0-.4-.1-.5-.2-.1-.1-.2-.3-.2-.5s.1-.4.2-.5c.1-.1.3-.2.5-.2s.4.1.5.2c.1.1.2.3.2.5s-.1.4-.2.5c-.1.1-.3.2-.5.2zm.6 8.8h-1.1v-7h1.1v7zM742.1 121.9c-1 0-1.9-.3-2.5-1-.6-.7-.9-1.5-.9-2.6 0-1.2.3-2.1 1-2.8.6-.7 1.5-1 2.6-1 1 0 1.9.3 2.4 1s.9 1.5.9 2.7c0 1.1-.3 2-.9 2.7-.6.7-1.6 1-2.6 1zm0-6.4c-.7 0-1.3.2-1.7.7-.4.5-.6 1.2-.6 2s.2 1.5.6 2c.4.5 1 .7 1.7.7s1.3-.2 1.7-.7c.4-.5.6-1.1.6-2 0-.9-.2-1.5-.6-2-.4-.4-.9-.7-1.7-.7zM753.2 121.8H752v-4c0-1.5-.5-2.2-1.6-2.2-.6 0-1 .2-1.4.6-.4.4-.5 1-.5 1.6v4h-1.1v-7h1.1v1.2c.5-.9 1.3-1.3 2.3-1.3.8 0 1.4.2 1.8.7.4.5.6 1.2.6 2.1v4.3zM758.7 121.5v-1.2c.6.5 1.3.7 2 .7 1 0 1.5-.3 1.5-1 0-.2 0-.3-.1-.5l-.3-.3c-.1-.1-.3-.2-.5-.3-.2-.1-.4-.2-.6-.2-.3-.1-.6-.2-.8-.4-.2-.2-.4-.3-.6-.4-.2-.1-.3-.3-.4-.5-.1-.2-.1-.4-.1-.7 0-.3.1-.6.2-.9.1-.3.4-.5.6-.6.3-.2.5-.3.9-.4.3-.1.7-.1 1-.1.6 0 1.1.1 1.6.3v1.1c-.5-.3-1.1-.5-1.8-.5-.2 0-.4 0-.6.1-.2 0-.3.1-.4.2l-.3.3c-.1.1-.1.3-.1.4 0 .2 0 .3.1.5l.3.3c.1.1.3.2.5.3l.6.3c.3.1.6.2.8.4.2.2.5.3.6.4.2.2.3.3.4.5.1.2.1.4.1.7 0 .3-.1.6-.2.9-.2.3-.4.5-.6.6-.3.2-.5.3-.9.4-.3.1-.7.1-1 .1-.8-.1-1.4-.2-1.9-.5zM768.3 121.7c-.3.1-.6.2-1 .2-1.2 0-1.8-.7-1.8-2.1v-4.1h-1.2v-1h1.2V113l1.1-.4v2.1h1.8v1h-1.8v3.9c0 .5.1.8.2 1 .2.2.4.3.8.3.3 0 .5-.1.7-.2v1zM774.8 121.8h-1.1v-1.1c-.5.8-1.2 1.3-2.2 1.3-.7 0-1.2-.2-1.6-.6-.4-.4-.6-.9-.6-1.5 0-1.3.8-2.1 2.3-2.3l2.1-.3c0-1.2-.5-1.8-1.4-1.8-.8 0-1.6.3-2.3.9v-1.1c.7-.4 1.5-.7 2.4-.7 1.6 0 2.5.9 2.5 2.6v4.6h-.1zm-1.1-3.6l-1.7.2c-.5.1-.9.2-1.2.4-.3.2-.4.5-.4 1 0 .3.1.6.4.8.2.2.6.3 1 .3.6 0 1-.2 1.4-.6.4-.4.5-.9.5-1.5v-.6zM780.2 121.7c-.3.1-.6.2-1 .2-1.2 0-1.8-.7-1.8-2.1v-4.1h-1.2v-1h1.2V113l1.1-.4v2.1h1.8v1h-1.8v3.9c0 .5.1.8.2 1 .2.2.4.3.8.3.3 0 .5-.1.7-.2v1zM787.2 118.5h-4.9c0 .8.2 1.4.6 1.8.4.4 1 .6 1.7.6.8 0 1.5-.3 2.2-.8v1.1c-.6.4-1.4.7-2.4.7s-1.8-.3-2.3-1c-.6-.6-.8-1.5-.8-2.7 0-1.1.3-2 .9-2.7.6-.7 1.4-1 2.3-1 .9 0 1.6.3 2.1.9.5.6.8 1.4.8 2.5v.6h-.2zm-1.2-.9c0-.6-.2-1.2-.5-1.5-.3-.4-.7-.5-1.3-.5-.5 0-1 .2-1.3.6-.4.4-.6.9-.7 1.5h3.8v-.1zM788.9 124h-1c1.4-1.7 2.1-3.7 2.1-6s-.7-4.3-2.1-6.1h1c1.4 1.7 2.1 3.7 2.1 6.1 0 2.4-.7 4.4-2.1 6zM679.4 424.6c-1 .6-2.1.8-3.3.8-1.4 0-2.5-.5-3.4-1.4-.9-.9-1.3-2.1-1.3-3.6s.5-2.8 1.4-3.7c1-1 2.2-1.5 3.6-1.5 1.1 0 2 .2 2.7.5v1.3c-.8-.5-1.7-.8-2.8-.8-1.1 0-2 .4-2.7 1.1-.7.8-1.1 1.7-1.1 2.9s.3 2.2 1 2.9c.7.7 1.5 1.1 2.7 1.1.8 0 1.4-.2 2-.5V421h-2.1v-1h3.3v4.6zM682.6 425.3h-1.1v-10.4h1.1v10.4zM687.8 425.4c-1 0-1.9-.3-2.5-1-.6-.7-.9-1.5-.9-2.6 0-1.2.3-2.1 1-2.8.6-.7 1.5-1 2.6-1 1 0 1.9.3 2.4 1 .6.6.9 1.5.9 2.7 0 1.1-.3 2-.9 2.7-.7.7-1.5 1-2.6 1zm.1-6.3c-.7 0-1.3.2-1.7.7-.4.5-.6 1.2-.6 2s.2 1.5.6 2c.4.5 1 .7 1.7.7s1.3-.2 1.7-.7c.4-.5.6-1.1.6-2 0-.9-.2-1.5-.6-2-.4-.5-1-.7-1.7-.7zM694.2 424.3v1h-1.1v-10.4h1.1v4.6c.6-.9 1.4-1.4 2.4-1.4.9 0 1.6.3 2.1.9.5.6.8 1.5.8 2.5 0 1.2-.3 2.1-.9 2.8-.6.7-1.3 1.1-2.3 1.1-.9 0-1.6-.3-2.1-1.1zm0-2.8v1c0 .6.2 1.1.6 1.5.4.4.9.6 1.4.6.7 0 1.2-.3 1.6-.8.4-.5.6-1.2.6-2.2 0-.8-.2-1.4-.5-1.8-.4-.4-.8-.7-1.5-.7s-1.2.2-1.6.7c-.4.4-.6 1-.6 1.7zM706.1 425.3H705v-1.1c-.5.8-1.2 1.3-2.2 1.3-.7 0-1.2-.2-1.6-.6-.4-.4-.6-.9-.6-1.5 0-1.3.8-2.1 2.3-2.3l2.1-.3c0-1.2-.5-1.8-1.4-1.8-.8 0-1.6.3-2.3.9v-1.1c.7-.4 1.5-.7 2.4-.7 1.6 0 2.5.9 2.5 2.6v4.6h-.1zm-1.1-3.6l-1.7.2c-.5.1-.9.2-1.2.4-.3.2-.4.5-.4 1 0 .3.1.6.4.8.2.2.6.3 1 .3.6 0 1-.2 1.4-.6.4-.4.5-.9.5-1.5v-.6zM709.4 425.3h-1.1v-10.4h1.1v10.4zM712.8 425.3h-1.1v-10.4h1.1v10.4zM720.6 418.3l-3.2 8.1c-.6 1.4-1.4 2.2-2.4 2.2-.3 0-.5 0-.7-.1v-1c.2.1.5.1.7.1.6 0 1-.3 1.3-1l.6-1.3-2.7-7h1.2l1.9 5.4c0 .1.1.2.1.5 0-.1.1-.3.1-.5l2-5.4h1.1zM731.6 425.3h-1.1v-1.2c-.5.9-1.3 1.4-2.4 1.4-.9 0-1.6-.3-2.1-.9-.5-.6-.8-1.5-.8-2.6 0-1.2.3-2.1.9-2.8.6-.7 1.4-1 2.3-1 1 0 1.7.4 2.1 1.1V415h1.1v10.3zm-1.1-3.2v-1c0-.6-.2-1-.6-1.4-.4-.4-.8-.6-1.4-.6-.7 0-1.2.2-1.6.8-.4.5-.6 1.2-.6 2.1 0 .8.2 1.4.6 1.9.4.5.9.7 1.5.7s1.1-.2 1.5-.7c.4-.5.6-1.1.6-1.8zM734.5 416.5c-.2 0-.4-.1-.5-.2-.1-.1-.2-.3-.2-.5s.1-.4.2-.5c.1-.1.3-.2.5-.2s.4.1.5.2c.1.1.2.3.2.5s-.1.4-.2.5c-.1.1-.3.2-.5.2zm.5 8.8h-1.1v-7h1.1v7zM736.9 425v-1.2c.6.5 1.3.7 2 .7 1 0 1.5-.3 1.5-1 0-.2 0-.3-.1-.5l-.3-.3c-.1-.1-.3-.2-.5-.3-.2-.1-.4-.2-.6-.2-.3-.1-.6-.2-.8-.4-.2-.1-.4-.3-.6-.4-.2-.2-.3-.3-.4-.5-.1-.2-.1-.4-.1-.7 0-.3.1-.6.2-.9.1-.3.4-.5.6-.6.2-.2.5-.3.9-.4.3-.1.7-.1 1-.1.6 0 1.1.1 1.6.3v1.1c-.5-.3-1.1-.5-1.8-.5-.2 0-.4 0-.6.1-.2 0-.3.1-.4.2l-.3.3c-.1.1-.1.3-.1.4 0 .2 0 .3.1.5l.3.3c.1.1.3.2.5.3l.6.3c.3.1.6.2.8.4.2.1.5.3.6.4.1.1.3.3.4.5.1.2.1.4.1.7 0 .3-.1.6-.2.9-.2.3-.4.5-.6.6-.3.2-.5.3-.9.4-.3.1-.7.1-1 .1-.8-.1-1.4-.2-1.9-.5zM746.5 425.2c-.3.1-.6.2-1 .2-1.2 0-1.8-.7-1.8-2.1v-4.1h-1.2v-1h1.2v-1.7l1.1-.4v2.1h1.8v1h-1.8v3.9c0 .5.1.8.2 1 .2.2.4.3.8.3.3 0 .5-.1.7-.2v1zM751.6 419.4c-.2-.2-.5-.2-.8-.2-.5 0-.9.2-1.2.7-.3.5-.5 1.1-.5 1.8v3.6H748v-7h1.1v1.4c.2-.5.4-.9.7-1.2.3-.3.7-.4 1.1-.4.3 0 .5 0 .7.1v1.2zM753.4 416.5c-.2 0-.4-.1-.5-.2-.1-.1-.2-.3-.2-.5s.1-.4.2-.5c.1-.1.3-.2.5-.2s.4.1.5.2c.1.1.2.3.2.5s-.1.4-.2.5c-.1.1-.3.2-.5.2zm.6 8.8h-1.1v-7h1.1v7zM757.4 424.3v1h-1.1v-10.4h1.1v4.6c.6-.9 1.4-1.4 2.4-1.4.9 0 1.6.3 2.1.9.5.6.8 1.5.8 2.5 0 1.2-.3 2.1-.9 2.8-.6.7-1.3 1.1-2.3 1.1-.9 0-1.6-.3-2.1-1.1zm0-2.8v1c0 .6.2 1.1.6 1.5.4.4.9.6 1.4.6.7 0 1.2-.3 1.6-.8.4-.5.6-1.2.6-2.2 0-.8-.2-1.4-.5-1.8-.4-.4-.8-.7-1.5-.7s-1.2.2-1.6.7c-.5.4-.6 1-.6 1.7zM770.1 425.3H769v-1.1c-.5.8-1.2 1.3-2.2 1.3-1.7 0-2.5-1-2.5-3v-4.2h1.1v4c0 1.5.6 2.2 1.7 2.2.5 0 1-.2 1.4-.6.4-.4.5-.9.5-1.6v-4h1.1v7zM775.6 425.2c-.3.1-.6.2-1 .2-1.2 0-1.8-.7-1.8-2.1v-4.1h-1.2v-1h1.2v-1.7l1.1-.4v2.1h1.8v1h-1.8v3.9c0 .5.1.8.2 1 .2.2.4.3.8.3.3 0 .5-.1.7-.2v1zM782.6 422.1h-4.9c0 .8.2 1.4.6 1.8.4.4 1 .6 1.7.6.8 0 1.5-.3 2.2-.8v1.1c-.6.4-1.4.7-2.4.7s-1.8-.3-2.3-1c-.5-.7-.8-1.5-.8-2.7 0-1.1.3-2 .9-2.7.6-.7 1.4-1 2.3-1 .9 0 1.6.3 2.1.9.5.6.8 1.4.8 2.5v.6h-.2zm-1.1-1c0-.6-.2-1.2-.5-1.5-.3-.4-.7-.5-1.3-.5-.5 0-1 .2-1.3.6-.4.4-.6.9-.7 1.5h3.8v-.1zM790.3 425.3h-1.1v-1.2c-.5.9-1.3 1.4-2.4 1.4-.9 0-1.6-.3-2.1-.9-.5-.6-.8-1.5-.8-2.6 0-1.2.3-2.1.9-2.8.6-.7 1.4-1 2.3-1 1 0 1.7.4 2.1 1.1V415h1.1v10.3zm-1.1-3.2v-1c0-.6-.2-1-.6-1.4-.4-.4-.8-.6-1.4-.6-.7 0-1.2.2-1.6.8-.4.5-.6 1.2-.6 2.1 0 .8.2 1.4.6 1.9.4.5.9.7 1.5.7s1.1-.2 1.5-.7c.4-.5.6-1.1.6-1.8zM693.3 442.1h-1.1V441c-.5.8-1.2 1.3-2.2 1.3-.7 0-1.2-.2-1.6-.6-.4-.4-.6-.9-.6-1.5 0-1.3.8-2.1 2.3-2.3l2.1-.3c0-1.2-.5-1.8-1.4-1.8-.8 0-1.6.3-2.3.9v-1.1c.7-.4 1.5-.7 2.4-.7 1.6 0 2.5.9 2.5 2.6v4.6h-.1zm-1.1-3.6l-1.7.2c-.5.1-.9.2-1.2.4-.3.2-.4.5-.4 1 0 .3.1.6.4.8.2.2.6.3 1 .3.6 0 1-.2 1.4-.6.4-.4.5-.9.5-1.5v-.6zM700.2 441.8c-.5.3-1.2.5-1.9.5-1 0-1.8-.3-2.4-1-.6-.7-.9-1.5-.9-2.5 0-1.2.3-2.1 1-2.8.7-.7 1.5-1 2.6-1 .6 0 1.2.1 1.6.3v1.1c-.5-.4-1.1-.5-1.7-.5-.7 0-1.3.3-1.8.8s-.7 1.2-.7 2 .2 1.5.6 1.9c.4.5 1 .7 1.7.7.6 0 1.2-.2 1.7-.6v1.1h.2zM705.5 436.2c-.2-.2-.5-.2-.8-.2-.5 0-.9.2-1.2.7-.3.5-.5 1.1-.5 1.8v3.6h-1.1v-7h1.1v1.4c.2-.5.4-.9.7-1.2.3-.3.7-.4 1.1-.4.3 0 .5 0 .7.1v1.2zM709.5 442.2c-1 0-1.9-.3-2.5-1-.6-.7-.9-1.5-.9-2.6 0-1.2.3-2.1 1-2.8.6-.7 1.5-1 2.6-1 1 0 1.9.3 2.4 1s.9 1.5.9 2.7c0 1.1-.3 2-.9 2.7-.7.7-1.5 1-2.6 1zm.1-6.3c-.7 0-1.3.2-1.7.7-.4.5-.6 1.2-.6 2s.2 1.5.6 2c.4.5 1 .7 1.7.7s1.3-.2 1.7-.7c.4-.5.6-1.1.6-2 0-.9-.2-1.5-.6-2-.4-.5-1-.7-1.7-.7zM714.3 441.8v-1.2c.6.5 1.3.7 2 .7 1 0 1.5-.3 1.5-1 0-.2 0-.3-.1-.5l-.3-.3c-.1-.1-.3-.2-.5-.3-.2-.1-.4-.2-.6-.2-.3-.1-.6-.2-.8-.4-.2-.1-.4-.3-.6-.4-.2-.1-.3-.3-.4-.5-.1-.2-.1-.4-.1-.7 0-.3.1-.6.2-.9.1-.3.4-.5.6-.6.3-.2.5-.3.9-.4.3-.1.7-.1 1-.1.6 0 1.1.1 1.6.3v1.1c-.5-.3-1.1-.5-1.8-.5-.2 0-.4 0-.6.1-.2 0-.3.1-.4.2l-.3.3c-.1.1-.1.3-.1.4 0 .2 0 .3.1.5l.3.3c.1.1.3.2.5.3l.6.3c.3.1.6.2.8.4.2.1.5.3.6.4.2.2.3.3.4.5.1.2.1.4.1.7 0 .3-.1.6-.2.9-.2.3-.4.5-.6.6-.3.2-.5.3-.9.4-.3.1-.7.1-1 .1-.7-.1-1.3-.2-1.9-.5zM720.3 441.8v-1.2c.6.5 1.3.7 2 .7 1 0 1.5-.3 1.5-1 0-.2 0-.3-.1-.5s-.2-.2-.3-.3c-.1-.1-.3-.2-.5-.3-.2-.1-.4-.2-.6-.2-.3-.1-.6-.2-.8-.4-.2-.1-.4-.3-.6-.4-.2-.1-.3-.3-.4-.5-.1-.2-.1-.4-.1-.7 0-.3.1-.6.2-.9.1-.3.4-.5.6-.6.2-.2.5-.3.9-.4.3-.1.7-.1 1-.1.6 0 1.1.1 1.6.3v1.1c-.5-.3-1.1-.5-1.8-.5-.2 0-.4 0-.6.1-.2 0-.3.1-.4.2l-.3.3c-.1.1-.1.3-.1.4 0 .2 0 .3.1.5s.2.2.3.3c.1.1.3.2.5.3l.6.3c.3.1.6.2.8.4.2.1.5.3.6.4.2.2.3.3.4.5.1.2.1.4.1.7 0 .3-.1.6-.2.9-.2.3-.4.5-.6.6-.3.2-.5.3-.9.4-.3.1-.7.1-1 .1-.8-.1-1.4-.2-1.9-.5zM734.1 436.2c-.2-.2-.5-.2-.8-.2-.5 0-.9.2-1.2.7-.3.5-.5 1.1-.5 1.8v3.6h-1.1v-7h1.1v1.4c.2-.5.4-.9.7-1.2.3-.3.7-.4 1.1-.4.3 0 .5 0 .7.1v1.2zM740.8 438.9h-4.9c0 .8.2 1.4.6 1.8.4.4 1 .6 1.7.6.8 0 1.5-.3 2.2-.8v1.1c-.6.4-1.4.7-2.4.7s-1.8-.3-2.3-1c-.6-.6-.8-1.5-.8-2.7 0-1.1.3-2 .9-2.7.6-.7 1.4-1 2.3-1 .9 0 1.6.3 2.1.9.5.6.8 1.4.8 2.5v.6h-.2zm-1.2-1c0-.6-.2-1.2-.5-1.5-.3-.4-.7-.5-1.3-.5-.5 0-1 .2-1.3.6-.4.4-.6.9-.7 1.5h3.8v-.1zM748.5 441.5c0 2.6-1.2 3.9-3.7 3.9-.9 0-1.6-.2-2.3-.5v-1.1c.8.4 1.5.7 2.3.7 1.7 0 2.6-.9 2.6-2.7v-.8c-.5.9-1.3 1.3-2.4 1.3-.9 0-1.6-.3-2.1-.9-.5-.6-.8-1.5-.8-2.5 0-1.2.3-2.1.9-2.8.6-.7 1.4-1.1 2.3-1.1.9 0 1.6.4 2.1 1.1v-1h1.1v6.4zm-1.2-2.6v-1c0-.6-.2-1-.6-1.4-.4-.4-.8-.6-1.4-.6-.7 0-1.2.3-1.6.8-.4.5-.6 1.2-.6 2.1 0 .8.2 1.4.6 1.9.4.5.9.7 1.5.7s1.1-.2 1.5-.7c.4-.5.6-1.1.6-1.8zM751.3 433.3c-.2 0-.4-.1-.5-.2-.1-.1-.2-.3-.2-.5s.1-.4.2-.5c.1-.1.3-.2.5-.2s.4.1.5.2c.1.1.2.3.2.5s-.1.4-.2.5c-.1.1-.3.2-.5.2zm.6 8.8h-1.1v-7h1.1v7zM757 442.2c-1 0-1.9-.3-2.5-1-.6-.7-.9-1.5-.9-2.6 0-1.2.3-2.1 1-2.8.6-.7 1.5-1 2.6-1 1 0 1.9.3 2.4 1 .6.6.9 1.5.9 2.7 0 1.1-.3 2-.9 2.7-.6.7-1.5 1-2.6 1zm.1-6.3c-.7 0-1.3.2-1.7.7-.4.5-.6 1.2-.6 2s.2 1.5.6 2c.4.5 1 .7 1.7.7s1.3-.2 1.7-.7c.4-.5.6-1.1.6-2 0-.9-.2-1.5-.6-2-.4-.5-.9-.7-1.7-.7zM768.1 442.1H767v-4c0-1.5-.5-2.2-1.6-2.2-.6 0-1 .2-1.4.6-.4.4-.6 1-.6 1.6v4h-1.1v-7h1.1v1.2c.5-.9 1.3-1.3 2.3-1.3.8 0 1.4.2 1.8.7.4.5.6 1.2.6 2.1v4.3zM769.8 441.8v-1.2c.6.5 1.3.7 2 .7 1 0 1.5-.3 1.5-1 0-.2 0-.3-.1-.5l-.3-.3c-.1-.1-.3-.2-.5-.3-.2-.1-.4-.2-.6-.2-.3-.1-.6-.2-.8-.4-.2-.1-.4-.3-.6-.4-.2-.1-.3-.3-.4-.5-.1-.2-.1-.4-.1-.7 0-.3.1-.6.2-.9.1-.3.4-.5.6-.6.3-.2.5-.3.9-.4.3-.1.7-.1 1-.1.6 0 1.1.1 1.6.3v1.1c-.5-.3-1.1-.5-1.8-.5-.2 0-.4 0-.6.1-.2 0-.3.1-.4.2l-.3.3c-.1.1-.1.3-.1.4 0 .2 0 .3.1.5l.3.3c.1.1.3.2.5.3l.6.3c.3.1.6.2.8.4.2.1.5.3.6.4.2.2.3.3.4.5.1.2.1.4.1.7 0 .3-.1.6-.2.9-.2.3-.4.5-.6.6-.3.2-.5.3-.9.4-.3.1-.7.1-1 .1-.7-.1-1.3-.2-1.9-.5zM351.1 442.9h-1.3l-1-2.7h-4.2l-1 2.7h-1.3l3.8-9.8h1.2l3.8 9.8zm-2.7-3.8l-1.5-4.2c-.1-.1-.1-.4-.2-.7 0 .3-.1.5-.2.7l-1.5 4.2h3.4zM357.2 436.2l-4.1 5.7h4.1v1h-5.7v-.3l4.1-5.7h-3.8v-1h5.4v.3zM364.4 442.9h-1.1v-1.1c-.5.8-1.2 1.3-2.2 1.3-1.7 0-2.5-1-2.5-3v-4.2h1.1v4c0 1.5.6 2.2 1.7 2.2.5 0 1-.2 1.3-.6.4-.4.5-.9.5-1.6v-4h1.1v7h.1zM370.3 437c-.2-.2-.5-.2-.8-.2-.5 0-.9.2-1.2.7-.3.5-.5 1.1-.5 1.8v3.6h-1.1v-7h1.1v1.4c.2-.5.4-.9.7-1.2.3-.3.7-.4 1.1-.4.3 0 .5 0 .7.1v1.2zM376.9 439.7H372c0 .8.2 1.4.6 1.8.4.4 1 .6 1.7.6.8 0 1.5-.3 2.2-.8v1.1c-.6.4-1.4.7-2.4.7s-1.8-.3-2.3-1c-.6-.6-.8-1.5-.8-2.7 0-1.1.3-2 .9-2.7.6-.7 1.4-1 2.3-1 .9 0 1.6.3 2.1.9.5.6.8 1.4.8 2.5v.6h-.2zm-1.1-1c0-.6-.2-1.2-.5-1.5-.3-.4-.7-.5-1.3-.5-.5 0-1 .2-1.3.6-.4.4-.6.9-.7 1.5h3.8v-.1zM386.1 437c-.2-.2-.5-.2-.8-.2-.5 0-.9.2-1.2.7-.3.5-.5 1.1-.5 1.8v3.6h-1.1v-7h1.1v1.4c.2-.5.4-.9.7-1.2.3-.3.7-.4 1.1-.4.3 0 .5 0 .7.1v1.2zM392.8 439.7h-4.9c0 .8.2 1.4.6 1.8.4.4 1 .6 1.7.6.8 0 1.5-.3 2.2-.8v1.1c-.6.4-1.4.7-2.4.7s-1.8-.3-2.3-1c-.6-.6-.8-1.5-.8-2.7 0-1.1.3-2 .9-2.7.6-.7 1.4-1 2.3-1 .9 0 1.6.3 2.1.9.5.6.8 1.4.8 2.5v.6h-.2zm-1.2-1c0-.6-.2-1.2-.5-1.5-.3-.4-.7-.5-1.3-.5-.5 0-1 .2-1.3.6-.4.4-.6.9-.7 1.5h3.8v-.1zM400.4 442.4c0 2.6-1.2 3.9-3.7 3.9-.9 0-1.6-.2-2.3-.5v-1.1c.8.4 1.5.7 2.3.7 1.7 0 2.6-.9 2.6-2.7v-.8c-.5.9-1.3 1.3-2.4 1.3-.9 0-1.6-.3-2.1-.9-.5-.6-.8-1.5-.8-2.5 0-1.2.3-2.1.9-2.8.6-.7 1.4-1.1 2.3-1.1.9 0 1.6.4 2.1 1.1v-1h1.1v6.4zm-1.1-2.7v-1c0-.6-.2-1-.6-1.4-.4-.4-.8-.6-1.4-.6-.7 0-1.2.3-1.6.8-.4.5-.6 1.2-.6 2.1 0 .8.2 1.4.6 1.9.4.5.9.7 1.5.7s1.1-.2 1.5-.7c.4-.5.6-1.1.6-1.8zM403.3 434.1c-.2 0-.4-.1-.5-.2-.1-.1-.2-.3-.2-.5s.1-.4.2-.5c.1-.1.3-.2.5-.2s.4.1.5.2c.1.1.2.3.2.5s-.1.4-.2.5c-.1.2-.3.2-.5.2zm.5 8.8h-1.1v-7h1.1v7zM409 443.1c-1 0-1.9-.3-2.5-1-.6-.7-.9-1.5-.9-2.6 0-1.2.3-2.1 1-2.8.6-.7 1.5-1 2.6-1 1 0 1.9.3 2.4 1 .6.6.9 1.5.9 2.7 0 1.1-.3 2-.9 2.7-.7.6-1.5 1-2.6 1zm.1-6.4c-.7 0-1.3.2-1.7.7-.4.5-.6 1.2-.6 2s.2 1.5.6 2c.4.5 1 .7 1.7.7s1.3-.2 1.7-.7c.4-.5.6-1.1.6-2 0-.9-.2-1.5-.6-2-.4-.5-1-.7-1.7-.7zM420.1 442.9H419v-4c0-1.5-.5-2.2-1.6-2.2-.6 0-1 .2-1.4.6-.4.4-.5 1-.5 1.6v4h-1.1v-7h1.1v1.2c.5-.9 1.3-1.3 2.3-1.3.8 0 1.4.2 1.8.7.4.5.6 1.2.6 2.1v4.3h-.1zM432.9 442.5c-.7.4-1.6.6-2.7.6-1.4 0-2.5-.4-3.3-1.3-.8-.9-1.3-2.1-1.3-3.5 0-1.6.5-2.8 1.4-3.8.9-1 2.1-1.4 3.6-1.4.9 0 1.7.1 2.3.4v1.2c-.7-.4-1.5-.6-2.3-.6-1.1 0-2 .4-2.7 1.1-.7.8-1 1.8-1 3s.3 2.1 1 2.9c.7.7 1.5 1.1 2.6 1.1 1 0 1.8-.2 2.6-.7v1h-.2zM351.4 282.2h-1.3l-1-2.7h-4.2l-1 2.7h-1.3l3.8-9.8h1.2l3.8 9.8zm-2.7-3.7l-1.5-4.2c-.1-.1-.1-.4-.2-.7 0 .3-.1.5-.2.7l-1.5 4.2h3.4zM357.6 275.6l-4.1 5.7h4.1v1h-5.7v-.3l4.1-5.7h-3.8v-1h5.4v.3zM364.7 282.2h-1.1v-1.1c-.5.8-1.2 1.3-2.2 1.3-1.7 0-2.5-1-2.5-3v-4.2h1.1v4c0 1.5.6 2.2 1.7 2.2.5 0 1-.2 1.3-.6.4-.4.5-.9.5-1.6v-4h1.1v7h.1zM370.6 276.4c-.2-.2-.5-.2-.8-.2-.5 0-.9.2-1.2.7-.3.5-.5 1.1-.5 1.8v3.6H367v-7h1.1v1.4c.2-.5.4-.9.7-1.2.3-.3.7-.4 1.1-.4.3 0 .5 0 .7.1v1.2zM377.3 279h-4.9c0 .8.2 1.4.6 1.8.4.4 1 .6 1.7.6.8 0 1.5-.3 2.2-.8v1.1c-.6.4-1.4.7-2.4.7s-1.8-.3-2.3-1c-.6-.6-.8-1.5-.8-2.7 0-1.1.3-2 .9-2.7.6-.7 1.4-1 2.3-1 .9 0 1.6.3 2.1.9.5.6.8 1.4.8 2.5v.6h-.2zm-1.2-.9c0-.6-.2-1.2-.5-1.5-.3-.3-.7-.5-1.3-.5-.5 0-1 .2-1.3.6-.3.4-.6.9-.7 1.5h3.8v-.1zM386.4 276.4c-.2-.2-.5-.2-.8-.2-.5 0-.9.2-1.2.7-.3.5-.5 1.1-.5 1.8v3.6h-1.1v-7h1.1v1.4c.2-.5.4-.9.7-1.2.3-.3.7-.4 1.1-.4.3 0 .5 0 .7.1v1.2zM393.1 279h-4.9c0 .8.2 1.4.6 1.8.4.4 1 .6 1.7.6.8 0 1.5-.3 2.2-.8v1.1c-.6.4-1.4.7-2.4.7s-1.8-.3-2.3-1c-.6-.6-.8-1.5-.8-2.7 0-1.1.3-2 .9-2.7.6-.7 1.4-1 2.3-1 .9 0 1.6.3 2.1.9.5.6.8 1.4.8 2.5v.6h-.2zm-1.2-.9c0-.6-.2-1.2-.5-1.5-.3-.3-.7-.5-1.3-.5-.5 0-1 .2-1.3.6-.3.4-.6.9-.7 1.5h3.8v-.1zM400.8 281.7c0 2.6-1.2 3.9-3.7 3.9-.9 0-1.6-.2-2.3-.5V284c.8.4 1.5.7 2.3.7 1.7 0 2.6-.9 2.6-2.7v-.8c-.5.9-1.3 1.3-2.4 1.3-.9 0-1.6-.3-2.1-.9-.5-.6-.8-1.5-.8-2.5 0-1.2.3-2.1.9-2.8.6-.7 1.4-1.1 2.3-1.1.9 0 1.6.4 2.1 1.1v-1h1.1v6.4zm-1.2-2.6v-1c0-.6-.2-1-.6-1.4-.4-.4-.8-.6-1.4-.6-.7 0-1.2.3-1.6.8-.4.5-.6 1.2-.6 2.1 0 .8.2 1.4.6 1.9.4.5.9.7 1.5.7s1.1-.2 1.5-.7c.4-.5.6-1.1.6-1.8zM403.6 273.5c-.2 0-.4-.1-.5-.2-.1-.1-.2-.3-.2-.5s.1-.4.2-.5c.1-.1.3-.2.5-.2s.4.1.5.2c.1.1.2.3.2.5s-.1.4-.2.5c-.1.1-.3.2-.5.2zm.5 8.7H403v-7h1.1v7zM409.3 282.4c-1 0-1.9-.3-2.5-1-.6-.7-.9-1.5-.9-2.6 0-1.2.3-2.1 1-2.8.7-.7 1.5-1 2.6-1 1 0 1.9.3 2.4 1 .6.6.9 1.5.9 2.7 0 1.1-.3 2-.9 2.7-.6.7-1.5 1-2.6 1zm.1-6.4c-.7 0-1.3.2-1.7.7-.4.5-.6 1.2-.6 2s.2 1.5.6 2c.4.5 1 .7 1.7.7s1.3-.2 1.7-.7c.4-.5.6-1.1.6-2 0-.9-.2-1.5-.6-2-.4-.5-.9-.7-1.7-.7zM420.4 282.2h-1.1v-4c0-1.5-.5-2.2-1.6-2.2-.6 0-1 .2-1.4.6-.4.4-.5 1-.5 1.6v4h-1.1v-7h1.1v1.2c.5-.9 1.3-1.3 2.3-1.3.8 0 1.4.2 1.8.7.4.5.6 1.2.6 2.1v4.3h-.1zM426.5 282.2v-9.8h2.8c.8 0 1.5.2 2 .6.5.4.7 1 .7 1.6 0 .6-.2 1-.5 1.4-.3.4-.7.7-1.2.9.7.1 1.2.3 1.6.7.4.4.6 1 .6 1.6 0 .8-.3 1.5-.9 2-.6.5-1.4.8-2.3.8h-2.8v.2zm1.2-8.7v3.2h1.2c.6 0 1.1-.2 1.5-.5.4-.3.5-.7.5-1.3 0-1-.6-1.4-1.9-1.4h-1.3zm0 4.2v3.5h1.6c.7 0 1.2-.2 1.6-.5.4-.3.6-.8.6-1.3 0-1.2-.8-1.7-2.4-1.7h-1.4zM350.9 121.2h-1.3l-1-2.7h-4.2l-1 2.7h-1.3l3.8-9.8h1.2l3.8 9.8zm-2.7-3.7l-1.5-4.2c0-.1-.1-.4-.2-.7 0 .3-.1.5-.2.7l-1.5 4.2h3.4zM357.1 114.6l-4.1 5.7h4.1v1h-5.7v-.3l4.1-5.7h-3.8v-1h5.4v.3zM364.2 121.2h-1.1v-1.1c-.5.8-1.2 1.3-2.2 1.3-1.7 0-2.5-1-2.5-3v-4.2h1.1v4c0 1.5.6 2.2 1.7 2.2.5 0 1-.2 1.4-.6.4-.4.5-.9.5-1.6v-4h1.1v7zM370.1 115.4c-.2-.2-.5-.2-.8-.2-.5 0-.9.2-1.2.7-.3.5-.5 1.1-.5 1.8v3.6h-1.1v-7h1.1v1.4c.2-.5.4-.9.7-1.2.3-.3.7-.4 1.1-.4.3 0 .5 0 .7.1v1.2zM376.7 118h-4.9c0 .8.2 1.4.6 1.8.4.4 1 .6 1.7.6.8 0 1.5-.3 2.2-.8v1.1c-.6.4-1.4.7-2.4.7s-1.8-.3-2.3-1c-.6-.6-.8-1.5-.8-2.7 0-1.1.3-2 .9-2.7.6-.7 1.4-1 2.3-1 .9 0 1.6.3 2.1.9.5.6.8 1.4.8 2.5v.6h-.2zm-1.1-.9c0-.6-.2-1.2-.5-1.5-.3-.3-.7-.5-1.3-.5-.5 0-1 .2-1.3.6-.3.4-.6.9-.7 1.5h3.8v-.1zM385.9 115.4c-.2-.2-.5-.2-.8-.2-.5 0-.9.2-1.2.7-.3.5-.5 1.1-.5 1.8v3.6h-1.1v-7h1.1v1.4c.2-.5.4-.9.7-1.2.3-.3.7-.4 1.1-.4.3 0 .5 0 .7.1v1.2zM392.6 118h-4.9c0 .8.2 1.4.6 1.8.4.4 1 .6 1.7.6.8 0 1.5-.3 2.2-.8v1.1c-.6.4-1.4.7-2.4.7s-1.8-.3-2.3-1c-.6-.6-.8-1.5-.8-2.7 0-1.1.3-2 .9-2.7.6-.7 1.4-1 2.3-1 .9 0 1.6.3 2.1.9.5.6.8 1.4.8 2.5v.6h-.2zm-1.2-.9c0-.6-.2-1.2-.5-1.5-.3-.3-.7-.5-1.3-.5-.5 0-1 .2-1.3.6-.3.4-.6.9-.7 1.5h3.8v-.1zM400.3 120.7c0 2.6-1.2 3.9-3.7 3.9-.9 0-1.6-.2-2.3-.5V123c.8.4 1.5.7 2.3.7 1.7 0 2.6-.9 2.6-2.7v-.8c-.5.9-1.3 1.3-2.4 1.3-.9 0-1.6-.3-2.1-.9-.5-.6-.8-1.5-.8-2.5 0-1.2.3-2.1.9-2.8.6-.7 1.4-1.1 2.3-1.1.9 0 1.6.4 2.1 1.1v-1h1.1v6.4zm-1.2-2.6v-1c0-.6-.2-1-.6-1.4-.4-.4-.8-.6-1.4-.6-.7 0-1.2.3-1.6.8-.4.5-.6 1.2-.6 2.1 0 .8.2 1.4.6 1.9.4.5.9.7 1.5.7s1.1-.2 1.5-.7c.4-.5.6-1.1.6-1.8zM403.1 112.5c-.2 0-.4-.1-.5-.2-.1-.1-.2-.3-.2-.5s.1-.4.2-.5c.1-.1.3-.2.5-.2s.4.1.5.2c.1.1.2.3.2.5s-.1.4-.2.5c-.1.1-.3.2-.5.2zm.5 8.7h-1.1v-7h1.1v7zM408.8 121.4c-1 0-1.9-.3-2.5-1-.6-.7-.9-1.5-.9-2.6 0-1.2.3-2.1 1-2.8.7-.7 1.5-1 2.6-1 1 0 1.9.3 2.4 1 .6.6.9 1.5.9 2.7 0 1.1-.3 2-.9 2.7-.6.7-1.5 1-2.6 1zm.1-6.4c-.7 0-1.3.2-1.7.7-.4.5-.6 1.2-.6 2s.2 1.5.6 2c.4.5 1 .7 1.7.7s1.3-.2 1.7-.7c.4-.5.6-1.1.6-2 0-.9-.2-1.5-.6-2-.4-.5-1-.7-1.7-.7zM419.9 121.2h-1.1v-4c0-1.5-.5-2.2-1.6-2.2-.6 0-1 .2-1.4.6-.4.4-.6 1-.6 1.6v4h-1.1v-7h1.1v1.2c.5-.9 1.3-1.3 2.3-1.3.8 0 1.4.2 1.8.7.4.5.6 1.2.6 2.1v4.3zM433.6 121.2h-1.3l-1-2.7h-4.2l-1 2.7h-1.3l3.8-9.8h1.2l3.8 9.8zm-2.7-3.7l-1.5-4.2c0-.1-.1-.4-.2-.7 0 .3-.1.5-.2.7l-1.5 4.2h3.4zM186 282.7h-1.3l-1-2.7h-4.2l-1 2.7h-1.3l3.8-9.8h1.2l3.8 9.8zm-2.6-3.7l-1.5-4.2c-.1-.1-.1-.4-.2-.7 0 .3-.1.5-.2.7L180 279h3.4zM192.2 276.1l-4.1 5.7h4.1v1h-5.7v-.3l4.1-5.7h-3.8v-1h5.4v.3zM199.3 282.7h-1.1v-1.1c-.5.8-1.2 1.3-2.2 1.3-1.7 0-2.5-1-2.5-3v-4.2h1.1v4c0 1.5.6 2.2 1.7 2.2.5 0 1-.2 1.3-.6.4-.4.5-.9.5-1.6v-4h1.1v7h.1zM205.2 276.9c-.2-.2-.5-.2-.8-.2-.5 0-.9.2-1.2.7-.3.5-.5 1.1-.5 1.8v3.6h-1.1v-7h1.1v1.4c.2-.5.4-.9.7-1.2.3-.3.7-.4 1.1-.4.3 0 .5 0 .7.1v1.2zM211.9 279.5H207c0 .8.2 1.4.6 1.8.4.4 1 .6 1.7.6.8 0 1.5-.3 2.2-.8v1.1c-.6.4-1.4.7-2.4.7s-1.8-.3-2.3-1c-.6-.6-.8-1.5-.8-2.7 0-1.1.3-2 .9-2.7.6-.7 1.4-1 2.3-1 .9 0 1.6.3 2.1.9.5.6.8 1.4.8 2.5v.6h-.2zm-1.2-.9c0-.6-.2-1.2-.5-1.5-.3-.3-.7-.5-1.3-.5-.5 0-1 .2-1.3.6-.3.4-.6.9-.7 1.5h3.8v-.1zM223.4 274h-2.8v8.8h-1.1V274h-2.8v-1h6.8v1h-.1zM227.2 276.9c-.2-.2-.5-.2-.8-.2-.5 0-.9.2-1.2.7-.3.5-.5 1.1-.5 1.8v3.6h-1.1v-7h1.1v1.4c.2-.5.4-.9.7-1.2.3-.3.7-.4 1.1-.4.3 0 .5 0 .7.1v1.2zM233.4 282.7h-1.1v-1.1c-.5.8-1.2 1.3-2.2 1.3-.7 0-1.2-.2-1.6-.6-.4-.4-.6-.9-.6-1.5 0-1.3.8-2.1 2.3-2.3l2.1-.3c0-1.2-.5-1.8-1.4-1.8-.8 0-1.6.3-2.3.9v-1.1c.7-.4 1.5-.7 2.4-.7 1.6 0 2.5.9 2.5 2.6v4.6h-.1zm-1.1-3.5l-1.7.2c-.5.1-.9.2-1.2.4-.3.2-.4.5-.4 1 0 .3.1.6.4.8.2.2.6.3 1 .3.6 0 1-.2 1.4-.6.4-.4.5-.9.5-1.5v-.6zM239 273.4c-.2-.1-.5-.2-.7-.2-.8 0-1.2.5-1.2 1.5v1.1h1.6v1h-1.6v6H236v-6h-1.2v-1h1.2v-1.1c0-.7.2-1.3.6-1.7.4-.4 1-.6 1.6-.6.3 0 .6 0 .8.1v.9zM243.4 273.4c-.2-.1-.5-.2-.7-.2-.8 0-1.2.5-1.2 1.5v1.1h1.6v1h-1.6v6h-1.1v-6h-1.2v-1h1.2v-1.1c0-.7.2-1.3.6-1.7.4-.4 1-.6 1.6-.6.3 0 .6 0 .8.1v.9zM244.9 274c-.2 0-.4-.1-.5-.2-.1-.1-.2-.3-.2-.5s.1-.4.2-.5c.1-.1.3-.2.5-.2s.4.1.5.2c.1.1.2.3.2.5s-.1.4-.2.5c-.1.1-.3.2-.5.2zm.5 8.7h-1.1v-7h1.1v7zM252.5 282.4c-.5.3-1.2.5-1.9.5-1 0-1.8-.3-2.4-1-.6-.6-.9-1.5-.9-2.5 0-1.2.3-2.1 1-2.8.7-.7 1.5-1 2.6-1 .6 0 1.2.1 1.6.3v1.1c-.5-.4-1.1-.5-1.7-.5-.7 0-1.3.3-1.8.8s-.7 1.2-.7 2 .2 1.5.6 1.9c.4.4 1 .7 1.7.7.6 0 1.2-.2 1.7-.6v1.1h.2zM198.8 299.5h-1.1v-6.6c0-.5 0-1.2.1-1.9-.1.4-.2.8-.3 1l-3.3 7.5h-.6l-3.3-7.5c-.1-.2-.2-.6-.3-1 0 .4.1 1 .1 1.9v6.6H189v-9.8h1.5l3 6.8c.2.5.4.9.5 1.2.2-.5.4-.9.5-1.2l3.1-6.8h1.4v9.8h-.2zM206.2 299.5h-1.1v-1.1c-.5.8-1.2 1.3-2.2 1.3-.7 0-1.2-.2-1.6-.6-.4-.4-.6-.9-.6-1.5 0-1.3.8-2.1 2.3-2.3l2.1-.3c0-1.2-.5-1.8-1.4-1.8-.8 0-1.6.3-2.3.9V293c.7-.4 1.5-.7 2.4-.7 1.6 0 2.5.9 2.5 2.6v4.6h-.1zm-1.1-3.5l-1.7.2c-.5.1-.9.2-1.2.4-.3.2-.4.5-.4 1 0 .3.1.6.4.8.2.2.6.3 1 .3.6 0 1-.2 1.4-.6.4-.4.5-.9.5-1.5v-.6zM214.1 299.5H213v-4c0-1.5-.5-2.2-1.6-2.2-.6 0-1 .2-1.4.6-.4.4-.6 1-.6 1.6v4h-1.1v-7h1.1v1.2c.5-.9 1.3-1.3 2.3-1.3.8 0 1.4.2 1.8.7.4.5.6 1.2.6 2.1v4.3zM221.3 299.5h-1.1v-1.1c-.5.8-1.2 1.3-2.2 1.3-.7 0-1.2-.2-1.6-.6-.4-.4-.6-.9-.6-1.5 0-1.3.8-2.1 2.3-2.3l2.1-.3c0-1.2-.5-1.8-1.4-1.8-.8 0-1.6.3-2.3.9V293c.7-.4 1.5-.7 2.4-.7 1.6 0 2.5.9 2.5 2.6v4.6h-.1zm-1.2-3.5l-1.7.2c-.5.1-.9.2-1.2.4-.3.2-.4.5-.4 1 0 .3.1.6.4.8.2.2.6.3 1 .3.6 0 1-.2 1.4-.6.4-.4.5-.9.5-1.5v-.6zM229.4 299c0 2.6-1.2 3.9-3.7 3.9-.9 0-1.6-.2-2.3-.5v-1.1c.8.4 1.5.7 2.3.7 1.7 0 2.6-.9 2.6-2.7v-.8c-.5.9-1.3 1.3-2.4 1.3-.9 0-1.6-.3-2.1-.9-.5-.6-.8-1.5-.8-2.5 0-1.2.3-2.1.9-2.8.6-.7 1.4-1.1 2.3-1.1.9 0 1.6.4 2.1 1.1v-1h1.1v6.4zm-1.2-2.6v-1c0-.6-.2-1-.6-1.4-.4-.4-.8-.6-1.4-.6-.7 0-1.2.3-1.6.8-.4.5-.6 1.2-.6 2.1 0 .8.2 1.4.6 1.9.4.5.9.7 1.5.7s1.1-.2 1.5-.7c.4-.5.6-1.1.6-1.8zM237.3 296.3h-4.9c0 .8.2 1.4.6 1.8.4.4 1 .6 1.7.6.8 0 1.5-.3 2.2-.8v1.1c-.6.4-1.4.7-2.4.7s-1.8-.3-2.3-1c-.6-.6-.8-1.5-.8-2.7 0-1.1.3-2 .9-2.7.6-.7 1.4-1 2.3-1 .9 0 1.6.3 2.1.9.5.6.8 1.4.8 2.5v.6h-.2zm-1.2-.9c0-.6-.2-1.2-.5-1.5-.3-.3-.7-.5-1.3-.5-.5 0-1 .2-1.3.6-.3.4-.6.9-.7 1.5h3.8v-.1zM242.6 293.7c-.2-.2-.5-.2-.8-.2-.5 0-.9.2-1.2.7-.3.5-.5 1.1-.5 1.8v3.6H239v-7h1.1v1.4c.2-.5.4-.9.7-1.2.3-.3.7-.4 1.1-.4.3 0 .5 0 .7.1v1.2zM20.6 283.1v-9.8h2.8c.8 0 1.5.2 2 .6.5.4.7 1 .7 1.6 0 .6-.2 1-.5 1.4-.3.4-.7.7-1.2.9.7.1 1.2.3 1.6.7.4.4.6 1 .6 1.6 0 .8-.3 1.5-.9 2-.6.5-1.4.8-2.3.8h-2.8v.2zm1.2-8.8v3.2H23c.6 0 1.1-.2 1.5-.5.4-.3.5-.7.5-1.3 0-1-.6-1.4-1.9-1.4h-1.3zm0 4.2v3.5h1.6c.7 0 1.2-.2 1.6-.5.4-.3.6-.8.6-1.3 0-1.2-.8-1.7-2.4-1.7h-1.4zM32.2 277.2c-.2-.2-.5-.2-.8-.2-.5 0-.9.2-1.2.7-.3.5-.5 1.1-.5 1.8v3.6h-1.1v-7h1.1v1.4c.2-.5.4-.9.7-1.2.3-.3.7-.4 1.1-.4.3 0 .5 0 .7.1v1.2zM36.1 283.2c-1 0-1.9-.3-2.5-1-.6-.7-.9-1.5-.9-2.6 0-1.2.3-2.1 1-2.8.7-.7 1.5-1 2.6-1 1 0 1.9.3 2.4 1s.9 1.5.9 2.7c0 1.1-.3 2-.9 2.7-.7.7-1.5 1-2.6 1zm.1-6.3c-.7 0-1.3.2-1.7.7-.4.5-.6 1.2-.6 2s.2 1.5.6 2c.4.5 1 .7 1.7.7s1.3-.2 1.7-.7c.4-.5.6-1.1.6-2 0-.9-.2-1.5-.6-2-.4-.5-1-.7-1.7-.7zM50.2 276.1l-2.1 7H47l-1.4-5c-.1-.2-.1-.4-.1-.6 0 .2-.1.4-.1.6l-1.6 5h-1.1l-2.1-7h1.2l1.2 5.2c0 .2.1.4.1.6h.1c0-.2.1-.4.1-.6l1.6-5.2h1l1.4 5.3c0 .2.1.4.1.6h.1c0-.2 0-.4.1-.6l1.4-5.3h1.2zM51.1 282.8v-1.2c.6.5 1.3.7 2 .7 1 0 1.5-.3 1.5-1 0-.2 0-.3-.1-.5l-.3-.3c-.1-.1-.3-.2-.5-.3-.2-.1-.4-.2-.6-.2-.3-.1-.6-.2-.8-.4-.2-.1-.4-.3-.6-.4-.2-.2-.3-.3-.4-.5-.1-.2-.1-.4-.1-.7 0-.3.1-.6.2-.9.2-.3.4-.5.6-.6.3-.2.5-.3.9-.4.4-.1.7-.1 1-.1.6 0 1.1.1 1.6.3v1.1c-.5-.3-1.1-.5-1.8-.5-.2 0-.4 0-.6.1-.2 0-.3.1-.4.2l-.3.3c-.1.1-.1.3-.1.4 0 .2 0 .3.1.5s.2.2.3.3c.1.1.3.2.5.3l.6.3c.3.1.6.2.8.4.2.1.5.3.6.4.2.2.3.3.4.5.1.2.1.4.1.7 0 .3-.1.6-.2.9-.1.3-.4.5-.6.6-.2.1-.5.3-.9.4-.4.1-.7.1-1 .1-.8-.1-1.4-.2-1.9-.5zM63.1 279.9h-4.9c0 .8.2 1.4.6 1.8.4.4 1 .6 1.7.6.8 0 1.5-.3 2.2-.8v1.1c-.6.4-1.4.7-2.4.7s-1.8-.3-2.3-1c-.6-.6-.8-1.5-.8-2.7 0-1.1.3-2 .9-2.7.6-.7 1.4-1 2.3-1 .9 0 1.6.3 2.1.9.5.6.8 1.4.8 2.5v.6h-.2zm-1.2-1c0-.6-.2-1.2-.5-1.5-.3-.3-.7-.5-1.3-.5-.5 0-1 .2-1.3.6-.3.4-.6.9-.7 1.5h3.8v-.1zM68.4 277.2c-.2-.2-.5-.2-.8-.2-.5 0-.9.2-1.2.7-.3.5-.5 1.1-.5 1.8v3.6h-1.1v-7h1.1v1.4c.2-.5.4-.9.7-1.2.3-.3.7-.4 1.1-.4.3 0 .5 0 .7.1v1.2z" fill="#525252"/>
    <path d="M174.3 245.5l-9-5.3v4.5H95.8v1.5h69.5v4.5l9-5.2zM341 76.1l-9.1-5.2v4.5H214.2v119.3h1.5V76.9h116.2v4.5l9.1-5.3zM340.3 417.8l-9-5.2v4.5H215V315.2h-1.5v103.4h117.8v4.5l9-5.3zM644.7 75.7l-9.1-5.2V75H438.9c-.4 0-.8.3-.8.8s.3.8.8.8h196.7v4.5l9.1-5.4zM645.7 245.4l-9.1-5.3v4.7H438.9v1.5h197.7v4.3l9.1-5.2zM644 417.4l-9.1-5.3v4.5h-196v1.5h196v4.5l9.1-5.2z" fill="#959595"/>
    <path d="M637.6 226.1l-.8-.6.6-.8.8.6-.6.8zm-4-2.9l-.8-.6.6-.8.8.6-.6.8zm-4.1-3l-.8-.6.6-.8.8.6-.6.8zm-4-3l-.8-.6.6-.8.8.6-.6.8zm-4-2.9l-.8-.6.6-.8.8.6-.6.8zm-4-3l-.8-.6.6-.8.8.6-.6.8zm-4-3l-.8-.6.6-.8.8.6-.6.8zm-4.1-2.9l-.8-.6.6-.8.8.6-.6.8zm-4-3l-.8-.6.6-.8.8.6-.6.8zm-4-3l-.8-.6.6-.8.8.6-.6.8zm-4-2.9l-.8-.6.6-.8.8.6-.6.8zm-4.1-3l-.8-.6.6-.8.8.6-.6.8zm-4-3l-.8-.6.6-.8.8.6-.6.8zm-4-3l-.8-.6.6-.8.8.6-.6.8zm-4-2.9l-.8-.6.6-.8.8.6-.6.8zm-4.1-3l-.8-.6.6-.8.8.6-.6.8zm-4-3l-.8-.6.6-.8.8.6-.6.8zm-4-2.9l-.8-.6.6-.8.8.6-.6.8zm-4-3l-.8-.6.6-.8.8.6-.6.8zm-4-3l-.8-.6.6-.8.8.6-.6.8zm-4.1-2.9l-.8-.6.6-.8.8.6-.6.8zm-4-3l-.8-.6.6-.8.8.6-.6.8zm-4-3l-.8-.6.6-.8.8.6-.6.8zm-4-2.9l-.8-.6.6-.8.8.6-.6.8zm-4.1-3l-.8-.6.6-.8.8.6-.6.8zm-4-3l-.8-.6.6-.8.8.6-.6.8zm-4-3l-.8-.6.6-.8.8.6-.6.8zm-4-2.9l-.8-.6.6-.8.8.6-.6.8zm-4-3l-.8-.6.6-.8.8.6-.6.8zm-4.1-3l-.8-.6.6-.8.8.6-.6.8zm-4-2.9l-.8-.6.6-.8.8.6-.6.8zm-4-3l-.8-.6.6-.8.8.6-.6.8zm-4-3l-.8-.6.6-.8.8.6-.6.8zm-4.1-2.9l-.8-.6.6-.8.8.6-.6.8zm-4-3l-.8-.6.6-.8.8.6-.6.8zm-4-3l-.8-.6.6-.8.8.6-.6.8zm-4-2.9l-.8-.6.6-.8.8.6-.6.8zm-4.1-3l-.8-.6.6-.8.8.6-.6.8zm-4-3l-.8-.6.6-.8.8.6-.6.8zm-4-3l-.8-.6.6-.8.8.6-.6.8zm-4-2.9l-.8-.6.6-.8.8.6-.6.8zm-4-3l-.8-.6.6-.8.8.6-.6.8zm-4.1-3l-.8-.6.6-.8.8.6-.6.8zm-4-2.9l-.8-.6.6-.8.8.6-.6.8zm-4-3l-.8-.6.6-.8.8.6-.6.8zm-4-3l-.8-.6.6-.8.8.6-.6.8zm-4.1-2.9l-.8-.6.6-.8.8.6-.6.8zm-4-3l-.8-.6.6-.8.8.6-.6.8zm-4-3l-.8-.6.6-.8.8.6-.6.8zm-4-3l-.8-.6.6-.8.8.6-.6.8z" fill="#9F9F9F"/>
    <path d="M641 223.7l2.5 6.5-6.9-1.1 4.4-5.4zm.4-1.9l-6.6 8.1 10.3 1.7-3.7-9.8z" fill="#959595"/>
    <path d="M441.9 412.6l-.6-.8.8-.6.6.8-.8.6zm4-3l-.6-.8.8-.6.6.8-.8.6zm4-3l-.6-.8.8-.6.6.8-.8.6zm4-3l-.6-.8.8-.6.6.8-.8.6zm4-3.1l-.6-.8.8-.6.6.8-.8.6zm4-3l-.6-.8.8-.6.6.8-.8.6zm4-3l-.6-.8.8-.6.6.8-.8.6zm4-3l-.6-.8.8-.6.6.8-.8.6zm3.9-3l-.6-.8.8-.6.6.8-.8.6zm4-3l-.6-.8.8-.6.6.8-.8.6zm4-3l-.6-.8.8-.6.6.8-.8.6zm4-3l-.6-.8.8-.6.6.8-.8.6zm4-3l-.6-.8.8-.6.6.8-.8.6zm4-3l-.6-.8.8-.6.6.8-.8.6zm4-3.1l-.6-.8.8-.6.6.8-.8.6zm4-3l-.6-.8.8-.6.6.8-.8.6zm4-3l-.6-.8.8-.6.6.8-.8.6zm4-3l-.6-.8.8-.6.6.8-.8.6zm4-3l-.6-.8.8-.6.6.8-.8.6zm4-3l-.6-.8.8-.6.6.8-.8.6zm3.9-3l-.6-.8.8-.6.6.8-.8.6zm4-3l-.6-.8.8-.6.6.8-.8.6zm4-3l-.6-.8.8-.6.6.8-.8.6zm4-3.1l-.6-.8.8-.6.6.8-.8.6zm4-3l-.6-.8.8-.6.6.8-.8.6zm4-3l-.6-.8.8-.6.6.8-.8.6zm4-3l-.6-.8.8-.6.6.8-.8.6zm4-3l-.6-.8.8-.6.6.8-.8.6zm4-3l-.6-.8.8-.6.6.8-.8.6zm4-3l-.6-.8.8-.6.6.8-.8.6zm4-3l-.6-.8.8-.6.6.8-.8.6zm4-3l-.6-.8.8-.6.6.8-.8.6zm4-3.1l-.6-.8.8-.6.6.8-.8.6zm3.9-3l-.6-.8.8-.6.6.8-.8.6zm4-3l-.6-.8.8-.6.6.8-.8.6zm4-3l-.6-.8.8-.6.6.8-.8.6zm4-3l-.6-.8.8-.6.6.8-.8.6zm4-3l-.6-.8.8-.6.6.8-.8.6zm4-3l-.6-.8.8-.6.6.8-.8.6zm4-3l-.6-.8.8-.6.6.8-.8.6zm4-3l-.6-.8.8-.6.6.8-.8.6zm4-3.1l-.6-.8.8-.6.6.8-.8.6zm4-3l-.6-.8.8-.6.6.8-.8.6zm4-3l-.6-.8.8-.6.6.8-.8.6zm4-3l-.6-.8.8-.6.6.8-.8.6zm3.9-3l-.6-.8.8-.6.6.8-.8.6zm4-3l-.6-.8.8-.6.6.8-.8.6zm4-3l-.6-.8.8-.6.6.8-.8.6zm4-3l-.6-.8.8-.6.6.8-.8.6zm4-3l-.6-.8.8-.6.6.8-.8.6z" fill="#9F9F9F"/>
    <path d="M643.5 259.8l-2.5 6.5-4.4-5.4 6.9-1.1zm1.6-1.3l-10.3 1.7 6.6 8.1 3.7-9.8z" fill="#959595"/>
    <path d="M637.8 382.6l-.6-.8.8-.6.6.8-.8.6zm-2.7-4.1l-.6-.8.8-.6.6.8-.8.6zm-2.8-4.2l-.6-.8.8-.6.6.8-.8.6zm-2.8-4.1l-.5-.9.8-.6.6.8-.9.7zm-2.7-4.2l-.6-.8.8-.6.6.8-.8.6zm-2.8-4.2l-.6-.8.8-.6.6.8-.8.6zm-2.7-4.1l-.6-.8.8-.6.6.8-.8.6zm-2.8-4.2l-.6-.8.8-.6.6.8-.8.6zm-2.8-4.2l-.6-.8.8-.6.6.8-.8.6zm-2.7-4.1l-.6-.8.8-.6.6.8-.8.6zm-2.8-4.2l-.6-.8.8-.6.6.8-.8.6zm-2.8-4.2l-.6-.8.8-.6.6.8-.8.6zm-2.7-4.1l-.6-.8.8-.6.6.8-.8.6zm-2.8-4.2l-.6-.8.8-.6.6.8-.8.6zm-2.8-4.2l-.6-.8.8-.6.6.8-.8.6zm-2.7-4.1l-.6-.8.8-.6.6.8-.8.6zm-2.8-4.2l-.6-.8.8-.6.6.8-.8.6zm-2.8-4.2l-.6-.8.8-.6.6.8-.8.6zm-2.7-4.1l-.6-.8.8-.6.6.8-.8.6zm-2.8-4.2l-.6-.8.8-.6.6.8-.8.6zm-2.8-4.2l-.6-.8.8-.6.6.8-.8.6zm-2.7-4.1l-.6-.8.8-.6.6.8-.8.6zM577 291l-.6-.8.8-.6.6.8-.8.6zm-2.8-4.2l-.6-.8.8-.6.6.8-.8.6zm-2.7-4.1l-.6-.8.8-.6.6.8-.8.6zm-2.8-4.2l-.6-.8.8-.6.6.8-.8.6zm-2.7-4.2l-.6-.8.8-.6.6.8-.8.6zm-2.8-4.1l-.6-.8.8-.6.6.8-.8.6zm-2.8-4.2l-.6-.8.8-.6.6.8-.8.6zm-2.7-4.2l-.6-.8.8-.6.6.8-.8.6zm-2.8-4.1l-.6-.8.8-.6.6.8-.8.6zm-2.8-4.2l-.6-.8.8-.6.6.8-.8.6zm-2.7-4.2l-.6-.8.8-.6.6.8-.8.6zm-2.8-4.1l-.6-.9.8-.6.6.8-.8.7zm-2.8-4.2l-.6-.8.8-.6.6.8-.8.6zm-2.7-4.2l-.6-.8.8-.6.6.8-.8.6zm-2.8-4.1l-.6-.8.8-.6.6.8-.8.6zm-2.8-4.2l-.6-.8.8-.6.6.8-.8.6zm-2.7-4.2l-.6-.8.8-.6.6.8-.8.6zm-2.8-4.1l-.6-.8.8-.6.6.8-.8.6zm-2.8-4.2l-.6-.8.8-.6.6.8-.8.6zm-2.7-4.2l-.6-.8.8-.6.6.8-.8.6zm-2.8-4.1l-.6-.8.8-.6.6.8-.8.6zm-2.8-4.2l-.6-.8.8-.6.6.8-.8.6zm-2.7-4.2l-.6-.8.8-.6.6.8-.8.6zm-2.8-4.1l-.6-.8.8-.6.6.8-.8.6zm-2.7-4.2l-.6-.8.8-.6.6.8-.8.6zm-2.8-4.1l-.6-.8.8-.6.6.8-.8.6zm-2.8-4.2l-.6-.8.8-.6.6.8-.8.6zm-2.7-4.2l-.6-.8.8-.6.6.8-.8.6zm-2.8-4.1l-.6-.8.8-.6.6.8-.8.6zm-2.8-4.2l-.6-.8.8-.6.6.8-.8.6zm-2.7-4.2l-.6-.8.8-.6.6.8-.8.6zm-2.8-4.1l-.6-.8.8-.6.6.8-.8.6zm-2.8-4.2l-.6-.8.8-.6.6.8-.8.6zm-2.7-4.2l-.6-.8.8-.6.6.8-.8.6zm-2.8-4.1l-.6-.8.8-.6.6.8-.8.6zm-2.8-4.2l-.6-.8.8-.6.6.8-.8.6zm-2.7-4.2l-.6-.8.8-.6.6.8-.8.6zm-2.8-4.1l-.6-.8.8-.6.6.8-.8.6zm-2.8-4.2l-.6-.8.8-.6.6.8-.8.6zm-2.7-4.2l-.6-.8.8-.6.6.8-.8.6zm-2.8-4.1l-.6-.8.8-.6.6.8-.8.6zm-2.8-4.2l-.6-.8.8-.6.6.8-.8.6zm-2.7-4.2l-.6-.8.8-.6.6.8-.8.6zm-2.8-4.1l-.6-.8.8-.6.6.8-.8.6zm-2.7-4.2l-.6-.8.8-.6.6.8-.8.6zm-2.8-4.2l-.6-.8.8-.6.6.8-.8.6zm-2.8-4.1l-.6-.8.8-.6.6.8-.8.6zm-2.7-4.2l-.6-.8.8-.6.6.8-.8.6zm-2.8-4.2l-.6-.8.8-.6.6.8-.8.6zm-2.8-4.1l-.6-.8.8-.6.6.8-.8.6z" fill="#9F9F9F"/>
    <path d="M641.9 381.3l.4 7-6.3-3.1 5.9-3.9zm.9-1.8l-8.8 5.8 9.4 4.7-.6-10.5z" fill="#959595"/>
    <path d="M441.5 408.1l-.8-.5.5-.8.8.5-.5.8zm2.7-4.2l-.8-.5.5-.8.8.5-.5.8zm2.7-4.2l-.8-.5.5-.8.8.5-.5.8zm2.8-4.2l-.8-.5.5-.8.8.5-.5.8zm2.7-4.2l-.8-.5.5-.8.8.5-.5.8zm2.7-4.1l-.8-.5.5-.8.8.5-.5.8zm2.8-4.2l-.8-.5.5-.8.8.5-.5.8zm2.7-4.2l-.8-.5.5-.8.8.5-.5.8zm2.7-4.2l-.8-.5.5-.8.8.5-.5.8zm2.8-4.2l-.8-.5.5-.8.8.5-.5.8zm2.7-4.2l-.8-.5.5-.8.8.5-.5.8zm2.7-4.2l-.8-.5.5-.8.8.5-.5.8zm2.8-4.2l-.8-.5.5-.8.8.5-.5.8zm2.7-4.1l-.8-.5.5-.8.8.5-.5.8zm2.7-4.2l-.8-.5.5-.8.8.5-.5.8zm2.8-4.2l-.8-.5.5-.8.8.5-.5.8zm2.7-4.2l-.8-.5.5-.8.8.5-.5.8zm2.7-4.2l-.8-.5.5-.8.8.5-.5.8zm2.8-4.2l-.8-.5.5-.8.8.5-.5.8zm2.7-4.2l-.8-.5.5-.8.8.5-.5.8zm2.7-4.2l-.8-.5.5-.8.8.5-.5.8zm2.8-4.1l-.8-.5.5-.8.8.5-.5.8zm2.7-4.2l-.8-.5.5-.8.8.5-.5.8zm2.7-4.2l-.8-.5.5-.8.8.5-.5.8zm2.8-4.2l-.8-.5.5-.8.8.5-.5.8zm2.7-4.2l-.8-.5.5-.8.8.5-.5.8zm2.7-4.2l-.8-.5.5-.8.8.5-.5.8zm2.7-4.2l-.8-.5.5-.8.8.5-.5.8zm2.8-4.2l-.8-.5.5-.8.8.5-.5.8zm2.7-4.1l-.8-.5.5-.8.8.5-.5.8zm2.7-4.2l-.8-.5.5-.8.8.5-.5.8zm2.8-4.2l-.8-.5.5-.8.8.5-.5.8zm2.7-4.2l-.8-.5.5-.8.8.5-.5.8zm2.7-4.2l-.8-.5.5-.8.8.5-.5.8zm2.8-4.2l-.8-.5.5-.8.8.5-.5.8zm2.7-4.2l-.8-.5.5-.8.8.5-.5.8zm2.7-4.2l-.8-.5.5-.8.8.5-.5.8zm2.8-4.1l-.8-.5.5-.8.8.5-.5.8zm2.7-4.2l-.8-.5.5-.8.8.5-.5.8zm2.7-4.2l-.8-.5.5-.8.8.5-.5.8zm2.8-4.2l-.8-.5.5-.8.8.5-.5.8zm2.7-4.2l-.8-.5.5-.8.8.5-.5.8zm2.7-4.2l-.8-.5.5-.8.8.5-.5.8zm2.8-4.2l-.8-.5.5-.8.8.5-.5.8zm2.7-4.2l-.8-.5.5-.8.8.5-.5.8zm2.7-4.1l-.8-.5.5-.8.8.5-.5.8zm2.8-4.2l-.8-.5.5-.8.8.5-.5.8zm2.7-4.2l-.8-.5.5-.8.8.5-.5.8zm2.7-4.2l-.8-.5.5-.8.8.5-.5.8zm2.8-4.2l-.8-.5.5-.8.8.5-.5.8zm2.7-4.2l-.8-.5.5-.8.8.5-.5.8zm2.7-4.2l-.8-.5.5-.8.8.5-.5.8zm2.8-4.1l-.8-.5.5-.8.8.5-.5.8zm2.7-4.2l-.8-.5.5-.8.8.5-.5.8zm2.7-4.2l-.8-.5.5-.8.8.5-.5.8zm2.8-4.2l-.8-.5.5-.8.8.5-.5.8zm2.7-4.2l-.8-.5.5-.8.8.5-.5.8zm2.7-4.2l-.8-.5.5-.8.8.5-.5.8zm2.8-4.2l-.8-.5.5-.8.8.5-.5.8zm2.7-4.2l-.8-.5.5-.8.8.5-.5.8zm2.7-4.1l-.8-.5.5-.8.8.5-.5.8zm2.8-4.2l-.8-.5.5-.8.8.5-.5.8zm2.7-4.2l-.8-.5.5-.8.8.5-.5.8zm2.7-4.2l-.8-.5.5-.8.8.5-.5.8zm2.8-4.2l-.8-.5.5-.8.8.5-.5.8zm2.7-4.2l-.8-.5.5-.8.8.5-.5.8zm2.7-4.2l-.8-.5.5-.8.8.5-.5.8zm2.8-4.2l-.8-.5.5-.8.8.5-.5.8zm2.7-4.1l-.8-.5.5-.8.8.5-.5.8zm2.7-4.2l-.8-.5.5-.8.8.5-.5.8zm2.8-4.2l-.8-.5.5-.8.8.5-.5.8zm2.7-4.2l-.8-.5.5-.8.8.5-.5.8zm2.7-4.2l-.8-.5.5-.8.8.5-.5.8z" fill="#9F9F9F"/>
    <path d="M642.3 99.8l-.4 7-5.8-3.9 6.2-3.1zm1.1-1.7l-9.4 4.7 8.7 5.8.7-10.5z" fill="#9F9F9F"/>
    <path d="M341 245.5l-9.1-5.3v4.5h-75.4v1.5h75.4v4.5l9.1-5.2z" fill="#959595"/>
    <path d="M440.6 239.9l-.6-.8.8-.6.6.8-.8.6zm3.9-3l-.6-.8.8-.6.6.8-.8.6zm4-3l-.6-.8.8-.6.6.8-.8.6zm4-3.1l-.6-.8.8-.6.6.8-.8.6zm4-3l-.6-.8.8-.6.6.8-.8.6zm3.9-3l-.6-.8.8-.6.6.8-.8.6zm4-3.1l-.6-.8.8-.6.6.8-.8.6zm4-3l-.6-.8.8-.6.6.8-.8.6zm4-3l-.6-.8.8-.6.6.8-.8.6zm3.9-3.1l-.6-.8.8-.6.6.8-.8.6zm4-3l-.6-.8.8-.6.6.8-.8.6zm4-3l-.6-.8.8-.6.6.8-.8.6zm4-3.1l-.6-.8.8-.6.6.8-.8.6zm3.9-3l-.6-.8.8-.6.6.8-.8.6zm4-3l-.6-.8.8-.6.6.8-.8.6zm4-3.1l-.6-.8.8-.6.6.8-.8.6zm4-3l-.6-.8.8-.6.6.8-.8.6zm3.9-3l-.6-.8.8-.6.6.8-.8.6zm4-3.1l-.6-.8.8-.6.6.8-.8.6zm4-3l-.6-.8.8-.6.6.8-.8.6zm4-3l-.6-.8.8-.6.6.8-.8.6zm3.9-3l-.6-.8.8-.6.6.8-.8.6zm4-3.1l-.6-.8.8-.6.6.8-.8.6zm4-3l-.6-.8.8-.6.6.8-.8.6zm4-3l-.6-.8.8-.6.6.8-.8.6zm3.9-3.1l-.6-.8.8-.6.6.8-.8.6zm4-3l-.6-.8.8-.6.6.8-.8.6zm4-3l-.6-.8.8-.6.6.8-.8.6zm4-3.1l-.6-.8.8-.6.6.8-.8.6zm3.9-3l-.6-.8.8-.6.6.8-.8.6zm4-3l-.6-.8.8-.6.6.8-.8.6zm4-3.1l-.6-.8.8-.6.6.8-.8.6zm4-3l-.6-.8.8-.6.6.8-.8.6zm3.9-3l-.6-.8.8-.6.6.8-.8.6zm4-3.1l-.6-.8.8-.6.6.8-.8.6zm4-3l-.6-.8.8-.6.6.8-.8.6zm4-3l-.6-.8.8-.6.6.8-.8.6zm3.9-3.1l-.6-.8.8-.6.6.8-.8.6zm4-3l-.6-.8.8-.6.6.8-.8.6zm4-3l-.6-.8.8-.6.6.8-.8.6zm4-3.1l-.6-.8.8-.6.6.8-.8.6zm4-3l-.6-.8.8-.6.6.8-.8.6zm3.9-3l-.6-.8.8-.6.6.8-.8.6zm4-3.1l-.6-.8.8-.6.6.8-.8.6zm4-3l-.6-.8.8-.6.6.8-.8.6zm4-3l-.6-.8.8-.6.6.8-.8.6zm3.9-3.1l-.6-.8.8-.6.6.8-.8.6zm4-3l-.6-.8.8-.6.6.8-.8.6zm4-3l-.6-.8.8-.6.6.8-.8.6zm4-3.1l-.6-.8.8-.6.6.8-.8.6z" fill="#9F9F9F"/>
    <path d="M641.3 85.8l-2.4 6.6-4.5-5.4 6.9-1.2zm1.5-1.3l-10.3 1.8 6.7 8 3.6-9.8zM635.7 400.8l-.8-.6.6-.8.8.6-.6.8zm-4-3l-.8-.6.6-.8.8.6-.6.8zm-3.9-3l-.8-.6.6-.8.8.6-.6.8zm-4-3.1l-.8-.6.6-.8.8.6-.6.8zm-4-3l-.8-.6.6-.8.8.6-.6.8zm-4-3l-.8-.6.6-.8.8.6-.6.8zm-3.9-3.1l-.8-.6.6-.8.8.6-.6.8zm-4-3l-.8-.6.6-.8.8.6-.6.8zm-4-3l-.8-.6.6-.8.8.6-.6.8zm-4-3.1l-.8-.6.6-.8.8.6-.6.8zm-3.9-3l-.8-.6.6-.8.8.6-.6.8zm-4-3l-.8-.6.6-.8.8.6-.6.8zm-4-3.1l-.8-.6.6-.8.8.6-.6.8zm-4-3l-.8-.6.6-.8.8.6-.6.8zm-4-3l-.8-.6.6-.8.8.6-.6.8zm-3.9-3.1l-.8-.6.6-.8.8.6-.6.8zm-4-3l-.8-.6.6-.8.8.6-.6.8zm-4-3l-.8-.6.6-.8.8.6-.6.8zm-4-3l-.8-.6.6-.8.8.6-.6.8zm-3.9-3.1l-.8-.6.6-.8.8.6-.6.8zm-4-3l-.8-.6.6-.8.8.6-.6.8zm-4-3l-.8-.6.6-.8.8.6-.6.8zm-4-3.1l-.8-.6.6-.8.8.6-.6.8zm-3.9-3l-.8-.6.6-.8.8.6-.6.8zm-4-3l-.8-.6.6-.8.8.6-.6.8zm-4-3.1l-.8-.6.6-.8.8.6-.6.8zm-4-3l-.8-.6.6-.8.8.6-.6.8zm-3.9-3l-.8-.6.6-.8.8.6-.6.8zm-4-3.1l-.8-.6.6-.8.8.6-.6.8zm-4-3l-.8-.6.6-.8.8.6-.6.8zm-4-3l-.8-.6.6-.8.8.6-.6.8zm-3.9-3.1l-.8-.6.6-.8.8.6-.6.8zm-4-3l-.8-.6.6-.8.8.6-.6.8zm-4-3l-.8-.6.6-.8.8.6-.6.8zm-4-3.1l-.8-.6.6-.8.8.6-.6.8zm-3.9-3l-.8-.6.6-.8.8.6-.6.8zm-4-3l-.8-.6.6-.8.8.6-.6.8zm-4-3.1l-.8-.6.6-.8.8.6-.6.8zm-4-3l-.8-.6.6-.8.8.6-.6.8zm-3.9-3l-.8-.6.6-.8.8.6-.6.8zm-4-3.1l-.8-.6.6-.8.8.6-.6.8zm-4-3l-.8-.6.6-.8.8.6-.6.8zm-4-3l-.8-.6.6-.8.8.6-.6.8zm-3.9-3.1l-.8-.6.6-.8.8.6-.6.8zm-4-3l-.8-.6.6-.8.8.6-.6.8zm-4-3l-.8-.6.6-.8.8.6-.6.8zm-4-3.1l-.8-.6.6-.8.8.6-.6.8zm-3.9-3l-.8-.6.6-.8.8.6-.6.8zm-4-3l-.8-.6.6-.8.8.6-.6.8zm-4-3.1l-.8-.6.6-.8.8.6-.6.8z" fill="#9F9F9F"/>
    <path d="M638.9 398.3l2.4 6.6-6.9-1.2 4.5-5.4zm.3-2l-6.7 8 10.3 1.8-3.6-9.8z" fill="#959595"/>
</svg>
