<svg width="1280" height="720" xmlns="http://www.w3.org/2000/svg" xmlns:xlink="http://www.w3.org/1999/xlink" overflow="hidden"><defs><clipPath id="clip0"><rect x="0" y="0" width="1280" height="720"/></clipPath><clipPath id="clip1"><rect x="188" y="317" width="49" height="49"/></clipPath><clipPath id="clip2"><rect x="188" y="317" width="49" height="49"/></clipPath><clipPath id="clip3"><rect x="188" y="317" width="49" height="49"/></clipPath><clipPath id="clip4"><rect x="545" y="86" width="45" height="45"/></clipPath><clipPath id="clip5"><rect x="545" y="86" width="45" height="45"/></clipPath><clipPath id="clip6"><rect x="545" y="86" width="45" height="45"/></clipPath><clipPath id="clip7"><rect x="539" y="498" width="58" height="58"/></clipPath><clipPath id="clip8"><rect x="539" y="498" width="58" height="58"/></clipPath><clipPath id="clip9"><rect x="539" y="498" width="58" height="58"/></clipPath><radialGradient cx="5.72" cy="7.45" r="8.42" gradientUnits="userSpaceOnUse" spreadMethod="pad" id="fill10" gradientTransform="matrix(3.25444 0 0 3.25444 549.408 502.866)"><stop offset="0" stop-color="#5EA0EF"/><stop offset="0.18" stop-color="#5EA0EF"/><stop offset="0.56" stop-color="#5C9FEE"/><stop offset="0.69" stop-color="#559CED"/><stop offset="0.78" stop-color="#4A97E9"/><stop offset="0.86" stop-color="#3990E4"/><stop offset="0.93" stop-color="#2387DE"/><stop offset="0.99" stop-color="#087BD6"/><stop offset="1" stop-color="#0078D4"/></radialGradient><radialGradient cx="28.18" cy="202.29" r="2.7" gradientUnits="userSpaceOnUse" spreadMethod="pad" id="fill11" gradientTransform="matrix(3.06111 0 0 3.06111 481.741 -98.1433)"><stop offset="0" stop-color="#8C8E90"/><stop offset="0.19" stop-color="#8C8E90"/><stop offset="0.35" stop-color="#848688"/><stop offset="0.6" stop-color="#6E7071"/><stop offset="0.91" stop-color="#4A4B4C"/><stop offset="1" stop-color="#3E3F3F"/></radialGradient><clipPath id="clip12"><rect x="545" y="322" width="47" height="48"/></clipPath><clipPath id="clip13"><rect x="545" y="322" width="47" height="48"/></clipPath><clipPath id="clip14"><rect x="545" y="322" width="47" height="48"/></clipPath><linearGradient x1="18.4083" y1="23.4478" x2="18.4083" y2="0.887778" gradientUnits="userSpaceOnUse" spreadMethod="pad" id="fill15"><stop offset="0" stop-color="#0078D4"/><stop offset="1" stop-color="#5EA0EF"/></linearGradient><linearGradient x1="18.4083" y1="9.87" x2="18.4083" y2="6.26667" gradientUnits="userSpaceOnUse" spreadMethod="pad" id="fill16"><stop offset="0" stop-color="#194F9B" stop-opacity="0"/><stop offset="0.26" stop-color="#194F9C" stop-opacity="0.01"/><stop offset="0.41" stop-color="#18519E" stop-opacity="0.05"/><stop offset="0.52" stop-color="#1654A2" stop-opacity="0.11"/><stop offset="0.62" stop-color="#1457A7" stop-opacity="0.21"/><stop offset="0.71" stop-color="#115CAE" stop-opacity="0.33"/><stop offset="0.8" stop-color="#0D62B6" stop-opacity="0.47"/><stop offset="0.88" stop-color="#096AC0" stop-opacity="0.65"/><stop offset="0.95" stop-color="#0472CB" stop-opacity="0.85"/><stop offset="1" stop-color="#0078D4"/></linearGradient><clipPath id="clip17"><rect x="892" y="327" width="47" height="48"/></clipPath><clipPath id="clip18"><rect x="892" y="327" width="47" height="48"/></clipPath><clipPath id="clip19"><rect x="892" y="327" width="47" height="48"/></clipPath><linearGradient x1="33.2656" y1="39.8978" x2="33.2656" y2="22.2467" gradientUnits="userSpaceOnUse" spreadMethod="pad" id="fill20"><stop offset="0" stop-color="#0078D4"/><stop offset="0.82" stop-color="#5EA0EF"/><stop offset="1" stop-color="#5EA0EF"/></linearGradient><linearGradient x1="33.2656" y1="46.7128" x2="33.2656" y2="39.8978" gradientUnits="userSpaceOnUse" spreadMethod="pad" id="fill21"><stop offset="0" stop-color="#CCCCCC"/><stop offset="0.15" stop-color="#CCCCCC"/><stop offset="1" stop-color="#707070"/></linearGradient><clipPath id="clip22"><rect x="377" y="118" width="48" height="48"/></clipPath><clipPath id="clip23"><rect x="377" y="118" width="48" height="48"/></clipPath><clipPath id="clip24"><rect x="377" y="118" width="48" height="48"/></clipPath><clipPath id="clip25"><rect x="377" y="226" width="48" height="48"/></clipPath><clipPath id="clip26"><rect x="377" y="226" width="48" height="48"/></clipPath><clipPath id="clip27"><rect x="377" y="226" width="48" height="48"/></clipPath><clipPath id="clip28"><rect x="377" y="289" width="48" height="48"/></clipPath><clipPath id="clip29"><rect x="377" y="289" width="48" height="48"/></clipPath><clipPath id="clip30"><rect x="377" y="289" width="48" height="48"/></clipPath><clipPath id="clip31"><rect x="970" y="422" width="48" height="48"/></clipPath><clipPath id="clip32"><rect x="970" y="422" width="48" height="48"/></clipPath><clipPath id="clip33"><rect x="970" y="422" width="48" height="48"/></clipPath><linearGradient x1="1001.79" y1="443.803" x2="1006.17" y2="448.17" gradientUnits="userSpaceOnUse" spreadMethod="pad" id="fill34"><stop offset="0" stop-color="#86D633"/><stop offset="1" stop-color="#5E9624"/></linearGradient><linearGradient x1="986.48" y1="444.907" x2="990.827" y2="449.28" gradientUnits="userSpaceOnUse" spreadMethod="pad" id="fill35"><stop offset="0" stop-color="#86D633"/><stop offset="1" stop-color="#5E9624"/></linearGradient><linearGradient x1="976.613" y1="444.907" x2="980.96" y2="449.28" gradientUnits="userSpaceOnUse" spreadMethod="pad" id="fill36"><stop offset="0" stop-color="#86D633"/><stop offset="1" stop-color="#5E9624"/></linearGradient><clipPath id="clip37"><rect x="517" y="190" width="48" height="48"/></clipPath><clipPath id="clip38"><rect x="517" y="190" width="48" height="48"/></clipPath><clipPath id="clip39"><rect x="517" y="190" width="48" height="48"/></clipPath><clipPath id="clip40"><rect x="617" y="290" width="48" height="48"/></clipPath><clipPath id="clip41"><rect x="617" y="290" width="48" height="48"/></clipPath><clipPath id="clip42"><rect x="617" y="290" width="48" height="48"/></clipPath><clipPath id="clip43"><rect x="718" y="388" width="48" height="48"/></clipPath><clipPath id="clip44"><rect x="718" y="388" width="48" height="48"/></clipPath><clipPath id="clip45"><rect x="718" y="388" width="48" height="48"/></clipPath><clipPath id="clip46"><rect x="804" y="191" width="48" height="48"/></clipPath><clipPath id="clip47"><rect x="804" y="191" width="48" height="48"/></clipPath><clipPath id="clip48"><rect x="804" y="191" width="48" height="48"/></clipPath></defs><g clip-path="url(#clip0)"><rect x="0" y="0" width="1280" height="720" fill="#FFFFFF"/><rect x="458" y="246" width="634" height="232" fill="#9DC3E6" fill-opacity="0.501961"/><g clip-path="url(#clip1)"><g clip-path="url(#clip2)"><g clip-path="url(#clip3)"><path d="M204.769 359.094 211.261 365.586 221.797 365.586C223.081 365.586 224.113 364.542 224.113 363.27L224.113 338.934 204.769 358.29C204.541 358.506 204.541 358.866 204.769 359.094Z" fill="#235DC1"/><path d="M188.246 332.039 188.246 342.575 194.738 349.067C194.966 349.295 195.326 349.295 195.542 349.067L214.898 329.711 190.562 329.711C189.29 329.711 188.246 330.755 188.246 332.039Z" fill="#3B6EC6"/><path d="M212.606 320.241 196.982 344.145C196.454 344.961 196.562 346.029 197.246 346.713L207.254 356.721C207.938 357.405 209.018 357.513 209.822 356.985L233.725 341.349C235.249 340.353 236.161 338.649 236.161 336.837L236.161 320.169C236.161 318.861 235.094 317.793 233.785 317.793L217.13 317.793C215.306 317.793 213.614 318.717 212.606 320.241Z" fill="#5D8DE4"/><path d="M191.762 362.299 191.762 353.852 188.246 353.852 188.246 365.635 200.21 365.635 200.21 362.299 191.762 362.299Z" fill="#9FBBF0"/><path d="M224.171 335.502C227.458 335.502 230.123 332.837 230.123 329.55 230.123 326.262 227.458 323.598 224.171 323.598 220.883 323.598 218.219 326.262 218.219 329.55 218.219 332.837 220.883 335.502 224.171 335.502Z" fill="#ADC5F2"/><path d="M213.517 337.526 200.789 350.254 203.725 353.19 216.453 340.462 213.517 337.526Z" fill="#6C9AEE"/><path d="M201.19 355.724 203.719 353.195 200.783 350.259 198.254 352.788 201.19 355.724Z" fill="#88ACEF"/></g></g></g><g clip-path="url(#clip4)"><g clip-path="url(#clip5)"><g clip-path="url(#clip6)"><path d="M545 126.32C545 127.22 545.72 128.03 546.62 128.03L588.29 128.03C589.19 128.03 590 127.31 590 126.32L590 96.53 545 96.53 545 126.32Z" fill="#A0A1A2"/><path d="M588.29 89.6 546.62 89.6C545.72 89.6 545 90.41 545 91.31L545 96.44 590 96.44 590 91.31C590 90.41 589.28 89.6 588.29 89.6" fill="#7A7A7A"/><path d="M548.33 99.59 566.69 99.59 566.69 111.29 548.33 111.29Z" fill="#0072C6"/><path d="M548.33 112.91 566.69 112.91 566.69 124.61 548.33 124.61Z" fill="#0072C6"/><path d="M568.31 99.59 586.58 99.59 586.58 111.29 568.31 111.29Z" fill="#FFFFFF"/><path d="M568.31 112.91 586.58 112.91 586.58 124.61 568.31 124.61Z" fill="#0072C6"/><path d="M546.8 89.6C545.81 89.6 545 90.41 545 91.4L545 97.97 545 100.94 545 126.14C545 127.13 545.81 127.94 546.8 127.94L548.78 127.94 584.24 89.6 546.8 89.6Z" fill="#FFFFFF" fill-opacity="0.2"/></g></g></g><rect x="815" y="276" width="205" height="170" fill="#FFFFFF"/><g clip-path="url(#clip7)"><g clip-path="url(#clip8)"><g clip-path="url(#clip9)"><path d="M595.389 527C595.389 542.073 583.126 554.292 568 554.292 552.874 554.292 540.611 542.073 540.611 527 540.611 511.927 552.874 499.708 568 499.708 583.126 499.708 595.389 511.927 595.389 527Z" fill="url(#fill10)"/><path d="M591.844 527C591.844 540.116 581.169 550.748 568 550.748 554.831 550.748 544.156 540.116 544.156 527 544.156 513.884 554.831 503.252 568 503.252 581.169 503.252 591.844 513.884 591.844 527Z" fill="#FFFFFF"/><path d="M547.764 528.418C548.092 533.283 550.176 537.864 553.629 541.307L560.073 534.862C558.329 533.12 557.198 530.858 556.851 528.418Z" fill="#9CEBFF"/><path d="M581.308 511.759C577.99 508.859 573.814 507.127 569.418 506.829L569.418 515.819C571.427 516.049 573.334 516.83 574.928 518.074Z" fill="#32BEDD"/><path d="M554.692 511.759 561.137 518.203C562.731 516.959 564.637 516.178 566.647 515.948L566.647 506.829C562.228 507.113 558.027 508.846 554.692 511.759Z" fill="#32BEDD"/><path d="M576.958 520.072C578.188 521.678 578.977 523.578 579.246 525.582L588.236 525.582C587.945 521.204 586.211 517.045 583.306 513.757Z" fill="#32BEDD"/><path d="M559.042 520.072 552.598 513.628C549.701 516.964 548 521.171 547.764 525.582L556.754 525.582C557.024 523.578 557.812 521.678 559.042 520.072Z" fill="#50E6FF"/><path d="M584.562 520.556C584.264 519.839 583.455 519.484 582.726 519.75L569.45 525.099 570.481 527.709 583.757 522.457C584.491 522.185 584.866 521.369 584.594 520.635 584.584 520.608 584.574 520.582 584.562 520.556Z" fill="#F04049"/><path d="M571.867 527C571.867 529.135 570.135 530.867 568 530.867 565.865 530.867 564.133 529.135 564.133 527 564.133 524.865 565.865 523.133 568 523.133 570.135 523.133 571.867 524.865 571.867 527Z" fill="url(#fill11)"/></g></g></g><g clip-path="url(#clip12)"><g clip-path="url(#clip13)"><g clip-path="url(#clip14)"><path d="M41.2033 23.2128 46.0861 18.2778C46.4778 17.86 46.3472 17.5206 45.7467 17.5206L43.3183 17.5206C42.9867 17.5209 42.7175 17.2522 42.7173 16.9206 42.7173 16.9117 42.7175 16.9028 42.7178 16.8939 42.7178 13.8128 41.9344 5.22222 30.1844 4.935 29.8531 4.92059 29.5727 5.17752 29.5583 5.50887 29.558 5.51777 29.5578 5.52665 29.5578 5.53556L29.5578 8.51222C29.5565 8.84389 29.8244 9.1138 30.156 9.11505 30.1743 9.11513 30.1925 9.11437 30.2106 9.11278 34.0813 8.25012 37.9186 10.6887 38.781 14.5594 38.9557 15.3424 38.9977 16.1492 38.9056 16.9461 38.9199 17.2775 38.663 17.5578 38.3316 17.5722 38.3228 17.5726 38.3139 17.5728 38.305 17.5728L36.0333 17.5728C35.4328 17.5728 35.3022 17.9122 35.6939 18.3561L40.2372 23.3172C40.4835 23.5605 40.8801 23.5582 41.1234 23.312 41.1535 23.2817 41.1801 23.2485 41.2033 23.2128Z" fill="#949494" transform="matrix(1 0 0 1.02128 545 322)"/><path d="M33.1872 0.887778C34.0092 0.887778 34.6756 1.55413 34.6756 2.37611L34.6756 21.9594C34.6756 22.7814 34.0092 23.4478 33.1872 23.4478L3.62944 23.4478C2.80746 23.4478 2.14111 22.7814 2.14111 21.9594L2.14111 2.37611C2.14111 1.55413 2.80746 0.887777 3.62944 0.887777Z" fill="url(#fill15)" transform="matrix(1 0 0 1.02128 545 322)"/><path d="M3.60333 0.887778 33.605 0.887778C34.1962 0.887778 34.6756 1.36708 34.6756 1.95833L34.6756 6.26667 34.6756 6.26667 2.14111 6.26667 2.14111 6.26667 2.14111 2.37611C2.14099 1.56422 2.79157 0.902021 3.60333 0.887778Z" fill="#83B9F9" transform="matrix(1 0 0 1.02128 545 322)"/><path d="M2.14111 6.26667 34.6756 6.26667 34.6756 9.87 2.14111 9.87Z" fill="url(#fill16)" transform="matrix(1 0 0 1.02128 545 322)"/><path d="M45.59 28.5917C46.1091 28.5917 46.53 29.0125 46.53 29.5317L46.53 41.9867C46.53 42.5058 46.1091 42.9267 45.59 42.9267L26.79 42.9267C26.2708 42.9267 25.85 42.5058 25.85 41.9867L25.85 29.5317C25.85 29.0125 26.2709 28.5917 26.79 28.5917Z" fill="#005BA1" transform="matrix(1 0 0 1.02128 545 322)"/><path d="M6.815 8.32944 29.9756 8.32944C30.2395 8.32908 30.4578 8.5357 30.4717 8.79944L30.4717 11.2278C30.4448 11.4812 30.2304 11.6731 29.9756 11.6717L6.815 11.6717C6.55585 11.6865 6.33377 11.4884 6.31897 11.2292 6.31894 11.2287 6.31892 11.2282 6.31889 11.2278L6.31889 8.79944C6.3185 8.53987 6.52859 8.32913 6.78816 8.32871 6.79711 8.32871 6.80607 8.32895 6.815 8.32944Z" fill="#FFFFFF" transform="matrix(1 0 0 1.02128 545 322)"/><path d="M6.815 13.0556 30.0017 13.0556C30.2463 13.0411 30.4565 13.2278 30.4709 13.4726 30.4714 13.4815 30.4717 13.4905 30.4717 13.4994L30.4717 15.9278C30.4717 16.1873 30.2612 16.3978 30.0017 16.3978L6.815 16.3978C6.55543 16.3978 6.345 16.1873 6.345 15.9278L6.345 13.6039C6.28638 13.3659 6.43182 13.1254 6.66985 13.0667 6.71729 13.055 6.76633 13.0513 6.815 13.0556Z" fill="#FFFFFF" transform="matrix(1 0 0 1.02128 545 322)"/><path d="M6.815 17.9906 30.0017 17.9906C30.2612 17.9906 30.4717 18.201 30.4717 18.4606L30.4717 20.8889C30.4578 21.1382 30.2513 21.3332 30.0017 21.3328L6.815 21.3328C6.5653 21.3332 6.35886 21.1382 6.345 20.8889L6.345 18.4606C6.345 18.201 6.55543 17.9906 6.815 17.9906Z" fill="#FFFFFF" transform="matrix(1 0 0 1.02128 545 322)"/><path d="M42.1694 25.5106C42.6886 25.5106 43.1094 25.9314 43.1094 26.4506L43.1094 38.9056C43.1094 39.4247 42.6886 39.8456 42.1694 39.8456L23.3694 39.8456C22.8503 39.8456 22.4294 39.4247 22.4294 38.9056L22.4294 26.4506C22.4294 25.9314 22.8503 25.5106 23.3694 25.5106Z" fill="#0078D4" transform="matrix(1 0 0 1.02128 545 322)"/><path d="M23.5 25.5106 42.5611 25.5106C42.9361 25.5106 43.24 25.8145 43.24 26.1894L43.24 28.8006 43.24 28.8006 22.4294 28.8006 22.4294 28.8006 22.4294 26.32C22.4959 25.8051 22.9672 25.4416 23.482 25.508 23.488 25.5088 23.494 25.5097 23.5 25.5106Z" fill="#83B9F9" transform="matrix(1 0 0 1.02128 545 322)"/><path d="M25.4061 30.2628 40.1328 30.2628C40.2962 30.2623 40.4325 30.3873 40.4461 30.55L40.4461 32.0906C40.4325 32.2532 40.2962 32.3783 40.1328 32.3778L25.4061 32.3778C25.2481 32.3921 25.1084 32.2759 25.094 32.118 25.0931 32.1088 25.0928 32.0997 25.0928 32.0906L25.0928 30.55C25.0921 30.3912 25.2202 30.2623 25.3788 30.2615 25.3879 30.2615 25.397 30.262 25.4061 30.2628Z" fill="#FFFFFF" transform="matrix(1 0 0 1.02128 545 322)"/><path d="M25.4061 33.3178 40.1328 33.3178C40.2908 33.3034 40.4304 33.4196 40.4448 33.5776 40.4459 33.5867 40.4461 33.5959 40.4461 33.605L40.4461 35.1456C40.4469 35.3043 40.3187 35.4333 40.1602 35.4341 40.1511 35.4341 40.1419 35.4336 40.1328 35.4328L25.4061 35.4328C25.2428 35.4333 25.1064 35.3082 25.0928 35.1456L25.0928 33.605C25.1064 33.4423 25.2428 33.3173 25.4061 33.3178Z" fill="#FFFFFF" transform="matrix(1 0 0 1.02128 545 322)"/><path d="M25.4061 36.3989 40.1328 36.3989C40.2908 36.3845 40.4304 36.5007 40.4448 36.6587 40.4459 36.6678 40.4461 36.677 40.4461 36.6861L40.4461 38.2267C40.4469 38.3854 40.3187 38.5144 40.1602 38.5152 40.1511 38.5152 40.1419 38.5147 40.1328 38.5139L25.4061 38.5139C25.2428 38.5144 25.1064 38.3893 25.0928 38.2267L25.0928 36.6861C25.1064 36.5234 25.2428 36.3984 25.4061 36.3989Z" fill="#FFFFFF" transform="matrix(1 0 0 1.02128 545 322)"/></g></g></g><g clip-path="url(#clip17)"><g clip-path="url(#clip18)"><g clip-path="url(#clip19)"><path d="M27.5733 2.32389C28.0636 2.32389 28.4611 2.72136 28.4611 3.21167L28.4611 19.0611C28.4611 19.5514 28.0636 19.9489 27.5733 19.9489L2.95056 19.9489C2.46025 19.9489 2.06278 19.5514 2.06278 19.0611L2.06278 3.21167C2.06278 2.72136 2.46025 2.32389 2.95056 2.32389Z" fill="#005BA1" transform="matrix(1 0 0 1.02128 892 327)"/><path d="M19.6617 8.56444 19.6617 13.7083 15.275 16.2672 15.275 11.1494 19.6617 8.56444Z" fill="#50E6FF" transform="matrix(1 0 0 1.02128 892 327)"/><path d="M19.6617 8.56444 15.275 11.1494 10.8622 8.56444 15.275 5.97944 19.6617 8.56444Z" fill="#C3F1FF" transform="matrix(1 0 0 1.02128 892 327)"/><path d="M15.275 11.1494 15.275 16.2672 10.8622 13.7083 10.8622 8.56444 15.275 11.1494Z" fill="#9CEBFF" transform="matrix(1 0 0 1.02128 892 327)"/><path d="M37.9394 12.4289C38.4297 12.4289 38.8272 12.8264 38.8272 13.3167L38.8272 29.1661C38.8272 29.6564 38.4297 30.0539 37.9394 30.0539L13.3167 30.0539C12.8264 30.0539 12.4289 29.6564 12.4289 29.1661L12.4289 13.3167C12.4289 12.8264 12.8264 12.4289 13.3167 12.4289Z" fill="#0078D4" transform="matrix(1 0 0 1.02128 892 327)"/><path d="M30.0278 18.6956 30.0278 23.8133 25.6411 26.3983 25.6411 21.2544 30.0278 18.6956Z" fill="#50E6FF" transform="matrix(1 0 0 1.02128 892 327)"/><path d="M30.0278 18.6956 25.6411 21.2544 21.2283 18.6956 25.6411 16.1106 30.0278 18.6956Z" fill="#C3F1FF" transform="matrix(1 0 0 1.02128 892 327)"/><path d="M25.6411 21.2544 25.6411 26.3983 21.2283 23.8133 21.2283 18.6956 25.6411 21.2544Z" fill="#9CEBFF" transform="matrix(1 0 0 1.02128 892 327)"/><path d="M45.5639 22.2467C46.0542 22.2467 46.4517 22.6441 46.4517 23.1344L46.4517 38.9839C46.4517 39.4742 46.0542 39.8717 45.5639 39.8717L20.9411 39.8717C20.4508 39.8717 20.0533 39.4742 20.0533 38.9839L20.0533 23.1344C20.0533 22.6441 20.4508 22.2467 20.9411 22.2467Z" fill="url(#fill20)" transform="matrix(1 0 0 1.02128 892 327)"/><path d="M37.6522 28.5133 37.6522 33.6311 33.2656 36.2161 33.2656 31.0722 37.6522 28.5133Z" fill="#50E6FF" transform="matrix(1 0 0 1.02128 892 327)"/><path d="M37.6522 28.5133 33.2656 31.0983 28.8528 28.5133 33.2656 25.9283 37.6522 28.5133Z" fill="#C3F1FF" transform="matrix(1 0 0 1.02128 892 327)"/><path d="M33.2656 31.0983 33.2656 36.2161 28.8528 33.6311 28.8528 28.5133 33.2656 31.0983Z" fill="#9CEBFF" transform="matrix(1 0 0 1.02128 892 327)"/><path d="M28.8528 33.6311 33.2656 31.0722 33.2656 36.2161 28.8528 33.6311Z" fill="#C3F1FF" transform="matrix(1 0 0 1.02128 892 327)"/><path d="M37.6522 33.6311 33.2656 31.0722 33.2656 36.2161 37.6522 33.6311Z" fill="#9CEBFF" transform="matrix(1 0 0 1.02128 892 327)"/><path d="M38.54 45.2244C35.9289 44.8067 35.9289 42.9267 35.9289 40.0022L30.7067 40.0022C30.7067 43.0311 30.7067 44.9111 28.0956 45.2244 27.3569 45.3383 26.8067 45.9657 26.79 46.7128L39.8456 46.7128C39.8288 45.9657 39.2787 45.3383 38.54 45.2244Z" fill="url(#fill21)" transform="matrix(1 0 0 1.02128 892 327)"/></g></g></g><text font-family="Segoe UI,Segoe UI_MSFontService,sans-serif" font-weight="400" font-size="16" transform="translate(522.668 165)">Blob Storage<tspan font-weight="700" font-size="16" x="0.379456" y="274">Azure Batch</tspan><tspan font-size="16" x="-4.83252" y="412">Azure Monitor</tspan><tspan font-size="16" x="337.556" y="265">Virtual </tspan><tspan font-size="16" x="388.183" y="265">Network</tspan><tspan font-size="16" x="344.6" y="154">Compute pool</tspan></text><g clip-path="url(#clip22)"><g clip-path="url(#clip23)"><g clip-path="url(#clip24)"><path d="M400.993 123C390.505 123 382.004 131.502 382.004 141.99 382.004 152.477 390.505 160.979 400.993 160.979 411.481 160.979 419.982 152.477 419.982 141.99 419.982 141.989 419.982 141.988 419.982 141.988 419.986 131.505 411.491 123.004 401.008 123 401.003 123 400.998 123 400.993 123ZM403.076 150.05 400.188 150.05 400.188 136.255C399.944 136.421 399.686 136.582 399.415 136.736 399.144 136.891 398.864 137.029 398.577 137.151 398.266 137.273 397.94 137.387 397.598 137.492 397.255 137.596 396.879 137.699 396.469 137.798L396.469 135.491C396.745 135.413 396.997 135.336 397.224 135.258 397.45 135.181 397.674 135.104 397.896 135.026 398.117 134.938 398.339 134.846 398.56 134.752 398.782 134.658 399.003 134.567 399.224 134.478 399.435 134.367 399.647 134.257 399.863 134.146 400.079 134.035 400.292 133.919 400.503 133.796 400.736 133.675 400.966 133.541 401.191 133.396 401.417 133.251 401.647 133.117 401.881 132.996L403.076 132.996Z" fill="#2F5597"/></g></g></g><path d="M9.35396 4.06313 276.756 189.833 274.474 193.118 7.07176 7.34818ZM6.43186 11.7742 0 0 13.2785 1.91901Z" fill="#2F5597" transform="matrix(-1 0 0 1 526.615 125)"/><g clip-path="url(#clip25)"><g clip-path="url(#clip26)"><g clip-path="url(#clip27)"><path d="M400.993 231C390.505 231 382.004 239.502 382.004 249.99 382.004 260.477 390.505 268.979 400.993 268.979 411.481 268.979 419.982 260.477 419.982 249.99 419.982 249.989 419.982 249.988 419.982 249.988 419.986 239.505 411.491 231.004 401.008 231 401.003 231 400.998 231 400.993 231ZM406.422 258.505 395.565 258.505 395.565 256.911C395.555 256.243 395.679 255.58 395.93 254.961 396.175 254.377 396.514 253.836 396.934 253.361 397.38 252.856 397.878 252.4 398.42 252 398.985 251.58 399.593 251.17 400.246 250.771 400.793 250.444 401.311 250.072 401.796 249.659 402.161 249.348 402.485 248.992 402.76 248.6 402.987 248.276 403.154 247.913 403.251 247.529 403.342 247.137 403.387 246.736 403.383 246.333 403.384 245.984 403.328 245.636 403.217 245.305 403.113 244.984 402.947 244.688 402.728 244.433 402.499 244.174 402.215 243.969 401.897 243.833 401.527 243.677 401.129 243.601 400.728 243.609 399.944 243.606 399.17 243.788 398.47 244.141 397.733 244.514 397.056 244.995 396.461 245.568L396.461 242.978C397.036 242.442 397.726 242.045 398.478 241.816 399.289 241.575 400.131 241.457 400.978 241.466 401.653 241.461 402.325 241.563 402.97 241.766 403.562 241.95 404.115 242.246 404.596 242.637 405.065 243.024 405.44 243.512 405.693 244.065 405.967 244.678 406.104 245.344 406.092 246.015 406.098 246.619 406.028 247.221 405.884 247.807 405.743 248.358 405.512 248.882 405.2 249.357 404.853 249.88 404.437 250.355 403.964 250.768 403.382 251.276 402.76 251.737 402.104 252.146 401.507 252.523 400.975 252.871 400.51 253.192 400.09 253.478 399.693 253.797 399.323 254.146 399.022 254.428 398.773 254.76 398.585 255.126 398.416 255.475 398.331 255.859 398.335 256.247L406.42 256.247Z" fill="#2F5597"/></g></g></g><g clip-path="url(#clip28)"><g clip-path="url(#clip29)"><g clip-path="url(#clip30)"><path d="M400.993 294C390.505 294 382.003 302.502 382.003 312.99 382.002 323.477 390.504 331.98 400.992 331.98 411.48 331.98 419.982 323.478 419.982 312.991 419.982 312.99 419.982 312.989 419.982 312.988 419.986 302.505 411.491 294.004 401.008 294 401.003 294 400.998 294 400.993 294ZM406.017 318.766C405.668 319.387 405.182 319.92 404.597 320.327 403.964 320.764 403.259 321.087 402.514 321.281 401.699 321.5 400.858 321.609 400.014 321.605 399.162 321.608 398.312 321.533 397.474 321.38 396.772 321.267 396.094 321.04 395.466 320.708L395.466 318.15C396.133 318.616 396.878 318.959 397.665 319.163 398.458 319.38 399.275 319.492 400.097 319.495 400.493 319.492 400.887 319.453 401.276 319.379 401.687 319.305 402.083 319.162 402.447 318.956 402.807 318.75 403.114 318.463 403.344 318.117 403.594 317.715 403.718 317.246 403.699 316.772 403.714 316.288 403.597 315.809 403.36 315.386 403.129 315.001 402.803 314.681 402.414 314.457 401.97 314.204 401.488 314.027 400.986 313.934 400.398 313.819 399.8 313.763 399.201 313.767L397.658 313.767 397.658 311.642 399.118 311.642C399.651 311.646 400.182 311.596 400.704 311.492 401.146 311.409 401.569 311.243 401.949 311.003 402.29 310.785 402.569 310.485 402.763 310.131 402.967 309.731 403.067 309.286 403.053 308.836 403.07 308.429 402.976 308.024 402.78 307.666 402.609 307.374 402.369 307.129 402.08 306.952 401.796 306.78 401.484 306.659 401.158 306.595 400.841 306.53 400.519 306.496 400.195 306.495 399.499 306.501 398.806 306.602 398.137 306.795 397.439 306.984 396.777 307.287 396.177 307.691L396.177 305.336C396.799 305.006 397.463 304.763 398.15 304.613 398.9 304.449 399.665 304.368 400.432 304.372 401.117 304.371 401.8 304.452 402.466 304.613 403.087 304.758 403.679 305.008 404.216 305.352 404.715 305.673 405.133 306.105 405.437 306.613 405.752 307.164 405.909 307.789 405.893 308.423 405.933 309.419 405.591 310.393 404.939 311.146 404.24 311.89 403.326 312.395 402.324 312.59 402.866 312.646 403.398 312.781 403.901 312.99 404.396 313.192 404.853 313.475 405.254 313.828 405.644 314.173 405.962 314.59 406.192 315.057 406.428 315.54 406.548 316.072 406.542 316.609 406.558 317.362 406.377 318.105 406.017 318.766Z" fill="#2F5597"/></g></g></g><path d="M609 340 868.744 340 868.744 344 609 344ZM866.744 336 878.744 342 866.744 348Z" fill="#2F5597"/><path d="M620.675 129.225 904.324 291.313 902.339 294.786 618.69 132.698ZM618.442 137.163 611 126 624.396 126.744Z" fill="#2F5597"/><path d="M0.891289-1.79042 266.62 130.492 264.838 134.073-0.891289 1.79042ZM266.612 126.02 274.681 136.739 261.264 136.762Z" fill="#2F5597" transform="matrix(-1 0 0 1 878.681 379)"/><g clip-path="url(#clip31)"><g clip-path="url(#clip32)"><g clip-path="url(#clip33)"><path d="M1007.07 445.973C1007.07 447.682 1005.68 449.067 1003.97 449.067 1002.26 449.067 1000.88 447.682 1000.88 445.973 1000.88 444.265 1002.26 442.88 1003.97 442.88 1005.68 442.88 1007.07 444.265 1007.07 445.973Z" fill="url(#fill34)"/><path d="M997.2 446C997.2 447.708 995.815 449.093 994.107 449.093 992.398 449.093 991.013 447.708 991.013 446 991.013 444.292 992.398 442.907 994.107 442.907 995.815 442.907 997.2 444.292 997.2 446Z" fill="url(#fill35)"/><path d="M987.333 446C987.333 447.708 985.948 449.093 984.24 449.093 982.532 449.093 981.147 447.708 981.147 446 981.147 444.292 982.532 442.907 984.24 442.907 985.948 442.907 987.333 444.292 987.333 446Z" fill="url(#fill36)"/><path d="M986.486 458.367 984.716 460.142C984.404 460.455 983.897 460.455 983.584 460.143L970.48 447.076C969.854 446.451 969.853 445.438 970.477 444.813L972.247 443.038 972.247 443.038 986.484 457.236C986.797 457.547 986.798 458.054 986.486 458.367Z" fill="#50E6FF"/><path d="M984.448 431.889 986.223 433.659C986.536 433.971 986.536 434.477 986.224 434.79L972.234 448.82 972.234 448.82 970.459 447.05C969.833 446.426 969.832 445.413 970.456 444.787L983.316 431.89C983.628 431.577 984.135 431.577 984.448 431.889Z" fill="#1490DF"/><path d="M1015.75 443.013 1017.52 444.788C1018.15 445.414 1018.14 446.427 1017.52 447.051L1004.41 460.119C1004.1 460.431 1003.59 460.43 1003.28 460.118L1001.51 458.343C1001.2 458.03 1001.2 457.523 1001.51 457.211L1015.75 443.013 1015.75 443.013Z" fill="#50E6FF"/><path d="M1017.52 447.032 1015.74 448.802 1015.74 448.802 1001.75 434.773C1001.44 434.46 1001.44 433.953 1001.75 433.641L1003.55 431.852C1003.86 431.54 1004.36 431.541 1004.68 431.854L1017.54 444.751C1018.16 445.376 1018.16 446.389 1017.53 447.013Z" fill="#1490DF"/></g></g></g><path d="M251 340 516.615 340 516.615 344 251 344ZM514.615 336 526.615 342 514.615 348Z" fill="#2F5597"/><path d="M9.35333 4.06275 281.356 193.031 279.073 196.316 7.07112 7.34779ZM6.43181 11.7742 0 0 13.2784 1.91908Z" fill="#2F5597" transform="matrix(-1 0 0 1 515.215 100)"/><path d="M570 182 570 295.349 566 295.349 566 182ZM574 293.349 568 305.349 562 293.349Z" fill="#2F5597"/><g clip-path="url(#clip37)"><g clip-path="url(#clip38)"><g clip-path="url(#clip39)"><path d="M538.981 213C538.593 213.559 538.211 214.076 537.836 214.55 537.46 215.024 537.067 215.5 536.656 215.978L541.637 215.978 541.637 208.708C541.116 209.627 540.641 210.432 540.209 211.124 539.779 211.815 539.369 212.441 538.981 213Z" fill="#2F5597"/><path d="M540.993 195C530.505 195 522.003 203.502 522.003 213.99 522.002 224.477 530.504 232.98 540.992 232.98 551.48 232.98 559.982 224.478 559.982 213.99 559.982 213.99 559.982 213.99 559.982 213.99 559.987 203.507 551.493 195.005 541.01 195 541.004 195 540.998 195 540.993 195ZM546.784 218.387 544.509 218.387 544.509 221.956 541.637 221.956 541.637 218.387 533.818 218.387 533.818 216.113C534.592 215.271 535.35 214.386 536.092 213.456 536.834 212.526 537.531 211.583 538.184 210.626 538.837 209.668 539.443 208.716 540.003 207.77 540.562 206.824 541.057 205.908 541.487 205.023L544.509 205.023 544.509 215.979 546.784 215.979Z" fill="#2F5597"/></g></g></g><g clip-path="url(#clip40)"><g clip-path="url(#clip41)"><g clip-path="url(#clip42)"><path d="M640.99 294.997C630.502 294.997 622 303.499 622 313.987 622 324.475 630.502 332.977 640.99 332.977 651.477 332.977 659.979 324.475 659.979 313.987 659.984 303.504 651.49 295.002 641.008 294.997 641.002 294.997 640.995 294.997 640.99 294.997ZM646.605 319.219C646.22 319.887 645.686 320.458 645.045 320.888 644.364 321.339 643.608 321.665 642.812 321.85 641.954 322.057 641.073 322.16 640.19 322.157 638.364 322.157 636.997 321.925 636.089 321.46L636.089 318.953C637.354 319.659 638.775 320.036 640.222 320.05 640.782 320.054 641.34 319.987 641.883 319.85 642.356 319.733 642.803 319.529 643.202 319.25 643.971 318.715 644.418 317.829 644.39 316.892 644.404 316.414 644.274 315.942 644.016 315.539 643.758 315.161 643.417 314.846 643.02 314.618 642.569 314.362 642.079 314.182 641.57 314.087 640.995 313.974 640.411 313.919 639.826 313.921 639.262 313.921 638.227 313.971 636.721 314.071L637.55 305.207 646.3 305.207 646.3 307.432 640.023 307.432 639.592 311.815C639.746 311.804 639.857 311.796 639.924 311.79 639.99 311.784 640.048 311.779 640.097 311.773 640.15 311.768 640.203 311.765 640.256 311.765L640.538 311.765C641.387 311.762 642.233 311.854 643.062 312.039 643.816 312.2 644.536 312.495 645.187 312.91 645.791 313.304 646.293 313.836 646.65 314.463 647.034 315.173 647.224 315.972 647.2 316.779 647.223 317.631 647.018 318.473 646.605 319.219Z" fill="#2F5597"/></g></g></g><g clip-path="url(#clip43)"><g clip-path="url(#clip44)"><g clip-path="url(#clip45)"><path d="M741.99 393C731.502 393 723 401.502 723 411.99 723 422.477 731.502 430.979 741.99 430.979 752.477 430.979 760.979 422.477 760.979 411.99 760.979 411.989 760.979 411.988 760.979 411.987 760.983 401.505 752.488 393.004 742.005 393 742 393 741.995 393 741.99 393ZM747.708 416.672C747.454 417.354 747.061 417.977 746.555 418.5 746.037 419.022 745.415 419.426 744.728 419.687 743.954 419.979 743.132 420.123 742.305 420.111 741.306 420.142 740.316 419.913 739.432 419.447 738.671 419.026 738.02 418.432 737.532 417.711 737.042 416.976 736.687 416.157 736.487 415.296 736.272 414.41 736.164 413.502 736.164 412.59 736.164 411.816 736.233 411.044 736.37 410.283 736.506 409.517 736.715 408.767 736.994 408.041 737.266 407.33 737.619 406.653 738.047 406.024 738.466 405.406 738.972 404.852 739.55 404.379 740.136 403.902 740.798 403.529 741.509 403.275 742.293 403 743.119 402.864 743.95 402.875 745.025 402.835 746.097 403.016 747.1 403.408L747.1 405.7C746.137 405.221 745.076 404.97 744 404.968 743.156 404.941 742.321 405.142 741.581 405.55 740.939 405.924 740.391 406.44 739.982 407.06 739.559 407.71 739.255 408.43 739.085 409.185 738.898 409.974 738.803 410.782 738.803 411.593L738.853 411.593C739.05 411.253 739.284 410.935 739.55 410.646 739.818 410.356 740.122 410.102 740.455 409.891 740.798 409.672 741.169 409.501 741.559 409.384 741.974 409.26 742.404 409.198 742.837 409.202 743.572 409.192 744.302 409.325 744.987 409.591 745.61 409.836 746.178 410.203 746.656 410.671 747.124 411.136 747.492 411.692 747.735 412.306 747.992 412.956 748.122 413.651 748.115 414.35 748.123 415.142 747.985 415.93 747.708 416.672Z" fill="#2F5597"/><path d="M744.545 412.1C744.251 411.831 743.903 411.626 743.524 411.5 743.147 411.374 742.752 411.309 742.354 411.309 741.928 411.31 741.506 411.389 741.109 411.542 740.703 411.694 740.329 411.919 740.005 412.206 739.674 412.499 739.403 412.854 739.208 413.25 738.998 413.679 738.892 414.152 738.9 414.63 738.897 415.069 738.973 415.504 739.123 415.917 739.273 416.319 739.503 416.686 739.8 416.996 740.109 417.318 740.482 417.573 740.896 417.743 741.37 417.934 741.879 418.026 742.39 418.017 742.869 418.028 743.344 417.925 743.776 417.716 744.154 417.529 744.488 417.263 744.755 416.936 745.017 416.613 745.217 416.244 745.345 415.849 745.477 415.45 745.545 415.032 745.545 414.612 745.558 414.103 745.464 413.597 745.271 413.126 745.104 412.737 744.857 412.387 744.545 412.1Z" fill="#2F5597"/></g></g></g><g clip-path="url(#clip46)"><g clip-path="url(#clip47)"><g clip-path="url(#clip48)"><path d="M827.99 196C817.502 196 809 204.502 809 214.99 809 225.477 817.502 233.979 827.99 233.979 838.477 233.979 846.979 225.477 846.979 214.99 846.979 214.989 846.979 214.988 846.979 214.988 846.983 204.505 838.487 196.004 828.004 196 827.999 196 827.994 196 827.99 196ZM834.667 208.07C833.904 209.376 833.173 210.663 832.476 211.93 831.779 213.197 831.146 214.462 830.576 215.723 830.015 216.961 829.519 218.228 829.091 219.517 828.673 220.773 828.345 222.057 828.111 223.36L825.304 223.36C825.502 222.08 825.811 220.819 826.225 219.591 826.647 218.346 827.135 217.124 827.686 215.931 828.244 214.719 828.859 213.507 829.529 212.295 830.198 211.083 830.888 209.857 831.596 208.618L822.465 208.618 822.465 206.311 834.667 206.311Z" fill="#2F5597"/></g></g></g><text font-family="Segoe UI,Segoe UI_MSFontService,sans-serif" font-weight="400" font-size="16" transform="translate(159.606 397)">Azure Pipelines</text></g></svg>