<svg class="architecture-diagram" aria-labelledby="image-classification-with-convolutional-neural-networks" height="534" viewbox="0 0 681 534" width="681" xmlns="http://www.w3.org/2000/svg">
    <g fill="none" fill-rule="evenodd" stroke="none" stroke-width="1">
        <path d="M64.936 436.867h-2.553l-1.522 1.66h4.075v11.985H49.859l-3.131 3.41h-2.013a1.842 1.842 0 01-1.83-1.844v.185c0 .921.732 1.751 1.647 1.751h42.364c.915 0 1.739-.738 1.739-1.75v-31.579l-11.415.04-12.284 13.362v2.78z" fill="#9FA0A1"/>
        <path d="M88.635 421.655V416.4c0-.92-.732-1.75-1.738-1.75h-4.118l-6.432 7.005h12.288zM44.715 414.65h-.183c-.915 0-1.647.83-1.647 1.751v.092c0-1.014.823-1.844 1.83-1.844" fill="#7A7A7A"/>
        <path fill="#0072C5" d="M64.936 434.087l-2.552 2.78h2.552zM64.936 438.527h-4.075l-11.002 11.984h15.077z"/>
        <path fill="#FFF" d="M42.885 421.655v.093h33.378l.084-.093z"/>
        <path d="M42.885 423.223v28.856c0 1.013.823 1.844 1.83 1.844h2.012l3.132-3.413h-3.59v-11.983h14.592l1.523-1.66H46.27v-11.985h18.666v9.204l11.327-12.339H42.885v1.476z" fill="#9FA0A1"/>
        <path d="M42.885 423.223v28.856c0 1.014.823 1.844 1.83 1.844h2.012l3.132-3.411h-3.59v-11.985h14.592l1.523-1.66H46.27v-11.985h18.666v9.204l12.513-13.63-34.564-.155v2.922z" fill="#BABBBC"/>
        <path d="M82.779 414.65H44.715c-1.006 0-1.83.83-1.83 1.843v5.162h33.462l6.432-7.006z" fill="#7A7A7A"/>
        <path d="M82.779 414.65H44.715c-1.006 0-1.83.83-1.83 1.843v5.162h33.462l6.432-7.006z" fill="#9E9E9E"/>
        <path fill="#0072C5" d="M64.936 424.883H46.27v11.985h16.114l2.553-2.781z"/>
        <path fill="#479AD1" d="M64.936 424.883H46.27v11.985h16.114l2.553-2.781z"/>
        <path fill="#0072C5" d="M46.27 438.527v11.984h3.588l11.003-11.984z"/>
        <path fill="#479AD1" d="M46.27 438.527v11.984h3.588l11.003-11.984z"/>
        <path fill="#FFF" d="M66.583 436.867h18.574v-11.985H66.583z"/>
        <path fill="#0072C5" d="M66.583 450.512h18.574v-11.984H66.583z"/>
        <path fill="#36C4EA" d="M208.999 444.537h37.78v-26.794h-37.78z"/>
        <path d="M234.074 447.112H222.265c1.42 5.013-.487 5.731-8.837 5.731v2.624H241.82v-2.624c-8.35 0-9.168-.716-7.747-5.73" fill="#7A7A7A"/>
        <path d="M246.74 415.367l-3.952 3.341h3.16v25.063H213.14l-3.955 3.343h37.527c1.304 0 2.624-1.155 2.624-2.454v-26.82c0-1.3-1.302-2.457-2.597-2.473" fill="#3E3E3E"/>
        <path d="M246.741 415.366h-.01.01" fill="#FFF"/>
        <path fill="#9FA0A1" d="M213.429 455.468h28.393v-2.625h-28.393z"/>
        <path d="M228.098 430.48a.237.237 0 01-.116-.034l-7.647-4.416a.234.234 0 010-.4l7.601-4.388a.232.232 0 01.228 0l7.65 4.418a.23.23 0 01.113.2.228.228 0 01-.114.2l-7.598 4.386a.232.232 0 01-.117.033" fill="#FFF"/>
        <path d="M227.228 440.982v-8.835a.243.243 0 00-.113-.202l-7.624-4.4a.23.23 0 00-.232 0 .228.228 0 00-.117.198v8.84c0 .084.044.157.117.197l7.623 4.402a.212.212 0 00.117.031H227a.224.224 0 00.115-.03.234.234 0 00.113-.2" fill="#BEEDF7"/>
        <path d="M236.89 436.78a.228.228 0 00.117-.2V427.8a.228.228 0 00-.117-.2.224.224 0 00-.229 0l-7.624 4.401a.239.239 0 00-.11.198v8.783c0 .084.044.158.11.2a.248.248 0 00.12.031h.001a.2.2 0 00.111-.032l7.621-4.402z" fill="#7CDBF1"/>
        <path d="M209.202 443.771v-25.063h33.586l3.952-3.34-.01-.002h-38.459c-.562 0-1.07.223-1.475.573a2.54 2.54 0 00-.885 1.9v26.822c0 1.298 1.054 2.453 2.36 2.453h.914l3.956-3.343h-3.939z" fill="#707070"/>
        <path d="M228.074 417.185a.616.616 0 11-1.232.001.616.616 0 011.232-.001" fill="#B7D332"/>
        <path fill="#959595" d="M239.477 282.313l2.043.553v-5.825l-2.043-.678zM243.563 277.718v2.494l1.472-2.005zM231.34 272.93l-.033-.011v7.283l2.043.52v-6.391l-2.039-.676zM239.477 275.636l2.043.695v-.005l-2.043-.707zM235.392 281.24l2.044.57v-6.124l-2.044-.677zM235.392 288.384v2.96l2.002-2.727zM233.35 288.144l-2.009-.235v-.774l-.034-.004v9.781l2.043-2.785zM251.732 288.112v7.325l-.626.12.627-.119v-7.326z"/>
        <path fill="#959595" d="M230.287 281.305v-10.033l15.65 5.705.35-.48-17.078-6.39.037 11.279.002.758 11.17 2.354.572-.78zM229.233 284.26l.032 15.412.02-.005 1.002-1.364v-12.644l8.344 1.273.79-1.077-10.187-1.868z"/>
        <path d="M229.208 270.107l-6.087 3.665v11.187l6.127-2.817-.002-.757-.038-11.278zm-1.984 3.818l-3.006 1.468.04-.833 2.965-1.627v.992zM229.248 282.142l-.002-.757.002.757zM230.287 298.303l1.02-1.391v-9.781l.034.005v-.01l6.55.813.74-1.008-8.344-1.272z" fill="#B3B4B5"/>
        <path fill="#B3B4B5" d="M233.35 288.144v5.983l2.042-2.783v-2.96zM224.133 287.851l3.127-1.387-.006.856-3.115 1.113-.006-.582zm-1.05-.923l.039 9.182 6.146 3.56-.035-15.41-.001-.274-6.15 2.942z"/>
        <path fill="#7A7A7A" d="M233.35 288.144v-.76l-2.009-.249v.774zM237.435 288.56v-.63l-2.043-.295v.747l2.002.235zM239.477 275.636v.728l2.043.677v-.71zM231.34 272.93l-.029.725 2.04.676v-.748zM235.392 274.246v.763l2.044.677v-.711zM245.434 277.662l-1.042-.355-.83-.274v.685l1.473.489z"/>
        <path fill="#7A7A7A" d="M233.35 288.144l2.042.24v-.749l2.043.295v.63l.457-.622-6.55-.813v.01l2.008.248zM231.342 272.868l-.002.061 2.01.655v.747l2.043.678v-.763l2.043.73v.71l2.042.677v-.727zM244.391 277.308l-2.87-.978v.71l2.041.678v-.684z"/>
        <path fill="#FFF" d="M229.286 299.667l-.021.027 21.842-4.137z"/>
        <path fill="#B3B3B3" d="M245.577 283.945l.03-5.549-.572-.19-1.472 2.007v3.207zM239.477 295.79l2.043-.372V289.1l-2.043-.24zM235.392 291.345v5.105l2.044-.368v-7.46l-.042-.005zM243.563 295.072l2.043-.344v-5.15l-2.043-.238z"/>
        <path fill="#B3B3B3" d="M238.631 286.93l12.08 1.843v6.14l-20.425 3.704v-.314l-1 1.364 21.82-4.111.626-.118v-7.326l-12.31-2.257z"/>
        <path fill="#B3B3B3" d="M233.35 296.765v-2.637l-2.043 2.784v.19z"/>
        <path fill="#FFF" d="M245.435 277.661l.177.062v-.014l-.172-.057z"/>
        <path fill="#B3B3B3" d="M245.937 276.976l4.773 1.741v7.194l-9.721-2.192-.571.779 11.314 2.382.001-8.392-5.444-1.99zM247.648 289.816v4.621l2.112-.362-.137-4.596.014.57z"/>
        <path fill="#B3B3B3" d="M249.69 279.755l-2.043-.682v5.403l2.043.553z"/>
        <path fill="#C9CACB" d="M249.69 279.09v5.939l-2.042-.553v-5.403l-2.04-.676-.031 5.548-2.014-.525v-3.208l-2.574 3.507 9.722 2.192v-7.194l-4.774-1.74-.51.682zM249.62 289.392l.002.089.137 4.596-2.112.36v-4.62l-2.042-.238v5.15l-2.043.343v-5.733l-2.042-.24v6.319l-2.043.373v-6.93l-2.042-.24v7.46l-2.043.37v-5.107l-2.043 2.784v2.637l-2.042.337v-.19l-1.02 1.39v.314l20.423-3.702v-6.142l-12.079-1.841-.739 1.007z"/>
        <path fill="#9F9F9F" d="M245.434 277.662l-.399.545 2.612.866 2.042.682.003-.667zM249.62 289.392l-11.728-1.454-.498.68 12.243 1.432z"/>
        <path d="M221.095 290.96h-6.127c-4.086-1.01-7.235-4.19-7.235-8.411 0-3.492 2.28-6.681 5.375-7.895a10.655 10.655 0 01-.058-1.101c0-6 4.92-10.86 10.986-10.86a11.028 11.028 0 018.555 4.059 8.954 8.954 0 014.006-.936c4.804 0 8.965 4.214 9.134 8.925l-16.404-6.69-8.232 4.903v18.006z" fill="#59B4D9"/>
        <path d="M225.19 281.95l-1.022.591v-7.956l1.022-.544v7.91zm2.034-8.896l-1.02.525-.004 7.728 1.024-.552v-7.7zM225.065 296.074l-.93-.467v-7.754l.93-.413v8.634zm2.192-9.609l-1.013.44-.04 9.782 1.054.541v-10.763h-.001z" fill="#959595"/>
        <path fill="#B3B4B5" d="M230.287 281.305l10.703 2.413 2.573-3.505v-2.494l-2.042-.678v5.826l-2.044-.552v-5.951l-2.041-.677v6.122l-2.043-.57v-6.231l-2.043-.677v6.39l-2.042-.52v-7.282l.032.01.002-.06 8.135 2.767v-.017l2.044.708v.003l2.87.978 1.042.353.504-.684-15.65-5.705z"/>
        <path fill="#7A7A7A" d="M224.14 288.433l3.113-1.115.007-.854-3.126 1.387zM224.17 275.419l3.052-1.493v-.991l-3.052 1.65z"/>
        <path d="M408.77 297.073l-12.513-21.763v-8.81h.226a2.716 2.716 0 002.71-2.722 2.715 2.715 0 00-2.71-2.72h-13.65a2.715 2.715 0 00-2.71 2.721 2.715 2.715 0 002.71 2.721h.224v8.81l-12.512 21.763c-1.372 2.388-.249 4.34 2.496 4.34h33.234c2.744 0 3.866-1.952 2.495-4.34" fill="#59B3D8"/>
        <path fill="#B7D332" d="M380.851 287.706l-5.162 8.98h27.937l-5.162-8.98z"/>
        <path d="M390.32 291.35a2.53 2.53 0 002.269-3.645h-4.536c-.163.336-.256.71-.256 1.11a2.53 2.53 0 002.524 2.536M393.454 292.062c.684 0 1.239.557 1.239 1.244 0 .687-.555 1.244-1.24 1.244a1.24 1.24 0 01-1.237-1.244 1.24 1.24 0 011.238-1.244" fill="#7FB900"/>
        <path d="M370.545 297.073l12.513-21.764v-8.81h-.226a2.715 2.715 0 01-2.71-2.72 2.715 2.715 0 012.71-2.722h5.882v14.182l-6.594 26.174h-9.08c-2.745 0-3.867-1.952-2.495-4.34" fill="#90CDE3"/>
        <path fill="#CFE07F" d="M375.688 296.686h7.623l2.263-8.98h-4.723z"/>
        <path d="M601.944 297.073l-12.512-21.763v-8.81h.226a2.716 2.716 0 002.71-2.722 2.715 2.715 0 00-2.71-2.72h-13.651a2.715 2.715 0 00-2.71 2.721 2.715 2.715 0 002.71 2.721h.225v8.81l-12.512 21.763c-1.373 2.388-.25 4.34 2.495 4.34h33.234c2.745 0 3.867-1.952 2.495-4.34" fill="#59B3D8"/>
        <path fill="#B7D332" d="M574.026 287.706l-5.163 8.98H596.8l-5.162-8.98z"/>
        <path d="M583.496 291.35a2.53 2.53 0 002.268-3.645h-4.536a2.531 2.531 0 002.268 3.645M586.628 292.062c.684 0 1.24.557 1.24 1.244 0 .687-.556 1.244-1.24 1.244a1.24 1.24 0 01-1.238-1.244 1.24 1.24 0 011.238-1.244" fill="#7FB900"/>
        <path d="M563.72 297.073l12.513-21.764v-8.81h-.226a2.715 2.715 0 01-2.71-2.72 2.715 2.715 0 012.71-2.722h5.882v14.182l-6.594 26.174h-9.08c-2.745 0-3.867-1.952-2.495-4.34" fill="#90CDE3"/>
        <path fill="#CFE07F" d="M568.863 296.686h7.623l2.263-8.98h-4.724z"/>
        <path d="M500.873 6.444V1.9l.62-.204v4.953l-.62-.204zm.967.271V1.627l.828-.203v5.563l-.828-.272zm1.173.34V1.29l1.104-.34v6.445l-1.104-.339zm-2.347-5.63v5.494l3.935 1.492V.068l-3.935 1.356z" fill="#804997"/>
        <path fill="#9D71AD" d="M493.074 0v8.412l5.313-2.036V1.832z"/>
        <path d="M488.517 6.444V1.9l.621-.204v4.953l-.62-.204zm.967.271V1.627l.828-.203v5.563l-.828-.272zm1.173.34V1.29l1.104-.34v6.445l-1.104-.339zm-2.347-5.63v5.494l3.934 1.492V.068l-3.934 1.356z" fill="#804997"/>
        <path fill="#9D71AD" d="M505.428 0v8.412l5.314-2.036V1.832z"/>
        <path fill="#A07BB1" d="M493.074 25.1l5.313-2.036v-4.546l-5.313-1.83z"/>
        <path d="M488.517 23.132v-4.545l.621-.204v4.952l-.62-.203zm.967.271v-5.088l.828-.203v5.562l-.828-.27zm1.173.34v-5.766l1.104-.34v6.445l-1.104-.34zm-2.347-5.63v5.494l3.934 1.493v-8.344l-3.934 1.356z" fill="#804997"/>
        <path fill="#A07BB1" d="M505.428 25.1l5.314-2.036v-4.546l-5.314-1.83z"/>
        <path d="M500.873 23.132v-4.545l.62-.204v4.952l-.62-.203zm.967.271v-5.088l.828-.203v5.562l-.828-.27zm1.173.34v-5.766l1.104-.34v6.445l-1.104-.34zm-2.347-5.63v5.494L504.6 25.1v-8.344l-3.935 1.356z" fill="#804997"/>
        <path fill="#A07BB1" d="M504.945 14.72l-5.245 1.968V8.344l5.245 1.832z"/>
        <path d="M494.868 9.7v5.496l3.935 1.491V8.344L494.868 9.7zm.207 5.021v-4.546l.62-.204v4.953l-.62-.203zm.966.338V9.971l.828-.203v5.563l-.828-.272zm1.174.34V9.632l1.103-.338v6.444l-1.103-.339z" fill="#804997"/>
        <path fill="#A07BB1" d="M492.659 14.72l-5.246 1.968V8.344l5.246 1.832z"/>
        <path d="M482.788 14.721v-4.545l.622-.205v4.953l-.622-.203zm.967.338V9.971l.828-.203v5.563l-.828-.272zm1.174.34V9.633l1.103-.34v6.445l-1.103-.339zM482.58 9.7v5.495l3.935 1.493V8.344L482.58 9.7z" fill="#804997"/>
        <path fill="#A07BB1" d="M511.847 16.688l5.246-1.967v-4.546l-5.246-1.831z"/>
        <path fill="#9D71AD" d="M493.074 0v8.412l5.313-2.036V1.832zM505.428 0v8.412l5.314-2.036V1.832zM493.074 25.1l5.313-2.036v-4.546l-5.313-1.83zM505.428 25.1l5.314-2.036v-4.546l-5.314-1.83zM504.945 14.72l-5.245 1.968V8.344l5.245 1.832zM492.659 14.72l-5.246 1.968V8.344l5.246 1.832zM511.847 16.688l5.246-1.967v-4.546l-5.246-1.831z"/>
        <path d="M507.016 9.7v5.496l3.935 1.491V8.344L507.016 9.7zm.207 5.021v-4.546l.621-.204v4.953l-.62-.203zm.966.338V9.971l.828-.203v5.563l-.828-.272zm1.174.34V9.632l1.104-.338v6.444l-1.104-.339z" fill="#804997"/>
        <path fill="#A07BB1" d="M645.61 241.283l-13.846 5.193V224.45l13.846 4.836z"/>
        <path d="M619.555 241.284v-11.997l1.642-.54v13.074l-1.642-.537zm2.553.894v-13.43l2.186-.537v14.684l-2.186-.717zm3.097.896v-15.22l2.914-.896v17.01l-2.914-.894zm-6.195-15.04v14.501l10.384 3.94v-22.023l-10.384 3.581z" fill="#804997"/>
        <path fill="#9D71AD" d="M645.61 241.283l-13.846 5.193V224.45l13.846 4.836z"/>
        <path fill="#A07BB1" d="M645.61 79.95l-13.846 5.193V63.117l13.846 4.836z"/>
        <path d="M619.555 79.951V67.954l1.642-.54v13.073l-1.642-.536zm2.553.894v-13.43l2.186-.537v14.683l-2.186-.716zm3.097.895V66.52l2.914-.896v17.01l-2.914-.894zM619.01 66.7v14.502l10.384 3.94V63.118L619.01 66.7z" fill="#804997"/>
        <path fill="#9D71AD" d="M645.61 79.95l-13.846 5.193V63.117l13.846 4.836z"/>
        <path fill="#A07BB1" d="M645.61 399.283l-13.846 5.193V382.45l13.846 4.836z"/>
        <path d="M619.555 399.284v-11.997l1.642-.54v13.073l-1.642-.536zm2.553.894v-13.43l2.186-.537v14.683l-2.186-.716zm3.097.896v-15.22l2.914-.896v17.01l-2.914-.894zm-6.195-15.042v14.504l10.384 3.94v-22.024l-10.384 3.58z" fill="#804997"/>
        <path fill="#9D71AD" d="M645.61 399.283l-13.846 5.193V382.45l13.846 4.836z"/>
        <path d="M604.297 116.385c0 11.872-9.624 21.495-21.495 21.495-11.87 0-21.495-9.623-21.495-21.495 0-11.872 9.624-21.495 21.495-21.495s21.495 9.623 21.495 21.495" fill="#FFF"/>
        <path d="M568.88 110.537a6.508 6.508 0 013.551-.243c.236-.268.477-.537.726-.805a39.952 39.952 0 015.992-5.191.077.077 0 01-.016-.015c-2.27-2.412-4.284-4.885-5.79-7.338a21.36 21.36 0 00-3.613 2.232c-.855.654-1.625 1.376-2.353 2.124-.298 1.776-.413 5.102 1.502 9.236M582.189 102.386h.001c5.894-3.134 11.054-3.204 14.39-2.695a21.55 21.55 0 00-20.374-3.915 172.685 172.685 0 005.982 6.61h.001zM565.917 120.621a6.51 6.51 0 01.003-7.899c-1.478-3.559-1.36-6.518-.875-8.598-4.95 7.225-5.114 16.977.105 24.477.116-2.212.47-4.769 1.249-7.423a6.617 6.617 0 01-.482-.557M586.21 106.518a193.348 193.348 0 007.151 6.76 4.625 4.625 0 015.986 1.19c1.007 1.321 1.18 3.012.63 4.463a113.675 113.675 0 003.682 2.882c1.642-6.224.511-13.107-3.707-18.612-.082-.109-.172-.21-.255-.317-.373-.035-5.855-.474-13.487 3.634M598.479 120.957a4.645 4.645 0 01-6.505-.867c-1.089-1.423-1.2-3.27-.485-4.788-2.703-2.11-5.557-4.47-8.25-6.96l.002-.001c-.071-.065-.136-.131-.206-.197.07.067.132.136.203.202-1.754 1.197-3.629 2.689-5.623 4.552-.261.246-.504.493-.751.74a6.543 6.543 0 01-.274 6.516 40.705 40.705 0 007.001 4.841c1.857-1.196 4.347-.81 5.709.977.398.52.646 1.108.774 1.709 5.34 1.535 9.251 1.006 10.591.73a21.476 21.476 0 002.418-4.746c-.817-.555-2.253-1.518-4.319-2.974-.098.085-.179.185-.285.266M588.507 131.982a4.308 4.308 0 01-6.023-.793 4.29 4.29 0 01-.836-3.036 35.986 35.986 0 01-6.285-4.008 57.875 57.875 0 01-1.746-1.476 6.49 6.49 0 01-3.004.488c-1.465 3.94-1.633 7.439-1.479 9.812a21.575 21.575 0 0013.72 4.912c4.571 0 9.174-1.456 13.082-4.445a22.02 22.02 0 001.87-1.624c-2.16-.005-5.045-.145-8.343-.88-.256.389-.566.75-.956 1.05" fill="#59B3D8"/>
        <path d="M314.697 318.808l-1.538-4.178a3.878 3.878 0 01-.15-.656h-.028a3.753 3.753 0 01-.157.656l-1.524 4.178h3.397zm2.687 3.78h-1.272l-1.04-2.749h-4.155l-.978 2.748h-1.278l3.76-9.801h1.189l3.774 9.801zM323.556 315.91l-4.143 5.721h4.102v.957h-5.749v-.349l4.143-5.694h-3.753v-.957h5.4zM330.666 322.588h-1.121v-1.107h-.028c-.464.847-1.185 1.27-2.16 1.27-1.669 0-2.503-.993-2.503-2.98v-4.183h1.115v4.006c0 1.476.565 2.215 1.695 2.215a1.71 1.71 0 001.35-.606c.353-.402.53-.93.53-1.582v-4.033h1.122v7zM336.579 316.723c-.196-.15-.48-.226-.848-.226-.478 0-.878.226-1.2.676-.321.452-.481 1.067-.481 1.846v3.568h-1.121v-7h1.12v1.444h.028c.159-.493.403-.877.73-1.153a1.669 1.669 0 011.102-.413c.292 0 .515.03.67.096v1.162zM342.088 318.418c-.005-.646-.16-1.15-.468-1.511-.308-.36-.735-.54-1.282-.54-.529 0-.978.19-1.347.568-.369.378-.597.872-.683 1.483h3.78zm1.148.95h-4.942c.018.779.228 1.38.63 1.805.4.424.951.636 1.653.636.788 0 1.513-.26 2.174-.78v1.053c-.615.447-1.429.67-2.44.67-.99 0-1.766-.318-2.33-.953-.567-.637-.849-1.531-.849-2.684 0-1.09.31-1.976.926-2.662.618-.686 1.384-1.03 2.301-1.03.916 0 1.624.298 2.125.89.501.59.752 1.415.752 2.467v.588zM358.912 322.588h-1.142v-6.576c0-.52.033-1.155.096-1.907h-.027c-.11.442-.208.758-.294.95l-3.35 7.533h-.56l-3.343-7.48c-.096-.217-.194-.552-.294-1.003h-.027c.036.39.054 1.032.054 1.92v6.563h-1.107v-9.803h1.517l3.008 6.836c.233.524.383.916.45 1.176h.042c.196-.537.354-.94.472-1.203l3.069-6.81h1.436v9.804zM365.228 319.047l-1.688.232c-.52.073-.912.202-1.176.387-.265.184-.397.512-.397.98 0 .342.122.622.366.839.244.215.569.324.974.324.556 0 1.015-.196 1.378-.584.361-.391.543-.883.543-1.481v-.697zm1.121 3.54h-1.121v-1.093h-.027c-.489.838-1.205 1.258-2.154 1.258-.697 0-1.243-.184-1.637-.554-.394-.37-.591-.858-.591-1.47 0-1.308.77-2.068 2.31-2.283l2.099-.294c0-1.19-.48-1.784-1.442-1.784-.843 0-1.605.287-2.284.862v-1.15c.689-.436 1.482-.655 2.379-.655 1.646 0 2.468.87 2.468 2.61v4.554zM373.233 322.267c-.538.322-1.176.485-1.914.485-.998 0-1.804-.325-2.417-.975-.612-.649-.92-1.49-.92-2.525 0-1.153.33-2.08.992-2.78.66-.698 1.543-1.048 2.646-1.048.615 0 1.157.114 1.627.341v1.149a2.849 2.849 0 00-1.668-.546c-.716 0-1.302.255-1.761.769-.457.512-.687 1.185-.687 2.02 0 .82.216 1.466.646 1.94.432.476 1.009.712 1.733.712.61 0 1.185-.204 1.723-.609v1.067zM380.739 322.588h-1.121v-4.033c0-1.46-.542-2.188-1.627-2.188-.547 0-1.007.21-1.381.633-.374.42-.56.963-.56 1.623v3.965h-1.122v-10.363h1.122v4.525h.027c.538-.885 1.304-1.326 2.297-1.326 1.577 0 2.365.95 2.365 2.85v4.314zM382.851 322.588h1.121v-7h-1.121v7zm.574-8.778a.706.706 0 01-.512-.205.688.688 0 01-.212-.519c0-.209.07-.384.212-.524a.705.705 0 01.512-.208c.205 0 .379.07.524.208.142.14.215.315.215.524a.7.7 0 01-.215.513.723.723 0 01-.524.211zM392.052 322.588h-1.12v-3.992c0-1.487-.544-2.23-1.628-2.23-.56 0-1.024.212-1.39.634-.368.42-.55.953-.55 1.596v3.992h-1.123v-7h1.122v1.162h.027c.528-.885 1.294-1.326 2.297-1.326.765 0 1.351.247 1.757.742.405.494.608 1.209.608 2.143v4.279zM398.642 318.418c-.005-.646-.16-1.15-.469-1.511-.306-.36-.734-.54-1.28-.54-.53 0-.979.19-1.348.568-.369.378-.596.872-.683 1.483h3.78zm1.148.95h-4.942c.02.779.228 1.38.63 1.805.4.424.951.636 1.653.636.788 0 1.513-.26 2.174-.78v1.053c-.615.447-1.429.67-2.44.67-.99 0-1.766-.318-2.33-.953-.567-.637-.849-1.531-.849-2.684 0-1.09.31-1.976.927-2.662.617-.686 1.383-1.03 2.3-1.03.916 0 1.624.298 2.125.89.501.59.752 1.415.752 2.467v.588zM410.557 322.588h-5.086v-9.803h1.148v8.764h3.938zM416.388 318.418c-.005-.646-.16-1.15-.469-1.511-.306-.36-.734-.54-1.28-.54-.53 0-.979.19-1.348.568-.369.378-.596.872-.683 1.483h3.78zm1.148.95h-4.942c.02.779.228 1.38.63 1.805.4.424.951.636 1.653.636.788 0 1.513-.26 2.174-.78v1.053c-.615.447-1.429.67-2.44.67-.99 0-1.766-.318-2.33-.953-.567-.637-.849-1.531-.849-2.684 0-1.09.31-1.976.927-2.662.617-.686 1.383-1.03 2.3-1.03.916 0 1.624.298 2.125.89.501.59.752 1.415.752 2.467v.588zM423.122 319.047l-1.688.232c-.52.073-.913.202-1.176.387-.265.184-.397.512-.397.98 0 .342.122.622.365.839.245.215.569.324.975.324.556 0 1.016-.196 1.377-.584.363-.391.544-.883.544-1.481v-.697zm1.12 3.54h-1.12v-1.093h-.027c-.488.838-1.206 1.258-2.154 1.258-.697 0-1.243-.184-1.636-.554-.395-.37-.592-.858-.592-1.47 0-1.308.769-2.068 2.31-2.283l2.099-.294c0-1.19-.481-1.784-1.442-1.784-.844 0-1.605.287-2.284.862v-1.15c.688-.436 1.48-.655 2.379-.655 1.645 0 2.468.87 2.468 2.61v4.554zM430.005 316.723c-.196-.15-.479-.226-.848-.226-.478 0-.879.226-1.199.676-.322.452-.482 1.067-.482 1.846v3.568h-1.12v-7h1.12v1.444h.027c.16-.493.403-.877.731-1.153a1.669 1.669 0 011.101-.413c.291 0 .515.03.67.096v1.162zM437.005 322.588h-1.12v-3.992c0-1.487-.544-2.23-1.628-2.23-.56 0-1.024.212-1.39.634-.368.42-.55.953-.55 1.596v3.992h-1.123v-7h1.122v1.162h.027c.528-.885 1.294-1.326 2.297-1.326.765 0 1.351.247 1.757.742.405.494.608 1.209.608 2.143v4.279zM439.118 322.588h1.121v-7h-1.121v7zm.574-8.778a.71.71 0 01-.725-.724.71.71 0 01.212-.524.709.709 0 01.513-.208c.205 0 .38.07.522.208.145.14.216.315.216.524a.69.69 0 01-.216.513.714.714 0 01-.522.211zM448.319 322.588h-1.121v-3.992c0-1.487-.542-2.23-1.627-2.23-.561 0-1.024.212-1.392.634-.366.42-.55.953-.55 1.596v3.992h-1.121v-7h1.122v1.162h.027c.528-.885 1.294-1.326 2.297-1.326.765 0 1.35.247 1.757.742.405.494.608 1.209.608 2.143v4.279zM455.285 319.423v-1.032c0-.557-.187-1.032-.564-1.43a1.857 1.857 0 00-1.405-.594c-.693 0-1.235.252-1.627.756-.392.503-.588 1.209-.588 2.115 0 .78.188 1.403.565 1.87.375.467.873.7 1.493.7.629 0 1.14-.222 1.534-.67.395-.446.592-1.018.592-1.715zm1.12 2.604c0 2.57-1.23 3.856-3.69 3.856-.867 0-1.623-.164-2.27-.492v-1.121c.788.437 1.54.656 2.256.656 1.723 0 2.584-.916 2.584-2.748v-.766h-.027c-.534.893-1.336 1.34-2.407 1.34-.871 0-1.571-.31-2.101-.933-.531-.622-.797-1.458-.797-2.505 0-1.19.286-2.136.857-2.837.573-.701 1.356-1.053 2.349-1.053.943 0 1.643.379 2.099 1.135h.027v-.971h1.12v6.439zM333.263 339.388h-1.142v-6.576c0-.52.032-1.155.096-1.907h-.027c-.11.44-.208.758-.294.95l-3.35 7.533h-.56l-3.343-7.48c-.096-.217-.194-.552-.294-1.003h-.027c.036.392.054 1.032.054 1.92v6.563h-1.107v-9.803h1.517l3.008 6.836c.233.525.383.916.451 1.176h.041c.196-.538.353-.938.472-1.203l3.07-6.81h1.435v9.804zM338.698 333.167c-.72 0-1.29.245-1.71.735-.418.49-.628 1.165-.628 2.027 0 .829.212 1.483.636 1.962.424.478.99.717 1.702.717.725 0 1.282-.235 1.67-.704.39-.468.586-1.136.586-2.003 0-.875-.195-1.55-.585-2.023-.39-.474-.946-.711-1.671-.711m-.082 6.385c-1.035 0-1.86-.327-2.478-.982-.618-.653-.926-1.52-.926-2.6 0-1.176.32-2.095.964-2.755.642-.66 1.51-.991 2.604-.991 1.043 0 1.858.32 2.444.964.585.642.878 1.533.878 2.672 0 1.117-.315 2.01-.946 2.683-.632.673-1.48 1.009-2.54 1.009M348.747 336.223v-1.033c0-.565-.187-1.043-.561-1.435-.374-.392-.847-.589-1.421-.589-.684 0-1.222.252-1.614.752-.391.502-.588 1.195-.588 2.079 0 .806.189 1.443.564 1.911.377.466.88.7 1.515.7.624 0 1.13-.226 1.52-.676.39-.452.585-1.023.585-1.71zm1.12 3.164h-1.12V338.2h-.027c-.52.901-1.322 1.352-2.407 1.352-.88 0-1.583-.313-2.108-.94-.527-.625-.79-1.48-.79-2.56 0-1.156.29-2.084.875-2.781.583-.697 1.36-1.046 2.33-1.046.962 0 1.662.377 2.1 1.135h.027v-4.334h1.12v10.363zM356.615 335.218c-.005-.647-.16-1.151-.47-1.511-.305-.36-.733-.54-1.28-.54-.53 0-.978.189-1.347.568-.37.379-.596.873-.683 1.483h3.78zm1.148.95h-4.942c.019.779.228 1.38.629 1.805.4.424.952.636 1.654.636.788 0 1.513-.26 2.174-.78v1.053c-.615.446-1.43.67-2.44.67-.99 0-1.766-.317-2.331-.954-.566-.635-.848-1.53-.848-2.683 0-1.09.309-1.976.927-2.663.617-.685 1.383-1.028 2.3-1.028.916 0 1.624.296 2.125.889.5.592.752 1.415.752 2.467v.588zM359.459 339.388h1.121v-10.363h-1.121zM376.829 339.388h-1.142v-6.576c0-.52.032-1.155.096-1.907h-.027c-.11.44-.207.758-.294.95l-3.35 7.533h-.56l-3.343-7.48c-.096-.217-.193-.552-.294-1.003h-.027c.036.392.054 1.032.054 1.92v6.563h-1.107v-9.803h1.517l3.008 6.836c.233.525.383.916.45 1.176h.042c.197-.538.353-.938.472-1.203l3.069-6.81h1.436v9.804zM383.145 335.847l-1.688.232c-.52.074-.913.203-1.176.386-.265.186-.397.512-.397.982 0 .34.122.62.365.837.245.216.569.325.975.325.556 0 1.016-.195 1.377-.585.363-.39.544-.883.544-1.48v-.697zm1.121 3.54h-1.121v-1.093h-.027c-.488.839-1.206 1.258-2.154 1.258-.697 0-1.243-.184-1.636-.554-.395-.37-.592-.86-.592-1.47 0-1.307.769-2.07 2.31-2.283l2.099-.294c0-1.19-.481-1.784-1.442-1.784-.844 0-1.605.287-2.284.862v-1.15c.688-.436 1.481-.655 2.379-.655 1.645 0 2.468.87 2.468 2.61v4.554zM392.189 339.388h-1.121v-3.992c0-1.486-.543-2.23-1.627-2.23-.561 0-1.024.212-1.391.633-.367.422-.55.954-.55 1.597v3.992h-1.122v-7h1.122v1.162h.027c.528-.884 1.294-1.326 2.297-1.326.765 0 1.351.247 1.757.74.405.496.608 1.21.608 2.145v4.279zM398.19 335.847l-1.687.232c-.52.074-.912.203-1.176.386-.265.186-.397.512-.397.982 0 .34.122.62.366.837.244.216.569.325.974.325.556 0 1.015-.195 1.378-.585.36-.39.543-.883.543-1.48v-.697zm1.122 3.54h-1.121v-1.093h-.027c-.49.839-1.205 1.258-2.154 1.258-.697 0-1.243-.184-1.637-.554-.394-.37-.591-.86-.591-1.47 0-1.307.77-2.07 2.31-2.283l2.099-.294c0-1.19-.48-1.784-1.442-1.784-.843 0-1.605.287-2.284.862v-1.15c.689-.436 1.482-.655 2.379-.655 1.646 0 2.468.87 2.468 2.61v4.554zM406.278 336.223v-1.033c0-.555-.188-1.031-.563-1.428a1.862 1.862 0 00-1.406-.596c-.692 0-1.235.252-1.627.755-.391.505-.588 1.21-.588 2.117 0 .78.189 1.402.564 1.87.377.466.874.7 1.494.7.629 0 1.14-.224 1.535-.67.394-.445.59-1.018.59-1.715zm1.12 2.603c0 2.571-1.23 3.856-3.69 3.856-.867 0-1.622-.163-2.27-.492v-1.12c.788.437 1.54.656 2.256.656 1.723 0 2.584-.916 2.584-2.748v-.767h-.027c-.534.894-1.335 1.34-2.407 1.34-.87 0-1.571-.31-2.102-.933-.53-.623-.796-1.457-.796-2.505 0-1.19.286-2.135.858-2.837.572-.702 1.354-1.053 2.348-1.053.943 0 1.643.378 2.099 1.135h.027v-.97h1.12v6.439zM414.146 335.218c-.005-.647-.16-1.151-.469-1.511-.306-.36-.734-.54-1.281-.54-.529 0-.978.189-1.347.568-.369.379-.596.873-.683 1.483h3.78zm1.148.95h-4.942c.019.779.228 1.38.629 1.805.401.424.952.636 1.654.636.788 0 1.513-.26 2.174-.78v1.053c-.615.446-1.429.67-2.44.67-.99 0-1.766-.317-2.331-.954-.566-.635-.848-1.53-.848-2.683 0-1.09.309-1.976.927-2.663.617-.685 1.383-1.028 2.3-1.028.916 0 1.624.296 2.125.889.501.592.752 1.415.752 2.467v.588zM426.93 339.388h-1.122v-4.02c0-.774-.119-1.334-.359-1.681-.239-.347-.64-.52-1.207-.52-.478 0-.885.219-1.219.657-.336.437-.503.96-.503 1.572v3.992h-1.12v-4.156c0-1.376-.533-2.065-1.594-2.065-.492 0-.898.206-1.217.618-.319.414-.478.95-.478 1.61v3.993h-1.12v-7h1.12v1.107h.027c.496-.847 1.221-1.271 2.174-1.271.478 0 .895.134 1.251.399.355.268.598.618.731 1.05.52-.966 1.294-1.45 2.324-1.45 1.54 0 2.311.95 2.311 2.852v4.313zM433.526 335.218c-.005-.647-.161-1.151-.468-1.511-.308-.36-.735-.54-1.282-.54a1.81 1.81 0 00-1.347.568c-.37.379-.597.873-.683 1.483h3.78zm1.148.95h-4.942c.018.779.228 1.38.629 1.805.4.424.952.636 1.654.636.788 0 1.513-.26 2.174-.78v1.053c-.615.446-1.43.67-2.44.67-.99 0-1.767-.317-2.331-.954-.566-.635-.848-1.53-.848-2.683 0-1.09.309-1.976.926-2.663.618-.685 1.384-1.028 2.3-1.028.917 0 1.626.296 2.126.889.5.592.752 1.415.752 2.467v.588zM442.18 339.388h-1.12v-3.992c0-1.486-.543-2.23-1.628-2.23-.56 0-1.024.212-1.392.633-.366.422-.549.954-.549 1.597v3.992h-1.122v-7h1.122v1.162h.027c.528-.884 1.294-1.326 2.297-1.326.765 0 1.35.247 1.757.74.405.496.608 1.21.608 2.145v4.279zM447.54 339.32c-.265.145-.613.218-1.046.218-1.226 0-1.84-.684-1.84-2.05v-4.144h-1.202v-.957h1.203v-1.709l1.12-.362v2.071h1.765v.957h-1.764v3.945c0 .468.079.804.24 1.005.159.2.423.3.793.3.282 0 .526-.077.73-.232v.957zM363.734 355.79v-1.353c.155.137.34.26.558.37.215.109.444.202.683.277.239.075.48.133.722.174.24.04.465.062.67.062.706 0 1.233-.131 1.582-.393.348-.263.523-.64.523-1.132a1.32 1.32 0 00-.175-.69 1.961 1.961 0 00-.481-.537 4.844 4.844 0 00-.728-.465 63.078 63.078 0 00-.907-.468 15.25 15.25 0 01-.957-.526 4.095 4.095 0 01-.771-.588 2.444 2.444 0 01-.517-.728 2.245 2.245 0 01-.188-.953c0-.447.098-.836.295-1.166a2.52 2.52 0 01.77-.817 3.49 3.49 0 011.092-.478 4.929 4.929 0 011.247-.158c.967 0 1.67.117 2.113.349v1.29c-.58-.4-1.322-.6-2.228-.6-.251 0-.502.027-.752.079a2.091 2.091 0 00-.67.257c-.196.118-.356.27-.48.457a1.217 1.217 0 00-.184.683c0 .25.047.468.14.65.094.182.232.348.414.499.182.15.405.297.667.437.26.142.564.297.906.465.35.174.683.356.998.547.314.19.59.404.826.637a2.8 2.8 0 01.564.77c.139.284.209.608.209.972 0 .483-.095.892-.284 1.227a2.334 2.334 0 01-.765.818 3.357 3.357 0 01-1.111.454c-.42.093-.861.14-1.326.14-.155 0-.347-.012-.574-.038a7.669 7.669 0 01-.697-.11 5.613 5.613 0 01-.674-.177 2.068 2.068 0 01-.51-.236M375.957 352.017c-.005-.645-.16-1.15-.469-1.51-.306-.36-.735-.54-1.281-.54-.529 0-.978.19-1.346.569-.37.377-.597.872-.683 1.481h3.779zm1.147.952h-4.94c.018.779.228 1.38.629 1.805.4.423.952.635 1.654.635.788 0 1.512-.26 2.173-.78v1.053c-.615.446-1.43.67-2.44.67-.99 0-1.767-.317-2.33-.953-.567-.637-.849-1.53-.849-2.685 0-1.089.31-1.976.927-2.661s1.384-1.03 2.3-1.03c.916 0 1.625.297 2.125.89.501.591.751 1.416.751 2.467v.589zM382.45 350.322c-.194-.15-.478-.225-.847-.225-.478 0-.878.225-1.2.676-.32.451-.481 1.067-.481 1.846v3.568H378.8v-7h1.12v1.444h.028c.16-.493.404-.877.732-1.153a1.673 1.673 0 011.1-.414c.292 0 .516.032.67.096v1.162zM389.732 349.187l-2.79 7h-1.101l-2.652-7h1.23l1.778 5.086c.133.374.215.7.246.978h.027c.046-.35.119-.668.219-.95l1.859-5.114h1.184zM390.935 356.187h1.121v-7h-1.121v7zm.574-8.777a.709.709 0 01-.724-.725c0-.209.07-.382.211-.522a.7.7 0 01.513-.208.72.72 0 01.523.208.7.7 0 01.216.522.696.696 0 01-.216.514.72.72 0 01-.523.211zM399.097 355.867c-.538.323-1.176.484-1.914.484-.998 0-1.805-.324-2.417-.973-.613-.65-.919-1.49-.919-2.527 0-1.152.33-2.078.99-2.778.661-.7 1.543-1.05 2.647-1.05.615 0 1.157.115 1.627.342v1.148c-.52-.364-1.076-.546-1.668-.546-.716 0-1.303.256-1.76.77-.459.512-.688 1.185-.688 2.02 0 .82.215 1.466.646 1.94.431.475 1.01.711 1.733.711.611 0 1.185-.202 1.723-.607v1.066zM405.269 352.017c-.004-.645-.16-1.15-.468-1.51-.307-.36-.735-.54-1.282-.54-.528 0-.977.19-1.346.569-.369.377-.597.872-.683 1.481h3.779zm1.148.952h-4.941c.018.779.228 1.38.629 1.805.4.423.952.635 1.654.635.788 0 1.513-.26 2.174-.78v1.053c-.615.446-1.43.67-2.441.67-.989 0-1.766-.317-2.33-.953-.566-.637-.848-1.53-.848-2.685 0-1.089.309-1.976.926-2.661s1.384-1.03 2.3-1.03c.917 0 1.625.297 2.125.89.502.591.752 1.416.752 2.467v.589zM184.987 320.808l-1.538-4.178a3.878 3.878 0 01-.15-.656h-.028a3.753 3.753 0 01-.157.656l-1.524 4.178h3.397zm2.687 3.78h-1.272l-1.04-2.749h-4.155l-.978 2.748h-1.278l3.76-9.801h1.189l3.774 9.801zM193.846 317.91l-4.143 5.721h4.102v.957h-5.749v-.349l4.143-5.694h-3.753v-.957h5.4zM200.956 324.588h-1.121v-1.107h-.027c-.465.847-1.185 1.27-2.161 1.27-1.668 0-2.502-.993-2.502-2.98v-4.183h1.115v4.006c0 1.476.565 2.215 1.695 2.215a1.71 1.71 0 001.35-.606c.353-.402.53-.93.53-1.582v-4.033h1.12v7zM206.869 318.723c-.196-.15-.48-.226-.848-.226-.478 0-.878.226-1.2.676-.321.452-.481 1.067-.481 1.846v3.568h-1.121v-7h1.12v1.444h.028c.159-.493.403-.877.73-1.153a1.669 1.669 0 011.102-.413c.292 0 .515.03.67.096v1.162zM212.378 320.418c-.005-.646-.16-1.15-.468-1.511-.308-.36-.735-.54-1.282-.54-.529 0-.978.19-1.347.568-.369.378-.597.872-.683 1.483h3.78zm1.148.95h-4.942c.018.779.228 1.38.63 1.805.4.424.951.636 1.653.636.788 0 1.513-.26 2.174-.78v1.053c-.615.447-1.429.67-2.44.67-.99 0-1.766-.318-2.33-.953-.567-.637-.849-1.531-.849-2.684 0-1.09.31-1.976.926-2.662.618-.686 1.384-1.03 2.301-1.03.916 0 1.624.298 2.125.89.501.59.752 1.415.752 2.467v.588zM225.88 324.178c-.726.383-1.628.574-2.708.574-1.395 0-2.51-.45-3.35-1.346-.839-.898-1.257-2.076-1.257-3.535 0-1.568.471-2.834 1.415-3.8.943-.967 2.14-1.45 3.588-1.45.93 0 1.7.135 2.311.404v1.223a4.686 4.686 0 00-2.324-.588c-1.126 0-2.038.376-2.738 1.128-.7.752-1.049 1.757-1.049 3.015 0 1.193.327 2.146.981 2.854.653.709 1.511 1.063 2.573 1.063.985 0 1.837-.22 2.557-.656v1.114zM230.733 318.367c-.72 0-1.29.245-1.71.734-.418.491-.628 1.166-.628 2.028 0 .83.212 1.483.636 1.962.424.478.99.717 1.702.717.725 0 1.282-.234 1.67-.704.39-.469.586-1.137.586-2.003 0-.875-.195-1.548-.585-2.023-.39-.475-.946-.71-1.671-.71m-.082 6.384c-1.035 0-1.86-.327-2.478-.98-.618-.655-.926-1.522-.926-2.602 0-1.176.32-2.094.964-2.755.642-.66 1.51-.99 2.604-.99 1.043 0 1.858.32 2.444.963.585.642.878 1.534.878 2.672 0 1.118-.315 2.011-.946 2.684-.632.672-1.48 1.008-2.54 1.008M241.739 324.588h-1.121v-3.992c0-1.487-.543-2.23-1.627-2.23-.561 0-1.024.212-1.391.634-.367.42-.55.953-.55 1.596v3.992h-1.122v-7h1.122v1.162h.027c.528-.885 1.294-1.326 2.297-1.326.765 0 1.35.247 1.757.742.405.494.608 1.209.608 2.143v4.279zM247.098 324.52c-.265.145-.613.218-1.046.218-1.226 0-1.839-.684-1.839-2.05v-4.144h-1.203v-.957h1.203v-1.709l1.121-.362v2.071h1.764v.957h-1.764v3.945c0 .47.08.803.24 1.005.16.201.423.3.793.3.282 0 .526-.078.731-.232v.957zM252.485 321.047l-1.688.232c-.52.073-.912.202-1.176.387-.265.184-.397.512-.397.98 0 .342.122.622.366.839.244.215.568.324.974.324.556 0 1.015-.196 1.378-.584.362-.391.543-.883.543-1.481v-.697zm1.12 3.54h-1.12v-1.093h-.027c-.488.838-1.206 1.258-2.154 1.258-.697 0-1.243-.184-1.637-.554-.394-.37-.591-.858-.591-1.47 0-1.308.77-2.068 2.31-2.283l2.099-.294c0-1.19-.481-1.784-1.442-1.784-.844 0-1.605.287-2.284.862v-1.15c.688-.436 1.48-.655 2.379-.655 1.645 0 2.468.87 2.468 2.61v4.554zM255.718 324.588h1.121v-7h-1.121v7zm.574-8.778a.708.708 0 01-.512-.205.688.688 0 01-.212-.519c0-.209.07-.384.212-.524a.707.707 0 01.512-.208.725.725 0 01.739.732.693.693 0 01-.216.513.716.716 0 01-.523.211zM264.92 324.588h-1.122v-3.992c0-1.487-.543-2.23-1.627-2.23-.56 0-1.024.212-1.39.634-.368.42-.55.953-.55 1.596v3.992h-1.123v-7h1.122v1.162h.027c.528-.885 1.294-1.326 2.297-1.326.765 0 1.351.247 1.757.742.405.494.608 1.209.608 2.143v4.279zM271.51 320.418c-.006-.646-.162-1.15-.469-1.511-.308-.36-.735-.54-1.282-.54-.529 0-.978.19-1.347.568-.369.378-.597.872-.683 1.483h3.78zm1.147.95h-4.942c.018.779.228 1.38.63 1.805.4.424.951.636 1.653.636.788 0 1.513-.26 2.174-.78v1.053c-.615.447-1.429.67-2.44.67-.99 0-1.766-.318-2.33-.953-.567-.637-.849-1.531-.849-2.684 0-1.09.31-1.976.926-2.662.618-.686 1.384-1.03 2.301-1.03.916 0 1.624.298 2.125.89.501.59.752 1.415.752 2.467v.588zM278.003 318.723c-.196-.15-.479-.226-.848-.226-.478 0-.878.226-1.199.676-.322.452-.482 1.067-.482 1.846v3.568h-1.12v-7h1.12v1.444h.027c.16-.493.403-.877.731-1.153a1.669 1.669 0 011.101-.413c.292 0 .515.03.67.096v1.162zM205.963 332.624v3.555h1.559c.287 0 .552-.044.796-.13.244-.086.455-.211.632-.373a1.68 1.68 0 00.417-.594c.1-.235.15-.498.15-.79 0-.524-.17-.933-.51-1.228-.338-.293-.83-.44-1.472-.44h-1.572zm5.879 8.764h-1.367l-1.641-2.748a6.114 6.114 0 00-.437-.654 2.59 2.59 0 00-.434-.44 1.503 1.503 0 00-.48-.25 1.947 1.947 0 00-.577-.078h-.943v4.17h-1.148v-9.803h2.925c.429 0 .824.054 1.186.16.363.108.677.27.944.489.266.219.475.492.625.817.15.326.226.708.226 1.145 0 .342-.051.656-.154.94a2.474 2.474 0 01-.437.762c-.19.223-.417.414-.684.57a3.48 3.48 0 01-.9.367v.027c.165.074.307.157.428.249.12.094.236.205.345.332a4.3 4.3 0 01.325.434c.107.162.227.35.359.564l1.839 2.947zM217.126 337.218c-.004-.647-.161-1.151-.468-1.511-.308-.36-.735-.54-1.282-.54-.529 0-.978.189-1.347.568-.369.379-.597.873-.683 1.483h3.78zm1.148.95h-4.942c.018.779.228 1.38.629 1.805.401.424.953.636 1.654.636.789 0 1.513-.26 2.174-.78v1.053c-.615.446-1.429.67-2.44.67-.989 0-1.766-.317-2.331-.954-.565-.635-.848-1.53-.848-2.683 0-1.09.309-1.976.926-2.663.617-.685 1.384-1.028 2.301-1.028.916 0 1.624.296 2.125.889.502.592.752 1.415.752 2.467v.588zM224.823 338.223v-1.033c0-.555-.188-1.031-.564-1.428a1.858 1.858 0 00-1.405-.596c-.693 0-1.235.252-1.627.755-.392.505-.588 1.21-.588 2.117 0 .78.188 1.402.564 1.87.376.466.874.7 1.494.7.63 0 1.14-.224 1.535-.67.394-.445.591-1.018.591-1.715zm1.121 2.603c0 2.571-1.23 3.856-3.69 3.856-.867 0-1.624-.163-2.27-.492v-1.12c.788.437 1.54.656 2.255.656 1.723 0 2.584-.916 2.584-2.748v-.767h-.027c-.534.894-1.336 1.34-2.407 1.34-.87 0-1.57-.31-2.102-.933-.53-.623-.796-1.457-.796-2.505 0-1.19.286-2.135.858-2.837.572-.702 1.354-1.053 2.348-1.053.943 0 1.643.378 2.1 1.135h.026v-.97h1.121v6.439zM228.214 341.388h1.121v-7h-1.121v7zm.574-8.778a.71.71 0 01-.725-.724c0-.21.071-.384.212-.523a.706.706 0 01.513-.209.725.725 0 01.738.732c0 .2-.071.372-.215.512a.72.72 0 01-.523.212zM231.18 341.135v-1.203a3.32 3.32 0 002.018.677c.984 0 1.476-.328 1.476-.985a.86.86 0 00-.126-.475 1.302 1.302 0 00-.342-.345 2.697 2.697 0 00-.506-.271 45.652 45.652 0 00-.625-.25 7.944 7.944 0 01-.817-.371 2.51 2.51 0 01-.588-.423 1.594 1.594 0 01-.356-.538 1.895 1.895 0 01-.12-.704c0-.328.076-.618.226-.872.15-.252.35-.465.602-.635.25-.171.536-.3.858-.386.32-.086.653-.13.994-.13.606 0 1.149.104 1.627.314v1.135c-.515-.337-1.107-.506-1.777-.506-.21 0-.4.025-.567.072a1.371 1.371 0 00-.434.202.922.922 0 00-.281.31.818.818 0 00-.1.4.96.96 0 00.1.459c.066.123.163.232.29.328.128.095.283.18.466.259.182.079.389.163.622.253.31.119.588.24.834.367.246.125.455.265.629.423.173.157.306.338.399.543.094.206.14.45.14.732 0 .347-.076.647-.228.902a1.965 1.965 0 01-.612.636c-.256.168-.55.294-.882.376a4.356 4.356 0 01-1.046.123c-.72 0-1.344-.14-1.873-.417M240.792 341.32c-.264.145-.613.218-1.046.218-1.226 0-1.839-.684-1.839-2.05v-4.144h-1.203v-.957h1.203v-1.709l1.121-.362v2.071h1.764v.957h-1.764v3.945c0 .468.08.804.24 1.005.159.2.423.3.793.3.282 0 .526-.077.731-.232v.957zM245.94 335.522c-.196-.15-.48-.226-.849-.226-.478 0-.877.226-1.198.677-.322.451-.482 1.067-.482 1.846v3.568h-1.121v-7h1.12v1.443h.028c.16-.493.403-.876.73-1.153a1.673 1.673 0 011.101-.413c.292 0 .516.032.67.096v1.162zM253.288 334.388l-3.22 8.12c-.574 1.45-1.38 2.175-2.42 2.175-.29 0-.535-.03-.73-.09v-1.004c.241.082.461.123.662.123.565 0 .99-.337 1.271-1.011l.561-1.327-2.734-6.986h1.244l1.893 5.387c.023.068.071.246.144.533H250c.023-.11.068-.282.137-.52l1.99-5.4h1.161zM183.623 483.918c-.984.557-2.078.834-3.281.834-1.4 0-2.531-.451-3.394-1.354-.864-.902-1.296-2.095-1.296-3.582 0-1.517.48-2.762 1.439-3.736.96-.973 2.175-1.46 3.647-1.46 1.067 0 1.962.175 2.687.52v1.272c-.793-.502-1.732-.752-2.817-.752-1.098 0-1.998.379-2.7 1.135-.702.756-1.053 1.736-1.053 2.939 0 1.24.326 2.214.978 2.922.65.709 1.536 1.064 2.652 1.064.766 0 1.429-.154 1.99-.458v-2.748h-2.147v-1.04h3.295v4.444zM187.047 475.824v4.02h1.203c.793 0 1.398-.182 1.815-.543.417-.364.626-.875.626-1.536 0-1.295-.766-1.94-2.297-1.94h-1.347zm0 5.06v3.704H185.9v-9.803h2.693c1.048 0 1.86.256 2.437.766.577.51.865 1.23.865 2.16 0 .93-.32 1.691-.96 2.283-.64.592-1.506.89-2.595.89h-1.292zM200.91 480.623c0 2.752-1.241 4.129-3.725 4.129-2.378 0-3.568-1.324-3.568-3.972v-5.995h1.148v5.92c0 2.01.848 3.015 2.543 3.015 1.636 0 2.455-.971 2.455-2.912v-6.023h1.148v5.838zM208.341 475.824v7.725h1.463c1.285 0 2.285-.344 3.001-1.033.715-.688 1.073-1.663 1.073-2.925 0-2.51-1.335-3.767-4.006-3.767h-1.53zm-1.148 8.764v-9.803h2.707c3.454 0 5.181 1.593 5.181 4.778 0 1.513-.479 2.73-1.439 3.648-.959.918-2.243 1.377-3.852 1.377h-2.597zM220.749 481.047l-1.689.232c-.52.073-.911.202-1.175.387-.266.184-.397.512-.397.98 0 .342.121.622.365.839.244.215.569.324.974.324.556 0 1.016-.196 1.379-.584.362-.391.543-.883.543-1.481v-.697zm1.12 3.54h-1.12v-1.093h-.028c-.488.838-1.206 1.258-2.154 1.258-.697 0-1.243-.184-1.637-.554-.394-.37-.59-.858-.59-1.47 0-1.308.77-2.068 2.31-2.283l2.099-.294c0-1.19-.481-1.784-1.442-1.784-.844 0-1.605.287-2.284.862v-1.15c.688-.436 1.48-.655 2.379-.655 1.645 0 2.468.87 2.468 2.61v4.554zM227.229 484.52c-.265.145-.613.218-1.046.218-1.226 0-1.839-.684-1.839-2.05v-4.144h-1.203v-.957h1.203v-1.709l1.121-.362v2.071h1.764v.957h-1.764v3.945c0 .47.08.803.24 1.005.159.201.423.3.793.3.282 0 .526-.078.731-.232v.957zM232.616 481.047l-1.688.232c-.52.073-.912.202-1.176.387-.265.184-.397.512-.397.98 0 .342.122.622.366.839.244.215.568.324.974.324.556 0 1.015-.196 1.378-.584.362-.391.543-.883.543-1.481v-.697zm1.12 3.54h-1.12v-1.093h-.027c-.488.838-1.206 1.258-2.154 1.258-.697 0-1.243-.184-1.637-.554-.394-.37-.591-.858-.591-1.47 0-1.308.77-2.068 2.31-2.283l2.099-.294c0-1.19-.481-1.784-1.442-1.784-.844 0-1.605.287-2.284.862v-1.15c.688-.436 1.48-.655 2.379-.655 1.645 0 2.468.87 2.468 2.61v4.554zM239.376 484.191v-1.354c.155.137.341.26.558.37.215.11.444.201.684.277a5.6 5.6 0 00.72.174c.242.041.466.061.67.061.706 0 1.234-.13 1.582-.393.35-.262.523-.639.523-1.13 0-.265-.058-.495-.173-.692a1.948 1.948 0 00-.482-.536 4.766 4.766 0 00-.728-.465c-.28-.148-.582-.304-.906-.468a15.48 15.48 0 01-.958-.527 4.136 4.136 0 01-.772-.588 2.437 2.437 0 01-.516-.727 2.25 2.25 0 01-.188-.954c0-.446.098-.835.295-1.165.195-.33.452-.604.772-.818a3.517 3.517 0 011.09-.478 4.987 4.987 0 011.248-.157c.966 0 1.67.116 2.112.348v1.292c-.58-.4-1.323-.6-2.228-.6-.251 0-.502.025-.752.077a2.149 2.149 0 00-.67.257c-.197.118-.357.27-.48.458a1.214 1.214 0 00-.183.683c0 .25.047.467.14.65.093.182.23.348.413.5.183.15.405.296.667.436.262.141.564.297.906.465.35.174.683.356.998.547.314.191.59.403.827.636.237.232.425.49.564.772.138.283.207.606.207.971 0 .482-.094.892-.282 1.226a2.328 2.328 0 01-.766.818c-.322.21-.692.361-1.112.454a6.043 6.043 0 01-1.326.141c-.155 0-.347-.013-.574-.038a8.095 8.095 0 01-.696-.109 5.807 5.807 0 01-.674-.178 2.116 2.116 0 01-.51-.236M251.893 484.267c-.538.322-1.176.485-1.914.485-.998 0-1.804-.325-2.417-.975-.612-.649-.919-1.49-.919-2.525 0-1.153.33-2.08.991-2.78.661-.698 1.543-1.048 2.646-1.048.615 0 1.157.114 1.627.341v1.149a2.849 2.849 0 00-1.668-.546c-.716 0-1.303.255-1.76.769-.459.512-.688 1.185-.688 2.02 0 .82.216 1.466.646 1.94.431.476 1.01.712 1.733.712.611 0 1.185-.204 1.723-.609v1.067zM253.588 484.588h1.121v-7h-1.121v7zm.575-8.778a.709.709 0 01-.513-.205.688.688 0 01-.212-.519c0-.209.07-.384.212-.524a.707.707 0 01.513-.208c.205 0 .379.07.523.208.143.14.215.315.215.524a.696.696 0 01-.215.513.72.72 0 01-.523.211zM261.457 480.418c-.005-.646-.161-1.15-.469-1.511-.308-.36-.735-.54-1.281-.54-.53 0-.978.19-1.347.568-.37.378-.598.872-.684 1.483h3.78zm1.147.95h-4.941c.017.779.227 1.38.628 1.805.401.424.952.636 1.654.636.788 0 1.514-.26 2.175-.78v1.053c-.615.447-1.43.67-2.44.67-.99 0-1.767-.318-2.332-.953-.565-.637-.848-1.531-.848-2.684 0-1.09.31-1.976.926-2.662.619-.686 1.385-1.03 2.302-1.03.916 0 1.623.298 2.125.89.5.59.751 1.415.751 2.467v.588zM270.11 484.588h-1.12v-3.992c0-1.487-.543-2.23-1.627-2.23-.561 0-1.024.212-1.391.634-.367.42-.55.953-.55 1.596v3.992H264.3v-7h1.122v1.162h.027c.528-.885 1.294-1.326 2.297-1.326.765 0 1.35.247 1.757.742.405.494.608 1.209.608 2.143v4.279zM276.995 484.267c-.538.322-1.176.485-1.914.485-.998 0-1.804-.325-2.417-.975-.612-.649-.92-1.49-.92-2.525 0-1.153.33-2.08.992-2.78.66-.698 1.543-1.048 2.646-1.048.615 0 1.157.114 1.627.341v1.149a2.849 2.849 0 00-1.668-.546c-.716 0-1.303.255-1.761.769-.458.512-.687 1.185-.687 2.02 0 .82.216 1.466.646 1.94.43.476 1.009.712 1.733.712.61 0 1.185-.204 1.723-.609v1.067zM283.168 480.418c-.005-.646-.161-1.15-.469-1.511-.308-.36-.735-.54-1.281-.54-.53 0-.978.19-1.348.568-.368.378-.596.872-.683 1.483h3.78zm1.147.95h-4.942c.019.779.228 1.38.63 1.805.4.424.952.636 1.654.636.788 0 1.513-.26 2.173-.78v1.053c-.614.447-1.428.67-2.44.67-.99 0-1.765-.318-2.33-.953-.567-.637-.849-1.531-.849-2.684 0-1.09.31-1.976.926-2.662.618-.686 1.385-1.03 2.301-1.03.916 0 1.625.298 2.125.89.502.59.752 1.415.752 2.467v.588zM189.97 491.585l-3.63 9.803h-1.265l-3.554-9.803h1.278l2.714 7.772c.086.25.153.54.198.869h.028c.036-.274.11-.568.225-.882l2.769-7.76h1.237zM191.228 501.388h1.121v-7h-1.121v7zm.574-8.778a.709.709 0 01-.513-.205.692.692 0 01-.212-.519c0-.21.071-.384.212-.523a.704.704 0 01.513-.209.725.725 0 01.738.732c0 .2-.072.372-.215.512a.72.72 0 01-.523.212zM198.269 495.522c-.196-.15-.48-.226-.848-.226-.478 0-.878.226-1.2.677-.321.451-.481 1.067-.481 1.846v3.568h-1.121v-7h1.12v1.443h.028c.16-.493.403-.876.73-1.153a1.673 1.673 0 011.102-.413c.292 0 .515.032.67.096v1.162zM203.136 501.32c-.264.145-.613.218-1.046.218-1.226 0-1.84-.684-1.84-2.05v-4.144h-1.202v-.957h1.203v-1.709l1.12-.362v2.071h1.765v.957h-1.764v3.945c0 .468.08.804.24 1.005.159.2.423.3.793.3.282 0 .526-.077.73-.232v.957zM210.293 501.388h-1.121v-1.107h-.027c-.465.847-1.185 1.27-2.161 1.27-1.668 0-2.502-.992-2.502-2.98v-4.183h1.115v4.006c0 1.476.565 2.215 1.695 2.215.547 0 .997-.202 1.35-.605.353-.404.53-.931.53-1.583v-4.033h1.121v7zM216.445 497.847l-1.688.232c-.52.074-.912.203-1.176.386-.264.186-.397.512-.397.982 0 .34.122.62.366.837.244.216.568.325.974.325.556 0 1.015-.195 1.378-.585.362-.39.543-.883.543-1.48v-.697zm1.121 3.54h-1.12v-1.093h-.028c-.488.839-1.206 1.258-2.154 1.258-.697 0-1.243-.184-1.637-.554-.394-.37-.59-.86-.59-1.47 0-1.307.77-2.07 2.31-2.283l2.098-.294c0-1.19-.48-1.784-1.442-1.784-.844 0-1.604.287-2.284.862v-1.15c.688-.436 1.481-.655 2.38-.655 1.644 0 2.467.87 2.467 2.61v4.554zM219.679 501.388h1.121v-10.363h-1.121zM237.049 501.388h-1.142v-6.576c0-.52.032-1.155.096-1.907h-.027c-.11.44-.208.758-.294.95l-3.35 7.533h-.56l-3.343-7.48c-.096-.217-.194-.552-.294-1.003h-.027c.036.392.054 1.032.054 1.92v6.563h-1.107v-9.803h1.517l3.008 6.836c.233.525.383.916.45 1.176h.042c.196-.538.353-.938.472-1.203l3.069-6.81h1.436v9.804zM243.365 497.847l-1.688.232c-.52.074-.912.203-1.176.386-.264.186-.397.512-.397.982 0 .34.122.62.366.837.244.216.568.325.974.325.556 0 1.015-.195 1.378-.585.362-.39.543-.883.543-1.48v-.697zm1.121 3.54h-1.12v-1.093h-.028c-.488.839-1.206 1.258-2.154 1.258-.697 0-1.243-.184-1.637-.554-.394-.37-.59-.86-.59-1.47 0-1.307.77-2.07 2.31-2.283l2.098-.294c0-1.19-.48-1.784-1.442-1.784-.844 0-1.604.287-2.284.862v-1.15c.688-.436 1.481-.655 2.38-.655 1.644 0 2.467.87 2.467 2.61v4.554zM251.37 501.066c-.538.324-1.176.485-1.914.485-.998 0-1.804-.325-2.417-.973-.613-.65-.919-1.492-.919-2.527 0-1.153.331-2.079.991-2.778.661-.7 1.543-1.05 2.646-1.05.615 0 1.157.114 1.627.342v1.148c-.52-.364-1.076-.546-1.668-.546-.716 0-1.303.256-1.76.768-.459.514-.688 1.187-.688 2.021 0 .82.216 1.467.646 1.941.431.474 1.01.711 1.733.711.611 0 1.185-.202 1.723-.608v1.066zM258.876 501.388h-1.121v-4.033c0-1.458-.543-2.188-1.627-2.188-.547 0-1.007.21-1.381.632-.373.422-.56.963-.56 1.624v3.965h-1.122v-10.363h1.122v4.525h.027c.537-.884 1.303-1.326 2.297-1.326 1.576 0 2.365.95 2.365 2.85v4.314zM260.988 501.388h1.121v-7h-1.121v7zm.574-8.778a.708.708 0 01-.512-.205.692.692 0 01-.212-.519c0-.21.071-.384.212-.523a.703.703 0 01.512-.209c.206 0 .38.07.523.209a.696.696 0 01.216.523.69.69 0 01-.216.512.717.717 0 01-.523.212zM270.19 501.388h-1.122v-3.992c0-1.486-.542-2.23-1.626-2.23-.562 0-1.024.212-1.392.633-.367.422-.55.954-.55 1.597v3.992h-1.122v-7h1.123v1.162h.026c.53-.884 1.295-1.326 2.298-1.326.764 0 1.35.247 1.757.74.404.496.608 1.21.608 2.145v4.279zM276.78 497.218c-.005-.647-.162-1.151-.469-1.511-.308-.36-.735-.54-1.282-.54-.529 0-.978.189-1.347.568-.369.379-.597.873-.683 1.483h3.78zm1.147.95h-4.942c.018.779.228 1.38.63 1.805.4.424.952.636 1.653.636.79 0 1.513-.26 2.174-.78v1.053c-.615.446-1.429.67-2.44.67-.989 0-1.766-.317-2.33-.954-.566-.635-.849-1.53-.849-2.683 0-1.09.31-1.976.926-2.663.617-.685 1.384-1.028 2.301-1.028.916 0 1.624.296 2.125.889.502.592.752 1.415.752 2.467v.588zM6.036 480.308l-1.538-4.178a3.98 3.98 0 01-.15-.656H4.32a3.665 3.665 0 01-.157.656l-1.524 4.178h3.397zm2.687 3.78H7.451l-1.039-2.749H2.256l-.978 2.748H0l3.76-9.801h1.19l3.773 9.801zM14.896 477.41l-4.144 5.721h4.102v.957H9.107v-.349l4.143-5.694H9.495v-.957h5.4zM22.005 484.088h-1.121v-1.107h-.027c-.465.847-1.185 1.27-2.161 1.27-1.668 0-2.502-.993-2.502-2.98v-4.183h1.115v4.006c0 1.476.565 2.215 1.695 2.215a1.71 1.71 0 001.35-.606c.353-.402.53-.93.53-1.582v-4.033h1.12v7zM27.918 478.223c-.196-.15-.479-.226-.848-.226-.478 0-.878.226-1.199.676-.322.452-.482 1.067-.482 1.846v3.568h-1.121v-7h1.121v1.444h.027c.16-.493.403-.877.731-1.153a1.669 1.669 0 011.101-.413c.292 0 .515.03.67.096v1.162zM33.428 479.918c-.004-.646-.161-1.15-.468-1.511-.308-.36-.735-.54-1.282-.54-.53 0-.978.19-1.347.568-.37.378-.597.872-.683 1.483h3.78zm1.148.95h-4.942c.018.779.228 1.38.629 1.805.4.424.953.636 1.654.636.789 0 1.513-.26 2.174-.78v1.053c-.615.447-1.43.67-2.44.67-.99 0-1.766-.318-2.331-.953-.565-.637-.848-1.531-.848-2.684 0-1.09.309-1.976.926-2.662.617-.686 1.384-1.03 2.3-1.03.917 0 1.625.298 2.126.89.502.59.752 1.415.752 2.467v.588zM41.405 479.521v3.527h1.56c.673 0 1.196-.16 1.567-.478.372-.319.558-.756.558-1.313 0-1.158-.789-1.736-2.366-1.736h-1.319zm0-4.197v3.165h1.176c.63 0 1.123-.152 1.483-.454.36-.304.54-.73.54-1.283 0-.952-.626-1.428-1.88-1.428h-1.319zm-1.148 8.763v-9.802h2.79c.846 0 1.52.207 2.015.622.497.415.745.954.745 1.62 0 .556-.15 1.04-.45 1.45-.302.41-.716.7-1.245.874v.027c.661.08 1.19.328 1.586.748.396.422.595.971.595 1.645 0 .838-.3 1.518-.903 2.037-.6.52-1.36.78-2.276.78h-2.857zM48.132 484.088h1.121v-10.363h-1.121zM54.53 477.867c-.72 0-1.29.245-1.709.734-.419.491-.629 1.166-.629 2.028 0 .83.212 1.483.636 1.962.424.478.991.717 1.702.717.725 0 1.282-.234 1.671-.704.39-.469.585-1.137.585-2.003 0-.875-.195-1.548-.585-2.023-.389-.475-.946-.71-1.67-.71m-.083 6.384c-1.035 0-1.86-.327-2.478-.98-.618-.655-.926-1.522-.926-2.602 0-1.176.321-2.094.964-2.755.642-.66 1.51-.99 2.604-.99 1.043 0 1.858.32 2.444.963.585.642.878 1.534.878 2.672 0 1.118-.316 2.011-.946 2.684-.632.672-1.478 1.008-2.54 1.008M60.847 480.253v.978c0 .578.188 1.07.564 1.472.376.404.853.606 1.432.606.679 0 1.21-.26 1.596-.78.385-.52.578-1.242.578-2.167 0-.78-.18-1.39-.54-1.832-.36-.442-.848-.663-1.463-.663-.652 0-1.176.227-1.572.68-.397.454-.595 1.022-.595 1.706m.027 2.823h-.027v1.012h-1.121v-10.363h1.12v4.593h.028c.552-.93 1.358-1.394 2.42-1.394.898 0 1.6.313 2.109.939.508.627.762 1.467.762 2.52 0 1.172-.284 2.109-.854 2.812-.57.705-1.35 1.057-2.338 1.057-.925 0-1.625-.393-2.1-1.176M71.483 483.691v-1.354c.155.137.34.26.557.37.216.11.444.201.684.277a5.6 5.6 0 00.721.174c.242.041.465.061.67.061.706 0 1.234-.13 1.582-.393.35-.262.523-.639.523-1.13 0-.265-.058-.495-.174-.692a1.948 1.948 0 00-.482-.536 4.766 4.766 0 00-.728-.465c-.28-.148-.582-.304-.906-.468-.342-.174-.66-.349-.957-.527a4.136 4.136 0 01-.772-.588 2.437 2.437 0 01-.516-.727 2.25 2.25 0 01-.188-.954c0-.446.098-.835.294-1.165.195-.33.453-.604.772-.818a3.507 3.507 0 011.09-.478 4.987 4.987 0 011.248-.157c.966 0 1.67.116 2.112.348v1.292c-.578-.4-1.322-.6-2.228-.6-.25 0-.502.025-.752.077a2.149 2.149 0 00-.67.257c-.196.118-.356.27-.479.458a1.214 1.214 0 00-.184.683c0 .25.046.467.14.65.093.182.231.348.414.5.182.15.404.296.666.436.262.141.564.297.906.465.351.174.683.356.998.547.314.191.59.403.827.636.237.232.425.49.564.772.14.283.208.606.208.971 0 .482-.094.892-.283 1.226-.19.336-.445.608-.766.818-.32.21-.69.361-1.11.454a6.043 6.043 0 01-1.327.141c-.155 0-.346-.013-.574-.038a8.095 8.095 0 01-.697-.109 5.86 5.86 0 01-.674-.178 2.116 2.116 0 01-.509-.236M82.024 484.02c-.264.145-.613.218-1.046.218-1.226 0-1.839-.684-1.839-2.05v-4.144h-1.203v-.957h1.203v-1.709l1.121-.362v2.071h1.764v.957H80.26v3.945c0 .47.08.803.24 1.005.16.201.423.3.793.3.282 0 .526-.078.731-.232v.957zM86.42 477.867c-.72 0-1.29.245-1.71.734-.418.491-.628 1.166-.628 2.028 0 .83.212 1.483.636 1.962.424.478.99.717 1.702.717.725 0 1.282-.234 1.67-.704.39-.469.586-1.137.586-2.003 0-.875-.195-1.548-.585-2.023-.39-.475-.946-.71-1.671-.71m-.082 6.384c-1.035 0-1.861-.327-2.478-.98-.618-.655-.926-1.522-.926-2.602 0-1.176.32-2.094.964-2.755.642-.66 1.51-.99 2.604-.99 1.043 0 1.858.32 2.444.963.585.642.878 1.534.878 2.672 0 1.118-.316 2.011-.946 2.684-.632.672-1.478 1.008-2.54 1.008M95.266 478.223c-.196-.15-.48-.226-.848-.226-.478 0-.878.226-1.2.676-.321.452-.481 1.067-.481 1.846v3.568h-1.121v-7h1.12v1.444h.028c.16-.493.403-.877.73-1.153a1.669 1.669 0 011.102-.413c.292 0 .515.03.67.096v1.162zM100.372 480.547l-1.688.232c-.52.073-.912.202-1.176.387-.264.184-.397.512-.397.98 0 .342.122.622.366.839.244.215.568.324.974.324.556 0 1.015-.196 1.378-.584.362-.391.543-.883.543-1.481v-.697zm1.121 3.54h-1.12v-1.093h-.028c-.488.838-1.206 1.258-2.154 1.258-.697 0-1.243-.184-1.637-.554-.394-.37-.59-.858-.59-1.47 0-1.308.77-2.068 2.31-2.283l2.098-.294c0-1.19-.48-1.784-1.442-1.784-.844 0-1.604.287-2.284.862v-1.15c.688-.436 1.481-.655 2.38-.655 1.644 0 2.467.87 2.467 2.61v4.554zM108.459 480.923v-1.032c0-.557-.188-1.032-.564-1.43a1.858 1.858 0 00-1.405-.594c-.693 0-1.235.252-1.627.756-.392.503-.588 1.209-.588 2.115 0 .78.188 1.403.564 1.87.376.467.874.7 1.494.7.629 0 1.14-.222 1.535-.67.394-.446.591-1.018.591-1.715zm1.121 2.604c0 2.57-1.23 3.856-3.691 3.856-.866 0-1.623-.164-2.27-.492v-1.121c.789.437 1.541.656 2.256.656 1.723 0 2.584-.916 2.584-2.748v-.766h-.027c-.534.893-1.336 1.34-2.407 1.34-.87 0-1.571-.31-2.102-.933-.531-.622-.796-1.458-.796-2.505 0-1.19.286-2.136.858-2.837.572-.701 1.354-1.053 2.348-1.053.943 0 1.643.379 2.099 1.135h.027v-.971h1.121v6.439zM116.327 479.918c-.004-.646-.16-1.15-.468-1.511-.308-.36-.735-.54-1.282-.54-.529 0-.978.19-1.347.568-.369.378-.597.872-.683 1.483h3.78zm1.148.95h-4.942c.018.779.228 1.38.63 1.805.4.424.952.636 1.653.636.79 0 1.513-.26 2.174-.78v1.053c-.615.447-1.429.67-2.44.67-.989 0-1.766-.318-2.33-.953-.566-.637-.849-1.531-.849-2.684 0-1.09.31-1.976.926-2.662.617-.686 1.384-1.03 2.301-1.03.916 0 1.624.298 2.125.89.502.59.752 1.415.752 2.467v.588zM537.24 322.588h-1.142v-6.576c0-.52.033-1.155.096-1.907h-.027c-.11.442-.208.758-.294.95l-3.35 7.533h-.56l-3.343-7.48c-.096-.217-.194-.552-.294-1.003h-.027c.036.39.054 1.032.054 1.92v6.563h-1.107v-9.803h1.517l3.008 6.836c.233.524.383.916.45 1.176h.042c.196-.537.354-.94.472-1.203l3.069-6.81h1.436v9.804zM543.556 319.047l-1.688.232c-.52.073-.912.202-1.176.387-.265.184-.397.512-.397.98 0 .342.122.622.366.839.244.215.57.324.974.324.556 0 1.015-.196 1.378-.584.361-.391.543-.883.543-1.481v-.697zm1.121 3.54h-1.12v-1.093h-.028c-.489.838-1.205 1.258-2.154 1.258-.697 0-1.243-.184-1.637-.554-.394-.37-.59-.858-.59-1.47 0-1.308.77-2.068 2.31-2.283l2.098-.294c0-1.19-.48-1.784-1.442-1.784-.843 0-1.605.287-2.284.862v-1.15c.69-.436 1.482-.655 2.38-.655 1.645 0 2.467.87 2.467 2.61v4.554zM551.561 322.267c-.538.322-1.176.485-1.914.485-.998 0-1.804-.325-2.417-.975-.612-.649-.919-1.49-.919-2.525 0-1.153.33-2.08.991-2.78.66-.698 1.543-1.048 2.646-1.048.615 0 1.157.114 1.627.341v1.149a2.849 2.849 0 00-1.668-.546c-.716 0-1.302.255-1.761.769-.457.512-.687 1.185-.687 2.02 0 .82.216 1.466.646 1.94.432.476 1.009.712 1.733.712.611 0 1.185-.204 1.723-.609v1.067zM559.067 322.588h-1.121v-4.033c0-1.46-.542-2.188-1.627-2.188-.547 0-1.007.21-1.381.633-.374.42-.56.963-.56 1.623v3.965h-1.122v-10.363h1.122v4.525h.027c.538-.885 1.304-1.326 2.297-1.326 1.577 0 2.365.95 2.365 2.85v4.314zM561.179 322.588h1.121v-7h-1.121v7zm.574-8.778a.706.706 0 01-.512-.205.688.688 0 01-.212-.519c0-.209.07-.384.212-.524a.705.705 0 01.512-.208c.205 0 .379.07.524.208.142.14.215.315.215.524a.7.7 0 01-.215.513.723.723 0 01-.524.211zM570.38 322.588h-1.12v-3.992c0-1.487-.544-2.23-1.628-2.23-.56 0-1.024.212-1.39.634-.368.42-.55.953-.55 1.596v3.992h-1.123v-7h1.122v1.162h.027c.528-.885 1.294-1.326 2.297-1.326.765 0 1.351.247 1.757.742.405.494.608 1.209.608 2.143v4.279zM576.97 318.418c-.005-.646-.16-1.15-.469-1.511-.306-.36-.734-.54-1.28-.54-.53 0-.979.19-1.348.568-.369.378-.596.872-.683 1.483h3.78zm1.148.95h-4.942c.02.779.228 1.38.63 1.805.4.424.951.636 1.653.636.788 0 1.513-.26 2.174-.78v1.053c-.615.447-1.429.67-2.44.67-.99 0-1.766-.318-2.33-.953-.567-.637-.849-1.531-.849-2.684 0-1.09.31-1.976.927-2.662.617-.686 1.383-1.03 2.3-1.03.916 0 1.624.298 2.125.89.501.59.752 1.415.752 2.467v.588zM588.885 322.588H583.8v-9.803h1.148v8.764h3.938zM594.716 318.418c-.005-.646-.16-1.15-.469-1.511-.306-.36-.734-.54-1.28-.54-.53 0-.979.19-1.348.568-.369.378-.596.872-.683 1.483h3.78zm1.148.95h-4.942c.02.779.228 1.38.63 1.805.4.424.951.636 1.653.636.788 0 1.513-.26 2.174-.78v1.053c-.615.447-1.429.67-2.44.67-.99 0-1.766-.318-2.33-.953-.567-.637-.849-1.531-.849-2.684 0-1.09.31-1.976.927-2.662.617-.686 1.383-1.03 2.3-1.03.916 0 1.624.298 2.125.89.501.59.752 1.415.752 2.467v.588zM601.45 319.047l-1.688.232c-.52.073-.913.202-1.176.387-.265.184-.397.512-.397.98 0 .342.122.622.365.839.245.215.569.324.975.324.556 0 1.016-.196 1.377-.584.363-.391.544-.883.544-1.481v-.697zm1.12 3.54h-1.12v-1.093h-.027c-.488.838-1.206 1.258-2.154 1.258-.697 0-1.243-.184-1.636-.554-.395-.37-.592-.858-.592-1.47 0-1.308.769-2.068 2.31-2.283l2.099-.294c0-1.19-.481-1.784-1.442-1.784-.844 0-1.605.287-2.284.862v-1.15c.688-.436 1.48-.655 2.379-.655 1.645 0 2.468.87 2.468 2.61v4.554zM608.333 316.723c-.195-.15-.478-.226-.847-.226-.478 0-.88.226-1.2.676-.321.452-.481 1.067-.481 1.846v3.568h-1.121v-7h1.12v1.444h.028c.159-.493.403-.877.73-1.153a1.669 1.669 0 011.101-.413c.292 0 .515.03.67.096v1.162zM615.333 322.588h-1.12v-3.992c0-1.487-.543-2.23-1.627-2.23-.562 0-1.024.212-1.392.634-.366.42-.55.953-.55 1.596v3.992h-1.121v-7h1.121v1.162h.028c.527-.885 1.293-1.326 2.296-1.326.766 0 1.351.247 1.758.742.404.494.607 1.209.607 2.143v4.279zM617.446 322.588h1.121v-7h-1.121v7zm.574-8.778a.71.71 0 01-.725-.724.71.71 0 01.212-.524.709.709 0 01.513-.208c.205 0 .38.07.522.208.145.14.216.315.216.524a.69.69 0 01-.216.513.714.714 0 01-.522.211zM626.647 322.588h-1.121v-3.992c0-1.487-.542-2.23-1.627-2.23-.561 0-1.024.212-1.392.634-.366.42-.549.953-.549 1.596v3.992h-1.122v-7h1.122v1.162h.027c.528-.885 1.294-1.326 2.297-1.326.765 0 1.35.247 1.757.742.405.494.608 1.209.608 2.143v4.279zM633.613 319.423v-1.032c0-.557-.187-1.032-.564-1.43a1.857 1.857 0 00-1.405-.594c-.693 0-1.235.252-1.627.756-.392.503-.588 1.209-.588 2.115 0 .78.188 1.403.565 1.87.375.467.873.7 1.493.7.629 0 1.14-.222 1.534-.67.395-.446.592-1.018.592-1.715zm1.12 2.604c0 2.57-1.23 3.856-3.69 3.856-.867 0-1.623-.164-2.27-.492v-1.121c.788.437 1.54.656 2.256.656 1.723 0 2.584-.916 2.584-2.748v-.766h-.027c-.534.893-1.336 1.34-2.407 1.34-.871 0-1.571-.31-2.101-.933-.531-.622-.797-1.458-.797-2.505 0-1.19.286-2.136.857-2.837.573-.701 1.356-1.053 2.349-1.053.943 0 1.643.379 2.099 1.135h.027v-.971h1.12v6.439zM574.246 339.388h-1.141v-6.576c0-.52.032-1.155.096-1.907h-.027c-.11.44-.208.758-.295.95l-3.35 7.533h-.56l-3.342-7.48c-.096-.217-.194-.552-.295-1.003h-.027c.037.392.054 1.032.054 1.92v6.563h-1.107v-9.803h1.517l3.008 6.836c.233.525.383.916.45 1.176h.042c.197-.538.354-.938.473-1.203l3.068-6.81h1.436v9.804zM579.681 333.167c-.72 0-1.29.245-1.709.735-.42.49-.629 1.165-.629 2.027 0 .829.211 1.483.635 1.962.424.478.992.717 1.703.717.725 0 1.281-.235 1.671-.704.39-.468.585-1.136.585-2.003 0-.875-.195-1.55-.585-2.023-.39-.474-.946-.711-1.67-.711m-.083 6.385c-1.035 0-1.86-.327-2.479-.982-.617-.653-.925-1.52-.925-2.6 0-1.176.32-2.095.963-2.755.642-.66 1.511-.991 2.605-.991 1.043 0 1.857.32 2.443.964.586.642.88 1.533.88 2.672 0 1.117-.317 2.01-.948 2.683-.63.673-1.478 1.009-2.539 1.009M589.73 336.223v-1.033c0-.565-.187-1.043-.561-1.435-.374-.392-.847-.589-1.421-.589-.684 0-1.222.252-1.614.752-.392.502-.588 1.195-.588 2.079 0 .806.188 1.443.564 1.911.376.466.881.7 1.515.7.624 0 1.13-.226 1.52-.676.39-.452.585-1.023.585-1.71zm1.121 3.164h-1.121V338.2h-.027c-.52.901-1.323 1.352-2.407 1.352-.879 0-1.583-.313-2.109-.94-.526-.625-.789-1.48-.789-2.56 0-1.156.291-2.084.875-2.781.583-.697 1.359-1.046 2.33-1.046.962 0 1.662.377 2.1 1.135h.027v-4.334h1.121v10.363zM597.597 335.218c-.004-.647-.16-1.151-.468-1.511-.307-.36-.735-.54-1.282-.54-.528 0-.977.189-1.346.568-.369.379-.597.873-.683 1.483h3.78zm1.148.95h-4.94c.017.779.227 1.38.628 1.805.4.424.952.636 1.654.636.788 0 1.513-.26 2.174-.78v1.053c-.615.446-1.43.67-2.44.67-.99 0-1.767-.317-2.33-.954-.567-.635-.849-1.53-.849-2.683 0-1.09.31-1.976.926-2.663.617-.685 1.384-1.028 2.3-1.028.917 0 1.625.296 2.125.889.502.592.752 1.415.752 2.467v.588zM600.441 339.388h1.121v-10.363h-1.121zM561.435 477.574c0 1.162-.246 2.065-.738 2.711-.492.644-1.15.967-1.975.967-.383 0-.697-.055-.943-.164v-1.135c.246.178.564.267.957.267 1.034 0 1.551-.878 1.551-2.632v-6.303h1.148v6.29zM567.478 477.547l-1.687.232c-.52.073-.913.202-1.176.387-.265.184-.397.512-.397.98 0 .342.121.622.365.839.245.215.569.324.975.324.556 0 1.015-.196 1.377-.584.362-.391.543-.883.543-1.481v-.697zm1.121 3.54h-1.121v-1.093h-.027c-.488.838-1.205 1.258-2.153 1.258-.697 0-1.244-.184-1.637-.554-.395-.37-.591-.858-.591-1.47 0-1.308.769-2.068 2.31-2.283l2.098-.294c0-1.19-.48-1.784-1.441-1.784-.844 0-1.605.287-2.284.862v-1.15c.688-.436 1.481-.655 2.379-.655 1.645 0 2.467.87 2.467 2.61v4.554zM576.214 474.088l-2.789 7h-1.1l-2.652-7h1.23l1.778 5.086c.132.373.214.699.246.977h.027c.045-.35.118-.667.22-.95l1.858-5.113h1.182zM581.054 477.547l-1.687.232c-.52.073-.913.202-1.176.387-.265.184-.397.512-.397.98 0 .342.121.622.365.839.245.215.57.324.975.324.556 0 1.015-.196 1.377-.584.362-.391.543-.883.543-1.481v-.697zm1.121 3.54h-1.12v-1.093h-.028c-.488.838-1.205 1.258-2.153 1.258-.697 0-1.244-.184-1.637-.554-.395-.37-.59-.858-.59-1.47 0-1.308.768-2.068 2.31-2.283l2.097-.294c0-1.19-.48-1.784-1.44-1.784-.845 0-1.606.287-2.285.862v-1.15c.688-.436 1.481-.655 2.38-.655 1.644 0 2.466.87 2.466 2.61v4.554zM593.468 481.088h-5.195v-9.803h4.976v1.039h-3.828v3.26h3.541v1.033h-3.54v3.432h4.046zM601.18 472.324h-2.83v8.764h-1.15v-8.764h-2.822v-1.039h6.801zM607.804 481.088h-5.086v-9.803h1.148v8.764h3.938zM539.188 154.324v4.02h1.203c.793 0 1.398-.182 1.816-.544.416-.362.625-.874.625-1.535 0-1.294-.766-1.94-2.297-1.94h-1.347zm0 5.06v3.704h-1.148v-9.803h2.693c1.048 0 1.86.255 2.436.766.578.51.866 1.23.866 2.16 0 .93-.321 1.691-.961 2.283-.64.592-1.505.89-2.594.89h-1.292zM549.38 157.222c-.196-.15-.479-.226-.848-.226-.478 0-.879.226-1.199.677-.322.452-.482 1.067-.482 1.846v3.569h-1.12v-7h1.12v1.442h.027c.16-.493.403-.875.731-1.151a1.669 1.669 0 011.101-.415c.291 0 .515.032.67.096v1.162zM554.89 158.918c-.005-.647-.16-1.151-.469-1.511-.306-.36-.734-.54-1.28-.54-.53 0-.979.189-1.348.568-.369.378-.596.872-.683 1.483h3.78zm1.148.95h-4.942c.02.779.228 1.38.63 1.805.4.424.951.636 1.653.636.788 0 1.513-.26 2.174-.78v1.053c-.615.447-1.429.67-2.44.67-.99 0-1.766-.318-2.33-.954-.567-.635-.849-1.53-.849-2.683 0-1.09.31-1.976.927-2.662.617-.686 1.383-1.03 2.3-1.03.916 0 1.624.297 2.125.89.501.592.752 1.415.752 2.467v.588zM562.587 159.923v-1.032c0-.565-.187-1.044-.56-1.436-.375-.392-.848-.588-1.422-.588-.684 0-1.222.25-1.614.752-.392.502-.588 1.194-.588 2.078 0 .807.188 1.444.565 1.91.375.468.88.702 1.514.702.624 0 1.13-.226 1.521-.677.39-.451.584-1.021.584-1.71zm1.121 3.165h-1.12v-1.19h-.028c-.52.903-1.323 1.354-2.407 1.354-.879 0-1.582-.313-2.109-.94-.525-.626-.789-1.48-.789-2.56 0-1.158.291-2.085.875-2.782.583-.697 1.36-1.046 2.331-1.046.962 0 1.661.378 2.1 1.135h.026v-4.334h1.121v10.363zM565.978 163.088h1.121v-7h-1.121v7zm.574-8.778a.706.706 0 01-.512-.205.688.688 0 01-.212-.519.7.7 0 01.212-.523.702.702 0 01.512-.209.73.73 0 01.524.209.703.703 0 01.215.523.7.7 0 01-.215.513.723.723 0 01-.524.211zM574.14 162.767c-.538.323-1.176.484-1.914.484-.998 0-1.804-.323-2.416-.974-.613-.648-.92-1.49-.92-2.525 0-1.153.33-2.08.991-2.779.661-.7 1.542-1.05 2.646-1.05.615 0 1.157.114 1.627.343v1.148c-.52-.364-1.076-.546-1.668-.546-.716 0-1.303.256-1.76.769-.459.512-.688 1.185-.688 2.02 0 .82.215 1.466.647 1.94.43.474 1.008.712 1.732.712.611 0 1.185-.203 1.723-.608v1.066zM579.082 163.02c-.264.145-.612.218-1.045.218-1.226 0-1.84-.684-1.84-2.05v-4.144h-1.202v-.957h1.202v-1.709l1.121-.362v2.071h1.764v.957h-1.764v3.945c0 .47.08.804.24 1.005.16.2.423.3.793.3.283 0 .527-.077.731-.232v.957zM580.58 163.088h1.121v-7h-1.121v7zm.574-8.778a.71.71 0 01-.725-.724c0-.21.071-.384.212-.523a.706.706 0 01.513-.209.725.725 0 01.738.732.696.696 0 01-.215.513.72.72 0 01-.523.211zM589.473 156.088l-2.789 7h-1.1l-2.653-7h1.23l1.778 5.086c.132.373.214.7.246.977h.027c.045-.351.118-.667.22-.95l1.858-5.113h1.183zM595.072 158.918c-.005-.647-.16-1.151-.47-1.511-.305-.36-.733-.54-1.28-.54-.53 0-.978.189-1.347.568-.37.378-.596.872-.683 1.483h3.78zm1.148.95h-4.942c.019.779.228 1.38.629 1.805.4.424.952.636 1.654.636.788 0 1.513-.26 2.174-.78v1.053c-.615.447-1.43.67-2.44.67-.99 0-1.766-.318-2.331-.954-.566-.635-.848-1.53-.848-2.683 0-1.09.309-1.976.927-2.662.617-.686 1.383-1.03 2.3-1.03.916 0 1.624.297 2.125.89.5.592.752 1.415.752 2.467v.588zM613.522 153.285l-2.769 9.803h-1.346l-2.017-7.164a4.463 4.463 0 01-.157-.998h-.027a5.124 5.124 0 01-.178.984l-2.03 7.178h-1.333l-2.872-9.803h1.265l2.085 7.52c.087.314.142.642.164.984h.034c.023-.242.094-.57.212-.984l2.167-7.52h1.101l2.078 7.574c.073.26.128.565.164.916h.027c.019-.237.079-.551.185-.943l2.003-7.547h1.244zM618.97 158.918c-.005-.647-.16-1.151-.469-1.511-.306-.36-.734-.54-1.28-.54-.53 0-.979.189-1.348.568-.369.378-.596.872-.683 1.483h3.78zm1.148.95h-4.942c.02.779.228 1.38.63 1.805.4.424.951.636 1.653.636.788 0 1.513-.26 2.174-.78v1.053c-.615.447-1.429.67-2.44.67-.99 0-1.766-.318-2.33-.954-.567-.635-.849-1.53-.849-2.683 0-1.09.31-1.976.927-2.662.617-.686 1.383-1.03 2.3-1.03.916 0 1.624.297 2.125.89.501.592.752 1.415.752 2.467v.588zM622.935 159.253v.978c0 .578.187 1.069.564 1.473.375.403.853.605 1.432.605.68 0 1.211-.26 1.596-.78.386-.52.578-1.241.578-2.167 0-.78-.18-1.39-.54-1.832-.36-.442-.848-.663-1.463-.663-.65 0-1.176.227-1.572.68-.397.454-.595 1.022-.595 1.706m.027 2.823h-.027v1.012h-1.12v-10.363h1.12v4.593h.027c.551-.93 1.358-1.394 2.42-1.394.898 0 1.601.313 2.11.94.507.626.761 1.466.761 2.519 0 1.17-.285 2.109-.854 2.813-.569.704-1.349 1.056-2.338 1.056-.925 0-1.625-.392-2.099-1.176M553.957 176.107l-1.538-4.177a3.78 3.78 0 01-.15-.656h-.028a3.61 3.61 0 01-.158.656l-1.522 4.177h3.395zm2.688 3.78h-1.273l-1.038-2.748h-4.156l-.98 2.748h-1.276l3.76-9.802h1.188l3.774 9.802zM559.056 176.053v.978c0 .578.188 1.069.564 1.473.376.403.854.605 1.432.605.68 0 1.211-.26 1.597-.78.385-.52.577-1.241.577-2.167 0-.78-.18-1.39-.539-1.832-.36-.442-.848-.663-1.463-.663-.652 0-1.176.227-1.572.68-.397.454-.596 1.022-.596 1.706m.027 2.823h-.027v4.232h-1.12v-10.22h1.12v1.23h.027c.552-.93 1.36-1.394 2.42-1.394.903 0 1.608.313 2.114.94.505.626.757 1.466.757 2.519 0 1.17-.284 2.109-.853 2.813-.57.704-1.35 1.056-2.338 1.056-.907 0-1.607-.392-2.1-1.176M567.287 176.053v.978c0 .578.188 1.069.564 1.473.376.403.854.605 1.432.605.68 0 1.21-.26 1.597-.78.385-.52.577-1.241.577-2.167 0-.78-.18-1.39-.54-1.832-.36-.442-.847-.663-1.462-.663-.652 0-1.176.227-1.572.68-.397.454-.596 1.022-.596 1.706m.027 2.823h-.027v4.232h-1.121v-10.22h1.12v1.23h.028c.552-.93 1.359-1.394 2.42-1.394.903 0 1.608.313 2.114.94.505.626.757 1.466.757 2.519 0 1.17-.284 2.109-.853 2.813-.57.704-1.35 1.056-2.338 1.056-.907 0-1.607-.392-2.1-1.176M574.396 179.888h1.121v-10.363h-1.121zM577.787 179.888h1.121v-7h-1.121v7zm.574-8.778a.708.708 0 01-.512-.205.694.694 0 01-.213-.519c0-.21.072-.384.213-.523a.703.703 0 01.512-.209c.205 0 .38.07.523.209a.695.695 0 01.215.523.69.69 0 01-.215.512.718.718 0 01-.523.212zM585.949 179.566c-.537.324-1.176.485-1.914.485-.998 0-1.803-.324-2.416-.974-.613-.649-.92-1.49-.92-2.526 0-1.152.33-2.079.992-2.778.66-.7 1.542-1.05 2.645-1.05.615 0 1.158.114 1.627.342v1.148c-.52-.364-1.076-.546-1.668-.546-.715 0-1.302.256-1.76.77-.458.511-.688 1.185-.688 2.02 0 .82.216 1.466.647 1.94.43.474 1.008.711 1.732.711.612 0 1.186-.203 1.723-.608v1.066zM591.535 176.347l-1.69.232c-.52.073-.911.202-1.175.387-.264.184-.397.51-.397.98 0 .342.122.622.366.838.244.216.569.325.974.325.557 0 1.016-.195 1.378-.585.362-.39.544-.883.544-1.48v-.697zm1.12 3.54h-1.12v-1.093h-.027c-.49.839-1.206 1.258-2.155 1.258-.697 0-1.242-.184-1.636-.554-.395-.37-.592-.86-.592-1.47 0-1.307.77-2.068 2.31-2.283l2.1-.294c0-1.19-.481-1.784-1.443-1.784-.843 0-1.604.287-2.284.862v-1.15c.689-.436 1.482-.655 2.379-.655 1.646 0 2.469.87 2.469 2.61v4.554zM598.015 179.82c-.265.145-.613.218-1.047.218-1.225 0-1.838-.684-1.838-2.05v-4.144h-1.203v-.957h1.203v-1.709l1.121-.362v2.071h1.764v.957h-1.764v3.945c0 .47.08.804.24 1.005.16.2.422.3.792.3.283 0 .527-.077.732-.232v.957zM599.511 179.888h1.121v-7h-1.121v7zm.574-8.778a.704.704 0 01-.511-.205.69.69 0 01-.213-.519c0-.21.071-.384.213-.523a.7.7 0 01.511-.209.726.726 0 01.739.732c0 .2-.072.371-.215.512a.72.72 0 01-.524.212zM605.91 173.667c-.72 0-1.29.245-1.71.735-.418.49-.628 1.165-.628 2.027 0 .829.213 1.483.637 1.962.424.478.99.717 1.7.717.726 0 1.283-.234 1.673-.704.39-.47.584-1.137.584-2.003 0-.875-.194-1.55-.584-2.023-.39-.474-.947-.711-1.672-.711m-.082 6.385c-1.034 0-1.86-.327-2.478-.981-.618-.654-.926-1.521-.926-2.601 0-1.176.322-2.095.965-2.755.642-.661 1.509-.991 2.603-.991 1.044 0 1.858.32 2.444.964.585.642.878 1.533.878 2.672 0 1.117-.315 2.01-.946 2.683-.632.673-1.478 1.009-2.54 1.009M616.915 179.888h-1.12v-3.992c0-1.486-.542-2.23-1.627-2.23-.562 0-1.024.212-1.391.634-.368.42-.55.953-.55 1.596v3.992h-1.122v-7h1.121v1.162h.028c.529-.884 1.294-1.326 2.297-1.326.764 0 1.35.247 1.757.742.405.494.607 1.209.607 2.143v4.279zM531.003 12.67l-1.539-4.176a3.98 3.98 0 01-.15-.656h-.028a3.633 3.633 0 01-.156.656l-1.525 4.177h3.398zm2.686 3.78h-1.272l-1.039-2.747h-4.156l-.977 2.748h-1.279l3.76-9.802h1.19l3.773 9.802zM539.863 9.772l-4.143 5.722h4.102v.957h-5.75v-.349l4.143-5.694h-3.752v-.957h5.4zM546.972 16.451h-1.12v-1.107h-.028c-.465.847-1.186 1.271-2.16 1.271-1.669 0-2.503-.994-2.503-2.98V9.451h1.114v4.006c0 1.476.565 2.215 1.695 2.215.547 0 .997-.202 1.351-.605.352-.404.53-.93.53-1.583V9.451h1.121v7zM552.884 10.586c-.195-.15-.479-.226-.848-.226-.478 0-.878.226-1.199.677-.32.45-.482 1.067-.482 1.846v3.568h-1.12v-7h1.12v1.443h.027c.16-.493.404-.876.732-1.152a1.668 1.668 0 011.1-.414c.292 0 .516.032.67.096v1.162zM558.394 12.281c-.004-.647-.16-1.15-.468-1.51-.307-.36-.735-.54-1.282-.54-.528 0-.977.188-1.346.567-.369.378-.597.872-.683 1.483h3.779zm1.148.95h-4.941c.018.78.228 1.381.629 1.805.4.424.952.636 1.654.636.788 0 1.513-.26 2.174-.78v1.053c-.615.447-1.43.67-2.441.67-.989 0-1.766-.318-2.33-.954-.566-.635-.848-1.53-.848-2.683 0-1.089.309-1.976.926-2.662.617-.686 1.384-1.029 2.3-1.029.917 0 1.625.296 2.125.89.502.591.752 1.414.752 2.466v.588zM572.046 16.451h-1.6l-3.787-4.484a2.678 2.678 0 01-.259-.342h-.028v4.826h-1.148V6.648h1.148v4.608h.028c.063-.1.15-.212.26-.335l3.663-4.273h1.428l-4.203 4.703 4.498 5.1zM578.855 16.451h-1.121v-1.107h-.027c-.465.847-1.186 1.271-2.161 1.271-1.668 0-2.502-.994-2.502-2.98V9.451h1.114v4.006c0 1.476.565 2.215 1.695 2.215.547 0 .997-.202 1.351-.605.352-.404.53-.93.53-1.583V9.451h1.121v7zM582.238 12.616v.978c0 .578.188 1.07.564 1.473.376.403.854.605 1.432.605.68 0 1.21-.26 1.597-.78.385-.519.577-1.24.577-2.167 0-.779-.18-1.39-.54-1.832-.36-.442-.847-.663-1.462-.663-.652 0-1.176.227-1.572.68-.397.454-.596 1.022-.596 1.706m.027 2.823h-.027v1.012h-1.121V6.088h1.12v4.593h.028c.552-.929 1.359-1.394 2.42-1.394.899 0 1.602.313 2.11.94.507.626.76 1.466.76 2.52 0 1.17-.283 2.108-.852 2.812-.57.704-1.35 1.056-2.338 1.056-.926 0-1.625-.392-2.1-1.176M593.826 12.281c-.005-.647-.161-1.15-.47-1.51-.306-.36-.733-.54-1.28-.54a1.81 1.81 0 00-1.348.567c-.37.378-.596.872-.683 1.483h3.78zm1.148.95h-4.943c.019.78.229 1.381.629 1.805.4.424.953.636 1.654.636.789 0 1.514-.26 2.174-.78v1.053c-.615.447-1.428.67-2.44.67-.99 0-1.766-.318-2.331-.954-.565-.635-.848-1.53-.848-2.683 0-1.089.309-1.976.927-2.662.617-.686 1.384-1.029 2.3-1.029.916 0 1.625.296 2.126.89.5.591.752 1.414.752 2.466v.588zM600.32 10.586c-.196-.15-.48-.226-.848-.226-.478 0-.88.226-1.2.677-.321.45-.481 1.067-.481 1.846v3.568h-1.121v-7h1.12v1.443h.028c.159-.493.402-.876.73-1.152a1.667 1.667 0 011.102-.414c.29 0 .515.032.67.096v1.162zM607.32 16.451h-1.121V12.46c0-1.486-.543-2.229-1.627-2.229-.561 0-1.025.211-1.392.633-.367.421-.55.953-.55 1.596v3.992h-1.121v-7h1.122v1.162h.027c.528-.884 1.294-1.326 2.297-1.326.765 0 1.35.247 1.756.742.406.494.609 1.21.609 2.143v4.28zM613.91 12.281c-.005-.647-.161-1.15-.47-1.51-.306-.36-.733-.54-1.28-.54a1.81 1.81 0 00-1.348.567c-.37.378-.596.872-.683 1.483h3.78zm1.148.95h-4.943c.019.78.229 1.381.629 1.805.4.424.953.636 1.654.636.789 0 1.514-.26 2.174-.78v1.053c-.615.447-1.428.67-2.44.67-.99 0-1.766-.318-2.331-.954-.565-.635-.848-1.53-.848-2.683 0-1.089.309-1.976.927-2.662.617-.686 1.384-1.029 2.3-1.029.916 0 1.625.296 2.126.89.5.591.752 1.414.752 2.466v.588zM620 16.383c-.264.146-.612.219-1.045.219-1.226 0-1.84-.684-1.84-2.051v-4.143h-1.203V9.45h1.202V7.74l1.121-.361v2.07H620v.958h-1.764v3.945c0 .469.08.804.241 1.005.16.2.423.3.793.3.283 0 .525-.077.73-.232v.957zM625.865 12.281c-.004-.647-.16-1.15-.468-1.51-.307-.36-.735-.54-1.282-.54-.528 0-.977.188-1.346.567-.37.378-.597.872-.683 1.483h3.779zm1.148.95h-4.941c.018.78.228 1.381.629 1.805.4.424.952.636 1.654.636.788 0 1.513-.26 2.174-.78v1.053c-.615.447-1.43.67-2.441.67-.99 0-1.766-.318-2.33-.954-.566-.635-.848-1.53-.848-2.683 0-1.089.309-1.976.926-2.662.617-.686 1.384-1.029 2.3-1.029.917 0 1.625.296 2.125.89.502.591.752 1.414.752 2.466v.588zM628.285 16.198v-1.203a3.321 3.321 0 002.018.677c.984 0 1.476-.328 1.476-.985a.856.856 0 00-.127-.475 1.245 1.245 0 00-.342-.345c-.143-.1-.312-.19-.505-.27-.194-.08-.403-.163-.625-.25a8.067 8.067 0 01-.818-.372 2.483 2.483 0 01-.588-.424 1.563 1.563 0 01-.355-.537 1.89 1.89 0 01-.12-.704c0-.328.076-.618.226-.87.15-.254.35-.466.602-.637.25-.17.536-.3.857-.386.322-.087.653-.13.994-.13.607 0 1.149.105 1.627.314v1.135c-.514-.337-1.107-.506-1.777-.506-.21 0-.398.024-.566.072a1.377 1.377 0 00-.435.202.92.92 0 00-.28.311.808.808 0 00-.1.4c0 .182.033.335.1.458.066.123.163.232.29.328.128.095.283.182.466.26.18.077.388.161.62.252.31.12.589.241.835.366.246.126.456.267.629.424.173.157.306.338.4.543.094.206.14.45.14.732 0 .346-.077.647-.23.902a1.945 1.945 0 01-.611.636 2.816 2.816 0 01-.881.376 4.364 4.364 0 01-1.047.123c-.72 0-1.344-.139-1.873-.417M638.177 16.055V14.7c.154.137.34.26.557.37.216.109.444.2.683.276.24.076.48.134.721.175.242.04.465.06.67.06.707 0 1.234-.13 1.583-.392.348-.262.522-.64.522-1.131 0-.264-.057-.495-.174-.691a1.962 1.962 0 00-.482-.536 4.754 4.754 0 00-.727-.465 62.735 62.735 0 00-.906-.468 15.48 15.48 0 01-.957-.527 4.07 4.07 0 01-.773-.588 2.441 2.441 0 01-.516-.728 2.254 2.254 0 01-.187-.953c0-.447.097-.835.293-1.166.196-.33.454-.602.773-.817a3.496 3.496 0 011.09-.478 4.987 4.987 0 011.248-.157c.966 0 1.67.116 2.111.348v1.292c-.578-.401-1.32-.601-2.228-.601a3.7 3.7 0 00-.752.078c-.25.053-.474.138-.67.257a1.488 1.488 0 00-.479.458 1.214 1.214 0 00-.183.683c0 .25.046.468.14.65.092.182.231.348.413.499.182.15.404.296.667.437.261.14.563.297.905.465.351.173.683.356.998.547.314.19.591.403.828.636.236.232.424.489.563.772.14.283.208.606.208.97 0 .484-.093.893-.283 1.228a2.331 2.331 0 01-.765.817 3.354 3.354 0 01-1.112.454 6.043 6.043 0 01-1.326.14 5.45 5.45 0 01-.574-.037 8.156 8.156 0 01-.697-.11 5.646 5.646 0 01-.673-.177 2.116 2.116 0 01-.509-.236M650.4 12.281c-.005-.647-.161-1.15-.47-1.51-.306-.36-.733-.54-1.28-.54a1.81 1.81 0 00-1.348.567c-.37.378-.596.872-.683 1.483h3.78zm1.148.95h-4.943c.019.78.229 1.381.629 1.805.4.424.953.636 1.654.636.789 0 1.514-.26 2.174-.78v1.053c-.615.447-1.428.67-2.44.67-.99 0-1.766-.318-2.331-.954-.565-.635-.848-1.53-.848-2.683 0-1.089.309-1.976.927-2.662.617-.686 1.384-1.029 2.3-1.029.916 0 1.625.296 2.126.89.5.591.752 1.414.752 2.466v.588zM656.894 10.586c-.196-.15-.479-.226-.848-.226-.478 0-.879.226-1.2.677-.321.45-.481 1.067-.481 1.846v3.568h-1.121v-7h1.121v1.443h.027c.159-.493.402-.876.731-1.152a1.667 1.667 0 011.101-.414c.291 0 .515.032.67.096v1.162zM664.173 9.451l-2.789 7h-1.1l-2.652-7h1.23l1.778 5.086c.132.373.214.7.246.977h.027c.045-.35.118-.667.22-.95l1.858-5.113h1.182zM665.377 16.451h1.121v-7h-1.121v7zm.574-8.777a.71.71 0 01-.512-.205.691.691 0 01-.213-.52c0-.209.071-.384.213-.523a.7.7 0 01.512-.208.723.723 0 01.738.731.69.69 0 01-.215.513.718.718 0 01-.523.212zM673.539 16.13c-.537.324-1.176.485-1.914.485-.998 0-1.803-.324-2.416-.974-.613-.65-.92-1.491-.92-2.526 0-1.152.33-2.08.992-2.778.66-.7 1.542-1.05 2.645-1.05.615 0 1.158.114 1.627.342v1.148c-.52-.364-1.076-.546-1.668-.546-.715 0-1.302.256-1.76.769-.458.512-.688 1.186-.688 2.02 0 .82.216 1.467.647 1.94.43.475 1.008.712 1.732.712.612 0 1.186-.203 1.723-.608v1.066zM679.712 12.281c-.005-.647-.16-1.15-.469-1.51-.307-.36-.734-.54-1.28-.54a1.81 1.81 0 00-1.349.567c-.369.378-.596.872-.683 1.483h3.781zm1.148.95h-4.943c.02.78.23 1.381.63 1.805.4.424.952.636 1.653.636.79 0 1.514-.26 2.174-.78v1.053c-.615.447-1.428.67-2.439.67-.99 0-1.767-.318-2.332-.954-.565-.635-.848-1.53-.848-2.683 0-1.089.31-1.976.927-2.662.617-.686 1.384-1.029 2.3-1.029.916 0 1.625.296 2.126.89.501.591.752 1.414.752 2.466v.588z" fill="#525252"/>
        <path fill="#C0D658" d="M571.054 430.023h11.333v-3.334h-11.333zM571.054 434.801h11.333v-3.333h-11.333zM571.054 439.801h11.333v-3.333h-11.333z"/>
        <path d="M564.943 413.69c-1 0-1.89.888-1.89 1.888v31.334c0 1 .89 1.89 1.89 1.89h7.667v-4.668h-4.778v-25.778h6.667v6.556h4.777v-9.334c.11-1-.777-1.889-1.777-1.889h-12.556zM593.387 434.579c-.222-7.778-5.222-14.223-12-15.89v5c3.89 1.779 6.778 6 6.89 10.89v5.222h7.777c.89 0 1.667.778 1.667 1.667v3.555h-16.445v4.556h18.778c1.444 0 2.556-1.111 2.556-2.556v-5c0-4-3.222-7.222-7.223-7.222h-2v-.222z" fill="#6CBCDA"/>
        <path fill="#6CBCDA" d="M579.165 450.8v-9.443H574.5v9.444h-3.89l6.445 8.667 6.445-8.667z"/>
        <path fill="#9F9F9F" d="M492.922 533.412h1v-1h-1zM497.885 533.412h.99v-1h-.99v1zm4.954 0h.991v-1h-.991v1zm4.954 0h.99v-1h-.99v1zm4.953 0h.99v-1h-.99v1zm4.953 0h.991v-1h-.991v1zm4.953 0h.991v-1h-.991v1zm4.954 0h.99v-1h-.99v1zm4.953 0h.99v-1h-.99v1zm4.953 0h.991v-1h-.991v1zm4.954 0h.991v-1h-.991v1zm4.954 0h.99v-1h-.99v1zm4.953 0h.99v-1h-.99v1zm4.953 0h.991v-1h-.991v1zm4.953 0h.991v-1h-.991v1zm4.954 0h.99v-1h-.99v1zm4.953 0h.99v-1h-.99v1zm4.953 0h.991v-1h-.991v1zm4.954 0h.99v-1h-.99v1zm4.954 0h.99v-1h-.99v1zm4.953 0h.99v-1H592v1zm4.953 0h.991v-1h-.991v1zm4.954 0h.99v-1h-.99v1zm4.953 0h.99v-1h-.99v1zm4.953 0h.991v-1h-.991v1zm4.953 0h.991v-1h-.991v1zm4.954 0h.99v-1h-.99v1zm4.954 0h.99v-1h-.99v1zm4.953 0h.991v-1h-.991v1zm4.953 0h.991v-1h-.991v1zm4.954 0h.99v-1h-.99v1zm4.953 0h.99v-1h-.99v1zm4.953 0h.991v-1h-.991v1zm4.953 0h.991v-1h-.991v1zm4.954 0h.99v-1h-.99v1zm4.954 0h.99v-1h-.99v1zM671.253 533.412h1v-1h-1zM671.253 41.245h1v-1.004h-1v1.004zm0 5.021h1v-1.004h-1v1.004zm0 5.023h1v-1.004h-1v1.004zm0 5.022h1v-1.004h-1v1.004zm0 5.022h1v-1.004h-1v1.004zm0 5.022h1v-1.004h-1v1.004zm0 5.022h1v-1.004h-1v1.004zm0 5.023h1v-1.004h-1V76.4zm0 5.022h1v-1.004h-1v1.004zm0 5.022h1v-1.005h-1v1.005zm0 5.022h1v-1.004h-1v1.004zm0 5.022h1v-1.004h-1v1.004zm0 5.023h1v-1.004h-1v1.004zm0 5.022h1v-1.004h-1v1.004zm0 5.022h1v-1.004h-1v1.004zm0 5.022h1v-1.004h-1v1.004zm0 5.022h1v-1.004h-1v1.004zm0 5.022h1v-1.004h-1v1.004zm0 5.022h1v-1.004h-1v1.004zm0 5.023h1v-1.005h-1v1.005zm0 5.022h1v-1.004h-1v1.004zm0 5.022h1v-1.004h-1v1.004zm0 5.022h1v-1.004h-1v1.004zm0 5.022h1v-1.004h-1v1.004zm0 5.023h1v-1.004h-1v1.004zm0 5.022h1v-1.004h-1v1.004zm0 5.022h1v-1.005h-1v1.005zm0 5.022h1v-1.004h-1v1.004zm0 5.022h1v-1.004h-1v1.004zm0 5.023h1v-1.004h-1v1.004zm0 5.022h1v-1.004h-1v1.004zm0 5.022h1v-1.004h-1v1.004zm0 5.022h1v-1.004h-1v1.004zm0 5.022h1v-1.004h-1v1.004zm0 5.022h1v-1.004h-1v1.004zm0 5.022h1v-1.004h-1v1.004zm0 5.023h1v-1.005h-1v1.005zm0 5.022h1v-1.004h-1v1.004zm0 5.022h1v-1.004h-1v1.004zm0 5.022h1v-1.004h-1v1.004zm0 5.022h1v-1.004h-1v1.004zm0 5.023h1v-1.004h-1v1.004zm0 5.022h1v-1.004h-1v1.004zm0 5.022h1v-1.004h-1v1.004zm0 5.022h1v-1.004h-1v1.004zm0 5.022h1v-1.004h-1v1.004zm0 5.023h1v-1.005h-1v1.005zm0 5.022h1v-1.005h-1v1.005zm0 5.021h1v-1.004h-1v1.004zm0 5.023h1v-1.005h-1v1.005zm0 5.022h1v-1.005h-1v1.005zm0 5.022h1v-1.004h-1v1.004zm0 5.022h1v-1.005h-1v1.005zm0 5.023h1v-1.005h-1v1.005zm0 5.021h1v-1.004h-1v1.004zm0 5.023h1v-1.005h-1v1.005zm0 5.022h1v-1.005h-1v1.005zm0 5.022h1v-1.004h-1v1.004zm0 5.022h1v-1.004h-1v1.004zm0 5.023h1v-1.005h-1v1.005zm0 5.021h1v-1.004h-1v1.004zm0 5.023h1v-1.004h-1v1.004zm0 5.022h1v-1.005h-1v1.005zm0 5.022h1v-1.005h-1v1.005zm0 5.022h1v-1.004h-1v1.004zm0 5.022h1v-1.005h-1v1.005zm0 5.023h1v-1.005h-1v1.005zm0 5.021h1v-1.004h-1v1.004zm0 5.023h1v-1.005h-1v1.005zm0 5.022h1v-1.005h-1v1.005zm0 5.022h1v-1.004h-1v1.004zm0 5.022h1v-1.004h-1v1.004zm0 5.023h1v-1.005h-1v1.005zm0 5.021h1v-1.004h-1v1.004zm0 5.023h1v-1.004h-1v1.004zm0 5.022h1v-1.005h-1v1.005zm0 5.022h1v-1.004h-1v1.004zm0 5.022h1v-1.004h-1v1.004zm0 5.023h1v-1.005h-1v1.005zm0 5.022h1v-1.005h-1v1.005zm0 5.021h1v-1.004h-1v1.004zm0 5.023h1v-1.005h-1v1.005zm0 5.022h1v-1.005h-1v1.005zm0 5.022h1v-1.004h-1v1.004zm0 5.022h1v-1.005h-1v1.005zm0 5.023h1v-1.005h-1v1.005zm0 5.021h1v-1.004h-1v1.004zm0 5.023h1v-1.004h-1v1.004zm0 5.022h1v-1.005h-1v1.005zm0 5.022h1v-1.004h-1v1.004zm0 5.022h1v-1.004h-1v1.004zm0 5.023h1v-1.005h-1v1.005zm0 5.022h1v-1.005h-1v1.005zm0 5.022h1v-1.004h-1v1.004zm0 5.022h1v-1.005h-1v1.005zm0 5.022h1v-1.005h-1v1.005zm0 5.022h1v-1.004h-1v1.004zm0 5.022h1v-1.005h-1v1.005zM671.253 36.223h1v-1h-1zM497.885 36.223h.99v-1h-.99v1zm4.954 0h.99v-1h-.99v1zm4.953 0h.991v-1h-.991v1zm4.953 0h.991v-1h-.991v1zm4.954 0h.99v-1h-.99v1zm4.953 0h.99v-1h-.99v1zm4.953 0h.991v-1h-.991v1zm4.953 0h.991v-1h-.991v1zm4.954 0h.99v-1h-.99v1zm4.954 0h.99v-1h-.99v1zm4.953 0h.991v-1h-.991v1zm4.953 0h.991v-1h-.991v1zm4.954 0h.99v-1h-.99v1zm4.953 0h.99v-1h-.99v1zm4.953 0h.991v-1h-.991v1zm4.953 0h.991v-1h-.991v1zm4.954 0h.99v-1h-.99v1zm4.954 0h.99v-1h-.99v1zm4.953 0h.991v-1h-.991v1zm4.954 0h.99v-1H592v1zm4.953 0h.99v-1h-.99v1zm4.953 0h.991v-1h-.991v1zm4.953 0h.991v-1h-.991v1zm4.954 0h.99v-1h-.99v1zm4.953 0h.99v-1h-.99v1zm4.953 0h.991v-1h-.991v1zm4.954 0h.991v-1h-.991v1zm4.954 0h.99v-1h-.99v1zm4.953 0h.99v-1h-.99v1zm4.953 0h.991v-1h-.991v1zm4.953 0h.991v-1h-.991v1zm4.954 0h.99v-1h-.99v1zm4.953 0h.99v-1h-.99v1zm4.953 0h.991v-1h-.991v1zm4.955 0h.99v-1h-.99v1zM492.922 36.223h1v-1h-1zM492.922 41.245h1v-1.004h-1v1.004zm0 5.021h1v-1.004h-1v1.004zm0 5.023h1v-1.004h-1v1.004zm0 5.022h1v-1.004h-1v1.004zm0 5.022h1v-1.004h-1v1.004zm0 5.022h1v-1.004h-1v1.004zm0 5.022h1v-1.004h-1v1.004zm0 5.023h1v-1.004h-1V76.4zm0 5.022h1v-1.004h-1v1.004zm0 5.022h1v-1.005h-1v1.005zm0 5.022h1v-1.004h-1v1.004zm0 5.022h1v-1.004h-1v1.004zm0 5.023h1v-1.004h-1v1.004zm0 5.022h1v-1.004h-1v1.004zm0 5.022h1v-1.004h-1v1.004zm0 5.022h1v-1.004h-1v1.004zm0 5.022h1v-1.004h-1v1.004zm0 5.022h1v-1.004h-1v1.004zm0 5.022h1v-1.004h-1v1.004zm0 5.022h1v-1.004h-1v1.004zm0 5.023h1v-1.004h-1v1.004zm0 5.022h1v-1.004h-1v1.004zm0 5.022h1v-1.004h-1v1.004zm0 5.022h1v-1.004h-1v1.004zm0 5.022h1v-1.004h-1v1.004zm0 5.023h1v-1.004h-1v1.004zm0 5.022h1v-1.004h-1v1.004zm0 5.022h1v-1.004h-1v1.004zm0 5.022h1v-1.004h-1v1.004zm0 5.022h1v-1.004h-1v1.004zm0 5.022h1v-1.004h-1v1.004zm0 5.023h1v-1.004h-1v1.004zm0 5.022h1v-1.004h-1v1.004zm0 5.022h1v-1.004h-1v1.004zm0 5.022h1v-1.004h-1v1.004zm0 5.022h1v-1.004h-1v1.004zm0 5.022h1v-1.004h-1v1.004zm0 5.022h1v-1.004h-1v1.004zm0 5.023h1v-1.005h-1v1.005zm0 5.022h1v-1.004h-1v1.004zm0 5.022h1v-1.004h-1v1.004zm0 5.022h1v-1.004h-1v1.004zm0 5.022h1v-1.004h-1v1.004zm0 5.022h1v-1.004h-1v1.004zm0 5.023h1v-1.004h-1v1.004zm0 5.022h1v-1.005h-1v1.005zm0 5.022h1v-1.004h-1v1.004zm0 5.022h1v-1.005h-1v1.005zm0 5.022h1v-1.005h-1v1.005zm0 5.022h1v-1.004h-1v1.004zm0 5.022h1v-1.005h-1v1.005zm0 5.023h1v-1.005h-1v1.005zm0 5.021h1v-1.004h-1v1.004zm0 5.023h1v-1.004h-1v1.004zm0 5.022h1v-1.005h-1v1.005zm0 5.023h1v-1.005h-1v1.005zm0 5.021h1v-1.004h-1v1.004zm0 5.023h1v-1.005h-1v1.005zm0 5.022h1v-1.005h-1v1.005zm0 5.022h1v-1.004h-1v1.004zm0 5.022h1v-1.004h-1v1.004zm0 5.023h1v-1.005h-1v1.005zm0 5.021h1v-1.004h-1v1.004zm0 5.023h1v-1.004h-1v1.004zm0 5.022h1v-1.005h-1v1.005zm0 5.022h1v-1.005h-1v1.005zm0 5.022h1v-1.004h-1v1.004zm0 5.022h1v-1.005h-1v1.005zm0 5.023h1v-1.005h-1v1.005zm0 5.021h1v-1.004h-1v1.004zm0 5.023h1v-1.004h-1v1.004zm0 5.022h1v-1.005h-1v1.005zm0 5.023h1v-1.005h-1v1.005zm0 5.021h1v-1.004h-1v1.004zm0 5.023h1v-1.005h-1v1.005zm0 5.022h1v-1.005h-1v1.005zm0 5.022h1v-1.004h-1v1.004zm0 5.022h1v-1.005h-1v1.005zm0 5.023h1v-1.005h-1v1.005zm0 5.021h1v-1.004h-1v1.004zm0 5.022h1v-1.004h-1v1.004zm0 5.023h1v-1.005h-1v1.005zm0 5.022h1v-1.005h-1v1.005zm0 5.022h1v-1.004h-1v1.004zm0 5.022h1v-1.005h-1v1.005zm0 5.023h1v-1.005h-1v1.005zm0 5.021h1v-1.004h-1v1.004zm0 5.023h1v-1.004h-1v1.004zm0 5.022h1v-1.005h-1v1.005zm0 5.022h1v-1.004h-1v1.004zm0 5.022h1v-1.004h-1v1.004zm0 5.023h1v-1.005h-1v1.005zm0 5.022h1v-1.005h-1v1.005zm0 5.022h1v-1.004h-1v1.004zm0 5.022h1v-1.005h-1v1.005zm0 5.022h1v-1.005h-1v1.005zm0 5.022h1v-1.004h-1v1.004zm0 5.022h1v-1.004h-1v1.004zM650.666 193.367h1v-1h-1zM519.048 193.367h1.013v-1h-1.013v1zm5.063 0h1.013v-1h-1.013v1zm5.062 0h1.012v-1h-1.012v1zm5.062 0h1.013v-1h-1.013v1zm5.062 0h1.013v-1h-1.013v1zm5.063 0h1.012v-1h-1.012v1zm5.061 0h1.013v-1h-1.013v1zm5.063 0h1.013v-1h-1.013v1zm5.062 0h1.012v-1h-1.012v1zm5.062 0h1.013v-1h-1.013v1zm5.062 0h1.013v-1h-1.013v1zm5.063 0h1.012v-1h-1.012v1zm5.061 0h1.013v-1h-1.013v1zm5.063 0h1.013v-1h-1.013v1zm5.062 0h1.013v-1h-1.013v1zm5.062 0h1.013v-1h-1.013v1zm5.062 0h1.013v-1h-1.013v1zm5.063 0h1.013v-1h-1.013v1zm5.061 0h1.013v-1h-1.013v1zm5.063 0h1.013v-1h-1.013v1zm5.062 0h1.013v-1h-1.013v1zm5.063 0h1.012v-1h-1.012v1zm5.061 0h1.013v-1h-1.013v1zm5.063 0h1.013v-1h-1.013v1zm5.062 0h1.012v-1h-1.012v1zm5.062 0h1.013v-1h-1.013v1zM513.999 193.367h1v-1h-1zM513.999 61.763h1v-1.012h-1v1.012zm0 5.062h1v-1.012h-1v1.012zm0 5.062h1v-1.013h-1v1.013zm0 5.062h1v-1.012h-1v1.012zm0 5.062h1v-1.012h-1v1.012zm0 5.063h1v-1.013h-1v1.013zm0 5.062h1v-1.012h-1v1.012zm0 5.062h1v-1.013h-1v1.013zm0 5.062h1v-1.013h-1v1.013zm0 5.062h1v-1.012h-1v1.012zm0 5.063h1v-1.013h-1v1.013zm0 5.062h1v-1.013h-1v1.013zm0 5.062h1v-1.012h-1v1.012zm0 5.062h1v-1.013h-1v1.013zm0 5.062h1v-1.012h-1v1.012zm0 5.062h1v-1.012h-1v1.012zm0 5.063h1v-1.013h-1v1.013zm0 5.062h1v-1.012h-1v1.012zm0 5.062h1v-1.012h-1v1.012zm0 5.062h1v-1.013h-1v1.013zm0 5.062h1v-1.012h-1v1.012zm0 5.063h1v-1.013h-1v1.013zm0 5.062h1v-1.013h-1v1.013zm0 5.062h1v-1.012h-1v1.012zm0 5.062h1v-1.013h-1v1.013zm0 5.062h1v-1.012h-1v1.012zM513.999 56.701h1v-1h-1zM519.048 56.701h1.013v-1h-1.013v1zm5.063 0h1.012v-1h-1.012v1zm5.061 0h1.013v-1h-1.013v1zm5.063 0h1.013v-1h-1.013v1zm5.062 0h1.012v-1h-1.012v1zm5.062 0h1.013v-1h-1.013v1zm5.062 0h1.013v-1h-1.013v1zm5.063 0h1.013v-1h-1.013v1zm5.061 0h1.013v-1h-1.013v1zm5.063 0h1.013v-1h-1.013v1zm5.062 0h1.013v-1h-1.013v1zm5.062 0h1.013v-1h-1.013v1zm5.062 0h1.013v-1h-1.013v1zm5.063 0h1.013v-1h-1.013v1zm5.062 0h1.012v-1h-1.012v1zm5.062 0h1.013v-1h-1.013v1zm5.062 0h1.013v-1h-1.013v1zm5.063 0h1.012v-1h-1.012v1zm5.061 0h1.013v-1h-1.013v1zm5.063 0h1.013v-1h-1.013v1zm5.062 0h1.012v-1h-1.012v1zm5.062 0h1.013v-1h-1.013v1zm5.062 0h1.013v-1h-1.013v1zm5.063 0h1.012v-1h-1.012v1zm5.061 0h1.013v-1h-1.013v1zm5.063 0h1.013v-1h-1.013v1zM650.666 56.701h1v-1h-1zM650.666 61.763h1v-1.012h-1v1.012zm0 5.062h1v-1.013h-1v1.013zm0 5.062h1v-1.012h-1v1.012zm0 5.063h1v-1.013h-1v1.013zm0 5.062h1v-1.013h-1v1.013zm0 5.062h1v-1.012h-1v1.012zm0 5.062h1v-1.013h-1v1.013zm0 5.062h1v-1.012h-1v1.012zm0 5.062h1v-1.012h-1v1.012zm0 5.063h1v-1.013h-1v1.013zm0 5.062h1v-1.012h-1v1.012zm0 5.062h1v-1.012h-1v1.012zm0 5.062h1v-1.013h-1v1.013zm0 5.062h1v-1.012h-1v1.012zm0 5.063h1v-1.013h-1v1.013zm0 5.062h1v-1.013h-1v1.013zm0 5.062h1v-1.012h-1v1.012zm0 5.062h1v-1.013h-1v1.013zm0 5.062h1v-1.012h-1v1.012zm0 5.062h1v-1.012h-1v1.012zm0 5.063h1v-1.013h-1v1.013zm0 5.062h1v-1.012h-1v1.012zm0 5.062h1v-1.012h-1v1.012zm0 5.062h1v-1.013h-1v1.013zm0 5.062h1v-1.012h-1v1.012zm0 5.062h1v-1.012h-1v1.012zM650.666 354.867h1v-1h-1zM519.048 354.867h1.013v-1h-1.013v1zm5.063 0h1.013v-1h-1.013v1zm5.062 0h1.012v-1h-1.012v1zm5.062 0h1.013v-1h-1.013v1zm5.062 0h1.013v-1h-1.013v1zm5.063 0h1.012v-1h-1.012v1zm5.061 0h1.013v-1h-1.013v1zm5.063 0h1.013v-1h-1.013v1zm5.062 0h1.012v-1h-1.012v1zm5.062 0h1.013v-1h-1.013v1zm5.062 0h1.013v-1h-1.013v1zm5.063 0h1.012v-1h-1.012v1zm5.061 0h1.013v-1h-1.013v1zm5.063 0h1.013v-1h-1.013v1zm5.062 0h1.013v-1h-1.013v1zm5.062 0h1.013v-1h-1.013v1zm5.062 0h1.013v-1h-1.013v1zm5.063 0h1.013v-1h-1.013v1zm5.061 0h1.013v-1h-1.013v1zm5.063 0h1.013v-1h-1.013v1zm5.062 0h1.013v-1h-1.013v1zm5.063 0h1.012v-1h-1.012v1zm5.061 0h1.013v-1h-1.013v1zm5.063 0h1.013v-1h-1.013v1zm5.062 0h1.012v-1h-1.012v1zm5.062 0h1.013v-1h-1.013v1zM513.999 354.867h1v-1h-1zM513.999 223.263h1v-1.012h-1v1.012zm0 5.062h1v-1.012h-1v1.012zm0 5.062h1v-1.013h-1v1.013zm0 5.062h1v-1.012h-1v1.012zm0 5.062h1v-1.012h-1v1.012zm0 5.063h1v-1.013h-1v1.013zm0 5.062h1v-1.012h-1v1.012zm0 5.062h1v-1.013h-1v1.013zm0 5.062h1v-1.013h-1v1.013zm0 5.062h1v-1.013h-1v1.013zm0 5.063h1v-1.013h-1v1.013zm0 5.061h1v-1.012h-1v1.012zm0 5.063h1v-1.013h-1v1.013zm0 5.062h1v-1.013h-1v1.013zm0 5.063h1v-1.013h-1v1.013zm0 5.061h1v-1.013h-1v1.013zm0 5.063h1v-1.013h-1v1.013zm0 5.062h1v-1.013h-1v1.013zm0 5.062h1v-1.013h-1v1.013zm0 5.062h1v-1.013h-1v1.013zm0 5.063h1v-1.013h-1v1.013zm0 5.061h1v-1.012h-1v1.012zm0 5.063h1v-1.013h-1v1.013zm0 5.062h1v-1.013h-1v1.013zm0 5.062h1v-1.012h-1v1.012zm0 5.062h1v-1.013h-1v1.013zM513.999 218.201h1v-1h-1zM519.048 218.201h1.013v-1h-1.013v1zm5.063 0h1.012v-1h-1.012v1zm5.061 0h1.013v-1h-1.013v1zm5.063 0h1.013v-1h-1.013v1zm5.062 0h1.012v-1h-1.012v1zm5.062 0h1.013v-1h-1.013v1zm5.062 0h1.013v-1h-1.013v1zm5.063 0h1.013v-1h-1.013v1zm5.061 0h1.013v-1h-1.013v1zm5.063 0h1.013v-1h-1.013v1zm5.062 0h1.013v-1h-1.013v1zm5.062 0h1.013v-1h-1.013v1zm5.062 0h1.013v-1h-1.013v1zm5.063 0h1.013v-1h-1.013v1zm5.062 0h1.012v-1h-1.012v1zm5.062 0h1.013v-1h-1.013v1zm5.062 0h1.013v-1h-1.013v1zm5.063 0h1.012v-1h-1.012v1zm5.061 0h1.013v-1h-1.013v1zm5.063 0h1.013v-1h-1.013v1zm5.062 0h1.012v-1h-1.012v1zm5.062 0h1.013v-1h-1.013v1zm5.062 0h1.013v-1h-1.013v1zm5.063 0h1.012v-1h-1.012v1zm5.061 0h1.013v-1h-1.013v1zm5.063 0h1.013v-1h-1.013v1zM650.666 218.201h1v-1h-1zM650.666 223.262h1v-1.012h-1v1.012zm0 5.063h1v-1.013h-1v1.013zm0 5.062h1v-1.012h-1v1.012zm0 5.062h1v-1.013h-1v1.013zm0 5.062h1v-1.013h-1v1.013zm0 5.062h1v-1.012h-1v1.012zm0 5.063h1v-1.013h-1v1.013zm0 5.062h1v-1.012h-1v1.012zm0 5.062h1v-1.012h-1v1.012zm0 5.062h1v-1.013h-1v1.013zm0 5.063h1v-1.013h-1v1.013zm0 5.061h1v-1.013h-1v1.013zm0 5.063h1v-1.013h-1v1.013zm0 5.062h1v-1.013h-1v1.013zm0 5.062h1v-1.012h-1v1.012zm0 5.062h1v-1.013h-1v1.013zm0 5.063h1v-1.013h-1v1.013zm0 5.061h1v-1.012h-1v1.012zm0 5.063h1v-1.013h-1v1.013zm0 5.062h1v-1.013h-1v1.013zm0 5.062h1v-1.012h-1v1.012zm0 5.062h1v-1.013h-1v1.013zm0 5.063h1v-1.013h-1v1.013zm0 5.061h1v-1.012h-1v1.012zm0 5.063h1v-1.013h-1v1.013zm0 5.062h1v-1.013h-1v1.013zM650.666 513.867h1v-1h-1zM519.048 513.867h1.013v-1h-1.013v1zm5.063 0h1.013v-1h-1.013v1zm5.062 0h1.012v-1h-1.012v1zm5.062 0h1.013v-1h-1.013v1zm5.062 0h1.013v-1h-1.013v1zm5.063 0h1.012v-1h-1.012v1zm5.061 0h1.013v-1h-1.013v1zm5.063 0h1.013v-1h-1.013v1zm5.062 0h1.012v-1h-1.012v1zm5.062 0h1.013v-1h-1.013v1zm5.062 0h1.013v-1h-1.013v1zm5.063 0h1.012v-1h-1.012v1zm5.061 0h1.013v-1h-1.013v1zm5.063 0h1.013v-1h-1.013v1zm5.062 0h1.013v-1h-1.013v1zm5.062 0h1.013v-1h-1.013v1zm5.062 0h1.013v-1h-1.013v1zm5.063 0h1.013v-1h-1.013v1zm5.061 0h1.013v-1h-1.013v1zm5.063 0h1.013v-1h-1.013v1zm5.062 0h1.013v-1h-1.013v1zm5.063 0h1.012v-1h-1.012v1zm5.061 0h1.013v-1h-1.013v1zm5.063 0h1.013v-1h-1.013v1zm5.062 0h1.012v-1h-1.012v1zm5.062 0h1.013v-1h-1.013v1zM513.999 513.867h1v-1h-1zM513.999 382.263h1v-1.013h-1v1.013zm0 5.062h1v-1.013h-1v1.013zm0 5.062h1v-1.012h-1v1.012zm0 5.062h1v-1.013h-1v1.013zm0 5.063h1v-1.013h-1v1.013zm0 5.061h1v-1.012h-1v1.012zm0 5.063h1v-1.013h-1v1.013zm0 5.062h1v-1.013h-1v1.013zm0 5.062h1v-1.012h-1v1.012zm0 5.062h1v-1.013h-1v1.013zm0 5.063h1v-1.013h-1v1.013zm0 5.061h1v-1.012h-1v1.012zm0 5.063h1v-1.013h-1v1.013zm0 5.062h1v-1.013h-1v1.013zm0 5.063h1v-1.013h-1v1.013zm0 5.061h1v-1.013h-1v1.013zm0 5.063h1v-1.013h-1v1.013zm0 5.062h1v-1.013h-1v1.013zm0 5.062h1v-1.013h-1v1.013zm0 5.062h1v-1.013h-1v1.013zm0 5.063h1v-1.013h-1v1.013zm0 5.061h1v-1.012h-1v1.012zm0 5.063h1v-1.013h-1v1.013zm0 5.062h1v-1.013h-1v1.013zm0 5.062h1v-1.012h-1v1.012zm0 5.062h1v-1.013h-1v1.013zM513.999 377.2h1v-1h-1zM519.048 377.2h1.013v-1h-1.013v1zm5.063 0h1.012v-1h-1.012v1zm5.061 0h1.013v-1h-1.013v1zm5.063 0h1.013v-1h-1.013v1zm5.062 0h1.012v-1h-1.012v1zm5.062 0h1.013v-1h-1.013v1zm5.062 0h1.013v-1h-1.013v1zm5.063 0h1.013v-1h-1.013v1zm5.061 0h1.013v-1h-1.013v1zm5.063 0h1.013v-1h-1.013v1zm5.062 0h1.013v-1h-1.013v1zm5.062 0h1.013v-1h-1.013v1zm5.062 0h1.013v-1h-1.013v1zm5.063 0h1.013v-1h-1.013v1zm5.062 0h1.012v-1h-1.012v1zm5.062 0h1.013v-1h-1.013v1zm5.062 0h1.013v-1h-1.013v1zm5.063 0h1.012v-1h-1.012v1zm5.061 0h1.013v-1h-1.013v1zm5.063 0h1.013v-1h-1.013v1zm5.062 0h1.012v-1h-1.012v1zm5.062 0h1.013v-1h-1.013v1zm5.062 0h1.013v-1h-1.013v1zm5.063 0h1.012v-1h-1.012v1zm5.061 0h1.013v-1h-1.013v1zm5.063 0h1.013v-1h-1.013v1zM650.666 377.2h1v-1h-1zM650.666 382.263h1v-1.013h-1v1.013zm0 5.061h1v-1.012h-1v1.012zm0 5.063h1v-1.013h-1v1.013zm0 5.062h1v-1.013h-1v1.013zm0 5.062h1v-1.012h-1v1.012zm0 5.062h1v-1.013h-1v1.013zm0 5.063h1v-1.013h-1v1.013zm0 5.062h1v-1.013h-1v1.013zm0 5.062h1v-1.013h-1v1.013zm0 5.062h1v-1.013h-1v1.013zm0 5.063h1v-1.013h-1v1.013zm0 5.061h1v-1.013h-1v1.013zm0 5.063h1v-1.013h-1v1.013zm0 5.062h1v-1.013h-1v1.013zm0 5.062h1v-1.012h-1v1.012zm0 5.062h1v-1.013h-1v1.013zm0 5.063h1v-1.013h-1v1.013zm0 5.061h1v-1.012h-1v1.012zm0 5.063h1v-1.013h-1v1.013zm0 5.062h1v-1.013h-1v1.013zm0 5.062h1v-1.012h-1v1.012zm0 5.062h1v-1.013h-1v1.013zm0 5.063h1v-1.013h-1v1.013zm0 5.061h1v-1.012h-1v1.012zm0 5.063h1v-1.013h-1v1.013zm0 5.062h1v-1.013h-1v1.013z"/>
        <path fill="#959595" d="M190.738 434.706l-9.067-5.235v4.485h-76.468v1.5h76.468v4.485zM353.072 286.706l-9.067-5.235v4.485h-73.47v1.5h73.47v4.485zM492.405 286.706l-9.067-5.235v4.485H422.87v1.5h60.468v4.485zM233.735 361.534l-5.236-9.067-5.236 9.067h4.486v40.078h1.5v-40.078z"/>
    </g>
</svg>
