<svg class="architecture-diagram" aria-labelledby="instant-broadcasting-on-serverless-architecture" height="403.234" viewbox="0 0 593.754 403.234" width="593.754" xmlns="http://www.w3.org/2000/svg">
    <mask height="19.514" id="a" maskunits="userSpaceOnUse" width="10.785" x="313.462" y="144.199">
        <path fill="#fff" d="M313.462 144.199v19.515h10.786v-19.515h-10.786z"/>
    </mask>
    <mask height="31.403" id="b" maskunits="userSpaceOnUse" width="16.181" x="322.837" y="138.531">
        <path fill="#fff" d="M339.018 138.531h-16.181v31.403h16.181v-31.403z"/>
    </mask>
    <mask height="31.404" id="c" maskunits="userSpaceOnUse" width="14.69" x="324.327" y="138.531">
        <path fill="#fff" d="M324.327 169.934h14.691v-31.403h-14.691v31.403z"/>
    </mask>
    <mask height="19.514" id="d" maskunits="userSpaceOnUse" width="10.785" x="144.023" y="144.199">
        <g data-name="mask-2">
            <path data-name="path-1" fill="#fff" d="M144.024 144.199v19.515h10.785v-19.515h-10.785z"/>
        </g>
    </mask>
    <mask height="31.403" id="e" maskunits="userSpaceOnUse" width="16.181" x="153.398" y="138.531">
        <g data-name="mask-4">
            <path data-name="path-3" fill="#fff" d="M169.579 138.531h-16.181v31.403h16.181v-31.403z"/>
        </g>
    </mask>
    <mask height="31.404" id="f" maskunits="userSpaceOnUse" width="14.69" x="154.889" y="138.531">
        <g data-name="mask-6">
            <path data-name="path-5" fill="#fff" d="M154.889 169.934h14.69v-31.403h-14.69v31.403z"/>
        </g>
    </mask>
    <mask height="19.514" id="g" maskunits="userSpaceOnUse" width="10.785" x="484.462" y="144.199">
        <g data-name="mask-2">
            <path data-name="path-1" fill="#fff" d="M484.462 144.199v19.515h10.786v-19.515h-10.786z"/>
        </g>
    </mask>
    <mask height="31.403" id="h" maskunits="userSpaceOnUse" width="16.181" x="493.837" y="138.531">
        <g data-name="mask-4">
            <path data-name="path-3" fill="#fff" d="M510.018 138.531h-16.181v31.403h16.181v-31.403z"/>
        </g>
    </mask>
    <mask height="31.404" id="i" maskunits="userSpaceOnUse" width="14.69" x="495.327" y="138.531">
        <g data-name="mask-6">
            <path data-name="path-5" fill="#fff" d="M495.327 169.934h14.691v-31.403h-14.691v31.403z"/>
        </g>
    </mask>
    <path d="M11.487 213.57a2.007 2.007 0 002.007 2.007H59.48a2.007 2.007 0 002.007-2.007v-31.329h-50z" fill="#59b4d9"/>
    <path d="M59.48 172.943H13.494a2.006 2.006 0 00-2.007 2.007v10.627h50V174.95a2.007 2.007 0 00-2.007-2.007" fill="#a0a1a2"/>
    <path d="M13.5 172.943a2.007 2.007 0 00-2.007 2.007v38.62a2.008 2.008 0 002.007 2.007h2.188l39.418-42.634z" fill="#fff" opacity=".2" style="isolation:isolate"/>
    <path fill="#fff" d="M24.344 177.722h33.671v3.942H24.344z"/>
    <path d="M22.8 179.626a4.878 4.878 0 11-4.878-4.879 4.879 4.879 0 014.878 4.879" fill="#59b4d9"/>
    <path fill="#fff" d="M17.403 180.175l2.213 2.336h-1.201l-2.959-2.818 2.948-2.818h1.198l-2.199 2.322h5.393v.978h-5.393z"/>
    <g>
        <g fill="#5b5b5b">
            <path d="M161.637 399.543v-1.354a2.633 2.633 0 00.558.369 4.487 4.487 0 00.684.277 5.424 5.424 0 00.722.174 4.018 4.018 0 00.67.062 2.622 2.622 0 001.582-.393 1.473 1.473 0 00.349-1.822 1.962 1.962 0 00-.481-.537 4.788 4.788 0 00-.729-.465q-.42-.222-.906-.468-.513-.26-.957-.526a4.143 4.143 0 01-.771-.588 2.452 2.452 0 01-.517-.728 2.475 2.475 0 01.106-2.119 2.518 2.518 0 01.771-.817 3.5 3.5 0 011.091-.479 4.977 4.977 0 011.247-.157 4.785 4.785 0 012.113.349v1.292a3.832 3.832 0 00-2.229-.6 3.669 3.669 0 00-.752.079 2.107 2.107 0 00-.67.256 1.481 1.481 0 00-.479.458 1.216 1.216 0 00-.186.684 1.4 1.4 0 00.141.649 1.6 1.6 0 00.414.5 4.088 4.088 0 00.666.438q.393.212.906.465t1 .547a4.531 4.531 0 01.826.636 2.811 2.811 0 01.564.772 2.176 2.176 0 01.209.971 2.469 2.469 0 01-.284 1.227 2.33 2.33 0 01-.766.817 3.344 3.344 0 01-1.11.455 6.1 6.1 0 01-1.326.14 5.437 5.437 0 01-.574-.038q-.343-.037-.7-.109a5.65 5.65 0 01-.674-.178 2.118 2.118 0 01-.508-.239zM169.957 391.162a.712.712 0 01-.514-.205.694.694 0 01-.211-.52.716.716 0 01.725-.731.722.722 0 01.522.208.729.729 0 010 1.036.717.717 0 01-.522.212zm.547 8.777h-1.121v-7h1.117zM178.748 399.379q0 3.855-3.691 3.855a4.953 4.953 0 01-2.27-.492v-1.121a4.659 4.659 0 002.256.656q2.584 0 2.584-2.748v-.766h-.027a2.833 2.833 0 01-4.509.407 3.728 3.728 0 01-.8-2.505 4.356 4.356 0 01.857-2.837 2.866 2.866 0 012.348-1.053 2.284 2.284 0 012.1 1.135h.027v-.971h1.121zm-1.121-2.6v-1.032a2 2 0 00-.564-1.429 1.856 1.856 0 00-1.4-.595 1.946 1.946 0 00-1.627.755 3.368 3.368 0 00-.588 2.116 2.9 2.9 0 00.563 1.87 1.821 1.821 0 001.493.7 1.952 1.952 0 001.535-.67 2.5 2.5 0 00.588-1.72zM186.828 399.939h-1.121v-3.992q0-2.229-1.627-2.229a1.765 1.765 0 00-1.392.632 2.342 2.342 0 00-.55 1.6v3.992h-1.121v-7h1.121v1.158h.027a2.525 2.525 0 012.3-1.326 2.139 2.139 0 011.756.742 3.3 3.3 0 01.609 2.143zM193.951 399.939h-1.121v-1.094h-.03a2.349 2.349 0 01-2.154 1.258 2.3 2.3 0 01-1.637-.554 1.917 1.917 0 01-.592-1.47q0-1.962 2.311-2.283l2.1-.294q0-1.784-1.443-1.784a3.448 3.448 0 00-2.283.861v-1.148a4.34 4.34 0 012.379-.656q2.468 0 2.469 2.611zm-1.121-3.539l-1.689.232a2.741 2.741 0 00-1.176.386 1.116 1.116 0 00-.4.981 1.068 1.068 0 00.366.837 1.412 1.412 0 00.974.325 1.8 1.8 0 001.378-.584 2.088 2.088 0 00.544-1.48zM197.184 399.939h-1.121v-10.363h1.121zM206.631 399.939h-1.367l-1.641-2.748a5.939 5.939 0 00-.437-.653 2.449 2.449 0 00-.434-.441 1.507 1.507 0 00-.479-.25 1.973 1.973 0 00-.578-.079h-.943v4.17H199.6v-9.8h2.926a4.177 4.177 0 011.187.161 2.651 2.651 0 01.943.489 2.274 2.274 0 01.626.817 2.708 2.708 0 01.225 1.145 2.757 2.757 0 01-.153.94 2.468 2.468 0 01-.437.762 2.661 2.661 0 01-.684.571 3.483 3.483 0 01-.9.366v.027a2.08 2.08 0 01.428.25 2.338 2.338 0 01.346.332 4.442 4.442 0 01.324.434c.107.162.227.35.359.564zm-5.879-8.764v3.555h1.559a2.372 2.372 0 00.8-.13 1.843 1.843 0 00.633-.373 1.676 1.676 0 00.416-.595 1.986 1.986 0 00.15-.79 1.539 1.539 0 00-.509-1.227 2.19 2.19 0 00-1.474-.441zM211.355 399.543v-1.354a2.6 2.6 0 00.557.369 4.528 4.528 0 00.684.277 5.447 5.447 0 00.721.174 4.027 4.027 0 00.67.062 2.623 2.623 0 001.583-.393 1.476 1.476 0 00.349-1.822 1.966 1.966 0 00-.482-.537 4.776 4.776 0 00-.728-.465q-.42-.222-.905-.468-.513-.26-.957-.526a4.127 4.127 0 01-.773-.588 2.449 2.449 0 01-.516-.728 2.489 2.489 0 01.105-2.119 2.524 2.524 0 01.773-.817 3.489 3.489 0 011.09-.479 4.991 4.991 0 011.248-.157 4.775 4.775 0 012.111.349v1.292a3.828 3.828 0 00-2.229-.6 3.684 3.684 0 00-.752.079 2.125 2.125 0 00-.67.256 1.491 1.491 0 00-.479.458 1.215 1.215 0 00-.184.684 1.4 1.4 0 00.14.649 1.592 1.592 0 00.413.5 4.1 4.1 0 00.667.438q.393.212.905.465t1 .547a4.581 4.581 0 01.828.636 2.848 2.848 0 01.563.772 2.176 2.176 0 01.208.971 2.459 2.459 0 01-.283 1.227 2.33 2.33 0 01-.766.817 3.341 3.341 0 01-1.111.455 6.091 6.091 0 01-1.326.14 5.469 5.469 0 01-.574-.038q-.341-.037-.7-.109a5.683 5.683 0 01-.673-.178 2.091 2.091 0 01-.507-.239zM224.727 396.72h-4.943a2.623 2.623 0 00.629 1.8 2.17 2.17 0 001.654.636 3.437 3.437 0 002.174-.779v1.053a4.059 4.059 0 01-2.439.67 2.961 2.961 0 01-2.332-.954 3.907 3.907 0 01-.848-2.683 3.825 3.825 0 01.927-2.663 2.968 2.968 0 012.3-1.029 2.635 2.635 0 012.127.889 3.707 3.707 0 01.752 2.468zm-1.148-.95a2.283 2.283 0 00-.469-1.511 1.6 1.6 0 00-1.281-.54 1.811 1.811 0 00-1.348.567 2.577 2.577 0 00-.684 1.483zM230.072 394.074a1.372 1.372 0 00-.848-.226 1.431 1.431 0 00-1.2.677 3.129 3.129 0 00-.481 1.846v3.568h-1.121v-7h1.121v1.442h.027a2.441 2.441 0 01.73-1.152 1.668 1.668 0 011.1-.414 1.83 1.83 0 01.67.1zM237.352 392.939l-2.789 7h-1.1l-2.652-7h1.23l1.777 5.086a4.6 4.6 0 01.246.978h.027a4.56 4.56 0 01.219-.95l1.859-5.113zM239.129 391.162a.708.708 0 01-.512-.205.692.692 0 01-.213-.52.72.72 0 01.725-.731.724.724 0 01.523.208.731.731 0 010 1.036.72.72 0 01-.523.212zm.547 8.777h-1.121v-7h1.121zM246.717 399.618a3.64 3.64 0 01-1.914.485 3.168 3.168 0 01-2.416-.974 3.529 3.529 0 01-.92-2.526 3.881 3.881 0 01.992-2.779 3.464 3.464 0 012.645-1.049 3.678 3.678 0 011.627.342v1.148a2.849 2.849 0 00-1.668-.547 2.254 2.254 0 00-1.76.769 2.918 2.918 0 00-.687 2.02 2.779 2.779 0 00.646 1.941 2.225 2.225 0 001.732.711 2.806 2.806 0 001.723-.608zM254.039 396.72H249.1a2.623 2.623 0 00.629 1.8 2.17 2.17 0 001.654.636 3.437 3.437 0 002.174-.779v1.053a4.059 4.059 0 01-2.439.67 2.961 2.961 0 01-2.332-.954 3.907 3.907 0 01-.848-2.683 3.825 3.825 0 01.927-2.663 2.968 2.968 0 012.3-1.029 2.635 2.635 0 012.127.889 3.707 3.707 0 01.752 2.468zm-1.148-.95a2.283 2.283 0 00-.469-1.511 1.6 1.6 0 00-1.281-.54 1.811 1.811 0 00-1.348.567 2.577 2.577 0 00-.684 1.483z"/>
        </g>
        <g fill="#5b5b5b">
            <path d="M0 395.543v-1.354a2.6 2.6 0 00.557.369 4.528 4.528 0 00.684.277 5.447 5.447 0 00.721.174 4.027 4.027 0 00.67.062 2.623 2.623 0 001.583-.393 1.476 1.476 0 00.349-1.822 1.966 1.966 0 00-.482-.537 4.776 4.776 0 00-.728-.465q-.42-.222-.905-.468-.513-.26-.957-.526a4.127 4.127 0 01-.773-.588 2.449 2.449 0 01-.516-.728 2.489 2.489 0 01.105-2.119 2.524 2.524 0 01.773-.817 3.489 3.489 0 011.09-.479 4.991 4.991 0 011.248-.157 4.775 4.775 0 012.111.349v1.292a3.828 3.828 0 00-2.229-.6 3.684 3.684 0 00-.752.079 2.125 2.125 0 00-.67.256 1.491 1.491 0 00-.479.458 1.215 1.215 0 00-.184.684 1.4 1.4 0 00.14.649 1.592 1.592 0 00.413.5 4.1 4.1 0 00.667.438q.393.212.905.465t1 .547a4.581 4.581 0 01.828.636 2.848 2.848 0 01.563.772 2.176 2.176 0 01.208.971 2.459 2.459 0 01-.283 1.227 2.33 2.33 0 01-.766.817 3.341 3.341 0 01-1.111.455 6.091 6.091 0 01-1.326.14 5.469 5.469 0 01-.574-.038q-.341-.037-.7-.109a5.683 5.683 0 01-.673-.178 2.091 2.091 0 01-.507-.239zM10.541 395.871a2.163 2.163 0 01-1.047.219q-1.838 0-1.838-2.051V389.9h-1.2v-.957h1.2v-1.713l1.121-.362v2.071h1.764v.957H8.777v3.944a1.639 1.639 0 00.238 1 .955.955 0 00.793.3 1.181 1.181 0 00.732-.232zM14.854 396.1a3.246 3.246 0 01-2.478-.981 3.631 3.631 0 01-.927-2.6 3.785 3.785 0 01.965-2.755 3.464 3.464 0 012.6-.991 3.141 3.141 0 012.444.964 3.825 3.825 0 01.878 2.673 3.762 3.762 0 01-.946 2.683 3.318 3.318 0 01-2.536 1.007zm.082-6.385a2.134 2.134 0 00-1.709.735 3.02 3.02 0 00-.629 2.027 2.854 2.854 0 00.637 1.962 2.159 2.159 0 001.7.718 2.051 2.051 0 001.672-.7 3.055 3.055 0 00.584-2 3.108 3.108 0 00-.584-2.023 2.041 2.041 0 00-1.671-.715zM23.781 390.074a1.37 1.37 0 00-.848-.226 1.43 1.43 0 00-1.2.677 3.129 3.129 0 00-.482 1.846v3.568h-1.12v-7h1.121v1.442h.027a2.451 2.451 0 01.732-1.152 1.665 1.665 0 011.1-.414 1.823 1.823 0 01.67.1zM30.01 395.939h-1.121v-1.094h-.027a2.349 2.349 0 01-2.154 1.258 2.3 2.3 0 01-1.637-.554 1.917 1.917 0 01-.592-1.47q0-1.962 2.311-2.283l2.1-.294q0-1.784-1.443-1.784a3.448 3.448 0 00-2.283.861v-1.148a4.34 4.34 0 012.379-.656q2.468 0 2.469 2.611zm-1.121-3.539l-1.689.232a2.741 2.741 0 00-1.176.386 1.116 1.116 0 00-.4.981 1.068 1.068 0 00.366.837 1.412 1.412 0 00.974.325 1.8 1.8 0 001.378-.584 2.088 2.088 0 00.544-1.48zM38.1 395.379q0 3.855-3.691 3.855a4.959 4.959 0 01-2.27-.492v-1.121a4.665 4.665 0 002.256.656q2.584 0 2.584-2.748v-.766h-.027a2.832 2.832 0 01-4.508.407 3.728 3.728 0 01-.8-2.505 4.356 4.356 0 01.858-2.837 2.866 2.866 0 012.349-1.053 2.28 2.28 0 012.1 1.135h.027v-.971H38.1zm-1.121-2.6v-1.032a2 2 0 00-.563-1.429 1.858 1.858 0 00-1.405-.595 1.948 1.948 0 00-1.627.755 3.374 3.374 0 00-.588 2.116 2.9 2.9 0 00.564 1.87 1.822 1.822 0 001.494.7 1.95 1.95 0 001.534-.67 2.5 2.5 0 00.587-1.72zM45.992 392.72h-4.943a2.623 2.623 0 00.629 1.8 2.17 2.17 0 001.654.636 3.437 3.437 0 002.174-.779v1.053a4.059 4.059 0 01-2.439.67 2.961 2.961 0 01-2.332-.954 3.907 3.907 0 01-.848-2.683 3.825 3.825 0 01.927-2.663 2.968 2.968 0 012.3-1.029 2.635 2.635 0 012.127.889 3.707 3.707 0 01.752 2.468zm-1.148-.95a2.283 2.283 0 00-.469-1.511 1.6 1.6 0 00-1.281-.54 1.811 1.811 0 00-1.348.567 2.577 2.577 0 00-.684 1.483zM51.672 395.939v-9.8h2.789a3.053 3.053 0 012.018.622 2.011 2.011 0 01.744 1.62 2.384 2.384 0 01-.451 1.449 2.431 2.431 0 01-1.244.875v.027a2.5 2.5 0 011.586.749 2.3 2.3 0 01.6 1.644 2.563 2.563 0 01-.9 2.037 3.361 3.361 0 01-2.277.779zm1.148-8.764v3.165H54a2.235 2.235 0 001.484-.455 1.585 1.585 0 00.539-1.282q0-1.429-1.879-1.429zm0 4.2v3.525h1.559a2.338 2.338 0 001.569-.479 1.64 1.64 0 00.558-1.312q0-1.737-2.365-1.736zM60.668 395.939h-1.121v-10.363h1.121zM65.863 396.1a3.246 3.246 0 01-2.478-.981 3.631 3.631 0 01-.927-2.6 3.785 3.785 0 01.965-2.755 3.464 3.464 0 012.6-.991 3.141 3.141 0 012.444.964 3.825 3.825 0 01.878 2.673 3.762 3.762 0 01-.945 2.69 3.318 3.318 0 01-2.537 1zm.082-6.385a2.134 2.134 0 00-1.709.735 3.02 3.02 0 00-.629 2.027 2.854 2.854 0 00.637 1.962 2.159 2.159 0 001.7.718 2.051 2.051 0 001.672-.7 3.055 3.055 0 00.584-2 3.108 3.108 0 00-.584-2.023 2.041 2.041 0 00-1.671-.715zM72.289 394.928h-.027v1.012h-1.121v-10.364h1.121v4.594h.027a2.652 2.652 0 012.42-1.395 2.566 2.566 0 012.109.94 3.883 3.883 0 01.762 2.519 4.34 4.34 0 01-.854 2.813 2.847 2.847 0 01-2.338 1.056 2.3 2.3 0 01-2.099-1.175zm-.027-2.823v.978a2.082 2.082 0 00.564 1.473 2.012 2.012 0 003.028-.174 3.577 3.577 0 00.577-2.167 2.825 2.825 0 00-.539-1.832 1.788 1.788 0 00-1.463-.663 1.985 1.985 0 00-1.572.68 2.5 2.5 0 00-.595 1.7z"/>
        </g>
        <g fill="#5b5b5b">
            <path d="M26.725 239.529a5.749 5.749 0 01-2.707.574 4.364 4.364 0 01-3.35-1.347 4.968 4.968 0 01-1.258-3.534 5.208 5.208 0 011.414-3.8 4.8 4.8 0 013.59-1.449 5.753 5.753 0 012.311.4v1.227a4.685 4.685 0 00-2.324-.588 3.567 3.567 0 00-2.738 1.128 4.25 4.25 0 00-1.049 3.015 4.041 4.041 0 00.98 2.854 3.339 3.339 0 002.574 1.063 4.83 4.83 0 002.557-.656zM29.691 239.939H28.57v-10.363h1.121zM32.535 231.162a.712.712 0 01-.514-.205.694.694 0 01-.211-.52.716.716 0 01.725-.731.722.722 0 01.522.208.729.729 0 010 1.036.717.717 0 01-.522.212zm.547 8.777h-1.121v-7h1.121zM40.977 236.72h-4.942a2.614 2.614 0 00.629 1.8 2.167 2.167 0 001.654.636 3.441 3.441 0 002.174-.779v1.053a4.065 4.065 0 01-2.441.67 2.957 2.957 0 01-2.33-.954 3.9 3.9 0 01-.848-2.683 3.829 3.829 0 01.927-2.663 2.97 2.97 0 012.3-1.029 2.63 2.63 0 012.125.889 3.7 3.7 0 01.752 2.468zm-1.148-.95a2.277 2.277 0 00-.468-1.511 1.6 1.6 0 00-1.282-.54 1.809 1.809 0 00-1.346.567 2.571 2.571 0 00-.684 1.483zM48.482 239.939h-1.121v-3.992q0-2.229-1.627-2.229a1.765 1.765 0 00-1.391.632 2.342 2.342 0 00-.551 1.6v3.992h-1.12v-7h1.121v1.158h.027a2.528 2.528 0 012.3-1.326 2.144 2.144 0 011.758.742 3.306 3.306 0 01.607 2.143zM53.842 239.871a2.155 2.155 0 01-1.045.219q-1.84 0-1.84-2.051V233.9h-1.2v-.957h1.2v-1.713l1.121-.362v2.071h1.764v.957h-1.764v3.944a1.631 1.631 0 00.24 1 .954.954 0 00.793.3 1.177 1.177 0 00.73-.232z"/>
        </g>
        <g fill="#5b5b5b">
            <path d="M191.582 230.137l-2.769 9.8h-1.347l-2.017-7.164a4.429 4.429 0 01-.157-1h-.027a5.084 5.084 0 01-.178.984l-2.03 7.178h-1.333l-2.871-9.8h1.265l2.085 7.52a5.03 5.03 0 01.164.984h.034a5.709 5.709 0 01.212-.984l2.167-7.52h1.1l2.078 7.574a5.677 5.677 0 01.164.916h.027a5.465 5.465 0 01.185-.943l2-7.547zM198.179 236.72h-4.942a2.614 2.614 0 00.629 1.8 2.167 2.167 0 001.654.636 3.441 3.441 0 002.174-.779v1.053a4.062 4.062 0 01-2.44.67 2.957 2.957 0 01-2.331-.954 3.9 3.9 0 01-.848-2.683A3.829 3.829 0 01193 233.8a2.971 2.971 0 012.3-1.029 2.632 2.632 0 012.126.889 3.707 3.707 0 01.752 2.468zm-1.148-.95a2.288 2.288 0 00-.468-1.511 1.6 1.6 0 00-1.282-.54 1.811 1.811 0 00-1.347.567 2.571 2.571 0 00-.684 1.483zM201.022 238.928H201v1.012h-1.121v-10.364H201v4.594h.027a2.652 2.652 0 012.42-1.395 2.565 2.565 0 012.108.94 3.877 3.877 0 01.763 2.519 4.34 4.34 0 01-.854 2.813 2.847 2.847 0 01-2.338 1.056 2.3 2.3 0 01-2.104-1.175zM201 236.1v.978a2.085 2.085 0 00.563 1.473 2.013 2.013 0 003.029-.174 3.577 3.577 0 00.577-2.167 2.826 2.826 0 00-.54-1.832 1.788 1.788 0 00-1.463-.663 1.985 1.985 0 00-1.572.68A2.5 2.5 0 00201 236.1zM219.678 239.939h-1.271l-1.039-2.748h-4.156l-.978 2.748h-1.278l3.76-9.8h1.184zm-2.687-3.78l-1.538-4.177a3.9 3.9 0 01-.15-.656h-.027a3.669 3.669 0 01-.157.656l-1.524 4.177zM222.118 238.928h-.027v4.231h-1.121v-10.22h1.121v1.23h.027a2.652 2.652 0 012.42-1.395 2.564 2.564 0 012.112.94 3.893 3.893 0 01.759 2.519 4.34 4.34 0 01-.854 2.813 2.847 2.847 0 01-2.338 1.056 2.342 2.342 0 01-2.099-1.174zm-.027-2.823v.978a2.085 2.085 0 00.563 1.473 2.013 2.013 0 003.029-.174 3.577 3.577 0 00.577-2.167 2.826 2.826 0 00-.54-1.832 1.788 1.788 0 00-1.463-.663 1.985 1.985 0 00-1.572.68 2.5 2.5 0 00-.594 1.7zM230.349 238.928h-.027v4.231H229.2v-10.22h1.121v1.23h.027a2.652 2.652 0 012.42-1.395 2.564 2.564 0 012.112.94 3.893 3.893 0 01.759 2.519 4.34 4.34 0 01-.854 2.813 2.847 2.847 0 01-2.338 1.056 2.342 2.342 0 01-2.098-1.174zm-.027-2.823v.978a2.085 2.085 0 00.563 1.473 2.013 2.013 0 003.029-.174 3.577 3.577 0 00.577-2.167 2.826 2.826 0 00-.54-1.832 1.788 1.788 0 00-1.463-.663 1.985 1.985 0 00-1.572.68 2.5 2.5 0 00-.595 1.7z"/>
        </g>
        <g fill="#5b5b5b">
            <path d="M335.41 77.551V76.2a2.6 2.6 0 00.557.369 4.528 4.528 0 00.684.277 5.447 5.447 0 00.721.174 4.027 4.027 0 00.67.062 2.623 2.623 0 001.583-.393 1.476 1.476 0 00.349-1.822 1.966 1.966 0 00-.482-.537 4.776 4.776 0 00-.728-.465q-.42-.222-.905-.468-.513-.26-.957-.526a4.127 4.127 0 01-.773-.588 2.449 2.449 0 01-.516-.728 2.489 2.489 0 01.105-2.119 2.524 2.524 0 01.773-.817 3.489 3.489 0 011.09-.479 4.991 4.991 0 011.248-.157 4.775 4.775 0 012.111.349v1.292a3.828 3.828 0 00-2.229-.6 3.684 3.684 0 00-.752.079 2.125 2.125 0 00-.67.256 1.491 1.491 0 00-.479.458 1.215 1.215 0 00-.184.684 1.4 1.4 0 00.14.649 1.592 1.592 0 00.413.5 4.1 4.1 0 00.667.438q.393.212.905.465t1 .547a4.581 4.581 0 01.828.636 2.848 2.848 0 01.563.772 2.176 2.176 0 01.208.971 2.459 2.459 0 01-.283 1.227 2.33 2.33 0 01-.766.817 3.341 3.341 0 01-1.111.455 6.091 6.091 0 01-1.326.14 5.469 5.469 0 01-.574-.038q-.341-.037-.7-.109a5.683 5.683 0 01-.673-.178 2.091 2.091 0 01-.507-.242zM343.729 69.17a.708.708 0 01-.512-.205.692.692 0 01-.213-.52.72.72 0 01.725-.731.724.724 0 01.523.208.731.731 0 010 1.036.72.72 0 01-.523.212zm.547 8.777h-1.121v-7h1.121zM352.52 77.387q0 3.855-3.691 3.855a4.959 4.959 0 01-2.27-.492v-1.121a4.665 4.665 0 002.256.656q2.584 0 2.584-2.748v-.766h-.027a2.832 2.832 0 01-4.508.407 3.728 3.728 0 01-.8-2.505 4.356 4.356 0 01.858-2.837 2.866 2.866 0 012.349-1.053 2.28 2.28 0 012.1 1.135h.027v-.971h1.121zm-1.121-2.6V73.75a2 2 0 00-.563-1.429 1.858 1.858 0 00-1.405-.595 1.948 1.948 0 00-1.627.755 3.374 3.374 0 00-.588 2.116 2.9 2.9 0 00.564 1.87 1.822 1.822 0 001.494.7 1.95 1.95 0 001.534-.67 2.5 2.5 0 00.592-1.714zM360.6 77.948h-1.121v-3.993q0-2.229-1.627-2.229a1.765 1.765 0 00-1.391.632 2.342 2.342 0 00-.551 1.6v3.992h-1.121v-7h1.121v1.16h.027a2.528 2.528 0 012.3-1.326 2.144 2.144 0 011.758.742 3.306 3.306 0 01.607 2.143zM367.723 77.948H366.6v-1.094h-.027a2.346 2.346 0 01-2.152 1.258 2.3 2.3 0 01-1.638-.554 1.917 1.917 0 01-.591-1.47q0-1.962 2.311-2.283l2.1-.294q0-1.784-1.441-1.784a3.444 3.444 0 00-2.283.861V71.44a4.335 4.335 0 012.379-.656q2.467 0 2.467 2.611zm-1.123-3.541l-1.687.232a2.736 2.736 0 00-1.176.386 1.113 1.113 0 00-.4.981 1.067 1.067 0 00.365.837 1.415 1.415 0 00.975.325 1.8 1.8 0 001.377-.584 2.088 2.088 0 00.543-1.48zM370.957 77.948h-1.121V67.584h1.121zM380.4 77.948h-1.367L377.4 75.2a6.081 6.081 0 00-.437-.653 2.518 2.518 0 00-.435-.441 1.507 1.507 0 00-.479-.25 1.971 1.971 0 00-.577-.079h-.943v4.17h-1.148v-9.8h2.919a4.175 4.175 0 011.186.161 2.651 2.651 0 01.943.489 2.272 2.272 0 01.625.817 2.708 2.708 0 01.227 1.145 2.757 2.757 0 01-.154.94 2.448 2.448 0 01-.437.762 2.661 2.661 0 01-.684.571 3.49 3.49 0 01-.9.366v.027a2.072 2.072 0 01.427.25 2.381 2.381 0 01.345.332 4.444 4.444 0 01.325.434c.106.162.227.35.358.564zm-5.879-8.764v3.555h1.559a2.366 2.366 0 00.8-.13 1.848 1.848 0 00.632-.373 1.693 1.693 0 00.418-.595 2 2 0 00.15-.79 1.536 1.536 0 00-.51-1.227 2.187 2.187 0 00-1.473-.441zM385.127 77.551V76.2a2.633 2.633 0 00.558.369 4.487 4.487 0 00.684.277 5.424 5.424 0 00.722.174 4.018 4.018 0 00.67.062 2.622 2.622 0 001.582-.393 1.473 1.473 0 00.349-1.822 1.962 1.962 0 00-.481-.537 4.788 4.788 0 00-.729-.465q-.42-.222-.906-.468-.513-.26-.957-.526a4.143 4.143 0 01-.771-.588 2.452 2.452 0 01-.517-.728 2.475 2.475 0 01.106-2.119 2.518 2.518 0 01.771-.817 3.5 3.5 0 011.091-.479 4.977 4.977 0 011.247-.157 4.785 4.785 0 012.113.349v1.292a3.832 3.832 0 00-2.229-.6 3.669 3.669 0 00-.752.079 2.107 2.107 0 00-.67.256 1.481 1.481 0 00-.479.458 1.216 1.216 0 00-.186.684 1.4 1.4 0 00.141.649 1.6 1.6 0 00.414.5 4.088 4.088 0 00.666.438q.393.212.906.465t1 .547a4.531 4.531 0 01.826.636 2.811 2.811 0 01.564.772 2.176 2.176 0 01.209.971 2.469 2.469 0 01-.284 1.227 2.33 2.33 0 01-.766.817 3.344 3.344 0 01-1.11.455 6.1 6.1 0 01-1.326.14 5.437 5.437 0 01-.574-.038q-.343-.037-.7-.109a5.65 5.65 0 01-.674-.178 2.118 2.118 0 01-.508-.242zM398.5 74.728h-4.941a2.614 2.614 0 00.629 1.8 2.167 2.167 0 001.654.636 3.441 3.441 0 002.174-.779v1.053a4.065 4.065 0 01-2.441.67 2.957 2.957 0 01-2.33-.954 3.9 3.9 0 01-.848-2.683 3.829 3.829 0 01.926-2.663 2.97 2.97 0 012.3-1.029 2.63 2.63 0 012.125.889 3.7 3.7 0 01.752 2.468zm-1.148-.95a2.277 2.277 0 00-.468-1.511 1.6 1.6 0 00-1.282-.54 1.809 1.809 0 00-1.346.567 2.571 2.571 0 00-.684 1.483zM403.844 72.082a1.37 1.37 0 00-.848-.226 1.43 1.43 0 00-1.2.677 3.129 3.129 0 00-.482 1.846v3.568h-1.121v-7h1.121v1.443h.027a2.451 2.451 0 01.732-1.152 1.665 1.665 0 011.1-.414 1.823 1.823 0 01.67.1zM411.125 70.948l-2.789 7h-1.1l-2.652-7h1.23l1.777 5.086a4.488 4.488 0 01.246.978h.027a4.687 4.687 0 01.219-.95l1.859-5.113zM412.9 69.17a.712.712 0 01-.514-.205.694.694 0 01-.211-.52.716.716 0 01.725-.731.722.722 0 01.522.208.729.729 0 010 1.036.717.717 0 01-.522.212zm.547 8.777h-1.121v-7h1.121zM420.49 77.626a3.642 3.642 0 01-1.914.485 3.169 3.169 0 01-2.417-.974 3.528 3.528 0 01-.919-2.526 3.884 3.884 0 01.99-2.779 3.469 3.469 0 012.646-1.049 3.681 3.681 0 011.627.342v1.148a2.851 2.851 0 00-1.668-.547 2.255 2.255 0 00-1.761.769 2.918 2.918 0 00-.687 2.02 2.779 2.779 0 00.646 1.941 2.227 2.227 0 001.733.711 2.81 2.81 0 001.723-.608zM427.811 74.728h-4.941a2.614 2.614 0 00.629 1.8 2.167 2.167 0 001.654.636 3.441 3.441 0 002.174-.779v1.053a4.065 4.065 0 01-2.441.67 2.957 2.957 0 01-2.33-.954 3.9 3.9 0 01-.848-2.683 3.829 3.829 0 01.926-2.663 2.97 2.97 0 012.3-1.029 2.63 2.63 0 012.125.889 3.7 3.7 0 01.752 2.468zm-1.148-.95a2.277 2.277 0 00-.468-1.511 1.6 1.6 0 00-1.282-.54 1.809 1.809 0 00-1.346.567 2.571 2.571 0 00-.684 1.483z"/>
        </g>
        <g fill="#969696">
            <path d="M208.27 258.403h1.5v44.201h-1.5z"/>
            <path d="M214.256 301.072l-5.236 9.067-5.235-9.067h10.471zM214.256 259.934l-5.236-9.066-5.235 9.066h10.471z"/>
        </g>
        <g fill="#969696">
            <path d="M101.919 202.753h44.201v1.5h-44.201z"/>
            <path d="M103.452 208.739l-9.067-5.236 9.067-5.236v10.472zM144.588 208.739l9.068-5.236-9.068-5.236v10.472z"/>
        </g>
        <g fill="#969696">
            <path d="M272.188 202.753h50.932v1.5h-50.932z"/>
            <path d="M321.588 208.739l9.068-5.236-9.068-5.236v10.472z"/>
        </g>
        <g fill="#969696">
            <path d="M441.188 202.753h50.932v1.5h-50.932z"/>
            <path d="M490.588 208.739l9.068-5.236-9.068-5.236v10.472z"/>
        </g>
        <g fill="#969696">
            <path d="M36.27 258.403h1.5v44.201h-1.5z"/>
            <path d="M42.256 301.072l-5.236 9.067-5.235-9.067h10.471zM42.256 259.934l-5.236-9.066-5.235 9.066h10.471z"/>
        </g>
        <g fill="#389bd5">
            <path d="M237.649 320.305h-40.918c.185.462.277.925.416 1.387H237.7a.927.927 0 01.925.925v47.206a.927.927 0 01-.925.925h-55.02a.927.927 0 01-.925-.925v-34.491c-.462-.185-.925-.37-1.387-.6v35.093a2.318 2.318 0 002.312 2.312h54.974a2.318 2.318 0 002.312-2.312v-47.208a2.289 2.289 0 00-2.317-2.312z"/>
            <path d="M198.071 356.877h-4.161a1.125 1.125 0 00-1.11 1.11v5.872a1.125 1.125 0 001.11 1.11h5.872a1.125 1.125 0 001.11-1.11v-5.04h.971l1.2-1.295-.092-1.711.416-.416 1.48.046.832-.786.046-1.48 1.017-1.11 1.248-.046V349.2h-2.31zm-3.052 6.843a.971.971 0 11.971-.971.948.948 0 01-.97.971zM221 356.877h-4.161a1.125 1.125 0 00-1.11 1.11v5.872a1.125 1.125 0 001.11 1.11h5.872a1.125 1.125 0 001.11-1.11v-5.04h.971l1.2-1.295-.092-1.711.416-.416 1.48.046.832-.786.046-1.48 1.017-1.11 1.248-.046V349.2h-2.312zm-3.052 6.843a.971.971 0 11.971-.971.948.948 0 01-.966.971zM198.071 337.181h-4.161a1.125 1.125 0 00-1.11 1.11v5.872a1.125 1.125 0 001.11 1.11h5.872a1.125 1.125 0 001.11-1.11v-5.04h.971l1.2-1.295-.092-1.711.416-.416 1.48.046.832-.786.046-1.48 1.017-1.11 1.248-.046v-2.82h-2.31zm-3.052 6.843a.971.971 0 11.971-.971.948.948 0 01-.97.971zM221 337.181h-4.161a1.125 1.125 0 00-1.11 1.11v5.872a1.125 1.125 0 001.11 1.11h5.872a1.125 1.125 0 001.11-1.11v-5.04h.971l1.2-1.295-.092-1.711.416-.416 1.48.046.832-.786.046-1.48 1.017-1.11 1.248-.046v-2.82h-2.312zm-3.052 6.843a.971.971 0 11.971-.971.948.948 0 01-.966.971zM185.125 326.131h2.682a1.727 1.727 0 001.9-1.9 1.9 1.9 0 00-1.9-1.9h-8.322l4.439-4.624v2.034h3.93a4.485 4.485 0 110 8.97l3.7 3.606a9.851 9.851 0 004.115-8 9.966 9.966 0 00-9.941-9.848 9.848 9.848 0 000 19.7 9.957 9.957 0 003.144-.509l-4.808-4.993z"/>
        </g>
        <g fill="#969696">
            <path d="M554.419 120.531h-1.5v-98.25h-75.715v-1.5h77.215v99.75z"/>
            <path d="M478.737 26.767l-9.068-5.236 9.068-5.236v10.472z"/>
        </g>
        <g fill="#969696">
            <path d="M35.938 136.996h-1.5V20.781h295.231v1.5H35.938v114.715z"/>
            <path d="M29.953 135.464l5.236 9.067 5.235-9.067H29.953z"/>
        </g>
        <path d="M50.729 325.841h-28.92l-14.46 25.1 14.46 25.1h28.92l14.46-25.1zm.116 36.323a3.9 3.9 0 01-3.933 3.933H25.626a3.9 3.9 0 01-3.933-3.933v-22.441a3.9 3.9 0 013.933-3.933h19.088l6.015 6.015v20.36h.116z" fill="#59b4d9"/>
        <path d="M34.071 354.992a5.01 5.01 0 00-.116-.578c-.116-.116-.116-.231-.231-.347s-.231-.116-.347-.231c-.116 0-.231-.116-.463-.116a1.644 1.644 0 00-.694.231.984.984 0 00-.347.578c-.116.231-.116.578-.231.925 0 .347-.116.81-.116 1.272a5.654 5.654 0 00.116 1.5 2.179 2.179 0 00.231.925 1.6 1.6 0 00.347.463.867.867 0 00.578.116.7.7 0 00.463-.116c.116 0 .231-.116.347-.231a.6.6 0 00.231-.463.867.867 0 00.116-.578c0-.231.116-.463.116-.694v-2.661zM40.9 343.309a5.01 5.01 0 00-.116-.578c-.116-.116-.116-.231-.231-.347s-.231-.116-.347-.231c-.116 0-.231-.116-.463-.116a1.644 1.644 0 00-.694.231.984.984 0 00-.347.578c-.116.231-.116.578-.231.925 0 .347-.116.81-.116 1.272a5.654 5.654 0 00.116 1.5 2.179 2.179 0 00.231.925 1.6 1.6 0 00.347.463.867.867 0 00.578.116.7.7 0 00.463-.116c.116 0 .231-.116.347-.231a.6.6 0 00.231-.463.867.867 0 00.116-.578c0-.231.116-.463.116-.694v-2.661z" fill="#0072c6"/>
        <path d="M43.788 337.987H25.626a1.779 1.779 0 00-1.735 1.735v22.442a1.779 1.779 0 001.735 1.735h21.285a1.779 1.779 0 001.735-1.735v-19.2h-4.858v-4.974zM30.369 342.5v-.231a.113.113 0 01.116-.116l.116-.116 1.851-1.157h1.388a.113.113 0 01.116.116v7.172h1.5l.116.116v1.157a.113.113 0 01-.116.116h-4.971l-.116-.116v-1.157a.113.113 0 01.116-.116h1.735v-5.553l-1.388.81a.4.4 0 00-.231.116h-.116a.4.4 0 01-.116-.231v-.81zm5.321 16.079a2.539 2.539 0 01-.578 1.388 3.521 3.521 0 01-.925.925 2.894 2.894 0 01-1.5.347 3.2 3.2 0 01-1.5-.347 3.118 3.118 0 01-.925-.81 3.9 3.9 0 01-.463-1.388 14.864 14.864 0 010-3.7 3.861 3.861 0 01.578-1.388 3.521 3.521 0 01.925-.925 2.894 2.894 0 011.5-.347 3.2 3.2 0 011.5.347 3.118 3.118 0 01.925.81 3.9 3.9 0 01.463 1.388 9.35 9.35 0 01.116 1.851 4.851 4.851 0 01-.116 1.848zm6.709 2.082v.231a.113.113 0 01-.116.116H37.31l-.116-.116v-1.157a.113.113 0 01.116-.116h1.735v-5.553l-1.388.81a.4.4 0 00-.231.116h-.116a.4.4 0 01-.116-.231v-.81a.113.113 0 01.116-.116l.116-.116 1.851-1.157h1.388a.113.113 0 01.116.116v7.172h1.5l.116.116v.578c.119.001.119.117.003.117zm.116-13.766a2.539 2.539 0 01-.578 1.388 3.521 3.521 0 01-.925.925 2.894 2.894 0 01-1.5.347 3.2 3.2 0 01-1.5-.347 3.118 3.118 0 01-.925-.81 3.9 3.9 0 01-.463-1.388 14.864 14.864 0 010-3.7 3.861 3.861 0 01.578-1.388 3.521 3.521 0 01.925-.925 2.894 2.894 0 011.5-.347 3.2 3.2 0 011.5.347 3.118 3.118 0 01.925.81 3.9 3.9 0 01.463 1.388 9.35 9.35 0 01.116 1.851 4.851 4.851 0 01-.115 1.849z" fill="#0072c6"/>
        <path d="M224.462 212.782a24.995 24.995 0 114.656-35.03 24.9 24.9 0 01-4.656 35.03" fill="#59b4d9"/>
        <path d="M219.869 197.321a5.385 5.385 0 007.541 1c.123-.094.218-.208.33-.309 2.409 1.7 4.082 2.817 5.025 3.459a21.566 21.566 0 00.67-2.142c-1-.741-2.343-1.778-4.29-3.356a5.34 5.34 0 00-7.666-6.548 222.638 222.638 0 01-8.293-7.833c9.165-4.929 15.676-4.207 15.676-4.207a25.109 25.109 0 00-3.606-3.7 26.627 26.627 0 00-16.729 3.119q-3.429-3.589-6.983-7.712a23.264 23.264 0 00-3.312 1.347 53.84 53.84 0 006.754 8.565l.017.017a46.293 46.293 0 00-6.944 6.015c-.29.309-.569.62-.842.931a7.546 7.546 0 00-4.117.282 18.265 18.265 0 01-1.724-10.832 26.353 26.353 0 00-2.692 3.267 16.016 16.016 0 00.985 10.1 7.538 7.538 0 00-.005 9.153 7.743 7.743 0 00.559.645 37.87 37.87 0 00-1.46 8.761c.237.322.237.582.472.9a25.375 25.375 0 004.16 4.008 27.556 27.556 0 011.714-11.372 7.507 7.507 0 003.483-.566c.64.563 1.31 1.132 2.025 1.711a41.672 41.672 0 007.285 4.643 4.941 4.941 0 007.951 4.437 4.918 4.918 0 001.108-1.216 44.6 44.6 0 009.806 1.019c.386 0 2.177-2.436 3.2-3.946a26.373 26.373 0 01-12.3-.84 4.913 4.913 0 00-7.516-3.121 46.853 46.853 0 01-6.758-4.49q-.707-.559-1.359-1.118a7.578 7.578 0 00.318-7.55c.286-.286.567-.573.871-.857a54.887 54.887 0 016.519-5.274c-.082-.076-.156-.156-.236-.233.081.075.157.152.239.227 3.121 2.886 6.43 5.621 9.564 8.065a5.348 5.348 0 00.56 5.551z" fill="#fff"/>
        <path d="M378.427 34.878l2.688-6.54h6.031a4.36 4.36 0 100-8.719h-19.618l10.9-10.9v4.36h8.719a10.868 10.868 0 01.509 21.726l8.865 8.865a23.961 23.961 0 10-13.66 4.287 23.1 23.1 0 007.484-1.235z" fill="#00abec"/>
        <path d="M347.321 154.445a.963.963 0 000-1.224l-1.65-1.65-7.345-7.132a.835.835 0 00-1.171 0 .81.81 0 000 1.224l7.718 7.558a.9.9 0 010 1.224L337 162.27a.9.9 0 000 1.224.89.89 0 001.171 0l7.292-7.239.053-.053z" fill="#3999c6"/>
        <g mask="url(#a)">
            <path d="M313.682 154.445a.963.963 0 010-1.224l1.65-1.65 7.345-7.132a.835.835 0 011.171 0 .81.81 0 010 1.224l-7.558 7.558a.9.9 0 000 1.224l7.718 7.824a.9.9 0 010 1.224.89.89 0 01-1.171 0l-7.452-7.133-.053-.053z" fill="#3999c6"/>
        </g>
        <g mask="url(#b)">
            <path fill="#fcd116" d="M338.805 138.531h-10.379l-5.589 15.755 6.813.053-5.322 15.595 14.69-20.811h-7.132l6.919-10.592z"/>
        </g>
        <g mask="url(#c)">
            <path fill="#ff8c00" d="M331.886 149.123l6.919-10.592h-5.429l-5.748 13.093 6.813.054-10.114 18.256 14.691-20.811h-7.132z"/>
        </g>
        <path d="M177.882 154.445a.963.963 0 000-1.224l-1.65-1.65-7.345-7.132a.835.835 0 00-1.171 0 .81.81 0 000 1.224l7.718 7.558a.9.9 0 010 1.224l-7.877 7.824a.9.9 0 000 1.224.89.89 0 001.171 0l7.292-7.239.053-.053z" fill="#3999c6"/>
        <g mask="url(#d)">
            <path d="M144.244 154.445a.963.963 0 010-1.224l1.65-1.65 7.345-7.132a.835.835 0 011.171 0 .81.81 0 010 1.224l-7.558 7.558a.9.9 0 000 1.224l7.718 7.824a.9.9 0 010 1.224.89.89 0 01-1.171 0l-7.452-7.133-.053-.053z" fill="#3999c6"/>
        </g>
        <g mask="url(#e)">
            <path fill="#fcd116" d="M169.366 138.531h-10.379l-5.589 15.755 6.813.053-5.322 15.595 14.69-20.811h-7.132l6.919-10.592z"/>
        </g>
        <g mask="url(#f)">
            <path fill="#ff8c00" d="M162.447 149.123l6.919-10.592h-5.429l-5.748 13.093 6.813.054-10.113 18.256 14.69-20.811h-7.132z"/>
        </g>
        <path d="M518.321 154.445a.963.963 0 000-1.224l-1.65-1.65-7.345-7.132a.835.835 0 00-1.171 0 .81.81 0 000 1.224l7.718 7.558a.9.9 0 010 1.224L508 162.27a.9.9 0 000 1.224.89.89 0 001.171 0l7.292-7.239.053-.053z" fill="#3999c6"/>
        <g mask="url(#g)">
            <path d="M484.682 154.445a.963.963 0 010-1.224l1.65-1.65 7.345-7.132a.835.835 0 011.171 0 .81.81 0 010 1.224l-7.558 7.558a.9.9 0 000 1.224l7.718 7.824a.9.9 0 010 1.224.89.89 0 01-1.171 0l-7.452-7.133-.053-.053z" fill="#3999c6"/>
        </g>
        <g mask="url(#h)">
            <path fill="#fcd116" d="M509.805 138.531h-10.379l-5.589 15.755 6.813.053-5.322 15.595 14.69-20.811h-7.132l6.919-10.592z"/>
        </g>
        <g mask="url(#i)">
            <path fill="#ff8c00" d="M502.886 149.123l6.919-10.592h-5.429l-5.748 13.093 6.813.054-10.114 18.256 14.691-20.811h-7.132z"/>
        </g>
        <path d="M274.021 154.584h-1.274v-4.246a8.006 8.006 0 00-2-5.32c-.047-.051-.088-.108-.134-.159a7.163 7.163 0 00-10.57 0 8.006 8.006 0 00-2.132 5.478v4.248h-1.273a.957.957 0 00-.958.958v11.228a.958.958 0 00.958.958h17.378a.958.958 0 00.958-.958v-11.228a.958.958 0 00-.953-.959zm-4.8 0h-7.788v-4.246a4.48 4.48 0 011.181-3.072 3.644 3.644 0 015.425 0 4.386 4.386 0 01.465.6 4.545 4.545 0 01.717 2.468v4.249z" fill="#3999c6"/>
        <g fill="#5b5b5b">
            <path d="M369.582 230.137l-2.769 9.8h-1.347l-2.017-7.164a4.429 4.429 0 01-.157-1h-.027a5.084 5.084 0 01-.178.984l-2.03 7.178h-1.333l-2.871-9.8h1.265l2.085 7.52a5.03 5.03 0 01.164.984h.034a5.709 5.709 0 01.212-.984l2.167-7.52h1.1l2.078 7.574a5.677 5.677 0 01.164.916h.027a5.465 5.465 0 01.185-.943l2-7.547zM376.179 236.72h-4.942a2.614 2.614 0 00.629 1.8 2.167 2.167 0 001.654.636 3.441 3.441 0 002.174-.779v1.053a4.062 4.062 0 01-2.44.67 2.957 2.957 0 01-2.331-.954 3.9 3.9 0 01-.848-2.683A3.829 3.829 0 01371 233.8a2.971 2.971 0 012.3-1.029 2.632 2.632 0 012.126.889 3.707 3.707 0 01.752 2.468zm-1.148-.95a2.288 2.288 0 00-.468-1.511 1.6 1.6 0 00-1.282-.54 1.811 1.811 0 00-1.347.567 2.571 2.571 0 00-.684 1.483zM379.022 238.928H379v1.012h-1.121v-10.364H379v4.594h.027a2.652 2.652 0 012.42-1.395 2.565 2.565 0 012.108.94 3.877 3.877 0 01.763 2.519 4.34 4.34 0 01-.854 2.813 2.847 2.847 0 01-2.338 1.056 2.3 2.3 0 01-2.104-1.175zM379 236.1v.978a2.085 2.085 0 00.563 1.473 2.013 2.013 0 003.029-.174 3.577 3.577 0 00.577-2.167 2.826 2.826 0 00-.54-1.832 1.788 1.788 0 00-1.463-.663 1.985 1.985 0 00-1.572.68A2.5 2.5 0 00379 236.1zM397.678 239.939h-1.271l-1.039-2.748h-4.156l-.978 2.748h-1.278l3.76-9.8h1.184zm-2.687-3.78l-1.538-4.177a3.9 3.9 0 01-.15-.656h-.027a3.669 3.669 0 01-.157.656l-1.524 4.177zM400.118 238.928h-.027v4.231h-1.121v-10.22h1.121v1.23h.027a2.652 2.652 0 012.42-1.395 2.564 2.564 0 012.112.94 3.893 3.893 0 01.759 2.519 4.34 4.34 0 01-.854 2.813 2.847 2.847 0 01-2.338 1.056 2.342 2.342 0 01-2.099-1.174zm-.027-2.823v.978a2.085 2.085 0 00.563 1.473 2.013 2.013 0 003.029-.174 3.577 3.577 0 00.577-2.167 2.826 2.826 0 00-.54-1.832 1.788 1.788 0 00-1.463-.663 1.985 1.985 0 00-1.572.68 2.5 2.5 0 00-.594 1.7zM408.349 238.928h-.027v4.231H407.2v-10.22h1.121v1.23h.027a2.652 2.652 0 012.42-1.395 2.564 2.564 0 012.112.94 3.893 3.893 0 01.759 2.519 4.34 4.34 0 01-.854 2.813 2.847 2.847 0 01-2.338 1.056 2.342 2.342 0 01-2.098-1.174zm-.027-2.823v.978a2.085 2.085 0 00.563 1.473 2.013 2.013 0 003.029-.174 3.577 3.577 0 00.577-2.167 2.826 2.826 0 00-.54-1.832 1.788 1.788 0 00-1.463-.663 1.985 1.985 0 00-1.572.68 2.5 2.5 0 00-.595 1.7z"/>
        </g>
        <g fill="#5b5b5b">
            <path d="M509.486 239.543v-1.354a2.6 2.6 0 00.557.369 4.528 4.528 0 00.684.277 5.447 5.447 0 00.721.174 4.027 4.027 0 00.67.062 2.623 2.623 0 001.583-.393 1.476 1.476 0 00.349-1.822 1.966 1.966 0 00-.482-.537 4.776 4.776 0 00-.728-.465q-.42-.222-.905-.468-.513-.26-.957-.526a4.127 4.127 0 01-.773-.588 2.449 2.449 0 01-.516-.728 2.489 2.489 0 01.105-2.119 2.524 2.524 0 01.773-.817 3.489 3.489 0 011.09-.479 4.991 4.991 0 011.248-.157 4.775 4.775 0 012.111.349v1.292a3.828 3.828 0 00-2.229-.6 3.684 3.684 0 00-.752.079 2.125 2.125 0 00-.67.256 1.491 1.491 0 00-.479.458 1.215 1.215 0 00-.184.684 1.4 1.4 0 00.14.649 1.592 1.592 0 00.413.5 4.1 4.1 0 00.667.438q.393.212.905.465t1 .547a4.581 4.581 0 01.828.636 2.848 2.848 0 01.563.772 2.176 2.176 0 01.208.971 2.459 2.459 0 01-.283 1.227 2.33 2.33 0 01-.766.817 3.341 3.341 0 01-1.111.455 6.091 6.091 0 01-1.326.14 5.469 5.469 0 01-.574-.038q-.341-.037-.7-.109a5.683 5.683 0 01-.673-.178 2.091 2.091 0 01-.507-.239zM521.332 240.1a4.325 4.325 0 01-3.342-1.374 5.106 5.106 0 01-1.252-3.575 5.383 5.383 0 011.279-3.773 4.475 4.475 0 013.479-1.408 4.207 4.207 0 013.268 1.367 5.1 5.1 0 011.244 3.575 5.417 5.417 0 01-1.271 3.794 3.75 3.75 0 01-.643.574l2.756 1.976h-2.086l-1.846-1.381a5.311 5.311 0 01-1.586.225zm.082-9.092a3.16 3.16 0 00-2.508 1.114 4.314 4.314 0 00-.965 2.926 4.381 4.381 0 00.938 2.919 3.078 3.078 0 002.453 1.1 3.217 3.217 0 002.543-1.053 4.3 4.3 0 00.93-2.946 4.479 4.479 0 00-.9-3 3.093 3.093 0 00-2.491-1.056zM533.021 239.939h-5.086v-9.8h1.148v8.761h3.938zM538.361 239.939v-9.8h2.707q5.181 0 5.182 4.778a4.817 4.817 0 01-1.439 3.647 5.336 5.336 0 01-3.852 1.377zm1.148-8.764v7.725h1.463a4.149 4.149 0 003-1.032 3.869 3.869 0 001.074-2.926q0-3.767-4.006-3.767zM553.037 239.939h-1.121v-1.094h-.027a2.346 2.346 0 01-2.152 1.258 2.3 2.3 0 01-1.638-.554 1.917 1.917 0 01-.591-1.47q0-1.962 2.311-2.283l2.1-.294q0-1.784-1.441-1.784a3.444 3.444 0 00-2.283.861v-1.148a4.335 4.335 0 012.379-.656q2.467 0 2.467 2.611zm-1.121-3.541l-1.687.232a2.736 2.736 0 00-1.176.386 1.113 1.113 0 00-.4.981 1.067 1.067 0 00.365.837 1.415 1.415 0 00.975.325 1.8 1.8 0 001.377-.584 2.088 2.088 0 00.543-1.48zM558.4 239.871a2.155 2.155 0 01-1.045.219q-1.84 0-1.84-2.051V233.9h-1.2v-.957h1.2v-1.713l1.121-.362v2.071h1.764v.957h-1.764v3.944a1.631 1.631 0 00.24 1 .954.954 0 00.793.3 1.177 1.177 0 00.73-.232zM564.9 239.939h-1.121v-1.094h-.027a2.346 2.346 0 01-2.152 1.255 2.3 2.3 0 01-1.638-.554 1.917 1.917 0 01-.591-1.47q0-1.962 2.311-2.283l2.1-.294q0-1.784-1.441-1.784a3.444 3.444 0 00-2.283.861v-1.148a4.335 4.335 0 012.379-.656q2.467 0 2.467 2.611zm-1.121-3.541l-1.687.232a2.736 2.736 0 00-1.176.386 1.113 1.113 0 00-.4.981 1.067 1.067 0 00.365.837 1.415 1.415 0 00.975.325 1.8 1.8 0 001.377-.584 2.088 2.088 0 00.543-1.48zM568.166 238.928h-.027v1.012h-1.121v-10.364h1.121v4.594h.027a2.65 2.65 0 012.42-1.395 2.566 2.566 0 012.108.94 3.883 3.883 0 01.763 2.519 4.335 4.335 0 01-.855 2.813 2.844 2.844 0 01-2.338 1.056 2.3 2.3 0 01-2.098-1.175zm-.027-2.823v.978a2.081 2.081 0 00.563 1.473 2.012 2.012 0 003.028-.174 3.577 3.577 0 00.578-2.167 2.82 2.82 0 00-.541-1.832 1.787 1.787 0 00-1.463-.663 1.986 1.986 0 00-1.572.68 2.5 2.5 0 00-.593 1.7zM580.074 239.939h-1.121v-1.094h-.027a2.349 2.349 0 01-2.154 1.258 2.3 2.3 0 01-1.637-.554 1.917 1.917 0 01-.592-1.47q0-1.962 2.311-2.283l2.1-.294q0-1.784-1.443-1.784a3.448 3.448 0 00-2.283.861v-1.148a4.34 4.34 0 012.379-.656q2.468 0 2.469 2.611zm-1.121-3.541l-1.689.232a2.741 2.741 0 00-1.176.386 1.116 1.116 0 00-.4.981 1.068 1.068 0 00.366.837 1.412 1.412 0 00.974.325 1.8 1.8 0 001.378-.584 2.088 2.088 0 00.544-1.48zM581.762 239.686v-1.2a3.321 3.321 0 002.018.677q1.477 0 1.477-.984a.857.857 0 00-.127-.475 1.254 1.254 0 00-.342-.345 2.641 2.641 0 00-.506-.27c-.193-.08-.4-.163-.625-.25a7.935 7.935 0 01-.817-.373 2.459 2.459 0 01-.588-.424 1.566 1.566 0 01-.355-.537 1.892 1.892 0 01-.12-.7 1.673 1.673 0 01.227-.872 2 2 0 01.6-.636 2.791 2.791 0 01.857-.386 3.809 3.809 0 01.994-.13 4.018 4.018 0 011.627.314v1.135a3.169 3.169 0 00-1.777-.506 2.07 2.07 0 00-.566.072 1.385 1.385 0 00-.435.2.932.932 0 00-.28.311.815.815 0 00-.1.4.956.956 0 00.1.458 1.01 1.01 0 00.291.328 2.2 2.2 0 00.465.26q.272.116.621.253a8.587 8.587 0 01.834.366 2.858 2.858 0 01.629.424 1.653 1.653 0 01.4.543 1.747 1.747 0 01.141.731 1.729 1.729 0 01-.229.9 1.961 1.961 0 01-.612.636 2.8 2.8 0 01-.881.376 4.36 4.36 0 01-1.047.123 3.976 3.976 0 01-1.874-.419zM593.752 236.72h-4.941a2.614 2.614 0 00.629 1.8 2.167 2.167 0 001.654.636 3.441 3.441 0 002.174-.779v1.053a4.065 4.065 0 01-2.441.67 2.957 2.957 0 01-2.33-.954 3.9 3.9 0 01-.848-2.683 3.829 3.829 0 01.926-2.663 2.97 2.97 0 012.3-1.029 2.63 2.63 0 012.125.889 3.7 3.7 0 01.752 2.468zm-1.148-.95a2.277 2.277 0 00-.468-1.511 1.6 1.6 0 00-1.282-.54 1.809 1.809 0 00-1.346.567 2.571 2.571 0 00-.684 1.483z"/>
        </g>
        <path d="M402.462 212.782a24.995 24.995 0 114.656-35.03 24.9 24.9 0 01-4.656 35.03" fill="#59b4d9"/>
        <path d="M397.869 197.321a5.385 5.385 0 007.541 1c.123-.094.218-.208.33-.309 2.409 1.7 4.082 2.817 5.025 3.459a21.566 21.566 0 00.67-2.142c-1-.741-2.343-1.778-4.29-3.356a5.34 5.34 0 00-7.666-6.548 222.638 222.638 0 01-8.293-7.833c9.165-4.929 15.676-4.207 15.676-4.207a25.109 25.109 0 00-3.606-3.7 26.627 26.627 0 00-16.729 3.119q-3.429-3.589-6.983-7.712a23.264 23.264 0 00-3.312 1.347 53.84 53.84 0 006.754 8.565l.017.017a46.293 46.293 0 00-6.944 6.015c-.29.309-.569.62-.842.931a7.546 7.546 0 00-4.117.282 18.265 18.265 0 01-1.724-10.832 26.353 26.353 0 00-2.692 3.267 16.016 16.016 0 00.985 10.1 7.538 7.538 0 00-.005 9.153 7.743 7.743 0 00.559.645 37.87 37.87 0 00-1.46 8.761c.237.322.237.582.472.9a25.375 25.375 0 004.16 4.008 27.556 27.556 0 011.714-11.372 7.507 7.507 0 003.483-.566c.64.563 1.31 1.132 2.025 1.711a41.672 41.672 0 007.285 4.643 4.941 4.941 0 007.951 4.437 4.918 4.918 0 001.108-1.216 44.6 44.6 0 009.806 1.019c.386 0 2.177-2.436 3.2-3.946a26.373 26.373 0 01-12.3-.84 4.913 4.913 0 00-7.516-3.121 46.853 46.853 0 01-6.758-4.49q-.707-.559-1.359-1.118a7.578 7.578 0 00.318-7.55c.286-.286.567-.573.871-.857a54.887 54.887 0 016.519-5.274c-.082-.076-.156-.156-.236-.233.081.075.157.152.239.227 3.121 2.886 6.43 5.621 9.564 8.065a5.348 5.348 0 00.56 5.551z" fill="#fff"/>
        <path d="M534.526 174.731v36.111c0 3.749 8.392 6.789 18.743 6.789v-42.9z" fill="#0072c6"/>
        <path d="M553.012 217.63h.257c10.351 0 18.743-3.038 18.743-6.788v-36.111h-19z" fill="#0072c6"/>
        <g opacity=".15" style="isolation:isolate">
            <path d="M553.012 217.63h.257c10.351 0 18.743-3.038 18.743-6.788v-36.111h-19z" fill="#fff"/>
        </g>
        <path d="M572.012 174.731c0 3.749-8.392 6.788-18.743 6.788s-18.743-3.039-18.743-6.788 8.392-6.788 18.743-6.788 18.743 3.039 18.743 6.788" fill="#fff"/>
        <path d="M568.18 174.34c0 2.475-6.676 4.479-14.911 4.479s-14.912-2-14.912-4.479 6.677-4.479 14.912-4.479 14.911 2.005 14.911 4.479" fill="#7fba00"/>
        <path d="M565.056 177.077c1.952-.757 3.125-1.7 3.125-2.735 0-2.475-6.676-4.48-14.912-4.48s-14.911 2.005-14.911 4.48c0 1.03 1.173 1.978 3.125 2.735a40.768 40.768 0 0123.573 0" fill="#b8d432"/>
        <path d="M547.316 199.8a3.079 3.079 0 01-1.221 2.607 5.475 5.475 0 01-3.373.924 6.416 6.416 0 01-3.061-.66v-2.64a4.723 4.723 0 003.126 1.205 2.127 2.127 0 001.275-.33 1.032 1.032 0 00.45-.875 1.224 1.224 0 00-.433-.932 7.956 7.956 0 00-1.761-1.023q-2.706-1.269-2.706-3.464a3.127 3.127 0 011.18-2.553 4.813 4.813 0 013.134-.961 7.83 7.83 0 012.871.454v2.466a4.679 4.679 0 00-2.722-.825 2.015 2.015 0 00-1.212.325 1.026 1.026 0 00-.445.87 1.243 1.243 0 00.359.92 5.8 5.8 0 001.472.887 7.293 7.293 0 012.364 1.592 2.965 2.965 0 01.703 2.013zM560.043 197.125a6.748 6.748 0 01-.949 3.621 5.064 5.064 0 01-2.672 2.153l3.431 3.176h-3.464l-2.45-2.747a5.744 5.744 0 01-2.842-.833 5.221 5.221 0 01-1.955-2.124 6.518 6.518 0 01-.689-3.007 7.028 7.028 0 01.746-3.279 5.3 5.3 0 012.1-2.215 6.133 6.133 0 013.1-.775 5.706 5.706 0 012.924.751 5.122 5.122 0 012 2.136 6.752 6.752 0 01.72 3.143zm-2.8.149a4.628 4.628 0 00-.784-2.842 2.537 2.537 0 00-2.145-1.044 2.693 2.693 0 00-2.219 1.047 5.091 5.091 0 00-.017 5.555 2.625 2.625 0 002.169 1.035 2.66 2.66 0 002.186-1 4.251 4.251 0 00.806-2.751zM569.042 203.122h-7.044v-11.828h2.664v9.667h4.38v2.161z" fill="#fff"/>
        <g>
            
                <circle cx="37.281" cy="279.685" fill="#a5ce00" r="14"/>
                <text font-family="SegoeUI, Segoe UI" font-size="14" transform="translate(33.699 284.738)">
                    1
                </text>
            
            
                <circle cx="209.281" cy="279.685" fill="#a5ce00" r="14"/>
                <text font-family="SegoeUI, Segoe UI" font-size="14" transform="translate(205.699 284.738)">
                    2
                </text>
            
            
                <circle cx="295.947" cy="204.352" fill="#a5ce00" r="14"/>
                <text font-family="SegoeUI, Segoe UI" font-size="14" transform="translate(292.366 209.405)">
                    3
                </text>
            
            
                <circle cx="467.281" cy="204.352" fill="#a5ce00" r="14"/>
                <text font-family="SegoeUI, Segoe UI" font-size="14" transform="translate(463.699 209.405)">
                    4
                </text>
            
            
                <circle cx="553.281" cy="73.019" fill="#a5ce00" r="14"/>
                <text font-family="SegoeUI, Segoe UI" font-size="14" transform="translate(549.699 78.072)">
                    5
                </text>
            
            
                <circle cx="123.281" cy="20.352" fill="#a5ce00" r="14"/>
                <text font-family="SegoeUI, Segoe UI" font-size="14" transform="translate(119.699 25.405)">
                    6
                </text>
            
        </g>
    </g>
</svg>
