<svg class="architecture-diagram" aria-labelledby="loan-credit-risk-with-sql-server" height="71.778" viewbox="0 0 811.074 71.778" width="811.074" xmlns="http://www.w3.org/2000/svg">
    <g data-name="Layer 2">
        <g data-name="Layer 1">
            <g fill="#969696">
                <path d="M124.921 22.731h238.265v1.5H124.921z"/>
                <path d="M361.655 18.246l9.067 5.235-9.067 5.236V18.246z"/>
            </g>
            <g fill="#969696">
                <path d="M459.922 22.731h239.265v1.5H459.922z"/>
                <path d="M697.655 18.246l9.067 5.235-9.067 5.236V18.246z"/>
            </g>
            <g fill="#5b5b5b">
                <path d="M382.074 67.9H380.8l-1.039-2.748h-4.156l-.975 2.748h-1.278l3.76-9.8h1.188zm-2.687-3.78l-1.538-4.177a3.974 3.974 0 01-.15-.656h-.027a3.69 3.69 0 01-.157.656l-1.524 4.177zM388.247 61.224l-4.147 5.721h4.1v.955h-5.749v-.349l4.143-5.694h-3.753V60.9h5.4zM395.356 67.9h-1.121v-1.105h-.027a2.3 2.3 0 01-2.16 1.271q-2.5 0-2.5-2.98V60.9h1.114v4.006q0 2.215 1.7 2.215a1.715 1.715 0 001.35-.6 2.315 2.315 0 00.53-1.583V60.9h1.121zM401.27 62.037a1.371 1.371 0 00-.848-.226 1.431 1.431 0 00-1.2.677 3.129 3.129 0 00-.482 1.846V67.9h-1.121v-7h1.121v1.442h.027a2.444 2.444 0 01.731-1.152 1.667 1.667 0 011.1-.414 1.828 1.828 0 01.67.1zM407.928 64.683h-4.942a2.617 2.617 0 00.629 1.8 2.168 2.168 0 001.654.636 3.44 3.44 0 002.174-.779v1.06a4.062 4.062 0 01-2.44.67 2.958 2.958 0 01-2.331-.954 3.9 3.9 0 01-.848-2.683 3.827 3.827 0 01.926-2.663 2.969 2.969 0 012.3-1.029 2.632 2.632 0 012.126.889 3.705 3.705 0 01.752 2.468zm-1.148-.95a2.281 2.281 0 00-.468-1.511 1.6 1.6 0 00-1.282-.54 1.81 1.81 0 00-1.347.567 2.574 2.574 0 00-.683 1.483zM413.608 67.9v-9.8h2.707q5.182 0 5.182 4.778a4.816 4.816 0 01-1.439 3.647 5.338 5.338 0 01-3.852 1.377zm1.148-8.764v7.725h1.463a4.153 4.153 0 003-1.032 3.87 3.87 0 001.073-2.926q0-3.767-4.006-3.767zM422.967 67.506v-1.354a2.622 2.622 0 00.557.369 4.507 4.507 0 00.684.277 5.436 5.436 0 00.721.174 4.02 4.02 0 00.67.062 2.623 2.623 0 001.583-.393 1.474 1.474 0 00.349-1.822 1.964 1.964 0 00-.482-.537 4.782 4.782 0 00-.728-.465q-.42-.222-.906-.468-.513-.26-.957-.526a4.135 4.135 0 01-.772-.588 2.455 2.455 0 01-.516-.728 2.482 2.482 0 01.106-2.119 2.519 2.519 0 01.772-.817 3.5 3.5 0 011.09-.479 4.984 4.984 0 011.248-.157 4.781 4.781 0 012.112.349v1.292a3.831 3.831 0 00-2.229-.6 3.675 3.675 0 00-.752.079 2.114 2.114 0 00-.67.256 1.483 1.483 0 00-.479.458 1.216 1.216 0 00-.185.684 1.406 1.406 0 00.14.649 1.59 1.59 0 00.414.5 4.094 4.094 0 00.667.438q.393.212.906.465t1 .547a4.565 4.565 0 01.827.636 2.829 2.829 0 01.564.772 2.173 2.173 0 01.208.971 2.464 2.464 0 01-.284 1.227 2.328 2.328 0 01-.766.817 3.345 3.345 0 01-1.111.455 6.1 6.1 0 01-1.326.14 5.445 5.445 0 01-.574-.038q-.342-.037-.7-.109a5.654 5.654 0 01-.673-.178 2.1 2.1 0 01-.508-.239zM438.149 58.1l-3.63 9.8h-1.265l-3.554-9.8h1.278l2.714 7.772a4.631 4.631 0 01.2.868h.027a4.248 4.248 0 01.226-.882l2.769-7.759zM449.552 67.9h-1.142v-6.574q0-.779.1-1.907h-.027a6.121 6.121 0 01-.294.95l-3.35 7.533h-.561l-3.343-7.479a5.844 5.844 0 01-.294-1h-.027q.055.588.055 1.921V67.9h-1.107v-9.8h1.518l3.008 6.836a8.744 8.744 0 01.451 1.176h.041q.294-.806.472-1.2l3.069-6.809h1.436z"/>
            </g>
            <g fill="#5b5b5b">
                <path d="M572.794 13.506v-1.354a2.622 2.622 0 00.557.369 4.507 4.507 0 00.684.277 5.436 5.436 0 00.721.174 4.02 4.02 0 00.67.062 2.623 2.623 0 001.583-.393 1.474 1.474 0 00.349-1.822 1.964 1.964 0 00-.482-.537 4.782 4.782 0 00-.728-.465q-.42-.222-.906-.468-.513-.26-.957-.526a4.135 4.135 0 01-.772-.588 2.455 2.455 0 01-.513-.728 2.25 2.25 0 01-.188-.954 2.242 2.242 0 01.294-1.166 2.519 2.519 0 01.772-.817 3.5 3.5 0 011.09-.479 4.984 4.984 0 011.248-.157 4.781 4.781 0 012.112.349v1.293a3.831 3.831 0 00-2.229-.6 3.675 3.675 0 00-.752.079 2.114 2.114 0 00-.67.256 1.483 1.483 0 00-.479.458 1.216 1.216 0 00-.185.684 1.406 1.406 0 00.14.649 1.59 1.59 0 00.414.5 4.094 4.094 0 00.667.438q.393.212.906.465t1 .547a4.565 4.565 0 01.827.636 2.829 2.829 0 01.564.772 2.173 2.173 0 01.208.971 2.464 2.464 0 01-.284 1.227 2.328 2.328 0 01-.766.817 3.345 3.345 0 01-1.111.455 6.1 6.1 0 01-1.326.14 5.445 5.445 0 01-.574-.038q-.342-.037-.7-.109a5.654 5.654 0 01-.673-.178 2.1 2.1 0 01-.511-.239zM585.311 13.581a3.641 3.641 0 01-1.914.485 3.169 3.169 0 01-2.417-.974 3.53 3.53 0 01-.919-2.526 3.881 3.881 0 01.991-2.779 3.466 3.466 0 012.648-1.049 3.68 3.68 0 011.627.342v1.148a2.85 2.85 0 00-1.668-.547 2.254 2.254 0 00-1.76.769 2.918 2.918 0 00-.687 2.02 2.779 2.779 0 00.646 1.941 2.226 2.226 0 001.733.711 2.809 2.809 0 001.723-.608zM589.932 14.066a3.247 3.247 0 01-2.478-.981 3.633 3.633 0 01-.926-2.6 3.785 3.785 0 01.964-2.755 3.466 3.466 0 012.6-.991 3.14 3.14 0 012.444.964 3.823 3.823 0 01.878 2.673 3.761 3.761 0 01-.947 2.683 3.317 3.317 0 01-2.535 1.007zm.082-6.385a2.133 2.133 0 00-1.709.735 3.017 3.017 0 00-.629 2.027 2.854 2.854 0 00.636 1.962 2.161 2.161 0 001.7.718 2.05 2.05 0 001.671-.7 3.055 3.055 0 00.584-2 3.108 3.108 0 00-.584-2.023 2.04 2.04 0 00-1.669-.718zM598.859 8.037a1.371 1.371 0 00-.848-.226 1.431 1.431 0 00-1.2.677 3.129 3.129 0 00-.482 1.846V13.9h-1.121v-7h1.121v1.445h.027a2.444 2.444 0 01.731-1.152 1.667 1.667 0 011.1-.414 1.828 1.828 0 01.67.1zM605.518 10.683h-4.942a2.617 2.617 0 00.629 1.8 2.168 2.168 0 001.654.636 3.44 3.44 0 002.174-.779v1.06a4.062 4.062 0 01-2.44.67 2.958 2.958 0 01-2.331-.954 3.9 3.9 0 01-.848-2.683 3.827 3.827 0 01.926-2.663 2.969 2.969 0 012.3-1.029 2.632 2.632 0 012.126.889 3.705 3.705 0 01.752 2.468zm-1.148-.95a2.281 2.281 0 00-.468-1.511 1.6 1.6 0 00-1.282-.54 1.81 1.81 0 00-1.347.567 2.574 2.574 0 00-.684 1.483z"/>
            </g>
            <g fill="#5b5b5b">
                <path d="M152.753 13.9V4.1h2.707q5.182 0 5.182 4.778a4.816 4.816 0 01-1.439 3.647 5.338 5.338 0 01-3.852 1.377zm1.147-8.761v7.725h1.463a4.153 4.153 0 003-1.032 3.87 3.87 0 001.073-2.926q0-3.767-4.006-3.767zM168.045 10.683H163.1a2.617 2.617 0 00.629 1.8 2.168 2.168 0 001.654.636 3.44 3.44 0 002.174-.779v1.06a4.062 4.062 0 01-2.44.67 2.958 2.958 0 01-2.331-.954 3.9 3.9 0 01-.848-2.683 3.827 3.827 0 01.926-2.663 2.969 2.969 0 012.3-1.029 2.632 2.632 0 012.126.889 3.705 3.705 0 01.752 2.468zm-1.148-.95a2.281 2.281 0 00-.468-1.511 1.6 1.6 0 00-1.282-.54 1.81 1.81 0 00-1.347.567 2.574 2.574 0 00-.684 1.483zM175.243 6.9l-2.789 7h-1.1l-2.652-7h1.23l1.777 5.086a4.575 4.575 0 01.246.978h.027a4.607 4.607 0 01.219-.95l1.86-5.114zM181.99 10.683h-4.942a2.617 2.617 0 00.629 1.8 2.168 2.168 0 001.654.636 3.44 3.44 0 002.174-.779v1.06a4.062 4.062 0 01-2.44.67 2.958 2.958 0 01-2.331-.954 3.9 3.9 0 01-.848-2.683 3.827 3.827 0 01.926-2.663 2.969 2.969 0 012.3-1.029 2.632 2.632 0 012.126.889 3.705 3.705 0 01.752 2.468zm-1.148-.95a2.281 2.281 0 00-.468-1.511 1.6 1.6 0 00-1.282-.54 1.81 1.81 0 00-1.347.567 2.574 2.574 0 00-.684 1.483zM184.807 13.9h-1.121V3.539h1.121zM190 14.066a3.247 3.247 0 01-2.478-.981 3.633 3.633 0 01-.926-2.6 3.785 3.785 0 01.964-2.755 3.466 3.466 0 012.6-.991 3.14 3.14 0 012.444.964 3.823 3.823 0 01.878 2.673 3.761 3.761 0 01-.947 2.683A3.317 3.317 0 01190 14.066zm.082-6.385a2.133 2.133 0 00-1.709.735 3.017 3.017 0 00-.629 2.027 2.854 2.854 0 00.636 1.962 2.161 2.161 0 001.7.718 2.05 2.05 0 001.671-.7 3.055 3.055 0 00.584-2 3.108 3.108 0 00-.584-2.023 2.04 2.04 0 00-1.667-.718zM196.428 12.891h-.028v4.231h-1.121V6.9h1.121v1.23h.027a2.651 2.651 0 012.42-1.395 2.564 2.564 0 012.112.94 3.893 3.893 0 01.759 2.519 4.339 4.339 0 01-.854 2.813 2.845 2.845 0 01-2.338 1.056 2.342 2.342 0 01-2.098-1.172zm-.027-2.823v.978a2.082 2.082 0 00.564 1.473 2.012 2.012 0 003.028-.174 3.575 3.575 0 00.578-2.167 2.823 2.823 0 00-.54-1.832 1.788 1.788 0 00-1.463-.663 1.986 1.986 0 00-1.572.68 2.5 2.5 0 00-.596 1.704zM212.355 13.9h-1.121v-1.091h-.027a2.348 2.348 0 01-2.153 1.258 2.3 2.3 0 01-1.637-.554 1.918 1.918 0 01-.591-1.47q0-1.962 2.311-2.283l2.1-.294q0-1.784-1.442-1.784a3.446 3.446 0 00-2.283.861V7.394a4.337 4.337 0 012.379-.656q2.468 0 2.468 2.611zm-1.121-3.541l-1.688.232a2.738 2.738 0 00-1.176.386 1.114 1.114 0 00-.4.981 1.068 1.068 0 00.366.837 1.413 1.413 0 00.974.325 1.8 1.8 0 001.377-.584 2.088 2.088 0 00.543-1.48zM220.278 13.9h-1.121V9.91q0-2.229-1.627-2.229a1.765 1.765 0 00-1.391.632 2.343 2.343 0 00-.55 1.6V13.9h-1.121v-7h1.121v1.164h.027a2.526 2.526 0 012.3-1.326 2.141 2.141 0 011.757.742 3.3 3.3 0 01.608 2.143zM228.365 13.9h-1.121v-1.187h-.027a2.588 2.588 0 01-2.406 1.354 2.615 2.615 0 01-2.109-.94 3.856 3.856 0 01-.79-2.56 4.194 4.194 0 01.875-2.782 2.886 2.886 0 012.331-1.046 2.244 2.244 0 012.1 1.135h.027V3.539h1.121zm-1.121-3.165v-1.03a2 2 0 00-.561-1.436 1.88 1.88 0 00-1.422-.588 1.935 1.935 0 00-1.613.752 3.294 3.294 0 00-.588 2.078 2.964 2.964 0 00.564 1.911 1.843 1.843 0 001.514.7 1.915 1.915 0 001.521-.677 2.522 2.522 0 00.585-1.708zM234.62 13.9V4.1h2.707q5.182 0 5.182 4.778a4.816 4.816 0 01-1.439 3.647 5.338 5.338 0 01-3.852 1.377zm1.148-8.764v7.725h1.463a4.153 4.153 0 003-1.032 3.87 3.87 0 001.073-2.926q0-3.767-4.006-3.767zM249.912 10.683h-4.942a2.617 2.617 0 00.629 1.8 2.168 2.168 0 001.654.636 3.44 3.44 0 002.174-.779v1.06a4.062 4.062 0 01-2.44.67 2.958 2.958 0 01-2.331-.954 3.9 3.9 0 01-.848-2.683 3.827 3.827 0 01.926-2.663 2.969 2.969 0 012.3-1.029 2.632 2.632 0 012.126.889 3.705 3.705 0 01.752 2.468zm-1.148-.95a2.281 2.281 0 00-.468-1.511 1.6 1.6 0 00-1.282-.54 1.81 1.81 0 00-1.347.567 2.574 2.574 0 00-.684 1.483zM252.756 12.891h-.027v4.231h-1.121V6.9h1.121v1.23h.027a2.651 2.651 0 012.42-1.395 2.564 2.564 0 012.112.94 3.893 3.893 0 01.759 2.519 4.339 4.339 0 01-.854 2.813 2.845 2.845 0 01-2.338 1.056 2.342 2.342 0 01-2.099-1.172zm-.027-2.823v.978a2.082 2.082 0 00.564 1.473 2.012 2.012 0 003.028-.174 3.575 3.575 0 00.578-2.167 2.823 2.823 0 00-.54-1.832 1.788 1.788 0 00-1.463-.663 1.986 1.986 0 00-1.572.68 2.5 2.5 0 00-.595 1.704zM260.959 13.9h-1.121V3.539h1.121zM266.154 14.066a3.247 3.247 0 01-2.478-.981 3.633 3.633 0 01-.926-2.6 3.785 3.785 0 01.964-2.755 3.466 3.466 0 012.6-.991 3.14 3.14 0 012.444.964 3.823 3.823 0 01.878 2.673 3.761 3.761 0 01-.947 2.683 3.317 3.317 0 01-2.535 1.007zm.082-6.385a2.133 2.133 0 00-1.709.735 3.017 3.017 0 00-.629 2.027 2.854 2.854 0 00.636 1.962 2.161 2.161 0 001.7.718 2.05 2.05 0 001.671-.7 3.055 3.055 0 00.584-2 3.108 3.108 0 00-.584-2.023 2.04 2.04 0 00-1.669-.718zM277 6.9l-3.22 8.121q-.861 2.174-2.42 2.174a2.57 2.57 0 01-.731-.089v-1a2.077 2.077 0 00.663.123 1.375 1.375 0 001.271-1.012l.561-1.326-2.731-6.991h1.244l1.894 5.387q.034.1.144.533h.041q.034-.164.137-.52l1.989-5.4zM292.186 13.9h-1.142V7.326q0-.779.1-1.907h-.027a6.121 6.121 0 01-.294.95l-3.35 7.533h-.561l-3.343-7.479a5.844 5.844 0 01-.294-1h-.027q.055.588.055 1.921V13.9h-1.107V4.1h1.518l3.008 6.836a8.744 8.744 0 01.451 1.176h.041q.294-.806.472-1.2L290.75 4.1h1.436zM297.538 14.066a3.247 3.247 0 01-2.478-.981 3.633 3.633 0 01-.926-2.6 3.785 3.785 0 01.964-2.755 3.466 3.466 0 012.6-.991 3.14 3.14 0 012.444.964 3.823 3.823 0 01.878 2.673 3.761 3.761 0 01-.947 2.683 3.317 3.317 0 01-2.535 1.007zm.082-6.385a2.133 2.133 0 00-1.709.735 3.017 3.017 0 00-.629 2.027 2.854 2.854 0 00.636 1.962 2.161 2.161 0 001.7.718 2.05 2.05 0 001.671-.7 3.055 3.055 0 00.584-2 3.108 3.108 0 00-.584-2.023 2.04 2.04 0 00-1.669-.718zM308.79 13.9h-1.121v-1.187h-.027a2.588 2.588 0 01-2.406 1.354 2.615 2.615 0 01-2.109-.94 3.856 3.856 0 01-.79-2.56 4.194 4.194 0 01.875-2.782 2.886 2.886 0 012.331-1.046 2.244 2.244 0 012.1 1.135h.027V3.539h1.121zm-1.121-3.165v-1.03a2 2 0 00-.561-1.436 1.88 1.88 0 00-1.422-.588 1.935 1.935 0 00-1.613.752 3.294 3.294 0 00-.588 2.078 2.964 2.964 0 00.564 1.911 1.843 1.843 0 001.514.7 1.915 1.915 0 001.521-.677 2.522 2.522 0 00.585-1.708zM316.686 10.683h-4.942a2.617 2.617 0 00.629 1.8 2.168 2.168 0 001.654.636 3.44 3.44 0 002.174-.779v1.06a4.062 4.062 0 01-2.44.67 2.958 2.958 0 01-2.331-.954 3.9 3.9 0 01-.848-2.683 3.827 3.827 0 01.926-2.663 2.969 2.969 0 012.3-1.029 2.632 2.632 0 012.126.889 3.705 3.705 0 01.752 2.468zm-1.148-.95a2.281 2.281 0 00-.468-1.511 1.6 1.6 0 00-1.282-.54 1.81 1.81 0 00-1.347.567 2.574 2.574 0 00-.684 1.483zM319.5 13.9h-1.121V3.539h1.121zM321.348 13.649v-1.2a3.317 3.317 0 002.017.677q1.477 0 1.477-.984a.854.854 0 00-.126-.475 1.26 1.26 0 00-.342-.345 2.633 2.633 0 00-.506-.27q-.291-.119-.625-.25a8 8 0 01-.817-.373 2.469 2.469 0 01-.588-.424 1.573 1.573 0 01-.355-.537 1.9 1.9 0 01-.12-.7 1.673 1.673 0 01.226-.872 2 2 0 01.6-.636 2.8 2.8 0 01.858-.386 3.812 3.812 0 01.995-.13 4.019 4.019 0 011.627.314v1.129a3.17 3.17 0 00-1.777-.506 2.076 2.076 0 00-.567.072 1.39 1.39 0 00-.434.2.929.929 0 00-.28.311.818.818 0 00-.1.4.959.959 0 00.1.458 1 1 0 00.291.328 2.222 2.222 0 00.465.26q.273.116.622.253a8.667 8.667 0 01.834.366 2.87 2.87 0 01.629.424 1.658 1.658 0 01.4.543 1.755 1.755 0 01.14.731 1.726 1.726 0 01-.229.9 1.962 1.962 0 01-.612.636 2.809 2.809 0 01-.882.376 4.355 4.355 0 01-1.046.123 3.973 3.973 0 01-1.875-.413z"/>
            </g>
            <g fill="#5b5b5b">
                <path d="M710.251 58.1l-3.63 9.8h-1.265l-3.556-9.8h1.278l2.714 7.772a4.631 4.631 0 01.2.868h.027a4.248 4.248 0 01.226-.882l2.769-7.759zM712.083 59.125a.71.71 0 01-.513-.205.692.692 0 01-.212-.52.718.718 0 01.725-.731.723.723 0 01.523.208.73.73 0 010 1.036.718.718 0 01-.523.212zm.547 8.777h-1.121v-7h1.121zM714.476 67.649v-1.2a3.317 3.317 0 002.017.677q1.477 0 1.477-.984a.854.854 0 00-.126-.475 1.26 1.26 0 00-.342-.345 2.633 2.633 0 00-.506-.27q-.291-.119-.625-.25a8 8 0 01-.817-.373 2.469 2.469 0 01-.588-.424 1.573 1.573 0 01-.355-.537 1.9 1.9 0 01-.12-.7 1.673 1.673 0 01.226-.872 2 2 0 01.6-.636 2.8 2.8 0 01.858-.386 3.812 3.812 0 01.995-.13 4.019 4.019 0 011.627.314v1.135a3.17 3.17 0 00-1.777-.506 2.076 2.076 0 00-.567.072 1.39 1.39 0 00-.434.2.929.929 0 00-.28.311.818.818 0 00-.1.4.959.959 0 00.1.458 1 1 0 00.291.328 2.222 2.222 0 00.465.26q.273.116.622.253a8.667 8.667 0 01.834.366 2.87 2.87 0 01.629.424 1.658 1.658 0 01.4.543 1.755 1.755 0 01.14.731 1.726 1.726 0 01-.229.9 1.962 1.962 0 01-.612.636 2.809 2.809 0 01-.882.376 4.355 4.355 0 01-1.046.123 3.973 3.973 0 01-1.875-.419zM726.5 67.9h-1.121v-1.105h-.027a2.3 2.3 0 01-2.16 1.271q-2.5 0-2.5-2.98V60.9h1.108v4.006q0 2.215 1.7 2.215a1.715 1.715 0 001.35-.6 2.315 2.315 0 00.53-1.583V60.9h1.12zM733.773 67.9h-1.121v-1.091h-.027a2.348 2.348 0 01-2.153 1.258 2.3 2.3 0 01-1.637-.554 1.918 1.918 0 01-.591-1.47q0-1.962 2.311-2.283l2.1-.294q0-1.784-1.442-1.784a3.446 3.446 0 00-2.283.861v-1.149a4.337 4.337 0 012.379-.656q2.468 0 2.468 2.611zm-1.121-3.541l-1.688.232a2.738 2.738 0 00-1.176.386 1.114 1.114 0 00-.4.981 1.068 1.068 0 00.366.837 1.413 1.413 0 00.974.325 1.8 1.8 0 001.377-.584 2.088 2.088 0 00.543-1.48zM737.007 67.9h-1.121V57.539h1.121zM739.851 59.125a.71.71 0 01-.513-.205.692.692 0 01-.212-.52.718.718 0 01.725-.731.723.723 0 01.523.208.73.73 0 010 1.036.718.718 0 01-.523.212zm.549 8.775h-1.121v-7h1.121zM747.548 61.224l-4.143 5.722h4.1v.954h-5.749v-.349l4.143-5.694h-3.753V60.9h5.4zM754.623 64.683h-4.942a2.617 2.617 0 00.629 1.8 2.168 2.168 0 001.654.636 3.44 3.44 0 002.174-.779v1.06a4.062 4.062 0 01-2.44.67 2.958 2.958 0 01-2.331-.954 3.9 3.9 0 01-.848-2.683 3.827 3.827 0 01.926-2.663 2.969 2.969 0 012.3-1.029 2.632 2.632 0 012.126.889 3.705 3.705 0 01.752 2.468zm-1.148-.95a2.281 2.281 0 00-.468-1.511 1.6 1.6 0 00-1.282-.54 1.81 1.81 0 00-1.347.567 2.574 2.574 0 00-.684 1.483zM761.452 64.2v3.7H760.3v-9.8h2.7a3.556 3.556 0 012.437.766 2.734 2.734 0 01.865 2.16 2.971 2.971 0 01-.96 2.283 3.671 3.671 0 01-2.594.889zm0-5.059v4.02h1.2a2.69 2.69 0 001.815-.543 1.924 1.924 0 00.625-1.535q0-1.942-2.3-1.941zM770.4 68.066a3.247 3.247 0 01-2.478-.981 3.633 3.633 0 01-.926-2.6 3.785 3.785 0 01.964-2.755 3.466 3.466 0 012.6-.991 3.14 3.14 0 012.444.964 3.823 3.823 0 01.878 2.673 3.761 3.761 0 01-.947 2.683 3.317 3.317 0 01-2.535 1.007zm.082-6.385a2.133 2.133 0 00-1.709.735 3.017 3.017 0 00-.629 2.027 2.854 2.854 0 00.636 1.962 2.161 2.161 0 001.7.718 2.05 2.05 0 001.671-.7 3.055 3.055 0 00.584-2 3.108 3.108 0 00-.584-2.023 2.04 2.04 0 00-1.669-.718zM784.5 60.9l-2.1 7h-1.162l-1.442-5.011a3.252 3.252 0 01-.109-.649h-.027a3.066 3.066 0 01-.144.636l-1.569 5.024h-1.121l-2.119-7h1.176l1.449 5.264a3.191 3.191 0 01.1.629h.055a2.942 2.942 0 01.123-.643l1.613-5.25h1.025l1.449 5.277a3.8 3.8 0 01.1.629h.055a2.906 2.906 0 01.116-.629l1.422-5.277zM791.353 64.683h-4.943a2.617 2.617 0 00.629 1.8 2.168 2.168 0 001.654.636 3.44 3.44 0 002.174-.779v1.06a4.062 4.062 0 01-2.44.67 2.958 2.958 0 01-2.331-.954 3.9 3.9 0 01-.848-2.683 3.827 3.827 0 01.926-2.663 2.969 2.969 0 012.3-1.029 2.632 2.632 0 012.126.889 3.705 3.705 0 01.752 2.468zm-1.148-.95a2.281 2.281 0 00-.468-1.511 1.6 1.6 0 00-1.282-.54 1.81 1.81 0 00-1.347.567 2.574 2.574 0 00-.684 1.483zM796.7 62.037a1.371 1.371 0 00-.848-.226 1.431 1.431 0 00-1.2.677 3.129 3.129 0 00-.482 1.846V67.9h-1.121v-7h1.121v1.442h.027a2.444 2.444 0 01.731-1.152 1.667 1.667 0 011.1-.414 1.828 1.828 0 01.67.1zM801.9 67.9v-9.8h2.789a3.049 3.049 0 012.017.622 2.011 2.011 0 01.745 1.62 2.384 2.384 0 01-.451 1.449 2.434 2.434 0 01-1.244.875v.027a2.5 2.5 0 011.586.749 2.3 2.3 0 01.595 1.644 2.563 2.563 0 01-.9 2.037 3.358 3.358 0 01-2.276.779zm1.148-8.764V62.3h1.176a2.232 2.232 0 001.483-.455 1.584 1.584 0 00.54-1.282q0-1.429-1.88-1.429zm0 4.2v3.527h1.559a2.337 2.337 0 001.569-.479 1.639 1.639 0 00.557-1.312q0-1.737-2.365-1.736zM811.074 67.9h-1.148v-9.8h1.148z"/>
            </g>
            <path d="M777.6 35.017h-1.09v-2.18h1.09a4.2 4.2 0 004.195-4.195V6.375a4.2 4.2 0 00-4.195-4.2h-41.3a4.2 4.2 0 00-4.195 4.2v22.269a4.2 4.2 0 004.195 4.195h1.09v2.18h-1.09a6.382 6.382 0 01-6.374-6.375V6.375A6.382 6.382 0 01736.3 0h41.3a6.382 6.382 0 016.375 6.375v22.269a6.382 6.382 0 01-6.375 6.375"/>
            <path d="M743 27.719a2.958 2.958 0 012.958 2.958V37.5A2.958 2.958 0 01743 40.458a2.958 2.958 0 01-2.959-2.957v-6.823a2.958 2.958 0 012.958-2.958zM752.3 40.457a2.959 2.959 0 01-2.96-2.957V19.99a2.959 2.959 0 115.917 0V37.5a2.959 2.959 0 01-2.958 2.959M770.906 40.371a2.959 2.959 0 01-2.959-2.958v-24.8a2.959 2.959 0 015.917 0v24.8a2.959 2.959 0 01-2.958 2.959M761.6 40.457a2.959 2.959 0 01-2.959-2.958V24.492a2.959 2.959 0 115.917 0V37.5a2.959 2.959 0 01-2.958 2.959"/>
            <path d="M74.765 33.889H63.858c1.311 4.627-.45 5.291-8.163 5.291v2.42h26.227v-2.42c-7.713 0-8.469-.661-7.157-5.291" fill="#7a7a7a"/>
            <path d="M86.441 4.579H50.932a2.269 2.269 0 00-2.18 2.284v24.763a2.256 2.256 0 002.18 2.265h35.51a2.479 2.479 0 002.424-2.265V6.863a2.488 2.488 0 00-2.424-2.284" fill="#a0a1a2"/>
            <path d="M86.466 4.582H50.931a2.268 2.268 0 00-2.18 2.284v24.76a2.256 2.256 0 002.18 2.266h.845z" fill="#fff" opacity=".2"/>
            <path fill="#59b4d9" d="M85.734 7.667v23.137H51.792V7.667h33.942z"/>
            <path fill="#59b4d9" d="M51.792 30.804h.046V7.667l31.032-.046h.001l-31.079.046v23.137z"/>
            <path fill="#a0a1a2" d="M55.695 39.179h26.227v2.424H55.695z"/>
            <path d="M69.223 6.26a.569.569 0 11-.57-.57.57.57 0 01.57.57" fill="#b8d432"/>
            <path d="M69.246 18.534a.223.223 0 01-.108-.03l-7.063-4.077a.217.217 0 01-.106-.185.214.214 0 01.106-.185l7.025-4.051a.215.215 0 01.211 0l7.065 4.079a.215.215 0 010 .369L69.354 18.5a.216.216 0 01-.108.03" fill="#fff"/>
            <path d="M68.231 28.443a.2.2 0 01-.108-.029l-7.042-4.064a.209.209 0 01-.109-.185v-8.156a.217.217 0 01.324-.185l7.041 4.063a.224.224 0 01.1.187v8.156a.218.218 0 01-.1.185.225.225 0 01-.107.029" fill="#fff" opacity=".7"/>
            <path d="M70.225 28.443a.23.23 0 01-.111-.029.217.217 0 01-.1-.185v-8.1a.221.221 0 01.1-.185l7.041-4.063a.209.209 0 01.212 0 .211.211 0 01.108.185v8.1a.21.21 0 01-.108.185l-7.039 4.064a.19.19 0 01-.1.029" fill="#fff" opacity=".4"/>
            <g>
                <path d="M419.9 33.889h-10.91c1.311 4.627-.45 5.291-8.163 5.291v2.42h26.227v-2.42c-7.713 0-8.469-.661-7.157-5.291" fill="#7a7a7a"/>
                <path d="M431.573 4.579h-35.51a2.269 2.269 0 00-2.18 2.284v24.763a2.256 2.256 0 002.18 2.265h35.51A2.479 2.479 0 00434 31.626V6.863a2.488 2.488 0 00-2.424-2.284" fill="#a0a1a2"/>
                <path d="M431.6 4.582h-35.535a2.268 2.268 0 00-2.18 2.284v24.76a2.256 2.256 0 002.18 2.266h.845z" fill="#fff" opacity=".2"/>
                <path fill="#59b4d9" d="M430.866 7.667v23.137h-33.942V7.667h33.942z"/>
                <path fill="#59b4d9" d="M396.924 30.804h.046V7.667l31.032-.046h.001l-31.079.046v23.137z"/>
                <path fill="#a0a1a2" d="M400.827 39.179h26.227v2.424h-26.227z"/>
                <path d="M414.355 6.26a.569.569 0 11-.57-.57.57.57 0 01.57.57" fill="#b8d432"/>
                <path d="M414.378 18.534a.223.223 0 01-.108-.03l-7.063-4.077a.217.217 0 01-.106-.185.214.214 0 01.106-.185l7.021-4.051a.215.215 0 01.211 0l7.065 4.079a.215.215 0 010 .369l-7.018 4.05a.216.216 0 01-.108.03" fill="#fff"/>
                <path d="M413.363 28.443a.2.2 0 01-.108-.029l-7.042-4.064a.209.209 0 01-.109-.185v-8.156a.217.217 0 01.324-.185l7.041 4.063a.224.224 0 01.1.187v8.156a.218.218 0 01-.1.185.225.225 0 01-.107.029" fill="#fff" opacity=".7"/>
                <path d="M415.356 28.443a.23.23 0 01-.111-.029.217.217 0 01-.1-.185v-8.1a.221.221 0 01.1-.185l7.041-4.063a.209.209 0 01.212 0 .211.211 0 01.108.185v8.1a.21.21 0 01-.108.185l-7.039 4.064a.19.19 0 01-.1.029" fill="#fff" opacity=".4"/>
            </g>
            <g fill="#5b5b5b">
                <path d="M7.027 68.483H5.66l-1.64-2.748a6.009 6.009 0 00-.437-.653 2.491 2.491 0 00-.434-.441 1.5 1.5 0 00-.479-.25 1.973 1.973 0 00-.578-.079h-.944v4.17H0v-9.8h2.926a4.176 4.176 0 011.186.161 2.651 2.651 0 01.943.489 2.273 2.273 0 01.625.817 2.708 2.708 0 01.226 1.145 2.757 2.757 0 01-.154.94 2.458 2.458 0 01-.437.762 2.657 2.657 0 01-.684.571 3.486 3.486 0 01-.9.366v.027a2.07 2.07 0 01.427.25 2.359 2.359 0 01.345.332 4.4 4.4 0 01.325.434q.16.242.359.564zM1.148 59.72v3.555h1.559a2.368 2.368 0 00.8-.13 1.845 1.845 0 00.632-.373 1.688 1.688 0 00.417-.595 2 2 0 00.15-.79 1.537 1.537 0 00-.509-1.227 2.188 2.188 0 00-1.473-.441zM13.357 68.483h-1.148v-9.8h1.148zM15.935 68.483v-9.8h2.707q5.182 0 5.182 4.778a4.816 4.816 0 01-1.439 3.647 5.338 5.338 0 01-3.852 1.377zm1.148-8.764v7.725h1.463a4.153 4.153 0 003-1.032 3.87 3.87 0 001.073-2.926q0-3.767-4.006-3.767zM30.946 68.483h-5.2v-9.8h4.977v1.037H26.9v3.26h3.54v1.032H26.9v3.432h4.047zM39.443 68.647a3.247 3.247 0 01-2.478-.981 3.633 3.633 0 01-.926-2.6A3.785 3.785 0 0137 62.311a3.466 3.466 0 012.6-.991 3.14 3.14 0 012.444.964 3.823 3.823 0 01.878 2.673 3.761 3.761 0 01-.947 2.683 3.317 3.317 0 01-2.532 1.007zm.082-6.385a2.133 2.133 0 00-1.709.738 3.017 3.017 0 00-.629 2.027 2.854 2.854 0 00.636 1.962 2.161 2.161 0 001.7.718A2.05 2.05 0 0041.2 67a3.055 3.055 0 00.584-2 3.108 3.108 0 00-.584-2.023 2.04 2.04 0 00-1.675-.714zM50.531 68.483H49.41v-3.992q0-2.229-1.627-2.229a1.765 1.765 0 00-1.391.632 2.343 2.343 0 00-.55 1.6v3.992h-1.121v-7h1.121v1.162h.027a2.526 2.526 0 012.3-1.326 2.141 2.141 0 011.757.742 3.3 3.3 0 01.608 2.143zM56.629 68.483v-9.8h2.707q5.182 0 5.182 4.778a4.816 4.816 0 01-1.439 3.647 5.338 5.338 0 01-3.852 1.377zm1.148-8.764v7.725h1.463a4.153 4.153 0 003-1.032 3.87 3.87 0 001.073-2.926q0-3.767-4.006-3.767zM71.921 65.264h-4.942a2.617 2.617 0 00.629 1.8 2.168 2.168 0 001.654.636 3.44 3.44 0 002.174-.779v1.053a4.062 4.062 0 01-2.44.67 2.958 2.958 0 01-2.331-.954 3.9 3.9 0 01-.848-2.683 3.827 3.827 0 01.926-2.663 2.969 2.969 0 012.3-1.029 2.632 2.632 0 012.126.889 3.705 3.705 0 01.752 2.468zm-1.148-.95A2.281 2.281 0 0070.3 62.8a1.6 1.6 0 00-1.282-.54 1.81 1.81 0 00-1.347.567 2.574 2.574 0 00-.684 1.483zM74.765 67.472h-.027V71.7h-1.122V61.483h1.121v1.23h.027a2.651 2.651 0 012.42-1.395 2.564 2.564 0 012.112.94 3.893 3.893 0 01.759 2.519 4.339 4.339 0 01-.854 2.813 2.845 2.845 0 01-2.338 1.056 2.342 2.342 0 01-2.098-1.174zm-.027-2.823v.978A2.082 2.082 0 0075.3 67.1a2.012 2.012 0 003.028-.174 3.575 3.575 0 00.578-2.167 2.823 2.823 0 00-.54-1.832 1.788 1.788 0 00-1.463-.663 1.986 1.986 0 00-1.572.68 2.5 2.5 0 00-.594 1.704zM82.968 68.483h-1.121V58.12h1.121zM88.163 68.647a3.247 3.247 0 01-2.478-.981 3.633 3.633 0 01-.926-2.6 3.785 3.785 0 01.964-2.755 3.466 3.466 0 012.6-.991 3.14 3.14 0 012.444.964 3.823 3.823 0 01.878 2.673 3.761 3.761 0 01-.947 2.683 3.317 3.317 0 01-2.535 1.007zm.082-6.385a2.133 2.133 0 00-1.709.738 3.017 3.017 0 00-.629 2.027 2.854 2.854 0 00.636 1.962 2.161 2.161 0 001.7.718 2.05 2.05 0 001.671-.7 3.055 3.055 0 00.584-2 3.108 3.108 0 00-.584-2.023 2.04 2.04 0 00-1.669-.721zM99.012 61.483l-3.22 8.117q-.861 2.174-2.42 2.174a2.57 2.57 0 01-.731-.089v-1a2.077 2.077 0 00.663.123 1.375 1.375 0 001.271-1.008l.561-1.326-2.736-6.991h1.244l1.894 5.387q.034.1.144.533h.041q.034-.164.137-.52l1.989-5.4zM105.772 65.264h-4.942a2.617 2.617 0 00.629 1.8 2.168 2.168 0 001.654.636 3.44 3.44 0 002.174-.779v1.053a4.062 4.062 0 01-2.44.67 2.958 2.958 0 01-2.331-.954 3.9 3.9 0 01-.848-2.683 3.827 3.827 0 01.926-2.663 2.969 2.969 0 012.3-1.029 2.632 2.632 0 012.126.889 3.705 3.705 0 01.752 2.468zm-1.148-.95a2.281 2.281 0 00-.468-1.511 1.6 1.6 0 00-1.282-.54 1.81 1.81 0 00-1.347.567 2.574 2.574 0 00-.684 1.483zM113.442 68.483h-1.121v-1.189h-.027a2.588 2.588 0 01-2.406 1.354 2.615 2.615 0 01-2.109-.94 3.856 3.856 0 01-.79-2.56 4.194 4.194 0 01.875-2.782 2.886 2.886 0 012.331-1.046 2.244 2.244 0 012.1 1.135h.027V58.12h1.121zm-1.121-3.165v-1.032a2 2 0 00-.561-1.436 1.88 1.88 0 00-1.422-.588 1.935 1.935 0 00-1.613.752 3.294 3.294 0 00-.588 2.078A2.964 2.964 0 00108.7 67a1.843 1.843 0 001.514.7 1.915 1.915 0 001.521-.677 2.522 2.522 0 00.586-1.705zM126.984 58.681l-3.63 9.8h-1.264l-3.555-9.8h1.278l2.714 7.772a4.631 4.631 0 01.2.868h.027a4.248 4.248 0 01.226-.882l2.769-7.759zM138.387 68.483h-1.142v-6.576q0-.779.1-1.907h-.027a6.121 6.121 0 01-.294.95l-3.35 7.533h-.561L129.767 61a5.844 5.844 0 01-.294-1h-.027q.055.588.055 1.921v6.563h-1.107v-9.8h1.518l3.008 6.836a8.744 8.744 0 01.451 1.176h.041q.294-.806.472-1.2l3.069-6.809h1.436z"/>
            </g>
        </g>
    </g>
</svg>
