<svg xmlns="http://www.w3.org/2000/svg" height="117.719" width="915.875" viewBox="0 0 915.875 117.719">
    <text transform="translate(838.422 112.892) scale(1.036 1)" font-size="15" fill="#505050" font-family="SegoeUI, Segoe UI" style="isolation: isolate"><tspan letter-spacing="-0.037em">P</tspan><tspan x="7.845" y="0">o</tspan><tspan x="16.634" y="0" letter-spacing="-0.005em">w</tspan><tspan x="27.4" y="0" letter-spacing="0em">er BI</tspan></text>
    <text transform="translate(420.004 112.892) scale(1.036 1)" font-size="15" fill="#505050" font-family="SegoeUI, Segoe UI" style="isolation: isolate">SQL Data<tspan x="61.311" y="0" letter-spacing="-0.013em">b</tspan><tspan x="69.932" y="0">ase</tspan></text>
    <g>
        <path d="M436.963,10.222l.129,61.89c.013,6.425,14.407,11.606,32.148,11.569l-.153-73.526Z" fill="#0072c6" />
        <path d="M467.188,83.663h.44c17.74-.037,32.113-5.168,32.1-11.464L499.6,11.568l-32.564.068Z" fill="#0072c6" />
        <path d="M467.188,83.713h.44c17.74-.037,32.113-5.171,32.1-11.472L499.6,11.568l-32.564.068Z" fill="#fff" opacity="0.15" style="isolation: isolate" />
        <path d="M499.6,11.567c.013,6.425-14.359,11.664-32.1,11.7S435.369,18.126,435.355,11.7,449.714.037,467.454,0,499.588,5.142,499.6,11.567" fill="#fff" />
        <path d="M493.033,10.911c.009,4.242-11.426,7.7-25.54,7.73s-25.565-3.381-25.573-7.623,11.428-7.7,25.541-7.73,25.563,3.383,25.572,7.623" fill="#7fba00" />
        <path d="M487.689,15.613c3.343-1.3,5.35-2.933,5.346-4.7-.009-4.242-11.458-7.654-25.573-7.625s-25.549,3.49-25.54,7.731c0,1.765,2.017,3.386,5.366,4.676,4.668-1.823,11.967-3.009,20.194-3.026s15.529,1.138,20.208,2.942" fill="#b8d432" />
        <path d="M457.363,54.616a5.276,5.276,0,0,1-2.083,4.472,9.383,9.383,0,0,1-5.778,1.6,11,11,0,0,1-5.249-1.12l-.009-4.525a8.094,8.094,0,0,0,5.362,2.054,3.645,3.645,0,0,0,2.184-.57,1.77,1.77,0,0,0,.768-1.5,2.1,2.1,0,0,0-.745-1.6,13.634,13.634,0,0,0-3.022-1.747q-4.642-2.165-4.65-5.927a5.36,5.36,0,0,1,2.013-4.38,8.249,8.249,0,0,1,5.368-1.658,13.42,13.42,0,0,1,4.922.768l.009,4.226a8.02,8.02,0,0,0-4.668-1.4,3.453,3.453,0,0,0-2.076.561,1.759,1.759,0,0,0-.76,1.493,2.13,2.13,0,0,0,.619,1.575,9.948,9.948,0,0,0,2.526,1.515,12.5,12.5,0,0,1,4.057,2.72A5.082,5.082,0,0,1,457.363,54.616Z" fill="#fff" />
        <path d="M479.168,49.991a11.566,11.566,0,0,1-1.614,6.209,8.679,8.679,0,0,1-4.572,3.7l5.892,5.431-5.937.012-4.209-4.7a9.845,9.845,0,0,1-4.874-1.418,8.947,8.947,0,0,1-3.358-3.633,11.171,11.171,0,0,1-1.192-5.151,12.046,12.046,0,0,1,1.267-5.622,9.088,9.088,0,0,1,3.59-3.8,10.512,10.512,0,0,1,5.314-1.339,9.78,9.78,0,0,1,5.014,1.277,8.778,8.778,0,0,1,3.442,3.654A11.573,11.573,0,0,1,479.168,49.991Zm-4.8.265a7.932,7.932,0,0,0-1.354-4.868,4.348,4.348,0,0,0-3.68-1.782,4.616,4.616,0,0,0-3.8,1.8,7.464,7.464,0,0,0-1.418,4.781,7.448,7.448,0,0,0,1.408,4.739,4.5,4.5,0,0,0,3.721,1.766,4.559,4.559,0,0,0,3.743-1.725A7.286,7.286,0,0,0,474.363,50.256Z" fill="#fff" />
        <polygon points="494.613 60.237 482.541 60.262 482.498 39.99 487.064 39.98 487.099 56.549 494.605 56.533 494.613 60.237" fill="#fff" />
    </g>
    <g>
        <path d="M100.922,73.5,74.69,29.912l-.037-17.666h.469a5.563,5.563,0,0,0,5.651-5.469A5.562,5.562,0,0,0,75.1,1.331L46.581,1.39A5.563,5.563,0,0,0,40.93,6.86,5.563,5.563,0,0,0,46.6,12.305h.472l.037,17.665L21.062,73.662c-2.858,4.792-.5,8.7,5.23,8.691l69.436-.145C101.461,82.2,103.8,78.275,100.922,73.5Z" fill="#59b4d9" />
        <polygon points="42.553 54.834 31.804 72.863 90.175 72.741 79.352 54.757 42.553 54.834" fill="#b8d432" />
        <path d="M58.994,60.151a5.181,5.181,0,0,0,5.264-5.094,4.9,4.9,0,0,0-.542-2.223l-9.476.02a4.894,4.894,0,0,0-.533,2.225A5.183,5.183,0,0,0,58.994,60.151Z" fill="#7fba00" />
        <ellipse cx="68.908" cy="66.01" rx="2.588" ry="2.494" transform="translate(-0.137 0.143) rotate(-0.119)" fill="#7fba00" />
        <path d="M21.062,73.662,47.113,29.968,47.076,12.3H46.6A5.563,5.563,0,0,1,40.93,6.855a5.561,5.561,0,0,1,5.651-5.467l12.29-.026L58.93,29.8,45.262,82.314l-18.97.04C20.558,82.365,18.2,78.454,21.062,73.662Z" fill="#fff" opacity="0.25" style="isolation: isolate" />
    </g>
    <text transform="translate(0 112.891) scale(1.036 1)" font-size="15" fill="#505050" font-family="SegoeUI, Segoe UI" style="isolation: isolate">Machine Lea<tspan x="83.13" y="0" letter-spacing="-0.002em">r</tspan><tspan x="88.315" y="0">ning</tspan></text>
    <g>
        <path d="M904.592,73.771h-1.93v-3.86h1.93a7.436,7.436,0,0,0,7.427-7.427V23.059a7.436,7.436,0,0,0-7.427-7.428H831.47a7.436,7.436,0,0,0-7.427,7.428V62.487a7.436,7.436,0,0,0,7.427,7.427h1.93v3.86h-1.93a11.3,11.3,0,0,1-11.286-11.287V23.059a11.3,11.3,0,0,1,11.291-11.287H904.6a11.3,11.3,0,0,1,11.279,11.287V62.487a11.3,11.3,0,0,1-11.287,11.287" />
        <path d="M843.324,60.849h0a5.237,5.237,0,0,1,5.237,5.237V78.163a5.238,5.238,0,0,1-5.238,5.238h0a5.237,5.237,0,0,1-5.239-5.235h0V66.087a5.238,5.238,0,0,1,5.238-5.238Z" />
        <path d="M859.8,83.4a5.239,5.239,0,0,1-5.239-5.238v-31a5.238,5.238,0,1,1,10.477,0v31A5.239,5.239,0,0,1,859.8,83.4" />
        <path d="M892.741,83.249a5.239,5.239,0,0,1-5.239-5.238v-43.9a5.238,5.238,0,0,1,10.477,0h0v43.9a5.239,5.239,0,0,1-5.238,5.239" />
        <path d="M876.269,83.4a5.239,5.239,0,0,1-5.239-5.238V55.135a5.238,5.238,0,1,1,10.477,0h0V78.164a5.239,5.239,0,0,1-5.238,5.239" />
    </g>
    <g>
        <line x1="139.951" y1="48.641" x2="398.724" y2="48.641" fill="none" stroke="#afafaf" stroke-miterlimit="10" stroke-width="1.6" />
        <polygon points="141.702 54.625 131.34 48.641 141.702 42.658 141.702 54.625" fill="#afafaf" />
        <polygon points="396.974 54.625 407.336 48.641 396.974 42.658 396.974 54.625" fill="#afafaf" />
    </g>
    <g>
        <line x1="532.784" y1="48.641" x2="791.557" y2="48.641" fill="none" stroke="#afafaf" stroke-miterlimit="10" stroke-width="1.6" />
        <polygon points="534.534 54.625 524.172 48.641 534.534 42.658 534.534 54.625" fill="#afafaf" />
        <polygon points="789.806 54.625 800.168 48.641 789.806 42.658 789.806 54.625" fill="#afafaf" />
    </g>
</svg>
