<svg id="Layer_1" data-name="Layer 1" xmlns="http://www.w3.org/2000/svg" width="80" height="67.894" viewBox="0 0 80 67.894">
  <path d="M5619.224,2607.638a20.034,20.034,0,0,0,.466-4.229,19.26,19.26,0,0,0-36.552-8.448,13.836,13.836,0,0,0-23.6,9.782,14.716,14.716,0,0,0,.349,3.149c-6.277,2.557-10,7.861-10,14.312,0,8.7,7.109,15.514,16.181,15.514h1.034a14.668,14.668,0,0,0,27.456,6.87,10.641,10.641,0,0,0,6.976,2.6,10.756,10.756,0,0,0,10.64-9.475h1.538c9.072,0,16.176-6.814,16.176-15.514,0-6.718-4.07-12.246-10.658-14.566" transform="translate(-5549.882 -2584.184)" fill="#3e3e3e" />
  <path d="M5612.981,2614.891l1.178-2.789-0.341-.294-2.571-2.234,0.013-2.258,2.9-2.592-1.141-2.8-0.446.03-3.4.243-1.587-1.61,0.216-3.885-2.787-1.176-0.294.339-2.235,2.574-2.259-.016-2.594-2.9-2.8,1.138,0.032,0.45,0.24,3.4-1.606,1.584-3.885-.216-1.178,2.789,0.341,0.294,2.573,2.235-0.014,2.259-2.9,2.594,1.138,2.8,0.45-.034,3.4-.238,1.587,1.608-0.216,3.882,2.789,1.178,0.294-.341,2.234-2.573,2.259,0.016,2.594,2.9,2.8-1.139-0.032-.451-0.24-3.4,1.61-1.587Zm-14.094-.8a6.194,6.194,0,1,1,8.115-3.3,6.191,6.191,0,0,1-8.115,3.3" transform="translate(-5549.882 -2584.184)" fill="#fff" />
  <path d="M5595.253,2628.9v-3.029l-0.426-.138-3.24-1.061-0.862-2.086,1.664-3.517-2.138-2.139-0.4.2-3.038,1.539-2.088-.866-1.309-3.662-3.026,0-0.139.43-1.061,3.237-2.086.862-3.517-1.662-2.139,2.139,0.2,0.4,1.539,3.04-0.864,2.083-3.664,1.31,0,3.026,0.427,0.141,3.24,1.058,0.862,2.09-1.664,3.514,2.138,2.144,0.4-.2,3.042-1.542,2.083,0.866,1.31,3.662,3.026,0,0.139-.426,1.061-3.24,2.088-.862,3.514,1.664,2.142-2.138-0.2-.4-1.542-3.038,0.867-2.088Zm-13.3,4.736a6.194,6.194,0,1,1,6.2-6.19,6.2,6.2,0,0,1-6.2,6.19" transform="translate(-5549.882 -2584.184)" fill="#fff" />
  <path d="M5605,2609.948a4.021,4.021,0,1,1-2.141-5.269,4.02,4.02,0,0,1,2.141,5.269" transform="translate(-5549.882 -2584.184)" fill="#b8d432" />
  <path d="M5585.98,2627.443a4.021,4.021,0,1,1-4.021-4.024,4.023,4.023,0,0,1,4.021,4.024" transform="translate(-5549.882 -2584.184)" fill="#b8d432" />
</svg>