<svg class="architecture-diagram" aria-labelledby="migrate-existing-applications-with-aks" height="450" viewbox="0 0 825 450" width="825" xmlns="http://www.w3.org/2000/svg">
    <g fill="none" fill-rule="evenodd" stroke="none" stroke-width="1">
        <path fill="#F3F3F3" d="M415.824 308.222h400.177V9.422H415.824z"/>
        <path fill="#FFF" d="M511.135 211.67l5.437 1.897v-11.5l-5.437 1.78zM521.01 224.962l5.625 1.917v-11.813l-5.625 1.625zM502.187 224.88l5.584 1.957v-11.75l-5.584 1.646zM483.062 224.844l5.584 1.847v-11.583l-5.584 1.437zM492.041 238.17l5.437 1.813-.083-11.437-5.354 1.479z"/>
        <path fill="#4472C4" d="M348.345 225.597l-.148-69.353 1-.002.148 69.353z"/>
        <path d="M562.956 237.484c-.046 0-.089.012-.135.013.017-.207.031-.415.031-.627a7.966 7.966 0 00-7.966-7.968 7.941 7.941 0 00-5.959 2.691c-.828-4.797-4.999-8.45-10.033-8.45-5.609 0-10.156 4.529-10.19 10.129a7.012 7.012 0 00-5.895-3.212 7.024 7.024 0 00-6.748 5.08 5.236 5.236 0 00-1.927-.375 5.284 5.284 0 100 10.568c1.93 0 47.506-.496 48.822-.496a3.677 3.677 0 100-7.353" fill="#CBEBF5"/>
        <path fill="#FFF" d="M511.104 238.32l5.46 1.84v-11.603l-5.46 1.602z"/>
        <path d="M494.908 203.003c-.079 0-.152.02-.23.023-1.058-4.305-4.932-7.502-9.564-7.502-4.729 0-8.678 3.333-9.633 7.777a6.129 6.129 0 00-3.113-.868 6.192 6.192 0 100 12.384c2.25 0 20.893.424 22.54.424a6.12 6.12 0 000-12.238" fill="#CBEBF5"/>
        <path fill="#FFF" d="M497.4 213.422l-5.466-1.715v-7.918l5.465-1.703z"/>
        <path fill="#4472C4" d="M327.696 160.243h43v-25h-43z"/>
        <path d="M328.196 159.743h42v-24h-42v24zm-1 1h44v-26h-44v26z" fill="#2F528F"/>
        <path fill="#959595" d="M431.803 225.665l-9.067-5.235v4.485h-146.54v1.5h146.54v4.486zM714.889 225.665l-9.067-5.235v4.485h-122.54v1.5h122.54v4.486zM197.803 225.665l-9.067-5.235v4.485h-80.54v1.5h80.54v4.486zM245.518 221.284l2.394.656v-6.905l-2.394-.803zM250.303 215.839v2.954l1.725-2.376zM235.982 210.164l-.037-.013v8.63l2.392.616v-7.572l-2.388-.802zM247.911 214.19l-2.394-.839v.02l2.394.823zM240.731 220.011l2.394.675v-7.256l-2.394-.803zM240.731 228.477v3.51l2.345-3.233zM238.338 228.194l-2.354-.278v-.917l-.04-.005v11.589l2.394-3.298zM259.142 236.977l.734-.14v-8.682 8.68z"/>
        <path fill="#959595" d="M234.749 220.088v-11.89l18.336 6.762.412-.568-20.01-7.572.042 13.364.003.898v.002l13.087 2.788.669-.923zM234.749 225.248l9.777 1.507.926-1.275-11.936-2.213-.002.325.038 18.26.024-.004 1.173-1.617z"/>
        <path d="M231.16 211.344l-3.522 1.74.047-.987 3.474-1.928v1.175zm2.325-4.525l-7.13 4.343v13.257l7.177-3.337-.003-.899-.044-13.364z" fill="#B3B4B5"/>
        <path d="M233.53 220.184l.002.898-.003-.898zM234.749 240.231l1.196-1.648v-11.59l.039.005v-.012l7.676.963.866-1.194-9.777-1.507z" fill="#B3B4B5"/>
        <path fill="#B3B4B5" d="M238.338 228.194v7.09l2.394-3.297v-3.51zM231.194 227.215l-3.646 1.321-.009-.69 3.663-1.644-.008 1.013zm2.32-3.623v-.325l-7.205 3.484.045 10.881 7.201 4.22-.042-18.26z"/>
        <path fill="#7A7A7A" d="M238.338 228.194v-.901l-2.354-.294v.917zM243.125 228.687v-.747l-2.394-.35v.887l2.345.277zM245.518 213.37v.862l2.394.804v-.842zM235.982 210.164l-.033.859 2.388.802v-.887zM240.731 211.724v.903l2.394.803v-.842zM252.496 215.772l-1.222-.42-.97-.325v.812l1.723.578z"/>
        <path fill="#7A7A7A" d="M238.338 228.194l2.394.282v-.886l2.393.35v.746l.535-.737-7.676-.964v.013l2.354.294zM235.985 210.091l-.003.073 2.356.774v.886l2.393.803v-.903l2.394.864v.842l2.392.803v-.863zM251.274 215.351l-3.363-1.157v.842l2.391.802v-.81z"/>
        <path fill="#FFF" d="M233.553 241.88l25.589-4.903-25.566 4.871z"/>
        <path fill="#B3B3B3" d="M252.663 223.217l.036-6.575-.672-.226-1.724 2.377v3.802zM245.518 237.255l2.394-.442v-7.487l-2.394-.283zM240.731 231.987v6.05l2.394-.438v-8.84l-.049-.004zM250.303 236.403l2.394-.407v-6.104l-2.394-.283z"/>
        <path fill="#B3B3B3" d="M244.526 226.756l14.151 2.181v7.277l-23.928 4.39v-.373l-1.173 1.618 25.565-4.873.735-.14v-8.681l-14.424-2.674z"/>
        <path fill="#B3B3B3" d="M238.338 238.41v-3.126l-2.393 3.298v.226z"/>
        <path fill="#FFF" d="M252.704 215.843v-.015l-.2-.067-.008.01z"/>
        <path fill="#B3B3B3" d="M259.876 216.752l-6.379-2.36-.412.568 5.593 2.063v8.524l-11.39-2.598-.669.923 13.257 2.824zM255.089 230.175v5.476l2.476-.429-.162-5.446.018.675z"/>
        <path fill="#B3B3B3" d="M257.481 218.252l-2.393-.808v6.403l2.394.655z"/>
        <path fill="#C9CACB" d="M257.482 217.464v7.038l-2.394-.656v-6.402l-2.389-.802-.036 6.575-2.36-.622v-3.801l-3.015 4.155 11.39 2.598v-8.525l-5.593-2.062-.596.809zM257.4 229.673l.003.104.161 5.445-2.476.429v-5.476l-2.392-.283v6.104l-2.394.407v-6.794l-2.39-.283v7.487l-2.395.442v-8.212l-2.392-.283v8.839l-2.394.437v-6.05l-2.393 3.298v3.126l-2.393.398v-.225l-1.196 1.648v.372l23.928-4.388v-7.278l-14.15-2.181-.867 1.193z"/>
        <path fill="#9F9F9F" d="M252.496 215.772l-.469.645 3.062 1.027 2.392.808.003-.791zM257.4 229.673l-13.74-1.724-.584.805 14.345 1.697z"/>
        <path d="M223.98 231.53h-7.18c-4.785-1.196-8.475-4.966-8.475-9.967 0-4.138 2.67-7.917 6.298-9.355-.044-.434-.066-.87-.069-1.306 0-7.108 5.766-12.867 12.871-12.867a12.857 12.857 0 0110.023 4.809 10.383 10.383 0 014.695-1.11c5.629 0 10.504 4.994 10.7 10.577l-19.216-7.927-9.647 5.809v21.337z" fill="#59B4D9"/>
        <path d="M231.16 210.31l-1.193.624-.004 9.158 1.197-.655v-9.126zm-2.384 10.543l-1.195.7v-9.428l1.195-.643v9.37zM231.2 226.203l-1.187.521-.046 11.594 1.235.64v-12.755h-.002zm-2.568 11.388l-1.089-.554v-9.188l1.09-.49v10.232z" fill="#959595"/>
        <path fill="#B3B4B5" d="M234.749 220.088l12.539 2.861 3.015-4.155v-2.956l-2.392-.802v6.904l-2.393-.656v-7.051l-2.393-.803v7.256l-2.394-.675v-7.384l-2.393-.803v7.573l-2.393-.616v-8.63l.037.013.003-.073 9.533 3.279v-.019l2.393.838v.005l3.363 1.157 1.22.419.591-.81-18.336-6.762z"/>
        <path fill="#7A7A7A" d="M227.548 228.536l3.646-1.32.008-1.014-3.663 1.644zM227.582 213.113l3.577-1.769v-1.175l-3.574 1.956z"/>
        <path d="M188.809 265.666l-1.538-4.177a3.78 3.78 0 01-.15-.656h-.028a3.708 3.708 0 01-.157.656l-1.524 4.177h3.397zm2.687 3.78h-1.272l-1.04-2.748h-4.155l-.978 2.748h-1.278l3.76-9.802h1.189l3.774 9.802zM197.668 262.768l-4.143 5.722h4.102v.957h-5.749v-.35l4.143-5.693h-3.753v-.957h5.4zM204.777 269.446h-1.12v-1.107h-.028c-.465.847-1.186 1.271-2.16 1.271-1.669 0-2.503-.994-2.503-2.98v-4.184h1.115v4.006c0 1.476.564 2.215 1.695 2.215.547 0 .997-.202 1.35-.605.353-.404.53-.93.53-1.583v-4.033h1.121v7zM210.69 263.581c-.196-.15-.479-.226-.848-.226-.478 0-.879.226-1.2.677-.32.451-.48 1.067-.48 1.846v3.568h-1.122v-7h1.121v1.443h.027c.16-.493.403-.876.731-1.152a1.669 1.669 0 011.101-.414c.291 0 .515.032.67.096v1.162zM216.2 265.276c-.005-.647-.16-1.15-.469-1.51-.307-.36-.734-.54-1.28-.54-.53 0-.979.188-1.348.567-.369.378-.597.873-.683 1.483h3.78zm1.148.95h-4.942c.018.78.228 1.382.63 1.805.4.424.951.637 1.653.637.788 0 1.513-.26 2.174-.78v1.053c-.615.447-1.429.67-2.44.67-.99 0-1.767-.318-2.33-.954-.567-.635-.849-1.53-.849-2.683 0-1.09.31-1.976.926-2.662.618-.687 1.384-1.03 2.301-1.03.916 0 1.624.297 2.125.89.501.591.752 1.414.752 2.466v.589zM229.701 269.036c-.725.383-1.627.574-2.707.574-1.395 0-2.512-.449-3.35-1.346-.839-.898-1.257-2.076-1.257-3.535 0-1.568.471-2.834 1.415-3.8.943-.967 2.14-1.45 3.588-1.45.93 0 1.7.135 2.311.404v1.223a4.686 4.686 0 00-2.324-.588c-1.126 0-2.038.376-2.738 1.128-.7.752-1.049 1.757-1.049 3.015 0 1.194.327 2.146.98 2.854.654.71 1.512 1.063 2.574 1.063.985 0 1.836-.219 2.557-.656v1.114zM234.555 263.226c-.72 0-1.29.245-1.71.735-.418.49-.628 1.165-.628 2.027 0 .829.212 1.483.636 1.962.424.478.99.717 1.702.717.725 0 1.28-.234 1.672-.704.389-.47.584-1.137.584-2.003 0-.875-.195-1.55-.584-2.023-.391-.474-.947-.711-1.672-.711m-.082 6.385c-1.034 0-1.86-.327-2.48-.981-.616-.654-.924-1.521-.924-2.601 0-1.176.32-2.095.964-2.755.642-.661 1.51-.991 2.604-.991 1.044 0 1.858.32 2.443.964.586.642.879 1.533.879 2.672 0 1.117-.315 2.01-.947 2.683-.631.673-1.478 1.009-2.54 1.009M245.56 269.446h-1.12v-3.992c0-1.486-.542-2.229-1.627-2.229-.561 0-1.024.211-1.391.633-.368.421-.55.953-.55 1.596v3.992h-1.123v-7h1.123v1.162h.026c.529-.884 1.294-1.326 2.298-1.326.764 0 1.35.247 1.756.742.405.494.608 1.21.608 2.143v4.28zM250.92 269.378c-.265.146-.613.22-1.046.22-1.225 0-1.84-.685-1.84-2.052v-4.143h-1.202v-.957h1.203v-1.709l1.12-.362v2.071h1.765v.957h-1.764v3.945c0 .47.08.804.24 1.005.159.2.423.3.793.3.282 0 .526-.077.73-.232v.957zM256.307 265.905l-1.688.232c-.52.073-.912.202-1.176.387-.265.184-.397.511-.397.981 0 .341.122.621.365.837.245.216.57.325.975.325.556 0 1.016-.195 1.377-.585.363-.389.544-.883.544-1.48v-.697zm1.12 3.541h-1.12v-1.094h-.027c-.488.84-1.205 1.258-2.154 1.258-.697 0-1.243-.184-1.636-.554-.395-.369-.592-.859-.592-1.469 0-1.308.77-2.069 2.31-2.284l2.099-.294c0-1.189-.48-1.784-1.442-1.784-.843 0-1.605.287-2.284.862v-1.149c.689-.437 1.482-.656 2.379-.656 1.646 0 2.468.871 2.468 2.611v4.553zM259.54 269.446h1.121v-7h-1.121v7zm.574-8.777a.708.708 0 01-.512-.205.69.69 0 01-.212-.52.7.7 0 01.212-.522.7.7 0 01.512-.209.725.725 0 01.739.731.698.698 0 01-.215.513.724.724 0 01-.524.212zM268.741 269.446h-1.12v-3.992c0-1.486-.543-2.229-1.628-2.229-.56 0-1.024.211-1.39.633-.368.421-.55.953-.55 1.596v3.992h-1.123v-7h1.122v1.162h.027c.528-.884 1.294-1.326 2.297-1.326.765 0 1.351.247 1.757.742.405.494.608 1.21.608 2.143v4.28zM275.331 265.276c-.005-.647-.16-1.15-.468-1.51-.308-.36-.735-.54-1.282-.54a1.81 1.81 0 00-1.347.567c-.369.378-.596.873-.683 1.483h3.78zm1.148.95h-4.942c.02.78.228 1.382.63 1.805.4.424.951.637 1.653.637.788 0 1.513-.26 2.174-.78v1.053c-.615.447-1.429.67-2.44.67-.99 0-1.766-.318-2.33-.954-.567-.635-.849-1.53-.849-2.683 0-1.09.31-1.976.926-2.662.618-.687 1.384-1.03 2.301-1.03.916 0 1.625.297 2.125.89.501.591.752 1.414.752 2.466v.589zM281.825 263.581c-.196-.15-.479-.226-.848-.226-.478 0-.879.226-1.199.677-.322.451-.482 1.067-.482 1.846v3.568h-1.12v-7h1.12v1.443h.027c.16-.493.403-.876.731-1.152a1.67 1.67 0 011.101-.414c.292 0 .515.032.67.096v1.162zM209.784 277.483v3.555h1.56c.286 0 .551-.043.795-.13.244-.087.455-.211.632-.372.178-.162.318-.361.417-.596.101-.234.151-.497.151-.79 0-.523-.17-.933-.509-1.226-.34-.295-.83-.441-1.474-.441h-1.572zm5.88 8.764h-1.368l-1.64-2.748a5.993 5.993 0 00-.438-.653 2.526 2.526 0 00-.434-.441 1.516 1.516 0 00-.479-.25 1.976 1.976 0 00-.578-.078h-.943v4.17h-1.148v-9.803h2.925c.43 0 .825.054 1.187.16.362.108.677.27.943.489.267.219.475.492.625.818.151.325.226.707.226 1.144 0 .342-.05.656-.154.94a2.459 2.459 0 01-.437.762 2.65 2.65 0 01-.684.572 3.535 3.535 0 01-.899.365v.027c.164.074.307.157.428.25.12.093.235.203.344.33.11.129.218.274.326.436.106.16.226.35.358.563l1.84 2.947zM220.947 282.076c-.004-.647-.16-1.15-.468-1.51-.307-.36-.735-.54-1.282-.54-.528 0-.978.19-1.347.567-.369.378-.596.873-.683 1.483h3.78zm1.148.95h-4.942c.02.78.23 1.381.63 1.805.4.424.952.636 1.653.636.79 0 1.514-.26 2.174-.78v1.053c-.615.446-1.429.67-2.44.67-.989 0-1.766-.318-2.33-.953-.566-.637-.849-1.53-.849-2.684 0-1.089.31-1.976.927-2.662.617-.686 1.383-1.029 2.3-1.029.916 0 1.625.296 2.125.89.502.591.752 1.414.752 2.466v.588zM228.644 283.081v-1.032c0-.556-.186-1.032-.563-1.429a1.86 1.86 0 00-1.405-.595c-.692 0-1.234.252-1.627.756-.392.503-.589 1.208-.589 2.115 0 .78.19 1.403.565 1.87.376.467.874.701 1.493.701.63 0 1.142-.224 1.536-.67.393-.446.59-1.019.59-1.716zm1.121 2.604c0 2.571-1.23 3.856-3.69 3.856-.867 0-1.623-.164-2.27-.492v-1.12c.788.436 1.54.655 2.255.655 1.724 0 2.584-.916 2.584-2.748v-.766h-.026c-.535.894-1.335 1.34-2.407 1.34-.87 0-1.572-.31-2.102-.933-.53-.622-.797-1.458-.797-2.505 0-1.19.286-2.135.858-2.837.573-.702 1.356-1.053 2.349-1.053.942 0 1.643.378 2.099 1.135h.026v-.97h1.121v6.438zM232.035 286.246h1.122v-7h-1.122v7zm.575-8.777a.709.709 0 01-.513-.205.694.694 0 01-.212-.52c0-.21.071-.384.212-.523a.703.703 0 01.513-.208c.205 0 .379.069.524.208a.703.703 0 01.215.523c0 .2-.073.371-.215.513a.72.72 0 01-.524.212zM235.003 285.993v-1.203c.61.451 1.283.677 2.017.677.984 0 1.476-.328 1.476-.985a.853.853 0 00-.126-.474 1.276 1.276 0 00-.342-.346 2.629 2.629 0 00-.505-.27c-.195-.08-.403-.163-.626-.25a8.04 8.04 0 01-.818-.373 2.466 2.466 0 01-.588-.423 1.592 1.592 0 01-.355-.537 1.911 1.911 0 01-.12-.704c0-.328.076-.619.226-.87.15-.255.35-.466.602-.638.25-.169.536-.298.858-.385.32-.087.653-.13.994-.13.607 0 1.149.104 1.627.314v1.135c-.514-.337-1.107-.506-1.777-.506-.21 0-.398.024-.567.072a1.365 1.365 0 00-.435.202.932.932 0 00-.28.31.814.814 0 00-.1.401c0 .182.034.335.1.458a.993.993 0 00.29.328c.129.095.283.182.466.26.182.077.389.162.622.252.309.12.588.241.834.366.246.126.456.267.629.423.172.16.306.34.4.544.093.206.14.45.14.732 0 .347-.077.647-.23.902a1.962 1.962 0 01-.611.636 2.789 2.789 0 01-.882.376 4.362 4.362 0 01-1.046.123c-.72 0-1.345-.139-1.873-.417M244.613 286.178c-.265.146-.613.219-1.046.219-1.225 0-1.839-.684-1.839-2.051v-4.143h-1.203v-.957h1.203v-1.71l1.121-.361v2.07h1.764v.958h-1.764v3.945c0 .469.08.804.24 1.005.16.2.423.3.793.3.282 0 .526-.077.731-.232v.957zM249.76 280.381c-.195-.15-.478-.226-.847-.226-.478 0-.88.226-1.2.677-.321.451-.481 1.067-.481 1.846v3.568h-1.121v-7h1.12v1.443h.028c.159-.493.403-.876.73-1.152a1.67 1.67 0 011.102-.414c.292 0 .515.032.67.096v1.162zM257.11 279.246l-3.22 8.121c-.575 1.45-1.382 2.174-2.42 2.174-.293 0-.536-.029-.732-.089v-1.005c.241.082.463.123.663.123.565 0 .99-.337 1.271-1.01l.561-1.328-2.734-6.986h1.244l1.893 5.387c.023.068.071.246.144.533h.041c.022-.109.068-.282.137-.52l1.99-5.4h1.161zM5.195 268.446H0v-9.803h4.976v1.04H1.148v3.26H4.69v1.032H1.15v3.432h4.046zM12.045 261.446l-2.352 3.541 2.31 3.46h-1.305l-1.374-2.27a14.98 14.98 0 01-.307-.534h-.028c-.022.041-.13.22-.321.533l-1.401 2.27H5.975l2.385-3.432-2.283-3.568h1.306l1.353 2.393c.1.177.199.36.294.546h.028l1.75-2.939h1.237zM13.358 268.446h1.121v-7h-1.121v7zm.574-8.777a.71.71 0 01-.725-.725c0-.209.071-.383.212-.522a.702.702 0 01.513-.209.72.72 0 01.523.209.695.695 0 01.215.522.69.69 0 01-.215.513.718.718 0 01-.523.212zM16.324 268.193v-1.202a3.32 3.32 0 002.017.677c.984 0 1.476-.329 1.476-.986a.856.856 0 00-.126-.475 1.259 1.259 0 00-.342-.344c-.143-.1-.312-.19-.505-.27-.195-.08-.403-.163-.626-.25a8.145 8.145 0 01-.817-.373 2.483 2.483 0 01-.588-.424 1.563 1.563 0 01-.355-.536 1.89 1.89 0 01-.12-.704c0-.328.075-.618.225-.871.151-.253.352-.466.602-.637.251-.17.537-.3.858-.385.322-.088.653-.13.994-.13.607 0 1.15.104 1.627.313v1.135c-.514-.337-1.107-.505-1.777-.505-.209 0-.398.024-.567.072a1.382 1.382 0 00-.434.202.91.91 0 00-.28.31.808.808 0 00-.1.4c0 .183.033.336.1.459.065.123.163.232.29.328.128.094.283.181.465.258.182.079.39.163.622.254.31.118.588.24.834.365.246.126.456.267.63.424.172.157.305.339.4.543.092.207.14.45.14.733 0 .346-.078.647-.23.901a1.945 1.945 0 01-.612.636 2.812 2.812 0 01-.882.377 4.35 4.35 0 01-1.046.123c-.72 0-1.344-.14-1.873-.418M25.936 268.378c-.264.146-.613.22-1.046.22-1.226 0-1.84-.685-1.84-2.052v-4.143h-1.203v-.957h1.203v-1.709l1.122-.362v2.071h1.764v.957h-1.764v3.945c0 .47.08.804.24 1.005.16.2.422.3.793.3.283 0 .526-.077.73-.232v.957zM27.433 268.446h1.121v-7h-1.121v7zm.574-8.777a.712.712 0 01-.725-.725c0-.209.072-.383.212-.522a.703.703 0 01.513-.209.72.72 0 01.523.209.695.695 0 01.215.522.69.69 0 01-.215.513.718.718 0 01-.523.212zM36.634 268.446h-1.121v-3.992c0-1.486-.542-2.229-1.627-2.229-.561 0-1.024.211-1.391.633-.367.421-.55.953-.55 1.596v3.992h-1.122v-7h1.122v1.162h.027c.529-.884 1.295-1.326 2.297-1.326.765 0 1.35.247 1.757.742.406.494.608 1.21.608 2.143v4.28zM43.6 265.281v-1.032c0-.556-.187-1.032-.563-1.429a1.86 1.86 0 00-1.406-.595c-.692 0-1.234.252-1.627.756-.391.503-.588 1.21-.588 2.115 0 .78.189 1.403.565 1.87.376.467.874.701 1.493.701.629 0 1.14-.223 1.535-.67.394-.447.59-1.019.59-1.716zm1.12 2.604c0 2.571-1.23 3.856-3.69 3.856-.866 0-1.622-.164-2.27-.492v-1.12c.789.436 1.54.655 2.256.655 1.723 0 2.584-.916 2.584-2.748v-.766h-.027c-.534.893-1.335 1.34-2.407 1.34-.87 0-1.571-.31-2.101-.933-.531-.622-.797-1.457-.797-2.505 0-1.19.286-2.136.858-2.837.572-.702 1.355-1.053 2.348-1.053.943 0 1.644.378 2.099 1.135h.027v-.97h1.12v6.438zM55.877 264.666l-1.538-4.177a3.98 3.98 0 01-.15-.656h-.028a3.539 3.539 0 01-.157.656l-1.524 4.177h3.397zm2.687 3.78h-1.272l-1.039-2.748h-4.156l-.978 2.748h-1.278l3.76-9.802h1.189l3.774 9.802zM60.977 264.611v.978c0 .579.188 1.07.565 1.474.374.403.852.605 1.431.605.678 0 1.212-.26 1.597-.78s.578-1.241.578-2.167c0-.78-.18-1.39-.541-1.832-.36-.442-.849-.663-1.463-.663-.65 0-1.176.226-1.572.68-.398.454-.595 1.022-.595 1.705m.028 2.824h-.028v4.231h-1.12v-10.22h1.12v1.23h.028c.55-.928 1.357-1.393 2.42-1.393.903 0 1.606.313 2.112.94.504.625.758 1.465.758 2.518 0 1.172-.285 2.11-.855 2.814-.567.704-1.347 1.055-2.337 1.055-.907 0-1.605-.392-2.099-1.175M69.208 264.611v.978c0 .579.187 1.07.564 1.474.375.403.853.605 1.432.605.679 0 1.211-.26 1.596-.78.386-.52.578-1.241.578-2.167 0-.78-.18-1.39-.54-1.832-.36-.442-.848-.663-1.463-.663-.651 0-1.176.226-1.572.68-.397.454-.595 1.022-.595 1.705m.027 2.824h-.027v4.231h-1.121v-10.22h1.121v1.23h.027c.552-.928 1.359-1.393 2.42-1.393.903 0 1.607.313 2.113.94.505.625.758 1.465.758 2.518 0 1.172-.285 2.11-.854 2.814-.569.704-1.349 1.055-2.338 1.055-.907 0-1.606-.392-2.099-1.175M76.317 268.446h1.121v-10.363h-1.121zM79.708 268.446h1.121v-7h-1.121v7zm.574-8.777a.708.708 0 01-.512-.205.69.69 0 01-.212-.52.7.7 0 01.212-.522.7.7 0 01.512-.209.725.725 0 01.739.731.698.698 0 01-.215.513.724.724 0 01-.524.212zM87.87 268.125c-.538.323-1.176.485-1.914.485-.998 0-1.804-.324-2.416-.974-.613-.649-.92-1.49-.92-2.526 0-1.152.33-2.079.991-2.778.661-.7 1.543-1.05 2.646-1.05.615 0 1.157.114 1.627.342v1.148c-.52-.364-1.076-.546-1.668-.546-.716 0-1.303.256-1.76.77-.459.511-.688 1.185-.688 2.02 0 .82.215 1.466.647 1.94.43.474 1.008.711 1.732.711.611 0 1.185-.203 1.723-.608v1.066zM93.455 264.905l-1.688.232c-.52.073-.912.202-1.176.387-.265.184-.397.511-.397.981 0 .341.122.621.365.837.245.216.57.325.975.325.556 0 1.016-.195 1.377-.585.363-.389.544-.883.544-1.48v-.697zm1.121 3.541h-1.12v-1.094h-.028c-.488.84-1.205 1.258-2.154 1.258-.697 0-1.243-.184-1.636-.554-.395-.369-.592-.859-.592-1.469 0-1.308.77-2.069 2.31-2.284l2.1-.294c0-1.189-.48-1.784-1.443-1.784-.843 0-1.605.287-2.284.862v-1.149c.69-.437 1.482-.656 2.38-.656 1.645 0 2.467.871 2.467 2.611v4.553zM99.936 268.378c-.266.146-.614.22-1.047.22-1.224 0-1.838-.685-1.838-2.052v-4.143h-1.204v-.957h1.204v-1.709l1.12-.362v2.071h1.764v.957h-1.764v3.945c0 .47.08.804.24 1.005.16.2.424.3.793.3.283 0 .527-.077.732-.232v.957zM101.433 268.446h1.121v-7h-1.121v7zm.574-8.777a.712.712 0 01-.725-.725c0-.209.071-.383.212-.522a.703.703 0 01.513-.209c.205 0 .379.069.523.209a.698.698 0 01.215.522.694.694 0 01-.215.513.72.72 0 01-.523.212zM107.831 262.226c-.72 0-1.29.245-1.709.735-.419.49-.629 1.165-.629 2.027 0 .829.212 1.483.636 1.962.424.478.991.717 1.702.717.725 0 1.281-.234 1.672-.704.39-.47.584-1.137.584-2.003 0-.875-.195-1.55-.584-2.023-.39-.474-.947-.711-1.672-.711m-.082 6.385c-1.034 0-1.86-.327-2.479-.981-.617-.654-.925-1.521-.925-2.601 0-1.176.321-2.095.964-2.755.642-.661 1.51-.991 2.604-.991 1.044 0 1.858.32 2.443.964.586.642.88 1.533.88 2.672 0 1.117-.316 2.01-.948 2.683-.63.673-1.478 1.009-2.539 1.009M118.837 268.446h-1.121v-3.992c0-1.486-.542-2.229-1.627-2.229-.561 0-1.024.211-1.391.633-.367.421-.55.953-.55 1.596v3.992h-1.122v-7h1.122v1.162h.027c.528-.884 1.294-1.326 2.297-1.326.765 0 1.35.247 1.757.742.405.494.608 1.21.608 2.143v4.28zM707.938 265.666l-1.538-4.177a3.78 3.78 0 01-.15-.656h-.028a3.61 3.61 0 01-.158.656l-1.522 4.177h3.395zm2.688 3.78h-1.272l-1.04-2.748h-4.155l-.98 2.748h-1.276l3.76-9.802h1.188l3.774 9.802zM716.797 262.768l-4.143 5.722h4.102v.957h-5.748v-.35l4.143-5.693h-3.754v-.957h5.4zM723.906 269.446h-1.12v-1.107h-.028c-.465.847-1.185 1.271-2.16 1.271-1.669 0-2.503-.994-2.503-2.98v-4.184h1.116v4.006c0 1.476.564 2.215 1.695 2.215.547 0 .996-.202 1.35-.605.353-.404.53-.93.53-1.583v-4.033h1.12v7zM729.82 263.581c-.196-.15-.479-.226-.848-.226-.478 0-.879.226-1.2.677-.32.451-.48 1.067-.48 1.846v3.568h-1.122v-7h1.121v1.443h.027c.16-.493.402-.876.731-1.152a1.667 1.667 0 011.101-.414c.291 0 .515.032.67.096v1.162zM735.33 265.276c-.005-.647-.16-1.15-.469-1.51-.307-.36-.734-.54-1.28-.54a1.81 1.81 0 00-1.349.567c-.369.378-.596.873-.683 1.483h3.781zm1.148.95h-4.943c.02.78.23 1.382.63 1.805.4.424.952.637 1.653.637.79 0 1.514-.26 2.174-.78v1.053c-.615.447-1.428.67-2.439.67-.99 0-1.767-.318-2.332-.954-.565-.635-.848-1.53-.848-2.683 0-1.09.31-1.976.927-2.662.618-.687 1.384-1.03 2.3-1.03.916 0 1.625.297 2.126.89.501.591.752 1.414.752 2.466v.589zM743.307 260.683v7.725h1.463c1.285 0 2.286-.345 3.002-1.033.715-.688 1.072-1.663 1.072-2.925 0-2.512-1.335-3.767-4.006-3.767h-1.531zm-1.148 8.764v-9.803h2.707c3.455 0 5.18 1.593 5.18 4.778 0 1.513-.477 2.729-1.437 3.647-.96.919-2.243 1.378-3.853 1.378h-2.597zM755.715 265.905l-1.69.232c-.52.073-.91.202-1.175.387-.264.184-.397.511-.397.981 0 .341.123.621.366.837.244.216.57.325.974.325.557 0 1.016-.195 1.377-.585.363-.389.545-.883.545-1.48v-.697zm1.12 3.541h-1.12v-1.094h-.027c-.49.84-1.205 1.258-2.155 1.258-.697 0-1.242-.184-1.636-.554-.395-.369-.592-.859-.592-1.469 0-1.308.77-2.069 2.31-2.284l2.1-.294c0-1.189-.48-1.784-1.443-1.784-.842 0-1.604.287-2.284.862v-1.149c.69-.437 1.483-.656 2.379-.656 1.647 0 2.469.871 2.469 2.611v4.553zM762.195 269.378c-.266.146-.613.22-1.047.22-1.224 0-1.838-.685-1.838-2.052v-4.143h-1.203v-.957h1.203v-1.709l1.121-.362v2.071h1.764v.957h-1.764v3.945c0 .47.08.804.24 1.005.16.2.422.3.792.3.283 0 .527-.077.732-.232v.957zM767.582 265.905l-1.689.232c-.52.073-.911.202-1.176.387-.264.184-.397.511-.397.981 0 .341.123.621.366.837.244.216.57.325.974.325.557 0 1.016-.195 1.377-.585.363-.389.545-.883.545-1.48v-.697zm1.121 3.541h-1.121v-1.094h-.027c-.489.84-1.205 1.258-2.155 1.258-.697 0-1.242-.184-1.636-.554-.395-.369-.592-.859-.592-1.469 0-1.308.771-2.069 2.31-2.284l2.1-.294c0-1.189-.48-1.784-1.443-1.784-.842 0-1.604.287-2.284.862v-1.149c.69-.437 1.483-.656 2.379-.656 1.647 0 2.469.871 2.469 2.611v4.553zM771.936 265.611v.978c0 .579.186 1.07.563 1.474.375.403.855.605 1.433.605.68 0 1.21-.26 1.596-.78.386-.52.577-1.241.577-2.167 0-.78-.18-1.39-.538-1.832-.361-.442-.849-.663-1.463-.663-.653 0-1.177.226-1.572.68-.398.454-.596 1.022-.596 1.705m.026 2.824h-.026v1.012h-1.122v-10.363h1.122v4.592h.026c.553-.928 1.36-1.393 2.42-1.393.9 0 1.603.313 2.11.94.508.625.762 1.465.762 2.518 0 1.172-.286 2.11-.854 2.814-.57.704-1.35 1.055-2.337 1.055-.927 0-1.625-.392-2.1-1.175M782.75 265.905l-1.687.232c-.52.073-.913.202-1.176.387-.266.184-.397.511-.397.981 0 .341.121.621.365.837.245.216.569.325.975.325.555 0 1.016-.195 1.377-.585.363-.389.543-.883.543-1.48v-.697zm1.121 3.541h-1.121v-1.094h-.027c-.487.84-1.205 1.258-2.153 1.258-.697 0-1.244-.184-1.636-.554-.395-.369-.592-.859-.592-1.469 0-1.308.769-2.069 2.31-2.284l2.098-.294c0-1.189-.48-1.784-1.441-1.784-.844 0-1.606.287-2.284.862v-1.149c.688-.437 1.481-.656 2.379-.656 1.645 0 2.467.871 2.467 2.611v4.553zM785.56 269.193v-1.202a3.315 3.315 0 002.017.677c.984 0 1.476-.329 1.476-.986a.856.856 0 00-.125-.475 1.287 1.287 0 00-.342-.344c-.144-.1-.313-.19-.505-.27-.197-.08-.404-.163-.628-.25a8.25 8.25 0 01-.817-.373 2.525 2.525 0 01-.587-.424 1.592 1.592 0 01-.356-.536 1.89 1.89 0 01-.119-.704c0-.328.075-.618.225-.871.15-.253.351-.466.601-.637.253-.17.538-.3.86-.385.32-.088.653-.13.994-.13.606 0 1.149.104 1.626.313v1.135c-.514-.337-1.106-.505-1.776-.505-.212 0-.399.024-.569.072a1.392 1.392 0 00-.433.202.896.896 0 00-.28.31.808.808 0 00-.1.4c0 .183.034.336.1.459a.99.99 0 00.29.328c.129.094.283.181.465.258.183.079.39.163.622.254.309.118.589.24.835.365.245.126.455.267.629.424.17.157.305.339.4.543.091.207.139.45.139.733 0 .346-.077.647-.23.901a1.953 1.953 0 01-.61.636 2.817 2.817 0 01-.883.377 4.354 4.354 0 01-1.046.123c-.72 0-1.346-.14-1.872-.418M796.402 265.276c-.006-.647-.162-1.15-.469-1.51-.308-.36-.734-.54-1.28-.54a1.81 1.81 0 00-1.349.567c-.369.378-.595.873-.683 1.483h3.781zm1.148.95h-4.943c.02.78.23 1.382.63 1.805.401.424.952.637 1.653.637.79 0 1.514-.26 2.174-.78v1.053c-.615.447-1.428.67-2.439.67-.99 0-1.766-.318-2.332-.954-.565-.635-.848-1.53-.848-2.683 0-1.09.31-1.976.926-2.662.62-.687 1.385-1.03 2.301-1.03.916 0 1.625.297 2.126.89.5.591.752 1.414.752 2.466v.589zM721.918 276.867a1.498 1.498 0 00-.746-.185c-.783 0-1.176.495-1.176 1.484v1.08h1.641v.957h-1.641v6.043h-1.113v-6.043h-1.197v-.957h1.197v-1.135c0-.733.211-1.313.635-1.74.423-.426.953-.639 1.586-.639.341 0 .613.041.814.123v1.012zM725.848 280.026c-.72 0-1.29.245-1.71.733-.418.491-.628 1.166-.628 2.029 0 .828.213 1.483.637 1.962.424.478.99.716 1.7.716.726 0 1.283-.233 1.673-.704.39-.469.584-1.135.584-2.002 0-.875-.194-1.55-.584-2.024-.39-.474-.947-.71-1.672-.71m-.082 6.385c-1.034 0-1.86-.327-2.478-.981-.618-.654-.926-1.522-.926-2.601 0-1.177.322-2.094.965-2.755.642-.661 1.509-.992 2.603-.992 1.044 0 1.859.322 2.444.964.585.642.878 1.534.878 2.673 0 1.117-.314 2.01-.946 2.683-.632.673-1.478 1.009-2.54 1.009M734.693 280.381c-.195-.15-.479-.226-.848-.226-.478 0-.878.226-1.199.677-.32.451-.482 1.067-.482 1.846v3.568h-1.12v-7h1.12v1.443h.027c.16-.493.404-.876.732-1.152a1.668 1.668 0 011.1-.414c.292 0 .516.032.67.096v1.162zM749.89 286.246h-1.142v-6.576c0-.52.033-1.155.096-1.907h-.027c-.11.442-.207.758-.293.95l-3.35 7.533h-.56l-3.344-7.479c-.096-.218-.193-.553-.293-1.004h-.027c.036.391.054 1.032.054 1.921v6.562h-1.107v-9.803h1.517l3.008 6.836c.233.525.383.916.45 1.176h.042c.196-.538.353-.938.47-1.203l3.07-6.809h1.437v9.803zM757.889 279.246l-3.221 8.121c-.574 1.45-1.381 2.174-2.42 2.174-.291 0-.535-.029-.73-.089v-1.005c.24.082.463.123.662.123.566 0 .99-.337 1.272-1.01l.56-1.328-2.734-6.986h1.244l1.894 5.387c.022.068.07.246.143.533h.04c.024-.109.069-.282.138-.52l1.99-5.4h1.162zM758.783 285.85v-1.354c.156.137.342.26.56.37.213.109.442.2.682.277.238.074.48.133.721.174.24.04.465.06.67.06.705 0 1.234-.13 1.582-.392.35-.262.523-.64.523-1.131 0-.265-.058-.494-.174-.691a1.964 1.964 0 00-.482-.536 4.718 4.718 0 00-.728-.465 58.22 58.22 0 00-.907-.468c-.342-.173-.66-.35-.957-.527a4.128 4.128 0 01-.77-.588 2.437 2.437 0 01-.517-.727 2.234 2.234 0 01-.189-.954c0-.446.097-.835.295-1.165.195-.331.453-.604.771-.818.32-.213.684-.374 1.092-.478a4.96 4.96 0 011.246-.157c.967 0 1.67.116 2.113.348v1.292c-.58-.401-1.322-.601-2.228-.601-.252 0-.502.026-.752.078a2.13 2.13 0 00-.67.257 1.468 1.468 0 00-.479.458 1.214 1.214 0 00-.185.683c0 .25.047.467.14.65.094.182.231.348.414.499.182.15.405.296.667.437.261.142.564.296.906.465.35.173.683.356.998.547.314.19.59.403.826.636.238.232.426.49.564.772.14.282.21.607.21.97 0 .484-.096.893-.284 1.227a2.335 2.335 0 01-.765.818c-.323.21-.694.36-1.112.454a6.05 6.05 0 01-1.326.14c-.156 0-.348-.012-.574-.037a8.035 8.035 0 01-.697-.11 5.807 5.807 0 01-.674-.177 2.142 2.142 0 01-.51-.236M770.713 277.318c-1.031 0-1.867.372-2.51 1.115-.642.743-.963 1.718-.963 2.925 0 1.204.313 2.176.936 2.92.629.732 1.447 1.1 2.455 1.1 1.074 0 1.922-.35 2.543-1.053.619-.702.93-1.683.93-2.945 0-1.3-.301-2.3-.903-3.002-.601-.705-1.431-1.06-2.488-1.06m-.082 9.093c-1.387 0-2.5-.459-3.344-1.375-.834-.916-1.25-2.108-1.25-3.575 0-1.58.426-2.839 1.278-3.774.857-.938 2.017-1.408 3.48-1.408 1.348 0 2.438.457 3.268 1.368.828.91 1.244 2.103 1.244 3.575 0 1.6-.424 2.865-1.272 3.793a3.807 3.807 0 01-.642.575l2.754 1.976h-2.084l-1.846-1.381a5.3 5.3 0 01-1.586.226M782.32 286.246h-5.086v-9.803h1.148v8.764h3.938zM486.435 103.333l-1.538-4.177a3.878 3.878 0 01-.15-.656h-.028a3.539 3.539 0 01-.157.656l-1.524 4.177h3.397zm2.687 3.78h-1.272l-1.04-2.748h-4.155l-.978 2.748h-1.278l3.76-9.802h1.189l3.774 9.802zM495.294 100.434l-4.143 5.722h4.102v.957h-5.75v-.349l4.144-5.694h-3.753v-.957h5.4zM502.403 107.113h-1.12v-1.107h-.028c-.465.847-1.185 1.27-2.16 1.27-1.669 0-2.503-.993-2.503-2.98v-4.183h1.115v4.006c0 1.476.564 2.215 1.695 2.215.547 0 .997-.202 1.35-.605.353-.404.53-.931.53-1.583v-4.033h1.121v7zM508.316 101.248c-.195-.15-.479-.226-.848-.226-.478 0-.879.226-1.199.677-.322.45-.482 1.067-.482 1.846v3.568h-1.12v-7h1.12v1.443h.027c.16-.493.403-.876.731-1.152a1.669 1.669 0 011.101-.414c.291 0 .516.032.67.096v1.162zM513.826 102.943c-.004-.647-.16-1.151-.469-1.511-.306-.36-.734-.54-1.28-.54-.53 0-.979.189-1.348.568-.369.378-.596.872-.683 1.483h3.78zm1.148.95h-4.942c.02.779.228 1.381.63 1.805.4.424.951.636 1.653.636.788 0 1.513-.26 2.174-.78v1.053c-.615.447-1.429.67-2.44.67-.989 0-1.766-.318-2.33-.954-.567-.635-.849-1.53-.849-2.683 0-1.089.31-1.976.927-2.662.617-.686 1.383-1.029 2.3-1.029.916 0 1.624.296 2.125.889.502.592.752 1.415.752 2.467v.588zM525.557 103.333l-1.538-4.177a3.878 3.878 0 01-.15-.656h-.028a3.622 3.622 0 01-.157.656l-1.524 4.177h3.397zm2.687 3.78h-1.272l-1.04-2.748h-4.155l-.978 2.748h-1.278l3.76-9.802h1.189l3.774 9.802zM534.307 106.792c-.538.323-1.176.485-1.914.485-.998 0-1.804-.324-2.416-.974-.613-.65-.92-1.491-.92-2.526 0-1.152.33-2.08.99-2.778.662-.7 1.544-1.05 2.647-1.05.615 0 1.157.114 1.627.342v1.148c-.52-.364-1.076-.546-1.668-.546-.716 0-1.303.256-1.76.769-.46.512-.688 1.186-.688 2.02 0 .82.215 1.467.647 1.94.43.475 1.008.712 1.732.712.61 0 1.185-.203 1.723-.608v1.066zM539.249 107.045c-.265.146-.613.219-1.046.219-1.225 0-1.839-.684-1.839-2.051v-4.143h-1.203v-.957h1.203v-1.71l1.121-.361v2.07h1.764v.958h-1.764v3.945c0 .469.08.804.24 1.005.159.2.423.3.793.3.282 0 .526-.077.731-.232v.957zM540.746 107.113h1.121v-7h-1.121v7zm.574-8.777a.712.712 0 01-.724-.725c0-.209.07-.384.212-.523a.703.703 0 01.512-.208c.205 0 .379.069.524.208a.704.704 0 01.215.523.698.698 0 01-.215.513.724.724 0 01-.524.212zM549.64 100.113l-2.79 7h-1.1l-2.652-7h1.23l1.778 5.086c.132.373.214.7.246.977h.027c.046-.351.118-.667.219-.95l1.859-5.113h1.183zM555.238 102.943c-.005-.647-.16-1.151-.468-1.511-.308-.36-.735-.54-1.282-.54a1.81 1.81 0 00-1.347.568c-.369.378-.596.872-.683 1.483h3.78zm1.148.95h-4.942c.02.779.228 1.381.63 1.805.4.424.951.636 1.653.636.788 0 1.513-.26 2.174-.78v1.053c-.615.447-1.429.67-2.44.67-.99 0-1.766-.318-2.33-.954-.567-.635-.849-1.53-.849-2.683 0-1.089.31-1.976.926-2.662.618-.686 1.384-1.029 2.301-1.029.916 0 1.625.296 2.125.889.501.592.752 1.415.752 2.467v.588zM492.672 115.15v7.724h1.463c1.285 0 2.286-.344 3.002-1.033.715-.688 1.072-1.663 1.072-2.925 0-2.51-1.335-3.767-4.006-3.767h-1.531zm-1.148 8.763v-9.803h2.707c3.455 0 5.18 1.593 5.18 4.778 0 1.513-.477 2.73-1.437 3.648-.96.918-2.243 1.377-3.853 1.377h-2.597zM501.19 123.913h1.121v-7h-1.121v7zm.574-8.778a.706.706 0 01-.512-.205.688.688 0 01-.213-.519c0-.21.071-.384.213-.524a.705.705 0 01.512-.208c.205 0 .38.07.523.208a.7.7 0 01.215.524.69.69 0 01-.215.512.714.714 0 01-.523.212zM508.23 118.047c-.195-.15-.478-.225-.848-.225-.478 0-.877.225-1.199.677-.32.45-.481 1.067-.481 1.846v3.567h-1.122v-7h1.122v1.444h.026c.16-.493.404-.876.733-1.152a1.668 1.668 0 011.1-.414c.292 0 .516.031.67.095v1.162zM513.74 119.743c-.004-.647-.16-1.15-.468-1.511-.307-.36-.735-.54-1.282-.54-.528 0-.977.19-1.346.568-.369.378-.597.873-.683 1.483h3.78zm1.148.95h-4.94c.017.779.227 1.38.628 1.805.4.424.952.636 1.654.636.788 0 1.513-.26 2.174-.78v1.053c-.615.446-1.43.67-2.44.67-.99 0-1.767-.318-2.33-.953-.567-.637-.849-1.53-.849-2.684 0-1.09.31-1.976.926-2.662.617-.686 1.384-1.03 2.3-1.03.917 0 1.625.297 2.125.89.502.592.752 1.415.752 2.467v.588zM521.356 123.591c-.538.324-1.177.486-1.914.486-.999 0-1.803-.325-2.417-.974-.612-.65-.92-1.491-.92-2.526 0-1.153.332-2.08.992-2.78.66-.698 1.543-1.048 2.645-1.048.615 0 1.159.114 1.628.342v1.148c-.52-.365-1.076-.547-1.668-.547-.716 0-1.303.256-1.76.77-.458.511-.688 1.185-.688 2.02 0 .82.216 1.466.646 1.94.432.475 1.009.712 1.733.712.611 0 1.185-.204 1.722-.609v1.066zM526.298 123.844c-.265.146-.613.22-1.046.22-1.225 0-1.84-.685-1.84-2.052v-4.143h-1.202v-.957h1.203v-1.709l1.12-.362v2.071h1.765v.957h-1.764v3.945c0 .47.08.804.24 1.005.159.2.423.3.793.3.282 0 .526-.077.73-.232v.957zM530.693 117.692c-.72 0-1.29.245-1.709.734-.419.491-.629 1.166-.629 2.028 0 .829.212 1.483.636 1.962.424.478.991.717 1.702.717.725 0 1.281-.234 1.672-.704.39-.469.584-1.136.584-2.003 0-.875-.195-1.549-.584-2.023-.39-.474-.947-.711-1.672-.711m-.082 6.385c-1.034 0-1.86-.327-2.479-.981-.617-.654-.925-1.521-.925-2.601 0-1.176.321-2.094.964-2.755.642-.661 1.51-.991 2.604-.991 1.044 0 1.858.321 2.443.964.586.642.88 1.533.88 2.672 0 1.117-.316 2.011-.948 2.684-.63.672-1.478 1.008-2.539 1.008M539.54 118.047c-.197-.15-.48-.225-.849-.225-.478 0-.879.225-1.199.677-.322.45-.482 1.067-.482 1.846v3.567h-1.12v-7h1.12v1.444h.027c.16-.493.403-.876.731-1.152a1.67 1.67 0 011.101-.414c.292 0 .515.031.67.095v1.162zM546.888 116.913l-3.22 8.12c-.574 1.45-1.381 2.175-2.42 2.175-.292 0-.535-.03-.731-.09v-1.004c.24.082.463.123.663.123.565 0 .989-.337 1.27-1.011l.562-1.327-2.734-6.986h1.244l1.893 5.387c.023.068.07.246.144.533h.04c.023-.11.069-.282.138-.52l1.989-5.4h1.162zM505.49 264.666l-1.539-4.177a3.98 3.98 0 01-.15-.656h-.028a3.633 3.633 0 01-.156.656l-1.525 4.177h3.398zm2.686 3.78h-1.272l-1.039-2.748h-4.156l-.977 2.748h-1.279l3.76-9.802h1.19l3.773 9.802zM516.441 268.446h-1.6l-3.787-4.484a2.678 2.678 0 01-.259-.342h-.028v4.826h-1.148v-9.803h1.148v4.608h.028c.063-.1.15-.212.26-.335l3.663-4.273h1.428l-4.203 4.703 4.498 5.1zM517.282 268.05v-1.354c.155.137.341.26.558.37.215.109.443.2.683.276.238.076.48.134.721.175.241.04.465.06.67.06.706 0 1.234-.13 1.582-.392.35-.262.523-.64.523-1.131 0-.264-.058-.495-.174-.691a1.979 1.979 0 00-.482-.536 4.718 4.718 0 00-.728-.465c-.28-.148-.582-.304-.906-.468a15.48 15.48 0 01-.957-.527 4.094 4.094 0 01-.772-.588 2.441 2.441 0 01-.516-.728 2.239 2.239 0 01-.188-.953c0-.447.097-.835.294-1.166.196-.33.453-.602.772-.817a3.512 3.512 0 011.091-.478 4.973 4.973 0 011.247-.157c.966 0 1.67.116 2.112.348v1.292c-.579-.401-1.32-.601-2.228-.601-.25 0-.5.026-.752.078a2.124 2.124 0 00-.67.257 1.478 1.478 0 00-.479.458 1.214 1.214 0 00-.184.683c0 .25.047.468.14.65.093.182.231.348.414.499.182.15.404.296.666.437.262.14.564.297.906.465.35.173.683.356.998.547.314.19.59.403.827.636.237.232.425.489.563.772.14.283.21.606.21.97 0 .484-.095.893-.284 1.228a2.34 2.34 0 01-.765.817 3.371 3.371 0 01-1.112.454 6.043 6.043 0 01-1.326.14c-.155 0-.347-.012-.574-.037a8.156 8.156 0 01-.697-.11 5.663 5.663 0 01-.674-.177 2.153 2.153 0 01-.509-.236M633.144 260.519c-1.029 0-1.865.372-2.509 1.114-.641.743-.963 1.719-.963 2.926 0 1.208.313 2.18.94 2.916.627.735 1.442 1.104 2.45 1.104 1.077 0 1.924-.352 2.543-1.053.62-.702.93-1.684.93-2.946 0-1.295-.3-2.295-.902-3.001-.601-.707-1.432-1.06-2.489-1.06m-.082 9.092c-1.39 0-2.503-.458-3.34-1.374-.836-.916-1.254-2.108-1.254-3.575 0-1.577.427-2.835 1.28-3.774.851-.94 2.011-1.408 3.478-1.408 1.355 0 2.443.456 3.273 1.367.825.912 1.24 2.103 1.24 3.575 0 1.6-.425 2.865-1.273 3.794-.846.93-1.981 1.395-3.404 1.395M639.208 269.05v-1.354c.155.137.341.26.558.37.215.109.443.2.683.276.238.076.479.134.721.175.242.04.465.06.67.06.707 0 1.234-.13 1.582-.392.349-.262.523-.64.523-1.131 0-.264-.058-.495-.174-.691a1.979 1.979 0 00-.482-.536 4.718 4.718 0 00-.728-.465c-.28-.148-.582-.304-.906-.468a15.48 15.48 0 01-.957-.527 4.094 4.094 0 01-.772-.588 2.441 2.441 0 01-.516-.728 2.239 2.239 0 01-.188-.953c0-.447.098-.835.294-1.166.195-.33.453-.602.772-.817a3.512 3.512 0 011.091-.478 4.973 4.973 0 011.247-.157c.966 0 1.671.116 2.112.348v1.292c-.578-.401-1.322-.601-2.228-.601-.25 0-.502.026-.752.078-.25.053-.475.138-.67.257a1.488 1.488 0 00-.479.458 1.214 1.214 0 00-.184.683c0 .25.047.468.139.65.094.182.233.348.415.499.181.15.404.296.666.437.262.14.564.297.906.465.351.173.683.356.998.547.314.19.59.403.827.636.237.232.425.489.563.772.14.283.209.606.209.97 0 .484-.094.893-.283 1.228a2.34 2.34 0 01-.765.817 3.362 3.362 0 01-1.112.454 6.05 6.05 0 01-1.326.14 5.45 5.45 0 01-.574-.037 8.035 8.035 0 01-.697-.11 5.714 5.714 0 01-.674-.177 2.153 2.153 0 01-.509-.236M648.252 264.88v3.527h1.559c.675 0 1.197-.159 1.568-.478.373-.319.559-.757.559-1.313 0-1.157-.79-1.736-2.366-1.736h-1.32zm0-4.197v3.165h1.176c.629 0 1.123-.152 1.484-.455.36-.303.539-.73.539-1.282 0-.952-.627-1.428-1.879-1.428h-1.32zm-1.148 8.763v-9.802h2.789c.847 0 1.519.207 2.017.622.496.414.744.954.744 1.62 0 .556-.15 1.039-.451 1.449-.301.41-.715.702-1.244.875v.027c.662.078 1.189.328 1.586.749.396.421.596.97.596 1.644 0 .838-.301 1.518-.903 2.037-.601.52-1.361.779-2.277.779h-2.857zM660.031 265.666l-1.539-4.177a4.087 4.087 0 01-.15-.656h-.028a3.633 3.633 0 01-.156.656l-1.525 4.177h3.398zm2.686 3.78h-1.272l-1.039-2.748h-4.156l-.977 2.748h-1.279l3.76-9.802h1.19l3.773 9.802zM574.996 439.31l-3.63 9.803H570.1l-3.554-9.803h1.277l2.715 7.772c.086.251.152.541.197.87h.028c.037-.275.112-.569.226-.883l2.768-7.759h1.238zM576.254 449.113h1.121v-7h-1.121v7zm.574-8.777a.717.717 0 01-.514-.205.698.698 0 01-.21-.52c0-.209.07-.384.21-.523a.707.707 0 01.514-.208.724.724 0 01.738.731.694.694 0 01-.215.513.72.72 0 01-.523.212zM583.295 443.248c-.196-.15-.48-.226-.848-.226-.478 0-.88.226-1.2.677-.321.45-.481 1.067-.481 1.846v3.568h-1.121v-7h1.12v1.443h.028c.159-.493.402-.876.73-1.152a1.667 1.667 0 011.102-.414c.29 0 .515.032.67.096v1.162zM588.162 449.045c-.265.146-.613.219-1.047.219-1.225 0-1.838-.684-1.838-2.051v-4.143h-1.203v-.957h1.203v-1.71l1.121-.361v2.07h1.764v.958h-1.764v3.945c0 .469.08.804.24 1.005.16.2.422.3.792.3.283 0 .527-.077.732-.232v.957zM595.318 449.113h-1.12v-1.107h-.028c-.465.847-1.185 1.27-2.16 1.27-1.669 0-2.503-.993-2.503-2.98v-4.183h1.116v4.006c0 1.476.564 2.215 1.695 2.215.547 0 .996-.202 1.35-.605.353-.404.53-.931.53-1.583v-4.033h1.12v7zM601.47 445.572l-1.686.232c-.52.073-.913.202-1.176.387-.265.184-.397.51-.397.98 0 .342.12.622.365.838.245.216.569.325.975.325.556 0 1.015-.195 1.377-.585.362-.39.543-.883.543-1.48v-.697zm1.122 3.54h-1.121v-1.093h-.027c-.488.839-1.205 1.258-2.153 1.258-.697 0-1.244-.184-1.637-.554-.394-.37-.591-.86-.591-1.47 0-1.307.769-2.068 2.31-2.283l2.098-.294c0-1.19-.48-1.784-1.441-1.784-.844 0-1.605.287-2.284.862v-1.15c.688-.436 1.48-.655 2.379-.655 1.645 0 2.467.87 2.467 2.61v4.554zM604.705 449.113h1.121V438.75h-1.121zM619.982 449.113h-1.408l-5.045-7.813a3.284 3.284 0 01-.315-.616h-.04c.037.21.054.659.054 1.347v7.082h-1.148v-9.803h1.49l4.908 7.69c.205.32.338.538.397.657h.027c-.045-.283-.068-.763-.068-1.442v-6.905h1.148v9.803zM626.88 444.943c-.005-.647-.161-1.151-.468-1.511-.308-.36-.734-.54-1.281-.54a1.81 1.81 0 00-1.348.568c-.37.378-.595.872-.683 1.483h3.78zm1.149.95h-4.943c.02.779.229 1.381.629 1.805.402.424.953.636 1.654.636.789 0 1.514-.26 2.174-.78v1.053c-.615.447-1.428.67-2.44.67-.99 0-1.765-.318-2.331-.954-.565-.635-.848-1.53-.848-2.683 0-1.089.309-1.976.926-2.662.619-.686 1.385-1.029 2.3-1.029.917 0 1.626.296 2.127.889.5.592.752 1.415.752 2.467v.588zM632.97 449.045c-.263.146-.612.219-1.044.219-1.226 0-1.84-.684-1.84-2.051v-4.143h-1.203v-.957h1.203v-1.71l1.12-.361v2.07h1.765v.958h-1.764v3.945c0 .469.08.804.24 1.005.159.2.424.3.794.3.28 0 .525-.077.73-.232v.957zM643.287 442.113l-2.1 7h-1.162l-1.44-5.011a3.144 3.144 0 01-.11-.65h-.028a3.101 3.101 0 01-.144.637l-1.565 5.024h-1.12l-2.12-7h1.176l1.45 5.264c.044.159.075.369.095.629h.054c.014-.201.055-.415.123-.643l1.614-5.25h1.025l1.45 5.277c.044.169.08.379.101.629h.055c.01-.177.048-.387.117-.63l1.422-5.276h1.107zM647.553 442.892c-.721 0-1.291.245-1.71.735-.42.49-.628 1.165-.628 2.027 0 .83.21 1.483.635 1.962.424.478.992.717 1.703.717.725 0 1.28-.234 1.672-.704.389-.469.584-1.137.584-2.003 0-.875-.195-1.549-.584-2.023-.391-.474-.947-.71-1.672-.71m-.082 6.384c-1.035 0-1.861-.327-2.48-.98-.616-.655-.924-1.522-.924-2.602 0-1.176.32-2.095.963-2.755.642-.66 1.51-.99 2.605-.99 1.043 0 1.857.32 2.443.963.586.642.879 1.533.879 2.672 0 1.117-.316 2.011-.947 2.683-.631.673-1.478 1.01-2.54 1.01M656.398 443.248c-.197-.15-.479-.226-.848-.226-.478 0-.879.226-1.199.677-.322.45-.482 1.067-.482 1.846v3.568h-1.12v-7h1.12v1.443h.027c.158-.493.402-.876.731-1.152a1.667 1.667 0 011.101-.414c.291 0 .514.032.67.096v1.162zM663.426 449.113h-1.572l-3.09-3.363h-.027v3.363h-1.122V438.75h1.122v6.569h.027l2.939-3.206h1.469l-3.246 3.377z" fill="#525252"/>
        <path d="M346.733 153.038c-.725.384-1.626.576-2.706.577-1.395.002-2.513-.445-3.352-1.342s-1.26-2.074-1.262-3.532c-.002-1.568.468-2.836 1.411-3.803.941-.967 2.138-1.452 3.587-1.454.93-.001 1.7.133 2.31.4l.002 1.224a4.685 4.685 0 00-2.325-.585c-1.125.002-2.037.379-2.736 1.132-.7.753-1.047 1.758-1.046 3.016.002 1.194.33 2.145.984 2.852.655.708 1.514 1.06 2.575 1.06.985-.001 1.836-.221 2.556-.66l.002 1.115zM353.815 153.44l-5.087.005-.012-9.802 1.15-.002.01 8.764 3.938-.005zM356.467 153.436l-1.148.001-.012-9.802 1.148-.002z" fill="#FFF"/>
        <path fill="#5AB5D9" d="M39.78 232.239h40.891v-28.984H39.78z"/>
        <path d="M67.205 235.025h-12.78c1.536 5.422-.528 6.199-9.566 6.199v2.839h30.732v-2.839c-9.037 0-9.924-.774-8.386-6.199" fill="#7A7A7A"/>
        <path d="M80.887 200.683h.019l-.02-.001H39.28c-.61 0-1.16.243-1.597.622.438-.378.988-.621 1.596-.621h41.608z" fill="#707070"/>
        <path d="M80.916 200.685l-4.277 3.614h3.419v27.112H44.55l-4.28 3.616h40.617c1.411 0 2.84-1.25 2.84-2.654v-29.015c0-1.405-1.41-2.655-2.811-2.673" fill="#A0A1A2"/>
        <path d="M80.916 200.685l-.011-.001h.011M36.726 232.373v-29.015a2.744 2.744 0 00-.001.001v29.014c0 1.404 1.14 2.654 2.554 2.654h.99-.99c-1.413 0-2.553-1.25-2.553-2.654" fill="#FFF"/>
        <path d="M40.287 231.41V204.3H76.64l4.277-3.616h-.01l-.019-.002H39.278c-.607 0-1.157.243-1.595.622a2.74 2.74 0 00-.958 2.054v29.015c0 1.403 1.14 2.653 2.554 2.653h.99l4.281-3.616h-4.263z" fill="#B3B4B5"/>
        <path fill="#A0A1A2" d="M44.86 244.063h30.73v-2.84H44.86z"/>
        <path d="M60.251 217.033a.26.26 0 01-.126-.036l-8.275-4.777a.25.25 0 01-.124-.217c0-.09.046-.172.124-.217l8.225-4.746a.255.255 0 01.248 0l8.279 4.78a.248.248 0 01.123.216c0 .09-.046.172-.123.216l-8.224 4.745a.246.246 0 01-.127.036" fill="#FFF"/>
        <path d="M59.31 228.393v-9.556a.263.263 0 00-.122-.22l-8.252-4.76a.241.241 0 00-.251 0 .248.248 0 00-.127.214v9.563a.245.245 0 00.127.214l8.25 4.762a.237.237 0 00.127.034h.002a.267.267 0 00.124-.034.256.256 0 00.122-.217" fill="#CDE9F3"/>
        <path d="M69.767 223.848a.245.245 0 00.127-.217v-9.495a.246.246 0 00-.127-.216.238.238 0 00-.247 0l-8.251 4.76a.258.258 0 00-.121.215v9.5a.252.252 0 00.12.215.272.272 0 00.129.034h.002a.225.225 0 00.12-.034l8.248-4.762z" fill="#9CD3E8"/>
        <path d="M517.086 83.3c-1.051.01-2.105-.4-2.813-1.164L496.382 64.65c-.778-.764-1.208-1.741-1.218-2.791-.01-1.052.4-2.106 1.165-2.814l17.558-17.822c.763-.777 1.74-1.207 2.79-1.217 1.052-.01 2.106.4 2.814 1.165l17.82 17.487c.779.764 1.209 1.74 1.218 2.79.01 1.052-.4 2.107-1.164 2.815l-17.488 17.82c-.693.778-1.74 1.208-2.791 1.218" fill="#59B3D8"/>
        <path d="M519.49 41.1c-.777-.763-1.763-1.174-2.813-1.164-1.05.01-2.098.44-2.79 1.218l-17.559 17.82c-.764.779-1.175 1.764-1.164 2.814.01 1.05.44 2.098 1.217 2.792l10.113 9.923 18.492-27.95-5.496-5.452z" fill="#7BC3DD"/>
        <path fill="#B6DEEC" d="M530.333 61.526l-9.193-9.02-1.245 1.833 8.841 8.745z"/>
        <path fill="#BDE1EE" d="M517.463 48.967l-1.526 1.556 3.959 3.816 1.244-1.834z"/>
        <path fill="#BDE1EE" d="M503.48 61.786l12.563-12.8 1.548 1.52-12.56 12.801z"/>
        <path d="M528.69 58.109a3.363 3.363 0 00-3.332 3.395c.007.7.224 1.329.579 1.886l-6.663 6.788c-.212-.137-.352-.206-.563-.344l-.162-17.094c.976-.57 1.666-1.697 1.654-2.959a3.363 3.363 0 00-6.726.064c.013 1.261.724 2.306 1.71 2.927l.161 17.163c-.21.072-.347.214-.556.286l-6.79-6.662c.344-.564.548-1.197.543-1.827a3.362 3.362 0 10-6.726.064c.017 1.821 1.573 3.348 3.394 3.331a2.916 2.916 0 001.12-.221l7.142 7.009c-.206.492-.34.984-.336 1.544a3.916 3.916 0 003.96 3.886 3.917 3.917 0 003.887-3.96c-.005-.56-.15-1.049-.294-1.538l7.009-7.143c.35.137.702.204 1.052.2a3.363 3.363 0 003.332-3.394c-.019-1.891-1.575-3.418-3.396-3.401" fill="#FFF"/>
        <path d="M519.305 73.401a2.361 2.361 0 01-2.36 2.404 2.363 2.363 0 01-2.404-2.359 2.363 2.363 0 012.36-2.404c1.332.057 2.392 1.098 2.404 2.359M518.662 49.796a1.885 1.885 0 01-1.874 1.91 1.885 1.885 0 01-1.909-1.874 1.884 1.884 0 011.873-1.91 1.886 1.886 0 011.91 1.874M506.934 61.747a1.884 1.884 0 01-1.873 1.91 1.886 1.886 0 01-1.91-1.874 1.884 1.884 0 011.874-1.91 1.884 1.884 0 011.909 1.874M530.543 61.525a1.885 1.885 0 01-1.874 1.91 1.885 1.885 0 01-1.909-1.874 1.884 1.884 0 011.874-1.91 1.884 1.884 0 011.909 1.874" fill="#B7D332"/>
        <path fill="#959595" d="M523.059 141.752l-5.236-9.067-5.236 9.067h4.486v43.227h1.5v-43.227z"/>
        <path fill="#9D71AD" d="M507.456 211.233l-8.252 3.215V201.16l8.252 2.893z"/>
        <path d="M495.453 212.305v-9.062l1.715-.517v10.115l-1.715-.536zm-1.822-.536v-7.995l1.286-.365v8.789l-1.286-.43zm-1.5-.43v-7.115l.973-.295-.008 7.733-.965-.322zm-.322-7.93v8.682l6.11 2.358v-13.183l-6.11 2.143z" fill="#804997"/>
        <path fill="#9D71AD" d="M526.64 211.233l-8.252 3.215V201.16l8.253 2.893z"/>
        <path d="M514.637 212.305v-9.083l1.715-.507v10.126l-1.715-.536zm-1.821-.536v-8.003l1.286-.384v8.816l-1.286-.43zm-1.501-.43v-7.143l.965-.275v7.74l-.965-.321zm-.322-7.93v8.682l6.109 2.358v-13.183l-6.11 2.143z" fill="#804997"/>
        <path fill="#A07BB1" d="M507.456 237.597l-8.252 3.215v-13.289l8.252 2.894z"/>
        <path d="M495.453 238.67v-9.125l1.715-.522v10.182l-1.715-.536zm-1.822-.537v-8.038l1.286-.392v8.86l-1.286-.43zm-1.5-.428v-7.18l.965-.28v7.781l-.965-.32zm-.322-7.93v8.68l6.11 2.358V227.63l-6.11 2.144z" fill="#804997"/>
        <path fill="#A07BB1" d="M526.64 237.597l-8.252 3.215v-13.289l8.253 2.894z"/>
        <path d="M514.637 238.67v-9.11l1.715-.502v10.147l-1.715-.536zm-1.821-.537v-8.038l1.286-.36v8.827l-1.286-.429zm-1.501-.428v-7.16l.965-.28v7.761l-.965-.32zm-.322-7.93v8.68l6.109 2.358V227.63l-6.11 2.144z" fill="#804997"/>
        <path fill="#A07BB1" d="M517.638 224.415l-8.145 3.108v-13.182l8.145 2.893z"/>
        <path d="M505.635 225.487v-9.233l1.715-.505v10.274l-1.715-.536zm-1.822-.536v-8.167l1.286-.378v8.974l-1.286-.429zm-1.5-.536v-7.18l.964-.28v7.782l-.964-.322zm-.323-7.93v8.681l6.11 2.357v-13.182l-6.11 2.144z" fill="#804997"/>
        <path fill="#A07BB1" d="M498.562 224.415l-8.147 3.108v-13.182l8.147 2.893z"/>
        <path d="M486.558 225.487v-9.05l1.715-.499v10.085l-1.715-.536zm-1.821-.536v-7.983l1.285-.377v8.789l-1.285-.429zm-1.501-.536v-6.997l.965-.274v7.593l-.965-.322zm-.322-7.93v8.681l6.109 2.357v-13.182l-6.11 2.144z" fill="#804997"/>
        <path fill="#A07BB1" d="M536.5 224.415l-8.145 3.108v-13.182l8.145 2.893z"/>
        <path fill="#9D71AD" d="M507.456 211.233l-8.252 3.215V201.16l8.252 2.893zM526.64 211.233l-8.252 3.215V201.16l8.253 2.893zM507.456 237.597l-8.252 3.215v-13.289l8.252 2.894zM526.64 237.597l-8.252 3.215v-13.289l8.253 2.894zM517.638 224.415l-8.145 3.108v-13.182l8.145 2.893zM498.562 224.415l-8.147 3.108v-13.182l8.147 2.893zM536.5 224.415l-8.145 3.108v-13.182l8.145 2.893z"/>
        <path d="M524.497 225.487v-9.11l1.715-.536v10.182l-1.715-.536zm-1.822-.536v-8.038l1.286-.397v8.864l-1.286-.429zm-1.5-.536v-7.122l.964-.256v7.7l-.964-.322zm-.323-7.93v8.681l6.11 2.357v-13.182l-6.11 2.144z" fill="#804997"/>
        <path d="M625.499 385.695a1.266 1.266 0 00-1.773 0 1.226 1.226 0 000 1.853l11.681 11.445a1.365 1.365 0 010 1.853l-11.925 11.844a1.364 1.364 0 000 1.853 1.347 1.347 0 001.773 0l13.861-13.697a1.457 1.457 0 000-1.855l-13.617-13.296zM592.145 400.846a1.374 1.374 0 010-1.854l11.445-11.444a1.226 1.226 0 000-1.853 1.265 1.265 0 00-1.773 0L588.2 398.992a1.455 1.455 0 000 1.853l13.858 13.697a1.347 1.347 0 001.773 0 1.366 1.366 0 000-1.853l-11.685-11.843z" fill="#3998C5"/>
        <path d="M606.336 400.916a3.501 3.501 0 11-7.003 0 3.501 3.501 0 017.003 0M627.106 400.916a3.5 3.5 0 11-7.001 0 3.5 3.5 0 017 0M616.661 400.916a3.5 3.5 0 11-7 0 3.5 3.5 0 017 0" fill="#A4CD00"/>
        <path d="M729.414 204.25v30.899c0 3.285 7.186 5.85 16.015 5.85v-36.75h-16.015z" fill="#0072C5"/>
        <path d="M745.223 240.896h.309c8.93 0 16.013-2.566 16.013-5.85v-30.899h-16.322v36.75z" fill="#3A93CE"/>
        <path d="M761.441 204.25c0 3.183-7.186 5.85-16.014 5.85-8.827 0-16.116-2.667-16.116-5.85 0-3.182 7.186-5.85 16.014-5.85 8.93 0 16.116 2.668 16.116 5.85" fill="#FFF"/>
        <path d="M758.26 203.942c0 2.157-5.75 3.9-12.73 3.9s-12.83-1.743-12.83-3.9c0-2.155 5.748-3.9 12.729-3.9 6.98 0 12.83 1.745 12.83 3.9" fill="#7FB900"/>
        <path d="M755.488 206.2c1.745-.719 2.67-1.437 2.67-2.36 0-2.157-5.75-3.902-12.73-3.902s-12.729 1.745-12.729 3.901c0 .821 1.027 1.745 2.67 2.361 2.36-.924 5.953-1.437 10.06-1.437 4.105 0 7.8.616 10.06 1.437" fill="#B7D332"/>
        <path d="M757.675 224.904v-5.537h-3.288v3.45c0 .221.047.402-.155.402h-2.668c-.425 0-.377-.504-.377-.504v-3.348h-3.996l.708.471v3.554s-.176 2.395 1.966 2.395h4.185c.323 0 .748-.243.768-.364.02-.122.04.97-1.051 1.044h-5.444v2.561h6.427c.648 0 1.55-.108 2.184-1.01.56-.8.734-1.443.734-1.928 0-.344.007-1.186.007-1.186M735.479 221.024v5.134h-2.85v-8.217s.25-1.781 1.894-1.781 1.995.323 2.764 1.792a346.48 346.48 0 002.262 4.204s2.022-4.554 2.305-5.242c.282-.687 1.146-.876 2.088-.808.93.067 1.885.565 1.927 1.873v8.179h-2.85v-5.134s-1.745 3.989-2.067 4.46c-.324.472-.864.687-1.47.687s-1.428-.067-1.818-.781c-.391-.714-2.185-4.366-2.185-4.366" fill="#FFF"/>
        <path fill="#9F9F9F" d="M406.058 1.031h1V.047h-1zM406.058 4.691h1v-.984h-1zM406.058 9.609h1v-.984h-1zM406.058 14.527h1v-.983h-1zM406.058 19.445h1v-.983h-1zM406.058 24.363h1v-.983h-1zM406.058 29.281h1v-.983h-1zM406.058 34.199h1v-.983h-1zM406.058 39.117h1v-.983h-1zM406.058 44.035h1v-.983h-1zM406.058 48.953h1v-.983h-1zM406.058 53.871h1v-.983h-1zM406.058 58.79h1v-.984h-1zM406.058 63.708h1v-.984h-1zM406.058 68.626h1v-.984h-1zM406.058 73.544h1v-.984h-1zM406.058 78.462h1v-.984h-1zM406.058 83.38h1v-.984h-1zM406.058 88.298h1v-.984h-1zM406.058 93.216h1v-.984h-1zM406.058 98.134h1v-.984h-1zM406.058 103.052h1v-.984h-1zM406.058 107.969h1v-.984h-1zM406.058 112.887h1v-.984h-1zM406.058 117.805h1v-.984h-1zM406.058 122.723h1v-.983h-1zM406.058 127.641h1v-.983h-1zM406.058 132.559h1v-.983h-1zM406.058 137.477h1v-.983h-1zM406.058 142.395h1v-.983h-1zM406.058 147.313h1v-.983h-1zM406.058 152.231h1v-.983h-1zM406.058 157.149h1v-.983h-1zM406.058 162.067h1v-.983h-1zM406.058 166.986h1v-.984h-1zM406.058 171.904h1v-.984h-1zM406.058 176.822h1v-.984h-1zM406.058 181.74h1v-.984h-1zM406.058 186.658h1v-.984h-1zM406.058 191.576h1v-.984h-1zM406.058 196.494h1v-.984h-1zM406.058 201.412h1v-.984h-1zM406.058 206.33h1v-.984h-1zM406.058 211.248h1v-.984h-1zM406.058 216.166h1v-.984h-1zM406.058 221.084h1v-.984h-1zM406.058 230.92h1v-.984h-1zM406.058 235.838h1v-.984h-1zM406.058 240.756h1v-.984h-1zM406.058 245.674h1v-.983h-1zM406.058 250.592h1v-.983h-1zM406.058 255.51h1v-.983h-1zM406.058 260.427h1v-.983h-1zM406.058 265.345h1v-.983h-1zM406.058 270.264h1v-.984h-1zM406.058 275.182h1v-.984h-1zM406.058 280.1h1v-.984h-1zM406.058 285.018h1v-.984h-1zM406.058 289.936h1v-.984h-1zM406.058 294.854h1v-.984h-1zM406.058 299.772h1v-.984h-1zM406.058 304.69h1v-.984h-1zM406.058 309.608h1v-.984h-1zM406.058 314.526h1v-.984h-1zM406.058 319.444h1v-.984h-1zM406.058 324.362h1v-.984h-1zM406.058 329.28h1v-.984h-1zM406.058 334.198h1v-.984h-1zM406.058 339.116h1v-.984h-1zM406.058 344.034h1v-.984h-1zM406.058 348.952h1v-.984h-1zM406.058 353.87h1v-.984h-1zM406.058 363.706h1v-.984h-1zM406.058 368.624h1v-.984h-1zM406.058 373.542h1v-.984h-1zM406.058 378.46h1v-.984h-1zM406.058 383.378h1v-.984h-1zM406.058 388.296h1v-.984h-1zM406.058 393.214h1v-.984h-1zM406.058 398.132h1v-.984h-1zM406.058 403.05h1v-.984h-1zM823.376 1.023h1V.039h-1zM823.376 5.941h1v-.984h-1zM823.376 10.859h1v-.984h-1zM823.376 15.777h1v-.983h-1zM823.376 20.695h1v-.983h-1zM823.376 25.613h1v-.983h-1zM823.376 30.531h1v-.983h-1zM823.376 35.449h1v-.983h-1zM823.376 40.367h1v-.983h-1zM823.376 45.285h1v-.983h-1zM823.376 50.203h1v-.983h-1zM823.376 55.121h1v-.983h-1zM823.376 60.04h1v-.984h-1zM823.376 64.958h1v-.984h-1zM823.376 69.876h1v-.984h-1zM823.376 74.794h1v-.984h-1zM823.376 79.712h1v-.984h-1zM823.376 84.63h1v-.984h-1zM823.376 89.548h1v-.984h-1zM823.376 94.466h1v-.984h-1zM823.376 99.384h1V98.4h-1zM823.376 104.302h1v-.984h-1zM823.376 109.219h1v-.984h-1zM823.376 114.137h1v-.984h-1zM823.376 119.055h1v-.984h-1zM823.376 123.973h1v-.983h-1zM823.376 128.891h1v-.983h-1zM823.376 133.809h1v-.983h-1zM823.376 138.727h1v-.983h-1zM823.376 143.645h1v-.983h-1zM823.376 148.563h1v-.983h-1zM823.376 153.481h1v-.983h-1zM823.376 158.399h1v-.983h-1zM823.376 163.317h1v-.983h-1zM823.376 168.236h1v-.984h-1zM823.376 173.154h1v-.984h-1zM823.376 178.072h1v-.984h-1zM823.376 182.99h1v-.984h-1zM823.376 187.908h1v-.984h-1zM823.376 192.826h1v-.984h-1zM823.376 197.744h1v-.984h-1zM823.376 202.662h1v-.984h-1zM823.376 207.58h1v-.984h-1zM823.376 212.498h1v-.984h-1zM823.376 217.416h1v-.984h-1zM823.376 222.334h1v-.984h-1zM823.376 227.252h1v-.984h-1zM823.376 232.17h1v-.984h-1zM823.376 237.088h1v-.984h-1zM823.376 242.006h1v-.984h-1zM823.376 246.924h1v-.983h-1zM823.376 251.842h1v-.983h-1zM823.376 256.76h1v-.983h-1zM823.376 261.677h1v-.983h-1zM823.376 266.595h1v-.983h-1zM823.376 271.514h1v-.984h-1zM823.376 276.432h1v-.984h-1zM823.376 281.35h1v-.984h-1zM823.376 286.268h1v-.984h-1zM823.376 291.186h1v-.984h-1zM823.376 296.104h1v-.984h-1zM823.376 301.022h1v-.984h-1zM823.376 305.94h1v-.984h-1zM823.376 310.858h1v-.984h-1zM823.376 315.776h1v-.984h-1zM823.376 320.694h1v-.984h-1zM823.376 325.612h1v-.984h-1zM823.376 330.53h1v-.984h-1zM823.376 335.448h1v-.984h-1zM823.376 340.366h1v-.984h-1zM823.376 345.284h1v-.984h-1zM823.376 350.202h1v-.984h-1zM823.376 355.12h1v-.984h-1zM823.376 364.956h1v-.984h-1zM823.376 369.874h1v-.984h-1zM823.376 374.792h1v-.984h-1zM823.376 379.71h1v-.984h-1zM823.376 384.628h1v-.984h-1zM823.376 389.546h1v-.984h-1zM823.376 394.464h1v-.984h-1zM823.376 399.382h1v-.984h-1zM410.265 1h.983V0h-.983zM415.183 1h.983V0h-.983zM420.101 1h.983V0h-.983zM425.019 1h.983V0h-.983zM429.937 1h.983V0h-.983zM434.854 1h.983V0h-.983zM439.772 1h.984V0h-.984zM444.69 1h.984V0h-.984zM449.608 1h.984V0h-.984zM454.526 1h.984V0h-.984zM459.444 1h.984V0h-.984zM464.362 1h.984V0h-.984zM469.28 1h.984V0h-.984zM474.198 1h.984V0h-.984zM479.116 1h.984V0h-.984zM484.034 1h.984V0h-.984zM488.952 1h.984V0h-.984zM493.87 1h.984V0h-.984zM498.788 1h.984V0h-.984zM503.707 1h.983V0h-.983zM508.625 1h.983V0h-.983zM513.543 1h.983V0h-.983zM518.461 1h.983V0h-.983zM523.379 1h.983V0h-.983zM528.297 1h.983V0h-.983zM533.215 1h.983V0h-.983zM538.133 1h.983V0h-.983zM543.051 1h.983V0h-.983zM547.969 1h.984V0h-.984zM552.887 1h.984V0h-.984zM557.805 1h.984V0h-.984zM562.723 1h.984V0h-.984zM567.641 1h.984V0h-.984zM572.559 1h.984V0h-.984zM577.477 1h.984V0h-.984zM582.395 1h.984V0h-.984zM587.312 1h.984V0h-.984zM592.23 1h.984V0h-.984zM597.148 1h.984V0h-.984zM602.066 1h.984V0h-.984zM606.984 1h.984V0h-.984zM611.902 1h.984V0h-.984zM616.82 1h.984V0h-.984zM621.738 1h.984V0h-.984zM626.657 1h.983V0h-.983zM631.575 1h.983V0h-.983zM636.493 1h.983V0h-.983zM641.411 1h.983V0h-.983zM646.329 1h.983V0h-.983zM651.247 1h.984V0h-.984zM656.165 1h.984V0h-.984zM661.083 1h.984V0h-.984zM666.001 1h.984V0h-.984zM670.919 1h.984V0h-.984zM675.837 1h.984V0h-.984zM680.755 1h.984V0h-.984zM685.673 1h.984V0h-.984zM690.591 1h.984V0h-.984zM695.509 1h.984V0h-.984zM700.427 1h.984V0h-.984zM705.345 1h.984V0h-.984zM710.263 1h.984V0h-.984zM715.181 1h.984V0h-.984zM720.099 1h.984V0h-.984zM725.017 1h.984V0h-.984zM729.935 1h.984V0h-.984zM734.853 1h.984V0h-.984zM739.853 1h.984V0h-.984zM744.688 1h.984V0h-.984zM749.607 1h.983V0h-.983zM754.525 1h.983V0h-.983zM759.443 1h.983V0h-.983zM764.361 1h.983V0h-.983zM769.279 1h.983V0h-.983zM774.197 1h.983V0h-.983zM779.115 1h.983V0h-.983zM784.033 1h.983V0h-.983zM788.951 1h.983V0h-.983zM793.869 1h.983V0h-.983zM798.787 1h.983V0h-.983zM803.705 1h.984V0h-.984zM808.623 1h.984V0h-.984zM813.541 1h.984V0h-.984zM818.459 1h.984V0h-.984zM410.265 403h.983v-1h-.983zM415.183 403h.983v-1h-.983zM420.101 403h.983v-1h-.983zM425.019 403h.983v-1h-.983zM429.937 403h.983v-1h-.983zM434.854 403h.983v-1h-.983zM439.772 403h.984v-1h-.984zM444.69 403h.984v-1h-.984zM449.608 403h.984v-1h-.984zM454.526 403h.984v-1h-.984zM459.444 403h.984v-1h-.984zM464.362 403h.984v-1h-.984zM469.28 403h.984v-1h-.984zM474.198 403h.984v-1h-.984zM479.116 403h.984v-1h-.984zM484.034 403h.984v-1h-.984zM488.952 403h.984v-1h-.984zM493.87 403h.984v-1h-.984zM498.788 403h.984v-1h-.984zM503.707 403h.983v-1h-.983zM508.625 403h.983v-1h-.983zM513.543 403h.983v-1h-.983zM518.461 403h.983v-1h-.983zM523.379 403h.983v-1h-.983zM528.297 403h.983v-1h-.983zM533.215 403h.983v-1h-.983zM538.133 403h.983v-1h-.983zM543.051 403h.983v-1h-.983zM547.969 403h.984v-1h-.984zM552.887 403h.984v-1h-.984zM557.805 403h.984v-1h-.984zM562.723 403h.984v-1h-.984zM567.641 403h.984v-1h-.984zM572.559 403h.984v-1h-.984zM577.477 403h.984v-1h-.984zM646.329 403h.983v-1h-.983zM651.247 403h.984v-1h-.984zM656.165 403h.984v-1h-.984zM661.083 403h.984v-1h-.984zM666.001 403h.984v-1h-.984zM670.919 403h.984v-1h-.984zM675.837 403h.984v-1h-.984zM680.755 403h.984v-1h-.984zM685.673 403h.984v-1h-.984zM690.591 403h.984v-1h-.984zM695.509 403h.984v-1h-.984zM700.427 403h.984v-1h-.984zM705.345 403h.984v-1h-.984zM710.263 403h.984v-1h-.984zM715.181 403h.984v-1h-.984zM720.099 403h.984v-1h-.984zM725.017 403h.984v-1h-.984zM729.935 403h.984v-1h-.984zM734.853 403h.984v-1h-.984zM744.688 403h.984v-1h-.984zM739.688 403h.984v-1h-.984zM749.607 403h.983v-1h-.983zM754.525 403h.983v-1h-.983zM759.443 403h.983v-1h-.983zM764.361 403h.983v-1h-.983zM769.279 403h.983v-1h-.983zM774.197 403h.983v-1h-.983zM779.115 403h.983v-1h-.983zM784.033 403h.983v-1h-.983zM788.951 403h.983v-1h-.983zM793.869 403h.983v-1h-.983zM798.787 403h.983v-1h-.983zM803.705 403h.984v-1h-.984zM808.623 403h.984v-1h-.984zM813.541 403h.984v-1h-.984zM818.459 403h.984v-1h-.984zM823.377 403h.984v-1h-.984z"/>
        
            <circle cx="149.5" cy="225.5" fill="#A5CE00" r="14.5"/>
            <text fill="#303030" font-family="SegoeUI, Segoe UI" font-size="15" transform="translate(145.491 231)">
                1
            </text>
        
        
            <circle cx="349.5" cy="224.5" fill="#A5CE00" r="14.5"/>
            <text fill="#303030" font-family="SegoeUI, Segoe UI" font-size="15" transform="translate(345.491 229)">
                2
            </text>
        
        
            <circle cx="517.5" cy="163.5" fill="#A5CE00" r="14.5"/>
            <text fill="#303030" font-family="SegoeUI, Segoe UI" font-size="15" transform="translate(514.491 168)">
                3
            </text>
        
        
            <circle cx="646.5" cy="225.5" fill="#A5CE00" r="14.5"/>
            <text fill="#303030" font-family="SegoeUI, Segoe UI" font-size="15" transform="translate(642.491 230)">
                4
            </text>
        
        
            <circle cx="536.5" cy="401.5" fill="#A5CE00" r="14.5"/>
            <text fill="#303030" font-family="SegoeUI, Segoe UI" font-size="15" transform="translate(533.491 406)">
                5
            </text>
        
    </g>
</svg>
