<?xml version="1.0" encoding="UTF-8" standalone="no"?>
<!DOCTYPE svg PUBLIC "-//W3C//DTD SVG 1.1//EN" "http://www.w3.org/Graphics/SVG/1.1/DTD/svg11.dtd">
<!-- Generated by Microsoft Visio, SVG Export no-token-in-the-browser.svg Page-1 -->
<svg xmlns="http://www.w3.org/2000/svg" xmlns:xlink="http://www.w3.org/1999/xlink" xmlns:ev="http://www.w3.org/2001/xml-events"
		xmlns:v="http://schemas.microsoft.com/visio/2003/SVGExtensions/" width="8.26772in" height="5.82677in"
		viewBox="0 0 595.276 419.528" xml:space="preserve" color-interpolation-filters="sRGB" class="st33">
	<title>No Token in the Browser Pattern</title>
	<v:documentProperties v:langID="1033" v:viewMarkup="false">
		<v:userDefs>
			<v:ud v:nameU="msvNoAutoConnect" v:val="VT0(1):26"/>
			<v:ud v:nameU="msvWarnOnPersonalInfo" v:val="VT0(0):5"/>
		</v:userDefs>
	</v:documentProperties>

	<style type="text/css">
	<![CDATA[
		.st1 {fill:#50e6ff;stroke:none;stroke-linecap:butt;stroke-width:0.75}
		.st2 {fill:#ffffff;stroke:none;stroke-linecap:butt;stroke-width:0.75}
		.st3 {fill:url(#grad0-11);stroke:none;stroke-linecap:butt;stroke-width:0.75}
		.st4 {fill:#53b1e0;stroke:none;stroke-linecap:butt;stroke-width:0.75}
		.st5 {fill:#9cebff;stroke:none;stroke-linecap:butt;stroke-width:0.75}
		.st6 {fill:url(#grad0-19);stroke:none;stroke-linecap:butt;stroke-width:0.75}
		.st7 {fill:#000000;font-family:Calibri;font-size:0.75em}
		.st8 {font-size:1em}
		.st9 {fill:url(#grad0-27);stroke:none;stroke-linecap:butt;stroke-width:0.75}
		.st10 {fill:#ffffff;fill-opacity:0.8;stroke:none;stroke-linecap:butt;stroke-width:0.75}
		.st11 {fill:url(#grad0-33);stroke:none;stroke-linecap:butt;stroke-width:0.75}
		.st12 {fill:url(#grad0-40);stroke:none;stroke-linecap:butt;stroke-width:0.75}
		.st13 {fill:url(#grad0-44);stroke:none;stroke-linecap:butt;stroke-width:0.75}
		.st14 {fill:url(#grad0-52);stroke:none;stroke-linecap:butt;stroke-width:0.75}
		.st15 {fill:#0078d4;stroke:none;stroke-linecap:butt;stroke-width:0.75}
		.st16 {fill:url(#grad0-58);stroke:none;stroke-linecap:butt;stroke-width:0.75}
		.st17 {fill:#f2f2f2;stroke:none;stroke-linecap:butt;stroke-width:0.75}
		.st18 {fill:url(#grad0-64);stroke:none;stroke-linecap:butt;stroke-width:0.75}
		.st19 {marker-end:url(#mrkr5-76);stroke:#000000;stroke-linecap:round;stroke-linejoin:round;stroke-width:1.5}
		.st20 {fill:#000000;fill-opacity:1;stroke:#000000;stroke-opacity:1;stroke-width:0.37313432835821}
		.st21 {marker-end:url(#mrkr5-90);marker-start:url(#mrkr5-88);stroke:#000000;stroke-linecap:round;stroke-linejoin:round;stroke-width:1}
		.st22 {fill:#000000;fill-opacity:1;stroke:#000000;stroke-opacity:1;stroke-width:0.28409090909091}
		.st23 {marker-end:url(#mrkr5-90);stroke:#000000;stroke-linecap:round;stroke-linejoin:round;stroke-width:1}
		.st24 {fill:#107c10;stroke:#c7c8c8;stroke-width:0.25}
		.st25 {fill:#feffff;font-family:Calibri;font-size:1.00001em}
		.st26 {fill:url(#grad7-119);stroke:none;stroke-linecap:butt;stroke-width:0.75}
		.st27 {fill:#ffffff;fill-opacity:0.6;stroke:none;stroke-linecap:butt;stroke-width:0.75}
		.st28 {fill:#f2f2f2;fill-opacity:0.55;stroke:none;stroke-linecap:butt;stroke-width:0.75}
		.st29 {fill:url(#grad0-127);stroke:none;stroke-linecap:butt;stroke-width:0.75}
		.st30 {fill:url(#grad0-133);stroke:none;stroke-linecap:butt;stroke-width:0.75}
		.st31 {fill:#f2f2f2;fill-opacity:0.7;stroke:none;stroke-linecap:butt;stroke-width:0.75}
		.st32 {marker-end:url(#mrkr5-154);stroke:#000000;stroke-linecap:round;stroke-linejoin:round;stroke-width:1}
		.st33 {fill:none;fill-rule:evenodd;font-size:12px;overflow:visible;stroke-linecap:square;stroke-miterlimit:3}
	]]>
	</style>

	<defs id="Patterns_And_Gradients">
		<linearGradient id="grad0-11" x1="0" y1="0" x2="1" y2="0" gradientTransform="rotate(-133.54829310906 0.5 0.5)">
			<stop offset="0" stop-color="#1988d9" stop-opacity="1"/>
			<stop offset="0.9" stop-color="#54aef0" stop-opacity="1"/>
		</linearGradient>
		<linearGradient id="grad0-19" x1="0" y1="0" x2="1" y2="0" gradientTransform="rotate(65.834982258294 0.5 0.5)">
			<stop offset="0.1" stop-color="#54aef0" stop-opacity="1"/>
			<stop offset="0.29" stop-color="#4fabee" stop-opacity="1"/>
			<stop offset="0.51" stop-color="#41a2e9" stop-opacity="1"/>
			<stop offset="0.74" stop-color="#2a93e0" stop-opacity="1"/>
			<stop offset="0.88" stop-color="#1988d9" stop-opacity="1"/>
		</linearGradient>
		<linearGradient id="grad0-27" x1="0" y1="0" x2="1" y2="0" gradientTransform="rotate(90 0.5 0.5)">
			<stop offset="0.22" stop-color="#32d4f5" stop-opacity="1"/>
			<stop offset="1" stop-color="#198ab3" stop-opacity="1"/>
		</linearGradient>
		<linearGradient id="grad0-33" x1="0" y1="0" x2="1" y2="0" gradientTransform="rotate(85.405746668733 0.5 0.5)">
			<stop offset="0.22" stop-color="#32d4f5" stop-opacity="1"/>
			<stop offset="1" stop-color="#198ab3" stop-opacity="1"/>
		</linearGradient>
		<linearGradient id="grad0-40" x1="0" y1="0" x2="1" y2="0" gradientTransform="rotate(-90 0.5 0.5)">
			<stop offset="0" stop-color="#198ab3" stop-opacity="1"/>
			<stop offset="0.09" stop-color="#1f9dc4" stop-opacity="1"/>
			<stop offset="0.24" stop-color="#28b5d9" stop-opacity="1"/>
			<stop offset="0.4" stop-color="#2dc6e9" stop-opacity="1"/>
			<stop offset="0.57" stop-color="#31d1f2" stop-opacity="1"/>
			<stop offset="0.78" stop-color="#32d4f5" stop-opacity="1"/>
		</linearGradient>
		<linearGradient id="grad0-44" x1="0" y1="0" x2="1" y2="0" gradientTransform="rotate(90 0.5 0.5)">
			<stop offset="0" stop-color="#c69aeb" stop-opacity="1"/>
			<stop offset="1" stop-color="#6f4bb2" stop-opacity="1"/>
		</linearGradient>
		<linearGradient id="grad0-52" x1="0" y1="0" x2="1" y2="0" gradientTransform="rotate(-90 0.5 0.5)">
			<stop offset="0" stop-color="#0078d4" stop-opacity="1"/>
			<stop offset="0.5" stop-color="#4093e6" stop-opacity="1"/>
			<stop offset="0.775" stop-color="#5ea0ef" stop-opacity="1"/>
		</linearGradient>
		<linearGradient id="grad0-58" x1="0" y1="0" x2="1" y2="0" gradientTransform="rotate(0 0.5 0.5)">
			<stop offset="0" stop-color="#5ea0ef" stop-opacity="1"/>
			<stop offset="0.37" stop-color="#9fc6f5" stop-opacity="1"/>
			<stop offset="0.8" stop-color="#e4effc" stop-opacity="1"/>
			<stop offset="1" stop-color="#ffffff" stop-opacity="1"/>
		</linearGradient>
		<linearGradient id="grad0-64" x1="0" y1="0" x2="1" y2="0" gradientTransform="rotate(0 0.5 0.5)">
			<stop offset="0" stop-color="#ffffff" stop-opacity="1"/>
			<stop offset="0.2" stop-color="#e4effc" stop-opacity="1"/>
			<stop offset="0.63" stop-color="#9fc6f5" stop-opacity="1"/>
			<stop offset="1" stop-color="#5ea0ef" stop-opacity="1"/>
		</linearGradient>
		<radialGradient id="grad7-119" cx="0" cy="0" r="1.4">
			<stop offset="0.18" stop-color="#5ea0ef" stop-opacity="1"/>
			<stop offset="1" stop-color="#0078d4" stop-opacity="1"/>
		</radialGradient>
		<linearGradient id="grad0-127" x1="0" y1="0" x2="1" y2="0" gradientTransform="rotate(-90.435226578092 0.5 0.5)">
			<stop offset="0" stop-color="#cccccc" stop-opacity="1"/>
			<stop offset="1" stop-color="#fcfcfc" stop-opacity="1"/>
		</linearGradient>
		<linearGradient id="grad0-133" x1="0" y1="0" x2="1" y2="0" gradientTransform="rotate(-90 0.5 0.5)">
			<stop offset="0" stop-color="#cccccc" stop-opacity="1"/>
			<stop offset="1" stop-color="#fcfcfc" stop-opacity="1"/>
		</linearGradient>
	</defs>
	<defs id="Markers">
		<g id="lend5">
			<path d="M 2 1 L 0 0 L 1.98117 -0.993387 C 1.67173 -0.364515 1.67301 0.372641 1.98465 1.00043 " style="stroke:none"/>
		</g>
		<marker id="mrkr5-76" class="st20" v:arrowType="5" v:arrowSize="2" v:setback="4.69" refX="-4.69" orient="auto"
				markerUnits="strokeWidth" overflow="visible">
			<use xlink:href="#lend5" transform="scale(-2.68,-2.68) "/>
		</marker>
		<marker id="mrkr5-88" class="st22" v:arrowType="5" v:arrowSize="2" v:setback="5.8" refX="5.8" orient="auto"
				markerUnits="strokeWidth" overflow="visible">
			<use xlink:href="#lend5" transform="scale(3.52) "/>
		</marker>
		<marker id="mrkr5-90" class="st22" v:arrowType="5" v:arrowSize="2" v:setback="5.8" refX="-5.8" orient="auto"
				markerUnits="strokeWidth" overflow="visible">
			<use xlink:href="#lend5" transform="scale(-3.52,-3.52) "/>
		</marker>
		<marker id="mrkr5-154" class="st22" v:arrowType="5" v:arrowSize="2" v:setback="6.16" refX="-6.16" orient="auto"
				markerUnits="strokeWidth" overflow="visible">
			<use xlink:href="#lend5" transform="scale(-3.52,-3.52) "/>
		</marker>
	</defs>
	<g v:mID="0" v:index="1" v:groupContext="foregroundPage">
		<v:userDefs>
			<v:ud v:nameU="msvThemeOrder" v:val="VT0(0):26"/>
		</v:userDefs>
		<title>Page-1</title>
		<v:pageProperties v:drawingScale="1" v:pageScale="1" v:drawingUnits="19" v:shadowOffsetX="9" v:shadowOffsetY="-9"/>
		<v:layer v:name="Connector" v:index="0"/>
		<g id="group13-1" transform="translate(141.082,-63.8372)" v:mID="13" v:groupContext="group">
			<title>Azure Active Directory.13</title>
			<desc>Azure Active Directory</desc>
			<g id="shape14-2" v:mID="14" v:groupContext="shape">
				<title>Sheet.14</title>
				<v:userDefs>
					<v:ud v:nameU="msvDisableCustomConnectionPoints" v:prompt="" v:val="VT0(1):5"/>
				</v:userDefs>
				<path d="M1.97 404.76 L17.42 415.6 L33.15 404.72 L35.12 407.21 L17.42 419.53 L0 407.21 L1.97 404.76 Z" class="st1"/>
			</g>
			<g id="shape15-4" v:mID="15" v:groupContext="shape" transform="translate(3.14143,-6.18198)">
				<title>Sheet.15</title>
				<v:userDefs>
					<v:ud v:nameU="msvDisableCustomConnectionPoints" v:prompt="" v:val="VT0(1):5"/>
				</v:userDefs>
				<path d="M0 409.55 L14.28 391.15 L28.86 409.57 L14.28 419.53 L0 409.55 Z" class="st2"/>
			</g>
			<g id="shape16-6" v:mID="16" v:groupContext="shape" transform="translate(3.14143,-6.18198)">
				<title>Sheet.16</title>
				<v:userDefs>
					<v:ud v:nameU="msvDisableCustomConnectionPoints" v:prompt="" v:val="VT0(1):5"/>
				</v:userDefs>
				<path d="M14.28 391.15 L14.28 419.53 L0 409.55 L14.28 391.15 Z" class="st1"/>
			</g>
			<g id="shape17-8" v:mID="17" v:groupContext="shape" transform="translate(17.4242,-6.18198)">
				<title>Sheet.17</title>
				<v:userDefs>
					<v:ud v:nameU="msvDisableCustomConnectionPoints" v:prompt="" v:val="VT0(1):5"/>
				</v:userDefs>
				<path d="M0 391.15 L0 419.53 L14.58 409.57 L0 391.15 Z" class="st3"/>
			</g>
			<g id="shape18-12" v:mID="18" v:groupContext="shape" transform="translate(17.4242,-6.18198)">
				<title>Sheet.18</title>
				<v:userDefs>
					<v:ud v:nameU="msvDisableCustomConnectionPoints" v:prompt="" v:val="VT0(1):5"/>
				</v:userDefs>
				<path d="M0 405.81 L14.58 409.57 L0 419.53 L0 405.81 Z" class="st4"/>
			</g>
			<g id="shape19-14" v:mID="19" v:groupContext="shape" transform="translate(3.14143,-6.18198)">
				<title>Sheet.19</title>
				<v:userDefs>
					<v:ud v:nameU="msvDisableCustomConnectionPoints" v:prompt="" v:val="VT0(1):5"/>
				</v:userDefs>
				<path d="M14.28 419.53 L0 409.55 L14.28 405.81 L14.28 419.53 Z" class="st5"/>
			</g>
			<g id="shape20-16" v:mID="20" v:groupContext="shape" transform="translate(17.4242,2.27374E-13)">
				<title>Sheet.20</title>
				<v:userDefs>
					<v:ud v:nameU="msvDisableCustomConnectionPoints" v:prompt="" v:val="VT0(1):5"/>
				</v:userDefs>
				<path d="M0 419.53 L17.7 407.21 L15.73 404.72 L0 415.6 L0 419.53 Z" class="st6"/>
			</g>
			<g id="shape13-20" v:mID="13" v:groupContext="groupContent">
				<v:textBlock v:margins="rect(0,0,0,0)"/>
				<v:textRect cx="17.5608" cy="430.329" width="72" height="21.6036"/>
				<text x="-5.33" y="427.63" class="st7" v:langID="1033"><v:paragraph v:horizAlign="1"/><v:tabList/>Azure Active <tspan
							x="0.56" dy="1.2em" class="st8">Directory</tspan></text>			</g>
		</g>
		<g id="group21-23" transform="translate(142.921,-337.912)" v:mID="21" v:groupContext="group">
			<title>Users.21</title>
			<desc>User</desc>
			<g id="shape22-24" v:mID="22" v:groupContext="shape">
				<title>Sheet.22</title>
				<v:userDefs>
					<v:ud v:nameU="msvDisableCustomConnectionPoints" v:prompt="" v:val="VT0(1):5"/>
				</v:userDefs>
				<path d="M28.86 419.53 A2.80993 2.784 -180 0 0 31.66 416.74 a0.910804 0.9024 -180 0 0 5.68434E-14 -0.3264 C30.54
							 407.64 25.52 400.5 15.83 400.5 C6.14 400.5 0.99 406.55 0 416.44 A2.82931 2.8032 -180 0 0 2.54 419.53
							 L28.86 419.53 Z" class="st9"/>
			</g>
			<g id="shape23-28" v:mID="23" v:groupContext="shape" transform="translate(11.0265,-6.0288)">
				<title>Sheet.23</title>
				<v:userDefs>
					<v:ud v:nameU="msvDisableCustomConnectionPoints" v:prompt="" v:val="VT0(1):5"/>
				</v:userDefs>
				<path d="M4.81 408.6 A8.89488 8.8128 0 0 1 -0 407.2 L4.81 419.53 L9.53 407.28 A8.7786 8.6976 0 0 1 4.81 408.6 Z"
						class="st10"/>
			</g>
			<g id="shape24-30" v:mID="24" v:groupContext="shape" transform="translate(6.97637,-16.9728)">
				<title>Sheet.24</title>
				<v:userDefs>
					<v:ud v:nameU="msvDisableCustomConnectionPoints" v:prompt="" v:val="VT0(1):5"/>
				</v:userDefs>
				<ellipse cx="8.8755" cy="410.734" rx="8.8755" ry="8.7936" class="st11"/>
			</g>
			<g id="shape21-34" v:mID="21" v:groupContext="groupContent">
				<v:textBlock v:margins="rect(0,0,0,0)"/>
				<v:textRect cx="15.84" cy="424.929" width="72" height="10.8036"/>
				<text x="7.38" y="427.63" class="st7" v:langID="1033"><v:paragraph v:horizAlign="1"/><v:tabList/>User</text>			</g>
		</g>
		<g id="group25-36" transform="translate(303.939,-200.875)" v:mID="25" v:groupContext="group">
			<title>API Management Services.25</title>
			<desc>API Management</desc>
			<g id="shape26-37" v:mID="26" v:groupContext="shape">
				<title>Sheet.26</title>
				<v:userDefs>
					<v:ud v:nameU="msvDisableCustomConnectionPoints" v:prompt="" v:val="VT0(1):5"/>
				</v:userDefs>
				<path d="M28.26 395.37 A10.02 10.7103 -180 0 0 18.04 384.97 A10.3299 11.0415 -180 0 0 8.22 392.23 A9.52415 10.1803
							 -180 0 0 0 402.24 A9.64811 10.3128 -180 0 0 9.9 412.17 A6.19793 6.62492 -180 0 0 10.76 412.17 L13.24
							 412.17 A3.03699 3.24621 0 0 1 13.02 410.94 A3.11962 3.33454 0 0 1 13.43 409.33 L9.9 409.33 A7.04498
							 7.53033 0 0 1 2.62 402.24 A6.8797 7.35366 0 0 1 8.64 395.02 L10.21 394.75 L10.72 393.14 A7.70609 8.23698
							 0 0 1 18.04 387.77 A7.43752 7.9499 0 0 1 25.64 395.39 L25.64 397.82 L27.89 398.15 A5.35088 5.71951 0
							 0 1 32.56 403.65 A5.43352 5.80785 0 0 1 27.15 409.26 L24.61 409.26 A8.09863 8.65656 -180 0 0 16.61 402.24
							 A1.32222 1.41332 -180 1 0 16.61 405.04 A5.47484 5.85201 0 0 1 16.61 416.72 A1.32222 1.41332 -180 1 0
							 16.61 419.53 A8.09863 8.65656 -180 0 0 24.61 412.15 L26.78 412.15 A1.32222 1.41332 -180 0 0 27.19 412.15
							 A8.07797 8.63448 -180 0 0 35.12 403.65 A7.97467 8.52406 -180 0 0 28.26 395.37 Z" class="st12"/>
			</g>
			<g id="shape27-41" v:mID="27" v:groupContext="shape" transform="translate(13.0157,-5.2116)">
				<title>Sheet.27</title>
				<v:userDefs>
					<v:ud v:nameU="msvDisableCustomConnectionPoints" v:prompt="" v:val="VT0(1):5"/>
				</v:userDefs>
				<path d="M0 416.13 A3.18168 3.40087 -180 0 0 3.18 419.53 L3.26 419.53 A3.18168 3.40087 -180 0 0 6.45 416.13 L6.45
							 416.04 A3.18168 3.40087 -180 0 0 3.26 412.64 L3.18 412.64 A3.18168 3.40087 -180 0 0 -0 416.04 L0 416.13
							 Z" class="st13"/>
			</g>
			<g id="shape25-45" v:mID="25" v:groupContext="groupContent">
				<v:textBlock v:margins="rect(0,0,0,0)"/>
				<v:textRect cx="17.5608" cy="424.929" width="72" height="10.8036"/>
				<text x="-14.1" y="427.63" class="st7" v:langID="1033"><v:paragraph v:horizAlign="1"/><v:tabList/>API Management</text>			</g>
		</g>
		<g id="group46-47" transform="translate(141.363,-200.875)" v:mID="46" v:groupContext="group">
			<title>Code.46</title>
			<desc>Static Web App</desc>
			<g id="group47-48" v:mID="47" v:groupContext="group">
				<v:userDefs>
					<v:ud v:nameU="msvDisableCustomConnectionPoints" v:prompt="" v:val="VT0(1):5"/>
				</v:userDefs>
				<title>Sheet.47</title>
				<g id="shape48-49" v:mID="48" v:groupContext="shape">
					<title>Sheet.48</title>
					<v:userDefs>
						<v:ud v:nameU="msvDisableCustomConnectionPoints" v:prompt="" v:val="VT0(1):5"/>
					</v:userDefs>
					<path d="M0 394.13 L34.56 394.13 L34.56 418.09 C34.56 418.89 34.04 419.53 33.41 419.53 L1.15 419.53 C0.52 419.53
								 0 418.89 0 418.09 L0 394.13 Z" class="st14"/>
				</g>
				<g id="shape49-53" v:mID="49" v:groupContext="shape" transform="translate(0,-25.4017)">
					<title>Sheet.49</title>
					<v:userDefs>
						<v:ud v:nameU="msvDisableCustomConnectionPoints" v:prompt="" v:val="VT0(1):5"/>
					</v:userDefs>
					<path d="M1.16 410.37 L33.4 410.37 C34.04 410.37 34.55 411.01 34.55 411.81 L34.55 419.53 L0 419.53 L0 411.81
								 C0 411.01 0.52 410.37 1.15 410.37 C1.16 410.37 1.16 410.37 1.16 410.37 Z" class="st15"/>
				</g>
				<g id="shape50-55" v:mID="50" v:groupContext="shape" transform="translate(6.5542,-6.39213)">
					<title>Sheet.50</title>
					<v:userDefs>
						<v:ud v:nameU="msvDisableCustomConnectionPoints" v:prompt="" v:val="VT0(1):5"/>
					</v:userDefs>
					<path d="M0.25 411.88 L0.96 411.01 L6.51 417.93 C6.63 418.09 6.63 418.34 6.51 418.49 L5.8 419.37 C5.68 419.53
								 5.48 419.53 5.35 419.37 L0.25 413.01 C0 412.7 0 412.19 0.25 411.88 Z" class="st16"/>
				</g>
				<g id="shape51-59" v:mID="51" v:groupContext="shape" transform="translate(6.54607,-12.0358)">
					<title>Sheet.51</title>
					<v:userDefs>
						<v:ud v:nameU="msvDisableCustomConnectionPoints" v:prompt="" v:val="VT0(1):5"/>
					</v:userDefs>
					<path d="M0.96 419.53 L0.25 418.65 C0 418.34 0 417.84 0.25 417.53 L5.46 411.07 C5.58 410.92 5.79 410.92 5.91
								 411.07 L6.61 411.95 C6.74 412.11 6.74 412.36 6.61 412.51 L0.96 419.53 Z" class="st17"/>
				</g>
				<g id="shape52-61" v:mID="52" v:groupContext="shape" transform="translate(20.9678,-6.38455)">
					<title>Sheet.52</title>
					<v:userDefs>
						<v:ud v:nameU="msvDisableCustomConnectionPoints" v:prompt="" v:val="VT0(1):5"/>
					</v:userDefs>
					<path d="M0.84 419.37 L0.13 418.49 C0 418.34 0 418.09 0.13 417.93 L5.69 411 L6.39 411.88 C6.64 412.18 6.64 412.69
								 6.39 413 L1.28 419.37 C1.16 419.53 0.96 419.53 0.84 419.37 Z" class="st18"/>
				</g>
				<g id="shape53-65" v:mID="53" v:groupContext="shape" transform="translate(20.8661,-12.0308)">
					<title>Sheet.53</title>
					<v:userDefs>
						<v:ud v:nameU="msvDisableCustomConnectionPoints" v:prompt="" v:val="VT0(1):5"/>
					</v:userDefs>
					<path d="M0.12 411.95 L0.83 411.07 C0.95 410.92 1.15 410.92 1.28 411.07 L6.49 417.53 C6.74 417.83 6.74 418.34
								 6.49 418.65 L5.78 419.53 L0.13 412.51 C0 412.36 0 412.11 0.12 411.95 C0.12 411.95 0.12 411.95 0.12
								 411.95 Z" class="st17"/>
				</g>
				<g id="shape54-67" v:mID="54" v:groupContext="shape" transform="translate(14.0659,-4.23277)">
					<title>Sheet.54</title>
					<v:userDefs>
						<v:ud v:nameU="msvDisableCustomConnectionPoints" v:prompt="" v:val="VT0(1):5"/>
					</v:userDefs>
					<path d="M4.92 400.64 L6.04 401.09 C6.17 401.14 6.23 401.3 6.19 401.45 L1.6 419.29 C1.56 419.44 1.43 419.53 1.31
								 419.47 L0.18 419.02 C0.07 418.98 0 418.82 0.04 418.67 L4.63 400.82 C4.67 400.68 4.79 400.59 4.92
								 400.64 Z" class="st17"/>
				</g>
			</g>
			<g id="shape46-69" v:mID="46" v:groupContext="groupContent">
				<v:textBlock v:margins="rect(0,0,0,0)"/>
				<v:textRect cx="17.28" cy="424.929" width="72" height="10.8036"/>
				<text x="-10.87" y="427.63" class="st7" v:langID="1033"><v:paragraph v:horizAlign="1"/><v:tabList/>Static Web App</text>			</g>
		</g>
		<g id="shape55-71" v:mID="55" v:groupContext="shape" v:layerMember="0" transform="translate(149.761,-327.109)">
			<title>Dynamic connector.55</title>
			<path d="M9 419.53 L9 493.77" class="st19"/>
		</g>
		<g id="shape57-77" v:mID="57" v:groupContext="shape" v:layerMember="0" transform="translate(149.643,-185.832)">
			<title>Dynamic connector.57</title>
			<path d="M9 419.53 L9 493.49" class="st19"/>
		</g>
		<g id="shape59-82" v:mID="59" v:groupContext="shape" v:layerMember="0" transform="translate(185.004,-88.792)">
			<title>Dynamic connector.59</title>
			<path d="M5.8 419.52 L6.16 419.52 C40.25 419.46 88.88 418.33 112.94 398.96 C134.64 381.49 136.35 349.19 136.48 324.41
						 L136.48 324.05" class="st21"/>
		</g>
		<g id="shape60-91" v:mID="60" v:groupContext="shape" v:layerMember="0" transform="translate(322.08,-226.435)">
			<title>Dynamic connector.60</title>
			<path d="M0 410.53 C-0.86 397.03 -21.66 376.05 -61.78 370.62 C-99.24 365.54 -153.55 374.02 -162.38 404.47 L-162.45 404.82"
					class="st23"/>
		</g>
		<g id="shape74-96" v:mID="74" v:groupContext="shape" transform="translate(100.559,-343.941)">
			<title>Sheet.74</title>
			<desc>1</desc>
			<v:textBlock v:margins="rect(4,4,4,4)"/>
			<v:textRect cx="11.2514" cy="408.276" width="22.51" height="22.5027"/>
			<ellipse cx="11.2514" cy="408.276" rx="11.2514" ry="11.2514" class="st24"/>
			<text x="8.21" y="411.88" class="st25" v:langID="1033"><v:paragraph v:horizAlign="1"/><v:tabList/>1</text>		</g>
		<g id="shape75-99" v:mID="75" v:groupContext="shape" transform="translate(99,-130.619)">
			<title>Sheet.75</title>
			<desc>2</desc>
			<v:textBlock v:margins="rect(4,4,4,4)"/>
			<v:textRect cx="11.2514" cy="408.276" width="22.51" height="22.5027"/>
			<ellipse cx="11.2514" cy="408.276" rx="11.2514" ry="11.2514" class="st24"/>
			<text x="8.21" y="411.88" class="st25" v:langID="1033"><v:paragraph v:horizAlign="1"/><v:tabList/>2</text>		</g>
		<g id="shape76-102" v:mID="76" v:groupContext="shape" transform="translate(99,-63.8323)">
			<title>Sheet.76</title>
			<desc>3</desc>
			<v:textBlock v:margins="rect(4,4,4,4)"/>
			<v:textRect cx="11.2514" cy="408.276" width="22.51" height="22.5027"/>
			<ellipse cx="11.2514" cy="408.276" rx="11.2514" ry="11.2514" class="st24"/>
			<text x="8.21" y="411.88" class="st25" v:langID="1033"><v:paragraph v:horizAlign="1"/><v:tabList/>3</text>		</g>
		<g id="shape77-105" v:mID="77" v:groupContext="shape" transform="translate(228.686,-104.306)">
			<title>Sheet.77</title>
			<desc>4</desc>
			<v:textBlock v:margins="rect(4,4,4,4)"/>
			<v:textRect cx="11.2514" cy="408.276" width="22.51" height="22.5027"/>
			<ellipse cx="11.2514" cy="408.276" rx="11.2514" ry="11.2514" class="st24"/>
			<text x="8.21" y="411.88" class="st25" v:langID="1033"><v:paragraph v:horizAlign="1"/><v:tabList/>4</text>		</g>
		<g id="shape78-108" v:mID="78" v:groupContext="shape" transform="translate(328.077,-130.619)">
			<title>Sheet.78</title>
			<desc>5</desc>
			<v:textBlock v:margins="rect(4,4,4,4)"/>
			<v:textRect cx="11.2514" cy="408.276" width="22.51" height="22.5027"/>
			<ellipse cx="11.2514" cy="408.276" rx="11.2514" ry="11.2514" class="st24"/>
			<text x="8.21" y="411.88" class="st25" v:langID="1033"><v:paragraph v:horizAlign="1"/><v:tabList/>5</text>		</g>
		<g id="shape79-111" v:mID="79" v:groupContext="shape" transform="translate(228.679,-288.808)">
			<title>Sheet.79</title>
			<desc>6</desc>
			<v:textBlock v:margins="rect(4,4,4,4)"/>
			<v:textRect cx="11.2514" cy="408.276" width="22.51" height="22.5027"/>
			<ellipse cx="11.2514" cy="408.276" rx="11.2514" ry="11.2514" class="st24"/>
			<text x="8.21" y="411.88" class="st25" v:langID="1033"><v:paragraph v:horizAlign="1"/><v:tabList/>6</text>		</g>
		<g id="group80-114" transform="translate(465.6,-200.868)" v:mID="80" v:groupContext="group">
			<title>App Services.80</title>
			<desc>API</desc>
			<g id="group81-115" v:mID="81" v:groupContext="group">
				<v:userDefs>
					<v:ud v:nameU="msvDisableCustomConnectionPoints" v:prompt="" v:val="VT0(1):5"/>
				</v:userDefs>
				<title>Sheet.81</title>
				<g id="shape82-116" v:mID="82" v:groupContext="shape">
					<title>Sheet.82</title>
					<v:userDefs>
						<v:ud v:nameU="msvDisableCustomConnectionPoints" v:prompt="" v:val="VT0(1):5"/>
					</v:userDefs>
					<path d="M26.74 414.34 C20.04 419.53 10.39 418.31 5.2 411.62 C0 404.94 1.22 395.32 7.92 390.14 L8.09 390.03 C14.88
								 384.97 24.5 386.36 29.57 393.14 C34.56 399.8 33.3 409.21 26.74 414.34 Z" class="st26"/>
				</g>
				<g id="shape83-120" v:mID="83" v:groupContext="shape" transform="translate(4.06015,-6.77259)">
					<title>Sheet.83</title>
					<v:userDefs>
						<v:ud v:nameU="msvDisableCustomConnectionPoints" v:prompt="" v:val="VT0(1):5"/>
					</v:userDefs>
					<path d="M9.1 405.82 C13.44 401.7 19.2 399.4 25.2 399.37 C24.41 398.4 23.5 397.53 22.5 396.78 C19.59 396.96 16.73
								 397.63 14.04 398.76 C11.26 399.95 8.76 401.68 6.66 403.84 C7.67 404.22 8.53 404.92 9.1 405.82 ZM1.5
								 411.98 C0.88 413.52 0.38 415.09 0 416.7 C0.33 417.28 0.71 417.83 1.12 418.36 C1.44 418.77 1.75 419.15
								 2.11 419.53 C2.55 417.39 3.2 415.29 4.06 413.28 C3.1 413.11 2.21 412.66 1.5 411.98 Z" class="st27"/>
				</g>
				<g id="shape84-122" v:mID="84" v:groupContext="shape" transform="translate(4.09627,-20.8905)">
					<title>Sheet.84</title>
					<v:userDefs>
						<v:ud v:nameU="msvDisableCustomConnectionPoints" v:prompt="" v:val="VT0(1):5"/>
					</v:userDefs>
					<path d="M3.23 417.92 C2.6 416.22 2.18 414.44 1.99 412.63 C1.23 413.42 0.56 414.3 0 415.24 C0.2 416.7 0.55 418.13
								 1.03 419.53 C1.59 418.79 2.36 418.24 3.23 417.92 Z" class="st28"/>
				</g>
				<g id="shape85-124" v:mID="85" v:groupContext="shape" transform="translate(4.06015,-12.9472)">
					<title>Sheet.85</title>
					<v:userDefs>
						<v:ud v:nameU="msvDisableCustomConnectionPoints" v:prompt="" v:val="VT0(1):5"/>
					</v:userDefs>
					<ellipse cx="4.93069" cy="414.61" rx="4.93069" ry="4.91733" class="st29"/>
				</g>
				<g id="shape86-128" v:mID="86" v:groupContext="shape" transform="translate(9.89389,-6.09533)">
					<title>Sheet.86</title>
					<v:userDefs>
						<v:ud v:nameU="msvDisableCustomConnectionPoints" v:prompt="" v:val="VT0(1):5"/>
					</v:userDefs>
					<path d="M6.29 416.75 C6.29 415.88 6.64 415.06 7.26 414.46 C5.6 413.55 4.06 412.42 2.69 411.11 C1.98 411.88 1.03
								 412.4 0 412.6 C0.81 413.44 1.69 414.21 2.62 414.91 C3.77 415.78 5.02 416.53 6.32 417.16 C6.3 417.02
								 6.29 416.89 6.29 416.75 ZM17.66 417.12 C15.98 417.13 14.32 416.93 12.68 416.55 C12.69 416.61 12.69
								 416.68 12.68 416.75 C12.68 417.58 12.35 418.39 11.76 418.98 C13.79 419.38 15.86 419.53 17.93 419.41
								 C18.73 418.69 19.46 417.88 20.08 417 C19.28 417.09 18.47 417.13 17.66 417.12 Z" class="st28"/>
				</g>
				<g id="shape87-130" v:mID="87" v:groupContext="shape" transform="translate(16.1611,-5.67024)">
					<title>Sheet.87</title>
					<v:userDefs>
						<v:ud v:nameU="msvDisableCustomConnectionPoints" v:prompt="" v:val="VT0(1):5"/>
					</v:userDefs>
					<ellipse cx="3.21488" cy="416.321" rx="3.21488" ry="3.20617" class="st30"/>
				</g>
				<g id="shape88-134" v:mID="88" v:groupContext="shape" transform="translate(10.797,-17.4142)">
					<title>Sheet.88</title>
					<v:userDefs>
						<v:ud v:nameU="msvDisableCustomConnectionPoints" v:prompt="" v:val="VT0(1):5"/>
					</v:userDefs>
					<path d="M12.53 419.53 C12.69 418.82 13.08 418.19 13.63 417.73 C10.66 415.57 7.96 413.07 5.58 410.27 C4.2 408.65
								 2.98 406.88 1.97 405.01 C1.29 405.21 0.64 405.47 0 405.77 C1.09 407.81 2.39 409.73 3.88 411.49 C6.42
								 414.52 9.33 417.21 12.53 419.53 Z" class="st31"/>
				</g>
				<g id="shape89-136" v:mID="89" v:groupContext="shape" transform="translate(23.2772,-13.3975)">
					<title>Sheet.89</title>
					<v:userDefs>
						<v:ud v:nameU="msvDisableCustomConnectionPoints" v:prompt="" v:val="VT0(1):5"/>
					</v:userDefs>
					<ellipse cx="3.41356" cy="416.123" rx="3.41356" ry="3.4043" class="st30"/>
				</g>
				<g id="shape90-139" v:mID="90" v:groupContext="shape" transform="translate(28.8166,-12.5509)">
					<title>Sheet.90</title>
					<v:userDefs>
						<v:ud v:nameU="msvDisableCustomConnectionPoints" v:prompt="" v:val="VT0(1):5"/>
					</v:userDefs>
					<path d="M3.6 417.56 L2.97 417.26 L2.43 416.97 L2.32 416.97 L1.85 416.59 L1.72 416.59 L1.16 416.23 C0.97 416.89
								 0.56 417.48 0 417.89 C0.22 418.03 0.45 418.16 0.69 418.28 L0.83 418.38 L1.46 418.72 L3.02 419.53
								 C3.24 418.87 3.41 418.21 3.54 417.53 L3.6 417.56 Z" class="st28"/>
				</g>
				<g id="shape91-141" v:mID="91" v:groupContext="shape" transform="translate(4.06015,-12.9472)">
					<title>Sheet.91</title>
					<v:userDefs>
						<v:ud v:nameU="msvDisableCustomConnectionPoints" v:prompt="" v:val="VT0(1):5"/>
					</v:userDefs>
					<ellipse cx="4.93069" cy="414.61" rx="4.93069" ry="4.91733" class="st29"/>
				</g>
				<g id="shape92-144" v:mID="92" v:groupContext="shape" transform="translate(16.1611,-5.67024)">
					<title>Sheet.92</title>
					<v:userDefs>
						<v:ud v:nameU="msvDisableCustomConnectionPoints" v:prompt="" v:val="VT0(1):5"/>
					</v:userDefs>
					<ellipse cx="3.21488" cy="416.321" rx="3.21488" ry="3.20617" class="st30"/>
				</g>
			</g>
			<g id="shape80-147" v:mID="80" v:groupContext="groupContent">
				<v:textBlock v:margins="rect(0,0,0,0)"/>
				<v:textRect cx="17.28" cy="424.929" width="72" height="10.8036"/>
				<text x="11.22" y="427.63" class="st7" v:langID="1033"><v:paragraph v:horizAlign="1"/><v:tabList/>API</text>			</g>
		</g>
		<g id="shape93-149" v:mID="93" v:groupContext="shape" v:layerMember="0" transform="translate(181.08,-209.155)">
			<title>Dynamic connector.93</title>
			<path d="M0 410.53 L110.34 410.53" class="st32"/>
		</g>
		<g id="shape94-155" v:mID="94" v:groupContext="shape" transform="translate(228.686,-225.808)">
			<title>Sheet.94</title>
			<desc>7</desc>
			<v:textBlock v:margins="rect(4,4,4,4)"/>
			<v:textRect cx="11.2514" cy="408.276" width="22.51" height="22.5027"/>
			<ellipse cx="11.2514" cy="408.276" rx="11.2514" ry="11.2514" class="st24"/>
			<text x="8.21" y="411.88" class="st25" v:langID="1033"><v:paragraph v:horizAlign="1"/><v:tabList/>7</text>		</g>
		<g id="shape95-158" v:mID="95" v:groupContext="shape" transform="translate(391.248,-228.309)">
			<title>Sheet.95</title>
			<desc>8</desc>
			<v:textBlock v:margins="rect(4,4,4,4)"/>
			<v:textRect cx="11.2514" cy="408.276" width="22.51" height="22.5027"/>
			<ellipse cx="11.2514" cy="408.276" rx="11.2514" ry="11.2514" class="st24"/>
			<text x="8.21" y="411.88" class="st25" v:langID="1033"><v:paragraph v:horizAlign="1"/><v:tabList/>8</text>		</g>
		<g id="shape96-161" v:mID="96" v:groupContext="shape" v:layerMember="0" transform="translate(345.08,-209.148)">
			<title>Dynamic connector.96</title>
			<path d="M0 410.53 L108.84 410.53" class="st32"/>
		</g>
	</g>
</svg>
