<?xml version="1.0" encoding="UTF-8" standalone="no"?>
<!DOCTYPE svg PUBLIC "-//W3C//DTD SVG 1.1//EN" "http://www.w3.org/Graphics/SVG/1.1/DTD/svg11.dtd">
<!-- Generated by Microsoft Visio, SVG Export ops-automation-using-event-grid.svg Page-1 -->
<svg xmlns="http://www.w3.org/2000/svg" xmlns:xlink="http://www.w3.org/1999/xlink" xmlns:ev="http://www.w3.org/2001/xml-events"
		xmlns:v="http://schemas.microsoft.com/visio/2003/SVGExtensions/" width="6.81854in" height="3.29072in"
		viewBox="0 0 490.935 236.932" xml:space="preserve" color-interpolation-filters="sRGB" class="st29">
	<v:documentProperties v:langID="1031" v:metric="true" v:viewMarkup="false"/>

	<style type="text/css">
	<![CDATA[
		.st1 {fill:#f2f2f2;stroke:none;stroke-linecap:round;stroke-linejoin:round;stroke-width:0.75}
		.st2 {fill:#0072c6;stroke:none;stroke-linecap:butt;stroke-width:12.24}
		.st3 {fill:#59b4d9;stroke:none;stroke-linecap:butt;stroke-width:12.24}
		.st4 {fill:#b8d432;stroke:none;stroke-linecap:butt;stroke-width:12.24}
		.st5 {fill:#7fba00;stroke:none;stroke-linecap:butt;stroke-width:12.24}
		.st6 {fill:#ffffff;fill-opacity:0.2;stroke:none;stroke-linecap:butt;stroke-width:12.24}
		.st7 {fill:#3999c6;stroke:none;stroke-linecap:butt;stroke-width:12.24}
		.st8 {fill:#ffffff;fill-opacity:0.5;stroke:none;stroke-linecap:butt;stroke-width:12.24}
		.st9 {fill:#a5ce00;stroke:none;stroke-linecap:round;stroke-linejoin:round;stroke-width:0.75}
		.st10 {fill:#595959;font-family:Segoe UI Light;font-size:0.833336em}
		.st11 {fill:#000000;fill-opacity:1;stroke:#000000;stroke-opacity:1;stroke-width:0.82926829268293}
		.st12 {fill:#ffffff;marker-end:url(#mrkr13-53);stroke:none;stroke-linecap:butt;stroke-width:12.24}
		.st13 {fill:#fcd116;stroke:none;stroke-linecap:butt;stroke-width:12.24}
		.st14 {fill:#ff8c00;fill-opacity:0.4;stroke:none;stroke-linecap:butt;stroke-width:12.24}
		.st15 {marker-end:url(#mrkr13-76);stroke:#a5a5a5;stroke-linecap:round;stroke-linejoin:round;stroke-width:0.75}
		.st16 {fill:#a5a5a5;fill-opacity:1;stroke:#a5a5a5;stroke-opacity:1;stroke-width:0.22935779816514}
		.st17 {fill:#ffffff;fill-opacity:0.8;stroke:none;stroke-linecap:butt;stroke-width:12.24}
		.st18 {fill:#804998;stroke:none;stroke-linecap:butt;stroke-width:12.24}
		.st19 {fill:#ffffff;fill-opacity:0.098;stroke:none;stroke-linecap:butt;stroke-width:12.24}
		.st20 {fill:#1e1e1e;fill-opacity:0.3;stroke:none;stroke-linecap:butt;stroke-width:12.24}
		.st21 {fill:#a0a1a2;stroke:none;stroke-linecap:butt;stroke-width:12.24}
		.st22 {fill:#7a7a7a;stroke:none;stroke-linecap:butt;stroke-width:12.24}
		.st23 {fill:#ff8c00;fill-opacity:0.3;stroke:none;stroke-linecap:butt;stroke-width:12.24}
		.st24 {stroke:#a5a5a5;stroke-linecap:round;stroke-linejoin:round;stroke-width:0.75}
		.st25 {fill:none;stroke:#a5a5a5;stroke-dasharray:5.25,3.75;stroke-linecap:round;stroke-linejoin:round;stroke-width:0.75}
		.st26 {fill:none;stroke:none;stroke-linecap:round;stroke-linejoin:round;stroke-width:0.75}
		.st27 {fill:#bfbfbf;font-family:Calibri;font-size:0.75em}
		.st28 {fill:#7f7f7f;font-family:Calibri;font-size:0.833336em}
		.st29 {fill:none;fill-rule:evenodd;font-size:12px;overflow:visible;stroke-linecap:square;stroke-miterlimit:3}
	]]>
	</style>

	<defs id="Markers">
		<g id="lend13">
			<path d="M 3 1 L 0 0 L 3 -1 L 3 1 " style="stroke:none"/>
		</g>
		<marker id="mrkr13-53" class="st11" v:arrowType="13" v:arrowSize="2" v:setback="3.61765" refX="-3.6176470588235"
				orient="auto" markerUnits="strokeWidth" overflow="visible">
			<use xlink:href="#lend13" transform="scale(-1.2058823529412,-1.2058823529412) "/>
		</marker>
		<marker id="mrkr13-76" class="st16" v:arrowType="13" v:arrowSize="2" v:setback="13.08" refX="-13.08" orient="auto"
				markerUnits="strokeWidth" overflow="visible">
			<use xlink:href="#lend13" transform="scale(-4.36,-4.36) "/>
		</marker>
	</defs>
	<g v:mID="0" v:index="1" v:groupContext="foregroundPage">
		<title>Page-1</title>
		<v:pageProperties v:drawingScale="0.0393701" v:pageScale="0.0393701" v:drawingUnits="24" v:shadowOffsetX="8.50394"
				v:shadowOffsetY="-8.50394"/>
		<v:layer v:name="Connector" v:index="0"/>
		<g id="shape36-1" v:mID="36" v:groupContext="shape" transform="translate(135.662,-0.375)">
			<title>Sheet.36</title>
			<rect x="0" y="39.1417" width="344.409" height="197.79" class="st1"/>
		</g>
		<g id="group1-3" transform="translate(281.869,-70.0923)" v:mID="1" v:groupContext="group">
			<title>Event Grid Subscriptions</title>
			<g id="group2-4" transform="translate(3.80599,-9.68258)" v:mID="2" v:groupContext="group">
				<title>Sheet.2</title>
				<g id="shape3-5" v:mID="3" v:groupContext="shape" transform="translate(5.15071,-10.3014)">
					<title>Sheet.3</title>
					<path d="M23.55 226.63 L23.55 225.16 L12.51 225.16 L12.51 225.16 L7.35 230.31 L3.55 230.31 L12.38 221.48 L18.4
								 221.48 L18.4 220.01 L11.77 220.01 L11.77 220.01 L11.77 220.01 L1.47 230.31 L0 230.31 L0 231.78 L4.41
								 231.78 L9.57 236.93 L9.57 236.93 L22.07 236.93 L22.07 235.46 L10.17 235.46 L6.5 231.78 L15.45 231.78
								 L15.45 230.31 L9.43 230.31 L13.11 226.63 L23.55 226.63 Z" class="st2"/>
				</g>
				<g id="shape4-7" v:mID="4" v:groupContext="shape" transform="translate(19.9406,-14.0541)">
					<title>Sheet.4</title>
					<ellipse cx="2.13387" cy="234.798" rx="2.13387" ry="2.13387" class="st3"/>
				</g>
				<g id="shape5-9" v:mID="5" v:groupContext="shape" transform="translate(-143.257,45.927) rotate(-45.001)">
					<title>Sheet.5</title>
					<ellipse cx="2.13387" cy="234.798" rx="2.13387" ry="2.13387" class="st3"/>
				</g>
				<g id="shape6-11" v:mID="6" v:groupContext="shape" transform="translate(-138.106,51.0777) rotate(-45.001)">
					<title>Sheet.6</title>
					<ellipse cx="2.13387" cy="234.798" rx="2.13387" ry="2.13387" class="st4"/>
				</g>
				<g id="shape7-13" v:mID="7" v:groupContext="shape" transform="translate(-140.314,61.3791) rotate(-45.001)">
					<title>Sheet.7</title>
					<ellipse cx="2.13387" cy="234.798" rx="2.13387" ry="2.13387" class="st4"/>
				</g>
				<g id="shape8-15" v:mID="8" v:groupContext="shape">
					<title>Sheet.8</title>
					<path d="M0.59 200.14 C0.22 200.14 0 200.36 0 200.73 L0 208.09 C0 208.46 0.22 208.68 0.59 208.68 L4.27 208.68
								 C4.64 208.68 4.86 208.46 4.86 208.09 L4.86 205.07 L31.91 205.07 L31.91 208.16 C31.91 208.53 32.13
								 208.75 32.65 208.75 L36.19 208.75 C36.56 208.75 36.78 208.53 36.78 208.16 L36.78 200.8 C36.85 200.36
								 36.63 200.14 36.26 200.14 L0.59 200.14 ZM36.2 236.93 C36.57 236.93 36.79 236.71 36.79 236.34 L36.79
								 229.13 C36.79 228.76 36.57 228.54 36.2 228.54 L32.67 228.54 C32.3 228.54 32.08 228.76 32.08 229.13
								 L32.08 232.08 L4.93 232.08 L4.93 228.98 C4.93 228.62 4.71 228.4 4.19 228.4 L0.59 228.4 C0.22 228.4
								 0 228.62 0 229.13 L0 236.34 C0 236.71 0.22 236.93 0.59 236.93 L36.2 236.93 Z" class="st2"/>
				</g>
			</g>
		</g>
		<g id="group14-17" transform="translate(420.969,-27.3041)" v:mID="14" v:groupContext="group">
			<title>Logic Apps</title>
			<g id="group15-18" v:mID="15" v:groupContext="group">
				<title>Sheet.15</title>
				<g id="shape16-19" v:mID="16" v:groupContext="shape" transform="translate(13.3495,-9.5925)">
					<title>Sheet.16</title>
					<path d="M11.27 224.59 L11.27 219.84 L8.9 219.84 L8.9 224.59 C8.9 225.44 8.14 226.2 6.91 226.58 L3.69 227.24
								 C1.51 227.91 0 229.62 0 231.52 L0 236.93 L2.37 236.93 L2.37 231.52 C2.37 230.66 3.12 229.9 4.36
								 229.52 L7.57 228.76 C9.75 228.19 11.27 226.48 11.27 224.59 Z" class="st3"/>
				</g>
				<g id="shape17-21" v:mID="17" v:groupContext="shape" transform="translate(10.4145,-5.22364)">
					<title>Sheet.17</title>
					<path d="M8.14 235.03 L8.14 230.66 C8.14 229.62 7.29 228.76 6.25 228.76 L1.89 228.76 C0.85 228.76 0 229.62 0
								 230.66 L0 235.03 C0 236.08 0.85 236.93 1.89 236.93 L6.25 236.93 C7.29 236.93 8.14 236.08 8.14 235.03
								 Z" class="st5"/>
				</g>
				<g id="shape18-23" v:mID="18" v:groupContext="shape" transform="translate(21.9651,-9.40255)">
					<title>Sheet.18</title>
					<path d="M0 224.4 L0 219.65 L2.37 219.65 L2.37 224.4 C2.37 225.25 3.12 226.01 4.36 226.39 L8.33 227.24 C10.51
								 227.91 12.02 229.62 12.02 231.52 L12.02 236.93 L9.66 236.93 L9.66 231.52 C9.66 230.66 8.9 229.9
								 7.67 229.52 L3.69 228.67 C1.51 228 0 226.29 0 224.4 Z" class="st3"/>
				</g>
				<g id="shape19-25" v:mID="19" v:groupContext="shape" transform="translate(28.7819,-5.03369)">
					<title>Sheet.19</title>
					<path d="M0 235.03 L0 230.66 C0 229.62 0.85 228.76 1.89 228.76 L6.25 228.76 C7.29 228.76 8.14 229.62 8.14 230.66
								 L8.14 235.03 C8.14 236.08 7.29 236.93 6.25 236.93 L1.89 236.93 C0.85 236.93 0 236.08 0 235.03 Z"
							class="st5"/>
				</g>
				<g id="shape20-27" v:mID="20" v:groupContext="shape" transform="translate(21.9651,-22.1292)">
					<title>Sheet.20</title>
					<rect x="0" y="232.373" width="2.65096" height="4.55881" class="st3"/>
				</g>
				<g id="shape21-29" v:mID="21" v:groupContext="shape" transform="translate(18.9354,-24.8835)">
					<title>Sheet.21</title>
					<path d="M6.15 230.76 L6.15 234.27 L2.65 234.27 L2.65 230.76 L6.15 230.76 ZM6.91 228.1 L1.89 228.1 C0.85 228.1
								 0 228.95 0 230 L0 235.03 C0 236.08 0.85 236.93 1.89 236.93 L6.91 236.93 C7.95 236.93 8.8 236.08
								 8.8 235.03 L8.8 230 C8.8 228.95 7.95 228.1 6.91 228.1 Z" class="st2"/>
				</g>
				<g id="shape22-31" v:mID="22" v:groupContext="shape">
					<title>Sheet.22</title>
					<path d="M7.48 236.93 C5.49 236.93 4.07 236.55 3.22 235.89 C2.37 235.13 1.99 233.89 1.99 232.09 L1.99 222.21
								 C1.99 220.6 1.33 219.74 0 219.74 L0 217.27 C1.33 217.27 1.99 216.42 1.99 214.71 L1.99 205.02 C1.99
								 203.22 2.37 201.89 3.22 201.13 C4.07 200.37 5.49 200.08 7.48 200.08 L7.48 202.55 C6.06 202.55 5.3
								 203.31 5.3 204.93 L5.3 214.42 C5.3 216.61 4.64 217.94 3.22 218.51 C4.54 219.08 5.3 220.41 5.3 222.59
								 L5.3 231.99 C5.3 232.85 5.49 233.51 5.78 233.89 C6.15 234.27 6.63 234.46 7.38 234.46 L7.48 236.93
								 C7.38 236.93 7.48 236.93 7.48 236.93 ZM39.86 200.08 C41.85 200.08 43.27 200.46 44.12 201.13 C44.97
								 201.89 45.35 203.12 45.35 204.93 L45.35 214.8 C45.35 216.42 46.01 217.27 47.34 217.27 L47.34 219.74
								 C46.01 219.74 45.35 220.6 45.35 222.31 L45.35 231.9 C45.35 233.7 44.97 235.03 44.12 235.79 C43.27
								 236.55 41.85 236.93 39.86 236.93 L39.86 234.46 C41.28 234.46 42.04 233.7 42.04 232.09 L42.04 222.59
								 C42.04 220.41 42.7 219.08 44.12 218.51 C42.79 217.94 42.04 216.61 42.04 214.42 L42.04 205.02 C42.04
								 204.17 41.85 203.5 41.56 203.12 C41.18 202.74 40.71 202.55 39.95 202.55 L39.86 200.08 Z"
							class="st3"/>
				</g>
			</g>
		</g>
		<g id="group23-33" transform="translate(29.363,-79.4402)" v:mID="23" v:groupContext="group">
			<title>Roles</title>
			<g id="group24-34" v:mID="24" v:groupContext="group">
				<title>Sheet.24</title>
				<g id="shape25-35" v:mID="25" v:groupContext="shape">
					<title>Sheet.25</title>
					<path d="M21.71 206.73 C21.71 211.01 18.2 214.53 13.91 214.53 C9.63 214.53 6.12 211.09 6.12 206.73 C6.12 202.45
								 9.63 198.93 13.91 198.93 C18.27 198.93 21.71 202.45 21.71 206.73 ZM19.65 217.21 L13.91 225.23 L8.26
								 217.21 L0 217.21 L0 236.93 L27.91 236.93 L27.91 217.21 L19.65 217.21 Z" class="st4"/>
				</g>
				<g id="shape26-37" v:mID="26" v:groupContext="shape">
					<title>Sheet.26</title>
					<path d="M6.12 206.73 C6.12 211.01 9.48 214.45 13.76 214.53 L15.75 199.16 C15.21 199.01 14.6 198.93 13.99 198.93
								 C9.63 198.93 6.12 202.45 6.12 206.73 ZM8.26 217.21 L0 217.21 L0 236.93 L10.93 236.93 L12.69 223.48
								 L8.26 217.21 Z" class="st6"/>
				</g>
				<g id="shape27-39" v:mID="27" v:groupContext="shape" transform="translate(21.7891,-9.63309)">
					<title>Sheet.27</title>
					<path d="M7.03 236.93 L6.96 236.93 L0.08 232.96 C0 232.96 0 232.88 0 232.8 C0 232.73 0.08 232.65 0.08 232.65
								 L6.96 228.67 L7.19 228.67 L14.07 232.65 C14.14 232.65 14.14 232.73 14.14 232.8 C14.14 232.88 14.07
								 232.96 14.07 232.96 L7.19 236.93 C7.11 236.86 7.03 236.93 7.03 236.93 Z" class="st7"/>
				</g>
				<g id="shape28-41" v:mID="28" v:groupContext="shape" transform="translate(20.7952,-1.98952E-13)">
					<title>Sheet.28</title>
					<path d="M7.03 236.93 L6.96 236.93 L0.08 232.96 C0 232.96 0 232.88 0 232.8 L0 224.78 C0 224.7 0.08 224.62 0.08
								 224.62 L0.31 224.62 L7.19 228.6 C7.26 228.67 7.26 228.67 7.26 228.75 L7.26 236.7 C7.26 236.78 7.19
								 236.86 7.19 236.86 C7.11 236.93 7.03 236.93 7.03 236.93 ZM8.95 236.93 L8.87 236.93 C8.79 236.93
								 8.79 236.86 8.79 236.78 L8.79 228.83 C8.79 228.75 8.87 228.67 8.87 228.67 L15.75 224.7 L15.98 224.7
								 C16.06 224.7 16.06 224.78 16.06 224.85 L16.06 232.8 C16.06 232.88 15.98 232.96 15.98 232.96 L9.1
								 236.93 L8.95 236.93 Z" class="st3"/>
				</g>
				<g id="shape29-43" v:mID="29" v:groupContext="shape" transform="translate(29.5873,0)">
					<title>Sheet.29</title>
					<path d="M0.15 236.93 L0.08 236.93 C0 236.93 0 236.86 0 236.78 L0 228.83 C0 228.75 0.08 228.67 0.08 228.67 L6.96
								 224.7 L7.19 224.7 C7.26 224.7 7.26 224.78 7.26 224.85 L7.26 232.8 C7.26 232.88 7.19 232.96 7.19
								 232.96 L0.31 236.93 L0.15 236.93 Z" class="st8"/>
				</g>
			</g>
		</g>
		<g id="shape30-45" v:mID="30" v:groupContext="shape" transform="translate(77.552,-89.8336)">
			<title>Sheet.30</title>
			<desc>1</desc>
			<v:textBlock v:margins="rect(4,4,4,4)" v:tabSpace="42.5197"/>
			<v:textRect cx="8.50394" cy="228.327" width="17.01" height="17.2103"/>
			<ellipse cx="8.50394" cy="228.327" rx="8.50394" ry="8.60517" class="st9"/>
			<text x="6.72" y="231.33" class="st10" v:langID="1031"><v:paragraph v:horizAlign="1"/><v:tabList/>1</text>		</g>
		<g id="group31-48" transform="translate(227.788,-156.281)" v:mID="31" v:groupContext="group">
			<title>Virtual machines (classic)</title>
			<g id="group32-49" v:mID="32" v:groupContext="group">
				<title>Sheet.32</title>
				<g id="shape33-50" v:mID="33" v:groupContext="shape">
					<title>Sheet.33</title>
					<path d="M34.64 202.96 L1.99 202.96 C0.88 202.96 0 203.91 0 205.02 L0 227.79 C0 228.9 0.88 229.86 1.99 229.86
								 L13.86 229.86 C15.03 234.13 13.41 234.72 6.34 234.72 L6.34 236.93 L30.36 236.93 L30.36 234.72 C23.29
								 234.72 22.55 234.13 23.81 229.86 L34.64 229.86 C35.74 229.86 36.85 228.9 36.85 227.79 L36.85 205.02
								 C36.85 203.91 35.74 202.96 34.64 202.96 Z" class="st3"/>
				</g>
				<g id="shape34-54" v:mID="34" v:groupContext="shape" transform="translate(2.80063,-9.8759)">
					<title>Sheet.34</title>
					<rect x="0" y="215.632" width="31.1754" height="21.2995" class="st12"/>
				</g>
				<g id="shape35-57" v:mID="35" v:groupContext="shape" transform="translate(11.2762,-12.0869)">
					<title>Sheet.35</title>
					<path d="M7.52 227.87 L7.44 227.87 L0.96 224.11 C0.88 224.11 0.88 224.03 0.88 223.96 C0.88 223.89 0.96 223.81
								 0.96 223.81 L7.44 220.13 L7.66 220.13 L14.15 223.89 C14.22 223.89 14.22 223.96 14.22 224.03 C14.22
								 224.11 14.22 224.18 14.15 224.18 L7.74 227.87 L7.52 227.87 ZM6.63 236.93 L6.56 236.93 L0.07 233.17
								 C0 233.17 0 233.1 0 233.03 L0 225.51 C0 225.43 0.07 225.36 0.07 225.36 L0.29 225.36 L6.78 229.12
								 C6.85 229.12 6.85 229.19 6.85 229.27 L6.85 236.78 C6.85 236.86 6.78 236.93 6.78 236.93 L6.63 236.93
								 ZM8.48 236.93 L8.4 236.93 C8.33 236.93 8.33 236.86 8.33 236.78 L8.33 229.34 C8.33 229.27 8.4 229.19
								 8.4 229.19 L14.89 225.43 L15.11 225.43 C15.18 225.43 15.18 225.51 15.18 225.58 L15.18 233.03 C15.18
								 233.1 15.11 233.17 15.11 233.17 L8.62 236.93 L8.48 236.93 Z" class="st2"/>
				</g>
			</g>
		</g>
		<g id="group37-60" transform="translate(119.363,-169.999)" v:mID="37" v:groupContext="group">
			<title>Subscriptions</title>
			<g id="group38-61" transform="translate(2.04584,2.06881)" v:mID="38" v:groupContext="group">
				<title>Sheet.38</title>
				<g id="shape39-62" v:mID="39" v:groupContext="shape">
					<title>Sheet.39</title>
					<path d="M25.48 210.46 A4.94057 4.94057 -180 0 0 25.48 203.47 L16.96 194.95 A4.94231 4.94231 -180 0 0 9.97 194.95
								 L1.45 203.47 A4.94231 4.94231 -180 0 0 1.45 210.46 L8.95 217.96 L8.95 232.41 L13.46 236.93 L17.39
								 233.01 L17.39 232.98 L19.69 230.67 L17.41 228.39 L19.69 226.11 L17.41 223.82 L19.69 221.54 L17.39
								 219.24 L17.39 218.55 L25.48 210.46 ZM13.46 197.01 A2.80556 2.80556 0 1 1 13.46 202.62 A2.80556 2.80556
								 0 0 1 13.46 197.01 Z" class="st13"/>
				</g>
				<g id="shape40-64" v:mID="40" v:groupContext="shape" transform="translate(11.0552,-3.50913)">
					<title>Sheet.40</title>
					<path d="M0 235.19 L1.76 236.93 L1.76 223.08 L0 222.21 L0 235.19 Z" class="st14"/>
				</g>
				<g id="shape41-66" v:mID="41" v:groupContext="shape" transform="translate(5.09659,-25.4898)">
					<title>Sheet.41</title>
					<path d="M0 230.82 L16.19 230.82 L16.19 233.15 L0 233.15 L0 230.82 ZM0 234.6 L16.19 234.6 L16.19 236.93 L0 236.93
								 L0 234.6 Z" class="st8"/>
				</g>
			</g>
		</g>
		<g id="shape42-68" v:mID="42" v:groupContext="shape" transform="translate(154.087,-120.847)">
			<title>Sheet.42</title>
			<desc>2</desc>
			<v:textBlock v:margins="rect(4,4,4,4)" v:tabSpace="42.5197"/>
			<v:textRect cx="8.50394" cy="228.327" width="17.01" height="17.2103"/>
			<ellipse cx="8.50394" cy="228.327" rx="8.50394" ry="8.60517" class="st9"/>
			<text x="5.93" y="231.33" class="st10" v:langID="1031"><v:paragraph v:horizAlign="1"/><v:tabList/>2</text>		</g>
		<g id="shape43-71" v:mID="43" v:groupContext="shape" v:layerMember="0" transform="translate(94.5598,-91.3521)">
			<title>Dynamic connector</title>
			<path d="M0 229.85 L41.21 229.85" class="st15"/>
		</g>
		<g id="group44-77" transform="translate(145.583,-77.2325)" v:mID="44" v:groupContext="group">
			<title>Templates</title>
			<g id="group45-78" v:mID="45" v:groupContext="group">
				<title>Sheet.45</title>
				<g id="shape46-79" v:mID="46" v:groupContext="shape">
					<title>Sheet.46</title>
					<path d="M35.18 200.75 L31.16 196.73 L29.48 195.06 L0 195.06 L0 236.93 L36.85 236.93 L36.85 202.43 L35.18 200.75
								 Z" class="st3"/>
				</g>
				<g id="shape47-81" v:mID="47" v:groupContext="shape" transform="translate(1.67502,-1.67502)">
					<title>Sheet.47</title>
					<path d="M27.64 198.41 L0 198.41 L0 236.93 L33.5 236.93 L33.5 204.27 L27.64 204.27 L27.64 198.41 Z"
							class="st17"/>
				</g>
				<g id="shape48-83" v:mID="48" v:groupContext="shape" transform="translate(5.26374,-16.6715)">
					<title>Sheet.48</title>
					<path d="M3.31 234.07 C3.31 234.97 3.09 235.68 2.64 236.18 C2.2 236.68 1.6 236.93 0.86 236.93 C0.51 236.93 0.22
								 236.89 0 236.81 L0 235.62 C0.2 235.76 0.46 235.82 0.78 235.82 C1.63 235.82 2.05 235.17 2.05 233.87
								 L2.05 229.17 L3.32 229.17 L3.32 234.07 L3.31 234.07 ZM4.78 236.5 L4.78 235.2 C4.9 235.3 5.04 235.4
								 5.2 235.48 C5.36 235.57 5.53 235.64 5.71 235.7 C5.89 235.76 6.07 235.8 6.25 235.84 C6.43 235.87
								 6.6 235.88 6.75 235.88 C7.29 235.88 7.68 235.8 7.94 235.62 C8.2 235.44 8.33 235.18 8.33 234.85 C8.33
								 234.66 8.29 234.51 8.2 234.37 A1.371 1.371 -180 0 0 7.84 234.01 A3.8316 3.8316 -180 0 0 7.29 233.69
								 C7.08 233.59 6.85 233.49 6.61 233.38 C6.35 233.24 6.11 233.1 5.89 232.96 A3.07952 3.07952 0 0 1
								 5.3 232.48 A1.97736 1.97736 0 0 1 4.91 231.9 A1.90617 1.90617 0 0 1 4.77 231.14 C4.77 230.78 4.85
								 230.47 5.02 230.21 C5.18 229.94 5.39 229.72 5.65 229.55 A2.91621 2.91621 0 0 1 6.56 229.17 A4.30145
								 4.30145 0 0 1 7.59 229.04 C8.39 229.04 8.97 229.13 9.33 229.32 L9.33 230.57 C8.9 230.25 8.34 230.1
								 7.66 230.1 C7.47 230.1 7.29 230.12 7.1 230.15 A1.67083 1.67083 -180 0 0 6.6 230.33 A1.09044 1.09044
								 -180 0 0 6.24 230.64 a0.770508 0.770508 -180 0 0 -0.139026 0.463142 C6.1 231.27 6.14 231.42 6.21
								 231.55 C6.28 231.67 6.38 231.78 6.52 231.89 C6.66 231.99 6.82 232.09 7.02 232.19 C7.22 232.28 7.44
								 232.39 7.7 232.5 C7.97 232.64 8.22 232.79 8.46 232.94 C8.69 233.09 8.9 233.26 9.08 233.45 C9.26
								 233.63 9.4 233.83 9.51 234.06 C9.61 234.29 9.66 234.54 9.66 234.83 C9.66 235.22 9.59 235.54 9.43
								 235.81 C9.27 236.07 9.06 236.29 8.8 236.46 C8.53 236.62 8.23 236.74 7.89 236.82 A4.747 4.747 0 0
								 1 6.32 236.9 A6.61381 6.61381 0 0 1 5.75 236.82 C5.56 236.78 5.37 236.73 5.2 236.68 C5.02 236.63
								 4.89 236.57 4.78 236.5 ZM14.21 236.93 C13.11 236.93 12.23 236.58 11.57 235.86 C10.91 235.15 10.57
								 234.22 10.57 233.08 C10.57 231.85 10.91 230.87 11.59 230.14 C12.26 229.41 13.17 229.04 14.33 229.04
								 C15.4 229.04 16.27 229.4 16.92 230.11 C17.58 230.82 17.9 231.75 17.9 232.89 C17.9 234.14 17.57 235.12
								 16.9 235.85 C16.23 236.57 15.33 236.93 14.21 236.93 ZM14.27 230.16 C13.57 230.16 13 230.42 12.56
								 230.94 C12.12 231.46 11.9 232.15 11.9 233 C11.9 233.85 12.12 234.53 12.54 235.05 C12.97 235.56 13.53
								 235.82 14.22 235.82 C14.95 235.82 15.52 235.58 15.94 235.08 C16.36 234.59 16.58 233.9 16.58 233.01
								 C16.58 232.1 16.37 231.4 15.96 230.9 C15.55 230.41 14.99 230.16 14.27 230.16 ZM25.78 236.8 L24.39
								 236.8 L20.75 231.19 A2.48908 2.48908 0 0 1 20.52 230.75 L20.48 230.75 C20.51 230.92 20.53 231.26
								 20.53 231.8 L20.53 236.8 L19.3 236.8 L19.3 229.17 L20.78 229.17 L24.3 234.65 C24.45 234.88 24.55
								 235.03 24.59 235.12 L24.61 235.12 C24.57 234.92 24.56 234.57 24.56 234.09 L24.56 229.17 L25.78 229.17
								 L25.78 236.8 L25.78 236.8 Z" class="st3"/>
				</g>
			</g>
		</g>
		<g id="shape52-85" v:mID="52" v:groupContext="shape" transform="translate(162.206,-137.846)">
			<title>Sheet.52</title>
			<path d="M0 236.93 L0 198.65 L52.94 198.65" class="st15"/>
		</g>
		<g id="shape56-90" v:mID="56" v:groupContext="shape" transform="translate(189.52,-96.2774)">
			<title>Sheet.56</title>
			<path d="M0 236.93 L75.23 236.93" class="st15"/>
		</g>
		<g id="shape55-95" v:mID="55" v:groupContext="shape" transform="translate(215.032,-87.6821)">
			<title>Sheet.55</title>
			<desc>3</desc>
			<v:textBlock v:margins="rect(4,4,4,4)" v:tabSpace="42.5197"/>
			<v:textRect cx="8.50394" cy="228.327" width="17.01" height="17.2103"/>
			<ellipse cx="8.50394" cy="228.327" rx="8.50394" ry="8.60517" class="st9"/>
			<text x="5.93" y="231.33" class="st10" v:langID="1031"><v:paragraph v:horizAlign="1"/><v:tabList/>3</text>		</g>
		<g id="group57-98" transform="translate(267.473,-156.281)" v:mID="57" v:groupContext="group">
			<title>Tags</title>
			<g id="group58-99" v:mID="58" v:groupContext="group">
				<title>Sheet.58</title>
				<g id="shape59-100" v:mID="59" v:groupContext="shape">
					<title>Sheet.59</title>
					<path d="M15.52 218.8 L10.5 218.99 L0 229.48 L7.45 236.93 L17.95 226.44 L18.35 221.63 L15.52 218.8 ZM15.93 222.69
								 C15.52 223.1 14.86 223.1 14.46 222.69 C14.06 222.29 14.06 221.63 14.46 221.22 C14.86 220.82 15.52
								 220.82 15.93 221.22 C16.33 221.63 16.33 222.29 15.93 222.69 Z" class="st18"/>
				</g>
				<g id="shape60-102" v:mID="60" v:groupContext="shape">
					<title>Sheet.60</title>
					<path d="M0 229.48 L7.45 236.93 L9.14 235.28 L9.14 220.34 L0 229.48 Z" class="st19"/>
				</g>
				<g id="shape61-104" v:mID="61" v:groupContext="shape" transform="translate(13.1386,-12.9184)">
					<title>Sheet.61</title>
					<path d="M3.41 233.52 C2.68 232.78 1.47 232.78 0.73 233.52 C0 234.25 0 235.46 0.73 236.2 C1.47 236.93 2.68 236.93
								 3.41 236.2 C4.15 235.46 4.15 234.25 3.41 233.52 ZM2.79 235.61 C2.39 236.01 1.72 236.01 1.32 235.61
								 C0.92 235.21 0.92 234.55 1.32 234.14 C1.72 233.74 2.39 233.74 2.79 234.14 C3.19 234.55 3.19 235.21
								 2.79 235.61 Z" class="st20"/>
				</g>
			</g>
		</g>
		<g id="group62-106" transform="translate(348.542,-144.841)" v:mID="62" v:groupContext="group">
			<title>Automation Accounts</title>
			<g id="group63-107" v:mID="63" v:groupContext="group">
				<title>Sheet.63</title>
				<g id="shape64-108" v:mID="64" v:groupContext="shape" transform="translate(9.83363,-3.62144)">
					<title>Sheet.64</title>
					<path d="M29.26 221.31 C29.26 221.01 29.24 220.72 29.21 220.41 L32.4 218.71 A15.8152 15.2258 -180 0 0 31.58 215.76
								 L27.94 215.83 A14.1874 13.6587 -180 0 0 27.02 214.25 L28.89 211.24 A16.2334 15.6284 -180 0 0 26.66
								 209.09 L24.81 210.14 L24.03 211.26 L22.36 213.64 C24.73 215.42 26.26 218.19 26.26 221.31 C26.26
								 226.68 21.76 231.02 16.19 231.02 C10.64 231.02 6.12 226.68 6.12 221.31 C6.12 216.51 9.74 212.55
								 14.49 211.76 L15.26 208.77 L13.49 205.7 A15.7578 15.1705 -180 0 0 10.44 206.49 L10.49 210 A11.6912
								 11.2555 -180 0 0 8.87 210.89 L5.74 209.09 A15.4706 14.894 -180 0 0 3.51 211.24 L5.39 214.25 C5.03
								 214.74 4.74 215.28 4.46 215.83 L0.81 215.76 A16.8196 16.1928 -180 0 0 0 218.71 L3.18 220.41 A11.2063
								 10.7887 -180 0 0 3.18 222.22 L0 223.92 C0.17 224.94 0.45 225.93 0.82 226.87 L4.46 226.8 C4.74 227.35
								 5.03 227.88 5.39 228.38 L3.51 231.39 A16.2782 15.6715 -180 0 0 5.74 233.55 L8.87 231.74 C9.39 232.08
								 9.94 232.37 10.49 232.64 L10.44 236.14 C11.42 236.5 12.43 236.77 13.49 236.93 L15.27 233.86 C15.57
								 233.88 15.88 233.91 16.19 233.91 C16.51 233.91 16.83 233.88 17.13 233.86 L18.9 236.93 A15.8152 15.2258
								 -180 0 0 21.96 236.14 L21.9 232.64 A13.5074 13.004 -180 0 0 23.53 231.73 L26.66 233.55 A17.1229
								 16.4848 -180 0 0 28.89 231.39 L27.02 228.38 C27.36 227.88 27.67 227.35 27.94 226.8 L31.59 226.87
								 C31.96 225.93 32.23 224.94 32.4 223.92 L29.21 222.22 C29.24 221.91 29.26 221.62 29.26 221.31 Z"
							class="st21"/>
				</g>
				<g id="shape65-110" v:mID="65" v:groupContext="shape">
					<title>Sheet.65</title>
					<path d="M13.52 231.01 L13.52 229.5 L13.43 229.42 L11.82 228.9 L11.41 227.86 L12.2 226.27 L12.29 226.09 L11.8
								 225.61 L11.19 225.02 L10.98 225.13 L9.41 225.9 L8.33 225.61 L7.64 223.92 L6.08 223.92 L6.01 224
								 L5.46 225.54 L4.37 225.94 L2.55 225.09 L1.44 226.15 L1.54 226.35 L2.35 227.86 L1.9 228.9 L0 229.56
								 L0 231.07 L0.22 231.14 L1.9 231.67 L2.35 232.71 L1.49 234.47 L2.6 235.55 L2.81 235.44 L4.38 234.67
								 L5.46 235.1 L6.15 236.93 L7.72 236.93 L7.79 236.72 L8.34 235.1 L9.41 234.67 L11.25 235.5 L12.35
								 234.43 L12.25 234.23 L11.44 232.71 L11.75 231.66 L13.52 231.01 ZM6.9 232.41 C5.69 232.41 4.7 231.46
								 4.7 230.29 C4.7 229.12 5.69 228.16 6.9 228.16 C8.12 228.16 9.09 229.12 9.09 230.29 C9.09 231.46
								 8.12 232.41 6.9 232.41 Z" class="st22"/>
				</g>
				<g id="shape66-112" v:mID="66" v:groupContext="shape" transform="translate(22.438,-12.02)">
					<title>Sheet.66</title>
					<path d="M5.69 212.1 L5.08 213.94 L4.04 217.15 L3.54 218.68 L3.1 220.03 L0.07 229.32 C0 229.5 0.09 229.64 0.3
								 229.64 L3.1 229.64 C3.19 229.64 3.26 229.66 3.3 229.71 C3.37 229.78 3.38 229.87 3.34 229.97 L0.45
								 236.72 C0.37 236.89 0.42 236.93 0.55 236.78 L9.7 226.79 C9.83 226.64 9.78 226.52 9.58 226.52 L6.59
								 226.54 L6.03 226.55 C5.83 226.55 5.74 226.41 5.85 226.24 L8.7 221.35 L9.37 220.18 L10.15 218.84
								 L11.81 216 L12.76 214.35 A18.1966 17.5184 -180 0 0 5.69 212.1 Z" class="st13"/>
				</g>
				<g id="shape67-114" v:mID="67" v:groupContext="shape" transform="translate(23.3469,-12.547)">
					<title>Sheet.67</title>
					<path d="M10.02 213.99 L3.4 227.06 L5.05 227.06 C4.9 227.03 4.84 226.91 4.93 226.77 L7.78 221.88 L8.45 220.71
								 L9.23 219.36 L10.9 216.53 L11.85 214.88 A18.7456 18.047 -180 0 0 10.02 213.99 ZM8.69 227.05 L6.84
								 227.06 L0 236.93 L8.8 227.32 C8.94 227.17 8.88 227.05 8.69 227.05 Z" class="st23"/>
				</g>
			</g>
		</g>
		<g id="shape68-116" v:mID="68" v:groupContext="shape" transform="translate(140.345,133.092) rotate(-90)">
			<title>Sheet.68</title>
			<path d="M0 236.93 L34.81 236.93" class="st15"/>
		</g>
		<g id="shape69-121" v:mID="69" v:groupContext="shape" transform="translate(331.253,-103.84)">
			<title>Sheet.69</title>
			<path d="M0 236.93 L46.02 236.93" class="st24"/>
		</g>
		<g id="shape70-124" v:mID="70" v:groupContext="shape" transform="translate(368.7,-109.038)">
			<title>Sheet.70</title>
			<desc>4</desc>
			<v:textBlock v:margins="rect(4,4,4,4)" v:tabSpace="42.5197"/>
			<v:textRect cx="8.50394" cy="228.327" width="17.01" height="17.2103"/>
			<ellipse cx="8.50394" cy="228.327" rx="8.50394" ry="8.60517" class="st9"/>
			<text x="5.85" y="231.33" class="st10" v:langID="1031"><v:paragraph v:horizAlign="1"/><v:tabList/>4</text>		</g>
		<g id="shape71-127" v:mID="71" v:groupContext="shape" transform="translate(351.095,308.695) rotate(180)">
			<title>Sheet.71</title>
			<path d="M0 236.93 L46.88 236.93" class="st15"/>
		</g>
		<g id="shape72-132" v:mID="72" v:groupContext="shape" transform="translate(319.488,-156.564)">
			<title>Sheet.72</title>
			<desc>5</desc>
			<v:textBlock v:margins="rect(4,4,4,4)" v:tabSpace="42.5197"/>
			<v:textRect cx="8.50394" cy="228.327" width="17.01" height="17.2103"/>
			<ellipse cx="8.50394" cy="228.327" rx="8.50394" ry="8.60517" class="st9"/>
			<text x="5.93" y="231.33" class="st10" v:langID="1031"><v:paragraph v:horizAlign="1"/><v:tabList/>5</text>		</g>
		<g id="shape73-135" v:mID="73" v:groupContext="shape" transform="translate(331.253,-92.501)">
			<title>Sheet.73</title>
			<path d="M0 236.93 L46.02 236.93" class="st24"/>
		</g>
		<g id="shape74-138" v:mID="74" v:groupContext="shape" transform="translate(377.276,-47.1467)">
			<title>Sheet.74</title>
			<path d="M0 236.93 L32.04 236.93" class="st15"/>
		</g>
		<g id="shape75-143" v:mID="75" v:groupContext="shape" transform="translate(614.208,144.431) rotate(90)">
			<title>Sheet.75</title>
			<path d="M0 236.93 L45.35 236.93" class="st24"/>
		</g>
		<g id="shape76-146" v:mID="76" v:groupContext="shape" transform="translate(368.7,-61.3199)">
			<title>Sheet.76</title>
			<desc>6</desc>
			<v:textBlock v:margins="rect(4,4,4,4)" v:tabSpace="42.5197"/>
			<v:textRect cx="8.50394" cy="228.327" width="17.01" height="17.2103"/>
			<ellipse cx="8.50394" cy="228.327" rx="8.50394" ry="8.60517" class="st9"/>
			<text x="5.93" y="231.33" class="st10" v:langID="1031"><v:paragraph v:horizAlign="1"/><v:tabList/>6</text>		</g>
		<g id="shape1002-149" v:mID="1002" v:groupContext="shape" transform="translate(345.426,-7.46161)">
			<title>Sheet.1002</title>
			<path d="M0 236.93 L127.56 236.93 L127.56 146.22 L0 146.22 L0 236.93 Z" class="st25"/>
		</g>
		<g id="shape1003-151" v:mID="1003" v:groupContext="shape" transform="translate(419.127,-81.0049)">
			<title>Sheet.1003</title>
			<desc>optional</desc>
			<v:textBlock v:margins="rect(4,4,4,4)" v:tabSpace="42.5197"/>
			<v:textRect cx="34.8976" cy="226.932" width="69.8" height="20"/>
			<rect x="0" y="216.932" width="69.7953" height="20" class="st26"/>
			<text x="19.69" y="229.63" class="st27" v:langID="1031"><v:paragraph v:horizAlign="1"/><v:tabList/>optional</text>		</g>
		<g id="shape1004-154" v:mID="1004" v:groupContext="shape" transform="translate(0.375,-62.3642)">
			<title>Sheet.1004</title>
			<desc>Administrator</desc>
			<v:textBlock v:margins="rect(4,4,4,4)" v:tabSpace="42.5197"/>
			<v:textRect cx="45.9213" cy="228.428" width="91.85" height="17.0079"/>
			<rect x="0" y="219.924" width="91.8425" height="17.0079" class="st26"/>
			<text x="17.66" y="231.43" class="st28" v:langID="1031"><v:paragraph v:horizAlign="1"/><v:tabList/>Administrator</text>		</g>
		<g id="shape1005-157" v:mID="1005" v:groupContext="shape" transform="translate(117.908,-60.8723)">
			<title>Sheet.1005</title>
			<desc>Deployment</desc>
			<v:textBlock v:margins="rect(4,4,4,4)" v:tabSpace="42.5197"/>
			<v:textRect cx="45.9213" cy="228.428" width="91.85" height="17.0079"/>
			<rect x="0" y="219.924" width="91.8425" height="17.0079" class="st26"/>
			<text x="20.9" y="231.43" class="st28" v:langID="1031"><v:paragraph v:horizAlign="1"/><v:tabList/>Deployment</text>		</g>
		<g id="shape1006-160" v:mID="1006" v:groupContext="shape" transform="translate(200.292,-139.496)">
			<title>Sheet.1006</title>
			<desc>Virtual Machine</desc>
			<v:textBlock v:margins="rect(4,4,4,4)" v:tabSpace="42.5197"/>
			<v:textRect cx="45.9213" cy="228.428" width="91.85" height="17.0079"/>
			<rect x="0" y="219.924" width="91.8425" height="17.0079" class="st26"/>
			<text x="13.55" y="231.43" class="st28" v:langID="1031"><v:paragraph v:horizAlign="1"/><v:tabList/>Virtual Machine</text>		</g>
		<g id="shape1007-163" v:mID="1007" v:groupContext="shape" transform="translate(257.403,-62.8118)">
			<title>Sheet.1007</title>
			<desc>Event Grid</desc>
			<v:textBlock v:margins="rect(4,4,4,4)" v:tabSpace="42.5197"/>
			<v:textRect cx="45.9213" cy="228.428" width="91.85" height="17.0079"/>
			<rect x="0" y="219.924" width="91.8425" height="17.0079" class="st26"/>
			<text x="24.63" y="231.43" class="st28" v:langID="1031"><v:paragraph v:horizAlign="1"/><v:tabList/>Event Grid</text>		</g>
		<g id="shape1008-166" v:mID="1008" v:groupContext="shape" transform="translate(398.717,-11.1914)">
			<title>Sheet.1008</title>
			<desc>Logic App</desc>
			<v:textBlock v:margins="rect(4,4,4,4)" v:tabSpace="42.5197"/>
			<v:textRect cx="45.9213" cy="228.428" width="91.85" height="17.0079"/>
			<rect x="0" y="219.924" width="91.8425" height="17.0079" class="st26"/>
			<text x="26.29" y="231.43" class="st28" v:langID="1031"><v:paragraph v:horizAlign="1"/><v:tabList/>Logic App</text>		</g>
		<g id="shape1009-169" v:mID="1009" v:groupContext="shape" transform="translate(387.946,-154.762)">
			<title>Sheet.1009</title>
			<desc>Azure Automation</desc>
			<v:textBlock v:margins="rect(4,4,4,4)" v:tabSpace="42.5197"/>
			<v:textRect cx="45.9213" cy="228.428" width="91.85" height="17.0079"/>
			<rect x="0" y="219.924" width="91.8425" height="17.0079" class="st26"/>
			<text x="8.76" y="231.43" class="st28" v:langID="1031"><v:paragraph v:horizAlign="1"/><v:tabList/>Azure Automation</text>		</g>
		<g id="shape1010-172" v:mID="1010" v:groupContext="shape" transform="translate(88.816,-211.109)">
			<title>Sheet.1010</title>
			<desc>Subscription</desc>
			<v:textBlock v:margins="rect(4,4,4,4)" v:tabSpace="42.5197"/>
			<v:textRect cx="45.9213" cy="228.428" width="91.85" height="17.0079"/>
			<rect x="0" y="219.924" width="91.8425" height="17.0079" class="st26"/>
			<text x="20.7" y="231.43" class="st28" v:langID="1031"><v:paragraph v:horizAlign="1"/><v:tabList/>Subscription</text>		</g>
	</g>
</svg>
