<svg class="architecture-diagram" aria-labelledby="ops-automation-using-event-grid" height="288" viewbox="0 0 437 144" width="874" xmlns="http://www.w3.org/2000/svg">
    <g fill="none" fill-rule="evenodd" stroke="none" stroke-width="1">
        <path d="M355.334 103.51h-12.336c1.624 5.736-.56 6.56-10.12 6.56v3.003h32.513v-3.004c-9.562 0-10.499-.82-8.872-6.559h-1.185z" fill="#888"/>
        <path d="M370.993 67.176h-44.02c-1.497 0-2.703 1.337-2.703 2.831v30.697c0 1.486 1.206 2.808 2.702 2.808h44.021c1.492 0 3.004-1.322 3.004-2.808V70.007c0-1.498-1.512-2.83-3.004-2.83" fill="#AEAEAE"/>
        <path d="M371.024 67.179l-.03-.002h-44.022c-1.496 0-2.702 1.336-2.702 2.831v30.696c0 1.487 1.206 2.809 2.702 2.809h1.047l43.005-36.334z" fill="#BEBEBE"/>
        <path fill="#59B4D9" d="M328.039 99.686h42.077V71.002h-42.077z"/>
        <path fill="#59B4D9" d="M328.04 99.686h.057V71.003l38.468-.057h.002l-38.528.057z"/>
        <path fill="#A0A1A2" d="M332.877 113.073h32.514v-3.005h-32.514z"/>
        <path d="M349.649 69.26a.706.706 0 11-1.412 0 .706.706 0 011.412 0" fill="#B8D432"/>
        <path d="M349.676 84.475a.285.285 0 01-.133-.038l-8.756-5.055a.265.265 0 010-.458l8.703-5.021a.266.266 0 01.262 0l8.759 5.056c.081.046.13.134.13.229a.26.26 0 01-.13.228l-8.7 5.02a.28.28 0 01-.135.039M348.418 96.76a.251.251 0 01-.134-.037l-8.729-5.038a.259.259 0 01-.136-.23v-10.11c0-.096.051-.183.136-.23a.264.264 0 01.266 0l8.73 5.037c.077.05.13.135.13.231v10.11a.269.269 0 01-.13.23.274.274 0 01-.133.036M350.89 96.76a.287.287 0 01-.138-.037.27.27 0 01-.128-.23V86.446c0-.093.05-.18.128-.229l8.73-5.036a.256.256 0 01.262 0 .26.26 0 01.134.228v10.046c0 .098-.05.183-.134.23l-8.726 5.038a.233.233 0 01-.128.036" fill="#FFF"/>
        <path fill="#1E1E1E" d="M.853 38.544h48.443V.655H.853z"/>
        <path d="M138.653 100.99h25.867l-.716-2.141.715-3.89h-15.833l9.833-10.053h29.083l-.25-1.133-.333-4.897h-30.833L140.27 94.959h-12.99l11.496-11.38c-.907-.872-1.882-1.804-2.86-2.742l-14.416 14.122h-5.225V100.99h13.54l15.899 15.952h33.168V110.91H148.52l-9.867-9.921z" fill="#0070C9"/>
        <path d="M175.687 68.323l-8.25-6.25v4.024H150.77l-5.278 5.318c.98.937 1.953 1.87 2.86 2.74l3.75-3.86h15.335v4.695l8.25-6.667z" fill="#9EA0A2"/>
        <path d="M31.084 115.51H18.748c1.624 5.736-.56 6.56-10.12 6.56v3.003H41.14v-3.004c-9.562 0-10.499-.82-8.872-6.559h-1.185z" fill="#888"/>
        <path d="M46.743 79.176H2.723c-1.497 0-2.703 1.337-2.703 2.831v30.697c0 1.486 1.206 2.808 2.702 2.808h44.021c1.492 0 3.004-1.322 3.004-2.808V82.007c0-1.498-1.512-2.83-3.004-2.83" fill="#AEAEAE"/>
        <path d="M46.774 79.179l-.03-.002H2.722c-1.496 0-2.702 1.336-2.702 2.831v30.696c0 1.487 1.206 2.809 2.702 2.809h1.047l43.005-36.334z" fill="#BEBEBE"/>
        <path fill="#59B4D9" d="M3.789 111.686h42.077V83.002H3.789z"/>
        <path fill="#59B4D9" d="M3.79 111.686h.057V83.003l38.468-.057h.002l-38.528.057z"/>
        <path fill="#A0A1A2" d="M8.627 125.073h32.514v-3.005H8.627z"/>
        <path d="M25.399 81.26a.706.706 0 11-1.412 0 .706.706 0 011.412 0" fill="#B8D432"/>
        <path d="M25.426 96.475a.285.285 0 01-.133-.038l-8.756-5.055a.265.265 0 010-.458l8.703-5.021a.266.266 0 01.262 0l8.759 5.056c.081.046.13.134.13.229a.26.26 0 01-.13.228l-8.7 5.02a.28.28 0 01-.135.039M24.168 108.76a.251.251 0 01-.134-.037l-8.729-5.038a.259.259 0 01-.136-.23v-10.11c0-.096.051-.183.136-.23a.264.264 0 01.266 0l8.73 5.037c.077.05.13.135.13.231v10.11a.269.269 0 01-.13.23.274.274 0 01-.133.036M26.64 108.76a.287.287 0 01-.138-.037.27.27 0 01-.128-.23V98.446c0-.093.05-.18.128-.229l8.73-5.036a.256.256 0 01.262 0 .26.26 0 01.134.228v10.046c0 .098-.05.183-.134.23l-8.726 5.038a.233.233 0 01-.128.036" fill="#FFF"/>
        <path fill="#0070C9" d="M194.02 120.073v10h-76v-10h-11v21h98v-21zM118.02 62.073v-10h76v10h11v-21h-98v21z"/>
        <path d="M182.103 77.086a6.875 6.875 0 119.723 9.723 6.875 6.875 0 01-9.723-9.723" fill="#B8D616"/>
        <path d="M141.925 82.507a5.359 5.359 0 01-5.359-5.36 5.36 5.36 0 115.359 5.36m0-13.288a7.929 7.929 0 10.001 15.858 7.929 7.929 0 00-.001-15.858M173.881 98.133a6.942 6.942 0 11-13.883 0 6.942 6.942 0 0113.883 0" fill="#54B3DB"/>
        <path d="M188.048 114.05a6.941 6.941 0 01-6.942 6.941 6.941 6.941 0 110-13.883 6.942 6.942 0 016.942 6.942" fill="#B8D616"/>
        <path d="M297.537 57.044c0-.317-.026-.62-.054-.938l3.202-1.774a15.838 15.838 0 00-.82-3.069l-3.652.066a14.17 14.17 0 00-.926-1.64l1.88-3.136a16.349 16.349 0 00-2.237-2.236l-1.853 1.098-.78 1.164-1.68 2.475a10.087 10.087 0 013.916 7.99c0 5.583-4.512 10.107-10.094 10.107-5.569 0-10.093-4.524-10.093-10.107 0-5 3.624-9.128 8.386-9.948l.767-3.109-1.773-3.2a15.72 15.72 0 00-3.053.82l.052 3.663c-.555.264-1.11.57-1.626.925l-3.135-1.878a15.452 15.452 0 00-2.237 2.236l1.88 3.136c-.358.515-.649 1.071-.927 1.64l-3.664-.066a16.8 16.8 0 00-.807 3.07l3.188 1.773a11.316 11.316 0 000 1.876l-3.188 1.774c.172 1.06.45 2.09.82 3.07l3.652-.067c.277.57.57 1.124.926 1.64l-1.879 3.136a16.269 16.269 0 002.236 2.248l3.136-1.89a13.18 13.18 0 001.626.938l-.053 3.651c.978.371 1.997.648 3.054.82l1.787-3.2c.303.025.608.052.925.052.32 0 .636-.026.94-.053l1.772 3.201a15.848 15.848 0 003.07-.82l-.067-3.652c.57-.277 1.112-.582 1.642-.938l3.135 1.89a17.21 17.21 0 002.236-2.248l-1.879-3.136c.344-.515.648-1.07.926-1.64l3.652.066c.37-.978.65-2.01.82-3.069l-3.2-1.773c.025-.317.051-.62.051-.938" fill="#A0A1A2"/>
        <path d="M265.272 72.364a2.213 2.213 0 01-2.21-2.21c0-1.216.993-2.208 2.21-2.208s2.196.992 2.196 2.209a2.202 2.202 0 01-2.196 2.209zm6.628-1.455v-1.574l-.087-.08-1.61-.542-.414-1.085.796-1.654.088-.185-.498-.503-.606-.61-.211.107-1.573.807-1.085-.304-.687-1.76h-1.561l-.08.08-.542 1.607-1.098.414-1.825-.878-1.112 1.1.106.209.807 1.573-.45 1.083-1.905.687v1.573l.226.067 1.679.555.45 1.084-.86 1.826 1.112 1.125.21-.107 1.575-.806 1.085.449.688 1.906h1.573l.067-.226.555-1.68 1.072-.45 1.839.862 1.112-1.112-.107-.211-.806-1.575.31-1.097 1.767-.675z" fill="#7A7A7A"/>
        <path d="M286.544 38.71l-.609 1.917-1.044 3.335-.503 1.6-.438 1.401-3.043 9.67c-.065.185.027.331.24.331h2.803c.093 0 .16.026.198.08.067.066.081.16.041.265l-2.898 7.025c-.079.185-.026.225.107.065l9.167-10.398c.132-.159.08-.277-.119-.277l-3.003.013-.555.013c-.198 0-.29-.145-.186-.317l2.858-5.093.674-1.218.781-1.402 1.667-2.949.953-1.72a18.223 18.223 0 00-7.09-2.342" fill="#FCD116"/>
        <path d="M291.8 40.131l-6.642 13.605h1.655c-.148-.03-.211-.155-.119-.304l2.857-5.093.675-1.218.781-1.402 1.667-2.949.952-1.72a18.333 18.333 0 00-1.826-.919M290.458 53.724l-1.854.008-6.85 10.278 8.823-10.009c.132-.158.08-.277-.119-.277" fill="#FF8C00"/>
        <path fill="#81469A" d="M343.1 116.4l22.145-21.796 11.314-.897 6.322 6.137-.721 10.834-22.304 22.479z"/>
        <path d="M376.93 92.674l-.901.071-10.5.833-.727.058-.518.511-21.167 20.834-1.437 1.414 1.426 1.425 15.333 15.333 1.42 1.42 1.414-1.425 21.333-21.5.526-.53.05-.746.667-10 .06-.924-.663-.644-5.667-5.5-.65-.63zm-.743 2.065l5.666 5.5-.666 10-21.334 21.5-15.333-15.334 21.167-20.833 10.5-.833z" fill="#FFF"/>
        <path fill="#8E5AA5" d="M344.52 116.406l15.333 15.334 3.334-3.36V98.035z"/>
        <path d="M379.103 101.156a3.834 3.834 0 11-7.668 0 3.834 3.834 0 017.668 0" fill="#633A74"/>
        <path d="M377.258 101.156a1.988 1.988 0 11-3.976 0 1.988 1.988 0 013.976 0" fill="#FFF"/>
        <path d="M1.095 38.073h47.8V1.214h-47.8v36.859zM0 39.285h49.989V0H0v39.285z" fill="#B8D616"/>
        <path fill="#B8D616" d="M40.582 29.073H38.27L30.832 9.136h2.313zM27.707 15.791a1.782 1.782 0 11-3.563-.001 1.782 1.782 0 013.563.001M27.707 24.604a1.782 1.782 0 11-3.563-.002 1.782 1.782 0 013.563.002M20.615 25.448c-.577.295-1.854.687-3.483.687-3.658 0-6.036-2.431-6.036-6.066 0-3.66 2.553-6.312 6.512-6.312 1.302 0 2.454.318 3.056.614l-.502 1.669c-.525-.294-1.353-.564-2.554-.564-2.779 0-4.283 2.014-4.283 4.494 0 2.75 1.804 4.446 4.208 4.446 1.252 0 2.078-.32 2.704-.59l.378 1.622z"/>
        <path fill="#969696" d="M25.878 66.295v-3.723h-1.8v3.723h-4.265l5.235 7.066 5.235-7.066zM24.077 49.073h1.801v-4.5h-1.801zM24.077 55.073h1.801v-4.5h-1.801zM24.077 61.073h1.801v-4.5h-1.801zM97.748 97.888l-7.067-5.235v4.335H86.77v1.799h3.912v4.336zM68.77 98.787h4.5v-1.8h-4.5zM80.77 98.787h4.5v-1.8h-4.5zM74.77 98.787h4.5v-1.8h-4.5zM242.581 97.662l-7.067-5.236v4.563h-3.412v1.798h3.412v4.11zM220.103 98.787h4.5v-1.799h-4.5zM214.103 98.787h4.5v-1.799h-4.5zM226.103 98.787h4.5v-1.799h-4.5zM386.793 143.306h-1.346v-1.8h1.346c.867 0 1.743-.023 2.604-.07l.097 1.798c-.893.048-1.802.072-2.7.072M379.748 143.306h4v-1.8h-4zM374.048 143.306h4v-1.8h-4zM368.348 143.306h4v-1.8h-4zM362.648 143.306h4v-1.8h-4zM356.947 143.306h4v-1.8h-4zM351.248 143.306h4v-1.8h-4zM345.548 143.306h4v-1.8h-4zM339.848 143.306h4v-1.8h-4zM334.148 143.306h4v-1.8h-4zM328.447 143.306h4v-1.8h-4zM322.748 143.306h4v-1.8h-4zM317.048 143.306h4v-1.8h-4zM315.348 143.306h-4c-.262 0-.521-.002-.782-.006l.027-1.8c.25.004.503.006.755.006h4v1.8zM308.837 143.244a50.175 50.175 0 01-4.055-.369l.237-1.785c1.293.172 2.607.291 3.908.356l-.09 1.798zM391.22 143.112l-.158-1.793a48.248 48.248 0 003.89-.506l.305 1.774a50.43 50.43 0 01-4.037.525M303.07 142.618a49.375 49.375 0 01-3.983-.84l.442-1.744c1.266.32 2.557.594 3.84.809l-.299 1.775zM396.958 142.262l-.367-1.762a46.913 46.913 0 003.804-.959l.511 1.727c-1.29.383-2.62.72-3.948.994M297.417 141.32a49.25 49.25 0 01-3.858-1.302l.646-1.68c1.214.467 2.465.889 3.718 1.256l-.506 1.727zM402.556 140.746l-.572-1.707a48.272 48.272 0 003.668-1.4l.71 1.652a49.772 49.772 0 01-3.806 1.455M291.958 139.37a49.616 49.616 0 01-3.675-1.746l.838-1.594a47.81 47.81 0 003.542 1.684l-.705 1.655zM407.945 138.578l-.77-1.627a48.214 48.214 0 003.476-1.821l.9 1.556a49.047 49.047 0 01-3.606 1.892M286.769 136.791a49.366 49.366 0 01-3.447-2.165l1.019-1.483a47.903 47.903 0 003.323 2.086l-.895 1.562zM413.04 135.793l-.956-1.525a48.256 48.256 0 003.24-2.217l1.075 1.443a49.59 49.59 0 01-3.36 2.3M281.913 133.622a50.186 50.186 0 01-3.17-2.552l1.183-1.355a48.567 48.567 0 003.057 2.46l-1.07 1.447zM417.769 132.434l-1.125-1.404a47.976 47.976 0 002.959-2.578l1.236 1.308a49.71 49.71 0 01-3.07 2.674M277.458 129.909a51.024 51.024 0 01-2.854-2.902l1.334-1.21a49.389 49.389 0 002.752 2.8l-1.232 1.311zM422.077 128.55l-1.28-1.265a48.384 48.384 0 002.637-2.904l1.381 1.154a49.515 49.515 0 01-2.738 3.014M273.465 125.703a49.92 49.92 0 01-2.498-3.216l1.467-1.045a47.64 47.64 0 002.406 3.1l-1.375 1.16zM425.904 124.19l-1.42-1.105a47.763 47.763 0 002.283-3.192l1.505.986a49.6 49.6 0 01-2.368 3.312M269.985 121.057a50.217 50.217 0 01-2.105-3.485l1.578-.868a47.809 47.809 0 002.029 3.361l-1.502.992zM429.195 119.418l-1.54-.934a47.627 47.627 0 001.895-3.433l1.611.804a50.455 50.455 0 01-1.966 3.563M267.07 116.037a50.226 50.226 0 01-1.683-3.71l1.668-.677a48.422 48.422 0 001.623 3.576l-1.608.811zM431.906 114.296l-1.639-.747a48.95 48.95 0 001.48-3.632l1.693.61a49.959 49.959 0 01-1.534 3.77M264.765 110.705a49.407 49.407 0 01-1.233-3.88l1.736-.474a47.877 47.877 0 001.188 3.74l-1.691.614zM433.998 108.889l-1.715-.551a47.5 47.5 0 001.043-3.781l1.754.406a49.873 49.873 0 01-1.082 3.926M263.107 105.149a49.534 49.534 0 01-.77-4l1.78-.267c.195 1.298.444 2.594.742 3.853l-1.752.414zM435.44 103.27l-1.768-.344c.249-1.275.448-2.581.59-3.88l1.79.199a49.26 49.26 0 01-.612 4.025M262.11 99.434a49.866 49.866 0 01-.296-4.061l1.799-.056a48.1 48.1 0 00.286 3.912l-1.79.205zM436.212 97.522l-1.795-.136c.091-1.2.137-2.426.137-3.641v-.278l1.8-.017.001.295c0 1.26-.048 2.53-.143 3.777M263.587 93.648l-1.8-.004c.002-1.351.061-2.72.173-4.067l1.793.149a49.353 49.353 0 00-.166 3.922M434.515 91.795a48.334 48.334 0 00-.316-3.91l1.787-.219a50.13 50.13 0 01.328 4.057l-1.8.072zM263.92 88.065l-1.787-.211a49.27 49.27 0 01.644-4.02l1.764.359a46.974 46.974 0 00-.62 3.872M433.968 86.233a47.567 47.567 0 00-.771-3.846l1.748-.427c.32 1.312.589 2.655.8 3.993l-1.777.28zM264.902 82.565l-1.75-.42a48.757 48.757 0 011.113-3.918l1.709.565a47.64 47.64 0 00-1.072 3.773M432.773 80.774a48.612 48.612 0 00-1.22-3.73l1.687-.63a49.4 49.4 0 011.265 3.872l-1.732.488zM430.94 75.489a48.267 48.267 0 00-1.648-3.563l1.6-.822a50.325 50.325 0 011.713 3.697l-1.664.688zM428.5 70.454a48.222 48.222 0 00-2.057-3.344l1.495-1.004a49.935 49.935 0 012.132 3.469l-1.57.879zM425.488 65.742a48.43 48.43 0 00-2.433-3.082l1.368-1.171a50.738 50.738 0 012.522 3.196l-1.457 1.056zM421.948 61.413a48.744 48.744 0 00-2.772-2.778l1.22-1.323c.995.92 1.963 1.89 2.876 2.882l-1.324 1.22zM417.93 57.526a48.927 48.927 0 00-3.076-2.436l1.058-1.455a50.22 50.22 0 013.192 2.528l-1.174 1.363zM413.488 54.134a48.346 48.346 0 00-3.337-2.06l.88-1.57a49.768 49.768 0 013.466 2.14l-1.009 1.49zM408.685 51.283a47.28 47.28 0 00-3.554-1.654l.692-1.661a48.72 48.72 0 013.688 1.716l-.826 1.6zM403.584 49.018a47.604 47.604 0 00-3.727-1.227l.491-1.731c1.3.368 2.601.796 3.87 1.272l-.634 1.686zM299.35 47.47l-.497-1.73c1.296-.374 1.387-.326 2.716-.592l.353 1.764c-1.281.257-1.323.198-2.571.557M398.245 47.365a47.784 47.784 0 00-3.846-.78l.285-1.777c1.333.214 2.676.486 3.991.809l-.43 1.748zM303.563 46.615l-.291-1.776a49.518 49.518 0 014.04-.494l.146 1.794a48.652 48.652 0 00-3.895.476M392.75 46.35a48.368 48.368 0 00-3.91-.324l.075-1.8c1.355.06 2.72.173 4.057.339l-.223 1.786zM309.121 46.033l-.082-1.797a50.557 50.557 0 012.31-.053h1.73v1.8h-1.73c-.748 0-1.49.018-2.228.05M387.172 45.985l-3.993-.002v-1.8h4.007zM377.48 45.983h4v-1.8h-4zM371.779 45.983h4v-1.8h-4zM366.079 45.983h4v-1.8h-4zM360.379 45.983h4v-1.8h-4zM354.679 45.983h4v-1.8h-4zM348.98 45.983h4v-1.8h-4zM343.279 45.983h4v-1.8h-4zM337.579 45.983h4v-1.8h-4zM331.879 45.983h4v-1.8h-4zM326.179 45.983h4v-1.8h-4zM320.48 45.983h4v-1.8h-4zM314.779 45.983h4v-1.8h-4z"/>
    </g>
</svg>
