<svg xmlns="http://www.w3.org/2000/svg" width="811.074" height="71.779" viewBox="0 0 811.074 71.779">
    <g id="Layer_2" data-name="Layer 2">
        <g id="Layer_1-2" data-name="Layer 1">
            <g>
                <rect x="124.921" y="22.731" width="238.266" height="1.5" fill="#969696" />
                <polygon points="361.655 18.246 370.722 23.481 361.655 28.717 361.655 18.246" fill="#969696" />
            </g>
            <g>
                <rect x="459.921" y="22.731" width="239.266" height="1.5" fill="#969696" />
                <polygon points="697.655 18.246 706.722 23.481 697.655 28.717 697.655 18.246" fill="#969696" />
            </g>
            <g>
                <path d="M382.074,67.9H380.8l-1.039-2.748h-4.156L374.63,67.9h-1.278l3.76-9.8H378.3Zm-2.687-3.78-1.538-4.177a3.9,3.9,0,0,1-.15-.656h-.027a3.647,3.647,0,0,1-.157.656l-1.524,4.177Z" fill="#5b5b5b" />
                <path d="M388.247,61.224,384.1,66.946h4.1V67.9h-5.749v-.349L386.6,61.86h-3.753V60.9h5.4Z" fill="#5b5b5b" />
                <path d="M395.356,67.9h-1.121V66.8h-.027a2.3,2.3,0,0,1-2.16,1.271q-2.5,0-2.5-2.98V60.9h1.114v4.006q0,2.215,1.7,2.215a1.716,1.716,0,0,0,1.35-.6,2.317,2.317,0,0,0,.53-1.583V60.9h1.121Z" fill="#5b5b5b" />
                <path d="M401.27,62.037a1.372,1.372,0,0,0-.848-.226,1.429,1.429,0,0,0-1.2.677,3.122,3.122,0,0,0-.482,1.846V67.9h-1.121v-7h1.121v1.442h.027a2.447,2.447,0,0,1,.731-1.152,1.668,1.668,0,0,1,1.1-.413,1.841,1.841,0,0,1,.67.1Z" fill="#5b5b5b" />
                <path d="M407.928,64.683h-4.942a2.618,2.618,0,0,0,.629,1.8,2.168,2.168,0,0,0,1.654.636,3.441,3.441,0,0,0,2.174-.779V67.4a4.065,4.065,0,0,1-2.44.67,2.956,2.956,0,0,1-2.331-.954,3.9,3.9,0,0,1-.848-2.683,3.828,3.828,0,0,1,.927-2.663,2.969,2.969,0,0,1,2.3-1.028,2.632,2.632,0,0,1,2.126.889,3.707,3.707,0,0,1,.752,2.468Zm-1.148-.95a2.276,2.276,0,0,0-.469-1.511,1.6,1.6,0,0,0-1.281-.54,1.808,1.808,0,0,0-1.347.567A2.58,2.58,0,0,0,403,63.733Z" fill="#5b5b5b" />
                <path d="M413.608,67.9V58.1h2.707q5.181,0,5.182,4.778a4.814,4.814,0,0,1-1.438,3.646,5.338,5.338,0,0,1-3.853,1.378Zm1.148-8.764v7.725h1.463a4.155,4.155,0,0,0,3-1.032,3.872,3.872,0,0,0,1.073-2.926q0-3.768-4.006-3.767Z" fill="#5b5b5b" />
                <path d="M422.967,67.506V66.153a2.625,2.625,0,0,0,.557.369,4.466,4.466,0,0,0,.684.276,5.349,5.349,0,0,0,.722.175,4.018,4.018,0,0,0,.67.062,2.631,2.631,0,0,0,1.583-.393,1.333,1.333,0,0,0,.522-1.132,1.317,1.317,0,0,0-.175-.69,1.961,1.961,0,0,0-.481-.537,4.9,4.9,0,0,0-.728-.465q-.422-.221-.906-.468-.513-.259-.957-.526a4.1,4.1,0,0,1-.772-.588,2.472,2.472,0,0,1-.517-.729,2.484,2.484,0,0,1,.106-2.119,2.529,2.529,0,0,1,.772-.816,3.5,3.5,0,0,1,1.09-.479,4.968,4.968,0,0,1,1.248-.157,4.783,4.783,0,0,1,2.112.349v1.292a3.826,3.826,0,0,0-2.229-.6,3.643,3.643,0,0,0-.752.079,2.093,2.093,0,0,0-.67.256,1.491,1.491,0,0,0-.479.458,1.216,1.216,0,0,0-.185.684,1.4,1.4,0,0,0,.141.649,1.584,1.584,0,0,0,.413.5,4.132,4.132,0,0,0,.667.438q.393.212.905.465t1,.547a4.573,4.573,0,0,1,.827.636,2.859,2.859,0,0,1,.564.772,2.176,2.176,0,0,1,.208.971,2.462,2.462,0,0,1-.284,1.228,2.315,2.315,0,0,1-.766.816,3.357,3.357,0,0,1-1.11.455,6.122,6.122,0,0,1-1.326.14,5.326,5.326,0,0,1-.574-.038q-.341-.037-.7-.109a5.325,5.325,0,0,1-.673-.178A2.048,2.048,0,0,1,422.967,67.506Z" fill="#5b5b5b" />
                <path d="M438.149,58.1l-3.63,9.8h-1.265L429.7,58.1h1.278l2.714,7.772a4.6,4.6,0,0,1,.2.868h.027a4.217,4.217,0,0,1,.226-.882l2.769-7.759Z" fill="#5b5b5b" />
                <path d="M449.552,67.9H448.41V61.326q0-.779.1-1.907h-.027a6.085,6.085,0,0,1-.294.95l-3.35,7.533h-.561l-3.343-7.479a5.889,5.889,0,0,1-.294-1h-.027q.054.589.055,1.921V67.9h-1.107V58.1h1.518l3.008,6.836a8.77,8.77,0,0,1,.451,1.176h.041c.2-.538.353-.938.472-1.2l3.069-6.809h1.436Z" fill="#5b5b5b" />
            </g>
            <g>
                <path d="M572.794,13.506V12.153a2.633,2.633,0,0,0,.558.369,4.349,4.349,0,0,0,.684.276,5.231,5.231,0,0,0,.721.175,4.018,4.018,0,0,0,.67.062,2.624,2.624,0,0,0,1.582-.393,1.476,1.476,0,0,0,.35-1.822,2,2,0,0,0-.482-.537,4.815,4.815,0,0,0-.729-.465c-.279-.147-.582-.3-.905-.468q-.513-.259-.957-.526a4.13,4.13,0,0,1-.772-.588A2.451,2.451,0,0,1,573,7.507a2.237,2.237,0,0,1-.188-.953,2.241,2.241,0,0,1,.294-1.166,2.519,2.519,0,0,1,.772-.816,3.5,3.5,0,0,1,1.091-.479,4.955,4.955,0,0,1,1.247-.157,4.783,4.783,0,0,1,2.112.349V5.576a3.829,3.829,0,0,0-2.229-.6,3.636,3.636,0,0,0-.752.079,2.084,2.084,0,0,0-.67.256,1.491,1.491,0,0,0-.479.458,1.216,1.216,0,0,0-.185.684,1.413,1.413,0,0,0,.14.649,1.6,1.6,0,0,0,.414.5,4.121,4.121,0,0,0,.666.438q.394.212.906.465t1,.547a4.573,4.573,0,0,1,.827.636,2.815,2.815,0,0,1,.563.772,2.163,2.163,0,0,1,.209.971,2.472,2.472,0,0,1-.283,1.228,2.341,2.341,0,0,1-.766.816,3.379,3.379,0,0,1-1.111.455,6.129,6.129,0,0,1-1.326.14,5.326,5.326,0,0,1-.574-.038q-.343-.037-.7-.109a5.43,5.43,0,0,1-.674-.178A2.09,2.09,0,0,1,572.794,13.506Z" fill="#5b5b5b" />
                <path d="M585.311,13.581a3.637,3.637,0,0,1-1.914.485,3.17,3.17,0,0,1-2.416-.974,3.533,3.533,0,0,1-.92-2.526,3.877,3.877,0,0,1,.991-2.778,3.465,3.465,0,0,1,2.646-1.05,3.688,3.688,0,0,1,1.627.342V8.229a2.854,2.854,0,0,0-1.668-.547,2.254,2.254,0,0,0-1.76.769,2.917,2.917,0,0,0-.687,2.021,2.774,2.774,0,0,0,.646,1.941,2.225,2.225,0,0,0,1.732.711,2.807,2.807,0,0,0,1.723-.608Z" fill="#5b5b5b" />
                <path d="M589.932,14.067a3.247,3.247,0,0,1-2.479-.981,3.632,3.632,0,0,1-.926-2.6,3.784,3.784,0,0,1,.964-2.755,3.468,3.468,0,0,1,2.6-.991,3.138,3.138,0,0,1,2.443.964,3.82,3.82,0,0,1,.879,2.673,3.757,3.757,0,0,1-.947,2.683A3.314,3.314,0,0,1,589.932,14.067Zm.082-6.385a2.13,2.13,0,0,0-1.709.735,3.012,3.012,0,0,0-.629,2.026,2.855,2.855,0,0,0,.636,1.962,2.161,2.161,0,0,0,1.7.718,2.054,2.054,0,0,0,1.672-.7,3.059,3.059,0,0,0,.584-2,3.113,3.113,0,0,0-.584-2.023A2.044,2.044,0,0,0,590.014,7.682Z" fill="#5b5b5b" />
                <path d="M598.859,8.037a1.372,1.372,0,0,0-.848-.226,1.429,1.429,0,0,0-1.2.677,3.122,3.122,0,0,0-.482,1.846V13.9h-1.121v-7h1.121V8.345h.027a2.447,2.447,0,0,1,.731-1.152,1.668,1.668,0,0,1,1.1-.413,1.841,1.841,0,0,1,.67.1Z" fill="#5b5b5b" />
                <path d="M605.518,10.683h-4.942a2.618,2.618,0,0,0,.629,1.8,2.168,2.168,0,0,0,1.654.636,3.441,3.441,0,0,0,2.174-.779V13.4a4.065,4.065,0,0,1-2.44.67,2.956,2.956,0,0,1-2.331-.954,3.9,3.9,0,0,1-.848-2.683,3.828,3.828,0,0,1,.927-2.663,2.969,2.969,0,0,1,2.3-1.028,2.632,2.632,0,0,1,2.126.889,3.707,3.707,0,0,1,.752,2.468Zm-1.148-.95a2.276,2.276,0,0,0-.469-1.511,1.6,1.6,0,0,0-1.281-.54,1.808,1.808,0,0,0-1.347.567,2.58,2.58,0,0,0-.684,1.483Z" fill="#5b5b5b" />
            </g>
            <g>
                <path d="M152.753,13.9V4.1h2.707q5.181,0,5.182,4.778a4.814,4.814,0,0,1-1.438,3.646,5.338,5.338,0,0,1-3.853,1.378ZM153.9,5.139v7.725h1.463a4.155,4.155,0,0,0,3-1.032,3.872,3.872,0,0,0,1.073-2.926q0-3.768-4.006-3.767Z" fill="#5b5b5b" />
                <path d="M168.045,10.683H163.1a2.618,2.618,0,0,0,.629,1.8,2.168,2.168,0,0,0,1.654.636,3.441,3.441,0,0,0,2.174-.779V13.4a4.065,4.065,0,0,1-2.44.67,2.956,2.956,0,0,1-2.331-.954,3.9,3.9,0,0,1-.848-2.683,3.828,3.828,0,0,1,.927-2.663,2.969,2.969,0,0,1,2.3-1.028,2.632,2.632,0,0,1,2.126.889,3.707,3.707,0,0,1,.752,2.468Zm-1.148-.95a2.276,2.276,0,0,0-.469-1.511,1.6,1.6,0,0,0-1.281-.54,1.808,1.808,0,0,0-1.347.567,2.58,2.58,0,0,0-.684,1.483Z" fill="#5b5b5b" />
                <path d="M175.243,6.9l-2.789,7h-1.1l-2.652-7h1.23l1.777,5.086a4.618,4.618,0,0,1,.246.978h.027a4.545,4.545,0,0,1,.219-.95L174.061,6.9Z" fill="#5b5b5b" />
                <path d="M181.99,10.683h-4.942a2.618,2.618,0,0,0,.629,1.8,2.168,2.168,0,0,0,1.654.636,3.441,3.441,0,0,0,2.174-.779V13.4a4.065,4.065,0,0,1-2.44.67,2.956,2.956,0,0,1-2.331-.954,3.9,3.9,0,0,1-.848-2.683,3.828,3.828,0,0,1,.927-2.663,2.969,2.969,0,0,1,2.3-1.028,2.632,2.632,0,0,1,2.126.889,3.707,3.707,0,0,1,.752,2.468Zm-1.148-.95a2.276,2.276,0,0,0-.469-1.511,1.6,1.6,0,0,0-1.281-.54,1.808,1.808,0,0,0-1.347.567,2.58,2.58,0,0,0-.684,1.483Z" fill="#5b5b5b" />
                <path d="M184.807,13.9h-1.121V3.539h1.121Z" fill="#5b5b5b" />
                <path d="M190,14.067a3.247,3.247,0,0,1-2.479-.981,3.632,3.632,0,0,1-.926-2.6,3.784,3.784,0,0,1,.964-2.755,3.468,3.468,0,0,1,2.6-.991,3.138,3.138,0,0,1,2.443.964,3.82,3.82,0,0,1,.879,2.673,3.757,3.757,0,0,1-.947,2.683A3.314,3.314,0,0,1,190,14.067Zm.082-6.385a2.13,2.13,0,0,0-1.709.735,3.012,3.012,0,0,0-.629,2.026,2.855,2.855,0,0,0,.636,1.962,2.161,2.161,0,0,0,1.7.718,2.054,2.054,0,0,0,1.672-.7,3.059,3.059,0,0,0,.584-2,3.113,3.113,0,0,0-.584-2.023A2.044,2.044,0,0,0,190.084,7.682Z" fill="#5b5b5b" />
                <path d="M196.428,12.891H196.4v4.231h-1.121V6.9H196.4v1.23h.027a2.65,2.65,0,0,1,2.42-1.395,2.563,2.563,0,0,1,2.112.94,3.89,3.89,0,0,1,.759,2.519,4.344,4.344,0,0,1-.854,2.813,2.847,2.847,0,0,1-2.338,1.056A2.341,2.341,0,0,1,196.428,12.891Zm-.027-2.823v.978a2.08,2.08,0,0,0,.564,1.474,2.011,2.011,0,0,0,3.027-.175,3.569,3.569,0,0,0,.578-2.167,2.819,2.819,0,0,0-.54-1.832,1.789,1.789,0,0,0-1.463-.663A1.985,1.985,0,0,0,197,8.363,2.5,2.5,0,0,0,196.4,10.068Z" fill="#5b5b5b" />
                <path d="M212.355,13.9h-1.121V12.809h-.027a2.347,2.347,0,0,1-2.153,1.258,2.3,2.3,0,0,1-1.638-.554,1.921,1.921,0,0,1-.591-1.47q0-1.961,2.311-2.283l2.1-.294q0-1.784-1.442-1.784a3.446,3.446,0,0,0-2.283.861V7.395a4.34,4.34,0,0,1,2.379-.656q2.468,0,2.468,2.611Zm-1.121-3.541-1.688.232a2.761,2.761,0,0,0-1.176.386,1.115,1.115,0,0,0-.4.981,1.066,1.066,0,0,0,.366.837,1.41,1.41,0,0,0,.974.325,1.8,1.8,0,0,0,1.378-.585,2.09,2.09,0,0,0,.543-1.479Z" fill="#5b5b5b" />
                <path d="M220.278,13.9h-1.121V9.91q0-2.228-1.627-2.229a1.768,1.768,0,0,0-1.392.632,2.348,2.348,0,0,0-.55,1.6V13.9h-1.121v-7h1.121V8.065h.027a2.526,2.526,0,0,1,2.3-1.326,2.143,2.143,0,0,1,1.757.741,3.308,3.308,0,0,1,.608,2.144Z" fill="#5b5b5b" />
                <path d="M228.365,13.9h-1.121V12.713h-.027a2.589,2.589,0,0,1-2.406,1.354,2.616,2.616,0,0,1-2.109-.94,3.859,3.859,0,0,1-.789-2.56,4.192,4.192,0,0,1,.875-2.782,2.885,2.885,0,0,1,2.331-1.046,2.243,2.243,0,0,1,2.1,1.135h.027V3.539h1.121Zm-1.121-3.165V9.705a2,2,0,0,0-.561-1.436,1.882,1.882,0,0,0-1.422-.588,1.936,1.936,0,0,0-1.613.752,3.291,3.291,0,0,0-.588,2.078,2.961,2.961,0,0,0,.564,1.911,1.841,1.841,0,0,0,1.514.7,1.918,1.918,0,0,0,1.521-.677A2.527,2.527,0,0,0,227.244,10.738Z" fill="#5b5b5b" />
                <path d="M234.62,13.9V4.1h2.707q5.181,0,5.182,4.778a4.814,4.814,0,0,1-1.438,3.646,5.338,5.338,0,0,1-3.853,1.378Zm1.148-8.764v7.725h1.463a4.155,4.155,0,0,0,3-1.032,3.872,3.872,0,0,0,1.073-2.926q0-3.768-4.006-3.767Z" fill="#5b5b5b" />
                <path d="M249.912,10.683H244.97a2.618,2.618,0,0,0,.629,1.8,2.168,2.168,0,0,0,1.654.636,3.441,3.441,0,0,0,2.174-.779V13.4a4.065,4.065,0,0,1-2.44.67,2.956,2.956,0,0,1-2.331-.954,3.9,3.9,0,0,1-.848-2.683,3.828,3.828,0,0,1,.927-2.663,2.969,2.969,0,0,1,2.3-1.028,2.632,2.632,0,0,1,2.126.889,3.707,3.707,0,0,1,.752,2.468Zm-1.148-.95a2.276,2.276,0,0,0-.469-1.511,1.6,1.6,0,0,0-1.281-.54,1.808,1.808,0,0,0-1.347.567,2.58,2.58,0,0,0-.684,1.483Z" fill="#5b5b5b" />
                <path d="M252.756,12.891h-.027v4.231h-1.121V6.9h1.121v1.23h.027a2.65,2.65,0,0,1,2.42-1.395,2.563,2.563,0,0,1,2.112.94,3.89,3.89,0,0,1,.759,2.519,4.344,4.344,0,0,1-.854,2.813,2.847,2.847,0,0,1-2.338,1.056A2.341,2.341,0,0,1,252.756,12.891Zm-.027-2.823v.978a2.08,2.08,0,0,0,.564,1.474,2.011,2.011,0,0,0,3.027-.175,3.569,3.569,0,0,0,.578-2.167,2.819,2.819,0,0,0-.54-1.832,1.789,1.789,0,0,0-1.463-.663,1.985,1.985,0,0,0-1.572.681A2.5,2.5,0,0,0,252.729,10.068Z" fill="#5b5b5b" />
                <path d="M260.959,13.9h-1.121V3.539h1.121Z" fill="#5b5b5b" />
                <path d="M266.154,14.067a3.247,3.247,0,0,1-2.479-.981,3.632,3.632,0,0,1-.926-2.6,3.784,3.784,0,0,1,.964-2.755,3.468,3.468,0,0,1,2.6-.991,3.138,3.138,0,0,1,2.443.964,3.82,3.82,0,0,1,.879,2.673,3.757,3.757,0,0,1-.947,2.683A3.314,3.314,0,0,1,266.154,14.067Zm.082-6.385a2.13,2.13,0,0,0-1.709.735,3.012,3.012,0,0,0-.629,2.026,2.855,2.855,0,0,0,.636,1.962,2.161,2.161,0,0,0,1.7.718,2.054,2.054,0,0,0,1.672-.7,3.059,3.059,0,0,0,.584-2,3.113,3.113,0,0,0-.584-2.023A2.044,2.044,0,0,0,266.236,7.682Z" fill="#5b5b5b" />
                <path d="M277,6.9l-3.22,8.121q-.861,2.174-2.42,2.174a2.589,2.589,0,0,1-.731-.089v-1a2.073,2.073,0,0,0,.663.123,1.375,1.375,0,0,0,1.271-1.012l.561-1.326L270.393,6.9h1.244l1.894,5.387q.034.1.144.533h.041q.034-.164.137-.52l1.989-5.4Z" fill="#5b5b5b" />
                <path d="M292.186,13.9h-1.142V7.326q0-.779.1-1.907h-.027a6.194,6.194,0,0,1-.294.95l-3.35,7.533h-.561l-3.343-7.479a5.8,5.8,0,0,1-.294-1h-.027q.054.589.055,1.921V13.9h-1.107V4.1h1.518l3.008,6.836a8.77,8.77,0,0,1,.451,1.176h.041c.2-.538.354-.938.472-1.2L290.75,4.1h1.436Z" fill="#5b5b5b" />
                <path d="M297.538,14.067a3.245,3.245,0,0,1-2.478-.981,3.629,3.629,0,0,1-.927-2.6A3.784,3.784,0,0,1,295.1,7.73a3.468,3.468,0,0,1,2.6-.991,3.141,3.141,0,0,1,2.444.964,3.824,3.824,0,0,1,.878,2.673,3.761,3.761,0,0,1-.946,2.683A3.318,3.318,0,0,1,297.538,14.067Zm.082-6.385a2.132,2.132,0,0,0-1.709.735,3.017,3.017,0,0,0-.629,2.026,2.855,2.855,0,0,0,.636,1.962,2.161,2.161,0,0,0,1.7.718,2.049,2.049,0,0,0,1.671-.7,3.048,3.048,0,0,0,.585-2,3.1,3.1,0,0,0-.585-2.023A2.039,2.039,0,0,0,297.62,7.682Z" fill="#5b5b5b" />
                <path d="M308.79,13.9h-1.121V12.713h-.027a2.824,2.824,0,0,1-4.515.413,3.848,3.848,0,0,1-.79-2.56,4.2,4.2,0,0,1,.875-2.782,2.885,2.885,0,0,1,2.331-1.046,2.244,2.244,0,0,1,2.1,1.135h.027V3.539h1.121Zm-1.121-3.165V9.705a2,2,0,0,0-.561-1.436,1.882,1.882,0,0,0-1.422-.588,1.936,1.936,0,0,0-1.613.752,3.3,3.3,0,0,0-.588,2.078,2.972,2.972,0,0,0,.563,1.911,1.846,1.846,0,0,0,1.515.7,1.913,1.913,0,0,0,1.521-.677A2.518,2.518,0,0,0,307.669,10.738Z" fill="#5b5b5b" />
                <path d="M316.686,10.683h-4.942a2.618,2.618,0,0,0,.629,1.8,2.168,2.168,0,0,0,1.654.636,3.441,3.441,0,0,0,2.174-.779V13.4a4.065,4.065,0,0,1-2.44.67,2.956,2.956,0,0,1-2.331-.954,3.9,3.9,0,0,1-.848-2.683,3.828,3.828,0,0,1,.927-2.663,2.969,2.969,0,0,1,2.3-1.028,2.632,2.632,0,0,1,2.126.889,3.707,3.707,0,0,1,.752,2.468Zm-1.148-.95a2.276,2.276,0,0,0-.469-1.511,1.6,1.6,0,0,0-1.281-.54,1.808,1.808,0,0,0-1.347.567,2.58,2.58,0,0,0-.684,1.483Z" fill="#5b5b5b" />
                <path d="M319.5,13.9h-1.121V3.539H319.5Z" fill="#5b5b5b" />
                <path d="M321.348,13.65v-1.2a3.318,3.318,0,0,0,2.017.677q1.477,0,1.477-.984a.861.861,0,0,0-.126-.476,1.3,1.3,0,0,0-.342-.345,2.671,2.671,0,0,0-.506-.271c-.194-.079-.4-.162-.626-.249a8.246,8.246,0,0,1-.817-.372,2.541,2.541,0,0,1-.588-.424,1.6,1.6,0,0,1-.355-.537,1.916,1.916,0,0,1-.119-.7,1.677,1.677,0,0,1,.226-.872,1.994,1.994,0,0,1,.6-.635,2.764,2.764,0,0,1,.858-.387,3.824,3.824,0,0,1,.994-.13,4.013,4.013,0,0,1,1.627.314V8.188a3.175,3.175,0,0,0-1.777-.506,2.117,2.117,0,0,0-.567.071,1.407,1.407,0,0,0-.435.2.93.93,0,0,0-.279.312.813.813,0,0,0-.1.4.954.954,0,0,0,.1.458,1,1,0,0,0,.29.328,2.25,2.25,0,0,0,.465.26q.274.117.622.253a8.453,8.453,0,0,1,.834.366,2.831,2.831,0,0,1,.629.424,1.655,1.655,0,0,1,.4.543,1.764,1.764,0,0,1,.14.731,1.717,1.717,0,0,1-.229.9,1.958,1.958,0,0,1-.611.636,2.821,2.821,0,0,1-.882.376,4.358,4.358,0,0,1-1.046.123A3.977,3.977,0,0,1,321.348,13.65Z" fill="#5b5b5b" />
            </g>
            <g>
                <path d="M710.251,58.1l-3.63,9.8h-1.265L701.8,58.1h1.278l2.714,7.772a4.6,4.6,0,0,1,.2.868h.027a4.217,4.217,0,0,1,.226-.882l2.769-7.759Z" fill="#5b5b5b" />
                <path d="M712.083,59.125a.71.71,0,0,1-.513-.205.69.69,0,0,1-.212-.52.719.719,0,0,1,.725-.731.719.719,0,0,1,.522.209.728.728,0,0,1,0,1.035A.718.718,0,0,1,712.083,59.125Zm.547,8.777h-1.121v-7h1.121Z" fill="#5b5b5b" />
                <path d="M714.476,67.65v-1.2a3.316,3.316,0,0,0,2.017.677q1.477,0,1.477-.984a.854.854,0,0,0-.127-.476,1.258,1.258,0,0,0-.342-.345,2.584,2.584,0,0,0-.506-.271c-.193-.079-.4-.162-.625-.249a8.022,8.022,0,0,1-.816-.372,2.48,2.48,0,0,1-.588-.424,1.559,1.559,0,0,1-.355-.537,1.9,1.9,0,0,1-.12-.7,1.677,1.677,0,0,1,.226-.872,1.994,1.994,0,0,1,.6-.635,2.768,2.768,0,0,1,.857-.387,3.842,3.842,0,0,1,1-.13,4.01,4.01,0,0,1,1.627.314v1.135a3.173,3.173,0,0,0-1.777-.506,2.112,2.112,0,0,0-.567.071,1.391,1.391,0,0,0-.434.2.936.936,0,0,0-.281.312.823.823,0,0,0-.1.4.966.966,0,0,0,.1.458,1.01,1.01,0,0,0,.291.328,2.225,2.225,0,0,0,.465.26c.182.078.39.162.622.253a8.453,8.453,0,0,1,.834.366,2.808,2.808,0,0,1,.629.424,1.638,1.638,0,0,1,.4.543,1.749,1.749,0,0,1,.141.731,1.726,1.726,0,0,1-.229.9,1.971,1.971,0,0,1-.612.636,2.821,2.821,0,0,1-.882.376,4.358,4.358,0,0,1-1.046.123A3.979,3.979,0,0,1,714.476,67.65Z" fill="#5b5b5b" />
                <path d="M726.5,67.9h-1.121V66.8h-.027a2.3,2.3,0,0,1-2.16,1.271q-2.5,0-2.5-2.98V60.9H721.8v4.006q0,2.215,1.7,2.215a1.719,1.719,0,0,0,1.351-.6,2.321,2.321,0,0,0,.529-1.583V60.9H726.5Z" fill="#5b5b5b" />
                <path d="M733.773,67.9h-1.121V66.809h-.027a2.347,2.347,0,0,1-2.153,1.258,2.3,2.3,0,0,1-1.638-.554,1.921,1.921,0,0,1-.591-1.47q0-1.961,2.311-2.283l2.1-.294q0-1.784-1.442-1.784a3.446,3.446,0,0,0-2.283.861V61.395a4.34,4.34,0,0,1,2.379-.656q2.468,0,2.468,2.611Zm-1.121-3.541-1.688.232a2.761,2.761,0,0,0-1.176.386,1.115,1.115,0,0,0-.4.981,1.066,1.066,0,0,0,.366.837,1.41,1.41,0,0,0,.974.325,1.8,1.8,0,0,0,1.378-.585,2.09,2.09,0,0,0,.543-1.479Z" fill="#5b5b5b" />
                <path d="M737.007,67.9h-1.121V57.539h1.121Z" fill="#5b5b5b" />
                <path d="M739.851,59.125a.71.71,0,0,1-.513-.205.69.69,0,0,1-.212-.52.719.719,0,0,1,.725-.731.719.719,0,0,1,.522.209.728.728,0,0,1,0,1.035A.718.718,0,0,1,739.851,59.125ZM740.4,67.9h-1.121v-7H740.4Z" fill="#5b5b5b" />
                <path d="M747.548,61.224l-4.143,5.722h4.1V67.9h-5.749v-.349L745.9,61.86h-3.753V60.9h5.4Z" fill="#5b5b5b" />
                <path d="M754.623,64.683h-4.942a2.618,2.618,0,0,0,.629,1.8,2.168,2.168,0,0,0,1.654.636,3.441,3.441,0,0,0,2.174-.779V67.4a4.065,4.065,0,0,1-2.44.67,2.956,2.956,0,0,1-2.331-.954,3.9,3.9,0,0,1-.848-2.683,3.828,3.828,0,0,1,.927-2.663,2.969,2.969,0,0,1,2.3-1.028,2.632,2.632,0,0,1,2.126.889,3.707,3.707,0,0,1,.752,2.468Zm-1.148-.95a2.276,2.276,0,0,0-.469-1.511,1.6,1.6,0,0,0-1.281-.54,1.808,1.808,0,0,0-1.347.567,2.58,2.58,0,0,0-.684,1.483Z" fill="#5b5b5b" />
                <path d="M761.452,64.2V67.9H760.3V58.1H763a3.552,3.552,0,0,1,2.437.766,2.732,2.732,0,0,1,.865,2.16,2.971,2.971,0,0,1-.961,2.283,3.666,3.666,0,0,1-2.594.889Zm0-5.059v4.02h1.2a2.688,2.688,0,0,0,1.815-.544,1.924,1.924,0,0,0,.625-1.534q0-1.941-2.3-1.941Z" fill="#5b5b5b" />
                <path d="M770.4,68.067a3.247,3.247,0,0,1-2.479-.981,3.632,3.632,0,0,1-.926-2.6,3.784,3.784,0,0,1,.964-2.755,3.468,3.468,0,0,1,2.6-.991,3.138,3.138,0,0,1,2.443.964,3.82,3.82,0,0,1,.879,2.673,3.757,3.757,0,0,1-.947,2.683A3.314,3.314,0,0,1,770.4,68.067Zm.082-6.385a2.13,2.13,0,0,0-1.709.735,3.012,3.012,0,0,0-.629,2.026,2.855,2.855,0,0,0,.636,1.962,2.161,2.161,0,0,0,1.7.718,2.054,2.054,0,0,0,1.672-.7,3.059,3.059,0,0,0,.584-2,3.113,3.113,0,0,0-.584-2.023A2.044,2.044,0,0,0,770.482,61.682Z" fill="#5b5b5b" />
                <path d="M784.5,60.9l-2.1,7h-1.162l-1.442-5.011a3.223,3.223,0,0,1-.109-.649h-.027a3.066,3.066,0,0,1-.144.636L777.947,67.9h-1.121l-2.119-7h1.176l1.449,5.264a3.241,3.241,0,0,1,.1.629h.055a2.942,2.942,0,0,1,.123-.643l1.613-5.25h1.025l1.449,5.277a3.8,3.8,0,0,1,.1.629h.055a2.886,2.886,0,0,1,.116-.629l1.422-5.277Z" fill="#5b5b5b" />
                <path d="M791.353,64.683H786.41a2.614,2.614,0,0,0,.629,1.8,2.167,2.167,0,0,0,1.654.636,3.441,3.441,0,0,0,2.174-.779V67.4a4.065,4.065,0,0,1-2.44.67,2.954,2.954,0,0,1-2.331-.954,3.9,3.9,0,0,1-.848-2.683,3.832,3.832,0,0,1,.926-2.663,2.973,2.973,0,0,1,2.3-1.028,2.63,2.63,0,0,1,2.126.889,3.707,3.707,0,0,1,.752,2.468Zm-1.148-.95a2.286,2.286,0,0,0-.468-1.511,1.6,1.6,0,0,0-1.282-.54,1.809,1.809,0,0,0-1.347.567,2.574,2.574,0,0,0-.684,1.483Z" fill="#5b5b5b" />
                <path d="M796.7,62.037a1.372,1.372,0,0,0-.848-.226,1.433,1.433,0,0,0-1.2.677,3.136,3.136,0,0,0-.481,1.846V67.9h-1.121v-7h1.121v1.442h.027a2.447,2.447,0,0,1,.731-1.152,1.67,1.67,0,0,1,1.1-.413,1.837,1.837,0,0,1,.67.1Z" fill="#5b5b5b" />
                <path d="M801.9,67.9V58.1h2.789a3.053,3.053,0,0,1,2.017.622,2.009,2.009,0,0,1,.745,1.62A2.385,2.385,0,0,1,807,61.791a2.432,2.432,0,0,1-1.244.875v.027a2.493,2.493,0,0,1,1.586.749,2.3,2.3,0,0,1,.595,1.644,2.562,2.562,0,0,1-.9,2.037,3.358,3.358,0,0,1-2.276.779Zm1.148-8.764V62.3h1.176a2.23,2.23,0,0,0,1.483-.455,1.581,1.581,0,0,0,.54-1.281q0-1.43-1.88-1.429Zm0,4.2v3.527h1.559a2.333,2.333,0,0,0,1.568-.479,1.638,1.638,0,0,0,.558-1.312q0-1.736-2.365-1.736Z" fill="#5b5b5b" />
                <path d="M811.074,67.9h-1.148V58.1h1.148Z" fill="#5b5b5b" />
            </g>
            <path d="M777.6,35.017h-1.09v-2.18h1.09a4.2,4.2,0,0,0,4.195-4.195V6.375a4.2,4.2,0,0,0-4.195-4.2H736.3a4.2,4.2,0,0,0-4.195,4.2V28.644a4.2,4.2,0,0,0,4.195,4.195h1.09v2.18H736.3a6.382,6.382,0,0,1-6.374-6.375V6.375A6.382,6.382,0,0,1,736.3,0h41.3a6.382,6.382,0,0,1,6.375,6.375V28.644a6.382,6.382,0,0,1-6.375,6.375" />
            <path d="M743,27.719h0a2.958,2.958,0,0,1,2.958,2.958V37.5a2.958,2.958,0,0,1-2.958,2.958h0a2.958,2.958,0,0,1-2.959-2.957h0V30.678a2.958,2.958,0,0,1,2.958-2.958Z" />
            <path d="M752.3,40.457A2.959,2.959,0,0,1,749.34,37.5V19.99a2.959,2.959,0,0,1,5.917,0V37.5a2.959,2.959,0,0,1-2.958,2.959" />
            <path d="M770.906,40.371a2.959,2.959,0,0,1-2.959-2.958v-24.8a2.959,2.959,0,1,1,5.917,0h0v24.8a2.959,2.959,0,0,1-2.958,2.959" />
            <path d="M761.6,40.457a2.959,2.959,0,0,1-2.959-2.958V24.492a2.959,2.959,0,1,1,5.917,0V37.5a2.959,2.959,0,0,1-2.958,2.959" />
            <g>
                <path d="M74.765,33.889H63.858c1.311,4.627-.45,5.291-8.163,5.291V41.6H81.922V39.18c-7.713,0-8.469-.661-7.157-5.291" fill="#7a7a7a" />
                <path d="M86.441,4.579H50.932a2.269,2.269,0,0,0-2.18,2.284V31.626a2.256,2.256,0,0,0,2.18,2.265h35.51a2.479,2.479,0,0,0,2.424-2.265V6.863a2.488,2.488,0,0,0-2.424-2.284" fill="#a0a1a2" />
                <g opacity="0.2" style="isolation: isolate">
                    <path d="M86.466,4.582l-.025,0H50.931a2.268,2.268,0,0,0-2.18,2.284V31.626a2.256,2.256,0,0,0,2.18,2.266h.845Z" fill="#fff" />
                </g>
                <polygon points="85.734 7.667 85.734 30.804 51.792 30.804 51.792 7.667 85.734 7.667" fill="#59b4d9" />
                <polygon points="51.792 30.804 51.838 30.804 51.838 7.667 82.87 7.621 82.871 7.621 51.792 7.667 51.792 30.804" fill="#59b4d9" />
                <rect x="55.695" y="39.179" width="26.227" height="2.424" fill="#a0a1a2" />
                <path d="M69.223,6.26a.569.569,0,1,1-.57-.57.57.57,0,0,1,.57.57" fill="#b8d432" />
                <path d="M69.246,18.534a.223.223,0,0,1-.108-.03l-7.063-4.077a.217.217,0,0,1-.106-.185.214.214,0,0,1,.106-.185L69.1,10.006a.215.215,0,0,1,.211,0l7.065,4.079a.215.215,0,0,1,0,.369L69.354,18.5a.216.216,0,0,1-.108.03" fill="#fff" />
                <g opacity="0.7" style="isolation: isolate">
                    <path d="M68.231,28.443a.2.2,0,0,1-.108-.029L61.081,24.35a.209.209,0,0,1-.109-.185V16.009a.217.217,0,0,1,.324-.185l7.041,4.063a.224.224,0,0,1,.1.187v8.156a.218.218,0,0,1-.1.185.225.225,0,0,1-.107.029" fill="#fff" />
                </g>
                <g opacity="0.4" style="isolation: isolate">
                    <path d="M70.225,28.443a.23.23,0,0,1-.111-.029.217.217,0,0,1-.1-.185v-8.1a.221.221,0,0,1,.1-.185l7.041-4.063a.209.209,0,0,1,.212,0,.211.211,0,0,1,.108.185v8.1a.21.21,0,0,1-.108.185l-7.039,4.064a.19.19,0,0,1-.1.029" fill="#fff" />
                </g>
            </g>
            <g>
                <path d="M419.9,33.889H408.989c1.311,4.627-.45,5.291-8.163,5.291V41.6h26.227V39.18c-7.713,0-8.469-.661-7.157-5.291" fill="#7a7a7a" />
                <path d="M431.573,4.579h-35.51a2.269,2.269,0,0,0-2.18,2.284V31.626a2.256,2.256,0,0,0,2.18,2.265h35.51A2.479,2.479,0,0,0,434,31.626V6.863a2.488,2.488,0,0,0-2.424-2.284" fill="#a0a1a2" />
                <g opacity="0.2" style="isolation: isolate">
                    <path d="M431.6,4.582l-.025,0h-35.51a2.268,2.268,0,0,0-2.18,2.284V31.626a2.256,2.256,0,0,0,2.18,2.266h.845Z" fill="#fff" />
                </g>
                <polygon points="430.865 7.667 430.865 30.804 396.924 30.804 396.924 7.667 430.865 7.667" fill="#59b4d9" />
                <polygon points="396.924 30.804 396.97 30.804 396.97 7.667 428.001 7.621 428.003 7.621 396.924 7.667 396.924 30.804" fill="#59b4d9" />
                <rect x="400.827" y="39.179" width="26.227" height="2.424" fill="#a0a1a2" />
                <path d="M414.355,6.26a.569.569,0,1,1-.57-.57.57.57,0,0,1,.57.57" fill="#b8d432" />
                <path d="M414.377,18.534a.223.223,0,0,1-.108-.03l-7.063-4.077a.217.217,0,0,1-.106-.185.214.214,0,0,1,.106-.185l7.021-4.051a.215.215,0,0,1,.211,0l7.065,4.079a.215.215,0,0,1,0,.369l-7.018,4.05a.216.216,0,0,1-.108.03" fill="#fff" />
                <g opacity="0.7" style="isolation: isolate">
                    <path d="M413.363,28.443a.2.2,0,0,1-.108-.029l-7.042-4.064a.209.209,0,0,1-.109-.185V16.009a.217.217,0,0,1,.324-.185l7.041,4.063a.224.224,0,0,1,.1.187v8.156a.218.218,0,0,1-.1.185.225.225,0,0,1-.107.029" fill="#fff" />
                </g>
                <g opacity="0.4" style="isolation: isolate">
                    <path d="M415.356,28.443a.23.23,0,0,1-.111-.029.217.217,0,0,1-.1-.185v-8.1a.221.221,0,0,1,.1-.185l7.041-4.063a.209.209,0,0,1,.212,0,.211.211,0,0,1,.108.185v8.1a.21.21,0,0,1-.108.185l-7.039,4.064a.19.19,0,0,1-.1.029" fill="#fff" />
                </g>
            </g>
            <g>
                <path d="M7.027,68.484H5.66L4.02,65.736a5.973,5.973,0,0,0-.437-.652,2.485,2.485,0,0,0-.434-.441,1.539,1.539,0,0,0-.479-.25,2,2,0,0,0-.578-.078H1.148v4.17H0v-9.8H2.926a4.188,4.188,0,0,1,1.186.16,2.643,2.643,0,0,1,.943.489,2.261,2.261,0,0,1,.626.817,2.98,2.98,0,0,1,.071,2.084,2.432,2.432,0,0,1-.437.763,2.639,2.639,0,0,1-.684.571,3.492,3.492,0,0,1-.9.365v.027a2.038,2.038,0,0,1,.428.25,2.326,2.326,0,0,1,.345.331,4.453,4.453,0,0,1,.325.435c.106.161.227.35.358.563ZM1.148,59.72v3.555H2.707a2.36,2.36,0,0,0,.8-.13,1.862,1.862,0,0,0,.632-.372,1.7,1.7,0,0,0,.417-.6,2,2,0,0,0,.15-.789,1.535,1.535,0,0,0-.51-1.227,2.18,2.18,0,0,0-1.473-.441Z" fill="#5b5b5b" />
                <path d="M13.357,68.484H12.209v-9.8h1.148Z" fill="#5b5b5b" />
                <path d="M15.935,68.484v-9.8h2.707q5.181,0,5.182,4.778a4.819,4.819,0,0,1-1.438,3.647,5.342,5.342,0,0,1-3.853,1.377Zm1.148-8.764v7.725h1.463a4.151,4.151,0,0,0,3-1.032,3.872,3.872,0,0,0,1.073-2.926q0-3.766-4.006-3.767Z" fill="#5b5b5b" />
                <path d="M30.946,68.484h-5.2v-9.8h4.977V59.72H26.9v3.261H30.44v1.032H26.9v3.432h4.047Z" fill="#5b5b5b" />
                <path d="M39.443,68.648a3.25,3.25,0,0,1-2.479-.98,3.636,3.636,0,0,1-.926-2.6A3.786,3.786,0,0,1,37,62.311a3.464,3.464,0,0,1,2.6-.991,3.138,3.138,0,0,1,2.443.964,3.822,3.822,0,0,1,.879,2.673,3.759,3.759,0,0,1-.947,2.684A3.317,3.317,0,0,1,39.443,68.648Zm.082-6.385A2.133,2.133,0,0,0,37.816,63a3.017,3.017,0,0,0-.629,2.027,2.853,2.853,0,0,0,.636,1.962,2.161,2.161,0,0,0,1.7.718A2.051,2.051,0,0,0,41.2,67a3.063,3.063,0,0,0,.584-2,3.115,3.115,0,0,0-.584-2.023A2.041,2.041,0,0,0,39.525,62.263Z" fill="#5b5b5b" />
                <path d="M50.531,68.484H49.41V64.491q0-2.229-1.627-2.229a1.762,1.762,0,0,0-1.391.633,2.34,2.34,0,0,0-.551,1.6v3.992H44.721v-7h1.121v1.162h.027a2.525,2.525,0,0,1,2.3-1.326,2.14,2.14,0,0,1,1.757.742,3.3,3.3,0,0,1,.608,2.143Z" fill="#5b5b5b" />
                <path d="M56.629,68.484v-9.8h2.707q5.181,0,5.182,4.778a4.816,4.816,0,0,1-1.439,3.647,5.338,5.338,0,0,1-3.852,1.377Zm1.148-8.764v7.725H59.24a4.151,4.151,0,0,0,3-1.032,3.868,3.868,0,0,0,1.073-2.926q0-3.766-4.006-3.767Z" fill="#5b5b5b" />
                <path d="M71.921,65.264H66.979a2.614,2.614,0,0,0,.629,1.8,2.167,2.167,0,0,0,1.654.636,3.441,3.441,0,0,0,2.174-.779v1.053a4.058,4.058,0,0,1-2.44.67,2.96,2.96,0,0,1-2.331-.953,3.906,3.906,0,0,1-.848-2.684,3.826,3.826,0,0,1,.926-2.662,2.97,2.97,0,0,1,2.3-1.029,2.633,2.633,0,0,1,2.126.889,3.706,3.706,0,0,1,.752,2.468Zm-1.148-.95A2.29,2.29,0,0,0,70.3,62.8a1.6,1.6,0,0,0-1.282-.54,1.813,1.813,0,0,0-1.347.567,2.568,2.568,0,0,0-.684,1.483Z" fill="#5b5b5b" />
                <path d="M74.765,67.472h-.027V71.7H73.616V61.484h1.121v1.23h.027a2.652,2.652,0,0,1,2.42-1.395,2.565,2.565,0,0,1,2.112.939,3.9,3.9,0,0,1,.759,2.52,4.336,4.336,0,0,1-.854,2.813,2.844,2.844,0,0,1-2.338,1.057A2.343,2.343,0,0,1,74.765,67.472Zm-.027-2.823v.978A2.083,2.083,0,0,0,75.3,67.1a2.012,2.012,0,0,0,3.029-.174,3.578,3.578,0,0,0,.577-2.167,2.827,2.827,0,0,0-.54-1.832,1.787,1.787,0,0,0-1.463-.663,1.986,1.986,0,0,0-1.572.68A2.5,2.5,0,0,0,74.737,64.649Z" fill="#5b5b5b" />
                <path d="M82.968,68.484H81.847V58.12h1.121Z" fill="#5b5b5b" />
                <path d="M88.163,68.648a3.248,3.248,0,0,1-2.478-.98,3.633,3.633,0,0,1-.927-2.6,3.786,3.786,0,0,1,.964-2.755,3.464,3.464,0,0,1,2.6-.991,3.141,3.141,0,0,1,2.444.964,3.826,3.826,0,0,1,.878,2.673A3.763,3.763,0,0,1,90.7,67.64,3.321,3.321,0,0,1,88.163,68.648Zm.082-6.385A2.134,2.134,0,0,0,86.536,63a3.022,3.022,0,0,0-.629,2.027,2.853,2.853,0,0,0,.636,1.962,2.161,2.161,0,0,0,1.7.718,2.046,2.046,0,0,0,1.671-.7,3.052,3.052,0,0,0,.585-2,3.1,3.1,0,0,0-.585-2.023A2.036,2.036,0,0,0,88.245,62.263Z" fill="#5b5b5b" />
                <path d="M99.012,61.484,95.792,69.6q-.861,2.174-2.42,2.174a2.549,2.549,0,0,1-.731-.089v-1a2.078,2.078,0,0,0,.663.123A1.374,1.374,0,0,0,94.575,69.8l.561-1.326L92.4,61.484h1.244l1.894,5.387q.034.1.144.533h.041c.022-.109.068-.283.137-.52l1.989-5.4Z" fill="#5b5b5b" />
                <path d="M105.772,65.264H100.83a2.614,2.614,0,0,0,.629,1.8,2.167,2.167,0,0,0,1.654.636,3.441,3.441,0,0,0,2.174-.779v1.053a4.058,4.058,0,0,1-2.44.67,2.96,2.96,0,0,1-2.331-.953,3.906,3.906,0,0,1-.848-2.684,3.826,3.826,0,0,1,.926-2.662,2.97,2.97,0,0,1,2.3-1.029,2.633,2.633,0,0,1,2.126.889,3.706,3.706,0,0,1,.752,2.468Zm-1.148-.95a2.29,2.29,0,0,0-.468-1.511,1.6,1.6,0,0,0-1.282-.54,1.813,1.813,0,0,0-1.347.567,2.568,2.568,0,0,0-.684,1.483Z" fill="#5b5b5b" />
                <path d="M113.442,68.484h-1.121V67.294h-.027a2.824,2.824,0,0,1-4.515.414,3.853,3.853,0,0,1-.79-2.561,4.2,4.2,0,0,1,.875-2.782A2.885,2.885,0,0,1,110.2,61.32a2.246,2.246,0,0,1,2.1,1.135h.027V58.12h1.121Zm-1.121-3.165V64.286a2,2,0,0,0-.561-1.436,1.878,1.878,0,0,0-1.422-.588,1.934,1.934,0,0,0-1.613.752,3.3,3.3,0,0,0-.588,2.078A2.967,2.967,0,0,0,108.7,67a1.844,1.844,0,0,0,1.515.7,1.913,1.913,0,0,0,1.521-.677A2.516,2.516,0,0,0,112.321,65.319Z" fill="#5b5b5b" />
                <path d="M126.984,58.681l-3.63,9.8H122.09l-3.555-9.8h1.278l2.714,7.772a4.7,4.7,0,0,1,.2.868h.027a4.217,4.217,0,0,1,.226-.882l2.769-7.759Z" fill="#5b5b5b" />
                <path d="M138.387,68.484h-1.142V61.907q0-.779.1-1.907h-.027a6.158,6.158,0,0,1-.294.95l-3.35,7.533h-.561l-3.343-7.479a5.8,5.8,0,0,1-.294-1h-.027q.054.587.055,1.921v6.563h-1.107v-9.8h1.518l3.008,6.836a8.719,8.719,0,0,1,.451,1.176h.041c.2-.537.354-.939.472-1.2l3.069-6.809h1.436Z" fill="#5b5b5b" />
            </g>
        </g>
    </g>
</svg>

