<svg class="architecture-diagram" aria-labelledby="predictive-insights-with-vehicle-telematics" height="1091.3" viewbox="0 0 1091.3 772.609" width="772.609" xmlns="http://www.w3.org/2000/svg">
    <path d="M793.775 46.935l-16.534-27.471-.023-11.135h.3a3.507 3.507 0 003.562-3.447 3.506 3.506 0 00-3.58-3.432l-17.977.037a3.506 3.506 0 00-3.562 3.447 3.506 3.506 0 003.576 3.432h.3l.023 11.134-16.42 27.54c-1.8 3.02-.318 5.486 3.3 5.478l43.765-.091c3.61-.007 5.083-2.479 3.27-5.492z" fill="#59b4d9"/>
    <path fill="#b8d432" d="M756.985 35.173l-6.775 11.364 36.792-.077-6.822-11.335-23.195.048z"/>
    <path d="M767.348 38.524a3.266 3.266 0 003.318-3.211 3.091 3.091 0 00-.342-1.4l-5.972.012a3.085 3.085 0 00-.336 1.4 3.267 3.267 0 003.332 3.199z" fill="#7fba00"/>
    <ellipse cx="773.597" cy="42.217" fill="#7fba00" rx="1.631" ry="1.572" transform="rotate(-.119 775.616 42.213)"/>
    <path d="M743.439 47.04l16.42-27.54-.023-11.134h-.3a3.506 3.506 0 01-3.576-3.432 3.5 3.5 0 013.562-3.446l7.746-.016.037 17.925-8.615 33.1-11.957.025c-3.611.004-5.095-2.462-3.294-5.482z" fill="#fff" opacity=".25" style="isolation:isolate"/>
    <path d="M721.846 61.484l2.905-7.247 13.317-4.437V39.509l-1.453-.468-11.864-3.273-2.905-7.247L727.9 16.6l-7.506-7.247-1.453.7-10.9 5.377-7.741-3.04L695.455 0h-10.9l-.484 1.4-3.627 10.99-7.505 2.81-12.832-5.381-7.748 7.247.726 1.4 3.39 6.078a39.186 39.186 0 0119.125-4.673 39.8 39.8 0 0124.94 9.819 55.624 55.624 0 014.6 3.74 17.88 17.88 0 011.937 2.57c4.6 7.715 2.663 17.533-4.842 23.378a19.077 19.077 0 01-19.127 2.572c-.726-.468-1.211-.468-1.453-.7a25.156 25.156 0 01-4.116-2.805c-.484 0-.726-.468-1.453-.468a6.059 6.059 0 00-4.116 1.87l-.484.468a36.623 36.623 0 01-15.5 9.351l-2.179 4.442 7.263 7.013.484.468 1.453-.7 10.9-5.377 7.506 2.805 4.116 12.39h10.9l.484-1.4 3.874-10.988 7.506-2.805 12.832 5.377 7.263-7.715-.726-1.4z" fill="#7a7a7a"/>
    <path d="M656.959 43.249c-8.232 8.416-21.548 8.416-29.3-.468a2.077 2.077 0 00-3.39 0 2.6 2.6 0 00-.726 1.87 4.372 4.372 0 00.726 1.87c9.685 10.52 25.906 10.754 36.317.468 8.232-7.949 21.064-8.182 29.054.7 1.211 1.169 2.663 1.169 3.39 0a2.6 2.6 0 00.726-1.87 4.372 4.372 0 00-.726-1.87 24.947 24.947 0 00-36.071-.7z" fill="#48c8ef"/>
    <path d="M675.118 47.691a15.649 15.649 0 00-11.618 4.676l-.484.468-.484.468a27.787 27.787 0 01-21.064 8.416c-7.99 0-15.011-3.74-20.822-9.351-1.211-1.169-2.663-1.169-3.39 0-.242 0-.242.468-.242 1.169a3.124 3.124 0 001.211 2.1 32.479 32.479 0 0024.212 10.988c8.958.468 17.674-3.273 24.454-10.286l.484-.468.484-.468a11.172 11.172 0 017.99-3.273c2.905 0 5.569 1.4 7.99 3.74 1.211 1.169 2.663 1.169 3.39 0a2.6 2.6 0 00.721-1.87 4.372 4.372 0 00-.726-1.87 20.1 20.1 0 00-12.106-4.439z" fill="#00abec"/>
    <path d="M654.78 38.106a28.892 28.892 0 0121.064-8.65c7.748 0 15.011 3.74 20.338 9.351 1.211 1.169 2.663 1.169 3.39 0a2.6 2.6 0 00.726-1.87 4.372 4.372 0 00-.726-1.87 32.479 32.479 0 00-24.212-10.988 33.07 33.07 0 00-24.454 10.286l-.484.468-.484.468a11.172 11.172 0 01-7.99 3.273c-3.147 0-5.569-1.4-7.99-3.74-1.211-1.169-2.663-1.169-3.39 0a2.6 2.6 0 00-.726 1.87 4.372 4.372 0 00.726 1.87 15.927 15.927 0 0023 .468l.484-.468z" fill="#84d6ef"/>
    <g opacity=".2" style="isolation:isolate" fill="#f1f1f1">
        <path d="M677.3 58.211c-.484 0-.726-.468-1.453-.468a6.059 6.059 0 00-4.116 1.87l-.484.468a36.623 36.623 0 01-15.5 9.351l-2.179 4.442 3.874 3.74 19.853-19.4zM656.717 24.781a39.186 39.186 0 0119.127-4.676 39.8 39.8 0 0124.938 9.819c1.211.935 2.179 1.636 3.39 2.572l20.1-19.4-4.116-3.974-1.453.7L707.8 15.2l-7.5-2.81L695.455 0h-10.9l-.484 1.4-3.627 10.99-7.505 2.81-12.832-5.381-7.748 7.247.726 1.4z"/>
    </g>
    <text fill="#505050" font-family="SegoeUI, Segoe UI" font-size="17.174" transform="matrix(1.036 0 0 1 580.075 726.345)">
        Data Factory: Move data, <tspan x="-35.476" y="21.113">orchestrate, schedule and monitor</tspan>
    </text>
    <text fill="#505050" font-family="SegoeUI, Segoe UI" font-size="17.174" transform="matrix(1.036 0 0 1 919.507 540.865)">
        SQL Data Warehouse
    </text>
    <text fill="#505050" font-family="SegoeUI, Segoe UI" font-size="17.174" transform="matrix(1.036 0 0 1 744.965 80.401)">
        Machine Learning
    </text>
    <path d="M457.875 509.792l-26.232-43.584-.037-17.666h.472a5.46 5.46 0 10-.023-10.913l-28.521.059a5.461 5.461 0 10.023 10.914h.472l.037 17.665-26.051 43.693c-2.858 4.792-.5 8.7 5.23 8.691l69.436-.145c5.732-.013 8.07-3.934 5.194-8.714z" fill="#59b4d9"/>
    <path fill="#b8d432" d="M399.506 491.131l-10.75 18.028 58.372-.121-10.823-17.984-36.799.077z"/>
    <path d="M415.947 496.448a5.181 5.181 0 005.264-5.094 4.9 4.9 0 00-.542-2.223l-9.476.02a4.894 4.894 0 00-.533 2.225 5.183 5.183 0 005.287 5.072z" fill="#7fba00"/>
    <ellipse cx="425.86" cy="502.306" fill="#7fba00" rx="2.588" ry="2.494" transform="rotate(-.119 427.029 503.587)"/>
    <path d="M378.015 509.959l26.051-43.695-.037-17.665h-.472a5.46 5.46 0 11-.023-10.913l12.29-.026.059 28.439-13.668 52.51-18.97.04c-5.735.013-8.089-3.899-5.23-8.69z" fill="#fff" opacity=".25" style="isolation:isolate"/>
    <text fill="#505050" font-family="SegoeUI, Segoe UI" font-size="17.174" transform="matrix(1.036 0 0 1 347.742 547.534)">
        Machine Learning
    </text>
    <text fill="#505050" font-family="SegoeUI, Segoe UI" font-size="15.834" transform="matrix(1.036 0 0 1 970.979 319.421)">
        Power BI
    </text>
    <path d="M391.217 41.055a1.378 1.378 0 01-1.484 1.433H378.16a1.378 1.378 0 01-1.484-1.433v-8.309a1.378 1.378 0 011.484-1.433h11.573a1.378 1.378 0 011.484 1.433zM411.989 49.651a1.378 1.378 0 01-1.484 1.433h-11.573a1.378 1.378 0 01-1.484-1.433v-8.309a1.378 1.378 0 011.484-1.433H410.5a1.378 1.378 0 011.484 1.433zM391.217 58.247a1.378 1.378 0 01-1.484 1.433H378.16a1.378 1.378 0 01-1.484-1.433v-8.309a1.378 1.378 0 011.484-1.433h11.573a1.378 1.378 0 011.484 1.433zM370.445 32.46a1.378 1.378 0 01-1.484 1.433h-11.87a1.378 1.378 0 01-1.484-1.433v-8.6a1.378 1.378 0 011.484-1.433h11.573c1.187 0 1.78.573 1.78 1.433z" fill="#b8d432"/>
    <path d="M422.374 2.374h-83.087a1.378 1.378 0 00-1.487 1.433V21a1.378 1.378 0 001.484 1.433h8.9A1.378 1.378 0 00349.673 21v-7.165h62.316V21c0 .86.593 1.433 1.78 1.433h8.606A1.378 1.378 0 00423.858 21V3.807a1.378 1.378 0 00-1.484-1.433zM422.374 68.562h-8.606a1.378 1.378 0 00-1.484 1.433v6.877h-62.611v-7.164c0-.86-.593-1.433-1.78-1.433h-8.606c-.89 0-1.484.573-1.484 1.719V86.9a1.378 1.378 0 001.484 1.433h83.088a1.378 1.378 0 001.484-1.433V69.995a1.378 1.378 0 00-1.485-1.433z" fill="#0072c6"/>
    <path d="M370.445 49.651a1.378 1.378 0 01-1.484 1.433h-11.87a1.378 1.378 0 01-1.484-1.433v-8.6a1.378 1.378 0 011.484-1.433h11.573c1.187 0 1.78.573 1.78 1.433zM370.445 66.843a1.378 1.378 0 01-1.484 1.433h-11.87a1.378 1.378 0 01-1.484-1.433v-8.6a1.378 1.378 0 011.484-1.433h11.573c1.187 0 1.78.573 1.78 1.433z" fill="#b8d432"/>
    <text fill="#505050" font-family="SegoeUI, Segoe UI" font-size="17.174" transform="matrix(1.036 0 0 1 343.206 114.748)">
        Event Hub
    </text>
    <text fill="#505050" font-family="SegoeUI, Segoe UI" font-size="17.174" transform="matrix(1.036 0 0 1 617.288 114.748)">
        Stream Analytics
    </text>
    <text fill="#505050" font-family="SegoeUI, Segoe UI" font-size="17.174" transform="matrix(1.036 0 0 1 638.379 533.517)">
        HDInsight
    </text>
    <path fill="none" stroke="#afafaf" stroke-miterlimit="10" stroke-width="1.074" d="M678.374 565.738v36.103"/>
    <path fill="#afafaf" d="M673.018 567.305l5.356-9.277 5.357 9.277h-10.713zM673.018 600.274l5.356 9.276 5.357-9.276h-10.713z"/>
    <path fill="none" stroke="#afafaf" stroke-miterlimit="10" stroke-width="1.074" d="M503.466 478.455h81.901"/>
    <path fill="#afafaf" d="M505.034 483.812l-9.277-5.357 9.277-5.357v10.714zM583.8 483.812l9.277-5.357-9.277-5.357v10.714z"/>
    <path fill="none" stroke="#afafaf" stroke-miterlimit="10" stroke-width="1.074" d="M678.374 361.939v36.104"/>
    <path fill="#afafaf" d="M673.018 363.506l5.356-9.276 5.357 9.276h-10.713zM673.018 396.475l5.356 9.277 5.357-9.277h-10.713z"/>
    <path d="M1040.008 288.152h-1.93v-3.86h1.93a7.436 7.436 0 007.427-7.427V237.44a7.436 7.436 0 00-7.427-7.428h-73.122a7.436 7.436 0 00-7.427 7.428v39.428a7.436 7.436 0 007.427 7.427h1.93v3.86h-1.93a11.3 11.3 0 01-11.286-11.287V237.44a11.3 11.3 0 0111.287-11.287h73.121a11.3 11.3 0 0111.287 11.287v39.428a11.3 11.3 0 01-11.287 11.287"/>
    <path d="M978.74 275.23a5.237 5.237 0 015.237 5.237v12.077a5.238 5.238 0 01-5.238 5.238 5.237 5.237 0 01-5.239-5.235v-12.079a5.238 5.238 0 015.238-5.238zM995.213 297.783a5.239 5.239 0 01-5.239-5.238v-31a5.238 5.238 0 0110.477 0v31a5.239 5.239 0 01-5.238 5.239M1028.157 297.63a5.239 5.239 0 01-5.239-5.238v-43.9a5.238 5.238 0 0110.477 0v43.9a5.239 5.239 0 01-5.238 5.239M1011.685 297.783a5.239 5.239 0 01-5.239-5.238v-23.029a5.238 5.238 0 0110.477 0v23.029a5.239 5.239 0 01-5.238 5.239"/>
    <text fill="#505050" font-family="SegoeUI, Segoe UI" font-size="17.174" transform="matrix(1.036 0 0 1 613.424 314.792)">
        Geography Data<tspan x="7.887" y="22.283">(Blob Storage)</tspan>
    </text>
    <text fill="#505050" font-family="SegoeUI, Segoe UI" font-size="17.174" transform="matrix(1.036 0 0 1 20.239 318.712)">
        Vehicle Catalogue
    </text>
    <text fill="#505050" font-family="SegoeUI, Segoe UI" font-size="17.174" transform="matrix(1.036 0 0 1 19.743 114.748)">
        Diagnotic Events <tspan x="20.101" y="20.609">(Simulated)</tspan>
    </text>
    <g>
        <path d="M631.981 281.643a3.426 3.426 0 003.28 3.462h84.373a3.46 3.46 0 003.462-3.462v-60.318h-91.115z" fill="#a0a1a2"/>
        <path d="M719.634 207.293h-84.373a3.426 3.426 0 00-3.28 3.462v10.387H723.1v-10.387a3.46 3.46 0 00-3.462-3.462" fill="#7a7a7a"/>
        <path fill="#0072c6" d="M638.724 227.52h37.175v23.69h-37.175zM638.724 254.49h37.175v23.69h-37.175z"/>
        <path fill="#fff" d="M679.179 227.52h36.993v23.69h-36.993z"/>
        <path fill="#0072c6" d="M679.179 254.49h36.993v23.69h-36.993z"/>
        <path d="M635.626 207.293a3.655 3.655 0 00-3.645 3.645v70.341a3.655 3.655 0 003.645 3.645h4.009l71.8-77.63z" fill="#fff" opacity=".2" style="isolation:isolate"/>
    </g>
    <g>
        <path d="M969.374 445.846l.133 63.825c.014 6.626 14.858 11.968 33.153 11.93l-.158-75.824z" fill="#0072c6"/>
        <path d="M1002.2 521.6h.454c18.3-.038 33.116-5.439 33.1-12.067l-.133-63.825-33.582.07z" fill="#0072c6"/>
        <path d="M1002.2 521.6h.454c18.3-.038 33.116-5.439 33.1-12.067l-.133-63.825-33.582.07z" fill="#fff" opacity=".15" style="isolation:isolate"/>
        <path d="M1035.629 445.708c.014 6.626-14.808 12.028-33.1 12.067s-33.139-5.3-33.153-11.929 14.808-12.028 33.1-12.067 33.139 5.3 33.153 11.929" fill="#fff"/>
        <path d="M1028.854 445.031c.009 4.374-11.783 7.941-26.338 7.971s-26.364-3.487-26.373-7.862 11.785-7.941 26.34-7.971 26.362 3.489 26.371 7.862" fill="#7fba00"/>
        <path d="M1023.343 449.88c3.447-1.345 5.517-3.025 5.513-4.846-.009-4.374-11.816-7.894-26.373-7.863s-26.347 3.6-26.338 7.973c0 1.82 2.081 3.492 5.533 4.823 4.814-1.88 12.341-3.1 20.825-3.121s16.014 1.174 20.839 3.034" fill="#b8d432"/>
        <path d="M992.072 490.1a5.441 5.441 0 01-2.148 4.612 9.677 9.677 0 01-5.958 1.646 11.34 11.34 0 01-5.413-1.155l-.01-4.666a8.347 8.347 0 005.53 2.118 3.759 3.759 0 002.252-.588 1.825 1.825 0 00.792-1.548 2.164 2.164 0 00-.769-1.646 14.062 14.062 0 00-3.116-1.8q-4.787-2.233-4.8-6.113a5.527 5.527 0 012.076-4.517 8.507 8.507 0 015.536-1.71 13.84 13.84 0 015.076.792l.009 4.359a8.27 8.27 0 00-4.814-1.448 3.561 3.561 0 00-2.141.579 1.814 1.814 0 00-.783 1.539 2.2 2.2 0 00.638 1.625 10.259 10.259 0 002.6 1.562 12.891 12.891 0 014.184 2.805 5.241 5.241 0 011.259 3.554zM1014.556 485.333a11.928 11.928 0 01-1.664 6.4 8.95 8.95 0 01-4.715 3.815l6.076 5.6-6.122.013-4.34-4.846a10.152 10.152 0 01-5.026-1.462 9.227 9.227 0 01-3.463-3.747 11.521 11.521 0 01-1.229-5.312 12.422 12.422 0 011.306-5.8 9.372 9.372 0 013.7-3.923 10.84 10.84 0 015.48-1.381 10.086 10.086 0 015.171 1.317 9.052 9.052 0 013.55 3.768 11.935 11.935 0 011.276 5.558zm-4.955.274a8.18 8.18 0 00-1.4-5.02 4.484 4.484 0 00-3.8-1.837 4.76 4.76 0 00-3.918 1.859 9 9 0 00-.01 9.818 4.639 4.639 0 003.837 1.821 4.7 4.7 0 003.86-1.779 7.514 7.514 0 001.43-4.862zM1030.484 495.899l-12.45.026-.044-20.905 4.709-.01.036 17.086 7.741-.016.008 3.819z" fill="#fff"/>
    </g>
    <g>
        <path d="M718.029 670.406v-19.675l-22.278 19.351h-.488v-19.351l-22.278 19.351v-40.49c0-3.415-7.643-6.83-17.725-6.83s-18.375 3.252-18.375 6.83v74.15h81.305zm-62.768-37.563c-7.317 0-13.171-1.789-13.171-3.74s5.854-3.74 13.171-3.74 13.171 1.626 13.171 3.74c-.162 1.952-6.016 3.74-13.171 3.74zm38.376 57.727h-8.944v-8.944h8.944zm-15.773 0h-8.944v-8.944h8.944zm22.765 0v-8.944h8.944v8.944z" fill="#59b4d9"/>
        <path fill="#3999c6" d="M636.886 629.103h18.05v74.638h-18.05z"/>
        <path d="M672.823 629.1c0 3.577-8.131 6.5-18.05 6.5s-17.887-2.927-17.887-6.5 8.131-6.5 18.05-6.5 17.887 2.764 17.887 6.5" fill="#fff"/>
        <path d="M669.246 628.616c0 2.439-6.342 4.228-14.31 4.228s-14.31-1.789-14.31-4.228 6.342-4.228 14.31-4.228 14.31 1.951 14.31 4.228" fill="#7fba00"/>
        <path d="M666.156 631.217c1.951-.65 2.927-1.626 2.927-2.6 0-2.439-6.342-4.228-14.31-4.228s-14.31 1.951-14.31 4.228c.163.976 1.3 1.951 3.09 2.6a34.522 34.522 0 0111.383-1.626 34.158 34.158 0 0111.22 1.626" fill="#b8d432"/>
    </g>
    <g>
        <path fill="#fcd116" d="M660.999 445.434l-7.328 1.256-6.491 2.931-5.653 3.559-5.444 6.491-2.931 3.14-2.931 1.047-.837-1.884 1.465-1.885.21-2.721h1.046l.838.837-.209-2.722-1.047-.837v-1.047l-2.513 1.466-2.512 2.721-.419 2.513 1.047 2.094.837 3.349 1.885.838h2.093l1.885-1.256-1.256 6.49 1.256 7.119-1.466 3.35-4.397 4.815.628 3.141 2.304 3.35 3.978 2.722 2.303.418h2.303l-1.466 6.281 5.444 2.304 6.909.837 2.303-1.675.209-3.978 2.722-4.397.21-3.559 6.281.628 5.862-.628-5.862 3.559 1.047 4.188 3.559 5.862 3.769 1.466 2.721-1.047 1.257-2.513 6.071-4.606 1.257 1.047 9.421.419 1.885-1.675.209-2.722-.628-1.047-.419-7.328-3.14-6.281.418-2.931 1.885 1.047 5.443 5.025 2.513.209 2.931-1.256 2.931-2.094 1.466-4.816 8.375.629 5.234-2.094 4.187-3.769 2.931-5.653.838-6.7-.628-7.537-1.675-6.909-1.675-2.303-2.303-.628-3.978 4.396-3.56 1.257-3.14-5.235-3.141-2.931-1.884-1.047-6.7-5.862-5.653-2.931-5.444-.419-6.49 1.047-5.653 2.094-3.769 3.14-3.14 3.769-3.141.837-5.443 5.235z"/>
        <path fill="#1e1e1e" d="M632.734 459.671l.837 1.047.209-1.257h-.628l-.418.21z"/>
        <path d="M729.044 451.505a23.214 23.214 0 00-2.512-8.375c-.209-.209-.419-.628-.628-.837a8.646 8.646 0 00-2.3-1.466 3.106 3.106 0 00-2.722 0c-.209.209-.419.209-.628.419a11.613 11.613 0 00-1.256 1.675 14.762 14.762 0 01-1.466 1.884 8.125 8.125 0 01-2.3 1.256 8.125 8.125 0 00-1.256-2.3 19.642 19.642 0 00-1.884-2.512l-1.675-1.675-1.884-1.256a46.607 46.607 0 01-5.025-3.978c-.628-.628-1.466-1.256-2.094-1.884-3.769-3.141-7.328-4.606-11.1-4.816s-7.747.837-12.562 2.722a22.07 22.07 0 00-5.444 3.35 30.049 30.049 0 00-3.978 4.606 6.194 6.194 0 00-2.094.419 7.43 7.43 0 00-2.512 1.675 13.546 13.546 0 01-1.884 1.675l-1.675 1.675a45.868 45.868 0 00-10.887 2.722 31.367 31.367 0 00-9 5.444 15.741 15.741 0 00-3.141 3.35 34.1 34.1 0 00-2.3 3.559l-1.884 1.884a4.344 4.344 0 01-2.094 1.256 1.62 1.62 0 01-.628.209v-.209a5.369 5.369 0 001.246-3.977c.209.209.209.419.419.628s.209.419.419.628l.419-.419.628.209a8.78 8.78 0 00.209-3.35 2.877 2.877 0 00-1.047-1.675c0-.209.209-.209.209-.419a3.026 3.026 0 00.419-1.466l-.419-.209.419.209.628-.419-.837.209a13.6 13.6 0 00-5.653 3.559 9.3 9.3 0 00-1.675 2.3 4.672 4.672 0 00-.628 2.722 6.289 6.289 0 001.256 2.3 13.343 13.343 0 00.419 1.466 2.976 2.976 0 01.419 1.256 4.35 4.35 0 002.3 2.094 5.1 5.1 0 002.512 0c-.209 1.047-.209 2.094-.419 3.141a43.826 43.826 0 00.209 5.025 2.656 2.656 0 00.209 1.256c0 .419.209.837.209 1.256a2.976 2.976 0 00-.419 1.256 8.75 8.75 0 01-.837 2.094l-1.675 1.675-1.466 1.466-.419.419c-1.047 1.047-1.256 1.256-1.047 2.931a29.817 29.817 0 001.047 3.35 12.725 12.725 0 002.094 2.931 22.36 22.36 0 005.234 3.35 6.211 6.211 0 003.35.419c0 .209 0 .419-.209.419a10.208 10.208 0 00-.628 1.466c-1.256 2.931 0 4.4 2.094 5.234a20.58 20.58 0 003.35 1.047c.209 0 .419.209.837.209a31.291 31.291 0 005.862 1.256c2.3.209 4.4-.419 5.025-2.512a9.214 9.214 0 00.419-2.094v-1.884a11.211 11.211 0 011.466-2.512c0-.209.209-.209.209-.419.419-.837.837-1.256.837-1.884v-2.512a25.338 25.338 0 003.978.209h2.097c-.209 0-.419.209-.628.209a.205.205 0 00-.209.209c-1.884.837-1.884 2.722-1.256 4.4a9.958 9.958 0 002.3 4.187c1.466 2.094 2.722 3.978 4.187 4.816 1.675 1.047 3.559 1.047 6.072-.209a4.35 4.35 0 002.094-2.3c.209-.209.419-.628.628-.837a31.334 31.334 0 013.141-2.512 8.864 8.864 0 011.466-1.047 6.97 6.97 0 001.256.628 7.851 7.851 0 002.3.209h5.449c1.466 0 2.722 0 3.559-.628 1.047-.628 1.466-1.466 1.675-3.141v-1.679a2.783 2.783 0 00-.628-1.466v-4.606a10.509 10.509 0 00-.419-2.512 10.205 10.205 0 00-.837-2.3c-.209-.628-.419-1.047-.628-1.675l-.419.209.419-.209a12.807 12.807 0 00-1.047-2.512v-.628l.837.837 1.256 1.256a14.416 14.416 0 002.722 2.3 5.053 5.053 0 003.559.837 8.3 8.3 0 004.606-1.675 10.233 10.233 0 002.931-3.769c.209-.419.209-.837.419-1.256 0-.419.209-.628.209-1.047a23.974 23.974 0 006.7.209 18.567 18.567 0 006.072-1.675 15.4 15.4 0 006.072-6.072 23.666 23.666 0 002.931-9.422c-.208-2.511-.417-6.279-1.045-9.839zm-31.406 25.334c-.628 2.094-1.675 5.653 1.256 6.281a3.729 3.729 0 003.141-.628 5.9 5.9 0 01-2.722 0 1.836 1.836 0 01-1.466-1.256c.209.209.628.209 1.466.419 2.094.419 4.187-.419 4.606-2.094a21.646 21.646 0 01.628-2.512 13.343 13.343 0 001.466.419c-.209.837-.628 1.675-.837 2.722a5.92 5.92 0 01-5.862 3.978c-2.3 0-3.559-1.466-5.234-2.722-1.047-.837-2.094-1.884-3.141-2.722a23.162 23.162 0 01-7.537-3.769c1.884 2.094 3.141 3.35 5.653 4.4-.419 3.769-1.675 6.49-2.722 10.05-.419 1.675-4.4 8.165-5.653 8.794-.837.419-5.653 4.606-6.7 5.234a9.4 9.4 0 01-2.3 2.722c-3.141 1.675-5.234-1.466-6.909-4.187-.837-1.256-2.931-4.816-1.047-5.862 1.675-.837 2.722-1.675 4.606-2.722a6.362 6.362 0 001.047 1.466c0-.628-.209-1.047-.209-1.675a5.976 5.976 0 010-2.722c0-.837.209-1.884.209-2.722-.209 1.047-.837 1.884-1.047 2.931a1.887 1.887 0 00-.209 1.047 33.829 33.829 0 01-12.143.209c-.209-1.466-.628-3.141-.837-4.187v6.7a4.766 4.766 0 01-.837 3.35c-.628 1.256-1.047 1.466-2.094 3.559a18.01 18.01 0 01-.209 3.35c-.628 2.094-6.281.419-7.747 0-1.884-.419-5.653-1.256-4.816-3.769a30.368 30.368 0 001.884-7.537c-3.35-4.816-6.49-11.515-7.119-17.587-.419-4.606-.209-7.537.837-10.259 1.675-4.4 3.769-8.375 7.328-11.515 4.816-4.187 9.212-5.862 16.331-6.909-1.675 1.884-3.35 3.978-5.234 6.072a32.443 32.443 0 00-4.187 6.7c-1.675 3.35-1.675 4.606.628 7.328 1.884 2.512 2.931 3.559 3.559 6.072a13.56 13.56 0 00-1.047 4.4c2.3 2.512 3.978 4.187 6.072 4.606a8.109 8.109 0 005.862-.628c4.187-2.094 8.165-5.025 12.981-5.234 2.3-5.444 2.094-10.05.837-15.493a92.73 92.73 0 01-1.256-10.678 27.293 27.293 0 00-.419 10.887c.837 4.606 1.466 9.631-.837 13.609-4.4.419-8.165 2.931-12.143 5.025a6.914 6.914 0 01-5.025.419c-1.256-.209-2.3-1.256-4.187-3.35a9.726 9.726 0 011.256-4.816 91.3 91.3 0 015.025-8.584c-2.094 2.722-4.187 5.025-5.862 7.537-.628-1.884-1.675-2.931-3.141-5.025s-1.675-2.931-.628-5.444c1.256-2.512 2.094-4.606 4.187-6.7 3.35-3.769 6.49-7.747 10.259-11.515 2.094-1.884 2.931-1.884 5.444-2.3s4.816-.837 7.328-1.466a42.741 42.741 0 01-7.119.628c2.3-2.931 3.559-4.606 7.328-6.281 9.212-3.978 15.075-4.4 22.193 1.675a50.126 50.126 0 005.444 4.4 9.214 9.214 0 00-2.094.419 7.982 7.982 0 013.141.209c.209.209.628.419.837.628a8.524 8.524 0 012.931 2.512 27.723 27.723 0 012.512 4.187c-.419-.209-.837-.209-1.256-.419a1.259 1.259 0 00-.837-.209 2.518 2.518 0 00-1.675.419 6.822 6.822 0 01-2.722.837 2.312 2.312 0 001.675 0h.209c-.209.209-.209.628-.419 1.047a3.563 3.563 0 00.209 1.466c0 .209.209.209.209.419-.419.209-.628.209-1.047.419a20.178 20.178 0 015.025 0c.209.628.209 1.047.419 1.675h-.634a2.864 2.864 0 00-2.931-.209c-3.559.837-2.722 2.931-4.4 6.072 1.675-2.094 1.675-4.4 4.4-5.025.628-.209 1.047-.419 1.466-.209a4.108 4.108 0 00-1.884 1.884c-.837 2.3-.209 3.978-1.256 6.072 1.047-1.884 1.047-3.559 2.094-5.653.419-.628 1.675-1.884 2.3-1.884h.628a20.383 20.383 0 01.209 3.35c-.209 1.884-.628 4.606-.837 5.653 1.047-1.256 1.466-3.769 1.884-5.653a15.85 15.85 0 000-6.281c-.628-2.931 2.3-2.3 3.978-3.769 1.256-1.047 2.094-2.512 3.141-3.559s2.931.419 3.35 1.675a41.679 41.679 0 012.3 16.75c-.628 5.234-3.141 11.1-7.747 13.609-5.862 3.35-12.981 1.256-18.843-.628a14.956 14.956 0 01-3.141-1.675 4.7 4.7 0 01.427 3.752zm-5.238 21.147c-.209 2.094-.837 2.3-2.931 2.3a43.763 43.763 0 01-5.234-.209 11.374 11.374 0 01-2.3-.419c1.884-1.466 5.234-7.328 5.862-9.422s1.466-3.978 1.884-6.072a11.8 11.8 0 00.837 2.512 12.391 12.391 0 011.047 3.978 40.343 40.343 0 00.209 5.025 3.24 3.24 0 01.626 2.307zm-61.136-43.549a3.341 3.341 0 00-.628 1.675c-.628 2.3.209 4.4-1.884 6.072 1.047 1.884.837 2.722 3.141 1.884a8.646 8.646 0 002.3-1.466c-.209.837-.628 1.675-.837 2.512 0 .209 0 .209-.209.419-1.675.628-3.769 1.047-4.606-.628a10.365 10.365 0 01-.837-2.722c-2.717-2.722 1.261-6.49 3.564-7.747zm.209 2.512a1.259 1.259 0 01.209-.837c0-.209 0-.209.209-.419.628.419.628.837.837 1.675-.413-.419-.828-.628-1.251-.419zm2.094 24.5a49.484 49.484 0 005.653 12.143 14.426 14.426 0 01-.628 1.675c-1.675 2.3-5.862-1.047-7.119-2.3a8.469 8.469 0 01-2.512-4.606c-.209-1.047 0-1.047.837-1.884l3.141-3.141zm79.77-34.546c0 .209.209.419.209.628l-.209.209c-.209-.209-.419-.628-.628-.837zm-77.886 12.772zm-3.35-5.025zm-5.234 7.956zm29.312 30.777zm51.086-15.493zm18.843-7.119z" fill="#1e1e1e"/>
        <path d="M718.575 449.412c2.931-1.047 4.4-3.35 5.025-6.281a11.453 11.453 0 01-5.444 5.444c-1.256.628-2.094.419-3.559.209 1.466.628 2.513 1.046 3.978.628zM701.826 452.343a21.774 21.774 0 00-3.141.419c0-.419-.209-.628-.209-1.047a2.972 2.972 0 00-1.884-1.675c.628-.419 1.466-.837 2.094-1.256-1.675.837-3.559.628-5.025 1.466-1.256.837-2.931 3.559-4.187 4.606a17.465 17.465 0 002.512-1.675 3.882 3.882 0 00.419 1.466 3.3 3.3 0 001.466 1.466 6.549 6.549 0 00-1.047 2.094 18.293 18.293 0 019.002-5.864zM686.751 449.2c.628-2.512 1.466-4.816 5.234-6.49-5.024 1.258-5.862 3.352-5.234 6.49zM694.917 473.07c-.209.628-.209 1.675-.419 2.3a9.062 9.062 0 011.047-2.512c.419-.837.628-.837 1.466-1.256a19.455 19.455 0 002.094-1.047c-.628 0-1.675.419-2.3.419-1.47.212-1.679.626-1.888 2.096zM668.117 444.805c-1.884 1.884-3.559 7.956-4.187 10.469.837-2.094 3.141-7.747 4.816-9.212a4.38 4.38 0 011.256-.837c-1.256 2.094-1.047 2.512-.628 5.234.419-2.722 1.256-3.978 2.931-6.072 1.675-.419 3.35-1.047 5.234-1.675-2.094.209-3.978.419-6.072.628-1.884.419-2.303.419-3.35 1.465z" fill="#1e1e1e"/>
        <path d="M693.032 455.483a1.4 1.4 0 012.512-1.256v.209a13.546 13.546 0 00-1.884 1.675.669.669 0 01-.628-.628M708.526 449.412a1.047 1.047 0 012.094 0v.419a4.928 4.928 0 00-1.675.419c-.209 0-.419-.419-.419-.837" fill="#fffacb"/>
    </g>
    <g>
        <path d="M79.633 68.758a3.611 3.611 0 01-3.6 3.6H40.925a3.611 3.611 0 01-3.6-3.6V3.945a3.611 3.611 0 013.6-3.6h34.927a3.611 3.611 0 013.6 3.6v64.813z" fill="#a0a1a2"/>
        <path d="M43.626 39.232a4.648 4.648 0 014.681-4.681h21.064a4.648 4.648 0 014.681 4.681 4.648 4.648 0 01-4.681 4.681H48.126a4.612 4.612 0 01-4.5-4.681z" fill="#1e1e1e" opacity=".6" style="isolation:isolate"/>
        <circle cx="48.306" cy="39.232" fill="#b8d432" r="3.061"/>
        <path d="M43.626 25.549a4.648 4.648 0 014.681-4.681h21.064a4.648 4.648 0 014.681 4.681 4.648 4.648 0 01-4.681 4.681H48.126a4.612 4.612 0 01-4.5-4.681z" fill="#1e1e1e" opacity=".6" style="isolation:isolate"/>
        <circle cx="48.306" cy="25.549" fill="#b8d432" r="3.061"/>
        <path d="M43.626 12.047a4.5 4.5 0 014.5-4.681h21.065a4.648 4.648 0 014.681 4.681 4.648 4.648 0 01-4.681 4.681H48.126a4.732 4.732 0 01-4.5-4.681z" fill="#1e1e1e" opacity=".6" style="isolation:isolate"/>
        <circl0e cx="48.306" cy="12.047" fill="#b8d432" r="3.061"/>
        <path d="M127.342 68.758a3.611 3.611 0 01-3.6 3.6H88.634a3.611 3.611 0 01-3.6-3.6V3.945a3.611 3.611 0 013.6-3.6h35.107a3.611 3.611 0 013.6 3.6z" fill="#a0a1a2"/>
        <path d="M91.335 39.232a4.648 4.648 0 014.681-4.681h21.064a4.648 4.648 0 014.681 4.681 4.648 4.648 0 01-4.681 4.681H95.836a4.612 4.612 0 01-4.5-4.681z" fill="#1e1e1e" opacity=".6" style="isolation:isolate"/>
        <circle cx="96.016" cy="39.232" fill="#b8d432" r="3.061"/>
        <path d="M91.335 25.549a4.648 4.648 0 014.681-4.681h21.064a4.648 4.648 0 014.681 4.681 4.648 4.648 0 01-4.681 4.681H95.836a4.612 4.612 0 01-4.5-4.681z" fill="#1e1e1e" opacity=".6" style="isolation:isolate"/>
        <circle cx="96.016" cy="25.549" fill="#b8d432" r="3.061"/>
        <path d="M91.335 12.047a4.648 4.648 0 014.681-4.681h21.064a4.648 4.648 0 014.681 4.681 4.648 4.648 0 01-4.681 4.681H95.836a4.732 4.732 0 01-4.5-4.681z" fill="#1e1e1e" opacity=".6" style="isolation:isolate"/>
        <circle cx="96.016" cy="12.047" fill="#b8d432" r="3.061"/>
        <g>
            <path d="M105.017 86.761a3.611 3.611 0 01-3.6 3.6H66.49a3.611 3.611 0 01-3.6-3.6V21.949a3.611 3.611 0 013.6-3.6h34.927a3.611 3.611 0 013.6 3.6z" fill="#3e3e3e"/>
            <path d="M69.01 57.236a4.648 4.648 0 014.681-4.681h21.064a4.648 4.648 0 014.681 4.681 4.648 4.648 0 01-4.681 4.681H73.691a4.648 4.648 0 01-4.681-4.681z" fill="#1e1e1e"/>
            <circle cx="73.871" cy="57.236" fill="#b8d432" r="3.061"/>
            <path d="M69.01 43.553a4.648 4.648 0 014.681-4.681h21.064a4.648 4.648 0 014.681 4.681 4.648 4.648 0 01-4.681 4.681H73.691a4.648 4.648 0 01-4.681-4.681z" fill="#1e1e1e"/>
            <circle cx="73.871" cy="43.553" fill="#b8d432" r="3.061"/>
            <path d="M69.01 30.05a4.648 4.648 0 014.681-4.681h21.064a4.648 4.648 0 014.681 4.681 4.648 4.648 0 01-4.681 4.681H73.691a4.764 4.764 0 01-4.681-4.681z" fill="#1e1e1e"/>
            <circle cx="73.871" cy="30.05" fill="#b8d432" r="3.061"/>
        </g>
    </g>
    <g>
        <path fill="none" stroke="#afafaf" stroke-miterlimit="10" stroke-width="1.074" d="M1001.515 583.484v101.06"/>
        <path fill="#afafaf" d="M996.158 585.052l5.357-9.277 5.357 9.277h-10.714z"/>
    </g>
    <g>
        <path fill="none" stroke="#afafaf" stroke-miterlimit="10" stroke-width="1.074" d="M1001.246 340.185v83.313"/>
        <path fill="#afafaf" d="M995.889 341.753l5.357-9.277 5.357 9.277h-10.714z"/>
    </g>
    <g>
        <path fill="none" stroke="#afafaf" stroke-miterlimit="10" stroke-width="1.074" d="M790.27 685.116h211.549"/>
        <path fill="#afafaf" d="M791.837 690.471l-9.273-5.355 9.273-5.355v10.71z"/>
    </g>
    <g>
        <path fill="none" stroke="#afafaf" stroke-miterlimit="10" stroke-width="1.074" d="M573.92 260.917H196.357"/>
        <path fill="#afafaf" d="M572.354 255.562l9.273 5.355-9.273 5.356v-10.711z"/>
    </g>
    <g>
        <path fill="none" stroke="#afafaf" stroke-miterlimit="10" stroke-width="1.074" d="M306.578 47.959H155.139"/>
        <path fill="#afafaf" d="M305.011 42.604l9.274 5.355-9.274 5.356V42.604z"/>
    </g>
    <g>
        <path fill="none" stroke="#afafaf" stroke-miterlimit="10" stroke-width="1.074" d="M572.203 47.959H447.67"/>
        <path fill="#afafaf" d="M570.636 42.604l9.274 5.355-9.274 5.356V42.604z"/>
    </g>
    <g>
        <path fill="none" stroke="#afafaf" stroke-miterlimit="10" stroke-width="1.074" d="M1001.579 178.504l.812-132.834"/>
        <path fill="#afafaf" d="M1006.944 176.97l-5.411 9.24-5.299-9.306 10.71.066z"/>
    </g>
    <g>
        <path fill="none" stroke="#afafaf" stroke-miterlimit="10" stroke-width="1.074" d="M677.516 184.228v-43.529"/>
        <path fill="#afafaf" d="M682.871 182.661l-5.355 9.274-5.356-9.274h10.711z"/>
    </g>
    <g>
        <path fill="none" stroke="#afafaf" stroke-miterlimit="10" stroke-width="1.074" d="M933.43 478.455h-79.881"/>
        <path fill="#afafaf" d="M931.863 473.1l9.274 5.355-9.274 5.355V473.1z"/>
    </g>
    <g>
        <path d="M46.446 246.972l10.389-27.336 42.091-.358 1.959 5.34-42.667.363-7.876 21.836 59.56-.34 24.545-.038a8.961 8.961 0 018.974 8.947l.036 23.192-103.277.161-.036-23.192a8.964 8.964 0 016.302-8.575z" fill="#0071bc"/>
        <path fill="#666" d="M37.245 271.92l108.148-.167.012 7.794-108.148.168z"/>
        <g transform="rotate(-.089 59.654 278.8)">
            <circle cx="59.178" cy="278.22" fill="#333" r="13.153"/>
            <circle cx="59.178" cy="278.22" fill="#b8d432" r="6.333"/>
        </g>
        <g transform="rotate(-.089 118.881 278.846)">
            <circle cx="118.611" cy="278.127" fill="#333" r="13.153"/>
            <circle cx="118.611" cy="278.127" fill="#b8d432" r="6.333"/>
        </g>
        <path fill="#b3d3dd" d="M49.346 246.817l59.56-.34-8.024-21.868-43.66.372-7.876 21.836z"/>
        <path fill="#0071bc" d="M77.741 224.65l4.872-.04.233 27.28-4.872.04z"/>
    </g>
    <path fill="none" stroke="#afafaf" stroke-miterlimit="10" stroke-width="1.074" d="M755.085 260.917h98.464M853.549 478.455V260.917M832.941 45.67h169.45"/>
</svg>
