<?xml version="1.0" encoding="UTF-8" standalone="no"?>
<!DOCTYPE svg PUBLIC "-//W3C//DTD SVG 1.1//EN" "http://www.w3.org/Graphics/SVG/1.1/DTD/svg11.dtd">
<!-- Generated by Microsoft Visio, SVG Export predictive-insights-with-vehicle-telematics.svg predictive-insights-with-vehicle-telematics -->
<svg xmlns="http://www.w3.org/2000/svg" xmlns:xlink="http://www.w3.org/1999/xlink" xmlns:ev="http://www.w3.org/2001/xml-events"
		xmlns:v="http://schemas.microsoft.com/visio/2003/SVGExtensions/" width="10.75in" height="8.1875in" viewBox="0 0 774 589.5"
		xml:space="preserve" color-interpolation-filters="sRGB" class="st46">
	<v:documentProperties v:langID="1033" v:viewMarkup="false">
		<v:userDefs>
			<v:ud v:nameU="msvNoAutoConnect" v:val="VT0(1):26"/>
			<v:ud v:nameU="msvWarnOnPersonalInfo" v:val="VT0(1):5"/>
		</v:userDefs>
	</v:documentProperties>

	<style type="text/css">
	<![CDATA[
		.st1 {fill:#ffffff;stroke:none;stroke-width:0.25}
		.st2 {fill:url(#grad0-7);stroke:none;stroke-linecap:butt;stroke-width:0.75}
		.st3 {fill:#50e6ff;stroke:none;stroke-linecap:butt;stroke-width:0.75}
		.st4 {fill:#32bedd;stroke:none;stroke-linecap:butt;stroke-width:0.75}
		.st5 {fill:#76bc2d;stroke:none;stroke-linecap:butt;stroke-width:0.75}
		.st6 {fill:#86d633;stroke:none;stroke-linecap:butt;stroke-width:0.75}
		.st7 {fill:#999999;stroke:none;stroke-linecap:butt;stroke-width:0.75}
		.st8 {fill:#999999;fill-opacity:0.5;stroke:none;stroke-linecap:butt;stroke-width:0.75}
		.st9 {fill:#949494;stroke:none;stroke-linecap:butt;stroke-width:0.75}
		.st10 {fill:none;stroke:none;stroke-width:0.25}
		.st11 {fill:#000000;font-family:Segoe UI;font-size:0.916672em}
		.st12 {marker-end:url(#mrkr4-57);stroke:#000000;stroke-linecap:round;stroke-linejoin:round;stroke-width:1.5}
		.st13 {fill:#000000;fill-opacity:1;stroke:#000000;stroke-opacity:1;stroke-width:0.37313432835821}
		.st14 {fill:#005ba1;stroke:none;stroke-linecap:butt;stroke-width:0.75}
		.st15 {fill:url(#grad0-64);stroke:none;stroke-linecap:butt;stroke-width:0.75}
		.st16 {fill:#ffffff;stroke:none;stroke-linecap:butt;stroke-width:0.75}
		.st17 {fill:#eaeaea;stroke:none;stroke-linecap:butt;stroke-width:0.75}
		.st18 {fill:#198ab3;stroke:none;stroke-linecap:butt;stroke-width:0.75}
		.st19 {fill:#0078d7;stroke:none;stroke-linecap:butt;stroke-width:0.25}
		.st20 {marker-start:url(#mrkr4-92);stroke:#000000;stroke-linecap:round;stroke-linejoin:round;stroke-width:1.5}
		.st21 {marker-end:url(#mrkr4-57);marker-start:url(#mrkr4-92);stroke:#000000;stroke-linecap:round;stroke-linejoin:round;stroke-width:1.5}
		.st22 {fill:url(#grad0-136);stroke:none;stroke-linecap:butt;stroke-width:0.75}
		.st23 {fill:#0078d7;stroke:none;stroke-linecap:butt;stroke-width:0.75}
		.st24 {fill:#0078d4;stroke:none;stroke-linecap:butt;stroke-width:0.75}
		.st25 {fill:url(#grad0-154);stroke:none;stroke-linecap:butt;stroke-width:0.75}
		.st26 {fill:url(#grad0-160);stroke:none;stroke-linecap:butt;stroke-width:0.75}
		.st27 {fill:#4672c4;stroke:none;stroke-width:6.375}
		.st28 {fill:url(#grad0-173);stroke:none;stroke-linecap:butt;stroke-width:0.75}
		.st29 {fill:#000000;fill-opacity:0.2;stroke:none;stroke-linecap:butt;stroke-width:0.75}
		.st30 {fill:#000000;fill-opacity:0.18;stroke:none;stroke-linecap:butt;stroke-width:0.75}
		.st31 {fill:url(#grad0-181);stroke:none;stroke-linecap:butt;stroke-width:0.75}
		.st32 {fill:url(#grad0-185);stroke:none;stroke-linecap:butt;stroke-width:0.75}
		.st33 {stroke:#000000;stroke-linecap:round;stroke-linejoin:round;stroke-width:1.5}
		.st34 {font-size:1em}
		.st35 {fill:url(#grad0-232);stroke:none;stroke-linecap:butt;stroke-width:34}
		.st36 {fill:#003067;stroke:none;stroke-linecap:butt;stroke-width:34}
		.st37 {fill:#50e6ff;stroke:none;stroke-linecap:butt;stroke-width:34}
		.st38 {fill:#3e3e3e;stroke:none;stroke-linecap:butt;stroke-width:12.24}
		.st39 {fill:#1e1e1e;stroke:none;stroke-linecap:butt;stroke-width:12.24}
		.st40 {fill:#b8d432;stroke:none;stroke-linecap:butt;stroke-width:12.24}
		.st41 {fill:url(#grad0-296);stroke:none;stroke-linecap:butt;stroke-width:0.75}
		.st42 {fill:#000000;fill-opacity:0.5;stroke:none;stroke-linecap:butt;stroke-width:0.75}
		.st43 {fill:#000000;fill-opacity:0.25;stroke:none;stroke-linecap:butt;stroke-width:0.75}
		.st44 {fill:url(#grad0-312);stroke:none;stroke-linecap:butt;stroke-width:0.75}
		.st45 {fill:#7f7f7f;font-family:Segoe UI Semibold;font-size:1.16666em}
		.st46 {fill:none;fill-rule:evenodd;font-size:12px;overflow:visible;stroke-linecap:square;stroke-miterlimit:3}
	]]>
	</style>

	<defs id="Patterns_And_Gradients">
		<linearGradient id="grad0-7" x1="0" y1="0" x2="1" y2="0" gradientTransform="rotate(-90 0.5 0.5)">
			<stop offset="0" stop-color="#949494" stop-opacity="1"/>
			<stop offset="0.33" stop-color="#9b9b9b" stop-opacity="1"/>
			<stop offset="0.82" stop-color="#aeafb0" stop-opacity="1"/>
			<stop offset="1" stop-color="#b6b8b9" stop-opacity="1"/>
		</linearGradient>
		<linearGradient id="grad0-64" x1="0" y1="0" x2="1" y2="0" gradientTransform="rotate(0 0.5 0.5)">
			<stop offset="0" stop-color="#005ba1" stop-opacity="1"/>
			<stop offset="0.07" stop-color="#0060a9" stop-opacity="1"/>
			<stop offset="0.36" stop-color="#0071c8" stop-opacity="1"/>
			<stop offset="0.52" stop-color="#0078d4" stop-opacity="1"/>
			<stop offset="0.64" stop-color="#0074cd" stop-opacity="1"/>
			<stop offset="0.81" stop-color="#006abb" stop-opacity="1"/>
			<stop offset="0.99" stop-color="#005ba1" stop-opacity="1"/>
		</linearGradient>
		<linearGradient id="grad0-136" x1="0" y1="0" x2="1" y2="0" gradientTransform="rotate(0 0.5 0.5)">
			<stop offset="0" stop-color="#50c7e8" stop-opacity="1"/>
			<stop offset="0.25" stop-color="#4cc3e4" stop-opacity="1"/>
			<stop offset="0.51" stop-color="#41b6da" stop-opacity="1"/>
			<stop offset="0.77" stop-color="#2fa2c8" stop-opacity="1"/>
			<stop offset="1" stop-color="#1989b2" stop-opacity="1"/>
		</linearGradient>
		<linearGradient id="grad0-154" x1="0" y1="0" x2="1" y2="0" gradientTransform="rotate(-90 0.5 0.5)">
			<stop offset="0.2" stop-color="#005ba1" stop-opacity="1"/>
			<stop offset="1" stop-color="#0078d4" stop-opacity="1"/>
		</linearGradient>
		<linearGradient id="grad0-160" x1="0" y1="0" x2="1" y2="0" gradientTransform="rotate(-90 0.5 0.5)">
			<stop offset="0" stop-color="#198ab3" stop-opacity="1"/>
			<stop offset="0.17" stop-color="#32bedd" stop-opacity="1"/>
			<stop offset="0.5" stop-color="#50e6ff" stop-opacity="1"/>
			<stop offset="0.5" stop-color="#4fe4fd" stop-opacity="1"/>
			<stop offset="0.5" stop-color="#4bddf8" stop-opacity="1"/>
			<stop offset="0.5" stop-color="#44d2ee" stop-opacity="1"/>
			<stop offset="0.5" stop-color="#3ac1e0" stop-opacity="1"/>
			<stop offset="0.5" stop-color="#2dabce" stop-opacity="1"/>
			<stop offset="0.5" stop-color="#1d90b8" stop-opacity="1"/>
			<stop offset="0.5" stop-color="#198ab3" stop-opacity="1"/>
			<stop offset="0.66" stop-color="#32bedd" stop-opacity="1"/>
			<stop offset="0.975" stop-color="#50e6ff" stop-opacity="1"/>
		</linearGradient>
		<linearGradient id="grad0-173" x1="0" y1="0" x2="1" y2="0" gradientTransform="rotate(35.2432185142 0.5 0.5)">
			<stop offset="0" stop-color="#e6ad10" stop-opacity="1"/>
			<stop offset="1" stop-color="#c87e0e" stop-opacity="1"/>
		</linearGradient>
		<linearGradient id="grad0-181" x1="0" y1="0" x2="1" y2="0" gradientTransform="rotate(40.759716433349 0.5 0.5)">
			<stop offset="0" stop-color="#f6d751" stop-opacity="1"/>
			<stop offset="1" stop-color="#e6ad10" stop-opacity="1"/>
		</linearGradient>
		<linearGradient id="grad0-185" x1="0" y1="0" x2="1" y2="0" gradientTransform="rotate(57.669552439706 0.5 0.5)">
			<stop offset="0" stop-color="#f9e589" stop-opacity="1"/>
			<stop offset="1" stop-color="#f6d751" stop-opacity="1"/>
		</linearGradient>
		<linearGradient id="grad0-232" x1="0" y1="0" x2="1" y2="0" gradientTransform="rotate(-90 0.5 0.5)">
			<stop offset="0" stop-color="#949494" stop-opacity="1"/>
			<stop offset="0.53" stop-color="#a2a2a2" stop-opacity="1"/>
			<stop offset="1" stop-color="#b3b3b3" stop-opacity="1"/>
		</linearGradient>
		<linearGradient id="grad0-296" x1="0" y1="0" x2="1" y2="0" gradientTransform="rotate(116.95960434515 0.5 0.5)">
			<stop offset="0" stop-color="#114a8b" stop-opacity="1"/>
			<stop offset="1" stop-color="#0669bc" stop-opacity="1"/>
		</linearGradient>
		<linearGradient id="grad0-312" x1="0" y1="0" x2="1" y2="0" gradientTransform="rotate(61.849084498542 0.5 0.5)">
			<stop offset="0" stop-color="#3ccbf4" stop-opacity="1"/>
			<stop offset="1" stop-color="#2892df" stop-opacity="1"/>
		</linearGradient>
	</defs>
	<defs id="Markers">
		<g id="lend4">
			<path d="M 2 1 L 0 0 L 2 -1 L 2 1 " style="stroke:none"/>
		</g>
		<marker id="mrkr4-57" class="st13" v:arrowType="4" v:arrowSize="2" v:setback="5.36" refX="-5.36" orient="auto"
				markerUnits="strokeWidth" overflow="visible">
			<use xlink:href="#lend4" transform="scale(-2.68,-2.68) "/>
		</marker>
		<marker id="mrkr4-92" class="st13" v:arrowType="4" v:arrowSize="2" v:setback="5.12" refX="5.12" orient="auto"
				markerUnits="strokeWidth" overflow="visible">
			<use xlink:href="#lend4" transform="scale(2.68) "/>
		</marker>
	</defs>
	<g v:mID="12" v:index="1" v:groupContext="backgroundPage">
		<v:userDefs>
			<v:ud v:nameU="msvThemeOrder" v:val="VT0(0):26"/>
			<v:ud v:nameU="msvVisioCreated" v:prompt="" v:val="VT0(0):26"/>
		</v:userDefs>
		<title>VBackground-1</title>
		<v:pageProperties width="10.75" height="8.1875" v:drawingScale="1" v:pageScale="1" v:drawingUnits="19" v:shadowOffsetX="9"
				v:shadowOffsetY="-9"/>
		<g id="shape1000-1" v:mID="1000" v:groupContext="shape">
			<title>Solid.1000</title>
			<v:userDefs>
				<v:ud v:nameU="Background" v:val="VT0(0):26"/>
				<v:ud v:nameU="visVersion" v:val="VT0(15):26"/>
				<v:ud v:nameU="msvShapeCategories" v:prompt="" v:val="VT4(DoNotContain)"/>
				<v:ud v:nameU="msvVisioCreated" v:prompt="" v:val="VT0(0):26"/>
			</v:userDefs>
			<rect x="0" y="0" width="774" height="589.5" class="st1"/>
		</g>
	</g>
	<g v:mID="8" v:index="2" v:groupContext="foregroundPage">
		<v:userDefs>
			<v:ud v:nameU="msvThemeOrder" v:val="VT0(0):26"/>
			<v:ud v:nameU="visNavType" v:val="VT0(1):26"/>
		</v:userDefs>
		<title>predictive-insights-with-vehicle-telematics</title>
		<v:pageProperties v:drawingScale="1" v:pageScale="1" v:drawingUnits="19" v:shadowOffsetX="9" v:shadowOffsetY="-9"/>
		<g id="group1011-3" transform="translate(475.485,-532.378)" v:mID="1011" v:groupContext="group">
			<v:userDefs>
				<v:ud v:nameU="visNavOrder" v:val="VT0(4000):26"/>
			</v:userDefs>
			<title>Stream Analytics Jobs.1399</title>
			<g id="shape1012-4" v:mID="1012" v:groupContext="shape" transform="translate(9.28869,0)">
				<title>Sheet.1012</title>
				<v:userDefs>
					<v:ud v:nameU="msvDisableCustomConnectionPoints" v:prompt="" v:val="VT0(1):5"/>
				</v:userDefs>
				<path d="M31.03 572.6 L31.03 568.26 L30.81 568.05 L26.68 566.54 L25.63 563.66 L27.67 559.11 L27.89 558.6 L26.55 557.12
							 L24.98 555.45 L24.44 555.74 L20.41 557.95 L17.7 557.12 L15.95 552.28 L11.94 552.28 L11.74 552.5 L10.35
							 556.93 L7.53 558.07 L2.87 555.65 L0 558.67 L0.27 559.26 L2.42 563.66 A13.4432 14.529 0 0 1 9.59 561.58
							 A14.0257 15.1586 0 0 1 17.59 564.34 A7.43855 8.03938 0 0 1 18.39 564.97 A7.28171 7.86988 0 0 1 20.48
							 568.24 A6.72158 7.2645 0 0 1 20.95 570.93 A7.2369 7.82145 0 0 1 13.67 578.75 A7.32653 7.91831 0 0 1
							 9.48 577.32 A14.1377 15.2797 0 0 1 0.52 581.56 L0.09 582.5 L2.96 585.63 L3.54 585.46 L7.57 583.03 L10.35
							 584.27 L12.12 589.5 L16.15 589.5 L16.31 588.89 L17.74 584.27 L20.48 583.03 L25.21 585.46 L28.05 582.41
							 L27.78 581.82 L25.7 577.49 L26.55 574.46 L31.03 572.6 Z" class="st2"/>
			</g>
			<g id="shape1013-8" v:mID="1013" v:groupContext="shape" transform="translate(3.05389,-14.5774)">
				<title>Sheet.1013</title>
				<v:userDefs>
					<v:ud v:nameU="msvDisableCustomConnectionPoints" v:prompt="" v:val="VT0(1):5"/>
				</v:userDefs>
				<path d="M5.9 589.5 A8.0659 8.7174 0 0 1 0.16 586.96 A1.03064 1.11389 0 1 1 1.62 585.5 A5.9374 6.41698 -180 0 0 5.9
							 587.27 A5.87018 6.34433 -180 0 0 10.11 585.5 A7.95387 8.59633 0 0 1 15.82 583.08 A8.15552 8.81426 0
							 0 1 21.58 585.5 A1.03064 1.11389 0 1 1 20.13 587.08 A6.02702 6.51384 -180 0 0 15.89 585.19 A5.84778
							 6.32012 -180 0 0 11.68 587.08 A8.0883 8.74162 0 0 1 5.9 589.5 Z" class="st3"/>
			</g>
			<g id="shape1014-10" v:mID="1014" v:groupContext="shape" transform="translate(6.12955,-19.0088)">
				<title>Sheet.1014</title>
				<v:userDefs>
					<v:ud v:nameU="msvDisableCustomConnectionPoints" v:prompt="" v:val="VT0(1):5"/>
				</v:userDefs>
				<path d="M2.82 589.5 A4.01054 4.33449 0 0 1 0 588.24 A1.03064 1.11389 0 0 1 1.46 586.67 A1.88204 2.03406 -180 0 0
							 2.82 587.27 A2.41977 2.61522 -180 0 0 4.17 586.67 A12.2333 13.2214 0 0 1 21.35 586.67 A1.03064 1.11389
							 0 0 1 19.9 588.24 A10.1944 11.0178 -180 0 0 5.53 588.24 A4.34662 4.69771 0 0 1 2.82 589.5 Z"
						class="st3"/>
			</g>
			<g id="shape1015-12" v:mID="1015" v:groupContext="shape" transform="translate(0,-10.1461)">
				<title>Sheet.1015</title>
				<v:userDefs>
					<v:ud v:nameU="msvDisableCustomConnectionPoints" v:prompt="" v:val="VT0(1):5"/>
				</v:userDefs>
				<path d="M8.95 589.5 A12.1213 13.1003 0 0 1 0.28 585.65 A1.05305 1.13811 0 0 1 0.28 584.1 A1.05305 1.13811 0 0 1
							 1.76 584.1 A10.0152 10.8241 -180 0 0 8.95 587.3 A10.0824 10.8968 -180 0 0 16.12 584.08 A4.34662 4.69771
							 0 0 1 18.83 582.89 A4.10017 4.43135 0 0 1 21.63 584.15 A1.03064 1.11389 0 0 1 21.63 585.72 A1.05305
							 1.13811 0 0 1 20.16 585.72 A1.85964 2.00985 -180 0 0 18.83 585.12 A2.24053 2.4215 -180 0 0 17.49 585.75
							 A12.1213 13.1003 0 0 1 8.95 589.5 Z" class="st4"/>
			</g>
		</g>
		<g id="group1017-14" transform="translate(267.93,-530.828)" v:mID="1017" v:groupContext="group">
			<v:userDefs>
				<v:ud v:nameU="visNavOrder" v:val="VT0(6000):26"/>
			</v:userDefs>
			<title>Event Hubs.1408</title>
			<g id="shape1018-15" v:mID="1018" v:groupContext="shape" transform="translate(18.3337,-12.7298)">
				<title>Sheet.1018</title>
				<v:userDefs>
					<v:ud v:nameU="msvDisableCustomConnectionPoints" v:prompt="" v:val="VT0(1):5"/>
				</v:userDefs>
				<path d="M6.17 580.31 a0.616659 0.692417 0 0 1 -0.569224 0.719049 L0.64 581.03 a0.616659 0.692417 0 0 1 -0.640376
							 -0.639155 L0 576.24 a0.616659 0.692417 0 0 1 0.569224 -0.719049 L5.53 575.52 a0.616659 0.692417 0 0
							 1 0.640376 0.639155 L6.17 580.31 ZM14.97 584.52 a0.616659 0.692417 0 0 1 -0.569224 0.719049 L9.44 585.24
							 a0.616659 0.692417 0 0 1 -0.640376 -0.639155 L8.8 580.47 a0.616659 0.692417 0 0 1 0.569224 -0.719049
							 L14.33 579.75 a0.616659 0.692417 0 0 1 0.640376 0.639155 L14.97 584.52 ZM6.17 588.78 a0.616659 0.692417
							 0 0 1 -0.569224 0.719049 L0.64 589.5 a0.616659 0.692417 0 0 1 -0.640376 -0.639155 L0 584.71 a0.616659
							 0.692417 0 0 1 0.569224 -0.719049 L5.53 583.99 a0.616659 0.692417 0 0 1 0.640376 0.639155 L6.17 588.78
							 Z" class="st5"/>
			</g>
			<g id="shape1019-17" v:mID="1019" v:groupContext="shape" transform="translate(9.41591,-25.433)">
				<title>Sheet.1019</title>
				<v:userDefs>
					<v:ud v:nameU="msvDisableCustomConnectionPoints" v:prompt="" v:val="VT0(1):5"/>
				</v:userDefs>
				<path d="M6.29 588.81 a0.592941 0.665786 0 0 1 -0.545506 0.692417 L0.64 589.5 a0.616659 0.692417 0 0 1 -0.640376
							 -0.612523 L0 584.57 a0.616659 0.692417 0 0 1 0.569224 -0.665786 L5.53 583.91 C6.05 583.91 6.29 584.2
							 6.29 584.63 L6.29 588.81 Z" class="st6"/>
			</g>
			<g id="shape1020-19" v:mID="1020" v:groupContext="shape" transform="translate(9.41591,-8.49543)">
				<title>Sheet.1020</title>
				<v:userDefs>
					<v:ud v:nameU="msvDisableCustomConnectionPoints" v:prompt="" v:val="VT0(1):5"/>
				</v:userDefs>
				<path d="M6.29 580.29 a0.592941 0.665786 0 0 1 -0.545506 0.719049 L0.64 581 a0.616659 0.692417 0 0 1 -0.640376 -0.719049
							 L0 576.08 a0.616659 0.692417 0 0 1 0.569224 -0.692417 L5.53 575.39 C6.05 575.39 6.29 575.68 6.29 576.08
							 L6.29 580.29 ZM6.29 588.78 a0.592941 0.665786 0 0 1 -0.545506 0.719049 L0.64 589.5 a0.616659 0.692417
							 0 0 1 -0.640376 -0.639155 L0 584.55 a0.592941 0.665786 0 0 1 0.569224 -0.692417 L5.53 583.85 C6.05 583.85
							 6.29 584.12 6.29 584.55 L6.29 588.78 Z" class="st5"/>
			</g>
			<g id="group1021-21" transform="translate(4.02178E-14,-29.9604)" v:mID="1021" v:groupContext="group">
				<v:userDefs>
					<v:ud v:nameU="msvDisableCustomConnectionPoints" v:prompt="" v:val="VT0(1):5"/>
				</v:userDefs>
				<title>Sheet.1021</title>
				<g id="shape1022-22" v:mID="1022" v:groupContext="shape">
					<title>Sheet.1022</title>
					<v:userDefs>
						<v:ud v:nameU="msvDisableCustomConnectionPoints" v:prompt="" v:val="VT0(1):5"/>
					</v:userDefs>
					<path d="M1.35 579.14 L4.41 579.14 L4.41 588.73 a0.687812 0.772312 0 0 1 -0.687812 0.772312 L0.69 589.5 a0.687812
								 0.772312 0 0 1 -0.687812 -0.772312 L0 580.74 A1.35191 1.51799 0 0 1 1.35 579.14 Z" class="st7"/>
				</g>
				<g id="shape1023-24" v:mID="1023" v:groupContext="shape">
					<title>Sheet.1023</title>
					<v:userDefs>
						<v:ud v:nameU="msvDisableCustomConnectionPoints" v:prompt="" v:val="VT0(1):5"/>
					</v:userDefs>
					<path d="M1.35 579.14 L4.41 579.14 L4.41 588.73 a0.687812 0.772312 0 0 1 -0.687812 0.772312 L0.69 589.5 a0.687812
								 0.772312 0 0 1 -0.687812 -0.772312 L0 580.74 A1.35191 1.51799 0 0 1 1.35 579.14 Z" class="st8"/>
				</g>
			</g>
			<g id="group1024-26" transform="translate(35.8848,-30.0403)" v:mID="1024" v:groupContext="group">
				<v:userDefs>
					<v:ud v:nameU="msvDisableCustomConnectionPoints" v:prompt="" v:val="VT0(1):5"/>
				</v:userDefs>
				<title>Sheet.1024</title>
				<g id="shape1025-27" v:mID="1025" v:groupContext="shape">
					<title>Sheet.1025</title>
					<v:userDefs>
						<v:ud v:nameU="msvDisableCustomConnectionPoints" v:prompt="" v:val="VT0(1):5"/>
					</v:userDefs>
					<path d="M0.02 579.22 L3.08 579.22 A1.35191 1.51799 0 0 1 4.44 580.74 L4.44 588.73 a0.687812 0.772312 0 0 1 -0.687812
								 0.772312 L0.69 589.5 a0.687812 0.772312 0 0 1 -0.687812 -0.772312 L0 579.22 L0.02 579.22 Z"
							class="st7"/>
				</g>
				<g id="shape1026-29" v:mID="1026" v:groupContext="shape">
					<title>Sheet.1026</title>
					<v:userDefs>
						<v:ud v:nameU="msvDisableCustomConnectionPoints" v:prompt="" v:val="VT0(1):5"/>
					</v:userDefs>
					<path d="M0.02 579.22 L3.08 579.22 A1.35191 1.51799 0 0 1 4.44 580.74 L4.44 588.73 a0.687812 0.772312 0 0 1 -0.687812
								 0.772312 L0.69 589.5 a0.687812 0.772312 0 0 1 -0.687812 -0.772312 L0 579.22 L0.02 579.22 Z"
							class="st8"/>
				</g>
			</g>
			<g id="shape1027-31" v:mID="1027" v:groupContext="shape" transform="translate(0,-35.4731)">
				<title>Sheet.1027</title>
				<v:userDefs>
					<v:ud v:nameU="msvDisableCustomConnectionPoints" v:prompt="" v:val="VT0(1):5"/>
				</v:userDefs>
				<path d="M40.32 586.17 L40.32 589.5 L0 589.5 L0 586.17 A1.35191 1.51799 0 0 1 1.35 584.65 L38.99 584.65 A1.35191
							 1.51799 0 0 1 40.32 586.17 Z" class="st9"/>
			</g>
			<g id="group1028-33" v:mID="1028" v:groupContext="group">
				<v:userDefs>
					<v:ud v:nameU="msvDisableCustomConnectionPoints" v:prompt="" v:val="VT0(1):5"/>
				</v:userDefs>
				<title>Sheet.1028</title>
				<g id="shape1029-34" v:mID="1029" v:groupContext="shape">
					<title>Sheet.1029</title>
					<v:userDefs>
						<v:ud v:nameU="msvDisableCustomConnectionPoints" v:prompt="" v:val="VT0(1):5"/>
					</v:userDefs>
					<path d="M0.69 579.14 L3.75 579.14 a0.687812 0.772312 0 0 1 0.687812 0.772312 L4.44 589.5 L1.35 589.5 A1.35191
								 1.51799 0 0 1 0 587.98 L0 579.78 a0.687812 0.772312 0 0 1 0.687812 -0.639155 Z" class="st7"/>
				</g>
				<g id="shape1030-36" v:mID="1030" v:groupContext="shape">
					<title>Sheet.1030</title>
					<v:userDefs>
						<v:ud v:nameU="msvDisableCustomConnectionPoints" v:prompt="" v:val="VT0(1):5"/>
					</v:userDefs>
					<path d="M0.69 579.14 L3.75 579.14 a0.687812 0.772312 0 0 1 0.687812 0.772312 L4.44 589.5 L1.35 589.5 A1.35191
								 1.51799 0 0 1 0 587.98 L0 579.78 a0.687812 0.772312 0 0 1 0.687812 -0.639155 Z" class="st8"/>
				</g>
			</g>
			<g id="group1031-38" transform="translate(35.9085,-0.0798943)" v:mID="1031" v:groupContext="group">
				<v:userDefs>
					<v:ud v:nameU="msvDisableCustomConnectionPoints" v:prompt="" v:val="VT0(1):5"/>
				</v:userDefs>
				<title>Sheet.1031</title>
				<g id="shape1032-39" v:mID="1032" v:groupContext="shape">
					<title>Sheet.1032</title>
					<v:userDefs>
						<v:ud v:nameU="msvDisableCustomConnectionPoints" v:prompt="" v:val="VT0(1):5"/>
					</v:userDefs>
					<path d="M0.66 579.22 L3.72 579.22 a0.687812 0.772312 0 0 1 0.687812 0.772312 L4.41 587.98 A1.35191 1.51799 0
								 0 1 3.06 589.5 L0 589.5 L0 579.86 a0.687812 0.772312 0 0 1 0.664094 -0.639155 Z" class="st7"/>
				</g>
				<g id="shape1033-41" v:mID="1033" v:groupContext="shape">
					<title>Sheet.1033</title>
					<v:userDefs>
						<v:ud v:nameU="msvDisableCustomConnectionPoints" v:prompt="" v:val="VT0(1):5"/>
					</v:userDefs>
					<path d="M0.66 579.22 L3.72 579.22 a0.687812 0.772312 0 0 1 0.687812 0.772312 L4.41 587.98 A1.35191 1.51799 0
								 0 1 3.06 589.5 L0 589.5 L0 579.86 a0.687812 0.772312 0 0 1 0.664094 -0.639155 Z" class="st8"/>
				</g>
			</g>
			<g id="shape1034-43" v:mID="1034" v:groupContext="shape">
				<title>Sheet.1034</title>
				<v:userDefs>
					<v:ud v:nameU="msvDisableCustomConnectionPoints" v:prompt="" v:val="VT0(1):5"/>
				</v:userDefs>
				<path d="M0 587.98 L0 584.65 L40.32 584.65 L40.32 587.98 A1.35191 1.51799 0 0 1 38.97 589.5 L1.35 589.5 A1.35191
							 1.51799 0 0 1 0 587.98 Z" class="st9"/>
			</g>
		</g>
		<g id="group1061-45" transform="translate(705.87,-536.948)" v:mID="1061" v:groupContext="group">
			<v:userDefs>
				<v:ud v:nameU="visNavOrder" v:val="VT0(9000):26"/>
			</v:userDefs>
			<title>Sheet.1061</title>
		</g>
		<g id="shape1071-46" v:mID="1071" v:groupContext="shape" transform="translate(250.34,-508.668)">
			<title>Sheet.1071</title>
			<desc>Event Hub</desc>
			<v:userDefs>
				<v:ud v:nameU="visNavOrder" v:val="VT0(13000):26"/>
			</v:userDefs>
			<v:textBlock v:margins="rect(4,4,4,4)"/>
			<v:textRect cx="37.75" cy="579.5" width="75.5" height="20"/>
			<rect x="0" y="569.5" width="75.5" height="20" class="st10"/>
			<text x="12.72" y="582.8" class="st11" v:langID="1033"><v:paragraph v:horizAlign="1"/><v:tabList/>Event Hub</text>		</g>
		<g id="shape1075-49" v:mID="1075" v:groupContext="shape" transform="translate(447.002,-508.668)">
			<title>Sheet.1075</title>
			<desc>Stream Analytics</desc>
			<v:userDefs>
				<v:ud v:nameU="visNavOrder" v:val="VT0(17000):26"/>
			</v:userDefs>
			<v:textBlock v:margins="rect(4,4,4,4)"/>
			<v:textRect cx="48.6425" cy="579.5" width="97.29" height="20"/>
			<rect x="0" y="569.5" width="97.285" height="20" class="st10"/>
			<text x="8.5" y="582.8" class="st11" v:langID="1033"><v:paragraph v:horizAlign="1"/><v:tabList/>Stream Analytics</text>		</g>
		<g id="shape1078-52" v:mID="1078" v:groupContext="shape" transform="translate(1314.09,38.5125) rotate(90)">
			<title>Sheet.1078</title>
			<v:userDefs>
				<v:ud v:nameU="visNavOrder" v:val="VT0(20000):26"/>
			</v:userDefs>
			<path d="M0 589.5 L141.11 589.5" class="st12"/>
		</g>
		<g id="group1101-58" transform="translate(475.485,-55.9075)" v:mID="1101" v:groupContext="group">
			<v:userDefs>
				<v:ud v:nameU="visNavOrder" v:val="VT0(32000):26"/>
			</v:userDefs>
			<title>Data Factory.1101</title>
			<g id="shape1102-59" v:mID="1102" v:groupContext="shape" transform="translate(10.3172,0)">
				<title>Sheet.1102</title>
				<v:userDefs>
					<v:ud v:nameU="msvDisableCustomConnectionPoints" v:prompt="" v:val="VT0(1):5"/>
				</v:userDefs>
				<path d="M19.92 572.85 L19.92 563.58 a0.332047 0.332047 -180 0 0 -0.569224 -0.237176 L9.87 572.83 L0 582.69 L0 589.5
							 L28.65 589.5 A1.32819 1.32819 -180 0 0 30 588.15 L30 563.58 a0.332047 0.332047 -180 0 0 -0.569224 -0.237176
							 L19.92 572.85 Z" class="st14"/>
			</g>
			<g id="shape1103-61" v:mID="1103" v:groupContext="shape">
				<title>Sheet.1103</title>
				<v:userDefs>
					<v:ud v:nameU="msvDisableCustomConnectionPoints" v:prompt="" v:val="VT0(1):5"/>
				</v:userDefs>
				<path d="M10.08 556.49 C4.51 556.49 0 554.85 0 552.74 L0 588.15 A1.32819 1.32819 -180 0 0 1.35 589.5 L20.16 589.5
							 L20.16 552.74 C20.16 554.85 15.65 556.49 10.08 556.49 Z" class="st15"/>
			</g>
			<g id="shape1104-65" v:mID="1104" v:groupContext="shape" transform="translate(29.4336,-5.36019)">
				<title>Sheet.1104</title>
				<v:userDefs>
					<v:ud v:nameU="msvDisableCustomConnectionPoints" v:prompt="" v:val="VT0(1):5"/>
				</v:userDefs>
				<path d="M0 588.84 a0.664109 0.664109 -180 0 0 0.664094 0.664094 L4.72 589.5 a0.664109 0.664109 -180 0 0 0.664094
							 -0.664094 L5.38 584.78 a0.664109 0.664109 -180 0 0 -0.664094 -0.664094 L0.66 584.12 a0.664109 0.664109
							 -180 0 0 -0.664094 0.664094 L0 588.84 Z" class="st16"/>
			</g>
			<g id="shape1105-67" v:mID="1105" v:groupContext="shape" transform="translate(20.0888,-5.36019)">
				<title>Sheet.1105</title>
				<v:userDefs>
					<v:ud v:nameU="msvDisableCustomConnectionPoints" v:prompt="" v:val="VT0(1):5"/>
				</v:userDefs>
				<path d="M0 588.84 a0.664109 0.664109 -180 0 0 0.664094 0.664094 L4.72 589.5 a0.664109 0.664109 -180 0 0 0.664094
							 -0.664094 L5.38 584.78 a0.664109 0.664109 -180 0 0 -0.664094 -0.664094 L0.66 584.12 a0.664109 0.664109
							 -180 0 0 -0.664094 0.664094 L0 588.84 Z" class="st16"/>
			</g>
			<g id="shape1106-69" v:mID="1106" v:groupContext="shape" transform="translate(10.7441,-5.36019)">
				<title>Sheet.1106</title>
				<v:userDefs>
					<v:ud v:nameU="msvDisableCustomConnectionPoints" v:prompt="" v:val="VT0(1):5"/>
				</v:userDefs>
				<path d="M0 588.84 a0.664109 0.664109 -180 0 0 0.664094 0.664094 L4.72 589.5 a0.664109 0.664109 -180 0 0 0.664094
							 -0.664094 L5.38 584.78 a0.664109 0.664109 -180 0 0 -0.664094 -0.664094 L0.66 584.12 a0.664109 0.664109
							 -180 0 0 -0.664094 0.664094 L0 588.84 Z" class="st16"/>
			</g>
			<g id="shape1107-71" v:mID="1107" v:groupContext="shape" transform="translate(0,-33.1098)">
				<title>Sheet.1107</title>
				<v:userDefs>
					<v:ud v:nameU="msvDisableCustomConnectionPoints" v:prompt="" v:val="VT0(1):5"/>
				</v:userDefs>
				<path d="M20.16 585.85 C20.16 587.86 15.65 589.5 10.08 589.5 C4.51 589.5 0 587.96 0 585.85 C0 583.74 4.51 582.29
							 10.08 582.29 C15.65 582.29 20.16 583.93 20.16 585.85 Z" class="st17"/>
			</g>
			<g id="shape1108-73" v:mID="1108" v:groupContext="shape" transform="translate(2.32433,-34.604)">
				<title>Sheet.1108</title>
				<v:userDefs>
					<v:ud v:nameU="msvDisableCustomConnectionPoints" v:prompt="" v:val="VT0(1):5"/>
				</v:userDefs>
				<path d="M15.46 587.13 C15.46 588.43 12 589.5 7.73 589.5 C3.46 589.5 0 588.48 0 587.13 C0 585.78 3.61 584.83 7.76
							 584.83 C11.91 584.83 15.46 585.85 15.46 587.13 Z" class="st3"/>
			</g>
			<g id="shape1109-75" v:mID="1109" v:groupContext="shape" transform="translate(3.96085,-34.6515)">
				<title>Sheet.1109</title>
				<v:userDefs>
					<v:ud v:nameU="msvDisableCustomConnectionPoints" v:prompt="" v:val="VT0(1):5"/>
				</v:userDefs>
				<path d="M6.12 587.72 A19.1401 19.1401 -180 0 0 -0 588.6 A18.1203 18.1203 -180 0 0 6.12 589.5 A18.1203 18.1203 -180
							 0 0 12.24 588.6 A19.1401 19.1401 -180 0 0 6.12 587.72 Z" class="st18"/>
			</g>
		</g>
		<g id="group1116-77" transform="translate(466.537,-200.154)" v:mID="1116" v:groupContext="group">
			<v:userDefs>
				<v:ud v:nameU="visNavOrder" v:val="VT0(34000):26"/>
			</v:userDefs>
			<title>HDInsight.1116</title>
			<g id="shape1117-78" v:mID="1117" v:groupContext="shape" transform="translate(30.5177,-1.9438)">
				<title>Sheet.1117</title>
				<path d="M5.93 583.47 C5.64 582.6 4.67 580.95 4.67 580.95 C4.67 580.95 4.47 583.38 2.82 585.81 C1.17 588.24 0.1 588.63
							 0.1 588.63 C0.1 588.63 0 589.4 0.87 589.5 C1.17 589.5 4.86 589.5 5.44 589.5 C6.12 589.5 6.61 588.92
							 6.61 588.24 C6.61 587.56 6.03 586.78 6.03 586.78 C6.03 586.78 6.12 584.25 5.93 583.47 Z" class="st19"/>
			</g>
			<g id="shape1118-80" v:mID="1118" v:groupContext="shape" transform="translate(0.680331,-4.95669)">
				<title>Sheet.1118</title>
				<path d="M3.11 580.85 C3.11 580.85 3.11 580.85 3.11 580.85 C3.11 580.85 1.75 582.41 0.87 583.57 C-0 584.74 0.58 585.52
							 0.58 585.52 C0.58 585.52 3.01 589.5 5.05 588.92 C5.73 588.72 6.32 587.65 6.32 587.65 C6.32 587.65 5.44
							 586.49 4.76 585.03 C3.98 583.47 3.3 581.14 3.11 580.85 Z" class="st19"/>
			</g>
			<g id="shape1119-82" v:mID="1119" v:groupContext="shape">
				<title>Sheet.1119</title>
				<path d="M57.83 558.4 C57.54 550.72 55.4 548.68 54.82 548.68 C54.04 548.78 53.75 550.04 52.87 550.62 C51.71 551.5
							 50.93 551.3 50.25 551.98 C49.57 552.66 50.93 554.41 50.73 558.98 C50.54 563.16 47.82 564.72 47.82 564.72
							 C47.82 564.72 49.08 562.87 49.28 561.61 C49.47 560.63 48.89 560.44 48.5 560.15 C47.72 559.47 46.17 561.22
							 45.78 561.61 C46.46 560.83 47.53 559.95 47.14 559.18 C46.36 557.91 44.71 558.79 44.32 558.89 C44.71
							 558.69 45.48 558.4 45.29 557.62 C45 556.26 43.64 556.55 43.44 556.65 C44.03 556.36 44.32 556.07 45.87
							 556.16 C46.75 556.16 46.55 555.29 45.97 554.61 C45.1 553.54 44.51 553.15 43.83 552.96 C43.06 552.66
							 41.5 552.86 41.5 552.86 C41.5 552.86 42.57 552.18 43.15 552.28 C42.37 551.21 39.85 547.32 35.47 547.13
							 C27.5 546.74 25.17 551.89 25.17 551.89 L29.06 551.69 C29.06 551.69 27.89 552.18 25.56 552.57 C23.71
							 552.86 23.81 552.86 23.23 552.96 C22.35 553.15 20.12 555.87 18.08 558.2 C16.04 560.54 13.9 563.45 13.9
							 564.62 C13.9 565.79 15.06 566.56 15.74 567.54 C16.43 568.51 16.62 568.99 16.62 568.99 L19.44 565.69
							 L16.13 572.49 C16.13 572.49 17.69 574.53 19.34 574.34 C20.6 574.14 23.42 571.91 25.17 571.62 C27.02
							 571.23 27.8 571.52 27.8 571.52 C27.8 571.52 29.06 568.22 28.48 565.88 C27.41 561.7 28.19 559.47 29.06
							 558.11 C28.38 563.65 30.23 564.04 30.13 567.63 C30.03 570.35 29.16 573.27 29.16 573.27 C29.16 573.27
							 26.53 572.39 24.49 573.46 C22.45 574.53 20.7 575.99 18.76 575.99 C16.72 575.99 14 572.49 14 572.49 L15.45
							 570.35 C15.45 570.35 15.26 569.67 14.68 568.99 C13.8 567.92 12.34 566.37 12.25 565.11 C12.15 562.97
							 14.29 560.63 15.06 559.76 C15.84 558.79 18.17 556.26 18.17 556.26 C18.17 556.26 11.37 557.23 8.55 560.54
							 C5.15 564.62 4.67 565.79 3.4 565.98 C2.14 566.17 1.65 564.81 1.65 564.81 C1.65 564.81 2.62 564.72 2.53
							 563.55 C2.33 561.7 2.82 560.63 2.82 560.63 C2.82 560.63 0.78 561.9 0.39 563.16 C-0 564.42 0.87 564.81
							 0.87 564.81 C0.87 564.81 0.87 567.15 2.24 567.63 C3.6 568.22 4.67 567.73 4.67 567.73 C4.67 567.73 3.79
							 572.01 4.96 575.12 C6.12 578.23 8.46 581.63 8.46 581.63 C8.46 581.63 8.26 583.96 7.97 584.54 C7.78 585.13
							 6.9 586.49 8.26 587.46 C9.62 588.43 13.02 588.82 13.8 588.33 C14.58 587.85 14.38 586.49 14.48 586 C14.58
							 585.52 15.65 583.57 15.84 583.09 C15.94 582.5 15.94 579.59 15.74 578.61 C15.94 579.1 16.81 581.34 20.02
							 581.43 C22.94 581.53 23.91 579.98 23.91 578.91 C23.91 579.39 24.1 581.53 23.81 581.92 C23.52 582.31
							 22.65 582.6 21.77 583.09 C20.9 583.67 19.73 584.25 21.67 586.58 C23.81 589.31 24.2 589.5 26.05 588.04
							 C27.89 586.58 29.84 585.22 31.2 583.47 C32.56 581.72 34.99 575.31 34.99 575.31 C34.99 575.31 33.53 574.34
							 32.56 573.07 C31.88 572.1 31.68 571.52 31.68 571.52 C31.68 571.52 33.63 573.46 35.67 573.95 C36.45 574.82
							 37.71 576.09 38.78 576.48 C42.76 578.13 44.03 573.17 44.03 573.17 L43.44 573.07 C43.44 573.07 42.37
							 575.6 40.63 575.41 C37.13 575.02 38.2 567.83 38.2 567.83 C38.2 567.83 41.69 572.88 48.79 572.69 C53.16
							 572.78 58.22 567.73 57.83 558.4 ZM33.14 558.11 C33.14 558.11 33.43 554.8 34.11 554.32 C34.99 553.73
							 37.32 554.51 37.32 554.51 C37.32 554.51 35.86 554.51 34.99 555.29 C34.21 555.97 33.14 558.11 33.14 558.11
							 ZM38.78 561.02 C37.71 561.9 36.74 562.97 36.74 562.97 C36.74 562.97 36.93 562.48 37.13 562.19 C37.32
							 561.8 37.61 561.41 37.61 561.41 C37.61 561.41 37.22 561.31 36.74 560.83 C36.45 560.54 36.35 560.25 36.25
							 560.05 C36.25 560.05 36.06 560.15 35.77 560.44 C35.47 560.63 35.09 561.12 35.09 561.12 C35.09 561.12
							 36.06 559.27 37.42 558.3 C38.88 557.33 40.33 557.33 40.33 557.33 C40.33 557.33 40.14 557.33 39.65 557.62
							 C39.17 557.91 39.17 557.91 39.17 557.91 C39.17 557.91 39.65 558.11 40.04 558.5 C40.43 558.98 40.53 559.57
							 40.53 559.57 C40.53 559.57 40.63 559.57 41.11 559.37 C41.6 559.18 42.08 559.18 42.08 559.18 C42.08 559.18
							 40.33 559.76 38.78 561.02 ZM53.45 552.28 C52.29 553.15 51.02 553.25 50.93 552.86 C50.73 552.47 51.02
							 552.47 51.02 552.47 C51.02 552.47 52.29 551.98 52.97 551.5 C53.84 550.82 54.62 549.26 54.91 549.65 C55.2
							 550.14 54.43 551.6 53.45 552.28 Z" class="st19"/>
			</g>
		</g>
		<g id="shape1122-84" v:mID="1122" v:groupContext="shape" transform="translate(440.39,-177.668)">
			<title>Sheet.1122</title>
			<desc>HDInsight</desc>
			<v:userDefs>
				<v:ud v:nameU="visNavOrder" v:val="VT0(37000):26"/>
			</v:userDefs>
			<v:textBlock v:margins="rect(4,4,4,4)"/>
			<v:textRect cx="55.255" cy="579.5" width="110.52" height="20"/>
			<rect x="0" y="569.5" width="110.51" height="20" class="st10"/>
			<text x="31.04" y="582.8" class="st11" v:langID="1033"><v:paragraph v:horizAlign="1"/><v:tabList/>HDInsight</text>		</g>
		<g id="shape1123-87" v:mID="1123" v:groupContext="shape" transform="translate(1314.09,411.832) rotate(90)">
			<title>Sheet.1123</title>
			<v:userDefs>
				<v:ud v:nameU="visNavOrder" v:val="VT0(38000):26"/>
			</v:userDefs>
			<path d="M7.68 589.5 L8.04 589.5 L101.6 589.5" class="st20"/>
		</g>
		<g id="shape1124-93" v:mID="1124" v:groupContext="shape" transform="translate(535.59,-76.0675)">
			<title>Sheet.1124</title>
			<v:userDefs>
				<v:ud v:nameU="visNavOrder" v:val="VT0(39000):26"/>
			</v:userDefs>
			<path d="M7.68 589.5 L8.04 589.5 L189 589.5" class="st20"/>
		</g>
		<g id="shape1126-98" v:mID="1126" v:groupContext="shape" transform="translate(440.39,-33.5675)">
			<title>Sheet.1126</title>
			<desc>Data Factory</desc>
			<v:userDefs>
				<v:ud v:nameU="visNavOrder" v:val="VT0(41000):26"/>
			</v:userDefs>
			<v:textBlock v:margins="rect(4,4,4,4)"/>
			<v:textRect cx="55.255" cy="579.5" width="110.52" height="20"/>
			<rect x="0" y="569.5" width="110.51" height="20" class="st10"/>
			<text x="24.75" y="582.8" class="st11" v:langID="1033"><v:paragraph v:horizAlign="1"/><v:tabList/>Data Factory</text>		</g>
		<g id="shape1127-101" v:mID="1127" v:groupContext="shape" transform="translate(1085.14,81.0825) rotate(90)">
			<title>Sheet.1127</title>
			<v:userDefs>
				<v:ud v:nameU="visNavOrder" v:val="VT0(42000):26"/>
			</v:userDefs>
			<path d="M0 589.5 L90.96 589.5" class="st12"/>
		</g>
		<g id="shape1128-106" v:mID="1128" v:groupContext="shape" transform="translate(330.84,-550.988)">
			<title>Sheet.1128</title>
			<v:userDefs>
				<v:ud v:nameU="visNavOrder" v:val="VT0(43000):26"/>
			</v:userDefs>
			<path d="M0 589.5 L104.46 589.5" class="st12"/>
		</g>
		<g id="shape1130-111" v:mID="1130" v:groupContext="shape" transform="translate(137.34,-550.988)">
			<title>Sheet.1130</title>
			<v:userDefs>
				<v:ud v:nameU="visNavOrder" v:val="VT0(45000):26"/>
			</v:userDefs>
			<path d="M0 589.5 L104.46 589.5" class="st12"/>
		</g>
		<g id="shape1133-116" v:mID="1133" v:groupContext="shape" transform="translate(1085.14,265.852) rotate(90)">
			<title>Sheet.1133</title>
			<v:userDefs>
				<v:ud v:nameU="visNavOrder" v:val="VT0(48000):26"/>
			</v:userDefs>
			<path d="M7.68 589.5 L8.04 589.5 L67.03 589.5" class="st21"/>
		</g>
		<g id="shape1134-123" v:mID="1134" v:groupContext="shape" transform="translate(1085.14,411.832) rotate(90)">
			<title>Sheet.1134</title>
			<v:userDefs>
				<v:ud v:nameU="visNavOrder" v:val="VT0(49000):26"/>
			</v:userDefs>
			<path d="M7.68 589.5 L8.04 589.5 L73.67 589.5" class="st21"/>
		</g>
		<g id="group1135-130" transform="translate(573.84,-540.188)" v:mID="1135" v:groupContext="group">
			<v:userDefs>
				<v:ud v:nameU="visNavOrder" v:val="VT0(50000):26"/>
			</v:userDefs>
			<title>Azure ML.1135</title>
			<g id="shape1136-131" v:mID="1136" v:groupContext="shape">
				<title>bc892891-989d-4c43-80d3-d2b4546</title>
				<path d="M20.1 589.5 L1.5 589.5 L0 584.29 L21.6 584.29 L20.1 589.5 Z" class="st18"/>
			</g>
			<g id="shape1137-133" v:mID="1137" v:groupContext="shape">
				<title>Sheet.1137</title>
				<path d="M7.93 567.9 L7.93 576.03 L0 584.29 L1.5 589.5 L13.67 576.03 L13.67 567.9 L7.93 567.9 Z" class="st22"/>
			</g>
			<g id="shape1138-137" v:mID="1138" v:groupContext="shape" transform="translate(11.6203,1.13687E-13)">
				<title>e6be01d6-345d-4df4-bbdb-151aa8e</title>
				<path d="M8.48 589.5 L0 581.37 L3.55 577.56 L9.98 584.29 L8.48 589.5 Z" class="st4"/>
			</g>
		</g>
		<g id="group1146-139" transform="translate(474.859,-352.947)" v:mID="1146" v:groupContext="group">
			<v:userDefs>
				<v:ud v:nameU="visNavOrder" v:val="VT0(52000):26"/>
			</v:userDefs>
			<title>Storage blob.1146</title>
			<g id="shape1147-140" v:mID="1147" v:groupContext="shape">
				<title>Sheet.1147</title>
				<path d="M31.18 553.5 L10.39 553.5 L0 571.5 L10.39 589.5 L31.18 589.5 L41.57 571.5 L31.18 553.5 ZM31.23 579.54 C31.23
							 581.09 29.97 582.35 28.42 582.35 L13.15 582.35 C11.6 582.35 10.34 581.1 10.34 579.54 L10.34 563.45 C10.34
							 561.91 11.6 560.65 13.15 560.65 L24.48 560.65 C25.6 560.65 26.58 560.65 26.58 560.65 L26.89 560.65 L31.23
							 564.93 L31.23 567.22 L31.23 579.54 Z" class="st23"/>
			</g>
			<g id="shape1148-142" v:mID="1148" v:groupContext="shape" transform="translate(17.3952,-11.6219)">
				<title>Sheet.1148</title>
				<path d="M1.77 586.01 C1.74 585.85 1.7 585.71 1.65 585.59 C1.6 585.48 1.54 585.39 1.47 585.32 C1.4 585.25 1.32 585.21
							 1.24 585.18 C1.15 585.15 1.05 585.13 0.94 585.13 C0.76 585.13 0.6 585.18 0.48 585.27 C0.36 585.36 0.26
							 585.49 0.19 585.67 C0.12 585.85 0.07 586.08 0.04 586.35 C0.02 586.61 0 586.93 0 587.28 C0 587.72 0.02
							 588.08 0.05 588.36 C0.09 588.65 0.14 588.87 0.21 589.04 C0.29 589.21 0.38 589.33 0.5 589.4 C0.62 589.47
							 0.76 589.5 0.92 589.5 C1.04 589.5 1.15 589.48 1.25 589.44 C1.34 589.4 1.43 589.34 1.5 589.26 C1.57 589.19
							 1.63 589.09 1.67 588.97 C1.72 588.85 1.76 588.71 1.79 588.55 C1.82 588.39 1.84 588.21 1.85 588.02 C1.86
							 587.82 1.87 587.6 1.87 587.36 C1.87 587.07 1.86 586.81 1.84 586.59 C1.83 586.37 1.8 586.17 1.77 586.01
							 Z" class="st23"/>
			</g>
			<g id="shape1149-144" v:mID="1149" v:groupContext="shape" transform="translate(22.3049,-20.015)">
				<title>Sheet.1149</title>
				<path d="M1.77 586.01 C1.74 585.85 1.7 585.71 1.65 585.59 C1.6 585.48 1.54 585.39 1.47 585.32 C1.4 585.25 1.32 585.21
							 1.23 585.18 C1.15 585.15 1.05 585.13 0.94 585.13 C0.75 585.13 0.6 585.18 0.48 585.27 C0.36 585.36 0.26
							 585.49 0.19 585.67 C0.12 585.85 0.07 586.08 0.04 586.35 C0.01 586.61 0 586.93 0 587.28 C0 587.72 0.02
							 588.08 0.05 588.36 C0.09 588.65 0.14 588.87 0.21 589.04 C0.29 589.21 0.38 589.33 0.5 589.4 C0.62 589.47
							 0.76 589.5 0.92 589.5 C1.04 589.5 1.15 589.48 1.25 589.44 C1.34 589.4 1.42 589.34 1.49 589.26 C1.57
							 589.19 1.62 589.09 1.67 588.97 C1.72 588.85 1.76 588.71 1.79 588.55 C1.82 588.39 1.84 588.21 1.85 588.02
							 C1.86 587.82 1.86 587.6 1.86 587.36 C1.86 587.07 1.86 586.81 1.84 586.59 C1.83 586.37 1.8 586.17 1.77
							 586.01 Z" class="st23"/>
			</g>
			<g id="shape1150-146" v:mID="1150" v:groupContext="shape" transform="translate(11.8742,-8.68412)">
				<title>Sheet.1150</title>
				<path d="M14.35 570.88 C13.96 570.87 13.31 570.87 12.59 570.87 L1.27 570.87 C0.57 570.87 -0 571.45 0 572.14 L0 588.23
							 C-0 588.93 0.57 589.5 1.27 589.5 L16.55 589.5 C17.24 589.5 17.82 588.93 17.82 588.23 L17.82 574.41 L14.35
							 574.41 L14.35 570.88 L14.35 570.88 ZM4.7 574.08 C4.71 574.03 4.71 573.99 4.73 573.95 C4.74 573.92 4.76
							 573.89 4.78 573.87 C4.8 573.85 4.83 573.82 4.87 573.8 L6.18 572.95 C6.2 572.93 6.22 572.92 6.24 572.92
							 C6.27 572.91 6.3 572.9 6.33 572.9 C6.37 572.89 6.42 572.89 6.48 572.89 C6.55 572.89 6.62 572.89 6.72
							 572.89 C6.84 572.89 6.94 572.89 7.01 572.89 C7.09 572.9 7.14 572.91 7.18 572.92 C7.22 572.93 7.24 572.94
							 7.26 572.96 C7.27 572.98 7.28 573 7.28 573.03 L7.28 578.09 L8.27 578.09 C8.3 578.09 8.33 578.1 8.35
							 578.11 C8.38 578.13 8.4 578.16 8.41 578.2 C8.43 578.23 8.44 578.28 8.45 578.35 C8.46 578.41 8.46 578.48
							 8.46 578.58 C8.46 578.66 8.46 578.74 8.45 578.8 C8.44 578.86 8.43 578.91 8.41 578.95 C8.39 578.98 8.37
							 579.01 8.35 579.02 C8.33 579.04 8.3 579.05 8.27 579.05 L4.9 579.05 C4.87 579.05 4.85 579.04 4.83 579.02
							 C4.8 579.01 4.78 578.98 4.77 578.95 C4.75 578.91 4.74 578.86 4.73 578.8 C4.72 578.74 4.71 578.66 4.71
							 578.58 C4.71 578.48 4.72 578.41 4.73 578.35 C4.73 578.28 4.75 578.23 4.76 578.2 C4.78 578.16 4.8 578.13
							 4.82 578.11 C4.84 578.1 4.87 578.09 4.9 578.09 L6.04 578.09 L6.04 574.11 L5.05 574.65 C4.98 574.68 4.92
							 574.71 4.88 574.71 C4.83 574.72 4.8 574.71 4.77 574.69 C4.74 574.66 4.72 574.61 4.71 574.55 C4.7 574.48
							 4.7 574.39 4.7 574.27 C4.7 574.19 4.7 574.13 4.7 574.08 ZM8.52 585.68 C8.45 586.08 8.32 586.41 8.14
							 586.69 C7.96 586.97 7.73 587.18 7.44 587.33 C7.16 587.48 6.81 587.55 6.4 587.55 C5.98 587.55 5.63 587.48
							 5.36 587.33 C5.08 587.19 4.87 586.98 4.7 586.71 C4.54 586.44 4.43 586.11 4.37 585.73 C4.3 585.34 4.27
							 584.9 4.27 584.4 C4.27 583.92 4.31 583.48 4.39 583.08 C4.47 582.69 4.6 582.35 4.78 582.07 C4.96 581.8
							 5.19 581.58 5.47 581.43 C5.76 581.29 6.11 581.21 6.52 581.21 C6.94 581.21 7.28 581.28 7.56 581.43 C7.83
							 581.57 8.05 581.78 8.21 582.05 C8.37 582.32 8.49 582.65 8.55 583.04 C8.61 583.43 8.64 583.87 8.64 584.36
							 C8.64 584.85 8.6 585.29 8.52 585.68 ZM13.36 587.19 C13.35 587.25 13.34 587.3 13.32 587.34 C13.3 587.38
							 13.28 587.4 13.26 587.42 C13.24 587.43 13.21 587.44 13.18 587.44 L9.81 587.44 C9.78 587.44 9.76 587.43
							 9.74 587.42 C9.71 587.4 9.69 587.38 9.68 587.34 C9.66 587.3 9.64 587.25 9.64 587.19 C9.63 587.13 9.62
							 587.06 9.62 586.97 C9.62 586.88 9.63 586.8 9.63 586.74 C9.64 586.68 9.65 586.63 9.67 586.59 C9.69 586.55
							 9.71 586.52 9.73 586.51 C9.75 586.49 9.78 586.48 9.81 586.48 L10.95 586.48 L10.95 582.5 L9.96 583.04
							 C9.89 583.08 9.83 583.1 9.79 583.11 C9.74 583.11 9.7 583.11 9.68 583.08 C9.65 583.05 9.63 583.01 9.62
							 582.94 C9.61 582.87 9.61 582.78 9.61 582.66 C9.61 582.59 9.61 582.52 9.61 582.47 C9.62 582.43 9.62 582.38
							 9.64 582.35 C9.65 582.31 9.67 582.29 9.69 582.26 C9.71 582.24 9.74 582.22 9.78 582.19 L11.09 581.34
							 C11.11 581.33 11.13 581.32 11.15 581.31 C11.18 581.3 11.21 581.3 11.24 581.29 C11.28 581.29 11.33 581.28
							 11.39 581.28 C11.45 581.28 11.53 581.28 11.63 581.28 C11.75 581.28 11.85 581.28 11.92 581.29 C12 581.29
							 12.05 581.3 12.09 581.31 C12.13 581.32 12.15 581.34 12.17 581.36 C12.18 581.38 12.19 581.4 12.19 581.43
							 L12.19 586.48 L13.18 586.48 C13.21 586.48 13.24 586.49 13.26 586.51 C13.29 586.53 13.31 586.55 13.32
							 586.59 C13.34 586.63 13.35 586.68 13.36 586.74 C13.37 586.8 13.37 586.88 13.37 586.97 C13.37 587.06
							 13.37 587.13 13.36 587.19 ZM13.43 577.29 C13.35 577.68 13.23 578.02 13.05 578.3 C12.87 578.57 12.64
							 578.79 12.35 578.93 C12.07 579.08 11.72 579.16 11.31 579.16 C10.89 579.16 10.54 579.08 10.27 578.94
							 C9.99 578.8 9.77 578.59 9.61 578.32 C9.45 578.05 9.34 577.72 9.27 577.33 C9.21 576.94 9.18 576.5 9.18
							 576.01 C9.18 575.52 9.22 575.08 9.3 574.69 C9.38 574.29 9.51 573.96 9.69 573.68 C9.86 573.4 10.1 573.19
							 10.38 573.04 C10.67 572.89 11.01 572.82 11.42 572.82 C11.84 572.82 12.19 572.89 12.47 573.03 C12.74
							 573.18 12.96 573.38 13.12 573.65 C13.28 573.92 13.39 574.25 13.46 574.64 C13.52 575.03 13.55 575.47
							 13.55 575.96 C13.55 576.45 13.51 576.89 13.43 577.29 Z" class="st23"/>
			</g>
		</g>
		<g id="group1151-148" transform="translate(704.43,-198.496)" v:mID="1151" v:groupContext="group">
			<v:userDefs>
				<v:ud v:nameU="visNavOrder" v:val="VT0(53000):26"/>
			</v:userDefs>
			<title>Azure Synapse Analytics.1151</title>
			<g id="shape1152-149" v:mID="1152" v:groupContext="shape">
				<title>Sheet.1152</title>
				<v:userDefs>
					<v:ud v:nameU="msvDisableCustomConnectionPoints" v:prompt="" v:val="VT0(1):5"/>
				</v:userDefs>
				<path d="M20.16 543.42 L0 554.91 L0 577.88 L20.16 589.5 L40.32 578.01 L40.32 554.97 L20.16 543.42 ZM36.6 575.6 L20.16
							 585.07 L3.72 575.7 L3.72 557.19 L20.16 547.72 L36.6 557.22 L36.6 575.6 Z" class="st24"/>
			</g>
			<g id="shape1153-151" v:mID="1153" v:groupContext="shape" transform="translate(0,-32.3072)">
				<title>Sheet.1153</title>
				<v:userDefs>
					<v:ud v:nameU="msvDisableCustomConnectionPoints" v:prompt="" v:val="VT0(1):5"/>
				</v:userDefs>
				<path d="M20.16 575.73 L0 587.22 L3.72 589.5 L20.16 580.03 L36.6 589.5 L40.32 587.22 L20.16 575.73 Z" class="st25"/>
			</g>
			<g id="shape1154-155" v:mID="1154" v:groupContext="shape" transform="translate(6.32536,-5.75744)">
				<title>Sheet.1154</title>
				<v:userDefs>
					<v:ud v:nameU="msvDisableCustomConnectionPoints" v:prompt="" v:val="VT0(1):5"/>
				</v:userDefs>
				<path d="M23.44 575.99 A1.87475 1.8688 -180 0 0 22.61 575.26 A14.9852 14.9376 -180 0 0 11.11 566.7 L27.74 557.11
							 L23.88 554.9 L4.93 565.82 A1.92611 1.92 -180 0 0 5.9 569.4 A1.75662 1.75104 -180 0 0 6.13 569.34 L6.45
							 570.68 A11.0919 11.0566 0 0 1 18.87 576.41 L0 587.28 L3.85 589.5 L22.74 578.62 A1.87218 1.86624 -180
							 0 0 23.36 578.01 L23.55 577.97 C23.53 577.89 23.5 577.83 23.49 577.75 A1.88759 1.8816 -180 0 0 23.44
							 575.99 Z" class="st3"/>
			</g>
			<g id="shape1155-157" v:mID="1155" v:groupContext="shape" transform="translate(8.86232,-14.9219)">
				<title>Sheet.1155</title>
				<v:userDefs>
					<v:ud v:nameU="msvDisableCustomConnectionPoints" v:prompt="" v:val="VT0(1):5"/>
				</v:userDefs>
				<path d="M19.24 581.42 A4.75108 4.736 -180 1 0 23.99 586.15 A4.75108 4.736 -180 0 0 19.24 581.42 ZM3.36 571.83 A4.75108
							 4.736 -180 1 0 8.11 576.56 A4.75108 4.736 -180 0 0 3.36 571.83 Z" class="st26"/>
			</g>
		</g>
		<g id="group1156-161" transform="translate(60.84,-352.947)" v:mID="1156" v:groupContext="group">
			<v:userDefs>
				<v:ud v:nameU="visNavOrder" v:val="VT0(54000):26"/>
			</v:userDefs>
			<title>Car.1156</title>
			<g id="shape1157-162" v:mID="1157" v:groupContext="shape" transform="translate(9.81818,1.13687E-13)">
				<title>Sheet.1157</title>
				<ellipse cx="6.54545" cy="582.955" rx="6.54545" ry="6.54545" class="st27"/>
			</g>
			<g id="shape1158-164" v:mID="1158" v:groupContext="shape" transform="translate(49.0909,1.13687E-13)">
				<title>Sheet.1158</title>
				<ellipse cx="6.54545" cy="582.955" rx="6.54545" ry="6.54545" class="st27"/>
			</g>
			<g id="shape1159-166" v:mID="1159" v:groupContext="shape" transform="translate(0,-6.54545)">
				<title>Sheet.1159</title>
				<path d="M63.82 573.14 C68.32 573.14 72 576.82 72 581.32 L72 586.23 C72 588.03 70.53 589.5 68.73 589.5 L64.64 589.5
							 C64.64 584.51 60.63 580.5 55.64 580.5 C50.65 580.5 46.64 584.51 46.64 589.5 L25.36 589.5 C25.36 584.51
							 21.35 580.5 16.36 580.5 C11.37 580.5 7.36 584.51 7.36 589.5 L6.55 589.5 C2.95 589.5 0 586.55 0 582.95
							 L0 574.53 C0 573.63 0.33 572.81 0.98 572.15 L11.13 561.93 C12.35 560.7 14.07 560.05 15.79 560.05 L39.76
							 560.05 C41.56 560.05 43.2 560.7 44.43 561.93 L54.74 572.15 C55.31 572.81 56.13 573.14 57.03 573.14 L63.82
							 573.14 ZM25.36 573.14 L25.36 563.32 L15.79 563.32 C14.97 563.32 14.15 563.65 13.5 564.3 L4.66 573.14
							 L25.36 573.14 ZM28.64 573.14 L50.97 573.14 L42.14 564.3 C41.56 563.65 40.75 563.32 39.85 563.32 L28.64
							 563.32 L28.64 573.14 Z" class="st27"/>
			</g>
		</g>
		<g id="group1160-168" transform="translate(704.43,-350.787)" v:mID="1160" v:groupContext="group">
			<v:userDefs>
				<v:ud v:nameU="visNavOrder" v:val="VT0(55000):26"/>
			</v:userDefs>
			<title>Power BI.1160</title>
			<g id="group1161-169" v:mID="1161" v:groupContext="group">
				<title>Sheet.1161</title>
				<g id="shape1162-170" v:mID="1162" v:groupContext="shape" transform="translate(22.4,-0.822857)">
					<title>Sheet.1162</title>
					<path d="M17.92 550 L17.92 589.5 L0 589.5 L0 550 L17.92 550 Z" class="st28"/>
				</g>
				<g id="shape1163-174" v:mID="1163" v:groupContext="shape" transform="translate(11.2001,-0.658286)">
					<title>Sheet.1163</title>
					<path d="M17.92 561.52 L17.92 589.5 L0 589.5 L0 559.88 L15.68 559.88 C16.92 559.88 17.92 560.61 17.92 561.52 Z"
							class="st29"/>
				</g>
				<g id="shape1164-176" v:mID="1164" v:groupContext="shape" transform="translate(11.2001,0)">
					<title>Sheet.1164</title>
					<path d="M17.92 561.52 L17.92 589.5 L0 589.5 L0 559.88 L15.68 559.88 C16.92 559.88 17.92 560.61 17.92 561.52 Z"
							class="st30"/>
				</g>
				<g id="shape1165-178" v:mID="1165" v:groupContext="shape" transform="translate(11.2001,-0.822857)">
					<title>Sheet.1165</title>
					<path d="M17.92 561.52 L17.92 589.5 L0 589.5 L0 559.88 L15.68 559.88 C16.92 559.88 17.92 560.61 17.92 561.52 Z"
							class="st31"/>
				</g>
				<g id="shape1166-182" v:mID="1166" v:groupContext="shape" transform="translate(0,-0.822857)">
					<title>Sheet.1166</title>
					<path d="M0 569.75 L0 589.5 L17.92 589.5 L17.92 571.4 C17.92 570.49 16.92 569.75 15.68 569.75 L0 569.75 Z"
							class="st32"/>
				</g>
			</g>
		</g>
		<g id="shape1167-186" v:mID="1167" v:groupContext="shape" transform="translate(609.84,-550.988)">
			<title>Sheet.1167</title>
			<v:userDefs>
				<v:ud v:nameU="visNavOrder" v:val="VT0(56000):26"/>
			</v:userDefs>
			<path d="M0 589.5 L114.75 589.5" class="st33"/>
		</g>
		<g id="shape1168-189" v:mID="1168" v:groupContext="shape" transform="translate(1314.09,265.852) rotate(90)">
			<title>Sheet.1168</title>
			<v:userDefs>
				<v:ud v:nameU="visNavOrder" v:val="VT0(57000):26"/>
			</v:userDefs>
			<path d="M7.68 589.5 L8.04 589.5 L75.07 589.5" class="st20"/>
		</g>
		<g id="shape1169-194" v:mID="1169" v:groupContext="shape" transform="translate(695.482,-325.898)">
			<title>Sheet.1169</title>
			<desc>Power BI</desc>
			<v:userDefs>
				<v:ud v:nameU="visNavOrder" v:val="VT0(58000):26"/>
			</v:userDefs>
			<v:textBlock v:margins="rect(4,4,4,4)"/>
			<v:textRect cx="29.1084" cy="579.5" width="58.22" height="20"/>
			<rect x="0" y="569.5" width="58.2169" height="20" class="st10"/>
			<text x="7.92" y="582.8" class="st11" v:langID="1033"><v:paragraph v:horizAlign="1"/><v:tabList/>Power BI</text>		</g>
		<g id="shape1170-197" v:mID="1170" v:groupContext="shape" transform="translate(418.52,-325.898)">
			<title>Sheet.1170</title>
			<desc>Geography data (Blob storage)</desc>
			<v:userDefs>
				<v:ud v:nameU="visNavOrder" v:val="VT0(59000):26"/>
			</v:userDefs>
			<v:textBlock v:margins="rect(4,4,4,4)"/>
			<v:textRect cx="77.125" cy="579.5" width="154.25" height="20"/>
			<rect x="0" y="569.5" width="154.25" height="20" class="st10"/>
			<text x="38.09" y="576.2" class="st11" v:langID="1033"><v:paragraph v:horizAlign="1"/><v:tabList/>Geography data<v:newlineChar/><tspan
						x="43.11" dy="1.2em" class="st34">(Blob storage)</tspan></text>		</g>
		<g id="shape1171-201" v:mID="1171" v:groupContext="shape" transform="translate(675.948,-177.668)">
			<title>Sheet.1171</title>
			<desc>Synapse Analytics</desc>
			<v:userDefs>
				<v:ud v:nameU="visNavOrder" v:val="VT0(60000):26"/>
			</v:userDefs>
			<v:textBlock v:margins="rect(4,4,4,4)"/>
			<v:textRect cx="48.6425" cy="579.5" width="97.29" height="20"/>
			<rect x="0" y="569.5" width="97.285" height="20" class="st10"/>
			<text x="5.68" y="582.8" class="st11" v:langID="1033"><v:paragraph v:horizAlign="1"/><v:tabList/>Synapse Analytics</text>		</g>
		<g id="shape1172-204" v:mID="1172" v:groupContext="shape" transform="translate(144,-374.219)">
			<title>Sheet.1172</title>
			<v:userDefs>
				<v:ud v:nameU="visNavOrder" v:val="VT0(61000):26"/>
			</v:userDefs>
			<path d="M0 589.5 L306.96 589.5" class="st12"/>
		</g>
		<g id="group1173-209" transform="translate(281.34,-201.376)" v:mID="1173" v:groupContext="group">
			<v:userDefs>
				<v:ud v:nameU="visNavOrder" v:val="VT0(62000):26"/>
			</v:userDefs>
			<title>Azure ML.1173</title>
			<g id="shape1174-210" v:mID="1174" v:groupContext="shape">
				<title>bc892891-989d-4c43-80d3-d2b4546</title>
				<path d="M37.51 589.5 L2.81 589.5 L0 579.78 L40.32 579.78 L37.51 589.5 Z" class="st18"/>
			</g>
			<g id="shape1175-212" v:mID="1175" v:groupContext="shape">
				<title>Sheet.1175</title>
				<path d="M14.8 549.18 L14.8 564.36 L0 579.78 L2.81 589.5 L25.52 564.36 L25.52 549.18 L14.8 549.18 Z" class="st22"/>
			</g>
			<g id="shape1176-215" v:mID="1176" v:groupContext="shape" transform="translate(21.6911,2.27374E-13)">
				<title>e6be01d6-345d-4df4-bbdb-151aa8e</title>
				<path d="M15.82 589.5 L0 574.32 L6.63 567.21 L18.63 579.78 L15.82 589.5 Z" class="st4"/>
			</g>
		</g>
		<g id="shape1177-217" v:mID="1177" v:groupContext="shape" transform="translate(246.245,-177.668)">
			<title>Sheet.1177</title>
			<desc>Machine Learning</desc>
			<v:userDefs>
				<v:ud v:nameU="visNavOrder" v:val="VT0(63000):26"/>
			</v:userDefs>
			<v:textBlock v:margins="rect(4,4,4,4)"/>
			<v:textRect cx="55.255" cy="579.5" width="110.52" height="20"/>
			<rect x="0" y="569.5" width="110.51" height="20" class="st10"/>
			<text x="12.07" y="582.8" class="st11" v:langID="1033"><v:paragraph v:horizAlign="1"/><v:tabList/>Machine Learning</text>		</g>
		<g id="shape1178-220" v:mID="1178" v:groupContext="shape" transform="translate(41.585,-325.898)">
			<title>Sheet.1178</title>
			<desc>Vehicle catalogue</desc>
			<v:userDefs>
				<v:ud v:nameU="visNavOrder" v:val="VT0(64000):26"/>
			</v:userDefs>
			<v:textBlock v:margins="rect(4,4,4,4)"/>
			<v:textRect cx="55.255" cy="579.5" width="110.52" height="20"/>
			<rect x="0" y="569.5" width="110.51" height="20" class="st10"/>
			<text x="12.48" y="582.8" class="st11" v:langID="1033"><v:paragraph v:horizAlign="1"/><v:tabList/>Vehicle catalogue</text>		</g>
		<g id="shape1179-223" v:mID="1179" v:groupContext="shape" transform="translate(555.532,-515.148)">
			<title>Sheet.1179</title>
			<desc>Machine Learning</desc>
			<v:userDefs>
				<v:ud v:nameU="visNavOrder" v:val="VT0(65000):26"/>
			</v:userDefs>
			<v:textBlock v:margins="rect(4,4,4,4)"/>
			<v:textRect cx="29.1084" cy="579.5" width="58.22" height="20"/>
			<rect x="0" y="569.5" width="58.2169" height="20" class="st10"/>
			<text x="8.4" y="576.2" class="st11" v:langID="1033"><v:paragraph v:horizAlign="1"/><v:tabList/>Machine<v:newlineChar/><tspan
						x="8.14" dy="1.2em" class="st34">Learning</tspan></text>		</g>
		<g id="group1200-227" transform="translate(68.76,-523.543)" v:mID="1200" v:groupContext="group">
			<v:userDefs>
				<v:ud v:nameU="visNavOrder" v:val="VT0(69000):26"/>
			</v:userDefs>
			<title>Sheet.1200</title>
			<g id="group1188-228" transform="translate(0,-21.7684)" v:mID="1188" v:groupContext="group">
				<v:userDefs>
					<v:ud v:nameU="visNavOrder" v:val="VT0(67000):26"/>
				</v:userDefs>
				<title>Sheet.1188</title>
				<g id="shape1189-229" v:mID="1189" v:groupContext="shape" transform="translate(-1.65867E-13,-0.118432)">
					<title>Sheet.1189</title>
					<path d="M19.38 588.37 A1.14484 1.14484 0 0 1 18.26 589.5 L1.13 589.5 A1.1251 1.1251 0 0 1 0 588.37 L0 557.62
								 A1.10536 1.10536 0 0 1 1.13 556.5 L18.26 556.5 A1.1251 1.1251 0 0 1 19.38 557.62 L19.38 588.37 Z"
							class="st35"/>
				</g>
				<g id="shape1190-233" v:mID="1190" v:groupContext="shape" transform="translate(2.84237,-19.4426)">
					<title>Sheet.1190</title>
					<path d="M-0 587.39 A2.11204 2.11204 0 0 1 2.09 585.3 L11.76 585.3 A2.11204 2.11204 0 0 1 13.94 587.39 A2.11204
								 2.11204 0 0 1 11.76 589.5 L2.09 589.5 A2.11204 2.11204 0 0 1 -0 587.39 Z" class="st36"/>
				</g>
				<g id="shape1191-235" v:mID="1191" v:groupContext="shape" transform="translate(2.84237,-25.6997)">
					<title>Sheet.1191</title>
					<path d="M0 587.41 A2.11204 2.11204 0 0 1 2.09 585.3 L11.76 585.3 A2.11204 2.11204 0 0 1 13.94 587.41 A2.11204
								 2.11204 0 0 1 11.76 589.5 L2.09 589.5 A2.11204 2.11204 0 0 1 -0 587.41 Z" class="st36"/>
				</g>
				<g id="shape1192-237" v:mID="1192" v:groupContext="shape" transform="translate(3.63191,-26.3709)">
					<title>Sheet.1192</title>
					<ellipse cx="1.42118" cy="588.079" rx="1.42118" ry="1.42118" class="st37"/>
				</g>
				<g id="shape1193-239" v:mID="1193" v:groupContext="shape" transform="translate(3.63191,-20.1334)">
					<title>Sheet.1193</title>
					<ellipse cx="1.42118" cy="588.079" rx="1.42118" ry="1.42118" class="st37"/>
				</g>
			</g>
			<g id="group1194-241" transform="translate(22.6043,-21.7684)" v:mID="1194" v:groupContext="group">
				<v:userDefs>
					<v:ud v:nameU="visNavOrder" v:val="VT0(68000):26"/>
				</v:userDefs>
				<title>Sheet.1194</title>
				<g id="shape1195-242" v:mID="1195" v:groupContext="shape" transform="translate(-1.65867E-13,-0.118432)">
					<title>Sheet.1195</title>
					<path d="M19.38 588.37 A1.14484 1.14484 0 0 1 18.26 589.5 L1.13 589.5 A1.1251 1.1251 0 0 1 0 588.37 L0 557.62
								 A1.10536 1.10536 0 0 1 1.13 556.5 L18.26 556.5 A1.1251 1.1251 0 0 1 19.38 557.62 L19.38 588.37 Z"
							class="st35"/>
				</g>
				<g id="shape1196-245" v:mID="1196" v:groupContext="shape" transform="translate(2.84237,-19.4426)">
					<title>Sheet.1196</title>
					<path d="M-0 587.39 A2.11204 2.11204 0 0 1 2.09 585.3 L11.76 585.3 A2.11204 2.11204 0 0 1 13.94 587.39 A2.11204
								 2.11204 0 0 1 11.76 589.5 L2.09 589.5 A2.11204 2.11204 0 0 1 -0 587.39 Z" class="st36"/>
				</g>
				<g id="shape1197-247" v:mID="1197" v:groupContext="shape" transform="translate(2.84237,-25.6997)">
					<title>Sheet.1197</title>
					<path d="M0 587.41 A2.11204 2.11204 0 0 1 2.09 585.3 L11.76 585.3 A2.11204 2.11204 0 0 1 13.94 587.41 A2.11204
								 2.11204 0 0 1 11.76 589.5 L2.09 589.5 A2.11204 2.11204 0 0 1 -0 587.41 Z" class="st36"/>
				</g>
				<g id="shape1198-249" v:mID="1198" v:groupContext="shape" transform="translate(3.63191,-26.3709)">
					<title>Sheet.1198</title>
					<ellipse cx="1.42118" cy="588.079" rx="1.42118" ry="1.42118" class="st37"/>
				</g>
				<g id="shape1199-251" v:mID="1199" v:groupContext="shape" transform="translate(3.63191,-20.1334)">
					<title>Sheet.1199</title>
					<ellipse cx="1.42118" cy="588.079" rx="1.42118" ry="1.42118" class="st37"/>
				</g>
			</g>
			<g id="group1180-253" transform="translate(9.73921,0)" v:mID="1180" v:groupContext="group">
				<v:userDefs>
					<v:ud v:nameU="visNavOrder" v:val="VT0(66000):26"/>
				</v:userDefs>
				<title>Sheet.1180</title>
				<g id="shape1181-254" v:mID="1181" v:groupContext="shape">
					<title>Sheet.1181</title>
					<path d="M23.24 587.52 C23.24 588.63 22.37 589.5 21.26 589.5 L1.98 589.5 C0.87 589.5 0 588.63 0 587.52 L0 551.82
								 C0 550.71 0.87 549.84 1.98 549.84 L21.26 549.84 C22.37 549.84 23.24 550.71 23.24 551.82 L23.24 587.52
								 Z" class="st38"/>
				</g>
				<g id="shape1182-256" v:mID="1182" v:groupContext="shape" transform="translate(3.33135,-15.7049)">
					<title>Sheet.1182</title>
					<path d="M0 586.96 C0 585.53 1.11 584.42 2.54 584.42 L14.12 584.42 C15.55 584.42 16.66 585.53 16.66 586.96 C16.66
								 588.39 15.55 589.5 14.12 589.5 L2.54 589.5 C1.19 589.5 0 588.39 0 586.96 Z" class="st39"/>
				</g>
				<g id="shape1183-258" v:mID="1183" v:groupContext="shape" transform="translate(4.36248,-16.5774)">
					<title>Sheet.1183</title>
					<ellipse cx="1.66567" cy="587.834" rx="1.66567" ry="1.66567" class="st40"/>
				</g>
				<g id="shape1184-260" v:mID="1184" v:groupContext="shape" transform="translate(3.33135,-23.2401)">
					<title>Sheet.1184</title>
					<path d="M0 586.96 C0 585.53 1.11 584.42 2.54 584.42 L14.12 584.42 C15.55 584.42 16.66 585.53 16.66 586.96 C16.66
								 588.39 15.55 589.5 14.12 589.5 L2.54 589.5 C1.19 589.5 0 588.39 0 586.96 Z" class="st39"/>
				</g>
				<g id="shape1185-262" v:mID="1185" v:groupContext="shape" transform="translate(4.36248,-24.1126)">
					<title>Sheet.1185</title>
					<ellipse cx="1.66567" cy="587.834" rx="1.66567" ry="1.66567" class="st40"/>
				</g>
				<g id="shape1186-264" v:mID="1186" v:groupContext="shape" transform="translate(3.33135,-30.696)">
					<title>Sheet.1186</title>
					<path d="M0 586.96 C0 585.53 1.11 584.42 2.54 584.42 L14.12 584.42 C15.55 584.42 16.66 585.53 16.66 586.96 C16.66
								 588.39 15.55 589.5 14.12 589.5 L2.54 589.5 C1.19 589.5 0 588.31 0 586.96 Z" class="st39"/>
				</g>
				<g id="shape1187-266" v:mID="1187" v:groupContext="shape" transform="translate(4.36248,-31.5685)">
					<title>Sheet.1187</title>
					<ellipse cx="1.66567" cy="587.834" rx="1.66567" ry="1.66567" class="st40"/>
				</g>
			</g>
		</g>
		<g id="shape1201-268" v:mID="1201" v:groupContext="shape" transform="translate(330.84,-221.536)">
			<title>Sheet.1201</title>
			<v:userDefs>
				<v:ud v:nameU="visNavOrder" v:val="VT0(70000):26"/>
			</v:userDefs>
			<path d="M7.68 589.5 L8.04 589.5 L104.46 589.5" class="st21"/>
		</g>
		<g id="shape1202-275" v:mID="1202" v:groupContext="shape" transform="translate(630.785,-221.536)">
			<title>Sheet.1202</title>
			<v:userDefs>
				<v:ud v:nameU="visNavOrder" v:val="VT0(71000):26"/>
			</v:userDefs>
			<path d="M0 589.5 L58.67 589.5" class="st12"/>
		</g>
		<g id="shape1203-280" v:mID="1203" v:groupContext="shape" transform="translate(518.285,-370.947)">
			<title>Sheet.1203</title>
			<v:userDefs>
				<v:ud v:nameU="visNavOrder" v:val="VT0(72000):26"/>
			</v:userDefs>
			<path d="M0 589.5 L112.5 589.5" class="st33"/>
		</g>
		<g id="shape1204-283" v:mID="1204" v:groupContext="shape" transform="translate(1220.29,218.553) rotate(90)">
			<title>Sheet.1204</title>
			<v:userDefs>
				<v:ud v:nameU="visNavOrder" v:val="VT0(73000):26"/>
			</v:userDefs>
			<path d="M0 589.5 L149.41 589.5" class="st33"/>
		</g>
		<g id="shape1205-286" v:mID="1205" v:groupContext="shape" transform="translate(551.753,-49.75)">
			<title>Sheet.1205</title>
			<desc>Move data, orchestrate, schedule and monitor</desc>
			<v:userDefs>
				<v:ud v:nameU="visNavOrder" v:val="VT0(74000):26"/>
			</v:userDefs>
			<v:textBlock v:margins="rect(4,4,4,4)"/>
			<v:textRect cx="66.1233" cy="579.5" width="132.25" height="20"/>
			<rect x="0" y="569.5" width="132.247" height="20" class="st10"/>
			<text x="9.04" y="576.2" class="st11" v:langID="1033"><v:paragraph v:horizAlign="1"/><v:tabList/>Move data, orchestrate, <tspan
						x="13.13" dy="1.2em" class="st34">schedule and monitor</tspan></text>		</g>
		<g id="group1206-290" transform="translate(8.18617,-6.74999)" v:mID="1206" v:groupContext="group">
			<v:userDefs>
				<v:ud v:nameU="visNavOrder" v:val="VT0(75000):26"/>
			</v:userDefs>
			<title>logo.1025</title>
			<g id="group1207-291" transform="translate(0,-4.5)" v:mID="1207" v:groupContext="group">
				<v:userDefs>
					<v:ud v:nameU="msvDisableCustomConnectionPoints" v:prompt="" v:val="VT4(True)"/>
				</v:userDefs>
				<title>Azure.1002</title>
				<g id="group1208-292" v:mID="1208" v:groupContext="group">
					<title>Sheet.1208</title>
					<g id="shape1209-293" v:mID="1209" v:groupContext="shape">
						<title>Sheet.1209</title>
						<path d="M11.96 553.5 L22.69 553.5 L11.57 588.29 A1.67987 1.77404 0 0 1 9.98 589.5 L1.59 589.5 A1.67905 1.77317
									 0 0 1 0 587.16 L10.37 554.71 A1.6774 1.77143 0 0 1 11.96 553.5 Z" class="st41"/>
					</g>
					<g id="shape1210-297" v:mID="1210" v:groupContext="shape" transform="translate(9.14148,0)">
						<title>Sheet.1210</title>
						<path d="M17.63 576.17 L0.73 576.17 a0.781965 0.8258 -180 0 0 -0.533644 1.42843 L11.79 589.02 A1.67987 1.77404
									 -180 0 0 12.93 589.5 L22.51 589.5 L17.63 576.17 Z" class="st24"/>
					</g>
					<g id="group1211-299" transform="translate(12.9538,0)" v:mID="1211" v:groupContext="group">
						<title>Sheet.1211</title>
						<g id="shape1212-300" v:mID="1212" v:groupContext="shape" transform="translate(7.38139,0)">
							<title>Sheet.1212</title>
							<path d="M3.43 589.5 L11.31 589.5 L6.43 576.17 L0 576.17 L3.72 587.79 A1.69796 1.79314 0 0 1 3.43 589.5
										 Z" class="st42"/>
						</g>
						<g id="shape1213-302" v:mID="1213" v:groupContext="shape" transform="translate(9.29257E-14,-20.9906)">
							<title>Sheet.1213</title>
							<path d="M4.94 589.5 L9.73 574.49 L0 574.49 A1.70042 1.79575 0 0 1 0.33 575.09 L4.94 589.5 Z"
									class="st42"/>
						</g>
					</g>
					<g id="group1214-304" transform="translate(12.3462,0)" v:mID="1214" v:groupContext="group">
						<title>Sheet.1214</title>
						<g id="shape1215-305" v:mID="1215" v:groupContext="shape" transform="translate(0,-20.0024)">
							<title>Sheet.1215</title>
							<path d="M0 573.5 L5.23 589.5 L5.95 587.22 L1.58 573.5 L0 573.5 Z" class="st43"/>
						</g>
						<g id="shape1216-307" v:mID="1216" v:groupContext="shape" transform="translate(7.32219,0)">
							<title>Sheet.1216</title>
							<path d="M2.59 589.5 L4.85 589.5 A2.31876 2.44874 -180 0 0 4.98 587.57 L1.33 576.17 L0 576.17 L3.79 588
										 A1.07469 1.13493 0 0 1 2.77 589.5 L2.59 589.5 Z" class="st43"/>
						</g>
					</g>
					<g id="shape1217-309" v:mID="1217" v:groupContext="shape" transform="translate(12.088,0)">
						<title>Sheet.1217</title>
						<path d="M13.54 554.71 A1.6774 1.77143 -180 0 0 11.95 553.5 L0 553.5 A1.70454 1.80009 0 0 1 1.61 554.72 L11.97
									 587.13 A1.70371 1.79922 0 0 1 10.35 589.5 L22.32 589.5 A1.67905 1.77317 -180 0 0 23.91 587.16
									 L13.54 554.71 Z" class="st44"/>
					</g>
				</g>
			</g>
			<g id="shape1218-313" v:mID="1218" v:groupContext="shape" transform="translate(28.6277,0)">
				<title>Sheet.1218</title>
				<desc>Microsoft Azure</desc>
				<v:textBlock v:margins="rect(4,4,4,4)"/>
				<v:textRect cx="36" cy="567" width="72" height="45"/>
				<rect x="0" y="544.5" width="72" height="45" class="st10"/>
				<text x="5.5" y="562.8" class="st45" v:langID="1033"><v:paragraph v:horizAlign="1"/><v:tabList/>Microsoft<v:newlineChar/><tspan
							x="17.66" dy="1.2em" class="st34">Azure</tspan></text>			</g>
		</g>
		<g id="shape1219-317" v:mID="1219" v:groupContext="shape" transform="translate(41.585,-498.5)">
			<title>Sheet.1219</title>
			<desc>Diagnostic events (Simulated)</desc>
			<v:userDefs>
				<v:ud v:nameU="visNavOrder" v:val="VT0(76000):26"/>
			</v:userDefs>
			<v:textBlock v:margins="rect(4,4,4,4)"/>
			<v:textRect cx="55.255" cy="579.5" width="110.52" height="20"/>
			<rect x="0" y="569.5" width="110.51" height="20" class="st10"/>
			<text x="12.42" y="576.2" class="st11" v:langID="1033"><v:paragraph v:horizAlign="1"/><v:tabList/>Diagnostic events<v:newlineChar/><tspan
						x="27.72" dy="1.2em" class="st34">(Simulated)</tspan></text>		</g>
	</g>
</svg>
