<svg xmlns="http://www.w3.org/2000/svg" height="389.326" width="920.306" viewBox="0 0 920.306 389.326">
    <text transform="translate(835.322 98.523) scale(1.036 1)" font-size="14.805" fill="#505050" font-family="SegoeUI, Segoe UI" style="isolation: isolate">Dashb<tspan x="41.279" y="0" letter-spacing="-0.013em">o</tspan><tspan x="49.758" y="0" letter-spacing="0em">a</tspan><tspan x="57.292" y="0" letter-spacing="-0.013em">r</tspan><tspan x="62.244" y="0">d</tspan></text>
    <g>
        <path d="M125,75.511,98.768,31.927,98.731,14.26H99.2a5.563,5.563,0,0,0,5.651-5.469A5.562,5.562,0,0,0,99.18,3.347l-28.521.059a5.563,5.563,0,0,0-5.651,5.469,5.563,5.563,0,0,0,5.674,5.445h.472l.037,17.665L45.14,75.677c-2.858,4.792-.5,8.7,5.23,8.691l69.436-.145C125.539,84.212,127.876,80.291,125,75.511Z" fill="#59b4d9" />
        <polygon points="66.631 56.849 55.882 74.878 114.253 74.757 103.43 56.773 66.631 56.849" fill="#b8d432" />
        <path d="M83.072,62.166a5.181,5.181,0,0,0,5.264-5.094,4.9,4.9,0,0,0-.542-2.223l-9.476.02a4.894,4.894,0,0,0-.533,2.225A5.183,5.183,0,0,0,83.072,62.166Z" fill="#7fba00" />
        <ellipse cx="92.986" cy="68.025" rx="2.588" ry="2.494" transform="matrix(1, -0.002, 0.002, 1, -0.141, 0.194)" fill="#7fba00" />
        <path d="M45.14,75.677,71.191,31.983l-.037-17.665h-.472a5.563,5.563,0,0,1-5.674-5.445,5.561,5.561,0,0,1,5.651-5.467l12.29-.026.059,28.439L69.34,84.329l-18.97.04C44.636,84.38,42.282,80.469,45.14,75.677Z" fill="#fff" opacity="0.25" style="isolation: isolate" />
    </g>
    <text transform="translate(15.244 108.862) scale(1.036 1)" font-size="17.174" fill="#505050" font-family="SegoeUI, Segoe UI">Machine Learning</text>
    <text transform="translate(439.803 351.076) scale(1.036 1)" font-size="17.174" fill="#505050" font-family="SegoeUI, Segoe UI">HDInsight</text>
    <g>
        <line x1="478.962" y1="130.236" x2="478.962" y2="209.02" fill="none" stroke="#afafaf" stroke-miterlimit="10" stroke-width="1.074" />
        <polygon points="473.606 131.803 478.962 122.527 484.319 131.803 473.606 131.803" fill="#afafaf" />
        <polygon points="473.606 207.453 478.962 216.73 484.319 207.453 473.606 207.453" fill="#afafaf" />
    </g>
    <g>
        <polygon points="462.422 263.302 455.094 264.558 448.604 267.49 442.951 271.049 437.507 277.539 434.576 280.68 431.645 281.727 430.807 279.842 432.273 277.958 432.482 275.236 433.529 275.236 434.366 276.074 434.157 273.352 433.11 272.514 433.11 271.468 430.598 272.933 428.085 275.655 427.666 278.168 428.713 280.261 429.551 283.611 431.435 284.449 433.529 284.449 435.413 283.192 434.157 289.683 435.413 296.801 433.948 300.151 429.551 304.967 430.179 308.108 432.482 311.457 436.46 314.179 438.763 314.598 441.066 314.598 439.601 320.879 445.044 323.182 451.953 324.02 454.257 322.345 454.466 318.367 457.188 313.97 457.397 310.411 463.678 311.039 469.541 310.411 463.678 313.97 464.725 318.157 468.284 324.02 472.053 325.485 474.775 324.438 476.031 321.926 482.103 317.32 483.359 318.367 492.781 318.785 494.665 317.11 494.874 314.389 494.246 313.342 493.828 306.014 490.687 299.733 491.106 296.801 492.99 297.848 498.434 302.873 500.946 303.083 503.877 301.826 506.809 299.733 508.274 294.917 516.649 295.545 521.883 293.452 526.071 289.683 529.002 284.03 529.839 277.33 529.211 269.793 527.536 262.883 525.861 260.58 523.558 259.952 519.58 264.349 516.021 265.605 512.88 260.371 509.74 257.44 507.855 256.393 501.156 250.531 495.503 247.599 490.059 247.181 483.568 248.228 477.915 250.321 474.147 253.462 471.006 257.23 467.866 258.068 462.422 263.302" fill="#fcd116" />
        <polygon points="434.157 277.539 434.994 278.586 435.204 277.33 434.576 277.33 434.157 277.539" fill="#1e1e1e" />
        <path d="M530.467,269.374A23.214,23.214,0,0,0,527.955,261c-.209-.209-.419-.628-.628-.837a8.646,8.646,0,0,0-2.3-1.466,3.106,3.106,0,0,0-2.722,0c-.209.209-.419.209-.628.419a11.613,11.613,0,0,0-1.256,1.675,14.762,14.762,0,0,1-1.466,1.884,8.125,8.125,0,0,1-2.3,1.256,8.125,8.125,0,0,0-1.256-2.3,19.642,19.642,0,0,0-1.884-2.512l-1.675-1.675-1.884-1.256a46.607,46.607,0,0,1-5.025-3.978c-.628-.628-1.466-1.256-2.094-1.884-3.769-3.141-7.328-4.606-11.1-4.816s-7.747.837-12.562,2.722a22.07,22.07,0,0,0-5.444,3.35,30.049,30.049,0,0,0-3.978,4.606,6.194,6.194,0,0,0-2.094.419,7.43,7.43,0,0,0-2.512,1.675,13.546,13.546,0,0,1-1.884,1.675h0l-1.675,1.675a45.868,45.868,0,0,0-10.887,2.722,31.367,31.367,0,0,0-9,5.444,15.741,15.741,0,0,0-3.141,3.35,34.1,34.1,0,0,0-2.3,3.559l-1.884,1.884a4.344,4.344,0,0,1-2.094,1.256h0a1.62,1.62,0,0,1-.628.209v-.209a5.369,5.369,0,0,0,1.256-3.978c.209.209.209.419.419.628s.209.419.419.628l.419-.419.628.209a8.78,8.78,0,0,0,.209-3.35,2.877,2.877,0,0,0-1.047-1.675c0-.209.209-.209.209-.419a3.026,3.026,0,0,0,.419-1.466l-.419-.209h0l.419.209.628-.419-.837.209a13.6,13.6,0,0,0-5.653,3.559,9.3,9.3,0,0,0-1.675,2.3,4.672,4.672,0,0,0-.628,2.722,6.289,6.289,0,0,0,1.256,2.3,13.343,13.343,0,0,0,.419,1.466,2.976,2.976,0,0,1,.419,1.256,4.35,4.35,0,0,0,2.3,2.094,5.1,5.1,0,0,0,2.512,0c-.209,1.047-.209,2.094-.419,3.141a43.826,43.826,0,0,0,.209,5.025,2.656,2.656,0,0,0,.209,1.256c0,.419.209.837.209,1.256a2.976,2.976,0,0,0-.419,1.256,8.75,8.75,0,0,1-.837,2.094L430.6,301.2l-1.466,1.466-.419.419c-1.047,1.047-1.256,1.256-1.047,2.931a29.817,29.817,0,0,0,1.047,3.35,12.725,12.725,0,0,0,2.094,2.931,22.36,22.36,0,0,0,5.234,3.35,6.211,6.211,0,0,0,3.35.419c0,.209,0,.419-.209.419a10.208,10.208,0,0,0-.628,1.466c-1.256,2.931,0,4.4,2.094,5.234a20.58,20.58,0,0,0,3.35,1.047c.209,0,.419.209.837.209a31.291,31.291,0,0,0,5.862,1.256c2.3.209,4.4-.419,5.025-2.512a9.214,9.214,0,0,0,.419-2.094V319.2a11.211,11.211,0,0,1,1.466-2.512c0-.209.209-.209.209-.419.419-.837.837-1.256.837-1.884v-2.512a25.338,25.338,0,0,0,3.978.209h2.094c-.209,0-.419.209-.628.209a.205.205,0,0,0-.209.209c-1.884.837-1.884,2.722-1.256,4.4a9.958,9.958,0,0,0,2.3,4.187c1.466,2.094,2.722,3.978,4.187,4.816,1.675,1.047,3.559,1.047,6.072-.209a4.35,4.35,0,0,0,2.094-2.3c.209-.209.419-.628.628-.837a31.334,31.334,0,0,1,3.141-2.512,8.864,8.864,0,0,1,1.466-1.047,6.97,6.97,0,0,0,1.256.628,7.851,7.851,0,0,0,2.3.209h5.444c1.466,0,2.722,0,3.559-.628,1.047-.628,1.466-1.466,1.675-3.141v-1.675a2.783,2.783,0,0,0-.628-1.466v-4.606a10.509,10.509,0,0,0-.419-2.512,10.205,10.205,0,0,0-.837-2.3c-.209-.628-.419-1.047-.628-1.675l-.419.209h0l.419-.209h0a12.807,12.807,0,0,0-1.047-2.512v-.628l.837.837,1.256,1.256a14.416,14.416,0,0,0,2.722,2.3,5.053,5.053,0,0,0,3.559.837,8.3,8.3,0,0,0,4.606-1.675,10.233,10.233,0,0,0,2.931-3.769c.209-.419.209-.837.419-1.256,0-.419.209-.628.209-1.047a23.974,23.974,0,0,0,6.7.209,18.567,18.567,0,0,0,6.072-1.675,15.4,15.4,0,0,0,6.072-6.072h0a23.666,23.666,0,0,0,2.931-9.422C531.3,276.7,531.1,272.933,530.467,269.374Zm-31.406,25.334c-.628,2.094-1.675,5.653,1.256,6.281a3.729,3.729,0,0,0,3.141-.628,5.9,5.9,0,0,1-2.722,0,1.836,1.836,0,0,1-1.466-1.256c.209.209.628.209,1.466.419,2.094.419,4.187-.419,4.606-2.094a21.646,21.646,0,0,1,.628-2.512,13.343,13.343,0,0,0,1.466.419c-.209.837-.628,1.675-.837,2.722a5.92,5.92,0,0,1-5.862,3.978c-2.3,0-3.559-1.466-5.234-2.722-1.047-.837-2.094-1.884-3.141-2.722a23.162,23.162,0,0,1-7.537-3.769c1.884,2.094,3.141,3.35,5.653,4.4-.419,3.769-1.675,6.49-2.722,10.05-.419,1.675-4.4,8.165-5.653,8.794-.837.419-5.653,4.606-6.7,5.234a9.4,9.4,0,0,1-2.3,2.722c-3.141,1.675-5.234-1.466-6.909-4.187-.837-1.256-2.931-4.816-1.047-5.862,1.675-.837,2.722-1.675,4.606-2.722a6.362,6.362,0,0,0,1.047,1.466c0-.628-.209-1.047-.209-1.675a5.976,5.976,0,0,1,0-2.722c0-.837.209-1.884.209-2.722-.209,1.047-.837,1.884-1.047,2.931a1.887,1.887,0,0,0-.209,1.047,33.829,33.829,0,0,1-12.143.209c-.209-1.466-.628-3.141-.837-4.187v6.7a4.766,4.766,0,0,1-.837,3.35c-.628,1.256-1.047,1.466-2.094,3.559a18.01,18.01,0,0,1-.209,3.35c-.628,2.094-6.281.419-7.747,0-1.884-.419-5.653-1.256-4.816-3.769a30.368,30.368,0,0,0,1.884-7.537c-3.35-4.816-6.49-11.515-7.119-17.587-.419-4.606-.209-7.537.837-10.259,1.675-4.4,3.769-8.375,7.328-11.515,4.816-4.187,9.212-5.862,16.331-6.909-1.675,1.884-3.35,3.978-5.234,6.072a32.443,32.443,0,0,0-4.187,6.7c-1.675,3.35-1.675,4.606.628,7.328,1.884,2.512,2.931,3.559,3.559,6.072a13.56,13.56,0,0,0-1.047,4.4c2.3,2.512,3.978,4.187,6.072,4.606a8.109,8.109,0,0,0,5.862-.628c4.187-2.094,8.165-5.025,12.981-5.234,2.3-5.444,2.094-10.05.837-15.493a92.73,92.73,0,0,1-1.256-10.678,27.293,27.293,0,0,0-.419,10.887c.837,4.606,1.466,9.631-.837,13.609-4.4.419-8.165,2.931-12.143,5.025a6.914,6.914,0,0,1-5.025.419c-1.256-.209-2.3-1.256-4.187-3.35a9.726,9.726,0,0,1,1.256-4.816A91.3,91.3,0,0,1,462,281.308c-2.094,2.722-4.187,5.025-5.862,7.537-.628-1.884-1.675-2.931-3.141-5.025s-1.675-2.931-.628-5.444c1.256-2.512,2.094-4.606,4.187-6.7,3.35-3.769,6.49-7.747,10.259-11.515,2.094-1.884,2.931-1.884,5.444-2.3s4.816-.837,7.328-1.466a42.741,42.741,0,0,1-7.119.628h0c2.3-2.931,3.559-4.606,7.328-6.281,9.212-3.978,15.075-4.4,22.193,1.675a50.126,50.126,0,0,0,5.444,4.4,9.214,9.214,0,0,0-2.094.419,7.982,7.982,0,0,1,3.141.209c.209.209.628.419.837.628a8.524,8.524,0,0,1,2.931,2.512,27.723,27.723,0,0,1,2.512,4.187c-.419-.209-.837-.209-1.256-.419a1.259,1.259,0,0,0-.837-.209,2.518,2.518,0,0,0-1.675.419h0a6.822,6.822,0,0,1-2.722.837,2.312,2.312,0,0,0,1.675,0h.209c-.209.209-.209.628-.419,1.047a3.563,3.563,0,0,0,.209,1.466h0c0,.209.209.209.209.419-.419.209-.628.209-1.047.419a20.178,20.178,0,0,1,5.025,0c.209.628.209,1.047.419,1.675h-.628a2.864,2.864,0,0,0-2.931-.209c-3.559.837-2.722,2.931-4.4,6.072,1.675-2.094,1.675-4.4,4.4-5.025.628-.209,1.047-.419,1.466-.209a4.108,4.108,0,0,0-1.884,1.884c-.837,2.3-.209,3.978-1.256,6.072,1.047-1.884,1.047-3.559,2.094-5.653.419-.628,1.675-1.884,2.3-1.884h.628a20.383,20.383,0,0,1,.209,3.35c-.209,1.884-.628,4.606-.837,5.653,1.047-1.256,1.466-3.769,1.884-5.653a15.85,15.85,0,0,0,0-6.281c-.628-2.931,2.3-2.3,3.978-3.769,1.256-1.047,2.094-2.512,3.141-3.559s2.931.419,3.35,1.675a41.679,41.679,0,0,1,2.3,16.75c-.628,5.234-3.141,11.1-7.747,13.609-5.862,3.35-12.981,1.256-18.843-.628a14.956,14.956,0,0,1-3.141-1.675A4.7,4.7,0,0,1,499.062,294.708Zm-5.234,21.146c-.209,2.094-.837,2.3-2.931,2.3a43.763,43.763,0,0,1-5.234-.209,11.374,11.374,0,0,1-2.3-.419c1.884-1.466,5.234-7.328,5.862-9.422s1.466-3.978,1.884-6.072a11.8,11.8,0,0,0,.837,2.512,12.391,12.391,0,0,1,1.047,3.978,40.343,40.343,0,0,0,.209,5.025A3.24,3.24,0,0,1,493.828,315.854Zm-61.136-43.549a3.341,3.341,0,0,0-.628,1.675c-.628,2.3.209,4.4-1.884,6.072,1.047,1.884.837,2.722,3.141,1.884a8.646,8.646,0,0,0,2.3-1.466c-.209.837-.628,1.675-.837,2.512,0,.209,0,.209-.209.419-1.675.628-3.769,1.047-4.606-.628a10.365,10.365,0,0,1-.837-2.722C426.41,277.33,430.388,273.561,432.691,272.305Zm.209,2.512a1.259,1.259,0,0,1,.209-.837c0-.209,0-.209.209-.419.628.419.628.837.837,1.675C433.738,274.818,433.319,274.608,432.9,274.818Zm2.094,24.5a49.484,49.484,0,0,0,5.653,12.143h0a14.426,14.426,0,0,1-.628,1.675c-1.675,2.3-5.862-1.047-7.119-2.3a8.469,8.469,0,0,1-2.512-4.606c-.209-1.047,0-1.047.837-1.884l3.141-3.141Zm79.77-34.546c0,.209.209.419.209.628l-.209.209c-.209-.209-.419-.628-.628-.837Zm-77.886,12.772Zm-3.35-5.025Zm-5.234,7.956Zm29.312,30.777Zm51.086-15.493Zm18.843-7.119Z" fill="#1e1e1e" />
        <path d="M520,267.28c2.931-1.047,4.4-3.35,5.025-6.281a11.453,11.453,0,0,1-5.444,5.444c-1.256.628-2.094.419-3.559.209C517.486,267.28,518.533,267.7,520,267.28Z" fill="#1e1e1e" />
        <path d="M503.249,270.211a21.774,21.774,0,0,0-3.141.419c0-.419-.209-.628-.209-1.047a2.972,2.972,0,0,0-1.884-1.675c.628-.419,1.466-.837,2.094-1.256-1.675.837-3.559.628-5.025,1.466-1.256.837-2.931,3.559-4.187,4.606a17.465,17.465,0,0,0,2.512-1.675,3.882,3.882,0,0,0,.419,1.466,3.3,3.3,0,0,0,1.466,1.466,6.549,6.549,0,0,0-1.047,2.094A18.293,18.293,0,0,1,503.249,270.211Z" fill="#1e1e1e" />
        <path d="M488.175,267.071c.628-2.512,1.466-4.816,5.234-6.49C488.384,261.837,487.546,263.93,488.175,267.071Z" fill="#1e1e1e" />
        <path d="M496.34,290.939c-.209.628-.209,1.675-.419,2.3a9.062,9.062,0,0,1,1.047-2.512c.419-.837.628-.837,1.466-1.256a19.455,19.455,0,0,0,2.094-1.047c-.628,0-1.675.419-2.3.419C496.759,289.055,496.549,289.474,496.34,290.939Z" fill="#1e1e1e" />
        <path d="M469.541,262.674c-1.884,1.884-3.559,7.956-4.187,10.469.837-2.094,3.141-7.747,4.816-9.212a4.38,4.38,0,0,1,1.256-.837c-1.256,2.094-1.047,2.512-.628,5.234.419-2.722,1.256-3.978,2.931-6.072,1.675-.419,3.35-1.047,5.234-1.675-2.094.209-3.978.419-6.072.628C471.006,261.627,470.587,261.627,469.541,262.674Z" fill="#1e1e1e" />
        <path d="M494.456,273.352a1.4,1.4,0,0,1,2.512-1.256v.209a13.546,13.546,0,0,0-1.884,1.675.669.669,0,0,1-.628-.628" fill="#fffacb" />
        <path d="M509.949,267.28a1.047,1.047,0,1,1,2.094,0v.419a4.928,4.928,0,0,0-1.675.419c-.209,0-.419-.419-.419-.837" fill="#fffacb" />
    </g>
    <text transform="translate(428.383 109.56) scale(1.036 1)" font-size="17.174" fill="#505050" font-family="SegoeUI, Segoe UI">Blob Storage</text>
    <g>
        <path d="M433.4,74.35a3.426,3.426,0,0,0,3.28,3.462h84.373a3.46,3.46,0,0,0,3.462-3.462V14.032H433.4Z" fill="#a0a1a2" />
        <path d="M521.058,0H436.685a3.426,3.426,0,0,0-3.28,3.462V13.85H524.52V3.462A3.46,3.46,0,0,0,521.058,0" fill="#7a7a7a" />
        <rect x="440.147" y="20.228" width="37.175" height="23.69" fill="#0072c6" />
        <rect x="440.147" y="47.198" width="37.175" height="23.69" fill="#0072c6" />
        <rect x="480.602" y="20.228" width="36.993" height="23.69" fill="#fff" />
        <rect x="480.602" y="47.198" width="36.993" height="23.69" fill="#0072c6" />
        <path d="M437.049,0A3.655,3.655,0,0,0,433.4,3.645V73.986a3.655,3.655,0,0,0,3.645,3.645h4.009L512.857,0Z" fill="#fff" opacity="0.2" style="isolation: isolate" />
    </g>
    <g>
        <line x1="595.128" y1="38.907" x2="771.295" y2="38.907" fill="none" stroke="#afafaf" stroke-miterlimit="10" stroke-width="1.074" />
        <polygon points="596.696 44.263 587.419 38.907 596.696 33.55 596.696 44.263" fill="#afafaf" />
        <polygon points="769.728 44.263 779.004 38.907 769.728 33.55 769.728 44.263" fill="#afafaf" />
    </g>
    <g>
        <line x1="188.276" y1="38.907" x2="364.443" y2="38.907" fill="none" stroke="#afafaf" stroke-miterlimit="10" stroke-width="1.074" />
        <polygon points="189.843 44.263 180.567 38.907 189.843 33.55 189.843 44.263" fill="#afafaf" />
        <polygon points="362.875 44.263 372.152 38.907 362.875 33.55 362.875 44.263" fill="#afafaf" />
    </g>
    <path d="M909.019,67.339h-1.93v-3.86h1.93a7.436,7.436,0,0,0,7.427-7.427V16.627A7.436,7.436,0,0,0,909.019,9.2H835.9a7.436,7.436,0,0,0-7.427,7.428V56.055a7.436,7.436,0,0,0,7.427,7.427h1.93v3.86H835.9a11.3,11.3,0,0,1-11.286-11.287V16.627A11.3,11.3,0,0,1,835.9,5.34h73.121a11.3,11.3,0,0,1,11.287,11.287V56.055a11.3,11.3,0,0,1-11.287,11.287" />
    <path d="M847.751,54.417h0a5.237,5.237,0,0,1,5.237,5.237V71.731a5.238,5.238,0,0,1-5.238,5.238h0a5.237,5.237,0,0,1-5.239-5.235V59.655a5.238,5.238,0,0,1,5.238-5.238Z" />
    <path d="M864.224,76.97a5.239,5.239,0,0,1-5.239-5.238v-31a5.238,5.238,0,0,1,10.477,0v31a5.239,5.239,0,0,1-5.238,5.239" />
    <path d="M897.168,76.817a5.239,5.239,0,0,1-5.239-5.238v-43.9a5.238,5.238,0,1,1,10.477,0h0v43.9a5.239,5.239,0,0,1-5.238,5.239" />
    <path d="M880.7,76.97a5.239,5.239,0,0,1-5.239-5.238V48.7a5.238,5.238,0,0,1,10.477,0V71.732a5.239,5.239,0,0,1-5.238,5.239" />
</svg>
