<svg xmlns="http://www.w3.org/2000/svg" xmlns:xlink="http://www.w3.org/1999/xlink" width="593.835" height="271.56" viewBox="0 0 593.835 271.56">
    <g id="Layer_2" data-name="Layer 2">
        <g id="Layer_1-2" data-name="Layer 1">
            <g>
                <path d="M0,96.737V95.384a2.6,2.6,0,0,0,.557.369,4.528,4.528,0,0,0,.684.277,5.447,5.447,0,0,0,.721.174,4.027,4.027,0,0,0,.67.062,2.623,2.623,0,0,0,1.583-.393,1.476,1.476,0,0,0,.349-1.822,1.966,1.966,0,0,0-.482-.537,4.776,4.776,0,0,0-.728-.465q-.42-.222-.905-.468-.513-.26-.957-.526a4.127,4.127,0,0,1-.773-.588A2.449,2.449,0,0,1,.2,90.739,2.489,2.489,0,0,1,.307,88.62,2.524,2.524,0,0,1,1.08,87.8a3.489,3.489,0,0,1,1.09-.479,4.991,4.991,0,0,1,1.248-.157,4.775,4.775,0,0,1,2.111.349v1.292a3.828,3.828,0,0,0-2.229-.6,3.684,3.684,0,0,0-.752.079,2.125,2.125,0,0,0-.67.256A1.491,1.491,0,0,0,1.4,89a1.215,1.215,0,0,0-.184.684,1.4,1.4,0,0,0,.14.649,1.592,1.592,0,0,0,.413.5,4.1,4.1,0,0,0,.667.438q.393.212.905.465t1,.547a4.581,4.581,0,0,1,.828.636,2.848,2.848,0,0,1,.563.772,2.176,2.176,0,0,1,.208.971,2.459,2.459,0,0,1-.283,1.227,2.33,2.33,0,0,1-.766.817,3.341,3.341,0,0,1-1.111.455,6.091,6.091,0,0,1-1.326.14,5.469,5.469,0,0,1-.574-.038q-.341-.037-.7-.109a5.683,5.683,0,0,1-.673-.178A2.091,2.091,0,0,1,0,96.737Z" fill="#5b5b5b" />
                <path d="M8.318,88.357a.708.708,0,0,1-.512-.205.692.692,0,0,1-.213-.52.72.72,0,0,1,.725-.731.724.724,0,0,1,.523.208.731.731,0,0,1,0,1.036A.72.72,0,0,1,8.318,88.357Zm.547,8.777H7.744v-7H8.865Z" fill="#5b5b5b" />
                <path d="M17.109,96.573q0,3.855-3.691,3.855a4.959,4.959,0,0,1-2.27-.492V98.815a4.665,4.665,0,0,0,2.256.656q2.584,0,2.584-2.748v-.766h-.027a2.622,2.622,0,0,1-2.406,1.34,2.628,2.628,0,0,1-2.1-.933,3.728,3.728,0,0,1-.8-2.505,4.356,4.356,0,0,1,.858-2.837,2.866,2.866,0,0,1,2.349-1.053,2.28,2.28,0,0,1,2.1,1.135h.027v-.971h1.121Zm-1.121-2.6V92.937a2,2,0,0,0-.563-1.429,1.858,1.858,0,0,0-1.405-.595,1.948,1.948,0,0,0-1.627.755,3.374,3.374,0,0,0-.588,2.116,2.9,2.9,0,0,0,.564,1.87,1.822,1.822,0,0,0,1.494.7,1.95,1.95,0,0,0,1.534-.67A2.5,2.5,0,0,0,15.988,93.969Z" fill="#5b5b5b" />
                <path d="M25.189,97.134H24.068V93.142q0-2.229-1.627-2.229a1.765,1.765,0,0,0-1.391.632,2.342,2.342,0,0,0-.551,1.6v3.992H19.379v-7H20.5V91.3h.027a2.528,2.528,0,0,1,2.3-1.326,2.144,2.144,0,0,1,1.758.742,3.306,3.306,0,0,1,.607,2.143Z" fill="#5b5b5b" />
                <path d="M32.313,97.134H31.191V96.04h-.027A2.346,2.346,0,0,1,29.012,97.3a2.3,2.3,0,0,1-1.638-.554,1.917,1.917,0,0,1-.591-1.47q0-1.962,2.311-2.283l2.1-.294q0-1.784-1.441-1.784a3.444,3.444,0,0,0-2.283.861V90.626a4.335,4.335,0,0,1,2.379-.656q2.467,0,2.467,2.611Zm-1.121-3.541-1.687.232a2.736,2.736,0,0,0-1.176.386,1.113,1.113,0,0,0-.4.981,1.067,1.067,0,0,0,.365.837,1.415,1.415,0,0,0,.975.325,1.8,1.8,0,0,0,1.377-.584,2.088,2.088,0,0,0,.543-1.48Z" fill="#5b5b5b" />
                <path d="M35.547,97.134H34.426V86.771h1.121Z" fill="#5b5b5b" />
                <path d="M44.994,97.134H43.627l-1.641-2.748a6.081,6.081,0,0,0-.437-.653,2.518,2.518,0,0,0-.435-.441,1.507,1.507,0,0,0-.479-.25,1.971,1.971,0,0,0-.577-.079h-.943v4.17H37.967v-9.8h2.926a4.175,4.175,0,0,1,1.186.161,2.651,2.651,0,0,1,.943.489,2.272,2.272,0,0,1,.625.817,2.708,2.708,0,0,1,.227,1.145,2.757,2.757,0,0,1-.154.94,2.448,2.448,0,0,1-.437.762,2.661,2.661,0,0,1-.684.571,3.49,3.49,0,0,1-.9.366v.027a2.072,2.072,0,0,1,.427.25,2.381,2.381,0,0,1,.345.332,4.444,4.444,0,0,1,.325.434c.106.162.227.35.358.564ZM39.115,88.37v3.555h1.559a2.366,2.366,0,0,0,.8-.13,1.848,1.848,0,0,0,.632-.373,1.693,1.693,0,0,0,.418-.595,2,2,0,0,0,.15-.79,1.536,1.536,0,0,0-.51-1.227,2.187,2.187,0,0,0-1.473-.441Z" fill="#5b5b5b" />
                <path d="M49.717,96.737V95.384a2.633,2.633,0,0,0,.558.369,4.487,4.487,0,0,0,.684.277,5.424,5.424,0,0,0,.722.174,4.018,4.018,0,0,0,.67.062,2.622,2.622,0,0,0,1.582-.393,1.473,1.473,0,0,0,.349-1.822,1.962,1.962,0,0,0-.481-.537,4.788,4.788,0,0,0-.729-.465q-.42-.222-.906-.468-.513-.26-.957-.526a4.143,4.143,0,0,1-.771-.588,2.452,2.452,0,0,1-.517-.728,2.475,2.475,0,0,1,.106-2.119A2.518,2.518,0,0,1,50.8,87.8a3.5,3.5,0,0,1,1.091-.479,4.977,4.977,0,0,1,1.247-.157,4.785,4.785,0,0,1,2.113.349v1.292a3.832,3.832,0,0,0-2.229-.6,3.669,3.669,0,0,0-.752.079,2.107,2.107,0,0,0-.67.256,1.481,1.481,0,0,0-.479.458,1.216,1.216,0,0,0-.186.684,1.4,1.4,0,0,0,.141.649,1.6,1.6,0,0,0,.414.5,4.088,4.088,0,0,0,.666.438q.393.212.906.465t1,.547a4.531,4.531,0,0,1,.826.636,2.811,2.811,0,0,1,.564.772,2.176,2.176,0,0,1,.209.971,2.469,2.469,0,0,1-.284,1.227,2.33,2.33,0,0,1-.766.817,3.344,3.344,0,0,1-1.11.455,6.1,6.1,0,0,1-1.326.14,5.437,5.437,0,0,1-.574-.038q-.343-.037-.7-.109a5.65,5.65,0,0,1-.674-.178A2.118,2.118,0,0,1,49.717,96.737Z" fill="#5b5b5b" />
                <path d="M63.088,93.914H58.146a2.614,2.614,0,0,0,.629,1.8,2.167,2.167,0,0,0,1.654.636,3.441,3.441,0,0,0,2.174-.779v1.053a4.065,4.065,0,0,1-2.441.67,2.957,2.957,0,0,1-2.33-.954,3.9,3.9,0,0,1-.848-2.683A3.829,3.829,0,0,1,57.91,91a2.97,2.97,0,0,1,2.3-1.029,2.63,2.63,0,0,1,2.125.889,3.7,3.7,0,0,1,.752,2.468Zm-1.148-.95a2.277,2.277,0,0,0-.468-1.511,1.6,1.6,0,0,0-1.282-.54,1.809,1.809,0,0,0-1.346.567,2.571,2.571,0,0,0-.684,1.483Z" fill="#5b5b5b" />
                <path d="M68.434,91.269a1.37,1.37,0,0,0-.848-.226,1.43,1.43,0,0,0-1.2.677,3.129,3.129,0,0,0-.482,1.846v3.568H64.783v-7H65.9v1.442h.027a2.451,2.451,0,0,1,.732-1.152,1.665,1.665,0,0,1,1.1-.414,1.823,1.823,0,0,1,.67.1Z" fill="#5b5b5b" />
                <path d="M75.715,90.134l-2.789,7h-1.1l-2.652-7H70.4L72.18,95.22a4.488,4.488,0,0,1,.246.978h.027a4.687,4.687,0,0,1,.219-.95l1.859-5.113Z" fill="#5b5b5b" />
                <path d="M77.492,88.357a.712.712,0,0,1-.514-.205.694.694,0,0,1-.211-.52.716.716,0,0,1,.725-.731.722.722,0,0,1,.522.208.729.729,0,0,1,0,1.036A.717.717,0,0,1,77.492,88.357Zm.547,8.777H76.918v-7h1.121Z" fill="#5b5b5b" />
                <path d="M85.08,96.813a3.642,3.642,0,0,1-1.914.485,3.169,3.169,0,0,1-2.417-.974A3.528,3.528,0,0,1,79.83,93.8a3.884,3.884,0,0,1,.99-2.779,3.469,3.469,0,0,1,2.646-1.049,3.681,3.681,0,0,1,1.627.342V91.46a2.851,2.851,0,0,0-1.668-.547,2.255,2.255,0,0,0-1.761.769,2.918,2.918,0,0,0-.687,2.02,2.779,2.779,0,0,0,.646,1.941,2.227,2.227,0,0,0,1.733.711,2.81,2.81,0,0,0,1.723-.608Z" fill="#5b5b5b" />
                <path d="M92.4,93.914H87.459a2.614,2.614,0,0,0,.629,1.8,2.167,2.167,0,0,0,1.654.636,3.441,3.441,0,0,0,2.174-.779v1.053a4.065,4.065,0,0,1-2.441.67,2.957,2.957,0,0,1-2.33-.954,3.9,3.9,0,0,1-.848-2.683A3.829,3.829,0,0,1,87.223,91a2.97,2.97,0,0,1,2.3-1.029,2.63,2.63,0,0,1,2.125.889,3.7,3.7,0,0,1,.752,2.468Zm-1.148-.95a2.277,2.277,0,0,0-.468-1.511,1.6,1.6,0,0,0-1.282-.54,1.809,1.809,0,0,0-1.346.567,2.571,2.571,0,0,0-.684,1.483Z" fill="#5b5b5b" />
            </g>
            <g>
                <path d="M29.944,246.815l-2.769,9.8H25.829l-2.017-7.164a4.485,4.485,0,0,1-.157-1h-.027a5.084,5.084,0,0,1-.178.984l-2.03,7.178H20.087l-2.871-9.8H18.48l2.085,7.52a4.889,4.889,0,0,1,.164.984h.034a5.8,5.8,0,0,1,.212-.984l2.167-7.52h1.1l2.078,7.574a5.47,5.47,0,0,1,.164.916h.027a5.465,5.465,0,0,1,.185-.943l2-7.547Z" fill="#5b5b5b" />
                <path d="M36.541,253.4H31.6a2.618,2.618,0,0,0,.629,1.8,2.168,2.168,0,0,0,1.654.636,3.441,3.441,0,0,0,2.174-.779v1.053a4.062,4.062,0,0,1-2.44.67,2.959,2.959,0,0,1-2.331-.954,3.9,3.9,0,0,1-.848-2.683,3.825,3.825,0,0,1,.927-2.663,2.968,2.968,0,0,1,2.3-1.029,2.633,2.633,0,0,1,2.126.889,3.707,3.707,0,0,1,.752,2.468Zm-1.148-.95a2.278,2.278,0,0,0-.469-1.511,1.594,1.594,0,0,0-1.281-.54,1.809,1.809,0,0,0-1.347.567,2.577,2.577,0,0,0-.684,1.483Z" fill="#5b5b5b" />
                <path d="M39.385,255.607h-.027v1.012H38.236V246.255h1.121v4.594h.027a2.65,2.65,0,0,1,2.42-1.395,2.568,2.568,0,0,1,2.109.94,3.883,3.883,0,0,1,.762,2.519,4.34,4.34,0,0,1-.854,2.813,2.844,2.844,0,0,1-2.338,1.056A2.3,2.3,0,0,1,39.385,255.607Zm-.027-2.823v.978a2.078,2.078,0,0,0,.564,1.473,2.011,2.011,0,0,0,3.027-.174,3.57,3.57,0,0,0,.578-2.167,2.82,2.82,0,0,0-.54-1.832,1.788,1.788,0,0,0-1.463-.663,1.986,1.986,0,0,0-1.572.68A2.5,2.5,0,0,0,39.357,252.783Z" fill="#5b5b5b" />
                <path d="M58.04,256.618H56.769l-1.039-2.748H51.573l-.978,2.748H49.317l3.76-9.8h1.189Zm-2.687-3.78-1.538-4.177a4,4,0,0,1-.15-.656h-.027a3.755,3.755,0,0,1-.157.656l-1.524,4.177Z" fill="#5b5b5b" />
                <path d="M60.48,255.607h-.027v4.231H59.332v-10.22h1.121v1.23h.027a2.65,2.65,0,0,1,2.42-1.395,2.564,2.564,0,0,1,2.112.94,3.893,3.893,0,0,1,.759,2.519,4.34,4.34,0,0,1-.854,2.813,2.844,2.844,0,0,1-2.338,1.056A2.342,2.342,0,0,1,60.48,255.607Zm-.027-2.823v.978a2.078,2.078,0,0,0,.564,1.473,2.011,2.011,0,0,0,3.027-.174,3.57,3.57,0,0,0,.578-2.167,2.82,2.82,0,0,0-.54-1.832,1.788,1.788,0,0,0-1.463-.663,1.986,1.986,0,0,0-1.572.68A2.5,2.5,0,0,0,60.453,252.783Z" fill="#5b5b5b" />
                <path d="M68.711,255.607h-.027v4.231H67.563v-10.22h1.121v1.23h.027a2.65,2.65,0,0,1,2.42-1.395,2.564,2.564,0,0,1,2.112.94A3.893,3.893,0,0,1,74,252.913a4.34,4.34,0,0,1-.854,2.813,2.844,2.844,0,0,1-2.338,1.056A2.342,2.342,0,0,1,68.711,255.607Zm-.027-2.823v.978a2.078,2.078,0,0,0,.564,1.473,2.011,2.011,0,0,0,3.027-.174,3.57,3.57,0,0,0,.578-2.167,2.82,2.82,0,0,0-.54-1.832,1.788,1.788,0,0,0-1.463-.663,1.986,1.986,0,0,0-1.572.68A2.5,2.5,0,0,0,68.684,252.783Z" fill="#5b5b5b" />
            </g>
            <g>
                <rect x="46.632" y="120.589" width="1.5" height="44.201" fill="#969696" />
                <polygon points="52.618 163.258 47.382 172.325 42.146 163.258 52.618 163.258" fill="#969696" />
                <polygon points="52.618 122.121 47.382 113.054 42.146 122.121 52.618 122.121" fill="#969696" />
            </g>
            <g>
                <rect x="217.632" y="120.589" width="1.5" height="44.201" fill="#969696" />
                <polygon points="223.618 163.258 218.382 172.325 213.146 163.258 223.618 163.258" fill="#969696" />
                <polygon points="223.618 122.121 218.382 113.054 213.146 122.121 223.618 122.121" fill="#969696" />
            </g>
            <g>
                <rect x="384.632" y="120.589" width="1.5" height="44.201" fill="#969696" />
                <polygon points="390.618 163.258 385.382 172.325 380.146 163.258 390.618 163.258" fill="#969696" />
                <polygon points="390.618 122.121 385.382 113.054 380.146 122.121 390.618 122.121" fill="#969696" />
            </g>
            <g>
                <polygon points="557.151 174.694 555.651 174.694 555.651 46.44 451.281 46.44 451.281 44.94 557.151 44.94 557.151 174.694" fill="#969696" />
                <polygon points="452.813 50.925 443.747 45.69 452.813 40.454 452.813 50.925" fill="#969696" />
                <polygon points="551.166 173.162 556.401 182.229 561.638 173.162 551.166 173.162" fill="#969696" />
            </g>
            <g>
                <rect x="278.281" y="210.94" width="44.201" height="1.5" fill="#969696" />
                <polygon points="320.95 216.925 330.018 211.69 320.95 206.454 320.95 216.925" fill="#969696" />
            </g>
            <g>
                <rect x="105.281" y="210.94" width="44.201" height="1.5" fill="#969696" />
                <polygon points="147.95 216.925 157.018 211.69 147.95 206.454 147.95 216.925" fill="#969696" />
            </g>
            <g>
                <g>
                    <path d="M76.011,17.5H35.092c.185.462.277.925.416,1.387H76.057a.927.927,0,0,1,.925.925V67.018a.927.927,0,0,1-.925.925H21.037a.927.927,0,0,1-.925-.925V32.526c-.462-.185-.925-.37-1.387-.6V67.018a2.318,2.318,0,0,0,2.312,2.312H76.011a2.318,2.318,0,0,0,2.312-2.312V19.811A2.289,2.289,0,0,0,76.011,17.5Z" fill="#389bd5" />
                    <path d="M36.433,54.072H32.272a1.125,1.125,0,0,0-1.11,1.11v5.872a1.125,1.125,0,0,0,1.11,1.11h5.872a1.125,1.125,0,0,0,1.11-1.11v-5.04h.971l1.2-1.295-.092-1.711.416-.416,1.48.046.832-.786.046-1.48,1.017-1.11,1.248-.046V46.4H44.062Zm-3.052,6.843a.971.971,0,1,1,.971-.971A.948.948,0,0,1,33.382,60.914Z" fill="#389bd5" />
                    <path d="M59.366,54.072H55.2a1.125,1.125,0,0,0-1.11,1.11v5.872a1.125,1.125,0,0,0,1.11,1.11h5.872a1.125,1.125,0,0,0,1.11-1.11v-5.04h.971l1.2-1.295-.092-1.711.416-.416,1.48.046.832-.786.046-1.48,1.017-1.11,1.248-.046V46.4H66.995Zm-3.052,6.843a.971.971,0,1,1,.971-.971A.948.948,0,0,1,56.314,60.914Z" fill="#389bd5" />
                    <path d="M36.433,34.375H32.272a1.125,1.125,0,0,0-1.11,1.11v5.872a1.125,1.125,0,0,0,1.11,1.11h5.872a1.125,1.125,0,0,0,1.11-1.11v-5.04h.971l1.2-1.295-.092-1.711.416-.416,1.48.046.832-.786.046-1.48,1.017-1.11,1.248-.046V26.7H44.062Zm-3.052,6.843a.971.971,0,1,1,.971-.971A.948.948,0,0,1,33.382,41.218Z" fill="#389bd5" />
                    <path d="M59.366,34.375H55.2a1.125,1.125,0,0,0-1.11,1.11v5.872a1.125,1.125,0,0,0,1.11,1.11h5.872a1.125,1.125,0,0,0,1.11-1.11v-5.04h.971l1.2-1.295-.092-1.711.416-.416,1.48.046.832-.786.046-1.48,1.017-1.11,1.248-.046V26.7H66.995Zm-3.052,6.843a.971.971,0,1,1,.971-.971A.948.948,0,0,1,56.314,41.218Z" fill="#389bd5" />
                </g>
                <path d="M23.487,23.325h2.682a1.727,1.727,0,0,0,1.9-1.9,1.9,1.9,0,0,0-1.9-1.9H17.847l4.439-4.624v2.034h3.93a4.485,4.485,0,0,1,0,8.97l3.7,3.606a9.851,9.851,0,0,0,4.115-8,9.966,9.966,0,0,0-9.941-9.848,9.848,9.848,0,1,0,0,19.7,9.957,9.957,0,0,0,3.144-.509l-4.808-4.993Z" fill="#389bd5" />
            </g>
            <path d="M62.824,229.461a24.995,24.995,0,1,1,4.656-35.03,24.9,24.9,0,0,1-4.656,35.03" fill="#59b4d9" />
            <path d="M58.231,214a5.385,5.385,0,0,0,7.541,1c.123-.094.218-.208.33-.309,2.409,1.7,4.082,2.817,5.025,3.459a21.566,21.566,0,0,0,.67-2.142c-1-.741-2.343-1.778-4.29-3.356a5.34,5.34,0,0,0-7.666-6.548c-2.546-2.284-5.343-4.9-8.293-7.833,9.165-4.929,15.676-4.207,15.676-4.207a25.109,25.109,0,0,0-3.606-3.7,26.627,26.627,0,0,0-16.729,3.119l0,0h0q-3.429-3.589-6.983-7.712a23.264,23.264,0,0,0-3.312,1.347,53.84,53.84,0,0,0,6.754,8.565h0l.017.017a46.293,46.293,0,0,0-6.944,6.015c-.29.309-.569.62-.842.931a7.546,7.546,0,0,0-4.117.282A18.265,18.265,0,0,1,29.735,192.1a26.353,26.353,0,0,0-2.692,3.267,16.016,16.016,0,0,0,.985,10.1,7.538,7.538,0,0,0-.005,9.153,7.743,7.743,0,0,0,.559.645,37.87,37.87,0,0,0-1.46,8.761c.237.322.237.582.472.9a25.375,25.375,0,0,0,4.16,4.008,27.556,27.556,0,0,1,1.714-11.372,7.507,7.507,0,0,0,3.483-.566c.64.563,1.31,1.132,2.025,1.711a41.672,41.672,0,0,0,7.285,4.643,4.941,4.941,0,0,0,7.951,4.437,4.918,4.918,0,0,0,1.108-1.216,44.6,44.6,0,0,0,9.806,1.019c.386,0,2.177-2.436,3.2-3.946a26.373,26.373,0,0,1-12.3-.84,4.913,4.913,0,0,0-7.516-3.113,46.853,46.853,0,0,1-6.758-4.49q-.707-.559-1.359-1.118a7.578,7.578,0,0,0,.318-7.55c.286-.286.567-.573.871-.857a54.887,54.887,0,0,1,6.519-5.274c-.082-.076-.156-.156-.236-.233.081.075.157.152.239.227h0c3.121,2.886,6.43,5.621,9.564,8.065A5.348,5.348,0,0,0,58.231,214Z" fill="#fff" />
            <g>
                <path d="M198.238,87.606l-2.769,9.8h-1.347l-2.017-7.164a4.429,4.429,0,0,1-.157-1h-.027a5.084,5.084,0,0,1-.178.984l-2.03,7.178h-1.333l-2.871-9.8h1.265l2.085,7.52a5.03,5.03,0,0,1,.164.984h.034a5.709,5.709,0,0,1,.212-.984l2.167-7.52h1.1l2.078,7.574a5.677,5.677,0,0,1,.164.916h.027a5.465,5.465,0,0,1,.185-.943l2-7.547Z" fill="#5b5b5b" />
                <path d="M204.835,94.189h-4.942a2.614,2.614,0,0,0,.629,1.8,2.167,2.167,0,0,0,1.654.636,3.441,3.441,0,0,0,2.174-.779V96.9a4.062,4.062,0,0,1-2.44.67,2.957,2.957,0,0,1-2.331-.954,3.9,3.9,0,0,1-.848-2.683,3.829,3.829,0,0,1,.926-2.663,2.971,2.971,0,0,1,2.3-1.029,2.632,2.632,0,0,1,2.126.889,3.707,3.707,0,0,1,.752,2.468Zm-1.148-.95a2.288,2.288,0,0,0-.468-1.511,1.6,1.6,0,0,0-1.282-.54,1.811,1.811,0,0,0-1.347.567,2.571,2.571,0,0,0-.684,1.483Z" fill="#5b5b5b" />
                <path d="M207.679,96.4h-.027v1.012H206.53V87.045h1.121v4.594h.027a2.652,2.652,0,0,1,2.42-1.395,2.565,2.565,0,0,1,2.108.94,3.877,3.877,0,0,1,.763,2.519,4.34,4.34,0,0,1-.854,2.813,2.847,2.847,0,0,1-2.338,1.056A2.3,2.3,0,0,1,207.679,96.4Zm-.027-2.823v.978a2.085,2.085,0,0,0,.563,1.473,2.013,2.013,0,0,0,3.029-.174,3.577,3.577,0,0,0,.577-2.167,2.826,2.826,0,0,0-.54-1.832,1.788,1.788,0,0,0-1.463-.663,1.985,1.985,0,0,0-1.572.68A2.5,2.5,0,0,0,207.651,93.574Z" fill="#5b5b5b" />
                <path d="M226.334,97.409h-1.271l-1.039-2.748h-4.156l-.978,2.748h-1.278l3.76-9.8h1.189Zm-2.687-3.78-1.538-4.177a3.9,3.9,0,0,1-.15-.656h-.027a3.669,3.669,0,0,1-.157.656l-1.524,4.177Z" fill="#5b5b5b" />
                <path d="M228.774,96.4h-.027v4.231h-1.121V90.409h1.121v1.23h.027a2.652,2.652,0,0,1,2.42-1.395,2.564,2.564,0,0,1,2.112.94,3.893,3.893,0,0,1,.759,2.519,4.34,4.34,0,0,1-.854,2.813,2.847,2.847,0,0,1-2.338,1.056A2.342,2.342,0,0,1,228.774,96.4Zm-.027-2.823v.978a2.085,2.085,0,0,0,.563,1.473,2.013,2.013,0,0,0,3.029-.174,3.577,3.577,0,0,0,.577-2.167,2.826,2.826,0,0,0-.54-1.832,1.788,1.788,0,0,0-1.463-.663,1.985,1.985,0,0,0-1.572.68A2.5,2.5,0,0,0,228.747,93.574Z" fill="#5b5b5b" />
                <path d="M237,96.4h-.027v4.231h-1.121V90.409h1.121v1.23H237a2.652,2.652,0,0,1,2.42-1.395,2.564,2.564,0,0,1,2.112.94A3.893,3.893,0,0,1,242.3,93.7a4.34,4.34,0,0,1-.854,2.813,2.847,2.847,0,0,1-2.338,1.056A2.342,2.342,0,0,1,237,96.4Zm-.027-2.823v.978a2.085,2.085,0,0,0,.563,1.473,2.013,2.013,0,0,0,3.029-.174,3.577,3.577,0,0,0,.577-2.167,2.826,2.826,0,0,0-.54-1.832,1.788,1.788,0,0,0-1.463-.663,1.985,1.985,0,0,0-1.572.68A2.5,2.5,0,0,0,236.978,93.574Z" fill="#5b5b5b" />
            </g>
            <path d="M231.117,70.252a24.995,24.995,0,1,1,4.656-35.03,24.9,24.9,0,0,1-4.656,35.03" fill="#59b4d9" />
            <path d="M226.524,54.791a5.385,5.385,0,0,0,7.541,1c.123-.094.218-.208.33-.309,2.409,1.7,4.082,2.817,5.025,3.459a21.566,21.566,0,0,0,.67-2.142c-1-.741-2.343-1.778-4.29-3.356a5.34,5.34,0,0,0-7.666-6.548c-2.546-2.284-5.343-4.9-8.293-7.833,9.165-4.929,15.676-4.207,15.676-4.207a25.109,25.109,0,0,0-3.606-3.7,26.627,26.627,0,0,0-16.729,3.119l0,0h0q-3.429-3.589-6.983-7.712a23.264,23.264,0,0,0-3.312,1.347,53.84,53.84,0,0,0,6.754,8.565h0l.017.017a46.293,46.293,0,0,0-6.944,6.015c-.29.309-.569.62-.842.931a7.546,7.546,0,0,0-4.117.282,18.265,18.265,0,0,1-1.724-10.832,26.353,26.353,0,0,0-2.692,3.267,16.016,16.016,0,0,0,.985,10.1,7.538,7.538,0,0,0-.005,9.153,7.743,7.743,0,0,0,.559.645,37.87,37.87,0,0,0-1.46,8.761c.237.322.237.582.472.9a25.375,25.375,0,0,0,4.16,4.008,27.556,27.556,0,0,1,1.714-11.372,7.507,7.507,0,0,0,3.483-.566c.64.563,1.31,1.132,2.025,1.711a41.672,41.672,0,0,0,7.285,4.643,4.941,4.941,0,0,0,7.951,4.437,4.918,4.918,0,0,0,1.108-1.216,44.6,44.6,0,0,0,9.806,1.019c.386,0,2.177-2.436,3.2-3.946a26.373,26.373,0,0,1-12.3-.84,4.913,4.913,0,0,0-7.516-3.113,46.853,46.853,0,0,1-6.758-4.49q-.707-.559-1.359-1.118a7.578,7.578,0,0,0,.318-7.55c.286-.286.567-.573.871-.857a54.887,54.887,0,0,1,6.519-5.274c-.082-.076-.156-.156-.236-.233.081.075.157.152.239.227h0c3.121,2.886,6.43,5.621,9.564,8.065A5.348,5.348,0,0,0,226.524,54.791Z" fill="#fff" />
            <path d="M173.677,12.053H172.4V7.807a8.006,8.006,0,0,0-2-5.32h0c-.047-.051-.088-.108-.134-.159a7.163,7.163,0,0,0-10.57,0,8.006,8.006,0,0,0-2.132,5.478v4.248H156.3a.957.957,0,0,0-.958.958v8.628h0v2.6a.958.958,0,0,0,.958.958h17.378a.958.958,0,0,0,.958-.958V13.012A.958.958,0,0,0,173.677,12.053Zm-4.8,0h-7.788V7.807a4.48,4.48,0,0,1,1.181-3.072,3.644,3.644,0,0,1,5.425,0,4.386,4.386,0,0,1,.465.6h0a4.545,4.545,0,0,1,.717,2.468v4.249Z" fill="#3999c6" />
            <g>
                <path d="M194.881,229.56a2.007,2.007,0,0,0,2.007,2.007h45.986a2.007,2.007,0,0,0,2.007-2.007V198.231h-50Z" fill="#59b4d9" />
                <path d="M242.874,188.933H196.888a2.006,2.006,0,0,0-2.007,2.007v10.627h50V190.94a2.007,2.007,0,0,0-2.007-2.007" fill="#a0a1a2" />
                <g opacity="0.2" style="isolation: isolate">
                    <path d="M196.895,188.933a2.007,2.007,0,0,0-2.007,2.007v38.62a2.008,2.008,0,0,0,2.007,2.007h2.188L238.5,188.933Z" fill="#fff" />
                </g>
                <rect x="207.738" y="193.712" width="33.671" height="3.942" fill="#fff" />
                <path d="M206.191,195.616a4.878,4.878,0,1,1-4.878-4.879,4.879,4.879,0,0,1,4.878,4.879" fill="#59b4d9" />
                <polygon points="200.797 196.165 203.01 198.501 201.809 198.501 198.85 195.683 201.798 192.865 202.996 192.865 200.797 195.187 206.19 195.187 206.19 196.165 200.797 196.165" fill="#fff" />
            </g>
            <g>
                <path d="M362.034,229.647a2.007,2.007,0,0,0,2.007,2.007h45.986a2.007,2.007,0,0,0,2.007-2.007V198.318h-50Z" fill="#59b4d9" />
                <path d="M410.027,189.02H364.041a2.006,2.006,0,0,0-2.007,2.007v10.627h50V191.027a2.007,2.007,0,0,0-2.007-2.007" fill="#a0a1a2" />
                <g opacity="0.2" style="isolation: isolate">
                    <path d="M364.048,189.02a2.007,2.007,0,0,0-2.007,2.007v38.62a2.008,2.008,0,0,0,2.007,2.007h2.188l39.418-42.634Z" fill="#fff" />
                </g>
                <rect x="374.891" y="193.799" width="33.671" height="3.942" fill="#fff" />
                <path d="M373.344,195.7a4.878,4.878,0,1,1-4.878-4.879,4.879,4.879,0,0,1,4.878,4.879" fill="#59b4d9" />
                <polygon points="367.95 196.252 370.163 198.588 368.962 198.588 366.003 195.77 368.951 192.952 370.149 192.952 367.95 195.274 373.343 195.274 373.343 196.252 367.95 196.252" fill="#fff" />
            </g>
            <g>
                <path d="M210.119,255.519a5.749,5.749,0,0,1-2.707.574,4.364,4.364,0,0,1-3.35-1.347,4.968,4.968,0,0,1-1.258-3.534,5.208,5.208,0,0,1,1.414-3.8,4.8,4.8,0,0,1,3.59-1.449,5.753,5.753,0,0,1,2.311.4v1.224a4.685,4.685,0,0,0-2.324-.588,3.567,3.567,0,0,0-2.738,1.128,4.25,4.25,0,0,0-1.049,3.015,4.041,4.041,0,0,0,.98,2.854,3.339,3.339,0,0,0,2.574,1.063,4.83,4.83,0,0,0,2.557-.656Z" fill="#5b5b5b" />
                <path d="M213.086,255.929h-1.121V245.566h1.121Z" fill="#5b5b5b" />
                <path d="M215.93,247.152a.712.712,0,0,1-.514-.205.694.694,0,0,1-.211-.52.716.716,0,0,1,.725-.731.722.722,0,0,1,.522.208.729.729,0,0,1,0,1.036A.717.717,0,0,1,215.93,247.152Zm.547,8.777h-1.121v-7h1.121Z" fill="#5b5b5b" />
                <path d="M224.371,252.71H219.43a2.614,2.614,0,0,0,.629,1.8,2.167,2.167,0,0,0,1.654.636,3.441,3.441,0,0,0,2.174-.779v1.053a4.065,4.065,0,0,1-2.441.67,2.957,2.957,0,0,1-2.33-.954,3.9,3.9,0,0,1-.848-2.683,3.829,3.829,0,0,1,.926-2.663,2.97,2.97,0,0,1,2.3-1.029,2.63,2.63,0,0,1,2.125.889,3.7,3.7,0,0,1,.752,2.468Zm-1.148-.95a2.277,2.277,0,0,0-.468-1.511,1.6,1.6,0,0,0-1.282-.54,1.809,1.809,0,0,0-1.346.567,2.571,2.571,0,0,0-.684,1.483Z" fill="#5b5b5b" />
                <path d="M231.877,255.929h-1.121v-3.992q0-2.229-1.627-2.229a1.765,1.765,0,0,0-1.391.632,2.342,2.342,0,0,0-.551,1.6v3.992h-1.121v-7h1.121v1.162h.027a2.528,2.528,0,0,1,2.3-1.326,2.144,2.144,0,0,1,1.758.742,3.306,3.306,0,0,1,.607,2.143Z" fill="#5b5b5b" />
                <path d="M237.236,255.861a2.155,2.155,0,0,1-1.045.219q-1.84,0-1.84-2.051v-4.143h-1.2v-.957h1.2V247.22l1.121-.362v2.071h1.764v.957h-1.764v3.944a1.631,1.631,0,0,0,.24,1,.954.954,0,0,0,.793.3,1.177,1.177,0,0,0,.73-.232Z" fill="#5b5b5b" />
            </g>
            <g>
                <path d="M350.809,255.519a5.749,5.749,0,0,1-2.707.574,4.365,4.365,0,0,1-3.35-1.347,4.972,4.972,0,0,1-1.258-3.534,5.209,5.209,0,0,1,1.416-3.8,4.8,4.8,0,0,1,3.588-1.449,5.75,5.75,0,0,1,2.311.4v1.224a4.682,4.682,0,0,0-2.324-.588,3.566,3.566,0,0,0-2.737,1.128,4.247,4.247,0,0,0-1.05,3.015,4.042,4.042,0,0,0,.981,2.854,3.337,3.337,0,0,0,2.573,1.063,4.828,4.828,0,0,0,2.557-.656Z" fill="#5b5b5b" />
                <path d="M353.775,255.929h-1.121V245.566h1.121Z" fill="#5b5b5b" />
                <path d="M356.619,247.152a.708.708,0,0,1-.512-.205.692.692,0,0,1-.213-.52.72.72,0,0,1,.725-.731.724.724,0,0,1,.523.208.731.731,0,0,1,0,1.036A.72.72,0,0,1,356.619,247.152Zm.547,8.777h-1.121v-7h1.121Z" fill="#5b5b5b" />
                <path d="M365.063,252.71h-4.943a2.623,2.623,0,0,0,.629,1.8,2.17,2.17,0,0,0,1.654.636,3.437,3.437,0,0,0,2.174-.779v1.053a4.059,4.059,0,0,1-2.439.67,2.961,2.961,0,0,1-2.332-.954,3.907,3.907,0,0,1-.848-2.683,3.825,3.825,0,0,1,.927-2.663,2.968,2.968,0,0,1,2.3-1.029,2.635,2.635,0,0,1,2.127.889,3.707,3.707,0,0,1,.752,2.468Zm-1.148-.95a2.283,2.283,0,0,0-.469-1.511,1.6,1.6,0,0,0-1.281-.54,1.811,1.811,0,0,0-1.348.567,2.577,2.577,0,0,0-.684,1.483Z" fill="#5b5b5b" />
                <path d="M372.568,255.929h-1.121v-3.992q0-2.229-1.627-2.229a1.765,1.765,0,0,0-1.392.632,2.342,2.342,0,0,0-.55,1.6v3.992h-1.121v-7h1.121v1.162h.027a2.525,2.525,0,0,1,2.3-1.326,2.139,2.139,0,0,1,1.756.742,3.3,3.3,0,0,1,.609,2.143Z" fill="#5b5b5b" />
                <path d="M377.928,255.861a2.163,2.163,0,0,1-1.047.219q-1.838,0-1.838-2.051v-4.143h-1.2v-.957h1.2V247.22l1.121-.362v2.071h1.764v.957h-1.764v3.944a1.639,1.639,0,0,0,.238,1,.955.955,0,0,0,.793.3,1.181,1.181,0,0,0,.732-.232Z" fill="#5b5b5b" />
                <path d="M392.078,248.929l-2.1,7h-1.162l-1.441-5.011a3.217,3.217,0,0,1-.109-.649h-.027a3.078,3.078,0,0,1-.145.636l-1.564,5.024h-1.121l-2.119-7h1.176l1.449,5.264a3.247,3.247,0,0,1,.1.629h.055a2.942,2.942,0,0,1,.123-.643l1.613-5.25h1.025l1.449,5.277a3.812,3.812,0,0,1,.1.629h.055a2.96,2.96,0,0,1,.117-.629l1.422-5.277Z" fill="#5b5b5b" />
                <path d="M393.951,247.152a.712.712,0,0,1-.514-.205.694.694,0,0,1-.211-.52.716.716,0,0,1,.725-.731.722.722,0,0,1,.522.208.729.729,0,0,1,0,1.036A.717.717,0,0,1,393.951,247.152Zm.547,8.777h-1.121v-7H394.5Z" fill="#5b5b5b" />
                <path d="M400.014,255.861a2.155,2.155,0,0,1-1.045.219q-1.84,0-1.84-2.051v-4.143h-1.2v-.957h1.2V247.22l1.121-.362v2.071h1.764v.957H398.25v3.944a1.631,1.631,0,0,0,.24,1,.954.954,0,0,0,.793.3,1.177,1.177,0,0,0,.73-.232Z" fill="#5b5b5b" />
                <path d="M407.322,255.929H406.2V251.9q0-2.188-1.627-2.187a1.773,1.773,0,0,0-1.381.632,2.355,2.355,0,0,0-.561,1.624v3.965h-1.121V245.566h1.121v4.525h.027a2.544,2.544,0,0,1,2.3-1.326q2.364,0,2.365,2.851Z" fill="#5b5b5b" />
                <path d="M419.08,255.929h-1.572l-3.09-3.363h-.027v3.363H413.27V245.566h1.121v6.569h.027l2.939-3.206h1.469l-3.246,3.377Z" fill="#5b5b5b" />
                <path d="M425.574,252.71h-4.943a2.623,2.623,0,0,0,.629,1.8,2.17,2.17,0,0,0,1.654.636,3.437,3.437,0,0,0,2.174-.779v1.053a4.059,4.059,0,0,1-2.439.67,2.961,2.961,0,0,1-2.332-.954,3.907,3.907,0,0,1-.848-2.683,3.825,3.825,0,0,1,.927-2.663,2.968,2.968,0,0,1,2.3-1.029,2.635,2.635,0,0,1,2.127.889,3.707,3.707,0,0,1,.752,2.468Zm-1.148-.95a2.283,2.283,0,0,0-.469-1.511,1.6,1.6,0,0,0-1.281-.54,1.811,1.811,0,0,0-1.348.567,2.577,2.577,0,0,0-.684,1.483Z" fill="#5b5b5b" />
                <path d="M432.84,248.929l-3.219,8.121q-.861,2.174-2.42,2.174a2.578,2.578,0,0,1-.732-.089v-1a2.083,2.083,0,0,0,.664.123,1.375,1.375,0,0,0,1.271-1.012l.561-1.326-2.734-6.986h1.244l1.893,5.387q.035.1.145.533h.041q.034-.164.137-.52l1.988-5.4Z" fill="#5b5b5b" />
            </g>
            <g>
                <path d="M522.133,254.6h-1.367l-1.641-2.748a6.081,6.081,0,0,0-.437-.653,2.515,2.515,0,0,0-.434-.441,1.517,1.517,0,0,0-.479-.25,1.983,1.983,0,0,0-.578-.079h-.943v4.17h-1.148v-9.8h2.926a4.17,4.17,0,0,1,1.186.161,2.635,2.635,0,0,1,.943.489,2.263,2.263,0,0,1,.626.817,2.983,2.983,0,0,1,.071,2.085,2.429,2.429,0,0,1-.437.762,2.628,2.628,0,0,1-.684.571,3.476,3.476,0,0,1-.9.366v.027a2.08,2.08,0,0,1,.428.25,2.381,2.381,0,0,1,.345.332,4.444,4.444,0,0,1,.325.434c.106.162.227.35.358.564Zm-5.879-8.764v3.555h1.559a2.372,2.372,0,0,0,.8-.13,1.848,1.848,0,0,0,.632-.373,1.691,1.691,0,0,0,.417-.595,2,2,0,0,0,.15-.79,1.536,1.536,0,0,0-.51-1.227,2.185,2.185,0,0,0-1.473-.441Z" fill="#5b5b5b" />
                <path d="M528.565,251.376h-4.942a2.614,2.614,0,0,0,.629,1.8,2.167,2.167,0,0,0,1.654.636,3.441,3.441,0,0,0,2.174-.779v1.053a4.062,4.062,0,0,1-2.44.67,2.957,2.957,0,0,1-2.331-.954,3.9,3.9,0,0,1-.848-2.683,3.829,3.829,0,0,1,.926-2.663,2.971,2.971,0,0,1,2.3-1.029,2.632,2.632,0,0,1,2.126.889,3.707,3.707,0,0,1,.752,2.468Zm-1.148-.95a2.288,2.288,0,0,0-.468-1.511,1.6,1.6,0,0,0-1.282-.54,1.811,1.811,0,0,0-1.347.567,2.571,2.571,0,0,0-.684,1.483Z" fill="#5b5b5b" />
                <path d="M535.271,254.6H534.15V253.5h-.027a2.348,2.348,0,0,1-2.153,1.258,2.3,2.3,0,0,1-1.638-.554,1.92,1.92,0,0,1-.591-1.47q0-1.962,2.311-2.283l2.1-.294q0-1.784-1.442-1.784a3.446,3.446,0,0,0-2.283.861v-1.148a4.34,4.34,0,0,1,2.379-.656q2.468,0,2.468,2.611Zm-1.121-3.541-1.688.232a2.741,2.741,0,0,0-1.176.386,1.113,1.113,0,0,0-.4.981,1.068,1.068,0,0,0,.366.837,1.412,1.412,0,0,0,.974.325,1.8,1.8,0,0,0,1.378-.584,2.092,2.092,0,0,0,.543-1.48Z" fill="#5b5b5b" />
                <path d="M538.5,254.6h-1.121V244.232H538.5Z" fill="#5b5b5b" />
                <path d="M547.856,254.527a2.161,2.161,0,0,1-1.046.219q-1.84,0-1.839-2.051v-4.143h-1.2V247.6h1.2v-1.709l1.121-.362V247.6h1.764v.957h-1.764V252.5a1.631,1.631,0,0,0,.239,1,.954.954,0,0,0,.793.3,1.18,1.18,0,0,0,.731-.232Z" fill="#5b5b5b" />
                <path d="M549.928,245.818a.71.71,0,0,1-.513-.205.691.691,0,0,1-.212-.52.718.718,0,0,1,.725-.731.726.726,0,0,1,.523.208.731.731,0,0,1,0,1.036A.721.721,0,0,1,549.928,245.818Zm.547,8.777h-1.121v-7h1.121Z" fill="#5b5b5b" />
                <path d="M562.684,254.6h-1.121v-4.02a3.023,3.023,0,0,0-.359-1.682,1.359,1.359,0,0,0-1.206-.52,1.492,1.492,0,0,0-1.22.656,2.5,2.5,0,0,0-.5,1.572V254.6h-1.121V250.44q0-2.065-1.593-2.064a1.474,1.474,0,0,0-1.217.619,2.556,2.556,0,0,0-.479,1.61V254.6h-1.121v-7h1.121V248.7h.027a2.377,2.377,0,0,1,2.174-1.271,2.022,2.022,0,0,1,1.982,1.449,2.5,2.5,0,0,1,2.324-1.449q2.31,0,2.311,2.851Z" fill="#5b5b5b" />
                <path d="M570.429,251.376h-4.942a2.614,2.614,0,0,0,.629,1.8,2.167,2.167,0,0,0,1.654.636,3.441,3.441,0,0,0,2.174-.779v1.053a4.062,4.062,0,0,1-2.44.67,2.957,2.957,0,0,1-2.331-.954,3.9,3.9,0,0,1-.848-2.683,3.829,3.829,0,0,1,.926-2.663,2.971,2.971,0,0,1,2.3-1.029,2.632,2.632,0,0,1,2.126.889,3.707,3.707,0,0,1,.752,2.468Zm-1.148-.95a2.288,2.288,0,0,0-.468-1.511,1.6,1.6,0,0,0-1.282-.54,1.811,1.811,0,0,0-1.347.567,2.571,2.571,0,0,0-.684,1.483Z" fill="#5b5b5b" />
                <path d="M577.258,254.6h-1.148v-9.8h1.148Z" fill="#5b5b5b" />
                <path d="M582.61,254.76a3.246,3.246,0,0,1-2.478-.981,3.631,3.631,0,0,1-.927-2.6,3.785,3.785,0,0,1,.964-2.755,3.466,3.466,0,0,1,2.6-.991,3.141,3.141,0,0,1,2.444.964,3.825,3.825,0,0,1,.878,2.673,3.762,3.762,0,0,1-.946,2.683A3.319,3.319,0,0,1,582.61,254.76Zm.082-6.385a2.133,2.133,0,0,0-1.709.735,3.02,3.02,0,0,0-.629,2.027,2.854,2.854,0,0,0,.636,1.962,2.161,2.161,0,0,0,1.7.718,2.048,2.048,0,0,0,1.671-.7,3.05,3.05,0,0,0,.585-2,3.1,3.1,0,0,0-.585-2.023A2.038,2.038,0,0,0,582.692,248.375Z" fill="#5b5b5b" />
                <path d="M593.835,245.832H591V254.6h-1.148v-8.764h-2.823v-1.039h6.8Z" fill="#5b5b5b" />
                <path d="M527.178,271.4h-1.121v-1.189h-.027a2.589,2.589,0,0,1-2.406,1.354,2.617,2.617,0,0,1-2.109-.94,3.861,3.861,0,0,1-.789-2.56,4.191,4.191,0,0,1,.875-2.782,2.885,2.885,0,0,1,2.331-1.046,2.244,2.244,0,0,1,2.1,1.135h.027v-4.334h1.121Zm-1.121-3.165V267.2a2.006,2.006,0,0,0-.561-1.436,1.88,1.88,0,0,0-1.422-.588,1.935,1.935,0,0,0-1.613.752,3.291,3.291,0,0,0-.588,2.078,2.958,2.958,0,0,0,.564,1.911,1.84,1.84,0,0,0,1.514.7,1.918,1.918,0,0,0,1.521-.677A2.526,2.526,0,0,0,526.057,268.231Z" fill="#5b5b5b" />
                <path d="M534.458,271.4h-1.121V270.3h-.027a2.348,2.348,0,0,1-2.153,1.258,2.3,2.3,0,0,1-1.637-.554,1.917,1.917,0,0,1-.592-1.47q0-1.962,2.311-2.283l2.1-.294q0-1.784-1.442-1.784a3.444,3.444,0,0,0-2.283.861v-1.148a4.335,4.335,0,0,1,2.379-.656q2.467,0,2.468,2.611Zm-1.121-3.541-1.688.232a2.736,2.736,0,0,0-1.176.386,1.113,1.113,0,0,0-.4.981,1.07,1.07,0,0,0,.365.837,1.415,1.415,0,0,0,.975.325,1.8,1.8,0,0,0,1.377-.584,2.084,2.084,0,0,0,.544-1.48Z" fill="#5b5b5b" />
                <path d="M539.817,271.327a2.161,2.161,0,0,1-1.046.219q-1.84,0-1.839-2.051v-4.143h-1.2V264.4h1.2v-1.709l1.121-.362V264.4h1.764v.957h-1.764V269.3a1.631,1.631,0,0,0,.239,1,.954.954,0,0,0,.793.3,1.18,1.18,0,0,0,.731-.232Z" fill="#5b5b5b" />
                <path d="M546.325,271.4H545.2V270.3h-.027a2.348,2.348,0,0,1-2.153,1.258,2.3,2.3,0,0,1-1.637-.554,1.917,1.917,0,0,1-.592-1.47q0-1.962,2.311-2.283l2.1-.294q0-1.784-1.442-1.784a3.444,3.444,0,0,0-2.283.861v-1.148a4.335,4.335,0,0,1,2.379-.656q2.467,0,2.468,2.611Zm-1.121-3.541-1.688.232a2.736,2.736,0,0,0-1.176.386,1.113,1.113,0,0,0-.4.981,1.07,1.07,0,0,0,.365.837,1.415,1.415,0,0,0,.975.325,1.8,1.8,0,0,0,1.377-.584,2.084,2.084,0,0,0,.544-1.48Z" fill="#5b5b5b" />
                <path d="M551.849,271.143v-1.2a3.316,3.316,0,0,0,2.017.677q1.477,0,1.477-.984a.849.849,0,0,0-.127-.475,1.24,1.24,0,0,0-.342-.345,2.583,2.583,0,0,0-.506-.27c-.193-.08-.4-.163-.625-.25a7.912,7.912,0,0,1-.816-.373,2.44,2.44,0,0,1-.588-.424,1.552,1.552,0,0,1-.355-.537,1.892,1.892,0,0,1-.12-.7,1.673,1.673,0,0,1,.226-.872,2,2,0,0,1,.6-.636,2.8,2.8,0,0,1,.857-.386,3.821,3.821,0,0,1,1-.13,4.018,4.018,0,0,1,1.627.314v1.135a3.169,3.169,0,0,0-1.777-.506,2.072,2.072,0,0,0-.567.072,1.38,1.38,0,0,0-.434.2.935.935,0,0,0-.281.311.825.825,0,0,0-.1.4.967.967,0,0,0,.1.458,1.01,1.01,0,0,0,.291.328,2.2,2.2,0,0,0,.465.26c.182.078.39.162.622.253a8.693,8.693,0,0,1,.834.366,2.858,2.858,0,0,1,.629.424,1.65,1.65,0,0,1,.4.543,1.747,1.747,0,0,1,.141.731,1.728,1.728,0,0,1-.229.9,1.971,1.971,0,0,1-.612.636,2.809,2.809,0,0,1-.882.376,4.358,4.358,0,0,1-1.046.123A3.973,3.973,0,0,1,551.849,271.143Z" fill="#5b5b5b" />
                <path d="M561.139,271.56a3.249,3.249,0,0,1-2.479-.981,3.634,3.634,0,0,1-.926-2.6,3.785,3.785,0,0,1,.964-2.755,3.466,3.466,0,0,1,2.6-.991,3.138,3.138,0,0,1,2.443.964,3.821,3.821,0,0,1,.879,2.673,3.758,3.758,0,0,1-.947,2.683A3.316,3.316,0,0,1,561.139,271.56Zm.082-6.385a2.132,2.132,0,0,0-1.709.735,3.014,3.014,0,0,0-.629,2.027,2.854,2.854,0,0,0,.636,1.962,2.161,2.161,0,0,0,1.7.718,2.052,2.052,0,0,0,1.672-.7,3.061,3.061,0,0,0,.584-2,3.114,3.114,0,0,0-.584-2.023A2.042,2.042,0,0,0,561.221,265.175Z" fill="#5b5b5b" />
                <path d="M572.076,271.4h-1.121v-1.107h-.027a2.3,2.3,0,0,1-2.16,1.271q-2.5,0-2.5-2.98V264.4h1.114V268.4q0,2.215,1.7,2.215a1.717,1.717,0,0,0,1.351-.6,2.317,2.317,0,0,0,.529-1.583V264.4h1.121Z" fill="#5b5b5b" />
                <path d="M577.989,265.53a1.372,1.372,0,0,0-.848-.226,1.433,1.433,0,0,0-1.2.677,3.136,3.136,0,0,0-.481,1.846V271.4h-1.121v-7h1.121v1.442h.027a2.443,2.443,0,0,1,.731-1.152,1.668,1.668,0,0,1,1.1-.414,1.827,1.827,0,0,1,.67.1Z" fill="#5b5b5b" />
                <path d="M583.793,271.074a3.642,3.642,0,0,1-1.914.485,3.167,3.167,0,0,1-2.416-.974,3.529,3.529,0,0,1-.92-2.526,3.88,3.88,0,0,1,.991-2.779,3.466,3.466,0,0,1,2.646-1.049,3.681,3.681,0,0,1,1.627.342v1.148a2.851,2.851,0,0,0-1.668-.547,2.251,2.251,0,0,0-1.76.769,2.914,2.914,0,0,0-.687,2.02,2.775,2.775,0,0,0,.646,1.941,2.224,2.224,0,0,0,1.732.711,2.81,2.81,0,0,0,1.723-.608Z" fill="#5b5b5b" />
                <path d="M591.114,268.176h-4.942a2.614,2.614,0,0,0,.629,1.8,2.167,2.167,0,0,0,1.654.636,3.441,3.441,0,0,0,2.174-.779v1.053a4.062,4.062,0,0,1-2.44.67,2.957,2.957,0,0,1-2.331-.954,3.9,3.9,0,0,1-.848-2.683,3.829,3.829,0,0,1,.926-2.663,2.971,2.971,0,0,1,2.3-1.029,2.632,2.632,0,0,1,2.126.889,3.707,3.707,0,0,1,.752,2.468Zm-1.148-.95a2.288,2.288,0,0,0-.468-1.511,1.6,1.6,0,0,0-1.282-.54,1.811,1.811,0,0,0-1.347.567,2.571,2.571,0,0,0-.684,1.483Z" fill="#5b5b5b" />
            </g>
            <path d="M393.419,204.38l-7.53,7.53L382.7,215.1h-5.117a2.349,2.349,0,0,0-2.317,2.317v6.758a2.349,2.349,0,0,0,2.317,2.317h6.758a1.885,1.885,0,0,0,.676-.1,2.146,2.146,0,0,0,1.255-.869,2.371,2.371,0,0,0,.483-1.448V217.7h1.352l1.738-1.834-.1-2.413.579-.579,2.124.1.676-.676.483-.483V209.69l1.448-1.545H396.8v-3.958h-3.379Zm-13.9,19.79a1.339,1.339,0,0,1-1.158.676,1.32,1.32,0,0,1-1.352-1.352.87.87,0,0,1,.1-.483,1.375,1.375,0,0,1,1.255-.869,1.32,1.32,0,0,1,1.352,1.352A2.456,2.456,0,0,1,379.518,224.171Z" fill="#fff" />
            <g>
                <path d="M339.459,98.052V96.7a2.6,2.6,0,0,0,.557.369,4.528,4.528,0,0,0,.684.277,5.447,5.447,0,0,0,.721.174,4.027,4.027,0,0,0,.67.062,2.623,2.623,0,0,0,1.583-.393,1.476,1.476,0,0,0,.349-1.822,1.966,1.966,0,0,0-.482-.537,4.776,4.776,0,0,0-.728-.465q-.42-.222-.905-.468-.513-.26-.957-.526a4.127,4.127,0,0,1-.773-.588,2.449,2.449,0,0,1-.516-.728,2.489,2.489,0,0,1,.105-2.119,2.524,2.524,0,0,1,.773-.817,3.489,3.489,0,0,1,1.09-.479,4.991,4.991,0,0,1,1.248-.157,4.775,4.775,0,0,1,2.111.349v1.292a3.828,3.828,0,0,0-2.229-.6,3.684,3.684,0,0,0-.752.079,2.125,2.125,0,0,0-.67.256,1.491,1.491,0,0,0-.479.458,1.215,1.215,0,0,0-.184.684,1.4,1.4,0,0,0,.14.649,1.592,1.592,0,0,0,.413.5,4.1,4.1,0,0,0,.667.438q.393.212.905.465t1,.547a4.581,4.581,0,0,1,.828.636,2.848,2.848,0,0,1,.563.772,2.176,2.176,0,0,1,.208.971,2.459,2.459,0,0,1-.283,1.227,2.33,2.33,0,0,1-.766.817,3.341,3.341,0,0,1-1.111.455,6.091,6.091,0,0,1-1.326.14,5.469,5.469,0,0,1-.574-.038q-.341-.037-.7-.109a5.683,5.683,0,0,1-.673-.178A2.091,2.091,0,0,1,339.459,98.052Z" fill="#5b5b5b" />
                <path d="M347.777,89.671a.708.708,0,0,1-.512-.205.692.692,0,0,1-.213-.52.72.72,0,0,1,.725-.731.724.724,0,0,1,.523.208.731.731,0,0,1,0,1.036A.72.72,0,0,1,347.777,89.671Zm.547,8.777H347.2v-7h1.121Z" fill="#5b5b5b" />
                <path d="M356.568,97.888q0,3.855-3.691,3.855a4.959,4.959,0,0,1-2.27-.492V100.13a4.665,4.665,0,0,0,2.256.656q2.584,0,2.584-2.748v-.766h-.027a2.832,2.832,0,0,1-4.508.407,3.728,3.728,0,0,1-.8-2.505,4.356,4.356,0,0,1,.858-2.837,2.866,2.866,0,0,1,2.349-1.053,2.28,2.28,0,0,1,2.1,1.135h.027v-.971h1.121Zm-1.121-2.6V94.251a2,2,0,0,0-.563-1.429,1.858,1.858,0,0,0-1.405-.595,1.948,1.948,0,0,0-1.627.755,3.374,3.374,0,0,0-.588,2.116,2.9,2.9,0,0,0,.564,1.87,1.822,1.822,0,0,0,1.494.7,1.95,1.95,0,0,0,1.534-.67A2.5,2.5,0,0,0,355.447,95.283Z" fill="#5b5b5b" />
                <path d="M364.648,98.448h-1.121V94.456q0-2.229-1.627-2.229a1.765,1.765,0,0,0-1.391.632,2.342,2.342,0,0,0-.551,1.6v3.992h-1.121v-7h1.121V92.61h.027a2.528,2.528,0,0,1,2.3-1.326,2.144,2.144,0,0,1,1.758.742,3.306,3.306,0,0,1,.607,2.143Z" fill="#5b5b5b" />
                <path d="M371.771,98.448H370.65V97.355h-.027a2.346,2.346,0,0,1-2.152,1.258,2.3,2.3,0,0,1-1.638-.554,1.917,1.917,0,0,1-.591-1.47q0-1.962,2.311-2.283l2.1-.294q0-1.784-1.441-1.784a3.444,3.444,0,0,0-2.283.861V91.94a4.335,4.335,0,0,1,2.379-.656q2.467,0,2.467,2.611Zm-1.121-3.541-1.687.232a2.736,2.736,0,0,0-1.176.386,1.113,1.113,0,0,0-.4.981,1.067,1.067,0,0,0,.365.837,1.415,1.415,0,0,0,.975.325,1.8,1.8,0,0,0,1.377-.584,2.088,2.088,0,0,0,.543-1.48Z" fill="#5b5b5b" />
                <path d="M375.006,98.448h-1.121V88.085h1.121Z" fill="#5b5b5b" />
                <path d="M384.453,98.448h-1.367L381.445,95.7a6.081,6.081,0,0,0-.437-.653,2.518,2.518,0,0,0-.435-.441,1.507,1.507,0,0,0-.479-.25,1.971,1.971,0,0,0-.577-.079h-.943v4.17h-1.148v-9.8h2.926a4.175,4.175,0,0,1,1.186.161,2.651,2.651,0,0,1,.943.489,2.272,2.272,0,0,1,.625.817,2.708,2.708,0,0,1,.227,1.145,2.757,2.757,0,0,1-.154.94,2.448,2.448,0,0,1-.437.762,2.661,2.661,0,0,1-.684.571,3.49,3.49,0,0,1-.9.366v.027a2.072,2.072,0,0,1,.427.25,2.381,2.381,0,0,1,.345.332,4.444,4.444,0,0,1,.325.434c.106.162.227.35.358.564Zm-5.879-8.764v3.555h1.559a2.366,2.366,0,0,0,.8-.13,1.848,1.848,0,0,0,.632-.373,1.693,1.693,0,0,0,.418-.595,2,2,0,0,0,.15-.79,1.536,1.536,0,0,0-.51-1.227,2.187,2.187,0,0,0-1.473-.441Z" fill="#5b5b5b" />
                <path d="M389.176,98.052V96.7a2.633,2.633,0,0,0,.558.369,4.487,4.487,0,0,0,.684.277,5.424,5.424,0,0,0,.722.174,4.018,4.018,0,0,0,.67.062,2.622,2.622,0,0,0,1.582-.393,1.473,1.473,0,0,0,.349-1.822,1.962,1.962,0,0,0-.481-.537,4.788,4.788,0,0,0-.729-.465q-.42-.222-.906-.468-.513-.26-.957-.526a4.143,4.143,0,0,1-.771-.588,2.452,2.452,0,0,1-.517-.728,2.475,2.475,0,0,1,.106-2.119,2.518,2.518,0,0,1,.771-.817,3.5,3.5,0,0,1,1.091-.479,4.977,4.977,0,0,1,1.247-.157,4.785,4.785,0,0,1,2.113.349v1.292a3.832,3.832,0,0,0-2.229-.6,3.669,3.669,0,0,0-.752.079,2.107,2.107,0,0,0-.67.256,1.481,1.481,0,0,0-.479.458,1.216,1.216,0,0,0-.186.684,1.4,1.4,0,0,0,.141.649,1.6,1.6,0,0,0,.414.5,4.088,4.088,0,0,0,.666.438q.393.212.906.465t1,.547a4.531,4.531,0,0,1,.826.636,2.811,2.811,0,0,1,.564.772,2.176,2.176,0,0,1,.209.971,2.469,2.469,0,0,1-.284,1.227,2.33,2.33,0,0,1-.766.817,3.344,3.344,0,0,1-1.11.455,6.1,6.1,0,0,1-1.326.14,5.437,5.437,0,0,1-.574-.038q-.343-.037-.7-.109a5.65,5.65,0,0,1-.674-.178A2.118,2.118,0,0,1,389.176,98.052Z" fill="#5b5b5b" />
                <path d="M402.547,95.229h-4.941a2.614,2.614,0,0,0,.629,1.8,2.167,2.167,0,0,0,1.654.636,3.441,3.441,0,0,0,2.174-.779v1.053a4.065,4.065,0,0,1-2.441.67,2.957,2.957,0,0,1-2.33-.954,3.9,3.9,0,0,1-.848-2.683,3.829,3.829,0,0,1,.926-2.663,2.97,2.97,0,0,1,2.3-1.029,2.63,2.63,0,0,1,2.125.889,3.7,3.7,0,0,1,.752,2.468Zm-1.148-.95a2.277,2.277,0,0,0-.468-1.511,1.6,1.6,0,0,0-1.282-.54,1.809,1.809,0,0,0-1.346.567,2.571,2.571,0,0,0-.684,1.483Z" fill="#5b5b5b" />
                <path d="M407.893,92.583a1.37,1.37,0,0,0-.848-.226,1.43,1.43,0,0,0-1.2.677,3.129,3.129,0,0,0-.482,1.846v3.568h-1.121v-7h1.121v1.442h.027a2.451,2.451,0,0,1,.732-1.152,1.665,1.665,0,0,1,1.1-.414,1.823,1.823,0,0,1,.67.1Z" fill="#5b5b5b" />
                <path d="M415.174,91.448l-2.789,7h-1.1l-2.652-7h1.23l1.777,5.086a4.488,4.488,0,0,1,.246.978h.027a4.687,4.687,0,0,1,.219-.95l1.859-5.113Z" fill="#5b5b5b" />
                <path d="M416.951,89.671a.712.712,0,0,1-.514-.205.694.694,0,0,1-.211-.52.716.716,0,0,1,.725-.731.722.722,0,0,1,.522.208.729.729,0,0,1,0,1.036A.717.717,0,0,1,416.951,89.671Zm.547,8.777h-1.121v-7H417.5Z" fill="#5b5b5b" />
                <path d="M424.539,98.127a3.642,3.642,0,0,1-1.914.485,3.169,3.169,0,0,1-2.417-.974,3.528,3.528,0,0,1-.919-2.526,3.884,3.884,0,0,1,.99-2.779,3.469,3.469,0,0,1,2.646-1.049,3.681,3.681,0,0,1,1.627.342v1.148a2.851,2.851,0,0,0-1.668-.547,2.255,2.255,0,0,0-1.761.769,2.918,2.918,0,0,0-.687,2.02,2.779,2.779,0,0,0,.646,1.941,2.227,2.227,0,0,0,1.733.711,2.81,2.81,0,0,0,1.723-.608Z" fill="#5b5b5b" />
                <path d="M431.859,95.229h-4.941a2.614,2.614,0,0,0,.629,1.8,2.167,2.167,0,0,0,1.654.636,3.441,3.441,0,0,0,2.174-.779v1.053a4.065,4.065,0,0,1-2.441.67,2.957,2.957,0,0,1-2.33-.954,3.9,3.9,0,0,1-.848-2.683,3.829,3.829,0,0,1,.926-2.663,2.97,2.97,0,0,1,2.3-1.029,2.63,2.63,0,0,1,2.125.889,3.7,3.7,0,0,1,.752,2.468Zm-1.148-.95a2.277,2.277,0,0,0-.468-1.511,1.6,1.6,0,0,0-1.282-.54,1.809,1.809,0,0,0-1.346.567,2.571,2.571,0,0,0-.684,1.483Z" fill="#5b5b5b" />
            </g>
            <path d="M382.476,55.378l2.688-6.54H391.2a4.36,4.36,0,0,0,0-8.719H371.577l10.9-10.9v4.36H391.2a10.868,10.868,0,0,1,.509,21.726l8.865,8.865a23.961,23.961,0,1,0-13.66,4.287,23.1,23.1,0,0,0,7.484-1.235Z" fill="#00abec" />
            <g>
                <g>
                    <a class="architecture-tooltip-trigger" href="#">
                        <circle cx="129.094" cy="212.347" r="14" fill="#a5ce00" />
                        <text transform="translate(125.511 217.4)" font-size="14" font-family="SegoeUI, Segoe UI">1</text>
                    </a>
                </g>
                <g>
                    <a class="architecture-tooltip-trigger" href="#">
                        <circle cx="300.427" cy="212.347" r="14" fill="#a5ce00" />
                        <text transform="translate(296.844 217.4)" font-size="14" font-family="SegoeUI, Segoe UI">2</text>
                    </a>
                </g>
                <g>
                    <a class="architecture-tooltip-trigger" href="#">
                        <circle cx="385.094" cy="143.014" r="14" fill="#a5ce00" />
                        <text transform="translate(381.511 148.067)" font-size="14" font-family="SegoeUI, Segoe UI">3</text>
                    </a>
                </g>
                <g>
                    <a class="architecture-tooltip-trigger" href="#">
                        <circle cx="556.761" cy="46.68" r="14" fill="#a5ce00" />
                        <text transform="translate(553.178 51.734)" font-size="14" font-family="SegoeUI, Segoe UI">4</text>
                    </a>
                </g>
            </g>
            <g>
                <path d="M556.771,239.015l-21.929-12.66V201.033l21.929-12.66,21.929,12.66v25.321ZM536.843,225.2l19.929,11.506L576.7,225.2V202.188l-19.929-11.506-19.929,11.506Z" fill="#389bd5" />
                <g>
                    <path d="M541.507,207.207h-.02l-1.138.614-.171-.674,1.43-.765h.754v6.544h-.856Z" fill="#389bd5" />
                    <path d="M549.1,209.583c0,2.225-.825,3.453-2.275,3.453-1.279,0-2.144-1.2-2.165-3.362,0-2.195.946-3.4,2.275-3.4C548.316,206.271,549.1,207.5,549.1,209.583Zm-3.554.1c0,1.7.523,2.668,1.329,2.668.906,0,1.339-1.057,1.339-2.728,0-1.611-.412-2.668-1.329-2.668C546.111,206.956,545.547,207.9,545.547,209.684Z" fill="#389bd5" />
                    <path d="M554.268,209.583c0,2.225-.825,3.453-2.275,3.453-1.279,0-2.144-1.2-2.165-3.362,0-2.195.946-3.4,2.275-3.4C553.483,206.271,554.268,207.5,554.268,209.583Zm-3.554.1c0,1.7.523,2.668,1.329,2.668.906,0,1.339-1.057,1.339-2.728,0-1.611-.412-2.668-1.329-2.668C551.278,206.956,550.714,207.9,550.714,209.684Z" fill="#389bd5" />
                    <path d="M557.008,207.207h-.02l-1.138.614-.171-.674,1.43-.765h.754v6.544h-.856Z" fill="#389bd5" />
                    <path d="M564.6,209.583c0,2.225-.825,3.453-2.275,3.453-1.279,0-2.144-1.2-2.165-3.362,0-2.195.946-3.4,2.275-3.4C563.817,206.271,564.6,207.5,564.6,209.583Zm-3.554.1c0,1.7.523,2.668,1.329,2.668.906,0,1.339-1.057,1.339-2.728,0-1.611-.412-2.668-1.329-2.668C561.612,206.956,561.048,207.9,561.048,209.684Z" fill="#389bd5" />
                    <path d="M567.342,207.207h-.02l-1.138.614-.171-.674,1.43-.765h.754v6.544h-.856Z" fill="#389bd5" />
                    <path d="M572.509,207.207h-.02l-1.138.614-.171-.674,1.43-.765h.754v6.544h-.856Z" fill="#389bd5" />
                    <path d="M541.507,216.272h-.02l-1.138.614-.171-.674,1.43-.765h.754v6.544h-.856Z" fill="#389bd5" />
                    <path d="M549.1,218.648c0,2.225-.825,3.453-2.275,3.453-1.279,0-2.144-1.2-2.165-3.362,0-2.195.946-3.4,2.275-3.4C548.316,215.336,549.1,216.564,549.1,218.648Zm-3.554.1c0,1.7.523,2.668,1.329,2.668.906,0,1.339-1.057,1.339-2.728,0-1.611-.412-2.668-1.329-2.668C546.111,216.021,545.547,216.967,545.547,218.749Z" fill="#389bd5" />
                    <path d="M551.841,216.272h-.02l-1.138.614-.171-.674,1.43-.765h.754v6.544h-.856Z" fill="#389bd5" />
                    <path d="M559.435,218.648c0,2.225-.825,3.453-2.275,3.453-1.279,0-2.144-1.2-2.165-3.362,0-2.195.946-3.4,2.275-3.4C558.65,215.336,559.435,216.564,559.435,218.648Zm-3.554.1c0,1.7.523,2.668,1.329,2.668.906,0,1.339-1.057,1.339-2.728,0-1.611-.412-2.668-1.329-2.668C556.445,216.021,555.881,216.967,555.881,218.749Z" fill="#389bd5" />
                    <path d="M562.175,216.272h-.02l-1.138.614-.171-.674,1.43-.765h.754v6.544h-.856Z" fill="#389bd5" />
                    <path d="M569.769,218.648c0,2.225-.825,3.453-2.275,3.453-1.279,0-2.144-1.2-2.165-3.362,0-2.195.946-3.4,2.275-3.4C568.984,215.336,569.769,216.564,569.769,218.648Zm-3.554.1c0,1.7.523,2.668,1.329,2.668.906,0,1.339-1.057,1.339-2.728,0-1.611-.412-2.668-1.329-2.668C566.779,216.021,566.215,216.967,566.215,218.749Z" fill="#389bd5" />
                    <path d="M572.509,216.272h-.02l-1.138.614-.171-.674,1.43-.765h.754v6.544h-.856Z" fill="#389bd5" />
                </g>
            </g>
        </g>
    </g>
</svg>
