<svg xmlns="http://www.w3.org/2000/svg" width="61.711" height="60.19" viewBox="0 0 61.711 60.19">
  <g id="Layer_2" data-name="Layer 2">
    <g id="Red-Hat-logo">
      <g>
        <path d="M55.384,46.453a16.405,16.405,0,0,0-3.634-.43,14.751,14.751,0,0,0-5.5.964.485.485,0,0,0-.269.43.444.444,0,0,0,.043.2c.167.489-.11,1.017-1.492,1.325-2.051.448-3.345,2.566-4.085,3.265-.87.826-3.324,1.333-2.956.838a17.953,17.953,0,0,0,2.065-2.878,24.919,24.919,0,0,1,1.875-2.6,9.379,9.379,0,0,0,1.3-2.364,17.026,17.026,0,0,0,.287-2.44,21.236,21.236,0,0,0,.815-2.884c.026-.45-1.9.652-2.811.652s-1.8-.548-2.619-.585c-1.009-.049-1.659.777-2.574.63-.52-.082-.962-.54-1.871-.573-1.3-.049-2.886.72-5.864.626-2.931-.1-5.638-3.706-6.007-4.278-.434-.671-.964-.671-1.539-.141a.987.987,0,0,1-1.49-.243c-.385-.673-1.413-2.636-3-3.049a2.431,2.431,0,0,0-3.172,2.64c.147,1.445,1.082,1.851,1.516,2.619s.652,1.264,1.463,1.6c.579.241.793.6.622,1.068-.151.412-.75.508-1.148.526a3.052,3.052,0,0,1-1.855-.461,4.09,4.09,0,0,1-1.337-1.508,2.455,2.455,0,0,0-2.219-1.19,2.688,2.688,0,0,0-1.219.3,10.868,10.868,0,0,1-5.026,1.2h-2.1a30.118,30.118,0,0,0,53.8,6.732" fill="#fff" />
        <path d="M55.384,46.457a16.168,16.168,0,0,0-3.634-.434,14.751,14.751,0,0,0-5.5.964.483.483,0,0,0-.269.43.435.435,0,0,0,.043.194c.167.491-.11,1.021-1.492,1.327-2.051.45-3.345,2.564-4.085,3.263-.87.828-3.324,1.335-2.956.842a18.238,18.238,0,0,0,2.065-2.882,24.9,24.9,0,0,1,1.875-2.593,9.416,9.416,0,0,0,1.3-2.364,17.058,17.058,0,0,0,.287-2.44,21.289,21.289,0,0,0,.815-2.882c.026-.455-1.9.648-2.811.648s-1.8-.546-2.619-.583c-1.009-.051-1.659.777-2.574.63-.52-.082-.962-.54-1.871-.575-1.3-.047-2.886.722-5.864.626-2.931-.1-5.638-3.7-6.007-4.274-.434-.675-.964-.675-1.539-.145a.986.986,0,0,1-1.49-.241c-.385-.675-1.413-2.638-3-3.051a2.432,2.432,0,0,0-3.172,2.642c.147,1.443,1.082,1.849,1.516,2.617s.652,1.266,1.463,1.606c.579.238.793.6.622,1.068-.151.412-.75.508-1.148.526a3.037,3.037,0,0,1-1.855-.465,4.017,4.017,0,0,1-1.337-1.506,2.459,2.459,0,0,0-2.219-1.188,2.715,2.715,0,0,0-1.219.3,10.868,10.868,0,0,1-5.026,1.2h-2.1a30.1,30.1,0,1,1,53.8,6.737" />
        <path d="M36.745,43.7a1.134,1.134,0,0,1,.1,1.3,2.58,2.58,0,0,1-.732.862,1.911,1.911,0,0,1-2.385.01c-.611-.385-.65-.516-1.492-.406-.6.077-.84-.532-.626-1.035s1.1-.911,2.212-.263c.5.291,1.274.911,1.951.361a5.036,5.036,0,0,0,.842-.826.1.1,0,0,1,.134-.007" />
        <path d="M27.774,14.348c-3.475.251-3.838.626-4.488,1.317-.917.98-2.128-1.266-2.128-1.266a1.861,1.861,0,0,1-1.147-2.369l.016-.044c.469-1.08,1.333-.758,1.6-.422a2.57,2.57,0,0,0,1.946,1.059c.913-.024,1.965-.216,3.435-.216,1.488,0,2.487.554,2.542,1.033.051.406-.12.789-1.775.911m3.653-5.742h-.016a.093.093,0,0,1-.1-.086v0a.092.092,0,0,1,.055-.084A8.04,8.04,0,0,1,34.2,7.681a9.561,9.561,0,0,1,1.009-.058h.173c1.93.045,3.473.811,3.451,1.712s-1.6,1.6-3.536,1.555a6.839,6.839,0,0,1-1.712-.253.128.128,0,0,1-.1-.126.131.131,0,0,1,.106-.126c1.2-.277,2.014-.734,1.957-1.164-.077-.569-1.649-.879-3.516-.691-.206.02-.4.047-.6.077M47.1,22.107a4.7,4.7,0,0,1-2.6,3.243c-.275.141-.377-.09-.253-.306A14.667,14.667,0,0,0,45.3,23.057c.287-.7.442-1.692-.135-3.759-1.131-4.07-3.5-9.515-5.21-11.278-1.657-1.7-4.658-2.185-7.373-1.488A10.909,10.909,0,0,1,26,6.987c-6.272-1.413-7.2,1.726-7.56,3.094s-1.227,5.255-1.227,5.255c-.287,1.586-.664,4.337,9.077,6.194,4.537.862,4.766,2.036,4.969,2.878a4.441,4.441,0,0,0,1.584,2.807c.648.432,0,.791-.72.862-1.93.2-9.075-1.847-13.3-4.246-3.457-2.112-3.514-4.011-2.723-5.626-5.222-.565-9.142.489-9.851,2.962C5.018,25.4,15.57,32.646,27.582,36.282c12.6,3.814,25.568,1.15,27.009-6.769.654-3.6-2.377-6.26-7.491-7.411" fill="#e93442" />
        <g id="g3880">
          <path d="M59.911,44.849h.271l.41.673h.265l-.444-.685a.4.4,0,0,0,.4-.4q0-.013,0-.027c0-.308-.181-.442-.546-.442h-.593v1.554h.234Zm0-.2v-.483h.32c.161,0,.336.039.336.228,0,.241-.175.255-.375.255Z" />
          <path d="M61.71,44.748a1.322,1.322,0,1,1,0-.006v0M60.19,43.494a1.249,1.249,0,1,0,1.249,1.254,1.249,1.249,0,0,0-1.249-1.254h0" />
        </g>
      </g>
    </g>
  </g>
</svg>