<svg width="1044px" height="701px" viewBox="0 0 1044 701" xmlns="http://www.w3.org/2000/svg" xmlns:xlink="http://www.w3.org/1999/xlink">
  <g stroke="none" stroke-width="1" fill="none" fill-rule="evenodd">
    <g transform="translate(-29.000000, -9.000000)">
      <polygon  points="0 720.059 1081.57 720.059 1081.57 0 0 0"></polygon>
      <text font-family="SegoeUI-Semibold, Segoe UI" font-size="10.2341" font-weight="500" fill="#525252">
        <tspan x="134.2393" y="155.186147">O</tspan>
        <tspan x="141.97484" y="155.186147" letter-spacing="0.00614046">n</tspan>
        <tspan x="147.952538" y="155.186147">-P</tspan>
        <tspan x="158.046719" y="155.186147" letter-spacing="-0.08903667">r</tspan>
        <tspan x="161.65555" y="155.186147">emises Net</tspan>
        <tspan x="212.891013" y="155.186147" letter-spacing="-0.03684276">w</tspan>
        <tspan x="220.554731" y="155.186147">ork</tspan>
      </text>
      <text font-family="SegoeUI-Semibold, Segoe UI" font-size="13.3133" font-weight="500" fill="#525252">
        <tspan x="151.5073" y="100.322971">O</tspan>
        <tspan x="161.570283" y="100.322971" letter-spacing="0.00798798">n</tspan>
        <tspan x="169.346529" y="100.322971">-P</tspan>
        <tspan x="182.477811" y="100.322971" letter-spacing="-0.11449438">r</tspan>
        <tspan x="187.173787" y="100.322971">emises</tspan>
      </text>
      <path d="M194.9023,588.6747 C191.0973,588.6807 187.4453,590.1707 184.7233,592.8277 C182.0013,595.4857 180.4233,599.1007 180.3253,602.9037 C182.4193,601.8047 184.8083,601.4007 187.1473,601.7507 C189.4863,602.1017 191.6523,603.1877 193.3323,604.8527 C195.0113,606.5167 196.1183,608.6727 196.4903,611.0087 C196.8613,613.3437 196.4803,615.7367 195.4003,617.8407 C199.2273,617.7167 202.8533,616.0917 205.4933,613.3177 C208.1323,610.5427 209.5763,606.8417 209.5103,603.0127 C209.4453,599.1827 207.8773,595.5327 205.1433,592.8507 C202.4103,590.1677 198.7313,588.6677 194.9023,588.673682 L194.9023,588.6747 Z" fill="#FFFFFF"></path>
      <path d="M195.7402,618.4706 C198.9132,615.6896 202.2982,611.2776 202.2982,603.2796 C202.2982,595.2826 198.9682,590.6956 195.7082,588.0686 L194.3882,589.3656 C197.4372,591.8236 200.2582,595.2146 200.2582,603.2806 C200.2582,611.3776 197.3432,614.6066 194.3602,617.2156 L195.7402,618.4706 Z" fill="#3898C5"></path>
      <polygon fill="#3898C5" points="181.267 604.187 208.71 604.187 208.71 602.357 181.267 602.357"></polygon>
      <path d="M194.9893,596.4325 C190.4883,596.4325 186.4233,595.1775 183.9963,593.3075 L182.8993,594.4045 C185.6053,596.5785 190.0063,598.0005 194.9893,598.0005 C199.9723,598.0005 204.3743,596.5785 207.0803,594.4035 L205.9833,593.3065 C203.5563,595.1775 199.4923,596.4325 194.9893,596.4325" fill="#3898C5"></path>
      <path d="M176.7881,618.0174 L168.1511,626.6544 C167.6991,627.1134 167.4471,627.7314 167.450074,628.3754 C167.4521,629.0194 167.7091,629.6364 168.1651,630.0914 C168.6201,630.5464 169.2361,630.8034 169.8811,630.806426 C170.5241,630.8094 171.1431,630.5564 171.6021,630.1054 L180.2431,621.4734 L176.7881,618.0174 Z" fill="#7A7B7B"></path>
      <path d="M173.3994,621.4061 C174.3034,622.7811 175.4794,623.9571 176.8534,624.8611 L179.1124,622.6021 L175.6574,619.1501 L173.3994,621.4061 Z" fill="#1D1D1D"></path>
      <path d="M185.25,620.4579 C189.543,620.4579 193.023,616.9779 193.023,612.6849 C193.023,608.3929 189.543,604.9119 185.25,604.9119 C180.957,604.9119 177.478,608.3929 177.478,612.6849 C177.478,616.9779 180.957,620.4579 185.25,620.4579" fill="#FFFFFF"></path>
      <path d="M185.4893,622.2713 C190.7363,622.2713 194.9893,618.0183 194.9893,612.7713 C194.9893,607.5243 190.7363,603.2713 185.4893,603.2713 C180.2423,603.2713 175.9893,607.5243 175.9893,612.7713 C175.9893,618.0183 180.2423,622.2713 185.4893,622.2713" fill="#FFFFFF"></path>
      <path d="M189.7393,602.4725 C189.9253,594.9885 192.6473,591.7395 195.5893,589.3655 L194.2693,588.0685 C191.2123,590.5345 188.0893,594.7315 187.7193,601.8525 C188.4113,601.9935 189.0873,602.2015 189.7393,602.4725" fill="#3898C5"></path>
      <path d="M195.8057,608.5702 C196.0127,609.0842 196.1817,609.6132 196.3107,610.1532 C200.2777,610.3712 203.7937,611.5472 205.9857,613.2312 L207.0817,612.1342 C204.5257,610.0802 200.4497,608.7142 195.8057,608.5702" fill="#3898C5"></path>
      <path d="M194.9912,587.8104 C190.8922,587.8154 186.9642,589.4464 184.0652,592.3444 C181.1672,595.2434 179.5372,599.1714 179.5322,603.2704 C179.5322,603.3024 179.5362,603.3334 179.5372,603.3654 C180.1632,602.9684 180.8282,602.6354 181.5202,602.3714 C181.6922,599.7824 182.6072,597.2964 184.1542,595.2134 C185.7022,593.1304 187.8162,591.5374 190.2452,590.6244 C192.6752,589.7114 195.3142,589.5174 197.8512,590.0664 C200.3872,590.6154 202.7122,591.8824 204.5472,593.7174 C206.3822,595.5524 207.6482,597.8764 208.1972,600.4134 C208.7452,602.9504 208.5512,605.5904 207.6372,608.0194 C206.7242,610.4484 205.1312,612.5624 203.0482,614.1094 C200.9652,615.6564 198.4792,616.5704 195.8902,616.7424 C195.6262,617.4334 195.2932,618.0964 194.8972,618.7204 C194.9292,618.7204 194.9602,618.7264 194.9912,618.7264 C199.0922,618.7264 203.0242,617.0974 205.9242,614.1984 C208.8222,611.2984 210.4512,607.3664 210.4512,603.2664 C210.4512,599.1654 208.8222,595.2344 205.9242,592.3344 C203.0242,589.4354 199.0922,587.8064 194.9912,587.8064 L194.9912,587.8104 Z" fill="#3898C5"></path>
      <polygon fill="#7FBA00" points="184.2646 617.953 182.4786 612.679 181.1076 615.383 178.5786 615.383 178.5786 614.028 180.2546 614.028 182.7306 609.151 184.2546 613.655 186.4356 607.144 188.2216 612.41 189.8906 609.226 192.3956 609.226 192.3956 610.599 190.6746 610.599 187.9666 615.936 186.4396 611.438"></polygon>
      <path d="M179.0049,615.784 C179.0049,610.17 182.9169,606.284 188.5049,606.284 C190.1779,606.285 191.8199,606.73 193.2639,607.574 C192.5349,606.314 191.5259,605.239 190.3159,604.43 C189.1049,603.623 187.7249,603.104 186.2809,602.915 C184.8379,602.725 183.3699,602.87 181.9919,603.338 C180.6129,603.806 179.3609,604.585 178.3319,605.614 C177.3029,606.643 176.5249,607.896 176.0559,609.274 C175.5879,610.653 175.4419,612.12 175.6319,613.563 C175.8209,615.007 176.3399,616.388 177.1489,617.598 C177.9559,618.808 179.0319,619.817 180.2919,620.547 C179.4479,619.101 179.0049,617.458 179.0049,615.784" fill="#3898C5"></path>
      <path d="M185.4902,621.6688 C183.7302,621.6688 182.0112,621.1478 180.5482,620.1698 C179.0862,619.1918 177.9452,617.8038 177.2722,616.1778 C176.5982,614.5528 176.4232,612.7648 176.7652,611.0388 C177.1082,609.3138 177.9552,607.7288 179.1992,606.4838 C180.4432,605.2398 182.0272,604.3928 183.7532,604.0488 C185.4782,603.7048 187.2662,603.8808 188.8922,604.5548 C190.5172,605.2278 191.9072,606.3668 192.8852,607.8288 C193.8632,609.2918 194.3852,611.0118 194.3862,612.7708 C194.3862,613.9388 194.1552,615.0958 193.7092,616.1748 C193.2612,617.2538 192.6062,618.2338 191.7802,619.0608 C190.9542,619.8868 189.9732,620.5418 188.8942,620.9888 C187.8152,621.4368 186.6582,621.6658 185.4902,621.6658 L185.4902,621.6688 Z M185.4902,600.7658 C183.1162,600.7658 180.7952,601.4698 178.8202,602.7888 C176.8462,604.1078 175.3072,605.9828 174.3982,608.1768 C173.4902,610.3698 173.2532,612.7838 173.7162,615.1128 C174.1782,617.4408 175.3222,619.5808 177.0012,621.2598 C178.6802,622.9388 180.8192,624.0818 183.1482,624.5448 C185.4762,625.0088 187.8902,624.7708 190.0842,623.8618 C192.2782,622.9528 194.1532,621.4148 195.4712,619.4398 C196.7912,617.4658 197.4952,615.1458 197.4952,612.7708 C197.4952,609.5868 196.2302,606.5328 193.9792,604.2818 C191.7272,602.0298 188.6742,600.7658 185.4902,600.7658 L185.4902,600.7658 Z" fill="#7A7B7B"></path>
      <path d="M845.5156,276.0282 C841.7106,276.0342 838.0586,277.5242 835.3366,280.1812 C832.6146,282.8392 831.0366,286.4542 830.9386,290.2572 C833.0326,289.1582 835.4216,288.7542 837.7606,289.1042 C840.0996,289.4552 842.2656,290.5412 843.9456,292.2062 C845.6246,293.8702 846.7316,296.0262 847.1036,298.3622 C847.4746,300.6972 847.0926,303.0902 846.0136,305.1942 C849.8406,305.0702 853.4666,303.4452 856.1066,300.6712 C858.7456,297.8962 860.1896,294.1952 860.1236,290.3652 C860.0586,286.5362 858.4906,282.8862 855.7566,280.2042 C853.0236,277.5212 849.3446,276.0212 845.5156,276.027182 L845.5156,276.0282 Z" fill="#FFFFFF"></path>
      <path d="M846.3535,305.8241 C849.5265,303.0421 852.9115,298.6301 852.9115,290.6331 C852.9115,282.6361 849.5805,278.0491 846.3215,275.4221 L845.0015,276.7191 C848.0505,279.1771 850.8715,282.5681 850.8715,290.6341 C850.8715,298.7311 847.9555,301.9591 844.9735,304.5691 L846.3535,305.8241 Z" fill="#3898C5"></path>
      <polygon fill="#3898C5" points="831.88 291.54 859.323 291.54 859.323 289.711 831.88 289.711"></polygon>
      <path d="M845.6025,283.786 C841.1015,283.786 837.0365,282.531 834.6095,280.661 L833.5125,281.758 C836.2185,283.932 840.6195,285.354 845.6025,285.354 C850.5855,285.354 854.9875,283.932 857.6935,281.757 L856.5955,280.66 C854.1695,282.531 850.1045,283.786 845.6025,283.786" fill="#3898C5"></path>
      <path d="M827.4014,305.371 L818.7644,314.008 C818.3124,314.467 818.0604,315.085 818.063374,315.729 C818.0654,316.373 818.3224,316.99 818.7784,317.445 C819.2334,317.9 819.8494,318.157 820.4944,318.160012 C821.1374,318.162 821.7564,317.91 822.2154,317.459 L830.8564,308.827 L827.4014,305.371 Z" fill="#7A7B7B"></path>
      <path d="M824.0127,308.7596 C824.9167,310.1346 826.0927,311.3096 827.4667,312.2146 L829.7257,309.9556 L826.2707,306.5036 L824.0127,308.7596 Z" fill="#1D1D1D"></path>
      <path d="M835.8633,307.8114 C840.1563,307.8114 843.6363,304.3314 843.6363,300.0384 C843.6363,295.7454 840.1563,292.2654 835.8633,292.2654 C831.5703,292.2654 828.0913,295.7454 828.0913,300.0384 C828.0913,304.3314 831.5703,307.8114 835.8633,307.8114" fill="#FFFFFF"></path>
      <path d="M836.1025,309.6249 C841.3495,309.6249 845.6025,305.3719 845.6025,300.1249 C845.6025,294.8779 841.3495,290.6249 836.1025,290.6249 C830.8555,290.6249 826.6025,294.8779 826.6025,300.1249 C826.6025,305.3719 830.8555,309.6249 836.1025,309.6249" fill="#FFFFFF"></path>
      <path d="M840.3525,289.826 C840.5385,282.342 843.2605,279.092 846.2025,276.719 L844.8825,275.422 C841.8255,277.888 838.7025,282.085 838.3325,289.206 C839.0245,289.347 839.7005,289.555 840.3525,289.826" fill="#3898C5"></path>
      <path d="M846.4189,295.9237 C846.6259,296.4377 846.7949,296.9667 846.9239,297.5067 C850.8909,297.7247 854.4069,298.9007 856.5989,300.5847 L857.6949,299.4877 C855.1389,297.4337 851.0629,296.0677 846.4189,295.9237" fill="#3898C5"></path>
      <path d="M845.6045,275.1639 C841.5055,275.1689 837.5775,276.7999 834.6785,279.6979 C831.7805,282.5959 830.1505,286.5249 830.1455,290.6239 C830.1455,290.6559 830.1495,290.6859 830.1505,290.7189 C830.7765,290.3219 831.4415,289.9889 832.1335,289.7249 C832.3055,287.1349 833.2205,284.6499 834.7675,282.5669 C836.3155,280.4839 838.4295,278.8909 840.8585,277.9779 C843.2875,277.0649 845.9275,276.8709 848.4635,277.4199 C851.0005,277.9689 853.3255,279.2359 855.1605,281.0709 C856.9955,282.9059 858.2615,285.2299 858.8105,287.7669 C859.3585,290.3039 859.1645,292.9439 858.2505,295.3729 C857.3375,297.8019 855.7445,299.9159 853.6615,301.4629 C851.5785,303.0099 849.0925,303.9239 846.5035,304.0959 C846.2395,304.7869 845.9065,305.4489 845.5095,306.0739 C845.5425,306.0739 845.5735,306.0799 845.6045,306.0799 C849.7055,306.0799 853.6375,304.4509 856.5375,301.5519 C859.4355,298.6519 861.0645,294.7199 861.0645,290.6199 C861.0645,286.5189 859.4355,282.5869 856.5375,279.6879 C853.6375,276.7889 849.7055,275.1599 845.6045,275.1599 L845.6045,275.1639 Z" fill="#3898C5"></path>
      <polygon fill="#7FBA00" points="834.8779 305.3065 833.0919 300.0315 831.7209 302.7365 829.1919 302.7365 829.1919 301.3815 830.8679 301.3815 833.3439 296.5045 834.8679 301.0085 837.0489 294.4975 838.8349 299.7635 840.5039 296.5795 843.0089 296.5795 843.0089 297.9515 841.2879 297.9515 838.5789 303.2895 837.0529 298.7915"></polygon>
      <path d="M829.6182,303.1376 C829.6182,297.5236 833.5302,293.6376 839.1182,293.6376 C840.7912,293.6386 842.4332,294.0836 843.8772,294.9276 C843.1482,293.6676 842.1392,292.5916 840.9292,291.7836 C839.7182,290.9766 838.3382,290.4576 836.8942,290.2676 C835.4512,290.0786 833.9832,290.2236 832.6052,290.6916 C831.2262,291.1596 829.9742,291.9386 828.9452,292.9676 C827.9162,293.9966 827.1382,295.2496 826.6692,296.6276 C826.2012,298.0056 826.0552,299.4736 826.2452,300.9166 C826.4342,302.3606 826.9532,303.7416 827.7622,304.9506 C828.5692,306.1616 829.6452,307.1706 830.9052,307.9006 C830.0612,306.4546 829.6182,304.8116 829.6182,303.1376" fill="#3898C5"></path>
      <path d="M836.1035,309.0223 C834.3435,309.0223 832.6245,308.5013 831.1615,307.5233 C829.6995,306.5453 828.5585,305.1573 827.8845,303.5313 C827.2115,301.9063 827.0365,300.1183 827.3785,298.3923 C827.7215,296.6673 828.5685,295.0823 829.8125,293.8373 C831.0565,292.5933 832.6405,291.7463 834.3665,291.4023 C836.0915,291.0583 837.8795,291.2343 839.5055,291.9073 C841.1305,292.5803 842.5205,293.7203 843.4985,295.1823 C844.4765,296.6453 844.9985,298.3653 844.9995,300.1243 C844.9995,301.2923 844.7685,302.4493 844.3215,303.5283 C843.8745,304.6073 843.2195,305.5873 842.3935,306.4143 C841.5675,307.2403 840.5865,307.8953 839.5075,308.3423 C838.4285,308.7903 837.2715,309.0193 836.1035,309.0193 L836.1035,309.0223 Z M836.1035,288.1193 C833.7285,288.1193 831.4085,288.8233 829.4335,290.1423 C827.4585,291.4603 825.9205,293.3353 825.0115,295.5303 C824.1035,297.7233 823.8655,300.1373 824.3295,302.4653 C824.7915,304.7943 825.9355,306.9343 827.6145,308.6133 C829.2925,310.2923 831.4325,311.4353 833.7615,311.8983 C836.0895,312.3623 838.5035,312.1243 840.6975,311.2153 C842.8915,310.3063 844.7665,308.7683 846.0845,306.7933 C847.4045,304.8193 848.1085,302.4993 848.1085,300.1243 C848.1085,296.9403 846.8435,293.8863 844.5925,291.6353 C842.3405,289.3833 839.2875,288.1193 836.1035,288.1193 L836.1035,288.1193 Z" fill="#7A7B7B"></path>
      <text font-family="SegoeUI-Semibold, Segoe UI" font-size="10.2341" font-weight="500" fill="#525252">
        <tspan x="451.8462" y="138.742747">Client </tspan>
        <tspan x="481.469122" y="138.742747" letter-spacing="-0.24050135">S</tspan>
        <tspan x="486.55555" y="138.742747">ys</tspan>
        <tspan x="496.170007" y="138.742747" letter-spacing="-0.05526414">t</tspan>
        <tspan x="499.752646" y="138.742747">em</tspan>
      </text>
      <text font-family="SegoeUI-Semibold, Segoe UI" font-size="10.2341" font-weight="500" fill="#525252">
        <tspan x="167.491732" y="354.682257">A</tspan>
        <tspan x="174.36277" y="354.682257" letter-spacing="-0.00511705">p</tspan>
        <tspan x="180.524098" y="354.682257">p Se</tspan>
        <tspan x="200.512575" y="354.682257" letter-spacing="0.41038741">r</tspan>
        <tspan x="205.120542" y="354.682257" letter-spacing="-0.07573234">v</tspan>
        <tspan x="210.156863" y="354.682257">er1</tspan>
      </text>
      <text font-family="SegoeUI-Semibold, Segoe UI" font-size="10.2341" font-weight="500" fill="#525252">
        <tspan x="73.2152023" y="507.917437">Oracle DB1</tspan>
      </text>
      <text font-family="SegoeUI-Semibold, Segoe UI" font-size="10.2341" font-weight="500" fill="#525252">
        <tspan x="76.7254986" y="520.198357">(</tspan>
        <tspan x="80.1235396" y="520.198357" letter-spacing="-0.00511705">p</tspan>
        <tspan x="86.2848676" y="520.198357">rima</tspan>
        <tspan x="107.152837" y="520.198357" letter-spacing="0.41141082">r</tspan>
        <tspan x="111.761828" y="520.198357">y)</tspan>
      </text>
      <text font-family="SegoeUI-Semibold, Segoe UI" font-size="10.2341" font-weight="500" fill="#525252">
        <tspan x="262.68933" y="507.917437">Oracle DB2</tspan>
      </text>
      <text font-family="SegoeUI-Semibold, Segoe UI" font-size="10.2341" font-weight="500" fill="#525252">
        <tspan x="266.711331" y="520.198357">(stan</tspan>
        <tspan x="289.533174" y="520.198357" letter-spacing="-0.00511705">db</tspan>
        <tspan x="301.85583" y="520.198357">y)</tspan>
      </text>
      <text font-family="SegoeUI-Semibold, Segoe UI" font-size="10.2341" font-weight="500" fill="#525252">
        <tspan x="677.589978" y="507.917437">Oracle DB1</tspan>
      </text>
      <text font-family="SegoeUI-Semibold, Segoe UI" font-size="10.2341" font-weight="500" fill="#525252">
        <tspan x="681.100274" y="520.198357">(</tspan>
        <tspan x="684.498315" y="520.198357" letter-spacing="-0.00511705">p</tspan>
        <tspan x="690.659643" y="520.198357">rima</tspan>
        <tspan x="711.527613" y="520.198357" letter-spacing="0.41141082">r</tspan>
        <tspan x="716.136604" y="520.198357">y)</tspan>
      </text>
      <text font-family="SegoeUI-Semibold, Segoe UI" font-size="10.2341" font-weight="500" fill="#525252">
        <tspan x="681.765491" y="623.613937">P</tspan>
        <tspan x="687.747042" y="623.613937" letter-spacing="-0.08903667">r</tspan>
        <tspan x="691.355874" y="623.613937">emium</tspan>
      </text>
      <text font-family="SegoeUI-Semibold, Segoe UI" font-size="10.2341" font-weight="500" letter-spacing="-0.29064844" fill="#525252">
        <tspan x="670.825238" y="635.894857">S</tspan>
        <tspan x="675.811547" y="635.894857" letter-spacing="-0.05628755">t</tspan>
        <tspan x="679.393162" y="635.894857">orage using</tspan>
      </text>
      <text font-family="SegoeUI-Semibold, Segoe UI" font-size="10.2341" font-weight="500" fill="#525252">
        <tspan x="675.461285" y="648.175777">Oracle ASM</tspan>
      </text>
      <text font-family="SegoeUI-Semibold, Segoe UI" font-size="10.2341" font-weight="500" fill="#525252">
        <tspan x="971.380287" y="623.613937">P</tspan>
        <tspan x="977.361838" y="623.613937" letter-spacing="-0.08903667">r</tspan>
        <tspan x="980.97067" y="623.613937">emium</tspan>
      </text>
      <text font-family="SegoeUI-Semibold, Segoe UI" font-size="10.2341" font-weight="500" letter-spacing="-0.29064844" fill="#525252">
        <tspan x="960.440034" y="635.894857">S</tspan>
        <tspan x="965.426343" y="635.894857" letter-spacing="-0.05628755">t</tspan>
        <tspan x="969.007958" y="635.894857">orage using</tspan>
      </text>
      <text font-family="SegoeUI-Semibold, Segoe UI" font-size="10.2341" font-weight="500" fill="#525252">
        <tspan x="965.076081" y="648.175777">Oracle ASM</tspan>
      </text>
      <text font-family="SegoeUI-Semibold, Segoe UI" font-size="10.2341" font-weight="500" fill="#525252">
        <tspan x="959.979499" y="507.917437">Oracle DB2</tspan>
      </text>
      <text font-family="SegoeUI-Semibold, Segoe UI" font-size="10.2341" font-weight="500" fill="#525252">
        <tspan x="964.0015" y="520.198357">(stan</tspan>
        <tspan x="986.823344" y="520.198357" letter-spacing="-0.00511705">db</tspan>
        <tspan x="999.145999" y="520.198357">y)</tspan>
      </text>
      <text font-family="SegoeUI-Semibold, Segoe UI" font-size="10.2341" font-weight="500" fill="#525252">
        <tspan x="957.257229" y="337.693651">A</tspan>
        <tspan x="964.128267" y="337.693651" letter-spacing="-0.00511705">p</tspan>
        <tspan x="970.289595" y="337.693651">p Se</tspan>
        <tspan x="990.278072" y="337.693651" letter-spacing="0.41038741">r</tspan>
        <tspan x="994.886039" y="337.693651" letter-spacing="-0.07573234">v</tspan>
        <tspan x="999.92236" y="337.693651">er3</tspan>
      </text>
      <text font-family="SegoeUI-Semibold, Segoe UI" font-size="10.2341" font-weight="500" fill="#525252">
        <tspan x="670.487512" y="337.693651">A</tspan>
        <tspan x="677.358551" y="337.693651" letter-spacing="-0.00511705">p</tspan>
        <tspan x="683.519879" y="337.693651">p Se</tspan>
        <tspan x="703.508356" y="337.693651" letter-spacing="0.41038741">r</tspan>
        <tspan x="708.116323" y="337.693651" letter-spacing="-0.07675575">v</tspan>
        <tspan x="713.15162" y="337.693651">er2</tspan>
      </text>
      <text font-family="SegoeUI-Semibold, Segoe UI" font-size="10.2341" font-weight="500" letter-spacing="-0.21593951" fill="#525252">
        <tspan x="660.284115" y="216.910803">A</tspan>
        <tspan x="666.719341" y="216.910803" letter-spacing="-0.16681583">v</tspan>
        <tspan x="671.57463" y="216.910803">aila</tspan>
        <tspan x="687.605388" y="216.910803" letter-spacing="-0.00511705">b</tspan>
        <tspan x="693.766716" y="216.910803">ility Zone</tspan>
      </text>
      <text font-family="SegoeUI-Semibold, Segoe UI" font-size="10.2341" font-weight="500" fill="#525252">
        <tspan x="696.011358" y="235.9974">0</tspan>
      </text>
      <text font-family="SegoeUI-Semibold, Segoe UI" font-size="10.2341" font-weight="500" letter-spacing="-0.21593951" fill="#525252">
        <tspan x="804.165327" y="216.910803">A</tspan>
        <tspan x="810.600553" y="216.910803" letter-spacing="-0.16681583">v</tspan>
        <tspan x="815.455842" y="216.910803">aila</tspan>
        <tspan x="831.4866" y="216.910803" letter-spacing="-0.00511705">b</tspan>
        <tspan x="837.647928" y="216.910803">ility Zone</tspan>
      </text>
      <text font-family="SegoeUI-Semibold, Segoe UI" font-size="10.2341" font-weight="500" fill="#525252">
        <tspan x="840.670361" y="235.9974">1</tspan>
      </text>
      <text font-family="SegoeUI-Semibold, Segoe UI" font-size="10.2341" font-weight="500" letter-spacing="-0.21593951" fill="#525252">
        <tspan x="950.461786" y="216.910803">A</tspan>
        <tspan x="956.897012" y="216.910803" letter-spacing="-0.16681583">v</tspan>
        <tspan x="961.752301" y="216.910803">aila</tspan>
        <tspan x="977.783059" y="216.910803" letter-spacing="-0.00511705">b</tspan>
        <tspan x="983.944387" y="216.910803">ility Zone</tspan>
      </text>
      <text font-family="SegoeUI-Semibold, Segoe UI" font-size="10.2341" font-weight="500" fill="#525252">
        <tspan x="986.189029" y="235.9974">2</tspan>
      </text>
      <text font-family="SegoeUI-Semibold, Segoe UI" font-size="10.2341" font-weight="500" letter-spacing="-0.11564533" fill="#525252">
        <tspan x="803.008873" y="337.693651">F</tspan>
        <tspan x="807.915333" y="337.693651">SFQ O</tspan>
        <tspan x="836.913615" y="337.693651" letter-spacing="-0.00511705">b</tspan>
        <tspan x="843.074943" y="337.693651">se</tspan>
        <tspan x="852.924265" y="337.693651" letter-spacing="0.41038741">r</tspan>
        <tspan x="857.532232" y="337.693651" letter-spacing="-0.07675575">v</tspan>
        <tspan x="862.567529" y="337.693651">er</tspan>
      </text>
      <text font-family="SegoeUI-Semibold, Segoe UI" font-size="10.2341" font-weight="500" fill="#525252">
        <tspan x="811.953477" y="133.421015">L</tspan>
        <tspan x="816.955593" y="133.421015" letter-spacing="-0.11871556">o</tspan>
        <tspan x="822.828423" y="133.421015">ad Balancer</tspan>
      </text>
      <text font-family="SegoeUI-Semibold, Segoe UI" font-size="13.3133" font-weight="500" fill="#525252">
        <tspan x="826.9956" y="48.8805709">Azu</tspan>
        <tspan x="849.884335" y="48.8805709" letter-spacing="-0.11449438">r</tspan>
        <tspan x="854.58031" y="48.8805709">e</tspan>
      </text>
      <text font-family="SegoeUI-Semibold, Segoe UI" font-size="10.2341" font-weight="500" fill="#525252">
        <tspan x="818.7886" y="448.150947">DataGua</tspan>
        <tspan x="858.960441" y="448.150947" letter-spacing="-0.08801326">r</tspan>
        <tspan x="862.570296" y="448.150947">d</tspan>
      </text>
      <text font-family="SegoeUI-Semibold, Segoe UI" font-size="10.2341" font-weight="500" letter-spacing="-0.27427388" fill="#525252">
        <tspan x="798.668359" y="470.236135">R</tspan>
        <tspan x="804.495568" y="470.236135">e</tspan>
        <tspan x="809.932434" y="470.236135" letter-spacing="-0.00511705">d</tspan>
        <tspan x="816.093762" y="470.236135">o </tspan>
        <tspan x="825.018616" y="470.236135" letter-spacing="-0.28962503">S</tspan>
        <tspan x="830.005949" y="470.236135">t</tspan>
        <tspan x="833.703817" y="470.236135" letter-spacing="-0.08903667">r</tspan>
        <tspan x="837.312649" y="470.236135">eam (sync)</tspan>
      </text>
      <text font-family="SegoeUI-Semibold, Segoe UI" font-size="10.2341" font-weight="500" fill="#525252">
        <tspan x="467.431479" y="504.489668">DataGua</tspan>
        <tspan x="507.60332" y="504.489668" letter-spacing="-0.08801326">r</tspan>
        <tspan x="511.213174" y="504.489668">d</tspan>
      </text>
      <text font-family="SegoeUI-Semibold, Segoe UI" font-size="10.2341" font-weight="500" fill="#525252">
        <tspan x="440.92516" y="558.873675">VPN or Ex</tspan>
        <tspan x="487.27344" y="558.873675" letter-spacing="-0.00511705">p</tspan>
        <tspan x="493.434768" y="558.873675" letter-spacing="-0.08801326">r</tspan>
        <tspan x="497.044623" y="558.873675">ess</tspan>
        <tspan x="511.306401" y="558.873675" letter-spacing="-0.27836752">R</tspan>
        <tspan x="517.124519" y="558.873675">ou</tspan>
        <tspan x="529.207553" y="558.873675" letter-spacing="-0.05628755">t</tspan>
        <tspan x="532.789168" y="558.873675">e</tspan>
      </text>
      <text font-family="SegoeUI-Semibold, Segoe UI" font-size="10.2341" font-weight="500" fill="#525252">
        <tspan x="460.891889" y="571.154595">Connectivity</tspan>
      </text>
      <text font-family="SegoeUI-Semibold, Segoe UI" font-size="10.2341" font-weight="500" letter-spacing="-0.11564533" fill="#525252">
        <tspan x="153.510695" y="641.790354">F</tspan>
        <tspan x="158.417155" y="641.790354">SFQ O</tspan>
        <tspan x="187.415437" y="641.790354" letter-spacing="-0.00511705">b</tspan>
        <tspan x="193.576765" y="641.790354">se</tspan>
        <tspan x="203.426087" y="641.790354" letter-spacing="0.41038741">r</tspan>
        <tspan x="208.034054" y="641.790354" letter-spacing="-0.07675575">v</tspan>
        <tspan x="213.069352" y="641.790354">er</tspan>
      </text>
      <text font-family="SegoeUI-Semibold, Segoe UI" font-size="10.2341" font-weight="500" letter-spacing="-0.27427388" fill="#525252">
        <tspan x="153.111566" y="470.256603">R</tspan>
        <tspan x="158.938774" y="470.256603">e</tspan>
        <tspan x="164.37564" y="470.256603" letter-spacing="-0.00511705">d</tspan>
        <tspan x="170.536968" y="470.256603">o </tspan>
        <tspan x="179.461822" y="470.256603" letter-spacing="-0.28962503">S</tspan>
        <tspan x="184.449155" y="470.256603">t</tspan>
        <tspan x="188.147023" y="470.256603" letter-spacing="-0.08903667">r</tspan>
        <tspan x="191.755855" y="470.256603">eam (sync)</tspan>
      </text>
      <text font-family="SegoeUI-Semibold, Segoe UI" font-size="10.2341" font-weight="500" letter-spacing="-0.27427388" fill="#525252">
        <tspan x="449.020333" y="470.256603">R</tspan>
        <tspan x="454.847541" y="470.256603">e</tspan>
        <tspan x="460.284407" y="470.256603" letter-spacing="-0.00511705">d</tspan>
        <tspan x="466.445735" y="470.256603">o </tspan>
        <tspan x="475.37059" y="470.256603" letter-spacing="-0.28962503">S</tspan>
        <tspan x="480.357923" y="470.256603">t</tspan>
        <tspan x="484.055791" y="470.256603" letter-spacing="-0.08903667">r</tspan>
        <tspan x="487.664622" y="470.256603">eam (sync)</tspan>
      </text>
      <path d="M694.1377,463.159 L694.1377,454.213 L679.1067,454.213 L679.1067,483.832 C679.1067,485.887 682.2087,487.7 686.8037,488.668 L686.8037,463.159 L694.1377,463.159 Z" fill="#0072C6"></path>
      <polygon fill="#2D88CB" points="694.3799 454.2127 694.1379 454.2127 694.1379 463.1587 709.6929 463.1587 709.6929 454.2127"></polygon>
      <path d="M709.6924,454.2118 C709.6924,457.2338 702.8414,459.7728 694.4204,459.7728 C685.9974,459.7728 679.1064,457.3548 679.1064,454.2118 C679.1064,451.1898 685.9574,448.6498 694.3794,448.6498 C702.8014,448.6498 709.6924,451.1898 709.6924,454.2118" fill="#FFFFFF"></path>
      <path d="M706.5908,453.9686 C706.5908,455.9436 701.1108,457.5956 694.4208,457.5956 C687.7318,457.5956 682.2508,455.9436 682.2508,453.9686 C682.2508,451.9136 687.7318,450.2616 694.4208,450.2616 C701.1108,450.2616 706.5908,451.9136 706.5908,453.9686" fill="#0072C6"></path>
      <path d="M704.0498,456.1854 C705.7018,455.5404 706.5878,454.7754 706.5878,453.9684 C706.5878,451.9144 701.1078,450.2614 694.4178,450.2614 C687.7288,450.2614 682.2078,451.9144 682.2078,453.9684 C682.2078,454.7754 683.1748,455.6214 684.7468,456.1854 C686.9628,455.2984 690.4688,454.7754 694.3778,454.7754 C698.3268,454.7344 701.8328,455.2984 704.0498,456.1854" fill="#2D88CB"></path>
      <polygon fill="#0078D4" points="688.177 491.808 722.672 491.808 722.672 465.251 688.177 465.251"></polygon>
      <polygon fill="#50E6FF" points="688.177 468.116 722.672 468.116 722.672 464.529 688.177 464.529"></polygon>
      <path d="M709.4512,475.7303 L709.4512,473.1913 L693.6142,473.1913 L693.6142,484.6353 L699.9002,484.6353 L703.7692,488.6263 C703.8492,488.7063 704.0522,488.6263 704.0112,488.4643 L703.4872,484.5953 L705.4622,484.5953 C704.9782,483.7093 704.6962,482.7023 704.6962,481.6543 C704.7362,478.7523 706.7512,476.3343 709.4512,475.7303" fill="#50E6FF"></path>
      <path d="M711.9912,476.7362 L711.9912,476.2942 C711.6692,476.2132 711.2652,476.2132 710.8632,476.2132 C707.8412,476.2132 705.3022,478.6712 705.3022,481.7742 C705.3022,484.8772 707.7602,487.3352 710.8632,487.3352 C711.4272,487.3352 712.0312,487.2552 712.5552,487.0522 L709.7342,484.3122 L710.5402,482.8222 L712.0312,482.8222 C712.5952,482.8222 713.0792,482.3382 713.0792,481.7742 C713.0792,481.2102 712.5952,480.7262 712.0312,480.7262 L707.3572,480.7262 L709.7742,478.0662 L709.7742,479.2752 L711.9912,479.2752 C713.4012,479.2752 714.4892,480.4042 714.4892,481.7742 C714.4892,483.1442 713.3612,484.2722 711.9912,484.2722 L714.0062,486.2472 C715.4172,485.2392 716.3032,483.5882 716.3032,481.7742 C716.3032,480.2432 715.6582,478.8322 714.6502,477.8652 L712.9582,477.8652 C712.4342,477.7442 711.9912,477.3002 711.9912,476.7362" fill="#50E6FF"></path>
      <path d="M713.3574,476.7772 C713.1964,476.7772 713.1164,476.7372 713.0754,476.6162 C713.0354,476.5762 713.0354,476.5362 713.0354,476.4152 C713.0354,476.2142 713.1964,476.0922 713.3574,476.0922 C713.5594,476.0922 713.6794,476.2542 713.6794,476.4152 C713.6794,476.5762 713.5594,476.7372 713.3574,476.7772 L713.3574,476.7772 Z M717.5484,471.1352 L714.6074,474.0782 L713.0754,474.0782 C712.7944,474.0782 712.5514,474.3192 712.5514,474.6012 L712.5514,476.3352 L712.5514,476.6572 C712.5514,476.9382 712.7944,477.1802 713.0754,477.1802 L714.2844,477.1802 L715.0904,477.1802 C715.3734,477.1802 715.6144,476.9382 715.6144,476.6572 L715.6144,474.7222 L715.6144,474.6822 L715.9364,474.6822 L716.4204,474.1982 L716.4204,473.6342 L716.5824,473.4732 L717.1454,473.4732 L717.4674,473.1512 L717.4674,472.5062 L717.9114,472.0622 L718.3144,472.0622 L718.3144,471.0952 L717.5484,471.0952 L717.5484,471.1352 Z" fill="#50E6FF"></path>
      <path d="M713.3574,476.7782 C713.3174,476.7382 713.1554,476.6982 713.0754,476.6172 C713.1154,476.6982 713.1964,476.7782 713.3574,476.7782" fill="#50E6FF"></path>
      <path d="M285.1865,463.159 L285.1865,454.213 L270.1555,454.213 L270.1555,483.832 C270.1555,485.887 273.2585,487.7 277.8525,488.668 L277.8525,463.159 L285.1865,463.159 Z" fill="#0072C6"></path>
      <polygon fill="#2D88CB" points="285.4287 454.2127 285.1867 454.2127 285.1867 463.1587 300.7417 463.1587 300.7417 454.2127"></polygon>
      <path d="M300.7422,454.2118 C300.7422,457.2338 293.8912,459.7728 285.4692,459.7728 C277.0472,459.7728 270.1552,457.3548 270.1552,454.2118 C270.1552,451.1898 277.0072,448.6498 285.4292,448.6498 C293.8502,448.6498 300.7422,451.1898 300.7422,454.2118" fill="#FFFFFF"></path>
      <path d="M297.6396,453.9686 C297.6396,455.9436 292.1596,457.5956 285.4706,457.5956 C278.7806,457.5956 273.2996,455.9436 273.2996,453.9686 C273.2996,451.9136 278.7806,450.2616 285.4706,450.2616 C292.1596,450.2616 297.6396,451.9136 297.6396,453.9686" fill="#0072C6"></path>
      <path d="M295.0986,456.1854 C296.7506,455.5404 297.6376,454.7754 297.6376,453.9684 C297.6376,451.9144 292.1576,450.2614 285.4676,450.2614 C278.7786,450.2614 273.2566,451.9144 273.2566,453.9684 C273.2566,454.7754 274.2246,455.6214 275.7956,456.1854 C278.0126,455.2984 281.5186,454.7754 285.4266,454.7754 C289.3756,454.7344 292.8826,455.2984 295.0986,456.1854" fill="#2D88CB"></path>
      <polygon fill="#0078D4" points="279.226 491.808 313.721 491.808 313.721 465.251 279.226 465.251"></polygon>
      <polygon fill="#50E6FF" points="279.226 468.116 313.721 468.116 313.721 464.529 279.226 464.529"></polygon>
      <path d="M300.501,475.7303 L300.501,473.1913 L284.663,473.1913 L284.663,484.6353 L290.95,484.6353 L294.818,488.6263 C294.899,488.7063 295.101,488.6263 295.061,488.4643 L294.536,484.5953 L296.511,484.5953 C296.027,483.7093 295.745,482.7023 295.745,481.6543 C295.786,478.7523 297.801,476.3343 300.501,475.7303" fill="#50E6FF"></path>
      <path d="M303.04,476.7362 L303.04,476.2942 C302.718,476.2132 302.315,476.2132 301.912,476.2132 C298.89,476.2132 296.351,478.6712 296.351,481.7742 C296.351,484.8772 298.81,487.3352 301.912,487.3352 C302.477,487.3352 303.081,487.2552 303.604,487.0522 L300.784,484.3122 L301.59,482.8222 L303.081,482.8222 C303.644,482.8222 304.129,482.3382 304.129,481.7742 C304.129,481.2102 303.644,480.7262 303.081,480.7262 L298.406,480.7262 L300.824,478.0662 L300.824,479.2752 L303.04,479.2752 C304.451,479.2752 305.539,480.4042 305.539,481.7742 C305.539,483.1442 304.41,484.2722 303.04,484.2722 L305.056,486.2472 C306.466,485.2392 307.352,483.5882 307.352,481.7742 C307.352,480.2432 306.708,478.8322 305.7,477.8652 L304.008,477.8652 C303.483,477.7442 303.04,477.3002 303.04,476.7362" fill="#50E6FF"></path>
      <path d="M304.4072,476.7772 C304.2462,476.7772 304.1652,476.7372 304.1252,476.6162 C304.0852,476.5762 304.0852,476.5362 304.0852,476.4152 C304.0852,476.2142 304.2462,476.0922 304.4072,476.0922 C304.6082,476.0922 304.7292,476.2542 304.7292,476.4152 C304.7292,476.5762 304.6082,476.7372 304.4072,476.7772 L304.4072,476.7772 Z M308.5972,471.1352 L305.6562,474.0782 L304.1252,474.0782 C303.8432,474.0782 303.6002,474.3192 303.6002,474.6012 L303.6002,476.3352 L303.6002,476.6572 C303.6002,476.9382 303.8432,477.1802 304.1252,477.1802 L305.3342,477.1802 L306.1392,477.1802 C306.4222,477.1802 306.6642,476.9382 306.6642,476.6572 L306.6642,474.7222 L306.6642,474.6822 L306.9862,474.6822 L307.4702,474.1982 L307.4702,473.6342 L307.6312,473.4732 L308.1952,473.4732 L308.5172,473.1512 L308.5172,472.5062 L308.9612,472.0622 L309.3632,472.0622 L309.3632,471.0952 L308.5972,471.0952 L308.5972,471.1352 Z" fill="#50E6FF"></path>
      <path d="M304.4062,476.7782 C304.3662,476.7382 304.2052,476.6982 304.1242,476.6172 C304.1652,476.6982 304.2452,476.7782 304.4062,476.7782" fill="#50E6FF"></path>
      <path d="M91.0127,463.159 L91.0127,454.213 L75.9817,454.213 L75.9817,483.832 C75.9817,485.887 79.0837,487.7 83.6787,488.668 L83.6787,463.159 L91.0127,463.159 Z" fill="#0072C6"></path>
      <polygon fill="#2D88CB" points="91.2549 454.2127 91.0129 454.2127 91.0129 463.1587 106.5679 463.1587 106.5679 454.2127"></polygon>
      <path d="M106.5674,454.2118 C106.5674,457.2338 99.7164,459.7728 91.2954,459.7728 C82.8724,459.7728 75.9814,457.3548 75.9814,454.2118 C75.9814,451.1898 82.8324,448.6498 91.2544,448.6498 C99.6764,448.6498 106.5674,451.1898 106.5674,454.2118" fill="#FFFFFF"></path>
      <path d="M103.4658,453.9686 C103.4658,455.9436 97.9858,457.5956 91.2958,457.5956 C84.6068,457.5956 79.1258,455.9436 79.1258,453.9686 C79.1258,451.9136 84.6068,450.2616 91.2958,450.2616 C97.9858,450.2616 103.4658,451.9136 103.4658,453.9686" fill="#0072C6"></path>
      <path d="M100.9248,456.1854 C102.5758,455.5404 103.4628,454.7754 103.4628,453.9684 C103.4628,451.9144 97.9828,450.2614 91.2928,450.2614 C84.6038,450.2614 79.0828,451.9144 79.0828,453.9684 C79.0828,454.7754 80.0498,455.6214 81.6218,456.1854 C83.8378,455.2984 87.3438,454.7754 91.2528,454.7754 C95.2018,454.7344 98.7078,455.2984 100.9248,456.1854" fill="#2D88CB"></path>
      <polygon fill="#0078D4" points="85.052 491.808 119.547 491.808 119.547 465.251 85.052 465.251"></polygon>
      <polygon fill="#50E6FF" points="85.052 468.116 119.547 468.116 119.547 464.529 85.052 464.529"></polygon>
      <path d="M106.3262,475.7303 L106.3262,473.1913 L90.4892,473.1913 L90.4892,484.6353 L96.7752,484.6353 L100.6442,488.6263 C100.7242,488.7063 100.9272,488.6263 100.8862,488.4643 L100.3622,484.5953 L102.3372,484.5953 C101.8532,483.7093 101.5712,482.7023 101.5712,481.6543 C101.6112,478.7523 103.6262,476.3343 106.3262,475.7303" fill="#50E6FF"></path>
      <path d="M108.8662,476.7362 L108.8662,476.2942 C108.5442,476.2132 108.1402,476.2132 107.7382,476.2132 C104.7162,476.2132 102.1772,478.6712 102.1772,481.7742 C102.1772,484.8772 104.6352,487.3352 107.7382,487.3352 C108.3022,487.3352 108.9062,487.2552 109.4302,487.0522 L106.6092,484.3122 L107.4152,482.8222 L108.9062,482.8222 C109.4702,482.8222 109.9542,482.3382 109.9542,481.7742 C109.9542,481.2102 109.4702,480.7262 108.9062,480.7262 L104.2312,480.7262 L106.6492,478.0662 L106.6492,479.2752 L108.8662,479.2752 C110.2762,479.2752 111.3642,480.4042 111.3642,481.7742 C111.3642,483.1442 110.2362,484.2722 108.8662,484.2722 L110.8812,486.2472 C112.2912,485.2392 113.1782,483.5882 113.1782,481.7742 C113.1782,480.2432 112.5332,478.8322 111.5252,477.8652 L109.8332,477.8652 C109.3092,477.7442 108.8662,477.3002 108.8662,476.7362" fill="#50E6FF"></path>
      <path d="M110.2324,476.7772 C110.0714,476.7772 109.9914,476.7372 109.9504,476.6162 C109.9104,476.5762 109.9104,476.5362 109.9104,476.4152 C109.9104,476.2142 110.0714,476.0922 110.2324,476.0922 C110.4344,476.0922 110.5544,476.2542 110.5544,476.4152 C110.5544,476.5762 110.4344,476.7372 110.2324,476.7772 L110.2324,476.7772 Z M114.4234,471.1352 L111.4814,474.0782 L109.9504,474.0782 C109.6694,474.0782 109.4264,474.3192 109.4264,474.6012 L109.4264,476.3352 L109.4264,476.6572 C109.4264,476.9382 109.6694,477.1802 109.9504,477.1802 L111.1594,477.1802 L111.9654,477.1802 C112.2474,477.1802 112.4894,476.9382 112.4894,476.6572 L112.4894,474.7222 L112.4894,474.6822 L112.8114,474.6822 L113.2954,474.1982 L113.2954,473.6342 L113.4564,473.4732 L114.0204,473.4732 L114.3424,473.1512 L114.3424,472.5062 L114.7864,472.0622 L115.1894,472.0622 L115.1894,471.0952 L114.4234,471.0952 L114.4234,471.1352 Z" fill="#50E6FF"></path>
      <path d="M110.2324,476.7782 C110.1924,476.7382 110.0304,476.6982 109.9504,476.6172 C109.9904,476.6982 110.0714,476.7782 110.2324,476.7782" fill="#50E6FF"></path>
      <path d="M980.5059,463.159 L980.5059,454.213 L965.4749,454.213 L965.4749,483.832 C965.4749,485.887 968.5779,487.7 973.1719,488.668 L973.1719,463.159 L980.5059,463.159 Z" fill="#0072C6"></path>
      <polygon fill="#2D88CB" points="980.748 454.2127 980.506 454.2127 980.506 463.1587 996.061 463.1587 996.061 454.2127"></polygon>
      <path d="M996.0615,454.2118 C996.0615,457.2338 989.2095,459.7728 980.7885,459.7728 C972.3665,459.7728 965.4745,457.3548 965.4745,454.2118 C965.4745,451.1898 972.3255,448.6498 980.7485,448.6498 C989.1695,448.6498 996.0615,451.1898 996.0615,454.2118" fill="#FFFFFF"></path>
      <path d="M992.959,453.9686 C992.959,455.9436 987.479,457.5956 980.789,457.5956 C974.1,457.5956 968.619,455.9436 968.619,453.9686 C968.619,451.9136 974.1,450.2616 980.789,450.2616 C987.479,450.2616 992.959,451.9136 992.959,453.9686" fill="#0072C6"></path>
      <path d="M990.418,456.1854 C992.07,455.5404 992.957,454.7754 992.957,453.9684 C992.957,451.9144 987.477,450.2614 980.787,450.2614 C974.098,450.2614 968.576,451.9144 968.576,453.9684 C968.576,454.7754 969.544,455.6214 971.115,456.1854 C973.332,455.2984 976.838,454.7754 980.746,454.7754 C984.695,454.7344 988.201,455.2984 990.418,456.1854" fill="#2D88CB"></path>
      <polygon fill="#0078D4" points="974.545 491.808 1009.04 491.808 1009.04 465.251 974.545 465.251"></polygon>
      <polygon fill="#50E6FF" points="974.545 468.116 1009.04 468.116 1009.04 464.529 974.545 464.529"></polygon>
      <path d="M995.8203,475.7303 L995.8203,473.1913 L979.9823,473.1913 L979.9823,484.6353 L986.2693,484.6353 L990.1373,488.6263 C990.2183,488.7063 990.4203,488.6263 990.3803,488.4643 L989.8553,484.5953 L991.8303,484.5953 C991.3463,483.7093 991.0643,482.7023 991.0643,481.6543 C991.1043,478.7523 993.1203,476.3343 995.8203,475.7303" fill="#50E6FF"></path>
      <path d="M998.3594,476.7362 L998.3594,476.2942 C998.0374,476.2132 997.6344,476.2132 997.2314,476.2132 C994.2094,476.2132 991.6704,478.6712 991.6704,481.7742 C991.6704,484.8772 994.1294,487.3352 997.2314,487.3352 C997.7964,487.3352 998.4004,487.2552 998.9234,487.0522 L996.1034,484.3122 L996.9094,482.8222 L998.4004,482.8222 C998.9634,482.8222 999.4484,482.3382 999.4484,481.7742 C999.4484,481.2102 998.9634,480.7262 998.4004,480.7262 L993.7254,480.7262 L996.1434,478.0662 L996.1434,479.2752 L998.3594,479.2752 C999.7704,479.2752 1000.8584,480.4042 1000.8584,481.7742 C1000.8584,483.1442 999.7294,484.2722 998.3594,484.2722 L1000.3754,486.2472 C1001.7854,485.2392 1002.6714,483.5882 1002.6714,481.7742 C1002.6714,480.2432 1002.0264,478.8322 1001.0194,477.8652 L999.3274,477.8652 C998.8024,477.7442 998.3594,477.3002 998.3594,476.7362" fill="#50E6FF"></path>
      <path d="M999.7266,476.7772 C999.5656,476.7772 999.4846,476.7372 999.4446,476.6162 C999.4046,476.5762 999.4046,476.5362 999.4046,476.4152 C999.4046,476.2142 999.5656,476.0922 999.7266,476.0922 C999.9276,476.0922 1000.0486,476.2542 1000.0486,476.4152 C1000.0486,476.5762 999.9276,476.7372 999.7266,476.7772 L999.7266,476.7772 Z M1003.9166,471.1352 L1000.9756,474.0782 L999.4446,474.0782 C999.1626,474.0782 998.9196,474.3192 998.9196,474.6012 L998.9196,476.3352 L998.9196,476.6572 C998.9196,476.9382 999.1626,477.1802 999.4446,477.1802 L1000.6536,477.1802 L1001.4586,477.1802 C1001.7416,477.1802 1001.9826,476.9382 1001.9826,476.6572 L1001.9826,474.7222 L1001.9826,474.6822 L1002.3056,474.6822 L1002.7896,474.1982 L1002.7896,473.6342 L1002.9506,473.4732 L1003.5146,473.4732 L1003.8366,473.1512 L1003.8366,472.5062 L1004.2806,472.0622 L1004.6826,472.0622 L1004.6826,471.0952 L1003.9166,471.0952 L1003.9166,471.1352 Z" fill="#50E6FF"></path>
      <path d="M999.7256,476.7782 C999.6856,476.7382 999.5246,476.6982 999.4436,476.6172 C999.4846,476.6982 999.5646,476.7782 999.7256,476.7782" fill="#50E6FF"></path>
      <path d="M193.833,335.2626 C205.696,335.2626 215.313,325.5506 215.313,313.5716 C215.313,301.5906 205.696,291.8796 193.833,291.8796 C181.97,291.8796 172.353,301.5906 172.353,313.5716 C172.353,325.5506 181.97,335.2626 193.833,335.2626" fill="#FFFFFF"></path>
      <path d="M179.7207,307.7792 C180.8787,307.3582 182.1427,307.2532 183.3007,307.5692 C183.5117,307.2532 183.8277,307.0422 184.0377,306.7262 C186.0387,304.6212 188.1447,302.8302 190.0397,301.5672 C187.7237,299.1452 185.7227,296.7232 184.2487,294.1962 C182.9857,294.8282 181.7217,295.5642 180.5637,296.4072 C179.7207,297.1442 178.9847,297.7762 178.2467,298.6182 C177.9307,300.3032 177.8247,303.6732 179.7207,307.7792" fill="#59B3D8"></path>
      <path d="M193.0928,299.6717 C198.9888,296.5127 204.1488,296.5127 207.5188,296.9347 C203.6218,293.6697 198.6728,291.9847 193.7248,291.9847 C191.5128,291.9847 189.3018,292.3007 187.0908,293.0377 C189.0908,295.3547 191.0918,297.5667 193.0928,299.6717" fill="#59B3D8"></path>
      <path d="M176.7725,317.8876 C174.9825,315.4656 174.9825,312.3076 176.7725,309.9906 C175.2985,306.4096 175.4045,303.4616 175.9305,301.3566 C170.9815,308.6216 170.7705,318.4146 176.0365,325.8906 C176.1415,323.6796 176.4575,321.1526 177.2995,318.4146 C177.0885,318.3096 176.9835,318.0986 176.7725,317.8876" fill="#59B3D8"></path>
      <path d="M197.0947,303.7782 C199.6207,306.3042 202.0427,308.6212 204.2547,310.5162 C206.2547,309.3582 208.7827,309.8842 210.2567,311.6742 C211.3097,313.0442 211.4147,314.7282 210.8887,316.0972 C212.5737,317.4662 213.7317,318.3082 214.5737,318.9402 C216.2587,312.7282 215.1007,305.7782 210.8887,300.3022 C210.7827,300.1972 210.6777,300.0922 210.6777,299.9872 C210.2567,300.0922 204.7817,299.6712 197.0947,303.7782" fill="#59B3D8"></path>
      <path d="M209.4141,318.3075 C207.4131,319.8875 204.4651,319.4665 202.8861,317.4655 C201.8321,315.9915 201.7271,314.2015 202.3591,312.6215 C199.6211,310.5155 196.7781,308.0935 194.0401,305.6715 L193.8301,305.4615 L194.0401,305.6715 C192.2501,306.8295 190.3551,308.4105 188.3541,310.2005 L187.6171,310.9375 C188.6701,313.0425 188.5641,315.5705 187.3021,317.4655 C187.7231,317.7815 188.0381,318.0975 188.4601,318.4125 C190.4601,319.9935 192.4611,321.2565 194.2511,322.3095 C196.1461,321.1515 198.5681,321.4665 199.9371,323.2565 C200.3581,323.7835 200.5691,324.4145 200.6741,324.9415 C206.0441,326.5215 209.9401,325.9945 211.3101,325.6785 C212.3621,324.2045 213.1001,322.6245 213.7311,320.9405 C212.8891,320.4135 211.5191,319.4665 209.4141,317.9925 C209.6251,318.0975 209.5191,318.2035 209.4141,318.3075" fill="#59B3D8"></path>
      <path d="M199.4131,329.3641 C197.5171,330.8391 194.8861,330.4171 193.4111,328.5221 C192.7791,327.5741 192.4641,326.5211 192.5681,325.4681 C190.4631,324.4151 188.3561,323.1511 186.2511,321.4671 C185.6191,320.9401 185.0931,320.5191 184.4611,319.9931 C183.5131,320.4141 182.4601,320.5191 181.4071,320.5191 C179.9331,324.4151 179.7231,327.9961 179.9331,330.3121 C183.8291,333.5761 188.7781,335.2611 193.7271,335.2611 C198.3601,335.2611 202.8881,333.7871 206.7841,330.8391 C207.4161,330.3121 208.0481,329.7861 208.6801,329.2591 C206.4681,329.2591 203.6251,329.1541 200.3611,328.4171 C200.1501,328.6281 199.8341,329.0491 199.4131,329.3641" fill="#59B3D8"></path>
      <path d="M699.208,317.8553 C711.071,317.8553 720.688,308.1433 720.688,296.1643 C720.688,284.1833 711.071,274.4713 699.208,274.4713 C687.344,274.4713 677.727,284.1833 677.727,296.1643 C677.727,308.1433 687.344,317.8553 699.208,317.8553" fill="#FFFFFF"></path>
      <path d="M685.0957,290.3719 C686.2537,289.9509 687.5177,289.8459 688.6757,290.1609 C688.8867,289.8459 689.2017,289.6349 689.4127,289.3189 C691.4127,287.2129 693.5197,285.4229 695.4147,284.1589 C693.0987,281.7369 691.0977,279.3149 689.6227,276.7879 C688.3597,277.4199 687.0967,278.1569 685.9377,278.9999 C685.0957,279.7369 684.3587,280.3689 683.6207,281.2109 C683.3057,282.8949 683.1997,286.2659 685.0957,290.3719" fill="#59B3D8"></path>
      <path d="M698.4668,282.2645 C704.3628,279.1055 709.5238,279.1055 712.8928,279.5265 C708.9968,276.2625 704.0478,274.5775 699.0988,274.5775 C696.8878,274.5775 694.6758,274.8935 692.4648,275.6305 C694.4658,277.9475 696.4658,280.1585 698.4668,282.2645" fill="#59B3D8"></path>
      <path d="M682.1475,300.4803 C680.3575,298.0583 680.3575,294.8993 682.1475,292.5833 C680.6725,289.0023 680.7785,286.0543 681.3045,283.9493 C676.3565,291.2133 676.1455,301.0063 681.4105,308.4833 C681.5155,306.2713 681.8325,303.7453 682.6735,301.0063 C682.4625,300.9013 682.3585,300.6913 682.1475,300.4803" fill="#59B3D8"></path>
      <path d="M702.4687,286.37 C704.9957,288.897 707.4177,291.214 709.6287,293.109 C711.6297,291.951 714.1567,292.477 715.6307,294.267 C716.6847,295.637 716.7887,297.321 716.2627,298.69 C717.9477,300.059 719.1057,300.901 719.9477,301.533 C721.6327,295.32 720.4747,288.371 716.2627,282.895 C716.1567,282.79 716.0527,282.684 716.0527,282.579 C715.6307,282.684 710.1557,282.264 702.4687,286.37" fill="#59B3D8"></path>
      <path d="M714.7881,300.9002 C712.7881,302.4802 709.8401,302.0582 708.2601,300.0582 C707.2071,298.5842 707.1011,296.7942 707.7331,295.2142 C704.9961,293.1082 702.1521,290.6862 699.4151,288.2642 L699.2041,288.0532 L699.4151,288.2642 C697.6251,289.4222 695.7291,291.0032 693.7281,292.7932 L692.9921,293.5292 C694.0451,295.6352 693.9391,298.1632 692.6761,300.0582 C693.0971,300.3742 693.4131,300.6892 693.8341,301.0052 C695.8351,302.5852 697.8351,303.8482 699.6261,304.9022 C701.5201,303.7432 703.9421,304.0592 705.3111,305.8492 C705.7321,306.3762 705.9431,307.0072 706.0491,307.5342 C711.4191,309.1142 715.3151,308.5872 716.6841,308.2712 C717.7371,306.7962 718.4741,305.2172 719.1051,303.5332 C718.2641,303.0062 716.8941,302.0582 714.7881,300.5852 C714.9991,300.6892 714.8931,300.7952 714.7881,300.9002" fill="#59B3D8"></path>
      <path d="M704.7881,311.9569 C702.8921,313.4309 700.2601,313.0099 698.7861,311.1139 C698.1541,310.1669 697.8381,309.1139 697.9431,308.0609 C695.8371,307.0079 693.7311,305.7439 691.6251,304.0599 C690.9931,303.5329 690.4671,303.1119 689.8351,302.5849 C688.8881,303.0069 687.8351,303.1119 686.7811,303.1119 C685.3081,307.0079 685.0971,310.5879 685.3081,312.9039 C689.2031,316.1689 694.1521,317.8529 699.1011,317.8529 C703.7341,317.8529 708.2631,316.3799 712.1581,313.4309 L714.0541,311.8519 C711.8431,311.8519 709.0001,311.7459 705.7351,311.0099 C705.5241,311.2199 705.2091,311.6409 704.7881,311.9569" fill="#59B3D8"></path>
      <path d="M987.75,317.8553 C999.614,317.8553 1009.231,308.1433 1009.231,296.1643 C1009.231,284.1833 999.614,274.4713 987.75,274.4713 C975.887,274.4713 966.27,284.1833 966.27,296.1643 C966.27,308.1433 975.887,317.8553 987.75,317.8553" fill="#FFFFFF"></path>
      <path d="M973.6387,290.3719 C974.7967,289.9509 976.0607,289.8459 977.2187,290.1609 C977.4287,289.8459 977.7447,289.6349 977.9547,289.3189 C979.9557,287.2129 982.0627,285.4229 983.9567,284.1589 C981.6407,281.7369 979.6407,279.3149 978.1657,276.7879 C976.9027,277.4199 975.6387,278.1569 974.4807,278.9999 C973.6387,279.7369 972.9017,280.3689 972.1637,281.2109 C971.8487,282.8949 971.7427,286.2659 973.6387,290.3719" fill="#59B3D8"></path>
      <path d="M987.0098,282.2645 C992.9058,279.1055 998.0658,279.1055 1001.4358,279.5265 C997.5388,276.2625 992.5908,274.5775 987.6418,274.5775 C985.4298,274.5775 983.2188,274.8935 981.0078,275.6305 C983.0078,277.9475 985.0088,280.1585 987.0098,282.2645" fill="#59B3D8"></path>
      <path d="M970.6904,300.4803 C968.9004,298.0583 968.9004,294.8993 970.6904,292.5833 C969.2154,289.0023 969.3214,286.0543 969.8474,283.9493 C964.8984,291.2133 964.6884,301.0063 969.9534,308.4833 C970.0584,306.2713 970.3744,303.7453 971.2164,301.0063 C971.0054,300.9013 970.9004,300.6913 970.6904,300.4803" fill="#59B3D8"></path>
      <path d="M991.0117,286.37 C993.5387,288.897 995.9607,291.214 998.1717,293.109 C1000.1727,291.951 1002.6997,292.477 1004.1737,294.267 C1005.2267,295.637 1005.3317,297.321 1004.8057,298.69 C1006.4907,300.059 1007.6487,300.901 1008.4907,301.533 C1010.1757,295.32 1009.0177,288.371 1004.8057,282.895 C1004.6997,282.79 1004.5947,282.684 1004.5947,282.579 C1004.1737,282.684 998.6987,282.264 991.0117,286.37" fill="#59B3D8"></path>
      <path d="M1003.3311,300.9002 C1001.3301,302.4802 998.3821,302.0582 996.8031,300.0582 C995.7501,298.5842 995.6441,296.7942 996.2761,295.2142 C993.5381,293.1082 990.6951,290.6862 987.9581,288.2642 L987.7471,288.0532 L987.9581,288.2642 C986.1681,289.4222 984.2721,291.0032 982.2711,292.7932 C982.0601,293.0032 981.7451,293.3192 981.5341,293.5292 C982.5881,295.6352 982.4821,298.1632 981.2191,300.0582 C981.6401,300.3742 981.9561,300.6892 982.3771,301.0052 C984.3781,302.5852 986.3781,303.8482 988.1681,304.9022 C990.0631,303.7432 992.4851,304.0592 993.8541,305.8492 C994.2751,306.3762 994.4861,307.0072 994.5921,307.5342 C999.9621,309.1142 1003.8571,308.5872 1005.2271,308.2712 C1006.2791,306.7962 1007.0171,305.2172 1007.6481,303.5332 C1006.8061,303.0062 1005.4371,302.0582 1003.3311,300.5852 C1003.5421,300.6892 1003.4361,300.7952 1003.3311,300.9002" fill="#59B3D8"></path>
      <path d="M993.3301,311.9569 C991.4341,313.4309 988.8031,313.0099 987.3281,311.1139 C986.6961,310.1669 986.3811,309.1139 986.4861,308.0609 C984.3801,307.0079 982.2741,305.7439 980.1681,304.0599 C979.5361,303.5329 979.0101,303.1119 978.3781,302.5849 C977.4311,303.0069 976.3771,303.1119 975.3241,303.1119 C973.8511,307.0079 973.6401,310.5879 973.8511,312.9039 C977.7461,316.1689 982.6951,317.8529 987.6441,317.8529 C992.2771,317.8529 996.8061,316.3799 1000.7011,313.4309 L1002.5971,311.8519 C1000.3861,311.8519 997.5421,311.7459 994.2781,311.0099 C994.0671,311.2199 993.7521,311.6409 993.3301,311.9569" fill="#59B3D8"></path>
      <polygon fill="#EBEBEB" points="466.85 103.762 504.259 103.762 504.259 77.037 466.85 77.037"></polygon>
      <path d="M492.1553,106.4393 L491.1313,106.4393 L480.9923,106.4393 L480.4633,106.4393 C481.8683,111.4383 479.9803,112.1553 471.7133,112.1553 L471.7133,114.7733 L482.2273,114.7733 L489.9043,114.7733 L499.8273,114.7733 L499.8273,112.1553 C491.5593,112.1553 490.7483,111.4413 492.1553,106.4393" fill="#7A7A7A"></path>
      <path d="M504.6748,74.7733 L504.6928,74.7733 L504.6748,74.7733 L466.6108,74.7733 C466.0538,74.7733 465.5498,74.9973 465.1508,75.3453 C465.5498,74.9973 466.0528,74.7733 466.6098,74.7733 L504.6748,74.7733 Z" fill="#707070"></path>
      <path d="M504.6992,74.7752 L500.7862,78.1072 L503.9142,78.1072 L503.9142,103.1062 L471.4292,103.1062 L467.5132,106.4402 L504.6732,106.4402 C505.9642,106.4402 507.2702,105.2882 507.2702,103.9932 L507.2702,77.2402 C507.2702,75.9432 505.9812,74.7912 504.6992,74.7752" fill="#3E3E3E"></path>
      <path d="M464.2725,103.995 L464.2725,77.241 C464.2725,76.499 464.6175,75.81 465.1485,75.348 C464.6175,75.81 464.2715,76.499 464.2715,77.242 L464.2715,103.995 C464.2715,105.29 465.3145,106.442 466.6075,106.442 L467.5135,106.442 L467.5145,106.441 L466.6085,106.441 C465.3155,106.441 464.2725,105.289 464.2725,103.995" fill="#FFFFFF"></path>
      <path d="M467.5293,103.1053 L467.5293,78.1073 L500.7863,78.1073 L504.6993,74.7743 C504.6953,74.7743 504.6933,74.7733 504.6893,74.7733 L504.6733,74.7733 L466.6073,74.7733 C466.0513,74.7733 465.5483,74.9973 465.1473,75.3453 C464.6173,75.8083 464.2713,76.4993 464.2713,77.2403 L464.2713,103.9933 C464.2713,105.2873 465.3143,106.4403 466.6073,106.4403 L467.5133,106.4403 L471.4293,103.1053 L467.5293,103.1053 Z" fill="#707070"></path>
      <polygon fill="#9FA0A1" points="471.717 114.772 499.83 114.772 499.83 112.154 471.717 112.154"></polygon>
      <path d="M486.3818,76.5877 C486.3818,76.9277 486.1098,77.2027 485.7718,77.2027 C485.4338,77.2027 485.1618,76.9277 485.1618,76.5877 C485.1618,76.2467 485.4338,75.9727 485.7718,75.9727 C486.1098,75.9727 486.3818,76.2467 486.3818,76.5877" fill="#B7D332"></path>
      <polygon fill="#0078D4" points="488.111 85.522 500.849 85.522 500.849 84.656 488.111 84.656"></polygon>
      <polygon fill="#0078D4" points="488.111 90.311 500.849 90.311 500.849 89.445 488.111 89.445"></polygon>
      <polygon fill="#0078D4" points="488.111 95.1 500.849 95.1 500.849 94.234 488.111 94.234"></polygon>
      <path d="M470.4863,89.8417 C470.4863,93.8097 473.6763,97.0267 477.6133,97.0267 C479.2993,97.0267 480.8433,96.4337 482.0643,95.4477 L477.6133,89.8417 L470.4863,89.8417 Z" fill="#3C3C41"></path>
      <path d="M477.6133,89.8417 L482.0643,84.2357 C480.8433,83.2507 479.2993,82.6577 477.6133,82.6577 C473.6763,82.6577 470.4863,85.8737 470.4863,89.8417 L477.6133,89.8417 Z" fill="#75757A"></path>
      <path d="M482.0537,84.2362 L477.6037,89.8412 L477.6047,89.8422 L482.0537,95.4492 C483.6847,94.1322 484.7317,92.1122 484.7317,89.8412 C484.7317,87.5732 483.6847,85.5522 482.0537,84.2362" fill="#50E6FF"></path>
      <path d="M871.4023,91.4647 L853.6093,73.6367 C852.8203,72.8457 851.7693,72.4057 850.7163,72.4057 C849.6653,72.4057 848.6133,72.8457 847.8253,73.6367 L830.0323,91.4647 C829.2433,92.2547 828.8043,93.3087 828.8043,94.3617 C828.8043,95.4167 829.2433,96.4707 830.0323,97.2607 L847.9123,115.1777 C848.7023,115.9677 849.6653,116.4057 850.8043,116.4057 C851.8563,116.4057 852.9093,115.9677 853.6973,115.1777 L871.5783,97.2607 C872.3663,96.4707 872.8043,95.5037 872.8043,94.3617 C872.6303,93.3087 872.1913,92.2547 871.4023,91.4647 L871.4023,91.4647 Z M850.7163,76.6217 L856.5023,82.4177 L852.4703,82.4177 L852.4703,90.8497 L849.0513,90.8497 L849.0513,82.4177 L844.9323,82.4177 L850.7163,76.6217 Z M834.4143,96.4707 L834.4143,93.0447 L842.3023,93.0447 L842.3023,88.9167 L848.0883,94.7137 L842.3023,100.5107 L842.3023,96.4707 L834.4143,96.4707 Z M850.7163,112.8057 L844.9323,107.0097 L848.9643,107.0097 L848.9643,98.7537 L852.3823,98.7537 L852.3823,107.0097 L856.5023,107.0097 L850.7163,112.8057 Z M867.0203,96.4707 L859.2183,96.4707 L859.2183,100.5987 L853.4333,94.8027 L859.2183,89.0047 L859.2183,93.0447 L867.0203,93.0447 L867.0203,96.4707 Z" fill="#0072C6"></path>
      <path d="M152.0332,485.037 L234.1712,485.037" stroke="#185A97" stroke-width="1.5" stroke-linecap="round"></path>
      <polygon fill="#185A97" points="233.0166 481.6825 238.8256 485.0365 233.0166 488.3905"></polygon>
      <path d="M344.8447,485.037 L645.7837,485.037" stroke="#185A97" stroke-width="1.5" stroke-linecap="round"></path>
      <polygon fill="#185A97" points="644.6299 481.6825 650.4399 485.0365 644.6299 488.3905"></polygon>
      <path d="M756.499,485.037 L932.282,485.037" stroke="#185A97" stroke-width="1.5" stroke-linecap="round"></path>
      <polygon fill="#185A97" points="931.1279 481.6825 936.9369 485.0365 931.1279 488.3905"></polygon>
      <polyline stroke="#156AB3" stroke-linecap="round" points="1047.9795 688.8456 1047.9795 689.3456 1047.4795 689.3456"></polyline>
      <path d="M1044.4766,689.3456 L925.8636,689.3456" stroke="#156AB3" stroke-linecap="round" stroke-dasharray="1.001,3.003"></path>
      <polyline stroke="#156AB3" stroke-linecap="round" points="924.3623 689.3456 923.8623 689.3456 923.8623 688.8456"></polyline>
      <path d="M923.8623,685.8543 L923.8623,196.8223" stroke="#156AB3" stroke-linecap="round" stroke-dasharray="0.997,2.991"></path>
      <polyline stroke="#156AB3" stroke-linecap="round" points="923.8623 195.326 923.8623 194.826 924.3623 194.826"></polyline>
      <path d="M927.3643,194.826 L1045.9783,194.826" stroke="#156AB3" stroke-linecap="round" stroke-dasharray="1.001,3.003"></path>
      <polyline stroke="#156AB3" stroke-linecap="round" points="1047.4795 194.826 1047.9795 194.826 1047.9795 195.326"></polyline>
      <path d="M1047.9795,198.3172 L1047.9795,687.3502" stroke="#156AB3" stroke-linecap="round" stroke-dasharray="0.997,2.991"></path>
      <polyline stroke="#156AB3" stroke-linecap="round" points="903.4746 688.8456 903.4746 689.3456 902.9746 689.3456"></polyline>
      <path d="M899.9717,689.3456 L781.3587,689.3456" stroke="#156AB3" stroke-linecap="round" stroke-dasharray="1.001,3.003"></path>
      <polyline stroke="#156AB3" stroke-linecap="round" points="779.8574 689.3456 779.3574 689.3456 779.3574 688.8456"></polyline>
      <path d="M779.3574,685.8543 L779.3574,196.8223" stroke="#156AB3" stroke-linecap="round" stroke-dasharray="0.997,2.991"></path>
      <polyline stroke="#156AB3" stroke-linecap="round" points="779.3574 195.326 779.3574 194.826 779.8574 194.826"></polyline>
      <path d="M782.8604,194.826 L901.4734,194.826" stroke="#156AB3" stroke-linecap="round" stroke-dasharray="1.001,3.003"></path>
      <polyline stroke="#156AB3" stroke-linecap="round" points="902.9746 194.826 903.4746 194.826 903.4746 195.326"></polyline>
      <path d="M903.4746,198.3172 L903.4746,687.3502" stroke="#156AB3" stroke-linecap="round" stroke-dasharray="0.997,2.991"></path>
      <polyline stroke="#156AB3" stroke-linecap="round" points="761.4795 688.8456 761.4795 689.3456 760.9795 689.3456"></polyline>
      <path d="M757.9756,689.3456 L639.3626,689.3456" stroke="#156AB3" stroke-linecap="round" stroke-dasharray="1.001,3.003"></path>
      <polyline stroke="#156AB3" stroke-linecap="round" points="637.8613 689.3456 637.3613 689.3456 637.3613 688.8456"></polyline>
      <path d="M637.3613,685.8543 L637.3613,196.8223" stroke="#156AB3" stroke-linecap="round" stroke-dasharray="0.997,2.991"></path>
      <polyline stroke="#156AB3" stroke-linecap="round" points="637.3613 195.326 637.3613 194.826 637.8613 194.826"></polyline>
      <path d="M640.8643,194.826 L759.4773,194.826" stroke="#156AB3" stroke-linecap="round" stroke-dasharray="1.001,3.003"></path>
      <polyline stroke="#156AB3" stroke-linecap="round" points="760.9795 194.826 761.4795 194.826 761.4795 195.326"></polyline>
      <path d="M761.4795,198.3172 L761.4795,687.3502" stroke="#156AB3" stroke-linecap="round" stroke-dasharray="0.997,2.991"></path>
      <polygon stroke="#156AB3" points="351.0166 705.12 30.3776 705.12 30.3776 121.212 351.0166 121.212 351.0166 392.34 618.4806 392.34 618.4806 9.99 1071.8906 9.99 1071.8906 456.782 1071.8906 709.196 618.4806 708.265 618.4806 620.245 351.0166 620.245"></polygon>
      <path d="M254.7979,324.2684 L794.0769,125.5914" stroke="#CBCBCB" stroke-width="1.5" stroke-linecap="round"></path>
      <polygon fill="#CBCBCB" points="254.3057 320.8085 250.4017 326.2625 257.0767 326.9175"></polygon>
      <path d="M698.4453,260.4784 L795.6813,154.9344" stroke="#CBCBCB" stroke-width="1.5" stroke-linecap="round"></path>
      <polygon fill="#CBCBCB" points="696.4629 257.6004 695.3999 264.2234 701.6669 261.8334"></polygon>
      <path d="M992.6377,260.4784 L895.4027,154.9344" stroke="#CBCBCB" stroke-width="1.5" stroke-linecap="round"></path>
      <polygon fill="#CBCBCB" points="994.6211 257.6004 995.6841 264.2234 989.4171 261.8334"></polygon>
      <path d="M703.5586,426.4501 L786.1716,359.7311" stroke="#CBCBCB" stroke-width="1.5" stroke-linecap="round"></path>
      <polygon fill="#CBCBCB" points="702.0508 423.2967 699.9628 429.6717 706.5278 428.2927"></polygon>
      <path d="M977.6943,426.4501 L895.0813,359.7311" stroke="#CBCBCB" stroke-width="1.5" stroke-linecap="round"></path>
      <polygon fill="#CBCBCB" points="979.2021 423.2967 981.2901 429.6717 974.7251 428.2927"></polygon>
      <path d="M121.4639,547.9149 L160.5599,580.5949" stroke="#CBCBCB" stroke-width="1.5" stroke-linecap="round"></path>
      <polygon fill="#CBCBCB" points="119.9561 551.0682 117.8681 544.6932 124.4341 546.0722"></polygon>
      <path d="M278.8379,547.9149 L239.7419,580.5949" stroke="#CBCBCB" stroke-width="1.5" stroke-linecap="round"></path>
      <polygon fill="#CBCBCB" points="280.3457 551.0682 282.4337 544.6932 275.8677 546.0722"></polygon>
      <path d="M535.5088,104.2977 L792.1038,104.2977" stroke="#505055" stroke-width="1.5"></path>
      <polygon fill="#505055" points="790.9482 100.9432 796.7582 104.2972 790.9482 107.6522"></polygon>
      <a class="architecture-tooltip-trigger" href="#">
        <circle fill="#A5CE00" cx="385.5" cy="557.5" r="14.5"></circle>
        <text transform="translate(381.49141 563)" font-size="15" fill="#303030" font-family="SegoeUI, Segoe UI">1</text>
      </a>
      <a class="architecture-tooltip-trigger" href="#">
        <circle fill="#A5CE00" cx="849.5" cy="164.5" r="14.5"></circle>
        <text transform="translate(845.49141 169)" font-size="15" fill="#303030" font-family="SegoeUI, Segoe UI">2</text>
      </a>
      <a class="architecture-tooltip-trigger" href="#">
        <circle fill="#A5CE00" cx="385.5" cy="506.5" r="14.5"></circle>
        <text transform="translate(382.49141 511)" font-size="15" fill="#303030" font-family="SegoeUI, Segoe UI">3</text>
      </a>
      <a class="architecture-tooltip-trigger" href="#">
        <circle fill="#A5CE00" cx="848.5" cy="508.5" r="14.5"></circle>
        <text transform="translate(844.49141 513)" font-size="15" fill="#303030" font-family="SegoeUI, Segoe UI">4</text>
      </a>
      <path d="M971.5916,603.7505 C970.8376,603.7505 969.9996,602.9945 969.9996,602.1555 L969.9996,602.1565 C969.9996,602.9955 970.5856,603.7505 971.5916,603.7505 L1010.2866,603.7505 C1011.1246,603.7505 1011.8786,603.1635 1011.8786,602.1565 L1011.8786,574.3795 L1000.5996,574.3795 L973.3506,603.7505 L971.5916,603.7505 Z" fill="#A0A1A2"></path>
      <path d="M971.5916,568.0005 C970.5856,568.0005 969.9996,568.7555 969.9996,569.5945 C969.9996,568.7555 970.8376,568.0005 971.5916,568.0005" fill="#7A7A7A"></path>
      <path d="M1011.8787,574.3775 L1011.8787,569.5945 C1011.8787,568.7555 1011.2927,568.0005 1010.2867,568.0005 L1006.5187,568.0005 L1000.6017,574.3775 L1011.8787,574.3775 Z" fill="#7A7A7A"></path>
      <polygon fill="#FFFFFF" points="969.9998 574.3775 969.9998 574.3795 1000.5998 574.3795 1000.6018 574.3775"></polygon>
      <path d="M969.9998,575.8042 L969.9998,578.5742 L969.9998,602.1562 C969.9998,602.9942 970.8378,603.7502 971.5918,603.7502 L973.3508,603.7502 L1000.5998,574.3792 L969.9998,574.3792 L969.9998,575.8042 Z" fill="#A0A1A2"></path>
      <path d="M969.9998,575.8042 L969.9998,578.5742 L969.9998,602.1562 C969.9998,602.9942 970.8378,603.7502 971.5918,603.7502 L973.3508,603.7502 L1000.5998,574.3792 L969.9998,574.3792 L969.9998,575.8042 Z" fill="#B3B4B5"></path>
      <path d="M1006.5183,568.0005 L971.5913,568.0005 C970.8373,568.0005 969.9993,568.7555 969.9993,569.5945 L969.9993,574.3775 L1000.6013,574.3775 L1006.5183,568.0005 Z" fill="#7A7A7A"></path>
      <path d="M1006.5183,568.0005 L971.5913,568.0005 C970.8373,568.0005 969.9993,568.7555 969.9993,569.5945 L969.9993,574.3775 L1000.6013,574.3775 L1006.5183,568.0005 Z" fill="#959595"></path>
      <polygon fill="#FFFFFF" points="985.746 583.5239 996.3 583.5239 996.3 577.1459 985.746 577.1459"></polygon>
      <polygon fill="#FCD116" points="985.746 592.1689 996.3 592.1689 996.3 585.7909 985.746 585.7909"></polygon>
      <polygon fill="#FCD116" points="998.308 592.1689 1008.862 592.1689 1008.862 585.7909 998.308 585.7909"></polygon>
      <polygon fill="#FFFFFF" points="998.308 583.5239 1008.862 583.5239 1008.862 577.1459 998.308 577.1459"></polygon>
      <polygon fill="#FFFFFF" points="973.183 583.5239 983.737 583.5239 983.737 577.1459 973.183 577.1459"></polygon>
      <polygon fill="#FFFFFF" points="973.183 592.1689 983.737 592.1689 983.737 585.7909 973.183 585.7909"></polygon>
      <polygon fill="#FCD116" points="973.183 600.7289 983.737 600.7289 983.737 594.3509 973.183 594.3509"></polygon>
      <polygon fill="#FCD116" points="985.746 600.7289 996.3 600.7289 996.3 594.3509 985.746 594.3509"></polygon>
      <polygon fill="#FCD116" points="998.308 600.7289 1008.862 600.7289 1008.862 594.3509 998.308 594.3509"></polygon>
      <path d="M683.5923,603.7505 C682.8383,603.7505 682.0003,602.9945 682.0003,602.1555 L682.0003,602.1565 C682.0003,602.9955 682.5863,603.7505 683.5923,603.7505 L722.2873,603.7505 C723.1253,603.7505 723.8793,603.1635 723.8793,602.1565 L723.8793,574.3795 L712.6003,574.3795 L685.3513,603.7505 L683.5923,603.7505 Z" fill="#A0A1A2"></path>
      <path d="M683.5923,568.0005 C682.5863,568.0005 682.0003,568.7555 682.0003,569.5945 C682.0003,568.7555 682.8383,568.0005 683.5923,568.0005" fill="#7A7A7A"></path>
      <path d="M723.8794,574.3775 L723.8794,569.5945 C723.8794,568.7555 723.2934,568.0005 722.2874,568.0005 L718.5194,568.0005 L712.6024,574.3775 L723.8794,574.3775 Z" fill="#7A7A7A"></path>
      <polygon fill="#FFFFFF" points="682.0005 574.3775 682.0005 574.3795 712.6005 574.3795 712.6025 574.3775"></polygon>
      <path d="M682.0005,575.8042 L682.0005,578.5742 L682.0005,602.1562 C682.0005,602.9942 682.8385,603.7502 683.5925,603.7502 L685.3515,603.7502 L712.6005,574.3792 L682.0005,574.3792 L682.0005,575.8042 Z" fill="#A0A1A2"></path>
      <path d="M682.0005,575.8042 L682.0005,578.5742 L682.0005,602.1562 C682.0005,602.9942 682.8385,603.7502 683.5925,603.7502 L685.3515,603.7502 L712.6005,574.3792 L682.0005,574.3792 L682.0005,575.8042 Z" fill="#B3B4B5"></path>
      <path d="M718.519,568.0005 L683.592,568.0005 C682.838,568.0005 682,568.7555 682,569.5945 L682,574.3775 L712.602,574.3775 L718.519,568.0005 Z" fill="#7A7A7A"></path>
      <path d="M718.519,568.0005 L683.592,568.0005 C682.838,568.0005 682,568.7555 682,569.5945 L682,574.3775 L712.602,574.3775 L718.519,568.0005 Z" fill="#959595"></path>
      <polygon fill="#FFFFFF" points="697.7467 583.5239 708.3007 583.5239 708.3007 577.1459 697.7467 577.1459"></polygon>
      <polygon fill="#FCD116" points="697.7467 592.1689 708.3007 592.1689 708.3007 585.7909 697.7467 585.7909"></polygon>
      <polygon fill="#FCD116" points="710.3087 592.1689 720.8627 592.1689 720.8627 585.7909 710.3087 585.7909"></polygon>
      <polygon fill="#FFFFFF" points="710.3087 583.5239 720.8627 583.5239 720.8627 577.1459 710.3087 577.1459"></polygon>
      <polygon fill="#FFFFFF" points="685.1837 583.5239 695.7377 583.5239 695.7377 577.1459 685.1837 577.1459"></polygon>
      <polygon fill="#FFFFFF" points="685.1837 592.1689 695.7377 592.1689 695.7377 585.7909 685.1837 585.7909"></polygon>
      <polygon fill="#FCD116" points="685.1837 600.7289 695.7377 600.7289 695.7377 594.3509 685.1837 594.3509"></polygon>
      <polygon fill="#FCD116" points="697.7467 600.7289 708.3007 600.7289 708.3007 594.3509 697.7467 594.3509"></polygon>
      <polygon fill="#FCD116" points="710.3087 600.7289 720.8627 600.7289 720.8627 594.3509 710.3087 594.3509"></polygon>
    </g>
  </g>
</svg>
