<?xml version="1.0" encoding="UTF-8" standalone="no"?>
<!DOCTYPE svg PUBLIC "-//W3C//DTD SVG 1.1//EN" "http://www.w3.org/Graphics/SVG/1.1/DTD/svg11.dtd">
<!-- Generated by Microsoft Visio, SVG Export ScalableMobilePostgreSQL.svg Page-1 -->
<svg xmlns="http://www.w3.org/2000/svg" xmlns:xlink="http://www.w3.org/1999/xlink" xmlns:ev="http://www.w3.org/2001/xml-events"
		xmlns:v="http://schemas.microsoft.com/visio/2003/SVGExtensions/" width="11.6929in" height="8.26378in"
		viewBox="0 0 841.89 594.992" xml:space="preserve" color-interpolation-filters="sRGB" class="st25">
	<v:documentProperties v:langID="1033" v:viewMarkup="false">
		<v:userDefs>
			<v:ud v:nameU="msvNoAutoConnect" v:val="VT0(1):26"/>
		</v:userDefs>
	</v:documentProperties>

	<style type="text/css">
	<![CDATA[
		.st1 {marker-end:url(#mrkr5-9);marker-start:url(#mrkr5-7);stroke:#737373;stroke-linecap:round;stroke-linejoin:round;stroke-width:1.5}
		.st2 {fill:#737373;fill-opacity:1;stroke:#737373;stroke-opacity:1;stroke-width:0.37313432835821}
		.st3 {fill:#92d050;stroke:none;stroke-width:0.25}
		.st4 {fill:#ffffff;font-family:Segoe UI;font-size:1.00001em}
		.st5 {fill:url(#grad7-17);stroke:none;stroke-linecap:butt;stroke-width:0.75}
		.st6 {fill:#ffffff;fill-opacity:0.6;stroke:none;stroke-linecap:butt;stroke-width:0.75}
		.st7 {fill:#f2f2f2;fill-opacity:0.55;stroke:none;stroke-linecap:butt;stroke-width:0.75}
		.st8 {fill:url(#grad0-27);stroke:none;stroke-linecap:butt;stroke-width:0.75}
		.st9 {fill:url(#grad0-35);stroke:none;stroke-linecap:butt;stroke-width:0.75}
		.st10 {fill:#f2f2f2;fill-opacity:0.7;stroke:none;stroke-linecap:butt;stroke-width:0.75}
		.st11 {fill:url(#grad0-53);stroke:none;stroke-linecap:butt;stroke-width:0.75}
		.st12 {fill:#e8e8e8;stroke:none;stroke-linecap:butt;stroke-width:0.75}
		.st13 {fill:#50e6ff;stroke:none;stroke-linecap:butt;stroke-width:0.75}
		.st14 {fill:#198ab3;stroke:none;stroke-linecap:butt;stroke-width:0.75}
		.st15 {fill:#f2f2f2;stroke:none;stroke-linecap:butt;stroke-width:0.75}
		.st16 {fill:none;stroke:none;stroke-linecap:round;stroke-linejoin:round;stroke-width:0.75}
		.st17 {fill:#000000;font-family:Segoe UI;font-size:1.00001em}
		.st18 {font-size:1em}
		.st19 {fill:url(#grad0-94);stroke:none;stroke-linecap:butt;stroke-width:0.75}
		.st20 {fill:url(#grad0-100);stroke:none;stroke-linecap:butt;stroke-width:0.75}
		.st21 {fill:#005ba1;stroke:none;stroke-linecap:butt;stroke-width:0.75}
		.st22 {fill:#5ea0ef;stroke:none;stroke-linecap:butt;stroke-width:0.75}
		.st23 {fill:#0078d4;stroke:none;stroke-linecap:butt;stroke-width:0.75}
		.st24 {fill:url(#grad0-114);stroke:none;stroke-linecap:butt;stroke-width:0.75}
		.st25 {fill:none;fill-rule:evenodd;font-size:12px;overflow:visible;stroke-linecap:square;stroke-miterlimit:3}
	]]>
	</style>

	<defs id="Patterns_And_Gradients">
		<radialGradient id="grad7-17" cx="0" cy="0" r="1.4">
			<stop offset="0.18" stop-color="#5ea0ef" stop-opacity="1"/>
			<stop offset="1" stop-color="#0078d4" stop-opacity="1"/>
		</radialGradient>
		<linearGradient id="grad0-27" x1="0" y1="0" x2="1" y2="0" gradientTransform="rotate(-90.435149452297 0.5 0.5)">
			<stop offset="0" stop-color="#cccccc" stop-opacity="1"/>
			<stop offset="1" stop-color="#fcfcfc" stop-opacity="1"/>
		</linearGradient>
		<linearGradient id="grad0-35" x1="0" y1="0" x2="1" y2="0" gradientTransform="rotate(-90 0.5 0.5)">
			<stop offset="0" stop-color="#cccccc" stop-opacity="1"/>
			<stop offset="1" stop-color="#fcfcfc" stop-opacity="1"/>
		</linearGradient>
		<linearGradient id="grad0-53" x1="0" y1="0" x2="1" y2="0" gradientTransform="rotate(-0.0087329700482809 0.5 0.5)">
			<stop offset="0" stop-color="#005ba1" stop-opacity="1"/>
			<stop offset="0.07" stop-color="#0060a9" stop-opacity="1"/>
			<stop offset="0.36" stop-color="#0071c8" stop-opacity="1"/>
			<stop offset="0.52" stop-color="#0078d4" stop-opacity="1"/>
			<stop offset="0.64" stop-color="#0074cd" stop-opacity="1"/>
			<stop offset="0.82" stop-color="#006abb" stop-opacity="1"/>
			<stop offset="1" stop-color="#005ba1" stop-opacity="1"/>
		</linearGradient>
		<linearGradient id="grad0-94" x1="0" y1="0" x2="1" y2="0" gradientTransform="rotate(-90 0.5 0.5)">
			<stop offset="0" stop-color="#0078d4" stop-opacity="1"/>
			<stop offset="0.165" stop-color="#1c84dc" stop-opacity="1"/>
			<stop offset="0.38" stop-color="#3990e4" stop-opacity="1"/>
			<stop offset="0.59" stop-color="#4d99ea" stop-opacity="1"/>
			<stop offset="0.8" stop-color="#5a9eee" stop-opacity="1"/>
			<stop offset="1" stop-color="#5ea0ef" stop-opacity="1"/>
		</linearGradient>
		<linearGradient id="grad0-100" x1="0" y1="0" x2="1" y2="0" gradientTransform="rotate(-90 0.5 0.5)">
			<stop offset="0" stop-color="#d2ebff" stop-opacity="1"/>
			<stop offset="0.995" stop-color="#f0fffd" stop-opacity="1"/>
		</linearGradient>
		<linearGradient id="grad0-114" x1="0" y1="0" x2="1" y2="0" gradientTransform="rotate(-90 0.5 0.5)">
			<stop offset="0" stop-color="#32bedd" stop-opacity="1"/>
			<stop offset="0.175" stop-color="#32caea" stop-opacity="1"/>
			<stop offset="0.41" stop-color="#32d2f2" stop-opacity="1"/>
			<stop offset="0.775" stop-color="#32d4f5" stop-opacity="1"/>
		</linearGradient>
	</defs>
	<defs id="Markers">
		<g id="lend5">
			<path d="M 2 1 L 0 0 L 1.98117 -0.993387 C 1.67173 -0.364515 1.67301 0.372641 1.98465 1.00043 " style="stroke:none"/>
		</g>
		<marker id="mrkr5-7" class="st2" v:arrowType="5" v:arrowSize="2" v:setback="4.45" refX="4.45" orient="auto"
				markerUnits="strokeWidth" overflow="visible">
			<use xlink:href="#lend5" transform="scale(2.68) "/>
		</marker>
		<marker id="mrkr5-9" class="st2" v:arrowType="5" v:arrowSize="2" v:setback="4.69" refX="-4.69" orient="auto"
				markerUnits="strokeWidth" overflow="visible">
			<use xlink:href="#lend5" transform="scale(-2.68,-2.68) "/>
		</marker>
	</defs>
	<g v:mID="0" v:index="1" v:groupContext="foregroundPage">
		<v:userDefs>
			<v:ud v:nameU="visNavType" v:val="VT0(1):26"/>
		</v:userDefs>
		<title>Page-1</title>
		<v:pageProperties v:drawingScale="0.0138889" v:pageScale="0.0138889" v:drawingUnits="29" v:shadowOffsetX="9"
				v:shadowOffsetY="-9"/>
		<v:layer v:name="Connector" v:index="0"/>
		<g id="shape40-1" v:mID="40" v:groupContext="shape" v:layerMember="0" transform="translate(280,-297.5)">
			<title>Dynamic connector</title>
			<v:userDefs>
				<v:ud v:nameU="visNavOrder" v:val="VT0(9000):26"/>
			</v:userDefs>
			<path d="M6.67 582.49 L7.03 582.49 L120.97 582.49" class="st1"/>
		</g>
		<g id="shape7-10" v:mID="7" v:groupContext="shape" transform="translate(630,-330)">
			<title>numbered label.11000</title>
			<desc>4</desc>
			<v:userDefs>
				<v:ud v:nameU="visLegendShape" v:val="VT0(2):26"/>
				<v:ud v:nameU="visLocToPar" v:val="VT7(PNT(232,-52.5)):40"/>
				<v:ud v:nameU="visVersion" v:val="VT0(11):26"/>
				<v:ud v:nameU="visIsConnected" v:prompt="" v:val="VT0(0):26"/>
				<v:ud v:nameU="visLocToPar" v:prompt="" v:val="VT7(PNT(8.7499997860346,4.5833333333333)):40"/>
				<v:ud v:nameU="visNavOrder" v:prompt="" v:val="VT0(2000):26"/>
			</v:userDefs>
			<v:textBlock v:margins="rect(0,0,0,0)"/>
			<v:textRect cx="7.42464" cy="587.604" width="22.03" height="15"/>
			<ellipse cx="7.5" cy="587.492" rx="7.5" ry="7.5" class="st3"/>
			<text x="4.19" y="591.2" class="st4" v:langID="1033"><v:paragraph v:horizAlign="1"/><v:tabList/>4</text>		</g>
		<g id="group17-13" transform="translate(418.459,-296.671)" v:mID="17" v:groupContext="group">
			<v:userDefs>
				<v:ud v:nameU="visNavOrder" v:val="VT0(4000):26"/>
			</v:userDefs>
			<title>Icon-web-41</title>
			<g id="shape18-14" v:mID="18" v:groupContext="shape" transform="translate(1.26565,1.13687E-13)">
				<title>ee75dd06-1aca-4f76-9d11-d05a284</title>
				<path d="M23.97 594.99 A17.0824 17.0824 0 0 1 3.03 567.99 L3.21 567.87 A17.0762 17.0762 0 0 1 23.97 594.99 Z"
						class="st5"/>
			</g>
			<g id="shape19-18" v:mID="19" v:groupContext="shape" transform="translate(7.41308,-17.0561)">
				<title>Sheet.19</title>
				<path d="M2.71 594.99 A26.1165 26.1165 0 0 1 20.61 587.8 A17.0159 17.0159 -180 0 0 17.62 584.91 A28.8085 28.8085
							 -180 0 0 8.2 587.12 A25.1924 25.1924 -180 0 0 0 592.78 A5.54474 5.54474 0 0 1 2.71 594.99 Z"
						class="st6"/>
			</g>
			<g id="shape20-20" v:mID="20" v:groupContext="shape" transform="translate(-3.09752E-14,-1.76789)">
				<title>Sheet.20</title>
				<path d="M1.67 586.57 A35.8801 35.8801 -180 0 0 0 591.84 A15.7101 15.7101 -180 0 0 1.25 593.69 C1.61 594.15 1.95
							 594.57 2.35 594.99 A36.0408 36.0408 0 0 1 4.52 588.02 A5.54474 5.54474 0 0 1 1.67 586.57 Z"
						class="st6"/>
			</g>
			<g id="shape21-22" v:mID="21" v:groupContext="shape" transform="translate(0.0401793,-17.5182)">
				<title>Sheet.21</title>
				<path d="M3.6 593.2 A24.1076 24.1076 0 0 1 2.21 587.3 A16.3731 16.3731 -180 0 0 -0 590.21 A25.4938 25.4938 -180 0
							 0 1.15 594.99 A5.40411 5.40411 0 0 1 3.6 593.2 Z" class="st7"/>
			</g>
			<g id="shape22-24" v:mID="22" v:groupContext="shape" transform="translate(0,-8.65864)">
				<title>Sheet.22</title>
				<ellipse cx="5.48447" cy="589.508" rx="5.48447" ry="5.48447" class="st8"/>
			</g>
			<g id="shape23-28" v:mID="23" v:groupContext="shape" transform="translate(6.48896,-3.65632)">
				<title>Sheet.23</title>
				<path d="M6.99 594.53 A3.55587 3.55587 0 0 1 8.08 591.98 A23.8665 23.8665 0 0 1 2.99 588.24 A5.50456 5.50456 0 0
							 1 0 589.91 A26.3174 26.3174 -180 0 0 2.91 592.48 A24.3486 24.3486 -180 0 0 7.03 594.99 A3.59605 3.59605
							 0 0 1 6.99 594.53 Z" class="st7"/>
			</g>
			<g id="shape24-30" v:mID="24" v:groupContext="shape" transform="translate(19.5673,-1.14511)">
				<title>Sheet.24</title>
				<path d="M6.57 592.44 A24.1076 24.1076 0 0 1 1.02 591.8 a0.823675 0.823675 0 0 1 0 0.220986 A3.51569 3.51569 0 0
							 1 0 594.51 A27.5027 27.5027 -180 0 0 6.87 594.99 A16.4936 16.4936 -180 0 0 9.26 592.3 A23.1031 23.1031
							 0 0 1 6.57 592.44 Z" class="st7"/>
			</g>
			<g id="shape25-32" v:mID="25" v:groupContext="shape" transform="translate(13.4601,-0.54242)">
				<title>Sheet.25</title>
				<ellipse cx="3.57596" cy="591.416" rx="3.57596" ry="3.57596" class="st9"/>
			</g>
			<g id="shape26-36" v:mID="26" v:groupContext="shape" transform="translate(7.49344,-13.6409)">
				<title>Sheet.26</title>
				<path d="M13.94 594.99 A3.6764 3.6764 0 0 1 15.17 592.98 A51.2286 51.2286 0 0 1 6.21 584.67 A33.9716 33.9716 0 0
							 1 2.19 578.8 A15.3485 15.3485 -180 0 0 -0 579.64 A36.4426 36.4426 -180 0 0 4.32 586.03 A53.117 53.117
							 -180 0 0 13.94 594.99 Z" class="st10"/>
			</g>
			<g id="shape27-38" v:mID="27" v:groupContext="shape" transform="translate(21.3754,-9.16088)">
				<title>Sheet.27</title>
				<ellipse cx="3.79694" cy="591.195" rx="3.79694" ry="3.79694" class="st9"/>
			</g>
			<g id="shape28-41" v:mID="28" v:groupContext="shape" transform="translate(27.5429,-8.21666)">
				<title>Sheet.28</title>
				<path d="M4 592.8 L3.29 592.46 L2.69 592.14 L2.57 592.14 L2.05 591.72 L1.91 591.72 L1.29 591.32 A3.53578 3.53578
							 0 0 1 -0 593.16 C0.24 593.32 0.5 593.47 0.76 593.61 L0.92 593.71 L1.63 594.09 L3.35 594.99 A17.3374
							 17.3374 -180 0 0 3.94 592.76 L4 592.8 Z" class="st7"/>
			</g>
			<g id="shape29-43" v:mID="29" v:groupContext="shape" transform="translate(0,-8.65864)">
				<title>Sheet.29</title>
				<ellipse cx="5.48447" cy="589.508" rx="5.48447" ry="5.48447" class="st8"/>
			</g>
			<g id="shape30-46" v:mID="30" v:groupContext="shape" transform="translate(13.4601,-0.54242)">
				<title>Sheet.30</title>
				<ellipse cx="3.57596" cy="591.416" rx="3.57596" ry="3.57596" class="st9"/>
			</g>
		</g>
		<g id="group31-49" transform="translate(598.459,-290.675)" v:mID="31" v:groupContext="group">
			<v:userDefs>
				<v:ud v:nameU="visNavOrder" v:val="VT0(5000):26"/>
			</v:userDefs>
			<title>Icon-databases-131</title>
			<g id="shape32-50" v:mID="32" v:groupContext="shape">
				<title>Sheet.32</title>
				<path d="M15.77 564.58 C7.06 564.58 0 562.12 0 558.88 L0 589.28 C0 592.41 6.94 594.94 15.55 594.99 L15.77 594.99
							 C24.48 594.99 31.54 592.53 31.54 589.28 L31.54 558.88 C31.54 562.02 24.48 564.58 15.77 564.58 Z"
						class="st11"/>
			</g>
			<g id="shape33-54" v:mID="33" v:groupContext="shape" transform="translate(0,-30.409)">
				<title>Sheet.33</title>
				<path d="M31.54 589.28 C31.54 592.43 24.48 594.99 15.77 594.99 C7.06 594.99 0 592.53 0 589.28 C0 586.04 7.06 583.58
							 15.77 583.58 C24.48 583.58 31.54 586.04 31.54 589.28 Z" class="st12"/>
			</g>
			<g id="shape34-56" v:mID="34" v:groupContext="shape" transform="translate(3.66581,-32.9431)">
				<title>Sheet.34</title>
				<path d="M24.18 591.35 C24.18 593.37 18.77 594.99 12.1 594.99 C5.44 594.99 0 593.37 0 591.38 C0 589.38 5.41 587.73
							 12.1 587.73 C18.8 587.73 24.18 589.36 24.18 591.35 Z" class="st13"/>
			</g>
			<g id="shape35-58" v:mID="35" v:groupContext="shape" transform="translate(6.17529,-32.9431)">
				<title>Sheet.35</title>
				<path d="M9.6 592.26 A28.6622 28.6622 -180 0 0 0 593.66 A28.367 28.367 -180 0 0 9.6 594.99 A28.2194 28.2194 -180
							 0 0 19.17 593.57 A29.3511 29.3511 -180 0 0 9.6 592.26 Z" class="st14"/>
			</g>
			<g id="shape36-60" v:mID="36" v:groupContext="shape" transform="translate(4.69913,-4.35469)">
				<title>Sheet.36</title>
				<path d="M18.45 578.43 C18.45 578.63 18.45 579.02 18.45 579.47 A12.5966 12.5966 -180 0 0 18.26 581.02 C18.26 581.31
							 18.26 581.76 18.38 582.15 C18.5 582.54 18.38 582.81 18.38 583.04 A4.13326 4.13326 0 0 1 17.76 585.15
							 A1.05792 1.05792 -180 0 0 17.76 585.32 L18.01 585.62 A25.9559 25.9559 -180 0 0 20.62 579.76 C21.31 577.43
							 21.38 575.75 20.84 575.04 A6.34751 6.34751 -180 0 0 14.24 572.92 A8.09431 8.09431 0 0 1 16.48 574.57
							 A5.60943 5.60943 0 0 1 18.45 578.43 ZM17.69 578.63 A2.82932 2.82932 -180 0 0 15.75 578.85 C15.03 579.3
							 15.25 580.21 15.75 581.31 A19.1163 19.1163 -180 0 0 16.61 583.4 L16.83 583.8 C16.95 583.99 17.03 584.17
							 17.1 584.29 L17.3 584.61 A3.14915 3.14915 -180 0 0 17.74 583.01 A7.03639 7.03639 -180 0 0 17.74 582.2
							 C17.74 581.78 17.74 581.31 17.62 580.99 A15.0077 15.0077 0 0 1 17.81 579.3 C17.74 579.02 17.76 578.75
							 17.79 578.56 L17.69 578.63 ZM16.95 579.64 a0.98411 0.98411 0 0 1 -0.44285 0.246028 a0.811891 0.811891
							 0 0 1 -0.344439 0 a0.565864 0.565864 0 0 1 -0.172219 -0.467452 C15.99 579.25 16.26 579.1 16.58 579.05
							 L17.05 579.05 C17.05 579.05 17.27 579.05 17.27 579.25 a0.492055 0.492055 0 0 1 -0.221425 0.319836 L16.95
							 579.64 ZM5.41 581.83 C5.41 581.66 5.41 581.51 5.41 581.41 A2.46028 2.46028 -180 0 0 5.41 580.99 A13.6545
							 13.6545 0 0 1 5.41 578.53 A12.8426 12.8426 0 0 1 6.15 575.83 A5.92927 5.92927 0 0 1 7.58 573.51 A11.7601
							 11.7601 -180 0 0 4.26 573.02 A4.60072 4.60072 -180 0 0 1.55 573.76 A4.92055 4.92055 -180 0 0 0 578.24
							 A30.1876 30.1876 -180 0 0 1.23 583.75 C2.07 586.55 3.03 588.28 3.86 588.55 C4.23 588.67 4.63 588.55
							 5.02 588.03 C5.71 587.19 6.35 586.48 6.72 586.06 A4.62532 4.62532 0 0 1 5.51 581.76 L5.41 581.83 ZM6.05
							 582.81 A5.3634 5.3634 -180 0 0 6.2 584.19 A3.69041 3.69041 -180 0 0 6.84 585.27 A2.6325 2.6325 -180
							 0 0 7.7 585.89 A2.6817 2.6817 -180 0 0 8.66 586.09 C8.66 585.67 9 585.15 9.23 584.61 A10.7022 10.7022
							 -180 0 0 9.74 583.16 A16.2624 16.2624 -180 0 0 9.74 580.43 C9.74 580.21 9.74 579.96 9.6 579.69 A1.10712
							 1.10712 -180 0 0 9.3 579.02 A1.62378 1.62378 -180 0 0 8.61 578.63 L8.12 578.63 A3.83803 3.83803 -180
							 0 0 6.94 578.98 A4.92055 4.92055 -180 0 0 6.15 579.44 L6.15 579.71 C6.15 580.21 6.15 580.72 6.15 581.21
							 A2.11584 2.11584 0 0 1 6.15 581.58 L6.15 582.54 L6.05 582.81 ZM7.68 579.52 A1.13173 1.13173 0 0 1 8.36
							 579.52 A1.47617 1.47617 0 0 1 8.83 579.66 C9.05 579.66 9.08 579.94 9.05 580.01 a0.910302 0.910302 0
							 0 1 -0.295233 0.319836 a0.738083 0.738083 0 0 1 -0.147617 -0.098411 a0.836494 0.836494 0 0 1 -0.688877
							 -0.688877 L7.68 579.52 ZM9.5 586.9 a0.565864 0.565864 -180 0 0 -0.319836 0.147617 L8.83 587.46 C8.41
							 587.98 8.24 588.15 7.04 588.4 A1.27934 1.27934 -180 0 0 6.4 588.64 A1.42696 1.42696 -180 0 0 6.99 588.92
							 A2.90313 2.90313 -180 0 0 8.76 588.92 A4.18247 4.18247 -180 0 0 9.72 588.28 A1.50077 1.50077 -180 0
							 0 10.21 587.51 a0.885699 0.885699 -180 0 0 -0.246028 -0.688877 a0.369041 0.369041 -180 0 0 -0.369041
							 -0.0492055 L9.5 586.9 ZM20.84 586.9 A4.01025 4.01025 0 0 1 18.06 586.9 a0.541261 0.541261 -180 0 0 -0.344439
							 0 a0.738083 0.738083 -180 0 0 -0.418247 0.344439 A2.6817 2.6817 -180 0 0 17.3 588 A4.4285 4.4285 -180
							 0 0 20 587.76 A3.34598 3.34598 -180 0 0 21.18 586.92 L20.84 586.9 ZM14.93 581.63 C14.59 580.62 14.1
							 579.17 15.38 578.29 A3.32137 3.32137 0 0 1 17.57 577.92 A7.82368 7.82368 -180 0 0 15.99 575.09 L15.75
							 574.84 L15.6 574.69 a0.836494 0.836494 -180 0 0 -0.147617 -0.147617 A5.75705 5.75705 -180 0 0 13.8 573.51
							 A6.47053 6.47053 -180 0 0 11.07 572.97 A3.73962 3.73962 -180 0 0 9.35 573.24 A4.35469 4.35469 -180 0
							 0 8.61 573.51 A5.16658 5.16658 -180 0 0 6.79 575.97 A14.368 14.368 -180 0 0 6.27 578.43 A4.08406 4.08406
							 0 0 1 8.73 577.87 A2.06663 2.06663 0 0 1 10.63 580.11 A17.8616 17.8616 0 0 1 10.63 583.23 A9.52127 9.52127
							 0 0 1 10.06 584.78 C9.91 585.2 9.72 585.64 9.62 585.99 A1.23014 1.23014 0 0 1 10.55 586.33 A1.62378
							 1.62378 0 0 1 11.02 587.64 L11.07 587.64 C11.07 587.83 11.07 588.03 11.07 588.23 A16.1148 16.1148 -180
							 0 0 11.66 594.23 A1.32855 1.32855 -180 0 0 12.25 594.75 A1.47617 1.47617 -180 0 0 13.01 594.99 A3.19836
							 3.19836 -180 0 0 15.48 594.16 A2.58329 2.58329 -180 0 0 16.19 592.53 C16.36 591.42 16.73 588.35 16.78
							 587.61 A1.7714 1.7714 0 0 1 17 586.53 A1.54997 1.54997 0 0 1 17.66 585.94 A13.1871 13.1871 0 0 1 15.03
							 581.49 L14.93 581.63 Z" class="st15"/>
			</g>
		</g>
		<g id="shape38-62" v:mID="38" v:groupContext="shape" transform="translate(275,-330)">
			<title>numbered label.38</title>
			<desc>1</desc>
			<v:userDefs>
				<v:ud v:nameU="visLegendShape" v:val="VT0(2):26"/>
				<v:ud v:nameU="visLocToPar" v:val="VT7(PNT(232,-52.5)):40"/>
				<v:ud v:nameU="visVersion" v:val="VT0(11):26"/>
				<v:ud v:nameU="visIsConnected" v:prompt="" v:val="VT0(0):26"/>
				<v:ud v:nameU="visLocToPar" v:prompt="" v:val="VT7(PNT(3.8194442797744,4.5833333333333)):40"/>
				<v:ud v:nameU="visNavOrder" v:prompt="" v:val="VT0(7000):26"/>
			</v:userDefs>
			<v:textBlock v:margins="rect(0,0,0,0)"/>
			<v:textRect cx="7.42464" cy="587.604" width="22.03" height="15"/>
			<ellipse cx="7.5" cy="587.492" rx="7.5" ry="7.5" class="st3"/>
			<text x="4.19" y="591.2" class="st4" v:langID="1033"><v:paragraph v:horizAlign="1"/><v:tabList/>1</text>		</g>
		<g id="shape39-65" v:mID="39" v:groupContext="shape" transform="translate(445,-330)">
			<title>numbered label.39</title>
			<desc>3</desc>
			<v:userDefs>
				<v:ud v:nameU="visLegendShape" v:val="VT0(2):26"/>
				<v:ud v:nameU="visLocToPar" v:val="VT7(PNT(232,-52.5)):40"/>
				<v:ud v:nameU="visVersion" v:val="VT0(11):26"/>
				<v:ud v:nameU="visIsConnected" v:prompt="" v:val="VT0(0):26"/>
				<v:ud v:nameU="visLocToPar" v:prompt="" v:val="VT7(PNT(6.1805553331488,4.5833333333333)):40"/>
				<v:ud v:nameU="visNavOrder" v:prompt="" v:val="VT0(8000):26"/>
			</v:userDefs>
			<v:textBlock v:margins="rect(0,0,0,0)"/>
			<v:textRect cx="7.42464" cy="587.604" width="22.03" height="15"/>
			<ellipse cx="7.5" cy="587.492" rx="7.5" ry="7.5" class="st3"/>
			<text x="4.19" y="591.2" class="st4" v:langID="1033"><v:paragraph v:horizAlign="1"/><v:tabList/>3</text>		</g>
		<g id="shape41-68" v:mID="41" v:groupContext="shape" v:layerMember="0" transform="translate(590,-297.5)">
			<title>Dynamic connector.41</title>
			<v:userDefs>
				<v:ud v:nameU="visNavOrder" v:val="VT0(10000):26"/>
			</v:userDefs>
			<path d="M-6.67 582.49 L-7.03 582.49 L-127.97 582.49" class="st1"/>
		</g>
		<g id="shape42-75" v:mID="42" v:groupContext="shape" transform="translate(190.049,-257)">
			<title>Sheet.42</title>
			<desc>Browser / Mobile app</desc>
			<v:userDefs>
				<v:ud v:nameU="visNavOrder" v:val="VT0(11000):26"/>
			</v:userDefs>
			<v:textBlock v:margins="rect(4,4,4,4)"/>
			<v:textRect cx="40" cy="579.992" width="80" height="30"/>
			<rect x="0" y="564.992" width="80" height="30" class="st16"/>
			<text x="14.87" y="576.39" class="st17" v:langID="1033"><v:paragraph v:horizAlign="1"/><v:tabList/>Browser / <tspan
						x="9.77" dy="1.2em" class="st18">Mobile app</tspan></text>		</g>
		<g id="shape44-79" v:mID="44" v:groupContext="shape" transform="translate(394.23,-264)">
			<title>Sheet.44</title>
			<desc>Azure App Services</desc>
			<v:userDefs>
				<v:ud v:nameU="visNavOrder" v:val="VT0(12000):26"/>
			</v:userDefs>
			<v:textBlock v:margins="rect(4,4,4,4)"/>
			<v:textRect cx="40" cy="579.992" width="80" height="30"/>
			<rect x="0" y="564.992" width="80" height="30" class="st16"/>
			<text x="12.23" y="576.39" class="st17" v:langID="1033"><v:paragraph v:horizAlign="1"/><v:tabList/>Azure App <tspan
						x="18.81" dy="1.2em" class="st18">Services</tspan></text>		</g>
		<g id="shape45-83" v:mID="45" v:groupContext="shape" transform="translate(574.23,-250)">
			<title>Sheet.45</title>
			<desc>Azure Database for PostgreSQL</desc>
			<v:userDefs>
				<v:ud v:nameU="visNavOrder" v:val="VT0(13000):26"/>
			</v:userDefs>
			<v:textBlock v:margins="rect(4,4,4,4)"/>
			<v:textRect cx="40" cy="579.992" width="80" height="30"/>
			<rect x="0" y="564.992" width="80" height="30" class="st16"/>
			<text x="24.8" y="569.19" class="st17" v:langID="1033"><v:paragraph v:horizAlign="1"/><v:tabList/>Azure <tspan x="6.27"
						dy="1.2em" class="st18">Database for </tspan><tspan x="9.25" dy="1.2em" class="st18">PostgreSQL</tspan></text>		</g>
		<g id="group1005-88" transform="translate(186.719,-290.675)" v:mID="1005" v:groupContext="group">
			<v:userDefs>
				<v:ud v:nameU="visNavOrder" v:val="VT0(15000):26"/>
			</v:userDefs>
			<title>Sheet.1005</title>
			<g id="group8-89" transform="translate(61.6199,0)" v:mID="8" v:groupContext="group">
				<v:userDefs>
					<v:ud v:nameU="visNavOrder" v:val="VT0(3000):26"/>
				</v:userDefs>
				<title>MsPortalFx.base.images-62</title>
				<g id="group9-90" v:mID="9" v:groupContext="group">
					<title>Sheet.9</title>
					<g id="shape10-91" v:mID="10" v:groupContext="shape">
						<title>Sheet.10</title>
						<path d="M0 594.02 a0.973609 0.973609 -180 0 0 0.973586 0.973586 L24.07 594.99 a0.973609 0.973609 -180 0
									 0 0.973586 -0.973586 L25.04 554.14 a0.973609 0.973609 -180 0 0 -0.973586 -0.973586 L0.97 553.17
									 a0.973609 0.973609 -180 0 0 -0.973586 0.973586 L0 594.02 Z" class="st19"/>
					</g>
					<g id="shape11-95" v:mID="11" v:groupContext="shape" transform="translate(9.63362,-39.6475)">
						<title>Sheet.11</title>
						<path d="M-0 594.63 a0.357842 0.357842 -180 0 0 0.357834 0.357834 L5.41 594.99 a0.357842 0.357842 -180 0
									 0 0.357834 -0.357834 L5.77 594.58 a0.357842 0.357842 -180 0 0 -0.357834 -0.357834 L0.36 594.22
									 a0.357842 0.357842 -180 0 0 -0.357834 0.357834 L0 594.63 Z" class="st15"/>
					</g>
					<g id="shape12-97" v:mID="12" v:groupContext="shape" transform="translate(2.34915,-4.68669)">
						<title>Sheet.12</title>
						<path d="M0 594.53 a0.467053 0.467053 -180 0 0 0.467042 0.467042 L19.87 594.99 a0.467053 0.467053 -180 0
									 0 0.467042 -0.467042 L20.34 561.86 a0.467053 0.467053 -180 0 0 -0.467042 -0.467042 L0.47 561.39
									 a0.467053 0.467053 -180 0 0 -0.467042 0.467042 L0 594.53 Z" class="st20"/>
					</g>
					<g id="shape13-101" v:mID="13" v:groupContext="shape" transform="translate(11.1207,-0.910849)">
						<title>Sheet.13</title>
						<path d="M0 594.33 a0.664563 0.664563 -180 0 0 0.664548 0.664548 L2.13 594.99 a0.664563 0.664563 -180 0 0
									 0.664548 -0.664548 L2.8 593.27 a0.664563 0.664563 -180 0 0 -0.664548 -0.664548 L0.66 592.6 a0.664563
									 0.664563 -180 0 0 -0.664548 0.664548 L0 594.33 Z" class="st15"/>
					</g>
					<g id="shape14-103" v:mID="14" v:groupContext="shape" transform="translate(12.6984,-13.349)">
						<title>Sheet.14</title>
						<path d="M6.52 583.66 L6.52 591.2 L0 594.99 L0 587.44 L6.52 583.66 Z" class="st21"/>
					</g>
					<g id="shape15-105" v:mID="15" v:groupContext="shape" transform="translate(6.18076,-20.8914)">
						<title>Sheet.15</title>
						<path d="M13.04 591.2 L6.52 594.99 L0 591.2 L6.52 587.41 L13.04 591.2 Z" class="st22"/>
					</g>
					<g id="shape16-107" v:mID="16" v:groupContext="shape" transform="translate(6.18076,-13.349)">
						<title>Sheet.16</title>
						<path d="M6.52 587.45 L6.52 594.99 L0 591.2 L0 583.66 L6.52 587.45 Z" class="st23"/>
					</g>
				</g>
			</g>
			<g id="group1000-109" v:mID="1000" v:groupContext="group">
				<v:userDefs>
					<v:ud v:nameU="visNavOrder" v:val="VT0(14000):26"/>
				</v:userDefs>
				<title>MsPortalFx.base.images-15</title>
				<g id="group1001-110" v:mID="1001" v:groupContext="group">
					<title>Sheet.1001</title>
					<g id="shape1002-111" v:mID="1002" v:groupContext="shape">
						<title>Sheet.1002</title>
						<path d="M1.52 564.41 L53.28 564.41 L53.28 593.26 A1.72936 1.72936 0 0 1 51.55 594.99 L3.25 594.99 A1.72936
									 1.72936 0 0 1 1.52 593.26 L1.52 564.41 Z" class="st24"/>
					</g>
					<g id="shape1003-115" v:mID="1003" v:groupContext="shape" transform="translate(2.67786E-13,-30.5865)">
						<title>Sheet.1003</title>
						<path d="M3.26 583.96 L51.54 583.96 A1.72936 1.72936 0 0 1 53.27 585.69 L53.27 594.99 L1.52 594.99 L1.52
									 585.69 A1.72936 1.72936 0 0 1 3.26 583.96 Z" class="st23"/>
					</g>
					<g id="shape1004-117" v:mID="1004" v:groupContext="shape" transform="translate(8.48542,-33.8777)">
						<title>Sheet.1004</title>
						<path d="M0 594.13 a0.864699 0.864699 -180 0 0 0.864679 0.864679 L36.97 594.99 a0.864699 0.864699 -180 0
									 0 0.864679 -0.864679 L37.83 591.41 a0.864699 0.864699 -180 0 0 -0.864679 -0.864679 L0.86 590.55
									 a0.864699 0.864699 -180 0 0 -0.864679 0.864679 L0 594.13 Z" class="st15"/>
					</g>
				</g>
			</g>
		</g>
		<g id="shape1006-119" v:mID="1006" v:groupContext="shape" transform="translate(335,-303)">
			<title>numbered label.37</title>
			<desc>2</desc>
			<v:userDefs>
				<v:ud v:nameU="visLegendShape" v:val="VT0(2):26"/>
				<v:ud v:nameU="visLocToPar" v:val="VT7(PNT(232,-52.5)):40"/>
				<v:ud v:nameU="visVersion" v:val="VT0(11):26"/>
				<v:ud v:nameU="visIsConnected" v:prompt="" v:val="VT0(0):26"/>
				<v:ud v:nameU="visLocToPar" v:prompt="" v:val="VT7(PNT(4.6527777777778,4.2083332671553)):40"/>
				<v:ud v:nameU="visNavOrder" v:prompt="" v:val="VT0(16000):26"/>
			</v:userDefs>
			<v:textBlock v:margins="rect(0,0,0,0)"/>
			<v:textRect cx="7.42464" cy="587.604" width="22.03" height="15"/>
			<ellipse cx="7.5" cy="587.492" rx="7.5" ry="7.5" class="st3"/>
			<text x="4.19" y="591.2" class="st4" v:langID="1033"><v:paragraph v:horizAlign="1"/><v:tabList/>2</text>		</g>
	</g>
</svg>
