<svg xmlns="http://www.w3.org/2000/svg" width="595.565" height="278.39" viewBox="0 0 612 251">    
    <text transform="translate(15.977 85.064)" font-size="14" fill="#5b5b5b" font-family="SegoeUI, Segoe UI" style="isolation: isolate">B</text>
    <text transform="translate(24.002 85.064)" font-size="14" fill="#5b5b5b" font-family="SegoeUI, Segoe UI" letter-spacing="-0.013em" style="isolation: isolate">r</text>
    <text transform="translate(28.685 85.064)" font-size="14" fill="#5b5b5b" font-family="SegoeUI, Segoe UI" style="isolation: isolate">owser</text> 
    <path d="M11.213,57.1a2.354,2.354,0,0,0,2.347,2.347H67.552A2.354,2.354,0,0,0,69.9,57.1V20.361H11.213Z" fill="#59b4d9" />
    <path d="M67.552,9.446H13.561a2.354,2.354,0,0,0-2.347,2.347v8.92H69.9v-8.92a2.354,2.354,0,0,0-2.347-2.347" fill="#a0a1a2" />
    <path d="M13.561,9.446a2.354,2.354,0,0,0-2.347,2.347V57.1a2.354,2.354,0,0,0,2.347,2.347h2.582l46.244-50Z" fill="#fff" opacity="0.2" style="isolation: isolate" />
    <rect x="28.518" y="12.627" width="38.371" height="4.514" fill="#fff" />
    <circle cx="19.113" cy="15.26" r="2.633" fill="#3999c6" />   
    <text transform="translate(4.339 244.366)" font-size="14" fill="#5b5b5b" font-family="SegoeUI, Segoe UI" style="isolation: isolate">Mobile App</text>   
    <path d="M55.684,214.872a2.47,2.47,0,0,1-2.521,2.241h-25.5a2.41,2.41,0,0,1-2.241-2.241V164.443a2.41,2.41,0,0,1,2.241-2.241h25.5a2.47,2.47,0,0,1,2.521,2.241Z" fill="#333" />
    <polygon points="54.003 209.269 26.828 209.269 26.828 170.046 54.003 170.046 54.003 209.269 54.003 209.269" fill="#505050" />
    <path d="M48.68,165.844a.274.274,0,0,1-.268.28H32.431a.274.274,0,0,1-.28-.268s0-.008,0-.012h0c0-.28,0-.56.28-.56H48.4C48.68,165.284,48.68,165.564,48.68,165.844Z" />
    <path d="M29.91,213.189a.743.743,0,0,1-.84.84h-1.4a.743.743,0,0,1-.84-.84h0a.9.9,0,0,1,.84-.84h1.4A.9.9,0,0,1,29.91,213.189Z" fill="#737373" />
    <path d="M54,213.189a.9.9,0,0,1-.84.84h-1.4a.743.743,0,0,1-.84-.84h0a.9.9,0,0,1,.84-.84h1.4A1.263,1.263,0,0,1,54,213.189Z" fill="#737373" />
    <path d="M43.638,213.189a1.486,1.486,0,0,1-1.681,1.681H38.875a1.615,1.615,0,0,1-1.681-1.546q0-.067,0-.135h0a1.808,1.808,0,0,1,1.681-1.681h3.077a1.615,1.615,0,0,1,1.681,1.546q0,.067,0,.135Z" fill="#737373" />    
    <text transform="translate(177.077 85.398)" font-size="14" fill="#5b5b5b" font-family="SegoeUI, Segoe UI" style="isolation: isolate">Azu</text>
    <text transform="translate(200.36 85.398)" font-size="14" fill="#5b5b5b" font-family="SegoeUI, Segoe UI" letter-spacing="-0.013em" style="isolation: isolate">r</text>
    <text transform="translate(205.043 85.398)" font-size="14" fill="#5b5b5b" font-family="SegoeUI, Segoe UI" style="isolation: isolate">e </text>
    <text transform="translate(216.199 85.398)" font-size="14" fill="#5b5b5b" font-family="SegoeUI, Segoe UI" letter-spacing="-0.086em" style="isolation: isolate">T</text>
    <text transform="translate(222.317 85.398)" font-size="14" fill="#5b5b5b" font-family="SegoeUI, Segoe UI" style="isolation: isolate">raffic </text>
    <text transform="translate(189.334 102.198)" font-size="14" fill="#5b5b5b" font-family="SegoeUI, Segoe UI" style="isolation: isolate">Manager</text>   
    <text transform="translate(326.93 84.731)" font-size="14" fill="#5b5b5b" font-family="SegoeUI, Segoe UI" style="isolation: isolate">Azu</text>
    <text transform="translate(350.213 84.731)" font-size="14" fill="#5b5b5b" font-family="SegoeUI, Segoe UI" letter-spacing="-0.013em" style="isolation: isolate">r</text>
    <text transform="translate(354.896 84.731)" font-size="14" fill="#5b5b5b" font-family="SegoeUI, Segoe UI" style="isolation: isolate">e App Se</text>
    <text transform="translate(410.137 84.731)" font-size="14" fill="#5b5b5b" font-family="SegoeUI, Segoe UI" letter-spacing="0.04em" style="isolation: isolate">r</text>
    <text transform="translate(415.565 84.731)" font-size="14" fill="#5b5b5b" font-family="SegoeUI, Segoe UI" style="isolation: isolate">vices</text>   
    <line x1="167.601" y1="38.976" x2="86.336" y2="38.976" fill="none" stroke="#969696" stroke-miterlimit="10" stroke-width="1.5" />
    <polygon points="166.069 33.74 175.136 38.976 166.069 44.211 166.069 33.74" fill="#969696" />    
    <polyline points="383.744 110.066 383.744 197.976 86.336 197.976" fill="none" stroke="#969696" stroke-miterlimit="10" stroke-width="1.5" />
    <polygon points="378.508 111.598 383.744 102.531 388.979 111.598 378.508 111.598" fill="#969696" />    
    <line x1="329.601" y1="38.976" x2="248.336" y2="38.976" fill="none" stroke="#969696" stroke-miterlimit="10" stroke-width="1.5" />
    <polygon points="328.069 33.74 337.136 38.976 328.069 44.211 328.069 33.74" fill="#969696" />   
    <line x1="504.601" y1="38.976" x2="430.871" y2="38.976" fill="none" stroke="#969696" stroke-miterlimit="10" stroke-width="1.5" />
    <polygon points="503.069 33.74 512.136 38.976 503.069 44.211 503.069 33.74" fill="#969696" />
    <polygon points="432.403 33.74 423.336 38.976 432.403 44.211 432.403 33.74" fill="#969696" />    
    <polygon points="239.42 44.396 239.42 25.575 226.251 12.446 207.616 12.446 194.42 25.972 194.42 44.329 207.589 57.446 226.251 57.446 239.42 44.396" fill="#804998" />
    <path d="M225.5,14.246H208.359L196.22,26.69V43.578l12.116,12.067h17.169L237.62,43.639V26.325Zm-1.021,38.916h-.137l-10.152-10.3,2.144-2.4h-7.359v7.544l2.409-2.594,7.981,7.747h-10L198.7,42.547V27.7l2.99-3.065,7.946,7.16-4.526,4.7h14.453V22.133l-4.725,4.711-8-7.491,2.561-2.625H224.47l10.659,10.626V40.625l-5.06-4.768,3.706-3.335H223.538V42.2l3.348-3.322,5.731,6.223Z" fill="#fff" opacity="0.8" style="isolation: isolate" />
    <polygon points="233.027 19.201 226.251 12.446 207.616 12.446 194.42 25.972 194.42 44.33 201.173 51.055 233.027 19.201" fill="#fff" opacity="0.2" style="isolation: isolate" />    
    <text transform="translate(509.843 85.731)" font-size="14" fill="#5b5b5b" font-family="SegoeUI, Segoe UI" style="isolation: isolate">Azu</text>
    <text transform="translate(533.126 85.731)" font-size="14" fill="#5b5b5b" font-family="SegoeUI, Segoe UI" letter-spacing="-0.013em" style="isolation: isolate">r</text>
    <text transform="translate(537.809 85.731)" font-size="14" fill="#5b5b5b" font-family="SegoeUI, Segoe UI" style="isolation: isolate">e Data</text>
    <text transform="translate(577.772 85.731)" font-size="14" fill="#5b5b5b" font-family="SegoeUI, Segoe UI" letter-spacing="-0.013em" style="isolation: isolate">b</text>
    <text transform="translate(585.818 85.731)" font-size="14" fill="#5b5b5b" font-family="SegoeUI, Segoe UI" style="isolation: isolate">ase </text>
    <text transform="translate(527.333 102.531)" font-size="14" fill="#5b5b5b" font-family="SegoeUI, Segoe UI" style="isolation: isolate">for MySQL</text>   
    <path d="M538.649,10.169V51.162c0,4.315,9.537,7.724,21.236,7.724V10.169Z" fill="#005f87" />
    <path d="M559.657,58.881H560c11.811,0,21.2-3.5,21.2-7.815V10.043l-21.535.127Z" fill="#0f80b0" />
    <path d="M581.232,10.169c0,4.2-9.537,7.724-21.236,7.724s-21.347-3.525-21.347-7.724,9.537-7.724,21.236-7.724,21.347,3.545,21.347,7.724" fill="#fff" />
    <path d="M576.917,9.714c0,2.841-7.6,5.11-16.921,5.11s-17.032-2.249-17.032-5.11,7.6-5.11,16.921-5.11,17.032,2.269,17.032,5.11" fill="#7fb900" />
    <path d="M576.633,39.443a4.281,4.281,0,0,1-4.016,4.531l-.036,0h-9.116V40.433h8.1c.506-.041.927-1.469.927-1.469l-.927.456H566.5c-2.026,0-3.545-1.19-3.545-3.039V30.81l-1.519-.506v9.623h-4.052V32.573l-2.32,5.13c-.587,1.362-1.2,2.223-2.745,2.223a3.626,3.626,0,0,1-3.414-2.223l-2.158-5.374v7.6H542.7V28.66c0-1.307.253-2.107,1.448-2.482a5.931,5.931,0,0,1,1.722-.294,3.191,3.191,0,0,1,3.094,1.98l3.358,6.488,2.7-6.488a3.2,3.2,0,0,1,3.089-1.98,6.432,6.432,0,0,1,1.7.273,2.382,2.382,0,0,1,1.621,2.623v1.4c0,.066-.066.116,0,.116h6.078v5.065a1.519,1.519,0,0,0,1.013.506h3.545V30.3h4.558Z" fill="#fff" />   
    <path d="M378.9,53.446h-17v-17h3.9a26.305,26.305,0,0,1-.9-3.3v-.7h-6v24h24v-14h-4Z" fill="#a0a1a2" />
    <path d="M401.9,36.446h4v17h-17v-11h-4v14h24v-24h-7.4c.5,1.5.9,2.5.4,3.8Z" fill="#a0a1a2" />
    <path d="M362.9,26.446v-16h16v9.1a9.63,9.63,0,0,1,4-1.6V6.446h-24v24h6.8a8.177,8.177,0,0,1,2.2-3.9l-5.5-.1Z" fill="#a0a1a2" />
    <path d="M388.9,17.546v-8.1h17v17h-7.516a12.358,12.358,0,0,1,.515,3.482v.518h10v-24h-24v10.9c.7,0,.9-.1,1.2-.1C387,17.346,387.9,17.346,388.9,17.546Z" fill="#a0a1a2" />
    <path d="M400.768,36.393a3.938,3.938,0,0,0-3.929-3.947h-.09l-.359-.421a10.476,10.476,0,0,0-20.155-5.661,8.321,8.321,0,0,0-2.347-.427,7.254,7.254,0,0,0,0,14.507h23.253a4.056,4.056,0,0,0,3.627-4.053" fill="#59b4d9" />
    <path d="M378.1,40.446a6.8,6.8,0,0,1,3.3-11.4,5.525,5.525,0,0,1,2.2-.1,9.919,9.919,0,0,1,5.5-8,9.427,9.427,0,0,0-3-.5,9.787,9.787,0,0,0-9.3,6.8,7.8,7.8,0,0,0-2.2-.4,6.8,6.8,0,0,0,0,13.6h3.5Z" fill="#fff" opacity="0.2" style="isolation: isolate" />
</svg>