<svg width="832" height="460" viewBox="0 0 832 460" fill="none" xmlns="http://www.w3.org/2000/svg">
  <path d="M26.0095 199.9V222.6C26.0095 225.7 27.1095 226.9 30.3095 226.9H65.4095C68.5095 226.9 69.7095 225.8 69.7095 222.6V199.9H26.0095Z" fill="#59B3D8"/>
  <path d="M69.6095 200.7V193.6C69.6095 190.5 68.5095 189.3 65.3095 189.3H30.3095C27.2095 189.3 26.0095 190.4 26.0095 193.6V200.7H69.6095Z" fill="#9FA0A1"/>
  <path d="M64.2095 189.3H30.3095C27.2095 189.3 26.0095 190.4 26.0095 193.6V200.8H53.6095L64.2095 189.3Z" fill="#B2B3B4"/>
  <path d="M30.3095 226.8H29.7095C27.0095 226.6 26.0095 225.4 26.0095 222.5V200.7H53.6095L30.3095 226.8Z" fill="#7AC2E0"/>
  <path d="M36.9094 197.3H66.8094V193.5H36.9094V197.3Z" fill="#FBFBFB"/>
  <path d="M31.7094 191.2C34.1094 191.2 36.0094 193.1 36.0094 195.5C36.0094 197.9 34.1094 199.8 31.7094 199.8C29.3094 199.8 27.4094 197.9 27.4094 195.5C27.4094 193.1 29.3094 191.2 31.7094 191.2Z" fill="#59B3D8"/>
  <path d="M35.9095 194.9H31.7095L33.1095 193.5V193.1H31.7095L29.5095 195.6L31.7095 197.9H33.1095V197.4L31.7095 196H36.0095V194.9H35.9095Z" fill="#FBFBFB"/>
  <path d="M53.1096 217.7C53.3096 217.7 53.6096 217.7 53.8096 217.8C54.0096 217.9 54.2096 218 54.4096 218.2C54.6096 218.4 54.7096 218.5 54.8096 218.7C55.0096 219.1 55.0096 219.6 54.8096 220.1C54.6096 220.5 54.3096 220.8 53.9096 221C53.7096 221.1 53.5096 221.1 53.2096 221.1C53.0096 221.1 52.7096 221.1 52.5096 221C52.3096 220.9 52.1096 220.8 51.9096 220.6C51.6096 220.3 51.4096 219.8 51.4096 219.4C51.4096 219.2 51.4096 219 51.5096 218.8H46.7096C46.8096 219 46.8096 219.2 46.8096 219.4C46.8096 219.6 46.8096 219.9 46.7096 220.1C46.5096 220.5 46.2096 220.8 45.8096 221C45.6096 221.1 45.4096 221.1 45.1096 221.1C44.9096 221.1 44.6096 221.1 44.4096 221C44.2096 220.9 44.0096 220.8 43.8096 220.6C43.5096 220.3 43.3096 219.8 43.3096 219.4C43.3096 218.7 43.7096 218.1 44.3096 217.8L40.3096 206H38.6096V204.9H41.1096L41.8096 207.2H57.1096L54.4096 215.3H44.6096L45.3096 217.6H53.1096V217.7ZM42.3096 208.4L44.2096 214.2H53.6096L55.5096 208.4H42.3096ZM45.5096 219.4C45.5096 219.1 45.2096 218.8 44.9096 218.8C44.6096 218.8 44.3096 219.1 44.3096 219.4C44.3096 219.7 44.6096 220 44.9096 220C45.1096 220 45.2096 219.9 45.3096 219.8C45.4096 219.7 45.5096 219.6 45.5096 219.4ZM53.1096 220C53.4096 220 53.7096 219.7 53.7096 219.4C53.7096 219.1 53.4096 218.8 53.1096 218.8C52.8096 218.8 52.5096 219.1 52.5096 219.4C52.5096 219.6 52.6096 219.7 52.7096 219.8C52.8096 219.9 52.9096 220 53.1096 220Z" fill="white"/>
  <path d="M418.01 204.4C419.91 212.1 415.11 219.9 407.31 221.8C399.51 223.7 391.61 218.9 389.81 211.2C387.91 203.5 392.71 195.7 400.51 193.8C408.21 191.9 416.11 196.6 418.01 204.4C418.01 204.3 418.01 204.4 418.01 204.4Z" fill="#59B3D8"/>
  <path d="M401.809 213.5C401.809 211.4 400.109 209.7 397.909 209.7H397.309C397.809 207.7 396.509 205.6 394.509 205.1C394.209 205 393.909 205 393.609 205H389.609C388.709 209.4 390.009 214 393.109 217.3H398.009C400.109 217.3 401.809 215.6 401.809 213.5Z" fill="#B6DEEC"/>
  <path d="M406.61 197.7C406.61 197.9 406.61 198.1 406.71 198.4H405.01C402.81 198.4 401.01 200.2 401.01 202.4C401.01 204.6 402.81 206.4 405.01 206.4H418.31C417.91 201.7 415.01 197.5 410.81 195.2H409.21C407.81 195.2 406.61 196.3 406.61 197.7Z" fill="#B6DEEC"/>
  <path d="M418.31 209.3H410.41C408.61 209.3 407.11 210.7 407.11 212.5C407.11 213 407.21 213.6 407.51 214C405.81 214.5 404.81 216.3 405.41 218C405.81 219.4 407.11 220.3 408.51 220.3H410.71C414.91 218.1 417.81 214 418.31 209.3Z" fill="#B6DEEC"/>
  <path d="M387.609 198.2C387.409 198.2 387.209 198 387.209 197.8C387.209 195 384.909 192.8 382.109 192.8C381.909 192.8 381.709 192.6 381.709 192.4C381.709 192.2 381.909 192 382.109 192C384.909 192 387.209 189.8 387.209 187C387.209 186.8 387.409 186.6 387.709 186.6C387.909 186.6 388.109 186.8 388.109 187C388.109 189.8 390.409 192 393.209 192C393.409 192 393.609 192.2 393.609 192.4C393.609 192.6 393.409 192.8 393.209 192.8C390.409 192.8 388.109 195 388.109 197.8C388.009 198 387.809 198.2 387.609 198.2Z" fill="#B7D332"/>
  <path d="M418.91 226.4C418.81 226.4 418.61 226.3 418.61 226.1C418.61 224.4 417.21 223.1 415.61 223.1C415.51 223.1 415.31 223 415.31 222.8C415.31 222.6 415.41 222.5 415.61 222.5C417.31 222.5 418.61 221.2 418.61 219.5C418.61 219.4 418.71 219.2 418.91 219.2C419.01 219.2 419.21 219.3 419.21 219.5C419.21 221.2 420.61 222.5 422.21 222.5C422.31 222.5 422.51 222.6 422.51 222.8C422.51 222.9 422.41 223.1 422.21 223.1C420.51 223.1 419.21 224.4 419.21 226.1C419.21 226.3 419.11 226.4 418.91 226.4Z" fill="#0072C5"/>
  <path d="M425.01 194.8C423.61 192.6 420.11 192 414.91 193.3C413.31 193.7 411.71 194.2 410.11 194.8C411.11 195.3 412.01 195.9 412.91 196.6C413.81 196.3 414.71 196.1 415.51 195.9C416.91 195.5 418.31 195.3 419.71 195.3C421.41 195.3 422.31 195.7 422.71 196.2C423.21 197 422.71 199.2 419.71 202.7C419.21 203.3 418.61 203.9 417.91 204.6C414.61 207.8 410.91 210.6 407.01 212.9C403.11 215.3 398.91 217.3 394.51 218.8C389.21 220.5 385.61 220.5 384.81 219.2C384.01 217.9 385.61 214.7 389.51 210.9C389.31 209.8 389.21 208.7 389.21 207.6C382.91 213.2 380.91 218 382.51 220.7C383.31 222.1 385.21 222.8 387.91 222.8C391.11 222.7 394.31 222 397.21 220.8C401.01 219.3 404.71 217.5 408.21 215.3C411.71 213.2 415.11 210.8 418.11 208C419.31 206.9 420.41 205.8 421.51 204.6C425.31 200.4 426.41 197.1 425.01 194.8Z" fill="black"/>
  <path d="M226.809 194.2C226.409 193.8 225.809 193.8 225.409 194.2C225.209 194.4 225.109 194.7 225.109 194.9C225.109 195.2 225.209 195.5 225.409 195.6L234.709 204.7C235.109 205.1 235.109 205.8 234.709 206.2L225.209 215.7C224.809 216.1 224.809 216.8 225.209 217.2C225.609 217.6 226.209 217.6 226.609 217.2L237.609 206.2C238.009 205.8 238.009 205.1 237.609 204.7L226.809 194.2Z" fill="#3998C5"/>
  <path d="M200.309 206.3C199.909 205.9 199.909 205.2 200.309 204.8L209.409 195.7C209.609 195.5 209.709 195.2 209.709 195C209.709 194.7 209.609 194.4 209.409 194.3C209.009 193.9 208.409 193.9 208.009 194.3L197.209 204.9C196.809 205.3 196.809 206 197.209 206.4L208.209 217.4C208.609 217.8 209.209 217.8 209.609 217.4C210.009 217 210.009 216.3 209.609 215.9L200.309 206.3Z" fill="#3998C5"/>
  <path d="M210.009 225L222.209 202.9L214.009 202.8L220.909 187H214.909L208.209 206.1L216.409 206.2L210.009 225Z" fill="#FAD53C"/>
  <path d="M219.11 199.8L227.41 187L219.11 199.8Z" fill="#FF8B00"/>
  <path d="M227.71 199.8L210.01 225L227.71 199.8Z" fill="#FF8B00"/>
  <path d="M222.11 202.9L210.01 225L227.71 199.8H219.11L227.41 187H220.91L214.01 202.8L222.11 202.9Z" fill="#F9C236"/>
  <path d="M734.71 200.2C734.31 199.8 733.71 199.8 733.31 200.2C733.11 200.4 733.01 200.7 733.01 200.9C733.01 201.2 733.11 201.5 733.31 201.6L742.61 210.7C743.01 211.1 743.01 211.8 742.61 212.2L733.11 221.7C732.71 222.1 732.71 222.8 733.11 223.2C733.51 223.6 734.11 223.6 734.51 223.2L745.51 212.2C745.91 211.8 745.91 211.1 745.51 210.7L734.71 200.2Z" fill="#3998C5"/>
  <path d="M708.21 212.3C707.81 211.9 707.81 211.2 708.21 210.8L717.31 201.7C717.51 201.5 717.61 201.2 717.61 201C717.61 200.7 717.51 200.4 717.31 200.3C716.91 199.9 716.31 199.9 715.91 200.3L705.11 210.9C704.71 211.3 704.71 212 705.11 212.4L716.11 223.4C716.51 223.8 717.11 223.8 717.51 223.4C717.91 223 717.91 222.3 717.51 221.9L708.21 212.3Z" fill="#3998C5"/>
  <path d="M717.909 231L730.109 208.9L721.909 208.8L728.809 193H722.809L716.109 212.1L724.309 212.2L717.909 231Z" fill="#FAD53C"/>
  <path d="M727.01 205.8L735.31 193L727.01 205.8Z" fill="#FF8B00"/>
  <path d="M735.61 205.8L717.91 231L735.61 205.8Z" fill="#FF8B00"/>
  <path d="M730.11 208.9L717.91 231L735.61 205.8H727.01L735.31 193H728.81L721.91 208.8L730.11 208.9Z" fill="#F9C236"/>
  <path d="M734.71 35.1C734.31 34.7 733.71 34.7 733.31 35.1C733.11 35.3 733.01 35.6 733.01 35.8C733.01 36.1 733.11 36.4 733.31 36.5L742.61 45.6C743.01 46 743.01 46.7 742.61 47.1L733.11 56.6C732.71 57 732.71 57.7001 733.11 58.1C733.51 58.5 734.11 58.5 734.51 58.1L745.51 47.1C745.91 46.7 745.91 46 745.51 45.6L734.71 35.1Z" fill="#3998C5"/>
  <path d="M708.21 47.3C707.81 46.9 707.81 46.2 708.21 45.8L717.31 36.7C717.51 36.5 717.61 36.2 717.61 36C717.61 35.7 717.51 35.4 717.31 35.3C716.91 34.9 716.31 34.9 715.91 35.3L705.11 45.9C704.71 46.3 704.71 47 705.11 47.4L716.11 58.4C716.51 58.8 717.11 58.8 717.51 58.4C717.91 58 717.91 57.3 717.51 56.9L708.21 47.3Z" fill="#3998C5"/>
  <path d="M717.909 66L730.109 43.9L721.909 43.8L728.809 28H722.809L716.109 47.1L724.309 47.2L717.909 66Z" fill="#FAD53C"/>
  <path d="M727.01 40.8L735.31 28L727.01 40.8Z" fill="#FF8B00"/>
  <path d="M735.61 40.8L717.91 66L735.61 40.8Z" fill="#FF8B00"/>
  <path d="M730.11 43.9L717.91 66L735.61 40.8H727.01L735.31 28H728.81L721.91 43.8L730.11 43.9Z" fill="#F9C236"/>
  <path d="M734.71 356.1C734.31 355.7 733.71 355.7 733.31 356.1C733.11 356.3 733.01 356.6 733.01 356.8C733.01 357.1 733.11 357.4 733.31 357.5L742.61 366.6C743.01 367 743.01 367.7 742.61 368.1L733.11 377.6C732.71 378 732.71 378.7 733.11 379.1C733.51 379.5 734.11 379.5 734.51 379.1L745.51 368.1C745.91 367.7 745.91 367 745.51 366.6L734.71 356.1Z" fill="#3998C5"/>
  <path d="M708.21 368.3C707.81 367.9 707.81 367.2 708.21 366.8L717.31 357.7C717.51 357.5 717.61 357.2 717.61 357C717.61 356.7 717.51 356.4 717.31 356.3C716.91 355.9 716.31 355.9 715.91 356.3L705.11 366.9C704.71 367.3 704.71 368 705.11 368.4L716.11 379.4C716.51 379.8 717.11 379.8 717.51 379.4C717.91 379 717.91 378.3 717.51 377.9L708.21 368.3Z" fill="#3998C5"/>
  <path d="M717.909 387L730.109 364.9L721.909 364.8L728.809 349H722.809L716.109 368.1L724.309 368.2L717.909 387Z" fill="#FAD53C"/>
  <path d="M727.01 361.8L735.31 349L727.01 361.8Z" fill="#FF8B00"/>
  <path d="M735.61 361.8L717.91 387L735.61 361.8Z" fill="#FF8B00"/>
  <path d="M730.11 364.9L717.91 387L735.61 361.8H727.01L735.31 349H728.81L721.91 364.8L730.11 364.9Z" fill="#F9C236"/>
  <path d="M481.609 184.6H462.209V190.1H481.609V184.6Z" fill="#B8D432"/>
  <path d="M481.609 191.6H462.209V197.1H481.609V191.6Z" fill="#59B4D9"/>
  <path d="M481.609 198.6H462.209V204.1H481.609V198.6Z" fill="#B8D432"/>
  <path d="M481.609 205.6H462.209V211.1H481.609V205.6Z" fill="#59B4D9"/>
  <path d="M481.609 219.7H462.209V225.2H481.609V219.7Z" fill="#59B4D9"/>
  <path d="M481.609 212.6H462.209V218.1H481.609V212.6Z" fill="#B8D432"/>
  <path d="M179.31 253.3H178.01L177.01 250.6H172.81L171.81 253.3H170.51L174.31 243.5H175.51L179.31 253.3ZM176.61 249.5L175.11 245.3C175.01 245.2 175.01 244.9 174.91 244.6C174.91 244.9 174.81 245.1 174.71 245.3L173.21 249.5H176.61Z" fill="#525252"/>
  <path d="M185.51 246.6L181.41 252.3H185.51V253.3H179.81V253L183.91 247.3H180.11V246.3H185.51V246.6Z" fill="#525252"/>
  <path d="M192.61 253.3H191.51V252.2C191.01 253 190.31 253.5 189.31 253.5C187.61 253.5 186.81 252.5 186.81 250.5V246.3H187.91V250.3C187.91 251.8 188.51 252.5 189.61 252.5C190.11 252.5 190.61 252.3 191.01 251.9C191.41 251.5 191.51 251 191.51 250.3V246.3H192.61V253.3Z" fill="#525252"/>
  <path d="M198.509 247.4C198.309 247.2 198.009 247.2 197.709 247.2C197.209 247.2 196.809 247.4 196.509 247.9C196.209 248.4 196.009 249 196.009 249.7V253.3H194.909V246.3H196.009V247.7C196.209 247.2 196.409 246.8 196.709 246.5C197.009 246.2 197.409 246.1 197.809 246.1C198.109 246.1 198.309 246.1 198.509 246.2V247.4Z" fill="#525252"/>
  <path d="M205.21 250H200.31C200.31 250.8 200.51 251.4 200.91 251.8C201.31 252.2 201.91 252.4 202.61 252.4C203.41 252.4 204.11 252.1 204.81 251.6V252.7C204.21 253.1 203.41 253.4 202.41 253.4C201.41 253.4 200.61 253.1 200.11 252.4C199.51 251.8 199.31 250.9 199.31 249.7C199.31 248.6 199.61 247.7 200.21 247C200.81 246.3 201.61 246 202.51 246C203.41 246 204.11 246.3 204.61 246.9C205.11 247.5 205.41 248.3 205.41 249.4V250H205.21ZM204.01 249.1C204.01 248.5 203.81 247.9 203.51 247.6C203.21 247.3 202.81 247.1 202.21 247.1C201.71 247.1 201.21 247.3 200.91 247.7C200.61 248.1 200.31 248.6 200.21 249.2H204.01V249.1Z" fill="#525252"/>
  <path d="M215.809 244.5H212.009V247.9H215.509V248.9H212.009V253.2H210.909V243.4H215.909V244.5H215.809Z" fill="#525252"/>
  <path d="M223.209 253.3H222.109V252.2C221.609 253 220.909 253.5 219.909 253.5C218.209 253.5 217.409 252.5 217.409 250.5V246.3H218.509V250.3C218.509 251.8 219.109 252.5 220.209 252.5C220.709 252.5 221.209 252.3 221.609 251.9C222.009 251.5 222.109 251 222.109 250.3V246.3H223.209V253.3Z" fill="#525252"/>
  <path d="M231.31 253.3H230.21V249.3C230.21 247.8 229.71 247.1 228.61 247.1C228.01 247.1 227.61 247.3 227.21 247.7C226.81 248.1 226.61 248.7 226.61 249.3V253.3H225.51V246.3H226.61V247.5C227.11 246.6 227.91 246.2 228.91 246.2C229.71 246.2 230.31 246.4 230.71 246.9C231.11 247.4 231.31 248.1 231.31 249V253.3Z" fill="#525252"/>
  <path d="M238.109 252.9C237.609 253.2 236.909 253.4 236.209 253.4C235.209 253.4 234.409 253.1 233.809 252.4C233.209 251.8 232.909 250.9 232.909 249.9C232.909 248.7 233.209 247.8 233.909 247.1C234.609 246.4 235.409 246.1 236.509 246.1C237.109 246.1 237.709 246.2 238.109 246.4V247.5C237.609 247.1 237.009 247 236.409 247C235.709 247 235.109 247.3 234.609 247.8C234.109 248.3 233.909 249 233.909 249.8C233.909 250.6 234.109 251.3 234.509 251.7C234.909 252.1 235.509 252.4 236.209 252.4C236.809 252.4 237.409 252.2 237.909 251.8V252.9H238.109Z" fill="#525252"/>
  <path d="M240.409 244.5C240.209 244.5 240.009 244.4 239.909 244.3C239.809 244.2 239.709 244 239.709 243.8C239.709 243.6 239.809 243.4 239.909 243.3C240.009 243.2 240.209 243.1 240.409 243.1C240.609 243.1 240.809 243.2 240.909 243.3C241.009 243.4 241.109 243.6 241.109 243.8C241.109 244 241.009 244.2 240.909 244.3C240.809 244.4 240.609 244.5 240.409 244.5ZM241.009 253.3H239.909V246.3H241.009V253.3Z" fill="#525252"/>
  <path d="M246.21 253.4C245.21 253.4 244.31 253.1 243.71 252.4C243.11 251.7 242.81 250.9 242.81 249.8C242.81 248.6 243.11 247.7 243.81 247C244.51 246.3 245.31 246 246.41 246C247.41 246 248.31 246.3 248.81 247C249.31 247.7 249.71 248.5 249.71 249.7C249.71 250.8 249.41 251.7 248.81 252.4C248.11 253.1 247.21 253.4 246.21 253.4ZM246.21 247C245.51 247 244.91 247.2 244.51 247.7C244.11 248.2 243.91 248.9 243.91 249.7C243.91 250.5 244.11 251.2 244.51 251.7C244.91 252.2 245.51 252.4 246.21 252.4C246.91 252.4 247.51 252.2 247.91 251.7C248.31 251.2 248.51 250.6 248.51 249.7C248.51 248.8 248.31 248.2 247.91 247.7C247.51 247.2 247.01 247 246.21 247Z" fill="#525252"/>
  <path d="M257.209 253.3H256.109V249.3C256.109 247.8 255.609 247.1 254.509 247.1C253.909 247.1 253.509 247.3 253.109 247.7C252.709 248.1 252.509 248.7 252.509 249.3V253.3H251.409V246.3H252.509V247.5C253.009 246.6 253.809 246.2 254.809 246.2C255.609 246.2 256.209 246.4 256.609 246.9C257.009 247.4 257.209 248.1 257.209 249V253.3Z" fill="#525252"/>
  <path d="M258.909 253V251.8C259.509 252.3 260.209 252.5 260.909 252.5C261.909 252.5 262.409 252.2 262.409 251.5C262.409 251.3 262.409 251.2 262.309 251C262.209 250.9 262.109 250.8 262.009 250.7C261.909 250.6 261.709 250.5 261.509 250.4C261.309 250.3 261.109 250.2 260.909 250.2C260.609 250.1 260.309 250 260.109 249.8C259.909 249.7 259.709 249.5 259.509 249.4C259.309 249.2 259.209 249.1 259.109 248.9C259.009 248.7 259.009 248.5 259.009 248.2C259.009 247.9 259.109 247.6 259.209 247.3C259.409 247 259.609 246.8 259.809 246.7C260.109 246.5 260.309 246.4 260.709 246.3C261.109 246.2 261.409 246.2 261.709 246.2C262.309 246.2 262.809 246.3 263.309 246.5V247.6C262.809 247.3 262.209 247.1 261.509 247.1C261.309 247.1 261.109 247.1 260.909 247.2C260.709 247.2 260.609 247.3 260.509 247.4C260.409 247.5 260.309 247.6 260.209 247.7C260.109 247.8 260.109 248 260.109 248.1C260.109 248.3 260.109 248.4 260.209 248.6C260.309 248.8 260.409 248.8 260.509 248.9C260.609 249 260.809 249.1 261.009 249.2C261.209 249.3 261.409 249.4 261.609 249.5C261.909 249.6 262.209 249.7 262.409 249.9C262.609 250 262.909 250.2 263.009 250.3C263.209 250.5 263.309 250.6 263.409 250.8C263.509 251 263.509 251.2 263.509 251.5C263.509 251.8 263.409 252.1 263.309 252.4C263.209 252.7 262.909 252.9 262.709 253C262.509 253.1 262.209 253.3 261.809 253.4C261.409 253.5 261.109 253.5 260.809 253.5C260.109 253.4 259.509 253.3 258.909 253Z" fill="#525252"/>
  <path d="M134.309 272.3H133.309C131.909 270.7 131.209 268.7 131.209 266.3C131.209 263.9 131.909 261.9 133.309 260.2H134.309C132.909 261.9 132.209 263.9 132.209 266.2C132.209 268.6 132.909 270.6 134.309 272.3Z" fill="#525252"/>
  <path d="M141.01 270.1H135.81V260.3H140.81V261.3H137.01V264.6H140.51V265.6H137.01V269H141.01V270.1Z" fill="#525252"/>
  <path d="M146.31 266.6H142.61V265.7H146.31V266.6Z" fill="#525252"/>
  <path d="M155.11 269.7C154.41 270.1 153.51 270.3 152.41 270.3C151.01 270.3 149.91 269.9 149.11 269C148.31 268.1 147.81 266.9 147.81 265.5C147.81 263.9 148.31 262.7 149.21 261.7C150.11 260.7 151.31 260.3 152.81 260.3C153.71 260.3 154.51 260.4 155.11 260.7V261.9C154.41 261.5 153.61 261.3 152.81 261.3C151.71 261.3 150.81 261.7 150.11 262.4C149.41 263.1 149.11 264.2 149.11 265.4C149.11 266.6 149.41 267.5 150.11 268.3C150.81 269 151.61 269.4 152.71 269.4C153.71 269.4 154.51 269.2 155.31 268.7V269.7H155.11Z" fill="#525252"/>
  <path d="M159.91 270.2C158.91 270.2 158.01 269.9 157.41 269.2C156.81 268.5 156.51 267.7 156.51 266.6C156.51 265.4 156.81 264.5 157.51 263.8C158.21 263.1 159.01 262.8 160.11 262.8C161.11 262.8 162.01 263.1 162.51 263.8C163.01 264.5 163.41 265.3 163.41 266.5C163.41 267.6 163.11 268.5 162.51 269.2C161.81 269.9 160.91 270.2 159.91 270.2ZM160.01 263.8C159.31 263.8 158.71 264 158.31 264.5C157.91 265 157.71 265.7 157.71 266.5C157.71 267.3 157.91 268 158.31 268.5C158.71 269 159.31 269.2 160.01 269.2C160.71 269.2 161.31 269 161.71 268.5C162.11 268 162.31 267.4 162.31 266.5C162.31 265.6 162.11 265 161.71 264.5C161.31 264 160.71 263.8 160.01 263.8Z" fill="#525252"/>
  <path d="M175.109 270.1H174.009V266.1C174.009 265.3 173.909 264.8 173.609 264.4C173.309 264 173.009 263.9 172.409 263.9C171.909 263.9 171.509 264.1 171.209 264.6C170.909 265.1 170.709 265.6 170.709 266.2V270.2H169.609V266C169.609 264.6 169.109 263.9 168.009 263.9C167.509 263.9 167.109 264.1 166.809 264.5C166.509 264.9 166.309 265.4 166.309 266.1V270.1H165.209V263.1H166.309V264.2C166.809 263.4 167.509 262.9 168.509 262.9C169.009 262.9 169.409 263 169.809 263.3C170.209 263.6 170.409 263.9 170.509 264.3C171.009 263.3 171.809 262.9 172.809 262.9C174.309 262.9 175.109 263.9 175.109 265.8V270.1Z" fill="#525252"/>
  <path d="M187.209 270.1H186.009V266.1C186.009 265.3 185.909 264.8 185.609 264.4C185.309 264 185.009 263.9 184.409 263.9C183.909 263.9 183.509 264.1 183.209 264.6C182.909 265.1 182.709 265.6 182.709 266.2V270.2H181.609V266C181.609 264.6 181.109 263.9 180.009 263.9C179.509 263.9 179.109 264.1 178.809 264.5C178.509 264.9 178.309 265.4 178.309 266.1V270.1H177.209V263.1H178.309V264.2C178.809 263.4 179.509 262.9 180.509 262.9C181.009 262.9 181.409 263 181.809 263.3C182.209 263.6 182.409 263.9 182.509 264.3C183.009 263.3 183.809 262.9 184.809 262.9C186.309 262.9 187.109 263.9 187.109 265.8V270.1H187.209Z" fill="#525252"/>
  <path d="M194.91 266.8H190.01C190.01 267.6 190.21 268.2 190.61 268.6C191.01 269 191.61 269.2 192.31 269.2C193.11 269.2 193.81 268.9 194.51 268.4V269.5C193.91 269.9 193.11 270.2 192.11 270.2C191.11 270.2 190.31 269.9 189.81 269.2C189.21 268.6 189.01 267.7 189.01 266.5C189.01 265.4 189.31 264.5 189.91 263.8C190.51 263.1 191.31 262.8 192.21 262.8C193.11 262.8 193.81 263.1 194.31 263.7C194.81 264.3 195.11 265.1 195.11 266.2V266.8H194.91ZM193.81 265.9C193.81 265.3 193.61 264.7 193.31 264.4C193.01 264.1 192.61 263.9 192.01 263.9C191.51 263.9 191.01 264.1 190.71 264.5C190.41 264.9 190.11 265.4 190.01 266H193.81V265.9Z" fill="#525252"/>
  <path d="M200.21 264.2C200.01 264 199.71 264 199.41 264C198.91 264 198.51 264.2 198.21 264.7C197.91 265.2 197.71 265.8 197.71 266.5V270.1H196.61V263.1H197.71V264.5C197.91 264 198.11 263.6 198.41 263.3C198.71 263 199.11 262.9 199.51 262.9C199.81 262.9 200.01 262.9 200.21 263V264.2Z" fill="#525252"/>
  <path d="M206.109 269.7C205.609 270 204.909 270.2 204.209 270.2C203.209 270.2 202.409 269.9 201.809 269.2C201.209 268.6 200.909 267.7 200.909 266.7C200.909 265.5 201.209 264.6 201.909 263.9C202.609 263.2 203.409 262.9 204.509 262.9C205.109 262.9 205.709 263 206.109 263.2V264.3C205.609 263.9 205.009 263.8 204.409 263.8C203.709 263.8 203.109 264.1 202.609 264.6C202.109 265.1 201.909 265.8 201.909 266.6C201.909 267.4 202.109 268.1 202.509 268.5C202.909 268.9 203.509 269.2 204.209 269.2C204.809 269.2 205.409 269 205.909 268.6V269.7H206.109Z" fill="#525252"/>
  <path d="M213.41 266.8H208.51C208.51 267.6 208.71 268.2 209.11 268.6C209.51 269 210.11 269.2 210.81 269.2C211.61 269.2 212.31 268.9 213.01 268.4V269.5C212.41 269.9 211.61 270.2 210.61 270.2C209.61 270.2 208.81 269.9 208.31 269.2C207.71 268.6 207.51 267.7 207.51 266.5C207.51 265.4 207.81 264.5 208.41 263.8C209.01 263.1 209.81 262.8 210.71 262.8C211.61 262.8 212.31 263.1 212.81 263.7C213.31 264.3 213.61 265.1 213.61 266.2V266.8H213.41ZM212.21 265.9C212.21 265.3 212.01 264.7 211.71 264.4C211.41 264.1 211.01 263.9 210.41 263.9C209.91 263.9 209.41 264.1 209.11 264.5C208.81 264.9 208.51 265.4 208.41 266H212.21V265.9Z" fill="#525252"/>
  <path d="M225.709 269.7C225.009 270.1 224.109 270.3 223.009 270.3C221.609 270.3 220.509 269.9 219.709 269C218.909 268.1 218.409 266.9 218.409 265.5C218.409 263.9 218.909 262.7 219.809 261.7C220.709 260.7 221.909 260.3 223.409 260.3C224.309 260.3 225.109 260.4 225.709 260.7V261.9C225.009 261.5 224.209 261.3 223.409 261.3C222.309 261.3 221.409 261.7 220.709 262.4C220.009 263.1 219.709 264.2 219.709 265.4C219.709 266.6 220.009 267.5 220.709 268.3C221.409 269 222.209 269.4 223.309 269.4C224.309 269.4 225.109 269.2 225.909 268.7V269.7H225.709Z" fill="#525252"/>
  <path d="M233.41 270.1H232.31V266.1C232.31 264.6 231.81 263.9 230.71 263.9C230.21 263.9 229.71 264.1 229.31 264.5C228.91 264.9 228.71 265.5 228.71 266.1V270.1H227.61V259.7H228.71V264.2C229.21 263.3 230.01 262.9 231.01 262.9C232.61 262.9 233.41 263.9 233.41 265.8V270.1Z" fill="#525252"/>
  <path d="M241.109 266.8H236.209C236.209 267.6 236.409 268.2 236.809 268.6C237.209 269 237.809 269.2 238.509 269.2C239.309 269.2 240.009 268.9 240.709 268.4V269.5C240.109 269.9 239.309 270.2 238.309 270.2C237.309 270.2 236.509 269.9 236.009 269.2C235.409 268.6 235.209 267.7 235.209 266.5C235.209 265.4 235.509 264.5 236.109 263.8C236.709 263.1 237.509 262.8 238.409 262.8C239.309 262.8 240.009 263.1 240.509 263.7C241.009 264.3 241.309 265.1 241.309 266.2V266.8H241.109ZM240.009 265.9C240.009 265.3 239.809 264.7 239.509 264.4C239.209 264.1 238.809 263.9 238.209 263.9C237.709 263.9 237.209 264.1 236.909 264.5C236.609 264.9 236.309 265.4 236.209 266H240.009V265.9Z" fill="#525252"/>
  <path d="M247.609 269.7C247.109 270 246.409 270.2 245.709 270.2C244.709 270.2 243.909 269.9 243.309 269.2C242.709 268.6 242.409 267.7 242.409 266.7C242.409 265.5 242.709 264.6 243.409 263.9C244.109 263.2 244.909 262.9 246.009 262.9C246.609 262.9 247.209 263 247.609 263.2V264.3C247.109 263.9 246.509 263.8 245.909 263.8C245.209 263.8 244.609 264.1 244.109 264.6C243.609 265.1 243.409 265.8 243.409 266.6C243.409 267.4 243.609 268.1 244.009 268.5C244.409 268.9 245.009 269.2 245.709 269.2C246.309 269.2 246.909 269 247.409 268.6V269.7H247.609Z" fill="#525252"/>
  <path d="M255.11 270.1H253.51L250.41 266.7V270.1H249.31V259.7H250.41V266.3L253.31 263.1H254.81L251.61 266.5L255.11 270.1Z" fill="#525252"/>
  <path d="M258.91 270.2C257.91 270.2 257.01 269.9 256.41 269.2C255.81 268.5 255.51 267.7 255.51 266.6C255.51 265.4 255.81 264.5 256.51 263.8C257.21 263.1 258.01 262.8 259.11 262.8C260.11 262.8 261.01 263.1 261.51 263.8C262.01 264.5 262.41 265.3 262.41 266.5C262.41 267.6 262.11 268.5 261.51 269.2C260.81 269.9 259.91 270.2 258.91 270.2ZM259.01 263.8C258.31 263.8 257.71 264 257.31 264.5C256.91 265 256.71 265.7 256.71 266.5C256.71 267.3 256.91 268 257.31 268.5C257.71 269 258.31 269.2 259.01 269.2C259.71 269.2 260.31 269 260.71 268.5C261.11 268 261.31 267.4 261.31 266.5C261.31 265.6 261.11 265 260.71 264.5C260.31 264 259.71 263.8 259.01 263.8Z" fill="#525252"/>
  <path d="M269.81 270.1H268.71V269C268.21 269.8 267.51 270.3 266.51 270.3C264.81 270.3 264.01 269.3 264.01 267.3V263.1H265.11V267.1C265.11 268.6 265.71 269.3 266.81 269.3C267.31 269.3 267.81 269.1 268.21 268.7C268.61 268.3 268.71 267.8 268.71 267.1V263.1H269.81V270.1Z" fill="#525252"/>
  <path d="M275.31 270C275.01 270.1 274.71 270.2 274.31 270.2C273.11 270.2 272.51 269.5 272.51 268.1V264H271.31V263H272.51V261.3L273.61 260.9V263H275.41V264H273.61V267.9C273.61 268.4 273.71 268.7 273.81 268.9C273.91 269.1 274.21 269.2 274.61 269.2C274.91 269.2 275.11 269.1 275.31 269V270Z" fill="#525252"/>
  <path d="M288.41 270.1H287.11L286.11 267.4H281.91L280.91 270.1H279.61L283.41 260.3H284.61L288.41 270.1ZM285.71 266.3L284.21 262.1C284.11 262 284.11 261.7 284.01 261.4C284.01 261.7 283.91 261.9 283.81 262.1L282.31 266.3H285.71Z" fill="#525252"/>
  <path d="M291.009 266.4V270.1H289.909V260.3H292.609C293.609 260.3 294.509 260.6 295.009 261.1C295.509 261.6 295.909 262.3 295.909 263.3C295.909 264.3 295.609 265 294.909 265.6C294.209 266.2 293.409 266.5 292.309 266.5H291.009V266.4ZM291.009 261.3V265.3H292.209C293.009 265.3 293.609 265.1 294.009 264.8C294.409 264.4 294.609 263.9 294.609 263.3C294.609 262 293.809 261.4 292.309 261.4H291.009V261.3Z" fill="#525252"/>
  <path d="M298.809 270.1H297.709V260.3H298.809V270.1Z" fill="#525252"/>
  <path d="M301.31 272.3H300.31C301.71 270.6 302.41 268.6 302.41 266.3C302.41 264 301.71 262 300.31 260.3H301.31C302.71 262 303.41 264 303.41 266.4C303.41 268.7 302.71 270.7 301.31 272.3Z" fill="#525252"/>
  <path d="M360.31 254.3H359.01L358.01 251.6H353.81L352.81 254.3H351.51L355.31 244.5H356.51L360.31 254.3ZM357.61 250.5L356.11 246.3C356.01 246.2 356.01 245.9 355.91 245.6C355.91 245.9 355.81 246.1 355.71 246.3L354.21 250.5H357.61Z" fill="#525252"/>
  <path d="M366.409 247.6L362.309 253.3H366.409V254.3H360.709V254L364.809 248.3H361.009V247.3H366.409V247.6Z" fill="#525252"/>
  <path d="M373.61 254.3H372.51V253.2C372.01 254 371.31 254.5 370.31 254.5C368.61 254.5 367.81 253.5 367.81 251.5V247.3H368.91V251.3C368.91 252.8 369.51 253.5 370.61 253.5C371.11 253.5 371.61 253.3 372.01 252.9C372.41 252.5 372.51 252 372.51 251.3V247.3H373.61V254.3Z" fill="#525252"/>
  <path d="M379.509 248.4C379.309 248.2 379.009 248.2 378.709 248.2C378.209 248.2 377.809 248.4 377.509 248.9C377.209 249.4 377.009 250 377.009 250.7V254.3H375.909V247.3H377.009V248.7C377.209 248.2 377.409 247.8 377.709 247.5C378.009 247.2 378.409 247.1 378.809 247.1C379.109 247.1 379.309 247.1 379.509 247.2V248.4Z" fill="#525252"/>
  <path d="M386.109 251H381.209C381.209 251.8 381.409 252.4 381.809 252.8C382.209 253.2 382.809 253.4 383.509 253.4C384.309 253.4 385.009 253.1 385.709 252.6V253.7C385.109 254.1 384.309 254.4 383.309 254.4C382.309 254.4 381.509 254.1 381.009 253.4C380.409 252.8 380.209 251.9 380.209 250.7C380.209 249.6 380.509 248.7 381.109 248C381.709 247.3 382.509 247 383.409 247C384.309 247 385.009 247.3 385.509 247.9C386.009 248.5 386.309 249.3 386.309 250.4V251H386.109ZM385.009 250.1C385.009 249.5 384.809 248.9 384.509 248.6C384.209 248.3 383.809 248.1 383.209 248.1C382.709 248.1 382.209 248.3 381.909 248.7C381.609 249.1 381.309 249.6 381.209 250.2H385.009V250.1Z" fill="#525252"/>
  <path d="M398.509 253.9C397.809 254.3 396.909 254.5 395.809 254.5C394.409 254.5 393.309 254.1 392.509 253.2C391.709 252.3 391.209 251.1 391.209 249.7C391.209 248.1 391.709 246.9 392.609 245.9C393.509 244.9 394.709 244.5 396.209 244.5C397.109 244.5 397.909 244.6 398.509 244.9V246.1C397.809 245.7 397.009 245.5 396.209 245.5C395.109 245.5 394.209 245.9 393.509 246.6C392.809 247.3 392.509 248.4 392.509 249.6C392.509 250.8 392.809 251.7 393.509 252.5C394.209 253.2 395.009 253.6 396.109 253.6C397.109 253.6 397.909 253.4 398.709 252.9V253.9H398.509Z" fill="#525252"/>
  <path d="M403.21 254.4C402.21 254.4 401.31 254.1 400.71 253.4C400.11 252.7 399.81 251.9 399.81 250.8C399.81 249.6 400.11 248.7 400.81 248C401.51 247.3 402.31 247 403.41 247C404.41 247 405.31 247.3 405.81 248C406.31 248.7 406.71 249.5 406.71 250.7C406.71 251.8 406.41 252.7 405.81 253.4C405.21 254.1 404.31 254.4 403.21 254.4ZM403.31 248C402.61 248 402.01 248.2 401.61 248.7C401.21 249.2 401.01 249.9 401.01 250.7C401.01 251.5 401.21 252.2 401.61 252.7C402.01 253.2 402.61 253.4 403.31 253.4C404.01 253.4 404.61 253.2 405.01 252.7C405.41 252.2 405.61 251.6 405.61 250.7C405.61 249.8 405.41 249.2 405.01 248.7C404.61 248.2 404.11 248 403.31 248Z" fill="#525252"/>
  <path d="M408.11 254V252.8C408.71 253.3 409.41 253.5 410.11 253.5C411.11 253.5 411.61 253.2 411.61 252.5C411.61 252.3 411.61 252.2 411.51 252C411.41 251.9 411.31 251.8 411.21 251.7C411.11 251.6 410.91 251.5 410.71 251.4C410.51 251.3 410.31 251.2 410.11 251.2C409.81 251.1 409.51 251 409.31 250.8C409.11 250.7 408.91 250.5 408.71 250.4C408.51 250.2 408.41 250.1 408.31 249.9C408.21 249.7 408.21 249.5 408.21 249.2C408.21 248.9 408.31 248.6 408.41 248.3C408.61 248 408.81 247.8 409.01 247.7C409.31 247.5 409.51 247.4 409.91 247.3C410.31 247.2 410.61 247.2 410.91 247.2C411.51 247.2 412.01 247.3 412.51 247.5V248.6C412.01 248.3 411.41 248.1 410.71 248.1C410.51 248.1 410.31 248.1 410.11 248.2C409.91 248.2 409.81 248.3 409.71 248.4C409.61 248.5 409.51 248.6 409.41 248.7C409.31 248.8 409.31 249 409.31 249.1C409.31 249.3 409.31 249.4 409.41 249.6C409.51 249.8 409.61 249.8 409.71 249.9C409.81 250 410.01 250.1 410.21 250.2C410.41 250.3 410.61 250.4 410.81 250.5C411.11 250.6 411.41 250.7 411.61 250.9C411.81 251 412.11 251.2 412.21 251.3C412.41 251.5 412.51 251.6 412.61 251.8C412.71 252 412.71 252.2 412.71 252.5C412.71 252.8 412.61 253.1 412.51 253.4C412.41 253.7 412.11 253.9 411.91 254C411.71 254.1 411.41 254.3 411.01 254.4C410.61 254.5 410.31 254.5 410.01 254.5C409.31 254.4 408.61 254.3 408.11 254Z" fill="#525252"/>
  <path d="M424.41 254.3H423.31V250.3C423.31 249.5 423.21 249 422.91 248.6C422.61 248.2 422.31 248.1 421.71 248.1C421.21 248.1 420.81 248.3 420.51 248.8C420.21 249.3 420.01 249.8 420.01 250.4V254.4H418.91V250.2C418.91 248.8 418.41 248.1 417.31 248.1C416.81 248.1 416.41 248.3 416.11 248.7C415.81 249.1 415.61 249.6 415.61 250.3V254.3H414.51V247.3H415.61V248.4C416.11 247.6 416.81 247.1 417.81 247.1C418.31 247.1 418.71 247.2 419.11 247.5C419.51 247.8 419.71 248.1 419.81 248.5C420.31 247.5 421.11 247.1 422.11 247.1C423.61 247.1 424.41 248.1 424.41 250V254.3Z" fill="#525252"/>
  <path d="M429.41 254.4C428.41 254.4 427.51 254.1 426.91 253.4C426.31 252.7 426.01 251.9 426.01 250.8C426.01 249.6 426.31 248.7 427.01 248C427.71 247.3 428.51 247 429.61 247C430.61 247 431.51 247.3 432.01 248C432.51 248.7 432.91 249.5 432.91 250.7C432.91 251.8 432.61 252.7 432.01 253.4C431.41 254.1 430.51 254.4 429.41 254.4ZM429.51 248C428.81 248 428.21 248.2 427.81 248.7C427.41 249.2 427.21 249.9 427.21 250.7C427.21 251.5 427.41 252.2 427.81 252.7C428.21 253.2 428.81 253.4 429.51 253.4C430.21 253.4 430.81 253.2 431.21 252.7C431.61 252.2 431.81 251.6 431.81 250.7C431.81 249.8 431.61 249.2 431.21 248.7C430.81 248.2 430.31 248 429.51 248Z" fill="#525252"/>
  <path d="M434.31 254V252.8C434.91 253.3 435.61 253.5 436.31 253.5C437.31 253.5 437.81 253.2 437.81 252.5C437.81 252.3 437.81 252.2 437.71 252C437.61 251.9 437.51 251.8 437.41 251.7C437.31 251.6 437.11 251.5 436.91 251.4C436.71 251.3 436.51 251.2 436.31 251.2C436.01 251.1 435.71 251 435.51 250.8C435.31 250.7 435.11 250.5 434.91 250.4C434.71 250.2 434.61 250.1 434.51 249.9C434.41 249.7 434.41 249.5 434.41 249.2C434.41 248.9 434.51 248.6 434.61 248.3C434.81 248 435.01 247.8 435.21 247.7C435.51 247.5 435.71 247.4 436.11 247.3C436.51 247.2 436.81 247.2 437.11 247.2C437.71 247.2 438.21 247.3 438.71 247.5V248.6C438.21 248.3 437.61 248.1 436.91 248.1C436.71 248.1 436.51 248.1 436.31 248.2C436.11 248.2 436.01 248.3 435.91 248.4C435.81 248.5 435.71 248.6 435.61 248.7C435.51 248.8 435.51 249 435.51 249.1C435.51 249.3 435.51 249.4 435.61 249.6C435.71 249.8 435.81 249.8 435.91 249.9C436.01 250 436.21 250.1 436.41 250.2C436.61 250.3 436.81 250.4 437.01 250.5C437.31 250.6 437.61 250.7 437.81 250.9C438.01 251 438.31 251.2 438.41 251.3C438.61 251.5 438.71 251.6 438.81 251.8C438.91 252 438.91 252.2 438.91 252.5C438.91 252.8 438.81 253.1 438.71 253.4C438.61 253.7 438.31 253.9 438.11 254C437.91 254.1 437.61 254.3 437.21 254.4C436.81 254.5 436.51 254.5 436.21 254.5C435.51 254.4 434.81 254.3 434.31 254Z" fill="#525252"/>
  <path d="M444.709 254.3V244.5H447.409C450.909 244.5 452.609 246.1 452.609 249.3C452.609 250.8 452.109 252 451.209 252.9C450.209 253.8 449.009 254.3 447.309 254.3H444.709ZM445.809 245.5V253.2H447.309C448.609 253.2 449.609 252.9 450.309 252.2C451.009 251.5 451.409 250.5 451.409 249.3C451.409 246.8 450.109 245.5 447.409 245.5H445.809Z" fill="#525252"/>
  <path d="M454.51 254.3V244.5H457.31C458.11 244.5 458.81 244.7 459.31 245.1C459.81 245.5 460.01 246.1 460.01 246.7C460.01 247.3 459.81 247.7 459.51 248.1C459.21 248.5 458.81 248.8 458.31 249C459.01 249.1 459.51 249.3 459.91 249.7C460.31 250.1 460.51 250.7 460.51 251.3C460.51 252.1 460.21 252.8 459.61 253.3C459.01 253.8 458.21 254.1 457.31 254.1H454.51V254.3ZM455.61 245.5V248.7H456.81C457.41 248.7 457.91 248.5 458.31 248.2C458.71 247.9 458.81 247.5 458.81 246.9C458.81 245.9 458.21 245.5 456.91 245.5H455.61ZM455.61 249.7V253.2H457.21C457.91 253.2 458.41 253 458.81 252.7C459.21 252.4 459.41 251.9 459.41 251.4C459.41 250.2 458.61 249.7 457.01 249.7H455.61Z" fill="#525252"/>
  <path d="M351.71 273.3H350.71C349.31 271.7 348.61 269.7 348.61 267.3C348.61 264.9 349.31 262.9 350.71 261.2H351.71C350.31 262.9 349.61 264.9 349.61 267.2C349.61 269.6 350.31 271.6 351.71 273.3Z" fill="#525252"/>
  <path d="M357.11 271.2C355.71 271.2 354.61 270.7 353.81 269.8C353.01 268.9 352.51 267.7 352.51 266.2C352.51 264.6 352.91 263.4 353.81 262.4C354.71 261.4 355.81 261 357.31 261C358.71 261 359.71 261.5 360.61 262.4C361.51 263.3 361.81 264.5 361.81 266C361.81 267.6 361.41 268.9 360.51 269.8C359.61 270.7 358.51 271.2 357.11 271.2ZM357.21 262.1C356.21 262.1 355.31 262.5 354.71 263.2C354.11 263.9 353.71 264.9 353.71 266.1C353.71 267.3 354.01 268.3 354.61 269C355.21 269.7 356.01 270.1 357.11 270.1C358.21 270.1 359.01 269.7 359.61 269C360.21 268.3 360.51 267.3 360.51 266.1C360.51 264.8 360.21 263.8 359.61 263.1C359.01 262.4 358.21 262.1 357.21 262.1Z" fill="#525252"/>
  <path d="M367.21 265.2C367.01 265 366.71 265 366.41 265C365.91 265 365.51 265.2 365.21 265.7C364.91 266.2 364.71 266.8 364.71 267.5V271.1H363.61V264.1H364.71V265.5C364.91 265 365.11 264.6 365.41 264.3C365.71 264 366.11 263.9 366.51 263.9C366.81 263.9 367.01 263.9 367.21 264V265.2Z" fill="#525252"/>
  <path d="M374.21 271.1H373.11V269.9C372.61 270.8 371.81 271.3 370.71 271.3C369.81 271.3 369.11 271 368.61 270.4C368.11 269.8 367.81 268.9 367.81 267.8C367.81 266.6 368.11 265.7 368.71 265C369.31 264.3 370.11 264 371.01 264C372.01 264 372.71 264.4 373.11 265.1V260.8H374.21V271.1ZM373.11 267.9V266.9C373.11 266.3 372.91 265.9 372.51 265.5C372.11 265.1 371.71 264.9 371.11 264.9C370.41 264.9 369.91 265.2 369.51 265.7C369.11 266.2 368.91 266.9 368.91 267.8C368.91 268.6 369.11 269.2 369.51 269.7C369.91 270.2 370.41 270.4 371.01 270.4C371.61 270.4 372.11 270.2 372.51 269.7C372.91 269.2 373.11 268.6 373.11 267.9Z" fill="#525252"/>
  <path d="M382.109 267.8H377.209C377.209 268.6 377.409 269.2 377.809 269.6C378.209 270 378.809 270.2 379.509 270.2C380.309 270.2 381.009 269.9 381.709 269.4V270.5C381.109 270.9 380.309 271.2 379.309 271.2C378.309 271.2 377.509 270.9 377.009 270.2C376.409 269.6 376.209 268.7 376.209 267.5C376.209 266.4 376.509 265.5 377.109 264.8C377.709 264.1 378.509 263.8 379.409 263.8C380.309 263.8 381.009 264.1 381.509 264.7C382.009 265.3 382.309 266.1 382.309 267.2V267.8H382.109ZM381.009 266.9C381.009 266.3 380.809 265.7 380.509 265.4C380.209 265.1 379.809 264.9 379.209 264.9C378.709 264.9 378.209 265.1 377.909 265.5C377.609 265.9 377.309 266.4 377.209 267H381.009V266.9Z" fill="#525252"/>
  <path d="M387.509 265.2C387.309 265 387.009 265 386.709 265C386.209 265 385.809 265.2 385.509 265.7C385.209 266.2 385.009 266.8 385.009 267.5V271.1H383.909V264.1H385.009V265.5C385.209 265 385.409 264.6 385.709 264.3C386.009 264 386.409 263.9 386.809 263.9C387.109 263.9 387.309 263.9 387.509 264V265.2Z" fill="#525252"/>
  <path d="M397.909 271.1H392.709V261.3H397.709V262.3H393.909V265.6H397.409V266.6H393.909V270H397.909V271.1Z" fill="#525252"/>
  <path d="M405.11 264.1L402.31 271.1H401.21L398.51 264.1H399.71L401.51 269.2C401.61 269.6 401.71 269.9 401.71 270.2C401.71 269.8 401.81 269.5 401.91 269.2L403.81 264.1H405.11Z" fill="#525252"/>
  <path d="M411.809 267.8H406.909C406.909 268.6 407.109 269.2 407.509 269.6C407.909 270 408.509 270.2 409.209 270.2C410.009 270.2 410.709 269.9 411.409 269.4V270.5C410.809 270.9 410.009 271.2 409.009 271.2C408.009 271.2 407.209 270.9 406.709 270.2C406.109 269.6 405.909 268.7 405.909 267.5C405.909 266.4 406.209 265.5 406.809 264.8C407.409 264.1 408.209 263.8 409.109 263.8C410.009 263.8 410.709 264.1 411.209 264.7C411.709 265.3 412.009 266.1 412.009 267.2V267.8H411.809ZM410.709 266.9C410.709 266.3 410.509 265.7 410.209 265.4C409.909 265.1 409.509 264.9 408.909 264.9C408.409 264.9 407.909 265.1 407.609 265.5C407.309 265.9 407.009 266.4 406.909 267H410.709V266.9Z" fill="#525252"/>
  <path d="M419.31 271.1H418.21V267.1C418.21 265.6 417.71 264.9 416.61 264.9C416.01 264.9 415.61 265.1 415.21 265.5C414.81 265.9 414.61 266.5 414.61 267.1V271.1H413.51V264.1H414.61V265.3C415.11 264.4 415.91 264 416.91 264C417.71 264 418.31 264.2 418.71 264.7C419.11 265.2 419.31 265.9 419.31 266.8V271.1Z" fill="#525252"/>
  <path d="M424.709 271C424.409 271.1 424.109 271.2 423.709 271.2C422.509 271.2 421.909 270.5 421.909 269.1V265H420.709V264H421.909V262.3L423.009 261.9V264H424.809V265H423.009V268.9C423.009 269.4 423.109 269.7 423.209 269.9C423.309 270.1 423.609 270.2 424.009 270.2C424.309 270.2 424.509 270.1 424.709 270V271Z" fill="#525252"/>
  <path d="M429.709 270.7V269.3C429.909 269.4 430.009 269.6 430.309 269.7C430.609 269.8 430.709 269.9 431.009 270C431.209 270.1 431.509 270.1 431.709 270.2C431.909 270.3 432.209 270.3 432.409 270.3C433.109 270.3 433.609 270.2 434.009 269.9C434.309 269.6 434.509 269.3 434.509 268.8C434.509 268.5 434.409 268.3 434.309 268.1C434.209 267.9 434.009 267.7 433.809 267.6C433.609 267.4 433.409 267.3 433.109 267.1C432.809 267 432.509 266.8 432.209 266.6C431.909 266.4 431.509 266.3 431.209 266.1C430.909 265.9 430.609 265.7 430.409 265.5C430.209 265.3 430.009 265 429.909 264.8C429.809 264.5 429.709 264.2 429.709 263.8C429.709 263.4 429.809 263 430.009 262.6C430.209 262.3 430.509 262 430.809 261.8C431.109 261.6 431.509 261.4 431.909 261.3C432.309 261.2 432.709 261.1 433.109 261.1C434.109 261.1 434.809 261.2 435.209 261.4V262.7C434.609 262.3 433.909 262.1 433.009 262.1C432.709 262.1 432.509 262.1 432.209 262.2C431.909 262.3 431.709 262.3 431.509 262.5C431.309 262.7 431.109 262.8 431.009 263C430.909 263.2 430.809 263.4 430.809 263.7C430.809 264 430.809 264.2 430.909 264.3C431.009 264.4 431.109 264.6 431.309 264.8C431.509 265 431.709 265.1 432.009 265.2C432.309 265.3 432.609 265.5 432.909 265.7C433.309 265.9 433.609 266.1 433.909 266.2C434.209 266.3 434.509 266.6 434.709 266.8C434.909 267 435.109 267.3 435.309 267.6C435.509 267.9 435.509 268.2 435.509 268.6C435.509 269.1 435.409 269.5 435.209 269.8C435.009 270.1 434.809 270.4 434.409 270.6C434.009 270.8 433.709 271 433.309 271.1C432.909 271.2 432.409 271.2 432.009 271.2C431.809 271.2 431.709 271.2 431.409 271.2C431.209 271.2 430.909 271.1 430.709 271.1C430.509 271.1 430.209 271 430.009 270.9C430.009 270.8 429.909 270.8 429.709 270.7Z" fill="#525252"/>
  <path d="M440.31 271C440.01 271.1 439.71 271.2 439.31 271.2C438.11 271.2 437.51 270.5 437.51 269.1V265H436.31V264H437.51V262.3L438.61 261.9V264H440.41V265H438.61V268.9C438.61 269.4 438.71 269.7 438.81 269.9C438.91 270.1 439.21 270.2 439.61 270.2C439.91 270.2 440.11 270.1 440.31 270V271Z" fill="#525252"/>
  <path d="M444.609 271.2C443.609 271.2 442.709 270.9 442.109 270.2C441.509 269.5 441.209 268.7 441.209 267.6C441.209 266.4 441.509 265.5 442.209 264.8C442.909 264.1 443.709 263.8 444.809 263.8C445.809 263.8 446.709 264.1 447.209 264.8C447.709 265.5 448.109 266.3 448.109 267.5C448.109 268.6 447.809 269.5 447.209 270.2C446.509 270.9 445.609 271.2 444.609 271.2ZM444.709 264.8C444.009 264.8 443.409 265 443.009 265.5C442.609 266 442.409 266.7 442.409 267.5C442.409 268.3 442.609 269 443.009 269.5C443.409 270 444.009 270.2 444.709 270.2C445.409 270.2 446.009 270 446.409 269.5C446.809 269 447.009 268.4 447.009 267.5C447.009 266.6 446.809 266 446.409 265.5C446.009 265 445.409 264.8 444.709 264.8Z" fill="#525252"/>
  <path d="M453.509 265.2C453.309 265 453.009 265 452.709 265C452.209 265 451.809 265.2 451.509 265.7C451.209 266.2 451.009 266.8 451.009 267.5V271.1H449.909V264.1H451.009V265.5C451.209 265 451.409 264.6 451.709 264.3C452.009 264 452.409 263.9 452.809 263.9C453.109 263.9 453.309 263.9 453.509 264V265.2Z" fill="#525252"/>
  <path d="M460.21 267.8H455.31C455.31 268.6 455.51 269.2 455.91 269.6C456.31 270 456.91 270.2 457.61 270.2C458.41 270.2 459.11 269.9 459.81 269.4V270.5C459.21 270.9 458.41 271.2 457.41 271.2C456.41 271.2 455.61 270.9 455.11 270.2C454.51 269.6 454.31 268.7 454.31 267.5C454.31 266.4 454.61 265.5 455.21 264.8C455.81 264.1 456.61 263.8 457.51 263.8C458.41 263.8 459.11 264.1 459.61 264.7C460.11 265.3 460.41 266.1 460.41 267.2V267.8H460.21ZM459.01 266.9C459.01 266.3 458.81 265.7 458.51 265.4C458.21 265.1 457.81 264.9 457.21 264.9C456.71 264.9 456.21 265.1 455.91 265.5C455.61 265.9 455.31 266.4 455.21 267H459.01V266.9Z" fill="#525252"/>
  <path d="M461.909 273.3H460.909C462.309 271.6 463.009 269.6 463.009 267.3C463.009 265 462.309 263 460.909 261.3H461.909C463.309 263 464.009 265 464.009 267.4C464.009 269.7 463.309 271.7 461.909 273.3Z" fill="#525252"/>
  <path d="M439.91 168.9C439.21 169.3 438.31 169.5 437.21 169.5C435.81 169.5 434.71 169.1 433.91 168.2C433.11 167.3 432.61 166.1 432.61 164.7C432.61 163.1 433.11 161.9 434.01 160.9C434.91 159.9 436.11 159.5 437.61 159.5C438.51 159.5 439.31 159.6 439.91 159.9V161.1C439.21 160.7 438.41 160.5 437.61 160.5C436.51 160.5 435.61 160.9 434.91 161.6C434.21 162.3 433.91 163.4 433.91 164.6C433.91 165.8 434.21 166.7 434.91 167.5C435.61 168.2 436.41 168.6 437.51 168.6C438.51 168.6 439.31 168.4 440.11 167.9V168.9H439.91Z" fill="#525252"/>
  <path d="M447.51 169.3H446.41V165.3C446.41 163.8 445.91 163.1 444.81 163.1C444.31 163.1 443.81 163.3 443.41 163.7C443.01 164.1 442.81 164.7 442.81 165.3V169.3H441.71V158.9H442.81V163.4C443.31 162.5 444.11 162.1 445.11 162.1C446.71 162.1 447.51 163.1 447.51 165V169.3Z" fill="#525252"/>
  <path d="M454.71 169.3H453.61V168.2C453.11 169 452.41 169.5 451.41 169.5C450.71 169.5 450.21 169.3 449.81 168.9C449.41 168.5 449.21 168 449.21 167.4C449.21 166.1 450.01 165.3 451.51 165.1L453.61 164.8C453.61 163.6 453.11 163 452.21 163C451.41 163 450.61 163.3 449.91 163.9V162.8C450.61 162.4 451.41 162.1 452.31 162.1C453.91 162.1 454.81 163 454.81 164.7V169.3H454.71ZM453.51 165.7L451.81 165.9C451.31 166 450.91 166.1 450.61 166.3C450.31 166.5 450.21 166.8 450.21 167.3C450.21 167.6 450.31 167.9 450.61 168.1C450.81 168.3 451.21 168.4 451.61 168.4C452.21 168.4 452.61 168.2 453.01 167.8C453.41 167.4 453.51 166.9 453.51 166.3V165.7Z" fill="#525252"/>
  <path d="M462.61 169.3H461.51V165.3C461.51 163.8 461.01 163.1 459.91 163.1C459.31 163.1 458.91 163.3 458.51 163.7C458.11 164.1 457.91 164.7 457.91 165.3V169.3H456.81V162.3H457.91V163.5C458.41 162.6 459.21 162.2 460.21 162.2C461.01 162.2 461.61 162.4 462.01 162.9C462.41 163.4 462.61 164.1 462.61 165V169.3Z" fill="#525252"/>
  <path d="M470.71 168.7C470.71 171.3 469.51 172.6 467.01 172.6C466.11 172.6 465.41 172.4 464.71 172.1V171C465.51 171.4 466.21 171.7 467.01 171.7C468.71 171.7 469.61 170.8 469.61 169V168.2C469.11 169.1 468.31 169.5 467.21 169.5C466.31 169.5 465.61 169.2 465.11 168.6C464.61 168 464.31 167.1 464.31 166.1C464.31 164.9 464.61 164 465.21 163.3C465.81 162.6 466.61 162.2 467.51 162.2C468.41 162.2 469.11 162.6 469.61 163.3V162.3H470.71V168.7ZM469.51 166.1V165.1C469.51 164.5 469.31 164.1 468.91 163.7C468.51 163.3 468.11 163.1 467.51 163.1C466.81 163.1 466.31 163.4 465.91 163.9C465.51 164.4 465.31 165.1 465.31 166C465.31 166.8 465.51 167.4 465.91 167.9C466.31 168.4 466.81 168.6 467.41 168.6C468.01 168.6 468.51 168.4 468.91 167.9C469.31 167.4 469.51 166.8 469.51 166.1Z" fill="#525252"/>
  <path d="M478.61 166H473.71C473.71 166.8 473.91 167.4 474.31 167.8C474.71 168.2 475.31 168.4 476.01 168.4C476.81 168.4 477.51 168.1 478.21 167.6V168.7C477.61 169.1 476.81 169.4 475.81 169.4C474.81 169.4 474.01 169.1 473.51 168.4C472.91 167.8 472.71 166.9 472.71 165.7C472.71 164.6 473.01 163.7 473.61 163C474.21 162.3 475.01 162 475.91 162C476.81 162 477.51 162.3 478.01 162.9C478.51 163.5 478.81 164.3 478.81 165.4V166H478.61ZM477.41 165.1C477.41 164.5 477.21 163.9 476.91 163.6C476.61 163.3 476.21 163.1 475.61 163.1C475.11 163.1 474.61 163.3 474.31 163.7C474.01 164.1 473.71 164.6 473.61 165.2H477.41V165.1Z" fill="#525252"/>
  <path d="M489.21 160.5H485.41V163.9H488.91V164.9H485.41V169.2H484.31V159.4H489.31V160.5H489.21Z" fill="#525252"/>
  <path d="M496.61 166H491.71C491.71 166.8 491.91 167.4 492.31 167.8C492.71 168.2 493.31 168.4 494.01 168.4C494.81 168.4 495.51 168.1 496.21 167.6V168.7C495.61 169.1 494.81 169.4 493.81 169.4C492.81 169.4 492.01 169.1 491.51 168.4C490.91 167.8 490.71 166.9 490.71 165.7C490.71 164.6 491.01 163.7 491.61 163C492.21 162.3 493.01 162 493.91 162C494.81 162 495.51 162.3 496.01 162.9C496.51 163.5 496.81 164.3 496.81 165.4V166H496.61ZM495.41 165.1C495.41 164.5 495.21 163.9 494.91 163.6C494.61 163.3 494.21 163.1 493.61 163.1C493.11 163.1 492.61 163.3 492.31 163.7C492.01 164.1 491.71 164.6 491.61 165.2H495.41V165.1Z" fill="#525252"/>
  <path d="M503.91 166H499.01C499.01 166.8 499.21 167.4 499.61 167.8C500.01 168.2 500.61 168.4 501.31 168.4C502.11 168.4 502.81 168.1 503.51 167.6V168.7C502.91 169.1 502.11 169.4 501.11 169.4C500.11 169.4 499.31 169.1 498.81 168.4C498.21 167.8 498.01 166.9 498.01 165.7C498.01 164.6 498.31 163.7 498.91 163C499.51 162.3 500.31 162 501.21 162C502.11 162 502.81 162.3 503.31 162.9C503.81 163.5 504.11 164.3 504.11 165.4V166H503.91ZM502.71 165.1C502.71 164.5 502.51 163.9 502.21 163.6C501.91 163.3 501.51 163.1 500.91 163.1C500.41 163.1 499.91 163.3 499.61 163.7C499.31 164.1 499.01 164.6 498.91 165.2H502.71V165.1Z" fill="#525252"/>
  <path d="M511.51 169.3H510.41V168.1C509.91 169 509.11 169.5 508.01 169.5C507.11 169.5 506.41 169.2 505.91 168.6C505.41 168 505.11 167.1 505.11 166C505.11 164.8 505.41 163.9 506.01 163.2C506.61 162.5 507.41 162.2 508.31 162.2C509.31 162.2 510.01 162.6 510.41 163.3V159H511.51V169.3ZM510.41 166.1V165.1C510.41 164.5 510.21 164.1 509.81 163.7C509.41 163.3 509.01 163.1 508.41 163.1C507.71 163.1 507.21 163.4 506.81 163.9C506.41 164.4 506.21 165.1 506.21 166C506.21 166.8 506.41 167.4 506.81 167.9C507.21 168.4 507.71 168.6 508.31 168.6C508.91 168.6 509.41 168.4 509.81 167.9C510.21 167.4 510.41 166.8 510.41 166.1Z" fill="#525252"/>
  <path d="M685.009 414.3H683.709L682.709 411.6H678.509L677.509 414.3H676.209L680.009 404.5H681.209L685.009 414.3ZM682.309 410.5L680.809 406.3C680.709 406.2 680.709 405.9 680.609 405.6C680.609 405.9 680.509 406.1 680.409 406.3L678.909 410.5H682.309Z" fill="#525252"/>
  <path d="M691.11 407.6L687.01 413.3H691.11V414.3H685.41V414L689.51 408.3H685.71V407.3H691.11V407.6Z" fill="#525252"/>
  <path d="M698.21 414.3H697.11V413.2C696.61 414 695.91 414.5 694.91 414.5C693.21 414.5 692.41 413.5 692.41 411.5V407.3H693.51V411.3C693.51 412.8 694.11 413.5 695.21 413.5C695.71 413.5 696.21 413.3 696.61 412.9C697.01 412.5 697.11 412 697.11 411.3V407.3H698.21V414.3Z" fill="#525252"/>
  <path d="M704.209 408.4C704.009 408.2 703.709 408.2 703.409 408.2C702.909 408.2 702.509 408.4 702.209 408.9C701.909 409.4 701.709 410 701.709 410.7V414.3H700.609V407.3H701.709V408.7C701.909 408.2 702.109 407.8 702.409 407.5C702.709 407.2 703.109 407.1 703.509 407.1C703.809 407.1 704.009 407.1 704.209 407.2V408.4Z" fill="#525252"/>
  <path d="M710.81 411H705.91C705.91 411.8 706.11 412.4 706.51 412.8C706.91 413.2 707.51 413.4 708.21 413.4C709.01 413.4 709.71 413.1 710.41 412.6V413.7C709.81 414.1 709.01 414.4 708.01 414.4C707.01 414.4 706.21 414.1 705.71 413.4C705.11 412.8 704.91 411.9 704.91 410.7C704.91 409.6 705.21 408.7 705.81 408C706.41 407.3 707.21 407 708.11 407C709.01 407 709.71 407.3 710.21 407.9C710.71 408.5 711.01 409.3 711.01 410.4V411H710.81ZM709.71 410.1C709.71 409.5 709.51 408.9 709.21 408.6C708.91 408.3 708.51 408.1 707.91 408.1C707.41 408.1 706.91 408.3 706.61 408.7C706.31 409.1 706.01 409.6 705.91 410.2H709.71V410.1Z" fill="#525252"/>
  <path d="M721.509 405.5H717.709V408.9H721.209V409.9H717.709V414.2H716.609V404.4H721.609V405.5H721.509Z" fill="#525252"/>
  <path d="M728.81 414.3H727.71V413.2C727.21 414 726.51 414.5 725.51 414.5C723.81 414.5 723.01 413.5 723.01 411.5V407.3H724.11V411.3C724.11 412.8 724.71 413.5 725.81 413.5C726.31 413.5 726.81 413.3 727.21 412.9C727.61 412.5 727.71 412 727.71 411.3V407.3H728.81V414.3Z" fill="#525252"/>
  <path d="M736.909 414.3H735.809V410.3C735.809 408.8 735.309 408.1 734.209 408.1C733.609 408.1 733.209 408.3 732.809 408.7C732.409 409.1 732.209 409.7 732.209 410.3V414.3H731.109V407.3H732.209V408.5C732.709 407.6 733.509 407.2 734.509 407.2C735.309 407.2 735.909 407.4 736.309 407.9C736.709 408.4 736.909 409.1 736.909 410V414.3Z" fill="#525252"/>
  <path d="M743.809 413.9C743.309 414.2 742.609 414.4 741.909 414.4C740.909 414.4 740.109 414.1 739.509 413.4C738.909 412.8 738.609 411.9 738.609 410.9C738.609 409.7 738.909 408.8 739.609 408.1C740.309 407.4 741.109 407.1 742.209 407.1C742.809 407.1 743.409 407.2 743.809 407.4V408.5C743.309 408.1 742.709 408 742.109 408C741.409 408 740.809 408.3 740.309 408.8C739.809 409.3 739.609 410 739.609 410.8C739.609 411.6 739.809 412.3 740.209 412.7C740.609 413.1 741.209 413.4 741.909 413.4C742.509 413.4 743.109 413.2 743.609 412.8V413.9H743.809Z" fill="#525252"/>
  <path d="M748.709 414.2C748.409 414.3 748.109 414.4 747.709 414.4C746.509 414.4 745.909 413.7 745.909 412.3V408.2H744.709V407.2H745.909V405.5L747.009 405.1V407.2H748.809V408.2H747.009V412.1C747.009 412.6 747.109 412.9 747.209 413.1C747.309 413.3 747.609 413.4 748.009 413.4C748.309 413.4 748.509 413.3 748.709 413.2V414.2Z" fill="#525252"/>
  <path d="M750.809 405.5C750.609 405.5 750.409 405.4 750.309 405.3C750.209 405.2 750.109 405 750.109 404.8C750.109 404.6 750.209 404.4 750.309 404.3C750.409 404.2 750.609 404.1 750.809 404.1C751.009 404.1 751.209 404.2 751.309 404.3C751.409 404.4 751.509 404.6 751.509 404.8C751.509 405 751.409 405.2 751.309 405.3C751.209 405.4 751.009 405.5 750.809 405.5ZM751.409 414.3H750.309V407.3H751.409V414.3Z" fill="#525252"/>
  <path d="M756.509 414.4C755.509 414.4 754.609 414.1 754.009 413.4C753.409 412.7 753.109 411.9 753.109 410.8C753.109 409.6 753.409 408.7 754.109 408C754.809 407.3 755.609 407 756.709 407C757.709 407 758.609 407.3 759.109 408C759.609 408.7 760.009 409.5 760.009 410.7C760.009 411.8 759.709 412.7 759.109 413.4C758.509 414.1 757.609 414.4 756.509 414.4ZM756.609 408C755.909 408 755.309 408.2 754.909 408.7C754.509 409.2 754.309 409.9 754.309 410.7C754.309 411.5 754.509 412.2 754.909 412.7C755.309 413.2 755.909 413.4 756.609 413.4C757.309 413.4 757.909 413.2 758.309 412.7C758.709 412.2 758.909 411.6 758.909 410.7C758.909 409.8 758.709 409.2 758.309 408.7C757.909 408.2 757.409 408 756.609 408Z" fill="#525252"/>
  <path d="M767.61 414.3H766.51V410.3C766.51 408.8 766.01 408.1 764.91 408.1C764.31 408.1 763.91 408.3 763.51 408.7C763.11 409.1 762.91 409.7 762.91 410.3V414.3H761.81V407.3H762.91V408.5C763.41 407.6 764.21 407.2 765.21 407.2C766.01 407.2 766.61 407.4 767.01 407.9C767.41 408.4 767.61 409.1 767.61 410V414.3Z" fill="#525252"/>
  <path d="M769.31 414V412.8C769.91 413.3 770.61 413.5 771.31 413.5C772.31 413.5 772.81 413.2 772.81 412.5C772.81 412.3 772.81 412.2 772.71 412C772.61 411.9 772.51 411.8 772.41 411.7C772.31 411.6 772.11 411.5 771.91 411.4C771.71 411.3 771.51 411.2 771.31 411.2C771.01 411.1 770.71 411 770.51 410.8C770.31 410.7 770.11 410.5 769.91 410.4C769.71 410.2 769.61 410.1 769.51 409.9C769.41 409.7 769.41 409.5 769.41 409.2C769.41 408.9 769.51 408.6 769.61 408.3C769.81 408 770.01 407.8 770.21 407.7C770.51 407.5 770.71 407.4 771.11 407.3C771.51 407.2 771.81 407.2 772.11 407.2C772.71 407.2 773.21 407.3 773.71 407.5V408.6C773.21 408.3 772.61 408.1 771.91 408.1C771.71 408.1 771.51 408.1 771.31 408.2C771.11 408.2 771.01 408.3 770.91 408.4C770.81 408.5 770.71 408.6 770.61 408.7C770.51 408.8 770.51 409 770.51 409.1C770.51 409.3 770.51 409.4 770.61 409.6C770.71 409.8 770.81 409.8 770.91 409.9C771.01 410 771.21 410.1 771.41 410.2C771.61 410.3 771.81 410.4 772.01 410.5C772.31 410.6 772.61 410.7 772.81 410.9C773.01 411 773.31 411.2 773.41 411.3C773.61 411.5 773.71 411.6 773.81 411.8C773.91 412 773.91 412.2 773.91 412.5C773.91 412.8 773.81 413.1 773.71 413.4C773.61 413.7 773.31 413.9 773.11 414C772.91 414.1 772.61 414.3 772.21 414.4C771.81 414.5 771.51 414.5 771.21 414.5C770.51 414.4 769.91 414.3 769.31 414Z" fill="#525252"/>
  <path d="M643.309 433.3H642.309C640.909 431.7 640.209 429.7 640.209 427.3C640.209 424.9 640.909 422.9 642.309 421.2H643.309C641.909 422.9 641.209 424.9 641.209 427.2C641.109 429.6 641.809 431.6 643.309 433.3Z" fill="#525252"/>
  <path d="M654.71 431.1H653.61V424.5C653.61 424 653.61 423.3 653.71 422.6C653.61 423 653.51 423.4 653.41 423.6L650.11 431.1H649.51L646.21 423.6C646.11 423.4 646.01 423 645.91 422.6C645.91 423 646.01 423.6 646.01 424.5V431.1H644.91V421.3H646.41L649.41 428.1C649.61 428.6 649.81 429 649.91 429.3C650.11 428.8 650.31 428.4 650.41 428.1L653.51 421.3H654.91V431.1H654.71Z" fill="#525252"/>
  <path d="M657.71 422.3C657.51 422.3 657.31 422.2 657.21 422.1C657.11 422 657.01 421.8 657.01 421.6C657.01 421.4 657.11 421.2 657.21 421.1C657.31 421 657.51 420.9 657.71 420.9C657.91 420.9 658.11 421 658.21 421.1C658.31 421.2 658.41 421.4 658.41 421.6C658.41 421.8 658.31 422 658.21 422.1C658.11 422.2 657.91 422.3 657.71 422.3ZM658.21 431.1H657.11V424.1H658.21V431.1Z" fill="#525252"/>
  <path d="M665.309 430.7C664.809 431 664.109 431.2 663.409 431.2C662.409 431.2 661.609 430.9 661.009 430.2C660.409 429.6 660.109 428.7 660.109 427.7C660.109 426.5 660.409 425.6 661.109 424.9C661.809 424.2 662.609 423.9 663.709 423.9C664.309 423.9 664.909 424 665.309 424.2V425.3C664.809 424.9 664.209 424.8 663.609 424.8C662.909 424.8 662.309 425.1 661.809 425.6C661.309 426.1 661.109 426.8 661.109 427.6C661.109 428.4 661.309 429.1 661.709 429.5C662.109 429.9 662.709 430.2 663.409 430.2C664.009 430.2 664.609 430 665.109 429.6V430.7H665.309Z" fill="#525252"/>
  <path d="M670.61 425.2C670.41 425 670.11 425 669.81 425C669.31 425 668.91 425.2 668.61 425.7C668.31 426.2 668.11 426.8 668.11 427.5V431.1H667.01V424.1H668.11V425.5C668.31 425 668.51 424.6 668.81 424.3C669.11 424 669.51 423.9 669.91 423.9C670.21 423.9 670.41 423.9 670.61 424V425.2Z" fill="#525252"/>
  <path d="M674.609 431.2C673.609 431.2 672.709 430.9 672.109 430.2C671.509 429.5 671.209 428.7 671.209 427.6C671.209 426.4 671.509 425.5 672.209 424.8C672.909 424.1 673.709 423.8 674.809 423.8C675.809 423.8 676.709 424.1 677.209 424.8C677.709 425.5 678.109 426.3 678.109 427.5C678.109 428.6 677.809 429.5 677.209 430.2C676.509 430.9 675.609 431.2 674.609 431.2ZM674.709 424.8C674.009 424.8 673.409 425 673.009 425.5C672.609 426 672.409 426.7 672.409 427.5C672.409 428.3 672.609 429 673.009 429.5C673.409 430 674.009 430.2 674.709 430.2C675.409 430.2 676.009 430 676.409 429.5C676.809 429 677.009 428.4 677.009 427.5C677.009 426.6 676.809 426 676.409 425.5C676.009 425 675.409 424.8 674.709 424.8Z" fill="#525252"/>
  <path d="M679.41 430.8V429.6C680.01 430.1 680.71 430.3 681.41 430.3C682.41 430.3 682.91 430 682.91 429.3C682.91 429.1 682.91 429 682.81 428.8C682.71 428.7 682.61 428.6 682.51 428.5C682.41 428.4 682.21 428.3 682.01 428.2C681.81 428.1 681.61 428 681.41 428C681.11 427.9 680.81 427.8 680.61 427.6C680.41 427.5 680.21 427.3 680.01 427.2C679.81 427 679.71 426.9 679.61 426.7C679.51 426.5 679.51 426.3 679.51 426C679.51 425.7 679.61 425.4 679.71 425.1C679.91 424.8 680.11 424.6 680.31 424.5C680.61 424.3 680.81 424.2 681.21 424.1C681.61 424 681.91 424 682.21 424C682.81 424 683.31 424.1 683.81 424.3V425.4C683.31 425.1 682.71 424.9 682.01 424.9C681.81 424.9 681.61 424.9 681.41 425C681.21 425 681.11 425.1 681.01 425.2C680.91 425.3 680.81 425.4 680.71 425.5C680.61 425.6 680.61 425.8 680.61 425.9C680.61 426.1 680.61 426.2 680.71 426.4C680.81 426.6 680.91 426.6 681.01 426.7C681.11 426.8 681.31 426.9 681.51 427C681.71 427.1 681.91 427.2 682.11 427.3C682.41 427.4 682.71 427.5 682.91 427.7C683.11 427.8 683.41 428 683.51 428.1C683.71 428.3 683.81 428.4 683.91 428.6C684.01 428.8 684.01 429 684.01 429.3C684.01 429.6 683.91 429.9 683.81 430.2C683.71 430.5 683.41 430.7 683.21 430.8C683.01 430.9 682.71 431.1 682.31 431.2C681.91 431.3 681.61 431.3 681.31 431.3C680.61 431.2 680.01 431.1 679.41 430.8Z" fill="#525252"/>
  <path d="M691.41 427.8H686.51C686.51 428.6 686.71 429.2 687.11 429.6C687.51 430 688.11 430.2 688.81 430.2C689.61 430.2 690.31 429.9 691.01 429.4V430.5C690.41 430.9 689.61 431.2 688.61 431.2C687.61 431.2 686.81 430.9 686.31 430.2C685.71 429.6 685.51 428.7 685.51 427.5C685.51 426.4 685.81 425.5 686.41 424.8C687.01 424.1 687.81 423.8 688.71 423.8C689.61 423.8 690.31 424.1 690.81 424.7C691.31 425.3 691.61 426.1 691.61 427.2V427.8H691.41ZM690.31 426.9C690.31 426.3 690.11 425.7 689.81 425.4C689.51 425.1 689.11 424.9 688.51 424.9C688.01 424.9 687.51 425.1 687.21 425.5C686.91 425.9 686.61 426.4 686.51 427H690.31V426.9Z" fill="#525252"/>
  <path d="M696.809 425.2C696.609 425 696.309 425 696.009 425C695.509 425 695.109 425.2 694.809 425.7C694.509 426.2 694.309 426.8 694.309 427.5V431.1H693.209V424.1H694.309V425.5C694.509 425 694.709 424.6 695.009 424.3C695.309 424 695.709 423.9 696.109 423.9C696.409 423.9 696.609 423.9 696.809 424V425.2Z" fill="#525252"/>
  <path d="M704.11 424.1L701.31 431.1H700.21L697.51 424.1H698.71L700.51 429.2C700.61 429.6 700.71 429.9 700.71 430.2C700.71 429.8 700.81 429.5 700.91 429.2L702.81 424.1H704.11Z" fill="#525252"/>
  <path d="M705.809 422.3C705.609 422.3 705.409 422.2 705.309 422.1C705.209 422 705.109 421.8 705.109 421.6C705.109 421.4 705.209 421.2 705.309 421.1C705.409 421 705.609 420.9 705.809 420.9C706.009 420.9 706.209 421 706.309 421.1C706.409 421.2 706.509 421.4 706.509 421.6C706.509 421.8 706.409 422 706.309 422.1C706.209 422.2 706.009 422.3 705.809 422.3ZM706.409 431.1H705.309V424.1H706.409V431.1Z" fill="#525252"/>
  <path d="M713.409 430.7C712.909 431 712.209 431.2 711.509 431.2C710.509 431.2 709.709 430.9 709.109 430.2C708.509 429.6 708.209 428.7 708.209 427.7C708.209 426.5 708.509 425.6 709.209 424.9C709.909 424.2 710.709 423.9 711.809 423.9C712.409 423.9 713.009 424 713.409 424.2V425.3C712.909 424.9 712.309 424.8 711.709 424.8C711.009 424.8 710.409 425.1 709.909 425.6C709.409 426.1 709.209 426.8 709.209 427.6C709.209 428.4 709.409 429.1 709.809 429.5C710.209 429.9 710.809 430.2 711.509 430.2C712.109 430.2 712.709 430 713.209 429.6V430.7H713.409Z" fill="#525252"/>
  <path d="M720.71 427.8H715.81C715.81 428.6 716.01 429.2 716.41 429.6C716.81 430 717.41 430.2 718.11 430.2C718.91 430.2 719.61 429.9 720.31 429.4V430.5C719.71 430.9 718.91 431.2 717.91 431.2C716.91 431.2 716.11 430.9 715.61 430.2C715.01 429.6 714.81 428.7 714.81 427.5C714.81 426.4 715.11 425.5 715.71 424.8C716.31 424.1 717.11 423.8 718.01 423.8C718.91 423.8 719.61 424.1 720.11 424.7C720.61 425.3 720.91 426.1 720.91 427.2V427.8H720.71ZM719.61 426.9C719.61 426.3 719.41 425.7 719.11 425.4C718.81 425.1 718.41 424.9 717.81 424.9C717.31 424.9 716.81 425.1 716.51 425.5C716.21 425.9 715.91 426.4 715.81 427H719.61V426.9Z" fill="#525252"/>
  <path d="M734.309 431.1H732.909L727.909 423.3C727.809 423.1 727.709 422.9 727.609 422.7C727.609 422.9 727.709 423.4 727.709 424V431.1H726.609V421.3H728.109L733.009 429C733.209 429.3 733.309 429.5 733.409 429.7C733.409 429.4 733.309 428.9 733.309 428.3V421.4H734.409V431.1H734.309Z" fill="#525252"/>
  <path d="M737.11 425.4C736.91 425.4 736.71 425.3 736.61 425.2C736.51 425.1 736.41 424.9 736.41 424.7C736.41 424.5 736.51 424.3 736.61 424.2C736.71 424.1 736.91 424 737.11 424C737.31 424 737.51 424.1 737.61 424.2C737.71 424.3 737.81 424.5 737.81 424.7C737.81 424.9 737.71 425.1 737.61 425.2C737.51 425.3 737.31 425.4 737.11 425.4ZM737.11 431.2C736.91 431.2 736.71 431.1 736.61 431C736.51 430.9 736.41 430.7 736.41 430.5C736.41 430.3 736.51 430.1 736.61 430C736.71 429.8 736.91 429.8 737.11 429.8C737.31 429.8 737.51 429.9 737.61 430C737.81 430.2 737.81 430.3 737.81 430.5C737.81 430.7 737.71 430.9 737.61 431C737.51 431.1 737.31 431.2 737.11 431.2Z" fill="#525252"/>
  <path d="M748.71 422.3H744.91V425.7H748.41V426.7H744.91V431H743.81V421.2H748.81V422.3H748.71Z" fill="#525252"/>
  <path d="M756.11 431.1H755.01V430C754.51 430.8 753.81 431.3 752.81 431.3C751.11 431.3 750.31 430.3 750.31 428.3V424.1H751.41V428.1C751.41 429.6 752.01 430.3 753.11 430.3C753.61 430.3 754.11 430.1 754.51 429.7C754.91 429.3 755.01 428.8 755.01 428.1V424.1H756.11V431.1Z" fill="#525252"/>
  <path d="M759.51 431.1H758.41V420.7H759.51V431.1Z" fill="#525252"/>
  <path d="M762.91 431.1H761.81V420.7H762.91V431.1Z" fill="#525252"/>
  <path d="M768.61 421.7C768.41 421.6 768.11 421.5 767.91 421.5C767.11 421.5 766.71 422 766.71 423V424.1H768.31V425.1H766.71V431.1H765.61V425.1H764.41V424.1H765.61V423C765.61 422.3 765.81 421.7 766.21 421.3C766.61 420.9 767.21 420.7 767.81 420.7C768.11 420.7 768.41 420.7 768.61 420.8V421.7Z" fill="#525252"/>
  <path d="M770.11 422.3C769.91 422.3 769.71 422.2 769.61 422.1C769.51 422 769.41 421.8 769.41 421.6C769.41 421.4 769.51 421.2 769.61 421.1C769.71 421 769.91 420.9 770.11 420.9C770.31 420.9 770.51 421 770.61 421.1C770.71 421.2 770.81 421.4 770.81 421.6C770.81 421.8 770.71 422 770.61 422.1C770.51 422.2 770.31 422.3 770.11 422.3ZM770.71 431.1H769.61V424.1H770.71V431.1Z" fill="#525252"/>
  <path d="M774.01 431.1H772.91V420.7H774.01V431.1Z" fill="#525252"/>
  <path d="M786.31 431.1H785.21V427.1C785.21 426.3 785.11 425.8 784.81 425.4C784.51 425 784.21 424.9 783.61 424.9C783.11 424.9 782.71 425.1 782.41 425.6C782.11 426.1 781.91 426.6 781.91 427.2V431.2H780.81V427C780.81 425.6 780.31 424.9 779.21 424.9C778.71 424.9 778.31 425.1 778.01 425.5C777.71 425.9 777.51 426.4 777.51 427.1V431.1H776.41V424.1H777.51V425.2C778.01 424.4 778.71 423.9 779.71 423.9C780.21 423.9 780.61 424 781.01 424.3C781.41 424.6 781.61 424.9 781.71 425.3C782.21 424.3 783.01 423.9 784.01 423.9C785.51 423.9 786.31 424.9 786.31 426.8V431.1Z" fill="#525252"/>
  <path d="M794.009 427.8H789.109C789.109 428.6 789.309 429.2 789.709 429.6C790.109 430 790.709 430.2 791.409 430.2C792.209 430.2 792.909 429.9 793.609 429.4V430.5C793.009 430.9 792.209 431.2 791.209 431.2C790.209 431.2 789.409 430.9 788.909 430.2C788.309 429.6 788.109 428.7 788.109 427.5C788.109 426.4 788.409 425.5 789.009 424.8C789.609 424.1 790.409 423.8 791.309 423.8C792.209 423.8 792.909 424.1 793.409 424.7C793.909 425.3 794.209 426.1 794.209 427.2V427.8H794.009ZM792.909 426.9C792.909 426.3 792.709 425.7 792.409 425.4C792.109 425.1 791.709 424.9 791.109 424.9C790.609 424.9 790.109 425.1 789.809 425.5C789.509 425.9 789.209 426.4 789.109 427H792.909V426.9Z" fill="#525252"/>
  <path d="M801.509 431.1H800.409V427.1C800.409 425.6 799.909 424.9 798.809 424.9C798.209 424.9 797.809 425.1 797.409 425.5C797.009 425.9 796.809 426.5 796.809 427.1V431.1H795.709V424.1H796.809V425.3C797.309 424.4 798.109 424 799.109 424C799.909 424 800.509 424.2 800.909 424.7C801.309 425.2 801.509 425.9 801.509 426.8V431.1Z" fill="#525252"/>
  <path d="M806.91 431C806.61 431.1 806.31 431.2 805.91 431.2C804.71 431.2 804.11 430.5 804.11 429.1V425H802.91V424H804.11V422.3L805.21 421.9V424H807.01V425H805.21V428.9C805.21 429.4 805.31 429.7 805.41 429.9C805.51 430.1 805.81 430.2 806.21 430.2C806.51 430.2 806.71 430.1 806.91 430V431Z" fill="#525252"/>
  <path d="M808.41 433.3H807.41C808.81 431.6 809.51 429.6 809.51 427.3C809.51 425 808.81 423 807.41 421.3H808.41C809.81 423 810.51 425 810.51 427.4C810.51 429.7 809.81 431.7 808.41 433.3Z" fill="#525252"/>
  <path d="M685.009 254.3H683.709L682.709 251.6H678.509L677.509 254.3H676.209L680.009 244.5H681.209L685.009 254.3ZM682.309 250.5L680.809 246.3C680.709 246.2 680.709 245.9 680.609 245.6C680.609 245.9 680.509 246.1 680.409 246.3L678.909 250.5H682.309Z" fill="#525252"/>
  <path d="M691.11 247.6L687.01 253.3H691.11V254.3H685.41V254L689.51 248.3H685.71V247.3H691.11V247.6Z" fill="#525252"/>
  <path d="M698.21 254.3H697.11V253.2C696.61 254 695.91 254.5 694.91 254.5C693.21 254.5 692.41 253.5 692.41 251.5V247.3H693.51V251.3C693.51 252.8 694.11 253.5 695.21 253.5C695.71 253.5 696.21 253.3 696.61 252.9C697.01 252.5 697.11 252 697.11 251.3V247.3H698.21V254.3Z" fill="#525252"/>
  <path d="M704.209 248.4C704.009 248.2 703.709 248.2 703.409 248.2C702.909 248.2 702.509 248.4 702.209 248.9C701.909 249.4 701.709 250 701.709 250.7V254.3H700.609V247.3H701.709V248.7C701.909 248.2 702.109 247.8 702.409 247.5C702.709 247.2 703.109 247.1 703.509 247.1C703.809 247.1 704.009 247.1 704.209 247.2V248.4Z" fill="#525252"/>
  <path d="M710.81 251H705.91C705.91 251.8 706.11 252.4 706.51 252.8C706.91 253.2 707.51 253.4 708.21 253.4C709.01 253.4 709.71 253.1 710.41 252.6V253.7C709.81 254.1 709.01 254.4 708.01 254.4C707.01 254.4 706.21 254.1 705.71 253.4C705.11 252.8 704.91 251.9 704.91 250.7C704.91 249.6 705.21 248.7 705.81 248C706.41 247.3 707.21 247 708.11 247C709.01 247 709.71 247.3 710.21 247.9C710.71 248.5 711.01 249.3 711.01 250.4V251H710.81ZM709.71 250.1C709.71 249.5 709.51 248.9 709.21 248.6C708.91 248.3 708.51 248.1 707.91 248.1C707.41 248.1 706.91 248.3 706.61 248.7C706.31 249.1 706.01 249.6 705.91 250.2H709.71V250.1Z" fill="#525252"/>
  <path d="M721.509 245.5H717.709V248.9H721.209V249.9H717.709V254.2H716.609V244.4H721.609V245.5H721.509Z" fill="#525252"/>
  <path d="M728.81 254.3H727.71V253.2C727.21 254 726.51 254.5 725.51 254.5C723.81 254.5 723.01 253.5 723.01 251.5V247.3H724.11V251.3C724.11 252.8 724.71 253.5 725.81 253.5C726.31 253.5 726.81 253.3 727.21 252.9C727.61 252.5 727.71 252 727.71 251.3V247.3H728.81V254.3Z" fill="#525252"/>
  <path d="M736.909 254.3H735.809V250.3C735.809 248.8 735.309 248.1 734.209 248.1C733.609 248.1 733.209 248.3 732.809 248.7C732.409 249.1 732.209 249.7 732.209 250.3V254.3H731.109V247.3H732.209V248.5C732.709 247.6 733.509 247.2 734.509 247.2C735.309 247.2 735.909 247.4 736.309 247.9C736.709 248.4 736.909 249.1 736.909 250V254.3Z" fill="#525252"/>
  <path d="M743.809 253.9C743.309 254.2 742.609 254.4 741.909 254.4C740.909 254.4 740.109 254.1 739.509 253.4C738.909 252.8 738.609 251.9 738.609 250.9C738.609 249.7 738.909 248.8 739.609 248.1C740.309 247.4 741.109 247.1 742.209 247.1C742.809 247.1 743.409 247.2 743.809 247.4V248.5C743.309 248.1 742.709 248 742.109 248C741.409 248 740.809 248.3 740.309 248.8C739.809 249.3 739.609 250 739.609 250.8C739.609 251.6 739.809 252.3 740.209 252.7C740.609 253.1 741.209 253.4 741.909 253.4C742.509 253.4 743.109 253.2 743.609 252.8V253.9H743.809Z" fill="#525252"/>
  <path d="M748.709 254.2C748.409 254.3 748.109 254.4 747.709 254.4C746.509 254.4 745.909 253.7 745.909 252.3V248.2H744.709V247.2H745.909V245.5L747.009 245.1V247.2H748.809V248.2H747.009V252.1C747.009 252.6 747.109 252.9 747.209 253.1C747.309 253.3 747.609 253.4 748.009 253.4C748.309 253.4 748.509 253.3 748.709 253.2V254.2Z" fill="#525252"/>
  <path d="M750.809 245.5C750.609 245.5 750.409 245.4 750.309 245.3C750.209 245.2 750.109 245 750.109 244.8C750.109 244.6 750.209 244.4 750.309 244.3C750.409 244.2 750.609 244.1 750.809 244.1C751.009 244.1 751.209 244.2 751.309 244.3C751.409 244.4 751.509 244.6 751.509 244.8C751.509 245 751.409 245.2 751.309 245.3C751.209 245.4 751.009 245.5 750.809 245.5ZM751.409 254.3H750.309V247.3H751.409V254.3Z" fill="#525252"/>
  <path d="M756.509 254.4C755.509 254.4 754.609 254.1 754.009 253.4C753.409 252.7 753.109 251.9 753.109 250.8C753.109 249.6 753.409 248.7 754.109 248C754.809 247.3 755.609 247 756.709 247C757.709 247 758.609 247.3 759.109 248C759.609 248.7 760.009 249.5 760.009 250.7C760.009 251.8 759.709 252.7 759.109 253.4C758.509 254.1 757.609 254.4 756.509 254.4ZM756.609 248C755.909 248 755.309 248.2 754.909 248.7C754.509 249.2 754.309 249.9 754.309 250.7C754.309 251.5 754.509 252.2 754.909 252.7C755.309 253.2 755.909 253.4 756.609 253.4C757.309 253.4 757.909 253.2 758.309 252.7C758.709 252.2 758.909 251.6 758.909 250.7C758.909 249.8 758.709 249.2 758.309 248.7C757.909 248.2 757.409 248 756.609 248Z" fill="#525252"/>
  <path d="M767.61 254.3H766.51V250.3C766.51 248.8 766.01 248.1 764.91 248.1C764.31 248.1 763.91 248.3 763.51 248.7C763.11 249.1 762.91 249.7 762.91 250.3V254.3H761.81V247.3H762.91V248.5C763.41 247.6 764.21 247.2 765.21 247.2C766.01 247.2 766.61 247.4 767.01 247.9C767.41 248.4 767.61 249.1 767.61 250V254.3Z" fill="#525252"/>
  <path d="M769.31 254V252.8C769.91 253.3 770.61 253.5 771.31 253.5C772.31 253.5 772.81 253.2 772.81 252.5C772.81 252.3 772.81 252.2 772.71 252C772.61 251.9 772.51 251.8 772.41 251.7C772.31 251.6 772.11 251.5 771.91 251.4C771.71 251.3 771.51 251.2 771.31 251.2C771.01 251.1 770.71 251 770.51 250.8C770.31 250.7 770.11 250.5 769.91 250.4C769.71 250.2 769.61 250.1 769.51 249.9C769.41 249.7 769.41 249.5 769.41 249.2C769.41 248.9 769.51 248.6 769.61 248.3C769.81 248 770.01 247.8 770.21 247.7C770.51 247.5 770.71 247.4 771.11 247.3C771.51 247.2 771.81 247.2 772.11 247.2C772.71 247.2 773.21 247.3 773.71 247.5V248.6C773.21 248.3 772.61 248.1 771.91 248.1C771.71 248.1 771.51 248.1 771.31 248.2C771.11 248.2 771.01 248.3 770.91 248.4C770.81 248.5 770.71 248.6 770.61 248.7C770.51 248.8 770.51 249 770.51 249.1C770.51 249.3 770.51 249.4 770.61 249.6C770.71 249.8 770.81 249.8 770.91 249.9C771.01 250 771.21 250.1 771.41 250.2C771.61 250.3 771.81 250.4 772.01 250.5C772.31 250.6 772.61 250.7 772.81 250.9C773.01 251 773.31 251.2 773.41 251.3C773.61 251.5 773.71 251.6 773.81 251.8C773.91 252 773.91 252.2 773.91 252.5C773.91 252.8 773.81 253.1 773.71 253.4C773.61 253.7 773.31 253.9 773.11 254C772.91 254.1 772.61 254.3 772.21 254.4C771.81 254.5 771.51 254.5 771.21 254.5C770.51 254.4 769.91 254.3 769.31 254Z" fill="#525252"/>
  <path d="M650.41 273.3H649.41C648.01 271.7 647.31 269.7 647.31 267.3C647.31 264.9 648.01 262.9 649.41 261.2H650.41C649.01 262.9 648.31 264.9 648.31 267.2C648.31 269.6 649.01 271.6 650.41 273.3Z" fill="#525252"/>
  <path d="M661.909 271.1H660.809V264.5C660.809 264 660.809 263.3 660.909 262.6C660.809 263 660.709 263.4 660.609 263.6L657.309 271.1H656.709L653.409 263.6C653.309 263.4 653.209 263 653.109 262.6C653.109 263 653.209 263.6 653.209 264.5V271.1H652.109V261.3H653.609L656.609 268.1C656.809 268.6 657.009 269 657.109 269.3C657.309 268.8 657.509 268.4 657.609 268.1L660.709 261.3H662.109V271.1H661.909Z" fill="#525252"/>
  <path d="M664.909 262.3C664.709 262.3 664.509 262.2 664.409 262.1C664.309 262 664.209 261.8 664.209 261.6C664.209 261.4 664.309 261.2 664.409 261.1C664.509 261 664.709 260.9 664.909 260.9C665.109 260.9 665.309 261 665.409 261.1C665.509 261.2 665.609 261.4 665.609 261.6C665.609 261.8 665.509 262 665.409 262.1C665.309 262.2 665.109 262.3 664.909 262.3ZM665.409 271.1H664.309V264.1H665.409V271.1Z" fill="#525252"/>
  <path d="M672.51 270.7C672.01 271 671.31 271.2 670.61 271.2C669.61 271.2 668.81 270.9 668.21 270.2C667.61 269.6 667.31 268.7 667.31 267.7C667.31 266.5 667.61 265.6 668.31 264.9C669.01 264.2 669.81 263.9 670.91 263.9C671.51 263.9 672.11 264 672.51 264.2V265.3C672.01 264.9 671.41 264.8 670.81 264.8C670.11 264.8 669.51 265.1 669.01 265.6C668.51 266.1 668.31 266.8 668.31 267.6C668.31 268.4 668.51 269.1 668.91 269.5C669.31 269.9 669.91 270.2 670.61 270.2C671.21 270.2 671.81 270 672.31 269.6V270.7H672.51Z" fill="#525252"/>
  <path d="M677.809 265.2C677.609 265 677.309 265 677.009 265C676.509 265 676.109 265.2 675.809 265.7C675.509 266.2 675.309 266.8 675.309 267.5V271.1H674.209V264.1H675.309V265.5C675.509 265 675.709 264.6 676.009 264.3C676.309 264 676.709 263.9 677.109 263.9C677.409 263.9 677.609 263.9 677.809 264V265.2Z" fill="#525252"/>
  <path d="M681.81 271.2C680.81 271.2 679.91 270.9 679.31 270.2C678.71 269.5 678.41 268.7 678.41 267.6C678.41 266.4 678.71 265.5 679.41 264.8C680.11 264.1 680.91 263.8 682.01 263.8C683.01 263.8 683.91 264.1 684.41 264.8C684.91 265.5 685.31 266.3 685.31 267.5C685.31 268.6 685.01 269.5 684.41 270.2C683.71 270.9 682.81 271.2 681.81 271.2ZM681.81 264.8C681.11 264.8 680.51 265 680.11 265.5C679.71 266 679.51 266.7 679.51 267.5C679.51 268.3 679.71 269 680.11 269.5C680.51 270 681.11 270.2 681.81 270.2C682.51 270.2 683.11 270 683.51 269.5C683.91 269 684.11 268.4 684.11 267.5C684.11 266.6 683.91 266 683.51 265.5C683.11 265 682.61 264.8 681.81 264.8Z" fill="#525252"/>
  <path d="M686.609 270.8V269.6C687.209 270.1 687.909 270.3 688.609 270.3C689.609 270.3 690.109 270 690.109 269.3C690.109 269.1 690.109 269 690.009 268.8C689.909 268.7 689.809 268.6 689.709 268.5C689.609 268.4 689.409 268.3 689.209 268.2C689.009 268.1 688.809 268 688.609 268C688.309 267.9 688.009 267.8 687.809 267.6C687.609 267.5 687.409 267.3 687.209 267.2C687.009 267 686.909 266.9 686.809 266.7C686.709 266.5 686.709 266.3 686.709 266C686.709 265.7 686.809 265.4 686.909 265.1C687.109 264.8 687.309 264.6 687.509 264.5C687.809 264.3 688.009 264.2 688.409 264.1C688.809 264 689.109 264 689.409 264C690.009 264 690.509 264.1 691.009 264.3V265.4C690.509 265.1 689.909 264.9 689.209 264.9C689.009 264.9 688.809 264.9 688.609 265C688.409 265 688.309 265.1 688.209 265.2C688.109 265.3 688.009 265.4 687.909 265.5C687.809 265.6 687.809 265.8 687.809 265.9C687.809 266.1 687.809 266.2 687.909 266.4C688.009 266.6 688.109 266.6 688.209 266.7C688.309 266.8 688.509 266.9 688.709 267C688.909 267.1 689.109 267.2 689.309 267.3C689.609 267.4 689.909 267.5 690.109 267.7C690.309 267.8 690.609 268 690.709 268.1C690.909 268.3 691.009 268.4 691.109 268.6C691.209 268.8 691.209 269 691.209 269.3C691.209 269.6 691.109 269.9 691.009 270.2C690.909 270.5 690.609 270.7 690.409 270.8C690.209 270.9 689.909 271.1 689.509 271.2C689.109 271.3 688.809 271.3 688.509 271.3C687.809 271.2 687.109 271.1 686.609 270.8Z" fill="#525252"/>
  <path d="M698.609 267.8H693.709C693.709 268.6 693.909 269.2 694.309 269.6C694.709 270 695.309 270.2 696.009 270.2C696.809 270.2 697.509 269.9 698.209 269.4V270.5C697.609 270.9 696.809 271.2 695.809 271.2C694.809 271.2 694.009 270.9 693.509 270.2C692.909 269.6 692.709 268.7 692.709 267.5C692.709 266.4 693.009 265.5 693.609 264.8C694.209 264.1 695.009 263.8 695.909 263.8C696.809 263.8 697.509 264.1 698.009 264.7C698.509 265.3 698.809 266.1 698.809 267.2V267.8H698.609ZM697.409 266.9C697.409 266.3 697.209 265.7 696.909 265.4C696.609 265.1 696.209 264.9 695.609 264.9C695.109 264.9 694.609 265.1 694.309 265.5C694.009 265.9 693.709 266.4 693.609 267H697.409V266.9Z" fill="#525252"/>
  <path d="M703.91 265.2C703.71 265 703.41 265 703.11 265C702.61 265 702.21 265.2 701.91 265.7C701.61 266.2 701.41 266.8 701.41 267.5V271.1H700.31V264.1H701.41V265.5C701.61 265 701.81 264.6 702.11 264.3C702.41 264 702.81 263.9 703.21 263.9C703.51 263.9 703.71 263.9 703.91 264V265.2Z" fill="#525252"/>
  <path d="M711.209 264.1L708.409 271.1H707.309L704.609 264.1H705.809L707.609 269.2C707.709 269.6 707.809 269.9 707.809 270.2C707.809 269.8 707.909 269.5 708.009 269.2L709.909 264.1H711.209Z" fill="#525252"/>
  <path d="M713.01 262.3C712.81 262.3 712.61 262.2 712.51 262.1C712.41 262 712.31 261.8 712.31 261.6C712.31 261.4 712.41 261.2 712.51 261.1C712.61 261 712.81 260.9 713.01 260.9C713.21 260.9 713.41 261 713.51 261.1C713.61 261.2 713.71 261.4 713.71 261.6C713.71 261.8 713.61 262 713.51 262.1C713.41 262.2 713.21 262.3 713.01 262.3ZM713.51 271.1H712.41V264.1H713.51V271.1Z" fill="#525252"/>
  <path d="M720.61 270.7C720.11 271 719.41 271.2 718.71 271.2C717.71 271.2 716.91 270.9 716.31 270.2C715.71 269.6 715.41 268.7 715.41 267.7C715.41 266.5 715.71 265.6 716.41 264.9C717.11 264.2 717.91 263.9 719.01 263.9C719.61 263.9 720.21 264 720.61 264.2V265.3C720.11 264.9 719.51 264.8 718.91 264.8C718.21 264.8 717.61 265.1 717.11 265.6C716.61 266.1 716.41 266.8 716.41 267.6C716.41 268.4 716.61 269.1 717.01 269.5C717.41 269.9 718.01 270.2 718.71 270.2C719.31 270.2 719.91 270 720.41 269.6V270.7H720.61Z" fill="#525252"/>
  <path d="M727.91 267.8H723.01C723.01 268.6 723.21 269.2 723.61 269.6C724.01 270 724.61 270.2 725.31 270.2C726.11 270.2 726.81 269.9 727.51 269.4V270.5C726.91 270.9 726.11 271.2 725.11 271.2C724.11 271.2 723.31 270.9 722.81 270.2C722.21 269.6 722.01 268.7 722.01 267.5C722.01 266.4 722.31 265.5 722.91 264.8C723.51 264.1 724.31 263.8 725.21 263.8C726.11 263.8 726.81 264.1 727.31 264.7C727.81 265.3 728.11 266.1 728.11 267.2V267.8H727.91ZM726.81 266.9C726.81 266.3 726.61 265.7 726.31 265.4C726.01 265.1 725.61 264.9 725.01 264.9C724.51 264.9 724.01 265.1 723.71 265.5C723.41 265.9 723.11 266.4 723.01 267H726.81V266.9Z" fill="#525252"/>
  <path d="M737.609 263.8C737.609 263.5 737.609 263.2 737.509 263C737.409 262.8 737.309 262.6 737.109 262.4C736.909 262.3 736.709 262.1 736.509 262.1C736.309 262.1 736.009 262 735.809 262C735.609 262 735.409 262 735.209 262.1C735.009 262.2 734.809 262.2 734.609 262.3C734.409 262.4 734.209 262.5 734.009 262.7C733.809 262.9 733.609 263 733.509 263.2V262C733.809 261.7 734.209 261.5 734.609 261.3C735.009 261.1 735.509 261.1 736.009 261.1C736.409 261.1 736.809 261.2 737.109 261.3C737.409 261.4 737.709 261.6 738.009 261.8C738.309 262 738.409 262.3 738.609 262.6C738.809 262.9 738.809 263.3 738.809 263.7C738.809 264.1 738.809 264.4 738.709 264.8C738.609 265.2 738.509 265.4 738.309 265.7C738.109 266 737.909 266.2 737.609 266.5C737.309 266.8 737.009 267 736.609 267.3C736.109 267.6 735.809 267.9 735.509 268.1C735.209 268.3 735.009 268.6 734.809 268.8C734.609 269 734.509 269.2 734.409 269.4C734.309 269.6 734.309 269.8 734.309 270.1H739.209V271.1H733.209V270.6C733.209 270.2 733.209 269.8 733.309 269.5C733.409 269.2 733.509 268.9 733.809 268.6C734.109 268.3 734.309 268 734.609 267.7C734.909 267.4 735.409 267.1 735.809 266.7C736.209 266.4 736.509 266.2 736.709 266C736.909 265.8 737.109 265.5 737.309 265.3C737.509 265.1 737.509 264.8 737.609 264.6C737.609 264.3 737.609 264.1 737.609 263.8Z" fill="#525252"/>
  <path d="M741.409 265.4C741.209 265.4 741.009 265.3 740.909 265.2C740.809 265.1 740.709 264.9 740.709 264.7C740.709 264.5 740.809 264.3 740.909 264.2C741.009 264.1 741.209 264 741.409 264C741.609 264 741.809 264.1 741.909 264.2C742.009 264.3 742.109 264.5 742.109 264.7C742.109 264.9 742.009 265.1 741.909 265.2C741.809 265.3 741.609 265.4 741.409 265.4ZM741.409 271.2C741.209 271.2 741.009 271.1 740.909 271C740.809 270.9 740.709 270.7 740.709 270.5C740.709 270.3 740.809 270.1 740.909 270C741.009 269.8 741.209 269.8 741.409 269.8C741.609 269.8 741.809 269.9 741.909 270C742.109 270.2 742.109 270.3 742.109 270.5C742.109 270.7 742.009 270.9 741.909 271C741.809 271.1 741.609 271.2 741.409 271.2Z" fill="#525252"/>
  <path d="M749.21 267.4V271.1H748.01V261.3H750.71C751.71 261.3 752.61 261.6 753.11 262.1C753.61 262.6 754.01 263.3 754.01 264.3C754.01 265.3 753.71 266 753.01 266.6C752.31 267.2 751.51 267.5 750.41 267.5H749.21V267.4ZM749.21 262.3V266.3H750.41C751.21 266.3 751.81 266.1 752.21 265.8C752.61 265.4 752.81 264.9 752.81 264.3C752.81 263 752.01 262.4 750.51 262.4H749.21V262.3Z" fill="#525252"/>
  <path d="M760.31 271.1H759.21V270C758.71 270.8 758.01 271.3 757.01 271.3C756.31 271.3 755.81 271.1 755.41 270.7C755.01 270.3 754.81 269.8 754.81 269.2C754.81 267.9 755.61 267.1 757.11 266.9L759.21 266.6C759.21 265.4 758.71 264.8 757.81 264.8C757.01 264.8 756.21 265.1 755.51 265.7V264.6C756.21 264.2 757.01 263.9 757.91 263.9C759.51 263.9 760.41 264.8 760.41 266.5V271.1H760.31ZM759.11 267.5L757.41 267.7C756.91 267.8 756.51 267.9 756.21 268.1C755.91 268.3 755.81 268.6 755.81 269.1C755.81 269.4 755.91 269.7 756.21 269.9C756.41 270.1 756.81 270.2 757.21 270.2C757.81 270.2 758.21 270 758.61 269.6C759.01 269.2 759.11 268.7 759.11 268.1V267.5Z" fill="#525252"/>
  <path d="M767.91 264.1L764.71 272.2C764.11 273.6 763.31 274.4 762.31 274.4C762.01 274.4 761.81 274.4 761.61 274.3V273.3C761.81 273.4 762.11 273.4 762.31 273.4C762.91 273.4 763.31 273.1 763.61 272.4L764.21 271.1L761.51 264.1H762.71L764.61 269.5C764.61 269.6 764.71 269.7 764.71 270C764.71 269.9 764.81 269.7 764.81 269.5L766.81 264.1H767.91Z" fill="#525252"/>
  <path d="M779.109 271.1H778.009V267.1C778.009 266.3 777.909 265.8 777.609 265.4C777.309 265 777.009 264.9 776.409 264.9C775.909 264.9 775.509 265.1 775.209 265.6C774.909 266.1 774.709 266.6 774.709 267.2V271.2H773.609V267C773.609 265.6 773.109 264.9 772.009 264.9C771.509 264.9 771.109 265.1 770.809 265.5C770.509 265.9 770.309 266.4 770.309 267.1V271.1H769.209V264.1H770.309V265.2C770.809 264.4 771.509 263.9 772.509 263.9C773.009 263.9 773.409 264 773.809 264.3C774.209 264.6 774.409 264.9 774.509 265.3C775.009 264.3 775.809 263.9 776.809 263.9C778.309 263.9 779.109 264.9 779.109 266.8V271.1Z" fill="#525252"/>
  <path d="M786.81 267.8H781.91C781.91 268.6 782.11 269.2 782.51 269.6C782.91 270 783.51 270.2 784.21 270.2C785.01 270.2 785.71 269.9 786.41 269.4V270.5C785.81 270.9 785.01 271.2 784.01 271.2C783.01 271.2 782.21 270.9 781.71 270.2C781.11 269.6 780.91 268.7 780.91 267.5C780.91 266.4 781.21 265.5 781.81 264.8C782.41 264.1 783.21 263.8 784.11 263.8C785.01 263.8 785.71 264.1 786.21 264.7C786.71 265.3 787.01 266.1 787.01 267.2V267.8H786.81ZM785.71 266.9C785.71 266.3 785.51 265.7 785.21 265.4C784.91 265.1 784.51 264.9 783.91 264.9C783.41 264.9 782.91 265.1 782.61 265.5C782.31 265.9 782.01 266.4 781.91 267H785.71V266.9Z" fill="#525252"/>
  <path d="M794.31 271.1H793.21V267.1C793.21 265.6 792.71 264.9 791.61 264.9C791.01 264.9 790.61 265.1 790.21 265.5C789.81 265.9 789.61 266.5 789.61 267.1V271.1H788.51V264.1H789.61V265.3C790.11 264.4 790.91 264 791.91 264C792.71 264 793.31 264.2 793.71 264.7C794.11 265.2 794.31 265.9 794.31 266.8V271.1Z" fill="#525252"/>
  <path d="M799.709 271C799.409 271.1 799.109 271.2 798.709 271.2C797.509 271.2 796.909 270.5 796.909 269.1V265H795.709V264H796.909V262.3L798.009 261.9V264H799.809V265H798.009V268.9C798.009 269.4 798.109 269.7 798.209 269.9C798.309 270.1 798.609 270.2 799.009 270.2C799.309 270.2 799.509 270.1 799.709 270V271Z" fill="#525252"/>
  <path d="M801.209 273.3H800.209C801.609 271.6 802.309 269.6 802.309 267.3C802.309 265 801.609 263 800.209 261.3H801.209C802.609 263 803.309 265 803.309 267.4C803.409 269.7 802.609 271.7 801.209 273.3Z" fill="#525252"/>
  <path d="M685.009 93.3H683.709L682.709 90.6H678.509L677.509 93.3H676.209L680.009 83.5H681.209L685.009 93.3ZM682.309 89.5L680.809 85.3C680.709 85.2 680.709 84.9 680.609 84.6C680.609 84.9 680.509 85.1 680.409 85.3L678.909 89.5H682.309Z" fill="#525252"/>
  <path d="M691.11 86.6L687.01 92.3001H691.11V93.3001H685.41V93L689.51 87.3H685.71V86.3H691.11V86.6Z" fill="#525252"/>
  <path d="M698.21 93.3001H697.11V92.2C696.61 93 695.91 93.5 694.91 93.5C693.21 93.5 692.41 92.5 692.41 90.5V86.3H693.51V90.3C693.51 91.8 694.11 92.5 695.21 92.5C695.71 92.5 696.21 92.3001 696.61 91.9001C697.01 91.5001 697.11 91 697.11 90.3V86.3H698.21V93.3001Z" fill="#525252"/>
  <path d="M704.209 87.4001C704.009 87.2001 703.709 87.2001 703.409 87.2001C702.909 87.2001 702.509 87.4001 702.209 87.9001C701.909 88.4001 701.709 89.0001 701.709 89.7001V93.3001H700.609V86.3001H701.709V87.7001C701.909 87.2001 702.109 86.8001 702.409 86.5001C702.709 86.2001 703.109 86.1001 703.509 86.1001C703.809 86.1001 704.009 86.1001 704.209 86.2001V87.4001Z" fill="#525252"/>
  <path d="M710.81 90H705.91C705.91 90.8 706.11 91.4 706.51 91.8C706.91 92.2 707.51 92.4 708.21 92.4C709.01 92.4 709.71 92.1 710.41 91.6V92.7C709.81 93.1 709.01 93.4 708.01 93.4C707.01 93.4 706.21 93.1 705.71 92.4C705.11 91.8 704.91 90.9 704.91 89.7C704.91 88.6 705.21 87.7 705.81 87C706.41 86.3 707.21 86 708.11 86C709.01 86 709.71 86.3 710.21 86.9C710.71 87.5 711.01 88.3 711.01 89.4V90H710.81ZM709.71 89.1C709.71 88.5 709.51 87.9 709.21 87.6C708.91 87.3 708.51 87.1 707.91 87.1C707.41 87.1 706.91 87.3 706.61 87.7C706.31 88.1 706.01 88.6 705.91 89.2H709.71V89.1Z" fill="#525252"/>
  <path d="M721.509 84.4999H717.709V87.8999H721.209V88.8999H717.709V93.1999H716.609V83.3999H721.609V84.4999H721.509Z" fill="#525252"/>
  <path d="M728.81 93.3001H727.71V92.2C727.21 93 726.51 93.5 725.51 93.5C723.81 93.5 723.01 92.5 723.01 90.5V86.3H724.11V90.3C724.11 91.8 724.71 92.5 725.81 92.5C726.31 92.5 726.81 92.3001 727.21 91.9001C727.61 91.5001 727.71 91 727.71 90.3V86.3H728.81V93.3001Z" fill="#525252"/>
  <path d="M736.909 93.3H735.809V89.2999C735.809 87.7999 735.309 87.0999 734.209 87.0999C733.609 87.0999 733.209 87.3 732.809 87.7C732.409 88.1 732.209 88.6999 732.209 89.2999V93.3H731.109V86.2999H732.209V87.5C732.709 86.6 733.509 86.2 734.509 86.2C735.309 86.2 735.909 86.4 736.309 86.9C736.709 87.4 736.909 88.1 736.909 89V93.3Z" fill="#525252"/>
  <path d="M743.809 92.9001C743.309 93.2001 742.609 93.4001 741.909 93.4001C740.909 93.4001 740.109 93.1001 739.509 92.4001C738.909 91.8001 738.609 90.9001 738.609 89.9001C738.609 88.7001 738.909 87.8001 739.609 87.1001C740.309 86.4001 741.109 86.1001 742.209 86.1001C742.809 86.1001 743.409 86.2001 743.809 86.4001V87.5001C743.309 87.1001 742.709 87.0001 742.109 87.0001C741.409 87.0001 740.809 87.3001 740.309 87.8001C739.809 88.3001 739.609 89.0001 739.609 89.8001C739.609 90.6001 739.809 91.3001 740.209 91.7001C740.609 92.1001 741.209 92.4001 741.909 92.4001C742.509 92.4001 743.109 92.2001 743.609 91.8001V92.9001H743.809Z" fill="#525252"/>
  <path d="M748.709 93.2001C748.409 93.3001 748.109 93.4001 747.709 93.4001C746.509 93.4001 745.909 92.7001 745.909 91.3001V87.2001H744.709V86.2001H745.909V84.5001L747.009 84.1001V86.2001H748.809V87.2001H747.009V91.1001C747.009 91.6001 747.109 91.9001 747.209 92.1001C747.309 92.3001 747.609 92.4001 748.009 92.4001C748.309 92.4001 748.509 92.3001 748.709 92.2001V93.2001Z" fill="#525252"/>
  <path d="M750.809 84.5001C750.609 84.5001 750.409 84.4001 750.309 84.3001C750.209 84.2001 750.109 84.0001 750.109 83.8001C750.109 83.6001 750.209 83.4001 750.309 83.3001C750.409 83.2001 750.609 83.1001 750.809 83.1001C751.009 83.1001 751.209 83.2001 751.309 83.3001C751.409 83.4001 751.509 83.6001 751.509 83.8001C751.509 84.0001 751.409 84.2001 751.309 84.3001C751.209 84.4001 751.009 84.5001 750.809 84.5001ZM751.409 93.3001H750.309V86.3001H751.409V93.3001Z" fill="#525252"/>
  <path d="M756.509 93.4C755.509 93.4 754.609 93.1 754.009 92.4C753.409 91.7 753.109 90.9 753.109 89.8C753.109 88.6 753.409 87.7 754.109 87C754.809 86.3 755.609 86 756.709 86C757.709 86 758.609 86.3 759.109 87C759.609 87.7 760.009 88.5 760.009 89.7C760.009 90.8 759.709 91.7 759.109 92.4C758.509 93.1 757.609 93.4 756.509 93.4ZM756.609 87C755.909 87 755.309 87.2 754.909 87.7C754.509 88.2 754.309 88.9 754.309 89.7C754.309 90.5 754.509 91.2 754.909 91.7C755.309 92.2 755.909 92.4 756.609 92.4C757.309 92.4 757.909 92.2 758.309 91.7C758.709 91.2 758.909 90.6 758.909 89.7C758.909 88.8 758.709 88.2 758.309 87.7C757.909 87.2 757.409 87 756.609 87Z" fill="#525252"/>
  <path d="M767.61 93.3H766.51V89.2999C766.51 87.7999 766.01 87.0999 764.91 87.0999C764.31 87.0999 763.91 87.3 763.51 87.7C763.11 88.1 762.91 88.6999 762.91 89.2999V93.3H761.81V86.2999H762.91V87.5C763.41 86.6 764.21 86.2 765.21 86.2C766.01 86.2 766.61 86.4 767.01 86.9C767.41 87.4 767.61 88.1 767.61 89V93.3Z" fill="#525252"/>
  <path d="M769.31 93V91.7999C769.91 92.2999 770.61 92.5 771.31 92.5C772.31 92.5 772.81 92.2 772.81 91.5C772.81 91.3 772.81 91.2 772.71 91C772.61 90.9 772.51 90.8 772.41 90.7C772.31 90.6 772.11 90.5 771.91 90.4C771.71 90.3 771.51 90.2 771.31 90.2C771.01 90.1 770.71 89.9999 770.51 89.7999C770.31 89.6999 770.11 89.5 769.91 89.4C769.71 89.2 769.61 89.1 769.51 88.9C769.41 88.7 769.41 88.5 769.41 88.2C769.41 87.9 769.51 87.5999 769.61 87.2999C769.81 86.9999 770.01 86.8 770.21 86.7C770.51 86.5 770.71 86.3999 771.11 86.2999C771.51 86.1999 771.81 86.2 772.11 86.2C772.71 86.2 773.21 86.3 773.71 86.5V87.5999C773.21 87.2999 772.61 87.0999 771.91 87.0999C771.71 87.0999 771.51 87.1 771.31 87.2C771.11 87.2 771.01 87.3 770.91 87.4C770.81 87.5 770.71 87.6 770.61 87.7C770.51 87.8 770.51 87.9999 770.51 88.0999C770.51 88.2999 770.51 88.3999 770.61 88.5999C770.71 88.7999 770.81 88.8 770.91 88.9C771.01 89 771.21 89.1 771.41 89.2C771.61 89.3 771.81 89.4 772.01 89.5C772.31 89.6 772.61 89.7 772.81 89.9C773.01 90 773.31 90.1999 773.41 90.2999C773.61 90.4999 773.71 90.5999 773.81 90.7999C773.91 90.9999 773.91 91.2 773.91 91.5C773.91 91.8 773.81 92.1 773.71 92.4C773.61 92.7 773.31 92.9 773.11 93C772.91 93.1 772.61 93.3 772.21 93.4C771.81 93.5 771.51 93.5 771.21 93.5C770.51 93.4 769.91 93.3 769.31 93Z" fill="#525252"/>
  <path d="M667.41 112.3H666.41C665.01 110.7 664.31 108.7 664.31 106.3C664.31 103.9 665.01 101.9 666.41 100.2H667.41C666.01 101.9 665.31 103.9 665.31 106.2C665.31 108.6 666.01 110.6 667.41 112.3Z" fill="#525252"/>
  <path d="M678.81 110.1H677.71V103.5C677.71 103 677.71 102.3 677.81 101.6C677.71 102 677.61 102.4 677.51 102.6L674.21 110.1H673.61L670.31 102.6C670.21 102.4 670.11 102 670.01 101.6C670.01 102 670.11 102.6 670.11 103.5V110.1H669.01V100.3H670.51L673.51 107.1C673.71 107.6 673.91 108 674.01 108.3C674.21 107.8 674.41 107.4 674.51 107.1L677.61 100.3H679.01V110.1H678.81Z" fill="#525252"/>
  <path d="M681.809 101.3C681.609 101.3 681.409 101.2 681.309 101.1C681.209 101 681.109 100.8 681.109 100.6C681.109 100.4 681.209 100.2 681.309 100.1C681.409 99.9999 681.609 99.8999 681.809 99.8999C682.009 99.8999 682.209 99.9999 682.309 100.1C682.409 100.2 682.509 100.4 682.509 100.6C682.509 100.8 682.409 101 682.309 101.1C682.209 101.2 682.009 101.3 681.809 101.3ZM682.409 110.1H681.309V103.1H682.409V110.1Z" fill="#525252"/>
  <path d="M689.409 109.7C688.909 110 688.209 110.2 687.509 110.2C686.509 110.2 685.709 109.9 685.109 109.2C684.509 108.6 684.209 107.7 684.209 106.7C684.209 105.5 684.509 104.6 685.209 103.9C685.909 103.2 686.709 102.9 687.809 102.9C688.409 102.9 689.009 103 689.409 103.2V104.3C688.909 103.9 688.309 103.8 687.709 103.8C687.009 103.8 686.409 104.1 685.909 104.6C685.409 105.1 685.209 105.8 685.209 106.6C685.209 107.4 685.409 108.1 685.809 108.5C686.209 108.9 686.809 109.2 687.509 109.2C688.109 109.2 688.709 109 689.209 108.6V109.7H689.409Z" fill="#525252"/>
  <path d="M694.809 104.2C694.609 104 694.309 104 694.009 104C693.509 104 693.109 104.2 692.809 104.7C692.509 105.2 692.309 105.8 692.309 106.5V110.1H691.209V103.1H692.309V104.5C692.509 104 692.709 103.6 693.009 103.3C693.309 103 693.709 102.9 694.109 102.9C694.409 102.9 694.609 102.9 694.809 103V104.2Z" fill="#525252"/>
  <path d="M698.71 110.2C697.71 110.2 696.81 109.9 696.21 109.2C695.61 108.5 695.31 107.7 695.31 106.6C695.31 105.4 695.61 104.5 696.31 103.8C697.01 103.1 697.81 102.8 698.91 102.8C699.91 102.8 700.81 103.1 701.31 103.8C701.81 104.5 702.21 105.3 702.21 106.5C702.21 107.6 701.91 108.5 701.31 109.2C700.61 109.9 699.81 110.2 698.71 110.2ZM698.81 103.8C698.11 103.8 697.51 104 697.11 104.5C696.71 105 696.51 105.7 696.51 106.5C696.51 107.3 696.71 108 697.11 108.5C697.51 109 698.11 109.2 698.81 109.2C699.51 109.2 700.11 109 700.51 108.5C700.91 108 701.11 107.4 701.11 106.5C701.11 105.6 700.91 105 700.51 104.5C700.11 104 699.51 103.8 698.81 103.8Z" fill="#525252"/>
  <path d="M703.609 109.8V108.6C704.209 109.1 704.909 109.3 705.609 109.3C706.609 109.3 707.109 109 707.109 108.3C707.109 108.1 707.109 108 707.009 107.8C706.909 107.7 706.809 107.6 706.709 107.5C706.609 107.4 706.409 107.3 706.209 107.2C706.009 107.1 705.809 107 705.609 107C705.309 106.9 705.009 106.8 704.809 106.6C704.609 106.5 704.409 106.3 704.209 106.2C704.009 106 703.909 105.9 703.809 105.7C703.709 105.5 703.709 105.3 703.709 105C703.709 104.7 703.809 104.4 703.909 104.1C704.109 103.8 704.309 103.6 704.509 103.5C704.809 103.3 705.009 103.2 705.409 103.1C705.809 103 706.109 103 706.409 103C707.009 103 707.509 103.1 708.009 103.3V104.4C707.509 104.1 706.909 103.9 706.209 103.9C706.009 103.9 705.809 103.9 705.609 104C705.409 104 705.309 104.1 705.209 104.2C705.109 104.3 705.009 104.4 704.909 104.5C704.809 104.6 704.809 104.8 704.809 104.9C704.809 105.1 704.809 105.2 704.909 105.4C705.009 105.6 705.109 105.6 705.209 105.7C705.309 105.8 705.509 105.9 705.709 106C705.909 106.1 706.109 106.2 706.309 106.3C706.609 106.4 706.909 106.5 707.109 106.7C707.309 106.8 707.609 107 707.709 107.1C707.909 107.3 708.009 107.4 708.109 107.6C708.209 107.8 708.209 108 708.209 108.3C708.209 108.6 708.109 108.9 708.009 109.2C707.909 109.5 707.609 109.7 707.409 109.8C707.209 109.9 706.909 110.1 706.509 110.2C706.109 110.3 705.809 110.3 705.509 110.3C704.709 110.2 704.109 110.1 703.609 109.8Z" fill="#525252"/>
  <path d="M715.609 106.8H710.709C710.709 107.6 710.909 108.2 711.309 108.6C711.709 109 712.309 109.2 713.009 109.2C713.809 109.2 714.509 108.9 715.209 108.4V109.5C714.609 109.9 713.809 110.2 712.809 110.2C711.809 110.2 711.009 109.9 710.509 109.2C709.909 108.6 709.709 107.7 709.709 106.5C709.709 105.4 710.009 104.5 710.609 103.8C711.209 103.1 712.009 102.8 712.909 102.8C713.809 102.8 714.509 103.1 715.009 103.7C715.509 104.3 715.809 105.1 715.809 106.2V106.8H715.609ZM714.409 105.9C714.409 105.3 714.209 104.7 713.909 104.4C713.609 104.1 713.209 103.9 712.609 103.9C712.109 103.9 711.609 104.1 711.309 104.5C711.009 104.9 710.709 105.4 710.609 106H714.409V105.9Z" fill="#525252"/>
  <path d="M720.91 104.2C720.71 104 720.41 104 720.11 104C719.61 104 719.21 104.2 718.91 104.7C718.61 105.2 718.41 105.8 718.41 106.5V110.1H717.31V103.1H718.41V104.5C718.61 104 718.81 103.6 719.11 103.3C719.41 103 719.81 102.9 720.21 102.9C720.51 102.9 720.71 102.9 720.91 103V104.2Z" fill="#525252"/>
  <path d="M728.209 103.1L725.409 110.1H724.309L721.609 103.1H722.809L724.609 108.2C724.709 108.6 724.809 108.9 724.809 109.2C724.809 108.8 724.909 108.5 725.009 108.2L726.909 103.1H728.209Z" fill="#525252"/>
  <path d="M730.01 101.3C729.81 101.3 729.61 101.2 729.51 101.1C729.41 101 729.31 100.8 729.31 100.6C729.31 100.4 729.41 100.2 729.51 100.1C729.61 99.9999 729.81 99.8999 730.01 99.8999C730.21 99.8999 730.41 99.9999 730.51 100.1C730.61 100.2 730.71 100.4 730.71 100.6C730.71 100.8 730.61 101 730.51 101.1C730.41 101.2 730.21 101.3 730.01 101.3ZM730.51 110.1H729.41V103.1H730.51V110.1Z" fill="#525252"/>
  <path d="M737.61 109.7C737.11 110 736.41 110.2 735.71 110.2C734.71 110.2 733.91 109.9 733.31 109.2C732.71 108.6 732.41 107.7 732.41 106.7C732.41 105.5 732.71 104.6 733.41 103.9C734.11 103.2 734.91 102.9 736.01 102.9C736.61 102.9 737.21 103 737.61 103.2V104.3C737.11 103.9 736.51 103.8 735.91 103.8C735.21 103.8 734.61 104.1 734.11 104.6C733.61 105.1 733.41 105.8 733.41 106.6C733.41 107.4 733.61 108.1 734.01 108.5C734.41 108.9 735.01 109.2 735.71 109.2C736.31 109.2 736.91 109 737.41 108.6V109.7H737.61Z" fill="#525252"/>
  <path d="M744.91 106.8H740.01C740.01 107.6 740.21 108.2 740.61 108.6C741.01 109 741.61 109.2 742.31 109.2C743.11 109.2 743.81 108.9 744.51 108.4V109.5C743.91 109.9 743.11 110.2 742.11 110.2C741.11 110.2 740.31 109.9 739.81 109.2C739.21 108.6 739.01 107.7 739.01 106.5C739.01 105.4 739.31 104.5 739.91 103.8C740.51 103.1 741.31 102.8 742.21 102.8C743.11 102.8 743.81 103.1 744.31 103.7C744.81 104.3 745.11 105.1 745.11 106.2V106.8H744.91ZM743.71 105.9C743.71 105.3 743.51 104.7 743.21 104.4C742.91 104.1 742.51 103.9 741.91 103.9C741.41 103.9 740.91 104.1 740.61 104.5C740.31 104.9 740.01 105.4 739.91 106H743.71V105.9Z" fill="#525252"/>
  <path d="M754.209 110.1H753.109V101.6C753.009 101.7 752.909 101.8 752.709 101.9C752.509 102 752.309 102.1 752.109 102.2C751.909 102.3 751.709 102.4 751.409 102.5C751.109 102.6 750.909 102.7 750.709 102.7V101.6C750.909 101.5 751.209 101.4 751.509 101.3C751.809 101.2 752.009 101.1 752.309 100.9C752.609 100.8 752.809 100.6 753.109 100.4C753.309 100.2 753.509 100.1 753.709 99.8999H754.109V110.1H754.209Z" fill="#525252"/>
  <path d="M758.309 104.4C758.109 104.4 757.909 104.3 757.809 104.2C757.709 104.1 757.609 103.9 757.609 103.7C757.609 103.5 757.709 103.3 757.809 103.2C757.909 103.1 758.109 103 758.309 103C758.509 103 758.709 103.1 758.809 103.2C758.909 103.3 759.009 103.5 759.009 103.7C759.009 103.9 758.909 104.1 758.809 104.2C758.709 104.3 758.609 104.4 758.309 104.4ZM758.309 110.2C758.109 110.2 757.909 110.1 757.809 110C757.709 109.9 757.609 109.7 757.609 109.5C757.609 109.3 757.709 109.1 757.809 109C757.909 108.8 758.109 108.8 758.309 108.8C758.509 108.8 758.709 108.9 758.809 109C759.009 109.2 759.009 109.3 759.009 109.5C759.009 109.7 758.909 109.9 758.809 110C758.709 110.1 758.609 110.2 758.309 110.2Z" fill="#525252"/>
  <path d="M770.81 101.3H768.01V110.1H766.91V101.3H764.01V100.3H770.81V101.3Z" fill="#525252"/>
  <path d="M775.709 110.1H774.609V109C774.109 109.8 773.409 110.3 772.409 110.3C771.709 110.3 771.209 110.1 770.809 109.7C770.409 109.3 770.209 108.8 770.209 108.2C770.209 106.9 771.009 106.1 772.509 105.9L774.609 105.6C774.609 104.4 774.109 103.8 773.209 103.8C772.409 103.8 771.609 104.1 770.909 104.7V103.6C771.609 103.2 772.409 102.9 773.309 102.9C774.909 102.9 775.809 103.8 775.809 105.5V110.1H775.709ZM774.609 106.5L772.909 106.7C772.409 106.8 772.009 106.9 771.709 107.1C771.409 107.3 771.309 107.6 771.309 108.1C771.309 108.4 771.409 108.7 771.709 108.9C771.909 109.1 772.309 109.2 772.709 109.2C773.309 109.2 773.709 109 774.109 108.6C774.509 108.2 774.609 107.7 774.609 107.1V106.5Z" fill="#525252"/>
  <path d="M782.91 103.1L780.51 106.6L782.81 110.1H781.51L780.11 107.8C780.01 107.7 779.91 107.5 779.81 107.3C779.81 107.3 779.71 107.5 779.51 107.8L778.11 110.1H776.81L779.21 106.7L776.91 103.1H778.21L779.61 105.5C779.71 105.7 779.81 105.9 779.91 106L781.71 103.1H782.91Z" fill="#525252"/>
  <path d="M784.31 112.3H783.31C784.71 110.6 785.41 108.6 785.41 106.3C785.41 104 784.71 102 783.31 100.3H784.31C785.71 102 786.41 104 786.41 106.4C786.41 108.7 785.71 110.7 784.31 112.3Z" fill="#525252"/>
  <path d="M166.11 215.1L157.11 209.8V214.3H93.6096V215.8H157.11V220.3L166.11 215.1Z" fill="#959595"/>
  <path d="M338.11 215.1L329.11 209.8V214.3H265.61V215.8H329.11V220.3L338.11 215.1Z" fill="#959595"/>
  <path d="M637.109 215.1L628.109 209.8V214.3H515.709V215.8H628.109V220.3L637.109 215.1Z" fill="#959595"/>
  <path d="M638.909 73.8999L628.809 76.5999L632.009 79.7999L515.209 196.5L516.309 197.6L633.009 80.7999L636.209 83.9999L638.909 73.8999Z" fill="#959595"/>
  <path d="M638.909 360.1L636.209 350L633.009 353.2L516.309 236.4L515.209 237.5L632.009 354.2L628.809 357.4L638.909 360.1Z" fill="#959595"/>
  <path d="M707.61 304.9C709.01 305 710.01 306.1 710.01 307.5C709.91 308.9 708.81 309.9 707.41 309.9C706.01 309.8 705.01 308.7 705.01 307.3C705.11 305.9 706.21 304.8 707.61 304.9Z" fill="#969696"/>
  <path d="M717.309 304.9C718.709 305 719.709 306.1 719.709 307.5C719.609 308.9 718.509 309.9 717.109 309.9C715.709 309.8 714.709 308.7 714.709 307.3C714.709 305.9 715.909 304.8 717.309 304.9Z" fill="#969696"/>
  <path d="M725.91 304.9C727.31 305 728.31 306.1 728.31 307.5C728.21 308.9 727.11 309.9 725.71 309.9C724.31 309.8 723.31 308.7 723.31 307.3C723.41 305.9 724.61 304.8 725.91 304.9Z" fill="#969696"/>
  <path d="M734.61 304.9C736.01 305 737.01 306.1 737.01 307.5C736.91 308.9 735.81 309.9 734.41 309.9C733.01 309.8 732.01 308.7 732.01 307.3C732.11 305.9 733.21 304.8 734.61 304.9Z" fill="#969696"/>
  <path d="M743.309 304.9C744.709 305 745.709 306.1 745.709 307.5C745.609 308.9 744.509 309.9 743.109 309.9C741.709 309.8 740.709 308.7 740.709 307.3C740.709 305.9 741.909 304.8 743.309 304.9Z" fill="#969696"/>
</svg>
