<svg width="628px" height="433px" viewBox="0 0 628 433" xmlns="http://www.w3.org/2000/svg" xmlns:xlink="http://www.w3.org/1999/xlink">
    <g stroke="none" stroke-width="1" fill="none" fill-rule="evenodd">
        <polygon fill="#F4F4F4" fill-rule="nonzero" points="305 432.8 627.8 432.8 627.8 294 305 294"></polygon>
        <path d="M7.6,75.9001 L7.6,79.4001 L9.2,79.4001 C9.9,79.4001 10.4,79.2001 10.8,78.9001 C11.2,78.6001 11.4,78.1001 11.4,77.6001 C11.4,76.4001 10.6,75.9001 9,75.9001 L7.6,75.9001 Z M7.6,71.7001 L7.6,74.9001 L8.8,74.9001 C9.4,74.9001 9.9,74.7001 10.3,74.4001 C10.7,74.1001 10.8,73.7001 10.8,73.1001 C10.8,72.1001 10.2,71.7001 8.9,71.7001 L7.6,71.7001 Z M6.5,80.4001 L6.5,70.6001 L9.3,70.6001 C10.1,70.6001 10.8,70.8001 11.3,71.2001 C11.8,71.6001 12,72.2001 12,72.8001 C12,73.4001 11.8,73.8001 11.5,74.2001 C11.2,74.6001 10.8,74.9001 10.3,75.1001 C11,75.2001 11.5,75.4001 11.9,75.8001 C12.3,76.2001 12.5,76.8001 12.5,77.4001 C12.5,78.2001 12.2,78.9001 11.6,79.4001 C11,79.9001 10.2,80.2001 9.3,80.2001 L6.5,80.2001 L6.5,80.4001 Z" fill="#525252" fill-rule="nonzero"></path>
        <path d="M17.9999,74.5998 C17.7999,74.3998 17.4999,74.3998 17.1999,74.3998 C16.6999,74.3998 16.2999,74.5998 15.9999,75.0998 C15.6999,75.5998 15.4999,76.1998 15.4999,76.8998 L15.4999,80.4998 L14.3999,80.4998 L14.3999,73.4998 L15.4999,73.4998 L15.4999,74.8998 C15.6999,74.3998 15.8999,73.9998 16.1999,73.6998 C16.4999,73.3998 16.8999,73.2998 17.2999,73.2998 C17.5999,73.2998 17.7999,73.2998 17.9999,73.3998 L17.9999,74.5998 Z" fill="#525252" fill-rule="nonzero"></path>
        <path d="M22.2001,74.1999 C21.5001,74.1999 20.9001,74.3999 20.5001,74.8999 C20.1001,75.3999 19.9001,76.0999 19.9001,76.8999 C19.9001,77.6999 20.1001,78.3999 20.5001,78.8999 C20.9001,79.3999 21.5001,79.5999 22.2001,79.5999 C22.9001,79.5999 23.5001,79.3999 23.9001,78.8999 C24.3001,78.3999 24.5001,77.7999 24.5001,76.8999 C24.5001,75.9999 24.3001,75.3999 23.9001,74.8999 C23.5001,74.3999 23.0001,74.1999 22.2001,74.1999 M22.2001,80.5999 C21.2001,80.5999 20.3001,80.2999 19.7001,79.5999 C19.1001,78.8999 18.8001,78.0999 18.8001,76.9999 C18.8001,75.7999 19.1001,74.8999 19.8001,74.1999 C20.5001,73.4999 21.3001,73.1999 22.4001,73.1999 C23.4001,73.1999 24.3001,73.4999 24.8001,74.1999 C25.3001,74.8999 25.7001,75.6999 25.7001,76.8999 C25.7001,77.9999 25.4001,78.8999 24.8001,79.5999 C24.1001,80.2999 23.2001,80.5999 22.2001,80.5999" fill="#525252" fill-rule="nonzero"></path>
        <path d="M36.3002,73.4001 L34.2002,80.4001 L33.0002,80.4001 L31.6002,75.4001 C31.5002,75.2001 31.5002,75.0001 31.5002,74.8001 C31.5002,75.0001 31.4002,75.2001 31.4002,75.4001 L29.8002,80.4001 L28.6002,80.4001 L26.5002,73.4001 L27.6002,73.4001 L29.0002,78.7001 C29.0002,78.9001 29.1002,79.1001 29.1002,79.3001 L29.2002,79.3001 C29.2002,79.1001 29.3002,78.9001 29.3002,78.7001 L30.9002,73.4001 L31.9002,73.4001 L33.3002,78.7001 C33.3002,78.9001 33.4002,79.1001 33.4002,79.3001 L33.6002,79.3001 C33.6002,79.1001 33.6002,78.9001 33.7002,78.7001 L35.1002,73.4001 L36.3002,73.4001 Z" fill="#525252" fill-rule="nonzero"></path>
        <path d="M37.1,80.1999 L37.1,78.9999 C37.7,79.4999 38.4,79.6999 39.1,79.6999 C40.1,79.6999 40.6,79.3999 40.6,78.6999 C40.6,78.4999 40.6,78.3999 40.5,78.1999 L40.2,77.8999 C40.1,77.7999 39.9,77.6999 39.7,77.5999 C39.5,77.4999 39.3,77.3999 39.1,77.2999 C38.8,77.1999 38.5,77.0999 38.3,76.8999 C38.1,76.7999 37.9,76.5999 37.7,76.4999 C37.5,76.2999 37.4,76.1999 37.3,75.9999 C37.2,75.7999 37.2,75.5999 37.2,75.2999 C37.2,74.9999 37.3,74.6999 37.4,74.3999 C37.6,74.0999 37.8,73.8999 38,73.7999 C38.3,73.5999 38.5,73.4999 38.9,73.3999 C39.3,73.2999 39.6,73.2999 39.9,73.2999 C40.5,73.2999 41,73.3999 41.5,73.5999 L41.5,74.6999 C41,74.3999 40.4,74.1999 39.7,74.1999 C39.5,74.1999 39.3,74.1999 39.1,74.2999 C38.9,74.2999 38.8,74.3999 38.7,74.4999 C38.6,74.5999 38.5,74.6999 38.4,74.7999 C38.3,74.8999 38.3,75.0999 38.3,75.1999 C38.3,75.3999 38.3,75.4999 38.4,75.6999 C38.5,75.8999 38.6,75.8999 38.7,75.9999 C38.8,76.0999 39,76.1999 39.2,76.2999 C39.4,76.3999 39.6,76.4999 39.8,76.5999 C40.1,76.6999 40.4,76.7999 40.6,76.9999 C40.8,77.0999 41.1,77.2999 41.2,77.3999 C41.4,77.5999 41.5,77.6999 41.6,77.8999 C41.7,78.0999 41.7,78.2999 41.7,78.5999 C41.7,78.8999 41.6,79.1999 41.5,79.4999 C41.4,79.7999 41.1,79.9999 40.9,80.0999 C40.7,80.1999 40.4,80.3999 40,80.4999 C39.6,80.5999 39.3,80.5999 39,80.5999 C38.3,80.5999 37.7,80.4999 37.1,80.1999" fill="#525252" fill-rule="nonzero"></path>
        <path d="M47.9999,76.3 C47.9999,75.7 47.7999,75.1 47.4999,74.8 C47.1999,74.5 46.7999,74.3 46.1999,74.3 C45.6999,74.3 45.1999,74.5 44.8999,74.9 C44.5999,75.3 44.2999,75.8 44.1999,76.4 L47.9999,76.4 L47.9999,76.3 Z M49.0999,77.2 L44.1999,77.2 C44.1999,78 44.3999,78.6 44.7999,79 C45.1999,79.4 45.7999,79.6 46.4999,79.6 C47.2999,79.6 47.9999,79.3 48.6999,78.8 L48.6999,79.9 C48.0999,80.3 47.2999,80.6 46.2999,80.6 C45.2999,80.6 44.4999,80.3 43.9999,79.6 C43.3999,79 43.1999,78.1 43.1999,76.9 C43.1999,75.8 43.4999,74.9 44.0999,74.2 C44.6999,73.5 45.4999,73.2 46.3999,73.2 C47.2999,73.2 47.9999,73.5 48.4999,74.1 C48.9999,74.7 49.2999,75.5 49.2999,76.6 L49.2999,77.2 L49.0999,77.2 Z" fill="#525252" fill-rule="nonzero"></path>
        <path d="M54.4999,74.5998 C54.2999,74.3998 53.9999,74.2998 53.5999,74.2998 C53.0999,74.2998 52.6999,74.4998 52.3999,74.9998 C52.0999,75.4998 51.8999,76.0998 51.8999,76.7998 L51.8999,80.3998 L50.7999,80.3998 L50.7999,73.3998 L51.8999,73.3998 L51.8999,74.7998 C52.0999,74.2998 52.2999,73.8998 52.5999,73.5998 C52.8999,73.2998 53.2999,73.1998 53.6999,73.1998 C53.9999,73.1998 54.1999,73.1998 54.3999,73.2998 L54.3999,74.5998 L54.4999,74.5998 Z" fill="#525252" fill-rule="nonzero"></path>
        <path d="M58.3998,15.3 L58.3998,5.8 C58.3998,1.6 56.8998,0.1 52.6998,0.1 L5.6998,0.1 C1.4998,0.1 -0.0002,1.6 -0.0002,5.8 L-0.0002,15.3 L58.3998,15.3 Z" fill="#A0A1A2" fill-rule="nonzero"></path>
        <path d="M-0.0001,15.3 L-0.0001,44.5 C-0.0001,48.7 1.4999,50.2 5.6999,50.2 L52.6999,50.2 C56.8999,50.2 58.3999,48.7 58.3999,44.5 L58.3999,15.3 L-0.0001,15.3 Z" fill="#59B4D9" fill-rule="nonzero"></path>
        <path d="M51.1,0.0002 L5.7,0.0002 C1.5,0.0002 0,1.5002 0,5.7002 L0,15.3002 L36.9,15.3002 L51.1,0.0002 Z" fill="#B3B4B5" fill-rule="nonzero"></path>
        <path d="M5.7001,50.1999 L4.9001,50.1999 C1.3001,49.9999 0.0001,48.3999 0.0001,44.4999 L0.0001,15.2999 L36.9001,15.2999 L5.7001,50.1999 Z" fill="#7AC3E1" fill-rule="nonzero"></path>
        <polygon fill="#FCFCFC" fill-rule="nonzero" points="14.6 10.8 54.6 10.8 54.6 5.7 14.6 5.7"></polygon>
        <path d="M7.6,2.5998 C10.748,2.5998 13.3,5.1518 13.3,8.2998 C13.3,11.4478 10.748,13.9998 7.6,13.9998 C4.452,13.9998 1.9,11.4478 1.9,8.2998 C1.9,5.1518 4.452,2.5998 7.6,2.5998" fill="#59B4D9" fill-rule="nonzero"></path>
        <polygon fill="#FCFCFC" fill-rule="nonzero" points="13.3002 7.5998 7.6002 7.5998 9.5002 5.6998 9.5002 5.0998 7.6002 5.0998 4.6002 8.3998 7.6002 11.4998 9.5002 11.4998 9.5002 10.7998 7.6002 8.8998 13.3002 8.8998"></polygon>
        <path d="M194.3998,240.5002 C193.6998,240.8992 192.7998,241.1002 191.6998,241.1002 C190.2998,241.1002 189.1998,240.7002 188.3998,239.8002 C187.5998,238.8992 187.0998,237.7002 187.0998,236.3002 C187.0998,234.7002 187.5998,233.5002 188.4998,232.5002 C189.3998,231.5002 190.5998,231.1002 192.0998,231.1002 C192.9998,231.1002 193.7998,231.2002 194.3998,231.5002 L194.3998,232.7002 C193.6998,232.3002 192.8998,232.1002 192.0998,232.1002 C190.9998,232.1002 190.0998,232.5002 189.3998,233.2002 C188.6998,234.0002 188.3998,235.0002 188.3998,236.2002 C188.3998,237.3992 188.6998,238.3002 189.3998,239.1002 C190.0998,239.8002 190.8998,240.2002 191.9998,240.2002 C192.9998,240.2002 193.7998,240.0002 194.5998,239.5002 L194.5998,240.5002 L194.3998,240.5002 Z" fill="#525252" fill-rule="nonzero"></path>
        <path d="M197.4999,232.2004 L197.4999,239.8994 L198.9999,239.8994 C200.2999,239.8994 201.2999,239.5994 201.9999,238.8994 C202.6999,238.2004 203.0999,237.2004 203.0999,236.0004 C203.0999,233.5004 201.7999,232.2004 199.0999,232.2004 L197.4999,232.2004 Z M196.3999,240.8994 L196.3999,231.0994 L199.0999,231.0994 C202.5999,231.0994 204.2999,232.7004 204.2999,235.8994 C204.2999,237.3994 203.7999,238.5994 202.8999,239.5004 C201.8999,240.3994 200.6999,240.8994 198.9999,240.8994 L196.3999,240.8994 Z" fill="#525252" fill-rule="nonzero"></path>
        <path d="M214.1,240.8996 L212.7,240.8996 L207.7,233.0996 C207.6,232.8996 207.5,232.7006 207.4,232.5006 C207.4,232.7006 207.5,233.2006 207.5,233.7996 L207.5,240.8996 L206.4,240.8996 L206.4,231.0996 L207.9,231.0996 L212.8,238.7996 C213,239.0996 213.1,239.2996 213.2,239.5006 C213.2,239.2006 213.1,238.7006 213.1,238.0996 L213.1,231.2006 L214.2,231.2006 L214.2,240.8996 L214.1,240.8996 Z" fill="#525252" fill-rule="nonzero"></path>
        <path d="M212.8002,184.5002 L180.9002,184.5002 C179.6002,184.5002 178.5002,183.4002 178.5002,182.1002 C178.5002,180.8002 179.6002,179.7002 180.9002,179.7002 L212.8002,179.7002 C214.1002,179.7002 215.2002,180.8002 215.2002,182.1002 C215.2002,183.4002 214.1002,184.5002 212.8002,184.5002" fill="#7A7A7A" fill-rule="nonzero"></path>
        <path d="M206.3002,204.5998 L176.8002,204.5998 C175.5002,204.5998 174.4002,203.4998 174.4002,202.1998 C174.4002,200.8998 175.5002,199.7998 176.8002,199.7998 L206.3002,199.7998 C207.6002,199.7998 208.7002,200.8998 208.7002,202.1998 C208.7002,203.4998 207.6002,204.5998 206.3002,204.5998" fill="#7A7A7A" fill-rule="nonzero"></path>
        <path d="M202.8002,194.8 L173.3002,194.8 C172.0002,194.8 170.9002,193.7 170.9002,192.4 C170.9002,191.1 172.0002,190 173.3002,190 L202.8002,190 C204.1002,190 205.2002,191.1 205.2002,192.4 C205.2002,193.8 204.2002,194.8 202.8002,194.8" fill="#7A7A7A" fill-rule="nonzero"></path>
        <path d="M230.8998,199.4001 C230.8998,196.6001 228.6998,194.3001 225.8998,194.2001 L225.1998,194.2001 C225.4998,193.0001 225.6998,191.8001 225.6998,190.6001 C225.6998,183.2001 219.6998,177.2001 212.2998,177.2001 C206.5998,177.3001 201.4998,180.9001 199.5998,186.3001 C198.5998,186.0001 197.5998,185.9001 196.5998,185.8001 C191.3998,185.8001 187.4998,190.0001 187.4998,195.2001 C187.4998,200.4001 191.5998,204.6001 196.5998,204.6001 L226.1998,204.6001 C228.8998,204.2001 230.8998,202.0001 230.8998,199.4001" fill="#3999C6" fill-rule="nonzero"></path>
        <path d="M201.3002,204.4001 C200.0002,203.2001 199.1002,201.6001 198.8002,199.8001 C197.7002,194.8001 200.7002,189.8001 205.6002,188.8001 C206.6002,188.6001 207.7002,188.5001 208.7002,188.7001 C209.1002,184.0001 212.0002,179.9001 216.3002,177.9001 C215.0002,177.5001 213.6002,177.2001 212.2002,177.2001 C206.5002,177.3001 201.4002,180.9001 199.5002,186.3001 C198.5002,186.0001 197.5002,185.9001 196.5002,185.8001 C191.3002,185.8001 187.4002,190.0001 187.4002,195.2001 C187.4002,200.4001 191.5002,204.6001 196.5002,204.6001 L201.3002,204.4001 Z" fill="#72B6D3" fill-rule="nonzero"></path>
        <path d="M358.8998,231.5998 L356.0998,241.3998 L354.7998,241.3998 L352.7998,234.2008 C352.6998,233.8998 352.6998,233.5998 352.5998,233.2008 C352.5998,233.4998 352.5008,233.8998 352.3998,234.2008 L350.3998,241.3998 L349.0998,241.3998 L346.1998,231.5998 L347.5008,231.5998 L349.5998,239.0998 C349.6998,239.3998 349.6998,239.7008 349.7998,240.0998 C349.7998,239.8998 349.8998,239.4998 350.0008,239.0998 L352.1998,231.5998 L353.2998,231.5998 L355.3998,239.2008 C355.5008,239.4998 355.5008,239.7998 355.5998,240.0998 C355.5998,239.8998 355.6998,239.4998 355.7998,239.2008 L357.7998,231.7008 L358.8998,231.7008 L358.8998,231.5998 Z" fill="#525252" fill-rule="nonzero"></path>
        <path d="M364.1996,237.2004 C364.1996,236.5994 364.0006,236.0004 363.6996,235.7004 C363.3996,235.3994 363.0006,235.2004 362.3996,235.2004 C361.8996,235.2004 361.3996,235.3994 361.0996,235.8004 C360.8006,236.2004 360.5006,236.7004 360.3996,237.3004 L364.1996,237.3004 L364.1996,237.2004 Z M365.3006,238.2004 L360.3996,238.2004 C360.3996,239.0004 360.5996,239.5994 361.0006,240.0004 C361.3996,240.3994 362.0006,240.5994 362.6996,240.5994 C363.5006,240.5994 364.1996,240.3004 364.8996,239.8004 L364.8996,240.8994 C364.3006,241.3004 363.5006,241.5994 362.5006,241.5994 C361.5006,241.5994 360.6996,241.3004 360.1996,240.5994 C359.5996,240.0004 359.3996,239.0994 359.3996,237.8994 C359.3996,236.8004 359.6996,235.8994 360.3006,235.2004 C360.8996,234.5004 361.6996,234.2004 362.5996,234.2004 C363.5006,234.2004 364.1996,234.5004 364.6996,235.0994 C365.1996,235.7004 365.5006,236.5004 365.5006,237.5994 L365.5006,238.2004 L365.3006,238.2004 Z" fill="#525252" fill-rule="nonzero"></path>
        <path d="M368.1,237.5002 L368.1,238.5002 C368.1,239.1002 368.3,239.6002 368.7,240.0002 C369.1,240.3992 369.6,240.6002 370.1,240.6002 C370.8,240.6002 371.3,240.3002 371.7,239.8002 C372.1,239.3002 372.3,238.6002 372.3,237.6002 C372.3,236.8002 372.1,236.2002 371.8,235.8002 C371.4,235.3992 371,235.1002 370.3,235.1002 C369.6,235.1002 369.1,235.3002 368.7,235.8002 C368.3,236.3002 368.1,236.8992 368.1,237.5002 M368.2,240.3992 L368.2,241.3992 L367.1,241.3992 L367.1,231.0002 L368.2,231.0002 L368.2,235.6002 C368.8,234.7002 369.6,234.2002 370.6,234.2002 C371.5,234.2002 372.2,234.5002 372.7,235.1002 C373.2,235.7002 373.5,236.6002 373.5,237.6002 C373.5,238.8002 373.2,239.7002 372.6,240.3992 C372,241.1002 371.3,241.5002 370.3,241.5002 C369.3,241.5002 368.6,241.2002 368.2,240.3992" fill="#525252" fill-rule="nonzero"></path>
        <path d="M384.1,237.5998 L382.6,233.3998 C382.5,233.2998 382.5,232.9998 382.4,232.7008 C382.4,232.9998 382.3,233.2008 382.2,233.3998 L380.7,237.5998 L384.1,237.5998 Z M386.8,241.3998 L385.5,241.3998 L384.5,238.7008 L380.3,238.7008 L379.3,241.3998 L378,241.3998 L381.8,231.5998 L383,231.5998 L386.8,241.3998 Z" fill="#525252" fill-rule="nonzero"></path>
        <path d="M389.1996,237.5002 L389.1996,238.5002 C389.1996,239.1002 389.3996,239.6002 389.8006,240.0002 C390.1996,240.3992 390.6996,240.6002 391.1996,240.6002 C391.8996,240.6002 392.3996,240.3002 392.8006,239.8002 C393.1996,239.3002 393.3996,238.6002 393.3996,237.6002 C393.3996,236.8002 393.1996,236.2002 392.8996,235.8002 C392.5006,235.3992 392.0996,235.1002 391.3996,235.1002 C390.6996,235.1002 390.1996,235.3002 389.8006,235.8002 C389.3996,236.3002 389.1996,236.8992 389.1996,237.5002 M389.3006,240.3992 L389.3006,244.6002 L388.1996,244.6002 L388.1996,234.3992 L389.3006,234.3992 L389.3006,235.6002 C389.8996,234.7002 390.6996,234.2002 391.6996,234.2002 C392.5996,234.2002 393.3006,234.5002 393.8006,235.1002 C394.3006,235.7002 394.5996,236.6002 394.5996,237.6002 C394.5996,238.8002 394.3006,239.7002 393.6996,240.3992 C393.0996,241.1002 392.3996,241.5002 391.3996,241.5002 C390.3996,241.5002 389.6996,241.2002 389.3006,240.3992" fill="#525252" fill-rule="nonzero"></path>
        <path d="M397.5004,237.5002 L397.5004,238.5002 C397.5004,239.1002 397.6994,239.6002 398.1004,240.0002 C398.5004,240.3992 399.0004,240.6002 399.5004,240.6002 C400.1994,240.6002 400.6994,240.3002 401.1004,239.8002 C401.5004,239.3002 401.6994,238.6002 401.6994,237.6002 C401.6994,236.8002 401.5004,236.2002 401.1994,235.8002 C400.8004,235.3992 400.3994,235.1002 399.6994,235.1002 C399.0004,235.1002 398.5004,235.3002 398.1004,235.8002 C397.6994,236.3002 397.5004,236.8992 397.5004,237.5002 M397.5004,240.3992 L397.5004,244.6002 L396.3994,244.6002 L396.3994,234.3992 L397.5004,234.3992 L397.5004,235.6002 C398.1004,234.7002 398.8994,234.2002 399.8994,234.2002 C400.8004,234.2002 401.5004,234.5002 402.0004,235.1002 C402.5004,235.7002 402.8004,236.6002 402.8004,237.6002 C402.8004,238.8002 402.5004,239.7002 401.8994,240.3992 C401.3004,241.1002 400.6004,241.5002 399.6004,241.5002 C398.6994,241.5002 398.0004,241.2002 397.5004,240.3992" fill="#525252" fill-rule="nonzero"></path>
        <path d="M404.1,241.0998 L404.1,239.8998 C404.7,240.3998 405.4,240.5998 406.1,240.5998 C407.1,240.5998 407.6,240.2998 407.6,239.5998 C407.6,239.3998 407.6,239.2998 407.5,239.0998 C407.4,238.9998 407.3,238.8998 407.2,238.7998 C407.1,238.7008 406.9,238.5998 406.7,238.4998 C406.5,238.3998 406.3,238.2998 406.1,238.2998 C405.8,238.2008 405.5,238.0998 405.3,237.8998 C405.1,237.7998 404.9,237.5998 404.7,237.4998 C404.5,237.3998 404.4,237.2008 404.3,236.9998 C404.2,236.7998 404.2,236.5998 404.2,236.2998 C404.2,235.9998 404.3,235.7008 404.4,235.3998 C404.5,235.0998 404.8,234.8998 405,234.7998 C405.3,234.5998 405.5,234.4998 405.9,234.3998 C406.3,234.2998 406.6,234.2998 406.9,234.2998 C407.5,234.2998 408,234.3998 408.5,234.5998 L408.5,235.7008 C408,235.3998 407.4,235.2008 406.7,235.2008 C406.5,235.2008 406.3,235.2008 406.1,235.2998 C405.9,235.2998 405.8,235.3998 405.7,235.4998 C405.6,235.5998 405.5,235.7008 405.4,235.7998 C405.3,235.8998 405.3,236.0998 405.3,236.2008 C405.3,236.3998 405.3,236.4998 405.4,236.7008 C405.5,236.7998 405.6,236.8998 405.7,236.9998 C405.8,237.0998 406,237.2008 406.2,237.2998 C406.4,237.3998 406.6,237.4998 406.8,237.5998 C407.1,237.7008 407.4,237.7998 407.6,237.9998 C407.8,238.2008 408.1,238.2998 408.2,238.3998 C408.4,238.5998 408.5,238.7008 408.6,238.8998 C408.7,239.0998 408.7,239.2998 408.7,239.5998 C408.7,239.8998 408.6,240.2008 408.5,240.4998 C408.3,240.7998 408.1,240.9998 407.9,241.0998 C407.6,241.2998 407.4,241.3998 407,241.4998 C406.7,241.5998 406.3,241.5998 406,241.5998 C405.3,241.4998 404.7,241.3998 404.1,241.0998" fill="#525252" fill-rule="nonzero"></path>
        <path d="M494.6996,237.8 L493.1996,233.6 C493.0996,233.5 493.0996,233.2 493.0006,232.9 C493.0006,233.2 492.8996,233.4 492.8006,233.6 L491.3006,237.8 L494.6996,237.8 Z M497.3996,241.6 L496.0996,241.6 L495.0996,238.9 L490.8996,238.9 L489.8996,241.6 L488.5996,241.6 L492.3996,231.8 L493.5996,231.8 L497.3996,241.6 Z" fill="#525252" fill-rule="nonzero"></path>
        <path d="M499.8002,237.7004 L499.8002,238.7004 C499.8002,239.3004 500.0002,239.8004 500.4002,240.2004 C500.8002,240.5994 501.3002,240.8004 501.8002,240.8004 C502.5002,240.8004 503.0002,240.5004 503.4002,240.0004 C503.8002,239.5004 504.0002,238.8004 504.0002,237.8004 C504.0002,237.0004 503.8002,236.3994 503.5002,236.0004 C503.1002,235.5994 502.6992,235.3004 502.0002,235.3004 C501.3002,235.3004 500.8002,235.5004 500.4002,236.0004 C500.0002,236.5004 499.8002,237.0004 499.8002,237.7004 M499.8002,240.5004 L499.8002,244.7004 L498.6992,244.7004 L498.6992,234.5004 L499.8002,234.5004 L499.8002,235.7004 C500.4002,234.8004 501.1992,234.3004 502.1992,234.3004 C503.1002,234.3004 503.8002,234.5994 504.3002,235.2004 C504.8002,235.8004 505.1002,236.7004 505.1002,237.7004 C505.1002,238.8994 504.8002,239.8004 504.1992,240.5004 C503.6002,241.2004 502.9002,241.5994 501.9002,241.5994 C501.0002,241.7004 500.3002,241.3004 499.8002,240.5004" fill="#525252" fill-rule="nonzero"></path>
        <path d="M508.0004,237.7004 L508.0004,238.7004 C508.0004,239.3004 508.1994,239.8004 508.6004,240.2004 C509.0004,240.5994 509.5004,240.8004 510.0004,240.8004 C510.6994,240.8004 511.1994,240.5004 511.6004,240.0004 C512.0004,239.5004 512.1994,238.8004 512.1994,237.8004 C512.1994,237.0004 512.0004,236.3994 511.6994,236.0004 C511.3004,235.5994 510.8994,235.3004 510.1994,235.3004 C509.5004,235.3004 509.0004,235.5004 508.6004,236.0004 C508.1994,236.5004 508.0004,237.0004 508.0004,237.7004 M508.1004,240.5004 L508.1004,244.7004 L507.0004,244.7004 L507.0004,234.5004 L508.1004,234.5004 L508.1004,235.7004 C508.6994,234.8004 509.5004,234.3004 510.5004,234.3004 C511.3994,234.3004 512.1004,234.5994 512.6004,235.2004 C513.1004,235.8004 513.3994,236.7004 513.3994,237.7004 C513.3994,238.8994 513.1004,239.8004 512.5004,240.5004 C511.8994,241.2004 511.1994,241.5994 510.1994,241.5994 C509.3004,241.7004 508.6004,241.3004 508.1004,240.5004" fill="#525252" fill-rule="nonzero"></path>
        <polygon fill="#525252" fill-rule="nonzero" points="515.199 241.6 516.3 241.6 516.3 231.201 515.199 231.201"></polygon>
        <path d="M518.6,241.6 L519.7,241.6 L519.7,234.6 L518.6,234.6 L518.6,241.6 Z M519.1,232.8 C518.9,232.8 518.7,232.7 518.6,232.6 C518.5,232.5 518.4,232.3 518.4,232.1 C518.4,231.9 518.5,231.7 518.6,231.6 C518.7,231.5 518.9,231.4 519.1,231.4 C519.3,231.4 519.5,231.5 519.6,231.6 C519.7,231.7 519.8,231.9 519.8,232.1 C519.8,232.3 519.7,232.5 519.6,232.6 C519.5,232.7 519.3,232.8 519.1,232.8 Z" fill="#525252" fill-rule="nonzero"></path>
        <path d="M526.6996,241.2004 C526.1996,241.5004 525.5006,241.7004 524.8006,241.7004 C523.8006,241.7004 523.0006,241.3994 522.3996,240.7004 C521.8006,240.0994 521.5006,239.2004 521.5006,238.2004 C521.5006,237.0004 521.8006,236.0994 522.5006,235.3994 C523.1996,234.7004 524.0006,234.3994 525.0996,234.3994 C525.6996,234.3994 526.3006,234.5004 526.6996,234.7004 L526.6996,235.8004 C526.1996,235.3994 525.5996,235.3004 524.9996,235.3004 C524.3006,235.3004 523.6996,235.5994 523.1996,236.0994 C522.6996,236.5994 522.4996,237.3004 522.4996,238.0994 C522.4996,238.8994 522.6996,239.5994 523.0996,240.0004 C523.4996,240.3994 524.0996,240.7004 524.8006,240.7004 C525.3996,240.7004 525.9996,240.5004 526.4996,240.0994 L526.4996,241.2004 L526.6996,241.2004 Z" fill="#525252" fill-rule="nonzero"></path>
        <path d="M532.3002,238.0002 L530.6002,238.2002 C530.1002,238.3002 529.6992,238.3992 529.4002,238.6002 C529.1002,238.8002 529.0002,239.1002 529.0002,239.6002 C529.0002,239.8992 529.1002,240.2002 529.4002,240.3992 C529.6002,240.6002 530.0002,240.7002 530.4002,240.7002 C531.0002,240.7002 531.4002,240.5002 531.8002,240.1002 C532.1992,239.7002 532.3002,239.2002 532.3002,238.6002 L532.3002,238.0002 Z M533.4002,241.6002 L532.3002,241.6002 L532.3002,240.5002 C531.8002,241.3002 531.1002,241.8002 530.1002,241.8002 C529.4002,241.8002 528.9002,241.6002 528.5002,241.2002 C528.1002,240.8002 527.9002,240.3002 527.9002,239.7002 C527.9002,238.3992 528.6992,237.6002 530.1992,237.3992 L532.3002,237.1002 C532.3002,235.8992 531.8002,235.3002 530.9002,235.3002 C530.1002,235.3002 529.3002,235.6002 528.6002,236.2002 L528.6002,235.1002 C529.3002,234.7002 530.1002,234.3992 531.0002,234.3992 C532.6002,234.3992 533.5002,235.3002 533.5002,237.0002 L533.5002,241.6002 L533.4002,241.6002 Z" fill="#525252" fill-rule="nonzero"></path>
        <path d="M538.8002,241.5002 C538.5002,241.6002 538.1992,241.7002 537.8002,241.7002 C536.6002,241.7002 536.0002,241.0002 536.0002,239.6002 L536.0002,235.5002 L534.8002,235.5002 L534.8002,234.5002 L536.0002,234.5002 L536.0002,232.8002 L537.1002,232.3992 L537.1002,234.5002 L538.9002,234.5002 L538.9002,235.5002 L537.1002,235.5002 L537.1002,239.3992 C537.1002,239.8992 537.1992,240.2002 537.3002,240.3992 C537.5002,240.6002 537.6992,240.7002 538.1002,240.7002 C538.4002,240.7002 538.6002,240.6002 538.8002,240.5002 L538.8002,241.5002 Z" fill="#525252" fill-rule="nonzero"></path>
        <path d="M540.3,241.6 L541.4,241.6 L541.4,234.6 L540.3,234.6 L540.3,241.6 Z M540.8,232.8 C540.6,232.8 540.4,232.7 540.3,232.6 C540.2,232.5 540.1,232.3 540.1,232.1 C540.1,231.9 540.2,231.7 540.3,231.6 C540.4,231.5 540.6,231.4 540.8,231.4 C541,231.4 541.2,231.5 541.3,231.6 C541.4,231.7 541.5,231.9 541.5,232.1 C541.5,232.3 541.4,232.5 541.3,232.6 C541.2,232.7 541,232.8 540.8,232.8 Z" fill="#525252" fill-rule="nonzero"></path>
        <path d="M546.6996,235.3 C546.0006,235.3 545.3996,235.5 545.0006,236 C544.5996,236.5 544.3996,237.2 544.3996,238 C544.3996,238.8 544.5996,239.5 545.0006,240 C545.3996,240.5 546.0006,240.7 546.6996,240.7 C547.3996,240.7 548.0006,240.5 548.3996,240 C548.8006,239.5 549.0006,238.9 549.0006,238 C549.0006,237.1 548.8006,236.5 548.3996,236 C548.0006,235.5 547.3996,235.3 546.6996,235.3 M546.5996,241.7 C545.5996,241.7 544.6996,241.4 544.0996,240.7 C543.5006,240 543.1996,239.2 543.1996,238.1 C543.1996,236.9 543.5006,236 544.1996,235.3 C544.8996,234.6 545.6996,234.3 546.8006,234.3 C547.8006,234.3 548.6996,234.6 549.1996,235.3 C549.8006,235.9 550.0996,236.8 550.0996,238 C550.0996,239.1 549.8006,240 549.1996,240.7 C548.5006,241.4 547.5996,241.7 546.5996,241.7" fill="#525252" fill-rule="nonzero"></path>
        <path d="M557.6996,241.5998 L556.5996,241.5998 L556.5996,237.5998 C556.5996,236.0998 556.0996,235.3998 555.0006,235.3998 C554.3996,235.3998 554.0006,235.5998 553.5996,235.9998 C553.1996,236.3998 553.0996,236.9998 553.0996,237.5998 L553.0996,241.5998 L552.0006,241.5998 L552.0006,234.5998 L553.0996,234.5998 L553.0996,235.7998 C553.5996,234.8998 554.3996,234.4998 555.3996,234.4998 C556.1996,234.4998 556.8006,234.7008 557.1996,235.2008 C557.5996,235.7008 557.8006,236.3998 557.8006,237.2998 L557.8006,241.5998 L557.6996,241.5998 Z" fill="#525252" fill-rule="nonzero"></path>
        <polygon fill="#525252" fill-rule="nonzero" points="563.8 241.6 564.9 241.6 564.9 231.8 563.8 231.8"></polygon>
        <path d="M573.1,241.5998 L572,241.5998 L572,237.5998 C572,236.0998 571.5,235.3998 570.4,235.3998 C569.8,235.3998 569.4,235.5998 569,235.9998 C568.6,236.3998 568.5,236.9998 568.5,237.5998 L568.5,241.5998 L567.4,241.5998 L567.4,234.5998 L568.5,234.5998 L568.5,235.7998 C569,234.8998 569.8,234.4998 570.8,234.4998 C571.6,234.4998 572.2,234.7008 572.6,235.2008 C573,235.7008 573.2,236.3998 573.2,237.2998 L573.2,241.5998 L573.1,241.5998 Z" fill="#525252" fill-rule="nonzero"></path>
        <path d="M574.8002,241.3 L574.8002,240.1 C575.4002,240.6 576.1002,240.8 576.8002,240.8 C577.8002,240.8 578.3002,240.5 578.3002,239.8 C578.3002,239.6 578.3002,239.5 578.1992,239.3 C578.1002,239.2 578.0002,239.1 577.9002,239 C577.8002,238.9 577.6002,238.8 577.4002,238.7 C577.1992,238.6 577.0002,238.5 576.8002,238.5 C576.5002,238.4 576.1992,238.3 576.0002,238.1 C575.8002,238 575.6002,237.8 575.4002,237.7 C575.2002,237.6 575.1002,237.4 575.0002,237.2 C574.9002,237 574.9002,236.8 574.9002,236.5 C574.9002,236.2 575.0002,235.9 575.1002,235.6 C575.2002,235.3 575.5002,235.1 575.6992,235 C576.0002,234.8 576.1992,234.7 576.6002,234.6 C577.0002,234.5 577.3002,234.5 577.6002,234.5 C578.1992,234.5 578.6992,234.6 579.1992,234.8 L579.1992,235.9 C578.6992,235.6 578.1002,235.4 577.4002,235.4 C577.1992,235.4 577.0002,235.4 576.8002,235.5 C576.6002,235.5 576.5002,235.6 576.4002,235.7 C576.3002,235.8 576.1992,235.9 576.1002,236 C576.0002,236.1 576.0002,236.3 576.0002,236.4 C576.0002,236.6 576.0002,236.7 576.1002,236.9 C576.1992,237 576.3002,237.1 576.4002,237.2 C576.5002,237.3 576.6992,237.4 576.9002,237.5 C577.1002,237.6 577.3002,237.7 577.5002,237.8 C577.8002,237.9 578.1002,238 578.3002,238.2 C578.5002,238.4 578.8002,238.5 578.9002,238.6 C579.1002,238.8 579.1992,238.9 579.3002,239.1 C579.4002,239.3 579.4002,239.5 579.4002,239.8 C579.4002,240.1 579.3002,240.4 579.1992,240.7 C579.0002,241 578.8002,241.2 578.6002,241.3 C578.3002,241.5 578.1002,241.6 577.6992,241.7 C577.4002,241.8 577.0002,241.8 576.6992,241.8 C576.0002,241.7 575.4002,241.6 574.8002,241.3" fill="#525252" fill-rule="nonzero"></path>
        <path d="M581.199,241.6 L582.3,241.6 L582.3,234.6 L581.199,234.6 L581.199,241.6 Z M581.8,232.8 C581.6,232.8 581.4,232.7 581.3,232.6 C581.2,232.5 581.1,232.3 581.1,232.1 C581.1,231.9 581.2,231.7 581.3,231.6 C581.4,231.5 581.6,231.4 581.8,231.4 C582,231.4 582.2,231.5 582.3,231.6 C582.4,231.7 582.5,231.9 582.5,232.1 C582.5,232.3 582.4,232.5 582.3,232.6 C582.2,232.7 582,232.8 581.8,232.8 Z" fill="#525252" fill-rule="nonzero"></path>
        <path d="M589.3998,238.3996 L589.3998,237.3996 C589.3998,236.7996 589.1998,236.3996 588.7998,236.0006 C588.3998,235.5996 588.0008,235.3996 587.3998,235.3996 C586.6998,235.3996 586.1998,235.7006 585.7998,236.2006 C585.3998,236.7006 585.1998,237.3996 585.1998,238.2996 C585.1998,239.0996 585.3998,239.7006 585.7998,240.2006 C586.1998,240.7006 586.6998,240.8996 587.2998,240.8996 C587.8998,240.8996 588.3998,240.7006 588.7998,240.2006 C589.1998,239.7006 589.3998,239.0996 589.3998,238.3996 Z M590.5998,241.0006 C590.5998,243.5996 589.3998,244.8996 586.8998,244.8996 C586.0008,244.8996 585.2998,244.7006 584.5998,244.3996 L584.5998,243.2996 C585.3998,243.7006 586.0998,244.0006 586.8998,244.0006 C588.5998,244.0006 589.5008,243.0996 589.5008,241.2996 L589.5008,240.5006 C589.0008,241.3996 588.1998,241.7996 587.0998,241.7996 C586.1998,241.7996 585.5008,241.5006 585.0008,240.8996 C584.5008,240.2996 584.1998,239.3996 584.1998,238.3996 C584.1998,237.2006 584.5008,236.2996 585.0998,235.5996 C585.6998,234.8996 586.5008,234.5006 587.3998,234.5006 C588.2998,234.5006 589.0008,234.8996 589.5008,235.5996 L589.5008,234.5996 L590.5998,234.5996 L590.5998,241.0006 Z" fill="#525252" fill-rule="nonzero"></path>
        <path d="M598.6,241.5998 L597.5,241.5998 L597.5,237.5998 C597.5,236.0998 597,235.3998 595.9,235.3998 C595.4,235.3998 594.9,235.5998 594.5,235.9998 C594.1,236.3998 593.9,236.9998 593.9,237.5998 L593.9,241.5998 L592.8,241.5998 L592.8,231.2008 L593.9,231.2008 L593.9,235.7008 C594.4,234.7998 595.2,234.3998 596.2,234.3998 C597.8,234.3998 598.6,235.3998 598.6,237.2998 L598.6,241.5998 Z" fill="#525252" fill-rule="nonzero"></path>
        <path d="M604.0004,241.5002 C603.6994,241.6002 603.3994,241.7002 603.0004,241.7002 C601.8004,241.7002 601.1994,241.0002 601.1994,239.6002 L601.1994,235.5002 L600.0004,235.5002 L600.0004,234.5002 L601.1994,234.5002 L601.1994,232.8002 L602.3004,232.3992 L602.3004,234.5002 L604.1004,234.5002 L604.1004,235.5002 L602.3004,235.5002 L602.3004,239.3992 C602.3004,239.8992 602.3994,240.2002 602.5004,240.3992 C602.6994,240.6002 602.8994,240.7002 603.3004,240.7002 C603.6004,240.7002 603.8004,240.6002 604.0004,240.5002 L604.0004,241.5002 Z" fill="#525252" fill-rule="nonzero"></path>
        <path d="M605.1,241.3 L605.1,240.1 C605.7,240.6 606.4,240.8 607.1,240.8 C608.1,240.8 608.6,240.5 608.6,239.8 C608.6,239.6 608.6,239.5 608.5,239.3 C608.4,239.2 608.3,239.1 608.2,239 C608.1,238.9 607.9,238.8 607.7,238.7 C607.5,238.6 607.3,238.5 607.1,238.5 C606.8,238.4 606.5,238.3 606.3,238.1 C606.1,238 605.9,237.8 605.7,237.7 C605.5,237.6 605.4,237.4 605.3,237.2 C605.2,237 605.2,236.8 605.2,236.5 C605.2,236.2 605.3,235.9 605.4,235.6 C605.5,235.3 605.8,235.1 606,235 C606.3,234.8 606.5,234.7 606.9,234.6 C607.3,234.5 607.6,234.5 607.9,234.5 C608.5,234.5 609,234.6 609.5,234.8 L609.5,235.9 C609,235.6 608.4,235.4 607.7,235.4 C607.5,235.4 607.3,235.4 607.1,235.5 C606.9,235.5 606.8,235.6 606.7,235.7 L606.4,236 C606.3,236.1 606.3,236.3 606.3,236.4 C606.3,236.6 606.3,236.7 606.4,236.9 C606.5,237 606.6,237.1 606.7,237.2 C606.8,237.3 607,237.4 607.2,237.5 C607.4,237.6 607.6,237.7 607.8,237.8 C608.1,237.9 608.4,238 608.6,238.2 C608.8,238.4 609.1,238.5 609.2,238.6 C609.4,238.8 609.5,238.9 609.6,239.1 C609.7,239.3 609.7,239.5 609.7,239.8 C609.7,240.1 609.6,240.4 609.5,240.7 C609.3,241 609.1,241.2 608.9,241.3 C608.6,241.5 608.4,241.6 608,241.7 C607.7,241.8 607.3,241.8 607,241.8 C606.2,241.7 605.6,241.6 605.1,241.3" fill="#525252" fill-rule="nonzero"></path>
        <path d="M346.8998,391.7004 L346.8998,395.3004 L348.5008,395.3004 C348.7998,395.3004 349.0998,395.3004 349.2998,395.2004 C349.5008,395.0994 349.7998,395.0004 349.8998,394.8004 C350.0998,394.5994 350.1998,394.3994 350.2998,394.2004 C350.3998,394.0004 350.5008,393.7004 350.5008,393.3994 C350.5008,392.8994 350.2998,392.5004 350.0008,392.2004 C349.6998,391.8994 349.1998,391.8004 348.5008,391.8004 L346.8998,391.8004 L346.8998,391.7004 Z M352.6998,400.5004 L351.2998,400.5004 L349.6998,397.8004 C349.5008,397.5004 349.3998,397.3004 349.2998,397.0994 C349.1998,396.8994 349.0008,396.8004 348.8998,396.7004 C348.7998,396.5994 348.5998,396.5004 348.3998,396.5004 C348.1998,396.3994 348.0008,396.3994 347.7998,396.3994 L346.8998,396.3994 L346.8998,400.5994 L345.7998,400.5994 L345.7998,390.8004 L348.6998,390.8004 C349.0998,390.8004 349.5008,390.8994 349.8998,391.0004 C350.2998,391.0994 350.5998,391.3004 350.7998,391.5004 C351.0008,391.7004 351.2998,392.0004 351.3998,392.3004 C351.5998,392.5994 351.5998,393.0004 351.5998,393.3994 C351.5998,393.7004 351.5008,394.0994 351.3998,394.3004 C351.2998,394.5994 351.1998,394.8004 351.0008,395.0994 C350.7998,395.3004 350.5998,395.5004 350.2998,395.7004 C350.0008,395.8994 349.6998,396.0004 349.3998,396.0994 C349.5998,396.2004 349.6998,396.3004 349.7998,396.3994 C349.8998,396.5004 350.0008,396.5994 350.0998,396.7004 C350.1998,396.8004 350.2998,397.0004 350.3998,397.0994 C350.5008,397.3004 350.5998,397.3994 350.7998,397.7004 L352.6998,400.5004 Z" fill="#525252" fill-rule="nonzero"></path>
        <path d="M358.0004,396.3 C358.0004,395.7 357.8004,395.1 357.5004,394.8 C357.1994,394.4 356.8004,394.3 356.1994,394.3 C355.6994,394.3 355.1994,394.5 354.8994,394.9 C354.5004,395.3 354.3004,395.8 354.1994,396.4 L358.0004,396.4 L358.0004,396.3 Z M359.1994,397.2 L354.3004,397.2 C354.3004,398 354.5004,398.6 354.8994,399 C355.3004,399.4 355.8994,399.6 356.6004,399.6 C357.3994,399.6 358.1004,399.3 358.8004,398.8 L358.8004,399.9 C358.1994,400.3 357.3994,400.6 356.3994,400.6 C355.3994,400.6 354.6004,400.3 354.1004,399.6 C353.5004,399 353.3004,398.1 353.3004,396.9 C353.3004,395.8 353.6004,394.9 354.1994,394.2 C354.8004,393.5 355.6004,393.2 356.5004,393.2 C357.3994,393.2 358.1004,393.5 358.6004,394.1 C359.1004,394.7 359.3994,395.5 359.3994,396.6 L359.3994,397.2 L359.1994,397.2 Z" fill="#525252" fill-rule="nonzero"></path>
        <path d="M365.6996,397.3 L365.6996,396.3 C365.6996,395.7 365.5006,395.3 365.0996,394.9 C364.6996,394.5 364.3006,394.3 363.6996,394.3 C363.0006,394.3 362.5006,394.6 362.0996,395.1 C361.6996,395.6 361.5006,396.3 361.5006,397.2 C361.5006,398 361.6996,398.6 362.0996,399.1 C362.5006,399.6 363.0006,399.8 363.5996,399.8 C364.1996,399.8 364.6996,399.6 365.0996,399.1 C365.5006,398.6 365.6996,398 365.6996,397.3 Z M366.8006,400.5 L365.6996,400.5 L365.6996,399.3 C365.1996,400.2 364.3996,400.7 363.3006,400.7 C362.3996,400.7 361.6996,400.4 361.1996,399.8 C360.6996,399.2 360.3996,398.3 360.3996,397.2 C360.3996,396 360.6996,395.1 361.3006,394.4 C361.8996,393.7 362.6996,393.4 363.5996,393.4 C364.5996,393.4 365.3006,393.8 365.6996,394.5 L365.6996,390.2 L366.8006,390.2 L366.8006,400.5 Z" fill="#525252" fill-rule="nonzero"></path>
        <path d="M369.1,400.5 L370.2,400.5 L370.2,393.5 L369.1,393.5 L369.1,400.5 Z M369.7,391.7 C369.5,391.7 369.3,391.6 369.2,391.5 C369.1,391.4 369,391.2 369,391 C369,390.8 369.1,390.6 369.2,390.5 C369.3,390.4 369.5,390.3 369.7,390.3 C369.9,390.3 370.1,390.4 370.2,390.5 C370.3,390.6 370.4,390.8 370.4,391 C370.4,391.2 370.3,391.4 370.2,391.5 C370.1,391.6 369.9,391.7 369.7,391.7 Z" fill="#525252" fill-rule="nonzero"></path>
        <path d="M372.1,400.2004 L372.1,399.0004 C372.7,399.5004 373.4,399.7004 374.1,399.7004 C375.1,399.7004 375.6,399.3994 375.6,398.7004 C375.6,398.5004 375.6,398.3994 375.5,398.2004 L375.2,397.8994 C375.1,397.8004 374.9,397.7004 374.7,397.5994 C374.5,397.5004 374.3,397.3994 374.1,397.3004 C373.8,397.2004 373.5,397.0994 373.3,396.8994 C373.1,396.8004 372.9,396.5994 372.7,396.5004 C372.5,396.3994 372.4,396.2004 372.3,396.0004 C372.2,395.8004 372.2,395.5994 372.2,395.3004 C372.2,395.0004 372.3,394.7004 372.4,394.3994 C372.5,394.0994 372.8,393.8994 373,393.8004 C373.3,393.5994 373.5,393.5004 373.9,393.3994 C374.2,393.3004 374.6,393.3004 374.9,393.3004 C375.5,393.3004 376,393.3994 376.5,393.5994 L376.5,394.7004 C376,394.3994 375.4,394.2004 374.7,394.2004 C374.5,394.2004 374.3,394.2004 374.1,394.3004 C373.9,394.3004 373.8,394.3994 373.7,394.5004 C373.6,394.5994 373.5,394.7004 373.4,394.8004 C373.3,394.8994 373.3,395.0994 373.3,395.2004 C373.3,395.3994 373.3,395.5004 373.4,395.7004 C373.5,395.8004 373.6,395.8994 373.7,396.0004 C373.8,396.0994 374,396.2004 374.2,396.3004 C374.4,396.3994 374.6,396.5004 374.8,396.5994 C375.1,396.7004 375.4,396.8004 375.6,397.0004 C375.8,397.0994 376.1,397.3004 376.2,397.3994 C376.4,397.5994 376.5,397.7004 376.6,397.8994 C376.7,398.0994 376.7,398.3004 376.7,398.5994 C376.7,398.8994 376.6,399.2004 376.5,399.5004 C376.3,399.8004 376.1,400.0004 375.9,400.0994 C375.6,400.3004 375.4,400.3994 375,400.5004 C374.7,400.5994 374.3,400.5994 374,400.5994 C373.2,400.5994 372.6,400.5004 372.1,400.2004" fill="#525252" fill-rule="nonzero"></path>
        <path d="M389.1,400.0998 C388.4,400.4998 387.5,400.7008 386.4,400.7008 C385,400.7008 383.9,400.2998 383.1,399.3998 C382.3,398.4998 381.8,397.2998 381.8,395.8998 C381.8,394.2998 382.3,393.0998 383.2,392.0998 C384.1,391.0998 385.3,390.7008 386.8,390.7008 C387.7,390.7008 388.5,390.7998 389.1,391.0998 L389.1,392.2998 C388.4,391.8998 387.6,391.7008 386.8,391.7008 C385.7,391.7008 384.8,392.0998 384.1,392.7998 C383.4,393.5998 383.1,394.5998 383.1,395.7998 C383.1,396.9998 383.4,397.8998 384.1,398.7008 C384.8,399.3998 385.6,399.7998 386.7,399.7998 C387.7,399.7998 388.5,399.5998 389.3,399.0998 L389.3,400.0998 L389.1,400.0998 Z" fill="#525252" fill-rule="nonzero"></path>
        <path d="M394.8002,396.8996 L393.1002,397.0996 C392.6002,397.2006 392.1992,397.2996 391.9002,397.5006 C391.6002,397.7006 391.5002,398.0006 391.5002,398.5006 C391.5002,398.7996 391.6002,399.0996 391.9002,399.2996 C392.1002,399.5006 392.5002,399.5996 392.9002,399.5996 C393.5002,399.5996 393.9002,399.3996 394.3002,399.0006 C394.6992,398.5996 394.8002,398.0996 394.8002,397.5006 L394.8002,396.8996 Z M395.9002,400.5006 L394.8002,400.5006 L394.8002,399.3996 C394.3002,400.2006 393.6002,400.7006 392.6002,400.7006 C391.9002,400.7006 391.4002,400.5006 391.0002,400.0996 C390.6002,399.7006 390.4002,399.2006 390.4002,398.5996 C390.4002,397.2996 391.1992,396.5006 392.6992,396.2996 L394.8002,396.0006 C394.8002,394.7996 394.3002,394.2006 393.4002,394.2006 C392.6002,394.2006 391.8002,394.5006 391.1002,395.0996 L391.1002,394.0006 C391.8002,393.5996 392.6002,393.2996 393.5002,393.2996 C395.1002,393.2996 396.0002,394.2006 396.0002,395.8996 L396.0002,400.5006 L395.9002,400.5006 Z" fill="#525252" fill-rule="nonzero"></path>
        <path d="M402.8002,400.0998 C402.3002,400.3998 401.6002,400.5998 400.9002,400.5998 C399.9002,400.5998 399.1002,400.2998 398.5002,399.5998 C397.9002,398.9998 397.6002,398.0998 397.6002,397.0998 C397.6002,395.8998 397.9002,394.9998 398.6002,394.2998 C399.3002,393.5998 400.1002,393.2998 401.1992,393.2998 C401.8002,393.2998 402.4002,393.3998 402.8002,393.5998 L402.8002,394.7008 C402.3002,394.2998 401.6992,394.2008 401.1002,394.2008 C400.4002,394.2008 399.8002,394.4998 399.3002,394.9998 C398.8002,395.4998 398.6002,396.2008 398.6002,396.9998 C398.6002,397.7998 398.8002,398.4998 399.1992,398.8998 C399.6002,399.3998 400.1992,399.5998 400.9002,399.5998 C401.5002,399.5998 402.1002,399.3998 402.6002,398.9998 L402.6002,400.0998 L402.8002,400.0998 Z" fill="#525252" fill-rule="nonzero"></path>
        <path d="M410.3002,400.5002 L409.1992,400.5002 L409.1992,396.5002 C409.1992,395.0002 408.6992,394.3002 407.6002,394.3002 C407.1002,394.3002 406.6002,394.5002 406.1992,394.8992 C405.8002,395.3002 405.6002,395.8992 405.6002,396.5002 L405.6002,400.5002 L404.5002,400.5002 L404.5002,390.1002 L405.6002,390.1002 L405.6002,394.6002 C406.1002,393.7002 406.9002,393.3002 407.9002,393.3002 C409.5002,393.3002 410.3002,394.3002 410.3002,396.2002 L410.3002,400.5002 Z" fill="#525252" fill-rule="nonzero"></path>
        <path d="M416.8998,396.3 C416.8998,395.7 416.6998,395.1 416.3998,394.8 C416.0998,394.4 415.6998,394.3 415.0998,394.3 C414.5998,394.3 414.0998,394.5 413.7998,394.9 C413.3998,395.3 413.1998,395.8 413.0998,396.4 L416.8998,396.4 L416.8998,396.3 Z M418.0998,397.2 L413.1998,397.2 C413.1998,398 413.3998,398.6 413.7998,399 C414.1998,399.4 414.7998,399.6 415.5008,399.6 C416.2998,399.6 417.0008,399.3 417.6998,398.8 L417.6998,399.9 C417.0998,400.3 416.2998,400.6 415.2998,400.6 C414.2998,400.6 413.5008,400.3 413.0008,399.6 C412.3998,399 412.1998,398.1 412.1998,396.9 C412.1998,395.8 412.5008,394.9 413.0998,394.2 C413.6998,393.5 414.5008,393.2 415.3998,393.2 C416.2998,393.2 417.0008,393.5 417.5008,394.1 C418.0008,394.7 418.2998,395.5 418.2998,396.6 L418.2998,397.2 L418.0998,397.2 Z" fill="#525252" fill-rule="nonzero"></path>
        <path d="M361.1996,332.3996 L361.1996,362.5006 C361.1996,365.7006 368.1996,368.2006 376.8006,368.2006 L376.8006,332.3996 L361.1996,332.3996 Z" fill="#3999C6" fill-rule="nonzero"></path>
        <path d="M376.6,368.0998 L376.9,368.0998 C385.6,368.0998 392.5,365.5998 392.5,362.3998 L392.5,332.2998 L376.6,332.2998 L376.6,368.0998 Z" fill="#59B4D9" fill-rule="nonzero"></path>
        <path d="M392.3998,332.3996 C392.3998,335.5006 385.3998,338.0996 376.7998,338.0996 C368.1998,338.0996 361.0998,335.5006 361.0998,332.3996 C361.0998,329.2996 368.0998,326.7006 376.6998,326.7006 C385.3998,326.7006 392.3998,329.2996 392.3998,332.3996" fill="#FFFFFF" fill-rule="nonzero"></path>
        <path d="M389.3002,332.0998 C389.3002,334.2008 383.6992,335.8998 376.9002,335.8998 C370.1002,335.8998 364.4002,334.2008 364.4002,332.0998 C364.4002,329.9998 370.0002,328.2998 376.8002,328.2998 C383.6002,328.2998 389.3002,329.9998 389.3002,332.0998" fill="#7FBA00" fill-rule="nonzero"></path>
        <path d="M386.6,334.3 C388.3,333.6 389.2,332.9 389.2,332 C389.2,329.9 383.6,328.2 376.8,328.2 C370,328.2 364.4,329.9 364.4,332 C364.4,332.8 365.4,333.7 367,334.3 C369.3,333.4 372.8,332.9 376.8,332.9 C380.8,332.9 384.4,333.5 386.6,334.3" fill="#B8D432" fill-rule="nonzero"></path>
        <path d="M381.0004,344.3 L381.0004,364.4 C381.0004,366.5 385.6994,368.2 391.3994,368.2 L391.3994,344.3 L381.0004,344.3 Z" fill="#0072C6" fill-rule="nonzero"></path>
        <path d="M391.3002,368.0998 L391.5002,368.0998 C397.3002,368.0998 401.9002,366.3998 401.9002,364.2998 L401.9002,344.2998 L391.3002,344.2998 L391.3002,368.0998 Z" fill="#0072C6" fill-rule="nonzero"></path>
        <path d="M391.3002,368.0998 L391.5002,368.0998 C397.3002,368.0998 401.9002,366.3998 401.9002,364.2998 L401.9002,344.2998 L391.3002,344.2998 L391.3002,368.0998 Z" fill="#3A94CF" fill-rule="nonzero"></path>
        <path d="M401.8998,344.3 C401.8998,346.4 397.1998,348.1 391.5008,348.1 C385.7998,348.1 381.0998,346.4 381.0998,344.3 C381.0998,342.2 385.7998,340.5 391.5008,340.5 C397.1998,340.5 401.8998,342.2 401.8998,344.3" fill="#FFFFFF" fill-rule="nonzero"></path>
        <path d="M399.6996,344.0998 C399.6996,345.3998 395.8996,346.5998 391.3996,346.5998 C386.8996,346.5998 383.0996,345.4998 383.0996,344.0998 C383.0996,342.7998 386.8996,341.5998 391.3996,341.5998 C395.8996,341.5998 399.6996,342.7008 399.6996,344.0998" fill="#7FBA00" fill-rule="nonzero"></path>
        <path d="M397.8998,345.5998 C399.0008,345.2008 399.6998,344.7008 399.6998,344.0998 C399.6998,342.7998 395.8998,341.5998 391.3998,341.5998 C386.7998,341.5998 383.0998,342.7008 383.0998,344.0998 C383.0998,344.7008 383.7998,345.2008 384.8998,345.5998 C386.3998,344.9998 388.7998,344.5998 391.5008,344.5998 C394.0008,344.5998 396.3998,344.9998 397.8998,345.5998" fill="#B8D432" fill-rule="nonzero"></path>
        <polygon fill="#FFFFFF" fill-rule="nonzero" points="397.1 356.5002 385.5 366.1002 390 358.6002 386.1 358.6002 397.7 349.1002 393.2 356.5002"></polygon>
        <path d="M510.8998,402.3 L510.8998,400.9 C511.0998,401 511.1998,401.2 511.5008,401.3 C511.6998,401.4 511.8998,401.5 512.1998,401.6 C512.5008,401.7 512.6998,401.7 512.8998,401.8 C513.0998,401.8 513.3998,401.9 513.5998,401.9 C514.2998,401.9 514.7998,401.8 515.1998,401.5 C515.5008,401.2 515.6998,400.9 515.6998,400.4 C515.6998,400.1 515.5998,399.9 515.5008,399.7 C515.3998,399.5 515.1998,399.3 515.0008,399.2 C514.7998,399 514.5998,398.9 514.2998,398.7 C514.0008,398.6 513.6998,398.4 513.3998,398.2 C513.0998,398 512.6998,397.9 512.3998,397.7 C512.0998,397.5 511.7998,397.3 511.5998,397.1 C511.3998,396.9 511.1998,396.6 511.0998,396.4 C511.0008,396.1 510.8998,395.8 510.8998,395.4 C510.8998,395 511.0008,394.6 511.1998,394.2 C511.3998,393.9 511.6998,393.6 512.0008,393.4 C512.2998,393.2 512.6998,393 513.0998,392.9 C513.5008,392.8 513.8998,392.7 514.2998,392.7 C515.2998,392.7 516.0008,392.8 516.3998,393 L516.3998,394.3 C515.7998,393.9 515.0998,393.7 514.1998,393.7 C513.8998,393.7 513.6998,393.7 513.3998,393.8 C513.0998,393.9 512.8998,393.9 512.6998,394.1 C512.4998,394.2 512.2998,394.4 512.1998,394.6 C512.0998,394.8 511.9998,395 511.9998,395.3 C511.9998,395.6 511.9998,395.8 512.0998,395.9 C512.1998,396.1 512.2998,396.2 512.4998,396.4 C512.6998,396.6 512.8998,396.7 513.1998,396.8 C513.4998,396.9 513.7998,397.1 514.0998,397.3 C514.5008,397.5 514.7998,397.7 515.0998,397.8 C515.3998,397.9 515.6998,398.2 515.8998,398.4 C516.0998,398.6 516.2998,398.9 516.4998,399.2 C516.5998,399.5 516.6998,399.8 516.6998,400.2 C516.6998,400.7 516.5998,401.1 516.3998,401.4 C516.1998,401.7 515.9998,402 515.5998,402.2 C515.2998,402.4 514.8998,402.6 514.5008,402.7 C514.0998,402.8 513.5998,402.8 513.1998,402.8 L512.5998,402.8 C512.3998,402.8 512.0998,402.7 511.8998,402.7 C511.6998,402.7 511.3998,402.6 511.1998,402.5 C511.1998,402.4 511.0008,402.3 510.8998,402.3" fill="#525252" fill-rule="nonzero"></path>
        <path d="M522.8002,393.7004 C521.8002,393.7004 520.9002,394.0994 520.3002,394.8004 C519.6992,395.5004 519.3002,396.5004 519.3002,397.7004 C519.3002,398.8994 519.6002,399.8994 520.1992,400.5994 C520.8002,401.3004 521.6002,401.7004 522.6992,401.7004 C523.8002,401.7004 524.6002,401.3004 525.1992,400.5994 C525.8002,399.8994 526.1002,398.8994 526.1002,397.7004 C526.1002,396.3994 525.8002,395.3994 525.1992,394.7004 C524.6992,394.0994 523.9002,393.7004 522.8002,393.7004 M522.6992,402.8004 C521.3002,402.8004 520.1992,402.3004 519.4002,401.3994 C518.6002,400.5004 518.1002,399.3004 518.1002,397.8004 C518.1002,396.2004 518.5002,395.0004 519.4002,394.0004 C520.3002,393.0994 521.4002,392.5994 522.9002,392.5994 C524.1992,392.5994 525.3002,393.0994 526.1992,394.0004 C527.0002,394.8994 527.4002,396.0994 527.4002,397.5994 C527.4002,399.2004 527.0002,400.5004 526.1002,401.3994 C525.9002,401.5994 525.6992,401.8004 525.5002,402.0004 L528.3002,404.0004 L526.1992,404.0004 L524.4002,402.5994 C523.8002,402.7004 523.3002,402.8004 522.6992,402.8004" fill="#525252" fill-rule="nonzero"></path>
        <polygon fill="#525252" fill-rule="nonzero" points="534.3998 402.7004 529.2998 402.7004 529.2998 392.8994 530.3998 392.8994 530.3998 401.7004 534.2998 401.7004 534.2998 402.7004"></polygon>
        <path d="M540.8998,393.8996 L540.8998,401.5996 L542.3998,401.5996 C543.6998,401.5996 544.6998,401.2996 545.3998,400.5996 C546.0998,399.8996 546.5008,398.8996 546.5008,397.7006 C546.5008,395.2006 545.1998,393.8996 542.5008,393.8996 L540.8998,393.8996 Z M539.6998,402.7006 L539.6998,392.8996 L542.3998,392.8996 C545.8998,392.8996 547.5998,394.5006 547.5998,397.7006 C547.5998,399.2006 547.0998,400.3996 546.1998,401.2996 C545.1998,402.2006 544.0008,402.7006 542.2998,402.7006 L539.6998,402.7006 Z" fill="#525252" fill-rule="nonzero"></path>
        <path d="M553.3002,399.0998 L551.6002,399.2998 C551.1002,399.3998 550.6992,399.4998 550.4002,399.7008 C550.1002,399.8998 550.0002,400.2008 550.0002,400.7008 C550.0002,400.9998 550.1002,401.2998 550.4002,401.4998 C550.6002,401.7008 551.0002,401.7998 551.4002,401.7998 C552.0002,401.7998 552.4002,401.5998 552.8002,401.2008 C553.1992,400.7998 553.3002,400.2998 553.3002,399.7008 L553.3002,399.0998 Z M554.4002,402.7008 L553.3002,402.7008 L553.3002,401.5998 C552.8002,402.3998 552.1002,402.8998 551.1002,402.8998 C550.4002,402.8998 549.9002,402.7008 549.5002,402.2998 C549.1002,401.8998 548.9002,401.3998 548.9002,400.7998 C548.9002,399.4998 549.6992,398.7008 551.1992,398.4998 L553.3002,398.2008 C553.3002,396.9998 552.8002,396.3998 551.9002,396.3998 C551.1002,396.3998 550.3002,396.7008 549.6002,397.2998 L549.6002,396.2008 C550.3002,395.7998 551.1002,395.4998 552.0002,395.4998 C553.6002,395.4998 554.5002,396.3998 554.5002,398.0998 L554.5002,402.7008 L554.4002,402.7008 Z" fill="#525252" fill-rule="nonzero"></path>
        <path d="M559.8002,402.5998 C559.5002,402.7008 559.1992,402.7998 558.8002,402.7998 C557.6002,402.7998 557.0002,402.0998 557.0002,400.7008 L557.0002,396.5998 L555.8002,396.5998 L555.8002,395.5998 L557.0002,395.5998 L557.0002,393.8998 L558.1002,393.4998 L558.1002,395.5998 L559.9002,395.5998 L559.9002,396.5998 L558.1002,396.5998 L558.1002,400.4998 C558.1002,400.9998 558.1992,401.2998 558.3002,401.4998 C558.5002,401.7008 558.6992,401.7998 559.1002,401.7998 C559.4002,401.7998 559.6002,401.7008 559.8002,401.5998 L559.8002,402.5998 Z" fill="#525252" fill-rule="nonzero"></path>
        <path d="M565.1996,399.0998 L563.5006,399.2998 C563.0006,399.3998 562.5996,399.4998 562.3006,399.7008 C562.0006,399.8998 561.8996,400.2008 561.8996,400.7008 C561.8996,400.9998 562.0006,401.2998 562.3006,401.4998 C562.5006,401.7008 562.8996,401.7998 563.3006,401.7998 C563.8996,401.7998 564.3006,401.5998 564.6996,401.2008 C565.0996,400.7998 565.1996,400.2998 565.1996,399.7008 L565.1996,399.0998 Z M566.3006,402.7008 L565.1996,402.7008 L565.1996,401.5998 C564.6996,402.3998 564.0006,402.8998 563.0006,402.8998 C562.3006,402.8998 561.8006,402.7008 561.3996,402.2998 C561.0006,401.8998 560.8006,401.3998 560.8006,400.7998 C560.8006,399.4998 561.5996,398.7008 563.0996,398.4998 L565.1996,398.2008 C565.1996,396.9998 564.6996,396.3998 563.8006,396.3998 C563.0006,396.3998 562.1996,396.7008 561.5006,397.2998 L561.5006,396.2008 C562.1996,395.7998 563.0006,395.4998 563.8996,395.4998 C565.5006,395.4998 566.3996,396.3998 566.3996,398.0998 L566.3996,402.7008 L566.3006,402.7008 Z" fill="#525252" fill-rule="nonzero"></path>
        <path d="M569.5004,398.8 L569.5004,399.8 C569.5004,400.4 569.6994,400.9 570.1004,401.3 C570.5004,401.7 571.0004,401.9 571.5004,401.9 C572.1994,401.9 572.6994,401.6 573.1004,401.1 C573.5004,400.6 573.6994,399.9 573.6994,398.9 C573.6994,398.1 573.5004,397.5 573.1994,397.1 C572.8004,396.7 572.3994,396.4 571.6994,396.4 C571.0004,396.4 570.5004,396.6 570.1004,397.1 C569.6994,397.6 569.5004,398.1 569.5004,398.8 M569.5004,401.6 L569.5004,402.6 L568.3994,402.6 L568.3994,392.3 L569.5004,392.3 L569.5004,396.9 C570.1004,396 570.8994,395.5 571.8994,395.5 C572.8004,395.5 573.5004,395.8 574.0004,396.4 C574.5004,397 574.8004,397.9 574.8004,398.9 C574.8004,400.1 574.5004,401 573.8994,401.7 C573.3004,402.4 572.6004,402.8 571.6004,402.8 C570.6994,402.8 570.0004,402.4 569.5004,401.6" fill="#525252" fill-rule="nonzero"></path>
        <path d="M580.5004,399.0998 L578.8004,399.2998 C578.3004,399.3998 577.8994,399.4998 577.6004,399.7008 C577.3004,399.8998 577.1994,400.2008 577.1994,400.7008 C577.1994,400.9998 577.3004,401.2998 577.6004,401.4998 C577.8004,401.7008 578.1994,401.7998 578.6004,401.7998 C579.1994,401.7998 579.6004,401.5998 580.0004,401.2008 C580.3994,400.7998 580.5004,400.2998 580.5004,399.7008 L580.5004,399.0998 Z M581.6004,402.7008 L580.5004,402.7008 L580.5004,401.5998 C580.0004,402.3998 579.3004,402.8998 578.3004,402.8998 C577.6004,402.8998 577.1004,402.7008 576.6994,402.2998 C576.3004,401.8998 576.1004,401.3998 576.1004,400.7998 C576.1004,399.4998 576.8994,398.7008 578.3994,398.4998 L580.5004,398.2008 C580.5004,396.9998 580.0004,396.3998 579.1004,396.3998 C578.3004,396.3998 577.5004,396.7008 576.8004,397.2998 L576.8004,396.2008 C577.5004,395.7998 578.3004,395.4998 579.1994,395.4998 C580.8004,395.4998 581.6994,396.3998 581.6994,398.0998 L581.6994,402.7008 L581.6004,402.7008 Z" fill="#525252" fill-rule="nonzero"></path>
        <path d="M583.3002,402.3996 L583.3002,401.2006 C583.9002,401.7006 584.6002,401.8996 585.3002,401.8996 C586.3002,401.8996 586.8002,401.5996 586.8002,400.8996 C586.8002,400.7006 586.8002,400.5996 586.6992,400.3996 L586.4002,400.0996 C586.3002,400.0006 586.1002,399.8996 585.9002,399.7996 C585.6992,399.7006 585.5002,399.5996 585.3002,399.5006 C585.0002,399.3996 584.6992,399.2996 584.5002,399.0996 C584.3002,399.0006 584.1002,398.7996 583.9002,398.7006 C583.7002,398.5996 583.6002,398.3996 583.5002,398.2006 C583.4002,398.0006 583.4002,397.7996 583.4002,397.5006 C583.4002,397.2006 583.5002,396.8996 583.6002,396.5996 C583.7002,396.2996 584.0002,396.0996 584.1992,396.0006 C584.5002,395.7996 584.6992,395.7006 585.1002,395.5996 C585.4002,395.5006 585.8002,395.5006 586.1002,395.5006 C586.6992,395.5006 587.1992,395.5996 587.6992,395.7996 L587.6992,396.8996 C587.1992,396.5996 586.6002,396.3996 585.9002,396.3996 C585.6992,396.3996 585.5002,396.3996 585.3002,396.5006 C585.1002,396.5006 585.0002,396.5996 584.9002,396.7006 C584.8002,396.7996 584.6992,396.8996 584.6002,397.0006 C584.5002,397.0996 584.5002,397.2996 584.5002,397.3996 C584.5002,397.5996 584.5002,397.7006 584.6002,397.8996 C584.6992,398.0006 584.8002,398.0996 584.9002,398.2006 C585.0002,398.2996 585.1992,398.3996 585.4002,398.5006 C585.6002,398.5996 585.8002,398.7006 586.0002,398.7996 C586.3002,398.8996 586.6002,399.0006 586.8002,399.2006 C587.0002,399.2996 587.3002,399.5006 587.4002,399.5996 C587.6002,399.7996 587.6992,399.8996 587.8002,400.0996 C587.9002,400.2996 587.9002,400.5006 587.9002,400.7996 C587.9002,401.0996 587.8002,401.3996 587.6992,401.7006 C587.5002,402.0006 587.3002,402.2006 587.1002,402.2996 C586.8002,402.5006 586.6002,402.5996 586.1992,402.7006 C585.9002,402.7996 585.5002,402.7996 585.1992,402.7996 C584.5002,402.7996 583.9002,402.7006 583.3002,402.3996" fill="#525252" fill-rule="nonzero"></path>
        <path d="M594.1996,398.5002 C594.1996,397.8992 594.0006,397.3002 593.6996,397.0002 C593.3996,396.6002 593.0006,396.5002 592.3996,396.5002 C591.8996,396.5002 591.3996,396.7002 591.0996,397.1002 C590.6996,397.5002 590.5006,398.0002 590.3996,398.6002 L594.1996,398.6002 L594.1996,398.5002 Z M595.3006,399.3992 L590.3996,399.3992 C590.3996,400.2002 590.5996,400.8002 591.0006,401.2002 C591.3996,401.6002 592.0006,401.8002 592.6996,401.8002 C593.5006,401.8002 594.1996,401.5002 594.8996,401.0002 L594.8996,402.1002 C594.3006,402.5002 593.5006,402.8002 592.5006,402.8002 C591.5006,402.8002 590.6996,402.5002 590.1996,401.8002 C589.5996,401.2002 589.3996,400.3002 589.3996,399.1002 C589.3996,398.0002 589.6996,397.1002 590.3006,396.3992 C590.8996,395.7002 591.6996,395.3992 592.5996,395.3992 C593.5006,395.3992 594.1996,395.7002 594.6996,396.3002 C595.1996,396.8992 595.5006,397.7002 595.5006,398.8002 L595.5006,399.3992 L595.3006,399.3992 Z" fill="#525252" fill-rule="nonzero"></path>
        <path d="M534.3002,331.3 L534.3002,367.2 C534.3002,370.9 542.6002,374 552.9002,374 L552.9002,331.3 L534.3002,331.3 Z" fill="#0072C6" fill-rule="nonzero"></path>
        <path d="M552.6996,374.0002 L553.0006,374.0002 C563.3006,374.0002 571.5996,371.0002 571.5996,367.2002 L571.5996,331.3002 L552.6996,331.3002 L552.6996,374.0002 Z" fill="#0072C6" fill-rule="nonzero"></path>
        <path d="M552.5004,374.0002 L552.8004,374.0002 C563.1994,374.0002 571.6994,371.0002 571.6994,367.2002 L571.6994,331.2002 L552.6004,331.2002 L552.6004,374.0002 L552.5004,374.0002 Z" fill="#3A94CF" fill-rule="nonzero"></path>
        <path d="M571.6,331.3 C571.6,335 563.3,338.1 553,338.1 C542.7,338.1 534.4,335.1 534.4,331.3 C534.4,327.5 542.7,324.5 553,324.5 C563.3,324.5 571.6,327.6 571.6,331.3" fill="#FFFFFF" fill-rule="nonzero"></path>
        <path d="M567.8002,330.8996 C567.8002,333.3996 561.1992,335.3996 553.0002,335.3996 C544.8002,335.3996 538.1992,333.3996 538.1992,330.8996 C538.1992,328.3996 544.8002,326.3996 553.0002,326.3996 C561.1992,326.3996 567.8002,328.3996 567.8002,330.8996" fill="#7FBA00" fill-rule="nonzero"></path>
        <path d="M564.6996,333.5998 C566.5996,332.7998 567.8006,331.8998 567.8006,330.8998 C567.8006,328.3998 561.1996,326.3998 553.0006,326.3998 C544.8006,326.3998 538.1996,328.3998 538.1996,330.8998 C538.1996,331.8998 539.3996,332.8998 541.3006,333.5998 C544.0006,332.4998 548.3006,331.8998 553.0006,331.8998 C557.6996,331.8998 562.0006,332.5998 564.6996,333.5998" fill="#B8D432" fill-rule="nonzero"></path>
        <path d="M547.0004,356.2004 C547.0004,357.3004 546.6004,358.2004 545.8004,358.8004 C545.0004,359.3994 543.8994,359.7004 542.3994,359.7004 C541.1994,359.7004 540.1994,359.5004 539.3994,359.0004 L539.3994,356.3994 C540.3004,357.2004 541.3994,357.5994 542.5004,357.5994 C543.0004,357.5994 543.5004,357.5004 543.8004,357.3004 C544.1004,357.0994 544.1994,356.8004 544.1994,356.3994 C544.1994,356.0004 544.1004,355.7004 543.8004,355.5004 C543.5004,355.2004 542.8994,354.8994 542.0004,354.5004 C540.1994,353.7004 539.3004,352.5004 539.3004,351.0994 C539.3004,350.0004 539.6994,349.2004 540.5004,348.5994 C541.3004,348.0004 542.3004,347.5994 543.6004,347.5994 C544.6994,347.5994 545.6994,347.8004 546.5004,348.0994 L546.5004,350.5994 C545.6994,350.0994 544.8004,349.8004 543.8004,349.8004 C543.3004,349.8004 542.8994,349.8994 542.6004,350.0994 C542.3004,350.3004 542.1994,350.5994 542.1994,351.0004 C542.1994,351.3994 542.3004,351.7004 542.6004,351.8994 C542.8004,352.0994 543.3004,352.3994 544.1004,352.8004 C545.1994,353.3004 546.0004,353.8004 546.5004,354.3994 C546.8004,354.8004 547.0004,355.3994 547.0004,356.2004" fill="#FFFFFF" fill-rule="nonzero"></path>
        <path d="M556.8998,353.7004 C556.8998,352.5004 556.5998,351.5994 556.0998,350.8994 C555.5998,350.2004 554.8998,349.8994 554.0008,349.8994 C553.0998,349.8994 552.2998,350.2004 551.7998,350.8994 C551.1998,351.5994 551.0008,352.5004 551.0008,353.7004 C551.0008,354.8004 551.2998,355.8004 551.7998,356.5004 C552.2998,357.2004 553.0998,357.5004 554.0008,357.5004 C554.8998,357.5004 555.5998,357.2004 556.1998,356.5004 C556.5998,355.8004 556.8998,354.8994 556.8998,353.7004 M559.6998,353.5994 C559.6998,355.0004 559.3998,356.2004 558.7998,357.2004 C558.1998,358.2004 557.2998,358.8994 556.0998,359.3004 L559.5008,362.5004 L556.0998,362.5004 L553.6998,359.8004 C552.6998,359.8004 551.6998,359.5004 550.8998,359.0004 C550.0998,358.5004 549.3998,357.8004 549.0008,356.8994 C548.5008,356.0004 548.2998,355.0004 548.2998,353.8994 C548.2998,352.7004 548.5008,351.5994 549.0008,350.5994 C549.5008,349.5994 550.1998,348.8994 551.0998,348.3994 C552.0008,347.8994 553.0008,347.5994 554.1998,347.5994 C555.2998,347.5994 556.2998,347.8004 557.0998,348.3004 C558.0008,348.8004 558.5998,349.5004 559.0998,350.3994 C559.5008,351.3994 559.6998,352.3994 559.6998,353.5994" fill="#FFFFFF" fill-rule="nonzero"></path>
        <polygon fill="#FFFFFF" fill-rule="nonzero" points="568.6996 359.5002 561.5996 359.5002 561.5996 347.8002 564.3006 347.8002 564.3006 357.3992 568.6996 357.3992"></polygon>
        <polygon fill="#969696" fill-rule="nonzero" points="376.3002 147.4001 376.3002 37.3001 74.3002 37.3001 74.3002 38.8001 204.5002 38.8001 204.5002 147.4001 200.0002 147.4001 205.2002 156.4001 210.5002 147.4001 206.0002 147.4001 206.0002 38.8001 374.8002 38.8001 374.8002 147.4001 370.3002 147.4001 375.5002 156.4001 380.6992 147.4001"></polygon>
        <polygon fill="#969696" fill-rule="nonzero" points="517.5004 204.8 508.5004 199.6 508.5004 204.1 413.3004 204.1 413.3004 205.6 508.5004 205.6 508.5004 210.1"></polygon>
        <polygon fill="#969696" fill-rule="nonzero" points="376.3002 308.3 376.3002 265.9 376.3002 262.1 380.6992 262.1 375.5002 253.1 370.3002 262.1 374.8002 262.1 374.8002 265.9 374.8002 308.3 374.8002 312 370.3002 312 375.5002 321.1 380.6992 312 376.3002 312"></polygon>
        <a class="architecture-tooltip-trigger" href="#">
            <circle fill="#A5CE00" cx="290.5" cy="37.5" r="14.5"></circle>
            <text x="287.186" y="42.3682" fill="#000000" font-family="SegoeUI, Segoe UI" font-size="14" font-weight="normal">1</text>
        </a>
        <a class="architecture-tooltip-trigger" href="#">
            <circle fill="#A5CE00" cx="375.5" cy="286.5" r="14.5"></circle>
            <text x="371.586" y="291.3682" fill="#000000" font-family="SegoeUI, Segoe UI" font-size="14" font-weight="normal">3</text>
        </a>
        <a class="architecture-tooltip-trigger" href="#">
            <circle fill="#A5CE00" cx="462.5" cy="204.5" r="14.5"></circle>
            <text x="458.186" y="209.3682" fill="#000000" font-family="SegoeUI, Segoe UI" font-size="14" font-weight="normal">2</text>
        </a>

        <a class="architecture-tooltip-trigger" href="#">
            <circle fill="#A5CE00" cx="205.5" cy="87.5" r="14.5"></circle>
            <text x="201.186" y="92.3682" fill="#000000" font-family="SegoeUI, Segoe UI" font-size="14" font-weight="normal">4</text>
        </a>

        <path d="M362.0111,186.8806 C363.1941,186.4516 364.4601,186.3786 365.6641,186.6306 C365.9071,186.3546 366.1551,186.0786 366.4111,185.8036 C368.4271,183.6726 370.6121,181.8386 372.5741,180.4666 C372.5681,180.4616 372.5631,180.4576 372.5581,180.4516 C370.2221,177.9716 368.1511,175.4286 366.6021,172.9076 C365.3161,173.5406 364.0671,174.2926 362.8861,175.2016 C362.0061,175.8746 361.2141,176.6156 360.4651,177.3856 C360.1591,179.2106 360.0411,182.6306 362.0111,186.8806" fill="#59B4D9" fill-rule="nonzero"></path>
        <path d="M375.7016,178.4997 L375.7026,178.5017 C381.7646,175.2777 387.0726,175.2057 390.5046,175.7287 C386.4646,172.3767 381.4266,170.6337 376.3436,170.6337 C374.0576,170.6337 371.7636,170.9897 369.5466,171.7047 C371.6346,174.1297 373.6846,176.3907 375.7006,178.4997 L375.7016,178.4997 Z" fill="#59B4D9" fill-rule="nonzero"></path>
        <path d="M358.9623,197.2473 C357.0913,194.7943 357.1753,191.4703 358.9673,189.1253 C357.4463,185.4673 357.5663,182.4253 358.0673,180.2873 C352.9753,187.7143 352.8053,197.7403 358.1733,205.4513 C358.2943,203.1773 358.6573,200.5483 359.4583,197.8193 C359.2853,197.6393 359.1183,197.4503 358.9623,197.2473" fill="#59B4D9" fill-rule="nonzero"></path>
        <path d="M394.4965,205.5861 C394.4835,205.6041 394.4725,205.6211 394.4595,205.6401 C394.4715,205.6221 394.4835,205.6041 394.4965,205.5861" fill="#59B4D9" fill-rule="nonzero"></path>
        <path d="M379.8373,182.7482 C382.4543,185.3492 384.9373,187.6722 387.1953,189.6982 C389.2453,188.5172 391.8693,189.0032 393.3503,190.9202 C394.3863,192.2792 394.5653,194.0182 393.9983,195.5092 C395.7143,196.9002 396.9033,197.8162 397.7863,198.4732 C399.4743,192.0742 398.3133,184.9982 393.9743,179.3372 C393.8893,179.2252 393.7973,179.1212 393.7103,179.0122 C393.3283,178.9752 387.6883,178.5252 379.8373,182.7482" fill="#59B4D9" fill-rule="nonzero"></path>
        <path d="M392.4584,197.5925 C390.3684,199.1825 387.3784,198.8025 385.7674,196.7015 C384.6474,195.2385 384.5324,193.3395 385.2684,191.7795 C382.4874,189.6105 379.5514,187.1835 376.7814,184.6235 C376.7824,184.6235 376.7824,184.6225 376.7834,184.6225 C376.7114,184.5555 376.6444,184.4875 376.5714,184.4205 C376.6434,184.4885 376.7084,184.5605 376.7804,184.6275 C374.9764,185.8585 373.0474,187.3915 370.9964,189.3075 C370.7274,189.5595 370.4774,189.8145 370.2244,190.0675 C371.3424,192.2175 371.2064,194.7735 369.9414,196.7675 C370.3284,197.0975 370.7294,197.4285 371.1464,197.7595 C373.2184,199.3995 375.2274,200.7035 377.1444,201.7435 C379.0534,200.5145 381.6154,200.9115 383.0164,202.7485 C383.4254,203.2845 383.6804,203.8865 383.8124,204.5055 C389.3054,206.0835 393.3274,205.5405 394.7064,205.2555 C395.7464,203.7235 396.5744,202.0845 397.1934,200.3765 C396.3544,199.8055 394.8764,198.8155 392.7514,197.3185 C392.6514,197.4075 392.5674,197.5095 392.4584,197.5925" fill="#59B4D9" fill-rule="nonzero"></path>
        <path d="M397.352,199.9733 C397.372,199.9143 397.392,199.8563 397.412,199.7983 C397.392,199.8563 397.372,199.9143 397.352,199.9733" fill="#59B4D9" fill-rule="nonzero"></path>
        <path d="M382.2006,208.9269 C380.2676,210.4029 377.4996,210.0429 376.0046,208.1119 C375.3046,207.1849 375.0356,206.0669 375.1456,204.9899 C373.0296,203.9339 370.8576,202.5939 368.6806,200.8699 C368.0476,200.3559 367.4526,199.8509 366.8846,199.3519 C365.8926,199.7689 364.8346,199.9329 363.7946,199.8539 C362.2866,203.9039 362.1136,207.5009 362.2726,209.9409 C366.3046,213.2629 371.3216,214.9909 376.3846,214.9909 C381.0876,214.9909 385.8226,213.4939 389.8426,210.4209 C390.5256,209.8969 391.1606,209.3349 391.7656,208.7509 C389.5436,208.7469 386.5766,208.6029 383.1836,207.8479 C382.9206,208.2469 382.6026,208.6189 382.2006,208.9269" fill="#59B4D9" fill-rule="nonzero"></path>
        <path d="M397.2104,200.3874 C397.2644,200.2474 397.3044,200.1114 397.3524,199.9734 C397.3054,200.1094 397.2434,200.2414 397.1934,200.3764 C397.1994,200.3804 397.2054,200.3844 397.2104,200.3874" fill="#FFFFFF" fill-rule="nonzero"></path>
        <path d="M394.727,205.2512 C394.721,205.2522 394.713,205.2532 394.706,205.2552 C394.633,205.3632 394.572,205.4792 394.497,205.5862 C394.575,205.4722 394.657,205.3552 394.727,205.2512" fill="#FFFFFF" fill-rule="nonzero"></path>
        <polygon fill="#7A7A7A" fill-rule="nonzero" points="544.246 207.1283 554.949 207.1283 554.949 203.6943 544.246 203.6943"></polygon>
        <polygon fill="#7A7A7A" fill-rule="nonzero" points="544.2455 210.864 547.5785 214.398 551.5155 214.398 554.8475 210.864"></polygon>
        <path d="M533.0436,180.2284 C533.0346,180.1314 533.0256,180.0344 533.0206,179.9434 C533.0256,180.0344 533.0346,180.1304 533.0436,180.2284" fill="#68217A" fill-rule="nonzero"></path>
        <path d="M533.1159,180.8382 C533.0989,180.7252 533.0839,180.6132 533.0709,180.5062 C533.0839,180.6132 533.0989,180.7242 533.1159,180.8382" fill="#68217A" fill-rule="nonzero"></path>
        <path d="M533.235,181.5155 C533.208,181.3845 533.183,181.2565 533.162,181.1325 C533.183,181.2575 533.208,181.3845 533.235,181.5155" fill="#68217A" fill-rule="nonzero"></path>
        <path d="M533.0007,179.2552 C533.0007,179.1862 533.0007,179.1122 533.0027,179.0522 C533.0007,179.1132 533.0007,179.1852 533.0007,179.2552" fill="#68217A" fill-rule="nonzero"></path>
        <path d="M533.0085,179.6986 C533.0055,179.6156 533.0015,179.5316 533.0005,179.4556 C533.0015,179.5316 533.0055,179.6146 533.0085,179.6986" fill="#68217A" fill-rule="nonzero"></path>
        <path d="M533.9733,183.849 C533.8933,183.664 533.8233,183.482 533.7543,183.302 C533.8233,183.482 533.8933,183.663 533.9733,183.849" fill="#68217A" fill-rule="nonzero"></path>
        <path d="M533.4108,182.2489 C533.3708,182.1009 533.3338,181.9559 533.3008,181.8129 C533.3338,181.9559 533.3708,182.1009 533.4108,182.2489" fill="#68217A" fill-rule="nonzero"></path>
        <path d="M534.3776,184.6942 C534.2706,184.4892 534.1756,184.2892 534.0836,184.0892 C534.1756,184.2892 534.2706,184.4892 534.3776,184.6942" fill="#68217A" fill-rule="nonzero"></path>
        <path d="M534.8737,185.5585 C534.7327,185.3345 534.6077,185.1135 534.4877,184.8925 C534.6077,185.1135 534.7327,185.3345 534.8737,185.5585" fill="#68217A" fill-rule="nonzero"></path>
        <path d="M533.0075,178.9139 C533.0105,178.8539 533.0125,178.7889 533.0155,178.7399 C533.0125,178.7899 533.0105,178.8519 533.0075,178.9139" fill="#68217A" fill-rule="nonzero"></path>
        <path d="M533.654,183.0301 C533.596,182.8631 533.545,182.7011 533.496,182.5401 C533.545,182.7011 533.596,182.8631 533.654,183.0301" fill="#68217A" fill-rule="nonzero"></path>
        <path d="M565.8542,178.7543 L565.8542,178.4513 C565.8542,173.3863 563.0162,168.8913 558.7842,166.3363 L545.7202,179.3993 C547.3402,179.8313 548.4862,181.2993 548.4862,182.9953 L548.4862,184.7123 L550.2032,184.7123 L550.2032,182.9953 C550.2032,180.9753 551.9192,179.2593 553.9392,179.2593 C555.9582,179.2593 557.6752,180.9753 557.6752,182.9953 C557.6752,185.0143 555.9582,186.7313 553.9392,186.7313 L552.2222,186.7313 L552.2222,199.5553 L550.2032,199.5553 L550.2032,186.7313 L548.4862,186.7313 L548.4862,199.4543 L546.4662,199.4543 L546.4662,186.7313 L544.7502,186.7313 C543.0632,186.7313 541.6032,185.5283 541.1632,183.9573 L536.9752,188.1453 C536.1422,187.3303 535.4872,186.5023 534.9632,185.6913 C535.6832,186.8083 536.6522,187.9553 537.9852,189.0533 C540.6102,191.3763 543.3362,197.6363 543.7412,199.4543 L544.0432,200.0603 L554.7472,200.0603 L555.0492,199.4543 C555.4542,197.6363 558.2812,191.3763 560.8052,189.1543 C566.5612,184.3073 565.8542,178.9563 565.8542,178.7543" fill="#68217A" fill-rule="nonzero"></path>
        <path d="M555.6559,182.995 C555.6559,182.086 554.9489,181.278 553.9389,181.278 C553.0299,181.278 552.2219,182.086 552.2219,182.995 L552.2219,184.712 L553.9389,184.712 C554.8469,184.712 555.6559,183.904 555.6559,182.995" fill="#68217A" fill-rule="nonzero"></path>
        <path d="M544.7507,184.7118 L546.4667,184.7118 L546.4667,182.9948 C546.3657,182.0868 545.6587,181.2778 544.7507,181.2778 C543.8417,181.2778 543.0337,181.9848 543.0337,182.9948 C543.0337,183.9038 543.8417,184.7118 544.7507,184.7118" fill="#68217A" fill-rule="nonzero"></path>
        <path d="M556.6882,165.2689 C556.7382,165.2899 556.7892,165.3079 556.8372,165.3299 C556.7882,165.3089 556.7382,165.2899 556.6882,165.2689" fill="#68217A" fill-rule="nonzero"></path>
        <path d="M557.905,165.8353 C558.162,165.9703 558.413,166.1153 558.663,166.2643 C558.413,166.1173 558.165,165.9693 557.905,165.8353" fill="#68217A" fill-rule="nonzero"></path>
        <path d="M533.0163,178.725 C533.0273,178.572 533.0373,178.475 533.0373,178.451 C533.0373,178.474 533.0273,178.574 533.0163,178.725" fill="#68217A" fill-rule="nonzero"></path>
        <path d="M544.7507,181.2782 C545.6587,181.2782 546.3657,182.0862 546.4667,182.9952 L546.4667,184.7122 L544.7507,184.7122 C543.8417,184.7122 543.0337,183.9032 543.0337,182.9952 C543.0337,181.9852 543.8417,181.2782 544.7507,181.2782 Z M552.2227,182.9952 C552.2227,182.0862 553.0297,181.2782 553.9387,181.2782 C554.9487,181.2782 555.6557,182.0862 555.6557,182.9952 C555.6557,183.9032 554.8477,184.7122 553.9387,184.7122 L552.2227,184.7122 L552.2227,182.9952 Z M544.7507,186.7312 L546.4667,186.7312 L546.4667,199.4542 L548.4857,199.4542 L548.4857,186.7312 L550.2027,186.7312 L550.2027,199.5552 L552.2227,199.5552 L552.2227,186.7312 L553.9387,186.7312 C555.9587,186.7312 557.6757,185.0142 557.6757,182.9952 C557.6757,180.9752 555.9587,179.2592 553.9387,179.2592 C551.9197,179.2592 550.2027,180.9752 550.2027,182.9952 L550.2027,184.7122 L548.4857,184.7122 L548.4857,182.9952 C548.4857,181.2992 547.3407,179.8312 545.7207,179.3992 L541.1627,183.9572 C541.6037,185.5282 543.0637,186.7312 544.7507,186.7312 Z" fill="#68217A" fill-rule="nonzero"></path>
        <path d="M544.7507,181.2782 C545.6587,181.2782 546.3657,182.0862 546.4667,182.9952 L546.4667,184.7122 L544.7507,184.7122 C543.8417,184.7122 543.0337,183.9032 543.0337,182.9952 C543.0337,181.9852 543.8417,181.2782 544.7507,181.2782 Z M552.2227,182.9952 C552.2227,182.0862 553.0297,181.2782 553.9387,181.2782 C554.9487,181.2782 555.6557,182.0862 555.6557,182.9952 C555.6557,183.9032 554.8477,184.7122 553.9387,184.7122 L552.2227,184.7122 L552.2227,182.9952 Z M544.7507,186.7312 L546.4667,186.7312 L546.4667,200.0392 L548.4857,200.0392 L548.4857,186.7312 L550.2027,186.7312 L550.2027,200.0232 L552.2227,200.0232 L552.2227,186.7312 L553.9387,186.7312 C555.9587,186.7312 557.6757,185.0142 557.6757,182.9952 C557.6757,180.9752 555.9587,179.2592 553.9387,179.2592 C551.9197,179.2592 550.2027,180.9752 550.2027,182.9952 L550.2027,184.7122 L548.4857,184.7122 L548.4857,182.9952 C548.4857,181.2992 547.3407,179.8312 545.7207,179.3992 L541.1627,183.9572 C541.6037,185.5282 543.0637,186.7312 544.7507,186.7312 Z" fill="#CFBBD4" fill-rule="nonzero"></path>
        <path d="M533.7546,183.3021 C533.7206,183.2111 533.6856,183.1191 533.6536,183.0301 C533.6856,183.1191 533.7206,183.2111 533.7546,183.3021" fill="#FFFFFF" fill-rule="nonzero"></path>
        <path d="M533.4958,182.5404 C533.4668,182.4424 533.4368,182.3444 533.4108,182.2484 C533.4368,182.3454 533.4668,182.4424 533.4958,182.5404" fill="#FFFFFF" fill-rule="nonzero"></path>
        <path d="M534.9635,185.6913 C534.9345,185.6473 534.9015,185.6023 534.8735,185.5583 C534.9015,185.6023 534.9345,185.6473 534.9635,185.6913" fill="#FFFFFF" fill-rule="nonzero"></path>
        <path d="M534.0837,184.0887 C534.0477,184.0087 534.0077,183.9277 533.9737,183.8487 C534.0087,183.9287 534.0467,184.0087 534.0837,184.0887" fill="#FFFFFF" fill-rule="nonzero"></path>
        <path d="M533.0026,179.0521 C533.0036,179.0011 533.0056,178.9591 533.0076,178.9141 C533.0056,178.9601 533.0036,179.0001 533.0026,179.0521" fill="#FFFFFF" fill-rule="nonzero"></path>
        <path d="M534.488,184.8924 C534.452,184.8264 534.412,184.7594 534.378,184.6944 C534.412,184.7594 534.452,184.8264 534.488,184.8924" fill="#FFFFFF" fill-rule="nonzero"></path>
        <path d="M558.7858,166.3338 C558.7458,166.3098 558.7038,166.2888 558.6628,166.2648 C558.7028,166.2888 558.7438,166.3118 558.7838,166.3358 L558.7858,166.3338 Z" fill="#FFFFFF" fill-rule="nonzero"></path>
        <path d="M533.0202,179.9437 C533.0152,179.8577 533.0122,179.7777 533.0082,179.6987 C533.0122,179.7787 533.0152,179.8577 533.0202,179.9437" fill="#FFFFFF" fill-rule="nonzero"></path>
        <path d="M556.8376,165.3295 C557.2016,165.4835 557.5566,165.6555 557.9046,165.8355 C557.5566,165.6515 557.1986,165.4855 556.8376,165.3295" fill="#FFFFFF" fill-rule="nonzero"></path>
        <path d="M551.0104,164.1127 C553.0214,164.1377 554.9384,164.5507 556.6884,165.2687 C554.9204,164.5267 553.0184,164.1127 551.0104,164.1127" fill="#FFFFFF" fill-rule="nonzero"></path>
        <path d="M533.071,180.5062 C533.06,180.4102 533.051,180.3192 533.044,180.2282 C533.051,180.3192 533.06,180.4092 533.071,180.5062" fill="#FFFFFF" fill-rule="nonzero"></path>
        <path d="M533.3005,181.8129 C533.2775,181.7119 533.2545,181.6129 533.2355,181.5159 C533.2545,181.6129 533.2775,181.7119 533.3005,181.8129" fill="#FFFFFF" fill-rule="nonzero"></path>
        <path d="M533.1618,181.1327 C533.1448,181.0317 533.1298,180.9347 533.1158,180.8387 C533.1298,180.9347 533.1438,181.0317 533.1618,181.1327" fill="#FFFFFF" fill-rule="nonzero"></path>
        <path d="M533.0007,179.4554 C532.9997,179.3834 533.0007,179.3204 533.0007,179.2554 C533.0007,179.3204 532.9997,179.3824 533.0007,179.4554" fill="#FFFFFF" fill-rule="nonzero"></path>
        <path d="M533.0153,178.7401 C533.0163,178.7341 533.0163,178.7311 533.0163,178.7251 C533.0163,178.7311 533.0163,178.7341 533.0153,178.7401" fill="#FFFFFF" fill-rule="nonzero"></path>
        <path d="M541.1628,183.9574 C541.0758,183.6464 541.0148,183.3284 541.0148,182.9954 C541.0148,180.9754 542.6298,179.2594 544.7508,179.2594 C545.0908,179.2594 545.4108,179.3164 545.7208,179.3994 L558.7838,166.3364 C558.7438,166.3114 558.7028,166.2884 558.6628,166.2644 C558.4128,166.1154 558.1618,165.9704 557.9048,165.8354 C557.5568,165.6554 557.2018,165.4834 556.8378,165.3294 C556.7888,165.3084 556.7378,165.2894 556.6878,165.2694 C554.9378,164.5504 553.0208,164.1374 551.0108,164.1124 C550.8088,163.8104 546.1638,164.2134 546.1638,164.2134 C538.7928,165.1224 533.0368,171.2824 533.0368,178.4514 C533.0368,178.4754 533.0268,178.5724 533.0168,178.7254 C533.0168,178.7304 533.0168,178.7344 533.0158,178.7404 C533.0128,178.7894 533.0108,178.8544 533.0078,178.9144 C533.0058,178.9594 533.0038,179.0004 533.0028,179.0524 C533.0008,179.1124 533.0008,179.1864 533.0008,179.2554 C533.0008,179.3204 532.9998,179.3834 533.0008,179.4554 C533.0018,179.5314 533.0058,179.6154 533.0088,179.6984 C533.0128,179.7784 533.0158,179.8574 533.0198,179.9434 C533.0258,180.0344 533.0348,180.1314 533.0438,180.2284 C533.0518,180.3184 533.0598,180.4104 533.0708,180.5064 C533.0838,180.6134 533.0998,180.7254 533.1158,180.8384 C533.1298,180.9344 533.1448,181.0324 533.1618,181.1324 C533.1838,181.2564 533.2078,181.3844 533.2348,181.5154 C533.2548,181.6124 533.2768,181.7124 533.3008,181.8124 C533.3338,181.9554 533.3708,182.1014 533.4108,182.2494 C533.4368,182.3444 533.4668,182.4424 533.4958,182.5404 C533.5448,182.7014 533.5968,182.8634 533.6538,183.0304 C533.6848,183.1194 533.7208,183.2104 533.7548,183.3024 C533.8228,183.4824 533.8928,183.6644 533.9738,183.8494 C534.0078,183.9284 534.0478,184.0094 534.0838,184.0884 C534.1758,184.2894 534.2698,184.4894 534.3778,184.6944 C534.4118,184.7594 534.4518,184.8264 534.4878,184.8924 C534.6078,185.1134 534.7328,185.3344 534.8738,185.5584 C534.9018,185.6024 534.9338,185.6464 534.9638,185.6914 C535.4868,186.5024 536.1418,187.3304 536.9758,188.1444 L541.1628,183.9574 Z" fill="#885095" fill-rule="nonzero"></path>
        <path d="M541.1628,183.9574 C541.0758,183.6464 541.0148,183.3284 541.0148,182.9954 C541.0148,180.9754 542.6298,179.2594 544.7508,179.2594 C545.0908,179.2594 545.4108,179.3164 545.7208,179.3994 L558.7838,166.3364 C558.7438,166.3114 558.7028,166.2884 558.6628,166.2644 C558.4128,166.1154 558.1618,165.9704 557.9048,165.8354 C557.5568,165.6554 557.2018,165.4834 556.8378,165.3294 C556.7888,165.3084 556.7378,165.2894 556.6878,165.2694 C554.9378,164.5504 553.0208,164.1374 551.0108,164.1124 C550.8088,163.8104 546.1638,164.2134 546.1638,164.2134 C538.7928,165.1224 533.0368,171.2824 533.0368,178.4514 C533.0368,178.4754 533.0268,178.5724 533.0168,178.7254 C533.0168,178.7304 533.0168,178.7344 533.0158,178.7404 C533.0128,178.7894 533.0108,178.8544 533.0078,178.9144 C533.0058,178.9594 533.0038,179.0004 533.0028,179.0524 C533.0008,179.1124 533.0008,179.1864 533.0008,179.2554 C533.0008,179.3204 532.9998,179.3834 533.0008,179.4554 C533.0018,179.5314 533.0058,179.6154 533.0088,179.6984 C533.0128,179.7784 533.0158,179.8574 533.0198,179.9434 C533.0258,180.0344 533.0348,180.1314 533.0438,180.2284 C533.0518,180.3184 533.0598,180.4104 533.0708,180.5064 C533.0838,180.6134 533.0998,180.7254 533.1158,180.8384 C533.1298,180.9344 533.1448,181.0324 533.1618,181.1324 C533.1838,181.2564 533.2078,181.3844 533.2348,181.5154 C533.2548,181.6124 533.2768,181.7124 533.3008,181.8124 C533.3338,181.9554 533.3708,182.1014 533.4108,182.2494 C533.4368,182.3444 533.4668,182.4424 533.4958,182.5404 C533.5448,182.7014 533.5968,182.8634 533.6538,183.0304 C533.6848,183.1194 533.7208,183.2104 533.7548,183.3024 C533.8228,183.4824 533.8928,183.6644 533.9738,183.8494 C534.0078,183.9284 534.0478,184.0094 534.0838,184.0884 C534.1758,184.2894 534.2698,184.4894 534.3778,184.6944 C534.4118,184.7594 534.4518,184.8264 534.4878,184.8924 C534.6078,185.1134 534.7328,185.3344 534.8738,185.5584 C534.9018,185.6024 534.9338,185.6464 534.9638,185.6914 C535.4868,186.5024 536.1418,187.3304 536.9758,188.1444 L541.1628,183.9574 Z" fill="#68217A" fill-rule="nonzero"></path>
        <path d="M541.0143,182.995 C541.0143,183.328 541.0763,183.647 541.1623,183.957 L545.7203,179.399 C545.4103,179.317 545.0903,179.259 544.7503,179.259 C542.6293,179.259 541.0143,180.975 541.0143,182.995" fill="#68217A" fill-rule="nonzero"></path>
        <path d="M541.0143,182.995 C541.0143,183.328 541.0763,183.647 541.1623,183.957 L545.7203,179.399 C545.4103,179.317 545.0903,179.259 544.7503,179.259 C542.6293,179.259 541.0143,180.975 541.0143,182.995" fill="#FFFFFF" fill-rule="nonzero"></path>
        <path d="M541.0143,182.995 C541.0143,183.328 541.0763,183.647 541.1623,183.957 L545.7203,179.399 C545.4103,179.317 545.0903,179.259 544.7503,179.259 C542.6293,179.259 541.0143,180.975 541.0143,182.995" fill="#D7C6DA" fill-rule="nonzero"></path>
    </g>
</svg>