<svg class="architecture-diagram" aria-labelledby="simple-branded-website" height="433" viewbox="0 0 628 433" width="628" xmlns="http://www.w3.org/2000/svg">
    <g fill="none" fill-rule="evenodd" stroke="none" stroke-width="1">
        <path fill="#F4F4F4" fill-rule="nonzero" d="M305 432.8h322.8V294H305z"/>
        <path d="M7.6 75.9v3.5h1.6c.7 0 1.2-.2 1.6-.5.4-.3.6-.8.6-1.3 0-1.2-.8-1.7-2.4-1.7H7.6zm0-4.2v3.2h1.2c.6 0 1.1-.2 1.5-.5.4-.3.5-.7.5-1.3 0-1-.6-1.4-1.9-1.4H7.6zm-1.1 8.7v-9.8h2.8c.8 0 1.5.2 2 .6.5.4.7 1 .7 1.6 0 .6-.2 1-.5 1.4-.3.4-.7.7-1.2.9.7.1 1.2.3 1.6.7.4.4.6 1 .6 1.6 0 .8-.3 1.5-.9 2-.6.5-1.4.8-2.3.8H6.5v.2zM18 74.6c-.2-.2-.5-.2-.8-.2-.5 0-.9.2-1.2.7-.3.5-.5 1.1-.5 1.8v3.6h-1.1v-7h1.1v1.4c.2-.5.4-.9.7-1.2.3-.3.7-.4 1.1-.4.3 0 .5 0 .7.1v1.2zM22.2 74.2c-.7 0-1.3.2-1.7.7-.4.5-.6 1.2-.6 2s.2 1.5.6 2c.4.5 1 .7 1.7.7s1.3-.2 1.7-.7c.4-.5.6-1.1.6-2 0-.9-.2-1.5-.6-2-.4-.5-.9-.7-1.7-.7m0 6.4c-1 0-1.9-.3-2.5-1-.6-.7-.9-1.5-.9-2.6 0-1.2.3-2.1 1-2.8.7-.7 1.5-1 2.6-1 1 0 1.9.3 2.4 1s.9 1.5.9 2.7c0 1.1-.3 2-.9 2.7-.7.7-1.6 1-2.6 1M36.3 73.4l-2.1 7H33l-1.4-5c-.1-.2-.1-.4-.1-.6 0 .2-.1.4-.1.6l-1.6 5h-1.2l-2.1-7h1.1l1.4 5.3c0 .2.1.4.1.6h.1c0-.2.1-.4.1-.6l1.6-5.3h1l1.4 5.3c0 .2.1.4.1.6h.2c0-.2 0-.4.1-.6l1.4-5.3h1.2zM37.1 80.2V79c.6.5 1.3.7 2 .7 1 0 1.5-.3 1.5-1 0-.2 0-.3-.1-.5l-.3-.3c-.1-.1-.3-.2-.5-.3l-.6-.3c-.3-.1-.6-.2-.8-.4-.2-.1-.4-.3-.6-.4-.2-.2-.3-.3-.4-.5-.1-.2-.1-.4-.1-.7 0-.3.1-.6.2-.9.2-.3.4-.5.6-.6.3-.2.5-.3.9-.4.4-.1.7-.1 1-.1.6 0 1.1.1 1.6.3v1.1c-.5-.3-1.1-.5-1.8-.5-.2 0-.4 0-.6.1-.2 0-.3.1-.4.2l-.3.3c-.1.1-.1.3-.1.4 0 .2 0 .3.1.5s.2.2.3.3c.1.1.3.2.5.3l.6.3c.3.1.6.2.8.4.2.1.5.3.6.4.2.2.3.3.4.5.1.2.1.4.1.7 0 .3-.1.6-.2.9-.1.3-.4.5-.6.6-.2.1-.5.3-.9.4-.4.1-.7.1-1 .1-.7 0-1.3-.1-1.9-.4M48 76.3c0-.6-.2-1.2-.5-1.5-.3-.3-.7-.5-1.3-.5-.5 0-1 .2-1.3.6-.3.4-.6.9-.7 1.5H48v-.1zm1.1.9h-4.9c0 .8.2 1.4.6 1.8.4.4 1 .6 1.7.6.8 0 1.5-.3 2.2-.8v1.1c-.6.4-1.4.7-2.4.7s-1.8-.3-2.3-1c-.6-.6-.8-1.5-.8-2.7 0-1.1.3-2 .9-2.7.6-.7 1.4-1 2.3-1 .9 0 1.6.3 2.1.9.5.6.8 1.4.8 2.5v.6h-.2zM54.5 74.6c-.2-.2-.5-.3-.9-.3-.5 0-.9.2-1.2.7-.3.5-.5 1.1-.5 1.8v3.6h-1.1v-7h1.1v1.4c.2-.5.4-.9.7-1.2.3-.3.7-.4 1.1-.4.3 0 .5 0 .7.1v1.3h.1z" fill="#525252" fill-rule="nonzero"/>
        <path d="M58.4 15.3V5.8c0-4.2-1.5-5.7-5.7-5.7h-47C1.5.1 0 1.6 0 5.8v9.5h58.4z" fill="#A0A1A2" fill-rule="nonzero"/>
        <path d="M0 15.3v29.2c0 4.2 1.5 5.7 5.7 5.7h47c4.2 0 5.7-1.5 5.7-5.7V15.3H0z" fill="#59B4D9" fill-rule="nonzero"/>
        <path d="M51.1 0H5.7C1.5 0 0 1.5 0 5.7v9.6h36.9L51.1 0z" fill="#B3B4B5" fill-rule="nonzero"/>
        <path d="M5.7 50.2h-.8C1.3 50 0 48.4 0 44.5V15.3h36.9L5.7 50.2z" fill="#7AC3E1" fill-rule="nonzero"/>
        <path fill="#FCFCFC" fill-rule="nonzero" d="M14.6 10.8h40V5.7h-40z"/>
        <path d="M7.6 2.6a5.7 5.7 0 110 11.4 5.7 5.7 0 010-11.4" fill="#59B4D9" fill-rule="nonzero"/>
        <path fill="#FCFCFC" fill-rule="nonzero" d="M13.3 7.6H7.6l1.9-1.9v-.6H7.6l-3 3.3 3 3.1h1.9v-.7L7.6 8.9h5.7z"/>
        <path d="M194.4 240.5c-.7.4-1.6.6-2.7.6-1.4 0-2.5-.4-3.3-1.3-.8-.9-1.3-2.1-1.3-3.5 0-1.6.5-2.8 1.4-3.8.9-1 2.1-1.4 3.6-1.4.9 0 1.7.1 2.3.4v1.2c-.7-.4-1.5-.6-2.3-.6-1.1 0-2 .4-2.7 1.1-.7.8-1 1.8-1 3s.3 2.1 1 2.9c.7.7 1.5 1.1 2.6 1.1 1 0 1.8-.2 2.6-.7v1h-.2zM197.5 232.2v7.7h1.5c1.3 0 2.3-.3 3-1 .7-.7 1.1-1.7 1.1-2.9 0-2.5-1.3-3.8-4-3.8h-1.6zm-1.1 8.7v-9.8h2.7c3.5 0 5.2 1.6 5.2 4.8 0 1.5-.5 2.7-1.4 3.6-1 .9-2.2 1.4-3.9 1.4h-2.6zM214.1 240.9h-1.4l-5-7.8-.3-.6c0 .2.1.7.1 1.3v7.1h-1.1v-9.8h1.5l4.9 7.7c.2.3.3.5.4.7 0-.3-.1-.8-.1-1.4v-6.9h1.1v9.7h-.1z" fill="#525252" fill-rule="nonzero"/>
        <path d="M212.8 184.5h-31.9c-1.3 0-2.4-1.1-2.4-2.4 0-1.3 1.1-2.4 2.4-2.4h31.9c1.3 0 2.4 1.1 2.4 2.4 0 1.3-1.1 2.4-2.4 2.4M206.3 204.6h-29.5c-1.3 0-2.4-1.1-2.4-2.4 0-1.3 1.1-2.4 2.4-2.4h29.5c1.3 0 2.4 1.1 2.4 2.4 0 1.3-1.1 2.4-2.4 2.4M202.8 194.8h-29.5c-1.3 0-2.4-1.1-2.4-2.4 0-1.3 1.1-2.4 2.4-2.4h29.5c1.3 0 2.4 1.1 2.4 2.4 0 1.4-1 2.4-2.4 2.4" fill="#7A7A7A" fill-rule="nonzero"/>
        <path d="M230.9 199.4c0-2.8-2.2-5.1-5-5.2h-.7c.3-1.2.5-2.4.5-3.6 0-7.4-6-13.4-13.4-13.4-5.7.1-10.8 3.7-12.7 9.1-1-.3-2-.4-3-.5-5.2 0-9.1 4.2-9.1 9.4s4.1 9.4 9.1 9.4h29.6c2.7-.4 4.7-2.6 4.7-5.2" fill="#3999C6" fill-rule="nonzero"/>
        <path d="M201.3 204.4a8.06 8.06 0 01-2.5-4.6c-1.1-5 1.9-10 6.8-11 1-.2 2.1-.3 3.1-.1.4-4.7 3.3-8.8 7.6-10.8-1.3-.4-2.7-.7-4.1-.7-5.7.1-10.8 3.7-12.7 9.1-1-.3-2-.4-3-.5-5.2 0-9.1 4.2-9.1 9.4s4.1 9.4 9.1 9.4l4.8-.2z" fill="#72B6D3" fill-rule="nonzero"/>
        <path d="M358.9 231.6l-2.8 9.8h-1.3l-2-7.2c-.1-.3-.1-.6-.2-1 0 .3-.1.7-.2 1l-2 7.2h-1.3l-2.9-9.8h1.3l2.1 7.5c.1.3.1.6.2 1 0-.2.1-.6.2-1l2.2-7.5h1.1l2.1 7.6c.1.3.1.6.2.9 0-.2.1-.6.2-.9l2-7.5h1.1v-.1zM364.2 237.2c0-.6-.2-1.2-.5-1.5-.3-.3-.7-.5-1.3-.5-.5 0-1 .2-1.3.6-.3.4-.6.9-.7 1.5h3.8v-.1zm1.1 1h-4.9c0 .8.2 1.4.6 1.8.4.4 1 .6 1.7.6.8 0 1.5-.3 2.2-.8v1.1c-.6.4-1.4.7-2.4.7s-1.8-.3-2.3-1c-.6-.6-.8-1.5-.8-2.7 0-1.1.3-2 .9-2.7.6-.7 1.4-1 2.3-1 .9 0 1.6.3 2.1.9.5.6.8 1.4.8 2.5v.6h-.2zM368.1 237.5v1c0 .6.2 1.1.6 1.5.4.4.9.6 1.4.6.7 0 1.2-.3 1.6-.8.4-.5.6-1.2.6-2.2 0-.8-.2-1.4-.5-1.8-.4-.4-.8-.7-1.5-.7s-1.2.2-1.6.7c-.4.5-.6 1.1-.6 1.7m.1 2.9v1h-1.1V231h1.1v4.6c.6-.9 1.4-1.4 2.4-1.4.9 0 1.6.3 2.1.9.5.6.8 1.5.8 2.5 0 1.2-.3 2.1-.9 2.8-.6.7-1.3 1.1-2.3 1.1-1 0-1.7-.3-2.1-1.1M384.1 237.6l-1.5-4.2c-.1-.1-.1-.4-.2-.7 0 .3-.1.5-.2.7l-1.5 4.2h3.4zm2.7 3.8h-1.3l-1-2.7h-4.2l-1 2.7H378l3.8-9.8h1.2l3.8 9.8zM389.2 237.5v1c0 .6.2 1.1.6 1.5.4.4.9.6 1.4.6.7 0 1.2-.3 1.6-.8.4-.5.6-1.2.6-2.2 0-.8-.2-1.4-.5-1.8-.4-.4-.8-.7-1.5-.7s-1.2.2-1.6.7a2.709 2.709 0 00-.6 1.7m.1 2.9v4.2h-1.1v-10.2h1.1v1.2c.6-.9 1.4-1.4 2.4-1.4.9 0 1.6.3 2.1.9.5.6.8 1.5.8 2.5 0 1.2-.3 2.1-.9 2.8-.6.7-1.3 1.1-2.3 1.1-1 0-1.7-.3-2.1-1.1M397.5 237.5v1c0 .6.2 1.1.6 1.5.4.4.9.6 1.4.6.7 0 1.2-.3 1.6-.8.4-.5.6-1.2.6-2.2 0-.8-.2-1.4-.5-1.8-.4-.4-.8-.7-1.5-.7s-1.2.2-1.6.7c-.4.5-.6 1.1-.6 1.7m0 2.9v4.2h-1.1v-10.2h1.1v1.2c.6-.9 1.4-1.4 2.4-1.4.9 0 1.6.3 2.1.9.5.6.8 1.5.8 2.5 0 1.2-.3 2.1-.9 2.8-.6.7-1.3 1.1-2.3 1.1-.9 0-1.6-.3-2.1-1.1M404.1 241.1v-1.2c.6.5 1.3.7 2 .7 1 0 1.5-.3 1.5-1 0-.2 0-.3-.1-.5l-.3-.3c-.1-.1-.3-.2-.5-.3-.2-.1-.4-.2-.6-.2-.3-.1-.6-.2-.8-.4-.2-.1-.4-.3-.6-.4-.2-.1-.3-.3-.4-.5-.1-.2-.1-.4-.1-.7 0-.3.1-.6.2-.9.1-.3.4-.5.6-.6.3-.2.5-.3.9-.4.4-.1.7-.1 1-.1.6 0 1.1.1 1.6.3v1.1c-.5-.3-1.1-.5-1.8-.5-.2 0-.4 0-.6.1-.2 0-.3.1-.4.2l-.3.3c-.1.1-.1.3-.1.4 0 .2 0 .3.1.5l.3.3c.1.1.3.2.5.3l.6.3c.3.1.6.2.8.4.2.2.5.3.6.4.2.2.3.3.4.5.1.2.1.4.1.7 0 .3-.1.6-.2.9-.2.3-.4.5-.6.6-.3.2-.5.3-.9.4-.3.1-.7.1-1 .1-.7-.1-1.3-.2-1.9-.5M494.7 237.8l-1.5-4.2c-.1-.1-.1-.4-.2-.7 0 .3-.1.5-.2.7l-1.5 4.2h3.4zm2.7 3.8h-1.3l-1-2.7h-4.2l-1 2.7h-1.3l3.8-9.8h1.2l3.8 9.8zM499.8 237.7v1c0 .6.2 1.1.6 1.5.4.4.9.6 1.4.6.7 0 1.2-.3 1.6-.8.4-.5.6-1.2.6-2.2 0-.8-.2-1.4-.5-1.8-.4-.4-.8-.7-1.5-.7s-1.2.2-1.6.7c-.4.5-.6 1-.6 1.7m0 2.8v4.2h-1.1v-10.2h1.1v1.2c.6-.9 1.4-1.4 2.4-1.4.9 0 1.6.3 2.1.9.5.6.8 1.5.8 2.5 0 1.2-.3 2.1-.9 2.8-.6.7-1.3 1.1-2.3 1.1-.9.1-1.6-.3-2.1-1.1M508 237.7v1c0 .6.2 1.1.6 1.5.4.4.9.6 1.4.6.7 0 1.2-.3 1.6-.8.4-.5.6-1.2.6-2.2 0-.8-.2-1.4-.5-1.8-.4-.4-.8-.7-1.5-.7s-1.2.2-1.6.7c-.4.5-.6 1-.6 1.7m.1 2.8v4.2H507v-10.2h1.1v1.2c.6-.9 1.4-1.4 2.4-1.4.9 0 1.6.3 2.1.9.5.6.8 1.5.8 2.5 0 1.2-.3 2.1-.9 2.8-.6.7-1.3 1.1-2.3 1.1-.9.1-1.6-.3-2.1-1.1M515.199 241.6h1.101v-10.399h-1.101zM518.6 241.6h1.1v-7h-1.1v7zm.5-8.8c-.2 0-.4-.1-.5-.2-.1-.1-.2-.3-.2-.5s.1-.4.2-.5c.1-.1.3-.2.5-.2s.4.1.5.2c.1.1.2.3.2.5s-.1.4-.2.5c-.1.1-.3.2-.5.2zM526.7 241.2c-.5.3-1.2.5-1.9.5-1 0-1.8-.3-2.4-1-.6-.6-.9-1.5-.9-2.5 0-1.2.3-2.1 1-2.8.7-.7 1.5-1 2.6-1 .6 0 1.2.1 1.6.3v1.1c-.5-.4-1.1-.5-1.7-.5-.7 0-1.3.3-1.8.8s-.7 1.2-.7 2 .2 1.5.6 1.9c.4.4 1 .7 1.7.7.6 0 1.2-.2 1.7-.6v1.1h.2zM532.3 238l-1.7.2c-.5.1-.9.2-1.2.4-.3.2-.4.5-.4 1 0 .3.1.6.4.8.2.2.6.3 1 .3.6 0 1-.2 1.4-.6.4-.4.5-.9.5-1.5v-.6zm1.1 3.6h-1.1v-1.1c-.5.8-1.2 1.3-2.2 1.3-.7 0-1.2-.2-1.6-.6-.4-.4-.6-.9-.6-1.5 0-1.3.8-2.1 2.3-2.3l2.1-.3c0-1.2-.5-1.8-1.4-1.8-.8 0-1.6.3-2.3.9v-1.1c.7-.4 1.5-.7 2.4-.7 1.6 0 2.5.9 2.5 2.6v4.6h-.1zM538.8 241.5c-.3.1-.6.2-1 .2-1.2 0-1.8-.7-1.8-2.1v-4.1h-1.2v-1h1.2v-1.7l1.1-.4v2.1h1.8v1h-1.8v3.9c0 .5.1.8.2 1 .2.2.4.3.8.3.3 0 .5-.1.7-.2v1zM540.3 241.6h1.1v-7h-1.1v7zm.5-8.8c-.2 0-.4-.1-.5-.2-.1-.1-.2-.3-.2-.5s.1-.4.2-.5c.1-.1.3-.2.5-.2s.4.1.5.2c.1.1.2.3.2.5s-.1.4-.2.5c-.1.1-.3.2-.5.2zM546.7 235.3c-.7 0-1.3.2-1.7.7-.4.5-.6 1.2-.6 2s.2 1.5.6 2c.4.5 1 .7 1.7.7s1.3-.2 1.7-.7c.4-.5.6-1.1.6-2 0-.9-.2-1.5-.6-2-.4-.5-1-.7-1.7-.7m-.1 6.4c-1 0-1.9-.3-2.5-1-.6-.7-.9-1.5-.9-2.6 0-1.2.3-2.1 1-2.8.7-.7 1.5-1 2.6-1 1 0 1.9.3 2.4 1 .6.6.9 1.5.9 2.7 0 1.1-.3 2-.9 2.7-.7.7-1.6 1-2.6 1M557.7 241.6h-1.1v-4c0-1.5-.5-2.2-1.6-2.2-.6 0-1 .2-1.4.6-.4.4-.5 1-.5 1.6v4H552v-7h1.1v1.2c.5-.9 1.3-1.3 2.3-1.3.8 0 1.4.2 1.8.7.4.5.6 1.2.6 2.1v4.3h-.1zM563.8 241.6h1.1v-9.8h-1.1zM573.1 241.6H572v-4c0-1.5-.5-2.2-1.6-2.2-.6 0-1 .2-1.4.6-.4.4-.5 1-.5 1.6v4h-1.1v-7h1.1v1.2c.5-.9 1.3-1.3 2.3-1.3.8 0 1.4.2 1.8.7.4.5.6 1.2.6 2.1v4.3h-.1zM574.8 241.3v-1.2c.6.5 1.3.7 2 .7 1 0 1.5-.3 1.5-1 0-.2 0-.3-.1-.5l-.3-.3c-.1-.1-.3-.2-.5-.3-.2-.1-.4-.2-.6-.2-.3-.1-.6-.2-.8-.4-.2-.1-.4-.3-.6-.4-.2-.1-.3-.3-.4-.5-.1-.2-.1-.4-.1-.7 0-.3.1-.6.2-.9.1-.3.4-.5.6-.6.3-.2.5-.3.9-.4.4-.1.7-.1 1-.1.6 0 1.1.1 1.6.3v1.1c-.5-.3-1.1-.5-1.8-.5-.2 0-.4 0-.6.1-.2 0-.3.1-.4.2l-.3.3c-.1.1-.1.3-.1.4 0 .2 0 .3.1.5l.3.3c.1.1.3.2.5.3l.6.3c.3.1.6.2.8.4.2.2.5.3.6.4.2.2.3.3.4.5.1.2.1.4.1.7 0 .3-.1.6-.2.9-.2.3-.4.5-.6.6-.3.2-.5.3-.9.4-.3.1-.7.1-1 .1-.7-.1-1.3-.2-1.9-.5M581.199 241.6h1.101v-7h-1.101v7zm.601-8.8c-.2 0-.4-.1-.5-.2-.1-.1-.2-.3-.2-.5s.1-.4.2-.5c.1-.1.3-.2.5-.2s.4.1.5.2c.1.1.2.3.2.5s-.1.4-.2.5c-.1.1-.3.2-.5.2zM589.4 238.4v-1c0-.6-.2-1-.6-1.4-.4-.4-.8-.6-1.4-.6-.7 0-1.2.3-1.6.8-.4.5-.6 1.2-.6 2.1 0 .8.2 1.4.6 1.9.4.5.9.7 1.5.7s1.1-.2 1.5-.7c.4-.5.6-1.1.6-1.8zm1.2 2.6c0 2.6-1.2 3.9-3.7 3.9-.9 0-1.6-.2-2.3-.5v-1.1c.8.4 1.5.7 2.3.7 1.7 0 2.6-.9 2.6-2.7v-.8c-.5.9-1.3 1.3-2.4 1.3-.9 0-1.6-.3-2.1-.9-.5-.6-.8-1.5-.8-2.5 0-1.2.3-2.1.9-2.8.6-.7 1.4-1.1 2.3-1.1.9 0 1.6.4 2.1 1.1v-1h1.1v6.4zM598.6 241.6h-1.1v-4c0-1.5-.5-2.2-1.6-2.2-.5 0-1 .2-1.4.6-.4.4-.6 1-.6 1.6v4h-1.1v-10.4h1.1v4.5c.5-.9 1.3-1.3 2.3-1.3 1.6 0 2.4 1 2.4 2.9v4.3zM604 241.5c-.3.1-.6.2-1 .2-1.2 0-1.8-.7-1.8-2.1v-4.1H600v-1h1.2v-1.7l1.1-.4v2.1h1.8v1h-1.8v3.9c0 .5.1.8.2 1 .2.2.4.3.8.3.3 0 .5-.1.7-.2v1zM605.1 241.3v-1.2c.6.5 1.3.7 2 .7 1 0 1.5-.3 1.5-1 0-.2 0-.3-.1-.5l-.3-.3c-.1-.1-.3-.2-.5-.3-.2-.1-.4-.2-.6-.2-.3-.1-.6-.2-.8-.4-.2-.1-.4-.3-.6-.4-.2-.1-.3-.3-.4-.5-.1-.2-.1-.4-.1-.7 0-.3.1-.6.2-.9.1-.3.4-.5.6-.6.3-.2.5-.3.9-.4.4-.1.7-.1 1-.1.6 0 1.1.1 1.6.3v1.1c-.5-.3-1.1-.5-1.8-.5-.2 0-.4 0-.6.1-.2 0-.3.1-.4.2l-.3.3c-.1.1-.1.3-.1.4 0 .2 0 .3.1.5l.3.3c.1.1.3.2.5.3l.6.3c.3.1.6.2.8.4.2.2.5.3.6.4.2.2.3.3.4.5.1.2.1.4.1.7 0 .3-.1.6-.2.9-.2.3-.4.5-.6.6-.3.2-.5.3-.9.4-.3.1-.7.1-1 .1-.8-.1-1.4-.2-1.9-.5M346.9 391.7v3.6h1.6c.3 0 .6 0 .8-.1.2-.1.5-.2.6-.4.2-.2.3-.4.4-.6.1-.2.2-.5.2-.8 0-.5-.2-.9-.5-1.2-.3-.3-.8-.4-1.5-.4h-1.6v-.1zm5.8 8.8h-1.4l-1.6-2.7c-.2-.3-.3-.5-.4-.7-.1-.2-.3-.3-.4-.4-.1-.1-.3-.2-.5-.2-.2-.1-.4-.1-.6-.1h-.9v4.2h-1.1v-9.8h2.9c.4 0 .8.1 1.2.2.4.1.7.3.9.5.2.2.5.5.6.8.2.3.2.7.2 1.1 0 .3-.1.7-.2.9-.1.3-.2.5-.4.8-.2.2-.4.4-.7.6-.3.2-.6.3-.9.4.2.1.3.2.4.3l.3.3c.1.1.2.3.3.4.1.2.2.3.4.6l1.9 2.8zM358 396.3c0-.6-.2-1.2-.5-1.5-.3-.4-.7-.5-1.3-.5-.5 0-1 .2-1.3.6-.4.4-.6.9-.7 1.5h3.8v-.1zm1.2.9h-4.9c0 .8.2 1.4.6 1.8.4.4 1 .6 1.7.6.8 0 1.5-.3 2.2-.8v1.1c-.6.4-1.4.7-2.4.7s-1.8-.3-2.3-1c-.6-.6-.8-1.5-.8-2.7 0-1.1.3-2 .9-2.7.6-.7 1.4-1 2.3-1 .9 0 1.6.3 2.1.9.5.6.8 1.4.8 2.5v.6h-.2zM365.7 397.3v-1c0-.6-.2-1-.6-1.4-.4-.4-.8-.6-1.4-.6-.7 0-1.2.3-1.6.8-.4.5-.6 1.2-.6 2.1 0 .8.2 1.4.6 1.9.4.5.9.7 1.5.7s1.1-.2 1.5-.7c.4-.5.6-1.1.6-1.8zm1.1 3.2h-1.1v-1.2c-.5.9-1.3 1.4-2.4 1.4-.9 0-1.6-.3-2.1-.9-.5-.6-.8-1.5-.8-2.6 0-1.2.3-2.1.9-2.8.6-.7 1.4-1 2.3-1 1 0 1.7.4 2.1 1.1v-4.3h1.1v10.3zM369.1 400.5h1.1v-7h-1.1v7zm.6-8.8c-.2 0-.4-.1-.5-.2-.1-.1-.2-.3-.2-.5s.1-.4.2-.5c.1-.1.3-.2.5-.2s.4.1.5.2c.1.1.2.3.2.5s-.1.4-.2.5c-.1.1-.3.2-.5.2zM372.1 400.2V399c.6.5 1.3.7 2 .7 1 0 1.5-.3 1.5-1 0-.2 0-.3-.1-.5l-.3-.3c-.1-.1-.3-.2-.5-.3l-.6-.3c-.3-.1-.6-.2-.8-.4-.2-.1-.4-.3-.6-.4-.2-.1-.3-.3-.4-.5-.1-.2-.1-.4-.1-.7 0-.3.1-.6.2-.9.1-.3.4-.5.6-.6.3-.2.5-.3.9-.4.3-.1.7-.1 1-.1.6 0 1.1.1 1.6.3v1.1c-.5-.3-1.1-.5-1.8-.5-.2 0-.4 0-.6.1-.2 0-.3.1-.4.2l-.3.3c-.1.1-.1.3-.1.4 0 .2 0 .3.1.5l.3.3c.1.1.3.2.5.3l.6.3c.3.1.6.2.8.4.2.1.5.3.6.4.2.2.3.3.4.5.1.2.1.4.1.7 0 .3-.1.6-.2.9-.2.3-.4.5-.6.6-.3.2-.5.3-.9.4-.3.1-.7.1-1 .1-.8 0-1.4-.1-1.9-.4M389.1 400.1c-.7.4-1.6.6-2.7.6-1.4 0-2.5-.4-3.3-1.3-.8-.9-1.3-2.1-1.3-3.5 0-1.6.5-2.8 1.4-3.8.9-1 2.1-1.4 3.6-1.4.9 0 1.7.1 2.3.4v1.2c-.7-.4-1.5-.6-2.3-.6-1.1 0-2 .4-2.7 1.1-.7.8-1 1.8-1 3s.3 2.1 1 2.9c.7.7 1.5 1.1 2.6 1.1 1 0 1.8-.2 2.6-.7v1h-.2zM394.8 396.9l-1.7.2c-.5.1-.9.2-1.2.4-.3.2-.4.5-.4 1 0 .3.1.6.4.8.2.2.6.3 1 .3.6 0 1-.2 1.4-.6.4-.4.5-.9.5-1.5v-.6zm1.1 3.6h-1.1v-1.1c-.5.8-1.2 1.3-2.2 1.3-.7 0-1.2-.2-1.6-.6-.4-.4-.6-.9-.6-1.5 0-1.3.8-2.1 2.3-2.3l2.1-.3c0-1.2-.5-1.8-1.4-1.8-.8 0-1.6.3-2.3.9V394c.7-.4 1.5-.7 2.4-.7 1.6 0 2.5.9 2.5 2.6v4.6h-.1zM402.8 400.1c-.5.3-1.2.5-1.9.5-1 0-1.8-.3-2.4-1-.6-.6-.9-1.5-.9-2.5 0-1.2.3-2.1 1-2.8.7-.7 1.5-1 2.6-1 .6 0 1.2.1 1.6.3v1.1c-.5-.4-1.1-.5-1.7-.5-.7 0-1.3.3-1.8.8s-.7 1.2-.7 2 .2 1.5.6 1.9c.4.5 1 .7 1.7.7.6 0 1.2-.2 1.7-.6v1.1h.2zM410.3 400.5h-1.1v-4c0-1.5-.5-2.2-1.6-2.2-.5 0-1 .2-1.4.6-.4.4-.6 1-.6 1.6v4h-1.1v-10.4h1.1v4.5c.5-.9 1.3-1.3 2.3-1.3 1.6 0 2.4 1 2.4 2.9v4.3zM416.9 396.3c0-.6-.2-1.2-.5-1.5-.3-.4-.7-.5-1.3-.5-.5 0-1 .2-1.3.6-.4.4-.6.9-.7 1.5h3.8v-.1zm1.2.9h-4.9c0 .8.2 1.4.6 1.8.4.4 1 .6 1.7.6.8 0 1.5-.3 2.2-.8v1.1c-.6.4-1.4.7-2.4.7s-1.8-.3-2.3-1c-.6-.6-.8-1.5-.8-2.7 0-1.1.3-2 .9-2.7.6-.7 1.4-1 2.3-1 .9 0 1.6.3 2.1.9.5.6.8 1.4.8 2.5v.6h-.2z" fill="#525252" fill-rule="nonzero"/>
        <path d="M361.2 332.4v30.1c0 3.2 7 5.7 15.6 5.7v-35.8h-15.6z" fill="#3999C6" fill-rule="nonzero"/>
        <path d="M376.6 368.1h.3c8.7 0 15.6-2.5 15.6-5.7v-30.1h-15.9v35.8z" fill="#59B4D9" fill-rule="nonzero"/>
        <path d="M392.4 332.4c0 3.1-7 5.7-15.6 5.7s-15.7-2.6-15.7-5.7 7-5.7 15.6-5.7c8.7 0 15.7 2.6 15.7 5.7" fill="#FFF" fill-rule="nonzero"/>
        <path d="M389.3 332.1c0 2.1-5.6 3.8-12.4 3.8-6.8 0-12.5-1.7-12.5-3.8 0-2.1 5.6-3.8 12.4-3.8 6.8 0 12.5 1.7 12.5 3.8" fill="#7FBA00" fill-rule="nonzero"/>
        <path d="M386.6 334.3c1.7-.7 2.6-1.4 2.6-2.3 0-2.1-5.6-3.8-12.4-3.8-6.8 0-12.4 1.7-12.4 3.8 0 .8 1 1.7 2.6 2.3 2.3-.9 5.8-1.4 9.8-1.4 4 0 7.6.6 9.8 1.4" fill="#B8D432" fill-rule="nonzero"/>
        <path d="M381 344.3v20.1c0 2.1 4.7 3.8 10.4 3.8v-23.9H381z" fill="#0072C6" fill-rule="nonzero"/>
        <path d="M391.3 368.1h.2c5.8 0 10.4-1.7 10.4-3.8v-20h-10.6v23.8z" fill="#0072C6" fill-rule="nonzero"/>
        <path d="M391.3 368.1h.2c5.8 0 10.4-1.7 10.4-3.8v-20h-10.6v23.8z" fill="#3A94CF" fill-rule="nonzero"/>
        <path d="M401.9 344.3c0 2.1-4.7 3.8-10.4 3.8s-10.4-1.7-10.4-3.8c0-2.1 4.7-3.8 10.4-3.8s10.4 1.7 10.4 3.8" fill="#FFF" fill-rule="nonzero"/>
        <path d="M399.7 344.1c0 1.3-3.8 2.5-8.3 2.5-4.5 0-8.3-1.1-8.3-2.5 0-1.3 3.8-2.5 8.3-2.5 4.5 0 8.3 1.1 8.3 2.5" fill="#7FBA00" fill-rule="nonzero"/>
        <path d="M397.9 345.6c1.1-.4 1.8-.9 1.8-1.5 0-1.3-3.8-2.5-8.3-2.5-4.6 0-8.3 1.1-8.3 2.5 0 .6.7 1.1 1.8 1.5 1.5-.6 3.9-1 6.6-1 2.5 0 4.9.4 6.4 1" fill="#B8D432" fill-rule="nonzero"/>
        <path fill="#FFF" fill-rule="nonzero" d="M397.1 356.5l-11.6 9.6 4.5-7.5h-3.9l11.6-9.5-4.5 7.4z"/>
        <path d="M510.9 402.3v-1.4c.2.1.3.3.6.4.2.1.4.2.7.3.3.1.5.1.7.2.2 0 .5.1.7.1.7 0 1.2-.1 1.6-.4.3-.3.5-.6.5-1.1 0-.3-.1-.5-.2-.7-.1-.2-.3-.4-.5-.5-.2-.2-.4-.3-.7-.5-.3-.1-.6-.3-.9-.5-.3-.2-.7-.3-1-.5-.3-.2-.6-.4-.8-.6-.2-.2-.4-.5-.5-.7-.1-.3-.2-.6-.2-1s.1-.8.3-1.2c.2-.3.5-.6.8-.8.3-.2.7-.4 1.1-.5.4-.1.8-.2 1.2-.2 1 0 1.7.1 2.1.3v1.3c-.6-.4-1.3-.6-2.2-.6-.3 0-.5 0-.8.1-.3.1-.5.1-.7.3-.2.1-.4.3-.5.5-.1.2-.2.4-.2.7 0 .3 0 .5.1.6.1.2.2.3.4.5s.4.3.7.4c.3.1.6.3.9.5.4.2.7.4 1 .5.3.1.6.4.8.6.2.2.4.5.6.8.1.3.2.6.2 1 0 .5-.1.9-.3 1.2-.2.3-.4.6-.8.8-.3.2-.7.4-1.1.5-.4.1-.9.1-1.3.1h-.6c-.2 0-.5-.1-.7-.1-.2 0-.5-.1-.7-.2 0-.1-.2-.2-.3-.2M522.8 393.7c-1 0-1.9.4-2.5 1.1-.6.7-1 1.7-1 2.9s.3 2.2.9 2.9c.6.7 1.4 1.1 2.5 1.1s1.9-.4 2.5-1.1c.6-.7.9-1.7.9-2.9 0-1.3-.3-2.3-.9-3-.5-.6-1.3-1-2.4-1m-.1 9.1c-1.4 0-2.5-.5-3.3-1.4-.8-.9-1.3-2.1-1.3-3.6 0-1.6.4-2.8 1.3-3.8.9-.9 2-1.4 3.5-1.4 1.3 0 2.4.5 3.3 1.4.8.9 1.2 2.1 1.2 3.6 0 1.6-.4 2.9-1.3 3.8l-.6.6 2.8 2h-2.1l-1.8-1.4c-.6.1-1.1.2-1.7.2M534.4 402.7h-5.1v-9.8h1.1v8.8h3.9v1zM540.9 393.9v7.7h1.5c1.3 0 2.3-.3 3-1 .7-.7 1.1-1.7 1.1-2.9 0-2.5-1.3-3.8-4-3.8h-1.6zm-1.2 8.8v-9.8h2.7c3.5 0 5.2 1.6 5.2 4.8 0 1.5-.5 2.7-1.4 3.6-1 .9-2.2 1.4-3.9 1.4h-2.6zM553.3 399.1l-1.7.2c-.5.1-.9.2-1.2.4-.3.2-.4.5-.4 1 0 .3.1.6.4.8.2.2.6.3 1 .3.6 0 1-.2 1.4-.6.4-.4.5-.9.5-1.5v-.6zm1.1 3.6h-1.1v-1.1c-.5.8-1.2 1.3-2.2 1.3-.7 0-1.2-.2-1.6-.6-.4-.4-.6-.9-.6-1.5 0-1.3.8-2.1 2.3-2.3l2.1-.3c0-1.2-.5-1.8-1.4-1.8-.8 0-1.6.3-2.3.9v-1.1c.7-.4 1.5-.7 2.4-.7 1.6 0 2.5.9 2.5 2.6v4.6h-.1zM559.8 402.6c-.3.1-.6.2-1 .2-1.2 0-1.8-.7-1.8-2.1v-4.1h-1.2v-1h1.2v-1.7l1.1-.4v2.1h1.8v1h-1.8v3.9c0 .5.1.8.2 1 .2.2.4.3.8.3.3 0 .5-.1.7-.2v1zM565.2 399.1l-1.7.2c-.5.1-.9.2-1.2.4-.3.2-.4.5-.4 1 0 .3.1.6.4.8.2.2.6.3 1 .3.6 0 1-.2 1.4-.6.4-.4.5-.9.5-1.5v-.6zm1.1 3.6h-1.1v-1.1c-.5.8-1.2 1.3-2.2 1.3-.7 0-1.2-.2-1.6-.6-.4-.4-.6-.9-.6-1.5 0-1.3.8-2.1 2.3-2.3l2.1-.3c0-1.2-.5-1.8-1.4-1.8-.8 0-1.6.3-2.3.9v-1.1c.7-.4 1.5-.7 2.4-.7 1.6 0 2.5.9 2.5 2.6v4.6h-.1zM569.5 398.8v1c0 .6.2 1.1.6 1.5.4.4.9.6 1.4.6.7 0 1.2-.3 1.6-.8.4-.5.6-1.2.6-2.2 0-.8-.2-1.4-.5-1.8-.4-.4-.8-.7-1.5-.7s-1.2.2-1.6.7c-.4.5-.6 1-.6 1.7m0 2.8v1h-1.1v-10.3h1.1v4.6c.6-.9 1.4-1.4 2.4-1.4.9 0 1.6.3 2.1.9.5.6.8 1.5.8 2.5 0 1.2-.3 2.1-.9 2.8-.6.7-1.3 1.1-2.3 1.1-.9 0-1.6-.4-2.1-1.2M580.5 399.1l-1.7.2c-.5.1-.9.2-1.2.4-.3.2-.4.5-.4 1 0 .3.1.6.4.8.2.2.6.3 1 .3.6 0 1-.2 1.4-.6.4-.4.5-.9.5-1.5v-.6zm1.1 3.6h-1.1v-1.1c-.5.8-1.2 1.3-2.2 1.3-.7 0-1.2-.2-1.6-.6-.4-.4-.6-.9-.6-1.5 0-1.3.8-2.1 2.3-2.3l2.1-.3c0-1.2-.5-1.8-1.4-1.8-.8 0-1.6.3-2.3.9v-1.1c.7-.4 1.5-.7 2.4-.7 1.6 0 2.5.9 2.5 2.6v4.6h-.1zM583.3 402.4v-1.2c.6.5 1.3.7 2 .7 1 0 1.5-.3 1.5-1 0-.2 0-.3-.1-.5l-.3-.3c-.1-.1-.3-.2-.5-.3l-.6-.3c-.3-.1-.6-.2-.8-.4-.2-.1-.4-.3-.6-.4-.2-.1-.3-.3-.4-.5-.1-.2-.1-.4-.1-.7 0-.3.1-.6.2-.9.1-.3.4-.5.6-.6.3-.2.5-.3.9-.4.3-.1.7-.1 1-.1.6 0 1.1.1 1.6.3v1.1c-.5-.3-1.1-.5-1.8-.5-.2 0-.4 0-.6.1-.2 0-.3.1-.4.2l-.3.3c-.1.1-.1.3-.1.4 0 .2 0 .3.1.5l.3.3c.1.1.3.2.5.3l.6.3c.3.1.6.2.8.4.2.1.5.3.6.4.2.2.3.3.4.5.1.2.1.4.1.7 0 .3-.1.6-.2.9-.2.3-.4.5-.6.6-.3.2-.5.3-.9.4-.3.1-.7.1-1 .1-.7 0-1.3-.1-1.9-.4M594.2 398.5c0-.6-.2-1.2-.5-1.5-.3-.4-.7-.5-1.3-.5-.5 0-1 .2-1.3.6-.4.4-.6.9-.7 1.5h3.8v-.1zm1.1.9h-4.9c0 .8.2 1.4.6 1.8.4.4 1 .6 1.7.6.8 0 1.5-.3 2.2-.8v1.1c-.6.4-1.4.7-2.4.7s-1.8-.3-2.3-1c-.6-.6-.8-1.5-.8-2.7 0-1.1.3-2 .9-2.7.6-.7 1.4-1 2.3-1 .9 0 1.6.3 2.1.9.5.6.8 1.4.8 2.5v.6h-.2z" fill="#525252" fill-rule="nonzero"/>
        <path d="M534.3 331.3v35.9c0 3.7 8.3 6.8 18.6 6.8v-42.7h-18.6z" fill="#0072C6" fill-rule="nonzero"/>
        <path d="M552.7 374h.3c10.3 0 18.6-3 18.6-6.8v-35.9h-18.9V374z" fill="#0072C6" fill-rule="nonzero"/>
        <path d="M552.5 374h.3c10.4 0 18.9-3 18.9-6.8v-36h-19.1V374h-.1z" fill="#3A94CF" fill-rule="nonzero"/>
        <path d="M571.6 331.3c0 3.7-8.3 6.8-18.6 6.8s-18.6-3-18.6-6.8 8.3-6.8 18.6-6.8 18.6 3.1 18.6 6.8" fill="#FFF" fill-rule="nonzero"/>
        <path d="M567.8 330.9c0 2.5-6.6 4.5-14.8 4.5-8.2 0-14.8-2-14.8-4.5s6.6-4.5 14.8-4.5c8.2 0 14.8 2 14.8 4.5" fill="#7FBA00" fill-rule="nonzero"/>
        <path d="M564.7 333.6c1.9-.8 3.1-1.7 3.1-2.7 0-2.5-6.6-4.5-14.8-4.5-8.2 0-14.8 2-14.8 4.5 0 1 1.2 2 3.1 2.7 2.7-1.1 7-1.7 11.7-1.7 4.7 0 9 .7 11.7 1.7" fill="#B8D432" fill-rule="nonzero"/>
        <path d="M547 356.2c0 1.1-.4 2-1.2 2.6-.8.6-1.9.9-3.4.9-1.2 0-2.2-.2-3-.7v-2.6c.9.8 2 1.2 3.1 1.2.5 0 1-.1 1.3-.3.3-.2.4-.5.4-.9s-.1-.7-.4-.9c-.3-.3-.9-.6-1.8-1-1.8-.8-2.7-2-2.7-3.4 0-1.1.4-1.9 1.2-2.5.8-.6 1.8-1 3.1-1 1.1 0 2.1.2 2.9.5v2.5c-.8-.5-1.7-.8-2.7-.8-.5 0-.9.1-1.2.3-.3.2-.4.5-.4.9s.1.7.4.9c.2.2.7.5 1.5.9 1.1.5 1.9 1 2.4 1.6.3.4.5 1 .5 1.8M556.9 353.7c0-1.2-.3-2.1-.8-2.8-.5-.7-1.2-1-2.1-1-.9 0-1.7.3-2.2 1-.6.7-.8 1.6-.8 2.8 0 1.1.3 2.1.8 2.8.5.7 1.3 1 2.2 1 .9 0 1.6-.3 2.2-1 .4-.7.7-1.6.7-2.8m2.8-.1c0 1.4-.3 2.6-.9 3.6-.6 1-1.5 1.7-2.7 2.1l3.4 3.2h-3.4l-2.4-2.7c-1 0-2-.3-2.8-.8-.8-.5-1.5-1.2-1.9-2.1-.5-.9-.7-1.9-.7-3 0-1.2.2-2.3.7-3.3.5-1 1.2-1.7 2.1-2.2.9-.5 1.9-.8 3.1-.8 1.1 0 2.1.2 2.9.7.9.5 1.5 1.2 2 2.1.4 1 .6 2 .6 3.2M568.7 359.5h-7.1v-11.7h2.7v9.6h4.4z" fill="#FFF" fill-rule="nonzero"/>
        <path fill="#969696" fill-rule="nonzero" d="M376.3 147.4V37.3h-302v1.5h130.2v108.6H200l5.2 9 5.3-9H206V38.8h168.8v108.6h-4.5l5.2 9 5.2-9zM517.5 204.8l-9-5.2v4.5h-95.2v1.5h95.2v4.5zM376.3 308.3V262.1h4.4l-5.2-9-5.2 9h4.5V312h-4.5l5.2 9.1 5.2-9.1h-4.4z"/>
        
            <circle cx="290.5" cy="37.5" fill="#A5CE00" r="14.5"/>
            <text fill="#000" font-family="SegoeUI, Segoe UI" font-size="14" font-weight="normal" x="287.186" y="42.368">
                1
            </text>
        
        
            <circle cx="375.5" cy="286.5" fill="#A5CE00" r="14.5"/>
            <text fill="#000" font-family="SegoeUI, Segoe UI" font-size="14" font-weight="normal" x="371.586" y="291.368">
                3
            </text>
        
        
            <circle cx="462.5" cy="204.5" fill="#A5CE00" r="14.5"/>
            <text fill="#000" font-family="SegoeUI, Segoe UI" font-size="14" font-weight="normal" x="458.186" y="209.368">
                2
            </text>
        
        
            <circle cx="205.5" cy="87.5" fill="#A5CE00" r="14.5"/>
            <text fill="#000" font-family="SegoeUI, Segoe UI" font-size="14" font-weight="normal" x="201.186" y="92.368">
                4
            </text>
        
        <path d="M362.011 186.88a6.691 6.691 0 013.653-.25c.243-.275.491-.551.747-.826a41.15 41.15 0 016.163-5.337l-.016-.015c-2.336-2.48-4.407-5.023-5.956-7.544a21.972 21.972 0 00-3.716 2.294 22.209 22.209 0 00-2.42 2.184c-.307 1.825-.425 5.245 1.545 9.495M375.702 178.5v.002c6.063-3.224 11.37-3.296 14.803-2.773a22.183 22.183 0 00-20.958-4.024 176.396 176.396 0 006.154 6.795zM358.962 197.247a6.69 6.69 0 01.005-8.122c-1.52-3.658-1.4-6.7-.9-8.838-5.092 7.427-5.262 17.453.106 25.164a33.569 33.569 0 011.285-7.632 6.85 6.85 0 01-.496-.572M394.497 205.586c-.014.018-.024.035-.038.054.012-.018.024-.036.038-.054M379.837 182.748c2.617 2.601 5.1 4.924 7.358 6.95a4.758 4.758 0 016.155 1.222c1.036 1.36 1.215 3.098.648 4.59a115.571 115.571 0 003.788 2.963c1.688-6.399.527-13.475-3.812-19.136-.085-.112-.177-.216-.264-.325-.382-.037-6.022-.487-13.873 3.736M392.458 197.593a4.778 4.778 0 01-6.69-.891c-1.12-1.464-1.236-3.363-.5-4.922-2.78-2.17-5.717-4.596-8.487-7.156l.002-.001c-.072-.067-.139-.135-.212-.202.072.067.137.14.21.207-1.805 1.23-3.734 2.764-5.785 4.68-.269.252-.519.507-.772.76a6.726 6.726 0 01-.283 6.7c.387.33.788.66 1.205.992a41.724 41.724 0 005.998 3.984c1.91-1.23 4.471-.833 5.872 1.005a4.38 4.38 0 01.796 1.757c5.493 1.577 9.515 1.035 10.894.75a22.055 22.055 0 002.487-4.88c-.839-.57-2.317-1.56-4.442-3.058-.1.09-.184.191-.293.274M397.352 199.973l.06-.175-.06.175M382.2 208.927a4.434 4.434 0 01-6.195-.815 4.41 4.41 0 01-.86-3.122 36.965 36.965 0 01-6.464-4.12 60.415 60.415 0 01-1.796-1.518 6.662 6.662 0 01-3.09.502c-1.508 4.05-1.681 7.647-1.522 10.087a22.199 22.199 0 0014.112 5.05c4.703 0 9.438-1.497 13.458-4.57a22.437 22.437 0 001.923-1.67c-2.222-.004-5.19-.148-8.582-.903a4.36 4.36 0 01-.983 1.079" fill="#59B4D9" fill-rule="nonzero"/>
        <path d="M397.21 200.387c.054-.14.094-.276.142-.414-.047.136-.109.268-.159.403l.017.011M394.727 205.251l-.021.004c-.073.108-.134.224-.209.331.078-.114.16-.23.23-.335" fill="#FFF" fill-rule="nonzero"/>
        <path fill="#7A7A7A" fill-rule="nonzero" d="M544.246 207.128h10.703v-3.434h-10.703zM544.245 210.864l3.333 3.534h3.938l3.332-3.534z"/>
        <path d="M533.044 180.228a7.775 7.775 0 01-.023-.285c.005.091.014.187.023.285M533 179.255c0-.069 0-.143.003-.203-.002.061-.002.133-.002.203M533.009 179.699c-.004-.083-.008-.167-.009-.243.001.076.005.159.009.243M533.008 178.914l.007-.174-.007.174M565.854 178.754v-.303c0-5.065-2.838-9.56-7.07-12.115L545.72 179.4a3.724 3.724 0 012.766 3.596v1.717h1.717v-1.717c0-2.02 1.716-3.736 3.736-3.736 2.02 0 3.736 1.716 3.736 3.736 0 2.02-1.717 3.736-3.736 3.736h-1.717v12.824h-2.019v-12.824h-1.717v12.723h-2.02v-12.723h-1.716c-1.687 0-3.147-1.203-3.587-2.774l-4.188 4.188a14.212 14.212 0 01-2.012-2.454c.72 1.117 1.69 2.264 3.022 3.362 2.625 2.323 5.351 8.583 5.756 10.401l.302.606h10.704l.302-.606c.405-1.818 3.232-8.078 5.756-10.3 5.756-4.847 5.05-10.198 5.05-10.4" fill="#68217A" fill-rule="nonzero"/>
        <path d="M555.656 182.995c0-.909-.707-1.717-1.717-1.717-.91 0-1.717.808-1.717 1.717v1.717h1.717c.908 0 1.717-.808 1.717-1.717M544.75 184.712h1.717v-1.717c-.101-.908-.808-1.717-1.716-1.717-.91 0-1.717.707-1.717 1.717 0 .909.808 1.717 1.717 1.717M556.688 165.269c.05.02.101.039.15.06l-.15-.06M557.905 165.835c.257.135.508.28.758.43-.25-.148-.498-.296-.758-.43M533.016 178.725c.011-.153.021-.25.021-.274 0 .023-.01.123-.02.274" fill="#68217A" fill-rule="nonzero"/>
        <path d="M544.75 181.278c.909 0 1.616.808 1.717 1.717v1.717h-1.716c-.91 0-1.717-.809-1.717-1.717 0-1.01.808-1.717 1.717-1.717zm7.473 1.717c0-.909.807-1.717 1.716-1.717 1.01 0 1.717.808 1.717 1.717 0 .908-.808 1.717-1.717 1.717h-1.716v-1.717zm-7.472 3.736h1.716v12.723h2.019v-12.723h1.717v12.824h2.02v-12.824h1.716c2.02 0 3.737-1.717 3.737-3.736 0-2.02-1.717-3.736-3.737-3.736s-3.736 1.716-3.736 3.736v1.717h-1.717v-1.717a3.723 3.723 0 00-2.765-3.596l-4.558 4.558c.44 1.571 1.9 2.774 3.588 2.774z" fill="#68217A" fill-rule="nonzero"/>
        <path d="M544.75 181.278c.909 0 1.616.808 1.717 1.717v1.717h-1.716c-.91 0-1.717-.809-1.717-1.717 0-1.01.808-1.717 1.717-1.717zm7.473 1.717c0-.909.807-1.717 1.716-1.717 1.01 0 1.717.808 1.717 1.717 0 .908-.808 1.717-1.717 1.717h-1.716v-1.717zm-7.472 3.736h1.716v13.308h2.019v-13.308h1.717v13.292h2.02v-13.292h1.716c2.02 0 3.737-1.717 3.737-3.736 0-2.02-1.717-3.736-3.737-3.736s-3.736 1.716-3.736 3.736v1.717h-1.717v-1.717a3.723 3.723 0 00-2.765-3.596l-4.558 4.558c.44 1.571 1.9 2.774 3.588 2.774z" fill="#CFBBD4" fill-rule="nonzero"/>
        <path d="M533.755 183.302c-.034-.09-.07-.183-.101-.272.032.09.067.181.1.272M533.496 182.54c-.03-.098-.06-.196-.085-.292.026.097.056.194.085.292M534.963 185.691l-.09-.133.09.133M534.084 184.089c-.036-.08-.076-.161-.11-.24.035.08.073.16.11.24M533.003 179.052c0-.05.003-.093.005-.138l-.005.138M534.488 184.892c-.036-.066-.076-.133-.11-.198.034.065.074.132.11.198M558.786 166.334c-.04-.024-.082-.045-.123-.07l.12.072.003-.002zM533.02 179.944l-.012-.245.012.245M551.01 164.113c2.011.025 3.928.438 5.678 1.156a14.585 14.585 0 00-5.678-1.156M533.3 181.813c-.022-.101-.045-.2-.064-.297.019.097.042.196.065.297M533.162 181.133a13.47 13.47 0 01-.046-.294c.014.096.028.193.046.294M533 179.455v-.2.2M533.015 178.74l.001-.015v.015" fill="#FFF" fill-rule="nonzero"/>
        <path d="M541.163 183.957a3.551 3.551 0 01-.148-.962 3.727 3.727 0 013.736-3.736c.34 0 .66.057.97.14l13.063-13.063c-.04-.025-.081-.048-.121-.072a16.18 16.18 0 00-.758-.429c-.348-.18-.703-.352-1.067-.506l-.15-.06a15.42 15.42 0 00-5.677-1.157c-.202-.302-4.847.101-4.847.101-7.371.91-13.127 7.07-13.127 14.238 0 .024-.01.121-.02.274l-.001.015-.008.174-.005.138c-.002.06-.002.134-.002.203v.2c0 .076.005.16.008.243l.01.245.025.285c.008.09.016.182.027.278a12.583 12.583 0 00.164 1.009 12.157 12.157 0 00.176.734c.026.095.056.193.085.291.049.161.1.323.158.49.03.09.067.18.1.272.069.18.139.362.22.547.034.08.074.16.11.24.092.2.186.4.294.605.034.065.074.132.11.198.12.221.245.442.386.666.028.044.06.088.09.133a14.078 14.078 0 002.012 2.453l4.187-4.187z" fill="#885095" fill-rule="nonzero"/>
        <path d="M541.163 183.957a3.551 3.551 0 01-.148-.962 3.727 3.727 0 013.736-3.736c.34 0 .66.057.97.14l13.063-13.063c-.04-.025-.081-.048-.121-.072a16.18 16.18 0 00-.758-.429c-.348-.18-.703-.352-1.067-.506l-.15-.06a15.42 15.42 0 00-5.677-1.157c-.202-.302-4.847.101-4.847.101-7.371.91-13.127 7.07-13.127 14.238 0 .024-.01.121-.02.274l-.001.015-.008.174-.005.138c-.002.06-.002.134-.002.203v.2c0 .076.005.16.008.243l.01.245.025.285c.008.09.016.182.027.278a12.583 12.583 0 00.164 1.009 12.157 12.157 0 00.176.734c.026.095.056.193.085.291.049.161.1.323.158.49.03.09.067.18.1.272.069.18.139.362.22.547.034.08.074.16.11.24.092.2.186.4.294.605.034.065.074.132.11.198.12.221.245.442.386.666.028.044.06.088.09.133a14.078 14.078 0 002.012 2.453l4.187-4.187z" fill="#68217A" fill-rule="nonzero"/>
        <path d="M541.014 182.995c0 .333.062.652.148.962l4.558-4.558c-.31-.082-.63-.14-.97-.14a3.727 3.727 0 00-3.736 3.736" fill="#68217A" fill-rule="nonzero"/>
        <path d="M541.014 182.995c0 .333.062.652.148.962l4.558-4.558c-.31-.082-.63-.14-.97-.14a3.727 3.727 0 00-3.736 3.736" fill="#FFF" fill-rule="nonzero"/>
        <path d="M541.014 182.995c0 .333.062.652.148.962l4.558-4.558c-.31-.082-.63-.14-.97-.14a3.727 3.727 0 00-3.736 3.736" fill="#D7C6DA" fill-rule="nonzero"/>
    </g>
</svg>
