<svg class="architecture-diagram" aria-labelledby="streaming-using-hdinsight" fill="none" height="228" viewbox="0 0 626 228" width="626" xmlns="http://www.w3.org/2000/svg">
    <path d="M513.359 2.733H143.282v138.209h370.077V2.733z" fill="#F7F7F7"/>
    <path d="M583.45 98.537h-.563v-1.071h.563c1.128 0 2.087-.959 2.087-2.087V84.215a2.082 2.082 0 00-2.087-2.087h-20.638a2.081 2.081 0 00-2.086 2.087v11.108c0 1.184.958 2.087 2.086 2.087h.564v1.07h-.564a3.213 3.213 0 01-3.214-3.213V84.102a3.213 3.213 0 013.214-3.214h20.638a3.213 3.213 0 013.215 3.214V95.21c-.057 1.918-1.467 3.327-3.215 3.327z" fill="#ECBC11"/>
    <path d="M566.139 101.3c.789 0 1.466-.677 1.466-1.466V96.45c0-.79-.677-1.467-1.466-1.467-.79 0-1.466.677-1.466 1.467v3.383c-.057.789.62 1.466 1.466 1.466zM570.763 101.3c.789 0 1.466-.676 1.466-1.466v-8.74c0-.846-.677-1.466-1.466-1.466-.846 0-1.466.677-1.466 1.466v8.74c0 .79.677 1.466 1.466 1.466zM580.067 101.244c.79 0 1.466-.676 1.466-1.466V87.373c0-.79-.676-1.466-1.466-1.466-.789 0-1.466.676-1.466 1.466v12.405c0 .79.677 1.466 1.466 1.466zM575.443 101.301c.789 0 1.466-.677 1.466-1.466V93.35c0-.79-.677-1.466-1.466-1.466-.789 0-1.466.676-1.466 1.466v6.485c-.056.789.62 1.466 1.466 1.466z" fill="#ECBC11"/>
    <path d="M321.695 192.03v15.789c0 1.635 3.666 2.932 8.233 2.932v-18.777h-8.233v.056z" fill="#3E3E3E"/>
    <path d="M329.814 210.807h.113c4.511 0 8.233-1.354 8.233-2.933v-15.845h-8.346v18.778z" fill="#A0A1A2"/>
    <path d="M338.161 192.03c0 1.635-3.666 2.932-8.233 2.932s-8.233-1.297-8.233-2.932 3.722-2.932 8.233-2.932c4.511-.056 8.233 1.297 8.233 2.932z" fill="#fff"/>
    <path d="M336.47 191.86c0 1.071-2.932 1.973-6.541 1.973-3.609 0-6.541-.845-6.541-1.973 0-1.072 2.932-1.974 6.541-1.974 3.609 0 6.541.846 6.541 1.974z" fill="#7FBA00"/>
    <path d="M335.116 193.045c.846-.339 1.354-.733 1.354-1.241 0-1.071-2.932-1.973-6.541-1.973-3.609 0-6.541.845-6.541 1.973 0 .451.507.846 1.353 1.241 1.184-.451 3.045-.79 5.188-.79 2.086 0 3.947.339 5.187.79z" fill="#B8D432"/>
    <path d="M329.816 210.807v-7.838c-1.241 0-2.256-.677-2.876-1.636-.62.959-1.635 1.636-2.82 1.636-.958 0-1.804-.395-2.368-1.072v5.921c-.056 1.635 3.553 2.932 8.064 2.989z" fill="#3999C6"/>
    <path d="M335.622 202.969c-1.24 0-2.312-.677-2.932-1.636-.564.959-1.635 1.579-2.819 1.636v7.838c4.511 0 8.232-1.354 8.232-2.932v-5.978c-.62.621-1.466 1.072-2.481 1.072z" fill="#59B4D9"/>
    <path d="M329.871 202.968l-.057 7.838h.113l-.056-7.838z" fill="#59B4D9"/>
    <path d="M355.133 41.247c-.056-.113-.056-.113-.056-.17-.621-1.07-1.185-2.198-1.805-3.27-.056-.113-.056-.169.057-.282l2.875-3.214c.057-.056.057-.056.057-.169a4.707 4.707 0 00-.846.225c-1.128.283-2.312.564-3.44.903-.113 0-.169 0-.225-.113-.677-1.071-1.297-2.086-1.974-3.158-.056-.056-.056-.113-.169-.169l-.169.846a56.04 56.04 0 01-.564 2.988c0 .113-.056.226-.056.339 0 .113-.057.113-.17.169-1.353.395-2.706.846-4.06 1.24-.056 0-.112.057-.169.113 1.128.451 2.199.846 3.327 1.297-.056.057-.056.057-.113.057-.676.45-1.409.845-2.086 1.297-.056.056-.169.056-.226 0-.845-.339-1.691-.733-2.481-1.072-.394-.169-.733-.395-.958-.676-.564-.677-.451-1.467.338-1.974.282-.17.564-.282.846-.395 1.353-.395 2.65-.79 4.003-1.24.113-.057.17-.057.17-.226.169-1.015.338-1.974.564-2.989.112-.507.169-1.07.394-1.578.113-.17.226-.395.395-.508.507-.564 1.297-.564 1.804-.056.17.169.339.395.508.62.62.959 1.24 1.917 1.804 2.932.057.113.113.113.282.113 1.466-.395 2.989-.733 4.455-1.128.282-.056.62-.113.959-.056.676.113 1.015.62.733 1.24-.113.282-.282.508-.508.79-1.015 1.184-2.086 2.368-3.101 3.496-.113.113-.113.17 0 .282l1.861 3.383c.169.282.281.564.281.846 0 .677-.507 1.297-1.24 1.41-.395.056-.789 0-1.184-.113-.959-.282-1.861-.564-2.82-.846-.112 0-.112-.056-.112-.17-.113-.62-.226-1.24-.339-1.916v-.057c.959.339 2.03.62 3.158.959z" fill="#E25A1C"/>
    <path d="M353.441 51.058h-2.481c-.113 0-.169-.056-.226-.112-.958-1.523-1.973-2.989-2.932-4.511-.056-.057-.056-.113-.113-.17-.225 1.636-.394 3.215-.62 4.793h-2.143c0-.225.057-.394.057-.62.225-1.635.394-3.27.62-4.85.225-1.578.395-3.1.62-4.68 0-.056.057-.112.057-.112.733-.508 1.466-.959 2.199-1.466h.056c-.225 1.748-.451 3.44-.677 5.187 1.185-1.297 2.312-2.594 3.497-3.947.056.226.056.395.112.564.057.508.169.959.226 1.466 0 .113 0 .17-.057.226-.733.79-1.522 1.579-2.255 2.424l-.113.113c0 .056.057.056.057.113 1.296 1.86 2.593 3.665 3.89 5.526.113 0 .17 0 .226.056zM322.372 50.381l-.17 1.354c-.056.62-.169 1.184-.225 1.804 0 .057-.057.113-.113.113h-1.748-.056c.056-.282.056-.564.112-.846.113-.959.282-1.973.395-2.932.169-1.128.282-2.256.451-3.383.338-1.974 1.974-3.666 3.947-4.117 1.128-.225 2.2-.113 3.215.508.958.62 1.522 1.579 1.691 2.763.169 1.635-.395 3.045-1.579 4.173-.733.733-1.691 1.24-2.706 1.353-1.072.169-2.087 0-2.989-.677-.113-.056-.169-.113-.225-.113zm5.582-4.116c-.056-.17-.056-.395-.113-.62-.338-1.072-1.466-1.692-2.594-1.41-1.24.282-2.142 1.297-2.312 2.594-.112.959.395 1.917 1.354 2.255.789.282 1.522.17 2.199-.281.902-.564 1.41-1.354 1.466-2.538zM321.47 40.853c-.677.507-1.354.958-2.03 1.41-.113-.17-.226-.339-.339-.452-.282-.394-.62-.676-1.184-.733-.451-.056-.789.113-1.071.395a.702.702 0 00-.057.959c.282.338.564.676.846.958l1.523 1.523c.451.45.789 1.015.902 1.692.113.789-.056 1.522-.395 2.199-.733 1.24-1.804 1.973-3.327 2.199a4.37 4.37 0 01-1.917-.113c-.846-.226-1.41-.79-1.804-1.523l-.339-.845c.733-.395 1.466-.733 2.199-1.128 0 .056.057.113.057.17.113.225.225.507.395.732.451.677 1.184.846 1.917.508.169-.057.395-.226.507-.339.508-.394.564-.958.226-1.466-.226-.282-.451-.564-.733-.846-.62-.62-1.241-1.24-1.805-1.917-.394-.451-.676-.958-.733-1.579-.112-.676.057-1.24.395-1.804.902-1.354 2.143-2.087 3.834-2.03.959.056 1.748.451 2.312 1.184.282.395.451.564.621.846zM337.089 48.407c-.113.846-.226 1.636-.339 2.425 0 .057-.056.113-.056.113-1.635.733-3.778.677-5.075-.846-.733-.846-1.015-1.804-.959-2.876.113-2.48 2.143-4.68 4.624-4.962 1.41-.169 2.707.226 3.665 1.353.677.79.959 1.692.903 2.707-.057.677-.113 1.353-.226 1.974-.113.958-.225 1.86-.395 2.82v.112h-1.917c0-.226.057-.451.057-.62.112-1.072.281-2.143.394-3.27.057-.678.057-1.354-.282-1.975-.338-.676-.902-1.015-1.579-1.07-1.466-.17-2.932.901-3.214 2.367-.225.959.113 1.918.903 2.425.733.508 1.578.508 2.368.17a5.373 5.373 0 001.128-.846zM345.434 42.206c-.112.676-.169 1.353-.282 2.03h-1.24a.803.803 0 00-.733.507c-.057.113-.057.226-.057.395-.225 1.522-.394 3.101-.62 4.624l-.169 1.184h-2.086c.056-.282.056-.564.112-.846.113-1.015.282-1.974.395-2.989.113-.845.226-1.748.338-2.593.17-1.128 1.41-2.2 2.594-2.2.564-.112 1.184-.112 1.748-.112zM354.061 50.1v.79h-.17v-.79h-.282v-.113h.733v.113h-.281zm1.353.79v-.79l-.339.733h-.112l-.339-.733v.733h-.169v-.902h.226l.282.676.282-.676h.225v.902h-.056v.056zM324.401 39.555h-.789l-.226.451h-.564l1.241-2.199h.507l.395 2.2h-.451l-.113-.452zm-.507-.45h.451l-.113-.678-.338.677zM326.657 37.862h.79c.451 0 .733.226.733.564 0 .451-.395.79-.959.79h-.338l-.169.79h-.508l.451-2.144zm.733.451h-.338l-.113.508h.338c.17 0 .339-.113.339-.282 0-.17-.057-.226-.226-.226zM330.379 39.555h-.79l-.225.451h-.564l1.24-2.199h.508l.395 2.2h-.508l-.056-.452zm-.508-.45h.451l-.112-.678-.339.677zM333.706 39.894a2.01 2.01 0 01-.564.112c-.677 0-1.072-.394-1.072-.958 0-.677.677-1.24 1.466-1.24.226 0 .395.056.508.112l-.056.507c-.113-.112-.282-.169-.508-.169-.451 0-.846.339-.846.733 0 .282.226.564.564.564.226 0 .451-.056.564-.169l-.056.508zM336.299 39.16h-.959l-.113.845h-.451l.395-2.143h.395l-.113.846h.902l.169-.846h.452l-.395 2.143h-.451l.169-.846zM338.216 40.005l.451-2.143h1.522l-.056.451h-.959l-.112.395h.902l-.113.451h-.902l-.057.451h.903l-.057.395h-1.522z" fill="#3C3A3E"/>
    <path d="M299.196 222.31v-5.526h1.522c1.974 0 2.932.902 2.932 2.706 0 .846-.281 1.523-.789 2.03-.564.508-1.24.79-2.199.79h-1.466zm.676-4.962v4.341h.846c.733 0 1.297-.169 1.692-.563.395-.395.62-.959.62-1.636 0-1.409-.733-2.142-2.255-2.142h-.903zM307.484 222.31h-.621v-.62c-.282.451-.676.733-1.24.733-.395 0-.677-.113-.902-.339a1.144 1.144 0 01-.339-.845c0-.733.451-1.185 1.297-1.297l1.184-.17c0-.676-.282-1.015-.789-1.015-.451 0-.902.17-1.297.508v-.62c.395-.226.846-.395 1.353-.395.903 0 1.41.507 1.41 1.466v2.594h-.056zm-.621-2.03l-.958.113c-.282.056-.508.113-.677.225-.169.113-.225.282-.225.564 0 .169.056.339.225.451.113.113.338.169.564.169.338 0 .564-.112.789-.338.226-.225.282-.507.282-.846v-.338zM310.474 222.254c-.169.056-.338.113-.564.113-.676 0-1.015-.395-1.015-1.184v-2.312h-.676v-.564h.676v-.959l.621-.225v1.184h1.015v.564h-1.015v2.199c0 .282.056.451.112.564.113.112.226.169.452.169.169 0 .282-.057.394-.113v.564zM314.195 222.31h-.62v-.62c-.282.451-.677.733-1.241.733-.394 0-.676-.113-.902-.339a1.147 1.147 0 01-.338-.845c0-.733.451-1.185 1.297-1.297l1.184-.17c0-.676-.282-1.015-.79-1.015-.451 0-.902.17-1.297.508v-.62c.395-.226.846-.395 1.354-.395.902 0 1.409.507 1.409 1.466v2.594h-.056zm-.677-2.03l-.958.113c-.282.056-.508.113-.677.225-.169.113-.225.282-.225.564 0 .169.056.339.225.451.113.113.339.169.564.169.338 0 .564-.112.79-.338.225-.225.281-.507.281-.846v-.338zM320.456 222.31h-2.876v-5.526h.62v4.962h2.2v.564h.056zM324.062 222.31h-.62v-.62c-.282.451-.677.733-1.241.733-.394 0-.676-.113-.902-.339a1.147 1.147 0 01-.338-.845c0-.733.451-1.185 1.297-1.297l1.184-.17c0-.676-.282-1.015-.789-1.015-.452 0-.903.17-1.297.508v-.62c.394-.226.845-.395 1.353-.395.902 0 1.41.507 1.41 1.466v2.594h-.057zm-.62-2.03l-.959.113c-.282.056-.507.113-.676.225-.169.113-.226.282-.226.564 0 .169.057.339.226.451.113.113.338.169.564.169.338 0 .564-.112.789-.338.226-.225.282-.507.282-.846v-.338zM328.517 222.31h-.903l-1.748-1.917v1.917h-.62v-5.864h.62v3.721l1.636-1.804h.845l-1.804 1.917 1.974 2.03zM332.183 220.449h-2.763c0 .451.113.79.339 1.015.225.226.564.339.958.339.451 0 .846-.169 1.241-.451v.62c-.339.225-.79.395-1.354.395-.563 0-1.015-.17-1.296-.564-.282-.395-.452-.846-.452-1.523 0-.62.17-1.128.508-1.522.338-.395.789-.564 1.297-.564.507 0 .902.169 1.184.507.282.339.451.79.451 1.41v.338h-.113zm-.62-.507c0-.338-.113-.677-.282-.846-.169-.225-.395-.282-.733-.282-.282 0-.564.113-.733.338-.226.226-.338.508-.395.846h2.143v-.056zM335.114 222.084v-.789c.113.056.169.169.339.225.112.057.225.113.394.169.113.057.282.057.395.113.113.057.282.057.395.057.394 0 .676-.057.902-.226.169-.169.282-.338.282-.62a.81.81 0 00-.113-.395.678.678 0 00-.282-.282c-.113-.113-.225-.169-.395-.282-.169-.056-.338-.169-.507-.282-.169-.113-.395-.169-.564-.282a3.075 3.075 0 01-.451-.338 1.697 1.697 0 01-.282-.395c-.056-.169-.113-.338-.113-.564 0-.225.057-.451.169-.676.113-.169.282-.339.452-.451a2.06 2.06 0 01.62-.282c.225-.057.451-.113.676-.113.564 0 .959.056 1.185.169v.733c-.339-.225-.733-.338-1.241-.338-.169 0-.282 0-.451.056-.169.057-.282.057-.395.169a.684.684 0 00-.282.282c-.056.113-.112.226-.112.395 0 .113 0 .282.056.338.056.113.113.17.225.282a.917.917 0 00.395.226c.169.056.339.169.508.282.225.113.394.225.564.282.169.056.338.225.451.338.112.113.225.282.338.451.056.169.113.338.113.564 0 .282-.057.508-.169.677-.113.169-.226.338-.451.451-.17.113-.395.225-.621.282-.225.056-.507.056-.733.056h-.338c-.113 0-.282-.056-.395-.056-.113 0-.282-.057-.395-.113 0-.056-.056-.056-.169-.113zM341.092 222.254c-.169.056-.338.113-.563.113-.677 0-1.015-.395-1.015-1.184v-2.312h-.677v-.564h.677v-.959l.62-.225v1.184h1.015v.564h-1.015v2.199c0 .282.056.451.113.564.112.112.225.169.451.169.169 0 .282-.057.394-.113v.564zM343.518 222.367c-.564 0-1.071-.17-1.409-.564-.339-.395-.508-.846-.508-1.466 0-.677.169-1.185.564-1.579.338-.395.846-.564 1.466-.564.564 0 1.071.169 1.353.564.339.338.508.846.508 1.522 0 .62-.169 1.128-.508 1.523-.394.394-.845.564-1.466.564zm.057-3.609c-.395 0-.733.112-.959.394-.225.282-.338.677-.338 1.128 0 .451.113.846.338 1.128.226.282.564.395.959.395.394 0 .733-.113.958-.395.226-.282.339-.62.339-1.128 0-.507-.113-.846-.339-1.128a1.361 1.361 0 00-.958-.394zM348.535 218.983c-.112-.113-.282-.113-.451-.113-.282 0-.507.113-.676.395-.17.282-.282.62-.282 1.015v2.03h-.621v-3.947h.621v.789c.112-.282.225-.507.394-.676.17-.17.395-.226.621-.226.169 0 .282 0 .394.056v.677zM352.032 222.31h-.62v-.62c-.282.451-.677.733-1.241.733-.395 0-.676-.113-.902-.339a1.143 1.143 0 01-.338-.845c0-.733.451-1.185 1.297-1.297l1.184-.17c0-.676-.282-1.015-.79-1.015-.451 0-.902.17-1.297.508v-.62c.395-.226.846-.395 1.354-.395.902 0 1.409.507 1.409 1.466v2.594h-.056zm-.62-2.03l-.959.113c-.282.056-.507.113-.677.225-.169.113-.225.282-.225.564 0 .169.056.339.225.451.113.113.339.169.564.169.339 0 .564-.112.79-.338.225-.225.282-.507.282-.846v-.338zM356.599 221.971c0 1.466-.677 2.199-2.086 2.199-.508 0-.902-.113-1.297-.282v-.62c.451.225.846.395 1.297.395.958 0 1.466-.508 1.466-1.523v-.451c-.282.507-.733.733-1.353.733-.508 0-.903-.169-1.185-.507-.282-.339-.451-.846-.451-1.41 0-.677.169-1.184.508-1.579.338-.395.789-.62 1.297-.62.507 0 .902.225 1.184.62v-.564h.62v3.609zm-.62-1.466v-.564c0-.338-.113-.564-.339-.79-.225-.225-.451-.338-.789-.338-.395 0-.677.169-.902.451-.226.282-.339.677-.339 1.184 0 .452.113.79.339 1.072.225.282.507.395.846.395.338 0 .62-.113.845-.395.226-.282.339-.62.339-1.015zM361.054 220.449h-2.763c0 .451.113.79.338 1.015.226.226.564.339.959.339.451 0 .846-.169 1.24-.451v.62a2.408 2.408 0 01-1.353.395c-.564 0-1.015-.17-1.297-.564-.282-.395-.451-.846-.451-1.523 0-.62.169-1.128.508-1.522.338-.395.789-.564 1.296-.564.508 0 .903.169 1.185.507.282.339.451.79.451 1.41v.338h-.113zm-.62-.507c0-.338-.113-.677-.282-.846-.169-.225-.395-.282-.733-.282-.282 0-.564.113-.733.338-.226.226-.339.508-.395.846h2.143v-.056zM317.409 151.937h-.62V149.4h-2.876v2.537h-.62v-5.526h.62v2.425h2.876v-2.425h.62v5.526zM318.876 151.937v-5.526h1.522c1.974 0 2.933.902 2.933 2.707 0 .846-.282 1.522-.79 2.03-.564.507-1.24.789-2.199.789h-1.466zm.677-4.906v4.342h.845c.734 0 1.297-.169 1.692-.564.395-.394.62-.958.62-1.635 0-1.41-.733-2.143-2.255-2.143h-.902zM325.08 151.937h-.621v-5.526h.621v5.526zM329.703 151.937h-.621v-2.256c0-.846-.282-1.24-.902-1.24-.338 0-.564.112-.789.338-.226.225-.339.564-.339.902v2.256h-.62v-3.948h.62v.677c.282-.507.733-.733 1.297-.733.451 0 .79.113 1.015.395.226.282.339.676.339 1.184v2.425zM330.661 151.825v-.677c.338.282.733.395 1.128.395.564 0 .846-.169.846-.564 0-.113 0-.169-.057-.282a13.464 13.464 0 00-.169-.169c-.056-.057-.169-.113-.282-.169-.113-.057-.225-.113-.338-.113-.169-.057-.338-.113-.451-.226-.113-.056-.226-.169-.339-.225-.112-.057-.169-.17-.225-.282-.056-.113-.056-.226-.056-.395s.056-.338.112-.507c.057-.17.226-.282.339-.339.169-.113.282-.169.507-.225.169-.057.395-.057.564-.057.338 0 .62.057.902.169v.621a1.948 1.948 0 00-1.015-.282c-.113 0-.225 0-.338.056-.113 0-.169.056-.226.113l-.169.169c-.056.056-.056.169-.056.226 0 .112 0 .169.056.282l.169.169c.057.056.17.112.282.169l.339.169c.169.056.338.113.451.226.113.056.282.169.338.225.113.113.169.169.226.282.056.113.056.226.056.395s-.056.338-.113.507c-.113.169-.225.282-.338.339a1.397 1.397 0 01-.508.225c-.169.057-.394.057-.563.057a4.993 4.993 0 01-1.072-.282zM334.551 146.975a.431.431 0 01-.282-.112.434.434 0 01-.113-.282c0-.113.057-.226.113-.282a.427.427 0 01.282-.113c.113 0 .226.056.282.113a.432.432 0 01.113.282.434.434 0 01-.113.282c-.056.112-.169.112-.282.112zm.338 4.963h-.62v-3.948h.62v3.948zM339.515 151.655c0 1.467-.677 2.2-2.087 2.2-.507 0-.902-.113-1.297-.282v-.621c.451.226.846.395 1.297.395.959 0 1.466-.507 1.466-1.522v-.451c-.282.507-.733.733-1.353.733-.507 0-.902-.17-1.184-.508-.282-.338-.451-.846-.451-1.41 0-.676.169-1.184.507-1.578.339-.395.79-.621 1.297-.621.508 0 .902.226 1.184.621v-.564h.621v3.608zm-.621-1.466v-.564c0-.338-.112-.563-.338-.789-.226-.225-.451-.338-.789-.338-.395 0-.677.169-.903.451-.225.282-.338.676-.338 1.184 0 .451.113.789.338 1.071.226.282.508.395.846.395.339 0 .62-.113.846-.395.226-.338.338-.62.338-1.015zM344.082 151.937h-.62v-2.255c0-.846-.282-1.241-.902-1.241-.282 0-.564.113-.79.338-.225.226-.338.564-.338.903v2.255h-.62v-5.864h.62v2.537c.282-.507.733-.733 1.297-.733.902 0 1.353.564 1.353 1.635v2.425zM347.126 151.937c-.169.056-.338.113-.564.113-.676 0-1.015-.395-1.015-1.184v-2.312h-.733v-.564h.677v-.959l.62-.225v1.184h1.015v.564h-1.015v2.199c0 .282.057.451.113.564.113.113.226.169.451.169a.81.81 0 00.395-.113v.564h.056zM559.43 115.848v2.087h-.62v-5.526h1.522c.564 0 1.071.169 1.353.451.339.282.508.676.508 1.24s-.169.959-.564 1.297c-.338.339-.846.508-1.466.508h-.733v-.057zm0-2.875v2.255h.676c.452 0 .79-.113 1.015-.282.226-.169.339-.507.339-.846 0-.733-.451-1.071-1.297-1.071h-.733v-.056zM564.446 117.992c-.564 0-1.072-.169-1.41-.564-.339-.395-.508-.846-.508-1.466 0-.677.169-1.184.564-1.579.339-.394.846-.564 1.466-.564.564 0 1.072.17 1.354.564.338.339.507.846.507 1.523 0 .62-.169 1.127-.507 1.522-.339.395-.846.564-1.466.564zm.056-3.552c-.395 0-.733.112-.959.394-.225.282-.338.677-.338 1.128 0 .451.113.846.338 1.128.226.282.564.395.959.395s.733-.113.959-.395c.225-.282.338-.62.338-1.128 0-.507-.113-.846-.338-1.128-.226-.282-.508-.394-.959-.394zM572.398 113.988l-1.184 3.947h-.676l-.79-2.819c-.056-.113-.056-.226-.056-.339 0 .113-.057.226-.057.339l-.902 2.819h-.62l-1.184-3.947h.676l.79 2.988c0 .113.056.226.056.339h.057c0-.113.056-.226.056-.339l.902-2.932h.564l.789 2.989c0 .113.057.225.057.338h.056c0-.113 0-.225.057-.338l.789-2.989h.62v-.056zM576.289 116.131h-2.763c0 .451.113.789.338 1.015.226.225.564.338.959.338.451 0 .846-.169 1.24-.451v.62a2.4 2.4 0 01-1.353.395c-.564 0-1.015-.169-1.297-.564-.338-.338-.451-.846-.451-1.523 0-.62.169-1.127.507-1.522.339-.395.79-.564 1.297-.564.508 0 .903.169 1.185.507.281.339.451.79.451 1.41v.339h-.113zm-.62-.564c0-.339-.113-.677-.282-.846-.17-.226-.395-.282-.733-.282-.282 0-.564.113-.733.338-.226.226-.339.508-.395.846h2.143v-.056zM579.278 114.608c-.113-.113-.282-.113-.452-.113-.282 0-.507.113-.676.395-.169.282-.282.62-.282 1.015v2.03h-.62v-3.947h.62v.789c.113-.282.225-.507.395-.676.169-.17.394-.226.62-.226.169 0 .282 0 .395.056v.677zM582.21 117.935v-5.526h1.579c.451 0 .846.112 1.128.338.282.226.394.564.394.902 0 .339-.112.564-.282.79a1.541 1.541 0 01-.676.507c.394.057.676.169.902.395.226.225.338.564.338.902 0 .451-.169.846-.507 1.128-.339.282-.79.451-1.297.451h-1.579v.113zm.677-4.962v1.804h.676c.339 0 .621-.113.846-.282.226-.169.282-.395.282-.733 0-.564-.338-.789-1.071-.789h-.733zm0 2.368v1.973h.902c.395 0 .677-.112.902-.281.226-.17.338-.452.338-.734 0-.676-.451-.958-1.353-.958h-.789zM587.398 117.935h-.621v-5.526h.621v5.526zM569.242 61.152h-.733l-.564-1.523h-2.368l-.564 1.523h-.733l2.143-5.526h.676l2.143 5.526zm-1.523-2.087l-.845-2.368c0-.056-.057-.226-.113-.395 0 .17-.057.282-.113.395l-.846 2.368h1.917zM570.593 60.588v2.368h-.62v-5.751h.62v.676c.339-.507.79-.79 1.354-.79.507 0 .902.17 1.184.508.282.339.451.846.451 1.41 0 .677-.169 1.184-.507 1.579-.339.395-.734.62-1.297.62-.508.056-.903-.169-1.185-.62zm0-1.579v.564c0 .338.113.62.339.846.225.225.507.338.789.338.395 0 .677-.17.902-.451.226-.282.339-.677.339-1.24 0-.452-.113-.79-.282-1.016-.169-.225-.451-.394-.846-.394-.395 0-.677.113-.902.394-.226.226-.339.564-.339.959zM575.273 60.588v2.368h-.62v-5.751h.62v.676c.338-.507.79-.79 1.353-.79.508 0 .903.17 1.185.508.282.339.451.846.451 1.41 0 .677-.169 1.184-.508 1.579-.338.395-.733.62-1.297.62-.507.056-.902-.169-1.184-.62zm-.056-1.579v.564c0 .338.113.62.338.846.226.225.508.338.789.338.395 0 .677-.17.903-.451.225-.282.338-.677.338-1.24 0-.452-.113-.79-.282-1.016-.169-.225-.451-.394-.846-.394-.394 0-.676.113-.902.394-.225.226-.338.564-.338.959zM578.996 61.04v-.677c.338.282.733.395 1.128.395.564 0 .846-.17.846-.564 0-.113 0-.17-.057-.282l-.169-.17a1.22 1.22 0 00-.282-.169c-.113-.056-.225-.112-.338-.112-.169-.057-.338-.113-.451-.226-.113-.056-.226-.17-.339-.225-.112-.113-.169-.17-.225-.282-.057-.113-.056-.226-.056-.395 0-.17.056-.338.112-.508.113-.169.226-.282.339-.338.169-.113.282-.17.507-.226.169-.056.395-.056.564-.056.338 0 .62.056.902.17v.62a1.947 1.947 0 00-1.015-.282c-.113 0-.225 0-.338.056-.113 0-.169.056-.226.113l-.169.169c-.056.056-.056.17-.056.225 0 .113 0 .17.056.282l.169.17c.057.056.169.112.282.169l.339.169c.169.056.338.113.451.225.112.057.282.17.338.226.113.113.169.17.226.282.056.113.056.226.056.395s-.056.338-.113.507c-.113.17-.225.282-.338.338-.113.057-.282.17-.508.226-.225.056-.394.056-.564.056-.394-.056-.733-.112-1.071-.282zM61.744 62.167v-.79c.113.057.17.17.339.226.169.057.225.113.394.17.17.056.282.056.395.112.113 0 .282.057.395.057.394 0 .676-.057.902-.226.169-.17.282-.338.282-.62a.815.815 0 00-.113-.395.68.68 0 00-.282-.282c-.113-.113-.225-.169-.395-.282-.169-.056-.338-.169-.507-.282-.17-.112-.395-.169-.564-.282a3.114 3.114 0 01-.451-.338 1.713 1.713 0 01-.282-.395 1.669 1.669 0 01-.113-.564c0-.225.056-.45.17-.676.112-.17.281-.339.45-.451.17-.113.395-.226.62-.282.226-.057.452-.113.677-.113.564 0 .959.056 1.184.17v.732c-.338-.225-.733-.338-1.24-.338-.113 0-.282 0-.451.056-.113.057-.282.057-.395.17a.68.68 0 00-.282.281c-.056.113-.113.226-.113.395 0 .17 0 .282.057.338.056.113.113.17.225.282.113.113.226.17.395.226.17.056.338.169.508.282.225.113.394.225.563.282.17.056.339.225.452.338.112.113.225.282.338.451.056.17.113.339.113.564 0 .282-.057.508-.17.677-.112.169-.225.338-.45.45-.17.114-.395.226-.62.283-.226.056-.508.056-.734.056h-.338c-.113 0-.282-.056-.395-.056-.113 0-.282-.057-.395-.113 0 0-.112-.056-.169-.113zM67.665 62.336c-.169.057-.338.113-.564.113-.676 0-1.015-.395-1.015-1.184v-2.312h-.676v-.564h.676v-.958l.62-.226v1.184h1.016v.564h-1.015v2.2c0 .281.056.45.112.563.113.113.226.17.451.17.17 0 .282-.057.395-.114v.564zM70.597 59.065c-.113-.113-.282-.113-.451-.113-.282 0-.508.113-.677.395-.169.282-.282.62-.282 1.015v2.03h-.676v-3.947h.62v.79c.113-.283.226-.508.395-.677.169-.17.395-.226.62-.226.17 0 .282 0 .395.056v.677h.056zM74.32 60.588h-2.764c0 .45.113.789.338 1.015.226.225.564.338.959.338.451 0 .846-.17 1.24-.451v.62c-.338.226-.789.395-1.353.395s-1.015-.17-1.297-.564c-.338-.338-.45-.846-.45-1.523 0-.62.168-1.127.507-1.522.338-.395.79-.564 1.297-.564.507 0 .902.17 1.184.508.282.338.45.789.45 1.41v.338h-.112zm-.621-.564c0-.339-.113-.677-.282-.846-.17-.226-.395-.282-.733-.282-.282 0-.564.113-.733.338-.226.226-.338.508-.395.846H73.7v-.056zM78.153 62.392h-.62v-.62c-.282.45-.677.733-1.24.733-.395 0-.677-.113-.903-.339a1.147 1.147 0 01-.338-.845c0-.733.45-1.184 1.297-1.297l1.184-.17c0-.676-.282-1.014-.79-1.014-.45 0-.902.169-1.296.507v-.62c.394-.226.845-.395 1.353-.395.902 0 1.41.508 1.41 1.466v2.594h-.057zm-.677-1.974l-.958.113c-.282.057-.508.113-.677.226-.169.113-.225.282-.225.564 0 .169.056.338.225.45.113.114.339.17.564.17.338 0 .564-.113.79-.338.225-.226.282-.508.282-.846v-.339zM84.92 62.392h-.62v-2.256c0-.45-.057-.733-.226-.958-.113-.17-.338-.282-.677-.282-.282 0-.507.113-.676.395-.17.282-.282.564-.282.902v2.255h-.62V60.08c0-.79-.282-1.184-.903-1.184a.804.804 0 00-.676.338c-.17.226-.282.508-.282.902v2.256h-.62v-3.947h.62v.62c.282-.451.676-.733 1.24-.733.282 0 .508.056.733.226.226.169.339.338.395.563.282-.563.733-.789 1.297-.789.846 0 1.297.564 1.297 1.635v2.425zM86.442 57.43a.43.43 0 01-.282-.113.43.43 0 01-.113-.282.43.43 0 01.113-.282.43.43 0 01.282-.112.43.43 0 01.282.112.43.43 0 01.112.282.43.43 0 01-.112.282c-.057.113-.17.113-.282.113zm.282 4.962h-.62v-3.947h.62v3.947zM91.292 62.393h-.62v-2.256c0-.846-.282-1.24-.903-1.24-.338 0-.563.112-.789.338-.226.226-.338.564-.338.902v2.256h-.62v-3.947h.62v.676c.282-.507.733-.733 1.297-.733.45 0 .79.113 1.015.395.225.282.338.677.338 1.184v2.425zM95.858 62.054c0 1.466-.676 2.2-2.086 2.2-.508 0-.902-.113-1.297-.282v-.62c.451.225.846.394 1.297.394.959 0 1.466-.507 1.466-1.522v-.451c-.282.507-.733.732-1.353.732-.508 0-.902-.169-1.184-.507-.282-.338-.451-.846-.451-1.41 0-.676.169-1.184.507-1.579.338-.394.79-.62 1.297-.62.507 0 .902.226 1.184.62v-.563h.62v3.608zm-.62-1.466v-.564c0-.338-.113-.563-.338-.789-.226-.226-.451-.338-.79-.338-.394 0-.676.169-.902.45-.225.283-.338.677-.338 1.185 0 .451.113.79.338 1.071.226.282.508.395.846.395.338 0 .62-.113.846-.395.225-.282.338-.62.338-1.015zM99.412 62.392v-5.526h1.522c1.974 0 2.932.902 2.932 2.706 0 .846-.282 1.523-.789 2.03-.564.508-1.241.79-2.199.79h-1.466zm.62-4.962v4.342h.846c.733 0 1.297-.17 1.691-.564.395-.395.621-.959.621-1.636 0-1.41-.733-2.142-2.256-2.142h-.902zM107.645 62.392h-.62v-.62c-.282.45-.677.733-1.241.733-.394 0-.676-.113-.902-.339a1.15 1.15 0 01-.338-.845c0-.733.451-1.184 1.297-1.297l1.184-.17c0-.676-.282-1.014-.789-1.014-.452 0-.903.169-1.297.507v-.62c.394-.226.845-.395 1.353-.395.902 0 1.41.508 1.41 1.466v2.594h-.057zm-.62-1.974l-.959.113c-.282.057-.507.113-.676.226-.169.113-.226.282-.226.564 0 .169.057.338.226.45.113.114.338.17.564.17.338 0 .564-.113.789-.338.226-.226.282-.508.282-.846v-.339zM110.689 62.336a1.666 1.666 0 01-.564.113c-.676 0-1.015-.395-1.015-1.184v-2.312h-.676v-.564h.676v-.958l.621-.226v1.184h1.015v.564h-1.072v2.2c0 .281.057.45.113.563.113.113.225.17.451.17.169 0 .282-.057.395-.114v.564h.056zM114.355 62.392h-.62v-.62c-.282.45-.677.733-1.241.733-.395 0-.677-.113-.902-.339a1.146 1.146 0 01-.339-.845c0-.733.452-1.184 1.297-1.297l1.185-.17c0-.676-.282-1.014-.79-1.014-.451 0-.902.169-1.297.507v-.62c.395-.226.846-.395 1.353-.395.903 0 1.41.508 1.41 1.466v2.594h-.056zm-.62-1.974l-.959.113c-.282.057-.508.113-.677.226-.169.113-.225.282-.225.564 0 .169.056.338.225.45.113.114.339.17.564.17.338 0 .564-.113.79-.338.225-.226.282-.508.282-.846v-.339zM167.585 103.161h-.733l-.563-1.522h-2.369l-.564 1.522h-.676l2.142-5.526h.677l2.086 5.526zm-1.522-2.142l-.846-2.369c-.056-.056-.056-.225-.113-.395 0 .17-.056.282-.112.395l-.846 2.369h1.917zM168.995 102.597v2.368h-.677v-5.751h.62v.677c.338-.508.79-.79 1.353-.79.508 0 .903.17 1.185.508.282.338.451.845.451 1.409 0 .677-.169 1.184-.508 1.579-.338.395-.733.62-1.297.62-.451.057-.846-.169-1.127-.62zm-.057-1.579v.564c0 .339.113.62.338.846.226.226.508.338.79.338.395 0 .677-.169.902-.451.226-.282.338-.676.338-1.24 0-.451-.112-.79-.281-1.015-.226-.226-.452-.395-.846-.395-.395 0-.677.113-.903.395a1.425 1.425 0 00-.338.958zM175.705 103.161h-.62v-.62c-.282.451-.677.733-1.24.733-.395 0-.677-.113-.903-.339a1.147 1.147 0 01-.338-.845c0-.733.451-1.184 1.297-1.297l1.184-.169c0-.677-.282-1.015-.789-1.015-.451 0-.903.169-1.297.507v-.62c.394-.226.846-.395 1.353-.395.902 0 1.41.508 1.41 1.466v2.594h-.057zm-.62-2.03l-.959.113c-.281.056-.507.113-.676.225-.169.113-.226.282-.226.564 0 .169.057.339.226.451a.95.95 0 00.564.17c.338 0 .564-.113.789-.339.226-.225.282-.507.282-.846v-.338zM179.595 102.992a2.163 2.163 0 01-1.072.282c-.563 0-1.015-.169-1.353-.564-.338-.338-.507-.846-.507-1.41 0-.676.169-1.184.563-1.578.395-.395.846-.564 1.467-.564.338 0 .676.056.902.169v.62c-.282-.225-.62-.282-.959-.282-.395 0-.733.17-1.015.451-.282.282-.395.677-.395 1.128 0 .451.113.846.339 1.071.225.282.564.395.958.395.339 0 .677-.113.959-.338v.62h.113zM183.826 103.162h-.62v-2.256c0-.846-.282-1.24-.902-1.24-.282 0-.564.112-.79.338-.225.226-.338.564-.338.902v2.256h-.62v-5.865h.62v2.538c.282-.508.733-.733 1.297-.733.902 0 1.353.564 1.353 1.635v2.425zM188.167 101.357h-2.763c0 .451.113.789.339 1.015.225.225.563.338.958.338.451 0 .846-.169 1.241-.451v.62c-.339.226-.79.395-1.354.395-.564 0-1.015-.169-1.297-.564-.338-.338-.451-.846-.451-1.523 0-.62.169-1.127.508-1.522.338-.395.789-.564 1.297-.564.507 0 .902.17 1.184.508.282.338.451.789.451 1.409v.339h-.113zm-.62-.564c0-.339-.113-.677-.282-.846-.169-.226-.395-.282-.733-.282-.282 0-.564.113-.733.338-.226.226-.338.508-.395.846h2.143v-.056zM195.217 103.161h-.902l-2.143-2.537c-.056-.113-.113-.169-.169-.169v2.706h-.62v-5.526h.62v2.594l.169-.169 2.087-2.425h.789l-2.368 2.651 2.537 2.875zM198.712 103.161h-.621v-.62c-.281.451-.676.733-1.24.733-.395 0-.677-.113-.902-.339a1.144 1.144 0 01-.339-.845c0-.733.451-1.184 1.297-1.297l1.184-.169c0-.677-.281-1.015-.789-1.015-.451 0-.902.169-1.297.507v-.62c.395-.226.846-.395 1.353-.395.903 0 1.41.508 1.41 1.466v2.594h-.056zm-.621-2.03l-.958.113c-.282.056-.508.113-.677.225-.169.113-.225.282-.225.564 0 .169.056.339.225.451.113.113.339.17.564.17.338 0 .564-.113.79-.339.225-.225.281-.507.281-.846v-.338zM201.812 97.861a1.048 1.048 0 00-.395-.112c-.451 0-.677.281-.677.845v.62h.903v.564h-.903v3.384h-.62v-3.384h-.677v-.563h.677v-.62c0-.395.113-.734.338-.96.226-.225.564-.338.903-.338.169 0 .338 0 .451.057v.507zM205.647 103.162h-.902l-1.748-1.917v1.917h-.62v-5.865h.62v3.722l1.635-1.804h.846l-1.804 1.917 1.973 2.03zM209.087 103.161h-.621v-.62c-.281.451-.676.733-1.24.733-.395 0-.677-.113-.902-.339a1.144 1.144 0 01-.339-.845c0-.733.451-1.184 1.297-1.297l1.184-.169c0-.677-.282-1.015-.789-1.015-.451 0-.902.169-1.297.507v-.62c.395-.226.846-.395 1.353-.395.903 0 1.41.508 1.41 1.466v2.594h-.056zm-.621-2.03l-.958.113c-.282.056-.508.113-.677.225-.169.113-.225.282-.225.564 0 .169.056.339.225.451.169.113.339.17.564.17.338 0 .564-.113.79-.339.225-.225.281-.507.281-.846v-.338zM214.388 97.861a1.048 1.048 0 00-.395-.112c-.451 0-.677.281-.677.845v.62h.903v.564h-.903v3.384h-.62v-3.384h-.676v-.563h.676v-.62c0-.395.113-.734.339-.96.225-.225.563-.338.902-.338.169 0 .338 0 .451.057v.507zM216.587 103.274c-.564 0-1.071-.169-1.41-.564-.338-.395-.507-.846-.507-1.466 0-.677.169-1.184.564-1.579.338-.395.846-.564 1.466-.564.564 0 1.071.17 1.353.564.282.395.508.846.508 1.522 0 .621-.169 1.128-.508 1.523-.338.395-.846.564-1.466.564zm.057-3.609c-.395 0-.734.113-.959.395-.226.282-.338.676-.338 1.127 0 .452.112.846.338 1.128.225.282.564.395.959.395.394 0 .733-.113.958-.395.226-.282.338-.62.338-1.128 0-.507-.112-.845-.338-1.127-.225-.282-.564-.395-.958-.395zM221.607 99.834c-.113-.113-.282-.113-.451-.113-.282 0-.508.113-.677.395-.169.282-.282.62-.282 1.015v2.03h-.62v-3.947h.62v.789c.113-.282.225-.507.395-.676.169-.17.394-.226.62-.226.169 0 .282 0 .395.056v.677zM171.307 112.635h-.621v-.677c-.282.508-.733.789-1.353.789-.507 0-.902-.169-1.184-.507-.282-.338-.451-.846-.451-1.466 0-.677.169-1.184.507-1.579.339-.395.79-.564 1.297-.564.564 0 .959.226 1.184.62v-2.424h.621v5.808zm-.677-1.805v-.564c0-.338-.113-.564-.338-.789-.226-.226-.451-.338-.79-.338-.395 0-.676.112-.902.451-.226.282-.338.676-.338 1.184 0 .451.112.789.338 1.071.226.282.507.395.846.395.338 0 .62-.113.846-.395.225-.282.338-.62.338-1.015zM175.367 112.635h-.62v-.62c-.282.451-.676.733-1.24.733-.395 0-.677-.113-.903-.338a1.151 1.151 0 01-.338-.846c0-.733.451-1.184 1.297-1.297l1.184-.169c0-.677-.282-1.015-.789-1.015-.451 0-.902.169-1.297.507v-.62c.395-.226.846-.395 1.353-.395.902 0 1.41.508 1.41 1.466v2.594h-.057zm-.62-2.03l-.958.113c-.282.056-.508.113-.677.226-.169.112-.226.281-.226.563 0 .17.057.339.226.452.113.112.338.169.564.169.338 0 .564-.113.789-.339.226-.225.282-.507.282-.845v-.339zM178.412 112.578a1.656 1.656 0 01-.564.113c-.677 0-1.015-.395-1.015-1.184v-2.312h-.677v-.564h.677v-.959l.62-.225v1.184h1.015v.564h-1.015v2.199c0 .282.057.451.113.564.113.113.226.169.451.169a.81.81 0 00.395-.113v.564zM182.077 112.635h-.62v-.62c-.282.451-.677.733-1.241.733-.395 0-.677-.113-.902-.338a1.147 1.147 0 01-.338-.846c0-.733.451-1.184 1.297-1.297l1.184-.169c0-.677-.282-1.015-.79-1.015-.451 0-.902.169-1.297.507v-.62c.395-.226.846-.395 1.354-.395.902 0 1.409.508 1.409 1.466v2.594h-.056zm-.62-2.03l-.959.113c-.282.056-.507.113-.677.226-.169.112-.225.281-.225.563 0 .17.056.339.225.452.113.112.339.169.564.169.339 0 .564-.113.79-.339.225-.225.282-.507.282-.845v-.339zM185.742 107.672a.43.43 0 01-.282-.113.43.43 0 01-.112-.281c0-.113.056-.226.112-.282a.43.43 0 01.282-.113c.113 0 .226.056.282.113a.427.427 0 01.113.282.426.426 0 01-.113.281.427.427 0 01-.282.113zm.339 4.962h-.621v-3.947h.621v3.947zM190.65 112.634h-.621v-2.256c0-.845-.282-1.24-.902-1.24-.338 0-.564.113-.789.338-.226.226-.282.564-.282.902v2.256h-.62v-3.947h.62v.676c.282-.507.733-.733 1.297-.733.451 0 .789.113 1.015.395.225.282.338.677.338 1.184v2.425h-.056zM195.16 112.296c0 1.466-.677 2.199-2.087 2.199-.507 0-.902-.113-1.297-.282v-.62c.451.225.846.394 1.297.394.959 0 1.466-.507 1.466-1.522v-.451c-.282.507-.733.733-1.353.733-.507 0-.902-.169-1.184-.508-.282-.338-.451-.846-.451-1.409 0-.677.169-1.185.507-1.579.339-.395.79-.621 1.297-.621.508 0 .902.226 1.184.621v-.564h.621v3.609zm-.621-1.466v-.564c0-.339-.112-.564-.338-.79-.226-.225-.451-.338-.789-.338-.395 0-.677.169-.903.451-.225.282-.338.677-.338 1.184 0 .451.113.79.338 1.072.226.281.508.394.846.394.339 0 .62-.113.846-.394.226-.282.338-.621.338-1.015zM199.615 110.831h-2.764c0 .451.113.789.339 1.015.225.225.564.338.958.338.452 0 .846-.169 1.241-.451v.62a2.4 2.4 0 01-1.353.395c-.564 0-1.015-.169-1.297-.564-.339-.338-.451-.846-.451-1.522 0-.621.169-1.128.507-1.523.338-.395.79-.564 1.297-.564.508 0 .902.169 1.184.508.282.338.451.789.451 1.409v.339h-.112zm-.621-.564c0-.338-.113-.677-.282-.846-.169-.226-.394-.282-.733-.282-.282 0-.564.113-.733.338-.225.226-.338.508-.395.846h2.143v-.056zM200.347 112.465v-.677c.338.282.733.395 1.128.395.564 0 .846-.169.846-.564 0-.113 0-.169-.057-.282l-.169-.169c-.056-.057-.169-.113-.282-.169-.113-.057-.225-.113-.338-.113-.169-.056-.338-.113-.451-.226-.113-.056-.226-.169-.339-.225-.112-.113-.169-.169-.225-.282-.056-.113-.056-.226-.056-.395s.056-.338.112-.507c.057-.17.226-.282.339-.339.112-.112.282-.169.507-.225.169-.057.395-.057.564-.057.338 0 .62.057.902.17v.62a1.948 1.948 0 00-1.015-.282c-.113 0-.225 0-.338.056-.113 0-.169.057-.226.113l-.169.169c-.056.057-.056.169-.056.226 0 .113 0 .169.056.282l.169.169c.057.056.17.113.282.169l.339.169c.169.057.338.113.451.226.113.113.282.169.338.225.056.057.169.169.226.282.056.113.056.226.056.395s-.056.338-.113.507c-.113.17-.225.282-.338.339a1.38 1.38 0 01-.508.225c-.169.057-.394.057-.563.057-.395 0-.79-.113-1.072-.282zM205.759 112.578a1.65 1.65 0 01-.563.113c-.677 0-1.015-.395-1.015-1.184v-2.312h-.677v-.564h.677v-.959l.62-.225v1.184h1.015v.564h-1.015v2.199c0 .282.056.451.113.564.112.113.225.169.451.169a.804.804 0 00.394-.113v.564zM206.944 107.672a.427.427 0 01-.282-.113.426.426 0 01-.113-.281c0-.113.056-.226.113-.282a.427.427 0 01.282-.113c.112 0 .225.056.281.113a.427.427 0 01.113.282.426.426 0 01-.113.281.426.426 0 01-.281.113zm.281 4.962h-.62v-3.947h.62v3.947zM210.158 112.748c-.564 0-1.071-.169-1.41-.564-.338-.395-.507-.846-.507-1.466 0-.677.169-1.184.564-1.579.338-.395.845-.564 1.466-.564.564 0 1.071.169 1.353.564.338.338.508.846.508 1.523 0 .62-.17 1.127-.508 1.522-.395.338-.846.564-1.466.564zm.056-3.609c-.394 0-.733.113-.958.395-.226.282-.339.676-.339 1.128 0 .451.113.845.339 1.127.225.282.564.395.958.395.395 0 .733-.113.959-.395.225-.282.338-.62.338-1.127 0-.508-.113-.846-.338-1.128-.226-.282-.564-.395-.959-.395zM216.417 112.634h-.62v-2.256c0-.845-.282-1.24-.902-1.24-.338 0-.564.113-.789.338-.226.226-.339.564-.339.902v2.256h-.62v-3.947h.62v.676c.282-.507.733-.733 1.297-.733.451 0 .79.113 1.015.395.226.282.338.677.338 1.184v2.425zM270.833 103.161h-.733l-.564-1.522h-2.368l-.564 1.522h-.733l2.143-5.526h.677l2.142 5.526zm-1.522-2.142l-.846-2.369c0-.056-.056-.225-.113-.395 0 .17-.056.282-.113.395l-.845 2.369h1.917zM272.186 102.597v2.368h-.62v-5.751h.62v.677c.339-.508.79-.79 1.354-.79.507 0 .902.17 1.184.508.282.338.451.845.451 1.409 0 .677-.169 1.184-.508 1.579-.338.395-.733.62-1.297.62-.507.057-.902-.169-1.184-.62zm0-1.579v.564c0 .339.113.62.339.846a1.11 1.11 0 001.691-.113c.226-.282.338-.676.338-1.24 0-.451-.112-.79-.281-1.015-.17-.226-.452-.395-.846-.395-.395 0-.677.113-.902.395-.226.225-.339.564-.339.958zM278.953 103.161h-.677v-.62c-.281.451-.676.733-1.24.733-.395 0-.677-.113-.902-.339a1.144 1.144 0 01-.339-.845c0-.733.452-1.184 1.297-1.297l1.184-.169c0-.677-.281-1.015-.789-1.015-.451 0-.902.169-1.297.507v-.62c.395-.226.846-.395 1.353-.395.903 0 1.41.508 1.41 1.466v2.594zm-.677-2.03l-.958.113c-.282.056-.508.113-.677.225-.169.113-.225.282-.225.564 0 .169.056.339.225.451.113.113.339.17.564.17.338 0 .564-.113.79-.339.225-.225.281-.507.281-.846v-.338zM282.786 102.992a2.16 2.16 0 01-1.071.282c-.564 0-1.015-.169-1.353-.564-.339-.338-.508-.846-.508-1.41 0-.676.169-1.184.564-1.578.395-.395.846-.564 1.466-.564.338 0 .677.056.902.169v.62c-.282-.225-.62-.282-.958-.282-.395 0-.733.17-1.015.451-.282.282-.395.677-.395 1.128 0 .451.113.846.338 1.071.226.282.564.395.959.395.338 0 .676-.113.958-.338v.62h.113zM287.016 103.162h-.621v-2.256c0-.846-.282-1.24-.902-1.24-.282 0-.564.112-.789.338-.226.226-.339.564-.339.902v2.256h-.62v-5.865h.62v2.538c.282-.508.733-.733 1.297-.733.903 0 1.354.564 1.354 1.635v2.425zM291.414 101.357h-2.763c0 .451.113.789.339 1.015.225.225.564.338.958.338.451 0 .846-.169 1.241-.451v.62c-.339.226-.79.395-1.354.395-.563 0-1.015-.169-1.296-.564-.339-.338-.452-.846-.452-1.523 0-.62.17-1.127.508-1.522.338-.395.789-.564 1.297-.564.507 0 .902.17 1.184.508.282.338.451.789.451 1.409v.339h-.113zm-.676-.564c0-.339-.113-.677-.282-.846-.169-.226-.395-.282-.733-.282-.282 0-.564.113-.733.338-.17.226-.339.508-.395.846h2.143v-.056zM294.347 102.936v-.79c.112.057.169.169.338.226.113.056.226.113.395.169.112.056.282.056.394.113.113.056.282.056.395.056.395 0 .677-.056.902-.225.17-.17.282-.339.282-.621a.814.814 0 00-.112-.394.684.684 0 00-.282-.282c-.113-.113-.226-.169-.395-.282-.169-.057-.338-.169-.508-.282-.169-.113-.394-.169-.563-.282a3.18 3.18 0 01-.452-.338 1.768 1.768 0 01-.282-.395 1.678 1.678 0 01-.112-.564c0-.226.056-.451.169-.677.113-.169.282-.338.451-.45.169-.114.395-.226.62-.283.226-.056.451-.113.677-.113.564 0 .958.057 1.184.17v.733c-.338-.226-.733-.339-1.241-.339-.169 0-.281 0-.451.057-.169.056-.282.056-.394.169-.113.113-.226.17-.282.282a.809.809 0 00-.113.395c0 .169 0 .281.056.338.057.113.113.17.226.282.113.113.225.169.395.225.169.057.338.17.507.282.226.113.395.226.564.282.169.057.338.226.451.339.113.112.226.282.338.451.057.169.113.338.113.564 0 .282-.056.507-.169.676-.113.169-.226.339-.451.451a2.072 2.072 0 01-.62.282c-.226.057-.508.057-.733.057h-.339c-.112 0-.282-.057-.394-.057-.113 0-.282-.056-.395-.112 0 0-.113-.057-.169-.113zM299.364 102.597v2.368h-.62v-5.751h.62v.677c.339-.508.79-.79 1.354-.79.507 0 .902.17 1.184.508.282.338.451.845.451 1.409 0 .677-.169 1.184-.507 1.579-.339.395-.734.62-1.297.62-.508.057-.903-.169-1.185-.62zm0-1.579v.564c0 .339.113.62.339.846a1.11 1.11 0 001.691-.113c.226-.282.339-.676.339-1.24 0-.451-.113-.79-.282-1.015-.169-.226-.451-.395-.846-.395-.395 0-.677.113-.902.395-.226.225-.339.564-.339.958zM306.074 103.161h-.62v-.62c-.282.451-.677.733-1.241.733-.395 0-.676-.113-.902-.339a1.143 1.143 0 01-.338-.845c0-.733.451-1.184 1.297-1.297l1.184-.169c0-.677-.282-1.015-.79-1.015-.451 0-.902.169-1.297.507v-.62c.395-.226.846-.395 1.354-.395.902 0 1.409.508 1.409 1.466v2.594h-.056zm-.62-2.03l-.959.113c-.282.056-.507.113-.677.225-.169.113-.225.282-.225.564 0 .169.056.339.225.451.113.113.339.17.564.17.339 0 .564-.113.79-.339.225-.225.282-.507.282-.846v-.338zM309.346 99.834c-.113-.113-.282-.113-.451-.113-.282 0-.508.113-.677.395-.169.282-.282.62-.282 1.015v2.03h-.62v-3.947h.62v.789c.113-.282.226-.507.395-.676.169-.17.395-.226.62-.226.169 0 .282 0 .395.056v.677zM313.293 103.162h-.903l-1.748-1.917v1.917h-.62v-5.865h.62v3.722l1.636-1.804h.845l-1.804 1.917 1.974 2.03zM315.943 102.936v-.79c.113.057.169.169.338.226.113.056.226.113.395.169.113.056.282.056.395.113.112.056.282.056.394.056.395 0 .677-.056.903-.225.169-.17.282-.339.282-.621 0-.169-.057-.282-.113-.394a.678.678 0 00-.282-.282c-.113-.113-.226-.169-.395-.282-.169-.057-.338-.169-.507-.282-.17-.113-.395-.169-.564-.282-.169-.113-.339-.226-.451-.338a1.706 1.706 0 01-.282-.395 1.653 1.653 0 01-.113-.564c0-.226.056-.451.169-.677.113-.169.282-.338.451-.45.169-.114.395-.226.62-.283.226-.056.452-.113.677-.113.564 0 .959.057 1.184.17v.733c-.338-.226-.733-.339-1.24-.339-.169 0-.282 0-.451.057-.17.056-.282.056-.395.169-.113.113-.226.17-.282.282-.056.113-.113.225-.113.395 0 .169 0 .281.057.338.056.113.112.17.225.282.113.113.226.169.395.225.169.057.338.17.507.282.226.113.395.226.564.282.169.057.339.226.451.339.113.112.226.282.339.451.056.169.112.338.112.564 0 .282-.056.507-.169.676-.113.169-.225.339-.451.451a2.072 2.072 0 01-.62.282c-.226.057-.508.057-.733.057h-.339c-.112 0-.281-.057-.394-.057-.113 0-.282-.056-.395-.112 0 0-.113-.057-.169-.113zM321.863 103.104c-.169.056-.338.113-.564.113-.677 0-1.015-.395-1.015-1.184v-2.312h-.677v-.564h.677v-.959l.62-.225v1.184h1.015v.564h-1.015v2.199c0 .282.057.451.113.564.057.113.226.169.451.169a.81.81 0 00.395-.113v.564zM324.798 99.834c-.113-.113-.282-.113-.452-.113-.281 0-.507.113-.676.395-.169.282-.282.62-.282 1.015v2.03h-.62v-3.947h.62v.789c.113-.282.225-.507.395-.676.169-.17.394-.226.62-.226.169 0 .282 0 .395.056v.677zM328.519 101.357h-2.763c0 .451.113.789.338 1.015.226.225.564.338.959.338.451 0 .846-.169 1.24-.451v.62a2.4 2.4 0 01-1.353.395c-.564 0-1.015-.169-1.297-.564-.338-.338-.451-.846-.451-1.523 0-.62.169-1.127.507-1.522.339-.395.79-.564 1.297-.564.508 0 .903.17 1.184.508.282.338.452.789.452 1.409v.339h-.113zm-.62-.564c0-.339-.113-.677-.282-.846-.17-.226-.395-.282-.733-.282-.282 0-.564.113-.734.338-.169.226-.338.508-.394.846h2.143v-.056zM332.297 103.161h-.621v-.62c-.282.451-.676.733-1.24.733-.395 0-.677-.113-.902-.339a1.144 1.144 0 01-.339-.845c0-.733.451-1.184 1.297-1.297l1.184-.169c0-.677-.282-1.015-.789-1.015-.451 0-.902.169-1.297.507v-.62c.395-.226.846-.395 1.353-.395.903 0 1.41.508 1.41 1.466v2.594h-.056zm-.621-2.03l-.958.113c-.282.056-.508.113-.677.225-.169.113-.225.282-.225.564 0 .169.056.339.225.451.113.113.338.17.564.17.338 0 .564-.113.789-.339.226-.225.282-.507.282-.846v-.338zM339.119 103.161h-.621v-2.255c0-.452-.056-.734-.225-.96-.113-.168-.339-.281-.677-.281-.282 0-.507.113-.677.395a1.56 1.56 0 00-.282.902v2.255h-.62v-2.368c0-.789-.282-1.184-.902-1.184a.806.806 0 00-.677.338c-.169.226-.282.508-.282.903v2.255h-.62v-3.947h.62v.62c.282-.451.677-.733 1.241-.733.282 0 .507.056.733.226.226.169.338.338.395.564.282-.564.733-.79 1.297-.79.845 0 1.297.564 1.297 1.635v2.425zM340.641 98.199a.434.434 0 01-.282-.113.432.432 0 01-.112-.282c0-.113.056-.226.112-.282a.434.434 0 01.282-.113.43.43 0 01.282.113c.057.056.113.17.113.282a.427.427 0 01-.113.282c-.113.056-.169.113-.282.113zm.282 4.962h-.62v-3.947h.62v3.947zM345.492 103.161h-.621v-2.255c0-.846-.281-1.24-.902-1.24-.338 0-.564.112-.789.338-.226.225-.339.563-.339.902v2.255h-.62v-3.947h.62v.677c.282-.508.734-.733 1.297-.733.452 0 .79.112 1.015.394.226.282.339.677.339 1.185v2.424zM350.059 102.823c0 1.466-.677 2.199-2.086 2.199-.508 0-.903-.113-1.297-.282v-.62c.451.225.846.395 1.297.395.958 0 1.466-.508 1.466-1.523v-.451c-.282.508-.733.733-1.354.733-.507 0-.902-.169-1.184-.507-.282-.339-.451-.846-.451-1.41 0-.677.169-1.184.508-1.579.338-.395.789-.62 1.297-.62.507 0 .902.225 1.184.62v-.564h.62v3.609zm-.62-1.466v-.564c0-.338-.113-.564-.339-.789-.225-.226-.451-.339-.789-.339-.395 0-.677.17-.902.451-.226.282-.339.677-.339 1.184 0 .452.113.79.339 1.072.225.282.507.395.846.395.338 0 .62-.113.845-.395.226-.282.339-.62.339-1.015zM356.318 103.161h-.62v-.62c-.282.451-.677.733-1.241.733-.394 0-.676-.113-.902-.339a1.147 1.147 0 01-.338-.845c0-.733.451-1.184 1.297-1.297l1.184-.169c0-.677-.282-1.015-.79-1.015-.451 0-.902.169-1.297.507v-.62c.395-.226.846-.395 1.354-.395.902 0 1.41.508 1.41 1.466v2.594h-.057zm-.62-2.03l-.959.113c-.282.056-.507.113-.676.225-.17.113-.226.282-.226.564a.51.51 0 00.226.451c.112.113.338.17.564.17.338 0 .563-.113.789-.339.225-.225.282-.507.282-.846v-.338zM360.772 103.161h-.62v-2.255c0-.846-.282-1.24-.903-1.24-.338 0-.563.112-.789.338-.225.225-.338.563-.338.902v2.255h-.621v-3.947h.621v.677c.282-.508.733-.733 1.297-.733.451 0 .789.112 1.015.394.225.282.338.677.338 1.185v2.424zM365.339 103.161h-.62v-.677c-.282.507-.733.789-1.353.789-.508 0-.902-.169-1.184-.507-.282-.339-.452-.846-.452-1.466 0-.677.17-1.184.508-1.58.338-.394.789-.563 1.297-.563.564 0 .958.225 1.184.62v-2.424h.62v5.808zm-.62-1.805v-.564c0-.338-.113-.564-.338-.789-.226-.226-.451-.338-.79-.338-.394 0-.676.169-.902.451-.225.282-.338.676-.338 1.184 0 .451.113.789.338 1.071.226.282.508.395.846.395.338 0 .62-.113.846-.395.225-.282.338-.62.338-1.015zM373.122 103.161h-.677l-.563-1.522h-2.369l-.564 1.522h-.733l2.143-5.526h.677l2.086 5.526zm-1.466-2.142l-.846-2.369c0-.056-.056-.225-.113-.395 0 .17-.056.282-.112.395l-.846 2.369h1.917zM374.531 102.597v2.368h-.62v-5.751h.62v.677c.339-.508.79-.79 1.354-.79.507 0 .902.17 1.184.508.282.338.451.845.451 1.409 0 .677-.169 1.184-.508 1.579-.338.395-.733.62-1.296.62-.508.057-.903-.169-1.185-.62zm0-1.579v.564c0 .339.113.62.339.846a1.11 1.11 0 001.691-.113c.226-.282.339-.676.339-1.24 0-.451-.113-.79-.282-1.015-.169-.226-.451-.395-.846-.395-.395 0-.677.113-.902.395-.226.225-.339.564-.339.958zM381.24 103.161h-.62v-.62c-.282.451-.677.733-1.241.733-.394 0-.676-.113-.902-.339a1.143 1.143 0 01-.338-.845c0-.733.451-1.184 1.297-1.297l1.184-.169c0-.677-.282-1.015-.79-1.015-.451 0-.902.169-1.297.507v-.62c.395-.226.846-.395 1.354-.395.902 0 1.409.508 1.409 1.466v2.594h-.056zm-.62-2.03l-.959.113c-.282.056-.507.113-.677.225-.169.113-.225.282-.225.564 0 .169.056.339.225.451.113.113.339.17.564.17.339 0 .564-.113.79-.339.225-.225.282-.507.282-.846v-.338zM385.131 102.992a2.16 2.16 0 01-1.071.282c-.564 0-1.015-.169-1.353-.564-.339-.338-.508-.846-.508-1.41 0-.676.169-1.184.564-1.578.395-.395.846-.564 1.466-.564.339 0 .677.056.902.169v.62c-.282-.225-.62-.282-.958-.282-.395 0-.733.17-1.015.451-.282.282-.395.677-.395 1.128 0 .451.113.846.338 1.071.226.282.564.395.959.395.338 0 .677-.113.959-.338v.62h.112zM389.361 103.162h-.62v-2.256c0-.846-.282-1.24-.903-1.24-.282 0-.564.112-.789.338-.226.226-.338.564-.338.902v2.256h-.621v-5.865h.621v2.538c.282-.508.733-.733 1.297-.733.902 0 1.353.564 1.353 1.635v2.425zM393.702 101.357h-2.763c0 .451.113.789.339 1.015.225.225.564.338.958.338.451 0 .846-.169 1.241-.451v.62c-.338.226-.79.395-1.353.395-.564 0-1.015-.169-1.297-.564-.339-.338-.452-.846-.452-1.523 0-.62.17-1.127.508-1.522.338-.395.789-.564 1.297-.564.507 0 .902.17 1.184.508.282.338.451.789.451 1.409v.339h-.113zm-.62-.564c0-.339-.113-.677-.282-.846-.169-.226-.395-.282-.733-.282-.282 0-.564.113-.733.338-.169.226-.338.508-.395.846h2.143v-.056zM281.378 112.409v-.79c.113.057.169.17.338.226.113.056.226.113.395.169.113.057.282.057.395.113.112.056.282.056.394.056.395 0 .677-.056.903-.225.169-.169.282-.339.282-.62 0-.17-.057-.282-.113-.395a.678.678 0 00-.282-.282c-.113-.113-.226-.169-.395-.282-.169-.056-.338-.169-.507-.282-.17-.113-.395-.169-.564-.282-.169-.113-.339-.226-.451-.338a1.697 1.697 0 01-.282-.395 1.651 1.651 0 01-.113-.564c0-.225.056-.451.169-.677.113-.169.282-.338.451-.451.169-.112.395-.225.62-.282.226-.056.452-.112.677-.112.564 0 .959.056 1.184.169v.733c-.338-.226-.733-.339-1.24-.339-.169 0-.282 0-.451.057-.17.056-.282.056-.395.169-.113.113-.226.169-.282.282-.056.113-.113.226-.113.395s0 .282.057.338c.056.113.112.169.225.282a.917.917 0 00.395.226c.169.056.338.169.507.281.226.113.395.226.564.282.169.057.339.226.451.339.113.113.226.282.339.451.056.169.112.338.112.564 0 .282-.056.507-.169.676-.112.17-.225.339-.451.452a2.096 2.096 0 01-.62.281c-.226.057-.508.057-.733.057h-.338c-.113 0-.282-.057-.395-.057-.113 0-.282-.056-.395-.112 0 0-.113-.057-.169-.113zM287.299 112.578c-.17.057-.339.113-.564.113-.677 0-1.015-.395-1.015-1.184v-2.312h-.677v-.564h.677v-.959l.62-.225v1.184h1.015v.564h-1.015v2.199c0 .282.056.451.113.564.056.113.225.169.451.169a.81.81 0 00.395-.113v.564zM289.722 112.748c-.564 0-1.071-.169-1.41-.564-.338-.395-.507-.846-.507-1.466 0-.677.169-1.184.564-1.579.394-.395.845-.564 1.466-.564.564 0 1.071.169 1.353.564.338.338.507.846.507 1.523 0 .62-.169 1.127-.507 1.522-.338.338-.846.564-1.466.564zm.056-3.609c-.394 0-.733.113-.958.395-.226.282-.339.676-.339 1.128 0 .451.113.845.339 1.127.225.282.564.395.958.395.395 0 .733-.113.959-.395.225-.282.338-.62.338-1.127 0-.508-.113-.846-.338-1.128-.226-.282-.564-.395-.959-.395zM294.797 109.308c-.113-.113-.282-.113-.451-.113-.282 0-.508.113-.677.395-.169.282-.282.62-.282 1.015v2.03h-.62v-3.947h.62v.789c.113-.282.226-.507.395-.676.169-.169.395-.226.62-.226.17 0 .282 0 .395.057v.676zM301.057 112.635h-.621v-2.255c0-.451-.056-.733-.225-.959-.113-.169-.339-.282-.677-.282-.282 0-.507.113-.677.395a1.56 1.56 0 00-.282.902v2.256h-.62v-2.369c0-.789-.282-1.184-.902-1.184a.807.807 0 00-.677.338c-.169.226-.282.508-.282.903v2.255h-.62v-3.947h.62v.62c.282-.451.677-.733 1.241-.733.282 0 .507.057.733.226.226.169.338.338.395.564.282-.564.733-.79 1.297-.79.845 0 1.297.564 1.297 1.635v2.425zM306.357 107.333a1.052 1.052 0 00-.395-.112c-.451 0-.676.282-.676.845v.621h.902v.564h-.902v3.383h-.621v-3.383h-.676v-.564h.676v-.621c0-.394.113-.733.339-.958.225-.226.564-.338.902-.338.169 0 .338 0 .451.056v.507zM308.556 112.748c-.564 0-1.071-.169-1.41-.564-.338-.395-.507-.846-.507-1.466 0-.677.169-1.184.564-1.579.394-.395.845-.564 1.466-.564.564 0 1.071.169 1.353.564.338.338.507.846.507 1.523 0 .62-.169 1.127-.507 1.522a2.256 2.256 0 01-1.466.564zm0-3.609c-.395 0-.733.113-.959.395-.225.282-.338.676-.338 1.128 0 .451.113.845.338 1.127.226.282.564.395.959.395s.733-.113.958-.395c.226-.282.339-.62.339-1.127 0-.508-.113-.846-.339-1.128-.225-.282-.507-.395-.958-.395zM313.576 109.308c-.113-.113-.282-.113-.451-.113-.282 0-.508.113-.677.395-.169.282-.282.62-.282 1.015v2.03h-.62v-3.947h.62v.789c.113-.282.226-.507.395-.676.169-.169.395-.226.62-.226.169 0 .282 0 .395.057v.676zM316.168 112.465v-.677c.338.282.733.395 1.128.395.564 0 .846-.169.846-.564 0-.113 0-.169-.057-.282l-.169-.169c-.056-.057-.169-.113-.282-.169-.113-.057-.225-.113-.338-.113-.169-.056-.339-.113-.451-.226-.113-.056-.226-.169-.339-.225-.112-.113-.169-.169-.225-.282-.057-.113-.057-.226-.057-.395s.057-.338.113-.507c.113-.17.226-.282.338-.339.17-.112.282-.169.508-.225.169-.057.395-.057.564-.057.338 0 .62.057.902.17v.62a1.948 1.948 0 00-1.015-.282c-.113 0-.225 0-.338.056-.113 0-.169.057-.226.113l-.169.169c-.056.057-.056.169-.056.226 0 .113 0 .169.056.282l.169.169c.057.056.169.113.282.169l.338.169c.17.057.339.113.452.226.112.056.281.169.338.225.113.113.169.169.225.282.057.113.057.226.057.395s-.057.338-.113.507c-.113.17-.225.282-.338.339-.113.056-.282.169-.508.225-.225.057-.394.057-.564.057-.394 0-.789-.113-1.071-.282zM321.583 112.578a1.656 1.656 0 01-.564.113c-.677 0-1.015-.395-1.015-1.184v-2.312h-.677v-.564h.677v-.959l.62-.225v1.184h1.015v.564h-1.015v2.199c0 .282.056.451.113.564.056.113.225.169.451.169a.81.81 0 00.395-.113v.564zM324.515 109.308c-.113-.113-.282-.113-.451-.113-.282 0-.508.113-.677.395-.169.282-.282.62-.282 1.015v2.03h-.62v-3.947h.62v.789c.113-.282.226-.507.395-.676.169-.169.395-.226.62-.226.169 0 .282 0 .395.057v.676zM328.236 110.831h-2.763c0 .451.113.789.338 1.015.226.225.564.338.959.338.451 0 .846-.169 1.241-.451v.62c-.339.226-.79.395-1.354.395-.564 0-1.015-.169-1.297-.564-.338-.338-.451-.846-.451-1.522 0-.621.169-1.128.508-1.523.338-.395.789-.564 1.297-.564.507 0 .902.169 1.184.508.282.338.451.789.451 1.409v.339h-.113zm-.62-.564c0-.338-.113-.677-.282-.846-.169-.226-.395-.282-.733-.282-.282 0-.564.113-.733.338-.169.226-.339.508-.395.846h2.143v-.056zM332.014 112.635h-.62v-.62c-.282.451-.677.733-1.241.733-.395 0-.677-.113-.902-.338a1.147 1.147 0 01-.338-.846c0-.733.451-1.184 1.297-1.297l1.184-.169c0-.677-.282-1.015-.79-1.015-.451 0-.902.169-1.297.507v-.62c.395-.226.846-.395 1.354-.395.902 0 1.409.508 1.409 1.466v2.594h-.056zm-.62-2.03l-.959.113c-.282.056-.507.113-.677.226-.169.112-.225.281-.225.563 0 .17.056.339.225.452.113.112.339.169.564.169.339 0 .564-.113.79-.339.225-.225.282-.507.282-.845v-.339zM338.836 112.635h-.62v-2.255c0-.451-.056-.733-.225-.959-.113-.169-.339-.282-.677-.282-.282 0-.508.113-.677.395a1.56 1.56 0 00-.282.902v2.256h-.62v-2.369c0-.789-.282-1.184-.902-1.184a.805.805 0 00-.677.338c-.169.226-.282.508-.282.903v2.255h-.62v-3.947h.62v.62c.282-.451.677-.733 1.241-.733.282 0 .507.057.733.226.225.169.338.338.394.564.282-.564.734-.79 1.297-.79.846 0 1.297.564 1.297 1.635v2.425zM342.841 112.071v2.369h-.62v-5.752h.62v.677c.339-.508.79-.79 1.354-.79.507 0 .902.169 1.184.508.282.338.451.846.451 1.409 0 .677-.169 1.185-.507 1.579-.339.395-.733.621-1.297.621-.508.056-.903-.17-1.185-.621zm0-1.579v.564c0 .339.113.621.339.846a1.11 1.11 0 001.691-.113c.226-.282.339-.676.339-1.24 0-.451-.113-.79-.282-1.015-.169-.226-.451-.395-.846-.395-.395 0-.677.113-.902.395-.226.225-.339.564-.339.958zM348.874 109.308c-.113-.113-.282-.113-.451-.113-.282 0-.508.113-.677.395-.169.282-.282.62-.282 1.015v2.03h-.62v-3.947h.62v.789c.113-.282.226-.507.395-.676.169-.169.394-.226.62-.226.169 0 .282 0 .395.057v.676zM351.131 112.748c-.564 0-1.072-.169-1.41-.564-.338-.395-.508-.846-.508-1.466 0-.677.17-1.184.564-1.579.395-.395.846-.564 1.466-.564.564 0 1.072.169 1.354.564.338.338.507.846.507 1.523 0 .62-.169 1.127-.507 1.522a2.258 2.258 0 01-1.466.564zm.056-3.609c-.395 0-.733.113-.959.395-.225.282-.338.676-.338 1.128 0 .451.113.845.338 1.127.226.282.564.395.959.395s.733-.113.959-.395c.225-.282.338-.62.338-1.127 0-.508-.113-.846-.338-1.128a1.237 1.237 0 00-.959-.395zM356.769 112.465a2.162 2.162 0 01-1.071.282c-.564 0-1.015-.169-1.354-.564-.338-.338-.507-.846-.507-1.41 0-.677.169-1.184.564-1.579.395-.394.846-.564 1.466-.564.338 0 .677.057.902.17v.62c-.282-.226-.62-.282-.958-.282-.395 0-.734.169-1.015.451-.282.282-.395.677-.395 1.128 0 .451.113.846.338 1.071.226.282.564.395.959.395.338 0 .676-.113.958-.338v.62h.113zM360.941 110.831h-2.763c0 .451.112.789.338 1.015.226.225.564.338.959.338.451 0 .845-.169 1.24-.451v.62a2.4 2.4 0 01-1.353.395c-.564 0-1.015-.169-1.297-.564-.338-.338-.451-.846-.451-1.522 0-.621.169-1.128.507-1.523.339-.395.79-.564 1.297-.564.508 0 .902.169 1.184.508.282.338.451.789.451 1.409v.339h-.112zm-.677-.564c0-.338-.113-.677-.282-.846-.169-.226-.395-.282-.733-.282-.282 0-.564.113-.733.338-.169.226-.338.508-.395.846h2.143v-.056zM361.618 112.465v-.677c.338.282.733.395 1.128.395.564 0 .846-.169.846-.564 0-.113 0-.169-.057-.282l-.169-.169c-.056-.057-.169-.113-.282-.169-.112-.057-.225-.113-.338-.113-.169-.056-.338-.113-.451-.226-.113-.056-.226-.169-.338-.225-.113-.113-.17-.169-.226-.282-.056-.113-.056-.226-.056-.395s.056-.338.112-.507c.113-.17.226-.282.339-.339a1.4 1.4 0 01.507-.225c.169-.057.395-.057.564-.057.338 0 .62.057.902.17v.62a1.948 1.948 0 00-1.015-.282c-.112 0-.225 0-.338.056-.113 0-.169.057-.226.113l-.169.169c-.056.057-.056.169-.056.226 0 .113 0 .169.056.282l.169.169c.057.056.17.113.282.169l.339.169c.169.057.338.113.451.226.113.056.282.169.338.225.113.113.169.169.226.282.056.113.056.226.056.395s-.056.338-.113.507c-.113.17-.225.282-.338.339-.113.056-.282.169-.508.225-.225.057-.394.057-.563.057-.395 0-.734-.113-1.072-.282zM365.001 112.465v-.677c.339.282.734.395 1.128.395.564 0 .846-.169.846-.564 0-.113 0-.169-.056-.282l-.169-.169c-.057-.057-.17-.113-.282-.169-.113-.057-.226-.113-.339-.113-.169-.056-.338-.113-.451-.226-.113-.056-.225-.169-.338-.225-.113-.113-.169-.169-.226-.282-.056-.113-.056-.226-.056-.395s.056-.338.113-.507c.112-.17.225-.282.338-.339a1.4 1.4 0 01.507-.225c.17-.057.395-.057.564-.057.339 0 .621.057.903.17v.62a1.951 1.951 0 00-1.015-.282c-.113 0-.226 0-.339.056-.113 0-.169.057-.225.113l-.169.169c-.057.057-.057.169-.057.226 0 .113 0 .169.057.282l.169.169c.056.056.169.113.282.169l.338.169c.169.057.338.113.451.226.113.056.282.169.338.225.113.113.17.169.226.282.056.113.056.226.056.395s-.056.338-.112.507c-.113.17-.226.282-.339.339-.113.056-.282.169-.507.225-.226.057-.395.057-.564.057a2.01 2.01 0 01-1.072-.282zM368.893 107.672a.427.427 0 01-.282-.113.426.426 0 01-.113-.281c0-.113.056-.226.113-.282a.427.427 0 01.282-.113c.113 0 .225.056.282.113a.431.431 0 01.112.282.43.43 0 01-.112.281.429.429 0 01-.282.113zm.338 4.962h-.62v-3.947h.62v3.947zM373.743 112.634h-.62v-2.256c0-.845-.282-1.24-.902-1.24-.339 0-.564.113-.79.338-.225.226-.338.564-.338.902v2.256h-.62v-3.947h.62v.676c.282-.507.733-.733 1.297-.733.451 0 .789.113 1.015.395.225.282.338.677.338 1.184v2.425zM378.308 112.296c0 1.466-.677 2.199-2.086 2.199-.508 0-.902-.113-1.297-.282v-.62c.451.225.846.394 1.297.394.958 0 1.466-.507 1.466-1.522v-.451c-.282.507-.733.733-1.354.733-.507 0-.902-.169-1.184-.508-.282-.338-.451-.846-.451-1.409 0-.677.169-1.185.508-1.579.338-.395.789-.621 1.297-.621.507 0 .902.226 1.184.621v-.564h.62v3.609zm-.62-1.466v-.564c0-.339-.113-.564-.339-.79-.225-.225-.451-.338-.789-.338-.395 0-.677.169-.902.451-.226.282-.339.677-.339 1.184 0 .451.113.79.339 1.072.225.281.507.394.846.394.338 0 .62-.113.845-.394.226-.282.339-.621.339-1.015zM443.044 103.161h-.733l-.564-1.522h-2.369l-.563 1.522h-.733l2.142-5.526h.677l2.143 5.526zm-1.523-2.142l-.846-2.369c0-.056-.056-.225-.112-.395 0 .17-.057.282-.113.395l-.846 2.369h1.917zM444.395 102.597v2.368h-.62v-5.751h.62v.677c.338-.508.79-.79 1.353-.79.508 0 .903.17 1.185.508.282.338.451.845.451 1.409 0 .677-.169 1.184-.508 1.579-.338.395-.733.62-1.297.62-.507.057-.902-.169-1.184-.62zm0-1.579v.564c0 .339.113.62.339.846a1.11 1.11 0 001.691-.113c.226-.282.338-.676.338-1.24 0-.451-.112-.79-.281-1.015-.17-.226-.452-.395-.846-.395-.395 0-.677.113-.902.395-.226.225-.339.564-.339.958zM451.106 103.161h-.62v-.62c-.282.451-.677.733-1.241.733-.394 0-.676-.113-.902-.339a1.147 1.147 0 01-.338-.845c0-.733.451-1.184 1.297-1.297l1.184-.169c0-.677-.282-1.015-.789-1.015-.452 0-.903.169-1.297.507v-.62c.394-.226.845-.395 1.353-.395.902 0 1.41.508 1.41 1.466v2.594h-.057zm-.62-2.03l-.959.113c-.282.056-.507.113-.676.225-.169.113-.226.282-.226.564 0 .169.057.339.226.451.112.113.338.17.564.17.338 0 .563-.113.789-.339.226-.225.282-.507.282-.846v-.338zM454.998 102.992a2.163 2.163 0 01-1.072.282c-.564 0-1.015-.169-1.353-.564-.338-.338-.508-.846-.508-1.41 0-.676.17-1.184.564-1.578.395-.395.846-.564 1.466-.564.339 0 .677.056.903.169v.62c-.282-.225-.621-.282-.959-.282-.395 0-.733.17-1.015.451-.282.282-.395.677-.395 1.128 0 .451.113.846.339 1.071.225.282.564.395.958.395.339 0 .677-.113.959-.338v.62h.113zM459.226 103.162h-.62v-2.256c0-.846-.282-1.24-.902-1.24-.282 0-.564.112-.79.338-.225.226-.338.564-.338.902v2.256h-.62v-5.865h.62v2.538c.282-.508.733-.733 1.297-.733.902 0 1.353.564 1.353 1.635v2.425zM463.626 101.357h-2.763c0 .451.113.789.338 1.015.226.225.564.338.959.338.451 0 .845-.169 1.24-.451v.62a2.4 2.4 0 01-1.353.395c-.564 0-1.015-.169-1.297-.564-.338-.338-.451-.846-.451-1.523 0-.62.169-1.127.507-1.522.339-.395.79-.564 1.297-.564.508 0 .902.17 1.184.508.282.338.452.789.452 1.409v.339h-.113zm-.677-.564c0-.339-.113-.677-.282-.846-.169-.226-.395-.282-.733-.282-.282 0-.564.113-.733.338-.169.226-.338.508-.395.846h2.143v-.056zM470.956 103.161h-.62v-2.537h-2.876v2.537h-.62v-5.526h.62v2.425h2.876v-2.425h.62v5.526zM472.42 103.161v-5.526h1.579c.451 0 .846.113 1.128.339.282.225.394.563.394.902 0 .338-.112.564-.282.79a1.538 1.538 0 01-.676.507c.394.056.676.169.902.394.225.226.338.564.338.903 0 .451-.169.845-.507 1.127-.339.282-.79.452-1.297.452h-1.579v.112zm.62-4.962v1.805h.677c.338 0 .62-.113.846-.282.225-.17.282-.395.282-.733 0-.564-.339-.79-1.072-.79h-.733zm0 2.368v1.974h.902c.395 0 .677-.113.903-.282.225-.169.338-.451.338-.733 0-.677-.451-.959-1.353-.959h-.79zM479.695 103.161h-.62v-.62c-.282.451-.677.733-1.241.733-.394 0-.676-.113-.902-.339a1.147 1.147 0 01-.338-.845c0-.733.451-1.184 1.297-1.297l1.184-.169c0-.677-.282-1.015-.79-1.015-.451 0-.902.169-1.297.507v-.62c.395-.226.846-.395 1.354-.395.902 0 1.409.508 1.409 1.466v2.594h-.056zm-.62-2.03l-.959.113c-.282.056-.507.113-.676.225-.17.113-.226.282-.226.564a.51.51 0 00.226.451c.112.113.338.17.563.17.339 0 .564-.113.79-.339.225-.225.282-.507.282-.846v-.338zM480.654 102.992v-.677c.339.282.733.395 1.128.395.564 0 .846-.169.846-.564 0-.112 0-.169-.057-.282l-.169-.169a1.22 1.22 0 00-.282-.169c-.112-.056-.225-.113-.338-.113-.169-.056-.338-.113-.451-.225-.113-.057-.226-.169-.338-.226-.113-.113-.17-.169-.226-.282-.056-.113-.056-.225-.056-.395 0-.169.056-.338.112-.507.113-.17.226-.282.339-.338.169-.113.282-.17.507-.226.169-.056.395-.056.564-.056.338 0 .62.056.902.169v.62a1.947 1.947 0 00-1.015-.282c-.112 0-.225 0-.338.057-.113 0-.169.056-.226.112l-.169.17c-.056.056-.056.169-.056.225 0 .113 0 .169.056.282l.169.169c.057.057.17.113.282.169l.339.17c.169.056.338.112.451.225.113.056.282.169.338.226.113.112.169.169.226.282.056.112.056.225.056.394s-.056.339-.113.508c-.112.169-.225.282-.338.338-.113.057-.282.169-.507.226-.226.056-.395.056-.564.056a2.01 2.01 0 01-1.072-.282zM487.422 101.357h-2.763c0 .451.112.789.338 1.015.225.225.564.338.959.338.451 0 .845-.169 1.24-.451v.62a2.4 2.4 0 01-1.353.395c-.564 0-1.015-.169-1.297-.564-.339-.338-.451-.846-.451-1.523 0-.62.169-1.127.507-1.522.339-.395.79-.564 1.297-.564.508 0 .902.17 1.184.508.282.338.451.789.451 1.409v.339h-.112zm-.677-.564c0-.339-.113-.677-.282-.846-.169-.226-.395-.282-.733-.282-.282 0-.564.113-.733.338-.169.226-.338.508-.395.846h2.143v-.056zM493.342 103.161h-.62v-.62c-.282.451-.677.733-1.241.733-.394 0-.676-.113-.902-.339a1.143 1.143 0 01-.338-.845c0-.733.451-1.184 1.297-1.297l1.184-.169c0-.677-.282-1.015-.79-1.015-.451 0-.902.169-1.297.507v-.62c.395-.226.846-.395 1.354-.395.902 0 1.409.508 1.409 1.466v2.594h-.056zm-.62-2.03l-.959.113c-.282.056-.507.113-.676.225-.17.113-.226.282-.226.564a.51.51 0 00.226.451c.112.113.338.17.563.17.339 0 .564-.113.79-.339.225-.225.282-.507.282-.846v-.338zM494.298 102.992v-.677c.339.282.733.395 1.128.395.564 0 .846-.169.846-.564 0-.112 0-.169-.056-.282l-.17-.169a1.22 1.22 0 00-.282-.169c-.112-.056-.225-.113-.338-.113-.169-.056-.338-.113-.451-.225-.113-.057-.226-.169-.338-.226-.113-.113-.169-.169-.226-.282-.056-.113-.056-.225-.056-.395 0-.169.056-.338.113-.507.112-.17.225-.282.338-.338.169-.113.282-.17.507-.226.17-.056.395-.056.564-.056.339 0 .621.056.902.169v.62a1.945 1.945 0 00-1.015-.282c-.112 0-.225 0-.338.057-.113 0-.169.056-.225.112l-.17.17c-.056.056-.056.169-.056.225 0 .113 0 .169.056.282l.17.169c.056.057.169.113.282.169l.338.17c.169.056.338.112.451.225.113.056.282.169.338.226.113.112.169.169.226.282.056.112.056.225.056.394s-.056.339-.113.508c-.112.169-.225.282-.338.338-.113.057-.282.169-.507.226-.226.056-.395.056-.564.056a2.01 2.01 0 01-1.072-.282zM444.904 112.635h-.79l-2.819-4.398-.169-.339c0 .113.056.395.056.733v4.004h-.62v-5.526h.846l2.763 4.342c.113.169.169.282.225.395 0-.17-.056-.452-.056-.79v-3.891h.62v5.47h-.056zM447.948 112.748c-.563 0-1.071-.169-1.409-.564-.339-.395-.508-.846-.508-1.466 0-.677.169-1.184.564-1.579.395-.395.846-.564 1.466-.564.564 0 1.072.169 1.354.564.338.338.507.846.507 1.523 0 .62-.169 1.127-.507 1.522a2.259 2.259 0 01-1.467.564zm.057-3.609c-.395 0-.733.113-.959.395-.225.282-.338.676-.338 1.128 0 .451.113.845.338 1.127.226.282.564.395.959.395s.733-.113.958-.395c.226-.282.339-.62.339-1.127 0-.508-.113-.846-.339-1.128-.281-.282-.563-.395-.958-.395zM450.768 112.409v-.79c.113.057.169.17.338.226.113.056.226.113.395.169.113.057.282.057.395.113.113.056.282.056.395.056.394 0 .676-.056.902-.225.169-.169.282-.339.282-.62 0-.17-.057-.282-.113-.395a.673.673 0 00-.282-.282c-.113-.113-.226-.169-.395-.282-.169-.056-.338-.169-.507-.282-.169-.113-.395-.169-.564-.282-.169-.113-.338-.226-.451-.338a1.697 1.697 0 01-.282-.395 1.651 1.651 0 01-.113-.564c0-.225.056-.451.169-.677.113-.169.282-.338.451-.451.169-.112.395-.225.621-.282.225-.056.451-.112.676-.112.564 0 .959.056 1.184.169v.733c-.338-.226-.733-.339-1.24-.339-.169 0-.282 0-.451.057-.169.056-.282.056-.395.169-.113.113-.226.169-.282.282-.056.113-.113.226-.113.395s0 .282.057.338c.056.113.112.169.225.282a.917.917 0 00.395.226c.169.056.338.169.507.281.226.113.395.226.564.282.17.057.339.226.451.339.113.113.226.282.339.451.056.169.113.338.113.564 0 .282-.057.507-.17.676-.112.17-.225.339-.451.452a2.084 2.084 0 01-.62.281c-.226.057-.507.057-.733.057h-.338c-.113 0-.282-.057-.395-.057-.113 0-.282-.056-.395-.112 0 0-.113-.057-.169-.113zM457.421 112.747c-.789 0-1.41-.282-1.861-.789-.451-.508-.733-1.184-.733-2.03 0-.902.226-1.579.733-2.143.508-.507 1.128-.789 1.974-.789.733 0 1.353.282 1.861.789.507.508.676 1.184.676 2.03 0 .902-.225 1.635-.733 2.143l-.338.338 1.579 1.128h-1.184l-1.015-.79c-.339.057-.621.113-.959.113zm.056-5.131c-.563 0-1.071.225-1.409.62-.339.395-.564.959-.564 1.635 0 .677.169 1.241.507 1.636.339.394.79.62 1.41.62.62 0 1.071-.226 1.41-.62.338-.395.507-.959.507-1.636 0-.733-.169-1.297-.507-1.691-.282-.395-.79-.564-1.354-.564zM464.02 112.635h-2.876v-5.526h.62v4.962h2.199v.564h.057zM470.334 112.635h-.62v-.677c-.282.508-.733.789-1.353.789-.508 0-.902-.169-1.184-.507-.282-.338-.451-.846-.451-1.466 0-.677.169-1.184.507-1.579.338-.395.79-.564 1.297-.564.564 0 .959.226 1.184.62v-2.424h.62v5.808zm-.676-1.805v-.564c0-.338-.113-.564-.339-.789-.225-.226-.451-.338-.789-.338-.395 0-.677.169-.902.451-.226.282-.339.676-.339 1.184 0 .451.113.789.339 1.071.225.282.507.395.846.395.338 0 .62-.113.845-.395.226-.282.339-.62.339-1.015zM474.395 112.635h-.62v-.62c-.282.451-.677.733-1.241.733-.394 0-.676-.113-.902-.338a1.151 1.151 0 01-.338-.846c0-.733.451-1.184 1.297-1.297l1.184-.169c0-.677-.282-1.015-.789-1.015-.452 0-.903.169-1.297.507v-.62c.394-.226.846-.395 1.353-.395.902 0 1.41.508 1.41 1.466v2.594h-.057zm-.62-2.03l-.959.113c-.282.056-.507.113-.676.226-.169.112-.226.281-.226.563 0 .17.057.339.226.452.113.112.338.169.564.169.338 0 .564-.113.789-.339.226-.225.282-.507.282-.845v-.339zM477.44 112.578c-.17.057-.339.113-.564.113-.677 0-1.015-.395-1.015-1.184v-2.312h-.677v-.564h.677v-.959l.62-.225v1.184h1.015v.564h-1.015v2.199c0 .282.056.451.113.564.056.113.225.169.451.169a.81.81 0 00.395-.113v.564zM481.104 112.635h-.62v-.62c-.282.451-.677.733-1.241.733-.394 0-.676-.113-.902-.338a1.151 1.151 0 01-.338-.846c0-.733.451-1.184 1.297-1.297l1.184-.169c0-.677-.282-1.015-.789-1.015-.452 0-.903.169-1.297.507v-.62c.394-.226.845-.395 1.353-.395.902 0 1.41.508 1.41 1.466v2.594h-.057zm-.62-2.03l-.959.113c-.282.056-.507.113-.676.226-.169.112-.226.281-.226.563 0 .17.057.339.226.452.113.112.338.169.564.169.338 0 .564-.113.789-.339.226-.225.282-.507.282-.845v-.339zM482.965 112.07v.564h-.62v-5.864h.62v2.593c.339-.507.79-.789 1.354-.789.507 0 .902.169 1.184.507.282.339.451.846.451 1.41 0 .677-.169 1.184-.507 1.579-.339.395-.733.62-1.297.62-.564.057-.959-.169-1.185-.62zm-.056-1.579v.564c0 .338.113.62.338.846.226.225.508.338.79.338.395 0 .677-.169.902-.451.226-.282.338-.677.338-1.24 0-.452-.112-.79-.282-1.015-.169-.226-.451-.395-.845-.395-.395 0-.677.113-.903.395-.225.225-.338.563-.338.958zM489.677 112.635h-.621v-.62c-.282.451-.676.733-1.24.733-.395 0-.677-.113-.902-.338a1.148 1.148 0 01-.339-.846c0-.733.451-1.184 1.297-1.297l1.184-.169c0-.677-.282-1.015-.789-1.015-.451 0-.902.169-1.297.507v-.62c.395-.226.846-.395 1.353-.395.902 0 1.41.508 1.41 1.466v2.594h-.056zm-.621-2.03l-.958.113c-.282.056-.508.113-.677.226-.169.112-.226.281-.226.563 0 .17.057.339.226.452.113.112.338.169.564.169.338 0 .564-.113.789-.339.226-.225.282-.507.282-.845v-.339zM490.634 112.465v-.677c.338.282.733.395 1.128.395.563 0 .845-.169.845-.564 0-.113 0-.169-.056-.282l-.169-.169a1.207 1.207 0 00-.282-.169c-.113-.057-.226-.113-.338-.113-.17-.056-.339-.113-.452-.226-.112-.056-.225-.169-.338-.225-.113-.113-.169-.169-.225-.282-.057-.113-.057-.226-.057-.395s.057-.338.113-.507c.113-.17.226-.282.338-.339.169-.112.282-.169.508-.225.169-.057.395-.057.564-.057.338 0 .62.057.902.17v.62a1.948 1.948 0 00-1.015-.282c-.113 0-.226 0-.338.056-.113 0-.17.057-.226.113l-.169.169c-.057.057-.057.169-.057.226 0 .113 0 .169.057.282l.169.169c.056.056.169.113.282.169l.338.169c.169.057.339.113.451.226.113.056.282.169.339.225.113.113.169.169.225.282.057.113.057.226.057.395s-.057.338-.113.507c-.113.17-.226.282-.338.339-.113.056-.282.169-.508.225-.225.057-.395.057-.564.057-.451 0-.789-.113-1.071-.282zM497.345 110.831h-2.764c0 .451.113.789.339 1.015.225.225.564.338.958.338.452 0 .846-.169 1.241-.451v.62a2.4 2.4 0 01-1.353.395c-.564 0-1.015-.169-1.297-.564-.339-.338-.451-.846-.451-1.522 0-.621.169-1.128.507-1.523.338-.395.79-.564 1.297-.564.508 0 .902.169 1.184.508.282.338.451.789.451 1.409v.339h-.112zm-.621-.564c0-.338-.113-.677-.282-.846-.169-.226-.394-.282-.733-.282-.282 0-.564.113-.733.338-.169.226-.338.508-.395.846h2.143v-.056z" fill="#5B5B5B"/>
    <path d="M170.236 41.867a1.443 1.443 0 00-1.071-.451c-.395 0-.79.169-1.015.45-.282.283-.451.621-.451 1.072 0 .395.169.79.451 1.072.282.282.62.45 1.015.45.394 0 .789-.168 1.071-.45.282-.282.451-.62.451-1.072 0-.45-.169-.79-.451-1.071zm-1.015 20.582c.395 0 .79-.17 1.071-.451.282-.282.452-.62.452-1.072 0-.395-.17-.79-.452-1.071a1.441 1.441 0 00-1.071-.451c-.395 0-.789.169-1.015.45-.282.283-.451.621-.451 1.072 0 .395.169.79.451 1.072.226.282.564.45 1.015.45zm8.064-4.568c.394-.113.676-.338.902-.676v-.057c.169-.338.225-.733.113-1.071-.113-.395-.339-.733-.677-.902a1.55 1.55 0 00-1.128-.113c-.395.113-.676.338-.902.676-.226.339-.226.79-.169 1.128.113.395.338.733.676.902.395.226.79.226 1.185.113zm-6.541-7.5a2.084 2.084 0 00-1.523-.62 2.08 2.08 0 00-1.522.62 2.178 2.178 0 00-.621 1.523c0 .62.226 1.128.621 1.522.394.395.902.62 1.522.62s1.128-.225 1.523-.62a2.182 2.182 0 000-3.044zm-.846-2.537c.846.17 1.635.564 2.199 1.184.113.113.169.226.282.282l1.466-.846c-.226-.62-.226-1.24-.056-1.86.225-.79.733-1.523 1.466-1.974.733-.451 1.635-.508 2.368-.338.789.225 1.522.733 1.917 1.522.451.79.508 1.635.339 2.481-.226.79-.734 1.523-1.467 1.974l-.225.113a3.32 3.32 0 01-2.199.225 3.347 3.347 0 01-1.523-.959l-1.466.846c.169.451.282.959.282 1.466a4.24 4.24 0 01-.282 1.466l1.466.846c.395-.507.959-.79 1.523-.958.789-.226 1.635-.113 2.424.338h.057c.733.451 1.24 1.184 1.466 1.974.225.79.113 1.691-.338 2.48v.057a3.306 3.306 0 01-1.918 1.466c-.789.226-1.635.113-2.424-.338a3.006 3.006 0 01-1.466-1.974c-.17-.62-.17-1.24.056-1.86l-1.466-.846c-.113.112-.169.225-.282.282-.564.62-1.353 1.015-2.199 1.184v1.748c.62.113 1.184.45 1.579.902.564.564.958 1.41.958 2.312 0 .902-.338 1.692-.958 2.312-.564.564-1.354.959-2.256.959-.902 0-1.692-.339-2.255-.96a3.33 3.33 0 01-.959-2.311c0-.902.338-1.692.959-2.312a3.413 3.413 0 011.578-.902v-1.748c-.845-.113-1.635-.564-2.199-1.184-.733-.733-1.184-1.805-1.184-2.933 0-1.127.451-2.199 1.184-2.932.564-.62 1.354-1.015 2.199-1.184v-1.748a2.79 2.79 0 01-1.578-.902 3.33 3.33 0 01-.959-2.312c0-.902.338-1.692.959-2.312a3.191 3.191 0 012.255-.959c.902 0 1.692.339 2.256.959.564.564.958 1.41.958 2.312 0 .902-.338 1.692-.958 2.312a3.416 3.416 0 01-1.579.902v1.748zm8.289-1.184c-.226-.395-.564-.62-.902-.677a1.328 1.328 0 00-1.128.17c-.338.225-.62.563-.677.902a1.33 1.33 0 00.169 1.127c.226.339.508.62.903.677.338.113.789.056 1.127-.17.339-.225.564-.563.677-.901.056-.339 0-.733-.169-1.128zM184.727 47.167h1.635V52.3l2.368-2.65h1.974l-2.876 3.1 2.876 3.948h-1.861l-2.481-3.496v3.496h-1.635v-9.53M192.621 53.201c0 .846.62 2.143 2.086 2.143.902 0 1.523-.507 1.861-1.128.169-.282.226-.62.282-.958 0-.339-.056-.677-.169-1.015-.282-.677-.959-1.24-1.917-1.24-1.354 0-2.143 1.07-2.143 2.198 0 0 0-.056 0 0zm5.864 3.44h-1.635v-1.015c-.451.846-1.353 1.24-2.312 1.24-2.199 0-3.496-1.747-3.496-3.721 0-2.2 1.579-3.722 3.496-3.722 1.241 0 2.03.677 2.312 1.24V49.65h1.635v6.992zM200.347 50.945h-.846v-1.297h.846v-.394c0-2.087 1.579-2.2 2.763-2.256v1.297c-.394 0-1.071 0-1.071 1.015v.338h1.071v1.297h-1.071v5.752h-1.635v-5.752M204.238 47.167h1.636V52.3l2.368-2.65h1.973l-2.875 3.1 2.875 3.948h-1.86l-2.481-3.496v3.496h-1.636v-9.53zM212.132 53.201c0 .846.62 2.143 2.086 2.143.903 0 1.523-.507 1.861-1.128.169-.282.226-.62.282-.958 0-.339-.056-.677-.169-1.015-.282-.677-.902-1.24-1.917-1.24-1.41 0-2.143 1.07-2.143 2.198 0 0 0-.056 0 0zm5.865 3.44h-1.636v-1.015c-.451.846-1.353 1.24-2.312 1.24-2.199 0-3.496-1.747-3.496-3.721 0-2.2 1.579-3.722 3.496-3.722 1.241 0 2.03.677 2.312 1.24V49.65h1.636v6.992z" fill="#231F20"/>
    <path d="M274.611 50.833l-5.075-2.932v2.537h-30.337v.846h30.337v2.538l5.075-2.989zM153.149 50.833l-5.075-2.932v2.537h-30.337v.846h30.337v2.538l5.075-2.989zM423.138 50.833l-5.075-2.932v2.537h-30.337v.846h30.337v2.538l5.075-2.989zM542.116 50.833l-5.131-2.932v2.537h-30.281v.846h30.281v2.538l5.131-2.989zM542.116 99.609l-5.131-2.933v2.538h-30.281v.846h30.281v2.537l5.131-2.988z" fill="#959595"/>
    <path d="M453.7 49.649h-.958v1.804h.958V49.65zm0 7.838h-.958v-3.045h-5.978v3.045h-1.804v-7.838h1.804v2.989h6.936v4.849zm0-6.034V49.65h.959v1.804h-.959zm.959 6.034h-.959v-4.85h.959v4.85zM460.353 51.453h-4.906V49.65h4.906v1.804zm0 6.034h-4.906v-4.85h4.906v1.805h-3.101v1.184h3.101v1.86zm3.891-3.947c.677.394.958 1.015.958 1.804 0 .564-.169 1.128-.563 1.466-.395.451-.959.677-1.636.677h-2.706v-1.805h2.706c.282 0 .395-.225.395-.563 0-.395-.113-.564-.395-.564h-2.706V52.75h2.537c.282 0 .395-.225.395-.564 0-.338-.113-.563-.395-.563h-2.537v-1.861h2.537c.677 0 1.241.225 1.635.676.395.395.564.903.564 1.466.057.62-.225 1.241-.789 1.636z" fill="#B02125"/>
    <path d="M447.215 47.618H445.806v1.128h-.846v-2.48c0-.34.113-.565.282-.734.169-.169.451-.338.733-.338h1.184v.846h-1.184c-.113 0-.169.112-.169.282v.507H447.215v.79zm9.417-2.424v.846h-1.409v.733h1.409v.845h-1.409v1.185h-.846v-3.61h2.255zm-7.217 3.552h-.846v-1.128h-1.354v-.845h1.354v-.508c0-.169-.057-.282-.169-.282h-1.185v-.846h1.185c.338 0 .564.113.733.339.169.225.282.507.282.79v2.48zm7.217-1.184v-.846h1.241c.113 0 .169-.113.169-.394 0-.226-.056-.395-.169-.395h-1.241v-.846h1.241c.338 0 .564.113.733.395.169.225.282.507.282.846 0 .338-.113.563-.282.845a.986.986 0 01-.789.395h-1.185zm9.474-2.368v.846h-1.185c-.112 0-.169.112-.169.282v.507h1.354v.846h-1.354v1.128h-.845v-2.481c0-.339.112-.564.281-.79.17-.225.452-.338.733-.338h1.185zm28.758.79h-2.989v.563h2.82v.846h-2.82v.564h2.989v.846h-3.835v-3.61h3.835v.79zm-8.797 2.762h-.846v-1.353h-2.142v1.353h-.846v-3.609h.846v1.354h2.142v-1.354h.846v3.61zm-8.853 0h-2.819c-.339 0-.621-.113-.846-.338a1.146 1.146 0 01-.338-.846v-1.297c0-.338.112-.564.338-.846.225-.225.507-.338.846-.338h2.819v.846h-2.819c-.226 0-.339.113-.339.338v1.297c0 .226.113.339.339.339h2.819v.845zm-11.108-1.128v-.845h1.353v-.508c0-.169-.056-.282-.169-.282h-1.184v-.846h1.184c.338 0 .564.113.733.339.169.225.282.507.282.79v2.48h-.846v-1.184h-1.353v.056z" fill="#868787"/>
    <path d="M470.787 55.006h-2.932v2.48h-1.805V52.13c0-.677.226-1.24.621-1.748.394-.508.958-.733 1.578-.733h2.594v1.804h-2.594c-.225 0-.394.226-.394.564v1.128h2.932v1.86zm4.793 2.48h-1.804v-2.48h-2.933V53.2h2.989v-1.127c0-.395-.113-.564-.395-.564h-2.594v-1.861h2.594c.677 0 1.184.225 1.635.733.395.508.621 1.015.621 1.748l-.113 5.357zM485.729 55.118c0 .676-.226 1.24-.564 1.691-.395.508-.959.734-1.635.734h-6.767v-1.805h6.767c.225 0 .394-.225.394-.564 0-.394-.113-.564-.394-.564h-4.906c-.677 0-1.184-.225-1.636-.733-.394-.507-.62-1.015-.62-1.691 0-.677.226-1.24.62-1.748.395-.508.959-.733 1.579-.733h6.767v1.804h-6.71c-.226 0-.395.226-.395.564 0 .338.113.564.395.564h4.906c.676 0 1.184.225 1.635.733.395.507.564 1.071.564 1.748zM494.864 51.453h-6.541v1.184h6.089v1.805h-6.089v1.184h6.541v1.805h-8.346v-7.782h8.402v1.804h-.056zM453.7 49.592h-.958v1.804h.958v-1.804zm0 7.894h-.958v-3.045h-5.978v3.045h-1.804v-7.894h1.804v2.988h6.936v4.906zm0-6.033v-1.805h.959v1.805h-.959zm.959 6.033h-.959v-4.85h.959v4.85zM460.353 51.453h-4.906V49.65h4.906v1.804zm0 6.034h-4.906v-4.85h4.906v1.805h-3.101v1.184h3.101v1.86zm3.891-3.947c.677.394.958 1.015.958 1.804 0 .564-.169 1.128-.563 1.466-.395.451-.959.677-1.636.677h-2.706v-1.805h2.706c.282 0 .395-.225.395-.563 0-.339-.113-.564-.395-.564h-2.706V52.75h2.537c.282 0 .395-.225.395-.564 0-.338-.113-.563-.395-.563h-2.537v-1.861h2.537c.677 0 1.241.225 1.635.676.395.395.564.903.564 1.466.057.62-.225 1.185-.789 1.636z" fill="#B02125"/>
    <path d="M447.215 47.562H445.806v1.128h-.846v-2.481c0-.339.113-.564.282-.733.169-.17.451-.339.733-.339h1.184v.846h-1.184c-.113 0-.169.113-.169.282v.508H447.215v.79zm9.417-2.425v.846h-1.409v.733h1.409v.846h-1.409v1.184h-.846v-3.609h2.255zm-7.217 3.61h-.846v-1.129h-1.354v-.845h1.354v-.508c0-.169-.057-.282-.169-.282h-1.185v-.846h1.185c.338 0 .564.113.733.339.169.225.282.507.282.79v2.48zm7.217-1.185v-.846h1.241c.113 0 .169-.113.169-.394 0-.226-.056-.395-.169-.395h-1.241v-.846h1.241c.338 0 .564.113.733.395.169.225.282.507.282.846 0 .338-.113.563-.282.845a.986.986 0 01-.789.395h-1.185zm9.474-2.425v.846h-1.185c-.112 0-.169.113-.169.282v.508h1.354v.845h-1.354v1.128h-.845v-2.48c0-.34.112-.565.281-.79.17-.226.452-.339.733-.339h1.185zm28.758.846h-2.989v.564h2.82v.846h-2.82v.564h2.989v.846h-3.835v-3.61h3.835v.79zm-8.797 2.763h-.846v-1.353h-2.142v1.353h-.846v-3.609h.846v1.354h2.142v-1.354h.846v3.61zm-8.853 0h-2.819c-.339 0-.621-.113-.846-.338a1.146 1.146 0 01-.338-.846v-1.297c0-.338.112-.564.338-.846.225-.225.507-.338.846-.338h2.819v.846h-2.819c-.226 0-.339.113-.339.338v1.297c0 .226.113.339.339.339h2.819v.845zm-11.108-1.184v-.846h1.353v-.507c0-.17-.056-.282-.169-.282h-1.184v-.846h1.184c.338 0 .564.113.733.338.169.226.282.508.282.79v2.48h-.846v-1.183h-1.353v.056z" fill="#868787"/>
    <path d="M470.787 54.949h-2.932v2.48h-1.805v-5.356c0-.677.226-1.24.621-1.748.394-.508.958-.733 1.578-.733h2.594v1.804h-2.594c-.225 0-.394.226-.394.564v1.128h2.932v1.86zm4.793 2.537h-1.804v-2.48h-2.933V53.2h2.989v-1.128c0-.395-.113-.564-.395-.564h-2.594v-1.86h2.594c.677 0 1.184.225 1.635.732.395.508.621 1.015.621 1.748l-.113 5.357zM485.729 55.062c0 .677-.226 1.24-.564 1.692-.395.507-.959.733-1.635.733h-6.767v-1.805h6.767c.225 0 .394-.225.394-.563 0-.339-.113-.564-.394-.564h-4.906c-.677 0-1.184-.226-1.636-.733-.394-.508-.62-1.015-.62-1.692s.226-1.24.62-1.748c.395-.508.959-.733 1.579-.733h6.767v1.804h-6.71c-.226 0-.395.226-.395.564 0 .339.113.564.395.564h4.906c.676 0 1.184.226 1.635.733.395.508.564 1.072.564 1.748zM494.864 51.453h-6.541v1.184h6.089v1.804h-6.089v1.184h6.541v1.805h-8.346v-7.838h8.402v1.86h-.056z" fill="#B02125"/>
    <path d="M330.378 161.58h2.482l-2.933-5.132-2.932 5.132h2.538v17.988h-2.538l2.932 5.131 2.933-5.131h-2.482V161.58z" fill="#959595"/>
    <path d="M559.767 42.77a8.107 8.107 0 01-.169-1.636v-15c0-1.747.508-2.311 2.256-2.311h21.709c.339 0 .733 0 1.072.056-.508.902-1.41 1.41-2.2 2.086-.394 0-.789.057-1.184.057-6.09 0-12.236.056-18.326 0-1.015 0-1.241.338-1.241 1.297.057 3.947 0 7.894 0 11.841 0 2.256.001 2.256 2.312 2.369h.113c-.451.394-1.015.676-1.184 1.297-1.071-.113-2.143-.057-3.158-.057z" fill="#B1B3B4"/>
    <path d="M559.766 42.77h26.672c.733 0 1.466.056 2.143 0 .564 0 .676.169.676.676 0 1.184-.62 1.861-1.804 1.861h-28.702c-.564 0-1.015-.113-1.41-.564-.451-.507-.507-1.184-.281-1.748.169-.507.733-.169 1.127-.225.508-.057 1.015 0 1.579 0z" fill="#7A7A7A"/>
    <path d="M586.438 42.77h-23.514c.169-.677.733-.903 1.184-1.298.395 0 .79-.056 1.185-.056 5.977 0 11.954-.056 17.931 0 1.015 0 1.241-.282 1.241-1.297-.057-4.004 0-8.007 0-12.01 0-2.03 0-2.03-1.974-2.2 1.015-.902 1.184-1.128 2.199-2.086 1.241 0 1.917.62 1.974 1.804V41.53c-.057.45-.169.846-.226 1.24z" fill="#9EA1A2"/>
    <path d="M577.134 29.349h-6.992c-1.917 0-1.917 0-1.917 1.917v6.203c0 .733.169 1.015.959.958 1.127-.056 2.311 0 3.439-.056 1.692 0 3.327 0 5.019.056.733 0 .958-.282.958-.958-.056-2.087 0-4.117 0-6.203-.056-2.086.17-1.973-1.466-1.917zm5.357-3.44c1.974.17 1.974.17 1.974 2.2 0 4.003-.057 8.006 0 12.01 0 .959-.169 1.297-1.241 1.297-5.977-.056-11.954 0-17.931 0-.395 0-.79 0-1.184.056h-.113c-2.256-.112-2.256-.112-2.256-2.368 0-3.947.057-7.894 0-11.841 0-.96.169-1.297 1.241-1.297 6.09.056 12.236 0 18.326 0 .395 0 .789-.057 1.184-.057z" fill="#59B2D7"/>
    <path d="M572.623 38.427c-1.127 0-2.312-.056-3.439.057-.79.056-.959-.282-.903-.959.057-2.086 0-4.116 0-6.203 2.651 0 5.245.057 7.895.057-.959 2.424-2.481 4.623-3.553 7.048z" fill="#197FC9"/>
    <path d="M572.624 38.427c1.128-2.424 2.594-4.623 3.552-7.104.057 0 .113-.057.17-.057.733 0 1.466 0 2.199.057v6.202c0 .733-.169 1.015-.959.959-1.635-.113-3.327-.057-4.962-.057z" fill="#0072C4"/>
    <path d="M576.345 31.266c-.056 0-.112.056-.169.056-2.65 0-5.244-.056-7.894-.056-.057-1.917-.057-1.917 1.917-1.917h6.992c-.338.62-.564 1.297-.846 1.917z" fill="#838587"/>
    <path d="M576.345 31.266c.282-.62.507-1.24.789-1.917 1.579-.056 1.41-.17 1.41 1.917h-2.199z" fill="#76797C"/>
    <path d="M573.975 24.78a.385.385 0 01-.394.396.385.385 0 01-.395-.395c0-.226.169-.395.395-.395.225 0 .394.226.394.395z" fill="#B7D332"/>
    <path d="M313.913 78.406h-2.368l-1.861 1.466h2.368l1.861-1.466z" fill="#89917B"/>
    <path d="M309.345 82.073l2.707-2.143h-2.368l-4.624 3.665h7.725l-8.514 6.71h2.368l10.375-8.176h-7.669v-.056z" fill="#FAB330"/>
    <path d="M311.94 73.67c-.056-2.03-1.635-4.23-4.793-4.511-1.015-.113-2.199 0-3.44.169-.62.676-1.24 1.41-1.691 2.03 1.522-.451 3.045-.79 4.172-.733 2.989.113 4.06 1.635 4.117 3.101.056 2.087-1.523 3.327-5.357 3.89h-5.695l4.849-3.834h-2.368l-4.85 3.835-1.861 1.466H305.117c5.131-.225 6.879-2.763 6.823-5.413z" fill="#0BADE5"/>
    <path d="M297.504 73.163a25.96 25.96 0 014.511-1.748c.451-.564 1.015-1.353 1.692-2.03-1.072.17-2.087.451-3.045.733-1.072 1.072-2.425 2.312-3.158 3.045z" fill="#1093DA"/>
    <path d="M312.052 79.872h5.075a4.815 4.815 0 002.706-.846c1.072-.79 1.805-1.973 1.805-3.327 0-2.311-2.086-4.229-4.624-4.229h-.282c.508-1.691.395-4.229-3.214-5.92-5.808-2.707-10.037 1.691-11.503 3.27-.339.338-.79.846-1.297 1.297a21.882 21.882 0 013.045-.733l.451-.451c1.41-1.354 4.455-3.891 8.684-1.917 3.101 1.41 2.312 4.003 1.861 5.075-.113.225-.226.394-.226.45-.056.057-.169.283-.282.508h2.989c1.635.056 2.932 1.24 2.932 2.707 0 1.41-1.241 2.594-2.82 2.706h-3.327l-1.973 1.41z" fill="#0771BE"/>
    <path d="M340.585 71.866h-6.598v1.466h2.538v6.485h1.635v-6.485h2.425v-1.466zM364.606 71.866H363.252l-2.368 4.455-2.368-4.455H356.88v7.951h1.523V74.46l2.03 4.004h.846l1.973-3.948v5.301h1.523v-7.95h-.169zM354.175 79.817h1.691l-1.86-2.932a2.582 2.582 0 001.466-2.312c0-1.41-1.072-2.65-2.538-2.65H349.382v7.95h1.635v-2.707h1.466l1.692 2.65zm-3.158-6.598h1.635c.733 0 1.297.564 1.297 1.297 0 .677-.564 1.297-1.297 1.297h-1.635V73.22zM344.532 71.753c-2.086 0-3.778 1.805-3.778 4.06 0 2.256 1.692 4.06 3.778 4.06 2.086 0 3.778-1.804 3.778-4.06 0-2.199-1.692-4.06-3.778-4.06zm0 6.71c-1.241 0-2.199-1.183-2.199-2.65 0-1.466 1.015-2.65 2.199-2.65 1.24 0 2.199 1.184 2.199 2.65s-.959 2.65-2.199 2.65zM332.577 74.01l.79-1.298s-1.805-1.128-3.553-.79c-1.522.283-2.086 1.354-2.086 2.313-.056.958.338 1.691 2.368 2.199 2.03.507 1.918 1.184 1.861 1.41-.056.281-.564 1.07-2.199.45-1.297-.45-1.692-.845-1.692-.845 0 .056-.676 1.353-.676 1.353s.902.564 1.917.959c1.015.394 3.552.338 4.116-1.297.564-1.635-.338-2.481-.958-2.876-.621-.338-1.918-.564-2.425-.733-.508-.226-.959-.508-.564-1.297.395-.79 2.086-.226 3.101.451z" fill="#595959"/>
    <path d="M86.95 41.529a6.71 6.71 0 100-13.42 6.71 6.71 0 000 13.42zM83.624 26.36a2.03 2.03 0 100-4.06 2.03 2.03 0 000 4.06zM79.394 30.025a2.03 2.03 0 100-4.06 2.03 2.03 0 000 4.06z" fill="#137AD4"/>
    <path d="M90.22 26.473a2.03 2.03 0 100-4.06 2.03 2.03 0 000 4.06z" fill="#58E6FD"/>
    <path d="M97.156 33.409a2.03 2.03 0 100-4.06 2.03 2.03 0 000 4.06zM97.156 40.176a2.03 2.03 0 100-4.06 2.03 2.03 0 000 4.06z" fill="#137AD4"/>
    <path d="M90.22 46.604a2.03 2.03 0 100-4.06 2.03 2.03 0 000 4.06zM79.675 43.56a2.03 2.03 0 100-4.06 2.03 2.03 0 000 4.06z" fill="#58E6FD"/>
</svg>
