<svg class="architecture-diagram" aria-labelledby="task-based-consumer-mobile-app" height="616.847" viewbox="0 0 1129.14 616.847" width="1129.14" xmlns="http://www.w3.org/2000/svg">
    <defs>
        <clippath id="a">
            <path fill="none" d="M726.402 211.062h18.767v41.965h-18.767z"/>
        </clippath>
        <clippath id="b">
            <path fill="none" d="M539.162 49.029h6.965v6.96h-6.965z"/>
        </clippath>
        <clippath id="c">
            <path fill="none" d="M532.999 49.029h6.964v6.97h-6.964z"/>
        </clippath>
        <clippath id="d">
            <path fill="none" d="M528.947 44.629h14.692v16.89h-14.692z"/>
        </clippath>
        <clippath id="e">
            <path fill="none" d="M1058.745 384.032h15.7v19.12h-15.7z"/>
        </clippath>
        <clippath id="f">
            <path fill="none" d="M1051.195 369.658h24.29v22.745h-24.29z"/>
        </clippath>
        <clippath id="g">
            <path fill="none" d="M208.676 211.584h18.38v41.099h-18.38z"/>
        </clippath>
    </defs>
    <path fill="#969696" d="M505.14 555.582H34.47V302.548h1.5v251.534h469.17v1.5z"/>
    <path fill="#969696" d="M41.598 303.404H28.842l6.378-6.376 6.378 6.376zM38.44 191.888h-1.5V87.769h462.678v1.5H38.44v102.619z"/>
    <path fill="#969696" d="M498.763 94.897V82.141l6.376 6.378-6.376 6.378zM259.546 230.589h411.545v1.5H259.546z"/>
    <path fill="#969696" d="M260.401 224.961v12.756l-6.376-6.378 6.376-6.378zM670.236 224.961v12.756l6.376-6.378-6.376-6.378zM90.809 230.589h73.77v1.5h-73.77z"/>
    <path fill="#969696" d="M91.664 224.961v12.756l-6.376-6.378 6.376-6.378zM163.724 224.961v12.756l6.376-6.378-6.376-6.378zM601.797 87.769h69.294v1.5h-69.294z"/>
    <path fill="#969696" d="M670.236 94.897V82.141l6.376 6.378-6.376 6.378zM725.634 133.619h1.5v53.295h-1.5z"/>
    <path fill="#969696" d="M720.006 186.059h12.756l-6.378 6.376-6.378-6.376zM777.318 554.083h67.471v1.5h-67.471z"/>
    <path fill="#969696" d="M778.173 548.455v12.756l-6.376-6.378 6.376-6.378zM843.257 560.068l9.067-5.236-9.067-5.234v10.47zM951.135 553.141h70.653v1.5h-70.653z"/>
    <path fill="#969696" d="M951.991 547.513v12.756l-6.377-6.378 6.377-6.378zM1020.257 559.127l9.067-5.236-9.067-5.235v10.471zM601.555 553.141h80.584v1.5h-80.584z"/>
    <path fill="#969696" d="M603.087 548.656l-9.067 5.235 9.067 5.236v-10.471zM901.818 505.949h-1.5V94.777H779.632v-1.5h122.186v412.672z"/>
    <path fill="#969696" d="M780.487 87.65v12.756l-6.376-6.378 6.376-6.378zM1070.057 348.542h-1.5V74.269H774.111v-1.5h295.946v275.773z"/>
    <path fill="#969696" d="M1075.685 347.687h-12.756l6.378 6.376 6.378-6.376z"/>
    <path d="M708.6 211.174V246.4c0 3.657 8.188 6.623 18.286 6.623v-41.849z" fill="#0072c6"/>
    <path d="M726.633 253.027h.25c10.1 0 18.287-2.964 18.287-6.623v-35.231h-18.537z" fill="#0072c6"/>
    <g clip-path="url(#a)" opacity=".15">
        <path d="M726.4 253.027h.253c10.225 0 18.514-2.972 18.514-6.64v-35.325H726.4z" fill="#fff"/>
    </g>
    <path d="M745.169 211.174c0 3.658-8.188 6.623-18.286 6.623s-18.286-2.965-18.286-6.623 8.187-6.623 18.286-6.623 18.286 2.965 18.286 6.623" fill="#fff"/>
    <path d="M741.431 210.793c0 2.415-6.513 4.37-14.548 4.37s-14.548-1.955-14.548-4.37 6.514-4.37 14.548-4.37 14.548 1.956 14.548 4.37" fill="#7fba00"/>
    <path d="M738.383 213.463c1.9-.739 3.049-1.664 3.049-2.668 0-2.415-6.513-4.372-14.549-4.372s-14.547 1.957-14.547 4.372c0 1 1.144 1.929 3.048 2.668a39.767 39.767 0 0123 0" fill="#b8d432"/>
    <path d="M721.076 235.629a3 3 0 01-1.191 2.543 5.335 5.335 0 01-3.291.9 6.261 6.261 0 01-2.986-.644v-2.576a4.6 4.6 0 003.05 1.176 2.076 2.076 0 001.243-.322 1.006 1.006 0 00.439-.854 1.194 1.194 0 00-.422-.909 7.8 7.8 0 00-1.718-1q-2.64-1.238-2.64-3.38a3.048 3.048 0 011.151-2.49 4.692 4.692 0 013.057-.938 7.639 7.639 0 012.8.443v2.406a4.565 4.565 0 00-2.656-.8 1.965 1.965 0 00-1.183.317 1 1 0 00-.434.849 1.208 1.208 0 00.351.9 5.647 5.647 0 001.436.866 7.113 7.113 0 012.306 1.553 2.89 2.89 0 01.686 1.964M733.492 233.022a6.59 6.59 0 01-.925 3.533 4.944 4.944 0 01-2.607 2.1l3.347 3.1h-3.38l-2.39-2.68a5.6 5.6 0 01-2.772-.812 5.1 5.1 0 01-1.908-2.073 6.354 6.354 0 01-.672-2.933 6.854 6.854 0 01.728-3.2 5.17 5.17 0 012.048-2.161 5.973 5.973 0 013.026-.756 5.564 5.564 0 012.853.732 5 5 0 011.955 2.084 6.59 6.59 0 01.7 3.066m-2.735.146a4.517 4.517 0 00-.765-2.773 2.476 2.476 0 00-2.093-1.019 2.626 2.626 0 00-2.164 1.022 4.965 4.965 0 00-.017 5.419 2.559 2.559 0 002.116 1.01 2.594 2.594 0 002.132-.977 4.148 4.148 0 00.791-2.682M742.272 238.873H735.4v-11.54h2.599v9.432h4.273v2.108z" fill="#fff"/>
    <path d="M722.979 93.1h-16.013V77.09h3.406a6.843 6.843 0 01-.737-3.146v-.259h-6.054v22.8h22.8V82.906h-3.4zM745.783 77.089h2.907V93.1h-16.012V82.9h-3.386v13.588h22.8v-22.8h-7.289a6.8 6.8 0 01.976 3.166zM706.967 67.391V51.379h16.013V60.6a10.057 10.057 0 013.4-1.453V47.993h-22.8v22.784h6.553a10.044 10.044 0 012.17-3.386zM732.678 58.648v-7.269h16.012v16.012h-7.03a14.252 14.252 0 01.478 3.386h9.962V47.993h-22.8v10.655c.239 0 .478-.239.718-.239a9.306 9.306 0 002.668.239" fill="#a0a1a2"/>
    <path d="M743.115 76.851a3.571 3.571 0 00-3.645-3.645h-.478a8.747 8.747 0 00.478-2.429 9.724 9.724 0 00-9.7-9.7 9.379 9.379 0 00-8.962 6.552 6.157 6.157 0 00-2.19-.239 6.547 6.547 0 000 13.085h21.35a3.663 3.663 0 003.147-3.625" fill="#59b4d9"/>
    <path d="M730.009 61.078a4.886 4.886 0 011.713.238 4.272 4.272 0 00-1.713-.238m-11.153 6.313a5.472 5.472 0 011.951.239 4.856 4.856 0 00-1.951-.239" fill="#fff"/>
    <path d="M730.01 61.077a9.163 9.163 0 00-8.962 6.552h-.24a5.475 5.475 0 00-1.951-.239 6.543 6.543 0 100 13.086h3.4a5.812 5.812 0 01-1.712-3.147 6.494 6.494 0 014.859-8.006h2.196a9.138 9.138 0 015.317-7.767 2.144 2.144 0 00-1.194-.24 4.867 4.867 0 00-1.713-.239" fill="#7ac3e1"/>
    <g fill="#525252">
        <path d="M180.511 283.127a4.3 4.3 0 01-3.339-1.374 5.1 5.1 0 01-1.254-3.575 5.4 5.4 0 011.282-3.778 4.464 4.464 0 013.475-1.4 4.205 4.205 0 013.271 1.367 5.115 5.115 0 011.241 3.575 5.417 5.417 0 01-1.271 3.794 4.382 4.382 0 01-3.405 1.391zm.082-9.092a3.161 3.161 0 00-2.509 1.114 4.957 4.957 0 00-.024 5.841 3.066 3.066 0 002.451 1.1 3.218 3.218 0 002.543-1.053 4.3 4.3 0 00.93-2.946 4.5 4.5 0 00-.9-3 3.094 3.094 0 00-2.491-1.055zM190.423 273.584a1.494 1.494 0 00-.745-.185q-1.176 0-1.176 1.483v1.08h1.641v.957H188.5v6.043h-1.114v-6.042h-1.2v-.957h1.2v-1.135a2.358 2.358 0 01.636-1.74 2.146 2.146 0 011.586-.639 2.2 2.2 0 01.813.123zM194.8 273.584a1.494 1.494 0 00-.745-.185q-1.176 0-1.176 1.483v1.08h1.641v.957h-1.641v6.043h-1.109v-6.042h-1.2v-.957h1.2v-1.135a2.358 2.358 0 01.636-1.74 2.146 2.146 0 011.586-.639 2.2 2.2 0 01.813.123zM196.849 282.963h-1.121V272.6h1.121zM199.692 274.186a.71.71 0 01-.513-.205.693.693 0 01-.212-.52.718.718 0 01.725-.731.723.723 0 01.523.208.73.73 0 010 1.036.718.718 0 01-.523.212zm.547 8.777h-1.121v-7h1.121zM208.319 282.963H207.2v-3.992q0-2.229-1.627-2.229a1.765 1.765 0 00-1.391.632 2.344 2.344 0 00-.55 1.6v3.992h-1.121v-7h1.121v1.162h.027a2.526 2.526 0 012.3-1.326 2.141 2.141 0 011.757.742 3.3 3.3 0 01.608 2.143zM216.058 279.744h-4.942a2.618 2.618 0 00.629 1.8 2.168 2.168 0 001.654.636 3.439 3.439 0 002.174-.779v1.053a4.062 4.062 0 01-2.44.67 2.959 2.959 0 01-2.331-.954 3.9 3.9 0 01-.848-2.683 3.827 3.827 0 01.926-2.663 2.97 2.97 0 012.3-1.029 2.632 2.632 0 012.126.889 3.7 3.7 0 01.752 2.468zm-1.148-.95a2.28 2.28 0 00-.468-1.511 1.6 1.6 0 00-1.282-.54 1.81 1.81 0 00-1.347.567 2.574 2.574 0 00-.684 1.483zM221.28 282.567v-1.354a2.629 2.629 0 00.557.369 4.507 4.507 0 00.684.277 5.436 5.436 0 00.721.174 4.022 4.022 0 00.67.062 2.623 2.623 0 001.583-.393 1.474 1.474 0 00.349-1.822 1.964 1.964 0 00-.482-.537 4.782 4.782 0 00-.728-.465q-.42-.222-.906-.468-.513-.26-.957-.526a4.135 4.135 0 01-.771-.584 2.459 2.459 0 01-.516-.728 2.482 2.482 0 01.106-2.119 2.521 2.521 0 01.772-.817 3.5 3.5 0 011.09-.479A4.984 4.984 0 01224.7 273a4.78 4.78 0 012.112.349v1.292a3.83 3.83 0 00-2.229-.6 3.676 3.676 0 00-.752.079 2.116 2.116 0 00-.67.256 1.486 1.486 0 00-.479.458 1.216 1.216 0 00-.185.684 1.409 1.409 0 00.14.649 1.594 1.594 0 00.414.5 4.094 4.094 0 00.667.438q.393.212.906.465t1 .547a4.556 4.556 0 01.827.636 2.829 2.829 0 01.564.772 2.169 2.169 0 01.208.971 2.464 2.464 0 01-.284 1.227 2.325 2.325 0 01-.766.817 3.342 3.342 0 01-1.111.455 6.1 6.1 0 01-1.326.14 5.453 5.453 0 01-.574-.038q-.342-.037-.7-.109a5.667 5.667 0 01-.673-.178 2.1 2.1 0 01-.509-.243zM234.289 275.963l-3.22 8.121q-.861 2.174-2.42 2.174a2.571 2.571 0 01-.731-.089v-1a2.078 2.078 0 00.663.123 1.375 1.375 0 001.271-1.012l.561-1.326-2.734-6.986h1.244l1.894 5.387q.034.1.144.533H231q.034-.164.137-.52l1.989-5.4zM241.3 282.963h-1.121v-3.992q0-2.229-1.627-2.229a1.765 1.765 0 00-1.391.632 2.344 2.344 0 00-.55 1.6v3.992h-1.121v-7h1.121v1.162h.027a2.526 2.526 0 012.3-1.326 2.141 2.141 0 011.757.742 3.3 3.3 0 01.608 2.143zM248.186 282.642a3.641 3.641 0 01-1.914.485 3.169 3.169 0 01-2.417-.974 3.531 3.531 0 01-.919-2.526 3.882 3.882 0 01.991-2.779 3.466 3.466 0 012.646-1.049 3.68 3.68 0 011.627.342v1.148a2.85 2.85 0 00-1.668-.547 2.254 2.254 0 00-1.76.769 2.918 2.918 0 00-.687 2.02 2.779 2.779 0 00.646 1.941 2.226 2.226 0 001.733.711 2.808 2.808 0 001.723-.608z"/>
    </g>
    <g fill="#525252">
        <path d="M685.842 282.567v-1.354a2.629 2.629 0 00.557.369 4.507 4.507 0 00.684.277 5.436 5.436 0 00.721.174 4.022 4.022 0 00.67.062 2.623 2.623 0 001.583-.393 1.474 1.474 0 00.349-1.822 1.964 1.964 0 00-.482-.537 4.782 4.782 0 00-.728-.465q-.42-.222-.906-.468-.513-.26-.957-.526a4.135 4.135 0 01-.772-.588 2.459 2.459 0 01-.516-.728 2.482 2.482 0 01.106-2.119 2.521 2.521 0 01.772-.817 3.5 3.5 0 011.09-.479 4.984 4.984 0 011.247-.153 4.78 4.78 0 012.112.349v1.292a3.83 3.83 0 00-2.229-.6 3.676 3.676 0 00-.752.079 2.116 2.116 0 00-.67.256 1.486 1.486 0 00-.479.458 1.216 1.216 0 00-.185.684 1.409 1.409 0 00.14.649 1.594 1.594 0 00.414.5 4.094 4.094 0 00.667.438q.393.212.906.465t1 .547a4.556 4.556 0 01.827.636 2.829 2.829 0 01.564.772 2.169 2.169 0 01.208.971 2.464 2.464 0 01-.284 1.227 2.325 2.325 0 01-.766.817 3.342 3.342 0 01-1.111.455 6.1 6.1 0 01-1.326.14 5.453 5.453 0 01-.574-.038q-.342-.037-.7-.109a5.667 5.667 0 01-.673-.178 2.1 2.1 0 01-.507-.243zM697.688 283.127a4.327 4.327 0 01-3.343-1.374 5.1 5.1 0 01-1.251-3.575 5.385 5.385 0 011.278-3.773 4.478 4.478 0 013.481-1.405 4.208 4.208 0 013.268 1.367 5.105 5.105 0 011.244 3.575 5.417 5.417 0 01-1.271 3.794 3.787 3.787 0 01-.643.574l2.755 1.976h-2.086l-1.846-1.381a5.313 5.313 0 01-1.586.222zm.082-9.092a3.161 3.161 0 00-2.509 1.114 4.314 4.314 0 00-.964 2.926 4.383 4.383 0 00.937 2.919 3.079 3.079 0 002.454 1.1 3.218 3.218 0 002.543-1.053 4.3 4.3 0 00.93-2.946 4.479 4.479 0 00-.9-3 3.094 3.094 0 00-2.49-1.059zM709.378 282.963h-5.086v-9.8h1.148v8.764h3.938zM714.717 282.963v-9.8h2.707q5.182 0 5.182 4.778a4.815 4.815 0 01-1.439 3.647 5.337 5.337 0 01-3.852 1.377zm1.148-8.764v7.725h1.463a4.152 4.152 0 003-1.032 3.87 3.87 0 001.073-2.926q0-3.767-4.006-3.767zM729.394 282.963h-1.121v-1.093h-.027a2.348 2.348 0 01-2.153 1.258 2.3 2.3 0 01-1.637-.554 1.919 1.919 0 01-.591-1.47q0-1.962 2.311-2.283l2.1-.294q0-1.784-1.442-1.784a3.446 3.446 0 00-2.283.861v-1.148a4.337 4.337 0 012.379-.656q2.468 0 2.468 2.611zm-1.121-3.541l-1.688.232a2.738 2.738 0 00-1.176.386 1.114 1.114 0 00-.4.981 1.069 1.069 0 00.366.837 1.413 1.413 0 00.974.325 1.8 1.8 0 001.377-.584 2.088 2.088 0 00.543-1.48zM734.753 282.895a2.159 2.159 0 01-1.046.219q-1.839 0-1.839-2.051v-4.143h-1.2v-.957h1.2v-1.709l1.121-.362v2.071h1.764v.957h-1.764v3.944a1.635 1.635 0 00.239 1 .954.954 0 00.793.3 1.179 1.179 0 00.731-.232zM741.261 282.963h-1.121v-1.093h-.027a2.348 2.348 0 01-2.153 1.258 2.3 2.3 0 01-1.637-.554 1.919 1.919 0 01-.591-1.47q0-1.962 2.311-2.283l2.1-.294q0-1.784-1.442-1.784a3.446 3.446 0 00-2.283.861v-1.148a4.337 4.337 0 012.379-.656q2.468 0 2.468 2.611zm-1.121-3.541l-1.688.232a2.738 2.738 0 00-1.176.386 1.114 1.114 0 00-.4.981 1.069 1.069 0 00.366.837 1.413 1.413 0 00.974.325 1.8 1.8 0 001.377-.584 2.088 2.088 0 00.543-1.48zM744.521 281.952h-.027v1.012h-1.121V272.6h1.121v4.594h.027a2.651 2.651 0 012.42-1.395 2.566 2.566 0 012.109.94 3.88 3.88 0 01.762 2.519 4.337 4.337 0 01-.854 2.813 2.845 2.845 0 01-2.338 1.056 2.3 2.3 0 01-2.099-1.175zm-.027-2.823v.978a2.082 2.082 0 00.564 1.473 2.012 2.012 0 003.028-.174 3.574 3.574 0 00.578-2.167 2.823 2.823 0 00-.54-1.832 1.787 1.787 0 00-1.463-.663 1.986 1.986 0 00-1.572.68 2.5 2.5 0 00-.595 1.704zM756.432 282.963h-1.121v-1.093h-.027a2.348 2.348 0 01-2.153 1.258 2.3 2.3 0 01-1.637-.554 1.919 1.919 0 01-.591-1.47q0-1.962 2.311-2.283l2.1-.294q0-1.784-1.442-1.784a3.446 3.446 0 00-2.283.861v-1.148a4.337 4.337 0 012.379-.656q2.468 0 2.468 2.611zm-1.121-3.541l-1.688.232a2.738 2.738 0 00-1.176.386 1.114 1.114 0 00-.4.981 1.069 1.069 0 00.366.837 1.413 1.413 0 00.974.325 1.8 1.8 0 001.377-.584 2.088 2.088 0 00.543-1.48zM758.121 282.71v-1.2a3.318 3.318 0 002.017.677q1.477 0 1.477-.984a.852.852 0 00-.126-.475 1.26 1.26 0 00-.342-.345 2.626 2.626 0 00-.506-.27q-.291-.119-.625-.25a8.02 8.02 0 01-.817-.373 2.469 2.469 0 01-.588-.424 1.573 1.573 0 01-.355-.537 1.9 1.9 0 01-.12-.7 1.673 1.673 0 01.226-.872 2 2 0 01.6-.636 2.8 2.8 0 01.858-.386 3.812 3.812 0 01.995-.13 4.019 4.019 0 011.627.314v1.135a3.17 3.17 0 00-1.777-.506 2.078 2.078 0 00-.567.072 1.393 1.393 0 00-.434.2.932.932 0 00-.28.311.82.82 0 00-.1.4.961.961 0 00.1.458 1.008 1.008 0 00.291.328 2.228 2.228 0 00.465.26q.273.116.622.253a8.64 8.64 0 01.834.366 2.87 2.87 0 01.629.424 1.652 1.652 0 01.4.543 1.755 1.755 0 01.14.731 1.724 1.724 0 01-.229.9 1.959 1.959 0 01-.612.636 2.809 2.809 0 01-.882.376 4.352 4.352 0 01-1.046.123 3.973 3.973 0 01-1.875-.419zM770.111 279.744h-4.942a2.618 2.618 0 00.629 1.8 2.168 2.168 0 001.654.636 3.439 3.439 0 002.174-.779v1.053a4.062 4.062 0 01-2.44.67 2.959 2.959 0 01-2.331-.954 3.9 3.9 0 01-.848-2.683 3.827 3.827 0 01.926-2.663 2.97 2.97 0 012.3-1.029 2.632 2.632 0 012.126.889 3.7 3.7 0 01.752 2.468zm-1.148-.95a2.28 2.28 0 00-.468-1.511 1.6 1.6 0 00-1.282-.54 1.81 1.81 0 00-1.347.567 2.574 2.574 0 00-.684 1.483z"/>
    </g>
    <g fill="#525252">
        <path d="M700.02 121.767h-1.271l-1.039-2.748h-4.156l-.978 2.748H691.3l3.76-9.8h1.189zm-2.687-3.78l-1.538-4.177a4 4 0 01-.15-.656h-.027a3.669 3.669 0 01-.157.656l-1.524 4.177zM702.46 120.755h-.027v4.231h-1.121v-10.22h1.121V116h.027a2.651 2.651 0 012.42-1.395 2.564 2.564 0 012.112.94 3.893 3.893 0 01.759 2.519 4.337 4.337 0 01-.854 2.813 2.845 2.845 0 01-2.338 1.056 2.342 2.342 0 01-2.099-1.178zm-.027-2.823v.978a2.082 2.082 0 00.564 1.473 2.012 2.012 0 003.028-.174 3.574 3.574 0 00.578-2.167 2.823 2.823 0 00-.54-1.832 1.787 1.787 0 00-1.463-.663 1.986 1.986 0 00-1.572.68 2.5 2.5 0 00-.595 1.705zM710.69 120.755h-.027v4.231h-1.121v-10.22h1.121V116h.027a2.651 2.651 0 012.42-1.395 2.564 2.564 0 012.112.94 3.893 3.893 0 01.759 2.519 4.337 4.337 0 01-.854 2.813 2.845 2.845 0 01-2.338 1.056 2.342 2.342 0 01-2.099-1.178zm-.027-2.823v.978a2.082 2.082 0 00.564 1.473 2.012 2.012 0 003.028-.174 3.574 3.574 0 00.578-2.167 2.823 2.823 0 00-.54-1.832 1.787 1.787 0 00-1.463-.663 1.986 1.986 0 00-1.572.68 2.5 2.5 0 00-.595 1.705zM721.3 121.371v-1.354a2.629 2.629 0 00.557.369 4.507 4.507 0 00.684.277 5.436 5.436 0 00.721.174 4.022 4.022 0 00.67.062 2.623 2.623 0 001.583-.393 1.474 1.474 0 00.349-1.822 1.964 1.964 0 00-.482-.537 4.782 4.782 0 00-.728-.465q-.42-.222-.906-.468-.513-.26-.957-.526a4.135 4.135 0 01-.772-.588 2.459 2.459 0 01-.516-.728 2.482 2.482 0 01.106-2.119 2.521 2.521 0 01.772-.817 3.5 3.5 0 011.09-.479 4.984 4.984 0 011.248-.157 4.78 4.78 0 012.112.349v1.292a3.83 3.83 0 00-2.229-.6 3.676 3.676 0 00-.752.079 2.116 2.116 0 00-.67.256 1.486 1.486 0 00-.479.458 1.216 1.216 0 00-.185.684 1.409 1.409 0 00.14.649 1.594 1.594 0 00.414.5 4.094 4.094 0 00.667.438q.393.212.906.465t1 .547a4.556 4.556 0 01.827.636 2.829 2.829 0 01.564.772 2.169 2.169 0 01.208.971 2.464 2.464 0 01-.284 1.227 2.325 2.325 0 01-.766.817 3.342 3.342 0 01-1.111.455 6.1 6.1 0 01-1.326.14 5.453 5.453 0 01-.574-.038q-.342-.037-.7-.109a5.667 5.667 0 01-.673-.178 2.1 2.1 0 01-.508-.239zM734.671 118.547h-4.942a2.618 2.618 0 00.629 1.8 2.168 2.168 0 001.654.636 3.439 3.439 0 002.174-.779v1.053a4.062 4.062 0 01-2.44.67 2.959 2.959 0 01-2.331-.954 3.9 3.9 0 01-.848-2.683 3.827 3.827 0 01.926-2.663 2.97 2.97 0 012.3-1.029 2.632 2.632 0 012.126.889 3.7 3.7 0 01.752 2.468zm-1.148-.95a2.28 2.28 0 00-.468-1.511 1.6 1.6 0 00-1.282-.54 1.81 1.81 0 00-1.347.567 2.574 2.574 0 00-.684 1.483zM740.017 115.9a1.371 1.371 0 00-.848-.226 1.431 1.431 0 00-1.2.677 3.129 3.129 0 00-.482 1.846v3.568h-1.121v-7h1.121v1.442h.027a2.446 2.446 0 01.731-1.152 1.667 1.667 0 011.1-.414 1.827 1.827 0 01.67.1zM747.282 114.767l-2.789 7h-1.1l-2.652-7h1.23l1.777 5.086a4.546 4.546 0 01.246.978h.027a4.622 4.622 0 01.219-.95l1.859-5.113zM749.06 112.99a.71.71 0 01-.513-.205.693.693 0 01-.212-.52.718.718 0 01.725-.731.723.723 0 01.523.208.73.73 0 010 1.036.718.718 0 01-.523.212zm.547 8.777h-1.121v-7h1.121zM756.647 121.446a3.641 3.641 0 01-1.914.485 3.169 3.169 0 01-2.417-.974 3.531 3.531 0 01-.919-2.526 3.882 3.882 0 01.991-2.779 3.466 3.466 0 012.646-1.049 3.68 3.68 0 011.627.342v1.148a2.85 2.85 0 00-1.668-.547 2.254 2.254 0 00-1.76.769 2.918 2.918 0 00-.687 2.02 2.779 2.779 0 00.646 1.941 2.226 2.226 0 001.733.711 2.808 2.808 0 001.723-.608zM763.969 118.547h-4.942a2.618 2.618 0 00.629 1.8 2.168 2.168 0 001.654.636 3.439 3.439 0 002.174-.779v1.053a4.062 4.062 0 01-2.44.67 2.959 2.959 0 01-2.331-.954 3.9 3.9 0 01-.848-2.683 3.827 3.827 0 01.926-2.663 2.97 2.97 0 012.3-1.029 2.632 2.632 0 012.126.889 3.7 3.7 0 01.752 2.468zm-1.148-.95a2.28 2.28 0 00-.468-1.511 1.6 1.6 0 00-1.282-.54 1.81 1.81 0 00-1.347.567 2.574 2.574 0 00-.684 1.483z"/>
    </g>
    <g fill="#525252">
        <path d="M504.412 121.767h-1.148v-9.8h1.148zM512.813 121.767h-1.121v-1.189h-.027a2.588 2.588 0 01-2.406 1.354 2.615 2.615 0 01-2.109-.94 3.856 3.856 0 01-.79-2.56 4.194 4.194 0 01.875-2.782 2.886 2.886 0 012.331-1.046 2.244 2.244 0 012.1 1.135h.027V111.4h1.121zm-1.121-3.165v-1.032a2 2 0 00-.561-1.436 1.879 1.879 0 00-1.422-.588 1.936 1.936 0 00-1.613.752 3.294 3.294 0 00-.588 2.078 2.964 2.964 0 00.564 1.911 1.843 1.843 0 001.514.7 1.915 1.915 0 001.521-.677 2.522 2.522 0 00.585-1.71zM520.709 118.547h-4.942a2.618 2.618 0 00.629 1.8 2.168 2.168 0 001.654.636 3.439 3.439 0 002.174-.779v1.053a4.062 4.062 0 01-2.44.67 2.959 2.959 0 01-2.331-.954 3.9 3.9 0 01-.848-2.683 3.827 3.827 0 01.926-2.663 2.97 2.97 0 012.3-1.029 2.632 2.632 0 012.126.889 3.7 3.7 0 01.752 2.468zm-1.148-.95a2.28 2.28 0 00-.468-1.511 1.6 1.6 0 00-1.282-.54 1.81 1.81 0 00-1.347.567 2.574 2.574 0 00-.684 1.483zM528.215 121.767h-1.121v-3.992q0-2.229-1.627-2.229a1.765 1.765 0 00-1.391.632 2.344 2.344 0 00-.55 1.6v3.992H522.4v-7h1.121v1.162h.027a2.526 2.526 0 012.3-1.326 2.141 2.141 0 011.757.742 3.3 3.3 0 01.608 2.143zM533.574 121.7a2.159 2.159 0 01-1.046.219q-1.839 0-1.839-2.051v-4.143h-1.2v-.957h1.2v-1.709l1.121-.362v2.071h1.764v.957h-1.764v3.944a1.635 1.635 0 00.239 1 .954.954 0 00.793.3 1.179 1.179 0 00.731-.232zM535.646 112.99a.71.71 0 01-.513-.205.693.693 0 01-.212-.52.718.718 0 01.725-.731.723.723 0 01.523.208.73.73 0 010 1.036.718.718 0 01-.523.212zm.547 8.777h-1.121v-7h1.121zM541.709 121.7a2.159 2.159 0 01-1.046.219q-1.839 0-1.839-2.051v-4.143h-1.2v-.957h1.2v-1.709l1.121-.362v2.071h1.764v.957h-1.764v3.944a1.635 1.635 0 00.239 1 .954.954 0 00.793.3 1.179 1.179 0 00.731-.232zM548.777 114.767l-3.22 8.121q-.861 2.174-2.42 2.174a2.571 2.571 0 01-.731-.089v-1a2.078 2.078 0 00.663.123 1.375 1.375 0 001.271-1.012l.561-1.326-2.734-6.986h1.244l1.894 5.387q.034.1.144.533h.041q.034-.164.137-.52l1.989-5.4zM555.114 118.062v3.705h-1.148v-9.8h2.693a3.556 3.556 0 012.437.766 2.733 2.733 0 01.865 2.16 2.971 2.971 0 01-.96 2.283 3.67 3.67 0 01-2.594.889zm0-5.059v4.02h1.2a2.69 2.69 0 001.815-.543 1.924 1.924 0 00.625-1.535q0-1.942-2.3-1.941zM565.307 115.9a1.371 1.371 0 00-.848-.226 1.431 1.431 0 00-1.2.677 3.129 3.129 0 00-.482 1.846v3.568h-1.121v-7h1.121v1.442h.027a2.446 2.446 0 01.731-1.152 1.667 1.667 0 011.1-.414 1.827 1.827 0 01.67.1zM569.267 121.931a3.248 3.248 0 01-2.478-.981 3.633 3.633 0 01-.926-2.6 3.785 3.785 0 01.964-2.755 3.466 3.466 0 012.6-.991 3.14 3.14 0 012.444.964 3.823 3.823 0 01.878 2.673 3.76 3.76 0 01-.947 2.683 3.317 3.317 0 01-2.535 1.007zm.082-6.385a2.133 2.133 0 00-1.709.735 3.017 3.017 0 00-.629 2.027 2.854 2.854 0 00.636 1.962 2.161 2.161 0 001.7.718 2.05 2.05 0 001.671-.7 3.055 3.055 0 00.584-2 3.108 3.108 0 00-.584-2.023 2.04 2.04 0 00-1.669-.719zM580.047 114.767l-2.789 7h-1.1l-2.652-7h1.23l1.777 5.086a4.546 4.546 0 01.246.978h.027a4.622 4.622 0 01.219-.95l1.859-5.113zM581.825 112.99a.71.71 0 01-.513-.205.693.693 0 01-.212-.52.718.718 0 01.725-.731.723.723 0 01.523.208.73.73 0 010 1.036.718.718 0 01-.523.212zm.547 8.777h-1.122v-7h1.121zM590.616 121.767h-1.121v-1.189h-.027a2.588 2.588 0 01-2.406 1.354 2.615 2.615 0 01-2.109-.94 3.856 3.856 0 01-.79-2.56 4.194 4.194 0 01.875-2.782 2.886 2.886 0 012.331-1.046 2.244 2.244 0 012.1 1.135h.027V111.4h1.121zm-1.121-3.165v-1.032a2 2 0 00-.561-1.436 1.879 1.879 0 00-1.422-.588 1.936 1.936 0 00-1.613.752 3.294 3.294 0 00-.588 2.078 2.964 2.964 0 00.564 1.911 1.843 1.843 0 001.514.7 1.915 1.915 0 001.521-.677 2.522 2.522 0 00.585-1.71zM598.511 118.547h-4.942a2.618 2.618 0 00.629 1.8 2.168 2.168 0 001.654.636 3.439 3.439 0 002.174-.779v1.053a4.062 4.062 0 01-2.44.67 2.959 2.959 0 01-2.331-.954 3.9 3.9 0 01-.848-2.683 3.827 3.827 0 01.926-2.663 2.97 2.97 0 012.3-1.029 2.632 2.632 0 012.126.889 3.7 3.7 0 01.752 2.468zm-1.148-.95a2.28 2.28 0 00-.468-1.511 1.6 1.6 0 00-1.282-.54 1.81 1.81 0 00-1.347.567 2.574 2.574 0 00-.684 1.483zM603.857 115.9a1.371 1.371 0 00-.848-.226 1.431 1.431 0 00-1.2.677 3.129 3.129 0 00-.482 1.846v3.568h-1.121v-7h1.121v1.442h.027a2.446 2.446 0 01.731-1.152 1.667 1.667 0 011.1-.414 1.827 1.827 0 01.67.1z"/>
    </g>
    <g fill="#525252">
        <path d="M684.945 602.3v-1.354a2.629 2.629 0 00.557.369 4.612 4.612 0 00.684.277 5.59 5.59 0 00.721.174 4.022 4.022 0 00.67.062 2.619 2.619 0 001.583-.394 1.474 1.474 0 00.349-1.821 1.948 1.948 0 00-.482-.536 4.708 4.708 0 00-.728-.465q-.42-.223-.906-.469-.513-.259-.957-.526a4.156 4.156 0 01-.772-.588 2.457 2.457 0 01-.516-.728 2.482 2.482 0 01.106-2.119 2.513 2.513 0 01.772-.817 3.5 3.5 0 011.09-.479 5.007 5.007 0 011.248-.157 4.78 4.78 0 012.112.349v1.292a3.826 3.826 0 00-2.229-.6 3.71 3.71 0 00-.752.078 2.14 2.14 0 00-.67.257 1.486 1.486 0 00-.479.458 1.216 1.216 0 00-.185.684 1.409 1.409 0 00.14.649 1.588 1.588 0 00.414.5 4.127 4.127 0 00.667.438q.393.212.906.465t1 .547a4.556 4.556 0 01.827.636 2.837 2.837 0 01.564.772 2.169 2.169 0 01.208.971 2.458 2.458 0 01-.284 1.227 2.323 2.323 0 01-.766.817 3.321 3.321 0 01-1.111.454 6.064 6.064 0 01-1.326.141 5.57 5.57 0 01-.574-.037 8.412 8.412 0 01-.7-.109 5.962 5.962 0 01-.673-.178 2.1 2.1 0 01-.508-.24zM695.616 602.859a3.249 3.249 0 01-2.478-.98 3.635 3.635 0 01-.926-2.6 3.786 3.786 0 01.964-2.755 3.464 3.464 0 012.6-.991 3.14 3.14 0 012.444.964 3.822 3.822 0 01.878 2.673 3.763 3.763 0 01-.947 2.684 3.318 3.318 0 01-2.535 1.005zm.082-6.385a2.134 2.134 0 00-1.709.734 3.019 3.019 0 00-.629 2.027 2.855 2.855 0 00.64 1.965 2.161 2.161 0 001.7.718 2.049 2.049 0 001.671-.7 3.055 3.055 0 00.584-2 3.107 3.107 0 00-.584-2.023 2.041 2.041 0 00-1.671-.721zM706.554 602.695h-1.121v-1.107h-.027a2.3 2.3 0 01-2.16 1.271q-2.5 0-2.5-2.98v-4.184h1.114v4.005q0 2.215 1.7 2.215a1.712 1.712 0 001.35-.605 2.313 2.313 0 00.53-1.582v-4.033h1.121zM712.467 596.83a1.371 1.371 0 00-.848-.226 1.431 1.431 0 00-1.2.677 3.129 3.129 0 00-.482 1.846v3.568h-1.121v-7h1.121v1.442h.027a2.442 2.442 0 01.731-1.151 1.665 1.665 0 011.1-.414 1.837 1.837 0 01.67.1zM718.273 602.374a3.645 3.645 0 01-1.914.485 3.166 3.166 0 01-2.417-.975 3.529 3.529 0 01-.919-2.525 3.883 3.883 0 01.991-2.779 3.468 3.468 0 012.646-1.049 3.686 3.686 0 011.627.342v1.148a2.853 2.853 0 00-1.668-.547 2.252 2.252 0 00-1.76.77 2.915 2.915 0 00-.687 2.02 2.778 2.778 0 00.646 1.941 2.228 2.228 0 001.733.711 2.811 2.811 0 001.723-.608zM725.594 599.475h-4.942a2.618 2.618 0 00.629 1.8 2.168 2.168 0 001.654.636 3.439 3.439 0 002.174-.779v1.053a4.065 4.065 0 01-2.44.67 2.961 2.961 0 01-2.331-.953 3.906 3.906 0 01-.848-2.684 3.826 3.826 0 01.926-2.662 2.969 2.969 0 012.3-1.029 2.631 2.631 0 012.126.889 3.7 3.7 0 01.752 2.468zm-1.148-.95a2.28 2.28 0 00-.468-1.511 1.594 1.594 0 00-1.282-.54 1.812 1.812 0 00-1.347.567 2.574 2.574 0 00-.684 1.483zM737.947 602.285a5.749 5.749 0 01-2.707.574 4.366 4.366 0 01-3.35-1.347 4.97 4.97 0 01-1.258-3.534 5.208 5.208 0 011.415-3.8 4.8 4.8 0 013.589-1.449 5.76 5.76 0 012.311.4v1.224a4.689 4.689 0 00-2.324-.588 3.567 3.567 0 00-2.738 1.128 4.249 4.249 0 00-1.049 3.015 4.041 4.041 0 00.981 2.854 3.337 3.337 0 002.574 1.063 4.829 4.829 0 002.557-.656zM742.718 602.859a3.249 3.249 0 01-2.478-.98 3.635 3.635 0 01-.926-2.6 3.786 3.786 0 01.964-2.755 3.464 3.464 0 012.6-.991 3.14 3.14 0 012.444.964 3.822 3.822 0 01.878 2.673 3.763 3.763 0 01-.947 2.684 3.318 3.318 0 01-2.535 1.005zm.082-6.385a2.134 2.134 0 00-1.709.734 3.019 3.019 0 00-.629 2.027 2.855 2.855 0 00.636 1.962 2.161 2.161 0 001.7.718 2.049 2.049 0 001.671-.7 3.055 3.055 0 00.584-2 3.107 3.107 0 00-.584-2.023 2.041 2.041 0 00-1.669-.718zM753.806 602.695h-1.121V598.7q0-2.228-1.627-2.229a1.764 1.764 0 00-1.391.633 2.342 2.342 0 00-.55 1.6v3.992H748v-7h1.121v1.162h.027a2.527 2.527 0 012.3-1.326 2.14 2.14 0 011.757.742 3.3 3.3 0 01.608 2.143zM759.166 602.626a2.164 2.164 0 01-1.046.219q-1.839 0-1.839-2.051v-4.143h-1.2v-.957h1.2v-1.709l1.121-.362v2.071h1.764v.957H757.4v3.949a1.633 1.633 0 00.239 1 .956.956 0 00.793.3 1.176 1.176 0 00.731-.232zM764.313 596.83a1.371 1.371 0 00-.848-.226 1.431 1.431 0 00-1.2.677 3.129 3.129 0 00-.482 1.846v3.568h-1.121v-7h1.121v1.442h.027a2.442 2.442 0 01.731-1.151 1.665 1.665 0 011.1-.414 1.837 1.837 0 01.67.1zM768.274 602.859a3.249 3.249 0 01-2.478-.98 3.635 3.635 0 01-.926-2.6 3.786 3.786 0 01.964-2.755 3.464 3.464 0 012.6-.991 3.14 3.14 0 012.444.964 3.822 3.822 0 01.878 2.673 3.763 3.763 0 01-.947 2.684 3.318 3.318 0 01-2.535 1.005zm.082-6.385a2.134 2.134 0 00-1.709.734 3.019 3.019 0 00-.629 2.027 2.855 2.855 0 00.636 1.962 2.161 2.161 0 001.7.718 2.049 2.049 0 001.671-.7 3.055 3.055 0 00.584-2 3.107 3.107 0 00-.584-2.023 2.041 2.041 0 00-1.669-.718zM774.672 602.695h-1.121v-10.363h1.121z"/>
    </g>
    <g fill="#525252">
        <path d="M1048.271 602.695h-5.2v-9.8h4.977v1.039h-3.828v3.261h3.541v1.032h-3.541v3.432h4.047zM1055.817 602.695h-1.117V598.7q0-2.228-1.627-2.229a1.762 1.762 0 00-1.391.633 2.34 2.34 0 00-.551 1.6v3.992h-1.121v-7h1.121v1.162h.027a2.526 2.526 0 012.3-1.326 2.14 2.14 0 011.757.742 3.3 3.3 0 01.608 2.143zM1063.9 602.134q0 3.855-3.691 3.855a4.956 4.956 0 01-2.27-.492v-1.121a4.659 4.659 0 002.256.656q2.584 0 2.584-2.748v-.766h-.027a2.831 2.831 0 01-4.508.406 3.726 3.726 0 01-.8-2.5 4.362 4.362 0 01.857-2.837 2.867 2.867 0 012.349-1.053 2.281 2.281 0 012.1 1.135h.027v-.971h1.121zm-1.121-2.6V598.5a2 2 0 00-.564-1.429 1.854 1.854 0 00-1.4-.595 1.946 1.946 0 00-1.627.756 3.37 3.37 0 00-.588 2.115 2.887 2.887 0 00.564 1.869 1.818 1.818 0 001.493.7 1.95 1.95 0 001.534-.67 2.5 2.5 0 00.592-1.716zM1066.748 593.917a.711.711 0 01-.513-.205.69.69 0 01-.212-.52.717.717 0 01.725-.731.728.728 0 01.523.208.732.732 0 010 1.036.719.719 0 01-.523.212zm.547 8.777h-1.121v-7h1.121zM1075.375 602.695h-1.121V598.7q0-2.228-1.627-2.229a1.762 1.762 0 00-1.391.633 2.34 2.34 0 00-.551 1.6v3.992h-1.121v-7h1.121v1.162h.027a2.526 2.526 0 012.3-1.326 2.14 2.14 0 011.757.742 3.3 3.3 0 01.608 2.143zM1083.113 599.475h-4.942a2.618 2.618 0 00.629 1.8 2.168 2.168 0 001.654.636 3.441 3.441 0 002.174-.779v1.053a4.065 4.065 0 01-2.44.67 2.961 2.961 0 01-2.331-.953 3.9 3.9 0 01-.848-2.684 3.828 3.828 0 01.926-2.662 2.97 2.97 0 012.3-1.029 2.63 2.63 0 012.126.889 3.707 3.707 0 01.752 2.468zm-1.148-.95a2.288 2.288 0 00-.468-1.511 1.6 1.6 0 00-1.282-.54 1.813 1.813 0 00-1.347.567 2.577 2.577 0 00-.684 1.483zM1090.435 599.475h-4.942a2.618 2.618 0 00.629 1.8 2.168 2.168 0 001.654.636 3.441 3.441 0 002.174-.779v1.053a4.065 4.065 0 01-2.44.67 2.961 2.961 0 01-2.331-.953 3.9 3.9 0 01-.848-2.684 3.828 3.828 0 01.926-2.662 2.97 2.97 0 012.3-1.029 2.63 2.63 0 012.126.889 3.707 3.707 0 01.752 2.468zm-1.148-.95a2.288 2.288 0 00-.468-1.511 1.6 1.6 0 00-1.282-.54 1.813 1.813 0 00-1.347.567 2.577 2.577 0 00-.684 1.483zM1095.78 596.83a1.372 1.372 0 00-.848-.226 1.429 1.429 0 00-1.2.677 3.122 3.122 0 00-.482 1.846v3.568h-1.121v-7h1.121v1.442h.027a2.439 2.439 0 01.731-1.151 1.666 1.666 0 011.1-.414 1.837 1.837 0 01.67.1z"/>
    </g>
    <g fill="#525252">
        <path d="M1016.812 443.543h-1.271l-1.041-2.743h-4.156l-.978 2.748h-1.278l3.76-9.8h1.189zm-2.687-3.78l-1.538-4.177a4 4 0 01-.15-.656h-.027a3.647 3.647 0 01-.157.656l-1.524 4.177zM1019.252 442.532h-.027v4.231h-1.125v-10.22h1.121v1.23h.027a2.652 2.652 0 012.42-1.395 2.565 2.565 0 012.112.939 3.9 3.9 0 01.759 2.52 4.338 4.338 0 01-.854 2.813 2.842 2.842 0 01-2.338 1.057 2.341 2.341 0 01-2.095-1.175zm-.027-2.823v.978a2.074 2.074 0 00.564 1.473 2.01 2.01 0 003.027-.174 3.571 3.571 0 00.578-2.167 2.821 2.821 0 00-.54-1.832 1.787 1.787 0 00-1.463-.663 1.987 1.987 0 00-1.572.68 2.5 2.5 0 00-.594 1.704zM1027.482 442.532h-.027v4.231h-1.121v-10.22h1.121v1.23h.027a2.652 2.652 0 012.42-1.395 2.565 2.565 0 012.112.939 3.9 3.9 0 01.759 2.52 4.338 4.338 0 01-.854 2.813 2.842 2.842 0 01-2.338 1.057 2.341 2.341 0 01-2.099-1.175zm-.027-2.823v.978a2.074 2.074 0 00.564 1.473 2.01 2.01 0 003.027-.174 3.571 3.571 0 00.578-2.167 2.821 2.821 0 00-.54-1.832 1.787 1.787 0 00-1.463-.663 1.987 1.987 0 00-1.572.68 2.5 2.5 0 00-.594 1.704zM1035.686 443.543h-1.121V433.18h1.121zM1038.529 434.766a.711.711 0 01-.513-.205.69.69 0 01-.212-.52.717.717 0 01.725-.731.728.728 0 01.523.208.732.732 0 010 1.036.719.719 0 01-.523.212zm.547 8.777h-1.121v-7h1.121zM1046.117 443.222a3.647 3.647 0 01-1.914.485 3.164 3.164 0 01-2.416-.975 3.527 3.527 0 01-.92-2.525 3.881 3.881 0 01.991-2.779 3.469 3.469 0 012.646-1.049 3.688 3.688 0 011.627.342v1.148a2.852 2.852 0 00-1.668-.547 2.248 2.248 0 00-1.76.77 2.911 2.911 0 00-.687 2.02 2.774 2.774 0 00.646 1.941 2.225 2.225 0 001.732.711 2.813 2.813 0 001.723-.608zM1052.823 443.543h-1.123v-1.093h-.027a2.346 2.346 0 01-2.153 1.258 2.3 2.3 0 01-1.637-.554 1.918 1.918 0 01-.592-1.47q0-1.961 2.311-2.283l2.1-.294q0-1.784-1.442-1.784a3.446 3.446 0 00-2.283.861v-1.148a4.34 4.34 0 012.379-.656q2.468 0 2.468 2.611zM1051.7 440l-1.688.232a2.734 2.734 0 00-1.176.387 1.111 1.111 0 00-.4.98 1.072 1.072 0 00.365.838 1.419 1.419 0 00.975.324 1.8 1.8 0 001.377-.584 2.088 2.088 0 00.544-1.48zM1058.183 443.475a2.167 2.167 0 01-1.046.219q-1.838 0-1.839-2.051V437.5h-1.2v-.957h1.2v-1.709l1.121-.362v2.071h1.764v.957h-1.764v3.944a1.636 1.636 0 00.239 1 .955.955 0 00.793.3 1.177 1.177 0 00.731-.232zM1060.254 434.766a.711.711 0 01-.513-.205.69.69 0 01-.212-.52.717.717 0 01.725-.731.728.728 0 01.523.208.732.732 0 010 1.036.719.719 0 01-.523.212zm.547 8.777h-1.121v-7h1.121zM1066 443.707a3.251 3.251 0 01-2.479-.98 3.636 3.636 0 01-.926-2.6 3.786 3.786 0 01.964-2.755 3.464 3.464 0 012.6-.991 3.137 3.137 0 012.443.964 3.82 3.82 0 01.879 2.673 3.761 3.761 0 01-.947 2.684 3.317 3.317 0 01-2.534 1.005zm.082-6.385a2.134 2.134 0 00-1.709.734 3.022 3.022 0 00-.629 2.027 2.855 2.855 0 00.636 1.962 2.161 2.161 0 001.7.718 2.051 2.051 0 001.672-.7 3.061 3.061 0 00.584-2 3.113 3.113 0 00-.584-2.023 2.044 2.044 0 00-1.674-.717zM1077.084 443.543h-1.121v-3.992q0-2.228-1.627-2.229a1.762 1.762 0 00-1.391.633 2.34 2.34 0 00-.551 1.6v3.992h-1.121v-7h1.121v1.162h.027a2.526 2.526 0 012.3-1.326 2.14 2.14 0 011.757.742 3.3 3.3 0 01.608 2.143zM1084.33 443.543h-1.148v-9.8h1.148zM1092.567 443.543h-1.121v-3.992q0-2.228-1.627-2.229a1.762 1.762 0 00-1.391.633 2.34 2.34 0 00-.551 1.6v3.992h-1.121v-7h1.121v1.162h.027a2.526 2.526 0 012.3-1.326 2.14 2.14 0 011.757.742 3.3 3.3 0 01.608 2.143zM1094.256 443.291v-1.2a3.318 3.318 0 002.017.677q1.477 0 1.477-.984a.853.853 0 00-.126-.475 1.276 1.276 0 00-.342-.346 2.615 2.615 0 00-.506-.27c-.194-.08-.4-.163-.626-.25a8.019 8.019 0 01-.817-.373 2.458 2.458 0 01-.588-.424 1.588 1.588 0 01-.355-.536 1.912 1.912 0 01-.119-.7 1.668 1.668 0 01.226-.871 2 2 0 01.6-.637 2.831 2.831 0 01.858-.386 3.783 3.783 0 01.994-.13 4.01 4.01 0 011.627.314v1.135a3.173 3.173 0 00-1.777-.506 2.04 2.04 0 00-.567.072 1.363 1.363 0 00-.435.2.936.936 0 00-.279.311.82.82 0 00-.1.4.954.954 0 00.1.458 1 1 0 00.29.328 2.206 2.206 0 00.465.26c.183.077.39.162.622.253a8.7 8.7 0 01.834.365 2.91 2.91 0 01.629.424 1.679 1.679 0 01.4.544 1.764 1.764 0 01.14.731 1.717 1.717 0 01-.229.9 1.968 1.968 0 01-.611.636 2.788 2.788 0 01-.882.376 4.358 4.358 0 01-1.046.123 3.968 3.968 0 01-1.874-.419zM1101.194 434.766a.711.711 0 01-.513-.205.69.69 0 01-.212-.52.717.717 0 01.725-.731.728.728 0 01.523.208.732.732 0 010 1.036.719.719 0 01-.523.212zm.547 8.777h-1.121v-7h1.121zM1109.985 442.983q0 3.855-3.691 3.855a4.956 4.956 0 01-2.27-.492v-1.121a4.659 4.659 0 002.256.656q2.584 0 2.584-2.748v-.766h-.027a2.831 2.831 0 01-4.508.406 3.726 3.726 0 01-.8-2.5 4.362 4.362 0 01.857-2.837 2.867 2.867 0 012.349-1.053 2.281 2.281 0 012.1 1.135h.027v-.971h1.121zm-1.121-2.6v-1.032a2 2 0 00-.564-1.429 1.854 1.854 0 00-1.4-.595 1.946 1.946 0 00-1.627.756 3.37 3.37 0 00-.588 2.115 2.887 2.887 0 00.564 1.869 1.818 1.818 0 001.493.7 1.95 1.95 0 001.534-.67 2.5 2.5 0 00.588-1.719zM1118.065 443.543h-1.121v-4.033q0-2.187-1.627-2.187a1.774 1.774 0 00-1.381.633 2.352 2.352 0 00-.561 1.623v3.965h-1.121V433.18h1.121v4.525h.027a2.547 2.547 0 012.3-1.326q2.366 0 2.365 2.851zM1123.425 443.475a2.167 2.167 0 01-1.046.219q-1.838 0-1.839-2.051V437.5h-1.2v-.957h1.2v-1.709l1.121-.362v2.071h1.764v.957h-1.764v3.944a1.636 1.636 0 00.239 1 .955.955 0 00.793.3 1.177 1.177 0 00.731-.232zM1124.5 443.291v-1.2a3.318 3.318 0 002.017.677q1.477 0 1.477-.984a.853.853 0 00-.126-.475 1.276 1.276 0 00-.342-.346 2.615 2.615 0 00-.506-.27c-.194-.08-.4-.163-.626-.25a8.019 8.019 0 01-.817-.373 2.458 2.458 0 01-.588-.424 1.588 1.588 0 01-.355-.536 1.912 1.912 0 01-.119-.7 1.668 1.668 0 01.226-.871 2 2 0 01.6-.637 2.831 2.831 0 01.858-.386 3.783 3.783 0 01.994-.13 4.01 4.01 0 011.627.314v1.135a3.173 3.173 0 00-1.777-.506 2.04 2.04 0 00-.567.072 1.363 1.363 0 00-.435.2.936.936 0 00-.279.311.82.82 0 00-.1.4.954.954 0 00.1.458 1 1 0 00.29.328 2.206 2.206 0 00.465.26c.183.077.39.162.622.253a8.7 8.7 0 01.834.365 2.91 2.91 0 01.629.424 1.679 1.679 0 01.4.544 1.764 1.764 0 01.14.731 1.717 1.717 0 01-.229.9 1.968 1.968 0 01-.611.636 2.788 2.788 0 01-.882.376 4.358 4.358 0 01-1.046.123 3.968 3.968 0 01-1.874-.419z"/>
    </g>
    <path d="M9.437 207.981h20.6a3.549 3.549 0 013.549 3.549v43.8a3.547 3.547 0 01-3.547 3.547H9.436a3.549 3.549 0 01-3.549-3.549v-43.8a3.55 3.55 0 013.55-3.547z" fill="#454c50"/>
    <path fill="#505659" d="M16.662 254.009h6.146v2.05h-6.146zM20.762 211.825a1.025 1.025 0 11-1.025-1.025 1.022 1.022 0 011.025 1.025"/>
    <path fill="#fff" d="M7.895 215.674h23.677v35.512H7.895z"/>
    <path fill="#e6625c" d="M9.717 217.493h20.036v3.063H9.717z"/>
    <path fill="#e8e8e8" d="M9.717 246.153h20.036v1.008H9.717zM9.717 248.358h20.036v1.007H9.717z"/>
    <path fill="#b3e9ff" d="M9.717 229.26h20.036v15.696H9.717z"/>
    <path fill="#d4d6d8" d="M9.717 221.752h20.036v6.312H9.717z"/>
    <path d="M42.649 207.981h20.6a3.55 3.55 0 013.55 3.55v43.8a3.547 3.547 0 01-3.547 3.547h-20.6a3.549 3.549 0 01-3.549-3.549v-43.8a3.55 3.55 0 013.546-3.548z" fill="#454c50"/>
    <path fill="#505659" d="M49.875 254.009h6.146v2.05h-6.146zM53.974 211.825a1.025 1.025 0 11-1.025-1.025 1.022 1.022 0 011.025 1.025"/>
    <path fill="#fff" d="M41.108 215.674h23.677v35.512H41.108z"/>
    <path d="M48.264 230.8h10.328a.7.7 0 01.7.7v9.21a.7.7 0 01-.7.7H48.265a.7.7 0 01-.7-.7v-9.21a.7.7 0 01.699-.7z" fill="#85c808"/>
    <path fill="#85c808" d="M47.551 230.797h11.755v4.838H47.551zM62.433 237.265a1.25 1.25 0 01-2.5 0v-5.618a1.25 1.25 0 012.5 0zM46.924 237.265a1.25 1.25 0 11-2.5 0v-5.618a1.25 1.25 0 012.5 0zM47.6 230.105s.13-4.975 5.829-4.957c5.646.017 5.829 4.957 5.829 4.957z"/>
    <path d="M51.572 227.566a.7.7 0 11-.7-.7.7.7 0 01.7.7M56.688 227.566a.7.7 0 11-.7-.7.7.7 0 01.7.7" fill="#fff"/>
    <path d="M50.677 225.817c.021.029.084.02.142-.021s.088-.1.067-.127l-1.086-1.537c-.021-.029-.084-.02-.141.021s-.089.1-.068.127zM56.18 225.817c-.021.029-.084.02-.142-.021s-.088-.1-.067-.127l1.089-1.537c.021-.029.084-.02.142.021s.088.1.067.127zM57.091 244.536a1.25 1.25 0 01-2.5 0v-5.618a1.25 1.25 0 012.5 0zM52.266 244.536a1.25 1.25 0 11-2.5 0v-5.618a1.25 1.25 0 012.5 0z" fill="#85c808"/>
    <path fill="#cb2e62" d="M564.991 513.148v49.156l-42.999-6.242 42.999 14.305 14.053-6.023v-44.671l-14.053-6.525z"/>
    <path d="M550 525.819l-9.9 6.259v-7.758l-4.547-2.074-9.716 8.139v4.19l5.162 3.26-5.162 3.264v4.19l9.716 8.319 4.547-1.516v-8.51l9.9 6.249 8.456-2.926v-18.2zm-20.844 6.144l6.4-5.043v8.034l-.047.03zm-.036 11.784l6.436-3.026v8.221zm12.48-5.867l8.4-3.949v7.944z" fill="#cb2e62"/>
    <g fill="#525252">
        <path d="M524.2 587.025l-3.63 9.8h-1.27l-3.555-9.8h1.278l2.714 7.772a4.621 4.621 0 01.2.868h.027a4.279 4.279 0 01.226-.882l2.769-7.759zM526.027 588.05a.71.71 0 01-.513-.205.692.692 0 01-.212-.52.717.717 0 01.725-.731.725.725 0 01.523.208.731.731 0 010 1.036.717.717 0 01-.523.212zm.547 8.777h-1.121v-7h1.121zM528.42 596.575v-1.2a3.318 3.318 0 002.017.677q1.477 0 1.477-.984a.85.85 0 00-.126-.475 1.255 1.255 0 00-.342-.346 2.573 2.573 0 00-.506-.27q-.291-.12-.625-.25a7.911 7.911 0 01-.817-.373 2.429 2.429 0 01-.588-.424 1.567 1.567 0 01-.355-.536 1.9 1.9 0 01-.12-.7 1.668 1.668 0 01.226-.871 2.005 2.005 0 01.6-.637 2.834 2.834 0 01.858-.386 3.792 3.792 0 01.995-.13 4.011 4.011 0 011.627.314v1.135a3.174 3.174 0 00-1.777-.506 2.04 2.04 0 00-.567.072 1.36 1.36 0 00-.434.2.94.94 0 00-.28.311.825.825 0 00-.1.4.96.96 0 00.1.458 1.008 1.008 0 00.291.328 2.206 2.206 0 00.465.26c.182.077.39.162.622.253a8.644 8.644 0 01.834.365 2.922 2.922 0 01.629.424 1.663 1.663 0 01.4.544 1.756 1.756 0 01.14.731 1.721 1.721 0 01-.229.9 1.969 1.969 0 01-.612.636 2.8 2.8 0 01-.882.376 4.352 4.352 0 01-1.046.123 3.968 3.968 0 01-1.875-.419zM540.444 596.828h-1.121v-1.108h-.023a2.3 2.3 0 01-2.16 1.271q-2.5 0-2.5-2.98v-4.184h1.114v4.006q0 2.215 1.7 2.215a1.712 1.712 0 001.35-.605 2.313 2.313 0 00.53-1.582v-4.033h1.121zM547.718 596.828H546.6v-1.094h-.027a2.347 2.347 0 01-2.153 1.258 2.3 2.3 0 01-1.637-.554 1.919 1.919 0 01-.591-1.47q0-1.961 2.311-2.283l2.1-.294q0-1.784-1.442-1.784a3.446 3.446 0 00-2.283.861v-1.148a4.337 4.337 0 012.379-.656q2.468 0 2.468 2.611zm-1.121-3.541l-1.688.232a2.731 2.731 0 00-1.176.387 1.112 1.112 0 00-.4.98 1.07 1.07 0 00.366.838 1.416 1.416 0 00.974.324 1.8 1.8 0 001.377-.584 2.092 2.092 0 00.543-1.48zM550.951 596.828h-1.121v-10.364h1.121zM556.748 596.431v-1.354a2.629 2.629 0 00.557.369 4.612 4.612 0 00.684.277 5.59 5.59 0 00.721.174 4.022 4.022 0 00.67.062 2.619 2.619 0 001.583-.394 1.474 1.474 0 00.349-1.821 1.948 1.948 0 00-.482-.536 4.708 4.708 0 00-.728-.465q-.42-.223-.906-.469-.513-.259-.957-.526a4.156 4.156 0 01-.772-.588 2.457 2.457 0 01-.516-.728 2.482 2.482 0 01.106-2.119 2.513 2.513 0 01.772-.817 3.5 3.5 0 011.09-.479 5.007 5.007 0 011.248-.157 4.78 4.78 0 012.112.349v1.291a3.826 3.826 0 00-2.229-.6 3.71 3.71 0 00-.752.078 2.14 2.14 0 00-.67.257 1.486 1.486 0 00-.479.458 1.216 1.216 0 00-.185.684 1.409 1.409 0 00.14.649 1.588 1.588 0 00.414.5 4.127 4.127 0 00.667.438q.393.212.906.465t1 .547a4.556 4.556 0 01.827.636 2.837 2.837 0 01.564.772 2.169 2.169 0 01.208.971 2.458 2.458 0 01-.284 1.227 2.323 2.323 0 01-.766.817 3.321 3.321 0 01-1.111.454 6.064 6.064 0 01-1.326.141 5.57 5.57 0 01-.574-.037 8.412 8.412 0 01-.7-.109 5.962 5.962 0 01-.673-.178 2.1 2.1 0 01-.508-.239zM567.306 596.759a2.164 2.164 0 01-1.046.219q-1.839 0-1.839-2.051v-4.143h-1.2v-.957h1.2v-1.709l1.121-.362v2.071h1.764v.957h-1.764v3.944a1.633 1.633 0 00.239 1 .956.956 0 00.793.3 1.176 1.176 0 00.731-.232zM574.463 596.828h-1.121v-1.108h-.027a2.3 2.3 0 01-2.16 1.271q-2.5 0-2.5-2.98v-4.184h1.114v4.006q0 2.215 1.7 2.215a1.712 1.712 0 001.35-.605 2.313 2.313 0 00.53-1.582v-4.033h1.121zM582.7 596.828h-1.12v-1.189h-.027a2.588 2.588 0 01-2.406 1.354 2.616 2.616 0 01-2.109-.939 3.858 3.858 0 01-.79-2.561 4.2 4.2 0 01.875-2.782 2.886 2.886 0 012.331-1.046 2.243 2.243 0 012.1 1.135h.027v-4.334h1.119zm-1.121-3.165v-1.033a2 2 0 00-.561-1.436 1.881 1.881 0 00-1.422-.588 1.937 1.937 0 00-1.613.752 3.294 3.294 0 00-.588 2.078 2.961 2.961 0 00.564 1.91 1.842 1.842 0 001.514.7 1.915 1.915 0 001.521-.677 2.521 2.521 0 00.586-1.706zM585.544 588.05a.71.71 0 01-.513-.205.692.692 0 01-.212-.52.717.717 0 01.725-.731.725.725 0 01.523.208.731.731 0 010 1.036.717.717 0 01-.523.212zm.547 8.777h-1.121v-7h1.121zM591.287 596.992a3.249 3.249 0 01-2.478-.98 3.635 3.635 0 01-.926-2.6 3.786 3.786 0 01.964-2.755 3.464 3.464 0 012.6-.991 3.14 3.14 0 012.444.964 3.822 3.822 0 01.878 2.673 3.763 3.763 0 01-.947 2.684 3.318 3.318 0 01-2.535 1.005zm.082-6.385a2.134 2.134 0 00-1.709.734 3.019 3.019 0 00-.629 2.027 2.855 2.855 0 00.636 1.962 2.161 2.161 0 001.7.718 2.049 2.049 0 001.671-.7 3.055 3.055 0 00.584-2 3.107 3.107 0 00-.584-2.023 2.041 2.041 0 00-1.669-.718z"/>
    </g>
    <g fill="#525252">
        <path d="M529.354 613.627h-1.271l-1.039-2.748h-4.156l-.978 2.748h-1.278l3.76-9.8h1.189zm-2.687-3.78l-1.538-4.177a4 4 0 01-.15-.656h-.027a3.647 3.647 0 01-.157.656l-1.524 4.177zM531.794 612.616h-.027v4.231h-1.121v-10.22h1.121v1.23h.027a2.651 2.651 0 012.42-1.395 2.565 2.565 0 012.112.939 3.9 3.9 0 01.759 2.52 4.335 4.335 0 01-.854 2.813 2.843 2.843 0 01-2.338 1.057 2.341 2.341 0 01-2.099-1.175zm-.027-2.823v.978a2.078 2.078 0 00.564 1.473 2.011 2.011 0 003.028-.174 3.575 3.575 0 00.578-2.167 2.824 2.824 0 00-.54-1.832 1.786 1.786 0 00-1.463-.663 1.987 1.987 0 00-1.572.68 2.5 2.5 0 00-.595 1.704zM540.025 612.616H540v4.231h-1.121v-10.22H540v1.23h.027a2.651 2.651 0 012.42-1.395 2.565 2.565 0 012.112.939 3.9 3.9 0 01.759 2.52 4.335 4.335 0 01-.854 2.813 2.843 2.843 0 01-2.338 1.057 2.341 2.341 0 01-2.101-1.175zm-.025-2.824v.978a2.078 2.078 0 00.564 1.473 2.011 2.011 0 003.028-.174 3.575 3.575 0 00.578-2.167 2.824 2.824 0 00-.54-1.832 1.786 1.786 0 00-1.463-.663 1.987 1.987 0 00-1.572.68 2.5 2.5 0 00-.595 1.705zM557.764 613.217a5.749 5.749 0 01-2.707.574 4.366 4.366 0 01-3.35-1.347 4.97 4.97 0 01-1.258-3.534 5.208 5.208 0 011.415-3.8 4.8 4.8 0 013.589-1.449 5.76 5.76 0 012.311.4v1.224a4.689 4.689 0 00-2.324-.588 3.567 3.567 0 00-2.738 1.128 4.249 4.249 0 00-1.049 3.015 4.041 4.041 0 00.981 2.854 3.337 3.337 0 002.574 1.063 4.829 4.829 0 002.557-.656zM565.236 610.408h-4.942a2.618 2.618 0 00.629 1.8 2.168 2.168 0 001.654.636 3.439 3.439 0 002.174-.779v1.053a4.065 4.065 0 01-2.44.67 2.961 2.961 0 01-2.331-.953 3.906 3.906 0 01-.848-2.684 3.826 3.826 0 01.926-2.662 2.969 2.969 0 012.3-1.029 2.631 2.631 0 012.126.889 3.7 3.7 0 01.752 2.468zm-1.148-.95a2.28 2.28 0 00-.468-1.511 1.594 1.594 0 00-1.282-.54 1.812 1.812 0 00-1.347.567 2.574 2.574 0 00-.684 1.483zM572.742 613.627h-1.121v-3.992q0-2.228-1.627-2.229a1.764 1.764 0 00-1.391.633 2.342 2.342 0 00-.55 1.6v3.992h-1.121v-7h1.121v1.162h.027a2.527 2.527 0 012.3-1.326 2.14 2.14 0 011.757.742 3.3 3.3 0 01.608 2.143zM578.1 613.559a2.164 2.164 0 01-1.046.219q-1.839 0-1.839-2.051v-4.143h-1.2v-.957h1.2v-1.709l1.121-.362v2.071h1.764v.957h-1.764v3.944a1.633 1.633 0 00.239 1 .956.956 0 00.793.3 1.176 1.176 0 00.731-.232zM585.112 610.408h-4.942a2.618 2.618 0 00.629 1.8 2.168 2.168 0 001.654.636 3.439 3.439 0 002.174-.779v1.053a4.065 4.065 0 01-2.44.67 2.961 2.961 0 01-2.331-.953 3.906 3.906 0 01-.848-2.684 3.826 3.826 0 01.926-2.662 2.969 2.969 0 012.3-1.029 2.631 2.631 0 012.126.889 3.7 3.7 0 01.752 2.468zm-1.148-.95a2.28 2.28 0 00-.468-1.511 1.594 1.594 0 00-1.282-.54 1.812 1.812 0 00-1.347.567 2.574 2.574 0 00-.684 1.483zM590.458 607.762a1.371 1.371 0 00-.848-.226 1.431 1.431 0 00-1.2.677 3.129 3.129 0 00-.482 1.846v3.568h-1.121v-7h1.121v1.442h.027a2.442 2.442 0 01.731-1.151 1.665 1.665 0 011.1-.414 1.837 1.837 0 01.67.1z"/>
    </g>
    <g fill="#525252">
        <path d="M9.994 283.984H8.853v-6.576q0-.779.1-1.907h-.032a6.121 6.121 0 01-.294.95l-3.35 7.533h-.56l-3.343-7.479a5.844 5.844 0 01-.294-1h-.027q.055.588.055 1.921v6.563H0v-9.8h1.518l3.008 6.836a8.744 8.744 0 01.451 1.176h.041q.294-.806.472-1.2l3.069-6.809h1.435zM15.347 284.148a3.248 3.248 0 01-2.478-.981 3.633 3.633 0 01-.926-2.6 3.785 3.785 0 01.964-2.755 3.466 3.466 0 012.6-.991 3.14 3.14 0 012.444.964 3.823 3.823 0 01.878 2.673 3.76 3.76 0 01-.947 2.683 3.317 3.317 0 01-2.535 1.007zm.082-6.385a2.133 2.133 0 00-1.709.735 3.017 3.017 0 00-.629 2.027 2.854 2.854 0 00.636 1.962 2.161 2.161 0 001.7.718 2.05 2.05 0 001.671-.7 3.055 3.055 0 00.584-2 3.108 3.108 0 00-.584-2.023 2.04 2.04 0 00-1.669-.719zM21.772 282.972h-.027v1.012h-1.121v-10.363h1.121v4.594h.027a2.651 2.651 0 012.42-1.395 2.566 2.566 0 012.109.94 3.88 3.88 0 01.762 2.519 4.337 4.337 0 01-.854 2.813 2.845 2.845 0 01-2.338 1.056 2.3 2.3 0 01-2.099-1.176zm-.027-2.823v.978a2.082 2.082 0 00.564 1.473 2.012 2.012 0 003.028-.174 3.574 3.574 0 00.578-2.167 2.823 2.823 0 00-.54-1.832 1.787 1.787 0 00-1.463-.663 1.986 1.986 0 00-1.572.68 2.5 2.5 0 00-.595 1.705zM29.429 275.207a.71.71 0 01-.513-.205.693.693 0 01-.212-.52.718.718 0 01.725-.731.723.723 0 01.523.208.73.73 0 010 1.036.718.718 0 01-.523.212zm.547 8.777h-1.122v-7h1.121zM33.366 283.984h-1.121v-10.363h1.121zM41.262 280.764h-4.943a2.618 2.618 0 00.629 1.8 2.168 2.168 0 001.654.636 3.439 3.439 0 002.174-.779v1.053a4.062 4.062 0 01-2.44.67 2.959 2.959 0 01-2.336-.95 3.9 3.9 0 01-.848-2.683 3.827 3.827 0 01.926-2.663 2.97 2.97 0 012.3-1.029 2.632 2.632 0 012.126.889 3.7 3.7 0 01.752 2.468zm-1.148-.95a2.28 2.28 0 00-.468-1.511 1.6 1.6 0 00-1.282-.54 1.81 1.81 0 00-1.347.567 2.574 2.574 0 00-.684 1.483zM54.53 283.984h-1.271l-1.039-2.748h-4.157l-.978 2.748h-1.277l3.76-9.8h1.189zm-2.687-3.78l-1.538-4.177a4 4 0 01-.15-.656h-.027a3.669 3.669 0 01-.157.656l-1.525 4.173zM56.971 282.972h-.027v4.228h-1.122v-10.22h1.121v1.23h.027a2.651 2.651 0 012.42-1.395 2.564 2.564 0 012.112.94 3.893 3.893 0 01.759 2.519 4.337 4.337 0 01-.854 2.813 2.845 2.845 0 01-2.338 1.056 2.342 2.342 0 01-2.098-1.171zm-.027-2.823v.978a2.082 2.082 0 00.564 1.473 2.012 2.012 0 003.028-.174 3.574 3.574 0 00.578-2.167 2.823 2.823 0 00-.54-1.832 1.787 1.787 0 00-1.463-.663 1.986 1.986 0 00-1.572.68 2.5 2.5 0 00-.596 1.705zM65.2 282.972h-.027v4.228h-1.12v-10.22h1.121v1.23h.026a2.651 2.651 0 012.42-1.395 2.564 2.564 0 012.112.94 3.893 3.893 0 01.759 2.519 4.337 4.337 0 01-.854 2.813 2.845 2.845 0 01-2.338 1.056 2.342 2.342 0 01-2.099-1.171zm-.027-2.823v.978a2.082 2.082 0 00.564 1.473 2.012 2.012 0 003.028-.174 3.574 3.574 0 00.578-2.167 2.823 2.823 0 00-.54-1.832 1.787 1.787 0 00-1.463-.663 1.986 1.986 0 00-1.572.68 2.5 2.5 0 00-.594 1.705z"/>
    </g>
    <path d="M539.56 65.852a1.942 1.942 0 01-1.384-.574l-8.655-8.655a1.956 1.956 0 010-2.768l8.655-8.654a1.955 1.955 0 012.768 0l8.654 8.654a1.957 1.957 0 010 2.769l-8.654 8.654a1.944 1.944 0 01-1.384.574" fill="#59b4d9"/>
    <path d="M545.339 53.58a1.66 1.66 0 00-1.66 1.66 1.639 1.639 0 00.274.909l-3.287 3.287a2 2 0 00-.279-.158v-8.386a1.659 1.659 0 10-1.654 0v8.386a1.956 1.956 0 00-.269.15l-3.291-3.291a1.707 1.707 0 10-.851.664l3.46 3.46a1.91 1.91 0 00-.155.756 1.932 1.932 0 103.715-.743l3.469-3.468a1.656 1.656 0 10.528-3.226" fill="#fff"/>
    <g clip-path="url(#b)" opacity=".5">
        <path fill="#fff" d="M539.165 49.785l.757-.757 6.207 6.206-.758.757z"/>
    </g>
    <g clip-path="url(#c)" opacity=".5">
        <path fill="#fff" d="M532.997 55.236l6.207-6.207.758.758-6.207 6.207z"/>
    </g>
    <path d="M540.691 61.018a1.15 1.15 0 11-1.15-1.15 1.15 1.15 0 011.15 1.15M540.482 49.461a.923.923 0 11-.923-.923.923.923 0 01.923.923M534.7 55.239a.923.923 0 11-.923-.923.923.923 0 01.923.923M546.262 55.239a.923.923 0 11-.923-.923.923.923 0 01.923.923" fill="#b8d432"/>
    <g clip-path="url(#d)" opacity=".1">
        <path d="M540.944 45.2a1.956 1.956 0 00-2.768 0l-8.655 8.655a1.956 1.956 0 000 2.768l4.9 4.9 9.218-13.629z" fill="#fff"/>
    </g>
    <path fill="#07b1ea" d="M528.946 71.629h20.953v20.952h-20.953z"/>
    <path d="M547 78.158a5.568 5.568 0 01-1.608.441 2.815 2.815 0 001.231-1.548 5.628 5.628 0 01-1.779.68 2.8 2.8 0 00-4.771 2.552 7.946 7.946 0 01-5.771-2.925 2.806 2.806 0 00.867 3.738 2.8 2.8 0 01-1.268-.352v.035a2.8 2.8 0 002.245 2.745 2.832 2.832 0 01-.737.1 2.792 2.792 0 01-.528-.051 2.8 2.8 0 002.616 1.944 5.623 5.623 0 01-3.477 1.2 5.869 5.869 0 01-.668-.039 7.959 7.959 0 0012.257-6.706l-.009-.362a5.615 5.615 0 001.4-1.447" fill="#fff"/>
    <path fill="#4585f1" d="M555.614 71.629h20.952v20.952h-20.952z"/>
    <path d="M569.832 80.984h3.042c.188 0 .265.033.264.248a12.99 12.99 0 01-.247 3.072 6.143 6.143 0 01-5.33 4.678 7.144 7.144 0 01-5.655-1.594 6.842 6.842 0 011.594-11.536 6.975 6.975 0 017.417.881c.164.121.167.2.031.344-.495.54-.983 1.088-1.458 1.645-.133.155-.206.172-.378.042a4.342 4.342 0 00-6.78 2.165 4.249 4.249 0 003.543 5.391 4.7 4.7 0 002.431-.3 3.227 3.227 0 001.882-2.155c.057-.185.005-.211-.164-.21-1.074.005-2.148 0-3.221.007-.221 0-.309-.039-.3-.287q.028-1.061 0-2.122c-.006-.238.075-.278.289-.276 1.014.011 2.028 0 3.042 0" fill="#fff"/>
    <path fill="#305caf" d="M555.614 44.581h21.333v21.333h-21.333z"/>
    <path d="M564.654 54.932h-1.04v-1.65h1.034c0-.048.006-.085.006-.122 0-.52-.006-1.04 0-1.559a1.649 1.649 0 01.617-1.273 2.659 2.659 0 011.386-.569 5.113 5.113 0 012.059.141c.076.02.1.051.084.126-.071.485-.14.971-.21 1.456 0 .034-.013.068-.022.115l-.218-.059a2.242 2.242 0 00-.943-.066.655.655 0 00-.589.582c-.037.4-.03.806-.042 1.222h1.752l-.057.635c-.028.309-.06.619-.086.929-.005.072-.028.1-.1.1H566.791v5.492c0 .14 0 .14-.14.14h-1.868c-.127 0-.127 0-.127-.125v-5.515z" fill="#fff"/>
    <path d="M1082.148 383.557v-.286c0-7.324-6.278-13.412-13.983-13.506-.19-.286-4.566.094-4.566.094-6.944.857-12.366 6.659-12.366 13.412 0 .191-.76 5.517 4.662 9.988 2.473 2.188 5.041 8.086 5.421 9.8l.286.57h10.083l.285-.57c.381-1.712 3.044-7.61 5.422-9.7 5.422-4.566 4.756-9.607 4.756-9.8" fill="#68217a"/>
    <path fill="#7a7a7a" d="M1061.792 407.051h10.083v3.234h-10.083zM1064.931 417.135h3.709l3.14-3.33h-9.988l3.139 3.33z"/>
    <g clip-path="url(#e)" opacity=".65">
        <path d="M1069.307 403.152h-1.9v-12.081h-1.617v11.986h-1.9v-11.986h-1.617a3.573 3.573 0 01-3.519-3.519 3.519 3.519 0 017.039 0v1.617h1.617v-1.617a3.519 3.519 0 113.519 3.519h-1.617zm-7.039-17.217a1.6 1.6 0 00-1.617 1.617 1.667 1.667 0 001.617 1.617h1.617v-1.617a1.738 1.738 0 00-1.617-1.617m8.656 0a1.667 1.667 0 00-1.617 1.617v1.617h1.617a1.667 1.667 0 001.617-1.617 1.6 1.6 0 00-1.617-1.617" fill="#fff"/>
    </g>
    <g clip-path="url(#f)" opacity=".15">
        <path d="M1068.165 369.765c-.19-.286-4.566.1-4.566.1-6.944.856-12.366 6.658-12.366 13.412a11.336 11.336 0 003.71 9.132l20.546-20.547a13.971 13.971 0 00-7.324-2.092" fill="#fff"/>
    </g>
    <path d="M753.012 573.343h-19.644V553.7h19.644zm-9.345-16.324a12.943 12.943 0 00-4.568.624 1.651 1.651 0 00-1.273 2.129c.311 1.464.569 2.942.78 4.424a1.854 1.854 0 001.243 1.558 9.289 9.289 0 007.1.017 2.011 2.011 0 001.328-1.8 39.678 39.678 0 01.732-4.147 1.632 1.632 0 00-1.211-2.157 11.63 11.63 0 00-4.136-.644m-4.374 9.252c-.157 2.66.44 3.412 2.855 3.778a8.276 8.276 0 002.509.013c2.422-.37 2.991-1.068 2.935-3.835a8.227 8.227 0 01-8.3.044" fill="#114973"/>
    <path d="M743.667 557.018a11.655 11.655 0 014.136.645 1.632 1.632 0 011.211 2.157 39.6 39.6 0 00-.732 4.146 2.011 2.011 0 01-1.328 1.8 9.289 9.289 0 01-7.105-.016 1.854 1.854 0 01-1.243-1.559 66.986 66.986 0 00-.78-4.424 1.65 1.65 0 011.273-2.128 12.943 12.943 0 014.568-.625m1.552 6.315a1.81 1.81 0 00-1.792-1.785 1.829 1.829 0 00-1.785 1.928 1.79 1.79 0 003.577-.143m1.737-4.628c-1.586-1.168-5.746-1.127-7.085.069 1.753 1.068 5.619 1.03 7.085-.069" fill="#f8fafb"/>
    <path d="M739.293 566.271a8.227 8.227 0 008.3-.044c.056 2.767-.513 3.465-2.935 3.835a8.276 8.276 0 01-2.509-.013c-2.415-.366-3.012-1.118-2.855-3.778" fill="#f6f8f9"/>
    <path d="M745.219 563.334a1.79 1.79 0 01-3.577.143 1.831 1.831 0 011.785-1.929 1.811 1.811 0 011.792 1.786" fill="#2d5e83"/>
    <path d="M746.956 558.705c-1.466 1.1-5.332 1.137-7.085.069 1.339-1.2 5.5-1.237 7.085-.069" fill="#275a80"/>
    <path d="M752.4 547.674h-19.035v-19.117H752.4zm-9.524-16.631a7.076 7.076 0 107.086 7.113 7.115 7.115 0 00-7.086-7.113" fill="#1f1f1f"/>
    <path d="M742.879 531.043a7.076 7.076 0 11-7.054 7.012 7.114 7.114 0 017.054-7.012m-1.277 10.9c-.49-.131-.794-.2-1.089-.293a3.175 3.175 0 01-2.008-4.35 3.325 3.325 0 00.377-1.779c-.071-.64.2-1.18 1.057-.875a8.406 8.406 0 005.976-.01c.418-.159.968-.135.915.407-.113 1.136.573 2.048.688 3.1a3.031 3.031 0 01-2.295 3.52c-.291.1-.647.058-.841.467.534.528.262 1.313.476 1.979a6.228 6.228 0 004.3-7.279 6.4 6.4 0 00-12.665 1.081c-.124 2.865 1.928 5.663 4.484 6.088a2.888 2.888 0 01.624-2.054" fill="#f2f2f2"/>
    <path d="M741.6 541.948a2.888 2.888 0 00-.624 2.054c-2.556-.425-4.608-3.223-4.484-6.088a6.4 6.4 0 0112.665-1.081 6.228 6.228 0 01-4.3 7.279c-.214-.666.058-1.451-.476-1.979.194-.409.55-.37.841-.467a3.031 3.031 0 002.295-3.52c-.115-1.05-.8-1.962-.688-3.1.053-.542-.5-.566-.915-.407a8.406 8.406 0 01-5.976.01c-.862-.3-1.128.235-1.057.875a3.325 3.325 0 01-.377 1.779 3.175 3.175 0 002.008 4.35c.3.1.6.162 1.089.293" fill="#252525"/>
    <path fill="#68217a" d="M707.15 528.32h19.644v19.371H707.15z"/>
    <path fill="#fff" d="M719.701 532.14l3.273 1.364v9.276l-3.001 1.091-4.637-4.638-3.002 2.183-1.363-.546v-5.729l1.363-.546 3.002 2.183 4.365-4.638z"/>
    <path fill="#68217a" d="M719.701 535.687v4.638l-2.729-2.455 2.729-2.183zM712.334 536.233l1.91 1.637-1.91 2.182v-3.819z"/>
    <path fill="#dd5900" d="M707.15 553.693h19.644v19.643H707.15z"/>
    <path d="M720.66 567.194a5.407 5.407 0 110-7.647 5.407 5.407 0 010 7.647" fill="#fff"/>
    <path fill="#dd5900" d="M719.701 562.424l-.819.818-1.364-1.364v4.365h-1.091v-5.456l-2.728-2.456.818-.818 5.184 4.911z"/>
    <path d="M718.337 566.516a1.365 1.365 0 11-1.364-1.364 1.364 1.364 0 011.364 1.364M721.338 563.515a1.364 1.364 0 11-1.364-1.364 1.364 1.364 0 011.364 1.364M718.337 560.787a1.365 1.365 0 11-1.364-1.364 1.364 1.364 0 011.364 1.364" fill="#dd5900"/>
    <g fill="#525252">
        <path d="M869.745 591.351l-3.63 9.8h-1.265l-3.555-9.8h1.278l2.714 7.772a4.621 4.621 0 01.2.868h.027a4.279 4.279 0 01.226-.882l2.769-7.759zM871.577 592.376a.71.71 0 01-.513-.205.692.692 0 01-.212-.52.717.717 0 01.725-.731.728.728 0 01.523.208.732.732 0 010 1.036.719.719 0 01-.523.212zm.547 8.777H871v-7h1.121zM873.97 600.9v-1.2a3.318 3.318 0 002.017.677q1.477 0 1.477-.984a.853.853 0 00-.126-.475 1.276 1.276 0 00-.342-.346 2.615 2.615 0 00-.506-.27c-.194-.08-.4-.163-.626-.25a8.019 8.019 0 01-.817-.373 2.458 2.458 0 01-.588-.424 1.588 1.588 0 01-.355-.536 1.912 1.912 0 01-.119-.7 1.668 1.668 0 01.226-.871 2 2 0 01.6-.637 2.831 2.831 0 01.858-.386 3.783 3.783 0 01.994-.13 4.01 4.01 0 011.627.314v1.135a3.173 3.173 0 00-1.777-.506 2.04 2.04 0 00-.567.072 1.363 1.363 0 00-.435.2.936.936 0 00-.279.311.82.82 0 00-.1.4.954.954 0 00.1.458 1 1 0 00.29.328 2.206 2.206 0 00.465.26c.183.077.39.162.622.253a8.7 8.7 0 01.834.365 2.91 2.91 0 01.629.424 1.679 1.679 0 01.4.544 1.764 1.764 0 01.14.731 1.717 1.717 0 01-.229.9 1.968 1.968 0 01-.611.636 2.788 2.788 0 01-.882.376 4.358 4.358 0 01-1.046.123 3.968 3.968 0 01-1.874-.419zM885.994 601.154h-1.121v-1.107h-.027a2.3 2.3 0 01-2.16 1.271q-2.5 0-2.5-2.98v-4.184h1.114v4.006q0 2.215 1.7 2.215a1.714 1.714 0 001.351-.605 2.315 2.315 0 00.529-1.582v-4.033h1.121zM893.268 601.154h-1.121v-1.094h-.027a2.346 2.346 0 01-2.153 1.258 2.3 2.3 0 01-1.637-.554 1.918 1.918 0 01-.592-1.47q0-1.961 2.311-2.283l2.1-.294q0-1.784-1.442-1.784a3.446 3.446 0 00-2.283.861v-1.148a4.34 4.34 0 012.379-.656q2.468 0 2.468 2.611zm-1.121-3.541l-1.688.232a2.734 2.734 0 00-1.176.387 1.111 1.111 0 00-.4.98 1.072 1.072 0 00.365.838 1.419 1.419 0 00.975.324 1.8 1.8 0 001.377-.584 2.088 2.088 0 00.544-1.48zM896.5 601.154h-1.12v-10.363h1.12zM902.3 600.757V599.4a2.633 2.633 0 00.558.369 4.548 4.548 0 00.684.277 5.564 5.564 0 00.721.174 4.018 4.018 0 00.67.062 2.616 2.616 0 001.582-.394 1.474 1.474 0 00.35-1.821 1.966 1.966 0 00-.482-.536 4.668 4.668 0 00-.729-.465c-.279-.148-.582-.3-.905-.469q-.513-.259-.957-.526a4.172 4.172 0 01-.772-.588 2.447 2.447 0 01-.516-.728 2.479 2.479 0 01.105-2.119 2.513 2.513 0 01.772-.817 3.5 3.5 0 011.091-.479 5 5 0 011.247-.157 4.783 4.783 0 012.112.349v1.292a3.826 3.826 0 00-2.229-.6 3.71 3.71 0 00-.752.078 2.14 2.14 0 00-.67.257 1.481 1.481 0 00-.479.458 1.216 1.216 0 00-.185.684 1.416 1.416 0 00.14.649 1.59 1.59 0 00.414.5 4.164 4.164 0 00.666.438q.394.212.906.465t1 .547a4.573 4.573 0 01.827.636 2.815 2.815 0 01.563.772 2.163 2.163 0 01.209.971 2.463 2.463 0 01-.283 1.227 2.336 2.336 0 01-.766.817 3.337 3.337 0 01-1.111.454 6.061 6.061 0 01-1.326.141 5.554 5.554 0 01-.574-.037 8.412 8.412 0 01-.7-.109 6 6 0 01-.674-.178 2.126 2.126 0 01-.507-.237zM912.856 601.085a2.167 2.167 0 01-1.046.219q-1.838 0-1.839-2.051v-4.143h-1.2v-.957h1.2v-1.709l1.121-.362v2.071h1.764v.957h-1.764v3.944a1.636 1.636 0 00.239 1 .955.955 0 00.793.3 1.177 1.177 0 00.731-.232zM920.014 601.154h-1.121v-1.107h-.027a2.3 2.3 0 01-2.16 1.271q-2.5 0-2.5-2.98v-4.184h1.114v4.006q0 2.215 1.7 2.215a1.714 1.714 0 001.351-.605 2.315 2.315 0 00.529-1.582v-4.033h1.121zM928.251 601.154h-1.121v-1.189h-.03a2.588 2.588 0 01-2.406 1.354 2.618 2.618 0 01-2.109-.939 3.863 3.863 0 01-.789-2.561 4.2 4.2 0 01.875-2.782A2.885 2.885 0 01925 593.99a2.243 2.243 0 012.1 1.135h.027v-4.334h1.121zm-1.121-3.165v-1.032a2 2 0 00-.561-1.436 1.882 1.882 0 00-1.422-.588 1.936 1.936 0 00-1.613.752 3.3 3.3 0 00-.588 2.078 2.956 2.956 0 00.564 1.91 1.839 1.839 0 001.514.7 1.918 1.918 0 001.521-.677 2.525 2.525 0 00.585-1.707zM931.095 592.376a.711.711 0 01-.513-.205.69.69 0 01-.212-.52.717.717 0 01.725-.731.728.728 0 01.523.208.732.732 0 010 1.036.719.719 0 01-.523.212zm.547 8.777h-1.121v-7h1.121zM936.837 601.318a3.251 3.251 0 01-2.479-.98 3.636 3.636 0 01-.926-2.6 3.786 3.786 0 01.964-2.755 3.464 3.464 0 012.6-.991 3.137 3.137 0 012.443.964 3.82 3.82 0 01.879 2.673 3.761 3.761 0 01-.947 2.684 3.317 3.317 0 01-2.534 1.005zm.082-6.385a2.134 2.134 0 00-1.709.734 3.022 3.022 0 00-.629 2.027 2.855 2.855 0 00.636 1.962 2.161 2.161 0 001.7.718 2.051 2.051 0 001.672-.7 3.061 3.061 0 00.584-2 3.113 3.113 0 00-.584-2.023 2.044 2.044 0 00-1.67-.718z"/>
    </g>
    <path fill="#682a7a" d="M910.94 517.692v48.968l-42.833-6.218 42.833 14.25 14-6v-44.5l-14-6.5z"/>
    <path d="M887.011 542.276l8.436-6.686v13.132zM874.8 547.05v-9.55l4.775 4.854zm20.556-20.691l-12.594 12.653-8.088-6.286-3.153 1.671v15.917l3.143 1.591 8.018-6.208 12.685 12.495 7.987-3.183v-25.546z" fill="#682a7a"/>
    <path d="M1095.124 548.9a27.034 27.034 0 11-27-26.994 27.024 27.024 0 0127 26.994" fill="#f2f2f2"/>
    <path d="M1067.9 575.979a27.7 27.7 0 01-13.916-3.957v-1.445l-.076-1.369-.151-2.739-.233-5.016-.228-4.336v-.3l3.5-.227.757-.075 10.039-.688.305-.076h.151v20.231z" fill="#7fba00"/>
    <path fill="#7fba00" d="M1054.138 561.301l-1.673-8.443 14.673-2.965 1.676 8.442-14.676 2.966z"/>
    <path d="M1082.653 556.814v.227l-.226 4.411-.3 6.462-.159 2.436v1.823a26.754 26.754 0 01-13.838 3.806h-.226v-20.231h.151l.226.075 10.117.688.687.076z" fill="#7fba00"/>
    <path d="M1083.032 571.492c-.3-1.218-.605-2.436-.908-3.578a215.77 215.77 0 00-1.982-6.84l-.074-.076a1.1 1.1 0 00-.152-.461 59.437 59.437 0 00-.682-2.505 4.732 4.732 0 01-.151-1.445 3.712 3.712 0 012.505-2.89 4.621 4.621 0 011.747-.076 3.583 3.583 0 012.588 2.505c.228.764.53 1.6.764 2.512.074.151.074.227.151.379.6 2.133 1.369 4.562 2.051 7.149a25.955 25.955 0 01-5.857 5.326" fill="#7fba00"/>
    <path fill="#7fba00" d="M1081.74 561.301l-14.602-2.966 1.677-8.442 14.672 2.965-1.747 8.443z"/>
    <path d="M1089.577 565.4a7.09 7.09 0 01-.687.764 25.977 25.977 0 01-5.858 5.325c-.226.152-.379.228-.6.379-.151-.454-.3-.99-.461-1.52-.909-3.118-1.975-6.923-2.732-9.353a.281.281 0 00-.077-.233c-.308-1.06-.536-1.975-.687-2.505l.764-.228 3.419-.99 3.27-.915.838-.227a3.015 3.015 0 00.151.688c.152.529.38 1.211.608 1.9.536 1.975 1.293 4.487 2.057 6.916" fill="#7fba00"/>
    <path d="M1078.319 557.269a4.337 4.337 0 008.67-.228 4.337 4.337 0 00-8.67.228M1056.643 558.259c-.3.681-.606 1.521-.909 2.429 0 .152-.076.227-.076.309-.076.076-.076.152-.076.3-.611 1.52-1.217 3.268-1.823 5.167-.461 1.446-.991 2.891-1.445 4.412a27.038 27.038 0 01-5.629-5.4c.757-2.435 1.6-4.644 2.278-6.544a5.15 5.15 0 01.151-.53c.31-.915.612-1.672.84-2.436a3.462 3.462 0 014.486-2.2 3.7 3.7 0 012.361 2.815 4.229 4.229 0 01-.158 1.672" fill="#7fba00"/>
    <path d="M1057.406 558.486a.277.277 0 00-.076.227c-.227.53-.454 1.218-.763 2.127-.682 2.208-1.748 5.4-2.657 8.367-.309.764-.536 1.521-.763 2.284-.3-.233-.531-.384-.833-.611a27.015 27.015 0 01-5.629-5.4c-.152-.233-.3-.46-.461-.687 1.142-3.648 2.436-7.377 2.89-8.9a.278.278 0 00.076-.227l.763.3 3.345 1.142 3.345 1.143z" fill="#7fba00"/>
    <path d="M1057.557 556.738a4.317 4.317 0 11-4.713-3.881 4.339 4.339 0 014.713 3.881" fill="#7fba00"/>
    <path d="M1067.522 554.833c-2.814 0-5.1-1.748-5.1-4.563v-3.647h10.192v3.647c0 2.815-2.28 4.563-5.093 4.563" fill="#d8b195"/>
    <path d="M1067.522 527.837c-4.562 0-7.837 4.87-7.989 10.953a1.1 1.1 0 01.152-.459c.536-1.6 3.123-.911 2.511.687a10.153 10.153 0 00-.833 2.967 8 8 0 00.152 1.9 1.257 1.257 0 01.984 1.295v2.662a7.69 7.69 0 002.511 1.672 3.917 3.917 0 005.018 0 7.387 7.387 0 002.587-1.749v-3.115a1.231 1.231 0 01.99-1.219v-2.361c0-.151-.151-.454 0-.151-.687-1.37 1.067-2.588 1.975-1.672 0-6.312-2.2-11.41-8.058-11.41" fill="#b8977c"/>
    <path d="M1075.58 538.868c0 6.385-3.421 10.722-8.058 10.722s-7.989-4.337-7.989-10.722c0-6.317 3.351-11.41 7.989-11.41 5.855 0 8.058 5.093 8.058 11.41" fill="#d8b195"/>
    <path d="M1060.3 537.421h-1.066a.851.851 0 00-.758.911v3.193c0 .535.3.915.758.915h.763zM1074.746 537.421h1.062a.85.85 0 01.761.911v3.193c0 .535-.3.915-.761.915h-.76z" fill="#d8b195"/>
    <path d="M1064.1 539.17a.609.609 0 100-1.218.613.613 0 100 1.218M1071.169 539.247a.6.6 0 00.613-.608.734.734 0 00-.687-.61.652.652 0 00-.608.61.582.582 0 00.682.608"/>
    <path d="M1062.808 546.32h9.428c-1.141 2.277-2.814 3.647-4.714 3.647s-3.578-1.37-4.714-3.647" fill="#d8b195"/>
    <path d="M1069.194 542.363a.59.59 0 01-.613.531c-.074 0-.151.151-.377.308a.965.965 0 01-.682.3 1.144 1.144 0 01-.687-.3c-.153-.157-.3-.308-.38-.308a.586.586 0 01-.606-.531v-.074h3.345z" fill="#b8977c"/>
    <path d="M1067.522 537.65v4.639h-1.672a.646.646 0 01.227-.379 2.116 2.116 0 00.606-1.37l.075-2.587c0-.606.613-.3.764-.3" fill="#e6ccb9"/>
    <path d="M1075.731 534.305v6.917h-.683l-.377-8.287-2.284.3a40.386 40.386 0 01-9.579 0l-2.209-.3-.454 8.209h-.688v-6.839c0-4.108 2.814-7.453 6.316-7.453h3.649c3.5 0 6.309 3.345 6.309 7.453"/>
    <path d="M1073.454 540.16a1.318 1.318 0 01-1.219.759h-1.749a1.964 1.964 0 01-1.672-1.295 5.438 5.438 0 01-.308-1.672v-.3c.075-.151.157-.228.234-.38a1.829 1.829 0 011.136-.384h1.98a2.684 2.684 0 011.446.384 1.34 1.34 0 01.377.608v.075a11 11 0 01-.074 1.6v.151a4.127 4.127 0 01-.151.459m.3-2.208v-.075a1.04 1.04 0 00-.379-.682c-.226-.31-1.067-.385-1.521-.385h-1.98a1.644 1.644 0 00-1.213.385 1.113 1.113 0 00-.308.606v.151a4.2 4.2 0 00.385 1.749 2.059 2.059 0 001.746 1.293 6.708 6.708 0 001.749 0 1.473 1.473 0 001.219-.606 2.2 2.2 0 00.3-.838v-.077a5.014 5.014 0 000-1.521M1066.3 539.624a1.967 1.967 0 01-1.672 1.295h-1.672c-.688-.076-.991-.228-1.219-.608a1.315 1.315 0 01-.226-.761 10.7 10.7 0 01-.076-1.6v-.074a.567.567 0 01.152-.3.407.407 0 01.227-.3 2.663 2.663 0 011.445-.385h1.974a1.683 1.683 0 011.143.385c.075.151.151.228.227.38v.3a5.584 5.584 0 01-.3 1.672m.454-1.823a.777.777 0 00-.3-.6 1.642 1.642 0 00-1.218-.385h-1.974c-.455 0-1.294.074-1.522.385l-.3.3a.686.686 0 00-.076.38v.074a11.192 11.192 0 000 1.6 1.78 1.78 0 00.3.838 1.455 1.455 0 001.218.606 6.637 6.637 0 001.748 0 1.975 1.975 0 001.748-1.293 4.29 4.29 0 00.378-1.749z"/>
    <path d="M1073.68 536.885a2.165 2.165 0 00-1.444-.3 22.016 22.016 0 00-2.285-.074c-.682.074-1.21.074-1.444.454a1.227 1.227 0 00-.3.536v-.077h-1.3v.077a3.59 3.59 0 00-.226-.536c-.3-.38-.833-.38-1.521-.454a22.673 22.673 0 00-2.278.074 2.161 2.161 0 00-1.445.3 2.022 2.022 0 00-.461.992c0 .075.537.075.537 0a1.154 1.154 0 01.3-.608 1.994 1.994 0 011.293-.307 9.819 9.819 0 012.127 0 1.552 1.552 0 011.142.307 1.149 1.149 0 01.227.532h1.9a1.134 1.134 0 01.234-.532 1.659 1.659 0 011.136-.307 9.855 9.855 0 012.131 0 2.02 2.02 0 011.3.307.94.94 0 01.3.608c0 .075.532 0 .532 0a2.027 2.027 0 00-.457-.992"/>
    <path d="M1067.6 546.471a11.8 11.8 0 01-2.662-.379c-.227 0-.3-.234-.3-.459.076-.152.3-.3.454-.229a10.853 10.853 0 004.942 0c.234-.074.459.077.459.229a.337.337 0 01-.3.459 11.231 11.231 0 01-2.587.379" fill="#a71e22"/>
    <path d="M191.238 211.694v34.5c0 3.582 8.019 6.487 17.909 6.487v-40.987z" fill="#0072c6"/>
    <path d="M208.9 252.684h.246c9.89 0 17.908-2.9 17.908-6.486v-34.5H208.9z" fill="#0072c6"/>
    <g clip-path="url(#g)" opacity=".15">
        <path d="M208.676 252.684h.249c10.013 0 18.131-2.911 18.131-6.5v-34.6h-18.38z" fill="#fff"/>
    </g>
    <path d="M227.056 211.694c0 3.582-8.019 6.486-17.909 6.486s-17.909-2.9-17.909-6.486 8.019-6.486 17.909-6.486 17.909 2.9 17.909 6.486" fill="#fff"/>
    <path d="M223.394 211.32c0 2.365-6.379 4.28-14.247 4.28s-14.249-1.915-14.249-4.28 6.38-4.279 14.249-4.279 14.247 1.915 14.247 4.279" fill="#7fba00"/>
    <path d="M220.41 213.935c1.865-.723 2.986-1.629 2.986-2.613 0-2.365-6.379-4.281-14.248-4.281s-14.248 1.916-14.248 4.281c0 .984 1.121 1.89 2.986 2.613a38.944 38.944 0 0122.524 0" fill="#b8d432"/>
    <path d="M219.065 235.594a10.444 10.444 0 00-8.152-10.17v2.031a8.455 8.455 0 010 16.279v2.03a10.444 10.444 0 008.152-10.17M200.161 235.594a8.459 8.459 0 015.916-8.052v-2.06a10.421 10.421 0 000 20.224v-2.06a8.459 8.459 0 01-5.916-8.052" fill="#fff"/>
    <path fill="#fff" d="M207.08 223.927l-7.413 1.009 7.392 6.471.021-7.48zM210.364 246.795l7.419-.959-7.348-6.521-.071 7.48z"/>
    
        <circle cx="210.456" cy="171.976" fill="#a5ce00" r="17.5"/>
        <text fill="#1a1a1a" font-family="SegoeUI, Segoe UI" font-size="16" transform="translate(206.693 179.842)">
            5
        </text>
    
    
        <circle cx="554.348" cy="17.5" fill="#a5ce00" r="17.5"/>
        <text fill="#1a1a1a" font-family="SegoeUI, Segoe UI" font-size="16" transform="translate(549.728 23.905)">
            3
        </text>
    
    
        <circle cx="984.826" cy="71.497" fill="#a5ce00" r="17.5"/>
        <text fill="#1a1a1a" font-family="SegoeUI, Segoe UI" font-size="16" transform="translate(980.03 79.64)">
            9
        </text>
    
    
        <circle cx="726.839" cy="159.993" fill="#a5ce00" r="17.5"/>
        <text fill="#1a1a1a" font-family="SegoeUI, Segoe UI" font-size="16" transform="translate(721.702 165.842)">
            4
        </text>
    
    
        <circle cx="900.831" cy="323.485" fill="#a5ce00" r="17.5"/>
        <text fill="#1a1a1a" font-family="SegoeUI, Segoe UI" font-size="16" transform="translate(895.886 330.89)">
            6
        </text>
    
    
        <circle cx="641.344" cy="552.973" fill="#a5ce00" r="17.5"/>
        <text fill="#1a1a1a" font-family="SegoeUI, Segoe UI" font-size="16" transform="translate(635.985 558.755)">
            8
        </text>
    
    
        <circle cx="812.335" cy="554.473" fill="#a5ce00" r="17.5"/>
        <text fill="#1a1a1a" font-family="SegoeUI, Segoe UI" font-size="16" transform="translate(808.665 560.386)">
            7
        </text>
    
    
        <circle cx="987.826" cy="552.973" fill="#a5ce00" r="17.5"/>
        <text fill="#1a1a1a" font-family="SegoeUI, Segoe UI" font-size="16" transform="translate(982.25 559.648)">
            1
        </text>
    
    
        <circle cx="728.839" cy="18.5" fill="#a5ce00" r="17.5"/>
        <text fill="#1a1a1a" font-family="SegoeUI, Segoe UI" font-size="16" transform="translate(723.62 24.905)">
            2
        </text>
    
</svg>
