<?xml version="1.0" encoding="utf-8"?>
<!-- Generator: Adobe Illustrator 27.2.0, SVG Export Plug-In . SVG Version: 6.00 Build 0)  -->
<svg version="1.1" xmlns="http://www.w3.org/2000/svg" xmlns:xlink="http://www.w3.org/1999/xlink" x="0px" y="0px"
	 viewBox="0 0 805.2 352" enable-background="new 0 0 805.2 352" xml:space="preserve" width="805.2px" height="352px">
<symbol  id="PIPELINE" viewBox="-32 -12.266 64 24.531">
	<linearGradient id="SVGID_1_" gradientUnits="userSpaceOnUse" x1="0" y1="-12.2655" x2="1.502093e-15" y2="12.2655">
		<stop  offset="0" style="stop-color:#1B89B2"/>
		<stop  offset="1" style="stop-color:#51C8E8"/>
	</linearGradient>
	<path fill="url(#SVGID_1_)" d="M26.096,12.266h-51.448v0h0C-29.08,12.265-32,6.878-32,0s2.92-12.265,6.648-12.265h0v0h51.448
		C29.356-12.266,32-6.363,32,0S29.356,12.266,26.096,12.266z"/>
	<g>
		
			<linearGradient id="SVGID_00000003823578318262461920000002842566686054143155_" gradientUnits="userSpaceOnUse" x1="-31.461" y1="-6.1136" x2="-19.2338" y2="6.1136">
			<stop  offset="0" style="stop-color:#B3B4B4"/>
			<stop  offset="1" style="stop-color:#4F4F4F"/>
		</linearGradient>
		<ellipse fill="url(#SVGID_00000003823578318262461920000002842566686054143155_)" cx="-25.347" cy="0" rx="5.575" ry="10.879"/>
	</g>
</symbol>
<g id="Shapes">
	<rect fill="#FFFFFF" width="805.2" height="352"/>
	<g id="Wrench_tool_x28_s_x29_">
	</g>
	<g id="user2">
	</g>
	<g id="user2_1_">
	</g>
	<g id="user2_4_">
	</g>
	<g id="user2_3_">
	</g>
	<g id="user2_2_">
	</g>
	<g id="Internet_2">
	</g>
	<g id="Enterprise">
	</g>
	<g id="Tunnel__x28_stackable_x29_">
	</g>
	<g id="New_Symbol">
	</g>
	<g id="New_Symbol_1">
	</g>
	<g id="Files">
	</g>
	<g id="BlobBlock">
	</g>
	<g id="E_x5F_Enterprise">
	</g>
	<g id="E_x5F_AD_FS">
	</g>
	<g id="C_x5F_Azure_Active_Directory">
	</g>
	<g>
		<g opacity="0.23">
			<rect x="13.479" y="40.6" width="378.4" height="299.2"/>
			<rect x="13.479" y="40.6" opacity="0.25" width="378.4" height="299.2"/>
		</g>
		<g>
			<rect x="12.479" y="39.6" fill="#FFFFFF" width="378.4" height="299.2"/>
			<rect x="12.479" y="39.6" opacity="0.25" fill="#FFB34D" width="378.4" height="299.2"/>
		</g>
	</g>
	<g>
		<g opacity="0.25">
			<rect x="27.9" y="84.7" width="167.2" height="101.2"/>
			<rect x="27.9" y="84.7" opacity="0.2" width="167.2" height="101.2"/>
		</g>
		<g>
			<rect x="26.4" y="83.2" fill="#FFFFFF" width="167.2" height="101.2"/>
			<rect x="26.4" y="83.2" opacity="0.2" fill="#1B93EB" width="167.2" height="101.2"/>
		</g>
	</g>
	<g>
		<g opacity="0.25">
			<rect x="208.3" y="84.7" width="167.2" height="101.2"/>
			<rect x="208.3" y="84.7" opacity="0.2" width="167.2" height="101.2"/>
		</g>
		<g>
			<rect x="206.8" y="83.2" fill="#FFFFFF" width="167.2" height="101.2"/>
			<rect x="206.8" y="83.2" opacity="0.2" fill="#1B93EB" width="167.2" height="101.2"/>
		</g>
	</g>
	<g>
		<g opacity="0.25">
			<rect x="27.9" y="221.5" width="167.2" height="101.2"/>
			<rect x="27.9" y="221.5" opacity="0.2" width="167.2" height="101.2"/>
		</g>
		<g>
			<rect x="26.4" y="220" fill="#FFFFFF" width="167.2" height="101.2"/>
			<rect x="26.4" y="220" opacity="0.2" fill="#1B93EB" width="167.2" height="101.2"/>
		</g>
	</g>
	<g>
		<g opacity="0.25">
			<rect x="208.3" y="221.5" width="167.2" height="101.2"/>
			<rect x="208.3" y="221.5" opacity="0.2" width="167.2" height="101.2"/>
		</g>
		<g>
			<rect x="206.8" y="220" fill="#FFFFFF" width="167.2" height="101.2"/>
			<rect x="206.8" y="220" opacity="0.2" fill="#1B93EB" width="167.2" height="101.2"/>
		</g>
	</g>
	<circle fill="#1F56A3" cx="290.4" cy="133.8" r="20"/>
	<g>
		<circle fill="#1F56A3" cx="55" cy="133.8" r="10"/>
		<circle fill="#1F56A3" cx="82.5" cy="133.8" r="10"/>
		<circle fill="#1F56A3" cx="110" cy="133.8" r="10"/>
		<circle fill="#1F56A3" cx="137.5" cy="133.8" r="10"/>
		<circle fill="#1F56A3" cx="165" cy="133.8" r="10"/>
	</g>
	<g>
		<circle fill="#1F56A3" cx="235.4" cy="270.6" r="10"/>
		<circle fill="#1F56A3" cx="262.9" cy="270.6" r="10"/>
		<circle fill="#1F56A3" cx="290.4" cy="270.6" r="10"/>
		<circle fill="#1F56A3" cx="317.9" cy="270.6" r="10"/>
		<circle fill="#1F56A3" cx="345.4" cy="270.6" r="10"/>
	</g>
	<g>
		<circle fill="#1F56A3" cx="150.9" cy="270.6" r="15"/>
		<circle fill="#1F56A3" cx="110" cy="270.6" r="15"/>
		<circle fill="#1F56A3" cx="69.1" cy="270.6" r="15"/>
	</g>
	<g>
		<g opacity="0.23">
			<rect x="413.879" y="40.6" width="378.4" height="299.2"/>
			<rect x="413.879" y="40.6" opacity="0.25" width="378.4" height="299.2"/>
		</g>
		<g>
			<rect x="412.879" y="39.6" fill="#FFFFFF" width="378.4" height="299.2"/>
			<rect x="412.879" y="39.6" opacity="0.25" fill="#FFB34D" width="378.4" height="299.2"/>
		</g>
	</g>
	<g>
		<g opacity="0.25">
			<rect x="434.896" y="86.2" width="167.2" height="101.2"/>
			<rect x="434.896" y="86.2" width="167.2" height="101.2"/>
			<rect x="434.896" y="86.2" width="167.2" height="101.2"/>
			<rect x="433.396" y="84.7" width="167.2" height="101.2"/>
			<rect x="433.396" y="84.7" width="167.2" height="101.2"/>
			<rect x="433.396" y="84.7" width="167.2" height="101.2"/>
			<circle cx="456.9" cy="135.3" r="10"/>
			<circle cx="484.4" cy="135.3" r="10"/>
			<circle cx="511.9" cy="135.3" r="10"/>
			<circle cx="539.4" cy="135.3" r="10"/>
			<circle cx="566.9" cy="135.3" r="10"/>
			<rect x="434.896" y="86.2" width="167.2" height="101.2"/>
			<rect x="434.896" y="86.2" width="167.2" height="101.2"/>
			<rect x="434.896" y="86.2" width="167.2" height="101.2"/>
			<rect x="433.396" y="84.7" width="167.2" height="101.2"/>
			<rect x="433.396" y="84.7" width="167.2" height="101.2"/>
			<rect x="433.396" y="84.7" width="167.2" height="101.2"/>
			<circle cx="456.9" cy="135.3" r="10"/>
			<circle cx="484.4" cy="135.3" r="10"/>
			<circle cx="511.9" cy="135.3" r="10"/>
			<circle cx="539.4" cy="135.3" r="10"/>
			<circle cx="566.9" cy="135.3" r="10"/>
			<rect x="434.896" y="86.2" width="167.2" height="101.2"/>
			<rect x="434.896" y="86.2" opacity="0.2" width="167.2" height="101.2"/>
			<rect x="433.396" y="84.7" width="167.2" height="101.2"/>
			<rect x="433.396" y="84.7" opacity="0.2" width="167.2" height="101.2"/>
			<circle cx="456.9" cy="135.3" r="10"/>
			<circle cx="484.4" cy="135.3" r="10"/>
			<circle cx="511.9" cy="135.3" r="10"/>
			<circle cx="539.4" cy="135.3" r="10"/>
			<circle cx="566.9" cy="135.3" r="10"/>
		</g>
		<g>
			<g>
				<g>
					<g>
						<rect x="433.396" y="84.7" fill="#FFFFFF" width="167.2" height="101.2"/>
						<rect x="433.396" y="84.7" fill="#FFFFFF" width="167.2" height="101.2"/>
						<rect x="433.396" y="84.7" fill="#FFFFFF" width="167.2" height="101.2"/>
					</g>
					<g>
						<rect x="431.896" y="83.2" fill="#FFFFFF" width="167.2" height="101.2"/>
						<rect x="431.896" y="83.2" fill="#FFFFFF" width="167.2" height="101.2"/>
						<rect x="431.896" y="83.2" fill="#FFFFFF" width="167.2" height="101.2"/>
					</g>
				</g>
				<g>
					<circle fill="#FFFFFF" cx="455.4" cy="133.8" r="10"/>
					<circle fill="#FFFFFF" cx="482.9" cy="133.8" r="10"/>
					<circle fill="#FFFFFF" cx="510.4" cy="133.8" r="10"/>
					<circle fill="#FFFFFF" cx="537.9" cy="133.8" r="10"/>
					<circle fill="#FFFFFF" cx="565.4" cy="133.8" r="10"/>
				</g>
			</g>
			<g opacity="0.2">
				<g>
					<g>
						<rect x="433.396" y="84.7" fill="#1B93EB" width="167.2" height="101.2"/>
						<rect x="433.396" y="84.7" fill="#1B93EB" width="167.2" height="101.2"/>
						<rect x="433.396" y="84.7" fill="#1B93EB" width="167.2" height="101.2"/>
					</g>
					<g>
						<rect x="431.896" y="83.2" fill="#1B93EB" width="167.2" height="101.2"/>
						<rect x="431.896" y="83.2" fill="#1B93EB" width="167.2" height="101.2"/>
						<rect x="431.896" y="83.2" fill="#1B93EB" width="167.2" height="101.2"/>
					</g>
				</g>
				<g>
					<circle fill="#1B93EB" cx="455.4" cy="133.8" r="10"/>
					<circle fill="#1B93EB" cx="482.9" cy="133.8" r="10"/>
					<circle fill="#1B93EB" cx="510.4" cy="133.8" r="10"/>
					<circle fill="#1B93EB" cx="537.9" cy="133.8" r="10"/>
					<circle fill="#1B93EB" cx="565.4" cy="133.8" r="10"/>
				</g>
			</g>
			<g>
				<g>
					<g opacity="0.25">
						<rect x="433.396" y="84.7" width="167.2" height="101.2"/>
						<rect x="433.396" y="84.7" opacity="0.2" width="167.2" height="101.2"/>
					</g>
					<g>
						<rect x="431.896" y="83.2" fill="#FFFFFF" width="167.2" height="101.2"/>
						<rect x="431.896" y="83.2" opacity="0.2" fill="#1B93EB" width="167.2" height="101.2"/>
					</g>
				</g>
				<g>
					<circle fill="#1F56A3" cx="455.4" cy="133.8" r="10"/>
					<circle fill="#1F56A3" cx="482.9" cy="133.8" r="10"/>
					<circle fill="#1F56A3" cx="510.4" cy="133.8" r="10"/>
					<circle fill="#1F56A3" cx="537.9" cy="133.8" r="10"/>
					<circle fill="#1F56A3" cx="565.4" cy="133.8" r="10"/>
				</g>
			</g>
		</g>
	</g>
	<g>
		<g opacity="0.25">
			<rect x="434.896" y="223" width="167.2" height="101.2"/>
			<rect x="434.896" y="223" width="167.2" height="101.2"/>
			<rect x="434.896" y="223" width="167.2" height="101.2"/>
			<rect x="433.396" y="221.5" width="167.2" height="101.2"/>
			<rect x="433.396" y="221.5" width="167.2" height="101.2"/>
			<rect x="433.396" y="221.5" width="167.2" height="101.2"/>
			<circle cx="456.9" cy="272.1" r="10"/>
			<circle cx="484.4" cy="272.1" r="10"/>
			<circle cx="511.9" cy="272.1" r="10"/>
			<circle cx="539.4" cy="272.1" r="10"/>
			<circle cx="566.9" cy="272.1" r="10"/>
			<rect x="434.896" y="223" width="167.2" height="101.2"/>
			<rect x="434.896" y="223" width="167.2" height="101.2"/>
			<rect x="434.896" y="223" width="167.2" height="101.2"/>
			<rect x="433.396" y="221.5" width="167.2" height="101.2"/>
			<rect x="433.396" y="221.5" width="167.2" height="101.2"/>
			<rect x="433.396" y="221.5" width="167.2" height="101.2"/>
			<circle cx="456.9" cy="272.1" r="10"/>
			<circle cx="484.4" cy="272.1" r="10"/>
			<circle cx="511.9" cy="272.1" r="10"/>
			<circle cx="539.4" cy="272.1" r="10"/>
			<circle cx="566.9" cy="272.1" r="10"/>
			<rect x="434.896" y="223" width="167.2" height="101.2"/>
			<rect x="434.896" y="223" opacity="0.2" width="167.2" height="101.2"/>
			<rect x="433.396" y="221.5" width="167.2" height="101.2"/>
			<rect x="433.396" y="221.5" opacity="0.2" width="167.2" height="101.2"/>
			<circle cx="456.9" cy="272.1" r="10"/>
			<circle cx="484.4" cy="272.1" r="10"/>
			<circle cx="511.9" cy="272.1" r="10"/>
			<circle cx="539.4" cy="272.1" r="10"/>
			<circle cx="566.9" cy="272.1" r="10"/>
		</g>
		<g>
			<g>
				<g>
					<g>
						<rect x="433.396" y="221.5" fill="#FFFFFF" width="167.2" height="101.2"/>
						<rect x="433.396" y="221.5" fill="#FFFFFF" width="167.2" height="101.2"/>
						<rect x="433.396" y="221.5" fill="#FFFFFF" width="167.2" height="101.2"/>
					</g>
					<g>
						<rect x="431.896" y="220" fill="#FFFFFF" width="167.2" height="101.2"/>
						<rect x="431.896" y="220" fill="#FFFFFF" width="167.2" height="101.2"/>
						<rect x="431.896" y="220" fill="#FFFFFF" width="167.2" height="101.2"/>
					</g>
				</g>
				<g>
					<circle fill="#FFFFFF" cx="455.4" cy="270.6" r="10"/>
					<circle fill="#FFFFFF" cx="482.9" cy="270.6" r="10"/>
					<circle fill="#FFFFFF" cx="510.4" cy="270.6" r="10"/>
					<circle fill="#FFFFFF" cx="537.9" cy="270.6" r="10"/>
					<circle fill="#FFFFFF" cx="565.4" cy="270.6" r="10"/>
				</g>
			</g>
			<g opacity="0.2">
				<g>
					<g>
						<rect x="433.396" y="221.5" fill="#1B93EB" width="167.2" height="101.2"/>
						<rect x="433.396" y="221.5" fill="#1B93EB" width="167.2" height="101.2"/>
						<rect x="433.396" y="221.5" fill="#1B93EB" width="167.2" height="101.2"/>
					</g>
					<g>
						<rect x="431.896" y="220" fill="#1B93EB" width="167.2" height="101.2"/>
						<rect x="431.896" y="220" fill="#1B93EB" width="167.2" height="101.2"/>
						<rect x="431.896" y="220" fill="#1B93EB" width="167.2" height="101.2"/>
					</g>
				</g>
				<g>
					<circle fill="#1B93EB" cx="455.4" cy="270.6" r="10"/>
					<circle fill="#1B93EB" cx="482.9" cy="270.6" r="10"/>
					<circle fill="#1B93EB" cx="510.4" cy="270.6" r="10"/>
					<circle fill="#1B93EB" cx="537.9" cy="270.6" r="10"/>
					<circle fill="#1B93EB" cx="565.4" cy="270.6" r="10"/>
				</g>
			</g>
			<g>
				<g>
					<g opacity="0.25">
						<rect x="433.396" y="221.5" width="167.2" height="101.2"/>
						<rect x="433.396" y="221.5" opacity="0.2" width="167.2" height="101.2"/>
					</g>
					<g>
						<rect x="431.896" y="220" fill="#FFFFFF" width="167.2" height="101.2"/>
						<rect x="431.896" y="220" opacity="0.2" fill="#1B93EB" width="167.2" height="101.2"/>
					</g>
				</g>
				<g>
					<circle fill="#1F56A3" cx="455.4" cy="270.6" r="10"/>
					<circle fill="#1F56A3" cx="482.9" cy="270.6" r="10"/>
					<circle fill="#1F56A3" cx="510.4" cy="270.6" r="10"/>
					<circle fill="#1F56A3" cx="537.9" cy="270.6" r="10"/>
					<circle fill="#1F56A3" cx="565.4" cy="270.6" r="10"/>
				</g>
			</g>
		</g>
	</g>
	<g>
		<g opacity="0.25">
			<rect x="614.6" y="86.6" width="167.2" height="101.2"/>
			<rect x="614.6" y="86.6" width="167.2" height="101.2"/>
			<rect x="614.6" y="86.6" width="167.2" height="101.2"/>
			<rect x="613.1" y="85.1" width="167.2" height="101.2"/>
			<rect x="613.1" y="85.1" width="167.2" height="101.2"/>
			<rect x="613.1" y="85.1" width="167.2" height="101.2"/>
			<circle cx="732.504" cy="135.7" r="15"/>
			<circle cx="691.604" cy="135.7" r="15"/>
			<circle cx="650.704" cy="135.7" r="15"/>
			<rect x="614.6" y="86.6" width="167.2" height="101.2"/>
			<rect x="614.6" y="86.6" width="167.2" height="101.2"/>
			<rect x="614.6" y="86.6" width="167.2" height="101.2"/>
			<rect x="613.1" y="85.1" width="167.2" height="101.2"/>
			<rect x="613.1" y="85.1" width="167.2" height="101.2"/>
			<rect x="613.1" y="85.1" width="167.2" height="101.2"/>
			<circle cx="732.504" cy="135.7" r="15"/>
			<circle cx="691.604" cy="135.7" r="15"/>
			<circle cx="650.704" cy="135.7" r="15"/>
			<rect x="614.6" y="86.6" width="167.2" height="101.2"/>
			<rect x="614.6" y="86.6" opacity="0.2" width="167.2" height="101.2"/>
			<rect x="613.1" y="85.1" width="167.2" height="101.2"/>
			<rect x="613.1" y="85.1" opacity="0.2" width="167.2" height="101.2"/>
			<circle cx="732.504" cy="135.7" r="15"/>
			<circle cx="691.604" cy="135.7" r="15"/>
			<circle cx="650.704" cy="135.7" r="15"/>
		</g>
		<g>
			<g>
				<g>
					<g>
						<rect x="613.1" y="85.1" fill="#FFFFFF" width="167.2" height="101.2"/>
						<rect x="613.1" y="85.1" fill="#FFFFFF" width="167.2" height="101.2"/>
						<rect x="613.1" y="85.1" fill="#FFFFFF" width="167.2" height="101.2"/>
					</g>
					<g>
						<rect x="611.6" y="83.6" fill="#FFFFFF" width="167.2" height="101.2"/>
						<rect x="611.6" y="83.6" fill="#FFFFFF" width="167.2" height="101.2"/>
						<rect x="611.6" y="83.6" fill="#FFFFFF" width="167.2" height="101.2"/>
					</g>
				</g>
				<g>
					<circle fill="#FFFFFF" cx="731.004" cy="134.2" r="15"/>
					<circle fill="#FFFFFF" cx="690.104" cy="134.2" r="15"/>
					<circle fill="#FFFFFF" cx="649.204" cy="134.2" r="15"/>
				</g>
			</g>
			<g opacity="0.2">
				<g>
					<g>
						<rect x="613.1" y="85.1" fill="#1B93EB" width="167.2" height="101.2"/>
						<rect x="613.1" y="85.1" fill="#1B93EB" width="167.2" height="101.2"/>
						<rect x="613.1" y="85.1" fill="#1B93EB" width="167.2" height="101.2"/>
					</g>
					<g>
						<rect x="611.6" y="83.6" fill="#1B93EB" width="167.2" height="101.2"/>
						<rect x="611.6" y="83.6" fill="#1B93EB" width="167.2" height="101.2"/>
						<rect x="611.6" y="83.6" fill="#1B93EB" width="167.2" height="101.2"/>
					</g>
				</g>
				<g>
					<circle fill="#1B93EB" cx="731.004" cy="134.2" r="15"/>
					<circle fill="#1B93EB" cx="690.104" cy="134.2" r="15"/>
					<circle fill="#1B93EB" cx="649.204" cy="134.2" r="15"/>
				</g>
			</g>
			<g>
				<g>
					<g opacity="0.25">
						<rect x="613.1" y="85.1" width="167.2" height="101.2"/>
						<rect x="613.1" y="85.1" opacity="0.2" width="167.2" height="101.2"/>
					</g>
					<g>
						<rect x="611.6" y="83.6" fill="#FFFFFF" width="167.2" height="101.2"/>
						<rect x="611.6" y="83.6" opacity="0.2" fill="#1B93EB" width="167.2" height="101.2"/>
					</g>
				</g>
				<g>
					<circle fill="#1F56A3" cx="731.004" cy="134.2" r="15"/>
					<circle fill="#1F56A3" cx="690.104" cy="134.2" r="15"/>
					<circle fill="#1F56A3" cx="649.204" cy="134.2" r="15"/>
				</g>
			</g>
		</g>
	</g>
	<g>
		<g opacity="0.25">
			<rect x="614.6" y="223" width="167.2" height="101.2"/>
			<rect x="614.6" y="223" width="167.2" height="101.2"/>
			<rect x="614.6" y="223" width="167.2" height="101.2"/>
			<rect x="613.1" y="221.5" width="167.2" height="101.2"/>
			<rect x="613.1" y="221.5" width="167.2" height="101.2"/>
			<rect x="613.1" y="221.5" width="167.2" height="101.2"/>
			<circle cx="732.504" cy="272.1" r="15"/>
			<circle cx="691.604" cy="272.1" r="15"/>
			<circle cx="650.704" cy="272.1" r="15"/>
			<rect x="614.6" y="223" width="167.2" height="101.2"/>
			<rect x="614.6" y="223" width="167.2" height="101.2"/>
			<rect x="614.6" y="223" width="167.2" height="101.2"/>
			<rect x="613.1" y="221.5" width="167.2" height="101.2"/>
			<rect x="613.1" y="221.5" width="167.2" height="101.2"/>
			<rect x="613.1" y="221.5" width="167.2" height="101.2"/>
			<circle cx="732.504" cy="272.1" r="15"/>
			<circle cx="691.604" cy="272.1" r="15"/>
			<circle cx="650.704" cy="272.1" r="15"/>
			<rect x="614.6" y="223" width="167.2" height="101.2"/>
			<rect x="614.6" y="223" opacity="0.2" width="167.2" height="101.2"/>
			<rect x="613.1" y="221.5" width="167.2" height="101.2"/>
			<rect x="613.1" y="221.5" opacity="0.2" width="167.2" height="101.2"/>
			<circle cx="732.504" cy="272.1" r="15"/>
			<circle cx="691.604" cy="272.1" r="15"/>
			<circle cx="650.704" cy="272.1" r="15"/>
		</g>
		<g>
			<g>
				<g>
					<g>
						<rect x="613.1" y="221.5" fill="#FFFFFF" width="167.2" height="101.2"/>
						<rect x="613.1" y="221.5" fill="#FFFFFF" width="167.2" height="101.2"/>
						<rect x="613.1" y="221.5" fill="#FFFFFF" width="167.2" height="101.2"/>
					</g>
					<g>
						<rect x="611.6" y="220" fill="#FFFFFF" width="167.2" height="101.2"/>
						<rect x="611.6" y="220" fill="#FFFFFF" width="167.2" height="101.2"/>
						<rect x="611.6" y="220" fill="#FFFFFF" width="167.2" height="101.2"/>
					</g>
				</g>
				<g>
					<circle fill="#FFFFFF" cx="731.004" cy="270.6" r="15"/>
					<circle fill="#FFFFFF" cx="690.104" cy="270.6" r="15"/>
					<circle fill="#FFFFFF" cx="649.204" cy="270.6" r="15"/>
				</g>
			</g>
			<g opacity="0.2">
				<g>
					<g>
						<rect x="613.1" y="221.5" fill="#1B93EB" width="167.2" height="101.2"/>
						<rect x="613.1" y="221.5" fill="#1B93EB" width="167.2" height="101.2"/>
						<rect x="613.1" y="221.5" fill="#1B93EB" width="167.2" height="101.2"/>
					</g>
					<g>
						<rect x="611.6" y="220" fill="#1B93EB" width="167.2" height="101.2"/>
						<rect x="611.6" y="220" fill="#1B93EB" width="167.2" height="101.2"/>
						<rect x="611.6" y="220" fill="#1B93EB" width="167.2" height="101.2"/>
					</g>
				</g>
				<g>
					<circle fill="#1B93EB" cx="731.004" cy="270.6" r="15"/>
					<circle fill="#1B93EB" cx="690.104" cy="270.6" r="15"/>
					<circle fill="#1B93EB" cx="649.204" cy="270.6" r="15"/>
				</g>
			</g>
			<g>
				<g>
					<g opacity="0.25">
						<rect x="613.1" y="221.5" width="167.2" height="101.2"/>
						<rect x="613.1" y="221.5" opacity="0.2" width="167.2" height="101.2"/>
					</g>
					<g>
						<rect x="611.6" y="220" fill="#FFFFFF" width="167.2" height="101.2"/>
						<rect x="611.6" y="220" opacity="0.2" fill="#1B93EB" width="167.2" height="101.2"/>
					</g>
				</g>
				<g>
					<circle fill="#1F56A3" cx="731.004" cy="270.6" r="15"/>
					<circle fill="#1F56A3" cx="690.104" cy="270.6" r="15"/>
					<circle fill="#1F56A3" cx="649.204" cy="270.6" r="15"/>
				</g>
			</g>
		</g>
	</g>
</g>
<g id="Text">
	<g>
		<path fill="#2F2F2F" d="M38.128,74.4v-9.803h3.473c3.481,0,5.223,1.593,5.223,4.778c0,1.526-0.475,2.745-1.426,3.657
			c-0.949,0.911-2.216,1.367-3.797,1.367H38.128z M40.336,66.395v6.214h1.094c0.957,0,1.708-0.287,2.253-0.861
			c0.544-0.574,0.816-1.356,0.816-2.345c0-0.935-0.27-1.669-0.811-2.205c-0.539-0.535-1.297-0.803-2.272-0.803H40.336z"/>
		<path fill="#2F2F2F" d="M54.521,71.515h-4.566c0.073,1.016,0.713,1.524,1.921,1.524c0.771,0,1.447-0.183,2.03-0.547v1.559
			c-0.647,0.346-1.488,0.52-2.522,0.52c-1.13,0-2.008-0.313-2.632-0.94c-0.624-0.626-0.937-1.5-0.937-2.621
			c0-1.162,0.337-2.083,1.012-2.762c0.675-0.68,1.504-1.019,2.488-1.019c1.021,0,1.811,0.303,2.369,0.909
			c0.558,0.605,0.837,1.429,0.837,2.468V71.515z M52.518,70.189c0-1.003-0.405-1.504-1.217-1.504c-0.347,0-0.646,0.144-0.898,0.431
			c-0.254,0.287-0.407,0.645-0.462,1.073H52.518z"/>
		<path fill="#2F2F2F" d="M58.073,73.587h-0.027v4.033h-2.16V67.4h2.16v1.053h0.027c0.533-0.816,1.283-1.224,2.249-1.224
			c0.907,0,1.607,0.311,2.102,0.933c0.495,0.622,0.742,1.469,0.742,2.54c0,1.166-0.288,2.103-0.865,2.81
			c-0.576,0.706-1.343,1.06-2.3,1.06C59.158,74.571,58.516,74.243,58.073,73.587z M58.012,70.715v0.561
			c0,0.482,0.128,0.877,0.383,1.183c0.255,0.305,0.59,0.458,1.005,0.458c0.492,0,0.874-0.19,1.146-0.571
			c0.271-0.38,0.406-0.919,0.406-1.616c0-1.23-0.479-1.846-1.436-1.846c-0.442,0-0.803,0.167-1.084,0.502
			C58.152,69.72,58.012,70.164,58.012,70.715z"/>
		<path fill="#2F2F2F" d="M66.755,74.4h-2.16V64.037h2.16V74.4z"/>
		<path fill="#2F2F2F" d="M71.898,74.571c-1.167,0-2.084-0.327-2.751-0.981c-0.668-0.653-1.002-1.541-1.002-2.662
			c0-1.158,0.347-2.063,1.039-2.718c0.692-0.653,1.629-0.98,2.81-0.98c1.162,0,2.073,0.327,2.734,0.98
			c0.661,0.654,0.991,1.519,0.991,2.595c0,1.162-0.341,2.08-1.021,2.755C74.017,74.233,73.083,74.571,71.898,74.571z M71.953,68.883
			c-0.511,0-0.907,0.175-1.189,0.526c-0.282,0.351-0.424,0.848-0.424,1.49c0,1.344,0.542,2.017,1.627,2.017
			c1.034,0,1.552-0.69,1.552-2.071C73.519,69.537,72.997,68.883,71.953,68.883z"/>
		<path fill="#2F2F2F" d="M83.573,67.4l-2.844,7.561c-0.684,1.818-1.714,2.728-3.09,2.728c-0.524,0-0.955-0.06-1.292-0.178v-1.723
			c0.287,0.168,0.6,0.253,0.937,0.253c0.556,0,0.943-0.263,1.162-0.786l0.369-0.868L75.972,67.4h2.393l1.306,4.259
			c0.082,0.264,0.146,0.576,0.191,0.937h0.027c0.041-0.265,0.116-0.572,0.226-0.923l1.319-4.272H83.573z"/>
		<path fill="#2F2F2F" d="M95.612,74.4h-2.153v-3.992c0-1.017-0.374-1.524-1.121-1.524c-0.355,0-0.645,0.152-0.868,0.458
			c-0.224,0.305-0.335,0.686-0.335,1.142V74.4h-2.16v-4.033c0-0.989-0.367-1.483-1.101-1.483c-0.369,0-0.664,0.146-0.886,0.438
			c-0.221,0.291-0.331,0.688-0.331,1.189v3.89h-2.16v-7h2.16v1.094h0.027c0.224-0.374,0.536-0.678,0.94-0.913
			c0.402-0.234,0.844-0.352,1.322-0.352c0.989,0,1.666,0.435,2.03,1.306c0.533-0.871,1.317-1.306,2.352-1.306
			c1.522,0,2.283,0.938,2.283,2.816V74.4z"/>
		<path fill="#2F2F2F" d="M103.633,71.515h-4.566c0.073,1.016,0.713,1.524,1.921,1.524c0.771,0,1.447-0.183,2.03-0.547v1.559
			c-0.647,0.346-1.488,0.52-2.522,0.52c-1.13,0-2.008-0.313-2.632-0.94c-0.624-0.626-0.937-1.5-0.937-2.621
			c0-1.162,0.337-2.083,1.012-2.762c0.675-0.68,1.504-1.019,2.488-1.019c1.021,0,1.811,0.303,2.369,0.909
			c0.558,0.605,0.837,1.429,0.837,2.468V71.515z M101.63,70.189c0-1.003-0.405-1.504-1.217-1.504c-0.347,0-0.646,0.144-0.898,0.431
			c-0.254,0.287-0.407,0.645-0.462,1.073H101.63z"/>
		<path fill="#2F2F2F" d="M111.759,74.4h-2.153v-3.89c0-1.085-0.388-1.627-1.162-1.627c-0.374,0-0.682,0.144-0.923,0.431
			s-0.362,0.651-0.362,1.094V74.4h-2.16v-7h2.16v1.107h0.027c0.515-0.853,1.265-1.278,2.249-1.278c1.55,0,2.324,0.961,2.324,2.885
			V74.4z"/>
		<path fill="#2F2F2F" d="M117.608,74.318c-0.319,0.168-0.8,0.253-1.442,0.253c-1.522,0-2.283-0.791-2.283-2.372v-3.206h-1.135V67.4
			h1.135v-1.511l2.153-0.615V67.4h1.572v1.593h-1.572v2.83c0,0.729,0.289,1.094,0.868,1.094c0.228,0,0.463-0.066,0.704-0.198V74.318
			z"/>
		<path fill="#2F2F2F" d="M122.229,74.215v-1.75c0.355,0.214,0.71,0.373,1.062,0.479c0.354,0.104,0.688,0.157,1.002,0.157
			c0.383,0,0.685-0.053,0.906-0.157c0.221-0.105,0.331-0.265,0.331-0.479c0-0.137-0.05-0.251-0.15-0.342
			c-0.101-0.092-0.229-0.171-0.386-0.239c-0.158-0.068-0.33-0.13-0.517-0.185s-0.367-0.116-0.54-0.185
			c-0.278-0.105-0.523-0.218-0.734-0.339c-0.213-0.12-0.391-0.261-0.533-0.42c-0.145-0.16-0.254-0.345-0.328-0.554
			c-0.076-0.21-0.113-0.458-0.113-0.745c0-0.393,0.086-0.729,0.256-1.012c0.172-0.283,0.399-0.514,0.684-0.694
			c0.285-0.18,0.611-0.312,0.979-0.396c0.366-0.084,0.748-0.126,1.145-0.126c0.31,0,0.624,0.023,0.943,0.071
			s0.634,0.117,0.943,0.209v1.668c-0.273-0.16-0.566-0.279-0.879-0.359c-0.312-0.079-0.618-0.119-0.919-0.119
			c-0.142,0-0.274,0.013-0.399,0.037c-0.126,0.025-0.236,0.062-0.332,0.109s-0.171,0.109-0.226,0.185s-0.082,0.161-0.082,0.257
			c0,0.127,0.041,0.236,0.123,0.328c0.082,0.091,0.189,0.17,0.321,0.235c0.132,0.066,0.279,0.126,0.441,0.178
			c0.161,0.053,0.322,0.106,0.481,0.161c0.287,0.1,0.547,0.209,0.779,0.328c0.232,0.118,0.432,0.257,0.599,0.417
			c0.166,0.159,0.293,0.346,0.383,0.561c0.088,0.214,0.133,0.469,0.133,0.766c0,0.414-0.09,0.769-0.27,1.062
			c-0.181,0.294-0.42,0.533-0.719,0.718c-0.298,0.185-0.643,0.319-1.031,0.403c-0.391,0.085-0.795,0.127-1.214,0.127
			C123.599,74.571,122.886,74.452,122.229,74.215z"/>
		<path fill="#2F2F2F" d="M133.036,74.318c-0.319,0.168-0.8,0.253-1.442,0.253c-1.522,0-2.283-0.791-2.283-2.372v-3.206h-1.135V67.4
			h1.135v-1.511l2.153-0.615V67.4h1.572v1.593h-1.572v2.83c0,0.729,0.289,1.094,0.868,1.094c0.228,0,0.463-0.066,0.704-0.198V74.318
			z"/>
		<path fill="#2F2F2F" d="M140.217,74.4h-2.044v-1.005h-0.027c-0.47,0.783-1.164,1.176-2.085,1.176
			c-0.679,0-1.214-0.192-1.603-0.578c-0.391-0.385-0.585-0.898-0.585-1.541c0-1.358,0.805-2.143,2.413-2.352l1.9-0.253
			c0-0.766-0.415-1.148-1.244-1.148c-0.834,0-1.627,0.248-2.379,0.745v-1.627c0.301-0.155,0.712-0.292,1.234-0.41
			c0.521-0.119,0.996-0.178,1.425-0.178c1.996,0,2.994,0.995,2.994,2.987V74.4z M138.187,71.556v-0.472l-1.271,0.164
			c-0.702,0.091-1.053,0.407-1.053,0.95c0,0.246,0.086,0.447,0.256,0.604c0.172,0.157,0.402,0.236,0.694,0.236
			c0.405,0,0.736-0.141,0.991-0.421S138.187,71.984,138.187,71.556z"/>
		<path fill="#2F2F2F" d="M153.028,74.4h-2.153v-3.992c0-1.017-0.374-1.524-1.121-1.524c-0.355,0-0.645,0.152-0.868,0.458
			c-0.224,0.305-0.335,0.686-0.335,1.142V74.4h-2.16v-4.033c0-0.989-0.367-1.483-1.101-1.483c-0.369,0-0.664,0.146-0.886,0.438
			c-0.221,0.291-0.331,0.688-0.331,1.189v3.89h-2.16v-7h2.16v1.094h0.027c0.224-0.374,0.536-0.678,0.94-0.913
			c0.402-0.234,0.844-0.352,1.322-0.352c0.989,0,1.666,0.435,2.03,1.306c0.533-0.871,1.317-1.306,2.352-1.306
			c1.522,0,2.283,0.938,2.283,2.816V74.4z"/>
		<path fill="#2F2F2F" d="M156.912,73.587h-0.027v4.033h-2.16V67.4h2.16v1.053h0.027c0.533-0.816,1.283-1.224,2.249-1.224
			c0.907,0,1.607,0.311,2.102,0.933c0.495,0.622,0.742,1.469,0.742,2.54c0,1.166-0.288,2.103-0.865,2.81
			c-0.576,0.706-1.343,1.06-2.3,1.06C157.997,74.571,157.354,74.243,156.912,73.587z M156.851,70.715v0.561
			c0,0.482,0.128,0.877,0.383,1.183c0.255,0.305,0.59,0.458,1.005,0.458c0.492,0,0.874-0.19,1.146-0.571
			c0.271-0.38,0.406-0.919,0.406-1.616c0-1.23-0.479-1.846-1.436-1.846c-0.442,0-0.803,0.167-1.084,0.502
			C156.991,69.72,156.851,70.164,156.851,70.715z"/>
		<path fill="#2F2F2F" d="M175.485,74.4h-2.618l-1.688-3.192c-0.063-0.119-0.13-0.338-0.198-0.656h-0.027
			c-0.032,0.15-0.107,0.378-0.226,0.684l-1.695,3.165H166.4l3.124-4.901l-2.857-4.901h2.687l1.401,2.939
			c0.109,0.232,0.207,0.508,0.294,0.827h0.027c0.055-0.191,0.157-0.477,0.308-0.854l1.559-2.912h2.461l-2.939,4.86L175.485,74.4z"/>
		<path fill="#2F2F2F" d="M180.629,64.379V74.4h-2.153v-7.588c-0.118,0.104-0.259,0.204-0.421,0.297
			c-0.161,0.094-0.333,0.178-0.516,0.253s-0.371,0.14-0.567,0.191c-0.196,0.053-0.39,0.09-0.581,0.113v-1.818
			c0.561-0.164,1.089-0.374,1.586-0.629c0.497-0.256,0.945-0.536,1.347-0.841H180.629z"/>
	</g>
	<g>
		<path fill="#2F2F2F" d="M21.823,30.8h-2.536l-1.524-2.522c-0.114-0.191-0.224-0.362-0.328-0.513s-0.211-0.279-0.317-0.387
			c-0.107-0.106-0.219-0.188-0.336-0.246c-0.115-0.057-0.242-0.085-0.379-0.085h-0.595V30.8H13.6v-9.803h3.5
			c2.379,0,3.568,0.889,3.568,2.666c0,0.342-0.053,0.657-0.157,0.946c-0.104,0.29-0.253,0.551-0.444,0.783s-0.423,0.433-0.693,0.602
			c-0.271,0.168-0.573,0.301-0.906,0.396v0.027c0.146,0.045,0.287,0.119,0.424,0.222s0.269,0.223,0.396,0.359s0.25,0.283,0.365,0.44
			c0.117,0.157,0.223,0.312,0.318,0.462L21.823,30.8z M15.808,22.652v2.728h0.957c0.474,0,0.854-0.137,1.142-0.41
			c0.292-0.278,0.438-0.622,0.438-1.032c0-0.857-0.513-1.285-1.538-1.285H15.808z"/>
		<path fill="#2F2F2F" d="M28.642,27.916h-4.566c0.073,1.016,0.713,1.524,1.921,1.524c0.771,0,1.447-0.183,2.03-0.547v1.559
			c-0.647,0.346-1.488,0.52-2.522,0.52c-1.13,0-2.008-0.313-2.632-0.94c-0.624-0.626-0.937-1.5-0.937-2.621
			c0-1.162,0.337-2.083,1.012-2.762c0.675-0.68,1.504-1.019,2.488-1.019c1.021,0,1.811,0.303,2.369,0.909
			c0.558,0.605,0.837,1.429,0.837,2.468V27.916z M26.639,26.589c0-1.003-0.405-1.504-1.217-1.504c-0.347,0-0.646,0.144-0.898,0.431
			c-0.254,0.287-0.407,0.645-0.462,1.073H26.639z"/>
		<path fill="#2F2F2F" d="M36.9,30.001c0,1.299-0.376,2.305-1.128,3.018c-0.752,0.714-1.841,1.07-3.268,1.07
			c-0.943,0-1.69-0.135-2.242-0.403v-1.818c0.72,0.419,1.447,0.629,2.181,0.629c0.729,0,1.294-0.192,1.695-0.578
			c0.401-0.385,0.602-0.908,0.602-1.568v-0.554h-0.027c-0.492,0.783-1.219,1.176-2.181,1.176c-0.894,0-1.602-0.314-2.126-0.943
			s-0.786-1.473-0.786-2.529c0-1.186,0.292-2.126,0.875-2.823s1.352-1.046,2.304-1.046c0.853,0,1.49,0.328,1.914,0.984h0.027V23.8
			h2.16V30.001z M34.768,27.437v-0.554c0-0.442-0.131-0.819-0.394-1.132c-0.262-0.312-0.603-0.468-1.021-0.468
			c-0.479,0-0.854,0.187-1.128,0.561c-0.273,0.373-0.41,0.899-0.41,1.579c0,0.583,0.13,1.045,0.39,1.384
			c0.26,0.34,0.615,0.51,1.066,0.51c0.446,0,0.808-0.172,1.084-0.517C34.63,28.457,34.768,28.002,34.768,27.437z"/>
		<path fill="#2F2F2F" d="M39.756,22.693c-0.364,0-0.663-0.108-0.896-0.325c-0.232-0.216-0.349-0.481-0.349-0.796
			c0-0.324,0.116-0.588,0.349-0.793s0.531-0.308,0.896-0.308c0.369,0,0.669,0.103,0.899,0.308C40.885,20.984,41,21.248,41,21.572
			c0,0.328-0.115,0.597-0.345,0.807C40.425,22.587,40.125,22.693,39.756,22.693z M40.822,30.8h-2.16v-7h2.16V30.8z"/>
		<path fill="#2F2F2F" d="M45.933,30.971c-1.167,0-2.084-0.327-2.751-0.981c-0.668-0.653-1.002-1.541-1.002-2.662
			c0-1.158,0.347-2.063,1.039-2.718c0.692-0.653,1.629-0.98,2.81-0.98c1.162,0,2.073,0.327,2.734,0.98
			c0.661,0.654,0.991,1.519,0.991,2.595c0,1.162-0.341,2.08-1.021,2.755C48.051,30.633,47.117,30.971,45.933,30.971z M45.987,25.284
			c-0.511,0-0.907,0.175-1.189,0.526c-0.282,0.351-0.424,0.848-0.424,1.49c0,1.344,0.542,2.017,1.627,2.017
			c1.034,0,1.552-0.69,1.552-2.071C47.553,25.937,47.031,25.284,45.987,25.284z"/>
		<path fill="#2F2F2F" d="M57.896,30.8h-2.153v-3.89c0-1.085-0.388-1.627-1.162-1.627c-0.374,0-0.682,0.144-0.923,0.431
			s-0.362,0.651-0.362,1.094V30.8h-2.16v-7h2.16v1.107h0.027c0.515-0.853,1.265-1.278,2.249-1.278c1.55,0,2.324,0.961,2.324,2.885
			V30.8z"/>
		<path fill="#2F2F2F" d="M71.684,30.8h-2.618l-1.688-3.192c-0.063-0.119-0.13-0.338-0.198-0.656h-0.027
			c-0.032,0.15-0.107,0.378-0.226,0.684L65.23,30.8h-2.632l3.124-4.901l-2.857-4.901h2.687l1.401,2.939
			c0.109,0.232,0.207,0.508,0.294,0.827h0.027c0.055-0.191,0.157-0.477,0.308-0.854l1.559-2.912h2.461l-2.939,4.86L71.684,30.8z"/>
	</g>
	<g>
		<path fill="#2F2F2F" d="M218.138,74.4v-9.803h3.473c3.481,0,5.223,1.593,5.223,4.778c0,1.526-0.475,2.745-1.426,3.657
			c-0.949,0.911-2.216,1.367-3.797,1.367H218.138z M220.346,66.395v6.214h1.094c0.957,0,1.708-0.287,2.253-0.861
			c0.544-0.574,0.816-1.356,0.816-2.345c0-0.935-0.27-1.669-0.811-2.205c-0.539-0.535-1.297-0.803-2.272-0.803H220.346z"/>
		<path fill="#2F2F2F" d="M234.531,71.515h-4.566c0.073,1.016,0.713,1.524,1.921,1.524c0.771,0,1.447-0.183,2.03-0.547v1.559
			c-0.647,0.346-1.488,0.52-2.522,0.52c-1.13,0-2.008-0.313-2.632-0.94c-0.624-0.626-0.937-1.5-0.937-2.621
			c0-1.162,0.337-2.083,1.012-2.762c0.675-0.68,1.504-1.019,2.488-1.019c1.021,0,1.811,0.303,2.369,0.909
			c0.558,0.605,0.837,1.429,0.837,2.468V71.515z M232.528,70.189c0-1.003-0.405-1.504-1.217-1.504c-0.347,0-0.646,0.144-0.898,0.431
			c-0.254,0.287-0.407,0.645-0.462,1.073H232.528z"/>
		<path fill="#2F2F2F" d="M238.083,73.587h-0.027v4.033h-2.16V67.4h2.16v1.053h0.027c0.533-0.816,1.283-1.224,2.249-1.224
			c0.907,0,1.607,0.311,2.102,0.933c0.495,0.622,0.742,1.469,0.742,2.54c0,1.166-0.288,2.103-0.865,2.81
			c-0.576,0.706-1.343,1.06-2.3,1.06C239.168,74.571,238.526,74.243,238.083,73.587z M238.022,70.715v0.561
			c0,0.482,0.128,0.877,0.383,1.183c0.255,0.305,0.59,0.458,1.005,0.458c0.492,0,0.874-0.19,1.146-0.571
			c0.271-0.38,0.406-0.919,0.406-1.616c0-1.23-0.479-1.846-1.436-1.846c-0.442,0-0.803,0.167-1.084,0.502
			C238.163,69.72,238.022,70.164,238.022,70.715z"/>
		<path fill="#2F2F2F" d="M246.765,74.4h-2.16V64.037h2.16V74.4z"/>
		<path fill="#2F2F2F" d="M251.909,74.571c-1.167,0-2.084-0.327-2.751-0.981c-0.668-0.653-1.002-1.541-1.002-2.662
			c0-1.158,0.347-2.063,1.039-2.718c0.692-0.653,1.629-0.98,2.81-0.98c1.162,0,2.073,0.327,2.734,0.98
			c0.661,0.654,0.991,1.519,0.991,2.595c0,1.162-0.341,2.08-1.021,2.755C254.027,74.233,253.093,74.571,251.909,74.571z
			 M251.963,68.883c-0.511,0-0.907,0.175-1.189,0.526c-0.282,0.351-0.424,0.848-0.424,1.49c0,1.344,0.542,2.017,1.627,2.017
			c1.034,0,1.552-0.69,1.552-2.071C253.529,69.537,253.007,68.883,251.963,68.883z"/>
		<path fill="#2F2F2F" d="M263.583,67.4l-2.844,7.561c-0.684,1.818-1.714,2.728-3.09,2.728c-0.524,0-0.955-0.06-1.292-0.178v-1.723
			c0.287,0.168,0.6,0.253,0.937,0.253c0.556,0,0.943-0.263,1.162-0.786l0.369-0.868l-2.844-6.986h2.393l1.306,4.259
			c0.082,0.264,0.146,0.576,0.191,0.937h0.027c0.041-0.265,0.116-0.572,0.226-0.923l1.319-4.272H263.583z"/>
		<path fill="#2F2F2F" d="M275.623,74.4h-2.153v-3.992c0-1.017-0.374-1.524-1.121-1.524c-0.355,0-0.645,0.152-0.868,0.458
			c-0.224,0.305-0.335,0.686-0.335,1.142V74.4h-2.16v-4.033c0-0.989-0.367-1.483-1.101-1.483c-0.369,0-0.664,0.146-0.886,0.438
			c-0.221,0.291-0.331,0.688-0.331,1.189v3.89h-2.16v-7h2.16v1.094h0.027c0.224-0.374,0.536-0.678,0.94-0.913
			c0.402-0.234,0.844-0.352,1.322-0.352c0.989,0,1.666,0.435,2.03,1.306c0.533-0.871,1.317-1.306,2.352-1.306
			c1.522,0,2.283,0.938,2.283,2.816V74.4z"/>
		<path fill="#2F2F2F" d="M283.643,71.515h-4.566c0.073,1.016,0.713,1.524,1.921,1.524c0.771,0,1.447-0.183,2.03-0.547v1.559
			c-0.647,0.346-1.488,0.52-2.522,0.52c-1.13,0-2.008-0.313-2.632-0.94c-0.624-0.626-0.937-1.5-0.937-2.621
			c0-1.162,0.337-2.083,1.012-2.762c0.675-0.68,1.504-1.019,2.488-1.019c1.021,0,1.811,0.303,2.369,0.909
			c0.558,0.605,0.837,1.429,0.837,2.468V71.515z M281.64,70.189c0-1.003-0.405-1.504-1.217-1.504c-0.347,0-0.646,0.144-0.898,0.431
			c-0.254,0.287-0.407,0.645-0.462,1.073H281.64z"/>
		<path fill="#2F2F2F" d="M291.769,74.4h-2.153v-3.89c0-1.085-0.388-1.627-1.162-1.627c-0.374,0-0.682,0.144-0.923,0.431
			s-0.362,0.651-0.362,1.094V74.4h-2.16v-7h2.16v1.107h0.027c0.515-0.853,1.265-1.278,2.249-1.278c1.55,0,2.324,0.961,2.324,2.885
			V74.4z"/>
		<path fill="#2F2F2F" d="M297.619,74.318c-0.319,0.168-0.8,0.253-1.442,0.253c-1.522,0-2.283-0.791-2.283-2.372v-3.206h-1.135V67.4
			h1.135v-1.511l2.153-0.615V67.4h1.572v1.593h-1.572v2.83c0,0.729,0.289,1.094,0.868,1.094c0.228,0,0.463-0.066,0.704-0.198V74.318
			z"/>
		<path fill="#2F2F2F" d="M302.24,74.215v-1.75c0.355,0.214,0.71,0.373,1.062,0.479c0.354,0.104,0.688,0.157,1.002,0.157
			c0.383,0,0.685-0.053,0.906-0.157c0.221-0.105,0.331-0.265,0.331-0.479c0-0.137-0.05-0.251-0.15-0.342
			c-0.101-0.092-0.229-0.171-0.386-0.239c-0.158-0.068-0.33-0.13-0.517-0.185s-0.367-0.116-0.54-0.185
			c-0.278-0.105-0.523-0.218-0.734-0.339c-0.213-0.12-0.391-0.261-0.533-0.42c-0.145-0.16-0.254-0.345-0.328-0.554
			c-0.076-0.21-0.113-0.458-0.113-0.745c0-0.393,0.086-0.729,0.256-1.012c0.172-0.283,0.399-0.514,0.684-0.694
			c0.285-0.18,0.611-0.312,0.979-0.396c0.366-0.084,0.748-0.126,1.145-0.126c0.31,0,0.624,0.023,0.943,0.071
			s0.634,0.117,0.943,0.209v1.668c-0.273-0.16-0.566-0.279-0.879-0.359c-0.312-0.079-0.618-0.119-0.919-0.119
			c-0.142,0-0.274,0.013-0.399,0.037c-0.126,0.025-0.236,0.062-0.332,0.109s-0.171,0.109-0.226,0.185s-0.082,0.161-0.082,0.257
			c0,0.127,0.041,0.236,0.123,0.328c0.082,0.091,0.189,0.17,0.321,0.235c0.132,0.066,0.279,0.126,0.441,0.178
			c0.161,0.053,0.322,0.106,0.481,0.161c0.287,0.1,0.547,0.209,0.779,0.328c0.232,0.118,0.432,0.257,0.599,0.417
			c0.166,0.159,0.293,0.346,0.383,0.561c0.088,0.214,0.133,0.469,0.133,0.766c0,0.414-0.09,0.769-0.27,1.062
			c-0.181,0.294-0.42,0.533-0.719,0.718c-0.298,0.185-0.643,0.319-1.031,0.403c-0.391,0.085-0.795,0.127-1.214,0.127
			C303.609,74.571,302.896,74.452,302.24,74.215z"/>
		<path fill="#2F2F2F" d="M313.046,74.318c-0.319,0.168-0.8,0.253-1.442,0.253c-1.522,0-2.283-0.791-2.283-2.372v-3.206h-1.135V67.4
			h1.135v-1.511l2.153-0.615V67.4h1.572v1.593h-1.572v2.83c0,0.729,0.289,1.094,0.868,1.094c0.228,0,0.463-0.066,0.704-0.198V74.318
			z"/>
		<path fill="#2F2F2F" d="M320.227,74.4h-2.044v-1.005h-0.027c-0.47,0.783-1.164,1.176-2.085,1.176
			c-0.679,0-1.214-0.192-1.603-0.578c-0.391-0.385-0.585-0.898-0.585-1.541c0-1.358,0.805-2.143,2.413-2.352l1.9-0.253
			c0-0.766-0.415-1.148-1.244-1.148c-0.834,0-1.627,0.248-2.379,0.745v-1.627c0.301-0.155,0.712-0.292,1.234-0.41
			c0.521-0.119,0.996-0.178,1.425-0.178c1.996,0,2.994,0.995,2.994,2.987V74.4z M318.197,71.556v-0.472l-1.271,0.164
			c-0.702,0.091-1.053,0.407-1.053,0.95c0,0.246,0.086,0.447,0.256,0.604c0.172,0.157,0.402,0.236,0.694,0.236
			c0.405,0,0.736-0.141,0.991-0.421S318.197,71.984,318.197,71.556z"/>
		<path fill="#2F2F2F" d="M333.039,74.4h-2.153v-3.992c0-1.017-0.374-1.524-1.121-1.524c-0.355,0-0.645,0.152-0.868,0.458
			c-0.224,0.305-0.335,0.686-0.335,1.142V74.4h-2.16v-4.033c0-0.989-0.367-1.483-1.101-1.483c-0.369,0-0.664,0.146-0.886,0.438
			c-0.221,0.291-0.331,0.688-0.331,1.189v3.89h-2.16v-7h2.16v1.094h0.027c0.224-0.374,0.536-0.678,0.94-0.913
			c0.402-0.234,0.844-0.352,1.322-0.352c0.989,0,1.666,0.435,2.03,1.306c0.533-0.871,1.317-1.306,2.352-1.306
			c1.522,0,2.283,0.938,2.283,2.816V74.4z"/>
		<path fill="#2F2F2F" d="M336.922,73.587h-0.027v4.033h-2.16V67.4h2.16v1.053h0.027c0.533-0.816,1.283-1.224,2.249-1.224
			c0.907,0,1.607,0.311,2.102,0.933c0.495,0.622,0.742,1.469,0.742,2.54c0,1.166-0.288,2.103-0.865,2.81
			c-0.576,0.706-1.343,1.06-2.3,1.06C338.007,74.571,337.365,74.243,336.922,73.587z M336.861,70.715v0.561
			c0,0.482,0.128,0.877,0.383,1.183c0.255,0.305,0.59,0.458,1.005,0.458c0.492,0,0.874-0.19,1.146-0.571
			c0.271-0.38,0.406-0.919,0.406-1.616c0-1.23-0.479-1.846-1.436-1.846c-0.442,0-0.803,0.167-1.084,0.502
			C337.001,69.72,336.861,70.164,336.861,70.715z"/>
		<path fill="#2F2F2F" d="M355.496,74.4h-2.618l-1.688-3.192c-0.063-0.119-0.13-0.338-0.198-0.656h-0.027
			c-0.032,0.15-0.107,0.378-0.226,0.684l-1.695,3.165h-2.632l3.124-4.901l-2.857-4.901h2.687l1.401,2.939
			c0.109,0.232,0.207,0.508,0.294,0.827h0.027c0.055-0.191,0.157-0.477,0.308-0.854l1.559-2.912h2.461l-2.939,4.86L355.496,74.4z"/>
		<path fill="#2F2F2F" d="M358.664,72.609h4.156V74.4h-6.521v-0.738c0-0.502,0.084-0.951,0.253-1.351
			c0.169-0.398,0.381-0.756,0.636-1.073c0.255-0.316,0.534-0.597,0.837-0.841c0.304-0.243,0.592-0.464,0.865-0.659
			c0.287-0.205,0.539-0.401,0.756-0.588c0.216-0.188,0.398-0.373,0.547-0.558c0.147-0.185,0.258-0.371,0.331-0.561
			c0.073-0.188,0.109-0.391,0.109-0.604c0-0.42-0.118-0.736-0.355-0.95c-0.237-0.215-0.6-0.321-1.087-0.321
			c-0.843,0-1.649,0.335-2.42,1.005v-1.9c0.853-0.552,1.813-0.827,2.885-0.827c0.497,0,0.942,0.064,1.336,0.194
			c0.395,0.13,0.729,0.315,1.002,0.558c0.273,0.241,0.482,0.534,0.625,0.878c0.145,0.345,0.216,0.729,0.216,1.152
			c0,0.451-0.069,0.852-0.208,1.203c-0.14,0.351-0.324,0.67-0.555,0.957c-0.229,0.287-0.495,0.55-0.796,0.789
			s-0.613,0.471-0.937,0.694c-0.219,0.154-0.43,0.309-0.633,0.461c-0.202,0.153-0.381,0.304-0.536,0.451
			c-0.155,0.148-0.278,0.293-0.369,0.435C358.709,72.346,358.664,72.481,358.664,72.609z"/>
	</g>
	<g>
		<path fill="#2F2F2F" d="M37.818,211.201v-9.803h3.473c3.481,0,5.223,1.592,5.223,4.777c0,1.527-0.475,2.746-1.426,3.658
			c-0.949,0.911-2.216,1.367-3.797,1.367H37.818z M40.026,203.195v6.215h1.094c0.957,0,1.708-0.287,2.253-0.861
			c0.544-0.574,0.816-1.356,0.816-2.346c0-0.934-0.27-1.668-0.811-2.204c-0.539-0.536-1.297-0.804-2.272-0.804H40.026z"/>
		<path fill="#2F2F2F" d="M54.211,208.316h-4.566c0.073,1.016,0.713,1.523,1.921,1.523c0.771,0,1.447-0.182,2.03-0.547v1.559
			c-0.647,0.347-1.488,0.52-2.522,0.52c-1.13,0-2.008-0.312-2.632-0.939s-0.937-1.5-0.937-2.621c0-1.162,0.337-2.083,1.012-2.762
			c0.675-0.68,1.504-1.02,2.488-1.02c1.021,0,1.811,0.304,2.369,0.91c0.558,0.605,0.837,1.428,0.837,2.467V208.316z M52.208,206.99
			c0-1.003-0.405-1.504-1.217-1.504c-0.347,0-0.646,0.143-0.898,0.43c-0.254,0.287-0.407,0.646-0.462,1.074H52.208z"/>
		<path fill="#2F2F2F" d="M57.764,210.386h-0.027v4.033h-2.16v-10.219h2.16v1.053h0.027c0.533-0.816,1.283-1.225,2.249-1.225
			c0.907,0,1.607,0.312,2.102,0.934c0.495,0.622,0.742,1.469,0.742,2.539c0,1.167-0.288,2.104-0.865,2.811
			c-0.576,0.706-1.343,1.059-2.3,1.059C58.849,211.371,58.206,211.043,57.764,210.386z M57.702,207.515v0.561
			c0,0.483,0.128,0.878,0.383,1.184c0.255,0.305,0.59,0.457,1.005,0.457c0.492,0,0.874-0.189,1.146-0.57
			c0.271-0.381,0.406-0.92,0.406-1.617c0-1.23-0.479-1.846-1.436-1.846c-0.442,0-0.803,0.168-1.084,0.503
			C57.843,206.521,57.702,206.964,57.702,207.515z"/>
		<path fill="#2F2F2F" d="M66.445,211.201h-2.16v-10.363h2.16V211.201z"/>
		<path fill="#2F2F2F" d="M71.589,211.371c-1.167,0-2.084-0.326-2.751-0.98c-0.668-0.654-1.002-1.541-1.002-2.662
			c0-1.158,0.347-2.064,1.039-2.718s1.629-0.981,2.81-0.981c1.162,0,2.073,0.328,2.734,0.981s0.991,1.519,0.991,2.595
			c0,1.162-0.341,2.08-1.021,2.754C73.707,211.034,72.773,211.371,71.589,211.371z M71.644,205.683
			c-0.511,0-0.907,0.176-1.189,0.527c-0.282,0.351-0.424,0.848-0.424,1.49c0,1.344,0.542,2.016,1.627,2.016
			c1.034,0,1.552-0.689,1.552-2.07C73.209,206.337,72.688,205.683,71.644,205.683z"/>
		<path fill="#2F2F2F" d="M83.264,204.201l-2.844,7.561c-0.684,1.818-1.714,2.727-3.09,2.727c-0.524,0-0.955-0.059-1.292-0.178
			v-1.723c0.287,0.169,0.6,0.254,0.937,0.254c0.556,0,0.943-0.263,1.162-0.787l0.369-0.867l-2.844-6.986h2.393l1.306,4.258
			c0.082,0.265,0.146,0.577,0.191,0.938h0.027c0.041-0.265,0.116-0.572,0.226-0.924l1.319-4.271H83.264z"/>
		<path fill="#2F2F2F" d="M95.303,211.201h-2.153v-3.992c0-1.017-0.374-1.525-1.121-1.525c-0.355,0-0.645,0.153-0.868,0.459
			c-0.224,0.305-0.335,0.686-0.335,1.141v3.918h-2.16v-4.033c0-0.989-0.367-1.484-1.101-1.484c-0.369,0-0.664,0.146-0.886,0.438
			c-0.221,0.292-0.331,0.688-0.331,1.189v3.891h-2.16v-7h2.16v1.094h0.027c0.224-0.374,0.536-0.678,0.94-0.913
			c0.402-0.235,0.844-0.353,1.322-0.353c0.989,0,1.666,0.436,2.03,1.307c0.533-0.871,1.317-1.307,2.352-1.307
			c1.522,0,2.283,0.939,2.283,2.816V211.201z"/>
		<path fill="#2F2F2F" d="M103.323,208.316h-4.566c0.073,1.016,0.713,1.523,1.921,1.523c0.771,0,1.447-0.182,2.03-0.547v1.559
			c-0.647,0.347-1.488,0.52-2.522,0.52c-1.13,0-2.008-0.312-2.632-0.939s-0.937-1.5-0.937-2.621c0-1.162,0.337-2.083,1.012-2.762
			c0.675-0.68,1.504-1.02,2.488-1.02c1.021,0,1.811,0.304,2.369,0.91c0.558,0.605,0.837,1.428,0.837,2.467V208.316z M101.32,206.99
			c0-1.003-0.405-1.504-1.217-1.504c-0.347,0-0.646,0.143-0.898,0.43c-0.254,0.287-0.407,0.646-0.462,1.074H101.32z"/>
		<path fill="#2F2F2F" d="M111.449,211.201h-2.153v-3.891c0-1.084-0.388-1.627-1.162-1.627c-0.374,0-0.682,0.145-0.923,0.432
			s-0.362,0.651-0.362,1.094v3.992h-2.16v-7h2.16v1.107h0.027c0.515-0.853,1.265-1.279,2.249-1.279c1.55,0,2.324,0.962,2.324,2.885
			V211.201z"/>
		<path fill="#2F2F2F" d="M117.299,211.119c-0.319,0.168-0.8,0.252-1.442,0.252c-1.522,0-2.283-0.79-2.283-2.371v-3.207h-1.135
			v-1.592h1.135v-1.512l2.153-0.615v2.127h1.572v1.592h-1.572v2.83c0,0.729,0.289,1.094,0.868,1.094
			c0.228,0,0.463-0.065,0.704-0.197V211.119z"/>
		<path fill="#2F2F2F" d="M121.92,211.015v-1.75c0.355,0.215,0.71,0.374,1.062,0.479c0.354,0.105,0.688,0.158,1.002,0.158
			c0.383,0,0.685-0.053,0.906-0.158c0.221-0.104,0.331-0.264,0.331-0.479c0-0.137-0.05-0.25-0.15-0.342
			c-0.101-0.091-0.229-0.17-0.386-0.238c-0.158-0.068-0.33-0.131-0.517-0.186s-0.367-0.115-0.54-0.184
			c-0.278-0.105-0.523-0.219-0.734-0.339c-0.213-0.12-0.391-0.261-0.533-0.421c-0.145-0.159-0.254-0.344-0.328-0.553
			c-0.076-0.21-0.113-0.459-0.113-0.746c0-0.392,0.086-0.729,0.256-1.012c0.172-0.282,0.399-0.514,0.684-0.693
			c0.285-0.18,0.611-0.312,0.979-0.396c0.366-0.084,0.748-0.127,1.145-0.127c0.31,0,0.624,0.024,0.943,0.072
			s0.634,0.117,0.943,0.209v1.668c-0.273-0.16-0.566-0.279-0.879-0.359c-0.312-0.08-0.618-0.119-0.919-0.119
			c-0.142,0-0.274,0.012-0.399,0.037c-0.126,0.025-0.236,0.062-0.332,0.109s-0.171,0.109-0.226,0.185s-0.082,0.161-0.082,0.257
			c0,0.127,0.041,0.236,0.123,0.328c0.082,0.091,0.189,0.17,0.321,0.235s0.279,0.126,0.441,0.178
			c0.161,0.052,0.322,0.106,0.481,0.161c0.287,0.1,0.547,0.209,0.779,0.328c0.232,0.118,0.432,0.257,0.599,0.416
			c0.166,0.16,0.293,0.347,0.383,0.561c0.088,0.215,0.133,0.47,0.133,0.766c0,0.415-0.09,0.77-0.27,1.063
			c-0.181,0.294-0.42,0.533-0.719,0.718c-0.298,0.185-0.643,0.318-1.031,0.403c-0.391,0.085-0.795,0.126-1.214,0.126
			C123.289,211.371,122.576,211.253,121.92,211.015z"/>
		<path fill="#2F2F2F" d="M132.727,211.119c-0.319,0.168-0.8,0.252-1.442,0.252c-1.522,0-2.283-0.79-2.283-2.371v-3.207h-1.135
			v-1.592h1.135v-1.512l2.153-0.615v2.127h1.572v1.592h-1.572v2.83c0,0.729,0.289,1.094,0.868,1.094
			c0.228,0,0.463-0.065,0.704-0.197V211.119z"/>
		<path fill="#2F2F2F" d="M139.907,211.201h-2.044v-1.006h-0.027c-0.47,0.784-1.164,1.176-2.085,1.176
			c-0.679,0-1.214-0.191-1.603-0.577c-0.391-0.386-0.585-0.899-0.585-1.542c0-1.357,0.805-2.142,2.413-2.352l1.9-0.252
			c0-0.766-0.415-1.148-1.244-1.148c-0.834,0-1.627,0.248-2.379,0.744v-1.627c0.301-0.154,0.712-0.291,1.234-0.41
			c0.521-0.118,0.996-0.178,1.425-0.178c1.996,0,2.994,0.996,2.994,2.988V211.201z M137.877,208.357v-0.473l-1.271,0.164
			c-0.702,0.092-1.053,0.408-1.053,0.951c0,0.246,0.086,0.447,0.256,0.604c0.172,0.157,0.402,0.235,0.694,0.235
			c0.405,0,0.736-0.14,0.991-0.42S137.877,208.785,137.877,208.357z"/>
		<path fill="#2F2F2F" d="M152.719,211.201h-2.153v-3.992c0-1.017-0.374-1.525-1.121-1.525c-0.355,0-0.645,0.153-0.868,0.459
			c-0.224,0.305-0.335,0.686-0.335,1.141v3.918h-2.16v-4.033c0-0.989-0.367-1.484-1.101-1.484c-0.369,0-0.664,0.146-0.886,0.438
			c-0.221,0.292-0.331,0.688-0.331,1.189v3.891h-2.16v-7h2.16v1.094h0.027c0.224-0.374,0.536-0.678,0.94-0.913
			c0.402-0.235,0.844-0.353,1.322-0.353c0.989,0,1.666,0.436,2.03,1.307c0.533-0.871,1.317-1.307,2.352-1.307
			c1.522,0,2.283,0.939,2.283,2.816V211.201z"/>
		<path fill="#2F2F2F" d="M156.603,210.386h-0.027v4.033h-2.16v-10.219h2.16v1.053h0.027c0.533-0.816,1.283-1.225,2.249-1.225
			c0.907,0,1.607,0.312,2.102,0.934c0.495,0.622,0.742,1.469,0.742,2.539c0,1.167-0.288,2.104-0.865,2.811
			c-0.576,0.706-1.343,1.059-2.3,1.059C157.688,211.371,157.045,211.043,156.603,210.386z M156.541,207.515v0.561
			c0,0.483,0.128,0.878,0.383,1.184c0.255,0.305,0.59,0.457,1.005,0.457c0.492,0,0.874-0.189,1.146-0.57
			c0.271-0.381,0.406-0.92,0.406-1.617c0-1.23-0.479-1.846-1.436-1.846c-0.442,0-0.803,0.168-1.084,0.503
			C156.682,206.521,156.541,206.964,156.541,207.515z"/>
		<path fill="#2F2F2F" d="M175.176,211.201h-2.618l-1.688-3.193c-0.063-0.118-0.13-0.337-0.198-0.656h-0.027
			c-0.032,0.15-0.107,0.379-0.226,0.684l-1.695,3.166h-2.632l3.124-4.902l-2.857-4.9h2.687l1.401,2.939
			c0.109,0.232,0.207,0.508,0.294,0.826h0.027c0.055-0.191,0.157-0.476,0.308-0.854l1.559-2.912h2.461l-2.939,4.859L175.176,211.201
			z"/>
		<path fill="#2F2F2F" d="M176.05,210.879V209c0.656,0.479,1.422,0.717,2.297,0.717c0.552,0,0.981-0.118,1.288-0.355
			c0.309-0.236,0.462-0.566,0.462-0.99c0-0.438-0.19-0.775-0.571-1.012c-0.38-0.237-0.903-0.355-1.568-0.355h-0.909v-1.654h0.841
			c1.276,0,1.914-0.424,1.914-1.271c0-0.798-0.49-1.197-1.47-1.197c-0.656,0-1.294,0.213-1.914,0.637v-1.764
			c0.688-0.347,1.49-0.52,2.406-0.52c1.003,0,1.783,0.225,2.341,0.676c0.559,0.451,0.838,1.037,0.838,1.758
			c0,1.28-0.649,2.082-1.948,2.406v0.033c0.692,0.087,1.239,0.339,1.641,0.756s0.602,0.929,0.602,1.535
			c0,0.916-0.335,1.641-1.005,2.174s-1.595,0.799-2.775,0.799C177.506,211.371,176.684,211.207,176.05,210.879z"/>
	</g>
	<g>
		<path fill="#2F2F2F" d="M216.414,211.201v-9.803h3.473c3.481,0,5.223,1.592,5.223,4.777c0,1.527-0.475,2.746-1.426,3.658
			c-0.949,0.911-2.216,1.367-3.797,1.367H216.414z M218.622,203.195v6.215h1.094c0.957,0,1.708-0.287,2.253-0.861
			c0.544-0.574,0.816-1.356,0.816-2.346c0-0.934-0.27-1.668-0.811-2.204c-0.539-0.536-1.297-0.804-2.272-0.804H218.622z"/>
		<path fill="#2F2F2F" d="M232.806,208.316h-4.566c0.073,1.016,0.713,1.523,1.921,1.523c0.771,0,1.447-0.182,2.03-0.547v1.559
			c-0.647,0.347-1.488,0.52-2.522,0.52c-1.13,0-2.008-0.312-2.632-0.939s-0.937-1.5-0.937-2.621c0-1.162,0.337-2.083,1.012-2.762
			c0.675-0.68,1.504-1.02,2.488-1.02c1.021,0,1.811,0.304,2.369,0.91c0.558,0.605,0.837,1.428,0.837,2.467V208.316z M230.803,206.99
			c0-1.003-0.405-1.504-1.217-1.504c-0.347,0-0.646,0.143-0.898,0.43c-0.254,0.287-0.407,0.646-0.462,1.074H230.803z"/>
		<path fill="#2F2F2F" d="M236.359,210.386h-0.027v4.033h-2.16v-10.219h2.16v1.053h0.027c0.533-0.816,1.283-1.225,2.249-1.225
			c0.907,0,1.607,0.312,2.102,0.934c0.495,0.622,0.742,1.469,0.742,2.539c0,1.167-0.288,2.104-0.865,2.811
			c-0.576,0.706-1.343,1.059-2.3,1.059C237.444,211.371,236.801,211.043,236.359,210.386z M236.297,207.515v0.561
			c0,0.483,0.128,0.878,0.383,1.184c0.255,0.305,0.59,0.457,1.005,0.457c0.492,0,0.874-0.189,1.146-0.57
			c0.271-0.381,0.406-0.92,0.406-1.617c0-1.23-0.479-1.846-1.436-1.846c-0.442,0-0.803,0.168-1.084,0.503
			C236.438,206.521,236.297,206.964,236.297,207.515z"/>
		<path fill="#2F2F2F" d="M245.041,211.201h-2.16v-10.363h2.16V211.201z"/>
		<path fill="#2F2F2F" d="M250.184,211.371c-1.167,0-2.084-0.326-2.751-0.98c-0.668-0.654-1.002-1.541-1.002-2.662
			c0-1.158,0.347-2.064,1.039-2.718s1.629-0.981,2.81-0.981c1.162,0,2.073,0.328,2.734,0.981s0.991,1.519,0.991,2.595
			c0,1.162-0.341,2.08-1.021,2.754C252.302,211.034,251.369,211.371,250.184,211.371z M250.239,205.683
			c-0.511,0-0.907,0.176-1.189,0.527c-0.282,0.351-0.424,0.848-0.424,1.49c0,1.344,0.542,2.016,1.627,2.016
			c1.034,0,1.552-0.689,1.552-2.07C251.804,206.337,251.283,205.683,250.239,205.683z"/>
		<path fill="#2F2F2F" d="M261.859,204.201l-2.844,7.561c-0.684,1.818-1.714,2.727-3.09,2.727c-0.524,0-0.955-0.059-1.292-0.178
			v-1.723c0.287,0.169,0.6,0.254,0.937,0.254c0.556,0,0.943-0.263,1.162-0.787l0.369-0.867l-2.844-6.986h2.393l1.306,4.258
			c0.082,0.265,0.146,0.577,0.191,0.938h0.027c0.041-0.265,0.116-0.572,0.226-0.924l1.319-4.271H261.859z"/>
		<path fill="#2F2F2F" d="M273.898,211.201h-2.153v-3.992c0-1.017-0.374-1.525-1.121-1.525c-0.355,0-0.645,0.153-0.868,0.459
			c-0.224,0.305-0.335,0.686-0.335,1.141v3.918h-2.16v-4.033c0-0.989-0.367-1.484-1.101-1.484c-0.369,0-0.664,0.146-0.886,0.438
			c-0.221,0.292-0.331,0.688-0.331,1.189v3.891h-2.16v-7h2.16v1.094h0.027c0.224-0.374,0.536-0.678,0.94-0.913
			c0.402-0.235,0.844-0.353,1.322-0.353c0.989,0,1.666,0.436,2.03,1.307c0.533-0.871,1.317-1.307,2.352-1.307
			c1.522,0,2.283,0.939,2.283,2.816V211.201z"/>
		<path fill="#2F2F2F" d="M281.918,208.316h-4.566c0.073,1.016,0.713,1.523,1.921,1.523c0.771,0,1.447-0.182,2.03-0.547v1.559
			c-0.647,0.347-1.488,0.52-2.522,0.52c-1.13,0-2.008-0.312-2.632-0.939s-0.937-1.5-0.937-2.621c0-1.162,0.337-2.083,1.012-2.762
			c0.675-0.68,1.504-1.02,2.488-1.02c1.021,0,1.811,0.304,2.369,0.91c0.558,0.605,0.837,1.428,0.837,2.467V208.316z M279.916,206.99
			c0-1.003-0.405-1.504-1.217-1.504c-0.347,0-0.646,0.143-0.898,0.43c-0.254,0.287-0.407,0.646-0.462,1.074H279.916z"/>
		<path fill="#2F2F2F" d="M290.044,211.201h-2.153v-3.891c0-1.084-0.388-1.627-1.162-1.627c-0.374,0-0.682,0.145-0.923,0.432
			s-0.362,0.651-0.362,1.094v3.992h-2.16v-7h2.16v1.107h0.027c0.515-0.853,1.265-1.279,2.249-1.279c1.55,0,2.324,0.962,2.324,2.885
			V211.201z"/>
		<path fill="#2F2F2F" d="M295.894,211.119c-0.319,0.168-0.8,0.252-1.442,0.252c-1.522,0-2.283-0.79-2.283-2.371v-3.207h-1.135
			v-1.592h1.135v-1.512l2.153-0.615v2.127h1.572v1.592h-1.572v2.83c0,0.729,0.289,1.094,0.868,1.094
			c0.228,0,0.463-0.065,0.704-0.197V211.119z"/>
		<path fill="#2F2F2F" d="M300.515,211.015v-1.75c0.355,0.215,0.71,0.374,1.062,0.479c0.354,0.105,0.688,0.158,1.002,0.158
			c0.383,0,0.685-0.053,0.906-0.158c0.221-0.104,0.331-0.264,0.331-0.479c0-0.137-0.05-0.25-0.15-0.342
			c-0.101-0.091-0.229-0.17-0.386-0.238c-0.158-0.068-0.33-0.131-0.517-0.186s-0.367-0.115-0.54-0.184
			c-0.278-0.105-0.523-0.219-0.734-0.339c-0.213-0.12-0.391-0.261-0.533-0.421c-0.145-0.159-0.254-0.344-0.328-0.553
			c-0.076-0.21-0.113-0.459-0.113-0.746c0-0.392,0.086-0.729,0.256-1.012c0.172-0.282,0.399-0.514,0.684-0.693
			c0.285-0.18,0.611-0.312,0.979-0.396c0.366-0.084,0.748-0.127,1.145-0.127c0.31,0,0.624,0.024,0.943,0.072
			s0.634,0.117,0.943,0.209v1.668c-0.273-0.16-0.566-0.279-0.879-0.359c-0.312-0.08-0.618-0.119-0.919-0.119
			c-0.142,0-0.274,0.012-0.399,0.037c-0.126,0.025-0.236,0.062-0.332,0.109s-0.171,0.109-0.226,0.185s-0.082,0.161-0.082,0.257
			c0,0.127,0.041,0.236,0.123,0.328c0.082,0.091,0.189,0.17,0.321,0.235s0.279,0.126,0.441,0.178
			c0.161,0.052,0.322,0.106,0.481,0.161c0.287,0.1,0.547,0.209,0.779,0.328c0.232,0.118,0.432,0.257,0.599,0.416
			c0.166,0.16,0.293,0.347,0.383,0.561c0.088,0.215,0.133,0.47,0.133,0.766c0,0.415-0.09,0.77-0.27,1.063
			c-0.181,0.294-0.42,0.533-0.719,0.718c-0.298,0.185-0.643,0.318-1.031,0.403c-0.391,0.085-0.795,0.126-1.214,0.126
			C301.884,211.371,301.171,211.253,300.515,211.015z"/>
		<path fill="#2F2F2F" d="M311.322,211.119c-0.319,0.168-0.8,0.252-1.442,0.252c-1.522,0-2.283-0.79-2.283-2.371v-3.207h-1.135
			v-1.592h1.135v-1.512l2.153-0.615v2.127h1.572v1.592h-1.572v2.83c0,0.729,0.289,1.094,0.868,1.094
			c0.228,0,0.463-0.065,0.704-0.197V211.119z"/>
		<path fill="#2F2F2F" d="M318.502,211.201h-2.044v-1.006h-0.027c-0.47,0.784-1.164,1.176-2.085,1.176
			c-0.679,0-1.214-0.191-1.603-0.577c-0.391-0.386-0.585-0.899-0.585-1.542c0-1.357,0.805-2.142,2.413-2.352l1.9-0.252
			c0-0.766-0.415-1.148-1.244-1.148c-0.834,0-1.627,0.248-2.379,0.744v-1.627c0.301-0.154,0.712-0.291,1.234-0.41
			c0.521-0.118,0.996-0.178,1.425-0.178c1.996,0,2.994,0.996,2.994,2.988V211.201z M316.472,208.357v-0.473l-1.271,0.164
			c-0.702,0.092-1.053,0.408-1.053,0.951c0,0.246,0.086,0.447,0.256,0.604c0.172,0.157,0.402,0.235,0.694,0.235
			c0.405,0,0.736-0.14,0.991-0.42S316.472,208.785,316.472,208.357z"/>
		<path fill="#2F2F2F" d="M331.314,211.201h-2.153v-3.992c0-1.017-0.374-1.525-1.121-1.525c-0.355,0-0.645,0.153-0.868,0.459
			c-0.224,0.305-0.335,0.686-0.335,1.141v3.918h-2.16v-4.033c0-0.989-0.367-1.484-1.101-1.484c-0.369,0-0.664,0.146-0.886,0.438
			c-0.221,0.292-0.331,0.688-0.331,1.189v3.891h-2.16v-7h2.16v1.094h0.027c0.224-0.374,0.536-0.678,0.94-0.913
			c0.402-0.235,0.844-0.353,1.322-0.353c0.989,0,1.666,0.436,2.03,1.307c0.533-0.871,1.317-1.307,2.352-1.307
			c1.522,0,2.283,0.939,2.283,2.816V211.201z"/>
		<path fill="#2F2F2F" d="M335.198,210.386h-0.027v4.033h-2.16v-10.219h2.16v1.053h0.027c0.533-0.816,1.283-1.225,2.249-1.225
			c0.907,0,1.607,0.312,2.102,0.934c0.495,0.622,0.742,1.469,0.742,2.539c0,1.167-0.288,2.104-0.865,2.811
			c-0.576,0.706-1.343,1.059-2.3,1.059C336.283,211.371,335.64,211.043,335.198,210.386z M335.136,207.515v0.561
			c0,0.483,0.128,0.878,0.383,1.184c0.255,0.305,0.59,0.457,1.005,0.457c0.492,0,0.874-0.189,1.146-0.57
			c0.271-0.381,0.406-0.92,0.406-1.617c0-1.23-0.479-1.846-1.436-1.846c-0.442,0-0.803,0.168-1.084,0.503
			C335.277,206.521,335.136,206.964,335.136,207.515z"/>
		<path fill="#2F2F2F" d="M353.771,211.201h-2.618l-1.688-3.193c-0.063-0.118-0.13-0.337-0.198-0.656h-0.027
			c-0.032,0.15-0.107,0.379-0.226,0.684l-1.695,3.166h-2.632l3.124-4.902l-2.857-4.9h2.687l1.401,2.939
			c0.109,0.232,0.207,0.508,0.294,0.826h0.027c0.055-0.191,0.157-0.476,0.308-0.854l1.559-2.912h2.461l-2.939,4.859L353.771,211.201
			z"/>
		<path fill="#2F2F2F" d="M363.438,211.201h-2.017l-3.069-6.229c-0.027-0.055-0.057-0.118-0.089-0.191
			c-0.032-0.072-0.063-0.146-0.096-0.222s-0.062-0.147-0.089-0.216s-0.048-0.129-0.062-0.184h-0.041
			c-0.022,0.168-0.048,0.357-0.075,0.566c-0.027,0.21-0.066,0.418-0.116,0.623l-1.251,5.852h-2.071l2.071-9.803h2.188l2.939,5.994
			c0.022,0.051,0.051,0.111,0.086,0.182c0.033,0.07,0.068,0.144,0.102,0.219c0.035,0.075,0.066,0.149,0.096,0.223
			c0.03,0.072,0.052,0.137,0.065,0.191h0.027c0.005-0.068,0.012-0.145,0.021-0.229s0.021-0.17,0.034-0.257
			c0.014-0.086,0.028-0.17,0.044-0.252c0.017-0.082,0.031-0.155,0.045-0.219l1.244-5.852h2.085L363.438,211.201z"/>
	</g>
	<g>
		<path fill="#2F2F2F" d="M438.806,74.4v-9.803h3.473c3.481,0,5.223,1.593,5.223,4.778c0,1.526-0.475,2.745-1.426,3.657
			c-0.949,0.911-2.216,1.367-3.797,1.367H438.806z M441.014,66.395v6.214h1.094c0.957,0,1.708-0.287,2.253-0.861
			c0.544-0.574,0.816-1.356,0.816-2.345c0-0.935-0.27-1.669-0.811-2.205c-0.539-0.535-1.297-0.803-2.272-0.803H441.014z"/>
		<path fill="#2F2F2F" d="M455.198,71.515h-4.566c0.073,1.016,0.713,1.524,1.921,1.524c0.771,0,1.447-0.183,2.03-0.547v1.559
			c-0.647,0.346-1.488,0.52-2.522,0.52c-1.13,0-2.008-0.313-2.632-0.94c-0.624-0.626-0.937-1.5-0.937-2.621
			c0-1.162,0.337-2.083,1.012-2.762c0.675-0.68,1.504-1.019,2.488-1.019c1.021,0,1.811,0.303,2.369,0.909
			c0.558,0.605,0.837,1.429,0.837,2.468V71.515z M453.195,70.189c0-1.003-0.405-1.504-1.217-1.504c-0.347,0-0.646,0.144-0.898,0.431
			c-0.254,0.287-0.407,0.645-0.462,1.073H453.195z"/>
		<path fill="#2F2F2F" d="M458.751,73.587h-0.027v4.033h-2.16V67.4h2.16v1.053h0.027c0.533-0.816,1.283-1.224,2.249-1.224
			c0.907,0,1.607,0.311,2.102,0.933c0.495,0.622,0.742,1.469,0.742,2.54c0,1.166-0.288,2.103-0.865,2.81
			c-0.576,0.706-1.343,1.06-2.3,1.06C459.836,74.571,459.193,74.243,458.751,73.587z M458.689,70.715v0.561
			c0,0.482,0.128,0.877,0.383,1.183c0.255,0.305,0.59,0.458,1.005,0.458c0.492,0,0.874-0.19,1.146-0.571
			c0.271-0.38,0.406-0.919,0.406-1.616c0-1.23-0.479-1.846-1.436-1.846c-0.442,0-0.803,0.167-1.084,0.502
			C458.83,69.72,458.689,70.164,458.689,70.715z"/>
		<path fill="#2F2F2F" d="M467.433,74.4h-2.16V64.037h2.16V74.4z"/>
		<path fill="#2F2F2F" d="M472.576,74.571c-1.167,0-2.084-0.327-2.751-0.981c-0.668-0.653-1.002-1.541-1.002-2.662
			c0-1.158,0.347-2.063,1.039-2.718c0.692-0.653,1.629-0.98,2.81-0.98c1.162,0,2.073,0.327,2.734,0.98
			c0.661,0.654,0.991,1.519,0.991,2.595c0,1.162-0.341,2.08-1.021,2.755C474.694,74.233,473.761,74.571,472.576,74.571z
			 M472.631,68.883c-0.511,0-0.907,0.175-1.189,0.526c-0.282,0.351-0.424,0.848-0.424,1.49c0,1.344,0.542,2.017,1.627,2.017
			c1.034,0,1.552-0.69,1.552-2.071C474.196,69.537,473.675,68.883,472.631,68.883z"/>
		<path fill="#2F2F2F" d="M484.251,67.4l-2.844,7.561c-0.684,1.818-1.714,2.728-3.09,2.728c-0.524,0-0.955-0.06-1.292-0.178v-1.723
			c0.287,0.168,0.6,0.253,0.937,0.253c0.556,0,0.943-0.263,1.162-0.786l0.369-0.868l-2.844-6.986h2.393l1.306,4.259
			c0.082,0.264,0.146,0.576,0.191,0.937h0.027c0.041-0.265,0.116-0.572,0.226-0.923l1.319-4.272H484.251z"/>
		<path fill="#2F2F2F" d="M496.29,74.4h-2.153v-3.992c0-1.017-0.374-1.524-1.121-1.524c-0.355,0-0.645,0.152-0.868,0.458
			c-0.224,0.305-0.335,0.686-0.335,1.142V74.4h-2.16v-4.033c0-0.989-0.367-1.483-1.101-1.483c-0.369,0-0.664,0.146-0.886,0.438
			c-0.221,0.291-0.331,0.688-0.331,1.189v3.89h-2.16v-7h2.16v1.094h0.027c0.224-0.374,0.536-0.678,0.94-0.913
			c0.402-0.234,0.844-0.352,1.322-0.352c0.989,0,1.666,0.435,2.03,1.306c0.533-0.871,1.317-1.306,2.352-1.306
			c1.522,0,2.283,0.938,2.283,2.816V74.4z"/>
		<path fill="#2F2F2F" d="M504.311,71.515h-4.566c0.073,1.016,0.713,1.524,1.921,1.524c0.771,0,1.447-0.183,2.03-0.547v1.559
			c-0.647,0.346-1.488,0.52-2.522,0.52c-1.13,0-2.008-0.313-2.632-0.94c-0.624-0.626-0.937-1.5-0.937-2.621
			c0-1.162,0.337-2.083,1.012-2.762c0.675-0.68,1.504-1.019,2.488-1.019c1.021,0,1.811,0.303,2.369,0.909
			c0.558,0.605,0.837,1.429,0.837,2.468V71.515z M502.308,70.189c0-1.003-0.405-1.504-1.217-1.504c-0.347,0-0.646,0.144-0.898,0.431
			c-0.254,0.287-0.407,0.645-0.462,1.073H502.308z"/>
		<path fill="#2F2F2F" d="M512.437,74.4h-2.153v-3.89c0-1.085-0.388-1.627-1.162-1.627c-0.374,0-0.682,0.144-0.923,0.431
			s-0.362,0.651-0.362,1.094V74.4h-2.16v-7h2.16v1.107h0.027c0.515-0.853,1.265-1.278,2.249-1.278c1.55,0,2.324,0.961,2.324,2.885
			V74.4z"/>
		<path fill="#2F2F2F" d="M518.286,74.318c-0.319,0.168-0.8,0.253-1.442,0.253c-1.522,0-2.283-0.791-2.283-2.372v-3.206h-1.135V67.4
			h1.135v-1.511l2.153-0.615V67.4h1.572v1.593h-1.572v2.83c0,0.729,0.289,1.094,0.868,1.094c0.228,0,0.463-0.066,0.704-0.198V74.318
			z"/>
		<path fill="#2F2F2F" d="M522.907,74.215v-1.75c0.355,0.214,0.71,0.373,1.062,0.479c0.354,0.104,0.688,0.157,1.002,0.157
			c0.383,0,0.685-0.053,0.906-0.157c0.221-0.105,0.331-0.265,0.331-0.479c0-0.137-0.05-0.251-0.15-0.342
			c-0.101-0.092-0.229-0.171-0.386-0.239c-0.158-0.068-0.33-0.13-0.517-0.185s-0.367-0.116-0.54-0.185
			c-0.278-0.105-0.523-0.218-0.734-0.339c-0.213-0.12-0.391-0.261-0.533-0.42c-0.145-0.16-0.254-0.345-0.328-0.554
			c-0.076-0.21-0.113-0.458-0.113-0.745c0-0.393,0.086-0.729,0.256-1.012c0.172-0.283,0.399-0.514,0.684-0.694
			c0.285-0.18,0.611-0.312,0.979-0.396c0.366-0.084,0.748-0.126,1.145-0.126c0.31,0,0.624,0.023,0.943,0.071
			s0.634,0.117,0.943,0.209v1.668c-0.273-0.16-0.566-0.279-0.879-0.359c-0.312-0.079-0.618-0.119-0.919-0.119
			c-0.142,0-0.274,0.013-0.399,0.037c-0.126,0.025-0.236,0.062-0.332,0.109s-0.171,0.109-0.226,0.185s-0.082,0.161-0.082,0.257
			c0,0.127,0.041,0.236,0.123,0.328c0.082,0.091,0.189,0.17,0.321,0.235c0.132,0.066,0.279,0.126,0.441,0.178
			c0.161,0.053,0.322,0.106,0.481,0.161c0.287,0.1,0.547,0.209,0.779,0.328c0.232,0.118,0.432,0.257,0.599,0.417
			c0.166,0.159,0.293,0.346,0.383,0.561c0.088,0.214,0.133,0.469,0.133,0.766c0,0.414-0.09,0.769-0.27,1.062
			c-0.181,0.294-0.42,0.533-0.719,0.718c-0.298,0.185-0.643,0.319-1.031,0.403c-0.391,0.085-0.795,0.127-1.214,0.127
			C524.276,74.571,523.563,74.452,522.907,74.215z"/>
		<path fill="#2F2F2F" d="M533.714,74.318c-0.319,0.168-0.8,0.253-1.442,0.253c-1.522,0-2.283-0.791-2.283-2.372v-3.206h-1.135V67.4
			h1.135v-1.511l2.153-0.615V67.4h1.572v1.593h-1.572v2.83c0,0.729,0.289,1.094,0.868,1.094c0.228,0,0.463-0.066,0.704-0.198V74.318
			z"/>
		<path fill="#2F2F2F" d="M540.895,74.4h-2.044v-1.005h-0.027c-0.47,0.783-1.164,1.176-2.085,1.176
			c-0.679,0-1.214-0.192-1.603-0.578c-0.391-0.385-0.585-0.898-0.585-1.541c0-1.358,0.805-2.143,2.413-2.352l1.9-0.253
			c0-0.766-0.415-1.148-1.244-1.148c-0.834,0-1.627,0.248-2.379,0.745v-1.627c0.301-0.155,0.712-0.292,1.234-0.41
			c0.521-0.119,0.996-0.178,1.425-0.178c1.996,0,2.994,0.995,2.994,2.987V74.4z M538.864,71.556v-0.472l-1.271,0.164
			c-0.702,0.091-1.053,0.407-1.053,0.95c0,0.246,0.086,0.447,0.256,0.604c0.172,0.157,0.402,0.236,0.694,0.236
			c0.405,0,0.736-0.141,0.991-0.421S538.864,71.984,538.864,71.556z"/>
		<path fill="#2F2F2F" d="M553.706,74.4h-2.153v-3.992c0-1.017-0.374-1.524-1.121-1.524c-0.355,0-0.645,0.152-0.868,0.458
			c-0.224,0.305-0.335,0.686-0.335,1.142V74.4h-2.16v-4.033c0-0.989-0.367-1.483-1.101-1.483c-0.369,0-0.664,0.146-0.886,0.438
			c-0.221,0.291-0.331,0.688-0.331,1.189v3.89h-2.16v-7h2.16v1.094h0.027c0.224-0.374,0.536-0.678,0.94-0.913
			c0.402-0.234,0.844-0.352,1.322-0.352c0.989,0,1.666,0.435,2.03,1.306c0.533-0.871,1.317-1.306,2.352-1.306
			c1.522,0,2.283,0.938,2.283,2.816V74.4z"/>
		<path fill="#2F2F2F" d="M557.59,73.587h-0.027v4.033h-2.16V67.4h2.16v1.053h0.027c0.533-0.816,1.283-1.224,2.249-1.224
			c0.907,0,1.607,0.311,2.102,0.933c0.495,0.622,0.742,1.469,0.742,2.54c0,1.166-0.288,2.103-0.865,2.81
			c-0.576,0.706-1.343,1.06-2.3,1.06C558.675,74.571,558.032,74.243,557.59,73.587z M557.528,70.715v0.561
			c0,0.482,0.128,0.877,0.383,1.183c0.255,0.305,0.59,0.458,1.005,0.458c0.492,0,0.874-0.19,1.146-0.571
			c0.271-0.38,0.406-0.919,0.406-1.616c0-1.23-0.479-1.846-1.436-1.846c-0.442,0-0.803,0.167-1.084,0.502
			C557.669,69.72,557.528,70.164,557.528,70.715z"/>
		<path fill="#2F2F2F" d="M575.548,64.597l-3.192,6.316V74.4h-2.208v-3.445l-3.11-6.357h2.522l1.579,3.657
			c0.027,0.068,0.103,0.335,0.226,0.8h0.027c0.06-0.328,0.13-0.586,0.212-0.772l1.606-3.685H575.548z"/>
		<path fill="#2F2F2F" d="M580.752,64.379V74.4h-2.153v-7.588c-0.118,0.104-0.259,0.204-0.421,0.297
			c-0.161,0.094-0.333,0.178-0.516,0.253s-0.371,0.14-0.567,0.191c-0.196,0.053-0.39,0.09-0.581,0.113v-1.818
			c0.561-0.164,1.089-0.374,1.586-0.629c0.497-0.256,0.945-0.536,1.347-0.841H580.752z"/>
	</g>
	<g>
		<path fill="#2F2F2F" d="M422.223,30.8h-2.536l-1.524-2.522c-0.114-0.191-0.224-0.362-0.328-0.513s-0.211-0.279-0.317-0.387
			c-0.107-0.106-0.219-0.188-0.336-0.246c-0.115-0.057-0.242-0.085-0.379-0.085h-0.595V30.8H414v-9.803h3.5
			c2.379,0,3.568,0.889,3.568,2.666c0,0.342-0.053,0.657-0.157,0.946c-0.104,0.29-0.253,0.551-0.444,0.783s-0.423,0.433-0.693,0.602
			c-0.271,0.168-0.573,0.301-0.906,0.396v0.027c0.146,0.045,0.287,0.119,0.424,0.222s0.269,0.223,0.396,0.359s0.25,0.283,0.365,0.44
			c0.117,0.157,0.223,0.312,0.318,0.462L422.223,30.8z M416.208,22.652v2.728h0.957c0.474,0,0.854-0.137,1.142-0.41
			c0.292-0.278,0.438-0.622,0.438-1.032c0-0.857-0.513-1.285-1.538-1.285H416.208z"/>
		<path fill="#2F2F2F" d="M429.042,27.916h-4.566c0.073,1.016,0.713,1.524,1.921,1.524c0.771,0,1.447-0.183,2.03-0.547v1.559
			c-0.647,0.346-1.488,0.52-2.522,0.52c-1.13,0-2.008-0.313-2.632-0.94c-0.624-0.626-0.937-1.5-0.937-2.621
			c0-1.162,0.337-2.083,1.012-2.762c0.675-0.68,1.504-1.019,2.488-1.019c1.021,0,1.811,0.303,2.369,0.909
			c0.558,0.605,0.837,1.429,0.837,2.468V27.916z M427.039,26.589c0-1.003-0.405-1.504-1.217-1.504c-0.347,0-0.646,0.144-0.898,0.431
			c-0.254,0.287-0.407,0.645-0.462,1.073H427.039z"/>
		<path fill="#2F2F2F" d="M437.3,30.001c0,1.299-0.376,2.305-1.128,3.018c-0.752,0.714-1.841,1.07-3.268,1.07
			c-0.943,0-1.69-0.135-2.242-0.403v-1.818c0.72,0.419,1.447,0.629,2.181,0.629c0.729,0,1.294-0.192,1.695-0.578
			c0.401-0.385,0.602-0.908,0.602-1.568v-0.554h-0.027c-0.492,0.783-1.219,1.176-2.181,1.176c-0.894,0-1.602-0.314-2.126-0.943
			s-0.786-1.473-0.786-2.529c0-1.186,0.292-2.126,0.875-2.823s1.352-1.046,2.304-1.046c0.853,0,1.49,0.328,1.914,0.984h0.027V23.8
			h2.16V30.001z M435.167,27.437v-0.554c0-0.442-0.131-0.819-0.394-1.132c-0.262-0.312-0.603-0.468-1.021-0.468
			c-0.479,0-0.854,0.187-1.128,0.561c-0.273,0.373-0.41,0.899-0.41,1.579c0,0.583,0.13,1.045,0.39,1.384
			c0.26,0.34,0.615,0.51,1.066,0.51c0.446,0,0.808-0.172,1.084-0.517C435.03,28.457,435.167,28.002,435.167,27.437z"/>
		<path fill="#2F2F2F" d="M440.156,22.693c-0.364,0-0.663-0.108-0.896-0.325c-0.232-0.216-0.349-0.481-0.349-0.796
			c0-0.324,0.116-0.588,0.349-0.793s0.531-0.308,0.896-0.308c0.369,0,0.669,0.103,0.899,0.308c0.229,0.205,0.345,0.469,0.345,0.793
			c0,0.328-0.115,0.597-0.345,0.807C440.825,22.587,440.525,22.693,440.156,22.693z M441.222,30.8h-2.16v-7h2.16V30.8z"/>
		<path fill="#2F2F2F" d="M446.333,30.971c-1.167,0-2.084-0.327-2.751-0.981c-0.668-0.653-1.002-1.541-1.002-2.662
			c0-1.158,0.347-2.063,1.039-2.718c0.692-0.653,1.629-0.98,2.81-0.98c1.162,0,2.073,0.327,2.734,0.98
			c0.661,0.654,0.991,1.519,0.991,2.595c0,1.162-0.341,2.08-1.021,2.755C448.451,30.633,447.517,30.971,446.333,30.971z
			 M446.387,25.284c-0.511,0-0.907,0.175-1.189,0.526c-0.282,0.351-0.424,0.848-0.424,1.49c0,1.344,0.542,2.017,1.627,2.017
			c1.034,0,1.552-0.69,1.552-2.071C447.953,25.937,447.431,25.284,446.387,25.284z"/>
		<path fill="#2F2F2F" d="M458.295,30.8h-2.153v-3.89c0-1.085-0.388-1.627-1.162-1.627c-0.374,0-0.682,0.144-0.923,0.431
			s-0.362,0.651-0.362,1.094V30.8h-2.16v-7h2.16v1.107h0.027c0.515-0.853,1.265-1.278,2.249-1.278c1.55,0,2.324,0.961,2.324,2.885
			V30.8z"/>
		<path fill="#2F2F2F" d="M471.468,20.998l-3.192,6.316V30.8h-2.208v-3.445l-3.11-6.357h2.522l1.579,3.657
			c0.027,0.068,0.103,0.335,0.226,0.8h0.027c0.06-0.328,0.13-0.586,0.212-0.772l1.606-3.685H471.468z"/>
	</g>
	<g>
		<path fill="#2F2F2F" d="M618.335,74.4v-9.803h3.473c3.481,0,5.223,1.593,5.223,4.778c0,1.526-0.475,2.745-1.426,3.657
			c-0.949,0.911-2.216,1.367-3.797,1.367H618.335z M620.543,66.395v6.214h1.094c0.957,0,1.708-0.287,2.253-0.861
			c0.544-0.574,0.816-1.356,0.816-2.345c0-0.935-0.27-1.669-0.811-2.205c-0.539-0.535-1.297-0.803-2.272-0.803H620.543z"/>
		<path fill="#2F2F2F" d="M634.728,71.515h-4.566c0.073,1.016,0.713,1.524,1.921,1.524c0.771,0,1.447-0.183,2.03-0.547v1.559
			c-0.647,0.346-1.488,0.52-2.522,0.52c-1.13,0-2.008-0.313-2.632-0.94c-0.624-0.626-0.937-1.5-0.937-2.621
			c0-1.162,0.337-2.083,1.012-2.762c0.675-0.68,1.504-1.019,2.488-1.019c1.021,0,1.811,0.303,2.369,0.909
			c0.558,0.605,0.837,1.429,0.837,2.468V71.515z M632.725,70.189c0-1.003-0.405-1.504-1.217-1.504c-0.347,0-0.646,0.144-0.898,0.431
			c-0.254,0.287-0.407,0.645-0.462,1.073H632.725z"/>
		<path fill="#2F2F2F" d="M638.281,73.587h-0.027v4.033h-2.16V67.4h2.16v1.053h0.027c0.533-0.816,1.283-1.224,2.249-1.224
			c0.907,0,1.607,0.311,2.102,0.933c0.495,0.622,0.742,1.469,0.742,2.54c0,1.166-0.288,2.103-0.865,2.81
			c-0.576,0.706-1.343,1.06-2.3,1.06C639.366,74.571,638.723,74.243,638.281,73.587z M638.219,70.715v0.561
			c0,0.482,0.128,0.877,0.383,1.183c0.255,0.305,0.59,0.458,1.005,0.458c0.492,0,0.874-0.19,1.146-0.571
			c0.271-0.38,0.406-0.919,0.406-1.616c0-1.23-0.479-1.846-1.436-1.846c-0.442,0-0.803,0.167-1.084,0.502
			C638.36,69.72,638.219,70.164,638.219,70.715z"/>
		<path fill="#2F2F2F" d="M646.962,74.4h-2.16V64.037h2.16V74.4z"/>
		<path fill="#2F2F2F" d="M652.106,74.571c-1.167,0-2.084-0.327-2.751-0.981c-0.668-0.653-1.002-1.541-1.002-2.662
			c0-1.158,0.347-2.063,1.039-2.718c0.692-0.653,1.629-0.98,2.81-0.98c1.162,0,2.073,0.327,2.734,0.98
			c0.661,0.654,0.991,1.519,0.991,2.595c0,1.162-0.341,2.08-1.021,2.755C654.224,74.233,653.291,74.571,652.106,74.571z
			 M652.161,68.883c-0.511,0-0.907,0.175-1.189,0.526c-0.282,0.351-0.424,0.848-0.424,1.49c0,1.344,0.542,2.017,1.627,2.017
			c1.034,0,1.552-0.69,1.552-2.071C653.726,69.537,653.205,68.883,652.161,68.883z"/>
		<path fill="#2F2F2F" d="M663.781,67.4l-2.844,7.561c-0.684,1.818-1.714,2.728-3.09,2.728c-0.524,0-0.955-0.06-1.292-0.178v-1.723
			c0.287,0.168,0.6,0.253,0.937,0.253c0.556,0,0.943-0.263,1.162-0.786l0.369-0.868l-2.844-6.986h2.393l1.306,4.259
			c0.082,0.264,0.146,0.576,0.191,0.937h0.027c0.041-0.265,0.116-0.572,0.226-0.923l1.319-4.272H663.781z"/>
		<path fill="#2F2F2F" d="M675.82,74.4h-2.153v-3.992c0-1.017-0.374-1.524-1.121-1.524c-0.355,0-0.645,0.152-0.868,0.458
			c-0.224,0.305-0.335,0.686-0.335,1.142V74.4h-2.16v-4.033c0-0.989-0.367-1.483-1.101-1.483c-0.369,0-0.664,0.146-0.886,0.438
			c-0.221,0.291-0.331,0.688-0.331,1.189v3.89h-2.16v-7h2.16v1.094h0.027c0.224-0.374,0.536-0.678,0.94-0.913
			c0.402-0.234,0.844-0.352,1.322-0.352c0.989,0,1.666,0.435,2.03,1.306c0.533-0.871,1.317-1.306,2.352-1.306
			c1.522,0,2.283,0.938,2.283,2.816V74.4z"/>
		<path fill="#2F2F2F" d="M683.841,71.515h-4.567c0.073,1.016,0.713,1.524,1.921,1.524c0.771,0,1.447-0.183,2.03-0.547v1.559
			c-0.647,0.346-1.488,0.52-2.522,0.52c-1.13,0-2.008-0.313-2.632-0.94c-0.624-0.626-0.937-1.5-0.937-2.621
			c0-1.162,0.337-2.083,1.012-2.762c0.675-0.68,1.504-1.019,2.489-1.019c1.021,0,1.811,0.303,2.369,0.909
			c0.558,0.605,0.837,1.429,0.837,2.468V71.515z M681.838,70.189c0-1.003-0.405-1.504-1.217-1.504c-0.347,0-0.647,0.144-0.899,0.431
			c-0.254,0.287-0.407,0.645-0.462,1.073H681.838z"/>
		<path fill="#2F2F2F" d="M691.967,74.4h-2.153v-3.89c0-1.085-0.388-1.627-1.162-1.627c-0.374,0-0.682,0.144-0.923,0.431
			s-0.362,0.651-0.362,1.094V74.4h-2.16v-7h2.16v1.107h0.027c0.515-0.853,1.265-1.278,2.249-1.278c1.55,0,2.324,0.961,2.324,2.885
			V74.4z"/>
		<path fill="#2F2F2F" d="M697.816,74.318c-0.319,0.168-0.8,0.253-1.442,0.253c-1.522,0-2.283-0.791-2.283-2.372v-3.206h-1.135V67.4
			h1.135v-1.511l2.153-0.615V67.4h1.572v1.593h-1.572v2.83c0,0.729,0.289,1.094,0.868,1.094c0.228,0,0.463-0.066,0.704-0.198V74.318
			z"/>
		<path fill="#2F2F2F" d="M702.438,74.215v-1.75c0.355,0.214,0.71,0.373,1.062,0.479c0.354,0.104,0.688,0.157,1.002,0.157
			c0.383,0,0.685-0.053,0.906-0.157c0.221-0.105,0.331-0.265,0.331-0.479c0-0.137-0.05-0.251-0.15-0.342
			c-0.101-0.092-0.229-0.171-0.386-0.239c-0.158-0.068-0.33-0.13-0.517-0.185s-0.367-0.116-0.54-0.185
			c-0.278-0.105-0.523-0.218-0.734-0.339c-0.213-0.12-0.391-0.261-0.533-0.42c-0.145-0.16-0.254-0.345-0.328-0.554
			c-0.076-0.21-0.113-0.458-0.113-0.745c0-0.393,0.086-0.729,0.256-1.012c0.172-0.283,0.399-0.514,0.684-0.694
			c0.285-0.18,0.611-0.312,0.979-0.396c0.366-0.084,0.748-0.126,1.145-0.126c0.31,0,0.624,0.023,0.943,0.071
			s0.634,0.117,0.943,0.209v1.668c-0.273-0.16-0.566-0.279-0.879-0.359c-0.312-0.079-0.618-0.119-0.919-0.119
			c-0.142,0-0.274,0.013-0.399,0.037c-0.126,0.025-0.236,0.062-0.332,0.109s-0.171,0.109-0.226,0.185s-0.082,0.161-0.082,0.257
			c0,0.127,0.041,0.236,0.123,0.328c0.082,0.091,0.189,0.17,0.321,0.235c0.132,0.066,0.279,0.126,0.441,0.178
			c0.161,0.053,0.322,0.106,0.481,0.161c0.287,0.1,0.547,0.209,0.779,0.328c0.232,0.118,0.432,0.257,0.599,0.417
			c0.166,0.159,0.293,0.346,0.383,0.561c0.088,0.214,0.133,0.469,0.133,0.766c0,0.414-0.09,0.769-0.27,1.062
			c-0.181,0.294-0.42,0.533-0.719,0.718c-0.298,0.185-0.643,0.319-1.031,0.403c-0.391,0.085-0.795,0.127-1.214,0.127
			C703.807,74.571,703.094,74.452,702.438,74.215z"/>
		<path fill="#2F2F2F" d="M713.244,74.318c-0.319,0.168-0.8,0.253-1.442,0.253c-1.522,0-2.283-0.791-2.283-2.372v-3.206h-1.135V67.4
			h1.135v-1.511l2.153-0.615V67.4h1.572v1.593h-1.572v2.83c0,0.729,0.289,1.094,0.868,1.094c0.228,0,0.463-0.066,0.704-0.198V74.318
			z"/>
		<path fill="#2F2F2F" d="M720.425,74.4h-2.044v-1.005h-0.027c-0.47,0.783-1.164,1.176-2.085,1.176
			c-0.679,0-1.214-0.192-1.603-0.578c-0.391-0.385-0.585-0.898-0.585-1.541c0-1.358,0.805-2.143,2.413-2.352l1.9-0.253
			c0-0.766-0.415-1.148-1.244-1.148c-0.834,0-1.627,0.248-2.379,0.745v-1.627c0.301-0.155,0.712-0.292,1.234-0.41
			c0.521-0.119,0.996-0.178,1.425-0.178c1.996,0,2.994,0.995,2.994,2.987V74.4z M718.395,71.556v-0.472l-1.271,0.164
			c-0.702,0.091-1.053,0.407-1.053,0.95c0,0.246,0.086,0.447,0.256,0.604c0.172,0.157,0.402,0.236,0.694,0.236
			c0.405,0,0.736-0.141,0.991-0.421S718.395,71.984,718.395,71.556z"/>
		<path fill="#2F2F2F" d="M733.236,74.4h-2.153v-3.992c0-1.017-0.374-1.524-1.121-1.524c-0.355,0-0.645,0.152-0.868,0.458
			c-0.224,0.305-0.335,0.686-0.335,1.142V74.4h-2.16v-4.033c0-0.989-0.367-1.483-1.101-1.483c-0.369,0-0.664,0.146-0.886,0.438
			c-0.221,0.291-0.331,0.688-0.331,1.189v3.89h-2.16v-7h2.16v1.094h0.027c0.224-0.374,0.536-0.678,0.94-0.913
			c0.402-0.234,0.844-0.352,1.322-0.352c0.989,0,1.666,0.435,2.03,1.306c0.533-0.871,1.317-1.306,2.352-1.306
			c1.522,0,2.283,0.938,2.283,2.816V74.4z"/>
		<path fill="#2F2F2F" d="M737.12,73.587h-0.027v4.033h-2.16V67.4h2.16v1.053h0.027c0.533-0.816,1.283-1.224,2.249-1.224
			c0.907,0,1.607,0.311,2.102,0.933c0.495,0.622,0.742,1.469,0.742,2.54c0,1.166-0.288,2.103-0.865,2.81
			c-0.576,0.706-1.343,1.06-2.3,1.06C738.205,74.571,737.562,74.243,737.12,73.587z M737.059,70.715v0.561
			c0,0.482,0.128,0.877,0.383,1.183c0.255,0.305,0.59,0.458,1.005,0.458c0.492,0,0.874-0.19,1.146-0.571
			c0.271-0.38,0.406-0.919,0.406-1.616c0-1.23-0.479-1.846-1.436-1.846c-0.442,0-0.803,0.167-1.084,0.502
			C737.199,69.72,737.059,70.164,737.059,70.715z"/>
		<path fill="#2F2F2F" d="M755.078,64.597l-3.192,6.316V74.4h-2.208v-3.445l-3.11-6.357h2.522l1.579,3.657
			c0.027,0.068,0.103,0.335,0.226,0.8h0.027c0.06-0.328,0.13-0.586,0.212-0.772l1.606-3.685H755.078z"/>
		<path fill="#2F2F2F" d="M757.871,72.609h4.156V74.4h-6.521v-0.738c0-0.502,0.084-0.951,0.253-1.351
			c0.169-0.398,0.381-0.756,0.636-1.073c0.255-0.316,0.534-0.597,0.837-0.841c0.304-0.243,0.592-0.464,0.865-0.659
			c0.287-0.205,0.539-0.401,0.756-0.588c0.216-0.188,0.398-0.373,0.547-0.558c0.147-0.185,0.258-0.371,0.331-0.561
			c0.073-0.188,0.109-0.391,0.109-0.604c0-0.42-0.118-0.736-0.355-0.95c-0.237-0.215-0.6-0.321-1.087-0.321
			c-0.843,0-1.649,0.335-2.42,1.005v-1.9c0.853-0.552,1.813-0.827,2.885-0.827c0.497,0,0.942,0.064,1.336,0.194
			c0.395,0.13,0.729,0.315,1.002,0.558c0.273,0.241,0.482,0.534,0.625,0.878c0.145,0.345,0.216,0.729,0.216,1.152
			c0,0.451-0.069,0.852-0.208,1.203c-0.14,0.351-0.324,0.67-0.555,0.957c-0.229,0.287-0.495,0.55-0.796,0.789
			s-0.613,0.471-0.937,0.694c-0.219,0.154-0.43,0.309-0.633,0.461c-0.202,0.153-0.381,0.304-0.536,0.451
			c-0.155,0.148-0.278,0.293-0.369,0.435C757.917,72.346,757.871,72.481,757.871,72.609z"/>
	</g>
	<g>
		<path fill="#2F2F2F" d="M438.63,211.201v-9.803h3.473c3.481,0,5.223,1.592,5.223,4.777c0,1.527-0.475,2.746-1.426,3.658
			c-0.949,0.911-2.216,1.367-3.797,1.367H438.63z M440.838,203.195v6.215h1.094c0.957,0,1.708-0.287,2.253-0.861
			c0.544-0.574,0.816-1.356,0.816-2.346c0-0.934-0.27-1.668-0.811-2.204c-0.539-0.536-1.297-0.804-2.272-0.804H440.838z"/>
		<path fill="#2F2F2F" d="M455.022,208.316h-4.566c0.073,1.016,0.713,1.523,1.921,1.523c0.771,0,1.447-0.182,2.03-0.547v1.559
			c-0.647,0.347-1.488,0.52-2.522,0.52c-1.13,0-2.008-0.312-2.632-0.939s-0.937-1.5-0.937-2.621c0-1.162,0.337-2.083,1.012-2.762
			c0.675-0.68,1.504-1.02,2.488-1.02c1.021,0,1.811,0.304,2.369,0.91c0.558,0.605,0.837,1.428,0.837,2.467V208.316z M453.02,206.99
			c0-1.003-0.405-1.504-1.217-1.504c-0.347,0-0.646,0.143-0.898,0.43c-0.254,0.287-0.407,0.646-0.462,1.074H453.02z"/>
		<path fill="#2F2F2F" d="M458.575,210.386h-0.027v4.033h-2.16v-10.219h2.16v1.053h0.027c0.533-0.816,1.283-1.225,2.249-1.225
			c0.907,0,1.607,0.312,2.102,0.934c0.495,0.622,0.742,1.469,0.742,2.539c0,1.167-0.288,2.104-0.865,2.811
			c-0.576,0.706-1.343,1.059-2.3,1.059C459.66,211.371,459.018,211.043,458.575,210.386z M458.514,207.515v0.561
			c0,0.483,0.128,0.878,0.383,1.184c0.255,0.305,0.59,0.457,1.005,0.457c0.492,0,0.874-0.189,1.146-0.57
			c0.271-0.381,0.406-0.92,0.406-1.617c0-1.23-0.479-1.846-1.436-1.846c-0.442,0-0.803,0.168-1.084,0.503
			C458.654,206.521,458.514,206.964,458.514,207.515z"/>
		<path fill="#2F2F2F" d="M467.257,211.201h-2.16v-10.363h2.16V211.201z"/>
		<path fill="#2F2F2F" d="M472.4,211.371c-1.167,0-2.084-0.326-2.751-0.98c-0.668-0.654-1.002-1.541-1.002-2.662
			c0-1.158,0.347-2.064,1.039-2.718s1.629-0.981,2.81-0.981c1.162,0,2.073,0.328,2.734,0.981s0.991,1.519,0.991,2.595
			c0,1.162-0.341,2.08-1.021,2.754C474.519,211.034,473.585,211.371,472.4,211.371z M472.455,205.683
			c-0.511,0-0.907,0.176-1.189,0.527c-0.282,0.351-0.424,0.848-0.424,1.49c0,1.344,0.542,2.016,1.627,2.016
			c1.034,0,1.552-0.689,1.552-2.07C474.021,206.337,473.499,205.683,472.455,205.683z"/>
		<path fill="#2F2F2F" d="M484.075,204.201l-2.844,7.561c-0.684,1.818-1.714,2.727-3.09,2.727c-0.524,0-0.955-0.059-1.292-0.178
			v-1.723c0.287,0.169,0.6,0.254,0.937,0.254c0.556,0,0.943-0.263,1.162-0.787l0.369-0.867l-2.844-6.986h2.393l1.306,4.258
			c0.082,0.265,0.146,0.577,0.191,0.938h0.027c0.041-0.265,0.116-0.572,0.226-0.924l1.319-4.271H484.075z"/>
		<path fill="#2F2F2F" d="M496.114,211.201h-2.153v-3.992c0-1.017-0.374-1.525-1.121-1.525c-0.355,0-0.645,0.153-0.868,0.459
			c-0.224,0.305-0.335,0.686-0.335,1.141v3.918h-2.16v-4.033c0-0.989-0.367-1.484-1.101-1.484c-0.369,0-0.664,0.146-0.886,0.438
			c-0.221,0.292-0.331,0.688-0.331,1.189v3.891h-2.16v-7h2.16v1.094h0.027c0.224-0.374,0.536-0.678,0.94-0.913
			c0.402-0.235,0.844-0.353,1.322-0.353c0.989,0,1.666,0.436,2.03,1.307c0.533-0.871,1.317-1.307,2.352-1.307
			c1.522,0,2.283,0.939,2.283,2.816V211.201z"/>
		<path fill="#2F2F2F" d="M504.135,208.316h-4.566c0.073,1.016,0.713,1.523,1.921,1.523c0.771,0,1.447-0.182,2.03-0.547v1.559
			c-0.647,0.347-1.488,0.52-2.522,0.52c-1.13,0-2.008-0.312-2.632-0.939s-0.937-1.5-0.937-2.621c0-1.162,0.337-2.083,1.012-2.762
			c0.675-0.68,1.504-1.02,2.488-1.02c1.021,0,1.811,0.304,2.369,0.91c0.558,0.605,0.837,1.428,0.837,2.467V208.316z M502.132,206.99
			c0-1.003-0.405-1.504-1.217-1.504c-0.347,0-0.646,0.143-0.898,0.43c-0.254,0.287-0.407,0.646-0.462,1.074H502.132z"/>
		<path fill="#2F2F2F" d="M512.261,211.201h-2.153v-3.891c0-1.084-0.388-1.627-1.162-1.627c-0.374,0-0.682,0.145-0.923,0.432
			s-0.362,0.651-0.362,1.094v3.992h-2.16v-7h2.16v1.107h0.027c0.515-0.853,1.265-1.279,2.249-1.279c1.55,0,2.324,0.962,2.324,2.885
			V211.201z"/>
		<path fill="#2F2F2F" d="M518.11,211.119c-0.319,0.168-0.8,0.252-1.442,0.252c-1.522,0-2.283-0.79-2.283-2.371v-3.207h-1.135
			v-1.592h1.135v-1.512l2.153-0.615v2.127h1.572v1.592h-1.572v2.83c0,0.729,0.289,1.094,0.868,1.094
			c0.228,0,0.463-0.065,0.704-0.197V211.119z"/>
		<path fill="#2F2F2F" d="M522.731,211.015v-1.75c0.355,0.215,0.71,0.374,1.062,0.479c0.354,0.105,0.688,0.158,1.002,0.158
			c0.383,0,0.685-0.053,0.906-0.158c0.221-0.104,0.331-0.264,0.331-0.479c0-0.137-0.05-0.25-0.15-0.342
			c-0.101-0.091-0.229-0.17-0.386-0.238c-0.158-0.068-0.33-0.131-0.517-0.186s-0.367-0.115-0.54-0.184
			c-0.278-0.105-0.523-0.219-0.734-0.339c-0.213-0.12-0.391-0.261-0.533-0.421c-0.145-0.159-0.254-0.344-0.328-0.553
			c-0.076-0.21-0.113-0.459-0.113-0.746c0-0.392,0.086-0.729,0.256-1.012c0.172-0.282,0.399-0.514,0.684-0.693
			c0.285-0.18,0.611-0.312,0.979-0.396c0.366-0.084,0.748-0.127,1.145-0.127c0.31,0,0.624,0.024,0.943,0.072
			s0.634,0.117,0.943,0.209v1.668c-0.273-0.16-0.566-0.279-0.879-0.359c-0.312-0.08-0.618-0.119-0.919-0.119
			c-0.142,0-0.274,0.012-0.399,0.037c-0.126,0.025-0.236,0.062-0.332,0.109s-0.171,0.109-0.226,0.185s-0.082,0.161-0.082,0.257
			c0,0.127,0.041,0.236,0.123,0.328c0.082,0.091,0.189,0.17,0.321,0.235s0.279,0.126,0.441,0.178
			c0.161,0.052,0.322,0.106,0.481,0.161c0.287,0.1,0.547,0.209,0.779,0.328c0.232,0.118,0.432,0.257,0.599,0.416
			c0.166,0.16,0.293,0.347,0.383,0.561c0.088,0.215,0.133,0.47,0.133,0.766c0,0.415-0.09,0.77-0.27,1.063
			c-0.181,0.294-0.42,0.533-0.719,0.718c-0.298,0.185-0.643,0.318-1.031,0.403c-0.391,0.085-0.795,0.126-1.214,0.126
			C524.101,211.371,523.388,211.253,522.731,211.015z"/>
		<path fill="#2F2F2F" d="M533.538,211.119c-0.319,0.168-0.8,0.252-1.442,0.252c-1.522,0-2.283-0.79-2.283-2.371v-3.207h-1.135
			v-1.592h1.135v-1.512l2.153-0.615v2.127h1.572v1.592h-1.572v2.83c0,0.729,0.289,1.094,0.868,1.094
			c0.228,0,0.463-0.065,0.704-0.197V211.119z"/>
		<path fill="#2F2F2F" d="M540.719,211.201h-2.044v-1.006h-0.027c-0.47,0.784-1.164,1.176-2.085,1.176
			c-0.679,0-1.214-0.191-1.603-0.577c-0.391-0.386-0.585-0.899-0.585-1.542c0-1.357,0.805-2.142,2.413-2.352l1.9-0.252
			c0-0.766-0.415-1.148-1.244-1.148c-0.834,0-1.627,0.248-2.379,0.744v-1.627c0.301-0.154,0.712-0.291,1.234-0.41
			c0.521-0.118,0.996-0.178,1.425-0.178c1.996,0,2.994,0.996,2.994,2.988V211.201z M538.688,208.357v-0.473l-1.271,0.164
			c-0.702,0.092-1.053,0.408-1.053,0.951c0,0.246,0.086,0.447,0.256,0.604c0.172,0.157,0.402,0.235,0.694,0.235
			c0.405,0,0.736-0.14,0.991-0.42S538.688,208.785,538.688,208.357z"/>
		<path fill="#2F2F2F" d="M553.53,211.201h-2.153v-3.992c0-1.017-0.374-1.525-1.121-1.525c-0.355,0-0.645,0.153-0.868,0.459
			c-0.224,0.305-0.335,0.686-0.335,1.141v3.918h-2.16v-4.033c0-0.989-0.367-1.484-1.101-1.484c-0.369,0-0.664,0.146-0.886,0.438
			c-0.221,0.292-0.331,0.688-0.331,1.189v3.891h-2.16v-7h2.16v1.094h0.027c0.224-0.374,0.536-0.678,0.94-0.913
			c0.402-0.235,0.844-0.353,1.322-0.353c0.989,0,1.666,0.436,2.03,1.307c0.533-0.871,1.317-1.307,2.352-1.307
			c1.522,0,2.283,0.939,2.283,2.816V211.201z"/>
		<path fill="#2F2F2F" d="M557.414,210.386h-0.027v4.033h-2.16v-10.219h2.16v1.053h0.027c0.533-0.816,1.283-1.225,2.249-1.225
			c0.907,0,1.607,0.312,2.102,0.934c0.495,0.622,0.742,1.469,0.742,2.539c0,1.167-0.288,2.104-0.865,2.811
			c-0.576,0.706-1.343,1.059-2.3,1.059C558.499,211.371,557.856,211.043,557.414,210.386z M557.353,207.515v0.561
			c0,0.483,0.128,0.878,0.383,1.184c0.255,0.305,0.59,0.457,1.005,0.457c0.492,0,0.874-0.189,1.146-0.57
			c0.271-0.381,0.406-0.92,0.406-1.617c0-1.23-0.479-1.846-1.436-1.846c-0.442,0-0.803,0.168-1.084,0.503
			C557.493,206.521,557.353,206.964,557.353,207.515z"/>
		<path fill="#2F2F2F" d="M575.372,201.398l-3.192,6.316v3.486h-2.208v-3.445l-3.11-6.357h2.522l1.579,3.656
			c0.027,0.068,0.103,0.336,0.226,0.801h0.027c0.06-0.328,0.13-0.586,0.212-0.773l1.606-3.684H575.372z"/>
		<path fill="#2F2F2F" d="M576.039,210.879V209c0.656,0.479,1.422,0.717,2.297,0.717c0.552,0,0.981-0.118,1.288-0.355
			c0.309-0.236,0.462-0.566,0.462-0.99c0-0.438-0.19-0.775-0.571-1.012c-0.38-0.237-0.903-0.355-1.568-0.355h-0.909v-1.654h0.841
			c1.276,0,1.914-0.424,1.914-1.271c0-0.798-0.49-1.197-1.47-1.197c-0.656,0-1.294,0.213-1.914,0.637v-1.764
			c0.688-0.347,1.49-0.52,2.406-0.52c1.003,0,1.783,0.225,2.341,0.676c0.559,0.451,0.838,1.037,0.838,1.758
			c0,1.28-0.649,2.082-1.948,2.406v0.033c0.692,0.087,1.239,0.339,1.641,0.756s0.602,0.929,0.602,1.535
			c0,0.916-0.335,1.641-1.005,2.174s-1.595,0.799-2.775,0.799C577.495,211.371,576.673,211.207,576.039,210.879z"/>
	</g>
	<g>
		<path fill="#2F2F2F" d="M616.941,211.201v-9.803h3.473c3.481,0,5.223,1.592,5.223,4.777c0,1.527-0.475,2.746-1.426,3.658
			c-0.949,0.911-2.216,1.367-3.797,1.367H616.941z M619.149,203.195v6.215h1.094c0.957,0,1.708-0.287,2.253-0.861
			c0.544-0.574,0.816-1.356,0.816-2.346c0-0.934-0.27-1.668-0.811-2.204c-0.539-0.536-1.297-0.804-2.272-0.804H619.149z"/>
		<path fill="#2F2F2F" d="M633.333,208.316h-4.566c0.073,1.016,0.713,1.523,1.921,1.523c0.771,0,1.447-0.182,2.03-0.547v1.559
			c-0.647,0.347-1.488,0.52-2.522,0.52c-1.13,0-2.008-0.312-2.632-0.939s-0.937-1.5-0.937-2.621c0-1.162,0.337-2.083,1.012-2.762
			c0.675-0.68,1.504-1.02,2.488-1.02c1.021,0,1.811,0.304,2.369,0.91c0.558,0.605,0.837,1.428,0.837,2.467V208.316z M631.331,206.99
			c0-1.003-0.405-1.504-1.217-1.504c-0.347,0-0.646,0.143-0.898,0.43c-0.254,0.287-0.407,0.646-0.462,1.074H631.331z"/>
		<path fill="#2F2F2F" d="M636.886,210.386h-0.027v4.033h-2.16v-10.219h2.16v1.053h0.027c0.533-0.816,1.283-1.225,2.249-1.225
			c0.907,0,1.607,0.312,2.102,0.934c0.495,0.622,0.742,1.469,0.742,2.539c0,1.167-0.288,2.104-0.865,2.811
			c-0.576,0.706-1.343,1.059-2.3,1.059C637.971,211.371,637.329,211.043,636.886,210.386z M636.825,207.515v0.561
			c0,0.483,0.128,0.878,0.383,1.184c0.255,0.305,0.59,0.457,1.005,0.457c0.492,0,0.874-0.189,1.146-0.57
			c0.271-0.381,0.406-0.92,0.406-1.617c0-1.23-0.479-1.846-1.436-1.846c-0.442,0-0.803,0.168-1.084,0.503
			C636.965,206.521,636.825,206.964,636.825,207.515z"/>
		<path fill="#2F2F2F" d="M645.568,211.201h-2.16v-10.363h2.16V211.201z"/>
		<path fill="#2F2F2F" d="M650.711,211.371c-1.167,0-2.084-0.326-2.751-0.98c-0.668-0.654-1.002-1.541-1.002-2.662
			c0-1.158,0.347-2.064,1.039-2.718s1.629-0.981,2.81-0.981c1.162,0,2.073,0.328,2.734,0.981s0.991,1.519,0.991,2.595
			c0,1.162-0.341,2.08-1.021,2.754C652.83,211.034,651.896,211.371,650.711,211.371z M650.766,205.683
			c-0.511,0-0.907,0.176-1.189,0.527c-0.282,0.351-0.424,0.848-0.424,1.49c0,1.344,0.542,2.016,1.627,2.016
			c1.034,0,1.552-0.689,1.552-2.07C652.332,206.337,651.81,205.683,650.766,205.683z"/>
		<path fill="#2F2F2F" d="M662.386,204.201l-2.844,7.561c-0.684,1.818-1.714,2.727-3.09,2.727c-0.524,0-0.955-0.059-1.292-0.178
			v-1.723c0.287,0.169,0.6,0.254,0.937,0.254c0.556,0,0.943-0.263,1.162-0.787l0.369-0.867l-2.844-6.986h2.393l1.306,4.258
			c0.082,0.265,0.146,0.577,0.191,0.938h0.027c0.041-0.265,0.116-0.572,0.226-0.924l1.319-4.271H662.386z"/>
		<path fill="#2F2F2F" d="M674.425,211.201h-2.153v-3.992c0-1.017-0.374-1.525-1.121-1.525c-0.355,0-0.645,0.153-0.868,0.459
			c-0.224,0.305-0.335,0.686-0.335,1.141v3.918h-2.16v-4.033c0-0.989-0.367-1.484-1.101-1.484c-0.369,0-0.664,0.146-0.886,0.438
			c-0.221,0.292-0.331,0.688-0.331,1.189v3.891h-2.16v-7h2.16v1.094h0.027c0.224-0.374,0.536-0.678,0.94-0.913
			c0.402-0.235,0.844-0.353,1.322-0.353c0.989,0,1.666,0.436,2.03,1.307c0.533-0.871,1.317-1.307,2.352-1.307
			c1.522,0,2.283,0.939,2.283,2.816V211.201z"/>
		<path fill="#2F2F2F" d="M682.446,208.316h-4.567c0.073,1.016,0.713,1.523,1.921,1.523c0.771,0,1.448-0.182,2.031-0.547v1.559
			c-0.647,0.347-1.489,0.52-2.523,0.52c-1.13,0-2.008-0.312-2.632-0.939s-0.937-1.5-0.937-2.621c0-1.162,0.337-2.083,1.012-2.762
			c0.675-0.68,1.504-1.02,2.488-1.02c1.021,0,1.811,0.304,2.37,0.91c0.558,0.605,0.837,1.428,0.837,2.467V208.316z M680.443,206.99
			c0-1.003-0.405-1.504-1.217-1.504c-0.347,0-0.646,0.143-0.898,0.43c-0.254,0.287-0.407,0.646-0.462,1.074H680.443z"/>
		<path fill="#2F2F2F" d="M690.572,211.201h-2.153v-3.891c0-1.084-0.388-1.627-1.162-1.627c-0.374,0-0.682,0.145-0.923,0.432
			s-0.362,0.651-0.362,1.094v3.992h-2.16v-7h2.16v1.107h0.027c0.515-0.853,1.265-1.279,2.249-1.279c1.55,0,2.324,0.962,2.324,2.885
			V211.201z"/>
		<path fill="#2F2F2F" d="M696.422,211.119c-0.319,0.168-0.8,0.252-1.442,0.252c-1.522,0-2.283-0.79-2.283-2.371v-3.207h-1.135
			v-1.592h1.135v-1.512l2.153-0.615v2.127h1.572v1.592h-1.572v2.83c0,0.729,0.289,1.094,0.868,1.094
			c0.228,0,0.463-0.065,0.704-0.197V211.119z"/>
		<path fill="#2F2F2F" d="M701.043,211.015v-1.75c0.355,0.215,0.71,0.374,1.062,0.479c0.354,0.105,0.688,0.158,1.002,0.158
			c0.383,0,0.685-0.053,0.906-0.158c0.221-0.104,0.331-0.264,0.331-0.479c0-0.137-0.05-0.25-0.15-0.342
			c-0.101-0.091-0.229-0.17-0.386-0.238c-0.158-0.068-0.33-0.131-0.517-0.186s-0.367-0.115-0.54-0.184
			c-0.278-0.105-0.523-0.219-0.734-0.339c-0.213-0.12-0.391-0.261-0.533-0.421c-0.145-0.159-0.254-0.344-0.328-0.553
			c-0.076-0.21-0.113-0.459-0.113-0.746c0-0.392,0.086-0.729,0.256-1.012c0.172-0.282,0.399-0.514,0.684-0.693
			c0.285-0.18,0.611-0.312,0.979-0.396c0.366-0.084,0.748-0.127,1.145-0.127c0.31,0,0.624,0.024,0.943,0.072
			s0.634,0.117,0.943,0.209v1.668c-0.273-0.16-0.566-0.279-0.879-0.359c-0.312-0.08-0.618-0.119-0.919-0.119
			c-0.142,0-0.274,0.012-0.399,0.037c-0.126,0.025-0.236,0.062-0.332,0.109s-0.171,0.109-0.226,0.185s-0.082,0.161-0.082,0.257
			c0,0.127,0.041,0.236,0.123,0.328c0.082,0.091,0.189,0.17,0.321,0.235s0.279,0.126,0.441,0.178
			c0.161,0.052,0.322,0.106,0.481,0.161c0.287,0.1,0.547,0.209,0.779,0.328c0.232,0.118,0.432,0.257,0.599,0.416
			c0.166,0.16,0.293,0.347,0.383,0.561c0.088,0.215,0.133,0.47,0.133,0.766c0,0.415-0.09,0.77-0.27,1.063
			c-0.181,0.294-0.42,0.533-0.719,0.718c-0.298,0.185-0.643,0.318-1.031,0.403c-0.391,0.085-0.795,0.126-1.214,0.126
			C702.412,211.371,701.699,211.253,701.043,211.015z"/>
		<path fill="#2F2F2F" d="M711.85,211.119c-0.319,0.168-0.8,0.252-1.442,0.252c-1.522,0-2.283-0.79-2.283-2.371v-3.207h-1.135
			v-1.592h1.135v-1.512l2.153-0.615v2.127h1.572v1.592h-1.572v2.83c0,0.729,0.289,1.094,0.868,1.094
			c0.228,0,0.463-0.065,0.704-0.197V211.119z"/>
		<path fill="#2F2F2F" d="M719.03,211.201h-2.044v-1.006h-0.027c-0.47,0.784-1.164,1.176-2.085,1.176
			c-0.679,0-1.214-0.191-1.603-0.577c-0.391-0.386-0.585-0.899-0.585-1.542c0-1.357,0.805-2.142,2.413-2.352l1.9-0.252
			c0-0.766-0.415-1.148-1.244-1.148c-0.834,0-1.627,0.248-2.379,0.744v-1.627c0.301-0.154,0.712-0.291,1.234-0.41
			c0.521-0.118,0.996-0.178,1.425-0.178c1.996,0,2.994,0.996,2.994,2.988V211.201z M717,208.357v-0.473l-1.271,0.164
			c-0.702,0.092-1.053,0.408-1.053,0.951c0,0.246,0.086,0.447,0.256,0.604c0.172,0.157,0.402,0.235,0.694,0.235
			c0.405,0,0.736-0.14,0.991-0.42S717,208.785,717,208.357z"/>
		<path fill="#2F2F2F" d="M731.842,211.201h-2.153v-3.992c0-1.017-0.374-1.525-1.121-1.525c-0.355,0-0.645,0.153-0.868,0.459
			c-0.224,0.305-0.335,0.686-0.335,1.141v3.918h-2.16v-4.033c0-0.989-0.367-1.484-1.101-1.484c-0.369,0-0.664,0.146-0.886,0.438
			c-0.221,0.292-0.331,0.688-0.331,1.189v3.891h-2.16v-7h2.16v1.094h0.027c0.224-0.374,0.536-0.678,0.94-0.913
			c0.402-0.235,0.844-0.353,1.322-0.353c0.989,0,1.666,0.436,2.03,1.307c0.533-0.871,1.317-1.307,2.352-1.307
			c1.522,0,2.283,0.939,2.283,2.816V211.201z"/>
		<path fill="#2F2F2F" d="M735.726,210.386h-0.027v4.033h-2.16v-10.219h2.16v1.053h0.027c0.533-0.816,1.283-1.225,2.249-1.225
			c0.907,0,1.607,0.312,2.102,0.934c0.495,0.622,0.742,1.469,0.742,2.539c0,1.167-0.288,2.104-0.865,2.811
			c-0.576,0.706-1.343,1.059-2.3,1.059C736.811,211.371,736.168,211.043,735.726,210.386z M735.664,207.515v0.561
			c0,0.483,0.128,0.878,0.383,1.184c0.255,0.305,0.59,0.457,1.005,0.457c0.492,0,0.874-0.189,1.146-0.57
			c0.271-0.381,0.406-0.92,0.406-1.617c0-1.23-0.479-1.846-1.436-1.846c-0.442,0-0.803,0.168-1.084,0.503
			C735.805,206.521,735.664,206.964,735.664,207.515z"/>
		<path fill="#2F2F2F" d="M753.684,201.398l-3.192,6.316v3.486h-2.208v-3.445l-3.11-6.357h2.522l1.579,3.656
			c0.027,0.068,0.103,0.336,0.226,0.801h0.027c0.06-0.328,0.13-0.586,0.212-0.773l1.606-3.684H753.684z"/>
		<path fill="#2F2F2F" d="M762.317,211.201h-2.017l-3.069-6.229c-0.027-0.055-0.057-0.118-0.089-0.191
			c-0.032-0.072-0.063-0.146-0.096-0.222s-0.062-0.147-0.089-0.216s-0.048-0.129-0.062-0.184h-0.041
			c-0.022,0.168-0.048,0.357-0.075,0.566c-0.027,0.21-0.066,0.418-0.116,0.623l-1.251,5.852h-2.071l2.071-9.803h2.188l2.939,5.994
			c0.022,0.051,0.051,0.111,0.086,0.182c0.033,0.07,0.068,0.144,0.102,0.219c0.035,0.075,0.066,0.149,0.096,0.223
			c0.03,0.072,0.052,0.137,0.065,0.191h0.027c0.005-0.068,0.012-0.145,0.021-0.229s0.021-0.17,0.034-0.257
			c0.014-0.086,0.028-0.17,0.044-0.252c0.017-0.082,0.031-0.155,0.045-0.219l1.244-5.852h2.085L762.317,211.201z"/>
	</g>
</g>
<g id="Layer_1">
</g>
<g id="_x3C_Layer_x3E_">
</g>
</svg>
