<?xml version="1.0" encoding="UTF-8" standalone="no"?>
<!DOCTYPE svg PUBLIC "-//W3C//DTD SVG 1.1//EN" "http://www.w3.org/Graphics/SVG/1.1/DTD/svg11.dtd">
<!-- Generated by Microsoft Visio, SVG Export single-vm-diagram.svg Basic web app -->
<svg xmlns="http://www.w3.org/2000/svg" xmlns:xlink="http://www.w3.org/1999/xlink" xmlns:ev="http://www.w3.org/2001/xml-events"
		xmlns:v="http://schemas.microsoft.com/visio/2003/SVGExtensions/" width="5.1194in" height="3.9925in"
		viewBox="0 0 368.597 287.46" xml:space="preserve" color-interpolation-filters="sRGB" class="st28">
	<v:documentProperties v:langID="1033" v:viewMarkup="false">
		<v:userDefs>
			<v:ud v:nameU="msvNoAutoConnect" v:val="VT0(1):26"/>
		</v:userDefs>
	</v:documentProperties>

	<style type="text/css">
	<![CDATA[
		.st1 {fill:#ffffff;stroke:#7f7f7f;stroke-linecap:round;stroke-linejoin:round;stroke-width:0.75}
		.st2 {fill:#0078d7;font-family:Segoe UI;font-size:0.75em}
		.st3 {fill:#ffffff;stroke:#a5a5a5;stroke-linecap:round;stroke-linejoin:round;stroke-width:0.75}
		.st4 {fill:#ffffff;stroke:#ffffff;stroke-linecap:butt;stroke-width:1.5}
		.st5 {fill:#0078d7;stroke:none;stroke-linecap:butt;stroke-width:0.75}
		.st6 {fill:#0078d7;font-family:Segoe UI;font-size:0.666664em}
		.st7 {fill:#7f7f7f;stroke:none;stroke-linecap:butt;stroke-width:0.75}
		.st8 {fill:none;stroke:#0078d7;stroke-linecap:round;stroke-linejoin:round;stroke-width:0.75}
		.st9 {fill:#ffffff;fill-opacity:0.34;stroke:none;stroke-linecap:round;stroke-linejoin:round;stroke-width:0.75}
		.st10 {fill:none;stroke:#2babe2;stroke-dasharray:5.25,3.75;stroke-linecap:round;stroke-linejoin:round;stroke-width:0.75}
		.st11 {marker-end:url(#mrkr13-247);stroke:#0078d7;stroke-linecap:round;stroke-linejoin:round;stroke-width:0.75}
		.st12 {fill:#0078d7;fill-opacity:1;stroke:#0078d7;stroke-opacity:1;stroke-width:0.22935779816514}
		.st13 {fill:#ffffff;stroke:none;stroke-linecap:round;stroke-linejoin:round;stroke-width:0.75}
		.st14 {fill:#ffffff;stroke:none;stroke-linecap:butt;stroke-width:0.653846}
		.st15 {fill:#0078d7;stroke:none;stroke-linecap:butt;stroke-width:0.653846}
		.st16 {font-size:1em}
		.st17 {marker-end:url(#mrkr4-297);stroke:#7f7f7f;stroke-dasharray:2.25,2.25;stroke-linecap:round;stroke-linejoin:round;stroke-width:0.75}
		.st18 {fill:#7f7f7f;fill-opacity:1;stroke:#7f7f7f;stroke-opacity:1;stroke-width:0.22935779816514}
		.st19 {fill:#ffffff;stroke:none;stroke-linecap:butt;stroke-width:7.2}
		.st20 {fill:#000000;font-family:Segoe UI;font-size:0.666664em;font-style:italic}
		.st21 {visibility:visible}
		.st22 {fill:#5b9bd5;fill-opacity:0.22;filter:url(#filter_2);stroke:none}
		.st23 {fill:#0078d7;stroke:none;stroke-width:0.25}
		.st24 {fill:#0078d7;font-family:Calibri;font-size:0.75em}
		.st25 {fill:#ffffff;stroke:none;stroke-linecap:butt}
		.st26 {fill:#ffffff;stroke:#000000;stroke-linecap:butt;stroke-width:0.5}
		.st27 {fill:#000000;font-family:Calibri;font-size:0.75em}
		.st28 {fill:none;fill-rule:evenodd;font-size:12px;overflow:visible;stroke-linecap:square;stroke-miterlimit:3}
	]]>
	</style>

	<defs id="Markers">
		<g id="lend13">
			<path d="M 3 1 L 0 0 L 3 -1 L 3 1 " style="stroke:none"/>
		</g>
		<marker id="mrkr13-247" class="st12" v:arrowType="13" v:arrowSize="2" v:setback="13.08" refX="-13.08" orient="auto"
				markerUnits="strokeWidth" overflow="visible">
			<use xlink:href="#lend13" transform="scale(-4.36,-4.36) "/>
		</marker>
		<g id="lend4">
			<path d="M 2 1 L 0 0 L 2 -1 L 2 1 " style="stroke:none"/>
		</g>
		<marker id="mrkr4-297" class="st18" v:arrowType="4" v:arrowSize="2" v:setback="8.72" refX="-8.72" orient="auto"
				markerUnits="strokeWidth" overflow="visible">
			<use xlink:href="#lend4" transform="scale(-4.36,-4.36) "/>
		</marker>
	</defs>
	<defs id="Filters">
		<filter id="filter_2">
			<feGaussianBlur stdDeviation="2"/>
		</filter>
	</defs>
	<g v:mID="4" v:index="1" v:groupContext="foregroundPage">
		<title>Basic web app</title>
		<v:pageProperties v:drawingScale="1" v:pageScale="1" v:drawingUnits="19" v:shadowOffsetX="9" v:shadowOffsetY="-9"/>
		<v:layer v:name="000-All" v:index="0"/>
		<g id="shape1-1" v:mID="1" v:groupContext="shape" transform="translate(245.786,-125.88)">
			<title>Sheet.1</title>
			<desc>Azure SQL Database</desc>
			<v:textBlock v:margins="rect(4,4,4,4)" v:verticalAlign="0"/>
			<v:textRect cx="47.7467" cy="234.58" width="95.5" height="105.76"/>
			<rect x="0" y="181.7" width="95.4934" height="105.76" class="st1"/>
			<text x="7.52" y="193.8" class="st2" v:langID="1033"><v:paragraph v:horizAlign="1"/><v:tabList/>Azure SQL Database</text>		</g>
		<g id="shape2-4" v:mID="2" v:groupContext="shape" transform="translate(252.297,-134.341)">
			<title>Sheet.2</title>
			<rect x="0" y="224.951" width="82.4716" height="62.5095" class="st3"/>
		</g>
		<g id="group3-6" transform="translate(281.699,-187.286)" v:mID="3" v:groupContext="group">
			<title>Sheet.3</title>
			<g id="group4-7" transform="translate(0,-1.53999)" v:mID="4" v:groupContext="group">
				<title>SQL database (generic) (opaque)</title>
				<desc>Logical server</desc>
				<g id="shape5-8" v:mID="5" v:groupContext="shape">
					<title>Sheet.5</title>
					<path d="M8.24 266.03 C3.69 266.03 0 267.55 0 269.21 L0 284.23 C0 285.89 3.69 287.46 8.24 287.46 C12.79 287.46
								 16.49 285.97 16.49 284.3 L16.49 269.29 C16.49 267.62 12.79 266.03 8.24 266.03 Z" class="st4"/>
				</g>
				<g id="group6-10" v:mID="6" v:groupContext="group">
					<title>Sheet.6</title>
					<g id="shape7-11" v:mID="7" v:groupContext="shape" transform="translate(7.51034,-8.86742)">
						<title>Sheet.7</title>
						<path d="M1.43 285.56 C1.38 285.46 1.29 285.37 1.19 285.31 C1.1 285.25 0.98 285.22 0.84 285.22 C0.69 285.22
									 0.56 285.25 0.46 285.31 C0.35 285.37 0.26 285.45 0.19 285.55 C0.13 285.66 0.08 285.77 0.05 285.91
									 C0.01 286.05 0 286.19 0 286.35 C-0 286.54 0.02 286.71 0.07 286.85 C0.11 287 0.17 287.11 0.24
									 287.2 C0.32 287.29 0.4 287.36 0.5 287.4 C0.6 287.44 0.71 287.46 0.82 287.46 C0.92 287.46 1.02
									 287.44 1.12 287.4 C1.22 287.36 1.3 287.29 1.37 287.2 C1.45 287.11 1.51 287 1.56 286.85 C1.6
									 286.72 1.63 286.56 1.63 286.37 C1.63 286.21 1.61 286.06 1.58 285.93 C1.55 285.78 1.5 285.66
									 1.43 285.56 Z" class="st5"/>
					</g>
					<g id="shape8-13" v:mID="8" v:groupContext="shape">
						<title>Sheet.8</title>
						<path d="M8.24 266.03 C3.69 266.03 0 267.55 0 269.21 L0 284.23 C0 285.89 3.69 287.46 8.24 287.46 C12.79 287.46
									 16.49 285.97 16.49 284.3 L16.49 269.29 C16.49 267.62 12.79 266.03 8.24 266.03 ZM5.76 278.63
									 C5.74 278.74 5.71 278.84 5.65 278.94 C5.59 279.05 5.51 279.14 5.42 279.23 C5.33 279.32 5.21
									 279.41 5.06 279.48 C4.93 279.55 4.75 279.6 4.56 279.64 C4.36 279.68 4.14 279.7 3.88 279.7 C3.74
									 279.7 3.61 279.7 3.48 279.68 C3.36 279.67 3.25 279.65 3.13 279.63 C3.03 279.61 2.93 279.58 2.84
									 279.56 C2.75 279.53 2.68 279.5 2.61 279.47 L2.61 278.29 C2.68 278.34 2.77 278.4 2.87 278.45
									 C2.96 278.5 3.07 278.55 3.17 278.59 C3.28 278.63 3.39 278.67 3.51 278.69 C3.62 278.72 3.74 278.74
									 3.85 278.74 C3.94 278.74 4.02 278.72 4.08 278.7 C4.14 278.69 4.19 278.67 4.22 278.63 C4.25 278.61
									 4.28 278.58 4.29 278.54 C4.3 278.5 4.31 278.47 4.31 278.43 C4.31 278.37 4.29 278.31 4.26 278.26
									 C4.22 278.22 4.18 278.17 4.12 278.13 C4.05 278.09 3.98 278.05 3.9 278.02 C3.81 277.98 3.72 277.95
									 3.62 277.91 C3.42 277.84 3.26 277.76 3.12 277.66 C2.99 277.56 2.88 277.47 2.79 277.36 C2.7 277.25
									 2.64 277.13 2.6 277 C2.56 276.88 2.54 276.75 2.54 276.62 C2.54 276.41 2.59 276.22 2.68 276.04
									 C2.76 275.88 2.89 275.74 3.04 275.61 C3.2 275.5 3.39 275.4 3.61 275.34 C3.83 275.28 4.07 275.25
									 4.34 275.25 C4.49 275.25 4.63 275.25 4.75 275.26 C4.88 275.27 4.99 275.28 5.09 275.3 C5.19 275.32
									 5.27 275.34 5.35 275.36 C5.43 275.37 5.51 275.39 5.56 275.41 L5.56 276.51 C5.5 276.48 5.43 276.44
									 5.35 276.41 C5.27 276.37 5.18 276.33 5.09 276.31 C5 276.28 4.9 276.26 4.79 276.24 C4.69 276.22
									 4.58 276.21 4.47 276.21 C4.32 276.21 4.2 276.24 4.11 276.29 C4.02 276.35 3.97 276.42 3.97 276.52
									 C3.97 276.56 3.98 276.61 4 276.64 C4.02 276.68 4.06 276.71 4.1 276.75 C4.14 276.78 4.2 276.82
									 4.28 276.85 C4.35 276.89 4.43 276.93 4.54 276.97 C4.72 277.04 4.89 277.11 5.05 277.2 C5.2 277.28
									 5.33 277.38 5.45 277.49 C5.56 277.59 5.64 277.71 5.7 277.85 C5.77 277.98 5.8 278.14 5.8 278.32
									 C5.8 278.42 5.79 278.52 5.76 278.63 ZM9.12 280.72 L8.14 279.7 C7.86 279.68 7.6 279.62 7.35 279.52
									 C7.1 279.41 6.88 279.26 6.7 279.08 C6.51 278.89 6.36 278.67 6.25 278.41 C6.15 278.15 6.09 277.85
									 6.09 277.53 C6.09 277.19 6.15 276.88 6.26 276.6 C6.37 276.32 6.52 276.08 6.73 275.88 C6.93 275.68
									 7.17 275.52 7.44 275.41 C7.72 275.3 8.03 275.24 8.36 275.24 C8.68 275.24 8.97 275.3 9.24 275.4
									 C9.51 275.5 9.74 275.65 9.93 275.84 C10.12 276.03 10.27 276.26 10.38 276.54 C10.49 276.81 10.54
									 277.12 10.54 277.46 C10.54 277.71 10.52 277.94 10.45 278.15 C10.39 278.36 10.3 278.56 10.19
									 278.72 C10.09 278.9 9.95 279.05 9.81 279.18 C9.66 279.3 9.5 279.41 9.32 279.48 L10.81 280.72
									 L9.12 280.72 L9.12 280.72 ZM14.03 279.63 L11.17 279.63 L11.17 275.32 L12.51 275.32 L12.51 278.61
									 L14.03 278.61 L14.03 279.63 L14.03 279.63 ZM8.23 270.69 C4.99 270.69 2.36 269.91 2.36 268.94
									 C2.36 267.97 4.99 267.19 8.23 267.19 C11.48 267.19 14.11 267.97 14.11 268.94 C14.11 269.91 11.48
									 270.69 8.23 270.69 Z" class="st5"/>
					</g>
				</g>
				<g id="shape4-15" v:mID="4" v:groupContext="groupContent">
					<v:textBlock v:margins="rect(0,0,0,0)" v:verticalAlign="0"/>
					<v:textRect cx="8.24298" cy="300.822" width="54.85" height="23.3837"/>
					<text x="-15.83" y="296.33" class="st6" v:langID="1033"><v:paragraph v:horizAlign="1"/><v:tabList/>Logical server</text>				</g>
			</g>
			<g id="group9-17" transform="translate(13.3261,1.13687E-13)" v:mID="9" v:groupContext="group">
				<title>Sheet.9</title>
				<g id="shape10-18" v:mID="10" v:groupContext="shape">
					<title>Sheet.10</title>
					<path d="M5.19 284.04 C4.27 284.04 3.53 283.31 3.53 282.42 C3.53 281.54 4.28 280.82 5.19 280.82 C6.09 280.82
								 6.82 281.54 6.82 282.42 C6.83 283.31 6.09 284.04 5.19 284.04 ZM8.4 278.44 L7.06 279.1 L6.25 278.78
								 L5.74 277.38 L4.57 277.38 L4.1 278.78 L3.29 279.1 L1.91 278.48 L1.08 279.29 L1.77 280.59 L1.43 281.37
								 L0 281.88 L0 283.02 L1.42 283.47 L1.77 284.26 L1.11 285.59 L1.95 286.41 L3.29 285.75 L4.1 286.08
								 L4.61 287.46 L5.79 287.46 L6.25 286.08 L7.05 285.75 L8.43 286.37 L9.26 285.56 L8.58 284.27 L8.92
								 283.47 L10.34 282.97 L10.34 281.83 L8.92 281.37 L8.58 280.59 L9.24 279.26 L8.4 278.44 Z"
							class="st7"/>
				</g>
			</g>
		</g>
		<g id="group11-20" transform="translate(262.354,-148.493)" v:mID="11" v:groupContext="group">
			<title>Sheet.11</title>
			<g id="group12-21" v:mID="12" v:groupContext="group">
				<title>Azure SQL database.199</title>
				<desc>Database</desc>
				<g id="shape13-22" v:mID="13" v:groupContext="shape" transform="translate(6.758,-10.5039)">
					<title>Sheet.13</title>
					<path d="M0.22 287.23 C0.29 287.31 0.36 287.37 0.45 287.4 C0.54 287.44 0.64 287.46 0.74 287.46 C0.83 287.46 0.92
								 287.44 1.01 287.4 C1.09 287.37 1.17 287.3 1.24 287.22 C1.31 287.15 1.36 287.04 1.4 286.92 C1.44
								 286.79 1.46 286.65 1.46 286.47 C1.46 286.34 1.45 286.2 1.42 286.08 C1.39 285.95 1.35 285.84 1.29
								 285.75 C1.24 285.66 1.16 285.58 1.07 285.52 C0.99 285.47 0.88 285.44 0.76 285.44 C0.62 285.44 0.51
								 285.47 0.41 285.52 C0.32 285.58 0.24 285.65 0.17 285.74 C0.11 285.84 0.07 285.94 0.04 286.07 C0.01
								 286.19 0 286.32 0 286.46 C0 286.64 0.02 286.79 0.06 286.92 C0.1 287.04 0.15 287.15 0.22 287.23 Z"
							class="st5"/>
				</g>
				<g id="shape14-24" v:mID="14" v:groupContext="shape" transform="translate(1.07914E-13,-2.56422)">
					<title>Sheet.14</title>
					<path d="M9.96 283.24 C10.13 283.24 10.3 283.25 10.47 283.27 C11.29 281.66 12.96 280.6 14.84 280.53 L14.84 271.15
								 C14.84 269.65 11.51 268.22 7.41 268.22 C3.32 268.22 0 269.58 0 271.08 L0 284.6 C-0 285.95 2.72 287.23
								 6.27 287.46 C6.24 287.27 6.22 287.08 6.22 286.88 C6.22 284.87 7.9 283.24 9.96 283.24 ZM12.62 280.45
								 L10.05 280.45 L10.05 276.57 L11.25 276.57 L11.25 279.54 L12.62 279.54 L12.62 280.45 L12.62 280.45
								 ZM7.41 269.26 C10.33 269.26 12.69 269.96 12.69 270.83 C12.69 271.71 10.33 272.41 7.41 272.41 C4.49
								 272.41 2.12 271.71 2.12 270.83 C2.12 269.96 4.49 269.26 7.41 269.26 ZM5.19 279.55 C5.17 279.65 5.13
								 279.74 5.08 279.84 C5.03 279.93 4.96 280.02 4.88 280.1 C4.8 280.18 4.69 280.25 4.56 280.32 C4.43
								 280.38 4.28 280.43 4.11 280.46 C3.93 280.5 3.72 280.52 3.49 280.52 C3.37 280.52 3.25 280.52 3.14
								 280.5 C3.02 280.49 2.92 280.48 2.82 280.45 C2.73 280.43 2.64 280.41 2.56 280.39 C2.48 280.37 2.41
								 280.34 2.35 280.31 L2.35 279.25 C2.42 279.3 2.49 279.35 2.58 279.4 C2.67 279.44 2.76 279.48 2.86
								 279.52 C2.95 279.56 3.05 279.59 3.16 279.61 C3.26 279.64 3.36 279.65 3.46 279.65 C3.55 279.65 3.62
								 279.64 3.67 279.62 C3.72 279.61 3.77 279.59 3.8 279.56 C3.83 279.54 3.85 279.51 3.86 279.48 C3.87
								 279.44 3.88 279.41 3.88 279.38 C3.88 279.32 3.86 279.27 3.83 279.22 C3.8 279.18 3.76 279.14 3.71
								 279.11 C3.65 279.07 3.58 279.04 3.51 279.01 C3.43 278.97 3.34 278.94 3.25 278.91 C3.08 278.85 2.93
								 278.77 2.81 278.68 C2.69 278.6 2.59 278.51 2.51 278.41 C2.43 278.31 2.38 278.2 2.34 278.09 C2.31
								 277.98 2.29 277.87 2.29 277.74 C2.29 277.55 2.33 277.39 2.41 277.23 C2.49 277.08 2.6 276.95 2.74
								 276.84 C2.88 276.74 3.05 276.65 3.25 276.6 C3.44 276.54 3.66 276.51 3.91 276.51 C4.04 276.51 4.16
								 276.52 4.28 276.52 C4.39 276.53 4.49 276.54 4.58 276.56 C4.67 276.57 4.75 276.59 4.82 276.61 C4.89
								 276.63 4.95 276.64 5.01 276.66 L5.01 277.65 C4.95 277.62 4.89 277.58 4.81 277.55 C4.74 277.52 4.66
								 277.49 4.58 277.47 C4.5 277.44 4.41 277.42 4.31 277.4 C4.22 277.39 4.12 277.38 4.02 277.38 C3.89
								 277.38 3.78 277.4 3.7 277.45 C3.62 277.5 3.57 277.57 3.57 277.65 C3.57 277.69 3.59 277.73 3.6 277.77
								 C3.62 277.8 3.65 277.83 3.69 277.86 C3.73 277.89 3.78 277.92 3.85 277.95 C3.91 277.99 3.99 278.02
								 4.09 278.06 C4.25 278.12 4.4 278.19 4.54 278.27 C4.68 278.34 4.8 278.43 4.9 278.53 C5 278.62 5.08
								 278.73 5.13 278.85 C5.19 278.97 5.22 279.12 5.22 279.28 C5.22 279.37 5.21 279.46 5.19 279.55 ZM5.63
								 279.36 C5.53 279.12 5.48 278.86 5.48 278.57 C5.48 278.26 5.53 277.98 5.63 277.73 C5.73 277.48 5.87
								 277.26 6.06 277.08 C6.23 276.9 6.45 276.76 6.7 276.66 C6.95 276.56 7.23 276.51 7.52 276.51 C7.81
								 276.51 8.07 276.56 8.32 276.65 C8.55 276.74 8.76 276.87 8.93 277.05 C9.11 277.22 9.24 277.43 9.34
								 277.67 C9.44 277.92 9.49 278.2 9.49 278.5 C9.49 278.72 9.46 278.93 9.4 279.12 C9.35 279.32 9.27
								 279.49 9.17 279.64 C9.08 279.8 8.96 279.93 8.83 280.05 C8.69 280.16 8.55 280.25 8.39 280.32 L9.73
								 281.44 L8.2 281.44 L7.33 280.52 C7.07 280.5 6.84 280.45 6.62 280.35 C6.39 280.25 6.19 280.13 6.03
								 279.96 C5.86 279.79 5.73 279.59 5.63 279.36 Z" class="st5"/>
				</g>
				<g id="shape15-26" v:mID="15" v:groupContext="shape" transform="translate(6.73641,0)">
					<title>Sheet.15</title>
					<path d="M14.58 285.62 C14.58 284.65 13.8 283.85 12.82 283.79 C12.88 283.51 12.91 283.22 12.91 282.93 C12.91
								 280.46 10.85 278.45 8.31 278.45 C6.41 278.45 4.73 279.58 4.04 281.28 C3.77 281.21 3.5 281.17 3.22
								 281.17 C1.45 281.17 0 282.58 0 284.32 C0 286.02 1.4 287.42 3.17 287.46 L12.83 287.46 L13.19 287.46
								 L13.17 287.46 C13.98 287.25 14.58 286.46 14.58 285.62 ZM12.81 286.95 L3.22 286.96 C1.73 286.96 0.51
								 285.77 0.51 284.32 C0.51 282.86 1.73 281.68 3.22 281.68 C3.52 281.68 3.82 281.73 4.11 281.82 L4.36
								 281.91 L4.44 281.67 C5 280.04 6.55 278.95 8.31 278.95 C10.56 278.95 12.39 280.74 12.39 282.93 C12.39
								 283.28 12.34 283.64 12.25 283.98 L12.15 284.34 L12.53 284.3 C12.58 284.29 12.64 284.29 12.7 284.29
								 C13.45 284.29 14.07 284.89 14.07 285.62 C14.07 286.31 13.51 286.9 12.81 286.95 Z" class="st5"/>
				</g>
				<g id="shape12-28" v:mID="12" v:groupContext="groupContent">
					<v:textBlock v:margins="rect(0,0,0,0)" v:verticalAlign="0"/>
					<v:textRect cx="10.658" cy="300.714" width="49.36" height="21.0428"/>
					<text x="-5.75" y="297.39" class="st6" v:langID="1033"><v:paragraph v:horizAlign="1"/><v:tabList/>Database</text>				</g>
			</g>
			<g id="group16-30" transform="translate(41.0423,0)" v:mID="16" v:groupContext="group">
				<title>Azure SQL database.217</title>
				<desc>Database</desc>
				<g id="shape17-31" v:mID="17" v:groupContext="shape" transform="translate(6.758,-10.5039)">
					<title>Sheet.17</title>
					<path d="M0.22 287.23 C0.29 287.31 0.36 287.37 0.45 287.4 C0.54 287.44 0.64 287.46 0.74 287.46 C0.83 287.46 0.92
								 287.44 1.01 287.4 C1.09 287.37 1.17 287.3 1.24 287.22 C1.31 287.15 1.36 287.04 1.4 286.92 C1.44
								 286.79 1.46 286.65 1.46 286.47 C1.46 286.34 1.45 286.2 1.42 286.08 C1.39 285.95 1.35 285.84 1.29
								 285.75 C1.24 285.66 1.16 285.58 1.07 285.52 C0.99 285.47 0.88 285.44 0.76 285.44 C0.62 285.44 0.51
								 285.47 0.41 285.52 C0.32 285.58 0.24 285.65 0.17 285.74 C0.11 285.84 0.07 285.94 0.04 286.07 C0.01
								 286.19 0 286.32 0 286.46 C0 286.64 0.02 286.79 0.06 286.92 C0.1 287.04 0.15 287.15 0.22 287.23 Z"
							class="st5"/>
				</g>
				<g id="shape18-33" v:mID="18" v:groupContext="shape" transform="translate(1.07914E-13,-2.56422)">
					<title>Sheet.18</title>
					<path d="M9.96 283.24 C10.13 283.24 10.3 283.25 10.47 283.27 C11.29 281.66 12.96 280.6 14.84 280.53 L14.84 271.15
								 C14.84 269.65 11.51 268.22 7.41 268.22 C3.32 268.22 0 269.58 0 271.08 L0 284.6 C-0 285.95 2.72 287.23
								 6.27 287.46 C6.24 287.27 6.22 287.08 6.22 286.88 C6.22 284.87 7.9 283.24 9.96 283.24 ZM12.62 280.45
								 L10.05 280.45 L10.05 276.57 L11.25 276.57 L11.25 279.54 L12.62 279.54 L12.62 280.45 L12.62 280.45
								 ZM7.41 269.26 C10.33 269.26 12.69 269.96 12.69 270.83 C12.69 271.71 10.33 272.41 7.41 272.41 C4.49
								 272.41 2.12 271.71 2.12 270.83 C2.12 269.96 4.49 269.26 7.41 269.26 ZM5.19 279.55 C5.17 279.65 5.13
								 279.74 5.08 279.84 C5.03 279.93 4.96 280.02 4.88 280.1 C4.8 280.18 4.69 280.25 4.56 280.32 C4.43
								 280.38 4.28 280.43 4.11 280.46 C3.93 280.5 3.72 280.52 3.49 280.52 C3.37 280.52 3.25 280.52 3.14
								 280.5 C3.02 280.49 2.92 280.48 2.82 280.45 C2.73 280.43 2.64 280.41 2.56 280.39 C2.48 280.37 2.41
								 280.34 2.35 280.31 L2.35 279.25 C2.42 279.3 2.49 279.35 2.58 279.4 C2.67 279.44 2.76 279.48 2.86
								 279.52 C2.95 279.56 3.05 279.59 3.16 279.61 C3.26 279.64 3.36 279.65 3.46 279.65 C3.55 279.65 3.62
								 279.64 3.67 279.62 C3.72 279.61 3.77 279.59 3.8 279.56 C3.83 279.54 3.85 279.51 3.86 279.48 C3.87
								 279.44 3.88 279.41 3.88 279.38 C3.88 279.32 3.86 279.27 3.83 279.22 C3.8 279.18 3.76 279.14 3.71
								 279.11 C3.65 279.07 3.58 279.04 3.51 279.01 C3.43 278.97 3.34 278.94 3.25 278.91 C3.08 278.85 2.93
								 278.77 2.81 278.68 C2.69 278.6 2.59 278.51 2.51 278.41 C2.43 278.31 2.38 278.2 2.34 278.09 C2.31
								 277.98 2.29 277.87 2.29 277.74 C2.29 277.55 2.33 277.39 2.41 277.23 C2.49 277.08 2.6 276.95 2.74
								 276.84 C2.88 276.74 3.05 276.65 3.25 276.6 C3.44 276.54 3.66 276.51 3.91 276.51 C4.04 276.51 4.16
								 276.52 4.28 276.52 C4.39 276.53 4.49 276.54 4.58 276.56 C4.67 276.57 4.75 276.59 4.82 276.61 C4.89
								 276.63 4.95 276.64 5.01 276.66 L5.01 277.65 C4.95 277.62 4.89 277.58 4.81 277.55 C4.74 277.52 4.66
								 277.49 4.58 277.47 C4.5 277.44 4.41 277.42 4.31 277.4 C4.22 277.39 4.12 277.38 4.02 277.38 C3.89
								 277.38 3.78 277.4 3.7 277.45 C3.62 277.5 3.57 277.57 3.57 277.65 C3.57 277.69 3.59 277.73 3.6 277.77
								 C3.62 277.8 3.65 277.83 3.69 277.86 C3.73 277.89 3.78 277.92 3.85 277.95 C3.91 277.99 3.99 278.02
								 4.09 278.06 C4.25 278.12 4.4 278.19 4.54 278.27 C4.68 278.34 4.8 278.43 4.9 278.53 C5 278.62 5.08
								 278.73 5.13 278.85 C5.19 278.97 5.22 279.12 5.22 279.28 C5.22 279.37 5.21 279.46 5.19 279.55 ZM5.63
								 279.36 C5.53 279.12 5.48 278.86 5.48 278.57 C5.48 278.26 5.53 277.98 5.63 277.73 C5.73 277.48 5.87
								 277.26 6.06 277.08 C6.23 276.9 6.45 276.76 6.7 276.66 C6.95 276.56 7.23 276.51 7.52 276.51 C7.81
								 276.51 8.07 276.56 8.32 276.65 C8.55 276.74 8.76 276.87 8.93 277.05 C9.11 277.22 9.24 277.43 9.34
								 277.67 C9.44 277.92 9.49 278.2 9.49 278.5 C9.49 278.72 9.46 278.93 9.4 279.12 C9.35 279.32 9.27
								 279.49 9.17 279.64 C9.08 279.8 8.96 279.93 8.83 280.05 C8.69 280.16 8.55 280.25 8.39 280.32 L9.73
								 281.44 L8.2 281.44 L7.33 280.52 C7.07 280.5 6.84 280.45 6.62 280.35 C6.39 280.25 6.19 280.13 6.03
								 279.96 C5.86 279.79 5.73 279.59 5.63 279.36 Z" class="st5"/>
				</g>
				<g id="shape19-35" v:mID="19" v:groupContext="shape" transform="translate(6.73641,0)">
					<title>Sheet.19</title>
					<path d="M14.58 285.62 C14.58 284.65 13.8 283.85 12.82 283.79 C12.88 283.51 12.91 283.22 12.91 282.93 C12.91
								 280.46 10.85 278.45 8.31 278.45 C6.41 278.45 4.73 279.58 4.04 281.28 C3.77 281.21 3.5 281.17 3.22
								 281.17 C1.45 281.17 0 282.58 0 284.32 C0 286.02 1.4 287.42 3.17 287.46 L12.83 287.46 L13.19 287.46
								 L13.17 287.46 C13.98 287.25 14.58 286.46 14.58 285.62 ZM12.81 286.95 L3.22 286.96 C1.73 286.96 0.51
								 285.77 0.51 284.32 C0.51 282.86 1.73 281.68 3.22 281.68 C3.52 281.68 3.82 281.73 4.11 281.82 L4.36
								 281.91 L4.44 281.67 C5 280.04 6.55 278.95 8.31 278.95 C10.56 278.95 12.39 280.74 12.39 282.93 C12.39
								 283.28 12.34 283.64 12.25 283.98 L12.15 284.34 L12.53 284.3 C12.58 284.29 12.64 284.29 12.7 284.29
								 C13.45 284.29 14.07 284.89 14.07 285.62 C14.07 286.31 13.51 286.9 12.81 286.95 Z" class="st5"/>
				</g>
				<g id="shape16-37" v:mID="16" v:groupContext="groupContent">
					<v:textBlock v:margins="rect(0,0,0,0)" v:verticalAlign="0"/>
					<v:textRect cx="10.658" cy="300.714" width="49.36" height="21.0428"/>
					<text x="-5.75" y="297.39" class="st6" v:langID="1033"><v:paragraph v:horizAlign="1"/><v:tabList/>Database</text>				</g>
			</g>
		</g>
		<g id="shape20-39" v:mID="20" v:groupContext="shape" transform="translate(140.509,-125.88)">
			<title>Sheet.20</title>
			<desc>App Service plan</desc>
			<v:textBlock v:margins="rect(4,4,4,4)" v:verticalAlign="0"/>
			<v:textRect cx="47.7467" cy="234.58" width="95.5" height="105.76"/>
			<rect x="0" y="181.7" width="95.4934" height="105.76" class="st1"/>
			<text x="14.53" y="193.8" class="st2" v:langID="1033"><v:paragraph v:horizAlign="1"/><v:tabList/>App Service plan</text>		</g>
		<g id="group21-42" transform="translate(172.805,-145.246)" v:mID="21" v:groupContext="group">
			<title>Web App (opaque)  (was websites)</title>
			<desc>App Service app</desc>
			<g id="shape22-43" v:mID="22" v:groupContext="shape">
				<title>Sheet.22</title>
				<path d="M26.32 266.02 C23.62 262.58 19.55 260.79 15.44 260.79 C12.55 260.79 9.61 261.69 7.13 263.54 C1.14 268.02
							 0 276.39 4.59 282.23 C7.28 285.67 11.35 287.46 15.46 287.46 C18.36 287.46 21.29 286.57 23.77 284.71
							 C29.76 280.24 30.9 271.86 26.32 266.02 Z" class="st4"/>
			</g>
			<g id="group23-45" v:mID="23" v:groupContext="group">
				<title>Sheet.23</title>
				<g id="group24-46" v:mID="24" v:groupContext="group">
					<title>Sheet.24</title>
					<g id="shape25-47" v:mID="25" v:groupContext="shape">
						<title>Sheet.25</title>
						<path d="M22.68 283.34 C20.53 284.94 17.98 285.73 15.46 285.73 C11.88 285.73 8.34 284.16 6 281.18 C2 276.09
									 2.99 268.82 8.22 264.91 C10.38 263.3 12.92 262.53 15.44 262.53 C19.02 262.53 22.56 264.1 24.9
									 267.08 C28.9 272.16 27.91 279.44 22.68 283.34 ZM26.32 266.02 C23.62 262.58 19.55 260.79 15.44
									 260.79 C12.55 260.79 9.61 261.69 7.13 263.54 C1.14 268.02 0 276.39 4.59 282.23 C7.28 285.67
									 11.35 287.46 15.46 287.46 C18.36 287.46 21.29 286.57 23.77 284.71 C29.76 280.24 30.9 271.86
									 26.32 266.02 Z" class="st5"/>
					</g>
				</g>
				<g id="group26-49" transform="translate(4.91122,-4.13539)" v:mID="26" v:groupContext="group">
					<title>Sheet.26</title>
					<g id="group27-50" transform="translate(0.338748,-0.166043)" v:mID="27" v:groupContext="group">
						<title>Sheet.27</title>
						<g id="group28-51" transform="translate(0.433337,2.84217E-13)" v:mID="28" v:groupContext="group">
							<title>Sheet.28</title>
							<g id="shape29-52" v:mID="29" v:groupContext="shape">
								<title>Sheet.29</title>
								<path d="M3.59 280.85 C2.79 280.09 2.16 279.35 1.65 278.64 C0.5 280.91 0.1 283.25 0 285.12 C0.11
											 285.26 0.11 285.38 0.23 285.53 C0.8 286.24 1.52 286.92 2.21 287.46 C2.11 285.93 2.25
											 283.44 3.59 280.85 Z" class="st5"/>
							</g>
						</g>
						<g id="shape30-54" v:mID="30" v:groupContext="shape" transform="translate(3.26269,-8.44598)">
							<title>Sheet.30</title>
							<path d="M4.89 280.41 C3.82 281.13 2.71 282.05 1.6 283.21 C0.99 283.84 0.46 284.48 0 285.14 C0.48 285.89
										 1.1 286.66 1.88 287.46 C2.47 286.65 3.19 285.84 4.06 285.04 C5.16 284.04 6.19 283.24 7.16
										 282.6 C6.37 281.88 5.6 281.16 4.89 280.41 Z" class="st5"/>
						</g>
						<g id="group31-56" transform="translate(9.84631,-14.297)" v:mID="31" v:groupContext="group">
							<title>Sheet.31</title>
							<g id="shape32-57" v:mID="32" v:groupContext="shape">
								<title>Sheet.32</title>
								<path d="M9.68 285.51 C9.16 284.86 8.58 284.3 7.97 283.79 C6.13 283.52 3.27 283.55 0 285.24 C0.75
											 286.03 1.49 286.77 2.22 287.46 C6.58 285.17 9.68 285.51 9.68 285.51 Z" class="st5"/>
							</g>
						</g>
						<g id="group33-59" transform="translate(-2.17326E-14,-8.8253)" v:mID="33" v:groupContext="group">
							<title>Sheet.33</title>
							<g id="shape34-60" v:mID="34" v:groupContext="shape">
								<title>Sheet.34</title>
								<path d="M2.08 287.46 C2.41 286.81 2.81 286.16 3.26 285.52 C1.39 282.63 1.48 280.24 1.68 279.13 C1.21
											 279.61 0.77 280.1 0.39 280.64 C0.02 282.15 0 284.56 2.08 287.46 Z" class="st5"/>
							</g>
						</g>
						<g id="group35-62" transform="translate(4.01524,-0.696428)" v:mID="35" v:groupContext="group">
							<title>Sheet.35</title>
							<g id="shape36-63" v:mID="36" v:groupContext="shape">
								<title>Sheet.36</title>
								<path d="M3.38 281.71 C2.51 281.04 1.77 280.36 1.13 279.71 C0.68 280.32 0.31 280.94 0 281.54 C0.6
											 282.13 1.28 282.72 2.07 283.34 C6.94 287.11 11.8 287.46 14.52 287.46 C14.7 287.46 15.55
											 286.33 16.04 285.63 C14.83 285.88 9.62 286.52 3.38 281.71 Z" class="st5"/>
							</g>
						</g>
						<g id="group37-65" transform="translate(2.08458,-6.61457)" v:mID="37" v:groupContext="group">
							<title>Sheet.37</title>
							<g id="shape38-66" v:mID="38" v:groupContext="shape">
								<title>Sheet.38</title>
								<path d="M0 285.25 C0.51 285.97 1.14 286.7 1.93 287.46 C2.24 286.85 2.62 286.24 3.06 285.63 C2.28
											 284.82 1.66 284.05 1.18 283.3 C0.72 283.95 0.33 284.6 0 285.25 Z" class="st5"/>
							</g>
						</g>
						<g id="group39-68" transform="translate(10.4254,-5.00843)" v:mID="39" v:groupContext="group">
							<title>Sheet.39</title>
							<g id="shape40-69" v:mID="40" v:groupContext="shape">
								<title>Sheet.40</title>
								<path d="M0 279.16 C4.45 283.16 9.71 286.57 11.05 287.46 C11.19 287.13 11.28 286.81 11.38 286.47
											 C9.94 285.43 6.16 282.56 1.64 278.17 C1.11 278.45 0.57 278.78 0 279.16 Z" class="st5"/>
							</g>
						</g>
						<g id="group41-71" transform="translate(4.94269,-15.4971)" v:mID="41" v:groupContext="group">
							<title>Sheet.41</title>
							<g id="shape42-72" v:mID="42" v:groupContext="shape">
								<title>Sheet.42</title>
								<path d="M4.9 286.44 C3.81 285.33 2.71 284.14 1.57 282.86 C1.03 283.03 0.51 283.24 0 283.49 C0.83
											 284.82 1.95 286.15 3.21 287.46 C3.79 287.07 4.34 286.73 4.9 286.44 Z" class="st5"/>
							</g>
						</g>
						<g id="shape43-74" v:mID="43" v:groupContext="shape" transform="translate(8.06485,-13.2193)">
							<title>Sheet.43</title>
							<path d="M1.85 284.13 C1.29 284.42 0.57 284.85 0 285.24 C0.71 285.98 1.43 286.74 2.23 287.46 C2.8 287.08
										 3.55 286.63 4.08 286.34 C3.35 285.66 2.6 284.91 1.85 284.13 Z" class="st5"/>
						</g>
						<g id="shape44-76" v:mID="44" v:groupContext="shape" transform="translate(8.06413,-13.1756)">
							<title>Sheet.44</title>
							<path d="M1.65 283.98 C1.09 284.27 0.57 284.65 0 285.04 C0.71 285.78 1.72 286.74 2.51 287.46 C3.09 287.08
										 3.55 286.7 4.08 286.42 C3.35 285.73 2.4 284.77 1.65 283.98 Z" class="st5"/>
						</g>
					</g>
					<g id="group45-78" transform="translate(14.7288,-5.86773)" v:mID="45" v:groupContext="group">
						<title>Sheet.45</title>
						<g id="shape46-79" v:mID="46" v:groupContext="shape">
							<title>Sheet.46</title>
							<path d="M1.33 282.67 C0.22 283.51 0 285.07 0.86 286.16 C1.72 287.26 3.33 287.46 4.45 286.63 C5.56 285.8
										 5.78 284.23 4.93 283.14 C4.06 282.05 2.46 281.83 1.33 282.67 Z" class="st5"/>
						</g>
					</g>
					<g id="group47-81" transform="translate(9.56468,-1.7053E-13)" v:mID="47" v:groupContext="group">
						<title>Sheet.47</title>
						<g id="shape48-82" v:mID="48" v:groupContext="shape">
							<title>Sheet.48</title>
							<path d="M1.23 283.03 C0.19 283.8 0 285.26 0.78 286.26 C1.58 287.27 3.07 287.46 4.11 286.69 C5.14 285.92
										 5.34 284.47 4.55 283.46 C3.76 282.45 2.27 282.26 1.23 283.03 Z" class="st5"/>
						</g>
					</g>
					<g id="group49-84" transform="translate(0,-5.04703)" v:mID="49" v:groupContext="group">
						<title>Sheet.49</title>
						<g id="shape50-85" v:mID="50" v:groupContext="shape">
							<title>Sheet.50</title>
							<path d="M1.87 280.72 C0.3 281.9 0 284.09 1.2 285.63 C2.41 287.17 4.67 287.46 6.25 286.28 C7.82 285.11
										 8.12 282.91 6.92 281.36 C5.71 279.84 3.45 279.54 1.87 280.72 Z" class="st5"/>
						</g>
					</g>
				</g>
			</g>
			<g id="shape21-87" v:mID="21" v:groupContext="groupContent">
				<v:textBlock v:margins="rect(0,0,0,0)" v:verticalAlign="0"/>
				<v:textRect cx="15.4511" cy="304.267" width="69.45" height="29.6127"/>
				<text x="-13.19" y="296.66" class="st6" v:langID="1033"><v:paragraph v:horizAlign="1"/><v:tabList/>App Service app</text>			</g>
		</g>
		<g id="group51-89" transform="translate(147.569,-190.354)" v:mID="51" v:groupContext="group">
			<title>Sheet.51</title>
			<g id="group52-90" v:mID="52" v:groupContext="group">
				<title>Sheet.52</title>
				<g id="group53-91" transform="translate(2.35256,-2.58215)" v:mID="53" v:groupContext="group">
					<title>Web App (opaque)  (was websites).80</title>
					<g id="shape54-92" v:mID="54" v:groupContext="shape">
						<title>Sheet.54</title>
						<path d="M18.95 272.02 C17 269.55 14.07 268.26 11.11 268.26 C9.03 268.26 6.92 268.91 5.13 270.24 C0.82 273.47
									 0 279.49 3.31 283.7 C5.24 286.17 8.17 287.46 11.13 287.46 C13.22 287.46 15.33 286.82 17.11 285.48
									 C21.43 282.26 22.25 276.23 18.95 272.02 Z" class="st4"/>
					</g>
					<g id="group55-94" v:mID="55" v:groupContext="group">
						<title>Sheet.55</title>
						<g id="group56-95" v:mID="56" v:groupContext="group">
							<title>Sheet.56</title>
							<g id="shape57-96" v:mID="57" v:groupContext="shape">
								<title>Sheet.57</title>
								<path d="M16.33 284.49 C14.78 285.65 12.95 286.21 11.13 286.21 C8.55 286.21 6.01 285.09 4.32 282.94
											 C1.44 279.27 2.15 274.04 5.92 271.23 C7.47 270.07 9.3 269.51 11.11 269.51 C13.7 269.51
											 16.24 270.64 17.93 272.79 C20.81 276.45 20.09 281.69 16.33 284.49 ZM18.95 272.02 C17
											 269.55 14.07 268.26 11.11 268.26 C9.03 268.26 6.92 268.91 5.13 270.24 C0.82 273.47 0
											 279.49 3.31 283.7 C5.24 286.17 8.17 287.46 11.13 287.46 C13.22 287.46 15.33 286.82 17.11
											 285.48 C21.43 282.26 22.25 276.23 18.95 272.02 Z" class="st5"/>
							</g>
						</g>
						<g id="group58-98" transform="translate(3.53575,-2.9772)" v:mID="58" v:groupContext="group">
							<title>Sheet.58</title>
							<g id="group59-99" transform="translate(0.243876,-0.11954)" v:mID="59" v:groupContext="group">
								<title>Sheet.59</title>
								<g id="group60-100" transform="translate(0.311974,2.27374E-13)" v:mID="60" v:groupContext="group">
									<title>Sheet.60</title>
									<g id="shape61-101" v:mID="61" v:groupContext="shape">
										<title>Sheet.61</title>
										<path d="M2.58 282.7 C2.01 282.15 1.55 281.62 1.19 281.11 C0.36 282.75 0.07 284.43 0 285.77
													 C0.08 285.88 0.08 285.96 0.16 286.07 C0.58 286.58 1.09 287.07 1.59 287.46 C1.52
													 286.36 1.62 284.56 2.58 282.7 Z" class="st5"/>
									</g>
								</g>
								<g id="shape62-103" v:mID="62" v:groupContext="shape" transform="translate(2.34892,-6.08054)">
									<title>Sheet.62</title>
									<path d="M3.52 282.38 C2.75 282.9 1.95 283.57 1.15 284.4 C0.71 284.85 0.33 285.32 0 285.79 C0.34
												 286.33 0.79 286.88 1.35 287.46 C1.78 286.88 2.3 286.29 2.92 285.72 C3.72 285 4.46
												 284.42 5.16 283.96 C4.59 283.44 4.03 282.92 3.52 282.38 Z" class="st5"/>
								</g>
								<g id="group63-105" transform="translate(7.08868,-10.2929)" v:mID="63" v:groupContext="group">
									<title>Sheet.63</title>
									<g id="shape64-106" v:mID="64" v:groupContext="shape">
										<title>Sheet.64</title>
										<path d="M6.97 286.06 C6.6 285.59 6.18 285.19 5.74 284.82 C4.41 284.62 2.35 284.64 0 285.86
													 C0.54 286.43 1.08 286.96 1.6 287.46 C4.74 285.81 6.97 286.06 6.97 286.06 Z"
												class="st5"/>
									</g>
								</g>
								<g id="group65-108" transform="translate(-1.59872E-14,-6.35363)" v:mID="65" v:groupContext="group">
									<title>Sheet.65</title>
									<g id="shape66-109" v:mID="66" v:groupContext="shape">
										<title>Sheet.66</title>
										<path d="M1.5 287.46 C1.74 287 2.02 286.53 2.35 286.06 C1 283.98 1.06 282.26 1.21 281.46
													 C0.87 281.81 0.56 282.16 0.28 282.55 C0.01 283.64 -0 285.37 1.5 287.46 Z"
												class="st5"/>
									</g>
								</g>
								<g id="group67-111" transform="translate(2.89071,-0.501382)" v:mID="67" v:groupContext="group">
									<title>Sheet.67</title>
									<g id="shape68-112" v:mID="68" v:groupContext="shape">
										<title>Sheet.68</title>
										<path d="M2.44 283.32 C1.81 282.84 1.27 282.35 0.81 281.88 C0.49 282.32 0.22 282.76 0 283.2
													 C0.43 283.62 0.92 284.05 1.49 284.49 C5 287.2 8.49 287.46 10.45 287.46 C10.58
													 287.46 11.2 286.65 11.55 286.15 C10.67 286.32 6.92 286.79 2.44 283.32 Z"
												class="st5"/>
									</g>
								</g>
								<g id="group69-114" transform="translate(1.50076,-4.76205)" v:mID="69" v:groupContext="group">
									<title>Sheet.69</title>
									<g id="shape70-115" v:mID="70" v:groupContext="shape">
										<title>Sheet.70</title>
										<path d="M0 285.87 C0.37 286.38 0.82 286.91 1.39 287.46 C1.61 287.02 1.88 286.58 2.2 286.14
													 C1.64 285.56 1.19 285.01 0.85 284.47 C0.52 284.93 0.24 285.4 0 285.87 Z"
												class="st5"/>
									</g>
								</g>
								<g id="group71-117" transform="translate(7.5056,-3.60573)" v:mID="71" v:groupContext="group">
									<title>Sheet.71</title>
									<g id="shape72-118" v:mID="72" v:groupContext="shape">
										<title>Sheet.72</title>
										<path d="M0 281.48 C3.2 284.37 6.99 286.82 7.96 287.46 C8.06 287.22 8.12 286.99 8.19 286.75
													 C7.16 286 4.44 283.93 1.18 280.78 C0.8 280.97 0.41 281.21 0 281.48 Z"
												class="st5"/>
									</g>
								</g>
								<g id="group73-120" transform="translate(3.5584,-11.1569)" v:mID="73" v:groupContext="group">
									<title>Sheet.73</title>
									<g id="shape74-121" v:mID="74" v:groupContext="shape">
										<title>Sheet.74</title>
										<path d="M3.53 286.72 C2.74 285.92 1.95 285.07 1.13 284.15 C0.74 284.27 0.37 284.42 0 284.6
													 C0.6 285.56 1.41 286.52 2.31 287.46 C2.73 287.18 3.13 286.93 3.53 286.72 Z"
												class="st5"/>
									</g>
								</g>
								<g id="shape75-123" v:mID="75" v:groupContext="shape" transform="translate(5.80615,-9.51699)">
									<title>Sheet.75</title>
									<path d="M1.33 285.06 C0.93 285.27 0.41 285.58 0 285.86 C0.51 286.4 1.03 286.94 1.6 287.46 C2.01
												 287.19 2.56 286.86 2.94 286.66 C2.41 286.16 1.87 285.63 1.33 285.06 Z" class="st5"/>
								</g>
								<g id="shape76-125" v:mID="76" v:groupContext="shape" transform="translate(5.80563,-9.48552)">
									<title>Sheet.76</title>
									<path d="M1.19 284.96 C0.79 285.17 0.41 285.44 0 285.72 C0.51 286.25 1.24 286.94 1.81 287.46
												 C2.22 287.19 2.56 286.91 2.94 286.71 C2.41 286.22 1.73 285.52 1.19 284.96 Z"
											class="st5"/>
								</g>
							</g>
							<g id="group77-127" transform="translate(10.6037,-4.22437)" v:mID="77" v:groupContext="group">
								<title>Sheet.77</title>
								<g id="shape78-128" v:mID="78" v:groupContext="shape">
									<title>Sheet.78</title>
									<path d="M0.96 284.02 C0.16 284.62 0 285.74 0.62 286.53 C1.24 287.32 2.39 287.46 3.2 286.87 C4.01
												 286.26 4.16 285.14 3.55 284.35 C2.92 283.57 1.77 283.41 0.96 284.02 Z" class="st5"/>
								</g>
							</g>
							<g id="group79-130" transform="translate(6.88592,-1.7053E-13)" v:mID="79" v:groupContext="group">
								<title>Sheet.79</title>
								<g id="shape80-131" v:mID="80" v:groupContext="shape">
									<title>Sheet.80</title>
									<path d="M0.88 284.27 C0.14 284.83 0 285.87 0.56 286.6 C1.14 287.32 2.21 287.46 2.96 286.9 C3.7
												 286.35 3.84 285.31 3.27 284.58 C2.7 283.85 1.63 283.72 0.88 284.27 Z" class="st5"/>
								</g>
							</g>
							<g id="group81-133" transform="translate(0,-3.63353)" v:mID="81" v:groupContext="group">
								<title>Sheet.81</title>
								<g id="shape82-134" v:mID="82" v:groupContext="shape">
									<title>Sheet.82</title>
									<path d="M1.35 282.61 C0.21 283.46 0 285.04 0.87 286.14 C1.74 287.25 3.37 287.46 4.5 286.61 C5.63
												 285.77 5.85 284.19 4.98 283.07 C4.11 281.98 2.48 281.76 1.35 282.61 Z" class="st5"/>
								</g>
							</g>
						</g>
					</g>
				</g>
				<g id="shape83-136" v:mID="83" v:groupContext="shape" transform="translate(0.976546,-0.761394)">
					<title>Sheet.83</title>
					<rect x="0" y="264.618" width="24.9996" height="22.842" class="st8"/>
				</g>
				<g id="shape84-138" v:mID="84" v:groupContext="shape">
					<title>Sheet.84</title>
					<rect x="0" y="263.095" width="26.9527" height="24.3648" class="st9"/>
				</g>
			</g>
			<g id="group85-140" transform="translate(27.2107,0)" v:mID="85" v:groupContext="group">
				<title>Sheet.85</title>
				<g id="group86-141" transform="translate(2.35256,-2.58215)" v:mID="86" v:groupContext="group">
					<title>Web App (opaque)  (was websites).80</title>
					<g id="shape87-142" v:mID="87" v:groupContext="shape">
						<title>Sheet.87</title>
						<path d="M18.95 272.02 C17 269.55 14.07 268.26 11.11 268.26 C9.03 268.26 6.92 268.91 5.13 270.24 C0.82 273.47
									 0 279.49 3.31 283.7 C5.24 286.17 8.17 287.46 11.13 287.46 C13.22 287.46 15.33 286.82 17.11 285.48
									 C21.43 282.26 22.25 276.23 18.95 272.02 Z" class="st4"/>
					</g>
					<g id="group88-144" v:mID="88" v:groupContext="group">
						<title>Sheet.88</title>
						<g id="group89-145" v:mID="89" v:groupContext="group">
							<title>Sheet.89</title>
							<g id="shape90-146" v:mID="90" v:groupContext="shape">
								<title>Sheet.90</title>
								<path d="M16.33 284.49 C14.78 285.65 12.95 286.21 11.13 286.21 C8.55 286.21 6.01 285.09 4.32 282.94
											 C1.44 279.27 2.15 274.04 5.92 271.23 C7.47 270.07 9.3 269.51 11.11 269.51 C13.7 269.51
											 16.24 270.64 17.93 272.79 C20.81 276.45 20.09 281.69 16.33 284.49 ZM18.95 272.02 C17
											 269.55 14.07 268.26 11.11 268.26 C9.03 268.26 6.92 268.91 5.13 270.24 C0.82 273.47 0
											 279.49 3.31 283.7 C5.24 286.17 8.17 287.46 11.13 287.46 C13.22 287.46 15.33 286.82 17.11
											 285.48 C21.43 282.26 22.25 276.23 18.95 272.02 Z" class="st5"/>
							</g>
						</g>
						<g id="group91-148" transform="translate(3.53575,-2.9772)" v:mID="91" v:groupContext="group">
							<title>Sheet.91</title>
							<g id="group92-149" transform="translate(0.243876,-0.11954)" v:mID="92" v:groupContext="group">
								<title>Sheet.92</title>
								<g id="group93-150" transform="translate(0.311974,2.27374E-13)" v:mID="93" v:groupContext="group">
									<title>Sheet.93</title>
									<g id="shape94-151" v:mID="94" v:groupContext="shape">
										<title>Sheet.94</title>
										<path d="M2.58 282.7 C2.01 282.15 1.55 281.62 1.19 281.11 C0.36 282.75 0.07 284.43 0 285.77
													 C0.08 285.88 0.08 285.96 0.16 286.07 C0.58 286.58 1.09 287.07 1.59 287.46 C1.52
													 286.36 1.62 284.56 2.58 282.7 Z" class="st5"/>
									</g>
								</g>
								<g id="shape95-153" v:mID="95" v:groupContext="shape" transform="translate(2.34892,-6.08054)">
									<title>Sheet.95</title>
									<path d="M3.52 282.38 C2.75 282.9 1.95 283.57 1.15 284.4 C0.71 284.85 0.33 285.32 0 285.79 C0.34
												 286.33 0.79 286.88 1.35 287.46 C1.78 286.88 2.3 286.29 2.92 285.72 C3.72 285 4.46
												 284.42 5.16 283.96 C4.59 283.44 4.03 282.92 3.52 282.38 Z" class="st5"/>
								</g>
								<g id="group96-155" transform="translate(7.08868,-10.2929)" v:mID="96" v:groupContext="group">
									<title>Sheet.96</title>
									<g id="shape97-156" v:mID="97" v:groupContext="shape">
										<title>Sheet.97</title>
										<path d="M6.97 286.06 C6.6 285.59 6.18 285.19 5.74 284.82 C4.41 284.62 2.35 284.64 0 285.86
													 C0.54 286.43 1.08 286.96 1.6 287.46 C4.74 285.81 6.97 286.06 6.97 286.06 Z"
												class="st5"/>
									</g>
								</g>
								<g id="group98-158" transform="translate(-1.59872E-14,-6.35363)" v:mID="98" v:groupContext="group">
									<title>Sheet.98</title>
									<g id="shape99-159" v:mID="99" v:groupContext="shape">
										<title>Sheet.99</title>
										<path d="M1.5 287.46 C1.74 287 2.02 286.53 2.35 286.06 C1 283.98 1.06 282.26 1.21 281.46
													 C0.87 281.81 0.56 282.16 0.28 282.55 C0.01 283.64 -0 285.37 1.5 287.46 Z"
												class="st5"/>
									</g>
								</g>
								<g id="group100-161" transform="translate(2.89071,-0.501382)" v:mID="100" v:groupContext="group">
									<title>Sheet.100</title>
									<g id="shape101-162" v:mID="101" v:groupContext="shape">
										<title>Sheet.101</title>
										<path d="M2.44 283.32 C1.81 282.84 1.27 282.35 0.81 281.88 C0.49 282.32 0.22 282.76 0 283.2
													 C0.43 283.62 0.92 284.05 1.49 284.49 C5 287.2 8.49 287.46 10.45 287.46 C10.58
													 287.46 11.2 286.65 11.55 286.15 C10.67 286.32 6.92 286.79 2.44 283.32 Z"
												class="st5"/>
									</g>
								</g>
								<g id="group102-164" transform="translate(1.50076,-4.76205)" v:mID="102" v:groupContext="group">
									<title>Sheet.102</title>
									<g id="shape103-165" v:mID="103" v:groupContext="shape">
										<title>Sheet.103</title>
										<path d="M0 285.87 C0.37 286.38 0.82 286.91 1.39 287.46 C1.61 287.02 1.88 286.58 2.2 286.14
													 C1.64 285.56 1.19 285.01 0.85 284.47 C0.52 284.93 0.24 285.4 0 285.87 Z"
												class="st5"/>
									</g>
								</g>
								<g id="group104-167" transform="translate(7.5056,-3.60573)" v:mID="104" v:groupContext="group">
									<title>Sheet.104</title>
									<g id="shape105-168" v:mID="105" v:groupContext="shape">
										<title>Sheet.105</title>
										<path d="M0 281.48 C3.2 284.37 6.99 286.82 7.96 287.46 C8.06 287.22 8.12 286.99 8.19 286.75
													 C7.16 286 4.44 283.93 1.18 280.78 C0.8 280.97 0.41 281.21 0 281.48 Z"
												class="st5"/>
									</g>
								</g>
								<g id="group106-170" transform="translate(3.5584,-11.1569)" v:mID="106" v:groupContext="group">
									<title>Sheet.106</title>
									<g id="shape107-171" v:mID="107" v:groupContext="shape">
										<title>Sheet.107</title>
										<path d="M3.53 286.72 C2.74 285.92 1.95 285.07 1.13 284.15 C0.74 284.27 0.37 284.42 0 284.6
													 C0.6 285.56 1.41 286.52 2.31 287.46 C2.73 287.18 3.13 286.93 3.53 286.72 Z"
												class="st5"/>
									</g>
								</g>
								<g id="shape108-173" v:mID="108" v:groupContext="shape" transform="translate(5.80615,-9.51699)">
									<title>Sheet.108</title>
									<path d="M1.33 285.06 C0.93 285.27 0.41 285.58 0 285.86 C0.51 286.4 1.03 286.94 1.6 287.46 C2.01
												 287.19 2.56 286.86 2.94 286.66 C2.41 286.16 1.87 285.63 1.33 285.06 Z" class="st5"/>
								</g>
								<g id="shape109-175" v:mID="109" v:groupContext="shape" transform="translate(5.80563,-9.48552)">
									<title>Sheet.109</title>
									<path d="M1.19 284.96 C0.79 285.17 0.41 285.44 0 285.72 C0.51 286.25 1.24 286.94 1.81 287.46
												 C2.22 287.19 2.56 286.91 2.94 286.71 C2.41 286.22 1.73 285.52 1.19 284.96 Z"
											class="st5"/>
								</g>
							</g>
							<g id="group110-177" transform="translate(10.6037,-4.22437)" v:mID="110" v:groupContext="group">
								<title>Sheet.110</title>
								<g id="shape111-178" v:mID="111" v:groupContext="shape">
									<title>Sheet.111</title>
									<path d="M0.96 284.02 C0.16 284.62 0 285.74 0.62 286.53 C1.24 287.32 2.39 287.46 3.2 286.87 C4.01
												 286.26 4.16 285.14 3.55 284.35 C2.92 283.57 1.77 283.41 0.96 284.02 Z" class="st5"/>
								</g>
							</g>
							<g id="group112-180" transform="translate(6.88592,-1.7053E-13)" v:mID="112" v:groupContext="group">
								<title>Sheet.112</title>
								<g id="shape113-181" v:mID="113" v:groupContext="shape">
									<title>Sheet.113</title>
									<path d="M0.88 284.27 C0.14 284.83 0 285.87 0.56 286.6 C1.14 287.32 2.21 287.46 2.96 286.9 C3.7
												 286.35 3.84 285.31 3.27 284.58 C2.7 283.85 1.63 283.72 0.88 284.27 Z" class="st5"/>
								</g>
							</g>
							<g id="group114-183" transform="translate(0,-3.63353)" v:mID="114" v:groupContext="group">
								<title>Sheet.114</title>
								<g id="shape115-184" v:mID="115" v:groupContext="shape">
									<title>Sheet.115</title>
									<path d="M1.35 282.61 C0.21 283.46 0 285.04 0.87 286.14 C1.74 287.25 3.37 287.46 4.5 286.61 C5.63
												 285.77 5.85 284.19 4.98 283.07 C4.11 281.98 2.48 281.76 1.35 282.61 Z" class="st5"/>
								</g>
							</g>
						</g>
					</g>
				</g>
				<g id="shape116-186" v:mID="116" v:groupContext="shape" transform="translate(0.976546,-0.761394)">
					<title>Sheet.116</title>
					<rect x="0" y="264.618" width="24.9996" height="22.842" class="st8"/>
				</g>
				<g id="shape117-188" v:mID="117" v:groupContext="shape">
					<title>Sheet.117</title>
					<rect x="0" y="263.095" width="26.9527" height="24.3648" class="st9"/>
				</g>
			</g>
			<g id="group118-190" transform="translate(54.4215,0)" v:mID="118" v:groupContext="group">
				<title>Sheet.118</title>
				<g id="group119-191" transform="translate(2.35256,-2.58215)" v:mID="119" v:groupContext="group">
					<title>Web App (opaque)  (was websites).80</title>
					<g id="shape120-192" v:mID="120" v:groupContext="shape">
						<title>Sheet.120</title>
						<path d="M18.95 272.02 C17 269.55 14.07 268.26 11.11 268.26 C9.03 268.26 6.92 268.91 5.13 270.24 C0.82 273.47
									 0 279.49 3.31 283.7 C5.24 286.17 8.17 287.46 11.13 287.46 C13.22 287.46 15.33 286.82 17.11 285.48
									 C21.43 282.26 22.25 276.23 18.95 272.02 Z" class="st4"/>
					</g>
					<g id="group121-194" v:mID="121" v:groupContext="group">
						<title>Sheet.121</title>
						<g id="group122-195" v:mID="122" v:groupContext="group">
							<title>Sheet.122</title>
							<g id="shape123-196" v:mID="123" v:groupContext="shape">
								<title>Sheet.123</title>
								<path d="M16.33 284.49 C14.78 285.65 12.95 286.21 11.13 286.21 C8.55 286.21 6.01 285.09 4.32 282.94
											 C1.44 279.27 2.15 274.04 5.92 271.23 C7.47 270.07 9.3 269.51 11.11 269.51 C13.7 269.51
											 16.24 270.64 17.93 272.79 C20.81 276.45 20.09 281.69 16.33 284.49 ZM18.95 272.02 C17
											 269.55 14.07 268.26 11.11 268.26 C9.03 268.26 6.92 268.91 5.13 270.24 C0.82 273.47 0
											 279.49 3.31 283.7 C5.24 286.17 8.17 287.46 11.13 287.46 C13.22 287.46 15.33 286.82 17.11
											 285.48 C21.43 282.26 22.25 276.23 18.95 272.02 Z" class="st5"/>
							</g>
						</g>
						<g id="group124-198" transform="translate(3.53575,-2.9772)" v:mID="124" v:groupContext="group">
							<title>Sheet.124</title>
							<g id="group125-199" transform="translate(0.243876,-0.11954)" v:mID="125" v:groupContext="group">
								<title>Sheet.125</title>
								<g id="group126-200" transform="translate(0.311974,2.27374E-13)" v:mID="126" v:groupContext="group">
									<title>Sheet.126</title>
									<g id="shape127-201" v:mID="127" v:groupContext="shape">
										<title>Sheet.127</title>
										<path d="M2.58 282.7 C2.01 282.15 1.55 281.62 1.19 281.11 C0.36 282.75 0.07 284.43 0 285.77
													 C0.08 285.88 0.08 285.96 0.16 286.07 C0.58 286.58 1.09 287.07 1.59 287.46 C1.52
													 286.36 1.62 284.56 2.58 282.7 Z" class="st5"/>
									</g>
								</g>
								<g id="shape128-203" v:mID="128" v:groupContext="shape" transform="translate(2.34892,-6.08054)">
									<title>Sheet.128</title>
									<path d="M3.52 282.38 C2.75 282.9 1.95 283.57 1.15 284.4 C0.71 284.85 0.33 285.32 0 285.79 C0.34
												 286.33 0.79 286.88 1.35 287.46 C1.78 286.88 2.3 286.29 2.92 285.72 C3.72 285 4.46
												 284.42 5.16 283.96 C4.59 283.44 4.03 282.92 3.52 282.38 Z" class="st5"/>
								</g>
								<g id="group129-205" transform="translate(7.08868,-10.2929)" v:mID="129" v:groupContext="group">
									<title>Sheet.129</title>
									<g id="shape130-206" v:mID="130" v:groupContext="shape">
										<title>Sheet.130</title>
										<path d="M6.97 286.06 C6.6 285.59 6.18 285.19 5.74 284.82 C4.41 284.62 2.35 284.64 0 285.86
													 C0.54 286.43 1.08 286.96 1.6 287.46 C4.74 285.81 6.97 286.06 6.97 286.06 Z"
												class="st5"/>
									</g>
								</g>
								<g id="group131-208" transform="translate(-1.59872E-14,-6.35363)" v:mID="131"
										v:groupContext="group">
									<title>Sheet.131</title>
									<g id="shape132-209" v:mID="132" v:groupContext="shape">
										<title>Sheet.132</title>
										<path d="M1.5 287.46 C1.74 287 2.02 286.53 2.35 286.06 C1 283.98 1.06 282.26 1.21 281.46
													 C0.87 281.81 0.56 282.16 0.28 282.55 C0.01 283.64 -0 285.37 1.5 287.46 Z"
												class="st5"/>
									</g>
								</g>
								<g id="group133-211" transform="translate(2.89071,-0.501382)" v:mID="133" v:groupContext="group">
									<title>Sheet.133</title>
									<g id="shape134-212" v:mID="134" v:groupContext="shape">
										<title>Sheet.134</title>
										<path d="M2.44 283.32 C1.81 282.84 1.27 282.35 0.81 281.88 C0.49 282.32 0.22 282.76 0 283.2
													 C0.43 283.62 0.92 284.05 1.49 284.49 C5 287.2 8.49 287.46 10.45 287.46 C10.58
													 287.46 11.2 286.65 11.55 286.15 C10.67 286.32 6.92 286.79 2.44 283.32 Z"
												class="st5"/>
									</g>
								</g>
								<g id="group135-214" transform="translate(1.50076,-4.76205)" v:mID="135" v:groupContext="group">
									<title>Sheet.135</title>
									<g id="shape136-215" v:mID="136" v:groupContext="shape">
										<title>Sheet.136</title>
										<path d="M0 285.87 C0.37 286.38 0.82 286.91 1.39 287.46 C1.61 287.02 1.88 286.58 2.2 286.14
													 C1.64 285.56 1.19 285.01 0.85 284.47 C0.52 284.93 0.24 285.4 0 285.87 Z"
												class="st5"/>
									</g>
								</g>
								<g id="group137-217" transform="translate(7.5056,-3.60573)" v:mID="137" v:groupContext="group">
									<title>Sheet.137</title>
									<g id="shape138-218" v:mID="138" v:groupContext="shape">
										<title>Sheet.138</title>
										<path d="M0 281.48 C3.2 284.37 6.99 286.82 7.96 287.46 C8.06 287.22 8.12 286.99 8.19 286.75
													 C7.16 286 4.44 283.93 1.18 280.78 C0.8 280.97 0.41 281.21 0 281.48 Z"
												class="st5"/>
									</g>
								</g>
								<g id="group139-220" transform="translate(3.5584,-11.1569)" v:mID="139" v:groupContext="group">
									<title>Sheet.139</title>
									<g id="shape140-221" v:mID="140" v:groupContext="shape">
										<title>Sheet.140</title>
										<path d="M3.53 286.72 C2.74 285.92 1.95 285.07 1.13 284.15 C0.74 284.27 0.37 284.42 0 284.6
													 C0.6 285.56 1.41 286.52 2.31 287.46 C2.73 287.18 3.13 286.93 3.53 286.72 Z"
												class="st5"/>
									</g>
								</g>
								<g id="shape141-223" v:mID="141" v:groupContext="shape" transform="translate(5.80615,-9.51699)">
									<title>Sheet.141</title>
									<path d="M1.33 285.06 C0.93 285.27 0.41 285.58 0 285.86 C0.51 286.4 1.03 286.94 1.6 287.46 C2.01
												 287.19 2.56 286.86 2.94 286.66 C2.41 286.16 1.87 285.63 1.33 285.06 Z" class="st5"/>
								</g>
								<g id="shape142-225" v:mID="142" v:groupContext="shape" transform="translate(5.80563,-9.48552)">
									<title>Sheet.142</title>
									<path d="M1.19 284.96 C0.79 285.17 0.41 285.44 0 285.72 C0.51 286.25 1.24 286.94 1.81 287.46
												 C2.22 287.19 2.56 286.91 2.94 286.71 C2.41 286.22 1.73 285.52 1.19 284.96 Z"
											class="st5"/>
								</g>
							</g>
							<g id="group143-227" transform="translate(10.6037,-4.22437)" v:mID="143" v:groupContext="group">
								<title>Sheet.143</title>
								<g id="shape144-228" v:mID="144" v:groupContext="shape">
									<title>Sheet.144</title>
									<path d="M0.96 284.02 C0.16 284.62 0 285.74 0.62 286.53 C1.24 287.32 2.39 287.46 3.2 286.87 C4.01
												 286.26 4.16 285.14 3.55 284.35 C2.92 283.57 1.77 283.41 0.96 284.02 Z" class="st5"/>
								</g>
							</g>
							<g id="group145-230" transform="translate(6.88592,-1.7053E-13)" v:mID="145" v:groupContext="group">
								<title>Sheet.145</title>
								<g id="shape146-231" v:mID="146" v:groupContext="shape">
									<title>Sheet.146</title>
									<path d="M0.88 284.27 C0.14 284.83 0 285.87 0.56 286.6 C1.14 287.32 2.21 287.46 2.96 286.9 C3.7
												 286.35 3.84 285.31 3.27 284.58 C2.7 283.85 1.63 283.72 0.88 284.27 Z" class="st5"/>
								</g>
							</g>
							<g id="group147-233" transform="translate(0,-3.63353)" v:mID="147" v:groupContext="group">
								<title>Sheet.147</title>
								<g id="shape148-234" v:mID="148" v:groupContext="shape">
									<title>Sheet.148</title>
									<path d="M1.35 282.61 C0.21 283.46 0 285.04 0.87 286.14 C1.74 287.25 3.37 287.46 4.5 286.61 C5.63
												 285.77 5.85 284.19 4.98 283.07 C4.11 281.98 2.48 281.76 1.35 282.61 Z" class="st5"/>
								</g>
							</g>
						</g>
					</g>
				</g>
				<g id="shape149-236" v:mID="149" v:groupContext="shape" transform="translate(0.976546,-0.761394)">
					<title>Sheet.149</title>
					<rect x="0" y="264.618" width="24.9996" height="22.842" class="st8"/>
				</g>
				<g id="shape150-238" v:mID="150" v:groupContext="shape">
					<title>Sheet.150</title>
					<rect x="0" y="263.095" width="26.9527" height="24.3648" class="st9"/>
				</g>
			</g>
		</g>
		<g id="shape200-240" v:mID="200" v:groupContext="shape" transform="translate(131.972,-95.7474)">
			<title>Sheet.200</title>
			<path d="M0 287.46 L218.25 287.46 L218.25 143.84 L0 143.84 L0 287.46 Z" class="st10"/>
		</g>
		<g id="shape208-242" v:mID="208" v:groupContext="shape" transform="translate(65.4737,-158.581)">
			<title>Sheet.208</title>
			<path d="M0 287.46 L98.32 287.46" class="st11"/>
		</g>
		<g id="group1023-248" transform="translate(332.994,-102.418)" v:mID="1023" v:groupContext="group">
			<title>Sheet.1023</title>
			<g id="shape1024-249" v:mID="1024" v:groupContext="shape">
				<title>Sheet.1024</title>
				<rect x="0" y="276.501" width="12.7273" height="10.9596" class="st13"/>
			</g>
			<g id="group1025-251" transform="translate(-6.3912,1.56332)" v:mID="1025" v:groupContext="group">
				<title>Resource group (opaque).157</title>
				<desc>Resource group</desc>
				<g id="group1026-252" v:mID="1026" v:groupContext="group">
					<title>Sheet.1026</title>
					<g id="shape1027-253" v:mID="1027" v:groupContext="shape" transform="translate(3.68716,-8.75027)">
						<title>Sheet.1027</title>
						<path d="M6 287.46 C5.88 287.46 5.81 287.42 5.74 287.38 L0.26 284.08 C0.11 283.96 0 283.8 0 283.57 C-0 283.38
									 0.11 283.18 0.26 283.07 L5.7 279.8 C5.88 279.68 6.07 279.68 6.22 279.8 L11.69 283.1 C11.84 283.22
									 11.96 283.38 11.96 283.57 C11.96 283.77 11.84 283.96 11.69 284.04 L6.26 287.3 C6.18 287.42 6.07
									 287.46 6 287.46 Z" class="st14"/>
					</g>
					<g id="shape1028-255" v:mID="1028" v:groupContext="shape" transform="translate(2.90504,-0.738912)">
						<title>Sheet.1028</title>
						<path d="M6 287.46 C5.88 287.46 5.81 287.42 5.74 287.38 L0.26 284.08 C0.11 284 0 283.8 0 283.57 L0 276.96
									 C0 276.77 0.11 276.57 0.26 276.45 C0.41 276.34 0.63 276.34 0.78 276.45 L6.26 279.76 C6.41 279.88
									 6.52 280.03 6.52 280.27 L6.52 286.88 C6.52 287.07 6.41 287.27 6.26 287.34 C6.15 287.46 6.07
									 287.46 6 287.46 Z" class="st14"/>
					</g>
					<g id="shape1029-257" v:mID="1029" v:groupContext="shape" transform="translate(9.90692,-0.738912)">
						<title>Sheet.1029</title>
						<path d="M0.52 287.46 C0.45 287.46 0.34 287.42 0.26 287.38 C0.07 287.27 0 287.11 0 286.88 L0 280.3 C0 280.11
									 0.11 279.92 0.26 279.84 L5.74 276.53 C5.92 276.42 6.11 276.42 6.26 276.53 C6.44 276.65 6.52
									 276.84 6.52 277.04 L6.52 283.61 C6.52 283.8 6.41 284 6.26 284.08 L0.78 287.38 C0.74 287.42 0.63
									 287.46 0.52 287.46 Z" class="st14"/>
					</g>
					<g id="shape1030-259" v:mID="1030" v:groupContext="shape">
						<title>Sheet.1030</title>
						<path d="M3.91 287.46 C3.76 287.46 3.58 287.42 3.46 287.34 L0.93 285.79 C0.37 285.48 0 284.78 0 284.12 L0
									 274.32 C0 273.65 0.37 272.95 0.93 272.64 L3.46 271.09 C3.91 270.82 4.47 270.97 4.73 271.44 C4.99
									 271.9 4.84 272.49 4.39 272.76 L1.86 274.32 C1.86 274.32 1.86 274.35 1.86 274.35 L1.86 284.12
									 C1.86 284.12 1.9 284.15 1.9 284.15 L4.43 285.67 C4.88 285.94 5.03 286.53 4.77 286.99 C4.54 287.27
									 4.25 287.46 3.91 287.46 Z" class="st14"/>
					</g>
					<g id="shape1031-261" v:mID="1031" v:groupContext="shape" transform="translate(14.339,0)">
						<title>Sheet.1031</title>
						<path d="M1.08 287.46 C0.74 287.46 0.45 287.3 0.3 286.99 C0.04 286.53 0.19 285.94 0.63 285.67 L3.17 284.12
									 C3.17 284.12 3.17 284.08 3.17 284.08 L3.17 274.32 C3.17 274.32 3.13 274.28 3.13 274.28 L0.6
									 272.76 C0.15 272.49 0 271.9 0.26 271.44 C0.48 271.01 1.08 270.82 1.53 271.09 L4.06 272.64 C4.62
									 272.95 4.99 273.65 4.99 274.32 L4.99 284.12 C4.99 284.78 4.62 285.48 4.06 285.79 L1.53 287.34
									 C1.38 287.42 1.23 287.46 1.08 287.46 Z" class="st14"/>
					</g>
				</g>
				<g id="group1032-263" transform="translate(0.37244,-0.272231)" v:mID="1032" v:groupContext="group">
					<title>Sheet.1032</title>
					<g id="shape1033-264" v:mID="1033" v:groupContext="shape" transform="translate(3.68716,-8.86694)">
						<title>Sheet.1033</title>
						<path d="M5.62 287.46 C5.59 287.46 5.59 287.46 5.55 287.42 L0.07 284.12 C0.04 284.08 0 284.04 0 283.96 C0
									 283.88 0.04 283.84 0.07 283.8 L5.51 280.54 C5.55 280.5 5.62 280.5 5.66 280.54 L11.14 283.84
									 C11.17 283.88 11.21 283.92 11.21 284 C11.21 284.08 11.17 284.12 11.14 284.15 L5.7 287.42 C5.66
									 287.46 5.66 287.46 5.62 287.46 Z" class="st15"/>
					</g>
					<g id="shape1034-266" v:mID="1034" v:groupContext="shape" transform="translate(2.90504,-0.855582)">
						<title>Sheet.1034</title>
						<path d="M5.62 287.46 C5.59 287.46 5.55 287.46 5.55 287.42 L0.07 284.12 C0.04 284.08 0 284.04 0 283.96 L0
									 277.35 C0 277.27 0.04 277.23 0.07 277.19 C0.11 277.15 0.19 277.15 0.22 277.19 L5.7 280.5 C5.74
									 280.54 5.77 280.58 5.77 280.65 L5.77 287.27 C5.77 287.34 5.74 287.38 5.7 287.42 C5.66 287.46
									 5.62 287.46 5.62 287.46 Z" class="st15"/>
					</g>
					<g id="shape1035-268" v:mID="1035" v:groupContext="shape" transform="translate(9.90692,-0.855582)">
						<title>Sheet.1035</title>
						<path d="M0.15 287.46 C0.11 287.46 0.07 287.46 0.07 287.42 C0.04 287.38 0 287.34 0 287.27 L0 280.69 C0 280.62
									 0.04 280.58 0.07 280.54 L5.55 277.23 C5.59 277.19 5.66 277.19 5.7 277.23 C5.74 277.27 5.77 277.31
									 5.77 277.39 L5.77 283.96 C5.77 284.04 5.74 284.08 5.7 284.12 L0.22 287.42 C0.22 287.46 0.19
									 287.46 0.15 287.46 Z" class="st15"/>
					</g>
					<g id="shape1036-270" v:mID="1036" v:groupContext="shape" transform="translate(9.29257E-14,-0.11667)">
						<title>Sheet.1036</title>
						<path d="M3.54 287.46 C3.46 287.46 3.35 287.42 3.28 287.38 L0.74 285.83 C0.3 285.55 0 285.01 0 284.5 L0 274.7
									 C0 274.2 0.3 273.62 0.74 273.38 L3.28 271.83 C3.54 271.67 3.87 271.75 4.02 272.02 C4.17 272.29
									 4.1 272.64 3.84 272.8 L1.3 274.35 C1.23 274.39 1.12 274.59 1.12 274.7 L1.12 284.5 C1.12 284.62
									 1.23 284.82 1.3 284.85 L3.84 286.41 C4.1 286.57 4.17 286.92 4.02 287.19 C3.91 287.34 3.72 287.46
									 3.54 287.46 Z" class="st15"/>
					</g>
					<g id="shape1037-272" v:mID="1037" v:groupContext="shape" transform="translate(14.4134,0)">
						<title>Sheet.1037</title>
						<path d="M0.63 271.67 C0.71 271.67 0.82 271.71 0.89 271.75 L3.43 273.3 C3.87 273.58 4.17 274.12 4.17 274.63
									 L4.17 284.43 C4.17 284.93 3.87 285.52 3.43 285.75 L0.89 287.3 C0.63 287.46 0.3 287.38 0.15 287.11
									 C0 286.84 0.07 286.49 0.34 286.33 L2.87 284.78 C2.94 284.74 3.05 284.54 3.05 284.43 L3.05 274.63
									 C3.05 274.51 2.94 274.32 2.87 274.28 L0.34 272.72 C0.07 272.57 -0 272.22 0.15 271.94 C0.26 271.75
									 0.45 271.67 0.63 271.67 Z" class="st15"/>
					</g>
				</g>
				<g id="shape1025-274" v:mID="1025" v:groupContext="groupContent">
					<v:textBlock v:margins="rect(0,0,0,0)" v:verticalAlign="0"/>
					<v:textRect cx="-18.8283" cy="276.632" width="44.84" height="12.2752"/>
					<text x="-34.95" y="277.69" class="st6" v:langID="1033"><v:paragraph v:horizAlign="1"/><v:tabList/>Resource<v:lf/><tspan
								x="-29.53" dy="1.2em" class="st16">group</tspan></text>				</g>
			</g>
		</g>
		<g id="group1038-277" transform="translate(95.8667,-218.037)" v:mID="1038" v:groupContext="group">
			<title>Azure Active Directory (opaque)</title>
			<desc>Azure Active Directory</desc>
			<g id="shape1039-278" v:mID="1039" v:groupContext="shape">
				<title>Sheet.1039</title>
				<path d="M14.62 259 L0 275.9 L14.54 287.46 L29.18 275.96 L14.62 259 Z" class="st4"/>
			</g>
			<g id="group1040-280" v:mID="1040" v:groupContext="group">
				<title>Sheet.1040</title>
				<g id="group1041-281" transform="translate(8.67652,-8.51649)" v:mID="1041" v:groupContext="group">
					<title>Sheet.1041</title>
					<g id="shape1042-282" v:mID="1042" v:groupContext="shape">
						<title>Sheet.1042</title>
						<path d="M4.86 278.38 L0 282.73 C0.22 283.09 0.34 283.48 0.34 283.89 C0.34 284.1 0.3 284.3 0.24 284.5 L5.26
									 287.46 L5.26 278.93 C5.19 278.9 4.91 278.41 4.86 278.38 Z" class="st5"/>
					</g>
				</g>
				<g id="group1043-284" transform="translate(15.0261,-8.5131)" v:mID="1043" v:groupContext="group">
					<title>Sheet.1043</title>
					<g id="shape1044-285" v:mID="1044" v:groupContext="shape">
						<title>Sheet.1044</title>
						<path d="M0.97 278.29 C0.88 278.33 0.09 278.93 0 278.97 L0 287.46 L5 284.34 C4.95 284.18 4.94 284.02 4.94
									 283.86 C4.94 283.59 5 283.31 5.09 283.04 L0.97 278.29 Z" class="st5"/>
					</g>
				</g>
				<g id="shape1045-287" v:mID="1045" v:groupContext="shape">
					<title>Sheet.1045</title>
					<path d="M14.62 259 L0 275.9 L14.54 287.46 L29.18 275.96 L14.62 259 ZM22.31 277.62 C21.67 277.62 21.05 277.37
								 20.62 276.92 L16.61 279.7 C16.87 280.06 17 280.49 17 280.94 C17 282.2 15.95 283.22 14.65 283.22
								 C13.37 283.22 12.32 282.2 12.32 280.94 C12.32 280.38 12.52 279.87 12.89 279.47 L8.25 277.04 C7.83
								 277.44 7.27 277.66 6.68 277.66 C5.39 277.66 4.33 276.64 4.33 275.37 C4.33 274.12 5.39 273.09 6.68
								 273.09 C7.07 273.09 7.43 273.18 7.77 273.37 L12.62 269 C12.28 268.57 12.09 268.04 12.09 267.5 C12.09
								 266.11 13.25 265 14.67 265 C16.09 265 17.24 266.11 17.24 267.5 C17.24 267.96 17.1 268.42 16.84 268.81
								 L20.92 273.51 C21.32 273.22 21.81 273.06 22.32 273.06 C23.61 273.06 24.67 274.08 24.67 275.34 C24.65
								 276.6 23.59 277.62 22.31 277.62 Z" class="st5"/>
				</g>
			</g>
			<g id="shape1038-289" v:mID="1038" v:groupContext="groupContent">
				<v:textBlock v:margins="rect(0,0,0,0)" v:verticalAlign="0"/>
				<v:textRect cx="14.7764" cy="250.843" width="69.45" height="29.6127"/>
				<text x="-9.96" y="244.14" class="st2" v:langID="1033"><v:paragraph v:horizAlign="1"/><v:tabList/>Azure Active <tspan
							x="-3.37" dy="1.2em" class="st16">Directory</tspan></text>			</g>
		</g>
		<g id="shape1046-292" v:mID="1046" v:groupContext="shape" transform="translate(-149.903,-93.465) rotate(-45)">
			<title>Sheet.1046</title>
			<desc>Authentication</desc>
			<v:textBlock v:margins="rect(4,4,4,4)"/>
			<v:textRect cx="27.8734" cy="279.991" width="65.34" height="0"/>
			<path d="M0 287.46 C7.02 287.46 13.58 287.46 20.03 287.46 C32.63 287.46 44.8 287.46 58.8 287.46" class="st17"/>
			<rect v:rectContext="textBkgnd" x="2.43983" y="275.191" width="50.867" height="9.59985" class="st19"/>
			<text x="2.44" y="282.39" class="st20" v:langID="1033"><v:paragraph v:horizAlign="1"/><v:tabList/>Authentication</text>		</g>
		<g id="group1047-300" transform="translate(94.4963,-39.6036)" v:mID="1047" v:groupContext="group">
			<title>DNS.1133</title>
			<desc>Azure DNS</desc>
			<g id="group1048-301" transform="translate(0.621928,-0.552825)" v:mID="1048" v:groupContext="group">
				<title>XMLID_3_</title>
				<g id="shape1049-302" v:mID="1049" v:groupContext="shape">
					<title>XMLID_9_</title>
					<g id="shadow1049-303" v:groupContext="shadow" v:shadowOffsetX="0.3456" v:shadowOffsetY="-1.9728"
							v:shadowType="1" transform="matrix(1,0,0,1,0.3456,1.9728)" class="st21">
						<path d="M30.61 272.26 C30.61 268.87 29.44 265.55 27.3 262.86 L27.16 262.72 C27.09 262.65 27.09 262.58 27.02
									 262.51 L26.05 261.48 C23.22 258.58 19.42 256.99 15.34 256.99 L15.2 256.99 C11.19 257.05 7.46
									 258.58 4.56 261.41 L3.52 262.51 C3.46 262.58 3.46 262.65 3.39 262.72 L3.25 262.79 C1.17 265.49
									 0 268.8 0 272.26 C0 275.64 1.17 278.96 3.32 281.66 L3.46 281.79 C3.52 281.86 3.52 281.93 3.59
									 282 L4.56 283.04 C7.39 285.87 11.13 287.46 15.2 287.46 L15.34 287.46 C19.35 287.46 23.22 285.87
									 26.05 283.04 L27.02 281.93 C27.09 281.86 27.09 281.79 27.16 281.72 L27.3 281.59 C29.44 279.03
									 30.61 275.64 30.61 272.26 ZM24.39 262.31 C24.32 262.31 24.26 262.38 24.19 262.38 C24.05 262.44
									 23.91 262.51 23.91 262.51 C23.63 262.65 23.36 262.72 23.08 262.79 C23.01 262.79 22.94 262.86
									 22.87 262.86 C22.53 263 22.18 263.07 21.84 263.14 C21.77 263.14 21.63 263.2 21.56 263.2 C21.01
									 261.75 20.32 260.44 19.56 259.47 C21.35 260.1 23.01 261.06 24.39 262.31 ZM15.2 258.78 C16.93
									 258.78 18.59 260.58 19.83 263.62 C18.45 263.9 16.93 263.97 15.34 263.97 C13.75 263.97 12.16
									 263.83 10.71 263.62 C11.89 260.58 13.54 258.85 15.2 258.78 ZM10.85 259.54 C10.09 260.51 9.47
									 261.75 8.91 263.2 L8.78 263.2 C8.43 263.07 8.02 263 7.74 262.93 C7.67 262.93 7.6 262.86 7.53
									 262.86 C7.26 262.72 6.98 262.58 6.77 262.51 C6.63 262.44 6.56 262.44 6.5 262.38 C6.43 262.31
									 6.36 262.31 6.22 262.24 C7.67 261.13 9.19 260.1 10.85 259.54 ZM6.22 282.21 C6.29 282.21 6.36
									 282.14 6.43 282.14 C6.56 282.07 6.63 282.07 6.7 282 C6.98 281.86 7.26 281.79 7.53 281.72 C7.6
									 281.72 7.67 281.66 7.74 281.66 C8.09 281.52 8.43 281.45 8.78 281.38 L8.91 281.38 C9.47 282.76
									 10.16 284.07 10.85 285.04 C9.19 284.35 7.6 283.38 6.22 282.21 ZM15.27 285.73 C13.54 285.66 11.89
									 283.94 10.71 280.96 C12.16 280.69 13.75 280.62 15.34 280.62 C16.93 280.62 18.38 280.76 19.83
									 280.96 C18.66 283.94 16.93 285.73 15.27 285.73 ZM19.63 284.97 C20.39 284 21.08 282.69 21.63
									 281.24 C21.7 281.24 21.84 281.31 21.91 281.31 C22.25 281.45 22.67 281.52 22.94 281.59 C23.01
									 281.59 23.08 281.66 23.15 281.66 C23.43 281.79 23.7 281.86 23.98 281.93 C24.12 282 24.19 282
									 24.26 282.07 C24.32 282.07 24.39 282.14 24.53 282.21 C23.01 283.45 21.35 284.42 19.63 284.97
									 ZM25.78 280.76 C25.57 280.76 25.5 280.69 25.29 280.62 C25.08 280.55 24.88 280.41 24.67 280.34
									 C24.6 280.34 24.53 280.27 24.46 280.27 C23.7 280 22.94 279.79 22.11 279.51 C22.32 278.75 22.46
									 278.06 22.6 277.3 L20.8 277.3 C20.66 277.99 20.52 278.61 20.39 279.1 C18.8 278.82 17.07 278.68
									 15.34 278.68 C13.54 278.68 11.82 278.89 10.16 279.17 C9.95 278.55 9.88 277.92 9.74 277.3 L7.95
									 277.3 C8.09 278.06 8.22 278.82 8.43 279.58 C7.67 279.79 6.98 280 6.29 280.27 C6.22 280.34 6.08
									 280.34 6.01 280.41 C5.8 280.48 5.6 280.62 5.39 280.69 C5.25 280.69 5.11 280.76 4.98 280.83 C3.18
									 278.61 2.14 275.92 1.93 273.09 L3.46 273.09 L3.46 271.29 L1.93 271.29 C2.14 268.46 3.18 265.83
									 4.91 263.69 L4.98 263.62 C5.11 263.69 5.25 263.76 5.39 263.83 C5.67 263.97 5.8 264.03 6.08 264.1
									 C6.15 264.1 6.22 264.17 6.29 264.17 C6.98 264.45 7.67 264.66 8.5 264.86 C8.29 265.55 8.22 266.18
									 8.09 266.87 L9.88 266.87 C10.02 266.31 10.16 265.69 10.23 265.21 C11.89 265.49 13.61 265.69
									 15.41 265.69 C17.21 265.69 18.87 265.49 20.45 265.28 C20.59 265.76 20.73 266.31 20.8 266.94
									 L22.6 266.94 C22.46 266.25 22.32 265.62 22.18 264.93 C22.94 264.73 23.7 264.52 24.46 264.17
									 C24.53 264.17 24.67 264.1 24.74 264.1 C25.02 264.03 25.15 263.9 25.43 263.83 C25.57 263.76 25.71
									 263.69 25.84 263.62 C27.64 265.83 28.68 268.53 28.89 271.29 L27.09 271.29 L27.09 273.09 L28.89
									 273.09 C28.54 275.92 27.5 278.68 25.78 280.76 Z" class="st22"/>
					</g>
					<path d="M30.61 272.26 C30.61 268.87 29.44 265.55 27.3 262.86 L27.16 262.72 C27.09 262.65 27.09 262.58 27.02
								 262.51 L26.05 261.48 C23.22 258.58 19.42 256.99 15.34 256.99 L15.2 256.99 C11.19 257.05 7.46 258.58
								 4.56 261.41 L3.52 262.51 C3.46 262.58 3.46 262.65 3.39 262.72 L3.25 262.79 C1.17 265.49 0 268.8
								 0 272.26 C0 275.64 1.17 278.96 3.32 281.66 L3.46 281.79 C3.52 281.86 3.52 281.93 3.59 282 L4.56
								 283.04 C7.39 285.87 11.13 287.46 15.2 287.46 L15.34 287.46 C19.35 287.46 23.22 285.87 26.05 283.04
								 L27.02 281.93 C27.09 281.86 27.09 281.79 27.16 281.72 L27.3 281.59 C29.44 279.03 30.61 275.64 30.61
								 272.26 ZM24.39 262.31 C24.32 262.31 24.26 262.38 24.19 262.38 C24.05 262.44 23.91 262.51 23.91 262.51
								 C23.63 262.65 23.36 262.72 23.08 262.79 C23.01 262.79 22.94 262.86 22.87 262.86 C22.53 263 22.18
								 263.07 21.84 263.14 C21.77 263.14 21.63 263.2 21.56 263.2 C21.01 261.75 20.32 260.44 19.56 259.47
								 C21.35 260.1 23.01 261.06 24.39 262.31 ZM15.2 258.78 C16.93 258.78 18.59 260.58 19.83 263.62 C18.45
								 263.9 16.93 263.97 15.34 263.97 C13.75 263.97 12.16 263.83 10.71 263.62 C11.89 260.58 13.54 258.85
								 15.2 258.78 ZM10.85 259.54 C10.09 260.51 9.47 261.75 8.91 263.2 L8.78 263.2 C8.43 263.07 8.02 263
								 7.74 262.93 C7.67 262.93 7.6 262.86 7.53 262.86 C7.26 262.72 6.98 262.58 6.77 262.51 C6.63 262.44
								 6.56 262.44 6.5 262.38 C6.43 262.31 6.36 262.31 6.22 262.24 C7.67 261.13 9.19 260.1 10.85 259.54
								 ZM6.22 282.21 C6.29 282.21 6.36 282.14 6.43 282.14 C6.56 282.07 6.63 282.07 6.7 282 C6.98 281.86
								 7.26 281.79 7.53 281.72 C7.6 281.72 7.67 281.66 7.74 281.66 C8.09 281.52 8.43 281.45 8.78 281.38
								 L8.91 281.38 C9.47 282.76 10.16 284.07 10.85 285.04 C9.19 284.35 7.6 283.38 6.22 282.21 ZM15.27
								 285.73 C13.54 285.66 11.89 283.94 10.71 280.96 C12.16 280.69 13.75 280.62 15.34 280.62 C16.93 280.62
								 18.38 280.76 19.83 280.96 C18.66 283.94 16.93 285.73 15.27 285.73 ZM19.63 284.97 C20.39 284 21.08
								 282.69 21.63 281.24 C21.7 281.24 21.84 281.31 21.91 281.31 C22.25 281.45 22.67 281.52 22.94 281.59
								 C23.01 281.59 23.08 281.66 23.15 281.66 C23.43 281.79 23.7 281.86 23.98 281.93 C24.12 282 24.19
								 282 24.26 282.07 C24.32 282.07 24.39 282.14 24.53 282.21 C23.01 283.45 21.35 284.42 19.63 284.97
								 ZM25.78 280.76 C25.57 280.76 25.5 280.69 25.29 280.62 C25.08 280.55 24.88 280.41 24.67 280.34 C24.6
								 280.34 24.53 280.27 24.46 280.27 C23.7 280 22.94 279.79 22.11 279.51 C22.32 278.75 22.46 278.06
								 22.6 277.3 L20.8 277.3 C20.66 277.99 20.52 278.61 20.39 279.1 C18.8 278.82 17.07 278.68 15.34 278.68
								 C13.54 278.68 11.82 278.89 10.16 279.17 C9.95 278.55 9.88 277.92 9.74 277.3 L7.95 277.3 C8.09 278.06
								 8.22 278.82 8.43 279.58 C7.67 279.79 6.98 280 6.29 280.27 C6.22 280.34 6.08 280.34 6.01 280.41 C5.8
								 280.48 5.6 280.62 5.39 280.69 C5.25 280.69 5.11 280.76 4.98 280.83 C3.18 278.61 2.14 275.92 1.93
								 273.09 L3.46 273.09 L3.46 271.29 L1.93 271.29 C2.14 268.46 3.18 265.83 4.91 263.69 L4.98 263.62
								 C5.11 263.69 5.25 263.76 5.39 263.83 C5.67 263.97 5.8 264.03 6.08 264.1 C6.15 264.1 6.22 264.17
								 6.29 264.17 C6.98 264.45 7.67 264.66 8.5 264.86 C8.29 265.55 8.22 266.18 8.09 266.87 L9.88 266.87
								 C10.02 266.31 10.16 265.69 10.23 265.21 C11.89 265.49 13.61 265.69 15.41 265.69 C17.21 265.69 18.87
								 265.49 20.45 265.28 C20.59 265.76 20.73 266.31 20.8 266.94 L22.6 266.94 C22.46 266.25 22.32 265.62
								 22.18 264.93 C22.94 264.73 23.7 264.52 24.46 264.17 C24.53 264.17 24.67 264.1 24.74 264.1 C25.02
								 264.03 25.15 263.9 25.43 263.83 C25.57 263.76 25.71 263.69 25.84 263.62 C27.64 265.83 28.68 268.53
								 28.89 271.29 L27.09 271.29 L27.09 273.09 L28.89 273.09 C28.54 275.92 27.5 278.68 25.78 280.76 Z"
							class="st23"/>
				</g>
				<g id="shape1050-307" v:mID="1050" v:groupContext="shape" transform="translate(5.04453,-11.1947)">
					<title>XMLID_6_</title>
					<g id="shadow1050-308" v:groupContext="shadow" v:shadowOffsetX="0.3456" v:shadowOffsetY="-1.9728"
							v:shadowType="1" transform="matrix(1,0,0,1,0.3456,1.9728)" class="st21">
						<path d="M6.43 283.31 C6.43 284.07 6.29 284.63 6.15 285.11 C5.94 285.59 5.67 286.01 5.39 286.42 C5.04 286.7
									 4.63 286.98 4.08 287.18 C3.59 287.32 2.97 287.46 2.28 287.46 L0.41 287.46 C0.28 287.46 0.14
									 287.39 0.07 287.32 C-0 287.25 0 287.05 0 286.91 L0 280 C0 279.79 0.07 279.72 0.14 279.65 C0.21
									 279.58 0.35 279.51 0.48 279.51 L2.49 279.51 C3.25 279.51 3.8 279.58 4.28 279.79 C4.77 280 5.18
									 280.2 5.53 280.55 C5.87 280.9 6.15 281.31 6.29 281.79 C6.36 282.14 6.43 282.69 6.43 283.31 ZM4.77
									 283.38 C4.77 283.04 4.7 282.62 4.63 282.35 C4.56 282.07 4.35 281.72 4.22 281.52 C4.08 281.31
									 3.8 281.1 3.46 280.96 C3.18 280.83 2.76 280.76 2.21 280.76 L1.52 280.76 L1.52 286.15 L2.35 286.15
									 C2.76 286.15 3.11 286.08 3.46 285.94 C3.73 285.8 4.01 285.66 4.22 285.46 C4.42 285.18 4.56 284.97
									 4.63 284.63 C4.77 284.21 4.77 283.8 4.77 283.38 Z" class="st22"/>
					</g>
					<path d="M6.43 283.31 C6.43 284.07 6.29 284.63 6.15 285.11 C5.94 285.59 5.67 286.01 5.39 286.42 C5.04 286.7 4.63
								 286.98 4.08 287.18 C3.59 287.32 2.97 287.46 2.28 287.46 L0.41 287.46 C0.28 287.46 0.14 287.39 0.07
								 287.32 C-0 287.25 0 287.05 0 286.91 L0 280 C0 279.79 0.07 279.72 0.14 279.65 C0.21 279.58 0.35 279.51
								 0.48 279.51 L2.49 279.51 C3.25 279.51 3.8 279.58 4.28 279.79 C4.77 280 5.18 280.2 5.53 280.55 C5.87
								 280.9 6.15 281.31 6.29 281.79 C6.36 282.14 6.43 282.69 6.43 283.31 ZM4.77 283.38 C4.77 283.04 4.7
								 282.62 4.63 282.35 C4.56 282.07 4.35 281.72 4.22 281.52 C4.08 281.31 3.8 281.1 3.46 280.96 C3.18
								 280.83 2.76 280.76 2.21 280.76 L1.52 280.76 L1.52 286.15 L2.35 286.15 C2.76 286.15 3.11 286.08 3.46
								 285.94 C3.73 285.8 4.01 285.66 4.22 285.46 C4.42 285.18 4.56 284.97 4.63 284.63 C4.77 284.21 4.77
								 283.8 4.77 283.38 Z" class="st23"/>
				</g>
				<g id="shape1051-312" v:mID="1051" v:groupContext="shape" transform="translate(12.5768,-11.1947)">
					<title>XMLID_5_</title>
					<g id="shadow1051-313" v:groupContext="shadow" v:shadowOffsetX="0.3456" v:shadowOffsetY="-1.9728"
							v:shadowType="1" transform="matrix(1,0,0,1,0.3456,1.9728)" class="st21">
						<path d="M6.7 286.77 C6.7 286.91 6.7 286.98 6.63 287.05 C6.56 287.11 6.56 287.18 6.5 287.25 C6.43 287.32
									 6.36 287.32 6.29 287.39 C6.22 287.39 6.15 287.46 6.01 287.46 L5.32 287.46 C5.18 287.46 5.04
									 287.46 4.98 287.39 C4.84 287.39 4.77 287.32 4.7 287.18 C4.63 287.11 4.49 286.98 4.42 286.91
									 C4.35 286.77 4.22 286.63 4.15 286.42 L2.21 282.76 C2.07 282.48 1.93 282.35 1.87 282 C1.73 281.72
									 1.59 281.52 1.59 281.24 C1.59 281.52 1.59 281.86 1.66 282.07 L1.66 287.11 L1.59 287.25 C1.59
									 287.32 1.52 287.32 1.45 287.32 C1.38 287.32 1.31 287.39 1.17 287.39 L0.41 287.39 C0.28 287.39
									 0.21 287.39 0.14 287.32 C0.07 287.32 0.07 287.25 0 287.25 L0 280.07 C0 279.86 0.07 279.79 0.21
									 279.65 C0.35 279.51 0.48 279.51 0.62 279.51 L1.45 279.51 C1.66 279.51 1.73 279.51 1.8 279.58
									 C1.93 279.58 2 279.65 2.07 279.72 C2.14 279.79 2.28 279.86 2.35 280 C2.42 280.14 2.49 280.27
									 2.63 280.41 L4.15 283.24 C4.22 283.45 4.35 283.59 4.42 283.73 C4.49 283.94 4.63 284.07 4.7 284.21
									 C4.77 284.42 4.91 284.49 4.98 284.7 C5.04 284.9 5.11 284.97 5.25 285.18 L5.25 279.72 L5.32 279.58
									 C5.32 279.51 5.39 279.51 5.46 279.51 C5.53 279.51 5.6 279.44 5.74 279.44 L6.5 279.44 C6.63 279.44
									 6.7 279.44 6.77 279.51 C6.84 279.51 6.84 279.58 6.91 279.58 L6.91 286.77 L6.7 286.77 Z"
								class="st22"/>
					</g>
					<path d="M6.7 286.77 C6.7 286.91 6.7 286.98 6.63 287.05 C6.56 287.11 6.56 287.18 6.5 287.25 C6.43 287.32 6.36
								 287.32 6.29 287.39 C6.22 287.39 6.15 287.46 6.01 287.46 L5.32 287.46 C5.18 287.46 5.04 287.46 4.98
								 287.39 C4.84 287.39 4.77 287.32 4.7 287.18 C4.63 287.11 4.49 286.98 4.42 286.91 C4.35 286.77 4.22
								 286.63 4.15 286.42 L2.21 282.76 C2.07 282.48 1.93 282.35 1.87 282 C1.73 281.72 1.59 281.52 1.59
								 281.24 C1.59 281.52 1.59 281.86 1.66 282.07 L1.66 287.11 L1.59 287.25 C1.59 287.32 1.52 287.32 1.45
								 287.32 C1.38 287.32 1.31 287.39 1.17 287.39 L0.41 287.39 C0.28 287.39 0.21 287.39 0.14 287.32 C0.07
								 287.32 0.07 287.25 0 287.25 L0 280.07 C0 279.86 0.07 279.79 0.21 279.65 C0.35 279.51 0.48 279.51
								 0.62 279.51 L1.45 279.51 C1.66 279.51 1.73 279.51 1.8 279.58 C1.93 279.58 2 279.65 2.07 279.72 C2.14
								 279.79 2.28 279.86 2.35 280 C2.42 280.14 2.49 280.27 2.63 280.41 L4.15 283.24 C4.22 283.45 4.35
								 283.59 4.42 283.73 C4.49 283.94 4.63 284.07 4.7 284.21 C4.77 284.42 4.91 284.49 4.98 284.7 C5.04
								 284.9 5.11 284.97 5.25 285.18 L5.25 279.72 L5.32 279.58 C5.32 279.51 5.39 279.51 5.46 279.51 C5.53
								 279.51 5.6 279.44 5.74 279.44 L6.5 279.44 C6.63 279.44 6.7 279.44 6.77 279.51 C6.84 279.51 6.84
								 279.58 6.91 279.58 L6.91 286.77 L6.7 286.77 Z" class="st23"/>
				</g>
				<g id="shape1052-317" v:mID="1052" v:groupContext="shape" transform="translate(20.4545,-11.0565)">
					<title>XMLID_4_</title>
					<g id="shadow1052-318" v:groupContext="shadow" v:shadowOffsetX="0.3456" v:shadowOffsetY="-1.9728"
							v:shadowType="1" transform="matrix(1,0,0,1,0.3456,1.9728)" class="st21">
						<path d="M5.25 284.9 C5.25 285.32 5.18 285.66 4.98 286.01 C4.77 286.35 4.63 286.56 4.35 286.77 C4.08 286.98
									 3.8 287.11 3.46 287.25 C3.11 287.39 2.7 287.46 2.28 287.46 C2 287.46 1.73 287.46 1.52 287.39
									 C1.31 287.32 1.11 287.25 0.9 287.18 C0.69 287.11 0.62 287.05 0.48 286.98 C0.35 286.91 0.28 286.84
									 0.21 286.77 C0.14 286.7 0.14 286.63 0.07 286.49 C0.07 286.35 0 286.22 0 286.08 L0 285.8 C0 285.73
									 -0 285.59 0.07 285.59 C0.07 285.53 0.14 285.53 0.14 285.46 C0.14 285.46 0.21 285.39 0.28 285.39
									 C0.35 285.39 0.41 285.46 0.55 285.53 C0.69 285.59 0.83 285.66 0.97 285.8 C1.17 285.87 1.31 286.01
									 1.59 286.08 C1.87 286.15 2.07 286.22 2.35 286.22 C2.56 286.22 2.7 286.22 2.9 286.15 C3.11 286.08
									 3.18 286.01 3.25 285.94 C3.39 285.87 3.46 285.73 3.52 285.66 C3.59 285.53 3.59 285.39 3.59 285.25
									 C3.59 285.04 3.52 284.97 3.46 284.77 L3.11 284.42 C2.9 284.28 2.83 284.21 2.56 284.14 C2.35
									 284.07 2.14 283.94 1.93 283.87 C1.73 283.73 1.52 283.66 1.31 283.59 C1.11 283.45 0.97 283.31
									 0.76 283.18 C0.55 282.97 0.48 282.83 0.41 282.55 C0.28 282.28 0.28 282.07 0.28 281.72 C0.28
									 281.38 0.35 280.96 0.48 280.76 C0.62 280.48 0.76 280.2 1.04 280 C1.31 279.79 1.52 279.72 1.87
									 279.58 C2.14 279.44 2.56 279.44 2.9 279.44 C3.11 279.44 3.25 279.44 3.46 279.51 C3.66 279.51
									 3.8 279.58 4.01 279.65 C4.22 279.72 4.28 279.79 4.42 279.86 C4.56 279.93 4.63 280 4.7 280 L4.77
									 280.14 C4.77 280.14 4.77 280.2 4.84 280.27 L4.84 281.17 C4.84 281.24 4.77 281.24 4.77 281.31
									 C4.77 281.31 4.7 281.38 4.63 281.38 C4.56 281.38 4.49 281.38 4.42 281.31 L4.08 281.1 C3.94 281.03
									 3.8 280.96 3.59 280.9 C3.39 280.83 3.25 280.83 2.97 280.83 C2.76 280.83 2.7 280.83 2.56 280.9
									 C2.42 280.96 2.28 281.03 2.28 281.1 C2.21 281.17 2.14 281.31 2.07 281.38 C2 281.52 2 281.66
									 2 281.66 C2 281.86 2.07 281.93 2.14 282.07 L2.49 282.42 C2.7 282.55 2.83 282.62 3.04 282.69
									 C3.25 282.76 3.46 282.9 3.66 282.97 C3.87 283.11 4.08 283.18 4.28 283.24 C4.49 283.38 4.63 283.52
									 4.84 283.66 C5.04 283.87 5.11 284 5.18 284.28 C5.18 284.28 5.25 284.56 5.25 284.9 Z"
								class="st22"/>
					</g>
					<path d="M5.25 284.9 C5.25 285.32 5.18 285.66 4.98 286.01 C4.77 286.35 4.63 286.56 4.35 286.77 C4.08 286.98 3.8
								 287.11 3.46 287.25 C3.11 287.39 2.7 287.46 2.28 287.46 C2 287.46 1.73 287.46 1.52 287.39 C1.31 287.32
								 1.11 287.25 0.9 287.18 C0.69 287.11 0.62 287.05 0.48 286.98 C0.35 286.91 0.28 286.84 0.21 286.77
								 C0.14 286.7 0.14 286.63 0.07 286.49 C0.07 286.35 0 286.22 0 286.08 L0 285.8 C0 285.73 -0 285.59
								 0.07 285.59 C0.07 285.53 0.14 285.53 0.14 285.46 C0.14 285.46 0.21 285.39 0.28 285.39 C0.35 285.39
								 0.41 285.46 0.55 285.53 C0.69 285.59 0.83 285.66 0.97 285.8 C1.17 285.87 1.31 286.01 1.59 286.08
								 C1.87 286.15 2.07 286.22 2.35 286.22 C2.56 286.22 2.7 286.22 2.9 286.15 C3.11 286.08 3.18 286.01
								 3.25 285.94 C3.39 285.87 3.46 285.73 3.52 285.66 C3.59 285.53 3.59 285.39 3.59 285.25 C3.59 285.04
								 3.52 284.97 3.46 284.77 L3.11 284.42 C2.9 284.28 2.83 284.21 2.56 284.14 C2.35 284.07 2.14 283.94
								 1.93 283.87 C1.73 283.73 1.52 283.66 1.31 283.59 C1.11 283.45 0.97 283.31 0.76 283.18 C0.55 282.97
								 0.48 282.83 0.41 282.55 C0.28 282.28 0.28 282.07 0.28 281.72 C0.28 281.38 0.35 280.96 0.48 280.76
								 C0.62 280.48 0.76 280.2 1.04 280 C1.31 279.79 1.52 279.72 1.87 279.58 C2.14 279.44 2.56 279.44 2.9
								 279.44 C3.11 279.44 3.25 279.44 3.46 279.51 C3.66 279.51 3.8 279.58 4.01 279.65 C4.22 279.72 4.28
								 279.79 4.42 279.86 C4.56 279.93 4.63 280 4.7 280 L4.77 280.14 C4.77 280.14 4.77 280.2 4.84 280.27
								 L4.84 281.17 C4.84 281.24 4.77 281.24 4.77 281.31 C4.77 281.31 4.7 281.38 4.63 281.38 C4.56 281.38
								 4.49 281.38 4.42 281.31 L4.08 281.1 C3.94 281.03 3.8 280.96 3.59 280.9 C3.39 280.83 3.25 280.83
								 2.97 280.83 C2.76 280.83 2.7 280.83 2.56 280.9 C2.42 280.96 2.28 281.03 2.28 281.1 C2.21 281.17
								 2.14 281.31 2.07 281.38 C2 281.52 2 281.66 2 281.66 C2 281.86 2.07 281.93 2.14 282.07 L2.49 282.42
								 C2.7 282.55 2.83 282.62 3.04 282.69 C3.25 282.76 3.46 282.9 3.66 282.97 C3.87 283.11 4.08 283.18
								 4.28 283.24 C4.49 283.38 4.63 283.52 4.84 283.66 C5.04 283.87 5.11 284 5.18 284.28 C5.18 284.28
								 5.25 284.56 5.25 284.9 Z" class="st23"/>
				</g>
			</g>
			<g id="shape1047-322" v:mID="1047" v:groupContext="groupContent">
				<v:textBlock v:margins="rect(0,0,0,0)" v:verticalAlign="0"/>
				<v:textRect cx="15.9628" cy="298.262" width="23.15" height="21.6036"/>
				<g id="shadow1047-323" v:groupContext="shadow" v:shadowOffsetX="0.3456" v:shadowOffsetY="-1.9728" v:shadowType="1"
						transform="matrix(1,0,0,1,0.3456,1.9728)" class="st21"/>
				<text x="5.41" y="295.56" class="st24" v:langID="1033"><v:paragraph v:horizAlign="1"/><v:tabList/>Azure<v:lf/><tspan
							x="8.22" dy="1.2em" class="st16">DNS</tspan></text>			</g>
		</g>
		<g id="shape1053-326" v:mID="1053" v:groupContext="shape" transform="translate(256.758,-44.1505) rotate(44.9592)">
			<title>Sheet.1053</title>
			<desc>Name resolution</desc>
			<v:textBlock v:margins="rect(4,4,4,4)"/>
			<v:textRect cx="36.5707" cy="296.036" width="80.31" height="0"/>
			<path d="M0 287.46 C8.63 287.46 16.69 287.46 24.61 287.46 C40.55 287.46 55.93 287.46 73.76 287.46" class="st17"/>
			<rect v:rectContext="textBkgnd" x="7.84794" y="291.236" width="57.4456" height="9.59985" class="st25"/>
			<text x="7.85" y="298.44" class="st20" v:langID="1033"><v:paragraph v:horizAlign="1"/><v:tabList/>Name resolution</text>		</g>
		<g id="shape1054-333" v:mID="1054" v:groupContext="shape" transform="translate(27.8666,-147.678)">
			<title>Internet white (opaque)</title>
			<desc>Internet</desc>
			<v:textBlock v:margins="rect(0,0,0,0)" v:verticalAlign="0"/>
			<v:textRect cx="20.9901" cy="304.226" width="61.72" height="24.1018"/>
			<path d="M35.41 287.46 L6.16 287.46 C2.76 287.46 0 284.73 0 281.38 C0 278.02 2.76 275.29 6.16 275.29 C6.4 275.29 6.64
						 275.31 6.89 275.34 C7.9 273.75 9.65 272.78 11.56 272.78 C12.08 272.78 12.6 272.86 13.11 273.01 C13.11 272.94
						 13.11 272.87 13.11 272.8 C13.11 268.86 16.35 265.65 20.33 265.65 C23.13 265.65 25.66 267.29 26.83 269.79
						 C27.87 269.21 29.03 268.9 30.23 268.9 C34.07 268.9 37.19 271.98 37.19 275.77 C37.19 276.14 37.15 276.52
						 37.09 276.9 C39.15 277.76 40.5 279.73 40.5 281.95 C40.5 284.51 38.72 286.7 36.25 287.31 L35.41 287.46 Z"
					class="st26"/>
			<text x="6.07" y="300.28" class="st27" v:langID="1033"><v:paragraph v:horizAlign="1"/><v:tabList/>Internet</text>		</g>
	</g>
</svg>
