<?xml version="1.0" encoding="UTF-8"?>
<svg xmlns="http://www.w3.org/2000/svg" xmlns:xlink="http://www.w3.org/1999/xlink" version="1.1" viewBox="0 0 712.8 396" width="800" height="444" style="max-width:100%;height:auto;">
  <!-- Generator: Adobe Illustrator 29.8.1, SVG Export Plug-In . SVG Version: 2.1.1 Build 2)  -->
  <defs>
    <style>
      .st0 {
        fill: #50e6ff;
      }

      .st1, .st2, .st3 {
        fill: #2f2f2f;
        font-size: 12px;
      }

      .st1, .st4 {
        font-family: SegoeUI-Bold, 'Segoe UI';
        font-weight: 700;
      }

      .st5 {
        fill: url(#linear-gradient2);
      }

      .st6 {
        fill: url(#linear-gradient1);
      }

      .st7 {
        fill: url(#linear-gradient9);
      }

      .st8 {
        fill: url(#linear-gradient3);
      }

      .st9 {
        fill: url(#linear-gradient6);
      }

      .st10 {
        fill: url(#linear-gradient8);
      }

      .st11 {
        fill: url(#linear-gradient7);
      }

      .st12 {
        fill: url(#linear-gradient5);
      }

      .st13 {
        fill: url(#linear-gradient4);
      }

      .st14 {
        fill: #fff1cc;
        opacity: .4;
      }

      .st15 {
        fill: #f5f3f2;
        opacity: .8;
      }

      .st16 {
        fill: #c3f1ff;
      }

      .st17 {
        stroke: #9d9f9f;
      }

      .st17, .st18, .st19 {
        fill: none;
      }

      .st17, .st18, .st19, .st20 {
        stroke-width: .2px;
      }

      .st21 {
        fill: url(#linear-gradient13);
      }

      .st22 {
        fill: url(#linear-gradient12);
      }

      .st23 {
        fill: url(#linear-gradient15);
      }

      .st24 {
        fill: url(#linear-gradient16);
      }

      .st25 {
        fill: url(#linear-gradient11);
      }

      .st26 {
        fill: url(#linear-gradient10);
      }

      .st27 {
        fill: url(#linear-gradient17);
      }

      .st28 {
        fill: url(#linear-gradient14);
      }

      .st29 {
        fill: #198ab3;
      }

      .st3, .st30 {
        font-family: SegoeUI, 'Segoe UI';
      }

      .st31 {
        fill: #0078d4;
      }

      .st18 {
        opacity: .5;
        stroke: #dfa626;
      }

      .st32, .st33 {
        fill: #212121;
      }

      .st34 {
        fill: #fcb24f;
        opacity: .1;
      }

      .st35 {
        fill: #3c3c41;
      }

      .st36 {
        fill: url(#linear-gradient19);
      }

      .st36, .st37, .st38, .Graphic_x0020_Style {
        opacity: .6;
      }

      .st37 {
        fill: url(#linear-gradient18);
      }

      .st38 {
        fill: url(#linear-gradient20);
      }

      .Graphic_x0020_Style {
        fill: url(#linear-gradient);
      }

      .st39 {
        fill: #9cebff;
      }

      .st40, .st20 {
        fill: #fff;
      }

      .st41 {
        fill: #f2f2f2;
      }

      .st42 {
        fill: #949494;
      }

      .st43 {
        fill: #53b1e0;
        opacity: 0;
      }

      .st33 {
        opacity: .3;
      }

      .st19 {
        stroke: #53b1e0;
      }

      .st20 {
        stroke: #8e8278;
      }

      .st44 {
        fill: #e8e8e8;
      }
    </style>
    <linearGradient id="linear-gradient" x1="521" y1="360" x2="532.9" y2="372" gradientUnits="userSpaceOnUse">
      <stop offset="0" stop-color="#212121" stop-opacity=".3"/>
      <stop offset=".2" stop-color="#181818" stop-opacity=".5"/>
      <stop offset="1" stop-color="#000"/>
    </linearGradient>
    <linearGradient id="linear-gradient1" x1="-474" y1="-203.4" x2="-474" y2="-188.7" gradientTransform="translate(564 -142.4) scale(1 -1)" gradientUnits="userSpaceOnUse">
      <stop offset="0" stop-color="#32bedd"/>
      <stop offset=".2" stop-color="#32caea"/>
      <stop offset=".4" stop-color="#32d2f2"/>
      <stop offset=".8" stop-color="#32d4f5"/>
    </linearGradient>
    <linearGradient id="linear-gradient2" x1="-139.5" y1="-344.1" x2="-139.5" y2="-332.3" xlink:href="#linear-gradient1"/>
    <linearGradient id="linear-gradient3" x1="-180.2" y1="-269" x2="-180.2" y2="-257.5" gradientTransform="translate(564 -142.4) scale(1 -1)" gradientUnits="userSpaceOnUse">
      <stop offset="0" stop-color="#0078d4"/>
      <stop offset=".8" stop-color="#5ea0ef"/>
    </linearGradient>
    <linearGradient id="linear-gradient4" x1="-180.2" y1="-273.5" x2="-180.2" y2="-269" gradientTransform="translate(564 -142.4) scale(1 -1)" gradientUnits="userSpaceOnUse">
      <stop offset=".2" stop-color="#ccc"/>
      <stop offset="1" stop-color="#707070"/>
    </linearGradient>
    <linearGradient id="linear-gradient5" x1="-185.4" y1="-273.8" x2="-185.4" y2="-262.2" xlink:href="#linear-gradient3"/>
    <linearGradient id="linear-gradient6" x1="-185.4" y1="-278.2" x2="-185.4" y2="-273.8" xlink:href="#linear-gradient4"/>
    <linearGradient id="linear-gradient7" x1="8.1" y1="-279.6" x2="8.1" y2="-268.1" xlink:href="#linear-gradient3"/>
    <linearGradient id="linear-gradient8" x1="8.1" y1="-284.1" x2="8.1" y2="-279.6" xlink:href="#linear-gradient4"/>
    <linearGradient id="linear-gradient9" x1="2.9" y1="-284.4" x2="2.9" y2="-272.8" xlink:href="#linear-gradient3"/>
    <linearGradient id="linear-gradient10" x1="2.9" y1="-288.8" x2="2.9" y2="-284.4" xlink:href="#linear-gradient4"/>
    <linearGradient id="linear-gradient11" x1="91.7" y1="-279.6" x2="91.7" y2="-268.1" xlink:href="#linear-gradient3"/>
    <linearGradient id="linear-gradient12" x1="91.7" y1="-284.1" x2="91.7" y2="-279.6" xlink:href="#linear-gradient4"/>
    <linearGradient id="linear-gradient13" x1="86.5" y1="-284.4" x2="86.5" y2="-272.8" xlink:href="#linear-gradient3"/>
    <linearGradient id="linear-gradient14" x1="86.5" y1="-288.8" x2="86.5" y2="-284.4" xlink:href="#linear-gradient4"/>
    <linearGradient id="linear-gradient15" x1="-185" y1="-205" x2="-171.6" y2="-205" gradientTransform="translate(564 -142.4) scale(1 -1)" gradientUnits="userSpaceOnUse">
      <stop offset="0" stop-color="#005ba1"/>
      <stop offset="0" stop-color="#0060a9"/>
      <stop offset=".4" stop-color="#0071c8"/>
      <stop offset=".5" stop-color="#0078d4"/>
      <stop offset=".6" stop-color="#0074cd"/>
      <stop offset=".8" stop-color="#006abb"/>
      <stop offset="1" stop-color="#005ba1"/>
    </linearGradient>
    <linearGradient id="linear-gradient16" x1="-1.8" y1="-221.7" x2="11.6" y2="-221.7" xlink:href="#linear-gradient15"/>
    <linearGradient id="linear-gradient17" x1="81.8" y1="-221.7" x2="95.2" y2="-221.7" xlink:href="#linear-gradient15"/>
    <linearGradient id="linear-gradient18" x1="507.7" y1="269.1" x2="519.7" y2="281.1" xlink:href="#linear-gradient"/>
    <linearGradient id="linear-gradient19" x1="507.7" y1="245.1" x2="519.7" y2="257" xlink:href="#linear-gradient"/>
    <linearGradient id="linear-gradient20" x1="507.7" y1="221.1" x2="519.7" y2="233" xlink:href="#linear-gradient"/>
  </defs>
  <g id="Shapes">
    <rect class="st40" width="712.8" height="396"/>
    <rect class="st20" x="338.8" y="176" width="365.2" height="145.2"/>
    <g>
      <rect class="st40" x="523.8" y="8.8" width="180.4" height="162.8"/>
      <rect class="st15" x="523.8" y="8.8" width="180.4" height="162.8"/>
      <rect class="st17" x="523.8" y="8.8" width="180.4" height="162.8"/>
    </g>
    <g>
      <rect class="st40" x="532.6" y="52.8" width="162.8" height="52.1"/>
      <rect class="st14" x="532.6" y="52.8" width="162.8" height="52.1"/>
      <rect class="st18" x="532.6" y="52.8" width="162.8" height="52.1"/>
    </g>
    <g>
      <rect class="st40" x="532.6" y="110" width="162.8" height="52.1"/>
      <rect class="st14" x="532.6" y="110" width="162.8" height="52.1"/>
      <rect class="st18" x="532.6" y="110" width="162.8" height="52.1"/>
    </g>
    <g>
      <rect class="st40" x="415.5" y="219.2" width="76.9" height="87.4"/>
      <rect class="st34" x="415.5" y="219.2" width="76.9" height="87.4"/>
    </g>
    <g>
      <rect class="st40" x="8.8" y="70.3" width="162.4" height="101.2"/>
      <rect class="st43" x="8.8" y="70.3" width="162.4" height="101.2"/>
      <rect class="st19" x="8.8" y="70.3" width="162.4" height="101.2"/>
    </g>
    <g>
      <rect class="st40" x="176" y="8.8" width="158.4" height="162.8"/>
      <rect class="st43" x="176" y="8.8" width="158.4" height="162.8"/>
      <rect class="st19" x="176" y="8.8" width="158.4" height="162.8"/>
    </g>
    <g>
      <rect class="st40" x="176" y="176" width="158.4" height="145.2"/>
      <rect class="st43" x="176" y="176" width="158.4" height="145.2"/>
      <rect class="st19" x="176" y="176" width="158.4" height="145.2"/>
    </g>
    <g>
      <rect class="st40" x="338.8" y="8.8" width="180.4" height="162.8"/>
      <rect class="st15" x="338.8" y="8.8" width="180.4" height="162.8"/>
      <rect class="st17" x="338.8" y="8.8" width="180.4" height="162.8"/>
    </g>
    <rect class="st20" x="338.8" y="325.6" width="365.2" height="61.6"/>
    <g>
      <rect class="st40" x="347.6" y="105.6" width="162.8" height="57.2"/>
      <rect class="st14" x="347.6" y="105.6" width="162.8" height="57.2"/>
      <rect class="st18" x="347.6" y="105.6" width="162.8" height="57.2"/>
    </g>
    <g>
      <rect class="st40" x="347.6" y="44" width="162.8" height="57.2"/>
      <rect class="st14" x="347.6" y="44" width="162.8" height="57.2"/>
      <rect class="st18" x="347.6" y="44" width="162.8" height="57.2"/>
    </g>
    <g>
      <rect class="st40" x="8.8" y="176.2" width="162.4" height="145"/>
      <rect class="st43" x="8.8" y="176.2" width="162.4" height="145"/>
      <rect class="st19" x="8.8" y="176.2" width="162.4" height="145"/>
    </g>
    <g>
      <path class="st6" d="M77.6,46.3h24.9v13.9c0,.5-.4.8-.8.8h-23.2c-.5,0-.8-.4-.8-.8v-13.9Z"/>
      <path class="st29" d="M78.4,41h23.2c.5,0,.8.4.8.8v4.5h-24.9v-4.5c0-.5.4-.8.8-.8Z"/>
      <path class="st40" d="M81,47.9h18.1c.2,0,.4.2.4.4h0v2c0,.2-.2.4-.4.4h-18.1c-.2,0-.4-.2-.4-.4v-2c0-.2.2-.4.4-.4Z"/>
      <path class="st39" d="M81,52h18.1c.2,0,.4.2.4.4h0v2.1c0,.2-.2.4-.4.4h-18.1c-.2,0-.4-.2-.4-.4,0,0,0,0,0,0v-2c0-.2,0-.4.3-.5,0,0,0,0,0,0Z"/>
      <path class="st39" d="M81,56.1h18.1c.2,0,.4.2.4.4h0v2.1c0,.2-.2.4-.4.4h-18.1c-.2,0-.4-.2-.4-.4,0,0,0,0,0,0v-2.1c0-.2.2-.4.4-.4,0,0,0,0,0,0Z"/>
      <path id="ae090ab3-6849-4f1b-8ada-ca4d90aafe4f" class="st31" d="M84.3,49.3v8.2c0,.2.2.4.4.4h3.4c.2,0,.4-.2.4-.4v-4.9c0-.2.2-.4.4-.4,0,0,0,0,0,0h2.1c.2,0,.4.2.4.4,0,0,0,0,0,0v4.9c0,.2.2.4.4.4,0,0,0,0,0,0h3.4c.2,0,.4-.2.4-.4v-8.2c0-.2-.2-.4-.4-.4h-10.6c-.2,0-.4.2-.4.4Z"/>
    </g>
    <g>
      <path class="st5" d="M414.5,189.9h19.9v11.1c0,.4-.3.7-.7.7h-18.6c-.4,0-.7-.3-.7-.7v-11.1Z"/>
      <path class="st29" d="M415.2,185.7h18.6c.4,0,.7.3.7.7v3.6h-19.9v-3.6c0-.4.3-.7.7-.7Z"/>
      <path class="st40" d="M417.2,191.2h14.5c.2,0,.3.1.3.3h0v1.6c0,.2-.1.3-.3.3h-14.5c-.2,0-.3-.1-.3-.3v-1.6c0-.2.1-.3.3-.3Z"/>
      <path class="st39" d="M417.2,194.5h14.5c.2,0,.3.1.3.3h0v1.7c0,.2-.1.3-.3.3h-14.5c-.2,0-.3-.1-.3-.3,0,0,0,0,0,0v-1.6c0-.2,0-.3.2-.4,0,0,0,0,0,0Z"/>
      <path class="st39" d="M417.2,197.8h14.5c.2,0,.3.1.3.3h0v1.7c0,.2-.1.3-.3.3h-14.5c-.2,0-.3-.1-.3-.3,0,0,0,0,0,0v-1.7c0-.2.1-.3.3-.3,0,0,0,0,0,0Z"/>
      <path id="ae090ab3-6849-4f1b-8ada-ca4d90aafe4f1" data-name="ae090ab3-6849-4f1b-8ada-ca4d90aafe4f" class="st31" d="M419.9,192.3v6.5c0,.2.1.3.3.3h2.8c.2,0,.3-.2.3-.3v-3.9c0-.2.1-.3.3-.3,0,0,0,0,0,0h1.7c.2,0,.3.1.3.3,0,0,0,0,0,0v3.9c0,.2.1.3.3.3,0,0,0,0,0,0h2.8c.2,0,.3-.1.3-.3v-6.5c0-.2-.1-.3-.3-.3h-8.5c-.2,0-.3.1-.3.3Z"/>
    </g>
    <g>
      <g>
        <rect class="st8" x="375.1" y="115.1" width="17.3" height="11.5" rx=".6" ry=".6"/>
        <polygon class="st0" points="386.7 119.2 386.7 122.5 383.8 124.2 383.8 120.9 386.7 119.2"/>
        <polygon class="st16" points="386.7 119.2 383.8 120.9 380.9 119.2 383.8 117.5 386.7 119.2"/>
        <polygon class="st39" points="383.8 120.9 383.8 124.2 380.9 122.5 380.9 119.2 383.8 120.9"/>
        <polygon class="st16" points="380.9 122.5 383.8 120.9 383.8 124.2 380.9 122.5"/>
        <polygon class="st39" points="386.7 122.5 383.8 120.9 383.8 124.2 386.7 122.5"/>
        <path class="st13" d="M387.2,130.1c-1.7-.3-1.8-1.5-1.8-3.5h-3.4c0,2,0,3.2-1.8,3.5-.5,0-.9.5-.9,1h8.7c0-.5-.4-.9-.9-1Z"/>
      </g>
      <g>
        <rect class="st12" x="369.9" y="119.8" width="17.3" height="11.5" rx=".6" ry=".6"/>
        <polygon class="st0" points="381.4 123.9 381.4 127.3 378.6 128.9 378.6 125.6 381.4 123.9"/>
        <polygon class="st16" points="381.4 123.9 378.6 125.6 375.7 123.9 378.6 122.2 381.4 123.9"/>
        <polygon class="st39" points="378.6 125.6 378.6 128.9 375.7 127.3 375.7 123.9 378.6 125.6"/>
        <polygon class="st16" points="375.7 127.3 378.6 125.6 378.6 128.9 375.7 127.3"/>
        <polygon class="st39" points="381.4 127.3 378.6 125.6 378.6 128.9 381.4 127.3"/>
        <path class="st9" d="M382,134.8c-1.7-.3-1.8-1.5-1.8-3.5h-3.4c0,2,0,3.2-1.8,3.5-.5,0-.9.5-.9,1h8.7c0-.5-.4-.9-.9-1Z"/>
      </g>
    </g>
    <g>
      <g>
        <rect class="st11" x="563.5" y="125.7" width="17.3" height="11.5" rx=".6" ry=".6"/>
        <polygon class="st0" points="575 129.8 575 133.1 572.1 134.8 572.1 131.5 575 129.8"/>
        <polygon class="st16" points="575 129.8 572.1 131.5 569.3 129.8 572.1 128.1 575 129.8"/>
        <polygon class="st39" points="572.1 131.5 572.1 134.8 569.3 133.1 569.3 129.8 572.1 131.5"/>
        <polygon class="st16" points="569.3 133.1 572.1 131.5 572.1 134.8 569.3 133.1"/>
        <polygon class="st39" points="575 133.1 572.1 131.5 572.1 134.8 575 133.1"/>
        <path class="st10" d="M575.6,140.7c-1.7-.3-1.8-1.5-1.8-3.5h-3.4c0,2,0,3.2-1.8,3.5-.5,0-.9.5-.9,1h8.7c0-.5-.4-.9-.9-1Z"/>
      </g>
      <g>
        <rect class="st7" x="558.3" y="130.4" width="17.3" height="11.5" rx=".6" ry=".6"/>
        <polygon class="st0" points="569.8 134.5 569.8 137.9 566.9 139.6 566.9 136.2 569.8 134.5"/>
        <polygon class="st16" points="569.8 134.5 566.9 136.2 564 134.5 566.9 132.8 569.8 134.5"/>
        <polygon class="st39" points="566.9 136.2 566.9 139.6 564 137.9 564 134.5 566.9 136.2"/>
        <polygon class="st16" points="564 137.9 566.9 136.2 566.9 139.6 564 137.9"/>
        <polygon class="st39" points="569.8 137.9 566.9 136.2 566.9 139.6 569.8 137.9"/>
        <path class="st26" d="M570.4,145.5c-1.7-.3-1.8-1.5-1.8-3.5h-3.4c0,2,0,3.2-1.8,3.5-.5,0-.9.5-.9,1h8.7c0-.5-.4-.9-.9-1Z"/>
      </g>
    </g>
    <g>
      <g>
        <rect class="st25" x="647.1" y="125.7" width="17.3" height="11.5" rx=".6" ry=".6"/>
        <polygon class="st0" points="658.6 129.8 658.6 133.1 655.7 134.8 655.7 131.5 658.6 129.8"/>
        <polygon class="st16" points="658.6 129.8 655.7 131.5 652.9 129.8 655.7 128.1 658.6 129.8"/>
        <polygon class="st39" points="655.7 131.5 655.7 134.8 652.9 133.1 652.9 129.8 655.7 131.5"/>
        <polygon class="st16" points="652.9 133.1 655.7 131.5 655.7 134.8 652.9 133.1"/>
        <polygon class="st39" points="658.6 133.1 655.7 131.5 655.7 134.8 658.6 133.1"/>
        <path class="st22" d="M659.2,140.7c-1.7-.3-1.8-1.5-1.8-3.5h-3.4c0,2,0,3.2-1.8,3.5-.5,0-.9.5-.9,1h8.7c0-.5-.4-.9-.9-1Z"/>
      </g>
      <g>
        <rect class="st21" x="641.9" y="130.4" width="17.3" height="11.5" rx=".6" ry=".6"/>
        <polygon class="st0" points="653.4 134.5 653.4 137.9 650.5 139.6 650.5 136.2 653.4 134.5"/>
        <polygon class="st16" points="653.4 134.5 650.5 136.2 647.6 134.5 650.5 132.8 653.4 134.5"/>
        <polygon class="st39" points="650.5 136.2 650.5 139.6 647.6 137.9 647.6 134.5 650.5 136.2"/>
        <polygon class="st16" points="647.6 137.9 650.5 136.2 650.5 139.6 647.6 137.9"/>
        <polygon class="st39" points="653.4 137.9 650.5 136.2 650.5 139.6 653.4 137.9"/>
        <path class="st28" d="M654,145.5c-1.7-.3-1.8-1.5-1.8-3.5h-3.4c0,2,0,3.2-1.8,3.5-.5,0-.9.5-.9,1h8.7c0-.5-.4-.9-.9-1Z"/>
      </g>
    </g>
    <g>
      <path class="st23" d="M385.7,57.3c-3.7,0-6.7-1.1-6.7-2.4v12.9c0,1.3,2.9,2.4,6.6,2.4h0c3.7,0,6.7-1.1,6.7-2.4v-12.9c0,1.3-3,2.4-6.7,2.4Z"/>
      <path class="st44" d="M392.4,54.9c0,1.3-3,2.4-6.7,2.4s-6.7-1.1-6.7-2.4,3-2.4,6.7-2.4,6.7,1.1,6.7,2.4"/>
      <path class="st0" d="M390.9,54.7c0,.9-2.3,1.5-5.1,1.5s-5.1-.7-5.1-1.5,2.3-1.5,5.1-1.5,5.1.7,5.1,1.5"/>
      <path class="st29" d="M385.7,55.1c-1.4,0-2.7.2-4.1.6,1.3.4,2.7.6,4.1.6,1.4,0,2.8-.2,4.1-.6-1.3-.4-2.7-.6-4.1-.6Z"/>
      <path class="st41" d="M389.8,63.7v-3.6h-1v4.4h2.6v-.8h-1.6ZM382.3,61.9c-.2,0-.4-.2-.5-.3,0,0-.1-.2,0-.3,0-.1,0-.3.2-.3.1,0,.3-.1.4-.1.4,0,.7,0,1.1.3v-.9c-.3-.1-.7-.2-1.1-.2-.5,0-.9,0-1.3.4-.3.2-.4.6-.4,1,0,.5.3,1,1.1,1.3.2,0,.4.2.6.4.1,0,.2.2.2.3,0,.1,0,.3-.2.3-.1,0-.3.1-.5.1-.4,0-.9-.2-1.2-.5v1c.4.2.7.3,1.1.2.4,0,.9,0,1.2-.3.3-.2.5-.6.5-1,0-.3,0-.5-.3-.7-.3-.3-.6-.5-.9-.6ZM387.8,63.6c.2-.4.4-.9.3-1.3,0-.4,0-.8-.3-1.2-.2-.3-.4-.6-.7-.8-.3-.2-.7-.3-1.1-.3-.4,0-.8,0-1.2.3-.3.2-.6.5-.8.8-.2.4-.3.8-.3,1.2,0,.4,0,.8.3,1.1.2.3.4.6.7.8.3.2.7.3,1.1.3l.9,1.1h1.3l-1.3-1.2c.4-.2.8-.4,1-.8ZM386.8,63.3c-.4.4-1,.5-1.5.1,0,0,0,0-.1-.1-.2-.3-.3-.7-.3-1.1,0-.4,0-.8.3-1.1.2-.3.5-.4.8-.4.3,0,.6.1.8.4.2.3.3.7.3,1.1,0,.4,0,.8-.3,1.1h0Z"/>
      <path class="st42" d="M394.1,70.4l.3-.8.5-.3.9.4.5-.6h0c0,0-.4-.8-.4-.8l.2-.5.9-.3h0v-.8h-.1l-.8-.3-.3-.5.4-.9-.6-.5h0l-.7.4-.5-.3-.3-.9h-.8c0,.1-.3,1-.3,1l-.5.2-.9-.4-.5.6h0c0,.1.4.9.4.9l-.2.5-1,.3v.8h.1l.8.3.2.5-.4.9.6.5h0c0,0,.8-.5.8-.5l.5.2.4.9h.8ZM392.9,67.9c-.4-.4-.5-1.1,0-1.6.4-.4,1.1-.5,1.6,0h0c.4.4.5,1.1,0,1.6s-1.1.5-1.6,0h0Z"/>
    </g>
    <g>
      <path class="st24" d="M568.9,74c-3.7,0-6.7-1.1-6.7-2.4v12.9c0,1.3,2.9,2.4,6.6,2.4h0c3.7,0,6.7-1.1,6.7-2.4v-12.9c0,1.3-3,2.4-6.7,2.4Z"/>
      <path class="st44" d="M575.6,71.6c0,1.3-3,2.4-6.7,2.4s-6.7-1.1-6.7-2.4,3-2.4,6.7-2.4,6.7,1.1,6.7,2.4"/>
      <path class="st0" d="M574,71.4c0,.9-2.3,1.5-5.1,1.5s-5.1-.7-5.1-1.5,2.3-1.5,5.1-1.5,5.1.7,5.1,1.5"/>
      <path class="st29" d="M568.9,71.8c-1.4,0-2.7.2-4.1.6,1.3.4,2.7.6,4.1.6,1.4,0,2.8-.2,4.1-.6-1.3-.4-2.7-.6-4.1-.6Z"/>
      <path class="st41" d="M573,80.4v-3.6h-1v4.4h2.6v-.8h-1.6ZM565.5,78.6c-.2,0-.4-.2-.5-.3,0,0-.1-.2,0-.3,0-.1,0-.3.2-.3.1,0,.3-.1.4-.1.4,0,.7,0,1.1.3v-.9c-.3-.1-.7-.2-1.1-.2-.5,0-.9,0-1.3.4-.3.2-.4.6-.4,1,0,.5.3,1,1.1,1.3.2,0,.4.2.6.4.1,0,.2.2.2.3,0,.1,0,.3-.2.3-.1,0-.3.1-.5.1-.4,0-.9-.2-1.2-.5v1c.4.2.7.3,1.1.2.4,0,.9,0,1.2-.3.3-.2.5-.6.5-1,0-.3,0-.5-.3-.7-.3-.3-.6-.5-.9-.6ZM571,80.3c.2-.4.4-.9.3-1.3,0-.4,0-.8-.3-1.2-.2-.3-.4-.6-.7-.8-.3-.2-.7-.3-1.1-.3-.4,0-.8,0-1.2.3-.3.2-.6.5-.8.8-.2.4-.3.8-.3,1.2,0,.4,0,.8.3,1.1.2.3.4.6.7.8.3.2.7.3,1.1.3l.9,1.1h1.3l-1.3-1.2c.4-.2.8-.4,1-.8ZM570,80c-.4.4-1,.5-1.5.1,0,0,0,0-.1-.1-.2-.3-.3-.7-.3-1.1,0-.4,0-.8.3-1.1.2-.3.5-.4.8-.4.3,0,.6.1.8.4.2.3.3.7.3,1.1,0,.4,0,.8-.3,1.1h0Z"/>
      <path class="st42" d="M577.3,87.1l.3-.8.5-.3.9.4.5-.6h0c0,0-.4-.8-.4-.8l.2-.5.9-.3h0v-.8h-.1l-.8-.3-.3-.5.4-.9-.6-.5h0l-.7.4-.5-.3-.3-.9h-.8c0,.1-.3,1-.3,1l-.5.2-.9-.4-.5.6h0c0,.1.4.9.4.9l-.2.5-1,.3v.8h.1l.8.3.2.5-.4.9.6.5h0c0,0,.8-.5.8-.5l.5.2.4.9h.8ZM576.1,84.6c-.4-.4-.5-1.1,0-1.6.4-.4,1.1-.5,1.6,0h0c.4.4.5,1.1,0,1.6s-1.1.5-1.6,0h0Z"/>
    </g>
    <g>
      <path class="st27" d="M652.5,74c-3.7,0-6.7-1.1-6.7-2.4v12.9c0,1.3,2.9,2.4,6.6,2.4h0c3.7,0,6.7-1.1,6.7-2.4v-12.9c0,1.3-3,2.4-6.7,2.4Z"/>
      <path class="st44" d="M659.2,71.6c0,1.3-3,2.4-6.7,2.4s-6.7-1.1-6.7-2.4,3-2.4,6.7-2.4,6.7,1.1,6.7,2.4"/>
      <path class="st0" d="M657.6,71.4c0,.9-2.3,1.5-5.1,1.5s-5.1-.7-5.1-1.5,2.3-1.5,5.1-1.5,5.1.7,5.1,1.5"/>
      <path class="st29" d="M652.5,71.8c-1.4,0-2.7.2-4.1.6,1.3.4,2.7.6,4.1.6,1.4,0,2.8-.2,4.1-.6-1.3-.4-2.7-.6-4.1-.6Z"/>
      <path class="st41" d="M656.6,80.4v-3.6h-1v4.4h2.6v-.8h-1.6ZM649.1,78.6c-.2,0-.4-.2-.5-.3,0,0-.1-.2,0-.3,0-.1,0-.3.2-.3.1,0,.3-.1.4-.1.4,0,.7,0,1.1.3v-.9c-.3-.1-.7-.2-1.1-.2-.5,0-.9,0-1.3.4-.3.2-.4.6-.4,1,0,.5.3,1,1.1,1.3.2,0,.4.2.6.4.1,0,.2.2.2.3,0,.1,0,.3-.2.3-.1,0-.3.1-.5.1-.4,0-.9-.2-1.2-.5v1c.4.2.7.3,1.1.2.4,0,.9,0,1.2-.3.3-.2.5-.6.5-1,0-.3,0-.5-.3-.7-.3-.3-.6-.5-.9-.6ZM654.6,80.3c.2-.4.4-.9.3-1.3,0-.4,0-.8-.3-1.2-.2-.3-.4-.6-.7-.8-.3-.2-.7-.3-1.1-.3-.4,0-.8,0-1.2.3-.3.2-.6.5-.8.8-.2.4-.3.8-.3,1.2,0,.4,0,.8.3,1.1.2.3.4.6.7.8.3.2.7.3,1.1.3l.9,1.1h1.3l-1.3-1.2c.4-.2.8-.4,1-.8ZM653.6,80c-.4.4-1,.5-1.5.1,0,0,0,0-.1-.1-.2-.3-.3-.7-.3-1.1,0-.4,0-.8.3-1.1.2-.3.5-.4.8-.4.3,0,.6.1.8.4.2.3.3.7.3,1.1,0,.4,0,.8-.3,1.1h0Z"/>
      <path class="st42" d="M660.9,87.1l.3-.8.5-.3.9.4.5-.6h0c0,0-.4-.8-.4-.8l.2-.5.9-.3h0v-.8h-.1l-.8-.3-.3-.5.4-.9-.6-.5h0l-.7.4-.5-.3-.3-.9h-.8c0,.1-.3,1-.3,1l-.5.2-.9-.4-.5.6h0c0,.1.4.9.4.9l-.2.5-1,.3v.8h.1l.8.3.2.5-.4.9.6.5h0c0,0,.8-.5.8-.5l.5.2.4.9h.8ZM659.7,84.6c-.4-.4-.5-1.1,0-1.6.4-.4,1.1-.5,1.6,0h0c.4.4.5,1.1,0,1.6s-1.1.5-1.6,0h0Z"/>
    </g>
    <g>
      <rect class="st35" x="584.7" y="135.6" width="1.5" height="1"/>
      <path class="st35" d="M633,136.6h-2.9v-1h2.9v1ZM627.2,136.6h-2.9v-1h2.9v1ZM621.3,136.6h-2.9v-1h2.9v1ZM615.5,136.6h-2.9v-1h2.9v1ZM609.6,136.6h-2.9v-1h2.9v1ZM603.7,136.6h-2.9v-1h2.9v1ZM597.9,136.6h-2.9v-1h2.9v1ZM592,136.6h-2.9v-1h2.9v1Z"/>
      <rect class="st35" x="636" y="135.6" width="1.5" height="1"/>
    </g>
    <g>
      <rect class="st35" x="411.7" y="226.2" width="1.5" height="1"/>
      <path class="st35" d="M498,227.2h-3v-1h3v1ZM491.9,227.2h-3v-1h3v1ZM485.8,227.2h-3v-1h3v1ZM479.8,227.2h-3v-1h3v1ZM473.7,227.2h-3v-1h3v1ZM467.7,227.2h-3v-1h3v1ZM461.6,227.2h-3v-1h3v1ZM455.6,227.2h-3v-1h3v1ZM449.5,227.2h-3v-1h3v1ZM443.4,227.2h-3v-1h3v1ZM437.4,227.2h-3v-1h3v1ZM431.3,227.2h-3v-1h3v1ZM425.3,227.2h-3v-1h3v1ZM419.2,227.2h-3v-1h3v1Z"/>
      <rect class="st35" x="501" y="226.2" width="1.5" height="1"/>
    </g>
    <g>
      <rect class="st35" x="411.7" y="250.8" width="1.5" height="1"/>
      <path class="st35" d="M498,251.8h-3v-1h3v1ZM491.9,251.8h-3v-1h3v1ZM485.8,251.8h-3v-1h3v1ZM479.8,251.8h-3v-1h3v1ZM473.7,251.8h-3v-1h3v1ZM467.7,251.8h-3v-1h3v1ZM461.6,251.8h-3v-1h3v1ZM455.6,251.8h-3v-1h3v1ZM449.5,251.8h-3v-1h3v1ZM443.4,251.8h-3v-1h3v1ZM437.4,251.8h-3v-1h3v1ZM431.3,251.8h-3v-1h3v1ZM425.3,251.8h-3v-1h3v1ZM419.2,251.8h-3v-1h3v1Z"/>
      <rect class="st35" x="501" y="250.8" width="1.5" height="1"/>
    </g>
    <g>
      <rect class="st35" x="411.7" y="275.1" width="1.5" height="1"/>
      <path class="st35" d="M498,276.1h-3v-1h3v1ZM491.9,276.1h-3v-1h3v1ZM485.8,276.1h-3v-1h3v1ZM479.8,276.1h-3v-1h3v1ZM473.7,276.1h-3v-1h3v1ZM467.7,276.1h-3v-1h3v1ZM461.6,276.1h-3v-1h3v1ZM455.6,276.1h-3v-1h3v1ZM449.5,276.1h-3v-1h3v1ZM443.4,276.1h-3v-1h3v1ZM437.4,276.1h-3v-1h3v1ZM431.3,276.1h-3v-1h3v1ZM425.3,276.1h-3v-1h3v1ZM419.2,276.1h-3v-1h3v1Z"/>
      <rect class="st35" x="501" y="275.1" width="1.5" height="1"/>
    </g>
    <g>
      <rect class="st35" x="411.7" y="300.6" width="1.5" height="1"/>
      <path class="st35" d="M498,301.6h-3v-1h3v1ZM491.9,301.6h-3v-1h3v1ZM485.8,301.6h-3v-1h3v1ZM479.8,301.6h-3v-1h3v1ZM473.7,301.6h-3v-1h3v1ZM467.7,301.6h-3v-1h3v1ZM461.6,301.6h-3v-1h3v1ZM455.6,301.6h-3v-1h3v1ZM449.5,301.6h-3v-1h3v1ZM443.4,301.6h-3v-1h3v1ZM437.4,301.6h-3v-1h3v1ZM431.3,301.6h-3v-1h3v1ZM425.3,301.6h-3v-1h3v1ZM419.2,301.6h-3v-1h3v1Z"/>
      <rect class="st35" x="501" y="300.6" width="1.5" height="1"/>
    </g>
    <g>
      <rect class="st35" x="579.7" y="77.7" width="1.5" height="1"/>
      <path class="st35" d="M636.9,78.7h-3.1v-1h3.1v1ZM630.7,78.7h-3.1v-1h3.1v1ZM624.5,78.7h-3.1v-1h3.1v1ZM618.3,78.7h-3.1v-1h3.1v1ZM612.1,78.7h-3.1v-1h3.1v1ZM605.9,78.7h-3.1v-1h3.1v1ZM599.7,78.7h-3.1v-1h3.1v1ZM593.5,78.7h-3.1v-1h3.1v1ZM587.4,78.7h-3.1v-1h3.1v1Z"/>
      <rect class="st35" x="640" y="77.7" width="1.5" height="1"/>
    </g>
    <path class="st32" d="M393.2,294.3c0-.6.3-1,.6-1.4.4-.4.9-.7,1.4-1,1.1-.5,2.7-.8,4.3-.8s3.2.3,4.3.8c.6.3,1.1.6,1.4,1,.4.4.6.9.6,1.4v9.6c0,.6-.3,1-.6,1.4-.4.4-.9.7-1.4,1-1.1.5-2.7.8-4.3.8s-3.2-.3-4.3-.8c-.6-.3-1.1-.6-1.4-1-.4-.4-.6-.9-.6-1.4v-9.6ZM394.4,294.3c0,.2,0,.4.3.6.2.2.6.5,1.1.7,1,.4,2.3.7,3.9.7s2.9-.3,3.9-.7c.5-.2.8-.5,1.1-.7.2-.2.3-.4.3-.6s0-.4-.3-.6c-.2-.2-.6-.5-1.1-.7-1-.4-2.3-.7-3.9-.7s-2.9.3-3.9.7c-.5.2-.8.5-1.1.7-.2.2-.3.4-.3.6ZM404.8,296.2c-.3.2-.5.3-.9.5-1.1.5-2.7.8-4.3.8s-3.2-.3-4.3-.8c-.3-.1-.6-.3-.9-.5v7.7c0,.2,0,.4.3.6.2.2.6.5,1.1.7,1,.4,2.3.7,3.9.7s2.9-.3,3.9-.7c.5-.2.8-.5,1.1-.7.2-.2.3-.4.3-.6v-7.7Z"/>
    <path class="st32" d="M672.1,222.3c0-.6.3-1,.6-1.4.4-.4.9-.7,1.4-1,1.1-.5,2.7-.8,4.3-.8s3.2.3,4.3.8c.6.3,1.1.6,1.4,1,.4.4.6.9.6,1.4v9.6c0,.6-.3,1-.6,1.4-.4.4-.9.7-1.4,1-1.1.5-2.7.8-4.3.8s-3.2-.3-4.3-.8c-.6-.3-1.1-.6-1.4-1-.4-.4-.6-.9-.6-1.4v-9.6ZM673.3,222.3c0,.2,0,.4.3.6.2.2.6.5,1.1.7,1,.4,2.3.7,3.9.7s2.9-.3,3.9-.7c.5-.2.8-.5,1.1-.7.2-.2.3-.4.3-.6s0-.4-.3-.6c-.2-.2-.6-.5-1.1-.7-1-.4-2.3-.7-3.9-.7s-2.9.3-3.9.7c-.5.2-.8.5-1.1.7-.2.2-.3.4-.3.6ZM683.7,224.2c-.3.2-.5.3-.9.5-1.1.5-2.7.8-4.3.8s-3.2-.3-4.3-.8c-.3-.1-.6-.3-.9-.5v7.7c0,.2,0,.4.3.6.2.2.6.5,1.1.7,1,.4,2.3.7,3.9.7s2.9-.3,3.9-.7c.5-.2.8-.5,1.1-.7.2-.2.3-.4.3-.6v-7.7Z"/>
    <path class="st32" d="M672.1,246.1c0-.6.3-1,.6-1.4.4-.4.9-.7,1.4-1,1.1-.5,2.7-.8,4.3-.8s3.2.3,4.3.8c.6.3,1.1.6,1.4,1,.4.4.6.9.6,1.4v9.6c0,.6-.3,1-.6,1.4-.4.4-.9.7-1.4,1-1.1.5-2.7.8-4.3.8s-3.2-.3-4.3-.8c-.6-.3-1.1-.6-1.4-1-.4-.4-.6-.9-.6-1.4v-9.6ZM673.3,246.1c0,.2,0,.4.3.6.2.2.6.5,1.1.7,1,.4,2.3.7,3.9.7s2.9-.3,3.9-.7c.5-.2.8-.5,1.1-.7.2-.2.3-.4.3-.6s0-.4-.3-.6c-.2-.2-.6-.5-1.1-.7-1-.4-2.3-.7-3.9-.7s-2.9.3-3.9.7c-.5.2-.8.5-1.1.7-.2.2-.3.4-.3.6ZM683.7,248c-.3.2-.5.3-.9.5-1.1.5-2.7.8-4.3.8s-3.2-.3-4.3-.8c-.3-.1-.6-.3-.9-.5v7.7c0,.2,0,.4.3.6.2.2.6.5,1.1.7,1,.4,2.3.7,3.9.7s2.9-.3,3.9-.7c.5-.2.8-.5,1.1-.7.2-.2.3-.4.3-.6v-7.7Z"/>
    <path class="st32" d="M672.1,270c0-.6.3-1,.6-1.4.4-.4.9-.7,1.4-1,1.1-.5,2.7-.8,4.3-.8s3.2.3,4.3.8c.6.3,1.1.6,1.4,1,.4.4.6.9.6,1.4v9.6c0,.6-.3,1-.6,1.4-.4.4-.9.7-1.4,1-1.1.5-2.7.8-4.3.8s-3.2-.3-4.3-.8c-.6-.3-1.1-.6-1.4-1-.4-.4-.6-.9-.6-1.4v-9.6ZM673.3,270c0,.2,0,.4.3.6.2.2.6.5,1.1.7,1,.4,2.3.7,3.9.7s2.9-.3,3.9-.7c.5-.2.8-.5,1.1-.7.2-.2.3-.4.3-.6s0-.4-.3-.6c-.2-.2-.6-.5-1.1-.7-1-.4-2.3-.7-3.9-.7s-2.9.3-3.9.7c-.5.2-.8.5-1.1.7-.2.2-.3.4-.3.6ZM683.7,271.9c-.3.2-.5.3-.9.5-1.1.5-2.7.8-4.3.8s-3.2-.3-4.3-.8c-.3-.1-.6-.3-.9-.5v7.7c0,.2,0,.4.3.6.2.2.6.5,1.1.7,1,.4,2.3.7,3.9.7s2.9-.3,3.9-.7c.5-.2.8-.5,1.1-.7.2-.2.3-.4.3-.6v-7.7Z"/>
    <path class="st32" d="M507.3,294.3c0-.6.3-1,.6-1.4.4-.4.9-.7,1.4-1,1.1-.5,2.7-.8,4.3-.8s3.2.3,4.3.8c.6.3,1.1.6,1.4,1,.4.4.6.9.6,1.4v9.6c0,.6-.3,1-.6,1.4-.4.4-.9.7-1.4,1-1.1.5-2.7.8-4.3.8s-3.2-.3-4.3-.8c-.6-.3-1.1-.6-1.4-1-.4-.4-.6-.9-.6-1.4v-9.6ZM508.5,294.3c0,.2,0,.4.3.6.2.2.6.5,1.1.7,1,.4,2.3.7,3.9.7s2.9-.3,3.9-.7c.5-.2.8-.5,1.1-.7.2-.2.3-.4.3-.6s0-.4-.3-.6c-.2-.2-.6-.5-1.1-.7-1-.4-2.3-.7-3.9-.7s-2.9.3-3.9.7c-.5.2-.8.5-1.1.7-.2.2-.3.4-.3.6ZM518.9,296.2c-.3.2-.5.3-.9.5-1.1.5-2.7.8-4.3.8s-3.2-.3-4.3-.8c-.3-.1-.6-.3-.9-.5v7.7c0,.2,0,.4.3.6.2.2.6.5,1.1.7,1,.4,2.3.7,3.9.7s2.9-.3,3.9-.7c.5-.2.8-.5,1.1-.7.2-.2.3-.4.3-.6v-7.7Z"/>
    <path class="st32" d="M382.4,361.2c0-.6.3-1,.6-1.4.4-.4.9-.7,1.4-1,1.1-.5,2.7-.8,4.3-.8s3.2.3,4.3.8c.6.3,1.1.6,1.4,1,.4.4.6.9.6,1.4v9.6c0,.6-.3,1-.6,1.4-.4.4-.9.7-1.4,1-1.1.5-2.7.8-4.3.8s-3.2-.3-4.3-.8c-.6-.3-1.1-.6-1.4-1-.4-.4-.6-.9-.6-1.4v-9.6ZM383.6,361.2c0,.2,0,.4.3.6.2.2.6.5,1.1.7,1,.4,2.3.7,3.9.7s2.9-.3,3.9-.7c.5-.2.8-.5,1.1-.7.2-.2.3-.4.3-.6s0-.4-.3-.6c-.2-.2-.6-.5-1.1-.7-1-.4-2.3-.7-3.9-.7s-2.9.3-3.9.7c-.5.2-.8.5-1.1.7-.2.2-.3.4-.3.6ZM394,363.1c-.3.2-.5.3-.9.5-1.1.5-2.7.8-4.3.8s-3.2-.3-4.3-.8c-.3-.1-.6-.3-.9-.5v7.7c0,.2,0,.4.3.6.2.2.6.5,1.1.7,1,.4,2.3.7,3.9.7s2.9-.3,3.9-.7c.5-.2.8-.5,1.1-.7.2-.2.3-.4.3-.6v-7.7Z"/>
    <path class="st32" d="M399.6,225.5c3.5,0,6.4-1.4,6.4-3.2s-2.9-3.2-6.4-3.2-6.4,1.4-6.4,3.2,2.9,3.2,6.4,3.2ZM404.6,225.6c.5-.2.9-.5,1.3-.9v7.2c0,1.8-2.9,3.2-6.4,3.2s-6.4-1.4-6.4-3.2v-7.2c.4.4.9.7,1.3.9,1.4.7,3.1,1.1,5.1,1.1s3.7-.4,5.1-1.1Z"/>
    <path class="st32" d="M399.6,249.5c3.5,0,6.4-1.4,6.4-3.2s-2.9-3.2-6.4-3.2-6.4,1.4-6.4,3.2,2.9,3.2,6.4,3.2ZM404.6,249.6c.5-.2.9-.5,1.3-.9v7.2c0,1.8-2.9,3.2-6.4,3.2s-6.4-1.4-6.4-3.2v-7.2c.4.4.9.7,1.3.9,1.4.7,3.1,1.1,5.1,1.1s3.7-.4,5.1-1.1Z"/>
    <path class="st32" d="M399.6,273.5c3.5,0,6.4-1.4,6.4-3.2s-2.9-3.2-6.4-3.2-6.4,1.4-6.4,3.2,2.9,3.2,6.4,3.2ZM404.6,273.6c.5-.2.9-.5,1.3-.9v7.2c0,1.8-2.9,3.2-6.4,3.2s-6.4-1.4-6.4-3.2v-7.2c.4.4.9.7,1.3.9,1.4.7,3.1,1.1,5.1,1.1s3.7-.4,5.1-1.1Z"/>
    <path class="st33" d="M446.2,364.4c3.5,0,6.4-1.4,6.4-3.2s-2.9-3.2-6.4-3.2-6.4,1.4-6.4,3.2,2.9,3.2,6.4,3.2ZM451.3,364.5c.5-.2.9-.5,1.3-.9v7.2c0,1.8-2.9,3.2-6.4,3.2s-6.4-1.4-6.4-3.2v-7.2c.4.4.9.7,1.3.9,1.4.7,3.1,1.1,5.1,1.1s3.7-.4,5.1-1.1Z"/>
    <text class="st3" transform="translate(432.4 268.4)"><tspan x="0" y="0">Cloning</tspan></text>
    <g>
      <rect class="st40" x="589.8" y="219.2" width="68.2" height="63.5"/>
      <rect class="st34" x="589.8" y="219.2" width="68.2" height="63.5"/>
    </g>
    <g>
      <rect class="st35" x="579.8" y="226.2" width="1.5" height="1"/>
      <path class="st35" d="M664.4,227.2h-3v-1h3v1ZM658.5,227.2h-3v-1h3v1ZM652.6,227.2h-3v-1h3v1ZM646.6,227.2h-3v-1h3v1ZM640.7,227.2h-3v-1h3v1ZM634.7,227.2h-3v-1h3v1ZM628.8,227.2h-3v-1h3v1ZM622.9,227.2h-3v-1h3v1ZM616.9,227.2h-3v-1h3v1ZM611,227.2h-3v-1h3v1ZM605,227.2h-3v-1h3v1ZM599.1,227.2h-3v-1h3v1ZM593.2,227.2h-3v-1h3v1ZM587.2,227.2h-3v-1h3v1Z"/>
      <rect class="st35" x="667.4" y="226.2" width="1.5" height="1"/>
    </g>
    <g>
      <rect class="st35" x="579.8" y="250.8" width="1.5" height="1"/>
      <path class="st35" d="M664.4,251.8h-3v-1h3v1ZM658.5,251.8h-3v-1h3v1ZM652.6,251.8h-3v-1h3v1ZM646.6,251.8h-3v-1h3v1ZM640.7,251.8h-3v-1h3v1ZM634.7,251.8h-3v-1h3v1ZM628.8,251.8h-3v-1h3v1ZM622.9,251.8h-3v-1h3v1ZM616.9,251.8h-3v-1h3v1ZM611,251.8h-3v-1h3v1ZM605,251.8h-3v-1h3v1ZM599.1,251.8h-3v-1h3v1ZM593.2,251.8h-3v-1h3v1ZM587.2,251.8h-3v-1h3v1Z"/>
      <rect class="st35" x="667.4" y="250.8" width="1.5" height="1"/>
    </g>
    <g>
      <rect class="st35" x="568.4" y="275.1" width="1.5" height="1"/>
      <path class="st35" d="M664.4,276.1h-3v-1h3v1ZM658.5,276.1h-3v-1h3v1ZM652.6,276.1h-3v-1h3v1ZM646.7,276.1h-3v-1h3v1ZM640.8,276.1h-3v-1h3v1ZM634.9,276.1h-3v-1h3v1ZM629,276.1h-3v-1h3v1ZM623.1,276.1h-3v-1h3v1ZM617.2,276.1h-3v-1h3v1ZM611.3,276.1h-3v-1h3v1ZM605.4,276.1h-3v-1h3v1ZM599.4,276.1h-3v-1h3v1ZM593.5,276.1h-3v-1h3v1ZM587.6,276.1h-3v-1h3v1ZM581.7,276.1h-3v-1h3v1ZM575.8,276.1h-3v-1h3v1Z"/>
      <rect class="st35" x="667.4" y="275.1" width="1.5" height="1"/>
    </g>
    <text class="st3" transform="translate(605.7 268.4)"><tspan x="0" y="0">&lt;255 x</tspan></text>
    <text class="st3" transform="translate(400.4 370.9)"><tspan x="0" y="0">Low</tspan></text>
    <text class="st3" transform="translate(458.8 370.9)"><tspan x="0" y="0">Medium</tspan></text>
    <text class="st1" transform="translate(442 198.6)"><tspan x="0" y="0">Azure NetApp Files storage layer</tspan></text>
    <text class="st3" transform="translate(453.2 347)"><tspan x="0" y="0">Performance requirement</tspan></text>
    <path class="Graphic_x0020_Style" d="M527,364.4c3.5,0,6.4-1.4,6.4-3.2s-2.9-3.2-6.4-3.2-6.4,1.4-6.4,3.2,2.9,3.2,6.4,3.2ZM532,364.5c.5-.2.9-.5,1.3-.9v7.2c0,1.8-2.9,3.2-6.4,3.2s-6.4-1.4-6.4-3.2v-7.2c.4.4.9.7,1.3.9,1.4.7,3.1,1.1,5.1,1.1s3.7-.4,5.1-1.1Z"/>
    <path class="st37" d="M513.7,273.5c3.5,0,6.4-1.4,6.4-3.2s-2.9-3.2-6.4-3.2-6.4,1.4-6.4,3.2,2.9,3.2,6.4,3.2ZM518.8,273.6c.5-.2.9-.5,1.3-.9v7.2c0,1.8-2.9,3.2-6.4,3.2s-6.4-1.4-6.4-3.2v-7.2c.4.4.9.7,1.3.9,1.4.7,3.1,1.1,5.1,1.1s3.7-.4,5.1-1.1Z"/>
    <path class="st36" d="M513.7,249.5c3.5,0,6.4-1.4,6.4-3.2s-2.9-3.2-6.4-3.2-6.4,1.4-6.4,3.2,2.9,3.2,6.4,3.2ZM518.8,249.6c.5-.2.9-.5,1.3-.9v7.2c0,1.8-2.9,3.2-6.4,3.2s-6.4-1.4-6.4-3.2v-7.2c.4.4.9.7,1.3.9,1.4.7,3.1,1.1,5.1,1.1s3.7-.4,5.1-1.1Z"/>
    <path class="st38" d="M513.7,225.5c3.5,0,6.4-1.4,6.4-3.2s-2.9-3.2-6.4-3.2-6.4,1.4-6.4,3.2,2.9,3.2,6.4,3.2ZM518.8,225.6c.5-.2.9-.5,1.3-.9v7.2c0,1.8-2.9,3.2-6.4,3.2s-6.4-1.4-6.4-3.2v-7.2c.4.4.9.7,1.3.9,1.4.7,3.1,1.1,5.1,1.1s3.7-.4,5.1-1.1Z"/>
    <text class="st3" transform="translate(540.4 370.9)"><tspan x="0" y="0">Med-High</tspan></text>
    <path class="st32" d="M619.5,364.4c3.5,0,6.4-1.4,6.4-3.2s-2.9-3.2-6.4-3.2-6.4,1.4-6.4,3.2,2.9,3.2,6.4,3.2ZM624.5,364.5c.5-.2.9-.5,1.3-.9v7.2c0,1.8-2.9,3.2-6.4,3.2s-6.4-1.4-6.4-3.2v-7.2c.4.4.9.7,1.3.9,1.4.7,3.1,1.1,5.1,1.1s3.7-.4,5.1-1.1Z"/>
    <text class="st3" transform="translate(630.6 371.7)"><tspan x="0" y="0">High</tspan></text>
  </g>
  <g id="Text">
    <text class="st1" transform="translate(38.9 101.2)"><tspan x="0" y="0">Simple to manage</tspan></text>
    <text class="st1" transform="translate(47.4 197)"><tspan x="0" y="0">Enterprise data </tspan><tspan x="5.4" y="14.4">management</tspan></text>
    <text class="st3" transform="translate(47.9 124.1)"><tspan x="0" y="0">Native Azure 1P </tspan><tspan x="-8.8" y="14.4">experience for easy </tspan><tspan x="-15.9" y="28.8">deployment and scale</tspan></text>
    <text class="st3" transform="translate(23.3 237.6)"><tspan x="0" y="0">Space- and time-efficient </tspan><tspan x="7.3" y="14.4">snapshots and cloning</tspan></text>
    <text class="st3" transform="translate(35.2 277.1)"><tspan x="0" y="0">Efficient backup with </tspan><tspan x="24.1" y="14.4">SnapCenter</tspan></text>
    <text class="st1" transform="translate(200.1 197)"><tspan x="0" y="0">Hybrid and disaster </tspan><tspan x="30.8" y="14.4">recovery</tspan></text>
    <text class="st3" transform="translate(197.1 237.6)"><tspan x="0" y="0">SQL Server Always On </tspan><tspan x="10" y="14.4">availability groups</tspan></text>
    <text class="st3" transform="translate(201.1 277.1)"><tspan x="0" y="0">Cross-region restore </tspan><tspan x="-.7" y="14.4">for in-Azure regional </tspan><tspan x="9.6" y="28.8">disaster recovery</tspan></text>
    <text class="st1" transform="translate(202.6 27.9)"><tspan x="0" y="0">Highly performant</tspan></text>
    <text class="st3" transform="translate(210.6 56.6)"><tspan x="0" y="0">On-premises like </tspan><tspan x="10.8" y="14.4">performance</tspan></text>
    <text class="st1" transform="translate(397.7 27.9)"><tspan x="0" y="0">Production</tspan></text>
    <text class="st1" transform="translate(398 65.7)"><tspan x="0" y="0">Database layer</tspan></text>
    <text class="st3" transform="translate(377.6 90)"><tspan x="0" y="0">Single or always on</tspan></text>
    <text class="st1" transform="translate(400.3 128.7)"><tspan x="0" y="0">Computer layer</tspan></text>
    <text class="st3" transform="translate(387.5 151.6)"><tspan x="0" y="0">Azure IaaS VMs</tspan></text>
    <text class="st2" transform="translate(578.2 26.4)"><tspan class="st4"><tspan x="0" y="0">Test and dev</tspan></tspan><tspan class="st30"><tspan x="12.5" y="14.4">(at scale)</tspan></tspan></text>
    <text class="st3" transform="translate(195.7 90.8)"><tspan x="0" y="0">On-demand scalability </tspan><tspan x="6.2" y="14.4">without interruption</tspan></text>
    <text class="st3" transform="translate(196.5 129.1)"><tspan x="0" y="0">Improved total cost of </tspan><tspan x="7.3" y="14.4">ownership by using </tspan><tspan x="16.6" y="28.8">smaller VM SKU</tspan></text>
    <text class="st1" transform="translate(35.9 27.9)"><tspan x="0" y="0">Azure NetApp Files</tspan></text>
    <text class="st3" transform="translate(357 230.4)"><tspan x="0" y="0">data1</tspan></text>
    <text class="st3" transform="translate(357 254.2)"><tspan x="0" y="0">data2</tspan></text>
    <text class="st3" transform="translate(369.8 278.2)"><tspan x="0" y="0">log</tspan></text>
    <text class="st3" transform="translate(348.3 303)"><tspan x="0" y="0">backup</tspan></text>
    <text class="st3" transform="translate(525.1 303)"><tspan x="0" y="0">DR-backup</tspan></text>
    <text class="st3" transform="translate(525.1 278.2)"><tspan x="0" y="0">DR-log</tspan></text>
    <text class="st3" transform="translate(525.1 254.5)"><tspan x="0" y="0">DR-data2</tspan></text>
    <text class="st3" transform="translate(525.1 231)"><tspan x="0" y="0">DR-data1</tspan></text>
  </g>
</svg>