<?xml version="1.0" encoding="UTF-8" standalone="no"?>
<!DOCTYPE svg PUBLIC "-//W3C//DTD SVG 1.1//EN" "http://www.w3.org/Graphics/SVG/1.1/DTD/svg11.dtd">
<!-- Generated by Microsoft Visio, SVG Export hybrid-server-os-mgmt-wac-onprem.svg hybrid-server-os-mgmt-wac-onprem -->
<svg xmlns="http://www.w3.org/2000/svg" xmlns:xlink="http://www.w3.org/1999/xlink" xmlns:ev="http://www.w3.org/2001/xml-events"
		width="7in" height="5.5625in" viewBox="0 0 504 400.5" xml:space="preserve" color-interpolation-filters="sRGB" class="st63">
	<style type="text/css">
	<![CDATA[
		.st1 {fill:#ffffff;stroke:none;stroke-width:0.25}
		.st2 {fill:#ecf3fb;stroke:none;stroke-width:0.75}
		.st3 {fill:#000000;font-family:Segoe UI Semibold;font-size:1.16666em}
		.st4 {fill:#ebebeb;stroke:none;stroke-width:0.75}
		.st5 {fill:#ffffff;stroke:#0078d4;stroke-dasharray:2.25,2.25;stroke-width:0.75}
		.st6 {fill:url(#grad0-15);stroke:none;stroke-width:0.75}
		.st7 {fill:#0078d4;stroke:#ebebeb;stroke-width:1.5}
		.st8 {fill:#ffffff;font-family:Segoe UI;font-size:0.833336em}
		.st9 {marker-end:url(#mrkr4-24);stroke:#000000;stroke-linecap:round;stroke-linejoin:round;stroke-width:1.5}
		.st10 {fill:#000000;fill-opacity:1;stroke:#000000;stroke-opacity:1;stroke-width:0.37313432835821}
		.st11 {fill:url(#grad1-29);stroke:none;stroke-width:0.75}
		.st12 {fill:#5ea0ef;stroke:none;stroke-width:0.75}
		.st13 {fill:#ffffff;stroke:none;stroke-width:0.75}
		.st14 {fill:#ebebeb;stroke:#75757a;stroke-width:1}
		.st15 {fill:url(#grad0-44);stroke:none;stroke-width:0.75}
		.st16 {fill:#ffffff;fill-opacity:0.8;stroke:none;stroke-width:0.75}
		.st17 {fill:url(#grad0-50);stroke:none;stroke-width:0.75}
		.st18 {fill:url(#grad0-56);stroke:none;stroke-width:0.75}
		.st19 {fill:#0078d4;stroke:none;stroke-width:0.75}
		.st20 {fill:#f2f2f2;stroke:none;stroke-width:0.75}
		.st21 {fill:none;stroke:none;stroke-width:0.25}
		.st22 {fill:#3c3c41;font-family:Segoe UI;font-size:0.833336em}
		.st23 {font-size:1em}
		.st24 {marker-start:url(#mrkr4-70);stroke:#0078d4;stroke-linecap:round;stroke-linejoin:round;stroke-width:1.5}
		.st25 {fill:#0078d4;fill-opacity:1;stroke:#0078d4;stroke-opacity:1;stroke-width:0.37313432835821}
		.st26 {fill:url(#grad0-77);stroke:none;stroke-width:12.2222}
		.st27 {fill:#003067;stroke:none;stroke-width:12.2222}
		.st28 {fill:#50e6ff;stroke:none;stroke-width:12.2222}
		.st29 {fill:#000000;font-family:Segoe UI;font-size:0.833336em}
		.st30 {fill:#ffffff;stroke:#4472c4;stroke-dasharray:2.25,2.25;stroke-width:0.75}
		.st31 {fill:#ffffff;stroke:#7f7f7f;stroke-width:1}
		.st32 {fill:#0078d4;stroke:none;stroke-width:32.9032}
		.st33 {fill:#50e6ff;stroke:none;stroke-width:32.9032}
		.st34 {marker-end:url(#mrkr4-24);marker-start:url(#mrkr4-133);stroke:#000000;stroke-linecap:round;stroke-linejoin:round;stroke-width:1.5}
		.st35 {marker-start:url(#mrkr4-133);stroke:#000000;stroke-linecap:round;stroke-linejoin:round;stroke-width:1.5}
		.st36 {fill:#66666a;stroke:#545457;stroke-width:0.75}
		.st37 {fill:#feffff;font-family:Segoe UI;font-size:0.833336em}
		.st38 {fill:#ffca00;stroke:none;stroke-width:0.75}
		.st39 {fill:url(#grad0-196);stroke:none;stroke-width:0.75}
		.st40 {fill:#b4ec36;stroke:none;stroke-width:0.75}
		.st41 {fill:#365615;stroke:none;stroke-width:0.75}
		.st42 {fill:#3b3b3b;stroke:none;stroke-width:0.75}
		.st43 {fill:#ebebeb;stroke:none;stroke-width:0.25}
		.st44 {fill:#50e6ff;stroke:none;stroke-width:0.75}
		.st45 {fill:url(#grad0-231);stroke:none;stroke-width:0.75}
		.st46 {fill:#53b1e0;stroke:none;stroke-width:0.75}
		.st47 {fill:#9cebff;stroke:none;stroke-width:0.75}
		.st48 {fill:url(#grad0-239);stroke:none;stroke-width:0.75}
		.st49 {fill:url(#grad0-252);stroke:none;stroke-width:0.75}
		.st50 {fill:#003067;stroke:none;stroke-width:0.75}
		.st51 {fill:url(#grad0-264);stroke:none;stroke-width:0.75}
		.st52 {fill:url(#grad0-268);stroke:none;stroke-width:0.75}
		.st53 {fill:url(#grad0-280);stroke:none;stroke-width:0.25}
		.st54 {fill:#0078d4;stroke:none;stroke-width:0.25}
		.st55 {fill:#0078d4;fill-opacity:0.5;stroke:none;stroke-width:0.25}
		.st56 {fill:#0078d4;fill-opacity:0.25;stroke:none;stroke-width:0.25}
		.st57 {fill:url(#grad0-296);stroke:none;stroke-width:0.25}
		.st58 {fill:#7f7f7f;font-family:Segoe UI Semibold;font-size:1.00001em}
		.st59 {fill:#feffff;stroke:none;stroke-width:0.25}
		.st60 {fill:url(#grad0-309);stroke:none;stroke-linecap:butt;stroke-width:34.0001}
		.st61 {fill:#50e6ff;stroke:none;stroke-linecap:butt;stroke-width:34.0001}
		.st62 {fill:#1490df;stroke:none;stroke-linecap:butt;stroke-width:34.0001}
		.st63 {fill:none;fill-rule:evenodd;font-size:12px;overflow:visible;stroke-linecap:square;stroke-miterlimit:3}
	]]>
	</style>

	<defs id="Patterns_And_Gradients">
		<linearGradient id="grad0-15" x1="0" y1="0" x2="1" y2="0" gradientTransform="rotate(-90 0.5 0.5)">
			<stop offset="0" stop-color="#0078d4" stop-opacity="1"/>
			<stop offset="0.155" stop-color="#1380da" stop-opacity="1"/>
			<stop offset="0.53" stop-color="#3c91e5" stop-opacity="1"/>
			<stop offset="0.82" stop-color="#559cec" stop-opacity="1"/>
			<stop offset="1" stop-color="#5ea0ef" stop-opacity="1"/>
		</linearGradient>
		<radialGradient id="grad1-29" cx="1" cy="1" r="1.4">
			<stop offset="0.18" stop-color="#5ea0ef" stop-opacity="1"/>
			<stop offset="1" stop-color="#0078d4" stop-opacity="1"/>
		</radialGradient>
		<linearGradient id="grad0-44" x1="0" y1="0" x2="1" y2="0" gradientTransform="rotate(90 0.5 0.5)">
			<stop offset="0.22" stop-color="#32d4f5" stop-opacity="1"/>
			<stop offset="1" stop-color="#198ab3" stop-opacity="1"/>
		</linearGradient>
		<linearGradient id="grad0-50" x1="0" y1="0" x2="1" y2="0" gradientTransform="rotate(85.405746668733 0.5 0.5)">
			<stop offset="0.22" stop-color="#32d4f5" stop-opacity="1"/>
			<stop offset="1" stop-color="#198ab3" stop-opacity="1"/>
		</linearGradient>
		<linearGradient id="grad0-56" x1="0" y1="0" x2="1" y2="0" gradientTransform="rotate(-90 0.5 0.5)">
			<stop offset="0" stop-color="#32bedd" stop-opacity="1"/>
			<stop offset="0.175" stop-color="#32caea" stop-opacity="1"/>
			<stop offset="0.41" stop-color="#32d2f2" stop-opacity="1"/>
			<stop offset="0.775" stop-color="#32d4f5" stop-opacity="1"/>
		</linearGradient>
		<linearGradient id="grad0-77" x1="0" y1="0" x2="1" y2="0" gradientTransform="rotate(-90 0.5 0.5)">
			<stop offset="0" stop-color="#949494" stop-opacity="1"/>
			<stop offset="0.53" stop-color="#a2a2a2" stop-opacity="1"/>
			<stop offset="1" stop-color="#b3b3b3" stop-opacity="1"/>
		</linearGradient>
		<linearGradient id="grad0-196" x1="0" y1="0" x2="1" y2="0" gradientTransform="rotate(-90 0.5 0.5)">
			<stop offset="0" stop-color="#5e9641" stop-opacity="1"/>
			<stop offset="0.34" stop-color="#6baa42" stop-opacity="1"/>
			<stop offset="0.67" stop-color="#73b743" stop-opacity="1"/>
			<stop offset="1" stop-color="#76bb43" stop-opacity="1"/>
		</linearGradient>
		<linearGradient id="grad0-231" x1="0" y1="0" x2="1" y2="0" gradientTransform="rotate(-133.54829310906 0.5 0.5)">
			<stop offset="0" stop-color="#1988d9" stop-opacity="1"/>
			<stop offset="0.9" stop-color="#54aef0" stop-opacity="1"/>
		</linearGradient>
		<linearGradient id="grad0-239" x1="0" y1="0" x2="1" y2="0" gradientTransform="rotate(65.834982258294 0.5 0.5)">
			<stop offset="0.1" stop-color="#54aef0" stop-opacity="1"/>
			<stop offset="0.29" stop-color="#4fabee" stop-opacity="1"/>
			<stop offset="0.51" stop-color="#41a2e9" stop-opacity="1"/>
			<stop offset="0.74" stop-color="#2a93e0" stop-opacity="1"/>
			<stop offset="0.88" stop-color="#1988d9" stop-opacity="1"/>
		</linearGradient>
		<linearGradient id="grad0-252" x1="0" y1="0" x2="1" y2="0" gradientTransform="rotate(90 0.5 0.5)">
			<stop offset="0" stop-color="#b3b2b3" stop-opacity="1"/>
			<stop offset="0.375" stop-color="#afaeaf" stop-opacity="1"/>
			<stop offset="0.765" stop-color="#a2a2a2" stop-opacity="1"/>
			<stop offset="1" stop-color="#979797" stop-opacity="1"/>
		</linearGradient>
		<linearGradient id="grad0-264" x1="0" y1="0" x2="1" y2="0" gradientTransform="rotate(90 0.5 0.5)">
			<stop offset="0" stop-color="#5ea0ef" stop-opacity="1"/>
			<stop offset="1" stop-color="#0078d4" stop-opacity="1"/>
		</linearGradient>
		<linearGradient id="grad0-268" x1="0" y1="0" x2="1" y2="0" gradientTransform="rotate(90 0.5 0.5)">
			<stop offset="0" stop-color="#3b3b3b" stop-opacity="1"/>
			<stop offset="0.39" stop-color="#373737" stop-opacity="1"/>
			<stop offset="0.79" stop-color="#2a2a2a" stop-opacity="1"/>
			<stop offset="0.995" stop-color="#212121" stop-opacity="1"/>
		</linearGradient>
		<linearGradient id="grad0-280" x1="0" y1="0" x2="1" y2="0" gradientTransform="rotate(116.95960434515 0.5 0.5)">
			<stop offset="0" stop-color="#114a8b" stop-opacity="1"/>
			<stop offset="1" stop-color="#0669bc" stop-opacity="1"/>
		</linearGradient>
		<linearGradient id="grad0-296" x1="0" y1="0" x2="1" y2="0" gradientTransform="rotate(61.849084498542 0.5 0.5)">
			<stop offset="0" stop-color="#3ccbf4" stop-opacity="1"/>
			<stop offset="1" stop-color="#2892df" stop-opacity="1"/>
		</linearGradient>
		<linearGradient id="grad0-309" x1="0" y1="0" x2="1" y2="0" gradientTransform="rotate(-90 0.5 0.5)">
			<stop offset="0" stop-color="#5e9624" stop-opacity="1"/>
			<stop offset="0.24" stop-color="#6fb02a" stop-opacity="1"/>
			<stop offset="0.5" stop-color="#7cc52f" stop-opacity="1"/>
			<stop offset="0.755" stop-color="#83d232" stop-opacity="1"/>
			<stop offset="1" stop-color="#86d633" stop-opacity="1"/>
		</linearGradient>
	</defs>
	<defs id="Markers">
		<g id="lend4">
			<path d="M 2 1 L 0 0 L 2 -1 L 2 1 " style="stroke:none"/>
		</g>
		<marker id="mrkr4-24" class="st10" refX="-5.36" orient="auto" markerUnits="strokeWidth" overflow="visible">
			<use xlink:href="#lend4" transform="scale(-2.68,-2.68) "/>
		</marker>
		<marker id="mrkr4-70" class="st25" refX="5.12" orient="auto" markerUnits="strokeWidth" overflow="visible">
			<use xlink:href="#lend4" transform="scale(2.68) "/>
		</marker>
		<marker id="mrkr4-133" class="st10" refX="5.12" orient="auto" markerUnits="strokeWidth" overflow="visible">
			<use xlink:href="#lend4" transform="scale(2.68) "/>
		</marker>
	</defs>
	<g>
		<title>VBackground-2</title>
		<g id="shape1000-1">
			<title>Solid.1000</title>
			<rect x="0" y="0" width="504" height="400.5" class="st1"/>
		</g>
	</g>
	<g>
		<title>hybrid-server-os-mgmt-wac-onprem</title>
		<g id="shape2-3" transform="translate(337.5,-17.9999)">
			<title>Rectangle.228</title>
			<desc>Azure</desc>
			<rect x="0" y="44.9999" width="137.25" height="355.5" class="st2"/>
			<text x="50.07" y="39.15" class="st3">Azure</text>		</g>
		<g id="shape3-6" transform="translate(13.5,-121.5)">
			<title>Rectangle.158</title>
			<desc>On-premises</desc>
			<rect x="0" y="148.5" width="137.25" height="252" class="st4"/>
			<text x="28.13" y="143.2" class="st3">On-premises</text>		</g>
		<g id="shape4-9" transform="translate(230.625,-170.637)">
			<title>Rectangle</title>
			<path d="M0 400.5 L96.75 400.5 L96.75 238.14 L0 238.14 L0 400.5 Z" class="st5"/>
		</g>
		<g id="group5-11" transform="translate(243.921,-318.449)">
			<title>Icon-Cloud-other-357</title>
			<g id="shape6-12" transform="translate(-1.3247,0)">
				<title>Sheet.6</title>
				<path d="M39.58 391.71 A8.88826 8.88826 -180 0 0 31.86 383.17 A11.2081 11.2081 -180 0 0 20.32 372.45 A11.497 11.497
							 -180 0 0 9.33 379.94 A10.6104 10.6104 -180 0 0 -0 390.16 A10.7681 10.7681 -180 0 0 11.15 400.5 C11.48
							 400.5 11.81 400.48 12.13 400.46 L30.18 400.46 A1.87764 1.87764 -180 0 0 30.65 400.39 A8.99714 8.99714
							 -180 0 0 39.58 391.71 Z" class="st6"/>
			</g>
		</g>
		<g id="shape7-16" transform="translate(363.375,-25.801)">
			<title>Rectangle.227</title>
			<desc>Azure services</desc>
			<rect x="0" y="354.301" width="95.625" height="46.199" rx="9" ry="9" class="st7"/>
			<text x="16.65" y="380.4" class="st8">Azure services</text>		</g>
		<g id="shape8-19" transform="translate(252.233,-259.149) scale(-1,1)">
			<title>Sheet.8</title>
			<path d="M0 400.5 L105.82 400.5" class="st9"/>
		</g>
		<g id="group9-25" transform="translate(177.75,-246.774)">
			<title>10064 DNS Zones</title>
			<g id="shape10-26" transform="translate(1.10924,-1.00147)">
				<title>f57e105d-6d2d-4ad7-b8c3-c10684c</title>
				<path d="M22.13 400.5 A15.7697 15.7697 0 0 1 2.8 375.57 L2.97 375.46 A15.7639 15.7639 0 0 1 22.13 400.5 Z"
						class="st11"/>
			</g>
			<g id="shape11-30">
				<title>Sheet.11</title>
				<path d="M13.57 372.77 A14.2617 14.2617 -180 1 0 27.83 387.04 A14.2803 14.2803 -180 0 0 13.57 372.77 ZM23.12 377.58
							 A13.6683 13.6683 0 0 1 19.14 379.06 A16.3759 16.3759 -180 0 0 16.82 374.05 A13.353 13.353 0 0 1 23.12
							 377.58 ZM13.57 373.57 A12.2217 12.2217 0 0 1 15.59 373.74 A13.8723 13.8723 0 0 1 18.43 379.3 A28.0413
							 28.0413 0 0 1 8.32 379.3 A13.6868 13.6868 0 0 1 11.12 373.85 A13.6126 13.6126 0 0 1 13.57 373.57 ZM9.86
							 374.05 A16.1719 16.1719 -180 0 0 7.51 379.02 A10.3486 10.3486 0 0 1 3.98 377.6 A13.6312 13.6312 0 0
							 1 9.86 374.05 ZM3.78 396.31 A9.77364 9.77364 0 0 1 7.08 394.9 A13.1304 13.1304 -180 0 0 9.58 399.94
							 A13.4457 13.4457 0 0 1 3.78 396.31 ZM15.67 400.39 A13.1304 13.1304 0 0 1 13.57 400.5 A12.6668 12.6668
							 0 0 1 10.9 400.22 A11.1275 11.1275 0 0 1 7.8 394.66 A27.318 27.318 0 0 1 18.71 394.66 A11.1275 11.1275
							 0 0 1 15.57 400.22 L15.67 400.39 ZM17.02 400.09 A13.2232 13.2232 -180 0 0 19.58 394.9 A12.3886 12.3886
							 0 0 1 23.29 396.44 A13.2232 13.2232 0 0 1 17.02 400.02 L17.02 400.09 ZM19.77 394.12 C19.91 393.45 20.04
							 392.77 20.14 392.04 L19.28 392.25 C19.19 392.82 19.1 393.4 18.97 393.93 A28.2453 28.2453 -180 0 0 7.67
							 393.93 C7.54 393.43 7.45 392.9 7.36 392.34 a0.519283 0.519283 0 0 1 -2.66454E-15 -0.166912 L6.51 391.93
							 A4.37681 4.37681 -180 0 0 6.51 392.45 C6.51 393.04 6.71 393.6 6.82 394.14 A10.942 10.942 -180 0 0 3.11
							 395.72 A13.4272 13.4272 0 0 1 3.32 378.28 A11.6653 11.6653 -180 0 0 7.17 379.88 C7.04 380.32 6.93 380.8
							 6.84 381.29 C6.75 381.77 6.84 381.75 6.69 381.97 L7.56 381.77 L7.56 381.45 C7.67 380.97 7.79 380.51
							 7.92 380.06 A27.6147 27.6147 -180 0 0 13.57 380.51 A27.8187 27.8187 -180 0 0 18.73 380.03 C18.86 380.53
							 18.99 381.06 19.1 381.6 L19.95 381.81 C19.82 381.14 19.67 380.52 19.51 379.95 A14.3359 14.3359 -180
							 0 0 23.77 378.26 A13.3901 13.3901 0 0 1 23.88 395.86 A13.5013 13.5013 -180 0 0 19.77 394.06 L19.77 394.12
							 Z" class="st12"/>
			</g>
			<g id="shape12-32" transform="translate(3.70565,-9.47691)">
				<title>Sheet.12</title>
				<path d="M0.02 392.8 A14.6883 14.6883 0 0 1 2.17 392.66 A4.52518 4.52518 0 0 1 5.34 393.62 A3.70916 3.70916 0 0 1
							 6.44 396.33 A4.09862 4.09862 0 0 1 5.3 399.37 A4.82191 4.82191 0 0 1 1.85 400.5 A17.0065 17.0065 0 0
							 1 -0 400.41 L0.02 392.8 ZM1.04 399.72 A7.41832 7.41832 -180 0 0 2.06 399.72 A3.00442 3.00442 -180 0
							 0 5.38 396.36 A2.78187 2.78187 -180 0 0 2.21 393.36 A5.87902 5.87902 -180 0 0 1.04 393.36 L1.04 399.72
							 Z" class="st13"/>
			</g>
			<g id="shape13-34" transform="translate(11.4578,-9.49545)">
				<title>Sheet.13</title>
				<path d="M0 400.44 L0 392.64 L1.09 392.64 L3.6 396.53 A22.5888 22.5888 0 0 1 5.01 399.07 C4.91 398.03 4.9 397.09
							 4.9 395.86 L4.9 392.64 L5.82 392.64 L5.82 400.44 L4.8 400.44 L2.36 396.53 C1.82 395.66 1.3 394.68 0.89
							 393.93 C0.89 394.92 0.89 395.79 0.89 397.16 L0.89 400.5 L0 400.44 Z" class="st13"/>
			</g>
			<g id="shape14-36" transform="translate(18.7092,-9.43982)">
				<title>Sheet.14</title>
				<path d="M0.22 399.16 A3.70916 3.70916 -180 0 0 2.08 399.67 C3.12 399.67 3.71 399.13 3.71 398.33 C3.71 397.53 3.3
							 397.18 2.24 396.79 C1.19 396.4 0.17 395.68 0.17 394.57 A2.26259 2.26259 0 0 1 2.71 392.45 A3.70916 3.70916
							 0 0 1 4.43 392.82 L4.14 393.66 A3.02297 3.02297 -180 0 0 2.65 393.29 C1.58 393.29 1.17 393.92 1.17 394.45
							 C1.17 394.99 1.65 395.55 2.73 395.96 C3.8 396.36 4.73 397.11 4.73 398.26 C4.73 399.41 3.84 400.5 1.98
							 400.5 A4.00589 4.00589 0 0 1 0 400 L0.22 399.16 Z" class="st13"/>
			</g>
		</g>
		<g id="shape15-38" transform="translate(244.969,-229.5)">
			<title>Rectangle.218</title>
			<rect x="0" y="328.5" width="68.0625" height="72" class="st14"/>
		</g>
		<g id="group16-40" transform="translate(262.969,-272.77)">
			<title>10230 Users</title>
			<g id="shape17-41">
				<title>Sheet.17</title>
				<path d="M21.9 400.5 A2.13312 2.13312 -180 0 0 24.04 398.37 a0.691426 0.691426 -180 0 0 3.55271E-15 -0.25009 C23.18
							 391.39 19.37 385.92 12.02 385.92 C4.66 385.92 0.75 390.56 0 398.13 A2.14783 2.14783 -180 0 0 1.93 400.5
							 L21.9 400.5 Z" class="st15"/>
			</g>
			<g id="shape18-45" transform="translate(8.37067,-4.61932)">
				<title>Sheet.18</title>
				<path d="M3.65 392.13 A6.75244 6.75244 0 0 1 0 391.06 L3.65 400.5 L7.24 391.11 A6.66417 6.66417 0 0 1 3.65 392.13
							 Z" class="st16"/>
			</g>
			<g id="shape19-47" transform="translate(5.29603,-13.0047)">
				<title>Sheet.19</title>
				<ellipse cx="6.73773" cy="393.762" rx="6.73773" ry="6.73773" class="st17"/>
			</g>
		</g>
		<g id="group20-51" transform="translate(279.836,-262.767)">
			<title>10783 Browser</title>
			<g id="group21-52">
				<title>Sheet.21</title>
				<g id="shape22-53">
					<title>Sheet.22</title>
					<path d="M0.8 384.33 L28.17 384.33 L28.17 399.59 a0.914474 0.914474 0 0 1 -0.914474 0.914474 L1.72 400.5 a0.914474
								 0.914474 0 0 1 -0.914474 -0.914474 L0.8 384.33 Z" class="st18"/>
				</g>
				<g id="shape23-57" transform="translate(1.43885E-13,-16.174)">
					<title>Sheet.23</title>
					<path d="M1.72 394.67 L27.26 394.67 a0.914474 0.914474 0 0 1 0.914474 0.914474 L28.17 400.5 L0.8 400.5 L0.8 395.58
								 a0.914474 0.914474 0 0 1 0.919304 -0.914474 Z" class="st19"/>
				</g>
				<g id="shape24-59" transform="translate(4.48704,-17.9144)">
					<title>Sheet.24</title>
					<path d="M0 400.04 a0.457248 0.457248 -180 0 0 0.457237 0.457237 L19.55 400.5 a0.457248 0.457248 -180 0 0 0.457237
								 -0.457237 L20.01 398.61 a0.457248 0.457248 -180 0 0 -0.457237 -0.457237 L0.46 398.15 a0.457248 0.457248
								 -180 0 0 -0.457237 0.457237 L0 400.04 Z" class="st20"/>
				</g>
			</g>
		</g>
		<g id="shape25-61" transform="translate(244.969,-233.517)">
			<title>Sheet.25</title>
			<desc>Client browser</desc>
			<rect x="0" y="373.5" width="68.0625" height="27" class="st21"/>
			<text x="21.37" y="384" class="st22">Client <tspan x="16.34" dy="1.2em" class="st23">browser</tspan></text>		</g>
		<g id="shape26-65" transform="translate(807.75,85.5) rotate(90)">
			<title>Sheet.26</title>
			<path d="M7.68 400.5 L8.04 400.5 L22.5 400.5" class="st24"/>
		</g>
		<g id="group27-71" transform="translate(51.75,-342)">
			<title>Sheet.27</title>
			<desc>Managed nodes</desc>
			<g id="group28-72" transform="translate(2.88769E-13,7.13174)">
				<title>Sheet.28</title>
				<g id="group29-73">
					<title>Sheet.29</title>
					<g id="shape30-74">
						<title>Sheet.30</title>
						<path d="M15.87 399.56 C15.87 400.07 15.44 400.46 14.93 400.5 L0.94 400.5 C0.43 400.5 0 400.07 0 399.56 L0
									 374.44 C0 373.93 0.38 373.54 0.9 373.5 C0.9 373.5 0.94 373.5 0.94 373.5 L14.93 373.5 C15.44
									 373.5 15.87 373.93 15.87 374.44 L15.87 399.56 Z" class="st26"/>
					</g>
					<g id="shape31-78" transform="translate(2.34597,-15.8246)">
						<title>Sheet.31</title>
						<path d="M0 398.79 C0 397.86 0.77 397.09 1.71 397.09 L9.6 397.09 C10.54 397.05 11.35 397.81 11.39 398.75
									 C11.39 398.75 11.39 398.79 11.39 398.79 C11.39 399.73 10.62 400.5 9.68 400.5 C9.68 400.5 9.64
									 400.5 9.64 400.5 L1.71 400.5 C0.77 400.5 0 399.73 0 398.79 Z" class="st27"/>
					</g>
					<g id="shape32-80" transform="translate(2.34597,-20.9431)">
						<title>Sheet.32</title>
						<path d="M0 398.79 C0 397.86 0.77 397.09 1.71 397.09 L9.6 397.09 C10.54 397.05 11.35 397.81 11.39 398.75
									 C11.39 398.75 11.39 398.79 11.39 398.79 C11.39 399.73 10.62 400.5 9.64 400.5 C9.64 400.5 9.6
									 400.5 9.6 400.5 L1.71 400.5 C0.77 400.5 0 399.73 0 398.79 Z" class="st27"/>
					</g>
					<g id="shape33-82" transform="translate(2.98578,-21.4976)">
						<title>Sheet.33</title>
						<ellipse cx="1.15166" cy="399.348" rx="1.15166" ry="1.15166" class="st28"/>
					</g>
					<g id="shape34-84" transform="translate(2.98578,-16.3791)">
						<title>Sheet.34</title>
						<ellipse cx="1.15166" cy="399.348" rx="1.15166" ry="1.15166" class="st28"/>
					</g>
				</g>
			</g>
			<g id="group35-86" transform="translate(20.5536,0)">
				<title>server</title>
				<g id="group36-87" transform="translate(0,7.13174)">
					<title>Sheet.36</title>
					<g id="shape37-88">
						<title>Sheet.37</title>
						<path d="M15.87 399.56 C15.87 400.07 15.44 400.46 14.93 400.5 L0.94 400.5 C0.43 400.5 0 400.07 0 399.56 L0
									 374.44 C0 373.93 0.38 373.54 0.9 373.5 C0.9 373.5 0.94 373.5 0.94 373.5 L14.93 373.5 C15.44
									 373.5 15.87 373.93 15.87 374.44 L15.87 399.56 Z" class="st26"/>
					</g>
					<g id="shape38-91" transform="translate(2.34597,-15.8246)">
						<title>Sheet.38</title>
						<path d="M0 398.79 C0 397.86 0.77 397.09 1.71 397.09 L9.6 397.09 C10.54 397.05 11.35 397.81 11.39 398.75
									 C11.39 398.75 11.39 398.79 11.39 398.79 C11.39 399.73 10.62 400.5 9.68 400.5 C9.68 400.5 9.64
									 400.5 9.64 400.5 L1.71 400.5 C0.77 400.5 0 399.73 0 398.79 Z" class="st27"/>
					</g>
					<g id="shape39-93" transform="translate(2.34597,-20.9431)">
						<title>Sheet.39</title>
						<path d="M0 398.79 C0 397.86 0.77 397.09 1.71 397.09 L9.6 397.09 C10.54 397.05 11.35 397.81 11.39 398.75
									 C11.39 398.75 11.39 398.79 11.39 398.79 C11.39 399.73 10.62 400.5 9.64 400.5 C9.64 400.5 9.6
									 400.5 9.6 400.5 L1.71 400.5 C0.77 400.5 0 399.73 0 398.79 Z" class="st27"/>
					</g>
					<g id="shape40-95" transform="translate(2.98578,-21.4976)">
						<title>Sheet.40</title>
						<ellipse cx="1.15166" cy="399.348" rx="1.15166" ry="1.15166" class="st28"/>
					</g>
					<g id="shape41-97" transform="translate(2.98578,-16.3791)">
						<title>Sheet.41</title>
						<ellipse cx="1.15166" cy="399.348" rx="1.15166" ry="1.15166" class="st28"/>
					</g>
				</g>
			</g>
			<g id="group42-99" transform="translate(41.1072,7.13174)">
				<title>Sheet.42</title>
				<g id="group43-100">
					<title>Sheet.43</title>
					<g id="shape44-101">
						<title>Sheet.44</title>
						<path d="M15.87 399.56 C15.87 400.07 15.44 400.46 14.93 400.5 L0.94 400.5 C0.43 400.5 0 400.07 0 399.56 L0
									 374.44 C0 373.93 0.38 373.54 0.9 373.5 C0.9 373.5 0.94 373.5 0.94 373.5 L14.93 373.5 C15.44
									 373.5 15.87 373.93 15.87 374.44 L15.87 399.56 Z" class="st26"/>
					</g>
					<g id="shape45-104" transform="translate(2.34597,-15.8246)">
						<title>Sheet.45</title>
						<path d="M0 398.79 C0 397.86 0.77 397.09 1.71 397.09 L9.6 397.09 C10.54 397.05 11.35 397.81 11.39 398.75
									 C11.39 398.75 11.39 398.79 11.39 398.79 C11.39 399.73 10.62 400.5 9.68 400.5 C9.68 400.5 9.64
									 400.5 9.64 400.5 L1.71 400.5 C0.77 400.5 0 399.73 0 398.79 Z" class="st27"/>
					</g>
					<g id="shape46-106" transform="translate(2.34597,-20.9431)">
						<title>Sheet.46</title>
						<path d="M0 398.79 C0 397.86 0.77 397.09 1.71 397.09 L9.6 397.09 C10.54 397.05 11.35 397.81 11.39 398.75
									 C11.39 398.75 11.39 398.79 11.39 398.79 C11.39 399.73 10.62 400.5 9.64 400.5 C9.64 400.5 9.6
									 400.5 9.6 400.5 L1.71 400.5 C0.77 400.5 0 399.73 0 398.79 Z" class="st27"/>
					</g>
					<g id="shape47-108" transform="translate(2.98578,-21.4976)">
						<title>Sheet.47</title>
						<ellipse cx="1.15166" cy="399.348" rx="1.15166" ry="1.15166" class="st28"/>
					</g>
					<g id="shape48-110" transform="translate(2.98578,-16.3791)">
						<title>Sheet.48</title>
						<ellipse cx="1.15166" cy="399.348" rx="1.15166" ry="1.15166" class="st28"/>
					</g>
				</g>
			</g>
			<g id="shape27-112">
				<text x="7.39" y="419.85" class="st29">Managed <tspan x="14.86" dy="1.223em" class="st23">nodes</tspan></text>			</g>
		</g>
		<g id="shape49-115" transform="translate(351,-159.75)">
			<title>Sheet.49</title>
			<rect x="0" y="217.551" width="112.5" height="182.949" rx="4.5" ry="4.5" class="st30"/>
		</g>
		<g id="shape50-117" transform="translate(25.875,-139.5)">
			<title>Sheet.50</title>
			<rect x="0" y="258.387" width="112.5" height="142.113" class="st31"/>
		</g>
		<g id="group51-119" transform="translate(68.0579,-180.01)">
			<title>Layer_6</title>
			<g id="shape52-120">
				<title>Sheet.52</title>
				<ellipse cx="13.9169" cy="386.886" rx="13.9169" ry="13.6135" class="st32"/>
			</g>
			<g id="shape53-122" transform="translate(1.61824,-1.58297)">
				<title>Sheet.53</title>
				<path d="M8.58 380.08 L12.3 376.44 C12.3 376.44 12.46 376.44 12.62 376.44 L16.34 380.08 C16.34 380.08 16.51 380.24
							 16.34 380.4 L16.18 380.4 L13.92 380.4 C13.76 380.4 13.76 380.55 13.76 380.55 L13.76 385.3 C13.76 385.46
							 13.76 385.46 13.59 385.46 L11.17 385.46 C11 385.46 11 385.46 11 385.3 L11 380.55 C11 380.4 11 380.4
							 10.84 380.4 L8.58 380.4 C8.58 380.4 8.41 380.4 8.58 380.08 C8.41 380.24 8.41 380.24 8.58 380.08 ZM16.34
							 396.86 L12.46 400.5 C12.46 400.5 12.3 400.5 12.14 400.5 L8.58 396.86 C8.58 396.7 8.58 396.7 8.58 396.54
							 C8.58 396.54 8.58 396.54 8.74 396.54 L11 396.54 C11.17 396.54 11.17 396.38 11.17 396.38 L11.17 391.64
							 C11.17 391.48 11.17 391.48 11.33 391.48 L13.43 391.48 C13.59 391.48 13.59 391.48 13.59 391.64 L13.59
							 396.38 C13.59 396.54 13.76 396.54 13.76 396.54 L15.86 396.54 C16.02 396.54 16.02 396.54 16.18 396.54
							 C16.34 396.7 16.34 396.7 16.34 396.86 ZM5.18 392.11 L5.18 390.05 C5.18 389.89 5.02 389.89 5.02 389.89
							 L0.16 389.89 C0 389.89 0 389.89 0 389.74 L0 387.36 C0 387.2 0.16 387.2 0.16 387.2 L5.02 387.2 C5.18
							 387.2 5.18 387.2 5.18 387.04 L5.18 384.83 C5.18 384.67 5.18 384.67 5.34 384.67 L5.5 384.67 L9.22 388.31
							 C9.22 388.31 9.22 388.47 9.22 388.63 L5.5 392.27 C5.5 392.27 5.34 392.43 5.18 392.11 C5.18 392.11 5.18
							 392.11 5.18 392.11 ZM19.58 384.83 L19.58 387.04 C19.58 387.2 19.74 387.2 19.74 387.2 L24.6 387.2 C24.76
							 387.2 24.76 387.36 24.76 387.36 L24.76 389.58 C24.76 389.74 24.6 389.74 24.6 389.74 L19.74 389.74 C19.58
							 389.74 19.58 389.89 19.58 389.89 L19.58 391.95 C19.58 392.11 19.58 392.11 19.42 392.11 L19.26 392.11
							 L15.54 388.47 C15.54 388.47 15.54 388.31 15.54 388.15 L19.26 384.51 C19.26 384.35 19.42 384.35 19.58
							 384.51 C19.58 384.67 19.58 384.67 19.58 384.83 Z" class="st33"/>
			</g>
		</g>
		<g id="shape54-124" transform="translate(65.5413,-179.763)">
			<title>gateway</title>
			<desc>Web server gateway</desc>
			<text x="-9.6" y="410.31" class="st22">Web server <tspan x="-3.16" dy="1.173em" class="st23">gateway</tspan></text>		</g>
		<g id="shape55-127" transform="translate(9.00001,328.5) rotate(-90)">
			<title>Sheet.55</title>
			<path d="M7.68 400.5 L8.04 400.5 L199.71 400.5" class="st34"/>
		</g>
		<g id="group56-135" transform="translate(378.372,-312.75)">
			<title>Sheet.56</title>
			<desc>Managed nodes</desc>
			<g id="group57-136" transform="translate(2.88769E-13,7.13174)">
				<title>Sheet.57</title>
				<g id="group58-137">
					<title>Sheet.58</title>
					<g id="shape59-138">
						<title>Sheet.59</title>
						<path d="M15.87 399.56 C15.87 400.07 15.44 400.46 14.93 400.5 L0.94 400.5 C0.43 400.5 0 400.07 0 399.56 L0
									 374.44 C0 373.93 0.38 373.54 0.9 373.5 C0.9 373.5 0.94 373.5 0.94 373.5 L14.93 373.5 C15.44
									 373.5 15.87 373.93 15.87 374.44 L15.87 399.56 Z" class="st26"/>
					</g>
					<g id="shape60-141" transform="translate(2.34597,-15.8246)">
						<title>Sheet.60</title>
						<path d="M0 398.79 C0 397.86 0.77 397.09 1.71 397.09 L9.6 397.09 C10.54 397.05 11.35 397.81 11.39 398.75
									 C11.39 398.75 11.39 398.79 11.39 398.79 C11.39 399.73 10.62 400.5 9.68 400.5 C9.68 400.5 9.64
									 400.5 9.64 400.5 L1.71 400.5 C0.77 400.5 0 399.73 0 398.79 Z" class="st27"/>
					</g>
					<g id="shape61-143" transform="translate(2.34597,-20.9431)">
						<title>Sheet.61</title>
						<path d="M0 398.79 C0 397.86 0.77 397.09 1.71 397.09 L9.6 397.09 C10.54 397.05 11.35 397.81 11.39 398.75
									 C11.39 398.75 11.39 398.79 11.39 398.79 C11.39 399.73 10.62 400.5 9.64 400.5 C9.64 400.5 9.6
									 400.5 9.6 400.5 L1.71 400.5 C0.77 400.5 0 399.73 0 398.79 Z" class="st27"/>
					</g>
					<g id="shape62-145" transform="translate(2.98578,-21.4976)">
						<title>Sheet.62</title>
						<ellipse cx="1.15166" cy="399.348" rx="1.15166" ry="1.15166" class="st28"/>
					</g>
					<g id="shape63-147" transform="translate(2.98578,-16.3791)">
						<title>Sheet.63</title>
						<ellipse cx="1.15166" cy="399.348" rx="1.15166" ry="1.15166" class="st28"/>
					</g>
				</g>
			</g>
			<g id="group64-149" transform="translate(20.5536,0)">
				<title>server</title>
				<g id="group65-150" transform="translate(0,7.13174)">
					<title>Sheet.65</title>
					<g id="shape66-151">
						<title>Sheet.66</title>
						<path d="M15.87 399.56 C15.87 400.07 15.44 400.46 14.93 400.5 L0.94 400.5 C0.43 400.5 0 400.07 0 399.56 L0
									 374.44 C0 373.93 0.38 373.54 0.9 373.5 C0.9 373.5 0.94 373.5 0.94 373.5 L14.93 373.5 C15.44
									 373.5 15.87 373.93 15.87 374.44 L15.87 399.56 Z" class="st26"/>
					</g>
					<g id="shape67-154" transform="translate(2.34597,-15.8246)">
						<title>Sheet.67</title>
						<path d="M0 398.79 C0 397.86 0.77 397.09 1.71 397.09 L9.6 397.09 C10.54 397.05 11.35 397.81 11.39 398.75
									 C11.39 398.75 11.39 398.79 11.39 398.79 C11.39 399.73 10.62 400.5 9.68 400.5 C9.68 400.5 9.64
									 400.5 9.64 400.5 L1.71 400.5 C0.77 400.5 0 399.73 0 398.79 Z" class="st27"/>
					</g>
					<g id="shape68-156" transform="translate(2.34597,-20.9431)">
						<title>Sheet.68</title>
						<path d="M0 398.79 C0 397.86 0.77 397.09 1.71 397.09 L9.6 397.09 C10.54 397.05 11.35 397.81 11.39 398.75
									 C11.39 398.75 11.39 398.79 11.39 398.79 C11.39 399.73 10.62 400.5 9.64 400.5 C9.64 400.5 9.6
									 400.5 9.6 400.5 L1.71 400.5 C0.77 400.5 0 399.73 0 398.79 Z" class="st27"/>
					</g>
					<g id="shape69-158" transform="translate(2.98578,-21.4976)">
						<title>Sheet.69</title>
						<ellipse cx="1.15166" cy="399.348" rx="1.15166" ry="1.15166" class="st28"/>
					</g>
					<g id="shape70-160" transform="translate(2.98578,-16.3791)">
						<title>Sheet.70</title>
						<ellipse cx="1.15166" cy="399.348" rx="1.15166" ry="1.15166" class="st28"/>
					</g>
				</g>
			</g>
			<g id="group71-162" transform="translate(41.1072,7.13174)">
				<title>Sheet.71</title>
				<g id="group72-163">
					<title>Sheet.72</title>
					<g id="shape73-164">
						<title>Sheet.73</title>
						<path d="M15.87 399.56 C15.87 400.07 15.44 400.46 14.93 400.5 L0.94 400.5 C0.43 400.5 0 400.07 0 399.56 L0
									 374.44 C0 373.93 0.38 373.54 0.9 373.5 C0.9 373.5 0.94 373.5 0.94 373.5 L14.93 373.5 C15.44
									 373.5 15.87 373.93 15.87 374.44 L15.87 399.56 Z" class="st26"/>
					</g>
					<g id="shape74-167" transform="translate(2.34597,-15.8246)">
						<title>Sheet.74</title>
						<path d="M0 398.79 C0 397.86 0.77 397.09 1.71 397.09 L9.6 397.09 C10.54 397.05 11.35 397.81 11.39 398.75
									 C11.39 398.75 11.39 398.79 11.39 398.79 C11.39 399.73 10.62 400.5 9.68 400.5 C9.68 400.5 9.64
									 400.5 9.64 400.5 L1.71 400.5 C0.77 400.5 0 399.73 0 398.79 Z" class="st27"/>
					</g>
					<g id="shape75-169" transform="translate(2.34597,-20.9431)">
						<title>Sheet.75</title>
						<path d="M0 398.79 C0 397.86 0.77 397.09 1.71 397.09 L9.6 397.09 C10.54 397.05 11.35 397.81 11.39 398.75
									 C11.39 398.75 11.39 398.79 11.39 398.79 C11.39 399.73 10.62 400.5 9.64 400.5 C9.64 400.5 9.6
									 400.5 9.6 400.5 L1.71 400.5 C0.77 400.5 0 399.73 0 398.79 Z" class="st27"/>
					</g>
					<g id="shape76-171" transform="translate(2.98578,-21.4976)">
						<title>Sheet.76</title>
						<ellipse cx="1.15166" cy="399.348" rx="1.15166" ry="1.15166" class="st28"/>
					</g>
					<g id="shape77-173" transform="translate(2.98578,-16.3791)">
						<title>Sheet.77</title>
						<ellipse cx="1.15166" cy="399.348" rx="1.15166" ry="1.15166" class="st28"/>
					</g>
				</g>
			</g>
			<g id="shape56-175">
				<text x="7.39" y="419.85" class="st29">Managed <tspan x="14.86" dy="1.223em" class="st23">nodes</tspan></text>			</g>
		</g>
		<g id="shape78-178" transform="translate(371.591,607.5) rotate(180)">
			<title>Sheet.78</title>
			<path d="M7.68 400.5 L8.04 400.5 L233.22 400.5" class="st35"/>
		</g>
		<g id="shape79-183" transform="translate(164.25,-180.553)">
			<title>Sheet.79</title>
			<desc>P2S VPN</desc>
			<rect x="0" y="369.553" width="56.9745" height="30.9467" rx="4.5" ry="4.5" class="st36"/>
			<text x="9.32" y="388.03" class="st37">P2S VPN</text>		</g>
		<g id="shape80-186" transform="translate(384.187,-180)">
			<title>Sheet.80</title>
			<rect x="0" y="346.5" width="49.5" height="54" class="st1"/>
		</g>
		<g id="group81-188" transform="translate(392.208,-202.5)">
			<title>10080 Network Interfaces</title>
			<desc>Azure network adapter</desc>
			<g id="shape82-189" transform="translate(0,-19.9277)">
				<title>Sheet.82</title>
				<path d="M25.27 392.83 L27.29 392.83 a0.54077 0.623886 0 0 1 0.54077 0.623886 L27.83 399.88 a0.54077 0.623886 0 0
							 1 -0.54077 0.623886 L25.27 400.5 L25.27 392.83 Z" class="st38"/>
			</g>
			<g id="shape83-191" transform="translate(0,-4.42225)">
				<title>Sheet.83</title>
				<path d="M25.27 388.5 L27.29 388.5 a0.54077 0.623886 0 0 1 0.54077 0.623886 L27.83 399.88 a0.54077 0.623886 0 0 1
							 -0.54077 0.623886 L25.27 400.5 L25.27 388.5 Z" class="st38"/>
			</g>
			<g id="shape84-193" transform="translate(3.38776,-2.66069)">
				<title>Sheet.84</title>
				<path d="M0 399.23 A1.09747 1.26615 -180 0 0 1.1 400.5 L20.79 400.5 A1.09747 1.26615 -180 0 0 21.89 399.23 L21.89
							 374.24 A1.09747 1.26615 -180 0 0 20.79 372.98 L1.1 372.98 A1.09747 1.26615 -180 0 0 0 374.24 L0 399.23
							 Z" class="st39"/>
			</g>
			<g id="shape85-197" transform="translate(7.9525,-9.26654)">
				<title>Sheet.85</title>
				<path d="M1.43 400.5 L0.3 400.5 a0.3181 0.366992 0 0 1 -0.302195 -0.385341 L0 384.79 a0.302195 0.348642 0 0 1 0.302195
							 -0.366992 L3.37 384.43 a0.302195 0.348642 0 0 1 0.302195 0.366992 a0.3181 0.366992 0 0 1 -0.302195 0.385341
							 L0.6 385.18 L0.6 399.73 L1.43 399.73 a0.3181 0.366992 0 0 1 0.302195 0.385341 a0.334005 0.385341 0 0
							 1 -0.302195 0.385341 Z" class="st40"/>
			</g>
			<g id="shape86-199" transform="translate(6.48924,-7.39488)">
				<title>Sheet.86</title>
				<path d="M3.05 400.5 L0.51 400.5 a0.3181 0.366992 0 0 1 -0.302195 -0.385341 L0 381.16 a0.3181 0.366992 0 0 1 0.09543
							 -0.275244 a0.25448 0.293593 0 0 1 0.206765 -0.110098 L4.84 380.77 L4.84 381.53 L0.62 381.53 L0.81 399.73
							 L3.05 399.73 L3.05 400.5 Z" class="st40"/>
			</g>
			<g id="shape87-201" transform="translate(16.239,-9.08305)">
				<title>Sheet.87</title>
				<path d="M2.85 400.5 L0.32 400.5 a0.302195 0.348642 0 0 1 -0.22267 -0.128447 a0.28629 0.330293 0 0 1 -0.09543 -0.256894
							 L0 391.14 a0.302195 0.348642 0 0 1 0.302195 -0.366992 L1.75 390.77 L1.75 386.65 L2.35 386.65 L2.35 391.12
							 a0.3181 0.366992 0 0 1 -0.28629 0.385341 L0.62 391.51 L0.62 399.62 L2.85 399.62 L2.85 400.5 Z"
						class="st40"/>
			</g>
			<g id="shape88-203" transform="translate(11.2448,-23.0287)">
				<title>Sheet.88</title>
				<path d="M0 400.02 a0.413539 0.4771 -180 0 0 0.41353 0.477089 L9.35 400.5 a0.413539 0.4771 -180 0 0 0.41353 -0.477089
							 L9.77 395.27 a0.413539 0.4771 -180 0 0 -0.41353 -0.477089 L0.41 394.79 a0.413539 0.4771 -180 0 0 -0.41353
							 0.477089 L0 400.02 Z" class="st41"/>
			</g>
			<g id="shape89-205" transform="translate(412.709,387.961) rotate(90)">
				<title>Sheet.89</title>
				<path d="M0 400.02 a0.413539 0.4771 -180 0 0 0.41353 0.477089 L7.38 400.5 a0.413539 0.4771 -180 0 0 0.41353 -0.477089
							 L7.79 398.98 a0.413539 0.4771 -180 0 0 -0.41353 -0.477089 L0.41 398.5 a0.413539 0.4771 -180 0 0 -0.41353
							 0.477089 L0 400.02 Z" class="st41"/>
			</g>
			<g id="shape90-207" transform="translate(409.751,387.997) rotate(90)">
				<title>Sheet.90</title>
				<path d="M0 400.02 a0.413539 0.4771 -180 0 0 0.41353 0.477089 L7.38 400.5 a0.413539 0.4771 -180 0 0 0.41353 -0.477089
							 L7.79 398.98 a0.413539 0.4771 -180 0 0 -0.41353 -0.477089 L0.41 398.5 a0.413539 0.4771 -180 0 0 -0.41353
							 0.477089 L0 400.02 Z" class="st41"/>
			</g>
			<g id="shape91-209" transform="translate(419.262,387.997) rotate(90)">
				<title>Sheet.91</title>
				<path d="M0 400.02 a0.413539 0.4771 -180 0 0 0.41353 0.477089 L7.38 400.5 a0.413539 0.4771 -180 0 0 0.41353 -0.477089
							 L7.79 398.98 a0.413539 0.4771 -180 0 0 -0.41353 -0.477089 L0.41 398.5 a0.413539 0.4771 -180 0 0 -0.41353
							 0.477089 L0 400.02 Z" class="st20"/>
			</g>
			<g id="shape92-211" transform="translate(11.2448,-16.0926)">
				<title>Sheet.92</title>
				<ellipse cx="1.65412" cy="398.445" rx="1.65412" ry="2.05515" class="st20"/>
			</g>
			<g id="shape93-213" transform="translate(4.1512,778.613) rotate(180)">
				<title>Sheet.93</title>
				<path d="M0.8 388.57 L2.82 388.57 a0.54077 0.623886 0 0 1 0.54077 0.550488 L3.36 399.88 a0.54077 0.623886 0 0 1 -0.54077
							 0.623886 L0.8 400.5 L0.8 388.57 Z" class="st42"/>
			</g>
			<g id="shape81-215">
				<text x="-15.67" y="409.75" class="st29">Azure network <tspan x="-0.75" dy="1em" class="st23">adapter</tspan></text>			</g>
		</g>
		<g id="group94-218" transform="translate(382.5,-94.5)">
			<title>Sheet.94</title>
			<g id="shape95-219" transform="translate(-5.0625,2.25001)">
				<title>Sheet.95</title>
				<rect x="0" y="342" width="63" height="58.5" class="st43"/>
			</g>
			<g id="group96-221" transform="translate(11.5793,-25.9342)">
				<title>Icon-identity-221</title>
				<desc>Azure AD app</desc>
				<g id="shape97-222">
					<title>Sheet.97</title>
					<path d="M1.73 388.51 L15.3 397.31 L29.11 388.47 L30.84 390.49 L15.3 400.5 L0 390.49 L1.73 388.51 Z"
							class="st44"/>
				</g>
				<g id="shape98-224" transform="translate(2.7586,-5.02031)">
					<title>Sheet.98</title>
					<path d="M0 392.4 L12.54 377.45 L25.34 392.41 L12.54 400.5 L0 392.4 Z" class="st13"/>
				</g>
				<g id="shape99-226" transform="translate(2.7586,-5.02031)">
					<title>Sheet.99</title>
					<path d="M12.54 377.45 L12.54 400.5 L0 392.4 L12.54 377.45 Z" class="st44"/>
				</g>
				<g id="shape100-228" transform="translate(15.3008,-5.02031)">
					<title>Sheet.100</title>
					<path d="M0 377.45 L0 400.5 L12.8 392.41 L0 377.45 Z" class="st45"/>
				</g>
				<g id="shape101-232" transform="translate(15.3008,-5.02031)">
					<title>Sheet.101</title>
					<path d="M0 389.36 L12.8 392.41 L0 400.5 L0 389.36 Z" class="st46"/>
				</g>
				<g id="shape102-234" transform="translate(2.7586,-5.02031)">
					<title>Sheet.102</title>
					<path d="M12.54 400.5 L0 392.4 L12.54 389.36 L12.54 400.5 Z" class="st47"/>
				</g>
				<g id="shape103-236" transform="translate(15.3008,1.13687E-13)">
					<title>Sheet.103</title>
					<path d="M0 400.5 L15.54 390.49 L13.81 388.47 L0 397.31 L0 400.5 Z" class="st48"/>
				</g>
				<g id="shape96-240">
					<text x="-4.87" y="408.22" class="st22">Azure AD <tspan x="7.48" dy="1.38em" class="st23">app</tspan></text>				</g>
			</g>
		</g>
		<g id="shape114-243" transform="translate(-319.5,126) rotate(-90)">
			<title>Sheet.114</title>
			<path d="M0 400.5 L27.21 400.5" class="st9"/>
		</g>
		<g id="group115-248" transform="translate(70.2833,-240.75)">
			<title>Sheet.115</title>
			<desc>Windows Admin Center</desc>
			<g id="shape116-249" transform="translate(0,-4.16688)">
				<title>Sheet.116</title>
				<path d="M17.71 399.59 a0.978935 0.957596 0 0 1 -1.02285 0.905689 L1.02 400.5 a0.978935 0.957596 0 0 1 -1.02285 -0.905689
							 L0 374.72 a0.978935 0.957596 0 0 1 1.02285 -0.905689 L16.69 373.81 a0.978935 0.957596 0 0 1 1.02285
							 0.905689 L17.71 399.59 Z" class="st49"/>
			</g>
			<g id="shape117-253" transform="translate(2.60378,-17.3692)">
				<title>Sheet.117</title>
				<path d="M0 398.42 A2.02923 1.985 0 0 1 1.92 396.36 L10.74 396.36 A2.02923 1.985 0 0 1 12.67 398.42 A2.03106 1.98679
							 0 0 1 10.74 400.5 L1.92 400.5 A2.03106 1.98679 0 0 1 0 398.42 Z" class="st50"/>
			</g>
			<g id="shape118-255" transform="translate(2.60378,-23.5336)">
				<title>Sheet.118</title>
				<path d="M0 398.42 A2.02923 1.985 0 0 1 1.92 396.35 L10.74 396.35 A2.02923 1.985 0 0 1 12.67 398.42 A2.03106 1.98679
							 0 0 1 10.74 400.5 L1.92 400.5 A2.03106 1.98679 0 0 1 0 398.42 Z" class="st50"/>
			</g>
			<g id="shape119-257" transform="translate(3.65774,-24.2173)">
				<title>Sheet.119</title>
				<ellipse cx="1.42357" cy="399.107" rx="1.42357" ry="1.39254" class="st44"/>
			</g>
			<g id="shape120-259" transform="translate(3.65774,-18.0529)">
				<title>Sheet.120</title>
				<ellipse cx="1.42357" cy="399.107" rx="1.42357" ry="1.39254" class="st44"/>
			</g>
			<g id="shape121-261" transform="translate(11.3685,0)">
				<title>Sheet.121</title>
				<path d="M0 400.5 L0 390.01 A1.11983 1.09542 0 0 1 1.12 388.92 L16.2 388.92 A1.11983 1.09542 0 0 1 17.32 390.01 L17.32
							 400.5 L0 400.5 Z" class="st51"/>
			</g>
			<g id="shape122-265" transform="translate(15.1872,-11.5824)">
				<title>Sheet.122</title>
				<path d="M9.72 400.5 L8.41 400.5 L8.41 398.65 a0.611148 0.597826 -180 0 0 -0.618467 -0.604986 L1.93 398.05 a0.609319
							 0.596036 -180 0 0 -0.616638 0.604986 L1.32 400.5 L0 400.5 L0 398.65 A1.90847 1.86686 0 0 1 1.93 396.77
							 L7.78 396.77 A1.90847 1.86686 0 0 1 9.71 398.65 L9.72 400.5 Z" class="st52"/>
			</g>
			<g id="shape123-269" transform="translate(11.3685,-5.08868)">
				<title>Sheet.123</title>
				<path d="M17.35 398.05 L0 398.05 L0 398.86 L6.9 398.86 L6.9 400.01 a0.503191 0.492222 -180 0 0 0.501361 0.490432
							 L10.16 400.5 a0.503191 0.492222 -180 0 0 0.501361 -0.490432 L10.66 398.86 L17.35 398.86 L17.35 398.05
							 Z" class="st13"/>
			</g>
			<g id="shape115-271">
				<text x="-27.18" y="411.08" class="st22">Windows Admin <tspan x="-5.56" dy="1.223em" class="st23">Center</tspan></text>			</g>
		</g>
		<g id="group1004-274" transform="translate(23.1429,-17.9999)">
			<title>logo.1002</title>
			<g id="group1005-275" transform="translate(4.31655E-13,-3.89767)">
				<title>Azure.1002</title>
				<g id="group1006-276">
					<title>Sheet.1006</title>
					<g id="shape1007-277">
						<title>Sheet.1007</title>
						<path d="M10.36 369.32 L19.65 369.32 L10.02 399.46 A1.45501 1.53658 0 0 1 8.64 400.5 L1.38 400.5 A1.4543
									 1.53582 0 0 1 0 398.47 L8.98 370.36 A1.45288 1.53432 0 0 1 10.36 369.32 Z" class="st53"/>
					</g>
					<g id="shape1008-281" transform="translate(7.91787,0)">
						<title>Sheet.1008</title>
						<path d="M15.27 388.95 L0.63 388.95 a0.677297 0.715264 -180 0 0 -0.462214 1.23723 L10.21 400.09 A1.45501
									 1.53658 -180 0 0 11.2 400.5 L19.5 400.5 L15.27 388.95 Z" class="st54"/>
					</g>
					<g id="group1009-283" transform="translate(11.2199,0)">
						<title>Sheet.1009</title>
						<g id="shape1010-284" transform="translate(6.39337,0)">
							<title>Sheet.1010</title>
							<path d="M2.97 400.5 L9.79 400.5 L5.57 388.95 L0 388.95 L3.22 399.02 A1.47068 1.55312 0 0 1 2.97 400.5
										 Z" class="st55"/>
						</g>
						<g id="shape1011-286" transform="translate(8.04357E-14,-18.1809)">
							<title>Sheet.1011</title>
							<path d="M4.27 400.5 L8.43 387.5 L0 387.5 A1.47282 1.55538 0 0 1 0.28 388.02 L4.27 400.5 Z"
									class="st55"/>
						</g>
					</g>
					<g id="group1012-288" transform="translate(10.6936,0)">
						<title>Sheet.1012</title>
						<g id="shape1013-289" transform="translate(0,-17.325)">
							<title>Sheet.1013</title>
							<path d="M0 386.64 L4.53 400.5 L5.16 398.53 L1.36 386.64 L0 386.64 Z" class="st56"/>
						</g>
						<g id="shape1014-291" transform="translate(6.34209,0)">
							<title>Sheet.1014</title>
							<path d="M2.24 400.5 L4.2 400.5 A2.00839 2.12097 -180 0 0 4.32 398.83 L1.16 388.95 L0 388.95 L3.28 399.2
										 a0.930838 0.983018 0 0 1 -0.878848 1.30041 L2.24 400.5 Z" class="st56"/>
						</g>
					</g>
					<g id="shape1015-293" transform="translate(10.47,0)">
						<title>Sheet.1015</title>
						<path d="M11.73 370.36 A1.45288 1.53432 -180 0 0 10.35 369.32 L0 369.32 A1.47638 1.55914 0 0 1 1.4 370.38
									 L10.37 398.44 A1.47567 1.55839 0 0 1 8.97 400.5 L19.33 400.5 A1.4543 1.53582 -180 0 0 20.71
									 398.47 L11.73 370.36 Z" class="st57"/>
					</g>
				</g>
			</g>
			<g id="shape1016-297" transform="translate(24.7958,0)">
				<title>Sheet.1016</title>
				<desc>Microsoft Azure</desc>
				<rect x="0" y="361.523" width="62.3626" height="38.9766" class="st21"/>
				<text x="5.04" y="377.41" class="st58">Microsoft <tspan x="15.46" dy="1.2em" class="st23">Azure</tspan></text>			</g>
		</g>
		<g id="group1017-301" transform="translate(432,-152.357)">
			<title>Vnet_hexbck.1017</title>
			<g id="shape1018-302" transform="translate(3.87558,-0.932567)">
				<title>Hexagon.1255</title>
				<path d="M12.48 388.28 L3.34 388.28 L-1.22 394.39 L3.34 400.5 L12.48 400.5 L17.05 394.39 L12.48 388.28 Z"
						class="st59"/>
			</g>
			<g id="group1019-304">
				<title>Sheet.1019</title>
				<g id="group1020-305" transform="translate(5.88364,-5.96604)">
					<title>Sheet.1020</title>
					<g id="shape1021-306">
						<title>Sheet.1021</title>
						<path d="M12.23 399.42 A1.51278 1.50952 90 1 1 10.72 397.91 A1.51148 1.50822 90 0 1 12.23 399.42 ZM5.89 397.92
									 A1.51278 1.50952 -90 1 0 7.4 399.43 A1.51148 1.50822 -90 0 0 5.89 397.92 ZM1.07 397.92 A1.51278
									 1.50952 -90 1 0 2.58 399.43 A1.51278 1.50952 -90 0 0 1.07 397.92 L1.07 397.92 Z" class="st60"/>
					</g>
				</g>
				<g id="group1022-310" transform="translate(0.00521395,0)">
					<title>Sheet.1022</title>
					<g id="shape1023-311">
						<title>Sheet.1023</title>
						<path d="M8.05 399.52 L7.19 400.39 a0.391913 0.391067 90 0 1 -0.55271 0 L0.23 393.99 a0.783827 0.782134 90
									 0 1 -7.77156E-16 -1.10907 L1.09 392.01 L8.05 398.96 a0.391913 0.391067 90 0 1 -1.77636E-14 0.55521
									 L8.05 399.52 Z" class="st61"/>
					</g>
				</g>
				<g id="group1024-313" transform="translate(0,-5.65893)">
					<title>Sheet.1024</title>
					<g id="shape1025-314">
						<title>Sheet.1025</title>
						<path d="M7.06 392.2 L7.93 393.08 a0.391913 0.391067 90 0 1 -2.66454E-15 0.55521 L1.1 400.5 L0.23 399.64
									 a0.783827 0.782134 90 0 1 1.11022E-16 -1.10907 L6.52 392.21 a0.391913 0.391067 90 0 1 0.554014
									 0 L7.06 392.2 Z" class="st62"/>
					</g>
				</g>
				<g id="group1026-316" transform="translate(15.2878,-0.00261275)">
					<title>Sheet.1026</title>
					<g id="shape1027-317">
						<title>Sheet.1027</title>
						<path d="M7.07 392.01 L7.94 392.88 a0.783827 0.782134 90 0 1 0 1.10907 L1.53 400.39 a0.391913 0.391067 90
									 0 1 -0.55271 0 L0.11 399.52 a0.391913 0.391067 90 0 1 -3.88578E-15 -0.553902 L7.07 392.01 Z"
								class="st61"/>
					</g>
				</g>
				<g id="group1028-319" transform="translate(15.4129,-5.66282)">
					<title>Sheet.1028</title>
					<g id="shape1029-320">
						<title>Sheet.1029</title>
						<path d="M7.82 399.64 L6.95 400.5 L0.11 393.63 a0.391913 0.391067 90 0 1 -7.99361E-15 -0.553902 L0.99 392.2
									 a0.391913 0.391067 90 0 1 0.55271 0 L7.82 398.52 a0.783827 0.782134 90 0 1 -0.00413832 1.10907
									 L7.82 399.64 Z" class="st62"/>
					</g>
				</g>
			</g>
		</g>
	</g>
</svg>
