<?xml version="1.0" encoding="UTF-8" standalone="no"?>
<!DOCTYPE svg PUBLIC "-//W3C//DTD SVG 1.1//EN" "http://www.w3.org/Graphics/SVG/1.1/DTD/svg11.dtd">
<!-- Generated by Microsoft Visio, SVG Export iot-predictive-maintenance.svg iot-predictive-maintenance -->
<svg xmlns="http://www.w3.org/2000/svg" xmlns:xlink="http://www.w3.org/1999/xlink" xmlns:ev="http://www.w3.org/2001/xml-events"
		width="13.75in" height="8.94291in" viewBox="0 0 990 643.89" xml:space="preserve" color-interpolation-filters="sRGB"
		class="st51">
	<style type="text/css">
	<![CDATA[
		.st1 {fill:#ffffff;stroke:none;stroke-width:0.25}
		.st2 {fill:#ffffff;stroke:#7f7f7f;stroke-dasharray:0.01,4.5;stroke-width:1.5}
		.st3 {fill:#ecf3fb;fill-opacity:0.99;stroke:none;stroke-width:1}
		.st4 {fill:#f8f8f8;stroke:none;stroke-width:0.25}
		.st5 {fill:none;stroke:none;stroke-width:0.25}
		.st6 {fill:#000000;font-family:Segoe UI;font-size:0.916672em}
		.st7 {font-size:1em}
		.st8 {fill:#000000;font-family:Segoe UI;font-size:1.00001em;font-stretch:semi-expanded;font-weight:bold}
		.st9 {fill:none;stroke:#7f7f7f;stroke-dasharray:0.01,4.5;stroke-width:1.5}
		.st10 {marker-end:url(#mrkr4-39);stroke:#000000;stroke-linecap:round;stroke-linejoin:round;stroke-width:1.5}
		.st11 {fill:#000000;fill-opacity:1;stroke:#000000;stroke-opacity:1;stroke-width:0.37313432835821}
		.st12 {fill:#000000;font-family:Segoe UI;font-size:1.16666em;font-stretch:semi-expanded;font-weight:bold}
		.st13 {fill:#000000;font-family:Segoe UI;font-size:1.16666em;font-weight:bold}
		.st14 {fill:#3e3e3e;stroke:none;stroke-linecap:butt;stroke-width:12.24}
		.st15 {fill:#1e1e1e;stroke:none;stroke-linecap:butt;stroke-width:12.24}
		.st16 {fill:#b8d432;stroke:none;stroke-linecap:butt;stroke-width:12.24}
		.st17 {fill:#feffff;stroke:none;stroke-width:0.25}
		.st18 {fill:url(#grad0-116)}
		.st19 {stroke:none;stroke-linecap:butt;stroke-width:0.75}
		.st20 {fill:#767676;stroke:none;stroke-linecap:butt;stroke-width:0.75}
		.st21 {fill:#999999}
		.st22 {fill:#a3a3a3;stroke:none;stroke-linecap:butt;stroke-width:0.75}
		.st23 {fill:#b3b3b3;stroke:none;stroke-linecap:butt;stroke-width:0.75}
		.st24 {fill:url(#grad0-130);stroke:none;stroke-linecap:butt;stroke-width:0.75}
		.st25 {fill:#999999;stroke:none;stroke-linecap:butt;stroke-width:0.75}
		.st26 {fill:url(#grad0-150);stroke:none;stroke-linecap:butt;stroke-width:0.75}
		.st27 {fill:#0078d4;stroke:none;stroke-linecap:butt;stroke-width:0.75}
		.st28 {fill:#ffffff;stroke:none;stroke-linecap:butt;stroke-width:0.75}
		.st29 {fill:url(#grad0-175);stroke:none;stroke-linecap:butt;stroke-width:32.0111}
		.st30 {fill:#b3b3b3;stroke:none;stroke-linecap:butt;stroke-width:32.0111}
		.st31 {fill:#f2f2f2;stroke:none;stroke-linecap:butt;stroke-width:32.0111}
		.st32 {fill:url(#grad0-186);stroke:none;stroke-linecap:butt;stroke-width:32.0111}
		.st33 {marker-start:url(#mrkr4-202);stroke:#000000;stroke-linecap:round;stroke-linejoin:round;stroke-width:1.5}
		.st34 {fill:#949494;stroke:none;stroke-linecap:butt;stroke-width:0.75}
		.st35 {fill:url(#grad0-251);stroke:none;stroke-linecap:butt;stroke-width:0.75}
		.st36 {fill:#50e6ff;stroke:none;stroke-linecap:butt;stroke-width:0.75}
		.st37 {fill:url(#grad7-267);stroke:none;stroke-linecap:butt;stroke-width:0.75}
		.st38 {fill:#f2f2f2;stroke:none;stroke-linecap:butt;stroke-width:0.75}
		.st39 {fill:#76bc2d;stroke:none;stroke-linecap:butt;stroke-width:0.75}
		.st40 {fill:#86d633;stroke:none;stroke-linecap:butt;stroke-width:0.75}
		.st41 {fill:#999999;fill-opacity:0.5;stroke:none;stroke-linecap:butt;stroke-width:0.75}
		.st42 {fill:#1490df;stroke:none;stroke-linecap:butt;stroke-width:0.75}
		.st43 {fill:url(#grad0-323);stroke:none;stroke-linecap:butt;stroke-width:0.75}
		.st44 {fill:url(#grad0-340);stroke:none;stroke-linecap:butt;stroke-width:0.75}
		.st45 {fill:#000000;fill-opacity:0.5;stroke:none;stroke-linecap:butt;stroke-width:0.75}
		.st46 {fill:#000000;fill-opacity:0.25;stroke:none;stroke-linecap:butt;stroke-width:0.75}
		.st47 {fill:url(#grad0-356);stroke:none;stroke-linecap:butt;stroke-width:0.75}
		.st48 {fill:#7f7f7f;font-family:Segoe UI Semibold;font-size:1.16666em}
		.st49 {fill:#107c10;stroke:none;stroke-width:1.5}
		.st50 {fill:#ffffff;font-family:Segoe UI;font-size:0.916672em}
		.st51 {fill:none;fill-rule:evenodd;font-size:12px;overflow:visible;stroke-linecap:square;stroke-miterlimit:3}
	]]>
	</style>

	<defs id="Patterns_And_Gradients">
		<linearGradient id="grad0-13" x1="0" y1="0" x2="1" y2="0" gradientTransform="rotate(90 0.5 0.5)">
			<stop offset="0.01" stop-color="#ffffff" stop-opacity="1"/>
			<stop offset="0.5" stop-color="#fefefe" stop-opacity="1"/>
			<stop offset="1" stop-color="#ffffff" stop-opacity="1"/>
		</linearGradient>
		<linearGradient id="grad0-17" x1="0" y1="0" x2="1" y2="0" gradientTransform="rotate(270 0.5 0.5)">
			<stop offset="0" stop-color="#fefefe" stop-opacity="1"/>
			<stop offset="1" stop-color="#ffffff" stop-opacity="1"/>
		</linearGradient>
		<linearGradient id="grad0-116" x1="0" y1="0" x2="1" y2="0" gradientTransform="rotate(-90 0.5 0.5)">
			<stop offset="0" stop-color="#0078d4" stop-opacity="1"/>
			<stop offset="0.16" stop-color="#1380da" stop-opacity="1"/>
			<stop offset="0.53" stop-color="#3c91e5" stop-opacity="1"/>
			<stop offset="0.82" stop-color="#559cec" stop-opacity="1"/>
			<stop offset="1" stop-color="#5ea0ef" stop-opacity="1"/>
		</linearGradient>
		<linearGradient id="grad0-130" x1="0" y1="0" x2="1" y2="0" gradientTransform="rotate(90 0.5 0.5)">
			<stop offset="0" stop-color="#333132" stop-opacity="1"/>
			<stop offset="1" stop-color="#5b5a5c" stop-opacity="1"/>
		</linearGradient>
		<linearGradient id="grad0-150" x1="0" y1="0" x2="1" y2="0" gradientTransform="rotate(-90 0.5 0.5)">
			<stop offset="0" stop-color="#32bedd" stop-opacity="1"/>
			<stop offset="0.775" stop-color="#32d4f5" stop-opacity="1"/>
		</linearGradient>
		<linearGradient id="grad0-175" x1="0" y1="0" x2="1" y2="0" gradientTransform="rotate(-90 0.5 0.5)">
			<stop offset="0" stop-color="#198ab3" stop-opacity="1"/>
			<stop offset="0.44" stop-color="#28b7db" stop-opacity="1"/>
			<stop offset="0.78" stop-color="#32d4f5" stop-opacity="1"/>
		</linearGradient>
		<linearGradient id="grad0-186" x1="0" y1="0" x2="1" y2="0" gradientTransform="rotate(-89.304723436312 0.5 0.5)">
			<stop offset="0" stop-color="#198ab3" stop-opacity="1"/>
			<stop offset="0.44" stop-color="#28b7db" stop-opacity="1"/>
			<stop offset="0.78" stop-color="#32d4f5" stop-opacity="1"/>
		</linearGradient>
		<linearGradient id="grad0-251" x1="0" y1="0" x2="1" y2="0" gradientTransform="rotate(-90.596448835524 0.5 0.5)">
			<stop offset="0" stop-color="#198ab3" stop-opacity="1"/>
			<stop offset="0" stop-color="#198ab3" stop-opacity="1"/>
			<stop offset="0.09" stop-color="#22a5cb" stop-opacity="1"/>
			<stop offset="0.19" stop-color="#29bade" stop-opacity="1"/>
			<stop offset="0.29" stop-color="#2ec9eb" stop-opacity="1"/>
			<stop offset="0.42" stop-color="#31d1f3" stop-opacity="1"/>
			<stop offset="0.62" stop-color="#32d4f5" stop-opacity="1"/>
		</linearGradient>
		<radialGradient id="grad7-267" cx="0" cy="0" r="1.4">
			<stop offset="0.185" stop-color="#5ea0ef" stop-opacity="1"/>
			<stop offset="1" stop-color="#0078d4" stop-opacity="1"/>
		</radialGradient>
		<linearGradient id="grad0-323" x1="0" y1="0" x2="1" y2="0" gradientTransform="rotate(-90 0.5 0.5)">
			<stop offset="0" stop-color="#fea11b" stop-opacity="1"/>
			<stop offset="0.285" stop-color="#fea51a" stop-opacity="1"/>
			<stop offset="0.545" stop-color="#feb018" stop-opacity="1"/>
			<stop offset="0.8" stop-color="#ffc314" stop-opacity="1"/>
			<stop offset="1" stop-color="#ffd70f" stop-opacity="1"/>
		</linearGradient>
		<linearGradient id="grad0-340" x1="0" y1="0" x2="1" y2="0" gradientTransform="rotate(116.95960434515 0.5 0.5)">
			<stop offset="0" stop-color="#114a8b" stop-opacity="1"/>
			<stop offset="1" stop-color="#0669bc" stop-opacity="1"/>
		</linearGradient>
		<linearGradient id="grad0-356" x1="0" y1="0" x2="1" y2="0" gradientTransform="rotate(61.849084498542 0.5 0.5)">
			<stop offset="0" stop-color="#3ccbf4" stop-opacity="1"/>
			<stop offset="1" stop-color="#2892df" stop-opacity="1"/>
		</linearGradient>
	</defs>
	<defs id="Markers">
		<g id="lend4">
			<path d="M 2 1 L 0 0 L 2 -1 L 2 1 " style="stroke:none"/>
		</g>
		<marker id="mrkr4-39" class="st11" refX="-5.36" orient="auto" markerUnits="strokeWidth" overflow="visible">
			<use xlink:href="#lend4" transform="scale(-2.68,-2.68) "/>
		</marker>
		<marker id="mrkr4-202" class="st11" refX="5.12" orient="auto" markerUnits="strokeWidth" overflow="visible">
			<use xlink:href="#lend4" transform="scale(2.68) "/>
		</marker>
	</defs>
	<g>
		<title>VBackground-1</title>
		<g id="shape1000-1">
			<title>Solid.1000</title>
			<rect x="0" y="0" width="990" height="643.89" class="st1"/>
		</g>
	</g>
	<g>
		<title>iot-predictive-maintenance</title>
		<g id="group1213-3" transform="translate(458.319,-63.8445)">
			<title>Plain.1213</title>
			<g id="group1214-4">
				<title>Sheet.1214</title>
				<g id="shape1215-5" transform="translate(2.88,2.88)">
					<title>Sheet.1215</title>
				</g>
				<g id="shape1214-7">
					<path d="M9 643.89 L247.84 643.89 L486.68 643.89 A9 9 -180 0 0 495.68 634.89 L495.68 144.35 A9 9 -180 0 0 486.68
								 135.35 L247.84 135.35 L9 135.35 A9 9 -180 0 0 0 144.35 L0 634.89 A9 9 -180 0 0 9 643.89 Z"
							class="st2"/>
				</g>
			</g>
			<g id="group1216-9" transform="translate(0,-486.036)">
				<title>Sheet.1216</title>
				<g id="shape1217-10">
					<title>Sheet.1217</title>
				</g>
				<g id="shape1216-14"/>
			</g>
		</g>
		<g id="shape1608-18" transform="translate(165.818,-76.5)">
			<title>Sheet.1608</title>
			<rect x="0" y="173.64" width="257.182" height="470.25" rx="4.5" ry="4.5" class="st3"/>
		</g>
		<g id="group1602-20" transform="translate(723.591,-223.919)">
			<title>Sheet.1602</title>
			<g id="shape1603-21">
				<title>Sheet.1603</title>
				<rect x="0" y="522.354" width="86.625" height="121.536" rx="9" ry="9" class="st4"/>
			</g>
			<g id="shape1604-23" transform="translate(10.125,0)">
				<title>Sheet.1604</title>
				<desc>Azure Functions</desc>
				<rect x="0" y="591.627" width="63" height="52.2626" class="st5"/>
				<text x="17.56" y="614.46" class="st6">Azure <tspan x="8.18" dy="1.2em" class="st7">Functions</tspan></text>			</g>
		</g>
		<g id="shape1308-27" transform="translate(169.091,-519.818)">
			<title>Sheet.1308</title>
			<desc>IoT Edge</desc>
			<rect x="0" y="620.265" width="71.5909" height="23.625" class="st5"/>
			<text x="4" y="635.68" class="st8">IoT Edge</text>		</g>
		<g id="shape1313-30" transform="translate(40.2632,-62.4208)">
			<title>Sheet.1313</title>
			<rect x="0" y="135.354" width="398.487" height="508.536" rx="9" ry="9" class="st9"/>
		</g>
		<g id="group1360-32" transform="translate(463.5,-181.686)">
			<title>Sheet.1360</title>
		</g>
		<g id="group1362-33" transform="translate(462.819,-324)">
			<title>Sheet.1362</title>
		</g>
		<g id="shape1419-34" transform="translate(382.909,-302.687)">
			<title>Arrow (Straight).1419</title>
			<path d="M0 643.89 L81.41 643.89" class="st10"/>
		</g>
		<g id="shape1422-40" transform="translate(127.636,-300.88)">
			<title>Arrow (Straight).1422</title>
			<path d="M0 643.89 L57.82 643.89" class="st10"/>
		</g>
		<g id="shape1424-45" transform="translate(553.773,-284.687)">
			<title>Arrow (Straight).1424</title>
			<path d="M0 643.89 L37.51 643.89" class="st10"/>
		</g>
		<g id="shape1425-50" transform="translate(289.125,-288)">
			<title>Arrow (Straight).1425</title>
			<path d="M0 643.89 L32.67 643.89" class="st10"/>
		</g>
		<g id="shape1429-55" transform="translate(462.162,-572.108)">
			<title>Sheet.1429</title>
			<desc>Azure</desc>
			<rect x="0" y="620.265" width="67.7128" height="23.625" class="st5"/>
			<text x="4" y="636.28" class="st12">Azure</text>		</g>
		<g id="shape1430-58" transform="translate(39.2143,-574.071)">
			<title>Sheet.1430</title>
			<desc>Bungalow</desc>
			<rect x="0" y="620.265" width="89.9153" height="23.625" class="st5"/>
			<text x="4" y="636.28" class="st13">Bungalow</text>		</g>
		<g id="shape1459-61" transform="translate(326.35,-304.364) scale(-1,1)">
			<title>Arrow (Straight).1459</title>
			<path d="M0 643.89 L29.22 643.89" class="st10"/>
		</g>
		<g id="group1523-66" transform="translate(51.6,-239.419)">
			<title>Sheet.1523</title>
			<g id="shape1065-67" transform="translate(-5.058,-2.49986)">
				<title>Sheet.1065</title>
				<rect x="0" y="522.354" width="86.616" height="121.536" rx="9" ry="9" class="st4"/>
			</g>
			<g id="group1507-69" transform="translate(25.0714,-63.8367)">
				<title>Sheet.1507</title>
				<g id="shape1508-70">
					<title>Sheet.1508</title>
					<path d="M26.36 641.64 C26.36 642.9 25.37 643.89 24.11 643.89 L2.25 643.89 C0.99 643.89 0 642.9 0 641.64 L0 601.16
								 C0 599.9 0.99 598.91 2.25 598.91 L24.11 598.91 C25.37 598.91 26.36 599.9 26.36 601.16 L26.36 641.64
								 Z" class="st14"/>
				</g>
				<g id="shape1509-72" transform="translate(3.77816,-17.8113)">
					<title>Sheet.1509</title>
					<path d="M0 641.01 C0 639.39 1.26 638.13 2.88 638.13 L16.01 638.13 C17.63 638.13 18.89 639.39 18.89 641.01 C18.89
								 642.63 17.63 643.89 16.01 643.89 L2.88 643.89 C1.35 643.89 0 642.63 0 641.01 Z" class="st15"/>
				</g>
				<g id="shape1510-74" transform="translate(4.94759,-18.8008)">
					<title>Sheet.1510</title>
					<ellipse cx="1.88908" cy="642.001" rx="1.88908" ry="1.88908" class="st16"/>
				</g>
				<g id="shape1511-76" transform="translate(3.77816,-26.3571)">
					<title>Sheet.1511</title>
					<path d="M0 641.01 C0 639.39 1.26 638.13 2.88 638.13 L16.01 638.13 C17.63 638.13 18.89 639.39 18.89 641.01 C18.89
								 642.63 17.63 643.89 16.01 643.89 L2.88 643.89 C1.35 643.89 0 642.63 0 641.01 Z" class="st15"/>
				</g>
				<g id="shape1512-78" transform="translate(4.94759,-27.3467)">
					<title>Sheet.1512</title>
					<ellipse cx="1.88908" cy="642.001" rx="1.88908" ry="1.88908" class="st16"/>
				</g>
				<g id="shape1513-80" transform="translate(3.77816,-34.813)">
					<title>Sheet.1513</title>
					<path d="M0 641.01 C0 639.39 1.26 638.13 2.88 638.13 L16.01 638.13 C17.63 638.13 18.89 639.39 18.89 641.01 C18.89
								 642.63 17.63 643.89 16.01 643.89 L2.88 643.89 C1.35 643.89 0 642.54 0 641.01 Z" class="st15"/>
				</g>
				<g id="shape1514-82" transform="translate(4.94759,-35.8025)">
					<title>Sheet.1514</title>
					<ellipse cx="1.88908" cy="642.001" rx="1.88908" ry="1.88908" class="st16"/>
				</g>
			</g>
			<g id="shape1515-84" transform="translate(9.5625,-11.7562)">
				<title>Sheet.1515</title>
				<desc>Image file server</desc>
				<rect x="0" y="610.14" width="57.375" height="33.75" class="st5"/>
				<text x="4.8" y="623.11" class="st6">Image file <tspan x="14.14" dy="1.282em" class="st7">server</tspan></text>			</g>
		</g>
		<g id="shape1516-88" transform="translate(194.509,-432.545)">
			<title>Sheet.1516</title>
			<desc>Edge agent</desc>
			<rect x="0" y="571.89" width="93.6" height="72" rx="9" ry="9" class="st17"/>
			<text x="19.27" y="611.19" class="st6">Edge agent</text>		</g>
		<g id="shape1517-91" transform="translate(194.509,-349.222)">
			<title>Sheet.1517</title>
			<desc>Polling module</desc>
			<rect x="0" y="571.89" width="93.6" height="72" rx="9" ry="9" class="st17"/>
			<text x="10.12" y="611.19" class="st6">Polling module</text>		</g>
		<g id="shape1518-94" transform="translate(194.509,-265.898)">
			<title>Sheet.1518</title>
			<desc>Machine learning model</desc>
			<rect x="0" y="571.89" width="93.6" height="72" rx="9" ry="9" class="st17"/>
			<text x="4.87" y="604.59" class="st6">Machine learning <tspan x="31.39" dy="1.2em" class="st7">model</tspan></text>		</g>
		<g id="shape1519-98" transform="translate(194.509,-182.574)">
			<title>Sheet.1519</title>
			<desc>Image uploader</desc>
			<rect x="0" y="571.89" width="93.6" height="72" rx="9" ry="9" class="st17"/>
			<text x="8.45" y="611.19" class="st6">Image uploader</text>		</g>
		<g id="shape1520-101" transform="translate(194.509,-99.2508)">
			<title>Sheet.1520</title>
			<desc>Alert Handler</desc>
			<rect x="0" y="571.89" width="93.6" height="72" rx="9" ry="9" class="st17"/>
			<text x="14.59" y="611.19" class="st6">Alert Handler</text>		</g>
		<g id="group1538-104" transform="translate(470.267,-388.364)">
			<title>Sheet.1538</title>
			<g id="group1537-105">
				<title>Sheet.1537</title>
				<g id="shape1460-106">
					<title>Sheet.1460</title>
					<rect x="0" y="522.37" width="90" height="121.519" rx="9" ry="9" class="st4"/>
				</g>
				<g id="shape1350-108" transform="translate(-6.39488E-14,-17.6995)">
					<title>Sheet.1350</title>
					<desc>Azure Container Registry</desc>
					<rect x="0" y="598.89" width="90" height="45" class="st5"/>
					<text x="5.92" y="618.09" class="st6">Azure Container <tspan x="25.49" dy="1.2em" class="st7">Registry</tspan></text>				</g>
			</g>
			<g id="group1525-112" transform="translate(27,-67.7143)">
				<title>Container Registries.1525</title>
				<g id="shape1526-113" transform="translate(0,-6.26182)">
					<title>Sheet.1526</title>
					<path d="M32.46 629.73 A8.38466 9.14182 -180 0 0 28.02 627.29 A9.82546 10.7127 -180 0 0 17.81 617.03 A10.1456
								 11.0618 -180 0 0 8.12 624.21 A9.24514 10.08 -180 0 0 0 633.98 A9.46526 10.32 -180 0 0 9.79 643.89
								 L26.91 643.89 A8.00445 8.72727 -180 0 0 34.76 635.58 A7.34408 8.00727 -180 0 0 32.48 629.84 L32.46
								 629.73 Z" class="st18"/>
					<path d="M32.46 629.73 A8.38466 9.14182 -180 0 0 28.02 627.29 A9.82546 10.7127 -180 0 0 17.81 617.03 A10.1456
								 11.0618 -180 0 0 8.12 624.21 A9.24514 10.08 -180 0 0 0 633.98 A9.46526 10.32 -180 0 0 9.79 643.89
								 L26.91 643.89 A8.00445 8.72727 -180 0 0 34.76 635.58 A7.34408 8.00727 -180 0 0 32.48 629.84"
							class="st19"/>
				</g>
				<g id="shape1527-118" transform="translate(20.1512,-10.08)">
					<title>Sheet.1527</title>
					<path d="M0 630.89 L0.02 640.22 L15.85 643.89 L15.85 637.39 L0 630.89 Z" class="st20"/>
				</g>
				<g id="shape1528-120" transform="translate(15.8688,-11.5636)">
					<title>Sheet.1528</title>
					<path d="M4.28 632.37 L0 635.21 L0 643.89 L4.3 641.71 L4.28 632.37 Z" class="st21"/>
					<path d="M4.28 632.37 L0 635.21 L0 643.89 L4.3 641.71" class="st19"/>
				</g>
				<g id="shape1529-123" transform="translate(21.632,-11.4982)">
					<title>Sheet.1529</title>
					<path d="M5.74 641.77 L7.18 642.21 L7.18 637.13 L5.74 636.58 L5.74 641.77 ZM4.3 636.08 L2.86 635.51 L2.86 640.94
								 L4.3 641.38 L4.3 636.08 ZM8.62 642.62 L10.03 643.04 L10.07 638.2 L8.62 637.67 L8.62 642.62 ZM0 640.14
								 L1.44 640.53 L1.44 635.01 L0 634.49 L0 640.14 ZM12.93 639.26 L11.49 638.72 L11.49 643.45 L12.93
								 643.89 L12.93 639.26 Z" class="st22"/>
				</g>
				<g id="shape1530-125" transform="translate(16.6092,-13.44)">
					<title>Sheet.1530</title>
					<path d="M0.72 643.43 L0 643.89 L0 637.72 L0.72 637.3 L0.72 643.43 ZM2.14 636.41 L1.4 636.93 L1.4 642.93 L2.14
								 642.49 L2.14 636.41 Z" class="st23"/>
				</g>
				<g id="shape1531-127" transform="translate(15.8688,-8.46545)">
					<title>Sheet.1531</title>
					<path d="M20.13 642.28 L15.81 643.89 L0 640.79 L4.3 638.61 L20.13 642.28 Z" class="st24"/>
				</g>
				<g id="shape1532-131" transform="translate(20.0912,-0.130909)">
					<title>Sheet.1532</title>
					<path d="M15.91 640.6 L0 643.89 L0.08 631.69 L15.91 634.9 L15.91 640.6 Z" class="st20"/>
				</g>
				<g id="shape1533-133" transform="translate(21.632,-2.13818)">
					<title>Sheet.1533</title>
					<path d="M0 643.89 L0 636.14 L1.44 636.34 L1.44 643.63 L0 643.89 ZM4.3 643.1 L2.86 643.39 L2.86 636.54 L4.3 636.78
								 L4.3 643.1 ZM5.74 642.86 L5.74 636.93 L7.18 637.13 L7.18 642.58 L5.74 642.86 ZM10.05 642.04 L8.62
								 642.32 L8.62 637.32 L10.05 637.56 L10.05 642.04 ZM12.97 641.53 L11.49 641.82 L11.49 637.72 L12.87
								 637.91 L12.97 641.53 Z" class="st22"/>
				</g>
				<g id="shape1534-135" transform="translate(15.8688,0)">
					<title>Sheet.1534</title>
					<path d="M0 640.97 L0 633.85 L4.32 631.67 L4.32 643.89 L0 640.97 Z" class="st25"/>
				</g>
				<g id="shape1535-137" transform="translate(16.5892,-2.05091)">
					<title>Sheet.1535</title>
					<path d="M0.64 643 L0 642.65 L0 636.62 L0.64 636.3 L0.64 643 ZM2.18 635.47 L1.42 635.88 L1.42 643.48 L2.16 643.89
								 L2.16 635.47 L2.18 635.47 Z" class="st23"/>
				</g>
			</g>
		</g>
		<g id="group1582-139" transform="translate(471.955,-87.225)">
			<title>Sheet.1582</title>
			<g id="shape1573-140" transform="translate(0,8.44454)">
				<title>Sheet.1573</title>
				<rect x="0" y="522.354" width="86.625" height="121.536" rx="9" ry="9" class="st4"/>
			</g>
			<g id="shape1574-142" transform="translate(11.8125,0)">
				<title>Sheet.1574</title>
				<desc>Azure Blob Storage</desc>
				<rect x="0" y="598.89" width="63" height="45" class="st5"/>
				<text x="5.12" y="618.09" class="st6">Azure Blob <tspan x="12.67" dy="1.2em" class="st7">Storage</tspan></text>			</g>
			<g id="group1575-146" transform="translate(26.0325,-61.5)">
				<title>Blob Block.1575</title>
				<g id="shape1576-147">
					<title>Sheet.1576</title>
					<path d="M0 622.72 L34.56 622.72 L34.56 642.69 A1.15471 1.19684 0 0 1 33.41 643.89 L1.15 643.89 A1.15471 1.19684
								 0 0 1 0 642.69 L0 622.72 Z" class="st26"/>
				</g>
				<g id="shape1577-151" transform="translate(0,-21.168)">
					<title>Sheet.1577</title>
					<path d="M1.16 636.26 L33.4 636.26 A1.15471 1.19684 0 0 1 34.55 637.45 L34.55 643.89 L0 643.89 L0 637.45 A1.15471
								 1.19684 0 0 1 1.16 636.26 Z" class="st27"/>
				</g>
				<g id="shape1578-153" transform="translate(3.71622,-11.3299)">
					<title>Sheet.1578</title>
					<path d="M-0 643.29 a0.575336 0.596326 -180 0 0 0.575322 0.596313 L12.19 643.89 a0.575336 0.596326 -180 0 0 0.575322
								 -0.596313 L12.77 637.31 a0.575336 0.596326 -180 0 0 -0.575322 -0.596313 L0.58 636.71 a0.575336 0.596326
								 -180 0 0 -0.575322 0.596313 L0 643.29 Z" class="st27"/>
				</g>
				<g id="shape1579-155" transform="translate(17.9631,-11.3299)">
					<title>Sheet.1579</title>
					<path d="M-0 643.29 a0.575336 0.596326 -180 0 0 0.575322 0.596313 L12.19 643.89 a0.575336 0.596326 -180 0 0 0.575322
								 -0.596313 L12.77 637.31 a0.575336 0.596326 -180 0 0 -0.575322 -0.596313 L0.58 636.71 a0.575336 0.596326
								 -180 0 0 -0.575322 0.596313 L0 643.29 Z" class="st28"/>
				</g>
				<g id="shape1580-157" transform="translate(3.65116,-2.73503)">
					<title>Sheet.1580</title>
					<path d="M-0 643.29 a0.575336 0.596326 -180 0 0 0.575322 0.596313 L12.19 643.89 a0.575336 0.596326 -180 0 0 0.575322
								 -0.596313 L12.77 637.31 a0.575336 0.596326 -180 0 0 -0.575322 -0.596313 L0.58 636.71 a0.575336 0.596326
								 -180 0 0 -0.575322 0.596313 L0 643.29 Z" class="st27"/>
				</g>
				<g id="shape1581-159" transform="translate(17.898,-2.73503)">
					<title>Sheet.1581</title>
					<path d="M-0 643.29 a0.575336 0.596326 -180 0 0 0.575322 0.596313 L12.19 643.89 a0.575336 0.596326 -180 0 0 0.575322
								 -0.596313 L12.77 637.31 a0.575336 0.596326 -180 0 0 -0.575322 -0.596313 L0.58 636.71 a0.575336 0.596326
								 -180 0 0 -0.575322 0.596313 L0 643.29 Z" class="st27"/>
				</g>
			</g>
		</g>
		<g id="group1607-161" transform="translate(329.625,-241.053)">
			<title>Sheet.1607</title>
			<g id="shape1521-162">
				<title>Sheet.1521</title>
				<rect x="0" y="520.622" width="83.7321" height="123.268" rx="9" ry="9" class="st17"/>
			</g>
			<g id="shape1522-164" transform="translate(6.99107,-2.25)">
				<title>Sheet.1522</title>
				<desc>Edge hub</desc>
				<rect x="0" y="605.64" width="69.75" height="38.25" class="st5"/>
				<text x="11.77" y="628.36" class="st6">Edge hub</text>			</g>
			<g id="group1583-167" transform="translate(19.3661,-54.75)">
				<title>Sheet.1583</title>
				<g id="group1584-168">
					<title>Page-1</title>
					<g id="group1585-169">
						<title>IoT Edge.19705</title>
						<g id="group1586-170">
							<title>layer1</title>
							<g id="group1587-171" transform="translate(0,-12.7624)">
								<title>path12</title>
								<g id="shape1588-172">
									<title>Sheet.1588</title>
									<path d="M45 633.77 A10.2531 10.1505 -90 0 0 36.23 624.05 A12.8795 12.7507 -90 0 0 23.1 611.65
												 A13.2078 13.0756 -90 0 0 10.6 620.26 A12.1724 12.0506 -90 0 0 0 631.98 A12.3744
												 12.2507 -90 0 0 12.68 643.87 L34.3 643.87 A1.96981 1.9501 -90 0 0 34.86 643.87 A10.3288
												 10.2255 -90 0 0 45 633.77 Z" class="st29"/>
								</g>
							</g>
							<g id="group1589-176" transform="translate(21.4511,-8.23502)">
								<title>path14</title>
								<g id="shape1590-177">
									<title>Sheet.1590</title>
									<rect x="0" y="628.258" width="1.9501" height="15.6321" class="st30"/>
								</g>
							</g>
							<g id="group1591-179" transform="translate(17.2259,-23.3364)">
								<title>circle16</title>
								<g id="shape1592-180">
									<title>Sheet.1592</title>
									<ellipse cx="5.20027" cy="638.637" rx="5.20027" ry="5.25281" class="st31"/>
								</g>
							</g>
							<g id="group1593-182" transform="translate(17.7009,0)">
								<title>rect18</title>
								<g id="shape1594-183">
									<title>Sheet.1594</title>
									<path d="M-0 642.04 A1.84358 1.82513 -90 0 0 1.83 643.89 L7.63 643.89 A1.84358 1.82513 -90 0
												 0 9.45 642.04 L9.45 636.18 A1.84358 1.82513 -90 0 0 7.63 634.34 L1.83 634.34 A1.84358
												 1.82513 -90 0 0 -0 636.18 L0 642.04 Z" class="st32"/>
								</g>
							</g>
						</g>
					</g>
				</g>
			</g>
		</g>
		<g id="shape1611-187" transform="translate(150.75,987.405) scale(1,-1)">
			<title>Top/bottom to side.1611</title>
			<path d="M0 643.89 L0 560.64 L35.84 560.64" class="st10"/>
		</g>
		<g id="shape1612-192" transform="translate(150.75,-297)">
			<title>Top/bottom to side.1612</title>
			<path d="M0 643.89 L0 551.64 L34.71 551.64" class="st10"/>
		</g>
		<g id="shape1613-197" transform="translate(366.75,1047.03) rotate(180)">
			<title>Top/bottom to side.1613</title>
			<path d="M0 636.21 L0 635.85 L0 618.01 L78.19 618.01" class="st33"/>
		</g>
		<g id="shape1614-203" transform="translate(369,-364.5) scale(-1,1)">
			<title>Top/bottom to side.1614</title>
			<path d="M0 636.21 L0 635.85 L0 618.01 L79.87 618.01" class="st33"/>
		</g>
		<g id="shape1615-208" transform="translate(468,-476.182) scale(-1,1)">
			<title>Arrow (Straight).1615</title>
			<path d="M0 643.89 L167.32 643.89" class="st10"/>
		</g>
		<g id="shape1616-213" transform="translate(289.091,-121.636)">
			<title>Arrow (Straight).1616</title>
			<path d="M0 643.89 L176.32 643.89" class="st10"/>
		</g>
		<g id="shape1617-218" transform="translate(378,1049.28) rotate(180)">
			<title>Top/bottom to side.1617</title>
			<path d="M0 643.89 L0 546.01 L80.83 546.01" class="st10"/>
		</g>
		<g id="group1487-223" transform="translate(471.955,-223.919)">
			<title>Sheet.1487</title>
			<g id="shape1488-224">
				<title>Sheet.1488</title>
				<rect x="0" y="522.354" width="86.625" height="121.536" rx="9" ry="9" class="st4"/>
			</g>
			<g id="shape1489-226" transform="translate(10.125,0)">
				<title>Sheet.1489</title>
				<desc>Azure IoT Hub</desc>
				<rect x="0" y="591.627" width="63" height="52.2626" class="st5"/>
				<text x="8.49" y="614.46" class="st6">Azure IoT <tspan x="21.25" dy="1.2em" class="st7">Hub</tspan></text>			</g>
			<g id="group1490-230" transform="translate(23.625,-62.9208)">
				<title>IOT Hub.1045</title>
				<g id="shape1491-231" transform="translate(18.9074,-17.4229)">
					<title>fa3a22e9-e4e8-46a1-bc09-f953274</title>
					<ellipse cx="4.15709" cy="639.042" rx="4.15709" ry="4.8479" class="st28"/>
				</g>
				<g id="shape1492-233" transform="translate(26.7573,-4.03582)">
					<title>eb214416-6791-4934-ac0c-35afaa8</title>
					<ellipse cx="3.27081" cy="640.075" rx="3.27081" ry="3.81434" class="st28"/>
				</g>
				<g id="shape1493-235" transform="translate(14.286,-7.18572)">
					<title>a4424413-b91f-48da-aedd-39e3a97</title>
					<ellipse cx="2.80657" cy="640.617" rx="2.80657" ry="3.27295" class="st28"/>
				</g>
				<g id="shape1494-237" transform="translate(11.585,-31.3268)">
					<title>f7ecfc1a-3268-471b-9464-57023bf</title>
					<ellipse cx="3.48183" cy="639.829" rx="3.48183" ry="4.06043" class="st28"/>
				</g>
				<g id="shape1495-239" transform="translate(2.93318,-17.1522)">
					<title>b4388938-ad80-41b4-b729-5c21e3e</title>
					<ellipse cx="2.80657" cy="640.617" rx="2.80657" ry="3.27295" class="st28"/>
				</g>
				<g id="shape1496-241" transform="translate(5.65533,-7.57946)">
					<title>Sheet.1496</title>
					<path d="M25.13 642.86 L18.11 628.51 L17.41 628.98 L17.98 628.48 L10.02 615.29 L8.57 616.52 L15.62 628.21 L0
								 629.72 L0.15 631.83 L15.62 630.33 L10.49 640.27 L12.03 641.36 L17.3 631.12 L23.57 643.89 L25.13
								 642.86 Z" class="st34"/>
				</g>
				<g id="group1497-243">
					<title>Sheet.1497</title>
					<g id="shape1498-244" transform="translate(25.6811,-29.9979)">
						<title>Sheet.1498</title>
						<path d="M10.32 633.87 A1.54045 1.79643 -180 0 0 8.78 632.08 L0.76 632.08 a0.759672 0.885911 -180 0 0 -0.759672
									 0.885911 L0 636.43 a0.759672 0.885911 -180 0 0 0.759672 0.885911 L5.72 637.32 L5.72 642.98 a0.801876
									 0.935128 -180 0 0 0.780774 0.91052 L9.45 643.89 a0.801876 0.935128 -180 0 0 0.780774 -0.91052
									 L10.23 633.87 L10.32 633.87 Z" class="st34"/>
					</g>
					<g id="shape1499-246">
						<title>Sheet.1499</title>
						<path d="M9.56 638.67 L4.52 638.67 L4.52 633.01 a0.801876 0.935128 -180 0 0 -0.780774 -0.91052 L0.78 632.1
									 a0.801876 0.935128 -180 0 0 -0.780774 0.91052 L0 642.12 A1.54045 1.79643 -180 0 0 1.54 643.89
									 L9.56 643.89 a0.759672 0.885911 -180 0 0 0.759672 -0.885911 L10.32 639.56 a0.759672 0.885911
									 -180 0 0 -0.759672 -0.885911 Z" class="st34"/>
					</g>
				</g>
				<g id="shape1500-248" transform="translate(2.93318,-5.11969)">
					<title>Sheet.1500</title>
					<path d="M20.13 621.94 A4.2204 4.92173 0 1 1 15.91 626.74 A4.2204 4.92173 0 0 1 20.13 621.94 ZM8.74 613.62 A3.50293
								 4.08503 -180 1 0 12.15 609.56 A3.48183 4.06043 -180 0 0 8.74 613.62 ZM0 628.56 A2.80657 3.27295
								 -180 1 0 2.81 625.29 A2.80657 3.27295 -180 0 0 0 628.56 ZM11.35 638.53 A2.82767 3.29756 -180 1 0
								 14.18 635.25 A2.80657 3.27295 -180 0 0 11.35 638.53 ZM23.85 641.16 A3.27081 3.81434 -180 1 0 27.12
								 637.37 A3.2286 3.76512 -180 0 0 23.85 641.16 Z" class="st35"/>
				</g>
			</g>
		</g>
		<g id="group1567-252" transform="translate(849.409,-223.919)">
			<title>Sheet.1567</title>
			<g id="shape1565-253">
				<title>Sheet.1565</title>
				<rect x="0" y="522.354" width="86.625" height="121.536" rx="9" ry="9" class="st4"/>
			</g>
			<g id="shape1566-255" transform="translate(11.8125,0)">
				<title>Sheet.1566</title>
				<desc>Azure Cosmos DB</desc>
				<rect x="0" y="591.627" width="63" height="52.2626" class="st5"/>
				<text x="17.56" y="607.86" class="st6">Azure <tspan x="12.24" dy="1.2em" class="st7">Cosmos </tspan><tspan
							x="24.49" dy="1.2em" class="st7">DB</tspan></text>			</g>
			<g id="group1557-260" transform="translate(23.625,-57.4157)">
				<title>Azure Cosmos DB.1557</title>
				<g id="group1558-261">
					<title>Sheet.1558</title>
					<g id="shape1559-262" transform="translate(0.919799,0)">
						<title>Sheet.1559</title>
						<path d="M5.27 610.93 C5.05 610.93 4.88 610.72 4.88 610.46 C4.88 610.46 4.88 610.46 4.88 610.45 C4.88 607.45
									 2.87 605.03 0.39 605.02 C0.18 605.02 0 604.81 0 604.55 C0 604.28 0.18 604.07 0.39 604.07 C2.87
									 604.07 4.88 601.63 4.88 598.64 C4.88 598.37 5.05 598.16 5.27 598.16 C5.27 598.16 5.27 598.16
									 5.27 598.16 C5.49 598.16 5.66 598.37 5.66 598.63 C5.66 598.63 5.66 598.63 5.66 598.64 C5.67
									 601.63 7.67 604.06 10.15 604.07 C10.37 604.07 10.54 604.28 10.54 604.54 C10.54 604.54 10.54
									 604.54 10.54 604.54 C10.54 604.81 10.37 605.02 10.15 605.02 C10.15 605.02 10.15 605.02 10.15
									 605.02 C7.67 605.02 5.67 607.45 5.66 610.45 C5.66 610.71 5.49 610.93 5.27 610.93 ZM33.53 643.89
									 C33.35 643.89 33.21 643.72 33.21 643.5 C33.21 641.1 31.6 639.17 29.63 639.16 C29.45 639.16 29.31
									 638.99 29.31 638.78 C29.31 638.57 29.45 638.4 29.63 638.4 C31.61 638.4 33.21 636.45 33.21 634.06
									 C33.21 633.85 33.35 633.67 33.53 633.67 C33.7 633.67 33.84 633.84 33.84 634.06 C33.84 636.46
									 35.45 638.4 37.43 638.4 C37.6 638.4 37.75 638.57 37.75 638.78 C37.75 639 37.6 639.17 37.43 639.17
									 C35.45 639.17 33.85 641.11 33.84 643.51 C33.84 643.72 33.7 643.89 33.53 643.89 Z" class="st36"/>
					</g>
					<g id="shape1560-264" transform="translate(4.60346,-4.71304)">
						<title>Sheet.1560</title>
						<path d="M28.41 621.76 C30.17 630.68 25.63 639.63 18.27 641.76 C10.91 643.89 3.52 638.39 1.76 629.47 C0 620.56
									 4.54 611.61 11.9 609.48 C19.26 607.35 26.65 612.85 28.41 621.76 Z" class="st37"/>
					</g>
					<g id="group1561-268" transform="translate(5.37591,-11.6785)">
						<title>Sheet.1561</title>
						<g id="shape1562-269">
							<title>Sheet.1562</title>
							<path d="M6.97 643.83 C8.98 643.89 10.66 641.96 10.72 639.52 C10.77 637.07 9.18 635.03 7.16 634.97 C7.1
										 634.97 7.04 634.97 6.98 634.97 C6.99 634.84 6.99 634.72 6.99 634.59 C6.97 632.14 5.32 630.16
										 3.28 630.17 L0.54 630.17 C0 635.13 1.3 640.14 4.1 643.83 L6.97 643.83 ZM27.81 629.5 C27.81
										 629.46 27.81 629.42 27.79 629.38 C27.35 626.49 26.26 623.79 24.65 621.59 C24.44 621.49 24.23
										 621.41 24.01 621.35 C21.87 620.61 19.64 622.11 19.03 624.7 C18.94 625.08 18.89 625.46 18.88
										 625.85 C18.73 625.83 18.58 625.81 18.43 625.81 C16.29 625.81 14.56 627.91 14.56 630.51 C14.56
										 632.5 15.59 634.27 17.14 634.93 C17.52 635.11 17.93 635.21 18.34 635.2 L22.87 635.2 C24.69
										 633.54 26.35 631.62 27.81 629.5 Z" class="st38"/>
						</g>
					</g>
					<g id="shape1563-271" transform="translate(0,-6.66262)">
						<title>Sheet.1563</title>
						<path d="M37.98 613.71 C36.57 610.88 33.28 609.78 28.7 610.61 C27.13 610.88 25.58 611.28 24.05 611.83 C25.26
									 612.33 26.41 613.03 27.46 613.9 C28 613.76 28.54 613.59 29.06 613.49 C29.88 613.34 30.69 613.26
									 31.52 613.25 C33.16 612.97 34.81 613.71 35.89 615.21 C36.75 616.94 36.03 619.89 33.92 623.33
									 C30.98 627.75 27.38 631.46 23.31 634.27 C19.34 637.29 14.92 639.36 10.31 640.4 C6.82 641.02
									 4.32 640.4 3.47 638.67 C2.61 636.95 3.34 634 5.45 630.57 C5.71 630.15 5.77 629.95 6.07 629.52
									 C5.93 628.05 5.95 626.57 6.13 625.11 C5.18 626.26 4.31 627.5 3.52 628.82 C0.75 633.3 0 637.33
									 1.4 640.16 C2.91 642.6 5.38 643.89 7.88 643.53 C8.81 643.53 9.74 643.44 10.67 643.26 C15.59
									 642.18 20.3 639.97 24.56 636.77 C28.89 633.77 32.73 629.79 35.86 625.06 C38.62 620.57 39.37
									 616.55 37.98 613.71 Z" class="st36"/>
					</g>
				</g>
			</g>
		</g>
		<g id="group1571-273" transform="translate(597.773,-223.919)">
			<title>Sheet.1571</title>
			<g id="shape1569-274">
				<title>Sheet.1569</title>
				<rect x="0" y="522.354" width="86.625" height="121.536" rx="9" ry="9" class="st4"/>
			</g>
			<g id="group1539-276" transform="translate(26.0325,-60.768)">
				<title>Event Hubs.1539</title>
				<g id="shape1540-277" transform="translate(15.7146,-12.6723)">
					<title>Sheet.1540</title>
					<path d="M5.29 634.74 a0.528565 0.689286 0 0 1 -0.487906 0.715797 L0.55 635.46 a0.528565 0.689286 0 0 1 -0.548894
								 -0.636264 L0 630.69 a0.528565 0.689286 0 0 1 0.487906 -0.715797 L4.74 629.97 a0.528565 0.689286
								 0 0 1 0.548894 0.636264 L5.29 634.74 ZM12.83 638.93 a0.528565 0.689286 0 0 1 -0.487906 0.715797
								 L8.09 639.65 a0.528565 0.689286 0 0 1 -0.548894 -0.636264 L7.54 634.9 a0.528565 0.689286 0 0 1 0.487906
								 -0.715797 L12.28 634.19 a0.528565 0.689286 0 0 1 0.548894 0.636264 L12.83 638.93 ZM5.29 643.17 a0.528565
								 0.689286 0 0 1 -0.487906 0.715797 L0.55 643.89 a0.528565 0.689286 0 0 1 -0.548894 -0.636264 L0 639.12
								 a0.528565 0.689286 0 0 1 0.487906 -0.715797 L4.74 638.4 a0.528565 0.689286 0 0 1 0.548894 0.636264
								 L5.29 643.17 Z" class="st39"/>
				</g>
				<g id="shape1541-279" transform="translate(8.07078,-25.318)">
					<title>Sheet.1541</title>
					<path d="M5.39 643.2 a0.508235 0.662775 0 0 1 -0.467576 0.689286 L0.55 643.89 a0.528565 0.689286 0 0 1 -0.548894
								 -0.609753 L0 638.99 a0.528565 0.689286 0 0 1 0.487906 -0.662775 L4.74 638.32 C5.18 638.32 5.39 638.61
								 5.39 639.04 L5.39 643.2 Z" class="st40"/>
				</g>
				<g id="shape1542-281" transform="translate(8.07078,-8.45701)">
					<title>Sheet.1542</title>
					<path d="M5.39 634.72 a0.508235 0.662775 0 0 1 -0.467576 0.715797 L0.55 635.43 a0.528565 0.689286 0 0 1 -0.548894
								 -0.715797 L0 630.53 a0.528565 0.689286 0 0 1 0.487906 -0.689286 L4.74 629.84 C5.18 629.84 5.39 630.13
								 5.39 630.53 L5.39 634.72 ZM5.39 643.17 a0.508235 0.662775 0 0 1 -0.467576 0.715797 L0.55 643.89
								 a0.528565 0.689286 0 0 1 -0.548894 -0.636264 L0 638.96 a0.508235 0.662775 0 0 1 0.487906 -0.689286
								 L4.74 638.27 C5.18 638.27 5.39 638.53 5.39 638.96 L5.39 643.17 Z" class="st39"/>
				</g>
				<g id="group1543-283" transform="translate(3.44724E-14,-29.8249)">
					<title>Sheet.1543</title>
					<g id="shape1544-284">
						<title>Sheet.1544</title>
						<path d="M1.16 633.58 L3.78 633.58 L3.78 643.12 a0.589553 0.768819 0 0 1 -0.589553 0.768819 L0.59 643.89
									 a0.589553 0.768819 0 0 1 -0.589553 -0.768819 L0 635.17 A1.15878 1.51113 0 0 1 1.16 633.58 Z"
								class="st25"/>
					</g>
					<g id="shape1545-286">
						<title>Sheet.1545</title>
						<path d="M1.16 633.58 L3.78 633.58 L3.78 643.12 a0.589553 0.768819 0 0 1 -0.589553 0.768819 L0.59 643.89
									 a0.589553 0.768819 0 0 1 -0.589553 -0.768819 L0 635.17 A1.15878 1.51113 0 0 1 1.16 633.58 Z"
								class="st41"/>
					</g>
				</g>
				<g id="group1546-288" transform="translate(30.7584,-29.9044)">
					<title>Sheet.1546</title>
					<g id="shape1547-289">
						<title>Sheet.1547</title>
						<path d="M0.02 633.66 L2.64 633.66 A1.15878 1.51113 0 0 1 3.8 635.17 L3.8 643.12 a0.589553 0.768819 0 0 1
									 -0.589553 0.768819 L0.59 643.89 a0.589553 0.768819 0 0 1 -0.589553 -0.768819 L0 633.66 L0.02
									 633.66 Z" class="st25"/>
					</g>
					<g id="shape1548-291">
						<title>Sheet.1548</title>
						<path d="M0.02 633.66 L2.64 633.66 A1.15878 1.51113 0 0 1 3.8 635.17 L3.8 643.12 a0.589553 0.768819 0 0 1
									 -0.589553 0.768819 L0.59 643.89 a0.589553 0.768819 0 0 1 -0.589553 -0.768819 L0 633.66 L0.02
									 633.66 Z" class="st41"/>
					</g>
				</g>
				<g id="shape1549-293" transform="translate(0,-35.3127)">
					<title>Sheet.1549</title>
					<path d="M34.56 640.58 L34.56 643.89 L0 643.89 L0 640.58 A1.15878 1.51113 0 0 1 1.16 639.06 L33.42 639.06 A1.15878
								 1.51113 0 0 1 34.56 640.58 Z" class="st34"/>
				</g>
				<g id="group1550-295">
					<title>Sheet.1550</title>
					<g id="shape1551-296">
						<title>Sheet.1551</title>
						<path d="M0.59 633.58 L3.21 633.58 a0.589553 0.768819 0 0 1 0.589553 0.768819 L3.8 643.89 L1.16 643.89 A1.15878
									 1.51113 0 0 1 0 642.38 L0 634.21 a0.589553 0.768819 0 0 1 0.589553 -0.636264 Z" class="st25"/>
					</g>
					<g id="shape1552-298">
						<title>Sheet.1552</title>
						<path d="M0.59 633.58 L3.21 633.58 a0.589553 0.768819 0 0 1 0.589553 0.768819 L3.8 643.89 L1.16 643.89 A1.15878
									 1.51113 0 0 1 0 642.38 L0 634.21 a0.589553 0.768819 0 0 1 0.589553 -0.636264 Z" class="st41"/>
					</g>
				</g>
				<g id="group1553-300" transform="translate(30.7787,-0.079533)">
					<title>Sheet.1553</title>
					<g id="shape1554-301">
						<title>Sheet.1554</title>
						<path d="M0.57 633.66 L3.19 633.66 a0.589553 0.768819 0 0 1 0.589553 0.768819 L3.78 642.38 A1.15878 1.51113
									 0 0 1 2.62 643.89 L0 643.89 L0 634.29 a0.589553 0.768819 0 0 1 0.569224 -0.636264 Z"
								class="st25"/>
					</g>
					<g id="shape1555-303">
						<title>Sheet.1555</title>
						<path d="M0.57 633.66 L3.19 633.66 a0.589553 0.768819 0 0 1 0.589553 0.768819 L3.78 642.38 A1.15878 1.51113
									 0 0 1 2.62 643.89 L0 643.89 L0 634.29 a0.589553 0.768819 0 0 1 0.569224 -0.636264 Z"
								class="st41"/>
					</g>
				</g>
				<g id="shape1556-305">
					<title>Sheet.1556</title>
					<path d="M0 642.38 L0 639.06 L34.56 639.06 L34.56 642.38 A1.15878 1.51113 0 0 1 33.4 643.89 L1.16 643.89 A1.15878
								 1.51113 0 0 1 0 642.38 Z" class="st34"/>
				</g>
			</g>
			<g id="shape1570-307" transform="translate(11.8125,0)">
				<title>Sheet.1570</title>
				<desc>Azure Event Hubs</desc>
				<rect x="0" y="591.627" width="63" height="52.2626" class="st5"/>
				<text x="17.56" y="614.46" class="st6">Azure <tspan x="4.14" dy="1.2em" class="st7">Event Hubs</tspan></text>			</g>
		</g>
		<g id="group1596-311" transform="translate(747.936,-278.182)">
			<title>Function Apps.1596</title>
			<g id="shape1597-312" transform="translate(0.0135276,-7.47361)">
				<title>Sheet.1597</title>
				<path d="M10.58 642.47 L9.45 643.72 a0.516039 0.567359 0 0 1 -0.728639 0 L0.3 634.5 A1.03014 1.13259 0 0 1 0.3 632.9
							 L1.44 631.64 L10.59 641.67 a0.516039 0.567359 0 0 1 1.77636E-15 0.803227 L10.58 642.47 Z" class="st36"/>
			</g>
			<g id="shape1598-314" transform="translate(0,-15.631)">
				<title>Sheet.1598</title>
				<path d="M9.28 631.93 L10.42 633.18 a0.516039 0.567359 0 0 1 0 0.803227 L1.44 643.89 L0.3 642.64 A1.03014 1.13259
							 0 0 1 0.3 641.04 L8.56 631.93 a0.516039 0.567359 0 0 1 0.726706 0 L9.28 631.93 Z" class="st42"/>
			</g>
			<g id="shape1599-316" transform="translate(23.8167,-7.46723)">
				<title>Sheet.1599</title>
				<path d="M9.29 631.65 L10.43 632.9 A1.03014 1.13259 0 0 1 10.43 634.5 L2.01 643.72 a0.516039 0.567359 0 0 1 -0.728639
							 0 L0.15 642.48 a0.516039 0.567359 0 0 1 -5.05151E-15 -0.801102 L9.3 631.65 L9.29 631.65 Z"
						class="st36"/>
			</g>
			<g id="shape1600-318" transform="translate(23.979,-15.6374)">
				<title>Sheet.1600</title>
				<path d="M10.27 642.64 L9.13 643.89 L0.15 633.98 a0.516039 0.567359 0 0 1 1.83187E-15 -0.801102 L1.29 631.93 a0.516039
							 0.567359 0 0 1 0.730572 0 L10.28 641.04 A1.03014 1.13259 0 0 1 10.28 642.64 L10.27 642.64 Z"
						class="st42"/>
			</g>
			<g id="shape1601-320" transform="translate(8.91128,0)">
				<title>Sheet.1601</title>
				<path d="M7.32 628.19 L0.39 628.19 a0.373017 0.410113 0 0 1 -0.386546 -0.384614 a0.320833 0.35274 0 0 1 0.0347891
							 -0.15937 L8.35 609.56 a0.398142 0.437737 0 0 1 0.359488 -0.225243 L16.92 609.33 a0.373017 0.410113 0
							 0 1 0.386546 0.384614 a0.3189 0.350615 0 0 1 -0.0676455 0.212494 L7.47 624.08 L16.99 624.08 a0.373017
							 0.410113 0 0 1 0.386546 0.384614 a0.34016 0.373989 0 0 1 -0.100502 0.259242 L1.45 642.83 C1.3 642.93
							 0.25 643.89 0.76 642.43 L7.32 628.19 Z" class="st43"/>
			</g>
		</g>
		<g id="shape1605-324" transform="translate(684.409,-283.091)">
			<title>Arrow (Straight).1605</title>
			<path d="M0 643.89 L32.32 643.89" class="st10"/>
		</g>
		<g id="shape1606-329" transform="translate(809.591,-283.091)">
			<title>Arrow (Straight).1606</title>
			<path d="M0 643.89 L32.32 643.89" class="st10"/>
		</g>
		<g id="group1619-334" transform="translate(0,1.2)">
			<title>logo.1619</title>
			<g id="group1620-335" transform="translate(0,-4.5)">
				<title>Azure.1002</title>
				<g id="group1621-336">
					<title>Sheet.1621</title>
					<g id="shape1622-337">
						<title>Sheet.1622</title>
						<path d="M11.96 607.89 L22.69 607.89 L11.57 642.68 A1.67987 1.77404 0 0 1 9.98 643.89 L1.59 643.89 A1.67905
									 1.77317 0 0 1 0 641.55 L10.37 609.1 A1.6774 1.77143 0 0 1 11.96 607.89 Z" class="st44"/>
					</g>
					<g id="shape1623-341" transform="translate(9.14148,0)">
						<title>Sheet.1623</title>
						<path d="M17.63 630.56 L0.73 630.56 a0.781965 0.8258 -180 0 0 -0.533644 1.42843 L11.79 643.41 A1.67987 1.77404
									 -180 0 0 12.93 643.89 L22.51 643.89 L17.63 630.56 Z" class="st27"/>
					</g>
					<g id="group1624-343" transform="translate(12.9538,0)">
						<title>Sheet.1624</title>
						<g id="shape1625-344" transform="translate(7.38139,0)">
							<title>Sheet.1625</title>
							<path d="M3.43 643.89 L11.31 643.89 L6.43 630.56 L0 630.56 L3.72 642.18 A1.69796 1.79314 0 0 1 3.43 643.89
										 Z" class="st45"/>
						</g>
						<g id="shape1626-346" transform="translate(9.29257E-14,-20.9906)">
							<title>Sheet.1626</title>
							<path d="M4.94 643.89 L9.73 628.88 L0 628.88 A1.70042 1.79575 0 0 1 0.33 629.48 L4.94 643.89 Z"
									class="st45"/>
						</g>
					</g>
					<g id="group1627-348" transform="translate(12.3462,0)">
						<title>Sheet.1627</title>
						<g id="shape1628-349" transform="translate(0,-20.0024)">
							<title>Sheet.1628</title>
							<path d="M0 627.89 L5.23 643.89 L5.95 641.61 L1.58 627.89 L0 627.89 Z" class="st46"/>
						</g>
						<g id="shape1629-351" transform="translate(7.32219,0)">
							<title>Sheet.1629</title>
							<path d="M2.59 643.89 L4.85 643.89 A2.31876 2.44874 -180 0 0 4.98 641.96 L1.33 630.56 L0 630.56 L3.79
										 642.39 A1.07469 1.13493 0 0 1 2.77 643.89 L2.59 643.89 Z" class="st46"/>
						</g>
					</g>
					<g id="shape1630-353" transform="translate(12.088,0)">
						<title>Sheet.1630</title>
						<path d="M13.54 609.1 A1.6774 1.77143 -180 0 0 11.95 607.89 L0 607.89 A1.70454 1.80009 0 0 1 1.61 609.11
									 L11.97 641.51 A1.70371 1.79922 0 0 1 10.35 643.89 L22.32 643.89 A1.67905 1.77317 -180 0 0 23.91
									 641.55 L13.54 609.1 Z" class="st47"/>
					</g>
				</g>
			</g>
			<g id="shape1631-357" transform="translate(28.6277,0)">
				<title>Sheet.1631</title>
				<desc>Microsoft Azure</desc>
				<rect x="0" y="598.89" width="72" height="45" class="st5"/>
				<text x="5.5" y="617.19" class="st48">Microsoft <tspan x="17.66" dy="1.2em" class="st7">Azure</tspan></text>			</g>
		</g>
		<g id="shape1632-361" transform="translate(76.8649,-373.622)">
			<title>Number.1632</title>
			<desc>1</desc>
			<ellipse cx="11.5215" cy="632.368" rx="11.5215" ry="11.5215" class="st49"/>
			<text x="8.44" y="635.84" class="st50">1</text>		</g>
		<g id="shape1633-364" transform="translate(317.189,-394.541)">
			<title>Number.1633</title>
			<desc>2</desc>
			<ellipse cx="11.5215" cy="632.368" rx="11.5215" ry="11.5215" class="st49"/>
			<text x="8.44" y="635.84" class="st50">2</text>		</g>
		<g id="shape1634-367" transform="translate(297.96,-260.571)">
			<title>Number.1634</title>
			<desc>3</desc>
			<ellipse cx="11.5215" cy="632.368" rx="11.5215" ry="11.5215" class="st49"/>
			<text x="8.44" y="635.84" class="st50">3</text>		</g>
		<g id="shape1635-370" transform="translate(353.676,-95.3514)">
			<title>Number.1635</title>
			<desc>4</desc>
			<ellipse cx="11.5215" cy="632.368" rx="11.5215" ry="11.5215" class="st49"/>
			<text x="8.44" y="635.84" class="st50">4</text>		</g>
		<g id="shape1636-373" transform="translate(435.405,-308.919)">
			<title>Number.1636</title>
			<desc>5</desc>
			<ellipse cx="11.5215" cy="632.368" rx="11.5215" ry="11.5215" class="st49"/>
			<text x="8.44" y="635.84" class="st50">5</text>		</g>
		<g id="shape1637-376" transform="translate(564.811,-290.919)">
			<title>Number.1637</title>
			<desc>6</desc>
			<ellipse cx="11.5215" cy="632.368" rx="11.5215" ry="11.5215" class="st49"/>
			<text x="8.44" y="635.84" class="st50">6</text>		</g>
		<g id="shape1638-379" transform="translate(882.973,-355.622)">
			<title>Number.1638</title>
			<desc>7</desc>
			<ellipse cx="11.5215" cy="632.368" rx="11.5215" ry="11.5215" class="st49"/>
			<text x="8.44" y="635.84" class="st50">7</text>		</g>
	</g>
</svg>
